<?xml version="1.0" encoding="utf-8"?>
<!-- Generator: Adobe Illustrator 16.0.3, SVG Export Plug-In . SVG Version: 6.00 Build 0)  -->
<!DOCTYPE svg PUBLIC "-//W3C//DTD SVG 1.1//EN" "http://www.w3.org/Graphics/SVG/1.1/DTD/svg11.dtd">
<svg version="1.1"
	 id="molde_calcao" image-rendering="optimizeQuality" text-rendering="geometricPrecision" shape-rendering="geometricPrecision"
	 xmlns="http://www.w3.org/2000/svg" xmlns:xlink="http://www.w3.org/1999/xlink" x="0px" y="0px" width="181px" height="149px"
	 viewBox="0 0 181 149" enable-background="new 0 0 181 149" xml:space="preserve">
<path d="M80.372,143.682c0.052-0.256,0.103-0.633,0.183-1.982c0.08-1.349,0.19-3.672,0.456-8.24
	c0.266-4.57,0.688-11.387,1.023-16.365c0.336-4.978,0.587-8.118,0.913-11.589c0.326-3.471,0.728-7.273,1.229-11.236
	c0.501-3.962,1.104-8.085,1.876-12.771c0.772-4.685,1.715-9.932,2.432-13.367s1.208-5.061,1.525-6.088
	c0.314-1.028,0.454-1.456,0.563-1.691c0.108-0.234,0.186-0.274,0.26-0.267s0.145,0.061,0.234,0.161
	c0.091,0.1,0.201,0.244,0.344,0.552c0.144,0.306,0.318,0.773,0.602,1.408c0.283,0.635,0.674,1.436,1.009,2.221
	s0.616,1.556,0.735,2.149c0.119,0.594,0.076,1.01,0.111,1.478c0.035,0.467,0.148,0.986,0.444,1.424
	c0.296,0.437,0.774,0.793,1.051,1.266c0.275,0.473,0.349,1.063,0.529,1.899c0.18,0.837,0.468,1.92,0.567,2.737
	s0.01,1.369-0.085,1.89c-0.094,0.521-0.192,1.01-0.089,1.5s0.406,0.982,0.761,1.438c0.355,0.456,0.762,0.878,1.011,1.155
	c0.25,0.277,0.342,0.41,0.432,0.535c0.089,0.126,0.174,0.244,0.309,0.773c0.134,0.531,0.316,1.475,0.386,2.129
	s0.024,1.02-0.002,1.385s-0.034,0.729-0.064,1.191c-0.03,0.463-0.082,1.024-0.075,1.54c0.008,0.516,0.075,0.984,0.404,1.681
	c0.331,0.696,0.923,1.618,1.483,2.365c0.561,0.746,1.089,1.314,1.444,1.674c0.355,0.357,0.537,0.504,0.701,0.764
	s0.31,0.635,0.43,1.112c0.121,0.479,0.216,1.06,0.268,1.733c0.051,0.676,0.059,1.443,0.047,2.294
	c-0.01,0.853-0.041,1.787,0.133,2.64c0.172,0.851,0.549,1.618,0.968,2.266c0.419,0.649,0.88,1.179,1.223,1.606
	c0.343,0.429,0.565,0.758,0.753,1.082c0.188,0.323,0.337,0.642,0.488,1.016c0.15,0.374,0.301,0.803,0.414,1.3
	c0.115,0.498,0.192,1.065,0.299,1.58c0.106,0.514,0.242,0.975,0.33,1.494c0.088,0.519,0.128,1.096,0.281,1.939
	c0.152,0.842,0.418,1.951,0.596,2.878c0.18,0.929,0.27,1.676,0.367,2.337c0.098,0.662,0.203,1.239,0.286,2.01
	c0.083,0.77,0.143,1.732,0.259,2.44c0.113,0.707,0.285,1.158,0.407,1.839c0.124,0.679,0.198,1.586,0.265,2.121
	c0.064,0.534,0.119,0.694,0.253,0.838c0.132,0.143,0.343,0.268,0.626,0.408c0.284,0.141,0.64,0.296,1.004,0.532
	c0.363,0.235,0.734,0.552,1.16,0.914c0.428,0.362,0.908,0.771,1.43,1.097c0.52,0.326,1.08,0.57,1.611,0.757s1.035,0.316,1.591,0.458
	c0.556,0.143,1.162,0.295,1.983,0.438c0.819,0.143,1.854,0.277,2.648,0.368c0.794,0.091,1.352,0.142,2.494,0.161
	c1.142,0.018,2.869,0.006,4.188-0.03c1.318-0.038,2.227-0.097,3.383-0.197c1.155-0.101,2.561-0.241,4.203-0.416
	c1.643-0.174,3.523-0.382,5.102-0.528c1.577-0.146,2.852-0.232,4.16-0.305c1.31-0.072,2.654-0.133,3.821-0.166
	c1.167-0.032,2.157-0.037,4.201-0.07c2.042-0.035,5.136-0.097,7.196-0.159c2.059-0.062,3.082-0.122,4.611-0.306
	c1.53-0.187,3.566-0.498,4.826-0.716c1.257-0.218,1.737-0.344,2.064-0.479c0.326-0.135,0.5-0.279,0.641-0.373
	s0.244-0.137,0.529-0.237c0.282-0.103,0.744-0.263,1.279-0.447c0.535-0.184,1.145-0.393,1.625-0.598
	c0.48-0.206,0.832-0.409,1.059-0.538s0.33-0.185,0.496-0.194c0.168-0.011,0.398,0.024,0.59-0.021
	c0.191-0.048,0.346-0.176,0.549-0.367c0.205-0.191,0.461-0.448,0.563-0.842c0.103-0.393,0.054-0.926,0.058-2.267
	c0.006-1.343,0.066-3.494,0.045-5.889c-0.02-2.396-0.119-5.034-0.17-6.644c-0.051-1.61-0.051-2.192-0.051-3.015
	c0-0.823,0-1.887-0.025-2.882c-0.024-0.996-0.074-1.924-0.097-2.885s-0.019-1.953-0.081-3.526c-0.063-1.571-0.192-3.724-0.263-5.465
	c-0.07-1.739-0.08-3.069-0.202-6.605c-0.124-3.536-0.359-9.279-0.818-14.95c-0.459-5.67-1.141-11.268-2.004-16.585
	s-1.906-10.353-2.939-15.138c-1.033-4.785-2.057-9.32-3.4-13.954c-1.345-4.635-3.01-9.37-4.615-13.633
	c-1.604-4.264-3.15-8.056-4.063-10.254c-0.914-2.198-1.193-2.803-1.314-3.193c-0.121-0.392-0.08-0.57,0.009-0.707
	c0.089-0.136,0.228-0.232,0.339-0.307c0.012-0.008,0.023-0.017,0.036-0.025c-0.036-0.002-0.077-0.005-0.126-0.007
	c-0.092-0.005-0.215-0.012-0.61-0.043c-0.396-0.03-1.063-0.085-1.95-0.093c-0.886-0.007-1.99,0.033-3.146,0.117
	c-1.157,0.083-2.367,0.21-4.256,0.535c-1.891,0.324-4.459,0.846-6.578,1.317c-2.12,0.471-3.793,0.893-5.986,1.327
	c-2.193,0.435-4.908,0.883-7.635,1.248c-2.725,0.365-5.459,0.645-8.771,0.946c-3.31,0.3-7.195,0.622-10.441,0.849
	c-3.248,0.228-5.856,0.362-8.24,0.492c-2.385,0.13-4.545,0.257-6.999,0.355c-2.454,0.096-5.203,0.164-7.933,0.22
	c-2.729,0.058-5.437,0.104-8.019,0.098c-2.581-0.007-5.036-0.067-7.336-0.121c-2.301-0.053-4.448-0.101-6.771-0.171
	c-2.325-0.07-4.826-0.164-7.896-0.251c-3.07-0.086-6.708-0.167-10.564-0.19c-3.856-0.024-7.929,0.01-11.299,0.006
	c-3.372-0.003-6.04-0.043-9.568-0.18c-3.527-0.138-7.914-0.372-11.07-0.608c-3.155-0.235-5.078-0.472-6.477-0.752
	C8.148,4.958,7.275,4.637,6.401,4.316c0.039,0.056,0.018,0.166-0.024,0.549C6.323,5.35,6.232,6.27,5.981,7.962
	c-0.25,1.694-0.662,4.159-0.93,5.963c-0.268,1.804-0.394,2.948-0.694,4.831c-0.302,1.885-0.778,4.508-1.162,6.82
	c-0.384,2.312-0.675,4.313-0.905,6.001c-0.231,1.688-0.402,3.062-0.56,4.656c-0.159,1.595-0.303,3.412-0.461,5.609
	c-0.159,2.197-0.329,4.774-0.499,7.654c-0.171,2.879-0.342,6.059-0.467,9.45c-0.125,3.391-0.205,6.992-0.18,10.679
	c0.025,3.686,0.155,7.458,0.411,11.125c0.256,3.666,0.637,7.228,0.888,10.428c0.25,3.2,0.371,6.039,0.426,9.18
	c0.055,3.139,0.045,6.58,0.081,10.528c0.035,3.946,0.115,8.401,0.196,12.118s0.161,6.695,0.235,8.748
	c0.074,2.052,0.142,3.175,0.169,3.847c0.028,0.673,0.015,0.894,0.024,1.961c0.009,1.069,0.039,2.985,0.068,4.353
	c0.03,1.365,0.061,2.184,0.121,2.67c0.061,0.487,0.151,0.643,0.424,0.928c0.273,0.287,0.73,0.703,2.316,1.036
	c1.584,0.333,4.297,0.585,6.886,0.808c2.588,0.223,5.051,0.419,9.229,0.643c4.178,0.223,10.072,0.474,14.426,0.661
	c4.354,0.188,7.168,0.313,9.636,0.337c2.467,0.021,4.589-0.059,6.734-0.125c2.144-0.068,4.311-0.123,6.377-0.191
	c2.067-0.067,4.034-0.148,6.804-0.496c2.772-0.35,6.348-0.966,8.583-1.423c2.235-0.456,3.128-0.753,3.913-1.151
	c0.784-0.397,1.461-0.9,1.828-1.219S80.318,143.938,80.372,143.682z"/>
</svg>
