<?xml version="1.0" encoding="utf-8"?>
<!-- Generator: Adobe Illustrator 16.0.3, SVG Export Plug-In . SVG Version: 6.00 Build 0)  -->
<!DOCTYPE svg PUBLIC "-//W3C//DTD SVG 1.1//EN" "http://www.w3.org/Graphics/SVG/1.1/DTD/svg11.dtd">
<svg version="1.1" class="detalhes_calcao" shape-rendering="geometricPrecision" text-rendering="geometricPrecision" image-rendering="optimizeQuality" xmlns="http://www.w3.org/2000/svg" xmlns:xlink="http://www.w3.org/1999/xlink" x="0px" y="0px" width="181px" height="149px" viewBox="0 0 181 149" enable-background="new 0 0 181 149" xml:space="preserve">
	<g class="numero_frente" transition="transform .5s ease" text-anchor="middle">
		<text class="previewNumero">10</text>
	</g>
	<g class="recorte_lateral">
		<path d="M174.423 131.36l-0.021 -2.075c-0.059,-5.581 -0.148,-11.325 -0.292,-17.392 -0.127,-5.33 -0.304,-10.987 -0.507,-16.644 -0.231,-6.431 -0.503,-12.911 -0.774,-18.892 -0.238,-5.243 -0.473,-9.995 -1.01,-14.917 -0.519,-4.749 -1.33,-9.631 -2.73,-15.262 -2.623,-10.554 -7.381,-23.959 -11.081,-34.384l-0.958 -2.702c-1.147,-3.242 -2.165,-6.153 -3.094,-8.837 0.544,-0.061 1.033,-0.103 1.514,-0.137 1.158,-0.084 2.263,-0.124 3.15,-0.117 0.888,0.008 1.558,0.063 1.953,0.094 0.396,0.031 0.519,0.038 0.611,0.043 0.049,0.002 0.09,0.005 0.127,0.006 -0.012,0.009 -0.024,0.017 -0.037,0.026 -0.112,0.075 -0.25,0.171 -0.339,0.308 -0.089,0.137 -0.129,0.315 -0.009,0.707 0.121,0.391 0.402,0.997 1.316,3.198 0.914,2.201 2.461,5.998 4.068,10.267 1.607,4.269 3.275,9.01 4.621,13.651 1.346,4.641 2.371,9.181 3.405,13.973 1.035,4.791 2.079,9.834 2.943,15.158 0.864,5.323 1.547,10.929 2.007,16.607 0.459,5.677 0.695,11.428 0.818,14.969 0.124,3.541 0.134,4.872 0.204,6.615 0.07,1.742 0.201,3.897 0.264,5.472 0.062,1.574 0.057,2.569 0.08,3.531 0.022,0.961 0.073,1.891 0.098,2.888 0.025,0.996 0.025,2.061 0.025,2.885 0,0.824 0,1.406 0.05,3.018 0.05,1.613 0.151,4.254 0.171,6.653 0.02,2.398 -0.04,4.553 -0.045,5.896 -0.005,1.344 0.045,1.876 -0.058,2.27 -0.103,0.395 -0.359,0.651 -0.564,0.843 -0.204,0.192 -0.358,0.32 -0.55,0.367 -0.192,0.046 -0.423,0.011 -0.59,0.021 -0.167,0.01 -0.27,0.065 -0.497,0.194 -0.228,0.13 -0.579,0.333 -1.06,0.539 -0.481,0.206 -1.091,0.415 -1.627,0.599 -0.537,0.185 -0.999,0.345 -1.282,0.447 -0.131,0.047 -0.224,0.081 -0.3,0.114zm-163.12 -125.812c-1.203,12.03 -2.377,23.967 -3.199,34.765 -0.444,5.837 -0.756,10.924 -0.937,15.456 -0.193,4.826 -0.27,9.295 -0.235,13.624 0.045,5.618 0.288,11.395 0.602,18.874 0.164,3.894 0.348,8.263 0.543,13.654 0.267,7.359 0.543,16.461 0.823,26.435 0.166,5.905 0.339,12.322 0.514,18.932 -1.588,-0.159 -3.042,-0.337 -4.045,-0.548 -1.587,-0.334 -2.044,-0.751 -2.318,-1.037 -0.273,-0.287 -0.364,-0.442 -0.424,-0.929 -0.061,-0.487 -0.091,-1.306 -0.121,-2.675 -0.03,-1.368 -0.06,-3.287 -0.069,-4.357 -0.009,-1.069 0.004,-1.29 -0.024,-1.964 -0.027,-0.673 -0.095,-1.798 -0.169,-3.852 -0.075,-2.054 -0.155,-5.037 -0.235,-8.759 -0.081,-3.722 -0.161,-8.182 -0.196,-12.134 -0.035,-3.953 -0.025,-7.399 -0.08,-10.543 -0.056,-3.144 -0.176,-5.987 -0.427,-9.191 -0.251,-3.204 -0.633,-6.77 -0.889,-10.442 -0.256,-3.671 -0.387,-7.448 -0.412,-11.139 -0.025,-3.692 0.055,-7.298 0.181,-10.693 0.125,-3.396 0.296,-6.58 0.467,-9.463 0.17,-2.883 0.341,-5.464 0.499,-7.664 0.158,-2.2 0.304,-4.018 0.462,-5.615 0.159,-1.597 0.329,-2.974 0.56,-4.664 0.231,-1.69 0.523,-3.694 0.907,-6.009 0.384,-2.315 0.861,-4.942 1.162,-6.828 0.302,-1.886 0.427,-3.031 0.696,-4.838 0.269,-1.807 0.681,-4.276 0.932,-5.971 0.251,-1.695 0.341,-2.616 0.395,-3.101 0.043,-0.385 0.063,-0.494 0.025,-0.551 0.875,0.322 1.75,0.644 3.15,0.924 0.532,0.106 1.14,0.207 1.862,0.303z"/>
	</g>
</svg>
