<?xml version="1.0" encoding="utf-8"?>
<!-- Generator: Adobe Illustrator 16.0.3, SVG Export Plug-In . SVG Version: 6.00 Build 0)  -->
<!DOCTYPE svg PUBLIC "-//W3C//DTD SVG 1.1//EN" "http://www.w3.org/Graphics/SVG/1.1/DTD/svg11.dtd">
<svg version="1.1" id="molde_meiao" image-rendering="optimizeQuality" text-rendering="geometricPrecision" shape-rendering="geometricPrecision" xmlns="http://www.w3.org/2000/svg" xmlns:xlink="http://www.w3.org/1999/xlink" x="0px" y="0px" width="160px" height="188px" viewBox="0 0 160 188" enable-background="new 0 0 160 188" xml:space="preserve">
	<path d="M55.278,77.31c-0.125-3.141-0.587-6.759-1.347-10.976c-0.759-4.217-1.814-9.031-2.533-12.014
	c-0.719-2.982-1.1-4.133-1.291-4.708c-0.192-0.575-0.192-0.575-0.193-1.165s-0.004-1.768-0.125-2.797
	c-0.12-1.029-0.359-1.909-0.486-2.529c-0.127-0.621-0.142-0.983-0.131-1.238c0.01-0.255,0.045-0.403,0.384-1.231
	c0.338-0.828,0.982-2.335,1.746-4.201c0.764-1.865,1.648-4.085,2.419-5.993c0.771-1.907,1.43-3.5,1.91-4.801
	c0.48-1.302,0.781-2.312,0.903-3.096c0.121-0.784,0.06-1.341-0.257-2.005c-0.316-0.664-0.89-1.433-1.81-2.241
	c-0.919-0.809-2.186-1.659-3.54-2.471c-1.354-0.812-2.797-1.585-4.488-2.299c-1.691-0.714-3.632-1.367-5.468-1.854
	c-1.837-0.487-3.571-0.809-5.46-1.048c-1.89-0.238-3.935-0.394-5.29-0.514c-1.354-0.121-2.017-0.205-3.474-0.298
	c-1.458-0.092-3.71-0.193-6.142-0.057c-2.433,0.135-5.046,0.508-7.307,1.125c-2.262,0.619-4.172,1.483-5.569,2.252
	c-1.396,0.769-2.281,1.442-2.778,2.356c-0.498,0.916-0.608,2.071-0.608,2.885c0,0.814,0.11,1.286,0.241,2.186
	c0.13,0.899,0.281,2.227,0.299,3.782c0.017,1.555-0.099,3.339-0.226,4.347c-0.128,1.007-0.269,1.239-0.42,1.55
	c-0.15,0.311-0.311,0.704-0.367,1.113c-0.055,0.41-0.005,0.836,0.03,1.158c0.035,0.322,0.056,0.538-0.015,0.951
	c-0.07,0.412-0.231,1.02-0.48,2.01c-0.249,0.99-0.585,2.361-0.952,3.913c-0.367,1.55-0.764,3.279-1.153,6.535
	c-0.39,3.257-0.771,8.041-1.013,12.997c-0.241,4.955-0.341,10.081-0.261,14.363c0.08,4.281,0.342,7.719,1.277,13.086
	c0.935,5.368,2.542,12.665,4.453,20.385c1.91,7.719,4.121,15.86,5.739,22.103c1.618,6.242,2.644,10.584,3.608,14.755
	s1.87,8.173,2.433,10.81c0.563,2.639,0.784,3.916,0.843,5.248c0.062,1.332-0.039,2.719-0.166,4.07
	c-0.125,1.352-0.276,2.669-0.507,4.121c-0.231,1.453-0.543,3.041-0.965,4.765c-0.423,1.724-0.955,3.583-1.097,5.519
	c-0.141,1.935,0.111,3.944,0.353,5.35c0.241,1.406,0.472,2.206,0.575,2.723c0.104,0.516,0.079,0.748,0.062,0.881
	c-0.019,0.272-0.037,0.545-0.052,0.694c-0.016,0.149-0.03,0.177-0.036,0.19c-0.007,0.014-0.007,0.014,0.336-0.248
	c0.344-0.262,1.03-0.784,1.646-1.273c0.614-0.489,1.156-0.945,1.652-1.246c0.496-0.302,0.946-0.449,1.192-0.529
	s0.29-0.095,0.311-0.101c0.022-0.007,0.022-0.007,0.241-0.493c0.22-0.486,0.659-1.457,0.995-2.059
	c0.337-0.601,0.571-0.833,0.726-0.936c0.154-0.102,0.228-0.074,0.292-0.029c0.064,0.045,0.117,0.109,0.246,0.378
	c0.13,0.271,0.334,0.746,0.493,1.311c0.16,0.565,0.273,1.218,0.398,1.578s0.263,0.427,0.458,0.429
	c0.194,0.002,0.446-0.063,0.674-0.338c0.227-0.276,0.432-0.767,0.692-1.43c0.261-0.663,0.581-1.5,0.974-2.072
	c0.394-0.57,0.862-0.876,1.279-1.104c0.417-0.229,0.783-0.379,1.38-0.502c0.598-0.125,1.429-0.223,2.234-0.217
	c0.803,0.004,1.582,0.111,2.289,0.343c0.709,0.231,1.35,0.587,1.88,1.063c0.53,0.476,0.953,1.072,1.276,1.61
	c0.323,0.537,0.548,1.016,0.685,1.275c0.138,0.261,0.188,0.301,0.213,0.32c0.025,0.021,0.025,0.021,0.315,0.082
	c0.29,0.063,0.87,0.187,1.454,0.49c0.585,0.306,1.175,0.792,1.821,1.291s1.351,1.012,1.923,1.348
	c0.573,0.334,1.015,0.491,1.395,0.539c0.378,0.05,0.693-0.01,0.936-0.143c0.243-0.133,0.414-0.338,0.516-0.611
	c0.103-0.275,0.136-0.62,0.153-1.697s0.017-2.887,0.026-3.972c0.009-1.07,0.027-1.437,0.046-1.792
	c0.008-0.157,0.021-0.371,0.038-0.68c0.051-0.951,0.129-2.791,0.088-4.223c-0.041-1.431-0.203-2.451-0.647-3.965
	c-0.445-1.516-1.173-3.525-1.796-5.668c-0.624-2.141-1.141-4.412-1.43-6.206s-0.349-3.11-0.336-5.659
	c0.012-2.548,0.098-6.327,0.384-9.76c0.287-3.432,0.774-6.518,1.144-9.353c0.369-2.834,0.622-5.417,0.925-7.964
	c0.304-2.545,0.662-5.053,1.061-7.407s0.841-4.556,1.233-6.314c0.393-1.759,0.734-3.075,1.202-4.554
	c0.467-1.478,1.061-3.115,1.724-5.276c0.663-2.162,1.396-4.846,2.025-7.675c0.628-2.83,1.151-5.804,1.518-8.624
	C55.193,83.115,55.404,80.451,55.278,77.31z M100.826,63.022c0.006,3.262,0.336,7.172,0.76,10.509
	c0.421,3.336,0.934,6.101,1.409,8.159c0.475,2.058,0.911,3.411,1.231,4.518c0.318,1.108,0.52,1.973,0.678,3.066
	c0.158,1.092,0.274,2.414,0.404,3.838c0.131,1.421,0.277,2.944,0.341,5.545c0.064,2.6,0.046,6.279,0.042,9.327
	c-0.002,3.048,0.008,5.466-0.077,7.552c-0.084,2.088-0.263,3.845-0.513,5.723s-0.571,3.878-1.045,5.604
	c-0.475,1.725-1.1,3.176-1.627,4.105c-0.551,1.01-1.103,2.02-1.596,2.936c-0.494,0.917-0.93,1.742-1.271,2.626
	c-0.343,0.885-0.591,1.829-0.808,2.681c-0.218,0.851-0.405,1.607-0.503,2.834c-0.097,1.227-0.104,2.922-0.043,4.134
	c0.06,1.214,0.188,1.944,0.441,2.614c0.255,0.67,0.637,1.279,1.229,2.011c0.594,0.729,1.397,1.581,2.316,2.245
	c0.917,0.666,1.949,1.145,3.085,1.678s2.376,1.119,3.062,1.442c0.688,0.323,0.822,0.384,0.889,0.413
	c0.066,0.031,0.066,0.031,0.178-0.271s0.332-0.905,0.793-1.38c0.461-0.477,1.16-0.825,1.874-1.068
	c0.714-0.242,1.44-0.38,2.401-0.395c0.959-0.016,2.152,0.092,3.023,0.25c0.871,0.156,1.421,0.363,1.857,0.676
	c0.438,0.312,0.762,0.727,0.997,1.052c0.233,0.325,0.378,0.56,0.56,0.946c0.18,0.387,0.398,0.927,0.568,1.528
	c0.168,0.602,0.289,1.265,0.403,1.674c0.113,0.409,0.221,0.562,0.341,0.572c0.121,0.01,0.256-0.124,0.393-0.717
	c0.137-0.594,0.278-1.645,0.396-2.432c0.119-0.788,0.217-1.311,0.344-1.61c0.127-0.299,0.285-0.374,0.432-0.326
	c0.148,0.048,0.285,0.219,0.526,0.654s0.587,1.135,0.804,1.677c0.219,0.541,0.309,0.923,0.354,1.13
	c0.045,0.209,0.045,0.241,0.332,0.178c0.287-0.063,0.859-0.225,1.184-0.287c0.323-0.064,0.396-0.031,0.479-0.374
	s0.173-1.063,0.349-1.796s0.437-1.477,0.632-2.145c0.172-0.589,0.293-1.12,0.422-1.504c-0.029-0.193,0.037-0.393,0.204-0.954
	c0.194-0.651,0.521-1.79,0.737-3.438c0.216-1.65,0.321-3.811,0.216-5.989s-0.423-4.376-0.591-5.951s-0.188-2.53-0.188-3.181
	c0-0.651,0.021-0.998,0.194-1.397c0.172-0.399,0.5-0.852,0.944-1.771c0.444-0.922,1.007-2.308,1.626-3.813
	c0.617-1.506,1.291-3.129,2.367-5.725c1.075-2.596,2.553-6.164,4.478-10.521c1.925-4.356,4.298-9.504,6.046-13.328
	c1.75-3.824,2.875-6.328,3.995-9.102c1.12-2.773,2.237-5.819,3.292-8.679c1.056-2.86,2.051-5.533,2.909-8.177
	c0.858-2.645,1.58-5.258,2.134-7.805c0.554-2.546,0.939-5.025,1.262-8.185c0.323-3.16,0.584-7,0.668-10.734
	c0.085-3.734-0.006-7.362-0.021-9.775c-0.015-2.412,0.046-3.608,0.019-4.221c-0.025-0.613-0.139-0.644-0.188-0.822
	c-0.05-0.178-0.035-0.505-0.17-0.685c-0.133-0.18-0.417-0.212-0.56-0.229c-0.142-0.016-0.142-0.016-0.142-0.016s0,0,0.296-1.211
	c0.296-1.211,0.89-3.633,1.247-5.614c0.356-1.98,0.477-3.517,0.195-5.191c-0.281-1.673-0.965-3.483-1.688-4.976
	c-0.725-1.492-1.488-2.669-2.689-3.93c-1.201-1.262-2.84-2.608-4.234-3.536c-1.395-0.927-2.546-1.435-3.729-1.897
	c-1.184-0.463-2.399-0.879-3.648-1.148s-2.531-0.39-4.332-0.472c-1.803-0.083-4.124-0.129-6.268-0.059s-4.108,0.256-6.151,0.528
	c-2.044,0.271-4.163,0.627-5.907,1.161c-1.744,0.532-3.111,1.241-4.242,1.925c-1.131,0.684-2.025,1.341-3.26,2.193
	c-1.233,0.852-2.807,1.897-3.989,2.972c-1.185,1.076-1.978,2.182-2.466,3.471c-0.487,1.29-0.669,2.762-0.706,3.973
	s0.068,2.161,0.324,3.261c0.256,1.102,0.663,2.353,1.291,4.489c0.629,2.135,1.478,5.155,1.903,6.666
	c0.424,1.511,0.424,1.511,0.354,1.635c-0.072,0.125-0.213,0.374-0.308,0.531c-0.096,0.157-0.144,0.223-0.345,0.617
	s-0.555,1.114-0.827,1.757c-0.272,0.642-0.464,1.205-1.308,3.197c-0.844,1.993-2.338,5.416-3.473,8.333
	c-1.135,2.917-1.908,5.33-2.455,7.843C101.143,57.148,100.821,59.761,100.826,63.022z"/>
</svg>
