<?xml version="1.0" encoding="utf-8"?>
<!-- Generator: Adobe Illustrator 16.0.3, SVG Export Plug-In . SVG Version: 6.00 Build 0)  -->
<!DOCTYPE svg PUBLIC "-//W3C//DTD SVG 1.1//EN" "http://www.w3.org/Graphics/SVG/1.1/DTD/svg11.dtd">
<svg version="1.1" id="molde_meiao_verso" image-rendering="optimizeQuality" text-rendering="geometricPrecision" shape-rendering="geometricPrecision" xmlns="http://www.w3.org/2000/svg" xmlns:xlink="http://www.w3.org/1999/xlink" x="0px" y="0px" width="213px" height="183px" viewBox="0 0 213 183" enable-background="new 0 0 213 183" xml:space="preserve">
	<path d="M55.094,38.53c-0.213-1.375-0.475-4.569-0.215-5.881c0.526-1.866,0.529-0.299,0.529-2.853
	c2.57-1.361,0.741-1.065,2.849-4.19c1.869-2.771,3.486-5.848,5.057-8.792c0.847-1.586,1.667-2.95,2.082-4.73
	c-1.323-1.977-4.481-2.388-6.536-3.226c-2.01-0.942-4.189-1.625-6.322-2.305l-3.39-0.923c-0.475-0.091-0.879-0.146-1.293-0.297
	l-3.92-1.056L41.59,3.843L40.203,3.46c-1.119-0.36-2.331-0.333-3.53-0.809l-1.657-0.357c-2.777-0.642-5.922-1.015-8.792-1.189
	l-2.372-0.149c-2.882-0.292-7.177-1.336-9.988-0.681c-0.724,1.509-0.492,5.183-0.722,7.226c-0.269,2.388-0.867,4.596-0.867,7.081
	c-2.078,0.484-0.418,1.49-1.037,2.797c-1.361,2.877-2.407,6.018-3.506,9.008c-1.18,3.206-0.678,1.998-0.678,3.636
	c0,0.299-1.164,3.776-1.343,4.561L2.558,48.46c-0.749,3.151-1.059,6.32-1.696,9.591c-0.161,0.823-0.401,3.487-0.557,4.732
	c-0.794,6.318,0.159,13.549,0.636,19.678c0.526,6.733,1.29,13.145,2.241,19.787c0.73,5.107,2.381,14.999,2.73,19.067l1.349,13.411
	c0.182,2.219,0.285,4.471,0.606,6.661c0.335,2.296-0.166,4.79,0.157,7.11c0.838,6.014-1.947,12.285-3.99,17.479
	c-0.979,2.489-1.236,4.834-1.237,7.24c-0.009-0.011-0.02-0.023-0.032-0.037c0,1.092,0.02,1.715,0.018,2.096
	c0.042,1.096,0.082,2.187,0.1,3.181c0.018,1.037,0.012,1.968,0.015,2.603c0.004,0.633,0.016,0.972,0.022,1.14
	c0.007,0.169,0.007,0.169,0.256,0.172c0.25,0.003,0.75,0.01,1.566-0.149c0.815-0.16,1.946-0.484,2.984-0.926
	c1.038-0.439,1.982-0.996,2.773-1.662c0.791-0.665,1.429-1.439,1.953-2.084c0.525-0.643,0.938-1.156,1.407-1.549
	c0.468-0.395,0.993-0.669,1.943-0.732c0.949-0.062,2.324,0.088,3.418,0.307c1.093,0.219,1.905,0.507,3.068,0.606
	c1.162,0.101,2.674,0.013,3.967-0.294c1.294-0.306,2.368-0.831,3.14-1.096c0.772-0.266,1.24-0.271,1.775-0.141
	c0.534,0.131,1.134,0.399,1.609,0.803c0.475,0.402,0.824,0.939,1.234,1.465c0.321,0.412,0.678,0.814,1.043,1.217l-0.117-0.309
	c0.012,0.009,0.024,0.018,0.036,0.027c0.499-1.041,1.589-7.744,1.589-9.538c0-2.835-0.984-5.655-1.46-8.303
	c-1.606-8.923,0.27-17.36,2.368-25.76c1.766-7.065,4.64-20.214,6.782-26.144c0.573-1.586,1.21-3.287,1.809-4.774l2.076-4.509
	c0.37-0.758,0.784-1.511,1.132-2.274l3.726-9.443c3.697-11.185,4.224-17.232,3.302-29.367c-0.238-3.127-0.444-6.909-0.826-9.846
	c-0.177-1.364-0.964-6.114-0.647-7.313C55.098,39.561,55.329,40.044,55.094,38.53z M175.531,134.253
	c2.1,8.399,3.976,16.837,2.369,25.76c-0.476,2.647-1.461,5.468-1.461,8.303c0,1.794,1.092,8.497,1.59,9.538
	c0.013-0.01,0.025-0.019,0.037-0.027l-0.008,0.017c0.654-0.731,1.303-1.44,1.918-1.989c0.713-0.635,1.383-1.054,2.004-1.209
	c0.621-0.156,1.197-0.051,1.828,0.225s1.317,0.719,2.326,0.972c1.01,0.253,2.342,0.315,3.51,0.274s2.174-0.185,3.218-0.368
	c1.043-0.185,2.124-0.409,2.915-0.507c0.79-0.096,1.29-0.065,1.793,0.082c0.504,0.146,1.01,0.408,1.747,1.068
	c0.737,0.659,1.705,1.715,2.589,2.717c0.885,1.004,1.686,1.953,2.631,2.613c0.947,0.659,2.041,1.027,3.025,1.162
	c0.983,0.135,1.858,0.034,2.33-0.466c0.473-0.5,0.541-1.399,0.568-2.298c0.029-0.898,0.016-1.795-0.027-2.561
	c-0.037-0.656-0.099-1.215-0.162-1.761c-0.088-0.269-0.031-0.776-0.031-2.618c-0.012,0.014-0.022,0.027-0.032,0.037
	c-0.001-2.406-0.257-4.751-1.236-7.24c-2.043-5.193-4.828-11.465-3.989-17.479c0.322-2.32-0.18-4.814,0.156-7.11
	c0.321-2.19,0.424-4.442,0.605-6.661l1.349-13.411c0.349-4.068,2-13.96,2.731-19.067c0.949-6.642,1.715-13.054,2.24-19.787
	c0.438-5.613,1.02-10.023,0.926-15.893l-0.846-8.517c-0.638-3.271-0.947-6.44-1.697-9.591l-3.152-13.876
	c-0.18-0.785-1.344-4.262-1.344-4.561c0-1.638,0.502-0.43-0.678-3.636c-1.099-2.99-2.145-6.131-3.506-9.008
	c-0.619-1.307,1.041-2.313-1.037-2.797c0-2.484-0.599-4.692-0.867-7.081c-0.229-2.043,0.002-5.717-0.722-7.226
	c-2.384-0.555-6.104,0.143-8.507,0.49l-3.854,0.34c-2.869,0.174-6.014,0.547-8.792,1.189l-1.656,0.357
	c-1.199,0.476-2.411,0.449-3.53,0.809l-1.24,0.374l-2.313,0.39l-4.098,1.108c-0.414,0.151-0.818,0.206-1.294,0.297l-3.392,0.923
	c-2.131,0.68-4.311,1.363-6.32,2.305c-2.057,0.838-5.213,1.249-6.536,3.226c0.414,1.78,1.235,3.145,2.082,4.73
	c1.571,2.944,3.188,6.021,5.058,8.792c2.107,3.125,0.278,2.829,2.849,4.19c0,2.554,0.003,0.987,0.528,2.853
	c0.261,1.312-0.002,4.507-0.215,5.881c-0.234,1.514-0.004,1.031,0.266,2.053c0.318,1.198-0.469,5.948-0.646,7.313
	c-0.382,2.937-0.588,6.719-0.826,9.846c-0.923,12.134-0.395,18.182,3.303,29.367l3.725,9.443c0.35,0.764,0.764,1.517,1.133,2.274
	l2.076,4.509c0.598,1.487,1.236,3.188,1.81,4.774C170.893,114.039,173.768,127.188,175.531,134.253z"/>
</svg>
