<?xml version="1.0" encoding="utf-8"?>
<!-- Generator: Adobe Illustrator 16.0.3, SVG Export Plug-In . SVG Version: 6.00 Build 0)  -->
<!DOCTYPE svg PUBLIC "-//W3C//DTD SVG 1.1//EN" "http://www.w3.org/Graphics/SVG/1.1/DTD/svg11.dtd">
<svg version="1.1"
	 class="detalhes_calcao" image-rendering="optimizeQuality" text-rendering="geometricPrecision" shape-rendering="geometricPrecision"
	 xmlns="http://www.w3.org/2000/svg" xmlns:xlink="http://www.w3.org/1999/xlink" x="0px" y="0px" width="187px" height="148px"
	 viewBox="0 0 187 148" enable-background="new 0 0 187 148" xml:space="preserve">
	<g class="patrocinio" style="display:none">
		<rect x="130" y="85" fill="#CECECE" stroke="#000000" stroke-miterlimit="10" width="45" height="22"></rect>
		<rect x="15" y="85" fill="#CECECE" stroke="#000000" stroke-miterlimit="10" width="45" height="22"></rect>
	</g>
	<g class="recorte_lateral">
		<path d="M20.5 1.045c-0.357,1.131 -0.722,2.285 -1.093,3.468 -1.956,6.216 -3.704,11.898 -5.037,16.509 -1.391,4.809 -2.453,8.825 -3.343,12.827 -0.866,3.891 -1.597,7.944 -2.347,12.933 -0.776,5.155 -1.538,11.088 -2.185,17.093 -0.617,5.726 -1.145,11.612 -1.504,17.084 -0.377,5.75 -0.567,10.918 -0.66,16.203 -0.096,5.446 -0.098,11.068 -0.096,17.542 0.001,6.507 0.008,13.874 0.015,21.669l0.008 6.295c-1.529,-1.178 -2.692,-2.768 -3.157,-4.964 -0.301,-1.421 -0.388,-3.824 -0.519,-5.469 -0.07,-0.897 -0.009,-2.077 -0.005,-3.002 0.005,-1.329 -0.2,-1.728 -0.202,-2.996 -0.011,-8.281 -0.213,-15.964 -0.183,-24.266l-0.192 -9.1c0.016,-1.148 0.169,-1.71 0.197,-2.722 0.058,-2.025 -0.002,-4.188 -0.011,-6.227 -0.005,-1.283 0.19,-1.636 0.203,-2.794 0.012,-1.013 -0.075,-2.218 0.003,-3.205 0.136,-1.727 0.325,-3.796 0.37,-5.626l0.435 -5.757c0.439,-3.507 0.672,-7.426 1.226,-10.942 1.612,-10.225 3.802,-20.189 6.162,-30.214 0.207,-0.88 0.393,-1.46 0.642,-2.332 1.683,-5.9 2.815,-10.236 4.916,-16.286l2.056 -6.766c1.421,0.35 2.841,0.7 4.301,1.045zm162.086 141.742c1.606,-1.19 2.832,-2.813 3.313,-5.083 0.301,-1.421 0.389,-3.824 0.519,-5.469 0.071,-0.897 0.009,-2.077 0.005,-3.002 -0.005,-1.329 0.201,-1.728 0.202,-2.996 0.011,-8.281 0.213,-15.964 0.184,-24.266l0.191 -8.764 -0.197 -3.058c-0.057,-2.025 0.003,-4.188 0.011,-6.227 0.005,-1.283 -0.189,-1.636 -0.203,-2.794 -0.012,-1.013 0.075,-2.218 -0.002,-3.205 -0.136,-1.727 -0.326,-3.796 -0.37,-5.626l-0.436 -5.757c-0.439,-3.507 -0.671,-7.426 -1.226,-10.942 -1.612,-10.225 -3.802,-20.189 -6.161,-30.214 -0.208,-0.88 -0.394,-1.46 -0.643,-2.332 -1.682,-5.9 -2.814,-10.236 -4.916,-16.286l-2.056 -6.766c-1.016,0.298 -2.031,0.596 -3.08,0.889 1.173,4.483 2.242,8.572 3.156,12.083 1.46,5.603 2.527,9.729 3.371,13.239 0.838,3.48 1.558,6.792 2.383,11.011 0.795,4.066 1.643,8.798 2.409,14.236 0.773,5.497 1.483,11.83 2.006,19.134 0.533,7.444 0.866,15.67 1.079,24.111 0.218,8.641 0.319,17.519 0.379,26.043 0.054,7.574 0.077,14.882 0.082,22.041z"/>
	</g>
</svg>
