<?xml version="1.0" encoding="utf-8"?>
<!-- Generator: Adobe Illustrator 16.0.3, SVG Export Plug-In . SVG Version: 6.00 Build 0)  -->
<!DOCTYPE svg PUBLIC "-//W3C//DTD SVG 1.1//EN" "http://www.w3.org/Graphics/SVG/1.1/DTD/svg11.dtd">
<svg version="1.1"
	 id="molde_calcao_verso" image-rendering="optimizeQuality" text-rendering="geometricPrecision" shape-rendering="geometricPrecision"
	 xmlns="http://www.w3.org/2000/svg" xmlns:xlink="http://www.w3.org/1999/xlink" x="0px" y="0px" width="187px" height="148px"
	 viewBox="0 0 187 148" enable-background="new 0 0 187 148" xml:space="preserve">
<path d="M69.623,5.789c-9.32-0.113-15.317-0.1-21.532-0.475C41.875,4.938,35.441,4.177,30.089,3.27
	c-5.351-0.908-9.62-1.96-13.89-3.013l-2.056,6.766c-2.101,6.05-3.233,10.386-4.916,16.285c-0.249,0.873-0.435,1.453-0.642,2.333
	c-2.36,10.025-4.55,19.989-6.162,30.214c-0.554,3.516-0.787,7.435-1.226,10.942l-0.435,5.757c-0.045,1.83-0.234,3.899-0.37,5.626
	c-0.078,0.987,0.009,2.192-0.003,3.205c-0.013,1.158-0.208,1.512-0.203,2.795c0.009,2.037,0.069,4.201,0.011,6.226
	C0.169,91.418,0.016,91.98,0,93.128l0.192,9.099c-0.03,8.304,0.172,15.986,0.183,24.268c0.002,1.268,0.207,1.666,0.202,2.996
	c-0.004,0.925-0.065,2.104,0.005,3.001c0.131,1.646,0.218,4.048,0.519,5.47c1.056,4.984,5.703,6.849,10.073,7.858
	c3.312,0.767,6.714,1.11,10.138,1.576c4.01,0.545,19.376,0.399,23.493-0.086c6.45-0.761,15.507-0.276,22.162-1.972
	c7.272-1.853,6.398-2.821,7.435-7.425c0.87-3.868,2.219-13.998,3.169-16.919c0.807-2.484,1.721-7.868,2.195-10.523
	c0.344-1.99,1.133-3.679,1.718-5.612c1.344-4.441,1.694-7.626,2.92-12.169c0.377-1.398,0.722-2.381,1.102-3.854
	c0.997-3.864,2.19-8.249,2.968-12.117c0.575-2.856,1.095-5.36,1.653-8.289l2.191-12.734c0.189-0.998,0.23-2.248,1.182-2.596
	c0.953,0.348,0.994,1.598,1.182,2.596l2.19,12.734c0.559,2.929,1.078,5.433,1.652,8.289c0.779,3.868,1.973,8.253,2.969,12.117
	c0.379,1.474,0.725,2.456,1.103,3.854c1.226,4.543,1.575,7.728,2.919,12.169c0.585,1.934,1.375,3.622,1.719,5.612
	c0.473,2.653,1.389,8.041,2.195,10.523c0.949,2.921,2.299,13.051,3.169,16.919c1.037,4.604,0.163,5.572,7.435,7.425
	c6.655,1.695,15.711,1.211,22.162,1.972c4.117,0.485,19.483,0.631,23.492,0.086c3.426-0.466,6.828-0.81,10.139-1.576
	c4.371-1.01,9.018-2.874,10.074-7.858c0.301-1.422,0.388-3.824,0.519-5.47c0.069-0.897,0.009-2.076,0.005-3.001
	c-0.005-1.33,0.2-1.729,0.202-2.996c0.011-8.281,0.213-15.964,0.183-24.268L187,93.463l-0.195-3.058
	c-0.059-2.024,0.002-4.188,0.01-6.226c0.004-1.283-0.189-1.637-0.203-2.795c-0.012-1.013,0.076-2.218-0.002-3.205
	c-0.137-1.727-0.325-3.796-0.371-5.626l-0.436-5.757c-0.439-3.507-0.671-7.426-1.225-10.942
	c-1.612-10.225-3.803-20.189-6.162-30.214c-0.207-0.88-0.395-1.46-0.643-2.333c-1.683-5.899-2.814-10.235-4.916-16.285l-2.057-6.766
	c-2.951,0.866-5.902,1.731-9.677,2.477c-3.774,0.745-8.371,1.369-13.806,1.869s-11.707,0.875-19.027,1.15
	c-7.32,0.274-15.691,0.449-26.198,0.418C91.585,6.14,78.942,5.901,69.623,5.789z"/>
</svg>
