<?xml version="1.0" encoding="utf-8"?>
<!-- Generator: Adobe Illustrator 16.0.3, SVG Export Plug-In . SVG Version: 6.00 Build 0)  -->
<!DOCTYPE svg PUBLIC "-//W3C//DTD SVG 1.1//EN" "http://www.w3.org/Graphics/SVG/1.1/DTD/svg11.dtd">
<svg version="1.1" id="molde_camisa" image-rendering="optimizeQuality" text-rendering="geometricPrecision" shape-rendering="geometricPrecision" xmlns="http://www.w3.org/2000/svg" xmlns:xlink="http://www.w3.org/1999/xlink" x="0px" y="0px" width="240px" height="296px" viewBox="0 0 240 296" enable-background="new 0 0 240 296" xml:space="preserve">
	<path d="M136.777,295.681c2.459-0.097,4.622-0.224,7.012-0.355c2.387-0.13,5-0.263,8.251-0.491c3.253-0.229,7.144-0.549,10.46-0.852
	c3.316-0.301,6.055-0.582,8.785-0.947s5.449-0.814,7.646-1.249s3.872-0.856,5.996-1.329c2.123-0.473,4.695-0.995,6.587-1.32
	c1.893-0.324,3.104-0.452,4.265-0.535c1.158-0.084,2.264-0.125,3.15-0.117c0.888,0.008,1.559,0.063,1.953,0.094
	c0.396,0.031,0.52,0.037,0.611,0.043c0.049,0.002,0.09,0.004,0.127,0.006c0.094-0.069,0.162-0.18,0.176-0.777
	c0.018-0.673-0.035-1.965-0.104-2.783s-0.155-1.166-0.285-1.854c-0.13-0.688-0.306-1.719-0.65-2.683
	c-0.345-0.966-0.856-1.864-1.476-3.043c-0.617-1.178-1.34-2.634-1.779-3.611c-0.441-0.978-0.596-1.476-0.848-2.69
	c-0.25-1.216-0.597-3.15-0.951-5.865c-0.354-2.716-0.717-6.213-1.037-8.875c-0.322-2.662-0.604-4.491-1.08-7.551
	c-0.479-3.06-1.15-7.35-1.709-11.51c-0.557-4.16-1-8.188-1.347-12.212c-0.347-4.024-0.597-8.044-0.757-11.626
	c-0.161-3.582-0.232-6.727-0.287-9.776c-0.056-3.05-0.096-6.004-0.156-9.249s-0.141-6.782-0.108-12.024
	c0.032-5.241,0.179-12.19,0.353-17.448c0.172-5.256,0.373-8.824,0.65-12.793c0.276-3.969,0.627-8.339,0.975-12.258
	c0.346-3.918,0.688-7.385,1.12-11.73c0.432-4.346,0.954-9.571,1.482-13.976c0.526-4.406,1.06-7.994,1.51-10.608
	c0.45-2.615,0.815-4.258,1.138-5.304c0.321-1.044,0.598-1.491,0.803-1.763c0.205-0.271,0.338-0.367,0.404-0.414
	c0.066-0.048,0.066-0.048,0.049,0.597c-0.018,0.646-0.053,1.938-0.108,3.529c-0.055,1.593-0.13,3.487-0.171,4.963
	c-0.042,1.476-0.05,2.533-0.08,3.183c-0.029,0.649-0.082,0.89-0.102,1.009c-0.02,0.12-0.004,0.117-0.041,0.151
	c-0.038,0.034-0.129,0.105-0.133,0.68c-0.006,0.575,0.075,1.655,0.191,3.048c0.117,1.393,0.271,3.099,0.322,4.78
	c0.051,1.682,0.001,3.339,0.001,4.226c0.001,0.887,0.052,1.002,0.132,1.078c0.08,0.075,0.188,0.11,1.001,0.06
	c0.812-0.051,2.329-0.188,4.101-0.325c1.771-0.137,3.795-0.271,5.948-0.43c2.153-0.159,4.434-0.339,6.581-0.462
	c2.148-0.124,4.162-0.188,5.986-0.299c1.823-0.11,3.455-0.267,5.33-0.47c1.873-0.203,3.989-0.455,6.009-0.681
	c2.019-0.226,3.943-0.427,5.104-0.565c1.161-0.138,1.558-0.213,1.756-0.326c0.199-0.114,0.199-0.265,0.229-0.904
	c0.03-0.641,0.091-1.771,0.108-3.13s-0.008-2.947-0.023-4.424c-0.014-1.477-0.02-2.844-0.037-3.72
	c-0.018-0.876-0.048-1.264-0.072-1.468c-0.023-0.204-0.042-0.226-0.082-0.294c-0.04-0.067-0.102-0.18-0.174-0.68
	c-0.07-0.5-0.151-1.386-0.254-2.319c-0.104-0.932-0.229-1.909-0.348-2.734c-0.119-0.828-0.233-1.502-0.412-2.543
	c-0.18-1.04-0.426-2.443-0.613-3.445c-0.188-1-0.315-1.599-0.436-2.267c-0.121-0.668-0.234-1.407-0.366-2.119
	c-0.132-0.711-0.282-1.397-0.425-2.154c-0.142-0.757-0.273-1.583-0.373-2.32c-0.1-0.737-0.166-1.385-0.24-2.027
	c-0.072-0.642-0.156-1.277-0.257-2.034c-0.101-0.755-0.218-1.632-0.339-2.522c-0.12-0.891-0.244-1.795-0.354-2.563
	s-0.204-1.397-0.371-2.342c-0.168-0.943-0.408-2.201-0.818-4.08c-0.413-1.879-0.996-4.381-1.704-6.884
	c-0.708-2.501-1.542-5.003-2.647-7.737c-1.105-2.732-2.481-5.697-4.089-8.842c-1.608-3.145-3.447-6.47-4.874-8.772
	c-1.426-2.3-2.441-3.576-3.448-4.624c-1.007-1.048-2.008-1.868-3.011-2.605c-1.006-0.738-2.016-1.396-2.581-1.771
	c-0.565-0.374-0.686-0.465-0.755-0.569c-0.069-0.106-0.087-0.227-0.096-0.303s-0.009-0.109-0.068-0.175
	c-0.061-0.065-0.181-0.163-1.307-0.713c-1.125-0.55-3.256-1.553-5.305-2.6c-2.047-1.047-4.014-2.14-5.764-2.973
	s-3.282-1.405-5.056-1.956c-1.773-0.55-3.788-1.077-5.423-1.504c-1.636-0.426-2.893-0.753-3.758-1.007
	c-0.867-0.254-1.344-0.436-2.043-0.7c-0.698-0.265-1.617-0.615-2.604-0.908c-0.985-0.294-2.039-0.533-2.713-0.687
	c-0.674-0.153-0.971-0.221-1.438-0.47c-0.467-0.25-1.105-0.682-1.58-0.936c-0.475-0.253-0.786-0.329-1.072-0.364
	c-0.285-0.035-0.543-0.031-0.775-0.031s-0.439-0.004-1.342-0.33c-0.903-0.326-2.503-0.971-4.021-1.575
	c-1.519-0.604-2.955-1.167-4.399-1.746c-1.444-0.58-2.896-1.174-3.812-1.568c-0.916-0.393-1.296-0.583-1.594-0.778
	c-0.297-0.193-0.514-0.392-0.703-0.497c-0.19-0.105-0.355-0.116-0.467-0.117c-0.108,0-0.164,0.01-0.25-0.003
	c-0.086-0.014-0.204-0.053-0.587-0.292c-0.382-0.24-1.026-0.682-1.676-1.192c-0.649-0.51-1.302-1.087-1.955-1.66
	c-0.651-0.57-1.302-1.136-2.308-1.566c-1.006-0.431-2.367-0.728-3.719-0.918c-1.352-0.191-2.693-0.277-4.572-0.354
	s-4.295-0.147-7.923-0.13c-3.626,0.017-8.465,0.123-12.899,0.218c-4.436,0.097-8.467,0.183-10.587,0.231
	c-2.121,0.048-2.33,0.058-4.148,0.202c-1.817,0.146-5.244,0.428-7.396,0.671c-2.153,0.243-3.032,0.449-3.747,0.705
	c-0.716,0.256-1.27,0.563-1.885,1.078c-0.615,0.515-1.293,1.238-2.018,1.875c-0.723,0.637-1.491,1.187-1.949,1.458
	c-0.459,0.271-0.607,0.265-0.901,0.366c-0.294,0.102-0.734,0.313-1.266,0.581c-0.533,0.269-1.158,0.596-1.918,0.922
	c-0.76,0.325-1.654,0.648-2.298,0.902c-0.645,0.254-1.039,0.438-1.512,0.629c-0.475,0.191-1.027,0.389-1.764,0.62
	c-0.738,0.232-1.66,0.496-2.555,0.835c-0.896,0.34-1.765,0.758-2.57,1.075c-0.807,0.316-1.551,0.533-2.296,0.748
	c-0.747,0.216-1.495,0.432-2.051,0.655c-0.557,0.222-0.921,0.451-1.206,0.635c-0.286,0.185-0.491,0.325-0.999,0.476
	c-0.507,0.15-1.316,0.31-1.912,0.463c-0.595,0.153-0.977,0.3-1.486,0.492c-0.51,0.191-1.146,0.428-1.749,0.616
	c-0.602,0.188-1.169,0.329-1.686,0.458c-0.515,0.13-0.979,0.248-1.697,0.426c-0.718,0.178-1.692,0.417-2.548,0.632
	c-0.856,0.215-1.596,0.408-2.169,0.569c-0.573,0.161-0.979,0.292-1.434,0.425c-0.456,0.133-0.962,0.27-1.426,0.399
	c-0.465,0.129-0.887,0.25-1.31,0.377c-0.424,0.128-0.851,0.261-1.203,0.399c-0.352,0.137-0.631,0.275-1.011,0.436
	c-0.379,0.159-0.861,0.339-1.277,0.53c-0.417,0.19-0.768,0.394-1.164,0.601c-0.396,0.209-0.836,0.423-1.219,0.617
	c-0.382,0.193-0.704,0.365-1.125,0.588c-0.421,0.222-0.939,0.494-1.655,0.865c-0.716,0.37-1.629,0.836-2.691,1.368
	s-2.273,1.127-3.177,1.575c-0.904,0.447-1.501,0.746-2.035,1.085c-0.533,0.341-1,0.723-1.441,1.079
	c-0.443,0.356-0.859,0.689-1.353,1.078c-0.492,0.389-1.06,0.836-1.777,1.473c-0.717,0.637-1.584,1.464-2.373,2.329
	c-0.788,0.865-1.499,1.77-2.143,2.663c-0.643,0.893-1.218,1.774-1.921,2.931s-1.535,2.589-2.205,3.818
	c-0.671,1.228-1.181,2.252-1.731,3.259c-0.551,1.008-1.141,1.998-1.644,2.94c-0.501,0.941-0.916,1.835-1.311,2.756
	c-0.395,0.92-0.769,1.867-1.15,2.753c-0.383,0.886-0.772,1.71-1.284,3.04c-0.513,1.331-1.148,3.166-1.715,4.906
	c-0.565,1.74-1.063,3.383-1.488,4.832c-0.424,1.45-0.776,2.706-1.127,4.22c-0.352,1.514-0.704,3.288-1.144,5.662
	c-0.44,2.374-0.967,5.349-1.288,7.066c-0.321,1.719-0.438,2.18-0.543,2.67c-0.105,0.49-0.2,1.008-0.398,1.831
	c-0.199,0.825-0.501,1.955-0.807,3.14s-0.618,2.426-0.838,3.474c-0.222,1.048-0.352,1.902-0.575,3.163
	c-0.224,1.261-0.54,2.929-0.786,4.292c-0.247,1.365-0.423,2.424-0.528,2.972c-0.106,0.548-0.141,0.583-0.205,0.633
	s-0.155,0.116-0.25,2.244c-0.096,2.128-0.197,6.319-0.274,8.613c-0.079,2.295-0.133,2.692,0.035,2.899
	c0.168,0.209,0.56,0.229,1.417,0.337c0.856,0.108,2.177,0.304,4.505,0.753c2.329,0.45,5.665,1.153,8.331,1.666
	c2.665,0.512,4.66,0.833,6.744,1.18c2.085,0.347,4.261,0.72,7.232,1.191c2.972,0.472,6.74,1.045,9.141,1.372
	s3.437,0.407,3.954,0.447c0.518,0.041,0.518,0.041,0.567-0.542c0.049-0.584,0.148-1.748,0.262-2.756
	c0.114-1.008,0.242-1.858,0.394-2.935c0.153-1.076,0.328-2.377,0.498-3.572c0.171-1.196,0.333-2.286,0.418-2.9
	c0.084-0.612,0.088-0.748,0.075-0.863c-0.014-0.116-0.047-0.211-0.023-1.816s0.104-4.72,0.146-7.25
	c0.044-2.529,0.048-4.473,0.06-5.595c0.011-1.122,0.029-1.42,0.066-1.616c0.038-0.197,0.096-0.29,0.176-0.338
	c0.081-0.049,0.184-0.055,0.309,0.038c0.124,0.093,0.269,0.284,0.343,0.375c0.074,0.092,0.076,0.084,0.079,0.081
	c0.001-0.004,0.001-0.004,0.115,0.252c0.115,0.256,0.343,0.769,0.597,1.462c0.253,0.693,0.532,1.568,0.761,2.505
	s0.407,1.937,0.607,3.542c0.199,1.607,0.421,3.82,0.737,6.222c0.317,2.403,0.728,4.996,1.467,11.381
	c0.738,6.385,1.804,16.563,2.637,24.485c0.834,7.924,1.437,13.589,1.809,19.68c0.372,6.089,0.513,12.6,0.503,19.633
	c-0.01,7.032-0.171,14.589-0.372,20.587c-0.201,5.999-0.441,10.44-0.724,14.409c-0.281,3.968-0.603,7.466-1.446,14.147
	c-0.844,6.682-2.211,16.547-3.005,23.752c-0.793,7.205-1.015,11.746-1.216,15.253s-0.381,5.978-0.672,8.112
	c-0.292,2.136-0.694,3.934-0.973,5.311s-0.434,2.332-0.452,2.932c-0.017,0.6,0.103,0.848,0.249,0.975
	c0.146,0.129,0.317,0.139,0.5,0.174c0.183,0.037,0.378,0.1,0.468,0.156c0.019,0.011,0.032,0.021,0.042,0.037
	c0.875,0.321,1.75,0.644,3.151,0.924c1.401,0.279,3.326,0.518,6.487,0.753c3.16,0.236,7.554,0.472,11.088,0.608
	s6.206,0.177,9.582,0.18c3.376,0.005,7.456-0.029,11.317-0.005c3.862,0.022,7.506,0.103,10.58,0.19
	c3.075,0.087,5.58,0.18,7.907,0.251c2.328,0.069,4.479,0.117,6.782,0.171c2.305,0.053,4.763,0.113,7.348,0.12
	c2.586,0.007,5.299-0.04,8.032-0.098C131.566,295.845,134.32,295.777,136.777,295.681z"/>
</svg>
