<?xml version="1.0" encoding="utf-8"?>
<!-- Generator: Adobe Illustrator 16.0.3, SVG Export Plug-In . SVG Version: 6.00 Build 0)  -->
<!DOCTYPE svg PUBLIC "-//W3C//DTD SVG 1.1//EN" "http://www.w3.org/Graphics/SVG/1.1/DTD/svg11.dtd">
<svg version="1.1"
	 id="molde_camisa_verso" image-rendering="optimizeQuality" text-rendering="geometricPrecision" shape-rendering="geometricPrecision"
	 xmlns="http://www.w3.org/2000/svg" xmlns:xlink="http://www.w3.org/1999/xlink" x="0px" y="0px" width="238px" height="298px"
	 viewBox="0 0 238 298" enable-background="new 0 0 238 298" xml:space="preserve">
<path d="M207.262,27.882c-0.11-0.063-0.223-0.122-0.337-0.177c-4.974-2.379-9.71-5.332-14.853-7.146
	c-4.645-1.638-11.449-2.698-17.28-4.717c-2.276-0.789-4.554-1.588-6.817-2.414l-0.004-0.03l-9.994-4.078l-0.176-0.072
	c-0.613-0.28-1.553-1.207-2.511-1.888c-0.493-0.369-0.612-0.563-1.038-0.905c-2.854-2.298-5.604-5.632-9.569-5.639
	c-0.901-0.002-1.04-0.123-1.778-0.163l-7.598-0.17c-5.891-0.486-12.051-0.501-18.053-0.477c-5.085,0.02-9.553,0.063-14.561,0.477
	c-2.528,0.209-4.994,0.029-7.597,0.17c-0.739,0.04-0.877,0.161-1.778,0.163c-3.966,0.006-6.715,3.341-9.571,5.639
	c-0.424,0.342-0.543,0.536-1.037,0.905c-0.741,0.527-1.47,1.2-2.046,1.607c-0.17,0.121-0.326,0.218-0.465,0.281l-10.17,4.15
	l-0.003,0.03c-2.264,0.825-4.542,1.625-6.818,2.414c-5.832,2.02-12.636,3.079-17.281,4.717c-5.142,1.814-9.879,4.767-14.852,7.146
	c-0.212,0.101-0.412,0.215-0.604,0.339c-0.909,0.583-1.664,1.378-2.65,2C16.563,37.141,9.585,57.5,6.428,69.243
	C4.86,75.08,4.449,82.221,3.46,88.275c-0.5,3.066-1.171,6.19-1.751,9.25c-0.585,3.094-0.872,6.49-1.288,9.627
	c-0.406,0.268-0.327-0.023-0.308,0.898l-0.065,1.854v8.779c0.041,1.018,0.102,1.812,0.186,2.163
	c1.125,0.477,3.705,0.514,5.068,0.711c7.659,1.114,9.038,0.828,15.785,1.554l21.538,1.348c-0.015-1.622,0.547-10.72,0.578-13.418
	l-0.603-0.316l-0.07-0.036c0-4.474-0.011-9.222-0.011-13.694c1.677,4.245,3.327,18.936,3.788,24.013
	c0.734,8.113,1.825,16.18,2.511,24.337c0.348,4.135,0.874,8.265,1.009,12.414l0.653,12.771c0.396,4.197,0.208,8.931,0.273,13.174
	c0.032,2.061,0.194,4.006,0.186,6.127c-0.007,2.226-0.172,4.348-0.196,6.51c-0.051,4.467-0.054,8.631-0.319,13.105
	c-0.68,11.471-1.256,26.065-3.266,37.005c-0.966,5.405-2.176,11.938-2.753,17.382c-0.258,2.432-0.827,10.053-1.467,11.946
	c-0.68,2.009-0.163,3.656-0.568,5.768c-0.342,1.784-0.742,3.811-1.164,5.565c-0.463,1.93-1.435,3.646,0.397,4.965
	c4.274,1.053,8.548,2.106,13.907,3.016c5.358,0.908,11.799,1.671,18.022,2.047c6.224,0.375,12.227,0.362,21.559,0.476
	c9.331,0.112,21.99,0.351,32.51,0.382c10.521,0.031,18.901-0.145,26.231-0.419s13.609-0.649,19.05-1.15s10.044-1.126,13.823-1.872
	c3.778-0.746,6.733-1.613,9.689-2.479c1.831-1.319,0.859-3.035,0.396-4.965c-0.422-1.755-0.822-3.781-1.164-5.565
	c-0.404-2.111,0.112-3.759-0.567-5.768c-0.641-1.894-1.21-9.515-1.468-11.946c-0.576-5.443-1.787-11.977-2.752-17.382
	c-2.01-10.939-2.586-25.534-3.266-37.005c-0.266-4.475-0.269-8.639-0.319-13.105c-0.024-2.162-0.188-4.284-0.196-6.51
	c-0.008-2.121,0.154-4.066,0.187-6.127c0.065-4.243-0.122-8.977,0.273-13.174l0.653-12.771c0.135-4.148,0.66-8.278,1.008-12.414
	c0.686-8.158,1.777-16.225,2.512-24.337c0.461-5.077,1.888-19.035,3.566-23.28c0,4.472-0.105,8.581-0.105,13.055l0,0l-0.416,0.247
	c-0.004,0.881,0.338,12.086,0.604,13.417l21.57-1.335c6.748-0.726,8.126-0.44,15.785-1.554c1.363-0.198,3.943-0.235,5.068-0.711
	c0.084-0.351,0.145-1.146,0.186-2.163v-8.779l-0.065-1.854c0.015-0.687,0.062-0.7-0.083-0.773c-0.05-0.025-0.121-0.057-0.225-0.125
	c-0.416-3.137-0.703-6.533-1.287-9.627c-0.58-3.059-1.252-6.184-1.752-9.25c-0.988-6.054-1.399-13.195-2.968-19.032
	c-3.156-11.743-10.134-32.103-21.392-39.199C209.123,29.38,208.285,28.469,207.262,27.882z"/>
</svg>
