<?xml version="1.0" encoding="utf-8"?>
<!-- Generator: Adobe Illustrator 16.0.3, SVG Export Plug-In . SVG Version: 6.00 Build 0)  -->
<!DOCTYPE svg PUBLIC "-//W3C//DTD SVG 1.1//EN" "http://www.w3.org/Graphics/SVG/1.1/DTD/svg11.dtd">
<svg version="1.1" class="detalhes_camisa" xmlns="http://www.w3.org/2000/svg" xmlns:xlink="http://www.w3.org/1999/xlink" x="0px" y="0px"
	width="240px" height="296px" viewBox="0 0 240 296" enable-background="new 0 0 240 296" xml:space="preserve"
	shape-rendering="geometricPrecision" text-rendering="geometricPrecision" image-rendering="optimizeQuality">	
	<g class="numero_frente">
		<text class="previewNumero" x="50%" y="50%" dominant-baseline="middle" text-anchor="middle">10</text>
	</g>
	<g class="manga_raglan">
		<path transform="scale(0.001034)" d="M38743 73173c8879,-33536 40808,-58363 78837,-58363 36849,0 67972,23312 77945,55270 -389,2029 -782,3764 -1175,5331 -802,3199 -1600,5704 -2239,7706 -639,2002 -1119,3501 -1353,4494 -233,992 -220,1479 -214,1722 7,244 7,244 156,571 149,328 448,983 581,1586 134,603 103,1153 73,1704 64,-47 64,-47 47,579 -17,625 -51,1876 -105,3419 -53,1542 -126,3377 -166,4807 -40,1429 -48,2454 -77,3083 -29,629 -80,862 -99,978 -18,116 -3,113 -40,146 -36,33 -124,101 -129,658 -5,557 73,1604 186,2953 114,1350 262,3002 312,4631 50,1629 1,3235 2,4094 0,859 50,971 128,1044 77,73 181,107 969,58 787,-50 2257,-182 3972,-314 1716,-132 3677,-263 5762,-417 2086,-153 4295,-328 6376,-448 2080,-119 4032,-182 5799,-289 1766,-107 3348,-258 5163,-455 1815,-197 3864,-441 5821,-660 1956,-219 3820,-413 4944,-547 1125,-134 1509,-207 1701,-316 193,-110 193,-256 222,-877 29,-620 87,-1715 104,-3031 17,-1317 -7,-2855 -22,-4286 -14,-1430 -19,-2754 -36,-3603 -17,-850 -46,-1224 -70,-1423 -23,-197 -41,-219 -80,-284 -39,-66 -99,-175 -168,-659 -69,-484 -147,-1343 -247,-2246 -99,-903 -221,-1850 -337,-2650 -115,-801 -225,-1455 -399,-2463 -174,-1007 -412,-2367 -593,-3337 -182,-970 -306,-1549 -423,-2196 -116,-648 -226,-1363 -354,-2053 -127,-690 -273,-1354 -411,-2087 -137,-732 -266,-1533 -362,-2247 -97,-714 -160,-1342 -232,-1963 -71,-622 -152,-1238 -249,-1970 -98,-733 -212,-1582 -329,-2445 -116,-862 -236,-1738 -342,-2482 -105,-743 -198,-1354 -360,-2268 -163,-915 -395,-2132 -793,-3953 -399,-1821 -964,-4245 -1650,-6668 -686,-2424 -1494,-4848 -2565,-7495 -1070,-2648 -2404,-5519 -3961,-8566 -1558,-3046 -3339,-6268 -4721,-8497 -1382,-2229 -2365,-3465 -3341,-4480 -976,-1015 -1944,-1808 -2917,-2524 -974,-715 -1952,-1352 -2500,-1715 -547,-363 -664,-450 -731,-552 -18,-28 -33,-57 -44,-86 -31,-77 -42,-154 -48,-207 -9,-75 -9,-106 -67,-170 -59,-63 -175,-158 -1266,-691 -1090,-533 -3153,-1504 -5138,-2518 -1984,-1015 -3889,-2073 -5584,-2880 -1695,-807 -3179,-1361 -4897,-1894 -1718,-533 -3670,-1044 -5254,-1458 -1584,-414 -2801,-730 -3640,-976 -840,-246 -1302,-421 -1979,-677 -676,-257 -1567,-595 -2522,-880 -955,-285 -1975,-516 -2628,-665 -653,-148 -940,-214 -1393,-456 -452,-242 -1070,-660 -1531,-906 -459,-246 -761,-319 -1037,-353 -277,-34 -527,-29 -752,-29 -226,0 -425,-5 -1300,-320 -875,-315 -2425,-941 -3896,-1526 -1471,-585 -2863,-1130 -4262,-1691 -1399,-561 -2805,-1138 -3692,-1518 -887,-381 -1255,-566 -1543,-754 -288,-189 -497,-380 -682,-482 -185,-101 -345,-112 -451,-112 -107,-1 -160,9 -243,-5 -84,-13 -198,-50 -568,-282 -370,-232 -995,-661 -1624,-1155 -629,-493 -1262,-1053 -1894,-1607 -631,-553 -1261,-1101 -2236,-1518 -974,-417 -2293,-704 -3602,-890 -1309,-185 -2609,-267 -4429,-343 -1820,-75 -4161,-143 -7675,-126 -3514,17 -8200,119 -12497,212 -4296,93 -8201,177 -10255,224 -2054,46 -2257,55 -4018,196 -1761,141 -5080,413 -7165,649 -2086,236 -2937,436 -3631,684 -693,248 -1229,545 -1825,1044 -596,499 -1253,1200 -1954,1816 -701,617 -1445,1150 -1889,1413 -444,263 -588,256 -873,354 -284,99 -710,303 -1226,563 -516,261 -1122,577 -1858,892 -736,315 -1603,629 -2227,875 -624,246 -1006,423 -1465,608 -458,185 -994,378 -1708,601 -714,224 -1607,480 -2475,809 -867,330 -1709,734 -2490,1041 -781,306 -1502,516 -2224,725 -723,209 -1448,418 -1987,634 -539,215 -892,437 -1168,615 -276,179 -476,316 -968,461 -491,145 -1275,300 -1851,448 -577,149 -947,291 -1440,476 -494,186 -1110,415 -1694,597 -583,183 -1133,319 -1633,445 -499,125 -948,239 -1644,412 -696,173 -1639,404 -2469,612 -829,209 -1546,395 -2101,552 -555,156 -948,283 -1390,412 -441,130 -931,262 -1381,387 -449,125 -858,242 -1269,365 -411,124 -823,254 -1164,386 -342,133 -612,268 -980,423 -368,154 -834,328 -1237,513 -404,185 -744,381 -1128,583 -384,202 -811,410 -1181,597 -370,188 -682,354 -1090,569 -408,216 -910,480 -1604,838 -693,359 -1578,811 -2606,1326 -1029,515 -2202,1091 -3078,1524 -876,434 -1455,723 -1971,1053 -516,329 -969,699 -1397,1045 -57,46 -115,92 -171,138 -367,295 -725,579 -1138,906 -477,377 -1027,810 -1721,1427 -695,617 -1535,1418 -2299,2256 -764,838 -1453,1714 -2076,2579 -622,865 -1180,1719 -1861,2840 -681,1120 -1487,2507 -2137,3698 -649,1189 -1143,2182 -1676,3158 -533,976 -1105,1935 -1592,2847 -486,913 -888,1779 -1270,2671 -382,891 -745,1809 -1114,2667 -370,858 -747,1656 -1244,2944 -496,1289 -1112,3067 -1661,4753 -548,1685 -1030,3276 -1441,4680 -412,1404 -752,2621 -1093,4088 -341,1467 -682,3185 -1107,5485 -426,2299 -937,5180 -1249,6845 -311,1664 -423,2112 -525,2586 -102,475 -195,976 -387,1775 -192,798 -484,1893 -781,3041 -297,1149 -599,2351 -813,3366 -214,1014 -340,1842 -557,3063 -216,1222 -523,2837 -761,4159 -239,1321 -409,2348 -512,2878 -102,531 -136,565 -197,614 -62,48 -150,112 -243,2173 -94,2062 -191,6122 -266,8344 -76,2223 -129,2607 34,2809 163,202 542,221 1372,326 830,105 2110,295 4366,730 2255,436 5487,1117 8069,1614 2581,496 4514,807 6533,1143 2020,336 4127,696 7006,1154 2879,457 6529,1012 8855,1328 2326,317 3329,394 3830,433 502,39 502,39 550,-525 48,-565 144,-1694 254,-2670 110,-977 234,-1800 381,-2842 148,-1043 318,-2303 482,-3461 165,-1159 323,-2215 404,-2808 82,-594 87,-725 73,-837 -13,-112 -45,-205 -22,-1760 23,-1555 101,-4572 143,-7023 41,-2450 46,-4333 57,-5420 11,-1086 28,-1376 64,-1566 37,-190 93,-280 171,-327 203,-432 406,-865 533,-1185 127,-320 179,-527 218,-1037 39,-509 65,-1320 -350,-2913 -416,-1593 -1272,-3968 -2193,-7187 -713,-2490 -1465,-5485 -2160,-8766z"/>
	</g>
	<g class="punho">
		<path d="M42.701,121.563c0.153-1.076,0.329-2.379,0.498-3.575c0.171-1.197,0.334-2.288,0.418-2.903
		c0.084-0.612,0.088-0.748,0.075-0.864c-0.005-0.042-0.013-0.082-0.02-0.193c-0.105-0.005-0.225-0.013-0.367-0.024
		c-0.361-0.029-0.87-0.09-2.376-0.275c-1.505-0.187-4.006-0.498-6.588-0.886s-5.244-0.851-7.973-1.31
		c-2.729-0.459-5.525-0.914-8.476-1.438c-2.949-0.523-6.055-1.113-8.72-1.62c-2.665-0.505-4.891-0.928-6.3-1.157
		c-1.132-0.182-1.736-0.24-2.235-0.273c-0.012,0.015-0.024,0.024-0.038,0.035c-0.063,0.051-0.156,0.116-0.251,2.246
		c-0.096,2.131-0.197,6.326-0.274,8.623c-0.079,2.297-0.134,2.693,0.035,2.902c0.169,0.209,0.561,0.229,1.418,0.337
		c0.857,0.108,2.179,0.304,4.511,0.754c2.331,0.451,5.67,1.155,8.339,1.668c2.667,0.513,4.665,0.834,6.75,1.181
		c2.087,0.348,4.265,0.721,7.24,1.192c2.975,0.473,6.747,1.046,9.15,1.374c2.403,0.326,3.44,0.406,3.958,0.447
		c0.519,0.04,0.519,0.04,0.568-0.543c0.049-0.584,0.148-1.75,0.262-2.76C42.421,123.491,42.549,122.64,42.701,121.563z
		 M197.342,113.663c0.117,1.394,0.271,3.102,0.322,4.784c0.052,1.684,0.001,3.344,0.001,4.23c0.001,0.889,0.053,1.004,0.133,1.08
		c0.079,0.075,0.188,0.109,1.001,0.06c0.813-0.052,2.332-0.188,4.105-0.325c1.772-0.137,3.799-0.271,5.954-0.43
		c2.155-0.159,4.438-0.34,6.588-0.463c2.151-0.124,4.167-0.188,5.992-0.299c1.825-0.111,3.46-0.268,5.336-0.471
		s3.993-0.455,6.015-0.682s3.948-0.428,5.109-0.566c1.162-0.138,1.56-0.213,1.758-0.326c0.199-0.113,0.199-0.265,0.229-0.904
		c0.031-0.643,0.092-1.773,0.109-3.135c0.017-1.359-0.008-2.949-0.023-4.428c-0.015-1.479-0.02-2.847-0.037-3.724
		c-0.018-0.878-0.049-1.265-0.072-1.47c-0.023-0.198-0.041-0.226-0.079-0.288c-0.246-0.042-0.544-0.073-1.014-0.073
		c-0.679,0-1.715,0.066-4.067,0.281c-2.352,0.215-6.02,0.577-9.513,0.889c-3.493,0.313-6.812,0.574-9.451,0.764
		c-2.639,0.191-4.597,0.313-6.548,0.498c-1.951,0.184-3.896,0.432-5.721,0.63c-1.826,0.196-3.532,0.345-4.617,0.419
		c-0.726,0.049-1.174,0.066-1.527,0.071c-0.018,0.114-0.004,0.112-0.041,0.145c-0.038,0.034-0.129,0.104-0.133,0.681
		C197.145,111.188,197.225,112.269,197.342,113.663z"/>
	</g>
	<g class="recorte_lateral">
		<path d="M41.894 83.339c2.437,3.23 4.68,6.307 6.348,8.928 1.411,2.216 2.373,4.047 3.119,6.008 0.735,1.936 1.22,3.882 1.687,6.362 0.405,2.154 0.816,4.863 1.273,8.344 0.485,3.704 0.958,7.693 1.474,12.319 0.509,4.566 1.121,10.282 1.797,17.095 0.67,6.756 1.31,13.646 1.809,19.909 0.525,6.578 0.978,13.357 1.274,20.322 0.283,6.666 0.386,13.167 0.213,19.313 -0.295,10.443 -1.346,19.361 -2.478,28.972 -0.217,1.842 -0.437,3.711 -0.655,5.618 -0.737,6.44 -1.38,12.538 -1.916,17.88 -0.635,6.336 -1.128,11.497 -1.475,15.236l-0.52 5.64c-0.437,4.782 -0.681,7.452 -0.932,9.563 -0.191,1.604 -0.475,3.693 -0.805,6.025 -0.205,1.447 -0.364,2.555 -0.498,3.479 -0.77,-0.101 -1.413,-0.206 -1.971,-0.317 -1.402,-0.28 -2.279,-0.603 -3.155,-0.925 -0.01,-0.015 -0.023,-0.026 -0.042,-0.037 -0.089,-0.056 -0.285,-0.119 -0.469,-0.155 -0.183,-0.037 -0.354,-0.046 -0.5,-0.175 -0.146,-0.128 -0.267,-0.374 -0.249,-0.975 0.017,-0.601 0.174,-1.557 0.453,-2.935 0.279,-1.378 0.681,-3.178 0.973,-5.315 0.291,-2.138 0.472,-4.612 0.674,-8.122 0.201,-3.511 0.422,-8.057 1.217,-15.269 0.794,-7.211 2.162,-17.089 3.007,-23.777 0.845,-6.689 1.167,-10.189 1.448,-14.162 0.282,-3.973 0.523,-8.419 0.725,-14.423 0.201,-6.005 0.362,-13.569 0.372,-20.609 0.01,-7.041 -0.131,-13.559 -0.503,-19.654 -0.372,-6.095 -0.976,-11.768 -1.811,-19.699 -0.835,-7.931 -1.901,-18.119 -2.64,-24.511 -0.739,-6.392 -1.152,-8.987 -1.468,-11.393 -0.317,-2.405 -0.539,-4.62 -0.739,-6.228 -0.199,-1.608 -0.378,-2.609 -0.607,-3.547 -0.229,-0.938 -0.508,-1.813 -0.762,-2.507 -0.254,-0.694 -0.483,-1.207 -0.597,-1.463 -0.114,-0.257 -0.114,-0.257 -0.115,-0.253 -0.002,0.004 -0.004,0.011 -0.078,-0.081 -0.075,-0.091 -0.221,-0.282 -0.345,-0.376 -0.124,-0.093 -0.228,-0.088 -0.308,-0.038 0.21,-0.447 0.419,-0.894 0.551,-1.225 0.131,-0.33 0.185,-0.545 0.225,-1.071 0.04,-0.527 0.067,-1.365 -0.362,-3.011 -0.429,-1.646 -1.314,-4.1 -2.266,-7.426 -0.123,-0.43 -0.247,-0.875 -0.373,-1.334zm153.581 205.591c-0.178,-0.884 -0.306,-1.645 -0.425,-2.35 -0.128,-0.763 -0.243,-1.446 -0.353,-1.901 -0.198,-0.819 -0.501,-1.736 -0.839,-2.64 -0.296,-0.796 -0.735,-1.828 -1.171,-2.814l0.022 -0.01 -0.232 -0.522 -0.01 0.005c-0.895,-2.009 -1.617,-3.629 -2.281,-7.03 -0.561,-2.872 -1.048,-6.931 -1.867,-13.76l-0.621 -5.15c-1.06,-8.769 -2.53,-20.932 -3.773,-35.161 -0.65,-7.453 -1.252,-15.735 -1.65,-24.574 -0.383,-8.514 -0.534,-17.205 -0.284,-25.586 0.501,-16.736 2.579,-31.761 4.093,-42.707l0.003 0.001 0.016 -0.137 0.221 -1.602c1.394,-10.084 2.28,-16.489 2.936,-20.318 0.425,-2.481 0.808,-4.226 1.591,-6.121 0.807,-1.953 1.839,-3.585 3.508,-5.704 1.089,-1.382 2.513,-3.051 4.14,-4.894 -0.65,2.036 -1.138,3.563 -1.377,4.578 -0.242,1.026 -0.228,1.529 -0.221,1.78 0.006,0.252 0.006,0.252 0.16,0.59 0.155,0.339 0.463,1.016 0.601,1.639 0.139,0.623 0.107,1.192 0.075,1.761 -0.067,0.047 -0.2,0.143 -0.405,0.414 -0.205,0.272 -0.482,0.72 -0.803,1.766 -0.322,1.046 -0.689,2.69 -1.139,5.308 -0.451,2.617 -0.984,6.208 -1.512,10.619 -0.528,4.41 -1.051,9.64 -1.483,13.99 -0.433,4.35 -0.775,7.821 -1.122,11.743 -0.347,3.923 -0.699,8.298 -0.975,12.271 -0.277,3.973 -0.478,7.544 -0.652,12.807 -0.173,5.263 -0.319,12.218 -0.352,17.466 -0.032,5.247 0.048,8.788 0.108,12.037 0.061,3.248 0.101,6.206 0.156,9.258 0.056,3.053 0.126,6.201 0.287,9.787 0.161,3.586 0.412,7.609 0.759,11.637 0.347,4.028 0.79,8.062 1.348,12.226 0.558,4.164 1.232,8.459 1.71,11.521 0.478,3.063 0.759,4.893 1.081,7.559 0.322,2.665 0.684,6.166 1.038,8.884 0.355,2.718 0.702,4.654 0.953,5.871 0.252,1.217 0.408,1.715 0.848,2.693 0.44,0.978 1.164,2.437 1.783,3.616 0.618,1.179 1.131,2.08 1.476,3.045 0.344,0.966 0.52,1.997 0.651,2.686 0.131,0.689 0.216,1.036 0.285,1.855 0.069,0.82 0.122,2.113 0.106,2.786 -0.015,0.599 -0.084,0.709 -0.177,0.779 -0.037,-0.002 -0.078,-0.004 -0.127,-0.006 -0.093,-0.005 -0.215,-0.012 -0.611,-0.043 -0.397,-0.031 -1.067,-0.086 -1.956,-0.094 -0.888,-0.007 -1.995,0.033 -3.155,0.117l-0.382 0.029zm-159.847 -162.024c0.198,-1.986 0.391,-3.926 0.573,-5.777 0.093,-0.93 0.203,-2.098 0.493,-5.455 0.174,-2.009 0.309,-3.74 0.383,-5.065 0.177,-3.184 0.238,-6.033 0.283,-8.096l0.02 -0.937c0.032,-1.414 0.059,-2.38 0.128,-3.306 0.082,-1.119 0.223,-2.508 0.482,-4.781 0.286,-2.516 0.731,-6.218 1.24,-9.851 0.358,-2.561 0.732,-4.982 1.077,-6.771 0.639,2.9 1.315,5.553 1.96,7.806 0.952,3.326 1.837,5.78 2.266,7.426 0.429,1.646 0.402,2.484 0.362,3.011 -0.04,0.526 -0.094,0.741 -0.225,1.071 -0.132,0.331 -0.341,0.778 -0.551,1.225 -0.081,0.048 -0.138,0.141 -0.176,0.338 -0.038,0.196 -0.056,0.495 -0.067,1.618 -0.011,1.123 -0.016,3.069 -0.059,5.601 -0.043,2.532 -0.123,5.65 -0.147,7.257 -0.015,1.019 -0.007,1.43 0.004,1.624 0.006,0.112 0.014,0.152 0.019,0.194 0.013,0.116 0.009,0.251 -0.076,0.865 -0.084,0.613 -0.247,1.705 -0.417,2.902 -0.17,1.197 -0.346,2.499 -0.498,3.576 -0.152,1.077 -0.28,1.928 -0.394,2.937 -0.114,1.009 -0.214,2.176 -0.263,2.759 -0.05,0.584 -0.05,0.584 -0.568,0.543 -0.518,-0.04 -1.554,-0.12 -3.958,-0.447 -0.564,-0.077 -1.204,-0.168 -1.891,-0.267zm164.059 -44.783c0.909,2.091 1.73,4.06 2.379,5.793 0.724,1.933 1.18,3.451 1.477,4.76 0.335,1.474 0.475,2.627 0.552,3.742 0.062,0.876 0.078,1.876 0.069,3.005 -0.008,1.102 -0.037,1.997 -0.069,2.985l-0.001 0.057c-0.065,2.012 -0.142,4.413 -0.133,7.176 0.003,1.002 0.019,2.194 0.036,3.496 0.03,2.196 0.063,4.71 0.049,7.764 -0.003,0.755 -0.01,1.531 -0.018,2.326 -0.385,0.028 -0.76,0.055 -1.124,0.084 -1.772,0.136 -3.291,0.273 -4.105,0.324 -0.813,0.051 -0.921,0.016 -1.001,-0.06 -0.08,-0.075 -0.132,-0.191 -0.132,-1.078 -0.001,-0.888 0.049,-2.548 -0.002,-4.231 -0.052,-1.684 -0.205,-3.391 -0.322,-4.786 -0.117,-1.394 -0.197,-2.475 -0.192,-3.051 0.005,-0.576 0.095,-0.646 0.133,-0.68 0.037,-0.034 0.023,-0.032 0.041,-0.145 0,-0.002 0,-0.004 0,-0.006 0.019,-0.119 0.072,-0.361 0.102,-1.011 0.03,-0.65 0.038,-1.708 0.079,-3.186 0.042,-1.477 0.117,-3.373 0.173,-4.967 0.055,-1.594 0.09,-2.887 0.108,-3.533 0.017,-0.646 0.017,-0.646 -0.049,-0.598 0.032,-0.569 0.064,-1.138 -0.075,-1.761 -0.138,-0.623 -0.446,-1.3 -0.601,-1.639 -0.154,-0.338 -0.154,-0.338 -0.16,-0.59 -0.007,-0.251 -0.021,-0.754 0.221,-1.78 0.241,-1.026 0.737,-2.575 1.398,-4.644 0.351,-1.098 0.748,-2.344 1.167,-3.766z"/>
	</g>
	<g class="selo" transform="translate(48, 250)" style="display:none;">
		<path fill="#FFFFFF" d="M4.775,6.173h8.447c0.625,0,1.105,0.48,1.105,1.104v12.443c0,0.624-0.48,1.105-1.105,1.105H4.775
		c-0.624,0-1.104-0.481-1.104-1.105V7.277C3.671,6.653,4.152,6.173,4.775,6.173L4.775,6.173z"/>
		<path d="M4.775,6.145h8.447c0.313,0,0.596,0.143,0.795,0.34c0.227,0.198,0.34,0.482,0.34,0.794v12.444
		c0,0.313-0.113,0.596-0.34,0.793c-0.199,0.228-0.482,0.34-0.795,0.34H4.775c-0.312,0-0.595-0.112-0.793-0.34
		c-0.198-0.197-0.34-0.48-0.34-0.793V7.277c0-0.312,0.143-0.596,0.34-0.794C4.181,6.286,4.464,6.145,4.775,6.145L4.775,6.145z
		M13.225,6.173H4.775c-0.312,0-0.566,0.142-0.765,0.34c-0.199,0.198-0.34,0.454-0.34,0.766v12.444c0,0.313,0.142,0.596,0.34,0.766
		c0.198,0.197,0.453,0.34,0.765,0.34h8.447c0.313,0,0.596-0.143,0.795-0.34c0.197-0.17,0.312-0.453,0.312-0.766V7.277
		c0-0.312-0.113-0.566-0.312-0.766C13.818,6.313,13.535,6.173,13.225,6.173L13.225,6.173z"/>
		<path fill="#555555" d="M4.775,6.513h8.447c0.426,0,0.766,0.34,0.766,0.766v12.444c0,0.426-0.34,0.766-0.766,0.766H4.775
		c-0.425,0-0.765-0.34-0.765-0.766V7.277C4.011,6.853,4.351,6.513,4.775,6.513L4.775,6.513z"/>
		<path d="M4.775,6.483h8.447c0.228,0,0.426,0.085,0.567,0.228c0.142,0.142,0.228,0.341,0.228,0.566v12.443
		c0,0.229-0.086,0.426-0.228,0.567c-0.144,0.142-0.341,0.228-0.567,0.228H4.775c-0.227,0-0.425-0.086-0.566-0.228
		c-0.143-0.142-0.228-0.34-0.228-0.567V7.277c0-0.227,0.085-0.426,0.228-0.566C4.351,6.569,4.55,6.483,4.775,6.483L4.775,6.483z
		M13.225,6.541H4.775c-0.197,0-0.396,0.057-0.539,0.198C4.095,6.88,4.04,7.08,4.04,7.277v12.443c0,0.229,0.057,0.397,0.197,0.539
		c0.142,0.143,0.341,0.227,0.539,0.227h8.448c0.227,0,0.396-0.084,0.537-0.227c0.143-0.142,0.229-0.312,0.229-0.539V7.277
		c0-0.197-0.086-0.396-0.229-0.538C13.62,6.598,13.45,6.541,13.225,6.541L13.225,6.541z"/>
	</g>
	<g class="patrocinio_manga" style="display:none;">
		<rect x="190.979" y="63.599" transform="matrix(-0.0961 -0.9954 0.9954 -0.0961 160.9924 296.1807)" display="inline" fill="#CECECE" stroke="#000000" stroke-miterlimit="10" width="48" height="22.783"/>
		<rect x="3.645" y="63.593" transform="matrix(0.0961 -0.9954 0.9954 0.0961 -49.6485 95.2962)" display="inline" fill="#CECECE" stroke="#000000" stroke-miterlimit="10" width="48.001" height="22.784"/>
	</g>
	<g class="patrocinio_omoplata" style="display:none">
		<rect x="155" y="30" fill="#CECECE" stroke="#000000" stroke-miterlimit="10" width="35" height="18"></rect>
		<rect x="50" y="30" fill="#CECECE" stroke="#000000" stroke-miterlimit="10" width="35" height="18"></rect>
	</g>
	<g class="patrocinio_frente" style="display:none;">
		<rect x="70" y="50%" fill="#CECECE" stroke="#000000" stroke-miterlimit="10" width="100" height="30"/>
	</g>	
	<g transform="translate(48, 250)" display="none">
		<path display="inline" fill="#FFFFFF" d="M9.775,21.173h8.447c0.625,0,1.105,0.48,1.105,1.104V34.72
		c0,0.624-0.48,1.105-1.105,1.105H9.775c-0.624,0-1.104-0.481-1.104-1.105V22.277C8.671,21.653,9.152,21.173,9.775,21.173
		L9.775,21.173z"/>
		<path display="inline" d="M9.775,21.146h8.447c0.313,0,0.596,0.143,0.795,0.34c0.227,0.198,0.34,0.481,0.34,0.794v12.444
		c0,0.313-0.113,0.596-0.34,0.793c-0.199,0.228-0.482,0.34-0.795,0.34H9.775c-0.312,0-0.595-0.112-0.793-0.34
		c-0.198-0.197-0.34-0.48-0.34-0.793V22.277c0-0.313,0.143-0.596,0.34-0.794C9.181,21.286,9.464,21.146,9.775,21.146L9.775,21.146z
		 M18.225,21.173h-8.45c-0.312,0-0.566,0.143-0.765,0.341c-0.199,0.197-0.34,0.453-0.34,0.766v12.444
		c0,0.313,0.142,0.596,0.34,0.766c0.198,0.197,0.453,0.34,0.765,0.34h8.447c0.313,0,0.596-0.143,0.795-0.34
		c0.197-0.17,0.312-0.453,0.312-0.766V22.277c0-0.313-0.113-0.566-0.312-0.767C18.818,21.313,18.535,21.173,18.225,21.173
		L18.225,21.173z"/>
		<path display="inline" fill="#555555" d="M9.775,21.514h8.447c0.426,0,0.766,0.34,0.766,0.766v12.444
		c0,0.426-0.34,0.766-0.766,0.766H9.775c-0.425,0-0.765-0.34-0.765-0.766V22.277C9.011,21.854,9.351,21.514,9.775,21.514
		L9.775,21.514z"/>
		<path display="inline" d="M9.775,21.483h8.447c0.228,0,0.426,0.085,0.567,0.228c0.142,0.143,0.228,0.341,0.228,0.566V34.72
		c0,0.229-0.086,0.427-0.228,0.567c-0.144,0.143-0.341,0.229-0.567,0.229H9.775c-0.227,0-0.425-0.086-0.566-0.229
		c-0.143-0.142-0.228-0.34-0.228-0.567V22.277c0-0.228,0.085-0.426,0.228-0.566C9.351,21.569,9.55,21.483,9.775,21.483L9.775,21.483
		z M18.225,21.541h-8.45c-0.197,0-0.396,0.058-0.539,0.198C9.095,21.88,9.04,22.08,9.04,22.277V34.72
		c0,0.229,0.057,0.397,0.197,0.539c0.142,0.144,0.341,0.228,0.539,0.228h8.448c0.227,0,0.396-0.084,0.537-0.228
		c0.143-0.142,0.229-0.312,0.229-0.539V22.277c0-0.197-0.086-0.396-0.229-0.538C18.62,21.599,18.45,21.541,18.225,21.541
		L18.225,21.541z"/>
	</g>
</svg>
