<?xml version="1.0" encoding="utf-8"?>
<!-- Generator: Adobe Illustrator 16.0.3, SVG Export Plug-In . SVG Version: 6.00 Build 0)  -->
<!DOCTYPE svg PUBLIC "-//W3C//DTD SVG 1.1//EN" "http://www.w3.org/Graphics/SVG/1.1/DTD/svg11.dtd">
<svg version="1.1" class="detalhes_camisa" xmlns="http://www.w3.org/2000/svg" xmlns:xlink="http://www.w3.org/1999/xlink" x="0px" y="0px" 
	width="238px" height="298px" viewBox="0 0 238 298" enable-background="new 0 0 238 298" xml:space="preserve"
	image-rendering="optimizeQuality" text-rendering="geometricPrecision" shape-rendering="geometricPrecision">
	<mask id="mask">
		<path fill="#fff" d="M207.262,27.882c-0.11-0.063-0.223-0.122-0.337-0.177c-4.974-2.379-9.71-5.332-14.853-7.146
		c-4.645-1.638-11.449-2.698-17.28-4.717c-2.276-0.789-4.554-1.588-6.817-2.414l-0.004-0.03l-9.994-4.078l-0.176-0.072
		c-0.613-0.28-1.553-1.207-2.511-1.888c-0.493-0.369-0.612-0.563-1.038-0.905c-2.854-2.298-5.604-5.632-9.569-5.639
		c-0.901-0.002-1.04-0.123-1.778-0.163l-7.598-0.17c-5.891-0.486-12.051-0.501-18.053-0.477c-5.085,0.02-9.553,0.063-14.561,0.477
		c-2.528,0.209-4.994,0.029-7.597,0.17c-0.739,0.04-0.877,0.161-1.778,0.163c-3.966,0.006-6.715,3.341-9.571,5.639
		c-0.424,0.342-0.543,0.536-1.037,0.905c-0.741,0.527-1.47,1.2-2.046,1.607c-0.17,0.121-0.326,0.218-0.465,0.281l-10.17,4.15
		l-0.003,0.03c-2.264,0.825-4.542,1.625-6.818,2.414c-5.832,2.02-12.636,3.079-17.281,4.717c-5.142,1.814-9.879,4.767-14.852,7.146
		c-0.212,0.101-0.412,0.215-0.604,0.339c-0.909,0.583-1.664,1.378-2.65,2C16.563,37.141,9.585,57.5,6.428,69.243
		C4.86,75.08,4.449,82.221,3.46,88.275c-0.5,3.066-1.171,6.19-1.751,9.25c-0.585,3.094-0.872,6.49-1.288,9.627
		c-0.406,0.268-0.327-0.023-0.308,0.898l-0.065,1.854v8.779c0.041,1.018,0.102,1.812,0.186,2.163
		c1.125,0.477,3.705,0.514,5.068,0.711c7.659,1.114,9.038,0.828,15.785,1.554l21.538,1.348c-0.015-1.622,0.547-10.72,0.578-13.418
		l-0.603-0.316l-0.07-0.036c0-4.474-0.011-9.222-0.011-13.694c1.677,4.245,3.327,18.936,3.788,24.013
		c0.734,8.113,1.825,16.18,2.511,24.337c0.348,4.135,0.874,8.265,1.009,12.414l0.653,12.771c0.396,4.197,0.208,8.931,0.273,13.174
		c0.032,2.061,0.194,4.006,0.186,6.127c-0.007,2.226-0.172,4.348-0.196,6.51c-0.051,4.467-0.054,8.631-0.319,13.105
		c-0.68,11.471-1.256,26.065-3.266,37.005c-0.966,5.405-2.176,11.938-2.753,17.382c-0.258,2.432-0.827,10.053-1.467,11.946
		c-0.68,2.009-0.163,3.656-0.568,5.768c-0.342,1.784-0.742,3.811-1.164,5.565c-0.463,1.93-1.435,3.646,0.397,4.964
		c4.274,1.054,8.548,2.107,13.907,3.017c5.358,0.908,11.799,1.671,18.022,2.047c6.224,0.375,12.227,0.362,21.559,0.476
		c9.331,0.112,21.99,0.351,32.51,0.382c10.521,0.031,18.901-0.145,26.231-0.419s13.609-0.649,19.05-1.15s10.044-1.126,13.823-1.872
		c3.778-0.746,6.733-1.613,9.689-2.479c1.831-1.318,0.859-3.034,0.396-4.964c-0.422-1.755-0.822-3.781-1.164-5.565
		c-0.404-2.111,0.112-3.759-0.567-5.768c-0.641-1.894-1.21-9.515-1.468-11.946c-0.576-5.443-1.787-11.977-2.752-17.382
		c-2.01-10.939-2.586-25.534-3.266-37.005c-0.266-4.475-0.269-8.639-0.319-13.105c-0.024-2.162-0.188-4.284-0.196-6.51
		c-0.008-2.121,0.154-4.066,0.187-6.127c0.065-4.243-0.122-8.977,0.273-13.174l0.653-12.771c0.135-4.148,0.66-8.278,1.008-12.414
		c0.686-8.158,1.777-16.225,2.512-24.337c0.461-5.077,1.888-19.035,3.566-23.28c0,4.472-0.105,8.581-0.105,13.055l0,0l-0.416,0.247
		c-0.004,0.881,0.338,12.086,0.604,13.417l21.57-1.335c6.748-0.726,8.126-0.44,15.785-1.554c1.363-0.198,3.943-0.235,5.068-0.711
		c0.084-0.351,0.145-1.146,0.186-2.163v-8.779l-0.065-1.854c0.015-0.687,0.062-0.7-0.083-0.773c-0.05-0.025-0.121-0.057-0.225-0.125
		c-0.416-3.137-0.703-6.533-1.287-9.627c-0.58-3.059-1.252-6.184-1.752-9.25c-0.988-6.054-1.399-13.195-2.968-19.032
		c-3.156-11.743-10.134-32.103-21.392-39.199C209.123,29.38,208.285,28.469,207.262,27.882z"/>

	</mask>
	<g mask="url(#mask)" class="nome_verso">
		<text class="previewNome"  x="50%" text-anchor="middle"></text>
	</g>
	<g class="numero_verso">
		<text class="previewNumero" x="50%" y="50%" dominant-baseline="middle" text-anchor="middle">10</text>
	</g>
	<g mask="url(#mask)" class="manga_raglan">
		<path transform="translate(-2,0) scale(0.00103)" d="M38743 73173c8879,-33536 40808,-58363 78837,-58363 36849,0 67972,23312 77945,55270 -389,2029 -782,3764 -1175,5331 -802,3199 -1600,5704 -2239,7706 -639,2002 -1119,3501 -1353,4494 -233,992 -220,1479 -214,1722 7,244 7,244 156,571 149,328 448,983 581,1586 134,603 103,1153 73,1704 64,-47 64,-47 47,579 -17,625 -51,1876 -105,3419 -53,1542 -126,3377 -166,4807 -40,1429 -48,2454 -77,3083 -29,629 -80,862 -99,978 -18,116 -3,113 -40,146 -36,33 -124,101 -129,658 -5,557 73,1604 186,2953 114,1350 262,3002 312,4631 50,1629 1,3235 2,4094 0,859 50,971 128,1044 77,73 181,107 969,58 787,-50 2257,-182 3972,-314 1716,-132 3677,-263 5762,-417 2086,-153 4295,-328 6376,-448 2080,-119 4032,-182 5799,-289 1766,-107 3348,-258 5163,-455 1815,-197 3864,-441 5821,-660 1956,-219 3820,-413 4944,-547 1125,-134 1509,-207 1701,-316 193,-110 193,-256 222,-877 29,-620 87,-1715 104,-3031 17,-1317 -7,-2855 -22,-4286 -14,-1430 -19,-2754 -36,-3603 -17,-850 -46,-1224 -70,-1423 -23,-197 -41,-219 -80,-284 -39,-66 -99,-175 -168,-659 -69,-484 -147,-1343 -247,-2246 -99,-903 -221,-1850 -337,-2650 -115,-801 -225,-1455 -399,-2463 -174,-1007 -412,-2367 -593,-3337 -182,-970 -306,-1549 -423,-2196 -116,-648 -226,-1363 -354,-2053 -127,-690 -273,-1354 -411,-2087 -137,-732 -266,-1533 -362,-2247 -97,-714 -160,-1342 -232,-1963 -71,-622 -152,-1238 -249,-1970 -98,-733 -212,-1582 -329,-2445 -116,-862 -236,-1738 -342,-2482 -105,-743 -198,-1354 -360,-2268 -163,-915 -395,-2132 -793,-3953 -399,-1821 -964,-4245 -1650,-6668 -686,-2424 -1494,-4848 -2565,-7495 -1070,-2648 -2404,-5519 -3961,-8566 -1558,-3046 -3339,-6268 -4721,-8497 -1382,-2229 -2365,-3465 -3341,-4480 -976,-1015 -1944,-1808 -2917,-2524 -974,-715 -1952,-1352 -2500,-1715 -547,-363 -664,-450 -731,-552 -18,-28 -33,-57 -44,-86 -31,-77 -42,-154 -48,-207 -9,-75 -9,-106 -67,-170 -59,-63 -175,-158 -1266,-691 -1090,-533 -3153,-1504 -5138,-2518 -1984,-1015 -3889,-2073 -5584,-2880 -1695,-807 -3179,-1361 -4897,-1894 -1718,-533 -3670,-1044 -5254,-1458 -1584,-414 -2801,-730 -3640,-976 -840,-246 -1302,-421 -1979,-677 -676,-257 -1567,-595 -2522,-880 -955,-285 -1975,-516 -2628,-665 -653,-148 -940,-214 -1393,-456 -452,-242 -1070,-660 -1531,-906 -459,-246 -761,-319 -1037,-353 -277,-34 -527,-29 -752,-29 -226,0 -425,-5 -1300,-320 -875,-315 -2425,-941 -3896,-1526 -1471,-585 -2863,-1130 -4262,-1691 -1399,-561 -2805,-1138 -3692,-1518 -887,-381 -1255,-566 -1543,-754 -288,-189 -497,-380 -682,-482 -185,-101 -345,-112 -451,-112 -107,-1 -160,9 -243,-5 -84,-13 -198,-50 -568,-282 -370,-232 -995,-661 -1624,-1155 -629,-493 -1262,-1053 -1894,-1607 -631,-553 -1261,-1101 -2236,-1518 -974,-417 -2293,-704 -3602,-890 -1309,-185 -2609,-267 -4429,-343 -1820,-75 -4161,-143 -7675,-126 -3514,17 -8200,119 -12497,212 -4296,93 -8201,177 -10255,224 -2054,46 -2257,55 -4018,196 -1761,141 -5080,413 -7165,649 -2086,236 -2937,436 -3631,684 -693,248 -1229,545 -1825,1044 -596,499 -1253,1200 -1954,1816 -701,617 -1445,1150 -1889,1413 -444,263 -588,256 -873,354 -284,99 -710,303 -1226,563 -516,261 -1122,577 -1858,892 -736,315 -1603,629 -2227,875 -624,246 -1006,423 -1465,608 -458,185 -994,378 -1708,601 -714,224 -1607,480 -2475,809 -867,330 -1709,734 -2490,1041 -781,306 -1502,516 -2224,725 -723,209 -1448,418 -1987,634 -539,215 -892,437 -1168,615 -276,179 -476,316 -968,461 -491,145 -1275,300 -1851,448 -577,149 -947,291 -1440,476 -494,186 -1110,415 -1694,597 -583,183 -1133,319 -1633,445 -499,125 -948,239 -1644,412 -696,173 -1639,404 -2469,612 -829,209 -1546,395 -2101,552 -555,156 -948,283 -1390,412 -441,130 -931,262 -1381,387 -449,125 -858,242 -1269,365 -411,124 -823,254 -1164,386 -342,133 -612,268 -980,423 -368,154 -834,328 -1237,513 -404,185 -744,381 -1128,583 -384,202 -811,410 -1181,597 -370,188 -682,354 -1090,569 -408,216 -910,480 -1604,838 -693,359 -1578,811 -2606,1326 -1029,515 -2202,1091 -3078,1524 -876,434 -1455,723 -1971,1053 -516,329 -969,699 -1397,1045 -57,46 -115,92 -171,138 -367,295 -725,579 -1138,906 -477,377 -1027,810 -1721,1427 -695,617 -1535,1418 -2299,2256 -764,838 -1453,1714 -2076,2579 -622,865 -1180,1719 -1861,2840 -681,1120 -1487,2507 -2137,3698 -649,1189 -1143,2182 -1676,3158 -533,976 -1105,1935 -1592,2847 -486,913 -888,1779 -1270,2671 -382,891 -745,1809 -1114,2667 -370,858 -747,1656 -1244,2944 -496,1289 -1112,3067 -1661,4753 -548,1685 -1030,3276 -1441,4680 -412,1404 -752,2621 -1093,4088 -341,1467 -682,3185 -1107,5485 -426,2299 -937,5180 -1249,6845 -311,1664 -423,2112 -525,2586 -102,475 -195,976 -387,1775 -192,798 -484,1893 -781,3041 -297,1149 -599,2351 -813,3366 -214,1014 -340,1842 -557,3063 -216,1222 -523,2837 -761,4159 -239,1321 -409,2348 -512,2878 -102,531 -136,565 -197,614 -62,48 -150,112 -243,2173 -94,2062 -191,6122 -266,8344 -76,2223 -129,2607 34,2809 163,202 542,221 1372,326 830,105 2110,295 4366,730 2255,436 5487,1117 8069,1614 2581,496 4514,807 6533,1143 2020,336 4127,696 7006,1154 2879,457 6529,1012 8855,1328 2326,317 3329,394 3830,433 502,39 502,39 550,-525 48,-565 144,-1694 254,-2670 110,-977 234,-1800 381,-2842 148,-1043 318,-2303 482,-3461 165,-1159 323,-2215 404,-2808 82,-594 87,-725 73,-837 -13,-112 -45,-205 -22,-1760 23,-1555 101,-4572 143,-7023 41,-2450 46,-4333 57,-5420 11,-1086 28,-1376 64,-1566 37,-190 93,-280 171,-327 203,-432 406,-865 533,-1185 127,-320 179,-527 218,-1037 39,-509 65,-1320 -350,-2913 -416,-1593 -1272,-3968 -2193,-7187 -713,-2490 -1465,-5485 -2160,-8766z"/>
	</g>
	<g class="punho">
		<path d="M42.908,124.622c-0.015-1.616,0.544-10.682,0.576-13.369l-0.601-0.314c-0.461-0.004-1.086-0.029-2.25-0.123
		c-1.67-0.134-4.449-0.408-8.337-0.727c-3.888-0.317-8.885-0.68-13.938-1.041c-5.054-0.361-10.163-0.723-13.089-1
		c-2.925-0.279-3.667-0.475-4.408-0.67c-0.404,0.268-0.326-0.022-0.307,0.896l-0.065,1.847v8.746
		c0.041,1.015,0.102,1.807,0.186,2.156c1.12,0.475,3.69,0.512,5.049,0.709c7.631,1.109,9.004,0.824,15.727,1.547L42.908,124.622z
		 M194.459,111.241c-0.004,0.879,0.336,12.041,0.602,13.368l21.49-1.331c6.723-0.723,8.096-0.438,15.727-1.547
		c1.359-0.197,3.93-0.234,5.05-0.709c0.084-0.35,0.146-1.142,0.187-2.156v-8.746l-0.064-1.847c0.014-0.685,0.063-0.697-0.083-0.771
		c-5.808,0.43-11.497,0.844-16.575,1.172c-6.268,0.405-11.602,0.68-15.766,1.045c-4.164,0.364-7.156,0.819-10.15,1.275
		L194.459,111.241z"/>
	</g>
	<g class="recorte_lateral">
		<path d="M42.139 90.665c1.432,2.237 2.529,4.376 3.555,7.705 1.04,3.371 1.981,7.987 3.14,15.401 1.276,8.161 2.828,19.75 4.091,31.968 0.997,9.639 1.826,19.748 2.217,29.011 0.445,10.544 0.319,19.909 -0.19,29.078 -0.51,9.197 -1.396,18.138 -2.472,27.849 -2.005,18.09 -4.777,39.633 -7.583,61.332 -1.12,-0.27 -2.223,-0.542 -3.325,-0.813 -1.832,-1.319 -0.86,-3.036 -0.397,-4.966 0.422,-1.756 0.822,-3.783 1.164,-5.568 0.405,-2.112 -0.112,-3.76 0.568,-5.77 0.641,-1.894 1.21,-9.519 1.468,-11.951 0.577,-5.445 1.788,-11.982 2.754,-17.389 2.01,-10.944 2.587,-25.545 3.267,-37.02 0.265,-4.477 0.268,-8.642 0.319,-13.111 0.024,-2.163 0.189,-4.286 0.196,-6.512 0.008,-2.123 -0.154,-4.068 -0.186,-6.13 -0.066,-4.245 0.122,-8.98 -0.274,-13.179l-0.653 -12.776c-0.135,-4.15 -0.661,-8.282 -1.009,-12.419 -0.686,-8.161 -1.777,-16.231 -2.512,-24.347 -0.461,-5.079 -2.111,-19.776 -3.789,-24.023 0.028,-0.502 0.055,-1.004 0.138,-1.574 0.082,-0.57 0.22,-1.208 0.192,-1.818 -0.024,-0.511 -0.163,-1.001 -0.679,-2.978zm153.152 7.103c-0.085,-0.928 -0.17,-1.856 -0.308,-2.718 -0.137,-0.863 -0.329,-1.661 -0.099,-3.18 0.014,-0.09 0.029,-0.182 0.046,-0.277 -1.077,2.295 -2.097,5.041 -3.026,8.506 -1.187,4.426 -2.209,10.023 -3.086,15.952 -0.853,5.768 -1.585,11.983 -2.203,17.737 -0.621,5.779 -1.118,10.991 -1.537,16.375 -0.413,5.303 -0.769,11.051 -1.117,18.006 -0.336,6.726 -0.654,14.526 -0.74,23.11 -0.085,8.567 0.065,17.74 0.668,27.075 0.606,9.377 1.671,19.027 2.925,28.324 1.264,9.369 2.691,18.199 4.034,25.998 1.269,7.374 2.482,13.94 3.664,20.078 0.644,-0.186 1.28,-0.372 1.916,-0.558 1.832,-1.319 0.86,-3.036 0.397,-4.966 -0.422,-1.756 -0.822,-3.783 -1.164,-5.568 -0.405,-2.112 0.112,-3.76 -0.568,-5.77 -0.641,-1.894 -1.21,-9.519 -1.468,-11.951 -0.577,-5.445 -1.788,-11.982 -2.754,-17.389 -2.01,-10.944 -2.587,-25.545 -3.267,-37.02 -0.265,-4.477 -0.268,-8.642 -0.319,-13.111 -0.024,-2.163 -0.189,-4.286 -0.196,-6.512 -0.008,-2.123 0.154,-4.068 0.186,-6.13 0.066,-4.245 -0.122,-8.98 0.274,-13.179l0.653 -12.776c0.135,-4.15 0.661,-8.282 1.009,-12.419 0.686,-8.161 1.777,-16.231 2.512,-24.347 0.461,-5.079 1.889,-19.043 3.568,-23.29z"/>
	</g>
	<g class="patrocinio_cima" style="display:none;">
		<rect x="69" y="30" fill="#CECECE" stroke="#000000" stroke-miterlimit="10" width="100" height="30"/>
	</g>
	<g class="patrocinio_baixo" style="display:none;">
		<rect x="69" y="250" fill="#CECECE" stroke="#000000" stroke-miterlimit="10" width="100" height="30"/>
	</g>	
</svg>
