<?xml version="1.0" encoding="utf-8"?>
<!-- Generator: Adobe Illustrator 16.0.3, SVG Export Plug-In . SVG Version: 6.00 Build 0)  -->
<!DOCTYPE svg PUBLIC "-//W3C//DTD SVG 1.1//EN" "http://www.w3.org/Graphics/SVG/1.1/DTD/svg11.dtd">
<svg version="1.1" class="ico-modalidade" xmlns="http://www.w3.org/2000/svg" xmlns:xlink="http://www.w3.org/1999/xlink" x="0px" y="0px" viewBox="0 0 148.726 194.711" enable-background="new 0 0 148.726 194.711"
	 xml:space="preserve">
	<g>
		<path d="M85.116,22.207c-1.835-4.13-1.247-8.325-0.589-12.607c0.52-3.378,2.319-5.825,4.563-8.138
			c0.95-0.979,2.058-1.396,3.411-1.446c2.758-0.104,5.451,0.321,7.977,1.323c4.421,1.754,6.529,5.392,7.404,9.872
			c0.162,0.833-0.23,1.567-0.684,2.229c-1.112,1.622-1.651,3.471-1.948,5.359c-0.481,3.063-2.385,5.56-3.188,8.493
			c-0.629,2.293-0.312,3.275,1.793,4.023c0.367,0.131,1.146,0.031,1.262-0.199c1.623-3.251,5.02-4.315,7.646-6.319
			c1.52-1.16,3.016-2.352,4.5-3.556c1.902-1.545,2.633-3.163,1.534-5.777c-1.7-4.046,0.493-7.408,2.948-10.436
			c1.132-1.397,3.84-0.818,4.338,0.906c0.357,1.232,0.723,2.407,1.332,3.545c1.053,1.967,0.965,4.035-0.012,5.989
			c-1.139,2.278-2.385,4.507-3.662,6.712c-2.391,4.129-4.836,8.225-7.259,12.335c-0.919,4.378-5.286,5.701-7.73,8.733
			c1.989,14.039-2.426,27.697-2.435,41.608c-0.002,5.241-2.012,10.788,2.043,15.527c0.399,0.468,0.319-0.118,0.189,0.399
			c-1.615,6.454,4.408,7.537,7.59,10.235c3.383,2.869,5.765,5.813,5.994,10.284c0.297,2.664,1.506,4.928,3.453,6.664
			c3.561,3.175,4.369,6.801,2.619,11.221c-0.883,2.231-0.971,4.663-0.981,7.082c-0.025,6.229,0.074,12.462-0.788,18.664
			c-0.262,1.878-0.387,3.835,0.163,5.717c0.427,1.462,1.166,2.611,2.933,2.682c1.467,0.059,2.827,0.48,3.948,1.504
			c2.511,2.291,5.581,2.953,8.854,3.032c1.438,0.035,2.87,0.092,4.229,0.685c2.045,0.893,2.797,2.923,1.566,4.688
			c-1.009,1.444-2.229,2.635-4.072,3.139c-4.804,1.313-9.614,2.436-14.637,1.614c-1.77-0.289-3.485-0.124-5.236,0.163
			c-1.729,0.285-3.49,0.489-5.239,0.501c-2.832,0.019-3.739-0.752-4.397-3.392c-0.469-1.876-0.664-3.724-0.068-5.661
			c1.597-5.204,1.049-10.44-0.101-15.636c-0.62-2.805-1.291-5.61-2.154-8.348c-1.286-4.08-1.458-8.148-0.424-12.282
			c0.271-1.084,0.576-2.159,0.817-3.249c0.102-0.459,0.211-0.984,0.086-1.413c-0.55-1.897-2.479-2.357-3.791-3.459
			c-0.822-0.69-1.787-0.507-2.684,0.023c-0.55,0.325-1.105,0.645-1.679,0.924c-0.79,0.385-1.576,0.283-2.24-0.257
			c-0.741-0.604-1.466-1.244-2.113-1.946c-3.812-4.126-8.525-7.229-12.568-11.093c-0.432-0.413-1.124-0.553-1.694-0.82
			c-0.265-0.395-0.485-0.828-0.801-1.176c-1.883-2.081-3.707-2.411-5.144,0.564c-0.935,1.936-2.527,3.241-4.307,4.382
			c-2.014,1.291-3.954,2.695-5.958,4.003c-1.585,1.035-3.061,1.304-4.807-0.036c-1.678-1.286-2.167-1.137-3.737,0.269
			c-1.783,1.594-3.438,3.331-5.146,5.009c-1.481,1.454-2.966,2.906-4.438,4.37c-2.484,2.47-5.72,3.402-8.936,4.361
			c-0.436,0.13-1.001,0.186-1.402,0.021c-2.757-1.129-5.866-1.575-7.68-4.465c-1.018-1.62-2.619-2.762-4.309-3.733
			c-2.781-1.598-5.395-3.443-7.52-5.873c-1.534-1.755-3.484-2.264-5.625-1.9c-2.113,0.357-4.084,0.366-6.062-0.607
			c-1.184-0.583-2.511-0.273-3.774-0.057c-0.938,0.161-1.892,0.536-2.808,0.458c-2.575-0.221-4.167-2.135-3.194-4.627
			c0.646-1.655,1.401-3.208,2.575-4.555c0.857-0.983,1.792-1.688,3.142-2.004c4.687-1.098,9.207-2.659,13.158-5.525
			c1.666-1.209,3.364-0.594,5.04-0.138c0.837,0.228,1.271,0.986,1.398,1.796c0.271,1.73,0.447,3.475,0.66,5.213
			c0.157,1.278,0.898,2.012,2.143,2.213c0.787,0.127,1.586,0.175,2.381,0.249c3.732,0.346,7.179,1.447,10.185,3.769
			c0.356,0.274,0.832,0.395,1.506,0.702c2.881-4.787,5.083-9.935,8.472-14.385c3.294-4.325,5.648-9.247,8.342-13.951
			c0.845-0.167,1.411-0.688,1.825-1.414c0.634-1.109,1.286-2.208,1.912-3.322c1.573-2.799,3.179-5.536,6.178-7.137
			c0.747-0.398,0.993-1.214-0.103-1.801c-1.528-0.818-1.174-2.035-0.627-3.299c1.991-4.603,3.146-9.389,3.063-14.432
			c-0.011-0.636-0.092-1.271-0.13-1.905c-0.024-0.396-0.221-0.634-0.612-0.605c-0.297,0.021-0.662,0.051-0.866,0.227
			c-0.48,0.415-0.859,0.946-1.323,1.383c-0.576,0.541-1.116,1.226-1.811,1.517c-3.738,1.568-6.094,4.488-8.052,7.862
			c-1.788,3.081-4.482,5.393-7.075,7.716c-1.237,1.108-0.983,1.644-0.187,2.652c0.502,0.637,0.039,1.426-0.586,1.429
			c-1.907,0.007-3.85-0.196-5.512-1.241c-3.554-2.235-4.044-6.686-0.708-9.242c1.97-1.509,3.424-3.1,4.595-5.275
			c0.875-1.626,2.574-2.808,3.901-4.192c1.445-1.509,2.784-3.058,3.306-5.188c0.532-2.169,2.758-3.59,2.764-6.021
			c1.924-2.572,3.463-5.344,4.383-8.439c0.367-1.234,0.812-2.447,1.715-3.397c2.977-3.13,6.008-6.208,9.56-8.702
			c0.778-0.547,1.616-1.191,2.506-1.359c1.832-0.343,3.268-1.104,4.396-2.608c0.458-0.608,1.236-0.983,1.886-1.44
			C86.298,26.32,86.454,25.688,85.116,22.207z"/>
		<circle cx="87.361" cy="181.24" r="13.472"/>
	</g>
</svg>
