<?xml version="1.0" encoding="UTF-8"?>
<!DOCTYPE svg PUBLIC "-//W3C//DTD SVG 1.1//EN" "http://www.w3.org/Graphics/SVG/1.1/DTD/svg11.dtd">
<!-- Creator: CorelDRAW -->
<svg xmlns="http://www.w3.org/2000/svg" xml:space="preserve" width="187px" height="148px" version="1.1" shape-rendering="geometricPrecision" text-rendering="geometricPrecision" image-rendering="optimizeQuality" fill-rule="evenodd" clip-rule="evenodd"
viewBox="0 0 186.999 147.486"
 xmlns:xlink="http://www.w3.org/1999/xlink"
 xmlns:xodm="http://www.corel.com/coreldraw/odm/2003">
 <defs>
   <clipPath id="id0">
    <path d="M69.622 5.532c-9.32,-0.113 -15.317,-0.1 -21.532,-0.475 -6.215,-0.375 -12.649,-1.137 -18.001,-2.044 -5.351,-0.908 -9.62,-1.96 -13.89,-3.013l-2.056 6.766c-2.101,6.05 -3.233,10.386 -4.916,16.285 -0.249,0.873 -0.435,1.453 -0.642,2.333 -2.36,10.025 -4.55,19.989 -6.162,30.214 -0.554,3.516 -0.787,7.435 -1.226,10.942l-0.435 5.757c-0.045,1.83 -0.234,3.899 -0.37,5.626 -0.078,0.987 0.009,2.192 -0.003,3.205 -0.013,1.158 -0.208,1.511 -0.203,2.794 0.009,2.038 0.069,4.202 0.011,6.226 -0.028,1.013 -0.181,1.575 -0.197,2.723l0.192 9.099c-0.03,8.303 0.172,15.985 0.183,24.267 0.002,1.267 0.207,1.666 0.202,2.996 -0.004,0.925 -0.065,2.104 0.005,3.001 0.131,1.645 0.218,4.048 0.519,5.469 1.056,4.985 5.703,6.849 10.073,7.859 3.312,0.766 6.714,1.111 10.138,1.576 4.01,0.545 19.376,0.399 23.493,-0.086 6.45,-0.761 15.507,-0.276 22.162,-1.971 7.272,-1.853 6.398,-2.822 7.435,-7.425 0.87,-3.869 2.219,-13.998 3.169,-16.919 0.807,-2.484 1.721,-7.868 2.195,-10.524 0.344,-1.99 1.133,-3.678 1.718,-5.612 1.344,-4.441 1.694,-7.626 2.92,-12.169 0.377,-1.398 0.722,-2.38 1.102,-3.854 0.997,-3.864 2.19,-8.249 2.968,-12.117 0.575,-2.856 1.095,-5.36 1.653,-8.289l2.191 -12.734c0.189,-0.998 0.23,-2.248 1.182,-2.596 0.952,0.348 0.993,1.598 1.182,2.596l2.191 12.734c0.558,2.929 1.077,5.433 1.652,8.289 0.779,3.868 1.972,8.253 2.968,12.117 0.38,1.474 0.725,2.456 1.103,3.854 1.226,4.543 1.576,7.728 2.919,12.169 0.585,1.934 1.375,3.622 1.719,5.612 0.473,2.654 1.389,8.042 2.195,10.524 0.949,2.921 2.299,13.05 3.169,16.919 1.037,4.603 0.163,5.572 7.434,7.425 6.656,1.695 15.712,1.21 22.163,1.971 4.117,0.485 19.483,0.631 23.492,0.086 3.425,-0.465 6.827,-0.81 10.138,-1.576 4.371,-1.01 9.018,-2.874 10.074,-7.859 0.301,-1.421 0.388,-3.824 0.519,-5.469 0.07,-0.897 0.009,-2.076 0.005,-3.001 -0.005,-1.33 0.2,-1.729 0.202,-2.996 0.011,-8.282 0.213,-15.964 0.183,-24.267l0.191 -8.764 -0.196 -3.058c-0.058,-2.024 0.002,-4.188 0.011,-6.226 0.004,-1.283 -0.19,-1.636 -0.204,-2.794 -0.011,-1.013 0.076,-2.218 -0.002,-3.205 -0.136,-1.727 -0.325,-3.796 -0.37,-5.626l-0.436 -5.757c-0.439,-3.507 -0.671,-7.426 -1.225,-10.942 -1.612,-10.225 -3.802,-20.189 -6.162,-30.214 -0.207,-0.88 -0.394,-1.46 -0.643,-2.333 -1.682,-5.899 -2.814,-10.235 -4.915,-16.285l-2.057 -6.766c-2.951,0.866 -5.902,1.731 -9.677,2.477 -3.774,0.745 -8.371,1.369 -13.806,1.869 -5.434,0.5 -11.706,0.875 -19.026,1.15 -7.321,0.274 -15.692,0.449 -26.199,0.418 -10.507,-0.031 -23.15,-0.269 -32.47,-0.382z"/>
   </clipPath>
 </defs>
 <g id="VETORES">
  <metadata id="CorelCorpID_0Corel-Layer"/>
  <g>
  </g>
  <g clip-path="url(#id0)">
   <g id="_2606318488784">
    <path fill="#0062D9" fill-rule="nonzero" d="M0.15 99.31l0.03 1.419 0.42 -2.069 6.456 0.74 -2.039 6.716 -4.817 -0.54c0,0.11 0,0.21 0,0.32l4.697 0.529 -2.039 6.686 -2.598 -0.29c0,0.121 0,0.231 0,0.35l2.478 0.28 -2.039 6.686 -0.36 -0.04c0,0.12 0,0.23 0,0.35l0.24 0.03 -0.22 1.858 0.559 -1.829 4.418 0.48 -2.719 6.626 -2.178 -0.23c0.01,0.11 0.02,0.22 0.04,0.329l1.999 0.211 -1.879 4.637c0.01,0.23 0.03,0.459 0.05,0.709l2.168 -5.286 3.738 0.4 -3.368 6.576 -2.438 -0.27c0,0.11 0.02,0.22 0.02,0.33l2.278 0.249 -1.708 3.328c0.04,0.14 0.1,0.26 0.149,0.4l1.899 -3.698 3.028 0.34 -3.527 5.727c0.069,0.089 0.15,0.17 0.219,0.249l3.668 -5.916 2.998 0.34 -4.647 6.406 -1.319 -0.14 1.089 0.46 -0.18 0.25c0.09,0.06 0.17,0.12 0.26,0.179l0.29 -0.399 2.318 0.26 -0.899 1.069c0.11,0.05 0.22,0.1 0.33,0.15l0.969 -1.159 4.387 0.479 -1.409 1.939 0.35 0.08 1.429 -1.959 4.387 0.48 -1.399 2.268c0.11,0.02 0.23,0.041 0.34,0.05l1.429 -2.298 4.417 0.509 -1.229 2.409c0.121,0.02 0.24,0.029 0.35,0.05l1.249 -2.429 4.417 0.48 -0.909 2.259c0.12,0 0.23,0 0.35,0l0.909 -2.209 4.447 0.48 -0.549 1.789c0.12,0 0.23,0 0.35,0l0.539 -1.759 4.448 0.509 -0.25 1.209c0.11,0 0.22,0 0.32,0l0.24 -1.169 4.477 0.51 -0.06 0.519c0.12,0 0.23,-0.01 0.349,-0.02l0.05 -0.48 2.379 0.26 0 0.07 1.839 -0.18 -1.439 -0.169 1.389 -6.766 3.088 0.34 -2.008 6.505c0.12,0 0.239,-0.019 0.36,-0.029l1.958 -6.456 3.058 0.34 -2.448 5.966c0.12,0 0.24,-0.01 0.37,-0.02l2.418 -5.916 3.028 0.34 -2.778 5.467c0.121,0 0.25,0 0.37,-0.01l2.778 -5.397 3.028 0.34 -3.058 4.937c0.13,0 0.26,-0.01 0.39,-0.021l3.008 -4.886 3.028 0.34 -3.178 4.377c0.14,-0.01 0.28,-0.02 0.43,-0.03l3.118 -4.317 2.978 0.34 -3.068 3.667c0.18,-0.02 0.35,-0.04 0.53,-0.06l2.968 -3.548 3.687 0.4 -1.509 2.089c0.18,-0.05 0.34,-0.1 0.51,-0.15l1.369 -1.889 2.389 0.25c0.12,-0.1 0.24,-0.2 0.34,-0.3l-2.499 -0.27 4.407 -6.056c0.05,-0.25 0.1,-0.51 0.15,-0.78l-0.05 0.06 -2.978 -0.34 3.867 -4.627c0.03,-0.21 0.07,-0.419 0.1,-0.629l-4.366 5.226 -3.708 -0.429 4.677 -6.406 3.608 0.399c0.02,-0.11 0.04,-0.22 0.06,-0.329l-3.458 -0.38 4.677 -6.426 0.079 0 0.3 -1.09 -0.55 0.75 -5.097 -0.57 4.028 -6.485 2.988 0.339c0.02,-0.11 0.04,-0.219 0.06,-0.329l-2.848 -0.32 3.997 -6.486 0.32 0.03c0.04,-0.11 0.07,-0.21 0.11,-0.32l-0.22 -0.03 0.949 -2.119 -1.289 2.089 -6.486 -0.709 3.368 -6.577 5.637 0.63c0.02,-0.11 0.049,-0.21 0.069,-0.32l-5.596 -0.619 2.688 -6.626 4.447 0.489c0.03,-0.1 0.05,-0.21 0.08,-0.319l-4.387 -0.48 2.688 -6.656 3.528 0.39c0.03,-0.11 0.06,-0.21 0.08,-0.31l-3.467 -0.389 2.718 -6.626 2.438 0.269c0.02,-0.11 0.041,-0.21 0.07,-0.32l-2.398 -0.269 2.718 -6.626 1.089 0.12c0.021,-0.1 0.041,-0.21 0.06,-0.32l-1.039 -0.11 1.999 -4.866 0.26 -1.51 -2.569 6.357 -4.417 -0.51 3.368 -6.546 3.667 0.39 0.06 -0.32 -3.588 -0.41 3.368 -6.545 1.379 0.15 0.06 -0.32 -1.289 -0.14 2.858 -5.576 0 -0.69 -3.198 6.236 -3.028 -0.34 4.027 -6.485 2.209 0.239 0 -0.329 -2.039 -0.22 2.039 -3.288 0 -0.63 -2.379 3.868 -2.348 -0.26 4.647 -6.406 0.09 0c0,0 0,-0.679 0,-0.679l-0.23 0.309 -1.619 -0.17 1.839 -2.208 0 -0.55 -2.269 2.699 -5.046 -0.54 4.677 -6.426 2.638 0.29 0 -0.32 -2.438 -0.28 2.438 -3.338 0 -0.55 -2.808 3.858 -5.776 -0.65 4.027 -6.486 4.557 0.5 0 -0.309 -4.387 -0.5 4.027 -6.486 0.37 0.04 0 -0.32 -0.26 -0.03 0.26 -1.958 -0.599 1.928 -7.136 -0.789 2.719 -6.626 5.016 0.55 0 -0.32 -4.896 -0.54 2.718 -6.656 2.178 0.24 0 -0.32 -2.068 -0.23 0.37 -0.909 -0.351 0 -0.359 0.879 -5.747 -0.649 0.16 -0.31 -0.349 0c0,0 -0.14,0.28 -0.14,0.28l-6.316 -0.37 -3.998 6.486 -6.426 -0.71 4.248 -5.876 -0.38 -0.02 -4.257 5.837 -6.376 -0.71 4.337 -5.197c-0.14,0 -0.28,0 -0.42,0l-4.317 5.177 -0.31 -0.03 3.748 -5.157c-0.13,0 -0.26,0 -0.39,0l-3.727 5.097 -0.34 -0.03 3.148 -5.077c-0.13,0 -0.26,0 -0.39,0l-3.098 5.057 -0.34 -0.06 2.558 -5.007c-0.12,0 -0.25,0 -0.37,0l-2.558 4.987 -0.34 -0.06 2.009 -4.937c-0.11,0 -0.22,0 -0.33,0l-2.019 4.917 -0.37 -0.03 1.51 -4.896c-0.11,0 -0.23,0 -0.34,0l-1.479 4.846 -0.37 -0.029 0.989 -4.827c-0.11,0 -0.22,0 -0.33,0l-0.999 4.806 -0.37 -0.06 0.53 -4.767c-0.11,0 -0.23,0 -0.34,0l-0.53 4.737 -6.456 -0.71 0.859 -4.217c-0.109,0 -0.219,0 -0.329,-0.02l-0.879 4.178 -6.456 -0.71 1.199 -3.877c-0.11,0 -0.23,-0.02 -0.34,-0.03l-1.199 3.877 -6.456 -0.739 1.549 -3.778c-0.11,-0.01 -0.22,-0.03 -0.32,-0.04l-1.539 3.788 -6.456 -0.71 2.009 -3.917c-0.12,-0.021 -0.23,-0.04 -0.35,-0.061l-1.999 3.918 -6.456 -0.71 2.648 -4.277c-0.109,-0.02 -0.219,-0.05 -0.329,-0.07l-2.659 4.318 -6.426 -0.71 3.538 -4.857c-0.12,-0.03 -0.24,-0.06 -0.35,-0.09l-3.548 4.887 -0.959 -0.11 -0.1 0.33 0.84 0.089c-1.174,1.616 -1.392,1.609 -1.919,3.188l2.288 -3.167 6.456 0.739 -3.997 6.486 -5.837 -0.65c-0.029,0.1 -0.069,0.21 -0.1,0.32l5.817 0.65 -2.069 6.715 -5.696 -0.649c-0.03,0.1 -0.06,0.21 -0.09,0.309l5.696 0.65 -2.069 6.716 -5.456 -0.61c-0.02,0.1 -0.05,0.21 -0.07,0.31l5.447 0.609 -2.069 6.686 -4.917 -0.539c-0.03,0.11 -0.05,0.23 -0.07,0.34l4.907 0.539 -2.069 6.686 -4.297 -0.47c-0.02,0.1 -0.04,0.21 -0.06,0.32l4.247 0.49 -2.068 6.686 -3.518 -0.37c-0.02,0.1 -0.04,0.21 -0.06,0.31l3.488 0.369 -2.069 6.716 -2.588 -0.29c-0.021,0.11 -0.04,0.23 -0.06,0.34l2.558 0.28 -2.069 6.686 -1.309 -0.14c-0.01,0.11 -0.02,0.22 -0.03,0.33l1.249 0.15 -1.829 5.916 -0.13 1.598 0.14 -0.459 1.669 0.17 -2.118 5.256c-0.02,0.34 -0.05,0.67 -0.08,1l2.538 -6.196 1.669 0.17 -3.338 6.576 -0.91 -0.1c0,0.11 -0.019,0.21 -0.029,0.32l0.759 0.09c-0.776,1.516 -0.889,1.351 -0.889,2.468l1.249 -2.439 0.959 0.11 -2.188 3.558 0 0.65 2.548 -4.148 0.989 0.09 -3.607 4.967c-0.03,0.21 -0.05,0.42 -0.08,0.64l4.057 -5.557 0.94 0.11 -5.037 6.026 0 0.67 6.316 0.699 -4.647 6.406 -1.729 -0.19c-0.01,0.12 -0.02,0.23 -0.03,0.34l1.649 0.18 -1.419 6.766 -0.22 -0.03 0 0.32c0,0 0.16,0.02 0.16,0.02l-0.138 0.669zm7.256 0.12l6.456 0.71 -2.719 6.656 -5.806 -0.65 2.069 -6.716zm19.857 23.655l-2.298 -0.26 5.296 -6.346 1.639 0.2 -4.647 6.406 0.01 0zm17.309 -19.857l-0.34 -0.03 1.389 -3.398 -1.049 3.428zm1.419 -3.458l-0.74 3.537 -0.339 -0.06 1.079 -3.488 0 0.011zm-2.069 3.398l-0.34 -0.061 1.699 -3.257 -1.359 3.318zm-0.679 -0.09l-0.31 -0.03 1.929 -3.148 -1.619 3.178zm-0.51 0.26l0.37 0.06 -3.368 6.545 -0.989 -0.09 3.997 -6.515 -0.01 0zm-4.367 6.455l-0.989 -0.109 4.677 -6.407 0.34 0.03 -4.028 6.486zm4.197 -6.795l-0.28 -0.03 2.149 -2.979 -1.869 3.009zm-0.649 -0.06l-0.28 -0.03 2.129 -2.519 -1.839 2.549 -0.01 0zm-0.23 0.29l-4.677 6.426 -0.94 -0.11 5.327 -6.346 0.29 0.03zm-6.006 6.286l-5.747 -0.65 4.677 -6.406 6.376 0.71 -5.297 6.346 -0.009 0zm-0.25 0.279l-5.297 6.346 -5.067 -0.569 4.677 -6.406 5.697 0.619 -0.01 0.01zm0.419 0.06l0.96 0.11 -4.678 6.406 -1.618 -0.17 5.326 -6.346 0.01 0zm1.33 0.14l0.989 0.11 -3.998 6.486 -1.669 -0.17 4.678 -6.426zm1.359 0.14l1.019 0.11 -3.337 6.576 -1.699 -0.2 4.027 -6.485 -0.01 -0.001zm1.389 0.17l1.019 0.11 -2.688 6.625 -1.699 -0.199 3.368 -6.546 0 0.01zm0.149 -0.31l3.368 -6.576 0.34 0.06 -2.688 6.626 -1.02 -0.11zm4.048 -6.486l0.37 0.03 -2.069 6.716 -1.019 -0.11 2.718 -6.636zm0.709 0.09l0.37 0.03 -1.419 6.766 -1.019 -0.11 2.068 -6.686zm0.68 0.05l0.37 0.06 -0.769 6.856 -1.02 -0.11 1.419 -6.806zm0.71 0.09l6.485 0.71 -1.419 6.796 -5.806 -0.65 0.74 -6.856zm-0.32 -0.339l-0.34 -0.06 0.739 -3.538 -0.399 3.598zm-4.667 -0.54l-6.406 -0.71 4.647 -6.426 7.055 0.79 -5.296 6.346zm-1.669 -7.456l1.419 -6.765 6.486 0.71 -0.74 6.855 -7.165 -0.789 0 -0.011zm10.303 -27.562l-0.769 6.826 -5.097 -0.57 1.389 -6.765 4.477 0.509zm-4.387 -0.819l1.389 -6.796 3.798 0.43 -0.77 6.855 -4.417 -0.48 0 -0.009zm4.727 0.849l2.379 0.26 -1.419 6.796 -1.729 -0.2 0.769 -6.856zm2.699 0.28l2.408 0.28 -2.069 6.715 -1.729 -0.199 1.39 -6.796zm2.718 0.31l2.378 0.26 -2.718 6.655 -1.699 -0.2 2.039 -6.715zm2.718 0.32l2.348 0.259 -3.337 6.576 -1.729 -0.2 2.718 -6.635zm-0.2 -0.37l-2.408 -0.26 2.039 -6.716 3.057 0.34 -2.688 6.636zm-2.748 -0.29l-2.409 -0.28 1.419 -6.765 3.058 0.339 -2.068 6.716 0 -0.01zm-2.748 -0.31l-2.409 -0.28 0.77 -6.825 3.058 0.34 -1.419 6.765zm-1.949 -7.475l-3.738 -0.429 1.419 -6.766 3.088 0.34 -0.769 6.855zm-4.058 -0.45l-3.737 -0.429 2.039 -6.716 3.088 0.34 -1.39 6.805zm-0.08 0.31l-1.418 6.796 -4.418 -0.51 2.069 -6.715 3.767 0.429zm-6.176 6.256l-4.387 -0.48 2.688 -6.655 3.768 0.43 -2.069 6.715 0 -0.01zm0.25 0.34l4.448 0.509 -1.419 6.766 -5.097 -0.57 2.068 -6.715 0 0.01zm3.288 7.655l5.157 0.569 -0.769 6.856 -5.776 -0.65 1.388 -6.775zm5.497 0.59l1.699 0.199 -1.419 6.766 -1.05 -0.11 0.77 -6.855zm2.008 0.23l1.699 0.199 -2.039 6.686 -1.049 -0.11 1.389 -6.775zm2.039 0.219l1.699 0.2 -2.719 6.626 -1.019 -0.11 2.039 -6.716zm2.039 0.23l1.669 0.2 -3.338 6.546 -1.049 -0.11 2.718 -6.636zm2.048 0.23l1.639 0.17 -3.997 6.516 -1.02 -0.11 3.368 -6.576 0.01 0zm0.14 -0.31l3.368 -6.576 2.349 0.28 -4.028 6.486 -1.699 -0.2 0.01 0.01zm3.168 -6.915l-2.408 -0.26 2.718 -6.656 3.058 0.34 -3.368 6.576zm0.12 -7.256l-3.088 -0.34 2.069 -6.715 3.707 0.43 -2.688 6.625zm-3.428 -0.389l-3.088 -0.34 1.419 -6.766 3.738 0.43 -2.069 6.686 0 -0.01zm-3.407 -0.37l-3.088 -0.34 0.739 -6.855 3.737 0.43 -1.388 6.765zm-2.659 -7.565l-3.058 -0.34 1.42 -6.765 2.408 0.279 -0.77 6.826zm-3.367 -0.37l-3.059 -0.34 2.039 -6.715 2.409 0.279 -1.389 6.776zm-3.408 -0.369l-3.058 -0.34 2.718 -6.626 2.408 0.26 -2.068 6.715 0 -0.009zm-0.08 0.309l-2.069 6.716 -3.738 -0.43 2.719 -6.626 3.088 0.34zm-6.146 6.266l-3.708 -0.43 3.338 -6.545 3.088 0.339 -2.718 6.636zm-4.078 -0.46l-3.707 -0.43 4.027 -6.485 3.058 0.34 -3.368 6.576 -0.01 -0.001zm0.19 0.34l3.768 0.43 -2.718 6.626 -4.388 -0.48 3.338 -6.576zm1.249 7.425l4.447 0.48 -2.068 6.716 -5.097 -0.57 2.718 -6.626zm2.639 7.535l5.126 0.57 -1.419 6.796 -5.776 -0.65 2.069 -6.716zm3.967 7.705l5.806 0.65 -0.74 6.855 -6.455 -0.709 1.389 -6.796zm6.176 0.68l1.02 0.11 -1.419 6.796 -0.37 -0.06 0.769 -6.856 0 0.01zm1.329 0.17l1.02 0.11 -2.069 6.686 -0.37 -0.03 1.419 -6.766zm1.359 0.14l1.02 0.11 -2.719 6.626 -0.369 -0.03 2.068 -6.716 0 0.01zm1.33 0.15l1.019 0.11 -3.368 6.576 -0.34 -0.06 2.689 -6.626zm1.359 0.169l0.989 0.09 -3.997 6.516 -0.34 -0.06 3.338 -6.546 0.01 0zm1.359 0.141l0.959 0.11 -4.646 6.405 -0.34 -0.029 4.027 -6.486zm0.2 -0.31l3.997 -6.486 1.669 0.17 -4.677 6.426 -0.989 -0.11zm4.197 -6.806l3.997 -6.486 2.349 0.26 -4.647 6.426 -1.699 -0.2zm3.818 -6.826l-2.379 -0.279 3.368 -6.546 3.028 0.34 -4.028 6.485 0.011 0zm0.799 -7.195l-3.088 -0.34 2.718 -6.625 3.738 0.43 -3.368 6.545 0 -0.01zm-0.569 -7.305l-3.768 -0.43 2.069 -6.716 4.417 0.48 -2.718 6.666zm-4.108 -0.46l-3.768 -0.43 1.419 -6.796 4.418 0.51 -2.069 6.716zm-4.077 -0.449l-3.768 -0.43 0.769 -6.856 4.418 0.48 -1.419 6.806zm-3.348 -7.645l-2.379 -0.26 1.419 -6.766 1.729 0.17 -0.769 6.856zm-2.688 -0.29l-2.379 -0.28 2.039 -6.716 1.729 0.2 -1.389 6.796zm-2.719 -0.31l-2.378 -0.26 2.718 -6.655 1.729 0.199 -2.069 6.716zm-2.718 -0.31l-2.349 -0.26 3.368 -6.576 1.699 0.2 -2.718 6.636zm-0.12 0.31l-2.718 6.656 -3.028 -0.34 3.338 -6.576 2.408 0.26zm-6.086 6.266l-3.058 -0.34 4.028 -6.486 2.378 0.28 -3.338 6.546 -0.01 0zm-3.398 -0.37l-3.028 -0.34 4.677 -6.406 2.349 0.26 -3.998 6.486zm-3.398 -0.37l-2.978 -0.34 5.297 -6.345 2.318 0.259 -4.647 6.426 0.01 0zm0.14 0.34l3.058 0.34 -3.997 6.486 -3.708 -0.43 4.647 -6.406 0 0.01zm-0.799 7.165l3.767 0.43 -3.367 6.576 -4.387 -0.51 3.997 -6.485 -0.01 -0.011zm0.599 7.336l4.418 0.479 -2.688 6.656 -5.097 -0.57 3.367 -6.576 0 0.011zm1.929 7.485l5.127 0.569 -2.069 6.716 -5.776 -0.65 2.718 -6.635zm3.308 7.615l5.806 0.65 -1.419 6.765 -6.456 -0.71 2.069 -6.715 0 0.01zm11.503 8.555l0.34 0.029 -0.74 3.568 0.4 -3.597zm0.649 0.059l0.34 0.06 -1.079 3.488 0.739 -3.548zm0.68 0.08l0.31 0.03 -1.39 3.398 1.08 -3.428zm0.659 0.06l0.34 0.06 -1.669 3.258 1.329 -3.318zm0.68 0.09l0.31 0.03 -1.929 3.148 1.619 -3.178zm0.679 0.08l0.28 0.03 -2.148 2.978 1.868 -3.008zm0.68 0.06l0.26 0.03 -2.129 2.518 1.869 -2.548zm0.2 -0.29l4.677 -6.426 0.939 0.11 -5.326 6.346 -0.29 -0.03zm4.867 -6.735l4.677 -6.406 1.619 0.17 -5.297 6.346 -0.999 -0.11zm4.907 -6.716l4.646 -6.406 2.299 0.26 -5.297 6.346 -1.648 -0.2zm4.497 -6.776l-2.379 -0.26 3.997 -6.485 3.029 0.34 -4.647 6.405zm1.479 -7.075l-3.088 -0.34 3.367 -6.576 3.708 0.43 -3.997 6.486 0.01 0zm0.08 -7.255l-3.738 -0.43 2.689 -6.626 4.417 0.48 -3.368 6.576zm-1.249 -7.425l-4.448 -0.48 2.069 -6.716 5.097 0.57 -2.718 6.626zm-4.787 -0.51l-4.448 -0.51 1.42 -6.765 5.096 0.569 -2.068 6.716 0 -0.01zm-4.757 -0.53l-4.447 -0.479 0.739 -6.856 5.127 0.57 -1.419 6.765zm-4.017 -7.705l-1.699 -0.2 1.419 -6.765 1.049 0.11 -0.769 6.855zm-2.019 -0.23l-1.699 -0.2 2.068 -6.686 1.05 0.11 -1.419 6.776zm-2.039 -0.23l-1.699 -0.2 2.718 -6.625 1.049 0.11 -2.068 6.715zm-2.009 -0.22l-1.699 -0.199 3.368 -6.546 1.019 0.11 -2.688 6.635zm-2.038 -0.229l-1.67 -0.17 3.998 -6.516 1.019 0.11 -3.338 6.576 -0.009 0zm-0.17 0.309l-3.338 6.577 -2.349 -0.28 3.997 -6.486 1.699 0.2 -0.009 -0.011zm-6.066 6.266l-2.349 -0.259 4.677 -6.427 1.699 0.2 -4.027 6.486zm-2.719 -0.319l-2.298 -0.26 5.296 -6.346 1.639 0.2 -4.647 6.406 0.01 0zm-2.718 -0.28l-4.367 -0.48 4.647 -6.426 5.047 0.57 -5.327 6.346 0 -0.01zm-0.25 0.28l-5.296 6.346 -3.688 -0.4 4.647 -6.426 4.337 0.48zm-5.137 6.716l2.999 0.309 -4.647 6.426 -3.658 -0.399 5.297 -6.346 0.009 0.01zm-1.499 7.085l3.738 0.43 -4.027 6.485 -4.388 -0.48 4.677 -6.435zm-0.109 7.245l4.417 0.509 -3.338 6.546 -5.066 -0.57 3.997 -6.485 -0.01 0zm1.269 7.425l5.097 0.57 -2.689 6.626 -5.776 -0.65 3.368 -6.546zm2.608 7.535l5.806 0.65 -2.068 6.716 -6.456 -0.74 2.718 -6.626zm3.967 7.705l6.486 0.74 -1.389 6.765 -7.136 -0.789 2.039 -6.716zm4.957 7.825l-4.677 6.406 -6.456 -0.71 4.028 -6.485 7.105 0.789zm-4.866 6.706l-4.677 6.426 -5.777 -0.65 4.028 -6.485 6.426 0.709zm-4.907 6.716l-4.647 6.426 -5.097 -0.57 3.997 -6.485 5.747 0.619 0 0.01zm-4.507 6.776l5.016 0.569 -5.296 6.346 -4.367 -0.479 4.647 -6.436zm7.485 0.819l1.669 0.2 -3.998 6.485 -2.348 -0.26 4.677 -6.425zm2.039 0.23l1.699 0.2 -3.338 6.576 -2.379 -0.28 4.028 -6.486 -0.01 -0.01zm2.038 0.22l1.729 0.2 -2.719 6.625 -2.348 -0.26 3.338 -6.576 0 0.011zm2.069 0.229l1.728 0.2 -2.068 6.716 -2.379 -0.26 2.719 -6.656zm0.11 -0.309l2.718 -6.626 1.049 0.11 -2.068 6.715 -1.699 -0.199zm4.077 -6.466l1.049 0.11 -1.389 6.765 -1.699 -0.199 2.039 -6.686 0 0.01zm1.389 0.15l1.05 0.11 -0.77 6.855 -1.699 -0.199 1.419 -6.766zm1.389 0.14l5.806 0.649 -1.419 6.766 -5.126 -0.57 0.739 -6.855 0 0.01zm6.126 0.679l5.777 0.65 -2.069 6.716 -5.127 -0.57 1.419 -6.796zm0.08 -0.31l1.389 -6.765 6.456 0.71 -2.039 6.715 -5.806 -0.649 0 -0.011zm1.13 -7.145l-6.486 -0.71 0.769 -6.855 7.135 0.789 -1.418 6.776zm-5.547 -7.875l5.297 -6.346 6.426 0.71 -4.677 6.426 -7.056 -0.79 0.01 0zm5.547 -6.656l5.296 -6.345 5.747 0.649 -4.677 6.406 -6.376 -0.71 0.01 0zm5.556 -6.625l5.297 -6.346 5.076 0.569 -4.677 6.406 -5.696 -0.619 0 -0.01zm5.576 -6.656l5.297 -6.346 4.367 0.48 -4.647 6.426 -5.017 -0.57 0 0.01zm5.137 -6.686l-2.319 -0.26 4.678 -6.426 2.978 0.34 -5.326 6.346 -0.011 0zm2.179 -7.025l-3.058 -0.34 4.027 -6.486 3.708 0.4 -4.677 6.426zm0.789 -7.166l-3.737 -0.429 3.338 -6.576 4.386 0.509 -3.997 6.486 0.01 0.01zm-0.569 -7.345l-4.448 -0.48 2.688 -6.655 5.097 0.569 -3.337 6.576 0 -0.01zm-1.949 -7.475l-5.127 -0.57 2.069 -6.716 5.776 0.65 -2.718 6.636zm-5.437 -0.6l-5.157 -0.569 1.419 -6.796 5.777 0.65 -2.039 6.715zm-5.466 -0.619l-5.127 -0.57 0.77 -6.855 5.776 0.65 -1.419 6.775zm-4.707 -7.765l-1.02 -0.11 1.42 -6.796 0.369 0.06 -0.769 6.855 0 -0.009zm-1.329 -0.17l-1.02 -0.11 2.069 -6.686 0.37 0.03 -1.419 6.766zm-1.36 -0.14l-1.019 -0.11 2.718 -6.626 0.37 0.03 -2.069 6.716 0 -0.01zm-1.339 -0.14l-1.019 -0.11 3.368 -6.576 0.34 0.06 -2.689 6.626zm-1.359 -0.17l-0.989 -0.09 3.997 -6.516 0.37 0.06 -3.368 6.546 -0.01 0zm-1.359 -0.14l-0.959 -0.11 4.647 -6.406 0.339 0.03 -4.027 6.486zm-0.17 0.31l-4.027 6.486 -1.669 -0.17 4.677 -6.426 1.019 0.11zm-6.056 6.266l-1.619 -0.17 5.327 -6.346 0.959 0.11 -4.677 6.406 0.01 0zm-2.019 -0.23l-5.066 -0.569 4.677 -6.406 5.696 0.619 -5.307 6.356zm-5.436 -0.6l-5.097 -0.569 3.997 -6.486 5.747 0.62 -4.647 6.435zm-0.22 0.31l-4.647 6.406 -4.417 -0.479 3.997 -6.486 5.067 0.569 0 -0.01zm-4.877 6.716l-4.677 6.406 -3.708 -0.4 3.998 -6.486 4.387 0.48 0 0zm-4.876 6.716l-4.678 6.426 -3.057 -0.34 4.027 -6.486 3.708 0.4zm0.369 0.06l3.658 0.399 -5.297 6.346 -2.998 -0.34 4.647 -6.406 -0.01 0.001zm-1.499 7.075l3.708 0.43 -4.677 6.406 -4.337 -0.48 5.306 -6.356zm-0.789 7.195l4.387 0.48 -3.997 6.486 -5.067 -0.57 4.677 -6.406 0 0.01zm0.559 7.316l5.097 0.569 -3.338 6.576 -5.746 -0.65 3.997 -6.485 -0.01 -0.01zm1.929 7.475l5.806 0.649 -2.688 6.626 -6.456 -0.71 3.338 -6.575 0 0.01zm3.318 7.625l6.486 0.739 -2.069 6.716 -7.135 -0.789 2.718 -6.666zm4.277 7.755l-3.997 6.485 -6.456 -0.739 3.338 -6.546 7.115 0.8zm-4.197 6.805l-3.998 6.486 -5.806 -0.65 3.368 -6.575 6.436 0.739zm-4.188 6.766l-4.027 6.516 -5.097 -0.569 3.368 -6.576 5.756 0.629zm-4.197 6.796l-4.027 6.485 -4.417 -0.479 3.367 -6.546 5.077 0.54zm0.34 0.06l5.067 0.569 -4.647 6.406 -4.417 -0.479 3.997 -6.496zm0.57 7.305l4.337 0.48 -5.297 6.346 -3.687 -0.4 4.647 -6.426zm4.757 0.54l2.318 0.26 -4.647 6.426 -2.998 -0.34 5.327 -6.346zm2.718 0.32l2.348 0.249 -3.997 6.486 -3.028 -0.34 4.677 -6.395zm2.718 0.279l2.378 0.28 -3.367 6.546 -3.028 -0.34 4.027 -6.486 -0.01 0zm2.728 0.31l2.408 0.26 -2.718 6.656 -3.058 -0.34 3.368 -6.576 0 0zm2.719 0.31l2.408 0.26 -2.039 6.716 -3.058 -0.34 2.689 -6.636zm2.748 0.29l2.408 0.28 -1.389 6.765 -3.058 -0.34 2.039 -6.715 0 0.01zm0.08 -0.32l2.069 -6.716 1.728 0.2 -1.419 6.766 -2.378 -0.26 0 0.01zm4.137 -6.486l1.729 0.2 -0.77 6.855 -2.378 -0.259 1.419 -6.796zm2.069 0.26l5.096 0.57 -1.389 6.765 -4.477 -0.509 0.77 -6.826zm5.436 0.59l5.097 0.569 -2.069 6.716 -4.447 -0.51 1.419 -6.775zm5.437 0.599l5.066 0.57 -2.688 6.625 -4.447 -0.479 2.069 -6.716zm5.416 0.59l5.097 0.57 -3.368 6.576 -4.417 -0.48 2.688 -6.666zm-0.2 -0.34l-5.126 -0.57 2.068 -6.715 5.777 0.65 -2.719 6.635zm-2.978 -7.585l2.069 -6.716 6.456 0.74 -2.719 6.626 -5.806 -0.65zm1.849 -7.056l-6.516 -0.739 1.419 -6.766 7.135 0.789 -2.038 6.716zm-4.957 -7.824l4.677 -6.406 6.456 0.709 -4.027 6.486 -7.106 -0.789zm4.897 -6.706l4.647 -6.426 5.777 0.649 -4.028 6.486 -6.406 -0.709 0.01 0zm4.867 -6.716l4.647 -6.426 5.097 0.57 -3.998 6.485 -5.746 -0.619 0 -0.01zm4.877 -6.745l4.647 -6.407 4.417 0.48 -3.997 6.486 -5.067 -0.57 0 0.011zm4.507 -6.736l-4.337 -0.48 5.296 -6.346 3.708 0.4 -4.677 6.426 0.01 0zm1.219 -7.146l5.297 -6.345 3.028 0.34 -4.677 6.405 -3.658 -0.399 0.01 -0.001zm-0.43 -0.05l-2.998 -0.339 4.677 -6.406 3.658 0.399 -5.326 6.346 -0.011 0zm1.499 -7.085l-3.737 -0.429 4.027 -6.486 4.387 0.479 -4.677 6.436zm0.12 -7.255l-4.417 -0.51 3.368 -6.546 5.066 0.57 -4.027 6.486 0.01 0zm-1.249 -7.415l-5.127 -0.57 2.719 -6.626 5.746 0.65 -3.338 6.546zm-2.638 -7.536l-5.806 -0.649 2.068 -6.716 6.456 0.739 -2.718 6.626zm-6.116 -0.689l-5.806 -0.65 1.389 -6.765 6.486 0.709 -2.069 6.716 0 -0.01zm-6.146 -0.68l-5.806 -0.649 0.769 -6.856 6.456 0.71 -1.419 6.795zm-5.357 -7.845l-0.37 -0.06 0.77 -3.537 -0.4 3.597zm-0.679 -0.08l-0.34 -0.06 1.079 -3.458 -0.739 3.518zm-0.68 -0.09l-0.31 -0.029 1.389 -3.398 -1.079 3.427zm-0.65 -0.05l-0.339 -0.06 1.698 -3.257 -1.359 3.317zm-0.679 -0.089l-0.31 -0.03 1.959 -3.148 -1.649 3.178zm-0.65 -0.081l-0.309 -0.029 2.148 -2.979 -1.839 3.008zm-0.679 -0.06l-0.26 -0.029 2.098 -2.519 -1.838 2.548zm-0.23 0.28l-4.647 6.426 -0.959 -0.11 5.326 -6.345 0.28 0.029zm-6.006 6.296l-5.727 -0.649 4.647 -6.406 6.376 0.709 -5.296 6.346zm-6.116 -0.689l-5.776 -0.65 4.027 -6.486 6.426 0.71 -4.677 6.426zm-6.116 -0.68l-5.806 -0.649 3.367 -6.576 6.426 0.739 -3.997 6.486 0.01 0zm-0.2 0.29l-3.997 6.516 -5.127 -0.57 3.368 -6.576 5.756 0.63zm-4.197 6.796l-4.028 6.485 -4.417 -0.479 3.367 -6.546 5.078 0.54zm-4.188 6.795l-4.027 6.486 -3.738 -0.399 3.368 -6.576 4.397 0.489zm-4.227 6.806l-3.997 6.486 -3.058 -0.34 3.338 -6.546 3.717 0.4zm-4.188 6.796l-3.997 6.485 -2.408 -0.26 3.368 -6.546 3.037 0.321zm0.37 0.06l3.028 0.339 -4.677 6.406 -2.378 -0.26 4.027 -6.485zm3.398 0.369l2.978 0.34 -5.296 6.346 -2.349 -0.26 4.677 -6.426 -0.01 0zm-2.188 7.025l4.387 0.48 -4.677 6.426 -5.017 -0.57 5.296 -6.345 0.011 0.009zm-0.11 7.256l5.077 0.56 -3.998 6.485 -5.746 -0.649 4.677 -6.396 -0.01 0zm1.249 7.385l5.776 0.65 -3.337 6.546 -6.456 -0.71 4.027 -6.486 -0.01 0zm2.608 7.565l6.486 0.71 -2.718 6.626 -7.106 -0.79 3.338 -6.546zm3.648 7.645l-3.368 6.576 -6.485 -0.71 2.718 -6.655 7.135 0.789zm-3.508 6.886l-3.367 6.576 -5.807 -0.65 2.719 -6.626 6.455 0.71 0 -0.01zm-3.517 6.886l-3.368 6.545 -5.127 -0.569 2.719 -6.626 5.776 0.65zm-3.538 6.855l-3.338 6.576 -4.447 -0.51 2.718 -6.625 5.067 0.569 0 -0.01zm-3.178 6.916l4.387 0.48 -3.997 6.485 -3.738 -0.399 3.338 -6.576 0.01 0.01zm4.766 0.53l4.388 0.479 -4.678 6.406 -3.707 -0.399 3.997 -6.486zm-0.119 7.255l3.657 0.4 -5.296 6.346 -3.028 -0.34 4.677 -6.406 -0.01 0zm4.087 0.45l2.998 0.309 -4.647 6.426 -3.687 -0.4 5.326 -6.345 0.01 0.01zm3.368 0.369l3.058 0.34 -4.028 6.486 -3.687 -0.43 4.647 -6.406 0.01 0.01zm3.428 0.37l3.058 0.34 -3.368 6.576 -3.708 -0.43 4.028 -6.486 -0.01 0zm3.398 0.4l3.088 0.34 -2.719 6.625 -3.737 -0.429 3.368 -6.546 0 0.01zm3.398 0.37l3.088 0.339 -2.039 6.716 -3.738 -0.43 2.689 -6.625zm3.427 0.369l3.088 0.34 -1.389 6.796 -3.737 -0.43 2.039 -6.716 -0.001 0.01zm3.398 0.39l3.118 0.34 -0.769 6.855 -3.738 -0.429 1.389 -6.766zm0.09 -0.34l1.419 -6.765 2.408 0.28 -0.769 6.825 -3.058 -0.34zm4.167 -6.455l4.417 0.479 -1.389 6.796 -3.767 -0.43 0.739 -6.855 0 0.01zm4.757 0.509l4.417 0.51 -2.068 6.716 -3.768 -0.431 1.419 -6.795zm4.757 0.54l4.387 0.48 -2.688 6.655 -3.768 -0.43 2.069 -6.715 0 0.01zm4.727 0.539l4.417 0.48 -3.367 6.576 -3.768 -0.43 2.718 -6.626zm4.767 0.51l4.387 0.51 -3.997 6.486 -3.768 -0.431 3.368 -6.575 0.01 0.01zm0.17 -0.32l3.338 -6.546 5.067 0.57 -3.998 6.486 -4.417 -0.51 0.01 0zm3.168 -6.905l-5.127 -0.57 2.719 -6.626 5.746 0.65 -3.338 6.546zm-2.299 -7.506l2.688 -6.625 6.456 0.709 -3.338 6.576 -5.806 -0.649 0 -0.011zm2.499 -6.975l-6.486 -0.74 2.069 -6.715 7.135 0.789 -2.718 6.666zm-4.277 -7.755l3.997 -6.486 6.485 0.74 -3.367 6.546 -7.115 -0.8zm4.187 -6.805l3.997 -6.486 5.806 0.649 -3.367 6.576 -6.436 -0.739zm4.197 -6.766l4.027 -6.516 5.097 0.569 -3.368 6.576 -5.756 -0.629zm4.187 -6.796l4.028 -6.485 4.417 0.479 -3.338 6.576 -5.107 -0.57zm3.858 -6.856l-4.388 -0.479 4.678 -6.406 3.707 0.399 -3.997 6.486zm0.51 -7.195l4.646 -6.426 3.058 0.34 -4.027 6.486 -3.687 -0.4 0.01 0zm4.477 -6.775l-2.979 -0.34 5.327 -6.346 2.318 0.259 -4.677 6.427 0.011 0zm-3.368 -0.37l-3.708 -0.43 4.678 -6.406 4.337 0.48 -5.307 6.356zm0.789 -7.196l-4.387 -0.479 3.998 -6.486 5.066 0.57 -4.677 6.405 0 -0.01zm-0.569 -7.305l-5.097 -0.57 3.368 -6.576 5.746 0.65 -4.028 6.486 0.011 0.01zm-1.929 -7.475l-5.806 -0.649 2.718 -6.626 6.426 0.709 -3.338 6.576 0 -0.01zm-2.968 -7.595l2.718 -6.626 7.135 0.789 -3.367 6.546 -6.486 -0.709zm-0.31 -0.03l-6.486 -0.74 2.039 -6.715 7.136 0.789 -2.689 6.666zm-6.826 -0.769l-6.485 -0.74 1.389 -6.766 7.165 0.789 -2.069 6.717zm-6.835 -0.76l-6.486 -0.71 0.77 -6.855 7.135 0.789 -1.419 6.776zm-11.523 -1.279l-6.406 -0.71 4.647 -6.426 7.056 0.789 -5.297 6.347zm-6.775 -0.76l-6.456 -0.71 3.997 -6.485 7.105 0.789 -4.646 6.406zm-6.826 -0.74l-6.456 -0.739 3.338 -6.546 7.105 0.79 -3.997 6.485 0.01 0.01zm-6.825 -0.759l-6.456 -0.71 2.688 -6.656 7.135 0.79 -3.367 6.576zm-0.14 0.31l-3.368 6.576 -5.806 -0.65 2.718 -6.625 6.456 0.709 0 -0.01zm-3.518 6.885l-3.368 6.546 -5.127 -0.569 2.719 -6.626 5.776 0.649zm-3.538 6.856l-3.338 6.576 -4.447 -0.509 2.719 -6.626 5.066 0.569 0 -0.01zm-3.518 6.875l-3.337 6.546 -3.768 -0.399 2.688 -6.656 4.417 0.509zm-3.507 6.856l-3.368 6.576 -3.058 -0.339 2.688 -6.626 3.738 0.399 0 -0.01zm-3.518 6.886l-3.367 6.575 -2.379 -0.279 2.688 -6.626 3.058 0.34 0 -0.01zm-3.168 6.915l2.348 0.26 -4.027 6.486 -1.699 -0.17 3.368 -6.576 0.01 0zm2.688 0.31l2.349 0.26 -4.647 6.406 -1.699 -0.17 3.997 -6.496zm2.749 0.28l2.298 0.26 -5.327 6.346 -1.638 -0.17 4.677 -6.426 -0.01 -0.01zm-2.859 6.976l5.047 0.539 -4.647 6.426 -5.726 -0.619 5.326 -6.346zm0.56 7.305l5.756 0.649 -3.997 6.486 -6.426 -0.71 4.677 -6.426 -0.01 0.001zm1.929 7.475l6.456 0.709 -3.368 6.576 -7.106 -0.789 4.028 -6.486 -0.01 -0.01zm2.978 7.595l-2.689 6.626 -6.485 -0.71 2.039 -6.715 7.135 0.789 0 0.01zm-11.443 13.262l5.776 0.649 -2.718 6.626 -5.097 -0.57 2.039 -6.715 0 0.01zm-4.227 13.741l2.069 -6.716 5.096 0.569 -2.718 6.626 -4.447 -0.479zm1.959 7.475l2.688 -6.656 4.417 0.51 -3.368 6.546 -3.737 -0.4zm3.657 7.645l-3.058 -0.34 3.338 -6.545 3.708 0.399 -3.998 6.486 0.01 0zm0.34 0.06l4.028 -6.486 3.707 0.4 -4.677 6.426 -3.058 -0.34zm0.879 7.365l-2.318 -0.26 4.677 -6.425 2.978 0.339 -5.326 6.346 -0.011 0zm4.757 0.51l-4.337 -0.479 5.297 -6.346 3.707 0.429 -4.677 6.406 0.01 -0.01zm4.757 0.54l-4.387 -0.48 4.677 -6.426 3.708 0.43 -3.997 6.485 -0.001 -0.009zm4.757 0.539l-4.387 -0.509 3.998 -6.486 3.767 0.43 -3.367 6.576 -0.011 -0.011zm4.757 0.51l-4.417 -0.48 3.368 -6.576 3.767 0.43 -2.718 6.626zm4.737 0.54l-4.387 -0.48 2.688 -6.656 3.768 0.43 -2.069 6.716 0 -0.01zm4.757 0.509l-4.417 -0.479 2.068 -6.716 3.768 0.43 -1.419 6.765zm4.757 0.53l-4.417 -0.48 1.389 -6.795 3.797 0.429 -0.769 6.856 0 -0.01zm2.748 0.32l-2.408 -0.28 0.769 -6.826 3.058 0.34 -1.419 6.766zm1.499 -7.116l-3.118 -0.34 0.77 -6.855 3.737 0.43 -1.389 6.765zm3.408 0.37l-3.088 -0.34 1.389 -6.765 3.768 0.429 -2.069 6.686 0 -0.01zm3.428 0.4l-3.088 -0.34 2.039 -6.716 3.737 0.43 -2.688 6.626zm3.398 0.36l-3.089 -0.34 2.719 -6.626 3.737 0.43 -3.367 6.545 0 -0.009zm3.397 0.399l-3.057 -0.34 3.367 -6.576 3.708 0.4 -4.028 6.516 0.01 0zm3.428 0.37l-3.058 -0.34 4.028 -6.486 3.687 0.4 -4.647 6.426 -0.01 0zm9.095 -5.916l3.028 0.34 -4.677 6.406 -3.658 -0.4 5.296 -6.346 0.011 0zm-0.4 -0.06l-5.327 6.346 -2.998 -0.34 4.677 -6.406 3.658 0.4 -0.01 0zm-3.828 -0.74l-3.737 -0.43 4.027 -6.485 4.387 0.48 -4.677 6.435zm9.554 -13.141l-4.677 6.406 -4.418 -0.48 4.028 -6.486 5.067 0.57 0 -0.01zm-5.247 -0.91l-5.097 -0.569 3.338 -6.576 5.777 0.65 -4.028 6.485 0.01 0.01zm8.215 -13.281l-4.027 6.486 -5.777 -0.65 3.368 -6.546 6.436 0.71zm-6.626 -1.079l-6.485 -0.71 2.718 -6.626 7.135 0.789 -3.368 6.547zm3.488 -6.856l-7.135 -0.789 3.367 -6.576 6.486 0.709 -2.718 6.656zm2.828 -6.966l-6.456 -0.71 3.368 -6.575 5.806 0.649 -2.718 6.636zm2.838 -6.945l-5.746 -0.65 3.338 -6.545 5.127 0.569 -2.719 6.626zm5.547 -13.572l-2.689 6.626 -5.096 -0.569 3.367 -6.566 4.418 0.509zm-4.617 -0.849l-4.417 -0.48 4.027 -6.486 3.738 0.4 -3.338 6.576 -0.01 -0.01zm6.885 -13.451l-3.367 6.576 -3.708 -0.4 3.997 -6.515 3.088 0.34 -0.01 -0.001zm0.77 -7.165l-3.997 6.485 -3.028 -0.34 4.647 -6.406 2.378 0.261zm0.48 -7.196l1.638 0.17 -4.646 6.426 -2.319 -0.26 5.327 -6.346 0 0.01zm-0.43 -0.06l-5.297 6.346 -4.367 -0.48 4.647 -6.426 5.017 0.57 0 -0.01zm-0.51 -7.305l-4.647 6.406 -5.097 -0.57 3.998 -6.485 5.746 0.649zm-5.886 -0.989l-5.806 -0.65 3.367 -6.546 6.426 0.71 -3.997 6.486 0.01 0zm8.184 -13.292l-3.997 6.486 -6.485 -0.71 3.367 -6.576 7.115 0.8zm-7.334 -1.129l-7.136 -0.79 3.368 -6.576 6.486 0.71 -2.718 6.656zm-0.26 -14.251l5.806 0.649 -2.719 6.626 -6.425 -0.709 3.337 -6.576 0.001 0.01zm-6.117 -0.68l5.777 0.65 -3.368 6.576 -6.426 -0.74 4.028 -6.485 -0.011 -0.001zm-4.227 6.796l6.486 0.739 -3.368 6.546 -7.105 -0.789 3.997 -6.486 -0.01 -0.01zm-6.795 -0.74l6.456 0.71 -4.028 6.486 -7.106 -0.79 4.678 -6.406zm-6.796 -0.759l6.426 0.71 -4.677 6.426 -7.056 -0.79 5.297 -6.346 0.01 0zm-0.65 -0.09l0.26 0.03 -2.129 2.518 1.869 -2.548zm-0.679 -0.05l0.28 0.03 -2.149 2.978 1.869 -3.008zm-0.68 -0.09l0.31 0.03 -1.929 3.148 1.619 -3.178zm-0.679 -0.05l0.34 0.03 -1.669 3.258 1.329 -3.288zm-0.66 -0.09l0.34 0.03 -1.389 3.398 1.049 -3.428zm-0.68 -0.08l0.34 0.06 -1.049 3.488 0.709 -3.548zm-0.649 -0.06l0.34 0.03 -0.74 3.568 0.4 -3.598zm-6.856 -0.769l6.516 0.709 -0.769 6.856 -7.135 -0.789 1.388 -6.776zm-6.795 -0.76l6.485 0.74 -1.419 6.765 -7.135 -0.789 2.069 -6.716zm-6.826 -0.769l6.486 0.739 -2.069 6.716 -7.135 -0.789 2.718 -6.666zm-6.825 -0.73l6.485 0.71 -2.718 6.626 -7.106 -0.79 3.339 -6.546zm-6.806 -0.769l6.456 0.709 -3.368 6.576 -7.105 -0.789 4.027 -6.486 -0.01 -0.01zm-4.137 6.795l7.105 0.79 -2.688 6.626 -6.486 -0.71 2.069 -6.716 0 0.01zm-2.179 7.026l6.456 0.71 -2.689 6.655 -5.806 -0.649 2.039 -6.716zm-2.149 7.025l5.777 0.65 -2.688 6.626 -5.127 -0.57 2.039 -6.716 -0.001 0.01zm-2.158 7.026l5.097 0.569 -2.719 6.626 -4.447 -0.48 2.069 -6.715zm-2.149 7.025l4.417 0.48 -2.718 6.626 -3.768 -0.4 2.069 -6.716 0 0.01zm-2.158 7.026l3.737 0.4 -2.718 6.655 -3.089 -0.34 2.069 -6.715 0.001 0zm-2.149 7.026l3.058 0.339 -2.718 6.626 -2.409 -0.26 2.069 -6.715 0 0.01zm-2.498 13.91l-1.729 -0.17 2.068 -6.716 2.349 0.26 -2.688 6.626zm0.339 0.06l2.689 -6.656 2.378 0.28 -3.368 6.546 -1.699 -0.17zm-0.449 7.196l-1.02 -0.11 3.368 -6.546 1.669 0.17 -4.028 6.486 0.011 0zm1.389 0.169l-1.02 -0.11 4.028 -6.485 1.639 0.17 -4.647 6.425zm0.37 0.03l4.647 -6.406 1.619 0.17 -5.297 6.346 -0.969 -0.11zm-4.198 6.796l5.327 -6.346 5.726 0.65 -4.647 6.405 -6.406 -0.709zm6.546 1.049l6.456 0.74 -3.997 6.486 -7.106 -0.79 4.647 -6.436zm-4.817 6.746l7.166 0.789 -2.069 6.716 -6.486 -0.74 1.389 -6.765zm133.374 54.865l-0.03 0 4.477 -0.31 0 0.67c0.1,0 0.21,0.02 0.32,0.03l0.02 -0.72 4.447 -0.31 0.11 1.43c0.12,0 0.239,0.009 0.369,0.02l-0.1 -1.469 2.379 -0.17 -0.04 1.739c0.11,0 0.219,0 0.329,0.009l0.041 -1.778 2.378 -0.17 -0.24 2.008c0.11,0 0.22,0 0.34,0l0.24 -2.039 2.378 -0.17 -0.469 2.249c0.109,0 0.219,0 0.329,0l0.48 -2.279 2.378 -0.17 -0.739 2.468c0.11,0 0.22,0 0.34,0l0.739 -2.468 2.349 -0.17 -1.029 2.629c0.12,0 0.239,0 0.359,0l1.04 -2.659 2.348 -0.17 -1.349 2.799c0.121,0 0.24,0 0.36,0l1.359 -2.819 2.319 -0.17 -1.669 2.939c0.13,0 0.26,0 0.389,-0.01l1.67 -2.948 4.387 -0.31 -1.359 2.838c0.13,-0.02 0.259,-0.03 0.389,-0.05l1.35 -2.818 4.447 -0.309 -0.95 2.438c0.12,-0.02 0.24,-0.04 0.36,-0.06l0.93 -2.419 4.447 -0.309 -0.5 1.659c0.13,-0.04 0.26,-0.08 0.4,-0.12l0.47 -1.57 3.587 -0.249c0.18,-0.12 0.36,-0.24 0.53,-0.37l-4.028 0.28 2.129 -7.056 3.768 -0.28 -1.399 6.696c0.14,-0.11 0.28,-0.23 0.41,-0.35l1.339 -6.346 1.409 -0.11c0.01,-0.109 0.02,-0.219 0.03,-0.34l-1.389 0.101 1.469 -7.026 0.159 0.001c0,-0.13 0.02,-0.24 0.03,-0.35l-0.14 0 0.279 -2.858 -0.599 2.898 -3.058 0.23 2.098 -7.056 1.579 -0.11c0,-0.11 0,-0.219 0,-0.329l-1.469 0.11 1.519 -5.047c0,-0.42 0,-0.84 0.01,-1.259l-1.879 6.336 -2.378 0.17 2.778 -7.106 1.489 -0.12c0,-0.1 0,-0.21 0,-0.31l-1.349 0.09 1.389 -3.577c0,-0.3 0,-0.6 0,-0.9l-1.759 4.508 -1.669 0.109 3.428 -7.165 0.021 0c0,-0.261 0,-0.52 0,-0.78l-0.22 0.47 -0.96 0.09c0.869,-1.533 1.19,-1.685 1.19,-2.768l-1.589 2.797 -5.747 0.4 3.428 -7.135 3.968 -0.28 0 -0.33c0,0 -3.828,0.27 -3.828,0.27l3.428 -7.166 0.47 -0.03 -0.021 -0.309 -0.419 0.03 0.17 -6.936 0.13 0c0,-0.11 0,-0.22 0,-0.32l-0.14 0 -0.16 -7.874 -0.021 0.659 -5.776 0.4 0.79 -6.966 4.597 -0.329 -0.02 -0.31 -4.517 0.32 0.819 -6.966 3.068 -0.21c-0.009,-0.109 -0.02,-0.219 -0.029,-0.34l-3.009 0.21 0.82 -6.965 1.399 -0.1c-0.02,-0.1 -0.03,-0.21 -0.04,-0.32l-1.329 0.1 0.55 -4.677c-0.07,-0.389 -0.13,-0.779 -0.2,-1.169l-0.69 5.856 -3.737 0.28 1.469 -7.025 2.768 -0.2c-0.02,-0.1 -0.03,-0.21 -0.05,-0.31l-2.659 0.17 1.4 -6.646c-0.05,-0.259 -0.101,-0.529 -0.16,-0.789l-0.03 0.13 -2.379 0.17 1.449 -4.817c-0.05,-0.24 -0.1,-0.47 -0.15,-0.71l-1.669 5.546 -2.348 0.17 2.778 -7.105 0.919 -0.08c-0.02,-0.1 -0.04,-0.21 -0.07,-0.31l-0.739 0.05c0.503,-1.299 0.531,-1.005 0.359,-1.779l-0.709 1.809 -1.669 0.11 1.898 -3.978c-0.04,-0.17 -0.08,-0.329 -0.12,-0.499l-2.158 4.507 -1.639 0.11 3.458 -6.106c-0.041,-0.16 -0.07,-0.32 -0.11,-0.48l-3.748 6.606 -5.066 0.37 3.427 -7.166 5.257 -0.36c-0.02,-0.11 -0.05,-0.21 -0.07,-0.32l-5.047 0.35 3.308 -6.886c-0.049,-0.19 -0.1,-0.369 -0.159,-0.559l-6.406 0.449 2.778 -7.105 1.678 -0.12c-0.029,-0.1 -0.06,-0.2 -0.089,-0.3l-1.56 0.11 0.43 -3.688c-0.08,-0.23 -0.15,-0.459 -0.23,-0.699l-0.52 4.377 -7.165 0.509 1.469 -6.995 5.377 -0.4 -0.09 -0.309 -5.227 0.369 1.199 -5.716c-0.12,0.03 -0.24,0.07 -0.36,0.1l-1.179 5.637 -6.456 0.45 1.349 -4.528c-0.12,0.03 -0.239,0.05 -0.36,0.07l-1.349 4.477 -6.456 0.45 1.509 -3.867c-0.12,0.02 -0.229,0.03 -0.349,0.049l-1.5 3.848c-2.148,0.17 -4.307,0.31 -6.455,0.45l1.719 -3.588c-0.121,0.01 -0.25,0.02 -0.37,0.03l-1.719 3.578 -6.406 0.479 1.999 -3.548c-0.14,0.01 -0.28,0.02 -0.43,0.03l-1.999 3.548 -0.278 0.001 1.679 -3.498c-0.12,0 -0.24,0.02 -0.37,0.03l-1.678 3.508 -0.34 0.03 1.359 -3.488c-0.121,0 -0.24,0.02 -0.37,0.02l-1.369 3.497 -0.34 0.03 1.049 -3.478c-0.12,0 -0.23,0.01 -0.34,0.02l-1.049 3.488 -0.37 0.03 0.729 -3.478c-0.11,0 -0.22,0.01 -0.33,0.02l-0.709 3.458 -0.37 0.03 0.39 -3.448c-0.11,0 -0.23,0.01 -0.34,0.02l-0.39 3.458 -0.37 0.03 0.07 -3.448c-0.11,0 -0.22,0.01 -0.33,0.02l-0.08 3.458 -0.37 0.03 -0.239 -3.448c-0.12,0 -0.24,0.01 -0.36,0.02l0.26 3.458 -6.486 0.45 0.07 -3.638 -0.33 0 -0.09 3.648 -6.485 0.45 0.459 -3.908c-0.11,0 -0.22,0 -0.33,0l-0.449 3.928 -6.486 0.45 0.899 -4.248c-0.12,0 -0.24,0 -0.35,0l-0.879 4.277 -6.485 0.45 1.399 -4.657c-0.11,0 -0.22,0 -0.33,0l-1.409 4.687 -6.456 0.48 2.009 -5.157c-0.121,0 -0.24,0 -0.36,0l-2.019 5.157 -6.426 0.48 2.708 -5.667 -0.378 0 -2.718 5.696 -0.48 0.03 0 0.33 0.34 -0.02 -0.34 1.449 0.709 -1.479 6.486 -0.48 -2.778 7.106 -4.417 0.32 0 0.33 4.367 -0.31 -0.789 6.965 -3.568 0.25 0 0.33 3.507 -0.26 -0.789 6.965 -2.718 0.2 0 0.34 2.658 -0.2 -0.82 6.965 -1.838 0.13 0 0.34 1.809 -0.13 -0.82 6.966 -0.989 0.069 0 0.31 0.959 -0.07 -0.59 5.017c0.12,0.1 0.21,0.23 0.29,0.37l0.64 -5.416 4.417 -0.31 -1.469 7.025 -3.168 0.21c0.02,0.11 0.03,0.22 0.05,0.33l3.058 -0.21 -1.469 6.995 -0.4 0.03 0.061 0.33 0.289 -0.02 -0.02 1.569 0.33 -1.599 3.058 -0.2 -2.099 7.056 -0.36 0.03c0.02,0.11 0.04,0.22 0.06,0.33l0.18 0 0.021 1.04 0.319 -1.08 2.379 -0.17 -1.949 4.997c0.04,0.18 0.07,0.37 0.11,0.56l2.179 -5.577 2.348 -0.17 -3.397 7.166 -0.83 0.05 0.06 0.309 0.6 -0.05c-0.538,1.113 -0.432,0.666 -0.31,1.4l0.669 -1.4 1.619 -0.139 -1.878 3.338c0.04,0.17 0.08,0.34 0.12,0.509l2.188 -3.867 5.067 -0.34 -3.428 7.135 -3.038 0.23c0.03,0.11 0.06,0.21 0.08,0.32l2.789 -0.21 -1.839 3.867c0.04,0.16 0.09,0.33 0.13,0.5l2.098 -4.397 5.777 -0.4 -2.749 7.086 -4.417 0.329c0.03,0.11 0.06,0.21 0.1,0.32l4.178 -0.309 -2.599 6.655c0.05,0.25 0.11,0.51 0.16,0.76l7.115 -0.51 -1.468 7.026 -3.948 0.27c0.03,0.109 0.07,0.209 0.1,0.319l3.788 -0.279 -1.469 7.025 -0.48 0.04c0.02,0.11 0.04,0.22 0.06,0.33l0.37 -0.03 -0.05 1.739 0.37 -1.769 5.806 -0.43 -2.129 7.056 -2.988 0.22c0.03,0.11 0.06,0.22 0.08,0.329l2.818 -0.199 -1.588 5.306c0.039,0.23 0.079,0.45 0.129,0.68l1.809 -6.017 5.097 -0.34 -2.778 7.086 -3.948 0.3c0.021,0.1 0.041,0.2 0.05,0.3l3.748 -0.27 -2.648 6.786c0.04,0.21 0.07,0.429 0.11,0.639l3.726 -0.26 -2.699 5.617c0.03,0.179 0.07,0.36 0.1,0.529l2.968 -6.176 3.658 -0.259 -4.048 7.195 -2.378 0.16c0.03,0.12 0.06,0.23 0.09,0.34l2.099 -0.16 -1.14 1.999c0.08,0.08 0.17,0.159 0.26,0.24l1.28 -2.269 3.707 -0.26 -1.919 3.998c0.1,0.029 0.21,0.069 0.32,0.1l1.969 -4.128 3.768 -0.28 -2.089 5.347c0.1,0.02 0.2,0.04 0.309,0.06l2.119 -5.436 3.768 -0.26 -1.889 6.256c0.12,0.009 0.23,0.02 0.35,0.03l1.898 -6.316 3.768 -0.26 -1.449 6.875c0.11,0 0.22,0.01 0.33,0.02l1.429 -6.926 3.798 -0.279 -0.82 6.965 -3.797 0.27 3.777 0.08 0 0.08c0.1,0 0.21,0 0.33,0.01l0 -0.121 0.05 0.021zm4.647 -7.905l-3.768 0.28 0.82 -6.965 3.088 -0.23 -0.14 6.915zm21.046 -110.049l-5.836 0.43 1.469 -7.026 6.456 -0.449 -2.129 7.055 0.03 0 0.01 -0.01zm11.273 100.505l-3.708 0.28 3.428 -7.166 4.367 -0.309 -4.077 7.195 -0.01 0zm4.477 -7.225l2.349 -0.17 -3.428 7.166 -2.998 0.199 4.077 -7.195zm-16.769 8.104l-3.768 0.28 1.449 -7.025 4.417 -0.31 -2.129 7.056 0.031 -0.001zm-8.215 0.59l-3.797 0.28 0.17 -6.936 4.417 -0.309 -0.82 6.965 0.03 0zm-10.823 -20.617l1.049 -0.06 0.48 6.856 -1.699 0.14 0.17 -6.936zm-0.31 -0.279l-1.049 0.06 0.82 -6.966 0.369 -0.03 -0.139 6.936 -0.001 0zm0.68 -14.201l7.165 -0.54 -0.139 6.936 -6.546 0.449 -0.48 -6.855 0 0.01zm0.14 6.885l-0.34 0.03 0.09 -3.628 0.259 3.598 -0.009 0zm-10.963 -42.323l3.797 -0.259 -0.17 6.915 -4.417 0.309 0.82 -6.965 -0.03 0zm13.851 20.737l1.019 -0.09 -2.128 7.085 -0.37 0.03 1.469 -7.025 0.01 0zm-1.789 7.026l-0.37 0.029 0.79 -6.965 1.019 -0.06 -1.449 6.996 0.01 0zm3.148 -7.106l0.989 -0.09 -2.748 7.106 -0.37 0.03 2.129 -7.056 0 0.01zm1.359 -0.12l0.989 -0.06 -3.427 7.135 -0.34 0.03 2.778 -7.105 0 0zm-0.23 -0.31l-1.019 0.09 2.099 -7.055 1.698 -0.14 -2.778 7.105zm-1.379 0.11l-1.019 0.06 1.449 -6.995 1.699 -0.14 -2.129 7.085 0 -0.01zm-1.359 0.09l-1.049 0.09 0.819 -6.965 1.699 -0.11 -1.469 6.995 0 -0.01zm-1.389 0.11l-1.049 0.06 0.17 -6.916 1.699 -0.109 -0.82 6.965zm-1.219 -7.165l-1.729 0.139 -0.48 -6.885 2.379 -0.17 -0.17 6.916zm0.14 7.565l1.049 -0.09 -0.819 6.965 -0.37 0.03 0.14 -6.905zm0.199 7.225l-0.43 3.628 0.091 -3.598 0.339 -0.03zm0.31 -0.03l0.34 -0.029 -0.769 3.597 0.429 -3.568zm0.68 -0.06l0.31 -0.029 -1.05 3.537 0.74 -3.508zm0.679 -0.02l0.31 -0.03 -1.329 3.428 1.019 -3.398zm0.65 -0.06l0.31 -0.03 -1.589 3.318 1.279 -3.288zm0.68 -0.06l0.26 0 -1.619 2.858 1.359 -2.858zm0.169 -0.339l3.428 -7.136 0.94 -0.09 -4.078 7.226 -0.29 0zm3.209 -7.446l-1.02 0.06 2.778 -7.105 1.669 -0.11 -3.427 7.165 0 -0.01zm1.528 -7.365l-1.698 0.14 2.128 -7.056 2.349 -0.17 -2.779 7.086zm-2.038 0.17l-1.729 0.11 1.469 -7.026 2.348 -0.17 -2.098 7.086 0.01 0zm-2.069 0.14l-1.728 0.11 0.819 -6.966 2.378 -0.17 -1.469 7.026zm-2.068 0.14l-1.729 0.109 0.17 -6.915 2.378 -0.17 -0.819 6.976zm-1.899 -7.116l-2.409 0.17 -0.479 -6.855 3.058 -0.23 -0.17 6.915zm-2.239 7.395l-5.127 0.37 0.14 -6.915 4.477 -0.31 0.51 6.855zm-5.127 -14.1l-3.737 0.28 0.82 -6.966 3.088 -0.23 -0.171 6.916zm-0.03 14.81l5.157 -0.37 0.51 6.886 -5.807 0.4 0.14 -6.916zm5.527 -0.39l1.699 -0.109 -0.17 6.915 -1.049 0.09 -0.48 -6.896zm1.639 21.267l4.077 -7.196 6.456 -0.479 -3.428 7.165 -7.105 0.51zm4.277 -7.535l4.077 -7.226 5.747 -0.399 -3.428 7.135 -6.406 0.48 0.01 0.01zm3.857 -7.535l-0.989 0.089 3.428 -7.165 1.639 -0.11 -4.078 7.195 0 -0.009zm2.239 -7.396l-1.699 0.14 2.778 -7.106 2.349 -0.17 -3.428 7.136zm0.85 -7.275l-2.409 0.17 2.129 -7.085 3.028 -0.2 -2.748 7.115zm-2.749 0.2l-2.408 0.17 1.469 -7.026 3.058 -0.23 -2.129 7.086 0.01 0zm-2.748 0.199l-2.408 0.17 0.819 -6.965 3.058 -0.23 -1.469 7.025zm-2.748 0.17l-2.408 0.2 0.139 -6.935 3.089 -0.23 -0.82 6.965zm-2.548 -7.055l-3.119 0.23 -0.509 -6.855 3.767 -0.28 -0.139 6.905zm-2.979 7.445l-4.417 0.31 0.14 -6.915 3.797 -0.26 0.48 6.865zm-4.417 -14.16l-3.058 0.23 0.82 -6.966 2.408 -0.17 -0.17 6.906zm-3.398 0.26l-3.057 0.23 1.468 -7.026 2.409 -0.17 -0.82 6.966zm-0.03 0.309l-0.819 6.966 -3.738 0.28 1.469 -7.026 3.088 -0.23 0 0.01zm-4.906 7.275l-3.738 0.26 2.129 -7.055 3.088 -0.23 -1.469 7.025 -0.01 0zm0.259 0.311l3.798 -0.28 -0.82 6.965 -4.417 0.309 1.449 -6.995 -0.01 0.001zm3.258 7.005l4.477 -0.31 -0.17 6.915 -5.096 0.37 0.819 -6.965 -0.03 -0.001 0 -0.009zm4.448 14.16l5.866 -0.429 0.479 6.885 -6.485 0.45 0.14 -6.906zm6.206 -0.449l1.019 -0.06 -0.17 6.915 -0.37 0.03 -0.479 -6.885zm0.849 7.165l-0.08 3.658 -0.26 -3.628 0.34 -0.03zm-0.06 14.501l0.4 -0.03 0.479 6.856 -1.019 0.089 0.14 -6.915zm0.739 -0.06l6.486 -0.48 -0.14 6.936 -5.836 0.399 -0.51 -6.855zm6.656 6.746l5.807 -0.4 -0.82 6.965 -5.157 0.37 0.17 -6.935zm6.116 -0.43l5.806 -0.43 -1.469 7.025 -5.126 0.37 0.789 -6.965zm-0.28 -0.31l-5.836 0.43 0.17 -6.916 6.486 -0.479 -0.82 6.965zm-5.666 -6.826l0.17 -6.915 7.166 -0.51 -0.82 6.966 -6.516 0.45 0 0.009zm0.25 -7.255l3.428 -7.166 6.456 -0.449 -2.749 7.105 -7.135 0.51zm3.578 -7.505l3.427 -7.135 5.806 -0.43 -2.778 7.105 -6.455 0.45 0 0.01zm3.198 -7.445l-5.727 0.399 4.078 -7.195 5.066 -0.37 -3.428 7.166 0.011 0zm-1.449 -7.146l4.077 -7.195 4.387 -0.31 -3.428 7.135 -5.046 0.37 0.01 0zm-0.39 0.03l-1.67 0.11 3.428 -7.135 2.299 -0.17 -4.048 7.195 -0.009 0zm1.529 -7.335l-2.379 0.17 2.778 -7.105 3.028 -0.23 -3.427 7.165zm0.17 -7.255l-3.058 0.23 2.098 -7.086 3.738 -0.259 -2.778 7.115zm-3.428 0.26l-3.088 0.199 1.469 -6.995 3.737 -0.28 -2.129 7.086 0.011 -0.01zm-3.428 0.23l-3.088 0.23 0.82 -6.966 3.737 -0.259 -1.469 6.995zm-3.427 0.249l-3.089 0.23 0.14 -6.935 3.768 -0.26 -0.819 6.965zm-3.228 -7.025l-3.798 0.28 -0.51 -6.886 4.447 -0.31 -0.139 6.916zm-3.658 7.505l-3.738 0.26 0.14 -6.915 3.118 -0.231 0.48 6.886zm-3.738 -14.221l-2.379 0.17 0.82 -6.965 1.729 -0.11 -0.17 6.905zm-2.718 0.2l-2.379 0.17 1.469 -6.996 1.729 -0.139 -0.819 6.965zm-2.728 0.2l-2.378 0.17 2.128 -7.056 1.729 -0.14 -1.469 7.026 -0.01 0zm-0.05 0.34l-1.469 6.996 -3.058 0.23 2.129 -7.056 2.408 -0.17 -0.01 0zm-4.877 7.255l-3.058 0.23 2.778 -7.105 2.408 -0.17 -2.128 7.056 0 -0.011zm-3.398 0.25l-3.028 0.2 3.428 -7.136 2.378 -0.169 -2.778 7.105zm0.23 0.29l3.058 -0.2 -2.099 7.055 -3.737 0.26 2.778 -7.115zm1.189 7.165l3.798 -0.26 -1.469 6.996 -4.418 0.309 2.129 -7.055 -0.03 0 -0.01 0.01zm2.578 7.056l4.477 -0.31 -0.819 6.965 -5.127 0.37 1.469 -7.025zm3.938 6.965l5.157 -0.37 -0.17 6.916 -5.806 0.429 0.819 -6.975zm5.156 14.111l6.517 -0.48 0.479 6.886 -7.166 0.509 0.17 -6.915zm6.826 13.651l-0.309 0.03 0.399 -3.628 -0.08 3.598 -0.01 0zm-0.649 0.06l-0.34 0.03 0.74 -3.598 -0.4 3.568zm-0.68 0.02l-0.31 0.03 1.05 -3.538 -0.74 3.508zm-0.679 0.06l-0.31 0.03 1.329 -3.428 -1.019 3.398zm-0.66 0.06l-0.31 0 1.589 -3.288 -1.279 3.288zm-0.68 0.03l-0.259 0.03 1.618 -2.858 -1.359 2.828zm-0.17 0.34l-3.427 7.165 -0.94 0.06 4.078 -7.195 0.289 -0.03zm0.37 -0.03l0.34 -0.03 -2.778 7.105 -0.989 0.09 3.427 -7.165zm0.68 -0.06l0.369 0 -2.128 7.055 -0.989 0.06 2.748 -7.115zm0.709 -0.03l0.37 -0.03 -1.469 6.996 -1.019 0.09 2.129 -7.056 -0.011 0zm0.68 -0.05l0.37 -0.03 -0.79 6.966 -1.019 0.089 1.449 -7.025 -0.01 0zm-0.14 7.245l1.049 -0.09 -0.139 6.936 -1.73 0.11 0.82 -6.965 0 0.009zm1.219 7.146l1.729 -0.11 0.48 6.886 -2.379 0.17 0.17 -6.946zm1.559 -7.346l5.807 -0.429 -0.14 6.935 -5.157 0.37 -0.51 -6.886 0 0.01zm5.977 6.806l5.096 -0.37 -0.789 6.966 -4.477 0.34 0.17 -6.936zm5.436 -0.37l5.126 -0.369 -1.469 6.995 -4.476 0.34 0.819 -6.966zm5.466 -0.399l5.097 -0.37 -2.129 7.056 -4.447 0.309 1.469 -6.995 0.01 0zm5.437 -0.4l5.097 -0.37 -2.779 7.105 -4.447 0.31 2.129 -7.055 0 0.01zm-0.25 -0.31l-5.127 0.37 1.469 -6.996 5.777 -0.43 -2.129 7.056 0.01 0zm-3.938 -6.935l-5.836 0.399 0.82 -6.965 6.485 -0.45 -1.469 7.025 0 -0.009zm-4.956 -6.886l0.819 -6.966 7.136 -0.509 -1.449 6.995 -6.506 0.48zm0.879 -7.306l2.778 -7.105 6.486 -0.45 -2.129 7.056 -7.135 0.509 0 -0.01zm2.918 -7.455l2.748 -7.105 5.807 -0.4 -2.099 7.056 -6.456 0.449zm2.519 -7.425l-5.747 0.43 3.428 -7.165 5.097 -0.34 -2.778 7.085 0 -0.01zm-2.179 -7.046l3.428 -7.165 4.447 -0.31 -2.778 7.106 -5.097 0.369zm3.598 -7.515l3.427 -7.135 3.738 -0.28 -2.778 7.106 -4.387 0.309zm-0.37 0.03l-4.367 0.31 4.078 -7.195 3.707 -0.28 -3.428 7.165 0.01 0zm-4.787 0.34l-2.318 0.17 3.427 -7.165 2.979 -0.2 -4.078 7.195 -0.01 0zm0.879 -7.305l-3.058 0.23 2.748 -7.105 3.738 -0.26 -3.428 7.135zm-0.509 -7.195l-3.768 0.26 2.129 -7.056 4.417 -0.31 -2.778 7.106zm-1.899 -7.116l-4.447 0.34 1.449 -7.025 5.126 -0.37 -2.128 7.055zm-0.12 0.34l-2.129 7.056 -3.767 0.279 1.469 -7.025 4.427 -0.31zm-6.226 7.365l-3.767 0.26 0.819 -6.965 4.417 -0.31 -1.468 7.026 -0.001 -0.011zm-4.107 0.29l-3.768 0.28 0.14 -6.935 4.447 -0.31 -0.819 6.965zm-3.938 -6.976l-4.447 0.34 -0.509 -6.885 5.126 -0.37 -0.17 6.915zm-4.307 7.566l-3.058 0.2 0.17 -6.916 2.408 -0.17 0.48 6.886zm-3.058 -14.241l-1.699 0.11 0.82 -6.966 1.049 -0.09 -0.17 6.946zm-2.039 0.14l-1.699 0.109 1.469 -7.025 1.05 -0.06 -0.82 6.976zm-2.018 0.14l-1.699 0.11 2.128 -7.056 1.02 -0.09 -1.449 7.036zm-2.069 0.139l-1.669 0.11 2.778 -7.105 1.019 -0.06 -2.128 7.055zm-0.08 0.34l-2.128 7.056 -2.349 0.17 2.748 -7.105 1.729 -0.11 0 -0.011zm-4.847 7.256l-2.348 0.17 3.427 -7.166 1.699 -0.11 -2.778 7.106zm-2.718 0.2l-2.318 0.14 4.077 -7.196 1.669 -0.11 -3.428 7.166zm-2.718 0.17l-4.387 0.34 3.427 -7.166 5.047 -0.37 -4.078 7.196 -0.009 0zm-1.19 -7.146l-5.126 0.37 2.778 -7.106 5.776 -0.43 -3.428 7.166zm-0.169 0.34l-3.398 7.135 -4.447 0.34 2.778 -7.106 5.067 -0.369zm-3.198 7.455l4.367 -0.31 -4.078 7.225 -3.707 0.26 3.428 -7.165 -0.01 -0.01zm4.757 -0.34l2.348 -0.139 -3.428 7.135 -2.978 0.23 4.048 -7.225 0.01 -0.001zm-0.85 7.306l3.058 -0.23 -2.778 7.105 -3.708 0.28 3.428 -7.166 0 0.011zm0.51 7.195l3.768 -0.26 -2.129 7.056 -4.417 0.309 2.778 -7.105zm1.899 7.115l4.447 -0.31 -1.449 7.026 -5.127 0.34 2.129 -7.056zm3.257 6.996l5.127 -0.37 -0.789 6.965 -5.807 0.43 1.469 -7.025zm4.618 6.905l5.836 -0.399 -0.17 6.915 -6.486 0.45 0.82 -6.966zm5.666 6.836l-0.17 6.935 -7.166 0.51 0.82 -6.966 6.516 -0.479zm0.14 7.245l7.085 -0.51 -4.077 7.196 -6.426 0.45 3.428 -7.136 -0.01 0zm2.808 7.026l-4.077 7.195 -5.747 0.43 3.428 -7.165 6.406 -0.45 -0.01 -0.01zm-3.858 7.505l0.99 -0.06 -3.428 7.135 -1.639 0.11 4.077 -7.195 0 0.01zm1.359 -0.08l0.99 -0.09 -2.749 7.105 -1.669 0.11 3.428 -7.135 0 0.01zm1.36 -0.11l1.019 -0.06 -2.098 7.056 -1.699 0.11 2.778 -7.106zm1.389 -0.09l1.049 -0.09 -1.469 7.026 -1.699 0.109 2.129 -7.055 -0.01 0.01zm1.359 -0.11l1.049 -0.06 -0.789 6.966 -1.699 0.109 1.449 -7.025 -0.01 0.01zm0.539 7.196l1.729 -0.11 -0.17 6.915 -2.378 0.17 0.819 -6.975zm1.899 7.105l2.409 -0.17 0.479 6.886 -3.058 0.2 0.17 -6.916zm2.239 -7.395l5.127 -0.37 -0.14 6.916 -4.477 0.34 -0.51 -6.886zm10.053 6.516l4.418 -0.31 -1.449 7.025 -3.798 0.26 0.829 -6.975zm9.544 -0.68l4.418 -0.31 -2.779 7.106 -3.767 0.26 2.128 -7.056zm4.767 -0.34l4.387 -0.309 -3.398 7.165 -3.767 0.26 2.778 -7.116zm4.557 -0.649l-4.417 0.309 2.778 -7.105 5.067 -0.34 -3.428 7.135 0 0.001zm-1.869 -7.106l-5.126 0.37 2.098 -7.056 5.777 -0.399 -2.749 7.085zm-3.258 -7.005l-5.836 0.43 1.469 -7.026 6.456 -0.45 -2.099 7.056 0.01 -0.01zm-4.307 -6.906l1.469 -7.025 7.166 -0.51 -2.129 7.056 -6.506 0.479zm1.559 -7.365l2.099 -7.056 6.516 -0.45 -1.469 6.996 -7.146 0.51zm2.209 -7.396l2.129 -7.055 5.806 -0.43 -1.469 7.026 -6.466 0.459zm1.868 -7.365l-5.776 0.43 2.778 -7.106 5.127 -0.369 -2.129 7.055 0 -0.01zm-2.888 -7.025l2.779 -7.106 4.447 -0.31 -2.129 7.056 -5.097 0.37 0 -0.01zm2.919 -7.456l2.778 -7.105 3.737 -0.259 -2.098 7.055 -4.417 0.309zm2.548 -7.414l-3.737 0.279 3.427 -7.165 3.058 -0.23 -2.748 7.116zm-4.108 0.309l-3.687 0.26 4.077 -7.195 3.029 -0.23 -3.428 7.165 0.009 0zm-4.077 0.28l-3.028 0.2 3.428 -7.135 3.687 -0.26 -4.077 7.195 -0.01 0zm0.17 -7.245l-3.737 0.26 2.778 -7.106 4.387 -0.309 -3.428 7.165 0 -0.01zm-1.189 -7.176l-4.447 0.31 2.129 -7.055 5.096 -0.37 -2.778 7.115zm-2.579 -7.045l-5.126 0.37 1.469 -6.996 5.776 -0.43 -2.129 7.056 0.01 0zm-3.937 -6.946l-5.836 0.4 0.82 -6.966 6.485 -0.449 -1.469 7.025 0 -0.01zm-0.06 0.31l-1.469 7.025 -5.126 0.37 0.789 -6.965 5.806 -0.43zm-1.529 7.365l-1.469 6.996 -4.477 0.34 0.82 -6.965 5.126 -0.371zm-6.285 7.336l0.029 0 -4.477 0.34 0.17 -6.936 5.097 -0.369 -0.819 6.965zm-4.618 -6.876l-5.157 0.37 -0.479 -6.886 5.806 -0.43 -0.17 6.946zm-4.987 7.585l-2.378 0.17 0.14 -6.935 1.759 -0.11 0.479 6.886 0 -0.011zm-2.348 -14.301l-1.05 0.06 0.82 -6.965 0.37 -0.03 -0.14 6.935zm-1.389 0.081l-0.989 0.089 1.449 -7.025 0.369 -0.03 -0.819 6.966 -0.01 0zm-1.339 0.089l-1.02 0.09 2.129 -7.056 0.34 -0.029 -1.449 6.995zm-1.359 0.11l-0.99 0.06 2.749 -7.105 0.369 0 -2.128 7.056 0 -0.011zm-1.359 0.09l-0.99 0.09 3.428 -7.165 0.34 -0.03 -2.778 7.105zm-0.14 0.34l-2.749 7.106 -1.669 0.11 3.398 -7.136 1.02 -0.09 0 0.01zm-4.787 7.245l-1.639 0.11 4.077 -7.195 0.96 -0.06 -3.398 7.145zm-2.039 0.15l-5.067 0.37 3.398 -7.165 5.727 -0.4 -4.048 7.195 -0.01 0zm-1.869 -7.085l-5.806 0.4 2.778 -7.106 6.456 -0.45 -3.428 7.166 0 -0.01zm-6.146 0.419l-5.836 0.43 2.129 -7.085 6.456 -0.45 -2.749 7.105zm-0.14 0.34l-2.778 7.106 -5.127 0.37 2.129 -7.086 5.777 -0.399 -0.001 0.009zm-2.918 7.456l-2.748 7.085 -4.447 0.34 2.128 -7.085 5.067 -0.34zm-2.528 7.395l4.387 -0.31 -3.428 7.166 -3.737 0.26 2.778 -7.116zm1.189 7.166l3.658 -0.26 -4.078 7.195 -2.998 0.199 3.428 -7.134 -0.01 0zm4.087 -0.28l3.028 -0.23 -3.427 7.165 -3.688 0.26 4.077 -7.195 0.01 0zm-0.2 7.244l3.768 -0.28 -2.778 7.106 -4.387 0.31 3.397 -7.136zm1.22 7.146l4.447 -0.31 -2.129 7.056 -5.097 0.37 2.779 -7.116zm2.578 7.045l5.126 -0.369 -1.468 7.025 -5.777 0.4 2.129 -7.056 -0.01 0zm3.937 6.976l5.837 -0.43 -0.82 6.966 -6.485 0.449 1.468 -6.995 0 0.01zm4.957 6.886l-0.789 6.965 -7.166 0.509 1.449 -7.025 6.506 -0.449zm-0.509 7.245l7.105 -0.48 -3.428 7.136 -6.455 0.45 2.778 -7.106zm3.537 6.996l-3.427 7.165 -5.806 0.4 2.777 -7.106c2.149,-0.139 4.308,-0.309 6.456,-0.45l0 -0.009zm-3.198 7.455l5.727 -0.4 -4.078 7.196 -5.066 0.37 3.427 -7.166 -0.01 0zm1.839 7.105l1.669 -0.11 -3.427 7.166 -2.319 0.139 4.077 -7.195zm2.039 -0.14l1.699 -0.11 -2.778 7.106 -2.349 0.17 3.428 -7.166zm2.068 -0.139l1.699 -0.11 -2.128 7.055 -2.349 0.17 2.778 -7.115zm2.039 -0.141l1.729 -0.139 -1.449 7.025 -2.378 0.17 2.098 -7.056zm2.069 -0.139l1.729 -0.14 -0.82 6.965 -2.378 0.17 1.469 -6.995zm1.219 7.135l2.408 -0.17 -0.139 6.916 -3.089 0.23 0.82 -6.976zm2.548 7.055l3.119 -0.23 0.509 6.886 -3.767 0.26 0.139 -6.916zm2.979 -7.455l4.417 -0.309 -0.14 6.915 -3.798 0.28 -0.479 -6.886zm4.587 6.916l3.737 -0.26 -0.82 6.965 -3.088 0.2 0.17 -6.915 0.001 0.01zm4.077 -0.28l3.737 -0.28 -1.469 7.025 -3.088 0.23 0.82 -6.975zm4.077 -0.29l3.738 -0.28 -2.129 7.086 -3.088 0.2 1.479 -7.006zm4.078 -0.31l3.737 -0.259 -2.778 7.105 -3.058 0.2 2.099 -7.056 0 0.01zm4.107 -0.279l3.708 -0.26 -3.428 7.135 -3.058 0.23 2.778 -7.105zm4.087 -0.29l3.688 -0.28 -4.077 7.225 -3.029 0.2 3.428 -7.136 -0.01 -0.009zm4.078 -0.28l3.028 -0.23 -3.428 7.166 -3.658 0.259 4.048 -7.195 0.01 0zm3.398 -0.25l3.058 -0.23 -2.749 7.105 -3.737 0.28 3.428 -7.165 0 0.01zm0.169 -0.34l3.428 -7.165 2.379 -0.17 -2.778 7.105 -3.029 0.23zm3.198 -7.485l-2.298 0.17 4.077 -7.195 1.639 -0.11 -3.427 7.135 0.009 0zm-2.718 0.2l-4.387 0.309 3.428 -7.135 5.046 -0.37 -4.077 7.196 -0.01 0zm-1.159 -7.136l-5.127 0.37 2.779 -7.105 5.746 -0.43 -3.398 7.165zm-2.579 -7.055l-5.806 0.4 2.129 -7.056 6.456 -0.45 -2.779 7.106zm-3.597 -6.995l2.129 -7.056 7.135 -0.51 -2.748 7.106 -6.516 0.45 0 0.01zm2.178 -7.396l1.469 -6.995 6.516 -0.48 -0.82 6.965 -7.165 0.51zm1.529 -7.335l1.469 -7.026 5.837 -0.399 -0.82 6.965 -6.486 0.45 0 0.01zm1.219 -7.315l-5.806 0.399 2.129 -7.055 5.127 -0.37 -1.45 7.026zm-3.567 -6.996l2.099 -7.056 4.477 -0.309 -1.469 6.995 -5.107 0.37zm2.208 -7.395l2.129 -7.055 3.768 -0.28 -1.469 7.025 -4.428 0.31zm1.869 -7.365l-3.737 0.26 2.778 -7.106 3.088 -0.2 -2.129 7.056 0 -0.01zm-1.189 -7.166l-3.028 0.23 3.428 -7.165 2.378 -0.17 -2.778 7.105zm-3.398 0.26l-2.998 0.2 4.077 -7.195 2.349 -0.17 -3.428 7.165zm-3.398 0.22l-3.707 0.28 3.428 -7.166 4.337 -0.31 -4.048 7.196 -0.01 0zm-0.509 -7.196l-4.418 0.31 2.779 -7.105 5.066 -0.34 -3.427 7.135zm-1.899 -7.075l-5.127 0.34 2.129 -7.055 5.776 -0.4 -2.778 7.115zm-2.888 -7.055l2.129 -7.056 6.456 -0.45 -2.778 7.106 -5.807 0.4zm1.869 -7.366l-6.516 0.48 1.469 -7.025 7.135 -0.51 -2.098 7.056 0.01 -0.001zm-6.856 0.48l-6.485 0.48 0.789 -6.966 7.166 -0.509 -1.47 6.995zm-6.825 0.51l-6.516 0.45 0.14 -6.916 7.165 -0.509 -0.789 6.975zm-0.031 0.31l-0.819 6.965 -5.837 0.43 0.17 -6.916 6.486 -0.479zm-0.879 7.315l-0.789 6.965 -5.157 0.37 0.17 -6.936 5.776 -0.399zm-6.116 0.11l-5.836 0.399 -0.48 -6.855 6.486 -0.48 -0.17 6.936zm-6.176 0.43l-1.02 0.089 0.14 -6.935 0.37 0 0.51 6.855 0 -0.009zm0.03 0.339l0.48 6.856 -1.699 0.14 0.14 -6.936 1.079 -0.06zm-1.219 -7.485l-0.34 0.03 0.43 -3.628 -0.09 3.598zm-0.68 0.03l-0.309 0.03 0.739 -3.568 -0.43 3.538zm-0.649 0.06l-0.34 0.03 1.079 -3.538 -0.739 3.508zm-0.68 0.05l-0.309 0.03 1.329 -3.428 -1.02 3.398zm-0.689 0.06l-0.28 0 1.589 -3.288 -1.299 3.288 -0.01 0zm-0.65 0.03l-0.28 0.03 1.639 -2.858 -1.359 2.828zm-0.17 0.34l-3.428 7.165 -0.939 0.06 4.077 -7.195 0.29 -0.03zm-4.787 7.255l-5.746 0.43 3.427 -7.166 6.407 -0.45 -4.078 7.196 -0.01 -0.01zm-2.548 -7.055l-6.456 0.45 2.748 -7.106 7.136 -0.48 -3.428 7.136zm-6.826 0.479l-6.485 0.48 2.128 -7.085 7.136 -0.51 -2.779 7.115zm-6.855 0.48l-6.486 0.48 1.449 -7.026 7.165 -0.509 -2.128 7.055zm-0.09 0.34l-2.129 7.055 -5.836 0.43 1.468 -6.995 6.497 -0.49zm-2.209 7.395l-2.129 7.056 -5.126 0.37 1.449 -6.996 5.806 -0.43zm-2.238 7.396l-2.099 7.085 -4.477 0.31 1.469 -7.026 5.107 -0.369zm-1.869 7.364l4.417 -0.309 -2.778 7.105 -3.737 0.28 2.098 -7.085 0 0.009zm1.529 7.136l-2.778 7.105 -3.088 0.23 2.128 -7.085 3.738 -0.26 0 0.01zm0.34 -0.03l3.707 -0.26 -3.397 7.135 -3.089 0.23 2.779 -7.105zm0.509 7.225l2.999 -0.23 -4.078 7.196 -2.348 0.17 3.427 -7.136zm3.408 -0.25l3.708 -0.26 -3.428 7.136 -4.337 0.309 4.047 -7.195 0.01 0.01zm0.51 7.196l4.417 -0.31 -2.778 7.105 -5.066 0.37 3.427 -7.165zm1.869 7.105l5.126 -0.37 -2.098 7.056 -5.777 0.43 2.749 -7.116zm3.258 6.996l5.836 -0.4 -1.469 6.996 -6.486 0.449 2.129 -7.055 -0.01 0.01zm4.307 6.945l-1.469 6.996 -7.166 0.509 2.129 -7.055 6.506 -0.45zm-1.189 7.306l7.135 -0.51 -2.778 7.106 -6.486 0.479 2.129 -7.085 0 0.01zm4.217 6.945l-2.748 7.106 -5.807 0.429 2.099 -7.085 6.456 -0.45zm-2.549 7.415l5.777 -0.43 -3.428 7.166 -5.097 0.37 2.748 -7.106zm2.578 7.056l5.047 -0.37 -4.077 7.196 -4.387 0.34 3.427 -7.166 -0.01 0zm1.19 7.135l2.318 -0.139 -3.427 7.135 -2.979 0.23 4.078 -7.225 0.01 -0.001zm2.718 -0.17l2.379 -0.17 -2.778 7.086 -3.028 0.23 3.427 -7.146zm2.718 -0.189l2.408 -0.17 -2.128 7.056 -3.028 0.23 2.748 -7.116zm2.748 -0.201l2.409 -0.17 -1.469 6.996 -3.058 0.23 2.129 -7.056 -0.011 0zm2.749 -0.199l2.408 -0.17 -0.82 6.965 -3.057 0.23 1.469 -7.025zm4.987 21.016l0.139 -6.915 3.798 -0.26 0.48 6.855 -4.417 0.31 0 0.01zm7.225 -0.509l-2.438 0.17 -0.48 -6.856 3.058 -0.23 -0.14 6.916zm0.17 -7.256l-3.118 0.23 -0.48 -6.885 3.738 -0.26 -0.14 6.915zm2.548 7.056l-2.408 0.17 0.17 -6.915 3.058 -0.23 -0.82 6.975zm2.748 -0.17l-2.408 0.17 0.82 -6.965 3.058 -0.23 -1.47 7.025zm2.749 -0.2l-2.409 0.17 1.469 -7.025 3.058 -0.23 -2.129 7.085 0.011 0zm2.748 -0.19l-2.408 0.17 2.128 -7.085 3.058 -0.2 -2.778 7.115zm2.748 -0.199l-2.408 0.17 2.778 -7.106 3.028 -0.23 -3.398 7.166zm2.689 -0.2l-2.319 0.17 3.428 -7.166 2.978 -0.2 -4.077 7.196 -0.01 0zm4.786 -0.34l-4.367 0.31 4.078 -7.196 3.707 -0.28 -3.428 7.166 0.01 0zm4.757 -0.34l-4.387 0.31 3.428 -7.136 3.737 -0.28 -2.778 7.106zm4.787 -0.34l-4.417 0.31 2.778 -7.106 3.768 -0.26 -2.129 7.056zm2.209 -7.395l-3.708 0.26 2.748 -7.106 3.089 -0.199 -2.129 7.055 0 -0.01zm5.556 -7.305l-1.469 7.025 -3.737 0.26 2.128 -7.056 3.078 -0.229zm-1.219 -7.166l-2.129 7.086 -3.028 0.199 2.778 -7.105 2.379 -0.17 0 -0.01zm0.17 -7.225l-2.778 7.105 -2.349 0.14 3.428 -7.135 1.699 -0.11zm0.509 -7.286l0.99 -0.09 -3.428 7.166 -1.619 0.11 4.048 -7.196 0.009 0.01zm-0.399 0.03l-4.078 7.196 -5.066 0.37 3.428 -7.166 5.726 -0.4 -0.01 0zm-5.946 0.09l-5.777 0.43 2.749 -7.106 6.455 -0.449 -3.427 7.135 0 -0.01zm3.597 -7.485l-6.486 0.45 2.779 -7.105 7.135 -0.51 -3.428 7.165zm3.518 -7.475l-7.165 0.509 0.789 -6.965 6.516 -0.48 -0.14 6.936zm0.31 -14.191l-0.14 6.935 -6.485 0.45 0.789 -6.965 5.836 -0.43 0 0.01zm-6.116 0.11l-5.777 0.43 1.449 -7.026 5.157 -0.369 -0.819 6.965 -0.01 0zm0.849 -7.276l-5.097 0.34 1.449 -6.995 4.477 -0.31 -0.819 6.965 -0.01 0zm1.669 -14.28l-0.819 6.965 -4.418 0.309 1.469 -6.995 3.768 -0.279zm-4.057 -0.03l-3.738 0.26 2.129 -7.056 3.088 -0.23 -1.468 7.026 -0.011 0zm0.599 -14.191l2.409 -0.17 -1.469 6.996 -3.058 0.23 2.128 -7.056 -0.01 0zm-0.339 0l-2.129 7.085 -3.028 0.2 2.778 -7.105 2.378 -0.17 0.001 -0.01zm-1.559 -7.115l1.699 -0.11 -2.749 7.105 -2.378 0.14 3.428 -7.135zm-2.009 0.15l1.639 -0.11 -3.428 7.135 -2.298 0.17 4.077 -7.195 0.01 0zm-0.43 0.02l-4.077 7.195 -4.388 0.31 3.428 -7.136 5.047 -0.369 -0.01 0zm-5.266 0.059l0.029 0 -5.126 0.37 2.778 -7.105 5.746 -0.43 -3.427 7.165zm7.025 -14.64l-3.428 7.135 -5.806 0.43 2.778 -7.105 6.456 -0.45 0 -0.01zm-3.907 -6.976l-2.778 7.106 -6.486 0.45 2.129 -7.056 7.135 -0.509 0 0.009zm-12.463 -6.346l6.516 -0.449 -1.468 6.995 -7.166 0.51 2.129 -7.056 -0.011 0zm-6.835 0.48l6.486 -0.45 -2.129 7.056 -7.135 0.509 2.778 -7.115zm-6.856 0.49l6.486 -0.45 -2.778 7.105 -7.106 0.51 3.398 -7.165zm-6.795 0.51l6.426 -0.48 -3.428 7.165 -7.085 0.51 4.077 -7.195 0.01 0zm-0.68 0.029l0.26 0 -1.619 2.858 1.359 -2.858zm-0.68 0.05l0.31 -0.03 -1.589 3.318 1.279 -3.288zm-0.649 0.06l0.31 -0.03 -1.359 3.428 1.049 -3.398zm-0.709 0.031l0.339 -0.03 -1.049 3.537 0.71 -3.507zm-0.65 0.049l0.34 -0.03 -0.769 3.598 0.429 -3.568zm-0.68 0.06l0.34 -0.03 -0.399 3.628 0.059 -3.598zm7.026 6.716l-0.17 6.936 -6.516 0.449 -0.48 -6.855 7.166 -0.54 0 0.01zm-7.285 3.827l0.259 3.598 -0.34 0.03 0.081 -3.628zm-0.05 -10.543l-0.09 3.658 -0.26 -3.628 0.35 -0.03zm-7.226 0.54l6.516 -0.48 0.509 6.886 -7.165 0.509 0.14 -6.915zm-0.2 7.255l7.106 -0.509 -4.078 7.195 -6.426 0.45 3.398 -7.136zm-6.625 -6.775l6.515 -0.48 -0.17 6.935 -7.165 0.51 0.82 -6.965zm-6.856 0.479l6.516 -0.45 -0.82 6.966 -7.135 0.509 1.449 -7.025 -0.01 0zm-6.825 0.48l6.515 -0.45 -1.469 6.996 -7.165 0.509 2.129 -7.055 -0.01 0zm-6.856 0.49l6.516 -0.45 -2.129 7.055 -7.136 0.51 2.749 -7.115zm-2.838 7.445l7.165 -0.51 -1.469 7.026 -6.516 0.45 0.82 -6.966zm-0.85 7.305l6.456 -0.48 -1.449 7.026 -5.836 0.43 0.829 -6.976zm-0.849 7.285l5.776 -0.399 -1.449 6.995 -5.157 0.37 0.82 -6.965 0.01 -0.001zm-1.669 14.281l0.82 -6.965 5.096 -0.37 -1.468 7.025 -4.448 0.31zm4.727 -0.03l4.417 -0.309 -2.128 7.085 -3.768 0.26 1.479 -7.036zm-2.998 14.361l1.449 -6.995 3.767 -0.28 -2.128 7.085 -3.089 0.2 0.001 -0.01zm3.597 6.995l-2.378 0.17 2.129 -7.055 3.028 -0.23 -2.779 7.115zm0.361 -0.03l2.777 -7.105 3.029 -0.2 -3.428 7.135 -2.378 0.17zm0.829 7.166l-1.639 0.14 3.428 -7.166 2.298 -0.17 -4.077 7.196 -0.01 0zm0.42 -0.02l4.077 -7.195 4.387 -0.31 -3.428 7.165 -5.036 0.34zm1.838 7.106l3.398 -7.136 5.127 -0.37 -2.778 7.106 -5.747 0.4zm5.987 -0.081l5.806 -0.429 -2.129 7.055 -6.456 0.48 2.779 -7.106zm-5.667 14.531l2.778 -7.106 6.486 -0.449 -2.129 7.055 -7.135 0.51 0 -0.01zm7.415 -0.2l7.135 -0.51 -2.098 7.056 -6.516 0.48 1.469 -7.026 0.01 0zm-2.998 14.361l1.449 -6.995 6.486 -0.48 -2.129 7.055 -5.806 0.43 0 -0.01zm3.938 6.966l2.128 -7.086 5.777 -0.4 -2.778 7.106 -5.127 0.37 0 0.01zm5.356 -0.05l5.097 -0.37 -3.427 7.135 -4.448 0.34 2.778 -7.105zm-1.929 14.271l-3.737 0.259 2.778 -7.105 4.387 -0.31 -3.428 7.166 0 -0.01zm0.4 -0.02l3.398 -7.166 4.367 -0.31 -4.077 7.226 -3.688 0.259 0 -0.009zm3.508 6.995l-3.687 0.26 4.077 -7.195 3.028 -0.23 -3.428 7.165 0.01 0zm4.107 -0.31l-3.737 0.28 3.428 -7.165 3.058 -0.231 -2.749 7.116zm4.078 -0.29l-3.738 0.26 2.778 -7.105 3.088 -0.2 -2.128 7.056 0 -0.011zm4.077 -0.279l-3.737 0.259 2.128 -7.055 3.089 -0.23 -1.469 7.025 -0.011 0.001zm0.34 -0.03l1.469 -7.026 3.088 -0.23 -0.82 6.966 -3.737 0.28 0 0.01zm4.057 0.03l-0.03 0 3.798 -0.26 -0.17 6.915 -4.418 0.31 0.82 -6.965z"/>
   </g>
  </g>
  <path fill="none" d="M69.622 5.532c-9.32,-0.113 -15.317,-0.1 -21.532,-0.475 -6.215,-0.375 -12.649,-1.137 -18.001,-2.044 -5.351,-0.908 -9.62,-1.96 -13.89,-3.013l-2.056 6.766c-2.101,6.05 -3.233,10.386 -4.916,16.285 -0.249,0.873 -0.435,1.453 -0.642,2.333 -2.36,10.025 -4.55,19.989 -6.162,30.214 -0.554,3.516 -0.787,7.435 -1.226,10.942l-0.435 5.757c-0.045,1.83 -0.234,3.899 -0.37,5.626 -0.078,0.987 0.009,2.192 -0.003,3.205 -0.013,1.158 -0.208,1.511 -0.203,2.794 0.009,2.038 0.069,4.202 0.011,6.226 -0.028,1.013 -0.181,1.575 -0.197,2.723l0.192 9.099c-0.03,8.303 0.172,15.985 0.183,24.267 0.002,1.267 0.207,1.666 0.202,2.996 -0.004,0.925 -0.065,2.104 0.005,3.001 0.131,1.645 0.218,4.048 0.519,5.469 1.056,4.985 5.703,6.849 10.073,7.859 3.312,0.766 6.714,1.111 10.138,1.576 4.01,0.545 19.376,0.399 23.493,-0.086 6.45,-0.761 15.507,-0.276 22.162,-1.971 7.272,-1.853 6.398,-2.822 7.435,-7.425 0.87,-3.869 2.219,-13.998 3.169,-16.919 0.807,-2.484 1.721,-7.868 2.195,-10.524 0.344,-1.99 1.133,-3.678 1.718,-5.612 1.344,-4.441 1.694,-7.626 2.92,-12.169 0.377,-1.398 0.722,-2.38 1.102,-3.854 0.997,-3.864 2.19,-8.249 2.968,-12.117 0.575,-2.856 1.095,-5.36 1.653,-8.289l2.191 -12.734c0.189,-0.998 0.23,-2.248 1.182,-2.596 0.952,0.348 0.993,1.598 1.182,2.596l2.191 12.734c0.558,2.929 1.077,5.433 1.652,8.289 0.779,3.868 1.972,8.253 2.968,12.117 0.38,1.474 0.725,2.456 1.103,3.854 1.226,4.543 1.576,7.728 2.919,12.169 0.585,1.934 1.375,3.622 1.719,5.612 0.473,2.654 1.389,8.042 2.195,10.524 0.949,2.921 2.299,13.05 3.169,16.919 1.037,4.603 0.163,5.572 7.434,7.425 6.656,1.695 15.712,1.21 22.163,1.971 4.117,0.485 19.483,0.631 23.492,0.086 3.425,-0.465 6.827,-0.81 10.138,-1.576 4.371,-1.01 9.018,-2.874 10.074,-7.859 0.301,-1.421 0.388,-3.824 0.519,-5.469 0.07,-0.897 0.009,-2.076 0.005,-3.001 -0.005,-1.33 0.2,-1.729 0.202,-2.996 0.011,-8.282 0.213,-15.964 0.183,-24.267l0.191 -8.764 -0.196 -3.058c-0.058,-2.024 0.002,-4.188 0.011,-6.226 0.004,-1.283 -0.19,-1.636 -0.204,-2.794 -0.011,-1.013 0.076,-2.218 -0.002,-3.205 -0.136,-1.727 -0.325,-3.796 -0.37,-5.626l-0.436 -5.757c-0.439,-3.507 -0.671,-7.426 -1.225,-10.942 -1.612,-10.225 -3.802,-20.189 -6.162,-30.214 -0.207,-0.88 -0.394,-1.46 -0.643,-2.333 -1.682,-5.899 -2.814,-10.235 -4.915,-16.285l-2.057 -6.766c-2.951,0.866 -5.902,1.731 -9.677,2.477 -3.774,0.745 -8.371,1.369 -13.806,1.869 -5.434,0.5 -11.706,0.875 -19.026,1.15 -7.321,0.274 -15.692,0.449 -26.199,0.418 -10.507,-0.031 -23.15,-0.269 -32.47,-0.382z"/>
 </g>
</svg>
