<?xml version="1.0" encoding="UTF-8"?>
<!DOCTYPE svg PUBLIC "-//W3C//DTD SVG 1.1//EN" "http://www.w3.org/Graphics/SVG/1.1/DTD/svg11.dtd">
<!-- Creator: CorelDRAW -->
<svg xmlns="http://www.w3.org/2000/svg" xml:space="preserve" width="240px" height="296px" version="1.1" shape-rendering="geometricPrecision" text-rendering="geometricPrecision" image-rendering="optimizeQuality" fill-rule="evenodd" clip-rule="evenodd"
viewBox="0 0 240 296.307"
 xmlns:xlink="http://www.w3.org/1999/xlink"
 xmlns:xodm="http://www.corel.com/coreldraw/odm/2003">
 <defs>
   <clipPath id="id0">
    <path d="M136.796 295.988c2.461,-0.097 4.626,-0.225 7.017,-0.355 2.39,-0.131 5.006,-0.265 8.261,-0.493 3.256,-0.228 7.151,-0.55 10.471,-0.852 3.319,-0.302 6.061,-0.583 8.794,-0.949 2.732,-0.365 5.455,-0.814 7.654,-1.25 2.2,-0.436 3.876,-0.858 6.001,-1.331 2.126,-0.473 4.701,-0.996 6.595,-1.321 1.894,-0.325 3.108,-0.453 4.268,-0.536 1.16,-0.084 2.267,-0.124 3.155,-0.117 0.889,0.008 1.559,0.063 1.956,0.094 0.396,0.031 0.518,0.038 0.611,0.043 0.049,0.002 0.09,0.004 0.127,0.006 0.093,-0.07 0.162,-0.18 0.177,-0.779 0.016,-0.673 -0.037,-1.966 -0.106,-2.786 -0.069,-0.819 -0.154,-1.166 -0.285,-1.855 -0.131,-0.689 -0.307,-1.72 -0.651,-2.686 -0.345,-0.965 -0.858,-1.866 -1.476,-3.045 -0.619,-1.179 -1.343,-2.638 -1.783,-3.616 -0.44,-0.978 -0.596,-1.476 -0.848,-2.693 -0.251,-1.217 -0.598,-3.153 -0.953,-5.871 -0.354,-2.718 -0.716,-6.219 -1.038,-8.884 -0.322,-2.666 -0.603,-4.496 -1.081,-7.559 -0.478,-3.062 -1.152,-7.357 -1.71,-11.521 -0.558,-4.164 -1.001,-8.198 -1.348,-12.226 -0.347,-4.028 -0.598,-8.051 -0.759,-11.637 -0.161,-3.586 -0.231,-6.734 -0.287,-9.787 -0.055,-3.052 -0.095,-6.01 -0.156,-9.258 -0.06,-3.249 -0.14,-6.79 -0.108,-12.037 0.033,-5.248 0.179,-12.203 0.352,-17.466 0.174,-5.263 0.375,-8.834 0.652,-12.807 0.276,-3.973 0.628,-8.348 0.975,-12.271 0.347,-3.922 0.689,-7.393 1.122,-11.743 0.432,-4.35 0.955,-9.58 1.483,-13.99 0.528,-4.411 1.061,-8.002 1.512,-10.619 0.45,-2.618 0.817,-4.262 1.139,-5.308 0.321,-1.046 0.598,-1.494 0.803,-1.766 0.205,-0.271 0.338,-0.367 0.405,-0.414 0.066,-0.048 0.066,-0.048 0.049,0.598 -0.018,0.646 -0.053,1.939 -0.108,3.533 -0.056,1.594 -0.131,3.49 -0.173,4.967 -0.041,1.478 -0.049,2.536 -0.079,3.186 -0.03,0.65 -0.083,0.892 -0.102,1.011 -0.018,0.119 -0.003,0.117 -0.041,0.151 -0.038,0.034 -0.128,0.104 -0.133,0.68 -0.005,0.576 0.075,1.657 0.192,3.051 0.117,1.395 0.27,3.102 0.322,4.786 0.051,1.683 0.001,3.343 0.002,4.231 0,0.887 0.052,1.003 0.132,1.078 0.08,0.076 0.188,0.111 1.001,0.06 0.814,-0.051 2.333,-0.188 4.105,-0.324 1.773,-0.137 3.8,-0.273 5.955,-0.431 2.155,-0.158 4.438,-0.339 6.588,-0.463 2.15,-0.123 4.166,-0.188 5.992,-0.299 1.826,-0.111 3.46,-0.267 5.336,-0.47 1.876,-0.204 3.993,-0.455 6.015,-0.682 2.021,-0.226 3.947,-0.427 5.109,-0.565 1.162,-0.139 1.559,-0.214 1.758,-0.327 0.199,-0.113 0.199,-0.264 0.229,-0.906 0.03,-0.641 0.09,-1.772 0.108,-3.132 0.017,-1.361 -0.008,-2.95 -0.023,-4.429 -0.015,-1.478 -0.02,-2.846 -0.038,-3.724 -0.017,-0.877 -0.047,-1.264 -0.071,-1.469 -0.025,-0.205 -0.043,-0.227 -0.083,-0.294 -0.04,-0.068 -0.103,-0.181 -0.174,-0.682 -0.071,-0.5 -0.152,-1.388 -0.255,-2.32 -0.103,-0.933 -0.229,-1.911 -0.348,-2.739 -0.12,-0.827 -0.233,-1.504 -0.413,-2.544 -0.179,-1.042 -0.426,-2.447 -0.613,-3.449 -0.187,-1.002 -0.316,-1.601 -0.436,-2.27 -0.121,-0.668 -0.234,-1.408 -0.366,-2.121 -0.132,-0.713 -0.283,-1.399 -0.425,-2.156 -0.142,-0.757 -0.275,-1.584 -0.375,-2.322 -0.099,-0.738 -0.165,-1.387 -0.239,-2.029 -0.074,-0.643 -0.157,-1.279 -0.257,-2.036 -0.101,-0.757 -0.219,-1.634 -0.34,-2.526 -0.121,-0.891 -0.244,-1.796 -0.353,-2.565 -0.11,-0.768 -0.205,-1.399 -0.373,-2.344 -0.168,-0.945 -0.408,-2.203 -0.82,-4.085 -0.412,-1.881 -0.995,-4.386 -1.704,-6.89 -0.709,-2.505 -1.544,-5.009 -2.651,-7.745 -1.106,-2.736 -2.484,-5.703 -4.093,-8.851 -1.61,-3.149 -3.45,-6.478 -4.878,-8.781 -1.429,-2.304 -2.444,-3.581 -3.453,-4.629 -1.008,-1.049 -2.009,-1.869 -3.015,-2.608 -1.006,-0.739 -2.017,-1.398 -2.582,-1.773 -0.566,-0.375 -0.687,-0.465 -0.756,-0.571 -0.069,-0.105 -0.087,-0.226 -0.095,-0.303 -0.009,-0.077 -0.009,-0.109 -0.07,-0.174 -0.06,-0.066 -0.181,-0.164 -1.307,-0.714 -1.127,-0.551 -3.259,-1.555 -5.31,-2.603 -2.05,-1.048 -4.019,-2.142 -5.77,-2.976 -1.752,-0.833 -3.286,-1.407 -5.061,-1.957 -1.775,-0.551 -3.792,-1.079 -5.429,-1.507 -1.637,-0.427 -2.894,-0.754 -3.762,-1.008 -0.867,-0.254 -1.345,-0.435 -2.044,-0.7 -0.699,-0.266 -1.619,-0.615 -2.606,-0.909 -0.987,-0.295 -2.041,-0.533 -2.716,-0.687 -0.675,-0.153 -0.972,-0.221 -1.44,-0.471 -0.467,-0.25 -1.106,-0.683 -1.581,-0.937 -0.475,-0.254 -0.787,-0.329 -1.073,-0.365 -0.285,-0.035 -0.544,-0.03 -0.777,-0.03 -0.232,0 -0.438,-0.005 -1.342,-0.33 -0.904,-0.326 -2.506,-0.972 -4.026,-1.577 -1.52,-0.605 -2.959,-1.168 -4.404,-1.748 -1.446,-0.579 -2.9,-1.175 -3.816,-1.569 -0.917,-0.393 -1.297,-0.584 -1.594,-0.779 -0.298,-0.194 -0.514,-0.392 -0.705,-0.497 -0.191,-0.105 -0.356,-0.116 -0.467,-0.117 -0.11,0 -0.164,0.01 -0.251,-0.004 -0.086,-0.014 -0.204,-0.052 -0.587,-0.292 -0.382,-0.24 -1.028,-0.682 -1.678,-1.193 -0.65,-0.51 -1.304,-1.089 -1.956,-1.661 -0.653,-0.572 -1.304,-1.138 -2.311,-1.569 -1.007,-0.431 -2.37,-0.728 -3.723,-0.919 -1.353,-0.191 -2.695,-0.276 -4.576,-0.354 -1.881,-0.078 -4.3,-0.149 -7.931,-0.131 -3.631,0.017 -8.474,0.123 -12.914,0.219 -4.439,0.096 -8.475,0.183 -10.597,0.231 -2.123,0.048 -2.332,0.058 -4.152,0.203 -1.82,0.145 -5.249,0.427 -7.404,0.671 -2.155,0.244 -3.035,0.45 -3.752,0.707 -0.717,0.256 -1.27,0.563 -1.886,1.078 -0.616,0.516 -1.295,1.24 -2.019,1.877 -0.725,0.638 -1.494,1.189 -1.953,1.46 -0.459,0.272 -0.607,0.264 -0.901,0.366 -0.295,0.102 -0.735,0.313 -1.268,0.582 -0.533,0.269 -1.159,0.596 -1.919,0.922 -0.761,0.325 -1.656,0.65 -2.301,0.904 -0.645,0.254 -1.04,0.437 -1.514,0.628 -0.474,0.192 -1.027,0.39 -1.765,0.621 -0.738,0.232 -1.661,0.496 -2.558,0.836 -0.896,0.341 -1.766,0.759 -2.573,1.076 -0.808,0.316 -1.552,0.533 -2.299,0.749 -0.746,0.216 -1.496,0.432 -2.053,0.655 -0.557,0.222 -0.921,0.451 -1.207,0.636 -0.285,0.185 -0.491,0.326 -0.999,0.476 -0.508,0.15 -1.318,0.31 -1.914,0.463 -0.596,0.154 -0.978,0.301 -1.488,0.492 -0.51,0.192 -1.147,0.429 -1.75,0.617 -0.603,0.189 -1.171,0.329 -1.687,0.459 -0.516,0.13 -0.98,0.248 -1.7,0.426 -0.719,0.179 -1.693,0.418 -2.551,0.633 -0.857,0.216 -1.598,0.408 -2.171,0.57 -0.573,0.161 -0.979,0.292 -1.436,0.426 -0.456,0.134 -0.963,0.271 -1.427,0.4 -0.465,0.129 -0.887,0.249 -1.312,0.377 -0.424,0.128 -0.85,0.262 -1.203,0.399 -0.353,0.137 -0.632,0.277 -1.012,0.437 -0.38,0.159 -0.862,0.339 -1.279,0.53 -0.417,0.191 -0.769,0.394 -1.165,0.602 -0.397,0.209 -0.838,0.424 -1.221,0.617 -0.382,0.194 -0.705,0.366 -1.126,0.589 -0.421,0.223 -0.941,0.495 -1.657,0.865 -0.717,0.371 -1.631,0.838 -2.694,1.37 -1.063,0.532 -2.275,1.128 -3.18,1.576 -0.905,0.448 -1.504,0.747 -2.037,1.087 -0.533,0.341 -1.001,0.723 -1.443,1.08 -0.443,0.358 -0.86,0.689 -1.353,1.079 -0.493,0.39 -1.061,0.837 -1.779,1.475 -0.718,0.637 -1.586,1.465 -2.375,2.331 -0.79,0.866 -1.501,1.771 -2.145,2.665 -0.644,0.894 -1.22,1.777 -1.924,2.935 -0.704,1.158 -1.536,2.591 -2.208,3.821 -0.671,1.229 -1.181,2.255 -1.732,3.264 -0.551,1.008 -1.141,1.999 -1.644,2.942 -0.503,0.943 -0.918,1.838 -1.313,2.759 -0.395,0.922 -0.77,1.87 -1.152,2.756 -0.382,0.887 -0.772,1.712 -1.285,3.043 -0.513,1.331 -1.149,3.17 -1.716,4.911 -0.567,1.741 -1.065,3.386 -1.49,4.836 -0.425,1.451 -0.777,2.709 -1.129,4.225 -0.352,1.516 -0.704,3.291 -1.144,5.668 -0.44,2.376 -0.968,5.353 -1.29,7.073 -0.322,1.72 -0.438,2.183 -0.543,2.673 -0.106,0.491 -0.201,1.009 -0.4,1.833 -0.198,0.825 -0.5,1.957 -0.807,3.143 -0.307,1.187 -0.618,2.43 -0.84,3.478 -0.221,1.049 -0.352,1.904 -0.575,3.166 -0.224,1.262 -0.541,2.932 -0.787,4.297 -0.247,1.366 -0.423,2.427 -0.529,2.975 -0.105,0.548 -0.14,0.583 -0.204,0.634 -0.063,0.05 -0.155,0.115 -0.251,2.246 -0.096,2.13 -0.197,6.326 -0.275,8.622 -0.078,2.297 -0.133,2.694 0.035,2.902 0.169,0.209 0.561,0.229 1.419,0.337 0.857,0.108 2.18,0.305 4.51,0.755 2.332,0.45 5.671,1.154 8.339,1.667 2.668,0.513 4.664,0.835 6.751,1.182 2.088,0.347 4.265,0.719 7.24,1.192 2.975,0.472 6.746,1.046 9.15,1.373 2.404,0.327 3.44,0.407 3.958,0.447 0.518,0.041 0.518,0.041 0.568,-0.543 0.049,-0.583 0.149,-1.75 0.263,-2.759 0.114,-1.009 0.242,-1.86 0.394,-2.937 0.152,-1.077 0.328,-2.379 0.498,-3.576 0.17,-1.197 0.333,-2.289 0.417,-2.902 0.085,-0.614 0.089,-0.749 0.076,-0.865 -0.014,-0.116 -0.047,-0.211 -0.023,-1.818 0.024,-1.607 0.104,-4.725 0.147,-7.257 0.043,-2.532 0.048,-4.478 0.059,-5.601 0.011,-1.123 0.029,-1.422 0.067,-1.618 0.038,-0.197 0.095,-0.29 0.176,-0.338 0.08,-0.05 0.184,-0.055 0.308,0.038 0.124,0.094 0.27,0.285 0.345,0.376 0.074,0.092 0.076,0.085 0.078,0.081 0.001,-0.004 0.001,-0.004 0.115,0.253 0.114,0.256 0.343,0.769 0.597,1.463 0.254,0.694 0.533,1.569 0.762,2.507 0.229,0.938 0.408,1.939 0.607,3.547 0.2,1.608 0.422,3.823 0.739,6.228 0.316,2.406 0.729,5.001 1.468,11.393 0.739,6.392 1.805,16.58 2.64,24.511 0.835,7.931 1.439,13.604 1.811,19.699 0.372,6.095 0.513,12.613 0.503,19.654 -0.01,7.04 -0.171,14.604 -0.372,20.609 -0.202,6.004 -0.443,10.45 -0.725,14.423 -0.281,3.973 -0.603,7.473 -1.448,14.162 -0.845,6.688 -2.213,16.566 -3.007,23.777 -0.795,7.212 -1.016,11.758 -1.217,15.269 -0.202,3.51 -0.383,5.984 -0.674,8.122 -0.292,2.137 -0.694,3.937 -0.973,5.315 -0.279,1.378 -0.436,2.334 -0.453,2.935 -0.018,0.601 0.103,0.847 0.249,0.975 0.146,0.129 0.317,0.138 0.5,0.175 0.184,0.036 0.38,0.099 0.469,0.155 0.019,0.011 0.032,0.022 0.042,0.037 0.876,0.322 1.753,0.645 3.155,0.925 1.401,0.28 3.329,0.518 6.493,0.754 3.163,0.237 7.562,0.472 11.099,0.609 3.537,0.138 6.212,0.178 9.592,0.181 3.38,0.003 7.463,-0.03 11.329,-0.007 3.866,0.024 7.513,0.104 10.591,0.191 3.078,0.088 5.586,0.181 7.916,0.252 2.33,0.07 4.483,0.117 6.789,0.171 2.307,0.053 4.768,0.114 7.356,0.121 2.589,0.006 5.304,-0.041 8.04,-0.098 2.736,-0.057 5.492,-0.124 7.953,-0.221z"/>
   </clipPath>
    <clipPath id="id1">
     <path d="M197.737 96.303c0.032,-0.569 0.064,-1.138 -0.075,-1.761 -0.138,-0.623 -0.446,-1.3 -0.601,-1.639 -0.154,-0.338 -0.154,-0.338 -0.16,-0.59 -0.007,-0.251 -0.021,-0.754 0.221,-1.78 0.241,-1.026 0.737,-2.575 1.398,-4.644 0.66,-2.068 1.485,-4.656 2.313,-7.962 0.828,-3.306 1.66,-7.329 2.444,-13.19 0.785,-5.86 1.522,-13.558 2.347,-18.902 0.825,-5.345 1.737,-8.335 2.716,-11.172 0.793,-2.296 1.629,-4.491 2.474,-6.668l-0.007 -0.017 0 -0.001 -0.002 -0.007 -0.002 -0.005 -0.002 -0.005 -0.004 -0.013 -0.004 -0.013 -0.002 -0.006 -0.011 -0.048 -0.001 -0.002 -0.006 -0.032 -0.001 -0.008 0 -0.004 -0.001 -0.006 -0.001 -0.005 -0.001 -0.004 -0.001 -0.007 0 -0.005 -0.001 -0.007 -0.001 -0.004 -0.001 -0.009 0 -0.006c-0.009,-0.077 -0.009,-0.109 -0.07,-0.174 -0.06,-0.066 -0.181,-0.164 -1.307,-0.714 -1.127,-0.551 -3.259,-1.555 -5.31,-2.603 -2.05,-1.048 -4.019,-2.142 -5.77,-2.976 -1.752,-0.833 -3.286,-1.407 -5.061,-1.957 -1.775,-0.551 -3.792,-1.079 -5.429,-1.507 -1.637,-0.427 -2.894,-0.754 -3.762,-1.008 -0.867,-0.254 -1.345,-0.435 -2.044,-0.7 -0.699,-0.266 -1.619,-0.615 -2.606,-0.909 -0.987,-0.295 -2.041,-0.533 -2.716,-0.687 -0.675,-0.153 -0.972,-0.221 -1.44,-0.471 -0.467,-0.25 -1.106,-0.683 -1.581,-0.937 -0.475,-0.254 -0.787,-0.329 -1.073,-0.365 -0.285,-0.035 -0.544,-0.03 -0.777,-0.03 -0.232,0 -0.438,-0.005 -1.342,-0.33 -0.904,-0.326 -2.506,-0.972 -4.026,-1.577 -1.52,-0.605 -2.959,-1.168 -4.404,-1.748 -1.446,-0.579 -2.9,-1.175 -3.816,-1.569 -0.917,-0.393 -1.297,-0.584 -1.594,-0.779 -0.298,-0.194 -0.514,-0.392 -0.705,-0.497 -0.191,-0.105 -0.356,-0.116 -0.467,-0.117l-0.028 0 -0.006 0.001 -0.013 0 -0.005 0 -0.008 0 -0.005 0 -0.004 0 -0.004 0 -0.005 0 -0.007 0.001 -0.001 0 -0.007 0 -0.004 0 -0.001 0 -0.003 0 -0.004 0 -0.007 0.001 -0.004 0 -0.004 0 -0.006 0 -0.008 0 -0.008 0 -0.022 0 -0.009 0 -0.006 0 -0.001 0 -0.002 0 -0.004 0 -0.001 0 -0.007 -0.001 -0.001 0 -0.019 -0.001 -0.003 0 -0.012 -0.002 -0.008 -0.001 -0.014 -0.002c-0.086,-0.014 -0.204,-0.052 -0.587,-0.292 -0.382,-0.24 -1.028,-0.682 -1.678,-1.193 -0.65,-0.51 -1.304,-1.089 -1.956,-1.661 -0.653,-0.572 -1.304,-1.138 -2.311,-1.569 -1.007,-0.431 -2.37,-0.728 -3.723,-0.919 -1.353,-0.191 -2.695,-0.276 -4.576,-0.354 -1.881,-0.078 -4.3,-0.149 -7.931,-0.131 -3.631,0.017 -8.474,0.123 -12.914,0.219 -4.439,0.096 -8.475,0.183 -10.597,0.231 -2.123,0.048 -2.332,0.058 -4.152,0.203 -1.82,0.145 -5.249,0.427 -7.404,0.671 -2.155,0.244 -3.035,0.45 -3.752,0.707 -0.717,0.256 -1.27,0.563 -1.886,1.078 -0.616,0.516 -1.295,1.24 -2.019,1.877 -0.725,0.638 -1.494,1.189 -1.953,1.46l-0.056 0.033 -0.011 0.006 -0.02 0.011 -0.005 0.003 -0.013 0.008 -0.002 0.001 -0.008 0.004 0 0 -0.024 0.014 -0.003 0.001 -0.031 0.016 -0.002 0.002 -0.006 0.002 -0.001 0.002 -0.008 0.003 -0.021 0.011 -0.004 0.002 -0.005 0.003 -0.002 0.001 -0.006 0.003 -0.007 0.004 -0.003 0.001 -0.005 0.002 -0.001 0.001 -0.026 0.013 -0.051 0.024 -0.01 0.004 -0.041 0.018 -0.011 0.005 -0.02 0.008 -0.01 0.004 -0.034 0.013 -0.002 0.001 -0.025 0.009 -0.02 0.007 -0.031 0.011 -0.022 0.007 -0.018 0.006 -0.022 0.007 -0.015 0.004 -0.01 0.003 -0.039 0.012 -0.006 0.002 -0.051 0.014 -0.013 0.004 -0.006 0.002 -0.014 0.004 -0.065 0.019 -0.01 0.003 -0.033 0.011 -0.001 0 -0.022 0.007 -0.029 0.01c-0.295,0.102 -0.735,0.313 -1.268,0.582 -0.533,0.269 -1.159,0.596 -1.919,0.922 -0.761,0.325 -1.656,0.65 -2.301,0.904 -0.645,0.254 -1.04,0.437 -1.514,0.628 -0.474,0.192 -1.027,0.39 -1.765,0.621 -0.738,0.232 -1.661,0.496 -2.558,0.836 -0.896,0.341 -1.766,0.759 -2.573,1.076 -0.808,0.316 -1.552,0.533 -2.299,0.749 -0.746,0.216 -1.496,0.432 -2.053,0.655 -0.557,0.222 -0.921,0.451 -1.207,0.636 -0.285,0.185 -0.491,0.326 -0.999,0.476 -0.508,0.15 -1.318,0.31 -1.914,0.463 -0.596,0.154 -0.978,0.301 -1.488,0.492 -0.51,0.192 -1.147,0.429 -1.75,0.617 -0.603,0.189 -1.171,0.329 -1.687,0.459 -0.516,0.13 -0.98,0.248 -1.7,0.426 -0.719,0.179 -1.693,0.418 -2.551,0.633 -0.857,0.216 -1.598,0.408 -2.171,0.57 -0.573,0.161 -0.979,0.292 -1.436,0.426 -0.456,0.134 -0.963,0.271 -1.427,0.4 -0.465,0.129 -0.887,0.249 -1.312,0.377 -0.424,0.128 -0.85,0.262 -1.203,0.399 -0.353,0.137 -0.632,0.277 -1.012,0.437 -0.38,0.159 -0.862,0.339 -1.279,0.53 -0.417,0.191 -0.769,0.394 -1.165,0.602 -0.397,0.209 -0.838,0.424 -1.221,0.617 -0.382,0.194 -0.705,0.366 -1.126,0.589 -0.421,0.223 -0.941,0.495 -1.657,0.865 -0.717,0.371 -1.631,0.838 -2.694,1.37 -1.063,0.532 -2.275,1.128 -3.18,1.576 -0.905,0.448 -1.504,0.747 -2.037,1.087 -0.533,0.341 -1.001,0.723 -1.443,1.08l-0.01 0.008 -0.008 0.007 -0.023 0.019 -0.005 0.003 -0.009 0.007 -0.017 0.014 -0.007 0.006 -0.01 0.008 -0.034 0.027 -0.004 0.003 -0.009 0.007 -0.006 0.006 -0.012 0.01 -0.002 0.001 -0.022 0.017c0.046,0.197 0.1,0.412 0.167,0.649 0.328,1.174 0.946,2.898 1.737,5.811 0.792,2.914 1.757,7.018 2.522,10.974 0.764,3.956 1.327,7.765 1.971,12.15 0.644,4.386 1.368,9.348 2.24,13.927 0.872,4.58 1.891,8.778 2.843,12.104 0.952,3.326 1.837,5.78 2.266,7.426 0.429,1.646 0.402,2.484 0.362,3.011 -0.04,0.526 -0.094,0.741 -0.225,1.071 -0.132,0.331 -0.341,0.778 -0.551,1.225 0.08,-0.05 0.184,-0.055 0.308,0.038 0.124,0.094 0.27,0.285 0.345,0.376 0.074,0.092 0.076,0.085 0.078,0.081 0.001,-0.004 0.001,-0.004 0.115,0.253 0.114,0.256 0.343,0.769 0.597,1.463 0.254,0.694 0.533,1.569 0.762,2.507 0.229,0.938 0.408,1.939 0.607,3.547 0.2,1.608 0.422,3.823 0.739,6.228 0.316,2.406 0.729,5.001 1.468,11.393 0.739,6.392 1.805,16.58 2.64,24.511 0.835,7.931 1.439,13.604 1.811,19.699 0.372,6.095 0.513,12.613 0.503,19.654 -0.01,7.04 -0.171,14.604 -0.372,20.609 -0.202,6.004 -0.443,10.45 -0.725,14.423 -0.281,3.973 -0.603,7.473 -1.448,14.162 -0.845,6.688 -2.213,16.566 -3.007,23.777 -0.795,7.212 -1.016,11.758 -1.217,15.269 -0.202,3.51 -0.383,5.984 -0.674,8.122 -0.292,2.137 -0.694,3.937 -0.973,5.315 -0.279,1.378 -0.436,2.334 -0.453,2.935 -0.018,0.601 0.103,0.847 0.249,0.975 0.146,0.129 0.317,0.138 0.5,0.175 0.184,0.036 0.38,0.099 0.469,0.155 0.019,0.011 0.032,0.022 0.042,0.037 0.876,0.322 1.753,0.645 3.155,0.925 1.401,0.28 3.329,0.518 6.493,0.754 3.163,0.237 7.562,0.472 11.099,0.609 3.537,0.138 6.212,0.178 9.592,0.181 3.38,0.003 7.463,-0.03 11.329,-0.007 3.866,0.024 7.513,0.104 10.591,0.191 3.078,0.088 5.586,0.181 7.916,0.252 2.33,0.07 4.483,0.117 6.789,0.171 2.307,0.053 4.768,0.114 7.356,0.121 2.589,0.006 5.304,-0.041 8.04,-0.098 2.736,-0.057 5.492,-0.124 7.953,-0.221 2.461,-0.097 4.626,-0.225 7.017,-0.355 2.39,-0.131 5.006,-0.265 8.261,-0.493 3.256,-0.228 7.151,-0.55 10.471,-0.852 3.319,-0.302 6.061,-0.583 8.794,-0.949 2.732,-0.365 5.455,-0.814 7.654,-1.25 2.2,-0.436 3.876,-0.858 6.001,-1.331 2.126,-0.473 4.701,-0.996 6.595,-1.321 1.894,-0.325 3.108,-0.453 4.268,-0.536 1.16,-0.084 2.267,-0.124 3.155,-0.117 0.889,0.008 1.559,0.063 1.956,0.094 0.396,0.031 0.518,0.038 0.611,0.043 0.049,0.002 0.09,0.004 0.127,0.006 0.093,-0.07 0.162,-0.18 0.177,-0.779 0.016,-0.673 -0.037,-1.966 -0.106,-2.786 -0.069,-0.819 -0.154,-1.166 -0.285,-1.855 -0.131,-0.689 -0.307,-1.72 -0.651,-2.686 -0.345,-0.965 -0.858,-1.866 -1.476,-3.045 -0.619,-1.179 -1.343,-2.638 -1.783,-3.616 -0.44,-0.978 -0.596,-1.476 -0.848,-2.693 -0.251,-1.217 -0.598,-3.153 -0.953,-5.871 -0.354,-2.718 -0.716,-6.219 -1.038,-8.884 -0.322,-2.666 -0.603,-4.496 -1.081,-7.559 -0.478,-3.062 -1.152,-7.357 -1.71,-11.521 -0.558,-4.164 -1.001,-8.198 -1.348,-12.226 -0.347,-4.028 -0.598,-8.051 -0.759,-11.637 -0.161,-3.586 -0.231,-6.734 -0.287,-9.787 -0.055,-3.052 -0.095,-6.01 -0.156,-9.258 -0.06,-3.249 -0.14,-6.79 -0.108,-12.037 0.033,-5.248 0.179,-12.203 0.352,-17.466 0.174,-5.263 0.375,-8.834 0.652,-12.807 0.276,-3.973 0.628,-8.348 0.975,-12.271 0.347,-3.922 0.689,-7.393 1.122,-11.743 0.432,-4.35 0.955,-9.58 1.483,-13.99 0.528,-4.411 1.061,-8.002 1.512,-10.619 0.45,-2.618 0.817,-4.262 1.139,-5.308 0.321,-1.046 0.598,-1.494 0.803,-1.766 0.205,-0.271 0.338,-0.367 0.405,-0.414z"/>
    </clipPath>
    <clipPath id="id2">
     <path d="M136.796 295.988c2.461,-0.097 4.626,-0.225 7.017,-0.355 2.39,-0.131 5.006,-0.265 8.261,-0.493 3.256,-0.228 7.151,-0.55 10.471,-0.852 3.319,-0.302 6.061,-0.583 8.794,-0.949 2.732,-0.365 5.455,-0.814 7.654,-1.25 2.2,-0.436 3.876,-0.858 6.001,-1.331 2.126,-0.473 4.701,-0.996 6.595,-1.321 1.894,-0.325 3.108,-0.453 4.268,-0.536 1.16,-0.084 2.267,-0.124 3.155,-0.117 0.889,0.008 1.559,0.063 1.956,0.094 0.396,0.031 0.518,0.038 0.611,0.043 0.049,0.002 0.09,0.004 0.127,0.006 0.093,-0.07 0.162,-0.18 0.177,-0.779 0.016,-0.673 -0.037,-1.966 -0.106,-2.786 -0.069,-0.819 -0.154,-1.166 -0.285,-1.855 -0.131,-0.689 -0.307,-1.72 -0.651,-2.686 -0.345,-0.965 -0.858,-1.866 -1.476,-3.045 -0.619,-1.179 -1.343,-2.638 -1.783,-3.616 -0.44,-0.978 -0.596,-1.476 -0.848,-2.693 -0.251,-1.217 -0.598,-3.153 -0.953,-5.871 -0.354,-2.718 -0.716,-6.219 -1.038,-8.884 -0.322,-2.666 -0.603,-4.496 -1.081,-7.559 -0.478,-3.062 -1.152,-7.357 -1.71,-11.521 -0.558,-4.164 -1.001,-8.198 -1.348,-12.226 -0.347,-4.028 -0.598,-8.051 -0.759,-11.637 -0.161,-3.586 -0.231,-6.734 -0.287,-9.787 -0.055,-3.052 -0.095,-6.01 -0.156,-9.258 -0.06,-3.249 -0.14,-6.79 -0.108,-12.037 0.033,-5.248 0.179,-12.203 0.352,-17.466 0.174,-5.263 0.375,-8.834 0.652,-12.807 0.276,-3.973 0.628,-8.348 0.975,-12.271 0.347,-3.922 0.689,-7.393 1.122,-11.743 0.432,-4.35 0.955,-9.58 1.483,-13.99 0.528,-4.411 1.061,-8.002 1.512,-10.619 0.45,-2.618 0.817,-4.262 1.139,-5.308 0.321,-1.046 0.598,-1.494 0.803,-1.766 0.205,-0.271 0.338,-0.367 0.405,-0.414 0.066,-0.048 0.066,-0.048 0.049,0.598 -0.018,0.646 -0.053,1.939 -0.108,3.533 -0.056,1.594 -0.131,3.49 -0.173,4.967 -0.041,1.478 -0.049,2.536 -0.079,3.186 -0.03,0.65 -0.083,0.892 -0.102,1.011 -0.018,0.119 -0.003,0.117 -0.041,0.151 -0.038,0.034 -0.128,0.104 -0.133,0.68 -0.005,0.576 0.075,1.657 0.192,3.051 0.117,1.395 0.27,3.102 0.322,4.786 0.051,1.683 0.001,3.343 0.002,4.231 0,0.887 0.052,1.003 0.132,1.078 0.08,0.076 0.188,0.111 1.001,0.06 0.814,-0.051 2.333,-0.188 4.105,-0.324 1.773,-0.137 3.8,-0.273 5.955,-0.431 2.155,-0.158 4.438,-0.339 6.588,-0.463 2.15,-0.123 4.166,-0.188 5.992,-0.299 1.826,-0.111 3.46,-0.267 5.336,-0.47 1.876,-0.204 3.993,-0.455 6.015,-0.682 2.021,-0.226 3.947,-0.427 5.109,-0.565 1.162,-0.139 1.559,-0.214 1.758,-0.327 0.199,-0.113 0.199,-0.264 0.229,-0.906 0.03,-0.641 0.09,-1.772 0.108,-3.132 0.017,-1.361 -0.008,-2.95 -0.023,-4.429 -0.015,-1.478 -0.02,-2.846 -0.038,-3.724 -0.017,-0.877 -0.047,-1.264 -0.071,-1.469 -0.025,-0.205 -0.043,-0.227 -0.083,-0.294 -0.04,-0.068 -0.103,-0.181 -0.174,-0.682 -0.071,-0.5 -0.152,-1.388 -0.255,-2.32 -0.103,-0.933 -0.229,-1.911 -0.348,-2.739 -0.12,-0.827 -0.233,-1.504 -0.413,-2.544 -0.179,-1.042 -0.426,-2.447 -0.613,-3.449 -0.187,-1.002 -0.316,-1.601 -0.436,-2.27 -0.121,-0.668 -0.234,-1.408 -0.366,-2.121 -0.132,-0.713 -0.283,-1.399 -0.425,-2.156 -0.142,-0.757 -0.275,-1.584 -0.375,-2.322 -0.099,-0.738 -0.165,-1.387 -0.239,-2.029 -0.074,-0.643 -0.157,-1.279 -0.257,-2.036 -0.101,-0.757 -0.219,-1.634 -0.34,-2.526 -0.121,-0.891 -0.244,-1.796 -0.353,-2.565 -0.11,-0.768 -0.205,-1.399 -0.373,-2.344 -0.168,-0.945 -0.408,-2.203 -0.82,-4.085 -0.412,-1.881 -0.995,-4.386 -1.704,-6.89 -0.709,-2.505 -1.544,-5.009 -2.651,-7.745 -1.106,-2.736 -2.484,-5.703 -4.093,-8.851 -1.61,-3.149 -3.45,-6.478 -4.878,-8.781 -1.429,-2.304 -2.444,-3.581 -3.453,-4.629 -1.008,-1.049 -2.009,-1.869 -3.015,-2.608 -1.006,-0.739 -2.017,-1.398 -2.582,-1.773 -0.566,-0.375 -0.687,-0.465 -0.756,-0.571 -0.069,-0.105 -0.087,-0.226 -0.095,-0.303 -0.009,-0.077 -0.009,-0.109 -0.07,-0.174 -0.06,-0.066 -0.181,-0.164 -1.307,-0.714 -1.127,-0.551 -3.259,-1.555 -5.31,-2.603 -2.05,-1.048 -4.019,-2.142 -5.77,-2.976 -1.752,-0.833 -3.286,-1.407 -5.061,-1.957 -1.775,-0.551 -3.792,-1.079 -5.429,-1.507 -1.637,-0.427 -2.894,-0.754 -3.762,-1.008 -0.867,-0.254 -1.345,-0.435 -2.044,-0.7 -0.699,-0.266 -1.619,-0.615 -2.606,-0.909 -0.987,-0.295 -2.041,-0.533 -2.716,-0.687 -0.675,-0.153 -0.972,-0.221 -1.44,-0.471 -0.467,-0.25 -1.106,-0.683 -1.581,-0.937 -0.475,-0.254 -0.787,-0.329 -1.073,-0.365 -0.285,-0.035 -0.544,-0.03 -0.777,-0.03 -0.232,0 -0.438,-0.005 -1.342,-0.33 -0.904,-0.326 -2.506,-0.972 -4.026,-1.577 -1.52,-0.605 -2.959,-1.168 -4.404,-1.748 -1.446,-0.579 -2.9,-1.175 -3.816,-1.569 -0.917,-0.393 -1.297,-0.584 -1.594,-0.779 -0.298,-0.194 -0.514,-0.392 -0.705,-0.497 -0.191,-0.105 -0.356,-0.116 -0.467,-0.117 -0.11,0 -0.164,0.01 -0.251,-0.004 -0.086,-0.014 -0.204,-0.052 -0.587,-0.292 -0.382,-0.24 -1.028,-0.682 -1.678,-1.193 -0.65,-0.51 -1.304,-1.089 -1.956,-1.661 -0.653,-0.572 -1.304,-1.138 -2.311,-1.569 -1.007,-0.431 -2.37,-0.728 -3.723,-0.919 -1.353,-0.191 -2.695,-0.276 -4.576,-0.354 -1.881,-0.078 -4.3,-0.149 -7.931,-0.131 -3.631,0.017 -8.474,0.123 -12.914,0.219 -4.439,0.096 -8.475,0.183 -10.597,0.231 -2.123,0.048 -2.332,0.058 -4.152,0.203 -1.82,0.145 -5.249,0.427 -7.404,0.671 -2.155,0.244 -3.035,0.45 -3.752,0.707 -0.717,0.256 -1.27,0.563 -1.886,1.078 -0.616,0.516 -1.295,1.24 -2.019,1.877 -0.725,0.638 -1.494,1.189 -1.953,1.46 -0.459,0.272 -0.607,0.264 -0.901,0.366 -0.295,0.102 -0.735,0.313 -1.268,0.582 -0.533,0.269 -1.159,0.596 -1.919,0.922 -0.761,0.325 -1.656,0.65 -2.301,0.904 -0.645,0.254 -1.04,0.437 -1.514,0.628 -0.474,0.192 -1.027,0.39 -1.765,0.621 -0.738,0.232 -1.661,0.496 -2.558,0.836 -0.896,0.341 -1.766,0.759 -2.573,1.076 -0.808,0.316 -1.552,0.533 -2.299,0.749 -0.746,0.216 -1.496,0.432 -2.053,0.655 -0.557,0.222 -0.921,0.451 -1.207,0.636 -0.285,0.185 -0.491,0.326 -0.999,0.476 -0.508,0.15 -1.318,0.31 -1.914,0.463 -0.596,0.154 -0.978,0.301 -1.488,0.492 -0.51,0.192 -1.147,0.429 -1.75,0.617 -0.603,0.189 -1.171,0.329 -1.687,0.459 -0.516,0.13 -0.98,0.248 -1.7,0.426 -0.719,0.179 -1.693,0.418 -2.551,0.633 -0.857,0.216 -1.598,0.408 -2.171,0.57 -0.573,0.161 -0.979,0.292 -1.436,0.426 -0.456,0.134 -0.963,0.271 -1.427,0.4 -0.465,0.129 -0.887,0.249 -1.312,0.377 -0.424,0.128 -0.85,0.262 -1.203,0.399 -0.353,0.137 -0.632,0.277 -1.012,0.437 -0.38,0.159 -0.862,0.339 -1.279,0.53 -0.417,0.191 -0.769,0.394 -1.165,0.602 -0.397,0.209 -0.838,0.424 -1.221,0.617 -0.382,0.194 -0.705,0.366 -1.126,0.589 -0.421,0.223 -0.941,0.495 -1.657,0.865 -0.717,0.371 -1.631,0.838 -2.694,1.37 -1.063,0.532 -2.275,1.128 -3.18,1.576 -0.905,0.448 -1.504,0.747 -2.037,1.087 -0.533,0.341 -1.001,0.723 -1.443,1.08 -0.443,0.358 -0.86,0.689 -1.353,1.079 -0.493,0.39 -1.061,0.837 -1.779,1.475 -0.718,0.637 -1.586,1.465 -2.375,2.331 -0.79,0.866 -1.501,1.771 -2.145,2.665 -0.644,0.894 -1.22,1.777 -1.924,2.935 -0.704,1.158 -1.536,2.591 -2.208,3.821 -0.671,1.229 -1.181,2.255 -1.732,3.264 -0.551,1.008 -1.141,1.999 -1.644,2.942 -0.503,0.943 -0.918,1.838 -1.313,2.759 -0.395,0.922 -0.77,1.87 -1.152,2.756 -0.382,0.887 -0.772,1.712 -1.285,3.043 -0.513,1.331 -1.149,3.17 -1.716,4.911 -0.567,1.741 -1.065,3.386 -1.49,4.836 -0.425,1.451 -0.777,2.709 -1.129,4.225 -0.352,1.516 -0.704,3.291 -1.144,5.668 -0.44,2.376 -0.968,5.353 -1.29,7.073 -0.322,1.72 -0.438,2.183 -0.543,2.673 -0.106,0.491 -0.201,1.009 -0.4,1.833 -0.198,0.825 -0.5,1.957 -0.807,3.143 -0.307,1.187 -0.618,2.43 -0.84,3.478 -0.221,1.049 -0.352,1.904 -0.575,3.166 -0.224,1.262 -0.541,2.932 -0.787,4.297 -0.247,1.366 -0.423,2.427 -0.529,2.975 -0.105,0.548 -0.14,0.583 -0.204,0.634 -0.063,0.05 -0.155,0.115 -0.251,2.246 -0.096,2.13 -0.197,6.326 -0.275,8.622 -0.078,2.297 -0.133,2.694 0.035,2.902 0.169,0.209 0.561,0.229 1.419,0.337 0.857,0.108 2.18,0.305 4.51,0.755 2.332,0.45 5.671,1.154 8.339,1.667 2.668,0.513 4.664,0.835 6.751,1.182 2.088,0.347 4.265,0.719 7.24,1.192 2.975,0.472 6.746,1.046 9.15,1.373 2.404,0.327 3.44,0.407 3.958,0.447 0.518,0.041 0.518,0.041 0.568,-0.543 0.049,-0.583 0.149,-1.75 0.263,-2.759 0.114,-1.009 0.242,-1.86 0.394,-2.937 0.152,-1.077 0.328,-2.379 0.498,-3.576 0.17,-1.197 0.333,-2.289 0.417,-2.902 0.085,-0.614 0.089,-0.749 0.076,-0.865 -0.014,-0.116 -0.047,-0.211 -0.023,-1.818 0.024,-1.607 0.104,-4.725 0.147,-7.257 0.043,-2.532 0.048,-4.478 0.059,-5.601 0.011,-1.123 0.029,-1.422 0.067,-1.618 0.038,-0.197 0.095,-0.29 0.176,-0.338 0.08,-0.05 0.184,-0.055 0.308,0.038 0.124,0.094 0.27,0.285 0.345,0.376 0.074,0.092 0.076,0.085 0.078,0.081 0.001,-0.004 0.001,-0.004 0.115,0.253 0.114,0.256 0.343,0.769 0.597,1.463 0.254,0.694 0.533,1.569 0.762,2.507 0.229,0.938 0.408,1.939 0.607,3.547 0.2,1.608 0.422,3.823 0.739,6.228 0.316,2.406 0.729,5.001 1.468,11.393 0.739,6.392 1.805,16.58 2.64,24.511 0.835,7.931 1.439,13.604 1.811,19.699 0.372,6.095 0.513,12.613 0.503,19.654 -0.01,7.04 -0.171,14.604 -0.372,20.609 -0.202,6.004 -0.443,10.45 -0.725,14.423 -0.281,3.973 -0.603,7.473 -1.448,14.162 -0.845,6.688 -2.213,16.566 -3.007,23.777 -0.795,7.212 -1.016,11.758 -1.217,15.269 -0.202,3.51 -0.383,5.984 -0.674,8.122 -0.292,2.137 -0.694,3.937 -0.973,5.315 -0.279,1.378 -0.436,2.334 -0.453,2.935 -0.018,0.601 0.103,0.847 0.249,0.975 0.146,0.129 0.317,0.138 0.5,0.175 0.184,0.036 0.38,0.099 0.469,0.155 0.019,0.011 0.032,0.022 0.042,0.037 0.876,0.322 1.753,0.645 3.155,0.925 1.401,0.28 3.329,0.518 6.493,0.754 3.163,0.237 7.562,0.472 11.099,0.609 3.537,0.138 6.212,0.178 9.592,0.181 3.38,0.003 7.463,-0.03 11.329,-0.007 3.866,0.024 7.513,0.104 10.591,0.191 3.078,0.088 5.586,0.181 7.916,0.252 2.33,0.07 4.483,0.117 6.789,0.171 2.307,0.053 4.768,0.114 7.356,0.121 2.589,0.006 5.304,-0.041 8.04,-0.098 2.736,-0.057 5.492,-0.124 7.953,-0.221z"/>
    </clipPath>
    <clipPath id="id3">
     <path d="M44.533 92.099c-0.429,-1.646 -1.314,-4.1 -2.266,-7.426 -0.952,-3.326 -1.971,-7.524 -2.843,-12.104 -0.872,-4.579 -1.596,-9.541 -2.24,-13.927 -0.644,-4.385 -1.207,-8.194 -1.971,-12.15 -0.765,-3.956 -1.73,-8.06 -2.522,-10.974 -0.791,-2.913 -1.409,-4.637 -1.737,-5.811 -0.067,-0.237 -0.121,-0.452 -0.167,-0.649l-0.108 0.087 -0.019 0.015 -0.307 0.246 -0.02 0.016 -0.078 0.062 -0.021 0.017 -0.171 0.135 -0.017 0.014 -0.05 0.04 -0.023 0.018 -0.064 0.051 -0.036 0.028 -0.019 0.015 -0.038 0.03 -0.038 0.03 -0.027 0.022 -0.056 0.044 -0.019 0.015 -0.064 0.051c-0.493,0.39 -1.061,0.837 -1.779,1.475 -0.718,0.637 -1.586,1.465 -2.375,2.331 -0.79,0.866 -1.501,1.771 -2.145,2.665 -0.644,0.894 -1.22,1.777 -1.924,2.935 -0.704,1.158 -1.536,2.591 -2.208,3.821 -0.671,1.229 -1.181,2.255 -1.732,3.264 -0.551,1.008 -1.141,1.999 -1.644,2.942 -0.503,0.943 -0.918,1.838 -1.313,2.759 -0.395,0.922 -0.77,1.87 -1.152,2.756 -0.382,0.887 -0.772,1.712 -1.285,3.043 -0.513,1.331 -1.149,3.17 -1.716,4.911 -0.567,1.741 -1.065,3.386 -1.49,4.836 -0.425,1.451 -0.777,2.709 -1.129,4.225 -0.352,1.516 -0.704,3.291 -1.144,5.668 -0.44,2.376 -0.968,5.353 -1.29,7.073 -0.322,1.72 -0.438,2.183 -0.543,2.673 -0.106,0.491 -0.201,1.009 -0.4,1.833 -0.198,0.825 -0.5,1.957 -0.807,3.143 -0.307,1.187 -0.618,2.43 -0.84,3.478 -0.221,1.049 -0.352,1.904 -0.575,3.166 -0.224,1.262 -0.541,2.932 -0.787,4.297 -0.247,1.366 -0.423,2.427 -0.529,2.975l-0.009 0.052 -0.008 0.037 -0.002 0.011 -0.005 0.025 -0.006 0.026 -0.005 0.025 -0.001 0.006 -0.004 0.018 -0.004 0.019 -0.005 0.025 -0.009 0.04 -0.003 0.014 -0.01 0.044 -0.004 0.015 -0.004 0.016 -0.004 0.015 -0.002 0.008 -0.005 0.016 -0.007 0.028 -0.001 0.003 -0.003 0.009 -0.005 0.016 -0.008 0.027 -0.006 0.015 -0.004 0.011 -0.003 0.006 -0.001 0.005 -0.003 0.006 -0.003 0.007 -0.005 0.011 0 0 -0.004 0.006 -0.003 0.006 -0.006 0.011 -0.003 0.005 -0.005 0.006 -0.005 0.007 -0.002 0.003 -0.006 0.006 -0.003 0.003 -0.004 0.004 -0.006 0.006 -0.007 0.006 -0.003 0.002 -0.005 0.004 -0.003 0.003c-0.063,0.05 -0.155,0.115 -0.251,2.246 -0.096,2.13 -0.197,6.326 -0.275,8.622 -0.078,2.297 -0.133,2.694 0.035,2.902 0.169,0.209 0.561,0.229 1.419,0.337 0.857,0.108 2.18,0.305 4.51,0.755 2.332,0.45 5.671,1.154 8.339,1.667 2.668,0.513 4.664,0.835 6.751,1.182 2.088,0.347 4.265,0.719 7.24,1.192 2.975,0.472 6.746,1.046 9.15,1.373 2.404,0.327 3.44,0.407 3.958,0.447 0.518,0.041 0.518,0.041 0.568,-0.543 0.049,-0.583 0.149,-1.75 0.263,-2.759 0.114,-1.009 0.242,-1.86 0.394,-2.937 0.152,-1.077 0.328,-2.379 0.498,-3.576 0.17,-1.197 0.333,-2.289 0.417,-2.902 0.085,-0.614 0.089,-0.749 0.076,-0.865l-0.001 -0.007 -0.001 -0.008 -0.001 -0.007 -0.001 -0.008 -0.002 -0.012 -0.001 -0.012 -0.002 -0.012 0 -0.002 -0.001 -0.013 -0.002 -0.019 0 -0.001c-0.004,-0.041 -0.009,-0.098 -0.012,-0.184l0 -0.009 -0.001 -0.033 0 -0.002 -0.004 -0.176 -0.001 -0.062 0 -0.048 0 -0.02 -0.001 -0.042 0 -0.031 0 -0.037 0 -0.042 0 -0.131 0 -0.049 0 -0.046 0 -0.043 0.001 -0.06 0 -0.031 0 -0.054 0 -0.043 0.001 -0.094 0 -0.009 0.002 -0.127 0.001 -0.096 0.001 -0.077 0.001 -0.085 0.001 -0.086c0.024,-1.607 0.104,-4.725 0.147,-7.257 0.043,-2.532 0.048,-4.478 0.059,-5.601 0.011,-1.123 0.029,-1.422 0.067,-1.618 0.038,-0.197 0.095,-0.29 0.176,-0.338 0.21,-0.447 0.419,-0.894 0.551,-1.225 0.131,-0.33 0.185,-0.545 0.225,-1.071 0.04,-0.527 0.067,-1.365 -0.362,-3.011zm-0.852 21.838l-0.007 -0.093 -0.005 -0.091m153.655 -4.155l-0.003 0.026 -0.001 0.007 -0.003 0.02 0 0.004c-0.004,0.028 -0.004,0.044 -0.007,0.056l-0.002 0.005 -0.001 0.003 -0.001 0.004 -0.001 0.002 -0.001 0.001 -0.002 0.003 -0.002 0.003 -0.001 0.001 -0.002 0.002 -0.002 0.002 0 0.001 -0.005 0.005 -0.004 0.003 -0.003 0.003c-0.038,0.034 -0.128,0.104 -0.133,0.68 -0.005,0.576 0.075,1.657 0.192,3.051 0.117,1.395 0.27,3.102 0.322,4.786 0.051,1.683 0.001,3.343 0.002,4.231 0,0.887 0.052,1.003 0.132,1.078 0.08,0.076 0.188,0.111 1.001,0.06 0.814,-0.051 2.333,-0.188 4.105,-0.324 1.773,-0.137 3.8,-0.273 5.955,-0.431 2.155,-0.158 4.438,-0.339 6.588,-0.463 2.15,-0.123 4.166,-0.188 5.992,-0.299 1.826,-0.111 3.46,-0.267 5.336,-0.47 1.876,-0.204 3.993,-0.455 6.015,-0.682 2.021,-0.226 3.947,-0.427 5.109,-0.565 1.162,-0.139 1.559,-0.214 1.758,-0.327 0.199,-0.113 0.199,-0.264 0.229,-0.906 0.03,-0.641 0.09,-1.772 0.108,-3.132 0.017,-1.361 -0.008,-2.95 -0.023,-4.429 -0.015,-1.478 -0.02,-2.846 -0.038,-3.724 -0.017,-0.877 -0.047,-1.264 -0.071,-1.469l-0.004 -0.031 -0.005 -0.037 -0.003 -0.016 -0.004 -0.03 -0.002 -0.007 -0.003 -0.019 -0.003 -0.015 -0.001 -0.002c-0.005,-0.022 -0.01,-0.04 -0.015,-0.055l-0.001 -0.001 -0.006 -0.016 -0.001 -0.001 -0.006 -0.013 0 -0.001 -0.002 -0.003 -0.007 -0.013 -0.001 -0.002 -0.003 -0.004 -0.002 -0.004 -0.002 -0.003 -0.002 -0.003 -0.004 -0.008 -0.002 -0.003 -0.004 -0.007c-0.04,-0.068 -0.103,-0.181 -0.174,-0.682 -0.071,-0.5 -0.152,-1.388 -0.255,-2.32 -0.103,-0.933 -0.229,-1.911 -0.348,-2.739 -0.12,-0.827 -0.233,-1.504 -0.413,-2.544 -0.179,-1.042 -0.426,-2.447 -0.613,-3.449 -0.187,-1.002 -0.316,-1.601 -0.436,-2.27 -0.121,-0.668 -0.234,-1.408 -0.366,-2.121 -0.132,-0.713 -0.283,-1.399 -0.425,-2.156 -0.142,-0.757 -0.275,-1.584 -0.375,-2.322 -0.099,-0.738 -0.165,-1.387 -0.239,-2.029 -0.074,-0.643 -0.157,-1.279 -0.257,-2.036 -0.101,-0.757 -0.219,-1.634 -0.34,-2.526 -0.121,-0.891 -0.244,-1.796 -0.353,-2.565 -0.11,-0.768 -0.205,-1.399 -0.373,-2.344 -0.168,-0.945 -0.408,-2.203 -0.82,-4.085 -0.412,-1.881 -0.995,-4.386 -1.704,-6.89 -0.709,-2.505 -1.544,-5.009 -2.651,-7.745 -1.106,-2.736 -2.484,-5.703 -4.093,-8.851 -1.61,-3.149 -3.45,-6.478 -4.878,-8.781 -1.429,-2.304 -2.444,-3.581 -3.453,-4.629 -1.008,-1.049 -2.009,-1.869 -3.015,-2.608 -1.006,-0.739 -2.017,-1.398 -2.582,-1.773 -0.566,-0.375 -0.687,-0.465 -0.756,-0.571l-0.002 -0.003 -0.002 -0.004 -0.002 -0.003 -0.003 -0.005 -0.004 -0.006 -0.001 -0.001 -0.002 -0.005 -0.002 -0.003 -0.003 -0.005 -0.002 -0.005 -0.003 -0.006 -0.002 -0.002 -0.002 -0.005 -0.007 -0.016 -0.001 -0.002 -0.001 -0.002 -0.002 -0.005 -0.004 -0.008 -0.001 -0.003c-0.845,2.177 -1.681,4.372 -2.474,6.668 -0.979,2.837 -1.891,5.827 -2.716,11.172 -0.825,5.344 -1.562,13.042 -2.347,18.902 -0.784,5.861 -1.616,9.884 -2.444,13.19 -0.828,3.306 -1.653,5.894 -2.313,7.962 -0.661,2.069 -1.157,3.618 -1.398,4.644 -0.242,1.026 -0.228,1.529 -0.221,1.78 0.006,0.252 0.006,0.252 0.16,0.59 0.155,0.339 0.463,1.016 0.601,1.639 0.139,0.623 0.107,1.192 0.075,1.761 0.066,-0.048 0.066,-0.048 0.049,0.598 -0.018,0.646 -0.053,1.939 -0.108,3.533 -0.056,1.594 -0.131,3.49 -0.173,4.967 -0.041,1.478 -0.049,2.536 -0.079,3.186 -0.03,0.65 -0.083,0.892 -0.102,1.011z"/>
    </clipPath>
    <clipPath id="id4">
     <path d="M136.796 295.988c2.461,-0.097 4.626,-0.225 7.017,-0.355 2.39,-0.131 5.006,-0.265 8.261,-0.493 3.256,-0.228 7.151,-0.55 10.471,-0.852 3.319,-0.302 6.061,-0.583 8.794,-0.949 2.732,-0.365 5.455,-0.814 7.654,-1.25 2.2,-0.436 3.876,-0.858 6.001,-1.331 2.126,-0.473 4.701,-0.996 6.595,-1.321 1.894,-0.325 3.108,-0.453 4.268,-0.536 1.16,-0.084 2.267,-0.124 3.155,-0.117 0.889,0.008 1.559,0.063 1.956,0.094 0.396,0.031 0.518,0.038 0.611,0.043 0.049,0.002 0.09,0.004 0.127,0.006 0.093,-0.07 0.162,-0.18 0.177,-0.779 0.016,-0.673 -0.037,-1.966 -0.106,-2.786 -0.069,-0.819 -0.154,-1.166 -0.285,-1.855 -0.131,-0.689 -0.307,-1.72 -0.651,-2.686 -0.345,-0.965 -0.858,-1.866 -1.476,-3.045 -0.619,-1.179 -1.343,-2.638 -1.783,-3.616 -0.44,-0.978 -0.596,-1.476 -0.848,-2.693 -0.251,-1.217 -0.598,-3.153 -0.953,-5.871 -0.354,-2.718 -0.716,-6.219 -1.038,-8.884 -0.322,-2.666 -0.603,-4.496 -1.081,-7.559 -0.478,-3.062 -1.152,-7.357 -1.71,-11.521 -0.558,-4.164 -1.001,-8.198 -1.348,-12.226 -0.347,-4.028 -0.598,-8.051 -0.759,-11.637 -0.161,-3.586 -0.231,-6.734 -0.287,-9.787 -0.055,-3.052 -0.095,-6.01 -0.156,-9.258 -0.06,-3.249 -0.14,-6.79 -0.108,-12.037 0.033,-5.248 0.179,-12.203 0.352,-17.466 0.174,-5.263 0.375,-8.834 0.652,-12.807 0.276,-3.973 0.628,-8.348 0.975,-12.271 0.347,-3.922 0.689,-7.393 1.122,-11.743 0.432,-4.35 0.955,-9.58 1.483,-13.99 0.528,-4.411 1.061,-8.002 1.512,-10.619 0.45,-2.618 0.817,-4.262 1.139,-5.308 0.321,-1.046 0.598,-1.494 0.803,-1.766 0.205,-0.271 0.338,-0.367 0.405,-0.414 0.066,-0.048 0.066,-0.048 0.049,0.598 -0.018,0.646 -0.053,1.939 -0.108,3.533 -0.056,1.594 -0.131,3.49 -0.173,4.967 -0.041,1.478 -0.049,2.536 -0.079,3.186 -0.03,0.65 -0.083,0.892 -0.102,1.011 -0.018,0.119 -0.003,0.117 -0.041,0.151 -0.038,0.034 -0.128,0.104 -0.133,0.68 -0.005,0.576 0.075,1.657 0.192,3.051 0.117,1.395 0.27,3.102 0.322,4.786 0.051,1.683 0.001,3.343 0.002,4.231 0,0.887 0.052,1.003 0.132,1.078 0.08,0.076 0.188,0.111 1.001,0.06 0.814,-0.051 2.333,-0.188 4.105,-0.324 1.773,-0.137 3.8,-0.273 5.955,-0.431 2.155,-0.158 4.438,-0.339 6.588,-0.463 2.15,-0.123 4.166,-0.188 5.992,-0.299 1.826,-0.111 3.46,-0.267 5.336,-0.47 1.876,-0.204 3.993,-0.455 6.015,-0.682 2.021,-0.226 3.947,-0.427 5.109,-0.565 1.162,-0.139 1.559,-0.214 1.758,-0.327 0.199,-0.113 0.199,-0.264 0.229,-0.906 0.03,-0.641 0.09,-1.772 0.108,-3.132 0.017,-1.361 -0.008,-2.95 -0.023,-4.429 -0.015,-1.478 -0.02,-2.846 -0.038,-3.724 -0.017,-0.877 -0.047,-1.264 -0.071,-1.469 -0.025,-0.205 -0.043,-0.227 -0.083,-0.294 -0.04,-0.068 -0.103,-0.181 -0.174,-0.682 -0.071,-0.5 -0.152,-1.388 -0.255,-2.32 -0.103,-0.933 -0.229,-1.911 -0.348,-2.739 -0.12,-0.827 -0.233,-1.504 -0.413,-2.544 -0.179,-1.042 -0.426,-2.447 -0.613,-3.449 -0.187,-1.002 -0.316,-1.601 -0.436,-2.27 -0.121,-0.668 -0.234,-1.408 -0.366,-2.121 -0.132,-0.713 -0.283,-1.399 -0.425,-2.156 -0.142,-0.757 -0.275,-1.584 -0.375,-2.322 -0.099,-0.738 -0.165,-1.387 -0.239,-2.029 -0.074,-0.643 -0.157,-1.279 -0.257,-2.036 -0.101,-0.757 -0.219,-1.634 -0.34,-2.526 -0.121,-0.891 -0.244,-1.796 -0.353,-2.565 -0.11,-0.768 -0.205,-1.399 -0.373,-2.344 -0.168,-0.945 -0.408,-2.203 -0.82,-4.085 -0.412,-1.881 -0.995,-4.386 -1.704,-6.89 -0.709,-2.505 -1.544,-5.009 -2.651,-7.745 -1.106,-2.736 -2.484,-5.703 -4.093,-8.851 -1.61,-3.149 -3.45,-6.478 -4.878,-8.781 -1.429,-2.304 -2.444,-3.581 -3.453,-4.629 -1.008,-1.049 -2.009,-1.869 -3.015,-2.608 -1.006,-0.739 -2.017,-1.398 -2.582,-1.773 -0.566,-0.375 -0.687,-0.465 -0.756,-0.571 -0.069,-0.105 -0.087,-0.226 -0.095,-0.303 -0.009,-0.077 -0.009,-0.109 -0.07,-0.174 -0.06,-0.066 -0.181,-0.164 -1.307,-0.714 -1.127,-0.551 -3.259,-1.555 -5.31,-2.603 -2.05,-1.048 -4.019,-2.142 -5.77,-2.976 -1.752,-0.833 -3.286,-1.407 -5.061,-1.957 -1.775,-0.551 -3.792,-1.079 -5.429,-1.507 -1.637,-0.427 -2.894,-0.754 -3.762,-1.008 -0.867,-0.254 -1.345,-0.435 -2.044,-0.7 -0.699,-0.266 -1.619,-0.615 -2.606,-0.909 -0.987,-0.295 -2.041,-0.533 -2.716,-0.687 -0.675,-0.153 -0.972,-0.221 -1.44,-0.471 -0.467,-0.25 -1.106,-0.683 -1.581,-0.937 -0.475,-0.254 -0.787,-0.329 -1.073,-0.365 -0.285,-0.035 -0.544,-0.03 -0.777,-0.03 -0.232,0 -0.438,-0.005 -1.342,-0.33 -0.904,-0.326 -2.506,-0.972 -4.026,-1.577 -1.52,-0.605 -2.959,-1.168 -4.404,-1.748 -1.446,-0.579 -2.9,-1.175 -3.816,-1.569 -0.917,-0.393 -1.297,-0.584 -1.594,-0.779 -0.298,-0.194 -0.514,-0.392 -0.705,-0.497 -0.191,-0.105 -0.356,-0.116 -0.467,-0.117 -0.11,0 -0.164,0.01 -0.251,-0.004 -0.086,-0.014 -0.204,-0.052 -0.587,-0.292 -0.382,-0.24 -1.028,-0.682 -1.678,-1.193 -0.65,-0.51 -1.304,-1.089 -1.956,-1.661 -0.653,-0.572 -1.304,-1.138 -2.311,-1.569 -1.007,-0.431 -2.37,-0.728 -3.723,-0.919 -1.353,-0.191 -2.695,-0.276 -4.576,-0.354 -1.881,-0.078 -4.3,-0.149 -7.931,-0.131 -3.631,0.017 -8.474,0.123 -12.914,0.219 -4.439,0.096 -8.475,0.183 -10.597,0.231 -2.123,0.048 -2.332,0.058 -4.152,0.203 -1.82,0.145 -5.249,0.427 -7.404,0.671 -2.155,0.244 -3.035,0.45 -3.752,0.707 -0.717,0.256 -1.27,0.563 -1.886,1.078 -0.616,0.516 -1.295,1.24 -2.019,1.877 -0.725,0.638 -1.494,1.189 -1.953,1.46 -0.459,0.272 -0.607,0.264 -0.901,0.366 -0.295,0.102 -0.735,0.313 -1.268,0.582 -0.533,0.269 -1.159,0.596 -1.919,0.922 -0.761,0.325 -1.656,0.65 -2.301,0.904 -0.645,0.254 -1.04,0.437 -1.514,0.628 -0.474,0.192 -1.027,0.39 -1.765,0.621 -0.738,0.232 -1.661,0.496 -2.558,0.836 -0.896,0.341 -1.766,0.759 -2.573,1.076 -0.808,0.316 -1.552,0.533 -2.299,0.749 -0.746,0.216 -1.496,0.432 -2.053,0.655 -0.557,0.222 -0.921,0.451 -1.207,0.636 -0.285,0.185 -0.491,0.326 -0.999,0.476 -0.508,0.15 -1.318,0.31 -1.914,0.463 -0.596,0.154 -0.978,0.301 -1.488,0.492 -0.51,0.192 -1.147,0.429 -1.75,0.617 -0.603,0.189 -1.171,0.329 -1.687,0.459 -0.516,0.13 -0.98,0.248 -1.7,0.426 -0.719,0.179 -1.693,0.418 -2.551,0.633 -0.857,0.216 -1.598,0.408 -2.171,0.57 -0.573,0.161 -0.979,0.292 -1.436,0.426 -0.456,0.134 -0.963,0.271 -1.427,0.4 -0.465,0.129 -0.887,0.249 -1.312,0.377 -0.424,0.128 -0.85,0.262 -1.203,0.399 -0.353,0.137 -0.632,0.277 -1.012,0.437 -0.38,0.159 -0.862,0.339 -1.279,0.53 -0.417,0.191 -0.769,0.394 -1.165,0.602 -0.397,0.209 -0.838,0.424 -1.221,0.617 -0.382,0.194 -0.705,0.366 -1.126,0.589 -0.421,0.223 -0.941,0.495 -1.657,0.865 -0.717,0.371 -1.631,0.838 -2.694,1.37 -1.063,0.532 -2.275,1.128 -3.18,1.576 -0.905,0.448 -1.504,0.747 -2.037,1.087 -0.533,0.341 -1.001,0.723 -1.443,1.08 -0.443,0.358 -0.86,0.689 -1.353,1.079 -0.493,0.39 -1.061,0.837 -1.779,1.475 -0.718,0.637 -1.586,1.465 -2.375,2.331 -0.79,0.866 -1.501,1.771 -2.145,2.665 -0.644,0.894 -1.22,1.777 -1.924,2.935 -0.704,1.158 -1.536,2.591 -2.208,3.821 -0.671,1.229 -1.181,2.255 -1.732,3.264 -0.551,1.008 -1.141,1.999 -1.644,2.942 -0.503,0.943 -0.918,1.838 -1.313,2.759 -0.395,0.922 -0.77,1.87 -1.152,2.756 -0.382,0.887 -0.772,1.712 -1.285,3.043 -0.513,1.331 -1.149,3.17 -1.716,4.911 -0.567,1.741 -1.065,3.386 -1.49,4.836 -0.425,1.451 -0.777,2.709 -1.129,4.225 -0.352,1.516 -0.704,3.291 -1.144,5.668 -0.44,2.376 -0.968,5.353 -1.29,7.073 -0.322,1.72 -0.438,2.183 -0.543,2.673 -0.106,0.491 -0.201,1.009 -0.4,1.833 -0.198,0.825 -0.5,1.957 -0.807,3.143 -0.307,1.187 -0.618,2.43 -0.84,3.478 -0.221,1.049 -0.352,1.904 -0.575,3.166 -0.224,1.262 -0.541,2.932 -0.787,4.297 -0.247,1.366 -0.423,2.427 -0.529,2.975 -0.105,0.548 -0.14,0.583 -0.204,0.634 -0.063,0.05 -0.155,0.115 -0.251,2.246 -0.096,2.13 -0.197,6.326 -0.275,8.622 -0.078,2.297 -0.133,2.694 0.035,2.902 0.169,0.209 0.561,0.229 1.419,0.337 0.857,0.108 2.18,0.305 4.51,0.755 2.332,0.45 5.671,1.154 8.339,1.667 2.668,0.513 4.664,0.835 6.751,1.182 2.088,0.347 4.265,0.719 7.24,1.192 2.975,0.472 6.746,1.046 9.15,1.373 2.404,0.327 3.44,0.407 3.958,0.447 0.518,0.041 0.518,0.041 0.568,-0.543 0.049,-0.583 0.149,-1.75 0.263,-2.759 0.114,-1.009 0.242,-1.86 0.394,-2.937 0.152,-1.077 0.328,-2.379 0.498,-3.576 0.17,-1.197 0.333,-2.289 0.417,-2.902 0.085,-0.614 0.089,-0.749 0.076,-0.865 -0.014,-0.116 -0.047,-0.211 -0.023,-1.818 0.024,-1.607 0.104,-4.725 0.147,-7.257 0.043,-2.532 0.048,-4.478 0.059,-5.601 0.011,-1.123 0.029,-1.422 0.067,-1.618 0.038,-0.197 0.095,-0.29 0.176,-0.338 0.08,-0.05 0.184,-0.055 0.308,0.038 0.124,0.094 0.27,0.285 0.345,0.376 0.074,0.092 0.076,0.085 0.078,0.081 0.001,-0.004 0.001,-0.004 0.115,0.253 0.114,0.256 0.343,0.769 0.597,1.463 0.254,0.694 0.533,1.569 0.762,2.507 0.229,0.938 0.408,1.939 0.607,3.547 0.2,1.608 0.422,3.823 0.739,6.228 0.316,2.406 0.729,5.001 1.468,11.393 0.739,6.392 1.805,16.58 2.64,24.511 0.835,7.931 1.439,13.604 1.811,19.699 0.372,6.095 0.513,12.613 0.503,19.654 -0.01,7.04 -0.171,14.604 -0.372,20.609 -0.202,6.004 -0.443,10.45 -0.725,14.423 -0.281,3.973 -0.603,7.473 -1.448,14.162 -0.845,6.688 -2.213,16.566 -3.007,23.777 -0.795,7.212 -1.016,11.758 -1.217,15.269 -0.202,3.51 -0.383,5.984 -0.674,8.122 -0.292,2.137 -0.694,3.937 -0.973,5.315 -0.279,1.378 -0.436,2.334 -0.453,2.935 -0.018,0.601 0.103,0.847 0.249,0.975 0.146,0.129 0.317,0.138 0.5,0.175 0.184,0.036 0.38,0.099 0.469,0.155 0.019,0.011 0.032,0.022 0.042,0.037 0.876,0.322 1.753,0.645 3.155,0.925 1.401,0.28 3.329,0.518 6.493,0.754 3.163,0.237 7.562,0.472 11.099,0.609 3.537,0.138 6.212,0.178 9.592,0.181 3.38,0.003 7.463,-0.03 11.329,-0.007 3.866,0.024 7.513,0.104 10.591,0.191 3.078,0.088 5.586,0.181 7.916,0.252 2.33,0.07 4.483,0.117 6.789,0.171 2.307,0.053 4.768,0.114 7.356,0.121 2.589,0.006 5.304,-0.041 8.04,-0.098 2.736,-0.057 5.492,-0.124 7.953,-0.221z"/>
    </clipPath>
 </defs>
 <g id="VETORES">
  <metadata id="CorelCorpID_0Corel-Layer"/>
  <g>
  </g>
  <g clip-path="url(#id0)">
   <g id="_2017794385536">
    <g>
    </g>
   </g>
   <g clip-path="url(#id1)">
    <g>
     <path id="_1" fill="black" fill-rule="nonzero" d="M-12.909 162.078c3.47,-5.719 9.677,-15.145 18.657,-24.573 9.104,-9.558 21.085,-19.171 36.061,-25.149 5.215,-2.083 10.457,-3.608 14.502,-4.631 3.935,-0.996 7.008,-1.568 7.471,-1.653 11.111,-2.032 17.875,-1.655 26.502,-1.175 4.411,0.245 9.332,0.519 15.357,0.491l0.01 0c12.772,-0.058 27.632,-0.126 44.545,-5.706 2.687,-0.887 7.205,-2.492 12.574,-5.075 5.443,-2.619 11.918,-6.297 18.653,-11.383 6.932,-5.236 12.221,-10.541 17.284,-16.76 5.247,-6.445 10.286,-13.87 16.569,-23.125 2.709,-3.992 5.944,-8.969 9.607,-15.05 3.611,-5.996 7.428,-12.734 11.198,-20.085l9.689 4.951c-4.063,7.921 -7.964,14.83 -11.54,20.768 -3.525,5.852 -6.946,11.096 -9.949,15.52 -6.478,9.545 -11.675,17.201 -17.123,23.893 -5.633,6.918 -11.499,12.807 -19.162,18.595 -7.312,5.522 -14.467,9.575 -20.531,12.492 -6.136,2.953 -10.999,4.688 -13.855,5.631 -18.439,6.083 -34.291,6.156 -47.916,6.218l-0.011 0c-6.617,0.03 -11.563,-0.245 -15.996,-0.492 -7.928,-0.44 -14.144,-0.786 -23.942,1.005 -0.375,0.069 -2.897,0.541 -6.787,1.525 -3.781,0.956 -8.595,2.347 -13.137,4.161 -13.239,5.285 -23.964,13.924 -32.176,22.546 -8.337,8.752 -14.058,17.435 -17.249,22.695l-9.305 -5.634zm-14.621 -73.195c2.277,-2.128 5.22,-4.681 8.86,-7.367 3.642,-2.688 7.944,-5.478 12.905,-8.051 9.992,-5.181 17.637,-6.95 27.225,-9.168 4.381,-1.014 9.197,-2.128 15.075,-3.806 4.305,-1.228 10.51,-2.999 16.591,-5.131 6.095,-2.138 12.366,-4.712 17.177,-7.639 3.698,-2.249 9.919,-6.788 15.944,-16.157 6.251,-9.718 12.221,-24.508 14.99,-47.085l10.841 1.323c-2.999,24.456 -9.655,40.769 -16.654,51.653 -7.225,11.233 -14.878,16.794 -19.444,19.571 -5.551,3.377 -12.544,6.262 -19.269,8.62 -6.738,2.363 -12.909,4.124 -17.189,5.345 -5.869,1.675 -10.98,2.858 -15.63,3.934 -8.834,2.044 -15.877,3.673 -24.664,8.229 -4.41,2.287 -8.209,4.749 -11.411,7.112 -3.204,2.364 -5.85,4.664 -7.921,6.599l-7.426 -7.982zm15.461 29.469c8.992,-7.215 17.575,-12.927 25.385,-17.464 7.818,-4.541 14.869,-7.911 20.783,-10.437 16.769,-7.162 34.594,-11.888 42.641,-14.021l0.002 0c9.171,-2.433 15.649,-3.799 20.696,-4.863 8.065,-1.701 12.16,-2.564 18.238,-6.134 13.288,-7.801 20.531,-18.926 25.072,-25.929l0.047 -0.073c6.097,-9.402 9.915,-18.837 12.312,-27.336 2.399,-8.508 3.368,-16.084 3.771,-21.753l10.884 0.768c-0.442,6.221 -1.509,14.545 -4.156,23.931 -2.63,9.329 -6.828,19.704 -13.534,30.101l-0.003 0.006 -0.14 0.215c-5.073,7.825 -13.175,20.318 -28.747,29.46 -7.639,4.486 -12.315,5.472 -21.524,7.415 -4.894,1.031 -11.175,2.356 -20.142,4.734l-0.002 0c-7.805,2.069 -25.094,6.653 -41.147,13.509 -5.565,2.377 -12.206,5.552 -19.587,9.84 -7.389,4.292 -15.51,9.696 -24.02,16.525l-6.829 -8.494zm79.188 198.828c1.388,-0.93 4.848,-3.364 8.292,-7.358 3.358,-3.893 6.683,-9.285 7.914,-16.19l0 0 0 -0.004c0.522,-2.929 1.769,-9.933 -1.484,-16.353 -1.433,-2.83 -3.549,-5.13 -6.994,-7.331 -3.969,-2.536 -9.603,-4.95 -17.643,-7.737 -17.594,-6.098 -31.775,-8.747 -38.151,-9.938l-1.181 -0.222c-7.056,-1.337 -15.608,-3.307 -25.369,-6.351 -9.723,-3.031 -20.729,-7.155 -32.791,-12.829l4.61 -9.859c11.465,5.392 22.03,9.345 31.424,12.274 9.356,2.917 17.47,4.79 24.132,6.052l1.181 0.222c6.581,1.229 21.218,3.963 39.688,10.365 8.865,3.073 15.217,5.825 19.948,8.846 5.253,3.356 8.55,7.004 10.878,11.599 4.904,9.682 3.215,19.172 2.508,23.14l-0.001 0 0 0.004c-1.639,9.199 -6.017,16.321 -10.431,21.44 -4.329,5.019 -8.711,8.1 -10.469,9.278l-6.061 -9.048zm-106.705 -64.189c10.09,2.671 18.691,4.823 25.953,6.561 6.872,1.644 13.424,3.114 19.1,4.347l0.678 0.148c9.007,1.955 16.943,3.678 25.054,10.624 4.708,4.032 7.905,8.572 10.088,12.616 2.131,3.948 3.28,7.411 3.925,9.411 2.539,7.884 2.835,15.254 2.266,21.32 -0.573,6.109 -1.982,10.814 -2.886,13.438l-10.329 -3.542c0.753,-2.185 1.923,-6.065 2.374,-10.877 0.455,-4.855 0.222,-10.741 -1.797,-17.01 -0.521,-1.615 -1.448,-4.41 -3.157,-7.576 -1.656,-3.068 -4.062,-6.497 -7.569,-9.5 -5.996,-5.134 -12.683,-6.586 -20.274,-8.234l-0.678 -0.147c-4.802,-1.044 -11.072,-2.461 -19.313,-4.433 -7.851,-1.879 -16.656,-4.075 -26.21,-6.603l2.775 -10.543zm189.439 59.672c4.726,-1.357 8.413,-3.088 11.301,-4.891 2.822,-1.762 4.878,-3.587 6.395,-5.187 1.83,-1.931 3.263,-3.992 4.671,-6.017 2.699,-3.883 5.32,-7.653 10.859,-11.624l0.022 0c0.016,-0.011 5.443,-3.9 12.823,-6.333 8.137,-2.682 17.208,-2.172 25.689,-0.299 15.536,3.433 29.28,11.582 30.307,12.205l-5.633 9.304c-0.916,-0.555 -13.17,-7.821 -27.021,-10.881 -6.775,-1.497 -13.873,-1.953 -19.928,0.043 -5.678,1.871 -9.643,4.642 -9.906,4.829l0.007 0.01c-4.016,2.88 -6.105,5.884 -8.256,8.977 -1.608,2.313 -3.245,4.668 -5.738,7.298 -2.047,2.16 -4.8,4.609 -8.529,6.937 -3.662,2.287 -8.269,4.462 -14.076,6.129l-2.987 -10.5zm-142.261 -125.44c4.416,4.981 8.791,9.147 12.851,12.6 4.07,3.462 7.758,6.156 10.841,8.227 5.677,3.815 9.545,5.724 12.179,6.668 2.126,0.763 3.175,0.798 3.723,0.794 1.917,-0.012 3.624,-0.463 5.549,-0.972 2.868,-0.757 6.11,-1.613 11.417,-1.821 1.863,-0.073 3.715,-0.062 5.812,0.097 2.073,0.157 4.468,0.458 7.468,0.964 5.591,0.943 11.149,2.244 18.164,4.442 6.967,2.183 15.291,5.214 26.438,9.622 7.89,3.121 12.742,5.173 16.197,7.041 3.943,2.133 6.034,3.973 8.146,6.53 0.925,1.118 2.958,3.637 4.723,7.25 1.808,3.699 3.322,8.531 3.098,14.198 -0.211,5.373 -1.908,9.845 -4.189,13.688 -2.156,3.634 -4.684,6.506 -6.931,9.057 -3.892,4.422 -6.826,6.422 -9.851,8.485 -1.574,1.074 -3.179,2.169 -5.003,3.777 -2.197,1.934 -4.67,4.588 -7.027,8.307 -2.439,3.848 -4.743,8.785 -6.493,15.159l-10.499 -2.859c2.094,-7.629 4.852,-13.539 7.773,-18.148 3.003,-4.737 6.19,-8.15 9.032,-10.655 2.243,-1.975 4.175,-3.293 6.071,-4.586 2.427,-1.656 4.781,-3.261 7.803,-6.693 1.947,-2.212 4.137,-4.7 5.735,-7.392 1.473,-2.483 2.567,-5.305 2.695,-8.566 0.138,-3.488 -0.851,-6.58 -2.03,-8.992 -1.222,-2.5 -2.661,-4.281 -3.315,-5.073 -1.225,-1.483 -2.475,-2.571 -4.902,-3.883 -2.917,-1.578 -7.469,-3.49 -15.045,-6.487 -11.018,-4.357 -19.102,-7.308 -25.67,-9.366 -6.522,-2.044 -11.629,-3.243 -16.713,-4.101 -2.594,-0.437 -4.676,-0.698 -6.486,-0.835 -1.785,-0.135 -3.221,-0.15 -4.575,-0.097 -4.068,0.159 -6.722,0.86 -9.069,1.48 -2.59,0.684 -4.887,1.29 -8.281,1.313 -1.247,0.009 -3.582,-0.051 -7.436,-1.434 -3.348,-1.201 -8.058,-3.488 -14.569,-7.863 -3.422,-2.3 -7.468,-5.249 -11.823,-8.953 -4.364,-3.712 -9.106,-8.234 -13.96,-13.71l8.152 -7.213zm-14.734 -11.501c6.19,-0.792 11.938,-1.551 17.427,-2.307 5.269,-0.726 9.662,-1.362 13.28,-1.928l0.083 -0.013c2.143,-0.335 6.121,-0.956 11.497,-0.849 6.892,0.138 11.914,1.376 14.225,1.945l0.27 0.067 -0.001 0.005c7.353,1.798 15.368,2.692 22.211,3.135 7.073,0.458 12.689,0.442 15.324,0.434 5.271,-0.015 8.374,-0.31 10.898,-0.55 3.695,-0.352 6.316,-0.601 11.8,0.04 5.949,0.695 11.181,1.993 15.391,3.329 4.264,1.354 7.36,2.698 9.15,3.525 5.423,2.508 9.809,5.299 13.854,8.412 3.833,2.948 7.371,6.232 11.251,9.86 5.714,5.345 8.442,8.612 15.293,16.82 2.728,3.267 6.096,7.302 10.16,12.091 4.55,5.362 7.966,9.387 11.772,13.808l-0.012 0.01c2.632,3.057 4.19,4.813 4.837,5.418 3.708,3.474 9.013,7.412 16.718,10.682 7.893,3.35 18.266,5.989 31.961,6.732l-0.555 10.884c-15.143,-0.822 -26.751,-3.798 -35.674,-7.586 -9.109,-3.866 -15.453,-8.589 -19.92,-12.773 -0.911,-0.854 -2.706,-2.863 -5.614,-6.24l-0.021 0c-1.739,-2.019 -6.056,-7.106 -11.815,-13.892 -4.497,-5.299 -7.649,-9.076 -10.202,-12.134 -6.686,-8.01 -9.348,-11.198 -14.355,-15.881 -3.584,-3.351 -6.856,-6.388 -10.482,-9.178 -3.413,-2.626 -7.133,-4.99 -11.763,-7.131 -1.608,-0.743 -4.346,-1.937 -7.87,-3.055 -3.577,-1.136 -8.084,-2.246 -13.342,-2.86 -4.469,-0.522 -6.572,-0.322 -9.538,-0.04 -2.717,0.259 -6.057,0.576 -11.922,0.592 -2.843,0.009 -8.903,0.027 -16.007,-0.433 -7.328,-0.475 -15.983,-1.45 -24.109,-3.439l-0.022 0 -0.27 -0.067c-1.962,-0.483 -6.225,-1.534 -11.835,-1.646 -4.437,-0.089 -7.804,0.437 -9.618,0.721l-0.083 0.013c-4.104,0.642 -8.557,1.291 -13.494,1.97 -4.717,0.65 -10.537,1.415 -17.512,2.308l-1.366 -10.799zm248.977 -85.39c-23.385,10.578 -37.399,18.389 -45.383,24.212 -6.211,4.529 -8.04,6.707 -7.873,7.692l0.081 0.37c0.336,1.562 0.956,4.44 0.493,8.349 -0.851,7.191 -4.497,11.632 -8.059,15.972 -0.141,0.172 -0.286,0.349 -0.88,1.082 -0.682,0.841 -2.832,3.494 -5.355,7.015 -2.295,3.202 -4.683,6.849 -5.753,9.504 -1.669,4.141 -1.128,8.808 0.244,13.22 1.534,4.931 4.158,9.682 6.128,13.25 7.954,14.4 21.462,24.777 34.24,31.942 12.991,7.285 25.263,11.251 30.391,12.803l-3.158 10.457c-5.469,-1.655 -18.567,-5.89 -32.569,-13.742 -14.216,-7.971 -29.325,-19.664 -38.464,-36.21 -2.196,-3.976 -5.121,-9.271 -6.982,-15.256 -2.023,-6.505 -2.723,-13.627 0.054,-20.518 1.489,-3.694 4.327,-8.093 6.991,-11.809 2.435,-3.397 4.976,-6.533 5.782,-7.528l0.923 -1.124c2.542,-3.098 5.144,-6.268 5.626,-10.338 0.253,-2.135 -0.12,-3.867 -0.323,-4.807 -0.059,-0.276 -0.109,-0.507 -0.165,-0.84 -0.803,-4.728 1.853,-10.712 12.225,-18.277 8.6,-6.271 23.266,-14.49 47.304,-25.364l4.482 9.945z"/>
    </g>
   </g>
   <g clip-path="url(#id2)">
    <path fill="none" d="M197.737 96.303c0.032,-0.569 0.064,-1.138 -0.075,-1.761 -0.138,-0.623 -0.446,-1.3 -0.601,-1.639 -0.154,-0.338 -0.154,-0.338 -0.16,-0.59 -0.007,-0.251 -0.021,-0.754 0.221,-1.78 0.241,-1.026 0.737,-2.575 1.398,-4.644 0.66,-2.068 1.485,-4.656 2.313,-7.962 0.828,-3.306 1.66,-7.329 2.444,-13.19 0.785,-5.86 1.522,-13.558 2.347,-18.902 0.825,-5.345 1.737,-8.335 2.716,-11.172 0.793,-2.296 1.629,-4.491 2.474,-6.668 -0.032,-0.079 -0.043,-0.158 -0.049,-0.214 -0.009,-0.077 -0.009,-0.109 -0.07,-0.174 -0.06,-0.066 -0.181,-0.164 -1.307,-0.714 -1.127,-0.551 -3.259,-1.555 -5.31,-2.603 -2.05,-1.048 -4.019,-2.142 -5.77,-2.976 -1.752,-0.833 -3.286,-1.407 -5.061,-1.957 -1.775,-0.551 -3.792,-1.079 -5.429,-1.507 -1.637,-0.427 -2.894,-0.754 -3.762,-1.008 -0.867,-0.254 -1.345,-0.435 -2.044,-0.7 -0.699,-0.266 -1.619,-0.615 -2.606,-0.909 -0.987,-0.295 -2.041,-0.533 -2.716,-0.687 -0.675,-0.153 -0.972,-0.221 -1.44,-0.471 -0.467,-0.25 -1.106,-0.683 -1.581,-0.937 -0.475,-0.254 -0.787,-0.329 -1.073,-0.365 -0.285,-0.035 -0.544,-0.03 -0.777,-0.03 -0.232,0 -0.438,-0.005 -1.342,-0.33 -0.904,-0.326 -2.506,-0.972 -4.026,-1.577 -1.52,-0.605 -2.959,-1.168 -4.404,-1.748 -1.446,-0.579 -2.9,-1.175 -3.816,-1.569 -0.917,-0.393 -1.297,-0.584 -1.594,-0.779 -0.298,-0.194 -0.514,-0.392 -0.705,-0.497 -0.191,-0.105 -0.356,-0.116 -0.467,-0.117 -0.078,0 -0.128,0.005 -0.182,0.003 -0.022,-0.001 -0.044,-0.003 -0.069,-0.007 -0.086,-0.014 -0.204,-0.052 -0.587,-0.292 -0.382,-0.24 -1.028,-0.682 -1.678,-1.193 -0.65,-0.51 -1.304,-1.089 -1.956,-1.661 -0.653,-0.572 -1.304,-1.138 -2.311,-1.569 -1.007,-0.431 -2.37,-0.728 -3.723,-0.919 -1.353,-0.191 -2.695,-0.276 -4.576,-0.354 -1.881,-0.078 -4.3,-0.149 -7.931,-0.131 -3.631,0.017 -8.474,0.123 -12.914,0.219 -4.439,0.096 -8.475,0.183 -10.597,0.231 -2.123,0.048 -2.332,0.058 -4.152,0.203 -1.82,0.145 -5.249,0.427 -7.404,0.671 -2.155,0.244 -3.035,0.45 -3.752,0.707 -0.717,0.256 -1.27,0.563 -1.886,1.078 -0.616,0.516 -1.295,1.24 -2.019,1.877 -0.725,0.638 -1.494,1.189 -1.953,1.46 -0.104,0.062 -0.192,0.109 -0.27,0.147 -0.264,0.127 -0.404,0.14 -0.631,0.219 -0.295,0.102 -0.735,0.313 -1.268,0.582 -0.533,0.269 -1.159,0.596 -1.919,0.922 -0.761,0.325 -1.656,0.65 -2.301,0.904 -0.645,0.254 -1.04,0.437 -1.514,0.628 -0.474,0.192 -1.027,0.39 -1.765,0.621 -0.738,0.232 -1.661,0.496 -2.558,0.836 -0.896,0.341 -1.766,0.759 -2.573,1.076 -0.808,0.316 -1.552,0.533 -2.299,0.749 -0.746,0.216 -1.496,0.432 -2.053,0.655 -0.557,0.222 -0.921,0.451 -1.207,0.636 -0.285,0.185 -0.491,0.326 -0.999,0.476 -0.508,0.15 -1.318,0.31 -1.914,0.463 -0.596,0.154 -0.978,0.301 -1.488,0.492 -0.51,0.192 -1.147,0.429 -1.75,0.617 -0.603,0.189 -1.171,0.329 -1.687,0.459 -0.516,0.13 -0.98,0.248 -1.7,0.426 -0.719,0.179 -1.693,0.418 -2.551,0.633 -0.857,0.216 -1.598,0.408 -2.171,0.57 -0.573,0.161 -0.979,0.292 -1.436,0.426 -0.456,0.134 -0.963,0.271 -1.427,0.4 -0.465,0.129 -0.887,0.249 -1.312,0.377 -0.424,0.128 -0.85,0.262 -1.203,0.399 -0.353,0.137 -0.632,0.277 -1.012,0.437 -0.38,0.159 -0.862,0.339 -1.279,0.53 -0.417,0.191 -0.769,0.394 -1.165,0.602 -0.397,0.209 -0.838,0.424 -1.221,0.617 -0.382,0.194 -0.705,0.366 -1.126,0.589 -0.421,0.223 -0.941,0.495 -1.657,0.865 -0.717,0.371 -1.631,0.838 -2.694,1.37 -1.063,0.532 -2.275,1.128 -3.18,1.576 -0.905,0.448 -1.504,0.747 -2.037,1.087 -0.533,0.341 -1.001,0.723 -1.443,1.08 -0.06,0.048 -0.119,0.096 -0.178,0.143 0.046,0.197 0.1,0.412 0.167,0.649 0.328,1.174 0.946,2.898 1.737,5.811 0.792,2.914 1.757,7.018 2.522,10.974 0.764,3.956 1.327,7.765 1.971,12.15 0.644,4.386 1.368,9.348 2.24,13.927 0.872,4.58 1.891,8.778 2.843,12.104 0.952,3.326 1.837,5.78 2.266,7.426 0.429,1.646 0.402,2.484 0.362,3.011 -0.04,0.526 -0.094,0.741 -0.225,1.071 -0.132,0.331 -0.341,0.778 -0.551,1.225 0.08,-0.05 0.184,-0.055 0.308,0.038 0.124,0.094 0.27,0.285 0.345,0.376 0.074,0.092 0.076,0.085 0.078,0.081 0.001,-0.004 0.001,-0.004 0.115,0.253 0.114,0.256 0.343,0.769 0.597,1.463 0.254,0.694 0.533,1.569 0.762,2.507 0.229,0.938 0.408,1.939 0.607,3.547 0.2,1.608 0.422,3.823 0.739,6.228 0.316,2.406 0.729,5.001 1.468,11.393 0.739,6.392 1.805,16.58 2.64,24.511 0.835,7.931 1.439,13.604 1.811,19.699 0.372,6.095 0.513,12.613 0.503,19.654 -0.01,7.04 -0.171,14.604 -0.372,20.609 -0.202,6.004 -0.443,10.45 -0.725,14.423 -0.281,3.973 -0.603,7.473 -1.448,14.162 -0.845,6.688 -2.213,16.566 -3.007,23.777 -0.795,7.212 -1.016,11.758 -1.217,15.269 -0.202,3.51 -0.383,5.984 -0.674,8.122 -0.292,2.137 -0.694,3.937 -0.973,5.315 -0.279,1.378 -0.436,2.334 -0.453,2.935 -0.018,0.601 0.103,0.847 0.249,0.975 0.146,0.129 0.317,0.138 0.5,0.175 0.184,0.036 0.38,0.099 0.469,0.155 0.019,0.011 0.032,0.022 0.042,0.037 0.876,0.322 1.753,0.645 3.155,0.925 1.401,0.28 3.329,0.518 6.493,0.754 3.163,0.237 7.562,0.472 11.099,0.609 3.537,0.138 6.212,0.178 9.592,0.181 3.38,0.003 7.463,-0.03 11.329,-0.007 3.866,0.024 7.513,0.104 10.591,0.191 3.078,0.088 5.586,0.181 7.916,0.252 2.33,0.07 4.483,0.117 6.789,0.171 2.307,0.053 4.768,0.114 7.356,0.121 2.589,0.006 5.304,-0.041 8.04,-0.098 2.736,-0.057 5.492,-0.124 7.953,-0.221 2.461,-0.097 4.626,-0.225 7.017,-0.355 2.39,-0.131 5.006,-0.265 8.261,-0.493 3.256,-0.228 7.151,-0.55 10.471,-0.852 3.319,-0.302 6.061,-0.583 8.794,-0.949 2.732,-0.365 5.455,-0.814 7.654,-1.25 2.2,-0.436 3.876,-0.858 6.001,-1.331 2.126,-0.473 4.701,-0.996 6.595,-1.321 1.894,-0.325 3.108,-0.453 4.268,-0.536 1.16,-0.084 2.267,-0.124 3.155,-0.117 0.889,0.008 1.559,0.063 1.956,0.094 0.396,0.031 0.518,0.038 0.611,0.043 0.049,0.002 0.09,0.004 0.127,0.006 0.093,-0.07 0.162,-0.18 0.177,-0.779 0.016,-0.673 -0.037,-1.966 -0.106,-2.786 -0.069,-0.819 -0.154,-1.166 -0.285,-1.855 -0.131,-0.689 -0.307,-1.72 -0.651,-2.686 -0.345,-0.965 -0.858,-1.866 -1.476,-3.045 -0.619,-1.179 -1.343,-2.638 -1.783,-3.616 -0.44,-0.978 -0.596,-1.476 -0.848,-2.693 -0.251,-1.217 -0.598,-3.153 -0.953,-5.871 -0.354,-2.718 -0.716,-6.219 -1.038,-8.884 -0.322,-2.666 -0.603,-4.496 -1.081,-7.559 -0.478,-3.062 -1.152,-7.357 -1.71,-11.521 -0.558,-4.164 -1.001,-8.198 -1.348,-12.226 -0.347,-4.028 -0.598,-8.051 -0.759,-11.637 -0.161,-3.586 -0.231,-6.734 -0.287,-9.787 -0.055,-3.052 -0.095,-6.01 -0.156,-9.258 -0.06,-3.249 -0.14,-6.79 -0.108,-12.037 0.033,-5.248 0.179,-12.203 0.352,-17.466 0.174,-5.263 0.375,-8.834 0.652,-12.807 0.276,-3.973 0.628,-8.348 0.975,-12.271 0.347,-3.922 0.689,-7.393 1.122,-11.743 0.432,-4.35 0.955,-9.58 1.483,-13.99 0.528,-4.411 1.061,-8.002 1.512,-10.619 0.45,-2.618 0.817,-4.262 1.139,-5.308 0.321,-1.046 0.598,-1.494 0.803,-1.766 0.205,-0.271 0.338,-0.367 0.405,-0.414z"/>
    <g>
    </g>
   </g>
   <g clip-path="url(#id3)">
    <g>
     <path id="_1_0" fill="black" fill-rule="nonzero" d="M-108.303 134.727c4.354,-5.077 12.013,-13.367 22.409,-21.207 10.539,-7.947 23.925,-15.481 39.674,-18.942 5.485,-1.205 10.905,-1.856 15.063,-2.207 4.045,-0.342 7.17,-0.406 7.64,-0.414 11.294,-0.195 17.906,1.277 26.34,3.156 4.312,0.96 9.122,2.031 15.072,2.985l0.01 0.002c12.611,2.022 27.284,4.375 44.879,1.623 2.796,-0.437 7.515,-1.285 13.233,-2.96 5.796,-1.697 12.784,-4.271 20.257,-8.193 7.693,-4.037 13.775,-8.41 19.783,-13.721 6.227,-5.505 12.408,-12.01 20.113,-20.119 3.324,-3.498 7.326,-7.881 11.93,-13.285 4.539,-5.328 9.402,-11.355 14.319,-17.993l8.753 6.463c-5.298,7.153 -10.272,13.335 -14.767,18.611 -4.431,5.2 -8.661,9.816 -12.343,13.692 -7.947,8.363 -14.321,15.072 -20.786,20.787 -6.684,5.908 -13.43,10.763 -21.934,15.226 -8.113,4.258 -15.834,7.092 -22.291,8.982 -6.535,1.914 -11.615,2.835 -14.587,3.3 -19.184,2.999 -34.836,0.49 -48.289,-1.667l-0.011 -0.002c-6.533,-1.048 -11.368,-2.125 -15.703,-3.09 -7.75,-1.726 -13.826,-3.079 -23.786,-2.907 -0.381,0.006 -2.946,0.061 -6.945,0.398 -3.886,0.329 -8.861,0.917 -13.639,1.967 -13.922,3.059 -25.911,9.836 -35.418,17.006 -9.65,7.277 -16.709,14.912 -20.714,19.583l-8.262 -7.074zm-2.508 -74.599c2.593,-1.729 5.912,-3.768 9.941,-5.826 4.032,-2.059 8.73,-4.111 14.044,-5.842 10.703,-3.485 18.533,-3.985 28.354,-4.613 4.488,-0.286 9.422,-0.602 15.494,-1.3 4.447,-0.51 10.858,-1.247 17.206,-2.361 6.361,-1.116 12.968,-2.635 18.191,-4.739 4.015,-1.617 10.892,-5.083 18.362,-13.345 7.75,-8.571 16.049,-22.192 22.457,-44.017l10.481 3.071c-6.941,23.641 -16.165,38.653 -24.843,48.252 -8.957,9.906 -17.414,14.147 -22.371,16.143 -6.027,2.428 -13.396,4.136 -20.415,5.368 -7.034,1.234 -13.408,1.966 -17.83,2.474 -6.064,0.698 -11.3,1.032 -16.062,1.337 -9.049,0.578 -16.264,1.039 -25.675,4.103 -4.724,1.539 -8.873,3.348 -12.416,5.158 -3.547,1.812 -6.532,3.65 -8.891,5.222l-6.027 -9.085zm10.456 31.594c10.047,-5.655 19.446,-9.893 27.89,-13.098 8.453,-3.207 15.958,-5.384 22.205,-6.913 17.711,-4.336 36.068,-6.096 44.356,-6.891l0.001 0c9.445,-0.906 16.059,-1.199 21.212,-1.427 8.234,-0.365 12.415,-0.55 18.993,-3.082 14.381,-5.534 23.338,-15.331 28.96,-21.501l0.058 -0.065c7.547,-8.283 12.85,-16.97 16.599,-24.965 3.752,-8.005 5.942,-15.321 7.263,-20.849l10.614 2.531c-1.45,6.065 -3.858,14.104 -7.997,22.933 -4.115,8.777 -9.946,18.33 -18.256,27.496l-0.004 0.006 -0.173 0.189c-6.28,6.894 -16.307,17.901 -33.16,24.386 -8.267,3.182 -13.042,3.394 -22.445,3.81 -4.996,0.222 -11.409,0.506 -20.644,1.391l-0.001 0c-8.038,0.771 -25.843,2.478 -42.798,6.629 -5.878,1.439 -12.948,3.49 -20.928,6.519 -7.989,3.032 -16.881,7.041 -26.39,12.393l-5.355 -9.492zm45.754 209.068c1.521,-0.691 5.331,-2.529 9.38,-5.909 3.947,-3.295 8.106,-8.072 10.444,-14.686l0.001 0 0 -0.003c0.992,-2.805 3.363,-9.513 1.199,-16.377 -0.953,-3.025 -2.666,-5.64 -5.707,-8.372 -3.503,-3.148 -8.668,-6.447 -16.147,-10.506 -16.367,-8.882 -29.927,-13.805 -36.024,-16.018l-1.129 -0.411c-6.745,-2.468 -14.861,-5.805 -23.997,-10.397 -9.099,-4.575 -19.286,-10.436 -30.264,-17.998l6.154 -8.977c10.434,7.187 20.214,12.808 29.006,17.227 8.756,4.402 16.457,7.571 22.825,9.901l1.129 0.411c6.293,2.285 20.289,7.366 37.47,16.69 8.247,4.475 14.066,8.225 18.241,11.976 4.637,4.167 7.296,8.303 8.844,13.216 3.262,10.35 0.05,19.439 -1.293,23.239l-0.001 0 -0.001 0.004c-3.115,8.809 -8.594,15.123 -13.783,19.455 -5.088,4.247 -9.913,6.573 -11.84,7.45l-4.507 -9.915zm-94.828 -80.707c9.52,4.278 17.656,7.802 24.538,10.699 6.513,2.741 12.739,5.258 18.137,7.399l0.645 0.256c8.569,3.396 16.118,6.388 22.99,14.563 3.989,4.745 6.403,9.744 7.898,14.09 1.46,4.242 2.03,7.846 2.34,9.925 1.222,8.192 0.315,15.512 -1.235,21.404 -1.56,5.934 -3.717,10.347 -5.036,12.789l-9.614 -5.177c1.099,-2.033 2.884,-5.671 4.113,-10.345 1.24,-4.716 1.969,-10.562 0.997,-17.075 -0.25,-1.679 -0.711,-4.588 -1.881,-7.989 -1.134,-3.298 -2.95,-7.072 -5.921,-10.606 -5.079,-6.043 -11.441,-8.564 -18.662,-11.426l-0.645 -0.256c-4.569,-1.812 -10.524,-4.231 -18.334,-7.519 -7.44,-3.132 -15.77,-6.731 -24.784,-10.782l4.454 -9.95zm177.193 89.723c4.885,-0.569 8.804,-1.677 11.947,-2.986 3.071,-1.278 5.397,-2.744 7.154,-4.076 2.12,-1.607 3.87,-3.408 5.589,-5.176 3.295,-3.391 6.495,-6.684 12.607,-9.7l0.021 0.003c0.018,-0.009 6.006,-2.962 13.684,-4.16 8.465,-1.322 17.332,0.659 25.394,3.888 14.771,5.917 27.004,16.195 27.916,16.977l-7.074 8.263c-0.813,-0.697 -11.72,-9.862 -24.888,-15.137 -6.441,-2.579 -13.369,-4.185 -19.668,-3.202 -5.908,0.922 -10.271,3.01 -10.561,3.151l0.005 0.011c-4.431,2.187 -6.982,4.811 -9.607,7.513 -1.963,2.021 -3.962,4.078 -6.85,6.266 -2.372,1.798 -5.486,3.766 -9.545,5.456 -3.986,1.66 -8.886,3.056 -14.886,3.755l-1.238 -10.846zm-119.935 -146.932c3.546,5.634 7.184,10.457 10.628,14.525 3.451,4.079 6.652,7.338 9.356,9.883 4.98,4.688 8.486,7.201 10.93,8.562 1.975,1.099 3.003,1.304 3.544,1.39 1.894,0.3 3.652,0.133 5.634,-0.055 2.953,-0.281 6.291,-0.598 11.561,0.061 1.85,0.231 3.675,0.545 5.719,1.043 2.019,0.492 4.334,1.179 7.211,2.166 5.363,1.841 10.635,4.03 17.198,7.341 6.519,3.288 14.239,7.635 24.518,13.799 7.277,4.364 11.73,7.179 14.835,9.585 3.543,2.746 5.306,4.902 6.974,7.769 0.73,1.254 2.326,4.07 3.48,7.922 1.181,3.945 1.888,8.958 0.744,14.513 -1.083,5.267 -3.486,9.403 -6.362,12.824 -2.72,3.234 -5.681,5.655 -8.313,7.807 -4.561,3.729 -7.781,5.225 -11.101,6.768 -1.728,0.803 -3.49,1.622 -5.552,2.911 -2.483,1.551 -5.355,3.767 -8.286,7.052 -3.033,3.4 -6.11,7.896 -8.874,13.9l-9.894 -4.531c3.308,-7.186 6.992,-12.568 10.624,-16.64 3.735,-4.185 7.434,-7.033 10.647,-9.041 2.534,-1.584 4.656,-2.57 6.737,-3.537 2.664,-1.238 5.248,-2.439 8.788,-5.333 2.282,-1.865 4.848,-3.964 6.863,-6.36 1.858,-2.21 3.396,-4.816 4.054,-8.013 0.703,-3.418 0.231,-6.63 -0.539,-9.202 -0.799,-2.665 -1.928,-4.657 -2.445,-5.545 -0.967,-1.663 -2.023,-2.939 -4.204,-4.63 -2.621,-2.031 -6.801,-4.66 -13.788,-8.85 -10.161,-6.092 -17.657,-10.321 -23.803,-13.421 -6.102,-3.079 -10.944,-5.093 -15.821,-6.767 -2.489,-0.854 -4.5,-1.451 -6.263,-1.881 -1.739,-0.423 -3.154,-0.673 -4.499,-0.841 -4.04,-0.505 -6.772,-0.245 -9.189,-0.016 -2.666,0.253 -5.032,0.477 -8.384,-0.052 -1.232,-0.195 -3.526,-0.635 -7.103,-2.627 -3.108,-1.729 -7.383,-4.753 -13.094,-10.13 -3.003,-2.826 -6.514,-6.395 -10.207,-10.759 -3.702,-4.373 -7.644,-9.607 -11.542,-15.8l9.218 -5.79zm-12.665 -13.746c6.236,0.227 12.031,0.413 17.57,0.562 5.317,0.142 9.755,0.229 13.417,0.26l0.084 0.001c2.169,0.018 6.195,0.053 11.482,1.034 6.777,1.258 11.53,3.297 13.718,4.236l0.256 0.109 -0.002 0.005c6.962,2.971 14.725,5.158 21.404,6.71 6.904,1.604 12.448,2.502 15.049,2.923 5.203,0.844 8.312,1.058 10.842,1.233 3.703,0.254 6.329,0.435 11.635,1.96 5.757,1.655 10.708,3.787 14.644,5.791 3.987,2.03 6.823,3.861 8.454,4.968 4.943,3.358 8.816,6.827 12.3,10.556 3.301,3.533 6.257,7.349 9.495,11.561 4.768,6.203 6.927,9.871 12.35,19.085 2.159,3.668 4.825,8.198 8.055,13.584 3.616,6.032 6.331,10.559 9.367,15.54l-0.014 0.009c2.099,3.444 3.351,5.431 3.89,6.134 3.093,4.03 7.686,8.779 14.756,13.261 7.242,4.591 17.047,8.883 30.438,11.846l-2.32 10.649c-14.807,-3.277 -25.776,-8.104 -33.962,-13.293 -8.358,-5.299 -13.849,-10.992 -17.575,-15.847 -0.759,-0.991 -2.204,-3.266 -4.523,-7.071l-0.021 -0.003c-1.386,-2.276 -4.818,-7.998 -9.394,-15.631 -3.574,-5.961 -6.07,-10.2 -8.091,-13.634 -5.292,-8.991 -7.399,-12.57 -11.577,-18.006 -2.99,-3.89 -5.724,-7.419 -8.848,-10.762 -2.939,-3.146 -6.225,-6.085 -10.444,-8.952 -1.466,-0.995 -3.973,-2.618 -7.267,-4.295 -3.345,-1.704 -7.612,-3.533 -12.699,-4.995 -4.324,-1.242 -6.432,-1.388 -9.404,-1.592 -2.723,-0.188 -6.071,-0.418 -11.859,-1.357 -2.807,-0.454 -8.789,-1.424 -15.723,-3.035 -7.153,-1.661 -15.534,-4.033 -23.228,-7.319l-0.021 -0.003 -0.256 -0.11c-1.856,-0.796 -5.892,-2.527 -11.408,-3.551 -4.364,-0.81 -7.772,-0.839 -9.608,-0.855l-0.084 -0.001c-4.154,-0.035 -8.653,-0.12 -13.635,-0.253 -4.76,-0.127 -10.626,-0.32 -17.654,-0.575l0.411 -10.877zm259.559 -43.707c-24.795,6.628 -39.895,12.053 -48.72,16.498 -6.866,3.458 -9.025,5.308 -9.02,6.307l0.019 0.379c0.078,1.596 0.22,4.536 -0.873,8.318 -2.011,6.956 -6.331,10.745 -10.552,14.447 -0.168,0.146 -0.339,0.297 -1.045,0.923 -0.809,0.719 -3.362,2.987 -6.426,6.05 -2.786,2.785 -5.735,5.995 -7.224,8.441 -2.32,3.813 -2.546,8.506 -1.911,13.083 0.71,5.115 2.525,10.23 3.889,14.071 5.502,15.503 17.14,27.941 28.58,37.091 11.632,9.303 23.094,15.214 27.902,17.581l-4.819 9.803c-5.127,-2.523 -17.36,-8.835 -29.897,-18.862 -12.728,-10.18 -25.732,-24.177 -32.054,-41.99 -1.52,-4.281 -3.543,-9.981 -4.405,-16.19 -0.936,-6.747 -0.467,-13.888 3.395,-20.235 2.07,-3.402 5.587,-7.281 8.82,-10.513 2.956,-2.955 5.974,-5.636 6.931,-6.486l1.094 -0.959c3.012,-2.642 6.096,-5.346 7.234,-9.284 0.597,-2.065 0.511,-3.834 0.464,-4.794 -0.013,-0.282 -0.025,-0.519 -0.026,-0.856 -0.022,-4.796 3.573,-10.268 15.039,-16.043 9.505,-4.787 25.314,-10.508 50.802,-17.322l2.803 10.542z"/>
     <path id="_1_1" fill="black" fill-rule="nonzero" d="M176.705 161.992c2.981,-5.987 8.383,-15.897 16.548,-26.039 8.277,-10.282 19.416,-20.859 33.843,-28.063 5.024,-2.509 10.121,-4.464 14.067,-5.821 3.838,-1.319 6.854,-2.145 7.307,-2.268 10.904,-2.949 17.676,-3.137 26.313,-3.376 4.416,-0.122 9.342,-0.259 15.344,-0.787l0.011 -0.001c12.723,-1.121 27.525,-2.425 43.915,-9.392 2.604,-1.108 6.973,-3.083 12.109,-6.104 5.205,-3.062 11.352,-7.266 17.641,-12.895 6.473,-5.795 11.302,-11.521 15.83,-18.14 4.693,-6.859 9.097,-14.677 14.587,-24.423 2.368,-4.204 5.178,-9.433 8.322,-15.797 3.1,-6.275 6.343,-13.308 9.489,-20.947l10.067 4.128c-3.39,8.232 -6.703,15.441 -9.772,21.656 -3.026,6.125 -6,11.635 -8.623,16.293 -5.663,10.051 -10.205,18.114 -15.077,25.235 -5.037,7.363 -10.393,13.719 -17.549,20.124 -6.826,6.112 -13.62,10.746 -19.42,14.158 -5.869,3.452 -10.571,5.587 -13.338,6.763 -17.87,7.596 -33.661,8.988 -47.233,10.183l-0.011 0.001c-6.592,0.581 -11.543,0.718 -15.982,0.841 -7.937,0.22 -14.16,0.392 -23.776,2.993 -0.367,0.099 -2.841,0.779 -6.636,2.084 -3.688,1.267 -8.369,3.054 -12.746,5.239 -12.752,6.368 -22.722,15.87 -30.188,25.145 -7.58,9.415 -12.559,18.543 -15.301,24.051l-9.741 -4.841zm-20.66 -71.724c2.092,-2.311 4.812,-5.099 8.216,-8.079 3.407,-2.982 7.461,-6.12 12.191,-9.096 9.527,-5.995 16.997,-8.393 26.368,-11.402 4.281,-1.374 8.988,-2.886 14.706,-5.047 4.188,-1.581 10.224,-3.862 16.107,-6.493 5.896,-2.637 11.931,-5.724 16.482,-9.041 3.498,-2.549 9.319,-7.59 14.544,-17.427 5.421,-10.205 10.14,-25.441 11.021,-48.17l10.914 0.417c-0.954,24.62 -6.23,41.431 -12.3,52.859 -6.265,11.795 -13.429,17.974 -17.748,21.121 -5.251,3.827 -11.98,7.284 -18.485,10.193 -6.518,2.915 -12.521,5.183 -16.684,6.756 -5.71,2.158 -10.705,3.762 -15.249,5.221 -8.634,2.772 -15.517,4.981 -23.894,10.252 -4.205,2.647 -7.786,5.415 -10.78,8.037 -2.996,2.622 -5.442,5.134 -7.345,7.235l-8.064 -7.336zm17.859 28.081c8.361,-7.939 16.439,-14.345 23.844,-19.516 7.413,-5.176 14.159,-9.12 19.843,-12.13 16.115,-8.532 33.485,-14.724 41.327,-17.52l0.001 0c8.938,-3.186 15.279,-5.086 20.221,-6.567 7.895,-2.366 11.904,-3.567 17.664,-7.63 12.593,-8.88 18.885,-20.568 22.828,-27.925l0.041 -0.077c5.293,-9.877 8.314,-19.596 9.995,-28.265 1.683,-8.678 2.018,-16.308 1.949,-21.991l10.91 -0.14c0.076,6.236 -0.294,14.619 -2.151,24.193 -1.845,9.516 -5.165,20.204 -10.984,31.123l-0.002 0.006 -0.121 0.226c-4.405,8.219 -11.439,21.343 -26.197,31.75 -7.239,5.106 -11.817,6.477 -20.833,9.179 -4.791,1.435 -10.94,3.278 -19.678,6.393l-0.002 0c-7.606,2.712 -24.454,8.718 -39.88,16.886 -5.348,2.831 -11.703,6.548 -18.702,11.435 -7.005,4.892 -14.649,10.952 -22.561,18.466l-7.512 -7.896zm95.453 191.55c1.306,-1.042 4.551,-3.755 7.652,-8.021 3.022,-4.16 5.887,-9.809 6.539,-16.793l0 0 0 -0.004c0.276,-2.962 0.936,-10.046 -2.839,-16.173 -1.663,-2.701 -3.963,-4.817 -7.58,-6.724 -4.166,-2.196 -9.981,-4.133 -18.225,-6.242 -18.041,-4.613 -32.393,-6.074 -38.846,-6.73l-1.195 -0.123c-7.143,-0.745 -15.829,-1.997 -25.81,-4.218 -9.941,-2.212 -21.252,-5.407 -33.744,-10.057l3.773 -10.209c11.874,4.42 22.731,7.481 32.337,9.618 9.566,2.128 17.808,3.32 24.552,4.023l1.195 0.123c6.66,0.677 21.474,2.185 40.413,7.028 9.09,2.325 15.649,4.538 20.614,7.156 5.515,2.907 9.104,6.268 11.805,10.654 5.693,9.24 4.799,18.838 4.425,22.851l-0.001 0 0 0.004c-0.868,9.304 -4.638,16.765 -8.612,22.233 -3.895,5.362 -8.006,8.797 -9.661,10.117l-6.792 -8.513zm-111.675 -55.089c10.277,1.822 19.028,3.251 26.409,4.379 6.985,1.067 13.637,1.986 19.396,2.743l0.688 0.091c9.138,1.199 17.19,2.255 25.851,8.503 5.027,3.626 8.59,7.885 11.102,11.733 2.452,3.757 3.885,7.112 4.694,9.052 3.186,7.645 4.095,14.966 4.032,21.058 -0.063,6.135 -1.075,10.941 -1.759,13.631l-10.587 -2.671c0.568,-2.24 1.411,-6.204 1.461,-11.037 0.05,-4.875 -0.672,-10.721 -3.206,-16.8 -0.653,-1.567 -1.81,-4.275 -3.776,-7.287 -1.906,-2.921 -4.589,-6.137 -8.333,-8.838 -6.402,-4.618 -13.188,-5.509 -20.889,-6.519l-0.688 -0.09c-4.872,-0.641 -11.238,-1.532 -19.615,-2.812 -7.98,-1.219 -16.936,-2.674 -26.667,-4.399l1.887 -10.737zm193.746 43.706c4.598,-1.746 8.128,-3.777 10.856,-5.814 2.665,-1.99 4.562,-3.98 5.941,-5.701 1.663,-2.077 2.92,-4.25 4.154,-6.385 2.367,-4.094 4.665,-8.069 9.855,-12.487l0.021 -0.002c0.015,-0.012 5.101,-4.34 12.252,-7.378 7.886,-3.349 16.968,-3.596 25.575,-2.434 15.769,2.128 30.143,9.106 31.218,9.641l-4.84 9.741c-0.959,-0.477 -13.775,-6.699 -27.833,-8.596 -6.875,-0.928 -13.987,-0.792 -19.854,1.7 -5.503,2.338 -9.224,5.429 -9.471,5.636l0.008 0.01c-3.763,3.204 -5.594,6.371 -7.48,9.633 -1.41,2.439 -2.846,4.921 -5.112,7.75 -1.86,2.322 -4.399,4.992 -7.921,7.622 -3.46,2.584 -7.87,5.135 -13.518,7.279l-3.851 -10.215zm-152.202 -113.171c4.815,4.596 9.521,8.384 13.855,11.487 4.343,3.112 8.243,5.49 11.487,7.297 5.975,3.33 9.988,4.91 12.691,5.632 2.183,0.583 3.231,0.531 3.777,0.482 1.909,-0.173 3.573,-0.764 5.449,-1.431 2.795,-0.993 5.954,-2.116 11.225,-2.765 1.851,-0.228 3.697,-0.37 5.801,-0.386 2.078,-0.016 4.49,0.084 7.522,0.339 5.65,0.474 11.297,1.309 18.47,2.915 7.125,1.596 15.673,3.925 27.147,7.39 8.123,2.454 13.128,4.095 16.727,5.669 4.107,1.798 6.343,3.457 8.661,5.83 1.014,1.037 3.25,3.379 5.31,6.832 2.11,3.536 4.019,8.225 4.268,13.891 0.236,5.371 -1.083,9.969 -3.036,13.989 -1.847,3.801 -4.126,6.873 -6.153,9.602 -3.512,4.73 -6.268,6.968 -9.111,9.276 -1.48,1.201 -2.988,2.425 -4.672,4.179 -2.029,2.111 -4.272,4.961 -6.312,8.863 -2.11,4.038 -3.995,9.15 -5.209,15.647l-10.701 -1.976c1.453,-7.777 3.709,-13.896 6.237,-18.731 2.598,-4.972 5.49,-8.637 8.115,-11.37 2.07,-2.155 3.886,-3.629 5.668,-5.075 2.281,-1.852 4.493,-3.648 7.219,-7.319 1.756,-2.366 3.732,-5.028 5.1,-7.844 1.262,-2.597 2.117,-5.5 1.973,-8.76 -0.153,-3.487 -1.395,-6.486 -2.771,-8.792 -1.426,-2.389 -3.007,-4.045 -3.725,-4.78 -1.345,-1.376 -2.68,-2.355 -5.209,-3.462 -3.037,-1.329 -7.733,-2.856 -15.532,-5.212 -11.342,-3.425 -19.643,-5.694 -26.36,-7.199 -6.67,-1.494 -11.858,-2.264 -16.996,-2.696 -2.622,-0.22 -4.718,-0.307 -6.533,-0.292 -1.79,0.013 -3.222,0.117 -4.567,0.283 -4.041,0.497 -6.627,1.416 -8.915,2.229 -2.524,0.897 -4.763,1.693 -8.143,1.998 -1.242,0.112 -3.574,0.246 -7.529,-0.811 -3.436,-0.918 -8.321,-2.805 -15.173,-6.624 -3.602,-2.006 -7.879,-4.609 -12.526,-7.938 -4.658,-3.336 -9.76,-7.448 -15.053,-12.501l7.524 -7.866zm-15.64 -10.235c6.103,-1.304 11.768,-2.539 17.175,-3.749 5.19,-1.162 9.515,-2.161 13.074,-3.026l0.081 -0.02c2.108,-0.512 6.02,-1.463 11.386,-1.803 6.88,-0.435 11.987,0.38 14.338,0.756l0.275 0.043 -0.001 0.005c7.478,1.181 15.539,1.404 22.395,1.277 7.087,-0.132 12.682,-0.615 15.307,-0.843 5.252,-0.453 8.319,-1.005 10.814,-1.454 3.654,-0.657 6.244,-1.124 11.762,-0.942 5.987,0.198 11.309,1.056 15.615,2.038 4.362,0.994 7.56,2.076 9.412,2.751 5.613,2.048 10.216,4.465 14.506,7.23 4.064,2.62 7.864,5.598 12.032,8.891 6.139,4.851 9.129,7.88 16.639,15.489 2.99,3.029 6.683,6.77 11.131,11.204 4.98,4.965 8.719,8.692 12.88,12.78l-0.012 0.012c2.877,2.827 4.576,4.447 5.271,4.997 3.984,3.153 9.599,6.636 17.55,9.254 8.143,2.682 18.7,4.448 32.409,4.05l0.352 10.892c-15.158,0.441 -26.974,-1.559 -36.18,-4.591 -9.4,-3.096 -16.115,-7.275 -20.914,-11.072 -0.979,-0.776 -2.935,-2.628 -6.114,-5.751l-0.021 0.001c-1.901,-1.868 -6.626,-6.578 -12.93,-12.862 -4.921,-4.906 -8.377,-8.407 -11.176,-11.243 -7.329,-7.425 -10.246,-10.381 -15.626,-14.631 -3.85,-3.042 -7.364,-5.796 -11.209,-8.274 -3.619,-2.333 -7.523,-4.379 -12.316,-6.128 -1.664,-0.607 -4.492,-1.569 -8.096,-2.39 -3.659,-0.834 -8.243,-1.565 -13.534,-1.74 -4.497,-0.148 -6.576,0.226 -9.508,0.753 -2.687,0.484 -5.989,1.079 -11.831,1.583 -2.833,0.245 -8.87,0.767 -15.988,0.899 -7.342,0.136 -16.049,-0.115 -24.312,-1.422l-0.022 0.002 -0.274 -0.044c-1.995,-0.318 -6.331,-1.01 -11.931,-0.656 -4.429,0.281 -7.741,1.086 -9.525,1.519l-0.082 0.02c-4.036,0.981 -8.42,1.998 -13.283,3.086 -4.647,1.04 -10.382,2.286 -17.259,3.756l-2.26 -10.647zm241.011 -105.806c-22.424,12.487 -35.74,21.436 -43.212,27.903 -5.812,5.03 -7.454,7.352 -7.205,8.32l0.111 0.363c0.465,1.528 1.322,4.344 1.186,8.278 -0.25,7.237 -3.514,11.967 -6.703,16.588 -0.126,0.183 -0.256,0.371 -0.787,1.151 -0.609,0.895 -2.531,3.718 -4.753,7.436 -2.02,3.382 -4.096,7.215 -4.942,9.95 -1.319,4.265 -0.391,8.871 1.343,13.154 1.939,4.786 4.949,9.302 7.21,12.694 9.123,13.688 23.447,22.906 36.777,28.983 13.552,6.179 26.112,9.111 31.351,10.231l-2.277 10.683c-5.588,-1.194 -18.993,-4.326 -33.599,-10.985 -14.83,-6.761 -30.86,-17.157 -41.343,-32.885 -2.52,-3.78 -5.874,-8.813 -8.227,-14.622 -2.557,-6.314 -3.847,-13.354 -1.653,-20.452 1.176,-3.805 3.639,-8.425 5.984,-12.35 2.144,-3.587 4.415,-6.924 5.136,-7.982l0.826 -1.197c2.276,-3.299 4.605,-6.674 4.747,-10.771 0.074,-2.148 -0.442,-3.843 -0.721,-4.762 -0.083,-0.271 -0.152,-0.497 -0.236,-0.824 -1.193,-4.645 0.956,-10.829 10.663,-19.231 8.048,-6.965 21.98,-16.375 45.03,-29.211l5.294 9.538z"/>
    </g>
   </g>
   <g clip-path="url(#id4)">
    <path fill="none" d="M44.533 92.099c-0.429,-1.646 -1.314,-4.1 -2.266,-7.426 -0.952,-3.326 -1.971,-7.524 -2.843,-12.104 -0.872,-4.579 -1.596,-9.541 -2.24,-13.927 -0.644,-4.385 -1.207,-8.194 -1.971,-12.15 -0.765,-3.956 -1.73,-8.06 -2.522,-10.974 -0.791,-2.913 -1.409,-4.637 -1.737,-5.811 -0.067,-0.237 -0.121,-0.452 -0.167,-0.649 -0.378,0.305 -0.748,0.599 -1.175,0.936 -0.493,0.39 -1.061,0.837 -1.779,1.475 -0.718,0.637 -1.586,1.465 -2.375,2.331 -0.79,0.866 -1.501,1.771 -2.145,2.665 -0.644,0.894 -1.22,1.777 -1.924,2.935 -0.704,1.158 -1.536,2.591 -2.208,3.821 -0.671,1.229 -1.181,2.255 -1.732,3.264 -0.551,1.008 -1.141,1.999 -1.644,2.942 -0.503,0.943 -0.918,1.838 -1.313,2.759 -0.395,0.922 -0.77,1.87 -1.152,2.756 -0.382,0.887 -0.772,1.712 -1.285,3.043 -0.513,1.331 -1.149,3.17 -1.716,4.911 -0.567,1.741 -1.065,3.386 -1.49,4.836 -0.425,1.451 -0.777,2.709 -1.129,4.225 -0.352,1.516 -0.704,3.291 -1.144,5.668 -0.44,2.376 -0.968,5.353 -1.29,7.073 -0.322,1.72 -0.438,2.183 -0.543,2.673 -0.106,0.491 -0.201,1.009 -0.4,1.833 -0.198,0.825 -0.5,1.957 -0.807,3.143 -0.307,1.187 -0.618,2.43 -0.84,3.478 -0.221,1.049 -0.352,1.904 -0.575,3.166 -0.224,1.262 -0.541,2.932 -0.787,4.297 -0.247,1.366 -0.423,2.427 -0.529,2.975 -0.083,0.431 -0.122,0.545 -0.166,0.598 -0.012,0.015 -0.024,0.025 -0.038,0.036 -0.063,0.05 -0.155,0.115 -0.251,2.246 -0.096,2.13 -0.197,6.326 -0.275,8.622 -0.078,2.297 -0.133,2.694 0.035,2.902 0.169,0.209 0.561,0.229 1.419,0.337 0.857,0.108 2.18,0.305 4.51,0.755 2.332,0.45 5.671,1.154 8.339,1.667 2.668,0.513 4.664,0.835 6.751,1.182 2.088,0.347 4.265,0.719 7.24,1.192 2.975,0.472 6.746,1.046 9.15,1.373 2.404,0.327 3.44,0.407 3.958,0.447 0.518,0.041 0.518,0.041 0.568,-0.543 0.049,-0.583 0.149,-1.75 0.263,-2.759 0.114,-1.009 0.242,-1.86 0.394,-2.937 0.152,-1.077 0.328,-2.379 0.498,-3.576 0.17,-1.197 0.333,-2.289 0.417,-2.902 0.085,-0.614 0.089,-0.749 0.076,-0.865 -0.005,-0.042 -0.013,-0.082 -0.019,-0.194 -0.011,-0.194 -0.019,-0.605 -0.004,-1.624 0.024,-1.607 0.104,-4.725 0.147,-7.257 0.043,-2.532 0.048,-4.478 0.059,-5.601 0.011,-1.123 0.029,-1.422 0.067,-1.618 0.038,-0.197 0.095,-0.29 0.176,-0.338 0.21,-0.447 0.419,-0.894 0.551,-1.225 0.131,-0.33 0.185,-0.545 0.225,-1.071 0.04,-0.527 0.067,-1.365 -0.362,-3.011zm152.791 17.505c-0.018,0.113 -0.004,0.111 -0.041,0.145 -0.038,0.034 -0.128,0.104 -0.133,0.68 -0.005,0.576 0.075,1.657 0.192,3.051 0.117,1.395 0.27,3.102 0.322,4.786 0.051,1.683 0.001,3.343 0.002,4.231 0,0.887 0.052,1.003 0.132,1.078 0.08,0.076 0.188,0.111 1.001,0.06 0.814,-0.051 2.333,-0.188 4.105,-0.324 1.773,-0.137 3.8,-0.273 5.955,-0.431 2.155,-0.158 4.438,-0.339 6.588,-0.463 2.15,-0.123 4.166,-0.188 5.992,-0.299 1.826,-0.111 3.46,-0.267 5.336,-0.47 1.876,-0.204 3.993,-0.455 6.015,-0.682 2.021,-0.226 3.947,-0.427 5.109,-0.565 1.162,-0.139 1.559,-0.214 1.758,-0.327 0.199,-0.113 0.199,-0.264 0.229,-0.906 0.03,-0.641 0.09,-1.772 0.108,-3.132 0.017,-1.361 -0.008,-2.95 -0.023,-4.429 -0.015,-1.478 -0.02,-2.846 -0.038,-3.724 -0.017,-0.877 -0.047,-1.264 -0.071,-1.469 -0.024,-0.198 -0.042,-0.225 -0.079,-0.288 -0.001,-0.002 -0.003,-0.004 -0.004,-0.006 -0.04,-0.068 -0.103,-0.181 -0.174,-0.682 -0.071,-0.5 -0.152,-1.388 -0.255,-2.32 -0.103,-0.933 -0.229,-1.911 -0.348,-2.739 -0.12,-0.827 -0.233,-1.504 -0.413,-2.544 -0.179,-1.042 -0.426,-2.447 -0.613,-3.449 -0.187,-1.002 -0.316,-1.601 -0.436,-2.27 -0.121,-0.668 -0.234,-1.408 -0.366,-2.121 -0.132,-0.713 -0.283,-1.399 -0.425,-2.156 -0.142,-0.757 -0.275,-1.584 -0.375,-2.322 -0.099,-0.738 -0.165,-1.387 -0.239,-2.029 -0.074,-0.643 -0.157,-1.279 -0.257,-2.036 -0.101,-0.757 -0.219,-1.634 -0.34,-2.526 -0.121,-0.891 -0.244,-1.796 -0.353,-2.565 -0.11,-0.768 -0.205,-1.399 -0.373,-2.344 -0.168,-0.945 -0.408,-2.203 -0.82,-4.085 -0.412,-1.881 -0.995,-4.386 -1.704,-6.89 -0.709,-2.505 -1.544,-5.009 -2.651,-7.745 -1.106,-2.736 -2.484,-5.703 -4.093,-8.851 -1.61,-3.149 -3.45,-6.478 -4.878,-8.781 -1.429,-2.304 -2.444,-3.581 -3.453,-4.629 -1.008,-1.049 -2.009,-1.869 -3.015,-2.608 -1.006,-0.739 -2.017,-1.398 -2.582,-1.773 -0.566,-0.375 -0.687,-0.465 -0.756,-0.571 -0.019,-0.029 -0.034,-0.059 -0.046,-0.089 -0.845,2.177 -1.681,4.372 -2.474,6.668 -0.979,2.837 -1.891,5.827 -2.716,11.172 -0.825,5.344 -1.562,13.042 -2.347,18.902 -0.784,5.861 -1.616,9.884 -2.444,13.19 -0.828,3.306 -1.653,5.894 -2.313,7.962 -0.661,2.069 -1.157,3.618 -1.398,4.644 -0.242,1.026 -0.228,1.529 -0.221,1.78 0.006,0.252 0.006,0.252 0.16,0.59 0.155,0.339 0.463,1.016 0.601,1.639 0.139,0.623 0.107,1.192 0.075,1.761 0.066,-0.048 0.066,-0.048 0.049,0.598 -0.018,0.646 -0.053,1.939 -0.108,3.533 -0.056,1.594 -0.131,3.49 -0.173,4.967 -0.041,1.478 -0.049,2.536 -0.079,3.186 -0.03,0.65 -0.083,0.892 -0.102,1.011 0,0.002 0,0.004 0,0.006z"/>
   </g>
  </g>
  <path fill="none" d="M136.796 295.988c2.461,-0.097 4.626,-0.225 7.017,-0.355 2.39,-0.131 5.006,-0.265 8.261,-0.493 3.256,-0.228 7.151,-0.55 10.471,-0.852 3.319,-0.302 6.061,-0.583 8.794,-0.949 2.732,-0.365 5.455,-0.814 7.654,-1.25 2.2,-0.436 3.876,-0.858 6.001,-1.331 2.126,-0.473 4.701,-0.996 6.595,-1.321 1.894,-0.325 3.108,-0.453 4.268,-0.536 1.16,-0.084 2.267,-0.124 3.155,-0.117 0.889,0.008 1.559,0.063 1.956,0.094 0.396,0.031 0.518,0.038 0.611,0.043 0.049,0.002 0.09,0.004 0.127,0.006 0.093,-0.07 0.162,-0.18 0.177,-0.779 0.016,-0.673 -0.037,-1.966 -0.106,-2.786 -0.069,-0.819 -0.154,-1.166 -0.285,-1.855 -0.131,-0.689 -0.307,-1.72 -0.651,-2.686 -0.345,-0.965 -0.858,-1.866 -1.476,-3.045 -0.619,-1.179 -1.343,-2.638 -1.783,-3.616 -0.44,-0.978 -0.596,-1.476 -0.848,-2.693 -0.251,-1.217 -0.598,-3.153 -0.953,-5.871 -0.354,-2.718 -0.716,-6.219 -1.038,-8.884 -0.322,-2.666 -0.603,-4.496 -1.081,-7.559 -0.478,-3.062 -1.152,-7.357 -1.71,-11.521 -0.558,-4.164 -1.001,-8.198 -1.348,-12.226 -0.347,-4.028 -0.598,-8.051 -0.759,-11.637 -0.161,-3.586 -0.231,-6.734 -0.287,-9.787 -0.055,-3.052 -0.095,-6.01 -0.156,-9.258 -0.06,-3.249 -0.14,-6.79 -0.108,-12.037 0.033,-5.248 0.179,-12.203 0.352,-17.466 0.174,-5.263 0.375,-8.834 0.652,-12.807 0.276,-3.973 0.628,-8.348 0.975,-12.271 0.347,-3.922 0.689,-7.393 1.122,-11.743 0.432,-4.35 0.955,-9.58 1.483,-13.99 0.528,-4.411 1.061,-8.002 1.512,-10.619 0.45,-2.618 0.817,-4.262 1.139,-5.308 0.321,-1.046 0.598,-1.494 0.803,-1.766 0.205,-0.271 0.338,-0.367 0.405,-0.414 0.066,-0.048 0.066,-0.048 0.049,0.598 -0.018,0.646 -0.053,1.939 -0.108,3.533 -0.056,1.594 -0.131,3.49 -0.173,4.967 -0.041,1.478 -0.049,2.536 -0.079,3.186 -0.03,0.65 -0.083,0.892 -0.102,1.011 -0.018,0.119 -0.003,0.117 -0.041,0.151 -0.038,0.034 -0.128,0.104 -0.133,0.68 -0.005,0.576 0.075,1.657 0.192,3.051 0.117,1.395 0.27,3.102 0.322,4.786 0.051,1.683 0.001,3.343 0.002,4.231 0,0.887 0.052,1.003 0.132,1.078 0.08,0.076 0.188,0.111 1.001,0.06 0.814,-0.051 2.333,-0.188 4.105,-0.324 1.773,-0.137 3.8,-0.273 5.955,-0.431 2.155,-0.158 4.438,-0.339 6.588,-0.463 2.15,-0.123 4.166,-0.188 5.992,-0.299 1.826,-0.111 3.46,-0.267 5.336,-0.47 1.876,-0.204 3.993,-0.455 6.015,-0.682 2.021,-0.226 3.947,-0.427 5.109,-0.565 1.162,-0.139 1.559,-0.214 1.758,-0.327 0.199,-0.113 0.199,-0.264 0.229,-0.906 0.03,-0.641 0.09,-1.772 0.108,-3.132 0.017,-1.361 -0.008,-2.95 -0.023,-4.429 -0.015,-1.478 -0.02,-2.846 -0.038,-3.724 -0.017,-0.877 -0.047,-1.264 -0.071,-1.469 -0.025,-0.205 -0.043,-0.227 -0.083,-0.294 -0.04,-0.068 -0.103,-0.181 -0.174,-0.682 -0.071,-0.5 -0.152,-1.388 -0.255,-2.32 -0.103,-0.933 -0.229,-1.911 -0.348,-2.739 -0.12,-0.827 -0.233,-1.504 -0.413,-2.544 -0.179,-1.042 -0.426,-2.447 -0.613,-3.449 -0.187,-1.002 -0.316,-1.601 -0.436,-2.27 -0.121,-0.668 -0.234,-1.408 -0.366,-2.121 -0.132,-0.713 -0.283,-1.399 -0.425,-2.156 -0.142,-0.757 -0.275,-1.584 -0.375,-2.322 -0.099,-0.738 -0.165,-1.387 -0.239,-2.029 -0.074,-0.643 -0.157,-1.279 -0.257,-2.036 -0.101,-0.757 -0.219,-1.634 -0.34,-2.526 -0.121,-0.891 -0.244,-1.796 -0.353,-2.565 -0.11,-0.768 -0.205,-1.399 -0.373,-2.344 -0.168,-0.945 -0.408,-2.203 -0.82,-4.085 -0.412,-1.881 -0.995,-4.386 -1.704,-6.89 -0.709,-2.505 -1.544,-5.009 -2.651,-7.745 -1.106,-2.736 -2.484,-5.703 -4.093,-8.851 -1.61,-3.149 -3.45,-6.478 -4.878,-8.781 -1.429,-2.304 -2.444,-3.581 -3.453,-4.629 -1.008,-1.049 -2.009,-1.869 -3.015,-2.608 -1.006,-0.739 -2.017,-1.398 -2.582,-1.773 -0.566,-0.375 -0.687,-0.465 -0.756,-0.571 -0.069,-0.105 -0.087,-0.226 -0.095,-0.303 -0.009,-0.077 -0.009,-0.109 -0.07,-0.174 -0.06,-0.066 -0.181,-0.164 -1.307,-0.714 -1.127,-0.551 -3.259,-1.555 -5.31,-2.603 -2.05,-1.048 -4.019,-2.142 -5.77,-2.976 -1.752,-0.833 -3.286,-1.407 -5.061,-1.957 -1.775,-0.551 -3.792,-1.079 -5.429,-1.507 -1.637,-0.427 -2.894,-0.754 -3.762,-1.008 -0.867,-0.254 -1.345,-0.435 -2.044,-0.7 -0.699,-0.266 -1.619,-0.615 -2.606,-0.909 -0.987,-0.295 -2.041,-0.533 -2.716,-0.687 -0.675,-0.153 -0.972,-0.221 -1.44,-0.471 -0.467,-0.25 -1.106,-0.683 -1.581,-0.937 -0.475,-0.254 -0.787,-0.329 -1.073,-0.365 -0.285,-0.035 -0.544,-0.03 -0.777,-0.03 -0.232,0 -0.438,-0.005 -1.342,-0.33 -0.904,-0.326 -2.506,-0.972 -4.026,-1.577 -1.52,-0.605 -2.959,-1.168 -4.404,-1.748 -1.446,-0.579 -2.9,-1.175 -3.816,-1.569 -0.917,-0.393 -1.297,-0.584 -1.594,-0.779 -0.298,-0.194 -0.514,-0.392 -0.705,-0.497 -0.191,-0.105 -0.356,-0.116 -0.467,-0.117 -0.11,0 -0.164,0.01 -0.251,-0.004 -0.086,-0.014 -0.204,-0.052 -0.587,-0.292 -0.382,-0.24 -1.028,-0.682 -1.678,-1.193 -0.65,-0.51 -1.304,-1.089 -1.956,-1.661 -0.653,-0.572 -1.304,-1.138 -2.311,-1.569 -1.007,-0.431 -2.37,-0.728 -3.723,-0.919 -1.353,-0.191 -2.695,-0.276 -4.576,-0.354 -1.881,-0.078 -4.3,-0.149 -7.931,-0.131 -3.631,0.017 -8.474,0.123 -12.914,0.219 -4.439,0.096 -8.475,0.183 -10.597,0.231 -2.123,0.048 -2.332,0.058 -4.152,0.203 -1.82,0.145 -5.249,0.427 -7.404,0.671 -2.155,0.244 -3.035,0.45 -3.752,0.707 -0.717,0.256 -1.27,0.563 -1.886,1.078 -0.616,0.516 -1.295,1.24 -2.019,1.877 -0.725,0.638 -1.494,1.189 -1.953,1.46 -0.459,0.272 -0.607,0.264 -0.901,0.366 -0.295,0.102 -0.735,0.313 -1.268,0.582 -0.533,0.269 -1.159,0.596 -1.919,0.922 -0.761,0.325 -1.656,0.65 -2.301,0.904 -0.645,0.254 -1.04,0.437 -1.514,0.628 -0.474,0.192 -1.027,0.39 -1.765,0.621 -0.738,0.232 -1.661,0.496 -2.558,0.836 -0.896,0.341 -1.766,0.759 -2.573,1.076 -0.808,0.316 -1.552,0.533 -2.299,0.749 -0.746,0.216 -1.496,0.432 -2.053,0.655 -0.557,0.222 -0.921,0.451 -1.207,0.636 -0.285,0.185 -0.491,0.326 -0.999,0.476 -0.508,0.15 -1.318,0.31 -1.914,0.463 -0.596,0.154 -0.978,0.301 -1.488,0.492 -0.51,0.192 -1.147,0.429 -1.75,0.617 -0.603,0.189 -1.171,0.329 -1.687,0.459 -0.516,0.13 -0.98,0.248 -1.7,0.426 -0.719,0.179 -1.693,0.418 -2.551,0.633 -0.857,0.216 -1.598,0.408 -2.171,0.57 -0.573,0.161 -0.979,0.292 -1.436,0.426 -0.456,0.134 -0.963,0.271 -1.427,0.4 -0.465,0.129 -0.887,0.249 -1.312,0.377 -0.424,0.128 -0.85,0.262 -1.203,0.399 -0.353,0.137 -0.632,0.277 -1.012,0.437 -0.38,0.159 -0.862,0.339 -1.279,0.53 -0.417,0.191 -0.769,0.394 -1.165,0.602 -0.397,0.209 -0.838,0.424 -1.221,0.617 -0.382,0.194 -0.705,0.366 -1.126,0.589 -0.421,0.223 -0.941,0.495 -1.657,0.865 -0.717,0.371 -1.631,0.838 -2.694,1.37 -1.063,0.532 -2.275,1.128 -3.18,1.576 -0.905,0.448 -1.504,0.747 -2.037,1.087 -0.533,0.341 -1.001,0.723 -1.443,1.08 -0.443,0.358 -0.86,0.689 -1.353,1.079 -0.493,0.39 -1.061,0.837 -1.779,1.475 -0.718,0.637 -1.586,1.465 -2.375,2.331 -0.79,0.866 -1.501,1.771 -2.145,2.665 -0.644,0.894 -1.22,1.777 -1.924,2.935 -0.704,1.158 -1.536,2.591 -2.208,3.821 -0.671,1.229 -1.181,2.255 -1.732,3.264 -0.551,1.008 -1.141,1.999 -1.644,2.942 -0.503,0.943 -0.918,1.838 -1.313,2.759 -0.395,0.922 -0.77,1.87 -1.152,2.756 -0.382,0.887 -0.772,1.712 -1.285,3.043 -0.513,1.331 -1.149,3.17 -1.716,4.911 -0.567,1.741 -1.065,3.386 -1.49,4.836 -0.425,1.451 -0.777,2.709 -1.129,4.225 -0.352,1.516 -0.704,3.291 -1.144,5.668 -0.44,2.376 -0.968,5.353 -1.29,7.073 -0.322,1.72 -0.438,2.183 -0.543,2.673 -0.106,0.491 -0.201,1.009 -0.4,1.833 -0.198,0.825 -0.5,1.957 -0.807,3.143 -0.307,1.187 -0.618,2.43 -0.84,3.478 -0.221,1.049 -0.352,1.904 -0.575,3.166 -0.224,1.262 -0.541,2.932 -0.787,4.297 -0.247,1.366 -0.423,2.427 -0.529,2.975 -0.105,0.548 -0.14,0.583 -0.204,0.634 -0.063,0.05 -0.155,0.115 -0.251,2.246 -0.096,2.13 -0.197,6.326 -0.275,8.622 -0.078,2.297 -0.133,2.694 0.035,2.902 0.169,0.209 0.561,0.229 1.419,0.337 0.857,0.108 2.18,0.305 4.51,0.755 2.332,0.45 5.671,1.154 8.339,1.667 2.668,0.513 4.664,0.835 6.751,1.182 2.088,0.347 4.265,0.719 7.24,1.192 2.975,0.472 6.746,1.046 9.15,1.373 2.404,0.327 3.44,0.407 3.958,0.447 0.518,0.041 0.518,0.041 0.568,-0.543 0.049,-0.583 0.149,-1.75 0.263,-2.759 0.114,-1.009 0.242,-1.86 0.394,-2.937 0.152,-1.077 0.328,-2.379 0.498,-3.576 0.17,-1.197 0.333,-2.289 0.417,-2.902 0.085,-0.614 0.089,-0.749 0.076,-0.865 -0.014,-0.116 -0.047,-0.211 -0.023,-1.818 0.024,-1.607 0.104,-4.725 0.147,-7.257 0.043,-2.532 0.048,-4.478 0.059,-5.601 0.011,-1.123 0.029,-1.422 0.067,-1.618 0.038,-0.197 0.095,-0.29 0.176,-0.338 0.08,-0.05 0.184,-0.055 0.308,0.038 0.124,0.094 0.27,0.285 0.345,0.376 0.074,0.092 0.076,0.085 0.078,0.081 0.001,-0.004 0.001,-0.004 0.115,0.253 0.114,0.256 0.343,0.769 0.597,1.463 0.254,0.694 0.533,1.569 0.762,2.507 0.229,0.938 0.408,1.939 0.607,3.547 0.2,1.608 0.422,3.823 0.739,6.228 0.316,2.406 0.729,5.001 1.468,11.393 0.739,6.392 1.805,16.58 2.64,24.511 0.835,7.931 1.439,13.604 1.811,19.699 0.372,6.095 0.513,12.613 0.503,19.654 -0.01,7.04 -0.171,14.604 -0.372,20.609 -0.202,6.004 -0.443,10.45 -0.725,14.423 -0.281,3.973 -0.603,7.473 -1.448,14.162 -0.845,6.688 -2.213,16.566 -3.007,23.777 -0.795,7.212 -1.016,11.758 -1.217,15.269 -0.202,3.51 -0.383,5.984 -0.674,8.122 -0.292,2.137 -0.694,3.937 -0.973,5.315 -0.279,1.378 -0.436,2.334 -0.453,2.935 -0.018,0.601 0.103,0.847 0.249,0.975 0.146,0.129 0.317,0.138 0.5,0.175 0.184,0.036 0.38,0.099 0.469,0.155 0.019,0.011 0.032,0.022 0.042,0.037 0.876,0.322 1.753,0.645 3.155,0.925 1.401,0.28 3.329,0.518 6.493,0.754 3.163,0.237 7.562,0.472 11.099,0.609 3.537,0.138 6.212,0.178 9.592,0.181 3.38,0.003 7.463,-0.03 11.329,-0.007 3.866,0.024 7.513,0.104 10.591,0.191 3.078,0.088 5.586,0.181 7.916,0.252 2.33,0.07 4.483,0.117 6.789,0.171 2.307,0.053 4.768,0.114 7.356,0.121 2.589,0.006 5.304,-0.041 8.04,-0.098 2.736,-0.057 5.492,-0.124 7.953,-0.221z"/>
 </g>
</svg>
