<?xml version="1.0" encoding="UTF-8"?>
<!DOCTYPE svg PUBLIC "-//W3C//DTD SVG 1.1//EN" "http://www.w3.org/Graphics/SVG/1.1/DTD/svg11.dtd">
<!-- Creator: CorelDRAW -->
<svg xmlns="http://www.w3.org/2000/svg" xml:space="preserve" width="181px" height="149px" version="1.1" shape-rendering="geometricPrecision" text-rendering="geometricPrecision" image-rendering="optimizeQuality" fill-rule="evenodd" clip-rule="evenodd"
viewBox="0 0 205.498 169.387"
 xmlns:xlink="http://www.w3.org/1999/xlink"
 xmlns:xodm="http://www.corel.com/coreldraw/odm/2003">
 <defs>
   <clipPath id="id0">
    <path d="M91.234 163.341c0.06,-0.29 0.117,-0.718 0.209,-2.252 0.091,-1.534 0.216,-4.174 0.518,-9.369 0.303,-5.195 0.782,-12.944 1.164,-18.604 0.382,-5.659 0.667,-9.229 1.038,-13.175 0.37,-3.946 0.826,-8.268 1.397,-12.773 0.57,-4.505 1.254,-9.192 2.132,-14.518 0.879,-5.326 1.95,-11.291 2.766,-15.197 0.815,-3.906 1.374,-5.753 1.733,-6.921 0.358,-1.167 0.516,-1.655 0.64,-1.921 0.123,-0.267 0.212,-0.313 0.296,-0.305 0.084,0.008 0.164,0.069 0.266,0.183 0.103,0.113 0.228,0.278 0.391,0.627 0.163,0.349 0.362,0.88 0.684,1.602 0.321,0.721 0.764,1.632 1.146,2.525 0.381,0.893 0.7,1.768 0.836,2.443 0.135,0.674 0.087,1.147 0.127,1.679 0.04,0.532 0.168,1.122 0.504,1.619 0.337,0.498 0.881,0.903 1.195,1.44 0.314,0.538 0.396,1.208 0.602,2.158 0.205,0.951 0.533,2.183 0.646,3.113 0.112,0.929 0.009,1.556 -0.098,2.148 -0.106,0.591 -0.218,1.148 -0.101,1.705 0.117,0.557 0.462,1.116 0.865,1.635 0.404,0.519 0.866,0.998 1.149,1.313 0.284,0.315 0.39,0.466 0.491,0.609 0.101,0.142 0.198,0.276 0.351,0.879 0.152,0.603 0.36,1.675 0.439,2.419 0.078,0.745 0.027,1.161 -0.003,1.576 -0.03,0.415 -0.039,0.828 -0.073,1.354 -0.034,0.526 -0.094,1.165 -0.085,1.751 0.008,0.586 0.085,1.119 0.46,1.91 0.375,0.791 1.048,1.84 1.685,2.689 0.637,0.848 1.239,1.495 1.643,1.902 0.404,0.407 0.611,0.574 0.797,0.87 0.186,0.296 0.351,0.72 0.488,1.263 0.137,0.544 0.246,1.205 0.304,1.972 0.058,0.767 0.067,1.64 0.054,2.608 -0.013,0.968 -0.047,2.031 0.15,2.999 0.197,0.968 0.624,1.84 1.101,2.577 0.476,0.738 1,1.339 1.389,1.826 0.39,0.488 0.644,0.862 0.856,1.23 0.213,0.367 0.384,0.729 0.555,1.154 0.171,0.425 0.342,0.913 0.472,1.479 0.13,0.566 0.218,1.21 0.339,1.795 0.121,0.584 0.275,1.108 0.375,1.699 0.1,0.59 0.145,1.246 0.32,2.204 0.174,0.958 0.476,2.218 0.678,3.273 0.203,1.055 0.305,1.904 0.416,2.657 0.112,0.753 0.231,1.409 0.325,2.284 0.094,0.875 0.163,1.97 0.294,2.774 0.131,0.804 0.325,1.317 0.465,2.09 0.14,0.772 0.225,1.805 0.299,2.412 0.074,0.607 0.137,0.79 0.288,0.952 0.104,0.112 0.251,0.215 0.437,0.32 -0.079,-0.368 -0.154,-0.732 -0.127,-0.999 0.028,-0.278 0.168,-0.45 0.332,-0.556 0.164,-0.105 0.352,-0.145 0.75,-0.063 0.398,0.082 1.007,0.284 1.729,0.399 0.723,0.115 1.56,0.144 2.868,0.151 1.309,0.007 3.089,-0.007 5.568,-0.327 2.479,-0.319 5.657,-0.943 8.788,-1.599 3.132,-0.656 6.217,-1.344 9.657,-2.107 3.44,-0.762 7.234,-1.599 10.248,-2.124 3.014,-0.525 5.249,-0.737 8.16,-0.854 2.912,-0.118 6.502,-0.139 10.137,0.024 3.635,0.163 7.316,0.511 9.976,0.862 2.66,0.351 4.298,0.706 5.688,1.227 1.391,0.522 2.533,1.21 3.226,1.734 0.693,0.524 0.938,0.884 1.054,1.193 0.116,0.309 0.104,0.568 -0.007,0.887 -0.11,0.319 -0.318,0.698 -0.526,1.077 0.192,-0.063 0.354,-0.202 0.566,-0.399 0.232,-0.218 0.523,-0.509 0.64,-0.957 0.116,-0.447 0.059,-1.052 0.065,-2.577 0.006,-1.525 0.074,-3.972 0.052,-6.694 -0.023,-2.724 -0.137,-5.723 -0.194,-7.553 -0.057,-1.831 -0.057,-2.492 -0.057,-3.427 0,-0.936 0,-2.144 -0.029,-3.276 -0.028,-1.132 -0.085,-2.187 -0.111,-3.279 -0.025,-1.092 -0.02,-2.221 -0.091,-4.009 -0.072,-1.787 -0.22,-4.234 -0.3,-6.212 -0.079,-1.979 -0.091,-3.49 -0.231,-7.51 -0.139,-4.02 -0.407,-10.55 -0.929,-16.996 -0.522,-6.446 -1.297,-12.81 -2.278,-18.854 -0.981,-6.045 -2.167,-11.77 -3.341,-17.21 -1.175,-5.44 -2.338,-10.594 -3.867,-15.864 -1.528,-5.268 -3.421,-10.651 -5.246,-15.498 -1.824,-4.847 -3.581,-9.158 -4.618,-11.657 -1.038,-2.499 -1.357,-3.186 -1.494,-3.631 -0.137,-0.445 -0.092,-0.647 0.009,-0.803 0.102,-0.155 0.258,-0.263 0.386,-0.349 0.014,-0.01 0.028,-0.019 0.041,-0.029 -0.042,-0.002 -0.088,-0.005 -0.144,-0.008 -0.105,-0.005 -0.243,-0.013 -0.693,-0.048 -0.449,-0.035 -1.21,-0.098 -2.217,-0.107 -1.008,-0.008 -2.262,0.038 -3.577,0.132 -1.316,0.095 -2.692,0.24 -4.839,0.609 -2.148,0.368 -5.068,0.962 -7.478,1.498 -2.41,0.535 -4.311,1.014 -6.805,1.509 -2.494,0.494 -5.581,1.003 -8.679,1.418 -3.098,0.414 -6.208,0.733 -9.971,1.076 -3.764,0.341 -8.181,0.707 -11.872,0.965 -3.692,0.259 -6.657,0.41 -9.367,0.559 -2.711,0.148 -5.167,0.292 -7.957,0.403 -2.79,0.11 -5.915,0.186 -9.017,0.251 -3.102,0.064 -6.181,0.117 -9.116,0.11 -2.935,-0.008 -5.725,-0.076 -8.341,-0.137 -2.615,-0.061 -5.056,-0.114 -7.698,-0.194 -2.642,-0.08 -5.486,-0.186 -8.975,-0.285 -3.49,-0.099 -7.626,-0.19 -12.01,-0.217 -4.383,-0.026 -9.013,0.012 -12.845,0.008 -3.832,-0.004 -6.865,-0.049 -10.876,-0.205 -4.011,-0.156 -8.998,-0.422 -12.585,-0.69 -3.587,-0.268 -5.773,-0.538 -7.362,-0.856 -1.59,-0.318 -2.583,-0.683 -3.577,-1.049 0.044,0.064 0.021,0.188 -0.027,0.625 -0.062,0.551 -0.164,1.597 -0.449,3.521 -0.286,1.925 -0.753,4.728 -1.058,6.779 -0.305,2.052 -0.448,3.352 -0.79,5.493 -0.342,2.141 -0.884,5.124 -1.32,7.752 -0.436,2.629 -0.767,4.904 -1.029,6.823 -0.263,1.919 -0.457,3.481 -0.636,5.294 -0.18,1.814 -0.345,3.878 -0.525,6.376 -0.18,2.497 -0.373,5.428 -0.567,8.701 -0.194,3.273 -0.388,6.888 -0.53,10.743 -0.143,3.855 -0.234,7.949 -0.206,12.14 0.029,4.192 0.177,8.48 0.468,12.648 0.291,4.169 0.724,8.217 1.009,11.855 0.285,3.638 0.422,6.865 0.485,10.435 0.063,3.57 0.051,7.481 0.091,11.969 0.04,4.488 0.131,9.552 0.223,13.777 0.091,4.225 0.182,7.612 0.266,9.945 0.084,2.332 0.162,3.609 0.193,4.373 0.031,0.764 0.017,1.015 0.027,2.23 0.01,1.214 0.044,3.393 0.078,4.946 0.035,1.554 0.069,2.484 0.137,3.037 0.068,0.553 0.171,0.73 0.482,1.055 0.311,0.325 0.83,0.798 2.632,1.177 1.802,0.38 4.886,0.665 7.829,0.918 2.942,0.254 5.742,0.476 10.492,0.73 4.75,0.254 11.451,0.539 16.4,0.753 4.95,0.214 8.149,0.356 10.954,0.382 2.806,0.026 5.218,-0.066 7.656,-0.143 2.438,-0.077 4.901,-0.139 7.25,-0.216 2.35,-0.077 4.585,-0.168 7.735,-0.565 3.151,-0.396 7.217,-1.098 9.757,-1.616 2.54,-0.519 3.556,-0.856 4.448,-1.309 0.892,-0.453 1.662,-1.024 2.078,-1.386 0.417,-0.362 0.479,-0.516 0.539,-0.807z"/>
   </clipPath>
    <clipPath id="id1">
     <path d="M126.868 7.208c-3.692,0.259 -6.657,0.41 -9.367,0.559 -2.711,0.148 -5.167,0.292 -7.957,0.403 -2.79,0.11 -5.915,0.186 -9.017,0.251l-0.168 0.003 -0.203 0.004 -0.658 0.014 -0.07 0.001 -0.359 0.007 -0.209 0.004 -0.131 0.003 -0.253 0.004 -0.26 0.005 -0.531 0.009 -0.079 0.002 -0.276 0.004 -0.23 0.004 -0.357 0.006 -0.115 0.002 -0.088 0.001 -0.101 0.001 -0.118 0.002 -0.783 0.01 -0.066 0.001c0.077,0.533 0.157,1.09 0.241,1.678 0.521,3.612 1.205,8.363 1.612,11.976 0.408,3.612 0.539,6.086 1.088,9.846 0.549,3.758 1.516,8.803 2.362,13.439 0.846,4.636 1.571,8.864 2.128,11.482 0.557,2.618 0.946,3.625 1.265,4.398 0.319,0.772 0.568,1.31 0.72,1.7 0.152,0.39 0.206,0.631 0.184,0.807 -0.021,0.175 -0.12,0.285 -0.256,0.446 -0.135,0.161 -0.307,0.373 -0.481,0.599 -0.173,0.226 -0.349,0.466 -0.581,1.057 -0.233,0.592 -0.523,1.535 -0.813,2.478l0.001 -0.001c0.014,-0.019 0.028,-0.034 0.041,-0.047l0.006 -0.006 0.009 -0.009 0.004 -0.004 0.005 -0.003 0.011 -0.008 0.001 -0.001 0.023 -0.014 0.005 -0.002 0.001 -0.001 0.01 -0.004 0.022 -0.006 0.001 0 0.004 0 0.003 -0.001 0.005 -0.001 0.007 0 0.002 0 0.005 -0.001 0.004 0 0.005 0.001 0.003 0 0.004 0 0.004 0c0.084,0.008 0.164,0.069 0.266,0.183 0.103,0.113 0.228,0.278 0.391,0.627 0.163,0.349 0.362,0.88 0.684,1.602 0.321,0.721 0.764,1.632 1.146,2.525 0.381,0.893 0.7,1.768 0.836,2.443 0.135,0.674 0.087,1.147 0.127,1.679 0.04,0.532 0.168,1.122 0.504,1.619 0.337,0.498 0.881,0.903 1.195,1.44 0.314,0.538 0.396,1.208 0.602,2.158 0.205,0.951 0.533,2.183 0.646,3.113 0.112,0.929 0.009,1.556 -0.098,2.148 -0.106,0.591 -0.218,1.148 -0.101,1.705 0.117,0.557 0.462,1.116 0.865,1.635 0.404,0.519 0.866,0.998 1.149,1.313 0.284,0.315 0.39,0.466 0.491,0.609 0.101,0.142 0.198,0.276 0.351,0.879 0.152,0.603 0.36,1.675 0.439,2.419 0.078,0.745 0.027,1.161 -0.003,1.576 -0.03,0.415 -0.039,0.828 -0.073,1.354 -0.034,0.526 -0.094,1.165 -0.085,1.751 0.008,0.586 0.085,1.119 0.46,1.91 0.375,0.791 1.048,1.84 1.685,2.689 0.637,0.848 1.239,1.495 1.643,1.902 0.404,0.407 0.611,0.574 0.797,0.87 0.186,0.296 0.351,0.72 0.488,1.263 0.137,0.544 0.246,1.205 0.304,1.972 0.058,0.767 0.067,1.64 0.054,2.608 -0.013,0.968 -0.047,2.031 0.15,2.999 0.197,0.968 0.624,1.84 1.101,2.577 0.476,0.738 1,1.339 1.389,1.826 0.39,0.488 0.644,0.862 0.856,1.23 0.213,0.367 0.384,0.729 0.555,1.154 0.171,0.425 0.342,0.913 0.472,1.479 0.13,0.566 0.218,1.21 0.339,1.795 0.121,0.584 0.275,1.108 0.375,1.699 0.1,0.59 0.145,1.246 0.32,2.204 0.174,0.958 0.476,2.218 0.678,3.273 0.203,1.055 0.305,1.904 0.416,2.657 0.112,0.753 0.231,1.409 0.325,2.284 0.094,0.875 0.163,1.97 0.294,2.774 0.131,0.804 0.325,1.317 0.465,2.09 0.14,0.772 0.225,1.805 0.299,2.412 0.074,0.607 0.137,0.79 0.288,0.952l0.005 0.005 0.005 0.006 0.005 0.005 0.01 0.01 0.006 0.005 0.015 0.016 0.012 0.01 0.005 0.005 0.006 0.005 0.005 0.006 0.006 0.005 0.012 0.01 0.012 0.01 0.006 0.005 0.006 0.005 0.013 0.01 0.006 0.005 0.019 0.015 0.007 0.005 0.007 0.005 0.02 0.015 0.007 0.005 0.007 0.005 0.028 0.02 0.014 0.009 0.008 0.005 0.015 0.01 0.015 0.01 0.015 0.01 0.008 0.005 0.016 0.009 0.008 0.005 0.008 0.005 0.016 0.01 0.016 0.01 0.025 0.014 0.009 0.006 0.008 0.004 0.009 0.005 0.009 0.005 0.008 0.005c-0.079,-0.368 -0.154,-0.732 -0.127,-0.999 0.028,-0.278 0.168,-0.45 0.332,-0.556 0.164,-0.105 0.352,-0.145 0.75,-0.063 0.398,0.082 1.007,0.284 1.729,0.399 0.723,0.115 1.56,0.144 2.868,0.151 1.309,0.007 3.089,-0.007 5.568,-0.327 2.479,-0.319 5.657,-0.943 8.788,-1.599 3.132,-0.656 6.217,-1.344 9.657,-2.107 3.44,-0.762 7.234,-1.599 10.248,-2.124 3.014,-0.525 5.249,-0.737 8.16,-0.854 2.912,-0.118 6.502,-0.139 10.137,0.024 3.635,0.163 7.316,0.511 9.976,0.862 2.66,0.351 4.298,0.706 5.688,1.227 1.391,0.522 2.533,1.21 3.226,1.734 0.693,0.524 0.938,0.884 1.054,1.193 0.116,0.309 0.104,0.568 -0.007,0.887l-0.005 0.015 -0.011 0.031 -0.006 0.015 -0.011 0.031 -0.012 0.03 -0.02 0.048 -0.006 0.015 -0.014 0.033 -0.014 0.032 -0.008 0.016 -0.022 0.049 -0.015 0.033 -0.008 0.017 -0.032 0.067 -0.008 0.016 -0.026 0.051 -0.017 0.034 -0.017 0.035 -0.018 0.034 -0.055 0.104c-0.064,0.123 -0.132,0.246 -0.201,0.371l0.036 -0.012 0.026 -0.011 0.017 -0.008 0.026 -0.012 0.026 -0.013 0.009 -0.005 0.025 -0.014 0.025 -0.016 0.017 -0.01 0.026 -0.018c0.059,-0.04 0.119,-0.088 0.182,-0.143l0.092 -0.083 0.039 -0.036 0.01 -0.009 0.01 -0.009c0.232,-0.218 0.523,-0.509 0.64,-0.957 0.116,-0.447 0.059,-1.052 0.065,-2.577 0.006,-1.525 0.074,-3.972 0.052,-6.694 -0.023,-2.724 -0.137,-5.723 -0.194,-7.553 -0.057,-1.831 -0.057,-2.492 -0.057,-3.427 0,-0.936 0,-2.144 -0.029,-3.276 -0.028,-1.132 -0.085,-2.187 -0.111,-3.279 -0.025,-1.092 -0.02,-2.221 -0.091,-4.009 -0.072,-1.787 -0.22,-4.234 -0.3,-6.212 -0.079,-1.979 -0.091,-3.49 -0.231,-7.51 -0.139,-4.02 -0.407,-10.55 -0.929,-16.996 -0.522,-6.446 -1.297,-12.81 -2.278,-18.854 -0.981,-6.045 -2.167,-11.77 -3.341,-17.21 -1.175,-5.44 -2.338,-10.594 -3.867,-15.864 -1.528,-5.268 -3.421,-10.651 -5.246,-15.498 -1.824,-4.847 -3.581,-9.158 -4.618,-11.657 -1.038,-2.499 -1.357,-3.186 -1.494,-3.631 -0.137,-0.445 -0.092,-0.647 0.009,-0.803 0.102,-0.155 0.258,-0.263 0.386,-0.349 0.014,-0.01 0.028,-0.019 0.041,-0.029 -0.042,-0.002 -0.088,-0.005 -0.144,-0.008 -0.105,-0.005 -0.243,-0.013 -0.693,-0.048 -0.449,-0.035 -1.21,-0.098 -2.217,-0.107 -1.008,-0.008 -2.262,0.038 -3.577,0.132 -1.316,0.095 -2.692,0.24 -4.839,0.609 -2.148,0.368 -5.068,0.962 -7.478,1.498 -2.41,0.535 -4.311,1.014 -6.805,1.509 -2.494,0.494 -5.581,1.003 -8.679,1.418 -3.098,0.414 -6.208,0.733 -9.971,1.076 -3.764,0.341 -8.181,0.707 -11.872,0.965z"/>
    </clipPath>
    <clipPath id="id2">
     <path d="M91.234 163.341c0.06,-0.29 0.117,-0.718 0.209,-2.252 0.091,-1.534 0.216,-4.174 0.518,-9.369 0.303,-5.195 0.782,-12.944 1.164,-18.604 0.382,-5.659 0.667,-9.229 1.038,-13.175 0.37,-3.946 0.826,-8.268 1.397,-12.773 0.57,-4.505 1.254,-9.192 2.132,-14.518 0.879,-5.326 1.95,-11.291 2.766,-15.197 0.815,-3.906 1.374,-5.753 1.733,-6.921 0.358,-1.167 0.516,-1.655 0.64,-1.921 0.123,-0.267 0.212,-0.313 0.296,-0.305 0.084,0.008 0.164,0.069 0.266,0.183 0.103,0.113 0.228,0.278 0.391,0.627 0.163,0.349 0.362,0.88 0.684,1.602 0.321,0.721 0.764,1.632 1.146,2.525 0.381,0.893 0.7,1.768 0.836,2.443 0.135,0.674 0.087,1.147 0.127,1.679 0.04,0.532 0.168,1.122 0.504,1.619 0.337,0.498 0.881,0.903 1.195,1.44 0.314,0.538 0.396,1.208 0.602,2.158 0.205,0.951 0.533,2.183 0.646,3.113 0.112,0.929 0.009,1.556 -0.098,2.148 -0.106,0.591 -0.218,1.148 -0.101,1.705 0.117,0.557 0.462,1.116 0.865,1.635 0.404,0.519 0.866,0.998 1.149,1.313 0.284,0.315 0.39,0.466 0.491,0.609 0.101,0.142 0.198,0.276 0.351,0.879 0.152,0.603 0.36,1.675 0.439,2.419 0.078,0.745 0.027,1.161 -0.003,1.576 -0.03,0.415 -0.039,0.828 -0.073,1.354 -0.034,0.526 -0.094,1.165 -0.085,1.751 0.008,0.586 0.085,1.119 0.46,1.91 0.375,0.791 1.048,1.84 1.685,2.689 0.637,0.848 1.239,1.495 1.643,1.902 0.404,0.407 0.611,0.574 0.797,0.87 0.186,0.296 0.351,0.72 0.488,1.263 0.137,0.544 0.246,1.205 0.304,1.972 0.058,0.767 0.067,1.64 0.054,2.608 -0.013,0.968 -0.047,2.031 0.15,2.999 0.197,0.968 0.624,1.84 1.101,2.577 0.476,0.738 1,1.339 1.389,1.826 0.39,0.488 0.644,0.862 0.856,1.23 0.213,0.367 0.384,0.729 0.555,1.154 0.171,0.425 0.342,0.913 0.472,1.479 0.13,0.566 0.218,1.21 0.339,1.795 0.121,0.584 0.275,1.108 0.375,1.699 0.1,0.59 0.145,1.246 0.32,2.204 0.174,0.958 0.476,2.218 0.678,3.273 0.203,1.055 0.305,1.904 0.416,2.657 0.112,0.753 0.231,1.409 0.325,2.284 0.094,0.875 0.163,1.97 0.294,2.774 0.131,0.804 0.325,1.317 0.465,2.09 0.14,0.772 0.225,1.805 0.299,2.412 0.074,0.607 0.137,0.79 0.288,0.952 0.104,0.112 0.251,0.215 0.437,0.32 -0.079,-0.368 -0.154,-0.732 -0.127,-0.999 0.028,-0.278 0.168,-0.45 0.332,-0.556 0.164,-0.105 0.352,-0.145 0.75,-0.063 0.398,0.082 1.007,0.284 1.729,0.399 0.723,0.115 1.56,0.144 2.868,0.151 1.309,0.007 3.089,-0.007 5.568,-0.327 2.479,-0.319 5.657,-0.943 8.788,-1.599 3.132,-0.656 6.217,-1.344 9.657,-2.107 3.44,-0.762 7.234,-1.599 10.248,-2.124 3.014,-0.525 5.249,-0.737 8.16,-0.854 2.912,-0.118 6.502,-0.139 10.137,0.024 3.635,0.163 7.316,0.511 9.976,0.862 2.66,0.351 4.298,0.706 5.688,1.227 1.391,0.522 2.533,1.21 3.226,1.734 0.693,0.524 0.938,0.884 1.054,1.193 0.116,0.309 0.104,0.568 -0.007,0.887 -0.11,0.319 -0.318,0.698 -0.526,1.077 0.192,-0.063 0.354,-0.202 0.566,-0.399 0.232,-0.218 0.523,-0.509 0.64,-0.957 0.116,-0.447 0.059,-1.052 0.065,-2.577 0.006,-1.525 0.074,-3.972 0.052,-6.694 -0.023,-2.724 -0.137,-5.723 -0.194,-7.553 -0.057,-1.831 -0.057,-2.492 -0.057,-3.427 0,-0.936 0,-2.144 -0.029,-3.276 -0.028,-1.132 -0.085,-2.187 -0.111,-3.279 -0.025,-1.092 -0.02,-2.221 -0.091,-4.009 -0.072,-1.787 -0.22,-4.234 -0.3,-6.212 -0.079,-1.979 -0.091,-3.49 -0.231,-7.51 -0.139,-4.02 -0.407,-10.55 -0.929,-16.996 -0.522,-6.446 -1.297,-12.81 -2.278,-18.854 -0.981,-6.045 -2.167,-11.77 -3.341,-17.21 -1.175,-5.44 -2.338,-10.594 -3.867,-15.864 -1.528,-5.268 -3.421,-10.651 -5.246,-15.498 -1.824,-4.847 -3.581,-9.158 -4.618,-11.657 -1.038,-2.499 -1.357,-3.186 -1.494,-3.631 -0.137,-0.445 -0.092,-0.647 0.009,-0.803 0.102,-0.155 0.258,-0.263 0.386,-0.349 0.014,-0.01 0.028,-0.019 0.041,-0.029 -0.042,-0.002 -0.088,-0.005 -0.144,-0.008 -0.105,-0.005 -0.243,-0.013 -0.693,-0.048 -0.449,-0.035 -1.21,-0.098 -2.217,-0.107 -1.008,-0.008 -2.262,0.038 -3.577,0.132 -1.316,0.095 -2.692,0.24 -4.839,0.609 -2.148,0.368 -5.068,0.962 -7.478,1.498 -2.41,0.535 -4.311,1.014 -6.805,1.509 -2.494,0.494 -5.581,1.003 -8.679,1.418 -3.098,0.414 -6.208,0.733 -9.971,1.076 -3.764,0.341 -8.181,0.707 -11.872,0.965 -3.692,0.259 -6.657,0.41 -9.367,0.559 -2.711,0.148 -5.167,0.292 -7.957,0.403 -2.79,0.11 -5.915,0.186 -9.017,0.251 -3.102,0.064 -6.181,0.117 -9.116,0.11 -2.935,-0.008 -5.725,-0.076 -8.341,-0.137 -2.615,-0.061 -5.056,-0.114 -7.698,-0.194 -2.642,-0.08 -5.486,-0.186 -8.975,-0.285 -3.49,-0.099 -7.626,-0.19 -12.01,-0.217 -4.383,-0.026 -9.013,0.012 -12.845,0.008 -3.832,-0.004 -6.865,-0.049 -10.876,-0.205 -4.011,-0.156 -8.998,-0.422 -12.585,-0.69 -3.587,-0.268 -5.773,-0.538 -7.362,-0.856 -1.59,-0.318 -2.583,-0.683 -3.577,-1.049 0.044,0.064 0.021,0.188 -0.027,0.625 -0.062,0.551 -0.164,1.597 -0.449,3.521 -0.286,1.925 -0.753,4.728 -1.058,6.779 -0.305,2.052 -0.448,3.352 -0.79,5.493 -0.342,2.141 -0.884,5.124 -1.32,7.752 -0.436,2.629 -0.767,4.904 -1.029,6.823 -0.263,1.919 -0.457,3.481 -0.636,5.294 -0.18,1.814 -0.345,3.878 -0.525,6.376 -0.18,2.497 -0.373,5.428 -0.567,8.701 -0.194,3.273 -0.388,6.888 -0.53,10.743 -0.143,3.855 -0.234,7.949 -0.206,12.14 0.029,4.192 0.177,8.48 0.468,12.648 0.291,4.169 0.724,8.217 1.009,11.855 0.285,3.638 0.422,6.865 0.485,10.435 0.063,3.57 0.051,7.481 0.091,11.969 0.04,4.488 0.131,9.552 0.223,13.777 0.091,4.225 0.182,7.612 0.266,9.945 0.084,2.332 0.162,3.609 0.193,4.373 0.031,0.764 0.017,1.015 0.027,2.23 0.01,1.214 0.044,3.393 0.078,4.946 0.035,1.554 0.069,2.484 0.137,3.037 0.068,0.553 0.171,0.73 0.482,1.055 0.311,0.325 0.83,0.798 2.632,1.177 1.802,0.38 4.886,0.665 7.829,0.918 2.942,0.254 5.742,0.476 10.492,0.73 4.75,0.254 11.451,0.539 16.4,0.753 4.95,0.214 8.149,0.356 10.954,0.382 2.806,0.026 5.218,-0.066 7.656,-0.143 2.438,-0.077 4.901,-0.139 7.25,-0.216 2.35,-0.077 4.585,-0.168 7.735,-0.565 3.151,-0.396 7.217,-1.098 9.757,-1.616 2.54,-0.519 3.556,-0.856 4.448,-1.309 0.892,-0.453 1.662,-1.024 2.078,-1.386 0.417,-0.362 0.479,-0.516 0.539,-0.807z"/>
    </clipPath>
    <clipPath id="id3">
     <path d="M66.397 7.915c-3.49,-0.099 -7.626,-0.19 -12.01,-0.217 -4.383,-0.026 -9.013,0.012 -12.845,0.008 -3.832,-0.004 -6.865,-0.049 -10.876,-0.205 -4.011,-0.156 -8.998,-0.422 -12.585,-0.69 -3.587,-0.268 -5.773,-0.538 -7.362,-0.856 -1.59,-0.318 -2.583,-0.683 -3.577,-1.049 0.044,0.064 0.021,0.188 -0.027,0.625 -0.062,0.551 -0.164,1.597 -0.449,3.521 -0.286,1.925 -0.753,4.728 -1.058,6.779 -0.305,2.052 -0.448,3.352 -0.79,5.493 -0.342,2.141 -0.884,5.124 -1.32,7.752 -0.436,2.629 -0.767,4.904 -1.029,6.823 -0.263,1.919 -0.457,3.481 -0.636,5.294 -0.18,1.814 -0.345,3.878 -0.525,6.376 -0.18,2.497 -0.373,5.428 -0.567,8.701 -0.194,3.273 -0.388,6.888 -0.53,10.743 -0.143,3.855 -0.234,7.949 -0.206,12.14 0.029,4.192 0.177,8.48 0.468,12.648 0.291,4.169 0.724,8.217 1.009,11.855 0.285,3.638 0.422,6.865 0.485,10.435 0.063,3.57 0.051,7.481 0.091,11.969 0.04,4.488 0.131,9.552 0.223,13.777 0.091,4.225 0.182,7.612 0.266,9.945 0.084,2.332 0.162,3.609 0.193,4.373 0.031,0.764 0.017,1.015 0.027,2.23 0.01,1.214 0.044,3.393 0.078,4.946 0.035,1.554 0.069,2.484 0.137,3.037 0.068,0.553 0.171,0.73 0.482,1.055 0.311,0.325 0.83,0.798 2.632,1.177 1.802,0.38 4.886,0.665 7.829,0.918 2.942,0.254 5.742,0.476 10.492,0.73 4.75,0.254 11.451,0.539 16.4,0.753 4.95,0.214 8.149,0.356 10.954,0.382 2.806,0.026 5.218,-0.066 7.656,-0.143 2.438,-0.077 4.901,-0.139 7.25,-0.216 2.35,-0.077 4.585,-0.168 7.735,-0.565 3.151,-0.396 7.217,-1.098 9.757,-1.616 2.54,-0.519 3.556,-0.856 4.448,-1.309 0.892,-0.453 1.662,-1.024 2.078,-1.386 0.417,-0.362 0.479,-0.516 0.539,-0.807 0.06,-0.29 0.117,-0.718 0.209,-2.252 0.091,-1.534 0.216,-4.174 0.518,-9.369 0.303,-5.195 0.782,-12.944 1.164,-18.604 0.382,-5.659 0.667,-9.229 1.038,-13.175 0.37,-3.946 0.826,-8.268 1.397,-12.773 0.57,-4.505 1.254,-9.192 2.132,-14.518 0.879,-5.326 1.95,-11.291 2.766,-15.197 0.815,-3.906 1.374,-5.753 1.733,-6.921 0.358,-1.167 0.516,-1.655 0.64,-1.921l0.003 -0.007 0.001 -0.002 0.008 -0.016 0.002 -0.005 0.003 -0.006 0.003 -0.005 0.002 -0.006 0.002 -0.004 0.004 -0.007 0.003 -0.005 0.002 -0.005 0 -0.001 0.003 -0.005 0.001 -0.002 0.002 -0.004 0.002 -0.003 0.002 -0.005 0.002 -0.002 0.001 -0.002 0.007 -0.013 0.002 -0.005 0.002 -0.003 0.002 -0.004 0.003 -0.005 0.011 -0.018 0 -0.001 0.003 -0.004 0.007 -0.011 0.006 -0.01 0.018 -0.026 0.003 -0.005c0.29,-0.943 0.58,-1.886 0.813,-2.478 0.232,-0.591 0.408,-0.831 0.581,-1.057 0.174,-0.226 0.346,-0.438 0.481,-0.599 0.136,-0.161 0.235,-0.271 0.256,-0.446 0.022,-0.176 -0.032,-0.417 -0.184,-0.807 -0.152,-0.39 -0.401,-0.928 -0.72,-1.7 -0.319,-0.773 -0.708,-1.78 -1.265,-4.398 -0.557,-2.618 -1.282,-6.846 -2.128,-11.482 -0.846,-4.636 -1.813,-9.681 -2.362,-13.439 -0.549,-3.76 -0.68,-6.234 -1.088,-9.846 -0.407,-3.613 -1.091,-8.364 -1.612,-11.976 -0.084,-0.588 -0.164,-1.145 -0.241,-1.678l-0.105 0.002 -0.092 0.001 -0.082 0.001 -0.164 0.002 -0.186 0.002 -0.056 0 -0.048 0.001 -0.206 0.002 -0.132 0.001 -0.185 0.002 -0.15 0.001 -0.008 0 -0.096 0.001 -0.083 0 -0.016 0 -0.162 0.001 -0.036 0 -0.142 0.001 -0.854 0.005 -0.012 0 -0.103 0 -0.036 0 -0.079 0 -0.06 0 -0.155 0.001 -0.502 0 -0.174 -0.001 -0.024 0 -0.113 0c-2.935,-0.008 -5.725,-0.076 -8.341,-0.137 -2.615,-0.061 -5.056,-0.114 -7.698,-0.194 -2.642,-0.08 -5.486,-0.186 -8.975,-0.285z"/>
    </clipPath>
    <clipPath id="id4">
     <path d="M91.234 163.341c0.06,-0.29 0.117,-0.718 0.209,-2.252 0.091,-1.534 0.216,-4.174 0.518,-9.369 0.303,-5.195 0.782,-12.944 1.164,-18.604 0.382,-5.659 0.667,-9.229 1.038,-13.175 0.37,-3.946 0.826,-8.268 1.397,-12.773 0.57,-4.505 1.254,-9.192 2.132,-14.518 0.879,-5.326 1.95,-11.291 2.766,-15.197 0.815,-3.906 1.374,-5.753 1.733,-6.921 0.358,-1.167 0.516,-1.655 0.64,-1.921 0.123,-0.267 0.212,-0.313 0.296,-0.305 0.084,0.008 0.164,0.069 0.266,0.183 0.103,0.113 0.228,0.278 0.391,0.627 0.163,0.349 0.362,0.88 0.684,1.602 0.321,0.721 0.764,1.632 1.146,2.525 0.381,0.893 0.7,1.768 0.836,2.443 0.135,0.674 0.087,1.147 0.127,1.679 0.04,0.532 0.168,1.122 0.504,1.619 0.337,0.498 0.881,0.903 1.195,1.44 0.314,0.538 0.396,1.208 0.602,2.158 0.205,0.951 0.533,2.183 0.646,3.113 0.112,0.929 0.009,1.556 -0.098,2.148 -0.106,0.591 -0.218,1.148 -0.101,1.705 0.117,0.557 0.462,1.116 0.865,1.635 0.404,0.519 0.866,0.998 1.149,1.313 0.284,0.315 0.39,0.466 0.491,0.609 0.101,0.142 0.198,0.276 0.351,0.879 0.152,0.603 0.36,1.675 0.439,2.419 0.078,0.745 0.027,1.161 -0.003,1.576 -0.03,0.415 -0.039,0.828 -0.073,1.354 -0.034,0.526 -0.094,1.165 -0.085,1.751 0.008,0.586 0.085,1.119 0.46,1.91 0.375,0.791 1.048,1.84 1.685,2.689 0.637,0.848 1.239,1.495 1.643,1.902 0.404,0.407 0.611,0.574 0.797,0.87 0.186,0.296 0.351,0.72 0.488,1.263 0.137,0.544 0.246,1.205 0.304,1.972 0.058,0.767 0.067,1.64 0.054,2.608 -0.013,0.968 -0.047,2.031 0.15,2.999 0.197,0.968 0.624,1.84 1.101,2.577 0.476,0.738 1,1.339 1.389,1.826 0.39,0.488 0.644,0.862 0.856,1.23 0.213,0.367 0.384,0.729 0.555,1.154 0.171,0.425 0.342,0.913 0.472,1.479 0.13,0.566 0.218,1.21 0.339,1.795 0.121,0.584 0.275,1.108 0.375,1.699 0.1,0.59 0.145,1.246 0.32,2.204 0.174,0.958 0.476,2.218 0.678,3.273 0.203,1.055 0.305,1.904 0.416,2.657 0.112,0.753 0.231,1.409 0.325,2.284 0.094,0.875 0.163,1.97 0.294,2.774 0.131,0.804 0.325,1.317 0.465,2.09 0.14,0.772 0.225,1.805 0.299,2.412 0.074,0.607 0.137,0.79 0.288,0.952 0.104,0.112 0.251,0.215 0.437,0.32 -0.079,-0.368 -0.154,-0.732 -0.127,-0.999 0.028,-0.278 0.168,-0.45 0.332,-0.556 0.164,-0.105 0.352,-0.145 0.75,-0.063 0.398,0.082 1.007,0.284 1.729,0.399 0.723,0.115 1.56,0.144 2.868,0.151 1.309,0.007 3.089,-0.007 5.568,-0.327 2.479,-0.319 5.657,-0.943 8.788,-1.599 3.132,-0.656 6.217,-1.344 9.657,-2.107 3.44,-0.762 7.234,-1.599 10.248,-2.124 3.014,-0.525 5.249,-0.737 8.16,-0.854 2.912,-0.118 6.502,-0.139 10.137,0.024 3.635,0.163 7.316,0.511 9.976,0.862 2.66,0.351 4.298,0.706 5.688,1.227 1.391,0.522 2.533,1.21 3.226,1.734 0.693,0.524 0.938,0.884 1.054,1.193 0.116,0.309 0.104,0.568 -0.007,0.887 -0.11,0.319 -0.318,0.698 -0.526,1.077 0.192,-0.063 0.354,-0.202 0.566,-0.399 0.232,-0.218 0.523,-0.509 0.64,-0.957 0.116,-0.447 0.059,-1.052 0.065,-2.577 0.006,-1.525 0.074,-3.972 0.052,-6.694 -0.023,-2.724 -0.137,-5.723 -0.194,-7.553 -0.057,-1.831 -0.057,-2.492 -0.057,-3.427 0,-0.936 0,-2.144 -0.029,-3.276 -0.028,-1.132 -0.085,-2.187 -0.111,-3.279 -0.025,-1.092 -0.02,-2.221 -0.091,-4.009 -0.072,-1.787 -0.22,-4.234 -0.3,-6.212 -0.079,-1.979 -0.091,-3.49 -0.231,-7.51 -0.139,-4.02 -0.407,-10.55 -0.929,-16.996 -0.522,-6.446 -1.297,-12.81 -2.278,-18.854 -0.981,-6.045 -2.167,-11.77 -3.341,-17.21 -1.175,-5.44 -2.338,-10.594 -3.867,-15.864 -1.528,-5.268 -3.421,-10.651 -5.246,-15.498 -1.824,-4.847 -3.581,-9.158 -4.618,-11.657 -1.038,-2.499 -1.357,-3.186 -1.494,-3.631 -0.137,-0.445 -0.092,-0.647 0.009,-0.803 0.102,-0.155 0.258,-0.263 0.386,-0.349 0.014,-0.01 0.028,-0.019 0.041,-0.029 -0.042,-0.002 -0.088,-0.005 -0.144,-0.008 -0.105,-0.005 -0.243,-0.013 -0.693,-0.048 -0.449,-0.035 -1.21,-0.098 -2.217,-0.107 -1.008,-0.008 -2.262,0.038 -3.577,0.132 -1.316,0.095 -2.692,0.24 -4.839,0.609 -2.148,0.368 -5.068,0.962 -7.478,1.498 -2.41,0.535 -4.311,1.014 -6.805,1.509 -2.494,0.494 -5.581,1.003 -8.679,1.418 -3.098,0.414 -6.208,0.733 -9.971,1.076 -3.764,0.341 -8.181,0.707 -11.872,0.965 -3.692,0.259 -6.657,0.41 -9.367,0.559 -2.711,0.148 -5.167,0.292 -7.957,0.403 -2.79,0.11 -5.915,0.186 -9.017,0.251 -3.102,0.064 -6.181,0.117 -9.116,0.11 -2.935,-0.008 -5.725,-0.076 -8.341,-0.137 -2.615,-0.061 -5.056,-0.114 -7.698,-0.194 -2.642,-0.08 -5.486,-0.186 -8.975,-0.285 -3.49,-0.099 -7.626,-0.19 -12.01,-0.217 -4.383,-0.026 -9.013,0.012 -12.845,0.008 -3.832,-0.004 -6.865,-0.049 -10.876,-0.205 -4.011,-0.156 -8.998,-0.422 -12.585,-0.69 -3.587,-0.268 -5.773,-0.538 -7.362,-0.856 -1.59,-0.318 -2.583,-0.683 -3.577,-1.049 0.044,0.064 0.021,0.188 -0.027,0.625 -0.062,0.551 -0.164,1.597 -0.449,3.521 -0.286,1.925 -0.753,4.728 -1.058,6.779 -0.305,2.052 -0.448,3.352 -0.79,5.493 -0.342,2.141 -0.884,5.124 -1.32,7.752 -0.436,2.629 -0.767,4.904 -1.029,6.823 -0.263,1.919 -0.457,3.481 -0.636,5.294 -0.18,1.814 -0.345,3.878 -0.525,6.376 -0.18,2.497 -0.373,5.428 -0.567,8.701 -0.194,3.273 -0.388,6.888 -0.53,10.743 -0.143,3.855 -0.234,7.949 -0.206,12.14 0.029,4.192 0.177,8.48 0.468,12.648 0.291,4.169 0.724,8.217 1.009,11.855 0.285,3.638 0.422,6.865 0.485,10.435 0.063,3.57 0.051,7.481 0.091,11.969 0.04,4.488 0.131,9.552 0.223,13.777 0.091,4.225 0.182,7.612 0.266,9.945 0.084,2.332 0.162,3.609 0.193,4.373 0.031,0.764 0.017,1.015 0.027,2.23 0.01,1.214 0.044,3.393 0.078,4.946 0.035,1.554 0.069,2.484 0.137,3.037 0.068,0.553 0.171,0.73 0.482,1.055 0.311,0.325 0.83,0.798 2.632,1.177 1.802,0.38 4.886,0.665 7.829,0.918 2.942,0.254 5.742,0.476 10.492,0.73 4.75,0.254 11.451,0.539 16.4,0.753 4.95,0.214 8.149,0.356 10.954,0.382 2.806,0.026 5.218,-0.066 7.656,-0.143 2.438,-0.077 4.901,-0.139 7.25,-0.216 2.35,-0.077 4.585,-0.168 7.735,-0.565 3.151,-0.396 7.217,-1.098 9.757,-1.616 2.54,-0.519 3.556,-0.856 4.448,-1.309 0.892,-0.453 1.662,-1.024 2.078,-1.386 0.417,-0.362 0.479,-0.516 0.539,-0.807z"/>
    </clipPath>
 </defs>
 <g id="VETORES">
  <metadata id="CorelCorpID_0Corel-Layer"/>
  <g>
  </g>
  <g clip-path="url(#id0)">
   <g id="_2321447278896">
    <g>
    </g>
   </g>
   <g clip-path="url(#id1)">
   </g>
   <g clip-path="url(#id2)">
    <path id="perna-direita" fill="none" d="M126.868 7.208c-3.692,0.259 -6.657,0.41 -9.367,0.559 -2.711,0.148 -5.167,0.292 -7.957,0.403 -2.79,0.11 -5.915,0.186 -9.017,0.251 -1.699,0.035 -3.39,0.067 -5.055,0.087 0.077,0.533 0.157,1.09 0.241,1.678 0.521,3.612 1.205,8.363 1.612,11.976 0.408,3.612 0.539,6.086 1.088,9.846 0.549,3.758 1.516,8.803 2.362,13.439 0.846,4.636 1.571,8.864 2.128,11.482 0.557,2.618 0.946,3.625 1.265,4.398 0.319,0.772 0.568,1.31 0.72,1.7 0.152,0.39 0.206,0.631 0.184,0.807 -0.021,0.175 -0.12,0.285 -0.256,0.446 -0.135,0.161 -0.307,0.373 -0.481,0.599 -0.173,0.226 -0.349,0.466 -0.581,1.057 -0.233,0.592 -0.523,1.535 -0.813,2.478 0.07,-0.094 0.129,-0.113 0.186,-0.108 0.084,0.008 0.164,0.069 0.266,0.183 0.103,0.113 0.228,0.278 0.391,0.627 0.163,0.349 0.362,0.88 0.684,1.602 0.321,0.721 0.764,1.632 1.146,2.525 0.381,0.893 0.7,1.768 0.836,2.443 0.135,0.674 0.087,1.147 0.127,1.679 0.04,0.532 0.168,1.122 0.504,1.619 0.337,0.498 0.881,0.903 1.195,1.44 0.314,0.538 0.396,1.208 0.602,2.158 0.205,0.951 0.533,2.183 0.646,3.113 0.112,0.929 0.009,1.556 -0.098,2.148 -0.106,0.591 -0.218,1.148 -0.101,1.705 0.117,0.557 0.462,1.116 0.865,1.635 0.404,0.519 0.866,0.998 1.149,1.313 0.284,0.315 0.39,0.466 0.491,0.609 0.101,0.142 0.198,0.276 0.351,0.879 0.152,0.603 0.36,1.675 0.439,2.419 0.078,0.745 0.027,1.161 -0.003,1.576 -0.03,0.415 -0.039,0.828 -0.073,1.354 -0.034,0.526 -0.094,1.165 -0.085,1.751 0.008,0.586 0.085,1.119 0.46,1.91 0.375,0.791 1.048,1.84 1.685,2.689 0.637,0.848 1.239,1.495 1.643,1.902 0.404,0.407 0.611,0.574 0.797,0.87 0.186,0.296 0.351,0.72 0.488,1.263 0.137,0.544 0.246,1.205 0.304,1.972 0.058,0.767 0.067,1.64 0.054,2.608 -0.013,0.968 -0.047,2.031 0.15,2.999 0.197,0.968 0.624,1.84 1.101,2.577 0.476,0.738 1,1.339 1.389,1.826 0.39,0.488 0.644,0.862 0.856,1.23 0.213,0.367 0.384,0.729 0.555,1.154 0.171,0.425 0.342,0.913 0.472,1.479 0.13,0.566 0.218,1.21 0.339,1.795 0.121,0.584 0.275,1.108 0.375,1.699 0.1,0.59 0.145,1.246 0.32,2.204 0.174,0.958 0.476,2.218 0.678,3.273 0.203,1.055 0.305,1.904 0.416,2.657 0.112,0.753 0.231,1.409 0.325,2.284 0.094,0.875 0.163,1.97 0.294,2.774 0.131,0.804 0.325,1.317 0.465,2.09 0.14,0.772 0.225,1.805 0.299,2.412 0.074,0.607 0.137,0.79 0.288,0.952 0.104,0.112 0.251,0.215 0.437,0.32 -0.079,-0.368 -0.154,-0.732 -0.127,-0.999 0.028,-0.278 0.168,-0.45 0.332,-0.556 0.164,-0.105 0.352,-0.145 0.75,-0.063 0.398,0.082 1.007,0.284 1.729,0.399 0.723,0.115 1.56,0.144 2.868,0.151 1.309,0.007 3.089,-0.007 5.568,-0.327 2.479,-0.319 5.657,-0.943 8.788,-1.599 3.132,-0.656 6.217,-1.344 9.657,-2.107 3.44,-0.762 7.234,-1.599 10.248,-2.124 3.014,-0.525 5.249,-0.737 8.16,-0.854 2.912,-0.118 6.502,-0.139 10.137,0.024 3.635,0.163 7.316,0.511 9.976,0.862 2.66,0.351 4.298,0.706 5.688,1.227 1.391,0.522 2.533,1.21 3.226,1.734 0.693,0.524 0.938,0.884 1.054,1.193 0.116,0.309 0.104,0.568 -0.007,0.887 -0.11,0.319 -0.318,0.698 -0.526,1.078 0.192,-0.064 0.354,-0.202 0.566,-0.4 0.232,-0.218 0.523,-0.509 0.64,-0.957 0.116,-0.447 0.059,-1.052 0.065,-2.577 0.006,-1.525 0.074,-3.972 0.052,-6.694 -0.023,-2.724 -0.137,-5.723 -0.194,-7.553 -0.057,-1.831 -0.057,-2.492 -0.057,-3.427 0,-0.936 0,-2.144 -0.029,-3.276 -0.028,-1.132 -0.085,-2.187 -0.111,-3.279 -0.025,-1.092 -0.02,-2.221 -0.091,-4.009 -0.072,-1.787 -0.22,-4.234 -0.3,-6.212 -0.079,-1.979 -0.091,-3.49 -0.231,-7.51 -0.139,-4.02 -0.407,-10.55 -0.929,-16.996 -0.522,-6.446 -1.297,-12.81 -2.278,-18.854 -0.981,-6.045 -2.167,-11.77 -3.341,-17.21 -1.175,-5.44 -2.338,-10.594 -3.867,-15.864 -1.528,-5.268 -3.421,-10.651 -5.246,-15.498 -1.824,-4.847 -3.581,-9.158 -4.618,-11.657 -1.038,-2.499 -1.357,-3.186 -1.494,-3.631 -0.137,-0.445 -0.092,-0.647 0.009,-0.803 0.102,-0.155 0.258,-0.263 0.386,-0.349 0.014,-0.01 0.028,-0.019 0.041,-0.029 -0.042,-0.002 -0.088,-0.005 -0.144,-0.008 -0.105,-0.005 -0.243,-0.013 -0.693,-0.048 -0.449,-0.035 -1.21,-0.098 -2.217,-0.107 -1.008,-0.008 -2.262,0.038 -3.577,0.132 -1.316,0.095 -2.692,0.24 -4.839,0.609 -2.148,0.368 -5.068,0.962 -7.478,1.498 -2.41,0.535 -4.311,1.014 -6.805,1.509 -2.494,0.494 -5.581,1.003 -8.679,1.418 -3.098,0.414 -6.208,0.733 -9.971,1.076 -3.764,0.341 -8.181,0.707 -11.872,0.965z"/>
    <g>
    </g>
   </g>
   <g clip-path="url(#id3)">
   </g>
   <g clip-path="url(#id4)">
    <path id="perna-esquerda" fill="none" d="M66.397 7.915c-3.49,-0.099 -7.626,-0.19 -12.01,-0.217 -4.383,-0.026 -9.013,0.012 -12.845,0.008 -3.832,-0.004 -6.865,-0.049 -10.876,-0.205 -4.011,-0.156 -8.998,-0.422 -12.585,-0.69 -3.587,-0.268 -5.773,-0.538 -7.362,-0.856 -1.59,-0.318 -2.583,-0.683 -3.577,-1.049 0.044,0.064 0.021,0.188 -0.027,0.625 -0.062,0.551 -0.164,1.597 -0.449,3.521 -0.286,1.925 -0.753,4.728 -1.058,6.779 -0.305,2.052 -0.448,3.352 -0.79,5.493 -0.342,2.141 -0.884,5.124 -1.32,7.752 -0.436,2.629 -0.767,4.904 -1.029,6.823 -0.263,1.919 -0.457,3.481 -0.636,5.294 -0.18,1.814 -0.345,3.878 -0.525,6.376 -0.18,2.497 -0.373,5.428 -0.567,8.701 -0.194,3.273 -0.388,6.888 -0.53,10.743 -0.143,3.855 -0.234,7.949 -0.206,12.14 0.029,4.192 0.177,8.48 0.468,12.648 0.291,4.169 0.724,8.217 1.009,11.855 0.285,3.638 0.422,6.865 0.485,10.435 0.063,3.57 0.051,7.481 0.091,11.969 0.04,4.488 0.131,9.552 0.223,13.777 0.091,4.225 0.182,7.612 0.266,9.945 0.084,2.332 0.162,3.609 0.193,4.373 0.031,0.764 0.017,1.015 0.027,2.23 0.01,1.214 0.044,3.393 0.078,4.946 0.035,1.554 0.069,2.484 0.137,3.037 0.068,0.553 0.171,0.73 0.482,1.055 0.311,0.325 0.83,0.798 2.632,1.177 1.802,0.38 4.886,0.665 7.829,0.918 2.942,0.254 5.742,0.476 10.492,0.73 4.75,0.254 11.451,0.539 16.4,0.753 4.95,0.214 8.149,0.356 10.954,0.382 2.806,0.026 5.218,-0.066 7.656,-0.143 2.438,-0.077 4.901,-0.139 7.25,-0.216 2.35,-0.077 4.585,-0.168 7.735,-0.565 3.151,-0.396 7.217,-1.098 9.757,-1.616 2.54,-0.519 3.556,-0.856 4.448,-1.309 0.892,-0.453 1.662,-1.024 2.078,-1.386 0.417,-0.362 0.479,-0.516 0.539,-0.807 0.06,-0.29 0.117,-0.718 0.209,-2.252 0.091,-1.534 0.216,-4.174 0.518,-9.369 0.303,-5.195 0.782,-12.944 1.164,-18.604 0.382,-5.659 0.667,-9.229 1.038,-13.175 0.37,-3.946 0.826,-8.268 1.397,-12.773 0.57,-4.505 1.254,-9.192 2.132,-14.518 0.879,-5.326 1.95,-11.291 2.766,-15.197 0.815,-3.906 1.374,-5.753 1.733,-6.921 0.358,-1.167 0.516,-1.655 0.64,-1.921 0.04,-0.087 0.077,-0.151 0.11,-0.197 0.29,-0.943 0.58,-1.886 0.813,-2.478 0.232,-0.591 0.408,-0.831 0.581,-1.057 0.174,-0.226 0.346,-0.438 0.481,-0.599 0.136,-0.161 0.235,-0.271 0.256,-0.446 0.022,-0.176 -0.032,-0.417 -0.184,-0.807 -0.152,-0.39 -0.401,-0.928 -0.72,-1.7 -0.319,-0.773 -0.708,-1.78 -1.265,-4.398 -0.557,-2.618 -1.282,-6.846 -2.128,-11.482 -0.846,-4.636 -1.813,-9.681 -2.362,-13.439 -0.549,-3.76 -0.68,-6.234 -1.088,-9.846 -0.407,-3.613 -1.091,-8.364 -1.612,-11.976 -0.084,-0.588 -0.164,-1.145 -0.241,-1.678 -1.376,0.017 -2.733,0.026 -4.061,0.023 -2.935,-0.008 -5.725,-0.076 -8.341,-0.137 -2.615,-0.061 -5.056,-0.114 -7.698,-0.194 -2.642,-0.08 -5.486,-0.186 -8.975,-0.285z"/>
    <path id="_1" fill="#B51723" d="M9.148 5.579c-0.114,-0.032 -0.224,-0.064 -0.332,-0.097 0.069,0.086 0.149,0.18 0.24,0.282 0.035,-0.067 0.065,-0.128 0.092,-0.185zm-2.95 6.476c-0.155,0.972 -0.314,1.968 -0.454,2.876l0.363 -0.541 -0.01 1.437c0.642,-0.142 0.363,0.03 0.968,-0.361 -0.444,-0.805 -0.423,-0.674 -0.313,-1.435 0.626,1.133 0.136,0.867 0.801,0.537 -0.631,-1.233 0.259,-0.661 -0.637,-1.077l0.486 -0.539 0.32 0.358c0.471,-0.838 0.785,-1.357 1.634,-1.799 1.216,-0.631 0.796,0.057 1.267,0.717 1.013,-1.326 -0.109,-0.504 1.292,-0.92 1.216,-0.362 1.802,-1.094 0.948,-2.299 -0.679,-0.96 -0.274,0.033 -0.925,-1.094 -3.077,2.132 -1.072,0.919 -3.507,3.089l-1.673 1.949c-0.141,-0.456 -0.333,-0.731 -0.56,-0.898zm-0.759 4.945c-0.166,1.182 -0.293,2.182 -0.484,3.442 0.287,0.004 0.474,0.145 0.949,0.596l-0.637 -1.077 1.134 -1.259c-0.51,-0.6 -0.732,-1.139 -0.962,-1.702zm-0.747 5.096c-0.34,2.052 -0.808,4.655 -1.194,6.98 -0.166,1.001 -0.317,1.95 -0.455,2.848 0.066,0.459 0.001,0.683 -0.124,0.825l-0.107 0.723 0.754 0.846c0.625,-1.059 0.031,-0.705 0.646,-0.359 -0.582,1.366 0.543,1.666 1.436,1.971 -0.126,0.687 -0.19,0.744 0.117,1.423 0.096,0.214 0.156,0.326 0.191,0.373l0.005 0.004c-0.235,-1.02 0.167,0.229 0,0l-0.161 0.178 -1.293 2.668c-0.126,0.306 -0.036,0.623 -0.05,0.735l-0.463 2.17c-0.782,0.172 -0.542,-0.124 -1.29,0.36 2.242,0.492 1.183,1.43 0.173,1.118 -1.155,-0.357 -0.584,-0.831 -1.363,-0.13l-0.09 1.164c0.956,-0.149 1.377,-0.127 2.234,-0.719l0.606 0.693 -1.103 1.642c-0.071,0.109 -0.902,0.315 -1.129,0.3l0.001 0c-0.519,-0.035 -0.45,0.03 -0.731,-0.249 -0.178,2.477 -0.369,5.377 -0.561,8.61l-0.083 1.431c0.566,-0.279 -0.317,0.266 0.51,-0.025 0.568,-0.2 -0.346,0.568 0.645,-0.364 -0.098,-0.309 0.051,-0.039 -0.188,-0.32 -0.005,-0.008 -0.402,-0.35 -0.451,-0.397l0.806 -0.181 -0.479 -0.538c0.698,-0.741 0.569,-0.516 1.307,-0.901 0.775,-0.405 0.324,-0.398 0.849,-0.806 2.015,-1.57 0.611,-0.828 1.887,-1.713 -0.417,-0.072 -0.327,-0.016 -0.643,-0.025 -3.238,-0.108 -2.459,-0.811 -1.272,-2.129 1.692,2.246 1.068,0.818 3.211,0.892 0.591,0.022 -0.201,0.324 0.482,-0.002 -0.392,-1.27 -0.919,-0.634 -0.31,-1.795 -0.6,-0.643 -1.017,-0.847 -1.602,-1.075 0.307,-0.81 1.274,-0.952 0.628,-2.178l-0.783 1.28c-0.623,-1.217 0.119,-1.502 0.976,-1.798 0.83,1.102 0.022,0.939 0.79,2.332 0.408,-0.536 0.337,-0.408 0.488,-0.898 0.634,1.238 -0.227,1.469 1.271,2.511 -0.607,0.29 -0.073,0.112 -0.644,0.011l-0.481 -0.189c0.756,1.373 0.423,0.528 1.437,1.615 -0.457,0.431 -1.179,1.261 -1.664,1.389 -0.001,0 -2.964,0.126 -1.897,2.209l-1.123 -0.536c-0.204,1.117 -0.156,2.315 0.623,3.232 0.685,-0.898 0.312,-0.636 0.492,-1.617 0.698,1.268 0.705,1.136 1.917,2.15l-2.267 2.519c0.784,1.421 1.235,1.484 -0.017,2.875 0.676,0.47 0.847,0.379 1.117,1.254 0.926,-0.319 0.852,-0.231 1.778,-1.26 0.43,0.409 0.471,0.494 0.951,0.569 0.376,0.059 0.495,-0.161 0.655,-0.212 0.414,0.754 0.051,0.157 0.408,0.909 0.012,0.029 0.333,0.666 0.341,0.687 0.325,0.866 0.051,0.072 0.069,0.656l0 -0.003c0.016,0.538 1.08,3.531 0.838,3.719l-0.585 2.47c0.346,0.674 0.282,1.401 0.353,2.154 0.054,0.582 0.175,1.487 0.105,1.976 0.722,1.412 0.565,3.653 0.417,5.208 -0.091,0.952 0.18,0.778 -0.461,1.618 -0.895,-1.05 -0.436,-1.373 -1.049,-0.714 -1.422,1.528 0.289,-0.617 -1.205,0.717 0.318,0.87 0.74,0.193 0.57,1.423 -0.13,0.933 -0.453,0.708 -0.75,1.633 -0.643,-0.26 -1.129,-1.689 -2.063,-0.305 0.019,-0.34 0.045,-0.588 0.078,-0.689 0.313,-0.964 0.616,0.555 0.092,-1.052l-0.587 -3.381c-0.207,-0.956 -0.192,-2.242 -0.19,-3.723 0.87,0.977 1.063,0.776 1.918,1.069 0.408,-0.537 0.337,-0.407 0.488,-0.899 -0.163,-0.959 0.154,-0.422 -0.475,-1.257 1.11,-1.037 0.35,-0.194 0.55,-0.022l0.512 0.175c0.272,0.027 -0.126,-0.812 0.229,0.063 0.211,0.518 0.362,-0.209 -0.815,1.041 1.058,0.181 0.234,0.032 1.291,-0.503 0.295,-0.149 0.845,-0.302 1.129,-0.4 -0.816,-0.529 -0.431,-0.081 -1.124,-0.394 -0.562,-0.253 -0.526,-0.445 -1.122,-0.678 0.76,-0.526 1.014,-0.374 1.774,-0.901l0.138 -1.617c0.04,-0.155 0.137,-0.353 0.197,-0.539 -1.239,-0.862 -1.936,-2.188 -1.365,-3.411 0.097,-0.208 0.088,-0.157 0.263,-0.36 -0.958,-0.908 -1.319,-0.478 -2.09,-0.175l0.517 0.891c0.137,0.493 0.147,1.333 -0.351,1.805l-0.671 0.718c-0.145,-0.469 -0.329,-0.789 -0.474,-1.257 -0.358,0.608 -0.39,0.601 -0.885,1.12 -0.095,-0.578 -0.092,-0.783 -0.194,-1.156 0.097,-0.176 0.19,-0.346 0.279,-0.501 1.406,-0.256 -0.23,0.666 0.965,-0.003 -0.589,-1.148 -0.016,-1.636 -0.066,-2.366 -0.049,-0.712 -0.721,-1.416 -1.279,-1.855 -1.47,-1.153 -0.242,0.971 -1.876,-1.695 -0.841,-1.37 -0.88,-0.332 -0.801,-1.606 0.051,-0.792 1.004,-2.866 -0.715,-3.751 -1.148,-0.592 -0.581,0.342 -1.35,-0.319 -0.089,1.561 -0.175,3.19 -0.254,4.878l0.017 -0.023 0 -0.001c2.022,2.234 0.458,0.183 2.002,0.764 1.666,0.626 0.861,1.744 1.285,2.568 -2.62,2.911 -0.576,1.047 -2.111,3.058 -0.762,-0.088 -1.081,-0.179 -1.439,-0.079 -0.097,3.183 -0.153,6.504 -0.13,9.888 0.021,2.984 0.102,6.017 0.252,9.021 0.195,0.086 0.363,0.145 0.714,0.389 -0.239,0.425 -0.447,0.815 -0.63,1.171l0.06 0.98 0.281 -0.49c0.282,-0.292 0.738,-0.032 0.738,-0.032l-0.451 -0.911 0.486 -0.54c0.576,0.373 0.2,0.301 0.804,0.178 0.508,0.677 0.932,2.743 1.605,0.357 1.828,2.053 0.825,1.574 -0.819,2.336 -0.622,-0.825 -0.874,-2.934 -1.282,-0.715 0.775,1.029 0.133,0.89 0.266,2.335 0.054,0.611 0.127,1.866 0.834,1.794 -0.172,-0.585 -0.008,-0.118 -0.318,-0.719 0.783,-0.544 0.732,-0.647 1.449,-0.182 -0.288,0.897 -0.426,0.743 -1.132,0.9 0.349,1.081 -0.08,0.084 0.993,1.244l0.003 0.002c1.047,1.13 0.706,-1.273 0.78,-1.787 0.555,0.653 1.615,3.76 1.372,5.027 -0.605,3.134 -0.855,3.026 -2.068,3.237 0.66,0.48 0.846,0.15 0.396,0.84 -0.508,0.782 -0.086,0.048 -0.358,0.278 -0.719,0.611 0.061,0.4 -0.928,1.608l-1.242 -1.88c-0.128,-0.145 -0.249,-0.254 -0.361,-0.357l0.033 0.419c0.145,1.844 0.251,3.583 0.329,5.315 0.273,-0.157 0.585,-0.439 0.943,-0.887 1.173,1.114 2.002,2.123 2.607,3.066 0.081,0.368 0.183,0.71 0.288,0.934 0.738,1.582 1.811,3.004 1.256,4.849 -0.56,1.863 0.109,1.183 0.63,2.87 0.328,-0.072 0.63,-0.108 0.932,-0.183 1.09,2.616 0.483,3.219 2.268,5.92 0.322,-2.682 -1.577,-4.223 -1.53,-6.216 0.033,-0.021 0.068,-0.042 0.102,-0.064 -0.025,-0.15 -0.051,-0.279 -0.076,-0.393 0.024,-0.345 0.04,-0.713 -0.079,-1.242 0.128,-0.189 0.337,-0.497 0.653,-1.06 -1.132,-1.271 -1.424,-1.424 -1.674,-1.443 -0.174,-0.329 -0.348,-0.644 -0.521,-0.958l0.448 -1.704c0.296,-0.394 0.49,-0.024 0.504,-0.59 0.017,-0.691 -0.394,-0.706 -0.814,-0.87 2.095,-1.452 -0.367,-0.055 0.816,-1.619 0.385,0.365 0.326,0.259 0.389,0.5l0.004 0.002c0.162,0.631 0.258,0.928 0.35,1.551l2.1 7.385c0.483,1.361 0.595,1.73 0.795,3.096 0.161,1.098 0.46,1.812 0.776,2.924 0.89,3.14 2.156,4.845 1.626,6.016 -2.343,-0.318 -1.111,-2.743 -3.081,-0.286 -4.158,-3.944 -4.605,-4.84 -6.425,-9.504l-0.835 -1.773c0.135,-0.991 0,-1.96 -0.567,-2.714 0.658,-0.731 0.575,-0.52 0.812,-1.259 -0.808,-0.138 -0.279,-0.363 -1.129,0.541 -0.385,-1.236 -0.548,-0.525 -0.949,-2.871 -0.107,-0.009 -0.214,-0.014 -0.32,-0.018l-0.174 -0.378c0.011,0.494 0.022,0.993 0.031,1.498 0.063,3.57 0.051,7.481 0.091,11.969 0.012,1.32 0.028,2.689 0.047,4.073 0.581,0.565 0.235,1.515 1.28,2.101 0.88,0.491 -0.071,-0.515 1.088,0.647 0.752,0.754 -0.379,-0.108 0.491,0.532 0.524,0.386 0.339,0.004 1.111,0.572l1.716 1.615c1.039,0.978 1.355,1.493 2.07,2.296 -0.911,0.27 -2.078,0.553 -3.045,0.312 -0.734,-0.182 -2.492,-0.862 -3.138,-1.234 -0.186,-0.755 -0.278,-0.431 0.087,-1.236 -0.897,-0.851 -0.931,-0.874 -1.589,-1.231 0.032,1.849 0.068,3.655 0.105,5.33l0.024 1.114c0.054,-0.024 0.11,-0.05 0.168,-0.08l2.493 -1.756c0.701,-0.317 2.081,0.316 2.931,0.746 0.436,0.222 1.116,0.681 1.5,0.813 0.668,0.232 0.287,0.069 0.812,0.084 0.458,0.015 0.13,-0.159 0.648,0.056 -0.502,1.955 -0.895,1.459 -0.538,3.553 0.53,3.128 0.8,1.943 -0.197,2.999 1.087,0.985 1.561,0.816 1.212,4.117 -0.043,0.401 -0.543,3.177 0.811,3.082 0.402,-0.027 0.417,-0.105 0.943,-0.761 0.319,0.813 0.782,1.072 1.56,1.809 -0.382,0.844 -0.134,0.565 -0.238,1.424 -0.849,-0.806 -0.976,-0.635 -1.86,-1.425 -0.626,-0.558 -1.266,-1.21 -1.882,-1.794l-4.3 -1.77c0.87,0.975 0.61,1.271 0.939,2.207 1.322,0.12 0.115,-0.562 1.636,0.393 0.641,0.402 0.948,0.739 1.529,1.291 0.49,-0.23 0.262,-0.05 0.771,-0.587l2.541 2.019c0.605,0.292 0.05,0.347 0.645,0.016 0.674,0.757 0.457,0.643 0.455,1.544l0.063 0.873c0.035,0.536 0.088,0.131 -0.03,0.705l-0.352 1.608c-0.246,1.99 -1.194,1.423 -1.788,2.932 -0.167,0.425 -0.304,1.356 -0.7,2.306 0.614,0.056 1.234,0.11 1.848,0.163 2.942,0.254 5.742,0.476 10.492,0.73 2.052,0.11 4.468,0.225 6.95,0.338 0.529,-0.409 0.575,-0.409 1.228,-1.224 0.47,1.339 0.468,1.108 1.689,1.273 -0.038,0.028 -0.075,0.053 -0.11,0.077 2.338,0.104 4.635,0.202 6.643,0.289 4.95,0.214 8.149,0.356 10.954,0.382 2.806,0.026 5.218,-0.066 7.656,-0.143 2.438,-0.077 4.901,-0.139 7.25,-0.216 2.35,-0.077 4.585,-0.168 7.735,-0.565 0.859,-0.108 1.786,-0.238 2.731,-0.382 -0.102,-0.331 -0.227,-0.683 -0.382,-1.06 0.398,0.167 0.793,0.383 1.17,0.415 0.744,0.065 1.596,-0.299 2.233,-0.684 0.628,-0.373 0.699,-0.451 0.969,-0.866 0.957,-1.468 2.647,0.86 4.456,0.138 1.829,-0.731 1.962,-2.809 2.649,-4.213 0.597,0.054 0.233,0.198 0.792,-0.237 0.394,1.606 0.141,1.984 1.714,2.535 0.373,-0.332 0.433,-0.485 0.49,-0.764 0.06,-0.29 0.117,-0.718 0.209,-2.252 0.033,-0.564 0.071,-1.279 0.121,-2.215 -0.344,0.044 -0.806,0.2 -1.696,0.542 -2.542,0.979 -3.613,0.925 -6.12,0.148 -0.785,-0.243 -1.139,-0.373 -1.949,-0.239 -1.046,0.171 -3.154,0.117 -3.832,0.651 0.36,0.916 1.375,1.392 1.581,2.158 -0.606,-0.348 -0.672,-0.307 -1.347,-0.949 -1.121,1.399 -1.754,2.276 -2.814,2.384 -0.1,-0.305 -0.191,-0.602 -0.277,-0.894 0.343,-1.443 -0.084,-2.984 -0.982,-4.079 -0.245,-1.109 -0.509,-2.256 -0.895,-3.529 -0.457,-1.507 -1.149,-2.448 -1.887,-3.948 -0.496,-1.008 -0.883,-1.925 -1.194,-2.767 4.353,-0.171 18.772,-0.092 21.981,0.457l0.085 -1.406c-0.404,0.087 -0.75,0.191 -1.296,0.246l-4.19 0.03c-0.752,-0.045 -1.38,-0.087 -2.101,-0.077 -3.776,0.062 -8.962,-0.626 -12.41,0.148l-0.003 0.006c-0.841,0.19 -1.536,0.198 -2.236,0.168 -1.98,-5.659 -0.596,-7.916 -6.731,-12.448 -1.545,-1.141 -8.702,-5.44 -7.921,-8.394 0.632,-2.387 2.106,-3.347 -0.193,-5.927 0.949,-0.39 1.042,-1.322 0.176,-2.337 -0.815,0.282 -0.842,0.382 -1.452,0.901 -2.317,-2.601 -1.294,-5.011 -0.483,-4.431 0.928,0.663 0.287,0.406 0.401,0.806 0.882,3.096 1.612,2.333 4.271,2.537 0.486,0.948 -0.029,0.519 0.522,1.203 0.48,0.597 0.283,0.044 0.979,0.948 1.581,2.049 3.334,3.582 3.836,4.664 0.509,1.1 1.173,1.514 2.007,1.784l2.247 0.786c0.411,0.063 1.273,-0.426 2.254,-0.29 1.125,0.154 3.418,0.156 4.339,0.751 -0.417,0.796 -0.579,2.086 -0.343,2.874 0.591,1.977 5.125,6.891 6.391,7.494 4.796,2.288 6.546,-2.596 9.205,-5.548 -0.25,-0.921 -0.285,-0.348 -0.153,-1.256 0.085,-0.06 0.171,-0.11 0.257,-0.157l1.557 0.737c0.898,0.494 1.377,0.552 1.964,0.692l0.013 -0.197 0.094 -1.388c-0.192,-0.135 -0.374,-0.245 -0.552,-0.315 0.212,-0.039 0.404,-0.079 0.582,-0.121l0.068 -0.957c-2.008,0.184 -3.847,-0.172 -4.431,-2.056 -0.788,-2.545 -0.067,-2.117 -1.851,-4.669 -1.505,-2.149 -0.514,-1.612 -3.073,-4.483 -1.522,0.598 -1.497,2.199 -3.342,-0.528 -0.72,-1.06 -1.133,-2.653 -2.095,-3.79 -1.144,-1.347 -1.856,-0.953 -3.368,-2.656 -2.453,-2.765 -1.951,-2.886 -2.71,-3.78 -0.72,0.341 -0.854,-0.089 -2.085,-1.284l-1.6 -1.392c-0.638,-0.339 -0.126,-0.101 -0.481,-0.189 1.115,1.252 2.039,1.647 2.914,2.857 0.871,1.2 0.565,0.349 0.279,1.088 1.197,1.285 0.69,-0.022 1.715,1.239 0.398,0.486 0.611,1.026 1.311,1.823 2.184,2.479 2.897,1.187 5.072,5.542 0.481,0.963 0.231,0.326 0.267,0.899 0.124,2.045 1.026,3.182 0.424,4.063 -0.291,0.425 -1.369,1.429 -1.808,1.868 -0.451,-0.314 -0.493,-0.273 -0.961,-0.718 -0.074,0.406 -0.119,0.65 -0.182,0.766 -7.444,-4.166 -3.684,-7.085 -7.666,-9.639 -0.887,-0.568 -1.818,-0.853 -2.724,-0.908 -0.711,-1.005 -0.942,-1.268 -1.925,-2.408 -1.134,-1.316 -0.533,-0.989 -0.763,-2.334l-0.486 0.541c-1.268,-1.425 -2.303,-3.699 -2.489,-5.205 -0.092,-0.743 -0.131,-1.807 0.254,-2.546 0.591,-1.131 1.231,-0.76 2.126,-0.692 -0.785,-0.743 -1.939,-0.958 -2.75,-0.568 -1.084,0.521 -0.939,1.72 -1.125,2.73 -1.497,-1.679 -1.529,-2.227 -2.598,-3.597 -1.323,-1.697 -1.246,-0.641 -1.382,-3.039 -0.705,-0.456 -0.74,-0.187 -0.834,-0.256 -0.457,-0.33 0.181,0.061 -0.446,-0.818l-0.649 0.719c0.325,0.381 0.6,0.7 0.507,1.257 -0.106,0.633 -0.143,0.479 -0.683,1.08 -1.787,-0.613 -1.832,-0.95 -0.946,-2.692 0.646,-1.272 0.337,-2.007 0.417,-3.235l0.648 -3.415c0.155,-1.309 -0.477,-1.782 0.283,-3.233 0.732,-0.471 0.797,-0.075 1.424,-0.677 0.668,-0.642 1.034,-2.742 -1.399,-3.276 -1.194,1.329 -1.561,1.236 -0.952,2.698 0.99,2.373 -0.588,2.901 -0.637,5.029 -0.048,2.125 -0.439,3.364 -0.906,5.391 -1.006,-1.826 -1.513,-5.706 -1.671,-7.901 -0.191,-2.654 0.541,-1.067 0.545,-4.491 0,-1.077 -0.085,-2.082 -0.08,-3.052 0.008,-1.529 0.802,-7.727 0.556,-9.161 -0.549,1.043 -0.926,9.692 -1.273,10.778 -0.771,2.419 0.042,3.095 -0.422,7.006 -0.353,2.972 -0.199,4.075 -0.676,7.194 -0.222,1.451 -0.559,1.103 -0.667,1.541 -0.226,0.92 0.27,0.211 0.611,1.145 -0.908,0.963 -0.594,0.485 -1.613,0.806 -0.807,0.252 -0.751,0.445 -1.613,0.637 -0.223,-1.299 0.017,-1.226 0.127,-2.176 0.154,-3.987 0.892,-4.195 0.414,-6.986 -0.657,1.255 -0.297,3.826 -0.834,4.851 -0.965,-0.915 -0.818,-0.027 -1.924,-1.074 0.414,-0.789 0.035,-0.286 0.209,-0.855 0.467,-1.518 1.314,-0.421 1.126,-2.569 -0.084,-0.993 -0.149,-0.779 -0.723,-1.785 -0.568,-0.996 -0.354,-0.803 -1.539,-0.897 -1.199,1.331 -1.489,1.888 -0.343,3.234 -1.252,0.278 -1.453,0.28 -1.942,1.8 1.554,2.818 1.915,0.136 2.634,2.12 0.241,0.67 0.187,2.788 0.066,3.444 -1.475,-1.398 -0.829,-0.268 -1.315,-2.342 -0.245,-1.044 -0.727,-1.952 -1.721,-1.064 -0.082,-0.474 -0.218,-1.369 -0.671,-1.799 -0.666,-0.631 -0.74,-0.077 -1.09,0.545l0.319 0.359c-0.599,0.665 -1.541,1.538 -1.865,1.897 -0.366,0.409 -0.756,1.281 -1.214,1.88 -0.487,-0.951 0.081,-2.301 0.667,-3.234 0.833,-1.326 0.835,-1.895 -0.303,-3.232 -0.819,0.181 -2.107,0.267 -1.98,2.157 0.083,1.228 0.484,-0.103 0.028,1.079 -0.969,-0.448 0.304,-0.763 -1.435,-1.972l-0.808 0.54c-0.659,-2.445 0.319,-1.258 -0.627,-2.514 -1.096,0.759 -1.984,0.815 -2.567,-1.073l-0.486 0.539c1.225,1.376 1.567,1.463 1.271,2.512l-0.801 -0.538c0.437,0.853 0.037,0.102 0.266,0.663 0.429,1.031 0.688,1.564 0.421,2.747l-0.559 1.797 0.798 0.895c0.83,-0.184 0.394,-0.012 1.289,-0.552 0.497,-0.298 0.707,-0.414 1.132,-0.709 0.497,0.659 0.461,0.793 0.635,1.436 -0.864,0.191 -1.038,0.082 -1.938,1.081 0.364,0.88 -0.02,0.621 0.151,1.616 0.45,0.315 0.493,0.274 0.96,0.718 0.708,-0.821 0.411,-0.962 1.135,-1.259 0.17,1.291 0.107,0.176 -0.402,1.131l-0.951 1.726c-0.404,0.733 -0.566,0.817 -0.928,1.459 -0.131,-0.992 0.141,-0.446 0.01,-1.437 -0.81,-0.139 -0.917,0.226 -1.931,0.004 0.43,-1.113 -0.11,0 -0.117,-1.257 -0.013,-1.177 0.611,-0.554 -0.025,-1.796 0.895,0.023 0.991,-0.388 1.94,-1.441 -0.082,-0.027 -1.718,-0.708 -1.75,-0.732 -0.575,-0.457 0.19,-0.163 -1.132,-1.418 0.846,-1.107 0.882,-2.546 0.345,-3.594 -0.708,0.634 -1.002,0.565 -0.968,0.489 0.015,-0.033 -0.11,0.026 -0.161,0.053 -0.44,-0.86 -0.152,-0.87 -0.31,-1.796 1.226,-0.852 1.29,0.002 1.62,-1.8 -0.759,-0.815 -0.813,-0.869 -1.607,-0.356 -0.212,-1.249 0.214,-2.188 1.148,-3.414 -1.328,-1.248 0.354,0.381 -0.962,-0.356 0.278,-1.517 -0.7,-1.66 0.501,-3.054 0.18,1.051 -0.129,1.199 0.306,2.334 0.675,1.76 0.124,0.789 0.148,2.155 1.115,1.057 1.119,0.167 1.917,1.072 1.005,1.141 -0.344,0.33 1.28,2.154l0.486 -0.539c-0.707,-0.83 -1.182,-2.173 -0.449,-2.522 0.692,-0.332 0.281,0.19 0.29,0.206l0.245 0.653c1.171,1.576 -0.252,0.323 1.039,1.84 0.962,-1.26 0.167,-0.209 0.153,-2.253 -0.007,-0.762 -0.457,-1.048 -0.453,-1.338 0.348,-1.035 1.603,-0.936 0.174,-1.976 0.655,-0.225 1.119,-0.316 1.773,-0.543 -0.661,-0.427 -0.942,-0.426 -1.609,0.005 -0.889,-1.182 -0.42,-1.082 -0.355,-3.135l0.335 -2.252c0.21,-1.754 -0.994,-1.596 0.198,-2.757 0.653,-0.638 0.58,0.265 1.013,-2.096 0.543,0.378 1.058,0.697 1.601,1.076l-0.625 -0.906c-2.05,-1.478 -0.121,0.067 -2.25,-2.322 -2.149,0.477 -1.715,1.344 -3.379,0.186 0.138,-0.37 0.309,-0.47 0.325,-0.5 0.654,-1.234 -0.193,-0.55 0.652,-1.657 -1.202,-0.836 -1.134,-0.008 -1.921,-1.433 1.308,-1.452 1.311,-2.146 0.023,-3.591 0.236,-0.263 0.751,-0.908 0.975,-1.098 0.76,-0.657 1.206,0.174 1.761,0.912 0.761,-0.996 0.099,-0.38 0.653,-1.438 2.25,0.772 0.873,1.311 2.244,1.073 -0.852,-0.592 -0.782,-0.877 -1.757,-1.973 0.232,-0.442 0.221,-0.312 0.327,-0.719 -0.086,-0.645 -0.233,-0.591 0.243,-1.143 0.782,-0.905 0.248,0.629 0.733,-0.654 -0.861,-0.147 -0.63,0.218 -1.567,0.007l0.124 -0.902 -0.48 -0.539c-0.476,0.846 -0.34,1.131 -0.803,1.949l-0.814 -0.508c0.502,-0.66 0.529,-0.238 0.161,-1.618 -0.353,-1.327 -0.358,-1.137 -1.264,-2.152 -1.109,0.382 -2.278,0.786 -3.38,0.546 -0.565,-1.102 0.091,-0.515 -0.473,-1.617 -0.441,0.168 -0.325,0.089 -0.808,0.542l0.076 -1.438c0.439,-1.307 2.261,-2.761 3.336,-3.674l4.532 -4.782c1.323,1.255 2.696,1.061 4.022,-0.187 0.866,0.972 1.391,1.651 2.236,0.703 0.739,-0.832 0.35,-1.649 -0.294,-2.504 1.792,-1.99 1.267,-1.263 1.629,-3.235 -1.932,-0.423 -3.326,1.31 -3.66,2.341 -0.273,0.838 -0.233,0.525 0.579,1.437l-0.644 -0.016c-0.474,0.122 -0.023,-0.21 -0.646,0.377 -1.003,-1.332 -0.976,-1.079 -0.954,-1.794 -1.276,1.359 -0.951,0.784 -1.768,-0.175 -0.694,0.908 -0.194,0.217 -0.363,1.616 -0.191,1.562 -5.242,6.157 -6.449,7.165 -1.617,1.351 -1.426,2.084 -2.748,2.191 0.986,-1.094 1.274,-1.426 1.624,-2.517 -1.72,-1.845 -1.591,0.773 -3.055,-0.174l-0.486 0.539c0.676,1.319 0.094,0.169 -0.331,1.438 -0.662,-1.291 0.273,-0.656 0.14,-4.326 -0.032,-0.892 -0.149,-0.566 0.537,-1.062 -1.684,-0.661 -0.866,-2.117 -1.928,-3.267 -1.375,-1.493 -1.069,1.561 -0.961,2.193 -2.01,0.447 -0.793,1.072 -0.707,1.219 0.736,1.265 -0.145,-0.179 0.587,2.373l0.135 1.077c0.017,1.359 -0.214,1.259 0.744,2.333 -0.519,0.925 -0.763,1.149 -0.9,2.158 -0.106,0.794 0.005,1.219 -0.573,1.976 -0.597,-0.283 0.034,-0.703 -0.968,0.361 0.588,0.56 0.708,0.519 1.282,0.717 0.482,-1.247 -0.449,-0.538 0.166,-0.9 0.502,0.201 0.281,1.221 1.588,1.864 0.892,0.438 0.307,-0.121 2.257,0.643l0.486 -0.54c0.122,0.924 -0.006,1.076 -0.817,1.977l0.319 0.36c0.481,-0.454 0.369,-0.376 0.808,-0.541 0.375,2.187 1.049,-0.557 2.334,4.305 0.369,1.397 -0.562,1.449 -0.206,2.518 0.376,1.132 1.201,0.247 0.23,1.973 -1.821,-1.729 -1.575,-1.549 -2.243,-1.434 1.668,2.218 0.597,0.309 2.239,2.151l-1.455 0.902c0.53,0.477 0.481,0.373 0.963,0.357 -1.151,1.509 0.497,1.188 -1.127,2.455l-0.354 0.266c-1.111,0.994 -0.138,-0.321 -1.435,0.517 1.288,0.834 1.296,0.08 2.576,-0.363 1.541,1.729 1.52,2.591 -0.837,5.21 0.029,-0.959 0.02,-0.701 -0.794,-1.614 -0.415,0.794 -0.446,0.825 0.151,1.616 -1.159,0.202 -0.383,-0.504 -1.448,0.182l1.278 1.435c-0.23,-1.182 -0.747,-0.283 -0.186,-0.909 0.195,-0.218 0.703,0.139 0.823,0.242 0.754,0.642 0.563,1.206 0.16,1.922 -0.856,-0.918 -1.548,-1.09 -2.409,-0.534 -0.244,-1.422 -0.585,-1.518 -1.755,-2.331 -0.737,0.819 -1.185,1.12 -1.46,1.978 -1.113,-1.056 -1.333,-0.501 -1.211,-1.613 0.105,-0.948 0.125,-0.819 -0.216,-1.437 0.994,-0.222 1.053,0.18 2.125,-0.56l0.764 1.632c0.092,-0.635 -0.142,-1.867 -0.628,-2.514 0.454,-0.505 0.729,-0.915 0.937,-1.26 1.307,-2.171 -0.643,-1.38 -0.428,-2.872 0.677,0.643 0.388,0.653 1.125,0.178 -0.071,-0.067 -0.548,-0.517 -0.548,-0.517 -0.755,-0.806 -1.977,-2.285 -2.667,0.164l-1.647 -3.443c-0.708,-0.865 -1.795,-1.023 -0.092,-1.402 -0.966,-1.086 -0.464,-1.043 -0.79,-1.697 -0.231,-0.464 -0.07,0.065 -0.481,-0.66l-0.222 -0.515c-0.781,-1.57 -0.592,-0.344 -1.291,-1.793l-0.648 -1.286c0.054,-0.123 -1.118,-1.269 -0.054,-2.664 0.662,0.462 1.101,0.652 1.766,0.536 -0.429,-0.298 -1.317,-0.718 -1.764,-0.894l-0.005 -2.123 1.14 0.863c0.42,-0.991 -0.319,-0.536 0.815,-1.674 1.131,-1.132 0.817,-1.397 1.136,-1.933l0.329 -0.336c0.519,-0.463 0.031,0.356 0.512,-0.569 0.703,-1.347 -0.485,-0.431 0.945,-1.422 -2.254,-2.529 -2.533,0.047 -3.271,-2.507l-0.315 -0.899c-0.299,-0.881 -0.14,-0.892 -0.494,-1.437 -0.334,-0.513 -0.534,-0.531 -0.672,-0.697 -1.087,-1.297 0.59,-0.907 -1.158,-1.452 -0.212,1.149 0.226,1.723 -0.861,0.738 -0.969,-0.878 -0.806,-1.226 -1.061,-2.171 1.157,-0.202 0.383,0.505 1.449,-0.182 -0.364,-0.114 -0.247,-0.104 -0.641,-0.358l0.323 -0.361c-1.78,-0.608 -0.707,0.18 -1.921,-1.432 0.72,-0.801 1.028,-0.957 1.298,-1.799 0.641,0.689 0.33,0.47 0.96,0.718 0.354,-0.674 0.198,-0.366 0.33,-1.079 -0.377,-0.259 -0.304,-0.252 -0.642,-0.359 1.1,-1.22 0.808,-2.117 1.613,-0.72 0.301,-0.83 -0.023,-0.267 0.324,-0.359 0.788,0.925 0.794,1.605 0.949,2.511 -0.932,0.489 -0.433,-0.08 -1.129,0.541 0.233,0.865 0.212,1.26 1.116,1.615 -0.618,0.809 -0.583,1.541 -0.176,2.335 1.037,-0.408 0.809,-1.58 0.981,-2.517l-0.292 -4.669c1.049,-0.183 0.941,0.295 1.619,1.07 0.965,1.102 0.883,0.341 1.905,1.437 0.391,-0.512 0.391,-0.543 0.577,-1.079 0.308,-0.887 -0.241,0.231 0.24,-0.898 -0.978,-1.098 -2.694,-2.486 -1.429,-3.051 -0.189,-0.715 -0.137,-0.375 -0.128,-0.992 0.014,-0.943 -1.144,-0.954 0.177,-2.616l0.774 0.552c-0.742,-0.986 -0.588,-1.169 -0.332,-2.155 0.26,-1 0.166,-1.33 0.037,-2.155 0.85,0.592 -0.047,-0.037 0.813,0.344 0.106,0.047 0.171,0.073 0.209,0.084 -0.427,-0.289 0.201,0.064 0,0 0.574,0.387 -0.177,1.191 1.225,0.286 -0.645,-0.297 -0.247,-0.533 -1.789,-1.212 -1.247,-0.548 -0.546,-0.574 -1.887,-1.425 -0.697,-0.443 -0.697,-0.46 -1.448,-1.304l0.188 -1.077c0.199,-3.283 0.961,-2.167 0.323,-3.413 -0.837,0.972 -0.467,0.767 -0.821,2.696 -0.544,-1.061 -0.113,-1.083 -0.091,-1.977 0.021,-0.824 -0.257,-1.009 -0.69,-1.794 -1.082,1.257 -0.417,2.04 -0.182,3.414 -0.779,0.408 -0.09,0.022 -0.645,0.197 -0.208,0.067 -0.272,0.094 -0.483,0.162 -0.945,0.302 0.052,0.358 -0.967,0.184 -0.808,-0.225 -0.47,-0.46 -1.014,-0.853 -2.159,-1.55 -0.619,-0.98 -2.18,-2.733 -0.36,0.929 0.369,0.146 -0.157,0.802l0.942 2.251c0.243,-0.608 -0.119,-0.545 0.5,-0.145l-0.5 0.145c-0.111,0.657 -0.191,0.264 0.155,0.899 0.301,-0.83 -0.024,-0.267 0.392,-0.361l-0.075 1.079 0.159 0.178 -0.321 0.001c0.012,0.705 0.139,0.529 -0.49,1.26 -1.345,-1.511 -2.33,-1.991 -2.52,-2.87l-0.265 -1.818zm-4.47 44.622l-0.011 0.295 -0.013 0.343c0.263,0.328 0.39,1.193 1.386,0.551 -0.563,-0.535 -0.816,-0.637 -1.362,-1.189zm0.714 30.719l0.283 3.132c0.017,-0.14 0.025,-0.287 0.021,-0.441 -0.036,-1.319 -0.146,-2.125 -0.304,-2.691zm0.942 -11.28c0.005,-0.004 0.003,-0.002 0,0zm1.283 12.353c-0.571,0.281 -0.299,0.193 -0.803,-0.071 0.176,-0.686 0.14,-0.512 0.812,-1.26l0.639 0.718c-0.236,0.251 -0.35,0.468 -0.648,0.613l0 0zm11.027 -65.29l-0.095 -0.001c0,0 0.095,0.036 0.095,0.001zm-0.319 -0.359c0.414,-0.46 -0.227,-0.312 -0.096,-0.106 0.001,0.003 -0.356,0.609 0.096,0.106zm-0.157 -0.539c0.132,-0.908 0.095,-0.333 -0.153,-1.256 -0.458,0.872 -0.406,0.48 0.153,1.256zm66.836 128.455c0.066,1.121 2.022,-0.069 2.585,-0.511 -0.715,-0.381 -1.233,-0.306 -1.976,-0.068 -0.513,0.164 -0.579,-0.212 -0.609,0.579zm-70.686 -6.739l0.006 0.105c0,0 0.026,-0.106 -0.006,-0.105zm-4.328 -29.148c-0.643,2.502 0.078,0.912 0.152,4.551 0.048,2.289 0.441,-0.221 1.026,2.606 0.064,0.312 0.227,0.656 0.451,1.014 0.762,0.647 1.475,1.226 2.046,1.709 1.343,1.136 2.116,1.821 2.573,2.267 0.234,-0.329 0.308,-0.809 0.293,-1.241 -0.025,-0.847 -0.65,-1.822 -1.208,-3.074 -2.264,-5.062 -1.677,-2.843 -3.717,-6.027 -0.649,-1.013 -0.985,-1.847 -1.609,-2.859 -0.843,-1.371 -1.154,-1.484 -1.679,-3.028 0,0 0,0 0,-0.001 -0.356,0.933 -0.642,1.295 -1.09,2.049 0.935,0.804 1.862,1.518 2.762,2.034zm48.63 11.886c-0.085,0.952 0.009,1.148 -0.759,2.173 -1.207,1.613 -0.631,-0.415 -1.156,1.399 -0.321,1.114 -0.449,1.069 -0.214,2.179 0.278,1.305 0.53,3.142 1.175,4.308 0.15,-0.49 0.079,-0.362 0.487,-0.899l0.73 4.22c2.387,-1.029 4.977,-1.662 7.335,-2.006 0.889,-0.129 1.242,0.051 2.097,0.02 1.344,-0.046 2.593,-0.279 3.914,-0.318 -0.991,-4.673 -0.108,-7.792 -5.329,-11.48 -0.737,-0.52 -2.324,-1.137 -3.365,-2.125 -1.107,-1.051 -2.45,-2.743 -3.514,-3.939 -0.44,2.394 -1.55,0.651 -1.09,4.313 0.141,1.123 -0.188,0.768 -0.311,2.156l0 -0.001zm-4.336 10.605c-0.566,1.081 -0.19,0.467 0.151,1.617 0.499,-0.887 0.589,-0.747 -0.151,-1.617zm-4.286 9.275c0.096,-0.22 0.205,-0.443 0.326,-0.669 -0.277,0.186 -0.521,0.382 -0.697,0.568 0.127,0.053 0.25,0.086 0.371,0.102l0 -0.001zm-7.257 -4.656c-0.767,-0.763 -0.761,-1.133 -1.4,-1.997 -1.858,-2.512 -2.859,-3.593 -4.749,-6.476 -0.854,-1.299 -2.119,-2.924 -3.036,-4.15 -0.567,-0.756 -1.1,-1.35 -1.678,-2.153 -0.861,-1.196 -0.598,-1.134 -1.743,-1.793 -0.879,1.794 -0.532,1.34 -2.426,1.401 0.957,1.951 -0.372,3.955 -0.02,5.93 0.175,0.979 0.43,0.697 0.713,1.615 -0.89,0.154 -0.398,-0.152 -1.286,0.002 0.56,1.017 0.882,2.807 1.304,3.949 1.504,4.082 4.65,5.895 5.261,7.528 0.594,1.589 -0.76,4.018 -1.344,5.669 0.298,0.507 0.462,0.886 0.418,1.434 -0.21,-0.318 -0.402,-0.62 -0.588,-0.919 -0.696,2.171 -0.895,2.308 -0.931,4.748 0.045,0.045 0.092,0.089 0.144,0.138l1.889 -3.833c0.222,-0.834 -0.276,-0.279 0.386,-1.258 0.933,0.563 0.402,0.73 1.331,0.853l1.799 0.236c2.259,0.544 7.085,-4.219 9.994,-5.445 -0.467,-0.524 -1.63,-1.941 -1.932,-2.483 -0.574,-1.018 -0.857,-1.481 -1.914,-2.483 -1.625,2.027 -1.617,4.856 -3.597,1.86 1.668,-2.083 1.937,-1.216 3.405,-2.371l0 -0.002zm-17.408 5.674c-0.179,0.97 -0.306,1.412 -0.399,1.648 0.731,0.877 1.346,1.745 2.108,2.502l0.301 -0.374c-1.514,-1.435 -1.103,-1.098 -1.109,-2.371 -0.005,-0.949 -0.394,-1.357 -0.841,-1.742 -0.017,0.106 -0.036,0.217 -0.058,0.336l-0.002 0.001zm-0.677 2.695c-0.061,0.942 0.101,1.625 0.329,2.181 1.488,-0.062 0.899,-0.465 1.478,0.373l0.3 -0.375c-0.843,-0.8 -1.356,-1.617 -2.081,-2.498 -0.01,0.086 -0.018,0.19 -0.026,0.319zm4.689 7.593l0.007 0.104c0,0 0.026,-0.107 -0.007,-0.104zm-1.471 -16.221c0.155,-1.076 -0.98,-4.979 -1.898,-6.683 -0.232,0.845 -0.125,1.655 0.157,2.795 0.377,1.516 0.812,2.804 1.26,3.905 0.152,0.015 0.311,0.012 0.481,-0.017zm-0.297 10.918c0,0 0.01,0.008 0.014,0.013 -0.003,-0.01 -0.004,-0.021 -0.006,-0.031 -0.003,0.006 -0.006,0.011 -0.01,0.018l0.002 0zm0.432 -3.543c0.012,-0.101 0.017,-0.197 0.018,-0.291l-0.576 -2.592c-0.061,-0.89 -0.145,-1.228 -0.837,-2.106l-0.396 -0.277c0.291,1.797 0.789,3.752 1.791,5.266zm0.438 -5.091c-0.024,-0.262 -0.098,-0.532 -0.261,-0.848 -0.022,0.076 -0.042,0.144 -0.064,0.209l0.325 0.639zm14.64 6.416c-0.756,0.494 -1.428,0.947 -2.168,1.513 -1.503,1.147 -3.08,1.892 -2.669,3.912 0.782,0.45 1.707,0.63 2.502,1.384 0.644,0.611 0.224,0.43 0.876,1.16 1.822,-0.766 2.88,-0.155 5.588,-0.962 -0.357,-1.457 0.253,-3.092 1.011,-4.643 -2.304,0.358 -2.346,-1.204 -1.732,-1.972 0.812,-1.012 1.435,-0.123 2.398,-0.362 -0.046,-1.263 -0.25,-1.225 -1.431,-2.345 -0.682,-0.645 -3.029,1.435 -4.377,2.315l0.002 0zm-18.742 2.12c0.01,0 0.02,0.001 0.03,0.001 -0.02,-0.061 -0.045,-0.122 -0.07,-0.182 0.012,0.061 0.024,0.12 0.04,0.182l0 -0.001zm-11.032 -74.551c-1.299,-1.458 -1.068,-0.537 -2.231,-1.785 -0.02,0.752 -0.011,1.742 0.038,2.654 0.146,0.443 0.141,0.725 0.07,0.948 0.051,0.529 0.119,0.976 0.21,1.256 0.341,1.051 0.383,0.775 0.466,1.895 0.068,0.909 0.209,1.236 0.286,2.083l0.13 0.893c0.12,-0.701 0.587,-1.745 2.451,-3.816 -0.422,-2.472 -0.602,-2.322 -1.747,-3.409 0.233,-0.442 0.222,-0.311 0.326,-0.719l0.001 0zm-5.142 -8.432c0.221,-1.023 -0.05,-0.897 -0.011,-1.975 0.057,-1.481 0.389,-0.215 -0.612,-2.887 -0.206,-0.552 0.342,-0.325 -0.58,-0.703 -0.488,1.145 -0.015,-0.007 -0.122,0.901l-0.192 0.815c-0.3,1.192 0.303,0.743 -0.675,1.88l0.97 -0.721c0.689,0.775 0.918,0.85 0.601,1.619 -0.293,0.711 -0.214,0.376 -0.936,0.537 0.442,0.587 0.566,1.113 0.826,1.739 0.164,-0.314 0.427,-0.62 0.653,-0.874l0.078 -0.331zm1.679 29.472c0.025,-0.027 0.067,-0.085 0.135,-0.2 0.614,-1.041 0.673,-0.451 0.474,-1.617l0.649 -0.72c-0.968,-0.918 -0.56,-0.132 -1.278,-1.435 -0.485,0.863 -0.754,1.191 -1.39,1.901 1.026,1.632 1.006,1.147 1.411,2.071l-0.001 0zm3.333 -0.207l0.007 0.008c0,0 -0.002,-0.008 -0.003,-0.012 -0.002,0.001 -0.003,0.003 -0.004,0.004zm-3.726 -21.544l-0.3 -3.233c-0.394,2.143 -1.099,1.661 0.3,3.233zm0.174 -10.791c-0.388,-0.022 -0.384,-0.027 -0.907,-0.524 -0.377,2.054 0.923,1.295 0.029,3.234 -0.058,0.126 -0.109,0.244 -0.157,0.359 0.653,0.045 0.503,-0.227 1.278,0.393 0.087,-0.726 -0.044,-1.997 -0.243,-3.462zm-0.567 -3.964c-0.047,0.009 -0.097,0.018 -0.158,0.028 -0.418,0.797 -0.461,1.527 0.146,2.334 0.104,-0.184 0.195,-0.345 0.277,-0.491 -0.092,-0.625 -0.183,-1.256 -0.265,-1.871zm0.466 3.26c0.002,0.009 0.004,0.014 0.005,0.023 -0.001,-0.007 -0.003,-0.016 -0.004,-0.023 0,0 0,0 -0.002,0l0.001 0zm-2.309 8.984c-0.119,0.647 -0.111,0.94 -0.494,1.617 0.724,0.686 0.877,0.686 1.609,-0.004l-1.115 -1.614 0 0.001zm-0.914 -3.133c0.318,-0.159 0.52,0.728 0.298,-1.174 -0.783,-0.411 -0.309,0.394 -1.037,-0.548 -0.361,-0.468 -0.118,-0.627 -0.719,-1.427 -0.134,0.728 -0.162,0.349 0.009,1.078 0.201,0.865 0.299,0.338 0.311,1.256 0.016,1.204 -0.562,1.32 0.453,2.514 -1.217,1.413 -0.316,3.141 0.626,2.872 0.025,-0.011 0.074,-0.056 0.088,-0.07 -0.009,0.01 0.075,-0.066 0.085,-0.082 1.274,-2.062 -0.437,-2.901 -0.418,-4.007 0.023,-1.326 -0.034,-0.246 0.305,-0.415l-0.001 0.003zm4.371 16.418c0.277,0.504 0.252,0.544 0.637,1.077l-0.637 -1.077zm0.163 -0.54c0.001,-0.037 -0.073,-0.025 -0.096,-0.001l0.096 0.001zm0.405 12.391c0.856,0.146 0.153,0.405 0.968,-0.361 -0.6,-0.204 -0.664,-0.451 -0.968,0.361zm0.212 2.156c0,0 0.096,0.035 0.096,0.001l-0.096 -0.001zm0.324 -0.359c0,0 0.095,0.034 0.095,-0.001l-0.095 0.001zm-4.803 -39.505c1.284,-2.282 0.506,-2.533 0.018,-2.873 -0.282,1.002 -0.273,1.386 -0.018,2.873zm1.931 -0.363c0.023,0.005 0.045,0.01 0.067,0.014 -0.003,-0.031 -0.008,-0.06 -0.011,-0.091 -0.019,0.025 -0.037,0.053 -0.056,0.077zm1.585 4.982l0.118 -0.859c-0.044,-0.018 -0.083,-0.034 -0.12,-0.05 0.003,0.309 0.003,0.613 0.003,0.909l-0.001 0zm-0.966 5.443c-0.643,0.389 0.119,0.38 -0.972,0.103 -0.128,-0.032 -0.242,-0.067 -0.349,-0.105 0.128,0.436 0.344,0.789 0.468,1.251 0.402,-0.527 0.366,-0.573 0.651,-1.078l0.322 1.403c-0.003,-0.494 0.084,-0.744 -0.119,-1.574l-0.001 0zm4.255 25.03c0.112,-0.003 0.281,-0.039 0.535,-0.084l-0.639 -0.717c-0.026,0.183 -0.049,0.325 -0.064,0.437l0.168 0.364zm0.515 1.597c0.105,-0.001 0.25,-0.01 0.493,-0.064 -0.271,-0.188 -0.453,-0.33 -0.604,-0.411 0.037,0.143 0.073,0.3 0.111,0.475zm4.22 23.746c0.461,-0.364 1.584,-0.704 0.724,-1.047 -0.946,-0.377 -0.874,0.438 -0.724,1.047zm0.791 -0.237c-0.444,0.469 -0.488,0.433 -0.921,0.774 -0.067,0.561 -0.06,0.612 0.008,1.227 0.335,3.066 -0.986,2.463 -0.014,4.038l0.799 -0.191c-0.781,-2.257 -0.777,-1.138 0.16,-2.742 0.275,-0.471 0.302,-1.076 0.34,-1.554 0.062,-0.769 0.195,-0.857 -0.372,-1.552zm-12.195 -82.111c1,-1.108 1.85,-2.094 1.953,-3.595 -1.188,1.318 -1.912,1.895 -3.074,2.7 0.597,0.266 0.243,-0.11 0.479,0.538l0.783 -1.28c0.188,1.186 -0.527,0.608 -0.142,1.637l0.001 0zm3.747 -11.524c0.178,0.118 0.343,0.808 0.346,0.202 0.002,-0.387 -1.115,-0.709 -0.346,-0.202zm0.534 -3.929c0.003,-0.382 -0.863,-0.394 -0.262,-0.106 0.006,0.004 0.258,0.709 0.262,0.106zm1.835 -10.602c-0.142,0.99 -0.355,0.15 0.316,1.078l0.323 -0.359 -0.639 -0.719zm0.349 15.659c0.793,-1.094 1.396,-2.309 0.539,-3.445 -0.585,0.4 -0.213,0.281 -0.805,0.18 -0.041,-0.012 -0.072,-0.083 -0.116,-0.059 -0.043,0.025 -0.096,-0.05 -0.113,-0.064 -1.544,-1.12 -0.699,-2.057 -2.181,-0.412 0.846,1.534 0.068,0.291 1.281,1.075 -0.793,0.921 -0.654,1.047 -0.496,1.976 0.083,1.471 0.585,2.549 1.892,0.747l-0.001 0.002zm2.19 15.409c0.239,-0.56 0.136,-0.369 0.127,-0.899 -0.008,-0.37 -0.059,-0.571 -0.115,-0.899 -0.334,0.593 -0.211,0.45 -0.651,1.079l0.639 0.719zm-0.945 7.366c0,0 0.096,0.036 0.096,0.001l-0.096 -0.001zm0.157 0.539c0,0 0.096,0.034 0.095,-0.001l-0.095 0.001zm-3.915 -1.609c0.217,0.036 0.114,0.245 0.454,0.006 0.408,-0.286 0.107,-0.017 0.191,-0.367 0.482,-0.452 0.368,-0.374 0.807,-0.541 -0.943,-0.61 -0.397,0.125 -1.283,-0.716 -0.52,0.681 -0.443,0.567 -0.491,1.259 0.703,-0.662 0.714,-0.691 0.965,-0.002 -0.366,0.115 -0.249,0.103 -0.645,0.361l0.002 0zm-1.617 -14.007c0,0 0.096,0.036 0.095,0.001l-0.095 -0.001zm-1.971 6.469l0.097 0.001c0.002,-0.037 -0.074,-0.025 -0.097,-0.001zm3.745 18.313l0.097 0c0.001,-0.035 -0.074,-0.025 -0.097,0zm0.571 1.257c0.966,0.165 0.065,0.334 0.968,-0.35 0.522,-0.396 0.61,-0.548 1.131,-0.91 -0.752,-0.845 -0.686,-0.834 -1.115,-1.615 -0.717,0.939 -0.26,0.859 -0.976,1.798l0.482 0.178c-0.151,0.492 -0.08,0.363 -0.488,0.899l-0.002 0zm3.332 17.595c0,0 0.096,0.034 0.096,0.001l-0.096 -0.001zm1.615 -11.317c0.51,-0.481 1.182,-0.895 1.149,0.14 -0.035,1.065 -0.276,0.377 -0.327,0.408 -0.418,0.246 -0.589,-0.739 -0.81,1.606 -0.08,0.839 -0.099,0.781 0.126,1.616 0.88,-0.829 1.402,-0.891 2.258,-1.082 -0.272,-0.724 0.098,-0.5 0.087,-1.438 -0.019,-1.531 -0.031,0.284 -0.492,-1.252 -0.448,-1.499 0.429,-1.928 -0.684,-3.234l-0.81 0.9c-0.53,-0.386 -0.304,-0.285 -0.502,-0.457l-0.619 -0.439c0.865,1.567 -0.028,1.962 0.623,3.232l0.001 0zm-0.607 -5.748c0.002,-0.036 -0.072,-0.025 -0.095,0 0,0 0.095,0.034 0.097,0l-0.002 0zm-0.139 -3.411c-0.54,1.029 -0.172,0.462 -0.169,1.256 0.417,-0.796 0.303,-0.471 0.169,-1.256zm-0.171 1.616c0.071,1.258 0.243,1.299 0.955,1.793l0.323 -0.359c-0.923,-1.083 -0.215,-0.695 -1.278,-1.434zm1.906 3.947l0.324 -0.359c-0.291,-0.527 -0.632,-1.092 -0.795,-1.615 -0.549,1.051 -0.364,1.394 0.471,1.975l0 -0.001zm0.992 -4.312c-0.919,1.02 -0.484,0.846 -1.13,0.541 -0.355,0.468 -0.252,0.273 -0.121,0.948 0.122,0.62 0.193,1.247 0.625,1.968 0.952,1.591 0.265,0.356 1.395,-0.151 0.823,-0.369 -0.283,0.513 0.821,-0.435l-1.59 -2.871zm1.224 10.056l-0.069 0.718c0.375,-0.592 0.305,-0.133 0.069,-0.718zm3.838 3.585c-0.318,0.744 -0.163,0.184 -0.133,1.109 0.022,0.723 -0.097,0.907 0.285,0.905 0.601,0 0.159,-1.45 -0.152,-2.014zm0.806 -0.181c-0.347,0.661 -0.23,0.215 -0.19,0.899 0.026,0.44 0.104,0.619 0.337,1.077 0.377,-1.172 0.859,-0.793 -0.147,-1.974l0 -0.002zm0.283 6.105c0.144,-0.784 0.254,-0.461 -0.153,-1.255 -0.154,0.834 -0.247,0.425 0.153,1.255zm-0.498 2.336l-0.139 -3.411c-2.415,2.682 -2.559,2.062 -1.948,2.878l-0.324 0.359c-0.492,-0.854 -0.028,-0.908 -0.863,-0.299l-1.071 0.662c-0.382,0.022 -0.396,0.026 -0.805,0.181 -0.65,3.544 -0.604,2.207 -0.807,2.973 -0.179,0.68 0.118,0.173 -0.024,1.159 -0.908,-0.859 -0.134,-0.496 -0.803,-0.178 -0.074,0.357 0.064,0.071 -0.228,0.546 -0.631,1.026 -1.302,1.248 -1.877,1.791l0.239 0.447c0.126,0.425 0.202,-0.243 0.076,0.63l-0.964 -0.078c-0.727,-0.034 -0.47,-0.165 -1.129,0.26l-0.116 1.262c0.549,0.386 0.274,0.214 0.912,0.353l-0.822 0.513c0.505,1.853 0.317,1.815 1.922,3.616 0.683,-0.317 0.26,-0.552 0.649,-0.719 0.237,0.771 0.555,0.846 0.793,1.616 0.709,-0.668 0.946,-0.587 1.616,-0.976 0.574,-0.335 1.231,-0.987 1.777,-1.367 -0.248,-0.92 -0.329,-0.641 -0.151,-1.616 -0.613,-0.426 -0.67,-0.29 -1.283,-0.716 1.984,-0.345 4.193,1.593 3.535,-2.341 -0.145,-0.863 0.265,0.254 -0.137,-0.719 -0.388,0.431 -0.825,0.824 -1.181,1.209 -0.714,0.768 -0.824,0.006 -0.119,0.949 -0.815,0.766 -0.112,0.507 -0.968,0.362l-0.159 -0.18c0.325,-1.572 0.873,-0.969 1.497,-2.143 0.504,-0.946 -0.211,0.268 0.291,-0.913 0.926,0.317 0.651,0.21 1.609,-0.003l0.444 -3.055c0.24,-1.31 -0.089,-1.902 0.56,-3.055l0.157 0.539 0.486 -0.541 -0.643 0.001 -0.002 0.004zm-2.646 11.501c-0.737,0.854 -0.785,0.915 -0.333,1.796 0.738,-0.854 0.786,-0.916 0.333,-1.796zm-0.118 3.593l0.097 -0.001c0.001,-0.036 -0.074,-0.026 -0.097,0.001zm0.445 -4.313c-0.709,-0.459 -0.42,-0.335 -1.125,-0.178l-0.076 1.077c1.2,-0.444 0.371,-0.515 1.2,-0.899l0.001 0zm2.631 -9.345c-0.791,1.036 -0.141,0.472 -0.645,2.875 -0.399,1.903 -0.224,1.936 0.609,2.871 0.249,-1.354 -0.12,-1.641 -0.069,-2.874 0.051,-1.221 0.646,-1.818 0.106,-2.874l-0.001 0.002zm0.64 11.123c0.011,-1.328 -0.184,-0.844 -1.179,-1.961 0.278,1.791 0.663,0.402 -0.015,2.514 -0.778,-0.87 -0.724,-0.937 -0.954,-1.793 -0.692,1.319 0.223,1.57 0.626,2.872 0.061,-0.027 0.101,-0.039 0.129,-0.045 -0.008,0.092 0.12,-0.025 0,0l0.359 -0.855c0.568,0.755 0.27,0.629 0.956,1.435l0.079 -2.167 -0.001 0zm3.267 -18.314l-1.782 1.978 0.155 0.899c-0.484,0.859 -0.695,1.223 -0.745,2.156 -0.03,0.564 -0.135,1.969 -0.089,2.335l-0.002 0.36c-0.173,0.939 -0.053,1.696 -0.086,2.695 -0.012,0.35 -0.014,0.415 -0.07,0.719 -0.238,1.294 -0.312,0.566 -0.039,2.155 -0.127,0.683 -0.226,1.517 0.017,2.202 0.381,1.076 0.8,0.459 1.58,-0.408 -1.107,-1.299 -0.008,-0.775 -0.306,-2.514 -0.014,-0.066 -0.017,-0.205 -0.069,-0.187l-0.162 -1.463c-0.191,-1.181 -0.633,0.431 -0.23,-1.761 0.898,1.63 0.3,0.037 1.6,1.433l0.249 -1.257c0.195,-0.961 0.186,-0.295 0.101,-1.257 -0.528,-5.963 0.799,-2.694 -0.123,-8.082l0.001 -0.003zm-2.052 19.4l0.48 0.538c-0.56,0.773 -0.05,0.22 -0.49,1.259 1.39,0.778 -0.28,-0.987 1.118,-0.598 1.333,0.371 -0.235,1.142 1.616,0.413 0.149,0.87 -0.114,0.605 0.313,1.436 0.096,-0.53 0.239,-1.468 0.174,-1.976 -0.913,0.589 -0.663,0.278 -0.802,-0.538 -0.48,0.917 0.088,0.651 -0.488,0.899 -0.687,-1.34 0.66,-3.009 -0.455,-4.489 -0.699,2.476 -0.884,1.756 -1.933,0.362 -0.399,2.176 0.534,-0.075 0.271,1.624 -0.062,0.405 -1.159,2.335 0.196,1.068l0 0.002zm-0.264 1.26c0,0 0.095,0.034 0.097,-0.001l-0.097 0.001zm0.56 2.692l0.486 -0.541 -0.319 -0.358c-0.776,1.02 -0.445,0.154 -0.167,0.899zm1.29 -0.362l0.486 -0.541 -0.32 -0.358c-0.495,0.892 -0.156,0.87 -0.166,0.899zm1.868 -41.312c0.001,-0.037 -0.073,-0.025 -0.095,-0.001l0.095 0.001zm-0.894 -11.494c0.23,0.05 0.298,0.12 0.643,0.095 0.894,-0.07 0.363,-0.123 0.806,-0.278 -0.684,-0.149 -0.776,-0.249 -1.449,0.183zm5.132 28.189c0.293,-0.555 0.29,-0.163 0.004,-0.719 -0.31,0.592 -0.24,0.135 -0.004,0.719zm-0.618 -3.951l-0.097 0c0,0 0.096,0.036 0.097,0zm0.949 2.514c0.545,-0.968 0.314,-0.797 0.224,-1.978l-0.043 -0.718c-0.136,-1.083 -0.627,-2.188 -0.287,-3.593l0.314 -1.077c-0.505,0.535 -0.662,0.574 -1.132,0.9 1.006,1.824 -0.789,3.121 0.926,6.464l-0.002 0.002zm-3.368 -4.817c0.016,0.033 0.059,0.092 0.077,0.123 1.005,1.824 -0.313,1.366 0.248,2.722 0.735,-0.29 0.755,-0.481 1.455,-1.259 -0.734,-0.861 -0.787,-1.41 -0.905,-2.333 -0.168,-1.309 -0.062,-1.137 0.614,-2.337 0.287,0.52 0.321,0.697 0.796,1.256l-0.443 -1.274c0.608,-0.693 0.675,-0.655 1.262,-1.063 -0.933,-1.239 -0.137,-1.071 -0.953,-2.153 -0.66,0.911 -0.199,0.275 -0.372,0.9 -0.293,1.06 -0.421,2.684 -1.733,1.439 -0.192,1.052 0.246,1.257 -0.331,1.437 -0.236,1.285 0.156,2.292 0.285,2.543l0 -0.001zm2.379 -16.913c-0.878,-0.46 0.121,-0.171 -0.966,-0.011 -0.719,0.105 -0.298,0.369 -1.125,-0.166 0.984,-0.516 -0.114,0.053 0.644,-0.151 0.681,-0.18 -0.135,0.654 0.806,-0.391 0.888,-0.987 -0.461,-2.533 -2.567,-1.072 0.404,0.977 -0.053,2.985 0.776,4.488 0.661,-0.734 2.025,-2.735 2.432,-2.697zm-2.875 7.008c0,0 0.095,0.035 0.095,0.001l-0.095 -0.001zm-1.059 31.642c0.157,0.185 -0.216,0.56 0.152,0.151 0.44,-0.488 -0.571,-0.641 -0.152,-0.151zm-0.519 4.463l0.84 -0.856c0.028,-0.041 0.06,-0.192 0.132,-0.223 -1,-1.733 -1.143,0.084 -0.972,1.08l0 -0.001zm1.457 -3.747l0.009 0.69 0.808 -0.133 -0.818 -0.557 0.001 0zm0.516 2.665c-0.021,-0.068 -0.156,-0.41 -0.195,-0.539 -0.257,0.667 -0.63,-0.033 0.316,1.077 -0.049,-0.309 0.061,0.056 -0.121,-0.538zm-0.029 -1.077l-0.32 -0.359c0.015,0.529 -0.155,0.339 0.32,0.359zm1.156 -4.852c-0.414,0.479 -1.098,1.298 -0.221,1.297 0.547,0 0.316,-0.743 0.221,-1.297zm-0.454 4.469c0.024,0.004 0.262,0.55 0.266,0.022 0.003,-0.621 -0.975,-0.115 -0.266,-0.022zm6.909 -5.159c-0.14,-1.294 0.001,-0.066 -0.611,-0.606 -0.168,-0.148 -0.382,-0.075 -0.371,-0.695 0.014,-0.959 0.083,-0.379 0.384,-0.539 0.542,-0.289 0.435,0.756 0.455,-0.251 0.012,-0.616 -0.26,-0.487 -0.66,-0.644 -0.105,0.407 -0.094,0.277 -0.326,0.719 -0.705,0.158 -0.416,0.281 -1.126,-0.177 -0.13,0.907 0.221,1.787 0.465,2.693 1.435,-0.315 1.872,0.254 1.789,-0.501l0.001 0.001zm-1.692 10.739c0.414,-0.46 -0.228,-0.313 -0.096,-0.106 0.001,0.003 -0.357,0.608 0.096,0.106zm0.331 -1.438c0.824,0.283 0.31,0.319 1.125,0.178 0.293,-2.035 -1.572,-3.059 -1.125,-0.178zm5.224 -12.223c-1.639,1.821 -1.019,1.421 -1.367,1.907 -0.128,0.181 -1.615,0.551 -1.395,2.229 0.712,-0.757 2.186,-1.357 3.229,-1.803l-0.469 -2.333 0.002 0zm0.882 13.289c-0.509,0.672 -0.487,0.141 0.041,1.257 0.167,0.353 -0.289,-0.121 0.27,0.538l0.324 -0.359c-0.262,-0.477 -0.497,-1.286 -0.635,-1.436zm1.102 3.77l-1.169 0.518c-0.591,0.279 0.021,0.483 -0.612,0.129 -0.618,-0.347 -0.406,-0.011 -0.15,-0.643l-0.479 -0.538c-0.845,0.587 -0.809,0.322 -1.527,0.328 -0.843,0.004 -0.66,0.319 -1.197,-0.644 -0.393,-0.705 -0.34,-0.703 -0.322,-1.294 -0.379,0.441 -1.171,0.674 0.142,3.053 -2.498,0.133 -1.183,-0.167 -2.451,1.244 -0.906,1.006 -0.566,-0.019 -1.234,1.756 -1.029,2.716 0.784,1 -1.332,2.527 -0.17,0.123 -0.116,0.011 -0.336,0.307 -0.613,0.825 -0.41,1.806 -2.083,-0.072 0.067,-0.938 -0.052,-1.509 1.138,-1.979 0.878,0.83 0.915,0.823 1.587,-0.326 0.498,-0.85 0.536,-1.542 0.521,-2.372 -0.989,-1.062 -0.363,-0.642 -0.963,-0.357l-0.319 -0.358c1.207,-0.876 -0.518,-1.44 -0.33,-2.516l-0.623 0.362 -0.798 -0.896 0.972 -1.08c0.535,0.22 0.232,0.252 0.871,0.463 0.294,0.101 -0.174,-0.308 0.346,0.106 0.461,0.365 0.101,0.948 0.057,1.582 0.805,-0.558 1.227,-0.047 1.935,-2.518 0.287,-1.003 0.367,-2.398 0.193,-3.413 -0.339,0.106 -0.265,0.102 -0.645,0.36 -0.146,-0.49 -0.076,-0.362 -0.477,-0.896 -1.078,1.252 -0.519,2.267 -1.45,0.997l-0.154 -0.22c-0.927,-1.016 -0.501,0.098 -0.803,-1.671 -0.78,0.175 -0.54,-0.12 -1.289,0.362 0.905,1.015 0.754,0.531 0.474,1.257 -0.379,0.059 0.182,-0.558 -0.646,0.36 0.345,-0.054 -0.079,0.319 0.646,-0.36 0.227,0.441 0.217,0.31 0.318,0.717l0.462 -0.913c0.648,0.746 0.543,0.761 0.661,1.45l-0.486 0.54 -0.48 -0.538c-0.302,0.195 -0.254,0.692 -1.474,-0.146l0.029 -0.031c1.038,0.416 -0.63,-0.375 -0.029,0.031l-0.943 1.048 0.155 0.896c-0.162,1.12 -0.142,0.366 0.796,1.257 -0.683,0.473 -0.853,0.384 -1.134,1.259 -0.452,-0.603 -0.305,-0.336 -0.477,-0.898 -0.081,0.232 -0.154,0.556 -0.3,0.748 -0.4,0.513 -1.037,0.284 -0.236,2.03 0.239,0.523 0.17,-0.158 0.167,0.523 -0.002,0.641 -0.281,0.985 -0.785,1.191 0.05,0.025 0.178,-0.008 0.159,0.046 -0.033,0.099 0.133,-0.086 0.556,0.262 0.173,0.143 0.319,0.47 0.724,0.947 -1.529,1.439 -1.795,-0.486 -2.115,-1.014 -0.309,-0.512 -0.297,-0.278 -0.93,-0.957l0.33 -1.078 -1.765 1.135c-0.531,0.172 -0.315,0.208 -0.816,-0.052 0.264,-0.79 0.285,-0.434 0.971,-1.08 -1.007,-1.182 -0.524,-0.804 -0.148,-1.975 -1.084,-0.185 -0.265,0.272 -1.126,-0.178 0.062,-0.423 -0.067,-1.878 -0.145,-2.335 0.232,-0.442 0.222,-0.31 0.325,-0.719 -0.695,-0.153 -0.59,-0.295 -1.289,0.362l0.32 0.359c-0.288,0.064 -0.48,0.128 -0.806,0.136 -0.476,0.013 -0.303,0.13 -0.804,-0.132l0.467 2.333 -0.647 0.72c-0.908,-0.857 -0.135,-0.496 -0.803,-0.178l0.155 0.897c-0.145,0.786 -0.274,1.194 -0.496,1.978l1.444 0.68c1.104,-0.351 0.633,-0.407 1.285,0.213 -0.782,0.829 -2.466,1.219 -3.385,0.904 -0.334,-1.237 -0.246,-0.273 0.28,-2.516l0.553 -2.515c0.171,-0.794 0.045,-4.562 -0.286,-5.208 -1.271,1.413 -1.243,0.717 -2.263,1.801 -0.923,0.074 -0.527,0.109 -1.034,0.767 -0.301,0.37 -0.133,0.097 -0.744,0.493 -0.132,-0.952 -0.374,-0.275 0.488,-0.898 -1.224,-0.852 -1.426,-1.172 -2.681,-0.903 0.096,0.262 1.063,0.448 1.717,0.903 -0.459,0.432 -0.906,0.536 -1.353,0.515l1.565 5.946c1.463,4.208 1.017,4.494 1.593,6.018l1.982 5.988c0.504,3.181 -0.224,2.402 1.46,3.748 -0.596,0.879 -0.381,1.862 -0.042,2.823 0.499,1.415 0.771,0.68 1.148,1.45 1.059,-1.478 2.554,-0.784 2.786,-0.787 0.938,-0.306 1.937,-0.215 2.953,0.368 0.606,-1.337 -0.371,-1.217 0.495,-2.495 -0.867,-0.823 -0.783,-1.073 -1.731,-1.972 -1.743,3.559 -3.11,1.99 -5.67,-0.437 1.084,-1.147 0.485,0.285 2.037,-0.98 1.403,-1.144 0.869,-0.533 2.202,-0.93l-0.535 -0.835c1.443,1.369 2.554,2.789 3.654,4.453l0.792 -0.237c-0.496,1.093 -0.105,1.177 0.738,2.242 1.064,1.347 0.984,0.908 2.04,1.053 -0.213,1.773 -0.67,0.863 0.675,2.579 0.682,0.869 1.162,1.766 1.887,2.486 0.579,-1.183 0.202,-0.712 1.199,-1.497 1.692,0.974 2.299,3.348 3.893,3.047 0.657,-0.125 0.604,-0.629 1.392,-1.001 1.434,0.426 1.464,1.372 2.073,2.294 1.111,-0.524 0.74,-0.814 2.089,-0.117 1.009,0.522 1.368,0.891 2.256,-0.047 0.748,1.215 0.365,0.59 1.384,1.646 0.678,0.702 0.541,1.327 0.452,2.073 -1.172,0.862 -1.47,0.014 -2.505,1.247 -1.42,-2.148 -3.804,-0.577 -5.103,-3.101 -2.038,-3.956 -3.597,-2.134 -5.23,-2.444l-0.491 -0.107c0.644,0.723 1.231,1.644 1.905,2.485 1.746,2.179 4.01,5.763 5.787,7.447 0.76,-0.949 0.647,-1.182 1.479,-2.222l0.342 0.326c-1.926,2.403 -1.87,1.978 -0.498,3.547 0.506,0.58 0.789,1.083 1.618,1.816 0.766,0.677 1.124,0.718 1.868,1.424 0.672,-0.803 1.724,-1.367 2.697,-1.86 0.086,-0.132 0.176,-0.265 0.27,-0.403 1.555,-2.289 2.785,-2.932 1.702,-5.391 -1.166,-2.648 -1.438,-1.163 -0.848,-4.13 0.138,-0.698 0.042,-0.79 0.535,-1.437l0.814 0.508c0.793,-1.027 0.237,-1.932 0.811,-3.025 0.431,0.842 0.042,0.412 0.474,1.257 1.03,-1.194 0.4,-1.005 0.261,-2.515 -0.086,-0.938 -0.06,-1.625 -0.55,-2.513 -0.128,0.696 -0.097,1.065 -0.655,1.797 -0.19,-1.44 0.478,-0.603 0.243,-2.874 -0.089,-0.849 -0.059,-1.155 0.431,-1.796 0.408,0.739 0.647,2.251 0.784,3.051 0.964,-0.623 1.46,0.257 1.705,-1.237 0.053,-0.324 -0.061,-0.932 0.007,-1.261 0.286,-1.387 -0.167,0.49 0.578,-0.936 0.515,-0.985 -0.518,-3.541 0.83,-4.198l0.309 -0.096c-2.583,-2.899 -1.753,-0.455 -2.51,-2.673 -0.261,-0.768 -1.111,-2.327 -1.625,-2.716 -0.585,-0.44 -0.232,-0.446 -0.818,-0.167 -0.453,-1.022 0.453,-0.168 -0.474,-1.257 -1.964,1.849 -1.598,-1.427 -1.6,-1.435 -2.892,-2.011 -5.331,-2.88 -6.393,-6.811 -1.166,0.753 -1.625,-0.527 -0.793,-1.616l0.001 0.002zm-12.922 -6.8c0,0 0.096,0.035 0.097,-0.001l-0.097 0.001zm13.778 1.724c-0.502,0.491 -0.15,0.392 0.135,1.122 0.482,-0.56 0.518,-0.736 0.813,-1.258 -0.28,-0.047 -0.525,-0.278 -0.947,0.136l-0.001 0zm2.068 -14.685l0.095 -0.001c0.002,-0.035 -0.072,-0.025 -0.095,0.001zm1.515 4.486c-1.406,-0.308 -0.531,-0.048 -1.44,-1.253 -0.112,0.605 0.074,2.367 0.146,3.052 0.213,1.993 -0.68,2.121 0.782,2.694l0.72 -2.537c0.852,-2.609 -1.462,0.438 -0.208,-1.954 0.496,0.321 0.143,0.323 0.643,0l-0.643 0 0 -0.002zm5.94 0.896c-0.016,0.014 -0.27,0.002 -0.155,0.17 0.366,0.528 0.632,-0.634 0.155,-0.17zm1.368 -1.627c0,0 0.096,0.034 0.096,-0.001l-0.096 0.001zm0.191 19.575c-0.197,-2.487 -2.3,-3.616 -2.61,-3.606 -0.925,0.033 -0.534,1.878 -1.426,0.743 -1.029,-1.309 0.599,-0.758 -1.113,-2.022 -0.619,-0.456 -1.375,-0.597 -1.949,-0.904 -1.221,-0.649 -0.487,-0.476 -1.926,-0.661 -0.22,-0.817 -0.098,-1.084 -0.632,-1.794 -0.852,1.627 0.797,1.708 -1.146,3.055 1.543,2.799 0.87,3.473 3.506,5.306 0.422,0.294 0.713,0.562 1.287,1.036l3.985 4.596c0.905,1.017 1.234,0.662 2.401,1.971 0.745,-1.325 0.665,-0.838 2.284,-1.414 1.183,-0.422 1.061,-0.601 0.165,-1.491 -0.093,-0.092 -0.164,-0.022 -0.572,-0.53 -0.607,-0.762 0.352,0.148 -0.403,-0.699 -1.912,-2.144 -1.525,0.531 -1.852,-3.588l0.001 0.002zm11.397 -4.871l-1.127 0.181c-0.224,-0.828 -0.274,-0.399 -0.178,-1.256 0.107,-0.968 0.425,-0.351 -0.01,-1.436 -0.17,-0.422 -1.305,-2.549 -1.546,-2.872 -0.191,0.678 -0.287,1.081 -0.383,1.797 -0.248,1.837 -1.011,3.323 0.649,4.648 0.762,0.608 0.964,0.351 2.107,0.184 0.696,-0.081 0.557,-0.135 1.285,0.371 -0.529,2.879 -1.668,-0.051 -2.595,3.238 0.151,0.161 0.286,0.291 0.409,0.396 0.795,-1.275 2.177,-2.188 3.741,-2.431l-0.607 -0.694c-0.885,-0.748 -0.897,-1.172 -1.744,-2.123l-0.001 -0.003zm5.282 39.324c-0.335,-0.865 -0.58,-1.679 -0.768,-2.45 -1.569,0.147 -3.12,0.405 -4.632,0.861 -2.476,0.748 -4.87,1.624 -7.274,2.581 1.666,2.281 2.095,1.718 2.932,4.237 0.74,2.227 1.492,4.032 2.059,6.287l5.323 -2.75c0.653,-0.254 0.548,-0.109 1.113,-0.288 1.177,-0.374 2.017,-1.685 3.163,-2.14 0.473,-2.03 -1.136,-4.332 -1.914,-6.334l-0.002 -0.004zm-50.801 3.883c0.378,0.525 0.575,1.274 0.753,1.47 0.427,0.468 0.393,0.185 0.713,0.313 0.004,-0.001 0.01,-0.003 0.015,-0.005 0.146,-1.015 -0.133,-0.378 0.032,-1.257 0.108,-0.577 0.213,-0.509 0.245,-1.012l0.118 -1.308c-0.141,-0.34 -0.443,-0.698 -1.009,-1.091 0.151,-0.169 0.283,-0.312 0.4,-0.438 -1.085,-0.268 -2.015,-0.385 -3.124,0.486 0.724,0.719 0.617,1.117 1.857,2.84l0 0.002zm-4.144 -0.626c0,0 0.026,-0.107 -0.006,-0.104l0.006 0.104zm-1.797 -0.387c0,0 0.026,-0.106 -0.006,-0.105l0.006 0.105zm0.807 0.007c0.451,-0.997 0.287,-1.044 -0.597,-1.883 -0.786,1.161 -0.309,1.362 0.597,1.883z"/>
   </g>
  </g>
  <path fill="none" d="M91.234 163.341c0.06,-0.29 0.117,-0.718 0.209,-2.252 0.091,-1.534 0.216,-4.174 0.518,-9.369 0.303,-5.195 0.782,-12.944 1.164,-18.604 0.382,-5.659 0.667,-9.229 1.038,-13.175 0.37,-3.946 0.826,-8.268 1.397,-12.773 0.57,-4.505 1.254,-9.192 2.132,-14.518 0.879,-5.326 1.95,-11.291 2.766,-15.197 0.815,-3.906 1.374,-5.753 1.733,-6.921 0.358,-1.167 0.516,-1.655 0.64,-1.921 0.123,-0.267 0.212,-0.313 0.296,-0.305 0.084,0.008 0.164,0.069 0.266,0.183 0.103,0.113 0.228,0.278 0.391,0.627 0.163,0.349 0.362,0.88 0.684,1.602 0.321,0.721 0.764,1.632 1.146,2.525 0.381,0.893 0.7,1.768 0.836,2.443 0.135,0.674 0.087,1.147 0.127,1.679 0.04,0.532 0.168,1.122 0.504,1.619 0.337,0.498 0.881,0.903 1.195,1.44 0.314,0.538 0.396,1.208 0.602,2.158 0.205,0.951 0.533,2.183 0.646,3.113 0.112,0.929 0.009,1.556 -0.098,2.148 -0.106,0.591 -0.218,1.148 -0.101,1.705 0.117,0.557 0.462,1.116 0.865,1.635 0.404,0.519 0.866,0.998 1.149,1.313 0.284,0.315 0.39,0.466 0.491,0.609 0.101,0.142 0.198,0.276 0.351,0.879 0.152,0.603 0.36,1.675 0.439,2.419 0.078,0.745 0.027,1.161 -0.003,1.576 -0.03,0.415 -0.039,0.828 -0.073,1.354 -0.034,0.526 -0.094,1.165 -0.085,1.751 0.008,0.586 0.085,1.119 0.46,1.91 0.375,0.791 1.048,1.84 1.685,2.689 0.637,0.848 1.239,1.495 1.643,1.902 0.404,0.407 0.611,0.574 0.797,0.87 0.186,0.296 0.351,0.72 0.488,1.263 0.137,0.544 0.246,1.205 0.304,1.972 0.058,0.767 0.067,1.64 0.054,2.608 -0.013,0.968 -0.047,2.031 0.15,2.999 0.197,0.968 0.624,1.84 1.101,2.577 0.476,0.738 1,1.339 1.389,1.826 0.39,0.488 0.644,0.862 0.856,1.23 0.213,0.367 0.384,0.729 0.555,1.154 0.171,0.425 0.342,0.913 0.472,1.479 0.13,0.566 0.218,1.21 0.339,1.795 0.121,0.584 0.275,1.108 0.375,1.699 0.1,0.59 0.145,1.246 0.32,2.204 0.174,0.958 0.476,2.218 0.678,3.273 0.203,1.055 0.305,1.904 0.416,2.657 0.112,0.753 0.231,1.409 0.325,2.284 0.094,0.875 0.163,1.97 0.294,2.774 0.131,0.804 0.325,1.317 0.465,2.09 0.14,0.772 0.225,1.805 0.299,2.412 0.074,0.607 0.137,0.79 0.288,0.952 0.104,0.112 0.251,0.215 0.437,0.32 -0.079,-0.368 -0.154,-0.732 -0.127,-0.999 0.028,-0.278 0.168,-0.45 0.332,-0.556 0.164,-0.105 0.352,-0.145 0.75,-0.063 0.398,0.082 1.007,0.284 1.729,0.399 0.723,0.115 1.56,0.144 2.868,0.151 1.309,0.007 3.089,-0.007 5.568,-0.327 2.479,-0.319 5.657,-0.943 8.788,-1.599 3.132,-0.656 6.217,-1.344 9.657,-2.107 3.44,-0.762 7.234,-1.599 10.248,-2.124 3.014,-0.525 5.249,-0.737 8.16,-0.854 2.912,-0.118 6.502,-0.139 10.137,0.024 3.635,0.163 7.316,0.511 9.976,0.862 2.66,0.351 4.298,0.706 5.688,1.227 1.391,0.522 2.533,1.21 3.226,1.734 0.693,0.524 0.938,0.884 1.054,1.193 0.116,0.309 0.104,0.568 -0.007,0.887 -0.11,0.319 -0.318,0.698 -0.526,1.077 0.192,-0.063 0.354,-0.202 0.566,-0.399 0.232,-0.218 0.523,-0.509 0.64,-0.957 0.116,-0.447 0.059,-1.052 0.065,-2.577 0.006,-1.525 0.074,-3.972 0.052,-6.694 -0.023,-2.724 -0.137,-5.723 -0.194,-7.553 -0.057,-1.831 -0.057,-2.492 -0.057,-3.427 0,-0.936 0,-2.144 -0.029,-3.276 -0.028,-1.132 -0.085,-2.187 -0.111,-3.279 -0.025,-1.092 -0.02,-2.221 -0.091,-4.009 -0.072,-1.787 -0.22,-4.234 -0.3,-6.212 -0.079,-1.979 -0.091,-3.49 -0.231,-7.51 -0.139,-4.02 -0.407,-10.55 -0.929,-16.996 -0.522,-6.446 -1.297,-12.81 -2.278,-18.854 -0.981,-6.045 -2.167,-11.77 -3.341,-17.21 -1.175,-5.44 -2.338,-10.594 -3.867,-15.864 -1.528,-5.268 -3.421,-10.651 -5.246,-15.498 -1.824,-4.847 -3.581,-9.158 -4.618,-11.657 -1.038,-2.499 -1.357,-3.186 -1.494,-3.631 -0.137,-0.445 -0.092,-0.647 0.009,-0.803 0.102,-0.155 0.258,-0.263 0.386,-0.349 0.014,-0.01 0.028,-0.019 0.041,-0.029 -0.042,-0.002 -0.088,-0.005 -0.144,-0.008 -0.105,-0.005 -0.243,-0.013 -0.693,-0.048 -0.449,-0.035 -1.21,-0.098 -2.217,-0.107 -1.008,-0.008 -2.262,0.038 -3.577,0.132 -1.316,0.095 -2.692,0.24 -4.839,0.609 -2.148,0.368 -5.068,0.962 -7.478,1.498 -2.41,0.535 -4.311,1.014 -6.805,1.509 -2.494,0.494 -5.581,1.003 -8.679,1.418 -3.098,0.414 -6.208,0.733 -9.971,1.076 -3.764,0.341 -8.181,0.707 -11.872,0.965 -3.692,0.259 -6.657,0.41 -9.367,0.559 -2.711,0.148 -5.167,0.292 -7.957,0.403 -2.79,0.11 -5.915,0.186 -9.017,0.251 -3.102,0.064 -6.181,0.117 -9.116,0.11 -2.935,-0.008 -5.725,-0.076 -8.341,-0.137 -2.615,-0.061 -5.056,-0.114 -7.698,-0.194 -2.642,-0.08 -5.486,-0.186 -8.975,-0.285 -3.49,-0.099 -7.626,-0.19 -12.01,-0.217 -4.383,-0.026 -9.013,0.012 -12.845,0.008 -3.832,-0.004 -6.865,-0.049 -10.876,-0.205 -4.011,-0.156 -8.998,-0.422 -12.585,-0.69 -3.587,-0.268 -5.773,-0.538 -7.362,-0.856 -1.59,-0.318 -2.583,-0.683 -3.577,-1.049 0.044,0.064 0.021,0.188 -0.027,0.625 -0.062,0.551 -0.164,1.597 -0.449,3.521 -0.286,1.925 -0.753,4.728 -1.058,6.779 -0.305,2.052 -0.448,3.352 -0.79,5.493 -0.342,2.141 -0.884,5.124 -1.32,7.752 -0.436,2.629 -0.767,4.904 -1.029,6.823 -0.263,1.919 -0.457,3.481 -0.636,5.294 -0.18,1.814 -0.345,3.878 -0.525,6.376 -0.18,2.497 -0.373,5.428 -0.567,8.701 -0.194,3.273 -0.388,6.888 -0.53,10.743 -0.143,3.855 -0.234,7.949 -0.206,12.14 0.029,4.192 0.177,8.48 0.468,12.648 0.291,4.169 0.724,8.217 1.009,11.855 0.285,3.638 0.422,6.865 0.485,10.435 0.063,3.57 0.051,7.481 0.091,11.969 0.04,4.488 0.131,9.552 0.223,13.777 0.091,4.225 0.182,7.612 0.266,9.945 0.084,2.332 0.162,3.609 0.193,4.373 0.031,0.764 0.017,1.015 0.027,2.23 0.01,1.214 0.044,3.393 0.078,4.946 0.035,1.554 0.069,2.484 0.137,3.037 0.068,0.553 0.171,0.73 0.482,1.055 0.311,0.325 0.83,0.798 2.632,1.177 1.802,0.38 4.886,0.665 7.829,0.918 2.942,0.254 5.742,0.476 10.492,0.73 4.75,0.254 11.451,0.539 16.4,0.753 4.95,0.214 8.149,0.356 10.954,0.382 2.806,0.026 5.218,-0.066 7.656,-0.143 2.438,-0.077 4.901,-0.139 7.25,-0.216 2.35,-0.077 4.585,-0.168 7.735,-0.565 3.151,-0.396 7.217,-1.098 9.757,-1.616 2.54,-0.519 3.556,-0.856 4.448,-1.309 0.892,-0.453 1.662,-1.024 2.078,-1.386 0.417,-0.362 0.479,-0.516 0.539,-0.807z"/>
 </g>
</svg>
