<?xml version="1.0" encoding="UTF-8"?>
<!DOCTYPE svg PUBLIC "-//W3C//DTD SVG 1.1//EN" "http://www.w3.org/Graphics/SVG/1.1/DTD/svg11.dtd">
<!-- Creator: CorelDRAW 2018 (64 Bit Versão de avaliação) -->
<svg xmlns="http://www.w3.org/2000/svg" xml:space="preserve" width="187px" height="148px" version="1.1" shape-rendering="geometricPrecision" text-rendering="geometricPrecision" image-rendering="optimizeQuality" fill-rule="evenodd" clip-rule="evenodd"
viewBox="0 0 186999 147486"
 xmlns:xlink="http://www.w3.org/1999/xlink">
 <defs>
   <linearGradient id="id0" gradientUnits="userSpaceOnUse" x1="163250" y1="62817" x2="183573" y2="60508">
    <stop offset="0" stop-opacity="0.298039" stop-color="#F00808"/>
    <stop offset="1" stop-opacity="0.298039" stop-color="#F00808"/>
   </linearGradient>
 </defs>
 <g id="Camada_x0020_1">
  <metadata id="CorelCorpID_0Corel-Layer"/>
  <path id="d4" fill="url(#id0)" d="M178015 69357c190,161 376,309 562,457 -240,-2272 -508,-4545 -785,-6831 55,-67 114,-134 159,-215 -127,-928 -254,-1856 -381,-2783 -68,-54 -141,-108 -209,-162 -331,-2272 -685,-4545 -1062,-6830 -141,188 -281,376 -422,564 318,1937 617,3873 903,5809 -68,-54 -140,-107 -208,-161 208,1519 413,3039 612,4545 59,-68 114,-135 159,-202 240,1936 467,3873 672,5809zm-167426 0c-190,161 -376,309 -562,457 240,-2272 508,-4545 785,-6831 -55,-67 -114,-134 -159,-215 127,-928 254,-1856 381,-2783 68,-54 141,-108 209,-162 331,-2272 685,-4545 1062,-6830 141,188 281,376 422,564 -318,1937 -617,3873 -903,5809 68,-54 141,-107 209,-161 -209,1519 -413,3039 -613,4545 -59,-68 -114,-135 -159,-202 -240,1936 -467,3873 -672,5809zm3059 -2784c386,-3200 817,-6400 1289,-9614 73,-54 145,-107 213,-161 -490,3335 -939,6669 -1343,9991 -54,-68 -113,-135 -159,-216zm-4307 -5499c459,-3241 958,-6481 1516,-9735 50,-27 100,-67 155,-108 99,148 204,296 313,430 -527,3080 -1003,6159 -1439,9225 68,-54 141,-108 209,-162 -55,377 -105,753 -155,1130 -54,-68 -108,-135 -159,-202 -394,3079 -757,6158 -1080,9224 -140,121 -281,229 -426,336 -36,-40 -77,-94 -114,-148 345,-3240 727,-6481 1144,-9735 -68,68 -141,121 -209,175 28,-201 59,-417 87,-632 49,67 104,135 158,202zm109 148c-36,-41 -72,-95 -109,-148 -13,94 -27,175 -36,255 46,-26 100,-67 145,-107zm-5455 -7181c-159,968 -308,1937 -458,2905 68,-54 141,-108 213,-162 -376,2488 -712,4976 -1035,7450 -49,-67 -109,-135 -158,-202 -123,968 -236,1936 -354,2904 -191,162 -382,310 -572,458 154,-1305 318,-2609 476,-3927 -54,-67 -109,-134 -163,-215 254,-1896 513,-3792 794,-5688 73,-53 145,-107 213,-161 200,-1304 404,-2609 622,-3926 141,188 282,376 422,564zm999 1332c72,94 145,188 213,282 100,-67 195,-148 295,-229 -27,175 -55,350 -82,511 50,81 105,148 155,215 -463,3039 -876,6078 -1253,9104 -68,53 -136,107 -209,161 -22,175 -41,350 -59,511 -72,-94 -149,-188 -227,-282 -95,80 -190,161 -286,228 18,-161 41,-336 64,-511 -55,-67 -109,-134 -159,-202 377,-3038 790,-6077 1253,-9116 72,-54 145,-108 217,-162 23,-161 46,-336 78,-510zm2482 -1453c-213,1318 -417,2622 -617,3927 50,67 104,134 154,202 -272,1909 -531,3805 -780,5701 -69,54 -137,107 -205,161 -158,1318 -317,2622 -462,3926 -159,-188 -309,-376 -459,-564 113,-968 232,-1937 345,-2905 -68,54 -136,108 -204,161 318,-2487 658,-4975 1026,-7462 49,81 99,148 154,215 150,-968 299,-1936 453,-2905 196,-147 395,-295 595,-457zm1992 -1519c-422,2447 -794,4894 -1157,7342 50,80 105,148 159,215 -104,766 -209,1519 -309,2272 -72,54 -140,108 -213,162 -309,2447 -595,4894 -853,7341 -159,-188 -313,-376 -459,-564 223,-2098 477,-4209 731,-6320 -68,54 -136,107 -204,161 181,-1345 368,-2689 554,-4034 45,67 99,135 154,202 318,-2098 640,-4209 998,-6320 200,-148 400,-296 599,-457zm3722 5903c172,-1129 349,-2273 526,-3415 137,201 286,389 431,578 -127,807 -249,1600 -372,2393 68,-54 141,-108 209,-175 -381,2663 -744,5325 -1066,7974 -55,-67 -109,-134 -164,-202 -95,794 -186,1587 -272,2380 -191,162 -381,310 -572,458 123,-1130 254,-2273 395,-3416 -55,-67 -104,-134 -159,-201 259,-2071 540,-4142 831,-6213 68,-54 140,-107 213,-161zm161766 8269c-386,-3200 -817,-6400 -1289,-9614 -72,-54 -145,-107 -213,-161 490,3335 939,6669 1343,9991 55,-68 113,-135 159,-216zm4307 -5499c-459,-3241 -958,-6481 -1516,-9735 -50,-27 -100,-67 -154,-108 -100,148 -205,296 -314,430 527,3080 1003,6159 1439,9225 -68,-54 -141,-108 -209,-162 55,377 105,753 155,1130 54,-68 109,-135 159,-202 394,3079 758,6158 1080,9224 140,121 281,229 426,336 37,-40 77,-94 114,-148 -345,-3240 -727,-6481 -1144,-9735 68,68 141,121 209,175 -28,-201 -59,-417 -86,-632 -50,67 -105,135 -159,202zm-109 148c36,-41 72,-95 109,-148 13,94 27,175 36,255 -45,-26 -100,-67 -145,-107zm4457 -5849c-73,94 -146,188 -214,282 -100,-67 -195,-148 -295,-229 27,175 55,350 82,511 -50,81 -105,148 -155,215 463,3039 876,6078 1253,9104 68,53 136,107 209,161 22,175 41,350 59,511 72,-94 150,-188 227,-282 95,80 190,161 286,228 -18,-161 -41,-336 -64,-511 55,-67 109,-134 159,-202 -377,-3038 -790,-6077 -1253,-9116 -72,-54 -145,-108 -217,-162 -23,-161 -46,-336 -77,-510zm-2483 -1453c213,1318 418,2622 617,3927 -50,67 -104,134 -154,202 272,1909 531,3805 780,5701 69,54 137,107 205,161 159,1318 317,2622 463,3926 158,-188 308,-376 458,-564 -113,-968 -232,-1937 -345,-2905 68,54 136,108 204,161 -317,-2487 -658,-4975 -1025,-7462 -50,81 -100,148 -155,215 -149,-968 -299,-1936 -453,-2905 -196,-147 -395,-295 -595,-457zm-1992 -1519c422,2447 794,4894 1157,7342 -50,80 -105,148 -159,215 104,766 209,1519 309,2272 72,54 140,108 213,162 309,2447 595,4894 853,7341 159,-188 313,-376 459,-564 -223,-2098 -477,-4209 -731,-6320 68,54 136,107 204,161 -181,-1345 -367,-2689 -554,-4034 -45,67 -99,135 -154,202 -318,-2098 -640,-4209 -998,-6320 -200,-148 -400,-296 -599,-457zm-3722 5903c-172,-1129 -349,-2273 -526,-3415 -136,201 -286,389 -431,578 127,807 249,1600 372,2393 -68,-54 -141,-108 -209,-175 381,2663 744,5325 1066,7974 55,-67 110,-134 164,-202 95,794 186,1587 272,2380 191,162 382,310 572,458 -122,-1130 -254,-2273 -395,-3416 55,-67 105,-134 159,-201 -259,-2071 -540,-4142 -830,-6213 -68,-54 -141,-107 -214,-161z"/>
  <path id="calcao_contorno" fill="none" d="M69622 5532c-9320,-113 -15317,-100 -21532,-475 -6215,-375 -12649,-1137 -18001,-2044 -5351,-908 -9620,-1960 -13890,-3013l-2056 6766c-2101,6050 -3233,10386 -4916,16285 -249,873 -435,1453 -642,2333 -2360,10025 -4550,19989 -6162,30214 -554,3516 -787,7435 -1226,10942l-435 5757c-45,1830 -234,3899 -370,5626 -78,987 9,2192 -3,3205 -13,1158 -208,1511 -203,2794 9,2038 69,4202 11,6226 -28,1013 -181,1575 -197,2723l192 9099c-30,8303 172,15985 183,24267 2,1267 207,1666 202,2996 -4,925 -65,2104 5,3001 131,1645 218,4048 519,5469 1056,4985 5703,6849 10073,7859 3312,766 6714,1111 10138,1576 4010,545 19376,399 23493,-86 6450,-761 15507,-276 22162,-1971 7272,-1853 6398,-2822 7435,-7425 870,-3869 2219,-13998 3169,-16919 807,-2484 1721,-7868 2195,-10524 344,-1990 1133,-3678 1718,-5612 1344,-4441 1694,-7626 2920,-12169 377,-1398 722,-2380 1102,-3854 997,-3864 2190,-8249 2968,-12117 575,-2856 1095,-5360 1653,-8289l2191 -12734c189,-998 230,-2248 1182,-2596 952,348 993,1598 1182,2596l2191 12734c558,2929 1077,5433 1652,8289 779,3868 1972,8253 2968,12117 380,1474 725,2456 1103,3854 1226,4543 1576,7728 2919,12169 585,1934 1375,3622 1719,5612 473,2654 1389,8042 2195,10524 949,2921 2299,13050 3169,16919 1037,4603 163,5572 7434,7425 6656,1695 15712,1210 22163,1971 4117,485 19483,631 23492,86 3425,-465 6827,-810 10138,-1576 4371,-1010 9018,-2874 10074,-7859 301,-1421 388,-3824 519,-5469 70,-897 9,-2076 5,-3001 -5,-1330 200,-1729 202,-2996 11,-8282 213,-15964 183,-24267l191 -8764 -196 -3058c-58,-2024 2,-4188 11,-6226 4,-1283 -190,-1636 -204,-2794 -11,-1013 76,-2218 -2,-3205 -136,-1727 -325,-3796 -370,-5626l-436 -5757c-439,-3507 -671,-7426 -1225,-10942 -1612,-10225 -3802,-20189 -6162,-30214 -207,-880 -394,-1460 -643,-2333 -1682,-5899 -2814,-10235 -4915,-16285l-2057 -6766c-2951,866 -5902,1731 -9677,2477 -3774,745 -8371,1369 -13806,1869 -5434,500 -11706,875 -19026,1150 -7321,274 -15692,449 -26199,418 -10507,-31 -23150,-269 -32470,-382z"/>
 </g>
</svg>
