<?xml version="1.0" encoding="UTF-8"?>
<!DOCTYPE svg PUBLIC "-//W3C//DTD SVG 1.1//EN" "http://www.w3.org/Graphics/SVG/1.1/DTD/svg11.dtd">
<!-- Creator: CorelDRAW 2018 (64 Bit Versão de avaliação) -->
<svg xmlns="http://www.w3.org/2000/svg" xml:space="preserve" width="187px" height="148px" version="1.1" shape-rendering="geometricPrecision" text-rendering="geometricPrecision" image-rendering="optimizeQuality" fill-rule="evenodd" clip-rule="evenodd"
viewBox="0 0 186999 147486"
 xmlns:xlink="http://www.w3.org/1999/xlink">
 <g id="Camada_x0020_1">
  <metadata id="CorelCorpID_0Corel-Layer"/>
  <path id="d2" fill="#F00808" d="M186037 69637l-3351 -8741 2679 1538c135,1395 272,2776 437,4098l235 3105zm-185108 442l3521 -9183 -2824 1621c-133,1367 -266,2719 -429,4015l-268 3547zm6450 -39512c-977,4276 -1911,8551 -2769,12850l3944 -2043c4188,-7954 8376,-15908 12564,-23863 807,-1533 1614,-3065 2420,-4598 -3495,1268 -6561,2380 -8812,3196 -133,262 -267,524 -400,786l-6947 13672zm174995 12771c-887,-4435 -1853,-8845 -2865,-13257l-6700 -13186c-133,-262 -266,-524 -399,-786 -2251,-816 -5317,-1928 -8813,-3196 807,1533 1614,3066 2421,4598 4188,7955 8376,15909 12564,23863l3792 1964z"/>
  <path id="calcao_contorno" fill="none" d="M69622 5532c-9320,-113 -15317,-100 -21532,-475 -6215,-375 -12649,-1137 -18001,-2044 -5351,-908 -9620,-1960 -13890,-3013l-2056 6766c-2101,6050 -3233,10386 -4916,16285 -249,873 -435,1453 -642,2333 -2360,10025 -4550,19989 -6162,30214 -554,3516 -787,7435 -1226,10942l-435 5757c-45,1830 -234,3899 -370,5626 -78,987 9,2192 -3,3205 -13,1158 -208,1511 -203,2794 9,2038 69,4202 11,6226 -28,1013 -181,1575 -197,2723l192 9099c-30,8303 172,15985 183,24267 2,1267 207,1666 202,2996 -4,925 -65,2104 5,3001 131,1645 218,4048 519,5469 1056,4985 5703,6849 10073,7859 3312,766 6714,1111 10138,1576 4010,545 19376,399 23493,-86 6450,-761 15507,-276 22162,-1971 7272,-1853 6398,-2822 7435,-7425 870,-3869 2219,-13998 3169,-16919 807,-2484 1721,-7868 2195,-10524 344,-1990 1133,-3678 1718,-5612 1344,-4441 1694,-7626 2920,-12169 377,-1398 722,-2380 1102,-3854 997,-3864 2190,-8249 2968,-12117 575,-2856 1095,-5360 1653,-8289l2191 -12734c189,-998 230,-2248 1182,-2596 952,348 993,1598 1182,2596l2191 12734c558,2929 1077,5433 1652,8289 779,3868 1972,8253 2968,12117 380,1474 725,2456 1103,3854 1226,4543 1576,7728 2919,12169 585,1934 1375,3622 1719,5612 473,2654 1389,8042 2195,10524 949,2921 2299,13050 3169,16919 1037,4603 163,5572 7434,7425 6656,1695 15712,1210 22163,1971 4117,485 19483,631 23492,86 3425,-465 6827,-810 10138,-1576 4371,-1010 9018,-2874 10074,-7859 301,-1421 388,-3824 519,-5469 70,-897 9,-2076 5,-3001 -5,-1330 200,-1729 202,-2996 11,-8282 213,-15964 183,-24267l191 -8764 -196 -3058c-58,-2024 2,-4188 11,-6226 4,-1283 -190,-1636 -204,-2794 -11,-1013 76,-2218 -2,-3205 -136,-1727 -325,-3796 -370,-5626l-436 -5757c-439,-3507 -671,-7426 -1225,-10942 -1612,-10225 -3802,-20189 -6162,-30214 -207,-880 -394,-1460 -643,-2333 -1682,-5899 -2814,-10235 -4915,-16285l-2057 -6766c-2951,866 -5902,1731 -9677,2477 -3774,745 -8371,1369 -13806,1869 -5434,500 -11706,875 -19026,1150 -7321,274 -15692,449 -26199,418 -10507,-31 -23150,-269 -32470,-382z"/>
 </g>
</svg>
