<?xml version="1.0" encoding="utf-8"?>
<!-- Generator: Adobe Illustrator 16.0.3, SVG Export Plug-In . SVG Version: 6.00 Build 0)  -->
<!DOCTYPE svg PUBLIC "-//W3C//DTD SVG 1.1//EN" "http://www.w3.org/Graphics/SVG/1.1/DTD/svg11.dtd">
<svg version="1.1"
	 id="Layer_1" image-rendering="optimizeQuality" text-rendering="geometricPrecision" shape-rendering="geometricPrecision" xmlns:xodm="http://www.corel.com/coreldraw/odm/2003"
	 xmlns="http://www.w3.org/2000/svg" xmlns:xlink="http://www.w3.org/1999/xlink" x="0px" y="0px" width="240px" height="296px"
	 viewBox="0 0 240 296" enable-background="new 0 0 240 296" xml:space="preserve">
<g id="Camada_x0020_1">
	<g id="d1">
		<path id="d1_0" fill="#F00808" d="M168.332,62.514h-0.4v-3.193l-0.178-0.528l-0.012-10.161l-0.491-0.946l-0.007-6.834l-0.379,0.36
			l-0.011,5.63v0.078l-0.005,3.129l-0.138,0.264v8.416l-0.166-0.496v6.503h-0.4v-7.695l-0.151-0.446l-0.005-4.887l-0.245,0.474
			v-7.407v-2.502l-1.014,0.961l-0.02,10.963l-0.284,0.548v11.541h-0.401V55.519l-0.42,0.813v-12.03l-0.775-0.764v12.794
			l-0.368-0.711v10.927h-0.4v-11.7l-0.337-0.648l-0.02-11.772l-0.771-0.761v11.001l-0.101-0.194l-0.005,4.124l-0.176,0.52v7.621
			h-0.399v-6.43l-0.143,0.422v-7.65l-0.282-0.545l-0.018-9.977l-0.875-0.863v9.116l-0.188-0.364l-0.012,10.348l-0.15,0.446v3.275
			h-0.401V60.43l-0.166,0.496V47.037l-0.188-0.361l-0.012-7.388l-0.807,0.026V50.49l-0.234-0.451v10.887l-0.14-0.414v2.002h-0.4
			v-3.193l-0.177-0.528l-0.012-10.161l-0.492-0.946l-0.006-7.057l-0.38,0.342l-0.011,5.872v0.078l-0.004,3.129l-0.139,0.264v8.416
			l-0.166-0.496v6.503h-0.4v-7.695l-0.15-0.446l-0.005-4.887l-0.246,0.474v-7.407v-2.795l-1.014,0.913l-0.02,11.305l-0.284,0.548
			v11.541h-0.4V55.519l-0.421,0.813V43.907l-0.38,0.342l-0.395-0.375v12.457l-0.368-0.711v10.927h-0.401v-11.7l-0.336-0.648
			l-0.021-11.395l-0.771-0.734v10.596l-0.102-0.194l-0.004,4.124l-0.176,0.52v7.621h-0.4v-6.43l-0.142,0.422v-7.65l-0.283-0.545
			l-0.018-9.531l-0.874-0.832v8.639l-0.189-0.364l-0.011,10.348l-0.151,0.446v3.275h-0.4V60.43l-0.167,0.496V47.037l-0.187-0.361
			l-0.025-14.227h0.012l0.16-31.732c0.875,0.177,1.7,0.404,2.369,0.689c1.006,0.431,1.656,0.997,2.309,1.567
			c0.652,0.572,1.305,1.15,1.955,1.659c0.648,0.51,1.294,0.953,1.676,1.192c0.382,0.239,0.5,0.278,0.586,0.291
			c0.025,0.004,0.047,0.006,0.068,0.007c0.055,0.002,0.104-0.003,0.184-0.002c0.109,0,0.273,0.011,0.465,0.115
			c0.191,0.105,0.406,0.303,0.704,0.498c0.298,0.194,0.677,0.385,1.593,0.778c0.916,0.393,2.367,0.988,3.812,1.567
			s2.881,1.142,4.399,1.746c0.805,0.32,1.632,0.651,2.366,0.941l-0.085,22.363h0.021v5.338V50.49l-0.234-0.451v10.887l-0.139-0.414
			V62.514z"/>
		<path id="d1_1" fill="#F00808" d="M178.006,93.429v-0.4h3.193l0.528-0.178l10.161-0.012l0.946-0.49l3.991-0.004
			c0.008,0.138,0.033,0.193,0.156,0.462c0.101,0.223,0.269,0.592,0.411,0.996h-7.363l0.451-0.234h-10.887l0.414-0.139H178.006z
			 M196.818,91.957l-3.141-0.005H193.6l-3.129-0.006l-0.264-0.136h-8.416l0.496-0.167h-6.504v-0.4h7.695l0.445-0.149l4.887-0.006
			l-0.473-0.245h7.406h1.211C196.851,91.365,196.824,91.718,196.818,91.957z M197.199,89.827l-10.877-0.02l-0.548-0.284h-11.541
			v-0.4h10.769l-0.813-0.42h12.03l0.765-0.774h-12.795l0.711-0.37h-10.926v-0.4h11.699l0.648-0.335l11.772-0.021l0.036-0.037
			C197.734,88.009,197.416,89.03,197.199,89.827z M198.365,86.03h-10.512l0.193-0.1l-4.123-0.004l-0.52-0.175h-7.621v-0.4h6.431
			l-0.423-0.143h7.65l0.545-0.282l8.736-0.016l-0.284,0.891L198.365,86.03z M198.998,84.032h-7.287l0.364-0.188l-10.348-0.012
			l-0.446-0.15h-3.275v-0.4h2.084l-0.495-0.167h13.888l0.361-0.187l5.498-0.01C199.225,83.304,199.11,83.674,198.998,84.032z
			 M199.584,82.108h-9.554l0.451-0.233h-10.887l0.414-0.14h-2.003v-0.4h3.193l0.528-0.178l10.161-0.012l0.946-0.491l7.056-0.006
			l-0.34-0.379l-5.873-0.01H193.6l-3.129-0.006l-0.264-0.136h-8.416l0.496-0.167h-6.504v-0.401h7.695l0.445-0.149l4.887-0.006
			l-0.473-0.246h7.406h2.795l-0.912-1.013l-11.305-0.021l-0.548-0.284h-11.541v-0.4h10.769l-0.813-0.421h12.424l-0.342-0.38
			l0.375-0.394h-12.457l0.711-0.37h-10.926v-0.4h11.699l0.648-0.335l11.395-0.021l0.734-0.772h-10.598l0.193-0.1l-4.123-0.005
			l-0.52-0.174h-7.621v-0.4h6.431l-0.423-0.143h7.65l0.545-0.283l9.531-0.017l0.832-0.875h-8.639l0.364-0.188l-10.348-0.012
			l-0.446-0.149h-3.275v-0.401h2.084l-0.495-0.167h13.888l0.361-0.187l8.327-0.015c-0.468,2.589-0.945,4.727-1.421,6.627
			C200.354,79.423,199.96,80.836,199.584,82.108z"/>
		<path id="d1_2" fill="#F00808" d="M168.332,103.104h-0.4v3.193l-0.178,0.528l-0.012,10.16l-0.491,0.948l-0.007,6.833l-0.379-0.359
			l-0.011-5.631v-0.079l-0.005-3.129l-0.138-0.264v-8.414l-0.166,0.496v-6.504h-0.4v7.696l-0.151,0.446l-0.005,4.887l-0.245-0.474
			v7.407v2.502l-1.014-0.961l-0.02-10.963l-0.284-0.548V99.33h-0.401v10.769l-0.42-0.813v12.03l-0.775,0.764v-12.794l-0.368,0.711
			V99.072h-0.4v11.699l-0.337,0.649l-0.02,11.772l-0.771,0.761v-11.002l-0.101,0.194l-0.005-4.123l-0.176-0.521v-7.621h-0.399v6.43
			l-0.143-0.421v7.649l-0.282,0.545l-0.018,9.978l-0.875,0.862v-9.115l-0.188,0.363l-0.012-10.347l-0.15-0.447v-3.274h-0.401v2.084
			l-0.166-0.497v13.889l-0.188,0.361l-0.012,7.389l-0.807-0.027v-11.175l-0.234,0.451v-10.888l-0.14,0.415v-2.003h-0.4v3.193
			l-0.177,0.528l-0.012,10.16l-0.492,0.948l-0.006,7.056l-0.38-0.342l-0.011-5.872v-0.079l-0.004-3.129l-0.139-0.264v-8.414
			l-0.166,0.496v-6.504h-0.4v7.696l-0.15,0.446l-0.005,4.887l-0.246-0.474v7.407v2.795l-1.014-0.913l-0.02-11.305l-0.284-0.548
			V99.33h-0.4v10.769l-0.421-0.813v12.425l-0.38-0.343l-0.395,0.375v-12.457l-0.368,0.711V99.072h-0.401v11.699l-0.336,0.649
			l-0.021,11.394l-0.771,0.734v-10.597l-0.102,0.194l-0.004-4.123l-0.176-0.521v-7.621h-0.4v6.43l-0.142-0.421v7.649l-0.283,0.545
			l-0.018,9.532l-0.874,0.832v-8.639l-0.189,0.363l-0.011-10.347l-0.151-0.447v-3.274h-0.4v2.084l-0.167-0.497v13.889l-0.187,0.361
			l-0.025,14.227h0.012l0.815,161.985c1.539-0.087,3.212-0.188,5.103-0.319c3.252-0.228,7.144-0.55,10.459-0.852
			c2.516-0.228,4.698-0.445,6.797-0.696l-0.613-161.797l0.021-0.001v-5.338v-11.021l-0.234,0.451v-10.888l-0.139,0.415V103.104z"/>
		<path id="d1_3" fill="#F00808" d="M137.417,93.429v-0.4h-3.193l-0.528-0.178l-10.16-0.012l-0.947-0.49l-6.833-0.006l0.36-0.38
			l5.632-0.01h0.078l3.129-0.006l0.264-0.136h8.414l-0.495-0.167h6.505v-0.4h-7.695l-0.447-0.149l-4.887-0.006l0.475-0.245h-7.407
			h-2.502l0.961-1.015l10.963-0.02l0.548-0.284h11.543v-0.4h-10.77l0.813-0.42h-12.03l-0.764-0.774h12.794l-0.713-0.37h10.928v-0.4
			H129.75l-0.649-0.335l-11.772-0.021l-0.761-0.772h11.002l-0.195-0.1l4.123-0.004l0.521-0.175h7.621v-0.4h-6.431l0.421-0.143
			h-7.648l-0.545-0.282l-9.979-0.019l-0.862-0.875h9.115l-0.363-0.188l10.347-0.012l0.447-0.15h3.274v-0.4h-2.085l0.497-0.167
			h-13.888l-0.361-0.187l-7.39-0.014l0.027-0.806h11.175l-0.451-0.233h10.888l-0.415-0.14h2.003v-0.4h-3.193l-0.528-0.178
			l-10.16-0.012l-0.947-0.491l-7.056-0.006l0.342-0.379l5.872-0.01h0.078l3.129-0.006l0.264-0.136h8.414l-0.495-0.167h6.505v-0.401
			h-7.695l-0.447-0.149l-4.887-0.006l0.475-0.246h-7.407h-2.795l0.913-1.013l11.305-0.021l0.548-0.284h11.543v-0.4h-10.77
			l0.813-0.421H118.81l0.343-0.38l-0.375-0.394h12.457l-0.713-0.37h10.928v-0.4H129.75l-0.649-0.335l-11.393-0.021l-0.735-0.772
			h10.598l-0.195-0.1l4.123-0.005l0.521-0.174h7.621v-0.4h-6.431l0.421-0.143h-7.648l-0.545-0.283l-9.533-0.017l-0.832-0.875h8.639
			l-0.363-0.188l10.347-0.012l0.447-0.149h3.274v-0.401h-2.085l0.497-0.167h-13.888l-0.361-0.187l-14.228-0.026v0.013l-68.02,0.343
			c0.058,0.312,0.116,0.622,0.174,0.931c0.872,4.575,1.889,8.769,2.841,12.09c0.951,3.323,1.834,5.775,2.264,7.419
			c0.228,0.878,0.328,1.527,0.364,2.021l64.055-0.244l0.001,0.022h5.338h11.021l-0.451-0.234h10.888l-0.415-0.139H137.417z"/>
	</g>
	<path id="camisa_contorno" fill="none" d="M136.779,295.682c2.457-0.098,4.621-0.225,7.009-0.355
		c2.389-0.131,5.001-0.265,8.253-0.492s7.144-0.55,10.459-0.852c3.316-0.301,6.056-0.583,8.786-0.947
		c2.729-0.365,5.448-0.813,7.646-1.249s3.873-0.858,5.995-1.329c2.124-0.473,4.696-0.996,6.589-1.32
		c1.891-0.324,3.104-0.453,4.264-0.536c1.158-0.083,2.264-0.124,3.15-0.116c0.888,0.008,1.558,0.063,1.954,0.094
		s0.519,0.038,0.61,0.043c0.049,0.002,0.091,0.004,0.127,0.006c0.094-0.068,0.163-0.18,0.178-0.777
		c0.016-0.674-0.037-1.964-0.107-2.783c-0.067-0.818-0.153-1.166-0.284-1.854c-0.13-0.688-0.307-1.719-0.65-2.683
		c-0.344-0.966-0.856-1.864-1.474-3.042c-0.619-1.178-1.342-2.636-1.782-3.612c-0.438-0.978-0.595-1.476-0.847-2.69
		c-0.25-1.216-0.598-3.15-0.951-5.865c-0.354-2.716-0.716-6.212-1.037-8.875c-0.322-2.662-0.604-4.49-1.08-7.551
		c-0.478-3.06-1.15-7.35-1.709-11.51c-0.557-4.159-0.999-8.188-1.346-12.213c-0.346-4.023-0.598-8.043-0.759-11.625
		c-0.16-3.582-0.23-6.727-0.286-9.776s-0.095-6.003-0.156-9.249c-0.06-3.245-0.141-6.781-0.107-12.024
		c0.032-5.242,0.178-12.19,0.352-17.448c0.174-5.257,0.375-8.824,0.651-12.793c0.275-3.969,0.628-8.34,0.974-12.258
		c0.347-3.918,0.688-7.385,1.121-11.731c0.432-4.345,0.955-9.57,1.482-13.976s1.059-7.993,1.509-10.608
		c0.45-2.614,0.816-4.257,1.138-5.303c0.322-1.044,0.598-1.492,0.803-1.763s0.338-0.366,0.404-0.414
		c0.066-0.049,0.066-0.049,0.049,0.598c-0.018,0.645-0.053,1.937-0.107,3.529c-0.055,1.592-0.131,3.486-0.172,4.962
		c-0.041,1.476-0.05,2.533-0.08,3.183c-0.029,0.649-0.082,0.89-0.102,1.01c-0.019,0.12-0.004,0.117-0.041,0.151
		c-0.037,0.034-0.129,0.104-0.134,0.679c-0.005,0.575,0.075,1.656,0.192,3.048c0.117,1.394,0.27,3.099,0.322,4.78
		c0.051,1.682,0,3.339,0.002,4.226c0,0.887,0.051,1.002,0.132,1.078c0.079,0.075,0.187,0.11,1.001,0.06
		c0.812-0.052,2.329-0.188,4.1-0.324c1.771-0.136,3.796-0.271,5.947-0.43c2.154-0.158,4.435-0.339,6.582-0.462
		c2.147-0.123,4.162-0.188,5.986-0.298c1.823-0.111,3.457-0.267,5.33-0.47c1.873-0.204,3.988-0.456,6.009-0.682
		c2.02-0.226,3.943-0.426,5.104-0.564c1.16-0.138,1.557-0.214,1.756-0.326c0.199-0.114,0.199-0.264,0.229-0.905
		c0.029-0.64,0.09-1.771,0.107-3.129c0.018-1.359-0.008-2.947-0.022-4.424c-0.015-1.476-0.021-2.843-0.038-3.719
		c-0.018-0.877-0.047-1.264-0.072-1.469c-0.023-0.203-0.041-0.226-0.082-0.293c-0.04-0.068-0.102-0.181-0.174-0.68
		c-0.07-0.5-0.151-1.387-0.254-2.319s-0.229-1.91-0.349-2.735c-0.118-0.827-0.231-1.502-0.411-2.542
		c-0.18-1.04-0.426-2.443-0.613-3.445s-0.315-1.599-0.436-2.267c-0.12-0.669-0.234-1.407-0.365-2.119
		c-0.132-0.712-0.283-1.398-0.425-2.154c-0.142-0.756-0.274-1.583-0.374-2.32c-0.1-0.737-0.165-1.385-0.239-2.026
		c-0.073-0.642-0.157-1.278-0.257-2.033c-0.102-0.757-0.219-1.633-0.34-2.524c-0.119-0.89-0.244-1.794-0.354-2.562
		c-0.107-0.767-0.204-1.397-0.371-2.341c-0.168-0.944-0.408-2.201-0.818-4.081c-0.412-1.879-0.996-4.382-1.703-6.883
		c-0.709-2.502-1.543-5.004-2.648-7.737c-1.104-2.733-2.481-5.697-4.089-8.843c-1.608-3.144-3.446-6.47-4.874-8.771
		c-1.426-2.301-2.44-3.577-3.448-4.625c-1.007-1.047-2.007-1.866-3.011-2.605c-1.006-0.738-2.016-1.396-2.581-1.77
		c-0.564-0.375-0.686-0.465-0.755-0.57c-0.068-0.106-0.086-0.226-0.095-0.303c-0.009-0.077-0.009-0.109-0.069-0.175
		c-0.061-0.065-0.181-0.163-1.307-0.713c-1.125-0.55-3.255-1.553-5.304-2.599c-2.048-1.048-4.015-2.14-5.765-2.973
		s-3.281-1.405-5.055-1.955s-3.789-1.078-5.424-1.505c-1.635-0.427-2.892-0.753-3.758-1.007c-0.867-0.254-1.344-0.435-2.043-0.699
		c-0.697-0.266-1.617-0.614-2.604-0.909c-0.985-0.294-2.039-0.533-2.713-0.687c-0.674-0.152-0.97-0.221-1.438-0.471
		c-0.467-0.25-1.104-0.681-1.58-0.935c-0.475-0.254-0.786-0.33-1.07-0.364c-0.287-0.035-0.545-0.03-0.777-0.03
		s-0.438-0.005-1.342-0.33c-0.902-0.325-2.503-0.971-4.021-1.575s-2.955-1.167-4.399-1.746s-2.896-1.175-3.812-1.567
		c-0.916-0.393-1.295-0.584-1.593-0.778c-0.298-0.195-0.513-0.392-0.704-0.498c-0.191-0.104-0.355-0.115-0.465-0.115
		c-0.111-0.001-0.166,0.009-0.252-0.005c-0.086-0.013-0.204-0.052-0.586-0.291c-0.382-0.24-1.027-0.683-1.676-1.192
		c-0.65-0.509-1.303-1.087-1.955-1.659c-0.652-0.571-1.303-1.137-2.309-1.567c-1.006-0.43-2.367-0.727-3.719-0.918
		c-1.352-0.191-2.693-0.276-4.572-0.354c-1.879-0.078-4.295-0.148-7.922-0.13c-3.628,0.018-8.465,0.123-12.901,0.219
		c-4.435,0.096-8.466,0.183-10.586,0.231c-2.121,0.047-2.33,0.057-4.148,0.202s-5.244,0.427-7.396,0.67
		c-2.153,0.244-3.032,0.45-3.748,0.707c-0.715,0.256-1.269,0.563-1.884,1.078s-1.293,1.239-2.017,1.875
		c-0.724,0.637-1.492,1.187-1.95,1.458s-0.607,0.265-0.901,0.366c-0.293,0.102-0.733,0.313-1.266,0.581
		c-0.533,0.27-1.158,0.596-1.918,0.921s-1.655,0.649-2.299,0.903c-0.644,0.254-1.038,0.437-1.512,0.628
		c-0.473,0.191-1.026,0.39-1.763,0.62c-0.737,0.231-1.659,0.496-2.555,0.835c-0.895,0.34-1.764,0.758-2.57,1.075
		c-0.806,0.316-1.551,0.532-2.296,0.748c-0.747,0.216-1.495,0.432-2.051,0.655c-0.556,0.222-0.921,0.451-1.206,0.635
		c-0.285,0.185-0.492,0.326-1,0.476c-0.507,0.149-1.316,0.31-1.911,0.462c-0.596,0.154-0.978,0.3-1.486,0.491
		c-0.51,0.192-1.146,0.428-1.749,0.616c-0.602,0.189-1.169,0.33-1.686,0.459c-0.515,0.129-0.979,0.247-1.697,0.425
		c-0.718,0.179-1.692,0.417-2.548,0.632c-0.856,0.216-1.596,0.408-2.169,0.57c-0.573,0.161-0.979,0.292-1.435,0.425
		c-0.455,0.134-0.961,0.271-1.425,0.399c-0.464,0.129-0.886,0.25-1.31,0.377c-0.424,0.128-0.85,0.262-1.202,0.398
		c-0.353,0.137-0.632,0.276-1.012,0.437c-0.38,0.159-0.861,0.338-1.277,0.53c-0.417,0.191-0.768,0.393-1.165,0.602
		s-0.837,0.423-1.219,0.616c-0.382,0.194-0.704,0.365-1.125,0.587c-0.421,0.223-0.939,0.496-1.656,0.865
		c-0.715,0.371-1.629,0.837-2.69,1.369c-1.063,0.532-2.273,1.126-3.178,1.573c-0.904,0.448-1.502,0.746-2.035,1.087
		c-0.532,0.34-1,0.722-1.442,1.079c-0.442,0.357-0.859,0.689-1.351,1.078c-0.493,0.39-1.061,0.836-1.777,1.473
		c-0.717,0.637-1.584,1.464-2.373,2.329c-0.789,0.865-1.5,1.769-2.143,2.662c-0.642,0.893-1.218,1.774-1.921,2.932
		c-0.703,1.156-1.535,2.588-2.206,3.817c-0.67,1.228-1.18,2.252-1.73,3.26c-0.55,1.007-1.141,1.997-1.643,2.939
		c-0.502,0.942-0.917,1.836-1.311,2.757c-0.395,0.919-0.769,1.867-1.15,2.753c-0.382,0.886-0.771,1.709-1.284,3.039
		c-0.512,1.331-1.148,3.166-1.715,4.906c-0.565,1.739-1.063,3.382-1.487,4.831c-0.425,1.45-0.776,2.706-1.128,4.22
		s-0.704,3.288-1.143,5.662c-0.44,2.373-0.967,5.347-1.29,7.066c-0.321,1.718-0.437,2.18-0.542,2.669
		c-0.105,0.49-0.201,1.007-0.399,1.833c-0.198,0.824-0.5,1.954-0.806,3.139c-0.307,1.186-0.619,2.427-0.839,3.475
		c-0.221,1.047-0.351,1.901-0.575,3.162c-0.223,1.262-0.54,2.929-0.785,4.293c-0.247,1.364-0.422,2.424-0.529,2.971
		c-0.105,0.548-0.14,0.583-0.203,0.634c-0.064,0.049-0.155,0.115-0.251,2.243c-0.097,2.128-0.197,6.319-0.274,8.613
		c-0.079,2.295-0.133,2.691,0.035,2.899c0.168,0.209,0.559,0.229,1.416,0.337s2.178,0.304,4.507,0.753
		c2.328,0.45,5.665,1.153,8.33,1.666c2.665,0.512,4.66,0.833,6.744,1.18c2.085,0.347,4.26,0.718,7.232,1.191
		c2.972,0.472,6.74,1.045,9.141,1.371c2.401,0.327,3.437,0.407,3.954,0.447c0.518,0.041,0.518,0.041,0.568-0.542
		c0.049-0.583,0.148-1.749,0.262-2.756c0.113-1.009,0.241-1.858,0.393-2.934c0.153-1.077,0.329-2.377,0.498-3.573
		c0.17-1.196,0.333-2.286,0.417-2.898c0.085-0.613,0.09-0.749,0.076-0.864c-0.014-0.115-0.046-0.211-0.023-1.816
		c0.024-1.605,0.104-4.72,0.147-7.25c0.042-2.529,0.048-4.473,0.059-5.595c0.011-1.121,0.029-1.42,0.066-1.616
		c0.039-0.196,0.096-0.289,0.177-0.338c0.08-0.048,0.183-0.053,0.308,0.04c0.124,0.093,0.27,0.284,0.344,0.375
		c0.074,0.091,0.076,0.083,0.078,0.08c0.001-0.003,0.001-0.003,0.115,0.253c0.115,0.256,0.344,0.769,0.597,1.462
		c0.254,0.693,0.533,1.568,0.762,2.504c0.229,0.938,0.407,1.937,0.606,3.543c0.2,1.607,0.421,3.82,0.738,6.223
		c0.316,2.403,0.728,4.995,1.467,11.38c0.738,6.386,1.803,16.564,2.638,24.487c0.834,7.922,1.437,13.589,1.809,19.678
		s0.512,12.601,0.502,19.633c-0.01,7.033-0.171,14.59-0.373,20.589c-0.2,5.997-0.442,10.439-0.724,14.408
		c-0.281,3.968-0.603,7.465-1.446,14.146c-0.844,6.683-2.21,16.549-3.004,23.753c-0.794,7.205-1.015,11.746-1.216,15.252
		c-0.202,3.507-0.382,5.979-0.673,8.114s-0.694,3.934-0.972,5.31c-0.279,1.377-0.435,2.331-0.452,2.932
		c-0.018,0.6,0.103,0.847,0.249,0.975s0.317,0.139,0.5,0.175c0.184,0.036,0.38,0.099,0.469,0.155
		c0.019,0.011,0.032,0.021,0.042,0.037c0.875,0.321,1.75,0.644,3.15,0.924c1.401,0.279,3.326,0.517,6.487,0.753
		c3.16,0.236,7.553,0.471,11.087,0.608c3.534,0.137,6.206,0.178,9.583,0.181c3.376,0.003,7.456-0.03,11.317-0.007
		s7.505,0.104,10.581,0.191c3.074,0.087,5.58,0.181,7.908,0.251c2.328,0.07,4.478,0.116,6.782,0.17
		c2.304,0.054,4.763,0.114,7.349,0.121c2.586,0.007,5.298-0.04,8.031-0.097C131.566,295.846,134.32,295.778,136.779,295.682z"/>
</g>
</svg>
