<?xml version="1.0" encoding="UTF-8"?>
<!DOCTYPE svg PUBLIC "-//W3C//DTD SVG 1.1//EN" "http://www.w3.org/Graphics/SVG/1.1/DTD/svg11.dtd">
<!-- Creator: CorelDRAW -->
<svg xmlns="http://www.w3.org/2000/svg" xml:space="preserve" width="238px" height="298px" version="1.1" shape-rendering="geometricPrecision" text-rendering="geometricPrecision" image-rendering="optimizeQuality" fill-rule="evenodd" clip-rule="evenodd"
viewBox="0 0 238 298.123"
 xmlns:xlink="http://www.w3.org/1999/xlink"
 xmlns:xodm="http://www.corel.com/coreldraw/odm/2003">
 <defs>
   <clipPath id="id0">
    <path d="M207.298 27.894c-0.11,-0.063 -0.222,-0.122 -0.337,-0.177 -4.975,-2.38 -9.714,-5.334 -14.858,-7.149 -4.647,-1.639 -11.454,-2.699 -17.288,-4.719 -2.277,-0.789 -4.556,-1.589 -6.82,-2.415l-0.004 -0.03 -9.999 -4.08 -0.175 -0.072c-0.614,-0.28 -1.553,-1.207 -2.512,-1.889 -0.494,-0.369 -0.613,-0.563 -1.038,-0.905 -2.856,-2.299 -5.606,-5.635 -9.574,-5.641 -0.901,-0.002 -1.04,-0.123 -1.779,-0.163l-7.601 -0.17c-5.892,-0.486 -12.055,-0.501 -18.06,-0.477 -5.087,0.02 -9.557,0.063 -14.567,0.477 -2.529,0.209 -4.996,0.029 -7.6,0.17 -0.739,0.04 -0.878,0.161 -1.779,0.163 -3.968,0.006 -6.718,3.342 -9.575,5.641 -0.424,0.342 -0.543,0.536 -1.037,0.905 -0.741,0.527 -1.471,1.2 -2.047,1.608 -0.17,0.121 -0.326,0.218 -0.465,0.281l-10.174 4.152 -0.003 0.03c-2.265,0.826 -4.544,1.626 -6.821,2.415 -5.834,2.02 -12.641,3.08 -17.288,4.719 -5.144,1.815 -9.883,4.769 -14.858,7.149 -0.212,0.101 -0.412,0.215 -0.605,0.339 -0.909,0.583 -1.664,1.379 -2.651,2.001 -11.263,7.099 -18.243,27.467 -21.401,39.215 -1.569,5.839 -1.98,12.983 -2.969,19.04 -0.5,3.067 -1.172,6.193 -1.752,9.253 -0.585,3.095 -0.872,6.493 -1.288,9.631 -0.406,0.268 -0.327,-0.023 -0.308,0.899l-0.065 1.854 0 8.783c0.041,1.018 0.102,1.813 0.186,2.164 1.125,0.477 3.706,0.514 5.07,0.712 7.662,1.114 9.041,0.828 15.791,1.554l21.547 1.349c-0.015,-1.623 0.547,-10.725 0.578,-13.424l-0.603 -0.316 -0.07 -0.036c0,-4.476 -0.011,-9.226 -0.011,-13.7 1.678,4.247 3.328,18.944 3.789,24.023 0.735,8.116 1.826,16.186 2.512,24.347 0.348,4.137 0.874,8.269 1.009,12.419l0.653 12.776c0.396,4.199 0.208,8.934 0.274,13.179 0.032,2.062 0.194,4.007 0.186,6.13 -0.007,2.226 -0.172,4.349 -0.196,6.512 -0.051,4.469 -0.054,8.634 -0.319,13.111 -0.68,11.475 -1.257,26.076 -3.267,37.02 -0.966,5.407 -2.177,11.944 -2.754,17.389 -0.258,2.432 -0.827,10.057 -1.468,11.951 -0.68,2.01 -0.163,3.658 -0.568,5.77 -0.342,1.785 -0.742,3.812 -1.164,5.568 -0.463,1.93 -1.435,3.647 0.397,4.966 4.276,1.054 8.552,2.108 13.913,3.017 5.36,0.909 11.804,1.672 18.03,2.048 6.226,0.375 12.232,0.363 21.568,0.476 9.335,0.112 21.999,0.351 32.523,0.382 10.525,0.032 18.909,-0.144 26.242,-0.419 7.333,-0.275 13.615,-0.65 19.058,-1.151 5.443,-0.501 10.048,-1.126 13.829,-1.873 3.78,-0.746 6.736,-1.613 9.693,-2.48 1.832,-1.319 0.86,-3.036 0.397,-4.966 -0.422,-1.756 -0.822,-3.783 -1.164,-5.568 -0.405,-2.112 0.112,-3.76 -0.568,-5.77 -0.641,-1.894 -1.21,-9.519 -1.468,-11.951 -0.577,-5.445 -1.788,-11.982 -2.754,-17.389 -2.01,-10.944 -2.587,-25.545 -3.267,-37.02 -0.265,-4.477 -0.268,-8.642 -0.319,-13.111 -0.024,-2.163 -0.189,-4.286 -0.196,-6.512 -0.008,-2.123 0.154,-4.068 0.186,-6.13 0.066,-4.245 -0.122,-8.98 0.274,-13.179l0.653 -12.776c0.135,-4.15 0.661,-8.282 1.009,-12.419 0.686,-8.161 1.777,-16.231 2.512,-24.347 0.461,-5.079 1.889,-19.043 3.568,-23.29 0,4.474 -0.105,8.584 -0.105,13.06l0 0 -0.416 0.247c-0.004,0.882 0.338,12.091 0.604,13.423l21.579 -1.336c6.75,-0.726 8.129,-0.44 15.791,-1.554 1.364,-0.198 3.945,-0.235 5.07,-0.712 0.084,-0.351 0.145,-1.146 0.186,-2.164l0 -8.783 -0.065 -1.854c0.014,-0.687 0.062,-0.7 -0.083,-0.774 -0.05,-0.025 -0.122,-0.057 -0.225,-0.125 -0.416,-3.138 -0.703,-6.536 -1.288,-9.631 -0.58,-3.06 -1.252,-6.186 -1.752,-9.253 -0.989,-6.057 -1.4,-13.201 -2.969,-19.04 -3.158,-11.748 -10.138,-32.116 -21.401,-39.215 -1.057,-0.665 -1.895,-1.576 -2.919,-2.163z"/>
   </clipPath>
    <clipPath id="id1">
     <path d="M195.291 97.768c-0.085,-0.928 -0.17,-1.856 -0.308,-2.718 -0.137,-0.863 -0.329,-1.661 -0.099,-3.18 0.23,-1.519 0.881,-3.758 1.681,-6.311 0.801,-2.553 1.752,-5.418 2.565,-9.742 0.813,-4.323 1.489,-10.104 2.278,-15.986 0.788,-5.881 1.689,-11.863 2.652,-16.318 0.964,-4.454 1.99,-7.383 2.541,-9.31 0.55,-1.927 0.626,-2.853 0.663,-4.067 0.021,-0.674 0.03,-1.438 0.034,-2.242 -0.11,-0.063 -0.222,-0.122 -0.337,-0.177 -4.975,-2.38 -9.714,-5.334 -14.858,-7.149 -4.647,-1.639 -11.454,-2.699 -17.288,-4.719 -2.277,-0.789 -4.556,-1.589 -6.82,-2.415l-0.004 -0.03 -9.999 -4.08 -0.175 -0.072c-0.614,-0.28 -1.553,-1.207 -2.512,-1.889 -0.494,-0.369 -0.613,-0.563 -1.038,-0.905 -2.856,-2.299 -5.606,-5.635 -9.574,-5.641 -0.901,-0.002 -1.04,-0.123 -1.779,-0.163l-7.601 -0.17c-5.892,-0.486 -12.055,-0.501 -18.06,-0.477 -5.087,0.02 -9.557,0.063 -14.567,0.477 -2.529,0.209 -4.996,0.029 -7.6,0.17 -0.739,0.04 -0.878,0.161 -1.779,0.163 -3.968,0.006 -6.718,3.342 -9.575,5.641 -0.424,0.342 -0.543,0.536 -1.037,0.905 -0.741,0.527 -1.471,1.2 -2.047,1.608 -0.17,0.121 -0.326,0.218 -0.465,0.281l-10.174 4.152 -0.003 0.03c-2.265,0.826 -4.544,1.626 -6.821,2.415 -5.834,2.02 -12.641,3.08 -17.288,4.719 -5.144,1.815 -9.883,4.769 -14.858,7.149 -0.212,0.101 -0.412,0.215 -0.605,0.339 0.121,0.721 0.248,1.443 0.383,2.165 0.438,2.34 0.963,4.693 1.752,8.597 0.788,3.904 1.839,9.36 2.815,15.624 0.976,6.262 1.877,13.332 3.034,19.705 1.157,6.372 2.57,12.047 3.374,15.175 0.803,3.129 0.998,3.71 1.026,4.321 0.028,0.61 -0.11,1.248 -0.192,1.818 -0.083,0.57 -0.11,1.072 -0.138,1.574 1.678,4.247 3.328,18.944 3.789,24.023 0.735,8.116 1.826,16.186 2.512,24.347 0.348,4.137 0.874,8.269 1.009,12.419l0.653 12.776c0.396,4.199 0.208,8.934 0.274,13.179 0.032,2.062 0.194,4.007 0.186,6.13 -0.007,2.226 -0.172,4.349 -0.196,6.512 -0.051,4.469 -0.054,8.634 -0.319,13.111 -0.68,11.475 -1.257,26.076 -3.267,37.02 -0.966,5.407 -2.177,11.944 -2.754,17.389 -0.258,2.432 -0.827,10.057 -1.468,11.951 -0.68,2.01 -0.163,3.658 -0.568,5.77 -0.342,1.785 -0.742,3.812 -1.164,5.568 -0.463,1.93 -1.435,3.647 0.397,4.966 4.276,1.054 8.552,2.108 13.913,3.017 5.36,0.909 11.804,1.672 18.03,2.048 6.226,0.375 12.232,0.363 21.568,0.476 9.335,0.112 21.999,0.351 32.523,0.382 10.525,0.032 18.909,-0.144 26.242,-0.419 7.333,-0.275 13.615,-0.65 19.058,-1.151 5.443,-0.501 10.048,-1.126 13.829,-1.873 3.78,-0.746 6.736,-1.613 9.693,-2.48 1.832,-1.319 0.86,-3.036 0.397,-4.966 -0.422,-1.756 -0.822,-3.783 -1.164,-5.568 -0.405,-2.112 0.112,-3.76 -0.568,-5.77 -0.641,-1.894 -1.21,-9.519 -1.468,-11.951 -0.577,-5.445 -1.788,-11.982 -2.754,-17.389 -2.01,-10.944 -2.587,-25.545 -3.267,-37.02 -0.265,-4.477 -0.268,-8.642 -0.319,-13.111 -0.024,-2.163 -0.189,-4.286 -0.196,-6.512 -0.008,-2.123 0.154,-4.068 0.186,-6.13 0.066,-4.245 -0.122,-8.98 0.274,-13.179l0.653 -12.776c0.135,-4.15 0.661,-8.282 1.009,-12.419 0.686,-8.161 1.777,-16.231 2.512,-24.347 0.461,-5.079 1.889,-19.043 3.568,-23.29z"/>
    </clipPath>
    <clipPath id="id2">
     <path d="M207.298 27.894c-0.11,-0.063 -0.222,-0.122 -0.337,-0.177 -4.975,-2.38 -9.714,-5.334 -14.858,-7.149 -4.647,-1.639 -11.454,-2.699 -17.288,-4.719 -2.277,-0.789 -4.556,-1.589 -6.82,-2.415l-0.004 -0.03 -9.999 -4.08 -0.175 -0.072c-0.614,-0.28 -1.553,-1.207 -2.512,-1.889 -0.494,-0.369 -0.613,-0.563 -1.038,-0.905 -2.856,-2.299 -5.606,-5.635 -9.574,-5.641 -0.901,-0.002 -1.04,-0.123 -1.779,-0.163l-7.601 -0.17c-5.892,-0.486 -12.055,-0.501 -18.06,-0.477 -5.087,0.02 -9.557,0.063 -14.567,0.477 -2.529,0.209 -4.996,0.029 -7.6,0.17 -0.739,0.04 -0.878,0.161 -1.779,0.163 -3.968,0.006 -6.718,3.342 -9.575,5.641 -0.424,0.342 -0.543,0.536 -1.037,0.905 -0.741,0.527 -1.471,1.2 -2.047,1.608 -0.17,0.121 -0.326,0.218 -0.465,0.281l-10.174 4.152 -0.003 0.03c-2.265,0.826 -4.544,1.626 -6.821,2.415 -5.834,2.02 -12.641,3.08 -17.288,4.719 -5.144,1.815 -9.883,4.769 -14.858,7.149 -0.212,0.101 -0.412,0.215 -0.605,0.339 -0.909,0.583 -1.664,1.379 -2.651,2.001 -11.263,7.099 -18.243,27.467 -21.401,39.215 -1.569,5.839 -1.98,12.983 -2.969,19.04 -0.5,3.067 -1.172,6.193 -1.752,9.253 -0.585,3.095 -0.872,6.493 -1.288,9.631 -0.406,0.268 -0.327,-0.023 -0.308,0.899l-0.065 1.854 0 8.783c0.041,1.018 0.102,1.813 0.186,2.164 1.125,0.477 3.706,0.514 5.07,0.712 7.662,1.114 9.041,0.828 15.791,1.554l21.547 1.349c-0.015,-1.623 0.547,-10.725 0.578,-13.424l-0.603 -0.316 -0.07 -0.036c0,-4.476 -0.011,-9.226 -0.011,-13.7 1.678,4.247 3.328,18.944 3.789,24.023 0.735,8.116 1.826,16.186 2.512,24.347 0.348,4.137 0.874,8.269 1.009,12.419l0.653 12.776c0.396,4.199 0.208,8.934 0.274,13.179 0.032,2.062 0.194,4.007 0.186,6.13 -0.007,2.226 -0.172,4.349 -0.196,6.512 -0.051,4.469 -0.054,8.634 -0.319,13.111 -0.68,11.475 -1.257,26.076 -3.267,37.02 -0.966,5.407 -2.177,11.944 -2.754,17.389 -0.258,2.432 -0.827,10.057 -1.468,11.951 -0.68,2.01 -0.163,3.658 -0.568,5.77 -0.342,1.785 -0.742,3.812 -1.164,5.568 -0.463,1.93 -1.435,3.647 0.397,4.966 4.276,1.054 8.552,2.108 13.913,3.017 5.36,0.909 11.804,1.672 18.03,2.048 6.226,0.375 12.232,0.363 21.568,0.476 9.335,0.112 21.999,0.351 32.523,0.382 10.525,0.032 18.909,-0.144 26.242,-0.419 7.333,-0.275 13.615,-0.65 19.058,-1.151 5.443,-0.501 10.048,-1.126 13.829,-1.873 3.78,-0.746 6.736,-1.613 9.693,-2.48 1.832,-1.319 0.86,-3.036 0.397,-4.966 -0.422,-1.756 -0.822,-3.783 -1.164,-5.568 -0.405,-2.112 0.112,-3.76 -0.568,-5.77 -0.641,-1.894 -1.21,-9.519 -1.468,-11.951 -0.577,-5.445 -1.788,-11.982 -2.754,-17.389 -2.01,-10.944 -2.587,-25.545 -3.267,-37.02 -0.265,-4.477 -0.268,-8.642 -0.319,-13.111 -0.024,-2.163 -0.189,-4.286 -0.196,-6.512 -0.008,-2.123 0.154,-4.068 0.186,-6.13 0.066,-4.245 -0.122,-8.98 0.274,-13.179l0.653 -12.776c0.135,-4.15 0.661,-8.282 1.009,-12.419 0.686,-8.161 1.777,-16.231 2.512,-24.347 0.461,-5.079 1.889,-19.043 3.568,-23.29 0,4.474 -0.105,8.584 -0.105,13.06l0 0 -0.416 0.247c-0.004,0.882 0.338,12.091 0.604,13.423l21.579 -1.336c6.75,-0.726 8.129,-0.44 15.791,-1.554 1.364,-0.198 3.945,-0.235 5.07,-0.712 0.084,-0.351 0.145,-1.146 0.186,-2.164l0 -8.783 -0.065 -1.854c0.014,-0.687 0.062,-0.7 -0.083,-0.774 -0.05,-0.025 -0.122,-0.057 -0.225,-0.125 -0.416,-3.138 -0.703,-6.536 -1.288,-9.631 -0.58,-3.06 -1.252,-6.186 -1.752,-9.253 -0.989,-6.057 -1.4,-13.201 -2.969,-19.04 -3.158,-11.748 -10.138,-32.116 -21.401,-39.215 -1.057,-0.665 -1.895,-1.576 -2.919,-2.163z"/>
    </clipPath>
    <clipPath id="id3">
     <path d="M42.488 97.035c0.028,-0.502 0.055,-1.004 0.138,-1.574 0.082,-0.57 0.22,-1.208 0.192,-1.818 -0.028,-0.611 -0.223,-1.192 -1.026,-4.321 -0.804,-3.128 -2.217,-8.803 -3.374,-15.175 -1.157,-6.373 -2.058,-13.443 -3.034,-19.705 -0.976,-6.264 -2.027,-11.72 -2.815,-15.624 -0.789,-3.904 -1.314,-6.257 -1.752,-8.597 -0.135,-0.722 -0.262,-1.444 -0.383,-2.165 -0.909,0.583 -1.664,1.379 -2.651,2.001 -11.263,7.099 -18.243,27.467 -21.401,39.215 -1.569,5.839 -1.98,12.983 -2.969,19.04 -0.5,3.067 -1.172,6.193 -1.752,9.253 -0.585,3.095 -0.872,6.493 -1.288,9.631 0.744,0.196 1.489,0.392 4.426,0.672 2.938,0.279 8.068,0.642 13.143,1.005 5.074,0.363 10.092,0.726 13.996,1.045 3.905,0.319 6.695,0.595 8.372,0.73l0.055 0.004 0.053 0.004 0.053 0.004 0.052 0.004 0.051 0.004 0.051 0.004 0.05 0.004 0.048 0.004 0.001 0 0.048 0.003 0.048 0.004 0.046 0.003 0.047 0.003 0.045 0.004 0.045 0.003 0.044 0.003 0.044 0.003 0.042 0.003 0.043 0.003 0.041 0.002 0.041 0.003 0 0 0.041 0.002 0.039 0.003 0.039 0.002 0.001 0 0.038 0.003 0.038 0.002 0.037 0.002 0 0 0.037 0.002 0.036 0.002 0.036 0.002 0 0 0.035 0.002 0 0 0.035 0.002 0 0 0.034 0.002 0 0 0.033 0.002 0.033 0.001 0.001 0 0.032 0.002 0.032 0.002 0 0 0.031 0.001 0.001 0 0.031 0.001 0 0 0.03 0.002 0.001 0 0.029 0.001 0.001 0 0.029 0.001 0 0 0.029 0.002 0.001 0 0.028 0 0.001 0 0.028 0.002 0.028 0.001 0 0 0.028 0 0 0 0.027 0.001 0 0 0.027 0.001 0.026 0.001 0.001 0 0.025 0.001 0.001 0 0.025 0.001 0 0 0.025 0 0.001 0 0.025 0.001 0 0 0.024 0 0.001 0 0.024 0.001 0 0 0.024 0.001 0 0 0.023 0 0.001 0 0.023 0 0 0 0.023 0.001 0.001 0 0.022 0 0.001 0 0.022 0.001 0 0 0.022 0 0 0 0.022 0 0.001 0 0.021 0 0 0 -42.196 -3.575c-0.406,0.268 -0.327,-0.023 -0.308,0.899l-0.065 1.854 0 8.783c0.041,1.018 0.102,1.813 0.186,2.164 1.125,0.477 3.706,0.514 5.07,0.712 7.662,1.114 9.041,0.828 15.791,1.554l21.547 1.349c-0.015,-1.623 0.547,-10.725 0.578,-13.424l-0.603 -0.316 0 0 -0.07 -0.036c0,-4.476 -0.011,-9.226 -0.011,-13.7zm152.698 13.793l0 0 -0.416 0.247c-0.004,0.882 0.338,12.091 0.604,13.423l21.579 -1.336c6.75,-0.726 8.129,-0.44 15.791,-1.554 1.364,-0.198 3.945,-0.235 5.07,-0.712 0.084,-0.351 0.145,-1.146 0.186,-2.164l0 -8.783 -0.065 -1.854c0.014,-0.687 0.062,-0.7 -0.083,-0.774 -0.05,-0.025 -0.122,-0.057 -0.225,-0.125 -0.416,-3.138 -0.703,-6.536 -1.288,-9.631 -0.58,-3.06 -1.252,-6.186 -1.752,-9.253 -0.989,-6.057 -1.4,-13.201 -2.969,-19.04 -3.158,-11.748 -10.138,-32.116 -21.401,-39.215 -1.057,-0.665 -1.895,-1.576 -2.919,-2.163 -0.004,0.804 -0.013,1.568 -0.034,2.242 -0.037,1.214 -0.113,2.14 -0.663,4.067 -0.551,1.927 -1.577,4.856 -2.541,9.31 -0.963,4.455 -1.864,10.437 -2.652,16.318 -0.789,5.882 -1.465,11.663 -2.278,15.986 -0.813,4.324 -1.764,7.189 -2.565,9.742 -0.8,2.553 -1.451,4.792 -1.681,6.311 -0.23,1.519 -0.038,2.317 0.099,3.18 0.138,0.862 0.223,1.79 0.308,2.718 0,4.474 -0.105,8.584 -0.105,13.06z"/>
    </clipPath>
    <clipPath id="id4">
     <path d="M207.298 27.894c-0.11,-0.063 -0.222,-0.122 -0.337,-0.177 -4.975,-2.38 -9.714,-5.334 -14.858,-7.149 -4.647,-1.639 -11.454,-2.699 -17.288,-4.719 -2.277,-0.789 -4.556,-1.589 -6.82,-2.415l-0.004 -0.03 -9.999 -4.08 -0.175 -0.072c-0.614,-0.28 -1.553,-1.207 -2.512,-1.889 -0.494,-0.369 -0.613,-0.563 -1.038,-0.905 -2.856,-2.299 -5.606,-5.635 -9.574,-5.641 -0.901,-0.002 -1.04,-0.123 -1.779,-0.163l-7.601 -0.17c-5.892,-0.486 -12.055,-0.501 -18.06,-0.477 -5.087,0.02 -9.557,0.063 -14.567,0.477 -2.529,0.209 -4.996,0.029 -7.6,0.17 -0.739,0.04 -0.878,0.161 -1.779,0.163 -3.968,0.006 -6.718,3.342 -9.575,5.641 -0.424,0.342 -0.543,0.536 -1.037,0.905 -0.741,0.527 -1.471,1.2 -2.047,1.608 -0.17,0.121 -0.326,0.218 -0.465,0.281l-10.174 4.152 -0.003 0.03c-2.265,0.826 -4.544,1.626 -6.821,2.415 -5.834,2.02 -12.641,3.08 -17.288,4.719 -5.144,1.815 -9.883,4.769 -14.858,7.149 -0.212,0.101 -0.412,0.215 -0.605,0.339 -0.909,0.583 -1.664,1.379 -2.651,2.001 -11.263,7.099 -18.243,27.467 -21.401,39.215 -1.569,5.839 -1.98,12.983 -2.969,19.04 -0.5,3.067 -1.172,6.193 -1.752,9.253 -0.585,3.095 -0.872,6.493 -1.288,9.631 -0.406,0.268 -0.327,-0.023 -0.308,0.899l-0.065 1.854 0 8.783c0.041,1.018 0.102,1.813 0.186,2.164 1.125,0.477 3.706,0.514 5.07,0.712 7.662,1.114 9.041,0.828 15.791,1.554l21.547 1.349c-0.015,-1.623 0.547,-10.725 0.578,-13.424l-0.603 -0.316 -0.07 -0.036c0,-4.476 -0.011,-9.226 -0.011,-13.7 1.678,4.247 3.328,18.944 3.789,24.023 0.735,8.116 1.826,16.186 2.512,24.347 0.348,4.137 0.874,8.269 1.009,12.419l0.653 12.776c0.396,4.199 0.208,8.934 0.274,13.179 0.032,2.062 0.194,4.007 0.186,6.13 -0.007,2.226 -0.172,4.349 -0.196,6.512 -0.051,4.469 -0.054,8.634 -0.319,13.111 -0.68,11.475 -1.257,26.076 -3.267,37.02 -0.966,5.407 -2.177,11.944 -2.754,17.389 -0.258,2.432 -0.827,10.057 -1.468,11.951 -0.68,2.01 -0.163,3.658 -0.568,5.77 -0.342,1.785 -0.742,3.812 -1.164,5.568 -0.463,1.93 -1.435,3.647 0.397,4.966 4.276,1.054 8.552,2.108 13.913,3.017 5.36,0.909 11.804,1.672 18.03,2.048 6.226,0.375 12.232,0.363 21.568,0.476 9.335,0.112 21.999,0.351 32.523,0.382 10.525,0.032 18.909,-0.144 26.242,-0.419 7.333,-0.275 13.615,-0.65 19.058,-1.151 5.443,-0.501 10.048,-1.126 13.829,-1.873 3.78,-0.746 6.736,-1.613 9.693,-2.48 1.832,-1.319 0.86,-3.036 0.397,-4.966 -0.422,-1.756 -0.822,-3.783 -1.164,-5.568 -0.405,-2.112 0.112,-3.76 -0.568,-5.77 -0.641,-1.894 -1.21,-9.519 -1.468,-11.951 -0.577,-5.445 -1.788,-11.982 -2.754,-17.389 -2.01,-10.944 -2.587,-25.545 -3.267,-37.02 -0.265,-4.477 -0.268,-8.642 -0.319,-13.111 -0.024,-2.163 -0.189,-4.286 -0.196,-6.512 -0.008,-2.123 0.154,-4.068 0.186,-6.13 0.066,-4.245 -0.122,-8.98 0.274,-13.179l0.653 -12.776c0.135,-4.15 0.661,-8.282 1.009,-12.419 0.686,-8.161 1.777,-16.231 2.512,-24.347 0.461,-5.079 1.889,-19.043 3.568,-23.29 0,4.474 -0.105,8.584 -0.105,13.06l0 0 -0.416 0.247c-0.004,0.882 0.338,12.091 0.604,13.423l21.579 -1.336c6.75,-0.726 8.129,-0.44 15.791,-1.554 1.364,-0.198 3.945,-0.235 5.07,-0.712 0.084,-0.351 0.145,-1.146 0.186,-2.164l0 -8.783 -0.065 -1.854c0.014,-0.687 0.062,-0.7 -0.083,-0.774 -0.05,-0.025 -0.122,-0.057 -0.225,-0.125 -0.416,-3.138 -0.703,-6.536 -1.288,-9.631 -0.58,-3.06 -1.252,-6.186 -1.752,-9.253 -0.989,-6.057 -1.4,-13.201 -2.969,-19.04 -3.158,-11.748 -10.138,-32.116 -21.401,-39.215 -1.057,-0.665 -1.895,-1.576 -2.919,-2.163z"/>
    </clipPath>
 </defs>
 <g id="VETORES">
  <metadata id="CorelCorpID_0Corel-Layer"/>
  <g>
  </g>
  <g clip-path="url(#id0)">
   <g id="_2797101436000">
    <g>
    </g>
   </g>
   <g clip-path="url(#id1)">
   </g>
   <g clip-path="url(#id2)">
    <path id="torso" fill="none" d="M195.291 97.768c-0.085,-0.928 -0.17,-1.856 -0.308,-2.718 -0.137,-0.863 -0.329,-1.661 -0.099,-3.18 0.23,-1.519 0.881,-3.758 1.681,-6.311 0.801,-2.553 1.752,-5.418 2.565,-9.742 0.813,-4.323 1.489,-10.104 2.278,-15.986 0.788,-5.881 1.689,-11.863 2.652,-16.318 0.964,-4.454 1.99,-7.383 2.541,-9.31 0.55,-1.927 0.626,-2.853 0.663,-4.067 0.021,-0.674 0.03,-1.438 0.034,-2.242 -0.11,-0.063 -0.222,-0.122 -0.337,-0.177 -4.975,-2.38 -9.714,-5.334 -14.858,-7.149 -4.647,-1.639 -11.454,-2.699 -17.288,-4.719 -2.277,-0.789 -4.556,-1.589 -6.82,-2.415l-0.004 -0.03 -9.999 -4.08 -0.175 -0.072c-0.614,-0.28 -1.553,-1.207 -2.512,-1.889 -0.494,-0.369 -0.613,-0.563 -1.038,-0.905 -2.856,-2.299 -5.606,-5.635 -9.574,-5.641 -0.901,-0.002 -1.04,-0.123 -1.779,-0.163l-7.601 -0.17c-5.892,-0.486 -12.055,-0.501 -18.06,-0.477 -5.087,0.02 -9.557,0.063 -14.567,0.477 -2.529,0.209 -4.996,0.029 -7.6,0.17 -0.739,0.04 -0.878,0.161 -1.779,0.163 -3.968,0.006 -6.718,3.342 -9.575,5.641 -0.424,0.342 -0.543,0.536 -1.037,0.905 -0.741,0.527 -1.471,1.2 -2.047,1.608 -0.17,0.121 -0.326,0.218 -0.465,0.281l-10.174 4.152 -0.003 0.03c-2.265,0.826 -4.544,1.626 -6.821,2.415 -5.834,2.02 -12.641,3.08 -17.288,4.719 -5.144,1.815 -9.883,4.769 -14.858,7.149 -0.212,0.101 -0.412,0.215 -0.605,0.339 0.121,0.721 0.248,1.443 0.383,2.165 0.438,2.34 0.963,4.693 1.752,8.597 0.788,3.904 1.839,9.36 2.815,15.624 0.976,6.262 1.877,13.332 3.034,19.705 1.157,6.372 2.57,12.047 3.374,15.175 0.803,3.129 0.998,3.71 1.026,4.321 0.028,0.61 -0.11,1.248 -0.192,1.818 -0.083,0.57 -0.11,1.072 -0.138,1.574 1.678,4.247 3.328,18.944 3.789,24.023 0.735,8.116 1.826,16.186 2.512,24.347 0.348,4.137 0.874,8.269 1.009,12.419l0.653 12.776c0.396,4.199 0.208,8.934 0.274,13.179 0.032,2.062 0.194,4.007 0.186,6.13 -0.007,2.226 -0.172,4.349 -0.196,6.512 -0.051,4.469 -0.054,8.634 -0.319,13.111 -0.68,11.475 -1.257,26.076 -3.267,37.02 -0.966,5.407 -2.177,11.944 -2.754,17.389 -0.258,2.432 -0.827,10.057 -1.468,11.951 -0.68,2.01 -0.163,3.658 -0.568,5.77 -0.342,1.785 -0.742,3.812 -1.164,5.568 -0.463,1.93 -1.435,3.647 0.397,4.966 4.276,1.054 8.552,2.108 13.913,3.017 5.36,0.909 11.804,1.672 18.03,2.048 6.226,0.375 12.232,0.363 21.568,0.476 9.335,0.112 21.999,0.351 32.523,0.382 10.525,0.032 18.909,-0.144 26.242,-0.419 7.333,-0.275 13.615,-0.65 19.058,-1.151 5.443,-0.501 10.048,-1.126 13.829,-1.873 3.78,-0.746 6.736,-1.613 9.693,-2.48 1.832,-1.319 0.86,-3.036 0.397,-4.966 -0.422,-1.756 -0.822,-3.783 -1.164,-5.568 -0.405,-2.112 0.112,-3.76 -0.568,-5.77 -0.641,-1.894 -1.21,-9.519 -1.468,-11.951 -0.577,-5.445 -1.788,-11.982 -2.754,-17.389 -2.01,-10.944 -2.587,-25.545 -3.267,-37.02 -0.265,-4.477 -0.268,-8.642 -0.319,-13.111 -0.024,-2.163 -0.189,-4.286 -0.196,-6.512 -0.008,-2.123 0.154,-4.068 0.186,-6.13 0.066,-4.245 -0.122,-8.98 0.274,-13.179l0.653 -12.776c0.135,-4.15 0.661,-8.282 1.009,-12.419 0.686,-8.161 1.777,-16.231 2.512,-24.347 0.461,-5.079 1.889,-19.043 3.568,-23.29z"/>
    <g>
    </g>
   </g>
   <g clip-path="url(#id3)">
   </g>
   <g clip-path="url(#id4)">
    <path id="manga" fill="none" d="M42.488 97.035c0.028,-0.502 0.055,-1.004 0.138,-1.574 0.082,-0.57 0.22,-1.208 0.192,-1.818 -0.028,-0.611 -0.223,-1.192 -1.026,-4.321 -0.804,-3.128 -2.217,-8.803 -3.374,-15.175 -1.157,-6.373 -2.058,-13.443 -3.034,-19.705 -0.976,-6.264 -2.027,-11.72 -2.815,-15.624 -0.789,-3.904 -1.314,-6.257 -1.752,-8.597 -0.135,-0.722 -0.262,-1.444 -0.383,-2.165 -0.909,0.583 -1.664,1.379 -2.651,2.001 -11.263,7.099 -18.243,27.467 -21.401,39.215 -1.569,5.839 -1.98,12.983 -2.969,19.04 -0.5,3.067 -1.172,6.193 -1.752,9.253 -0.585,3.095 -0.872,6.493 -1.288,9.631 -0.406,0.268 -0.327,-0.023 -0.308,0.899l-0.065 1.854 0 8.783c0.041,1.018 0.102,1.813 0.186,2.164 1.125,0.477 3.706,0.514 5.07,0.712 7.662,1.114 9.041,0.828 15.791,1.554l21.547 1.349c-0.015,-1.623 0.547,-10.725 0.578,-13.424l-0.603 -0.316 0 0 -0.07 -0.036c0,-4.476 -0.011,-9.226 -0.011,-13.7zm152.698 13.793l0 0 -0.416 0.247c-0.004,0.882 0.338,12.091 0.604,13.423l21.579 -1.336c6.75,-0.726 8.129,-0.44 15.791,-1.554 1.364,-0.198 3.945,-0.235 5.07,-0.712 0.084,-0.351 0.145,-1.146 0.186,-2.164l0 -8.783 -0.065 -1.854c0.014,-0.687 0.062,-0.7 -0.083,-0.774 -0.05,-0.025 -0.122,-0.057 -0.225,-0.125 -0.416,-3.138 -0.703,-6.536 -1.288,-9.631 -0.58,-3.06 -1.252,-6.186 -1.752,-9.253 -0.989,-6.057 -1.4,-13.201 -2.969,-19.04 -3.158,-11.748 -10.138,-32.116 -21.401,-39.215 -1.057,-0.665 -1.895,-1.576 -2.919,-2.163 -0.004,0.804 -0.013,1.568 -0.034,2.242 -0.037,1.214 -0.113,2.14 -0.663,4.067 -0.551,1.927 -1.577,4.856 -2.541,9.31 -0.963,4.455 -1.864,10.437 -2.652,16.318 -0.789,5.882 -1.465,11.663 -2.278,15.986 -0.813,4.324 -1.764,7.189 -2.565,9.742 -0.8,2.553 -1.451,4.792 -1.681,6.311 -0.23,1.519 -0.038,2.317 0.099,3.18 0.138,0.862 0.223,1.79 0.308,2.718 0,4.474 -0.105,8.584 -0.105,13.06zm-194.813 -3.632c0.744,0.196 1.489,0.392 4.426,0.672 2.938,0.279 8.068,0.642 13.143,1.005 5.074,0.363 10.092,0.726 13.996,1.045 3.905,0.319 6.695,0.595 8.372,0.73l0.055 0.004 0.053 0.004 0.053 0.004 0.052 0.004 0.051 0.004 0.051 0.004 0.05 0.004 0.048 0.004 0.001 0 0.048 0.003 0.048 0.004 0.046 0.003 0.047 0.003 0.045 0.004 0.045 0.003 0.044 0.003 0.044 0.003 0.042 0.003 0.043 0.003 0.041 0.002 0.041 0.003 0 0 0.041 0.002 0.039 0.003 0.039 0.002 0.001 0 0.038 0.003 0.038 0.002 0.037 0.002 0 0 0.037 0.002 0.036 0.002 0.036 0.002 0 0 0.035 0.002 0 0 0.035 0.002 0 0 0.034 0.002 0 0 0.033 0.002 0.033 0.001 0.001 0 0.032 0.002 0.032 0.002 0 0 0.031 0.001 0.001 0 0.031 0.001 0 0 0.03 0.002 0.001 0 0.029 0.001 0.001 0 0.029 0.001 0 0 0.029 0.002 0.001 0 0.028 0 0.001 0 0.028 0.002 0.028 0.001 0 0 0.028 0 0 0 0.027 0.001 0 0 0.027 0.001 0.026 0.001 0.001 0 0.025 0.001 0.001 0 0.025 0.001 0 0 0.025 0 0.001 0 0.025 0.001 0 0 0.024 0 0.001 0 0.024 0.001 0 0 0.024 0.001 0 0 0.023 0 0.001 0 0.023 0 0 0 0.023 0.001 0.001 0 0.022 0 0.001 0 0.022 0.001 0 0 0.022 0 0 0 0.022 0 0.001 0 0.021 0 0 0 -42.196 -3.575z"/>
    <path id="_2" fill="white" fill-rule="nonzero" d="M187.906 163.619l-0.831 1.002c-1.252,1.51 -2.513,3.043 -3.689,4.612l-0.155 0c-11.316,13.873 -22.977,27.457 -34.439,41.206 -7.808,9.362 -15.562,18.773 -23.37,28.136 -1.762,2.114 -3.53,4.224 -5.293,6.337l0 5.338c17.038,-20.477 33.387,-40.126 67.409,-81.017l0.08 0 0.288 -5.614zm7.334 -66.396c-0.069,-0.744 -0.146,-1.48 -0.257,-2.173 -0.124,-0.782 -0.293,-1.51 -0.153,-2.769 -14.477,17.397 -28.927,34.817 -43.426,52.196 -5.505,6.598 -11.013,13.182 -16.452,19.835 -1.336,1.632 -2.807,3.173 -3.999,4.919 -0.05,0 -0.101,0 -0.154,0 -3.521,4.311 -7.094,8.582 -10.676,12.842l0 5.151c4.8,-5.765 9.786,-11.755 14.981,-17.995 0.051,0 0.102,0 0.155,0l59.981 -72.006zm4.746 -26.712c0.288,-2.017 0.571,-4.178 0.86,-6.403l-80.715 96.895 0 5.287c11.103,-13.408 22.268,-26.752 33.431,-40.111 8.851,-10.622 17.748,-21.204 26.6,-31.827 6.616,-7.94 13.221,-15.889 19.824,-23.841zm1.676 -12.547c0.3,-2.177 0.615,-4.343 0.942,-6.418 -3.375,4.076 -6.755,8.147 -10.143,12.213 -4.75,5.701 -9.549,11.364 -14.299,17.066 -9.902,11.883 -19.774,23.788 -29.675,35.671 -9.427,11.316 -18.902,22.591 -28.358,33.884l0 5.46 81.533 -97.876zm5.598 -27.717l0.004 -0.111c0.021,-0.674 0.03,-1.438 0.034,-2.242 -0.11,-0.063 -0.222,-0.122 -0.337,-0.177 -0.497,-0.238 -0.993,-0.482 -1.486,-0.73l-85.346 102.453 0 5.317c24.301,-29.215 48.589,-58.438 72.944,-87.607 4.709,-5.65 9.452,-11.273 14.187,-16.903zm-4.79 -4.812c-1.004,-0.527 -2.005,-1.057 -3.01,-1.574 -3.711,4.438 -7.447,8.855 -11.149,13.301 -17.991,21.596 -36.017,43.163 -54.043,64.731 -4.713,5.639 -9.425,11.279 -14.137,16.918l0 5.468 82.339 -98.844zm-12.773 -5.622c-1.135,-0.321 -2.347,-0.628 -3.605,-0.935 -21.988,26.385 -43.977,52.771 -65.961,79.159l0 5.135c22.99,-27.533 45.981,-55.065 68.948,-82.617l0.618 -0.742zm-7.313 -1.829c-1.162,-0.283 -2.337,-0.578 -3.502,-0.895 -9.94,12.044 -20.091,23.913 -30.09,35.907 -7.808,9.362 -15.562,18.773 -23.37,28.136 -1.762,2.114 -3.53,4.224 -5.293,6.337l0 5.338 62.255 -74.823zm-13.821 -4.344l-0.568 -0.206 -0.004 -0.03 -2.593 -1.058c-15.083,18.095 -30.176,36.182 -45.269,54.267l0 5.254c10.41,-12.558 20.815,-25.118 31.279,-37.629 3.708,-4.433 7.494,-8.811 11.218,-13.236l0 -0.004c1.242,-1.476 2.474,-2.956 3.695,-4.446 0.315,-0.386 0.626,-0.778 0.932,-1.177 0.439,-0.573 0.873,-1.156 1.31,-1.735zm-6.442 -2.632l-3.326 -1.357 -1.783 2.137c-12.292,14.743 -24.595,29.473 -36.887,44.214l0 5.452c15.174,-18.227 28.263,-33.948 41.348,-49.668l0.648 -0.778zm-11.329 -7.539c-0.872,-0.709 -1.78,-1.357 -2.758,-1.835l-8.458 10.154c-0.051,0 -0.102,0 -0.155,0 -6.423,7.752 -12.856,15.495 -19.286,23.241l0 5.389c5.918,-7.084 11.839,-14.162 17.748,-21.252 0.5,-0.599 0.989,-1.211 1.475,-1.827l-0.004 0c0.97,-1.234 1.921,-2.49 2.893,-3.724 0.486,-0.618 0.975,-1.227 1.475,-1.827 0.051,0 0.102,0 0.155,0l6.915 -8.319zm-6.384 -2.657c-0.656,-0.024 -0.841,-0.123 -1.494,-0.158l-2.795 -0.063c-1.728,2.088 -3.451,4.181 -5.167,6.28 -1.336,1.632 -2.807,3.173 -3.999,4.919 -0.05,0 -0.101,0 -0.154,0 -3.521,4.311 -7.094,8.582 -10.676,12.842l0 5.151c4.8,-5.765 9.786,-11.755 14.981,-17.995 0.051,0 0.102,0 0.155,0l0.005 0 9.144 -10.976zm-16.998 -0.733c-1.437,-0.037 -2.878,-0.058 -4.318,-0.069l-2.959 3.552 0 5.287c2.423,-2.926 4.849,-5.849 7.277,-8.77zm-10.224 -0.072c-1.492,0.006 -2.932,0.014 -4.348,0.033 2.439,2.933 4.875,5.868 7.308,8.807l0 -5.287 -2.96 -3.553zm-17.033 0.583c-1.465,0.016 -2.931,-0.019 -4.439,0.036l9.299 11.162 0.004 0.002c0.053,0 0.103,0 0.154,0 5.195,6.24 10.182,12.23 14.981,17.995l0 -5.151c-3.582,-4.26 -7.155,-8.531 -10.676,-12.842 -0.052,0 -0.104,0 -0.154,0 -1.191,-1.746 -2.663,-3.287 -3.998,-4.919 -1.718,-2.1 -3.442,-4.194 -5.171,-6.283zm-8.437 0.411c-1.119,0.26 -2.14,0.775 -3.103,1.42l7.787 9.367c0.053,0 0.104,0 0.155,0 0.5,0.6 0.99,1.209 1.476,1.827 0.971,1.234 1.922,2.49 2.892,3.724l-0.004 0c0.486,0.616 0.975,1.228 1.475,1.827 5.909,7.09 11.831,14.168 17.748,21.252l0 -5.389c-6.43,-7.746 -12.863,-15.489 -19.286,-23.241 -0.053,0 -0.104,0 -0.155,0l-8.985 -10.787zm-10.903 7.849c-0.056,0.043 -0.111,0.083 -0.165,0.121 -0.17,0.121 -0.326,0.218 -0.465,0.281l-2.605 1.063 1.226 1.473c13.086,15.72 26.174,31.441 41.348,49.668l0 -5.452c-12.292,-14.741 -24.595,-29.471 -36.887,-44.214 -0.642,-0.77 -1.284,-1.539 -1.925,-2.307l-0.527 -0.633zm-6.512 2.803l-3.129 1.277c0.624,0.809 1.232,1.636 1.853,2.445 0.305,0.399 0.616,0.791 0.931,1.177 1.221,1.49 2.453,2.97 3.695,4.446l0 0.004c3.724,4.425 7.511,8.803 11.218,13.236 10.464,12.511 20.869,25.071 31.279,37.629l0 -5.254c-15.247,-18.27 -30.494,-36.542 -45.731,-54.821l-0.116 -0.139zm-13.341 4.911c-1.139,0.341 -2.3,0.654 -3.459,0.951l62.647 75.294 0 -5.337c-1.763,-2.114 -3.531,-4.224 -5.293,-6.338 -7.808,-9.363 -15.562,-18.774 -23.37,-28.136 -10.145,-12.169 -20.446,-24.209 -30.525,-36.434zm-7.156 1.857c-1.251,0.3 -2.474,0.593 -3.641,0.892l1.035 1.242c22.967,27.552 45.958,55.084 68.948,82.617l0 -5.135c-22.111,-26.541 -44.227,-53.078 -66.342,-79.616zm-13.661 4.63c-1.014,0.502 -2.021,1.023 -3.027,1.551l83.032 99.677 0 -5.468c-4.712,-5.639 -9.424,-11.279 -14.137,-16.918 -18.026,-21.568 -36.052,-43.135 -54.042,-64.731 -3.928,-4.716 -7.893,-9.4 -11.826,-14.111zm-6.021 3.12c-1.021,0.53 -2.047,1.051 -3.083,1.546l-0.106 0.052c5.427,6.458 10.872,12.902 16.271,19.381 24.355,29.169 48.644,58.392 72.944,87.607l0 -5.317c-24.082,-28.908 -51.987,-62.405 -86.026,-103.269zm0.073 21.169c0.371,2.075 0.75,4.308 1.12,6.659l84.835 101.841 0 -5.46c-9.456,-11.293 -18.93,-22.568 -28.358,-33.884 -9.901,-11.883 -19.773,-23.788 -29.674,-35.671 -4.751,-5.702 -9.55,-11.365 -14.3,-17.066 -4.553,-5.463 -9.091,-10.939 -13.623,-16.419zm2.062 12.957c0.312,2.149 0.627,4.335 0.956,6.506 7.628,9.188 15.258,18.375 22.902,27.549 8.853,10.623 17.75,21.205 26.6,31.827 11.163,13.359 22.329,26.703 33.431,40.111l0 -5.287 -83.889 -100.706zm5.013 26.966c0.192,0.771 0.368,1.462 0.522,2.059 0.803,3.129 0.998,3.71 1.026,4.321 0.013,0.284 -0.01,0.574 -0.047,0.86l62.248 74.726c0.053,0 0.103,0 0.154,0 5.196,6.24 10.182,12.23 14.981,17.995l0 -5.151c-3.582,-4.26 -7.155,-8.531 -10.676,-12.842 -0.053,0 -0.103,0 -0.154,0 -1.191,-1.746 -2.663,-3.287 -3.998,-4.919 -5.44,-6.653 -10.948,-13.237 -16.453,-19.835 -15.892,-19.05 -31.727,-38.15 -47.603,-57.214zm2.17 13.216c0.403,1.863 0.791,4.133 1.145,6.503 17.286,20.737 34.563,41.482 51.817,62.245 0.053,0 0.104,0 0.155,0 0.5,0.599 0.99,1.209 1.476,1.827 0.971,1.234 1.922,2.49 2.892,3.724 0.486,0.616 0.976,1.228 1.476,1.827 5.909,7.09 11.83,14.168 17.747,21.252l0 -5.389c-6.43,-7.746 -12.863,-15.489 -19.286,-23.241 -0.053,0 -0.104,0 -0.155,0l-57.267 -68.748zm3.254 24.861c0.211,2.038 0.435,4.075 0.662,6.112l31.448 37.775c13.086,15.72 26.174,31.441 41.348,49.668l0 -5.452c-12.292,-14.741 -24.595,-29.471 -36.887,-44.214 -0.642,-0.77 -1.284,-1.539 -1.925,-2.307 -11.551,-13.859 -23.099,-27.72 -34.646,-41.582zm1.335 12.23c0.202,1.89 0.395,3.783 0.57,5.68 7.187,8.646 14.359,17.304 21.511,25.979l0.155 0c0.951,1.156 1.841,2.392 2.758,3.587 0.305,0.399 0.616,0.791 0.931,1.177 1.221,1.49 2.453,2.97 3.695,4.446 3.724,4.425 7.511,8.803 11.218,13.236 10.464,12.511 20.87,25.071 31.279,37.629l0 -5.255c-15.247,-18.269 -30.494,-36.54 -45.731,-54.82l-26.386 -31.659zm1.916 23.126l0.302 5.913 2.185 2.624 0.307 0c34.023,40.891 50.371,60.54 67.409,81.017l0 -5.338c-1.763,-2.113 -3.531,-4.223 -5.293,-6.337 -7.808,-9.363 -15.562,-18.774 -23.37,-28.136 -11.462,-13.749 -23.123,-27.333 -34.439,-41.206l-0.154 0c-1.177,-1.569 -2.438,-3.102 -3.69,-4.612 -1.085,-1.309 -2.171,-2.617 -3.257,-3.925zm0.614 11.271c0.115,1.766 0.147,3.605 0.154,5.444l0.487 0.585c22.967,27.552 45.959,55.085 68.948,82.617l0 -5.135c-23.193,-27.84 -46.392,-55.676 -69.589,-83.511zm0.259 21.256c-0.045,1.068 -0.092,2.128 -0.103,3.198l-0.02 1.923 69.453 83.376 0 -5.468c-4.712,-5.639 -9.424,-11.279 -14.137,-16.918 -18.026,-21.568 -36.052,-43.135 -54.042,-64.732l-1.151 -1.379zm-0.191 10.203c-0.034,1.67 -0.085,3.345 -0.173,5.058 23.267,27.876 46.475,55.799 69.694,83.714l0 -5.317 -69.521 -83.455zm-1.029 19.906c-0.102,1.614 -0.212,3.236 -0.333,4.855l58.079 69.721c1.501,0.022 3.023,0.044 4.554,0.064 -6.71,-8.005 -13.42,-16.01 -20.106,-24.035 -9.901,-11.883 -19.773,-23.788 -29.674,-35.671 -4.158,-4.99 -8.353,-9.951 -12.52,-14.934zm-0.717 9.559c-0.146,1.629 -0.306,3.239 -0.483,4.818 3.903,4.696 7.808,9.391 11.717,14.082 8.853,10.623 17.75,21.205 26.6,31.827 3.946,4.722 7.892,9.442 11.835,14.164l4.438 0.063 -54.107 -64.954zm-2.516 17.934c-0.262,1.477 -0.525,2.99 -0.775,4.503l35.172 42.222c1.444,0.034 2.943,0.059 4.535,0.079 -12.994,-15.588 -25.953,-31.205 -38.932,-46.804zm-1.453 8.863c-0.209,1.463 -0.393,2.892 -0.537,4.253l-0.021 0.205c9.168,10.999 18.335,22.001 27.497,33.006 0.556,0.039 1.111,0.075 1.664,0.109 0.94,0.057 1.875,0.104 2.817,0.145l-31.42 -37.718zm-2.364 18.117c-0.079,1.243 0.062,2.447 -0.209,3.857l-0.189 0.979 9.953 11.955c1.083,0.212 2.206,0.418 3.382,0.617 0.591,0.1 1.195,0.199 1.811,0.295l-14.748 -17.703zm-1.291 9.081l-0.082 0.344c-0.354,1.475 -1.005,2.826 -0.475,3.969l0.76 0.913c0.036,0.028 0.073,0.056 0.112,0.084 1.693,0.417 3.386,0.834 5.146,1.243l-5.461 -6.553zm87 11.235c1.547,0.003 3.046,0.002 4.503,-0.003l56.17 -67.429c-0.131,-1.605 -0.251,-3.221 -0.362,-4.834 -3.47,4.136 -6.951,8.263 -10.406,12.411 -9.902,11.883 -19.774,23.788 -29.675,35.671 -6.727,8.075 -13.479,16.129 -20.23,24.184zm8.828 -0.031c1.525,-0.015 3.001,-0.035 4.434,-0.058 4.013,-4.805 8.028,-9.609 12.043,-14.414 8.851,-10.622 17.748,-21.204 26.6,-31.827 3.244,-3.893 6.486,-7.789 9.726,-11.686 -0.197,-1.552 -0.375,-3.143 -0.537,-4.759l-52.266 62.744zm17.872 -0.433c1.597,-0.063 3.142,-0.13 4.639,-0.204l33.182 -39.833c-0.234,-1.506 -0.488,-3.029 -0.747,-4.533 -12.359,14.856 -24.701,29.726 -37.074,44.57zm9.156 -0.45c1.564,-0.094 3.07,-0.195 4.522,-0.304 8.411,-10.102 16.825,-20.201 25.242,-30.299 -0.101,-1.101 -0.187,-2.048 -0.252,-2.663 -0.065,-0.619 -0.139,-1.253 -0.22,-1.898l-29.292 35.164zm19.034 -1.897c1.269,-0.201 2.464,-0.412 3.588,-0.634 0.571,-0.113 1.124,-0.228 1.661,-0.346l7.897 -9.486c-0.225,-1.076 -0.438,-2.168 -0.632,-3.182 -0.08,-0.415 -0.124,-0.812 -0.148,-1.197l-12.366 14.845zm10.863 -2.413c0.817,-0.232 1.617,-0.467 2.418,-0.701 1.267,-0.912 1.192,-2.015 0.873,-3.247l-3.291 3.948zm-6.319 -81.858l-0.087 -1.507c-0.07,-1.17 -0.121,-2.319 -0.16,-3.458l-67.315 80.807 0 5.317c22.51,-27.063 45.01,-54.132 67.562,-81.159zm-0.357 -9.994c-0.019,-1.522 -0.031,-3.054 -0.049,-4.624 -0.002,-0.192 -0.005,-0.385 -0.009,-0.577 -17.648,21.182 -35.327,42.335 -53.008,63.49 -4.713,5.639 -9.425,11.279 -14.137,16.918l0 5.468 67.203 -80.675zm-0.045 -20.903c-0.004,-1.754 -0.011,-3.539 0.03,-5.294 -22.397,26.876 -44.795,53.751 -67.188,80.63l0 5.135c22.393,-26.817 44.786,-53.635 67.158,-80.471zm1.842 -33.827c0.028,-0.303 0.054,-0.607 0.08,-0.91 0.132,-1.575 0.28,-3.145 0.437,-4.714l-23.786 28.538c-15.237,18.28 -30.483,36.551 -45.731,54.82l0 5.255c10.41,-12.558 20.815,-25.118 31.279,-37.629 3.708,-4.433 7.494,-8.811 11.218,-13.236 1.242,-1.476 2.474,-2.956 3.695,-4.446 0.316,-0.386 0.627,-0.778 0.931,-1.177 0.917,-1.195 1.808,-2.431 2.759,-3.587l0.154 0c6.307,-7.65 12.63,-15.287 18.964,-22.914zm1.163 -11.706c0.226,-2.046 0.456,-4.09 0.679,-6.134 -10.677,12.817 -21.356,25.633 -32.036,38.447 -0.64,0.768 -1.283,1.537 -1.925,2.307 -12.292,14.743 -24.595,29.473 -36.887,44.214l0 5.452c15.174,-18.227 28.263,-33.948 41.348,-49.668l28.821 -34.618zm2.593 -24.258c0.272,-2.125 0.577,-4.27 0.908,-6.217l-54.223 65.093c-0.051,0 -0.102,0 -0.155,0 -6.423,7.752 -12.856,15.495 -19.286,23.241l0 5.389c5.918,-7.084 11.839,-14.162 17.748,-21.252 0.5,-0.599 0.99,-1.211 1.475,-1.827 0.97,-1.234 1.921,-2.49 2.893,-3.724 0.486,-0.618 0.975,-1.228 1.476,-1.827 0.05,0 0.101,0 0.154,0 16.32,-19.639 32.661,-39.261 49.01,-58.876z"/>
   </g>
  </g>
  <path fill="none" d="M207.298 27.894c-0.11,-0.063 -0.222,-0.122 -0.337,-0.177 -4.975,-2.38 -9.714,-5.334 -14.858,-7.149 -4.647,-1.639 -11.454,-2.699 -17.288,-4.719 -2.277,-0.789 -4.556,-1.589 -6.82,-2.415l-0.004 -0.03 -9.999 -4.08 -0.175 -0.072c-0.614,-0.28 -1.553,-1.207 -2.512,-1.889 -0.494,-0.369 -0.613,-0.563 -1.038,-0.905 -2.856,-2.299 -5.606,-5.635 -9.574,-5.641 -0.901,-0.002 -1.04,-0.123 -1.779,-0.163l-7.601 -0.17c-5.892,-0.486 -12.055,-0.501 -18.06,-0.477 -5.087,0.02 -9.557,0.063 -14.567,0.477 -2.529,0.209 -4.996,0.029 -7.6,0.17 -0.739,0.04 -0.878,0.161 -1.779,0.163 -3.968,0.006 -6.718,3.342 -9.575,5.641 -0.424,0.342 -0.543,0.536 -1.037,0.905 -0.741,0.527 -1.471,1.2 -2.047,1.608 -0.17,0.121 -0.326,0.218 -0.465,0.281l-10.174 4.152 -0.003 0.03c-2.265,0.826 -4.544,1.626 -6.821,2.415 -5.834,2.02 -12.641,3.08 -17.288,4.719 -5.144,1.815 -9.883,4.769 -14.858,7.149 -0.212,0.101 -0.412,0.215 -0.605,0.339 -0.909,0.583 -1.664,1.379 -2.651,2.001 -11.263,7.099 -18.243,27.467 -21.401,39.215 -1.569,5.839 -1.98,12.983 -2.969,19.04 -0.5,3.067 -1.172,6.193 -1.752,9.253 -0.585,3.095 -0.872,6.493 -1.288,9.631 -0.406,0.268 -0.327,-0.023 -0.308,0.899l-0.065 1.854 0 8.783c0.041,1.018 0.102,1.813 0.186,2.164 1.125,0.477 3.706,0.514 5.07,0.712 7.662,1.114 9.041,0.828 15.791,1.554l21.547 1.349c-0.015,-1.623 0.547,-10.725 0.578,-13.424l-0.603 -0.316 -0.07 -0.036c0,-4.476 -0.011,-9.226 -0.011,-13.7 1.678,4.247 3.328,18.944 3.789,24.023 0.735,8.116 1.826,16.186 2.512,24.347 0.348,4.137 0.874,8.269 1.009,12.419l0.653 12.776c0.396,4.199 0.208,8.934 0.274,13.179 0.032,2.062 0.194,4.007 0.186,6.13 -0.007,2.226 -0.172,4.349 -0.196,6.512 -0.051,4.469 -0.054,8.634 -0.319,13.111 -0.68,11.475 -1.257,26.076 -3.267,37.02 -0.966,5.407 -2.177,11.944 -2.754,17.389 -0.258,2.432 -0.827,10.057 -1.468,11.951 -0.68,2.01 -0.163,3.658 -0.568,5.77 -0.342,1.785 -0.742,3.812 -1.164,5.568 -0.463,1.93 -1.435,3.647 0.397,4.966 4.276,1.054 8.552,2.108 13.913,3.017 5.36,0.909 11.804,1.672 18.03,2.048 6.226,0.375 12.232,0.363 21.568,0.476 9.335,0.112 21.999,0.351 32.523,0.382 10.525,0.032 18.909,-0.144 26.242,-0.419 7.333,-0.275 13.615,-0.65 19.058,-1.151 5.443,-0.501 10.048,-1.126 13.829,-1.873 3.78,-0.746 6.736,-1.613 9.693,-2.48 1.832,-1.319 0.86,-3.036 0.397,-4.966 -0.422,-1.756 -0.822,-3.783 -1.164,-5.568 -0.405,-2.112 0.112,-3.76 -0.568,-5.77 -0.641,-1.894 -1.21,-9.519 -1.468,-11.951 -0.577,-5.445 -1.788,-11.982 -2.754,-17.389 -2.01,-10.944 -2.587,-25.545 -3.267,-37.02 -0.265,-4.477 -0.268,-8.642 -0.319,-13.111 -0.024,-2.163 -0.189,-4.286 -0.196,-6.512 -0.008,-2.123 0.154,-4.068 0.186,-6.13 0.066,-4.245 -0.122,-8.98 0.274,-13.179l0.653 -12.776c0.135,-4.15 0.661,-8.282 1.009,-12.419 0.686,-8.161 1.777,-16.231 2.512,-24.347 0.461,-5.079 1.889,-19.043 3.568,-23.29 0,4.474 -0.105,8.584 -0.105,13.06l0 0 -0.416 0.247c-0.004,0.882 0.338,12.091 0.604,13.423l21.579 -1.336c6.75,-0.726 8.129,-0.44 15.791,-1.554 1.364,-0.198 3.945,-0.235 5.07,-0.712 0.084,-0.351 0.145,-1.146 0.186,-2.164l0 -8.783 -0.065 -1.854c0.014,-0.687 0.062,-0.7 -0.083,-0.774 -0.05,-0.025 -0.122,-0.057 -0.225,-0.125 -0.416,-3.138 -0.703,-6.536 -1.288,-9.631 -0.58,-3.06 -1.252,-6.186 -1.752,-9.253 -0.989,-6.057 -1.4,-13.201 -2.969,-19.04 -3.158,-11.748 -10.138,-32.116 -21.401,-39.215 -1.057,-0.665 -1.895,-1.576 -2.919,-2.163z"/>
 </g>
</svg>
