<?xml version="1.0" encoding="UTF-8"?>
<!DOCTYPE svg PUBLIC "-//W3C//DTD SVG 1.1//EN" "http://www.w3.org/Graphics/SVG/1.1/DTD/svg11.dtd">
<!-- Creator: CorelDRAW 2020 (64 Bit) -->
<svg xmlns="http://www.w3.org/2000/svg" xml:space="preserve" width="240px" height="296px" version="1.1" shape-rendering="geometricPrecision" text-rendering="geometricPrecision" image-rendering="optimizeQuality" fill-rule="evenodd" clip-rule="evenodd"
viewBox="0 0 232252 286742"
 xmlns:xlink="http://www.w3.org/1999/xlink"
 xmlns:xodm="http://www.corel.com/coreldraw/odm/2003">
 <g id="Camada_x0020_1">
  <metadata id="CorelCorpID_0Corel-Layer"/>
  <path id="d2" fill="#F00808" d="M194026 270947c-178,-389 -381,-783 -605,-1208 -618,-7 -1251,-11 -1894,-11 -5372,0 -9953,258 -11734,619 1781,361 6362,619 11734,619 856,0 1691,-6 2499,-19zm-1000 -1953l-97 -185c-174,-331 -356,-685 -538,-1044 -4705,43 -8607,285 -10218,612 1683,341 5866,591 10853,617zm-1034 -2026c-191,-387 -373,-763 -534,-1107 -3178,101 -5692,300 -6905,546 1281,260 4010,466 7439,561zm-986 -2112c-121,-289 -215,-546 -299,-821 -1681,105 -2995,244 -3774,402 824,167 2249,312 4073,419zm-638 -2226l-64 -320c-389,49 -722,101 -991,156 284,58 638,113 1055,164zm-939 -5859l-56 -437c-2274,-241 -5984,-397 -10175,-397 -5371,0 -9953,257 -11734,618 1781,362 6363,619 11734,619 4225,0 7962,-159 10231,-403zm-217 -1764l-99 -849c-2097,-121 -4706,-191 -7535,-191 -5371,0 -9952,256 -11733,618 1781,362 6362,619 11733,619 2873,0 5521,-73 7634,-197zm-214 -1853l-122 -1081c-1510,-49 -3172,-76 -4918,-76 -5371,0 -9952,256 -11733,618 1781,362 6362,620 11733,620 1793,0 3498,-29 5040,-81zm-3877 -28313l-107 -966c-2376,111 -4231,280 -5221,481 1005,204 2901,375 5328,485zm-232 -2128l-67 -649c-1146,92 -2054,201 -2649,322 607,123 1538,234 2716,327zm-228 -2277l-4 -41 -104 20 108 21zm-477 -5667l-39 -533c-2297,-214 -5792,-351 -9707,-351 -5371,0 -9953,258 -11734,619 1781,362 6363,619 11734,619 3937,0 7449,-138 9746,-354zm-126 -1791l-58 -890c-2033,-109 -4510,-173 -7182,-173 -5371,0 -9953,257 -11734,619 1781,362 6363,619 11734,619 2698,0 5196,-65 7240,-175zm-118 -1865c-22,-369 -44,-735 -64,-1099 -1446,-44 -3024,-68 -4678,-68 -5371,0 -9953,257 -11734,618 1781,361 6363,619 11734,619 1678,0 3279,-25 4742,-70zm-109 -1915c-22,-407 -42,-810 -62,-1208 -712,-10 -1443,-15 -2191,-15 -5371,0 -9952,257 -11733,618 1781,362 6362,620 11733,620 769,0 1522,-5 2253,-15zm-98 -1956l-17 -374 -37 -863c-5250,9 -9704,263 -11454,618 1756,357 6234,613 11508,619zm-557 -28501l2 -753c-1495,102 -2668,230 -3385,376 717,146 1889,275 3383,377zm9 -2188l2 -318c-399,50 -740,103 -1014,159 274,55 613,109 1012,159zm76 -5977l3 -185c-2058,-312 -6303,-526 -11206,-526 -5371,0 -9953,257 -11734,618 1781,362 6363,620 11734,620 4901,0 9144,-215 11203,-527zm31 -1723l14 -679c-2268,-173 -5403,-280 -8868,-280 -5371,0 -9953,258 -11734,619 1781,361 6363,619 11734,619 3457,0 6588,-107 8854,-279zm39 -1830l22 -959c-1903,-89 -4140,-141 -6535,-141 -5371,0 -9953,259 -11734,619 1781,362 6363,620 11734,620 2385,0 4615,-51 6513,-139zm44 -1885l28 -1129c-1314,-36 -2730,-55 -4205,-55 -5371,0 -9953,257 -11734,619 1781,361 6363,619 11734,619 1465,0 2870,-19 4177,-54zm50 -1927l34 -1217c-614,-7 -1242,-11 -1881,-11 -5371,0 -9952,258 -11733,620 1781,361 6362,618 11733,618 627,0 1244,-4 1847,-10zm56 -1961l39 -1237c-5181,14 -9563,267 -11295,620 1728,349 6092,602 11256,617zm1867 -28382l93 -994c-2580,109 -4600,286 -5648,499 1036,210 3020,385 5555,495zm196 -2090l73 -755c-1523,102 -2717,232 -3444,380 715,144 1883,273 3371,375zm209 -2164l36 -368c-496,58 -913,120 -1236,186 316,64 720,125 1200,182zm774 -7795l54 -530c-2296,-218 -5816,-357 -9763,-357 -5371,0 -9953,258 -11734,620 1781,361 6363,618 11734,618 3916,0 7412,-137 9709,-351zm185 -1809l87 -852c-2108,-123 -4743,-196 -7601,-196 -5371,0 -9953,258 -11734,619 1781,362 6363,619 11734,619 2819,0 5420,-71 7514,-190zm193 -1871l112 -1053c-1645,-61 -3490,-95 -5439,-95 -5371,0 -9952,258 -11733,620 1781,361 6362,618 11733,618 1905,0 3711,-32 5327,-90zm204 -1910l128 -1174c-1045,-21 -2144,-33 -3279,-33 -5371,0 -9952,257 -11733,619 1781,361 6362,618 11733,618 1088,0 2144,-10 3151,-30zm3806 -28230c99,-364 221,-777 362,-1237 -5264,8 -9731,264 -11484,619 1713,347 6017,600 11122,618zm594 -1987c118,-376 246,-779 383,-1208 -4481,55 -8165,291 -9719,607 1509,306 5029,538 9336,601zm638 -2006l362 -1140c-3671,88 -6612,302 -7956,575 1300,264 4092,472 7594,565zm639 -2028c102,-331 207,-674 313,-1028 -2827,107 -5048,294 -6166,521 1076,218 3175,398 5853,507zm616 -2057c80,-278 162,-563 244,-856 -1949,109 -3470,260 -4333,435 827,168 2257,313 4089,421zm583 -2099l157 -597c-1051,88 -1889,192 -2449,305 532,108 1314,207 2292,292zm554 -2179l41 -172c-188,29 -357,59 -507,89 139,28 294,56 466,83zm555 -5892l-71 -215c-2106,-301 -6271,-505 -11065,-505 -5371,0 -9952,256 -11733,618 1781,362 6362,620 11733,620 4849,0 9054,-210 11136,-518zm-18940 -30244c-70,-69 -142,-137 -212,-206 -2119,-298 -6261,-500 -11025,-500 -5371,0 -9952,257 -11733,619 1781,362 6362,619 11733,619 4929,0 9192,-217 11237,-532zm-1684 -1611c-341,-317 -684,-632 -1031,-944 -1815,-77 -3910,-122 -6142,-122 -5371,0 -9952,257 -11733,619 1781,362 6362,619 11733,619 2668,0 5141,-64 7173,-172zm-2022 -1822c-469,-408 -944,-810 -1423,-1208 -443,-4 -892,-6 -1347,-6 -5371,0 -9953,257 -11734,619 1781,362 6363,619 11734,619 952,0 1879,-8 2770,-24zm-2337 -1957c-499,-403 -1005,-799 -1514,-1190 -3818,84 -6890,301 -8273,581 1562,318 5276,555 9787,609zm-2760 -2127c-382,-282 -766,-560 -1153,-835 -1547,103 -2759,234 -3494,383 909,185 2547,342 4647,452zm-6355 -4241c-208,-126 -416,-250 -626,-373 -2275,-240 -5979,-396 -10161,-396 -5371,0 -9953,257 -11734,618 1781,361 6363,620 11734,620 4592,0 8606,-189 10787,-469zm-2786 -1604c-682,-375 -1371,-741 -2065,-1097 -1127,-26 -2321,-39 -3556,-39 -5371,0 -9953,257 -11734,618 1781,362 6363,620 11734,620 2021,0 3930,-37 5621,-102zm-3605 -1869c-858,-418 -1726,-821 -2602,-1210 -4047,75 -7326,299 -8768,592 1741,353 6156,607 11370,618zm-80061 3246l-345 204c298,-41 557,-83 775,-128 -129,-26 -273,-51 -430,-76zm-3016 1881c-202,132 -403,265 -603,399 690,-71 1255,-150 1669,-234 -286,-58 -644,-113 -1066,-165zm-2806 1921c-228,164 -455,330 -682,496 923,-83 1663,-178 2173,-282 -377,-76 -881,-148 -1491,-214zm-2607 1947c-229,178 -455,359 -682,539 1029,-87 1849,-189 2400,-302 -423,-86 -1005,-166 -1718,-237zm-2426 1965c-213,180 -426,362 -638,544 1030,-87 1851,-189 2402,-301 -432,-88 -1030,-169 -1764,-243zm-2263 1982c-189,172 -378,343 -565,516 940,-84 1695,-180 2212,-285 -409,-83 -967,-160 -1647,-231zm-2120 1999c-155,151 -311,302 -464,454 773,-75 1401,-160 1851,-251 -356,-72 -824,-141 -1387,-203zm-1992 2016l-334 354c539,-61 989,-127 1333,-197 -271,-55 -607,-108 -999,-157zm-17004 27803c-141,409 -278,819 -411,1230 4984,-26 9164,-275 10846,-617 -1636,-332 -5633,-575 -10435,-613zm-659 1993c-123,394 -240,791 -358,1188 4187,-69 7594,-297 9072,-598 -1436,-292 -4692,-515 -8714,-590zm-596 2014c-104,366 -206,733 -304,1102 3333,-98 5979,-301 7234,-556 -1217,-247 -3740,-445 -6930,-546zm-111 2065c66,300 132,598 199,894 2011,-109 3579,-263 4461,-442 -910,-185 -2553,-343 -4660,-452zm494 2177l113 479c693,-71 1259,-150 1673,-234 -437,-88 -1042,-171 -1786,-245zm1551 5954l122 418c2269,244 6004,403 10229,403 5371,0 9952,-258 11733,-619 -1781,-362 -6362,-619 -11733,-619 -4301,0 -8095,165 -10351,417zm520 1740c93,302 183,595 273,879 2033,108 4507,172 7178,172 5371,0 9952,-258 11733,-619 -1781,-362 -6362,-619 -11733,-619 -2791,0 -5369,69 -7451,187zm579 1846l357 1122c1294,35 2686,54 4135,54 5370,0 9952,-259 11733,-620 -1781,-361 -6363,-619 -11733,-619 -1583,0 -3098,22 -4492,63zm4847 28412l102 801c1650,-105 2940,-241 3708,-397 -784,-160 -2111,-298 -3810,-404zm275 2197l42 348c442,-54 816,-111 1113,-171 -306,-62 -694,-121 -1155,-177zm686 5912l39 356c2228,263 6118,438 10544,438 5372,0 9954,-257 11734,-619 -1780,-361 -6362,-619 -11734,-619 -4452,0 -8362,177 -10583,444zm193 1748l88 802c2159,134 4917,215 7922,215 5372,0 9953,-257 11734,-619 -1781,-361 -6362,-619 -11734,-619 -3046,0 -5838,83 -8010,221zm202 1843l114 1054c1614,58 3415,90 5314,90 5372,0 9953,-257 11734,-619 -1781,-362 -6362,-619 -11734,-619 -1945,0 -3786,34 -5428,94zm206 1901l128 1191c874,15 1783,23 2715,23 5371,0 9952,-259 11733,-620 -1781,-361 -6362,-619 -11733,-619 -978,0 -1930,9 -2843,25zm209 1946l132 1238 122 0c5371,0 9952,-258 11733,-619 -1781,-362 -6362,-619 -11733,-619l-254 0zm212 1987l128 1202c4276,-65 7766,-296 9267,-600 -1516,-308 -5061,-540 -9395,-602zm3074 32716l8 172c2044,316 6309,533 11240,533 5371,0 9953,-258 11734,-619 -1781,-362 -6363,-619 -11734,-619 -4937,0 -9207,217 -11248,533zm79 1711l29 692c2259,168 5350,272 8760,272 5371,0 9952,-258 11734,-620 -1782,-360 -6363,-619 -11734,-619 -3424,0 -6527,105 -8789,275zm72 1827l34 977c1851,83 4004,130 6302,130 5372,0 9954,-258 11734,-619 -1780,-361 -6362,-619 -11734,-619 -2312,0 -4477,48 -6336,131zm61 1887c11,380 22,762 32,1145 1217,30 2515,46 3863,46 5372,0 9953,-258 11734,-620 -1781,-361 -6362,-618 -11734,-618 -1359,0 -2669,17 -3895,47zm51 1929c9,407 18,815 25,1226 472,4 953,6 1439,6 5372,0 9953,-258 11734,-620 -1781,-362 -6362,-618 -11734,-618 -495,0 -984,2 -1464,6zm38 1967l19 1232c4947,-29 9088,-277 10761,-616 -1675,-340 -5825,-588 -10780,-616zm28 2002l11 1167c3860,-81 6967,-300 8361,-583 -1395,-283 -4507,-502 -8372,-584zm17 2042l5 1024c2734,-107 4878,-290 5970,-512 -1093,-222 -3239,-404 -5975,-512zm-769 32700l-2 24c1823,355 6362,607 11673,607 5371,0 9953,-258 11734,-619 -1781,-361 -6363,-618 -11734,-618 -5310,0 -9848,251 -11671,606zm-100 1686l-37 589c2296,200 5669,326 9428,326 5371,0 9952,-257 11734,-619 -1782,-362 -6363,-619 -11734,-619 -3739,0 -7096,125 -9391,323zm-118 1817l-62 895c2035,109 4515,173 7190,173 5372,0 9954,-257 11734,-619 -1780,-361 -6362,-619 -11734,-619 -2648,0 -5104,63 -7128,170zm-133 1876c-27,363 -54,723 -83,1085 1522,50 3201,78 4964,78 5372,0 9953,-257 11734,-619 -1781,-362 -6362,-619 -11734,-619 -1731,0 -3381,27 -4881,75zm-151 1917c-32,392 -67,788 -104,1193 887,15 1809,23 2756,23 5372,0 9953,-257 11734,-619 -1781,-362 -6362,-619 -11734,-619 -910,0 -1797,8 -2652,22zm-173 1949c-38,401 -78,812 -121,1236l567 1c5371,0 9952,-257 11733,-619 -1781,-362 -6362,-619 -11733,-619l-446 1zm-197 1979c-42,394 -85,800 -132,1221 4665,-46 8527,-286 10128,-611 -1586,-322 -5391,-562 -9996,-610zm-219 2008l-132 1147c3676,-88 6621,-302 7967,-575 -1330,-270 -4221,-482 -7835,-572zm-3558 28426l-87 816c1747,-107 3112,-249 3912,-411 -787,-160 -2119,-299 -3825,-405zm-223 2142l-47 471c711,-72 1292,-152 1715,-238 -414,-84 -978,-162 -1668,-233zm-650 7880l-30 465c2281,235 5948,388 10082,388 5372,0 9953,-257 11734,-619 -1781,-362 -6362,-619 -11734,-619 -4116,0 -7769,151 -10052,385zm-111 1792l-47 822c2145,131 4867,210 7830,210 5372,0 9953,-259 11734,-619 -1781,-362 -6362,-619 -11734,-619 -2941,0 -5645,77 -7783,206zm-106 1861l-35 620 -24 422c1677,63 3568,99 5569,99 5371,0 9952,-258 11733,-619 -1781,-362 -6362,-619 -11733,-619 -1977,0 -3847,35 -5510,97zm-111 1905c-25,405 -49,796 -74,1173 1056,22 2167,34 3315,34 5371,0 9952,-259 11733,-620 -1781,-362 -6362,-619 -11733,-619 -1121,0 -2207,11 -3241,32zm-127 1941c-30,428 -61,838 -93,1232 356,2 717,3 1081,3 5370,0 9952,-258 11733,-619 -1781,-361 -6363,-619 -11733,-619 -333,0 -662,1 -988,3zm119325 -185939c-5371,0 -9952,257 -11733,619 1781,361 6362,619 11733,619 5372,0 9953,-258 11734,-619 -1781,-362 -6362,-619 -11734,-619zm-2379 1970c-5372,0 -9953,258 -11734,619 1781,361 6362,620 11734,620 5371,0 9952,-259 11733,-620 -1781,-361 -6362,-619 -11733,-619zm19040 -15761c-5371,0 -9952,256 -11733,618 1781,362 6362,620 11733,620 5371,0 9953,-258 11734,-620 -1781,-362 -6363,-618 -11734,-618zm-2380 1970c-5371,0 -9953,257 -11734,618 1781,362 6363,619 11734,619 5371,0 9953,-257 11734,-619 -1781,-361 -6363,-618 -11734,-618zm-2380 1971c-5371,0 -9953,256 -11734,618 1781,361 6363,619 11734,619 5371,0 9952,-258 11733,-619 -1781,-362 -6362,-618 -11733,-618zm-2380 1970c-5371,0 -9953,257 -11734,618 1781,362 6363,619 11734,619 5371,0 9952,-257 11733,-619 -1781,-361 -6362,-618 -11733,-618zm-2380 1969c-5371,0 -9953,257 -11734,619 1781,362 6363,619 11734,619 5371,0 9953,-257 11734,-619 -1781,-362 -6363,-619 -11734,-619zm-2380 1970c-5371,0 -9953,258 -11734,620 1781,361 6363,618 11734,618 5371,0 9953,-257 11734,-618 -1781,-362 -6363,-620 -11734,-620zm-2381 1971c-5371,0 -9952,257 -11733,619 1781,361 6362,619 11733,619 5372,0 9954,-258 11735,-619 -1781,-362 -6363,-619 -11735,-619zm-31369 1970c-5371,0 -9953,257 -11734,619 1781,361 6363,619 11734,619 5371,0 9953,-258 11734,-619 -1781,-362 -6363,-619 -11734,-619zm-2380 1970c-5371,0 -9953,258 -11734,619 1781,361 6363,620 11734,620 5371,0 9953,-259 11734,-620 -1781,-361 -6363,-619 -11734,-619zm21421 -17731c-5371,0 -9953,256 -11734,618 1781,362 6363,620 11734,620 5371,0 9952,-258 11733,-620 -1781,-362 -6362,-618 -11733,-618zm-2380 1970c-5371,0 -9953,256 -11734,618 1781,362 6363,620 11734,620 5371,0 9952,-258 11733,-620 -1781,-362 -6362,-618 -11733,-618zm-2380 1970c-5371,0 -9953,257 -11734,618 1781,362 6363,619 11734,619 5371,0 9952,-257 11733,-619 -1781,-361 -6362,-618 -11733,-618zm-2381 1971c-5371,0 -9952,256 -11733,618 1781,361 6362,619 11733,619 5372,0 9953,-258 11734,-619 -1781,-362 -6362,-618 -11734,-618zm-2380 1970c-5371,0 -9952,257 -11733,618 1781,362 6362,619 11733,619 5372,0 9953,-257 11734,-619 -1781,-361 -6362,-618 -11734,-618zm-2380 1969c-5371,0 -9952,257 -11733,619 1781,362 6362,619 11733,619 5372,0 9953,-257 11734,-619 -1781,-362 -6362,-619 -11734,-619zm-2380 1970c-5371,0 -9952,258 -11733,620 1781,361 6362,618 11733,618 5372,0 9953,-257 11734,-618 -1781,-362 -6362,-620 -11734,-620zm-2380 1971c-5371,0 -9953,257 -11734,619 1781,361 6363,619 11734,619 5371,0 9953,-258 11734,-619 -1781,-362 -6363,-619 -11734,-619zm-31370 1970c-5370,0 -9952,257 -11733,619 1781,361 6363,619 11733,619 5371,0 9953,-258 11734,-619 -1781,-362 -6363,-619 -11734,-619zm-2380 1970c-5370,0 -9952,258 -11733,619 1781,361 6363,620 11733,620 5371,0 9953,-259 11734,-620 -1781,-361 -6363,-619 -11734,-619zm21421 -17731c-5371,0 -9953,256 -11734,618 1781,362 6363,620 11734,620 5372,0 9953,-258 11734,-620 -1781,-362 -6362,-618 -11734,-618zm-2380 1970c-5371,0 -9953,256 -11734,618 1781,362 6363,620 11734,620 5371,0 9953,-258 11734,-620 -1781,-362 -6363,-618 -11734,-618zm-2380 1970c-5371,0 -9953,257 -11734,618 1781,362 6363,619 11734,619 5371,0 9953,-257 11734,-619 -1781,-361 -6363,-618 -11734,-618zm-2380 1971c-5372,0 -9953,256 -11734,618 1781,361 6362,619 11734,619 5371,0 9953,-258 11734,-619 -1781,-362 -6363,-618 -11734,-618zm-2380 1970c-5372,0 -9953,257 -11734,618 1781,362 6362,619 11734,619 5371,0 9953,-257 11734,-619 -1781,-361 -6363,-618 -11734,-618zm-2380 1969c-5372,0 -9953,257 -11734,619 1781,362 6362,619 11734,619 5371,0 9953,-257 11734,-619 -1781,-362 -6363,-619 -11734,-619zm-2380 1970c-5371,0 -9953,258 -11734,620 1781,361 6363,618 11734,618 5371,0 9953,-257 11734,-618 -1781,-362 -6363,-620 -11734,-620zm-2380 1971c-5371,0 -9953,257 -11734,619 1781,361 6363,619 11734,619 5370,0 9952,-258 11733,-619 -1781,-362 -6363,-619 -11733,-619zm-31370 1970c-5372,0 -9953,257 -11734,619 1781,361 6362,619 11734,619 5371,0 9953,-258 11734,-619 -1781,-362 -6363,-619 -11734,-619zm-2380 1970c-5372,0 -9953,258 -11734,619 1781,361 6362,620 11734,620 5371,0 9953,-259 11734,-620 -1781,-361 -6363,-619 -11734,-619zm21421 -17731c-5372,0 -9953,256 -11734,618 1781,362 6362,620 11734,620 5371,0 9953,-258 11734,-620 -1781,-362 -6363,-618 -11734,-618zm-2380 1970c-5372,0 -9953,256 -11734,618 1781,362 6362,620 11734,620 5371,0 9953,-258 11734,-620 -1781,-362 -6363,-618 -11734,-618zm-2380 1970c-5372,0 -9953,257 -11734,618 1781,362 6362,619 11734,619 5371,0 9953,-257 11733,-619 -1780,-361 -6362,-618 -11733,-618zm-2381 1971c-5371,0 -9953,256 -11734,618 1781,361 6363,619 11734,619 5371,0 9953,-258 11734,-619 -1781,-362 -6363,-618 -11734,-618zm-2380 1970c-5371,0 -9953,257 -11734,618 1781,362 6363,619 11734,619 5371,0 9953,-257 11734,-619 -1781,-361 -6363,-618 -11734,-618zm-2380 1969c-5371,0 -9953,257 -11734,619 1781,362 6363,619 11734,619 5371,0 9953,-257 11734,-619 -1781,-362 -6363,-619 -11734,-619zm-2380 1970c-5371,0 -9953,258 -11734,620 1781,361 6363,618 11734,618 5371,0 9953,-257 11734,-618 -1781,-362 -6363,-620 -11734,-620zm-2380 1971c-5372,0 -9953,257 -11734,619 1781,361 6362,619 11734,619 5371,0 9953,-258 11734,-619 -1781,-362 -6363,-619 -11734,-619zm-12329 -13791c-5371,0 -9952,256 -11733,618 1781,362 6362,620 11733,620 5371,0 9953,-258 11734,-620 -1781,-362 -6363,-618 -11734,-618zm-2380 1970c-5371,0 -9953,256 -11734,618 1781,362 6363,620 11734,620 5371,0 9953,-258 11734,-620 -1781,-362 -6363,-618 -11734,-618zm-2380 1970c-5371,0 -9953,257 -11734,618 1781,362 6363,619 11734,619 5371,0 9953,-257 11734,-619 -1781,-361 -6363,-618 -11734,-618zm-2380 1971c-5371,0 -9953,256 -11734,618 1781,361 6363,619 11734,619 5371,0 9952,-258 11734,-619 -1782,-362 -6363,-618 -11734,-618zm-2381 1970c-5370,0 -9952,257 -11733,618 1781,362 6363,619 11733,619 5372,0 9954,-257 11734,-619 -1780,-361 -6362,-618 -11734,-618zm-2380 1969c-5370,0 -9952,257 -11733,619 1781,362 6363,619 11733,619 5372,0 9953,-257 11734,-619 -1781,-362 -6362,-619 -11734,-619zm-2380 1970c-5371,0 -9952,258 -11733,620 1781,361 6362,618 11733,618 5372,0 9953,-257 11734,-618 -1781,-362 -6362,-620 -11734,-620zm108819 -40080c-5372,0 -9953,257 -11734,619 1781,362 6362,618 11734,618 5371,0 9952,-256 11733,-618 -1781,-362 -6362,-619 -11733,-619zm-26610 -1970c-5371,0 -9953,257 -11734,619 1781,362 6363,619 11734,619 5371,0 9953,-257 11734,-619 -1781,-362 -6363,-619 -11734,-619zm-2380 1970c-5371,0 -9953,257 -11734,619 1781,362 6363,618 11734,618 5371,0 9953,-256 11734,-618 -1781,-362 -6363,-619 -11734,-619zm14280 -11822c-5371,0 -9952,257 -11733,619 1781,362 6362,619 11733,619 5372,0 9953,-257 11734,-619 -1781,-362 -6362,-619 -11734,-619zm-2380 1971c-5371,0 -9952,257 -11733,618 1781,362 6362,620 11733,620 5372,0 9953,-258 11734,-620 -1781,-361 -6362,-618 -11734,-618zm-2380 1970c-5371,0 -9952,257 -11733,618 1781,363 6362,620 11733,620 5372,0 9953,-257 11734,-620 -1781,-361 -6362,-618 -11734,-618zm-2380 1970c-5371,0 -9952,257 -11733,619 1781,362 6362,619 11733,619 5372,0 9953,-257 11734,-619 -1781,-362 -6362,-619 -11734,-619zm-2380 1970c-5371,0 -9953,257 -11734,619 1781,362 6363,619 11734,619 5371,0 9953,-257 11734,-619 -1781,-362 -6363,-619 -11734,-619zm-31370 1971c-5370,0 -9952,257 -11733,619 1781,362 6363,619 11733,619 5371,0 9953,-257 11734,-619 -1781,-362 -6363,-619 -11734,-619zm-2380 1970c-5370,0 -9952,257 -11733,619 1781,362 6363,618 11733,618 5371,0 9953,-256 11734,-618 -1781,-362 -6363,-619 -11734,-619zm21421 -17732c-5371,0 -9953,257 -11734,619 1781,361 6363,619 11734,619 5372,0 9953,-258 11734,-619 -1781,-362 -6362,-619 -11734,-619zm-2380 1970c-5371,0 -9953,257 -11734,618 1781,362 6363,620 11734,620 5371,0 9953,-258 11734,-620 -1781,-361 -6363,-618 -11734,-618zm-2380 1971c-5371,0 -9953,257 -11734,618 1781,361 6363,620 11734,620 5371,0 9953,-259 11734,-620 -1781,-361 -6363,-618 -11734,-618zm-2380 1969c-5372,0 -9953,257 -11734,619 1781,362 6362,619 11734,619 5371,0 9953,-257 11734,-619 -1781,-362 -6363,-619 -11734,-619zm-2380 1971c-5372,0 -9953,257 -11734,618 1781,362 6362,620 11734,620 5371,0 9953,-258 11734,-620 -1781,-361 -6363,-618 -11734,-618zm-2380 1970c-5372,0 -9953,257 -11734,618 1781,363 6362,620 11734,620 5371,0 9953,-257 11734,-620 -1781,-361 -6363,-618 -11734,-618zm-2380 1970c-5371,0 -9953,257 -11734,619 1781,362 6363,619 11734,619 5371,0 9953,-257 11734,-619 -1781,-362 -6363,-619 -11734,-619zm-2380 1970c-5371,0 -9953,257 -11734,619 1781,362 6363,619 11734,619 5370,0 9952,-257 11733,-619 -1781,-362 -6363,-619 -11733,-619zm-31370 1971c-5372,0 -9953,257 -11734,619 1781,362 6362,619 11734,619 5371,0 9953,-257 11734,-619 -1781,-362 -6363,-619 -11734,-619zm-2380 1970c-5372,0 -9953,257 -11734,619 1781,362 6362,618 11734,618 5371,0 9953,-256 11734,-618 -1781,-362 -6363,-619 -11734,-619zm21421 -17732c-5372,0 -9953,257 -11734,619 1781,361 6362,619 11734,619 5371,0 9953,-258 11734,-619 -1781,-362 -6363,-619 -11734,-619zm-2380 1970c-5372,0 -9953,257 -11734,618 1781,362 6362,620 11734,620 5371,0 9953,-258 11734,-620 -1781,-361 -6363,-618 -11734,-618zm-2380 1971c-5372,0 -9953,257 -11734,618 1781,361 6362,620 11734,620 5371,0 9953,-259 11733,-620 -1780,-361 -6362,-618 -11733,-618zm-2381 1969c-5371,0 -9953,257 -11734,619 1781,362 6363,619 11734,619 5371,0 9953,-257 11734,-619 -1781,-362 -6363,-619 -11734,-619zm-2380 1971c-5371,0 -9953,257 -11734,618 1781,362 6363,620 11734,620 5371,0 9953,-258 11734,-620 -1781,-361 -6363,-618 -11734,-618zm-2380 1970c-5371,0 -9953,257 -11734,618 1781,363 6363,620 11734,620 5371,0 9953,-257 11734,-620 -1781,-361 -6363,-618 -11734,-618zm-2380 1970c-5371,0 -9953,257 -11734,619 1781,362 6363,619 11734,619 5371,0 9953,-257 11734,-619 -1781,-362 -6363,-619 -11734,-619zm-2380 1970c-5372,0 -9953,257 -11734,619 1781,362 6362,619 11734,619 5371,0 9953,-257 11734,-619 -1781,-362 -6363,-619 -11734,-619zm84588 93954c-5371,0 -9952,257 -11733,619 1781,361 6362,619 11733,619 5372,0 9953,-258 11734,-619 -1781,-362 -6362,-619 -11734,-619zm-2379 1970c-5372,0 -9953,257 -11734,619 1781,361 6362,619 11734,619 5371,0 9952,-258 11733,-619 -1781,-362 -6362,-619 -11733,-619zm11900 -9852c-5371,0 -9953,258 -11734,619 1781,362 6363,619 11734,619 5371,0 9952,-257 11733,-619 -1781,-361 -6362,-619 -11733,-619zm-2380 1971c-5371,0 -9953,258 -11734,619 1781,362 6363,619 11734,619 5371,0 9953,-257 11734,-619 -1781,-361 -6363,-619 -11734,-619zm-2380 1970c-5371,0 -9953,257 -11734,619 1781,362 6363,619 11734,619 5371,0 9953,-257 11734,-619 -1781,-362 -6363,-619 -11734,-619zm-2381 1970c-5371,0 -9952,258 -11733,619 1781,361 6362,620 11733,620 5372,0 9954,-259 11735,-620 -1781,-361 -6363,-619 -11735,-619zm-31369 1971c-5371,0 -9953,257 -11734,619 1781,361 6363,619 11734,619 5371,0 9953,-258 11734,-619 -1781,-362 -6363,-619 -11734,-619zm-2380 1970c-5371,0 -9953,257 -11734,619 1781,361 6363,619 11734,619 5371,0 9953,-258 11734,-619 -1781,-362 -6363,-619 -11734,-619zm21421 -17732c-5371,0 -9953,257 -11734,619 1781,361 6363,618 11734,618 5371,0 9952,-257 11733,-618 -1781,-362 -6362,-619 -11733,-619zm-2380 1969c-5371,0 -9953,258 -11734,620 1781,361 6363,618 11734,618 5371,0 9952,-257 11733,-618 -1781,-362 -6362,-620 -11733,-620zm-2380 1971c-5371,0 -9953,258 -11734,619 1781,362 6363,619 11734,619 5371,0 9952,-257 11733,-619 -1781,-361 -6362,-619 -11733,-619zm-2381 1970c-5371,0 -9952,258 -11733,620 1781,361 6362,618 11733,618 5372,0 9953,-257 11734,-618 -1781,-362 -6362,-620 -11734,-620zm-2380 1970c-5371,0 -9952,258 -11733,619 1781,362 6362,619 11733,619 5372,0 9953,-257 11734,-619 -1781,-361 -6362,-619 -11734,-619zm-2380 1971c-5371,0 -9952,258 -11733,619 1781,362 6362,619 11733,619 5372,0 9953,-257 11734,-619 -1781,-361 -6362,-619 -11734,-619zm-2380 1970c-5371,0 -9952,257 -11733,619 1781,362 6362,619 11733,619 5372,0 9953,-257 11734,-619 -1781,-362 -6362,-619 -11734,-619zm-2380 1970c-5371,0 -9953,258 -11734,619 1781,361 6363,620 11734,620 5371,0 9953,-259 11734,-620 -1781,-361 -6363,-619 -11734,-619zm-31370 1971c-5370,0 -9952,257 -11733,619 1781,361 6363,619 11733,619 5371,0 9953,-258 11734,-619 -1781,-362 -6363,-619 -11734,-619zm-2380 1970c-5370,0 -9952,257 -11733,619 1781,361 6363,619 11733,619 5371,0 9953,-258 11734,-619 -1781,-362 -6363,-619 -11734,-619zm21421 -17732c-5371,0 -9953,257 -11734,619 1781,361 6363,618 11734,618 5372,0 9953,-257 11734,-618 -1781,-362 -6362,-619 -11734,-619zm-2380 1969c-5371,0 -9953,258 -11734,620 1781,361 6363,618 11734,618 5371,0 9953,-257 11734,-618 -1781,-362 -6363,-620 -11734,-620zm-2380 1971c-5371,0 -9953,258 -11734,619 1781,362 6363,619 11734,619 5371,0 9953,-257 11734,-619 -1781,-361 -6363,-619 -11734,-619zm-2380 1970c-5372,0 -9953,258 -11734,620 1781,361 6362,618 11734,618 5371,0 9953,-257 11734,-618 -1781,-362 -6363,-620 -11734,-620zm-2380 1970c-5372,0 -9953,258 -11734,619 1781,362 6362,619 11734,619 5371,0 9953,-257 11734,-619 -1781,-361 -6363,-619 -11734,-619zm-2380 1971c-5372,0 -9953,258 -11734,619 1781,362 6362,619 11734,619 5371,0 9953,-257 11734,-619 -1781,-361 -6363,-619 -11734,-619zm-2380 1970c-5371,0 -9953,257 -11734,619 1781,362 6363,619 11734,619 5371,0 9953,-257 11734,-619 -1781,-362 -6363,-619 -11734,-619zm-2380 1970c-5371,0 -9953,258 -11734,619 1781,361 6363,620 11734,620 5370,0 9952,-259 11733,-620 -1781,-361 -6363,-619 -11733,-619zm-31370 1971c-5372,0 -9953,257 -11734,619 1781,361 6362,619 11734,619 5371,0 9953,-258 11734,-619 -1781,-362 -6363,-619 -11734,-619zm-2380 1970c-5372,0 -9953,257 -11734,619 1781,361 6362,619 11734,619 5371,0 9953,-258 11734,-619 -1781,-362 -6363,-619 -11734,-619zm21421 -17732c-5372,0 -9953,257 -11734,619 1781,361 6362,618 11734,618 5371,0 9953,-257 11734,-618 -1781,-362 -6363,-619 -11734,-619zm-2380 1969c-5372,0 -9953,258 -11734,620 1781,361 6362,618 11734,618 5371,0 9953,-257 11734,-618 -1781,-362 -6363,-620 -11734,-620zm-2380 1971c-5372,0 -9953,258 -11734,619 1781,362 6362,619 11734,619 5371,0 9953,-257 11733,-619 -1780,-361 -6362,-619 -11733,-619zm-2381 1970c-5371,0 -9953,258 -11734,620 1781,361 6363,618 11734,618 5371,0 9953,-257 11734,-618 -1781,-362 -6363,-620 -11734,-620zm-2380 1970c-5371,0 -9953,258 -11734,619 1781,362 6363,619 11734,619 5371,0 9953,-257 11734,-619 -1781,-361 -6363,-619 -11734,-619zm-2380 1971c-5371,0 -9953,258 -11734,619 1781,362 6363,619 11734,619 5371,0 9953,-257 11734,-619 -1781,-361 -6363,-619 -11734,-619zm-2380 1970c-5371,0 -9953,257 -11734,619 1781,362 6363,619 11734,619 5371,0 9953,-257 11734,-619 -1781,-362 -6363,-619 -11734,-619zm-2380 1970c-5372,0 -9953,258 -11734,619 1781,361 6362,620 11734,620 5371,0 9953,-259 11734,-620 -1781,-361 -6363,-619 -11734,-619zm-12329 -13791c-5371,0 -9952,257 -11733,619 1781,361 6362,618 11733,618 5371,0 9953,-257 11734,-618 -1781,-362 -6363,-619 -11734,-619zm-2380 1969c-5371,0 -9953,258 -11734,620 1781,361 6363,618 11734,618 5371,0 9953,-257 11734,-618 -1781,-362 -6363,-620 -11734,-620zm-2380 1971c-5371,0 -9953,258 -11734,619 1781,362 6363,619 11734,619 5371,0 9953,-257 11734,-619 -1781,-361 -6363,-619 -11734,-619zm-2380 1970c-5371,0 -9953,258 -11734,620 1781,361 6363,618 11734,618 5371,0 9952,-257 11734,-618 -1782,-362 -6363,-620 -11734,-620zm104057 55843c-5371,0 -9952,257 -11733,619 1781,362 6362,619 11733,619 5372,0 9953,-257 11734,-619 -1781,-362 -6362,-619 -11734,-619zm-2379 1971c-5372,0 -9953,256 -11734,618 1781,362 6362,619 11734,619 5371,0 9952,-257 11733,-619 -1781,-362 -6362,-618 -11733,-618zm7140 -5911c-5371,0 -9953,256 -11734,618 1781,362 6363,620 11734,620 5371,0 9953,-258 11734,-620 -1781,-362 -6363,-618 -11734,-618zm-2381 1970c-5371,0 -9952,257 -11733,619 1781,361 6362,619 11733,619 5372,0 9954,-258 11735,-619 -1781,-362 -6363,-619 -11735,-619zm-31369 1970c-5371,0 -9953,257 -11734,619 1781,362 6363,619 11734,619 5371,0 9953,-257 11734,-619 -1781,-362 -6363,-619 -11734,-619zm-2380 1971c-5371,0 -9953,256 -11734,618 1781,362 6363,619 11734,619 5371,0 9953,-257 11734,-619 -1781,-362 -6363,-618 -11734,-618zm21421 -17733c-5371,0 -9953,257 -11734,620 1781,360 6363,618 11734,618 5371,0 9952,-258 11733,-618 -1781,-363 -6362,-620 -11733,-620zm-2380 1970c-5371,0 -9953,258 -11734,620 1781,361 6363,618 11734,618 5371,0 9952,-257 11733,-618 -1781,-362 -6362,-620 -11733,-620zm-2380 1971c-5371,0 -9953,257 -11734,619 1781,361 6363,619 11734,619 5371,0 9952,-258 11733,-619 -1781,-362 -6362,-619 -11733,-619zm-2381 1969c-5371,0 -9952,259 -11733,619 1781,362 6362,620 11733,620 5372,0 9953,-258 11734,-620 -1781,-360 -6362,-619 -11734,-619zm-2380 1971c-5371,0 -9952,258 -11733,619 1781,361 6362,619 11733,619 5372,0 9953,-258 11734,-619 -1781,-361 -6362,-619 -11734,-619zm-2380 1971c-5371,0 -9952,257 -11733,618 1781,362 6362,620 11733,620 5372,0 9953,-258 11734,-620 -1781,-361 -6362,-618 -11734,-618zm-2380 1970c-5371,0 -9952,256 -11733,618 1781,362 6362,620 11733,620 5372,0 9953,-258 11734,-620 -1781,-362 -6362,-618 -11734,-618zm-2380 1970c-5371,0 -9953,257 -11734,619 1781,361 6363,619 11734,619 5371,0 9953,-258 11734,-619 -1781,-362 -6363,-619 -11734,-619zm-31370 1970c-5370,0 -9952,257 -11733,619 1781,362 6363,619 11733,619 5371,0 9953,-257 11734,-619 -1781,-362 -6363,-619 -11734,-619zm-2380 1971c-5370,0 -9952,256 -11733,618 1781,362 6363,619 11733,619 5371,0 9953,-257 11734,-619 -1781,-362 -6363,-618 -11734,-618zm21421 -17733c-5371,0 -9953,257 -11734,620 1781,360 6363,618 11734,618 5372,0 9953,-258 11734,-618 -1781,-363 -6362,-620 -11734,-620zm-2380 1970c-5371,0 -9953,258 -11734,620 1781,361 6363,618 11734,618 5371,0 9953,-257 11734,-618 -1781,-362 -6363,-620 -11734,-620zm-2380 1971c-5371,0 -9953,257 -11734,619 1781,361 6363,619 11734,619 5371,0 9953,-258 11734,-619 -1781,-362 -6363,-619 -11734,-619zm-2380 1969c-5372,0 -9953,259 -11734,619 1781,362 6362,620 11734,620 5371,0 9953,-258 11734,-620 -1781,-360 -6363,-619 -11734,-619zm-2380 1971c-5372,0 -9953,258 -11734,619 1781,361 6362,619 11734,619 5371,0 9953,-258 11734,-619 -1781,-361 -6363,-619 -11734,-619zm-2380 1971c-5372,0 -9953,257 -11734,618 1781,362 6362,620 11734,620 5371,0 9953,-258 11734,-620 -1781,-361 -6363,-618 -11734,-618zm-2380 1970c-5371,0 -9953,256 -11734,618 1781,362 6363,620 11734,620 5371,0 9953,-258 11734,-620 -1781,-362 -6363,-618 -11734,-618zm-2380 1970c-5371,0 -9953,257 -11734,619 1781,361 6363,619 11734,619 5370,0 9952,-258 11733,-619 -1781,-362 -6363,-619 -11733,-619zm-31370 1970c-5372,0 -9953,257 -11734,619 1781,362 6362,619 11734,619 5371,0 9953,-257 11734,-619 -1781,-362 -6363,-619 -11734,-619zm-2380 1971c-5372,0 -9953,256 -11734,618 1781,362 6362,619 11734,619 5371,0 9953,-257 11734,-619 -1781,-362 -6363,-618 -11734,-618zm21421 -17733c-5372,0 -9953,257 -11734,620 1781,360 6362,618 11734,618 5371,0 9953,-258 11734,-618 -1781,-363 -6363,-620 -11734,-620zm-2380 1970c-5372,0 -9953,258 -11734,620 1781,361 6362,618 11734,618 5371,0 9953,-257 11734,-618 -1781,-362 -6363,-620 -11734,-620zm-2380 1971c-5372,0 -9953,257 -11734,619 1781,361 6362,619 11734,619 5371,0 9953,-258 11733,-619 -1780,-362 -6362,-619 -11733,-619zm-2381 1969c-5371,0 -9953,259 -11734,619 1781,362 6363,620 11734,620 5371,0 9953,-258 11734,-620 -1781,-360 -6363,-619 -11734,-619zm-2380 1971c-5371,0 -9953,258 -11734,619 1781,361 6363,619 11734,619 5371,0 9953,-258 11734,-619 -1781,-361 -6363,-619 -11734,-619zm-2380 1971c-5371,0 -9953,257 -11734,618 1781,362 6363,620 11734,620 5371,0 9953,-258 11734,-620 -1781,-361 -6363,-618 -11734,-618zm-2380 1970c-5371,0 -9953,256 -11734,618 1781,362 6363,620 11734,620 5371,0 9953,-258 11734,-620 -1781,-362 -6363,-618 -11734,-618zm-2380 1970c-5372,0 -9953,257 -11734,619 1781,361 6362,619 11734,619 5371,0 9953,-258 11734,-619 -1781,-362 -6363,-619 -11734,-619zm-12329 -13792c-5371,0 -9952,257 -11733,620 1781,360 6362,618 11733,618 5371,0 9953,-258 11734,-618 -1781,-363 -6363,-620 -11734,-620zm-2380 1970c-5371,0 -9953,258 -11734,620 1781,361 6363,618 11734,618 5371,0 9953,-257 11734,-618 -1781,-362 -6363,-620 -11734,-620zm99297 59784c-5371,0 -9952,257 -11733,619 1781,362 6362,619 11733,619 5372,0 9953,-257 11734,-619 -1781,-362 -6362,-619 -11734,-619zm-2379 1970c-5372,0 -9953,257 -11734,619 1781,361 6362,618 11734,618 5371,0 9952,-257 11733,-618 -1781,-362 -6362,-619 -11733,-619zm9520 -7881c-5371,0 -9953,257 -11734,619 1781,362 6363,619 11734,619 5371,0 9953,-257 11734,-619 -1781,-362 -6363,-619 -11734,-619zm-2380 1970c-5371,0 -9953,257 -11734,619 1781,362 6363,619 11734,619 5371,0 9953,-257 11734,-619 -1781,-362 -6363,-619 -11734,-619zm-2381 1970c-5371,0 -9952,257 -11733,619 1781,362 6362,619 11733,619 5372,0 9954,-257 11735,-619 -1781,-362 -6363,-619 -11735,-619zm-31369 1971c-5371,0 -9953,257 -11734,619 1781,362 6363,619 11734,619 5371,0 9953,-257 11734,-619 -1781,-362 -6363,-619 -11734,-619zm-2380 1970c-5371,0 -9953,257 -11734,619 1781,361 6363,618 11734,618 5371,0 9953,-257 11734,-618 -1781,-362 -6363,-619 -11734,-619zm21421 -17732c-5371,0 -9953,257 -11734,618 1781,362 6363,620 11734,620 5371,0 9952,-258 11733,-620 -1781,-361 -6362,-618 -11733,-618zm-2380 1970c-5371,0 -9953,257 -11734,618 1781,362 6363,620 11734,620 5371,0 9952,-258 11733,-620 -1781,-361 -6362,-618 -11733,-618zm-2380 1971c-5371,0 -9953,257 -11734,618 1781,361 6363,619 11734,619 5371,0 9952,-258 11733,-619 -1781,-361 -6362,-618 -11733,-618zm-2381 1969c-5371,0 -9952,257 -11733,619 1781,362 6362,619 11733,619 5372,0 9953,-257 11734,-619 -1781,-362 -6362,-619 -11734,-619zm-2380 1970c-5371,0 -9952,258 -11733,619 1781,362 6362,619 11733,619 5372,0 9953,-257 11734,-619 -1781,-361 -6362,-619 -11734,-619zm-2380 1971c-5371,0 -9952,257 -11733,619 1781,362 6362,619 11733,619 5372,0 9953,-257 11734,-619 -1781,-362 -6362,-619 -11734,-619zm-2380 1970c-5371,0 -9952,257 -11733,619 1781,362 6362,619 11733,619 5372,0 9953,-257 11734,-619 -1781,-362 -6362,-619 -11734,-619zm-2380 1970c-5371,0 -9953,257 -11734,619 1781,362 6363,619 11734,619 5371,0 9953,-257 11734,-619 -1781,-362 -6363,-619 -11734,-619zm-31370 1971c-5370,0 -9952,257 -11733,619 1781,362 6363,619 11733,619 5371,0 9953,-257 11734,-619 -1781,-362 -6363,-619 -11734,-619zm-2380 1970c-5370,0 -9952,257 -11733,619 1781,361 6363,618 11733,618 5371,0 9953,-257 11734,-618 -1781,-362 -6363,-619 -11734,-619zm21421 -17732c-5371,0 -9953,257 -11734,618 1781,362 6363,620 11734,620 5372,0 9953,-258 11734,-620 -1781,-361 -6362,-618 -11734,-618zm-2380 1970c-5371,0 -9953,257 -11734,618 1781,362 6363,620 11734,620 5371,0 9953,-258 11734,-620 -1781,-361 -6363,-618 -11734,-618zm-2380 1971c-5371,0 -9953,257 -11734,618 1781,361 6363,619 11734,619 5371,0 9953,-258 11734,-619 -1781,-361 -6363,-618 -11734,-618zm-2380 1969c-5372,0 -9953,257 -11734,619 1781,362 6362,619 11734,619 5371,0 9953,-257 11734,-619 -1781,-362 -6363,-619 -11734,-619zm-2380 1970c-5372,0 -9953,258 -11734,619 1781,362 6362,619 11734,619 5371,0 9953,-257 11734,-619 -1781,-361 -6363,-619 -11734,-619zm-2380 1971c-5372,0 -9953,257 -11734,619 1781,362 6362,619 11734,619 5371,0 9953,-257 11734,-619 -1781,-362 -6363,-619 -11734,-619zm-2380 1970c-5371,0 -9953,257 -11734,619 1781,362 6363,619 11734,619 5371,0 9953,-257 11734,-619 -1781,-362 -6363,-619 -11734,-619zm-2380 1970c-5371,0 -9953,257 -11734,619 1781,362 6363,619 11734,619 5370,0 9952,-257 11733,-619 -1781,-362 -6363,-619 -11733,-619zm-31370 1971c-5372,0 -9953,257 -11734,619 1781,362 6362,619 11734,619 5371,0 9953,-257 11734,-619 -1781,-362 -6363,-619 -11734,-619zm-2380 1970c-5372,0 -9953,257 -11734,619 1781,361 6362,618 11734,618 5371,0 9953,-257 11734,-618 -1781,-362 -6363,-619 -11734,-619zm21421 -17732c-5372,0 -9953,257 -11734,618 1781,362 6362,620 11734,620 5371,0 9953,-258 11734,-620 -1781,-361 -6363,-618 -11734,-618zm-2380 1970c-5372,0 -9953,257 -11734,618 1781,362 6362,620 11734,620 5371,0 9953,-258 11734,-620 -1781,-361 -6363,-618 -11734,-618zm-2380 1971c-5372,0 -9953,257 -11734,618 1781,361 6362,619 11734,619 5371,0 9953,-258 11733,-619 -1780,-361 -6362,-618 -11733,-618zm-2381 1969c-5371,0 -9953,257 -11734,619 1781,362 6363,619 11734,619 5371,0 9953,-257 11734,-619 -1781,-362 -6363,-619 -11734,-619zm-2380 1970c-5371,0 -9953,258 -11734,619 1781,362 6363,619 11734,619 5371,0 9953,-257 11734,-619 -1781,-361 -6363,-619 -11734,-619zm-2380 1971c-5371,0 -9953,257 -11734,619 1781,362 6363,619 11734,619 5371,0 9953,-257 11734,-619 -1781,-362 -6363,-619 -11734,-619zm-2380 1970c-5371,0 -9953,257 -11734,619 1781,362 6363,619 11734,619 5371,0 9953,-257 11734,-619 -1781,-362 -6363,-619 -11734,-619zm-2380 1970c-5372,0 -9953,257 -11734,619 1781,362 6362,619 11734,619 5371,0 9953,-257 11734,-619 -1781,-362 -6363,-619 -11734,-619zm-12329 -13791c-5371,0 -9952,257 -11733,618 1781,362 6362,620 11733,620 5371,0 9953,-258 11734,-620 -1781,-361 -6363,-618 -11734,-618zm-2380 1970c-5371,0 -9953,257 -11734,618 1781,362 6363,620 11734,620 5371,0 9953,-258 11734,-620 -1781,-361 -6363,-618 -11734,-618zm99297 59783c-5371,0 -9952,257 -11733,619 1781,361 6362,620 11733,620 5372,0 9953,-259 11734,-620 -1781,-362 -6362,-619 -11734,-619zm-2379 1970c-5372,0 -9953,258 -11734,619 1781,361 6362,619 11734,619 5371,0 9952,-258 11733,-619 -1781,-361 -6362,-619 -11733,-619zm14280 -11821c-5371,0 -9953,257 -11734,619 1781,362 6363,619 11734,619 5371,0 9952,-257 11733,-619 -1781,-362 -6362,-619 -11733,-619zm-2380 1970c-5371,0 -9953,258 -11734,619 1781,362 6363,619 11734,619 5371,0 9952,-257 11733,-619 -1781,-361 -6362,-619 -11733,-619zm-2380 1970c-5371,0 -9953,257 -11734,619 1781,362 6363,619 11734,619 5371,0 9953,-257 11734,-619 -1781,-362 -6363,-619 -11734,-619zm-2380 1971c-5371,0 -9953,257 -11734,619 1781,360 6363,619 11734,619 5371,0 9953,-259 11734,-619 -1781,-362 -6363,-619 -11734,-619zm-2381 1970c-5371,0 -9952,257 -11733,619 1781,361 6362,619 11733,619 5372,0 9954,-258 11735,-619 -1781,-362 -6363,-619 -11735,-619zm-31369 1970c-5371,0 -9953,257 -11734,619 1781,361 6363,620 11734,620 5371,0 9953,-259 11734,-620 -1781,-362 -6363,-619 -11734,-619zm-2380 1970c-5371,0 -9953,258 -11734,619 1781,361 6363,619 11734,619 5371,0 9953,-258 11734,-619 -1781,-361 -6363,-619 -11734,-619zm21421 -17731c-5371,0 -9953,256 -11734,618 1781,362 6363,620 11734,620 5371,0 9952,-258 11733,-620 -1781,-362 -6362,-618 -11733,-618zm-2380 1970c-5371,0 -9953,256 -11734,618 1781,362 6363,619 11734,619 5371,0 9952,-257 11733,-619 -1781,-362 -6362,-618 -11733,-618zm-2380 1970c-5371,0 -9953,257 -11734,618 1781,362 6363,619 11734,619 5371,0 9952,-257 11733,-619 -1781,-361 -6362,-618 -11733,-618zm-2381 1970c-5371,0 -9952,257 -11733,619 1781,362 6362,619 11733,619 5372,0 9953,-257 11734,-619 -1781,-362 -6362,-619 -11734,-619zm-2380 1970c-5371,0 -9952,258 -11733,619 1781,362 6362,619 11733,619 5372,0 9953,-257 11734,-619 -1781,-361 -6362,-619 -11734,-619zm-2380 1970c-5371,0 -9952,257 -11733,619 1781,362 6362,619 11733,619 5372,0 9953,-257 11734,-619 -1781,-362 -6362,-619 -11734,-619zm-2380 1971c-5371,0 -9952,257 -11733,619 1781,360 6362,619 11733,619 5372,0 9953,-259 11734,-619 -1781,-362 -6362,-619 -11734,-619zm-2380 1970c-5371,0 -9953,257 -11734,619 1781,361 6363,619 11734,619 5371,0 9953,-258 11734,-619 -1781,-362 -6363,-619 -11734,-619zm-31370 1970c-5370,0 -9952,257 -11733,619 1781,361 6363,620 11733,620 5371,0 9953,-259 11734,-620 -1781,-362 -6363,-619 -11734,-619zm-2380 1970c-5370,0 -9952,258 -11733,619 1781,361 6363,619 11733,619 5371,0 9953,-258 11734,-619 -1781,-361 -6363,-619 -11734,-619zm21421 -17731c-5371,0 -9953,256 -11734,618 1781,362 6363,620 11734,620 5372,0 9953,-258 11734,-620 -1781,-362 -6362,-618 -11734,-618zm-2380 1970c-5371,0 -9953,256 -11734,618 1781,362 6363,619 11734,619 5371,0 9953,-257 11734,-619 -1781,-362 -6363,-618 -11734,-618zm-2380 1970c-5371,0 -9953,257 -11734,618 1781,362 6363,619 11734,619 5371,0 9953,-257 11734,-619 -1781,-361 -6363,-618 -11734,-618zm-2380 1970c-5372,0 -9953,257 -11734,619 1781,362 6362,619 11734,619 5371,0 9953,-257 11734,-619 -1781,-362 -6363,-619 -11734,-619zm-2380 1970c-5372,0 -9953,258 -11734,619 1781,362 6362,619 11734,619 5371,0 9953,-257 11734,-619 -1781,-361 -6363,-619 -11734,-619zm-2380 1970c-5372,0 -9953,257 -11734,619 1781,362 6362,619 11734,619 5371,0 9953,-257 11734,-619 -1781,-362 -6363,-619 -11734,-619zm-2380 1971c-5371,0 -9953,257 -11734,619 1781,360 6363,619 11734,619 5371,0 9953,-259 11734,-619 -1781,-362 -6363,-619 -11734,-619zm-2380 1970c-5371,0 -9953,257 -11734,619 1781,361 6363,619 11734,619 5370,0 9952,-258 11733,-619 -1781,-362 -6363,-619 -11733,-619zm-31370 1970c-5372,0 -9953,257 -11734,619 1781,361 6362,620 11734,620 5371,0 9953,-259 11734,-620 -1781,-362 -6363,-619 -11734,-619zm-2380 1970c-5372,0 -9953,258 -11734,619 1781,361 6362,619 11734,619 5371,0 9953,-258 11734,-619 -1781,-361 -6363,-619 -11734,-619zm21421 -17731c-5372,0 -9953,256 -11734,618 1781,362 6362,620 11734,620 5371,0 9953,-258 11734,-620 -1781,-362 -6363,-618 -11734,-618zm-2380 1970c-5372,0 -9953,256 -11734,618 1781,362 6362,619 11734,619 5371,0 9953,-257 11734,-619 -1781,-362 -6363,-618 -11734,-618zm-2380 1970c-5372,0 -9953,257 -11734,618 1781,362 6362,619 11734,619 5371,0 9953,-257 11733,-619 -1780,-361 -6362,-618 -11733,-618zm-2381 1970c-5371,0 -9953,257 -11734,619 1781,362 6363,619 11734,619 5371,0 9953,-257 11734,-619 -1781,-362 -6363,-619 -11734,-619zm-2380 1970c-5371,0 -9953,258 -11734,619 1781,362 6363,619 11734,619 5371,0 9953,-257 11734,-619 -1781,-361 -6363,-619 -11734,-619zm-2380 1970c-5371,0 -9953,257 -11734,619 1781,362 6363,619 11734,619 5371,0 9953,-257 11734,-619 -1781,-362 -6363,-619 -11734,-619zm-2380 1971c-5371,0 -9953,257 -11734,619 1781,360 6363,619 11734,619 5371,0 9953,-259 11734,-619 -1781,-362 -6363,-619 -11734,-619zm-2380 1970c-5372,0 -9953,257 -11734,619 1781,361 6362,619 11734,619 5371,0 9953,-258 11734,-619 -1781,-362 -6363,-619 -11734,-619zm-12329 -13791c-5371,0 -9952,256 -11733,618 1781,362 6362,620 11733,620 5371,0 9953,-258 11734,-620 -1781,-362 -6363,-618 -11734,-618zm-2380 1970c-5371,0 -9953,256 -11734,618 1781,362 6363,619 11734,619 5371,0 9953,-257 11734,-619 -1781,-362 -6363,-618 -11734,-618zm-2380 1970c-5371,0 -9953,257 -11734,618 1781,362 6363,619 11734,619 5371,0 9953,-257 11734,-619 -1781,-361 -6363,-618 -11734,-618zm-2380 1970c-5371,0 -9953,257 -11734,619 1781,362 6363,619 11734,619 5371,0 9952,-257 11734,-619 -1782,-362 -6363,-619 -11734,-619zm-2381 1970c-5370,0 -9952,258 -11733,619 1781,362 6363,619 11733,619 5372,0 9954,-257 11734,-619 -1780,-361 -6362,-619 -11734,-619z"/>
  <path id="camisa_contorno" fill="none" d="M132380 286433c2381,-94 4477,-217 6790,-344 2314,-127 4844,-256 7995,-477 3150,-220 6920,-532 10132,-824 3212,-292 5866,-565 8511,-918 2644,-354 5278,-788 7407,-1210 2128,-422 3751,-831 5807,-1288 2058,-458 4549,-964 6383,-1279 1832,-314 3007,-438 4130,-519 1122,-81 2193,-120 3052,-113 860,8 1509,61 1893,91 384,31 502,37 591,42 48,2 88,4 123,6 91,-67 158,-175 172,-754 16,-652 -36,-1902 -103,-2696 -66,-793 -149,-1129 -276,-1795 -126,-667 -297,-1665 -630,-2599 -333,-935 -829,-1806 -1428,-2947 -599,-1141 -1300,-2553 -1726,-3499 -425,-947 -576,-1429 -820,-2607 -243,-1177 -579,-3051 -922,-5681 -343,-2631 -693,-6018 -1005,-8597 -311,-2580 -584,-4351 -1046,-7315 -462,-2964 -1114,-7120 -1655,-11150 -540,-4029 -968,-7932 -1304,-11831 -335,-3898 -579,-7791 -735,-11261 -155,-3470 -223,-6517 -277,-9471 -54,-2954 -92,-5815 -151,-8959 -58,-3144 -136,-6570 -105,-11649 32,-5078 173,-11809 341,-16902 168,-5093 363,-8548 631,-12393 267,-3845 608,-8079 943,-11875 336,-3796 667,-7154 1086,-11364 418,-4209 925,-9271 1436,-13539 511,-4268 1026,-7743 1462,-10276 436,-2533 791,-4124 1102,-5137 312,-1012 579,-1445 778,-1708 198,-263 327,-355 392,-401 64,-47 64,-47 47,579 -17,625 -51,1876 -105,3419 -53,1542 -126,3377 -166,4807 -40,1429 -48,2454 -77,3083 -29,629 -80,862 -99,978 -18,116 -3,113 -40,146 -36,33 -124,101 -129,658 -5,557 73,1604 186,2953 114,1350 262,3002 312,4631 50,1629 1,3235 2,4094 0,859 50,971 128,1044 77,73 181,107 969,58 787,-50 2257,-182 3972,-314 1716,-132 3677,-263 5762,-417 2086,-153 4295,-328 6376,-448 2080,-119 4032,-182 5799,-289 1766,-107 3348,-258 5163,-455 1815,-197 3864,-441 5821,-660 1956,-219 3820,-413 4944,-547 1125,-134 1509,-207 1701,-316 193,-110 193,-256 222,-877 29,-620 87,-1715 104,-3031 17,-1317 -7,-2855 -22,-4286 -14,-1430 -19,-2754 -36,-3603 -17,-850 -46,-1224 -70,-1423 -23,-197 -41,-219 -80,-284 -39,-66 -99,-175 -168,-659 -69,-484 -147,-1343 -247,-2246 -99,-903 -221,-1850 -337,-2650 -115,-801 -225,-1455 -399,-2463 -174,-1007 -412,-2367 -593,-3337 -182,-970 -306,-1549 -423,-2196 -116,-648 -226,-1363 -354,-2053 -127,-690 -273,-1354 -411,-2087 -137,-732 -266,-1533 -362,-2247 -97,-714 -160,-1342 -232,-1963 -71,-622 -152,-1238 -249,-1970 -98,-733 -212,-1582 -329,-2445 -116,-862 -236,-1738 -342,-2482 -105,-743 -198,-1354 -360,-2268 -163,-915 -395,-2132 -793,-3953 -399,-1821 -964,-4245 -1650,-6668 -686,-2424 -1494,-4848 -2565,-7495 -1070,-2648 -2404,-5519 -3961,-8566 -1558,-3046 -3339,-6268 -4721,-8497 -1382,-2229 -2365,-3465 -3341,-4480 -976,-1015 -1944,-1808 -2917,-2524 -974,-715 -1952,-1352 -2500,-1715 -547,-363 -664,-450 -731,-552 -67,-103 -84,-219 -92,-293 -9,-75 -9,-106 -67,-170 -59,-63 -175,-158 -1266,-691 -1090,-533 -3153,-1504 -5138,-2518 -1984,-1015 -3889,-2073 -5584,-2880 -1695,-807 -3179,-1361 -4897,-1894 -1718,-533 -3670,-1044 -5254,-1458 -1584,-414 -2801,-730 -3640,-976 -840,-246 -1302,-421 -1979,-677 -676,-257 -1567,-595 -2522,-880 -955,-285 -1975,-516 -2628,-665 -653,-148 -940,-214 -1393,-456 -452,-242 -1070,-660 -1531,-906 -459,-246 -761,-319 -1037,-353 -277,-34 -527,-29 -752,-29 -226,0 -425,-5 -1300,-320 -875,-315 -2425,-941 -3896,-1526 -1471,-585 -2863,-1130 -4262,-1691 -1399,-561 -2805,-1138 -3692,-1518 -887,-381 -1255,-566 -1543,-754 -288,-189 -497,-380 -682,-482 -185,-101 -345,-112 -451,-112 -107,-1 -160,9 -243,-5 -84,-13 -198,-50 -568,-282 -370,-232 -995,-661 -1624,-1155 -629,-493 -1262,-1053 -1894,-1607 -631,-553 -1261,-1101 -2236,-1518 -974,-417 -2293,-704 -3602,-890 -1309,-185 -2609,-267 -4429,-343 -1820,-75 -4161,-143 -7675,-126 -3514,17 -8200,119 -12497,212 -4296,93 -8201,177 -10255,224 -2054,46 -2257,55 -4018,196 -1761,141 -5080,413 -7165,649 -2086,236 -2937,436 -3631,684 -693,248 -1229,545 -1825,1044 -596,499 -1253,1200 -1954,1816 -701,617 -1445,1150 -1889,1413 -444,263 -588,256 -873,354 -284,99 -710,303 -1226,563 -516,261 -1122,577 -1858,892 -736,315 -1603,629 -2227,875 -624,246 -1006,423 -1465,608 -458,185 -994,378 -1708,601 -714,224 -1607,480 -2475,809 -867,330 -1709,734 -2490,1041 -781,306 -1502,516 -2224,725 -723,209 -1448,418 -1987,634 -539,215 -892,437 -1168,615 -276,179 -476,316 -968,461 -491,145 -1275,300 -1851,448 -577,149 -947,291 -1440,476 -494,186 -1110,415 -1694,597 -583,183 -1133,319 -1633,445 -499,125 -948,239 -1644,412 -696,173 -1639,404 -2469,612 -829,209 -1546,395 -2101,552 -555,156 -948,283 -1390,412 -441,130 -931,262 -1381,387 -449,125 -858,242 -1269,365 -411,124 -823,254 -1164,386 -342,133 -612,268 -980,423 -368,154 -834,328 -1237,513 -404,185 -744,381 -1128,583 -384,202 -811,410 -1181,597 -370,188 -682,354 -1090,569 -408,216 -910,480 -1604,838 -693,359 -1578,811 -2606,1326 -1029,515 -2202,1091 -3078,1524 -876,434 -1455,723 -1971,1053 -516,329 -969,699 -1397,1045 -428,346 -832,667 -1309,1044 -477,377 -1027,810 -1721,1427 -695,617 -1535,1418 -2299,2256 -764,838 -1453,1714 -2076,2579 -622,865 -1180,1719 -1861,2840 -681,1120 -1487,2507 -2137,3698 -649,1189 -1143,2182 -1676,3158 -533,976 -1105,1935 -1592,2847 -486,913 -888,1779 -1270,2671 -382,891 -745,1809 -1114,2667 -370,858 -747,1656 -1244,2944 -496,1289 -1112,3067 -1661,4753 -548,1685 -1030,3276 -1441,4680 -412,1404 -752,2621 -1093,4088 -341,1467 -682,3185 -1107,5485 -426,2299 -937,5180 -1249,6845 -311,1664 -423,2112 -525,2586 -102,475 -195,976 -387,1775 -192,798 -484,1893 -781,3041 -297,1149 -599,2351 -813,3366 -214,1014 -340,1842 -557,3063 -216,1222 -523,2837 -761,4159 -239,1321 -409,2348 -512,2878 -102,531 -136,565 -197,614 -62,48 -150,112 -243,2173 -94,2062 -191,6122 -266,8344 -76,2223 -129,2607 34,2809 163,202 542,221 1372,326 830,105 2110,295 4366,730 2255,436 5487,1117 8069,1614 2581,496 4514,807 6533,1143 2020,336 4127,696 7006,1154 2879,457 6529,1012 8855,1328 2326,317 3329,394 3830,433 502,39 502,39 550,-525 48,-565 144,-1694 254,-2670 110,-977 234,-1800 381,-2842 148,-1043 318,-2303 482,-3461 165,-1159 323,-2215 404,-2808 82,-594 87,-725 73,-837 -13,-112 -45,-205 -22,-1760 23,-1555 101,-4572 143,-7023 41,-2450 46,-4333 57,-5420 11,-1086 28,-1376 64,-1566 37,-190 93,-280 171,-327 77,-47 177,-52 298,38 120,90 261,275 333,364 72,88 74,81 76,77 1,-3 1,-3 111,245 111,248 333,745 578,1416 246,672 516,1519 738,2426 221,908 394,1876 587,3432 194,1557 408,3701 715,6028 306,2328 705,4839 1421,11024 715,6186 1747,16046 2555,23721 808,7675 1392,13164 1752,19063 360,5898 496,12206 487,19019 -10,6813 -166,14133 -361,19944 -194,5810 -428,10113 -701,13958 -272,3844 -584,7231 -1401,13704 -818,6473 -2141,16031 -2910,23010 -769,6979 -983,11378 -1178,14775 -195,3397 -370,5792 -652,7860 -282,2068 -672,3811 -942,5144 -270,1334 -421,2258 -438,2840 -17,581 100,820 241,944 141,124 307,134 484,169 178,35 368,96 454,150 18,11 31,21 41,36 848,312 1695,624 3052,895 1357,271 3222,501 6284,730 3061,229 7317,456 10740,589 3423,133 6012,172 9283,175 3270,3 7222,-29 10963,-6 3741,22 7271,100 10250,185 2978,84 5405,175 7660,243 2255,68 4338,113 6570,165 2232,52 4614,111 7118,117 2505,7 5133,-39 7781,-94 2647,-55 5314,-120 7696,-214z"/>
 </g>
</svg>
