<?xml version="1.0" encoding="UTF-8"?>
<!DOCTYPE svg PUBLIC "-//W3C//DTD SVG 1.1//EN" "http://www.w3.org/Graphics/SVG/1.1/DTD/svg11.dtd">
<!-- Creator: CorelDRAW 2020 (64 Bit) -->
<svg xmlns="http://www.w3.org/2000/svg" xml:space="preserve" width="238px" height="298px" version="1.1" shape-rendering="geometricPrecision" text-rendering="geometricPrecision" image-rendering="optimizeQuality" fill-rule="evenodd" clip-rule="evenodd"
viewBox="0 0 238000 298123"
 xmlns:xlink="http://www.w3.org/1999/xlink"
 xmlns:xodm="http://www.corel.com/coreldraw/odm/2003">
 <g id="Camada_x0020_1">
  <metadata id="CorelCorpID_0Corel-Layer"/>
  <path id="camisa_contorno" fill="none" d="M207298 27894c-110,-63 -222,-122 -337,-177 -4975,-2380 -9714,-5334 -14858,-7149 -4647,-1639 -11454,-2699 -17288,-4719 -2277,-789 -4556,-1589 -6820,-2415l-4 -30 -9999 -4080 -175 -72c-614,-280 -1553,-1207 -2512,-1889 -494,-369 -613,-563 -1038,-905 -2856,-2299 -5606,-5635 -9574,-5641 -901,-2 -1040,-123 -1779,-163l-7601 -170c-5892,-486 -12055,-501 -18060,-477 -5087,20 -9557,63 -14567,477 -2529,209 -4996,29 -7600,170 -739,40 -878,161 -1779,163 -3968,6 -6718,3342 -9575,5641 -424,342 -543,536 -1037,905 -741,527 -1471,1200 -2047,1608 -170,121 -326,218 -465,281l-10174 4152 -3 30c-2265,826 -4544,1626 -6821,2415 -5834,2020 -12641,3080 -17288,4719 -5144,1815 -9883,4769 -14858,7149 -212,101 -412,215 -605,339 -909,583 -1664,1379 -2651,2001 -11263,7099 -18243,27467 -21401,39215 -1569,5839 -1980,12983 -2969,19040 -500,3067 -1172,6193 -1752,9253 -585,3095 -872,6493 -1288,9631 -406,268 -327,-23 -308,899l-65 1854 0 8783c41,1018 102,1813 186,2164 1125,477 3706,514 5070,712 7662,1114 9041,828 15791,1554l21547 1349c-15,-1623 547,-10725 578,-13424l-603 -316 -70 -36c0,-4476 -11,-9226 -11,-13700 1678,4247 3328,18944 3789,24023 735,8116 1826,16186 2512,24347 348,4137 874,8269 1009,12419l653 12776c396,4199 208,8934 274,13179 32,2062 194,4007 186,6130 -7,2226 -172,4349 -196,6512 -51,4469 -54,8634 -319,13111 -680,11475 -1257,26076 -3267,37020 -966,5407 -2177,11944 -2754,17389 -258,2432 -827,10057 -1468,11951 -680,2010 -163,3658 -568,5770 -342,1785 -742,3812 -1164,5568 -463,1930 -1435,3647 397,4966 4276,1054 8552,2108 13913,3017 5360,909 11804,1672 18030,2048 6226,375 12232,363 21568,476 9335,112 21999,351 32523,382 10525,32 18909,-144 26242,-419 7333,-275 13615,-650 19058,-1151 5443,-501 10048,-1126 13829,-1873 3780,-746 6736,-1613 9693,-2480 1832,-1319 860,-3036 397,-4966 -422,-1756 -822,-3783 -1164,-5568 -405,-2112 112,-3760 -568,-5770 -641,-1894 -1210,-9519 -1468,-11951 -577,-5445 -1788,-11982 -2754,-17389 -2010,-10944 -2587,-25545 -3267,-37020 -265,-4477 -268,-8642 -319,-13111 -24,-2163 -189,-4286 -196,-6512 -8,-2123 154,-4068 186,-6130 66,-4245 -122,-8980 274,-13179l653 -12776c135,-4150 661,-8282 1009,-12419 686,-8161 1777,-16231 2512,-24347 461,-5079 1889,-19043 3568,-23290 0,4474 -105,8584 -105,13060l0 0 -416 247c-4,882 338,12091 604,13423l21579 -1336c6750,-726 8129,-440 15791,-1554 1364,-198 3945,-235 5070,-712 84,-351 145,-1146 186,-2164l0 -8783 -65 -1854c14,-687 62,-700 -83,-774 -50,-25 -122,-57 -225,-125 -416,-3138 -703,-6536 -1288,-9631 -580,-3060 -1252,-6186 -1752,-9253 -989,-6057 -1400,-13201 -2969,-19040 -3158,-11748 -10138,-32116 -21401,-39215 -1057,-665 -1895,-1576 -2919,-2163z"/>
 </g>
</svg>
