<?xml version="1.0" encoding="utf-8"?>
<!-- Generator: Adobe Illustrator 16.0.3, SVG Export Plug-In . SVG Version: 6.00 Build 0)  -->
<!DOCTYPE svg PUBLIC "-//W3C//DTD SVG 1.1//EN" "http://www.w3.org/Graphics/SVG/1.1/DTD/svg11.dtd">
<svg version="1.1"
	 id="Layer_1" shape-rendering="geometricPrecision" text-rendering="geometricPrecision" image-rendering="optimizeQuality" xmlns:xodm="http://www.corel.com/coreldraw/odm/2003"
	 xmlns="http://www.w3.org/2000/svg" xmlns:xlink="http://www.w3.org/1999/xlink" x="0px" y="0px" width="181px" height="149px"
	 viewBox="0 0 181 149" enable-background="new 0 0 181 149" xml:space="preserve">
<linearGradient id="SVGID_1_" gradientUnits="userSpaceOnUse" x1="82.1616" y1="125.0381" x2="82.1616" y2="-23.9595" gradientTransform="matrix(1 0 0 -1 8.3398 125.04)">
	<stop  offset="0.3" style="stop-color:#F00808"/>
	<stop  offset="1" style="stop-color:#F00808;stop-opacity:0.3"/>
</linearGradient>
<path fill="url(#SVGID_1_)" d="M80.372,143.682c0.053-0.256,0.103-0.633,0.183-1.979c0.081-1.351,0.191-3.673,0.457-8.242
	c0.266-4.569,0.688-11.387,1.023-16.364c0.336-4.979,0.587-8.119,0.914-11.59c0.325-3.472,0.727-7.273,1.229-11.234
	c0.502-3.963,1.104-8.086,1.876-12.771c0.772-4.684,1.715-9.931,2.432-13.367c0.718-3.436,1.209-5.062,1.524-6.088
	c0.316-1.027,0.455-1.456,0.564-1.69c0.108-0.234,0.186-0.275,0.259-0.268c0.075,0.006,0.145,0.061,0.233,0.161
	c0.092,0.1,0.201,0.245,0.345,0.551c0.144,0.307,0.317,0.774,0.603,1.409c0.282,0.635,0.674,1.437,1.008,2.222
	c0.336,0.785,0.617,1.556,0.735,2.149c0.119,0.593,0.076,1.01,0.111,1.477c0.034,0.467,0.147,0.986,0.442,1.424
	c0.297,0.438,0.775,0.794,1.053,1.267c0.275,0.473,0.349,1.062,0.529,1.898c0.181,0.837,0.467,1.92,0.566,2.738
	c0.1,0.816,0.009,1.369-0.086,1.891c-0.094,0.521-0.189,1.01-0.088,1.498c0.104,0.49,0.406,0.982,0.762,1.438
	c0.354,0.457,0.762,0.878,1.01,1.155c0.25,0.277,0.344,0.408,0.433,0.535c0.088,0.125,0.174,0.244,0.309,0.772
	c0.134,0.531,0.316,1.476,0.386,2.128c0.069,0.655,0.024,1.021-0.002,1.387c-0.025,0.364-0.033,0.729-0.063,1.19
	c-0.029,0.463-0.082,1.024-0.075,1.54c0.008,0.516,0.075,0.984,0.405,1.682c0.329,0.695,0.922,1.618,1.481,2.363
	c0.562,0.747,1.09,1.316,1.444,1.676c0.354,0.356,0.538,0.504,0.701,0.764c0.164,0.261,0.312,0.635,0.43,1.111
	c0.12,0.479,0.218,1.061,0.269,1.734s0.059,1.441,0.047,2.294c-0.01,0.853-0.041,1.786,0.133,2.638
	c0.173,0.854,0.549,1.618,0.969,2.268c0.418,0.648,0.879,1.178,1.223,1.607c0.342,0.428,0.565,0.756,0.752,1.08
	c0.188,0.323,0.338,0.643,0.488,1.016c0.15,0.375,0.301,0.804,0.415,1.301c0.114,0.498,0.191,1.064,0.298,1.579
	c0.107,0.515,0.242,0.976,0.33,1.495c0.088,0.519,0.127,1.096,0.281,1.938c0.152,0.844,0.418,1.951,0.598,2.878
	c0.178,0.931,0.269,1.677,0.365,2.339c0.098,0.662,0.203,1.239,0.285,2.01c0.083,0.77,0.145,1.732,0.26,2.438
	c0.114,0.708,0.285,1.16,0.408,1.839c0.123,0.68,0.197,1.588,0.264,2.122c0.064,0.535,0.119,0.694,0.252,0.838
	s0.344,0.269,0.627,0.408c0.285,0.142,0.641,0.297,1.004,0.531c0.363,0.235,0.735,0.552,1.162,0.915
	c0.426,0.361,0.907,0.771,1.428,1.098c0.521,0.325,1.08,0.569,1.611,0.755c0.531,0.188,1.035,0.317,1.592,0.459
	c0.556,0.144,1.162,0.296,1.982,0.438c0.819,0.142,1.854,0.275,2.648,0.365c0.794,0.094,1.352,0.144,2.494,0.162
	c1.142,0.02,2.869,0.006,4.188-0.029c1.318-0.037,2.227-0.098,3.383-0.198s2.561-0.24,4.203-0.414s3.523-0.383,5.102-0.528
	c1.576-0.146,2.853-0.232,4.16-0.306c1.311-0.071,2.653-0.133,3.82-0.166c1.168-0.032,2.158-0.037,4.202-0.069
	c2.042-0.035,5.137-0.099,7.196-0.158c2.059-0.063,3.082-0.123,4.611-0.31c1.53-0.187,3.566-0.496,4.824-0.713
	c1.26-0.22,1.737-0.346,2.064-0.479c0.326-0.136,0.502-0.279,0.642-0.373c0.142-0.094,0.246-0.138,0.529-0.238
	c0.282-0.102,0.743-0.262,1.28-0.445c0.533-0.186,1.145-0.393,1.623-0.6c0.48-0.205,0.832-0.408,1.06-0.537s0.33-0.186,0.496-0.195
	c0.168-0.009,0.397,0.026,0.59-0.021c0.192-0.045,0.347-0.172,0.55-0.364c0.204-0.192,0.46-0.448,0.563-0.843
	c0.104-0.393,0.054-0.926,0.059-2.266c0.006-1.344,0.064-3.494,0.046-5.891c-0.021-2.395-0.12-5.033-0.171-6.643
	c-0.05-1.61-0.05-2.192-0.05-3.016c0-0.822,0-1.886-0.024-2.882c-0.025-0.996-0.076-1.924-0.099-2.885
	c-0.022-0.96-0.019-1.953-0.08-3.525c-0.063-1.573-0.192-3.725-0.263-5.465s-0.081-3.069-0.204-6.606
	c-0.122-3.535-0.358-9.278-0.817-14.95c-0.459-5.671-1.142-11.269-2.004-16.585c-0.861-5.317-1.906-10.354-2.939-15.139
	c-1.032-4.785-2.057-9.32-3.399-13.954c-1.345-4.634-3.011-9.37-4.615-13.634c-1.604-4.263-3.149-8.055-4.063-10.253
	c-0.912-2.198-1.192-2.803-1.313-3.193c-0.118-0.392-0.08-0.57,0.009-0.707c0.09-0.136,0.229-0.232,0.34-0.307
	c0.012-0.008,0.024-0.017,0.035-0.026c-0.035-0.002-0.076-0.003-0.125-0.006c-0.093-0.006-0.215-0.012-0.611-0.042
	c-0.396-0.032-1.063-0.087-1.949-0.094s-1.99,0.033-3.146,0.116s-2.367,0.211-4.256,0.535c-1.891,0.324-4.459,0.846-6.578,1.318
	c-2.121,0.471-3.793,0.893-5.984,1.328c-2.194,0.434-4.909,0.882-7.635,1.247c-2.727,0.364-5.463,0.645-8.771,0.946
	c-3.311,0.301-7.195,0.623-10.441,0.85c-3.248,0.227-5.855,0.361-8.24,0.491s-4.545,0.257-7,0.355
	c-2.453,0.097-5.202,0.164-7.931,0.22c-2.729,0.057-5.438,0.104-8.019,0.098C77.951,7.5,75.496,7.44,73.196,7.386
	c-2.301-0.054-4.448-0.1-6.772-0.17c-2.323-0.071-4.825-0.165-7.894-0.251c-3.07-0.087-6.708-0.167-10.564-0.19
	c-3.855-0.024-7.928,0.01-11.299,0.006C33.296,6.778,30.627,6.738,27.1,6.6c-3.528-0.137-7.915-0.371-11.07-0.607
	c-3.154-0.236-5.078-0.473-6.476-0.752c-1.398-0.28-2.272-0.602-3.146-0.923c0.039,0.056,0.019,0.165-0.024,0.549
	C6.322,5.35,6.232,6.27,5.981,7.963c-0.25,1.693-0.663,4.159-0.93,5.963c-0.269,1.805-0.394,2.948-0.695,4.831
	c-0.301,1.885-0.778,4.508-1.161,6.82c-0.383,2.312-0.675,4.313-0.905,6c-0.231,1.688-0.402,3.063-0.56,4.658
	c-0.158,1.595-0.303,3.41-0.461,5.608c-0.158,2.197-0.329,4.775-0.5,7.654c-0.17,2.879-0.341,6.059-0.465,9.45
	c-0.126,3.391-0.206,6.992-0.181,10.679s0.156,7.458,0.412,11.125c0.256,3.666,0.636,7.228,0.888,10.429
	c0.25,3.199,0.37,6.038,0.426,9.18c0.055,3.139,0.045,6.58,0.08,10.527c0.035,3.947,0.116,8.401,0.196,12.118
	c0.081,3.718,0.16,6.695,0.235,8.748c0.074,2.052,0.141,3.174,0.169,3.849c0.028,0.672,0.015,0.893,0.024,1.961
	c0.008,1.067,0.039,2.983,0.068,4.352c0.031,1.366,0.061,2.184,0.121,2.67c0.06,0.487,0.151,0.643,0.424,0.93
	c0.273,0.285,0.729,0.701,2.315,1.035c1.584,0.333,4.298,0.584,6.886,0.807c2.588,0.225,5.051,0.42,9.229,0.644
	c4.178,0.224,10.073,0.474,14.426,0.662c4.354,0.188,7.167,0.313,9.636,0.335c2.467,0.023,4.589-0.059,6.733-0.124
	c2.145-0.067,4.313-0.123,6.379-0.19c2.066-0.068,4.033-0.148,6.804-0.496c2.771-0.35,6.347-0.968,8.582-1.424
	c2.235-0.455,3.128-0.752,3.913-1.15c0.784-0.397,1.461-0.899,1.828-1.219C80.263,144.072,80.319,143.938,80.372,143.682z"/>
</svg>
