<?xml version="1.0" encoding="UTF-8"?>
<!DOCTYPE svg PUBLIC "-//W3C//DTD SVG 1.1//EN" "http://www.w3.org/Graphics/SVG/1.1/DTD/svg11.dtd">
<!-- Creator: CorelDRAW -->
<svg xmlns="http://www.w3.org/2000/svg" xml:space="preserve" width="187px" height="148px" version="1.1" shape-rendering="geometricPrecision" text-rendering="geometricPrecision" image-rendering="optimizeQuality" fill-rule="evenodd" clip-rule="evenodd"
viewBox="0 0 186.999 147.486"
 xmlns:xlink="http://www.w3.org/1999/xlink"
 xmlns:xodm="http://www.corel.com/coreldraw/odm/2003">
 <defs>
   <clipPath id="id0">
    <path d="M69.622 5.532c-9.32,-0.113 -15.317,-0.1 -21.532,-0.475 -6.215,-0.375 -12.649,-1.137 -18.001,-2.044 -5.351,-0.908 -9.62,-1.96 -13.89,-3.013l-2.056 6.766c-2.101,6.05 -3.233,10.386 -4.916,16.285 -0.249,0.873 -0.435,1.453 -0.642,2.333 -2.36,10.025 -4.55,19.989 -6.162,30.214 -0.554,3.516 -0.787,7.435 -1.226,10.942l-0.435 5.757c-0.045,1.83 -0.234,3.899 -0.37,5.626 -0.078,0.987 0.009,2.192 -0.003,3.205 -0.013,1.158 -0.208,1.511 -0.203,2.794 0.009,2.038 0.069,4.202 0.011,6.226 -0.028,1.013 -0.181,1.575 -0.197,2.723l0.192 9.099c-0.03,8.303 0.172,15.985 0.183,24.267 0.002,1.267 0.207,1.666 0.202,2.996 -0.004,0.925 -0.065,2.104 0.005,3.001 0.131,1.645 0.218,4.048 0.519,5.469 1.056,4.985 5.703,6.849 10.073,7.859 3.312,0.766 6.714,1.111 10.138,1.576 4.01,0.545 19.376,0.399 23.493,-0.086 6.45,-0.761 15.507,-0.276 22.162,-1.971 7.272,-1.853 6.398,-2.822 7.435,-7.425 0.87,-3.869 2.219,-13.998 3.169,-16.919 0.807,-2.484 1.721,-7.868 2.195,-10.524 0.344,-1.99 1.133,-3.678 1.718,-5.612 1.344,-4.441 1.694,-7.626 2.92,-12.169 0.377,-1.398 0.722,-2.38 1.102,-3.854 0.997,-3.864 2.19,-8.249 2.968,-12.117 0.575,-2.856 1.095,-5.36 1.653,-8.289l2.191 -12.734c0.189,-0.998 0.23,-2.248 1.182,-2.596 0.952,0.348 0.993,1.598 1.182,2.596l2.191 12.734c0.558,2.929 1.077,5.433 1.652,8.289 0.779,3.868 1.972,8.253 2.968,12.117 0.38,1.474 0.725,2.456 1.103,3.854 1.226,4.543 1.576,7.728 2.919,12.169 0.585,1.934 1.375,3.622 1.719,5.612 0.473,2.654 1.389,8.042 2.195,10.524 0.949,2.921 2.299,13.05 3.169,16.919 1.037,4.603 0.163,5.572 7.434,7.425 6.656,1.695 15.712,1.21 22.163,1.971 4.117,0.485 19.483,0.631 23.492,0.086 3.425,-0.465 6.827,-0.81 10.138,-1.576 4.371,-1.01 9.018,-2.874 10.074,-7.859 0.301,-1.421 0.388,-3.824 0.519,-5.469 0.07,-0.897 0.009,-2.076 0.005,-3.001 -0.005,-1.33 0.2,-1.729 0.202,-2.996 0.011,-8.282 0.213,-15.964 0.183,-24.267l0.191 -8.764 -0.196 -3.058c-0.058,-2.024 0.002,-4.188 0.011,-6.226 0.004,-1.283 -0.19,-1.636 -0.204,-2.794 -0.011,-1.013 0.076,-2.218 -0.002,-3.205 -0.136,-1.727 -0.325,-3.796 -0.37,-5.626l-0.436 -5.757c-0.439,-3.507 -0.671,-7.426 -1.225,-10.942 -1.612,-10.225 -3.802,-20.189 -6.162,-30.214 -0.207,-0.88 -0.394,-1.46 -0.643,-2.333 -1.682,-5.899 -2.814,-10.235 -4.915,-16.285l-2.057 -6.766c-2.951,0.866 -5.902,1.731 -9.677,2.477 -3.774,0.745 -8.371,1.369 -13.806,1.869 -5.434,0.5 -11.706,0.875 -19.026,1.15 -7.321,0.274 -15.692,0.449 -26.199,0.418 -10.507,-0.031 -23.15,-0.269 -32.47,-0.382z"/>
   </clipPath>
    <clipPath id="id1">
     <path d="M69.622 5.532c-9.32,-0.113 -15.317,-0.1 -21.532,-0.475 -6.215,-0.375 -12.649,-1.137 -18.001,-2.044 -5.351,-0.908 -9.62,-1.96 -13.89,-3.013l-2.056 6.766c-2.101,6.05 -3.233,10.386 -4.916,16.285 -0.249,0.873 -0.435,1.453 -0.642,2.333 -2.36,10.025 -4.55,19.989 -6.162,30.214 -0.554,3.516 -0.787,7.435 -1.226,10.942l-0.435 5.757c-0.045,1.83 -0.234,3.899 -0.37,5.626 -0.078,0.987 0.009,2.192 -0.003,3.205 -0.013,1.158 -0.208,1.511 -0.203,2.794 0.009,2.038 0.069,4.202 0.011,6.226 -0.028,1.013 -0.181,1.575 -0.197,2.723l0.192 9.099c-0.03,8.303 0.172,15.985 0.183,24.267 0.002,1.267 0.207,1.666 0.202,2.996 -0.004,0.925 -0.065,2.104 0.005,3.001 0.131,1.645 0.218,4.048 0.519,5.469 1.056,4.985 5.703,6.849 10.073,7.859 3.312,0.766 6.714,1.111 10.138,1.576 4.01,0.545 19.376,0.399 23.493,-0.086 6.45,-0.761 15.507,-0.276 22.162,-1.971 7.272,-1.853 6.398,-2.822 7.435,-7.425 0.87,-3.869 2.219,-13.998 3.169,-16.919 0.807,-2.484 1.721,-7.868 2.195,-10.524 0.344,-1.99 1.133,-3.678 1.718,-5.612 1.344,-4.441 1.694,-7.626 2.92,-12.169 0.377,-1.398 0.722,-2.38 1.102,-3.854 0.997,-3.864 2.19,-8.249 2.968,-12.117 0.575,-2.856 1.095,-5.36 1.653,-8.289l2.191 -12.734c0.189,-0.998 0.23,-2.248 1.182,-2.596 0,-15.663 0,-31.326 0,-46.989l-1.415 -0.015 -0.288 -0.004 -0.504 -0.005 -0.132 -0.002 -3.306 -0.041 -0.515 -0.007 -2.349 -0.031 -0.409 -0.006 -0.104 -0.001 -0.906 -0.013 -0.54 -0.008 -0.439 -0.006 -0.04 -0.001 -0.639 -0.009 -0.309 -0.004 -0.507 -0.008 -0.448 -0.006 -0.023 -0.001 -0.521 -0.007 -0.23 -0.004 -1.099 -0.016 -0.133 -0.002 -2.031 -0.029 -0.158 -0.002 -0.514 -0.008 -0.306 -0.004 -1.22 -0.017 -0.056 -0.001 -0.433 -0.006 -0.55 -0.008 -0.216 -0.003 -0.465 -0.006 -0.408 -0.006 -0.805 -0.01 -0.458 -0.006 -0.103 -0.002 -0.641 -0.008 -0.658 -0.008z"/>
    </clipPath>
    <clipPath id="id2">
     <path d="M69.622 5.532c-9.32,-0.113 -15.317,-0.1 -21.532,-0.475 -6.215,-0.375 -12.649,-1.137 -18.001,-2.044 -5.351,-0.908 -9.62,-1.96 -13.89,-3.013l-2.056 6.766c-2.101,6.05 -3.233,10.386 -4.916,16.285 -0.249,0.873 -0.435,1.453 -0.642,2.333 -2.36,10.025 -4.55,19.989 -6.162,30.214 -0.554,3.516 -0.787,7.435 -1.226,10.942l-0.435 5.757c-0.045,1.83 -0.234,3.899 -0.37,5.626 -0.078,0.987 0.009,2.192 -0.003,3.205 -0.013,1.158 -0.208,1.511 -0.203,2.794 0.009,2.038 0.069,4.202 0.011,6.226 -0.028,1.013 -0.181,1.575 -0.197,2.723l0.192 9.099c-0.03,8.303 0.172,15.985 0.183,24.267 0.002,1.267 0.207,1.666 0.202,2.996 -0.004,0.925 -0.065,2.104 0.005,3.001 0.131,1.645 0.218,4.048 0.519,5.469 1.056,4.985 5.703,6.849 10.073,7.859 3.312,0.766 6.714,1.111 10.138,1.576 4.01,0.545 19.376,0.399 23.493,-0.086 6.45,-0.761 15.507,-0.276 22.162,-1.971 7.272,-1.853 6.398,-2.822 7.435,-7.425 0.87,-3.869 2.219,-13.998 3.169,-16.919 0.807,-2.484 1.721,-7.868 2.195,-10.524 0.344,-1.99 1.133,-3.678 1.718,-5.612 1.344,-4.441 1.694,-7.626 2.92,-12.169 0.377,-1.398 0.722,-2.38 1.102,-3.854 0.997,-3.864 2.19,-8.249 2.968,-12.117 0.575,-2.856 1.095,-5.36 1.653,-8.289l2.191 -12.734c0.189,-0.998 0.23,-2.248 1.182,-2.596 0.952,0.348 0.993,1.598 1.182,2.596l2.191 12.734c0.558,2.929 1.077,5.433 1.652,8.289 0.779,3.868 1.972,8.253 2.968,12.117 0.38,1.474 0.725,2.456 1.103,3.854 1.226,4.543 1.576,7.728 2.919,12.169 0.585,1.934 1.375,3.622 1.719,5.612 0.473,2.654 1.389,8.042 2.195,10.524 0.949,2.921 2.299,13.05 3.169,16.919 1.037,4.603 0.163,5.572 7.434,7.425 6.656,1.695 15.712,1.21 22.163,1.971 4.117,0.485 19.483,0.631 23.492,0.086 3.425,-0.465 6.827,-0.81 10.138,-1.576 4.371,-1.01 9.018,-2.874 10.074,-7.859 0.301,-1.421 0.388,-3.824 0.519,-5.469 0.07,-0.897 0.009,-2.076 0.005,-3.001 -0.005,-1.33 0.2,-1.729 0.202,-2.996 0.011,-8.282 0.213,-15.964 0.183,-24.267l0.191 -8.764 -0.196 -3.058c-0.058,-2.024 0.002,-4.188 0.011,-6.226 0.004,-1.283 -0.19,-1.636 -0.204,-2.794 -0.011,-1.013 0.076,-2.218 -0.002,-3.205 -0.136,-1.727 -0.325,-3.796 -0.37,-5.626l-0.436 -5.757c-0.439,-3.507 -0.671,-7.426 -1.225,-10.942 -1.612,-10.225 -3.802,-20.189 -6.162,-30.214 -0.207,-0.88 -0.394,-1.46 -0.643,-2.333 -1.682,-5.899 -2.814,-10.235 -4.915,-16.285l-2.057 -6.766c-2.951,0.866 -5.902,1.731 -9.677,2.477 -3.774,0.745 -8.371,1.369 -13.806,1.869 -5.434,0.5 -11.706,0.875 -19.026,1.15 -7.321,0.274 -15.692,0.449 -26.199,0.418 -10.507,-0.031 -23.15,-0.269 -32.47,-0.382z"/>
    </clipPath>
    <clipPath id="id3">
     <path d="M128.291 5.496c-7.321,0.274 -15.692,0.449 -26.199,0.418l-1.616 -0.006 -0.217 -0.001 -0.215 -0.001 -0.066 -0.001 -0.625 -0.003 -0.854 -0.006 -1.14 -0.008 -0.045 0 -0.617 -0.005 -0.252 -0.002 -0.921 -0.008 -0.253 -0.003 -0.219 -0.002 -0.286 -0.002 -0.091 -0.001 -0.283 -0.003 -0.892 -0.009c0,15.663 0,31.326 0,46.989 0.952,0.348 0.993,1.598 1.182,2.596l2.191 12.734c0.558,2.929 1.077,5.433 1.652,8.289 0.779,3.868 1.972,8.253 2.968,12.117 0.38,1.474 0.725,2.456 1.103,3.854 1.226,4.543 1.576,7.728 2.919,12.169 0.585,1.934 1.375,3.622 1.719,5.612 0.473,2.654 1.389,8.042 2.195,10.524 0.949,2.921 2.299,13.05 3.169,16.919 1.037,4.603 0.163,5.572 7.434,7.425 6.656,1.695 15.712,1.21 22.163,1.971 4.117,0.485 19.483,0.631 23.492,0.086 3.425,-0.465 6.827,-0.81 10.138,-1.576 4.371,-1.01 9.018,-2.874 10.074,-7.859 0.301,-1.421 0.388,-3.824 0.519,-5.469 0.07,-0.897 0.009,-2.076 0.005,-3.001 -0.005,-1.33 0.2,-1.729 0.202,-2.996 0.011,-8.282 0.213,-15.964 0.183,-24.267l0.191 -8.764 -0.196 -3.058c-0.058,-2.024 0.002,-4.188 0.011,-6.226 0.004,-1.283 -0.19,-1.636 -0.204,-2.794 -0.011,-1.013 0.076,-2.218 -0.002,-3.205 -0.136,-1.727 -0.325,-3.796 -0.37,-5.626l-0.436 -5.757c-0.439,-3.507 -0.671,-7.426 -1.225,-10.942 -1.612,-10.225 -3.802,-20.189 -6.162,-30.214 -0.207,-0.88 -0.394,-1.46 -0.643,-2.333 -1.682,-5.899 -2.814,-10.235 -4.915,-16.285l-2.057 -6.766c-2.951,0.866 -5.902,1.731 -9.677,2.477 -3.774,0.745 -8.371,1.369 -13.806,1.869 -5.434,0.5 -11.706,0.875 -19.026,1.15z"/>
    </clipPath>
    <clipPath id="id4">
     <path d="M69.622 5.532c-9.32,-0.113 -15.317,-0.1 -21.532,-0.475 -6.215,-0.375 -12.649,-1.137 -18.001,-2.044 -5.351,-0.908 -9.62,-1.96 -13.89,-3.013l-2.056 6.766c-2.101,6.05 -3.233,10.386 -4.916,16.285 -0.249,0.873 -0.435,1.453 -0.642,2.333 -2.36,10.025 -4.55,19.989 -6.162,30.214 -0.554,3.516 -0.787,7.435 -1.226,10.942l-0.435 5.757c-0.045,1.83 -0.234,3.899 -0.37,5.626 -0.078,0.987 0.009,2.192 -0.003,3.205 -0.013,1.158 -0.208,1.511 -0.203,2.794 0.009,2.038 0.069,4.202 0.011,6.226 -0.028,1.013 -0.181,1.575 -0.197,2.723l0.192 9.099c-0.03,8.303 0.172,15.985 0.183,24.267 0.002,1.267 0.207,1.666 0.202,2.996 -0.004,0.925 -0.065,2.104 0.005,3.001 0.131,1.645 0.218,4.048 0.519,5.469 1.056,4.985 5.703,6.849 10.073,7.859 3.312,0.766 6.714,1.111 10.138,1.576 4.01,0.545 19.376,0.399 23.493,-0.086 6.45,-0.761 15.507,-0.276 22.162,-1.971 7.272,-1.853 6.398,-2.822 7.435,-7.425 0.87,-3.869 2.219,-13.998 3.169,-16.919 0.807,-2.484 1.721,-7.868 2.195,-10.524 0.344,-1.99 1.133,-3.678 1.718,-5.612 1.344,-4.441 1.694,-7.626 2.92,-12.169 0.377,-1.398 0.722,-2.38 1.102,-3.854 0.997,-3.864 2.19,-8.249 2.968,-12.117 0.575,-2.856 1.095,-5.36 1.653,-8.289l2.191 -12.734c0.189,-0.998 0.23,-2.248 1.182,-2.596 0.952,0.348 0.993,1.598 1.182,2.596l2.191 12.734c0.558,2.929 1.077,5.433 1.652,8.289 0.779,3.868 1.972,8.253 2.968,12.117 0.38,1.474 0.725,2.456 1.103,3.854 1.226,4.543 1.576,7.728 2.919,12.169 0.585,1.934 1.375,3.622 1.719,5.612 0.473,2.654 1.389,8.042 2.195,10.524 0.949,2.921 2.299,13.05 3.169,16.919 1.037,4.603 0.163,5.572 7.434,7.425 6.656,1.695 15.712,1.21 22.163,1.971 4.117,0.485 19.483,0.631 23.492,0.086 3.425,-0.465 6.827,-0.81 10.138,-1.576 4.371,-1.01 9.018,-2.874 10.074,-7.859 0.301,-1.421 0.388,-3.824 0.519,-5.469 0.07,-0.897 0.009,-2.076 0.005,-3.001 -0.005,-1.33 0.2,-1.729 0.202,-2.996 0.011,-8.282 0.213,-15.964 0.183,-24.267l0.191 -8.764 -0.196 -3.058c-0.058,-2.024 0.002,-4.188 0.011,-6.226 0.004,-1.283 -0.19,-1.636 -0.204,-2.794 -0.011,-1.013 0.076,-2.218 -0.002,-3.205 -0.136,-1.727 -0.325,-3.796 -0.37,-5.626l-0.436 -5.757c-0.439,-3.507 -0.671,-7.426 -1.225,-10.942 -1.612,-10.225 -3.802,-20.189 -6.162,-30.214 -0.207,-0.88 -0.394,-1.46 -0.643,-2.333 -1.682,-5.899 -2.814,-10.235 -4.915,-16.285l-2.057 -6.766c-2.951,0.866 -5.902,1.731 -9.677,2.477 -3.774,0.745 -8.371,1.369 -13.806,1.869 -5.434,0.5 -11.706,0.875 -19.026,1.15 -7.321,0.274 -15.692,0.449 -26.199,0.418 -10.507,-0.031 -23.15,-0.269 -32.47,-0.382z"/>
    </clipPath>
 </defs>
 <g id="VETORES">
  <metadata id="CorelCorpID_0Corel-Layer"/>
  <g>
  </g>
  <g clip-path="url(#id0)">
   <g id="_1763312771840">
    <g>
    </g>
   </g>
   <g clip-path="url(#id1)">
    <g>
     <path id="_1" fill="#4B4B4D" fill-rule="nonzero" d="M-33.103 180.058l-0.582 -0.681 1.809 -1.666 1.657 0 5.792 -1.083c0,0 1.464,-1.443 1.528,-1.464 0.064,-0.021 -5.393,-13.256 -5.393,-13.256l2.487 -4.291 13.004 -0.001 7.493 6.017c0,0 0.947,0.24 0,2.286 -0.947,2.045 -5.468,7.581 -5.468,7.581l5.889 1.314 -0.766 3.179 9.205 8.174 -6.751 2.335 3.159 3.662 -3.934 3.337c0,0 -5.534,-0.181 -5.468,-0.181 0.065,0 -2.864,-1.384 -2.864,-1.384l-7.88 10.338 -4.909 -2.015 -0.258 -6.377 5.974 -5.835 -0.356 -1.864 -13.37 -8.123 0.002 -0.002zm25.081 31.866l41.151 -37.382 6.129 2.888 10.68 36.74 -59.08 1.384 1.12 -3.63zm57.96 -21.038l10.551 6.919 6.782 0.962 -0.544 -2.254 -2.944 -5.628 22.672 -3.79 -5.21 -3.089 0.777 -2.286 1.806 -7.26 -12.035 -11.732 -0.485 -2.377 -4.973 -1.172 -25.222 -2.889 2.498 -3.931 15.503 -1.484 4.176 -4.533 -5.641 -4.732 1.68 -1.524 9.344 0 0.56 1.163 7.966 -11.993 -16.621 6.778 -7.234 -8.022 -10.12 -1.364c0,0 -5.383,4.693 -5.168,4.573 0.216,-0.12 1.573,11.672 1.573,11.672l-15.825 14.12 22.307 4.01 6.761 9.306 -0.302 16.766 -2.626 3.79 -0.006 0.001zm-88.683 -52.403l1.788 -4.011 -2.777 -6.116 0.839 -5.395 23.652 3.7 3.649 6.558 0.526 1.066 -0.752 1.732 -0.775 -0.209c0,0 -17.568,-4.633 -17.666,-4.633 -0.098,0 -1.776,2.948 -1.776,2.948l0.764 4.763 2.336 1.936 2.196 1.785 -2.18 1.926 -6.798 -0.437 -3.026 -5.61 0 -0.003zm-21.38 -47.56l10.743 24.697 -1.226 -21.959 -2.648 3.73 -5.685 -8.063 -1.184 1.595zm37.936 -0.511l8.074 -11.792 4.523 1.805 5.425 -0.122 4.392 -4.03 5.297 -5.776 -10.012 -11.19 -8.139 -1.565 5.845 -5.355 3.037 -1.714 -1.196 -2.316 -8.202 -6.589 -14.502 -0.602 -2.777 3.61 5.91 14.59 -2.325 1.144 -11.626 2.265 2.109 0.823 7.924 4.011 6.201 3.851 0.989 2.707 -5.984 5.144 -0.679 6.318 5.716 4.783zm11.24 8.484l43.404 -38.747 5.749 2.105 8.462 31.105 -34.686 18.772 -2.003 -3.309 5.556 -11.552 11.137 -7.084 -0.609 -1.219 -38.561 17.207 1.551 -7.278zm79.64 -17.028c-0.452,-0.24 -4.715,-6.979 -4.715,-6.979l24.372 -4.312c0,0 -4.737,-3.209 -4.737,-3.449 0,-0.24 3.94,-7.4 3.94,-7.4l-14.362 -15.624 -19.097 0 -14.47 -4.894c0,0 4.716,-4.032 4.458,-3.851 -0.258,0.181 10.398,0.723 10.398,0.723l5.297 -1.805 3.553 -3.009 -6.912 -5.595 11.498 -2.286 3.616 2.648 14.856 -22.802 -11.561 12.334c0,0 -12.66,4.573 -12.854,4.694 -0.194,0.12 -6.977,-7.641 -6.977,-7.641l-10.98 -1.865 -4.779 4.995 0.516 11.792 -16.341 15.011 29.389 4.602 0.452 19.313 -3.359 9.686 8.592 4.753 10.206 0.962 0.001 -0.001zm-112.539 -77.231l27.214 4.13 5.362 8.665 -1.228 1.984 -20.022 -6.979 -2.262 3.009 5.555 9.085 -2.777 2.648 -6.525 -0.242 -5.941 -6.617 3.939 -4.754 -3.939 -4.286 0.624 -6.643zm134.597 81.683c0,0 6.363,23.705 6.621,23.705 0.258,0 2.519,-16.967 2.519,-16.967l-9.14 -6.738zm20.443 52.043c0,0 0.647,-5.235 0.711,-5.385 0.063,-0.151 -4.263,-6.408 -4.263,-6.408l3.164 -3.971 22.412 1.384 3.488 7.4 -17.634 -3.429 -2.067 6.438 1.938 3.61 4.91 8.182c0,0 -10.27,-0.661 -10.657,-0.902 -0.387,-0.24 -2.002,-6.918 -2.002,-6.918l0 -0.001zm-3.552 36.098l36.558 32.431 3.681 -36.943 -40.239 4.512zm-13.091 -207.608l9.538 26.332 2.39 -24.127 -11.928 -2.205zm-26.116 -8.383c-0.129,-0.541 -3.553,-8.784 -3.553,-8.784l25.794 -1.443 3.014 -4.652 0.861 -17.489 -35.483 -19.976 -90.685 -1.925 -16.535 24.707 10.249 11.873 17.223 8.344 0.947 3.931 -7.665 5.414 -1.378 6.458 8.783 4.652 8.182 -13.517 9.301 2.528 16.966 -15.002 4.565 1.203 -7.75 21.258 1.205 -12.033 -20.498 24.627 0.345 0.883 -5.683 8.985 41.165 -20.698 -7.579 5.616c0,0 -9.301,15.964 -8.957,16.927 0.345,0.962 2.583,3.689 2.583,3.689l27.472 -16.285 9.904 -5.375 -8.268 -21.98 6.717 -1.284 18.753 9.345 0.005 0.003z"/>
    </g>
   </g>
   <g clip-path="url(#id2)">
    <path fill="none" d="M69.622 5.532c-9.32,-0.113 -15.317,-0.1 -21.532,-0.475 -6.215,-0.375 -12.649,-1.137 -18.001,-2.044 -5.351,-0.908 -9.62,-1.96 -13.89,-3.013l-2.056 6.766c-2.101,6.05 -3.233,10.386 -4.916,16.285 -0.249,0.873 -0.435,1.453 -0.642,2.333 -2.36,10.025 -4.55,19.989 -6.162,30.214 -0.554,3.516 -0.787,7.435 -1.226,10.942l-0.435 5.757c-0.045,1.83 -0.234,3.899 -0.37,5.626 -0.078,0.987 0.009,2.192 -0.003,3.205 -0.013,1.158 -0.208,1.511 -0.203,2.794 0.009,2.038 0.069,4.202 0.011,6.226 -0.028,1.013 -0.181,1.575 -0.197,2.723l0.192 9.099c-0.03,8.303 0.172,15.985 0.183,24.267 0.002,1.267 0.207,1.666 0.202,2.996 -0.004,0.925 -0.065,2.104 0.005,3.001 0.131,1.645 0.218,4.048 0.519,5.469 1.056,4.985 5.703,6.849 10.073,7.859 3.312,0.766 6.714,1.111 10.138,1.576 4.01,0.545 19.376,0.399 23.493,-0.086 6.45,-0.761 15.507,-0.276 22.162,-1.971 7.272,-1.853 6.398,-2.822 7.435,-7.425 0.87,-3.869 2.219,-13.998 3.169,-16.919 0.807,-2.484 1.721,-7.868 2.195,-10.524 0.344,-1.99 1.133,-3.678 1.718,-5.612 1.344,-4.441 1.694,-7.626 2.92,-12.169 0.377,-1.398 0.722,-2.38 1.102,-3.854 0.997,-3.864 2.19,-8.249 2.968,-12.117 0.575,-2.856 1.095,-5.36 1.653,-8.289l2.191 -12.734c0.189,-0.998 0.23,-2.248 1.182,-2.596 0,-15.663 0,-31.326 0,-46.989 -8.306,-0.086 -16.998,-0.238 -23.878,-0.321z"/>
    <g>
    </g>
   </g>
   <g clip-path="url(#id3)">
    <g>
     <path id="_1_0" fill="#4B4B4D" fill-rule="nonzero" d="M88.732 154.265l-0.581 -0.681 1.809 -1.665 1.657 0 5.791 -1.083c0,0 1.465,-1.443 1.528,-1.465 0.064,-0.021 -5.393,-13.255 -5.393,-13.255l2.487 -4.292 13.005 0 7.492 6.016c0,0 0.947,0.241 0,2.286 -0.947,2.046 -5.468,7.581 -5.468,7.581l5.889 1.315 -0.765 3.178 9.205 8.175 -6.751 2.334 3.159 3.662 -3.935 3.337c0,0 -5.533,-0.181 -5.468,-0.181 0.065,0 -2.864,-1.384 -2.864,-1.384l-7.879 10.339 -4.91 -2.015 -0.258 -6.377 5.974 -5.835 -0.356 -1.865 -13.37 -8.123 0.002 -0.002zm25.082 31.866l41.151 -37.382 6.129 2.888 10.679 36.741 -59.08 1.384 1.121 -3.631zm57.959 -21.037l10.551 6.918 6.782 0.963 -0.544 -2.254 -2.943 -5.629 22.671 -3.79 -5.21 -3.088 0.778 -2.286 1.805 -7.261 -12.034 -11.732 -0.485 -2.377 -4.973 -1.172 -25.223 -2.888 2.498 -3.932 15.503 -1.484 4.177 -4.532 -5.642 -4.733 1.681 -1.524 9.344 0 0.56 1.164 7.966 -11.994 -16.621 6.779 -7.235 -8.023 -10.12 -1.364c0,0 -5.382,4.693 -5.167,4.573 0.215,-0.12 1.572,11.673 1.572,11.673l-15.824 14.119 22.306 4.011 6.761 9.306 -0.302 16.765 -2.625 3.79 -0.007 0.002zm-88.682 -52.404l1.788 -4.01 -2.778 -6.117 0.84 -5.394 23.651 3.7 3.649 6.558 0.526 1.066 -0.751 1.732 -0.776 -0.21c0,0 -17.568,-4.632 -17.666,-4.632 -0.098,0 -1.776,2.947 -1.776,2.947l0.764 4.763 2.337 1.936 2.195 1.786 -2.179 1.925 -6.799 -0.436 -3.025 -5.611 0 -0.003zm-21.38 -47.559l10.743 24.697 -1.226 -21.96 -2.649 3.731 -5.685 -8.064 -1.183 1.596zm37.936 -0.511l8.073 -11.793 4.523 1.805 5.426 -0.121 4.391 -4.031 5.297 -5.776 -10.012 -11.19 -8.139 -1.565 5.845 -5.355 3.037 -1.714 -1.195 -2.316 -8.203 -6.588 -14.502 -0.603 -2.777 3.611 5.911 14.589 -2.326 1.144 -11.626 2.266 2.11 0.823 7.923 4.01 6.201 3.851 0.989 2.707 -5.983 5.145 -0.68 6.318 5.717 4.783zm11.239 8.483l43.404 -38.746 5.749 2.104 8.462 31.106 -34.685 18.772 -2.003 -3.31 5.556 -11.552 11.137 -7.084 -0.61 -1.218 -38.561 17.207 1.551 -7.279zm79.641 -17.027c-0.453,-0.241 -4.716,-6.98 -4.716,-6.98l24.372 -4.311c0,0 -4.737,-3.209 -4.737,-3.449 0,-0.241 3.94,-7.401 3.94,-7.401l-14.361 -15.623 -19.098 0 -14.469 -4.894c0,0 4.715,-4.032 4.457,-3.851 -0.258,0.181 10.399,0.722 10.399,0.722l5.296 -1.805 3.553 -3.008 -6.911 -5.595 11.497 -2.286 3.617 2.648 14.856 -22.802 -11.561 12.334c0,0 -12.66,4.573 -12.855,4.693 -0.194,0.12 -6.976,-7.641 -6.976,-7.641l-10.98 -1.864 -4.779 4.994 0.516 11.793 -16.342 15.01 29.389 4.602 0.452 19.314 -3.358 9.686 8.591 4.752 10.206 0.963 0.002 -0.001zm-112.54 -77.232l27.214 4.131 5.362 8.664 -1.228 1.985 -20.022 -6.979 -2.261 3.008 5.554 9.085 -2.777 2.648 -6.524 -0.241 -5.942 -6.618 3.94 -4.754 -3.94 -4.286 0.624 -6.643zm134.598 81.683c0,0 6.362,23.705 6.62,23.705 0.258,0 2.52,-16.966 2.52,-16.966l-9.14 -6.739zm20.443 52.043c0,0 0.646,-5.234 0.71,-5.385 0.064,-0.151 -4.263,-6.407 -4.263,-6.407l3.164 -3.971 22.412 1.384 3.488 7.4 -17.634 -3.429 -2.067 6.437 1.939 3.611 4.909 8.182c0,0 -10.27,-0.662 -10.657,-0.902 -0.387,-0.241 -2.001,-6.918 -2.001,-6.918l0 -0.002zm-3.553 36.099l36.558 32.43 3.682 -36.942 -40.24 4.512zm-13.091 -207.608l9.538 26.332 2.391 -24.127 -11.929 -2.205zm-26.116 -8.383c-0.128,-0.542 -3.552,-8.784 -3.552,-8.784l25.793 -1.444 3.015 -4.652 0.86 -17.488 -35.482 -19.976 -90.686 -1.926 -16.535 24.708 10.249 11.873 17.224 8.343 0.946 3.932 -7.665 5.414 -1.378 6.457 8.784 4.653 8.181 -13.518 9.302 2.528 16.965 -15.001 4.566 1.202 -7.751 21.259 1.205 -12.033 -20.497 24.627 0.344 0.882 -5.683 8.985 41.166 -20.697 -7.58 5.615c0,0 -9.301,15.964 -8.957,16.927 0.345,0.962 2.583,3.689 2.583,3.689l27.473 -16.285 9.903 -5.374 -8.268 -21.981 6.718 -1.283 18.753 9.345 0.004 0.003z"/>
    </g>
   </g>
   <g clip-path="url(#id4)">
    <path fill="none" d="M128.291 5.496c-7.321,0.274 -15.692,0.449 -26.199,0.418 -2.75,-0.008 -5.647,-0.031 -8.592,-0.061 0,15.663 0,31.326 0,46.989 0.952,0.348 0.993,1.598 1.182,2.596l2.191 12.734c0.558,2.929 1.077,5.433 1.652,8.289 0.779,3.868 1.972,8.253 2.968,12.117 0.38,1.474 0.725,2.456 1.103,3.854 1.226,4.543 1.576,7.728 2.919,12.169 0.585,1.934 1.375,3.622 1.719,5.612 0.473,2.654 1.389,8.042 2.195,10.524 0.949,2.921 2.299,13.05 3.169,16.919 1.037,4.603 0.163,5.572 7.434,7.425 6.656,1.695 15.712,1.21 22.163,1.971 4.117,0.485 19.483,0.631 23.492,0.086 3.425,-0.465 6.827,-0.81 10.138,-1.576 4.371,-1.01 9.018,-2.874 10.074,-7.859 0.301,-1.421 0.388,-3.824 0.519,-5.469 0.07,-0.897 0.009,-2.076 0.005,-3.001 -0.005,-1.33 0.2,-1.729 0.202,-2.996 0.011,-8.282 0.213,-15.964 0.183,-24.267l0.191 -8.764 -0.196 -3.058c-0.058,-2.024 0.002,-4.188 0.011,-6.226 0.004,-1.283 -0.19,-1.636 -0.204,-2.794 -0.011,-1.013 0.076,-2.218 -0.002,-3.205 -0.136,-1.727 -0.325,-3.796 -0.37,-5.626l-0.436 -5.757c-0.439,-3.507 -0.671,-7.426 -1.225,-10.942 -1.612,-10.225 -3.802,-20.189 -6.162,-30.214 -0.207,-0.88 -0.394,-1.46 -0.643,-2.333 -1.682,-5.899 -2.814,-10.235 -4.915,-16.285l-2.057 -6.766c-2.951,0.866 -5.902,1.731 -9.677,2.477 -3.774,0.745 -8.371,1.369 -13.806,1.869 -5.434,0.5 -11.706,0.875 -19.026,1.15z"/>
   </g>
  </g>
  <path fill="none" d="M69.622 5.532c-9.32,-0.113 -15.317,-0.1 -21.532,-0.475 -6.215,-0.375 -12.649,-1.137 -18.001,-2.044 -5.351,-0.908 -9.62,-1.96 -13.89,-3.013l-2.056 6.766c-2.101,6.05 -3.233,10.386 -4.916,16.285 -0.249,0.873 -0.435,1.453 -0.642,2.333 -2.36,10.025 -4.55,19.989 -6.162,30.214 -0.554,3.516 -0.787,7.435 -1.226,10.942l-0.435 5.757c-0.045,1.83 -0.234,3.899 -0.37,5.626 -0.078,0.987 0.009,2.192 -0.003,3.205 -0.013,1.158 -0.208,1.511 -0.203,2.794 0.009,2.038 0.069,4.202 0.011,6.226 -0.028,1.013 -0.181,1.575 -0.197,2.723l0.192 9.099c-0.03,8.303 0.172,15.985 0.183,24.267 0.002,1.267 0.207,1.666 0.202,2.996 -0.004,0.925 -0.065,2.104 0.005,3.001 0.131,1.645 0.218,4.048 0.519,5.469 1.056,4.985 5.703,6.849 10.073,7.859 3.312,0.766 6.714,1.111 10.138,1.576 4.01,0.545 19.376,0.399 23.493,-0.086 6.45,-0.761 15.507,-0.276 22.162,-1.971 7.272,-1.853 6.398,-2.822 7.435,-7.425 0.87,-3.869 2.219,-13.998 3.169,-16.919 0.807,-2.484 1.721,-7.868 2.195,-10.524 0.344,-1.99 1.133,-3.678 1.718,-5.612 1.344,-4.441 1.694,-7.626 2.92,-12.169 0.377,-1.398 0.722,-2.38 1.102,-3.854 0.997,-3.864 2.19,-8.249 2.968,-12.117 0.575,-2.856 1.095,-5.36 1.653,-8.289l2.191 -12.734c0.189,-0.998 0.23,-2.248 1.182,-2.596 0.952,0.348 0.993,1.598 1.182,2.596l2.191 12.734c0.558,2.929 1.077,5.433 1.652,8.289 0.779,3.868 1.972,8.253 2.968,12.117 0.38,1.474 0.725,2.456 1.103,3.854 1.226,4.543 1.576,7.728 2.919,12.169 0.585,1.934 1.375,3.622 1.719,5.612 0.473,2.654 1.389,8.042 2.195,10.524 0.949,2.921 2.299,13.05 3.169,16.919 1.037,4.603 0.163,5.572 7.434,7.425 6.656,1.695 15.712,1.21 22.163,1.971 4.117,0.485 19.483,0.631 23.492,0.086 3.425,-0.465 6.827,-0.81 10.138,-1.576 4.371,-1.01 9.018,-2.874 10.074,-7.859 0.301,-1.421 0.388,-3.824 0.519,-5.469 0.07,-0.897 0.009,-2.076 0.005,-3.001 -0.005,-1.33 0.2,-1.729 0.202,-2.996 0.011,-8.282 0.213,-15.964 0.183,-24.267l0.191 -8.764 -0.196 -3.058c-0.058,-2.024 0.002,-4.188 0.011,-6.226 0.004,-1.283 -0.19,-1.636 -0.204,-2.794 -0.011,-1.013 0.076,-2.218 -0.002,-3.205 -0.136,-1.727 -0.325,-3.796 -0.37,-5.626l-0.436 -5.757c-0.439,-3.507 -0.671,-7.426 -1.225,-10.942 -1.612,-10.225 -3.802,-20.189 -6.162,-30.214 -0.207,-0.88 -0.394,-1.46 -0.643,-2.333 -1.682,-5.899 -2.814,-10.235 -4.915,-16.285l-2.057 -6.766c-2.951,0.866 -5.902,1.731 -9.677,2.477 -3.774,0.745 -8.371,1.369 -13.806,1.869 -5.434,0.5 -11.706,0.875 -19.026,1.15 -7.321,0.274 -15.692,0.449 -26.199,0.418 -10.507,-0.031 -23.15,-0.269 -32.47,-0.382z"/>
 </g>
</svg>
