<?xml version="1.0" encoding="UTF-8"?>
<!DOCTYPE svg PUBLIC "-//W3C//DTD SVG 1.1//EN" "http://www.w3.org/Graphics/SVG/1.1/DTD/svg11.dtd">
<!-- Creator: CorelDRAW -->
<svg xmlns="http://www.w3.org/2000/svg" xml:space="preserve" width="240px" height="296px" version="1.1" shape-rendering="geometricPrecision" text-rendering="geometricPrecision" image-rendering="optimizeQuality" fill-rule="evenodd" clip-rule="evenodd"
viewBox="0 0 240 296.307"
 xmlns:xlink="http://www.w3.org/1999/xlink"
 xmlns:xodm="http://www.corel.com/coreldraw/odm/2003">
 <defs>
   <clipPath id="id0">
    <path d="M136.796 295.988c2.461,-0.097 4.626,-0.225 7.017,-0.355 2.39,-0.131 5.006,-0.265 8.261,-0.493 3.256,-0.228 7.151,-0.55 10.471,-0.852 3.319,-0.302 6.061,-0.583 8.794,-0.949 2.732,-0.365 5.455,-0.814 7.654,-1.25 2.2,-0.436 3.876,-0.858 6.001,-1.331 2.126,-0.473 4.701,-0.996 6.595,-1.321 1.894,-0.325 3.108,-0.453 4.268,-0.536 1.16,-0.084 2.267,-0.124 3.155,-0.117 0.889,0.008 1.559,0.063 1.956,0.094 0.396,0.031 0.518,0.038 0.611,0.043 0.049,0.002 0.09,0.004 0.127,0.006 0.093,-0.07 0.162,-0.18 0.177,-0.779 0.016,-0.673 -0.037,-1.966 -0.106,-2.786 -0.069,-0.819 -0.154,-1.166 -0.285,-1.855 -0.131,-0.689 -0.307,-1.72 -0.651,-2.686 -0.345,-0.965 -0.858,-1.866 -1.476,-3.045 -0.619,-1.179 -1.343,-2.638 -1.783,-3.616 -0.44,-0.978 -0.596,-1.476 -0.848,-2.693 -0.251,-1.217 -0.598,-3.153 -0.953,-5.871 -0.354,-2.718 -0.716,-6.219 -1.038,-8.884 -0.322,-2.666 -0.603,-4.496 -1.081,-7.559 -0.478,-3.062 -1.152,-7.357 -1.71,-11.521 -0.558,-4.164 -1.001,-8.198 -1.348,-12.226 -0.347,-4.028 -0.598,-8.051 -0.759,-11.637 -0.161,-3.586 -0.231,-6.734 -0.287,-9.787 -0.055,-3.052 -0.095,-6.01 -0.156,-9.258 -0.06,-3.249 -0.14,-6.79 -0.108,-12.037 0.033,-5.248 0.179,-12.203 0.352,-17.466 0.174,-5.263 0.375,-8.834 0.652,-12.807 0.276,-3.973 0.628,-8.348 0.975,-12.271 0.347,-3.922 0.689,-7.393 1.122,-11.743 0.432,-4.35 0.955,-9.58 1.483,-13.99 0.528,-4.411 1.061,-8.002 1.512,-10.619 0.45,-2.618 0.817,-4.262 1.139,-5.308 0.321,-1.046 0.598,-1.494 0.803,-1.766 0.205,-0.271 0.338,-0.367 0.405,-0.414 0.066,-0.048 0.066,-0.048 0.049,0.598 -0.018,0.646 -0.053,1.939 -0.108,3.533 -0.056,1.594 -0.131,3.49 -0.173,4.967 -0.041,1.478 -0.049,2.536 -0.079,3.186 -0.03,0.65 -0.083,0.892 -0.102,1.011 -0.018,0.119 -0.003,0.117 -0.041,0.151 -0.038,0.034 -0.128,0.104 -0.133,0.68 -0.005,0.576 0.075,1.657 0.192,3.051 0.117,1.395 0.27,3.102 0.322,4.786 0.051,1.683 0.001,3.343 0.002,4.231 0,0.887 0.052,1.003 0.132,1.078 0.08,0.076 0.188,0.111 1.001,0.06 0.814,-0.051 2.333,-0.188 4.105,-0.324 1.773,-0.137 3.8,-0.273 5.955,-0.431 2.155,-0.158 4.438,-0.339 6.588,-0.463 2.15,-0.123 4.166,-0.188 5.992,-0.299 1.826,-0.111 3.46,-0.267 5.336,-0.47 1.876,-0.204 3.993,-0.455 6.015,-0.682 2.021,-0.226 3.947,-0.427 5.109,-0.565 1.162,-0.139 1.559,-0.214 1.758,-0.327 0.199,-0.113 0.199,-0.264 0.229,-0.906 0.03,-0.641 0.09,-1.772 0.108,-3.132 0.017,-1.361 -0.008,-2.95 -0.023,-4.429 -0.015,-1.478 -0.02,-2.846 -0.038,-3.724 -0.017,-0.877 -0.047,-1.264 -0.071,-1.469 -0.025,-0.205 -0.043,-0.227 -0.083,-0.294 -0.04,-0.068 -0.103,-0.181 -0.174,-0.682 -0.071,-0.5 -0.152,-1.388 -0.255,-2.32 -0.103,-0.933 -0.229,-1.911 -0.348,-2.739 -0.12,-0.827 -0.233,-1.504 -0.413,-2.544 -0.179,-1.042 -0.426,-2.447 -0.613,-3.449 -0.187,-1.002 -0.316,-1.601 -0.436,-2.27 -0.121,-0.668 -0.234,-1.408 -0.366,-2.121 -0.132,-0.713 -0.283,-1.399 -0.425,-2.156 -0.142,-0.757 -0.275,-1.584 -0.375,-2.322 -0.099,-0.738 -0.165,-1.387 -0.239,-2.029 -0.074,-0.643 -0.157,-1.279 -0.257,-2.036 -0.101,-0.757 -0.219,-1.634 -0.34,-2.526 -0.121,-0.891 -0.244,-1.796 -0.353,-2.565 -0.11,-0.768 -0.205,-1.399 -0.373,-2.344 -0.168,-0.945 -0.408,-2.203 -0.82,-4.085 -0.412,-1.881 -0.995,-4.386 -1.704,-6.89 -0.709,-2.505 -1.544,-5.009 -2.651,-7.745 -1.106,-2.736 -2.484,-5.703 -4.093,-8.851 -1.61,-3.149 -3.45,-6.478 -4.878,-8.781 -1.429,-2.304 -2.444,-3.581 -3.453,-4.629 -1.008,-1.049 -2.009,-1.869 -3.015,-2.608 -1.006,-0.739 -2.017,-1.398 -2.582,-1.773 -0.566,-0.375 -0.687,-0.465 -0.756,-0.571 -0.069,-0.105 -0.087,-0.226 -0.095,-0.303 -0.009,-0.077 -0.009,-0.109 -0.07,-0.174 -0.06,-0.066 -0.181,-0.164 -1.307,-0.714 -1.127,-0.551 -3.259,-1.555 -5.31,-2.603 -2.05,-1.048 -4.019,-2.142 -5.77,-2.976 -1.752,-0.833 -3.286,-1.407 -5.061,-1.957 -1.775,-0.551 -3.792,-1.079 -5.429,-1.507 -1.637,-0.427 -2.894,-0.754 -3.762,-1.008 -0.867,-0.254 -1.345,-0.435 -2.044,-0.7 -0.699,-0.266 -1.619,-0.615 -2.606,-0.909 -0.987,-0.295 -2.041,-0.533 -2.716,-0.687 -0.675,-0.153 -0.972,-0.221 -1.44,-0.471 -0.467,-0.25 -1.106,-0.683 -1.581,-0.937 -0.475,-0.254 -0.787,-0.329 -1.073,-0.365 -0.285,-0.035 -0.544,-0.03 -0.777,-0.03 -0.232,0 -0.438,-0.005 -1.342,-0.33 -0.904,-0.326 -2.506,-0.972 -4.026,-1.577 -1.52,-0.605 -2.959,-1.168 -4.404,-1.748 -1.446,-0.579 -2.9,-1.175 -3.816,-1.569 -0.917,-0.393 -1.297,-0.584 -1.594,-0.779 -0.298,-0.194 -0.514,-0.392 -0.705,-0.497 -0.191,-0.105 -0.356,-0.116 -0.467,-0.117 -0.11,0 -0.164,0.01 -0.251,-0.004 -0.086,-0.014 -0.204,-0.052 -0.587,-0.292 -0.382,-0.24 -1.028,-0.682 -1.678,-1.193 -0.65,-0.51 -1.304,-1.089 -1.956,-1.661 -0.653,-0.572 -1.304,-1.138 -2.311,-1.569 -1.007,-0.431 -2.37,-0.728 -3.723,-0.919 -1.353,-0.191 -2.695,-0.276 -4.576,-0.354 -1.881,-0.078 -4.3,-0.149 -7.931,-0.131 -3.631,0.017 -8.474,0.123 -12.914,0.219 -4.439,0.096 -8.475,0.183 -10.597,0.231 -2.123,0.048 -2.332,0.058 -4.152,0.203 -1.82,0.145 -5.249,0.427 -7.404,0.671 -2.155,0.244 -3.035,0.45 -3.752,0.707 -0.717,0.256 -1.27,0.563 -1.886,1.078 -0.616,0.516 -1.295,1.24 -2.019,1.877 -0.725,0.638 -1.494,1.189 -1.953,1.46 -0.459,0.272 -0.607,0.264 -0.901,0.366 -0.295,0.102 -0.735,0.313 -1.268,0.582 -0.533,0.269 -1.159,0.596 -1.919,0.922 -0.761,0.325 -1.656,0.65 -2.301,0.904 -0.645,0.254 -1.04,0.437 -1.514,0.628 -0.474,0.192 -1.027,0.39 -1.765,0.621 -0.738,0.232 -1.661,0.496 -2.558,0.836 -0.896,0.341 -1.766,0.759 -2.573,1.076 -0.808,0.316 -1.552,0.533 -2.299,0.749 -0.746,0.216 -1.496,0.432 -2.053,0.655 -0.557,0.222 -0.921,0.451 -1.207,0.636 -0.285,0.185 -0.491,0.326 -0.999,0.476 -0.508,0.15 -1.318,0.31 -1.914,0.463 -0.596,0.154 -0.978,0.301 -1.488,0.492 -0.51,0.192 -1.147,0.429 -1.75,0.617 -0.603,0.189 -1.171,0.329 -1.687,0.459 -0.516,0.13 -0.98,0.248 -1.7,0.426 -0.719,0.179 -1.693,0.418 -2.551,0.633 -0.857,0.216 -1.598,0.408 -2.171,0.57 -0.573,0.161 -0.979,0.292 -1.436,0.426 -0.456,0.134 -0.963,0.271 -1.427,0.4 -0.465,0.129 -0.887,0.249 -1.312,0.377 -0.424,0.128 -0.85,0.262 -1.203,0.399 -0.353,0.137 -0.632,0.277 -1.012,0.437 -0.38,0.159 -0.862,0.339 -1.279,0.53 -0.417,0.191 -0.769,0.394 -1.165,0.602 -0.397,0.209 -0.838,0.424 -1.221,0.617 -0.382,0.194 -0.705,0.366 -1.126,0.589 -0.421,0.223 -0.941,0.495 -1.657,0.865 -0.717,0.371 -1.631,0.838 -2.694,1.37 -1.063,0.532 -2.275,1.128 -3.18,1.576 -0.905,0.448 -1.504,0.747 -2.037,1.087 -0.533,0.341 -1.001,0.723 -1.443,1.08 -0.443,0.358 -0.86,0.689 -1.353,1.079 -0.493,0.39 -1.061,0.837 -1.779,1.475 -0.718,0.637 -1.586,1.465 -2.375,2.331 -0.79,0.866 -1.501,1.771 -2.145,2.665 -0.644,0.894 -1.22,1.777 -1.924,2.935 -0.704,1.158 -1.536,2.591 -2.208,3.821 -0.671,1.229 -1.181,2.255 -1.732,3.264 -0.551,1.008 -1.141,1.999 -1.644,2.942 -0.503,0.943 -0.918,1.838 -1.313,2.759 -0.395,0.922 -0.77,1.87 -1.152,2.756 -0.382,0.887 -0.772,1.712 -1.285,3.043 -0.513,1.331 -1.149,3.17 -1.716,4.911 -0.567,1.741 -1.065,3.386 -1.49,4.836 -0.425,1.451 -0.777,2.709 -1.129,4.225 -0.352,1.516 -0.704,3.291 -1.144,5.668 -0.44,2.376 -0.968,5.353 -1.29,7.073 -0.322,1.72 -0.438,2.183 -0.543,2.673 -0.106,0.491 -0.201,1.009 -0.4,1.833 -0.198,0.825 -0.5,1.957 -0.807,3.143 -0.307,1.187 -0.618,2.43 -0.84,3.478 -0.221,1.049 -0.352,1.904 -0.575,3.166 -0.224,1.262 -0.541,2.932 -0.787,4.297 -0.247,1.366 -0.423,2.427 -0.529,2.975 -0.105,0.548 -0.14,0.583 -0.204,0.634 -0.063,0.05 -0.155,0.115 -0.251,2.246 -0.096,2.13 -0.197,6.326 -0.275,8.622 -0.078,2.297 -0.133,2.694 0.035,2.902 0.169,0.209 0.561,0.229 1.419,0.337 0.857,0.108 2.18,0.305 4.51,0.755 2.332,0.45 5.671,1.154 8.339,1.667 2.668,0.513 4.664,0.835 6.751,1.182 2.088,0.347 4.265,0.719 7.24,1.192 2.975,0.472 6.746,1.046 9.15,1.373 2.404,0.327 3.44,0.407 3.958,0.447 0.518,0.041 0.518,0.041 0.568,-0.543 0.049,-0.583 0.149,-1.75 0.263,-2.759 0.114,-1.009 0.242,-1.86 0.394,-2.937 0.152,-1.077 0.328,-2.379 0.498,-3.576 0.17,-1.197 0.333,-2.289 0.417,-2.902 0.085,-0.614 0.089,-0.749 0.076,-0.865 -0.014,-0.116 -0.047,-0.211 -0.023,-1.818 0.024,-1.607 0.104,-4.725 0.147,-7.257 0.043,-2.532 0.048,-4.478 0.059,-5.601 0.011,-1.123 0.029,-1.422 0.067,-1.618 0.038,-0.197 0.095,-0.29 0.176,-0.338 0.08,-0.05 0.184,-0.055 0.308,0.038 0.124,0.094 0.27,0.285 0.345,0.376 0.074,0.092 0.076,0.085 0.078,0.081 0.001,-0.004 0.001,-0.004 0.115,0.253 0.114,0.256 0.343,0.769 0.597,1.463 0.254,0.694 0.533,1.569 0.762,2.507 0.229,0.938 0.408,1.939 0.607,3.547 0.2,1.608 0.422,3.823 0.739,6.228 0.316,2.406 0.729,5.001 1.468,11.393 0.739,6.392 1.805,16.58 2.64,24.511 0.835,7.931 1.439,13.604 1.811,19.699 0.372,6.095 0.513,12.613 0.503,19.654 -0.01,7.04 -0.171,14.604 -0.372,20.609 -0.202,6.004 -0.443,10.45 -0.725,14.423 -0.281,3.973 -0.603,7.473 -1.448,14.162 -0.845,6.688 -2.213,16.566 -3.007,23.777 -0.795,7.212 -1.016,11.758 -1.217,15.269 -0.202,3.51 -0.383,5.984 -0.674,8.122 -0.292,2.137 -0.694,3.937 -0.973,5.315 -0.279,1.378 -0.436,2.334 -0.453,2.935 -0.018,0.601 0.103,0.847 0.249,0.975 0.146,0.129 0.317,0.138 0.5,0.175 0.184,0.036 0.38,0.099 0.469,0.155 0.019,0.011 0.032,0.022 0.042,0.037 0.876,0.322 1.753,0.645 3.155,0.925 1.401,0.28 3.329,0.518 6.493,0.754 3.163,0.237 7.562,0.472 11.099,0.609 3.537,0.138 6.212,0.178 9.592,0.181 3.38,0.003 7.463,-0.03 11.329,-0.007 3.866,0.024 7.513,0.104 10.591,0.191 3.078,0.088 5.586,0.181 7.916,0.252 2.33,0.07 4.483,0.117 6.789,0.171 2.307,0.053 4.768,0.114 7.356,0.121 2.589,0.006 5.304,-0.041 8.04,-0.098 2.736,-0.057 5.492,-0.124 7.953,-0.221z"/>
   </clipPath>
 </defs>
 <g id="VETORES">
  <metadata id="CorelCorpID_0Corel-Layer"/>
  <g>
  </g>
  <g clip-path="url(#id0)">
   <g id="_2359426564784">
    <path id="_2frente" fill="fuchsia" fill-rule="nonzero" d="M182.91 192.632l-2.116 -2.206c-0.703,0.566 -1.405,1.131 -2.108,1.697l4.328 4.519c-0.034,-1.337 -0.069,-2.673 -0.104,-4.01zm-10.791 6.985l7.297 7.655c0.361,-0.927 0.723,-1.854 1.084,-2.781l-9.336 -9.778c0.318,0.544 0.637,1.068 0.955,1.573l0 3.331 0 0zm10.692 -10.815c-0.513,0.413 -1.025,0.825 -1.538,1.238l1.614 1.682c-0.025,-0.973 -0.051,-1.947 -0.076,-2.92zm-8.968 32.773l-1.724 -1.821 0 3.94 0.637 0.673c0.362,-0.931 0.725,-1.862 1.087,-2.792zm1.334 -3.422l-3.058 -3.224 0 3.933 1.971 2.081c0.362,-0.93 0.724,-1.86 1.087,-2.79l0 0zm7.872 -20.204c-0.004,-0.132 -0.007,-0.264 -0.011,-0.396l-4.831 -5.044c-0.702,0.565 -1.404,1.131 -2.107,1.696l5.973 6.246c0.326,-0.834 0.65,-1.668 0.976,-2.502l0 0zm-9.385 -9.741c-2.355,-1.313 -4.71,-2.625 -7.066,-3.938l7.066 7.388 0 -3.45zm5.506 19.695l-7.051 -7.397 0 3.91 5.967 6.27c0.361,-0.927 0.723,-1.855 1.084,-2.783zm-1.33 3.414l-5.721 -6.012 0 3.918 4.636 4.879c0.362,-0.928 0.723,-1.856 1.085,-2.785l0 0zm-1.331 3.417l-4.39 -4.621 0 3.925 3.304 3.483c0.362,-0.929 0.724,-1.858 1.086,-2.787zm-4.39 11.266c0.13,-0.334 0.26,-0.667 0.391,-1.001l-0.391 -0.413 0 1.414zm9.709 -24.918l-6.207 -6.491c-0.652,0.526 -1.305,1.051 -1.957,1.576l0 -3.622 -6.822 -7.134c0.74,2.088 1.685,4.352 2.902,6.717 0.08,0.156 0.16,0.309 0.241,0.462l10.76 11.271c0.361,-0.927 0.722,-1.853 1.083,-2.779l0 0zm31.253 -34.458l-3.327 -3.405c-1.915,-0.674 -3.829,-1.348 -5.744,-2.022l9.171 9.4c-0.033,-1.324 -0.067,-2.649 -0.1,-3.973l0 0zm-0.057 -2.254c-0.654,-0.231 -1.309,-0.461 -1.963,-0.691l1.997 2.045c-0.011,-0.452 -0.022,-0.903 -0.034,-1.354zm0.28 11.108c-0.034,-1.327 -0.067,-2.653 -0.1,-3.98l-10.075 -10.326c0.02,1.308 0.04,2.616 0.06,3.924l10.115 10.382zm-10.1 -9.445c3.379,3.643 6.758,7.286 10.137,10.929 -0.005,-0.194 -0.01,-0.388 -0.015,-0.582l-10.123 -10.391c0,0.014 0.001,0.029 0.001,0.044l0 0zm15.681 16.053l-4.652 -4.775c-0.265,1.167 -0.436,2.288 -0.535,3.334l3.22 3.31c0.656,-0.623 1.311,-1.246 1.967,-1.869zm4.293 -9.883l-4.375 -4.472c-0.528,0.665 -1.047,1.39 -1.542,2.183 -0.014,0.023 -0.027,0.046 -0.041,0.069l6.058 6.201c-0.034,-1.327 -0.067,-2.654 -0.1,-3.981l0 0zm-9.117 14.465l-0.313 -0.322c0.023,0.203 0.046,0.389 0.068,0.555 0.082,-0.078 0.164,-0.155 0.245,-0.233l0 0zm8.995 -19.339l-2.012 -2.054c-0.609,0.581 -1.234,1.238 -1.852,1.977l3.964 4.051 -0.1 -3.974 0 0zm0.264 10.544c-0.007,-0.263 -0.013,-0.526 -0.02,-0.789l-6.407 -6.558c-0.497,0.854 -0.922,1.709 -1.287,2.557l6.136 6.289c0.526,-0.5 1.052,-0.999 1.578,-1.499l0 0zm-8.814 8.373l1.967 -1.869 -2.839 -2.918c-0.098,1.521 -0.058,2.858 0.022,3.912l0.85 0.875zm8.458 -22.629c-0.464,0.361 -0.96,0.774 -1.472,1.239l1.542 1.574c-0.024,-0.938 -0.047,-1.875 -0.07,-2.813zm-1.667 16.177l-5.945 -6.094c-0.392,0.986 -0.703,1.96 -0.948,2.907l4.926 5.056c0.656,-0.623 1.311,-1.246 1.967,-1.869l0 0zm-1.534 46.407l-10.049 -10.457c0.598,1.937 1.197,3.874 1.795,5.81l5.707 5.948c0.883,-0.43 1.732,-0.865 2.547,-1.301l0 0zm-9.879 -30.38l3.706 3.833 -0.011 -0.636c-1.232,-1.065 -2.463,-2.131 -3.695,-3.197l0 0zm6.751 31.961l-4.722 -4.921c0.041,0.13 0.081,0.261 0.121,0.391l0 3.685 1.956 2.041c0.862,-0.37 1.744,-0.768 2.645,-1.196zm-13.352 -32.842c0.55,1.779 1.1,3.558 1.65,5.338l8.839 9.168c-0.025,-1.333 -0.049,-2.667 -0.074,-4l-10.415 -10.787 0 0.281 0 0zm0 -4.831l0 3.668 10.398 10.769c-0.025,-1.331 -0.049,-2.662 -0.074,-3.993l-8.95 -9.256 -1.374 -1.188zm8.751 39.677c0.444,-0.176 0.896,-0.36 1.352,-0.552l-1.352 -1.411 0 1.963 0 0zm-79.881 -33.173l-1.774 -1.888c-0.053,1.241 -0.106,2.482 -0.159,3.722l1.898 2.023 0.035 -3.857 0 0zm-0.129 14.259l-2.23 -2.387c-0.053,1.248 -0.106,2.495 -0.159,3.742l2.354 2.524c0.012,-1.293 0.023,-2.586 0.035,-3.879l0 0zm0.043 -4.762l-2.078 -2.219c-0.053,1.245 -0.106,2.49 -0.159,3.735l2.202 2.356c0.011,-1.29 0.023,-2.581 0.035,-3.872zm-0.129 14.309l-2.536 -2.723c-0.053,1.252 -0.106,2.504 -0.159,3.756l2.659 2.862c0.012,-1.298 0.024,-2.596 0.036,-3.895zm0.172 -19.061l-1.926 -2.053c-0.053,1.243 -0.106,2.485 -0.158,3.728l2.049 2.189c0.012,-1.288 0.023,-2.576 0.035,-3.864l0 0zm-0.129 14.283l-2.383 -2.554c-0.053,1.249 -0.106,2.499 -0.159,3.748l2.507 2.693 0.035 -3.887 0 0zm-5.726 76.129l2.255 2.508c0.047,-1.305 0.094,-2.611 0.141,-3.916l-2.231 -2.475c-0.055,1.294 -0.11,2.588 -0.165,3.883l0 0zm5.64 -66.563l-2.689 -2.894c-0.053,1.255 -0.106,2.509 -0.16,3.763l2.813 3.034c0.012,-1.301 0.024,-2.602 0.036,-3.903zm-6.58 88.685c0.6,-0.057 1.201,-0.114 1.802,-0.171l-1.714 -1.924c-0.029,0.698 -0.059,1.397 -0.089,2.095l0.001 0zm0.534 -12.572l2.313 2.584c0.047,-1.312 0.095,-2.624 0.142,-3.936l-2.289 -2.552c-0.056,1.301 -0.111,2.602 -0.166,3.904l0 0zm-0.204 4.792l2.342 2.624c0.047,-1.316 0.095,-2.632 0.143,-3.948l-2.319 -2.591c-0.055,1.305 -0.11,2.61 -0.166,3.915zm16.657 -4.099l1.208 -0.18 -1.208 -1.337 0 1.517zm-10.038 -117.725c-0.455,-0.594 -0.911,-1.188 -1.366,-1.782 -0.032,0.742 -0.063,1.485 -0.095,2.227l1.443 1.53c0.006,-0.659 0.012,-1.317 0.018,-1.975zm-0.068 7.589l-1.623 -1.724c-0.053,1.239 -0.105,2.477 -0.158,3.716l1.746 1.857c0.011,-1.283 0.023,-2.566 0.035,-3.849l0 0zm-6.144 104.662l2.284 2.546c0.047,-1.308 0.095,-2.617 0.142,-3.926l-2.261 -2.514c-0.055,1.298 -0.11,2.596 -0.165,3.894l0 0zm6.186 -109.391l-1.471 -1.56c-0.053,1.237 -0.105,2.473 -0.158,3.709l1.595 1.694c0.011,-1.281 0.022,-2.562 0.034,-3.843zm-6.797 123.768l2.371 2.664c0.048,-1.32 0.095,-2.64 0.143,-3.959l-2.347 -2.63 -0.167 3.925 0 0zm5.457 -3.953l2.211 2.47c0.265,-1.068 0.525,-2.147 0.78,-3.238l-2.991 -3.335 0 4.103 0 0zm0 -20.005l5.652 6.256c0.2,-1.133 0.394,-2.275 0.581,-3.429l-6.233 -6.883 0 4.056zm0 14.984l3.161 3.525c0.25,-1.084 0.494,-2.18 0.733,-3.285l-3.894 -4.331 0 4.091zm-4.038 -24.413l2.168 2.395c0.047,-1.295 0.094,-2.59 0.141,-3.885l-2.145 -2.364c-0.055,1.285 -0.11,2.57 -0.164,3.854zm4.038 34.468l1.203 1.349c0.281,-1.053 0.557,-2.118 0.828,-3.194l-2.031 -2.27 0 4.115 0 0zm0.779 -62.714l-3.457 -3.759c-0.054,1.267 -0.108,2.534 -0.162,3.801l3.583 3.904c0.012,-1.315 0.024,-2.631 0.036,-3.946l0 0zm-5.018 32.982l2.197 2.432c0.047,-1.298 0.094,-2.596 0.141,-3.894l-2.174 -2.401c-0.055,1.288 -0.11,2.575 -0.164,3.863zm4.239 -0.276l6.355 7.018c0.06,-0.377 0.12,-0.752 0.179,-1.131 0.12,-0.788 0.235,-1.571 0.347,-2.351l-6.881 -7.581 0 4.045zm-3.837 -9.186l2.14 2.358c0.046,-1.292 0.093,-2.584 0.14,-3.875l-2.117 -2.327c-0.055,1.282 -0.109,2.563 -0.163,3.844l0 0zm3.837 19.137l4.884 5.418c0.217,-1.116 0.429,-2.241 0.633,-3.378l-5.517 -6.108 0 4.068 0 0zm-3.637 -23.852l2.111 2.321c0.047,-1.289 0.093,-2.577 0.14,-3.866l-2.088 -2.291c-0.054,1.279 -0.109,2.558 -0.163,3.836l0 0zm3.637 28.846l4.053 4.508c0.234,-1.099 0.461,-2.21 0.683,-3.331l-4.736 -5.256 0 4.079 0 0zm0.823 -52.486l-3.303 -3.584c-0.054,1.265 -0.107,2.529 -0.161,3.794l3.428 3.728c0.012,-1.313 0.024,-2.625 0.036,-3.938zm0.043 -4.824l-3.148 -3.41c-0.054,1.262 -0.108,2.524 -0.161,3.785l3.274 3.553c0.011,-1.309 0.023,-2.619 0.035,-3.929l0 0.001zm0.044 -4.816l-2.995 -3.236c-0.054,1.259 -0.107,2.518 -0.161,3.778l3.12 3.378c0.012,-1.306 0.024,-2.613 0.036,-3.92l0 0zm0.043 -4.805l-2.841 -3.064c-0.054,1.256 -0.107,2.513 -0.16,3.77l2.966 3.205 0.035 -3.911zm-5.394 57.009l2.226 2.47c0.047,-1.302 0.094,-2.603 0.141,-3.905l-2.203 -2.438c-0.054,1.291 -0.109,2.582 -0.164,3.873l0 0zm4.441 30.034l0.142 0.159c0.295,-1.038 0.586,-2.087 0.872,-3.15l-1.014 -1.137 0 4.128zm-19.092 -103.852l-1.094 -1.182c-0.154,1.08 -0.338,2.184 -0.554,3.311l1.488 1.611c0.053,-1.247 0.107,-2.493 0.16,-3.74l0 0zm-7.56 19.868l8.741 9.567c0.082,-1.231 0.164,-2.462 0.246,-3.693l-7.775 -8.491c-0.404,0.921 -0.81,1.794 -1.212,2.617l0 0zm7.758 -24.463l-0.812 -0.876c-0.092,1.133 -0.214,2.302 -0.372,3.502l1.024 1.106c0.053,-1.244 0.106,-2.488 0.16,-3.732zm-4.937 17.852l6.522 7.107c0.082,-1.226 0.163,-2.452 0.244,-3.678l-5.783 -6.289c-0.316,0.988 -0.645,1.942 -0.983,2.86zm-1.343 3.378l7.565 8.261c0.081,-1.229 0.163,-2.458 0.244,-3.686l-6.706 -7.309c-0.361,0.952 -0.73,1.863 -1.103,2.734l0 0zm5.531 -22.94l0.786 0.848c0.054,-1.242 0.107,-2.484 0.161,-3.726l-0.786 -0.846c-0.02,1.189 -0.072,2.433 -0.161,3.724zm0.155 15.52l-2.293 -2.488c-0.269,1.03 -0.555,2.029 -0.854,2.996l5.626 6.118c0.007,-0.106 0.014,-0.212 0.021,-0.318 -0.871,-1.228 -1.742,-2.455 -2.613,-3.683 0.038,-0.875 0.075,-1.75 0.113,-2.625l0 0zm0.989 -22.978l-1.07 -1.149c0.065,1.243 0.101,2.577 0.095,3.991l0.815 0.877c0.053,-1.24 0.106,-2.48 0.16,-3.719l0 0zm0.037 -0.86c0.036,-0.841 0.072,-1.682 0.108,-2.523 -0.481,-0.29 -0.963,-0.58 -1.445,-0.871 0.065,0.676 0.124,1.392 0.173,2.144l1.164 1.25 0 0zm-0.828 19.226l-1.597 -1.729c-0.033,0.164 -0.065,0.327 -0.1,0.492 -0.19,0.906 -0.396,1.789 -0.612,2.653l2.148 2.331 0.161 -3.747 0 0zm-8.904 18.246c-0.002,0.059 -0.005,0.118 -0.007,0.178l9.989 10.956c0.082,-1.233 0.164,-2.467 0.245,-3.7l-8.976 -9.825c-0.426,0.853 -0.846,1.651 -1.251,2.391zm-2.376 62.723c0.051,0.002 0.102,0.004 0.153,0.006l-0.147 -0.165 -0.006 0.159 0 0zm12.056 -47.033c0.082,-1.236 0.164,-2.472 0.246,-3.708l-9.966 -10.93c-0.048,1.265 -0.096,2.53 -0.144,3.796l0.58 0.636c-0.012,0.292 -0.024,0.582 -0.035,0.873l-0.578 -0.635c-0.048,1.269 -0.096,2.537 -0.144,3.805l0.568 0.626c-0.011,0.291 -0.023,0.582 -0.035,0.873l-0.566 -0.624c-0.048,1.271 -0.096,2.542 -0.144,3.813l0.557 0.616 -0.035 0.874 -0.556 -0.613c-0.048,1.274 -0.096,2.548 -0.144,3.822l0.546 0.604 -0.036 0.876 -0.544 -0.602c-0.048,1.276 -0.097,2.553 -0.145,3.83l0.535 0.593c-0.012,0.293 -0.024,0.585 -0.035,0.877l-0.533 -0.591 -0.146 3.839 0.524 0.583 -0.035 0.877 -0.522 -0.58c-0.048,1.283 -0.097,2.566 -0.146,3.849l0.513 0.572c-0.012,0.293 -0.024,0.585 -0.036,0.879l-0.51 -0.57 -0.146 3.859 0.501 0.56 -0.035 0.88 -0.5 -0.558c-0.048,1.289 -0.097,2.579 -0.146,3.868l0.49 0.549c-0.012,0.294 -0.024,0.588 -0.035,0.881l-0.488 -0.546c-0.05,1.292 -0.098,2.585 -0.147,3.878l0.478 0.538c-0.011,0.294 -0.023,0.588 -0.035,0.882l-0.477 -0.536 -0.147 3.889 0.467 0.526c-0.012,0.295 -0.023,0.589 -0.035,0.884l-0.466 -0.524c-0.049,1.299 -0.098,2.599 -0.147,3.899l0.456 0.515c-0.012,0.295 -0.024,0.59 -0.036,0.885l-0.454 -0.513c-0.049,1.303 -0.099,2.607 -0.148,3.91l0.963 1.09c1.251,0.053 2.503,0.106 3.754,0.159l-1.406 -1.588 0.819 0 1.438 1.623c1.246,0.053 2.491,0.106 3.737,0.159l0.002 -0.029 -1.556 -1.753 0.82 0 0.786 0.885c0.016,-0.295 0.033,-0.59 0.05,-0.885l2.829 0c-0.743,-1.362 -1.644,-3.163 -2.524,-5.345 0.044,-0.765 0.088,-1.53 0.131,-2.295l-1.57 -1.76c-0.134,-0.434 -0.269,-0.892 -0.402,-1.371l2.022 2.266c0.072,-1.272 0.145,-2.543 0.217,-3.815l-3.436 -3.84c-0.06,-0.364 -0.118,-0.735 -0.171,-1.111l3.657 4.087c0.072,-1.268 0.145,-2.536 0.217,-3.804l-4.29 -4.783c-0.008,-0.326 -0.009,-0.628 -0.002,-0.921l4.341 4.84c0.072,-1.265 0.145,-2.53 0.217,-3.795l-4.2 -4.672c0.031,-0.251 0.065,-0.519 0.1,-0.805l4.149 4.615c0.072,-1.262 0.144,-2.524 0.216,-3.786l-3.969 -4.405c0.026,-0.266 0.052,-0.541 0.079,-0.828l3.939 4.371c0.073,-1.259 0.144,-2.518 0.216,-3.777l-3.844 -4.255c0.021,-0.275 0.042,-0.555 0.064,-0.844l3.829 4.239c0.072,-1.256 0.144,-2.512 0.216,-3.768l-3.796 -4.192c0.017,-0.293 0.034,-0.581 0.048,-0.86l3.797 4.192c0.071,-1.253 0.143,-2.507 0.214,-3.76l-3.899 -4.297c-0.002,-0.319 -0.007,-0.628 -0.015,-0.928l3.963 4.367c0.072,-1.251 0.143,-2.501 0.214,-3.752l-4.743 -5.214c-0.107,-0.442 -0.231,-0.879 -0.372,-1.321l5.167 5.68 0 0zm-30.92 -14.642l2.481 2.752c0.236,-0.993 0.502,-2.011 0.805,-3.052l-3.404 -3.768c-0.019,1.401 0.025,2.76 0.118,4.068l0 0zm3.029 -19.928c-0.275,0.673 -0.638,1.621 -1.018,2.791l5.516 6.063c0.436,-0.867 0.877,-1.691 1.316,-2.477l-5.814 -6.377 0 0zm-2.04 6.491l5.042 5.556c0.393,-0.903 0.796,-1.771 1.203,-2.603l-5.436 -5.976c-0.277,0.903 -0.555,1.917 -0.809,3.023zm9.554 -12.707l-2.404 -2.62c-0.514,0.67 -1.04,1.397 -1.565,2.187l3.91 4.27c0.02,-1.279 0.039,-2.558 0.059,-3.837l0 0zm-0.153 9.969c0.003,-0.166 0.005,-0.332 0.008,-0.499l-5.879 -6.434c-0.378,0.72 -0.746,1.47 -1.098,2.261 -0.036,0.079 -0.079,0.179 -0.13,0.296l5.869 6.439c0.414,-0.724 0.826,-1.413 1.23,-2.063l0 0zm-9.583 3.564c-0.226,1.082 -0.405,2.152 -0.544,3.207l4.418 4.88c0.349,-0.944 0.71,-1.86 1.082,-2.739l-4.936 -5.44c-0.007,0.031 -0.013,0.061 -0.02,0.092l0 0zm9.808 -18.255l-0.376 -0.41c-0.537,0.591 -1.117,1.264 -1.718,2.022l2.035 2.218c0.02,-1.277 0.039,-2.554 0.059,-3.83zm-0.145 9.452l-4.242 -4.633c-0.474,0.739 -0.945,1.527 -1.403,2.365l5.586 6.114c0.02,-1.282 0.04,-2.564 0.059,-3.846zm-10.568 16.453l3.59 3.974c0.302,-0.992 0.619,-1.955 0.952,-2.887l-4.279 -4.725c-0.14,1.237 -0.225,2.451 -0.263,3.638l0 0zm0.818 10.625l0.949 1.055c0.178,-1.042 0.392,-2.124 0.643,-3.238l-2.231 -2.475c0.151,1.649 0.374,3.208 0.639,4.658zm0.642 3.029c0.055,-0.393 0.115,-0.794 0.179,-1.199l-0.594 -0.66c0.133,0.644 0.272,1.266 0.415,1.859zm-8.869 -2.46c-0.338,-1.475 -0.657,-3.136 -0.909,-4.96l-6.246 -6.964c1.15,2.294 2.301,4.587 3.451,6.88 -0.074,0.216 -0.15,0.435 -0.225,0.653l3.929 4.391zm-44.792 -49.142c-0.028,0.863 -0.173,1.974 -0.613,3.144l8.531 9.559c1.387,2.021 2.78,3.636 3.927,4.844 -0.033,-0.876 -0.066,-1.752 -0.1,-2.628 0.127,-0.471 0.245,-0.937 0.355,-1.396l-0.426 -0.476 -0.036 -0.96 0.631 0.706c0.247,-1.099 0.448,-2.16 0.613,-3.174l-1.398 -1.558 -0.036 -0.959 1.554 1.733c0.089,-0.599 0.165,-1.18 0.229,-1.742 -0.61,-0.397 -1.219,-0.794 -1.829,-1.192 -0.037,-0.975 -0.074,-1.951 -0.111,-2.926 -3.247,-3.089 -6.494,-6.177 -9.741,-9.266 0.076,1.878 0.308,4.007 0.816,6.303 -0.813,-0.53 -1.626,-1.061 -2.44,-1.591 0.017,0.127 0.044,0.349 0.062,0.646l3.003 3.356c0.144,0.487 0.297,0.963 0.457,1.43l-3.448 -3.853 0 0zm-15.932 44.139l-1.967 -2.278c-0.426,0.804 -0.851,1.607 -1.277,2.411l1.096 1.272c0.699,-0.43 1.418,-0.899 2.148,-1.405l0 0zm31.829 55.798l2.609 3.058c1.335,0.206 2.669,0.413 4.004,0.62l-5.135 -6c-0.492,0.855 -0.992,1.629 -1.478,2.322l0 0zm3.318 -6.105l9.084 10.581c0.391,-0.902 0.783,-1.803 1.174,-2.704l-9.265 -10.759c-0.293,1.017 -0.629,1.978 -0.993,2.882l0 0zm-1.521 3.212l5.746 6.715c1.341,0.207 2.683,0.415 4.024,0.623l-8.513 -9.917c-0.397,0.924 -0.822,1.784 -1.257,2.579l0 0zm-7.829 -76.449l-12.627 -14.184c-0.706,0.679 -1.437,1.161 -2.078,1.5l13.581 15.294c0.408,-0.878 0.781,-1.749 1.124,-2.61l0 0zm1.221 -3.422l-11.962 -13.402c-0.276,0.595 -0.634,1.195 -1.099,1.778 -0.117,0.148 -0.238,0.286 -0.359,0.421l12.449 13.983c0.359,-0.941 0.681,-1.869 0.971,-2.78l0 0zm-9.259 18.378l0 3.898 5.474 6.248c-0.883,-2.165 -1.531,-4.25 -2.005,-6.198l-3.469 -3.948 0 0zm46.04 -20.754l-2.852 -3.128c-0.048,0.112 -0.097,0.222 -0.145,0.334 -0.337,0.79 -0.654,1.569 -0.958,2.339l2.743 3.015c0.366,-0.846 0.74,-1.606 1.212,-2.56zm-7.108 -7.795l-2.501 -2.744c-0.105,0.173 -0.21,0.345 -0.318,0.519 -0.375,0.603 -0.752,1.188 -1.13,1.757l2.816 3.095c0.385,-0.807 0.768,-1.683 1.133,-2.628l0 0.001zm10.13 -19.153c-0.157,0.061 -0.315,0.121 -0.472,0.182l0.952 1.031c-0.16,-0.404 -0.32,-0.809 -0.48,-1.213l0 0zm-7.603 6.355c-0.031,0.079 -0.064,0.159 -0.096,0.238l0.087 0.096c0.003,-0.112 0.007,-0.225 0.009,-0.334l0 0zm11.379 3.19c-0.891,-2.25 -1.781,-4.5 -2.671,-6.751l-2.192 -2.374c-0.456,0.177 -0.912,0.354 -1.368,0.53 0.236,0.868 0.472,1.735 0.708,2.603l5.523 5.992zm0.338 1.273l-5.512 -5.982c0.497,1.826 0.993,3.651 1.49,5.476l2.925 3.181c0.433,-1.043 0.802,-1.946 1.097,-2.675l0 0zm-2.476 5.95c0.008,-0.019 0.017,-0.038 0.025,-0.058 0.396,-0.927 0.762,-1.795 1.095,-2.594l-2.316 -2.518 0.033 0.123c-0.456,0.729 -0.917,1.489 -1.379,2.278l2.542 2.769zm-10.785 -0.493c0.062,-0.211 0.121,-0.419 0.179,-0.627l-1.979 -2.165c-0.423,0.78 -0.875,1.574 -1.354,2.378l2.414 2.647c0.26,-0.709 0.508,-1.453 0.74,-2.233l0 0zm9.103 4.35l-2.827 -3.087c-0.424,0.805 -0.846,1.636 -1.263,2.492l2.911 3.186c0.35,-0.752 0.74,-1.607 1.179,-2.591zm-8.072 -8.816l-1.271 -1.387c-0.387,0.81 -0.804,1.64 -1.253,2.488l1.86 2.035c0.279,-1.089 0.496,-2.136 0.664,-3.136zm0.468 -4.253l-0.309 -0.336c-0.348,0.838 -0.729,1.707 -1.147,2.603l1.11 1.211c0.183,-1.253 0.29,-2.419 0.346,-3.478zm-0.819 23.007c-0.334,0.983 -0.64,1.942 -0.922,2.877l2.883 3.183c0.222,-0.992 0.486,-2.001 0.795,-3.023l-2.756 -3.037 0 0zm9.84 -13.176l-2.599 -2.833c-0.447,0.775 -0.894,1.579 -1.339,2.41l2.793 3.05c0.351,-0.793 0.731,-1.664 1.145,-2.627zm-2.877 6.43l-2.918 -3.193c-0.4,0.836 -0.796,1.697 -1.185,2.58l2.876 3.154c0.347,-0.703 0.747,-1.522 1.227,-2.541l0 0zm-35.322 90.641c1.171,0.181 2.342,0.363 3.514,0.544l-2.048 -2.4c-0.524,0.717 -1.024,1.337 -1.466,1.856l0 0zm31.325 -81.539c0.182,-0.568 0.378,-1.141 0.591,-1.716 0.143,-0.388 0.28,-0.74 0.414,-1.072l-2.728 -3c-0.363,0.941 -0.7,1.865 -1.015,2.771l2.738 3.017 0 0zm-66.013 26.24c0.645,-0.346 1.319,-0.726 2.013,-1.141l-0.872 -1.014c-0.38,0.719 -0.761,1.437 -1.141,2.155l0 0zm82.235 35.735l7.233 8.146c-0.005,-0.728 -0.011,-1.456 -0.016,-2.184 -0.236,-0.727 -0.515,-1.66 -0.787,-2.765l-6.237 -7.005c-0.064,1.27 -0.128,2.539 -0.193,3.808l0 0zm1.99 -39.18c-0.034,0.673 -0.068,1.346 -0.103,2.019l2.498 2.758c-0.77,-1.927 -1.639,-3.532 -2.395,-4.777l0 0zm4.329 12.709l-4.71 -5.213c-0.063,1.252 -0.127,2.503 -0.191,3.755l4.867 5.4c0.075,-1.743 0.093,-3.005 0.034,-3.942zm-0.409 10.694c0.026,-0.437 0.052,-0.857 0.076,-1.264l-4.847 -5.39c-0.064,1.257 -0.127,2.515 -0.191,3.772l4.807 5.36c0.049,-0.761 0.101,-1.583 0.155,-2.478l0 0zm-7.348 44.098l0.166 0.19c0.714,-0.55 1.428,-1.1 2.142,-1.65l-2.112 -2.411 -0.196 3.871 0 0zm1.913 -37.671l4.893 5.482c-0.057,-1.229 -0.033,-2.443 0.044,-3.969l-4.745 -5.303c-0.064,1.263 -0.128,2.527 -0.192,3.79zm5.562 -8.551c0.085,-1.434 0.156,-2.678 0.208,-3.757l-4.871 -5.404c-0.063,1.254 -0.127,2.508 -0.191,3.763l4.854 5.398zm-7.234 41.472l2.554 2.915c0.714,-0.551 1.429,-1.101 2.143,-1.651l-4.501 -5.123c-0.065,1.286 -0.131,2.572 -0.196,3.859l0 0zm1.909 -37.581l4.748 5.307c0.062,-1.063 0.144,-2.281 0.24,-3.74l-4.796 -5.347c-0.064,1.26 -0.128,2.52 -0.192,3.78zm-1.189 23.404l7.785 8.813c-0.01,-1.368 -0.02,-2.736 -0.03,-4.105l-7.561 -8.536c-0.064,1.276 -0.129,2.552 -0.194,3.828l0 0zm0.715 -14.074l5.909 6.637c-0.229,-1.08 -0.439,-2.285 -0.593,-3.598 -0.051,-0.429 -0.091,-0.838 -0.123,-1.236l-5 -5.602c-0.065,1.266 -0.129,2.532 -0.193,3.799zm-1.194 23.513l4.943 5.627c0.715,-0.551 1.43,-1.101 2.144,-1.652l-6.892 -7.823c-0.065,1.283 -0.13,2.566 -0.195,3.848l0 0zm5.908 -51.697l-3.109 -3.433c-0.063,1.249 -0.126,2.498 -0.19,3.747l4.557 5.044c-0.265,-1.96 -0.716,-3.751 -1.258,-5.358l0 0zm-5.19 37.556l7.509 8.478c-0.011,-1.365 -0.021,-2.729 -0.031,-4.093l-7.284 -8.203c-0.065,1.272 -0.129,2.545 -0.194,3.818zm-0.284 5.578c-0.065,1.279 -0.13,2.559 -0.194,3.838l7.334 8.325c0.239,-0.184 0.478,-0.368 0.718,-0.553 -0.007,-0.912 -0.014,-1.826 -0.021,-2.739l-7.837 -8.871zm102.121 -46.045l-7.688 -8.122c0.771,2.137 1.542,4.275 2.313,6.412l5.375 5.688 0 -3.978 0 0zm0 -4.862l-10.303 -10.865c-0.004,0.108 -0.008,0.216 -0.012,0.324 0.702,1.947 1.404,3.894 2.107,5.84l8.208 8.671 0 -3.97 0 0zm18.591 52.306c0.529,-0.495 1.058,-0.99 1.587,-1.484l-1.587 -1.692 0 3.176 0 0zm-10.508 -19.02l4.416 4.416 -4.414 -4.696 -0.002 0.28 0 0zm-9.271 0.78c0.119,-0.241 0.238,-0.482 0.357,-0.723l-0.343 -0.366c-0.005,0.363 -0.009,0.726 -0.014,1.089l0 0zm0.149 -11.665l3.678 3.914c0.433,-0.876 0.866,-1.753 1.299,-2.63l-4.927 -5.233c-0.017,1.317 -0.034,2.633 -0.05,3.949zm1.039 -11.143l0 -1.525 -4.854 -5.137c0.775,2.147 1.549,4.294 2.324,6.442l8.345 8.847c0.432,-0.876 0.864,-1.751 1.296,-2.626l-6.37 -6.742 -0.741 0.741 0 0zm-0.951 4.158c-0.009,0.718 -0.018,1.436 -0.027,2.154l5.206 5.529c0.432,-0.876 0.865,-1.752 1.297,-2.628l-7.533 -7.986c0.353,0.977 0.705,1.954 1.057,2.931zm-0.15 11.826l2.151 2.292c0.433,-0.877 0.866,-1.754 1.299,-2.632l-3.4 -3.618c-0.016,1.32 -0.033,2.639 -0.05,3.958l0 0zm4.645 -19.528l14.097 14.892 0 -0.538c-2.952,-4.094 -5.904,-8.189 -8.856,-12.283 -0.057,-0.836 -0.115,-1.671 -0.172,-2.507 3.722,0.396 7.444,0.792 11.166,1.188 -3.485,-2.891 -6.969,-5.781 -10.454,-8.672 0.238,-4.673 0.475,-9.345 0.713,-14.018 -0.942,2.26 -2.176,4.804 -3.801,7.484 -2.019,3.328 -4.144,6.047 -6.059,8.197 1.551,1.657 3.101,3.314 4.652,4.971l-1.286 1.286 0 0zm4.55 24.405l15.006 15.968c0.676,-0.633 1.351,-1.265 2.027,-1.897l-16.996 -18.051c-0.012,1.327 -0.025,2.654 -0.037,3.98l0 0zm10.497 16.115l2.035 2.168c0.675,-0.632 1.351,-1.264 2.027,-1.896l-4.062 -4.322 0 4.05 0 0zm-19.754 -16.142l0.622 0.664c0.433,-0.878 0.867,-1.756 1.301,-2.634l-1.873 -1.996 -0.05 3.966 0 0zm9.395 -14.541l9.409 9.958 0 -4.012 -14.531 -15.35 -1.935 1.936 6.226 6.589c0.285,-0.577 0.57,-1.154 0.855,-1.732 -0.008,0.871 -0.016,1.741 -0.024,2.611l0 0zm-17.394 -52.197c-0.003,0.292 -0.007,0.584 -0.011,0.876l-0.255 -0.267c-0.048,1.255 -0.095,2.51 -0.142,3.766l0.347 0.364c-0.003,0.292 -0.007,0.584 -0.011,0.876l-0.369 -0.386c-0.047,1.257 -0.094,2.515 -0.142,3.772l0.461 0.484c-0.003,0.292 -0.007,0.585 -0.011,0.877l-0.482 -0.506c-0.048,1.259 -0.095,2.519 -0.143,3.779l0.575 0.604c-0.003,0.293 -0.007,0.585 -0.011,0.878l-0.596 -0.627c-0.048,1.262 -0.095,2.524 -0.143,3.786l0.689 0.725c-0.004,0.293 -0.008,0.586 -0.011,0.879l-0.71 -0.748c-0.048,1.264 -0.096,2.528 -0.144,3.792l10.271 10.831 0 -3.962 -8.604 -9.057c0.116,-0.174 0.231,-0.349 0.346,-0.526l8.258 8.693 0 -3.954 -6.784 -7.129c0.108,-0.185 0.214,-0.37 0.319,-0.554l6.465 6.794 0 -3.459c0,-0.161 -0.001,-0.325 -0.003,-0.49l-5.111 -5.363c0.099,-0.194 0.196,-0.389 0.291,-0.583l4.802 5.037c-0.042,-1.33 -0.148,-2.774 -0.353,-4.308l-3.226 -3.378c0.089,-0.206 0.176,-0.411 0.262,-0.614l2.81 2.944c-0.261,-1.638 -0.639,-3.366 -1.17,-5.155l-1.389 -1.452c-0.122,-0.424 -0.264,-0.871 -0.43,-1.336l1.402 1.466c-0.173,-0.516 -0.358,-1.035 -0.558,-1.558 -0.621,-1.628 -1.309,-3.113 -2.019,-4.455 -1.004,-1.248 -2.009,-2.495 -3.013,-3.743l-1.022 -1.067c-0.186,0.099 -0.372,0.197 -0.559,0.296 -0.036,0.971 -0.073,1.942 -0.11,2.913l0.235 0.245 -0.001 0zm-102.683 53.091c-0.32,-3.307 -0.298,-6.015 -0.238,-7.722 -0.663,0.476 -1.501,1.143 -2.374,2.034 -1.03,-0.797 -2.06,-1.594 -3.09,-2.39 -0.185,-0.629 -0.376,-1.322 -0.566,-2.072l-4.462 -4.988c-0.325,0.929 -0.662,1.867 -1.009,2.815l7.561 8.472c-0.122,0.166 -0.244,0.337 -0.364,0.512l-7.437 -8.332c-0.339,0.914 -0.691,1.838 -1.053,2.768l7.111 7.988c-0.095,0.208 -0.186,0.414 -0.27,0.619l-7.092 -7.966c-0.202,0.515 -0.406,1.031 -0.616,1.55 -0.159,0.394 -0.319,0.783 -0.479,1.173l7.222 8.134c-0.066,0.236 -0.131,0.47 -0.196,0.703l-7.286 -8.205c-0.377,0.906 -0.756,1.798 -1.138,2.679l7.597 8.578c-0.062,0.241 -0.123,0.48 -0.182,0.719l-7.684 -8.676c-0.39,0.893 -0.784,1.771 -1.178,2.637l8.163 9.241c-0.047,0.258 -0.091,0.517 -0.133,0.775l-8.308 -9.405c-0.405,0.879 -0.811,1.743 -1.218,2.594l9.15 10.387c-0.013,0.297 -0.023,0.595 -0.027,0.897l-9.411 -10.683c-0.03,0.063 -0.061,0.125 -0.092,0.189 -0.052,-0.176 -0.1,-0.347 -0.146,-0.511 0.036,0.196 0.07,0.395 0.104,0.597 -0.153,0.317 -0.306,0.635 -0.46,0.947 0.045,0.74 0.088,1.483 0.128,2.23l0.901 1.026c0.034,0.341 0.067,0.687 0.097,1.039l-0.949 -1.079c0.071,1.387 0.132,2.788 0.185,4.204l0.976 1.113c0.005,0.311 0.008,0.624 0.008,0.94l-0.949 -1.083c0.006,0.174 0.013,0.346 0.019,0.52 0.039,1.215 0.069,2.417 0.094,3.614l0.716 0.82c-0.018,0.285 -0.039,0.573 -0.061,0.862l-0.636 -0.728c0.024,1.369 0.039,2.725 0.046,4.07l0.206 0.236c-0.037,0.266 -0.076,0.533 -0.116,0.801l-0.086 -0.099c0,0.192 0.002,0.386 0.002,0.577 -0.234,-0.46 -0.469,-0.921 -0.703,-1.381l-14.817 -17.006c0.112,-0.186 0.221,-0.371 0.328,-0.557l13.344 15.316c-0.805,-1.581 -1.61,-3.162 -2.415,-4.743 -1.188,-1.228 -2.376,-2.455 -3.564,-3.683 0.232,-0.544 0.464,-1.089 0.695,-1.633l-6.772 -7.752c0.094,-0.206 0.186,-0.411 0.275,-0.617l6.764 7.742c0.381,-0.893 0.762,-1.787 1.142,-2.68l-6.857 -7.827c0.075,-0.23 0.146,-0.458 0.215,-0.685l6.909 7.886c0.38,-0.893 0.761,-1.786 1.141,-2.679l-7.279 -8.285c0.052,-0.257 0.101,-0.513 0.145,-0.763l7.4 8.423c0.381,-0.893 0.76,-1.785 1.141,-2.677l-8.105 -9.2c0.022,-0.3 0.041,-0.589 0.055,-0.865l8.316 9.44c0.38,-0.892 0.76,-1.783 1.139,-2.675l-11.293 -12.784c-0.215,-0.553 -0.431,-1.105 -0.646,-1.658l12.205 13.818c0.38,-0.891 0.759,-1.782 1.139,-2.673l-16.075 -18.15c-0.214,-0.55 -0.429,-1.101 -0.644,-1.651l16.985 19.177c0.126,-0.298 0.253,-0.595 0.38,-0.892l-0.064 -2.705 -0.543 -0.611c-0.017,-0.321 -0.033,-0.646 -0.048,-0.977l0.568 0.639c-0.032,-1.35 -0.064,-2.7 -0.096,-4.05l-0.6 -0.673c-0.005,-0.31 -0.01,-0.622 -0.013,-0.937l0.59 0.663c-0.032,-1.347 -0.064,-2.693 -0.096,-4.04l-0.481 -0.539c0.005,-0.298 0.012,-0.598 0.02,-0.899l0.439 0.492c-0.032,-1.343 -0.064,-2.686 -0.096,-4.029l-0.193 -0.216c0.016,-0.287 0.033,-0.575 0.051,-0.863l0.12 0.134c-0.011,-0.466 -0.023,-0.933 -0.034,-1.399 0.073,-0.972 0.157,-1.952 0.258,-2.937 0.106,-1.044 0.223,-2.029 0.356,-2.976 1.187,2.366 2.375,4.733 3.562,7.1l7.155 7.976c-0.052,-0.435 -0.101,-0.877 -0.144,-1.33 -0.08,-0.844 -0.174,-1.868 -0.245,-3.037l-10.23 -11.377c0.04,-0.262 0.081,-0.521 0.125,-0.778l10.051 11.179c-0.055,-1.203 -0.08,-2.536 -0.045,-3.974l-9.364 -10.389c0.058,-0.239 0.118,-0.478 0.18,-0.717l9.214 10.224c0.047,-1.148 0.134,-2.352 0.278,-3.606l-8.622 -9.544c0.075,-0.225 0.151,-0.446 0.227,-0.663l8.495 9.402c0.141,-1.069 0.323,-2.168 0.556,-3.292l-7.996 -8.83c0.645,-1.52 1.285,-2.803 1.832,-3.821l-0.04 0.036c0.251,-0.428 0.502,-0.856 0.753,-1.283 0.187,-0.346 0.376,-0.709 0.565,-1.088l-2.879 -3.165c-0.514,0.757 -1.029,1.481 -1.54,2.174l3.074 3.387c-0.151,0.138 -0.302,0.276 -0.453,0.413l-2.995 -3.299c-0.548,0.728 -1.092,1.421 -1.627,2.077l2.697 2.978c-0.151,0.138 -0.303,0.275 -0.454,0.413l-2.637 -2.913c-0.075,0.09 -0.15,0.181 -0.225,0.27 0.028,1.151 0.056,2.302 0.085,3.453l0.853 0.944c-0.151,0.138 -0.302,0.276 -0.453,0.414l-0.377 -0.418c0.032,1.331 0.065,2.663 0.098,3.994l0.684 0.759c0.04,0.33 0.08,0.661 0.12,0.991 -0.013,0.005 -0.025,0.011 -0.038,0.017l-0.743 -0.825 0.009 0.353 -10.692 -10.335c0.031,0.699 0.061,1.398 0.092,2.097l8.914 9.914c-0.18,0.1 -0.361,0.204 -0.545,0.311l-8.327 -9.261c0.06,1.358 0.119,2.716 0.178,4.074l5.94 6.623c-0.163,0.116 -0.326,0.235 -0.491,0.358l-0.006 0.005 -5.401 -6.02c0.021,0.467 0.041,0.935 0.062,1.402 -0.269,0.187 -0.765,0.536 -1.389,0.999l4.719 5.273c-0.155,0.139 -0.305,0.278 -0.451,0.416l-4.76 -5.32c-0.615,0.467 -1.314,1.018 -2.026,1.618l4.972 5.571c-0.052,0.058 -0.104,0.117 -0.154,0.174 0.139,0.348 0.279,0.696 0.419,1.044l-5.703 -6.39c-0.649,0.565 -1.296,1.164 -1.885,1.773l10.452 11.74c0.225,0.561 0.451,1.121 0.676,1.682l-11.549 -12.973c-0.814,0.893 -1.288,1.575 -1.577,2.026 -0.012,0.018 -0.022,0.035 -0.034,0.053l16.045 18.068c0.226,0.563 0.452,1.125 0.678,1.688l-17.056 -19.207c-0.097,0.168 -0.187,0.331 -0.27,0.489 -0.045,-0.116 -0.09,-0.233 -0.136,-0.349 -0.317,0.495 -0.633,0.99 -0.95,1.485l-0.356 15.562c1.227,-1.01 2.455,-2.019 3.682,-3.029 0.693,0.653 1.386,1.307 2.079,1.96l-5.643 5.405c0.253,0.717 0.732,2.265 0.796,4.29 -1.537,-2.046 -3.162,-4.577 -4.597,-7.616 -0.046,-0.098 -0.091,-0.196 -0.136,-0.294l-6.279 -7.166 0 3.908 10.986 12.574c-0.019,0.273 -0.046,0.552 -0.083,0.837l-10.903 -12.479 0 3.919 10.138 11.635c-0.082,0.22 -0.167,0.433 -0.257,0.639l-9.881 -11.341 0 3.929 8.544 9.834c-0.123,0.179 -0.246,0.347 -0.37,0.51l-8.174 -9.409 0 3.94 6.414 7.404c-0.085,0.076 -0.165,0.148 -0.237,0.211l-0.262 0.149 -5.915 -6.828 0 0.264c-0.527,0.607 -1.064,1.215 -1.608,1.825l5.225 6.049c-0.181,0.104 -0.362,0.207 -0.543,0.31l-5.094 -5.898c-0.572,0.636 -1.151,1.273 -1.742,1.911l-0.009 0.01 4.55 5.285c-0.18,0.103 -0.361,0.206 -0.542,0.309l-4.429 -5.143c-0.593,0.637 -1.187,1.265 -1.781,1.884l3.919 4.565 -0.543 0.31 -3.802 -4.43c-0.604,0.624 -1.208,1.24 -1.811,1.846l3.326 3.887c-0.18,0.103 -0.361,0.206 -0.542,0.309l-3.219 -3.761c-0.614,0.612 -1.227,1.216 -1.84,1.81l0.511 0.598c-0.081,0.107 -0.162,0.214 -0.242,0.322 0.033,0.143 0.066,0.296 0.099,0.455l-0.809 -0.947c-0.623,0.6 -1.246,1.19 -1.868,1.772l3.005 3.533c-0.015,0.283 -0.038,0.572 -0.069,0.866l-3.385 -3.981c-0.633,0.589 -1.265,1.168 -1.895,1.737l4.65 5.487c-0.065,0.225 -0.136,0.456 -0.216,0.693l-4.891 -5.77c-0.642,0.577 -1.284,1.143 -1.923,1.7l5.672 6.713c-0.102,0.19 -0.209,0.38 -0.322,0.57l-5.813 -6.881c-0.012,0.011 -0.024,0.022 -0.036,0.032 -0.669,0.227 -1.512,0.552 -2.436,1.011l6.736 8.001c-0.133,0.155 -0.271,0.308 -0.413,0.461l-6.881 -8.173c-0.703,0.38 -1.44,0.836 -2.177,1.386l7.141 8.511c-0.165,0.125 -0.331,0.246 -0.497,0.361l-7.129 -8.496c-1.014,0.816 -2.011,1.813 -2.897,3.036 -4.281,5.909 -4.165,14.565 0.238,22.017l21.303 0c-0.199,-1.181 -0.398,-2.363 -0.596,-3.544l-4.258 -5.075c-0.076,-0.385 -0.132,-0.77 -0.167,-1.153l4.224 5.035c-0.209,-1.246 -0.419,-2.492 -0.629,-3.737 0.198,-0.103 0.403,-0.21 0.613,-0.323l-3.78 -4.49c0.083,-0.208 0.178,-0.413 0.285,-0.613l4.044 4.802c0.704,-0.391 1.464,-0.838 2.266,-1.347l-4.581 -5.423c0.161,-0.122 0.328,-0.24 0.499,-0.359l4.601 5.446c0.691,-0.452 1.409,-0.95 2.145,-1.497l-4.64 -5.475c0.151,-0.127 0.305,-0.261 0.46,-0.404l4.671 5.51c0.664,-0.507 1.341,-1.054 2.025,-1.643l-4.961 -5.834c0.121,-0.168 0.24,-0.342 0.359,-0.525l5.064 5.956c0.632,-0.559 1.268,-1.155 1.905,-1.788l-5.675 -6.651c0.087,-0.21 0.173,-0.424 0.255,-0.647l5.853 6.861c0.502,-0.514 1.003,-1.051 1.501,-1.614 0.095,-0.107 0.188,-0.214 0.28,-0.321l-6.781 -7.924c0.052,-0.25 0.103,-0.505 0.15,-0.768l7.035 8.22c0.589,-0.698 1.139,-1.394 1.653,-2.084l-6.157 -7.173c1.196,1.079 2.392,2.158 3.587,3.237l2.943 3.428c0.114,-0.157 0.225,-0.313 0.335,-0.47 0.239,0.216 0.478,0.432 0.717,0.647 -0.046,-0.496 -0.092,-0.993 -0.138,-1.489 0.209,-0.312 0.412,-0.622 0.607,-0.928l-0.777 -0.903c-0.033,-0.351 -0.066,-0.702 -0.099,-1.053l1.216 1.411c0.509,-0.827 0.966,-1.631 1.378,-2.404l-3.01 -3.486c-0.033,-0.35 -0.065,-0.701 -0.098,-1.051l3.414 3.953c0.47,-0.917 0.875,-1.783 1.223,-2.582l-2.927 -3.38c0.14,-0.147 0.28,-0.297 0.42,-0.451l2.775 3.203c0.088,-0.212 0.173,-0.419 0.253,-0.62 1.319,1.826 2.638,3.653 3.956,5.479l10.642 12.285c-0.066,0.237 -0.134,0.471 -0.202,0.704l-9.295 -10.731c0.009,1.122 -0.043,2.392 -0.207,3.779l8.554 9.904c-0.078,0.225 -0.157,0.446 -0.236,0.665l-8.425 -9.756c-0.149,1.021 -0.358,2.095 -0.649,3.213 -0.004,0.016 -0.008,0.032 -0.013,0.048l9.34 10.847c0.391,-0.901 0.782,-1.801 1.173,-2.701l-1.331 -1.542c0.148,-0.133 0.299,-0.271 0.453,-0.413l1.149 1.331c0.391,-0.9 0.782,-1.799 1.172,-2.699l-0.432 -0.499c0.14,-0.147 0.28,-0.296 0.421,-0.45l0.282 0.325 0.544 -1.252c1.418,-1.641 2.878,-3.598 4.23,-5.905 1.451,-2.477 2.471,-4.835 3.198,-6.9 0.288,0.096 0.575,0.191 0.863,0.287l-0.691 -0.785c0.078,-0.229 0.152,-0.456 0.223,-0.676l1.051 1.196c0.016,0.114 0.031,0.228 0.048,0.344 0.39,2.564 1.319,6.514 3.802,10.929 3.179,-3.212 3.875,-5.877 3.92,-7.722 0.076,-3.127 -1.693,-4.946 -1.426,-8.909 0.144,-2.12 0.799,-3.807 1.307,-4.871 0.78,1.673 1.596,3.83 2.138,6.415 0.359,1.707 0.528,3.271 0.594,4.633 0.696,-3.799 0.705,-6.858 0.594,-8.909 -0.238,-4.406 -1.155,-6.506 -1.663,-11.761l0 0zm-36.417 9.486c0.126,-0.164 0.251,-0.331 0.376,-0.501l16.503 18.996c-0.053,0.251 -0.107,0.501 -0.162,0.748l-16.717 -19.243 0 0zm22.235 4.824l1.017 1.159c-0.339,-0.364 -0.68,-0.75 -1.017,-1.159zm84.644 25.132l0.464 0.51c0.21,-1.097 0.388,-2.269 0.515,-3.509l-4.145 -4.546c0.069,-0.228 0.138,-0.456 0.207,-0.684l4.014 4.403c0.102,-1.247 0.15,-2.558 0.126,-3.926l-3.22 -3.524c0.069,-0.228 0.138,-0.456 0.207,-0.683l2.986 3.268c-0.007,-0.166 -0.014,-0.331 -0.022,-0.498 -0.075,-1.4 -0.221,-2.748 -0.423,-4.042l-1.622 -1.771c0.069,-0.228 0.137,-0.455 0.206,-0.683l1.222 1.335c-0.378,-2.035 -0.894,-3.925 -1.487,-5.663l-0.581 -0.632c0.275,-0.286 0.549,-0.573 0.824,-0.859 -0.696,-2.534 -1.92,-5.916 -4.158,-9.504 -1.664,-2.668 -3.45,-4.746 -4.99,-6.296 0.436,-20.076 0.871,-40.152 1.307,-60.229 -0.24,0.528 -0.48,1.056 -0.72,1.584 -0.35,0.489 -0.73,1.04 -1.128,1.654l0.254 0.269c-0.063,0.138 -0.125,0.276 -0.188,0.414 -0.003,0.09 -0.007,0.18 -0.01,0.271l-0.395 -0.42c-0.372,0.594 -0.755,1.237 -1.139,1.93 -0.081,0.146 -0.169,0.307 -0.262,0.481l1.658 1.765c-0.01,0.288 -0.021,0.575 -0.031,0.862l-1.929 -2.052c-0.359,0.698 -0.778,1.569 -1.22,2.606l3.011 3.209c-0.011,0.288 -0.021,0.575 -0.032,0.863l-3.238 -3.452c-0.342,0.839 -0.692,1.776 -1.034,2.807l4.134 4.415c-0.01,0.288 -0.021,0.576 -0.032,0.864l-4.319 -4.613c-0.294,0.931 -0.58,1.935 -0.846,3.01l5.027 5.38c-0.011,0.288 -0.021,0.576 -0.032,0.864l-5.167 -5.529c-0.111,0.477 -0.219,0.966 -0.321,1.469 -0.121,0.596 -0.228,1.182 -0.325,1.76l5.674 6.084c-0.01,0.288 -0.021,0.577 -0.031,0.865l-5.766 -6.182c-0.183,1.198 -0.319,2.358 -0.416,3.483l6.043 6.491 -0.032 0.866 -6.075 -6.527c-0.093,1.309 -0.137,2.569 -0.145,3.781l6.08 6.545 -0.031 0.866 -6.048 -6.509c0.009,1.428 0.062,2.79 0.132,4.087l5.776 6.229c-0.01,0.289 -0.021,0.579 -0.032,0.868l-5.689 -6.136c0.036,0.608 0.075,1.203 0.113,1.783 0.059,0.906 0.126,1.734 0.197,2.505l5.239 5.662c-0.01,0.29 -0.021,0.579 -0.031,0.869l-5.112 -5.524c0.168,1.685 0.338,3.091 0.439,4.439l4.532 4.907c-0.01,0.29 -0.021,0.58 -0.032,0.87l-4.439 -4.807c0.059,1.232 0.043,2.462 -0.101,3.864l4.4 4.773c-0.011,0.291 -0.021,0.581 -0.032,0.871l-4.462 -4.842c-0.036,0.275 -0.077,0.556 -0.123,0.846 -0.139,0.866 -0.307,1.689 -0.492,2.468l4.936 5.367c-0.01,0.29 -0.021,0.581 -0.032,0.871l-5.081 -5.525c-0.286,1.096 -0.604,2.092 -0.925,2.982l5.865 6.391c-0.011,0.291 -0.021,0.581 -0.032,0.872l-6.072 -6.617c-0.249,0.649 -0.494,1.234 -0.721,1.745 0.007,-0.836 0.015,-1.671 0.022,-2.506l-3.612 -3.936c-0.053,1.27 -0.107,2.54 -0.161,3.81l10.403 11.36c-0.011,0.291 -0.022,0.582 -0.032,0.873l-10.408 -11.366 -0.162 3.819 10.428 11.413 -0.032 0.874 -10.433 -11.419c-0.055,1.276 -0.109,2.551 -0.163,3.827l2.083 2.284c0.015,-0.437 0.031,-0.874 0.047,-1.312 0.436,0.634 0.871,1.267 1.307,1.901l0 0.897 7.017 7.696c-0.011,0.292 -0.022,0.584 -0.032,0.875l-6.985 -7.661 0 4.023 6.842 7.522c-0.011,0.292 -0.021,0.584 -0.032,0.876l-6.81 -7.486 0 4.034 6.667 7.346 -0.015 0.41c0.044,-0.092 0.089,-0.186 0.133,-0.28l0.208 0.228c0.045,-0.324 0.088,-0.646 0.132,-0.969 0.645,-1.451 1.284,-3.141 1.816,-5.055 0.738,1.722 1.475,3.443 2.213,5.164 -0.036,4.026 -0.071,8.052 -0.106,12.079 0.118,0.016 0.237,0.033 0.356,0.05l0 3.576 1.936 2.143c1.088,-0.162 2.176,-0.323 3.264,-0.485l-4.672 -5.159c0.317,0.044 0.633,0.089 0.949,0.134l4.452 4.916c0.505,-0.075 1.01,-0.151 1.516,-0.226 0.176,-0.49 0.358,-1.025 0.539,-1.598l-2.261 -2.492c0.316,0.045 0.633,0.09 0.95,0.135l1.52 1.675c0.132,-0.447 0.263,-0.916 0.389,-1.406 0.941,0.133 1.882,0.267 2.823,0.4 -0.906,-1.148 -1.811,-2.296 -2.716,-3.443l0 0zm-3.341 -18.561c-0.04,-0.031 -0.081,-0.062 -0.121,-0.092l0.019 -0.02 0.102 0.112 0 0zm-6.489 -7.087l1.016 1.11 -0.008 0.899 -1.009 -1.102c0.004,-0.308 0.004,-0.611 0.001,-0.907l0 0zm-0.242 4.671l1.215 1.33c-0.003,0.3 -0.006,0.6 -0.008,0.9l-1.31 -1.433c0.038,-0.268 0.073,-0.534 0.103,-0.797zm-0.905 4.863c0.06,-0.235 0.119,-0.475 0.176,-0.716l1.901 2.085c-0.003,0.3 -0.006,0.601 -0.008,0.901l-2.069 -2.27 0 0zm-128.306 -42.852c-0.045,0.084 -0.089,0.169 -0.134,0.253l2.163 2.504c0.672,-0.479 1.353,-0.991 2.038,-1.539l-1.723 -1.989c0.204,-0.082 0.401,-0.167 0.592,-0.252l1.607 1.855c0.64,-0.527 1.283,-1.086 1.923,-1.678l-1.241 -1.428c0.177,-0.118 0.346,-0.236 0.506,-0.352l1.182 1.361c0.606,-0.576 1.208,-1.182 1.804,-1.818l-1.085 -1.245c0.045,-0.05 0.089,-0.099 0.129,-0.145 0.093,-0.106 0.183,-0.216 0.274,-0.326l1.1 1.262c0.568,-0.625 1.129,-1.278 1.68,-1.962l-1.273 -1.457c0.112,-0.185 0.223,-0.369 0.33,-0.555l1.331 1.523c0.16,-0.205 0.32,-0.413 0.478,-0.623 0.375,-0.499 0.731,-0.997 1.071,-1.491l-1.601 -1.827c0.101,-0.206 0.199,-0.407 0.291,-0.599l1.665 1.9c0.511,-0.767 0.98,-1.526 1.413,-2.271l-1.917 -2.182c0.089,-0.207 0.177,-0.415 0.267,-0.625l9.597 10.924c-0.367,-1.723 -0.601,-3.32 -0.748,-4.748l-7.714 -8.756c0.091,-0.196 0.186,-0.397 0.285,-0.604l7.334 8.325c-0.035,-0.438 -0.062,-0.856 -0.083,-1.254 0.351,-0.493 0.702,-1.007 1.051,-1.537l-7.058 -7.991c0.106,-0.199 0.209,-0.391 0.31,-0.575l7.095 8.032c0.471,-0.735 0.936,-1.504 1.393,-2.309l-9.294 -10.493c-0.636,-1.026 -1.271,-2.052 -1.907,-3.078l11.517 13.004c0.073,-0.133 0.147,-0.264 0.219,-0.398 0.371,-0.688 0.718,-1.374 1.046,-2.055l-13.868 -15.618c-0.331,0.148 -0.619,0.255 -0.839,0.329 -0.039,0.811 -0.077,1.622 -0.116,2.434l1.149 1.297c-0.09,0.191 -0.185,0.392 -0.286,0.601l-0.905 -1.021c-0.049,1.035 -0.098,2.07 -0.148,3.104 -0.389,0.738 -0.827,1.534 -1.317,2.375 -2.781,4.772 -4.595,7.885 -7.999,10.138 -1.442,0.953 -3.96,2.277 -7.761,2.692 0.501,3.881 1.003,7.762 1.504,11.642 1.777,-0.129 3.325,-0.398 4.673,-0.754l0 0zm154.412 14.594c-2.84,-0.359 -4.384,-2.648 -4.633,-3.03 0.139,4.396 0.278,8.791 0.416,13.187 1.024,-1.9 2.274,-3.969 3.802,-6.118 1.179,-1.66 2.363,-3.142 3.504,-4.455 -0.613,0.246 -1.725,0.588 -3.089,0.416l0 0zm15.701 -8.929c-1.203,2.807 -2.469,5.66 -3.801,8.553 -1.983,4.305 -3.996,8.445 -6.019,12.418l0 16.33c1.51,-1.781 3.144,-3.609 4.91,-5.465 2.289,-2.405 4.547,-4.591 6.732,-6.573 -0.819,-1.03 -1.637,-2.059 -2.456,-3.089 0.212,-7.391 0.423,-14.783 0.634,-22.174zm38.41 26.768c-1.387,-3.791 -0.967,-7.355 -0.475,-9.583 -3.247,3.489 -6.494,6.979 -9.741,10.468l0 -3.837 -9.418 -9.967c-0.012,1.321 -0.025,2.642 -0.037,3.963l9.369 9.933c-0.139,0.15 -0.279,0.3 -0.418,0.45l-8.96 -9.498c-0.012,1.323 -0.025,2.647 -0.037,3.971l17.435 18.517c0.675,-0.632 1.351,-1.264 2.026,-1.896l-5.961 -6.319c1.852,1.665 3.705,3.331 5.557,4.997l0.852 0.903c0.025,-0.024 0.05,-0.047 0.075,-0.07 0.148,0.134 0.297,0.268 0.446,0.402l0 13.706 8.48 0 0 -12.283c-2.727,-3.516 -4.812,-6.524 -6.263,-8.709 -2.034,-3.064 -2.544,-4.093 -2.93,-5.148zm5.227 -55.794c-0.809,-0.668 -1.609,-1.474 -2.257,-2.613 -1.791,-3.151 -1.173,-6.667 -0.713,-8.435 -2.415,2.059 -4.831,4.118 -7.246,6.177 1.623,0.317 3.247,0.634 4.87,0.951l0 0.422c-0.598,0.333 -1.197,0.665 -1.795,0.998l1.795 1.859 0 0.883 -2.35 -2.434c-0.822,0.457 -1.644,0.913 -2.467,1.371l4.817 4.997 0 0.883 -5.372 -5.572c-0.308,0.171 -0.616,0.342 -0.924,0.513 -0.009,-0.5 -0.018,-1.001 -0.028,-1.501l-8.453 -8.769c0.594,1.923 1.189,3.847 1.783,5.77l12.994 13.5 0 0.884 -12.591 -13.082c0.596,1.93 1.193,3.86 1.789,5.79l10.802 11.24 0 3.083c8.712,3.192 17.423,6.384 26.135,9.576l0 -16.2c-2.073,-0.792 -15.603,-6.008 -20.789,-10.291l0 0z"/>
   </g>
  </g>
  <path fill="none" d="M136.796 295.988c2.461,-0.097 4.626,-0.225 7.017,-0.355 2.39,-0.131 5.006,-0.265 8.261,-0.493 3.256,-0.228 7.151,-0.55 10.471,-0.852 3.319,-0.302 6.061,-0.583 8.794,-0.949 2.732,-0.365 5.455,-0.814 7.654,-1.25 2.2,-0.436 3.876,-0.858 6.001,-1.331 2.126,-0.473 4.701,-0.996 6.595,-1.321 1.894,-0.325 3.108,-0.453 4.268,-0.536 1.16,-0.084 2.267,-0.124 3.155,-0.117 0.889,0.008 1.559,0.063 1.956,0.094 0.396,0.031 0.518,0.038 0.611,0.043 0.049,0.002 0.09,0.004 0.127,0.006 0.093,-0.07 0.162,-0.18 0.177,-0.779 0.016,-0.673 -0.037,-1.966 -0.106,-2.786 -0.069,-0.819 -0.154,-1.166 -0.285,-1.855 -0.131,-0.689 -0.307,-1.72 -0.651,-2.686 -0.345,-0.965 -0.858,-1.866 -1.476,-3.045 -0.619,-1.179 -1.343,-2.638 -1.783,-3.616 -0.44,-0.978 -0.596,-1.476 -0.848,-2.693 -0.251,-1.217 -0.598,-3.153 -0.953,-5.871 -0.354,-2.718 -0.716,-6.219 -1.038,-8.884 -0.322,-2.666 -0.603,-4.496 -1.081,-7.559 -0.478,-3.062 -1.152,-7.357 -1.71,-11.521 -0.558,-4.164 -1.001,-8.198 -1.348,-12.226 -0.347,-4.028 -0.598,-8.051 -0.759,-11.637 -0.161,-3.586 -0.231,-6.734 -0.287,-9.787 -0.055,-3.052 -0.095,-6.01 -0.156,-9.258 -0.06,-3.249 -0.14,-6.79 -0.108,-12.037 0.033,-5.248 0.179,-12.203 0.352,-17.466 0.174,-5.263 0.375,-8.834 0.652,-12.807 0.276,-3.973 0.628,-8.348 0.975,-12.271 0.347,-3.922 0.689,-7.393 1.122,-11.743 0.432,-4.35 0.955,-9.58 1.483,-13.99 0.528,-4.411 1.061,-8.002 1.512,-10.619 0.45,-2.618 0.817,-4.262 1.139,-5.308 0.321,-1.046 0.598,-1.494 0.803,-1.766 0.205,-0.271 0.338,-0.367 0.405,-0.414 0.066,-0.048 0.066,-0.048 0.049,0.598 -0.018,0.646 -0.053,1.939 -0.108,3.533 -0.056,1.594 -0.131,3.49 -0.173,4.967 -0.041,1.478 -0.049,2.536 -0.079,3.186 -0.03,0.65 -0.083,0.892 -0.102,1.011 -0.018,0.119 -0.003,0.117 -0.041,0.151 -0.038,0.034 -0.128,0.104 -0.133,0.68 -0.005,0.576 0.075,1.657 0.192,3.051 0.117,1.395 0.27,3.102 0.322,4.786 0.051,1.683 0.001,3.343 0.002,4.231 0,0.887 0.052,1.003 0.132,1.078 0.08,0.076 0.188,0.111 1.001,0.06 0.814,-0.051 2.333,-0.188 4.105,-0.324 1.773,-0.137 3.8,-0.273 5.955,-0.431 2.155,-0.158 4.438,-0.339 6.588,-0.463 2.15,-0.123 4.166,-0.188 5.992,-0.299 1.826,-0.111 3.46,-0.267 5.336,-0.47 1.876,-0.204 3.993,-0.455 6.015,-0.682 2.021,-0.226 3.947,-0.427 5.109,-0.565 1.162,-0.139 1.559,-0.214 1.758,-0.327 0.199,-0.113 0.199,-0.264 0.229,-0.906 0.03,-0.641 0.09,-1.772 0.108,-3.132 0.017,-1.361 -0.008,-2.95 -0.023,-4.429 -0.015,-1.478 -0.02,-2.846 -0.038,-3.724 -0.017,-0.877 -0.047,-1.264 -0.071,-1.469 -0.025,-0.205 -0.043,-0.227 -0.083,-0.294 -0.04,-0.068 -0.103,-0.181 -0.174,-0.682 -0.071,-0.5 -0.152,-1.388 -0.255,-2.32 -0.103,-0.933 -0.229,-1.911 -0.348,-2.739 -0.12,-0.827 -0.233,-1.504 -0.413,-2.544 -0.179,-1.042 -0.426,-2.447 -0.613,-3.449 -0.187,-1.002 -0.316,-1.601 -0.436,-2.27 -0.121,-0.668 -0.234,-1.408 -0.366,-2.121 -0.132,-0.713 -0.283,-1.399 -0.425,-2.156 -0.142,-0.757 -0.275,-1.584 -0.375,-2.322 -0.099,-0.738 -0.165,-1.387 -0.239,-2.029 -0.074,-0.643 -0.157,-1.279 -0.257,-2.036 -0.101,-0.757 -0.219,-1.634 -0.34,-2.526 -0.121,-0.891 -0.244,-1.796 -0.353,-2.565 -0.11,-0.768 -0.205,-1.399 -0.373,-2.344 -0.168,-0.945 -0.408,-2.203 -0.82,-4.085 -0.412,-1.881 -0.995,-4.386 -1.704,-6.89 -0.709,-2.505 -1.544,-5.009 -2.651,-7.745 -1.106,-2.736 -2.484,-5.703 -4.093,-8.851 -1.61,-3.149 -3.45,-6.478 -4.878,-8.781 -1.429,-2.304 -2.444,-3.581 -3.453,-4.629 -1.008,-1.049 -2.009,-1.869 -3.015,-2.608 -1.006,-0.739 -2.017,-1.398 -2.582,-1.773 -0.566,-0.375 -0.687,-0.465 -0.756,-0.571 -0.069,-0.105 -0.087,-0.226 -0.095,-0.303 -0.009,-0.077 -0.009,-0.109 -0.07,-0.174 -0.06,-0.066 -0.181,-0.164 -1.307,-0.714 -1.127,-0.551 -3.259,-1.555 -5.31,-2.603 -2.05,-1.048 -4.019,-2.142 -5.77,-2.976 -1.752,-0.833 -3.286,-1.407 -5.061,-1.957 -1.775,-0.551 -3.792,-1.079 -5.429,-1.507 -1.637,-0.427 -2.894,-0.754 -3.762,-1.008 -0.867,-0.254 -1.345,-0.435 -2.044,-0.7 -0.699,-0.266 -1.619,-0.615 -2.606,-0.909 -0.987,-0.295 -2.041,-0.533 -2.716,-0.687 -0.675,-0.153 -0.972,-0.221 -1.44,-0.471 -0.467,-0.25 -1.106,-0.683 -1.581,-0.937 -0.475,-0.254 -0.787,-0.329 -1.073,-0.365 -0.285,-0.035 -0.544,-0.03 -0.777,-0.03 -0.232,0 -0.438,-0.005 -1.342,-0.33 -0.904,-0.326 -2.506,-0.972 -4.026,-1.577 -1.52,-0.605 -2.959,-1.168 -4.404,-1.748 -1.446,-0.579 -2.9,-1.175 -3.816,-1.569 -0.917,-0.393 -1.297,-0.584 -1.594,-0.779 -0.298,-0.194 -0.514,-0.392 -0.705,-0.497 -0.191,-0.105 -0.356,-0.116 -0.467,-0.117 -0.11,0 -0.164,0.01 -0.251,-0.004 -0.086,-0.014 -0.204,-0.052 -0.587,-0.292 -0.382,-0.24 -1.028,-0.682 -1.678,-1.193 -0.65,-0.51 -1.304,-1.089 -1.956,-1.661 -0.653,-0.572 -1.304,-1.138 -2.311,-1.569 -1.007,-0.431 -2.37,-0.728 -3.723,-0.919 -1.353,-0.191 -2.695,-0.276 -4.576,-0.354 -1.881,-0.078 -4.3,-0.149 -7.931,-0.131 -3.631,0.017 -8.474,0.123 -12.914,0.219 -4.439,0.096 -8.475,0.183 -10.597,0.231 -2.123,0.048 -2.332,0.058 -4.152,0.203 -1.82,0.145 -5.249,0.427 -7.404,0.671 -2.155,0.244 -3.035,0.45 -3.752,0.707 -0.717,0.256 -1.27,0.563 -1.886,1.078 -0.616,0.516 -1.295,1.24 -2.019,1.877 -0.725,0.638 -1.494,1.189 -1.953,1.46 -0.459,0.272 -0.607,0.264 -0.901,0.366 -0.295,0.102 -0.735,0.313 -1.268,0.582 -0.533,0.269 -1.159,0.596 -1.919,0.922 -0.761,0.325 -1.656,0.65 -2.301,0.904 -0.645,0.254 -1.04,0.437 -1.514,0.628 -0.474,0.192 -1.027,0.39 -1.765,0.621 -0.738,0.232 -1.661,0.496 -2.558,0.836 -0.896,0.341 -1.766,0.759 -2.573,1.076 -0.808,0.316 -1.552,0.533 -2.299,0.749 -0.746,0.216 -1.496,0.432 -2.053,0.655 -0.557,0.222 -0.921,0.451 -1.207,0.636 -0.285,0.185 -0.491,0.326 -0.999,0.476 -0.508,0.15 -1.318,0.31 -1.914,0.463 -0.596,0.154 -0.978,0.301 -1.488,0.492 -0.51,0.192 -1.147,0.429 -1.75,0.617 -0.603,0.189 -1.171,0.329 -1.687,0.459 -0.516,0.13 -0.98,0.248 -1.7,0.426 -0.719,0.179 -1.693,0.418 -2.551,0.633 -0.857,0.216 -1.598,0.408 -2.171,0.57 -0.573,0.161 -0.979,0.292 -1.436,0.426 -0.456,0.134 -0.963,0.271 -1.427,0.4 -0.465,0.129 -0.887,0.249 -1.312,0.377 -0.424,0.128 -0.85,0.262 -1.203,0.399 -0.353,0.137 -0.632,0.277 -1.012,0.437 -0.38,0.159 -0.862,0.339 -1.279,0.53 -0.417,0.191 -0.769,0.394 -1.165,0.602 -0.397,0.209 -0.838,0.424 -1.221,0.617 -0.382,0.194 -0.705,0.366 -1.126,0.589 -0.421,0.223 -0.941,0.495 -1.657,0.865 -0.717,0.371 -1.631,0.838 -2.694,1.37 -1.063,0.532 -2.275,1.128 -3.18,1.576 -0.905,0.448 -1.504,0.747 -2.037,1.087 -0.533,0.341 -1.001,0.723 -1.443,1.08 -0.443,0.358 -0.86,0.689 -1.353,1.079 -0.493,0.39 -1.061,0.837 -1.779,1.475 -0.718,0.637 -1.586,1.465 -2.375,2.331 -0.79,0.866 -1.501,1.771 -2.145,2.665 -0.644,0.894 -1.22,1.777 -1.924,2.935 -0.704,1.158 -1.536,2.591 -2.208,3.821 -0.671,1.229 -1.181,2.255 -1.732,3.264 -0.551,1.008 -1.141,1.999 -1.644,2.942 -0.503,0.943 -0.918,1.838 -1.313,2.759 -0.395,0.922 -0.77,1.87 -1.152,2.756 -0.382,0.887 -0.772,1.712 -1.285,3.043 -0.513,1.331 -1.149,3.17 -1.716,4.911 -0.567,1.741 -1.065,3.386 -1.49,4.836 -0.425,1.451 -0.777,2.709 -1.129,4.225 -0.352,1.516 -0.704,3.291 -1.144,5.668 -0.44,2.376 -0.968,5.353 -1.29,7.073 -0.322,1.72 -0.438,2.183 -0.543,2.673 -0.106,0.491 -0.201,1.009 -0.4,1.833 -0.198,0.825 -0.5,1.957 -0.807,3.143 -0.307,1.187 -0.618,2.43 -0.84,3.478 -0.221,1.049 -0.352,1.904 -0.575,3.166 -0.224,1.262 -0.541,2.932 -0.787,4.297 -0.247,1.366 -0.423,2.427 -0.529,2.975 -0.105,0.548 -0.14,0.583 -0.204,0.634 -0.063,0.05 -0.155,0.115 -0.251,2.246 -0.096,2.13 -0.197,6.326 -0.275,8.622 -0.078,2.297 -0.133,2.694 0.035,2.902 0.169,0.209 0.561,0.229 1.419,0.337 0.857,0.108 2.18,0.305 4.51,0.755 2.332,0.45 5.671,1.154 8.339,1.667 2.668,0.513 4.664,0.835 6.751,1.182 2.088,0.347 4.265,0.719 7.24,1.192 2.975,0.472 6.746,1.046 9.15,1.373 2.404,0.327 3.44,0.407 3.958,0.447 0.518,0.041 0.518,0.041 0.568,-0.543 0.049,-0.583 0.149,-1.75 0.263,-2.759 0.114,-1.009 0.242,-1.86 0.394,-2.937 0.152,-1.077 0.328,-2.379 0.498,-3.576 0.17,-1.197 0.333,-2.289 0.417,-2.902 0.085,-0.614 0.089,-0.749 0.076,-0.865 -0.014,-0.116 -0.047,-0.211 -0.023,-1.818 0.024,-1.607 0.104,-4.725 0.147,-7.257 0.043,-2.532 0.048,-4.478 0.059,-5.601 0.011,-1.123 0.029,-1.422 0.067,-1.618 0.038,-0.197 0.095,-0.29 0.176,-0.338 0.08,-0.05 0.184,-0.055 0.308,0.038 0.124,0.094 0.27,0.285 0.345,0.376 0.074,0.092 0.076,0.085 0.078,0.081 0.001,-0.004 0.001,-0.004 0.115,0.253 0.114,0.256 0.343,0.769 0.597,1.463 0.254,0.694 0.533,1.569 0.762,2.507 0.229,0.938 0.408,1.939 0.607,3.547 0.2,1.608 0.422,3.823 0.739,6.228 0.316,2.406 0.729,5.001 1.468,11.393 0.739,6.392 1.805,16.58 2.64,24.511 0.835,7.931 1.439,13.604 1.811,19.699 0.372,6.095 0.513,12.613 0.503,19.654 -0.01,7.04 -0.171,14.604 -0.372,20.609 -0.202,6.004 -0.443,10.45 -0.725,14.423 -0.281,3.973 -0.603,7.473 -1.448,14.162 -0.845,6.688 -2.213,16.566 -3.007,23.777 -0.795,7.212 -1.016,11.758 -1.217,15.269 -0.202,3.51 -0.383,5.984 -0.674,8.122 -0.292,2.137 -0.694,3.937 -0.973,5.315 -0.279,1.378 -0.436,2.334 -0.453,2.935 -0.018,0.601 0.103,0.847 0.249,0.975 0.146,0.129 0.317,0.138 0.5,0.175 0.184,0.036 0.38,0.099 0.469,0.155 0.019,0.011 0.032,0.022 0.042,0.037 0.876,0.322 1.753,0.645 3.155,0.925 1.401,0.28 3.329,0.518 6.493,0.754 3.163,0.237 7.562,0.472 11.099,0.609 3.537,0.138 6.212,0.178 9.592,0.181 3.38,0.003 7.463,-0.03 11.329,-0.007 3.866,0.024 7.513,0.104 10.591,0.191 3.078,0.088 5.586,0.181 7.916,0.252 2.33,0.07 4.483,0.117 6.789,0.171 2.307,0.053 4.768,0.114 7.356,0.121 2.589,0.006 5.304,-0.041 8.04,-0.098 2.736,-0.057 5.492,-0.124 7.953,-0.221z"/>
 </g>
</svg>
