<?xml version="1.0" encoding="UTF-8"?>
<!DOCTYPE svg PUBLIC "-//W3C//DTD SVG 1.1//EN" "http://www.w3.org/Graphics/SVG/1.1/DTD/svg11.dtd">
<!-- Creator: CorelDRAW -->
<svg xmlns="http://www.w3.org/2000/svg" xml:space="preserve" width="187px" height="148px" version="1.1" shape-rendering="geometricPrecision" text-rendering="geometricPrecision" image-rendering="optimizeQuality" fill-rule="evenodd" clip-rule="evenodd"
viewBox="0 0 186.999 147.486"
 xmlns:xlink="http://www.w3.org/1999/xlink"
 xmlns:xodm="http://www.corel.com/coreldraw/odm/2003">
 <defs>
   <clipPath id="id0">
    <path d="M69.622 5.532c-9.32,-0.113 -15.317,-0.1 -21.532,-0.475 -6.215,-0.375 -12.649,-1.137 -18.001,-2.044 -5.351,-0.908 -9.62,-1.96 -13.89,-3.013l-2.056 6.766c-2.101,6.05 -3.233,10.386 -4.916,16.285 -0.249,0.873 -0.435,1.453 -0.642,2.333 -2.36,10.025 -4.55,19.989 -6.162,30.214 -0.554,3.516 -0.787,7.435 -1.226,10.942l-0.435 5.757c-0.045,1.83 -0.234,3.899 -0.37,5.626 -0.078,0.987 0.009,2.192 -0.003,3.205 -0.013,1.158 -0.208,1.511 -0.203,2.794 0.009,2.038 0.069,4.202 0.011,6.226 -0.028,1.013 -0.181,1.575 -0.197,2.723l0.192 9.099c-0.03,8.303 0.172,15.985 0.183,24.267 0.002,1.267 0.207,1.666 0.202,2.996 -0.004,0.925 -0.065,2.104 0.005,3.001 0.131,1.645 0.218,4.048 0.519,5.469 1.056,4.985 5.703,6.849 10.073,7.859 3.312,0.766 6.714,1.111 10.138,1.576 4.01,0.545 19.376,0.399 23.493,-0.086 6.45,-0.761 15.507,-0.276 22.162,-1.971 7.272,-1.853 6.398,-2.822 7.435,-7.425 0.87,-3.869 2.219,-13.998 3.169,-16.919 0.807,-2.484 1.721,-7.868 2.195,-10.524 0.344,-1.99 1.133,-3.678 1.718,-5.612 1.344,-4.441 1.694,-7.626 2.92,-12.169 0.377,-1.398 0.722,-2.38 1.102,-3.854 0.997,-3.864 2.19,-8.249 2.968,-12.117 0.575,-2.856 1.095,-5.36 1.653,-8.289l2.191 -12.734c0.189,-0.998 0.23,-2.248 1.182,-2.596 0.952,0.348 0.993,1.598 1.182,2.596l2.191 12.734c0.558,2.929 1.077,5.433 1.652,8.289 0.779,3.868 1.972,8.253 2.968,12.117 0.38,1.474 0.725,2.456 1.103,3.854 1.226,4.543 1.576,7.728 2.919,12.169 0.585,1.934 1.375,3.622 1.719,5.612 0.473,2.654 1.389,8.042 2.195,10.524 0.949,2.921 2.299,13.05 3.169,16.919 1.037,4.603 0.163,5.572 7.434,7.425 6.656,1.695 15.712,1.21 22.163,1.971 4.117,0.485 19.483,0.631 23.492,0.086 3.425,-0.465 6.827,-0.81 10.138,-1.576 4.371,-1.01 9.018,-2.874 10.074,-7.859 0.301,-1.421 0.388,-3.824 0.519,-5.469 0.07,-0.897 0.009,-2.076 0.005,-3.001 -0.005,-1.33 0.2,-1.729 0.202,-2.996 0.011,-8.282 0.213,-15.964 0.183,-24.267l0.191 -8.764 -0.196 -3.058c-0.058,-2.024 0.002,-4.188 0.011,-6.226 0.004,-1.283 -0.19,-1.636 -0.204,-2.794 -0.011,-1.013 0.076,-2.218 -0.002,-3.205 -0.136,-1.727 -0.325,-3.796 -0.37,-5.626l-0.436 -5.757c-0.439,-3.507 -0.671,-7.426 -1.225,-10.942 -1.612,-10.225 -3.802,-20.189 -6.162,-30.214 -0.207,-0.88 -0.394,-1.46 -0.643,-2.333 -1.682,-5.899 -2.814,-10.235 -4.915,-16.285l-2.057 -6.766c-2.951,0.866 -5.902,1.731 -9.677,2.477 -3.774,0.745 -8.371,1.369 -13.806,1.869 -5.434,0.5 -11.706,0.875 -19.026,1.15 -7.321,0.274 -15.692,0.449 -26.199,0.418 -10.507,-0.031 -23.15,-0.269 -32.47,-0.382z"/>
   </clipPath>
 </defs>
 <g id="VETORES">
  <metadata id="CorelCorpID_0Corel-Layer"/>
  <g>
  </g>
  <g clip-path="url(#id0)">
   <g id="_2016192806784">
    <path fill="#511A20" fill-rule="nonzero" d="M177.463 37.712l0.169 0c-0.089,-0.09 -0.139,-0.17 -0.23,-0.26 0,0.11 0.03,0.2 0.061,0.26zm2.428 2.209c0.58,-0.081 1.14,-0.15 1.719,-0.23 -0.17,-0.82 -0.349,-1.63 -0.529,-2.439 -1.139,0.16 -2.299,0.3 -3.458,0.46 0.769,0.739 1.499,1.469 2.268,2.208l0 0.001zm-5.297 -4.218c0.28,-0.03 0.6,-0.09 0.88,-0.11 -0.37,-0.34 -0.77,-0.739 -1.16,-1.109 0.11,0.43 0.2,0.82 0.28,1.219zm-4.157 -8.815c0.479,1.67 0.909,3.318 1.299,4.877l0.09 0.34c0.849,0.79 1.669,1.589 2.488,2.379 -0.34,-1.639 -0.679,-3.288 -1.049,-4.957 -0.939,-0.879 -1.869,-1.759 -2.828,-2.638l0 -0.001zm12.293 33.201c-1.22,0.17 -2.409,0.309 -3.628,0.449 0.509,0.6 1.049,1.129 1.589,1.669 -0.14,0.26 -0.26,0.48 -0.4,0.71 1.22,-0.14 2.439,-0.31 3.658,-0.45 0.11,-0.23 0.26,-0.45 0.37,-0.71 -0.54,-0.539 -1.049,-1.109 -1.589,-1.668l0 0zm-5.807 -19.799c0.2,1.05 0.4,2.069 0.6,3.089 1.559,-0.19 3.138,-0.41 4.717,-0.6 -0.05,-0.23 -0.09,-0.47 -0.139,-0.7 -0.74,-0.719 -1.49,-1.439 -2.209,-2.148 -0.989,0.109 -1.979,0.259 -2.979,0.369l0.01 -0.01zm-1.25 -0.909c-0.06,-0.43 -0.139,-0.82 -0.23,-1.279l-2.039 0.259c0.14,0.68 0.31,1.3 0.45,1.959l0.65 0.62c-0.09,-0.45 -0.17,-0.91 -0.26,-1.359 0.48,-0.09 0.94,-0.14 1.419,-0.2l0.01 0zm2.859 9.974c-0.71,0.11 -1.449,0.2 -2.149,0.28 0.03,0.23 0.08,0.45 0.11,0.68 0.65,-0.091 1.279,-0.17 1.928,-0.261 0.14,0.88 0.28,1.76 0.431,2.609 0.819,-0.09 1.669,-0.2 2.518,-0.309 0.14,0.819 0.26,1.638 0.37,2.468 -0.82,0.11 -1.669,0.2 -2.519,0.31 0.08,0.509 0.17,1.019 0.23,1.529 1.11,1.159 2.209,2.298 3.289,3.428 0.789,-0.101 1.579,-0.2 2.368,-0.3 -0.15,-1.43 -0.309,-2.859 -0.529,-4.208 -0.02,-0.14 -0.05,-0.28 -0.07,-0.42 -2.009,-2.058 -4.008,-4.127 -6.017,-6.186 0.03,0.14 0.03,0.26 0.06,0.37l-0.02 0.01zm-1.049 11.163c-0.11,-0.649 -0.2,-1.299 -0.28,-1.928l-0.03 -0.03c0.11,0.739 0.2,1.469 0.28,2.208l1.639 -0.23c-0.06,-0.06 -0.14,-0.11 -0.2,-0.2 -0.48,0.06 -0.959,0.11 -1.419,0.17l0.01 0.01zm1.788 -14.841c-1.589,-1.559 -3.148,-3.118 -4.757,-4.727 0.06,0.37 0.14,0.74 0.2,1.109l-0.45 0.06c0.26,1.16 0.51,2.299 0.74,3.398 1.159,1.16 2.318,2.319 3.488,3.488 -0.17,-1.019 -0.37,-2.069 -0.54,-3.148 0.43,-0.06 0.879,-0.11 1.329,-0.17l-0.01 -0.01zm-10.024 -23.126l1.19 -0.14c-0.17,-0.709 -0.37,-1.419 -0.54,-2.149 -0.6,-0.509 -1.159,-1.049 -1.729,-1.559 0.37,1.299 0.74,2.609 1.08,3.858l-0.001 -0.01zm14.382 27.563c-0.29,-1.629 -0.59,-3.258 -0.909,-4.877 -1.15,0.16 -2.299,0.3 -3.449,0.44 1.47,1.489 2.909,2.958 4.358,4.437zm-12.173 -42.034c0.59,-0.08 1.189,-0.15 1.779,-0.23 -0.07,-0.22 -0.14,-0.43 -0.22,-0.65 -0.589,0.08 -1.169,0.15 -1.759,0.22 0.09,0.23 0.14,0.43 0.2,0.65l0 0.01zm0.81 -3.279l-0.88 -2.868c-0.09,0.01 -0.18,0.02 -0.27,0.04 -0.199,-0.639 -0.389,-1.259 -0.589,-1.879 -0.47,0.14 -0.95,0.27 -1.419,0.41 0.479,1.519 0.949,3.029 1.419,4.528 0.58,-0.07 1.159,-0.15 1.749,-0.22l-0.01 -0.011zm6.156 23.367c0.27,0.259 0.55,0.519 0.82,0.789 -0.27,-1.189 -0.54,-2.369 -0.82,-3.558 -0.12,-0.539 -0.24,-0.969 -0.38,-1.419 -0.26,-0.249 -0.519,-0.489 -0.779,-0.739 0.369,1.669 0.769,3.318 1.159,4.927zm-5.467 -14.761c-0.34,-0.28 -0.679,-0.6 -1.019,-0.91 0.309,1.159 0.649,2.318 0.939,3.458 -0.509,0.09 -0.989,0.14 -1.469,0.2 0.17,0.769 0.37,1.469 0.57,2.208 0.679,0.65 1.389,1.28 2.069,1.899 0.939,-0.12 1.899,-0.24 2.848,-0.37 -0.47,-1.658 -0.909,-3.247 -1.369,-4.827 -0.54,0.07 -1.089,0.13 -1.619,0.2 -0.2,-0.789 -0.45,-1.619 -0.68,-2.438 0.53,-0.07 1.05,-0.14 1.57,-0.21 -0.24,-0.77 -0.48,-1.56 -0.74,-2.359 -0.63,0.08 -1.269,0.16 -1.909,0.24 0.28,0.959 0.569,1.929 0.82,2.888l-0.011 0.021zm-4.447 -3.938c1.129,0.989 2.268,2.009 3.428,3.028 -0.17,-0.619 -0.37,-1.249 -0.54,-1.899 0.26,-0.03 0.48,-0.06 0.74,-0.09 -0.231,-0.789 -0.45,-1.619 -0.68,-2.438 -0.26,0.029 -0.51,0.06 -0.769,0.089 -0.06,-0.199 -0.11,-0.429 -0.17,-0.649 0.259,-0.03 0.509,-0.06 0.739,-0.09 -0.23,-0.79 -0.48,-1.589 -0.739,-2.408 -0.2,0.029 -0.37,0.06 -0.57,0.089 -0.11,-0.369 -0.23,-0.739 -0.34,-1.129 -0.79,0.11 -1.589,0.2 -2.379,0.31 0.06,0.2 0.14,0.399 0.2,0.619 -0.23,-0.2 -0.43,-0.37 -0.65,-0.569l-2.718 0.34 0.37 1.249c0.43,0.37 0.849,0.709 1.279,1.079 0.68,-0.09 1.329,-0.17 2.009,-0.26 0.28,0.91 0.54,1.809 0.789,2.719l0.001 0.01zm11.443 50.739c-0.17,-1.159 -0.309,-2.348 -0.509,-3.537 -0.989,-1.02 -1.979,-2.009 -2.979,-3.059 0.2,1.16 0.37,2.299 0.51,3.459 0.09,0.509 0.17,1.019 0.23,1.529 0.57,0.569 1.13,1.159 1.699,1.758 0.34,-0.059 0.68,-0.089 1.049,-0.139l0 -0.011zm-12.723 -55.926c-0.309,-0.999 -0.639,-1.999 -0.959,-2.998 -0.76,0.2 -1.549,0.399 -2.369,0.59 0.96,0.819 1.929,1.649 2.869,2.468 0.17,-0.03 0.309,-0.03 0.449,-0.06l0.01 0zm9.835 18.099c-0.23,0.03 -0.43,0.06 -0.62,0.09 0.26,0.28 0.54,0.54 0.82,0.77 -0.08,-0.26 -0.14,-0.54 -0.2,-0.85l0 -0.01zm-8.216 -6.856c-0.09,0 -0.109,0.03 -0.17,0.03 0.4,1.559 0.79,3.148 1.22,4.707 1.109,1.02 2.208,2.039 3.318,3.058 -0.4,-1.669 -0.82,-3.318 -1.249,-4.957 -1.05,-0.939 -2.099,-1.869 -3.119,-2.828l0 -0.01zm9.575 12.643c-1.759,-1.619 -3.488,-3.228 -5.217,-4.847 0.14,0.65 0.28,1.299 0.45,1.959 -0.85,0.089 -1.669,0.199 -2.489,0.309 -0.06,-0.23 -0.11,-0.479 -0.17,-0.739l-1.079 0.14c0.17,0.569 0.31,1.159 0.48,1.728l2.148 -0.28c0.23,1.05 0.48,2.069 0.71,3.089 1.329,1.299 2.689,2.608 4.028,3.877 1.259,1.209 2.519,2.409 3.748,3.618 -0.45,-2.098 -0.919,-4.207 -1.389,-6.306 -0.22,0.03 -0.44,0.07 -0.66,0.09 -0.2,-0.879 -0.4,-1.759 -0.57,-2.638l0.01 0zm-9.914 -18.699c-0.94,-0.82 -1.869,-1.639 -2.809,-2.469l-0.909 0.11 0.369 1.219c0.51,1.809 1.02,3.568 1.53,5.297 0.709,0.62 1.448,1.28 2.149,1.899 0.429,-0.06 0.879,-0.11 1.299,-0.17 -0.54,-1.959 -1.08,-3.907 -1.639,-5.896l0.01 0.01zm6.966 26.114c0.649,0.62 1.279,1.249 1.928,1.869 -0.139,-0.679 -0.279,-1.359 -0.429,-2.069 -0.48,0.06 -0.99,0.14 -1.5,0.2l0.001 0zm-0.93 -12.862c0.62,-0.09 1.28,-0.17 1.899,-0.26 -0.789,-0.71 -1.589,-1.469 -2.408,-2.209l-0.08 0c0.2,0.82 0.43,1.639 0.6,2.469l-0.011 0zm11.524 55.956c-0.14,-1.219 -0.26,-2.409 -0.37,-3.658 -0.77,1.359 -1.529,2.658 -2.269,3.997 0.88,-0.11 1.76,-0.23 2.639,-0.34l0 0.001zm-4.218 44.053c0.37,-0.06 0.77,-0.11 1.16,-0.17 0,-0.539 0.029,-1.079 0.029,-1.618l-1.189 1.788 0 0zm4.108 -0.539c-0.989,0.139 -1.979,0.259 -2.948,0.369 -0.06,1.699 -0.14,3.339 -0.23,5.017 0.989,-0.109 1.978,-0.259 2.948,-0.369 0.09,-1.67 0.17,-3.318 0.23,-5.017zm-1.839 -2.329c0.03,-1.699 0.09,-3.398 0.09,-5.127 0.65,-0.09 1.279,-0.17 1.899,-0.23l0 -2.518c-0.17,0.029 -0.31,0.06 -0.48,0.06 -1.279,1.979 -2.578,3.967 -3.938,5.976 0,0.71 -0.03,1.449 -0.03,2.149 0.82,-0.09 1.639,-0.2 2.469,-0.31l-0.01 0zm-4.058 0.57l-0.139 0.199c0.029,1.589 0.029,3.199 0.029,4.818 0.65,-0.88 1.28,-1.809 1.899,-2.719 -0.619,0.06 -1.249,0.14 -1.869,0.23 0.03,-0.819 0.06,-1.669 0.09,-2.518l-0.01 -0.01zm6.147 6.716c-0.17,0.029 -0.31,0.029 -0.48,0.06 0,0.23 0,0.43 -0.03,0.649 0.17,-0.259 0.34,-0.479 0.51,-0.709zm-0.25 -4.957c0.23,-0.02 0.46,-0.05 0.699,-0.081 0.021,-2.588 0.05,-5.136 0.081,-7.675 -0.211,0.03 -0.42,0.05 -0.63,0.08 -0.03,2.579 -0.09,5.127 -0.14,7.676l-0.01 0zm0.639 4.907c0.021,-0.17 0.03,-0.35 0.03,-0.56 -0.14,0.2 -0.28,0.399 -0.419,0.61 0.13,-0.02 0.259,-0.03 0.389,-0.05zm-4.177 7.075c0.77,-0.11 1.559,-0.2 2.349,-0.31 0.549,-0.769 1.109,-1.548 1.679,-2.328 0,-0.12 0,-0.25 0,-0.38 -1.289,0.16 -2.579,0.32 -3.868,0.5 -0.06,0.849 -0.11,1.669 -0.17,2.519l0.01 -0.001zm-0.09 -6.546c0.03,-0.789 0.06,-1.639 0.11,-2.468l-2.489 0.31 0.03 4.137 0.34 -0.06c-0.06,0.82 -0.09,1.619 -0.14,2.379 0.79,-0.09 1.619,-0.2 2.409,-0.28 0.09,-1.359 0.14,-2.719 0.2,-4.078 -0.14,0.03 -0.31,0.06 -0.45,0.06l-0.01 0zm0.989 -20.058c0.6,-0.909 1.16,-1.809 1.76,-2.748 -1.05,0.14 -2.069,0.26 -3.089,0.4 0,-0.23 -0.03,-0.48 -0.03,-0.77 -0.709,1.13 -1.449,2.269 -2.149,3.398 0.03,1.639 0.03,3.338 0.06,5.047 0.74,-1.129 1.469,-2.239 2.209,-3.368 0,-0.6 -0.03,-1.159 -0.03,-1.789 0.43,-0.06 0.85,-0.11 1.279,-0.17l-0.01 0zm-5.496 -43.423c0.11,0.909 0.199,1.838 0.279,2.778 0.74,-1.3 1.469,-2.639 2.179,-3.998l-2.549 0.34 0.091 0.88zm4.257 45.382l0 0.28c0.71,-0.09 1.419,-0.17 2.129,-0.26l0 2.688c0.48,-0.06 0.959,-0.139 1.419,-0.199 0.17,-0.23 0.31,-0.45 0.48,-0.71l0 0.65c0.22,-0.03 0.44,-0.06 0.659,-0.081 0.021,-1.578 0.03,-3.167 0.04,-4.767 -1.159,0.14 -2.318,0.29 -3.478,0.43 -0.43,0.68 -0.819,1.329 -1.249,1.959l0 0.01zm-0.34 4.647l-1.839 0.26 0 0.45 0.261 -0.03c0,1.869 -0.06,3.738 -0.081,5.577 0.54,-0.789 1.08,-1.589 1.619,-2.408 0.03,-1.3 0.061,-2.579 0.061,-3.858l-0.021 0.009zm3.508 -14.93c-0.03,0.06 -0.09,0.139 -0.11,0.199 0.03,0 0.08,0 0.14,-0.029 0,-0.03 -0.03,-0.11 -0.03,-0.17zm-5.556 0.879l0 0.939c0.029,0.99 0.029,2.009 0.06,3.029l2.208 -0.28 0 0.649c1.08,-1.639 2.129,-3.318 3.168,-5.017l-5.436 0.68zm2.468 37.388c0.08,-1.11 0.17,-2.239 0.26,-3.338l-2.409 0.309 0 5.357 1.59 -0.2c-0.06,0.45 -0.11,0.91 -0.14,1.33 0.06,0 0.09,-0.03 0.14,-0.03 -0.03,0.4 -0.06,0.769 -0.09,1.129 0.399,-0.06 0.769,-0.11 1.159,-0.14 -0.02,0.27 -0.06,0.55 -0.08,0.83 1.609,-1.189 2.838,-2.808 3.308,-5.087 0.23,-1.039 0.34,-2.598 0.42,-4.017 -0.52,0.06 -1.04,0.13 -1.549,0.19 -0.88,1.219 -1.729,2.438 -2.609,3.657l0 0.01zm4.647 -32.901c0,-0.829 0,-1.658 0,-2.498 -0.579,0.909 -1.149,1.809 -1.728,2.708 0.579,-0.07 1.149,-0.14 1.728,-0.21l0 0zm-0.17 -25.025c0,-0.32 0,-0.639 0,-0.949 -0.029,0 -0.06,0 -0.089,0.01 0.029,0.319 0.06,0.619 0.089,0.929l0 0.01zm-2.888 -5.467c-0.31,0.03 -0.65,0.09 -0.959,0.11 -0.54,0.94 -1.05,1.839 -1.56,2.719 0.91,-0.11 1.839,-0.23 2.779,-0.34 -0.09,-0.82 -0.17,-1.639 -0.26,-2.489l0 0zm1.419 -3.967c0,0 -0.06,0.03 -0.109,0.03 -0.48,0.909 -0.99,1.809 -1.5,2.718 0.62,-0.09 1.28,-0.17 1.899,-0.26 0.09,0.79 0.17,1.589 0.26,2.379 0.2,-0.36 0.41,-0.73 0.61,-1.089 -0.03,-0.56 -0.06,-1.1 -0.08,-1.63l-0.28 -3.747c-0.26,0.489 -0.53,0.979 -0.8,1.448l0 0.14 0 0.011zm-5.387 9.314c-0.23,0.45 -0.479,0.88 -0.739,1.28l0 0.03 0.06 1.299 2.748 -0.34c0.51,-0.91 1.05,-1.809 1.589,-2.718 -1.219,0.17 -2.438,0.309 -3.658,0.449zm-0.909 -2.208c0.03,0.769 0.09,1.529 0.11,2.318l0.789 -0.11c0.48,-0.819 0.96,-1.669 1.449,-2.518l-2.349 0.309 0.001 0.001zm1.019 -7.476c0.06,0 0.11,0 0.17,-0.03 0.11,0.85 0.2,1.669 0.31,2.469l-1.809 0.23c0.06,0.769 0.09,1.529 0.14,2.298l4.078 -0.51c0.259,-0.429 0.509,-0.879 0.769,-1.329 -0.28,0.03 -0.6,0.061 -0.879,0.11 -0.09,-0.82 -0.17,-1.669 -0.28,-2.488 0.909,-0.11 1.789,-0.23 2.658,-0.34 0.06,-0.06 0.08,-0.11 0.11,-0.17 -0.06,-0.48 -0.11,-0.989 -0.17,-1.499 0.3,-0.05 0.63,-0.08 0.96,-0.13l-0.12 -1.669c-0.23,0.029 -0.46,0.06 -0.69,0.089 -0.08,-0.819 -0.2,-1.638 -0.28,-2.468 0.23,-0.03 0.47,-0.05 0.699,-0.09 -0.069,-0.649 -0.139,-1.299 -0.199,-1.959 -0.47,0.06 -0.95,0.11 -1.41,0.17 -1.329,2.439 -2.688,4.878 -4.048,7.306l-0.009 0.01zm-1.669 -1.449c0.11,1.279 0.23,2.578 0.31,3.908 0.45,-0.82 0.909,-1.639 1.359,-2.469 -0.48,0.06 -0.96,0.14 -1.469,0.2 -0.06,-0.54 -0.14,-1.109 -0.2,-1.639zm8.106 23.656c-0.48,0.06 -0.96,0.11 -1.419,0.17 -0.03,-0.28 -0.06,-0.619 -0.081,-0.94 -1.249,2.069 -2.518,4.168 -3.797,6.237 1.389,-0.17 2.748,-0.34 4.137,-0.54 0.03,0.789 0.06,1.559 0.09,2.318 0.57,-0.899 1.11,-1.788 1.679,-2.708l0 -0.11c-0.139,0.02 -0.259,0.05 -0.41,0.05 -0.06,-1.469 -0.109,-2.978 -0.199,-4.477zm-0.2 -2.918c-0.09,0.169 -0.2,0.309 -0.28,0.479 0.11,-0.03 0.2,-0.03 0.31,-0.06 0,-0.14 -0.03,-0.26 -0.03,-0.43l0 0.011zm-5.497 -6.687l-1.499 0.2c0.06,0.82 0.09,1.639 0.11,2.489l0.679 -0.09c0.28,-0.45 0.54,-0.939 0.82,-1.389 -0.03,-0.4 -0.06,-0.79 -0.11,-1.22l0 0.01zm-0.96 17.26c0.45,-0.71 0.91,-1.449 1.36,-2.179l-1.39 0.17 0.03 2.009 0 0zm6.457 -10.573c0.22,-0.36 0.44,-0.74 0.67,-1.11 0,-0.619 0,-1.219 0,-1.839 -0.28,0.04 -0.56,0.081 -0.84,0.121 0.06,0.959 0.11,1.898 0.17,2.828l0 0zm-5.387 -5.467c0.03,0.43 0.06,0.849 0.11,1.279 -0.31,0.03 -0.62,0.06 -0.94,0.11l-0.649 1.109c0.11,2.689 0.2,5.467 0.28,8.326 2.428,-4.008 4.827,-8.036 7.166,-12.023 -0.05,-0.37 -0.1,-0.73 -0.11,-1.269 0,-0.01 0,-0.02 0,-0.03 -1.589,0.22 -3.178,0.41 -4.758,0.629 -0.369,0.62 -0.739,1.25 -1.109,1.869l0.01 0zm3.998 6.096c0.029,0.51 0.06,1.02 0.089,1.529 0.34,-0.539 0.68,-1.109 1.02,-1.669 -0.37,0.03 -0.74,0.09 -1.109,0.14l0 0zm-181.908 32.86c-0.83,-0.089 -1.639,-0.199 -2.459,-0.309 0.01,1.319 0.02,2.648 0.03,3.987 0,0.4 0.02,0.72 0.05,1.01 0.859,0.11 1.729,0.23 2.588,0.329 -0.06,-1.669 -0.14,-3.318 -0.2,-5.017l-0.009 0zm4.817 -37.337c0.03,-0.849 0.09,-1.669 0.11,-2.488l-2.549 -0.34c-0.06,0.429 -0.09,0.819 -0.109,1.219 0.279,0.45 0.539,0.939 0.819,1.389l1.729 0.23 0 -0.01zm-7.076 -9.445c-0.06,0.74 -0.12,1.46 -0.18,2.129 -0.02,0.27 -0.03,0.55 -0.04,0.84 0.68,0.09 1.369,0.18 2.049,0.26 -0.6,-1.08 -1.22,-2.149 -1.839,-3.238l0.01 0.009zm6.166 13.602l0.77 0.11c0,-0.6 0.03,-1.129 0.06,-1.699 -0.57,-0.939 -1.109,-1.869 -1.639,-2.808 -0.31,-0.06 -0.62,-0.09 -0.939,-0.11 0.06,-0.43 0.079,-0.85 0.11,-1.279 -0.37,-0.62 -0.74,-1.249 -1.11,-1.869 -1.199,-0.17 -2.399,-0.32 -3.598,-0.48 -0.01,1.039 -0.2,1.429 -0.2,2.658 0,0.1 0,0.21 0,0.31 2.039,3.468 4.118,6.936 6.227,10.394 0.09,-1.729 0.2,-3.488 0.31,-5.237l0.009 0.01zm-5.826 -18.938l-0.15 1.859c0,0.13 -0.01,0.26 -0.01,0.39 0.51,0.069 1.009,0.139 1.539,0.21 -0.459,-0.82 -0.919,-1.639 -1.379,-2.459l0 0zm1.889 50.5c0,0.539 0.03,1.079 0.03,1.618 0.399,0.06 0.789,0.11 1.159,0.17 -0.4,-0.599 -0.789,-1.189 -1.19,-1.788l0.001 0zm0.709 6.685c-0.14,0 -0.309,-0.029 -0.479,-0.06 0.08,1.359 0.139,2.719 0.23,4.078 0.789,0.09 1.589,0.2 2.408,0.28 -0.06,-0.77 -0.09,-1.56 -0.14,-2.379l1.39 0.2 0.029 -2.778c-0.369,-0.48 -0.709,-0.99 -1.049,-1.499 -0.82,-0.11 -1.639,-0.2 -2.489,-0.31 0.06,0.819 0.081,1.669 0.11,2.468l-0.01 0zm2.439 -57.845c0.48,0.91 0.989,1.809 1.499,2.688l0.879 0.11c0.11,-1.359 0.231,-2.658 0.31,-3.997 -0.279,-0.51 -0.569,-1.05 -0.879,-1.589 -0.11,0.989 -0.23,1.979 -0.34,2.978 -0.51,-0.06 -0.989,-0.14 -1.469,-0.2l0 0.01zm0.989 -9.434c-0.06,0.09 -0.14,0.14 -0.2,0.2l2.689 0.34c0.14,-1.219 0.28,-2.408 0.45,-3.628 -0.43,0.45 -0.85,0.88 -1.249,1.33 -0.11,0.619 -0.2,1.279 -0.28,1.928 -0.45,-0.06 -0.94,-0.11 -1.419,-0.17l0.009 0zm-2.948 62.382c0.619,0.91 1.249,1.839 1.899,2.749l1.049 0.14 0.03 -3.428c-0.4,-0.6 -0.789,-1.16 -1.189,-1.759 0.029,0.849 0.06,1.699 0.06,2.518 -0.6,-0.09 -1.22,-0.17 -1.839,-0.23l-0.01 0.01zm-0.819 -49.72c-0.28,-0.06 -0.6,-0.09 -0.88,-0.11 0.26,0.45 0.51,0.91 0.77,1.329l5.127 0.65 0.06 -0.959c-0.26,-0.48 -0.54,-0.96 -0.79,-1.449 -0.679,-0.09 -1.329,-0.17 -1.979,-0.26 0.11,-0.79 0.2,-1.619 0.31,-2.469 0.06,0.03 0.08,0.03 0.17,0.03 -1.359,-2.438 -2.719,-4.877 -4.048,-7.305 -0.08,-0.01 -0.17,-0.02 -0.26,-0.03 -0.13,1.399 -0.259,2.788 -0.429,4.107l-0.29 3.648c0.849,0.11 1.679,0.21 2.528,0.32 -0.11,0.82 -0.199,1.669 -0.28,2.488l-0.009 0.01zm3.767 -12.662c0.57,-0.599 1.13,-1.189 1.699,-1.759 0.14,-1.049 0.31,-2.098 0.45,-3.148l1.05 0.14c0.11,-0.82 0.23,-1.639 0.369,-2.468l-0.599 -0.09c-1.16,1.249 -2.349,2.438 -3.518,3.627 -0.2,1.19 -0.34,2.379 -0.51,3.538 0.34,0.06 0.71,0.09 1.05,0.14l0.009 0.02zm-0.539 -3.687c0.06,-0.51 0.14,-1.02 0.23,-1.529 -0.85,-0.11 -1.699,-0.2 -2.519,-0.31 0.11,-0.82 0.23,-1.639 0.37,-2.468 0.85,0.109 1.669,0.23 2.519,0.309 0.139,-0.849 0.26,-1.729 0.43,-2.609 0.619,0.091 1.279,0.17 1.928,0.261 0.03,-0.23 0.09,-0.45 0.11,-0.68 -0.709,-0.09 -1.449,-0.17 -2.149,-0.28 0.03,-0.11 0.03,-0.23 0.06,-0.37 -1.539,1.579 -3.078,3.158 -4.607,4.737 -0.1,0.62 -0.22,1.24 -0.32,1.869 -0.23,1.399 -0.39,2.869 -0.54,4.347 0.41,0.05 0.82,0.101 1.22,0.151 1.079,-1.13 2.178,-2.269 3.288,-3.428l-0.02 0zm-0.85 6.265c-0.14,-0.23 -0.26,-0.449 -0.399,-0.709 0.539,-0.54 1.049,-1.08 1.589,-1.67 -1.22,-0.139 -2.439,-0.279 -3.628,-0.449 -0.47,0.499 -0.939,0.989 -1.389,1.459 -0.02,0.17 -0.03,0.329 -0.05,0.499 0.08,0.14 0.15,0.29 0.22,0.42 1.219,0.14 2.438,0.31 3.658,0.45l-0.001 0zm-1.699 42.295c-1.019,-0.14 -2.039,-0.26 -3.088,-0.4 0.6,0.94 1.159,1.839 1.759,2.749 0.43,0.06 0.849,0.11 1.279,0.17 0,0.619 -0.029,1.189 -0.029,1.789 0.819,1.279 1.669,2.518 2.488,3.797 0,-1.699 0,-3.398 0.03,-5.097 -0.82,-1.249 -1.619,-2.488 -2.409,-3.768 -0.029,0.28 -0.029,0.54 -0.029,0.77l-0.001 -0.01zm-2.129 14.641c0.82,0.11 1.639,0.23 2.469,0.31 0,-0.71 -0.03,-1.449 -0.03,-2.149 -1.349,-1.999 -2.648,-3.968 -3.908,-5.936 0,0.829 0.02,1.659 0.03,2.488 0.45,0.05 0.89,0.1 1.359,0.16 0,1.729 0.03,3.428 0.09,5.127l-0.01 0zm1.699 14.311c-0.06,-0.849 -0.11,-1.669 -0.17,-2.518 -0.899,-0.13 -1.799,-0.24 -2.698,-0.35 0,0.32 0,0.639 0.03,0.919 0.02,0.33 0.049,0.7 0.07,1.069 0.139,0.191 0.28,0.38 0.409,0.57 0.79,0.11 1.56,0.2 2.349,0.31l0.01 0zm0.68 -19.998c0,1.28 0,2.549 0.06,3.858 0.54,0.82 1.079,1.619 1.619,2.409 -0.03,-1.839 -0.08,-3.708 -0.08,-5.577l1.329 0.17 0 -0.51 -0.769 -1.189 0 1.129c-0.74,-0.09 -1.449,-0.2 -2.149,-0.28l-0.01 -0.01zm2.779 28.863l0 -0.54 -0.06 -0.02 0.06 0.56zm-2.659 -2.098c0.06,0 0.11,0.029 0.17,0.029 -0.06,-0.429 -0.09,-0.879 -0.14,-1.329l2.639 0.31 0.03 -5.357 -3.488 -0.43c0.089,1.109 0.17,2.239 0.259,3.338 -0.879,-1.219 -1.728,-2.439 -2.608,-3.658 -0.13,-0.02 -0.25,-0.03 -0.38,-0.05 0.09,1.379 0.21,2.869 0.41,3.868 0.38,1.799 1.229,3.198 2.369,4.287 0.29,0.03 0.569,0.06 0.859,0.1 -0.03,-0.369 -0.06,-0.739 -0.11,-1.129l-0.01 0.021zm-4.028 -37.008c0,0.27 0,0.55 0,0.819 0.19,0.021 0.38,0.05 0.57,0.07 -0.19,-0.289 -0.38,-0.589 -0.57,-0.889zm1.449 5.626c0.71,0.09 1.419,0.17 2.129,0.26l0 -0.279c-0.43,-0.62 -0.849,-1.28 -1.249,-1.96 -0.78,-0.1 -1.539,-0.189 -2.309,-0.289 0.01,1.599 0.03,3.188 0.04,4.767 0.45,0.06 0.92,0.14 1.389,0.19l0 -2.688 0 -0.001zm21.188 -104.876l-0.139 0.11 0.11 0.03 0.029 -0.14zm-20.988 71.926c0.94,0.11 1.839,0.23 2.779,0.34 -0.51,-0.88 -1.05,-1.789 -1.56,-2.719 -0.309,-0.029 -0.649,-0.09 -0.959,-0.11 -0.08,0.85 -0.17,1.67 -0.26,2.489l0 0zm-1.279 22.806c0.06,0.03 0.11,0.03 0.14,0.03 -0.03,-0.06 -0.09,-0.14 -0.11,-0.2 -0.03,0.06 -0.03,0.14 -0.03,0.17zm4.248 -1.958c0.569,0.939 1.129,1.809 1.699,2.718l0.71 0.09c0.029,-1.419 0.06,-2.808 0.089,-4.198l-0.479 -0.789c-0.14,-0.2 -0.28,-0.4 -0.4,-0.65 -0.06,1.02 -0.11,2.039 -0.14,3.029 -0.48,-0.09 -0.989,-0.14 -1.469,-0.2l-0.01 0zm-3.708 -7.756c-0.3,-0.05 -0.6,-0.08 -0.9,-0.12 0,0.1 0,0.21 0,0.31 0.27,0.45 0.54,0.91 0.79,1.339 0.03,-0.51 0.08,-1.02 0.11,-1.529l0 0zm-0.43 7.216c1.389,0.2 2.748,0.37 4.138,0.54 -1.3,-2.069 -2.549,-4.168 -3.828,-6.237 0,0.31 -0.03,0.65 -0.06,0.94 -0.29,-0.04 -0.59,-0.07 -0.89,-0.11 -0.02,0.24 -0.04,0.51 -0.04,0.82l0.12 5.616c0.16,0.25 0.31,0.51 0.47,0.76 0.03,-0.769 0.06,-1.529 0.09,-2.318l0 -0.011zm3.208 7.535l0 -0.649c0.82,0.109 1.639,0.23 2.489,0.309 -0.03,1.39 -0.08,2.749 -0.08,4.108 0.029,0.089 0.06,0.139 0.109,0.199 0.231,0.37 0.45,0.71 0.68,1.08 0.03,-2.829 0.06,-5.557 0.11,-8.185l-0.68 -1.129c-1.959,-0.26 -3.878,-0.48 -5.806,-0.74 1.049,1.699 2.098,3.368 3.168,5.017l0.01 -0.01zm4.497 -66.739c0.03,-0.06 0.03,-0.14 0.06,-0.26 -0.079,0.09 -0.17,0.17 -0.23,0.26l0.17 0zm5.497 -19.349c0.2,-0.739 0.4,-1.449 0.57,-2.208 -0.48,-0.06 -0.989,-0.11 -1.469,-0.2 0.28,-1.129 0.619,-2.299 0.939,-3.458 -0.34,0.31 -0.679,0.619 -1.019,0.91 0.26,-0.96 0.54,-1.929 0.82,-2.888 -0.27,-0.03 -0.53,-0.07 -0.79,-0.101 -0.26,0.8 -0.509,1.589 -0.739,2.369 0.149,0.02 0.299,0.04 0.449,0.06 -0.26,0.82 -0.479,1.639 -0.679,2.439 -0.16,-0.02 -0.34,-0.04 -0.5,-0.06 -0.46,1.579 -0.899,3.158 -1.369,4.827 0.579,0.069 1.159,0.15 1.729,0.22 0.679,-0.62 1.389,-1.25 2.069,-1.899l-0.011 -0.011zm-4.477 4.108l0 0 0 0 0 0zm5.187 -15.041c-0.22,-0.03 -0.43,-0.05 -0.65,-0.08 -0.08,0.22 -0.149,0.43 -0.219,0.65 0.219,0.03 0.449,0.05 0.669,0.08 0.06,-0.23 0.11,-0.43 0.2,-0.65zm-3.338 28.273c0.08,-0.399 0.17,-0.789 0.26,-1.219 -0.37,0.37 -0.77,0.769 -1.13,1.109 0.28,0.03 0.6,0.09 0.88,0.11l-0.01 0zm2.829 0.37c0.34,-1.39 0.709,-2.829 1.079,-4.308l0.28 -1.019c-0.26,0.23 -0.48,0.449 -0.739,0.709 -0.31,1.529 -0.65,3.029 -0.96,4.558l0.34 0.06 0 0zm-2.779 -13.352c0.17,-0.82 0.37,-1.639 0.6,-2.469l-0.08 0c-0.82,0.74 -1.619,1.5 -2.409,2.209 0.62,0.09 1.249,0.17 1.899,0.26l-0.01 0zm1.339 0.6c1.11,-1.02 2.209,-2.039 3.319,-3.058 0.429,-1.56 0.819,-3.148 1.219,-4.708 -0.06,0 -0.11,-0.03 -0.17,-0.03 -1.049,0.96 -2.069,1.899 -3.118,2.829 -0.43,1.639 -0.85,3.288 -1.25,4.957l0 0.01zm4.208 -23.156c-0.22,-0.05 -0.43,-0.11 -0.65,-0.16l-1.509 4.937c0.21,0.029 0.42,0.05 0.63,0.08 0.5,-1.599 1.009,-3.228 1.529,-4.857zm-1.18 15.19c0.45,0.06 0.91,0.11 1.33,0.17 1.189,-1.049 2.378,-2.099 3.568,-3.168 0.399,-1.299 0.789,-2.658 1.189,-4.028l0.31 -1.079 -1.929 -0.26c-0.939,0.82 -1.899,1.639 -2.808,2.468 -0.57,1.979 -1.13,3.938 -1.67,5.897l0.01 0zm1.95 7.346c0.479,-1.729 0.989,-3.488 1.499,-5.297l-0.57 0.509 0.03 -0.029c-0.88,0.789 -1.759,1.589 -2.639,2.378 -0.199,0.74 -0.369,1.449 -0.539,2.149l2.208 0.28 0.011 0.01zm0.999 -18.419c-0.79,-0.11 -1.589,-0.2 -2.379,-0.309 -0.109,0.399 -0.23,0.769 -0.34,1.129 -0.2,-0.03 -0.399,-0.06 -0.569,-0.09 -0.26,0.82 -0.51,1.619 -0.74,2.408 0.23,0.03 0.48,0.06 0.74,0.09 -0.06,0.23 -0.11,0.45 -0.2,0.65 -0.23,-0.03 -0.48,-0.06 -0.74,-0.09 -0.23,0.82 -0.45,1.639 -0.679,2.439 0.26,0.029 0.48,0.06 0.739,0.089 -0.17,0.65 -0.369,1.28 -0.539,1.899 1.129,-1.019 2.298,-2.038 3.428,-3.028 0.259,-0.909 0.509,-1.809 0.789,-2.718 0.65,0.089 1.329,0.17 2.009,0.259 0.849,-0.709 1.699,-1.469 2.548,-2.208 -1.219,-0.14 -2.408,-0.31 -3.627,-0.45 -0.23,0.2 -0.45,0.37 -0.65,0.57 0.06,-0.23 0.14,-0.43 0.2,-0.62l0.01 -0.02zm0.449 0.06c1.1,-0.96 2.219,-1.909 3.329,-2.858 -0.91,-0.21 -1.809,-0.42 -2.689,-0.63 -0.369,1.139 -0.739,2.289 -1.089,3.428 0.14,0.03 0.28,0.03 0.45,0.06l-0.001 0zm-14.811 41.035c-0.21,1.099 -0.43,2.199 -0.63,3.298 0.989,-0.999 1.949,-1.999 2.948,-3.008 -0.769,-0.09 -1.539,-0.19 -2.318,-0.29zm3.988 17.889c-0.91,-0.11 -1.809,-0.23 -2.689,-0.34 0.74,1.39 1.469,2.719 2.209,4.078 0.14,-1.249 0.31,-2.469 0.48,-3.738zm0.199 -25.804c0.62,-0.619 1.28,-1.249 1.929,-1.869 -0.509,-0.06 -1.019,-0.14 -1.529,-0.2 -0.14,0.71 -0.26,1.389 -0.4,2.069zm1.16 14.731c-0.06,0.28 -0.09,0.54 -0.11,0.79 0.14,0.029 0.28,0.06 0.43,0.06 0.23,-0.23 0.45,-0.48 0.71,-0.74 -0.34,-0.03 -0.68,-0.09 -1.02,-0.11l-0.01 0zm-1.699 27.533c0.029,-0.789 0.09,-1.559 0.139,-2.318l-3.428 -0.45c0.48,0.849 0.96,1.699 1.449,2.518l1.839 0.26 0.001 -0.01zm-0.54 -30.741c1.619,-1.589 3.229,-3.228 4.847,-4.847 0.11,-0.619 0.26,-1.279 0.4,-1.928l-1.469 -0.17c0.06,-0.37 0.11,-0.74 0.2,-1.11 -1.619,1.619 -3.198,3.168 -4.757,4.728 0.45,0.06 0.879,0.109 1.329,0.17 -0.17,1.079 -0.37,2.128 -0.54,3.147l-0.01 0.01zm0.43 33.2l-0.17 0c0.06,0.09 0.11,0.17 0.14,0.26l0.03 -0.26zm2.858 -29.912l-0.03 0.03 0.03 0.03 0 -0.06zm2.839 -13.771l-3.089 -0.4c-0.089,0.45 -0.17,0.849 -0.259,1.279 0.479,0.06 0.959,0.11 1.449,0.2 -0.08,0.45 -0.17,0.91 -0.26,1.359 0.679,-0.65 1.359,-1.299 2.039,-1.979l0.11 -0.45 0.01 -0.009zm-0.91 -8.975c0.23,-1.02 0.48,-2.039 0.71,-3.089 0.77,0.11 1.529,0.2 2.269,0.28 0.43,-0.369 0.849,-0.769 1.279,-1.159l0.11 -0.45 -2.099 -0.26c-0.06,0.26 -0.139,0.51 -0.17,0.74 -0.849,-0.11 -1.669,-0.23 -2.488,-0.31 0.14,-0.65 0.309,-1.299 0.45,-1.959 -1.509,1.409 -3.038,2.819 -4.548,4.228 -0.619,2.678 -1.229,5.357 -1.809,8.045 0.76,-0.729 1.519,-1.449 2.279,-2.179 1.329,-1.279 2.659,-2.578 4.028,-3.877l-0.011 -0.01zm-1.079 4.957c1.079,-0.989 2.129,-2.009 3.198,-3.028 0.34,-1.589 0.71,-3.148 1.049,-4.707 -0.06,0 -0.11,0 -0.199,-0.03 -0.99,0.939 -1.979,1.869 -2.979,2.808 -0.37,1.669 -0.71,3.318 -1.079,4.957l0.01 0zm-3.288 3.228c-0.78,-0.11 -1.549,-0.21 -2.329,-0.31 -0.17,0.81 -0.36,1.629 -0.53,2.439 0.2,0.03 0.39,0.05 0.59,0.08 0.74,-0.74 1.499,-1.469 2.269,-2.209l0 0zm0.709 2.578c-0.989,-0.11 -1.979,-0.259 -2.978,-0.369 -0.26,0.249 -0.51,0.499 -0.77,0.749 -0.15,0.749 -0.289,1.499 -0.439,2.249 1.199,0.149 2.388,0.309 3.588,0.459 0.2,-1.019 0.399,-2.039 0.6,-3.088l-0.001 0zm-4.927 41.445c1.219,0.14 2.439,0.28 3.628,0.45 -0.51,-0.91 -1.05,-1.789 -1.56,-2.719 -1.219,-0.139 -2.438,-0.279 -3.658,-0.449 0.54,0.909 1.08,1.808 1.59,2.718l0 0z"/>
   </g>
  </g>
  <path fill="none" d="M69.622 5.532c-9.32,-0.113 -15.317,-0.1 -21.532,-0.475 -6.215,-0.375 -12.649,-1.137 -18.001,-2.044 -5.351,-0.908 -9.62,-1.96 -13.89,-3.013l-2.056 6.766c-2.101,6.05 -3.233,10.386 -4.916,16.285 -0.249,0.873 -0.435,1.453 -0.642,2.333 -2.36,10.025 -4.55,19.989 -6.162,30.214 -0.554,3.516 -0.787,7.435 -1.226,10.942l-0.435 5.757c-0.045,1.83 -0.234,3.899 -0.37,5.626 -0.078,0.987 0.009,2.192 -0.003,3.205 -0.013,1.158 -0.208,1.511 -0.203,2.794 0.009,2.038 0.069,4.202 0.011,6.226 -0.028,1.013 -0.181,1.575 -0.197,2.723l0.192 9.099c-0.03,8.303 0.172,15.985 0.183,24.267 0.002,1.267 0.207,1.666 0.202,2.996 -0.004,0.925 -0.065,2.104 0.005,3.001 0.131,1.645 0.218,4.048 0.519,5.469 1.056,4.985 5.703,6.849 10.073,7.859 3.312,0.766 6.714,1.111 10.138,1.576 4.01,0.545 19.376,0.399 23.493,-0.086 6.45,-0.761 15.507,-0.276 22.162,-1.971 7.272,-1.853 6.398,-2.822 7.435,-7.425 0.87,-3.869 2.219,-13.998 3.169,-16.919 0.807,-2.484 1.721,-7.868 2.195,-10.524 0.344,-1.99 1.133,-3.678 1.718,-5.612 1.344,-4.441 1.694,-7.626 2.92,-12.169 0.377,-1.398 0.722,-2.38 1.102,-3.854 0.997,-3.864 2.19,-8.249 2.968,-12.117 0.575,-2.856 1.095,-5.36 1.653,-8.289l2.191 -12.734c0.189,-0.998 0.23,-2.248 1.182,-2.596 0.952,0.348 0.993,1.598 1.182,2.596l2.191 12.734c0.558,2.929 1.077,5.433 1.652,8.289 0.779,3.868 1.972,8.253 2.968,12.117 0.38,1.474 0.725,2.456 1.103,3.854 1.226,4.543 1.576,7.728 2.919,12.169 0.585,1.934 1.375,3.622 1.719,5.612 0.473,2.654 1.389,8.042 2.195,10.524 0.949,2.921 2.299,13.05 3.169,16.919 1.037,4.603 0.163,5.572 7.434,7.425 6.656,1.695 15.712,1.21 22.163,1.971 4.117,0.485 19.483,0.631 23.492,0.086 3.425,-0.465 6.827,-0.81 10.138,-1.576 4.371,-1.01 9.018,-2.874 10.074,-7.859 0.301,-1.421 0.388,-3.824 0.519,-5.469 0.07,-0.897 0.009,-2.076 0.005,-3.001 -0.005,-1.33 0.2,-1.729 0.202,-2.996 0.011,-8.282 0.213,-15.964 0.183,-24.267l0.191 -8.764 -0.196 -3.058c-0.058,-2.024 0.002,-4.188 0.011,-6.226 0.004,-1.283 -0.19,-1.636 -0.204,-2.794 -0.011,-1.013 0.076,-2.218 -0.002,-3.205 -0.136,-1.727 -0.325,-3.796 -0.37,-5.626l-0.436 -5.757c-0.439,-3.507 -0.671,-7.426 -1.225,-10.942 -1.612,-10.225 -3.802,-20.189 -6.162,-30.214 -0.207,-0.88 -0.394,-1.46 -0.643,-2.333 -1.682,-5.899 -2.814,-10.235 -4.915,-16.285l-2.057 -6.766c-2.951,0.866 -5.902,1.731 -9.677,2.477 -3.774,0.745 -8.371,1.369 -13.806,1.869 -5.434,0.5 -11.706,0.875 -19.026,1.15 -7.321,0.274 -15.692,0.449 -26.199,0.418 -10.507,-0.031 -23.15,-0.269 -32.47,-0.382z"/>
 </g>
</svg>
