<?xml version="1.0" encoding="UTF-8"?>
<!DOCTYPE svg PUBLIC "-//W3C//DTD SVG 1.1//EN" "http://www.w3.org/Graphics/SVG/1.1/DTD/svg11.dtd">
<!-- Creator: CorelDRAW 2018 (64 Bit Versão de avaliação) -->
<svg xmlns="http://www.w3.org/2000/svg" xml:space="preserve" width="181px" height="149px" version="1.1" shape-rendering="geometricPrecision" text-rendering="geometricPrecision" image-rendering="optimizeQuality" fill-rule="evenodd" clip-rule="evenodd"
viewBox="0 0 195683 161298"
 xmlns:xlink="http://www.w3.org/1999/xlink">
 <g id="Camada_x0020_1">
  <metadata id="CorelCorpID_0Corel-Layer"/>
  <path id="d2" fill="#F00808" d="M195394 115604c-28,-819 -65,-1606 -86,-2413l-26 241c-123,991 -246,1968 -379,2944 -68,569 -153,1123 -243,1676 -30,190 -60,379 -79,554 -90,583 -186,1166 -271,1734 -23,117 -41,233 -59,350 112,-14 241,-41 353,-69 11,0 28,0 45,-15 138,-815 258,-1631 391,-2462 6,-44 12,-87 18,-146 85,-553 164,-1107 242,-1675l94 -719zm-571 -15937c-26,-911 -58,-2008 -108,-3439 -133,-3828 -388,-10045 -885,-16183 -122,-1509 -259,-3012 -410,-4508l-1 -1c75,818 144,1636 208,2455 -62,72 -125,159 -181,216 195,2644 350,5273 473,7902 72,74 144,118 211,163 30,832 60,1635 90,2453 -73,72 -136,159 -198,231 38,2642 60,5270 25,7911 67,59 133,104 200,163 -15,817 -35,1649 -55,2466 85,-101 175,-202 267,-318 -117,2947 -289,5894 -501,8839 -57,657 -126,1313 -189,1954 -109,1269 -246,2537 -405,3805 -117,977 -240,1968 -374,2944 -79,569 -158,1123 -242,1676 -30,146 -49,292 -67,437 -108,656 -210,1312 -318,1967 -18,88 -24,161 -31,233 -148,816 -286,1617 -446,2419 141,-28 275,-56 410,-83 154,-802 303,-1603 429,-2419 41,-204 72,-408 114,-626 60,-394 114,-787 175,-1181 47,-261 84,-539 126,-815 90,-554 175,-1108 248,-1662 134,-990 257,-1982 380,-2973 155,-1385 304,-2770 437,-4169 38,-394 76,-788 114,-1196 208,-2883 380,-5766 504,-8661zm-193294 639c193,2834 294,5469 344,8336 43,2426 49,5018 64,7857l56 -54c120,2697 265,5393 415,8075 88,98 183,182 274,266 46,758 95,1501 144,2244 195,2869 407,5738 638,8591 13,160 29,320 39,480 49,583 99,1165 148,1747 36,408 75,815 114,1208 53,567 104,1120 156,1673 129,10 261,19 390,14 -52,-553 -104,-1106 -156,-1673 -51,-524 -98,-1063 -150,-1600 -37,-452 -75,-903 -110,-1369 -4,-29 -5,-58 -10,-87 -251,-3116 -483,-6232 -695,-9363 -32,-481 -64,-977 -93,-1472 91,99 183,183 274,267 -194,-3292 -365,-6586 -515,-9881 65,-61 131,-122 192,-197 -7,-175 -14,-365 -25,-554 -70,-70 -137,-141 -208,-211 -123,-3296 -222,-6592 -308,-9889 68,-61 134,-122 198,-198 0,-175 -7,-364 -7,-554 -73,-56 -137,-126 -208,-197 -62,-3297 -101,-6596 -126,-9896 -85,91 -170,167 -255,244 -130,136 -257,258 -384,380 -85,91 -170,167 -255,243 13,1856 32,3712 59,5567l0 1 0 2zm13175 35832c49,568 95,1135 149,1689 43,494 93,989 138,1484 57,567 105,1120 159,1673 78,873 173,1746 264,2618 85,815 171,1629 255,2429 133,10 262,5 393,0 -88,-800 -173,-1600 -258,-2415 -92,-872 -182,-1745 -264,-2618 -54,-553 -103,-1106 -159,-1673 -57,-626 -115,-1251 -177,-1877 -28,-291 -50,-597 -75,-903 -276,-3304 -521,-6609 -750,-9915 -18,-306 -40,-612 -59,-918 92,98 184,183 275,267 -215,-3468 -400,-6950 -560,-10434 68,-61 130,-122 198,-198 -77,-70 -147,-140 -214,-211 -133,-3470 -247,-6956 -337,-10442 65,-62 130,-122 195,-198 -70,-70 -140,-141 -207,-211 -70,-3473 -112,-6961 -141,-10450 -88,91 -173,182 -255,257 -130,137 -257,259 -384,380 -85,91 -173,168 -255,244 23,2891 63,5780 116,8655 -66,-56 -137,-126 -204,-196 17,875 33,1736 56,2597 62,-61 127,-122 192,-197 84,2887 178,5775 282,8648 -71,-70 -141,-140 -212,-211 37,875 77,1735 114,2595 65,-61 130,-121 192,-197 135,2886 290,5772 457,8642 95,99 183,183 281,267 32,568 67,1122 105,1675 212,3059 434,6102 690,9144zm-1427 4801c82,888 176,1760 267,2633 129,9 261,5 389,0 -91,-873 -181,-1746 -266,-2619 -55,-553 -103,-1106 -159,-1673 -7,0 -13,0 -20,1 7,-1 13,-15 19,-30 -92,-975 -183,-1950 -266,-2940 -48,-553 -93,-1106 -134,-1659 -175,-2067 -325,-4135 -476,-6217 -100,-1530 -199,-3074 -299,-4618 95,98 183,183 277,267 -127,-2244 -247,-4489 -353,-6733 65,-61 131,-122 196,-198 -61,-1224 -116,-2463 -160,-3703 -74,-70 -144,-140 -211,-211 -83,-2245 -156,-4491 -225,-6738 69,-61 137,-122 202,-197 -30,-1226 -57,-2466 -81,-3706 -70,-56 -137,-126 -208,-197 -39,-2247 -68,-4495 -89,-6743 -88,91 -173,167 -255,243 -130,137 -258,259 -385,380 -88,91 -173,168 -255,244 16,1649 39,3299 65,4948 -73,-56 -137,-126 -204,-197 41,2101 81,4203 141,6303 66,-61 134,-122 196,-197 46,1648 99,3296 159,4944 -67,-70 -137,-141 -204,-211 77,2115 168,4214 259,6313 66,-61 131,-122 192,-197 80,1647 171,3293 261,4926 91,98 179,183 274,267 110,1806 226,3598 346,5390 134,1819 268,3640 416,5445 49,684 109,1368 166,2053 83,989 171,1979 266,2954 12,131 23,247 35,363 40,437 84,874 124,1310zm-2025 -1704c52,568 104,1121 156,1674 129,9 261,4 389,-1 -55,-552 -103,-1106 -159,-1673 -92,-990 -184,-1979 -267,-2969 -98,-1164 -194,-2329 -290,-3508 -59,-830 -122,-1674 -185,-2519 -194,-2767 -371,-5535 -533,-8318 92,99 184,183 271,267 -52,-1005 -107,-2011 -163,-3031 65,-61 130,-122 198,-197 -115,-2464 -219,-4928 -311,-7407 -74,-70 -141,-140 -212,-211 -35,-1006 -67,-2013 -95,-3019 65,-61 134,-122 195,-197 -71,-2465 -119,-4946 -167,-7427 -69,-56 -136,-126 -207,-196 -8,-1007 -23,-2015 -35,-3036 -88,91 -173,167 -255,243 -130,136 -254,258 -381,380 -85,91 -169,182 -258,258 9,408 11,817 17,1226 -67,-56 -133,-126 -201,-197 54,3342 125,6684 219,10010 65,-62 131,-122 196,-198 12,423 21,832 37,1240 -67,-70 -137,-141 -208,-211 122,3339 260,6678 422,10016 66,-61 128,-122 189,-197 23,408 45,816 71,1224 92,98 179,183 271,267 171,3031 365,6061 583,9090 39,582 81,1165 128,1747 101,1310 211,2606 315,3902 86,989 171,1979 270,2968zm-2451 -6813c99,1267 205,2533 311,3800 130,9 262,19 390,14 -115,-1397 -233,-2795 -341,-4193 -28,-393 -60,-786 -85,-1179 -225,-3204 -433,-6423 -615,-9644 82,-76 163,-167 244,-257 -15,-219 -23,-437 -36,-671 67,71 141,141 211,197 -169,-3513 -317,-7027 -443,-10556 -65,75 -130,136 -195,197 -8,-218 -14,-452 -20,-685 67,70 137,141 208,211 -101,-3516 -179,-7047 -234,-10578 -65,75 -133,136 -199,197 -5,-219 -6,-438 -5,-671 -88,-85 -176,-169 -261,-268 -133,-126 -263,-252 -391,-394 -88,-84 -176,-168 -261,-267 6,832 17,1664 28,2481 -64,76 -130,137 -195,198 44,2656 99,5311 174,7966 70,70 137,141 208,211 21,832 47,1663 78,2480 -65,75 -130,136 -196,197 96,2654 211,5308 330,7961 70,70 138,140 211,211 46,830 87,1646 132,2462 82,-76 163,-152 245,-242 167,2957 355,5915 564,8871 48,655 94,1311 143,1951zm-622 13430c28,276 58,552 86,814 128,-5 257,-10 385,-15 -27,-247 -54,-509 -77,-785 -43,-393 -85,-785 -128,-1193 -46,-407 -89,-814 -131,-1221 -91,-873 -179,-1746 -260,-2619 -30,-335 -60,-684 -97,-1033 -22,-204 -40,-422 -59,-640 -95,-990 -184,-1979 -262,-2969 -68,-772 -131,-1543 -198,-2329 -127,-1631 -244,-3262 -368,-4892 -130,-1982 -257,-3963 -374,-5944 79,-77 164,-153 245,-243 -80,-1457 -159,-2915 -230,-4387 71,70 141,141 211,211 -104,-2289 -202,-4578 -287,-6867 -61,75 -127,136 -192,197 -53,-1458 -95,-2917 -138,-4390 70,70 137,141 208,211 -67,-2275 -112,-4566 -156,-6857 -65,75 -130,136 -199,197 -18,-1459 -34,-2919 -53,-4394 -88,-83 -173,-168 -261,-267 -130,-126 -260,-253 -388,-394 -87,-84 -172,-168 -257,-267 19,2073 44,4131 75,6189 -61,75 -130,136 -195,197 28,1430 52,2845 89,4260 67,71 137,141 208,212 59,2071 121,4127 197,6184 -61,75 -127,136 -192,197 55,1429 109,2843 177,4257 67,71 137,141 211,211 93,2070 206,4125 315,6180 82,-77 163,-167 245,-258 106,1733 213,3453 324,5172 140,1893 277,3786 427,5664 55,655 110,1295 162,1936 82,990 171,1979 267,2968 7,88 13,175 23,248 45,480 91,960 132,1426 78,873 169,1746 260,2618 58,539 113,1077 167,1615 31,276 61,538 88,800zm-3097 -18777c-46,-744 -95,-1486 -144,-2244 78,-76 160,-152 241,-243 -151,-2696 -295,-5392 -419,-8089 74,71 141,141 215,211 -51,-1049 -95,-2099 -135,-3149 -62,61 -127,122 -193,183 -99,-2683 -183,-5381 -256,-8080 67,70 134,141 204,197 -20,-1051 -43,-2102 -64,-3152 -64,75 -130,136 -199,197 -46,-2700 -78,-5400 -97,-8101 -92,-84 -176,-168 -261,-267 -134,-126 -261,-253 -391,-394 -88,-84 -169,-169 -257,-253 25,3299 64,6598 127,9896 -69,75 -131,136 -199,197 4,190 7,380 11,555 63,70 134,141 204,196 86,3297 185,6594 309,9889 -65,76 -131,137 -196,198 11,189 14,379 25,553 67,71 140,141 211,211 150,3295 321,6589 515,9882 78,-76 159,-167 241,-258 32,495 65,991 96,1471 212,3132 441,6248 695,9364 1,29 3,57 7,87 38,465 80,931 118,1383 44,538 95,1062 145,1586 53,567 104,1120 156,1673 81,873 172,1746 263,2618 126,10 261,19 390,15 -91,-873 -179,-1746 -260,-2619 -52,-553 -107,-1106 -159,-1673 -35,-393 -75,-800 -111,-1208 -53,-582 -102,-1164 -152,-1761 -16,-160 -29,-320 -42,-480 -228,-2854 -440,-5722 -638,-8591zm173426 -10893c-79,568 -141,1123 -231,1676 -73,496 -156,991 -229,1486 -96,569 -175,1122 -259,1676 -139,874 -305,1748 -460,2622 -148,816 -303,1632 -452,2433 -135,28 -269,41 -398,54 149,-801 297,-1602 452,-2418 155,-874 316,-1748 454,-2607 85,-554 169,-1108 259,-1676 96,-627 193,-1253 289,-1880 48,-291 85,-597 122,-903 406,-3295 744,-6590 1016,-9885 19,-307 45,-613 65,-919 -96,115 -192,217 -277,303 211,-3442 344,-6914 399,-10373 -72,-44 -133,-89 -205,-163 73,-72 142,-159 204,-231 -18,-3445 -81,-6905 -217,-10365 -67,-45 -139,-89 -211,-163 63,-73 136,-159 193,-232 -203,-3446 -473,-6894 -788,-10342 95,74 183,163 283,222 139,104 283,207 417,311 94,74 194,134 277,193 260,2864 481,5727 657,8560 68,-58 130,-144 187,-217 52,862 104,1709 139,2571 -66,-59 -133,-104 -205,-163 98,2862 161,5723 192,8570 68,-87 136,-159 204,-246 -10,875 -19,1722 -28,2583 -67,-59 -139,-104 -200,-163 -48,2861 -169,5734 -318,8594 -96,101 -187,202 -283,303 -40,569 -74,1108 -114,1663 -262,3047 -559,6080 -934,9126zm1199 4495c-133,888 -299,1762 -460,2636 -123,28 -269,55 -398,69 161,-874 321,-1748 454,-2623 90,-553 175,-1107 265,-1675 5,0 11,0 17,0 -6,0 -11,-14 -17,-29 151,-976 301,-1953 425,-2944 72,-539 135,-1093 197,-1647 263,-2070 454,-4126 655,-6211 107,-1517 207,-3048 303,-4594 -91,116 -182,217 -272,303 97,-2232 188,-4464 230,-6682 -67,-59 -133,-104 -200,-163 24,-1225 38,-2451 29,-3677 74,-87 136,-174 199,-246 -21,-2234 -69,-4453 -140,-6687 -78,-44 -150,-89 -222,-163 -43,-1212 -113,-2438 -189,-3666 62,-57 130,-144 192,-231 -143,-2220 -320,-4440 -508,-6661 94,74 188,134 277,208 144,103 278,207 422,311 95,73 183,133 278,193 133,1636 261,3257 377,4893 74,-72 131,-145 188,-231 128,2088 251,4162 323,6250 -72,-59 -139,-103 -211,-163 60,1636 98,3256 114,4891 63,-72 136,-159 199,-231 22,2087 4,4174 -24,6261 -67,-45 -133,-103 -194,-163 -40,1635 -115,3268 -177,4902 -91,102 -176,203 -278,304 -109,1794 -223,3573 -366,5367 -166,1808 -342,3631 -553,5424 -80,685 -166,1370 -252,2055 -122,991 -268,1982 -424,2958 -24,132 -36,248 -54,365 -66,422 -138,859 -205,1297zm2172 -1991c-85,568 -169,1122 -254,1676 -129,28 -269,41 -398,54 90,-554 169,-1108 259,-1676 151,-991 291,-1967 413,-2958 153,-1167 294,-2332 436,-3513 71,-817 153,-1662 235,-2508 231,-2756 413,-5513 550,-8284 -91,115 -182,216 -272,318 39,-1007 78,-2014 122,-3020 -72,-45 -139,-104 -205,-163 32,-2452 53,-4889 25,-7356 68,-72 136,-159 204,-246 -17,-992 -46,-1986 -74,-2993 -72,-44 -144,-89 -211,-163 -85,-2438 -232,-4892 -384,-7345 74,-73 130,-145 193,-232 -84,-993 -157,-1987 -241,-2995 94,74 188,134 272,193 150,118 283,222 422,326 94,74 177,148 277,207 29,409 70,804 99,1213 62,-73 119,-145 182,-232 232,3316 414,6616 534,9916 -72,-59 -144,-103 -210,-162 12,408 25,817 42,1226 57,-87 125,-159 193,-246 42,3314 28,6627 -47,9954 -61,-59 -128,-104 -189,-177 -21,408 -37,817 -52,1225 -97,116 -182,203 -272,303 -140,3020 -341,6039 -609,9058 -40,569 -96,1152 -159,1735 -137,1312 -309,2609 -457,3892 -128,991 -268,1982 -424,2973zm2787 -7107c-137,1269 -297,2537 -456,3805 -135,27 -264,55 -392,68 166,-1399 338,-2784 476,-4183 38,-394 82,-788 120,-1181 264,-3194 478,-6388 625,-9597 -88,-60 -177,-134 -254,-222 13,-219 15,-423 23,-657 -68,73 -141,159 -204,217 72,-3488 83,-6976 31,-10479 72,73 145,118 211,177 -3,-219 -17,-453 -26,-686 -63,87 -125,159 -193,246 -118,-3490 -315,-6980 -563,-10472 72,60 145,104 217,163 -14,-219 -40,-438 -54,-672 74,-101 153,-188 233,-303 119,-145 238,-290 357,-449 74,-101 153,-188 233,-304 69,818 133,1636 203,2454 66,59 133,119 211,163 178,2629 328,5258 428,7887 -68,72 -130,159 -198,246 36,817 60,1635 74,2452 72,60 132,118 205,163 33,2628 21,5269 -14,7896 -68,87 -131,159 -210,246 -26,832 -57,1634 -88,2451 -84,-59 -167,-118 -244,-207 -133,2947 -328,5893 -579,8839 -63,656 -121,1312 -172,1939zm-71 13135c-54,277 -107,554 -155,816 -134,13 -263,26 -403,54 53,-247 100,-510 143,-787 77,-393 148,-786 226,-1194 71,-408 154,-815 225,-1223 162,-874 294,-1749 427,-2623 59,-335 102,-685 168,-1034 30,-204 61,-423 91,-642 156,-990 285,-1981 402,-2973 103,-772 196,-1530 294,-2317 169,-1633 315,-3252 473,-4885 134,-1969 262,-3938 362,-5922 -78,-59 -167,-118 -256,-192 61,-1445 122,-2903 144,-4362 -69,86 -137,158 -210,245 36,-2276 39,-4553 13,-6816 67,59 139,104 205,163 -17,-1445 -69,-2890 -120,-4351 -62,72 -125,159 -193,232 -87,-2249 -225,-4513 -362,-6791 66,73 139,118 217,163 -114,-1432 -238,-2878 -356,-4339 80,-102 159,-188 233,-304 119,-145 232,-290 341,-449 79,-101 158,-188 232,-304 185,2046 353,4076 505,6121 66,59 144,104 210,163 86,1417 171,2804 245,4206 -62,87 -125,174 -193,246 67,2059 140,4089 162,6132 67,59 134,119 206,163 13,1416 19,2817 -7,4233 -63,72 -131,159 -204,231 -29,2058 -101,4101 -180,6143 -88,-59 -172,-133 -261,-207 -86,1721 -200,3427 -308,5149 -166,1880 -349,3776 -549,5642 -80,656 -160,1298 -239,1939 -123,991 -246,1982 -402,2958 -12,88 -25,175 -36,248 -73,481 -157,962 -218,1428 -132,874 -276,1748 -431,2623 -102,538 -202,1078 -298,1616 -48,277 -101,539 -143,801zm3908 -18989c48,-744 100,-1473 153,-2232 -83,-59 -166,-118 -249,-207 108,-2670 204,-5354 239,-8040 -74,87 -136,160 -210,246 17,-1036 12,-2087 7,-3123 66,44 127,103 199,148 -26,-2657 -120,-5343 -225,-8016 -57,87 -120,160 -193,232 -67,-1037 -123,-2074 -179,-3126 72,74 145,119 211,163 -183,-2658 -406,-5332 -662,-8005 79,-102 153,-188 227,-304 125,-145 239,-290 352,-449 80,-101 148,-188 227,-289 328,3258 595,6516 811,9788 72,59 139,103 211,163 15,189 24,365 33,540 -56,87 -125,159 -193,231 155,3271 265,6528 302,9797 60,74 127,118 199,163 4,190 7,380 5,555 -68,87 -135,159 -204,246 -41,3269 -144,6537 -303,9819 -73,-59 -156,-133 -233,-221 -39,496 -73,991 -106,1473 -224,3121 -521,6226 -880,9331 0,30 -1,59 -6,88 -56,467 -117,932 -173,1385 -67,539 -140,1063 -224,1588 -85,568 -169,1122 -254,1676 -132,859 -276,1734 -426,2608 -123,28 -269,70 -398,83 144,-874 288,-1748 426,-2623 79,-553 164,-1107 254,-1675 65,-394 121,-802 175,-1210 79,-583 147,-1166 215,-1749 25,-160 49,-320 62,-481 322,-2857 600,-5715 810,-8573zm1060 11600c-90,568 -175,1122 -259,1676 -129,28 -264,55 -404,68 90,-553 174,-1107 259,-1675 78,-510 146,-1050 219,-1589 50,-452 111,-904 166,-1370 6,-29 7,-58 12,-87 348,-3105 650,-6211 864,-9332 39,-481 67,-977 106,-1473 -102,115 -199,217 -278,303 148,-3268 240,-6550 287,-9819 -73,-45 -139,-104 -211,-163 2,-176 4,-365 0,-555 74,-72 136,-159 199,-231 -37,-3270 -141,-6541 -296,-9812 -72,-44 -144,-89 -211,-163 -15,-175 -30,-350 -39,-540 69,-73 125,-145 188,-232 -211,-3257 -483,-6529 -805,-9787 94,73 188,147 277,207 145,104 284,207 428,311 88,74 183,133 277,193 263,2674 485,5347 674,8020 73,-72 130,-144 193,-231 61,1037 123,2074 178,3125 -66,-59 -133,-103 -211,-163 122,2673 211,5344 243,8016 74,-72 147,-159 204,-246 16,1051 22,2087 16,3138 -72,-59 -139,-103 -206,-148 -34,2671 -114,5355 -222,8025 -91,101 -187,202 -272,304 -47,758 -89,1488 -147,2231 -200,2859 -472,5717 -788,8574 -19,160 -43,321 -56,466 -74,583 -147,1167 -226,1750 -44,408 -105,816 -159,1209zm2292 -3288c-123,991 -246,1968 -380,2944 -129,28 -264,71 -398,83 134,-991 268,-1982 380,-2973 79,-641 165,-1283 228,-1924 189,-1881 366,-3762 516,-5657 108,-1707 216,-3428 297,-5150 -102,116 -188,217 -272,304 84,-2042 139,-4085 168,-6143 -67,-45 -139,-89 -200,-163 10,-1401 3,-2802 -15,-4218 68,-87 130,-159 198,-246 -39,-2044 -106,-4073 -184,-6132 -73,-45 -145,-89 -212,-148 -79,-1402 -170,-2819 -255,-4236 67,-58 130,-145 187,-217 -151,-2045 -325,-4076 -527,-6121 100,74 195,133 284,193 144,118 283,222 422,325 100,74 188,148 277,208 147,1446 260,2893 378,4324 62,-58 125,-145 187,-217 160,2264 292,4528 408,6792 -67,-59 -139,-104 -206,-163 46,1460 103,2906 137,4351 74,-87 136,-159 193,-246 42,2278 51,4540 26,6816 -67,-44 -139,-103 -199,-162 -22,1459 -60,2903 -121,4362 -85,87 -181,188 -266,289 -83,1970 -206,3939 -345,5923 -130,1618 -282,3251 -440,4870 -75,787 -162,1560 -266,2332z"/>
  <path id="calcao_contorno" fill="none" d="M86877 155540c57,-276 111,-684 198,-2144 87,-1461 207,-3975 494,-8922 288,-4947 745,-12326 1108,-17715 364,-5390 636,-8789 989,-12546 352,-3758 787,-7874 1330,-12163 543,-4290 1195,-8753 2031,-13825 836,-5071 1857,-10751 2633,-14471 777,-3719 1309,-5479 1650,-6590 342,-1112 492,-1576 610,-1830 117,-254 201,-298 281,-290 81,7 157,66 254,174 98,108 218,265 372,597 155,332 345,838 651,1525 306,687 729,1555 1092,2405 363,850 667,1684 796,2326 129,642 83,1093 121,1599 38,506 160,1068 480,1542 321,474 839,860 1138,1371 299,512 377,1150 573,2055 195,906 507,2079 615,2964 107,885 9,1482 -93,2046 -101,563 -207,1093 -96,1623 111,531 440,1063 824,1557 384,495 824,951 1094,1251 270,300 371,443 467,579 96,136 189,264 334,838 145,574 343,1595 418,2303 75,709 26,1106 -3,1500 -28,396 -36,789 -69,1290 -32,501 -89,1109 -81,1667 8,558 81,1066 438,1819 357,754 998,1753 1605,2560 607,808 1179,1425 1564,1812 385,388 582,546 759,828 177,282 335,686 465,1203 130,518 234,1148 289,1878 56,730 64,1561 52,2483 -12,922 -45,1934 143,2856 187,922 594,1752 1048,2454 453,702 952,1275 1323,1739 371,465 613,820 815,1171 203,350 365,695 528,1099 163,405 326,869 450,1408 123,539 207,1153 323,1709 115,557 262,1056 357,1618 95,562 138,1187 304,2099 166,912 453,2112 646,3116 193,1005 291,1814 396,2531 106,717 220,1341 310,2175 89,833 155,1876 280,2641 124,766 309,1255 442,1990 133,736 214,1719 285,2297 71,579 130,752 274,907 144,155 372,290 679,442 307,153 692,321 1086,576 394,255 796,597 1257,990 462,392 983,834 1546,1188 564,352 1169,616 1745,818 575,202 1121,343 1722,497 602,153 1259,319 2147,474 887,154 2006,298 2867,397 860,100 1463,154 2700,174 1236,21 3107,7 4534,-32 1426,-40 2409,-105 3661,-214 1252,-108 2772,-260 4550,-449 1779,-188 3815,-414 5523,-572 1707,-159 3087,-252 4504,-330 1417,-79 2872,-144 4136,-180 1264,-35 2336,-40 4548,-77 2211,-37 5561,-105 7790,-171 2229,-67 3337,-132 4993,-333 1657,-201 3861,-537 5223,-773 1362,-237 1881,-373 2235,-519 354,-146 543,-303 694,-404 152,-102 266,-148 573,-258 306,-110 806,-284 1386,-483 579,-200 1239,-425 1759,-648 520,-222 900,-442 1145,-582 246,-140 358,-200 538,-211 181,-10 430,28 638,-23 208,-50 374,-188 595,-396 221,-208 498,-485 609,-911 111,-426 57,-1002 63,-2454 5,-1453 70,-3782 49,-6375 -22,-2593 -131,-5449 -185,-7192 -54,-1743 -54,-2373 -54,-3263 0,-891 0,-2042 -27,-3120 -28,-1078 -82,-2082 -106,-3122 -25,-1040 -19,-2115 -87,-3817 -68,-1703 -209,-4032 -285,-5916 -76,-1884 -87,-3324 -220,-7152 -133,-3828 -388,-10045 -885,-16183 -497,-6139 -1236,-12199 -2170,-17954 -933,-5756 -2063,-11208 -3181,-16388 -1119,-5180 -2227,-10089 -3682,-15106 -1455,-5017 -3258,-10143 -4995,-14759 -1738,-4615 -3410,-8720 -4398,-11100 -989,-2379 -1293,-3034 -1423,-3457 -130,-424 -87,-617 9,-765 97,-147 246,-251 367,-332 13,-9 27,-18 39,-28 -39,-2 -84,-4 -137,-7 -99,-6 -231,-13 -660,-46 -428,-34 -1152,-94 -2111,-102 -959,-8 -2154,36 -3406,126 -1253,90 -2563,228 -4608,579 -2046,351 -4826,916 -7121,1427 -2295,510 -4105,966 -6479,1437 -2375,470 -5315,955 -8265,1350 -2950,394 -5912,698 -9495,1024 -3584,326 -7790,674 -11305,920 -3515,246 -6339,391 -8920,532 -2581,141 -4920,278 -7577,384 -2657,105 -5632,177 -8586,238 -2954,62 -5886,113 -8681,106 -2794,-8 -5451,-73 -7942,-131 -2491,-58 -4815,-108 -7331,-184 -2515,-77 -5223,-178 -8546,-272 -3323,-94 -7262,-181 -11436,-206 -4174,-26 -8583,11 -12232,7 -3649,-4 -6538,-47 -10357,-196 -3819,-148 -8568,-401 -11984,-657 -3415,-255 -5497,-512 -7010,-814 -1514,-303 -2460,-651 -3406,-999 42,61 20,179 -26,595 -59,524 -156,1520 -428,3353 -271,1833 -717,4502 -1007,6455 -291,1954 -426,3192 -752,5230 -326,2040 -842,4880 -1257,7383 -415,2503 -731,4669 -980,6496 -250,1828 -435,3315 -606,5042 -171,1727 -328,3692 -499,6071 -171,2378 -356,5169 -541,8286 -184,3117 -369,6559 -504,10230 -136,3671 -223,7569 -196,11560 27,3991 169,8074 446,12044 277,3969 689,7824 961,11289 271,3464 401,6537 461,9936 60,3399 49,7124 87,11398 38,4273 125,9095 212,13118 87,4024 173,7249 254,9470 80,2221 153,3437 183,4165 30,728 16,967 26,2123 9,1157 42,3231 74,4711 33,1479 66,2364 131,2891 65,527 163,695 459,1005 296,309 790,760 2506,1121 1715,361 4653,632 7455,874 2802,242 5468,453 9991,695 4523,242 10904,513 15617,717 4713,203 7759,339 10431,363 2671,25 4968,-62 7289,-135 2322,-74 4668,-133 6905,-207 2237,-73 4366,-160 7366,-537 3000,-377 6871,-1046 9290,-1540 2419,-494 3386,-814 4236,-1246 849,-431 1582,-974 1979,-1319 396,-345 456,-492 513,-769z"/>
 </g>
</svg>
