<?xml version="1.0" encoding="UTF-8"?>
<!DOCTYPE svg PUBLIC "-//W3C//DTD SVG 1.1//EN" "http://www.w3.org/Graphics/SVG/1.1/DTD/svg11.dtd">
<!-- Creator: CorelDRAW 2018 (64 Bit Versão de avaliação) -->
<svg xmlns="http://www.w3.org/2000/svg" xml:space="preserve" width="187px" height="148px" version="1.1" shape-rendering="geometricPrecision" text-rendering="geometricPrecision" image-rendering="optimizeQuality" fill-rule="evenodd" clip-rule="evenodd"
viewBox="0 0 186999 147486"
 xmlns:xlink="http://www.w3.org/1999/xlink">
 <g id="Camada_x0020_1">
  <metadata id="CorelCorpID_0Corel-Layer"/>
  <path id="d2" fill="#F00808" d="M176608 96545c-64,81 -132,148 -195,216 63,53 127,107 181,161 -77,3214 -213,6414 -404,9614 -68,67 -131,135 -199,202 54,67 113,121 177,175 -255,3213 -563,6414 -944,9614 90,-81 177,-162 267,-256 -31,283 -63,565 -95,834 -431,2999 -908,5997 -1425,8982 59,0 114,0 173,-13 77,-67 149,-135 231,-216 490,-2810 935,-5620 1339,-8430 59,-511 122,-1036 190,-1560 91,-81 177,-162 268,-256 309,-2649 563,-5311 781,-7973 59,53 118,107 177,161 54,-793 109,-1587 168,-2394 -68,81 -136,148 -209,216 141,-2649 258,-5312 327,-7974 63,54 127,108 186,161 22,-793 32,-1586 36,-2393 -64,80 -127,148 -191,215 10,-2649 -27,-5311 -81,-7974 -82,-67 -164,-134 -245,-201 -127,-108 -250,-216 -372,-323 -82,-67 -164,-135 -245,-202 77,3214 113,6414 104,9614zm-176597 -3165l84 3987 2 -1c-18,-1305 -23,-2609 -27,-3927l-59 -59zm178 9927c-3,3262 28,6438 65,9603 185,1708 394,3415 614,5123 218,1506 436,3012 677,4504 127,726 245,1439 372,2152 158,914 331,1828 522,2743 40,202 77,403 118,591 63,323 127,646 195,955 159,807 331,1614 522,2420 86,377 172,753 258,1130 87,376 173,739 254,1103 64,255 119,497 173,739 122,14 245,27 368,40 -50,-242 -105,-484 -168,-739 -55,-242 -114,-484 -173,-740 -118,-497 -231,-995 -345,-1492 -190,-807 -363,-1614 -522,-2421 -90,-430 -181,-874 -268,-1317 -13,-67 -36,-148 -45,-229 -186,-914 -358,-1829 -522,-2743 -104,-592 -204,-1183 -308,-1788 -286,-1735 -540,-3483 -799,-5231 -191,-1587 -386,-3173 -567,-4760 90,94 177,175 267,255 -181,-1896 -363,-3791 -503,-5687 63,-54 122,-108 177,-162 -96,-1304 -182,-2608 -245,-3926 -38,-40 -78,-80 -117,-123zm177 20328l4 889 154 17 -158 -906zm186262 1392c3,-721 6,-1438 11,-2151l-11 65c-104,605 -204,1196 -308,1788 -164,914 -336,1829 -522,2743 -9,81 -32,162 -45,229 -87,443 -177,887 -268,1317 -159,807 -332,1614 -522,2421 -114,497 -227,995 -345,1492 -59,256 -118,498 -173,740 -63,255 -117,497 -168,739 123,-13 246,-26 368,-40 55,-242 109,-484 173,-739 81,-364 167,-727 254,-1103 86,-377 172,-753 258,-1130 191,-806 363,-1613 522,-2420 68,-309 132,-632 196,-955 40,-188 77,-389 117,-591 168,-802 321,-1603 463,-2405zm103 -10867c49,-4006 92,-8015 77,-12179 -41,1048 -87,2095 -139,3143 -63,67 -131,135 -199,202 -14,175 -28,349 -37,511 55,54 114,107 177,161 -218,3039 -504,6078 -835,9117 91,-81 182,-175 268,-269 -50,457 -109,914 -163,1358 -386,2877 -808,5755 -1312,8632 0,27 -9,54 -13,81 -73,431 -146,861 -227,1278 -100,497 -196,981 -296,1465 -104,525 -208,1036 -313,1547 -163,806 -340,1613 -531,2420 123,-14 245,-27 368,-40 191,-807 372,-1614 531,-2421 104,-511 209,-1022 313,-1546 73,-363 150,-739 227,-1116 109,-538 204,-1076 299,-1627 19,-135 46,-282 68,-430 463,-2636 849,-5285 1208,-7934 86,-685 168,-1371 254,-2057 86,-81 177,-175 272,-269l3 -27zm208 -18195l17 -797c-50,56 -102,111 -155,167 0,175 0,350 0,511 43,40 92,80 138,119zm48 -2200l12 -566 -15 -248 3 814zm-174991 2780c64,81 132,148 196,216 -64,53 -128,107 -182,161 77,3214 213,6414 404,9614 68,67 131,135 199,202 -54,67 -113,121 -176,175 254,3213 562,6414 944,9614 -91,-81 -178,-162 -268,-256 32,283 63,565 95,834 431,2999 908,5997 1425,8982 -59,0 -114,0 -173,-13 -77,-67 -149,-135 -231,-216 -490,-2810 -935,-5620 -1339,-8430 -59,-511 -122,-1036 -190,-1560 -91,-81 -177,-162 -268,-256 -309,-2649 -563,-5311 -781,-7973 -59,53 -118,107 -177,161 -54,-793 -109,-1587 -168,-2394 68,81 136,148 209,216 -141,-2649 -258,-5312 -327,-7974 -63,54 -127,108 -186,161 -22,-793 -32,-1586 -36,-2393 64,80 127,148 191,215 -9,-2649 27,-5311 81,-7974 82,-67 164,-134 246,-201 126,-108 249,-216 372,-323 81,-67 163,-135 245,-202 -77,3214 -114,6414 -105,9614zm-9594 19968c-86,-685 -168,-1371 -254,-2057 -86,-81 -177,-175 -272,-269 -250,-2474 -486,-4962 -667,-7449 -59,54 -118,107 -173,161 -72,-968 -140,-1936 -181,-2904 59,67 127,134 195,201 -118,-2474 -200,-4961 -263,-7449 -59,54 -123,108 -186,161 -9,-968 -9,-1936 -19,-2904 64,67 127,135 196,202 0,-2474 40,-4962 113,-7450 82,-67 168,-134 250,-215 122,-94 245,-202 367,-309 82,-67 168,-134 250,-215 -100,3039 -150,6078 -141,9117 59,67 123,134 186,201 0,175 0,350 0,511 -59,54 -127,108 -186,162 64,3038 168,6077 318,9116 63,67 131,135 199,202 14,175 28,349 37,511 -55,54 -114,107 -177,161 218,3039 504,6078 835,9117 -91,-81 -182,-175 -268,-269 50,457 109,914 164,1358 385,2877 807,5755 1311,8632 0,27 9,54 14,81 72,431 145,861 227,1278 100,497 195,981 295,1465 104,525 208,1036 313,1547 163,806 340,1613 531,2420 -123,-14 -245,-27 -368,-40 -190,-807 -372,-1614 -531,-2421 -104,-511 -209,-1022 -313,-1546 -73,-363 -150,-739 -227,-1116 -109,-538 -204,-1076 -299,-1627 -19,-135 -46,-282 -68,-430 -463,-2636 -849,-5285 -1208,-7934zm3940 11349c99,511 204,1022 313,1533 -127,-13 -250,-27 -372,-40 -105,-511 -205,-1022 -309,-1547 -100,-484 -195,-968 -300,-1465 -81,-417 -154,-834 -227,-1264 -9,-27 -9,-54 -13,-81 -504,-2878 -935,-5755 -1325,-8646 -55,-444 -105,-888 -164,-1345 -72,68 -140,135 -213,202 -331,-3026 -622,-6064 -840,-9103 -63,-67 -131,-135 -199,-215 -14,-162 -23,-337 -37,-511 59,-54 114,-108 173,-162 -150,-3025 -254,-6064 -318,-9103 -59,-67 -127,-134 -186,-215 -4,-161 -9,-336 -9,-511 63,-54 132,-108 191,-161 -5,-3026 40,-6065 140,-9104 78,94 150,175 227,256 114,135 227,269 345,403 77,94 155,175 232,256 -68,2487 -109,4975 -109,7462 63,-53 127,-107 186,-174 4,968 4,1936 22,2904 -63,-67 -127,-134 -190,-202 59,2488 150,4976 272,7463 55,-54 118,-107 177,-175 50,969 118,1937 191,2905 -68,-68 -136,-135 -200,-202 182,2488 422,4975 685,7463 -77,67 -145,134 -218,201 87,700 168,1386 250,2071 368,2649 758,5285 1216,7920 28,148 50,296 82,444 91,538 191,1076 300,1614 72,376 149,752 227,1129zm1234 -2555c168,915 349,1829 531,2743 -123,-13 -245,-27 -368,-40 -186,-914 -367,-1829 -531,-2743 -109,-592 -204,-1184 -308,-1788 -304,-1735 -558,-3483 -817,-5231 -209,-1587 -400,-3173 -590,-4760 -73,81 -141,148 -213,215 -182,-1896 -364,-3792 -518,-5701 -68,-68 -140,-135 -204,-202 -91,-1304 -181,-2609 -250,-3926 55,-54 118,-108 182,-162 -95,-1896 -163,-3791 -213,-5701 -64,-67 -127,-134 -191,-202 -36,-1304 -36,-2608 -41,-3926 59,-54 123,-108 186,-161 5,-1896 36,-3792 73,-5702 82,95 154,189 231,269 118,135 236,269 354,390 77,94 155,188 236,269 -27,1345 -50,2690 -59,4034 64,-54 123,-108 186,-161 9,2111 28,4222 78,6320 -64,-68 -128,-135 -191,-202 32,1344 86,2689 150,4034 59,-54 118,-108 177,-162 104,2112 249,4223 404,6320 -73,-67 -141,-134 -205,-202 123,1345 250,2690 377,4034 -68,81 -145,148 -218,215 218,1829 436,3658 681,5473 218,1506 436,3012 694,4505 127,726 250,1439 377,2151zm517 -5150c-394,-2729 -726,-5459 -1016,-8189 -68,81 -141,148 -218,215 -73,-753 -145,-1519 -223,-2285 -68,-68 -136,-135 -199,-202 -186,-2447 -359,-4895 -472,-7342 59,-54 118,-107 177,-161 -32,-753 -68,-1520 -86,-2286 -64,-67 -132,-135 -196,-202 -63,-2447 -86,-4894 -90,-7341 59,-54 122,-108 190,-162 14,-753 28,-1519 37,-2286 77,95 154,189 236,269 118,135 236,269 349,390 77,94 159,189 241,269 -5,215 -9,417 -14,619 63,-54 127,-108 195,-162 -18,3254 18,6495 109,9736 -64,-68 -131,-135 -200,-202 14,215 23,417 32,618 59,-54 118,-107 177,-161 154,3254 377,6495 654,9735 -73,-67 -141,-134 -209,-201 22,215 41,416 59,618 -73,81 -141,148 -218,215 313,2972 672,5930 1107,8888 50,377 105,740 159,1103 218,1291 445,2582 667,3859 173,914 354,1828 536,2729 109,525 209,1036 317,1547 46,255 105,511 159,753 87,376 168,739 255,1102 40,189 86,377 131,565 173,753 345,1493 518,2232 -132,-13 -250,-27 -373,-40 -172,-740 -344,-1479 -517,-2232 -18,-67 -36,-135 -50,-215 -136,-592 -277,-1197 -413,-1802 -27,-135 -59,-269 -82,-404 -104,-510 -208,-1021 -313,-1546 -186,-901 -367,-1815 -535,-2729 -205,-1170 -413,-2340 -613,-3510 -86,-592 -177,-1197 -268,-1802zm3186 8243c-186,-915 -367,-1829 -540,-2743 -213,-1197 -422,-2394 -631,-3604 -81,-524 -163,-1062 -240,-1600 -409,-2797 -749,-5594 -1049,-8391 -90,-80 -176,-161 -263,-255 -41,-377 -72,-753 -109,-1143 -59,54 -118,108 -177,162 -254,-3066 -463,-6132 -612,-9211 63,67 131,134 199,201 -18,-376 -41,-753 -54,-1143 -59,68 -118,122 -182,175 -77,-3066 -113,-6145 -104,-9224 54,67 118,135 182,202 4,-377 9,-753 18,-1143 77,-67 158,-135 240,-202 123,-108 245,-215 368,-323 77,-67 159,-134 240,-201 -18,928 -32,1855 -41,2783 64,81 128,148 187,215 9,2286 36,4559 95,6831 -64,54 -123,108 -182,161 23,928 64,1856 109,2784 68,80 136,148 204,215 114,2286 273,4558 450,6830 -59,54 -114,108 -177,162 90,928 177,1856 267,2783 -86,-80 -172,-161 -258,-255 281,2555 590,5110 962,7664 109,780 227,1560 359,2327 190,1089 376,2164 562,3240 177,914 359,1829 545,2743 109,525 209,1036 313,1546 9,54 18,95 27,135 177,766 354,1533 527,2286 -14,0 -28,0 -46,-14 -109,0 -213,-13 -322,-27 -27,-107 -50,-215 -73,-322 -122,-525 -249,-1062 -376,-1600 -37,-162 -68,-323 -105,-498 -104,-511 -208,-1022 -313,-1546zm2115 229c9,0 14,0 23,0 104,524 204,1035 308,1546 -122,-14 -240,-27 -363,-40 -81,-404 -168,-807 -249,-1211 -23,-107 -41,-215 -68,-336 -178,-901 -363,-1815 -545,-2730 -114,-631 -222,-1263 -331,-1896 -291,-1667 -549,-3348 -795,-5028 -236,-1654 -431,-3308 -630,-4962 -91,-81 -186,-175 -277,-269 -150,-1506 -295,-3026 -436,-4545 -59,54 -118,108 -172,162 -146,-1937 -286,-3873 -382,-5809 68,67 132,134 200,201 -72,-1506 -145,-3025 -181,-4544 -64,53 -123,107 -187,161 -49,-1936 -72,-3873 -77,-5809 64,67 123,134 187,202 0,-1506 27,-3026 54,-4545 77,-67 159,-135 240,-215 123,-95 245,-202 368,-310 77,-67 159,-134 241,-215 -37,2071 -69,4142 -59,6212 59,68 122,135 186,202 0,1143 18,2286 50,3416 -64,53 -127,107 -186,161 54,2071 145,4141 245,6212 63,67 127,134 199,202 73,1143 155,2286 236,3415 -59,54 -118,108 -177,162 177,2070 372,4141 604,6212 -86,-81 -182,-175 -272,-269 172,1425 345,2850 540,4262 281,1910 576,3819 912,5729 91,524 181,1035 272,1546 182,914 359,1815 545,2716 -9,14 -14,14 -23,14zm168869 -767c-100,511 -205,1022 -313,1533 126,-13 249,-27 371,-40 105,-511 205,-1022 309,-1547 100,-484 195,-968 300,-1465 81,-417 154,-834 227,-1264 9,-27 9,-54 13,-81 504,-2878 935,-5755 1325,-8646 55,-444 105,-888 164,-1345 72,68 141,135 213,202 331,-3026 622,-6064 840,-9103 63,-67 131,-135 199,-215 14,-162 23,-337 37,-511 -59,-54 -114,-108 -173,-162 150,-3025 254,-6064 318,-9103 59,-67 127,-134 186,-215 5,-161 9,-336 9,-511 -63,-54 -132,-108 -191,-161 5,-3026 -40,-6065 -140,-9104 -77,94 -150,175 -227,256 -114,135 -227,269 -345,403 -77,94 -155,175 -232,256 68,2487 109,4975 109,7462 -63,-53 -127,-107 -186,-174 -4,968 -4,1936 -22,2904 63,-67 127,-134 190,-202 -59,2488 -150,4976 -272,7463 -55,-54 -118,-107 -177,-175 -50,969 -118,1937 -191,2905 68,-68 136,-135 200,-202 -182,2488 -422,4975 -685,7463 77,67 145,134 218,201 -87,700 -168,1386 -250,2071 -368,2649 -758,5285 -1216,7920 -28,148 -50,296 -82,444 -91,538 -191,1076 -300,1614 -72,376 -149,752 -226,1129zm-1235 -2555c-168,915 -349,1829 -531,2743 123,-13 245,-27 368,-40 186,-914 367,-1829 531,-2743 109,-592 204,-1184 308,-1788 304,-1735 559,-3483 817,-5231 209,-1587 400,-3173 590,-4760 73,81 141,148 213,215 182,-1896 364,-3792 518,-5701 68,-68 141,-135 204,-202 91,-1304 182,-2609 250,-3926 -55,-54 -118,-108 -182,-162 95,-1896 163,-3791 214,-5701 63,-67 126,-134 190,-202 37,-1304 37,-2608 41,-3926 -59,-54 -123,-108 -186,-161 -5,-1896 -36,-3792 -73,-5702 -81,95 -154,189 -231,269 -118,135 -236,269 -354,390 -77,94 -155,188 -236,269 27,1345 50,2690 59,4034 -64,-54 -123,-108 -186,-161 -9,2111 -28,4222 -77,6320 63,-68 127,-135 190,-202 -32,1344 -86,2689 -150,4034 -59,-54 -118,-108 -176,-162 -105,2112 -250,4223 -404,6320 72,-67 140,-134 204,-202 -123,1345 -250,2690 -377,4034 68,81 145,148 218,215 -218,1829 -436,3658 -681,5473 -218,1506 -436,3012 -694,4505 -127,726 -250,1439 -377,2151zm-517 -5150c395,-2729 726,-5459 1016,-8189 68,81 141,148 218,215 73,-753 145,-1519 223,-2285 68,-68 136,-135 199,-202 186,-2447 359,-4895 472,-7342 -59,-54 -118,-107 -177,-161 32,-753 68,-1520 86,-2286 64,-67 132,-135 196,-202 63,-2447 86,-4894 90,-7341 -59,-54 -122,-108 -190,-162 -14,-753 -28,-1519 -37,-2286 -77,95 -154,189 -236,269 -118,135 -236,269 -349,390 -77,94 -159,189 -240,269 4,215 9,417 13,619 -63,-54 -127,-108 -195,-162 18,3254 -18,6495 -109,9736 64,-68 132,-135 200,-202 -14,215 -23,417 -32,618 -59,-54 -118,-107 -177,-161 -154,3254 -377,6495 -654,9735 73,-67 141,-134 209,-201 -22,215 -41,416 -59,618 73,81 141,148 218,215 -313,2972 -672,5930 -1107,8888 -50,377 -105,740 -159,1103 -218,1291 -445,2582 -667,3859 -173,914 -354,1828 -536,2729 -109,525 -209,1036 -317,1547 -46,255 -105,511 -159,753 -86,376 -168,739 -254,1102 -41,189 -87,377 -132,565 -172,753 -345,1493 -518,2232 132,-13 250,-27 373,-40 172,-740 345,-1479 517,-2232 18,-67 36,-135 50,-215 136,-592 277,-1197 413,-1802 27,-135 59,-269 82,-404 104,-510 208,-1021 313,-1546 186,-901 367,-1815 535,-2729 205,-1170 413,-2340 613,-3510 86,-592 177,-1197 268,-1802zm-3186 8243c186,-915 368,-1829 540,-2743 213,-1197 422,-2394 631,-3604 81,-524 163,-1062 240,-1600 409,-2797 749,-5594 1049,-8391 90,-80 177,-161 263,-255 41,-377 72,-753 109,-1143 59,54 118,108 177,162 254,-3066 463,-6132 612,-9211 -63,67 -131,134 -199,201 18,-376 41,-753 54,-1143 59,68 118,122 182,175 77,-3066 113,-6145 104,-9224 -54,67 -118,135 -181,202 -5,-377 -10,-753 -19,-1143 -77,-67 -158,-135 -240,-202 -123,-108 -245,-215 -368,-323 -77,-67 -159,-134 -240,-201 18,928 32,1855 41,2783 -64,81 -128,148 -186,215 -10,2286 -37,4559 -96,6831 64,54 123,108 182,161 -23,928 -64,1856 -109,2784 -68,80 -136,148 -204,215 -114,2286 -273,4558 -450,6830 59,54 114,108 177,162 -90,928 -177,1856 -267,2783 86,-80 172,-161 258,-255 -281,2555 -590,5110 -962,7664 -109,780 -227,1560 -358,2327 -191,1089 -377,2164 -563,3240 -177,914 -359,1829 -545,2743 -109,525 -208,1036 -313,1546 -9,54 -18,95 -27,135 -177,766 -354,1533 -527,2286 14,0 28,0 46,-14 109,0 213,-13 322,-27 27,-107 50,-215 73,-322 122,-525 249,-1062 376,-1600 37,-162 69,-323 105,-498 104,-511 209,-1022 313,-1546zm-2115 229c-9,0 -14,0 -23,0 -104,524 -204,1035 -308,1546 122,-14 240,-27 363,-40 82,-404 168,-807 249,-1211 23,-107 41,-215 69,-336 177,-901 362,-1815 544,-2730 114,-631 222,-1263 331,-1896 291,-1667 550,-3348 795,-5028 236,-1654 431,-3308 630,-4962 91,-81 186,-175 277,-269 150,-1506 295,-3026 436,-4545 59,54 118,108 172,162 146,-1937 286,-3873 382,-5809 -68,67 -132,134 -200,201 72,-1506 145,-3025 182,-4544 63,53 122,107 186,161 50,-1936 72,-3873 77,-5809 -64,67 -123,134 -186,202 0,-1506 -28,-3026 -55,-4545 -77,-67 -159,-135 -240,-215 -123,-95 -245,-202 -368,-310 -77,-67 -159,-134 -241,-215 37,2071 69,4142 59,6212 -59,68 -122,135 -186,202 0,1143 -18,2286 -50,3416 64,53 128,107 186,161 -54,2071 -145,4141 -245,6212 -63,67 -127,134 -199,202 -73,1143 -154,2286 -236,3415 59,54 118,108 177,162 -177,2070 -372,4141 -604,6212 86,-81 182,-175 273,-269 -173,1425 -346,2850 -541,4262 -281,1910 -576,3819 -912,5729 -91,524 -181,1035 -272,1546 -182,914 -359,1815 -545,2716 9,14 14,14 23,14z"/>
  <path id="calcao_contorno" fill="none" d="M69622 5532c-9320,-113 -15317,-100 -21532,-475 -6215,-375 -12649,-1137 -18001,-2044 -5351,-908 -9620,-1960 -13890,-3013l-2056 6766c-2101,6050 -3233,10386 -4916,16285 -249,873 -435,1453 -642,2333 -2360,10025 -4550,19989 -6162,30214 -554,3516 -787,7435 -1226,10942l-435 5757c-45,1830 -234,3899 -370,5626 -78,987 9,2192 -3,3205 -13,1158 -208,1511 -203,2794 9,2038 69,4202 11,6226 -28,1013 -181,1575 -197,2723l192 9099c-30,8303 172,15985 183,24267 2,1267 207,1666 202,2996 -4,925 -65,2104 5,3001 131,1645 218,4048 519,5469 1056,4985 5703,6849 10073,7859 3312,766 6714,1111 10138,1576 4010,545 19376,399 23493,-86 6450,-761 15507,-276 22162,-1971 7272,-1853 6398,-2822 7435,-7425 870,-3869 2219,-13998 3169,-16919 807,-2484 1721,-7868 2195,-10524 344,-1990 1133,-3678 1718,-5612 1344,-4441 1694,-7626 2920,-12169 377,-1398 722,-2380 1102,-3854 997,-3864 2190,-8249 2968,-12117 575,-2856 1095,-5360 1653,-8289l2191 -12734c189,-998 230,-2248 1182,-2596 952,348 993,1598 1182,2596l2191 12734c558,2929 1077,5433 1652,8289 779,3868 1972,8253 2968,12117 380,1474 725,2456 1103,3854 1226,4543 1576,7728 2919,12169 585,1934 1375,3622 1719,5612 473,2654 1389,8042 2195,10524 949,2921 2299,13050 3169,16919 1037,4603 163,5572 7434,7425 6656,1695 15712,1210 22163,1971 4117,485 19483,631 23492,86 3425,-465 6827,-810 10138,-1576 4371,-1010 9018,-2874 10074,-7859 301,-1421 388,-3824 519,-5469 70,-897 9,-2076 5,-3001 -5,-1330 200,-1729 202,-2996 11,-8282 213,-15964 183,-24267l191 -8764 -196 -3058c-58,-2024 2,-4188 11,-6226 4,-1283 -190,-1636 -204,-2794 -11,-1013 76,-2218 -2,-3205 -136,-1727 -325,-3796 -370,-5626l-436 -5757c-439,-3507 -671,-7426 -1225,-10942 -1612,-10225 -3802,-20189 -6162,-30214 -207,-880 -394,-1460 -643,-2333 -1682,-5899 -2814,-10235 -4915,-16285l-2057 -6766c-2951,866 -5902,1731 -9677,2477 -3774,745 -8371,1369 -13806,1869 -5434,500 -11706,875 -19026,1150 -7321,274 -15692,449 -26199,418 -10507,-31 -23150,-269 -32470,-382z"/>
 </g>
</svg>
