<?xml version="1.0" encoding="UTF-8"?>
<!DOCTYPE svg PUBLIC "-//W3C//DTD SVG 1.1//EN" "http://www.w3.org/Graphics/SVG/1.1/DTD/svg11.dtd">
<!-- Creator: CorelDRAW -->
<svg xmlns="http://www.w3.org/2000/svg" xml:space="preserve" width="240px" height="296px" version="1.1" shape-rendering="geometricPrecision" text-rendering="geometricPrecision" image-rendering="optimizeQuality" fill-rule="evenodd" clip-rule="evenodd"
viewBox="0 0 240 296.307"
 xmlns:xlink="http://www.w3.org/1999/xlink"
 xmlns:xodm="http://www.corel.com/coreldraw/odm/2003">
 <defs>
   <clipPath id="id0">
    <path d="M136.796 295.988c2.461,-0.097 4.626,-0.225 7.017,-0.355 2.39,-0.131 5.006,-0.265 8.261,-0.493 3.256,-0.228 7.151,-0.55 10.471,-0.852 3.319,-0.302 6.061,-0.583 8.794,-0.949 2.732,-0.365 5.455,-0.814 7.654,-1.25 2.2,-0.436 3.876,-0.858 6.001,-1.331 2.126,-0.473 4.701,-0.996 6.595,-1.321 1.894,-0.325 3.108,-0.453 4.268,-0.536 1.16,-0.084 2.267,-0.124 3.155,-0.117 0.889,0.008 1.559,0.063 1.956,0.094 0.396,0.031 0.518,0.038 0.611,0.043 0.049,0.002 0.09,0.004 0.127,0.006 0.093,-0.07 0.162,-0.18 0.177,-0.779 0.016,-0.673 -0.037,-1.966 -0.106,-2.786 -0.069,-0.819 -0.154,-1.166 -0.285,-1.855 -0.131,-0.689 -0.307,-1.72 -0.651,-2.686 -0.345,-0.965 -0.858,-1.866 -1.476,-3.045 -0.619,-1.179 -1.343,-2.638 -1.783,-3.616 -0.44,-0.978 -0.596,-1.476 -0.848,-2.693 -0.251,-1.217 -0.598,-3.153 -0.953,-5.871 -0.354,-2.718 -0.716,-6.219 -1.038,-8.884 -0.322,-2.666 -0.603,-4.496 -1.081,-7.559 -0.478,-3.062 -1.152,-7.357 -1.71,-11.521 -0.558,-4.164 -1.001,-8.198 -1.348,-12.226 -0.347,-4.028 -0.598,-8.051 -0.759,-11.637 -0.161,-3.586 -0.231,-6.734 -0.287,-9.787 -0.055,-3.052 -0.095,-6.01 -0.156,-9.258 -0.06,-3.249 -0.14,-6.79 -0.108,-12.037 0.033,-5.248 0.179,-12.203 0.352,-17.466 0.174,-5.263 0.375,-8.834 0.652,-12.807 0.276,-3.973 0.628,-8.348 0.975,-12.271 0.347,-3.922 0.689,-7.393 1.122,-11.743 0.432,-4.35 0.955,-9.58 1.483,-13.99 0.528,-4.411 1.061,-8.002 1.512,-10.619 0.45,-2.618 0.817,-4.262 1.139,-5.308 0.321,-1.046 0.598,-1.494 0.803,-1.766 0.205,-0.271 0.338,-0.367 0.405,-0.414 0.066,-0.048 0.066,-0.048 0.049,0.598 -0.018,0.646 -0.053,1.939 -0.108,3.533 -0.056,1.594 -0.131,3.49 -0.173,4.967 -0.041,1.478 -0.049,2.536 -0.079,3.186 -0.03,0.65 -0.083,0.892 -0.102,1.011 -0.018,0.119 -0.003,0.117 -0.041,0.151 -0.038,0.034 -0.128,0.104 -0.133,0.68 -0.005,0.576 0.075,1.657 0.192,3.051 0.117,1.395 0.27,3.102 0.322,4.786 0.051,1.683 0.001,3.343 0.002,4.231 0,0.887 0.052,1.003 0.132,1.078 0.08,0.076 0.188,0.111 1.001,0.06 0.814,-0.051 2.333,-0.188 4.105,-0.324 1.773,-0.137 3.8,-0.273 5.955,-0.431 2.155,-0.158 4.438,-0.339 6.588,-0.463 2.15,-0.123 4.166,-0.188 5.992,-0.299 1.826,-0.111 3.46,-0.267 5.336,-0.47 1.876,-0.204 3.993,-0.455 6.015,-0.682 2.021,-0.226 3.947,-0.427 5.109,-0.565 1.162,-0.139 1.559,-0.214 1.758,-0.327 0.199,-0.113 0.199,-0.264 0.229,-0.906 0.03,-0.641 0.09,-1.772 0.108,-3.132 0.017,-1.361 -0.008,-2.95 -0.023,-4.429 -0.015,-1.478 -0.02,-2.846 -0.038,-3.724 -0.017,-0.877 -0.047,-1.264 -0.071,-1.469 -0.025,-0.205 -0.043,-0.227 -0.083,-0.294 -0.04,-0.068 -0.103,-0.181 -0.174,-0.682 -0.071,-0.5 -0.152,-1.388 -0.255,-2.32 -0.103,-0.933 -0.229,-1.911 -0.348,-2.739 -0.12,-0.827 -0.233,-1.504 -0.413,-2.544 -0.179,-1.042 -0.426,-2.447 -0.613,-3.449 -0.187,-1.002 -0.316,-1.601 -0.436,-2.27 -0.121,-0.668 -0.234,-1.408 -0.366,-2.121 -0.132,-0.713 -0.283,-1.399 -0.425,-2.156 -0.142,-0.757 -0.275,-1.584 -0.375,-2.322 -0.099,-0.738 -0.165,-1.387 -0.239,-2.029 -0.074,-0.643 -0.157,-1.279 -0.257,-2.036 -0.101,-0.757 -0.219,-1.634 -0.34,-2.526 -0.121,-0.891 -0.244,-1.796 -0.353,-2.565 -0.11,-0.768 -0.205,-1.399 -0.373,-2.344 -0.168,-0.945 -0.408,-2.203 -0.82,-4.085 -0.412,-1.881 -0.995,-4.386 -1.704,-6.89 -0.709,-2.505 -1.544,-5.009 -2.651,-7.745 -1.106,-2.736 -2.484,-5.703 -4.093,-8.851 -1.61,-3.149 -3.45,-6.478 -4.878,-8.781 -1.429,-2.304 -2.444,-3.581 -3.453,-4.629 -1.008,-1.049 -2.009,-1.869 -3.015,-2.608 -1.006,-0.739 -2.017,-1.398 -2.582,-1.773 -0.566,-0.375 -0.687,-0.465 -0.756,-0.571 -0.069,-0.105 -0.087,-0.226 -0.095,-0.303 -0.009,-0.077 -0.009,-0.109 -0.07,-0.174 -0.06,-0.066 -0.181,-0.164 -1.307,-0.714 -1.127,-0.551 -3.259,-1.555 -5.31,-2.603 -2.05,-1.048 -4.019,-2.142 -5.77,-2.976 -1.752,-0.833 -3.286,-1.407 -5.061,-1.957 -1.775,-0.551 -3.792,-1.079 -5.429,-1.507 -1.637,-0.427 -2.894,-0.754 -3.762,-1.008 -0.867,-0.254 -1.345,-0.435 -2.044,-0.7 -0.699,-0.266 -1.619,-0.615 -2.606,-0.909 -0.987,-0.295 -2.041,-0.533 -2.716,-0.687 -0.675,-0.153 -0.972,-0.221 -1.44,-0.471 -0.467,-0.25 -1.106,-0.683 -1.581,-0.937 -0.475,-0.254 -0.787,-0.329 -1.073,-0.365 -0.285,-0.035 -0.544,-0.03 -0.777,-0.03 -0.232,0 -0.438,-0.005 -1.342,-0.33 -0.904,-0.326 -2.506,-0.972 -4.026,-1.577 -1.52,-0.605 -2.959,-1.168 -4.404,-1.748 -1.446,-0.579 -2.9,-1.175 -3.816,-1.569 -0.917,-0.393 -1.297,-0.584 -1.594,-0.779 -0.298,-0.194 -0.514,-0.392 -0.705,-0.497 -0.191,-0.105 -0.356,-0.116 -0.467,-0.117 -0.11,0 -0.164,0.01 -0.251,-0.004 -0.086,-0.014 -0.204,-0.052 -0.587,-0.292 -0.382,-0.24 -1.028,-0.682 -1.678,-1.193 -0.65,-0.51 -1.304,-1.089 -1.956,-1.661 -0.653,-0.572 -1.304,-1.138 -2.311,-1.569 -1.007,-0.431 -2.37,-0.728 -3.723,-0.919 -1.353,-0.191 -2.695,-0.276 -4.576,-0.354 -1.881,-0.078 -4.3,-0.149 -7.931,-0.131 -3.631,0.017 -8.474,0.123 -12.914,0.219 -4.439,0.096 -8.475,0.183 -10.597,0.231 -2.123,0.048 -2.332,0.058 -4.152,0.203 -1.82,0.145 -5.249,0.427 -7.404,0.671 -2.155,0.244 -3.035,0.45 -3.752,0.707 -0.717,0.256 -1.27,0.563 -1.886,1.078 -0.616,0.516 -1.295,1.24 -2.019,1.877 -0.725,0.638 -1.494,1.189 -1.953,1.46 -0.459,0.272 -0.607,0.264 -0.901,0.366 -0.295,0.102 -0.735,0.313 -1.268,0.582 -0.533,0.269 -1.159,0.596 -1.919,0.922 -0.761,0.325 -1.656,0.65 -2.301,0.904 -0.645,0.254 -1.04,0.437 -1.514,0.628 -0.474,0.192 -1.027,0.39 -1.765,0.621 -0.738,0.232 -1.661,0.496 -2.558,0.836 -0.896,0.341 -1.766,0.759 -2.573,1.076 -0.808,0.316 -1.552,0.533 -2.299,0.749 -0.746,0.216 -1.496,0.432 -2.053,0.655 -0.557,0.222 -0.921,0.451 -1.207,0.636 -0.285,0.185 -0.491,0.326 -0.999,0.476 -0.508,0.15 -1.318,0.31 -1.914,0.463 -0.596,0.154 -0.978,0.301 -1.488,0.492 -0.51,0.192 -1.147,0.429 -1.75,0.617 -0.603,0.189 -1.171,0.329 -1.687,0.459 -0.516,0.13 -0.98,0.248 -1.7,0.426 -0.719,0.179 -1.693,0.418 -2.551,0.633 -0.857,0.216 -1.598,0.408 -2.171,0.57 -0.573,0.161 -0.979,0.292 -1.436,0.426 -0.456,0.134 -0.963,0.271 -1.427,0.4 -0.465,0.129 -0.887,0.249 -1.312,0.377 -0.424,0.128 -0.85,0.262 -1.203,0.399 -0.353,0.137 -0.632,0.277 -1.012,0.437 -0.38,0.159 -0.862,0.339 -1.279,0.53 -0.417,0.191 -0.769,0.394 -1.165,0.602 -0.397,0.209 -0.838,0.424 -1.221,0.617 -0.382,0.194 -0.705,0.366 -1.126,0.589 -0.421,0.223 -0.941,0.495 -1.657,0.865 -0.717,0.371 -1.631,0.838 -2.694,1.37 -1.063,0.532 -2.275,1.128 -3.18,1.576 -0.905,0.448 -1.504,0.747 -2.037,1.087 -0.533,0.341 -1.001,0.723 -1.443,1.08 -0.443,0.358 -0.86,0.689 -1.353,1.079 -0.493,0.39 -1.061,0.837 -1.779,1.475 -0.718,0.637 -1.586,1.465 -2.375,2.331 -0.79,0.866 -1.501,1.771 -2.145,2.665 -0.644,0.894 -1.22,1.777 -1.924,2.935 -0.704,1.158 -1.536,2.591 -2.208,3.821 -0.671,1.229 -1.181,2.255 -1.732,3.264 -0.551,1.008 -1.141,1.999 -1.644,2.942 -0.503,0.943 -0.918,1.838 -1.313,2.759 -0.395,0.922 -0.77,1.87 -1.152,2.756 -0.382,0.887 -0.772,1.712 -1.285,3.043 -0.513,1.331 -1.149,3.17 -1.716,4.911 -0.567,1.741 -1.065,3.386 -1.49,4.836 -0.425,1.451 -0.777,2.709 -1.129,4.225 -0.352,1.516 -0.704,3.291 -1.144,5.668 -0.44,2.376 -0.968,5.353 -1.29,7.073 -0.322,1.72 -0.438,2.183 -0.543,2.673 -0.106,0.491 -0.201,1.009 -0.4,1.833 -0.198,0.825 -0.5,1.957 -0.807,3.143 -0.307,1.187 -0.618,2.43 -0.84,3.478 -0.221,1.049 -0.352,1.904 -0.575,3.166 -0.224,1.262 -0.541,2.932 -0.787,4.297 -0.247,1.366 -0.423,2.427 -0.529,2.975 -0.105,0.548 -0.14,0.583 -0.204,0.634 -0.063,0.05 -0.155,0.115 -0.251,2.246 -0.096,2.13 -0.197,6.326 -0.275,8.622 -0.078,2.297 -0.133,2.694 0.035,2.902 0.169,0.209 0.561,0.229 1.419,0.337 0.857,0.108 2.18,0.305 4.51,0.755 2.332,0.45 5.671,1.154 8.339,1.667 2.668,0.513 4.664,0.835 6.751,1.182 2.088,0.347 4.265,0.719 7.24,1.192 2.975,0.472 6.746,1.046 9.15,1.373 2.404,0.327 3.44,0.407 3.958,0.447 0.518,0.041 0.518,0.041 0.568,-0.543 0.049,-0.583 0.149,-1.75 0.263,-2.759 0.114,-1.009 0.242,-1.86 0.394,-2.937 0.152,-1.077 0.328,-2.379 0.498,-3.576 0.17,-1.197 0.333,-2.289 0.417,-2.902 0.085,-0.614 0.089,-0.749 0.076,-0.865 -0.014,-0.116 -0.047,-0.211 -0.023,-1.818 0.024,-1.607 0.104,-4.725 0.147,-7.257 0.043,-2.532 0.048,-4.478 0.059,-5.601 0.011,-1.123 0.029,-1.422 0.067,-1.618 0.038,-0.197 0.095,-0.29 0.176,-0.338 0.08,-0.05 0.184,-0.055 0.308,0.038 0.124,0.094 0.27,0.285 0.345,0.376 0.074,0.092 0.076,0.085 0.078,0.081 0.001,-0.004 0.001,-0.004 0.115,0.253 0.114,0.256 0.343,0.769 0.597,1.463 0.254,0.694 0.533,1.569 0.762,2.507 0.229,0.938 0.408,1.939 0.607,3.547 0.2,1.608 0.422,3.823 0.739,6.228 0.316,2.406 0.729,5.001 1.468,11.393 0.739,6.392 1.805,16.58 2.64,24.511 0.835,7.931 1.439,13.604 1.811,19.699 0.372,6.095 0.513,12.613 0.503,19.654 -0.01,7.04 -0.171,14.604 -0.372,20.609 -0.202,6.004 -0.443,10.45 -0.725,14.423 -0.281,3.973 -0.603,7.473 -1.448,14.162 -0.845,6.688 -2.213,16.566 -3.007,23.777 -0.795,7.212 -1.016,11.758 -1.217,15.269 -0.202,3.51 -0.383,5.984 -0.674,8.122 -0.292,2.137 -0.694,3.937 -0.973,5.315 -0.279,1.378 -0.436,2.334 -0.453,2.935 -0.018,0.601 0.103,0.847 0.249,0.975 0.146,0.129 0.317,0.138 0.5,0.175 0.184,0.036 0.38,0.099 0.469,0.155 0.019,0.011 0.032,0.022 0.042,0.037 0.876,0.322 1.753,0.645 3.155,0.925 1.401,0.28 3.329,0.518 6.493,0.754 3.163,0.237 7.562,0.472 11.099,0.609 3.537,0.138 6.212,0.178 9.592,0.181 3.38,0.003 7.463,-0.03 11.329,-0.007 3.866,0.024 7.513,0.104 10.591,0.191 3.078,0.088 5.586,0.181 7.916,0.252 2.33,0.07 4.483,0.117 6.789,0.171 2.307,0.053 4.768,0.114 7.356,0.121 2.589,0.006 5.304,-0.041 8.04,-0.098 2.736,-0.057 5.492,-0.124 7.953,-0.221z"/>
   </clipPath>
 </defs>
 <g id="VETORES">
  <metadata id="CorelCorpID_0Corel-Layer"/>
  <g>
  </g>
  <g clip-path="url(#id0)">
   <g id="_1763300478592">
    <path id="_2" fill="#0062D9" fill-rule="nonzero" d="M173.416 14.982l1.581 -1.051c-3.737,-2.171 -1.929,-0.571 -4.524,-1.511 -0.841,-0.321 -2.281,-0.901 -3.712,-1.461l6.665 4.012 -0.01 0.011zm-110.696 3.462l9.818 -5.895c-1.834,0.641 -3.711,0.954 -5.134,1.892 -0.998,0.659 -2.739,0.763 -4.393,1.411l-2.953 0.951 2.673 1.631 -0.011 0.01zm36.709 -12.97l7.475 -4.964 -4.573 0.341 -5.365 3.122 2.472 1.501 -0.009 0zm33.926 90.579l0 -0.03 4.373 2.642 11.569 -7.656 0 -8.116 -19.204 11.178 3.262 1.982zm-79.091 162.743l7.686 4.624 0 -20.566 -12.189 7.105c-0.251,1.932 -0.491,3.853 -0.711,5.685l5.214 3.152zm68.173 -169.348l6.635 4.023 20.225 -13.42 0 -6.775 -26.89 16.172 0.03 0zm-23.659 -88.267l-5.094 0.841 2.002 1.211 3.092 -2.052zm16.193 13.66l4.963 3.003 25.961 -17.203 -8.026 -0.591 -24.139 14.041 1.251 0.74 -0.01 0.01zm-12.76 -7.696l10.558 6.355 20.346 -13.5 -22.798 0.421 -9.807 5.704 1.701 1.02zm-46.416 217.505l26.331 -17.443 -9.868 -5.934 -18.695 10.878 -0.62 10.768 2.863 1.721 -0.011 0.01zm71.546 -95.402l-5.615 -3.382 0 13.079 10.328 -6.865 -0.941 -0.57 -5.644 3.292 5.284 -3.513 -3.412 -2.041zm16.262 -27.04l5.694 3.432 0 -11.519 -9.727 5.645 4.033 2.442zm-21.877 56.032l18.324 -11.068 -18.324 10.698 0 0.37zm0 -8.767l18.644 -12.369 -5.734 -3.463 -12.91 7.516 0 8.316zm0 7.006l24.169 -16.052 -2.802 -1.712 -21.367 12.46 0 5.304zm-59.006 39.059l-8.806 5.304 -0.271 9.067 15.682 -10.398 -6.605 -3.973zm-0.76 35.517l-10.548 6.366c-0.391,3.012 -0.861,6.545 -1.332,10.147l11.88 -7.886 0 -8.627zm59.766 -46.325l0 8.566 26.871 -16.192 -6.755 -4.063 -20.116 11.689zm57.444 -166.286l3.433 -2.072c-0.898,-0.331 -5.515,-1.967 -6.095,-1.861l-1.971 1.151 4.633 2.782zm-57.444 164.415l17.303 -11.489 -17.303 -10.438 0 21.927zm40.511 35.777l16.173 9.727 0 -19.374 -16.373 9.527 0.2 0.12zm32.025 -189.334l-10.808 -6.525 -3.513 2.352 0 21.256 20.306 -13.48 -5.985 -3.603zm-16.112 108.543l-11.259 6.575 11.489 -7.626 0 -3.093 -9.417 5.505 9.417 -6.275 0 -7.996 -2.102 -1.281 -25.449 14.811 0 3.172 27.581 16.603 0 -11.319 -0.26 0.141 0 -2.042 0.26 -0.14 0 -5.194 -0.26 0.14 0 -1.981zm1.791 -117.169l0 2.672 2.272 -1.301 -2.272 -1.371zm-115.719 0.43l-29.813 17.363c0,3.799 -0.224,2.967 0.47,6.385l32.726 -21.706 -3.383 -2.042zm-2.262 68.452l0 -0.991 -16.883 9.828c1.716,3.998 1.778,6.725 2.341,11.378l14.562 -9.657 0 -10.548 -0.02 -0.01zm-3.803 31.314l3.823 2.302 0 -19.976 -14.371 8.357 0.45 3.252 10.088 6.075 0.01 -0.01zm3.803 -39.09l-17.454 10.158c0.672,2.239 0.542,3.461 -0.11,4.883l17.574 -11.669 0 -3.372 -0.01 0zm0 91.97l-7.946 4.613c0.009,0.52 0.02,1.061 0.03,1.591l7.926 -5.264 0 -0.94 -0.01 0zm117.981 -93.921l0.65 -0.431 -0.65 0.371 0 0.06zm-59.746 -12.8l-27.571 16.062 0 4.023 27.571 -18.264 0 -1.821zm69.024 -5.725l-9.278 -5.563 0 23.317 18.435 -12.229 -9.157 -5.525zm-9.278 -13.82l0 5.564 26.861 -16.202 -4.193 -2.522 -22.668 13.16zm0 62.017l14.782 -9.788 -1.702 -1.05 -10.218 5.954 9.558 -6.354 -12.42 -7.456 0 18.694zm-1.561 125.185l-4.514 2.642 4.514 -3.012 0 -3.263 -26.861 16.203 6.405 3.823 0 0.029 4.794 2.873 15.662 -10.418 0 -8.877zm-12.059 21.477l12.089 7.265 0 -16.803 -14.211 8.256 2.122 1.282zm-43.914 -201.784l10.528 6.325 16.362 -10.838 0 -15.632 -30.693 17.844 3.803 2.301zm14.16 8.537l0.961 -0.651 1.221 1.962 6.696 4.023 3.852 -2.212 0 -12.94 -14.751 8.597 2.021 1.221zm-25.419 168.618l33.136 -21.957 -0.801 -0.48 -1.051 0.6 0.971 -0.65 -1.871 -1.142 -11.83 6.896 7.796 -5.164 -32.735 19.035 33.896 -22.467 -5.865 -3.543 -40.17 23.348 0 15.972 9.837 -6.526 0.941 1.582 -10.778 6.275 0 2.581 55.973 -33.735 -2.052 -1.221 -35.397 20.596zm38.149 -160.953l0 -3.862 -3.062 2.011 3.062 1.851zm-113.617 -21.486c0.13,0.751 0.26,1.521 0.39,2.282l30.714 -20.375 -31.104 18.093zm34.647 -24.328l-35.348 20.575 0.521 2.752 34.997 -23.217 -0.17 -0.11zm-8.367 48.987l0 -3.463 -20.376 11.879 1.221 4.294 19.165 -12.71 -0.01 0zm0 -19.775l28.422 -17.133 -0.451 -0.26 -46.466 27.03 43.494 -28.852 -6.415 -3.863 -36.338 21.136 34.016 -22.527 -1.111 -0.681 -40.831 23.759c1.523,9.49 2.545,18.61 4.954,28.171l20.736 -13.77 0 -13.02 -0.01 0.01zm88.869 150.834l0 6.955 10.048 6.035 17.533 -11.598 0 -11.149 -5.304 -3.172 -22.277 12.929zm-88.869 -127.116l-18.524 10.798c0.19,0.591 0.37,1.141 0.53,1.652l17.994 -11.939 0 -0.511zm0 87.797l-4.624 2.692 4.624 -3.063 0 -4.203 -8.467 5.094 0.471 10.177 7.996 -5.304 0 -5.393zm88.869 -57.154l0 9.637 7.636 -5.043 -7.636 -4.594zm0 70.123l0 8.677 6.865 -4.533 -6.865 -4.144zm12.149 -62.807l-2.242 -1.361 -9.907 5.754 0 10.438 17.503 -11.629 -5.354 -3.202zm8.817 5.303l-2.262 1.332 2.122 -1.421 -0.541 -0.34 -20.285 11.809 0 5.554 23.348 -15.482 -2.382 -1.452zm-137.386 -83.002l11.148 -7.406 -11.148 6.725 0 0.681zm15.352 88.027l0 -0.03 -0.171 0.14 0.171 -0.11zm139.397 3.653l3.333 -2.212c0.07,-0.661 0.13,-1.341 0.2,-2.032l-5.404 3.133 1.871 1.111zm-9.217 -5.525l6.185 3.713 6.765 -4.493 1.231 -11.039 -14.191 8.266 0 3.543 0.01 0.01zm0 -4.713l14.521 -9.617c0.101,-0.771 0.211,-1.482 0.311,-2.172l-14.832 8.617 0 3.172zm0 -37.649l0 6.355 21.537 -12.98c0.37,-1.681 0.74,-3.582 1.1,-5.764l-0.65 -0.39 -21.987 12.789 0 -0.01zm0 33.626l15.182 -10.058 0.45 -2.632 -15.632 9.097 0 3.603 0 -0.01zm-49.648 120.841l-8.567 -5.164 0 23.238 18.354 -12.169 -9.787 -5.905zm-10.128 -113.045l0 -16.934 -14.271 8.307 14.271 8.627zm-37.9 47.285l2.102 1.281 26.321 -17.443 -0.281 -0.2 -28.142 16.362zm86.217 18.644l-8.456 -5.103 -9.197 5.323 0 11.039 0.17 0.31 17.483 -11.569zm-54.131 -121.812l5.844 -3.863 0 -2.091 -27.571 16.052 0 3.322 21.276 -14.13 0.451 0.71zm-21.727 13.93l0 0.481 6.014 -3.973 -6.014 3.492zm12.539 32.905l15.032 -9.957 0 -2.412 -12.99 7.546 0.48 0.82 -4.654 2.723 2.132 1.28zm-43.203 79.17l0 -17.703 -7.916 4.603 0.06 8.347 7.866 4.763 -0.01 -0.01zm130.121 -61.876c0.06,-0.571 0.12,-1.151 0.18,-1.752l-1.571 0.911 1.391 0.841zm-27.572 63.268l1.812 -1.192 -15.492 9.028 0 1.611 18.104 -11.999 -4.424 2.552zm-44.314 -138.945l-27.571 16.592 0 4.373 27.571 -18.274 0 -2.691zm-4.854 -5.615l2.162 1.301 31.774 -21.076 0 -1.761 -34.756 20.225 34.756 -23.058 0 -2.331 -26.95 15.692 26.95 -17.874 0 -3.513 -40.401 23.518 40.401 -26.81 0 -3.262 -2.952 1.701 2.952 -1.962 0 -2.071 -40.941 23.838 40.941 -27.151 0 -0.29 -4.543 2.642 4.543 -3.002 0 -2.672 -0.32 -0.2 -28.112 16.372 1.562 0.931 -29.103 17.533 22.037 13.28zm5.625 145.41l-28.342 17.053 0 11.799 36.278 -24.088 -2.262 -1.331 -32.936 19.154 30.834 -20.425 -3.572 -2.162zm69.443 40.061l0.571 -0.37 0.28 0.45 0.41 -0.27c-0.34,-2.682 -0.62,-5.334 -0.87,-7.956l-7.096 4.113 6.705 4.033zm-71.295 -76.228l-14.431 8.396 13.531 -8.967 -4.744 -2.832 -12.54 7.286 11.409 -7.566 -27.772 16.162 7.286 4.373 27.632 -16.652 -0.371 -0.2zm-49.418 108.702l3.413 2.072 17.953 -11.909 0 -9.647 -26.87 16.202 5.504 3.282zm9.707 5.845l11.659 7.035 0 -19.515 -16.482 9.588 4.823 2.892zm72.116 8.396l18.555 11.159 8.316 -1.301 0 -26.07 -26.871 16.212zm-100.087 2.192l10.528 -6.975 0 -2.042 -15.462 9.007c-0.26,1.641 -0.561,3.062 -0.791,4.213l10.048 6.035 6.205 0.38 0 -16.753 -10.528 6.125 0 0.01zm70.294 -28.822l0 7.746 26.871 -16.172 -6.105 -3.693 -20.766 12.119zm65.701 -90.238l-7.486 -4.514 0 23.548 9.397 -6.225c0.06,-3.803 0.15,-7.926 0.26,-11.488l-2.171 -1.321zm-73.047 114.266l-12.91 7.516 14.952 9.007c1.21,0.02 2.472,0.04 3.753,0.04l0 -19.935 -5.795 3.372zm-29.442 -70.814l-28.142 16.373 5.924 3.543 27.662 -16.653 -5.444 -3.263zm-22.978 57.224l-14.612 8.807 -0.69 8.506 15.312 -10.138 0 -7.175 -0.01 0zm37.869 20.115l20.336 -13.48 0 -6.635 -26.861 16.192 6.525 3.923zm13.19 -183.119l7.176 -4.734 0 -19.974 -27.571 16.032 0 12.139 7.966 4.793 12.429 -8.256zm-40.371 26.49l18.414 -12.219 0 -9.047 -26.87 16.163 8.456 5.103zm8.737 5.254l9.677 5.845 0 -20.906 -17.643 10.268 7.966 4.793zm98.556 58.434l9.338 -5.634 0.029 -7.385 -9.367 5.444 0 7.575zm7.826 32.115l-7.145 4.314 2.472 1.47 7.596 -5.033 -0.181 -2.102 -5.704 3.312 2.983 -1.961 -0.021 0zm-67.572 -154.237l-27.571 16.062 0 4.814 27.571 -18.264 0 -2.612zm-45.785 94.552l0.57 0.34 8.056 -5.334 -8.626 4.994zm33.275 -13.25l-2.952 -1.782 -28.112 16.363 4.734 2.872 26.33 -17.453zm-34.667 12.399l0.201 -0.11 -0.231 0.11 0.03 0zm23.209 -19.314l-28.112 16.362 3.973 2.412 26.29 -17.473 -2.151 -1.301zm-4.374 -2.643l-27.661 16.653 3.212 1.952 26.321 -17.474 -1.872 -1.131z"/>
    <path id="_2_0" fill="#0062D9" fill-rule="nonzero" d="M23.86 124.675l2.012 -0.881 -2.983 1.101c0.301,0.05 0.601,0.1 0.911,0.15l4.884 -2.132 -4.824 1.762zm20.536 -27.872c0.375,-0.783 0.745,-2.484 0.491,-2.741l-0.491 2.741zm-39.15 2.622l-3.433 1.271 -1.02 5.685 -0.03 0.03 -0.03 0.24 -0.03 0.03 0 0.06 -0.03 0.03 0 0.06 -0.031 0 0 0.06 -0.029 0 0 0.03 -0.031 0c-0.05,0.05 -0.13,0.13 -0.24,1.931l10.848 -4.193 -5.954 -5.194 0.01 -0.04zm2.041 -25.499c0,0 0,0 0,0.01l0.681 -0.261 -0.681 0.251zm26.701 -29.102l-10.748 3.943 -1.791 10.298 14.821 -6.495 -1.211 -6.835 -1.071 -0.921 0 0.01zm-21.596 21.016l-3.353 1.241 -1.111 3.993 6.955 -3.042 -2.491 -2.182 0 -0.01zm-9.928 31.164c-0.03,0.16 -0.06,0.32 -0.08,0.48l0.42 -0.19 -0.34 -0.29zm18.814 16.352l-9.957 3.693 -0.971 5.574 8.387 1.571 10.007 -4.373 -7.466 -6.465zm5.605 12.199l10.238 1.562 -4.314 -3.743 -5.924 2.181zm2.672 -67.771l-8.427 3.122 -0.961 5.444 17.054 -7.465 -0.561 -3.733 -7.105 2.632zm13.901 58.314c0.381,-2.625 0.188,-1.488 0.21,-3.873l0.22 -12.429 -3.052 17.453 2.632 -1.151 -0.01 0zm-31.765 -1.211l7.546 -3.312 -6.045 -5.254 -1.501 8.566zm27.621 11.069l2.923 -1.131 1 -7.306 -2.652 0.981 -1.281 7.466 0.01 -0.01zm-14.041 -88.707l-1.671 9.496 8.367 -3.652 -6.696 -5.844zm-5.754 32.794l24.309 21.106 0.16 -0.911c-0.471,-1.471 -1.081,-3.302 -1.722,-5.554 -0.88,-3.052 -1.801,-6.805 -2.601,-10.908l-4.804 1.771 4.743 -2.072 -0.58 -3.142 -1.211 0.45 1.201 -0.52c-0.581,-3.262 -1.091,-6.595 -1.551,-9.757l-17.374 6.424 -0.57 3.123 0 -0.01zm203.147 22.918l-10.298 -5.105 -14.621 10.238 -0.441 11.489 0 0.14 -0.03 0 -0.039 2.482 0.67 0.33 24.769 -19.575 -0.01 0.001zm-0.68 -35.547l6.384 -5.044c-0.23,-0.51 -0.46,-1.021 -0.7,-1.551l-7.896 5.514 2.212 1.081zm3.683 1.851l4.113 2.042 1.601 -1.161 -2.732 -7.135 -6.465 4.523 3.492 1.731 -0.009 0zm-3.303 -18.684c-0.55,-0.971 -1.081,-1.862 -1.561,-2.652l-15.612 10.908c-0.01,0.101 -0.03,0.191 -0.04,0.29l3.953 1.932 13.26 -10.478zm-3.733 15.191l0.2 0.11 8.167 -6.465 -1.922 -3.853 -11.239 7.856 4.794 2.352zm-0.27 -21.406l-12.3 8.877 -0.72 4.524 14.461 -11.429c-0.521,-0.781 -0.991,-1.421 -1.431,-1.971l-0.01 -0.001zm16.213 74.847l4.994 -3.953 -0.621 -5.044 -3.813 2.662 3.762 -2.972 -0.96 -5.595 -4.353 3.152 0.991 11.75zm-36.879 14.161c0.108,0.592 3.076,0.086 5.194,-0.06 0.66,-0.05 1.361,-0.11 2.081,-0.16l-0.41 -4.744 -6.875 4.974 0.01 -0.01zm3.413 -46.626l-0.881 3.443 1.221 0.601 -0.34 -4.044zm34.406 43.914c4.006,-0.427 4.313,-0.2 4.374,-1.491l0.03 -11.98 -5.214 3.643 0.821 9.828 -0.011 0zm-23.968 -68.382l0.59 0.29 7.576 -5.994 -8.166 5.704zm-9.168 30.673c-0.639,0.462 -3.678,2.464 -3.863,2.953 -0.743,1.968 -2.036,5.792 -1.481,7.015 0.388,0.851 0.678,1.527 0.711,2.591l11.549 -9.146 -6.925 -3.403 0.009 -0.01zm-3.432 30.123l6.215 3.062 26.15 -18.894 -5.695 -2.832 -26.67 18.664z"/>
   </g>
  </g>
  <path fill="none" d="M136.796 295.988c2.461,-0.097 4.626,-0.225 7.017,-0.355 2.39,-0.131 5.006,-0.265 8.261,-0.493 3.256,-0.228 7.151,-0.55 10.471,-0.852 3.319,-0.302 6.061,-0.583 8.794,-0.949 2.732,-0.365 5.455,-0.814 7.654,-1.25 2.2,-0.436 3.876,-0.858 6.001,-1.331 2.126,-0.473 4.701,-0.996 6.595,-1.321 1.894,-0.325 3.108,-0.453 4.268,-0.536 1.16,-0.084 2.267,-0.124 3.155,-0.117 0.889,0.008 1.559,0.063 1.956,0.094 0.396,0.031 0.518,0.038 0.611,0.043 0.049,0.002 0.09,0.004 0.127,0.006 0.093,-0.07 0.162,-0.18 0.177,-0.779 0.016,-0.673 -0.037,-1.966 -0.106,-2.786 -0.069,-0.819 -0.154,-1.166 -0.285,-1.855 -0.131,-0.689 -0.307,-1.72 -0.651,-2.686 -0.345,-0.965 -0.858,-1.866 -1.476,-3.045 -0.619,-1.179 -1.343,-2.638 -1.783,-3.616 -0.44,-0.978 -0.596,-1.476 -0.848,-2.693 -0.251,-1.217 -0.598,-3.153 -0.953,-5.871 -0.354,-2.718 -0.716,-6.219 -1.038,-8.884 -0.322,-2.666 -0.603,-4.496 -1.081,-7.559 -0.478,-3.062 -1.152,-7.357 -1.71,-11.521 -0.558,-4.164 -1.001,-8.198 -1.348,-12.226 -0.347,-4.028 -0.598,-8.051 -0.759,-11.637 -0.161,-3.586 -0.231,-6.734 -0.287,-9.787 -0.055,-3.052 -0.095,-6.01 -0.156,-9.258 -0.06,-3.249 -0.14,-6.79 -0.108,-12.037 0.033,-5.248 0.179,-12.203 0.352,-17.466 0.174,-5.263 0.375,-8.834 0.652,-12.807 0.276,-3.973 0.628,-8.348 0.975,-12.271 0.347,-3.922 0.689,-7.393 1.122,-11.743 0.432,-4.35 0.955,-9.58 1.483,-13.99 0.528,-4.411 1.061,-8.002 1.512,-10.619 0.45,-2.618 0.817,-4.262 1.139,-5.308 0.321,-1.046 0.598,-1.494 0.803,-1.766 0.205,-0.271 0.338,-0.367 0.405,-0.414 0.066,-0.048 0.066,-0.048 0.049,0.598 -0.018,0.646 -0.053,1.939 -0.108,3.533 -0.056,1.594 -0.131,3.49 -0.173,4.967 -0.041,1.478 -0.049,2.536 -0.079,3.186 -0.03,0.65 -0.083,0.892 -0.102,1.011 -0.018,0.119 -0.003,0.117 -0.041,0.151 -0.038,0.034 -0.128,0.104 -0.133,0.68 -0.005,0.576 0.075,1.657 0.192,3.051 0.117,1.395 0.27,3.102 0.322,4.786 0.051,1.683 0.001,3.343 0.002,4.231 0,0.887 0.052,1.003 0.132,1.078 0.08,0.076 0.188,0.111 1.001,0.06 0.814,-0.051 2.333,-0.188 4.105,-0.324 1.773,-0.137 3.8,-0.273 5.955,-0.431 2.155,-0.158 4.438,-0.339 6.588,-0.463 2.15,-0.123 4.166,-0.188 5.992,-0.299 1.826,-0.111 3.46,-0.267 5.336,-0.47 1.876,-0.204 3.993,-0.455 6.015,-0.682 2.021,-0.226 3.947,-0.427 5.109,-0.565 1.162,-0.139 1.559,-0.214 1.758,-0.327 0.199,-0.113 0.199,-0.264 0.229,-0.906 0.03,-0.641 0.09,-1.772 0.108,-3.132 0.017,-1.361 -0.008,-2.95 -0.023,-4.429 -0.015,-1.478 -0.02,-2.846 -0.038,-3.724 -0.017,-0.877 -0.047,-1.264 -0.071,-1.469 -0.025,-0.205 -0.043,-0.227 -0.083,-0.294 -0.04,-0.068 -0.103,-0.181 -0.174,-0.682 -0.071,-0.5 -0.152,-1.388 -0.255,-2.32 -0.103,-0.933 -0.229,-1.911 -0.348,-2.739 -0.12,-0.827 -0.233,-1.504 -0.413,-2.544 -0.179,-1.042 -0.426,-2.447 -0.613,-3.449 -0.187,-1.002 -0.316,-1.601 -0.436,-2.27 -0.121,-0.668 -0.234,-1.408 -0.366,-2.121 -0.132,-0.713 -0.283,-1.399 -0.425,-2.156 -0.142,-0.757 -0.275,-1.584 -0.375,-2.322 -0.099,-0.738 -0.165,-1.387 -0.239,-2.029 -0.074,-0.643 -0.157,-1.279 -0.257,-2.036 -0.101,-0.757 -0.219,-1.634 -0.34,-2.526 -0.121,-0.891 -0.244,-1.796 -0.353,-2.565 -0.11,-0.768 -0.205,-1.399 -0.373,-2.344 -0.168,-0.945 -0.408,-2.203 -0.82,-4.085 -0.412,-1.881 -0.995,-4.386 -1.704,-6.89 -0.709,-2.505 -1.544,-5.009 -2.651,-7.745 -1.106,-2.736 -2.484,-5.703 -4.093,-8.851 -1.61,-3.149 -3.45,-6.478 -4.878,-8.781 -1.429,-2.304 -2.444,-3.581 -3.453,-4.629 -1.008,-1.049 -2.009,-1.869 -3.015,-2.608 -1.006,-0.739 -2.017,-1.398 -2.582,-1.773 -0.566,-0.375 -0.687,-0.465 -0.756,-0.571 -0.069,-0.105 -0.087,-0.226 -0.095,-0.303 -0.009,-0.077 -0.009,-0.109 -0.07,-0.174 -0.06,-0.066 -0.181,-0.164 -1.307,-0.714 -1.127,-0.551 -3.259,-1.555 -5.31,-2.603 -2.05,-1.048 -4.019,-2.142 -5.77,-2.976 -1.752,-0.833 -3.286,-1.407 -5.061,-1.957 -1.775,-0.551 -3.792,-1.079 -5.429,-1.507 -1.637,-0.427 -2.894,-0.754 -3.762,-1.008 -0.867,-0.254 -1.345,-0.435 -2.044,-0.7 -0.699,-0.266 -1.619,-0.615 -2.606,-0.909 -0.987,-0.295 -2.041,-0.533 -2.716,-0.687 -0.675,-0.153 -0.972,-0.221 -1.44,-0.471 -0.467,-0.25 -1.106,-0.683 -1.581,-0.937 -0.475,-0.254 -0.787,-0.329 -1.073,-0.365 -0.285,-0.035 -0.544,-0.03 -0.777,-0.03 -0.232,0 -0.438,-0.005 -1.342,-0.33 -0.904,-0.326 -2.506,-0.972 -4.026,-1.577 -1.52,-0.605 -2.959,-1.168 -4.404,-1.748 -1.446,-0.579 -2.9,-1.175 -3.816,-1.569 -0.917,-0.393 -1.297,-0.584 -1.594,-0.779 -0.298,-0.194 -0.514,-0.392 -0.705,-0.497 -0.191,-0.105 -0.356,-0.116 -0.467,-0.117 -0.11,0 -0.164,0.01 -0.251,-0.004 -0.086,-0.014 -0.204,-0.052 -0.587,-0.292 -0.382,-0.24 -1.028,-0.682 -1.678,-1.193 -0.65,-0.51 -1.304,-1.089 -1.956,-1.661 -0.653,-0.572 -1.304,-1.138 -2.311,-1.569 -1.007,-0.431 -2.37,-0.728 -3.723,-0.919 -1.353,-0.191 -2.695,-0.276 -4.576,-0.354 -1.881,-0.078 -4.3,-0.149 -7.931,-0.131 -3.631,0.017 -8.474,0.123 -12.914,0.219 -4.439,0.096 -8.475,0.183 -10.597,0.231 -2.123,0.048 -2.332,0.058 -4.152,0.203 -1.82,0.145 -5.249,0.427 -7.404,0.671 -2.155,0.244 -3.035,0.45 -3.752,0.707 -0.717,0.256 -1.27,0.563 -1.886,1.078 -0.616,0.516 -1.295,1.24 -2.019,1.877 -0.725,0.638 -1.494,1.189 -1.953,1.46 -0.459,0.272 -0.607,0.264 -0.901,0.366 -0.295,0.102 -0.735,0.313 -1.268,0.582 -0.533,0.269 -1.159,0.596 -1.919,0.922 -0.761,0.325 -1.656,0.65 -2.301,0.904 -0.645,0.254 -1.04,0.437 -1.514,0.628 -0.474,0.192 -1.027,0.39 -1.765,0.621 -0.738,0.232 -1.661,0.496 -2.558,0.836 -0.896,0.341 -1.766,0.759 -2.573,1.076 -0.808,0.316 -1.552,0.533 -2.299,0.749 -0.746,0.216 -1.496,0.432 -2.053,0.655 -0.557,0.222 -0.921,0.451 -1.207,0.636 -0.285,0.185 -0.491,0.326 -0.999,0.476 -0.508,0.15 -1.318,0.31 -1.914,0.463 -0.596,0.154 -0.978,0.301 -1.488,0.492 -0.51,0.192 -1.147,0.429 -1.75,0.617 -0.603,0.189 -1.171,0.329 -1.687,0.459 -0.516,0.13 -0.98,0.248 -1.7,0.426 -0.719,0.179 -1.693,0.418 -2.551,0.633 -0.857,0.216 -1.598,0.408 -2.171,0.57 -0.573,0.161 -0.979,0.292 -1.436,0.426 -0.456,0.134 -0.963,0.271 -1.427,0.4 -0.465,0.129 -0.887,0.249 -1.312,0.377 -0.424,0.128 -0.85,0.262 -1.203,0.399 -0.353,0.137 -0.632,0.277 -1.012,0.437 -0.38,0.159 -0.862,0.339 -1.279,0.53 -0.417,0.191 -0.769,0.394 -1.165,0.602 -0.397,0.209 -0.838,0.424 -1.221,0.617 -0.382,0.194 -0.705,0.366 -1.126,0.589 -0.421,0.223 -0.941,0.495 -1.657,0.865 -0.717,0.371 -1.631,0.838 -2.694,1.37 -1.063,0.532 -2.275,1.128 -3.18,1.576 -0.905,0.448 -1.504,0.747 -2.037,1.087 -0.533,0.341 -1.001,0.723 -1.443,1.08 -0.443,0.358 -0.86,0.689 -1.353,1.079 -0.493,0.39 -1.061,0.837 -1.779,1.475 -0.718,0.637 -1.586,1.465 -2.375,2.331 -0.79,0.866 -1.501,1.771 -2.145,2.665 -0.644,0.894 -1.22,1.777 -1.924,2.935 -0.704,1.158 -1.536,2.591 -2.208,3.821 -0.671,1.229 -1.181,2.255 -1.732,3.264 -0.551,1.008 -1.141,1.999 -1.644,2.942 -0.503,0.943 -0.918,1.838 -1.313,2.759 -0.395,0.922 -0.77,1.87 -1.152,2.756 -0.382,0.887 -0.772,1.712 -1.285,3.043 -0.513,1.331 -1.149,3.17 -1.716,4.911 -0.567,1.741 -1.065,3.386 -1.49,4.836 -0.425,1.451 -0.777,2.709 -1.129,4.225 -0.352,1.516 -0.704,3.291 -1.144,5.668 -0.44,2.376 -0.968,5.353 -1.29,7.073 -0.322,1.72 -0.438,2.183 -0.543,2.673 -0.106,0.491 -0.201,1.009 -0.4,1.833 -0.198,0.825 -0.5,1.957 -0.807,3.143 -0.307,1.187 -0.618,2.43 -0.84,3.478 -0.221,1.049 -0.352,1.904 -0.575,3.166 -0.224,1.262 -0.541,2.932 -0.787,4.297 -0.247,1.366 -0.423,2.427 -0.529,2.975 -0.105,0.548 -0.14,0.583 -0.204,0.634 -0.063,0.05 -0.155,0.115 -0.251,2.246 -0.096,2.13 -0.197,6.326 -0.275,8.622 -0.078,2.297 -0.133,2.694 0.035,2.902 0.169,0.209 0.561,0.229 1.419,0.337 0.857,0.108 2.18,0.305 4.51,0.755 2.332,0.45 5.671,1.154 8.339,1.667 2.668,0.513 4.664,0.835 6.751,1.182 2.088,0.347 4.265,0.719 7.24,1.192 2.975,0.472 6.746,1.046 9.15,1.373 2.404,0.327 3.44,0.407 3.958,0.447 0.518,0.041 0.518,0.041 0.568,-0.543 0.049,-0.583 0.149,-1.75 0.263,-2.759 0.114,-1.009 0.242,-1.86 0.394,-2.937 0.152,-1.077 0.328,-2.379 0.498,-3.576 0.17,-1.197 0.333,-2.289 0.417,-2.902 0.085,-0.614 0.089,-0.749 0.076,-0.865 -0.014,-0.116 -0.047,-0.211 -0.023,-1.818 0.024,-1.607 0.104,-4.725 0.147,-7.257 0.043,-2.532 0.048,-4.478 0.059,-5.601 0.011,-1.123 0.029,-1.422 0.067,-1.618 0.038,-0.197 0.095,-0.29 0.176,-0.338 0.08,-0.05 0.184,-0.055 0.308,0.038 0.124,0.094 0.27,0.285 0.345,0.376 0.074,0.092 0.076,0.085 0.078,0.081 0.001,-0.004 0.001,-0.004 0.115,0.253 0.114,0.256 0.343,0.769 0.597,1.463 0.254,0.694 0.533,1.569 0.762,2.507 0.229,0.938 0.408,1.939 0.607,3.547 0.2,1.608 0.422,3.823 0.739,6.228 0.316,2.406 0.729,5.001 1.468,11.393 0.739,6.392 1.805,16.58 2.64,24.511 0.835,7.931 1.439,13.604 1.811,19.699 0.372,6.095 0.513,12.613 0.503,19.654 -0.01,7.04 -0.171,14.604 -0.372,20.609 -0.202,6.004 -0.443,10.45 -0.725,14.423 -0.281,3.973 -0.603,7.473 -1.448,14.162 -0.845,6.688 -2.213,16.566 -3.007,23.777 -0.795,7.212 -1.016,11.758 -1.217,15.269 -0.202,3.51 -0.383,5.984 -0.674,8.122 -0.292,2.137 -0.694,3.937 -0.973,5.315 -0.279,1.378 -0.436,2.334 -0.453,2.935 -0.018,0.601 0.103,0.847 0.249,0.975 0.146,0.129 0.317,0.138 0.5,0.175 0.184,0.036 0.38,0.099 0.469,0.155 0.019,0.011 0.032,0.022 0.042,0.037 0.876,0.322 1.753,0.645 3.155,0.925 1.401,0.28 3.329,0.518 6.493,0.754 3.163,0.237 7.562,0.472 11.099,0.609 3.537,0.138 6.212,0.178 9.592,0.181 3.38,0.003 7.463,-0.03 11.329,-0.007 3.866,0.024 7.513,0.104 10.591,0.191 3.078,0.088 5.586,0.181 7.916,0.252 2.33,0.07 4.483,0.117 6.789,0.171 2.307,0.053 4.768,0.114 7.356,0.121 2.589,0.006 5.304,-0.041 8.04,-0.098 2.736,-0.057 5.492,-0.124 7.953,-0.221z"/>
 </g>
</svg>
