<?xml version="1.0" encoding="UTF-8"?>
<!DOCTYPE svg PUBLIC "-//W3C//DTD SVG 1.1//EN" "http://www.w3.org/Graphics/SVG/1.1/DTD/svg11.dtd">
<!-- Creator: CorelDRAW -->
<svg xmlns="http://www.w3.org/2000/svg" xml:space="preserve" width="181px" height="149px" version="1.1" shape-rendering="geometricPrecision" text-rendering="geometricPrecision" image-rendering="optimizeQuality" fill-rule="evenodd" clip-rule="evenodd"
viewBox="0 0 205.498 169.387"
 xmlns:xlink="http://www.w3.org/1999/xlink"
 xmlns:xodm="http://www.corel.com/coreldraw/odm/2003">
 <defs>
   <clipPath id="id0">
    <path d="M91.234 163.341c0.06,-0.29 0.117,-0.718 0.209,-2.252 0.091,-1.534 0.216,-4.174 0.518,-9.369 0.303,-5.195 0.782,-12.944 1.164,-18.604 0.382,-5.659 0.667,-9.229 1.038,-13.175 0.37,-3.946 0.826,-8.268 1.397,-12.773 0.57,-4.505 1.254,-9.192 2.132,-14.518 0.879,-5.326 1.95,-11.291 2.766,-15.197 0.815,-3.906 1.374,-5.753 1.733,-6.921 0.358,-1.167 0.516,-1.655 0.64,-1.921 0.123,-0.267 0.212,-0.313 0.296,-0.305 0.084,0.008 0.164,0.069 0.266,0.183 0.103,0.113 0.228,0.278 0.391,0.627 0.163,0.349 0.362,0.88 0.684,1.602 0.321,0.721 0.764,1.632 1.146,2.525 0.381,0.893 0.7,1.768 0.836,2.443 0.135,0.674 0.087,1.147 0.127,1.679 0.04,0.532 0.168,1.122 0.504,1.619 0.337,0.498 0.881,0.903 1.195,1.44 0.314,0.538 0.396,1.208 0.602,2.158 0.205,0.951 0.533,2.183 0.646,3.113 0.112,0.929 0.009,1.556 -0.098,2.148 -0.106,0.591 -0.218,1.148 -0.101,1.705 0.117,0.557 0.462,1.116 0.865,1.635 0.404,0.519 0.866,0.998 1.149,1.313 0.284,0.315 0.39,0.466 0.491,0.609 0.101,0.142 0.198,0.276 0.351,0.879 0.152,0.603 0.36,1.675 0.439,2.419 0.078,0.745 0.027,1.161 -0.003,1.576 -0.03,0.415 -0.039,0.828 -0.073,1.354 -0.034,0.526 -0.094,1.165 -0.085,1.751 0.008,0.586 0.085,1.119 0.46,1.91 0.375,0.791 1.048,1.84 1.685,2.689 0.637,0.848 1.239,1.495 1.643,1.902 0.404,0.407 0.611,0.574 0.797,0.87 0.186,0.296 0.351,0.72 0.488,1.263 0.137,0.544 0.246,1.205 0.304,1.972 0.058,0.767 0.067,1.64 0.054,2.608 -0.013,0.968 -0.047,2.031 0.15,2.999 0.197,0.968 0.624,1.84 1.101,2.577 0.476,0.738 1,1.339 1.389,1.826 0.39,0.488 0.644,0.862 0.856,1.23 0.213,0.367 0.384,0.729 0.555,1.154 0.171,0.425 0.342,0.913 0.472,1.479 0.13,0.566 0.218,1.21 0.339,1.795 0.121,0.584 0.275,1.108 0.375,1.699 0.1,0.59 0.145,1.246 0.32,2.204 0.174,0.958 0.476,2.218 0.678,3.273 0.203,1.055 0.305,1.904 0.416,2.657 0.112,0.753 0.231,1.409 0.325,2.284 0.094,0.875 0.163,1.97 0.294,2.774 0.131,0.804 0.325,1.317 0.465,2.09 0.14,0.772 0.225,1.805 0.299,2.412 0.074,0.607 0.137,0.79 0.288,0.952 0.104,0.112 0.251,0.215 0.437,0.32 -0.079,-0.368 -0.154,-0.732 -0.127,-0.999 0.028,-0.278 0.168,-0.45 0.332,-0.556 0.164,-0.105 0.352,-0.145 0.75,-0.063 0.398,0.082 1.007,0.284 1.729,0.399 0.723,0.115 1.56,0.144 2.868,0.151 1.309,0.007 3.089,-0.007 5.568,-0.327 2.479,-0.319 5.657,-0.943 8.788,-1.599 3.132,-0.656 6.217,-1.344 9.657,-2.107 3.44,-0.762 7.234,-1.599 10.248,-2.124 3.014,-0.525 5.249,-0.737 8.16,-0.854 2.912,-0.118 6.502,-0.139 10.137,0.024 3.635,0.163 7.316,0.511 9.976,0.862 2.66,0.351 4.298,0.706 5.688,1.227 1.391,0.522 2.533,1.21 3.226,1.734 0.693,0.524 0.938,0.884 1.054,1.193 0.116,0.309 0.104,0.568 -0.007,0.887 -0.11,0.319 -0.318,0.698 -0.526,1.077 0.192,-0.063 0.354,-0.202 0.566,-0.399 0.232,-0.218 0.523,-0.509 0.64,-0.957 0.116,-0.447 0.059,-1.052 0.065,-2.577 0.006,-1.525 0.074,-3.972 0.052,-6.694 -0.023,-2.724 -0.137,-5.723 -0.194,-7.553 -0.057,-1.831 -0.057,-2.492 -0.057,-3.427 0,-0.936 0,-2.144 -0.029,-3.276 -0.028,-1.132 -0.085,-2.187 -0.111,-3.279 -0.025,-1.092 -0.02,-2.221 -0.091,-4.009 -0.072,-1.787 -0.22,-4.234 -0.3,-6.212 -0.079,-1.979 -0.091,-3.49 -0.231,-7.51 -0.139,-4.02 -0.407,-10.55 -0.929,-16.996 -0.522,-6.446 -1.297,-12.81 -2.278,-18.854 -0.981,-6.045 -2.167,-11.77 -3.341,-17.21 -1.175,-5.44 -2.338,-10.594 -3.867,-15.864 -1.528,-5.268 -3.421,-10.651 -5.246,-15.498 -1.824,-4.847 -3.581,-9.158 -4.618,-11.657 -1.038,-2.499 -1.357,-3.186 -1.494,-3.631 -0.137,-0.445 -0.092,-0.647 0.009,-0.803 0.102,-0.155 0.258,-0.263 0.386,-0.349 0.014,-0.01 0.028,-0.019 0.041,-0.029 -0.042,-0.002 -0.088,-0.005 -0.144,-0.008 -0.105,-0.005 -0.243,-0.013 -0.693,-0.048 -0.449,-0.035 -1.21,-0.098 -2.217,-0.107 -1.008,-0.008 -2.262,0.038 -3.577,0.132 -1.316,0.095 -2.692,0.24 -4.839,0.609 -2.148,0.368 -5.068,0.962 -7.478,1.498 -2.41,0.535 -4.311,1.014 -6.805,1.509 -2.494,0.494 -5.581,1.003 -8.679,1.418 -3.098,0.414 -6.208,0.733 -9.971,1.076 -3.764,0.341 -8.181,0.707 -11.872,0.965 -3.692,0.259 -6.657,0.41 -9.367,0.559 -2.711,0.148 -5.167,0.292 -7.957,0.403 -2.79,0.11 -5.915,0.186 -9.017,0.251 -3.102,0.064 -6.181,0.117 -9.116,0.11 -2.935,-0.008 -5.725,-0.076 -8.341,-0.137 -2.615,-0.061 -5.056,-0.114 -7.698,-0.194 -2.642,-0.08 -5.486,-0.186 -8.975,-0.285 -3.49,-0.099 -7.626,-0.19 -12.01,-0.217 -4.383,-0.026 -9.013,0.012 -12.845,0.008 -3.832,-0.004 -6.865,-0.049 -10.876,-0.205 -4.011,-0.156 -8.998,-0.422 -12.585,-0.69 -3.587,-0.268 -5.773,-0.538 -7.362,-0.856 -1.59,-0.318 -2.583,-0.683 -3.577,-1.049 0.044,0.064 0.021,0.188 -0.027,0.625 -0.062,0.551 -0.164,1.597 -0.449,3.521 -0.286,1.925 -0.753,4.728 -1.058,6.779 -0.305,2.052 -0.448,3.352 -0.79,5.493 -0.342,2.141 -0.884,5.124 -1.32,7.752 -0.436,2.629 -0.767,4.904 -1.029,6.823 -0.263,1.919 -0.457,3.481 -0.636,5.294 -0.18,1.814 -0.345,3.878 -0.525,6.376 -0.18,2.497 -0.373,5.428 -0.567,8.701 -0.194,3.273 -0.388,6.888 -0.53,10.743 -0.143,3.855 -0.234,7.949 -0.206,12.14 0.029,4.192 0.177,8.48 0.468,12.648 0.291,4.169 0.724,8.217 1.009,11.855 0.285,3.638 0.422,6.865 0.485,10.435 0.063,3.57 0.051,7.481 0.091,11.969 0.04,4.488 0.131,9.552 0.223,13.777 0.091,4.225 0.182,7.612 0.266,9.945 0.084,2.332 0.162,3.609 0.193,4.373 0.031,0.764 0.017,1.015 0.027,2.23 0.01,1.214 0.044,3.393 0.078,4.946 0.035,1.554 0.069,2.484 0.137,3.037 0.068,0.553 0.171,0.73 0.482,1.055 0.311,0.325 0.83,0.798 2.632,1.177 1.802,0.38 4.886,0.665 7.829,0.918 2.942,0.254 5.742,0.476 10.492,0.73 4.75,0.254 11.451,0.539 16.4,0.753 4.95,0.214 8.149,0.356 10.954,0.382 2.806,0.026 5.218,-0.066 7.656,-0.143 2.438,-0.077 4.901,-0.139 7.25,-0.216 2.35,-0.077 4.585,-0.168 7.735,-0.565 3.151,-0.396 7.217,-1.098 9.757,-1.616 2.54,-0.519 3.556,-0.856 4.448,-1.309 0.892,-0.453 1.662,-1.024 2.078,-1.386 0.417,-0.362 0.479,-0.516 0.539,-0.807z"/>
   </clipPath>
 </defs>
 <g id="VETORES">
  <metadata id="CorelCorpID_0Corel-Layer"/>
  <g>
  </g>
  <g clip-path="url(#id0)">
   <g id="_2359434131744">
    <path id="_1frente" fill="fuchsia" fill-rule="nonzero" d="M89.473 170.211l-0.957 0 -7.46 -7.866c-0.016,1.428 -0.03,2.86 -0.042,4.294l3.382 3.573 -0.957 0 -6.711 -7.09c0.26,-0.061 0.52,-0.125 0.781,-0.186l-6.069 -6.411c0.382,-0.759 0.758,-1.542 1.123,-2.35 0.081,-0.179 0.158,-0.357 0.237,-0.537l7.191 7.584c0.172,-0.147 0.346,-0.3 0.521,-0.46l8.961 9.449zm-8.487 0.001l-1.658 0.001 -9.732 -10.299c0.51,-0.872 1.014,-1.782 1.507,-2.732l9.902 10.46 -0.019 2.57zm-1.658 0.001l-5.058 0 -2.229 -2.363 -0.001 -0.001 2.23 2.364 -6.826 0.001 0 -0.876 0.38 0.404c0.003,-0.334 0.005,-0.669 0.008,-1.006l-0.388 -0.412 0 -4.335 0.344 0.365c-0.01,-0.347 -0.019,-0.695 -0.028,-1.042l-0.176 -0.187c0.055,-0.082 0.11,-0.167 0.165,-0.25l-0.171 -6.544c0.546,1.408 1.091,2.817 1.637,4.225 0.004,-0.007 0.008,-0.013 0.012,-0.02l3.375 3.572c0.261,-0.063 0.519,-0.125 0.78,-0.188l5.946 6.293zm-19.367 0.003l-0.798 0 -4.245 -4.525 0 -4.259c2.478,3.302 4.046,6.399 5.043,8.784zm-1.752 0l-3.291 0.001 0 -3.51 -7.582 -8.083c0.122,-0.207 0.246,-0.415 0.369,-0.622l-2.755 -2.937 0 -4.305 4.321 4.599c0.123,-0.208 0.246,-0.415 0.37,-0.623l-4.691 -4.991 0 -4.298 7.404 7.863c-0.476,0.884 -0.962,1.806 -1.456,2.764l3.712 3.95 0.002 0.001c0.02,0.359 0.039,0.72 0.059,1.08l-4.111 -4.374c-0.463,0.907 -0.932,1.846 -1.406,2.815l5.776 6.158c0.02,0.361 0.041,0.721 0.061,1.082l3.218 3.43zm-4.061 0.001l-0.952 0 -6.064 -6.477c-0.504,1.069 -0.938,2.023 -1.316,2.914l3.33 3.564 -0.951 0 -4.73 -5.062c0.122,-0.207 0.246,-0.414 0.368,-0.622l-8.053 -8.617c-0.004,0.335 -0.007,0.671 -0.009,1.008l-2.069 -2.213 11.821 12.648c-0.4,0.988 -0.731,1.913 -1.016,2.858l-5.337 0.001 -3.477 -3.736c-0.004,0.337 -0.007,0.674 -0.009,1.011l-9.256 -9.942c-0.231,-0.571 -0.442,-1.139 -0.635,-1.703l7.403 7.951c0.056,-0.11 0.114,-0.22 0.17,-0.33l0 -3.795 -9.054 -9.708 -0.002 -0.001c-0.068,-0.409 -0.127,-0.814 -0.178,-1.212l9.234 9.901 0 -4.302 -9.57 -10.237 0 -0.003c-0.005,-0.345 -0.005,-0.685 0,-1.019l-10.725 -11.476c0,0.364 0.01,0.713 0.029,1.048l-10.705 -11.454c0.104,-0.218 0.211,-0.441 0.327,-0.668l-1.052 -1.126c0.065,-1.341 0.13,-2.682 0.195,-4.022l2.318 2.475c0.121,-0.204 0.247,-0.408 0.378,-0.614l1.315 1.405 -3.964 -4.234c0.065,-1.339 0.13,-2.678 0.195,-4.018l7.139 7.61 -3.015 -3.214c0.138,-0.186 0.279,-0.373 0.426,-0.562l8.585 9.152c-0.121,0.21 -0.237,0.424 -0.349,0.645l-5.58 -5.949c-0.675,0.692 -1.35,1.385 -2.025,2.078l6.428 6.864c-0.078,0.269 -0.146,0.535 -0.207,0.799l-6.708 -7.164c-0.674,0.691 -1.348,1.383 -2.022,2.075l8.21 8.785 9.332 9.446 0 -3.732 1.705 1.821c0.032,-0.316 0.067,-0.618 0.102,-0.909l-1.807 -1.929 0 -4.267 3.912 4.17c-0.277,0.795 -0.549,1.6 -0.814,2.422 -0.079,0.246 -0.154,0.49 -0.231,0.735l10.634 11.359c-0.002,0.335 -0.005,0.671 -0.007,1.006l-10.865 -11.6c-0.336,1.1 -0.648,2.19 -0.941,3.269l9.357 10.013 0 -4.294 10.538 11.254c0.349,0.82 0.698,1.639 1.046,2.458l0 -1.34 0.45 0.48c0.123,-0.208 0.245,-0.415 0.369,-0.623l-0.819 -0.875 0 -4.311 3.878 4.133c-0.507,1.042 -0.964,1.984 -1.376,2.85l6.696 7.152zm-15.927 0.002l-4.02 0.001 -2.776 -2.989c0.477,-0.924 0.954,-1.849 1.432,-2.774l5.364 5.762zm-4.969 0.001l-3.371 0 1.205 -2.332 2.166 2.332zm-13.011 0.002l-1.825 0 -8.976 -9.721c-0.082,1.343 -0.164,2.685 -0.245,4.028l-11.118 -12.064c0.045,-0.912 0.089,-1.823 0.133,-2.735 0.258,-0.183 0.516,-0.367 0.774,-0.551l8.93 9.67 -1.542 -1.67c0.051,-0.284 0.104,-0.57 0.155,-0.856l11.378 12.319c-0.742,-2.237 -1.484,-4.474 -2.227,-6.712l4.66 5.036c-0.05,1.118 -0.081,2.205 -0.097,3.256zm-5.799 0.001l-0.945 0 -5.057 -5.487 0.696 0.755c-0.082,1.344 -0.163,2.689 -0.245,4.033l0.643 0.7 -4.897 0 -7.052 -7.685c0.066,-1.355 0.132,-2.71 0.198,-4.065l6.98 7.59c0.053,-0.285 0.104,-0.57 0.157,-0.857l-7.089 -7.708c0.066,-1.353 0.132,-2.707 0.198,-4.06l7.54 8.181c0.051,-0.284 0.102,-0.57 0.154,-0.856l8.719 9.459zm-9.806 0.001l-0.625 0 0.104 -0.568 0.521 0.568zm-0.942 0.001l-3.94 0 -2.416 -2.638c0.066,-1.357 0.132,-2.714 0.199,-4.071l6.157 6.709zm-4.883 0l-1.603 0.001 0.082 -1.662 1.521 1.661zm-5.352 0.001l-3.433 0.001 -1.655 -1.816c0.042,0.392 0.087,0.782 0.129,1.173l-1.063 -1.166 0 -6.341 0.265 0.291c0.042,0.389 0.085,0.781 0.129,1.171l5.35 5.855 0.278 0.832zm-4.374 0.001l-1.648 0 0 -1.808 1.648 1.808zm-1.648 -8.151l-0.001 -4.272 2.959 3.231 2.246 6.737 -5.204 -5.696zm-0.001 -4.273l-0.001 -6.324 3.69 4.021c-0.129,0.206 -0.258,0.409 -0.388,0.608l-3.117 -3.397c0.745,2.235 1.49,4.47 2.235,6.705l-0.795 -0.868c-0.141,0.194 -0.282,0.383 -0.422,0.568l-1.202 -1.313zm-0.001 -10.581l0 -1.028 5.565 6.051c-0.116,0.22 -0.234,0.436 -0.349,0.649l-5.216 -5.672zm0 -5.279l-0.001 -1.024 7.234 7.848c-0.101,0.234 -0.203,0.465 -0.306,0.693l-6.927 -7.517zm-0.001 -1.312l0 -4.984 8.674 9.394c-0.085,0.25 -0.172,0.498 -0.259,0.744l-6.575 -7.12 -1.84 1.966zm0 -4.984l0 -4.239 2.757 2.98 0.073 3.22c-0.171,0.183 -0.342,0.365 -0.513,0.548l-2.317 -2.509zm0 -4.24l-0.001 -1.022 9.855 10.65 0 0c-0.066,0.264 -0.135,0.529 -0.206,0.798l-9.648 -10.426zm-0.001 -1.023l0 -4.232 0.762 0.822 -0.762 -0.822 0 -1.022 10.732 11.574c-0.044,0.286 -0.092,0.574 -0.145,0.867l-7.95 -8.575c0.033,1.448 0.065,2.896 0.098,4.343l-2.735 -2.955zm0 -5.254l0 -1.417 1.272 -1.44 11.695 12.587c-0.101,0.692 -0.202,1.383 -0.304,2.074 -3.367,-3.771 -6.735,-7.543 -10.102,-11.314 0.017,0.776 0.035,1.552 0.053,2.328l-2.614 -2.818zm-0.001 -9.468l0 -1.02 3.889 4.178c-0.038,0.298 -0.077,0.597 -0.116,0.895l9.861 10.593c-0.179,1.223 -0.358,2.447 -0.537,3.67l-1.854 -1.995c-0.018,0.311 -0.041,0.627 -0.066,0.95l-8.904 -9.585c0.191,-0.134 0.381,-0.268 0.572,-0.404l-1.11 -1.195c0.638,-0.722 1.277,-1.444 1.915,-2.166l-3.65 -3.921zm-0.001 -5.234l0 -1.021 4.193 4.496c0.071,-1.33 0.141,-2.661 0.21,-3.991l4.731 5.062c1.671,2.112 3.342,4.223 5.013,6.336 0.015,-0.309 0.03,-0.616 0.045,-0.924l2.67 2.856 -2.023 2.075 -10.353 -11.1c-0.039,0.298 -0.077,0.597 -0.116,0.895l-4.37 -4.684zm0 -5.23l0 -1.016 5.08 5.435 0 0.001c-0.037,0.298 -0.077,0.595 -0.116,0.892l-4.964 -5.312zm-0.001 -4.263l0 -0.968 0.66 -0.301 5.015 5.356 0 0.002c-0.037,0.298 -0.076,0.596 -0.115,0.894l-5.193 -5.547c-0.121,0.191 -0.243,0.379 -0.367,0.564zm0 -1.974l0 -4.196 2.138 2.279c-0.199,0.45 -0.415,0.906 -0.652,1.367 -0.239,0.466 -0.487,0.914 -0.742,1.345l-0.744 -0.795zm0 -5.213l-0.001 -0.841 1.758 -1.48 1.709 1.818c-0.256,0.97 -0.592,2.011 -1.032,3.098l-2.434 -2.595zm-0.002 -14.865l0 -0.737 0.371 0.393 -0.371 0.344zm0 -4.913l-0.001 -1.011 2.987 3.161c-0.171,0.159 -0.341,0.315 -0.509,0.471l-2.477 -2.621zm-0.001 -5.182l0 -1.014 5.607 5.922c-0.172,0.158 -0.342,0.317 -0.513,0.473l-5.094 -5.381zm-0.001 -5.179l0 -1.011 8.226 8.675c-0.17,0.157 -0.34,0.313 -0.509,0.472l0 0 -7.717 -8.136zm0 -5.173l0 -1.009 10.848 11.42c-0.171,0.157 -0.341,0.315 -0.511,0.472l-10.337 -10.883zm48.904 49.943c-0.05,0.122 -0.102,0.246 -0.153,0.369l0.067 0.071 0.086 -0.44zm17.877 41.577l-9.257 -9.814 0 4.291 6.626 7.037c-0.123,0.207 -0.247,0.415 -0.369,0.622l1.76 1.869c-0.194,-0.544 -0.39,-1.089 -0.584,-1.633l0.32 0.339c0.516,-0.95 1.019,-1.854 1.504,-2.711zm-63.112 -57.515c0.266,-1.158 0.423,-2.194 0.516,-3.055l-1.891 1.593 1.375 1.462zm87.913 46.437l-1.544 -1.617c-0.169,1.177 -0.377,2.394 -0.63,3.643l2.128 2.234c0.006,-1.412 0.021,-2.832 0.046,-4.26zm-65.711 -42.622c-0.657,0.664 -1.313,1.329 -1.97,1.994l1.726 1.826c0.081,-1.273 0.162,-2.547 0.244,-3.82zm43.955 35.688l-6.558 -6.904c-0.45,0.95 -0.901,1.901 -1.351,2.851l7.909 8.342 0 -4.289zm-55.001 -24.508c-0.032,0.669 -0.065,1.339 -0.097,2.008l7.645 8.15c0.675,-0.693 1.35,-1.386 2.026,-2.079l5.109 5.435c0.15,-0.184 0.303,-0.359 0.456,-0.53l-8.393 -8.929c-0.161,0.172 -0.318,0.342 -0.471,0.513l-5.259 -5.596c-0.338,0.343 -0.677,0.685 -1.016,1.028zm30.239 14.222l-1.883 -1.994c-0.199,0.323 -0.401,0.647 -0.608,0.972 -0.339,0.532 -0.679,1.052 -1.02,1.56l2.111 2.239c0.465,-0.955 0.932,-1.881 1.4,-2.777zm-10.169 9.285l4.171 4.446c0.371,-1.042 0.752,-2.059 1.141,-3.054l-3.482 -3.706c-0.622,0.744 -1.233,1.447 -1.83,2.109l0 0.205zm22.629 6.212l0 1.973 9.617 10.196c0.544,-0.95 1.063,-1.836 1.553,-2.659l-10.44 -11.049c-0.243,0.513 -0.486,1.026 -0.73,1.539zm-53.376 -22.286c-0.071,1.332 -0.14,2.664 -0.21,3.996l9.831 10.561c0.172,-1.179 0.345,-2.358 0.518,-3.537l0.072 -0.073 -10.211 -10.947zm64.918 31.176c0.262,-0.437 0.517,-0.856 0.76,-1.253l0 -2.243 -9.9 -10.459c-0.451,0.951 -0.902,1.901 -1.353,2.852l10.493 11.103zm24.634 11.031l-6.821 -7.181c-0.367,1.007 -0.768,2.025 -1.204,3.05l7.968 8.403c0.017,-1.427 0.036,-2.851 0.057,-4.272zm-23.874 -19.833l-8.229 -8.678c-0.451,0.95 -0.901,1.901 -1.352,2.851l9.581 10.122 0 -4.295zm23.931 16.124l-2.155 -2.289c-0.011,-0.522 -0.019,-1.046 -0.027,-1.569l-3.402 -3.575c-0.307,1.061 -0.651,2.138 -1.032,3.228l6.573 6.92c0.014,-0.906 0.028,-1.811 0.043,-2.715zm-2.224 -9.225l-2.298 -2.411c-0.242,1.118 -0.521,2.261 -0.842,3.425l3.166 3.328c-0.018,-1.438 -0.027,-2.885 -0.026,-4.342zm-43.224 17.053l6.161 6.605c-0.119,0.203 -0.238,0.405 -0.359,0.608 0,0.008 -0.001,0.017 -0.002,0.025l-5.808 -6.228c0.003,-0.337 0.005,-0.673 0.008,-1.01zm45.191 -52.071l-0.316 -0.329c-0.422,0.987 -0.843,1.974 -1.264,2.961l1.173 1.219c0.129,-1.292 0.265,-2.576 0.407,-3.851zm-23.674 6.967l-1.547 -1.62c-0.45,0.95 -0.9,1.9 -1.351,2.849l2.898 3.041 0 -4.27zm0 5.277l-3.217 -3.375 -1.351 2.85 4.568 4.802 0 -4.277zm0 5.285l-4.887 -5.137c-0.451,0.95 -0.901,1.901 -1.352,2.851l6.239 6.568 0 -4.282zm22.748 -7.934l-1.87 -1.944 0 4.281 1.572 1.638c0.091,-1.318 0.189,-2.643 0.298,-3.975zm-0.651 9.906l-1.219 -1.272 0 0.736c-0.004,1.072 -0.034,2.226 -0.102,3.45l1.145 1.197c0.05,-1.363 0.108,-2.733 0.176,-4.111zm0.289 -4.994l-1.508 -1.571 0 4.287 1.27 1.326c0.071,-1.341 0.149,-2.687 0.238,-4.042zm-0.499 10.075l-1.169 -1.223c-0.086,1.237 -0.211,2.538 -0.386,3.896l1.441 1.509c0.028,-1.385 0.067,-2.78 0.114,-4.182zm-66.773 -22.866l-6.577 -6.985c-0.678,0.686 -1.355,1.372 -2.033,2.058l8.357 8.892c0.084,-1.322 0.168,-2.643 0.253,-3.965zm68.009 3.6c0.018,-0.185 0.037,-0.37 0.055,-0.555l-1.38 -1.434c-0.307,0.718 -0.613,1.436 -0.92,2.154l0 1.166 1.947 2.026c0.094,-1.115 0.192,-2.233 0.298,-3.357zm-44.294 -4.783l-0.198 -0.208c-0.393,0.927 -0.824,1.889 -1.295,2.883l0.38 0.4 -1.984 -2.09c0.193,0.549 0.386,1.089 0.582,1.622l0.002 0.002 1.294 1.365c0.058,-0.272 0.114,-0.55 0.168,-0.832l0.365 0.384c0.229,-1.175 0.458,-2.351 0.686,-3.526zm-0.849 4.365l-0.967 -1.019c-0.437,0.898 -0.905,1.819 -1.411,2.761l1.692 1.787c0.229,-1.176 0.458,-2.353 0.686,-3.529zm-0.922 4.291l-1.806 -1.907c-0.477,0.867 -0.983,1.749 -1.522,2.643l1.85 1.959c0.494,-0.931 0.988,-1.83 1.478,-2.695zm-22.732 -9.324c-0.172,0.151 -0.346,0.306 -0.517,0.464l8.447 8.972c0.189,-0.151 0.374,-0.293 0.553,-0.425l-7.634 -8.11c0.084,-1.321 0.168,-2.641 0.252,-3.961l-4.366 -4.629c-0.678,0.687 -1.357,1.373 -2.035,2.06l5.3 5.629 0 0zm1.414 -7.965l-2.154 -2.28 -2.036 2.062 3.938 4.174c0.084,-1.318 0.168,-2.637 0.252,-3.956zm-3.249 54.493l-7.81 -8.44c-0.793,0.565 -1.585,1.13 -2.378,1.695l9.943 10.768c0.082,-1.341 0.164,-2.682 0.245,-4.023zm71.351 -47.857c-0.063,0.147 -0.126,0.294 -0.188,0.441l0.123 0.128c0.022,-0.19 0.043,-0.38 0.065,-0.569zm-23.842 3.547c-0.409,0.864 -0.818,1.727 -1.228,2.591l1.228 1.286 0 -3.877zm-34.76 36.809c0.009,-0.33 0.017,-0.662 0.026,-0.992l0.446 0.479c0.256,-1.118 0.531,-2.248 0.832,-3.391l-12.469 -13.342c0.079,1.504 0.159,3.008 0.238,4.512l8.014 8.592 -0.209 -0.224c-0.378,-0.067 -0.757,-0.133 -1.135,-0.198l-6.613 -7.09c0.064,1.224 0.128,2.447 0.193,3.67 -0.15,0.107 -0.299,0.214 -0.448,0.32l5.307 5.702 -2.193 -2.356c-0.235,0.086 -0.47,0.175 -0.705,0.262l8.583 9.22c0.009,-0.33 0.017,-0.661 0.026,-0.991l0 -0.002 -0.321 -0.344c0.214,-1.157 0.453,-2.33 0.715,-3.519l-0.287 -0.308 0 0zm13.13 -7.181l-2.256 -2.4 0 4.282 5.596 5.965c-1.113,-2.616 -2.227,-5.231 -3.34,-7.847zm-2.256 7.187l9.744 10.407c-1.118,-2.629 -2.238,-5.258 -3.356,-7.887l-6.388 -6.809 0 4.289zm-11.141 10.33c0.01,-0.332 0.019,-0.663 0.027,-0.995l-0.927 -0.998c0.17,-1.199 0.365,-2.42 0.585,-3.661l-11.114 -11.939c-0.796,0.567 -1.591,1.134 -2.386,1.701l2.413 2.598c-0.234,0.088 -0.471,0.175 -0.706,0.262l-2.278 -2.453c-0.795,0.566 -1.589,1.133 -2.384,1.699l2.677 2.887c-0.051,0.286 -0.103,0.57 -0.155,0.856l-3.093 -3.336c-0.793,0.566 -1.587,1.131 -2.38,1.697l4.826 5.216c-0.052,0.286 -0.103,0.57 -0.154,0.855l14.782 15.975c0.008,-0.332 0.017,-0.662 0.025,-0.994l-12.181 -13.165c0.081,-1.339 0.163,-2.678 0.244,-4.017l2.885 3.111 2.217 6.684 5.237 5.658c0.068,-1.291 0.162,-2.625 0.285,-3.994l1.422 1.533c0.009,-0.332 0.017,-0.665 0.026,-0.997l-1.36 -1.467c0.122,-1.244 0.269,-2.517 0.443,-3.818l1.024 1.102zm-12.12 -8.772c0.076,-1.252 0.152,-2.504 0.228,-3.756 0.69,2.078 1.379,4.155 2.068,6.232l-2.296 -2.476zm-19.329 -51.248l3.587 3.825c0.152,-0.179 0.302,-0.356 0.453,-0.535l-3.416 -3.641c-0.202,0.117 -0.409,0.235 -0.624,0.351zm33.917 36.155l11.165 11.902c0.003,-0.335 0.005,-0.671 0.008,-1.006l-11.007 -11.733c-0.056,0.276 -0.113,0.555 -0.166,0.837zm-30.748 -38.275c-0.05,0.041 -0.097,0.082 -0.147,0.121l2.891 3.076c0.151,-0.179 0.301,-0.356 0.453,-0.534l-2.813 -2.993c-0.126,0.112 -0.255,0.221 -0.384,0.33zm31.761 34.072l11.005 11.709c0.107,-0.226 0.212,-0.451 0.32,-0.674l-2.433 -2.589 0.234 0.25c-0.488,-1.149 -0.977,-2.297 -1.466,-3.445l0 1.884 -5.45 -5.8c0.403,-1.01 0.813,-1.997 1.23,-2.957l9.218 9.79c0.105,-0.23 0.209,-0.458 0.311,-0.684l-9.225 -9.798c0.435,-0.981 0.874,-1.937 1.317,-2.865l-1.971 -2.09 1.202 1.275c-0.361,-0.668 -0.723,-1.333 -1.084,-1.999 -0.092,0.179 -0.186,0.363 -0.281,0.552l-0.054 -0.058c-0.577,0.842 -1.154,1.649 -1.73,2.423l0.475 0.504c-0.097,0.231 -0.192,0.468 -0.289,0.707l-0.61 -0.647c-0.614,0.81 -1.225,1.583 -1.827,2.317l1.342 1.428c-0.08,0.252 -0.159,0.509 -0.234,0.767zm31.429 32.426c-0.016,0.322 -0.033,0.642 -0.05,0.964l0 0.001 0.647 0.686c0.118,-0.213 0.237,-0.426 0.354,-0.638l-0.951 -1.013zm-60.749 -68.842l2.63 2.792c0.151,-0.179 0.301,-0.356 0.451,-0.535l-2.618 -2.78c-0.148,0.174 -0.303,0.349 -0.463,0.523zm63.561 66.493l-2.557 -2.716c-0.015,0.32 -0.032,0.642 -0.048,0.962l2.253 2.392 0.352 -0.638zm-61.316 -69.326l2.71 2.875c0.152,-0.178 0.303,-0.356 0.453,-0.534l-2.768 -2.934c-0.126,0.196 -0.257,0.394 -0.395,0.593zm23.577 23.983l-7.811 -8.28c-0.187,0.135 -0.374,0.273 -0.563,0.415l8.289 8.788c0.029,-0.308 0.058,-0.614 0.085,-0.923zm18.066 19.153l-3.773 -3.999c-0.129,0.201 -0.257,0.403 -0.384,0.604l3.854 4.088c0.102,-0.234 0.204,-0.464 0.303,-0.693zm21.534 22.829l-4.163 -4.412c-0.015,0.319 -0.032,0.641 -0.047,0.961l3.857 4.09 0.353 -0.639zm-60.955 -69.835c-0.102,0.215 -0.211,0.438 -0.327,0.666l1.171 1.239c-0.051,-0.393 -0.103,-0.784 -0.156,-1.176l-0.688 -0.729zm40.968 43.358l-3.314 -3.509c-0.128,0.202 -0.257,0.403 -0.383,0.606l3.405 3.604c0.098,-0.235 0.197,-0.47 0.292,-0.702l0 0.001zm21.848 23.118l-5.768 -6.105c-0.017,0.32 -0.033,0.64 -0.05,0.96l5.465 5.782c0.117,-0.213 0.235,-0.424 0.353,-0.637zm-20.349 -26.823l-2.806 -2.962c-0.128,0.202 -0.257,0.403 -0.385,0.606l2.906 3.069c0.097,-0.24 0.191,-0.478 0.284,-0.713l0.001 0zm22.209 23.462l-7.375 -7.79c-0.015,0.32 -0.032,0.642 -0.047,0.962l7.068 7.467c0.117,-0.213 0.237,-0.426 0.354,-0.639zm-59.719 -68.295l-4.186 -4.414c-0.153,0.175 -0.306,0.348 -0.46,0.524l6.078 6.41c-0.477,-0.84 -0.955,-1.681 -1.432,-2.52zm36.326 39.317l2.355 2.482c0.092,-0.245 0.182,-0.487 0.271,-0.725l-2.241 -2.361c-0.127,0.2 -0.255,0.403 -0.385,0.604zm25.252 25.62l-8.978 -9.469c-0.017,0.32 -0.033,0.638 -0.049,0.958l8.675 9.149 0.353 -0.638 -0.001 0zm-61.292 -69.838l-2.109 -2.222c-0.153,0.175 -0.306,0.351 -0.458,0.526l2.28 2.4c0.095,-0.234 0.192,-0.47 0.287,-0.704zm10.446 12.004l0.772 0.812c0.002,1.375 0.061,2.857 0.206,4.432l-0.612 -0.645c0.007,0.094 0.018,0.186 0.026,0.279 0.027,0.285 0.055,0.567 0.083,0.848l0.002 0.002 0.619 0.653c0.112,0.973 0.256,1.976 0.44,3.009 0.13,0.73 0.276,1.439 0.432,2.131l-0.922 -0.974c0.052,0.399 0.107,0.794 0.161,1.185l0.002 0.002 1.082 1.142c0.615,2.416 1.365,4.588 2.149,6.504l-3.524 -3.729c-0.201,0.118 -0.403,0.239 -0.611,0.365l4.941 5.228c0.5,1.093 1,2.083 1.476,2.963 0.15,-5.552 0.3,-11.104 0.45,-16.656l0.166 0.174c0.02,-0.208 0.039,-0.417 0.058,-0.625 -0.069,-0.077 -0.137,-0.154 -0.205,-0.231l0.07 -2.597c-2.133,-2.178 -4.265,-4.355 -6.398,-6.533 -0.04,0.655 -0.068,1.349 -0.082,2.075l-0.847 -0.892c0.02,0.357 0.042,0.716 0.066,1.077l0 0.001zm19.173 19.174l-5.078 -5.346c0.011,0.114 0.023,0.23 0.035,0.344 0.092,0.33 0.186,0.662 0.281,0.998l4.656 4.901c0.038,-0.296 0.074,-0.594 0.106,-0.897l0 0zm8.597 9.05c-0.076,0.262 -0.158,0.512 -0.245,0.752l1.772 1.864c0.08,-0.258 0.155,-0.514 0.228,-0.769l-1.755 -1.847zm48.327 50.874l-9.587 -10.091c-0.149,0.184 -0.299,0.361 -0.451,0.534l10.063 10.593c-0.008,-0.346 -0.017,-0.692 -0.025,-1.036zm-91.742 -101.766l-12.031 -12.642c-0.148,0.18 -0.296,0.361 -0.442,0.541l11.963 12.572c0.17,-0.156 0.34,-0.315 0.51,-0.471zm29.254 31.751l5.85 6.148c0.012,-0.33 0.02,-0.657 0.027,-0.979l-5.992 -6.297c0.037,0.376 0.076,0.752 0.115,1.128zm14.667 15.414l1.975 2.075c0.039,-0.301 0.067,-0.604 0.092,-0.91l-2.132 -2.241c0.037,0.351 0.06,0.71 0.065,1.076zm47.691 49.113l-7.307 -7.681c-0.119,0.206 -0.243,0.412 -0.374,0.616l7.705 8.098c-0.007,-0.345 -0.015,-0.689 -0.024,-1.033zm-97.458 -107.596l-3.91 -4.103c-0.148,0.181 -0.297,0.363 -0.445,0.543l5.799 6.085c-0.48,-0.841 -0.962,-1.682 -1.444,-2.525l0 0zm40.887 43.905c-0.022,-0.369 -0.048,-0.734 -0.077,-1.089l-6.426 -6.743c0.037,0.378 0.076,0.754 0.116,1.13l6.387 6.702zm10.744 11.272c-0.07,-0.434 -0.152,-0.855 -0.244,-1.265l-5.134 -5.386c-0.177,0.087 -0.352,0.173 -0.53,0.26 0.232,0.264 0.586,0.681 0.989,1.231l4.919 5.16 0 0zm45.698 46.934l-5.484 -5.753c-0.09,0.24 -0.184,0.477 -0.282,0.714l5.789 6.074c-0.008,-0.346 -0.015,-0.691 -0.023,-1.035l0 0zm-0.13 -5.472l-4.145 -4.342c-0.063,0.27 -0.128,0.537 -0.194,0.803l4.363 4.571c-0.008,-0.344 -0.015,-0.688 -0.024,-1.032zm-0.129 -5.464l-3.19 -3.336c-0.045,0.291 -0.089,0.579 -0.135,0.864l3.349 3.502c-0.009,-0.344 -0.016,-0.688 -0.024,-1.03zm-0.129 -5.46l-2.445 -2.552c-0.034,0.305 -0.068,0.604 -0.102,0.899l2.57 2.685c-0.007,-0.344 -0.015,-0.688 -0.023,-1.032zm-0.13 -5.45l-1.881 -1.961c-0.022,0.315 -0.044,0.627 -0.068,0.935l1.975 2.056c-0.009,-0.343 -0.017,-0.686 -0.026,-1.029l0 -0.001zm-1.672 -6.043l1.568 1.632c-0.008,-0.343 -0.015,-0.686 -0.023,-1.03l-1.514 -1.574c-0.01,0.327 -0.019,0.65 -0.03,0.972l-0.001 0zm0.072 -5.225l1.368 1.422c-0.008,-0.343 -0.017,-0.684 -0.025,-1.027l-1.353 -1.408c0.005,0.341 0.008,0.678 0.01,1.013zm1.239 -4.004c-0.008,-0.342 -0.015,-0.686 -0.024,-1.028l-1.421 -1.474c0.019,0.355 0.037,0.708 0.054,1.059l1.391 1.443zm-22.642 27.211l-0.066 -3.212 0.102 0.107c0.041,-0.073 0.08,-0.144 0.121,-0.218 -0.007,-0.228 -0.012,-0.456 -0.019,-0.684l-0.225 -0.237 -0.09 -4.397 0.194 0.204c-0.01,-0.345 -0.019,-0.692 -0.029,-1.038l-0.186 -0.196 -0.09 -4.39 0.155 0.163c-0.008,-0.346 -0.018,-0.693 -0.027,-1.039l-0.149 -0.156 -0.09 -4.383 0.118 0.123c-0.01,-0.345 -0.02,-0.691 -0.029,-1.037l-0.11 -0.115 -0.089 -4.378 0.08 0.084c-0.01,-0.343 -0.02,-0.689 -0.029,-1.033l-0.072 -0.076 -0.09 -4.371 0.041 0.043c-0.008,-0.346 -0.018,-0.69 -0.027,-1.035l-0.035 -0.036 -0.089 -4.359c0.001,-0.001 0.002,0 0.003,-0.001 0.055,-0.025 0.02,-0.255 -0.006,-0.26l-0.002 0.001 -0.005 -0.262c-0.005,0.001 -0.019,0.064 -0.072,0.18 -0.049,0.107 -0.074,0.131 -0.07,0.179 0.004,0.04 0.025,0.078 0.052,0.108 -0.168,0.472 -0.512,1.712 -0.905,3.273l-0.342 -0.357c-0.093,0.236 -0.187,0.473 -0.281,0.711l0.425 0.444c-0.265,1.086 -0.541,2.276 -0.792,3.446l-0.826 -0.864c-0.096,0.236 -0.189,0.473 -0.281,0.711l0.934 0.977c-0.183,0.893 -0.345,1.755 -0.47,2.528 -0.058,0.364 -0.111,0.728 -0.16,1.091l-1.499 -1.57c-0.094,0.236 -0.189,0.474 -0.281,0.713l1.671 1.751c-0.15,1.35 -0.234,2.69 -0.263,4.006l-2.603 -2.73c-0.095,0.236 -0.189,0.474 -0.283,0.713l2.873 3.014c-0.002,1.549 0.07,3.055 0.197,4.495l-4.265 -4.482c-0.094,0.237 -0.187,0.475 -0.281,0.713l4.657 4.894c0.205,1.879 0.499,3.624 0.834,5.175l-6.687 -7.04c-0.094,0.238 -0.188,0.475 -0.282,0.713l7.28 7.664c0.888,3.559 1.948,5.792 2.46,5.732l0 0z"/>
    <path id="_1frente_0" fill="fuchsia" fill-rule="nonzero" d="M205.945 66.817c-1.417,-1.421 -2.835,-2.842 -4.252,-4.263l-4.418 -3.412c-0.892,0.58 -1.784,1.16 -2.676,1.739l11.672 9.025c-0.109,-1.03 -0.217,-2.06 -0.326,-3.089zm-109.896 33.022l0.084 0.474 3.087 2.48 -0.565 -4.233 -1.748 -1.401 -0.858 2.68zm0.269 1.514l0.785 4.411 2.817 2.266 -0.566 -4.238 -3.036 -2.439zm0.971 5.452l0.375 2.101 0.404 2.311 2.552 2.056 -0.567 -4.244 -2.764 -2.224zm0.961 5.451l0.771 4.412 2.3 1.856 -0.567 -4.25 -2.504 -2.018zm0.953 5.453l0.773 4.418 2.048 1.656 -0.569 -4.257 -2.252 -1.817zm0.955 5.46l0.774 4.426 0.934 0.757 0 0c0.203,-0.468 0.399,-0.918 0.588,-1.343l-0.297 -2.223 -1.999 -1.617zm0.956 5.469l0.183 1.041 0.283 -0.664 -0.466 -0.377zm2.988 17.078l0.598 3.42 0.074 0.422 4.502 3.674c-0.047,-0.087 -0.093,-0.173 -0.138,-0.255 -1.034,-1.91 -2.634,-4.493 -5.036,-7.261zm0.858 4.891l0.791 4.475 6.681 5.463c-0.697,-2.275 -1.567,-4.214 -2.338,-5.748l-5.134 -4.19zm0.977 5.524l0.792 4.484 5.387 4.414 1.302 -0.174c-0.166,-1.099 -0.39,-2.147 -0.652,-3.139l-6.829 -5.585zm0.979 5.535l0.701 3.962 3.555 -0.474 -4.256 -3.488zm10.797 2.616l13.393 -1.786 -0.01 -0.071 -8.052 -6.548 0 -0.001 8.129 6.611 0.946 -0.126 -1.158 -0.943c-0.195,-1.443 -0.388,-2.884 -0.578,-4.322l5.815 4.721 0.948 -0.127 -16.982 -13.783 0 -0.001 10.088 8.188c-0.189,-1.437 -0.376,-2.87 -0.559,-4.301l11.541 9.352 0.949 -0.127 -12.619 -10.224c-0.184,-1.431 -0.364,-2.856 -0.542,-4.281l-11.199 -9.057c-0.363,1.007 -0.742,1.976 -1.132,2.908l12.739 10.322 -8.457 -6.852c-0.25,0.097 -0.498,0.192 -0.747,0.289l-3.818 -3.094c-0.004,0.007 -0.007,0.014 -0.01,0.021 -0.727,-1.323 -1.454,-2.647 -2.181,-3.971l1.035 6.465c-0.044,0.089 -0.087,0.18 -0.131,0.269l0.2 0.162c0.055,0.343 0.11,0.686 0.165,1.029l-0.389 -0.316 0.573 4.296 0.44 0.358c0.042,0.334 0.084,0.667 0.126,0.998l-0.431 -0.35 0.574 4.303 0.397 0.324c0.043,0.334 0.085,0.668 0.127,1l-0.389 -0.317 0.575 4.311 0.359 0.293c0.043,0.335 0.086,0.669 0.129,1.002l-0.353 -0.288 0.489 3.664zm29.517 -3.937l3.995 -0.533 -0.016 -0.118 -4.81 -3.883c0.138,1.414 0.274,2.81 0.408,4.192l0.423 0.342zm5.057 -0.674l4.116 -0.549 -4.127 -3.326c-0.143,1.271 -0.328,2.425 -0.525,3.442l0.536 0.433zm5.066 -0.676l5.201 -0.694 -0.007 -0.051c-0.197,-1.393 -0.393,-2.787 -0.589,-4.18l0.364 0.293c0.02,-0.283 0.038,-0.567 0.057,-0.85l-0.563 -0.452 -0.23 -1.631c-0.128,-0.908 -0.256,-1.816 -0.384,-2.724l1.155 0.925c-0.048,-0.335 -0.097,-0.67 -0.143,-1.006l-1.153 -0.924 -0.613 -4.349 1.145 0.916c-0.048,-0.335 -0.096,-0.669 -0.143,-1.004l-1.143 -0.916 0 0c-0.204,-1.447 -0.408,-2.895 -0.612,-4.343l0 0 1.134 0.907c-0.048,-0.336 -0.096,-0.669 -0.144,-1.005l-1.131 -0.904 0 0c-0.031,-0.215 -0.061,-0.431 -0.091,-0.646 -0.174,-1.231 -0.347,-2.46 -0.52,-3.69l1.124 0.897c-0.048,-0.335 -0.096,-0.669 -0.144,-1.004l-1.121 -0.895c-0.147,-1.039 -0.293,-2.078 -0.439,-3.118l-0.171 -1.209 1.114 0.886c-0.048,-0.335 -0.096,-0.669 -0.144,-1.004l-1.111 -0.884c-0.088,-0.628 -0.177,-1.256 -0.265,-1.884 -0.115,-0.812 -0.229,-1.625 -0.344,-2.438l0 -0.001 1.103 0.877c-0.048,-0.334 -0.095,-0.667 -0.144,-1.001l-1.1 -0.875 0 -0.001 -0.305 -2.172c-0.101,-0.714 -0.202,-1.428 -0.303,-2.143l1.094 0.868c-0.049,-0.334 -0.097,-0.668 -0.145,-1.002l-1.089 -0.865 -0.608 -4.311 1.083 0.858c-0.048,-0.333 -0.096,-0.665 -0.142,-0.999l-1.081 -0.856c-0.116,-0.824 -0.232,-1.647 -0.348,-2.47 -0.086,-0.611 -0.172,-1.221 -0.258,-1.832l1.072 0.848c-0.048,-0.333 -0.096,-0.665 -0.142,-0.999l-1.071 -0.847c-0.201,-1.432 -0.403,-2.864 -0.605,-4.296l1.062 0.838c-0.048,-0.334 -0.096,-0.665 -0.142,-0.999l-1.06 -0.837 -0.501 -3.555c-0.035,-0.244 -0.069,-0.489 -0.103,-0.733l1.05 0.829c-0.047,-0.332 -0.093,-0.666 -0.141,-0.998l-1.05 -0.828 0 0 -0.196 -1.391c-0.148,0.3 -0.293,0.597 -0.435,0.893l0 0 -1.374 -1.083c0.025,0.315 0.05,0.63 0.075,0.945l0.991 0.782c-0.042,0.091 -0.084,0.181 -0.126,0.272 -0.053,0.112 -0.106,0.226 -0.158,0.338 -0.134,0.291 -0.265,0.579 -0.393,0.866 -0.008,0.017 -0.015,0.034 -0.023,0.051 -0.132,0.298 -0.261,0.593 -0.388,0.886 -0.007,0.018 -0.015,0.036 -0.023,0.053l0 0.001c-0.049,0.115 -0.1,0.232 -0.149,0.347l0.217 0.171 0.128 0.987 -0.623 -0.491c-0.411,0.999 -0.785,1.973 -1.125,2.922l2.299 1.82 0.128 0.988 -2.67 -2.113c-0.361,1.048 -0.68,2.066 -0.96,3.054l4.183 3.315c0.042,0.33 0.085,0.659 0.128,0.989l-4.512 -3.576c-0.298,1.113 -0.546,2.186 -0.75,3.222l5.815 4.616c0.043,0.33 0.085,0.66 0.128,0.99l-6.089 -4.834c-0.215,1.199 -0.37,2.347 -0.474,3.443l7.117 5.66c0.043,0.33 0.085,0.66 0.128,0.99l-7.315 -5.817c-0.097,1.33 -0.118,2.582 -0.08,3.76l7.95 6.332c0.043,0.33 0.086,0.66 0.129,0.991l-8.037 -6.401c0.093,1.555 0.288,2.973 0.544,4.261l8.048 6.421c0.043,0.331 0.086,0.661 0.129,0.992l-7.959 -6.349c0.196,0.941 0.519,2.487 0.958,4.598l7.557 6.039c0.043,0.331 0.086,0.662 0.129,0.993l-7.465 -5.965c0.279,1.344 0.597,2.88 0.952,4.601l7.07 5.658c0.043,0.332 0.086,0.663 0.129,0.994l-6.979 -5.586c0.243,1.18 0.501,2.437 0.775,3.773 0.058,0.281 0.114,0.557 0.17,0.829l6.592 5.286 0.129 0.994 -6.507 -5.217c0.317,1.589 0.587,3.044 0.789,4.484l6.278 5.042 0.129 0.995 -6.279 -5.042c0.155,1.313 0.25,2.642 0.271,4.074l6.568 5.284 0.129 0.996 -6.694 -5.385c0,0.045 0.001,0.088 0,0.133 -0.013,1.267 -0.081,2.464 -0.185,3.579l4.991 4.023zm9.21 -1.229l0.953 -0.127 -3.324 -2.669c-0.012,0.282 -0.029,0.567 -0.047,0.855l2.418 1.941zm5.094 -0.679l0.954 -0.127 -8.362 -6.704c0.008,0.297 0.013,0.598 0.017,0.905l7.391 5.926zm1.606 -0.214l3.377 -0.45 0.03 -0.089 -3.89 -3.112 0.483 3.651zm10.191 -1.359l3.538 -0.472 -3.984 -3.178 0.446 3.65zm4.493 -0.6l4.174 -0.556 -9.757 -7.771c0.174,1.43 0.349,2.861 0.524,4.292l5.059 4.035zm5.13 -0.684l3.773 -0.503 -0.052 -0.421 -15.078 -11.989c0.175,1.428 0.349,2.857 0.524,4.285l10.833 8.628zm4.184 -0.558l0.956 -0.127 -1.541 -1.226c-0.177,-1.434 -0.355,-2.869 -0.533,-4.304l5.029 3.991 -0.315 1.187 6.607 -0.882 -0.014 -0.1 0.002 0.001c-0.019,-0.311 -0.038,-0.623 -0.059,-0.935l-0.088 -0.069 -0.094 -0.656c-0.179,-1.244 -0.359,-2.487 -0.538,-3.731l0.458 0.363c-0.019,-0.312 -0.04,-0.624 -0.061,-0.935l-0.541 -0.428c-0.211,-1.461 -0.422,-2.921 -0.632,-4.381l0.912 0.72c-0.02,-0.312 -0.04,-0.622 -0.059,-0.933l-0.997 -0.788c-0.178,-1.23 -0.355,-2.46 -0.532,-3.689 -0.239,0.9 -0.478,1.801 -0.718,2.702l-11.212 -8.858c0.052,0.337 0.104,0.672 0.154,1.008l10.864 8.583 0 0c-0.284,1.069 -0.567,2.137 -0.851,3.206l0 0 -9.34 -7.391c0.052,0.337 0.104,0.672 0.156,1.009l8.99 7.114 0 0.001c-0.18,0.676 -0.359,1.352 -0.539,2.028 -0.104,0.393 -0.208,0.786 -0.313,1.178l-7.044 -5.583c-0.177,-1.431 -0.354,-2.861 -0.531,-4.292l-15.042 -11.903c0.173,1.422 0.347,2.843 0.52,4.265l14.521 11.509c0.039,0.328 0.079,0.654 0.119,0.981l7.263 5.757c-0.213,0.8 -0.425,1.6 -0.638,2.401 -0.071,0.269 -0.142,0.539 -0.214,0.808l0 0 -5.884 -4.67c0.041,0.327 0.081,0.655 0.121,0.983l-14.526 -11.531c0.175,1.426 0.349,2.852 0.523,4.278l14.532 11.555c0.04,0.327 0.078,0.655 0.12,0.982l1.009 0.802zm16.143 -2.153l0.278 -0.037 -0.209 -0.166 -0.069 0.203zm4.491 -0.599l0.961 -0.128 -4.104 -3.242c-0.078,0.232 -0.157,0.466 -0.238,0.698l3.381 2.672zm1.423 -0.19l3.757 -0.501 -0.931 -0.734 -0.133 -0.991 2.024 1.597 4.227 -0.563 -13.575 -10.693c1.221,1.888 2.443,3.775 3.664,5.663l0.197 1.264 -2.517 -1.986c-0.079,0.233 -0.158,0.466 -0.238,0.698l2.911 2.298 0.614 3.948zm10.782 -1.438l11.565 -1.542 -0.344 -2.292 1.783 1.398 -0.209 0.73 1.937 -0.259 -0.677 -0.531 -0.201 -2.898c-0.215,0.745 -0.429,1.491 -0.643,2.237l-2.14 -1.678 -0.379 -2.533c-0.095,-0.627 -0.189,-1.254 -0.282,-1.882l5.642 4.419 -0.002 0.007c-0.125,0.297 -0.248,0.599 -0.368,0.907 -0.072,0.184 -0.142,0.368 -0.21,0.551 -0.035,0.095 -0.069,0.19 -0.103,0.286 -0.031,0.084 -0.062,0.169 -0.092,0.253 -0.042,0.12 -0.083,0.24 -0.124,0.359 -0.019,0.058 -0.039,0.115 -0.058,0.172l-0.098 0.296 8.546 -1.14 -0.143 -0.705c-0.081,-0.411 -0.16,-0.816 -0.234,-1.215 -0.025,-0.135 -0.049,-0.268 -0.073,-0.401 -0.012,-0.062 -0.023,-0.123 -0.033,-0.185 -0.024,-0.134 -0.049,-0.268 -0.072,-0.4 -0.009,-0.055 -0.018,-0.109 -0.028,-0.163 -0.024,-0.139 -0.048,-0.277 -0.071,-0.415 -0.008,-0.045 -0.015,-0.09 -0.023,-0.134 -0.024,-0.146 -0.049,-0.292 -0.072,-0.436 -0.005,-0.035 -0.011,-0.069 -0.017,-0.103 -0.025,-0.153 -0.049,-0.306 -0.073,-0.457 -0.004,-0.026 -0.007,-0.051 -0.011,-0.076 -0.025,-0.16 -0.05,-0.318 -0.074,-0.476 -0.002,-0.015 -0.004,-0.031 -0.006,-0.046 -0.026,-0.166 -0.05,-0.332 -0.074,-0.495l-0.003 -0.02c-0.024,-0.171 -0.049,-0.34 -0.072,-0.508 -0.047,-0.336 -0.091,-0.665 -0.134,-0.989l0.001 0c-0.047,-0.357 -0.09,-0.706 -0.13,-1.049 -0.004,-0.029 -0.007,-0.059 -0.01,-0.089 -0.017,-0.134 -0.032,-0.268 -0.047,-0.4 -0.006,-0.056 -0.012,-0.112 -0.018,-0.168 -0.012,-0.102 -0.023,-0.204 -0.034,-0.305 -0.009,-0.079 -0.017,-0.157 -0.025,-0.236 -0.008,-0.072 -0.015,-0.144 -0.023,-0.216 -0.01,-0.099 -0.02,-0.197 -0.03,-0.295 -0.005,-0.049 -0.01,-0.097 -0.014,-0.145 -0.012,-0.115 -0.023,-0.229 -0.034,-0.341 -0.002,-0.026 -0.005,-0.052 -0.007,-0.078 -0.012,-0.129 -0.024,-0.256 -0.035,-0.382 -0.009,-0.094 -0.018,-0.189 -0.026,-0.282 -0.259,0.305 -0.53,0.637 -0.811,0.993 -0.008,0.01 -0.016,0.02 -0.024,0.03 -0.1,0.128 -0.202,0.26 -0.305,0.394 -0.041,0.054 -0.083,0.109 -0.125,0.164 -0.079,0.105 -0.159,0.212 -0.239,0.321 -0.064,0.085 -0.128,0.173 -0.191,0.261 -0.026,0.034 -0.05,0.068 -0.075,0.102l-7.96 -6.214c-0.299,0.06 -0.6,0.12 -0.901,0.179l8.459 6.604 -0.001 0c-0.011,0.018 -0.024,0.036 -0.036,0.054 -0.111,0.161 -0.222,0.325 -0.334,0.493 -0.024,0.035 -0.048,0.071 -0.072,0.108 -0.115,0.174 -0.23,0.352 -0.346,0.532 -0.02,0.032 -0.04,0.063 -0.059,0.094 -0.12,0.19 -0.24,0.383 -0.36,0.58 -0.016,0.026 -0.032,0.052 -0.048,0.078 -0.122,0.203 -0.244,0.41 -0.366,0.62 -0.009,0.017 -0.018,0.032 -0.028,0.048l0.001 0 0 0 -17.45 -13.642c-0.109,0.209 -0.219,0.415 -0.331,0.623l17.436 13.631 0 0.001 -0.004 0.006c-0.116,0.211 -0.231,0.426 -0.346,0.644 -0.006,0.012 -0.013,0.025 -0.02,0.038 -0.112,0.214 -0.223,0.431 -0.333,0.652 -0.008,0.016 -0.016,0.033 -0.024,0.049 -0.11,0.221 -0.219,0.446 -0.326,0.674 -0.004,0.008 -0.008,0.016 -0.011,0.023 -0.111,0.237 -0.221,0.477 -0.33,0.721l-6.079 -4.759 0 -0.002c-0.133,-0.891 -0.267,-1.782 -0.401,-2.673 -3.246,-1.755 -6.492,-3.509 -9.737,-5.264l-1.275 -0.998c-0.044,0.079 -0.085,0.159 -0.128,0.24 -0.453,-0.245 -0.905,-0.49 -1.358,-0.735 -0.025,-0.243 -0.051,-0.486 -0.076,-0.729 -0.146,-1.406 -0.292,-2.812 -0.439,-4.218 -0.176,-1.695 -0.352,-3.389 -0.529,-5.084 -0.002,-0.03 -0.006,-0.059 -0.009,-0.089 -0.065,-0.633 -0.131,-1.267 -0.197,-1.9 -0.114,-1.089 -0.227,-2.177 -0.34,-3.265 -0.108,-1.041 -0.216,-2.081 -0.325,-3.121 -0.06,0.24 -0.125,0.485 -0.191,0.734 -0.012,0.042 -0.024,0.085 -0.035,0.128 -0.07,0.255 -0.141,0.514 -0.217,0.777 -0.019,0.065 -0.038,0.129 -0.057,0.194 -0.01,-0.088 -0.019,-0.174 -0.03,-0.261l-13.884 -10.824c0.018,0.307 0.035,0.614 0.051,0.921l13.708 10.687 0 0c-0.222,0.73 -0.469,1.488 -0.745,2.269l0 0.002c-0.092,0.26 -0.187,0.522 -0.285,0.786l-0.001 0.001 -12.458 -9.726c0.017,0.307 0.034,0.614 0.052,0.922l-11.961 -9.338c0.176,1.418 0.352,2.835 0.528,4.252l11.654 9.112c0.015,0.268 0.028,0.535 0.044,0.803 0.049,0.076 0.097,0.153 0.147,0.229l-11.724 -9.166 0.528 4.257 13.772 10.783c-0.254,-1.484 -0.507,-2.969 -0.761,-4.454l8.392 6.562c-0.46,0.967 -0.932,1.888 -1.412,2.762l0.673 0.527 0 0 -4.454 -3.486c0.381,0.593 0.763,1.184 1.144,1.777l0.002 0.002 3.497 2.738 0 0 -1.204 -0.943c-0.528,0.931 -1.061,1.805 -1.59,2.624l1.923 1.508 -1.684 -1.32c0.007,0.3 0.014,0.599 0.02,0.899l-0.641 -0.503c-0.6,0.902 -1.192,1.731 -1.762,2.489l3.28 2.576c-0.081,0.232 -0.159,0.465 -0.238,0.697l-17.462 -13.713c1.695,2.619 3.389,5.238 5.084,7.856l11.339 8.919c-0.079,0.231 -0.158,0.465 -0.238,0.697l-9.936 -7.815c1.702,2.631 3.404,5.262 5.106,7.893l7.151 5.633 -3.362 -2.648c-0.077,0.232 -0.158,0.465 -0.237,0.698l4.359 3.433 -0.132 -0.989 7.309 5.757c0.227,-1.12 0.454,-2.239 0.68,-3.359l-9.737 -7.658 1.169 0.918 -0.133 -0.987 11.35 8.926c0.02,0.31 0.04,0.621 0.06,0.931l-2.45 -1.926 0.554 3.523zm29.445 -3.927l0.967 -0.129 -2.666 -2.082c-0.09,0.228 -0.177,0.453 -0.264,0.679l1.963 1.532zm3.587 -1.988l-0.131 -0.984 -3.671 -2.862c-0.094,0.219 -0.188,0.439 -0.283,0.662l4.085 3.184zm-0.712 -5.337l-0.131 -0.983 -1.357 -1.056c-0.102,0.213 -0.203,0.427 -0.304,0.643l1.792 1.396zm-1.689 -12.657l-0.442 -3.313 -35.185 -27.279c0.234,1.317 0.637,3.012 1.363,4.905l19.703 15.298c0.214,-0.212 0.427,-0.424 0.64,-0.636l13.921 11.025zm-0.573 -4.294l-0.578 -4.328 -25.863 -20.026c-0.19,0.262 -0.38,0.524 -0.57,0.785l0 0c-0.102,-0.487 -0.203,-0.974 -0.305,-1.461l-12.653 -9.798c1.524,2.461 3.048,4.922 4.572,7.383l35.397 27.445zm-0.708 -5.308l-0.708 -5.301 -24.445 -18.902c0.068,0.345 0.134,0.689 0.199,1.034l1.42 1.097c-0.597,0.821 -1.193,1.643 -1.79,2.464l25.324 19.608zm-0.708 -5.302l-0.576 -4.316 -11.119 -8.586c-0.976,-0.447 -1.952,-0.894 -2.928,-1.341 -0.052,-0.347 -0.104,-0.694 -0.156,-1.04l-5.846 -4.515c-0.597,0.822 -1.194,1.643 -1.791,2.465l22.416 17.333zm-0.576 -4.316l-0.13 -0.979 -24.814 -19.161c0.068,0.345 0.134,0.688 0.201,1.033l24.743 19.107zm-0.13 -0.979l-0.366 -2.742 -7.827 -3.584 8.193 6.326zm-0.575 -4.308l-0.131 -0.98 -14.314 -11.039c-0.203,-1.36 -0.405,-2.719 -0.609,-4.079 -0.56,0.771 -1.121,1.542 -1.681,2.313l-8.577 -6.615c0.067,0.345 0.134,0.689 0.2,1.033l7.968 6.145c-0.597,0.822 -1.194,1.643 -1.791,2.464l5.289 4.085c-0.217,-1.451 -0.433,-2.901 -0.65,-4.352l14.296 11.025zm-0.705 -5.282l-0.131 -0.98 -5.484 -4.223c-0.096,0.217 -0.193,0.436 -0.292,0.653l5.907 4.55zm-0.704 -5.278l-0.13 -0.976 -3.204 -2.464c-0.098,0.217 -0.195,0.433 -0.293,0.65l3.627 2.79zm-0.662 -4.959l-0.744 -5.575 -15.994 -12.272 0.57 4.27 15.071 11.578c-0.098,0.218 -0.195,0.436 -0.292,0.653l-14.648 -11.254 0.05 0.38 15.987 12.22zm-0.874 -6.551l-0.571 -4.282 -15.993 -12.255 0.57 4.265 15.994 12.272zm-0.702 -5.258l-0.57 -4.275 -24.525 -18.77c-0.829,0.636 -1.658,1.273 -2.487,1.909l11.369 8.712c0.056,-0.077 0.111,-0.155 0.167,-0.233l0.054 0.402 15.992 12.255zm-38.683 -0.617l-3.173 -2.451c-0.6,0.811 -1.199,1.622 -1.799,2.433l3.807 2.943c0.388,-0.975 0.777,-1.95 1.165,-2.925zm-5.734 14.393l0.115 0.089c0.024,-0.274 0.05,-0.549 0.073,-0.823l-6.829 -5.302c-0.156,0.168 -0.314,0.34 -0.47,0.516l7.024 5.454c0.01,0.071 0.018,0.143 0.027,0.214 0.02,-0.049 0.04,-0.098 0.06,-0.148zm-1.449 -11.42l4.584 3.55c0.389,-0.976 0.778,-1.951 1.166,-2.926l-3.952 -3.056c-0.599,0.811 -1.199,1.621 -1.798,2.432zm7.451 -3.645c0.388,-0.974 0.776,-1.949 1.165,-2.924l-2.395 -1.847c-0.599,0.811 -1.199,1.622 -1.798,2.433l3.028 2.338zm-4.3 10.793c0.389,-0.975 0.777,-1.951 1.166,-2.927l-4.265 -3.302c0.177,1.413 0.354,2.826 0.532,4.239l2.567 1.99zm5.995 -18.008l-0.713 -0.549c-0.599,0.812 -1.199,1.623 -1.799,2.434l2.18 1.68c0.111,-1.188 0.221,-2.376 0.332,-3.565zm-0.3 -1.108l0.376 0.289c0.028,-0.304 0.056,-0.608 0.085,-0.912 -0.154,0.208 -0.307,0.416 -0.461,0.623zm11.898 40.249c1.429,2.307 3.029,4.103 4.487,5.463l5.547 4.312 -0.871 -0.677c-0.11,0.209 -0.221,0.418 -0.331,0.624l-1.178 -0.916c0.276,1.504 0.552,3.008 0.828,4.512l-1.099 -0.856c-0.112,0.209 -0.221,0.416 -0.331,0.623l1.944 1.515 -0.325 -0.253c0.053,0.29 0.106,0.58 0.16,0.869 0.216,1.18 0.432,2.359 0.649,3.539 0.711,-0.706 1.421,-1.412 2.132,-2.118l-0.6 -0.468c0.004,-0.29 0.008,-0.583 0.01,-0.873l1.088 0.847c0.729,-0.725 1.457,-1.449 2.186,-2.173l-3.959 -3.078 0.728 0.565c0.002,-0.291 0.006,-0.583 0.008,-0.873l3.721 2.892c0.729,-0.724 1.458,-1.449 2.187,-2.173l-5.867 -4.555c0.004,-0.29 0.007,-0.58 0.011,-0.871l-0.18 -0.141c-0.112,0.208 -0.221,0.416 -0.331,0.623l0.119 0.093 -12.42 -9.643c0.458,1.03 1.012,2.101 1.687,3.19l0 0.001zm2.976 -13.762l-12.634 -9.769c0.125,1.375 0.249,2.748 0.373,4.123l13.217 10.233c-0.319,-1.529 -0.638,-3.058 -0.956,-4.587zm-7.932 -7.013c0.005,0.044 0.011,0.088 0.019,0.131 0.287,0.184 0.573,0.367 0.86,0.55l0.008 0.005 6.826 5.279 -0.954 -4.58 -1.705 -1.316 0 0 -5.691 -4.394c0.022,0.151 0.045,0.302 0.067,0.453 -1.499,-0.971 -2.998,-1.943 -4.497,-2.915l0.28 3.086 4.787 3.701zm-14.649 -40.391l-1.034 0.138 0.656 0.503c0.126,-0.214 0.252,-0.427 0.378,-0.641l0 0zm-0.734 1.245l-1.273 -0.977 -3.601 0.481 0.082 0.617 3.25 2.496c0.514,-0.872 1.028,-1.745 1.542,-2.617zm-3.965 6.312l0.045 0.34 0.124 -0.21 -0.169 -0.13zm2.067 -3.091l-2.763 -2.123 0.566 4.236 0.654 0.504c0.515,-0.872 1.029,-1.745 1.543,-2.617l0 0zm24.627 22.747c0.589,-0.824 1.179,-1.647 1.768,-2.47l-5.46 -4.195 0 0.001 -7.4 -5.685c0.21,1.434 0.421,2.867 0.631,4.302l7.338 5.643 0 0.002 3.123 2.402zm-5.755 -24.485c-0.732,-0.132 -1.464,-0.264 -2.196,-0.396l2.387 1.827 -0.191 -1.431zm10.177 -0.453c-1.051,0.807 -2.103,1.614 -3.154,2.421l3.873 2.96 -0.719 -5.381zm-9.856 2.859l-4.013 -3.072 -6.5 -1.172 11.081 8.491 -0.568 -4.247zm11.548 13.537l-23.087 -17.691 0.566 4.239 20.753 15.922 1.768 -2.47zm-0.694 -8.919l-0.149 -1.121 -4.574 -3.496c-0.83,0.637 -1.659,1.274 -2.489,1.91l22.015 16.849 -14.803 -14.142 0 0zm-39.807 29.393l-3.523 -2.739c-0.595,0.81 -1.19,1.621 -1.785,2.431l5.726 4.457c-0.14,-1.383 -0.279,-2.766 -0.418,-4.149zm-0.514 -5.101l-0.812 -0.631c-0.595,0.811 -1.19,1.622 -1.785,2.432l3.014 2.344 -0.417 -4.145zm-52.043 29.668l-2.748 -2.181c0.137,1.386 0.271,2.764 0.406,4.135l2.912 2.315 -0.57 -4.269zm51.889 -31.197c-0.082,0.113 -0.164,0.225 -0.247,0.338l0.305 0.236c-0.019,-0.191 -0.039,-0.382 -0.058,-0.574zm2.491 15.092c0.069,0.551 0.137,1.102 0.205,1.654l2.667 2.079c0.362,0.577 0.727,1.154 1.09,1.731l-3.635 -2.834 0.526 4.245 7.874 6.148c0.244,0.386 0.488,0.774 0.731,1.16 0.017,-0.184 0.032,-0.366 0.049,-0.551l-0.267 -0.209 3.277 2.559c-1.116,-2.231 -2.443,-4.581 -4.022,-6.984l-1.946 -1.517 3.276 2.554c0.024,-0.275 0.049,-0.55 0.072,-0.825l-3.064 -2.389 0.379 0.295c-0.938,-1.327 -1.955,-2.665 -3.059,-4.002 -1.803,-2.184 -3.625,-4.11 -5.395,-5.803 -0.022,-0.222 -0.045,-0.445 -0.067,-0.668l-6.233 -4.852c-0.595,0.81 -1.19,1.621 -1.785,2.431l8.996 7.013c0.111,-0.412 0.221,-0.823 0.331,-1.236l0 0.001zm-75.283 27.641l-1.744 -1.399c-0.011,1.189 -0.057,2.424 -0.142,3.696l2.405 1.931c-0.181,-1.399 -0.354,-2.809 -0.519,-4.228zm21.606 -6.273l-2.951 -2.346c0.136,1.389 0.272,2.768 0.406,4.14l3.116 2.481 -0.571 -4.275zm0.703 5.27l-3.153 -2.512c0.136,1.391 0.271,2.773 0.405,4.145l3.32 2.648 -0.572 -4.281zm0.705 5.277l-3.358 -2.679c0.136,1.393 0.272,2.777 0.406,4.151l3.524 2.816 -0.572 -4.288 0 0zm-18.506 13.483l-7.711 -6.214c-0.231,1.047 -0.493,2.108 -0.79,3.182l9.01 7.275c-0.172,-1.417 -0.342,-2.832 -0.509,-4.243zm19.212 -8.199l-3.564 -2.847c0.137,1.395 0.273,2.782 0.407,4.157l3.73 2.985 -0.573 -4.295zm-19.645 4.516l-2.44 -1.984c-0.079,-0.515 -0.157,-1.034 -0.235,-1.552l-3.844 -3.093c-0.164,1.092 -0.363,2.206 -0.597,3.337l7.432 5.988c-0.106,-0.899 -0.212,-1.799 -0.316,-2.696zm21.059 6.076l-3.976 -3.188c0.137,1.401 0.273,2.791 0.407,4.168l4.144 3.328 -0.575 -4.308 0 0zm-0.708 -5.3l-3.769 -3.017c0.137,1.399 0.273,2.787 0.407,4.163l3.937 3.156 -0.575 -4.302zm-23.777 -9.626l-2.598 -2.086c-0.091,1.141 -0.216,2.311 -0.38,3.507l3.579 2.88c-0.209,-1.423 -0.409,-2.856 -0.601,-4.301zm71.606 19.24l-15.055 -11.932c0.174,1.424 0.349,2.848 0.522,4.272l15.065 11.959c-0.177,-1.433 -0.355,-2.866 -0.532,-4.299zm-15.816 -18.161l15.041 11.903 -0.06 -0.487c-1.774,-2.545 -3.549,-5.089 -5.323,-7.634l-0.698 -0.551c-0.178,-0.422 -0.358,-0.858 -0.536,-1.31l-0.143 -0.113c-1.991,-2.856 -3.982,-5.711 -5.974,-8.566l-3.466 -2.735 0.52 4.253 1.918 1.516c0.023,0.067 0.044,0.134 0.066,0.2 0.656,0.765 1.312,1.527 1.967,2.292l0.002 0.001 1.588 1.256 -5.422 -4.285c0.174,1.42 0.347,2.84 0.52,4.26zm-29.176 29.793l-4.6 -3.707c0.138,1.409 0.274,2.805 0.408,4.186l4.771 3.851 -0.579 -4.33zm-0.711 -5.323l-4.391 -3.533c0.137,1.406 0.273,2.8 0.408,4.18l4.561 3.675 -0.578 -4.322zm-0.709 -5.316l-4.183 -3.359c0.137,1.403 0.273,2.795 0.407,4.174l4.352 3.501 -0.576 -4.316zm39.696 -39.472l0.719 4.403 3.467 2.723c0.284,-1.059 0.568,-2.118 0.851,-3.177l-5.037 -3.949zm6.083 0.044l-6.966 -5.455c0.239,1.466 0.478,2.932 0.717,4.397l5.399 4.233c0.283,-1.058 0.566,-2.116 0.85,-3.175zm-2.092 7.813l-3.107 -2.44c0.241,1.47 0.481,2.94 0.721,4.41l1.535 1.207c0.283,-1.059 0.567,-2.118 0.851,-3.177zm-9.206 -26.953l2.581 2.015c-0.244,-1.464 -0.488,-2.927 -0.731,-4.391l-5.217 -4.066c1.122,2.147 2.245,4.294 3.366,6.442l0.001 0zm12.343 15.237l-8.894 -6.954c0.239,1.463 0.478,2.927 0.717,4.39l7.328 5.737c0.283,-1.058 0.566,-2.115 0.849,-3.173l0 0zm-9.293 -9.4l0.234 1.434 1.011 0.791 -2.173 -1.698c-0.11,0.203 -0.22,0.412 -0.329,0.624l2.704 2.114c0.098,-0.219 0.198,-0.435 0.3,-0.648l7.742 6.053c0.283,-1.057 0.566,-2.115 0.849,-3.172l-10.363 -8.091c-0.065,0.089 -0.13,0.178 -0.196,0.267 -0.026,-0.161 -0.053,-0.322 -0.08,-0.482l-1.971 -1.539c0.757,1.449 1.514,2.898 2.272,4.347l0 0zm-43.874 5.233l-2.344 -1.855c0.136,1.382 0.271,2.757 0.405,4.124l2.507 1.988 -0.568 -4.257zm0.701 5.248l-2.546 -2.017c0.137,1.384 0.271,2.761 0.406,4.13l2.709 2.151 -0.569 -4.263 0 -0.001zm-22.237 -12.953l-0.358 -0.284c-0.287,1.034 -0.573,2.068 -0.86,3.102l1.323 1.052c-0.043,-1.297 -0.078,-2.587 -0.105,-3.87zm19.496 -7.568c-0.263,-0.337 -0.527,-0.675 -0.79,-1.012l-1.011 -0.797c0.135,1.376 0.27,2.746 0.404,4.11l1.905 1.503 -0.508 -3.804zm0.641 4.794l-1.943 -1.533c0.135,1.378 0.27,2.75 0.405,4.115l2.105 1.663 -0.567 -4.245zm0.699 5.236l-2.143 -1.693c0.136,1.38 0.271,2.753 0.405,4.119l2.305 1.825 -0.567 -4.251zm58.756 17.96c0.176,1.421 0.353,2.842 0.529,4.263l14.057 11.023c-0.254,-1.487 -0.508,-2.975 -0.762,-4.462l-13.824 -10.824zm1.18 9.511l14.343 11.264c-0.254,-1.49 -0.509,-2.979 -0.763,-4.469l-14.109 -11.064 0.529 4.269zm-23.576 -4.357l2.214 1.746c-0.809,-1.159 -1.617,-2.318 -2.425,-3.477 0.07,0.577 0.141,1.154 0.211,1.731zm-56.845 -15.942l-2.11 -1.681 0.567 4.244 1.775 1.416c-0.085,-1.319 -0.163,-2.645 -0.232,-3.979zm0.667 9.904l-1.377 -1.1 0.098 0.73c0.137,1.063 0.26,2.211 0.355,3.434l1.293 1.034c-0.131,-1.358 -0.255,-2.723 -0.369,-4.098zm-0.375 -4.988l-1.702 -1.358 0.567 4.25 1.434 1.145c-0.108,-1.338 -0.208,-2.682 -0.299,-4.037zm0.839 10.052l-1.321 -1.057c0.079,1.237 0.127,2.543 0.133,3.913l1.628 1.305c-0.155,-1.377 -0.302,-2.765 -0.44,-4.161zm-1.325 -19.26c-0.007,-0.186 -0.013,-0.372 -0.019,-0.557l-1.558 -1.239c-0.209,0.752 -0.417,1.505 -0.626,2.257l0.154 1.156 2.198 1.75c-0.055,-1.118 -0.106,-2.239 -0.149,-3.367zm69.726 24.526c0.212,-0.79 0.424,-1.581 0.636,-2.372l2.537 1.994c-1.128,-1.072 -2.254,-2.146 -3.381,-3.218 0.032,0.211 0.065,0.425 0.097,0.637l-0.426 -0.336c0.178,1.098 0.358,2.197 0.537,3.295zm-69.911 -31.341c-0.043,0.154 -0.086,0.308 -0.128,0.462l0.139 0.11c-0.004,-0.191 -0.008,-0.382 -0.011,-0.572zm-23.162 6.671c-0.292,0.911 -0.583,1.82 -0.875,2.731l1.388 1.112 -0.513 -3.843zm87.231 -11.952c-0.227,-1.363 -0.454,-2.727 -0.681,-4.09 -1.994,-0.685 -3.988,-1.37 -5.982,-2.054 0.279,0.534 0.559,1.068 0.838,1.603l5.825 4.541 0 0zm12.752 10.824l-9.212 -7.182c-0.595,0.81 -1.189,1.62 -1.784,2.431l10.147 7.921 0.849 -3.17zm15.515 20.684c-0.113,-0.66 -0.225,-1.32 -0.338,-1.98 -0.431,-1.046 -0.91,-2.138 -1.443,-3.266l11.875 9.273c-0.364,0.942 -0.772,1.913 -1.227,2.906l0 0 -8.867 -6.933zm6.806 15.708c0.157,-0.172 0.315,-0.344 0.471,-0.515l1.569 1.232 0.19 1.032 -2.391 -1.875 0.161 0.126zm-0.305 4.52l-0.132 -0.988 3.499 2.748c0.047,0.255 0.094,0.509 0.141,0.764 2.399,1.669 4.798,3.337 7.197,5.005 0.093,0.364 0.184,0.728 0.276,1.094l-10.981 -8.623zm-115.299 11.282c0.027,0.32 0.053,0.64 0.078,0.961l0.001 0.002 0.732 0.594c0.088,-0.226 0.178,-0.453 0.266,-0.68l-1.077 -0.877zm2.477 -2.701l-2.894 -2.353c0.027,0.319 0.053,0.64 0.08,0.959l2.549 2.073 0.265 -0.679zm1.399 -3.578l-4.71 -3.823c0.027,0.32 0.053,0.641 0.081,0.96l4.364 3.543 0.265 -0.68zm1.4 -3.575l-6.525 -5.288c0.025,0.32 0.053,0.639 0.078,0.958l6.182 5.008c0.088,-0.227 0.177,-0.452 0.265,-0.678zm1.4 -3.578l-8.341 -6.745c0.027,0.319 0.052,0.64 0.079,0.96l7.995 6.465c0.088,-0.227 0.178,-0.453 0.267,-0.68zm12.799 11.247l18.319 14.816c-0.054,-0.343 -0.109,-0.685 -0.163,-1.026l-13.442 -10.872c-0.177,-1.423 -0.353,-2.844 -0.526,-4.261l13.272 10.714c-0.054,-0.341 -0.107,-0.683 -0.161,-1.022l-13.86 -11.189c-0.153,0.182 -0.304,0.356 -0.456,0.524l-8.131 -6.565c-0.055,0.189 -0.107,0.375 -0.164,0.564 -0.255,0.849 -0.524,1.674 -0.802,2.478l6.864 5.551c-0.25,0.095 -0.5,0.192 -0.75,0.288zm-11.401 -14.822l-10.153 -8.197c0.025,0.319 0.052,0.637 0.078,0.957l9.81 7.92 0.265 -0.68zm27.842 17.735l-10.837 -8.733c-0.125,0.202 -0.249,0.397 -0.377,0.589l11.377 9.167c-0.055,-0.341 -0.109,-0.683 -0.163,-1.023zm-0.854 -5.422l-8.26 -6.647c-0.09,0.22 -0.187,0.44 -0.289,0.66l8.709 7.008c-0.052,-0.342 -0.106,-0.682 -0.16,-1.021zm-0.855 -5.42l-6.196 -4.976c-0.058,0.249 -0.119,0.497 -0.186,0.744l6.543 5.255c-0.054,-0.342 -0.106,-0.683 -0.161,-1.023zm-0.852 -5.407l-4.684 -3.756c-0.027,0.277 -0.055,0.551 -0.086,0.823l4.93 3.953c-0.054,-0.34 -0.106,-0.68 -0.16,-1.02zm-0.851 -5.399l-3.604 -2.884c-0.006,0.295 -0.012,0.586 -0.019,0.874l3.782 3.028c-0.054,-0.34 -0.106,-0.68 -0.159,-1.018zm-0.852 -5.395l-2.76 -2.205c0.006,0.306 0.012,0.608 0.017,0.904l2.904 2.321c-0.053,-0.34 -0.107,-0.68 -0.161,-1.02zm-0.849 -5.384l-2.124 -1.695c0.02,0.315 0.039,0.627 0.056,0.935l2.23 1.778c-0.054,-0.34 -0.108,-0.678 -0.162,-1.018l0 0zm-2.457 -5.769l1.77 1.411c-0.054,-0.34 -0.106,-0.678 -0.16,-1.018l-1.708 -1.361c0.033,0.326 0.067,0.647 0.098,0.968zm37.618 29.96c0.19,1.437 0.38,2.875 0.57,4.311l7.057 5.629c0.007,-0.372 0.007,-0.731 0.001,-1.075 -0.01,-0.519 -0.034,-1.023 -0.388,-3.1l-6.366 -5.069 -0.133 -0.995 -10.797 -8.6c0.054,0.351 0.107,0.691 0.163,1.02l9.893 7.879zm-38.239 -35.148l1.545 1.228c-0.054,-0.338 -0.107,-0.676 -0.161,-1.015l-1.528 -1.216c0.05,0.337 0.098,0.671 0.144,1.003zm38.272 29.543l5.987 4.759c-0.142,-0.744 -0.298,-1.549 -0.466,-2.423 -0.146,-0.759 -0.283,-1.467 -0.414,-2.133l-5.683 -4.511 -0.132 -0.991 -10.468 -8.31c0.017,0.312 0.035,0.624 0.057,0.932l9.687 7.689c0.189,1.433 0.377,2.865 0.567,4.299l-9.882 -7.858c0.034,0.326 0.071,0.652 0.109,0.975l10.77 8.565 -0.132 -0.993zm-37.573 -33.676c-0.054,-0.338 -0.106,-0.678 -0.16,-1.016l-1.604 -1.273c0.065,0.35 0.131,0.697 0.194,1.042l1.57 1.247zm36.158 23.084l5.212 4.131c-0.412,-2.106 -0.63,-3.284 -0.796,-4.476l-5.83 -4.613c0.189,1.427 0.378,2.857 0.567,4.286l-8.976 -7.113c-0.009,0.293 -0.014,0.584 -0.017,0.871l9.973 7.905 -0.133 -0.991zm-0.705 -5.284l-8.79 -6.956c-0.032,0.274 -0.061,0.546 -0.089,0.816l9.011 7.13 -0.132 -0.99zm-0.705 -5.279l-7.425 -5.866c-0.052,0.254 -0.1,0.511 -0.148,0.77l7.705 6.087 -0.132 -0.991zm-0.704 -5.27l-5.781 -4.561c-0.067,0.241 -0.132,0.485 -0.197,0.731l6.11 4.819 -0.132 -0.989zm19.168 16.007c-0.1,-0.366 -0.198,-0.738 -0.291,-1.115l-0.002 -0.002 -6.748 -5.323c-0.014,0.294 -0.024,0.581 -0.031,0.86l7.072 5.58zm20.082 14.958l-13.961 -11.016c0.052,0.337 0.102,0.672 0.153,1.008l13.868 10.939c-0.02,-0.31 -0.039,-0.622 -0.06,-0.931zm-52.563 -46.161l-2.697 -2.125c0.025,0.314 0.05,0.63 0.074,0.945l2.766 2.176c-0.048,-0.332 -0.095,-0.664 -0.143,-0.996zm12.61 9.931l-3.885 -3.058c-0.081,0.227 -0.163,0.46 -0.242,0.693l4.259 3.356 -0.132 -0.991zm18.555 14.617l-5.348 -4.213c-0.035,0.274 -0.066,0.545 -0.096,0.81l5.574 4.391c-0.045,-0.326 -0.089,-0.655 -0.13,-0.988zm21.078 16.602l-14.465 -11.394c0.051,0.335 0.101,0.671 0.153,1.006l14.371 11.32c-0.02,-0.31 -0.039,-0.622 -0.059,-0.932zm-52.995 -46.432l-2.341 -1.842c0.024,0.315 0.049,0.63 0.074,0.944l2.409 1.894c-0.048,-0.332 -0.096,-0.664 -0.142,-0.996zm12.66 9.957l-1.76 -1.385c-0.096,0.216 -0.19,0.437 -0.286,0.66l2.178 1.714 -0.132 -0.989zm18.964 14.915l-4.363 -3.432c-0.054,0.258 -0.104,0.514 -0.153,0.766l4.526 3.557c-0.009,-0.296 -0.011,-0.593 -0.01,-0.891zm-32.238 -29.177c-0.694,-0.677 -1.389,-1.355 -2.084,-2.032 0.012,0.148 0.025,0.298 0.036,0.445l2.051 1.612 -0.003 -0.025zm32.511 24.669l-3.667 -2.88c-0.069,0.243 -0.136,0.486 -0.202,0.726l3.779 2.966c0.028,-0.269 0.057,-0.54 0.09,-0.812zm-2.694 -5.945l3.263 2.558c0.053,-0.249 0.109,-0.499 0.17,-0.751l-3.185 -2.498c-0.085,0.228 -0.167,0.459 -0.248,0.691zm4.565 -2.02l-2.867 -2.245c-0.097,0.216 -0.193,0.435 -0.287,0.657l2.916 2.283c0.077,-0.233 0.155,-0.466 0.238,-0.695zm45.3 26.831l7.422 5.795c0.003,-0.292 0.007,-0.583 0.009,-0.875l-7.1 -5.544c-0.111,0.209 -0.221,0.417 -0.331,0.624zm7.482 0.199l-5.37 -4.187c-0.111,0.209 -0.22,0.416 -0.33,0.623l5.692 4.437c0.003,-0.291 0.006,-0.583 0.008,-0.873zm-30.856 -28.781l-10.433 -8.122c-0.118,0.208 -0.23,0.415 -0.338,0.617l10.697 8.331c0.025,-0.275 0.051,-0.551 0.074,-0.826zm15.041 11.711l-12.986 -10.112c0.017,0.307 0.033,0.614 0.05,0.921l13.238 10.308c-0.092,-0.37 -0.193,-0.742 -0.302,-1.117zm-23.863 -22.408l9.14 7.106c0.024,-0.275 0.047,-0.551 0.071,-0.825l-8.808 -6.848c-0.138,0.19 -0.274,0.38 -0.403,0.567zm10.606 7.366c0.017,0.306 0.034,0.613 0.051,0.92l11.189 8.698c-0.224,-0.491 -0.453,-0.962 -0.686,-1.413l-10.554 -8.205zm-5.643 -12.924l3.708 2.875c0.177,1.415 0.355,2.829 0.533,4.244l0.477 0.37 1.166 -2.927 -0.929 -0.72c0.025,-0.275 0.048,-0.55 0.071,-0.824l-4.488 -3.48c-0.179,0.15 -0.358,0.303 -0.538,0.462zm5.343 -0.565c0.025,-0.275 0.049,-0.548 0.073,-0.822l-1.774 -1.375c-0.201,0.13 -0.404,0.265 -0.611,0.406l2.312 1.791zm36.304 27.232l-11.22 -8.689c0.067,0.345 0.133,0.688 0.2,1.033l8.187 6.339c0.945,0.439 1.888,0.876 2.833,1.317zm-0.998 -18.832c-0.693,-0.826 -1.385,-1.651 -2.078,-2.477l-12.441 -9.582c0.068,0.343 0.134,0.686 0.199,1.029l14.32 11.03 0 0zm-11.16 -13.308c-0.69,-0.823 -1.381,-1.646 -2.072,-2.47l-2.358 -1.813 0.2 1.029 -2.116 -1.628 0 0 -7.325 -5.633c0.211,1.436 0.422,2.872 0.632,4.308l7.348 5.66 0 -0.001 0.164 0.126c0.589,-0.823 1.178,-1.646 1.767,-2.469l3.76 2.891 0 0zm-59.566 19.661l-1.604 -1.259c-0.232,1.068 -0.476,2.148 -0.735,3.244l1.721 1.35c0.177,-1.078 0.384,-2.191 0.618,-3.335l0 0zm-0.743 4.123l-1.773 -1.393c-0.253,1.052 -0.519,2.117 -0.798,3.194l2.104 1.656c0.127,-1.104 0.282,-2.259 0.467,-3.457l0 0zm1.618 -7.952c-0.558,-0.446 -1.116,-0.891 -1.673,-1.339 -0.202,1.035 -0.417,2.088 -0.644,3.153l1.603 1.257c0.215,-1.003 0.45,-2.024 0.714,-3.071zm-5.203 46.761l7.191 5.728c-0.199,-1.123 -0.471,-2.589 -0.84,-4.53l-6.921 -5.503c0.19,1.435 0.38,2.871 0.57,4.305zm7.18 16.127l-5.646 -4.51c0.191,1.441 0.381,2.884 0.573,4.327l-8.718 -6.977c0.033,0.313 0.064,0.634 0.093,0.965l9.656 7.728 -0.134 -0.997 3.352 2.681c0.35,-1.127 0.619,-2.2 0.824,-3.217zm0.546 -4.325l-6.011 -4.798 -0.133 -0.994 -10.402 -8.298c0.09,0.376 0.18,0.744 0.27,1.104l9.382 7.485c0.191,1.441 0.38,2.88 0.57,4.319l-8.827 -7.054c0.068,0.34 0.137,0.689 0.201,1.052l9.649 7.709 -0.133 -0.994 5.033 4.021c0.224,-1.286 0.347,-2.474 0.401,-3.552zm-5.067 -41.485c0.007,-0.136 0.014,-0.277 0.022,-0.414l-2.926 -2.304c-0.3,1.052 -0.607,2.085 -0.918,3.102l3.728 2.941c0.01,-1.049 0.039,-2.163 0.094,-3.325zm-0.098 4.208l-3.945 -3.112c-0.322,1.039 -0.649,2.058 -0.98,3.059l5.014 3.959c-0.053,-1.142 -0.088,-2.458 -0.089,-3.906zm-5.649 2.108c0.097,0.74 0.195,1.477 0.292,2.216l5.838 4.619c-0.022,-0.193 -0.043,-0.391 -0.066,-0.601 -0.061,-0.586 -0.183,-1.81 -0.28,-3.513l-5.29 -4.18c-0.165,0.491 -0.328,0.978 -0.494,1.459zm6.117 -11.17l-2.207 -1.735c-0.013,0.053 -0.027,0.105 -0.041,0.158 -0.268,1.013 -0.542,2.008 -0.82,2.99l2.768 2.179c0.071,-1.124 0.167,-2.322 0.3,-3.592zm-4.996 19.654c0.189,1.432 0.379,2.863 0.568,4.292l6.465 5.135c-0.367,-1.872 -0.659,-3.353 -0.898,-4.564l-6.135 -4.863zm51.27 -64.505l7.414 5.696 0 0 5.996 4.606c0.589,-0.823 1.179,-1.647 1.768,-2.47l-20.217 -15.512 0.238 1.787c1.497,1.263 2.995,2.526 4.491,3.789 0.104,0.702 0.206,1.403 0.31,2.104zm8.942 25.704c-0.006,-1.284 -0.012,-2.566 -0.016,-3.85l-6.449 -4.973c0.211,1.44 0.422,2.881 0.633,4.319l5.832 4.504zm-0.038 -8.577l-7.206 -5.549c0.211,1.437 0.422,2.875 0.633,4.312l6.59 5.084c-0.006,-1.283 -0.011,-2.565 -0.017,-3.847zm-114.458 53.943l-0.49 -3.174 0.115 0.092c0.031,-0.078 0.06,-0.154 0.091,-0.232 -0.037,-0.225 -0.072,-0.45 -0.109,-0.676l-0.254 -0.205 -0.672 -4.346 0.22 0.177c-0.056,-0.342 -0.111,-0.685 -0.167,-1.026l-0.21 -0.169 -0.67 -4.34 0.176 0.141c-0.055,-0.342 -0.111,-0.684 -0.165,-1.026l-0.168 -0.135 -0.669 -4.333 0.132 0.107c-0.055,-0.341 -0.111,-0.682 -0.166,-1.024l-0.123 -0.1 -0.669 -4.327 0.091 0.073c-0.056,-0.34 -0.112,-0.681 -0.166,-1.021l-0.081 -0.065 -0.667 -4.321 0.046 0.037c-0.054,-0.342 -0.11,-0.681 -0.164,-1.023l-0.039 -0.031 -0.666 -4.309c0.001,0 0.002,0 0.003,-0.001 0.051,-0.032 -0.014,-0.255 -0.041,-0.257l-0.002 0.001 -0.039 -0.258c-0.005,0.001 -0.01,0.066 -0.047,0.188 -0.035,0.112 -0.056,0.139 -0.046,0.187 0.009,0.039 0.035,0.074 0.065,0.1 -0.103,0.489 -0.281,1.764 -0.463,3.363l-0.386 -0.308c-0.062,0.247 -0.123,0.494 -0.184,0.742l0.48 0.384c-0.12,1.111 -0.236,2.327 -0.33,3.52l-0.933 -0.747c-0.063,0.247 -0.125,0.494 -0.184,0.742l1.055 0.845c-0.063,0.909 -0.11,1.785 -0.131,2.568 -0.01,0.368 -0.014,0.736 -0.014,1.102l-1.695 -1.358c-0.061,0.247 -0.124,0.496 -0.184,0.744l1.889 1.515c0.029,1.358 0.123,2.698 0.269,4.006l-2.941 -2.362c-0.064,0.247 -0.125,0.495 -0.186,0.744l3.247 2.608c0.203,1.535 0.473,3.018 0.789,4.429l-4.82 -3.878c-0.061,0.247 -0.123,0.495 -0.184,0.744l5.263 4.234c0.453,1.835 0.975,3.526 1.513,5.019l-7.562 -6.093c-0.061,0.249 -0.122,0.496 -0.184,0.744l8.23 6.633c1.351,3.41 2.697,5.484 3.197,5.356l0 0z"/>
   </g>
  </g>
  <path fill="none" d="M91.234 163.341c0.06,-0.29 0.117,-0.718 0.209,-2.252 0.091,-1.534 0.216,-4.174 0.518,-9.369 0.303,-5.195 0.782,-12.944 1.164,-18.604 0.382,-5.659 0.667,-9.229 1.038,-13.175 0.37,-3.946 0.826,-8.268 1.397,-12.773 0.57,-4.505 1.254,-9.192 2.132,-14.518 0.879,-5.326 1.95,-11.291 2.766,-15.197 0.815,-3.906 1.374,-5.753 1.733,-6.921 0.358,-1.167 0.516,-1.655 0.64,-1.921 0.123,-0.267 0.212,-0.313 0.296,-0.305 0.084,0.008 0.164,0.069 0.266,0.183 0.103,0.113 0.228,0.278 0.391,0.627 0.163,0.349 0.362,0.88 0.684,1.602 0.321,0.721 0.764,1.632 1.146,2.525 0.381,0.893 0.7,1.768 0.836,2.443 0.135,0.674 0.087,1.147 0.127,1.679 0.04,0.532 0.168,1.122 0.504,1.619 0.337,0.498 0.881,0.903 1.195,1.44 0.314,0.538 0.396,1.208 0.602,2.158 0.205,0.951 0.533,2.183 0.646,3.113 0.112,0.929 0.009,1.556 -0.098,2.148 -0.106,0.591 -0.218,1.148 -0.101,1.705 0.117,0.557 0.462,1.116 0.865,1.635 0.404,0.519 0.866,0.998 1.149,1.313 0.284,0.315 0.39,0.466 0.491,0.609 0.101,0.142 0.198,0.276 0.351,0.879 0.152,0.603 0.36,1.675 0.439,2.419 0.078,0.745 0.027,1.161 -0.003,1.576 -0.03,0.415 -0.039,0.828 -0.073,1.354 -0.034,0.526 -0.094,1.165 -0.085,1.751 0.008,0.586 0.085,1.119 0.46,1.91 0.375,0.791 1.048,1.84 1.685,2.689 0.637,0.848 1.239,1.495 1.643,1.902 0.404,0.407 0.611,0.574 0.797,0.87 0.186,0.296 0.351,0.72 0.488,1.263 0.137,0.544 0.246,1.205 0.304,1.972 0.058,0.767 0.067,1.64 0.054,2.608 -0.013,0.968 -0.047,2.031 0.15,2.999 0.197,0.968 0.624,1.84 1.101,2.577 0.476,0.738 1,1.339 1.389,1.826 0.39,0.488 0.644,0.862 0.856,1.23 0.213,0.367 0.384,0.729 0.555,1.154 0.171,0.425 0.342,0.913 0.472,1.479 0.13,0.566 0.218,1.21 0.339,1.795 0.121,0.584 0.275,1.108 0.375,1.699 0.1,0.59 0.145,1.246 0.32,2.204 0.174,0.958 0.476,2.218 0.678,3.273 0.203,1.055 0.305,1.904 0.416,2.657 0.112,0.753 0.231,1.409 0.325,2.284 0.094,0.875 0.163,1.97 0.294,2.774 0.131,0.804 0.325,1.317 0.465,2.09 0.14,0.772 0.225,1.805 0.299,2.412 0.074,0.607 0.137,0.79 0.288,0.952 0.104,0.112 0.251,0.215 0.437,0.32 -0.079,-0.368 -0.154,-0.732 -0.127,-0.999 0.028,-0.278 0.168,-0.45 0.332,-0.556 0.164,-0.105 0.352,-0.145 0.75,-0.063 0.398,0.082 1.007,0.284 1.729,0.399 0.723,0.115 1.56,0.144 2.868,0.151 1.309,0.007 3.089,-0.007 5.568,-0.327 2.479,-0.319 5.657,-0.943 8.788,-1.599 3.132,-0.656 6.217,-1.344 9.657,-2.107 3.44,-0.762 7.234,-1.599 10.248,-2.124 3.014,-0.525 5.249,-0.737 8.16,-0.854 2.912,-0.118 6.502,-0.139 10.137,0.024 3.635,0.163 7.316,0.511 9.976,0.862 2.66,0.351 4.298,0.706 5.688,1.227 1.391,0.522 2.533,1.21 3.226,1.734 0.693,0.524 0.938,0.884 1.054,1.193 0.116,0.309 0.104,0.568 -0.007,0.887 -0.11,0.319 -0.318,0.698 -0.526,1.077 0.192,-0.063 0.354,-0.202 0.566,-0.399 0.232,-0.218 0.523,-0.509 0.64,-0.957 0.116,-0.447 0.059,-1.052 0.065,-2.577 0.006,-1.525 0.074,-3.972 0.052,-6.694 -0.023,-2.724 -0.137,-5.723 -0.194,-7.553 -0.057,-1.831 -0.057,-2.492 -0.057,-3.427 0,-0.936 0,-2.144 -0.029,-3.276 -0.028,-1.132 -0.085,-2.187 -0.111,-3.279 -0.025,-1.092 -0.02,-2.221 -0.091,-4.009 -0.072,-1.787 -0.22,-4.234 -0.3,-6.212 -0.079,-1.979 -0.091,-3.49 -0.231,-7.51 -0.139,-4.02 -0.407,-10.55 -0.929,-16.996 -0.522,-6.446 -1.297,-12.81 -2.278,-18.854 -0.981,-6.045 -2.167,-11.77 -3.341,-17.21 -1.175,-5.44 -2.338,-10.594 -3.867,-15.864 -1.528,-5.268 -3.421,-10.651 -5.246,-15.498 -1.824,-4.847 -3.581,-9.158 -4.618,-11.657 -1.038,-2.499 -1.357,-3.186 -1.494,-3.631 -0.137,-0.445 -0.092,-0.647 0.009,-0.803 0.102,-0.155 0.258,-0.263 0.386,-0.349 0.014,-0.01 0.028,-0.019 0.041,-0.029 -0.042,-0.002 -0.088,-0.005 -0.144,-0.008 -0.105,-0.005 -0.243,-0.013 -0.693,-0.048 -0.449,-0.035 -1.21,-0.098 -2.217,-0.107 -1.008,-0.008 -2.262,0.038 -3.577,0.132 -1.316,0.095 -2.692,0.24 -4.839,0.609 -2.148,0.368 -5.068,0.962 -7.478,1.498 -2.41,0.535 -4.311,1.014 -6.805,1.509 -2.494,0.494 -5.581,1.003 -8.679,1.418 -3.098,0.414 -6.208,0.733 -9.971,1.076 -3.764,0.341 -8.181,0.707 -11.872,0.965 -3.692,0.259 -6.657,0.41 -9.367,0.559 -2.711,0.148 -5.167,0.292 -7.957,0.403 -2.79,0.11 -5.915,0.186 -9.017,0.251 -3.102,0.064 -6.181,0.117 -9.116,0.11 -2.935,-0.008 -5.725,-0.076 -8.341,-0.137 -2.615,-0.061 -5.056,-0.114 -7.698,-0.194 -2.642,-0.08 -5.486,-0.186 -8.975,-0.285 -3.49,-0.099 -7.626,-0.19 -12.01,-0.217 -4.383,-0.026 -9.013,0.012 -12.845,0.008 -3.832,-0.004 -6.865,-0.049 -10.876,-0.205 -4.011,-0.156 -8.998,-0.422 -12.585,-0.69 -3.587,-0.268 -5.773,-0.538 -7.362,-0.856 -1.59,-0.318 -2.583,-0.683 -3.577,-1.049 0.044,0.064 0.021,0.188 -0.027,0.625 -0.062,0.551 -0.164,1.597 -0.449,3.521 -0.286,1.925 -0.753,4.728 -1.058,6.779 -0.305,2.052 -0.448,3.352 -0.79,5.493 -0.342,2.141 -0.884,5.124 -1.32,7.752 -0.436,2.629 -0.767,4.904 -1.029,6.823 -0.263,1.919 -0.457,3.481 -0.636,5.294 -0.18,1.814 -0.345,3.878 -0.525,6.376 -0.18,2.497 -0.373,5.428 -0.567,8.701 -0.194,3.273 -0.388,6.888 -0.53,10.743 -0.143,3.855 -0.234,7.949 -0.206,12.14 0.029,4.192 0.177,8.48 0.468,12.648 0.291,4.169 0.724,8.217 1.009,11.855 0.285,3.638 0.422,6.865 0.485,10.435 0.063,3.57 0.051,7.481 0.091,11.969 0.04,4.488 0.131,9.552 0.223,13.777 0.091,4.225 0.182,7.612 0.266,9.945 0.084,2.332 0.162,3.609 0.193,4.373 0.031,0.764 0.017,1.015 0.027,2.23 0.01,1.214 0.044,3.393 0.078,4.946 0.035,1.554 0.069,2.484 0.137,3.037 0.068,0.553 0.171,0.73 0.482,1.055 0.311,0.325 0.83,0.798 2.632,1.177 1.802,0.38 4.886,0.665 7.829,0.918 2.942,0.254 5.742,0.476 10.492,0.73 4.75,0.254 11.451,0.539 16.4,0.753 4.95,0.214 8.149,0.356 10.954,0.382 2.806,0.026 5.218,-0.066 7.656,-0.143 2.438,-0.077 4.901,-0.139 7.25,-0.216 2.35,-0.077 4.585,-0.168 7.735,-0.565 3.151,-0.396 7.217,-1.098 9.757,-1.616 2.54,-0.519 3.556,-0.856 4.448,-1.309 0.892,-0.453 1.662,-1.024 2.078,-1.386 0.417,-0.362 0.479,-0.516 0.539,-0.807z"/>
 </g>
</svg>
