<?xml version="1.0" encoding="UTF-8"?>
<!DOCTYPE svg PUBLIC "-//W3C//DTD SVG 1.1//EN" "http://www.w3.org/Graphics/SVG/1.1/DTD/svg11.dtd">
<!-- Creator: CorelDRAW -->
<svg xmlns="http://www.w3.org/2000/svg" xml:space="preserve" width="181px" height="149px" version="1.1" shape-rendering="geometricPrecision" text-rendering="geometricPrecision" image-rendering="optimizeQuality" fill-rule="evenodd" clip-rule="evenodd"
viewBox="0 0 205.498 169.387"
 xmlns:xlink="http://www.w3.org/1999/xlink"
 xmlns:xodm="http://www.corel.com/coreldraw/odm/2003">
 <defs>
   <clipPath id="id0">
    <path d="M91.234 163.341c0.06,-0.29 0.117,-0.718 0.209,-2.252 0.091,-1.534 0.216,-4.174 0.518,-9.369 0.303,-5.195 0.782,-12.944 1.164,-18.604 0.382,-5.659 0.667,-9.229 1.038,-13.175 0.37,-3.946 0.826,-8.268 1.397,-12.773 0.57,-4.505 1.254,-9.192 2.132,-14.518 0.879,-5.326 1.95,-11.291 2.766,-15.197 0.815,-3.906 1.374,-5.753 1.733,-6.921 0.358,-1.167 0.516,-1.655 0.64,-1.921 0.123,-0.267 0.212,-0.313 0.296,-0.305 0.084,0.008 0.164,0.069 0.266,0.183 0.103,0.113 0.228,0.278 0.391,0.627 0.163,0.349 0.362,0.88 0.684,1.602 0.321,0.721 0.764,1.632 1.146,2.525 0.381,0.893 0.7,1.768 0.836,2.443 0.135,0.674 0.087,1.147 0.127,1.679 0.04,0.532 0.168,1.122 0.504,1.619 0.337,0.498 0.881,0.903 1.195,1.44 0.314,0.538 0.396,1.208 0.602,2.158 0.205,0.951 0.533,2.183 0.646,3.113 0.112,0.929 0.009,1.556 -0.098,2.148 -0.106,0.591 -0.218,1.148 -0.101,1.705 0.117,0.557 0.462,1.116 0.865,1.635 0.404,0.519 0.866,0.998 1.149,1.313 0.284,0.315 0.39,0.466 0.491,0.609 0.101,0.142 0.198,0.276 0.351,0.879 0.152,0.603 0.36,1.675 0.439,2.419 0.078,0.745 0.027,1.161 -0.003,1.576 -0.03,0.415 -0.039,0.828 -0.073,1.354 -0.034,0.526 -0.094,1.165 -0.085,1.751 0.008,0.586 0.085,1.119 0.46,1.91 0.375,0.791 1.048,1.84 1.685,2.689 0.637,0.848 1.239,1.495 1.643,1.902 0.404,0.407 0.611,0.574 0.797,0.87 0.186,0.296 0.351,0.72 0.488,1.263 0.137,0.544 0.246,1.205 0.304,1.972 0.058,0.767 0.067,1.64 0.054,2.608 -0.013,0.968 -0.047,2.031 0.15,2.999 0.197,0.968 0.624,1.84 1.101,2.577 0.476,0.738 1,1.339 1.389,1.826 0.39,0.488 0.644,0.862 0.856,1.23 0.213,0.367 0.384,0.729 0.555,1.154 0.171,0.425 0.342,0.913 0.472,1.479 0.13,0.566 0.218,1.21 0.339,1.795 0.121,0.584 0.275,1.108 0.375,1.699 0.1,0.59 0.145,1.246 0.32,2.204 0.174,0.958 0.476,2.218 0.678,3.273 0.203,1.055 0.305,1.904 0.416,2.657 0.112,0.753 0.231,1.409 0.325,2.284 0.094,0.875 0.163,1.97 0.294,2.774 0.131,0.804 0.325,1.317 0.465,2.09 0.14,0.772 0.225,1.805 0.299,2.412 0.074,0.607 0.137,0.79 0.288,0.952 0.104,0.112 0.251,0.215 0.437,0.32 -0.079,-0.368 -0.154,-0.732 -0.127,-0.999 0.028,-0.278 0.168,-0.45 0.332,-0.556 0.164,-0.105 0.352,-0.145 0.75,-0.063 0.398,0.082 1.007,0.284 1.729,0.399 0.723,0.115 1.56,0.144 2.868,0.151 1.309,0.007 3.089,-0.007 5.568,-0.327 2.479,-0.319 5.657,-0.943 8.788,-1.599 3.132,-0.656 6.217,-1.344 9.657,-2.107 3.44,-0.762 7.234,-1.599 10.248,-2.124 3.014,-0.525 5.249,-0.737 8.16,-0.854 2.912,-0.118 6.502,-0.139 10.137,0.024 3.635,0.163 7.316,0.511 9.976,0.862 2.66,0.351 4.298,0.706 5.688,1.227 1.391,0.522 2.533,1.21 3.226,1.734 0.693,0.524 0.938,0.884 1.054,1.193 0.116,0.309 0.104,0.568 -0.007,0.887 -0.11,0.319 -0.318,0.698 -0.526,1.077 0.192,-0.063 0.354,-0.202 0.566,-0.399 0.232,-0.218 0.523,-0.509 0.64,-0.957 0.116,-0.447 0.059,-1.052 0.065,-2.577 0.006,-1.525 0.074,-3.972 0.052,-6.694 -0.023,-2.724 -0.137,-5.723 -0.194,-7.553 -0.057,-1.831 -0.057,-2.492 -0.057,-3.427 0,-0.936 0,-2.144 -0.029,-3.276 -0.028,-1.132 -0.085,-2.187 -0.111,-3.279 -0.025,-1.092 -0.02,-2.221 -0.091,-4.009 -0.072,-1.787 -0.22,-4.234 -0.3,-6.212 -0.079,-1.979 -0.091,-3.49 -0.231,-7.51 -0.139,-4.02 -0.407,-10.55 -0.929,-16.996 -0.522,-6.446 -1.297,-12.81 -2.278,-18.854 -0.981,-6.045 -2.167,-11.77 -3.341,-17.21 -1.175,-5.44 -2.338,-10.594 -3.867,-15.864 -1.528,-5.268 -3.421,-10.651 -5.246,-15.498 -1.824,-4.847 -3.581,-9.158 -4.618,-11.657 -1.038,-2.499 -1.357,-3.186 -1.494,-3.631 -0.137,-0.445 -0.092,-0.647 0.009,-0.803 0.102,-0.155 0.258,-0.263 0.386,-0.349 0.014,-0.01 0.028,-0.019 0.041,-0.029 -0.042,-0.002 -0.088,-0.005 -0.144,-0.008 -0.105,-0.005 -0.243,-0.013 -0.693,-0.048 -0.449,-0.035 -1.21,-0.098 -2.217,-0.107 -1.008,-0.008 -2.262,0.038 -3.577,0.132 -1.316,0.095 -2.692,0.24 -4.839,0.609 -2.148,0.368 -5.068,0.962 -7.478,1.498 -2.41,0.535 -4.311,1.014 -6.805,1.509 -2.494,0.494 -5.581,1.003 -8.679,1.418 -3.098,0.414 -6.208,0.733 -9.971,1.076 -3.764,0.341 -8.181,0.707 -11.872,0.965 -3.692,0.259 -6.657,0.41 -9.367,0.559 -2.711,0.148 -5.167,0.292 -7.957,0.403 -2.79,0.11 -5.915,0.186 -9.017,0.251 -3.102,0.064 -6.181,0.117 -9.116,0.11 -2.935,-0.008 -5.725,-0.076 -8.341,-0.137 -2.615,-0.061 -5.056,-0.114 -7.698,-0.194 -2.642,-0.08 -5.486,-0.186 -8.975,-0.285 -3.49,-0.099 -7.626,-0.19 -12.01,-0.217 -4.383,-0.026 -9.013,0.012 -12.845,0.008 -3.832,-0.004 -6.865,-0.049 -10.876,-0.205 -4.011,-0.156 -8.998,-0.422 -12.585,-0.69 -3.587,-0.268 -5.773,-0.538 -7.362,-0.856 -1.59,-0.318 -2.583,-0.683 -3.577,-1.049 0.044,0.064 0.021,0.188 -0.027,0.625 -0.062,0.551 -0.164,1.597 -0.449,3.521 -0.286,1.925 -0.753,4.728 -1.058,6.779 -0.305,2.052 -0.448,3.352 -0.79,5.493 -0.342,2.141 -0.884,5.124 -1.32,7.752 -0.436,2.629 -0.767,4.904 -1.029,6.823 -0.263,1.919 -0.457,3.481 -0.636,5.294 -0.18,1.814 -0.345,3.878 -0.525,6.376 -0.18,2.497 -0.373,5.428 -0.567,8.701 -0.194,3.273 -0.388,6.888 -0.53,10.743 -0.143,3.855 -0.234,7.949 -0.206,12.14 0.029,4.192 0.177,8.48 0.468,12.648 0.291,4.169 0.724,8.217 1.009,11.855 0.285,3.638 0.422,6.865 0.485,10.435 0.063,3.57 0.051,7.481 0.091,11.969 0.04,4.488 0.131,9.552 0.223,13.777 0.091,4.225 0.182,7.612 0.266,9.945 0.084,2.332 0.162,3.609 0.193,4.373 0.031,0.764 0.017,1.015 0.027,2.23 0.01,1.214 0.044,3.393 0.078,4.946 0.035,1.554 0.069,2.484 0.137,3.037 0.068,0.553 0.171,0.73 0.482,1.055 0.311,0.325 0.83,0.798 2.632,1.177 1.802,0.38 4.886,0.665 7.829,0.918 2.942,0.254 5.742,0.476 10.492,0.73 4.75,0.254 11.451,0.539 16.4,0.753 4.95,0.214 8.149,0.356 10.954,0.382 2.806,0.026 5.218,-0.066 7.656,-0.143 2.438,-0.077 4.901,-0.139 7.25,-0.216 2.35,-0.077 4.585,-0.168 7.735,-0.565 3.151,-0.396 7.217,-1.098 9.757,-1.616 2.54,-0.519 3.556,-0.856 4.448,-1.309 0.892,-0.453 1.662,-1.024 2.078,-1.386 0.417,-0.362 0.479,-0.516 0.539,-0.807z"/>
   </clipPath>
 </defs>
 <g id="VETORES">
  <metadata id="CorelCorpID_0Corel-Layer"/>
  <g>
  </g>
  <g clip-path="url(#id0)">
   <g id="_1760184966976">
    <path fill="#7C0000" fill-rule="nonzero" d="M125.922 127.084c1.316,-1.577 2.632,-3.052 3.665,-4.823 0.865,-1.533 2.279,-2.574 3.698,-3.574 0.454,-0.318 0.874,-0.772 1.351,-1.067l5.628 -2.859 4.799 -3.37c0.385,-0.316 2.716,-1.195 4.845,-2.962 0.453,-0.386 0.68,-0.874 1.123,-1.192 1.051,-0.766 4.156,-3.963 5.593,-4.834 0.102,-0.068 0.125,-0.318 0.102,-0.579 2.152,-2.152 1.733,-1.597 4.153,-3.313 2.315,-1.646 3.983,-4.017 6.047,-5.946 1.804,-1.702 4.119,-3.472 5.117,-5.787 0.927,-2.112 3.747,-6.785 3.575,-7.944 1.089,-1.226 2.155,-2.474 3.244,-3.699 3.17,-3.575 2.538,-3.779 6.854,-7.841l2.45 -2.156c0.125,-0.068 0.125,-0.261 0.102,-0.511 2.021,-1.79 2.528,-1.394 4.539,-4.12 1.307,-1.772 2.939,-4.4 3.244,-6.592 0.103,-0.704 0.103,-1.418 0.193,-2.088 0.125,-0.578 0.262,-1.157 0.318,-1.77 0.148,-1.181 0.67,-2.168 1.124,-3.257 -0.591,-2.678 -1.181,-5.3 -1.827,-7.898 -3.357,2.646 -2.602,5.029 -3.461,8.17 -0.42,1.453 -1.089,2.735 -1.282,4.244 -0.184,1.385 -1.312,3.42 -2.19,4.539 -1.052,1.341 -2.06,1.643 -2.564,4.244 -0.159,0.897 -0.488,1.317 -1.123,1.929l-1.646 1.612c-1.151,1.151 -7.658,1.74 -7.658,2.542 -3.784,1.302 -3.816,0.958 -7.908,2.7 -1.158,0.488 -2.383,0.84 -3.574,1.317 -4.657,1.954 -7.655,3.887 -12.617,4.698 -2.651,0.433 -4.239,0.671 -6.501,2.065 -0.653,0.402 -1.603,0.755 -1.486,1.418l-7.693 6.434c-2.005,1.73 -1.843,0.335 -4.311,3.37 -0.931,1.158 -1.963,2.281 -2.826,3.507 -0.896,1.259 -1.644,2.576 -2.575,3.79l-4.822 4.879c-1.102,0.745 -1.135,0.635 -1.066,1.68 0,0 0,0.034 0.034,0.068 -1.379,3.201 -0.678,2.641 -0.681,3.926l-2.293 4.278 0.216 1.952c2.313,-1.418 4.586,-4.388 6.865,-6.389 0.38,-0.334 2.121,-1.494 2.121,-1.929 1.506,-1.361 1.482,-1.647 3.279,-2.825 7.833,-5.134 5.59,-7.076 11.04,-11.654 1.384,-1.158 3.052,-2.281 4.05,-3.79 1.555,-2.221 0.662,-1.562 3.666,-3.733 2.188,-1.583 2.85,-1.201 5.173,-1.964 2.338,-0.767 11.437,-4.182 12.958,-5.299 -0.96,2.778 1.705,3.609 0,7.558 -0.938,2.172 -2.018,2.665 -4.3,4.766l-3.608 2.859c-1.26,0.897 -2.281,2.157 -3.472,3.155 -3.882,3.215 -9.986,8.401 -13.638,11.994 -0.647,0.647 -1.282,1.418 -2.087,1.838 -0.034,-0.068 -0.069,-0.124 -0.069,-0.124 -3.865,4.02 -12.624,10.92 -17.144,13.968 -0.646,0.442 -1.225,0.976 -1.792,1.509 1.269,1.717 1.462,3.195 1.827,5.153l0.522 2.655 2.699 -2.928zm55.936 -113.248c-1.067,1.089 -1.645,2.474 -2.576,3.699 -1.143,1.488 -1.802,4.311 -4.765,7.875 -1.067,1.282 -2.474,2.315 -3.438,3.699 -0.931,1.351 -1.736,2.769 -2.542,4.21 -2.209,4.006 -6.132,8.989 -8.963,12.619 -3.645,4.672 -1.936,4.538 -4.561,8.624 -1.421,2.212 -4.298,5.321 -6.172,7.035 -1.192,1.09 -2.61,2.031 -3.665,3.246 -3.29,3.859 -3.542,3.776 -6.694,8.363 -0.965,1.418 -1.895,2.962 -3.053,4.176 -1.157,1.226 -2.575,2.247 -3.346,3.79 -0.069,0.158 0.703,1.067 0.896,0.965 1.893,-1.045 5.101,-5.429 6.592,-7.331l7.432 -7.274c7.233,-6.501 11.785,-14.037 17.972,-20.947 1.282,-1.453 2.825,-2.826 3.857,-4.471 0.102,-0.159 -0.261,-0.511 -0.544,-0.772l3.959 -4.346c1.794,-2.29 5.611,-6.683 6.911,-9.362 0.805,-1.668 1.929,-3.189 2.802,-4.822 1.748,-3.348 3.676,-6.616 5.423,-9.975 -0.465,-1.214 -0.919,-2.349 -1.35,-3.404l-4.175 4.403zm-79.831 36.017c0.334,-0.674 3.607,-2.051 7.284,-7.784 0.51,-0.806 0.896,-1.645 1.452,-2.417l5.662 -7.694c4.353,-5.654 3.102,-9.001 5.854,-14.06 1.806,-3.32 0.376,-2.203 3.223,-4.789 2.656,-2.412 3.102,-3.392 4.912,-6.207l-6.693 0.465c-1.342,2.138 -5.886,4.282 -6.774,6.491 -0.159,0.42 0.068,0.738 0.068,1.158 -0.068,1.282 -1.384,1.963 -2.189,2.803 -1.553,1.585 -4.678,4.195 -5.56,5.401 -2.575,3.52 -6.812,4.541 -8.623,6.911 -0.636,0.828 -1.351,1.588 -2.122,2.292 0.363,2.44 0.885,5.345 1.43,8.318l2.201 -0.999 -2.088 1.668 1.089 5.969c3.068,-2.269 2.12,-2.321 4.006,-4.04 0.42,-0.386 0.737,-0.84 1.282,-0.965 -0.239,1.126 0.015,0.672 -0.805,1.578 -0.647,0.703 -1.067,1.543 -1.77,2.246l-2.485 2.497c0.091,0.533 0.193,1.044 0.283,1.555 0.148,-0.103 0.261,-0.25 0.363,-0.42l0 0.023zm6.502 14.899c0.944,-1.971 1.926,-1.88 2.949,-4.8 0.861,-2.455 0.129,-1.139 1.771,-3.824 0.646,-1.032 1.123,-2.031 1.542,-3.154 0.42,-1.158 1.192,-1.929 1.771,-2.928l2.995 -6.014c0.159,-0.578 0.159,-1.157 0.318,-1.736 0.158,-0.613 0.545,-1.089 0.805,-1.702 0.159,-0.42 0.125,-0.874 0.296,-1.316l2.518 -4.403c0.545,-1.067 0.42,-2.281 0.613,-3.405 0.193,-1.157 0,-2.247 -0.193,-3.381l-0.068 -0.386c-0.034,-0.102 -0.034,-0.193 -0.034,-0.295 -0.043,0 -1.002,0.832 -0.772,1.067 -0.77,0.771 -1.408,2.133 -1.611,3.188l-2.643 7.262c-0.262,0.545 -0.647,0.999 -0.897,1.51l-4.368 8.647c-1.334,1.943 -2.92,3.44 -4.085,5.696 -1.001,1.94 -3.656,3.646 -5.673,5.368 1.354,4.156 1.932,2.894 0.578,4.698 -0.655,0.872 -0.958,2.196 -1.384,3.54 0,-0.034 0.034,-0.034 0.034,-0.068l0.035 -0.001 0 -0.033c0.711,0 1.145,1.827 1.827,3.188l3.687 -6.718 -0.011 0zm28.138 -53.878c-2.979,5.371 -1.574,11.202 -2.837,14.48 -0.261,0.647 -0.261,1.226 -0.386,1.861 -0.158,0.703 -0.68,1.225 -0.805,1.963 -0.383,2.538 -0.536,2.21 -1.294,4.572l-1.452 7.332c-0.696,3.942 0.85,1.772 -2.19,7.239 -0.662,1.191 0.014,1.132 -0.295,1.929 -0.519,1.341 -1.565,0.757 -1.486,2.928 0.071,1.945 -1.272,2.724 -1.793,4.698 -0.226,0.806 -0.703,1.384 -0.964,2.156 -0.068,0.227 0.806,0.964 0.999,0.874 1.597,-0.785 4.145,-7.477 5.412,-8.659 0.51,-0.51 1.225,-0.703 1.86,-1.066 1.316,-0.738 2.632,-1.929 4.119,-2.281 2.582,-0.584 3.048,-2.305 3.471,-2.701 0.674,-0.631 1.089,0.389 2.417,-1.77 3.715,-6.039 1.519,-3.347 6.173,-8 2.085,-2.084 2.603,-0.799 3.949,-2.371 0.192,-0.227 0.351,-0.454 0.51,-0.681 0.229,-0.226 1.997,-1.225 1.997,-2.315 0,-0.193 -0.873,-0.965 -0.998,-0.84l-1.997 2.247c-0.068,0.068 -0.125,0.102 -0.193,0.125l-3.801 2.474c-1.192,0.896 -2.247,1.929 -3.189,3.052 -1.089,1.066 -1.804,2.508 -2.733,3.699l-4.222 4.346 -3.71 2.02c0.782,-3.248 3.906,-4.506 5.435,-6.91 1.895,-2.963 2.802,-6.525 5.117,-9.26 0.511,-0.613 1.158,-1.158 1.645,-1.804 2.128,-2.916 3.048,-3.8 5.594,-6.503 1.226,-1.282 2.054,-2.825 3.245,-4.153 7.351,-8.25 4.516,-3.003 9.643,-13.515 0.704,-1.43 1.407,-2.848 2.123,-4.244 -6.785,1.431 -9.823,2.317 -17.405,3.348 -2.565,0.352 -5.185,0.624 -8.146,0.896l-3.892 4.823 0.079 0.011zm-24.19 71.217l12.049 -10.293c7.221,-5.444 8.367,-5.088 14.83,-12.255 0.805,-0.896 1.418,-1.929 2.121,-2.894 0.897,-1.157 2.19,-1.963 3.018,-3.211 2.193,-3.206 2.145,-3.373 4.857,-6.65 3.58,-4.326 4.4,-5.31 8.6,-9.168 3.558,-3.27 5.862,-4.863 7.783,-9.555 1.539,-3.758 4.377,-9.433 5.469,-12.993 0.193,-0.647 0.42,-1.259 0.544,-1.929 0.062,-0.149 0.91,-1.572 0.193,-1.214 0.034,-0.295 0.125,-0.545 0.261,-0.84 -0.034,0.034 -0.964,0.295 -1.123,0.647 -0.295,0.647 -0.318,1.282 -0.42,1.963l-1.736 3.223c-0.737,1.351 -1.225,2.826 -1.895,4.21l-5.468 8.431c-2.923,3.664 -7.478,6.78 -10.609,10.53 -2.402,2.877 -3.499,3.055 -6.104,6.627 -2.088,2.862 -0.566,0.114 -2.485,3.892 -1.057,2.08 -0.153,1.477 -1.929,3.96 -0.386,0.545 -0.511,1.192 -0.873,1.736 -0.42,0.682 -1.033,1.158 -1.453,1.839 -2.179,3.493 -5.464,4.041 -7.522,5.594 -0.738,0.545 -1.283,1.316 -2.088,1.838 -0.681,0.386 -1.384,0.647 -1.997,1.067 -0.681,0.453 -1.259,1.032 -1.861,1.543l-6.433 4.664c-3.863,2.791 -5.845,5.103 -9.802,7.897l1.021 4.369 3.052 -3.028zm1.645 10.837l-1.974 0.874 0.182 0.726c0.669,-0.466 1.327,-0.965 1.792,-1.601l0 0.001z"/>
    <path fill="#7C0000" fill-rule="nonzero" d="M90.454 39.016c-6.832,1.795 -3.499,1.807 -7.091,4.766 -0.93,0.771 -1.963,1.452 -2.962,2.156 -1.895,1.282 -3.732,2.734 -5.559,4.119l-6.082 3.892c-2.995,1.697 -7.679,5.535 -9.814,8.26 -1.115,1.424 -2.637,2.186 -4.187,2.962 -0.511,0.261 -0.964,0.647 -1.475,0.874l-6.013 1.997 -5.242 2.633c-0.34,0.205 -2.687,0.76 -5.242,2.224 -0.488,0.295 -0.806,0.771 -1.282,1.033l-6.241 3.959c-0.125,0.034 -0.159,0.262 -0.159,0.545 -0.193,0.125 -0.386,0.295 -0.578,0.454 -1.226,0.964 -2.632,1.509 -4.017,2.224 -2.541,1.283 -4.538,3.382 -6.887,4.982 -2.03,1.452 -4.572,2.825 -5.922,4.981 -1.252,1.991 -4.663,6.132 -4.663,7.33l-5.571 4.834 0.454 8.216c0.544,-0.019 2.793,-0.037 2.927,-0.579 4.108,-0.727 3.822,-0.448 8.192,-1.52 1.259,-0.295 2.507,-0.488 3.732,-0.806 4.934,-1.251 8.304,-2.715 13.184,-2.769 2.459,-0.027 6.201,-0.242 8.26,-1.862 0.102,-0.068 0.125,-0.226 0.125,-0.386l8.554 -5.288c2.086,-1.324 1.764,0.016 4.732,-2.666 1.122,-0.999 2.314,-1.963 3.347,-3.053 1.066,-1.089 1.997,-2.315 3.086,-3.381l5.503 -4.154c1.727,-0.792 1.084,-0.839 1.282,-1.555 0.419,-0.703 0.896,-1.384 1.123,-2.122 0.591,-1.976 -0.696,-0.414 0.998,-3.177 2.415,-3.939 4.601,-3.297 5.548,-4.267 0.159,-0.068 0.295,-0.102 0.454,-0.158 1.509,-0.545 2.7,-1.51 4.05,-2.247l0 0.102c2.494,-1.159 5.093,-1.844 7.783,-2.452 4.222,-0.953 2.742,-0.101 7.84,-2.473l2.315 -1.351c0.563,-0.152 2.065,-0.514 2.065,-1.157l6.309 -1.509c0.672,0.079 0.473,0.586 1.622,0.658l-1.498 -3.938 -6.728 2.088c-1.509,0.454 -2.995,1.09 -4.504,1.453l-0.318 0.488c-0.034,0 -0.034,0.034 -0.034,0.034 -1.895,0.511 -3.823,1.089 -5.82,1.282l-4.437 1.192 -3.835 0.772c-1.163,0.559 -2.091,0.2 -2.337,1.101 -0.125,0.457 -0.259,1.259 0.386,1.191l1.137 -0.701c5.339,0.004 5.276,-1.19 7.726,-1.475l-7.045 3.223 0 -0.068c-1.574,0.812 -2.09,1.657 -4.697,2.576 -5.108,1.8 -4.526,1.185 -9.225,4.947l-4.799 3.314c-2.12,1.319 -0.896,0.929 -3.665,2.315 -9.432,4.722 -6.144,5.883 -12.651,9.906 -1.509,0.931 -3.347,1.804 -4.572,3.121 -1.684,1.856 -0.75,1.465 -4.153,3.188 -2.356,1.193 -3.029,0.787 -5.435,1.191 -2.764,0.464 -11.425,2.322 -13.581,3.314 1.411,-2.954 -1.236,-3.479 1.146,-7.467 1.315,-2.202 2.143,-2.091 4.946,-4.051l3.994 -2.349c1.35,-0.704 2.576,-1.771 3.892,-2.576l15.238 -9.872c0.737,-0.511 1.475,-1.192 2.348,-1.51 0,0.102 0.034,0.125 0.034,0.125 3.166,-2.308 9.427,-6.31 12.901,-8.022l8.884 -4.982c10.492,-6.945 8.424,-3.816 17.677,-7.422 2.507,-0.998 4.765,-2.61 7.171,-3.824 2.833,-1.402 3.035,-0.888 6.944,-3.222 0.374,-0.227 0.76,-0.431 1.134,-0.636l-1.985 -10.928c-3.342,0.342 -5.662,1.081 -8.804,2.009l0.067 -0.056zm-83.075 105.441c2.75,-3.657 7.366,-7.977 10.711,-11.166 4.826,-4.601 2.245,-4.566 7.329,-9.362 0.613,-0.545 1.032,-1.157 1.702,-1.645 1.316,-0.931 2.541,-1.997 3.892,-2.928 1.35,-0.896 2.893,-1.611 4.118,-2.666 3.643,-3.217 4.138,-3.294 7.84,-7.263 1.157,-1.259 2.281,-2.666 3.631,-3.699 1.316,-1.066 2.859,-1.861 3.823,-3.245 0.125,-0.159 -0.51,-1.191 -0.703,-1.123 -2.027,0.758 -5.769,4.596 -7.613,6.309l-8.396 6.082c-7.767,5.141 -13.795,12.164 -20.877,18.077 -1.475,1.26 -3.211,2.383 -4.47,3.892 -0.125,0.125 0.159,0.511 0.42,0.806l-0.034 0.034c-1.645,1.067 -3.087,2.349 -4.505,3.699 -0.624,0.579 -1.27,1.146 -1.906,1.725 0.08,3.177 0.159,5.775 0.239,7.671 1.641,-1.191 4.795,-4.908 4.799,-5.198zm83.325 -13.696l-3.29 2.122c-0.688,0.456 -1.713,1.71 -3.802,2.791l-10.154 6.445c-0.558,0.516 -2.248,2.378 -3.347,2.508 0.197,-0.557 0.403,-1.225 1.033,-1.452 0.737,-0.613 1.282,-1.385 2.087,-1.963l3.471 -2.803c1.788,-0.756 -0.485,-1.033 -0.488,-1.033 -0.404,0.022 -0.338,0.285 -1.032,0.772 -3.637,2.553 -3.169,1.009 -7.977,6.366 -0.613,0.681 -1.089,1.475 -1.77,2.122l-6.728 6.82c-5.208,4.967 -4.423,8.552 -7.851,12.992l-1.895 2.837 7.069 0.023c0.7,-0.89 7.305,-4.969 8.487,-6.162 3.087,-3.115 7.467,-3.522 9.553,-5.56 4.292,-4.19 6.255,-3.353 10.45,-5.402 2.462,-1.191 4.992,-2.144 7.556,-3.007 0.148,-2.462 0.329,-5.231 0.499,-7.999 -2.913,1.663 -3.31,-1.127 -8.044,0.805 -1.415,0.578 -5.225,4.057 -8.714,5.401 -0.578,0.227 -1.225,0.318 -1.838,0.454 2.586,-1.353 1.961,-1.189 3.994,-2.644 0.738,-0.511 1.191,-1.317 1.861,-1.861 1.475,-1.226 3.211,-2.088 4.731,-3.246l8.453 -5.878 0.352 -5.095 -2.69 1.646 0.024 0.001zm-2.507 -25.294c-2.584,1.108 -7.355,4.471 -9.236,6.536l-7.613 10.167c-1.14,1.698 -2.26,1.691 -3.631,4.313 -1.088,2.082 -0.282,1.192 -2.326,3.541 -0.806,0.896 -1.384,1.838 -1.963,2.893 -0.578,1.067 -1.475,1.702 -2.224,2.633 -0.681,0.896 -1.191,1.895 -1.86,2.825 -0.647,0.897 -1.476,1.611 -1.963,2.667 -0.261,0.545 -0.318,1.123 -0.545,1.668 -0.295,0.578 -0.737,0.998 -1.066,1.577l-1.362 2.52c-0.681,0.964 -1.577,1.77 -2.28,2.734 -0.681,0.965 -0.738,2.19 -1.09,3.279 -0.351,1.123 -0.317,2.225 -0.295,3.382 -0.01,0.03 -1.311,1.563 0,0.386l0 0.317c0.159,-0.102 0.897,-0.546 0.897,-0.998 0.892,-0.583 1.751,-1.941 2.087,-2.893l3.665 -6.786 2.315 -3.12 4.379 -6.173c1.518,-1.596 3.52,-3.107 4.879,-5.016 0.93,-1.316 2.155,-1.997 3.54,-2.769 2.224,-1.226 4.243,-2.769 6.592,-3.734 4.425,-1.814 6.628,-3.437 10.574,-5.503 2.265,-1.186 2.35,-0.635 4.697,-2.417l1.645 -14.014 -7.851 1.985 0.035 0zm-49.14 57.066c0.602,-3.159 1.088,-4.144 2.122,-6.888 0.261,-0.681 0.874,-1.123 1.067,-1.838 0.573,-1.985 1.101,-2.51 1.963,-4.335l2.507 -7.013c1.114,-3.133 -0.538,-2.13 3.223,-6.854 0.847,-1.063 0.136,-1.114 0.578,-1.861 0.742,-1.254 1.688,-0.575 1.895,-2.666 0.18,-1.813 1.735,-2.726 2.473,-4.38 0.318,-0.772 0.897,-1.283 1.26,-2.032 0.102,-0.158 -0.647,-1.066 -0.84,-0.998 -1.74,0.598 -5.198,6.792 -6.637,7.796 -0.613,0.42 -1.316,0.511 -1.997,0.771 -1.419,0.511 -2.928,1.544 -4.403,1.646 -2.592,0.196 -3.555,2.004 -3.857,2.19 -0.783,0.479 -1.037,-0.503 -2.633,1.384 -2.381,2.815 -2.447,3.73 -5.571,5.73 -2.031,1.301 -2.039,2.097 -4.572,2.372 -1.094,0.119 -1.788,1.11 -2.031,1.282 -0.874,0.42 -2.122,1.067 -2.281,1.963 0,0.034 -0.034,0.034 -0.034,0.034 -0.034,0.193 0.738,1.089 0.874,0.965l2.315 -1.93 4.311 -1.996c1.316,-0.704 2.508,-1.578 3.597,-2.576 1.26,-0.874 2.156,-2.19 3.279,-3.212l4.8 -3.71 3.926 -1.442c-1.055,2.908 -4.592,4.024 -6.365,6.014 -2.315,2.667 -3.734,6.048 -6.434,8.432 -0.613,0.511 -1.282,0.964 -1.86,1.543 -2.742,2.742 -3.422,3.129 -6.502,5.594 -1.384,1.123 -2.473,2.508 -3.823,3.632 -2.561,2.141 -6.716,4.824 -8.271,7.08 8.038,0.794 16.896,1.156 25.959,1.566 1.058,-2.194 1.51,-3.851 1.963,-6.264l-0.001 0.001zm56.185 -80.022c-1.282,0.771 -2.666,1.418 -3.982,2.19 -1.633,0.95 -1.283,1.225 -3.892,2.065 -1.593,0.513 -1.787,0.869 -4.765,1.736 -2.372,0.692 -6.39,1.263 -8.714,2.667 0,0 -4.937,2.54 -3.891,2.44l2.666 -0.829c8.443,-1.646 14.11,-1.1 21.456,-6.774 0.295,-0.227 3.278,-2.508 3.596,-2.156 0.102,0.125 -1.929,2.247 -2.053,2.349l-10.677 7.591c-0.964,0.681 -1.861,1.419 -2.768,2.156 -1.946,1.551 -2.828,1.387 -6.241,4.221l-6.013 4.301 -13.411 8.397c-7.766,4.185 -9.335,4.059 -16.463,9.975 -0.931,0.772 -1.668,1.668 -2.542,2.542 -1.066,0.999 -2.473,1.645 -3.471,2.735 -2.491,2.654 -2.707,3.158 -5.764,5.889l-6.048 5.175c-2.635,1.683 -8.432,5.574 -10.517,7.659 -1.636,1.636 -6.037,9.058 -7.5,11.382 -1.591,2.529 -1.47,2.081 -1.338,4.698l1.667 -2.224c0.931,-1.26 1.611,-2.667 2.507,-3.892l6.616 -7.523c3.598,-3.317 8.371,-5.597 12.026,-8.84 2.888,-2.562 4.091,-2.648 7.046,-5.696 2.393,-2.468 0.501,0.003 3.03,-3.473 1.166,-1.602 0.634,-1.81 2.473,-3.642 0.488,-0.454 0.681,-1.089 1.123,-1.578 0.511,-0.612 1.191,-0.998 1.702,-1.611 2.663,-3.158 6.297,-3.323 8.237,-4.414 0.84,-0.488 1.476,-1.157 2.383,-1.509 3.25,-1.386 0.561,0.077 4.176,-2.031 3.84,-2.24 7.444,-3.664 11.606,-6.298 2.124,-1.344 5.19,-3.469 7.591,-4.346 2.327,-0.851 0.623,0.333 3.801,-1.544 2.272,-1.341 1.776,-0.699 4.482,-2.667 0.98,-0.713 7.001,-2.858 8.078,-2.78 2.136,0.155 2.846,0.533 5.242,0.216 0.181,-1.214 0.363,-2.451 0.567,-3.722 -4.233,1.059 -4.671,0.26 -7.057,0.681l3.506 -5.47c1.218,-1.595 3.304,-2.647 4.982,-3.722 0.465,-2.632 0.93,-5.185 1.361,-7.364l-4.813 3.04z"/>
   </g>
  </g>
  <path fill="none" d="M91.234 163.341c0.06,-0.29 0.117,-0.718 0.209,-2.252 0.091,-1.534 0.216,-4.174 0.518,-9.369 0.303,-5.195 0.782,-12.944 1.164,-18.604 0.382,-5.659 0.667,-9.229 1.038,-13.175 0.37,-3.946 0.826,-8.268 1.397,-12.773 0.57,-4.505 1.254,-9.192 2.132,-14.518 0.879,-5.326 1.95,-11.291 2.766,-15.197 0.815,-3.906 1.374,-5.753 1.733,-6.921 0.358,-1.167 0.516,-1.655 0.64,-1.921 0.123,-0.267 0.212,-0.313 0.296,-0.305 0.084,0.008 0.164,0.069 0.266,0.183 0.103,0.113 0.228,0.278 0.391,0.627 0.163,0.349 0.362,0.88 0.684,1.602 0.321,0.721 0.764,1.632 1.146,2.525 0.381,0.893 0.7,1.768 0.836,2.443 0.135,0.674 0.087,1.147 0.127,1.679 0.04,0.532 0.168,1.122 0.504,1.619 0.337,0.498 0.881,0.903 1.195,1.44 0.314,0.538 0.396,1.208 0.602,2.158 0.205,0.951 0.533,2.183 0.646,3.113 0.112,0.929 0.009,1.556 -0.098,2.148 -0.106,0.591 -0.218,1.148 -0.101,1.705 0.117,0.557 0.462,1.116 0.865,1.635 0.404,0.519 0.866,0.998 1.149,1.313 0.284,0.315 0.39,0.466 0.491,0.609 0.101,0.142 0.198,0.276 0.351,0.879 0.152,0.603 0.36,1.675 0.439,2.419 0.078,0.745 0.027,1.161 -0.003,1.576 -0.03,0.415 -0.039,0.828 -0.073,1.354 -0.034,0.526 -0.094,1.165 -0.085,1.751 0.008,0.586 0.085,1.119 0.46,1.91 0.375,0.791 1.048,1.84 1.685,2.689 0.637,0.848 1.239,1.495 1.643,1.902 0.404,0.407 0.611,0.574 0.797,0.87 0.186,0.296 0.351,0.72 0.488,1.263 0.137,0.544 0.246,1.205 0.304,1.972 0.058,0.767 0.067,1.64 0.054,2.608 -0.013,0.968 -0.047,2.031 0.15,2.999 0.197,0.968 0.624,1.84 1.101,2.577 0.476,0.738 1,1.339 1.389,1.826 0.39,0.488 0.644,0.862 0.856,1.23 0.213,0.367 0.384,0.729 0.555,1.154 0.171,0.425 0.342,0.913 0.472,1.479 0.13,0.566 0.218,1.21 0.339,1.795 0.121,0.584 0.275,1.108 0.375,1.699 0.1,0.59 0.145,1.246 0.32,2.204 0.174,0.958 0.476,2.218 0.678,3.273 0.203,1.055 0.305,1.904 0.416,2.657 0.112,0.753 0.231,1.409 0.325,2.284 0.094,0.875 0.163,1.97 0.294,2.774 0.131,0.804 0.325,1.317 0.465,2.09 0.14,0.772 0.225,1.805 0.299,2.412 0.074,0.607 0.137,0.79 0.288,0.952 0.104,0.112 0.251,0.215 0.437,0.32 -0.079,-0.368 -0.154,-0.732 -0.127,-0.999 0.028,-0.278 0.168,-0.45 0.332,-0.556 0.164,-0.105 0.352,-0.145 0.75,-0.063 0.398,0.082 1.007,0.284 1.729,0.399 0.723,0.115 1.56,0.144 2.868,0.151 1.309,0.007 3.089,-0.007 5.568,-0.327 2.479,-0.319 5.657,-0.943 8.788,-1.599 3.132,-0.656 6.217,-1.344 9.657,-2.107 3.44,-0.762 7.234,-1.599 10.248,-2.124 3.014,-0.525 5.249,-0.737 8.16,-0.854 2.912,-0.118 6.502,-0.139 10.137,0.024 3.635,0.163 7.316,0.511 9.976,0.862 2.66,0.351 4.298,0.706 5.688,1.227 1.391,0.522 2.533,1.21 3.226,1.734 0.693,0.524 0.938,0.884 1.054,1.193 0.116,0.309 0.104,0.568 -0.007,0.887 -0.11,0.319 -0.318,0.698 -0.526,1.077 0.192,-0.063 0.354,-0.202 0.566,-0.399 0.232,-0.218 0.523,-0.509 0.64,-0.957 0.116,-0.447 0.059,-1.052 0.065,-2.577 0.006,-1.525 0.074,-3.972 0.052,-6.694 -0.023,-2.724 -0.137,-5.723 -0.194,-7.553 -0.057,-1.831 -0.057,-2.492 -0.057,-3.427 0,-0.936 0,-2.144 -0.029,-3.276 -0.028,-1.132 -0.085,-2.187 -0.111,-3.279 -0.025,-1.092 -0.02,-2.221 -0.091,-4.009 -0.072,-1.787 -0.22,-4.234 -0.3,-6.212 -0.079,-1.979 -0.091,-3.49 -0.231,-7.51 -0.139,-4.02 -0.407,-10.55 -0.929,-16.996 -0.522,-6.446 -1.297,-12.81 -2.278,-18.854 -0.981,-6.045 -2.167,-11.77 -3.341,-17.21 -1.175,-5.44 -2.338,-10.594 -3.867,-15.864 -1.528,-5.268 -3.421,-10.651 -5.246,-15.498 -1.824,-4.847 -3.581,-9.158 -4.618,-11.657 -1.038,-2.499 -1.357,-3.186 -1.494,-3.631 -0.137,-0.445 -0.092,-0.647 0.009,-0.803 0.102,-0.155 0.258,-0.263 0.386,-0.349 0.014,-0.01 0.028,-0.019 0.041,-0.029 -0.042,-0.002 -0.088,-0.005 -0.144,-0.008 -0.105,-0.005 -0.243,-0.013 -0.693,-0.048 -0.449,-0.035 -1.21,-0.098 -2.217,-0.107 -1.008,-0.008 -2.262,0.038 -3.577,0.132 -1.316,0.095 -2.692,0.24 -4.839,0.609 -2.148,0.368 -5.068,0.962 -7.478,1.498 -2.41,0.535 -4.311,1.014 -6.805,1.509 -2.494,0.494 -5.581,1.003 -8.679,1.418 -3.098,0.414 -6.208,0.733 -9.971,1.076 -3.764,0.341 -8.181,0.707 -11.872,0.965 -3.692,0.259 -6.657,0.41 -9.367,0.559 -2.711,0.148 -5.167,0.292 -7.957,0.403 -2.79,0.11 -5.915,0.186 -9.017,0.251 -3.102,0.064 -6.181,0.117 -9.116,0.11 -2.935,-0.008 -5.725,-0.076 -8.341,-0.137 -2.615,-0.061 -5.056,-0.114 -7.698,-0.194 -2.642,-0.08 -5.486,-0.186 -8.975,-0.285 -3.49,-0.099 -7.626,-0.19 -12.01,-0.217 -4.383,-0.026 -9.013,0.012 -12.845,0.008 -3.832,-0.004 -6.865,-0.049 -10.876,-0.205 -4.011,-0.156 -8.998,-0.422 -12.585,-0.69 -3.587,-0.268 -5.773,-0.538 -7.362,-0.856 -1.59,-0.318 -2.583,-0.683 -3.577,-1.049 0.044,0.064 0.021,0.188 -0.027,0.625 -0.062,0.551 -0.164,1.597 -0.449,3.521 -0.286,1.925 -0.753,4.728 -1.058,6.779 -0.305,2.052 -0.448,3.352 -0.79,5.493 -0.342,2.141 -0.884,5.124 -1.32,7.752 -0.436,2.629 -0.767,4.904 -1.029,6.823 -0.263,1.919 -0.457,3.481 -0.636,5.294 -0.18,1.814 -0.345,3.878 -0.525,6.376 -0.18,2.497 -0.373,5.428 -0.567,8.701 -0.194,3.273 -0.388,6.888 -0.53,10.743 -0.143,3.855 -0.234,7.949 -0.206,12.14 0.029,4.192 0.177,8.48 0.468,12.648 0.291,4.169 0.724,8.217 1.009,11.855 0.285,3.638 0.422,6.865 0.485,10.435 0.063,3.57 0.051,7.481 0.091,11.969 0.04,4.488 0.131,9.552 0.223,13.777 0.091,4.225 0.182,7.612 0.266,9.945 0.084,2.332 0.162,3.609 0.193,4.373 0.031,0.764 0.017,1.015 0.027,2.23 0.01,1.214 0.044,3.393 0.078,4.946 0.035,1.554 0.069,2.484 0.137,3.037 0.068,0.553 0.171,0.73 0.482,1.055 0.311,0.325 0.83,0.798 2.632,1.177 1.802,0.38 4.886,0.665 7.829,0.918 2.942,0.254 5.742,0.476 10.492,0.73 4.75,0.254 11.451,0.539 16.4,0.753 4.95,0.214 8.149,0.356 10.954,0.382 2.806,0.026 5.218,-0.066 7.656,-0.143 2.438,-0.077 4.901,-0.139 7.25,-0.216 2.35,-0.077 4.585,-0.168 7.735,-0.565 3.151,-0.396 7.217,-1.098 9.757,-1.616 2.54,-0.519 3.556,-0.856 4.448,-1.309 0.892,-0.453 1.662,-1.024 2.078,-1.386 0.417,-0.362 0.479,-0.516 0.539,-0.807z"/>
 </g>
</svg>
