<?xml version="1.0" encoding="UTF-8"?>
<!DOCTYPE svg PUBLIC "-//W3C//DTD SVG 1.1//EN" "http://www.w3.org/Graphics/SVG/1.1/DTD/svg11.dtd">
<!-- Creator: CorelDRAW 2018 (64 Bit Versão de avaliação) -->
<svg xmlns="http://www.w3.org/2000/svg" xml:space="preserve" width="181px" height="149px" version="1.1" shape-rendering="geometricPrecision" text-rendering="geometricPrecision" image-rendering="optimizeQuality" fill-rule="evenodd" clip-rule="evenodd"
viewBox="0 0 195683 161298"
 xmlns:xlink="http://www.w3.org/1999/xlink">
 <defs>
   <linearGradient id="id0" gradientUnits="userSpaceOnUse" x1="183504" y1="44834" x2="161753" y2="48834">
    <stop offset="0" stop-opacity="0.298039" stop-color="#F00808"/>
    <stop offset="1" stop-opacity="0.298039" stop-color="#F00808"/>
   </linearGradient>
 </defs>
 <g id="Camada_x0020_1">
  <metadata id="CorelCorpID_0Corel-Layer"/>
  <path id="d4" fill="url(#id0)" d="M190186 53920c-553,-2813 -1132,-5551 -1707,-8217 -747,-3459 -1489,-6796 -2333,-10126 -100,165 -202,328 -311,482 558,2254 1087,4508 1600,6761 -78,-45 -167,-89 -245,-163 332,1448 624,2897 933,4330 51,-87 96,-159 154,-246 462,2267 896,4520 1319,6758 195,136 394,273 590,421zm-176092 7328c-130,3495 -236,6990 -329,10469 64,70 131,141 194,197 95,-3611 209,-7237 344,-10864 -71,76 -140,137 -209,198zm-1573 -2101c-51,1244 -101,2487 -145,3715 -68,76 -137,137 -209,198 -80,2252 -149,4504 -211,6755 64,70 130,141 193,197 -33,1242 -67,2485 -90,3727 186,-182 375,-365 568,-547 21,-863 42,-1725 63,-2602 67,70 130,141 197,197 82,-2880 170,-5775 272,-8670 -65,75 -133,136 -205,197 31,-862 65,-1725 99,-2603 -179,-183 -356,-366 -532,-564zm-1769 -1903c-115,2487 -209,4958 -300,7430 -68,75 -137,137 -209,198 -29,1023 -57,2032 -93,3041 67,70 130,141 197,197 -70,2485 -134,4970 -185,7440 186,-183 379,-366 568,-548 41,-2104 96,-4209 153,-6314 64,70 128,141 198,197 48,-1638 100,-3290 158,-4942 -71,76 -140,136 -209,197 75,-2105 157,-4211 248,-6332 -173,-183 -353,-366 -526,-564zm-1785 -1625c-159,3540 -300,7079 -419,10603 -67,-71 -131,-141 -194,-212 -11,234 -17,454 -22,673 69,-61 138,-122 207,-183 -105,3538 -196,7061 -268,10582 47,57 92,99 138,142 140,-137 281,-274 424,-411 69,-3332 153,-6680 251,-10027 64,70 131,140 194,211 12,-409 27,-819 41,-1243 -68,76 -137,137 -206,198 115,-3348 244,-6698 392,-10047 -130,-141 -261,-282 -395,-423 -52,46 -98,91 -143,137zm-419 10603c43,57 89,99 134,141 -49,45 -98,91 -143,137 3,-88 6,-176 9,-278zm-1519 -8791c-105,2296 -192,4592 -277,6889 -67,-71 -134,-141 -194,-212 -52,1477 -97,2939 -142,4401 68,-61 141,-122 209,-198 -64,2295 -125,4590 -173,6870 180,198 361,395 543,578 54,-2660 121,-5320 201,-7995 69,-62 137,-123 209,-199 26,-818 49,-1637 74,-2470 -66,-71 -130,-141 -194,-212 98,-2661 198,-5323 319,-7985 -192,182 -385,365 -575,533zm-1937 1827c-44,1053 -88,2106 -129,3159 -63,-71 -127,-141 -194,-212 -96,2706 -181,5410 -260,8115 69,-61 137,-122 205,-198 -27,1053 -54,2105 -81,3157 183,198 363,396 546,578 31,-1417 67,-2850 103,-4282 69,-61 138,-122 206,-183 63,-2062 130,-4123 206,-6200 -67,-71 -131,-141 -191,-212 50,-1418 100,-2837 164,-4270 -193,182 -385,365 -575,548zm-1356 1264c-101,91 -196,182 -291,274 -91,-84 -176,-183 -264,-282 -10,190 -16,380 -19,556 -72,76 -141,136 -209,197 -131,3306 -237,6610 -327,9914 64,70 131,141 197,197 -6,190 -13,380 -13,555 96,-77 187,-168 285,-259 89,99 180,197 272,282 0,-176 6,-366 12,-556 69,-61 138,-122 206,-197 90,-3304 196,-6609 320,-9914 -61,-71 -124,-141 -192,-211 7,-176 14,-366 23,-556zm-2331 -1911c-63,1433 -121,2852 -171,4270 -72,76 -144,137 -212,198 -73,2077 -139,4138 -202,6200 64,70 127,141 191,212 -37,1432 -70,2850 -103,4268 185,-183 375,-365 564,-548 31,-1052 55,-2105 82,-3157 67,70 130,141 197,197 79,-2690 165,-5395 264,-8100 -69,60 -138,122 -206,183 41,-1053 78,-2106 125,-3159 -176,-183 -356,-367 -529,-564zm171521 -16417c757,3438 1470,6876 2132,10284 -51,87 -108,160 -159,232 -683,-3554 -1428,-7109 -2212,-10679 83,74 161,118 239,163zm1162 -2322c278,1228 555,2443 828,3643 83,74 161,118 244,163 475,2209 931,4433 1372,6641 -57,87 -108,160 -160,233 233,1213 466,2442 688,3656 -211,-148 -427,-297 -644,-445 -159,-848 -323,-1697 -487,-2560 -51,73 -103,160 -154,217 -556,-2822 -1153,-5675 -1765,-8513 72,59 161,118 239,162 -187,-848 -390,-1697 -582,-2560 142,-203 279,-406 421,-637zm1362 -2160c594,2444 1144,4873 1683,7287 78,73 161,118 245,163 207,1009 403,2004 616,2999 -57,72 -102,159 -159,217 477,2443 948,4885 1375,7327 -211,-162 -433,-311 -644,-459 -364,-2077 -761,-4139 -1164,-6216 -51,87 -102,159 -164,232 -324,-1609 -665,-3233 -1005,-4857 83,59 161,119 239,163 -459,-2063 -935,-4141 -1432,-6219 136,-203 278,-405 410,-637zm1425 -1882c853,3468 1654,6936 2405,10404 46,-88 103,-160 154,-247 54,234 90,454 139,673 -78,-59 -156,-104 -240,-148 707,3466 1374,6933 1980,10399 -40,58 -80,116 -114,159 -161,-104 -316,-222 -483,-341 -574,-3276 -1204,-6566 -1862,-9858 -57,87 -108,160 -165,246 -80,-409 -165,-804 -250,-1228 83,74 155,118 233,163 -714,-3292 -1456,-6570 -2265,-9862 102,-160 194,-319 296,-479 67,45 117,75 172,119zm2405 10404c-34,58 -73,116 -108,159 50,30 112,74 161,119 -16,-88 -37,-176 -53,-278zm-148 -8920c563,2254 1070,4507 1588,6761 46,-87 103,-160 143,-247 315,1448 618,2882 916,4330 -84,-59 -162,-104 -240,-163 441,2253 875,4505 1281,6757 -142,218 -296,435 -449,652 -464,-2617 -961,-5235 -1493,-7868 -83,-45 -161,-90 -239,-163 -164,-805 -335,-1610 -505,-2429 57,-72 108,-159 154,-232 -582,-2619 -1180,-5223 -1823,-7843 228,148 450,297 667,445zm2262 1499c252,1025 487,2064 722,3088 51,-73 108,-160 153,-232 593,2648 1151,5311 1688,7973 -73,-45 -150,-104 -234,-163 202,1038 397,2062 599,3100 -148,233 -296,450 -444,653 -265,-1390 -535,-2794 -799,-4213 -83,-44 -161,-89 -234,-148 -426,-2019 -845,-4038 -1299,-6086 57,-73 97,-160 143,-232 -304,-1405 -625,-2795 -967,-4200 227,149 450,297 672,460zm1578 1025c112,74 228,148 339,222 74,-87 137,-203 200,-319 48,191 91,380 128,556 89,60 161,104 245,149 737,3248 1429,6496 2076,9744 -56,87 -108,159 -165,231 37,176 75,366 106,541 -111,-59 -216,-133 -322,-208 -74,116 -148,218 -222,319 -31,-176 -69,-365 -106,-541 -83,-59 -156,-104 -239,-163 -642,-3248 -1328,-6495 -2060,-9744 46,-72 92,-159 143,-246 -37,-161 -74,-351 -123,-541zm1906 -2257c349,1405 681,2796 995,4200 84,60 167,104 239,149 465,2048 891,4067 1311,6101 -52,72 -103,159 -154,231 275,1419 546,2809 810,4198 -216,-148 -433,-297 -650,-445 -201,-1038 -402,-2077 -599,-3101 -56,73 -102,160 -164,218 -542,-2648 -1101,-5296 -1699,-7959 78,59 156,104 234,149 -235,-1025 -476,-2064 -727,-3103 136,-203 278,-405 404,-638z"/>
  <path id="calcao_contorno" fill="none" d="M86877 155540c57,-276 111,-684 198,-2144 87,-1461 207,-3975 494,-8922 288,-4947 745,-12326 1108,-17715 364,-5390 636,-8789 989,-12546 352,-3758 787,-7874 1330,-12163 543,-4290 1195,-8753 2031,-13825 836,-5071 1857,-10751 2633,-14471 777,-3719 1309,-5479 1650,-6590 342,-1112 492,-1576 610,-1830 117,-254 201,-298 281,-290 81,7 157,66 254,174 98,108 218,265 372,597 155,332 345,838 651,1525 306,687 729,1555 1092,2405 363,850 667,1684 796,2326 129,642 83,1093 121,1599 38,506 160,1068 480,1542 321,474 839,860 1138,1371 299,512 377,1150 573,2055 195,906 507,2079 615,2964 107,885 9,1482 -93,2046 -101,563 -207,1093 -96,1623 111,531 440,1063 824,1557 384,495 824,951 1094,1251 270,300 371,443 467,579 96,136 189,264 334,838 145,574 343,1595 418,2303 75,709 26,1106 -3,1500 -28,396 -36,789 -69,1290 -32,501 -89,1109 -81,1667 8,558 81,1066 438,1819 357,754 998,1753 1605,2560 607,808 1179,1425 1564,1812 385,388 582,546 759,828 177,282 335,686 465,1203 130,518 234,1148 289,1878 56,730 64,1561 52,2483 -12,922 -45,1934 143,2856 187,922 594,1752 1048,2454 453,702 952,1275 1323,1739 371,465 613,820 815,1171 203,350 365,695 528,1099 163,405 326,869 450,1408 123,539 207,1153 323,1709 115,557 262,1056 357,1618 95,562 138,1187 304,2099 166,912 453,2112 646,3116 193,1005 291,1814 396,2531 106,717 220,1341 310,2175 89,833 155,1876 280,2641 124,766 309,1255 442,1990 133,736 214,1719 285,2297 71,579 130,752 274,907 144,155 372,290 679,442 307,153 692,321 1086,576 394,255 796,597 1257,990 462,392 983,834 1546,1188 564,352 1169,616 1745,818 575,202 1121,343 1722,497 602,153 1259,319 2147,474 887,154 2006,298 2867,397 860,100 1463,154 2700,174 1236,21 3107,7 4534,-32 1426,-40 2409,-105 3661,-214 1252,-108 2772,-260 4550,-449 1779,-188 3815,-414 5523,-572 1707,-159 3087,-252 4504,-330 1417,-79 2872,-144 4136,-180 1264,-35 2336,-40 4548,-77 2211,-37 5561,-105 7790,-171 2229,-67 3337,-132 4993,-333 1657,-201 3861,-537 5223,-773 1362,-237 1881,-373 2235,-519 354,-146 543,-303 694,-404 152,-102 266,-148 573,-258 306,-110 806,-284 1386,-483 579,-200 1239,-425 1759,-648 520,-222 900,-442 1145,-582 246,-140 358,-200 538,-211 181,-10 430,28 638,-23 208,-50 374,-188 595,-396 221,-208 498,-485 609,-911 111,-426 57,-1002 63,-2454 5,-1453 70,-3782 49,-6375 -22,-2593 -131,-5449 -185,-7192 -54,-1743 -54,-2373 -54,-3263 0,-891 0,-2042 -27,-3120 -28,-1078 -82,-2082 -106,-3122 -25,-1040 -19,-2115 -87,-3817 -68,-1703 -209,-4032 -285,-5916 -76,-1884 -87,-3324 -220,-7152 -133,-3828 -388,-10045 -885,-16183 -497,-6139 -1236,-12199 -2170,-17954 -933,-5756 -2063,-11208 -3181,-16388 -1119,-5180 -2227,-10089 -3682,-15106 -1455,-5017 -3258,-10143 -4995,-14759 -1738,-4615 -3410,-8720 -4398,-11100 -989,-2379 -1293,-3034 -1423,-3457 -130,-424 -87,-617 9,-765 97,-147 246,-251 367,-332 13,-9 27,-18 39,-28 -39,-2 -84,-4 -137,-7 -99,-6 -231,-13 -660,-46 -428,-34 -1152,-94 -2111,-102 -959,-8 -2154,36 -3406,126 -1253,90 -2563,228 -4608,579 -2046,351 -4826,916 -7121,1427 -2295,510 -4105,966 -6479,1437 -2375,470 -5315,955 -8265,1350 -2950,394 -5912,698 -9495,1024 -3584,326 -7790,674 -11305,920 -3515,246 -6339,391 -8920,532 -2581,141 -4920,278 -7577,384 -2657,105 -5632,177 -8586,238 -2954,62 -5886,113 -8681,106 -2794,-8 -5451,-73 -7942,-131 -2491,-58 -4815,-108 -7331,-184 -2515,-77 -5223,-178 -8546,-272 -3323,-94 -7262,-181 -11436,-206 -4174,-26 -8583,11 -12232,7 -3649,-4 -6538,-47 -10357,-196 -3819,-148 -8568,-401 -11984,-657 -3415,-255 -5497,-512 -7010,-814 -1514,-303 -2460,-651 -3406,-999 42,61 20,179 -26,595 -59,524 -156,1520 -428,3353 -271,1833 -717,4502 -1007,6455 -291,1954 -426,3192 -752,5230 -326,2040 -842,4880 -1257,7383 -415,2503 -731,4669 -980,6496 -250,1828 -435,3315 -606,5042 -171,1727 -328,3692 -499,6071 -171,2378 -356,5169 -541,8286 -184,3117 -369,6559 -504,10230 -136,3671 -223,7569 -196,11560 27,3991 169,8074 446,12044 277,3969 689,7824 961,11289 271,3464 401,6537 461,9936 60,3399 49,7124 87,11398 38,4273 125,9095 212,13118 87,4024 173,7249 254,9470 80,2221 153,3437 183,4165 30,728 16,967 26,2123 9,1157 42,3231 74,4711 33,1479 66,2364 131,2891 65,527 163,695 459,1005 296,309 790,760 2506,1121 1715,361 4653,632 7455,874 2802,242 5468,453 9991,695 4523,242 10904,513 15617,717 4713,203 7759,339 10431,363 2671,25 4968,-62 7289,-135 2322,-74 4668,-133 6905,-207 2237,-73 4366,-160 7366,-537 3000,-377 6871,-1046 9290,-1540 2419,-494 3386,-814 4236,-1246 849,-431 1582,-974 1979,-1319 396,-345 456,-492 513,-769z"/>
 </g>
</svg>
