<?xml version="1.0" encoding="UTF-8"?>
<!DOCTYPE svg PUBLIC "-//W3C//DTD SVG 1.1//EN" "http://www.w3.org/Graphics/SVG/1.1/DTD/svg11.dtd">
<!-- Creator: CorelDRAW -->
<svg xmlns="http://www.w3.org/2000/svg" xml:space="preserve" width="238px" height="298px" version="1.1" shape-rendering="geometricPrecision" text-rendering="geometricPrecision" image-rendering="optimizeQuality" fill-rule="evenodd" clip-rule="evenodd"
viewBox="0 0 238 298.123"
 xmlns:xlink="http://www.w3.org/1999/xlink"
 xmlns:xodm="http://www.corel.com/coreldraw/odm/2003">
 <defs>
   <clipPath id="id0">
    <path d="M207.298 27.894c-0.11,-0.063 -0.222,-0.122 -0.337,-0.177 -4.975,-2.38 -9.714,-5.334 -14.858,-7.149 -4.647,-1.639 -11.454,-2.699 -17.288,-4.719 -2.277,-0.789 -4.556,-1.589 -6.82,-2.415l-0.004 -0.03 -9.999 -4.08 -0.175 -0.072c-0.614,-0.28 -1.553,-1.207 -2.512,-1.889 -0.494,-0.369 -0.613,-0.563 -1.038,-0.905 -2.856,-2.299 -5.606,-5.635 -9.574,-5.641 -0.901,-0.002 -1.04,-0.123 -1.779,-0.163l-7.601 -0.17c-5.892,-0.486 -12.055,-0.501 -18.06,-0.477 -5.087,0.02 -9.557,0.063 -14.567,0.477 -2.529,0.209 -4.996,0.029 -7.6,0.17 -0.739,0.04 -0.878,0.161 -1.779,0.163 -3.968,0.006 -6.718,3.342 -9.575,5.641 -0.424,0.342 -0.543,0.536 -1.037,0.905 -0.741,0.527 -1.471,1.2 -2.047,1.608 -0.17,0.121 -0.326,0.218 -0.465,0.281l-10.174 4.152 -0.003 0.03c-2.265,0.826 -4.544,1.626 -6.821,2.415 -5.834,2.02 -12.641,3.08 -17.288,4.719 -5.144,1.815 -9.883,4.769 -14.858,7.149 -0.212,0.101 -0.412,0.215 -0.605,0.339 -0.909,0.583 -1.664,1.379 -2.651,2.001 -11.263,7.099 -18.243,27.467 -21.401,39.215 -1.569,5.839 -1.98,12.983 -2.969,19.04 -0.5,3.067 -1.172,6.193 -1.752,9.253 -0.585,3.095 -0.872,6.493 -1.288,9.631 -0.406,0.268 -0.327,-0.023 -0.308,0.899l-0.065 1.854 0 8.783c0.041,1.018 0.102,1.813 0.186,2.164 1.125,0.477 3.706,0.514 5.07,0.712 7.662,1.114 9.041,0.828 15.791,1.554l21.547 1.349c-0.015,-1.623 0.547,-10.725 0.578,-13.424l-0.603 -0.316 -0.07 -0.036c0,-4.476 -0.011,-9.226 -0.011,-13.7 1.678,4.247 3.328,18.944 3.789,24.023 0.735,8.116 1.826,16.186 2.512,24.347 0.348,4.137 0.874,8.269 1.009,12.419l0.653 12.776c0.396,4.199 0.208,8.934 0.274,13.179 0.032,2.062 0.194,4.007 0.186,6.13 -0.007,2.226 -0.172,4.349 -0.196,6.512 -0.051,4.469 -0.054,8.634 -0.319,13.111 -0.68,11.475 -1.257,26.076 -3.267,37.02 -0.966,5.407 -2.177,11.944 -2.754,17.389 -0.258,2.432 -0.827,10.057 -1.468,11.951 -0.68,2.01 -0.163,3.658 -0.568,5.77 -0.342,1.785 -0.742,3.812 -1.164,5.568 -0.463,1.93 -1.435,3.647 0.397,4.966 4.276,1.054 8.552,2.108 13.913,3.017 5.36,0.909 11.804,1.672 18.03,2.048 6.226,0.375 12.232,0.363 21.568,0.476 9.335,0.112 21.999,0.351 32.523,0.382 10.525,0.032 18.909,-0.144 26.242,-0.419 7.333,-0.275 13.615,-0.65 19.058,-1.151 5.443,-0.501 10.048,-1.126 13.829,-1.873 3.78,-0.746 6.736,-1.613 9.693,-2.48 1.832,-1.319 0.86,-3.036 0.397,-4.966 -0.422,-1.756 -0.822,-3.783 -1.164,-5.568 -0.405,-2.112 0.112,-3.76 -0.568,-5.77 -0.641,-1.894 -1.21,-9.519 -1.468,-11.951 -0.577,-5.445 -1.788,-11.982 -2.754,-17.389 -2.01,-10.944 -2.587,-25.545 -3.267,-37.02 -0.265,-4.477 -0.268,-8.642 -0.319,-13.111 -0.024,-2.163 -0.189,-4.286 -0.196,-6.512 -0.008,-2.123 0.154,-4.068 0.186,-6.13 0.066,-4.245 -0.122,-8.98 0.274,-13.179l0.653 -12.776c0.135,-4.15 0.661,-8.282 1.009,-12.419 0.686,-8.161 1.777,-16.231 2.512,-24.347 0.461,-5.079 1.889,-19.043 3.568,-23.29 0,4.474 -0.105,8.584 -0.105,13.06l0 0 -0.416 0.247c-0.004,0.882 0.338,12.091 0.604,13.423l21.579 -1.336c6.75,-0.726 8.129,-0.44 15.791,-1.554 1.364,-0.198 3.945,-0.235 5.07,-0.712 0.084,-0.351 0.145,-1.146 0.186,-2.164l0 -8.783 -0.065 -1.854c0.014,-0.687 0.062,-0.7 -0.083,-0.774 -0.05,-0.025 -0.122,-0.057 -0.225,-0.125 -0.416,-3.138 -0.703,-6.536 -1.288,-9.631 -0.58,-3.06 -1.252,-6.186 -1.752,-9.253 -0.989,-6.057 -1.4,-13.201 -2.969,-19.04 -3.158,-11.748 -10.138,-32.116 -21.401,-39.215 -1.057,-0.665 -1.895,-1.576 -2.919,-2.163z"/>
   </clipPath>
 </defs>
 <g id="VETORES">
  <metadata id="CorelCorpID_0Corel-Layer"/>
  <g>
  </g>
  <g clip-path="url(#id0)">
   <g id="_2016195350560">
    <path fill="#511A20" fill-rule="nonzero" d="M52.047 197.742l0.601 0c0,-0.822 0,-1.642 0.03,-2.493l-1.562 0c-0.12,0.18 -0.25,0.35 -0.38,0.52 0,0.22 -0.01,0.451 -0.02,0.671 -0.02,1.482 -0.03,2.923 -0.05,4.354 0.45,-0.6 0.911,-1.211 1.361,-1.802 0.03,-0.4 0.03,-0.821 0.03,-1.251l-0.01 0.001zm-1.201 -10.422c0,0.13 0,0.271 0,0.401 0.05,-0.07 0.09,-0.13 0.14,-0.201 -0.05,-0.07 -0.1,-0.13 -0.15,-0.2l0.01 0zm4.495 2.162c0,-1.281 -0.03,-2.612 -0.03,-3.913 -0.201,-0.261 -0.401,-0.541 -0.601,-0.821l0 0.57 -2.493 0c0,-1.331 -0.03,-2.662 -0.06,-4.034 -0.501,-0.641 -0.971,-1.281 -1.442,-1.912 0,1.502 0,2.983 0.021,4.415 0,0.63 0.04,1.251 0.06,1.872l3.804 0c0,0.851 0,1.701 0.03,2.522l-3.764 0c0.02,0.571 0.04,1.142 0.04,1.732 0,1.832 -0.11,3.584 -0.17,5.336l0.37 0c1.422,-1.902 2.833,-3.835 4.225,-5.757l0.01 -0.01zm-3.834 33.395l3.343 0c0.651,-0.821 1.332,-1.641 2.012,-2.492l-3.694 0c-0.54,0.681 -1.081,1.361 -1.641,2.042 0,0.171 -0.03,0.311 -0.03,0.451l0.01 -0.001zm5.816 0.792l0.03 -0.791 -2.493 -0.001c-0.231,0.281 -0.431,0.541 -0.651,0.791l3.124 0.001 -0.01 0zm-5.076 12.152l1.302 0c0.71,-0.821 1.421,-1.641 2.132,-2.472l-3.153 0c-0.09,0.821 -0.201,1.641 -0.281,2.472zm3.374 -70.263c-0.431,-0.541 -0.851,-1.082 -1.282,-1.622 0.03,0.541 0.08,1.082 0.111,1.622l1.161 0 0.01 0zm-3.464 15.716c0.851,1.162 1.702,2.303 2.553,3.464 -0.03,-1.812 -0.06,-3.604 -0.11,-5.415l0.621 -0.001c-0.03,-0.821 -0.061,-1.642 -0.061,-2.492l-0.62 0c-0.03,-0.571 -0.03,-1.162 -0.06,-1.792l-2.353 0c0.03,0.48 0.03,0.961 0.06,1.391 -0.06,-0.03 -0.11,-0.11 -0.17,-0.17 0,0.2 0.03,0.4 0.03,0.571l-1.342 0c0,0.83 0,1.661 0,2.492l1.392 0c0.03,0.651 0.03,1.302 0.06,1.962l0 -0.01zm2.693 -12.052c0.571,0.79 1.161,1.561 1.762,2.322l0.451 0c0,0.23 0.029,0.43 0.029,0.62 0.31,0.401 0.621,0.822 0.941,1.222 -0.06,-1.672 -0.11,-3.344 -0.17,-4.996l-1.021 -1.301c0.06,0.651 0.09,1.301 0.11,1.962l-5.075 0c0.03,0.851 0.06,1.672 0.11,2.493l2.953 0c-0.03,-0.771 -0.06,-1.532 -0.09,-2.322zm-2.863 5.816l0.14 0c-0.06,-1.132 -0.11,-2.303 -0.14,-3.494l-0.51 0 0 0.09 -0.961 0c0.07,0.941 0.12,1.892 0.15,2.873 0.45,0.581 0.901,1.172 1.351,1.752 0,-0.401 -0.029,-0.791 -0.029,-1.221l-0.001 0zm5.566 44.496l-0.681 0.851 0.651 0 0.03 -0.851zm-3.354 4.135l-3.664 0c-0.36,0.44 -0.7,0.86 -1.041,1.291 -0.03,0.4 -0.05,0.801 -0.08,1.201l2.773 0c0.651,-0.821 1.332,-1.641 2.012,-2.492zm-2.663 -1.242c0.06,-0.68 0.11,-1.361 0.171,-2.042l1.471 0c1.562,-1.932 3.094,-3.884 4.625,-5.816 0.03,-1.021 0.08,-2.072 0.11,-3.153 0.091,-1.532 0.11,-3.123 0.171,-4.765 -1.422,1.842 -2.834,3.694 -4.255,5.536 -0.14,2.382 -0.28,4.764 -0.451,7.177l-2.492 0c0.23,-3.433 0.45,-6.867 0.6,-10.301l0.481 0c0.03,-0.45 0.06,-0.941 0.08,-1.421l-1.562 0c-0.03,0.63 -0.05,1.261 -0.09,1.902 -0.26,4.374 -0.5,9.219 -0.821,14.135l0.961 0c0.311,-0.401 0.651,-0.821 0.991,-1.252l0.01 0zm5.016 10.922l0.03 -0.541 -0.481 0c-0.14,0.2 -0.28,0.37 -0.43,0.541l0.881 0zm-2.723 -21.173c0.06,-1.051 0.08,-2.072 0.14,-3.123l-2.012 0c-0.09,1.982 -0.17,3.944 -0.31,5.876 0.741,-0.911 1.471,-1.812 2.182,-2.753l0 0zm-5.336 -108.453c-1.562,-4.544 -3.323,-8.829 -5.276,-12.883l-1.031 0c0.481,1.842 0.611,2.322 0.631,2.813 0.03,0.62 -0.11,1.251 -0.2,1.812 -0.09,0.561 -0.11,1.081 -0.14,1.592 0.11,0.29 0.23,0.63 0.34,1.021 0.461,0.46 0.931,0.911 1.382,1.361 1.451,1.422 2.863,2.863 4.284,4.284l0.01 0zm4.655 129.085l2.953 0 0.571 -0.681c0.03,-0.6 0.09,-1.191 0.14,-1.812l-2.322 0c-0.401,0.481 -0.791,0.991 -1.222,1.472 -0.03,0.34 -0.06,0.711 -0.11,1.021l-0.01 0zm-2.723 2.382c0.961,-1.131 1.902,-2.272 2.833,-3.403 0.06,-0.481 0.11,-0.991 0.171,-1.472l1.051 0c0.88,-1.021 1.731,-2.042 2.583,-3.093l0.029 -0.43 0.06 -0.621 -4.965 0c-1.011,1.231 -2.032,2.453 -3.043,3.684 -0.02,0.25 -0.04,0.5 -0.06,0.741l1.852 0c-0.17,1.531 -0.31,3.063 -0.51,4.594l-0.001 0zm4.515 -63.646c0.08,1.762 0.17,3.514 0.231,5.276l1.361 0c0.03,0.851 0.06,1.672 0.06,2.492l-1.362 0c0.03,1.702 0.081,3.434 0.081,5.135l2.492 0c0.03,3.434 0.03,6.867 0,10.271l-2.472 0c-0.03,3.494 -0.14,6.947 -0.231,10.411l0.451 0c0.17,-0.17 0.31,-0.37 0.451,-0.57 0,-0.371 0.029,-0.711 0.029,-1.082l0.771 0 1.392 -1.872c0.06,-2.042 0.09,-4.144 0.09,-6.296 0.06,-6.096 0,-12.453 -0.17,-18.84l-0.061 -1.702 -0.85 0c-0.03,-0.85 -0.06,-1.731 -0.11,-2.612 -0.14,-0.201 -0.311,-0.401 -0.481,-0.621l-1.672 0 0 0.01zm-6.527 71.625l-0.721 0c-0.17,1.151 -0.36,2.292 -0.56,3.373 -0.041,0.2 -0.07,0.42 -0.111,0.62l0.792 0.001c0.2,-1.331 0.4,-2.663 0.6,-4.004l0 0.01zm1.732 -3.324l-0.31 0c0.2,-1.562 0.4,-3.123 0.6,-4.655 -0.66,0.781 -1.331,1.572 -2.002,2.353 -0.19,1.712 -0.4,3.393 -0.64,5.016 0.049,-0.05 0.1,-0.111 0.15,-0.161 0.741,-0.851 1.471,-1.701 2.212,-2.552l-0.01 -0.001zm0.791 -78.031c0.14,2.412 0.28,4.825 0.431,7.237l0.51 0c-0.14,-2.412 -0.281,-4.825 -0.451,-7.237l-0.48 0 -0.01 0zm0.651 -33.205l-2.213 0c1.932,2.182 3.864,4.344 5.736,6.497 -0.06,-0.571 -0.17,-1.132 -0.26,-1.732l0.31 0c-0.14,-0.961 -0.28,-1.902 -0.43,-2.863 -1.111,-1.221 -2.212,-2.443 -3.324,-3.694l-0.17 0c0.11,0.621 0.231,1.192 0.341,1.792l0.01 0zm-0.08 -7.969c-0.231,-1.161 -0.481,-2.302 -0.711,-3.463l1.021 0.001c0.34,1.621 0.651,3.233 0.991,4.884l0.62 0.681c-0.14,-0.791 -0.28,-1.562 -0.45,-2.322 -0.171,-0.911 -0.371,-1.842 -0.601,-2.753 -1.702,-1.841 -3.464,-3.664 -5.226,-5.506 0.2,0.821 0.401,1.672 0.571,2.493l-0.65 0c-0.26,-1.132 -0.511,-2.273 -0.771,-3.434 -0.43,-0.45 -0.881,-0.901 -1.311,-1.341 0.21,1.511 0.4,3.003 0.56,4.425 0.911,0.961 1.832,1.922 2.733,2.883 1.082,1.16 2.133,2.302 3.204,3.463l0.02 -0.011zm0.2 1.052l-2.493 0c-0.28,-1.502 -0.601,-3.003 -0.911,-4.514l-1.281 0c0.43,2.041 0.851,4.113 1.251,6.186 1.081,1.161 2.102,2.322 3.153,3.463l2.273 0c-0.261,-1.591 -0.571,-3.173 -0.881,-4.765 -0.451,-0.48 -0.881,-0.961 -1.302,-1.421 0.061,0.341 0.14,0.711 0.201,1.051l-0.01 0zm-5.396 -10.471c0.28,0.31 0.57,0.621 0.851,0.941 -0.06,-0.26 -0.11,-0.48 -0.171,-0.741l2.493 0c0.261,1.082 0.511,2.153 0.741,3.234l1.452 0c-0.451,-1.842 -0.941,-3.634 -1.452,-5.396l-0.711 -0.771 -3.864 0c0.231,0.941 0.451,1.842 0.651,2.723l0.01 0.01zm2.443 14.785c-0.141,-0.851 -0.311,-1.762 -0.481,-2.642 -0.651,-0.701 -1.311,-1.422 -1.972,-2.133 0.14,1.492 0.29,2.983 0.44,4.475 0.09,0.1 0.181,0.2 0.281,0.29l1.732 0 0 0.01zm-0.061 2.603l0.681 0c-0.791,-0.881 -1.592,-1.732 -2.353,-2.613l-0.25 0c0.17,1.632 0.341,3.254 0.521,4.886l1.792 -0.001c-0.14,-0.74 -0.261,-1.501 -0.4,-2.272l0.009 0zm6.928 13.394l-0.34 0c0.11,0.17 0.26,0.341 0.4,0.511 0,-0.171 -0.03,-0.341 -0.06,-0.511zm-5.937 -33.505c-0.2,-0.821 -0.4,-1.621 -0.62,-2.472l-1.982 0c0.821,0.851 1.641,1.642 2.442,2.472l0.171 0 -0.011 0zm-5.796 -5.706c0.19,1.022 0.371,2.113 0.551,3.234l2.643 0c-1.062,-1.071 -2.123,-2.153 -3.184,-3.234l-0.01 0zm3.654 30.332c0,0.08 0.02,0.17 0.03,0.25l0.19 0c-0.08,-0.08 -0.15,-0.17 -0.22,-0.25zm7.338 12.743c0.601,0.711 1.192,1.451 1.792,2.152 -0.11,-1.621 -0.26,-3.233 -0.431,-4.855l-0.57 -0.65c0.14,1.111 0.28,2.242 0.43,3.343l-1.221 0 0 0.01zm-1.952 -8.769c-0.17,-1.221 -0.37,-2.473 -0.57,-3.714l-4.596 0c1.161,1.302 2.303,2.643 3.464,3.944l4.425 0c-0.09,-0.621 -0.14,-1.251 -0.23,-1.872l-0.311 -0.341c0.111,0.651 0.201,1.302 0.311,1.983l-2.493 0zm-2.192 2.443l-1.282 0c0.711,0.821 1.422,1.641 2.133,2.472l3.694 0c-1.362,-1.531 -2.693,-3.123 -4.055,-4.685l-0.791 0c0.11,0.741 0.231,1.471 0.311,2.212l-0.01 0.001zm-0.851 19.77l6.637 0c-1.622,-1.982 -3.233,-3.944 -4.825,-5.956 0.06,0.791 0.11,1.562 0.2,2.322l-2.213 0c0.04,0.721 0.09,1.432 0.121,2.153l0.18 3.523 0.08 0c-0.06,-0.681 -0.11,-1.361 -0.17,-2.042l-0.01 0zm5.426 25.146l0 1.112c0,0 0.03,0.029 0.03,0.029 0,-0.37 0,-0.77 -0.03,-1.131l0 -0.01zm1.441 -18.899l-1.131 0c0.4,0.51 0.821,1.021 1.221,1.531 -0.03,-0.51 -0.06,-1.021 -0.08,-1.531l-0.01 0zm-2.463 -2.493l3.344 0 -0.06 -1.251 -4.905 0c0.57,0.711 1.111,1.421 1.672,2.132 0,-0.28 -0.03,-0.57 -0.06,-0.881l0.009 0zm-2.983 -2.983c0.03,0.601 0.09,1.161 0.111,1.732l1.251 0c-0.451,-0.571 -0.911,-1.131 -1.362,-1.732l0 0zm0.711 38.901c-0.06,2.072 -0.11,4.114 -0.14,6.156l0.26 0c0.09,-2.182 0.11,-4.345 0.2,-6.557 -0.11,0.14 -0.2,0.281 -0.31,0.401l-0.01 0zm3.324 -4.255c0,-1.762 0.029,-3.513 0.029,-5.305 0,0.03 -0.029,0.06 -0.029,0.06 0,1.762 -0.03,3.514 -0.03,5.245l0.03 0zm2.092 -35.417l-0.911 0c0.31,0.401 0.651,0.821 0.961,1.221l-0.06 -1.221 0.01 0zm-0.22 -3.653c-0.11,-2.153 -0.281,-4.315 -0.431,-6.437l-0.31 0c-0.03,-0.281 -0.06,-0.571 -0.09,-0.851l-5.166 0c1.812,2.212 3.664,4.425 5.446,6.607l0.541 0.681 0.01 0zm-6.047 -7.298l0.06 0c-0.811,-0.951 -1.622,-1.932 -2.432,-2.913 0.15,1.662 0.32,3.313 0.48,4.975 0.811,0.981 1.612,1.972 2.443,2.933 -0.2,-1.641 -0.371,-3.323 -0.541,-4.995l-0.01 0zm-0.26 94.809c-0.14,1.021 -0.311,2.012 -0.451,3.003 0.881,-0.991 1.762,-1.982 2.643,-3.003l-2.182 0 -0.01 0zm5.085 -38.03l-0.43 0c-0.14,0.23 -0.31,0.431 -0.48,0.651 0,-0.231 0.029,-0.431 0.029,-0.651l-2.983 0c-0.03,0.851 -0.06,1.672 -0.08,2.492l5.226 0c0.03,-0.54 0.06,-1.081 0.08,-1.641l0.771 0c0.03,-0.821 0.03,-1.642 0.06,-2.493l-1.362 0c-0.26,0.371 -0.51,0.711 -0.791,1.082 0,0.2 0,0.4 -0.029,0.57l-0.011 -0.01zm-5.105 -59.272l4.004 0c-1.111,-1.281 -2.182,-2.553 -3.294,-3.864l-2.522 0c-0.09,-0.821 -0.2,-1.641 -0.31,-2.472l0.71 -0.001c-0.47,-0.53 -0.931,-1.071 -1.401,-1.601 0.26,2.492 0.51,4.975 0.721,7.478l2.042 0c0.029,0.17 0.06,0.31 0.06,0.45l-0.01 0.01zm4.985 93.978l0.14 -1.221c0.08,-0.941 0.2,-1.842 0.281,-2.813l-2.753 0c-1.131,1.332 -2.273,2.663 -3.404,4.035l5.736 -0.001zm-11.492 31.443l1.842 0c0.2,-0.2 0.43,-0.4 0.62,-0.62l-3.113 -0.001c-0.15,1.352 -0.31,2.653 -0.48,3.654 0.16,-0.16 0.31,-0.32 0.47,-0.48 0.231,-0.851 0.451,-1.702 0.651,-2.553l0.01 0zm6.137 -0.621c0.26,-0.26 0.51,-0.51 0.77,-0.79 -0.08,0.28 -0.14,0.54 -0.2,0.79l0.03 0c0.2,-0.821 0.4,-1.641 0.571,-2.492l-2.473 0c-0.791,0.851 -1.562,1.672 -2.353,2.492l3.665 0 -0.01 0zm1.411 -11.982c-0.06,0.17 -0.09,0.341 -0.11,0.511 0.17,-0.171 0.31,-0.341 0.48,-0.511l-0.37 0zm-10.101 -170.618l-0.28 0c-0.08,-0.23 -0.14,-0.451 -0.231,-0.711l-0.02 0c0.081,0.341 0.16,0.661 0.241,0.961l0.4 0 -0.11 -0.26 0 0.01zm3.694 204.703c0.03,-0.139 0.09,-0.31 0.14,-0.45l-0.681 0c-0.07,0.221 -0.15,0.441 -0.22,0.661 0.761,0.18 1.542,0.36 2.323,0.541 -0.101,-0.25 -0.191,-0.511 -0.291,-0.751l-1.281 -0.001 0.01 0zm1.361 -21.482l-0.65 0c-0.821,0.851 -1.642,1.702 -2.493,2.553 -0.391,1.552 -0.791,3.123 -1.211,4.675 0,0.09 0,0.19 0,0.28 1.131,-1.101 2.212,-2.232 3.313,-3.343 0.341,-1.392 0.712,-2.783 1.052,-4.175l-0.011 0.01zm-1.191 18.79c0.341,0.911 0.741,1.812 1.112,2.692l1.13 0c0.341,-1.131 0.712,-2.272 1.082,-3.433l0.14 -0.961 -0.14 0 0.28 -0.941 0.2 -1.361 -0.68 0c0.26,-0.821 0.45,-1.622 0.711,-2.443 -0.881,0.881 -1.762,1.762 -2.643,2.583 1.502,-5.166 2.893,-10.361 4.205,-15.547l-0.571 0c-1.562,1.592 -3.124,3.204 -4.686,4.796 -0.54,2.042 -1.081,4.084 -1.641,6.096l-1.832 0c0,0 0,0.07 -0.021,0.11 -0.18,0.941 -0.38,1.952 -0.58,2.953l2.433 0c-0.791,2.533 -1.582,5.075 -2.363,7.638 0.07,0.02 0.15,0.04 0.22,0.05l2.944 0c0.23,-0.741 0.45,-1.502 0.711,-2.242l-0.011 0.01zm8.109 -163.03c0.09,0.54 0.17,1.051 0.26,1.561l0.401 0c-0.081,-0.51 -0.171,-1.051 -0.261,-1.562l-0.4 0.001zm-6.096 136.582c1.051,-1.131 2.132,-2.302 3.173,-3.464 0.34,-1.641 0.68,-3.343 0.991,-5.025 -1.021,1.131 -2.103,2.302 -3.154,3.434 -0.34,1.701 -0.68,3.373 -1.021,5.055l0.011 0zm5.735 -5.646l0.09 -0.65c-0.4,0.45 -0.821,0.911 -1.221,1.361l1.052 0 0.08 -0.711 -0.001 0zm-3.243 23.205c-0.23,0.821 -0.45,1.641 -0.681,2.442l0.401 -0.4c0.08,-0.621 0.2,-1.301 0.28,-2.042zm2.873 -33.766l2.182 -2.522c0.231,-1.622 0.431,-3.264 0.601,-4.906 -0.911,1.051 -1.812,2.132 -2.753,3.173l0.601 0.001c-0.2,1.421 -0.431,2.833 -0.621,4.254l-0.01 0zm-0.63 17.368c0.14,-0.941 0.31,-2.212 0.54,-3.633l-1.561 0c0.139,-0.651 0.28,-1.302 0.4,-1.962 -0.31,0.31 -0.621,0.65 -0.941,0.96 -0.31,1.642 -0.651,3.294 -1.021,4.936l-2.493 0c0.11,-0.481 0.23,-0.991 0.341,-1.472 -1.212,1.292 -2.433,2.563 -3.645,3.824 -0.02,0.241 -0.04,0.481 -0.069,0.721l5.215 0c1.081,-1.111 2.152,-2.242 3.233,-3.373l0.001 -0.001zm-3.004 -9.96l2.493 0c-0.03,0.11 -0.03,0.2 -0.06,0.31 0.791,-0.881 1.562,-1.732 2.352,-2.613l0.09 -0.65 -2.012 0c0.261,-1.471 0.541,-2.953 0.771,-4.455 -0.51,0.571 -1.021,1.112 -1.502,1.672l0.792 0c-0.141,0.851 -0.281,1.702 -0.431,2.523l-2.353 0c-0.06,0.23 -0.09,0.43 -0.11,0.65l-0.771 0c-0.961,1.082 -1.931,2.153 -2.893,3.234 -0.1,0.1 -0.19,0.21 -0.29,0.31 -0.41,2.493 -0.771,4.955 -1.031,7.268 1.412,-1.502 2.843,-3.014 4.245,-4.515 0.26,-1.251 0.48,-2.473 0.711,-3.744l-0.001 0.01zm-2.472 -2.552l1.731 0c0.961,-1.051 1.902,-2.133 2.863,-3.174l-1.561 0c0.17,-0.961 0.31,-1.932 0.451,-2.923 -1.342,1.532 -2.713,3.073 -4.075,4.605 -0.05,0.28 -0.1,0.561 -0.15,0.841l0.851 0c-0.06,0.23 -0.081,0.43 -0.11,0.651zm142.454 15.686c-0.2,-0.911 -0.4,-1.812 -0.6,-2.783 -0.451,0.961 -0.941,1.872 -1.392,2.783l1.982 0 0.01 0zm-3.143 2.302c0.37,-0.77 0.771,-1.532 1.161,-2.302l-1.471 0c0.11,0.851 0.2,1.622 0.31,2.302zm1.021 -117.083l1.211 0c0.07,-0.84 0.14,-1.681 0.231,-2.522l-3.084 0c0.541,0.851 1.112,1.702 1.642,2.523l0 -0.001zm4.705 104.63c0.09,0.341 0.14,0.651 0.2,0.991 0.171,-0.34 0.341,-0.651 0.541,-0.991l-0.741 0zm0.31 11.853c0.511,-1.011 1.031,-2.032 1.552,-3.054 -0.1,-1.111 -0.19,-2.061 -0.25,-2.672 -0.01,-0.14 -0.03,-0.29 -0.05,-0.431l-2.593 0c0.43,2.072 0.881,4.115 1.331,6.157l0.01 0zm3.434 12.433c-0.029,-0.14 -0.06,-0.291 -0.08,-0.421 -0.06,-0.31 -0.09,-0.61 -0.12,-0.911l-0.16 0c0.13,0.441 0.26,0.891 0.36,1.332zm-4.735 -27.84c-0.62,1.132 -1.221,2.273 -1.842,3.374l2.442 0c-0.2,-1.111 -0.4,-2.242 -0.6,-3.373l0 -0.001zm-4.965 9.25l2.442 0c0.11,0.571 0.231,1.131 0.341,1.672 0.74,-1.361 1.471,-2.783 2.212,-4.204l-3.664 0c-0.451,0.85 -0.881,1.701 -1.331,2.522l0 0.01zm3.063 -5.866c-0.37,-2.042 -0.711,-4.084 -1.081,-6.157l-1.301 0c-0.851,1.502 -1.672,3.034 -2.523,4.545l0.31 1.962 0.431 3.004 2.442 0c0.601,-1.082 1.192,-2.212 1.792,-3.344l-0.06 0 -0.01 -0.01zm-1.702 -10.281c0.08,0.541 0.14,1.081 0.231,1.622l-4.396 0c0.111,0.911 0.231,1.732 0.341,2.493l3.153 0c0.771,-1.362 1.532,-2.723 2.323,-4.115l-1.642 0 -0.01 0zm1.842 -0.34c-0.06,0.14 -0.14,0.26 -0.2,0.34l0.26 0c-0.03,-0.09 -0.03,-0.2 -0.06,-0.34l0 0zm-3.774 17.598l0.571 -1.111 -0.741 0 0.17 1.111zm9.4 23.355l0.34 0c-0.14,-0.14 -0.31,-0.281 -0.48,-0.451 0.06,0.17 0.11,0.31 0.14,0.451l0 0zm1.011 -5.176c-0.04,-0.19 -0.07,-0.38 -0.11,-0.57 -0.03,0.11 -0.08,0.22 -0.14,0.32 0.081,0.101 0.16,0.17 0.25,0.25zm-7.658 1.852l0.08 0.541 0.17 1.251 0.2 0.741 0.061 0c0.23,0.851 0.48,1.672 0.74,2.493l-0.06 0c0.281,0.88 0.541,1.762 0.791,2.642 0.431,0.421 0.881,0.842 1.312,1.262 1.561,-0.411 3.023,-0.831 4.474,-1.251 -0.75,-0.731 -1.491,-1.462 -2.232,-2.193 -1.872,-1.811 -3.714,-3.633 -5.536,-5.475l0 -0.011zm-4.365 -31.553l-0.06 0c0.11,0.941 0.231,1.732 0.341,2.473l0.14 0c-0.14,-0.791 -0.28,-1.622 -0.431,-2.473l0.01 0zm6.807 40.693c0,0 0.01,0 0.021,0l-0.021 0c0,0 0,0 0,0zm6.838 -3.584c0,-0.691 -0.25,-1.442 -0.48,-2.242l-1.813 0c0.771,0.75 1.532,1.491 2.293,2.242zm-6.898 -9.44c-0.26,0.601 -0.54,1.222 -0.821,1.792 1.642,1.672 3.294,3.324 4.936,4.965 -0.601,-2.272 -1.222,-4.515 -1.812,-6.757l-2.303 0zm-2.492 -2.532c-0.2,0.45 -0.4,0.88 -0.601,1.301l0 0.03c0.09,0.431 0.2,0.791 0.31,1.191l2.783 0c0.401,-0.821 0.791,-1.672 1.192,-2.523l-3.694 0.001 0.01 0zm4.194 -8.569c-0.48,0.961 -0.941,1.902 -1.421,2.833l2.042 -0.001c-0.2,-0.941 -0.4,-1.872 -0.62,-2.833l-0.001 0.001zm-1.871 2.843c-0.061,-0.261 -0.11,-0.511 -0.171,-0.771l-3.804 0 0.2 1.531c0.231,1.672 0.451,3.374 0.681,4.966l0.771 0c0.941,-1.902 1.872,-3.804 2.783,-5.737l-0.451 0 -0.009 0.011zm1.821 5.726c-0.03,-0.171 -0.08,-0.341 -0.14,-0.541l2.493 0c0.06,0.2 0.11,0.37 0.14,0.541l0.601 0c-0.06,-0.231 -0.11,-0.451 -0.17,-0.711l0.25 0c-0.05,-0.531 -0.14,-1.071 -0.331,-1.642 -0.21,-0.601 -0.41,-1.812 -0.6,-3.253 -0.921,1.881 -1.792,3.753 -2.693,5.606l0.45 0zm-4.995 -132.599c0.31,-3.374 0.651,-6.807 1.021,-10.241l-0.08 0c-0.371,3.434 -0.711,6.867 -1.021,10.241l0.08 0zm-1.161 -29.421l-0.091 0c-0.029,0.261 -0.089,0.481 -0.11,0.711l0.601 0c-0.11,-0.23 -0.26,-0.451 -0.4,-0.711l0 0zm0 0l3.694 0c-0.481,-0.79 -0.941,-1.641 -1.392,-2.492l-1.902 0c-0.23,0.821 -0.43,1.672 -0.62,2.492l0.14 0c0,0 0.03,-0.089 0.03,-0.11 0.03,0.03 0.06,0.091 0.06,0.11l-0.01 0zm1.812 3.204l3.664 0c-0.481,-0.821 -0.941,-1.642 -1.392,-2.493l-3.694 0c0.451,0.851 0.941,1.672 1.422,2.492l0 0.001zm-3.004 24.345c0,0 -0.029,-0.03 -0.06,-0.03l-1.902 0c0.061,-0.821 0.14,-1.622 0.231,-2.443l-1.302 0c-0.11,0.991 -0.2,2.012 -0.28,3.034l1.191 1.872 1.902 0c0.06,-0.791 0.14,-1.622 0.231,-2.443l-0.011 0.01zm1.162 31.042c0,-0.28 0.03,-0.62 0.03,-0.961 -0.791,-1.131 -1.622,-2.302 -2.413,-3.433l-0.941 0c0,-0.431 0.03,-0.851 0.03,-1.282 -0.851,-1.251 -1.702,-2.523 -2.583,-3.774 -0.03,0.601 -0.06,1.222 -0.09,1.842l0.261 0c-0.03,1.192 -0.081,2.353 -0.111,3.514 1.562,2.242 3.124,4.455 4.686,6.697 0.03,-0.881 0.06,-1.731 0.06,-2.613l1.081 0 -0.01 0.01zm0.961 -27.668c0.06,-0.511 0.09,-0.991 0.14,-1.502l-1.081 0c0.31,0.51 0.62,0.991 0.941,1.502zm-0.141 -34.987l0.621 0c-0.14,-0.26 -0.28,-0.54 -0.43,-0.79l-0.2 0.79 0.009 0zm-0.57 35.837l-2.413 0c0.541,0.851 1.082,1.702 1.622,2.523l0.601 0c0.06,-0.821 0.14,-1.672 0.2,-2.523l-0.01 0zm-0.22 25.857c0.41,0.581 0.81,1.152 1.221,1.732 0.02,-1.031 0.05,-2.032 0.11,-3.033l-1.301 0c0,0.451 -0.03,0.881 -0.03,1.302l0 -0.001zm-3.384 -27.638c-0.06,0.62 -0.11,1.191 -0.17,1.791l1.361 0c-0.37,-0.6 -0.77,-1.161 -1.131,-1.791l-0.06 0zm2.953 13.564l-1.702 0c-0.029,0.85 -0.09,1.672 -0.139,2.492 -0.111,-0.14 -0.201,-0.31 -0.311,-0.48l-0.08 1.621 -3.154 0 -0.06 1.302 2.473 0c0,0.45 -0.03,0.941 -0.06,1.391l0.28 0c-0.06,1.021 -0.09,2.043 -0.14,3.034 0.31,0.43 0.601,0.85 0.911,1.281l0.741 0c0,-0.2 0.03,-0.371 0.03,-0.571l3.133 0 0.1 -1.952c-0.18,-0.26 -0.36,-0.53 -0.54,-0.801l-1.812 0c0.03,-0.821 0.08,-1.641 0.11,-2.472 -0.541,-0.791 -1.081,-1.562 -1.622,-2.323l1.702 0c-0.03,0.771 -0.06,1.532 -0.09,2.323 0.57,0.821 1.131,1.641 1.702,2.472l0.58 0 0.211 -4.204c-0.751,-1.112 -1.522,-2.243 -2.273,-3.344l0 0.231 0.01 0zm0.03 -42.845c-0.17,0.821 -0.37,1.641 -0.54,2.492l0.31 0.001c0.14,-0.821 0.28,-1.642 0.43,-2.493l-0.2 0zm-1.842 9.42c-0.14,0.821 -0.28,1.642 -0.43,2.492l0.681 0c0.11,-0.821 0.23,-1.641 0.31,-2.492l-0.571 0 0.01 0zm2.243 19.29c-0.401,-0.601 -0.771,-1.221 -1.161,-1.812 -0.061,0.601 -0.111,1.221 -0.171,1.812l1.332 0zm-0.631 -26.217c-0.341,2.322 -0.711,4.625 -1.051,6.927l2.042 0c0.11,-0.771 0.231,-1.562 0.341,-2.323l2.492 0c-0.11,0.771 -0.23,1.562 -0.341,2.322l2.223 0.001c0.03,-0.33 0.07,-0.661 0.101,-1.001 -1.132,-1.972 -2.263,-3.934 -3.374,-5.926l-2.443 0 0.01 0zm6.357 0.45c0.01,-0.15 0.03,-0.3 0.04,-0.451l-0.301 0.001c0.09,0.16 0.171,0.3 0.261,0.45l0 0zm-2.103 -11.522l-1.761 0c-0.14,0.431 -0.261,0.851 -0.401,1.282l4.285 0c-0.17,0.85 -0.341,1.701 -0.481,2.522l-3.864 0c0.31,0.541 0.601,1.051 0.881,1.562l3.774 0c-0.14,0.851 -0.31,1.702 -0.451,2.492l-1.932 0c0.111,0.261 0.261,0.481 0.401,0.711l1.952 0c0.191,-1.782 0.42,-3.804 0.671,-5.886 -0.891,-1.652 -1.772,-3.304 -2.653,-4.955 -0.14,0.77 -0.28,1.501 -0.43,2.272l0.009 0zm-0.99 -2.493l1.301 0c-0.28,-0.51 -0.541,-1.021 -0.791,-1.531 -0.17,0.51 -0.34,1.021 -0.51,1.531zm0.51 27.839l1.151 0c0,0 0.01,-0.1 0.02,-0.14 -0.31,-0.52 -0.62,-1.041 -0.941,-1.591 -0.089,0.601 -0.139,1.161 -0.23,1.731zm-1.301 0.591l-2.493 0c0.2,-1.792 0.45,-3.634 0.681,-5.446l-2.013 0c-0.17,1.222 -0.31,2.413 -0.48,3.604l-0.571 -0.991c-0.34,2.353 -0.651,4.715 -0.911,7.118l-0.08 0.711c0.911,1.471 1.842,2.983 2.783,4.454l0.06 0 0 0.03c0,0 0.03,0.06 0.03,0.06 0.261,-2.783 0.571,-5.616 0.851,-8.429l2.413 0c0.17,-1.531 0.37,-3.063 0.571,-4.625 0.23,0.401 0.45,0.791 0.711,1.192 0.029,-0.261 0.06,-0.511 0.09,-0.771l1.111 0c0.09,-0.781 0.17,-1.572 0.26,-2.353l-2.302 0c-0.231,1.812 -0.481,3.664 -0.681,5.446l-0.03 0zm-3.694 18.899c0.08,-0.821 0.11,-1.671 0.2,-2.522l1.191 0c0,0 -0.06,-0.09 -0.11,-0.14l-3.173 0c0,0.341 -0.03,0.681 -0.061,1.051l-1.301 0 -0.06 0.821c1.562,2.383 3.153,4.765 4.735,7.148 0.06,-0.881 0.11,-1.812 0.14,-2.723l2.443 0c0.03,-0.671 0.06,-1.342 0.11,-2.003 -0.36,-0.54 -0.721,-1.091 -1.071,-1.632l-3.033 0 -0.01 0zm9.109 -59.421c0.281,0.571 0.541,1.131 0.821,1.702l0.571 0c0.05,-0.25 0.11,-0.481 0.17,-0.721 -0.09,-0.53 -0.16,-1.061 -0.13,-1.772l-1.091 0c-0.11,0.261 -0.23,0.511 -0.341,0.791zm1.823 -3.854c0.029,0.06 0.06,0.12 0.09,0.17 0.049,-0.22 0.11,-0.451 0.18,-0.691l-0.01 0.001 -0.26 0.51 0 0.01zm-5.136 15.946c0.03,0.091 0.08,0.171 0.11,0.231 0.03,-0.06 0.03,-0.14 0.06,-0.231l-0.17 0zm2.583 -10.38c-0.14,0.28 -0.26,0.601 -0.401,0.88l2.383 0.001c-0.14,-0.28 -0.28,-0.601 -0.431,-0.881l-1.561 0 0.01 0zm2.652 2.222c-0.04,-0.45 -0.08,-0.901 -0.13,-1.351l-0.54 0c0.23,0.46 0.451,0.901 0.671,1.351l-0.001 0zm-4.534 2.403c0.931,1.832 1.862,3.684 2.813,5.516 0.42,-2.673 0.881,-5.096 1.372,-6.768l-3.695 0c-0.17,0.401 -0.34,0.821 -0.48,1.252l-0.01 0zm-8.279 76.299l-2.353 0c0.03,-0.541 0.03,-1.051 0.06,-1.592l-0.31 0 -0.03 1.672c-0.03,0.621 -0.03,1.251 -0.06,1.872 0.43,0.571 0.821,1.132 1.251,1.702l1.422 0c0,-1.221 0,-2.442 0.03,-3.664l-0.01 0.01zm-0.881 33.595c0.54,-0.821 1.111,-1.641 1.672,-2.492l-2.103 -0.001c0,-0.17 -0.029,-0.34 -0.029,-0.54l2.472 0c0.571,-0.821 1.161,-1.672 1.732,-2.492l-3.694 0c-0.601,0.88 -1.191,1.761 -1.792,2.642 0.06,1.472 0.09,2.893 0.14,4.315l0.06 0.881c0.401,-0.621 0.791,-1.221 1.221,-1.842 -0.029,-0.14 -0.029,-0.28 -0.029,-0.451l0.34 0 0.01 -0.02zm1.191 21.793c-0.45,0.741 -0.881,1.451 -1.331,2.182l0.029 0.31 0.942 0c0.31,2.753 0.681,5.476 1.021,8.199l0.941 0c-0.451,-3.574 -0.911,-7.117 -1.302,-10.701l-0.28 0 -0.02 0.01zm-0.991 -13.274c0.31,-0.48 0.621,-0.961 0.941,-1.451l-1.051 0c0.06,0.48 0.09,0.961 0.11,1.451l0 0zm4.335 -6.587c0.06,0.881 0.08,1.762 0.14,2.643l-1.902 0c-0.541,0.851 -1.112,1.672 -1.642,2.493l3.694 0c0.06,-0.111 0.14,-0.231 0.2,-0.341 0.11,1.642 0.26,3.263 0.371,4.885l1.311 0c-0.21,-3.543 -0.4,-7.017 -0.59,-10.27l-1.182 0c-0.14,0.2 -0.26,0.4 -0.4,0.601l0 -0.011zm1.992 21.142c0.3,-0.47 0.59,-0.97 0.891,-1.451 -0.211,-2.533 -0.4,-5.085 -0.561,-7.638l-1.231 0c0.26,3.033 0.57,6.076 0.911,9.079l-0.01 0.01zm-0.941 -0.77l0.771 0c-0.31,-2.753 -0.571,-5.536 -0.821,-8.319l0.08 0c-0.08,-0.791 -0.14,-1.592 -0.23,-2.383l-0.171 0c-0.11,-1.501 -0.23,-3.033 -0.34,-4.544l-0.06 0c-1.532,2.322 -3.063,4.685 -4.545,7.037l1.251 0c0.061,0.851 0.14,1.672 0.231,2.493l-2.523 0 0.03 0.2c0.11,1.701 0.26,3.373 0.4,4.995l1.532 0c0.09,-0.11 0.14,-0.23 0.231,-0.37 0.029,0.14 0.029,0.26 0.06,0.37l3.153 0c0.09,0.851 0.17,1.702 0.28,2.493l-1.592 0c0.311,2.752 0.681,5.475 1.022,8.198l-1.562 0c0.06,0.37 0.09,0.771 0.14,1.131l3.033 0c0.171,-0.34 0.371,-0.651 0.601,-0.991l-0.711 0c-0.09,-0.821 -0.2,-1.672 -0.31,-2.492l0.941 0c-0.03,-0.281 -0.06,-0.571 -0.11,-0.851l1.842 0c-0.181,-1.462 -0.341,-2.963 -0.491,-4.485l-1.832 0c-0.11,-0.821 -0.2,-1.642 -0.28,-2.493l-0.02 0.011zm1.421 10.33c0.03,0.341 0.09,0.651 0.14,0.991l-1.191 0c-0.48,0.851 -0.961,1.672 -1.451,2.493l3.003 0c0.06,0.31 0.11,0.62 0.14,0.911 0.43,-0.751 0.871,-1.512 1.311,-2.263 -0.26,-1.601 -0.5,-3.273 -0.721,-4.995 -0.58,0.951 -1.141,1.912 -1.701,2.863l0.45 0 0.02 0zm-8.91 -43.675l0.401 -0.561 -0.401 0 0 0.561zm3.234 -38.05c0.2,0.31 0.4,0.601 0.601,0.881 0.03,-0.281 0.03,-0.571 0.06,-0.881l-0.651 0 -0.01 0zm2.243 86.861c0.31,-0.541 0.62,-1.082 0.941,-1.642l-1.192 0c0.091,0.571 0.171,1.111 0.261,1.642l-0.01 0zm-4.565 -24.656l0.45 0c-0.09,-0.941 -0.17,-1.902 -0.26,-2.863l1.131 0c-0.06,-0.571 -0.08,-1.131 -0.14,-1.732l-1.331 2.072c0.03,0.881 0.09,1.702 0.14,2.523l0.01 0zm12.203 34.706c0,0 0,-0.06 -0.01,-0.09 -0.02,0.03 -0.03,0.06 -0.05,0.09l0.06 0zm-10.281 -14.195c0.09,0.821 0.2,1.672 0.31,2.493l2.072 0c-0.11,-0.821 -0.26,-1.642 -0.4,-2.493l-1.982 0zm-1.752 -17.788c0.37,-0.571 0.741,-1.161 1.111,-1.732l-1.221 0c0.06,0.601 0.09,1.161 0.11,1.731l0 0.001zm10.691 25.647l-0.941 0c0.171,0.941 0.341,1.872 0.481,2.782 0.31,-0.55 0.62,-1.111 0.931,-1.672 -0.14,-0.79 -0.27,-1.561 -0.41,-2.332l-0.271 0c0.061,0.431 0.11,0.821 0.2,1.222l0.01 0zm-4.164 -70.794c0,-0.211 0,-0.42 0,-0.621l-0.43 0c0.139,0.22 0.29,0.42 0.43,0.62l0 0.001zm-2.362 -0.621l1.932 0c-0.651,-0.851 -1.282,-1.762 -1.932,-2.643l0 2.643zm-3.915 0l-1.281 0c-0.03,0.851 -0.03,1.702 -0.06,2.523l2.182 0c0.14,-0.2 0.31,-0.431 0.481,-0.651 -0.451,-0.621 -0.911,-1.221 -1.332,-1.872l0.01 0zm2.243 2.523l-1.392 0c-0.741,1.021 -1.471,2.042 -2.212,3.033 0,1.221 -0.03,2.412 -0.03,3.604l3.263 -0.001c1.451,-2.022 2.923,-4.024 4.405,-6.056 0,-0.19 0,-0.391 0,-0.581l-4.034 0.001zm-3.324 -10.271l0.28 0c0,-0.511 0,-1.051 0.03,-1.592 -0.09,-0.09 -0.17,-0.2 -0.26,-0.34 -0.03,0.65 -0.03,1.281 -0.06,1.931l0.01 0.001zm0.661 -14.756c-0.061,1.112 -0.11,2.213 -0.171,3.344l2.493 0c-0.771,-1.131 -1.531,-2.302 -2.322,-3.434l0 0.09zm4.905 49.402l-1.902 0c-0.11,0.2 -0.23,0.37 -0.34,0.541l1.672 -0.001c0.029,0.851 0.09,1.672 0.139,2.493l-3.493 0c-0.11,0.171 -0.231,0.311 -0.311,0.451 0.061,1.392 0.14,2.753 0.231,4.114l2.863 0c0.57,-0.881 1.161,-1.762 1.762,-2.643 0,-0.2 -0.03,-0.4 -0.03,-0.6l0.43 0c0.361,-0.541 0.721,-1.072 1.091,-1.632 0,-0.05 0,-0.11 0,-0.16 0,-0.171 -0.01,-0.341 -0.02,-0.511l-1.962 0c-0.06,-0.68 -0.08,-1.361 -0.11,-2.072l-0.02 0.02zm1.842 -5.476c0,0 0,0 0,0 0,-0.68 -0.02,-1.351 -0.03,-2.042l-0.03 0c0.03,0.681 0.06,1.361 0.06,2.042zm5.166 58.822c-0.11,-0.511 -0.2,-0.991 -0.31,-1.502 -0.401,0.741 -0.771,1.471 -1.162,2.182l2.102 0c0.11,0.551 0.22,1.091 0.331,1.632 -0.091,-0.741 -0.181,-1.491 -0.291,-2.252 0,-0.02 0,-0.04 -0.01,-0.05l-0.65 0 -0.01 -0.01zm-12.424 -61.915l0.741 0c0.06,2.012 0.14,4.054 0.231,6.076l0.6 0.001c1.872,-2.693 3.714,-5.416 5.616,-8.119 0,-0.01 0.02,-0.02 0.03,-0.04 -0.03,-2.112 -0.2,-4.205 -0.2,-6.407 0,-0.49 0.02,-0.951 0.04,-1.431 -0.581,0.81 -1.161,1.621 -1.742,2.422 -1.792,2.473 -3.544,5.026 -5.306,7.488l-0.01 0.01zm5.246 6.066l0.541 0c0.029,0.681 0.06,1.362 0.08,2.043l1.511 0c-0.06,-1.632 -0.09,-3.244 -0.11,-4.855 0,-0.06 0,-0.11 0,-0.16 -0.651,0.991 -1.331,1.982 -2.012,2.983l-0.01 -0.011zm-1.102 -12.733c0,-0.791 0,-1.642 -0.029,-2.493l-1.302 0c-0.601,0.851 -1.191,1.702 -1.792,2.493l3.123 0zm-4.604 2.092l1.471 -2.102 -1.471 0 0 2.102z"/>
   </g>
  </g>
  <path fill="none" d="M207.298 27.894c-0.11,-0.063 -0.222,-0.122 -0.337,-0.177 -4.975,-2.38 -9.714,-5.334 -14.858,-7.149 -4.647,-1.639 -11.454,-2.699 -17.288,-4.719 -2.277,-0.789 -4.556,-1.589 -6.82,-2.415l-0.004 -0.03 -9.999 -4.08 -0.175 -0.072c-0.614,-0.28 -1.553,-1.207 -2.512,-1.889 -0.494,-0.369 -0.613,-0.563 -1.038,-0.905 -2.856,-2.299 -5.606,-5.635 -9.574,-5.641 -0.901,-0.002 -1.04,-0.123 -1.779,-0.163l-7.601 -0.17c-5.892,-0.486 -12.055,-0.501 -18.06,-0.477 -5.087,0.02 -9.557,0.063 -14.567,0.477 -2.529,0.209 -4.996,0.029 -7.6,0.17 -0.739,0.04 -0.878,0.161 -1.779,0.163 -3.968,0.006 -6.718,3.342 -9.575,5.641 -0.424,0.342 -0.543,0.536 -1.037,0.905 -0.741,0.527 -1.471,1.2 -2.047,1.608 -0.17,0.121 -0.326,0.218 -0.465,0.281l-10.174 4.152 -0.003 0.03c-2.265,0.826 -4.544,1.626 -6.821,2.415 -5.834,2.02 -12.641,3.08 -17.288,4.719 -5.144,1.815 -9.883,4.769 -14.858,7.149 -0.212,0.101 -0.412,0.215 -0.605,0.339 -0.909,0.583 -1.664,1.379 -2.651,2.001 -11.263,7.099 -18.243,27.467 -21.401,39.215 -1.569,5.839 -1.98,12.983 -2.969,19.04 -0.5,3.067 -1.172,6.193 -1.752,9.253 -0.585,3.095 -0.872,6.493 -1.288,9.631 -0.406,0.268 -0.327,-0.023 -0.308,0.899l-0.065 1.854 0 8.783c0.041,1.018 0.102,1.813 0.186,2.164 1.125,0.477 3.706,0.514 5.07,0.712 7.662,1.114 9.041,0.828 15.791,1.554l21.547 1.349c-0.015,-1.623 0.547,-10.725 0.578,-13.424l-0.603 -0.316 -0.07 -0.036c0,-4.476 -0.011,-9.226 -0.011,-13.7 1.678,4.247 3.328,18.944 3.789,24.023 0.735,8.116 1.826,16.186 2.512,24.347 0.348,4.137 0.874,8.269 1.009,12.419l0.653 12.776c0.396,4.199 0.208,8.934 0.274,13.179 0.032,2.062 0.194,4.007 0.186,6.13 -0.007,2.226 -0.172,4.349 -0.196,6.512 -0.051,4.469 -0.054,8.634 -0.319,13.111 -0.68,11.475 -1.257,26.076 -3.267,37.02 -0.966,5.407 -2.177,11.944 -2.754,17.389 -0.258,2.432 -0.827,10.057 -1.468,11.951 -0.68,2.01 -0.163,3.658 -0.568,5.77 -0.342,1.785 -0.742,3.812 -1.164,5.568 -0.463,1.93 -1.435,3.647 0.397,4.966 4.276,1.054 8.552,2.108 13.913,3.017 5.36,0.909 11.804,1.672 18.03,2.048 6.226,0.375 12.232,0.363 21.568,0.476 9.335,0.112 21.999,0.351 32.523,0.382 10.525,0.032 18.909,-0.144 26.242,-0.419 7.333,-0.275 13.615,-0.65 19.058,-1.151 5.443,-0.501 10.048,-1.126 13.829,-1.873 3.78,-0.746 6.736,-1.613 9.693,-2.48 1.832,-1.319 0.86,-3.036 0.397,-4.966 -0.422,-1.756 -0.822,-3.783 -1.164,-5.568 -0.405,-2.112 0.112,-3.76 -0.568,-5.77 -0.641,-1.894 -1.21,-9.519 -1.468,-11.951 -0.577,-5.445 -1.788,-11.982 -2.754,-17.389 -2.01,-10.944 -2.587,-25.545 -3.267,-37.02 -0.265,-4.477 -0.268,-8.642 -0.319,-13.111 -0.024,-2.163 -0.189,-4.286 -0.196,-6.512 -0.008,-2.123 0.154,-4.068 0.186,-6.13 0.066,-4.245 -0.122,-8.98 0.274,-13.179l0.653 -12.776c0.135,-4.15 0.661,-8.282 1.009,-12.419 0.686,-8.161 1.777,-16.231 2.512,-24.347 0.461,-5.079 1.889,-19.043 3.568,-23.29 0,4.474 -0.105,8.584 -0.105,13.06l0 0 -0.416 0.247c-0.004,0.882 0.338,12.091 0.604,13.423l21.579 -1.336c6.75,-0.726 8.129,-0.44 15.791,-1.554 1.364,-0.198 3.945,-0.235 5.07,-0.712 0.084,-0.351 0.145,-1.146 0.186,-2.164l0 -8.783 -0.065 -1.854c0.014,-0.687 0.062,-0.7 -0.083,-0.774 -0.05,-0.025 -0.122,-0.057 -0.225,-0.125 -0.416,-3.138 -0.703,-6.536 -1.288,-9.631 -0.58,-3.06 -1.252,-6.186 -1.752,-9.253 -0.989,-6.057 -1.4,-13.201 -2.969,-19.04 -3.158,-11.748 -10.138,-32.116 -21.401,-39.215 -1.057,-0.665 -1.895,-1.576 -2.919,-2.163z"/>
 </g>
</svg>
