<?xml version="1.0" encoding="utf-8"?>
<!-- Generator: Adobe Illustrator 16.0.3, SVG Export Plug-In . SVG Version: 6.00 Build 0)  -->
<!DOCTYPE svg PUBLIC "-//W3C//DTD SVG 1.1//EN" "http://www.w3.org/Graphics/SVG/1.1/DTD/svg11.dtd">
<svg version="1.1"
	 id="Layer_1" shape-rendering="geometricPrecision" text-rendering="geometricPrecision" image-rendering="optimizeQuality" xmlns:xodm="http://www.corel.com/coreldraw/odm/2003"
	 xmlns="http://www.w3.org/2000/svg" xmlns:xlink="http://www.w3.org/1999/xlink" x="0px" y="0px" width="240px" height="296px"
	 viewBox="0 0 240 296" enable-background="new 0 0 240 296" xml:space="preserve">
<linearGradient id="SVGID_1_" gradientUnits="userSpaceOnUse" x1="120.8008" y1="296" x2="120.8008" y2="4.882813e-004">
	<stop  offset="0.25" style="stop-color:#F00808"/>
	<stop  offset="0.75" style="stop-color:#F00808;stop-opacity:0"/>
</linearGradient>
<path fill="url(#SVGID_1_)" d="M197.656,96.203c0.031-0.569,0.063-1.137-0.074-1.759s-0.446-1.298-0.6-1.637
	c-0.154-0.337-0.154-0.337-0.162-0.589c-0.006-0.251-0.02-0.753,0.221-1.778c0.242-1.025,0.738-2.572,1.397-4.639
	c0.659-2.067,1.483-4.653,2.312-7.955c0.826-3.302,1.657-7.321,2.441-13.175c0.783-5.855,1.52-13.545,2.344-18.884
	s1.735-8.327,2.713-11.16c0.792-2.293,1.628-4.486,2.473-6.66c-0.032-0.08-0.043-0.159-0.05-0.214
	c-0.009-0.077-0.009-0.109-0.069-0.175c-0.061-0.065-0.181-0.163-1.307-0.713c-1.125-0.55-3.255-1.553-5.304-2.599
	c-2.048-1.048-4.015-2.14-5.765-2.973s-3.281-1.405-5.055-1.955s-3.789-1.078-5.424-1.505c-1.635-0.427-2.892-0.753-3.758-1.007
	c-0.867-0.254-1.344-0.435-2.043-0.699c-0.697-0.266-1.617-0.614-2.604-0.909c-0.985-0.294-2.039-0.533-2.713-0.687
	c-0.674-0.152-0.97-0.221-1.438-0.471c-0.467-0.25-1.104-0.681-1.58-0.935c-0.475-0.254-0.786-0.33-1.07-0.364
	c-0.287-0.035-0.545-0.03-0.777-0.03s-0.438-0.005-1.342-0.33c-0.902-0.325-2.503-0.971-4.021-1.575s-2.955-1.167-4.399-1.746
	s-2.896-1.175-3.812-1.567c-0.916-0.393-1.295-0.584-1.593-0.778c-0.298-0.195-0.513-0.392-0.704-0.498
	c-0.191-0.104-0.355-0.115-0.465-0.115c-0.079-0.001-0.129,0.004-0.184,0.002c-0.021-0.001-0.043-0.003-0.068-0.007
	c-0.086-0.013-0.204-0.052-0.586-0.291c-0.382-0.24-1.027-0.683-1.676-1.192c-0.65-0.509-1.303-1.087-1.955-1.659
	c-0.652-0.571-1.303-1.137-2.309-1.567c-1.006-0.43-2.367-0.727-3.719-0.918c-1.352-0.191-2.693-0.276-4.572-0.354
	c-1.879-0.078-4.295-0.148-7.922-0.13c-3.628,0.018-8.465,0.123-12.901,0.219c-4.435,0.096-8.466,0.183-10.586,0.231
	c-2.121,0.047-2.33,0.057-4.148,0.202s-5.244,0.427-7.396,0.67c-2.153,0.244-3.032,0.45-3.748,0.707
	c-0.715,0.256-1.269,0.563-1.884,1.078s-1.293,1.239-2.017,1.875c-0.724,0.637-1.492,1.187-1.95,1.458
	c-0.104,0.062-0.192,0.108-0.27,0.146c-0.264,0.127-0.404,0.141-0.631,0.219c-0.293,0.102-0.733,0.313-1.266,0.581
	c-0.533,0.27-1.158,0.596-1.918,0.921s-1.655,0.649-2.299,0.903c-0.644,0.254-1.038,0.437-1.512,0.628
	c-0.473,0.191-1.026,0.39-1.763,0.62c-0.737,0.231-1.659,0.496-2.555,0.835c-0.895,0.34-1.764,0.758-2.57,1.075
	c-0.806,0.316-1.551,0.532-2.296,0.748c-0.747,0.216-1.495,0.432-2.051,0.655c-0.556,0.222-0.921,0.451-1.206,0.635
	c-0.285,0.185-0.492,0.326-1,0.476c-0.507,0.149-1.316,0.31-1.911,0.462c-0.596,0.154-0.978,0.3-1.486,0.491
	c-0.51,0.192-1.146,0.428-1.749,0.616c-0.602,0.189-1.169,0.33-1.686,0.459c-0.515,0.129-0.979,0.247-1.697,0.425
	c-0.718,0.179-1.692,0.417-2.548,0.632c-0.856,0.216-1.596,0.408-2.169,0.57c-0.573,0.161-0.979,0.292-1.435,0.425
	c-0.455,0.134-0.961,0.271-1.425,0.399c-0.464,0.129-0.886,0.25-1.31,0.377c-0.424,0.128-0.85,0.262-1.202,0.398
	c-0.353,0.137-0.632,0.276-1.012,0.437c-0.38,0.159-0.861,0.338-1.277,0.53c-0.417,0.191-0.768,0.393-1.165,0.602
	s-0.837,0.423-1.219,0.616c-0.382,0.194-0.704,0.365-1.125,0.587c-0.421,0.223-0.939,0.496-1.656,0.865
	c-0.715,0.371-1.629,0.837-2.69,1.369c-1.063,0.532-2.273,1.126-3.178,1.573c-0.904,0.448-1.502,0.746-2.035,1.087
	c-0.532,0.34-1,0.722-1.442,1.079c-0.059,0.048-0.119,0.095-0.177,0.143c0.044,0.197,0.099,0.412,0.166,0.648
	c0.328,1.172,0.945,2.895,1.736,5.806c0.791,2.91,1.755,7.01,2.519,10.961c0.764,3.953,1.327,7.757,1.97,12.138
	c0.643,4.381,1.367,9.338,2.237,13.913c0.872,4.575,1.889,8.769,2.841,12.09c0.951,3.323,1.834,5.775,2.264,7.419
	c0.428,1.645,0.401,2.482,0.361,3.007c-0.041,0.526-0.094,0.74-0.225,1.07c-0.131,0.331-0.341,0.777-0.55,1.223
	c0.08-0.048,0.183-0.053,0.308,0.04c0.124,0.093,0.27,0.284,0.344,0.375c0.074,0.091,0.076,0.083,0.078,0.08
	c0.001-0.003,0.001-0.003,0.115,0.253c0.115,0.256,0.344,0.769,0.597,1.462c0.254,0.693,0.533,1.568,0.762,2.504
	c0.229,0.938,0.407,1.937,0.606,3.543c0.2,1.607,0.421,3.82,0.738,6.223c0.316,2.403,0.728,4.995,1.467,11.38
	c0.738,6.386,1.803,16.564,2.638,24.487c0.834,7.922,1.437,13.589,1.809,19.678s0.512,12.601,0.502,19.633
	c-0.01,7.033-0.171,14.59-0.373,20.589c-0.2,5.997-0.442,10.439-0.724,14.408c-0.281,3.968-0.603,7.465-1.446,14.146
	c-0.844,6.683-2.21,16.549-3.004,23.753c-0.794,7.205-1.015,11.746-1.216,15.252c-0.202,3.507-0.382,5.979-0.673,8.114
	s-0.694,3.934-0.972,5.31c-0.279,1.377-0.435,2.331-0.452,2.932c-0.018,0.6,0.103,0.847,0.249,0.975s0.317,0.139,0.5,0.175
	c0.184,0.036,0.38,0.099,0.469,0.155c0.019,0.011,0.032,0.021,0.042,0.037c0.875,0.321,1.75,0.644,3.15,0.924
	c1.401,0.279,3.326,0.517,6.487,0.753c3.16,0.236,7.553,0.471,11.087,0.608c3.534,0.137,6.206,0.178,9.583,0.181
	c3.376,0.003,7.456-0.03,11.317-0.007s7.505,0.104,10.581,0.191c3.074,0.087,5.58,0.181,7.908,0.251
	c2.328,0.07,4.478,0.116,6.782,0.17c2.304,0.054,4.763,0.114,7.349,0.121c2.586,0.007,5.298-0.04,8.031-0.097
	c2.732-0.057,5.486-0.124,7.945-0.221c2.457-0.098,4.621-0.225,7.009-0.355c2.389-0.131,5.001-0.265,8.253-0.492
	s7.144-0.55,10.459-0.852c3.316-0.301,6.056-0.583,8.786-0.947c2.729-0.365,5.448-0.813,7.646-1.249s3.873-0.858,5.995-1.329
	c2.124-0.473,4.696-0.996,6.589-1.32c1.891-0.324,3.104-0.453,4.264-0.536c1.158-0.083,2.264-0.124,3.15-0.116
	c0.888,0.008,1.558,0.063,1.954,0.094s0.519,0.038,0.61,0.043c0.049,0.002,0.091,0.004,0.127,0.006
	c0.094-0.068,0.163-0.18,0.178-0.777c0.016-0.674-0.037-1.964-0.107-2.783c-0.067-0.818-0.153-1.166-0.284-1.854
	c-0.13-0.688-0.307-1.719-0.65-2.683c-0.344-0.966-0.856-1.864-1.474-3.042c-0.619-1.178-1.342-2.636-1.782-3.612
	c-0.438-0.978-0.595-1.476-0.847-2.69c-0.25-1.216-0.598-3.15-0.951-5.865c-0.354-2.716-0.716-6.212-1.037-8.875
	c-0.322-2.662-0.604-4.49-1.08-7.551c-0.478-3.06-1.15-7.35-1.709-11.51c-0.557-4.159-0.999-8.188-1.346-12.213
	c-0.346-4.023-0.598-8.043-0.759-11.625c-0.16-3.582-0.23-6.727-0.286-9.776s-0.095-6.003-0.156-9.249
	c-0.06-3.245-0.141-6.781-0.107-12.024c0.032-5.242,0.178-12.19,0.352-17.448c0.174-5.257,0.375-8.824,0.651-12.793
	c0.275-3.969,0.628-8.34,0.974-12.258c0.347-3.918,0.688-7.385,1.121-11.731c0.432-4.345,0.955-9.57,1.482-13.976
	s1.059-7.993,1.509-10.608c0.45-2.614,0.816-4.257,1.138-5.303c0.322-1.044,0.598-1.492,0.803-1.763S197.59,96.25,197.656,96.203z"
	/>
</svg>
