<?xml version="1.0" encoding="UTF-8"?>
<!DOCTYPE svg PUBLIC "-//W3C//DTD SVG 1.1//EN" "http://www.w3.org/Graphics/SVG/1.1/DTD/svg11.dtd">
<!-- Creator: CorelDRAW -->
<svg xmlns="http://www.w3.org/2000/svg" xml:space="preserve" width="240px" height="296px" version="1.1" shape-rendering="geometricPrecision" text-rendering="geometricPrecision" image-rendering="optimizeQuality" fill-rule="evenodd" clip-rule="evenodd"
viewBox="0 0 240 296.307"
 xmlns:xlink="http://www.w3.org/1999/xlink"
 xmlns:xodm="http://www.corel.com/coreldraw/odm/2003">
 <defs>
   <clipPath id="id0">
    <path d="M136.796 295.988c2.461,-0.097 4.626,-0.225 7.017,-0.355 2.39,-0.131 5.006,-0.265 8.261,-0.493 3.256,-0.228 7.151,-0.55 10.471,-0.852 3.319,-0.302 6.061,-0.583 8.794,-0.949 2.732,-0.365 5.455,-0.814 7.654,-1.25 2.2,-0.436 3.876,-0.858 6.001,-1.331 2.126,-0.473 4.701,-0.996 6.595,-1.321 1.894,-0.325 3.108,-0.453 4.268,-0.536 1.16,-0.084 2.267,-0.124 3.155,-0.117 0.889,0.008 1.559,0.063 1.956,0.094 0.396,0.031 0.518,0.038 0.611,0.043 0.049,0.002 0.09,0.004 0.127,0.006 0.093,-0.07 0.162,-0.18 0.177,-0.779 0.016,-0.673 -0.037,-1.966 -0.106,-2.786 -0.069,-0.819 -0.154,-1.166 -0.285,-1.855 -0.131,-0.689 -0.307,-1.72 -0.651,-2.686 -0.345,-0.965 -0.858,-1.866 -1.476,-3.045 -0.619,-1.179 -1.343,-2.638 -1.783,-3.616 -0.44,-0.978 -0.596,-1.476 -0.848,-2.693 -0.251,-1.217 -0.598,-3.153 -0.953,-5.871 -0.354,-2.718 -0.716,-6.219 -1.038,-8.884 -0.322,-2.666 -0.603,-4.496 -1.081,-7.559 -0.478,-3.062 -1.152,-7.357 -1.71,-11.521 -0.558,-4.164 -1.001,-8.198 -1.348,-12.226 -0.347,-4.028 -0.598,-8.051 -0.759,-11.637 -0.161,-3.586 -0.231,-6.734 -0.287,-9.787 -0.055,-3.052 -0.095,-6.01 -0.156,-9.258 -0.06,-3.249 -0.14,-6.79 -0.108,-12.037 0.033,-5.248 0.179,-12.203 0.352,-17.466 0.174,-5.263 0.375,-8.834 0.652,-12.807 0.276,-3.973 0.628,-8.348 0.975,-12.271 0.347,-3.922 0.689,-7.393 1.122,-11.743 0.432,-4.35 0.955,-9.58 1.483,-13.99 0.528,-4.411 1.061,-8.002 1.512,-10.619 0.45,-2.618 0.817,-4.262 1.139,-5.308 0.321,-1.046 0.598,-1.494 0.803,-1.766 0.205,-0.271 0.338,-0.367 0.405,-0.414 0.066,-0.048 0.066,-0.048 0.049,0.598 -0.018,0.646 -0.053,1.939 -0.108,3.533 -0.056,1.594 -0.131,3.49 -0.173,4.967 -0.041,1.478 -0.049,2.536 -0.079,3.186 -0.03,0.65 -0.083,0.892 -0.102,1.011 -0.018,0.119 -0.003,0.117 -0.041,0.151 -0.038,0.034 -0.128,0.104 -0.133,0.68 -0.005,0.576 0.075,1.657 0.192,3.051 0.117,1.395 0.27,3.102 0.322,4.786 0.051,1.683 0.001,3.343 0.002,4.231 0,0.887 0.052,1.003 0.132,1.078 0.08,0.076 0.188,0.111 1.001,0.06 0.814,-0.051 2.333,-0.188 4.105,-0.324 1.773,-0.137 3.8,-0.273 5.955,-0.431 2.155,-0.158 4.438,-0.339 6.588,-0.463 2.15,-0.123 4.166,-0.188 5.992,-0.299 1.826,-0.111 3.46,-0.267 5.336,-0.47 1.876,-0.204 3.993,-0.455 6.015,-0.682 2.021,-0.226 3.947,-0.427 5.109,-0.565 1.162,-0.139 1.559,-0.214 1.758,-0.327 0.199,-0.113 0.199,-0.264 0.229,-0.906 0.03,-0.641 0.09,-1.772 0.108,-3.132 0.017,-1.361 -0.008,-2.95 -0.023,-4.429 -0.015,-1.478 -0.02,-2.846 -0.038,-3.724 -0.017,-0.877 -0.047,-1.264 -0.071,-1.469 -0.025,-0.205 -0.043,-0.227 -0.083,-0.294 -0.04,-0.068 -0.103,-0.181 -0.174,-0.682 -0.071,-0.5 -0.152,-1.388 -0.255,-2.32 -0.103,-0.933 -0.229,-1.911 -0.348,-2.739 -0.12,-0.827 -0.233,-1.504 -0.413,-2.544 -0.179,-1.042 -0.426,-2.447 -0.613,-3.449 -0.187,-1.002 -0.316,-1.601 -0.436,-2.27 -0.121,-0.668 -0.234,-1.408 -0.366,-2.121 -0.132,-0.713 -0.283,-1.399 -0.425,-2.156 -0.142,-0.757 -0.275,-1.584 -0.375,-2.322 -0.099,-0.738 -0.165,-1.387 -0.239,-2.029 -0.074,-0.643 -0.157,-1.279 -0.257,-2.036 -0.101,-0.757 -0.219,-1.634 -0.34,-2.526 -0.121,-0.891 -0.244,-1.796 -0.353,-2.565 -0.11,-0.768 -0.205,-1.399 -0.373,-2.344 -0.168,-0.945 -0.408,-2.203 -0.82,-4.085 -0.412,-1.881 -0.995,-4.386 -1.704,-6.89 -0.709,-2.505 -1.544,-5.009 -2.651,-7.745 -1.106,-2.736 -2.484,-5.703 -4.093,-8.851 -1.61,-3.149 -3.45,-6.478 -4.878,-8.781 -1.429,-2.304 -2.444,-3.581 -3.453,-4.629 -1.008,-1.049 -2.009,-1.869 -3.015,-2.608 -1.006,-0.739 -2.017,-1.398 -2.582,-1.773 -0.566,-0.375 -0.687,-0.465 -0.756,-0.571 -0.069,-0.105 -0.087,-0.226 -0.095,-0.303 -0.009,-0.077 -0.009,-0.109 -0.07,-0.174 -0.06,-0.066 -0.181,-0.164 -1.307,-0.714 -1.127,-0.551 -3.259,-1.555 -5.31,-2.603 -2.05,-1.048 -4.019,-2.142 -5.77,-2.976 -1.752,-0.833 -3.286,-1.407 -5.061,-1.957 -1.775,-0.551 -3.792,-1.079 -5.429,-1.507 -1.637,-0.427 -2.894,-0.754 -3.762,-1.008 -0.867,-0.254 -1.345,-0.435 -2.044,-0.7 -0.699,-0.266 -1.619,-0.615 -2.606,-0.909 -0.987,-0.295 -2.041,-0.533 -2.716,-0.687 -0.675,-0.153 -0.972,-0.221 -1.44,-0.471 -0.467,-0.25 -1.106,-0.683 -1.581,-0.937 -0.475,-0.254 -0.787,-0.329 -1.073,-0.365 -0.285,-0.035 -0.544,-0.03 -0.777,-0.03 -0.232,0 -0.438,-0.005 -1.342,-0.33 -0.904,-0.326 -2.506,-0.972 -4.026,-1.577 -1.52,-0.605 -2.959,-1.168 -4.404,-1.748 -1.446,-0.579 -2.9,-1.175 -3.816,-1.569 -0.917,-0.393 -1.297,-0.584 -1.594,-0.779 -0.298,-0.194 -0.514,-0.392 -0.705,-0.497 -0.191,-0.105 -0.356,-0.116 -0.467,-0.117 -0.11,0 -0.164,0.01 -0.251,-0.004 -0.086,-0.014 -0.204,-0.052 -0.587,-0.292 -0.382,-0.24 -1.028,-0.682 -1.678,-1.193 -0.65,-0.51 -1.304,-1.089 -1.956,-1.661 -0.653,-0.572 -1.304,-1.138 -2.311,-1.569 -1.007,-0.431 -2.37,-0.728 -3.723,-0.919 -1.353,-0.191 -2.695,-0.276 -4.576,-0.354 -1.881,-0.078 -4.3,-0.149 -7.931,-0.131 -3.631,0.017 -8.474,0.123 -12.914,0.219 -4.439,0.096 -8.475,0.183 -10.597,0.231 -2.123,0.048 -2.332,0.058 -4.152,0.203 -1.82,0.145 -5.249,0.427 -7.404,0.671 -2.155,0.244 -3.035,0.45 -3.752,0.707 -0.717,0.256 -1.27,0.563 -1.886,1.078 -0.616,0.516 -1.295,1.24 -2.019,1.877 -0.725,0.638 -1.494,1.189 -1.953,1.46 -0.459,0.272 -0.607,0.264 -0.901,0.366 -0.295,0.102 -0.735,0.313 -1.268,0.582 -0.533,0.269 -1.159,0.596 -1.919,0.922 -0.761,0.325 -1.656,0.65 -2.301,0.904 -0.645,0.254 -1.04,0.437 -1.514,0.628 -0.474,0.192 -1.027,0.39 -1.765,0.621 -0.738,0.232 -1.661,0.496 -2.558,0.836 -0.896,0.341 -1.766,0.759 -2.573,1.076 -0.808,0.316 -1.552,0.533 -2.299,0.749 -0.746,0.216 -1.496,0.432 -2.053,0.655 -0.557,0.222 -0.921,0.451 -1.207,0.636 -0.285,0.185 -0.491,0.326 -0.999,0.476 -0.508,0.15 -1.318,0.31 -1.914,0.463 -0.596,0.154 -0.978,0.301 -1.488,0.492 -0.51,0.192 -1.147,0.429 -1.75,0.617 -0.603,0.189 -1.171,0.329 -1.687,0.459 -0.516,0.13 -0.98,0.248 -1.7,0.426 -0.719,0.179 -1.693,0.418 -2.551,0.633 -0.857,0.216 -1.598,0.408 -2.171,0.57 -0.573,0.161 -0.979,0.292 -1.436,0.426 -0.456,0.134 -0.963,0.271 -1.427,0.4 -0.465,0.129 -0.887,0.249 -1.312,0.377 -0.424,0.128 -0.85,0.262 -1.203,0.399 -0.353,0.137 -0.632,0.277 -1.012,0.437 -0.38,0.159 -0.862,0.339 -1.279,0.53 -0.417,0.191 -0.769,0.394 -1.165,0.602 -0.397,0.209 -0.838,0.424 -1.221,0.617 -0.382,0.194 -0.705,0.366 -1.126,0.589 -0.421,0.223 -0.941,0.495 -1.657,0.865 -0.717,0.371 -1.631,0.838 -2.694,1.37 -1.063,0.532 -2.275,1.128 -3.18,1.576 -0.905,0.448 -1.504,0.747 -2.037,1.087 -0.533,0.341 -1.001,0.723 -1.443,1.08 -0.443,0.358 -0.86,0.689 -1.353,1.079 -0.493,0.39 -1.061,0.837 -1.779,1.475 -0.718,0.637 -1.586,1.465 -2.375,2.331 -0.79,0.866 -1.501,1.771 -2.145,2.665 -0.644,0.894 -1.22,1.777 -1.924,2.935 -0.704,1.158 -1.536,2.591 -2.208,3.821 -0.671,1.229 -1.181,2.255 -1.732,3.264 -0.551,1.008 -1.141,1.999 -1.644,2.942 -0.503,0.943 -0.918,1.838 -1.313,2.759 -0.395,0.922 -0.77,1.87 -1.152,2.756 -0.382,0.887 -0.772,1.712 -1.285,3.043 -0.513,1.331 -1.149,3.17 -1.716,4.911 -0.567,1.741 -1.065,3.386 -1.49,4.836 -0.425,1.451 -0.777,2.709 -1.129,4.225 -0.352,1.516 -0.704,3.291 -1.144,5.668 -0.44,2.376 -0.968,5.353 -1.29,7.073 -0.322,1.72 -0.438,2.183 -0.543,2.673 -0.106,0.491 -0.201,1.009 -0.4,1.833 -0.198,0.825 -0.5,1.957 -0.807,3.143 -0.307,1.187 -0.618,2.43 -0.84,3.478 -0.221,1.049 -0.352,1.904 -0.575,3.166 -0.224,1.262 -0.541,2.932 -0.787,4.297 -0.247,1.366 -0.423,2.427 -0.529,2.975 -0.105,0.548 -0.14,0.583 -0.204,0.634 -0.063,0.05 -0.155,0.115 -0.251,2.246 -0.096,2.13 -0.197,6.326 -0.275,8.622 -0.078,2.297 -0.133,2.694 0.035,2.902 0.169,0.209 0.561,0.229 1.419,0.337 0.857,0.108 2.18,0.305 4.51,0.755 2.332,0.45 5.671,1.154 8.339,1.667 2.668,0.513 4.664,0.835 6.751,1.182 2.088,0.347 4.265,0.719 7.24,1.192 2.975,0.472 6.746,1.046 9.15,1.373 2.404,0.327 3.44,0.407 3.958,0.447 0.518,0.041 0.518,0.041 0.568,-0.543 0.049,-0.583 0.149,-1.75 0.263,-2.759 0.114,-1.009 0.242,-1.86 0.394,-2.937 0.152,-1.077 0.328,-2.379 0.498,-3.576 0.17,-1.197 0.333,-2.289 0.417,-2.902 0.085,-0.614 0.089,-0.749 0.076,-0.865 -0.014,-0.116 -0.047,-0.211 -0.023,-1.818 0.024,-1.607 0.104,-4.725 0.147,-7.257 0.043,-2.532 0.048,-4.478 0.059,-5.601 0.011,-1.123 0.029,-1.422 0.067,-1.618 0.038,-0.197 0.095,-0.29 0.176,-0.338 0.08,-0.05 0.184,-0.055 0.308,0.038 0.124,0.094 0.27,0.285 0.345,0.376 0.074,0.092 0.076,0.085 0.078,0.081 0.001,-0.004 0.001,-0.004 0.115,0.253 0.114,0.256 0.343,0.769 0.597,1.463 0.254,0.694 0.533,1.569 0.762,2.507 0.229,0.938 0.408,1.939 0.607,3.547 0.2,1.608 0.422,3.823 0.739,6.228 0.316,2.406 0.729,5.001 1.468,11.393 0.739,6.392 1.805,16.58 2.64,24.511 0.835,7.931 1.439,13.604 1.811,19.699 0.372,6.095 0.513,12.613 0.503,19.654 -0.01,7.04 -0.171,14.604 -0.372,20.609 -0.202,6.004 -0.443,10.45 -0.725,14.423 -0.281,3.973 -0.603,7.473 -1.448,14.162 -0.845,6.688 -2.213,16.566 -3.007,23.777 -0.795,7.212 -1.016,11.758 -1.217,15.269 -0.202,3.51 -0.383,5.984 -0.674,8.122 -0.292,2.137 -0.694,3.937 -0.973,5.315 -0.279,1.378 -0.436,2.334 -0.453,2.935 -0.018,0.601 0.103,0.847 0.249,0.975 0.146,0.129 0.317,0.138 0.5,0.175 0.184,0.036 0.38,0.099 0.469,0.155 0.019,0.011 0.032,0.022 0.042,0.037 0.876,0.322 1.753,0.645 3.155,0.925 1.401,0.28 3.329,0.518 6.493,0.754 3.163,0.237 7.562,0.472 11.099,0.609 3.537,0.138 6.212,0.178 9.592,0.181 3.38,0.003 7.463,-0.03 11.329,-0.007 3.866,0.024 7.513,0.104 10.591,0.191 3.078,0.088 5.586,0.181 7.916,0.252 2.33,0.07 4.483,0.117 6.789,0.171 2.307,0.053 4.768,0.114 7.356,0.121 2.589,0.006 5.304,-0.041 8.04,-0.098 2.736,-0.057 5.492,-0.124 7.953,-0.221z"/>
   </clipPath>
 </defs>
 <g id="VETORES">
  <metadata id="CorelCorpID_0Corel-Layer"/>
  <g>
  </g>
  <g clip-path="url(#id0)">
   <g id="_2015016133488">
    <path fill="#511A20" fill-rule="nonzero" d="M186.103 221.018c-0.03,-0.231 -0.03,-0.431 -0.06,-0.62l4.172 -0.001 -0.38 -6.895c-1.671,2.512 -3.322,5.034 -4.953,7.526l1.221 0 0 -0.01zm5.764 15.972c-0.11,-0.831 -0.2,-1.642 -0.301,-2.462 -0.5,0.83 -1,1.661 -1.49,2.462l1.791 0zm-8.746 -7.716l1.45 0c-0.2,-2.272 -0.4,-4.564 -0.6,-6.865l-1.251 1.961c0.11,1.502 0.26,3.153 0.4,4.904l0.001 0zm1.05 7.966c0.341,2.662 0.651,5.274 1.021,7.916 0.667,-1.215 0.961,-1.234 0.82,-1.931l0.311 0c1.251,-2.072 2.492,-4.144 3.742,-6.245l-2.581 0c-0.11,-0.821 -0.2,-1.672 -0.281,-2.522l4.353 0c-0.11,-0.901 -0.23,-1.802 -0.33,-2.692l-3.682 0c-1.131,1.841 -2.272,3.663 -3.372,5.474l-0.001 0zm-0.82 -5.194l0.06 0.49 0.48 -0.77 -0.54 0 0 0.28zm0.62 -9.637c0.281,-0.451 0.601,-0.941 0.911,-1.391l-1.021 0c0.03,0.45 0.09,0.94 0.11,1.391zm3.093 6.865c-0.061,-0.771 -0.111,-1.501 -0.201,-2.242l-2.981 4.734 3.662 0c0.51,-0.821 1.05,-1.641 1.561,-2.492l-2.041 0zm2.581 0c-0.03,-0.23 -0.06,-0.481 -0.09,-0.771 -0.14,0.281 -0.31,0.541 -0.45,0.771l0.54 0zm-0.08 -0.771c1.447,-2.187 1.203,-1.42 1.05,-3.122 -0.11,-1.251 -0.21,-2.492 -0.31,-3.723 -0.39,0.6 -0.78,1.201 -1.17,1.821l0.43 5.024zm-7.515 -18.073l0.431 0c0.773,-1.2 0.619,-0.557 0.51,-2.532l-1.081 0c-0.03,-0.651 -0.06,-1.302 -0.09,-1.962l0.14 5.194 0.23 -0.34 -0.11 0c0,-0.11 -0.03,-0.231 -0.03,-0.371l0 0.011zm0.851 -20.536l0 -2.492 2.471 0c0.621,-0.911 1.281,-1.791 1.931,-2.662l-0.88 0c0.03,-0.54 0.03,-1.051 0.03,-1.591l-3.633 0c-0.029,2.612 0,5.194 0.031,7.776 0.23,-0.34 0.48,-0.651 0.74,-1.021l-0.68 0 -0.01 -0.01zm-0.06 2.272l0 -1.251c-1.633,2.309 -1.305,1.225 -1.252,4.794l0 2.132c0.261,-0.371 0.511,-0.711 0.771,-1.081 -0.03,-1.532 -0.06,-3.063 -0.09,-4.594l0.571 0zm-1.081 -18.805c-0.06,2.412 -0.11,4.854 -0.14,7.296l4.823 0c0,-0.51 0.03,-1.051 0.03,-1.591 -1.361,-1.902 -2.722,-3.803 -4.053,-5.705l-0.66 0zm5.053 39.17l2.982 0c-0.04,-0.851 -0.07,-1.681 -0.09,-2.492l-1.221 0c-0.57,0.851 -1.13,1.672 -1.671,2.492zm-2.502 -41.702l-2.491 0c-0.035,1.865 -0.215,1.398 0.59,2.532l3.663 0 -1.762 -2.532zm2.922 19.065c0.601,-0.821 1.191,-1.641 1.791,-2.492l-3.662 0c-0.6,0.851 -1.191,1.672 -1.791,2.492l3.662 0zm1.652 -15.431c0,-0.371 0.029,-0.741 0.029,-1.111l-2.831 0c0.26,0.37 0.54,0.74 0.79,1.111l2.012 0zm-4.113 71.464l0.17 -0.321 -0.23 0 0.06 0.321zm12.638 27.851l-0.911 -3.553c-0.61,1.191 -1.221,2.382 -1.831,3.553l2.742 0zm-10.687 -14.491l0.911 -1.672 -1.191 0c0.09,0.541 0.2,1.111 0.28,1.672zm0.911 -1.682l1.39 0c-0.089,-0.65 -0.2,-1.28 -0.31,-1.931 -0.37,0.651 -0.71,1.282 -1.081,1.931l0.001 0zm2.241 16.173c0.2,0.85 0.43,1.701 0.651,2.522l2.921 0c0.431,-0.821 0.821,-1.672 1.221,-2.522l-4.793 0zm-4.593 -28.172c-0.03,-0.14 -0.06,-0.28 -0.09,-0.45 -0.09,0.17 -0.17,0.31 -0.26,0.45l0.35 0zm4.423 -35.576c-0.02,-0.591 -0.04,-1.181 -0.05,-1.752l0.05 1.752zm3.342 67.07l0.771 0c0.17,0.711 0.34,1.421 0.51,2.102l2.642 0c0.09,0.4 0.17,0.77 0.26,1.131 0.498,-0.975 0.828,-1.328 0.68,-1.872l0.23 0c0.271,-0.52 0.521,-1.041 0.781,-1.571 -0.1,-0.19 -0.2,-0.39 -0.3,-0.59l-5.164 0 -0.41 0.8zm4.943 1.702c0.171,0.71 0.341,1.45 0.511,2.151l2.101 0c0.05,-0.11 0.11,-0.21 0.16,-0.32 -0.26,-0.711 -0.61,-1.391 -1.03,-2.172l-1.592 0c-0.029,0.11 -0.09,0.231 -0.139,0.341l-0.011 0zm-14.329 -43.463c0.09,0.821 0.14,1.621 0.231,2.381 0.427,-0.733 0.248,-0.649 0.08,-2.381l-0.311 0zm8.766 14.1l-3.002 0c0.2,1.361 0.43,2.692 0.62,4.034l-2.491 -0.001c-0.2,-1.331 -0.431,-2.662 -0.62,-4.033l-0.541 0c-1.163,2.026 -1.078,1.232 -0.51,4.534l4.393 0c0.09,0.4 0.139,0.77 0.2,1.131l2.181 0c0.14,0.85 0.28,1.671 0.4,2.491l-4.033 0c0.261,1.421 0.511,2.833 0.791,4.223l3.632 0.001c0.141,0.851 0.31,1.701 0.451,2.522l-1.251 0c0.06,0.2 0.09,0.43 0.11,0.6l2.752 0 0.13 -0.43 -0.861 0c-0.14,-0.821 -0.31,-1.641 -0.48,-2.492l1.051 0 -0.731 -6.165c-0.3,0.531 -0.59,1.071 -0.891,1.591 -0.45,-2.662 -0.88,-5.363 -1.301,-8.026l0.001 0.02zm1.811 18.044l1.801 0 -0.35 -2.522 -0.18 0c-0.431,0.851 -0.851,1.701 -1.281,2.522l0.01 0zm-2.011 -24.369l-0.711 0c0.11,0.851 0.23,1.672 0.34,2.492l0.711 0c0.06,0.451 0.14,0.911 0.2,1.331l-0.711 0c0.141,0.851 0.261,1.672 0.371,2.492l0.71 0c0.14,0.961 0.281,1.932 0.451,2.892l0.55 0.001 -1.561 -10.269 -0.49 0 0.14 1.061zm1.33 25.64c0.231,-0.4 0.451,-0.821 0.681,-1.281l-0.961 0c0.11,0.45 0.2,0.88 0.28,1.281zm-5.043 -25.529l-2.181 0c-0.09,0.139 -0.17,0.28 -0.26,0.43 0.17,1.111 0.31,2.211 0.48,3.293l-1.671 -0.001c0.11,0.821 0.23,1.672 0.341,2.492l1.16 0c2.954,-5.198 2.49,-3.15 2.131,-6.214zm2.982 -3.463l0.751 0 -0.341 -2.462 -0.73 0c0.11,0.821 0.2,1.642 0.31,2.472l0.01 -0.01zm0.56 7.185c-0.06,-0.43 -0.11,-0.88 -0.2,-1.331l-0.68 0c-0.11,-0.821 -0.23,-1.641 -0.34,-2.492l0.68 0c-0.09,-0.65 -0.17,-1.331 -0.26,-1.981 -0.821,1.361 -1.641,2.752 -2.442,4.143 0.06,0.57 0.14,1.131 0.231,1.672l3.002 0 0.009 -0.011zm-2.241 14.891l-2.612 0c0.171,0.851 0.341,1.702 0.511,2.522l2.441 0c0.62,3.093 1.281,6.155 1.962,9.248l2.491 0c-0.34,-1.592 -0.71,-3.233 -1.051,-4.854 -0.57,1.111 -1.11,2.182 -1.671,3.262 -0.71,-3.372 -1.421,-6.775 -2.071,-10.188l0 0.01zm4.113 -167.767l-0.11 0.231c0.48,0.99 0.94,1.961 1.421,2.922l1.781 0 0.72 -0.911c0.063,-1.126 0.085,-1.391 -0.339,-2.241l-3.473 -0.001zm-2.432 35.117l0.821 0 0.24 -2.462 -2.572 0c0.48,0.821 0.99,1.641 1.501,2.472l0.01 -0.01zm-1.681 -20.536c0.14,-0.82 0.311,-1.641 0.451,-2.491l-0.261 0c0.26,-1.251 0.51,-2.522 0.791,-3.803l-0.941 0c-0.57,1.42 -1.081,2.891 -1.561,4.423 0.4,0.741 0.79,1.451 1.191,2.182 0,-0.11 0.03,-0.2 0.06,-0.311l0.27 0zm-1.641 18.064l1.811 0c-0.48,-0.821 -0.961,-1.641 -1.451,-2.492 -0.11,0.851 -0.26,1.672 -0.37,2.492l0.01 0zm3.602 -28.592c-0.23,0.451 -0.45,0.881 -0.65,1.332l0.54 0c0.14,-0.651 0.28,-1.301 0.431,-1.982 -0.11,0.23 -0.201,0.43 -0.31,0.65l-0.011 0zm-6.324 23.178c-0.23,1.641 -0.45,3.463 -0.65,5.414l0.51 0 0 -0.17 0.401 0c0.17,-1.131 0.34,-2.242 0.51,-3.403l1.701 0c-0.34,-0.6 -0.711,-1.221 -1.051,-1.841l-1.421 0zm4.623 20.936l1.011 0 0.21 -2.502 -2.782 0 1.561 2.502zm1.331 -3.723c0.05,-0.5 0.09,-1.001 0.14,-1.501l-1.07 0c0.31,0.5 0.62,1.001 0.94,1.501l-0.01 0zm-3.542 -9.327c-0.11,0.99 -0.231,1.981 -0.37,2.982 0.68,1.131 1.36,2.272 2.071,3.373 0.03,-0.341 0.09,-0.681 0.11,-1.051l2.112 0c0.13,-1.321 0.26,-2.682 0.41,-4.103 -0.24,-0.39 -0.471,-0.781 -0.701,-1.201l-3.632 0zm-3.632 13.05c0.06,0.11 0.139,0.23 0.2,0.34l0.2 0c-0.03,0.09 -0.03,0.17 -0.03,0.26 1.501,2.322 2.982,4.684 4.513,7.035 0,-0.139 0.03,-0.31 0.03,-0.48l1.371 0c0.14,-1.901 0.3,-3.842 0.46,-5.744 -0.3,-0.47 -0.59,-0.941 -0.891,-1.401l-5.853 -0.01zm11.597 -51.289c0.51,1.051 1.021,2.101 1.561,3.122l0.12 0c-0.723,-2.266 -1.132,-1.47 0.38,-6.224l-2.061 3.102zm-2.181 6.265c0.06,-0.2 0.09,-0.431 0.14,-0.651l-1.221 0 -0.2 0.4 0.79 0c-0.17,0.851 -0.37,1.672 -0.54,2.492l-0.961 0.001c-0.45,2.241 -0.94,4.483 -1.391,6.695l0.851 -0.001c-0.14,0.851 -0.31,1.672 -0.451,2.492l-0.85 0c-0.06,0.231 -0.09,0.451 -0.14,0.651 -0.06,-0.11 -0.11,-0.23 -0.17,-0.34 -0.09,0.45 -0.17,0.91 -0.26,1.361l3.372 0c-0.17,0.821 -0.31,1.641 -0.451,2.471l-5.333 0c-0.09,0.481 -0.2,0.991 -0.28,1.471 0.851,1.532 1.671,3.033 2.522,4.544l3.682 0c0.62,-3.743 1.281,-7.516 1.981,-11.289 0,0.021 0.02,0.04 0.03,0.05 0.13,-0.86 0.25,-1.661 0.371,-2.411l-3.352 0c0.17,-0.821 0.34,-1.641 0.51,-2.492l3.262 0c0.765,-4.267 1.106,-2.594 -0.34,-5.444l-1.571 0zm-10.577 112.315c0.03,0.28 0.03,0.601 0.06,0.911l-0.65 0c-0.09,0.139 -0.171,0.26 -0.281,0.37l0.681 0c0.06,0.851 0.11,1.701 0.14,2.522l-0.941 0c0.09,2.101 0.17,4.053 0.28,5.904l4.453 -6.695 -0.74 0c-0.061,-0.821 -0.11,-1.641 -0.14,-2.492l2.551 0c0.371,-0.54 0.741,-1.11 1.111,-1.671 -0.09,-2.102 -0.17,-4.223 -0.26,-6.325l0.19 0c-0.01,-0.62 -0.02,-1.241 -0.03,-1.861l-6.425 9.347 0.001 -0.01zm8.985 72.165l0.201 0.68 0.37 0c-0.06,-0.2 -0.11,-0.45 -0.17,-0.68l-0.401 0zm7.886 0.68l0.11 0c0.55,2.071 0.137,1.31 1.701,2.912l-0.891 -4.323 -0.27 0c-0.23,0.48 -0.45,0.941 -0.65,1.421l0 -0.01zm-10.857 -163.574l-3.292 0 -0.061 0.54c0.371,0.651 0.741,1.301 1.131,1.962l3.663 0c-0.481,-0.821 -0.961,-1.641 -1.451,-2.492l0.01 -0.01zm-1.171 4.343c0.2,0.371 0.43,0.741 0.62,1.081 0.06,-0.34 0.11,-0.71 0.17,-1.081l-0.79 0zm4.483 -1.841l0.71 0c0.09,-0.841 0.17,-1.671 0.26,-2.492l-0.6 0c-0.14,0.851 -0.26,1.672 -0.37,2.492zm-0.391 2.582c0.141,-0.851 0.261,-1.731 0.401,-2.582l-1.871 0c0.48,0.851 0.99,1.731 1.47,2.582zm-7.835 18.354l0.061 0c0,0 -0.03,-0.06 -0.061,-0.06l0 0.06zm4.794 35.207c0.13,0.179 0.25,0.36 0.38,0.54 0.01,-0.86 0.03,-1.731 0.05,-2.612l-0.371 0c-0.029,0.68 -0.029,1.391 -0.06,2.072l0.001 0zm0 0c-0.711,-0.961 -1.391,-1.962 -2.102,-2.983l-0.31 0.001c-0.06,1.561 -0.09,3.092 -0.09,4.593 0.821,1.161 1.641,2.301 2.441,3.432 -0.54,0.771 -1.08,1.502 -1.62,2.242l1.62 0c0,-0.54 0.031,-1.051 0.031,-1.591l0.34 0 0.02 -2.492 -0.36 0c0.029,-1.051 0.029,-2.132 0.029,-3.202l0.001 0zm1.5 -40.431c-0.31,-0.48 -0.6,-0.961 -0.91,-1.471 -0.06,0.51 -0.11,0.991 -0.14,1.471l1.05 0zm-8.105 59.745c0.03,0.651 0.03,1.301 0.06,1.962l1.221 0c0.03,0.85 0.06,1.701 0.09,2.522l-1.25 0c0,0.11 0.029,0.2 0.029,0.31l-0.82 0 0.14 4.403 6.354 -9.137 -3.712 0c0,-0.82 -0.03,-1.641 -0.06,-2.491l4.983 0c-0.02,-1.381 -0.05,-2.823 -0.07,-4.424l-2.072 0c-1.641,2.302 -3.261,4.593 -4.883,6.865l-0.01 -0.01zm6.925 -9.357c0,-0.12 0,-0.24 0,-0.36 -0.09,0.12 -0.171,0.24 -0.261,0.36l0.261 0zm0.15 9.417c-0.01,-0.57 -0.02,-1.15 -0.03,-1.741 -0.41,0.581 -0.821,1.161 -1.231,1.741l1.261 0zm-2.482 -63.408l0.401 0c0.06,-0.43 0.09,-0.85 0.14,-1.251 -0.941,-1.561 -1.842,-3.122 -2.782,-4.683 -0.06,0.57 -0.14,1.131 -0.2,1.701l0.48 0c-0.2,1.361 -0.34,2.692 -0.51,4.053 0.68,1.131 1.391,2.302 2.101,3.403 0.11,-1.081 0.231,-2.152 0.37,-3.232l0 0.009zm-3.772 27.241l-0.961 0 -0.29 6.755c0.791,1.131 1.591,2.302 2.382,3.433l5.173 0c0,-0.31 0.02,-0.621 0.02,-0.931l-6.335 -9.257 0.011 0zm5.704 7.315l0.68 0c0.02,-0.85 0.05,-1.681 0.07,-2.471l-0.64 0c-0.03,0.82 -0.091,1.641 -0.11,2.471zm0.78 -3.162c0,-0.06 0,-0.12 0,-0.19l-0.13 0c0.04,0.07 0.08,0.12 0.13,0.19l0 0zm-0.98 -8.807l-4.393 0c0.06,-0.82 0.11,-1.641 0.17,-2.491l3.342 0 -3.633 -5.615c-0.14,1.672 -0.26,3.323 -0.37,4.964l-0.03 0c-0.06,0.99 -0.14,1.961 -0.2,2.922 1.421,2.132 2.832,4.223 4.253,6.325l1.931 0c0.03,-0.851 0.07,-1.661 0.11,-2.442l-1.381 0c0.091,-1.221 0.14,-2.442 0.201,-3.663zm-0.171 -16.262l-1.931 -3.093 0 0.171 -2.492 0c0.11,-1.192 0.261,-2.382 0.4,-3.573l-0.31 -0.541c-0.28,2.722 -0.51,5.504 -0.74,8.287 0.26,0.4 0.48,0.79 0.74,1.191 0.09,-0.791 0.171,-1.621 0.261,-2.442l4.072 0zm0.341 13.761l-1.051 0c0.73,1.1 1.47,2.191 2.211,3.292l0.33 -5.044c-0.41,-0.63 -0.821,-1.251 -1.241,-1.871 -0.09,1.221 -0.17,2.442 -0.26,3.633l0.011 -0.01zm-5.274 2.271c-0.34,-0.51 -0.711,-1.05 -1.051,-1.591 -0.089,1.671 -0.17,3.403 -0.26,5.134l0.911 1.331 0.11 0c0.11,-1.621 0.2,-3.233 0.28,-4.884l0.01 0.01zm0.851 -13.19l-1.131 0 -0.26 3.573c0.37,0.57 0.74,1.161 1.13,1.731 0.14,-1.671 0.281,-3.372 0.431,-5.054 -0.06,-0.09 -0.11,-0.17 -0.17,-0.26l0 0.01zm2.891 22.037l2.212 0c-0.57,-0.821 -1.131,-1.671 -1.701,-2.522l-0.37 0c-0.06,0.851 -0.09,1.701 -0.14,2.522l-0.001 0zm1.762 58.244l-2.582 0c0.14,1.391 0.26,2.782 0.37,4.173 0.771,-1.191 1.501,-2.352 2.272,-3.542l-0.06 -0.631zm8.505 62.037c0.35,1.291 0.721,2.572 1.081,3.863l3.012 0.15c-1.341,-1.341 -2.672,-2.672 -4.003,-4.003l-0.09 0 0 -0.01zm-4.563 0c0.169,0.613 0.28,1.36 0.741,1.822 -0.17,-0.601 -0.31,-1.221 -0.481,-1.812l-0.26 0 0 -0.01zm1.391 2.472c0.48,0.501 0.97,1.011 1.491,1.501 0.09,0 0.18,-0.009 0.27,-0.02 -0.15,-0.49 -0.29,-0.99 -0.42,-1.481l-1.341 0zm-0.49 0l0.48 0c-0.23,-0.2 -0.45,-0.43 -0.651,-0.65 0.061,0.23 0.111,0.45 0.171,0.65zm1.02 -5.674c0.031,0.09 0.031,0.17 0.061,0.23l1.471 0c0.029,-0.06 0.06,-0.14 0.09,-0.231l-1.622 0.001zm5.534 2.301l-0.881 -0.88c0.111,-0.26 0.231,-0.481 0.341,-0.741l-3.002 0c-0.03,-0.14 -0.06,-0.28 -0.11,-0.45l-0.341 0c-0.17,0.4 -0.37,0.79 -0.54,1.191 0.57,0.601 1.161,1.191 1.731,1.791l3.032 0c-0.06,-0.28 -0.14,-0.6 -0.23,-0.911zm-3.262 -3.663c-0.2,0.481 -0.43,0.911 -0.65,1.361l1.02 0.001 -0.37 -1.362zm-5.384 -1.13l-0.51 0 0.26 0.911c0.481,-0.991 0.991,-2.012 1.471,-3.003l-1.731 0c0.17,0.711 0.341,1.421 0.51,2.102l0 -0.01zm-136.238 -7.376c0.17,-0.821 0.31,-1.641 0.481,-2.492l-1.111 0c-0.771,0.851 -1.501,1.672 -2.272,2.492l2.902 0zm-6.364 -17.393c0,0.06 -0.01,0.11 -0.02,0.17 0.05,-0.06 0.1,-0.11 0.15,-0.17l-0.13 0zm4.493 -28.342l-0.37 0c-0.09,1.191 -0.2,2.352 -0.281,3.543l-0.71 0c-0.04,0.391 -0.08,0.781 -0.13,1.192l1.071 -0.001c0.14,-1.591 0.28,-3.152 0.43,-4.734l-0.01 0zm-0.17 -2.521l0.37 0c0.14,-1.962 0.28,-3.943 0.4,-5.905l-0.94 0c0,-0.28 0.03,-0.601 0.06,-0.911l-0.24 2.612 0.66 0c-0.11,1.421 -0.2,2.813 -0.31,4.204l0 0zm2.351 10.668l1.111 0c0.797,-0.938 0.495,-0.832 0.741,-3.143l0.17 0c0.11,-1.111 0.2,-2.242 0.31,-3.342l-1.221 0c-0.06,0.6 -0.11,1.221 -0.17,1.811l-1.761 0c-0.34,0.43 -0.711,0.851 -1.051,1.281l1.981 0c-0.09,0.821 -0.14,1.641 -0.23,2.472l-3.852 0 -1.051 8.286c1.611,-1.941 3.242,-3.883 4.853,-5.854l0.17 -1.511zm1.902 25.469c0.14,-1.301 0.31,-2.952 0.54,-4.763l-0.901 5.163 0.371 -0.4 -0.01 0zm-7.235 27.771c-0.4,-0.82 -0.79,-1.671 -1.221,-2.522l-2.691 0c0.109,-0.45 0.23,-0.941 0.34,-1.421l-0.34 0c-0.443,3.384 -0.719,1.852 0.26,3.943l3.652 0zm2.382 -11.999l-3.663 0c-0.691,0.77 -1.401,1.531 -2.101,2.282 0,0.08 -0.01,0.16 -0.02,0.25l3.452 0 2.332 -2.532zm-2.302 -32.115c-0.14,1.082 -0.29,2.182 -0.43,3.293 0.93,-1.091 1.861,-2.192 2.792,-3.293l-2.362 0zm2.782 34.647l-2.812 0c-1.021,1.081 -2.071,2.182 -3.122,3.293 0.62,1.22 1.221,2.441 1.841,3.662l3.002 0c-0.17,0.851 -0.4,1.702 -0.6,2.523l-1.191 -0.001c0.43,0.941 0.88,1.841 1.331,2.752 0.28,-1.191 0.57,-2.382 0.88,-3.603l2.152 0 0.29 -1.841 -1.281 0c0.77,-3.403 1.501,-6.835 2.211,-10.268l0.171 0 0.29 -2.982c-1.221,1.331 -2.442,2.642 -3.663,3.943l0.991 0c-0.17,0.851 -0.341,1.701 -0.51,2.522l0.02 0zm-7.375 9.467c-1.527,6.377 -0.706,4.887 0.45,5.624l3.522 0.981c-1.04,-2.182 -2.091,-4.393 -3.121,-6.595l-0.851 0 0 -0.01zm5.844 2.752c-0.34,1.341 -0.66,2.672 -1.021,3.993 0.681,0.11 1.471,0.211 2.412,0.301 0.08,-0.28 0.17,-0.561 0.22,-0.861 -0.541,-1.131 -1.081,-2.272 -1.621,-3.432l0.01 -0.001zm2.361 0.511l-0.74 2.922 0.14 0.31c0.2,-1.111 0.43,-2.182 0.6,-3.232zm-0.78 3.802c0,0 0.04,0 0.07,0l-0.07 0zm-2.912 -25.219l4.393 0c0.68,-0.74 1.36,-1.471 2.041,-2.242 0.11,-1.05 0.26,-2.271 0.4,-3.602l-0.51 0c0.17,-1.111 0.341,-2.242 0.541,-3.372 -2.152,2.442 -4.313,4.853 -6.525,7.265 -0.11,0.651 -0.23,1.301 -0.34,1.962l0 -0.011zm-0.851 -9.527l2.492 0c-0.11,0.851 -0.26,1.672 -0.4,2.492 2.151,-2.412 4.283,-4.824 6.414,-7.235 0.09,-0.621 0.17,-1.221 0.26,-1.842l0.06 0 0.711 -5.985 -10.617 12.209 -0.721 7.206c0.271,-0.29 0.541,-0.591 0.811,-0.881l0.99 -5.964zm2.982 12.029l-5.153 0 -0.211 3.653 1.962 0c1.131,-1.221 2.272,-2.442 3.402,-3.663l0 0.01zm-0.88 -9.537c-1.021,1.161 -2.042,2.302 -3.093,3.463 -0.109,0.65 -0.26,1.301 -0.37,1.961l-0.53 0c-0.09,1.191 -0.17,2.292 -0.24,3.302 1.111,-1.211 2.231,-2.411 3.312,-3.642l0.921 -5.084zm4.903 -78.98l0 -0.851c-0.821,1.111 -1.621,2.242 -2.442,3.343l3.663 0c0.6,-0.821 1.221,-1.641 1.811,-2.492l-3.032 0zm0.17 -39.85l1.531 0c-0.03,-0.31 -0.06,-0.651 -0.09,-0.991l0.37 0c-0.318,-1.798 -0.076,-0.97 -0.6,-1.781l-1.451 0c0.09,0.941 0.14,1.871 0.23,2.782l0.01 -0.01zm0.14 -10.268l-1.361 0c0.601,0.741 1.191,1.451 1.792,2.152 -0.14,-0.711 -0.281,-1.451 -0.431,-2.152zm-2.722 12.79l2.782 0c-0.09,-0.821 -0.14,-1.672 -0.2,-2.522l-2.782 0c-0.03,-0.48 -0.09,-0.991 -0.11,-1.501l-0.2 0c0.11,1.331 0.2,2.642 0.31,3.943 -0.98,-1.191 -1.941,-2.392 -2.902,-3.603 0.191,1.832 0.38,3.613 0.551,5.304 0.95,1.211 1.901,2.412 2.861,3.633l-0.31 -5.254zm-2.361 3.292c0.05,0.461 0.1,0.941 0.15,1.391 -0.03,-0.47 -0.05,-0.94 -0.08,-1.391l-0.07 0zm10.026 17.163l-1.5 0c0.57,0.771 1.13,1.501 1.701,2.242 -0.06,-0.741 -0.14,-1.501 -0.2,-2.242l-0.001 0zm-4.002 0l2.491 0c-0.62,-0.82 -1.25,-1.641 -1.871,-2.492l-0.68 0c0.03,0.851 0.03,1.672 0.06,2.492zm4.563 49.188c-0.541,0.68 -1.081,1.361 -1.621,2.041l1.45 0c0.061,-0.651 0.111,-1.331 0.171,-2.042l0 0.001zm-8.906 -4.654c-0.01,0.3 -0.02,0.611 -0.04,0.901 0.23,-0.301 0.47,-0.601 0.69,-0.901l-0.65 0zm3.322 -52.54l-1.791 0c0,0.34 0.03,0.711 0.03,1.051 1.161,1.501 2.271,2.982 3.402,4.453l2.102 0.001c-0.11,-3.233 -0.261,-6.495 -0.401,-9.758l0.231 0 -1.221 -8.206 -2.212 0c0.17,3.002 0.371,6.044 0.541,9.077 -0.991,-1.281 -1.982,-2.552 -3.002,-3.833 0.029,0.34 0.06,0.65 0.06,0.99l-2.422 0c0.14,1.281 0.26,2.532 0.38,3.713l4.193 0 0.11 2.512zm6.094 49.028c0.03,-0.771 0.06,-1.562 0.11,-2.352l-0.51 0c-0.06,1.02 -0.09,2.011 -0.14,3.002l0.54 -0.65zm0.31 -11.459l0 -2.492 -0.4 0c-0.03,0.851 -0.03,1.671 -0.06,2.492l0.46 0zm-8.165 -36.518c-0.841,-1.081 -1.681,-2.182 -2.522,-3.282 0.19,1.881 0.35,3.672 0.501,5.424 0.74,0.98 1.471,1.951 2.221,2.942l-0.2 -5.084zm1.331 -20.786c0.54,0.681 1.051,1.331 1.591,1.982l0.17 0 -0.761 -4.994 -2.611 0c-0.06,-0.821 -0.14,-1.641 -0.23,-2.492l0.99 0c-0.99,-1.191 -1.981,-2.411 -3.002,-3.632 0.4,3.712 0.711,7.405 1.051,11.118l2.952 0c-0.03,-0.651 -0.09,-1.301 -0.14,-1.982l-0.01 0zm-3.913 -27.101c-0.17,-0.71 -0.34,-1.421 -0.48,-2.041l-1.081 0c-0.26,-1.591 -0.51,-3.152 -0.77,-4.734 -1.081,-1.22 -2.181,-2.442 -3.292,-3.662 0.31,1.701 0.6,3.372 0.88,5.073 1.591,1.792 3.172,3.603 4.733,5.364l0.01 0zm-4.453 -4.473l-0.14 0c-0.253,-1.18 0.166,-0.567 -1.15,-2.001l0.52 4.444 1.171 -0.001c-0.14,-0.821 -0.26,-1.621 -0.4,-2.442l-0.001 0zm-1.961 -10.298l1.251 0c-0.79,-1.391 -1.751,-2.882 -2.812,-4.403 0.563,2.349 0.378,3.309 -0.51,4.974 0.694,-0.232 1.185,1.799 1.441,2.222 0.47,0.52 0.95,1.041 1.42,1.561l-0.79 -4.354zm4.823 8.567c-0.4,-1.451 -0.851,-2.692 -1.301,-3.883 0.2,1.111 0.4,2.211 0.57,3.322l0.881 0.991 -0.14 -0.43 -0.01 0zm0.911 11.739c-0.06,-0.4 -0.11,-0.771 -0.17,-1.131l1.811 0 -0.26 -1.161 -3.233 0c-0.139,-0.791 -0.26,-1.621 -0.37,-2.472l3.062 0 -0.089 -0.31 -4.994 0c0.03,0.24 0.07,0.49 0.1,0.741 1.251,1.451 2.492,2.882 3.753,4.343l0.39 -0.01zm-0.11 12.369l2.491 0c0.06,0.4 0.09,0.791 0.11,1.191l2.152 0c-0.199,-0.984 -0.662,-4.077 -1.051,-4.603 0.03,0.09 0.03,0.14 0.03,0.17l-0.14 0c0.06,0.65 0.14,1.301 0.2,1.981l-5.904 0c0.09,0.791 0.18,1.602 0.27,2.442l1.952 0c-0.03,-0.4 -0.09,-0.79 -0.11,-1.191l0 0.01zm0.42 -9.897c0.14,1.021 0.26,2.011 0.4,2.982l-0.09 0c0.991,1.191 2.012,2.352 2.982,3.513l-0.99 -5.474c-0.991,-1.161 -1.982,-2.322 -2.982,-3.493l-3.163 0c0.149,1.101 0.355,0.971 1.631,2.472l2.212 0zm0.801 21.076c0.029,0.43 0.06,0.85 0.09,1.281l0.68 0c-0.03,-0.431 -0.06,-0.851 -0.09,-1.281l-0.68 0zm-0.711 -4.994l0.09 0c-0.06,-0.821 -0.14,-1.641 -0.23,-2.492l-1.941 0c0.18,1.621 0.35,3.293 0.53,4.964l1.781 0c-0.09,-0.821 -0.17,-1.621 -0.23,-2.472l0 0zm-2.302 -16.082l-1.32 0c0.11,0.89 0.23,1.871 0.36,2.982l3.482 0c-0.85,-0.961 -1.671,-1.961 -2.522,-2.982zm2.893 5.474l-3.573 0c0.02,0.22 0.05,0.43 0.07,0.65l3.583 0c-0.031,-0.2 -0.061,-0.43 -0.091,-0.65l0.011 0zm10.266 78.659c0.03,-0.79 0.06,-1.641 0.09,-2.491l-0.51 0c-0.03,0.85 -0.06,1.671 -0.06,2.491l0.48 0zm-0.621 -29.642l0.061 0.14 -0.2 -2.612 -1.501 0c0,0.598 1.228,1.946 1.621,2.462l0.03 0 -0.011 0.01zm-0.91 6.615c-0.62,0.881 -1.281,1.762 -1.901,2.612l2.832 0 0 2.072 0.45 0c0,0.45 -0.03,0.88 -0.03,1.331l0.23 -0.281c-0.089,-3.372 -0.26,-6.805 -0.48,-10.237l-0.17 0c0,-0.681 -0.03,-1.361 -0.03,-2.072 0,0 -0.03,0 -0.03,-0.03l-1.591 0c0,-0.711 -0.03,-1.451 -0.03,-2.182 -1.811,-2.442 -3.683,-4.904 -5.533,-7.345 0.029,0.65 0.029,1.301 0.06,1.931l-1.912 0 0.2 3.513 7.925 10.708 0.01 -0.02zm-7.485 -6.495l0 1.301c0.851,1.131 1.701,2.302 2.552,3.433 -0.03,-1.562 -0.03,-3.123 -0.06,-4.734l-2.492 0zm2.552 4.734l0 3.512c0.43,-0.6 0.851,-1.191 1.251,-1.761 -0.431,-0.57 -0.851,-1.161 -1.251,-1.762l0 0.011zm-2.552 -3.433c-0.08,-0.1 -0.15,-0.21 -0.23,-0.31 0.04,1.191 0.07,2.402 0.09,3.633l0.17 0c0,-1.111 0,-2.182 -0.03,-3.323zm3.713 30.804c-0.06,0.74 -0.09,1.471 -0.11,2.151l1.761 0c-0.06,0.851 -0.09,1.672 -0.11,2.492l-1.761 0c-0.061,1.421 -0.14,2.812 -0.231,4.203l2.893 0c0.169,-3.342 0.34,-6.695 0.48,-10.067l1.841 0c0,-0.431 0.03,-0.881 0.06,-1.361l-3.462 -0.001c0.029,-0.82 0.06,-1.641 0.06,-2.491l3.462 0c0.06,-1.732 0.11,-3.493 0.14,-5.244l-1.981 0 0 -0.341 -0.511 0c0,-0.14 0,-0.28 0.03,-0.45l-6.584 8.756 -0.14 4.534 2.491 0 1.672 -2.181zm-3.652 -24.959l-0.151 0c0,0.64 0.01,1.301 0.02,1.961l0.131 0 0 -1.961zm6.203 13.84c0.851,-1.131 1.702,-2.302 2.552,-3.433 0.03,-1.671 0.03,-3.342 0.03,-5.053 -0.821,1.161 -1.671,2.301 -2.522,3.432 0,1.672 -0.03,3.373 -0.06,5.054l0 0zm0.12 -9.387l-2.611 0c-0.821,1.131 -1.621,2.211 -2.442,3.322l3.913 0.001c-0.03,0.85 -0.03,1.701 -0.06,2.522l-4.963 -0.001c-0.031,2.042 -0.061,4.084 -0.091,6.095l-0.32 0c0,0.38 -0.01,0.761 -0.02,1.141 2.191,-2.912 4.373,-5.825 6.524,-8.747 0.03,-1.451 0.03,-2.892 0.06,-4.344l0.01 0.011zm-6.103 3.323l0 -1.642 -0.341 0c0,1.181 -0.01,2.362 -0.03,3.563 0.471,-0.641 0.951,-1.271 1.421,-1.912l-1.05 0 0 -0.009zm-0.341 -3.323c0,0.08 0,0.16 0,0.24 0.06,-0.08 0.11,-0.16 0.18,-0.24l-0.18 0zm-3.482 68.622c0.09,-0.57 0.17,-1.161 0.26,-1.762 -0.51,0.601 -1.021,1.192 -1.531,1.762l1.271 0zm10.297 -29.222l0.79 0c0.17,-1.902 0.31,-3.323 0.4,-4.424 -0.57,0.741 -1.131,1.451 -1.701,2.152l0.681 0c-0.06,0.771 -0.11,1.531 -0.17,2.272zm-7.035 18.153c-0.09,0.851 -0.2,1.702 -0.31,2.523l-1.791 0c-0.28,2.271 -0.601,4.543 -0.911,6.775l8.986 -10.528c0.2,-1.562 0.4,-3.173 0.65,-5.444l-0.85 0c-0.17,1.561 -0.341,3.092 -0.481,4.653l-2.491 0c0.09,-0.88 0.2,-1.791 0.28,-2.692 -1.301,1.561 -2.612,3.153 -3.972,4.714l0.89 -0.001zm3.112 -9.126c-1.461,1.732 -1.244,1.15 -1.371,2.462l1.531 0c-0.06,0.65 -0.14,1.331 -0.2,1.961l3.692 -4.423 -0.71 0c0.03,-0.341 0.06,-0.681 0.09,-1.021l0.17 0c0.11,-1.111 0.2,-2.212 0.31,-3.322 -1.02,1.25 -2.011,2.492 -3.002,3.712 -0.03,0.231 -0.06,0.431 -0.06,0.621l-0.45 0 0 0.01zm3.833 -0.201l-0.171 0.201 0.141 0 0.03 -0.201zm0.57 -5.564l0.06 -0.74 -0.74 0c-0.061,0.71 -0.14,1.451 -0.2,2.152 0.706,-0.854 0.788,-0.764 0.88,-1.422l0 0.01zm-3.773 -9.186c-0.06,0.94 -0.11,1.841 -0.2,2.751 1.191,-1.45 2.352,-2.891 3.493,-4.373l-3.633 0c-0.03,0.541 -0.06,1.081 -0.11,1.621l0.45 0.001zm-4.422 12.539c0.28,-0.31 0.57,-0.651 0.82,-0.991l-0.74 0c-0.03,0.341 -0.06,0.681 -0.09,0.991l0.01 0zm0.22 -15.062c0.34,-0.43 0.68,-0.82 1.021,-1.281 -0.06,0.741 -0.091,1.451 -0.14,2.182l2.981 0c0.03,-0.821 0.091,-1.641 0.14,-2.492l-3.912 0c-0.03,0.541 -0.06,1.081 -0.09,1.591zm2.781 -8.286c-0.65,0.851 -1.281,1.672 -1.931,2.492l3.372 0c0.03,-0.821 0.091,-1.641 0.11,-2.492l-1.551 0zm-2.241 15.092l-0.06 0c-0.09,0.85 -0.14,1.701 -0.2,2.522l0.09 -0.001c0.06,-0.82 0.11,-1.671 0.17,-2.522l0 0.001zm3.202 -4.283l-2.041 0c-0.23,3.432 -0.48,6.835 -0.79,10.267l0.74 0c1.791,-2.211 3.572,-4.393 5.333,-6.605l-1.811 0c-0.06,0.77 -0.11,1.531 -0.17,2.272l-1.221 0c0.09,-1.051 0.171,-2.102 0.23,-3.173 -0.17,0.231 -0.31,0.431 -0.48,0.651 0.09,-1.131 0.17,-2.272 0.23,-3.403l-0.02 -0.009z"/>
   </g>
  </g>
  <path fill="none" d="M136.796 295.988c2.461,-0.097 4.626,-0.225 7.017,-0.355 2.39,-0.131 5.006,-0.265 8.261,-0.493 3.256,-0.228 7.151,-0.55 10.471,-0.852 3.319,-0.302 6.061,-0.583 8.794,-0.949 2.732,-0.365 5.455,-0.814 7.654,-1.25 2.2,-0.436 3.876,-0.858 6.001,-1.331 2.126,-0.473 4.701,-0.996 6.595,-1.321 1.894,-0.325 3.108,-0.453 4.268,-0.536 1.16,-0.084 2.267,-0.124 3.155,-0.117 0.889,0.008 1.559,0.063 1.956,0.094 0.396,0.031 0.518,0.038 0.611,0.043 0.049,0.002 0.09,0.004 0.127,0.006 0.093,-0.07 0.162,-0.18 0.177,-0.779 0.016,-0.673 -0.037,-1.966 -0.106,-2.786 -0.069,-0.819 -0.154,-1.166 -0.285,-1.855 -0.131,-0.689 -0.307,-1.72 -0.651,-2.686 -0.345,-0.965 -0.858,-1.866 -1.476,-3.045 -0.619,-1.179 -1.343,-2.638 -1.783,-3.616 -0.44,-0.978 -0.596,-1.476 -0.848,-2.693 -0.251,-1.217 -0.598,-3.153 -0.953,-5.871 -0.354,-2.718 -0.716,-6.219 -1.038,-8.884 -0.322,-2.666 -0.603,-4.496 -1.081,-7.559 -0.478,-3.062 -1.152,-7.357 -1.71,-11.521 -0.558,-4.164 -1.001,-8.198 -1.348,-12.226 -0.347,-4.028 -0.598,-8.051 -0.759,-11.637 -0.161,-3.586 -0.231,-6.734 -0.287,-9.787 -0.055,-3.052 -0.095,-6.01 -0.156,-9.258 -0.06,-3.249 -0.14,-6.79 -0.108,-12.037 0.033,-5.248 0.179,-12.203 0.352,-17.466 0.174,-5.263 0.375,-8.834 0.652,-12.807 0.276,-3.973 0.628,-8.348 0.975,-12.271 0.347,-3.922 0.689,-7.393 1.122,-11.743 0.432,-4.35 0.955,-9.58 1.483,-13.99 0.528,-4.411 1.061,-8.002 1.512,-10.619 0.45,-2.618 0.817,-4.262 1.139,-5.308 0.321,-1.046 0.598,-1.494 0.803,-1.766 0.205,-0.271 0.338,-0.367 0.405,-0.414 0.066,-0.048 0.066,-0.048 0.049,0.598 -0.018,0.646 -0.053,1.939 -0.108,3.533 -0.056,1.594 -0.131,3.49 -0.173,4.967 -0.041,1.478 -0.049,2.536 -0.079,3.186 -0.03,0.65 -0.083,0.892 -0.102,1.011 -0.018,0.119 -0.003,0.117 -0.041,0.151 -0.038,0.034 -0.128,0.104 -0.133,0.68 -0.005,0.576 0.075,1.657 0.192,3.051 0.117,1.395 0.27,3.102 0.322,4.786 0.051,1.683 0.001,3.343 0.002,4.231 0,0.887 0.052,1.003 0.132,1.078 0.08,0.076 0.188,0.111 1.001,0.06 0.814,-0.051 2.333,-0.188 4.105,-0.324 1.773,-0.137 3.8,-0.273 5.955,-0.431 2.155,-0.158 4.438,-0.339 6.588,-0.463 2.15,-0.123 4.166,-0.188 5.992,-0.299 1.826,-0.111 3.46,-0.267 5.336,-0.47 1.876,-0.204 3.993,-0.455 6.015,-0.682 2.021,-0.226 3.947,-0.427 5.109,-0.565 1.162,-0.139 1.559,-0.214 1.758,-0.327 0.199,-0.113 0.199,-0.264 0.229,-0.906 0.03,-0.641 0.09,-1.772 0.108,-3.132 0.017,-1.361 -0.008,-2.95 -0.023,-4.429 -0.015,-1.478 -0.02,-2.846 -0.038,-3.724 -0.017,-0.877 -0.047,-1.264 -0.071,-1.469 -0.025,-0.205 -0.043,-0.227 -0.083,-0.294 -0.04,-0.068 -0.103,-0.181 -0.174,-0.682 -0.071,-0.5 -0.152,-1.388 -0.255,-2.32 -0.103,-0.933 -0.229,-1.911 -0.348,-2.739 -0.12,-0.827 -0.233,-1.504 -0.413,-2.544 -0.179,-1.042 -0.426,-2.447 -0.613,-3.449 -0.187,-1.002 -0.316,-1.601 -0.436,-2.27 -0.121,-0.668 -0.234,-1.408 -0.366,-2.121 -0.132,-0.713 -0.283,-1.399 -0.425,-2.156 -0.142,-0.757 -0.275,-1.584 -0.375,-2.322 -0.099,-0.738 -0.165,-1.387 -0.239,-2.029 -0.074,-0.643 -0.157,-1.279 -0.257,-2.036 -0.101,-0.757 -0.219,-1.634 -0.34,-2.526 -0.121,-0.891 -0.244,-1.796 -0.353,-2.565 -0.11,-0.768 -0.205,-1.399 -0.373,-2.344 -0.168,-0.945 -0.408,-2.203 -0.82,-4.085 -0.412,-1.881 -0.995,-4.386 -1.704,-6.89 -0.709,-2.505 -1.544,-5.009 -2.651,-7.745 -1.106,-2.736 -2.484,-5.703 -4.093,-8.851 -1.61,-3.149 -3.45,-6.478 -4.878,-8.781 -1.429,-2.304 -2.444,-3.581 -3.453,-4.629 -1.008,-1.049 -2.009,-1.869 -3.015,-2.608 -1.006,-0.739 -2.017,-1.398 -2.582,-1.773 -0.566,-0.375 -0.687,-0.465 -0.756,-0.571 -0.069,-0.105 -0.087,-0.226 -0.095,-0.303 -0.009,-0.077 -0.009,-0.109 -0.07,-0.174 -0.06,-0.066 -0.181,-0.164 -1.307,-0.714 -1.127,-0.551 -3.259,-1.555 -5.31,-2.603 -2.05,-1.048 -4.019,-2.142 -5.77,-2.976 -1.752,-0.833 -3.286,-1.407 -5.061,-1.957 -1.775,-0.551 -3.792,-1.079 -5.429,-1.507 -1.637,-0.427 -2.894,-0.754 -3.762,-1.008 -0.867,-0.254 -1.345,-0.435 -2.044,-0.7 -0.699,-0.266 -1.619,-0.615 -2.606,-0.909 -0.987,-0.295 -2.041,-0.533 -2.716,-0.687 -0.675,-0.153 -0.972,-0.221 -1.44,-0.471 -0.467,-0.25 -1.106,-0.683 -1.581,-0.937 -0.475,-0.254 -0.787,-0.329 -1.073,-0.365 -0.285,-0.035 -0.544,-0.03 -0.777,-0.03 -0.232,0 -0.438,-0.005 -1.342,-0.33 -0.904,-0.326 -2.506,-0.972 -4.026,-1.577 -1.52,-0.605 -2.959,-1.168 -4.404,-1.748 -1.446,-0.579 -2.9,-1.175 -3.816,-1.569 -0.917,-0.393 -1.297,-0.584 -1.594,-0.779 -0.298,-0.194 -0.514,-0.392 -0.705,-0.497 -0.191,-0.105 -0.356,-0.116 -0.467,-0.117 -0.11,0 -0.164,0.01 -0.251,-0.004 -0.086,-0.014 -0.204,-0.052 -0.587,-0.292 -0.382,-0.24 -1.028,-0.682 -1.678,-1.193 -0.65,-0.51 -1.304,-1.089 -1.956,-1.661 -0.653,-0.572 -1.304,-1.138 -2.311,-1.569 -1.007,-0.431 -2.37,-0.728 -3.723,-0.919 -1.353,-0.191 -2.695,-0.276 -4.576,-0.354 -1.881,-0.078 -4.3,-0.149 -7.931,-0.131 -3.631,0.017 -8.474,0.123 -12.914,0.219 -4.439,0.096 -8.475,0.183 -10.597,0.231 -2.123,0.048 -2.332,0.058 -4.152,0.203 -1.82,0.145 -5.249,0.427 -7.404,0.671 -2.155,0.244 -3.035,0.45 -3.752,0.707 -0.717,0.256 -1.27,0.563 -1.886,1.078 -0.616,0.516 -1.295,1.24 -2.019,1.877 -0.725,0.638 -1.494,1.189 -1.953,1.46 -0.459,0.272 -0.607,0.264 -0.901,0.366 -0.295,0.102 -0.735,0.313 -1.268,0.582 -0.533,0.269 -1.159,0.596 -1.919,0.922 -0.761,0.325 -1.656,0.65 -2.301,0.904 -0.645,0.254 -1.04,0.437 -1.514,0.628 -0.474,0.192 -1.027,0.39 -1.765,0.621 -0.738,0.232 -1.661,0.496 -2.558,0.836 -0.896,0.341 -1.766,0.759 -2.573,1.076 -0.808,0.316 -1.552,0.533 -2.299,0.749 -0.746,0.216 -1.496,0.432 -2.053,0.655 -0.557,0.222 -0.921,0.451 -1.207,0.636 -0.285,0.185 -0.491,0.326 -0.999,0.476 -0.508,0.15 -1.318,0.31 -1.914,0.463 -0.596,0.154 -0.978,0.301 -1.488,0.492 -0.51,0.192 -1.147,0.429 -1.75,0.617 -0.603,0.189 -1.171,0.329 -1.687,0.459 -0.516,0.13 -0.98,0.248 -1.7,0.426 -0.719,0.179 -1.693,0.418 -2.551,0.633 -0.857,0.216 -1.598,0.408 -2.171,0.57 -0.573,0.161 -0.979,0.292 -1.436,0.426 -0.456,0.134 -0.963,0.271 -1.427,0.4 -0.465,0.129 -0.887,0.249 -1.312,0.377 -0.424,0.128 -0.85,0.262 -1.203,0.399 -0.353,0.137 -0.632,0.277 -1.012,0.437 -0.38,0.159 -0.862,0.339 -1.279,0.53 -0.417,0.191 -0.769,0.394 -1.165,0.602 -0.397,0.209 -0.838,0.424 -1.221,0.617 -0.382,0.194 -0.705,0.366 -1.126,0.589 -0.421,0.223 -0.941,0.495 -1.657,0.865 -0.717,0.371 -1.631,0.838 -2.694,1.37 -1.063,0.532 -2.275,1.128 -3.18,1.576 -0.905,0.448 -1.504,0.747 -2.037,1.087 -0.533,0.341 -1.001,0.723 -1.443,1.08 -0.443,0.358 -0.86,0.689 -1.353,1.079 -0.493,0.39 -1.061,0.837 -1.779,1.475 -0.718,0.637 -1.586,1.465 -2.375,2.331 -0.79,0.866 -1.501,1.771 -2.145,2.665 -0.644,0.894 -1.22,1.777 -1.924,2.935 -0.704,1.158 -1.536,2.591 -2.208,3.821 -0.671,1.229 -1.181,2.255 -1.732,3.264 -0.551,1.008 -1.141,1.999 -1.644,2.942 -0.503,0.943 -0.918,1.838 -1.313,2.759 -0.395,0.922 -0.77,1.87 -1.152,2.756 -0.382,0.887 -0.772,1.712 -1.285,3.043 -0.513,1.331 -1.149,3.17 -1.716,4.911 -0.567,1.741 -1.065,3.386 -1.49,4.836 -0.425,1.451 -0.777,2.709 -1.129,4.225 -0.352,1.516 -0.704,3.291 -1.144,5.668 -0.44,2.376 -0.968,5.353 -1.29,7.073 -0.322,1.72 -0.438,2.183 -0.543,2.673 -0.106,0.491 -0.201,1.009 -0.4,1.833 -0.198,0.825 -0.5,1.957 -0.807,3.143 -0.307,1.187 -0.618,2.43 -0.84,3.478 -0.221,1.049 -0.352,1.904 -0.575,3.166 -0.224,1.262 -0.541,2.932 -0.787,4.297 -0.247,1.366 -0.423,2.427 -0.529,2.975 -0.105,0.548 -0.14,0.583 -0.204,0.634 -0.063,0.05 -0.155,0.115 -0.251,2.246 -0.096,2.13 -0.197,6.326 -0.275,8.622 -0.078,2.297 -0.133,2.694 0.035,2.902 0.169,0.209 0.561,0.229 1.419,0.337 0.857,0.108 2.18,0.305 4.51,0.755 2.332,0.45 5.671,1.154 8.339,1.667 2.668,0.513 4.664,0.835 6.751,1.182 2.088,0.347 4.265,0.719 7.24,1.192 2.975,0.472 6.746,1.046 9.15,1.373 2.404,0.327 3.44,0.407 3.958,0.447 0.518,0.041 0.518,0.041 0.568,-0.543 0.049,-0.583 0.149,-1.75 0.263,-2.759 0.114,-1.009 0.242,-1.86 0.394,-2.937 0.152,-1.077 0.328,-2.379 0.498,-3.576 0.17,-1.197 0.333,-2.289 0.417,-2.902 0.085,-0.614 0.089,-0.749 0.076,-0.865 -0.014,-0.116 -0.047,-0.211 -0.023,-1.818 0.024,-1.607 0.104,-4.725 0.147,-7.257 0.043,-2.532 0.048,-4.478 0.059,-5.601 0.011,-1.123 0.029,-1.422 0.067,-1.618 0.038,-0.197 0.095,-0.29 0.176,-0.338 0.08,-0.05 0.184,-0.055 0.308,0.038 0.124,0.094 0.27,0.285 0.345,0.376 0.074,0.092 0.076,0.085 0.078,0.081 0.001,-0.004 0.001,-0.004 0.115,0.253 0.114,0.256 0.343,0.769 0.597,1.463 0.254,0.694 0.533,1.569 0.762,2.507 0.229,0.938 0.408,1.939 0.607,3.547 0.2,1.608 0.422,3.823 0.739,6.228 0.316,2.406 0.729,5.001 1.468,11.393 0.739,6.392 1.805,16.58 2.64,24.511 0.835,7.931 1.439,13.604 1.811,19.699 0.372,6.095 0.513,12.613 0.503,19.654 -0.01,7.04 -0.171,14.604 -0.372,20.609 -0.202,6.004 -0.443,10.45 -0.725,14.423 -0.281,3.973 -0.603,7.473 -1.448,14.162 -0.845,6.688 -2.213,16.566 -3.007,23.777 -0.795,7.212 -1.016,11.758 -1.217,15.269 -0.202,3.51 -0.383,5.984 -0.674,8.122 -0.292,2.137 -0.694,3.937 -0.973,5.315 -0.279,1.378 -0.436,2.334 -0.453,2.935 -0.018,0.601 0.103,0.847 0.249,0.975 0.146,0.129 0.317,0.138 0.5,0.175 0.184,0.036 0.38,0.099 0.469,0.155 0.019,0.011 0.032,0.022 0.042,0.037 0.876,0.322 1.753,0.645 3.155,0.925 1.401,0.28 3.329,0.518 6.493,0.754 3.163,0.237 7.562,0.472 11.099,0.609 3.537,0.138 6.212,0.178 9.592,0.181 3.38,0.003 7.463,-0.03 11.329,-0.007 3.866,0.024 7.513,0.104 10.591,0.191 3.078,0.088 5.586,0.181 7.916,0.252 2.33,0.07 4.483,0.117 6.789,0.171 2.307,0.053 4.768,0.114 7.356,0.121 2.589,0.006 5.304,-0.041 8.04,-0.098 2.736,-0.057 5.492,-0.124 7.953,-0.221z"/>
 </g>
</svg>
