<?xml version="1.0" encoding="UTF-8"?>
<!DOCTYPE svg PUBLIC "-//W3C//DTD SVG 1.1//EN" "http://www.w3.org/Graphics/SVG/1.1/DTD/svg11.dtd">
<!-- Creator: CorelDRAW -->
<svg xmlns="http://www.w3.org/2000/svg" xml:space="preserve" width="238px" height="298px" version="1.1" shape-rendering="geometricPrecision" text-rendering="geometricPrecision" image-rendering="optimizeQuality" fill-rule="evenodd" clip-rule="evenodd"
viewBox="0 0 238 298.123"
 xmlns:xlink="http://www.w3.org/1999/xlink"
 xmlns:xodm="http://www.corel.com/coreldraw/odm/2003">
 <defs>
   <clipPath id="id0">
    <path d="M207.298 27.894c-0.11,-0.063 -0.222,-0.122 -0.337,-0.177 -4.975,-2.38 -9.714,-5.334 -14.858,-7.149 -4.647,-1.639 -11.454,-2.699 -17.288,-4.719 -2.277,-0.789 -4.556,-1.589 -6.82,-2.415l-0.004 -0.03 -9.999 -4.08 -0.175 -0.072c-0.614,-0.28 -1.553,-1.207 -2.512,-1.889 -0.494,-0.369 -0.613,-0.563 -1.038,-0.905 -2.856,-2.299 -5.606,-5.635 -9.574,-5.641 -0.901,-0.002 -1.04,-0.123 -1.779,-0.163l-7.601 -0.17c-5.892,-0.486 -12.055,-0.501 -18.06,-0.477 -5.087,0.02 -9.557,0.063 -14.567,0.477 -2.529,0.209 -4.996,0.029 -7.6,0.17 -0.739,0.04 -0.878,0.161 -1.779,0.163 -3.968,0.006 -6.718,3.342 -9.575,5.641 -0.424,0.342 -0.543,0.536 -1.037,0.905 -0.741,0.527 -1.471,1.2 -2.047,1.608 -0.17,0.121 -0.326,0.218 -0.465,0.281l-10.174 4.152 -0.003 0.03c-2.265,0.826 -4.544,1.626 -6.821,2.415 -5.834,2.02 -12.641,3.08 -17.288,4.719 -5.144,1.815 -9.883,4.769 -14.858,7.149 -0.212,0.101 -0.412,0.215 -0.605,0.339 -0.909,0.583 -1.664,1.379 -2.651,2.001 -11.263,7.099 -18.243,27.467 -21.401,39.215 -1.569,5.839 -1.98,12.983 -2.969,19.04 -0.5,3.067 -1.172,6.193 -1.752,9.253 -0.585,3.095 -0.872,6.493 -1.288,9.631 -0.406,0.268 -0.327,-0.023 -0.308,0.899l-0.065 1.854 0 8.783c0.041,1.018 0.102,1.813 0.186,2.164 1.125,0.477 3.706,0.514 5.07,0.712 7.662,1.114 9.041,0.828 15.791,1.554l21.547 1.349c-0.015,-1.623 0.547,-10.725 0.578,-13.424l-0.603 -0.316 -0.07 -0.036c0,-4.476 -0.011,-9.226 -0.011,-13.7 1.678,4.247 3.328,18.944 3.789,24.023 0.735,8.116 1.826,16.186 2.512,24.347 0.348,4.137 0.874,8.269 1.009,12.419l0.653 12.776c0.396,4.199 0.208,8.934 0.274,13.179 0.032,2.062 0.194,4.007 0.186,6.13 -0.007,2.226 -0.172,4.349 -0.196,6.512 -0.051,4.469 -0.054,8.634 -0.319,13.111 -0.68,11.475 -1.257,26.076 -3.267,37.02 -0.966,5.407 -2.177,11.944 -2.754,17.389 -0.258,2.432 -0.827,10.057 -1.468,11.951 -0.68,2.01 -0.163,3.658 -0.568,5.77 -0.342,1.785 -0.742,3.812 -1.164,5.568 -0.463,1.93 -1.435,3.647 0.397,4.966 4.276,1.054 8.552,2.108 13.913,3.017 5.36,0.909 11.804,1.672 18.03,2.048 6.226,0.375 12.232,0.363 21.568,0.476 9.335,0.112 21.999,0.351 32.523,0.382 10.525,0.032 18.909,-0.144 26.242,-0.419 7.333,-0.275 13.615,-0.65 19.058,-1.151 5.443,-0.501 10.048,-1.126 13.829,-1.873 3.78,-0.746 6.736,-1.613 9.693,-2.48 1.832,-1.319 0.86,-3.036 0.397,-4.966 -0.422,-1.756 -0.822,-3.783 -1.164,-5.568 -0.405,-2.112 0.112,-3.76 -0.568,-5.77 -0.641,-1.894 -1.21,-9.519 -1.468,-11.951 -0.577,-5.445 -1.788,-11.982 -2.754,-17.389 -2.01,-10.944 -2.587,-25.545 -3.267,-37.02 -0.265,-4.477 -0.268,-8.642 -0.319,-13.111 -0.024,-2.163 -0.189,-4.286 -0.196,-6.512 -0.008,-2.123 0.154,-4.068 0.186,-6.13 0.066,-4.245 -0.122,-8.98 0.274,-13.179l0.653 -12.776c0.135,-4.15 0.661,-8.282 1.009,-12.419 0.686,-8.161 1.777,-16.231 2.512,-24.347 0.461,-5.079 1.889,-19.043 3.568,-23.29 0,4.474 -0.105,8.584 -0.105,13.06l0 0 -0.416 0.247c-0.004,0.882 0.338,12.091 0.604,13.423l21.579 -1.336c6.75,-0.726 8.129,-0.44 15.791,-1.554 1.364,-0.198 3.945,-0.235 5.07,-0.712 0.084,-0.351 0.145,-1.146 0.186,-2.164l0 -8.783 -0.065 -1.854c0.014,-0.687 0.062,-0.7 -0.083,-0.774 -0.05,-0.025 -0.122,-0.057 -0.225,-0.125 -0.416,-3.138 -0.703,-6.536 -1.288,-9.631 -0.58,-3.06 -1.252,-6.186 -1.752,-9.253 -0.989,-6.057 -1.4,-13.201 -2.969,-19.04 -3.158,-11.748 -10.138,-32.116 -21.401,-39.215 -1.057,-0.665 -1.895,-1.576 -2.919,-2.163z"/>
   </clipPath>
    <clipPath id="id1">
     <path d="M195.291 97.768c-0.085,-0.928 -0.17,-1.856 -0.308,-2.718 -0.137,-0.863 -0.329,-1.661 -0.099,-3.18 0.23,-1.519 0.881,-3.758 1.681,-6.311 0.801,-2.553 1.752,-5.418 2.565,-9.742 0.813,-4.323 1.489,-10.104 2.278,-15.986 0.788,-5.881 1.689,-11.863 2.652,-16.318 0.964,-4.454 1.99,-7.383 2.541,-9.31 0.55,-1.927 0.626,-2.853 0.663,-4.067 0.021,-0.674 0.03,-1.438 0.034,-2.242 -0.11,-0.063 -0.222,-0.122 -0.337,-0.177 -4.975,-2.38 -9.714,-5.334 -14.858,-7.149 -4.647,-1.639 -11.454,-2.699 -17.288,-4.719 -2.277,-0.789 -4.556,-1.589 -6.82,-2.415l-0.004 -0.03 -9.999 -4.08 -0.175 -0.072c-0.614,-0.28 -1.553,-1.207 -2.512,-1.889 -0.494,-0.369 -0.613,-0.563 -1.038,-0.905 -2.856,-2.299 -5.606,-5.635 -9.574,-5.641 -0.901,-0.002 -1.04,-0.123 -1.779,-0.163l-7.601 -0.17c-5.892,-0.486 -12.055,-0.501 -18.06,-0.477 -5.087,0.02 -9.557,0.063 -14.567,0.477 -2.529,0.209 -4.996,0.029 -7.6,0.17 -0.739,0.04 -0.878,0.161 -1.779,0.163 -3.968,0.006 -6.718,3.342 -9.575,5.641 -0.424,0.342 -0.543,0.536 -1.037,0.905 -0.741,0.527 -1.471,1.2 -2.047,1.608 -0.17,0.121 -0.326,0.218 -0.465,0.281l-10.174 4.152 -0.003 0.03c-2.265,0.826 -4.544,1.626 -6.821,2.415 -5.834,2.02 -12.641,3.08 -17.288,4.719 -5.144,1.815 -9.883,4.769 -14.858,7.149 -0.212,0.101 -0.412,0.215 -0.605,0.339 0.121,0.721 0.248,1.443 0.383,2.165 0.438,2.34 0.963,4.693 1.752,8.597 0.788,3.904 1.839,9.36 2.815,15.624 0.976,6.262 1.877,13.332 3.034,19.705 1.157,6.372 2.57,12.047 3.374,15.175 0.803,3.129 0.998,3.71 1.026,4.321 0.028,0.61 -0.11,1.248 -0.192,1.818 -0.083,0.57 -0.11,1.072 -0.138,1.574 1.678,4.247 3.328,18.944 3.789,24.023 0.735,8.116 1.826,16.186 2.512,24.347 0.348,4.137 0.874,8.269 1.009,12.419l0.653 12.776c0.396,4.199 0.208,8.934 0.274,13.179 0.032,2.062 0.194,4.007 0.186,6.13 -0.007,2.226 -0.172,4.349 -0.196,6.512 -0.051,4.469 -0.054,8.634 -0.319,13.111 -0.68,11.475 -1.257,26.076 -3.267,37.02 -0.966,5.407 -2.177,11.944 -2.754,17.389 -0.258,2.432 -0.827,10.057 -1.468,11.951 -0.68,2.01 -0.163,3.658 -0.568,5.77 -0.342,1.785 -0.742,3.812 -1.164,5.568 -0.463,1.93 -1.435,3.647 0.397,4.966 4.276,1.054 8.552,2.108 13.913,3.017 5.36,0.909 11.804,1.672 18.03,2.048 6.226,0.375 12.232,0.363 21.568,0.476 9.335,0.112 21.999,0.351 32.523,0.382 10.525,0.032 18.909,-0.144 26.242,-0.419 7.333,-0.275 13.615,-0.65 19.058,-1.151 5.443,-0.501 10.048,-1.126 13.829,-1.873 3.78,-0.746 6.736,-1.613 9.693,-2.48 1.832,-1.319 0.86,-3.036 0.397,-4.966 -0.422,-1.756 -0.822,-3.783 -1.164,-5.568 -0.405,-2.112 0.112,-3.76 -0.568,-5.77 -0.641,-1.894 -1.21,-9.519 -1.468,-11.951 -0.577,-5.445 -1.788,-11.982 -2.754,-17.389 -2.01,-10.944 -2.587,-25.545 -3.267,-37.02 -0.265,-4.477 -0.268,-8.642 -0.319,-13.111 -0.024,-2.163 -0.189,-4.286 -0.196,-6.512 -0.008,-2.123 0.154,-4.068 0.186,-6.13 0.066,-4.245 -0.122,-8.98 0.274,-13.179l0.653 -12.776c0.135,-4.15 0.661,-8.282 1.009,-12.419 0.686,-8.161 1.777,-16.231 2.512,-24.347 0.461,-5.079 1.889,-19.043 3.568,-23.29z"/>
    </clipPath>
    <clipPath id="id2">
     <path d="M207.298 27.894c-0.11,-0.063 -0.222,-0.122 -0.337,-0.177 -4.975,-2.38 -9.714,-5.334 -14.858,-7.149 -4.647,-1.639 -11.454,-2.699 -17.288,-4.719 -2.277,-0.789 -4.556,-1.589 -6.82,-2.415l-0.004 -0.03 -9.999 -4.08 -0.175 -0.072c-0.614,-0.28 -1.553,-1.207 -2.512,-1.889 -0.494,-0.369 -0.613,-0.563 -1.038,-0.905 -2.856,-2.299 -5.606,-5.635 -9.574,-5.641 -0.901,-0.002 -1.04,-0.123 -1.779,-0.163l-7.601 -0.17c-5.892,-0.486 -12.055,-0.501 -18.06,-0.477 -5.087,0.02 -9.557,0.063 -14.567,0.477 -2.529,0.209 -4.996,0.029 -7.6,0.17 -0.739,0.04 -0.878,0.161 -1.779,0.163 -3.968,0.006 -6.718,3.342 -9.575,5.641 -0.424,0.342 -0.543,0.536 -1.037,0.905 -0.741,0.527 -1.471,1.2 -2.047,1.608 -0.17,0.121 -0.326,0.218 -0.465,0.281l-10.174 4.152 -0.003 0.03c-2.265,0.826 -4.544,1.626 -6.821,2.415 -5.834,2.02 -12.641,3.08 -17.288,4.719 -5.144,1.815 -9.883,4.769 -14.858,7.149 -0.212,0.101 -0.412,0.215 -0.605,0.339 -0.909,0.583 -1.664,1.379 -2.651,2.001 -11.263,7.099 -18.243,27.467 -21.401,39.215 -1.569,5.839 -1.98,12.983 -2.969,19.04 -0.5,3.067 -1.172,6.193 -1.752,9.253 -0.585,3.095 -0.872,6.493 -1.288,9.631 -0.406,0.268 -0.327,-0.023 -0.308,0.899l-0.065 1.854 0 8.783c0.041,1.018 0.102,1.813 0.186,2.164 1.125,0.477 3.706,0.514 5.07,0.712 7.662,1.114 9.041,0.828 15.791,1.554l21.547 1.349c-0.015,-1.623 0.547,-10.725 0.578,-13.424l-0.603 -0.316 -0.07 -0.036c0,-4.476 -0.011,-9.226 -0.011,-13.7 1.678,4.247 3.328,18.944 3.789,24.023 0.735,8.116 1.826,16.186 2.512,24.347 0.348,4.137 0.874,8.269 1.009,12.419l0.653 12.776c0.396,4.199 0.208,8.934 0.274,13.179 0.032,2.062 0.194,4.007 0.186,6.13 -0.007,2.226 -0.172,4.349 -0.196,6.512 -0.051,4.469 -0.054,8.634 -0.319,13.111 -0.68,11.475 -1.257,26.076 -3.267,37.02 -0.966,5.407 -2.177,11.944 -2.754,17.389 -0.258,2.432 -0.827,10.057 -1.468,11.951 -0.68,2.01 -0.163,3.658 -0.568,5.77 -0.342,1.785 -0.742,3.812 -1.164,5.568 -0.463,1.93 -1.435,3.647 0.397,4.966 4.276,1.054 8.552,2.108 13.913,3.017 5.36,0.909 11.804,1.672 18.03,2.048 6.226,0.375 12.232,0.363 21.568,0.476 9.335,0.112 21.999,0.351 32.523,0.382 10.525,0.032 18.909,-0.144 26.242,-0.419 7.333,-0.275 13.615,-0.65 19.058,-1.151 5.443,-0.501 10.048,-1.126 13.829,-1.873 3.78,-0.746 6.736,-1.613 9.693,-2.48 1.832,-1.319 0.86,-3.036 0.397,-4.966 -0.422,-1.756 -0.822,-3.783 -1.164,-5.568 -0.405,-2.112 0.112,-3.76 -0.568,-5.77 -0.641,-1.894 -1.21,-9.519 -1.468,-11.951 -0.577,-5.445 -1.788,-11.982 -2.754,-17.389 -2.01,-10.944 -2.587,-25.545 -3.267,-37.02 -0.265,-4.477 -0.268,-8.642 -0.319,-13.111 -0.024,-2.163 -0.189,-4.286 -0.196,-6.512 -0.008,-2.123 0.154,-4.068 0.186,-6.13 0.066,-4.245 -0.122,-8.98 0.274,-13.179l0.653 -12.776c0.135,-4.15 0.661,-8.282 1.009,-12.419 0.686,-8.161 1.777,-16.231 2.512,-24.347 0.461,-5.079 1.889,-19.043 3.568,-23.29 0,4.474 -0.105,8.584 -0.105,13.06l0 0 -0.416 0.247c-0.004,0.882 0.338,12.091 0.604,13.423l21.579 -1.336c6.75,-0.726 8.129,-0.44 15.791,-1.554 1.364,-0.198 3.945,-0.235 5.07,-0.712 0.084,-0.351 0.145,-1.146 0.186,-2.164l0 -8.783 -0.065 -1.854c0.014,-0.687 0.062,-0.7 -0.083,-0.774 -0.05,-0.025 -0.122,-0.057 -0.225,-0.125 -0.416,-3.138 -0.703,-6.536 -1.288,-9.631 -0.58,-3.06 -1.252,-6.186 -1.752,-9.253 -0.989,-6.057 -1.4,-13.201 -2.969,-19.04 -3.158,-11.748 -10.138,-32.116 -21.401,-39.215 -1.057,-0.665 -1.895,-1.576 -2.919,-2.163z"/>
    </clipPath>
    <clipPath id="id3">
     <path d="M42.488 97.035c0.028,-0.502 0.055,-1.004 0.138,-1.574 0.082,-0.57 0.22,-1.208 0.192,-1.818 -0.028,-0.611 -0.223,-1.192 -1.026,-4.321 -0.804,-3.128 -2.217,-8.803 -3.374,-15.175 -1.157,-6.373 -2.058,-13.443 -3.034,-19.705 -0.976,-6.264 -2.027,-11.72 -2.815,-15.624 -0.789,-3.904 -1.314,-6.257 -1.752,-8.597 -0.135,-0.722 -0.262,-1.444 -0.383,-2.165 -0.909,0.583 -1.664,1.379 -2.651,2.001 -11.263,7.099 -18.243,27.467 -21.401,39.215 -1.569,5.839 -1.98,12.983 -2.969,19.04 -0.5,3.067 -1.172,6.193 -1.752,9.253 -0.585,3.095 -0.872,6.493 -1.288,9.631 0.744,0.196 1.489,0.392 4.426,0.672 2.938,0.279 8.068,0.642 13.143,1.005 5.074,0.363 10.092,0.726 13.996,1.045 3.905,0.319 6.695,0.595 8.372,0.73l0.055 0.004 0.053 0.004 0.053 0.004 0.052 0.004 0.051 0.004 0.051 0.004 0.05 0.004 0.048 0.004 0.001 0 0.048 0.003 0.048 0.004 0.046 0.003 0.047 0.003 0.045 0.004 0.045 0.003 0.044 0.003 0.044 0.003 0.042 0.003 0.043 0.003 0.041 0.002 0.041 0.003 0 0 0.041 0.002 0.039 0.003 0.039 0.002 0.001 0 0.038 0.003 0.038 0.002 0.037 0.002 0 0 0.037 0.002 0.036 0.002 0.036 0.002 0 0 0.035 0.002 0 0 0.035 0.002 0 0 0.034 0.002 0 0 0.033 0.002 0.033 0.001 0.001 0 0.032 0.002 0.032 0.002 0 0 0.031 0.001 0.001 0 0.031 0.001 0 0 0.03 0.002 0.001 0 0.029 0.001 0.001 0 0.029 0.001 0 0 0.029 0.002 0.001 0 0.028 0 0.001 0 0.028 0.002 0.028 0.001 0 0 0.028 0 0 0 0.027 0.001 0 0 0.027 0.001 0.026 0.001 0.001 0 0.025 0.001 0.001 0 0.025 0.001 0 0 0.025 0 0.001 0 0.025 0.001 0 0 0.024 0 0.001 0 0.024 0.001 0 0 0.024 0.001 0 0 0.023 0 0.001 0 0.023 0 0 0 0.023 0.001 0.001 0 0.022 0 0.001 0 0.022 0.001 0 0 0.022 0 0 0 0.022 0 0.001 0 0.021 0 0 0 -42.196 -3.575c-0.406,0.268 -0.327,-0.023 -0.308,0.899l-0.065 1.854 0 8.783c0.041,1.018 0.102,1.813 0.186,2.164 1.125,0.477 3.706,0.514 5.07,0.712 7.662,1.114 9.041,0.828 15.791,1.554l21.547 1.349c-0.015,-1.623 0.547,-10.725 0.578,-13.424l-0.603 -0.316 0 0 -0.07 -0.036c0,-4.476 -0.011,-9.226 -0.011,-13.7zm152.698 13.793l0 0 -0.416 0.247c-0.004,0.882 0.338,12.091 0.604,13.423l21.579 -1.336c6.75,-0.726 8.129,-0.44 15.791,-1.554 1.364,-0.198 3.945,-0.235 5.07,-0.712 0.084,-0.351 0.145,-1.146 0.186,-2.164l0 -8.783 -0.065 -1.854c0.014,-0.687 0.062,-0.7 -0.083,-0.774 -0.05,-0.025 -0.122,-0.057 -0.225,-0.125 -0.416,-3.138 -0.703,-6.536 -1.288,-9.631 -0.58,-3.06 -1.252,-6.186 -1.752,-9.253 -0.989,-6.057 -1.4,-13.201 -2.969,-19.04 -3.158,-11.748 -10.138,-32.116 -21.401,-39.215 -1.057,-0.665 -1.895,-1.576 -2.919,-2.163 -0.004,0.804 -0.013,1.568 -0.034,2.242 -0.037,1.214 -0.113,2.14 -0.663,4.067 -0.551,1.927 -1.577,4.856 -2.541,9.31 -0.963,4.455 -1.864,10.437 -2.652,16.318 -0.789,5.882 -1.465,11.663 -2.278,15.986 -0.813,4.324 -1.764,7.189 -2.565,9.742 -0.8,2.553 -1.451,4.792 -1.681,6.311 -0.23,1.519 -0.038,2.317 0.099,3.18 0.138,0.862 0.223,1.79 0.308,2.718 0,4.474 -0.105,8.584 -0.105,13.06z"/>
    </clipPath>
    <clipPath id="id4">
     <path d="M207.298 27.894c-0.11,-0.063 -0.222,-0.122 -0.337,-0.177 -4.975,-2.38 -9.714,-5.334 -14.858,-7.149 -4.647,-1.639 -11.454,-2.699 -17.288,-4.719 -2.277,-0.789 -4.556,-1.589 -6.82,-2.415l-0.004 -0.03 -9.999 -4.08 -0.175 -0.072c-0.614,-0.28 -1.553,-1.207 -2.512,-1.889 -0.494,-0.369 -0.613,-0.563 -1.038,-0.905 -2.856,-2.299 -5.606,-5.635 -9.574,-5.641 -0.901,-0.002 -1.04,-0.123 -1.779,-0.163l-7.601 -0.17c-5.892,-0.486 -12.055,-0.501 -18.06,-0.477 -5.087,0.02 -9.557,0.063 -14.567,0.477 -2.529,0.209 -4.996,0.029 -7.6,0.17 -0.739,0.04 -0.878,0.161 -1.779,0.163 -3.968,0.006 -6.718,3.342 -9.575,5.641 -0.424,0.342 -0.543,0.536 -1.037,0.905 -0.741,0.527 -1.471,1.2 -2.047,1.608 -0.17,0.121 -0.326,0.218 -0.465,0.281l-10.174 4.152 -0.003 0.03c-2.265,0.826 -4.544,1.626 -6.821,2.415 -5.834,2.02 -12.641,3.08 -17.288,4.719 -5.144,1.815 -9.883,4.769 -14.858,7.149 -0.212,0.101 -0.412,0.215 -0.605,0.339 -0.909,0.583 -1.664,1.379 -2.651,2.001 -11.263,7.099 -18.243,27.467 -21.401,39.215 -1.569,5.839 -1.98,12.983 -2.969,19.04 -0.5,3.067 -1.172,6.193 -1.752,9.253 -0.585,3.095 -0.872,6.493 -1.288,9.631 -0.406,0.268 -0.327,-0.023 -0.308,0.899l-0.065 1.854 0 8.783c0.041,1.018 0.102,1.813 0.186,2.164 1.125,0.477 3.706,0.514 5.07,0.712 7.662,1.114 9.041,0.828 15.791,1.554l21.547 1.349c-0.015,-1.623 0.547,-10.725 0.578,-13.424l-0.603 -0.316 -0.07 -0.036c0,-4.476 -0.011,-9.226 -0.011,-13.7 1.678,4.247 3.328,18.944 3.789,24.023 0.735,8.116 1.826,16.186 2.512,24.347 0.348,4.137 0.874,8.269 1.009,12.419l0.653 12.776c0.396,4.199 0.208,8.934 0.274,13.179 0.032,2.062 0.194,4.007 0.186,6.13 -0.007,2.226 -0.172,4.349 -0.196,6.512 -0.051,4.469 -0.054,8.634 -0.319,13.111 -0.68,11.475 -1.257,26.076 -3.267,37.02 -0.966,5.407 -2.177,11.944 -2.754,17.389 -0.258,2.432 -0.827,10.057 -1.468,11.951 -0.68,2.01 -0.163,3.658 -0.568,5.77 -0.342,1.785 -0.742,3.812 -1.164,5.568 -0.463,1.93 -1.435,3.647 0.397,4.966 4.276,1.054 8.552,2.108 13.913,3.017 5.36,0.909 11.804,1.672 18.03,2.048 6.226,0.375 12.232,0.363 21.568,0.476 9.335,0.112 21.999,0.351 32.523,0.382 10.525,0.032 18.909,-0.144 26.242,-0.419 7.333,-0.275 13.615,-0.65 19.058,-1.151 5.443,-0.501 10.048,-1.126 13.829,-1.873 3.78,-0.746 6.736,-1.613 9.693,-2.48 1.832,-1.319 0.86,-3.036 0.397,-4.966 -0.422,-1.756 -0.822,-3.783 -1.164,-5.568 -0.405,-2.112 0.112,-3.76 -0.568,-5.77 -0.641,-1.894 -1.21,-9.519 -1.468,-11.951 -0.577,-5.445 -1.788,-11.982 -2.754,-17.389 -2.01,-10.944 -2.587,-25.545 -3.267,-37.02 -0.265,-4.477 -0.268,-8.642 -0.319,-13.111 -0.024,-2.163 -0.189,-4.286 -0.196,-6.512 -0.008,-2.123 0.154,-4.068 0.186,-6.13 0.066,-4.245 -0.122,-8.98 0.274,-13.179l0.653 -12.776c0.135,-4.15 0.661,-8.282 1.009,-12.419 0.686,-8.161 1.777,-16.231 2.512,-24.347 0.461,-5.079 1.889,-19.043 3.568,-23.29 0,4.474 -0.105,8.584 -0.105,13.06l0 0 -0.416 0.247c-0.004,0.882 0.338,12.091 0.604,13.423l21.579 -1.336c6.75,-0.726 8.129,-0.44 15.791,-1.554 1.364,-0.198 3.945,-0.235 5.07,-0.712 0.084,-0.351 0.145,-1.146 0.186,-2.164l0 -8.783 -0.065 -1.854c0.014,-0.687 0.062,-0.7 -0.083,-0.774 -0.05,-0.025 -0.122,-0.057 -0.225,-0.125 -0.416,-3.138 -0.703,-6.536 -1.288,-9.631 -0.58,-3.06 -1.252,-6.186 -1.752,-9.253 -0.989,-6.057 -1.4,-13.201 -2.969,-19.04 -3.158,-11.748 -10.138,-32.116 -21.401,-39.215 -1.057,-0.665 -1.895,-1.576 -2.919,-2.163z"/>
    </clipPath>
 </defs>
 <g id="VETORES">
  <metadata id="CorelCorpID_0Corel-Layer"/>
  <g>
  </g>
  <g clip-path="url(#id0)">
   <g id="_2834734039328">
    <g>
    </g>
   </g>
   <g clip-path="url(#id1)">
   </g>
   <g clip-path="url(#id2)">
    <path id="torso" fill="none" d="M195.291 97.768c-0.085,-0.928 -0.17,-1.856 -0.308,-2.718 -0.137,-0.863 -0.329,-1.661 -0.099,-3.18 0.23,-1.519 0.881,-3.758 1.681,-6.311 0.801,-2.553 1.752,-5.418 2.565,-9.742 0.813,-4.323 1.489,-10.104 2.278,-15.986 0.788,-5.881 1.689,-11.863 2.652,-16.318 0.964,-4.454 1.99,-7.383 2.541,-9.31 0.55,-1.927 0.626,-2.853 0.663,-4.067 0.021,-0.674 0.03,-1.438 0.034,-2.242 -0.11,-0.063 -0.222,-0.122 -0.337,-0.177 -4.975,-2.38 -9.714,-5.334 -14.858,-7.149 -4.647,-1.639 -11.454,-2.699 -17.288,-4.719 -2.277,-0.789 -4.556,-1.589 -6.82,-2.415l-0.004 -0.03 -9.999 -4.08 -0.175 -0.072c-0.614,-0.28 -1.553,-1.207 -2.512,-1.889 -0.494,-0.369 -0.613,-0.563 -1.038,-0.905 -2.856,-2.299 -5.606,-5.635 -9.574,-5.641 -0.901,-0.002 -1.04,-0.123 -1.779,-0.163l-7.601 -0.17c-5.892,-0.486 -12.055,-0.501 -18.06,-0.477 -5.087,0.02 -9.557,0.063 -14.567,0.477 -2.529,0.209 -4.996,0.029 -7.6,0.17 -0.739,0.04 -0.878,0.161 -1.779,0.163 -3.968,0.006 -6.718,3.342 -9.575,5.641 -0.424,0.342 -0.543,0.536 -1.037,0.905 -0.741,0.527 -1.471,1.2 -2.047,1.608 -0.17,0.121 -0.326,0.218 -0.465,0.281l-10.174 4.152 -0.003 0.03c-2.265,0.826 -4.544,1.626 -6.821,2.415 -5.834,2.02 -12.641,3.08 -17.288,4.719 -5.144,1.815 -9.883,4.769 -14.858,7.149 -0.212,0.101 -0.412,0.215 -0.605,0.339 0.121,0.721 0.248,1.443 0.383,2.165 0.438,2.34 0.963,4.693 1.752,8.597 0.788,3.904 1.839,9.36 2.815,15.624 0.976,6.262 1.877,13.332 3.034,19.705 1.157,6.372 2.57,12.047 3.374,15.175 0.803,3.129 0.998,3.71 1.026,4.321 0.028,0.61 -0.11,1.248 -0.192,1.818 -0.083,0.57 -0.11,1.072 -0.138,1.574 1.678,4.247 3.328,18.944 3.789,24.023 0.735,8.116 1.826,16.186 2.512,24.347 0.348,4.137 0.874,8.269 1.009,12.419l0.653 12.776c0.396,4.199 0.208,8.934 0.274,13.179 0.032,2.062 0.194,4.007 0.186,6.13 -0.007,2.226 -0.172,4.349 -0.196,6.512 -0.051,4.469 -0.054,8.634 -0.319,13.111 -0.68,11.475 -1.257,26.076 -3.267,37.02 -0.966,5.407 -2.177,11.944 -2.754,17.389 -0.258,2.432 -0.827,10.057 -1.468,11.951 -0.68,2.01 -0.163,3.658 -0.568,5.77 -0.342,1.785 -0.742,3.812 -1.164,5.568 -0.463,1.93 -1.435,3.647 0.397,4.966 4.276,1.054 8.552,2.108 13.913,3.017 5.36,0.909 11.804,1.672 18.03,2.048 6.226,0.375 12.232,0.363 21.568,0.476 9.335,0.112 21.999,0.351 32.523,0.382 10.525,0.032 18.909,-0.144 26.242,-0.419 7.333,-0.275 13.615,-0.65 19.058,-1.151 5.443,-0.501 10.048,-1.126 13.829,-1.873 3.78,-0.746 6.736,-1.613 9.693,-2.48 1.832,-1.319 0.86,-3.036 0.397,-4.966 -0.422,-1.756 -0.822,-3.783 -1.164,-5.568 -0.405,-2.112 0.112,-3.76 -0.568,-5.77 -0.641,-1.894 -1.21,-9.519 -1.468,-11.951 -0.577,-5.445 -1.788,-11.982 -2.754,-17.389 -2.01,-10.944 -2.587,-25.545 -3.267,-37.02 -0.265,-4.477 -0.268,-8.642 -0.319,-13.111 -0.024,-2.163 -0.189,-4.286 -0.196,-6.512 -0.008,-2.123 0.154,-4.068 0.186,-6.13 0.066,-4.245 -0.122,-8.98 0.274,-13.179l0.653 -12.776c0.135,-4.15 0.661,-8.282 1.009,-12.419 0.686,-8.161 1.777,-16.231 2.512,-24.347 0.461,-5.079 1.889,-19.043 3.568,-23.29z"/>
    <g>
    </g>
   </g>
   <g clip-path="url(#id3)">
   </g>
   <g clip-path="url(#id4)">
    <path id="manga" fill="none" d="M42.488 97.035c0.028,-0.502 0.055,-1.004 0.138,-1.574 0.082,-0.57 0.22,-1.208 0.192,-1.818 -0.028,-0.611 -0.223,-1.192 -1.026,-4.321 -0.804,-3.128 -2.217,-8.803 -3.374,-15.175 -1.157,-6.373 -2.058,-13.443 -3.034,-19.705 -0.976,-6.264 -2.027,-11.72 -2.815,-15.624 -0.789,-3.904 -1.314,-6.257 -1.752,-8.597 -0.135,-0.722 -0.262,-1.444 -0.383,-2.165 -0.909,0.583 -1.664,1.379 -2.651,2.001 -11.263,7.099 -18.243,27.467 -21.401,39.215 -1.569,5.839 -1.98,12.983 -2.969,19.04 -0.5,3.067 -1.172,6.193 -1.752,9.253 -0.585,3.095 -0.872,6.493 -1.288,9.631 -0.406,0.268 -0.327,-0.023 -0.308,0.899l-0.065 1.854 0 8.783c0.041,1.018 0.102,1.813 0.186,2.164 1.125,0.477 3.706,0.514 5.07,0.712 7.662,1.114 9.041,0.828 15.791,1.554l21.547 1.349c-0.015,-1.623 0.547,-10.725 0.578,-13.424l-0.603 -0.316 0 0 -0.07 -0.036c0,-4.476 -0.011,-9.226 -0.011,-13.7zm152.698 13.793l0 0 -0.416 0.247c-0.004,0.882 0.338,12.091 0.604,13.423l21.579 -1.336c6.75,-0.726 8.129,-0.44 15.791,-1.554 1.364,-0.198 3.945,-0.235 5.07,-0.712 0.084,-0.351 0.145,-1.146 0.186,-2.164l0 -8.783 -0.065 -1.854c0.014,-0.687 0.062,-0.7 -0.083,-0.774 -0.05,-0.025 -0.122,-0.057 -0.225,-0.125 -0.416,-3.138 -0.703,-6.536 -1.288,-9.631 -0.58,-3.06 -1.252,-6.186 -1.752,-9.253 -0.989,-6.057 -1.4,-13.201 -2.969,-19.04 -3.158,-11.748 -10.138,-32.116 -21.401,-39.215 -1.057,-0.665 -1.895,-1.576 -2.919,-2.163 -0.004,0.804 -0.013,1.568 -0.034,2.242 -0.037,1.214 -0.113,2.14 -0.663,4.067 -0.551,1.927 -1.577,4.856 -2.541,9.31 -0.963,4.455 -1.864,10.437 -2.652,16.318 -0.789,5.882 -1.465,11.663 -2.278,15.986 -0.813,4.324 -1.764,7.189 -2.565,9.742 -0.8,2.553 -1.451,4.792 -1.681,6.311 -0.23,1.519 -0.038,2.317 0.099,3.18 0.138,0.862 0.223,1.79 0.308,2.718 0,4.474 -0.105,8.584 -0.105,13.06zm-194.813 -3.632c0.744,0.196 1.489,0.392 4.426,0.672 2.938,0.279 8.068,0.642 13.143,1.005 5.074,0.363 10.092,0.726 13.996,1.045 3.905,0.319 6.695,0.595 8.372,0.73l0.055 0.004 0.053 0.004 0.053 0.004 0.052 0.004 0.051 0.004 0.051 0.004 0.05 0.004 0.048 0.004 0.001 0 0.048 0.003 0.048 0.004 0.046 0.003 0.047 0.003 0.045 0.004 0.045 0.003 0.044 0.003 0.044 0.003 0.042 0.003 0.043 0.003 0.041 0.002 0.041 0.003 0 0 0.041 0.002 0.039 0.003 0.039 0.002 0.001 0 0.038 0.003 0.038 0.002 0.037 0.002 0 0 0.037 0.002 0.036 0.002 0.036 0.002 0 0 0.035 0.002 0 0 0.035 0.002 0 0 0.034 0.002 0 0 0.033 0.002 0.033 0.001 0.001 0 0.032 0.002 0.032 0.002 0 0 0.031 0.001 0.001 0 0.031 0.001 0 0 0.03 0.002 0.001 0 0.029 0.001 0.001 0 0.029 0.001 0 0 0.029 0.002 0.001 0 0.028 0 0.001 0 0.028 0.002 0.028 0.001 0 0 0.028 0 0 0 0.027 0.001 0 0 0.027 0.001 0.026 0.001 0.001 0 0.025 0.001 0.001 0 0.025 0.001 0 0 0.025 0 0.001 0 0.025 0.001 0 0 0.024 0 0.001 0 0.024 0.001 0 0 0.024 0.001 0 0 0.023 0 0.001 0 0.023 0 0 0 0.023 0.001 0.001 0 0.022 0 0.001 0 0.022 0.001 0 0 0.022 0 0 0 0.022 0 0.001 0 0.021 0 0 0 -42.196 -3.575z"/>
    <path id="_1" fill="#B51723" fill-rule="nonzero" d="M195.291 97.768l-0.05 -0.537 -59.974 71.998c-0.051,0 -0.102,0 -0.155,0 -5.193,6.24 -10.181,12.23 -14.981,17.995l0 5.248c6.43,-7.746 12.863,-15.489 19.286,-23.241 0.051,0 0.102,0 0.155,0l54.222 -65.091c0.458,-2.705 0.965,-5.026 1.497,-6.372zm5.555 -33.66c0.183,-1.406 0.369,-2.839 0.562,-4.277 0.083,-0.623 0.168,-1.248 0.254,-1.872l-81.531 97.875 0 5.169 80.715 -96.895zm4.021 -23.968c0.691,-2.633 1.336,-4.545 1.734,-5.937 0.533,-1.866 0.62,-2.794 0.659,-3.953 -4.735,5.628 -9.477,11.251 -14.185,16.9 1.102,1.024 2.204,2.049 3.305,3.075 2.843,-3.35 5.668,-6.715 8.487,-10.085zm0.607 -13.153c-1.009,-0.507 -2.011,-1.03 -3.011,-1.555l-82.336 98.841 0 5.169c23.921,-28.716 51.613,-61.961 85.347,-102.455zm-11.235 -5.595c-0.705,-0.294 -1.417,-0.57 -2.136,-0.824 -0.751,-0.265 -1.558,-0.515 -2.409,-0.756l-0.617 0.741c1.05,1.024 2.101,2.049 3.153,3.075 0.266,-0.325 1.041,-1.177 2.009,-2.236zm-8.149 -2.515c-1.204,-0.293 -2.448,-0.586 -3.707,-0.893l-62.254 74.821 0 5.23c21.984,-26.388 43.973,-52.773 65.961,-79.158zm-20.692 -6.531l-3.271 -1.335 -0.647 0.777c-13.086,15.718 -26.175,31.441 -41.349,49.668l0 5.154c15.093,-18.084 30.185,-36.17 45.267,-54.264zm-17.368 -10.714c-1.024,-0.5 -2.123,-0.814 -3.337,-0.815 -0.104,-0.001 -0.198,-0.002 -0.284,-0.005l-9.145 10.978c-0.05,0 -0.101,0 -0.154,0 -5.193,6.24 -10.181,12.231 -14.981,17.995l0 5.249c6.43,-7.747 12.863,-15.489 19.286,-23.242 0.051,0 0.102,0 0.155,0l0 -0.004 8.46 -10.156zm-7.909 -1.04l-4.808 -0.108c-0.27,-0.022 -0.542,-0.043 -0.813,-0.063 -0.919,1.101 -1.841,2.2 -2.77,3.293 1.076,1.05 2.152,2.101 3.228,3.153 1.715,-2.098 3.437,-4.189 5.163,-6.275zm-17.029 -0.582c-0.983,-0.007 -1.966,-0.01 -2.946,-0.01l0 3.564 -2.963 -3.557 0.07 0c0.956,-0.004 1.916,-0.007 2.878,-0.007l0 3.564 2.961 -3.554zm-17.435 0.266c-0.974,0.056 -1.962,0.125 -2.971,0.208 -0.848,0.07 -1.689,0.097 -2.531,0.106 1.726,2.087 3.449,4.179 5.165,6.277 1.076,-1.052 2.151,-2.103 3.227,-3.153 -0.969,-1.14 -1.931,-2.287 -2.89,-3.438zm-9.946 0.35c-0.207,0.007 -0.416,0.016 -0.625,0.028 -0.739,0.04 -0.878,0.161 -1.779,0.163 -0.551,0.001 -1.078,0.066 -1.586,0.183l8.986 10.788 -0.002 0.004c0.053,0 0.104,0 0.155,0 6.423,7.753 12.856,15.495 19.286,23.242l0 -5.249c-4.799,-5.764 -9.787,-11.755 -14.981,-17.995 -0.053,0 -0.104,0 -0.154,0l-9.3 -11.164zm-11.456 5.4c-0.174,0.147 -0.348,0.292 -0.523,0.432 -0.424,0.342 -0.543,0.536 -1.037,0.905 -0.673,0.479 -1.338,1.079 -1.885,1.49l0.524 0.63c0.973,-1 1.947,-2 2.921,-2.998l0 -0.459zm-6.683 4.292l-3.273 1.335 0.116 0.139c15.237,18.28 30.484,36.551 45.731,54.821l0 -5.155c-15.174,-18.227 -28.262,-33.95 -41.348,-49.668l-1.226 -1.472zm-20.072 7.197c-1.241,0.317 -2.482,0.615 -3.696,0.906 22.115,26.538 44.231,53.075 66.342,79.616l0 -5.23 -62.646 -75.292zm-7.335 1.798c-1.543,0.396 -2.987,0.803 -4.268,1.255 -0.154,0.054 -0.307,0.11 -0.46,0.166 1.238,1.354 2.291,2.504 2.611,2.894l3.152 -3.075 -1.035 -1.24zm-13.045 5.286c-0.998,0.523 -1.995,1.052 -2.997,1.571 34.042,40.864 61.946,74.364 86.027,103.272l0 -5.169 -83.03 -99.674zm-6.188 3.171c-0.172,0.087 -0.338,0.183 -0.498,0.286 0.121,0.721 0.248,1.443 0.383,2.165 0.324,1.733 0.697,3.472 1.188,5.843 3.95,4.732 7.904,9.461 11.892,14.161 1.101,-1.026 2.203,-2.051 3.305,-3.075 -5.399,-6.479 -10.843,-12.922 -16.27,-19.38zm4.383 26.227l0.069 0.445c0.295,1.892 0.583,3.858 0.873,5.856l83.889 100.705 0 -5.169 -84.831 -101.837zm3.82 23.872l0.084 0.409 0.143 -0.146 -0.227 -0.263zm3.636 16.641c-0.042,0.326 -0.101,0.648 -0.145,0.951 -0.083,0.57 -0.11,1.072 -0.138,1.574 0.321,0.813 0.642,2.011 0.953,3.45l57.266 68.746c0.053,0 0.104,0 0.155,0 6.423,7.752 12.856,15.495 19.286,23.241l0 -5.248c-4.799,-5.765 -9.787,-11.755 -14.981,-17.995 -0.053,0 -0.104,0 -0.154,0l-62.242 -74.719zm3.156 23.066c0.15,1.387 0.268,2.585 0.35,3.482 0.13,1.433 0.27,2.863 0.418,4.294 11.544,13.858 23.089,27.715 34.637,41.57l2.921 -2.998 0 -0.462c-12.797,-15.277 -25.566,-30.578 -38.326,-45.886zm1.43 13.886c0.226,2.036 0.454,4.073 0.672,6.112l26.386 31.657c15.237,18.28 30.484,36.551 45.731,54.82l0 -5.154c-15.174,-18.227 -28.262,-33.95 -41.348,-49.668l-31.441 -37.767zm2.167 21.854c0.125,1.502 0.225,3.004 0.274,4.508l0.147 2.872c1.085,1.307 2.17,2.613 3.253,3.921l3.076 -2.999 0 -0.461c-2.268,-2.598 -4.516,-5.213 -6.75,-7.841zm0.723 13.288l0.204 3.996c0.043,0.449 0.079,0.904 0.108,1.364 23.197,27.836 46.396,55.672 69.589,83.512l0 -5.23c-17.036,-20.475 -33.386,-40.126 -67.409,-81.017l-0.307 0 -2.185 -2.625zm0.466 10.805l0.001 1.059 0.486 -0.474 -0.487 -0.585zm-0.018 20.927c-0.017,1.716 -0.033,3.399 -0.068,5.087l69.523 83.46 0 -5.169 -69.455 -83.378zm-0.854 20.985c-0.077,1.325 -0.157,2.665 -0.243,4.011 4.167,4.982 8.36,9.942 12.518,14.932 1.026,-1.052 2.051,-2.103 3.075,-3.153 -4.817,-5.549 -9.328,-11.356 -14.222,-16.836l0 0.002 -1.128 1.044zm-0.576 8.864c-0.117,1.578 -0.244,3.151 -0.384,4.709l54.105 64.951 4.36 0.063 -58.081 -69.723zm-3.676 27.149c-0.242,1.463 -0.472,2.926 -0.677,4.358l31.416 37.714c1.445,0.062 2.905,0.108 4.427,0.144l-35.166 -42.216zm-2.034 16.837c-0.2,1.639 -0.419,3.045 -0.648,3.721 -0.227,0.671 -0.32,1.301 -0.359,1.922l14.739 17.693c2.05,0.321 4.227,0.619 6.467,0.881 -6.737,-8.069 -13.469,-16.142 -20.199,-24.217zm-1.406 10.477c-0.273,1.402 -0.576,2.889 -0.893,4.24l5.459 6.55c1.709,0.397 3.482,0.785 5.38,1.156l-9.946 -11.946zm69.75 15.324c1.921,0.026 3.856,0.051 5.776,0.072 -6.124,-7.489 -12.21,-15.009 -18.504,-22.343 -5.515,-6.425 -3.568,-5.161 -7.381,-1.768 6.688,8.026 13.398,16.033 20.109,24.039zm10.667 0.119c1.718,0.014 3.405,0.024 5.04,0.028l0.65 0.002c6.752,-8.056 13.503,-16.112 20.233,-24.188 -3.813,-3.393 -1.866,-4.657 -7.381,1.768 -6.307,7.349 -12.405,14.885 -18.542,22.39zm10.19 0.027c1.487,-0.005 2.93,-0.015 4.331,-0.028l52.265 -62.742c-0.154,-1.536 -0.294,-3.094 -0.423,-4.663l-56.173 67.433zm26.849 -0.665c1.555,-0.076 3.058,-0.158 4.512,-0.246l29.288 -35.16c-0.179,-1.431 -0.392,-2.916 -0.626,-4.419l-33.174 39.825zm17.106 -1.289c2.326,-0.259 4.474,-0.545 6.445,-0.856l12.357 -14.834c-0.101,-1.58 0.127,-2.963 -0.42,-4.582 -0.108,-0.318 -0.213,-0.798 -0.316,-1.387 -6.019,7.221 -12.041,14.442 -18.066,21.659zm11.696 -1.837c2.05,-0.45 3.867,-0.935 5.609,-1.431l3.286 -3.943c-0.143,-0.55 -0.334,-1.126 -0.477,-1.723 -0.182,-0.756 -0.359,-1.562 -0.53,-2.378l-7.888 9.475zm0.161 -68.475c-0.145,-2.112 -0.274,-4.219 -0.395,-6.293 -4.462,5.098 -8.644,10.435 -13.087,15.552 1.025,1.05 2.05,2.101 3.076,3.153 3.455,-4.148 6.936,-8.275 10.406,-12.412zm-1.124 -19.78c-0.058,-1.69 -0.088,-3.357 -0.11,-5.037l-67.207 80.679 0 5.169 67.317 -80.811zm-0.168 -10.238c-0.017,-0.757 -0.048,-1.511 -0.079,-2.268l-2.041 -1.891c-21.727,25.915 -43.375,51.896 -65.027,77.873l0 6.696c4.712,-5.639 9.424,-11.279 14.137,-16.918 17.681,-21.153 35.361,-42.309 53.01,-63.492zm0.043 -20.988c0.033,-1.449 0.1,-2.876 0.23,-4.246l0.07 -1.371 -0.079 0c-34.022,40.891 -50.373,60.542 -67.409,81.017l0 5.23c22.393,-26.879 44.791,-53.754 67.188,-80.63zm0.587 -11.226l0.296 -5.796c0.017,-0.534 0.041,-1.068 0.07,-1.602 -1.416,1.651 -2.838,3.297 -4.268,4.935l0 0.461 3.075 2.999 0.827 -0.997zm1.741 -22.923c0.203,-2.028 0.422,-4.053 0.645,-6.075l-28.81 34.607c-13.087,15.718 -26.175,31.441 -41.349,49.668l0 5.154c15.248,-18.269 30.494,-36.54 45.731,-54.82l23.783 -28.534zm1.324 -12.211c0.27,-2.474 0.528,-4.949 0.752,-7.428l0.034 -0.372c-11.896,14.271 -23.802,28.534 -35.733,42.776l0 0.462c0.974,0.998 1.948,1.998 2.921,2.998 10.678,-12.81 21.353,-25.623 32.026,-38.436zm-91.8 -10.226c7.14,8.32 14.013,16.879 20.977,25.362l0 6.754c-9.456,-11.291 -18.928,-22.569 -28.358,-33.884 3.813,-3.393 1.866,-4.657 7.381,1.768zm-48.202 -57.426c4.894,5.48 9.405,11.287 14.222,16.836 -1.024,1.05 -2.049,2.101 -3.075,3.153 -4.751,-5.702 -9.548,-11.365 -14.3,-17.066l3.153 -2.921 0 -0.002zm9.148 33.518c8.851,10.621 17.75,21.205 26.6,31.827 -1.05,1.025 -2.101,2.05 -3.153,3.076 -9.051,-10.448 -17.773,-21.177 -26.676,-31.75 1.076,-1.05 2.152,-2.101 3.227,-3.153l0.002 0zm31.751 46.893c5.701,6.517 11.08,13.318 16.681,19.91l-3.227 3.153c-5.44,-6.653 -10.948,-13.237 -16.453,-19.835l2.999 -3.228zm10.531 -122.077c5.908,7.09 11.832,14.168 17.747,21.252l0 6.884c-6.964,-8.309 -13.908,-16.633 -20.823,-24.983 1.025,-1.05 2.05,-2.101 3.076,-3.153zm-50.43 17.99c1.05,-0.975 2.101,-1.949 3.152,-2.922 21.727,25.915 43.375,51.896 65.027,77.873l0 6.696c-4.712,-5.639 -9.424,-11.279 -14.137,-16.918 -18.026,-21.566 -36.052,-43.135 -54.042,-64.732l0 0.003zm67.075 -22.882c0.085,-0.112 0.193,-0.24 0.317,-0.38 0.063,-0.069 0.128,-0.143 0.197,-0.218 0.138,-0.148 0.287,-0.305 0.439,-0.461 0.049,-0.051 0.1,-0.1 0.149,-0.151l0 3.09c-0.431,-0.508 -0.864,-1.018 -1.297,-1.526 -0.006,-0.063 0.067,-0.19 0.195,-0.356l0 0.002zm-30.175 19.958c-1.101,0.975 -2.203,1.948 -3.305,2.921 -5.108,-5.724 -9.858,-11.765 -14.836,-17.604l3.228 -2.999c1.221,1.49 2.455,2.97 3.695,4.446 3.724,4.425 7.511,8.803 11.218,13.236zm25.984 46.896c-7.81,-9.363 -15.562,-18.774 -23.37,-28.136l2.998 -3.075c8.019,9.106 15.424,18.781 23.447,27.906l-3.075 3.305zm-54.736 170.663c8.851,10.621 17.75,21.205 26.6,31.827 -1.05,1.025 -2.101,2.05 -3.153,3.076 -9.051,-10.448 -17.773,-21.177 -26.676,-31.75l3.227 -3.153 0.002 0zm42.282 -75.186c5.908,7.09 11.832,14.168 17.747,21.252l0 6.884c-6.964,-8.309 -13.908,-16.633 -20.823,-24.983 1.025,-1.05 2.05,-2.101 3.076,-3.153zm-50.43 17.989c1.05,-0.974 2.101,-1.947 3.152,-2.921 21.727,25.915 43.375,51.896 65.027,77.873l0 6.696c-4.712,-5.639 -9.424,-11.279 -14.137,-16.918 -18.026,-21.566 -36.052,-43.135 -54.042,-64.732l0 0.002zm67.075 -22.879c0.085,-0.112 0.193,-0.24 0.317,-0.38 0.063,-0.069 0.128,-0.143 0.197,-0.218 0.138,-0.148 0.287,-0.305 0.439,-0.461 0.049,-0.051 0.1,-0.1 0.149,-0.151l0 3.09c-0.431,-0.508 -0.864,-1.018 -1.297,-1.527 -0.006,-0.063 0.067,-0.189 0.195,-0.355l0 0.002zm-45.088 2.276c1.221,1.49 2.455,2.97 3.695,4.446 3.724,4.425 7.511,8.803 11.218,13.236l-3.305 2.921c-5.108,-5.724 -9.858,-11.765 -14.836,-17.604l3.228 -2.999zm20.525 33.364c8.019,9.107 15.424,18.782 23.447,27.907l-3.075 3.305c-7.81,-9.363 -15.562,-18.774 -23.37,-28.136l2.998 -3.076zm46.627 -89.097c-7.14,8.32 -14.013,16.879 -20.977,25.362l0 6.754c9.456,-11.291 18.929,-22.569 28.358,-33.884 -3.813,-3.393 -1.866,-4.657 -7.381,1.768zm48.201 -57.426c-4.895,5.48 -9.405,11.287 -14.223,16.836 1.025,1.05 2.05,2.101 3.076,3.153 4.75,-5.702 9.547,-11.365 14.299,-17.066 -1.05,-0.975 -2.101,-1.948 -3.152,-2.921l0 -0.002zm-9.149 33.518c-8.85,10.621 -17.749,21.205 -26.6,31.827 1.051,1.025 2.102,2.05 3.153,3.076 9.051,-10.448 17.774,-21.177 26.677,-31.75 -1.076,-1.05 -2.152,-2.101 -3.228,-3.153l-0.002 0zm-31.75 46.893c-5.702,6.517 -11.08,13.318 -16.682,19.91 1.076,1.05 2.152,2.101 3.228,3.153 5.439,-6.653 10.947,-13.237 16.452,-19.835 -0.999,-1.076 -1.998,-2.152 -2.998,-3.228zm-10.531 -122.077c-5.909,7.09 -11.833,14.168 -17.748,21.252l0 6.884c6.964,-8.309 13.908,-16.633 20.823,-24.983 -1.025,-1.05 -2.05,-2.101 -3.075,-3.153zm50.43 17.99c-1.05,-0.975 -2.101,-1.949 -3.153,-2.922 -21.727,25.915 -43.375,51.896 -65.027,77.873l0 6.696c4.712,-5.639 9.424,-11.279 14.137,-16.918 18.026,-21.566 36.052,-43.135 54.043,-64.732l0 0.003zm-67.076 -22.882c-0.085,-0.112 -0.193,-0.24 -0.317,-0.38 -0.063,-0.069 -0.128,-0.143 -0.197,-0.218 -0.138,-0.148 -0.287,-0.305 -0.439,-0.461 -0.049,-0.051 -0.1,-0.1 -0.149,-0.151l0 3.09c0.431,-0.508 0.864,-1.018 1.297,-1.526 0.006,-0.063 -0.067,-0.19 -0.195,-0.356l0 0.002zm30.175 19.958l3.305 2.921c5.108,-5.724 9.858,-11.765 14.836,-17.604 -1.076,-0.999 -2.151,-1.998 -3.228,-2.999 -1.221,1.49 -2.455,2.97 -3.695,4.446 -3.724,4.425 -7.51,8.803 -11.218,13.236zm-25.983 46.896c7.809,-9.363 15.561,-18.774 23.369,-28.136 -0.999,-1.025 -1.998,-2.05 -2.998,-3.076 -8.019,9.107 -15.424,18.782 -23.447,27.907 1.025,1.101 2.05,2.203 3.076,3.305zm54.735 170.663c-8.85,10.621 -17.749,21.205 -26.6,31.827 1.051,1.025 2.102,2.05 3.153,3.076 9.051,-10.448 17.774,-21.177 26.677,-31.75 -1.076,-1.05 -2.152,-2.101 -3.228,-3.153l-0.002 0zm-42.281 -75.186c-5.909,7.09 -11.833,14.168 -17.748,21.252l0 6.884c6.964,-8.309 13.908,-16.633 20.823,-24.983 -1.025,-1.05 -2.05,-2.101 -3.075,-3.153zm-16.646 -4.89c-0.085,-0.112 -0.193,-0.24 -0.317,-0.38 -0.063,-0.069 -0.128,-0.143 -0.197,-0.218 -0.138,-0.148 -0.287,-0.305 -0.439,-0.461 -0.049,-0.051 -0.1,-0.1 -0.149,-0.151l0 3.09c0.431,-0.508 0.864,-1.018 1.297,-1.527 0.006,-0.063 -0.067,-0.189 -0.195,-0.355l0 0.002zm45.09 2.276c-1.221,1.49 -2.455,2.97 -3.695,4.446 -3.724,4.425 -7.51,8.803 -11.218,13.236 1.102,0.975 2.203,1.948 3.305,2.921 5.108,-5.724 9.858,-11.765 14.836,-17.604 -1.076,-0.999 -2.151,-1.998 -3.228,-2.999zm-20.525 33.364c-8.019,9.107 -15.424,18.782 -23.447,27.907 1.024,1.101 2.05,2.203 3.076,3.305 7.809,-9.363 15.561,-18.774 23.369,-28.136 -0.999,-1.025 -1.998,-2.05 -2.998,-3.076z"/>
   </g>
  </g>
  <path fill="none" d="M207.298 27.894c-0.11,-0.063 -0.222,-0.122 -0.337,-0.177 -4.975,-2.38 -9.714,-5.334 -14.858,-7.149 -4.647,-1.639 -11.454,-2.699 -17.288,-4.719 -2.277,-0.789 -4.556,-1.589 -6.82,-2.415l-0.004 -0.03 -9.999 -4.08 -0.175 -0.072c-0.614,-0.28 -1.553,-1.207 -2.512,-1.889 -0.494,-0.369 -0.613,-0.563 -1.038,-0.905 -2.856,-2.299 -5.606,-5.635 -9.574,-5.641 -0.901,-0.002 -1.04,-0.123 -1.779,-0.163l-7.601 -0.17c-5.892,-0.486 -12.055,-0.501 -18.06,-0.477 -5.087,0.02 -9.557,0.063 -14.567,0.477 -2.529,0.209 -4.996,0.029 -7.6,0.17 -0.739,0.04 -0.878,0.161 -1.779,0.163 -3.968,0.006 -6.718,3.342 -9.575,5.641 -0.424,0.342 -0.543,0.536 -1.037,0.905 -0.741,0.527 -1.471,1.2 -2.047,1.608 -0.17,0.121 -0.326,0.218 -0.465,0.281l-10.174 4.152 -0.003 0.03c-2.265,0.826 -4.544,1.626 -6.821,2.415 -5.834,2.02 -12.641,3.08 -17.288,4.719 -5.144,1.815 -9.883,4.769 -14.858,7.149 -0.212,0.101 -0.412,0.215 -0.605,0.339 -0.909,0.583 -1.664,1.379 -2.651,2.001 -11.263,7.099 -18.243,27.467 -21.401,39.215 -1.569,5.839 -1.98,12.983 -2.969,19.04 -0.5,3.067 -1.172,6.193 -1.752,9.253 -0.585,3.095 -0.872,6.493 -1.288,9.631 -0.406,0.268 -0.327,-0.023 -0.308,0.899l-0.065 1.854 0 8.783c0.041,1.018 0.102,1.813 0.186,2.164 1.125,0.477 3.706,0.514 5.07,0.712 7.662,1.114 9.041,0.828 15.791,1.554l21.547 1.349c-0.015,-1.623 0.547,-10.725 0.578,-13.424l-0.603 -0.316 -0.07 -0.036c0,-4.476 -0.011,-9.226 -0.011,-13.7 1.678,4.247 3.328,18.944 3.789,24.023 0.735,8.116 1.826,16.186 2.512,24.347 0.348,4.137 0.874,8.269 1.009,12.419l0.653 12.776c0.396,4.199 0.208,8.934 0.274,13.179 0.032,2.062 0.194,4.007 0.186,6.13 -0.007,2.226 -0.172,4.349 -0.196,6.512 -0.051,4.469 -0.054,8.634 -0.319,13.111 -0.68,11.475 -1.257,26.076 -3.267,37.02 -0.966,5.407 -2.177,11.944 -2.754,17.389 -0.258,2.432 -0.827,10.057 -1.468,11.951 -0.68,2.01 -0.163,3.658 -0.568,5.77 -0.342,1.785 -0.742,3.812 -1.164,5.568 -0.463,1.93 -1.435,3.647 0.397,4.966 4.276,1.054 8.552,2.108 13.913,3.017 5.36,0.909 11.804,1.672 18.03,2.048 6.226,0.375 12.232,0.363 21.568,0.476 9.335,0.112 21.999,0.351 32.523,0.382 10.525,0.032 18.909,-0.144 26.242,-0.419 7.333,-0.275 13.615,-0.65 19.058,-1.151 5.443,-0.501 10.048,-1.126 13.829,-1.873 3.78,-0.746 6.736,-1.613 9.693,-2.48 1.832,-1.319 0.86,-3.036 0.397,-4.966 -0.422,-1.756 -0.822,-3.783 -1.164,-5.568 -0.405,-2.112 0.112,-3.76 -0.568,-5.77 -0.641,-1.894 -1.21,-9.519 -1.468,-11.951 -0.577,-5.445 -1.788,-11.982 -2.754,-17.389 -2.01,-10.944 -2.587,-25.545 -3.267,-37.02 -0.265,-4.477 -0.268,-8.642 -0.319,-13.111 -0.024,-2.163 -0.189,-4.286 -0.196,-6.512 -0.008,-2.123 0.154,-4.068 0.186,-6.13 0.066,-4.245 -0.122,-8.98 0.274,-13.179l0.653 -12.776c0.135,-4.15 0.661,-8.282 1.009,-12.419 0.686,-8.161 1.777,-16.231 2.512,-24.347 0.461,-5.079 1.889,-19.043 3.568,-23.29 0,4.474 -0.105,8.584 -0.105,13.06l0 0 -0.416 0.247c-0.004,0.882 0.338,12.091 0.604,13.423l21.579 -1.336c6.75,-0.726 8.129,-0.44 15.791,-1.554 1.364,-0.198 3.945,-0.235 5.07,-0.712 0.084,-0.351 0.145,-1.146 0.186,-2.164l0 -8.783 -0.065 -1.854c0.014,-0.687 0.062,-0.7 -0.083,-0.774 -0.05,-0.025 -0.122,-0.057 -0.225,-0.125 -0.416,-3.138 -0.703,-6.536 -1.288,-9.631 -0.58,-3.06 -1.252,-6.186 -1.752,-9.253 -0.989,-6.057 -1.4,-13.201 -2.969,-19.04 -3.158,-11.748 -10.138,-32.116 -21.401,-39.215 -1.057,-0.665 -1.895,-1.576 -2.919,-2.163z"/>
 </g>
</svg>
