<?xml version="1.0" encoding="UTF-8"?>
<!DOCTYPE svg PUBLIC "-//W3C//DTD SVG 1.1//EN" "http://www.w3.org/Graphics/SVG/1.1/DTD/svg11.dtd">
<!-- Creator: CorelDRAW -->
<svg xmlns="http://www.w3.org/2000/svg" xml:space="preserve" width="238px" height="298px" version="1.1" shape-rendering="geometricPrecision" text-rendering="geometricPrecision" image-rendering="optimizeQuality" fill-rule="evenodd" clip-rule="evenodd"
viewBox="0 0 238 298.123"
 xmlns:xlink="http://www.w3.org/1999/xlink"
 xmlns:xodm="http://www.corel.com/coreldraw/odm/2003">
 <defs>
   <clipPath id="id0">
    <path d="M207.298 27.894c-0.11,-0.063 -0.222,-0.122 -0.337,-0.177 -4.975,-2.38 -9.714,-5.334 -14.858,-7.149 -4.647,-1.639 -11.454,-2.699 -17.288,-4.719 -2.277,-0.789 -4.556,-1.589 -6.82,-2.415l-0.004 -0.03 -9.999 -4.08 -0.175 -0.072c-0.614,-0.28 -1.553,-1.207 -2.512,-1.889 -0.494,-0.369 -0.613,-0.563 -1.038,-0.905 -2.856,-2.299 -5.606,-5.635 -9.574,-5.641 -0.901,-0.002 -1.04,-0.123 -1.779,-0.163l-7.601 -0.17c-5.892,-0.486 -12.055,-0.501 -18.06,-0.477 -5.087,0.02 -9.557,0.063 -14.567,0.477 -2.529,0.209 -4.996,0.029 -7.6,0.17 -0.739,0.04 -0.878,0.161 -1.779,0.163 -3.968,0.006 -6.718,3.342 -9.575,5.641 -0.424,0.342 -0.543,0.536 -1.037,0.905 -0.741,0.527 -1.471,1.2 -2.047,1.608 -0.17,0.121 -0.326,0.218 -0.465,0.281l-10.174 4.152 -0.003 0.03c-2.265,0.826 -4.544,1.626 -6.821,2.415 -5.834,2.02 -12.641,3.08 -17.288,4.719 -5.144,1.815 -9.883,4.769 -14.858,7.149 -0.212,0.101 -0.412,0.215 -0.605,0.339 -0.909,0.583 -1.664,1.379 -2.651,2.001 -11.263,7.099 -18.243,27.467 -21.401,39.215 -1.569,5.839 -1.98,12.983 -2.969,19.04 -0.5,3.067 -1.172,6.193 -1.752,9.253 -0.585,3.095 -0.872,6.493 -1.288,9.631 -0.406,0.268 -0.327,-0.023 -0.308,0.899l-0.065 1.854 0 8.783c0.041,1.018 0.102,1.813 0.186,2.164 1.125,0.477 3.706,0.514 5.07,0.712 7.662,1.114 9.041,0.828 15.791,1.554l21.547 1.349c-0.015,-1.623 0.547,-10.725 0.578,-13.424l-0.603 -0.316 -0.07 -0.036c0,-4.476 -0.011,-9.226 -0.011,-13.7 1.678,4.247 3.328,18.944 3.789,24.023 0.735,8.116 1.826,16.186 2.512,24.347 0.348,4.137 0.874,8.269 1.009,12.419l0.653 12.776c0.396,4.199 0.208,8.934 0.274,13.179 0.032,2.062 0.194,4.007 0.186,6.13 -0.007,2.226 -0.172,4.349 -0.196,6.512 -0.051,4.469 -0.054,8.634 -0.319,13.111 -0.68,11.475 -1.257,26.076 -3.267,37.02 -0.966,5.407 -2.177,11.944 -2.754,17.389 -0.258,2.432 -0.827,10.057 -1.468,11.951 -0.68,2.01 -0.163,3.658 -0.568,5.77 -0.342,1.785 -0.742,3.812 -1.164,5.568 -0.463,1.93 -1.435,3.647 0.397,4.966 4.276,1.054 8.552,2.108 13.913,3.017 5.36,0.909 11.804,1.672 18.03,2.048 6.226,0.375 12.232,0.363 21.568,0.476 9.335,0.112 21.999,0.351 32.523,0.382 10.525,0.032 18.909,-0.144 26.242,-0.419 7.333,-0.275 13.615,-0.65 19.058,-1.151 5.443,-0.501 10.048,-1.126 13.829,-1.873 3.78,-0.746 6.736,-1.613 9.693,-2.48 1.832,-1.319 0.86,-3.036 0.397,-4.966 -0.422,-1.756 -0.822,-3.783 -1.164,-5.568 -0.405,-2.112 0.112,-3.76 -0.568,-5.77 -0.641,-1.894 -1.21,-9.519 -1.468,-11.951 -0.577,-5.445 -1.788,-11.982 -2.754,-17.389 -2.01,-10.944 -2.587,-25.545 -3.267,-37.02 -0.265,-4.477 -0.268,-8.642 -0.319,-13.111 -0.024,-2.163 -0.189,-4.286 -0.196,-6.512 -0.008,-2.123 0.154,-4.068 0.186,-6.13 0.066,-4.245 -0.122,-8.98 0.274,-13.179l0.653 -12.776c0.135,-4.15 0.661,-8.282 1.009,-12.419 0.686,-8.161 1.777,-16.231 2.512,-24.347 0.461,-5.079 1.889,-19.043 3.568,-23.29 0,4.474 -0.105,8.584 -0.105,13.06l0 0 -0.416 0.247c-0.004,0.882 0.338,12.091 0.604,13.423l21.579 -1.336c6.75,-0.726 8.129,-0.44 15.791,-1.554 1.364,-0.198 3.945,-0.235 5.07,-0.712 0.084,-0.351 0.145,-1.146 0.186,-2.164l0 -8.783 -0.065 -1.854c0.014,-0.687 0.062,-0.7 -0.083,-0.774 -0.05,-0.025 -0.122,-0.057 -0.225,-0.125 -0.416,-3.138 -0.703,-6.536 -1.288,-9.631 -0.58,-3.06 -1.252,-6.186 -1.752,-9.253 -0.989,-6.057 -1.4,-13.201 -2.969,-19.04 -3.158,-11.748 -10.138,-32.116 -21.401,-39.215 -1.057,-0.665 -1.895,-1.576 -2.919,-2.163z"/>
   </clipPath>
    <clipPath id="id1">
     <path d="M195.291 97.768c-0.085,-0.928 -0.17,-1.856 -0.308,-2.718 -0.137,-0.863 -0.329,-1.661 -0.099,-3.18 0.23,-1.519 0.881,-3.758 1.681,-6.311 0.801,-2.553 1.752,-5.418 2.565,-9.742 0.813,-4.323 1.489,-10.104 2.278,-15.986 0.788,-5.881 1.689,-11.863 2.652,-16.318 0.964,-4.454 1.99,-7.383 2.541,-9.31 0.55,-1.927 0.626,-2.853 0.663,-4.067 0.021,-0.674 0.03,-1.438 0.034,-2.242 -0.11,-0.063 -0.222,-0.122 -0.337,-0.177 -4.975,-2.38 -9.714,-5.334 -14.858,-7.149 -4.647,-1.639 -11.454,-2.699 -17.288,-4.719 -2.277,-0.789 -4.556,-1.589 -6.82,-2.415l-0.004 -0.03 -9.999 -4.08 -0.175 -0.072c-0.614,-0.28 -1.553,-1.207 -2.512,-1.889 -0.494,-0.369 -0.613,-0.563 -1.038,-0.905 -2.856,-2.299 -5.606,-5.635 -9.574,-5.641 -0.901,-0.002 -1.04,-0.123 -1.779,-0.163l-7.601 -0.17c-5.892,-0.486 -12.055,-0.501 -18.06,-0.477 -5.087,0.02 -9.557,0.063 -14.567,0.477 -2.529,0.209 -4.996,0.029 -7.6,0.17 -0.739,0.04 -0.878,0.161 -1.779,0.163 -3.968,0.006 -6.718,3.342 -9.575,5.641 -0.424,0.342 -0.543,0.536 -1.037,0.905 -0.741,0.527 -1.471,1.2 -2.047,1.608 -0.17,0.121 -0.326,0.218 -0.465,0.281l-10.174 4.152 -0.003 0.03c-2.265,0.826 -4.544,1.626 -6.821,2.415 -5.834,2.02 -12.641,3.08 -17.288,4.719 -5.144,1.815 -9.883,4.769 -14.858,7.149 -0.212,0.101 -0.412,0.215 -0.605,0.339 0.121,0.721 0.248,1.443 0.383,2.165 0.438,2.34 0.963,4.693 1.752,8.597 0.788,3.904 1.839,9.36 2.815,15.624 0.976,6.262 1.877,13.332 3.034,19.705 1.157,6.372 2.57,12.047 3.374,15.175 0.803,3.129 0.998,3.71 1.026,4.321 0.028,0.61 -0.11,1.248 -0.192,1.818 -0.083,0.57 -0.11,1.072 -0.138,1.574 1.678,4.247 3.328,18.944 3.789,24.023 0.735,8.116 1.826,16.186 2.512,24.347 0.348,4.137 0.874,8.269 1.009,12.419l0.653 12.776c0.396,4.199 0.208,8.934 0.274,13.179 0.032,2.062 0.194,4.007 0.186,6.13 -0.007,2.226 -0.172,4.349 -0.196,6.512 -0.051,4.469 -0.054,8.634 -0.319,13.111 -0.68,11.475 -1.257,26.076 -3.267,37.02 -0.966,5.407 -2.177,11.944 -2.754,17.389 -0.258,2.432 -0.827,10.057 -1.468,11.951 -0.68,2.01 -0.163,3.658 -0.568,5.77 -0.342,1.785 -0.742,3.812 -1.164,5.568 -0.463,1.93 -1.435,3.647 0.397,4.966 4.276,1.054 8.552,2.108 13.913,3.017 5.36,0.909 11.804,1.672 18.03,2.048 6.226,0.375 12.232,0.363 21.568,0.476 9.335,0.112 21.999,0.351 32.523,0.382 10.525,0.032 18.909,-0.144 26.242,-0.419 7.333,-0.275 13.615,-0.65 19.058,-1.151 5.443,-0.501 10.048,-1.126 13.829,-1.873 3.78,-0.746 6.736,-1.613 9.693,-2.48 1.832,-1.319 0.86,-3.036 0.397,-4.966 -0.422,-1.756 -0.822,-3.783 -1.164,-5.568 -0.405,-2.112 0.112,-3.76 -0.568,-5.77 -0.641,-1.894 -1.21,-9.519 -1.468,-11.951 -0.577,-5.445 -1.788,-11.982 -2.754,-17.389 -2.01,-10.944 -2.587,-25.545 -3.267,-37.02 -0.265,-4.477 -0.268,-8.642 -0.319,-13.111 -0.024,-2.163 -0.189,-4.286 -0.196,-6.512 -0.008,-2.123 0.154,-4.068 0.186,-6.13 0.066,-4.245 -0.122,-8.98 0.274,-13.179l0.653 -12.776c0.135,-4.15 0.661,-8.282 1.009,-12.419 0.686,-8.161 1.777,-16.231 2.512,-24.347 0.461,-5.079 1.889,-19.043 3.568,-23.29z"/>
    </clipPath>
    <clipPath id="id2">
     <path d="M207.298 27.894c-0.11,-0.063 -0.222,-0.122 -0.337,-0.177 -4.975,-2.38 -9.714,-5.334 -14.858,-7.149 -4.647,-1.639 -11.454,-2.699 -17.288,-4.719 -2.277,-0.789 -4.556,-1.589 -6.82,-2.415l-0.004 -0.03 -9.999 -4.08 -0.175 -0.072c-0.614,-0.28 -1.553,-1.207 -2.512,-1.889 -0.494,-0.369 -0.613,-0.563 -1.038,-0.905 -2.856,-2.299 -5.606,-5.635 -9.574,-5.641 -0.901,-0.002 -1.04,-0.123 -1.779,-0.163l-7.601 -0.17c-5.892,-0.486 -12.055,-0.501 -18.06,-0.477 -5.087,0.02 -9.557,0.063 -14.567,0.477 -2.529,0.209 -4.996,0.029 -7.6,0.17 -0.739,0.04 -0.878,0.161 -1.779,0.163 -3.968,0.006 -6.718,3.342 -9.575,5.641 -0.424,0.342 -0.543,0.536 -1.037,0.905 -0.741,0.527 -1.471,1.2 -2.047,1.608 -0.17,0.121 -0.326,0.218 -0.465,0.281l-10.174 4.152 -0.003 0.03c-2.265,0.826 -4.544,1.626 -6.821,2.415 -5.834,2.02 -12.641,3.08 -17.288,4.719 -5.144,1.815 -9.883,4.769 -14.858,7.149 -0.212,0.101 -0.412,0.215 -0.605,0.339 -0.909,0.583 -1.664,1.379 -2.651,2.001 -11.263,7.099 -18.243,27.467 -21.401,39.215 -1.569,5.839 -1.98,12.983 -2.969,19.04 -0.5,3.067 -1.172,6.193 -1.752,9.253 -0.585,3.095 -0.872,6.493 -1.288,9.631 -0.406,0.268 -0.327,-0.023 -0.308,0.899l-0.065 1.854 0 8.783c0.041,1.018 0.102,1.813 0.186,2.164 1.125,0.477 3.706,0.514 5.07,0.712 7.662,1.114 9.041,0.828 15.791,1.554l21.547 1.349c-0.015,-1.623 0.547,-10.725 0.578,-13.424l-0.603 -0.316 -0.07 -0.036c0,-4.476 -0.011,-9.226 -0.011,-13.7 1.678,4.247 3.328,18.944 3.789,24.023 0.735,8.116 1.826,16.186 2.512,24.347 0.348,4.137 0.874,8.269 1.009,12.419l0.653 12.776c0.396,4.199 0.208,8.934 0.274,13.179 0.032,2.062 0.194,4.007 0.186,6.13 -0.007,2.226 -0.172,4.349 -0.196,6.512 -0.051,4.469 -0.054,8.634 -0.319,13.111 -0.68,11.475 -1.257,26.076 -3.267,37.02 -0.966,5.407 -2.177,11.944 -2.754,17.389 -0.258,2.432 -0.827,10.057 -1.468,11.951 -0.68,2.01 -0.163,3.658 -0.568,5.77 -0.342,1.785 -0.742,3.812 -1.164,5.568 -0.463,1.93 -1.435,3.647 0.397,4.966 4.276,1.054 8.552,2.108 13.913,3.017 5.36,0.909 11.804,1.672 18.03,2.048 6.226,0.375 12.232,0.363 21.568,0.476 9.335,0.112 21.999,0.351 32.523,0.382 10.525,0.032 18.909,-0.144 26.242,-0.419 7.333,-0.275 13.615,-0.65 19.058,-1.151 5.443,-0.501 10.048,-1.126 13.829,-1.873 3.78,-0.746 6.736,-1.613 9.693,-2.48 1.832,-1.319 0.86,-3.036 0.397,-4.966 -0.422,-1.756 -0.822,-3.783 -1.164,-5.568 -0.405,-2.112 0.112,-3.76 -0.568,-5.77 -0.641,-1.894 -1.21,-9.519 -1.468,-11.951 -0.577,-5.445 -1.788,-11.982 -2.754,-17.389 -2.01,-10.944 -2.587,-25.545 -3.267,-37.02 -0.265,-4.477 -0.268,-8.642 -0.319,-13.111 -0.024,-2.163 -0.189,-4.286 -0.196,-6.512 -0.008,-2.123 0.154,-4.068 0.186,-6.13 0.066,-4.245 -0.122,-8.98 0.274,-13.179l0.653 -12.776c0.135,-4.15 0.661,-8.282 1.009,-12.419 0.686,-8.161 1.777,-16.231 2.512,-24.347 0.461,-5.079 1.889,-19.043 3.568,-23.29 0,4.474 -0.105,8.584 -0.105,13.06l0 0 -0.416 0.247c-0.004,0.882 0.338,12.091 0.604,13.423l21.579 -1.336c6.75,-0.726 8.129,-0.44 15.791,-1.554 1.364,-0.198 3.945,-0.235 5.07,-0.712 0.084,-0.351 0.145,-1.146 0.186,-2.164l0 -8.783 -0.065 -1.854c0.014,-0.687 0.062,-0.7 -0.083,-0.774 -0.05,-0.025 -0.122,-0.057 -0.225,-0.125 -0.416,-3.138 -0.703,-6.536 -1.288,-9.631 -0.58,-3.06 -1.252,-6.186 -1.752,-9.253 -0.989,-6.057 -1.4,-13.201 -2.969,-19.04 -3.158,-11.748 -10.138,-32.116 -21.401,-39.215 -1.057,-0.665 -1.895,-1.576 -2.919,-2.163z"/>
    </clipPath>
    <clipPath id="id3">
     <path d="M42.488 97.035c0.028,-0.502 0.055,-1.004 0.138,-1.574 0.082,-0.57 0.22,-1.208 0.192,-1.818 -0.028,-0.611 -0.223,-1.192 -1.026,-4.321 -0.804,-3.128 -2.217,-8.803 -3.374,-15.175 -1.157,-6.373 -2.058,-13.443 -3.034,-19.705 -0.976,-6.264 -2.027,-11.72 -2.815,-15.624 -0.789,-3.904 -1.314,-6.257 -1.752,-8.597 -0.135,-0.722 -0.262,-1.444 -0.383,-2.165 -0.909,0.583 -1.664,1.379 -2.651,2.001 -11.263,7.099 -18.243,27.467 -21.401,39.215 -1.569,5.839 -1.98,12.983 -2.969,19.04 -0.5,3.067 -1.172,6.193 -1.752,9.253 -0.585,3.095 -0.872,6.493 -1.288,9.631 0.744,0.196 1.489,0.392 4.426,0.672 2.938,0.279 8.068,0.642 13.143,1.005 5.074,0.363 10.092,0.726 13.996,1.045 3.905,0.319 6.695,0.595 8.372,0.73l0.055 0.004 0.053 0.004 0.053 0.004 0.052 0.004 0.051 0.004 0.051 0.004 0.05 0.004 0.048 0.004 0.001 0 0.048 0.003 0.048 0.004 0.046 0.003 0.047 0.003 0.045 0.004 0.045 0.003 0.044 0.003 0.044 0.003 0.042 0.003 0.043 0.003 0.041 0.002 0.041 0.003 0 0 0.041 0.002 0.039 0.003 0.039 0.002 0.001 0 0.038 0.003 0.038 0.002 0.037 0.002 0 0 0.037 0.002 0.036 0.002 0.036 0.002 0 0 0.035 0.002 0 0 0.035 0.002 0 0 0.034 0.002 0 0 0.033 0.002 0.033 0.001 0.001 0 0.032 0.002 0.032 0.002 0 0 0.031 0.001 0.001 0 0.031 0.001 0 0 0.03 0.002 0.001 0 0.029 0.001 0.001 0 0.029 0.001 0 0 0.029 0.002 0.001 0 0.028 0 0.001 0 0.028 0.002 0.028 0.001 0 0 0.028 0 0 0 0.027 0.001 0 0 0.027 0.001 0.026 0.001 0.001 0 0.025 0.001 0.001 0 0.025 0.001 0 0 0.025 0 0.001 0 0.025 0.001 0 0 0.024 0 0.001 0 0.024 0.001 0 0 0.024 0.001 0 0 0.023 0 0.001 0 0.023 0 0 0 0.023 0.001 0.001 0 0.022 0 0.001 0 0.022 0.001 0 0 0.022 0 0 0 0.022 0 0.001 0 0.021 0 0 0 -42.196 -3.575c-0.406,0.268 -0.327,-0.023 -0.308,0.899l-0.065 1.854 0 8.783c0.041,1.018 0.102,1.813 0.186,2.164 1.125,0.477 3.706,0.514 5.07,0.712 7.662,1.114 9.041,0.828 15.791,1.554l21.547 1.349c-0.015,-1.623 0.547,-10.725 0.578,-13.424l-0.603 -0.316 0 0 -0.07 -0.036c0,-4.476 -0.011,-9.226 -0.011,-13.7zm152.698 13.793l0 0 -0.416 0.247c-0.004,0.882 0.338,12.091 0.604,13.423l21.579 -1.336c6.75,-0.726 8.129,-0.44 15.791,-1.554 1.364,-0.198 3.945,-0.235 5.07,-0.712 0.084,-0.351 0.145,-1.146 0.186,-2.164l0 -8.783 -0.065 -1.854c0.014,-0.687 0.062,-0.7 -0.083,-0.774 -0.05,-0.025 -0.122,-0.057 -0.225,-0.125 -0.416,-3.138 -0.703,-6.536 -1.288,-9.631 -0.58,-3.06 -1.252,-6.186 -1.752,-9.253 -0.989,-6.057 -1.4,-13.201 -2.969,-19.04 -3.158,-11.748 -10.138,-32.116 -21.401,-39.215 -1.057,-0.665 -1.895,-1.576 -2.919,-2.163 -0.004,0.804 -0.013,1.568 -0.034,2.242 -0.037,1.214 -0.113,2.14 -0.663,4.067 -0.551,1.927 -1.577,4.856 -2.541,9.31 -0.963,4.455 -1.864,10.437 -2.652,16.318 -0.789,5.882 -1.465,11.663 -2.278,15.986 -0.813,4.324 -1.764,7.189 -2.565,9.742 -0.8,2.553 -1.451,4.792 -1.681,6.311 -0.23,1.519 -0.038,2.317 0.099,3.18 0.138,0.862 0.223,1.79 0.308,2.718 0,4.474 -0.105,8.584 -0.105,13.06z"/>
    </clipPath>
    <clipPath id="id4">
     <path d="M207.298 27.894c-0.11,-0.063 -0.222,-0.122 -0.337,-0.177 -4.975,-2.38 -9.714,-5.334 -14.858,-7.149 -4.647,-1.639 -11.454,-2.699 -17.288,-4.719 -2.277,-0.789 -4.556,-1.589 -6.82,-2.415l-0.004 -0.03 -9.999 -4.08 -0.175 -0.072c-0.614,-0.28 -1.553,-1.207 -2.512,-1.889 -0.494,-0.369 -0.613,-0.563 -1.038,-0.905 -2.856,-2.299 -5.606,-5.635 -9.574,-5.641 -0.901,-0.002 -1.04,-0.123 -1.779,-0.163l-7.601 -0.17c-5.892,-0.486 -12.055,-0.501 -18.06,-0.477 -5.087,0.02 -9.557,0.063 -14.567,0.477 -2.529,0.209 -4.996,0.029 -7.6,0.17 -0.739,0.04 -0.878,0.161 -1.779,0.163 -3.968,0.006 -6.718,3.342 -9.575,5.641 -0.424,0.342 -0.543,0.536 -1.037,0.905 -0.741,0.527 -1.471,1.2 -2.047,1.608 -0.17,0.121 -0.326,0.218 -0.465,0.281l-10.174 4.152 -0.003 0.03c-2.265,0.826 -4.544,1.626 -6.821,2.415 -5.834,2.02 -12.641,3.08 -17.288,4.719 -5.144,1.815 -9.883,4.769 -14.858,7.149 -0.212,0.101 -0.412,0.215 -0.605,0.339 -0.909,0.583 -1.664,1.379 -2.651,2.001 -11.263,7.099 -18.243,27.467 -21.401,39.215 -1.569,5.839 -1.98,12.983 -2.969,19.04 -0.5,3.067 -1.172,6.193 -1.752,9.253 -0.585,3.095 -0.872,6.493 -1.288,9.631 -0.406,0.268 -0.327,-0.023 -0.308,0.899l-0.065 1.854 0 8.783c0.041,1.018 0.102,1.813 0.186,2.164 1.125,0.477 3.706,0.514 5.07,0.712 7.662,1.114 9.041,0.828 15.791,1.554l21.547 1.349c-0.015,-1.623 0.547,-10.725 0.578,-13.424l-0.603 -0.316 -0.07 -0.036c0,-4.476 -0.011,-9.226 -0.011,-13.7 1.678,4.247 3.328,18.944 3.789,24.023 0.735,8.116 1.826,16.186 2.512,24.347 0.348,4.137 0.874,8.269 1.009,12.419l0.653 12.776c0.396,4.199 0.208,8.934 0.274,13.179 0.032,2.062 0.194,4.007 0.186,6.13 -0.007,2.226 -0.172,4.349 -0.196,6.512 -0.051,4.469 -0.054,8.634 -0.319,13.111 -0.68,11.475 -1.257,26.076 -3.267,37.02 -0.966,5.407 -2.177,11.944 -2.754,17.389 -0.258,2.432 -0.827,10.057 -1.468,11.951 -0.68,2.01 -0.163,3.658 -0.568,5.77 -0.342,1.785 -0.742,3.812 -1.164,5.568 -0.463,1.93 -1.435,3.647 0.397,4.966 4.276,1.054 8.552,2.108 13.913,3.017 5.36,0.909 11.804,1.672 18.03,2.048 6.226,0.375 12.232,0.363 21.568,0.476 9.335,0.112 21.999,0.351 32.523,0.382 10.525,0.032 18.909,-0.144 26.242,-0.419 7.333,-0.275 13.615,-0.65 19.058,-1.151 5.443,-0.501 10.048,-1.126 13.829,-1.873 3.78,-0.746 6.736,-1.613 9.693,-2.48 1.832,-1.319 0.86,-3.036 0.397,-4.966 -0.422,-1.756 -0.822,-3.783 -1.164,-5.568 -0.405,-2.112 0.112,-3.76 -0.568,-5.77 -0.641,-1.894 -1.21,-9.519 -1.468,-11.951 -0.577,-5.445 -1.788,-11.982 -2.754,-17.389 -2.01,-10.944 -2.587,-25.545 -3.267,-37.02 -0.265,-4.477 -0.268,-8.642 -0.319,-13.111 -0.024,-2.163 -0.189,-4.286 -0.196,-6.512 -0.008,-2.123 0.154,-4.068 0.186,-6.13 0.066,-4.245 -0.122,-8.98 0.274,-13.179l0.653 -12.776c0.135,-4.15 0.661,-8.282 1.009,-12.419 0.686,-8.161 1.777,-16.231 2.512,-24.347 0.461,-5.079 1.889,-19.043 3.568,-23.29 0,4.474 -0.105,8.584 -0.105,13.06l0 0 -0.416 0.247c-0.004,0.882 0.338,12.091 0.604,13.423l21.579 -1.336c6.75,-0.726 8.129,-0.44 15.791,-1.554 1.364,-0.198 3.945,-0.235 5.07,-0.712 0.084,-0.351 0.145,-1.146 0.186,-2.164l0 -8.783 -0.065 -1.854c0.014,-0.687 0.062,-0.7 -0.083,-0.774 -0.05,-0.025 -0.122,-0.057 -0.225,-0.125 -0.416,-3.138 -0.703,-6.536 -1.288,-9.631 -0.58,-3.06 -1.252,-6.186 -1.752,-9.253 -0.989,-6.057 -1.4,-13.201 -2.969,-19.04 -3.158,-11.748 -10.138,-32.116 -21.401,-39.215 -1.057,-0.665 -1.895,-1.576 -2.919,-2.163z"/>
    </clipPath>
 </defs>
 <g id="VETORES">
  <metadata id="CorelCorpID_0Corel-Layer"/>
  <g>
  </g>
  <g clip-path="url(#id0)">
   <g id="_2359760218736">
    <g>
    </g>
   </g>
   <g clip-path="url(#id1)">
    <g>
     <path fill="red" d="M98.996 241.503l-23.096 0 0 -20.542 -23.096 0 -23.096 0 0 23.096 0 23.095 23.096 0 0 -23.095 23.096 0 0 23.095 -23.096 0 0 23.096 -23.096 0 0 23.096 -23.096 0 0 -23.096 -23.096 0 0 -23.096 23.096 0 0 -23.095 -23.096 0 0 -23.096 0 -221.825 277.15 0 0 152.537 0 23.096 -23.095 0 0 23.096 -23.096 0 -23.096 0 0 -23.096 -23.096 0 0 23.096 0 23.096 23.096 0 0 23.096 -23.096 0 0 -23.096 -23.096 0 0 23.096 -23.096 0 0 23.095 23.096 0 0 23.096 -23.096 0 0 -23.096 -23.095 0 0 -23.095 23.095 0 0 -23.096 0 -23.096 -23.095 0 0 20.543 0 23.095zm-92.384 25.649l0 23.096 23.096 0 0 -23.096 -23.096 0z"/>
    </g>
   </g>
   <g clip-path="url(#id2)">
    <path fill="none" d="M195.291 97.768c-0.085,-0.928 -0.17,-1.856 -0.308,-2.718 -0.137,-0.863 -0.329,-1.661 -0.099,-3.18 0.23,-1.519 0.881,-3.758 1.681,-6.311 0.801,-2.553 1.752,-5.418 2.565,-9.742 0.813,-4.323 1.489,-10.104 2.278,-15.986 0.788,-5.881 1.689,-11.863 2.652,-16.318 0.964,-4.454 1.99,-7.383 2.541,-9.31 0.55,-1.927 0.626,-2.853 0.663,-4.067 0.021,-0.674 0.03,-1.438 0.034,-2.242 -0.11,-0.063 -0.222,-0.122 -0.337,-0.177 -4.975,-2.38 -9.714,-5.334 -14.858,-7.149 -4.647,-1.639 -11.454,-2.699 -17.288,-4.719 -2.277,-0.789 -4.556,-1.589 -6.82,-2.415l-0.004 -0.03 -9.999 -4.08 -0.175 -0.072c-0.614,-0.28 -1.553,-1.207 -2.512,-1.889 -0.494,-0.369 -0.613,-0.563 -1.038,-0.905 -2.856,-2.299 -5.606,-5.635 -9.574,-5.641 -0.901,-0.002 -1.04,-0.123 -1.779,-0.163l-7.601 -0.17c-5.892,-0.486 -12.055,-0.501 -18.06,-0.477 -5.087,0.02 -9.557,0.063 -14.567,0.477 -2.529,0.209 -4.996,0.029 -7.6,0.17 -0.739,0.04 -0.878,0.161 -1.779,0.163 -3.968,0.006 -6.718,3.342 -9.575,5.641 -0.424,0.342 -0.543,0.536 -1.037,0.905 -0.741,0.527 -1.471,1.2 -2.047,1.608 -0.17,0.121 -0.326,0.218 -0.465,0.281l-10.174 4.152 -0.003 0.03c-2.265,0.826 -4.544,1.626 -6.821,2.415 -5.834,2.02 -12.641,3.08 -17.288,4.719 -5.144,1.815 -9.883,4.769 -14.858,7.149 -0.212,0.101 -0.412,0.215 -0.605,0.339 0.121,0.721 0.248,1.443 0.383,2.165 0.438,2.34 0.963,4.693 1.752,8.597 0.788,3.904 1.839,9.36 2.815,15.624 0.976,6.262 1.877,13.332 3.034,19.705 1.157,6.372 2.57,12.047 3.374,15.175 0.803,3.129 0.998,3.71 1.026,4.321 0.028,0.61 -0.11,1.248 -0.192,1.818 -0.083,0.57 -0.11,1.072 -0.138,1.574 1.678,4.247 3.328,18.944 3.789,24.023 0.735,8.116 1.826,16.186 2.512,24.347 0.348,4.137 0.874,8.269 1.009,12.419l0.653 12.776c0.396,4.199 0.208,8.934 0.274,13.179 0.032,2.062 0.194,4.007 0.186,6.13 -0.007,2.226 -0.172,4.349 -0.196,6.512 -0.051,4.469 -0.054,8.634 -0.319,13.111 -0.68,11.475 -1.257,26.076 -3.267,37.02 -0.966,5.407 -2.177,11.944 -2.754,17.389 -0.258,2.432 -0.827,10.057 -1.468,11.951 -0.68,2.01 -0.163,3.658 -0.568,5.77 -0.342,1.785 -0.742,3.812 -1.164,5.568 -0.463,1.93 -1.435,3.647 0.397,4.966 4.276,1.054 8.552,2.108 13.913,3.017 5.36,0.909 11.804,1.672 18.03,2.048 6.226,0.375 12.232,0.363 21.568,0.476 9.335,0.112 21.999,0.351 32.523,0.382 10.525,0.032 18.909,-0.144 26.242,-0.419 7.333,-0.275 13.615,-0.65 19.058,-1.151 5.443,-0.501 10.048,-1.126 13.829,-1.873 3.78,-0.746 6.736,-1.613 9.693,-2.48 1.832,-1.319 0.86,-3.036 0.397,-4.966 -0.422,-1.756 -0.822,-3.783 -1.164,-5.568 -0.405,-2.112 0.112,-3.76 -0.568,-5.77 -0.641,-1.894 -1.21,-9.519 -1.468,-11.951 -0.577,-5.445 -1.788,-11.982 -2.754,-17.389 -2.01,-10.944 -2.587,-25.545 -3.267,-37.02 -0.265,-4.477 -0.268,-8.642 -0.319,-13.111 -0.024,-2.163 -0.189,-4.286 -0.196,-6.512 -0.008,-2.123 0.154,-4.068 0.186,-6.13 0.066,-4.245 -0.122,-8.98 0.274,-13.179l0.653 -12.776c0.135,-4.15 0.661,-8.282 1.009,-12.419 0.686,-8.161 1.777,-16.231 2.512,-24.347 0.461,-5.079 1.889,-19.043 3.568,-23.29z"/>
    <g>
    </g>
   </g>
   <g clip-path="url(#id3)">
    <g>
     <g>
      <polygon fill="red" points="-81.547,121.818 -104.495,119.206 -107.106,142.154 -84.159,144.765 "/>
      <polygon fill="red" points="-35.652,127.042 -58.599,124.43 -61.211,147.377 -38.263,149.989 "/>
      <polygon fill="red" points="10.244,132.265 -12.704,129.653 -15.316,152.601 7.632,155.213 "/>
      <polygon fill="red" points="56.139,137.489 33.191,134.877 30.579,157.825 53.527,160.437 "/>
      <polygon fill="red" points="-101.883,96.258 -124.83,93.647 -127.442,116.594 -104.495,119.206 "/>
      <polygon fill="red" points="-55.988,101.482 -78.935,98.87 -81.547,121.818 -58.599,124.43 "/>
      <polygon fill="red" points="-10.092,106.706 -33.04,104.094 -35.652,127.042 -12.704,129.653 "/>
      <polygon fill="red" points="35.803,111.93 12.855,109.318 10.244,132.265 33.191,134.877 "/>
      <polygon fill="red" points="81.699,117.153 58.751,114.541 56.139,137.489 79.087,140.101 "/>
      <polygon fill="red" points="-101.883,96.258 -78.935,98.87 -76.323,75.923 -99.271,73.311 "/>
      <polygon fill="red" points="-55.988,101.482 -33.04,104.094 -30.428,81.146 -53.376,78.535 "/>
      <polygon fill="red" points="-10.092,106.706 12.855,109.318 15.467,86.37 -7.48,83.758 "/>
      <polygon fill="red" points="35.803,111.93 58.751,114.541 61.363,91.594 38.415,88.982 "/>
      <polygon fill="red" points="-122.219,70.699 -99.271,73.311 -96.659,50.363 -119.607,47.751 "/>
      <polygon fill="red" points="-76.323,75.923 -53.376,78.535 -50.764,55.587 -73.712,52.975 "/>
      <polygon fill="red" points="-30.428,81.146 -7.48,83.758 -4.868,60.81 -27.816,58.198 "/>
      <polygon fill="red" points="15.467,86.37 38.415,88.982 41.027,66.034 18.079,63.422 "/>
      <polygon fill="red" points="61.363,91.594 84.31,94.206 86.922,71.258 63.974,68.646 "/>
      <polygon fill="red" points="-96.659,50.363 -73.712,52.975 -71.1,30.027 -94.047,27.415 "/>
      <polygon fill="red" points="-50.764,55.587 -27.816,58.198 -25.204,35.251 -48.152,32.639 "/>
      <polygon fill="red" points="-4.868,60.81 18.079,63.422 20.691,40.475 -2.257,37.863 "/>
      <polygon fill="red" points="41.027,66.034 63.974,68.646 66.586,45.698 43.639,43.086 "/>
      <polygon fill="red" points="-116.995,24.803 -94.047,27.415 -91.435,4.468 -114.383,1.856 "/>
      <polygon fill="red" points="-71.1,30.027 -48.152,32.639 -45.54,9.691 -68.488,7.08 "/>
      <polygon fill="red" points="-25.204,35.251 -2.257,37.863 0.355,14.915 -22.592,12.303 "/>
      <polygon fill="red" points="20.691,40.475 43.639,43.086 46.25,20.139 23.303,17.527 "/>
      <polygon fill="red" points="66.586,45.698 89.534,48.31 92.146,25.363 69.198,22.751 "/>
      <polygon fill="red" points="-91.435,4.468 -68.488,7.08 -65.876,-15.868 -88.824,-18.48 "/>
      <polygon fill="red" points="-45.54,9.691 -22.592,12.303 -19.98,-10.644 -42.928,-13.256 "/>
      <polygon fill="red" points="0.355,14.915 23.303,17.527 25.915,-5.421 2.967,-8.032 "/>
      <polygon fill="red" points="46.25,20.139 69.198,22.751 71.81,-0.197 48.862,-2.809 "/>
     </g>
     <g>
      <polygon fill="red" points="280.072,126.582 303.153,125.743 303.992,148.823 280.912,149.663 "/>
      <polygon fill="red" points="233.911,128.26 256.992,127.421 257.831,150.502 234.751,151.341 "/>
      <polygon fill="red" points="187.75,129.939 210.831,129.099 211.67,152.18 188.589,153.019 "/>
      <polygon fill="red" points="141.589,131.617 164.67,130.778 165.509,153.858 142.428,154.698 "/>
      <polygon fill="red" points="302.314,102.662 325.394,101.823 326.234,124.903 303.153,125.743 "/>
      <polygon fill="red" points="256.153,104.341 279.233,103.501 280.072,126.582 256.992,127.421 "/>
      <polygon fill="red" points="209.992,106.019 233.072,105.18 233.911,128.26 210.831,129.099 "/>
      <polygon fill="red" points="163.83,107.697 186.911,106.858 187.75,129.939 164.67,130.778 "/>
      <polygon fill="red" points="117.669,109.376 140.75,108.536 141.589,131.617 118.509,132.456 "/>
      <polygon fill="red" points="302.314,102.662 279.233,103.501 278.394,80.421 301.475,79.582 "/>
      <polygon fill="red" points="256.153,104.341 233.072,105.18 232.233,82.099 255.314,81.26 "/>
      <polygon fill="red" points="209.992,106.019 186.911,106.858 186.072,83.778 209.152,82.938 "/>
      <polygon fill="red" points="163.83,107.697 140.75,108.536 139.911,85.456 162.991,84.617 "/>
      <polygon fill="red" points="324.555,78.742 301.475,79.582 300.636,56.501 323.716,55.662 "/>
      <polygon fill="red" points="278.394,80.421 255.314,81.26 254.474,58.179 277.555,57.34 "/>
      <polygon fill="red" points="232.233,82.099 209.152,82.938 208.313,59.858 231.394,59.019 "/>
      <polygon fill="red" points="186.072,83.778 162.991,84.617 162.152,61.536 185.233,60.697 "/>
      <polygon fill="red" points="139.911,85.456 116.83,86.295 115.991,63.214 139.072,62.375 "/>
      <polygon fill="red" points="300.636,56.501 277.555,57.34 276.716,34.26 299.796,33.42 "/>
      <polygon fill="red" points="254.474,58.179 231.394,59.019 230.555,35.938 253.635,35.099 "/>
      <polygon fill="red" points="208.313,59.858 185.233,60.697 184.394,37.616 207.474,36.777 "/>
      <polygon fill="red" points="162.152,61.536 139.072,62.375 138.232,39.295 161.313,38.456 "/>
      <polygon fill="red" points="322.877,32.581 299.796,33.42 298.957,10.34 322.038,9.5 "/>
      <polygon fill="red" points="276.716,34.26 253.635,35.099 252.796,12.018 275.877,11.179 "/>
      <polygon fill="red" points="230.555,35.938 207.474,36.777 206.635,13.697 229.716,12.857 "/>
      <polygon fill="red" points="184.394,37.616 161.313,38.456 160.474,15.375 183.554,14.536 "/>
      <polygon fill="red" points="138.232,39.295 115.152,40.134 114.313,17.053 137.393,16.214 "/>
      <polygon fill="red" points="298.957,10.34 275.877,11.179 275.037,-11.902 298.118,-12.741 "/>
      <polygon fill="red" points="252.796,12.018 229.716,12.857 228.876,-10.223 251.957,-11.062 "/>
      <polygon fill="red" points="206.635,13.697 183.554,14.536 182.715,-8.545 205.796,-9.384 "/>
      <polygon fill="red" points="160.474,15.375 137.393,16.214 136.554,-6.866 159.635,-7.706 "/>
     </g>
    </g>
   </g>
   <g clip-path="url(#id4)">
    <path fill="none" d="M42.488 97.035c0.028,-0.502 0.055,-1.004 0.138,-1.574 0.082,-0.57 0.22,-1.208 0.192,-1.818 -0.028,-0.611 -0.223,-1.192 -1.026,-4.321 -0.804,-3.128 -2.217,-8.803 -3.374,-15.175 -1.157,-6.373 -2.058,-13.443 -3.034,-19.705 -0.976,-6.264 -2.027,-11.72 -2.815,-15.624 -0.789,-3.904 -1.314,-6.257 -1.752,-8.597 -0.135,-0.722 -0.262,-1.444 -0.383,-2.165 -0.909,0.583 -1.664,1.379 -2.651,2.001 -11.263,7.099 -18.243,27.467 -21.401,39.215 -1.569,5.839 -1.98,12.983 -2.969,19.04 -0.5,3.067 -1.172,6.193 -1.752,9.253 -0.585,3.095 -0.872,6.493 -1.288,9.631 -0.406,0.268 -0.327,-0.023 -0.308,0.899l-0.065 1.854 0 8.783c0.041,1.018 0.102,1.813 0.186,2.164 1.125,0.477 3.706,0.514 5.07,0.712 7.662,1.114 9.041,0.828 15.791,1.554l21.547 1.349c-0.015,-1.623 0.547,-10.725 0.578,-13.424l-0.603 -0.316 0 0 -0.07 -0.036c0,-4.476 -0.011,-9.226 -0.011,-13.7zm152.698 13.793l0 0 -0.416 0.247c-0.004,0.882 0.338,12.091 0.604,13.423l21.579 -1.336c6.75,-0.726 8.129,-0.44 15.791,-1.554 1.364,-0.198 3.945,-0.235 5.07,-0.712 0.084,-0.351 0.145,-1.146 0.186,-2.164l0 -8.783 -0.065 -1.854c0.014,-0.687 0.062,-0.7 -0.083,-0.774 -0.05,-0.025 -0.122,-0.057 -0.225,-0.125 -0.416,-3.138 -0.703,-6.536 -1.288,-9.631 -0.58,-3.06 -1.252,-6.186 -1.752,-9.253 -0.989,-6.057 -1.4,-13.201 -2.969,-19.04 -3.158,-11.748 -10.138,-32.116 -21.401,-39.215 -1.057,-0.665 -1.895,-1.576 -2.919,-2.163 -0.004,0.804 -0.013,1.568 -0.034,2.242 -0.037,1.214 -0.113,2.14 -0.663,4.067 -0.551,1.927 -1.577,4.856 -2.541,9.31 -0.963,4.455 -1.864,10.437 -2.652,16.318 -0.789,5.882 -1.465,11.663 -2.278,15.986 -0.813,4.324 -1.764,7.189 -2.565,9.742 -0.8,2.553 -1.451,4.792 -1.681,6.311 -0.23,1.519 -0.038,2.317 0.099,3.18 0.138,0.862 0.223,1.79 0.308,2.718 0,4.474 -0.105,8.584 -0.105,13.06zm-194.813 -3.632c0.744,0.196 1.489,0.392 4.426,0.672 2.938,0.279 8.068,0.642 13.143,1.005 5.074,0.363 10.092,0.726 13.996,1.045 3.905,0.319 6.695,0.595 8.372,0.73l0.055 0.004 0.053 0.004 0.053 0.004 0.052 0.004 0.051 0.004 0.051 0.004 0.05 0.004 0.048 0.004 0.001 0 0.048 0.003 0.048 0.004 0.046 0.003 0.047 0.003 0.045 0.004 0.045 0.003 0.044 0.003 0.044 0.003 0.042 0.003 0.043 0.003 0.041 0.002 0.041 0.003 0 0 0.041 0.002 0.039 0.003 0.039 0.002 0.001 0 0.038 0.003 0.038 0.002 0.037 0.002 0 0 0.037 0.002 0.036 0.002 0.036 0.002 0 0 0.035 0.002 0 0 0.035 0.002 0 0 0.034 0.002 0 0 0.033 0.002 0.033 0.001 0.001 0 0.032 0.002 0.032 0.002 0 0 0.031 0.001 0.001 0 0.031 0.001 0 0 0.03 0.002 0.001 0 0.029 0.001 0.001 0 0.029 0.001 0 0 0.029 0.002 0.001 0 0.028 0 0.001 0 0.028 0.002 0.028 0.001 0 0 0.028 0 0 0 0.027 0.001 0 0 0.027 0.001 0.026 0.001 0.001 0 0.025 0.001 0.001 0 0.025 0.001 0 0 0.025 0 0.001 0 0.025 0.001 0 0 0.024 0 0.001 0 0.024 0.001 0 0 0.024 0.001 0 0 0.023 0 0.001 0 0.023 0 0 0 0.023 0.001 0.001 0 0.022 0 0.001 0 0.022 0.001 0 0 0.022 0 0 0 0.022 0 0.001 0 0.021 0 0 0 -42.196 -3.575z"/>
   </g>
  </g>
  <path fill="none" d="M207.298 27.894c-0.11,-0.063 -0.222,-0.122 -0.337,-0.177 -4.975,-2.38 -9.714,-5.334 -14.858,-7.149 -4.647,-1.639 -11.454,-2.699 -17.288,-4.719 -2.277,-0.789 -4.556,-1.589 -6.82,-2.415l-0.004 -0.03 -9.999 -4.08 -0.175 -0.072c-0.614,-0.28 -1.553,-1.207 -2.512,-1.889 -0.494,-0.369 -0.613,-0.563 -1.038,-0.905 -2.856,-2.299 -5.606,-5.635 -9.574,-5.641 -0.901,-0.002 -1.04,-0.123 -1.779,-0.163l-7.601 -0.17c-5.892,-0.486 -12.055,-0.501 -18.06,-0.477 -5.087,0.02 -9.557,0.063 -14.567,0.477 -2.529,0.209 -4.996,0.029 -7.6,0.17 -0.739,0.04 -0.878,0.161 -1.779,0.163 -3.968,0.006 -6.718,3.342 -9.575,5.641 -0.424,0.342 -0.543,0.536 -1.037,0.905 -0.741,0.527 -1.471,1.2 -2.047,1.608 -0.17,0.121 -0.326,0.218 -0.465,0.281l-10.174 4.152 -0.003 0.03c-2.265,0.826 -4.544,1.626 -6.821,2.415 -5.834,2.02 -12.641,3.08 -17.288,4.719 -5.144,1.815 -9.883,4.769 -14.858,7.149 -0.212,0.101 -0.412,0.215 -0.605,0.339 -0.909,0.583 -1.664,1.379 -2.651,2.001 -11.263,7.099 -18.243,27.467 -21.401,39.215 -1.569,5.839 -1.98,12.983 -2.969,19.04 -0.5,3.067 -1.172,6.193 -1.752,9.253 -0.585,3.095 -0.872,6.493 -1.288,9.631 -0.406,0.268 -0.327,-0.023 -0.308,0.899l-0.065 1.854 0 8.783c0.041,1.018 0.102,1.813 0.186,2.164 1.125,0.477 3.706,0.514 5.07,0.712 7.662,1.114 9.041,0.828 15.791,1.554l21.547 1.349c-0.015,-1.623 0.547,-10.725 0.578,-13.424l-0.603 -0.316 -0.07 -0.036c0,-4.476 -0.011,-9.226 -0.011,-13.7 1.678,4.247 3.328,18.944 3.789,24.023 0.735,8.116 1.826,16.186 2.512,24.347 0.348,4.137 0.874,8.269 1.009,12.419l0.653 12.776c0.396,4.199 0.208,8.934 0.274,13.179 0.032,2.062 0.194,4.007 0.186,6.13 -0.007,2.226 -0.172,4.349 -0.196,6.512 -0.051,4.469 -0.054,8.634 -0.319,13.111 -0.68,11.475 -1.257,26.076 -3.267,37.02 -0.966,5.407 -2.177,11.944 -2.754,17.389 -0.258,2.432 -0.827,10.057 -1.468,11.951 -0.68,2.01 -0.163,3.658 -0.568,5.77 -0.342,1.785 -0.742,3.812 -1.164,5.568 -0.463,1.93 -1.435,3.647 0.397,4.966 4.276,1.054 8.552,2.108 13.913,3.017 5.36,0.909 11.804,1.672 18.03,2.048 6.226,0.375 12.232,0.363 21.568,0.476 9.335,0.112 21.999,0.351 32.523,0.382 10.525,0.032 18.909,-0.144 26.242,-0.419 7.333,-0.275 13.615,-0.65 19.058,-1.151 5.443,-0.501 10.048,-1.126 13.829,-1.873 3.78,-0.746 6.736,-1.613 9.693,-2.48 1.832,-1.319 0.86,-3.036 0.397,-4.966 -0.422,-1.756 -0.822,-3.783 -1.164,-5.568 -0.405,-2.112 0.112,-3.76 -0.568,-5.77 -0.641,-1.894 -1.21,-9.519 -1.468,-11.951 -0.577,-5.445 -1.788,-11.982 -2.754,-17.389 -2.01,-10.944 -2.587,-25.545 -3.267,-37.02 -0.265,-4.477 -0.268,-8.642 -0.319,-13.111 -0.024,-2.163 -0.189,-4.286 -0.196,-6.512 -0.008,-2.123 0.154,-4.068 0.186,-6.13 0.066,-4.245 -0.122,-8.98 0.274,-13.179l0.653 -12.776c0.135,-4.15 0.661,-8.282 1.009,-12.419 0.686,-8.161 1.777,-16.231 2.512,-24.347 0.461,-5.079 1.889,-19.043 3.568,-23.29 0,4.474 -0.105,8.584 -0.105,13.06l0 0 -0.416 0.247c-0.004,0.882 0.338,12.091 0.604,13.423l21.579 -1.336c6.75,-0.726 8.129,-0.44 15.791,-1.554 1.364,-0.198 3.945,-0.235 5.07,-0.712 0.084,-0.351 0.145,-1.146 0.186,-2.164l0 -8.783 -0.065 -1.854c0.014,-0.687 0.062,-0.7 -0.083,-0.774 -0.05,-0.025 -0.122,-0.057 -0.225,-0.125 -0.416,-3.138 -0.703,-6.536 -1.288,-9.631 -0.58,-3.06 -1.252,-6.186 -1.752,-9.253 -0.989,-6.057 -1.4,-13.201 -2.969,-19.04 -3.158,-11.748 -10.138,-32.116 -21.401,-39.215 -1.057,-0.665 -1.895,-1.576 -2.919,-2.163z"/>
 </g>
</svg>
