<?xml version="1.0" encoding="utf-8"?>
<!-- Generator: Adobe Illustrator 16.0.3, SVG Export Plug-In . SVG Version: 6.00 Build 0)  -->
<!DOCTYPE svg PUBLIC "-//W3C//DTD SVG 1.1//EN" "http://www.w3.org/Graphics/SVG/1.1/DTD/svg11.dtd">
<svg version="1.1"
	 id="Layer_1" image-rendering="optimizeQuality" text-rendering="geometricPrecision" shape-rendering="geometricPrecision" xmlns:xodm="http://www.corel.com/coreldraw/odm/2003"
	 xmlns="http://www.w3.org/2000/svg" xmlns:xlink="http://www.w3.org/1999/xlink" x="0px" y="0px" width="187px" height="148px"
	 viewBox="0 0 187 148" enable-background="new 0 0 187 148" xml:space="preserve">
<g id="Camada_x0020_1">
	<path id="d1" fill="#F00808" d="M10.405,19.133l0.098,0.011c-0.206,0.613-0.411,1.225-0.616,1.83L10.405,19.133z M9.818,21.217
		c0.104-0.145,0.205-0.291,0.304-0.446c-0.577,1.81-1.133,3.618-1.669,5.424l0.132-0.562c0.207-0.88,0.393-1.46,0.642-2.332
		C9.431,22.585,9.627,21.892,9.818,21.217z M4.822,42.623l0.366,0.023c0.843-3.742,1.75-7.487,2.73-11.238
		c0.034,0.159,0.068,0.317,0.103,0.476c1.019-3.661,2.116-7.328,3.287-11.001c-0.004,0.15-0.011,0.3-0.011,0.438
		c0.23-0.672,0.456-1.343,0.68-2.026c0.126,0.014,0.256,0.028,0.386,0.03c-0.363,1.084-0.726,2.168-1.062,3.239
		c-0.002,0.184-0.002,0.369-0.004,0.541c-1.049,3.434-2.03,6.851-2.946,10.263c0.079,0.34,0.152,0.669,0.226,0.997
		c-0.583,2.366-1.143,4.729-1.671,7.091c0.145-0.104,0.295-0.205,0.445-0.307c0.445-1.965,0.917-3.931,1.399-5.898
		c0.008-0.024,0.015-0.047,0.017-0.082c0.274-1.043,0.543-2.086,0.82-3.141c0.073-0.086,0.136-0.171,0.204-0.256
		c0.782-2.828,1.614-5.659,2.483-8.493c0.008,0.171,0.006,0.344,0.004,0.517c0.692-2.189,1.426-4.38,2.177-6.585
		c0.126,0.015,0.256,0.028,0.381,0.031c-0.885,2.605-1.742,5.208-2.554,7.797c0.002,0.161,0.007,0.31,0.008,0.459
		c-0.48,1.645-0.957,3.289-1.415,4.932c0.129-0.147,0.252-0.293,0.371-0.451c-0.681,2.487-1.316,4.971-1.924,7.453
		c-0.22,0.947-0.445,1.884-0.657,2.819c0.397-0.269,0.797-0.55,1.194-0.831c0.909-3.781,1.891-7.578,2.951-11.38
		c0.15-0.172,0.295-0.343,0.443-0.526c1.171-3.879,2.436-7.777,3.785-11.68c0.126,0.014,0.252,0.029,0.382,0.043
		c-1.265,3.644-2.448,7.271-3.554,10.892c0.213-0.256,0.431-0.513,0.644-0.77c-1.195,4.18-2.298,8.354-3.315,12.51
		c0.149-0.102,0.299-0.205,0.449-0.307c0.098,0.143,0.196,0.285,0.293,0.417c1.019-4.18,2.122-8.365,3.321-12.557
		c0.051,0.261,0.096,0.511,0.141,0.761c1.119-3.68,2.321-7.366,3.602-11.057c0.126,0.014,0.251,0.029,0.381,0.031
		c-1.368,3.962-2.639,7.906-3.829,11.844c0.044,0.227,0.092,0.454,0.136,0.681c-1.049,3.836-2.014,7.666-2.908,11.481
		c0.2,0.273,0.394,0.547,0.597,0.809c0.815-3.543,1.698-7.103,2.645-10.668c0.014,0.068,0.029,0.136,0.042,0.204
		c0.384-1.384,0.791-2.771,1.197-4.157c0.109-0.168,0.217-0.337,0.325-0.506c0.791-2.564,1.614-5.13,2.487-7.711
		c0.126,0.015,0.252,0.029,0.381,0.031c-0.73,2.18-1.438,4.347-2.122,6.512c0.087-0.133,0.18-0.266,0.271-0.41
		c-0.776,2.574-1.52,5.146-2.228,7.716c0.046,0.192,0.087,0.385,0.133,0.577c-0.816,3.199-1.567,6.393-2.278,9.584
		c0.225,0.307,0.45,0.613,0.67,0.92c0.639-2.887,1.31-5.776,2.031-8.68c0.023,0.136,0.05,0.261,0.082,0.385
		c0.912-3.47,1.885-6.944,2.925-10.434c0.096-0.145,0.192-0.29,0.288-0.446c0.348-1.095,0.701-2.201,1.062-3.308
		c0.126,0.014,0.251,0.028,0.372,0.043c-0.232,0.707-0.45,1.412-0.675,2.107c0.11-0.157,0.218-0.326,0.321-0.494
		c-1.428,4.68-2.741,9.351-3.94,14.015c0.033,0.136,0.065,0.26,0.092,0.385c-1.085,4.771-2.065,9.523-2.934,14.267
		c-0.005,0-0.01,0-0.014,0.001c-1.251,7.694-2.272,15.36-3.077,23.011c0.005,0,0.005,0,0.005,0
		c-0.529,7.643-0.832,15.271-0.896,22.881c0.004,0,0.009,0,0.014,0c0.068,4.689,0.257,9.371,0.541,14.035
		c-0.056,0.119-0.114,0.227-0.166,0.334c0.419,4.551,0.972,9.092,1.639,13.625c-0.085-0.166-0.166-0.334-0.251-0.5
		c0.107,0.683,0.22,1.365,0.326,2.037c-0.13-0.014-0.274-0.026-0.409-0.041c-0.17-1.058-0.342-2.127-0.519-3.196
		c-0.07-0.146-0.146-0.302-0.225-0.456c-0.462-3.374-0.86-6.753-1.189-10.148c-0.057,0.12-0.109,0.227-0.162,0.334
		c-0.225-2.826-0.414-5.656-0.561-8.499c-0.278,0.249-0.566,0.499-0.854,0.738c0.168,3.13,0.386,6.256,0.655,9.379
		c-0.075,0.179-0.156,0.345-0.237,0.511c0.277,2.502,0.58,5,0.921,7.498c-0.065-0.135-0.135-0.279-0.2-0.425
		c0.322,2.107,0.653,4.201,1.035,6.292c-0.144-0.013-0.284-0.025-0.423-0.04c-0.441-2.478-0.836-4.959-1.19-7.454
		c-0.081-0.166-0.163-0.345-0.245-0.523c-0.182-1.346-0.34-2.692-0.495-4.051c-0.023,0.07-0.056,0.131-0.084,0.19
		c-0.339-3.464-0.614-6.942-0.825-10.426c-0.243,0.224-0.496,0.437-0.745,0.649c0.235,3.748,0.541,7.478,0.926,11.201
		c-0.088,0.202-0.18,0.404-0.277,0.607c0.512,3.818,1.102,7.633,1.792,11.439c-0.134-0.002-0.273-0.016-0.413-0.028
		c-0.65-3.558-1.213-7.119-1.697-10.688c-0.1,0.226-0.191,0.45-0.287,0.664c-0.478-4.073-0.856-8.155-1.132-12.245
		c-0.126,0.112-0.257,0.225-0.387,0.338c-0.129-0.117-0.267-0.246-0.401-0.375c0.271,4.077,0.643,8.148,1.116,12.213
		c-0.176-0.276-0.357-0.552-0.534-0.838c0.472,3.522,1.023,7.041,1.651,10.541c-0.14-0.014-0.279-0.026-0.419-0.041
		c-0.664-3.75-1.241-7.519-1.731-11.293c-0.115-0.188-0.229-0.377-0.353-0.563c-0.388-3.702-0.697-7.408-0.934-11.121
		c-0.355-0.32-0.715-0.652-1.08-0.983c0.051,0.917,0.101,1.835,0.146,2.753c0.165,2.428,0.358,4.854,0.587,7.277
		c-0.094-0.154-0.193-0.32-0.297-0.486c0.167,1.601,0.348,3.198,0.533,4.797c-0.032,0.14-0.063,0.28-0.09,0.42
		c0.342,2.52,0.734,5.023,1.158,7.525c-0.139-0.002-0.274-0.015-0.422-0.027c-0.356-2.115-0.693-4.232-0.994-6.363
		c-0.035,0.163-0.071,0.314-0.106,0.467c-0.367-2.747-0.68-5.499-0.951-8.253c-0.052-0.089-0.1-0.177-0.158-0.276
		c-0.094-1.018-0.17-2.037-0.251-3.066c-0.001-0.023,0.002-0.047-0.006-0.08c-0.129-1.926-0.236-3.85-0.325-5.789
		c-0.133-0.117-0.266-0.246-0.405-0.374c0.107,2.327,0.228,4.644,0.389,6.958c-0.146,0.297-0.286,0.595-0.433,0.882
		c0.293,3.328,0.649,6.651,1.075,9.97c-0.033,0.176-0.068,0.34-0.112,0.504c0.147,1.049,0.311,2.084,0.472,3.119
		c-0.134-0.002-0.274-0.015-0.413-0.029c-0.101-0.648-0.202-1.297-0.313-1.957c-0.018,0.129-0.051,0.258-0.079,0.386
		c-0.492-3.544-0.916-7.104-1.262-10.671c-0.069,0.143-0.133,0.285-0.202,0.417l-0.024-0.308c-0.041-3.518-0.073-7.051-0.059-10.703
		L0,93.12c0.016-1.147,0.169-1.71,0.197-2.722c0.058-2.025-0.002-4.188-0.011-6.228c-0.005-1.282,0.19-1.636,0.203-2.794
		c0.012-1.013-0.075-2.218,0.003-3.205c0.136-1.727,0.325-3.795,0.37-5.626l0.435-5.757c0.439-3.507,0.672-7.426,1.226-10.942
		C3.124,51.399,3.935,46.999,4.822,42.623z M0.358,122.639l0.099,0.74l-0.096-0.189L0.358,122.639z M0.365,123.863l0.167,1.053
		l-0.161-0.015L0.365,123.863z M186.66,120.672c0.017-1.763,0.039-3.511,0.061-5.257c-0.195,1.873-0.414,3.746-0.654,5.616
		c0.068-0.133,0.135-0.277,0.205-0.423c-0.295,2.108-0.617,4.203-0.949,6.298c0.136-0.014,0.279-0.027,0.414-0.041
		C186.064,124.805,186.371,122.742,186.66,120.672z M186.747,113.191l0.017-1.449c-0.029,0.426-0.061,0.852-0.092,1.275
		L186.747,113.191z M186.811,102.823l-0.002-0.603L187,93.456l-0.195-3.058c-0.059-2.025,0.002-4.188,0.01-6.228
		c0.004-1.282-0.189-1.636-0.203-2.794c-0.012-1.013,0.076-2.218-0.002-3.205c-0.137-1.727-0.325-3.795-0.371-5.626l-0.436-5.757
		c-0.439-3.507-0.671-7.426-1.225-10.942c-1.483-9.407-3.456-18.593-5.6-27.809c-0.313-1.054-0.627-2.107-0.945-3.161
		c-0.113-0.169-0.227-0.338-0.334-0.506c-0.814-2.566-1.68-5.135-2.579-7.718c-0.126,0.014-0.257,0.028-0.382,0.043
		c0.763,2.17,1.494,4.338,2.197,6.505c-0.088-0.133-0.181-0.266-0.272-0.41c0.81,2.576,1.571,5.15,2.307,7.721
		c-0.046,0.193-0.088,0.386-0.124,0.578c0.885,3.353,1.703,6.702,2.471,10.047c-0.215,0.318-0.437,0.636-0.656,0.943
		c-0.688-3.051-1.422-6.106-2.2-9.164c-0.028,0.136-0.06,0.261-0.087,0.386c-0.949-3.473-1.967-6.95-3.049-10.444
		c-0.096-0.144-0.192-0.289-0.284-0.434c-0.356-1.106-0.737-2.215-1.103-3.322c-0.131,0.014-0.261,0.028-0.381,0.042
		c0.236,0.707,0.473,1.415,0.711,2.11c-0.113-0.157-0.224-0.315-0.332-0.483c1.493,4.684,2.849,9.358,4.084,14.013
		c-0.023,0.137-0.056,0.261-0.082,0.386c0.603,2.481,1.183,4.961,1.722,7.427c-0.265,0.016-0.529,0.032-0.789,0.049
		c-0.843-3.742-1.749-7.487-2.729-11.238c-0.035,0.159-0.068,0.317-0.103,0.476c-1.019-3.661-2.117-7.328-3.288-11.001
		c0.004,0.15,0.012,0.3,0.011,0.438c-0.229-0.672-0.454-1.343-0.68-2.026c-0.126,0.014-0.257,0.028-0.386,0.03
		c0.363,1.084,0.727,2.168,1.063,3.239c0.001,0.184,0.002,0.369,0.004,0.541c1.049,3.434,2.029,6.851,2.946,10.263
		c-0.079,0.34-0.153,0.669-0.228,0.997c0.584,2.366,1.144,4.729,1.672,7.091c-0.146-0.104-0.295-0.205-0.445-0.307
		c-0.445-1.965-0.917-3.931-1.398-5.898c-0.008-0.024-0.016-0.047-0.018-0.082c-0.273-1.043-0.543-2.086-0.82-3.141
		c-0.072-0.086-0.136-0.171-0.203-0.256c-0.783-2.828-1.615-5.659-2.484-8.493c-0.006,0.171-0.004,0.344-0.004,0.517
		c-0.691-2.189-1.426-4.38-2.176-6.585c-0.127,0.015-0.257,0.028-0.382,0.031c0.886,2.605,1.742,5.208,2.556,7.797
		c-0.002,0.161-0.008,0.31-0.01,0.459c0.481,1.645,0.957,3.289,1.416,4.932c-0.129-0.147-0.252-0.293-0.371-0.451
		c0.682,2.487,1.315,4.971,1.924,7.453c0.22,0.947,0.445,1.884,0.656,2.819c-0.396-0.269-0.797-0.55-1.193-0.831
		c-0.909-3.781-1.891-7.578-2.951-11.38c-0.148-0.172-0.294-0.343-0.443-0.526c-1.17-3.879-2.436-7.777-3.785-11.68
		c-0.125,0.014-0.25,0.029-0.381,0.043c1.266,3.644,2.448,7.271,3.553,10.892c-0.213-0.256-0.431-0.513-0.644-0.77
		c1.194,4.18,2.299,8.354,3.315,12.51c-0.149-0.102-0.299-0.205-0.449-0.307c-0.098,0.143-0.195,0.285-0.292,0.417
		c-1.021-4.18-2.123-8.365-3.322-12.557c-0.05,0.261-0.096,0.511-0.142,0.761c-1.118-3.68-2.32-7.366-3.602-11.057
		c-0.125,0.014-0.251,0.029-0.381,0.031c1.368,3.962,2.641,7.906,3.829,11.844c-0.044,0.227-0.091,0.454-0.135,0.681
		c1.048,3.836,2.014,7.666,2.907,11.481c-0.199,0.273-0.395,0.547-0.598,0.809c-0.814-3.543-1.697-7.103-2.645-10.668
		c-0.014,0.068-0.028,0.136-0.043,0.204c-0.383-1.384-0.789-2.771-1.196-4.157c-0.108-0.168-0.217-0.337-0.325-0.506
		c-0.791-2.564-1.613-5.13-2.486-7.711c-0.127,0.015-0.252,0.029-0.381,0.031c0.729,2.18,1.438,4.347,2.123,6.512
		c-0.089-0.133-0.181-0.266-0.272-0.41c0.776,2.574,1.521,5.146,2.228,7.716c-0.046,0.192-0.087,0.385-0.132,0.577
		c0.815,3.199,1.565,6.393,2.277,9.584c-0.226,0.307-0.449,0.613-0.669,0.92c-0.641-2.887-1.312-5.776-2.031-8.68
		c-0.023,0.136-0.051,0.261-0.083,0.385c-0.912-3.47-1.884-6.944-2.925-10.434c-0.096-0.145-0.192-0.29-0.287-0.446
		c-0.35-1.095-0.701-2.201-1.063-3.308c-0.125,0.014-0.252,0.028-0.373,0.043c0.232,0.707,0.451,1.412,0.676,2.107
		c-0.109-0.157-0.217-0.326-0.321-0.494c1.428,4.68,2.741,9.351,3.94,14.015c-0.033,0.136-0.064,0.26-0.092,0.385
		c1.084,4.771,2.064,9.523,2.934,14.267c0.005,0,0.01,0,0.015,0.001c1.25,7.694,2.271,15.36,3.076,23.011c-0.004,0-0.004,0-0.004,0
		c0.528,7.643,0.831,15.271,0.896,22.881c-0.005,0-0.009,0-0.014,0c-0.068,4.689-0.257,9.371-0.542,14.035
		c0.058,0.119,0.114,0.227,0.166,0.334c-0.419,4.551-0.972,9.092-1.64,13.625c0.086-0.166,0.166-0.334,0.252-0.5
		c-0.107,0.683-0.219,1.365-0.326,2.037c0.13-0.014,0.273-0.026,0.408-0.041c0.172-1.058,0.344-2.127,0.52-3.196
		c0.07-0.146,0.146-0.302,0.227-0.456c0.461-3.374,0.858-6.753,1.188-10.148c0.056,0.12,0.108,0.227,0.161,0.334
		c0.225-2.826,0.414-5.656,0.561-8.499c0.279,0.249,0.566,0.499,0.854,0.738c-0.167,3.13-0.386,6.256-0.655,9.379
		c0.076,0.179,0.156,0.345,0.237,0.511c-0.276,2.502-0.58,5-0.921,7.498c0.064-0.135,0.135-0.279,0.201-0.425
		c-0.323,2.107-0.654,4.201-1.035,6.292c0.143-0.013,0.283-0.025,0.423-0.04c0.44-2.478,0.836-4.959,1.19-7.454
		c0.08-0.166,0.162-0.345,0.244-0.523c0.182-1.346,0.34-2.692,0.495-4.051c0.022,0.07,0.056,0.131,0.084,0.19
		c0.339-3.464,0.613-6.942,0.825-10.426c0.242,0.224,0.496,0.437,0.744,0.649c-0.234,3.748-0.54,7.478-0.926,11.201
		c0.088,0.202,0.18,0.404,0.277,0.607c-0.513,3.818-1.102,7.633-1.793,11.439c0.135-0.002,0.273-0.016,0.413-0.028
		c0.65-3.558,1.214-7.119,1.698-10.688c0.1,0.226,0.189,0.45,0.286,0.664c0.479-4.073,0.856-8.155,1.132-12.245
		c0.126,0.112,0.257,0.225,0.389,0.338c0.127-0.117,0.266-0.246,0.399-0.375c-0.271,4.077-0.644,8.148-1.116,12.213
		c0.176-0.276,0.357-0.552,0.534-0.838c-0.472,3.522-1.022,7.041-1.651,10.541c0.141-0.014,0.279-0.026,0.42-0.041
		c0.664-3.75,1.24-7.519,1.73-11.293c0.115-0.188,0.229-0.377,0.354-0.563c0.387-3.702,0.697-7.408,0.934-11.121
		c0.355-0.32,0.715-0.652,1.08-0.983c-0.051,0.917-0.1,1.835-0.146,2.753c-0.164,2.428-0.357,4.854-0.587,7.277
		c0.095-0.154,0.193-0.32,0.298-0.486c-0.168,1.601-0.349,3.198-0.533,4.797c0.031,0.14,0.063,0.28,0.09,0.42
		c-0.342,2.52-0.733,5.023-1.158,7.525c0.139-0.002,0.273-0.015,0.423-0.027c0.354-2.115,0.692-4.232,0.994-6.363
		c0.034,0.163,0.069,0.314,0.104,0.467c0.368-2.747,0.68-5.499,0.951-8.253c0.053-0.089,0.1-0.177,0.158-0.276
		c0.094-1.018,0.17-2.037,0.251-3.066c0.002-0.023-0.001-0.047,0.006-0.08c0.13-1.926,0.236-3.85,0.325-5.789
		c0.133-0.117,0.268-0.246,0.404-0.374c-0.106,2.327-0.227,4.644-0.389,6.958c0.146,0.297,0.287,0.595,0.434,0.882
		c-0.292,3.328-0.649,6.651-1.075,9.97c0.034,0.176,0.069,0.34,0.112,0.504c-0.147,1.049-0.312,2.084-0.471,3.119
		c0.133-0.002,0.272-0.015,0.412-0.029c0.1-0.648,0.201-1.297,0.313-1.957c0.019,0.129,0.051,0.258,0.078,0.386
		c0.492-3.544,0.918-7.104,1.264-10.671c0.068,0.143,0.132,0.285,0.202,0.417c0.282-3.663,0.498-7.33,0.647-11.003
		c0.271-0.027,0.545-0.065,0.82-0.104c-0.082,2.434-0.201,4.865-0.338,7.284c0.057,0.119,0.109,0.226,0.171,0.334
		c-0.378,4.554-0.867,9.099-1.483,13.636c0.086-0.166,0.166-0.334,0.242-0.5c-0.103,0.683-0.211,1.365-0.316,2.037
		c0.139-0.013,0.279-0.027,0.412-0.039c0.168-1.06,0.334-2.13,0.482-3.201c0.071-0.145,0.143-0.301,0.217-0.457
		c0.43-3.375,0.786-6.756,1.088-10.153c0.053,0.118,0.104,0.237,0.166,0.345c0.209-2.989,0.366-5.98,0.479-8.988L186.811,102.823z"
		/>
	<path id="calcao_contorno" fill="none" d="M69.623,5.789c-9.32-0.113-15.317-0.1-21.532-0.475
		C41.875,4.938,35.441,4.177,30.089,3.27c-5.351-0.908-9.62-1.96-13.89-3.013l-2.056,6.766c-2.101,6.05-3.233,10.386-4.916,16.285
		c-0.249,0.873-0.435,1.453-0.642,2.333c-2.36,10.025-4.55,19.989-6.162,30.214c-0.554,3.516-0.787,7.435-1.226,10.942l-0.435,5.757
		c-0.045,1.83-0.234,3.899-0.37,5.626c-0.078,0.987,0.009,2.192-0.003,3.205c-0.013,1.158-0.208,1.512-0.203,2.795
		c0.009,2.037,0.069,4.201,0.011,6.226C0.169,91.418,0.016,91.98,0,93.128l0.192,9.099c-0.03,8.304,0.172,15.986,0.183,24.268
		c0.002,1.268,0.207,1.666,0.202,2.996c-0.004,0.925-0.065,2.104,0.005,3.001c0.131,1.646,0.218,4.048,0.519,5.47
		c1.056,4.984,5.703,6.849,10.073,7.858c3.312,0.767,6.714,1.11,10.138,1.576c4.01,0.545,19.376,0.399,23.493-0.086
		c6.45-0.761,15.507-0.276,22.162-1.972c7.272-1.853,6.398-2.821,7.435-7.425c0.87-3.868,2.219-13.998,3.169-16.919
		c0.807-2.484,1.721-7.868,2.195-10.523c0.344-1.99,1.133-3.679,1.718-5.612c1.344-4.441,1.694-7.626,2.92-12.169
		c0.377-1.398,0.722-2.381,1.102-3.854c0.997-3.864,2.19-8.249,2.968-12.117c0.575-2.856,1.095-5.36,1.653-8.289l2.191-12.734
		c0.189-0.998,0.23-2.248,1.182-2.596c0.953,0.348,0.994,1.598,1.182,2.596l2.19,12.734c0.559,2.929,1.078,5.433,1.652,8.289
		c0.779,3.868,1.973,8.253,2.969,12.117c0.379,1.474,0.725,2.456,1.103,3.854c1.226,4.543,1.575,7.728,2.919,12.169
		c0.585,1.934,1.375,3.622,1.719,5.612c0.473,2.653,1.389,8.041,2.195,10.523c0.949,2.921,2.299,13.051,3.169,16.919
		c1.037,4.604,0.163,5.572,7.435,7.425c6.655,1.695,15.711,1.211,22.162,1.972c4.117,0.485,19.483,0.631,23.492,0.086
		c3.426-0.466,6.828-0.81,10.139-1.576c4.371-1.01,9.018-2.874,10.074-7.858c0.301-1.422,0.388-3.824,0.519-5.47
		c0.069-0.897,0.009-2.076,0.005-3.001c-0.005-1.33,0.2-1.729,0.202-2.996c0.011-8.281,0.213-15.964,0.183-24.268L187,93.463
		l-0.195-3.058c-0.059-2.024,0.002-4.188,0.01-6.226c0.004-1.283-0.189-1.637-0.203-2.795c-0.012-1.013,0.076-2.218-0.002-3.205
		c-0.137-1.727-0.325-3.796-0.371-5.626l-0.436-5.757c-0.439-3.507-0.671-7.426-1.225-10.942
		c-1.612-10.225-3.803-20.189-6.162-30.214c-0.207-0.88-0.395-1.46-0.643-2.333c-1.683-5.899-2.814-10.235-4.916-16.285
		l-2.057-6.766c-2.951,0.866-5.902,1.731-9.677,2.477c-3.774,0.745-8.371,1.369-13.806,1.869s-11.707,0.875-19.027,1.15
		c-7.32,0.274-15.691,0.449-26.198,0.418C91.585,6.14,78.942,5.901,69.623,5.789z"/>
</g>
</svg>
