<?xml version="1.0" encoding="UTF-8"?>
<!DOCTYPE svg PUBLIC "-//W3C//DTD SVG 1.1//EN" "http://www.w3.org/Graphics/SVG/1.1/DTD/svg11.dtd">
<!-- Creator: CorelDRAW 2018 (64 Bit Versão de avaliação) -->
<svg xmlns="http://www.w3.org/2000/svg" xml:space="preserve" width="181px" height="149px" version="1.1" shape-rendering="geometricPrecision" text-rendering="geometricPrecision" image-rendering="optimizeQuality" fill-rule="evenodd" clip-rule="evenodd"
viewBox="0 0 195683 161298"
 xmlns:xlink="http://www.w3.org/1999/xlink">
 <g id="Camada_x0020_1">
  <metadata id="CorelCorpID_0Corel-Layer"/>
  <path id="d3" fill="#F00808" d="M178234 74275c315,3448 585,6896 788,10342 -57,73 -130,159 -193,232 -207,-3578 -487,-7157 -817,-10737 72,74 150,119 222,163zm15186 1262c-462,-4590 -1055,-9105 -1760,-13446 -453,-2794 -952,-5516 -1474,-8171 -196,-148 -395,-285 -590,-421 232,1330 458,2632 685,3948 -52,72 -108,159 -165,217 341,2135 681,4269 982,6374 -88,-59 -189,-118 -294,-192 223,1608 452,3230 641,4823 242,1959 450,3917 647,5889 100,74 188,148 277,208 147,1446 260,2893 378,4324 62,-58 125,-145 187,-217 160,2264 292,4528 408,6792 -67,-59 -139,-104 -206,-163 46,1460 103,2906 137,4351 74,-87 136,-159 193,-246 187,-217 374,-419 556,-651 62,-72 125,-159 198,-231 -30,-818 -60,-1621 -90,-2453 -67,-45 -139,-89 -211,-163 -123,-2629 -278,-5258 -473,-7902 56,-57 119,-144 181,-216 -64,-819 -133,-1637 -208,-2455l1 1zm-193119 9503c45,795 94,1588 150,2377 277,3969 689,7824 961,11289 42,541 81,1072 117,1597 -27,-1855 -46,-3711 -59,-5567 85,-76 170,-152 255,-243 -5,-745 -10,-1489 -16,-2249 5,-2862 20,-5739 42,-8617 -88,91 -173,182 -258,258 5,-920 21,-1841 32,-2761 -67,-71 -133,-141 -197,-211 34,-2557 87,-5129 144,-7702 -189,183 -379,365 -564,548 -48,2207 -95,4399 -126,6590 -70,-55 -134,-126 -201,-196 -24,1563 -43,3112 -54,4660 -76,79 -150,157 -226,227zm13228 8795c29,3489 71,6977 141,10450 67,70 137,141 207,211 -74,-3619 -119,-7239 -146,-10859 -68,76 -137,137 -202,198zm-650 -1056c-2,-3052 2,-6104 30,-9172 -88,91 -173,182 -257,258 5,-730 11,-1460 23,-2206 -67,-70 -134,-141 -198,-211 40,-2747 90,-5494 150,-8256 -193,182 -382,365 -568,547 -50,2382 -94,4764 -132,7146 -67,-70 -130,-141 -197,-211 -22,1373 -37,2746 -45,4119 -88,91 -176,182 -261,259 -15,2074 -20,4148 -21,6221 2,1548 14,3095 22,4628 82,-76 167,-152 255,-243 21,2248 50,4496 89,6743 71,71 138,141 208,197 24,1240 51,2480 81,3706 -65,75 -133,136 -202,197 69,2247 142,4493 225,6738 67,71 137,141 211,211 187,198 384,380 573,562 71,71 141,141 212,211 -104,-2873 -198,-5761 -282,-8648 -65,75 -130,136 -192,197 -23,-861 -39,-1722 -56,-2597 67,70 138,140 204,196 -53,-2875 -93,-5764 -116,-8655 82,-76 170,-153 255,-244 -5,-554 -10,-1124 -11,-1693zm-10268 -10529c-67,-70 -134,-140 -197,-211 -5,322 -9,643 -14,964 -85,91 -173,168 -261,244 -25,3141 -37,6266 -39,9391 6,497 8,993 9,1475 85,-77 170,-153 255,-244 25,3300 64,6599 126,9896 71,71 135,141 208,197 0,190 7,379 7,554 -64,76 -130,137 -198,198 86,3297 185,6593 308,9889 71,70 138,141 208,211 99,98 194,197 292,281 88,-91 175,-182 267,-273 65,-61 131,-122 196,-198 -124,-3295 -223,-6592 -309,-9889 -70,-55 -141,-126 -204,-196 -4,-175 -7,-365 -11,-555 68,-61 130,-122 199,-197 -63,-3298 -102,-6597 -127,-9896 88,84 169,169 257,253 -5,-482 -6,-964 -6,-1460 -1,-3125 11,-6251 36,-9391 -81,-85 -169,-169 -254,-268 4,-321 9,-643 13,-964 -71,76 -136,136 -205,198 -3,189 -6,379 -6,555 -95,-85 -183,-183 -275,-282 95,-91 186,-182 281,-273 47,-3434 118,-6869 200,-10303 -92,-85 -183,-183 -272,-282 -98,91 -189,182 -285,259 -83,3450 -151,6884 -199,10317zm2591 2676c15,-1549 33,-3112 57,-4675 -68,75 -137,136 -202,197 28,-2192 75,-4384 122,-6591 -183,-182 -363,-380 -546,-578 -57,2573 -107,5145 -144,7717 -65,75 -133,136 -202,197 -19,921 -28,1841 -37,2747 -84,-85 -169,-169 -253,-253 -25,2877 -33,5755 -38,8617 5,745 6,1489 15,2234 85,99 169,183 261,267 19,2701 51,5401 97,8101 69,-61 135,-122 199,-197 21,1050 44,2101 64,3152 -70,-56 -137,-127 -204,-197 73,2699 157,5397 256,8080 66,-61 131,-122 193,-183 179,-182 359,-364 541,-546 65,-61 131,-122 192,-197 -76,-2057 -138,-4113 -197,-6184 -71,-71 -141,-141 -208,-212 -37,-1415 -61,-2830 -89,-4260 65,-61 134,-122 195,-197 -31,-2058 -56,-4116 -75,-6189 85,99 170,183 257,267 -12,-1723 -20,-3445 -23,-5183 2,-1884 8,-3768 26,-5667 -88,-84 -169,-169 -257,-267zm1846 1900c22,-2790 53,-5580 95,-8386 -65,76 -134,137 -203,198 15,-950 35,-1915 55,-2879 -182,-183 -363,-380 -543,-578 -30,1330 -57,2660 -77,3990 -68,76 -137,136 -205,197 -32,2163 -58,4325 -73,6472 -88,-84 -169,-168 -257,-252 -8,1635 -13,3271 -19,4892 -1,1986 11,3972 23,5957 88,99 173,184 261,267 19,1475 35,2935 53,4394 69,-61 134,-122 199,-197 44,2291 89,4582 156,6857 -71,-70 -138,-141 -208,-211 43,1473 85,2932 138,4390 65,-61 131,-122 192,-197 183,-167 362,-350 541,-532 66,-61 131,-122 196,-197 -31,-817 -57,-1648 -78,-2480 -71,-70 -138,-141 -208,-211 -75,-2655 -130,-5310 -174,-7966 65,-61 131,-122 195,-198 -11,-817 -22,-1649 -28,-2481 85,99 173,183 261,267 -32,-2963 -48,-5927 -44,-8891 -1,-657 4,-1315 6,-1972 -88,-84 -172,-168 -254,-253zm1857 659c19,-3199 58,-6413 107,-9628 -66,-55 -133,-126 -197,-197 6,-277 16,-555 18,-847 -143,137 -284,274 -424,411 -49,45 -98,91 -144,136 -68,76 -137,137 -205,198 -52,3404 -95,6794 -117,10183 -88,-85 -169,-169 -257,-253 -1,394 -3,788 -1,1183 -5,3227 14,6454 46,9665 85,99 173,183 261,268 -1,233 0,452 5,671 66,-61 134,-122 199,-197 55,3531 133,7062 234,10578 -71,-70 -141,-141 -208,-211 6,233 12,467 20,685 65,-61 130,-122 195,-197 43,-46 88,-91 134,-137 144,141 288,281 432,422 71,70 141,141 208,211 -16,-408 -25,-817 -37,-1240 -65,76 -131,136 -196,198 -94,-3326 -165,-6668 -219,-10010 68,71 134,141 201,197 -6,-409 -8,-818 -17,-1226 89,-76 173,-167 258,-258 -29,-3037 -48,-6073 -42,-9111 -2,-569 3,-1153 1,-1738 -85,91 -174,168 -255,244zm-913 11119c67,70 130,141 200,196 46,57 95,99 141,141 -116,-112 -229,-225 -341,-337zm152 -10652c46,57 92,99 138,141 -46,45 -95,91 -140,137 3,-88 3,-176 2,-278zm2634 -2277c12,-1972 35,-3944 64,-5917 -67,-70 -134,-141 -198,-211 20,-1505 53,-3025 86,-4545 -189,182 -382,365 -568,548 -23,1154 -50,2294 -64,3434 -70,-70 -134,-141 -201,-211 -38,2615 -67,5230 -88,7830 -85,91 -173,182 -258,258 -5,847 -6,1680 -5,2512 -5,2790 14,5563 36,8337 82,-76 167,-152 255,-243 12,1021 27,2029 35,3036 71,70 138,140 207,196 48,2481 96,4962 167,7427 -61,75 -130,136 -195,197 28,1006 60,2013 95,3019 71,71 138,141 212,211 193,197 386,379 580,562 67,70 137,141 204,211 -60,-1648 -113,-3296 -159,-4944 -62,75 -130,136 -196,197 -60,-2100 -100,-4202 -141,-6303 67,71 131,141 204,197 -26,-1649 -49,-3299 -65,-4948 82,-76 167,-153 255,-244 -15,-1795 -23,-3591 -25,-5402 2,-1811 3,-3636 17,-5462 -84,91 -172,182 -254,258zm167995 -12547c-342,-3010 -707,-6021 -1127,-9047 94,89 194,163 283,222 -104,-716 -202,-1448 -312,-2178 51,-73 108,-160 165,-232 -435,-2705 -881,-5410 -1366,-8130 217,148 433,297 644,445 417,2354 811,4694 1188,7033 57,-72 103,-159 165,-231 215,1345 407,2704 594,4049 100,89 200,163 294,222 280,2047 526,4093 778,6139 163,1520 314,3054 465,4574 -89,-74 -183,-134 -277,-208 188,2221 365,4441 508,6661 -62,87 -130,174 -192,231 76,1228 146,2454 189,3666 72,74 144,119 222,163 71,2234 119,4453 140,6687 -63,72 -125,159 -199,246 -182,217 -368,433 -550,636 -68,87 -136,159 -204,246 -31,-2847 -94,-5708 -192,-8570 72,59 139,104 205,163 -29,-862 -87,-1709 -139,-2571 -57,73 -119,159 -187,217 -176,-2833 -397,-5696 -657,-8560 -83,-59 -183,-119 -277,-193 -50,-555 -106,-1110 -161,-1680zm10428 -14175c67,-72 113,-145 176,-232 246,1550 481,3071 699,4591 106,89 195,163 295,222 265,1872 519,3728 733,5584 217,1724 394,3420 566,5115 -89,-60 -184,-119 -284,-193 202,2045 376,4076 527,6121 -57,72 -120,159 -187,217 90,1417 176,2834 255,4236 67,59 139,103 212,148 78,2059 145,4088 184,6132 -68,87 -130,159 -198,246 -182,217 -369,434 -556,636 -57,87 -130,174 -204,246 -32,-2672 -121,-5343 -243,-8016 78,60 145,104 211,163 -55,-1051 -117,-2088 -178,-3125 -63,87 -120,159 -193,231 -189,-2673 -411,-5346 -674,-8020 -94,-60 -189,-119 -277,-193 -82,-731 -152,-1476 -239,-2221 -344,-2821 -716,-5657 -1110,-8493 94,75 188,148 288,208 -135,-906 -288,-1813 -429,-2719 57,-87 114,-160 171,-247 -415,-2515 -852,-5044 -1317,-7575 217,148 434,297 650,445 385,2179 770,4329 1122,6493zm-1541 2172c57,-87 114,-173 171,-246 46,322 99,629 146,951 94,73 194,133 294,193 442,3099 845,6183 1214,9267 51,496 101,979 152,1461 -89,-60 -183,-134 -277,-207 322,3258 594,6530 805,9787 -63,87 -119,159 -188,232 9,190 24,365 39,540 67,74 139,119 217,163 149,3271 253,6542 290,9812 -63,72 -125,159 -199,231 -90,116 -182,232 -272,333 -100,-74 -188,-163 -289,-237 -66,-44 -139,-89 -199,-163 -37,-3269 -147,-6526 -302,-9797 68,-72 137,-144 193,-231 -9,-175 -18,-351 -33,-540 -72,-60 -139,-104 -211,-163 -216,-3272 -483,-6530 -811,-9788 -79,101 -147,188 -227,289 -45,-482 -96,-950 -152,-1447 -363,-3083 -766,-6167 -1197,-9252 63,-101 136,-203 210,-304 -47,-322 -105,-643 -152,-950 84,59 150,103 234,163 26,175 57,365 83,541 85,-102 154,-217 228,-319 -106,-74 -206,-148 -311,-222 -540,-3392 -1135,-6771 -1759,-10149 74,-101 148,-203 222,-319 106,75 211,149 322,208 630,3393 1225,6772 1759,10163zm-2200 3041c-224,-1520 -453,-3069 -705,-4605 77,59 155,119 227,163 -340,-2164 -719,-4313 -1104,-6492 148,-203 296,-420 444,-653 459,2531 902,5061 1305,7605 72,59 144,104 228,163 146,892 287,1813 418,2704 73,-101 142,-202 216,-289 400,2836 766,5671 1110,8492 81,731 157,1476 222,2207 -74,116 -148,202 -227,304 262,2673 479,5347 662,8005 -66,-44 -139,-89 -211,-163 56,1052 112,2089 179,3126 73,-72 136,-145 193,-232 105,2673 199,5359 225,8016 -72,-45 -133,-104 -199,-148 -195,-148 -383,-311 -572,-459 -67,-44 -139,-104 -206,-163 -22,-2043 -95,-4073 -162,-6132 68,-72 131,-159 193,-246 -74,-1402 -159,-2789 -245,-4206 -66,-59 -144,-104 -210,-163 -152,-2045 -320,-4075 -505,-6121 -74,116 -153,203 -232,304 -166,-1709 -338,-3405 -543,-5114 -226,-1871 -452,-3727 -722,-5599 73,-86 141,-187 221,-304zm-1591 2173c-390,-2749 -796,-5497 -1231,-8261 72,60 144,104 222,163 -152,-935 -321,-1886 -489,-2837 153,-217 307,-434 449,-652 232,1302 464,2618 680,3919 77,60 149,119 233,164 335,2134 659,4254 949,6374 84,-87 153,-188 232,-290 218,1623 418,3231 619,4824 236,1973 433,3931 635,5889 -79,116 -158,202 -238,304 118,1461 242,2907 356,4339 -78,-45 -151,-90 -217,-163 137,2278 275,4542 362,6791 68,-73 131,-160 193,-232 51,1461 103,2906 126,4351 -72,-59 -144,-104 -211,-163 -189,-148 -378,-296 -566,-444 -73,-45 -133,-103 -205,-163 -14,-817 -38,-1635 -74,-2452 68,-87 136,-174 198,-246 -100,-2629 -250,-5258 -428,-7887 -78,-44 -145,-104 -211,-163 -70,-818 -134,-1636 -203,-2454 -80,116 -159,203 -233,304 -264,-2922 -568,-5859 -916,-8782 -83,-643 -160,-1301 -248,-1944 74,-101 153,-188 216,-289zm-1752 943c-430,-3157 -916,-6315 -1424,-9488 68,-72 120,-144 171,-231 -48,-264 -101,-541 -148,-834 167,119 322,237 483,341 56,45 112,74 167,119 72,59 156,103 228,163 545,3348 1046,6681 1502,10029 85,-101 148,-188 227,-290 52,395 104,775 150,1170 379,3186 697,6371 987,9542 -80,115 -159,202 -233,303 20,234 40,453 54,672 -72,-59 -145,-103 -217,-163 248,3492 445,6982 563,10472 68,-87 130,-159 193,-246 9,233 23,467 26,686 -66,-59 -139,-104 -211,-177 -39,-30 -94,-75 -138,-104 -142,159 -272,318 -409,477 -68,87 -136,159 -193,246 -17,-409 -30,-818 -42,-1226 66,59 138,103 210,162 -120,-3300 -302,-6600 -534,-9916 -63,87 -120,159 -182,232 -29,-409 -70,-804 -99,-1213 -100,-59 -183,-133 -277,-207 -270,-3010 -578,-6005 -932,-9001 -66,-571 -138,-1140 -205,-1725 94,89 189,148 283,207zm2110 10824c-63,87 -119,160 -182,232 -45,58 -91,116 -130,159 107,-130 210,-260 312,-391zm-1302 -10479c-40,58 -79,102 -125,159 56,30 112,74 156,104 -11,-73 -20,-160 -31,-263zm-2902 -1842c-269,-1944 -550,-3888 -865,-5818 51,-87 119,-159 165,-246 -236,-1477 -488,-2983 -757,-4475 211,148 433,297 644,459 201,1126 401,2253 579,3378 57,-87 108,-159 165,-246 409,2573 789,5161 1147,7719 100,74 194,148 294,208 103,833 206,1666 303,2484 329,2748 606,5495 851,8227 -84,-59 -178,-119 -272,-193 84,1008 157,2002 241,2995 -63,87 -119,159 -193,232 152,2453 299,4907 384,7345 67,74 139,119 211,163 28,1007 57,2001 74,2993 -68,87 -136,174 -204,246 -182,232 -375,434 -556,651 -63,72 -131,159 -199,231 -16,-1635 -54,-3255 -114,-4891 72,60 139,104 211,163 -72,-2088 -195,-4162 -323,-6250 -57,86 -114,159 -188,231 -116,-1636 -244,-3257 -377,-4893 -95,-60 -183,-120 -278,-193 -171,-1783 -353,-3551 -552,-5334 -210,-1797 -430,-3595 -674,-5393 94,74 195,148 283,207z"/>
  <path id="calcao_contorno" fill="none" d="M86877 155540c57,-276 111,-684 198,-2144 87,-1461 207,-3975 494,-8922 288,-4947 745,-12326 1108,-17715 364,-5390 636,-8789 989,-12546 352,-3758 787,-7874 1330,-12163 543,-4290 1195,-8753 2031,-13825 836,-5071 1857,-10751 2633,-14471 777,-3719 1309,-5479 1650,-6590 342,-1112 492,-1576 610,-1830 117,-254 201,-298 281,-290 81,7 157,66 254,174 98,108 218,265 372,597 155,332 345,838 651,1525 306,687 729,1555 1092,2405 363,850 667,1684 796,2326 129,642 83,1093 121,1599 38,506 160,1068 480,1542 321,474 839,860 1138,1371 299,512 377,1150 573,2055 195,906 507,2079 615,2964 107,885 9,1482 -93,2046 -101,563 -207,1093 -96,1623 111,531 440,1063 824,1557 384,495 824,951 1094,1251 270,300 371,443 467,579 96,136 189,264 334,838 145,574 343,1595 418,2303 75,709 26,1106 -3,1500 -28,396 -36,789 -69,1290 -32,501 -89,1109 -81,1667 8,558 81,1066 438,1819 357,754 998,1753 1605,2560 607,808 1179,1425 1564,1812 385,388 582,546 759,828 177,282 335,686 465,1203 130,518 234,1148 289,1878 56,730 64,1561 52,2483 -12,922 -45,1934 143,2856 187,922 594,1752 1048,2454 453,702 952,1275 1323,1739 371,465 613,820 815,1171 203,350 365,695 528,1099 163,405 326,869 450,1408 123,539 207,1153 323,1709 115,557 262,1056 357,1618 95,562 138,1187 304,2099 166,912 453,2112 646,3116 193,1005 291,1814 396,2531 106,717 220,1341 310,2175 89,833 155,1876 280,2641 124,766 309,1255 442,1990 133,736 214,1719 285,2297 71,579 130,752 274,907 144,155 372,290 679,442 307,153 692,321 1086,576 394,255 796,597 1257,990 462,392 983,834 1546,1188 564,352 1169,616 1745,818 575,202 1121,343 1722,497 602,153 1259,319 2147,474 887,154 2006,298 2867,397 860,100 1463,154 2700,174 1236,21 3107,7 4534,-32 1426,-40 2409,-105 3661,-214 1252,-108 2772,-260 4550,-449 1779,-188 3815,-414 5523,-572 1707,-159 3087,-252 4504,-330 1417,-79 2872,-144 4136,-180 1264,-35 2336,-40 4548,-77 2211,-37 5561,-105 7790,-171 2229,-67 3337,-132 4993,-333 1657,-201 3861,-537 5223,-773 1362,-237 1881,-373 2235,-519 354,-146 543,-303 694,-404 152,-102 266,-148 573,-258 306,-110 806,-284 1386,-483 579,-200 1239,-425 1759,-648 520,-222 900,-442 1145,-582 246,-140 358,-200 538,-211 181,-10 430,28 638,-23 208,-50 374,-188 595,-396 221,-208 498,-485 609,-911 111,-426 57,-1002 63,-2454 5,-1453 70,-3782 49,-6375 -22,-2593 -131,-5449 -185,-7192 -54,-1743 -54,-2373 -54,-3263 0,-891 0,-2042 -27,-3120 -28,-1078 -82,-2082 -106,-3122 -25,-1040 -19,-2115 -87,-3817 -68,-1703 -209,-4032 -285,-5916 -76,-1884 -87,-3324 -220,-7152 -133,-3828 -388,-10045 -885,-16183 -497,-6139 -1236,-12199 -2170,-17954 -933,-5756 -2063,-11208 -3181,-16388 -1119,-5180 -2227,-10089 -3682,-15106 -1455,-5017 -3258,-10143 -4995,-14759 -1738,-4615 -3410,-8720 -4398,-11100 -989,-2379 -1293,-3034 -1423,-3457 -130,-424 -87,-617 9,-765 97,-147 246,-251 367,-332 13,-9 27,-18 39,-28 -39,-2 -84,-4 -137,-7 -99,-6 -231,-13 -660,-46 -428,-34 -1152,-94 -2111,-102 -959,-8 -2154,36 -3406,126 -1253,90 -2563,228 -4608,579 -2046,351 -4826,916 -7121,1427 -2295,510 -4105,966 -6479,1437 -2375,470 -5315,955 -8265,1350 -2950,394 -5912,698 -9495,1024 -3584,326 -7790,674 -11305,920 -3515,246 -6339,391 -8920,532 -2581,141 -4920,278 -7577,384 -2657,105 -5632,177 -8586,238 -2954,62 -5886,113 -8681,106 -2794,-8 -5451,-73 -7942,-131 -2491,-58 -4815,-108 -7331,-184 -2515,-77 -5223,-178 -8546,-272 -3323,-94 -7262,-181 -11436,-206 -4174,-26 -8583,11 -12232,7 -3649,-4 -6538,-47 -10357,-196 -3819,-148 -8568,-401 -11984,-657 -3415,-255 -5497,-512 -7010,-814 -1514,-303 -2460,-651 -3406,-999 42,61 20,179 -26,595 -59,524 -156,1520 -428,3353 -271,1833 -717,4502 -1007,6455 -291,1954 -426,3192 -752,5230 -326,2040 -842,4880 -1257,7383 -415,2503 -731,4669 -980,6496 -250,1828 -435,3315 -606,5042 -171,1727 -328,3692 -499,6071 -171,2378 -356,5169 -541,8286 -184,3117 -369,6559 -504,10230 -136,3671 -223,7569 -196,11560 27,3991 169,8074 446,12044 277,3969 689,7824 961,11289 271,3464 401,6537 461,9936 60,3399 49,7124 87,11398 38,4273 125,9095 212,13118 87,4024 173,7249 254,9470 80,2221 153,3437 183,4165 30,728 16,967 26,2123 9,1157 42,3231 74,4711 33,1479 66,2364 131,2891 65,527 163,695 459,1005 296,309 790,760 2506,1121 1715,361 4653,632 7455,874 2802,242 5468,453 9991,695 4523,242 10904,513 15617,717 4713,203 7759,339 10431,363 2671,25 4968,-62 7289,-135 2322,-74 4668,-133 6905,-207 2237,-73 4366,-160 7366,-537 3000,-377 6871,-1046 9290,-1540 2419,-494 3386,-814 4236,-1246 849,-431 1582,-974 1979,-1319 396,-345 456,-492 513,-769z"/>
 </g>
</svg>
