<?xml version="1.0" encoding="UTF-8"?>
<!DOCTYPE svg PUBLIC "-//W3C//DTD SVG 1.1//EN" "http://www.w3.org/Graphics/SVG/1.1/DTD/svg11.dtd">
<!-- Creator: CorelDRAW 2018 (64 Bit Versão de avaliação) -->
<svg xmlns="http://www.w3.org/2000/svg" xml:space="preserve" width="240px" height="296px" version="1.1" shape-rendering="geometricPrecision" text-rendering="geometricPrecision" image-rendering="optimizeQuality" fill-rule="evenodd" clip-rule="evenodd"
viewBox="0 0 232252 286742"
 xmlns:xlink="http://www.w3.org/1999/xlink">
 <g id="Camada_x0020_1">
  <metadata id="CorelCorpID_0Corel-Layer"/>
  <path id="desenho3" fill="#F00808" d="M89174 254482l-180 -180 -180 180 -9383 0 -180 -180 -180 180 -9384 0 231 230 -821 0 -8758 0 0 165 182 182 8229 0 1515 0 229 230 7770 0 -180 180 2334 0 -180 -180 7769 0 -180 180 2334 0 -180 -180 7770 0 230 -230 347 -347 230 -230 -9384 0zm76661 -233836l-180 -180 -180 180 -9383 0 -180 -180 -181 180 -9383 0 230 230 -820 0 -8758 0 0 165 182 182 8229 0 1514 0 230 230 7770 0 -181 180 2335 0 -180 -180 7769 0 -180 180 2334 0 -180 -180 7770 0 229 -230 347 -347 230 -230 -9383 0zm-28653 18549l-1515 0 -1337 0 -1507 0 -2361 0 -2180 0 0 347 2180 0 2361 0 1507 0 1684 0 821 0 8923 0 820 0 -230 230 9383 0 181 180 180 -180 9383 0 180 180 180 -180 9383 0 -230 -230 -347 -347 -230 -230 -7769 0 180 -180 -2334 0 180 180 -7769 0 180 -180 -2335 0 180 180 -7769 0 -230 230 -1514 0 -8229 0zm-4359 -1665l-2361 0 0 347 2361 0 1507 0 0 -19 19 19 2651 0 1500 0 5592 0 4152 0 -230 230 6052 0 180 180 3331 0 180 -180 6052 0 180 180 3332 0 180 -180 6052 0 -230 -230 -347 -347 -230 -230 -4438 0 180 -180 -5666 0 180 180 -4438 0 180 -180 -5665 0 180 180 -4438 0 -230 230 -4846 0 -4898 0 -1847 0 -2670 0 -328 0 -1179 0zm1507 -1666l-1507 0 0 347 1507 0 2670 0 3166 0 2261 0 7482 0 -230 230 2721 0 181 180 6662 0 180 -180 2721 0 180 180 6662 0 180 -180 2721 0 -229 -230 -347 -347 -231 -230 -1107 0 180 -180 -8996 0 180 180 -1107 0 180 -180 -8997 0 181 180 -1108 0 -230 230 -8176 0 -1567 0 -3513 0 -2670 0zm6085 -1665l-3415 0 0 347 3762 0 1069 0 8674 0 230 230 610 0 -180 180 9493 0 -180 -180 610 0 -180 180 9494 0 -180 -180 610 0 230 -230 347 -347 230 -230 -2224 0 -180 -180 -7160 0 -180 180 -2224 0 -180 -180 -7159 0 -180 180 -2224 0 230 230 -7980 0 -1763 0zm-12133 -1665l-726 0 0 347 726 0 1071 0 1109 0 2361 0 930 0 577 0 2670 0 2096 0 4400 0 5344 0 229 229 3941 0 -180 180 6163 0 -180 -180 3941 0 -181 180 6163 0 -180 -180 3941 0 230 -229 347 -347 230 -230 -5555 0 -180 -181 -3829 0 -180 181 -5554 0 -180 -181 -3829 0 -180 181 -5555 0 231 230 -4650 0 -5094 0 -1749 0 -2670 0 -230 0 -1277 0 -2361 0 -1456 0 -724 0zm16880 -1319l2012 0 230 230 7272 0 -181 180 2833 0 -180 -180 7271 0 -180 180 2832 0 -180 -180 7271 0 230 -230 347 -347 230 -230 -8885 0 -180 -180 -498 0 -180 180 -8885 0 -180 -180 -498 0 -181 180 -8885 0 230 230 -1318 0 -8425 0 -84 0 -1235 0 -1435 0 -1507 0 -2361 0 0 347 2361 0 1507 0 1088 0 1582 0 431 0 7731 0zm-10832 -2012l-1507 0 0 347 1507 0 1435 0 1235 0 84 0 8425 0 1318 0 -230 230 8885 0 180 180 499 0 180 -180 8885 0 180 180 498 0 180 -180 8885 0 -230 -230 -347 -347 -230 -230 -7271 0 180 -180 -2832 0 180 180 -7271 0 180 -180 -2833 0 180 180 -7271 0 -230 230 -2012 0 -7731 0 -431 0 -1582 0 -1088 0zm2670 -1666l-2670 0 0 347 2670 0 1749 0 5094 0 4650 0 -230 230 5554 0 180 180 3829 0 180 -180 5554 0 180 180 3830 0 180 -180 5554 0 -230 -230 -347 -347 -230 -230 -3940 0 180 -180 -6164 0 180 180 -3940 0 180 -180 -6163 0 180 180 -3940 0 -230 230 -5344 0 -4400 0 -2096 0zm5178 -1318l7980 0 -230 230 2223 0 181 180 7160 0 180 -180 2223 0 180 180 7160 0 180 -180 2223 0 -229 -230 -347 -347 -231 -230 -609 0 180 -180 -9494 0 180 180 -609 0 180 -180 -9495 0 181 180 -610 0 -230 230 -8674 0 -1069 0 -3762 0 -2670 0 -1507 0 -735 0 -1070 0 -556 0 -2180 0 0 347 2180 0 209 0 1764 0 388 0 1507 0 2670 0 3415 0 1763 0zm-7848 -1665l2670 0 3513 0 1567 0 8176 0 230 229 1108 0 -180 181 8995 0 -180 -181 1108 0 -180 181 8996 0 -180 -181 1108 0 230 -229 347 -347 230 -230 -2722 0 -180 -181 -6662 0 -180 181 -2722 0 -180 -181 -6661 0 -180 181 -2722 0 230 230 -7482 0 -2261 0 -3166 0 -2670 0 -1507 0 -139 0 -2222 0 0 39 0 308 307 0 1568 0 486 0 1507 0zm0 -1994l0 -19 -1507 0 0 347 1179 0 328 0 2670 0 1847 0 4898 0 4846 0 229 230 4439 0 -180 180 5665 0 -180 -180 4439 0 -181 180 5665 0 -180 -180 4439 0 230 -230 347 -347 230 -230 -6053 0 -180 -180 -3330 0 -181 180 -6052 0 -180 -180 -3331 0 -180 180 -6053 0 231 230 -4152 0 -5592 0 -1500 0 -2651 0 -19 19zm18728 37059l-180 -181 -180 181 -9383 0 -180 -181 -180 181 -9384 0 230 230 -820 0 -8758 0 0 165 182 182 8229 0 1514 0 230 229 7770 0 -180 181 2334 0 -180 -181 7769 0 -180 181 2334 0 -180 -181 7770 0 230 -229 347 -347 230 -230 -9384 0zm-28653 18549l-1514 0 -1338 0 -1507 0 -2361 0 -2180 0 0 347 2180 0 2361 0 1507 0 1685 0 820 0 8923 0 820 0 -229 230 9382 0 181 180 180 -180 9383 0 180 180 180 -180 9383 0 -229 -230 -347 -347 -231 -230 -7769 0 180 -180 -2334 0 180 180 -7769 0 180 -180 -2335 0 181 180 -7770 0 -230 230 -1514 0 -8229 0zm-4359 -1666l-2361 0 0 348 2361 0 1507 0 0 -20 19 20 2651 0 1500 0 5593 0 4151 0 -230 229 6052 0 180 180 3331 0 181 -180 6051 0 180 180 3332 0 180 -180 6052 0 -230 -229 -347 -348 -230 -230 -4438 0 180 -180 -5666 0 180 180 -4438 0 181 -180 -5666 0 180 180 -4438 0 -230 230 -4845 0 -4899 0 -1847 0 -2670 0 -328 0 -1179 0zm1507 -1665l-1507 0 0 347 1507 0 2670 0 3166 0 2261 0 7482 0 -230 230 2722 0 180 180 6662 0 180 -180 2721 0 180 180 6662 0 180 -180 2722 0 -230 -230 -347 -347 -230 -230 -1108 0 180 -180 -8996 0 180 180 -1107 0 180 -180 -8996 0 180 180 -1108 0 -230 230 -8176 0 -1567 0 -3513 0 -2670 0zm6085 -1665l-3415 0 0 347 3762 0 1069 0 8674 0 230 230 610 0 -180 180 9494 0 -180 -180 609 0 -180 180 9494 0 -180 -180 610 0 230 -230 347 -347 230 -230 -2224 0 -180 -180 -7160 0 -180 180 -2223 0 -180 -180 -7160 0 -180 180 -2224 0 230 230 -7980 0 -1763 0zm-12133 -1666l-726 0 0 347 726 0 1071 0 1109 0 2361 0 930 0 577 0 2670 0 2096 0 4401 0 5343 0 230 230 3940 0 -180 180 6163 0 -180 -180 3941 0 -180 180 6163 0 -180 -180 3940 0 230 -230 347 -347 230 -230 -5554 0 -180 -180 -3829 0 -180 180 -5555 0 -180 -180 -3829 0 -180 180 -5554 0 230 230 -4649 0 -5095 0 -1749 0 -2670 0 -230 0 -1277 0 -2361 0 -1456 0 -724 0zm16880 -1318l2012 0 230 230 7272 0 -180 180 2832 0 -180 -180 7271 0 -180 180 2832 0 -180 -180 7272 0 230 -230 347 -347 230 -230 -8886 0 -180 -180 -498 0 -180 180 -8885 0 -180 -180 -498 0 -180 180 -8886 0 230 230 -1318 0 -8425 0 -84 0 -1234 0 -1436 0 -1507 0 -2361 0 0 347 2361 0 1507 0 1089 0 1581 0 431 0 7731 0zm-10832 -2012l-1507 0 0 347 1507 0 1436 0 1234 0 84 0 8425 0 1318 0 -229 229 8884 0 181 180 498 0 180 -180 8885 0 180 180 498 0 181 -180 8884 0 -229 -229 -347 -347 -231 -231 -7271 0 180 -180 -2832 0 180 180 -7271 0 180 -180 -2833 0 181 180 -7272 0 -230 231 -2012 0 -7731 0 -431 0 -1581 0 -1089 0zm2670 -1666l-2670 0 0 347 2670 0 1749 0 5095 0 4649 0 -230 230 5554 0 180 180 3829 0 181 -180 5553 0 180 180 3830 0 180 -180 5554 0 -230 -230 -347 -347 -230 -230 -3940 0 180 -180 -6164 0 180 180 -3940 0 181 -180 -6164 0 180 180 -3940 0 -230 230 -5343 0 -4401 0 -2096 0zm5178 -1318l7980 0 -230 230 2224 0 180 180 7160 0 180 -180 2223 0 180 180 7160 0 180 -180 2224 0 -230 -230 -347 -347 -230 -230 -610 0 180 -180 -9494 0 180 180 -609 0 180 -180 -9494 0 180 180 -610 0 -230 230 -8674 0 -1069 0 -3762 0 -2670 0 -1507 0 -735 0 -1070 0 -556 0 -2180 0 0 347 2180 0 209 0 1764 0 388 0 1507 0 2670 0 3415 0 1763 0zm-7848 -1666l2670 0 3513 0 1567 0 8176 0 230 230 1108 0 -180 180 8996 0 -180 -180 1107 0 -180 180 8996 0 -180 -180 1108 0 230 -230 347 -347 230 -230 -2722 0 -180 -180 -6662 0 -180 180 -2721 0 -180 -180 -6662 0 -180 180 -2722 0 230 230 -7482 0 -2261 0 -3166 0 -2670 0 -1507 0 -139 0 -2222 0 0 40 0 307 307 0 1568 0 486 0 1507 0zm0 -1993l0 -19 -1507 0 0 347 1179 0 328 0 2670 0 1847 0 4899 0 4845 0 230 230 4438 0 -180 180 5665 0 -180 -180 4439 0 -180 180 5665 0 -180 -180 4438 0 230 -230 347 -347 230 -230 -6052 0 -180 -180 -3331 0 -180 180 -6053 0 -180 -180 -3331 0 -180 180 -6052 0 230 230 -4151 0 -5593 0 -1500 0 -2651 0 -19 19zm18728 37058l-180 -180 -180 180 -9383 0 -180 -180 -180 180 -9383 0 230 230 -821 0 -8758 0 0 165 182 182 8229 0 1515 0 229 230 7770 0 -180 180 2334 0 -180 -180 7769 0 -180 180 2334 0 -180 -180 7770 0 230 -230 347 -347 230 -230 -9384 0zm-28653 18550l-1514 0 -1338 0 -1507 0 -2361 0 -2179 0 0 347 2179 0 2361 0 1507 0 1685 0 820 0 8923 0 821 0 -230 229 9383 0 180 181 180 -181 9383 0 180 181 181 -181 9383 0 -230 -229 -347 -347 -230 -230 -7769 0 180 -181 -2335 0 180 181 -7769 0 180 -181 -2334 0 180 181 -7769 0 -230 230 -1515 0 -8229 0zm-4359 -1666l-2361 0 0 347 2361 0 1507 0 0 -19 20 19 2650 0 1501 0 5592 0 4151 0 -230 230 6052 0 180 180 3332 0 180 -180 6052 0 180 180 3331 0 180 -180 6052 0 -230 -230 -347 -347 -230 -230 -4438 0 180 -180 -5665 0 180 180 -4438 0 180 -180 -5666 0 180 180 -4438 0 -230 230 -4845 0 -4898 0 -1848 0 -2670 0 -327 0 -1180 0zm1507 -1665l-1507 0 0 347 1507 0 2670 0 3166 0 2261 0 7482 0 -229 230 2721 0 180 180 6662 0 180 -180 2721 0 180 180 6662 0 181 -180 2721 0 -230 -230 -347 -347 -230 -230 -1108 0 180 -180 -8996 0 180 180 -1107 0 180 -180 -8996 0 180 180 -1108 0 -230 230 -8176 0 -1567 0 -3513 0 -2670 0zm6085 -1666l-3415 0 0 347 3762 0 1069 0 8674 0 230 230 610 0 -180 180 9494 0 -180 -180 610 0 -181 180 9494 0 -180 -180 610 0 230 -230 347 -347 230 -230 -2224 0 -180 -180 -7159 0 -181 180 -2223 0 -180 -180 -7160 0 -180 180 -2224 0 230 230 -7980 0 -1763 0zm-12132 -1665l-727 0 0 347 727 0 1070 0 1109 0 2361 0 931 0 576 0 2670 0 2097 0 4400 0 5343 0 230 230 3941 0 -180 180 6163 0 -181 -180 3941 0 -180 180 6163 0 -180 -180 3941 0 229 -230 347 -347 230 -230 -5554 0 -180 -180 -3829 0 -180 180 -5554 0 -181 -180 -3828 0 -180 180 -5555 0 230 230 -4649 0 -5094 0 -1750 0 -2670 0 -229 0 -1278 0 -2361 0 -1456 0 -723 0zm16879 -1318l2013 0 229 229 7272 0 -180 181 2832 0 -180 -181 7271 0 -180 181 2832 0 -180 -181 7272 0 230 -229 347 -347 230 -230 -8886 0 -180 -181 -498 0 -180 181 -8885 0 -180 -181 -498 0 -180 181 -8885 0 230 230 -1319 0 -8425 0 -84 0 -1234 0 -1436 0 -1507 0 -2361 0 0 347 2361 0 1507 0 1089 0 1581 0 431 0 7731 0zm-10832 -2013l-1507 0 0 347 1507 0 1436 0 1234 0 84 0 8425 0 1319 0 -230 230 8885 0 180 180 498 0 180 -180 8885 0 180 180 499 0 180 -180 8885 0 -230 -230 -347 -347 -230 -230 -7271 0 180 -180 -2833 0 180 180 -7271 0 180 -180 -2832 0 180 180 -7271 0 -230 230 -2013 0 -7731 0 -431 0 -1581 0 -1089 0zm2670 -1665l-2670 0 0 347 2670 0 1750 0 5094 0 4649 0 -230 230 5554 0 180 180 3830 0 180 -180 5554 0 180 180 3829 0 180 -180 5554 0 -230 -230 -347 -347 -230 -230 -3940 0 180 -180 -6163 0 180 180 -3940 0 180 -180 -6164 0 180 180 -3940 0 -230 230 -5343 0 -4400 0 -2097 0zm5178 -1318l7980 0 -229 229 2223 0 180 180 7160 0 180 -180 2223 0 180 180 7160 0 181 -180 2223 0 -230 -229 -347 -347 -230 -231 -610 0 181 -180 -9495 0 180 180 -609 0 180 -180 -9494 0 180 180 -610 0 -230 231 -8674 0 -1069 0 -3762 0 -2670 0 -1507 0 -735 0 -1070 0 -556 0 -2179 0 0 347 2179 0 209 0 1764 0 388 0 1507 0 2670 0 3415 0 1763 0zm-7848 -1666l2670 0 3513 0 1567 0 8176 0 230 230 1108 0 -180 180 8996 0 -180 -180 1108 0 -181 180 8996 0 -180 -180 1108 0 230 -230 347 -347 230 -230 -2722 0 -180 -180 -6661 0 -181 180 -2721 0 -180 -180 -6662 0 -180 180 -2722 0 230 230 -7482 0 -2261 0 -3166 0 -2670 0 -1507 0 -139 0 -2222 0 0 40 0 307 307 0 1568 0 486 0 1507 0zm0 -1993l0 -19 -1507 0 0 347 1180 0 327 0 2670 0 1848 0 4898 0 4845 0 230 230 4439 0 -180 180 5665 0 -181 -180 4439 0 -180 180 5665 0 -180 -180 4439 0 229 -230 347 -347 230 -230 -6052 0 -180 -180 -3331 0 -180 180 -6052 0 -181 -180 -3330 0 -180 180 -6053 0 230 230 -4151 0 -5592 0 -1501 0 -2650 0 -20 19zm18729 37058l-180 -180 -181 180 -9383 0 -180 -180 -180 180 -9383 0 230 230 -821 0 -8757 0 0 165 182 182 8228 0 1515 0 230 230 7769 0 -180 180 2334 0 -180 -180 7770 0 -181 180 2335 0 -180 -180 7769 0 230 -230 347 -347 230 -230 -9383 0zm-28653 18549l-1515 0 -1337 0 -1507 0 -2362 0 -2179 0 0 347 2179 0 2362 0 1507 0 1684 0 821 0 8922 0 821 0 -230 230 9383 0 180 181 181 -181 9382 0 181 181 180 -181 9383 0 -230 -230 -347 -347 -230 -230 -7769 0 180 -180 -2335 0 180 180 -7768 0 180 -180 -2335 0 180 180 -7769 0 -230 230 -1515 0 -8228 0zm-4359 -1665l-2362 0 0 347 2362 0 1507 0 0 -19 19 19 2651 0 1500 0 5592 0 4151 0 -230 230 6052 0 181 180 3331 0 180 -180 6052 0 180 180 3331 0 180 -180 6052 0 -229 -230 -347 -347 -230 -230 -4439 0 180 -180 -5665 0 180 180 -4438 0 180 -180 -5665 0 180 180 -4439 0 -230 230 -4845 0 -4898 0 -1847 0 -2670 0 -328 0 -1179 0zm1507 -1665l-1507 0 0 347 1507 0 2670 0 3165 0 2262 0 7482 0 -230 229 2721 0 180 181 6662 0 180 -181 2721 0 181 181 6662 0 180 -181 2721 0 -230 -229 -347 -347 -230 -230 -1107 0 180 -181 -8997 0 181 181 -1108 0 180 -181 -8996 0 180 181 -1107 0 -230 230 -8176 0 -1568 0 -3512 0 -2670 0zm6084 -1666l-3414 0 0 347 3761 0 1070 0 8674 0 229 230 610 0 -180 180 9494 0 -180 -180 610 0 -180 180 9493 0 -180 -180 610 0 230 -230 347 -347 230 -230 -2224 0 -180 -180 -7159 0 -180 180 -2224 0 -180 -180 -7160 0 -180 180 -2223 0 230 230 -7980 0 -1764 0zm-12132 -1665l-727 0 0 347 727 0 1070 0 1109 0 2362 0 930 0 577 0 2670 0 2096 0 4400 0 5343 0 230 230 3941 0 -180 180 6163 0 -180 -180 3940 0 -180 180 6163 0 -180 -180 3941 0 230 -230 347 -347 230 -230 -5555 0 -180 -180 -3829 0 -180 180 -5554 0 -180 -180 -3829 0 -180 180 -5555 0 230 230 -4649 0 -5094 0 -1749 0 -2670 0 -230 0 -1277 0 -2362 0 -1456 0 -723 0zm16879 -1319l2013 0 230 230 7271 0 -180 180 2832 0 -180 -180 7272 0 -181 180 2833 0 -180 -180 7271 0 230 -230 347 -347 230 -230 -8885 0 -180 -180 -498 0 -181 180 -8885 0 -180 -180 -498 0 -180 180 -8885 0 230 230 -1319 0 -8424 0 -84 0 -1235 0 -1435 0 -1507 0 -2362 0 0 347 2362 0 1507 0 1088 0 1582 0 431 0 7730 0zm-10831 -2012l-1507 0 0 347 1507 0 1435 0 1235 0 84 0 8424 0 1319 0 -230 230 8885 0 180 180 499 0 180 -180 8884 0 180 180 499 0 180 -180 8885 0 -230 -230 -347 -347 -230 -230 -7271 0 180 -180 -2833 0 180 180 -7270 0 180 -180 -2833 0 180 180 -7271 0 -230 230 -2013 0 -7730 0 -431 0 -1582 0 -1088 0zm2670 -1665l-2670 0 0 347 2670 0 1749 0 5094 0 4649 0 -230 229 5554 0 181 181 3829 0 180 -181 5554 0 180 181 3829 0 180 -181 5554 0 -229 -229 -347 -347 -230 -230 -3941 0 180 -181 -6163 0 180 181 -3940 0 180 -181 -6164 0 181 181 -3941 0 -230 230 -5343 0 -4400 0 -2096 0zm5178 -1319l7980 0 -230 230 2223 0 180 180 7160 0 180 -180 2223 0 181 180 7160 0 180 -180 2223 0 -230 -230 -347 -347 -230 -230 -609 0 180 -180 -9495 0 181 180 -610 0 180 -180 -9494 0 180 180 -609 0 -230 230 -8674 0 -1070 0 -3761 0 -2670 0 -1507 0 -736 0 -1069 0 -557 0 -2179 0 0 347 2179 0 210 0 1763 0 389 0 1507 0 2670 0 3414 0 1764 0zm-7848 -1665l2670 0 3512 0 1568 0 8176 0 229 230 1108 0 -180 180 8996 0 -180 -180 1108 0 -180 180 8995 0 -180 -180 1108 0 230 -230 347 -347 230 -230 -2722 0 -180 -180 -6661 0 -180 180 -2722 0 -180 -180 -6662 0 -180 180 -2721 0 230 230 -7482 0 -2262 0 -3165 0 -2670 0 -1507 0 -140 0 -2222 0 0 39 0 308 308 0 1567 0 487 0 1507 0zm0 -1993l0 -20 -1507 0 0 347 1179 0 328 0 2670 0 1847 0 4898 0 4845 0 230 230 4439 0 -180 180 5665 0 -180 -180 4438 0 -180 180 5665 0 -180 -180 4439 0 230 -230 347 -347 230 -230 -6053 0 -180 -180 -3331 0 -180 180 -6052 0 -180 -180 -3331 0 -180 180 -6053 0 230 230 -4151 0 -5592 0 -1500 0 -2651 0 -19 20zm18728 37058l-180 -180 -180 180 -9383 0 -181 -180 -180 180 -9383 0 230 230 -820 0 -8758 0 0 165 182 182 8229 0 1514 0 230 230 7770 0 -181 180 2335 0 -181 -180 7770 0 -180 180 2334 0 -180 -180 7769 0 230 -230 347 -347 230 -230 -9383 0zm-28653 18549l-1515 0 -1337 0 -1507 0 -2362 0 -2179 0 0 347 2179 0 2362 0 1507 0 1684 0 821 0 8923 0 820 0 -230 230 9383 0 180 180 181 -180 9382 0 181 180 180 -180 9383 0 -230 -230 -347 -347 -230 -230 -7769 0 180 -180 -2335 0 181 180 -7769 0 180 -180 -2335 0 180 180 -7769 0 -230 230 -1514 0 -8229 0zm-4359 -1665l-2362 0 0 347 2362 0 1507 0 0 -19 19 19 2651 0 1500 0 5592 0 4151 0 -229 230 6052 0 180 180 3331 0 180 -180 6052 0 180 180 3331 0 181 -180 6052 0 -230 -230 -347 -347 -230 -230 -4439 0 181 -180 -5666 0 180 180 -4438 0 180 -180 -5665 0 180 180 -4438 0 -231 230 -4845 0 -4898 0 -1847 0 -2670 0 -328 0 -1179 0zm1507 -1666l-1507 0 0 347 1507 0 2670 0 3166 0 2261 0 7482 0 -230 230 2721 0 180 180 6663 0 180 -180 2721 0 180 180 6662 0 180 -180 2721 0 -230 -230 -347 -347 -230 -230 -1107 0 180 -180 -8996 0 180 180 -1107 0 180 -180 -8997 0 180 180 -1107 0 -230 230 -8176 0 -1567 0 -3513 0 -2670 0zm6085 -1665l-3415 0 0 347 3762 0 1069 0 8674 0 230 230 610 0 -180 180 9493 0 -180 -180 610 0 -180 180 9494 0 -180 -180 610 0 229 -230 347 -347 231 -230 -2224 0 -180 -180 -7160 0 -180 180 -2224 0 -180 -180 -7159 0 -180 180 -2224 0 230 230 -7980 0 -1763 0zm-12133 -1665l-726 0 0 347 726 0 1071 0 1108 0 2362 0 930 0 577 0 2670 0 2096 0 4400 0 5343 0 230 229 3941 0 -180 180 6163 0 -180 -180 3940 0 -180 180 6163 0 -180 -180 3941 0 230 -229 347 -347 230 -231 -5555 0 -180 -180 -3829 0 -180 180 -5554 0 -180 -180 -3829 0 -180 180 -5555 0 230 231 -4649 0 -5094 0 -1749 0 -2670 0 -230 0 -1277 0 -2362 0 -1455 0 -724 0zm16880 -1319l2012 0 230 230 7271 0 -180 180 2833 0 -181 -180 7272 0 -180 180 2832 0 -180 -180 7271 0 230 -230 347 -347 230 -230 -8885 0 -180 -180 -498 0 -180 180 -8885 0 -180 -180 -499 0 -180 180 -8885 0 230 230 -1318 0 -8425 0 -84 0 -1235 0 -1435 0 -1507 0 -2362 0 0 347 2362 0 1507 0 1088 0 1582 0 431 0 7731 0zm-10832 -2012l-1507 0 0 347 1507 0 1435 0 1235 0 84 0 8425 0 1318 0 -230 230 8885 0 180 180 499 0 180 -180 8884 0 181 180 498 0 180 -180 8885 0 -230 -230 -347 -347 -230 -230 -7271 0 180 -180 -2833 0 181 180 -7271 0 180 -180 -2833 0 180 180 -7271 0 -230 230 -2012 0 -7731 0 -431 0 -1582 0 -1088 0zm2670 -1666l-2670 0 0 347 2670 0 1749 0 5094 0 4649 0 -229 230 5554 0 180 180 3829 0 180 -180 5554 0 180 180 3829 0 181 -180 5554 0 -230 -230 -347 -347 -230 -230 -3941 0 181 -180 -6164 0 180 180 -3940 0 180 -180 -6163 0 180 180 -3940 0 -231 230 -5343 0 -4400 0 -2096 0zm5178 -1318l7980 0 -230 230 2223 0 180 180 7161 0 180 -180 2223 0 180 180 7160 0 180 -180 2223 0 -230 -230 -347 -347 -230 -230 -609 0 180 -180 -9494 0 180 180 -609 0 180 -180 -9495 0 180 180 -609 0 -230 230 -8674 0 -1069 0 -3762 0 -2670 0 -1507 0 -735 0 -1070 0 -557 0 -2179 0 0 347 2179 0 210 0 1764 0 388 0 1507 0 2670 0 3415 0 1763 0zm-7848 -1665l2670 0 3513 0 1567 0 8176 0 230 229 1108 0 -180 181 8995 0 -180 -181 1108 0 -180 181 8996 0 -180 -181 1108 0 229 -229 347 -347 231 -230 -2722 0 -180 -181 -6662 0 -180 181 -2722 0 -180 -181 -6661 0 -180 181 -2722 0 230 230 -7482 0 -2261 0 -3166 0 -2670 0 -1507 0 -139 0 -2223 0 0 39 0 308 308 0 1568 0 486 0 1507 0zm0 -1994l0 -19 -1507 0 0 347 1179 0 328 0 2670 0 1847 0 4898 0 4845 0 230 230 4439 0 -180 180 5665 0 -180 -180 4438 0 -180 180 5665 0 -180 -180 4439 0 230 -230 347 -347 230 -230 -6053 0 -180 -180 -3331 0 -180 180 -6052 0 -180 -180 -3331 0 -180 180 -6053 0 230 230 -4151 0 -5592 0 -1500 0 -2651 0 -19 19zm18728 37058l-180 -180 -180 180 -9383 0 -180 -180 -180 180 -9384 0 230 231 -820 0 -8758 0 0 165 182 182 8229 0 1514 0 230 229 7770 0 -180 180 2334 0 -180 -180 7769 0 -180 180 2334 0 -180 -180 7770 0 229 -229 347 -347 231 -231 -9384 0zm-28653 18550l-1514 0 -1338 0 -1507 0 -2361 0 -2180 0 0 347 2180 0 2361 0 1507 0 1685 0 820 0 8923 0 820 0 -230 230 9383 0 181 180 180 -180 9383 0 180 180 180 -180 9383 0 -230 -230 -347 -347 -230 -230 -7769 0 180 -180 -2334 0 180 180 -7769 0 180 -180 -2335 0 180 180 -7769 0 -230 230 -1514 0 -8229 0zm-4359 -1666l-2361 0 0 347 2361 0 1507 0 0 -19 19 19 2651 0 1500 0 5593 0 4151 0 -230 230 6052 0 180 180 3331 0 180 -180 6052 0 180 180 3332 0 180 -180 6052 0 -230 -230 -347 -347 -230 -230 -4438 0 180 -180 -5666 0 180 180 -4438 0 180 -180 -5665 0 180 180 -4438 0 -230 230 -4845 0 -4899 0 -1847 0 -2670 0 -328 0 -1179 0zm1507 -1665l-1507 0 0 347 1507 0 2670 0 3166 0 2261 0 7482 0 -230 230 2722 0 180 180 6662 0 180 -180 2721 0 180 180 6662 0 180 -180 2721 0 -229 -230 -347 -347 -230 -230 -1108 0 180 -180 -8996 0 180 180 -1107 0 180 -180 -8996 0 180 180 -1108 0 -230 230 -8176 0 -1567 0 -3513 0 -2670 0zm6085 -1665l-3415 0 0 347 3762 0 1069 0 8674 0 230 229 610 0 -180 181 9494 0 -181 -181 610 0 -180 181 9494 0 -180 -181 610 0 230 -229 347 -347 230 -230 -2224 0 -180 -180 -7160 0 -180 180 -2223 0 -180 -180 -7160 0 -180 180 -2224 0 230 230 -7980 0 -1763 0zm-12133 -1666l-726 0 0 347 726 0 1071 0 1109 0 2361 0 930 0 577 0 2670 0 2096 0 4401 0 5343 0 230 230 3940 0 -180 180 6163 0 -180 -180 3941 0 -180 180 6163 0 -181 -180 3941 0 230 -230 347 -347 230 -230 -5554 0 -181 -180 -3828 0 -180 180 -5555 0 -180 -180 -3829 0 -180 180 -5554 0 230 230 -4649 0 -5095 0 -1749 0 -2670 0 -230 0 -1277 0 -2361 0 -1456 0 -724 0zm16880 -1318l2012 0 230 230 7272 0 -180 180 2832 0 -180 -180 7271 0 -180 180 2832 0 -180 -180 7272 0 229 -230 347 -347 231 -230 -8886 0 -180 -180 -498 0 -180 180 -8885 0 -180 -180 -498 0 -180 180 -8886 0 230 230 -1318 0 -8425 0 -84 0 -1234 0 -1436 0 -1507 0 -2361 0 0 347 2361 0 1507 0 1089 0 1581 0 431 0 7731 0zm-10832 -2012l-1507 0 0 347 1507 0 1436 0 1234 0 84 0 8425 0 1318 0 -229 229 8884 0 180 180 499 0 180 -180 8885 0 180 180 498 0 180 -180 8885 0 -230 -229 -347 -347 -230 -231 -7271 0 180 -180 -2832 0 180 180 -7271 0 180 -180 -2833 0 180 180 -7271 0 -230 231 -2012 0 -7731 0 -431 0 -1581 0 -1089 0zm2670 -1666l-2670 0 0 347 2670 0 1749 0 5095 0 4649 0 -230 230 5554 0 180 180 3829 0 180 -180 5554 0 180 180 3830 0 180 -180 5554 0 -230 -230 -347 -347 -230 -230 -3940 0 180 -180 -6164 0 180 180 -3940 0 180 -180 -6163 0 180 180 -3940 0 -230 230 -5343 0 -4401 0 -2096 0zm5178 -1318l7980 0 -230 230 2224 0 180 180 7160 0 180 -180 2223 0 180 180 7160 0 180 -180 2223 0 -229 -230 -347 -347 -230 -230 -610 0 180 -180 -9494 0 180 180 -609 0 180 -180 -9494 0 180 180 -610 0 -230 230 -8674 0 -1069 0 -3762 0 -2670 0 -1507 0 -735 0 -1070 0 -556 0 -2180 0 0 347 2180 0 209 0 1764 0 388 0 1507 0 2670 0 3415 0 1763 0zm-7848 -1666l2670 0 3513 0 1567 0 8176 0 230 230 1108 0 -180 180 8996 0 -181 -180 1108 0 -180 180 8996 0 -180 -180 1108 0 230 -230 347 -347 230 -230 -2722 0 -180 -180 -6662 0 -180 180 -2721 0 -181 -180 -6661 0 -180 180 -2722 0 230 230 -7482 0 -2261 0 -3166 0 -2670 0 -1507 0 -139 0 -2222 0 0 40 0 307 307 0 1568 0 486 0 1507 0zm0 -1993l0 -19 -1507 0 0 347 1179 0 328 0 2670 0 1847 0 4899 0 4845 0 230 230 4438 0 -180 180 5665 0 -180 -180 4439 0 -180 180 5665 0 -181 -180 4439 0 230 -230 347 -347 230 -230 -6052 0 -181 -180 -3330 0 -180 180 -6053 0 -180 -180 -3331 0 -180 180 -6052 0 230 230 -4151 0 -5593 0 -1500 0 -2651 0 -19 19zm-9925 55608l-1514 0 -1338 0 -1507 0 -2361 0 -2179 0 0 347 2179 0 2361 0 1507 0 1685 0 820 0 8923 0 821 0 -230 229 9383 0 180 181 180 -181 9383 0 180 181 181 -181 9382 0 -229 -229 -347 -347 -230 -230 -7769 0 180 -181 -2335 0 180 181 -7769 0 180 -181 -2334 0 180 181 -7769 0 -230 230 -1515 0 -8229 0zm-4359 -1666l-2361 0 0 347 2361 0 1507 0 0 -19 19 19 2651 0 1501 0 5592 0 4151 0 -230 230 6052 0 180 180 3332 0 180 -180 6052 0 180 180 3331 0 180 -180 6052 0 -230 -230 -347 -347 -230 -230 -4438 0 180 -180 -5665 0 180 180 -4438 0 180 -180 -5666 0 180 180 -4438 0 -230 230 -4845 0 -4898 0 -1848 0 -2670 0 -328 0 -1179 0zm1507 -1665l-1507 0 0 347 1507 0 2670 0 3166 0 2261 0 7482 0 -229 230 2721 0 180 180 6662 0 180 -180 2721 0 180 180 6662 0 180 -180 2722 0 -230 -230 -347 -347 -230 -230 -1108 0 180 -180 -8996 0 180 180 -1107 0 180 -180 -8996 0 180 180 -1108 0 -230 230 -8176 0 -1567 0 -3513 0 -2670 0zm6085 -1666l-3415 0 0 347 3762 0 1069 0 8674 0 230 230 610 0 -180 180 9494 0 -180 -180 609 0 -180 180 9494 0 -180 -180 610 0 230 -230 347 -347 230 -230 -2224 0 -180 -180 -7160 0 -180 180 -2223 0 -180 -180 -7160 0 -180 180 -2224 0 230 230 -7980 0 -1763 0zm-12132 -1665l-727 0 0 347 727 0 1070 0 1109 0 2361 0 930 0 577 0 2670 0 2097 0 4400 0 5343 0 230 230 3941 0 -181 180 6163 0 -180 -180 3941 0 -180 180 6163 0 -180 -180 3940 0 230 -230 347 -347 230 -230 -5554 0 -180 -180 -3829 0 -180 180 -5555 0 -180 -180 -3828 0 -181 180 -5554 0 230 230 -4649 0 -5094 0 -1750 0 -2670 0 -230 0 -1277 0 -2361 0 -1456 0 -723 0zm16879 -1318l2013 0 229 229 7272 0 -180 181 2832 0 -180 -181 7271 0 -180 181 2832 0 -180 -181 7272 0 230 -229 347 -347 230 -230 -8886 0 -180 -181 -498 0 -180 181 -8885 0 -180 -181 -498 0 -180 181 -8886 0 231 230 -1319 0 -8425 0 -84 0 -1234 0 -1436 0 -1507 0 -2361 0 0 347 2361 0 1507 0 1089 0 1581 0 431 0 7731 0zm-10832 -2013l-1507 0 0 347 1507 0 1436 0 1234 0 84 0 8425 0 1319 0 -230 230 8885 0 180 180 498 0 180 -180 8885 0 180 180 499 0 180 -180 8884 0 -229 -230 -347 -347 -230 -230 -7271 0 180 -180 -2833 0 180 180 -7271 0 180 -180 -2832 0 180 180 -7271 0 -230 230 -2013 0 -7731 0 -431 0 -1581 0 -1089 0zm2670 -1665l-2670 0 0 347 2670 0 1750 0 5094 0 4649 0 -230 230 5554 0 180 180 3830 0 180 -180 5553 0 181 180 3829 0 180 -180 5554 0 -230 -230 -347 -347 -230 -230 -3940 0 180 -180 -6163 0 180 180 -3940 0 180 -180 -6164 0 180 180 -3940 0 -230 230 -5343 0 -4400 0 -2097 0zm5178 -1318l7980 0 -229 229 2223 0 180 180 7160 0 180 -180 2223 0 180 180 7160 0 180 -180 2224 0 -230 -229 -347 -348 -230 -230 -610 0 180 -180 -9494 0 180 180 -609 0 180 -180 -9494 0 180 180 -610 0 -230 230 -8674 0 -1069 0 -3762 0 -2670 0 -1507 0 -735 0 -1070 0 -556 0 -2179 0 0 348 2179 0 209 0 1764 0 388 0 1507 0 2670 0 3415 0 1763 0zm-7848 -1666l2670 0 3513 0 1567 0 8176 0 230 230 1108 0 -180 180 8996 0 -180 -180 1108 0 -181 180 8996 0 -180 -180 1108 0 230 -230 347 -347 230 -230 -2722 0 -180 -180 -6662 0 -180 180 -2721 0 -180 -180 -6662 0 -180 180 -2722 0 230 230 -7482 0 -2261 0 -3166 0 -2670 0 -1507 0 -139 0 -2222 0 0 40 0 307 307 0 1568 0 486 0 1507 0zm0 -1993l0 -19 -1507 0 0 347 1179 0 328 0 2670 0 1848 0 4898 0 4845 0 230 230 4439 0 -181 180 5665 0 -180 -180 4439 0 -180 180 5665 0 -180 -180 4438 0 230 -230 347 -347 230 -230 -6052 0 -180 -180 -3331 0 -180 180 -6053 0 -180 -180 -3330 0 -181 180 -6052 0 230 230 -4151 0 -5592 0 -1501 0 -2651 0 -19 19z"/>
  <path id="camisa_contorno" fill="none" d="M132380 286433c2381,-94 4477,-217 6790,-344 2314,-127 4844,-256 7995,-477 3150,-220 6920,-532 10132,-824 3212,-292 5866,-565 8511,-918 2644,-354 5278,-788 7407,-1210 2128,-422 3751,-831 5807,-1288 2058,-458 4549,-964 6383,-1279 1832,-314 3007,-438 4130,-519 1122,-81 2193,-120 3052,-113 860,8 1509,61 1893,91 384,31 502,37 591,42 48,2 88,4 123,6 91,-67 158,-175 172,-754 16,-652 -36,-1902 -103,-2696 -66,-793 -149,-1129 -276,-1795 -126,-667 -297,-1665 -630,-2599 -333,-935 -829,-1806 -1428,-2947 -599,-1141 -1300,-2553 -1726,-3499 -425,-947 -576,-1429 -820,-2607 -243,-1177 -579,-3051 -922,-5681 -343,-2631 -693,-6018 -1005,-8597 -311,-2580 -584,-4351 -1046,-7315 -462,-2964 -1114,-7120 -1655,-11150 -540,-4029 -968,-7932 -1304,-11831 -335,-3898 -579,-7791 -735,-11261 -155,-3470 -223,-6517 -277,-9471 -54,-2954 -92,-5815 -151,-8959 -58,-3144 -136,-6570 -105,-11649 32,-5078 173,-11809 341,-16902 168,-5093 363,-8548 631,-12393 267,-3845 608,-8079 943,-11875 336,-3796 667,-7154 1086,-11364 418,-4209 925,-9271 1436,-13539 511,-4268 1026,-7743 1462,-10276 436,-2533 791,-4124 1102,-5137 312,-1012 579,-1445 778,-1708 198,-263 327,-355 392,-401 64,-47 64,-47 47,579 -17,625 -51,1876 -105,3419 -53,1542 -126,3377 -166,4807 -40,1429 -48,2454 -77,3083 -29,629 -80,862 -99,978 -18,116 -3,113 -40,146 -36,33 -124,101 -129,658 -5,557 73,1604 186,2953 114,1350 262,3002 312,4631 50,1629 1,3235 2,4094 0,859 50,971 128,1044 77,73 181,107 969,58 787,-50 2257,-182 3972,-314 1716,-132 3677,-263 5762,-417 2086,-153 4295,-328 6376,-448 2080,-119 4032,-182 5799,-289 1766,-107 3348,-258 5163,-455 1815,-197 3864,-441 5821,-660 1956,-219 3820,-413 4944,-547 1125,-134 1509,-207 1701,-316 193,-110 193,-256 222,-877 29,-620 87,-1715 104,-3031 17,-1317 -7,-2855 -22,-4286 -14,-1430 -19,-2754 -36,-3603 -17,-850 -46,-1224 -70,-1423 -23,-197 -41,-219 -80,-284 -39,-66 -99,-175 -168,-659 -69,-484 -147,-1343 -247,-2246 -99,-903 -221,-1850 -337,-2650 -115,-801 -225,-1455 -399,-2463 -174,-1007 -412,-2367 -593,-3337 -182,-970 -306,-1549 -423,-2196 -116,-648 -226,-1363 -354,-2053 -127,-690 -273,-1354 -411,-2087 -137,-732 -266,-1533 -362,-2247 -97,-714 -160,-1342 -232,-1963 -71,-622 -152,-1238 -249,-1970 -98,-733 -212,-1582 -329,-2445 -116,-862 -236,-1738 -342,-2482 -105,-743 -198,-1354 -360,-2268 -163,-915 -395,-2132 -793,-3953 -399,-1821 -964,-4245 -1650,-6668 -686,-2424 -1494,-4848 -2565,-7495 -1070,-2648 -2404,-5519 -3961,-8566 -1558,-3046 -3339,-6268 -4721,-8497 -1382,-2229 -2365,-3465 -3341,-4480 -976,-1015 -1944,-1808 -2917,-2524 -974,-715 -1952,-1352 -2500,-1715 -547,-363 -664,-450 -731,-552 -67,-103 -84,-219 -92,-293 -9,-75 -9,-106 -67,-170 -59,-63 -175,-158 -1266,-691 -1090,-533 -3153,-1504 -5138,-2518 -1984,-1015 -3889,-2073 -5584,-2880 -1695,-807 -3179,-1361 -4897,-1894 -1718,-533 -3670,-1044 -5254,-1458 -1584,-414 -2801,-730 -3640,-976 -840,-246 -1302,-421 -1979,-677 -676,-257 -1567,-595 -2522,-880 -955,-285 -1975,-516 -2628,-665 -653,-148 -940,-214 -1393,-456 -452,-242 -1070,-660 -1531,-906 -459,-246 -761,-319 -1037,-353 -277,-34 -527,-29 -752,-29 -226,0 -425,-5 -1300,-320 -875,-315 -2425,-941 -3896,-1526 -1471,-585 -2863,-1130 -4262,-1691 -1399,-561 -2805,-1138 -3692,-1518 -887,-381 -1255,-566 -1543,-754 -288,-189 -497,-380 -682,-482 -185,-101 -345,-112 -451,-112 -107,-1 -160,9 -243,-5 -84,-13 -198,-50 -568,-282 -370,-232 -995,-661 -1624,-1155 -629,-493 -1262,-1053 -1894,-1607 -631,-553 -1261,-1101 -2236,-1518 -974,-417 -2293,-704 -3602,-890 -1309,-185 -2609,-267 -4429,-343 -1820,-75 -4161,-143 -7675,-126 -3514,17 -8200,119 -12497,212 -4296,93 -8201,177 -10255,224 -2054,46 -2257,55 -4018,196 -1761,141 -5080,413 -7165,649 -2086,236 -2937,436 -3631,684 -693,248 -1229,545 -1825,1044 -596,499 -1253,1200 -1954,1816 -701,617 -1445,1150 -1889,1413 -444,263 -588,256 -873,354 -284,99 -710,303 -1226,563 -516,261 -1122,577 -1858,892 -736,315 -1603,629 -2227,875 -624,246 -1006,423 -1465,608 -458,185 -994,378 -1708,601 -714,224 -1607,480 -2475,809 -867,330 -1709,734 -2490,1041 -781,306 -1502,516 -2224,725 -723,209 -1448,418 -1987,634 -539,215 -892,437 -1168,615 -276,179 -476,316 -968,461 -491,145 -1275,300 -1851,448 -577,149 -947,291 -1440,476 -494,186 -1110,415 -1694,597 -583,183 -1133,319 -1633,445 -499,125 -948,239 -1644,412 -696,173 -1639,404 -2469,612 -829,209 -1546,395 -2101,552 -555,156 -948,283 -1390,412 -441,130 -931,262 -1381,387 -449,125 -858,242 -1269,365 -411,124 -823,254 -1164,386 -342,133 -612,268 -980,423 -368,154 -834,328 -1237,513 -404,185 -744,381 -1128,583 -384,202 -811,410 -1181,597 -370,188 -682,354 -1090,569 -408,216 -910,480 -1604,838 -693,359 -1578,811 -2606,1326 -1029,515 -2202,1091 -3078,1524 -876,434 -1455,723 -1971,1053 -516,329 -969,699 -1397,1045 -428,346 -832,667 -1309,1044 -477,377 -1027,810 -1721,1427 -695,617 -1535,1418 -2299,2256 -764,838 -1453,1714 -2076,2579 -622,865 -1180,1719 -1861,2840 -681,1120 -1487,2507 -2137,3698 -649,1189 -1143,2182 -1676,3158 -533,976 -1105,1935 -1592,2847 -486,913 -888,1779 -1270,2671 -382,891 -745,1809 -1114,2667 -370,858 -747,1656 -1244,2944 -496,1289 -1112,3067 -1661,4753 -548,1685 -1030,3276 -1441,4680 -412,1404 -752,2621 -1093,4088 -341,1467 -682,3185 -1107,5485 -426,2299 -937,5180 -1249,6845 -311,1664 -423,2112 -525,2586 -102,475 -195,976 -387,1775 -192,798 -484,1893 -781,3041 -297,1149 -599,2351 -813,3366 -214,1014 -340,1842 -557,3063 -216,1222 -523,2837 -761,4159 -239,1321 -409,2348 -512,2878 -102,531 -136,565 -197,614 -62,48 -150,112 -243,2173 -94,2062 -191,6122 -266,8344 -76,2223 -129,2607 34,2809 163,202 542,221 1372,326 830,105 2110,295 4366,730 2255,436 5487,1117 8069,1614 2581,496 4514,807 6533,1143 2020,336 4127,696 7006,1154 2879,457 6529,1012 8855,1328 2326,317 3329,394 3830,433 502,39 502,39 550,-525 48,-565 144,-1694 254,-2670 110,-977 234,-1800 381,-2842 148,-1043 318,-2303 482,-3461 165,-1159 323,-2215 404,-2808 82,-594 87,-725 73,-837 -13,-112 -45,-205 -22,-1760 23,-1555 101,-4572 143,-7023 41,-2450 46,-4333 57,-5420 11,-1086 28,-1376 64,-1566 37,-190 93,-280 171,-327 77,-47 177,-52 298,38 120,90 261,275 333,364 72,88 74,81 76,77 1,-3 1,-3 111,245 111,248 333,745 578,1416 246,672 516,1519 738,2426 221,908 394,1876 587,3432 194,1557 408,3701 715,6028 306,2328 705,4839 1421,11024 715,6186 1747,16046 2555,23721 808,7675 1392,13164 1752,19063 360,5898 496,12206 487,19019 -10,6813 -166,14133 -361,19944 -194,5810 -428,10113 -701,13958 -272,3844 -584,7231 -1401,13704 -818,6473 -2141,16031 -2910,23010 -769,6979 -983,11378 -1178,14775 -195,3397 -370,5792 -652,7860 -282,2068 -672,3811 -942,5144 -270,1334 -421,2258 -438,2840 -17,581 100,820 241,944 141,124 307,134 484,169 178,35 368,96 454,150 18,11 31,21 41,36 848,312 1695,624 3052,895 1357,271 3222,501 6284,730 3061,229 7317,456 10740,589 3423,133 6012,172 9283,175 3270,3 7222,-29 10963,-6 3741,22 7271,100 10250,185 2978,84 5405,175 7660,243 2255,68 4338,113 6570,165 2232,52 4614,111 7118,117 2505,7 5133,-39 7781,-94 2647,-55 5314,-120 7696,-214z"/>
 </g>
</svg>
