<?xml version="1.0" encoding="UTF-8"?>
<!DOCTYPE svg PUBLIC "-//W3C//DTD SVG 1.1//EN" "http://www.w3.org/Graphics/SVG/1.1/DTD/svg11.dtd">
<!-- Creator: CorelDRAW -->
<svg xmlns="http://www.w3.org/2000/svg" xml:space="preserve" width="240px" height="296px" version="1.1" shape-rendering="geometricPrecision" text-rendering="geometricPrecision" image-rendering="optimizeQuality" fill-rule="evenodd" clip-rule="evenodd"
viewBox="0 0 232252 286742"
 xmlns:xlink="http://www.w3.org/1999/xlink">
 <g id="Camada_x0020_1">
  <metadata id="CorelCorpID_0Corel-Layer"/>
  <path id="d1" fill="#F00808" d="M121274 177041c22227,-3 43235,-92 61909,-247l0 -5 2 -200c-17872,-148 -37881,-235 -59050,-245 13553,-21 26200,-145 37098,-346 -8964,-166 -19112,-279 -29973,-326 16490,-37 31882,-156 45331,-337 -15021,-202 -32465,-326 -51157,-346 16580,-64 32053,-417 45398,-990 -14792,-635 -32200,-1001 -50832,-1001l0 0 0 0c-18632,0 -36040,366 -50832,1001 13344,573 28818,926 45398,990 -18692,20 -36136,144 -51158,346 13450,181 28842,300 45332,337 -10861,47 -21009,160 -29973,326 10898,201 23545,325 37098,346 -22959,10 -44552,112 -63536,285l1 126c19770,179 42370,283 66396,286 -14632,7 -28296,134 -39956,350 2537,47 5168,89 7884,127 -2716,39 -5347,81 -7884,128 9575,177 20501,294 32205,334 -11619,40 -22467,157 -31975,334 11931,222 25971,349 41000,349 -24754,0 -47905,234 -67655,639l0 36c17199,352 36977,575 58146,627 -5706,55 -11051,160 -15846,304 7142,214 15507,341 24464,349 -21983,6 -42518,245 -60001,656 10341,243 21749,426 33893,536 -1306,51 -2584,106 -3830,163 6897,321 14731,536 23120,619 -21645,37 -41990,229 -59953,541l-1 218c17248,300 36693,488 57376,536 -6750,54 -13069,160 -18720,308 8441,222 18375,350 29007,350 -20739,0 -40115,339 -56580,928 16465,588 35841,927 56580,927 20739,0 40115,-339 56580,-927 -16465,-589 -35841,-928 -56580,-928 10632,0 20566,-128 29006,-350 -5650,-148 -11969,-254 -18719,-308 18919,-44 36803,-205 52916,-462l-4 -367c-16843,-268 -35618,-432 -55490,-466 8389,-83 16223,-298 23120,-619 -1246,-58 -2524,-112 -3829,-163 12143,-110 23551,-293 33892,-536 -17484,-411 -38018,-650 -60001,-656 8957,-8 17322,-135 24464,-349 -4795,-144 -10140,-249 -15846,-304 19354,-48 37546,-237 53667,-539l0 -212c-18737,-351 -40270,-551 -63176,-551 15029,0 29069,-127 41000,-349 -9508,-177 -20356,-294 -31975,-334 11704,-40 22630,-157 32205,-334 -2537,-47 -5169,-89 -7884,-128 2715,-38 5347,-80 7884,-127 -11660,-216 -25324,-343 -39956,-350zm76565 -123750l34 -295c-19221,-250 -40608,-411 -63274,-459 15020,-81 29050,-284 41421,-583 -14503,-351 -31286,-570 -49272,-614 6167,-85 11931,-285 17030,-576 -4695,-267 -9953,-458 -15571,-553 11072,-70 21408,-279 30457,-596 -11251,-395 -24492,-622 -38664,-622 -14172,0 -27413,227 -38664,622 9050,317 19387,526 30460,596 -5619,95 -10879,286 -15574,553 5099,291 10863,491 17030,576 -17985,44 -34770,263 -49272,614 12371,299 26401,502 41421,583 -25330,54 -49063,248 -69960,551l16 111c11988,173 24910,311 38530,407 -2299,50 -4548,103 -6741,159 15351,394 33418,622 52754,622 19336,0 37402,-228 52754,-622 -2192,-57 -4440,-110 -6739,-159 11116,-79 21766,-185 31824,-315zm-16939 -36240c-434,-114 -835,-219 -1201,-316 -17906,-312 -38197,-488 -59699,-488 15029,0 29069,-128 41000,-350 -9508,-176 -20356,-294 -31975,-334 11704,-40 22630,-157 32205,-334 -2537,-47 -5169,-89 -7884,-128 2715,-38 5347,-80 7884,-127 -11660,-216 -25324,-343 -39956,-350 18114,-2 35417,-62 51309,-167 -593,-153 -1151,-279 -1567,-374 -11036,-71 -22735,-119 -34900,-142 -2215,-14 -4464,-25 -6742,-33 10192,-44 19711,-159 28090,-330 -9626,-195 -20757,-317 -32683,-344 15345,-51 29755,-352 42427,-844 -63,-12 -124,-21 -183,-29 -277,-34 -527,-29 -752,-29 -226,0 -425,-5 -1300,-320l-6 -2c-13449,-491 -28743,-768 -44967,-768l0 0 0 0c-18276,0 -35374,352 -49981,964l-188 64c13369,563 28836,908 45388,964 -11927,27 -23057,149 -32683,344 8379,171 17898,286 28090,330 -2278,8 -4527,19 -6742,33 -13639,25 -26693,84 -38882,169 -184,111 -385,208 -729,309l-53 16c16757,119 35170,186 54506,189 -14632,7 -28296,134 -39956,350 2537,47 5168,89 7884,127 -2716,39 -5347,81 -7884,128 9575,177 20501,294 32205,334 -11620,40 -22467,158 -31975,334 11931,222 25971,350 41000,350 -23266,0 -45116,206 -64058,567l-668 165c16498,319 35231,520 55203,569 -5701,56 -11042,160 -15832,304 7142,214 15507,341 24464,349 -21984,6 -42518,245 -60001,656 10341,243 21749,426 33892,536 -1305,51 -2583,105 -3829,163 6988,325 14939,542 23454,622 -18281,49 -35341,280 -50098,647 14152,353 30422,579 47857,640 -7002,52 -13553,160 -19391,314 8441,221 18375,349 29007,349 -27736,0 -53650,339 -75670,928 22020,588 47934,928 75670,928 27736,0 53650,-340 75669,-928 -22019,-589 -47933,-928 -75669,-928 10632,0 20566,-128 29006,-349 -5837,-154 -12388,-262 -19390,-314 17435,-61 33705,-287 47857,-640 -14757,-367 -31817,-598 -50098,-647 8515,-80 16466,-297 23454,-621 -1247,-58 -2524,-113 -3830,-164 12144,-110 23552,-293 33893,-536 -17484,-411 -38018,-650 -60001,-656 8957,-8 17322,-135 24464,-349 -4791,-144 -10131,-248 -15832,-304 18443,-45 35831,-220 51377,-497zm-19413 -6402l-410 -163 -1415 -561c-12123,-346 -25543,-539 -39662,-539 -15902,0 -30918,244 -44193,678l-222 70c-372,117 -792,242 -1232,382 13628,463 29161,726 45647,726 14831,0 28891,-213 41487,-593zm-4499 -1785l-173 -69c-941,-377 -1886,-762 -2674,-1089 -10733,-208 -22211,-320 -34141,-320 10632,0 20566,-128 29006,-349 -5650,-149 -11969,-255 -18719,-310 7323,-16 14490,-51 21460,-101 -60,-35 -115,-69 -167,-103 -288,-189 -497,-380 -682,-482 -185,-101 -345,-112 -451,-112 -76,-1 -125,4 -177,2 -21,-1 -42,-3 -66,-7 -84,-13 -198,-50 -568,-282 -56,-35 -118,-74 -184,-118 -7067,-48 -14328,-78 -21743,-91 7488,-74 14533,-254 20865,-519 -93,-68 -187,-139 -283,-211l-1291 -52 1208 -11 -196 -153c-365,-285 -730,-593 -1095,-909 -8363,-76 -17074,-117 -26026,-120 8957,-7 17322,-134 24464,-349 -4791,-143 -10131,-248 -15832,-303 5579,-14 11060,-39 16423,-76 -470,-410 -957,-810 -1603,-1149 -7888,-50 -16025,-76 -24343,-76 8353,0 16400,-40 23950,-113l-68 -30c-408,-175 -876,-326 -1378,-458 -4347,-39 -8852,-67 -13479,-83 4387,-15 8665,-41 12803,-77 -502,-108 -1026,-198 -1548,-272 -1309,-185 -2609,-267 -4429,-343 -1820,-75 -4161,-143 -7675,-126 -3514,17 -8200,119 -12497,212 -4296,93 -8201,177 -10255,224 -2054,46 -2257,55 -4018,196 -428,34 -948,76 -1521,124 3603,28 7306,49 11090,62 -4363,15 -8618,41 -12733,77 -1401,122 -2879,259 -4001,386 -245,28 -473,55 -685,82 8262,90 17164,139 26444,139 -9617,0 -18992,35 -28020,102 -602,115 -1007,231 -1370,361 -531,190 -970,409 -1414,726 6897,56 14007,94 21281,112 -5701,55 -11042,160 -15832,303 7142,215 15507,342 24464,349 -10743,3 -21139,62 -31003,169 -324,309 -662,643 -1011,964 1948,22 3917,42 5906,60 -1306,51 -2584,105 -3830,163 6897,321 14731,536 23120,619 -9038,15 -17848,58 -26354,125 -387,293 -741,532 -995,683 -101,60 -186,105 -261,142 -253,122 -389,135 -605,210 8273,69 16843,114 25637,134 -6750,55 -13069,161 -18720,310 8441,221 18375,349 29007,349 -13539,0 -26497,144 -38444,409 -181,84 -371,170 -571,255 -596,255 -1277,509 -1845,727 12608,299 26402,464 40860,464 12991,0 25447,-133 36988,-377zm-112779 87867l38 110c10742,174 22321,312 34527,408 -2061,49 -4076,102 -6040,159 13754,394 29941,621 47266,621 17325,0 33512,-227 47266,-622 -1964,-56 -3978,-109 -6037,-158 9966,-79 19515,-185 28532,-316l68 -294c-17236,-251 -36418,-411 -56749,-460 13458,-80 26029,-283 37113,-583 -12994,-351 -28032,-569 -44147,-613 5526,-85 10690,-286 15259,-576 -4207,-268 -8918,-459 -13952,-554 9921,-69 19182,-279 27289,-596 -10080,-394 -21944,-622 -34642,-622 -12698,0 -24562,228 -34642,622 8108,317 17370,527 27292,596 -5035,95 -9747,286 -13955,554 4569,291 9733,491 15259,576 -16115,44 -31153,262 -44147,613 11084,300 23655,503 37113,583 -22707,54 -43981,249 -62711,552zm3769 26353l4 44c20776,204 44938,323 70744,327 -14632,7 -28296,134 -39956,349 2537,47 5168,90 7884,128 -2716,38 -5347,81 -7884,128 9575,177 20501,294 32205,334 -11620,40 -22467,157 -31975,334 11931,221 25971,349 41000,349 -25114,0 -48577,240 -68515,657 17396,363 37475,592 58992,645 -5701,55 -11042,159 -15832,303 7142,215 15507,341 24464,349 -21984,6 -42518,246 -60001,657 10341,243 21749,425 33892,536 -1305,51 -2583,105 -3829,163 6988,325 14939,542 23454,622 -18281,49 -35341,279 -50098,647 11305,281 23962,482 37484,583 -1299,59 -2563,123 -3789,193 5099,291 10863,491 17030,576 -17985,44 -34770,263 -49272,614 12371,299 26401,502 41421,583 -19997,42 -38999,172 -56397,374l49 464c7993,93 16324,171 24934,232 -2299,49 -4548,102 -6741,158 15351,394 33418,622 52754,622 19336,0 37402,-228 52754,-622 -2192,-57 -4440,-110 -6739,-159 6611,-47 13056,-103 19311,-169l54 -588c-15843,-166 -32915,-274 -50781,-312 15020,-81 29050,-284 41421,-584 -14503,-350 -31286,-569 -49272,-613 6167,-85 11931,-285 17030,-576 -1226,-70 -2490,-134 -3788,-193 13521,-101 26178,-302 37483,-583 -14757,-368 -31817,-598 -50098,-647 8515,-80 16466,-297 23454,-622 -1247,-58 -2524,-112 -3830,-163 12144,-111 23552,-293 33893,-536 -17484,-411 -38018,-651 -60001,-657 8957,-8 17322,-134 24464,-349 -4791,-144 -10131,-248 -15832,-303 20501,-51 39697,-261 56509,-595l10 -101c-19394,-385 -41959,-606 -66042,-606 15029,0 29069,-128 41000,-349 -9508,-177 -20356,-294 -31975,-334 11704,-40 22630,-157 32205,-334 -2537,-47 -5169,-90 -7884,-128 2715,-38 5347,-81 7884,-128 -11660,-215 -25324,-342 -39956,-349 23469,-3 45578,-102 65017,-273l15 -152c-15291,-135 -32233,-225 -50190,-259 -2215,-13 -4464,-24 -6742,-33 10192,-44 19711,-158 28090,-329 -9626,-196 -20757,-318 -32683,-344 16827,-57 32532,-412 46051,-993 -14792,-634 -32200,-1000 -50832,-1000l0 0 0 0c-18632,0 -36040,366 -50832,1001 13519,580 29224,935 46051,992 -11927,26 -23057,148 -32683,344 8379,171 17898,285 28090,329 -2278,9 -4527,20 -6742,33 -20227,38 -39166,148 -55906,313zm2493 23417l10 93c20204,190 43467,299 68245,303 -14632,7 -28296,134 -39956,349 2537,47 5168,90 7884,127 -2716,39 -5347,81 -7884,128 9575,177 20501,294 32205,335 -11619,40 -22467,157 -31975,334 11931,221 25971,349 41000,349 -25114,0 -48577,240 -68514,656 17398,364 37482,592 59005,645 -5706,56 -11051,160 -15846,304 7142,215 15507,341 24464,349 -21983,6 -42518,245 -60001,656 10341,243 21749,426 33893,536 -1306,51 -2584,106 -3830,164 6897,320 14731,536 23120,618 -22132,38 -42905,238 -61161,562l17 177c17541,311 37406,508 58566,556 -6750,54 -13069,160 -18720,309 8441,222 18375,349 29007,349 -20739,0 -40115,340 -56580,928 16465,588 35841,928 56580,928 20739,0 40115,-340 56580,-928 -16465,-588 -35841,-928 -56580,-928 10632,0 20566,-127 29006,-349 -5650,-149 -11969,-255 -18719,-309 19153,-44 37244,-209 53512,-471l18 -348c-17000,-274 -35992,-441 -56108,-476 8389,-82 16223,-298 23120,-618 -1246,-58 -2524,-113 -3829,-164 12143,-110 23551,-293 33892,-536 -17484,-411 -38018,-650 -60001,-656 8957,-8 17322,-134 24464,-349 -4795,-144 -10140,-248 -15846,-304 19699,-48 38193,-244 54526,-555l12 -179c-18940,-361 -40785,-567 -64047,-567 15029,0 29069,-128 41000,-349 -9508,-177 -20356,-294 -31975,-334 11704,-41 22630,-158 32205,-335 -2537,-47 -5169,-89 -7884,-128 2715,-37 5347,-80 7884,-127 -11660,-215 -25324,-342 -39956,-349 22637,-4 44009,-95 62941,-256l13 -187c-15431,-131 -32483,-216 -50521,-245 1587,-46 3114,-100 4570,-160 -5148,-215 -11178,-342 -17635,-349 15847,-7 30649,-246 43252,-657 -7454,-243 -15677,-426 -24431,-536 941,-51 1862,-105 2761,-163 -4972,-320 -10620,-536 -16667,-619 17349,-41 33541,-273 47499,-650 -13459,-363 -28994,-592 -45641,-644 4866,-54 9421,-161 13495,-310 -6085,-221 -13246,-349 -20910,-349 14950,0 28918,-339 40787,-927 -11869,-589 -25837,-928 -40787,-928 -14950,0 -28918,339 -40786,927 11868,589 25836,928 40786,928 -7664,0 -14825,128 -20910,349 4074,149 8629,256 13495,310 -16647,52 -32182,281 -45642,644 13959,377 30151,609 47500,650 -6047,83 -11695,299 -16667,619 899,58 1820,112 2761,163 -8754,110 -16977,293 -24432,536 12603,411 27406,650 43253,657 -6458,7 -12487,134 -17635,349 1456,60 2983,114 4570,160 -20129,32 -39031,134 -55822,292zm1333 14730l8 117c19892,182 42678,287 66914,291 -14632,7 -28296,134 -39956,349 2537,47 5168,90 7884,128 -2716,38 -5347,81 -7884,128 9575,176 20501,294 32205,334 -11620,40 -22467,157 -31975,334 11931,221 25971,349 41000,349 -24914,0 -48203,237 -68038,647l1 19c17285,358 37193,584 58514,635 -5701,56 -11042,160 -15832,304 7142,215 15507,341 24464,349 -21984,7 -42518,246 -60001,657 10341,243 21749,425 33892,536 -1305,51 -2583,105 -3829,163 6988,324 14939,542 23454,622 -18281,49 -35341,279 -50098,646 14152,353 30422,579 47857,640 -7002,53 -13553,161 -19391,314 8441,222 18375,350 29007,350 -24497,0 -47571,264 -67797,731l12 392c20223,467 43293,732 67785,732 22685,0 44151,-227 63264,-631l11 -593c-19116,-405 -40586,-631 -63275,-631 10632,0 20566,-128 29006,-350 -5837,-153 -12388,-261 -19390,-314 17434,-61 33705,-287 47857,-639 -14757,-368 -31817,-598 -50098,-647 8515,-80 16466,-298 23454,-622 -1247,-58 -2524,-112 -3830,-163 12144,-111 23552,-293 33893,-536 -17484,-411 -38018,-650 -60001,-657 8957,-8 17322,-134 24464,-349 -4791,-144 -10131,-248 -15832,-304 19440,-47 37706,-239 53880,-543l5 -202c-18791,-354 -40407,-556 -63408,-556 15029,0 29069,-128 41000,-349 -9508,-177 -20356,-294 -31975,-334 11704,-40 22630,-158 32205,-334 -2537,-47 -5169,-90 -7884,-128 2715,-38 5347,-81 7884,-128 -11660,-215 -25324,-342 -39956,-349 22344,-4 43455,-93 62203,-249l6 -200c-14543,-122 -30508,-203 -47367,-235 -2214,-13 -4463,-25 -6742,-33 10192,-44 19711,-159 28090,-329 -9635,-196 -20776,-319 -32715,-344 16839,-57 32555,-412 46083,-992 -14792,-635 -32200,-1001 -50832,-1001 18746,0 36261,-339 51144,-927 -14883,-589 -32398,-928 -51144,-928 -18746,0 -36261,339 -51144,928 14883,588 32398,927 51144,927 -18632,0 -36040,366 -50832,1001 13528,580 29244,935 46083,992 -11939,25 -23081,148 -32715,344 8379,170 17898,285 28090,329 -2278,8 -4527,20 -6742,33 -18700,35 -36300,131 -52080,276zm455 10821l1 38c19761,577 42944,908 67740,908 22934,0 44490,-283 63234,-782l4 -290c-18745,-499 -40302,-783 -63238,-783 -24796,0 -47979,332 -67741,909zm-236 27840l-17 531c7085,78 14426,144 21981,198 -2299,49 -4548,102 -6741,158 15351,395 33418,622 52754,622 19336,0 37402,-227 52754,-622 -2192,-56 -4440,-109 -6739,-158 5970,-43 11805,-93 17487,-151l-14 -626c-15308,-155 -31732,-256 -48889,-293 15020,-81 29050,-284 41421,-583 -14503,-351 -31286,-570 -49272,-614 6167,-85 11931,-285 17030,-575 -4695,-268 -9953,-459 -15571,-554 11072,-70 21408,-279 30457,-596 -11251,-394 -24492,-622 -38664,-622 -14172,0 -27413,228 -38664,622 9050,317 19387,527 30460,596 -5619,95 -10879,286 -15574,554 5099,290 10863,490 17030,575 -17985,44 -34770,263 -49272,614 12371,299 26401,502 41421,583 -18847,40 -36809,158 -53378,341zm-4083 43795l-29 226c9697,147 20033,265 30863,351 -2061,49 -4076,102 -6040,158 13754,394 29941,622 47266,622 17325,0 33512,-228 47266,-622 -1964,-56 -3978,-109 -6037,-159 9266,-73 18170,-170 26622,-288l-52 -350c-16708,-234 -35183,-385 -54719,-431 13458,-81 26029,-284 37113,-583 -12994,-351 -28032,-570 -44147,-614 5526,-85 10690,-285 15259,-576 -4207,-267 -8918,-458 -13952,-553 9921,-70 19182,-279 27289,-596 -10080,-395 -21944,-622 -34642,-622 -12698,0 -24561,227 -34642,622 8108,317 17370,526 27292,596 -5035,95 -9747,286 -13955,553 4569,291 9733,491 15259,576 -16115,44 -31153,263 -44147,614 11084,299 23655,502 37113,583 -21212,50 -41174,224 -58980,493zm-3768 35965l-68 346c9484,119 19480,217 29883,291 -2299,49 -4548,102 -6741,158 15351,395 33418,622 52754,622 19336,0 37402,-227 52754,-622 -2192,-56 -4440,-109 -6739,-158 6583,-47 13003,-103 19232,-168l158 -28c1815,-311 2984,-435 4097,-516 -16990,-192 -35477,-316 -54903,-358 15020,-81 29050,-284 41421,-583 -14503,-351 -31286,-570 -49272,-613 6167,-86 11931,-286 17030,-576 -1226,-70 -2490,-135 -3788,-194 13521,-100 26178,-301 37483,-583 -14757,-367 -31817,-598 -50098,-646 8515,-81 16466,-298 23454,-623 -1247,-57 -2524,-112 -3830,-163 12144,-110 23552,-293 33893,-536 -17484,-411 -38018,-650 -60001,-656 8957,-8 17322,-135 24464,-349 -4791,-144 -10131,-248 -15832,-304 21517,-53 41596,-282 58991,-645 -19937,-416 -43400,-656 -68514,-656 15029,0 29069,-128 41000,-350 -9508,-176 -20356,-294 -31975,-334 11704,-40 22630,-157 32205,-334 -2537,-47 -5169,-89 -7884,-127 2715,-38 5347,-81 7884,-128 -11660,-215 -25324,-343 -39956,-349 26474,-5 51218,-129 72350,-343l-7 -13c-17128,-174 -36629,-289 -57501,-328 -2215,-14 -4464,-25 -6742,-33 10192,-44 19711,-159 28090,-329 -9626,-196 -20757,-319 -32683,-345 16827,-56 32532,-412 46051,-992 -14792,-634 -32200,-1000 -50832,-1000l0 0 0 0c-18632,0 -36040,366 -50832,1000 13519,580 29224,936 46051,992 -11927,26 -23057,149 -32683,345 8379,170 17898,285 28090,329 -2278,8 -4527,19 -6742,33 -21128,39 -40852,157 -58131,334 21268,218 46238,345 72973,350 -14632,6 -28296,134 -39956,349 2537,47 5168,90 7884,128 -2716,38 -5347,80 -7884,127 9575,177 20501,294 32205,334 -11620,40 -22467,158 -31975,334 11931,222 25971,350 41000,350 -25114,0 -48577,240 -68515,656 17396,363 37475,592 58992,645 -5701,56 -11042,160 -15832,304 7142,214 15507,341 24464,349 -21984,6 -42518,245 -60001,656 10341,243 21749,426 33892,536 -1305,51 -2583,106 -3829,163 6988,325 14939,542 23454,623 -18281,48 -35341,279 -50098,646 11305,282 23962,483 37484,583 -1299,59 -2563,124 -3789,194 5099,291 10863,490 17030,576 -17985,43 -34770,262 -49272,613 12371,299 26401,502 41421,583 -21865,47 -42540,198 -61229,433zm43925 6406c2699,35 5233,95 7458,158 2978,84 5405,175 7660,243 1670,51 3246,88 4858,126 3879,27 7863,41 11927,41 2078,0 4134,-4 6167,-11 2150,-48 4276,-105 6213,-182 2381,-94 4477,-217 6790,-344 1094,-60 2237,-121 3471,-191 -7116,-99 -14729,-153 -22641,-153 9416,0 18214,-211 25690,-578 -2696,-132 -5564,-244 -8572,-334 5473,-127 10637,-316 15380,-555 -7325,-369 -15654,-617 -24573,-710 10165,-72 19655,-280 27973,-594 -1414,-54 -2863,-104 -4342,-151 7812,-77 15301,-181 22379,-309 480,-100 937,-199 1384,-298 -5537,-104 -11333,-193 -17344,-265 1197,-35 2376,-71 3534,-109 -12079,-395 -26294,-622 -41509,-622 -15215,0 -29430,227 -41510,622 1159,38 2337,74 3533,109 -8488,102 -16547,237 -24054,401 9376,205 19614,365 30475,471 -1479,47 -2928,98 -4342,151 8318,314 17808,522 27973,594 -8919,93 -17248,341 -24573,710 4744,239 9909,427 15383,555 -3008,90 -5878,202 -8575,334 7476,367 16274,578 25690,578 -11463,0 -22296,113 -31903,313zm31903 -147327c9416,0 18214,-212 25690,-578 -2696,-133 -5564,-245 -8572,-334 5473,-128 10637,-316 15380,-555 -7325,-369 -15654,-618 -24573,-710 10165,-72 19655,-281 27973,-595 -1414,-53 -2863,-103 -4342,-151 10861,-106 21099,-265 30475,-471 -7507,-163 -15566,-299 -24056,-401 1197,-34 2376,-70 3534,-108 -12079,-395 -26294,-622 -41509,-622 -15215,0 -29430,227 -41510,622 1159,38 2337,74 3533,109 -8488,101 -16547,237 -24054,401 9376,205 19614,364 30475,471 -1479,47 -2928,97 -4342,151 8318,313 17808,522 27973,594 -8919,92 -17248,341 -24573,710 4744,239 9909,427 15383,555 -3008,89 -5878,201 -8575,334 7476,366 16274,578 25690,578 -13719,0 -26537,161 -37428,440 10891,279 23709,440 37428,440 13719,0 26537,-161 37428,-440 -10891,-279 -23709,-440 -37428,-440zm0 -18659c18747,0 36261,-339 51144,-927 -14883,-589 -32397,-928 -51144,-928 -18746,0 -36261,339 -51144,928 14883,588 32398,927 51144,927zm0 -2000c20739,0 40115,-339 56580,-928 -16076,-574 -34929,-911 -55116,-927 7111,-15 13750,-140 19446,-348 -6085,-222 -13246,-349 -20910,-349 19994,0 38674,-340 54547,-928 -15873,-589 -34553,-928 -54547,-928 -19994,0 -38674,339 -54547,928 15873,588 34553,928 54547,928 -7664,0 -14825,127 -20910,349 5696,208 12334,333 19446,348 -20187,16 -39040,353 -55116,927 16465,589 35841,928 56580,928zm-3917 -8398c-11952,63 -23106,417 -32726,990 10663,634 23212,1000 36643,1000l0 0 0 0c13431,0 25980,-366 36643,-1001 -9620,-572 -20774,-926 -32726,-989 13474,-20 26049,-145 36877,-347 -9695,-181 -20790,-299 -32677,-337 7829,-46 15145,-160 21606,-325 -7855,-202 -16973,-325 -26742,-346 18493,-13 35758,-138 50541,-349 -11531,-164 -24570,-276 -38525,-324 11762,-96 22763,-302 32541,-596 -12060,-363 -25979,-592 -40894,-645 4360,-54 8441,-161 12091,-309 -5452,-221 -11868,-349 -18735,-349 13395,0 25910,-340 36544,-928 -10634,-588 -23149,-928 -36544,-928 -13395,0 -25910,340 -36544,928 10634,588 23149,928 36544,928 -6867,0 -13283,128 -18735,349 3650,148 7731,255 12091,309 -14916,53 -28834,282 -40894,645 9778,294 20778,500 32541,596 -13955,48 -26995,160 -38525,324 14783,211 32048,336 50541,349 -9769,21 -18887,144 -26742,346 6461,165 13776,279 21606,325 -11887,38 -22983,156 -32678,337 10828,202 23404,327 36878,347zm3917 1990c-18073,0 -34958,339 -49306,927 14348,589 31233,928 49306,928 18073,0 34958,-339 49306,-928 -14348,-588 -31233,-927 -49306,-927zm0 -8959c8437,0 16319,-211 23018,-578 -2416,-132 -4986,-244 -7680,-333 4903,-128 9530,-317 13780,-556 -6564,-369 -14026,-617 -22017,-710 9108,-72 17610,-280 25063,-594 -1267,-53 -2565,-104 -3891,-151 9732,-106 18905,-266 27306,-471 -6726,-164 -13948,-299 -21554,-401 1073,-35 2128,-71 3166,-109 -10822,-394 -23558,-622 -37191,-622 -13633,0 -26369,228 -37191,622 1037,38 2092,75 3164,109 -7605,102 -14826,237 -21552,401 8401,205 17574,365 27306,471 -1326,47 -2624,98 -3891,151 7453,314 15955,522 25063,594 -7991,93 -15453,341 -22017,710 4251,239 8879,427 13783,556 -2695,89 -5266,201 -7683,333 6699,367 14581,578 23018,578 -12292,0 -23776,161 -33535,441 9759,279 21243,440 33535,440 12292,0 23776,-161 33535,-441 -9759,-279 -21243,-440 -33535,-440zm0 -10085c17854,0 34534,-228 48708,-622 -14018,-390 -30487,-617 -48118,-622 12379,-7 23942,-233 33790,-622 -3288,-129 -6767,-241 -10403,-332 7674,-107 14916,-263 21568,-461 -13254,-394 -28851,-621 -45545,-621 16694,0 32291,-108 45545,-295 -13254,-187 -28851,-295 -45545,-295 -16694,0 -32291,108 -45545,295 13254,187 28851,295 45545,295 -16694,0 -32291,227 -45545,621 6653,199 13896,354 21572,461 -3638,91 -7118,203 -10407,333 9848,388 21411,614 33790,621 -17632,5 -34100,232 -48118,622 14174,394 30854,622 48708,622zm590 -1244l-590 0 0 0 0 0 -590 0 590 0 590 0zm3694 -4354c15076,-57 29148,-413 41261,-993 -13184,-631 -28688,-996 -45284,-1000 16698,-3 32298,-342 45563,-928 -8429,-371 -17800,-644 -27796,-794 11301,-103 21884,-301 31361,-575 -12539,-364 -27013,-593 -42524,-645 4109,-56 7959,-160 11412,-304 -5148,-215 -11178,-341 -17635,-349 15847,-6 30649,-246 43252,-657 -7454,-243 -15678,-425 -24431,-535 941,-52 1862,-106 2761,-164 -5038,-324 -10770,-542 -16908,-622 13178,-49 25476,-279 36114,-647 -10202,-352 -21930,-578 -34498,-639 5047,-52 9770,-161 13978,-314 -6085,-222 -13246,-350 -20910,-350 19994,0 38674,-339 54547,-927 -15873,-589 -34553,-928 -54547,-928 -19994,0 -38674,339 -54547,928 15873,588 34553,927 54547,927 -7664,0 -14825,128 -20910,350 4208,153 8931,262 13978,314 -12568,61 -24297,287 -34498,639 10638,368 22935,598 36114,647 -6138,80 -11870,298 -16908,622 899,58 1820,112 2761,164 -8754,110 -16978,292 -24432,536 12603,410 27406,650 43253,656 -6457,8 -12487,134 -17636,349 3454,144 7304,248 11413,304 -15511,52 -29985,281 -42525,645 9478,274 20061,472 31362,575 -9996,150 -19367,423 -27796,794 13265,586 28865,925 45563,928 -16596,4 -32100,369 -45284,1000 12114,580 26185,936 41261,993 -10686,25 -20658,148 -29284,344 7509,170 16039,285 25172,329 -10370,41 -20053,158 -28548,333 10751,222 23403,349 36944,349 13542,0 26194,-127 36944,-349 -8495,-175 -18178,-292 -28548,-333 9133,-44 17663,-159 25172,-329 -8626,-196 -18598,-319 -29284,-344zm-8201 -15362c-11952,64 -23106,418 -32726,990 10663,635 23212,1001 36643,1001l0 0 0 0c13431,0 25980,-366 36643,-1001 -9620,-572 -20774,-926 -32726,-990 13474,-20 26049,-144 36877,-346 -9695,-181 -20790,-299 -32677,-337 7829,-47 15145,-160 21606,-325 -7855,-202 -16973,-325 -26742,-347 18493,-12 35758,-137 50541,-348 -15332,-218 -33332,-345 -52603,-349 10547,-7 20397,-134 28802,-350 -1829,-47 -3726,-89 -5683,-127 1957,-39 3854,-81 5683,-128 -6902,-177 -14778,-294 -23215,-334 8376,-40 16195,-157 23049,-334 -8600,-222 -18722,-349 -29555,-349 18103,0 35017,-240 49389,-657 -12539,-363 -27013,-592 -42524,-645 4109,-55 7959,-160 11412,-303 -5148,-215 -11178,-342 -17635,-350 15847,-6 30649,-245 43252,-656 -7454,-243 -15677,-426 -24431,-536 941,-51 1862,-105 2761,-163 -4972,-320 -10620,-536 -16667,-619 17349,-41 33541,-273 47499,-650 -13459,-363 -28994,-592 -45641,-645 4866,-54 9421,-160 13495,-309 -6085,-221 -13246,-349 -20910,-349 14950,0 28918,-339 40787,-927 -11869,-589 -25837,-928 -40787,-928 -14950,0 -28918,339 -40786,927 11868,589 25836,928 40786,928 -7664,0 -14825,128 -20910,349 4074,149 8629,255 13495,309 -16647,53 -32182,282 -45642,645 13959,377 30151,609 47500,650 -6047,83 -11695,299 -16667,619 899,58 1820,112 2761,163 -8754,110 -16977,293 -24432,536 12603,411 27406,650 43253,656 -6458,8 -12487,135 -17635,350 3453,143 7303,248 11412,303 -15511,53 -29985,282 -42524,645 14372,417 31286,657 49389,657 -10834,0 -20955,127 -29555,349 6853,177 14673,294 23049,334 -8437,40 -16313,157 -23215,334 1828,47 3726,89 5683,128 -1957,38 -3855,80 -5683,127 8405,216 18255,343 28802,350 -19271,4 -37272,131 -52603,349 14783,211 32048,336 50541,348 -9769,22 -18887,145 -26742,347 6461,165 13776,278 21606,325 -11887,38 -22983,156 -32678,337 10828,202 23404,326 36878,346zm3917 1991c-18073,0 -34958,339 -49306,927 14348,589 31233,928 49306,928 18073,0 34958,-339 49306,-928 -14348,-588 -31233,-927 -49306,-927zm0 -14588c9416,0 18214,-212 25690,-578 -2696,-133 -5564,-245 -8572,-334 5473,-128 10637,-316 15380,-556 -7325,-369 -15654,-617 -24573,-710 10165,-71 19655,-280 27973,-594 -1414,-53 -2863,-103 -4342,-151 10861,-106 21099,-265 30475,-471 -7507,-164 -15566,-299 -24056,-401 1197,-35 2376,-70 3534,-108 -12079,-395 -26294,-622 -41509,-622 -15215,0 -29430,227 -41510,622 1159,38 2337,74 3533,109 -8488,101 -16547,237 -24054,400 9376,206 19614,365 30475,472 -1479,47 -2928,97 -4342,151 8318,313 17808,522 27973,593 -8919,93 -17248,341 -24573,711 4744,239 9909,427 15383,555 -3008,89 -5878,201 -8575,334 7476,366 16274,578 25690,578 -13719,0 -26537,161 -37428,440 10891,279 23709,440 37428,440 13719,0 26537,-161 37428,-440 -10891,-279 -23709,-440 -37428,-440zm0 -10086c19926,0 38543,-227 54363,-622 -15645,-390 -34026,-616 -53704,-622 13816,-7 26721,-233 37712,-621 -3669,-130 -7552,-242 -11611,-333 8565,-106 16648,-262 24072,-460 -14792,-395 -32200,-622 -50832,-622 18632,0 36040,-108 50832,-294 -14792,-187 -32200,-295 -50832,-295 -18632,0 -36040,108 -50832,295 14561,183 31656,291 49959,294 -18303,7 -35398,234 -49959,622 7425,198 15509,354 24076,460 -4060,91 -7944,203 -11615,333 10991,388 23896,614 37712,621 -19678,6 -38059,232 -53704,623 15820,394 34437,621 54363,621zm-5434 -21003c-16580,-63 -32054,-417 -45398,-990 14708,-630 32002,-996 50514,-1000 -24951,-3 -48262,-342 -68081,-928 19904,-588 43328,-927 68399,-927 25071,0 48495,339 68399,927 -19820,586 -43130,925 -68081,928 18512,4 35806,370 50514,1000 -13345,573 -28818,927 -45398,990 18691,20 36136,145 51157,347 -13449,181 -28841,299 -45331,337 10861,46 21009,159 29973,325 -10898,201 -23545,325 -37098,346 25654,12 49604,138 70112,349 -21268,218 -46238,345 -72973,349 14632,7 28296,134 39956,349 -2537,47 -5169,90 -7884,128 2715,38 5347,81 7884,128 -9575,176 -20501,294 -32205,334 11619,40 22467,157 31975,334 -11931,221 -25972,349 -41000,349 25114,0 48577,240 68515,656 -17396,364 -37475,593 -58992,645 5701,56 11041,160 15832,304 -7142,215 -15507,341 -24464,349 21983,7 42517,245 60001,657 -10341,242 -21749,425 -33892,536 1305,50 2583,105 3829,163 -6897,320 -14731,536 -23120,619 24068,41 46528,273 65892,649 -18671,363 -40221,592 -63314,645 6750,54 13069,161 18719,309 -8440,222 -18374,349 -29006,349 20739,0 40115,340 56580,928 -16465,589 -35841,928 -56580,928 -20739,0 -40115,-339 -56580,-928 16465,-588 35841,-928 56580,-928 -10632,0 -20566,-127 -29007,-349 5651,-148 11970,-255 18720,-309 -23093,-53 -44643,-282 -63314,-644 19364,-377 41824,-609 65892,-650 -8389,-83 -16223,-299 -23120,-619 1246,-58 2524,-113 3830,-163 -12144,-111 -23552,-294 -33893,-536 17483,-412 38018,-650 60001,-657 -8957,-8 -17322,-134 -24464,-349 4790,-144 10131,-248 15832,-304 -21517,-52 -41596,-281 -58991,-645 19937,-416 43400,-656 68514,-656 -15029,0 -29069,-128 -41000,-349 9508,-177 20355,-294 31975,-334 -11704,-40 -22630,-158 -32205,-334 2537,-47 5168,-90 7884,-128 -2716,-38 -5347,-81 -7884,-128 11660,-215 25324,-342 39956,-349 -26735,-4 -51705,-131 -72973,-349 20507,-211 44458,-337 70112,-349 -13553,-21 -26200,-145 -37098,-346 8964,-166 19112,-279 29973,-325 -16491,-38 -31883,-156 -45332,-337 15022,-202 32466,-327 51158,-347zm10215 15405c16827,-57 32532,-412 46051,-992 -14792,-635 -32200,-1000 -50832,-1000l0 -1 0 1c-18632,0 -36040,365 -50832,1000 13519,580 29224,935 46051,992 -11927,26 -23057,148 -32683,344 8380,170 17900,285 28094,329 -11575,42 -22381,158 -31863,333 11999,222 26119,350 41233,350 15114,0 29234,-128 41233,-350 -9482,-175 -20288,-291 -31863,-333 10194,-44 19714,-159 28094,-329 -9626,-196 -20757,-318 -32683,-344zm-4781 -1993c18747,0 36261,-339 51144,-927 -14883,-589 -32397,-928 -51144,-928 -18746,0 -36261,339 -51144,928 14883,588 32398,927 51144,927zm0 225701c18747,0 36261,-339 51144,-928 -14883,-588 -32397,-928 -51144,-928 -18746,0 -36261,340 -51144,928 14883,589 32398,928 51144,928zm0 -2001c20739,0 40115,-339 56580,-927 -16076,-575 -34929,-912 -55116,-927 7111,-16 13750,-141 19446,-348 -6085,-222 -13246,-350 -20910,-350 19994,0 38674,-339 54547,-928 -15873,-588 -34553,-928 -54547,-928 -19994,0 -38674,340 -54547,928 15873,589 34553,928 54547,928 -7664,0 -14825,128 -20910,350 5696,207 12334,332 19446,348 -20187,15 -39040,352 -55116,927 16465,588 35841,927 56580,927zm-3917 -8398c-11952,64 -23106,417 -32726,990 10663,634 23212,1000 36643,1000l0 0 0 0c13431,0 25980,-366 36643,-1000 -9620,-573 -20774,-926 -32726,-990 13474,-20 26049,-144 36877,-347 -9695,-181 -20790,-299 -32677,-336 7829,-47 15145,-160 21606,-326 -7855,-201 -16973,-325 -26742,-346 18493,-12 35758,-138 50541,-348 -11531,-165 -24570,-277 -38525,-325 11762,-95 22763,-301 32540,-595 -12059,-364 -25978,-593 -40893,-645 4360,-55 8441,-161 12091,-309 -5452,-222 -11868,-350 -18735,-350 13395,0 25910,-339 36544,-928 -10634,-588 -23149,-927 -36544,-927 -13395,0 -25910,339 -36544,927 10634,589 23149,928 36544,928 -6867,0 -13283,128 -18735,350 3650,148 7731,254 12091,309 -14916,52 -28834,281 -40894,644 9778,295 20778,501 32541,596 -13955,48 -26995,160 -38525,325 14783,210 32048,336 50541,348 -9769,21 -18887,145 -26742,346 6461,166 13776,279 21606,326 -11887,37 -22983,155 -32678,336 10828,203 23404,327 36878,347zm3917 1990c-18073,0 -34958,339 -49306,928 14348,588 31233,927 49306,927 18073,0 34958,-339 49306,-927 -14348,-589 -31233,-928 -49306,-928zm0 -8958c8437,0 16319,-212 23018,-578 -2416,-133 -4986,-245 -7680,-334 4903,-128 9530,-316 13780,-555 -6564,-369 -14026,-617 -22017,-710 9108,-72 17610,-280 25063,-595 -1267,-53 -2565,-104 -3891,-151 9732,-106 18905,-266 27306,-470 -6726,-165 -13948,-300 -21554,-401 1073,-35 2128,-71 3166,-109 -10822,-395 -23558,-622 -37191,-622 -13633,0 -26369,227 -37191,622 1037,38 2092,74 3164,109 -7605,101 -14826,237 -21552,401 8401,204 17574,364 27306,471 -1326,47 -2624,97 -3891,151 7453,314 15955,522 25063,594 -7991,93 -15454,341 -22017,710 4251,239 8879,427 13783,555 -2695,89 -5266,201 -7683,334 6699,366 14581,578 23018,578 -12292,0 -23776,161 -33535,440 9759,279 21243,440 33535,440 12292,0 23776,-161 33535,-440 -9759,-279 -21243,-440 -33535,-440zm0 -10085c17854,0 34534,-228 48708,-623 -14018,-390 -30487,-616 -48118,-621 12379,-8 23942,-234 33790,-622 -3288,-130 -6767,-242 -10403,-333 7674,-106 14916,-262 21568,-460 -13254,-395 -28851,-622 -45545,-622 16694,0 32291,-108 45545,-294 -13254,-187 -28851,-295 -45545,-295 -16694,0 -32291,108 -45544,295 13046,183 28363,291 44762,294 -16399,7 -31716,234 -44763,622 6653,198 13897,354 21572,460 -3638,91 -7118,203 -10407,333 9848,388 21411,614 33790,622 -17632,5 -34100,231 -48118,622 14174,394 30854,622 48708,622zm4284 -5599c15076,-57 29148,-412 41261,-992 -13254,-635 -28851,-1000 -45545,-1000l0 -1 0 1c-16694,0 -32291,365 -45544,1000 12113,580 26184,935 41260,992 -10686,26 -20658,149 -29284,344 7509,171 16039,285 25172,330 -10370,41 -20053,157 -28548,333 10751,221 23402,349 36944,349 13542,0 26194,-128 36944,-349 -8495,-176 -18178,-292 -28548,-333 9133,-45 17663,-159 25172,-330 -8626,-195 -18598,-318 -29284,-344zm-4284 -1993c16797,0 32489,-339 45824,-927 -8429,-372 -17800,-645 -27796,-795 11300,-102 21883,-301 31361,-575 -12539,-363 -27014,-592 -42524,-645 4109,-55 7959,-160 11412,-304 -5148,-214 -11178,-341 -17635,-349 15847,-6 30649,-245 43252,-656 -7454,-243 -15678,-426 -24432,-536 942,-51 1863,-106 2762,-163 -5038,-325 -10770,-542 -16908,-622 13178,-49 25476,-280 36114,-647 -10202,-352 -21930,-578 -34498,-640 5047,-52 9770,-160 13978,-314 -6085,-221 -13246,-349 -20910,-349 19994,0 38674,-339 54547,-928 -15873,-588 -34553,-927 -54547,-927 -19994,0 -38674,339 -54547,927 15873,589 34553,928 54547,928 -7664,0 -14825,128 -20910,349 4208,154 8931,262 13978,314 -12568,62 -24297,288 -34498,640 10638,367 22935,598 36114,647 -6138,80 -11870,297 -16908,622 899,57 1820,112 2761,163 -8754,110 -16978,293 -24432,536 12603,411 27406,650 43253,656 -6457,8 -12487,135 -17636,349 3454,144 7304,249 11413,304 -15511,53 -29985,282 -42525,645 9478,275 20062,473 31362,575 -9996,150 -19367,423 -27796,795 13335,588 29028,927 45824,927zm-3917 -13368c-11952,64 -23106,417 -32726,990 10602,630 23069,996 36413,1000 -17986,3 -34789,342 -49076,928 14348,588 31233,928 49306,928 18073,0 34958,-340 49306,-928 -14287,-586 -31090,-925 -49077,-928 13345,-4 25812,-370 36414,-1000 -9620,-573 -20774,-926 -32726,-990 13474,-20 26049,-145 36877,-347 -9695,-181 -20790,-299 -32677,-336 7829,-47 15145,-160 21606,-326 -7855,-201 -16973,-325 -26742,-346 18493,-12 35758,-138 50541,-349 -15332,-218 -33331,-345 -52603,-349 10547,-7 20397,-134 28802,-349 -1829,-47 -3726,-90 -5683,-128 1957,-38 3854,-81 5683,-127 -6902,-177 -14778,-294 -23215,-334 8376,-41 16195,-158 23049,-334 -8600,-222 -18722,-350 -29555,-350 18103,0 35017,-240 49389,-656 -12539,-364 -27013,-593 -42524,-645 4109,-56 7959,-160 11412,-304 -5148,-215 -11178,-341 -17635,-349 15847,-6 30649,-245 43252,-656 -7454,-243 -15677,-426 -24431,-537 941,-50 1862,-105 2761,-163 -4972,-320 -10620,-536 -16667,-619 17349,-41 33541,-273 47499,-649 -13459,-363 -28994,-592 -45641,-645 4866,-54 9421,-161 13495,-309 -6085,-221 -13246,-349 -20910,-349 14950,0 28918,-340 40786,-928 -11868,-589 -25836,-928 -40786,-928 -14950,0 -28918,339 -40786,928 11868,588 25836,928 40786,928 -7664,0 -14825,128 -20910,349 4074,148 8629,255 13495,309 -16647,53 -32182,282 -45642,645 13959,376 30151,608 47500,649 -6047,83 -11695,299 -16667,619 899,58 1820,113 2761,163 -8754,111 -16977,294 -24432,537 12603,411 27406,650 43253,656 -6458,8 -12487,134 -17636,349 3454,144 7304,248 11413,304 -15511,52 -29985,281 -42524,645 14372,416 31286,656 49389,656 -10834,0 -20955,128 -29555,350 6853,176 14673,293 23049,334 -8437,40 -16313,157 -23215,334 1828,46 3726,89 5683,127 -1957,38 -3855,81 -5683,128 8405,215 18255,342 28802,349 -19271,4 -37272,131 -52603,349 14783,211 32048,337 50541,349 -9769,21 -18887,145 -26742,346 6461,166 13776,279 21606,326 -11887,37 -22983,155 -32678,336 10828,202 23404,327 36878,347zm3917 -12597c9416,0 18214,-212 25690,-579 -2696,-132 -5564,-244 -8572,-334 5473,-128 10637,-316 15380,-555 -7324,-369 -15651,-617 -24568,-710 10163,-72 19651,-280 27968,-594 -1414,-54 -2863,-104 -4342,-151 10861,-107 21099,-266 30475,-471 -7507,-164 -15566,-299 -24056,-401 1197,-35 2376,-71 3534,-109 -12079,-394 -26294,-622 -41509,-622 -15215,0 -29430,228 -41510,622 1159,38 2337,74 3533,109 -8488,102 -16547,237 -24054,401 9376,205 19614,365 30475,471 -1479,47 -2928,97 -4342,151 8317,314 17805,522 27968,594 -8917,93 -17244,341 -24568,710 4743,239 9907,427 15380,555 -3008,90 -5876,202 -8572,334 7476,367 16274,579 25690,579 -13719,0 -26537,160 -37428,440 10891,279 23709,440 37428,440 13719,0 26537,-161 37428,-440 -10891,-280 -23709,-440 -37428,-440zm0 -10086c19926,0 38543,-228 54363,-622 -15645,-390 -34027,-617 -53705,-622 13817,-7 26722,-234 37713,-622 -3669,-130 -7552,-241 -11611,-332 8565,-107 16648,-263 24072,-461 -14792,-394 -32200,-622 -50832,-622 18632,0 36040,-107 50832,-294 -14792,-187 -32200,-295 -50832,-295 -18632,0 -36040,108 -50832,295 14561,184 31656,291 49959,294 -18303,7 -35398,234 -49959,623 7425,197 15509,353 24076,460 -4060,91 -7944,202 -11615,332 10991,388 23896,615 37712,622 -19678,5 -38059,232 -53704,622 15820,394 34437,622 54363,622zm4749 -5599c16839,-57 32555,-412 46083,-992 -14792,-634 -32200,-1000 -50832,-1000 18746,0 36261,-339 51144,-928 -14883,-588 -32398,-927 -51144,-927 -18746,0 -36261,339 -51144,927 14883,589 32398,928 51144,928 -18632,0 -36040,366 -50832,1000 13528,580 29244,935 46083,992 -11939,26 -23081,149 -32715,345 8380,170 17900,285 28094,329 -11574,41 -22381,158 -31863,333 11999,221 26120,349 41233,349 15114,0 29234,-128 41233,-349 -9482,-175 -20288,-292 -31863,-333 10194,-44 19714,-159 28094,-329 -9635,-196 -20776,-319 -32715,-345z"/>
  <path id="camisa_contorno" fill="none" d="M132380 286433c2381,-94 4477,-217 6790,-344 2314,-127 4844,-256 7995,-477 3150,-220 6920,-532 10132,-824 3212,-292 5866,-565 8511,-918 2644,-354 5278,-788 7407,-1210 2128,-422 3751,-831 5807,-1288 2058,-458 4549,-964 6383,-1279 1832,-314 3007,-438 4130,-519 1122,-81 2193,-120 3052,-113 860,8 1509,61 1893,91 384,31 502,37 591,42 48,2 88,4 123,6 91,-67 158,-175 172,-754 16,-652 -36,-1902 -103,-2696 -66,-793 -149,-1129 -276,-1795 -126,-667 -297,-1665 -630,-2599 -333,-935 -829,-1806 -1428,-2947 -599,-1141 -1300,-2553 -1726,-3499 -425,-947 -576,-1429 -820,-2607 -243,-1177 -579,-3051 -922,-5681 -343,-2631 -693,-6018 -1005,-8597 -311,-2580 -584,-4351 -1046,-7315 -462,-2964 -1114,-7120 -1655,-11150 -540,-4029 -968,-7932 -1304,-11831 -335,-3898 -579,-7791 -735,-11261 -155,-3470 -223,-6517 -277,-9471 -54,-2954 -92,-5815 -151,-8959 -58,-3144 -136,-6570 -105,-11649 32,-5078 173,-11809 341,-16902 168,-5093 363,-8548 631,-12393 267,-3845 608,-8079 943,-11875 336,-3796 667,-7154 1086,-11364 418,-4209 925,-9271 1436,-13539 511,-4268 1026,-7743 1462,-10276 436,-2533 791,-4124 1102,-5137 312,-1012 579,-1445 778,-1708 198,-263 327,-355 392,-401 64,-47 64,-47 47,579 -17,625 -51,1876 -105,3419 -53,1542 -126,3377 -166,4807 -40,1429 -48,2454 -77,3083 -29,629 -80,862 -99,978 -18,116 -3,113 -40,146 -36,33 -124,101 -129,658 -5,557 73,1604 186,2953 114,1350 262,3002 312,4631 50,1629 1,3235 2,4094 0,859 50,971 128,1044 77,73 181,107 969,58 787,-50 2257,-182 3972,-314 1716,-132 3677,-263 5762,-417 2086,-153 4295,-328 6376,-448 2080,-119 4032,-182 5799,-289 1766,-107 3348,-258 5163,-455 1815,-197 3864,-441 5821,-660 1956,-219 3820,-413 4944,-547 1125,-134 1509,-207 1701,-316 193,-110 193,-256 222,-877 29,-620 87,-1715 104,-3031 17,-1317 -7,-2855 -22,-4286 -14,-1430 -19,-2754 -36,-3603 -17,-850 -46,-1224 -70,-1423 -23,-197 -41,-219 -80,-284 -39,-66 -99,-175 -168,-659 -69,-484 -147,-1343 -247,-2246 -99,-903 -221,-1850 -337,-2650 -115,-801 -225,-1455 -399,-2463 -174,-1007 -412,-2367 -593,-3337 -182,-970 -306,-1549 -423,-2196 -116,-648 -226,-1363 -354,-2053 -127,-690 -273,-1354 -411,-2087 -137,-732 -266,-1533 -362,-2247 -97,-714 -160,-1342 -232,-1963 -71,-622 -152,-1238 -249,-1970 -98,-733 -212,-1582 -329,-2445 -116,-862 -236,-1738 -342,-2482 -105,-743 -198,-1354 -360,-2268 -163,-915 -395,-2132 -793,-3953 -399,-1821 -964,-4245 -1650,-6668 -686,-2424 -1494,-4848 -2565,-7495 -1070,-2648 -2404,-5519 -3961,-8566 -1558,-3046 -3339,-6268 -4721,-8497 -1382,-2229 -2365,-3465 -3341,-4480 -976,-1015 -1944,-1808 -2917,-2524 -974,-715 -1952,-1352 -2500,-1715 -547,-363 -664,-450 -731,-552 -67,-103 -84,-219 -92,-293 -9,-75 -9,-106 -67,-170 -59,-63 -175,-158 -1266,-691 -1090,-533 -3153,-1504 -5138,-2518 -1984,-1015 -3889,-2073 -5584,-2880 -1695,-807 -3179,-1361 -4897,-1894 -1718,-533 -3670,-1044 -5254,-1458 -1584,-414 -2801,-730 -3640,-976 -840,-246 -1302,-421 -1979,-677 -676,-257 -1567,-595 -2522,-880 -955,-285 -1975,-516 -2628,-665 -653,-148 -940,-214 -1393,-456 -452,-242 -1070,-660 -1531,-906 -459,-246 -761,-319 -1037,-353 -277,-34 -527,-29 -752,-29 -226,0 -425,-5 -1300,-320 -875,-315 -2425,-941 -3896,-1526 -1471,-585 -2863,-1130 -4262,-1691 -1399,-561 -2805,-1138 -3692,-1518 -887,-381 -1255,-566 -1543,-754 -288,-189 -497,-380 -682,-482 -185,-101 -345,-112 -451,-112 -107,-1 -160,9 -243,-5 -84,-13 -198,-50 -568,-282 -370,-232 -995,-661 -1624,-1155 -629,-493 -1262,-1053 -1894,-1607 -631,-553 -1261,-1101 -2236,-1518 -974,-417 -2293,-704 -3602,-890 -1309,-185 -2609,-267 -4429,-343 -1820,-75 -4161,-143 -7675,-126 -3514,17 -8200,119 -12497,212 -4296,93 -8201,177 -10255,224 -2054,46 -2257,55 -4018,196 -1761,141 -5080,413 -7165,649 -2086,236 -2937,436 -3631,684 -693,248 -1229,545 -1825,1044 -596,499 -1253,1200 -1954,1816 -701,617 -1445,1150 -1889,1413 -444,263 -588,256 -873,354 -284,99 -710,303 -1226,563 -516,261 -1122,577 -1858,892 -736,315 -1603,629 -2227,875 -624,246 -1006,423 -1465,608 -458,185 -994,378 -1708,601 -714,224 -1607,480 -2475,809 -867,330 -1709,734 -2490,1041 -781,306 -1502,516 -2224,725 -723,209 -1448,418 -1987,634 -539,215 -892,437 -1168,615 -276,179 -476,316 -968,461 -491,145 -1275,300 -1851,448 -577,149 -947,291 -1440,476 -494,186 -1110,415 -1694,597 -583,183 -1133,319 -1633,445 -499,125 -948,239 -1644,412 -696,173 -1639,404 -2469,612 -829,209 -1546,395 -2101,552 -555,156 -948,283 -1390,412 -441,130 -931,262 -1381,387 -449,125 -858,242 -1269,365 -411,124 -823,254 -1164,386 -342,133 -612,268 -980,423 -368,154 -834,328 -1237,513 -404,185 -744,381 -1128,583 -384,202 -811,410 -1181,597 -370,188 -682,354 -1090,569 -408,216 -910,480 -1604,838 -693,359 -1578,811 -2606,1326 -1029,515 -2202,1091 -3078,1524 -876,434 -1455,723 -1971,1053 -516,329 -969,699 -1397,1045 -428,346 -832,667 -1309,1044 -477,377 -1027,810 -1721,1427 -695,617 -1535,1418 -2299,2256 -764,838 -1453,1714 -2076,2579 -622,865 -1180,1719 -1861,2840 -681,1120 -1487,2507 -2137,3698 -649,1189 -1143,2182 -1676,3158 -533,976 -1105,1935 -1592,2847 -486,913 -888,1779 -1270,2671 -382,891 -745,1809 -1114,2667 -370,858 -747,1656 -1244,2944 -496,1289 -1112,3067 -1661,4753 -548,1685 -1030,3276 -1441,4680 -412,1404 -752,2621 -1093,4088 -341,1467 -682,3185 -1107,5485 -426,2299 -937,5180 -1249,6845 -311,1664 -423,2112 -525,2586 -102,475 -195,976 -387,1775 -192,798 -484,1893 -781,3041 -297,1149 -599,2351 -813,3366 -214,1014 -340,1842 -557,3063 -216,1222 -523,2837 -761,4159 -239,1321 -409,2348 -512,2878 -102,531 -136,565 -197,614 -62,48 -150,112 -243,2173 -94,2062 -191,6122 -266,8344 -76,2223 -129,2607 34,2809 163,202 542,221 1372,326 830,105 2110,295 4366,730 2255,436 5487,1117 8069,1614 2581,496 4514,807 6533,1143 2020,336 4127,696 7006,1154 2879,457 6529,1012 8855,1328 2326,317 3329,394 3830,433 502,39 502,39 550,-525 48,-565 144,-1694 254,-2670 110,-977 234,-1800 381,-2842 148,-1043 318,-2303 482,-3461 165,-1159 323,-2215 404,-2808 82,-594 87,-725 73,-837 -13,-112 -45,-205 -22,-1760 23,-1555 101,-4572 143,-7023 41,-2450 46,-4333 57,-5420 11,-1086 28,-1376 64,-1566 37,-190 93,-280 171,-327 77,-47 177,-52 298,38 120,90 261,275 333,364 72,88 74,81 76,77 1,-3 1,-3 111,245 111,248 333,745 578,1416 246,672 516,1519 738,2426 221,908 394,1876 587,3432 194,1557 408,3701 715,6028 306,2328 705,4839 1421,11024 715,6186 1747,16046 2555,23721 808,7675 1392,13164 1752,19063 360,5898 496,12206 487,19019 -10,6813 -166,14133 -361,19944 -194,5810 -428,10113 -701,13958 -272,3844 -584,7231 -1401,13704 -818,6473 -2141,16031 -2910,23010 -769,6979 -983,11378 -1178,14775 -195,3397 -370,5792 -652,7860 -282,2068 -672,3811 -942,5144 -270,1334 -421,2258 -438,2840 -17,581 100,820 241,944 141,124 307,134 484,169 178,35 368,96 454,150 18,11 31,21 41,36 848,312 1695,624 3052,895 1357,271 3222,501 6284,730 3061,229 7317,456 10740,589 3423,133 6012,172 9283,175 3270,3 7222,-29 10963,-6 3741,22 7271,100 10250,185 2978,84 5405,175 7660,243 2255,68 4338,113 6570,165 2232,52 4614,111 7118,117 2505,7 5133,-39 7781,-94 2647,-55 5314,-120 7696,-214z"/>
 </g>
</svg>
