<?xml version="1.0" encoding="UTF-8"?>
<!DOCTYPE svg PUBLIC "-//W3C//DTD SVG 1.1//EN" "http://www.w3.org/Graphics/SVG/1.1/DTD/svg11.dtd">
<!-- Creator: CorelDRAW -->
<svg xmlns="http://www.w3.org/2000/svg" xml:space="preserve" width="240px" height="296px" version="1.1" shape-rendering="geometricPrecision" text-rendering="geometricPrecision" image-rendering="optimizeQuality" fill-rule="evenodd" clip-rule="evenodd"
viewBox="0 0 240 296.307"
 xmlns:xlink="http://www.w3.org/1999/xlink"
 xmlns:xodm="http://www.corel.com/coreldraw/odm/2003">
 <defs>
   <clipPath id="id0">
    <path d="M136.796 295.988c2.461,-0.097 4.626,-0.225 7.017,-0.355 2.39,-0.131 5.006,-0.265 8.261,-0.493 3.256,-0.228 7.151,-0.55 10.471,-0.852 3.319,-0.302 6.061,-0.583 8.794,-0.949 2.732,-0.365 5.455,-0.814 7.654,-1.25 2.2,-0.436 3.876,-0.858 6.001,-1.331 2.126,-0.473 4.701,-0.996 6.595,-1.321 1.894,-0.325 3.108,-0.453 4.268,-0.536 1.16,-0.084 2.267,-0.124 3.155,-0.117 0.889,0.008 1.559,0.063 1.956,0.094 0.396,0.031 0.518,0.038 0.611,0.043 0.049,0.002 0.09,0.004 0.127,0.006 0.093,-0.07 0.162,-0.18 0.177,-0.779 0.016,-0.673 -0.037,-1.966 -0.106,-2.786 -0.069,-0.819 -0.154,-1.166 -0.285,-1.855 -0.131,-0.689 -0.307,-1.72 -0.651,-2.686 -0.345,-0.965 -0.858,-1.866 -1.476,-3.045 -0.619,-1.179 -1.343,-2.638 -1.783,-3.616 -0.44,-0.978 -0.596,-1.476 -0.848,-2.693 -0.251,-1.217 -0.598,-3.153 -0.953,-5.871 -0.354,-2.718 -0.716,-6.219 -1.038,-8.884 -0.322,-2.666 -0.603,-4.496 -1.081,-7.559 -0.478,-3.062 -1.152,-7.357 -1.71,-11.521 -0.558,-4.164 -1.001,-8.198 -1.348,-12.226 -0.347,-4.028 -0.598,-8.051 -0.759,-11.637 -0.161,-3.586 -0.231,-6.734 -0.287,-9.787 -0.055,-3.052 -0.095,-6.01 -0.156,-9.258 -0.06,-3.249 -0.14,-6.79 -0.108,-12.037 0.033,-5.248 0.179,-12.203 0.352,-17.466 0.174,-5.263 0.375,-8.834 0.652,-12.807 0.276,-3.973 0.628,-8.348 0.975,-12.271 0.347,-3.922 0.689,-7.393 1.122,-11.743 0.432,-4.35 0.955,-9.58 1.483,-13.99 0.528,-4.411 1.061,-8.002 1.512,-10.619 0.45,-2.618 0.817,-4.262 1.139,-5.308 0.321,-1.046 0.598,-1.494 0.803,-1.766 0.205,-0.271 0.338,-0.367 0.405,-0.414 0.066,-0.048 0.066,-0.048 0.049,0.598 -0.018,0.646 -0.053,1.939 -0.108,3.533 -0.056,1.594 -0.131,3.49 -0.173,4.967 -0.041,1.478 -0.049,2.536 -0.079,3.186 -0.03,0.65 -0.083,0.892 -0.102,1.011 -0.018,0.119 -0.003,0.117 -0.041,0.151 -0.038,0.034 -0.128,0.104 -0.133,0.68 -0.005,0.576 0.075,1.657 0.192,3.051 0.117,1.395 0.27,3.102 0.322,4.786 0.051,1.683 0.001,3.343 0.002,4.231 0,0.887 0.052,1.003 0.132,1.078 0.08,0.076 0.188,0.111 1.001,0.06 0.814,-0.051 2.333,-0.188 4.105,-0.324 1.773,-0.137 3.8,-0.273 5.955,-0.431 2.155,-0.158 4.438,-0.339 6.588,-0.463 2.15,-0.123 4.166,-0.188 5.992,-0.299 1.826,-0.111 3.46,-0.267 5.336,-0.47 1.876,-0.204 3.993,-0.455 6.015,-0.682 2.021,-0.226 3.947,-0.427 5.109,-0.565 1.162,-0.139 1.559,-0.214 1.758,-0.327 0.199,-0.113 0.199,-0.264 0.229,-0.906 0.03,-0.641 0.09,-1.772 0.108,-3.132 0.017,-1.361 -0.008,-2.95 -0.023,-4.429 -0.015,-1.478 -0.02,-2.846 -0.038,-3.724 -0.017,-0.877 -0.047,-1.264 -0.071,-1.469 -0.025,-0.205 -0.043,-0.227 -0.083,-0.294 -0.04,-0.068 -0.103,-0.181 -0.174,-0.682 -0.071,-0.5 -0.152,-1.388 -0.255,-2.32 -0.103,-0.933 -0.229,-1.911 -0.348,-2.739 -0.12,-0.827 -0.233,-1.504 -0.413,-2.544 -0.179,-1.042 -0.426,-2.447 -0.613,-3.449 -0.187,-1.002 -0.316,-1.601 -0.436,-2.27 -0.121,-0.668 -0.234,-1.408 -0.366,-2.121 -0.132,-0.713 -0.283,-1.399 -0.425,-2.156 -0.142,-0.757 -0.275,-1.584 -0.375,-2.322 -0.099,-0.738 -0.165,-1.387 -0.239,-2.029 -0.074,-0.643 -0.157,-1.279 -0.257,-2.036 -0.101,-0.757 -0.219,-1.634 -0.34,-2.526 -0.121,-0.891 -0.244,-1.796 -0.353,-2.565 -0.11,-0.768 -0.205,-1.399 -0.373,-2.344 -0.168,-0.945 -0.408,-2.203 -0.82,-4.085 -0.412,-1.881 -0.995,-4.386 -1.704,-6.89 -0.709,-2.505 -1.544,-5.009 -2.651,-7.745 -1.106,-2.736 -2.484,-5.703 -4.093,-8.851 -1.61,-3.149 -3.45,-6.478 -4.878,-8.781 -1.429,-2.304 -2.444,-3.581 -3.453,-4.629 -1.008,-1.049 -2.009,-1.869 -3.015,-2.608 -1.006,-0.739 -2.017,-1.398 -2.582,-1.773 -0.566,-0.375 -0.687,-0.465 -0.756,-0.571 -0.069,-0.105 -0.087,-0.226 -0.095,-0.303 -0.009,-0.077 -0.009,-0.109 -0.07,-0.174 -0.06,-0.066 -0.181,-0.164 -1.307,-0.714 -1.127,-0.551 -3.259,-1.555 -5.31,-2.603 -2.05,-1.048 -4.019,-2.142 -5.77,-2.976 -1.752,-0.833 -3.286,-1.407 -5.061,-1.957 -1.775,-0.551 -3.792,-1.079 -5.429,-1.507 -1.637,-0.427 -2.894,-0.754 -3.762,-1.008 -0.867,-0.254 -1.345,-0.435 -2.044,-0.7 -0.699,-0.266 -1.619,-0.615 -2.606,-0.909 -0.987,-0.295 -2.041,-0.533 -2.716,-0.687 -0.675,-0.153 -0.972,-0.221 -1.44,-0.471 -0.467,-0.25 -1.106,-0.683 -1.581,-0.937 -0.475,-0.254 -0.787,-0.329 -1.073,-0.365 -0.285,-0.035 -0.544,-0.03 -0.777,-0.03 -0.232,0 -0.438,-0.005 -1.342,-0.33 -0.904,-0.326 -2.506,-0.972 -4.026,-1.577 -1.52,-0.605 -2.959,-1.168 -4.404,-1.748 -1.446,-0.579 -2.9,-1.175 -3.816,-1.569 -0.917,-0.393 -1.297,-0.584 -1.594,-0.779 -0.298,-0.194 -0.514,-0.392 -0.705,-0.497 -0.191,-0.105 -0.356,-0.116 -0.467,-0.117 -0.11,0 -0.164,0.01 -0.251,-0.004 -0.086,-0.014 -0.204,-0.052 -0.587,-0.292 -0.382,-0.24 -1.028,-0.682 -1.678,-1.193 -0.65,-0.51 -1.304,-1.089 -1.956,-1.661 -0.653,-0.572 -1.304,-1.138 -2.311,-1.569 -1.007,-0.431 -2.37,-0.728 -3.723,-0.919 -1.353,-0.191 -2.695,-0.276 -4.576,-0.354 -1.881,-0.078 -4.3,-0.149 -7.931,-0.131 -3.631,0.017 -8.474,0.123 -12.914,0.219 -4.439,0.096 -8.475,0.183 -10.597,0.231 -2.123,0.048 -2.332,0.058 -4.152,0.203 -1.82,0.145 -5.249,0.427 -7.404,0.671 -2.155,0.244 -3.035,0.45 -3.752,0.707 -0.717,0.256 -1.27,0.563 -1.886,1.078 -0.616,0.516 -1.295,1.24 -2.019,1.877 -0.725,0.638 -1.494,1.189 -1.953,1.46 -0.459,0.272 -0.607,0.264 -0.901,0.366 -0.295,0.102 -0.735,0.313 -1.268,0.582 -0.533,0.269 -1.159,0.596 -1.919,0.922 -0.761,0.325 -1.656,0.65 -2.301,0.904 -0.645,0.254 -1.04,0.437 -1.514,0.628 -0.474,0.192 -1.027,0.39 -1.765,0.621 -0.738,0.232 -1.661,0.496 -2.558,0.836 -0.896,0.341 -1.766,0.759 -2.573,1.076 -0.808,0.316 -1.552,0.533 -2.299,0.749 -0.746,0.216 -1.496,0.432 -2.053,0.655 -0.557,0.222 -0.921,0.451 -1.207,0.636 -0.285,0.185 -0.491,0.326 -0.999,0.476 -0.508,0.15 -1.318,0.31 -1.914,0.463 -0.596,0.154 -0.978,0.301 -1.488,0.492 -0.51,0.192 -1.147,0.429 -1.75,0.617 -0.603,0.189 -1.171,0.329 -1.687,0.459 -0.516,0.13 -0.98,0.248 -1.7,0.426 -0.719,0.179 -1.693,0.418 -2.551,0.633 -0.857,0.216 -1.598,0.408 -2.171,0.57 -0.573,0.161 -0.979,0.292 -1.436,0.426 -0.456,0.134 -0.963,0.271 -1.427,0.4 -0.465,0.129 -0.887,0.249 -1.312,0.377 -0.424,0.128 -0.85,0.262 -1.203,0.399 -0.353,0.137 -0.632,0.277 -1.012,0.437 -0.38,0.159 -0.862,0.339 -1.279,0.53 -0.417,0.191 -0.769,0.394 -1.165,0.602 -0.397,0.209 -0.838,0.424 -1.221,0.617 -0.382,0.194 -0.705,0.366 -1.126,0.589 -0.421,0.223 -0.941,0.495 -1.657,0.865 -0.717,0.371 -1.631,0.838 -2.694,1.37 -1.063,0.532 -2.275,1.128 -3.18,1.576 -0.905,0.448 -1.504,0.747 -2.037,1.087 -0.533,0.341 -1.001,0.723 -1.443,1.08 -0.443,0.358 -0.86,0.689 -1.353,1.079 -0.493,0.39 -1.061,0.837 -1.779,1.475 -0.718,0.637 -1.586,1.465 -2.375,2.331 -0.79,0.866 -1.501,1.771 -2.145,2.665 -0.644,0.894 -1.22,1.777 -1.924,2.935 -0.704,1.158 -1.536,2.591 -2.208,3.821 -0.671,1.229 -1.181,2.255 -1.732,3.264 -0.551,1.008 -1.141,1.999 -1.644,2.942 -0.503,0.943 -0.918,1.838 -1.313,2.759 -0.395,0.922 -0.77,1.87 -1.152,2.756 -0.382,0.887 -0.772,1.712 -1.285,3.043 -0.513,1.331 -1.149,3.17 -1.716,4.911 -0.567,1.741 -1.065,3.386 -1.49,4.836 -0.425,1.451 -0.777,2.709 -1.129,4.225 -0.352,1.516 -0.704,3.291 -1.144,5.668 -0.44,2.376 -0.968,5.353 -1.29,7.073 -0.322,1.72 -0.438,2.183 -0.543,2.673 -0.106,0.491 -0.201,1.009 -0.4,1.833 -0.198,0.825 -0.5,1.957 -0.807,3.143 -0.307,1.187 -0.618,2.43 -0.84,3.478 -0.221,1.049 -0.352,1.904 -0.575,3.166 -0.224,1.262 -0.541,2.932 -0.787,4.297 -0.247,1.366 -0.423,2.427 -0.529,2.975 -0.105,0.548 -0.14,0.583 -0.204,0.634 -0.063,0.05 -0.155,0.115 -0.251,2.246 -0.096,2.13 -0.197,6.326 -0.275,8.622 -0.078,2.297 -0.133,2.694 0.035,2.902 0.169,0.209 0.561,0.229 1.419,0.337 0.857,0.108 2.18,0.305 4.51,0.755 2.332,0.45 5.671,1.154 8.339,1.667 2.668,0.513 4.664,0.835 6.751,1.182 2.088,0.347 4.265,0.719 7.24,1.192 2.975,0.472 6.746,1.046 9.15,1.373 2.404,0.327 3.44,0.407 3.958,0.447 0.518,0.041 0.518,0.041 0.568,-0.543 0.049,-0.583 0.149,-1.75 0.263,-2.759 0.114,-1.009 0.242,-1.86 0.394,-2.937 0.152,-1.077 0.328,-2.379 0.498,-3.576 0.17,-1.197 0.333,-2.289 0.417,-2.902 0.085,-0.614 0.089,-0.749 0.076,-0.865 -0.014,-0.116 -0.047,-0.211 -0.023,-1.818 0.024,-1.607 0.104,-4.725 0.147,-7.257 0.043,-2.532 0.048,-4.478 0.059,-5.601 0.011,-1.123 0.029,-1.422 0.067,-1.618 0.038,-0.197 0.095,-0.29 0.176,-0.338 0.08,-0.05 0.184,-0.055 0.308,0.038 0.124,0.094 0.27,0.285 0.345,0.376 0.074,0.092 0.076,0.085 0.078,0.081 0.001,-0.004 0.001,-0.004 0.115,0.253 0.114,0.256 0.343,0.769 0.597,1.463 0.254,0.694 0.533,1.569 0.762,2.507 0.229,0.938 0.408,1.939 0.607,3.547 0.2,1.608 0.422,3.823 0.739,6.228 0.316,2.406 0.729,5.001 1.468,11.393 0.739,6.392 1.805,16.58 2.64,24.511 0.835,7.931 1.439,13.604 1.811,19.699 0.372,6.095 0.513,12.613 0.503,19.654 -0.01,7.04 -0.171,14.604 -0.372,20.609 -0.202,6.004 -0.443,10.45 -0.725,14.423 -0.281,3.973 -0.603,7.473 -1.448,14.162 -0.845,6.688 -2.213,16.566 -3.007,23.777 -0.795,7.212 -1.016,11.758 -1.217,15.269 -0.202,3.51 -0.383,5.984 -0.674,8.122 -0.292,2.137 -0.694,3.937 -0.973,5.315 -0.279,1.378 -0.436,2.334 -0.453,2.935 -0.018,0.601 0.103,0.847 0.249,0.975 0.146,0.129 0.317,0.138 0.5,0.175 0.184,0.036 0.38,0.099 0.469,0.155 0.019,0.011 0.032,0.022 0.042,0.037 0.876,0.322 1.753,0.645 3.155,0.925 1.401,0.28 3.329,0.518 6.493,0.754 3.163,0.237 7.562,0.472 11.099,0.609 3.537,0.138 6.212,0.178 9.592,0.181 3.38,0.003 7.463,-0.03 11.329,-0.007 3.866,0.024 7.513,0.104 10.591,0.191 3.078,0.088 5.586,0.181 7.916,0.252 2.33,0.07 4.483,0.117 6.789,0.171 2.307,0.053 4.768,0.114 7.356,0.121 2.589,0.006 5.304,-0.041 8.04,-0.098 2.736,-0.057 5.492,-0.124 7.953,-0.221z"/>
   </clipPath>
 </defs>
 <g id="VETORES">
  <metadata id="CorelCorpID_0Corel-Layer"/>
  <g>
  </g>
  <g clip-path="url(#id0)">
   <g id="_1761849422720">
    <path id="_1" fill="#3BAFED" fill-rule="nonzero" d="M62.83 76.168l-19.685 11.459c0.42,1.33 0.791,2.462 1.081,3.402l18.604 -12.359 0 -2.502zm-13.069 49.818l0 -0.03 -0.171 0.14 0.171 -0.11zm21.246 73.495l-8.166 -4.933 0 -22.357 -6.355 3.712 0.601 -0.4 -3.093 1.802 0.1 12.279 8.387 5.034 -8.527 5.144 -0.331 11.228 17.404 -11.518 -0.02 0.009zm94.753 -188.102l10.359 6.274 -7.826 5.194 8.366 -4.883 2.411 1.45 0 4.374 -13.9 9.187 11.038 -6.415 -13.9 9.217 16.762 -9.758 0 8.907 -5.814 3.863 5.814 -3.372 0 3.572 -16.542 10.949 16.542 -9.588 0 7.776 -9.897 6.585 9.897 -5.754 0 7.345 -12.479 8.287 12.479 -7.266 0 3.803 -17.413 11.549 17.413 -10.128 0 5.074 -5.984 3.943 5.984 -3.463 0 4.003 -10.357 6.865 10.357 -6.014 0 9.817 -14.581 9.647 14.581 -8.456 0 10.298 -9.867 6.525 9.867 -5.734 0 2.522 -10.778 7.115 10.778 -6.264 0 9.867 -11.178 7.406 11.178 -6.495 0 1.981 17.094 -11.358c0.02,-0.09 0.04,-0.18 0.06,-0.26l-16.793 -10.108 21.767 -13.11c0.51,-2.212 1.03,-4.754 1.531,-7.916l-0.801 -0.481 -20.026 11.629 18.725 -12.429 -0.37 -0.23 -3.343 1.961 3.122 -2.072 -20.576 -12.429 27.972 -16.843c0.12,-0.4 0.24,-0.781 0.36,-1.161l-5.154 -3.102 -10.838 6.295 10.128 -6.725 -22.467 -13.541 4.273 -2.572c-3.001,-0.955 -3.229,-1.326 -7.026,-2.192 -2.751,-0.627 -2.396,-1.821 -4.883,-1.821 -1.086,0 -8.446,-3.162 -10.169,-3.823l4.134 2.462 -0.03 0.021zm13.501 253.412l0.029 -19.695 -12.619 7.316 12.619 -8.367 0 -14.101 11.149 6.696 0.26 -0.17c0.44,0.727 0.244,0.486 1.251,1.09l-1.551 -14.751 -11.098 6.685 0 -22.047 -9.528 5.534 9.528 -6.294 0 -11.969 9.997 -6.025 0.33 -22.967 -10.368 -6.255 0 -14.101 -0.23 0.11 0 -0.03 0.23 -0.14 0 -7.205 -0.23 0.139 0 -0.79 0.23 -0.14 0 -12.599 12.73 7.645 2.292 -21.196 -2.703 1.571 2.733 -1.811 1.481 -9.447 -16.733 9.767 0 13.02 -2.782 -1.641 -6.695 3.883 6.265 -4.143 -4.734 -2.863 -17.444 10.158 16.343 -10.838 -9.288 -5.595 -9.507 5.534 8.877 -5.904 -9.928 -5.994 0 -14.321 -12.369 7.205 4.113 2.472 -12.77 8.457 13.64 -7.917 4.934 2.983 -10.298 6.835 0.14 0.23 11.119 -6.495 1.25 0.741 0 2.983 -16.122 10.698 16.112 -9.367 0 30.442 -1.221 -0.71 -18.354 10.698 17.193 -11.409 -4.483 -2.692 -16.453 9.557 15.401 -10.208 -7.405 -4.453 -13.821 8.056 0 18.694 -8.116 -4.883 -5.415 3.152 5.054 -3.373 -1.931 -1.16 -16.563 9.647 15.492 -10.298 -4.593 -2.752 -27.911 16.222 26.13 -17.333 -0.4 -0.23 -24.309 14.151 20.646 -13.701 -14.471 8.396 15.632 -10.357 -3.833 -2.302 -13.191 7.686 12.34 -8.196 -3.403 -2.072 0 -23.718 -4.794 2.782 4.794 -3.152 0 -10.668 16.823 10.128 -13.36 8.877 14.271 -8.317 1.421 0.851 -6.184 4.113 6.615 -3.863 7.315 4.393 -18.274 12.139 19.515 -11.378 0.711 0.43 0 0.601 -14.781 9.787 14.781 -8.597 0 6.725 -19.034 12.62 19.034 -11.088 0 5.954 12.91 -8.536 -12.66 -7.626 0 -19.745 -0.451 0.26 0.451 -0.28 0 -4.424 -16.883 9.788 16.883 -11.179 0 -9.167 11.829 7.126 -11.829 7.856 0 0.03 12.649 -7.376 4.065 2.413 12.4 -8.227 0 -10.127 -10.018 5.814 10.018 -6.635 0 -28.962 -14.941 8.687 14.951 -9.898 0 -17.673 -18.444 10.718 8.797 -5.815 -4.514 2.613 14.161 -9.367 0 -3.773 -9.987 5.784 9.987 -6.605 0 -4.343 -2.132 1.221 2.132 -1.421 0 -5.535 -15.632 9.077 15.632 -10.357 0 -7.576 -16.142 9.387 16.142 -10.718 0 -3.663 -1.811 -1.011 -15.752 9.188 14.441 -9.598c-2.175,-0.552 -4.106,-0.65 -6.695,-0.761 -1.151,-0.05 -2.502,-0.09 -4.213,-0.12l-12.01 6.985 10.568 -6.985 -25.75 0.461c-3.352,0.095 -13.809,0.613 -16.233,2.002l8.207 4.943 -18.665 12.4 19.946 -11.629 1.501 0.91 -2.272 1.502 2.412 -1.421 7.826 4.713 -10.378 6.865 11.089 -6.435 1.331 0.821 -18.665 12.37 19.945 -11.599 5.705 3.433 -28.852 17.393 -1.902 -1.161 -20.796 12.089 19.465 -12.879 -8.056 -4.854 -10.578 6.155 9.898 -6.585 -2.753 -1.641 -31.944 18.584 29.873 -19.825 -1.191 -0.711 -26.21 15.231 24.539 -16.251 -1.842 -1.111 -16.342 9.506 15.292 -10.157 -5.054 -3.002 -10.408 6.074 9.757 -6.495 -0.6 -0.34 14.201 -8.566 -6.525 2.381c-4.461,1.361 -1.665,1.074 -6.155,2.233l-4.934 1.551c-0.25,0.06 -0.49,0.12 -0.75,0.19l0.47 0.29 -15.542 10.298 16.623 -9.677 2.101 1.281 -28.852 17.393 -0.74 -0.45c0.09,0.33 0.18,0.67 0.27,1.03l0.36 -0.22 0 1.652c0.581,2.381 1.191,5.104 1.702,7.766 2.723,14.069 3.275,26.405 7.856,40.851l18.955 -12.58 0 0.03 0.82 -0.51 0 -5.534 -15.602 9.077 15.602 -10.358 0 -13.019 29.023 -17.444 20.876 12.57 -8.597 5.704 9.187 -5.334 1.562 0.941 -4.283 2.832 4.563 -2.662 0.09 0.06 -9.928 6.585 10.608 -6.184 4.734 2.862 -28.972 17.523 0 1.672 -13.36 8.877 13.36 -7.806 0 5.023 -12.45 8.256 12.45 -7.235 0 1.641 -5.755 3.803 5.755 -3.342 0 13.05 -8.767 5.814 8.767 -5.104 0 10.328 -28.883 17.393 0 -22.607 -13.25 7.716 13.25 -8.796 0 -13.561 -16.963 9.868 16.963 -11.259 0 -5.394 -18.584 10.828c0.91,2.982 0.991,4.197 -0.14,6.315 0.917,-0.304 2.079,4.172 2.222,4.754l1.911 13.8 3.463 2.082 -2.952 1.951c0.02,0.13 0.03,0.27 0.05,0.41l3.463 -2.021 4.934 2.982 -7.696 5.114c0.02,0.15 0.03,0.3 0.05,0.45l8.586 -4.994 1.811 1.082 -10.087 6.705c0.01,0.13 0.03,0.25 0.04,0.38l11.068 -6.455 1.672 0.99c0,0 0,0.03 0.03,0.03l7.325 4.423 -14.07 9.338 15.031 -8.767 8.767 5.284 -11.009 7.315 11.77 -6.835 2.351 1.391 -6.775 4.514 7.236 -4.223 8.286 4.994 -28.912 17.443 -9.249 5.54 0.56 12.22 8.847 -5.875 0 -11.578 17.254 10.378 -15.522 10.328 16.592 -9.678 2.302 1.392 -4.453 2.952 4.763 -2.752 3.633 2.181 -7.206 4.764 7.686 -4.483 4.074 2.301 28.883 -17.394 0 12.91 -7.576 5.024 7.576 -4.393 0 0.31 -9.618 6.385 9.618 -5.615 0 14.131 -10.749 7.115 10.749 -6.244 0 5.134 -28.993 17.473 -6.895 -4.144 -18.104 10.528 16.933 -11.229 -11.479 -6.955 -18.684 10.858 -0.741 12.84 1.261 0.75 -1.401 0.931c0,0.07 -0.009,0.14 -0.02,0.22l1.672 -0.981 5.274 3.173 -7.716 5.124c-0.02,0.2 -0.05,0.4 -0.07,0.61l8.817 -5.144 1.791 1.111 -10.918 6.575 -1.611 12.42 12.9 -8.557 0 -10.358 28.882 -17.413 0 4.003 -8.366 5.534 8.366 -4.854 0 1.531 -15.202 10.098 15.202 -8.847 0 2.042 -2.692 1.791 2.692 -1.561 0 9.868 -12.57 8.336 12.57 -7.316 0 10.609 -10.918 7.265 10.918 -6.355 0 2.642 -28.882 17.394 0 -23.238 -12.92 7.516c-0.341,2.651 -0.681,5.314 -0.981,7.796l0.2 0.12 -0.23 0.15c-0.05,0.431 -0.101,0.841 -0.151,1.261l1.402 -0.811 3.432 2.072 -5.354 3.543c-0.01,0.13 -0.02,0.25 -0.04,0.37l6.034 -3.513 4.624 2.782 -11.118 7.406 11.889 -6.925 2.832 1.701 -15.062 9.067c-0.439,7.829 -0.553,9.05 -1.891,15.762l7.136 4.333 -0.651 0.43 0.991 -0.27c1.087,0.679 1.094,0.507 3.153,0.65 1.921,0.14 4.313,0.281 6.695,0.401l0 -21.216 -2.132 1.22 2.132 -1.391 0 -8.767 14.891 8.967 -8.967 5.925 9.588 -5.565 7.145 4.284 -3.062 2.041 3.262 -1.901 2.042 1.221 -8.797 5.844 9.387 -5.474 3.432 2.043 7.326 4.424 -13.121 8.716 14.111 -8.116 7.346 4.423 -5.975 3.973c0.34,0.01 0.68,0.021 1.011,0.04l5.894 -3.442 1.702 1.021 -2.523 1.671 2.692 -1.561 4.394 2.642 6.424 0.09 0 -21.477 -19.284 11.239 19.295 -12.8 0 -8.366 28.992 -17.474 6.215 3.743 -14.131 9.357 15.092 -8.797 7.436 4.484 -9.588 6.355 10.238 -5.955 5.705 3.433 -8.056 5.334 8.596 -4.994 2.272 1.36 -14.521 9.648 15.542 -9.047 4.053 2.472 -28.972 17.533 4.683 2.892 -9.277 6.155 9.897 -5.784 6.666 4.033 -1.392 0.911 1.471 -0.851 1.622 0.961 -6.126 4.073c0.181,-0.01 0.371,-0.03 0.551,-0.05l6.225 -3.633 4.373 2.632 10.658 -1.65 -0.03 -27.221 0.022 -0.04zm-73.247 -154.728l1.221 -0.71 -1.251 0.74 0.03 -0.03zm-2.722 -24.028l17.753 -11.769 0 -4.623 -3.862 2.241 3.862 -2.551 0 -3.834 -19.655 11.439 19.655 -13.05 0 -4.083 -10.948 6.385 10.948 -7.296 0 -4.283 15.543 9.367 0.68 -0.45 0.821 1.361 6.014 3.602 -19.315 12.82 7.346 -4.283 -0.601 0.43 13.931 -8.116 4.314 2.582 -28.733 17.303 0 -12.37 -28.142 16.393 14.211 -9.417 -3.833 2.211 0.011 -0.009zm8.737 -17.163l1.591 -1.05 0.06 0.089 -1.651 0.961zm8.796 171.06l-8.026 5.334 8.026 -4.684 0 1.421 -15.071 10.018 15.061 -8.767 0 13.3 -14.471 9.617 14.471 -8.426 0 6.925 -28.852 17.413 0 -22.187 -14.841 8.627 14.841 -9.848 0 -11.378 28.852 -17.394 0.01 10.029zm-19.034 -2.982l0.4 -0.26 0 0.03 -0.4 0.23zm-0.511 -17.023l16.053 -10.668 -3.093 1.811 16.313 -10.808 -3.913 -2.352 -7.176 4.173 6.725 -4.453 -4.994 -3.003 28.733 -17.303 0 11.459 9.417 -6.245 -9.217 -5.564 -8.317 -4.994 -17.583 10.238 16.483 -10.918 -19.525 -11.749 28.852 -17.393 4.684 2.812 -12.83 8.506 13.701 -7.966 9.637 5.815 -12.339 8.196 13.19 -7.686 5.584 3.372 -10.608 7.006 11.319 -6.585 2.071 1.251 -13.25 8.766 14.151 -8.226 3.663 2.212 0 2.582 -10.699 7.095 10.699 -6.215 0 7.406 -8.367 5.564 8.367 -4.884 0 4.483 -11.919 7.916 11.919 -6.925 0 17.734 -5.955 -3.573 -4.934 2.862 4.624 -3.062 -1.621 -0.961 -15.742 9.167 14.721 -9.787 -10.128 -6.095 -10.068 5.875 0 3.712 -9.337 6.185 9.337 -5.414 0 7.315 0.341 0.541 -0.341 0.2 0 10.578 -3.372 -2.012 -9.698 5.615 9.077 -6.015 -4.933 -2.982 -10.528 6.154 9.847 -6.555 -7.516 -4.543 -31.514 18.324 0.009 0.011zm48.798 27.15l-7.546 -4.543 -12.089 7.005 11.289 -7.465 -20.506 -12.36 28.852 -17.393 10.838 6.525 -19.205 12.77 20.506 -11.969 8.116 4.884 -7.266 4.823 7.776 -4.513 3.743 2.271 -11.089 7.346 11.859 -6.896 3.573 2.152 -28.851 17.363zm-96.775 -228.443l-9.728 6.465 12.53 -7.306c-1.043,0.241 -2.181,0.42 -2.992,0.961l0.2 -0.11 -0.01 -0.01zm134.725 233.387l5.564 -3.242c-0.04,-0.261 -0.08,-0.531 -0.13,-0.811l-10.859 7.196 5.415 -3.153 0.01 0.01zm10.608 36.738l3.222 -1.872c0,-0.15 -0.01,-0.31 -0.02,-0.47l-3.532 2.342c0.12,0 0.22,0 0.33,0l0 0zm-6.505 -49.758c-0.03,-0.25 -0.07,-0.49 -0.101,-0.74l-9.737 6.475 9.838 -5.735zm14.671 -199.261c0.08,-0.32 0.16,-0.63 0.24,-0.931l-9.998 6.606 9.758 -5.675zm-20.196 111.715l3.913 -2.282c0,-0.12 0.02,-0.23 0.03,-0.35l-3.943 2.632zm-7.345 -6.065l12.159 -7.075c0.03,-0.37 0.07,-0.751 0.1,-1.121l-12.259 8.136 0 0.06z"/>
    <path id="_1_0" fill="#3BAFED" fill-rule="nonzero" d="M239.658 120.051c0.659,-0.363 0.2,-12.192 0.2,-13.67l-0.03 -0.03 -0.03 -0.14 0 -0.06 -0.03 -0.001 -0.171 -0.71 -1.03 -7.596 -0.811 -4.493 -5.004 3.612 -7.235 -3.572 -17.164 11.999 15.943 -12.6 -12.029 -5.954 -14.501 10.147 -0.481 12.6 0 0.14 -0.03 0 0 0.03c-0.285,0.183 -0.044,2.424 0.04,3.493l4.723 2.332 -4.383 3.463c0,0.29 0,0.58 0,0.87l5.424 -3.793 1.872 0.941 -7.316 5.284c0,1.823 -0.514,1.387 5.243,0.991 0.931,-0.07 1.922,-0.15 2.963,-0.231l-0.501 -6.014 27.322 -19.715 0.34 3.943 -7.886 6.245 7.946 -5.564 0.11 1.561 -14.301 11.319 14.411 -10.098 0.17 2.042 -2.552 2.011 2.582 -1.791 0.821 9.847 -5.784 4.574c0.31,-0.04 0.63,-0.07 0.95,-0.11l4.925 -3.443 0.24 2.862 5.044 -0.721zm-28.713 -33.866l-8.536 -4.203 -0.671 -8.086 -1.761 7.176 2.081 1.03c-3.512,2.53 -2.816,1.569 -3.543,3.793 -3.264,9.999 -0.6,5.021 -0.79,10.418 0.05,-0.05 0.05,-0.05 0.06,0.3l13.16 -10.417 0 -0.011zm-0.45 -33.445l7.095 3.513 -14.641 11.578 15.742 -11.038 2.412 1.191 -4.204 3.342 4.544 -3.172 3.773 1.872 -6.775 5.364 7.315 -5.104 4.093 2.011 0.151 -0.06 1.691 -1.221c-1.818,-5.768 -4.072,-10.551 -7.015,-16.242l-10.699 7.486 10.338 -8.167c-0.23,-0.44 -0.47,-0.87 -0.7,-1.301l-8.497 5.955 8.196 -6.505c-0.14,-0.25 -0.27,-0.49 -0.4,-0.731l-2.062 1.452 1.992 -1.571 -2.482 -4.204 -1.331 0.931 1.281 -1.011c-0.971,-1.521 -1.751,-2.561 -2.502,-3.392l-11.479 8.287 -1.272 8.085 5.455 2.673 -0.019 -0.021zm-207.841 43.263c-0.17,0.83 -0.29,1.571 -0.45,2.502l2.211 -0.971 -1.762 -1.531 0.001 0zm18.795 16.332l-10.919 4.033 -0.651 3.663 -3.903 1.711 0.801 0.15 3.003 -1.111 -0.29 1.651 10.878 2.012 10.008 -4.383 -8.907 -7.746 -0.02 0.02zm-10.929 4.003l10.358 -4.513 -8.146 -7.065 -7.325 -6.355 -3.413 1.261 -1.301 7.065 -0.03 0.03 0 0.06 -0.03 0 0 0.06 -0.031 0 0 0.03 -0.029 0 -0.281 2.873 12.169 -4.714 -1.961 11.288 0.02 -0.02zm-0.17 -53.44c-0.22,0.67 -0.43,1.331 -0.631,1.971l1.942 -0.841 -1.311 -1.13zm2.212 1.951l-3.203 1.181 -1.681 6.105 8.837 -3.873 -3.953 -3.413zm10.188 9.187l-14.072 6.155 14.872 -5.504 8.517 7.405 -13.591 5.955 14.322 -5.304 4.933 4.254 -11.659 5.103 12.28 -4.543 1.811 1.591 -14.551 6.355 15.372 -5.674 3.203 2.812 -0.431 2.552 -11.769 5.164 11.599 -4.313 -1.251 7.295 -9.217 4.053 9.077 -3.372 -0.771 4.423 -13.11 5.755 12.941 -4.794 -3.033 17.473 -5.274 -4.543 -5.334 1.961 5.074 -2.211 -1.451 -1.251 -10.128 3.743 17.273 2.692 0 -0.03c0,0 3.743,-1.451 3.743,-1.451 0.183,-2.179 1.663,-11.118 1.511,-12.059l0.291 -16.032c0.049,-0.328 0.862,-1.265 0.97,-2.612 0.007,-0.078 0.181,-2.032 -0.44,-2.572l0.019 -0.002 0.061 -0.46c-0.431,-1.641 -1.332,-4.084 -2.272,-7.406 -3.026,-10.606 -4.068,-19.663 -5.735,-30.423l-12.139 4.493 12.009 -5.254 -1.642 -9.156 -0.61 -0.531 -10.298 3.803 9.758 -4.283 -8.767 -7.596 0.27 -1.531c-0.351,0.411 -0.681,0.821 -1.011,1.241l0.49 0.411 -0.51 2.952 -3.163 1.401c-0.24,0.41 -0.49,0.83 -0.73,1.251l3.673 -1.351 -5.244 29.982 -1.051 -0.911 -10.048 3.713c-0.14,0.631 -0.28,1.311 -0.43,2.062l11.579 -4.474 4.083 3.573 0.001 0.02z"/>
   </g>
  </g>
  <path fill="none" d="M136.796 295.988c2.461,-0.097 4.626,-0.225 7.017,-0.355 2.39,-0.131 5.006,-0.265 8.261,-0.493 3.256,-0.228 7.151,-0.55 10.471,-0.852 3.319,-0.302 6.061,-0.583 8.794,-0.949 2.732,-0.365 5.455,-0.814 7.654,-1.25 2.2,-0.436 3.876,-0.858 6.001,-1.331 2.126,-0.473 4.701,-0.996 6.595,-1.321 1.894,-0.325 3.108,-0.453 4.268,-0.536 1.16,-0.084 2.267,-0.124 3.155,-0.117 0.889,0.008 1.559,0.063 1.956,0.094 0.396,0.031 0.518,0.038 0.611,0.043 0.049,0.002 0.09,0.004 0.127,0.006 0.093,-0.07 0.162,-0.18 0.177,-0.779 0.016,-0.673 -0.037,-1.966 -0.106,-2.786 -0.069,-0.819 -0.154,-1.166 -0.285,-1.855 -0.131,-0.689 -0.307,-1.72 -0.651,-2.686 -0.345,-0.965 -0.858,-1.866 -1.476,-3.045 -0.619,-1.179 -1.343,-2.638 -1.783,-3.616 -0.44,-0.978 -0.596,-1.476 -0.848,-2.693 -0.251,-1.217 -0.598,-3.153 -0.953,-5.871 -0.354,-2.718 -0.716,-6.219 -1.038,-8.884 -0.322,-2.666 -0.603,-4.496 -1.081,-7.559 -0.478,-3.062 -1.152,-7.357 -1.71,-11.521 -0.558,-4.164 -1.001,-8.198 -1.348,-12.226 -0.347,-4.028 -0.598,-8.051 -0.759,-11.637 -0.161,-3.586 -0.231,-6.734 -0.287,-9.787 -0.055,-3.052 -0.095,-6.01 -0.156,-9.258 -0.06,-3.249 -0.14,-6.79 -0.108,-12.037 0.033,-5.248 0.179,-12.203 0.352,-17.466 0.174,-5.263 0.375,-8.834 0.652,-12.807 0.276,-3.973 0.628,-8.348 0.975,-12.271 0.347,-3.922 0.689,-7.393 1.122,-11.743 0.432,-4.35 0.955,-9.58 1.483,-13.99 0.528,-4.411 1.061,-8.002 1.512,-10.619 0.45,-2.618 0.817,-4.262 1.139,-5.308 0.321,-1.046 0.598,-1.494 0.803,-1.766 0.205,-0.271 0.338,-0.367 0.405,-0.414 0.066,-0.048 0.066,-0.048 0.049,0.598 -0.018,0.646 -0.053,1.939 -0.108,3.533 -0.056,1.594 -0.131,3.49 -0.173,4.967 -0.041,1.478 -0.049,2.536 -0.079,3.186 -0.03,0.65 -0.083,0.892 -0.102,1.011 -0.018,0.119 -0.003,0.117 -0.041,0.151 -0.038,0.034 -0.128,0.104 -0.133,0.68 -0.005,0.576 0.075,1.657 0.192,3.051 0.117,1.395 0.27,3.102 0.322,4.786 0.051,1.683 0.001,3.343 0.002,4.231 0,0.887 0.052,1.003 0.132,1.078 0.08,0.076 0.188,0.111 1.001,0.06 0.814,-0.051 2.333,-0.188 4.105,-0.324 1.773,-0.137 3.8,-0.273 5.955,-0.431 2.155,-0.158 4.438,-0.339 6.588,-0.463 2.15,-0.123 4.166,-0.188 5.992,-0.299 1.826,-0.111 3.46,-0.267 5.336,-0.47 1.876,-0.204 3.993,-0.455 6.015,-0.682 2.021,-0.226 3.947,-0.427 5.109,-0.565 1.162,-0.139 1.559,-0.214 1.758,-0.327 0.199,-0.113 0.199,-0.264 0.229,-0.906 0.03,-0.641 0.09,-1.772 0.108,-3.132 0.017,-1.361 -0.008,-2.95 -0.023,-4.429 -0.015,-1.478 -0.02,-2.846 -0.038,-3.724 -0.017,-0.877 -0.047,-1.264 -0.071,-1.469 -0.025,-0.205 -0.043,-0.227 -0.083,-0.294 -0.04,-0.068 -0.103,-0.181 -0.174,-0.682 -0.071,-0.5 -0.152,-1.388 -0.255,-2.32 -0.103,-0.933 -0.229,-1.911 -0.348,-2.739 -0.12,-0.827 -0.233,-1.504 -0.413,-2.544 -0.179,-1.042 -0.426,-2.447 -0.613,-3.449 -0.187,-1.002 -0.316,-1.601 -0.436,-2.27 -0.121,-0.668 -0.234,-1.408 -0.366,-2.121 -0.132,-0.713 -0.283,-1.399 -0.425,-2.156 -0.142,-0.757 -0.275,-1.584 -0.375,-2.322 -0.099,-0.738 -0.165,-1.387 -0.239,-2.029 -0.074,-0.643 -0.157,-1.279 -0.257,-2.036 -0.101,-0.757 -0.219,-1.634 -0.34,-2.526 -0.121,-0.891 -0.244,-1.796 -0.353,-2.565 -0.11,-0.768 -0.205,-1.399 -0.373,-2.344 -0.168,-0.945 -0.408,-2.203 -0.82,-4.085 -0.412,-1.881 -0.995,-4.386 -1.704,-6.89 -0.709,-2.505 -1.544,-5.009 -2.651,-7.745 -1.106,-2.736 -2.484,-5.703 -4.093,-8.851 -1.61,-3.149 -3.45,-6.478 -4.878,-8.781 -1.429,-2.304 -2.444,-3.581 -3.453,-4.629 -1.008,-1.049 -2.009,-1.869 -3.015,-2.608 -1.006,-0.739 -2.017,-1.398 -2.582,-1.773 -0.566,-0.375 -0.687,-0.465 -0.756,-0.571 -0.069,-0.105 -0.087,-0.226 -0.095,-0.303 -0.009,-0.077 -0.009,-0.109 -0.07,-0.174 -0.06,-0.066 -0.181,-0.164 -1.307,-0.714 -1.127,-0.551 -3.259,-1.555 -5.31,-2.603 -2.05,-1.048 -4.019,-2.142 -5.77,-2.976 -1.752,-0.833 -3.286,-1.407 -5.061,-1.957 -1.775,-0.551 -3.792,-1.079 -5.429,-1.507 -1.637,-0.427 -2.894,-0.754 -3.762,-1.008 -0.867,-0.254 -1.345,-0.435 -2.044,-0.7 -0.699,-0.266 -1.619,-0.615 -2.606,-0.909 -0.987,-0.295 -2.041,-0.533 -2.716,-0.687 -0.675,-0.153 -0.972,-0.221 -1.44,-0.471 -0.467,-0.25 -1.106,-0.683 -1.581,-0.937 -0.475,-0.254 -0.787,-0.329 -1.073,-0.365 -0.285,-0.035 -0.544,-0.03 -0.777,-0.03 -0.232,0 -0.438,-0.005 -1.342,-0.33 -0.904,-0.326 -2.506,-0.972 -4.026,-1.577 -1.52,-0.605 -2.959,-1.168 -4.404,-1.748 -1.446,-0.579 -2.9,-1.175 -3.816,-1.569 -0.917,-0.393 -1.297,-0.584 -1.594,-0.779 -0.298,-0.194 -0.514,-0.392 -0.705,-0.497 -0.191,-0.105 -0.356,-0.116 -0.467,-0.117 -0.11,0 -0.164,0.01 -0.251,-0.004 -0.086,-0.014 -0.204,-0.052 -0.587,-0.292 -0.382,-0.24 -1.028,-0.682 -1.678,-1.193 -0.65,-0.51 -1.304,-1.089 -1.956,-1.661 -0.653,-0.572 -1.304,-1.138 -2.311,-1.569 -1.007,-0.431 -2.37,-0.728 -3.723,-0.919 -1.353,-0.191 -2.695,-0.276 -4.576,-0.354 -1.881,-0.078 -4.3,-0.149 -7.931,-0.131 -3.631,0.017 -8.474,0.123 -12.914,0.219 -4.439,0.096 -8.475,0.183 -10.597,0.231 -2.123,0.048 -2.332,0.058 -4.152,0.203 -1.82,0.145 -5.249,0.427 -7.404,0.671 -2.155,0.244 -3.035,0.45 -3.752,0.707 -0.717,0.256 -1.27,0.563 -1.886,1.078 -0.616,0.516 -1.295,1.24 -2.019,1.877 -0.725,0.638 -1.494,1.189 -1.953,1.46 -0.459,0.272 -0.607,0.264 -0.901,0.366 -0.295,0.102 -0.735,0.313 -1.268,0.582 -0.533,0.269 -1.159,0.596 -1.919,0.922 -0.761,0.325 -1.656,0.65 -2.301,0.904 -0.645,0.254 -1.04,0.437 -1.514,0.628 -0.474,0.192 -1.027,0.39 -1.765,0.621 -0.738,0.232 -1.661,0.496 -2.558,0.836 -0.896,0.341 -1.766,0.759 -2.573,1.076 -0.808,0.316 -1.552,0.533 -2.299,0.749 -0.746,0.216 -1.496,0.432 -2.053,0.655 -0.557,0.222 -0.921,0.451 -1.207,0.636 -0.285,0.185 -0.491,0.326 -0.999,0.476 -0.508,0.15 -1.318,0.31 -1.914,0.463 -0.596,0.154 -0.978,0.301 -1.488,0.492 -0.51,0.192 -1.147,0.429 -1.75,0.617 -0.603,0.189 -1.171,0.329 -1.687,0.459 -0.516,0.13 -0.98,0.248 -1.7,0.426 -0.719,0.179 -1.693,0.418 -2.551,0.633 -0.857,0.216 -1.598,0.408 -2.171,0.57 -0.573,0.161 -0.979,0.292 -1.436,0.426 -0.456,0.134 -0.963,0.271 -1.427,0.4 -0.465,0.129 -0.887,0.249 -1.312,0.377 -0.424,0.128 -0.85,0.262 -1.203,0.399 -0.353,0.137 -0.632,0.277 -1.012,0.437 -0.38,0.159 -0.862,0.339 -1.279,0.53 -0.417,0.191 -0.769,0.394 -1.165,0.602 -0.397,0.209 -0.838,0.424 -1.221,0.617 -0.382,0.194 -0.705,0.366 -1.126,0.589 -0.421,0.223 -0.941,0.495 -1.657,0.865 -0.717,0.371 -1.631,0.838 -2.694,1.37 -1.063,0.532 -2.275,1.128 -3.18,1.576 -0.905,0.448 -1.504,0.747 -2.037,1.087 -0.533,0.341 -1.001,0.723 -1.443,1.08 -0.443,0.358 -0.86,0.689 -1.353,1.079 -0.493,0.39 -1.061,0.837 -1.779,1.475 -0.718,0.637 -1.586,1.465 -2.375,2.331 -0.79,0.866 -1.501,1.771 -2.145,2.665 -0.644,0.894 -1.22,1.777 -1.924,2.935 -0.704,1.158 -1.536,2.591 -2.208,3.821 -0.671,1.229 -1.181,2.255 -1.732,3.264 -0.551,1.008 -1.141,1.999 -1.644,2.942 -0.503,0.943 -0.918,1.838 -1.313,2.759 -0.395,0.922 -0.77,1.87 -1.152,2.756 -0.382,0.887 -0.772,1.712 -1.285,3.043 -0.513,1.331 -1.149,3.17 -1.716,4.911 -0.567,1.741 -1.065,3.386 -1.49,4.836 -0.425,1.451 -0.777,2.709 -1.129,4.225 -0.352,1.516 -0.704,3.291 -1.144,5.668 -0.44,2.376 -0.968,5.353 -1.29,7.073 -0.322,1.72 -0.438,2.183 -0.543,2.673 -0.106,0.491 -0.201,1.009 -0.4,1.833 -0.198,0.825 -0.5,1.957 -0.807,3.143 -0.307,1.187 -0.618,2.43 -0.84,3.478 -0.221,1.049 -0.352,1.904 -0.575,3.166 -0.224,1.262 -0.541,2.932 -0.787,4.297 -0.247,1.366 -0.423,2.427 -0.529,2.975 -0.105,0.548 -0.14,0.583 -0.204,0.634 -0.063,0.05 -0.155,0.115 -0.251,2.246 -0.096,2.13 -0.197,6.326 -0.275,8.622 -0.078,2.297 -0.133,2.694 0.035,2.902 0.169,0.209 0.561,0.229 1.419,0.337 0.857,0.108 2.18,0.305 4.51,0.755 2.332,0.45 5.671,1.154 8.339,1.667 2.668,0.513 4.664,0.835 6.751,1.182 2.088,0.347 4.265,0.719 7.24,1.192 2.975,0.472 6.746,1.046 9.15,1.373 2.404,0.327 3.44,0.407 3.958,0.447 0.518,0.041 0.518,0.041 0.568,-0.543 0.049,-0.583 0.149,-1.75 0.263,-2.759 0.114,-1.009 0.242,-1.86 0.394,-2.937 0.152,-1.077 0.328,-2.379 0.498,-3.576 0.17,-1.197 0.333,-2.289 0.417,-2.902 0.085,-0.614 0.089,-0.749 0.076,-0.865 -0.014,-0.116 -0.047,-0.211 -0.023,-1.818 0.024,-1.607 0.104,-4.725 0.147,-7.257 0.043,-2.532 0.048,-4.478 0.059,-5.601 0.011,-1.123 0.029,-1.422 0.067,-1.618 0.038,-0.197 0.095,-0.29 0.176,-0.338 0.08,-0.05 0.184,-0.055 0.308,0.038 0.124,0.094 0.27,0.285 0.345,0.376 0.074,0.092 0.076,0.085 0.078,0.081 0.001,-0.004 0.001,-0.004 0.115,0.253 0.114,0.256 0.343,0.769 0.597,1.463 0.254,0.694 0.533,1.569 0.762,2.507 0.229,0.938 0.408,1.939 0.607,3.547 0.2,1.608 0.422,3.823 0.739,6.228 0.316,2.406 0.729,5.001 1.468,11.393 0.739,6.392 1.805,16.58 2.64,24.511 0.835,7.931 1.439,13.604 1.811,19.699 0.372,6.095 0.513,12.613 0.503,19.654 -0.01,7.04 -0.171,14.604 -0.372,20.609 -0.202,6.004 -0.443,10.45 -0.725,14.423 -0.281,3.973 -0.603,7.473 -1.448,14.162 -0.845,6.688 -2.213,16.566 -3.007,23.777 -0.795,7.212 -1.016,11.758 -1.217,15.269 -0.202,3.51 -0.383,5.984 -0.674,8.122 -0.292,2.137 -0.694,3.937 -0.973,5.315 -0.279,1.378 -0.436,2.334 -0.453,2.935 -0.018,0.601 0.103,0.847 0.249,0.975 0.146,0.129 0.317,0.138 0.5,0.175 0.184,0.036 0.38,0.099 0.469,0.155 0.019,0.011 0.032,0.022 0.042,0.037 0.876,0.322 1.753,0.645 3.155,0.925 1.401,0.28 3.329,0.518 6.493,0.754 3.163,0.237 7.562,0.472 11.099,0.609 3.537,0.138 6.212,0.178 9.592,0.181 3.38,0.003 7.463,-0.03 11.329,-0.007 3.866,0.024 7.513,0.104 10.591,0.191 3.078,0.088 5.586,0.181 7.916,0.252 2.33,0.07 4.483,0.117 6.789,0.171 2.307,0.053 4.768,0.114 7.356,0.121 2.589,0.006 5.304,-0.041 8.04,-0.098 2.736,-0.057 5.492,-0.124 7.953,-0.221z"/>
 </g>
</svg>
