<?xml version="1.0" encoding="utf-8"?>
<!-- Generator: Adobe Illustrator 16.0.3, SVG Export Plug-In . SVG Version: 6.00 Build 0)  -->
<!DOCTYPE svg PUBLIC "-//W3C//DTD SVG 1.1//EN" "http://www.w3.org/Graphics/SVG/1.1/DTD/svg11.dtd">
<svg version="1.1" id="Layer_1" xmlns="http://www.w3.org/2000/svg" xmlns:xlink="http://www.w3.org/1999/xlink" x="0px" y="0px"
	 width="187px" height="147.488px" viewBox="0 0 187 147.488" enable-background="new 0 0 187 147.488" xml:space="preserve">
<path id="d2" fill="#ED1C24" d="M186.676,116.326l-0.033,0.651v-1.688h-0.137v-5.76h-0.543v6.809h-0.308v3.993v-3.304h-0.544
	v-10.314h-0.544v6.768h-0.229v-10.315h-0.544v13.862H183.7v-10.314h-0.543v10.794h-0.015v-11.366h-0.542v11.274h-0.544v3.109h-0.174
	v-3.018h-0.542v-2.218h-0.542v1.281h-0.178v-9.857h-0.543v12.123h-0.307v-1.809h-0.095v-7.338h-0.792v3.419h-0.434v4.536h-0.091
	v-0.617h-0.096v-7.338h-0.775v9.146h-0.208v-0.76h-0.545v-4.968h-0.115v-3.419h-0.543v9.146h-0.391v1.283h-0.123v-14.137h-0.543
	v3.775h-0.543v9.078h-0.203v1.283h-0.392v-3.463h-0.544v4.537h-0.032v-1.923h-0.287v-2.614h-0.544v0.133h-0.004v-0.133h-0.544v4.537
	h-0.079V109.53h-0.545v3.776h-0.543v1.228h-0.256v4.053h-0.053v-11.873h-0.542v6.593h-0.545v4.042v-0.773h-0.032v4.301v-1.902
	h-0.291v-12.26H168.5v6.593h-0.543v4.042v-0.773h-0.305v-0.049v3.812h-0.32v-2.257h-0.345v-0.092h-0.543v-1.508H165.9v1.6h-0.507
	v-2.188h-0.23v-5.401h-0.544v-7.325h-0.544v14.915h-0.092v-2.188h-0.304v2.188h-0.543v1.528h-0.208v-6.09h-0.543v6.511h-0.118
	v-1.949h-0.543v3.457h-0.277v-7.498h-0.404v-5.717h-0.141v-1.609h-0.543v14.824h-0.308v-7.498h-0.533v-4.35h-0.555v7.377h-0.294
	v-0.779h-0.029v1.793v-4.041h-0.438v-6.116h-0.543v1.767h-0.107v7.377h-0.226v-5.197h-0.543v6.283h-0.335v-8.395h-0.544v2.111
	h-0.515v7.383h-0.22v2.414h-0.543V109.12h-0.544v2.352h-0.142v7.781h-0.507v0.583h-0.158v1.865h-0.15v-9.229h-0.035v-1h-0.543v1.835
	h-0.359v2.778h-0.148v3.751h-0.159v1.865h-0.2v-10.229h-0.543v1.835h-0.227v-0.639h-0.545v8.915h-0.148v0.118h-0.292v-8.395h-0.374
	v-10.141h-0.544v9.502h-0.036v3.351h-0.104v4.769h-0.403v-4.928v3.112h-0.358v-6.304h-0.543v3.351h-0.091v4.507h-0.427v0.994h-0.333
	v-6.497h-0.545v0.996h-0.105v4.507h-0.227v-13.812h-0.543v3.482h-0.336v7.141h-0.516v-6.326h-0.544v7.08h-0.543v0.733h-0.151v1.3
	v-2.197h-0.173v-6.916h-0.37v-0.734h-0.544v11.494v-3.68h-0.174v0.733h-0.157v-5.079h-0.545v0.721h-0.469v1.555h-0.381v-2.275
	h-0.544v4.826h-0.202v2.314h-0.277v-2.959h-0.388v-4.182h-0.544v0.08H138.4v5.209h-0.12v1.852h-0.388v0.591h-0.294v-3.464h-0.05
	v-4.188h-0.543v-0.344h-0.543v-8.998h-0.544v9.342h-0.323v5.744h-0.406v-0.957h-0.396v-0.6h-0.147v-4.053h-0.544v5.609h-0.395
	v-3.723v0.492h-0.279v3.037v-2.398h-0.545v-1.688h-0.137v-7.258h-0.543v8.307h-0.308v3.993v-3.304h-0.544v-6.018h-0.544v2.471
	h-0.229v-10.315h-0.543v13.862h-0.095v-6.018h-0.544v6.497h-0.012v-11.366h-0.545v11.274h-0.543v3.109h-0.174v-3.018h-0.543v-2.218
	h-0.543v1.281h-0.174v-9.857h-0.544v12.123h-0.309v-1.809h-0.343v-7.338h-0.2v-2.977h-0.544v6.396h-0.232v4.536H124.6v-0.617h-0.327
	v-7.338h-0.216v-2.977h-0.543v11.363h-0.537v-4.968h-0.115v-3.419h-0.543v9.146h-0.393v1.283h-0.12v-16.742h-0.544v6.381h-0.543
	v9.078h-0.203v1.283h-0.392v-3.463h-0.544v4.537h-0.031v-1.923h-0.289v-2.614h-0.543v0.133h-0.004v-0.133h-0.544v4.537h-0.079
	v-14.268h-0.545v6.38h-0.543v1.228h-0.257v4.053h-0.051v-11.873h-0.543v6.593h-0.544v4.042v-0.773h-0.033v4.301v-1.902h-0.291
	v-12.26h-0.543v6.593h-0.544v4.042v-0.773h-0.304v-0.049v3.812h-0.32v-2.257h-0.344v-0.092h-0.544v-1.508h-0.544v1.6h-0.506v-2.188
	h-0.232v-5.401h-0.544v-8.48h-0.543v16.07h-0.092v-2.188h-0.304v2.188h-0.543v1.528h-0.207v-6.09h-0.544v4.056
	c0.268,1.238,0.544,2.363,0.808,3.176c0.949,2.92,2.298,13.045,3.168,16.912c1.036,4.602,0.163,5.569,7.431,7.421
	c6.652,1.694,15.705,1.21,22.153,1.97c4.115,0.486,19.475,0.632,23.482,0.086c3.422-0.464,6.822-0.809,10.133-1.574
	c4.369-1.01,9.014-2.873,10.068-7.855c0.302-1.42,0.39-3.822,0.52-5.467c0.07-0.896,0.009-2.075,0.005-3
	c-0.005-1.329,0.2-1.727,0.202-2.994C186.6,122.868,186.636,119.589,186.676,116.326z M107.285,110.485v-2.162h-0.143v-2.764H106.6
	v2.225c0.262,0.789,0.492,1.591,0.64,2.447L107.285,110.485z M79.537,111.626v-6.066h-0.544v7.747h-0.544v4.026
	C78.855,115.431,79.24,113.298,79.537,111.626z M78.218,118.384v-3.85h-0.092v-8.975h-0.544v7.747h-0.544v7.87H76.76v-3.094h-0.258
	v-1.602h-0.543v2.206h-0.544v2.489h-0.051v-3.094H74.82v-2.19h-0.319v2.19h-0.257v-7.592h-0.543v-7.325h-0.544v16.458v-3.731h-0.051
	v2.19h-0.544v1.947H72.53v-6.921h-0.544v4.536h-0.544v0.438h-0.29v1.947h-0.305v-4.037h-0.032v4.215v-2.131h-0.288v-4.037h-0.256
	v-0.931h-0.287v-6.396H69.44v13.316h-0.004v-4.037h-0.303v2.088v-4.041h-0.543v-3.972h-0.545v6.909h-0.121v-1.688h-0.202v-1.25
	h-0.544v-3.972h-0.543v7.7h-0.081v-1.111h-0.433v-10.674h-0.543v10.674h-0.115v4.537H65.16v-4.537h-0.231v-13.491h-0.544v9.582
	h-0.544v6.089H63.75v-2.18h-0.544v3.868h-0.393v-1.688h-0.19v-3.547h-0.217v-5.76h-0.544v7.043h-0.327v3.952h-0.133v-1.688h-0.19
	v-12.123h-0.544v2.816h-0.2v4.43h-0.149v2.336h-0.194v1.912h-0.307v-11.494h-0.544v2.816h-0.217v6.766h-0.013v-8.834H58.5v5.286
	h-0.094v-6.034h-0.543v9.582h-0.544v2.541h-0.175v-1.329h-0.543v1.892H56.14v-1.473h-0.39v-0.419h-0.423v-6.497h-0.544v5.285H54.24
	v0.234h-0.049v-2.064h-0.259v-3.455H53.39v5.285h-0.543v-6.18h-0.544v0.895h-0.324v5.285h-0.544v3.303v-2.895h-0.406v4.772h-0.01
	v-1.396H50.55v-2.232h-0.544v-7.652h-0.544v9.885H49.13v-6.415h-0.543v1.356h-0.336v5.765h-0.038v-0.706h-0.478v-6.415h-0.544v4.347
	h-0.066v2.793h-0.477v0.592h-0.324v-7.731h-0.37v-6.204h-0.543v13.344h-0.174v0.592h-0.158v-2.826h-0.185v-4.826h-0.544v8.293H44.2
	v-4.605h-0.544v1.139h-0.173v-4.826H42.94v4.346h-0.019v-1.551H42.38v-3.615h-0.143v-1.914h-0.544v7.08h-0.508v0.733h-0.307v-10.065
	h-0.036v-2.045H40.3v14.266H39.94v0.326h-0.149v-2.481h-0.358v-12.11h-0.544v2.684h-0.375v7.076h-0.395v1.318H37.97v1.551h-0.291
	v1.637h-0.376v-13.056H36.76v4.384h-0.142v9.641h-0.402v-5.197v1.859h-0.142v1.477h-0.217v-3.613h-0.09v-4.166h-0.544v0.638h-0.427
	v8.396h-0.335v-13.018h-0.543v3.984h-0.106v0.638h-0.226v-1.474h-0.544v9.869h-0.184v-2.088h-0.281v-5.733h-0.043v-0.574h-0.344
	v-1.474h-0.544v7.73H31.49v2.139h-0.042v-2.088h-0.343v0.583h-0.217V105.11h-0.556v4.648h-0.532v9.494h-0.106v0.583h-0.343v-7.966
	h-0.544v4.611h-0.289v0.586h-0.201v0.561h-0.343v2.143v-3.264H27.94v-4.637h-0.544v5.197h-0.226v-8.41h-0.555v4.649h-0.531v5.28
	h-0.029v-1.52h-0.279v-10.354h-0.543v6.593h-0.544v5.667h-0.231v-4.439h-0.092v-7.82h-0.544v6.593h-0.543v7.87h-0.28v-3.094h-0.257
	v-1.602h-0.543v2.206h-0.544v2.489h-0.051v-3.094h-0.544v-2.19h-0.319v2.19h-0.257v-7.592h-0.543v-7.325h-0.544v16.458v-3.731
	h-0.051v2.19h-0.544v1.947H18.77v-6.921h-0.544v4.536h-0.543v0.438h-0.291v1.947h-0.304v-4.037h-0.032v4.215v-2.131h-0.288v-4.037
	h-0.256v-0.931h-0.287v-6.396h-0.543v13.316h-0.005v-4.037h-0.303v2.088v-4.041H14.83v-4.51h-0.544v7.447h-0.121v-1.688h-0.202
	v-1.25h-0.544v-4.51h-0.543v8.238h-0.081v-1.111h-0.432v-10.674h-0.544v10.674h-0.115v4.537H11.4v-4.537h-0.543v3.868h-0.126V105.11
	h-0.556v7.638h-0.095v6.089H9.99v-2.18H9.446v3.868H9.054v-1.688h-0.19v-3.547H8.646v-5.76H8.104v7.043H7.775v3.952H7.644v-1.688
	H7.252v-9.307H7.016v-0.873H6.46v7.639H6.364v1.912H6.058v-11.494H5.514v2.816H5.298v6.766H5.284v-13.13H4.74v9.582H4.646v-6.034
	H4.103v9.582H3.56v2.541H3.385v-1.329H2.842v1.892H2.38v-1.473H1.991v-0.419H1.567v-10.794H1.023v9.582H0.481v0.234h-0.05v-2.064
	H0.324c0.047,3.879,0.098,7.76,0.103,11.783c0.002,1.268,0.208,1.665,0.203,2.994c-0.004,0.925-0.065,2.104,0.005,3
	c0.13,1.645,0.218,4.047,0.519,5.467c1.055,4.982,5.7,6.846,10.069,7.855c3.31,0.766,6.71,1.11,10.133,1.574
	c4.008,0.546,19.366,0.4,23.481-0.086c6.449-0.76,15.502-0.275,22.153-1.97c7.269-1.852,6.396-2.819,7.432-7.421
	c0.87-3.867,2.219-13.992,3.167-16.912C77.794,120.118,78.007,119.3,78.218,118.384z"/>
</svg>
