<?xml version="1.0" encoding="UTF-8"?>
<!DOCTYPE svg PUBLIC "-//W3C//DTD SVG 1.1//EN" "http://www.w3.org/Graphics/SVG/1.1/DTD/svg11.dtd">
<!-- Creator: CorelDRAW -->
<svg xmlns="http://www.w3.org/2000/svg" xml:space="preserve" width="240px" height="296px" version="1.1" shape-rendering="geometricPrecision" text-rendering="geometricPrecision" image-rendering="optimizeQuality" fill-rule="evenodd" clip-rule="evenodd"
viewBox="0 0 240 296.307"
 xmlns:xlink="http://www.w3.org/1999/xlink"
 xmlns:xodm="http://www.corel.com/coreldraw/odm/2003">
 <defs>
   <clipPath id="id0">
    <path d="M136.796 295.988c2.461,-0.097 4.626,-0.225 7.017,-0.355 2.39,-0.131 5.006,-0.265 8.261,-0.493 3.256,-0.228 7.151,-0.55 10.471,-0.852 3.319,-0.302 6.061,-0.583 8.794,-0.949 2.732,-0.365 5.455,-0.814 7.654,-1.25 2.2,-0.436 3.876,-0.858 6.001,-1.331 2.126,-0.473 4.701,-0.996 6.595,-1.321 1.894,-0.325 3.108,-0.453 4.268,-0.536 1.16,-0.084 2.267,-0.124 3.155,-0.117 0.889,0.008 1.559,0.063 1.956,0.094 0.396,0.031 0.518,0.038 0.611,0.043 0.049,0.002 0.09,0.004 0.127,0.006 0.093,-0.07 0.162,-0.18 0.177,-0.779 0.016,-0.673 -0.037,-1.966 -0.106,-2.786 -0.069,-0.819 -0.154,-1.166 -0.285,-1.855 -0.131,-0.689 -0.307,-1.72 -0.651,-2.686 -0.345,-0.965 -0.858,-1.866 -1.476,-3.045 -0.619,-1.179 -1.343,-2.638 -1.783,-3.616 -0.44,-0.978 -0.596,-1.476 -0.848,-2.693 -0.251,-1.217 -0.598,-3.153 -0.953,-5.871 -0.354,-2.718 -0.716,-6.219 -1.038,-8.884 -0.322,-2.666 -0.603,-4.496 -1.081,-7.559 -0.478,-3.062 -1.152,-7.357 -1.71,-11.521 -0.558,-4.164 -1.001,-8.198 -1.348,-12.226 -0.347,-4.028 -0.598,-8.051 -0.759,-11.637 -0.161,-3.586 -0.231,-6.734 -0.287,-9.787 -0.055,-3.052 -0.095,-6.01 -0.156,-9.258 -0.06,-3.249 -0.14,-6.79 -0.108,-12.037 0.033,-5.248 0.179,-12.203 0.352,-17.466 0.174,-5.263 0.375,-8.834 0.652,-12.807 0.276,-3.973 0.628,-8.348 0.975,-12.271 0.347,-3.922 0.689,-7.393 1.122,-11.743 0.432,-4.35 0.955,-9.58 1.483,-13.99 0.528,-4.411 1.061,-8.002 1.512,-10.619 0.45,-2.618 0.817,-4.262 1.139,-5.308 0.321,-1.046 0.598,-1.494 0.803,-1.766 0.205,-0.271 0.338,-0.367 0.405,-0.414 0.066,-0.048 0.066,-0.048 0.049,0.598 -0.018,0.646 -0.053,1.939 -0.108,3.533 -0.056,1.594 -0.131,3.49 -0.173,4.967 -0.041,1.478 -0.049,2.536 -0.079,3.186 -0.03,0.65 -0.083,0.892 -0.102,1.011 -0.018,0.119 -0.003,0.117 -0.041,0.151 -0.038,0.034 -0.128,0.104 -0.133,0.68 -0.005,0.576 0.075,1.657 0.192,3.051 0.117,1.395 0.27,3.102 0.322,4.786 0.051,1.683 0.001,3.343 0.002,4.231 0,0.887 0.052,1.003 0.132,1.078 0.08,0.076 0.188,0.111 1.001,0.06 0.814,-0.051 2.333,-0.188 4.105,-0.324 1.773,-0.137 3.8,-0.273 5.955,-0.431 2.155,-0.158 4.438,-0.339 6.588,-0.463 2.15,-0.123 4.166,-0.188 5.992,-0.299 1.826,-0.111 3.46,-0.267 5.336,-0.47 1.876,-0.204 3.993,-0.455 6.015,-0.682 2.021,-0.226 3.947,-0.427 5.109,-0.565 1.162,-0.139 1.559,-0.214 1.758,-0.327 0.199,-0.113 0.199,-0.264 0.229,-0.906 0.03,-0.641 0.09,-1.772 0.108,-3.132 0.017,-1.361 -0.008,-2.95 -0.023,-4.429 -0.015,-1.478 -0.02,-2.846 -0.038,-3.724 -0.017,-0.877 -0.047,-1.264 -0.071,-1.469 -0.025,-0.205 -0.043,-0.227 -0.083,-0.294 -0.04,-0.068 -0.103,-0.181 -0.174,-0.682 -0.071,-0.5 -0.152,-1.388 -0.255,-2.32 -0.103,-0.933 -0.229,-1.911 -0.348,-2.739 -0.12,-0.827 -0.233,-1.504 -0.413,-2.544 -0.179,-1.042 -0.426,-2.447 -0.613,-3.449 -0.187,-1.002 -0.316,-1.601 -0.436,-2.27 -0.121,-0.668 -0.234,-1.408 -0.366,-2.121 -0.132,-0.713 -0.283,-1.399 -0.425,-2.156 -0.142,-0.757 -0.275,-1.584 -0.375,-2.322 -0.099,-0.738 -0.165,-1.387 -0.239,-2.029 -0.074,-0.643 -0.157,-1.279 -0.257,-2.036 -0.101,-0.757 -0.219,-1.634 -0.34,-2.526 -0.121,-0.891 -0.244,-1.796 -0.353,-2.565 -0.11,-0.768 -0.205,-1.399 -0.373,-2.344 -0.168,-0.945 -0.408,-2.203 -0.82,-4.085 -0.412,-1.881 -0.995,-4.386 -1.704,-6.89 -0.709,-2.505 -1.544,-5.009 -2.651,-7.745 -1.106,-2.736 -2.484,-5.703 -4.093,-8.851 -1.61,-3.149 -3.45,-6.478 -4.878,-8.781 -1.429,-2.304 -2.444,-3.581 -3.453,-4.629 -1.008,-1.049 -2.009,-1.869 -3.015,-2.608 -1.006,-0.739 -2.017,-1.398 -2.582,-1.773 -0.566,-0.375 -0.687,-0.465 -0.756,-0.571 -0.069,-0.105 -0.087,-0.226 -0.095,-0.303 -0.009,-0.077 -0.009,-0.109 -0.07,-0.174 -0.06,-0.066 -0.181,-0.164 -1.307,-0.714 -1.127,-0.551 -3.259,-1.555 -5.31,-2.603 -2.05,-1.048 -4.019,-2.142 -5.77,-2.976 -1.752,-0.833 -3.286,-1.407 -5.061,-1.957 -1.775,-0.551 -3.792,-1.079 -5.429,-1.507 -1.637,-0.427 -2.894,-0.754 -3.762,-1.008 -0.867,-0.254 -1.345,-0.435 -2.044,-0.7 -0.699,-0.266 -1.619,-0.615 -2.606,-0.909 -0.987,-0.295 -2.041,-0.533 -2.716,-0.687 -0.675,-0.153 -0.972,-0.221 -1.44,-0.471 -0.467,-0.25 -1.106,-0.683 -1.581,-0.937 -0.475,-0.254 -0.787,-0.329 -1.073,-0.365 -0.285,-0.035 -0.544,-0.03 -0.777,-0.03 -0.232,0 -0.438,-0.005 -1.342,-0.33 -0.904,-0.326 -2.506,-0.972 -4.026,-1.577 -1.52,-0.605 -2.959,-1.168 -4.404,-1.748 -1.446,-0.579 -2.9,-1.175 -3.816,-1.569 -0.917,-0.393 -1.297,-0.584 -1.594,-0.779 -0.298,-0.194 -0.514,-0.392 -0.705,-0.497 -0.191,-0.105 -0.356,-0.116 -0.467,-0.117 -0.11,0 -0.164,0.01 -0.251,-0.004 -0.086,-0.014 -0.204,-0.052 -0.587,-0.292 -0.382,-0.24 -1.028,-0.682 -1.678,-1.193 -0.65,-0.51 -1.304,-1.089 -1.956,-1.661 -0.653,-0.572 -1.304,-1.138 -2.311,-1.569 -1.007,-0.431 -2.37,-0.728 -3.723,-0.919 -1.353,-0.191 -2.695,-0.276 -4.576,-0.354 -1.881,-0.078 -4.3,-0.149 -7.931,-0.131 -3.631,0.017 -8.474,0.123 -12.914,0.219 -4.439,0.096 -8.475,0.183 -10.597,0.231 -2.123,0.048 -2.332,0.058 -4.152,0.203 -1.82,0.145 -5.249,0.427 -7.404,0.671 -2.155,0.244 -3.035,0.45 -3.752,0.707 -0.717,0.256 -1.27,0.563 -1.886,1.078 -0.616,0.516 -1.295,1.24 -2.019,1.877 -0.725,0.638 -1.494,1.189 -1.953,1.46 -0.459,0.272 -0.607,0.264 -0.901,0.366 -0.295,0.102 -0.735,0.313 -1.268,0.582 -0.533,0.269 -1.159,0.596 -1.919,0.922 -0.761,0.325 -1.656,0.65 -2.301,0.904 -0.645,0.254 -1.04,0.437 -1.514,0.628 -0.474,0.192 -1.027,0.39 -1.765,0.621 -0.738,0.232 -1.661,0.496 -2.558,0.836 -0.896,0.341 -1.766,0.759 -2.573,1.076 -0.808,0.316 -1.552,0.533 -2.299,0.749 -0.746,0.216 -1.496,0.432 -2.053,0.655 -0.557,0.222 -0.921,0.451 -1.207,0.636 -0.285,0.185 -0.491,0.326 -0.999,0.476 -0.508,0.15 -1.318,0.31 -1.914,0.463 -0.596,0.154 -0.978,0.301 -1.488,0.492 -0.51,0.192 -1.147,0.429 -1.75,0.617 -0.603,0.189 -1.171,0.329 -1.687,0.459 -0.516,0.13 -0.98,0.248 -1.7,0.426 -0.719,0.179 -1.693,0.418 -2.551,0.633 -0.857,0.216 -1.598,0.408 -2.171,0.57 -0.573,0.161 -0.979,0.292 -1.436,0.426 -0.456,0.134 -0.963,0.271 -1.427,0.4 -0.465,0.129 -0.887,0.249 -1.312,0.377 -0.424,0.128 -0.85,0.262 -1.203,0.399 -0.353,0.137 -0.632,0.277 -1.012,0.437 -0.38,0.159 -0.862,0.339 -1.279,0.53 -0.417,0.191 -0.769,0.394 -1.165,0.602 -0.397,0.209 -0.838,0.424 -1.221,0.617 -0.382,0.194 -0.705,0.366 -1.126,0.589 -0.421,0.223 -0.941,0.495 -1.657,0.865 -0.717,0.371 -1.631,0.838 -2.694,1.37 -1.063,0.532 -2.275,1.128 -3.18,1.576 -0.905,0.448 -1.504,0.747 -2.037,1.087 -0.533,0.341 -1.001,0.723 -1.443,1.08 -0.443,0.358 -0.86,0.689 -1.353,1.079 -0.493,0.39 -1.061,0.837 -1.779,1.475 -0.718,0.637 -1.586,1.465 -2.375,2.331 -0.79,0.866 -1.501,1.771 -2.145,2.665 -0.644,0.894 -1.22,1.777 -1.924,2.935 -0.704,1.158 -1.536,2.591 -2.208,3.821 -0.671,1.229 -1.181,2.255 -1.732,3.264 -0.551,1.008 -1.141,1.999 -1.644,2.942 -0.503,0.943 -0.918,1.838 -1.313,2.759 -0.395,0.922 -0.77,1.87 -1.152,2.756 -0.382,0.887 -0.772,1.712 -1.285,3.043 -0.513,1.331 -1.149,3.17 -1.716,4.911 -0.567,1.741 -1.065,3.386 -1.49,4.836 -0.425,1.451 -0.777,2.709 -1.129,4.225 -0.352,1.516 -0.704,3.291 -1.144,5.668 -0.44,2.376 -0.968,5.353 -1.29,7.073 -0.322,1.72 -0.438,2.183 -0.543,2.673 -0.106,0.491 -0.201,1.009 -0.4,1.833 -0.198,0.825 -0.5,1.957 -0.807,3.143 -0.307,1.187 -0.618,2.43 -0.84,3.478 -0.221,1.049 -0.352,1.904 -0.575,3.166 -0.224,1.262 -0.541,2.932 -0.787,4.297 -0.247,1.366 -0.423,2.427 -0.529,2.975 -0.105,0.548 -0.14,0.583 -0.204,0.634 -0.063,0.05 -0.155,0.115 -0.251,2.246 -0.096,2.13 -0.197,6.326 -0.275,8.622 -0.078,2.297 -0.133,2.694 0.035,2.902 0.169,0.209 0.561,0.229 1.419,0.337 0.857,0.108 2.18,0.305 4.51,0.755 2.332,0.45 5.671,1.154 8.339,1.667 2.668,0.513 4.664,0.835 6.751,1.182 2.088,0.347 4.265,0.719 7.24,1.192 2.975,0.472 6.746,1.046 9.15,1.373 2.404,0.327 3.44,0.407 3.958,0.447 0.518,0.041 0.518,0.041 0.568,-0.543 0.049,-0.583 0.149,-1.75 0.263,-2.759 0.114,-1.009 0.242,-1.86 0.394,-2.937 0.152,-1.077 0.328,-2.379 0.498,-3.576 0.17,-1.197 0.333,-2.289 0.417,-2.902 0.085,-0.614 0.089,-0.749 0.076,-0.865 -0.014,-0.116 -0.047,-0.211 -0.023,-1.818 0.024,-1.607 0.104,-4.725 0.147,-7.257 0.043,-2.532 0.048,-4.478 0.059,-5.601 0.011,-1.123 0.029,-1.422 0.067,-1.618 0.038,-0.197 0.095,-0.29 0.176,-0.338 0.08,-0.05 0.184,-0.055 0.308,0.038 0.124,0.094 0.27,0.285 0.345,0.376 0.074,0.092 0.076,0.085 0.078,0.081 0.001,-0.004 0.001,-0.004 0.115,0.253 0.114,0.256 0.343,0.769 0.597,1.463 0.254,0.694 0.533,1.569 0.762,2.507 0.229,0.938 0.408,1.939 0.607,3.547 0.2,1.608 0.422,3.823 0.739,6.228 0.316,2.406 0.729,5.001 1.468,11.393 0.739,6.392 1.805,16.58 2.64,24.511 0.835,7.931 1.439,13.604 1.811,19.699 0.372,6.095 0.513,12.613 0.503,19.654 -0.01,7.04 -0.171,14.604 -0.372,20.609 -0.202,6.004 -0.443,10.45 -0.725,14.423 -0.281,3.973 -0.603,7.473 -1.448,14.162 -0.845,6.688 -2.213,16.566 -3.007,23.777 -0.795,7.212 -1.016,11.758 -1.217,15.269 -0.202,3.51 -0.383,5.984 -0.674,8.122 -0.292,2.137 -0.694,3.937 -0.973,5.315 -0.279,1.378 -0.436,2.334 -0.453,2.935 -0.018,0.601 0.103,0.847 0.249,0.975 0.146,0.129 0.317,0.138 0.5,0.175 0.184,0.036 0.38,0.099 0.469,0.155 0.019,0.011 0.032,0.022 0.042,0.037 0.876,0.322 1.753,0.645 3.155,0.925 1.401,0.28 3.329,0.518 6.493,0.754 3.163,0.237 7.562,0.472 11.099,0.609 3.537,0.138 6.212,0.178 9.592,0.181 3.38,0.003 7.463,-0.03 11.329,-0.007 3.866,0.024 7.513,0.104 10.591,0.191 3.078,0.088 5.586,0.181 7.916,0.252 2.33,0.07 4.483,0.117 6.789,0.171 2.307,0.053 4.768,0.114 7.356,0.121 2.589,0.006 5.304,-0.041 8.04,-0.098 2.736,-0.057 5.492,-0.124 7.953,-0.221z"/>
   </clipPath>
 </defs>
 <g id="VETORES">
  <metadata id="CorelCorpID_0Corel-Layer"/>
  <g>
  </g>
  <g clip-path="url(#id0)">
   <g id="_1763303560512">
    <path id="_3" fill="#0030A8" fill-rule="nonzero" d="M71.457 269.154l0.231 0.14 5.133 -3.432 -5.364 3.292zm36.539 22.017l12.169 -8.056 0 -1.872 -14.181 8.707 2.012 1.221zm3.973 2.382l8.196 -5.425 0 -0.019 -8.537 5.244 0.341 0.2zm2.922 1.761l5.274 -3.523 0 -2.802 -7.826 4.794 2.552 1.531zm-4.223 -2.552l0.82 -0.54 -0.85 0.54 0.03 0zm11.058 -35.837l0 3.152 21.817 -14.471 1.051 1.681 -22.868 14.011 0 0.791 0.09 -0.05 0.08 0.14 7.946 -5.274 0.11 0.22 2.072 -1.391 0 0.03 14.611 -9.697 -3.632 -2.192 -21.277 13.05zm0 -21.927l3.092 -2.071 -1.441 -0.881 -1.651 1.021 0 1.931zm-16.392 54.552l14.831 -9.838 0 -0.6 -15.942 9.757 1.111 0.681zm14.351 -22.207l-25.39 15.572 3.182 1.931 22.688 -15.071 0 -0.361 -17.193 10.518 17.193 -11.398 0 -2.412 -0.901 0.54 0.421 0.681zm-20.336 18.604l20.816 -13.811 0 -0.06 -21.727 13.331 0.911 0.54zm2.832 0.851l-0.681 0.43 2.663 1.611 16.002 -10.608 0 -1.901 -17.984 10.468zm-25.76 -14.662l0.31 0.201 7.356 -4.884 -7.666 4.683zm11.269 6.525l-0.2 0.141 1.101 0.68 2.471 -1.641 0 -2.272 -3.832 2.352 0.46 0.74zm3.372 2.292l0 -0.03 -0.03 0 0.03 0.03zm-25.079 -15.091l13.28 -8.787 0.25 0.39 2.303 -1.531 0.71 1.141 -15.432 9.447 2.071 1.241 11.659 -7.746 0.081 0.121 2.582 -1.732 0.77 1.221 6.355 -4.233 0.45 0.771 0 -2.783 -17.083 10.468 17.083 -11.319 0 -3.942 -26.87 16.202 1.791 1.071zm55.743 -34.006l0.63 -0.4 -0.63 -0.401 0 0.801zm-47.146 39.17l0.82 0.51 11.859 -7.856 -12.679 7.346zm13.11 -5.074l3.372 -2.212 0 -0.571 -3.692 2.272 0.32 0.511zm0.76 6.154l-5.985 3.683 2.042 1.221 6.555 -4.363 0 -3.043 -3.032 1.852 0.42 0.65zm-11.398 -6.044l3.882 -2.582 0.281 0.46 3.292 -2.192 0.03 0.061 6.525 -4.344 0 -0.34 -14.161 8.706 0.151 0.231zm10.638 4.824l0.05 0.09 2.132 -1.421 -2.182 1.331zm0.76 -3.713l-10.037 6.154 1.781 1.081 10.868 -7.205 0 -2.332 -2.922 1.791 0.31 0.511zm50.299 -202.944l1.391 0.82 9.137 -6.044 0 -1.421 -10.618 6.525 0.09 0.12zm3.123 23.088l0.31 0.51 -11.119 6.835 1.241 0.74 16.973 -11.258 0 -1.251 -7.405 4.424zm1.191 -3.744l6.214 -4.143 0 -0.03 -6.384 3.913 0.17 0.26zm-5.815 14.811l12.029 -7.975 0 -0.141 -12.659 7.746 0.63 0.37zm4.284 2.583l7.745 -5.144 0 -1.641 -9.427 5.784 1.682 1.001zm-1.962 -18.845l-14.521 8.907 1.13 0.681 1.252 -0.821 0.31 0.48 21.536 -14.26 0 -0.571 -17.193 10.548 7.486 -4.964zm6.925 -13.24l2.782 -1.851 0 -0.31 -3.042 2.011 0.26 0.15zm-2.241 -1.341l5.023 -3.342 0 -2.673 -7.435 4.574 2.412 1.441zm4.683 7.006l-4.173 2.562 0.711 1.1 3.802 -2.521 0 -2.412 -0.83 0.51 0.49 0.761zm-7.806 -8.877l8.146 -5.414 0 -0.261 -8.716 5.335 0.57 0.34zm2.182 36.368l5.964 -3.974 0 -0.65 -6.755 4.143 0.791 0.481zm5.734 -31.625l0.23 -0.15 0 -1.951 -1.851 1.131 1.621 0.97zm-27.321 183.14l17.784 -11.77 -0.651 -0.4 -0.62 0.371 0.34 0.54 -16.853 10.348 0 0.911zm0 -6.836l10.638 -7.065 -10.638 6.525 0 0.54zm0 -1.161l11.459 -7.606 -1.611 -0.96 -9.848 6.035 0 2.531zm0 6.035l16.203 -10.778 -2.412 -1.442 -13.791 8.447 0 3.773zm0 -11.319l7.266 -4.843 -1.501 -0.881 -5.765 3.512 0 2.212zm0 1.451l8.427 -5.584 -0.341 -0.2 -8.086 4.964 0 0.82zm23.859 -138.324l3.692 -2.462 0 -1.792 -5.334 3.263 1.642 0.991zm2.691 1.651l1.001 -0.681 0 -2.441 -3.042 1.871 2.041 1.251zm1.001 0.59l0 -0.22 -0.17 0.11 0.17 0.11zm-25.249 118.41l-20.766 12.74 0.14 0.25 -10.778 6.275 0 1.021 0.93 -0.631 0.121 0.2 2.071 -1.361 0.05 0.09 12.429 -8.256 0.081 0.11 8.967 -5.925 0.28 0.451 1.171 -0.741 0.11 0.17 3.973 -2.632 0.2 0.311 13.641 -9.048 0.26 0.421 2.011 -1.331 0.251 0.4 5.144 -3.402 0.05 0.08 2.862 -1.872 -0.681 -0.43 -22.517 13.11zm-2.302 12.74l4.513 -3.013 -0.82 -0.48 -3.693 2.272 0 1.221zm-11.909 55.462l10.348 -6.865 0 -1.141 -11.709 7.175 1.361 0.831zm2.352 -225.161l7.996 -5.304 0 -0.45 -2.322 1.361 0.17 0.28 -6.074 3.713 0.23 0.4zm-45.846 158.24l2.072 -1.391 0.06 0.11 12.42 -8.256 0.14 0.26 7.526 -4.964 -2.332 -1.421 -1.251 0.791 0.88 1.42 -25.389 15.573 1.171 0.71 4.593 -3.062 0.11 0.23zm74.778 -14.871l1.621 -1.051 -2.352 1.451 0.051 0.06 0.68 -0.46zm-25.59 2.241l-0.821 0.511 0.091 0.17 3.112 -2.072 -2.382 1.391zm22.217 -7.065l-0.11 0.06 0.05 0.06 0.12 -0.09 -0.06 -0.03zm-45.104 -130.489l0 0.34 7.065 -4.683 -7.065 4.343zm24.228 -17.413l0.901 1.441 2.412 -1.611 0 -1.821 -3.313 1.991zm-24.228 26.66l0 0.941 18.974 -12.57 -18.974 11.629zm0 -5.844l0 0.8 15.832 -10.528 -15.832 9.728zm23.628 -27.882l0.68 0.421 16.543 -10.978 -17.223 10.557zm-20.366 173.472l-3.262 1.982 0 0.62 4.423 -2.942 -2.322 1.441 5.074 -3.372 -5.924 3.632 2.401 -1.591 -0.39 0.23zm37.099 -21.366l-17.954 11.008 0.2 0.28 -22.607 13.871 0 4.063 16.192 -10.758 0.771 1.251 -16.963 10.408 0 2.101 33.866 -22.497 -18.094 11.099 28.171 -18.675 -1.19 -0.7 -0.971 0.59 0.941 -0.62 -1.652 -0.991 -2.752 1.701 2.642 -1.761 -0.6 -0.37zm-31.004 4.173l-9.357 5.644 0 0.571 9.357 -6.215zm24.659 -7.976l-13.51 7.856 -20.506 12.57 0 4.032 22.697 -15.071 0.11 0.17 12.91 -8.566 -0.17 -0.08 -30.353 18.604 29.162 -19.345 -0.34 -0.17zm-32.595 -28.421l-5.765 3.542 0.23 0.14 5.535 -3.682zm8.076 -88.878l-3.913 2.412 1.081 -0.711 -6.665 4.083 0 1.331 19.204 -12.759 -9.707 5.644zm14.641 76.278l-0.88 -0.541 -5.024 3.092 0.51 0.831 -21.927 13.441 1.021 0.63 26.3 -17.453zm-4.363 67.091l-0.571 0.37 0 0.03 0.571 -0.4zm4.303 -3.313l-5.184 3.203 0.14 0.23 5.785 -3.863 -0.741 0.43zm13.14 -11.038l4.314 -2.862 -6.325 3.852 0.14 0.231 1.871 -1.221zm-37.218 26.21l9.417 -6.265 -9.417 5.784 0 0.481zm19.114 -11.599l0.03 0.03 1.281 -0.831 -1.311 0.801zm0.401 -152.226l8.026 -5.334 0 -0.71 -2.412 1.421 0.26 0.37 -6.154 3.773 0.28 0.48zm-21.077 50.639l-13.96 8.566 0.65 0.401 13.31 -8.827 0 -0.14zm0 -3.913l-17.613 10.298 3.002 1.811 14.611 -9.697 0 -2.412zm0 4.933l-2.271 1.392 0.03 -0.03 -10.899 6.695 1.962 1.191 11.178 -7.436 0 -1.812zm-19.745 4.084l0.651 0.37 15.152 -10.037 -15.803 9.667zm19.745 -0.741l-10.357 6.385 0.68 0.4 -0.03 0 0.23 0.141 9.477 -6.296 0 -0.63zm29.103 -56.903l-3.123 1.842 0.971 1.531 -25.389 15.581 0 1.301 27.541 -18.264 0 -1.991zm-35.207 95.572l16.002 -10.607 0.03 0.029 0.51 -0.34 0.031 0.051 5.614 -3.744 -0.791 -0.45 -22.928 14.071 22.017 -14.641 -0.68 -0.401 -3.943 2.442 2.011 -1.361 -16.222 9.447 0.761 1.251 -9.078 5.585 2.302 1.361 4.284 -2.832 0.08 0.139zm-15.742 53.331l16.312 -10.808 -0.59 -0.371 -27.922 16.483 0.26 0.17 0.911 -0.62 1.211 1.901 13.991 -9.277 -4.173 2.522zm-0.711 -57.894l0.601 0.34 13.93 -9.247 -14.531 8.907zm9.507 -8.716l9.337 -6.185 0.111 0.23 3.833 -2.552 0.05 0.06 1.871 -1.251 -1.391 -0.851 -1.751 1.081 0.31 0.481 -25.39 15.572 0.961 0.6 11.719 -7.746 0.34 0.561zm8.287 0.71l5.924 -3.943 0 0.03 1.021 -0.681 -12.45 7.636 11.289 -7.495 -21.927 13.45 1.191 0.71 2.272 -1.531 0.02 0.03 12.57 -8.346 0.09 0.14zm4.763 -24.309l-8.907 5.475 0.681 0.4 8.226 -5.444 0 -0.431zm3.033 -26.5l2.071 -1.361 0.061 0.121 12.419 -8.257 0.2 0.34 2.722 -1.821 0.511 0.831 8.086 -5.394 0 -3.853 -12.48 7.655 0.03 0.061 -15.091 9.247 0 3.142 1.361 -0.901 0.11 0.19zm26.07 5.625l-11.659 7.145 0.801 0.481 4.363 -2.893 0.45 0.711 6.045 -4.033 0 -1.411zm-12.65 -17.644l12.65 -8.396 0 -4.033 -6.835 4.203 0.09 0.11 -20.796 12.74 0 4.133 14.411 -9.557 0.48 0.8zm-14.611 2.923l-0.17 0.11 0.06 -0.061 -0.17 0.121 0 0.42 5.194 -3.433 -4.914 2.843zm23.008 -13.391l-2.893 1.702 0.08 0.17 2.813 -1.872zm-34.527 34.547l0.29 0.46 9.387 -6.215 0 -0.8 -22.747 13.93 12.79 -8.476 -16.913 10.178 1.851 1.11 15.342 -10.187zm9.677 -4.484l-9.027 5.534 0.061 0.09 -15.433 9.437 3.833 2.302 20.226 -13.39 0.14 0.23 0.2 -0.14 0 -1.391 -17.083 10.468 17.083 -11.318 0 -1.822zm0 29.453l0 -0.431 -0.6 0.37 0.37 0.231 0.23 -0.17zm0 -5.795l-5.024 3.072 1.021 0.621 4.003 -2.642 0 -1.051zm0 2.502l-2.952 1.811 1.561 0.941 1.391 -0.941 0 -1.811zm0 -5.164l-7.205 4.423 1.701 1.021 5.504 -3.633 0 -1.811zm88.879 -24.599l0 1.021 13.871 -9.217 -0.26 -0.14 -13.611 8.336zm2.612 -14.971l-0.6 -0.34 0.06 0.05 -2.072 1.281 0 1.361 3.092 -2.042 -0.48 -0.31zm-2.612 70.264l1.331 -0.881 -1.331 -0.821 0 1.702zm0 2.211l3.092 -2.042 -0.68 -0.42 -2.412 1.471 0 0.991zm6.405 -70.183l-0.9 -0.541 -5.505 3.383 0 2.492 7.266 -4.824 -0.861 -0.51zm2.222 4.513l2.522 -1.671 -1.651 -1.001 -9.498 5.845 0 1.281 8.087 -5.335 0.54 0.881zm-0.46 -3.463l-0.08 -0.029 -7.887 4.823 0.221 0.34 7.746 -5.134zm-8.167 24.99l0 1.591 7.796 -5.194 -4.824 2.952 7.016 -4.653 -8.117 4.993 11.319 -7.515 -13.19 7.826zm0 -4.134l0 0.141 2.692 -1.792 -2.692 1.651zm0 50.999l5.244 -3.483 -1.561 -0.91 -3.683 2.241 0 2.152zm0 -58.804l0 0.11 2.072 -1.362 -2.072 1.252zm3.773 -15.692l-0.09 -0.05 -3.683 2.271 0 0.851 4.223 -2.812 -0.45 -0.26zm-18.304 57.333l1.031 0.631 11.939 -7.946 0 -0.621 -2.012 1.241 2.012 -1.361 0 -0.901 -13.791 8.477 0.821 0.48zm12.74 -4.533l-10.038 6.154 2.752 1.672 2.802 -1.872 0.2 0.31 4.514 -2.972 0 -1.361 -3.463 2.152 3.463 -2.332 0 -0.701 -0.23 0.141 0 -1.191zm-3.063 8.226l-1.781 1.081 1.361 0.79 3.713 -2.471 0 -2.753 -3.883 2.382 0.59 0.971zm-19.485 -9.587l1.191 0.71 21.587 -14.301 0 -0.62 -22.978 14.09 0.2 0.121zm22.778 13.73l0 -1.932 -1.591 0.961 1.591 0.971zm-19.635 -21.676l0.06 -0.03 -7.976 4.883 0 0.22 3.262 1.962 24.289 -16.112 0 -2.552 -0.31 -0.201 -19.325 11.83zm22.277 32.855l6.185 -4.123 -0.741 -0.451 -6.014 3.693 0.57 0.881zm7.626 -41.682l-1.331 0.8 0.06 0.051 1.271 -0.851zm-0.62 38.079l-6.696 4.113 0.141 0.22 -1.532 0.941 0 1.331 9.077 -6.015 -0.99 -0.59zm-1.562 64.188l-2.722 1.592 0.17 0.09 2.552 -1.682zm3.883 -168.017l-0.34 -0.17 -10.068 6.155 0 2.272 11.459 -7.607 -1.051 -0.65zm-14.892 94.492l0.061 0.03 1.611 -1.081 -1.672 1.051zm8.167 -98.525l-3.683 2.272 0 1.501 4.734 -3.143 -1.051 -0.63zm8.767 5.274l-12.45 7.636 0 0.82 12.59 -8.366 -0.14 -0.09zm-6.435 -3.883l-6.015 3.693 0.2 0.82 -0.2 0.141 0 0.94 7.266 -4.823 -1.251 -0.771zm2.072 1.281l-8.087 4.964 0 1.071 8.647 -5.725 -0.56 -0.31zm-8.087 19.205l0.65 -0.431 -0.65 0.371 0 0.06zm10.949 -38.7l-10.949 6.695 0 1.842 21.817 -14.461 1.051 1.671 -22.868 14.01 0 1.702 12.99 -8.617 -7.145 4.364 19.084 -12.65 -2.261 -1.361 -11.719 6.805zm5.504 25.479l0.17 0.251 0.88 -0.591 -0.26 -0.14 -0.79 0.48zm-15.772 9.528l0.06 0.06 1.671 -1.141 -1.731 1.081zm0.59 0.91l4.794 -3.182 -4.904 3.013 0.11 0.169zm-1.271 -4.283l0 2.722 0.2 -0.14 0.34 0.541 15.683 -10.389 -2.212 -1.33 -14.011 8.596zm4.514 -49.387l-0.911 -0.54 -3.603 2.291 0 3.553 6.355 -4.203 -1.841 -1.101zm-1.712 9.817l-1.981 1.211 0.06 0.06 1.921 -1.271zm-2.572 0.25l10.008 -6.605 -2.242 -1.361 -7.996 4.904 0 3.172 0.2 -0.14 0.03 0.03zm12.11 -5.334l-11.179 6.836 0.45 0.74 -1.611 0.991 0 1.871 14.121 -9.357 -1.781 -1.081zm-53.021 34.526l10.017 -6.635 0 -0.54 -10.468 6.435 0.451 0.74zm40.681 -41.981l0 1.871 1.441 -0.971 -1.441 -0.9zm1.902 36.217l-1.902 1.171 0 1.611 3.092 -2.071 -1.19 -0.711zm-1.902 -17.013l0 0.561 11.519 -7.626 -11.519 7.065zm0 15.883l0 1.08 0.851 -0.57 -0.851 -0.51zm19.746 -23.178l-0.03 -0.03 -19.716 12.119 0 0.961 19.235 -12.74 0.511 -0.31zm-3.233 -1.952l-16.513 10.128 0 2.802 18.074 -11.969 -1.561 -0.961zm-16.513 57.043l13.1 -8.706 -7.255 4.453 9.727 -6.445 -10.638 6.525 10.748 -7.145 -15.682 9.617 0 1.701zm-16.033 202.124l14.472 -9.617 0 -0.911 -15.832 9.708 1.36 0.82zm2.133 1.271l12.339 -8.196 0 -0.711 -13.45 8.226 1.111 0.681zm1.951 1.201l10.388 -6.895 0 -1.051 -11.659 7.175 1.271 0.771zm-5.985 -3.603l0.17 0.08 16.203 -10.778 0 -1.251 -17.934 10.978 1.561 0.971zm7.886 4.733l8.487 -5.614 0 -0.85 -9.507 5.844 1.02 0.62zm-23.057 -289.239l-8.347 5.104 3.413 -2.242 -19.806 12.119 0.311 0.191 -29.103 17.533 1.591 0.971 30.884 -20.516 0.801 1.281 22.697 -15.071 0 -0.561 -8.827 5.414 6.386 -4.223zm15.742 214.063l-0.541 0.31 0.03 0.03 0.511 -0.34zm-2.612 -0.931l0.34 0.19 7.606 -5.044 -7.946 4.854zm-7.456 30.543l14.351 -9.527 -3.202 1.981 3.202 -2.152 -1.391 0.881 2.412 -1.621 -16.363 9.878 0.991 0.56zm5.754 38.559l20.116 -13.36 0 -1.171 -21.897 13.451 1.781 1.08zm1.251 0.731l18.865 -12.51 0 -0.28 -19.886 12.199 1.021 0.591zm-4.343 -2.602l19.975 -13.25 -19.835 12.169 23.068 -15.322 0 -1.981 -26.861 16.192 3.653 2.192zm-16.873 -232.026l5.724 -3.803 0.401 0.68 4.853 -3.232 0 -1.901 -11.659 7.155 0.681 1.101zm0.76 -6.215l4.964 -3.292 1.391 2.271 -3.462 2.132 0.03 0.03 -15.432 9.467 0.54 0.32 0.651 -0.4 0 0.03 0.06 -0.03 0 0.06 0.82 -0.54 0.141 0.28 20.515 -13.62 0 -3.683 -10.528 6.435 0.31 0.54zm-4.313 15.552l1.331 0.82 13.2 -8.766 0 -0.771 -14.531 8.717zm-5.534 -41.021l3.012 -2.012 -17.534 10.208 -17.073 10.468 1.612 0.961 22.557 -14.972 1.021 1.672 -22.638 13.87 3.263 1.962 21.927 -14.532 -5.474 3.353 29.392 -19.515 0 -0.57 -1.791 1.101 1.791 -1.191 0 -0.39 -3.832 2.351 1.811 -1.221 -0.931 0.571 2.952 -1.992 -4.143 2.553 0.851 -0.561 -9.788 5.984 5.024 -3.322 -3.773 2.332 7.686 -5.114 -18.784 11.488 22.927 -15.201 0 -0.23 -20.065 11.949zm-0.901 25.839l2.122 -1.441 -11.829 6.886 1.281 0.8 1.25 -0.82 0.081 0.139 7.916 -5.253 0.14 0.2 2.072 -1.391 0.06 0.12 12.419 -8.257 1.391 2.272 -2.182 1.361 0.2 0.31 -20.855 12.79 1.361 0.821 4.994 -3.283 -4.224 2.582 24.769 -16.432 -0.029 -1.191 0.029 -2.612 -20.966 12.399zm17.023 4.143l3.943 -2.611 0 -0.051 -4.063 2.492 0.12 0.17zm-24.538 -4.963l5.104 -3.373 -11.58 7.086 1.111 0.65 20.706 -13.72 0.821 1.33 12.319 -8.176 0 -0.219 -2.842 1.751 2.842 -1.892 0 -0.66 -28.481 17.223zm8.956 -19.715l5.334 -3.543 0.031 0.05 2.211 -1.471 0.17 0.22 4.454 -2.942 0.09 0.11 6.575 -4.373 -20.506 12.569 0.11 0.14 1.421 -0.93 0.11 0.17zm-24.539 17.923l2.502 1.511 20.796 -13.79 0.591 0.961 3.973 -2.602 -0.51 0.31 16.712 -11.098 0 -1.582 -22.077 12.85 -21.987 13.44zm12.49 -1.361l6.945 -4.593 -14.521 8.907 1.902 1.14 15.342 -10.187 0.34 0.57 13.42 -8.906 0.17 0.22 3.863 -2.552 0.22 0.4 3.893 -2.582 0 -0.71 -10.528 6.464 10.528 -6.975 0 -0.43 -31.574 19.234zm52.651 180.847l8.026 -5.333 0 -3.653 -11.379 6.975 3.353 2.011zm6.805 4.114l1.221 -0.821 0 -1.671 -2.642 1.641 1.421 0.851zm-2.272 -1.361l0 0zm-6.095 12.339l-15.661 9.617 3.062 1.842 22.187 -14.721 0 -0.481 -12.85 7.886 1.841 -1.221 -8.286 5.084 5.815 -3.863 -1.782 1.081 2.242 -1.481 -1.872 1.171 5.445 -3.603 -5.755 3.513 6.125 -4.083 -15.182 9.306 6.695 -4.433 -4.933 3.043 22.497 -14.952 0 -0.09 -9.817 6.015 0.229 0.37zm-0.51 -0.82l7.086 -4.684 -7.226 4.423 0.14 0.261zm6.805 -13.561l-1.761 1.081 0.881 0.54 4.173 -2.752 0 -3.602 -4.514 2.772 1.221 1.961zm-17.643 -8.486l20.936 -13.891 0 -1.141 -17.053 10.468 17.053 -11.318 0 -0.711 -24.029 14.751 3.093 1.842zm18.294 -19.145l-13.841 8.487 1.051 -0.711 -5.054 3.093 2.672 -1.762 -9.737 5.955 0 0.119 2.331 1.392 25.22 -16.743 0 -0.45 -22.728 13.93 20.086 -13.31zm2.332 41.331l-20.827 12.77 1.592 0.961 19.545 -12.99 0 -0.17 -7.776 4.763 7.776 -5.163 0 -1.501 -0.821 0.51 0.511 0.82zm-18.184 -20.705l18.494 -12.26 0 -0.76 -19.886 12.199 1.392 0.821zm6.265 3.773l12.229 -8.147 0 -3.062 -15.292 9.367 3.063 1.842zm10.698 41.501l1.531 -1.021 0 -1.561 -2.862 1.791 1.331 0.791zm-20.536 -12.369l0.14 0.09 3.313 -2.222 -3.453 2.132zm21.807 13.14l0.26 -0.17 0 -0.741 -0.881 0.541 0.621 0.37zm-16.053 -9.647l16.313 -10.809 0 -1.081 -17.844 10.949 1.531 0.941zm-1.931 -1.161l0.14 0.05 3.353 -2.212 -3.493 2.162zm4.063 2.431l0.681 0.401 9.667 -6.435 -10.348 6.034zm10.348 6.245l3.833 -2.552 0 -1.281 -5.024 3.092 1.191 0.741zm-5.755 -3.463l9.588 -6.384 0 -2.012 -11.659 7.146 2.071 1.25zm-2.922 -1.781l10.638 -7.065 -4.113 2.522 5.985 -3.973 0 -0.06 -13.25 8.146 0.74 0.43zm4.283 2.572l8.227 -5.444 0 -0.851 -9.247 5.675 1.02 0.62zm2.493 1.511l5.734 -3.802 0 -1.962 -7.576 4.653 1.842 1.111zm-64.961 -249.499l3.433 -2.272 -0.941 0.571 13 -8.617 -5.644 0.11 -13.25 8.126 3.403 2.072 -0.001 0.01zm72.256 164.955l9.588 -6.345c0,0 0,-0.05 0,-0.08l-9.588 5.854 0 0.571zm0 2.072l9.538 -6.335c0,-0.33 0.02,-0.651 0.02,-0.971l-9.558 5.855 0 1.451zm7.546 -1.902l-7.546 4.624 0 0.68 4.223 -2.832 0.26 0.431 4.964 -3.303c0.02,-0.81 0.03,-1.621 0.05,-2.442l-2.692 1.652 0.741 1.19zm-2.692 3.493l2.692 -1.792 0.09 0.14 1.802 -1.201c0,-0.09 0,-0.19 0,-0.28l-4.724 2.902 0.14 0.231zm7.085 -47.797l0.231 -0.15c0.01,-0.12 0.029,-0.25 0.04,-0.37l-0.581 0.36 0.31 0.171 0 -0.011zm-1.501 -24.198l5.004 -3.322c0.03,-0.16 0.05,-0.31 0.08,-0.461l-5.394 3.303 0.31 0.48zm-10.438 80.851l9.348 -6.224c0,-0.14 0,-0.27 0,-0.411l-9.348 5.725 0 0.91zm10.719 -76.317l2.581 -1.731 0.031 0.06 1.28 -0.841c0,0 0,-0.05 0.01,-0.07l-3.993 2.442 0.091 0.14zm-10.719 12.489l1.872 1.111 3.202 -2.101 0.231 0.37 8.206 -5.444c0.03,-0.31 0.07,-0.611 0.1,-0.911l-10.828 6.645 10.898 -7.226c0.061,-0.5 0.111,-0.98 0.171,-1.461l-13.851 8.487 0 0.54 -0.001 -0.01zm6.465 1.241l-2.151 1.331 0.26 0.171 8.606 -5.705c0.01,-0.12 0.03,-0.24 0.04,-0.36l-6.945 4.253 0.2 0.31 -0.01 0zm4.884 5.594l0.9 -0.6c0.02,-0.231 0.05,-0.451 0.07,-0.681l-1.571 0.911 0.601 0.37zm-0.941 100.817l0.821 -0.541c-0.02,-0.18 -0.03,-0.36 -0.05,-0.54l-1.021 0.63 0.26 0.451 -0.01 0zm-0.57 3.463l1.731 -1.131c-0.01,-0.121 -0.03,-0.25 -0.05,-0.371l-2.081 1.271 0.4 0.231zm-12.13 57.093c0.251,-0.05 0.491,-0.09 0.731,-0.14l0 -0.31 -0.731 0.45zm0.731 -2.973l-6.325 3.863c4.129,-0.564 2.913,-0.181 6.325,-2.452l0 -1.411zm-117.471 5.715c0.35,0.02 0.691,0.04 1.041,0.06l0 -0.691 -1.041 0.641 0 -0.01zm119.032 -105.11l9.327 -6.185c0,-0.13 0,-0.27 0,-0.41l-9.327 5.715 0 0.88zm-63.319 106.281c1.151,0.02 2.332,0.04 3.543,0.04l0 -2.242 -3.543 2.202zm63.319 -103.388l9.338 -6.205c0,-0.07 0,-0.14 0,-0.211l-3.513 2.152 3.513 -2.331c0,-0.261 0,-0.541 0,-0.811l-9.327 5.714 -0.011 1.692zm10.778 39.489l0.531 -0.35c-0.02,-0.15 -0.04,-0.3 -0.05,-0.451l-0.711 0.431 0.23 0.37zm-4.653 0.651l4.954 -3.283c-0.03,-0.27 -0.05,-0.54 -0.081,-0.81l-5.784 3.553 0.911 0.54zm4.854 -157.61l-10.979 6.725 0 2.642 21.817 -14.471 0.52 0.841c0.1,-0.56 0.2,-1.141 0.3,-1.751l-0.65 -0.4 -11.008 6.414zm-138.698 41.041l-0.73 0.431 0.28 0.17 10.188 -6.755 0 -0.541 -10.078 6.165 0.34 0.53zm9.738 174.723l-5.915 3.623 1.541 0.1 4.374 -2.903 0 -0.82zm-16.773 -243.705l-0.2 0.11 0.09 -0.06 -1.762 1.021 0.141 0.23 3.692 -2.472 -1.961 1.171zm8.907 70.574l2.582 -1.732 0.43 0.681 4.854 -3.203 0 -1.931 -8.486 5.194 0.62 0.991zm6.445 4.283l1.421 -0.931 0 -1.481 -2.702 1.651 1.281 0.761zm-2.582 -3.943l4.003 -2.662 0 -0.911 -4.484 2.752 0.481 0.821zm-0.851 1.901l1.271 0.771 3.583 -2.392 0 -1.871 -5.084 3.122 0.23 0.37zm-4.173 172.821l9.027 -6.014 0 -0.4 -2.782 1.701 2.782 -1.842 0 -1.05 -10.728 6.585 1.701 1.02zm2.132 1.271l6.895 -4.563 0 -1.421 -8.347 5.104 1.452 0.88zm2.071 -87.486l2.072 -1.361 -2.102 1.281 0.03 0.08zm-1.961 0.48l-0.511 0.341 0.06 0.119 7.426 -4.913 -7.055 4.313 0.08 0.14zm1.361 11.719l1.08 -0.74 -1.11 0.68 0.03 0.06zm-6.525 -103.088l1.361 -0.911 0.37 0.601 10.218 -6.785 0 -2.042 -13.451 8.226 1.502 0.911zm7.295 -24.429l3.313 -2.211 -3.433 2.021 0.12 0.19zm17.864 -61.326l0.12 0.17 1.131 -0.741 0.09 0.171 1.051 -0.681 -0.32 -0.2 -2.072 1.281zm-17.493 50.208l2.601 -1.761 -2.721 1.591 0.12 0.17zm16.532 -49.588l0.431 -0.28 -0.431 0.25 0 0.03zm-12.249 92.341l0 -0.741 -0.601 0.37 0.601 0.371zm-13.08 -77.9l0.62 1.021 -5.474 3.353 0.2 0.34 0.481 -0.34 0.11 0.17 19.865 -13.17 -8.086 4.963 10.098 -6.714 -17.814 10.377zm9.838 56.343l-1.271 0.791 0.029 0.059 1.242 -0.85zm2.751 65.95l0.491 -0.31 0 -1.051 -0.971 0.601 0.48 0.76zm-0.59 25.079l1.081 -0.71 0 -2.613 -3.263 2.022 2.182 1.301zm-4.113 -2.492l5.194 -3.432 0 -0.771 -1.031 0.621 1.031 -0.681 0 -0.53 -6.525 3.993 1.331 0.8zm78.891 -187.512l-20.286 12.429 0.851 0.541 23.348 -15.502c-0.45,-0.02 -0.92,-0.03 -1.441,-0.05l-2.952 1.812 0.48 0.77zm-90.901 93.291c0,0 0,0.02 0,0.03l0.411 -0.27 -0.4 0.25 -0.011 -0.01zm17.204 -40.701l-21.587 13.25 8.907 -5.924 -1.982 1.221 5.304 -3.513 -8.796 5.394 27.32 -18.124 -14.751 8.707 0.511 -0.341 -1.131 0.681 0.43 0.711 -8.056 4.933 0.2 0.311 -9.617 5.894c0.16,0.971 0.34,1.931 0.51,2.892l10.728 -7.136 0.741 1.222 -11.279 6.925 0.28 1.421 22.297 -14.791 0 -3.713 -0.029 -0.02zm-13.651 -17.644l-3.032 1.842 1.161 -0.771 -11.429 6.866 0.31 1.601 24.619 -16.323 -11.629 6.775 0 0.01zm-11.358 19.485c0.029,0.231 0.069,0.451 0.1,0.68l15.021 -9.957 -15.131 9.277 0.01 0zm5.284 -11.799l-6.526 4.014c0.071,0.4 0.131,0.8 0.201,1.19l18.744 -12.439 -12.43 7.235 0.011 0zm15.722 4.544l-0.431 0.26 0.851 1.361 -10.578 6.465 0.34 0.54 8.537 -5.674 0.23 0.37 9.308 -6.154 0.11 0.23 6.835 -4.544 0.26 0.371 12.96 -8.597 -1.501 -0.911 -22.217 13.621 21.336 -14.131 -3.463 -2.102 -21.616 12.9 0.91 1.451 -22.567 13.851c0.05,0.36 0.11,0.74 0.16,1.111l19.145 -12.7 1.391 2.282zm-14.011 38.379l-0.51 0.31c0.089,0.29 0.18,0.57 0.27,0.841l12.61 -8.357 -12.37 7.206zm76.219 23.208l-5.724 3.542 0.249 0.431 -3.682 2.261 0.31 0.17 7.206 -4.763 -0.29 0.17 1.931 -1.271 0 -0.54zm-64.31 -40.992l6.095 -4.053 0 -1.191 -16.823 10.328 16.823 -11.179 0 -3.803 -22.217 13.641c0.09,0.47 0.19,0.931 0.28,1.391l20.516 -13.61 1.251 1.981 -21.437 13.15c0.22,1.001 0.45,1.972 0.681,2.913l14.721 -9.768 0.11 0.2zm3.263 3.883l2.832 -1.871 0 -2.132 -20.366 11.929c0.2,0.771 0.4,1.501 0.601,2.202l16.442 -10.898 0.481 0.77 0.01 0zm-16.493 11.599c0,0 0,0.03 0.01,0.04l1.05 -0.7 -1.06 0.65 0 0.01zm-4.654 -21.956c0,0.06 0.021,0.12 0.03,0.17l3.793 -2.522 -3.823 2.352zm12.64 227.712l11.349 -7.515 0 -0.711 -12.4 7.606 1.051 0.62zm73.157 -290.26l-13.02 7.976 1.221 1.962 -1.421 0.85 1.531 0.941 19.755 -13.12c-2.242,0.02 -4.874,0.07 -7.576,0.13l-0.941 0.581 0.451 0.68zm-6.465 14.831l2.071 1.251 25.61 -16.983 -2.542 -0.23 0.25 0.4 -25.39 15.572 0.001 -0.01zm61.277 1.882l3.122 -2.072 -3.783 -1.181 -2.351 1.442 3.012 1.811zm-115.889 7.596l0.28 -0.2 0.03 0.06 4.113 -2.722 -2.892 -1.732 -29.813 18.274 0 3.313 27.511 -18.234 0.771 1.251 0 -0.01zm106.922 -13.02l0.561 -0.371c-0.22,-0.08 -0.46,-0.18 -0.73,-0.28l-0.461 0.28 0.63 0.371zm-67.402 -5.535l1.191 0.711 11.369 -7.536c-1.722,0.04 -3.233,0.07 -4.454,0.1l-9.807 5.705 1.701 1.02zm-40.251 271.546l0 -0.14 -13.191 8.086 2.833 -1.871 -5.825 3.573c-0.02,0.12 -0.05,0.25 -0.07,0.36l0.601 0.38 15.662 -10.377 -0.01 -0.011zm-1.001 -261.328l0.711 0.451 1.251 -0.821 0.28 0.48 5.745 -3.802c-2.573,0.935 -0.023,0.563 -4.434,1.701l-4.223 1.591 0.68 0.4 -0.01 0zm37.899 -12.229l6.865 -4.554 -3.252 0.261 -5.314 3.272 1.701 1.021zm-1.341 -3.813c-1.357,0 -3.678,0.639 -3.833,0.69l1.462 0.871 2.371 -1.571 0 0.01zm-43.814 238.781l2.983 -1.982 0.31 0.511 2.752 -1.812 0.821 1.361 1.391 -0.94 0 -4.083 -10.858 6.655c-0.06,0.43 -0.11,0.87 -0.17,1.321l2.442 -1.621 0.34 0.6 -0.011 -0.01zm8.257 -1.982l-11.569 7.086c-0.04,0.27 -0.07,0.551 -0.11,0.821l11.679 -7.736 0 -0.171zm-5.905 -19.854l10.188 -6.775 0.481 0.79 11.349 -7.516 -3.373 -2.011 -6.465 3.943 0.09 0.14 -10.378 6.355 0.341 0.54 -4.934 3.033c-0.05,0.97 -0.11,1.911 -0.17,2.812l2.602 -1.731 0.28 0.43 -0.011 -0.01zm5.905 12.789l-10.548 6.355 -0.03 0.601 -0.05 0.03c-0.05,0.37 -0.1,0.75 -0.15,1.131l10.778 -7.145 0 -0.972zm-7.696 -7.315l3.913 -2.612 0.03 0.03 16.823 -11.149 0.48 0.77 5.955 -3.943 -2.412 -1.481 -22.467 13.791 0.23 0.37 -3.803 2.322 -0.07 1.081 1.331 0.82 -0.01 0.001zm-3.913 31.434l11.599 -7.716 0 -1.301 -12.69 7.775c-0.07,0.561 -0.14,1.111 -0.2,1.652l1.091 -0.741 0.2 0.341 0 -0.01zm11.609 10.948l-0.711 0.43 0.681 1.051 -14.682 8.997c-0.04,0.631 -0.07,1.211 -0.11,1.771l14.822 -9.827 0 -2.422zm-15.122 15.772c-0.02,0.17 -0.04,0.33 -0.06,0.49l8.907 -5.904 -8.847 5.414zm15.122 -6.415l-15.472 9.017c-0.09,0.59 -0.191,1.151 -0.291,1.681l15.752 -10.438 0 -0.26 0.011 0zm0 -5.814l-10.979 6.725 5.194 -3.433 -9.046 5.534c-0.041,0.631 -0.091,1.221 -0.131,1.782l14.962 -9.928 0 -0.68zm0 -107.772l-8.397 5.164 0.1 1.761 8.296 -5.504 0.001 -1.421zm-4.744 50.128l10.158 -6.725 0.541 0.911 5.954 -3.973 -1.621 -0.961 -18.694 10.878c-0.03,0.77 -0.07,1.521 -0.101,2.242l3.703 -2.452 0.06 0.09 0 -0.01zm-3.663 -113.156l8.397 -5.564 -0.03 -3.853 0.03 -0.03 0 -0.11 -4.373 2.692 0.31 0.48 -12.21 7.486c0.131,0.37 0.261,0.78 0.381,1.211l4.083 -2.712 0.77 1.25 -4.513 2.773c0.04,0.2 0.09,0.4 0.13,0.62l6.855 -4.554 0.17 0.311zm-0.06 67.171c0,0.09 0.01,0.18 0.021,0.27l4.413 -2.932 -4.434 2.662zm8.467 2.162l-8.097 4.973c0,0.261 0.02,0.521 0.03,0.781l8.077 -5.354 0 -0.4 -0.01 0zm-5.795 -66.891l5.505 -3.663 0.28 0.48 0 -3.803 -8.116 4.964 0.26 0.4 -7.376 4.514c0.07,0.43 0.13,0.911 0.2,1.471l8.477 -5.625 0.77 1.262zm-2.331 71.304c0,0 0,0.01 0,0.02l0.4 -0.27 -0.4 0.25zm0.35 33.145l11.149 -7.376 1.05 1.702 1.872 -1.221 -3.883 -2.352 -10.498 6.445c-0.03,1.03 -0.05,2.021 -0.08,2.992l0.37 -0.24 0.03 0.06 -0.01 -0.01zm7.776 -21.787l0 -0.99 -7.866 4.824c0,0.26 0,0.52 0,0.78l0.49 0.291 7.376 -4.905zm0 -3.522l-7.866 4.814c0,0.59 0,1.16 0,1.761l7.856 -5.204 0.01 -1.371zm0 -4.313l-0.821 0.51 0.821 -0.541 0 -0.37 -1.451 0.911 1.451 -0.961 0 -0.03 -2.862 1.731 0.99 -0.65 -6.044 3.713c0,0.55 0.02,1.081 0.029,1.631l7.886 -5.234 0.001 -0.71zm-2.782 -90.409l2.782 -1.841 0 -2.102 -17.454 10.158 0.391 2.032 13.75 -9.127 0.541 0.88 -0.01 0zm85.956 54.241l-0.4 -0.23 -1.671 1.031 0.25 0.42 1.821 -1.221zm-23.408 14.691l13.651 -9.047 0.11 0.17 7.486 -4.963 -21.247 13.02 0 0.82zm0 23.178l13.36 -8.847 -0.9 -0.57 -12.46 7.636 0 1.781zm21.337 -37.068l0 0zm-21.337 22.127l1.561 -1.031 -1.561 -0.931 0 1.962zm0 12.529l11.459 -7.596 -0.761 -0.46 -10.698 6.555 0 1.501zm0 -32.935l4.253 -2.832 -4.253 2.612 0 0.22zm0 30.353l9.418 -6.234 -1.332 -0.791 -8.086 4.963 0 2.062zm0 -4.984l5.444 -3.632 -1.751 -1.051 -3.693 2.241 0 2.442zm2.102 -77.558l0.03 0.03 8.136 -5.395 -8.336 5.104 0.17 0.261zm-2.102 79.82l7.266 -4.823 -0.511 -0.311 -6.755 4.143 0 0.991zm0 -17.583l17.023 -11.289 -17.023 10.268 0 1.021zm12.48 -15.602l0.57 0.931 3.293 -2.152 -0.961 -0.57 -2.902 1.791zm-0.05 -0.06l2.782 -1.841 -0.661 -0.401 -2.522 1.561 0.401 0.681zm1.471 -39.46l0.14 0.09 3.663 -2.412 -3.803 2.322zm-13.901 37.248l6.956 -4.593 -0.541 -0.341 -1.161 0.741 1.131 -0.77 -2.382 -1.421 -4.003 2.441 0 3.943zm0 -4.873l3.092 -2.052 -0.48 -0.31 -2.612 1.621 0 0.741zm18.074 6.975l-0.821 -0.511 -1.11 0.681 0.48 0.761 1.451 -0.931zm-17.253 6.695l7.886 -5.224 -8.056 4.934 0.17 0.29zm6.865 -6.785l0.32 0.51 5.134 -3.402 -0.23 -0.141 -5.224 3.033zm3.553 3.352l1.671 -1.111 -1.701 1.051 0.03 0.06zm-7.496 -5.224l1.962 -1.301 -3.743 2.292 0.42 0.681 7.265 -4.794 -0.26 -0.17 -5.644 3.292zm-65.07 146.692l-13.221 8.086 1.842 1.131 12.94 -8.587 0 -1.111 -11.239 6.895 9.678 -6.414zm43.373 -173.152l-4.083 2.492 0.17 0.08 3.913 -2.572zm16.393 -0.74l0 -0.711 -13.39 8.196 1.111 0.681 12.279 -8.166zm0 -4.284l0 -1.561 -12.82 7.776 0.34 0.59 -4.654 2.723 1.452 0.88 15.682 -10.408zm-6.355 -10.357l0.14 0.23 5.905 -3.914 -6.045 3.684zm0.57 0.91l0.081 0.11 3.262 -2.181 -3.343 2.071zm5.785 26.27l-2.492 1.531 0.42 0.25 2.072 -1.361 0 -0.42zm0 -5.024l-6.605 4.053 0.48 0.291 6.125 -4.063 0 -0.141 -2.272 1.392 2.272 -1.502 0 -0.03zm0 -1.761l-8.056 4.964 0.6 0.34 7.456 -4.964 0 -0.34zm0 2.892l-5.675 3.493 2.472 1.501 3.203 -2.122 0 -2.872zm0 5.454l-1.191 0.731 1.191 0.741 0 -1.472zm-26.44 -14.471l0.54 0.311 12.649 -8.397 -13.189 8.086zm4.773 2.863l21.667 -14.382 0 -1.701 -23.999 14.691 0.511 0.321 11.579 -7.666 0.76 1.251 -11.399 6.975 0.881 0.511zm-3.693 36.317l0.681 1.071 1.841 -1.241 -1.1 -0.661 -1.422 0.831zm47.717 62.117l-5.504 3.383 5.274 -3.523 -0.11 -0.05 -19.805 12.109 17.113 -11.348 -21.987 13.28 4.483 -2.953 -10.078 6.155 0.261 0.371 -19.545 11.998 0 2.953 31.234 -20.736 0.2 0.341 2.412 -1.622 0.39 0.621 8.687 -5.755 -1.511 0.941 0.09 -0.06 -2.212 1.331 5.444 -3.603 -5.754 3.523 11.028 -7.296 -0.11 -0.06zm-20.796 -23.538l2.982 -1.991 -2.982 1.731 0 0.26zm0 -3.092l3.092 -2.041 -3.092 1.901 0 0.14zm-34.206 -11.629l0.11 0.19 4.853 -3.202 -4.963 3.012zm5.134 -2.131l-4.654 2.862 0.08 0.17 4.574 -3.032zm29.072 13.3l16.203 -10.748 -1.532 -0.931 -14.671 8.987 0 2.692zm-26.27 -73.156l0.71 0.42 17.164 -11.398 -17.874 10.978zm-7.996 65.3l20.195 -13.391 0.601 0.941 2.121 -1.391 0.14 0.23 4.574 -3.042 -1.141 -0.68 -2.802 1.731 2.692 -1.782 -0.37 -0.23 -4.654 2.862 1.822 -1.22 -22.498 13.62 0.31 0.54 -1.611 0.991 0.621 0.821zm2.662 -7.686l-7.657 4.713 0.741 0.421 13.411 -8.907 -6.495 3.773zm31.604 -1.051l3.092 -2.042 -0.42 -0.25 -2.672 1.641 0 0.651zm29.103 -56.503l0 1.211 0.97 -0.62 -0.97 -0.591zm0 18.374l0 0.51 9.937 -6.604 -9.937 6.094zm0.37 -10.238l0.54 -0.37 0.291 0.46 5.924 -3.942 -0.94 -0.571 -6.185 3.773 0 0.57 0.23 -0.15 0.14 0.23zm3.322 -5.924l-3.692 2.261 0 1.822 4.974 -3.293 -1.282 -0.79zm-1.33 -0.801l-2.362 1.452 0 1.05 3.092 -2.041 -0.73 -0.461zm9.357 75.778l-11.719 7.175 0 1.221 12.199 -8.116 -0.48 -0.28zm-11.719 -56.283l0 0.19 3.582 -2.381 -3.582 2.191zm1.731 51.599l1.081 -0.71 -2.722 -1.622 -0.09 0.06 0 2.072 1.141 -0.771 0.59 0.971zm-1.731 5.134l0 0.2 3.582 -2.382 -3.582 2.182zm7.866 -54.581l5.334 -3.543 0.08 0.11 4.824 -3.202 0.06 0.11 3.342 -2.212 -18.264 11.209 18.635 -12.37 -0.431 -0.26 -2.912 1.821 1.701 -1.171 -18.724 11.499 8.767 -5.794 -10.278 6.275 0 2.692 7.836 -5.194 0.03 0.03zm9.327 -2.863l1.081 -0.71 -1.111 0.651 0.03 0.059zm-13.731 -5.504l9.988 -6.615 -0.25 -0.14 -11.659 7.156 11.199 -7.436 -0.2 -0.11 -12.54 7.686 0 2.242 12.69 -8.397 -9.228 5.614zm8.086 -7.745l-0.37 -0.231 -2.802 1.702 0.281 0.46 2.891 -1.931zm-103.289 146.41l2.872 -1.901 0 -3.773 -6.075 3.743 3.203 1.931zm-8.167 -5.594l-0.57 0.34 1.111 0.651 10.498 -6.945 0 -1.281 -11.239 6.895 0.2 0.34zm10.779 7.176l0.26 -0.17 0 -1.701 -1.682 1.02 1.422 0.851zm-7.066 -4.253l0.23 0.11 5.044 -3.343 -5.274 3.233zm-1.811 -1.101l2.632 -1.732 0.54 0.881 5.965 -3.943 0 -1.851 -9.988 6.134 0.851 0.511zm109.334 -136.454l4.984 -3.322 -0.25 -0.14 -4.994 3.032 0.26 0.43zm-0.35 -0.57l4.714 -3.123 -0.541 -0.34 -4.593 2.812 0.42 0.651zm8.407 7.836l6.885 -4.574 -0.821 -0.51 -6.775 3.943 0.711 1.141zm-112.007 117.299l-1.131 0.68 0.791 1.271 4.093 -2.692 0 -2.011 -3.943 2.442 0.19 0.31zm34.417 -28.852l30.583 -20.286 -0.94 -0.56 -0.431 0.28 0.09 0.14 -29.302 17.954 0 2.472zm5.194 -178.155l-0.461 0.26 0.03 0.03 0.431 -0.29zm10.998 7.155l5.454 -3.633 -5.674 3.493 0.22 0.14zm20.116 10.638l2.412 -1.621 -2.472 1.531 0.06 0.09zm-19.546 -10.298l1.502 -0.991 -1.581 0.961 0.079 0.03zm0.451 0.28l1.901 -1.271 -1.561 0.961 6.335 -4.173 -2.161 1.311 0.139 -0.09 -4.994 3.062 0.341 0.2zm11.439 148.934l0.2 0.28 0.11 -0.11 -0.31 -0.17zm16.392 -139.086l0.031 0.05 5.874 -3.883 -11.779 7.206 0.4 0.26 5.474 -3.633zm-15.942 135.453l7.406 -4.904 0.14 0.2 2.072 -1.361 0 0.02 15.291 -10.127 -3.632 -2.182 -21.277 13.05 0 3.152 21.817 -14.471 1.051 1.671 -22.868 14.021 0 0.931zm9.848 -132.19l9.307 -6.185 -2.302 1.421 0.03 0.02 -7.375 4.513 0.34 0.231zm-9.848 65.979l0 2.983 2.382 -1.591 -2.352 -1.421 -0.03 0.029zm35.778 79.291l0.11 0.2 2.522 -1.672 0.03 0.02 8.937 -5.924 -12.34 7.576 0.11 0.2 0.631 -0.4zm7.796 -15.973l-4.624 2.813 0.09 0.17 4.534 -2.983zm-1.081 -2.662l-13.39 8.197 0 0.71 13.45 -8.907 -0.06 0zm11.999 -44.883l-12.529 7.685 0.48 0.32 12.049 -8.005zm1.932 -3.483l-16.363 10.038 0.851 0.51 15.512 -10.268 0 -0.28zm-21.417 67.141l18.414 -12.199 -0.91 -0.561 -7.436 4.564 0.32 0.51 -16.292 9.988 0 1.331 5.794 -3.834 0.11 0.201zm-30.433 -198.551l-12.4 7.406 0.651 0.4 11.749 -7.806zm40.311 190.014l6.945 -4.623 -0.48 -0.28 -6.045 3.512 0.37 0.571 -0.94 0.59 0.15 0.23zm-66.131 -129.018l2.952 -1.961 -10.808 6.525 0 1.481 23.888 -15.862 -16.032 9.817zm-4.284 -29.192l0.401 0.26 9.868 -6.555 -10.269 6.295zm63.179 108.193l0.561 0.34 8.997 -5.925 -6.095 3.713 4.964 -3.283 -8.427 5.155z"/>
    <path id="_3_0" fill="#0030A8" fill-rule="nonzero" d="M208.303 50.699l13.671 -10.769c0,0 -0.05,-0.09 -0.08,-0.13l-4.724 3.473 4.624 -3.643c-0.05,-0.08 -0.09,-0.16 -0.14,-0.24l-14.581 10.688 1.23 0.621zm-10.828 43.262c0.02,0.08 0.05,0.151 0.07,0.221l4.894 -3.864 -4.964 3.643zm0.791 5.895l9.557 -7.546 0.62 0.851 5.615 -4.454 -1.702 -0.821 -14.621 10.218c-0.02,0.581 -0.04,1.291 -0.07,2.082l0.53 -0.421 0.06 0.09 0.011 0.001zm8.146 -12.68l1.731 -1.391 -4.053 -1.982 -6.395 4.694 -0.801 3.643 8.336 -6.586 1.191 1.622 -0.009 0zm7.715 -47.406l5.204 -4.113c-0.2,-0.28 -0.39,-0.54 -0.57,-0.79l-12.89 9.457c-0.07,0.4 -0.14,0.821 -0.21,1.251l8.046 -6.385 0.431 0.57 -0.011 0.01zm-12.799 39.66l-0.231 -2.582 -0.88 3.343 0.08 0.04 1.031 -0.801zm-3.173 27.461l1.051 -0.79 -1.081 0.76 0.03 0.03zm-0.4 -12.199l1.961 -1.531 -2.021 1.471 0.06 0.06zm12.71 16.202l11.689 -9.247 0.17 0.22 7.065 -5.584 -2.411 -1.191 -1.192 0.881 0.991 1.361 -23.998 17.613 1.191 0.601 4.333 -3.413 0.15 0.2 1.922 -1.531 0.09 0.09zm-3.263 -12.319l0.571 0.74 10.668 -8.456 -3.513 -1.731 -6.125 4.483 0.09 0.14 -9.817 7.176 0.4 0.51 -1.882 1.381c-0.02,0.619 -0.257,2.957 0.03,3.332l9.588 -7.575 -0.01 0zm3.713 8.316l15.352 -12.139 -0.651 -0.31 -26.44 18.744 0.25 0.12 0.881 -0.68 1.361 1.781 13.16 -10.408 -3.913 2.892zm-5.524 -57.644l0.59 0.281 13.111 -10.378 -13.701 10.097zm-4.684 74.227l4.274 -0.32 -0.22 -2.652 -4.054 2.972zm-0.71 -14.601l15.862 -12.51 0.54 0.711 5.614 -4.424 -2.551 -1.281 -21.247 15.602 0.28 0.341 -1.061 0.79 -0.119 1.621 -0.031 0 0 0.03 -0.119 1.341 2.842 -2.251 0 0.029 -0.01 0.001zm4.563 9.537l-6.865 4.984c0.098,0.486 1.619,0.201 1.621,0.2l5.334 -4.213 -0.09 -0.971zm19.635 -70.444l-8.597 6.325 2.412 1.191 4.033 -3.202 0.11 0.11 4.554 -3.603c-0.21,-0.43 -0.44,-0.881 -0.66,-1.311l-5.545 4.063 5.435 -4.283 -0.861 -1.681 -1.762 1.23 0.881 1.161zm9.448 50.078l4.353 -3.442 -0.04 -0.281 -4.364 3.143 0.06 0.57 -0.009 0.01zm0.31 3.994l4.703 -3.713 -0.36 -2.092 -4.544 3.333 0.201 2.472zm4.223 6.384l-3.462 2.532 0.03 0.62 4.173 -3.292 -2.182 1.621 3.173 -2.532c0,0 0,-0.07 0,-0.1l-3.994 2.942 2.272 -1.791 -0.01 0zm-3.683 -0.17l4.964 -3.923 -0.15 -1.451 0 0c-0.09,-0.75 -0.18,-1.511 -0.29,-2.202l-4.874 3.573 0.34 4.003 0.01 0zm5.165 11.799c0.13,-0.07 0.17,-0.17 0.19,-0.39l-0.761 0.55c0.3,-0.06 0.46,-0.11 0.561,-0.17l0.01 0.01zm-2.563 0.44l2.822 -2.231c0,-0.08 0,-0.16 0,-0.25l-3.462 2.552 0.64 -0.071zm-1.641 -0.69l4.514 -3.563 0.01 -1.982 -4.694 3.443 0.17 2.102zm-0.25 -3.013l4.774 -3.772 -0.03 -3.994 -5.074 3.733 0.341 4.033 -0.011 0zm-10.078 -60.906l3.543 -2.812c0,0 -0.01,-0.03 -0.02,-0.04l-3.673 2.692 0.14 0.17 0.01 -0.01zm0.49 0.681l3.403 -2.692c0,0 -0.01,-0.02 -0.02,-0.04l-3.502 2.582 0.119 0.15zm2.723 4.033l2.522 -1.991c-0.11,-0.31 -0.22,-0.621 -0.341,-0.941l-3.262 2.392 1.081 0.54zm-8.347 -4.143l0.741 0.37 7.115 -5.614c-0.06,-0.13 -0.12,-0.26 -0.18,-0.39l-7.676 5.634zm6.305 3.122l3.813 -3.002c0,0 -0.02,-0.04 -0.02,-0.06l-4.023 2.952 0.23 0.11zm-0.26 -2.442l-1.531 1.111 0.71 0.801 4.474 -3.543 -0.581 -1.391 -3.443 2.522 0.371 0.511 0 -0.011zm-205.419 64.419l4.974 -2.151 -5.054 1.981 0.08 0.17zm7.636 -55.142l-8.677 3.433 -0.06 0.2 2.892 2.492 15.812 -6.925c-0.16,-1.001 -0.31,-1.992 -0.46,-2.983l-9.577 3.783 0.07 0zm-6.245 -10.558l10.928 -4.793 -10.838 4.313 -0.09 0.48zm-7.516 53.141l1.161 -0.511 -2.382 -2.071 -0.11 0.03 -0.37 2.041 1.281 -0.54 0.42 1.051zm17.564 -51.009l-11.209 4.423 -0.45 2.642 8.596 -3.772 0.031 0.06 5.904 -2.582 0.03 0.11 2.132 -0.941c0,0 -0.01,-0.09 -0.021,-0.13l-13.01 5.154 12.93 -5.664c-0.04,-0.27 -0.08,-0.55 -0.12,-0.821l-14.431 5.715 9.617 -4.204 0.001 0.01zm-8.317 15.712l1.051 0.911 13.911 -6.095c-0.05,-0.3 -0.1,-0.601 -0.15,-0.9l-15.012 5.944 0.2 0.14zm6.185 5.394l9.928 -4.343c-0.04,-0.17 -0.07,-0.341 -0.11,-0.521l-10.589 4.204 0.771 0.65 0 0.01zm-8.306 -21.046l3.943 -1.731 -3.913 1.531 -0.03 0.2zm9.667 22.207l8.907 -3.903c-0.01,-0.06 -0.02,-0.11 -0.04,-0.16l-9.327 3.693 0.46 0.37zm-6.035 -43.002l-0.2 1.22 1.071 -0.48 -0.871 -0.74zm17.814 50.918l-1.851 0.74 0.06 0.05 1.791 -0.79zm-18.844 -42.833l0.6 -0.29 0.201 0.511 6.524 -2.862 -0.85 -0.741 -6.725 2.672 -0.111 0.57 0.251 -0.12 0.11 0.26zm13.2 27.371l-6.615 2.642 5.424 -2.382 -9.167 3.633 0.51 0.42 9.848 -4.313zm-9.027 5.054l0.48 -0.23 -0.51 0.2 0.03 0.03zm-16.513 35.997l-0.02 0.17 3.943 -1.731 -3.923 1.561zm15.462 -74.697l-2.582 1.021 -0.2 1.021 3.433 -1.471 -0.651 -0.571zm-16.823 82.493l13.42 -5.864 -0.42 -0.371 -12.8 5.044 -0.2 1.191zm17.984 -81.472l-4.023 1.591 -0.31 1.792 5.474 -2.412 -1.141 -0.971zm4.294 83.294l-5.925 2.181 1.631 0.251 4.724 -2.062 -0.43 -0.37zm-0.431 -42.153l0.911 0.771 7.446 -3.262c-0.121,-0.531 -0.241,-1.061 -0.361,-1.602l-8.727 3.453 0.741 0.651 -0.01 -0.011zm-26.07 19.115l-4.764 1.881 -0.42 2.272 5.414 -2.372 0.741 1.842 -6.525 2.582 0 0.08 -0.03 0.03 0 0.06 -0.03 0.03 0 0.06 -0.03 0 0 0.06 -0.031 0 0 0.03 -0.03 0c0,0 -0.04,0.04 -0.069,0.14l8.946 -3.913 -3.172 -2.782zm18.694 16.252l-14.611 5.785 -0.04 0.24c0.22,0.05 0.45,0.09 0.671,0.14l14 -6.145 -0.02 -0.02zm8.827 7.666l-4.333 1.711c2.751,0.446 1.632,0.54 5.154,-1l-0.821 -0.711zm6.065 -1.591l2.802 -1.231 0.11 -0.75 -2.772 1.1 -0.14 0.881zm-0.511 2.832l2.933 -1.281c0.06,-0.51 0.13,-0.991 0.2,-1.491l-2.853 1.131 -0.28 1.641zm-5.214 -73.385l1.902 -0.831c-0.02,-0.13 -0.04,-0.26 -0.07,-0.4l-2.002 0.8 0.17 0.431zm-1.901 -4.654l2.892 -1.261c-0.03,-0.13 -0.05,-0.27 -0.08,-0.4l-3.013 1.21 0.201 0.451zm1.641 4.063l2.042 -0.891c-0.04,-0.23 -0.08,-0.46 -0.12,-0.69l-2.212 0.88 0.28 0.711 0.01 -0.01zm-11.659 2.952l13.36 -5.834c0,0 0,-0.02 0,-0.02l-9.437 3.733 9.368 -4.103c-0.021,-0.11 -0.041,-0.211 -0.061,-0.321l-11.298 4.483 11.218 -4.913c-0.019,-0.09 -0.029,-0.18 -0.049,-0.261l-12.7 5.035 -0.4 2.211 -0.001 -0.01zm-10.037 13.841l2.011 -0.881 -0.37 -0.31 -5.424 2.142c-0.02,0.07 -0.04,0.13 -0.061,0.2l3.664 -1.612 0.18 0.461zm31.624 22.837l-0.11 -1.731 -1.311 0.52 1.421 1.221 0 -0.01zm0.77 4.594l0.231 -0.101 0.06 -1.571 -0.28 1.672 -0.011 0zm-7.435 -10.358l3.092 -1.361 0.17 0.34 1.562 -0.68c-0.26,-0.941 -0.52,-1.931 -0.781,-2.983l-6.455 2.552 2.412 2.132zm6.705 15.151c0,-0.25 0,-0.49 0,-0.7l-0.13 0.75 0.13 -0.05zm-2.592 -14.04l-1.931 0.77 1.16 1.021 2.512 -1.091c-0.22,-0.721 -0.46,-1.491 -0.69,-2.322l-1.471 0.581 0.43 1.05 -0.01 -0.009zm1.621 18.894l0.941 -0.411 0.01 -1.18 -0.721 0.28 -0.23 1.311zm-1.451 8.336l2.212 -0.97 0 -0.511 -2.102 0.831 -0.11 0.65zm0.57 -3.342l1.702 -0.741c0,-0.41 0.02,-0.831 0.03,-1.261l-1.482 0.581 -0.26 1.421 0.01 0zm0.371 -2.022l1.381 -0.61c0,-0.16 0,-0.321 0.01,-0.481l-1.311 0.521 -0.09 0.57 0.01 0zm-2.162 12.289l2.752 -1.201c0.03,-0.249 0.07,-0.49 0.101,-0.74l-2.683 1.061 -0.17 0.88z"/>
   </g>
  </g>
  <path fill="none" d="M136.796 295.988c2.461,-0.097 4.626,-0.225 7.017,-0.355 2.39,-0.131 5.006,-0.265 8.261,-0.493 3.256,-0.228 7.151,-0.55 10.471,-0.852 3.319,-0.302 6.061,-0.583 8.794,-0.949 2.732,-0.365 5.455,-0.814 7.654,-1.25 2.2,-0.436 3.876,-0.858 6.001,-1.331 2.126,-0.473 4.701,-0.996 6.595,-1.321 1.894,-0.325 3.108,-0.453 4.268,-0.536 1.16,-0.084 2.267,-0.124 3.155,-0.117 0.889,0.008 1.559,0.063 1.956,0.094 0.396,0.031 0.518,0.038 0.611,0.043 0.049,0.002 0.09,0.004 0.127,0.006 0.093,-0.07 0.162,-0.18 0.177,-0.779 0.016,-0.673 -0.037,-1.966 -0.106,-2.786 -0.069,-0.819 -0.154,-1.166 -0.285,-1.855 -0.131,-0.689 -0.307,-1.72 -0.651,-2.686 -0.345,-0.965 -0.858,-1.866 -1.476,-3.045 -0.619,-1.179 -1.343,-2.638 -1.783,-3.616 -0.44,-0.978 -0.596,-1.476 -0.848,-2.693 -0.251,-1.217 -0.598,-3.153 -0.953,-5.871 -0.354,-2.718 -0.716,-6.219 -1.038,-8.884 -0.322,-2.666 -0.603,-4.496 -1.081,-7.559 -0.478,-3.062 -1.152,-7.357 -1.71,-11.521 -0.558,-4.164 -1.001,-8.198 -1.348,-12.226 -0.347,-4.028 -0.598,-8.051 -0.759,-11.637 -0.161,-3.586 -0.231,-6.734 -0.287,-9.787 -0.055,-3.052 -0.095,-6.01 -0.156,-9.258 -0.06,-3.249 -0.14,-6.79 -0.108,-12.037 0.033,-5.248 0.179,-12.203 0.352,-17.466 0.174,-5.263 0.375,-8.834 0.652,-12.807 0.276,-3.973 0.628,-8.348 0.975,-12.271 0.347,-3.922 0.689,-7.393 1.122,-11.743 0.432,-4.35 0.955,-9.58 1.483,-13.99 0.528,-4.411 1.061,-8.002 1.512,-10.619 0.45,-2.618 0.817,-4.262 1.139,-5.308 0.321,-1.046 0.598,-1.494 0.803,-1.766 0.205,-0.271 0.338,-0.367 0.405,-0.414 0.066,-0.048 0.066,-0.048 0.049,0.598 -0.018,0.646 -0.053,1.939 -0.108,3.533 -0.056,1.594 -0.131,3.49 -0.173,4.967 -0.041,1.478 -0.049,2.536 -0.079,3.186 -0.03,0.65 -0.083,0.892 -0.102,1.011 -0.018,0.119 -0.003,0.117 -0.041,0.151 -0.038,0.034 -0.128,0.104 -0.133,0.68 -0.005,0.576 0.075,1.657 0.192,3.051 0.117,1.395 0.27,3.102 0.322,4.786 0.051,1.683 0.001,3.343 0.002,4.231 0,0.887 0.052,1.003 0.132,1.078 0.08,0.076 0.188,0.111 1.001,0.06 0.814,-0.051 2.333,-0.188 4.105,-0.324 1.773,-0.137 3.8,-0.273 5.955,-0.431 2.155,-0.158 4.438,-0.339 6.588,-0.463 2.15,-0.123 4.166,-0.188 5.992,-0.299 1.826,-0.111 3.46,-0.267 5.336,-0.47 1.876,-0.204 3.993,-0.455 6.015,-0.682 2.021,-0.226 3.947,-0.427 5.109,-0.565 1.162,-0.139 1.559,-0.214 1.758,-0.327 0.199,-0.113 0.199,-0.264 0.229,-0.906 0.03,-0.641 0.09,-1.772 0.108,-3.132 0.017,-1.361 -0.008,-2.95 -0.023,-4.429 -0.015,-1.478 -0.02,-2.846 -0.038,-3.724 -0.017,-0.877 -0.047,-1.264 -0.071,-1.469 -0.025,-0.205 -0.043,-0.227 -0.083,-0.294 -0.04,-0.068 -0.103,-0.181 -0.174,-0.682 -0.071,-0.5 -0.152,-1.388 -0.255,-2.32 -0.103,-0.933 -0.229,-1.911 -0.348,-2.739 -0.12,-0.827 -0.233,-1.504 -0.413,-2.544 -0.179,-1.042 -0.426,-2.447 -0.613,-3.449 -0.187,-1.002 -0.316,-1.601 -0.436,-2.27 -0.121,-0.668 -0.234,-1.408 -0.366,-2.121 -0.132,-0.713 -0.283,-1.399 -0.425,-2.156 -0.142,-0.757 -0.275,-1.584 -0.375,-2.322 -0.099,-0.738 -0.165,-1.387 -0.239,-2.029 -0.074,-0.643 -0.157,-1.279 -0.257,-2.036 -0.101,-0.757 -0.219,-1.634 -0.34,-2.526 -0.121,-0.891 -0.244,-1.796 -0.353,-2.565 -0.11,-0.768 -0.205,-1.399 -0.373,-2.344 -0.168,-0.945 -0.408,-2.203 -0.82,-4.085 -0.412,-1.881 -0.995,-4.386 -1.704,-6.89 -0.709,-2.505 -1.544,-5.009 -2.651,-7.745 -1.106,-2.736 -2.484,-5.703 -4.093,-8.851 -1.61,-3.149 -3.45,-6.478 -4.878,-8.781 -1.429,-2.304 -2.444,-3.581 -3.453,-4.629 -1.008,-1.049 -2.009,-1.869 -3.015,-2.608 -1.006,-0.739 -2.017,-1.398 -2.582,-1.773 -0.566,-0.375 -0.687,-0.465 -0.756,-0.571 -0.069,-0.105 -0.087,-0.226 -0.095,-0.303 -0.009,-0.077 -0.009,-0.109 -0.07,-0.174 -0.06,-0.066 -0.181,-0.164 -1.307,-0.714 -1.127,-0.551 -3.259,-1.555 -5.31,-2.603 -2.05,-1.048 -4.019,-2.142 -5.77,-2.976 -1.752,-0.833 -3.286,-1.407 -5.061,-1.957 -1.775,-0.551 -3.792,-1.079 -5.429,-1.507 -1.637,-0.427 -2.894,-0.754 -3.762,-1.008 -0.867,-0.254 -1.345,-0.435 -2.044,-0.7 -0.699,-0.266 -1.619,-0.615 -2.606,-0.909 -0.987,-0.295 -2.041,-0.533 -2.716,-0.687 -0.675,-0.153 -0.972,-0.221 -1.44,-0.471 -0.467,-0.25 -1.106,-0.683 -1.581,-0.937 -0.475,-0.254 -0.787,-0.329 -1.073,-0.365 -0.285,-0.035 -0.544,-0.03 -0.777,-0.03 -0.232,0 -0.438,-0.005 -1.342,-0.33 -0.904,-0.326 -2.506,-0.972 -4.026,-1.577 -1.52,-0.605 -2.959,-1.168 -4.404,-1.748 -1.446,-0.579 -2.9,-1.175 -3.816,-1.569 -0.917,-0.393 -1.297,-0.584 -1.594,-0.779 -0.298,-0.194 -0.514,-0.392 -0.705,-0.497 -0.191,-0.105 -0.356,-0.116 -0.467,-0.117 -0.11,0 -0.164,0.01 -0.251,-0.004 -0.086,-0.014 -0.204,-0.052 -0.587,-0.292 -0.382,-0.24 -1.028,-0.682 -1.678,-1.193 -0.65,-0.51 -1.304,-1.089 -1.956,-1.661 -0.653,-0.572 -1.304,-1.138 -2.311,-1.569 -1.007,-0.431 -2.37,-0.728 -3.723,-0.919 -1.353,-0.191 -2.695,-0.276 -4.576,-0.354 -1.881,-0.078 -4.3,-0.149 -7.931,-0.131 -3.631,0.017 -8.474,0.123 -12.914,0.219 -4.439,0.096 -8.475,0.183 -10.597,0.231 -2.123,0.048 -2.332,0.058 -4.152,0.203 -1.82,0.145 -5.249,0.427 -7.404,0.671 -2.155,0.244 -3.035,0.45 -3.752,0.707 -0.717,0.256 -1.27,0.563 -1.886,1.078 -0.616,0.516 -1.295,1.24 -2.019,1.877 -0.725,0.638 -1.494,1.189 -1.953,1.46 -0.459,0.272 -0.607,0.264 -0.901,0.366 -0.295,0.102 -0.735,0.313 -1.268,0.582 -0.533,0.269 -1.159,0.596 -1.919,0.922 -0.761,0.325 -1.656,0.65 -2.301,0.904 -0.645,0.254 -1.04,0.437 -1.514,0.628 -0.474,0.192 -1.027,0.39 -1.765,0.621 -0.738,0.232 -1.661,0.496 -2.558,0.836 -0.896,0.341 -1.766,0.759 -2.573,1.076 -0.808,0.316 -1.552,0.533 -2.299,0.749 -0.746,0.216 -1.496,0.432 -2.053,0.655 -0.557,0.222 -0.921,0.451 -1.207,0.636 -0.285,0.185 -0.491,0.326 -0.999,0.476 -0.508,0.15 -1.318,0.31 -1.914,0.463 -0.596,0.154 -0.978,0.301 -1.488,0.492 -0.51,0.192 -1.147,0.429 -1.75,0.617 -0.603,0.189 -1.171,0.329 -1.687,0.459 -0.516,0.13 -0.98,0.248 -1.7,0.426 -0.719,0.179 -1.693,0.418 -2.551,0.633 -0.857,0.216 -1.598,0.408 -2.171,0.57 -0.573,0.161 -0.979,0.292 -1.436,0.426 -0.456,0.134 -0.963,0.271 -1.427,0.4 -0.465,0.129 -0.887,0.249 -1.312,0.377 -0.424,0.128 -0.85,0.262 -1.203,0.399 -0.353,0.137 -0.632,0.277 -1.012,0.437 -0.38,0.159 -0.862,0.339 -1.279,0.53 -0.417,0.191 -0.769,0.394 -1.165,0.602 -0.397,0.209 -0.838,0.424 -1.221,0.617 -0.382,0.194 -0.705,0.366 -1.126,0.589 -0.421,0.223 -0.941,0.495 -1.657,0.865 -0.717,0.371 -1.631,0.838 -2.694,1.37 -1.063,0.532 -2.275,1.128 -3.18,1.576 -0.905,0.448 -1.504,0.747 -2.037,1.087 -0.533,0.341 -1.001,0.723 -1.443,1.08 -0.443,0.358 -0.86,0.689 -1.353,1.079 -0.493,0.39 -1.061,0.837 -1.779,1.475 -0.718,0.637 -1.586,1.465 -2.375,2.331 -0.79,0.866 -1.501,1.771 -2.145,2.665 -0.644,0.894 -1.22,1.777 -1.924,2.935 -0.704,1.158 -1.536,2.591 -2.208,3.821 -0.671,1.229 -1.181,2.255 -1.732,3.264 -0.551,1.008 -1.141,1.999 -1.644,2.942 -0.503,0.943 -0.918,1.838 -1.313,2.759 -0.395,0.922 -0.77,1.87 -1.152,2.756 -0.382,0.887 -0.772,1.712 -1.285,3.043 -0.513,1.331 -1.149,3.17 -1.716,4.911 -0.567,1.741 -1.065,3.386 -1.49,4.836 -0.425,1.451 -0.777,2.709 -1.129,4.225 -0.352,1.516 -0.704,3.291 -1.144,5.668 -0.44,2.376 -0.968,5.353 -1.29,7.073 -0.322,1.72 -0.438,2.183 -0.543,2.673 -0.106,0.491 -0.201,1.009 -0.4,1.833 -0.198,0.825 -0.5,1.957 -0.807,3.143 -0.307,1.187 -0.618,2.43 -0.84,3.478 -0.221,1.049 -0.352,1.904 -0.575,3.166 -0.224,1.262 -0.541,2.932 -0.787,4.297 -0.247,1.366 -0.423,2.427 -0.529,2.975 -0.105,0.548 -0.14,0.583 -0.204,0.634 -0.063,0.05 -0.155,0.115 -0.251,2.246 -0.096,2.13 -0.197,6.326 -0.275,8.622 -0.078,2.297 -0.133,2.694 0.035,2.902 0.169,0.209 0.561,0.229 1.419,0.337 0.857,0.108 2.18,0.305 4.51,0.755 2.332,0.45 5.671,1.154 8.339,1.667 2.668,0.513 4.664,0.835 6.751,1.182 2.088,0.347 4.265,0.719 7.24,1.192 2.975,0.472 6.746,1.046 9.15,1.373 2.404,0.327 3.44,0.407 3.958,0.447 0.518,0.041 0.518,0.041 0.568,-0.543 0.049,-0.583 0.149,-1.75 0.263,-2.759 0.114,-1.009 0.242,-1.86 0.394,-2.937 0.152,-1.077 0.328,-2.379 0.498,-3.576 0.17,-1.197 0.333,-2.289 0.417,-2.902 0.085,-0.614 0.089,-0.749 0.076,-0.865 -0.014,-0.116 -0.047,-0.211 -0.023,-1.818 0.024,-1.607 0.104,-4.725 0.147,-7.257 0.043,-2.532 0.048,-4.478 0.059,-5.601 0.011,-1.123 0.029,-1.422 0.067,-1.618 0.038,-0.197 0.095,-0.29 0.176,-0.338 0.08,-0.05 0.184,-0.055 0.308,0.038 0.124,0.094 0.27,0.285 0.345,0.376 0.074,0.092 0.076,0.085 0.078,0.081 0.001,-0.004 0.001,-0.004 0.115,0.253 0.114,0.256 0.343,0.769 0.597,1.463 0.254,0.694 0.533,1.569 0.762,2.507 0.229,0.938 0.408,1.939 0.607,3.547 0.2,1.608 0.422,3.823 0.739,6.228 0.316,2.406 0.729,5.001 1.468,11.393 0.739,6.392 1.805,16.58 2.64,24.511 0.835,7.931 1.439,13.604 1.811,19.699 0.372,6.095 0.513,12.613 0.503,19.654 -0.01,7.04 -0.171,14.604 -0.372,20.609 -0.202,6.004 -0.443,10.45 -0.725,14.423 -0.281,3.973 -0.603,7.473 -1.448,14.162 -0.845,6.688 -2.213,16.566 -3.007,23.777 -0.795,7.212 -1.016,11.758 -1.217,15.269 -0.202,3.51 -0.383,5.984 -0.674,8.122 -0.292,2.137 -0.694,3.937 -0.973,5.315 -0.279,1.378 -0.436,2.334 -0.453,2.935 -0.018,0.601 0.103,0.847 0.249,0.975 0.146,0.129 0.317,0.138 0.5,0.175 0.184,0.036 0.38,0.099 0.469,0.155 0.019,0.011 0.032,0.022 0.042,0.037 0.876,0.322 1.753,0.645 3.155,0.925 1.401,0.28 3.329,0.518 6.493,0.754 3.163,0.237 7.562,0.472 11.099,0.609 3.537,0.138 6.212,0.178 9.592,0.181 3.38,0.003 7.463,-0.03 11.329,-0.007 3.866,0.024 7.513,0.104 10.591,0.191 3.078,0.088 5.586,0.181 7.916,0.252 2.33,0.07 4.483,0.117 6.789,0.171 2.307,0.053 4.768,0.114 7.356,0.121 2.589,0.006 5.304,-0.041 8.04,-0.098 2.736,-0.057 5.492,-0.124 7.953,-0.221z"/>
 </g>
</svg>
