<?xml version="1.0" encoding="UTF-8"?>
<!DOCTYPE svg PUBLIC "-//W3C//DTD SVG 1.1//EN" "http://www.w3.org/Graphics/SVG/1.1/DTD/svg11.dtd">
<!-- Creator: CorelDRAW -->
<svg xmlns="http://www.w3.org/2000/svg" xml:space="preserve" width="238px" height="298px" version="1.1" shape-rendering="geometricPrecision" text-rendering="geometricPrecision" image-rendering="optimizeQuality" fill-rule="evenodd" clip-rule="evenodd"
viewBox="0 0 238 298.123"
 xmlns:xlink="http://www.w3.org/1999/xlink"
 xmlns:xodm="http://www.corel.com/coreldraw/odm/2003">
 <defs>
   <clipPath id="id0">
    <path d="M207.298 27.894c-0.11,-0.063 -0.222,-0.122 -0.337,-0.177 -4.975,-2.38 -9.714,-5.334 -14.858,-7.149 -4.647,-1.639 -11.454,-2.699 -17.288,-4.719 -2.277,-0.789 -4.556,-1.589 -6.82,-2.415l-0.004 -0.03 -9.999 -4.08 -0.175 -0.072c-0.614,-0.28 -1.553,-1.207 -2.512,-1.889 -0.494,-0.369 -0.613,-0.563 -1.038,-0.905 -2.856,-2.299 -5.606,-5.635 -9.574,-5.641 -0.901,-0.002 -1.04,-0.123 -1.779,-0.163l-7.601 -0.17c-5.892,-0.486 -12.055,-0.501 -18.06,-0.477 -5.087,0.02 -9.557,0.063 -14.567,0.477 -2.529,0.209 -4.996,0.029 -7.6,0.17 -0.739,0.04 -0.878,0.161 -1.779,0.163 -3.968,0.006 -6.718,3.342 -9.575,5.641 -0.424,0.342 -0.543,0.536 -1.037,0.905 -0.741,0.527 -1.471,1.2 -2.047,1.608 -0.17,0.121 -0.326,0.218 -0.465,0.281l-10.174 4.152 -0.003 0.03c-2.265,0.826 -4.544,1.626 -6.821,2.415 -5.834,2.02 -12.641,3.08 -17.288,4.719 -5.144,1.815 -9.883,4.769 -14.858,7.149 -0.212,0.101 -0.412,0.215 -0.605,0.339 -0.909,0.583 -1.664,1.379 -2.651,2.001 -11.263,7.099 -18.243,27.467 -21.401,39.215 -1.569,5.839 -1.98,12.983 -2.969,19.04 -0.5,3.067 -1.172,6.193 -1.752,9.253 -0.585,3.095 -0.872,6.493 -1.288,9.631 -0.406,0.268 -0.327,-0.023 -0.308,0.899l-0.065 1.854 0 8.783c0.041,1.018 0.102,1.813 0.186,2.164 1.125,0.477 3.706,0.514 5.07,0.712 7.662,1.114 9.041,0.828 15.791,1.554l21.547 1.349c-0.015,-1.623 0.547,-10.725 0.578,-13.424l-0.603 -0.316 -0.07 -0.036c0,-4.476 -0.011,-9.226 -0.011,-13.7 1.678,4.247 3.328,18.944 3.789,24.023 0.735,8.116 1.826,16.186 2.512,24.347 0.348,4.137 0.874,8.269 1.009,12.419l0.653 12.776c0.396,4.199 0.208,8.934 0.274,13.179 0.032,2.062 0.194,4.007 0.186,6.13 -0.007,2.226 -0.172,4.349 -0.196,6.512 -0.051,4.469 -0.054,8.634 -0.319,13.111 -0.68,11.475 -1.257,26.076 -3.267,37.02 -0.966,5.407 -2.177,11.944 -2.754,17.389 -0.258,2.432 -0.827,10.057 -1.468,11.951 -0.68,2.01 -0.163,3.658 -0.568,5.77 -0.342,1.785 -0.742,3.812 -1.164,5.568 -0.463,1.93 -1.435,3.647 0.397,4.966 4.276,1.054 8.552,2.108 13.913,3.017 5.36,0.909 11.804,1.672 18.03,2.048 6.226,0.375 12.232,0.363 21.568,0.476 9.335,0.112 21.999,0.351 32.523,0.382 10.525,0.032 18.909,-0.144 26.242,-0.419 7.333,-0.275 13.615,-0.65 19.058,-1.151 5.443,-0.501 10.048,-1.126 13.829,-1.873 3.78,-0.746 6.736,-1.613 9.693,-2.48 1.832,-1.319 0.86,-3.036 0.397,-4.966 -0.422,-1.756 -0.822,-3.783 -1.164,-5.568 -0.405,-2.112 0.112,-3.76 -0.568,-5.77 -0.641,-1.894 -1.21,-9.519 -1.468,-11.951 -0.577,-5.445 -1.788,-11.982 -2.754,-17.389 -2.01,-10.944 -2.587,-25.545 -3.267,-37.02 -0.265,-4.477 -0.268,-8.642 -0.319,-13.111 -0.024,-2.163 -0.189,-4.286 -0.196,-6.512 -0.008,-2.123 0.154,-4.068 0.186,-6.13 0.066,-4.245 -0.122,-8.98 0.274,-13.179l0.653 -12.776c0.135,-4.15 0.661,-8.282 1.009,-12.419 0.686,-8.161 1.777,-16.231 2.512,-24.347 0.461,-5.079 1.889,-19.043 3.568,-23.29 0,4.474 -0.105,8.584 -0.105,13.06l0 0 -0.416 0.247c-0.004,0.882 0.338,12.091 0.604,13.423l21.579 -1.336c6.75,-0.726 8.129,-0.44 15.791,-1.554 1.364,-0.198 3.945,-0.235 5.07,-0.712 0.084,-0.351 0.145,-1.146 0.186,-2.164l0 -8.783 -0.065 -1.854c0.014,-0.687 0.062,-0.7 -0.083,-0.774 -0.05,-0.025 -0.122,-0.057 -0.225,-0.125 -0.416,-3.138 -0.703,-6.536 -1.288,-9.631 -0.58,-3.06 -1.252,-6.186 -1.752,-9.253 -0.989,-6.057 -1.4,-13.201 -2.969,-19.04 -3.158,-11.748 -10.138,-32.116 -21.401,-39.215 -1.057,-0.665 -1.895,-1.576 -2.919,-2.163z"/>
   </clipPath>
    <clipPath id="id1">
     <path d="M195.291 97.768c-0.085,-0.928 -0.17,-1.856 -0.308,-2.718 -0.137,-0.863 -0.329,-1.661 -0.099,-3.18 0.23,-1.519 0.881,-3.758 1.681,-6.311 0.801,-2.553 1.752,-5.418 2.565,-9.742 0.813,-4.323 1.489,-10.104 2.278,-15.986 0.788,-5.881 1.689,-11.863 2.652,-16.318 0.964,-4.454 1.99,-7.383 2.541,-9.31 0.55,-1.927 0.626,-2.853 0.663,-4.067 0.021,-0.674 0.03,-1.438 0.034,-2.242 -0.11,-0.063 -0.222,-0.122 -0.337,-0.177 -4.975,-2.38 -9.714,-5.334 -14.858,-7.149 -4.647,-1.639 -11.454,-2.699 -17.288,-4.719 -2.277,-0.789 -4.556,-1.589 -6.82,-2.415l-0.004 -0.03 -9.999 -4.08 -0.175 -0.072c-0.614,-0.28 -1.553,-1.207 -2.512,-1.889 -0.494,-0.369 -0.613,-0.563 -1.038,-0.905 -2.856,-2.299 -5.606,-5.635 -9.574,-5.641 -0.901,-0.002 -1.04,-0.123 -1.779,-0.163l-7.601 -0.17c-5.892,-0.486 -12.055,-0.501 -18.06,-0.477 -5.087,0.02 -9.557,0.063 -14.567,0.477 -2.529,0.209 -4.996,0.029 -7.6,0.17 -0.739,0.04 -0.878,0.161 -1.779,0.163 -3.968,0.006 -6.718,3.342 -9.575,5.641 -0.424,0.342 -0.543,0.536 -1.037,0.905 -0.741,0.527 -1.471,1.2 -2.047,1.608 -0.17,0.121 -0.326,0.218 -0.465,0.281l-10.174 4.152 -0.003 0.03c-2.265,0.826 -4.544,1.626 -6.821,2.415 -5.834,2.02 -12.641,3.08 -17.288,4.719 -5.144,1.815 -9.883,4.769 -14.858,7.149 -0.212,0.101 -0.412,0.215 -0.605,0.339 0.121,0.721 0.248,1.443 0.383,2.165 0.438,2.34 0.963,4.693 1.752,8.597 0.788,3.904 1.839,9.36 2.815,15.624 0.976,6.262 1.877,13.332 3.034,19.705 1.157,6.372 2.57,12.047 3.374,15.175 0.803,3.129 0.998,3.71 1.026,4.321 0.028,0.61 -0.11,1.248 -0.192,1.818 -0.083,0.57 -0.11,1.072 -0.138,1.574 1.678,4.247 3.328,18.944 3.789,24.023 0.735,8.116 1.826,16.186 2.512,24.347 0.348,4.137 0.874,8.269 1.009,12.419l0.653 12.776c0.396,4.199 0.208,8.934 0.274,13.179 0.032,2.062 0.194,4.007 0.186,6.13 -0.007,2.226 -0.172,4.349 -0.196,6.512 -0.051,4.469 -0.054,8.634 -0.319,13.111 -0.68,11.475 -1.257,26.076 -3.267,37.02 -0.966,5.407 -2.177,11.944 -2.754,17.389 -0.258,2.432 -0.827,10.057 -1.468,11.951 -0.68,2.01 -0.163,3.658 -0.568,5.77 -0.342,1.785 -0.742,3.812 -1.164,5.568 -0.463,1.93 -1.435,3.647 0.397,4.966 4.276,1.054 8.552,2.108 13.913,3.017 5.36,0.909 11.804,1.672 18.03,2.048 6.226,0.375 12.232,0.363 21.568,0.476 9.335,0.112 21.999,0.351 32.523,0.382 10.525,0.032 18.909,-0.144 26.242,-0.419 7.333,-0.275 13.615,-0.65 19.058,-1.151 5.443,-0.501 10.048,-1.126 13.829,-1.873 3.78,-0.746 6.736,-1.613 9.693,-2.48 1.832,-1.319 0.86,-3.036 0.397,-4.966 -0.422,-1.756 -0.822,-3.783 -1.164,-5.568 -0.405,-2.112 0.112,-3.76 -0.568,-5.77 -0.641,-1.894 -1.21,-9.519 -1.468,-11.951 -0.577,-5.445 -1.788,-11.982 -2.754,-17.389 -2.01,-10.944 -2.587,-25.545 -3.267,-37.02 -0.265,-4.477 -0.268,-8.642 -0.319,-13.111 -0.024,-2.163 -0.189,-4.286 -0.196,-6.512 -0.008,-2.123 0.154,-4.068 0.186,-6.13 0.066,-4.245 -0.122,-8.98 0.274,-13.179l0.653 -12.776c0.135,-4.15 0.661,-8.282 1.009,-12.419 0.686,-8.161 1.777,-16.231 2.512,-24.347 0.461,-5.079 1.889,-19.043 3.568,-23.29z"/>
    </clipPath>
    <clipPath id="id2">
     <path d="M207.298 27.894c-0.11,-0.063 -0.222,-0.122 -0.337,-0.177 -4.975,-2.38 -9.714,-5.334 -14.858,-7.149 -4.647,-1.639 -11.454,-2.699 -17.288,-4.719 -2.277,-0.789 -4.556,-1.589 -6.82,-2.415l-0.004 -0.03 -9.999 -4.08 -0.175 -0.072c-0.614,-0.28 -1.553,-1.207 -2.512,-1.889 -0.494,-0.369 -0.613,-0.563 -1.038,-0.905 -2.856,-2.299 -5.606,-5.635 -9.574,-5.641 -0.901,-0.002 -1.04,-0.123 -1.779,-0.163l-7.601 -0.17c-5.892,-0.486 -12.055,-0.501 -18.06,-0.477 -5.087,0.02 -9.557,0.063 -14.567,0.477 -2.529,0.209 -4.996,0.029 -7.6,0.17 -0.739,0.04 -0.878,0.161 -1.779,0.163 -3.968,0.006 -6.718,3.342 -9.575,5.641 -0.424,0.342 -0.543,0.536 -1.037,0.905 -0.741,0.527 -1.471,1.2 -2.047,1.608 -0.17,0.121 -0.326,0.218 -0.465,0.281l-10.174 4.152 -0.003 0.03c-2.265,0.826 -4.544,1.626 -6.821,2.415 -5.834,2.02 -12.641,3.08 -17.288,4.719 -5.144,1.815 -9.883,4.769 -14.858,7.149 -0.212,0.101 -0.412,0.215 -0.605,0.339 -0.909,0.583 -1.664,1.379 -2.651,2.001 -11.263,7.099 -18.243,27.467 -21.401,39.215 -1.569,5.839 -1.98,12.983 -2.969,19.04 -0.5,3.067 -1.172,6.193 -1.752,9.253 -0.585,3.095 -0.872,6.493 -1.288,9.631 -0.406,0.268 -0.327,-0.023 -0.308,0.899l-0.065 1.854 0 8.783c0.041,1.018 0.102,1.813 0.186,2.164 1.125,0.477 3.706,0.514 5.07,0.712 7.662,1.114 9.041,0.828 15.791,1.554l21.547 1.349c-0.015,-1.623 0.547,-10.725 0.578,-13.424l-0.603 -0.316 -0.07 -0.036c0,-4.476 -0.011,-9.226 -0.011,-13.7 1.678,4.247 3.328,18.944 3.789,24.023 0.735,8.116 1.826,16.186 2.512,24.347 0.348,4.137 0.874,8.269 1.009,12.419l0.653 12.776c0.396,4.199 0.208,8.934 0.274,13.179 0.032,2.062 0.194,4.007 0.186,6.13 -0.007,2.226 -0.172,4.349 -0.196,6.512 -0.051,4.469 -0.054,8.634 -0.319,13.111 -0.68,11.475 -1.257,26.076 -3.267,37.02 -0.966,5.407 -2.177,11.944 -2.754,17.389 -0.258,2.432 -0.827,10.057 -1.468,11.951 -0.68,2.01 -0.163,3.658 -0.568,5.77 -0.342,1.785 -0.742,3.812 -1.164,5.568 -0.463,1.93 -1.435,3.647 0.397,4.966 4.276,1.054 8.552,2.108 13.913,3.017 5.36,0.909 11.804,1.672 18.03,2.048 6.226,0.375 12.232,0.363 21.568,0.476 9.335,0.112 21.999,0.351 32.523,0.382 10.525,0.032 18.909,-0.144 26.242,-0.419 7.333,-0.275 13.615,-0.65 19.058,-1.151 5.443,-0.501 10.048,-1.126 13.829,-1.873 3.78,-0.746 6.736,-1.613 9.693,-2.48 1.832,-1.319 0.86,-3.036 0.397,-4.966 -0.422,-1.756 -0.822,-3.783 -1.164,-5.568 -0.405,-2.112 0.112,-3.76 -0.568,-5.77 -0.641,-1.894 -1.21,-9.519 -1.468,-11.951 -0.577,-5.445 -1.788,-11.982 -2.754,-17.389 -2.01,-10.944 -2.587,-25.545 -3.267,-37.02 -0.265,-4.477 -0.268,-8.642 -0.319,-13.111 -0.024,-2.163 -0.189,-4.286 -0.196,-6.512 -0.008,-2.123 0.154,-4.068 0.186,-6.13 0.066,-4.245 -0.122,-8.98 0.274,-13.179l0.653 -12.776c0.135,-4.15 0.661,-8.282 1.009,-12.419 0.686,-8.161 1.777,-16.231 2.512,-24.347 0.461,-5.079 1.889,-19.043 3.568,-23.29 0,4.474 -0.105,8.584 -0.105,13.06l0 0 -0.416 0.247c-0.004,0.882 0.338,12.091 0.604,13.423l21.579 -1.336c6.75,-0.726 8.129,-0.44 15.791,-1.554 1.364,-0.198 3.945,-0.235 5.07,-0.712 0.084,-0.351 0.145,-1.146 0.186,-2.164l0 -8.783 -0.065 -1.854c0.014,-0.687 0.062,-0.7 -0.083,-0.774 -0.05,-0.025 -0.122,-0.057 -0.225,-0.125 -0.416,-3.138 -0.703,-6.536 -1.288,-9.631 -0.58,-3.06 -1.252,-6.186 -1.752,-9.253 -0.989,-6.057 -1.4,-13.201 -2.969,-19.04 -3.158,-11.748 -10.138,-32.116 -21.401,-39.215 -1.057,-0.665 -1.895,-1.576 -2.919,-2.163z"/>
    </clipPath>
    <clipPath id="id3">
     <path d="M42.488 97.035c0.028,-0.502 0.055,-1.004 0.138,-1.574 0.082,-0.57 0.22,-1.208 0.192,-1.818 -0.028,-0.611 -0.223,-1.192 -1.026,-4.321 -0.804,-3.128 -2.217,-8.803 -3.374,-15.175 -1.157,-6.373 -2.058,-13.443 -3.034,-19.705 -0.976,-6.264 -2.027,-11.72 -2.815,-15.624 -0.789,-3.904 -1.314,-6.257 -1.752,-8.597 -0.135,-0.722 -0.262,-1.444 -0.383,-2.165 -0.909,0.583 -1.664,1.379 -2.651,2.001 -11.263,7.099 -18.243,27.467 -21.401,39.215 -1.569,5.839 -1.98,12.983 -2.969,19.04 -0.5,3.067 -1.172,6.193 -1.752,9.253 -0.585,3.095 -0.872,6.493 -1.288,9.631 0.744,0.196 1.489,0.392 4.426,0.672 2.938,0.279 8.068,0.642 13.143,1.005 5.074,0.363 10.092,0.726 13.996,1.045 3.905,0.319 6.695,0.595 8.372,0.73l0.055 0.004 0.053 0.004 0.053 0.004 0.052 0.004 0.051 0.004 0.051 0.004 0.05 0.004 0.048 0.004 0.001 0 0.048 0.003 0.048 0.004 0.046 0.003 0.047 0.003 0.045 0.004 0.045 0.003 0.044 0.003 0.044 0.003 0.042 0.003 0.043 0.003 0.041 0.002 0.041 0.003 0 0 0.041 0.002 0.039 0.003 0.039 0.002 0.001 0 0.038 0.003 0.038 0.002 0.037 0.002 0 0 0.037 0.002 0.036 0.002 0.036 0.002 0 0 0.035 0.002 0 0 0.035 0.002 0 0 0.034 0.002 0 0 0.033 0.002 0.033 0.001 0.001 0 0.032 0.002 0.032 0.002 0 0 0.031 0.001 0.001 0 0.031 0.001 0 0 0.03 0.002 0.001 0 0.029 0.001 0.001 0 0.029 0.001 0 0 0.029 0.002 0.001 0 0.028 0 0.001 0 0.028 0.002 0.028 0.001 0 0 0.028 0 0 0 0.027 0.001 0 0 0.027 0.001 0.026 0.001 0.001 0 0.025 0.001 0.001 0 0.025 0.001 0 0 0.025 0 0.001 0 0.025 0.001 0 0 0.024 0 0.001 0 0.024 0.001 0 0 0.024 0.001 0 0 0.023 0 0.001 0 0.023 0 0 0 0.023 0.001 0.001 0 0.022 0 0.001 0 0.022 0.001 0 0 0.022 0 0 0 0.022 0 0.001 0 0.021 0 0 0 -42.196 -3.575c-0.406,0.268 -0.327,-0.023 -0.308,0.899l-0.065 1.854 0 8.783c0.041,1.018 0.102,1.813 0.186,2.164 1.125,0.477 3.706,0.514 5.07,0.712 7.662,1.114 9.041,0.828 15.791,1.554l21.547 1.349c-0.015,-1.623 0.547,-10.725 0.578,-13.424l-0.603 -0.316 0 0 -0.07 -0.036c0,-4.476 -0.011,-9.226 -0.011,-13.7zm152.698 13.793l0 0 -0.416 0.247c-0.004,0.882 0.338,12.091 0.604,13.423l21.579 -1.336c6.75,-0.726 8.129,-0.44 15.791,-1.554 1.364,-0.198 3.945,-0.235 5.07,-0.712 0.084,-0.351 0.145,-1.146 0.186,-2.164l0 -8.783 -0.065 -1.854c0.014,-0.687 0.062,-0.7 -0.083,-0.774 -0.05,-0.025 -0.122,-0.057 -0.225,-0.125 -0.416,-3.138 -0.703,-6.536 -1.288,-9.631 -0.58,-3.06 -1.252,-6.186 -1.752,-9.253 -0.989,-6.057 -1.4,-13.201 -2.969,-19.04 -3.158,-11.748 -10.138,-32.116 -21.401,-39.215 -1.057,-0.665 -1.895,-1.576 -2.919,-2.163 -0.004,0.804 -0.013,1.568 -0.034,2.242 -0.037,1.214 -0.113,2.14 -0.663,4.067 -0.551,1.927 -1.577,4.856 -2.541,9.31 -0.963,4.455 -1.864,10.437 -2.652,16.318 -0.789,5.882 -1.465,11.663 -2.278,15.986 -0.813,4.324 -1.764,7.189 -2.565,9.742 -0.8,2.553 -1.451,4.792 -1.681,6.311 -0.23,1.519 -0.038,2.317 0.099,3.18 0.138,0.862 0.223,1.79 0.308,2.718 0,4.474 -0.105,8.584 -0.105,13.06z"/>
    </clipPath>
    <clipPath id="id4">
     <path d="M207.298 27.894c-0.11,-0.063 -0.222,-0.122 -0.337,-0.177 -4.975,-2.38 -9.714,-5.334 -14.858,-7.149 -4.647,-1.639 -11.454,-2.699 -17.288,-4.719 -2.277,-0.789 -4.556,-1.589 -6.82,-2.415l-0.004 -0.03 -9.999 -4.08 -0.175 -0.072c-0.614,-0.28 -1.553,-1.207 -2.512,-1.889 -0.494,-0.369 -0.613,-0.563 -1.038,-0.905 -2.856,-2.299 -5.606,-5.635 -9.574,-5.641 -0.901,-0.002 -1.04,-0.123 -1.779,-0.163l-7.601 -0.17c-5.892,-0.486 -12.055,-0.501 -18.06,-0.477 -5.087,0.02 -9.557,0.063 -14.567,0.477 -2.529,0.209 -4.996,0.029 -7.6,0.17 -0.739,0.04 -0.878,0.161 -1.779,0.163 -3.968,0.006 -6.718,3.342 -9.575,5.641 -0.424,0.342 -0.543,0.536 -1.037,0.905 -0.741,0.527 -1.471,1.2 -2.047,1.608 -0.17,0.121 -0.326,0.218 -0.465,0.281l-10.174 4.152 -0.003 0.03c-2.265,0.826 -4.544,1.626 -6.821,2.415 -5.834,2.02 -12.641,3.08 -17.288,4.719 -5.144,1.815 -9.883,4.769 -14.858,7.149 -0.212,0.101 -0.412,0.215 -0.605,0.339 -0.909,0.583 -1.664,1.379 -2.651,2.001 -11.263,7.099 -18.243,27.467 -21.401,39.215 -1.569,5.839 -1.98,12.983 -2.969,19.04 -0.5,3.067 -1.172,6.193 -1.752,9.253 -0.585,3.095 -0.872,6.493 -1.288,9.631 -0.406,0.268 -0.327,-0.023 -0.308,0.899l-0.065 1.854 0 8.783c0.041,1.018 0.102,1.813 0.186,2.164 1.125,0.477 3.706,0.514 5.07,0.712 7.662,1.114 9.041,0.828 15.791,1.554l21.547 1.349c-0.015,-1.623 0.547,-10.725 0.578,-13.424l-0.603 -0.316 -0.07 -0.036c0,-4.476 -0.011,-9.226 -0.011,-13.7 1.678,4.247 3.328,18.944 3.789,24.023 0.735,8.116 1.826,16.186 2.512,24.347 0.348,4.137 0.874,8.269 1.009,12.419l0.653 12.776c0.396,4.199 0.208,8.934 0.274,13.179 0.032,2.062 0.194,4.007 0.186,6.13 -0.007,2.226 -0.172,4.349 -0.196,6.512 -0.051,4.469 -0.054,8.634 -0.319,13.111 -0.68,11.475 -1.257,26.076 -3.267,37.02 -0.966,5.407 -2.177,11.944 -2.754,17.389 -0.258,2.432 -0.827,10.057 -1.468,11.951 -0.68,2.01 -0.163,3.658 -0.568,5.77 -0.342,1.785 -0.742,3.812 -1.164,5.568 -0.463,1.93 -1.435,3.647 0.397,4.966 4.276,1.054 8.552,2.108 13.913,3.017 5.36,0.909 11.804,1.672 18.03,2.048 6.226,0.375 12.232,0.363 21.568,0.476 9.335,0.112 21.999,0.351 32.523,0.382 10.525,0.032 18.909,-0.144 26.242,-0.419 7.333,-0.275 13.615,-0.65 19.058,-1.151 5.443,-0.501 10.048,-1.126 13.829,-1.873 3.78,-0.746 6.736,-1.613 9.693,-2.48 1.832,-1.319 0.86,-3.036 0.397,-4.966 -0.422,-1.756 -0.822,-3.783 -1.164,-5.568 -0.405,-2.112 0.112,-3.76 -0.568,-5.77 -0.641,-1.894 -1.21,-9.519 -1.468,-11.951 -0.577,-5.445 -1.788,-11.982 -2.754,-17.389 -2.01,-10.944 -2.587,-25.545 -3.267,-37.02 -0.265,-4.477 -0.268,-8.642 -0.319,-13.111 -0.024,-2.163 -0.189,-4.286 -0.196,-6.512 -0.008,-2.123 0.154,-4.068 0.186,-6.13 0.066,-4.245 -0.122,-8.98 0.274,-13.179l0.653 -12.776c0.135,-4.15 0.661,-8.282 1.009,-12.419 0.686,-8.161 1.777,-16.231 2.512,-24.347 0.461,-5.079 1.889,-19.043 3.568,-23.29 0,4.474 -0.105,8.584 -0.105,13.06l0 0 -0.416 0.247c-0.004,0.882 0.338,12.091 0.604,13.423l21.579 -1.336c6.75,-0.726 8.129,-0.44 15.791,-1.554 1.364,-0.198 3.945,-0.235 5.07,-0.712 0.084,-0.351 0.145,-1.146 0.186,-2.164l0 -8.783 -0.065 -1.854c0.014,-0.687 0.062,-0.7 -0.083,-0.774 -0.05,-0.025 -0.122,-0.057 -0.225,-0.125 -0.416,-3.138 -0.703,-6.536 -1.288,-9.631 -0.58,-3.06 -1.252,-6.186 -1.752,-9.253 -0.989,-6.057 -1.4,-13.201 -2.969,-19.04 -3.158,-11.748 -10.138,-32.116 -21.401,-39.215 -1.057,-0.665 -1.895,-1.576 -2.919,-2.163z"/>
    </clipPath>
 </defs>
 <g id="VETORES">
  <metadata id="CorelCorpID_0Corel-Layer"/>
  <g>
  </g>
  <g clip-path="url(#id0)">
   <g id="_3220555934960">
    <g>
    </g>
   </g>
   <g clip-path="url(#id1)">
    <g>
     <path id="_1" fill="red" fill-rule="nonzero" d="M123.275 223.869l0.26 0.801 0.51 -0.001 0.231 -0.26 -0.741 -0.791c-0.09,0.09 -0.17,0.171 -0.26,0.261l0 -0.01zm-17.259 -30.192c0.08,-0.2 0.08,-1.391 0,-1.622 -1.562,-4.825 -2.322,7.608 0,1.622zm-3.944 -95.94c-0.911,3.263 4.174,4.084 4.454,1.081 0.201,-2.272 -3.774,-3.433 -4.454,-1.081zm3.944 -24.375c-0.14,-1.021 -1.672,-0.711 -1.471,0.54 0.17,1.021 1.672,0.711 1.471,-0.54zm-2.213 164.021c-1.161,0.431 1.132,4.084 1.252,1.872 0,-0.11 -1.112,-1.902 -1.252,-1.872zm3.694 -147.053c0.11,-0.091 0.741,-1.932 0.511,-2.663 -1.111,-3.544 -3.604,5.585 -0.511,2.663zm-3.213 92.997c0.651,0.2 1.281,-0.601 1.251,-1.302 -0.14,-4.144 -4.034,0.51 -1.251,1.302zm-2.433 -64.648c0.601,1.111 1.702,0.03 1.702,-0.26 0,-1.051 -2.352,-0.911 -1.702,0.26zm6.377 -74.198l0.261 -0.26 0 -0.54 -0.261 -0.251 -0.731 0.791 0.251 0.26 0.48 0zm-30.813 172.861c-0.03,-0.09 -0.09,-0.14 -0.14,-0.2 -1.082,-0.711 0.09,6.977 0.14,0.2zm-34.447 58.331c-0.01,5.616 -0.04,11.232 -0.081,16.858 0.16,0.04 0.321,0.08 0.481,0.12 0.02,-6.557 0.05,-13.114 0.09,-19.671 -0.15,1.151 -0.321,2.113 -0.49,2.703l0 -0.01zm61.096 -218.738c-0.341,-1.672 -2.753,-0.14 -1.983,1.051 0.541,0.821 2.183,0 1.983,-1.051zm1.472 -18.56c-0.261,-0.541 -0.991,0.481 -0.991,0.541 0.11,0.991 1.672,0.851 0.991,-0.541zm-1.252 198.497c2.012,-0.45 -0.26,-2.242 -0.231,-2.382 0.03,-0.2 1.813,-2.443 1.472,-3.173 -0.371,-0.851 -3.404,0.991 -1.251,5.566l0.01 -0.011zm2.242 -210.129c-0.029,-0.06 -0.71,-0.821 -0.74,-0.791 -2.553,0.31 1.161,4.004 0.74,0.791zm-8.999 271.023c0.31,0 0.611,0 0.921,0.01 -0.484,-0.629 -0.888,-0.152 -0.922,-0.01l0.001 0zm-11.092 -98.693c-3.004,0.23 -1.642,1.331 -1.932,3.293 -0.03,0.14 -2.073,2.302 -0.14,2.493 0.991,0.09 1.792,-4.735 2.072,-5.786l0 0zm-1.642 12.513c0.51,2.152 -0.571,4.424 -1.762,5.756 -0.06,1.251 3.093,1.111 3.233,0 0.201,-1.251 -2.612,2.643 0.171,-6.357 -0.541,0.2 -1.082,0.4 -1.642,0.601l0 0zm0.741 -4.054c-0.281,-0.17 -2.353,2.242 -2.213,2.523 0.881,1.531 2.753,-2.133 2.213,-2.523zm-18.11 45.227l0 1.332c0,-0.111 0.431,-0.621 0.601,-0.991 0,-0.621 -0.571,-0.2 -0.601,-0.341zm-2.492 -183.762c0.26,-2.753 0.48,-2.132 0,-4.595 -0.031,0.231 -0.991,1.222 0,4.595zm27.689 -62.255c0,0 0.771,0.571 0.821,0.571 2.133,0.2 -0.17,-1.592 -0.821,-0.571zm-26.759 36.568c0.14,-0.48 0.171,-1.111 0,-1.331 -0.51,-0.681 -1.051,4.484 0,1.331zm-1.391 6.447l-0.43 0c-0.962,-4.375 -0.311,-2.413 -0.201,-5.276l0.201 -2.613c0,-1.391 -0.171,-1.421 -0.201,-1.982 -0.06,-1.161 -0.09,-2.953 -0.2,-3.944 -0.03,0.11 -0.2,-0.771 -0.851,1.302 -0.57,1.931 -0.68,2.983 -1.642,4.284 1.532,2.923 -0.029,2.833 0.621,9.219 -6.297,4.035 -2.553,-1.301 -2.472,-4.624 0,-0.511 -1.362,-7.118 -1.672,-6.587 0.48,-3.514 0.96,-7.008 1.451,-10.532 0.03,-7.067 -2.473,7.549 -4.345,9.871 1.422,11.292 0.14,6.016 -0.2,8.569 -0.26,1.872 2.212,8.058 2.382,8.228 1.532,1.452 5.757,-5.646 3.404,2.303 0.991,1.701 -0.28,7.117 -0.2,7.918 0.851,8.149 0.881,-17.228 2.272,-6.927 -0.029,0.23 0,0.45 0,0.651 -0.029,0.28 0.541,2.492 -0.2,5.275 -0.029,1.792 0.2,1.252 0.2,1.302l0.822 0.681c0.11,-0.681 0.14,2.472 0.62,-3.324 -0.991,-3.373 -0.06,-4.345 0,-4.595 0.451,-2.833 3.094,-9.279 0.621,-9.219l0.02 0.02zm47.732 85.87c0.34,-0.11 0.28,-0.941 0.23,-1.302 -0.821,-4.655 -1.592,1.792 -0.23,1.302zm-4.936 55.638c0.311,-0.14 0.341,-1.051 0.231,-1.302 -0.791,-1.982 -0.941,1.642 -0.231,1.302zm2.213 -55.899c-0.261,-0.821 -2.043,-1.161 -2.473,-0.54 -0.681,1.021 3.294,3.293 2.473,0.54zm-22.475 158.676c-0.06,0 -0.34,1.221 -0.28,1.562 0.4,2.182 0.681,-1.502 0.28,-1.562zm17.539 -187.276c-0.541,-2.322 -4.205,-1.762 -3.433,1.051 0.57,2.213 3.974,1.222 3.433,-1.051zm-17.969 119.035c0.14,-0.651 0.029,-3.124 -0.451,-3.664 -1.762,-2.073 -0.51,7.688 0.451,3.664zm20.432 -177.866c-0.681,-1.732 -3.404,0.14 -2.953,1.592 0.51,1.642 3.774,0.48 2.953,-1.592zm17.259 209.849c-0.821,-2.582 -1.051,1.592 -0.231,1.332 0.31,-0.111 0.31,-1.051 0.231,-1.332zm-0.991 -229.99c0,-0.11 -0.711,-1.051 -0.961,-0.541 -0.881,1.812 1.191,2.383 0.961,0.541zm0.51 166.394l-0.26 -0.791 -0.481 0 -0.25 0.28 0.731 0.801 0.26 -0.29zm-0.991 -74.708l0.741 0.79c0.31,-0.34 0.26,-0.17 0.26,-0.79l-0.74 -0.261 -0.261 0.261zm-1.221 -90.895l0.23 -2.383c-0.961,-0.37 -1.561,1.392 -0.23,2.383zm1.952 147.333c0.31,-0.11 0.28,-0.45 0.26,-0.79 -0.31,-2.413 -1.672,1.251 -0.26,0.79zm0.26 -37.369l-0.741 -0.8c-0.369,0.414 -0.369,0.666 0,1.081l0.481 0 0.26 -0.281zm-2.723 -100.424c0.17,-1.932 1.222,-5.566 0.741,-7.148 -0.791,-2.663 -1.472,1.902 -0.741,7.148zm7.889 26.498c0.851,0.029 0.911,-0.451 0.741,-1.332 -0.14,-0.821 -1.131,1.332 -0.741,1.332zm-4.915 207.206c0.31,-0.14 0.34,-1.051 0.23,-1.301 -0.791,-1.983 -0.941,1.621 -0.23,1.301zm9.48 -261.824c-2.323,-0.62 -3.634,2.243 -1.672,2.693 0.541,0.11 4.285,-2.012 1.672,-2.693zm-3.544 -3.753c0,0.06 0.791,0.57 0.851,0.6 3.403,0.31 -0.511,-2.553 -0.851,-0.6zm-6.447 238.559c-0.991,0.37 0.881,2.382 1.251,1.301 0.03,-0.09 -1.161,-1.331 -1.251,-1.301zm0 51.393c0.541,0.911 1.251,-0.06 1.251,-0.26 0,-0.911 -1.842,-0.741 -1.251,0.26zm61.266 -138.394c-0.226,0.527 -0.372,0.709 0,1.391l0.621 -1.021c-0.08,-0.11 -0.14,-0.26 -0.231,-0.37l-0.39 0zm-0.2 -23.805c-0.06,0.43 -0.06,0.911 0.2,1.021 1.192,0.601 0.061,-4.144 -0.2,-1.021zm-78.065 130.676c-0.06,-0.11 -1.621,-1.812 -1.731,-1.842 -2.813,-0.79 2.923,5.927 1.731,1.842zm78.666 -177.976c0.342,-0.417 0.332,-0.987 0,-1.391l-0.601 1.051c0.06,0.11 0.14,0.23 0.2,0.34l0.401 0zm-83.12 77.291c-0.111,-0.881 -1.392,-0.771 -1.472,0 -0.2,1.792 1.872,2.443 1.472,0zm-0.961 9.54c-0.511,2.322 2.642,3.574 1.471,0 -0.28,-0.881 -1.302,-0.821 -1.471,0zm3.433 87.171c0.09,-1.161 -0.23,-1.471 -0.991,-0.541 -1.421,1.812 2.103,2.012 0.991,0.541zm49.404 -178.486c3.404,2.072 0.991,-7.688 -0.851,-3.664 -0.28,0.651 -0.03,3.093 0.851,3.664zm16.658 4.795c0.09,0.09 0.17,0.14 0.281,0.2 2.072,0.711 -0.111,-7.008 -0.281,-0.2zm-14.105 5.756c-0.941,-2.153 1.111,-4.425 3.373,-5.757 0.11,-1.251 -5.906,-1.111 -6.217,0 -0.34,1.252 5.026,-2.642 -0.28,6.357 1.051,-0.2 2.072,-0.4 3.123,-0.601l0.001 0.001zm-33.196 171.929c0.218,0.801 1.187,-0.687 0.971,-1.071 -0.37,-0.651 -0.821,-0.28 -0.991,0.26 -0.11,-17.478 -0.451,-34.846 -0.48,-39.471 0,-0.23 -0.962,-0.57 -0.991,-1.592 0,-0.2 1.021,0.261 0.991,-4.224 -0.031,-6.697 -0.451,-13.394 -0.481,-20.151 0,-0.17 -1.161,-1.131 -1.472,-1.591 0.311,-0.171 0.651,-0.341 0.991,-0.541 0.371,-27.639 -0.31,-55.278 -0.51,-82.917 0,-0.79 0.51,-0.991 0.51,-2.132 -0.029,-2.473 0.511,-5.025 -0.991,-6.096 1.472,-2.012 2.383,-16.207 -1.731,-7.688 0.34,-2.243 -7.008,-2.012 -4.936,-10.581 1.702,3.093 6.017,8.228 7.659,2.382 -0.281,-53.405 -1.222,-52.154 -0.991,0.541 -5.055,2.953 -4.545,-4.855 -7.408,-5.846l-0.001 -60.413c3.344,-4.285 0.03,-5.476 0,-5.816 -0.14,-3.004 0.261,-10.041 -0.03,-13.965 1.559,-0.153 1.671,-1.153 -0.12,-1.161 0,0 -0.03,-0.091 -0.03,-0.11 1.622,0.23 4.224,0.54 7.659,0.43 0.029,5.846 0.06,8.77 0.139,18.79 0.601,-2.213 0.912,-11.582 0.941,-18.84 0.621,-0.06 1.282,-0.09 1.932,-0.17 4.225,4.004 1.732,1.731 1.422,3.263 -0.681,3.373 3.634,-0.911 5.926,-0.571 1.872,0.28 2.153,7.178 5.647,2.693 12.944,6.096 4.144,-0.51 4.224,-0.961 0.31,-1.592 4.084,-0.651 8.029,0.68 0,1.622 -0.03,3.264 -0.03,4.886 -0.719,0.113 -2.308,0.805 0,2.382 -0.11,16.347 -0.481,32.714 -0.541,49.061 -0.11,19.611 0.03,39.211 0,58.822 -0.09,27.188 -0.51,54.366 -0.57,81.525 -0.081,31.143 1.061,62.285 0.34,93.397 0.26,0 0.511,-0.02 0.771,-0.02l0 -86.65c0.961,-4.224 0.771,-16.347 3.404,-10.191 1.791,4.205 1.051,15.066 1.111,20.001 0.03,1.842 -1.902,4.625 1.131,5.566 -2.182,2.042 0.11,1.812 0,2.693 -0.09,0.65 -1.642,1.081 -1.672,1.161 -0.961,2.412 1.051,1.221 1.111,1.331 -0.23,-0.17 0.741,-1.561 0.851,-1.531 1.022,0.2 -0.4,1.872 -0.851,1.531 0.371,0.651 0.401,1.562 0.571,1.932 0.03,0.03 1.082,-0.14 1.131,0.2 0.171,0.821 -0.68,3.744 -1.131,4.795 0.511,0.03 1.502,-0.14 1.702,0.201 -3.063,1.902 0.03,2.442 0,3.063 -0.06,1.051 -4.004,0.991 -0.571,5.395 -5.676,1.762 -0.2,1.082 0,1.532 1.162,2.753 -1.531,8.168 0.571,10.951 0.09,-2.663 -0.08,-14.525 0.571,-15.546 0.089,-0.17 3.123,-0.821 3.373,-1.562 0.681,-1.792 -4.935,-9.85 2.272,-7.488 -0.17,0.26 0.601,0.541 0.571,0.601 -0.31,0.451 -2.322,0.43 -1.702,4.224 0.06,0.31 1.111,0.14 1.131,0.171 0.201,1.021 -2.102,6.126 -4.515,6.727 3.374,0.31 1.813,2.862 2.243,3.463 0.2,0.281 6.637,2.273 2.272,3.864 1.732,7.238 0.171,14.646 0,21.903 -0.029,0.281 1.132,0.11 1.112,0.401 -0.06,2.352 -0.06,7.207 -3.094,2.892 -1.842,3.324 1.332,1.642 2.553,2.863 0.17,0.2 -0.851,3.604 1.111,4.225 -2.442,1.281 -0.57,4.374 -0.57,4.625 0,0.09 -1.112,1.812 -1.112,1.931 0,1.142 0.181,2.643 0.401,4.125 0.59,-0.03 1.171,-0.07 1.742,-0.11 0.03,-1.472 0.06,-2.943 0.1,-4.415 0,-0.09 1.131,-1.451 1.131,-1.531 0.281,-12.283 -0.45,-24.626 -0.57,-36.919 -0.03,-2.583 0.45,-10.04 1.702,-11.922 -0.11,-1.112 -0.571,0.14 -1.132,-0.601 0.741,-9.19 -0.45,-40.072 0.571,-44.577 0.821,-3.774 1.702,-2.352 5.646,-2.892 0.511,3.973 -0.68,18.559 0,20 0.08,0.2 0.961,0.771 1.111,0.371 0.822,-3.804 -0.821,-20.121 -0.54,-21.142 0.03,-0.14 1.962,-1.872 2.242,-2.133 0.681,-0.57 2.353,-0.09 1.132,-1.131 3.093,-2.012 0.45,-0.961 -1.702,-1.562 -0.06,0 0.28,-0.821 -0.571,-0.77 1.562,-0.541 2.243,-1.112 4.225,-0.771 -0.31,1.221 1.531,1.251 3.093,2.072l0 20.371c-0.4,0.231 -0.821,0.451 -1.221,0.681 0.28,3.864 -0.431,7.178 0.4,9.31 -2.302,1.191 -0.4,3.403 -0.791,6.927 -0.37,3.033 -1.221,2.272 -1.251,2.412 -0.23,0.991 -2.472,4.545 -1.021,6.898 0.881,1.451 1.562,-0.771 1.641,-0.681 1.052,1.131 2.413,4.315 -0.2,3.464 -0.14,3.173 2.924,3.804 0.401,4.144 1.531,3.834 -0.401,4.885 -0.401,6.557 -0.029,3.323 1.222,3.914 1.222,4.144 0,0.261 -0.821,1.111 -0.821,1.362 0.03,5.926 0.11,18.249 1.221,21.422 -0.03,0.651 -1.161,0.03 -1.221,0.681 -1.251,13.594 -0.771,5.195 -3.064,10.701 -4.484,1.331 -6.977,5.646 -0.43,4.144 0.4,-0.09 0.03,-1.982 0.43,-2.072 1.813,-0.37 4.565,1.842 3.064,5.536 1.191,1.471 0.911,-1.472 2.042,0 0,0.11 0,0.24 0,0.35 0.53,-0.08 1.051,-0.15 1.552,-0.23 0.21,-23.064 0.11,-46.099 0.09,-69.163 -0.431,-6.246 -0.511,-20.231 -0.511,-36.097 0.541,0.62 0.941,1.501 0.851,2.862 0.261,-2.012 1.051,-1.931 2.133,-2.242 -0.03,5.736 0.791,5.135 0.791,5.416 0,1.331 -0.791,1.791 -0.791,2.072 -0.06,6.016 -0.31,28.66 -0.431,51.414 -0.14,-0.711 -0.51,-1.192 -0.821,-0.311 -0.147,0.418 0.596,2.45 0.821,1.391 -0.07,17.258 -0.06,34.416 0.23,44.247l11.212 -2.763c1.842,-1.331 0.851,-3.033 0.401,-4.965 -0.431,-1.762 -0.822,-3.774 -1.161,-5.566 -0.401,-2.132 0.11,-3.774 -0.571,-5.786 -0.651,-1.872 -1.222,-9.51 -1.472,-11.942 -0.57,-5.446 -1.792,-11.973 -2.753,-17.399 -2.388,-13.221 -3.392,-35.641 -3.573,-50.112 -0.03,-2.152 -0.2,-4.284 -0.2,-6.527 0,-2.102 0.14,-4.054 0.2,-6.126 0.06,-4.225 -0.14,-8.97 0.26,-13.164l0.651 -12.774c0.14,-4.174 0.68,-8.289 1.021,-12.433 0.681,-8.148 1.762,-16.226 2.493,-24.345 0.48,-5.075 1.902,-19.04 3.574,-23.295 0,-0.1 -0.02,-0.21 -0.03,-0.31 -0.561,0.741 -1.101,2.052 -1.562,2.102 -0.789,-0.644 -0.77,-1.6 -0.941,-4.234 -0.061,-0.911 2.212,-5.737 0,-8.97 0.48,-0.68 0.711,-1.902 0.79,-3.403 0,0 0.451,-0.371 0.03,-0.481 0.11,-3.494 -0.45,-8.229 -0.4,-11.292 1.131,1.502 2.042,2.643 2.723,3.434 -0.06,0.31 -0.06,0.77 -0.09,1.331 -0.11,-0.03 0.06,0.961 -2.212,-0.4l0 0.771c1.562,0.31 2.352,1.841 3.093,0.4 1.175,0.842 -0.242,1.618 1.532,3.143 0.09,-0.36 0.18,-0.721 0.27,-1.101 -0.24,-0.35 -0.541,-0.721 -0.891,-1.071 1.531,-1.682 1.141,-0.911 1.161,-0.13l0.561 -2.943c-1.661,2.193 -1.473,2.67 -2.012,1.401 1.391,0.881 -0.341,-3.173 -2.323,-7.317 1.072,0.126 0.408,-1.618 -0.22,-0.451 -0.541,-1.131 -1.081,-2.242 -1.592,-3.263 0.541,-1.421 4.055,1.762 4.716,1.021 0.139,-0.14 1.391,-4.885 1.421,-5.165 0.06,-0.481 -0.14,-3.063 -0.541,-6.016 0.341,-0.171 0.571,-0.281 1.192,-0.601 -0.4,-0.09 -0.911,-0.281 -1.302,-0.261 -0.2,-1.391 -0.45,-2.812 -0.711,-4.114 0.09,-0.45 0.061,-0.911 -0.2,-1.191 0.06,0.14 0.06,0.28 0.03,0.451 -0.28,-1.302 -0.601,-2.413 -0.941,-3.154 0.911,0 -0.14,-2.692 -0.28,-2.692 -0.311,0 -0.431,1.021 -0.281,1.811 -0.08,-0.06 -0.14,-0.11 -0.23,-0.139 0.37,-4.005 1.471,-6.667 -0.821,-9.65 4.104,-7.779 1.061,-9.24 0.73,-13.114 -1.051,-0.481 -2.112,-0.921 -3.183,-1.322 0.29,3.294 -0.18,5.426 -0.931,6.918 -3.059,-1.105 -2.402,0.711 -0.39,0.711 -1.362,2.132 -3.154,2.753 -2.984,4.374 -0.17,-0.571 -0.34,-1.051 -0.48,-1.451 0.11,-1.532 0.06,-3.094 -0.451,-4.765l-1.131 0.002c-0.54,1.641 0.03,2.012 0,2.132 -3.224,0.481 -1.772,-4.865 -1.542,-10.161 -7.535,-1.803 -9.821,-2.58 -16.868,-5.135l0 -0.06 -8.149 -3.313c0.361,1.041 0.28,2.362 -0.541,4.244 0.571,3.323 1.132,6.667 1.702,9.99 -0.771,0.26 -1.502,0.51 -2.272,0.771 4.455,0.09 1.361,12.343 2.272,18.079 -1.592,1.762 -3.173,0.06 -3.944,0.771 -1.021,0.94 -1.051,11.661 -1.702,0 7.008,-5.566 1.872,-7.238 1.702,-7.689 -0.311,-0.711 2.893,-1.331 -1.131,-1.931 3.804,-0.651 2.272,-8.679 1.701,-14.215 -0.029,-0.14 -1.451,-0.881 -1.701,-2.693 -0.141,-1.021 0.45,-4.345 0.23,-7.117 2.518,0.839 2.053,0.583 3.133,-0.411 -2.81,-1.133 -2.441,-1.314 -5.035,-3.394 -2.833,-2.302 -5.586,-5.646 -9.56,-5.646 -0.911,0 -1.051,-0.11 -1.792,-0.17l-7.608 -0.171c-5.886,-0.509 -12.043,-0.529 -18.06,-0.509 -5.075,0.03 -9.56,0.09 -14.556,0.481 -2.523,0.23 -4.995,0.029 -7.608,0.17 -2.398,0.162 -4.301,0.322 -6.447,1.742l0 4.244c-0.28,0.17 -0.31,0.62 0,0.821l0 85.669c-0.51,4.224 -0.4,16.377 -1.792,10.191 -0.941,-4.205 -0.54,-15.066 -0.6,-20.001 0,-1.812 1.021,-4.595 -0.571,-5.566 1.131,-2.042 -0.08,-1.792 0,-2.693 0.03,-0.65 0.851,-1.081 0.881,-1.161 0.48,-2.412 -0.571,-1.221 -0.601,-1.331 0.11,0.17 -0.37,1.562 -0.451,1.532 -0.51,-0.171 0.231,-1.873 0.451,-1.532 -0.2,-0.621 -0.2,-1.532 -0.28,-1.932 -0.101,-0.187 -1.39,1.344 0,-4.995 -0.261,-0.03 -0.791,0.14 -0.912,-0.201 1.622,-1.872 0,-2.442 0,-3.063 0.03,-1.051 2.103,-0.96 0.311,-5.395 2.953,-1.762 0.08,-1.081 0,-1.532 -0.621,-2.723 0.79,-8.168 -0.311,-10.951 -0.029,2.663 0.061,14.525 -0.28,15.576 -0.06,0.14 -1.621,0.821 -1.762,1.532 -0.37,1.792 2.583,9.85 -1.191,7.488 0.09,-0.261 -0.311,-0.511 -0.281,-0.571 0.14,-0.48 1.192,-0.431 0.881,-4.224 -0.03,-0.341 -0.601,-0.17 -0.601,-0.2 -0.11,-0.991 1.112,-6.127 2.353,-6.727 -1.762,-0.311 -0.941,-2.863 -1.161,-3.464 -0.11,-0.26 -3.464,-2.243 -1.192,-3.864 -0.911,-7.208 -0.08,-14.615 0,-21.903 0,-0.28 -0.6,-0.11 -0.6,-0.4 0.029,-2.353 0.029,-7.208 1.621,-2.863 0.991,-3.324 -0.681,-1.672 -1.301,-2.893 -0.111,-0.2 0.43,-3.604 -0.601,-4.225 1.281,-1.281 0.28,-4.374 0.28,-4.624 0,-0.09 0.601,-1.812 0.601,-1.902 0,-0.811 -0.05,-1.832 -0.12,-2.883l-1.022 0.77c0,0.831 -0.01,1.662 -0.029,2.483 0,0.09 -0.601,1.471 -0.601,1.562 -0.171,12.282 0.23,24.626 0.28,36.918 0.03,2.583 -0.231,10.021 -0.881,11.923 0.06,1.111 0.311,-0.14 0.601,0.57 -0.4,9.19 0.231,40.072 -0.31,44.607 -0.431,3.743 -0.881,2.352 -2.924,2.863 -0.28,-3.974 0.341,-18.529 0,-19.981 -0.06,-0.2 -0.51,-0.771 -0.6,-0.401 -0.431,3.835 0.43,20.121 0.28,21.173 -0.03,0.11 -1.021,1.872 -1.191,2.102 -0.341,0.57 -1.222,0.09 -0.571,1.161 -1.642,1.982 -0.26,0.961 0.881,1.531 0.03,0.03 -0.171,0.821 0.28,0.771 -0.791,0.541 -1.161,1.111 -2.212,0.771 0.31,-2.102 -2.783,-0.681 -2.643,-5.756 -0.2,2.923 -0.961,1.421 -1.932,3.063 1.792,2.382 0.821,3.774 -0.881,5.395 0.2,0.2 1.762,3.063 3.234,4.996 1.161,4.084 5.646,2.863 4.425,8.849 -0.081,0.51 -0.341,0.77 -0.601,1.161 0.741,1.642 1.131,0.651 1.191,0.941 0.231,0.991 -0.28,0.941 -0.28,0.961 -0.711,1.111 -1.592,1.792 -2.072,3.093 0.37,-0.31 0.851,-0.43 1.191,-0.771 1.131,2.523 2.443,4.565 4.114,6.528 1.562,4.204 -0.17,30.531 0.881,37.679 -0.941,10.781 -0.2,22.023 -0.28,32.884 0,0.06 0.48,0.941 0.601,1.132 -1.112,3.003 -0.571,7.297 -0.601,10.781 0,0.14 -0.601,0.62 -0.601,0.771 -0.03,5.165 0.571,10.58 0.601,15.746 0,0.17 -0.601,0.28 -0.601,1.562 0,0.14 0.601,0.62 0.601,0.771 0,2.662 0.28,8.489 -0.881,9.79 -0.14,-8.259 0.2,-16.548 0,-24.796 0,-0.231 -0.571,-2.983 -0.601,-4.425 -0.991,1.221 0.711,3.884 -0.88,3.864l0 0.37c-1.082,-0.65 -0.201,-9.139 -1.622,-9.99 -1.732,-0.991 1.732,6.327 -1.051,4.425 2.382,4.935 0.029,1.191 -0.14,1.332 -0.371,0.31 0.06,1.191 -0.281,1.561 -0.06,0.03 -0.88,-0.961 -1.051,-0.2 -0.11,0.451 1.842,0.681 2.353,2.102 -4.345,1.282 -3.744,0.341 -3.974,0.4 -2.243,0.481 0.941,1.672 -2.213,2.893 1.392,0.741 -1.161,3.574 0.601,3.464 -0.03,-3.574 1.331,-0.17 0.741,0.941 -0.03,0.06 -0.851,-0.911 -1.051,0.2 -0.06,0.371 -0.281,6.947 -0.281,7.318 0,0.26 1.112,0.851 0.881,1.902 -0.6,2.893 -2.442,-2.923 -2.072,1.731l0.311 0c-0.11,0.851 -0.2,1.672 -0.31,2.492 0.621,0.681 0.451,-0.34 0.911,-0.57 0.11,-0.06 0.371,0.03 0.571,0 -0.03,2.072 0.62,1.672 0.31,3.093 -0.169,0.594 0.438,2.446 0.601,3.073 -1.422,0.681 -0.541,0.711 -0.601,1.161 -0.636,2.262 0.82,1.117 0.881,1.732 -0.03,0.26 -0.57,0.51 -0.601,0.57 -0.08,0.431 -0.851,2.924 -0.88,3.064l-0.601 -0.571c0.17,4.855 -1.082,8.88 -0.281,13.844l0.601 0.001c0.26,-1.642 -0.03,-2.012 0,-2.132 2.102,-0.571 0.37,7.918 0.881,14.044 -3.094,1.502 1.641,1.111 -0.311,3.664 -0.23,-1.392 0.341,-1.702 -0.881,-1.562 0.141,1.622 -0.34,2.353 -0.28,2.523 0.261,0.651 1.082,-0.26 1.161,-0.2 0.841,0.451 1.172,1.792 1.272,3.013l13.745 0.541c-1.211,-1.742 -2.463,-3.033 -1.422,-7.608 -0.31,-3.323 -0.6,-6.637 -0.88,-9.99 0.4,-0.261 0.77,-0.511 1.161,-0.771 -2.323,-0.09 -0.711,-12.343 -1.161,-18.079 0.821,-1.762 1.641,-0.06 2.042,-0.771 0.541,-0.941 0.57,-11.632 0.911,0 -3.694,5.566 -0.991,7.268 -0.911,7.688 0.17,0.711 -1.502,1.332 0.601,1.932 -1.982,0.651 -1.192,8.709 -0.881,14.215 0,0.14 0.771,0.881 0.881,2.693 0.13,1.572 -0.671,8.458 0.53,10.681 0.13,0 0.251,0 0.38,0 0.391,-5.005 -1.321,-9.109 0.281,-10.291 -0.341,-11.922 -0.341,-23.294 0,-35.016 -0.26,-0.431 -0.51,-0.881 -0.741,-1.331 -0.991,2.752 -0.711,-3.975 0,-7.689 2.523,9.7 0.941,2.213 0.431,-3.664 -0.06,-0.911 1.471,-4.564 -1.162,-3.463 0.111,-1.842 1.793,-7.809 0.14,-2.863 -2.102,-11.752 -1.731,2.522 -1.621,6.326 0.11,0.231 3.063,-1.621 2.352,0 -0.26,0.621 -2.552,-2.352 -2.352,9.62 0.06,3.494 2.182,10.161 -1.051,7.488 -2.443,-2.012 1.021,-3.974 0.45,-5.195 -0.28,-0.621 -0.711,0.26 -0.74,0.2 -1.162,-2.813 0.62,-0.911 0.74,-1.331 0.08,-0.281 0.311,-5.446 0.281,-6.157 0,-0.14 -0.571,-0.621 -0.571,-0.771 -0.09,-5.275 0.571,-12.743 -0.911,-13.454 2.583,-7.718 -1.902,-2.953 -0.431,-7.117 3.004,-1.592 0.912,7.518 4.115,4.995 1.081,-0.821 -1.392,-0.961 -1.021,-4.425 0.31,-3.063 1.842,-1.391 2.072,-1.931 0.651,-1.562 -1.302,-2.613 -1.622,-2.493 -0.14,0.06 -1.451,3.003 -1.792,3.093 -2.412,0.481 0.481,-11.862 -1.331,-15.977 0.821,-1.812 2.613,4.996 2.072,0.401 -0.11,-1.051 -2.243,-3.063 -0.28,-2.693 -3.945,-5.396 -1.192,-9.87 -0.601,-6.927 0.31,1.591 -1.021,9.87 2.663,-0.371 -0.14,-1.731 -7.579,-2.782 0.28,-1.931 -1.161,-3.574 -0.17,-1.452 0,-2.303 0.371,-1.872 -0.711,-2.662 -0.601,-3.093 0.14,-0.571 0.851,0.62 1.192,-0.37 0.06,-0.261 0.31,-5.106 0.28,-5.396 -0.34,-5.396 -0.881,-2.753 -1.021,-2.893 -1.361,-1.111 0.651,-1.792 0.741,-2.102 0.28,-1.131 -0.281,-4.795 0,-6.357 0.54,-1.471 -0.621,-0.88 -0.601,-2.863 1.732,-2.442 -0.23,-5.676 1.021,-11.352 -1.451,1.222 0.481,-10.3 0.14,-15.185 1.161,2.072 0.371,12.172 0.911,4.995l0.571 -0.001c-0.302,30.665 0.31,61.73 0.31,92.477 0,19.661 -0.291,38.29 -0.521,57.42 0.18,0 0.35,0 0.521,0 0.01,-19.12 0.22,-38.27 0.28,-57.42 0.06,-19.61 -0.03,-39.211 0,-58.821 0.06,-27.189 0.26,-54.367 0.31,-81.526 0.03,-30.761 -0.57,-61.524 -0.23,-92.276 0.092,0 1.574,-0.476 0.03,-1.051 0,-1.451 0.03,-2.893 0.06,-4.344 2.012,0.06 4.034,0.09 6.047,0.14 0.6,0.48 1.501,1.251 2.582,1.761 -1.111,0.231 -1.451,1.302 -0.2,1.562 1.302,0.281 2.133,-0.48 1.872,-1.051 0.741,0.06 1.502,-0.09 2.243,-0.601 0.11,-0.06 -0.851,-0.139 -0.941,-1.501 3.093,0.09 6.156,0.2 9.25,0.34 0.881,0.481 -0.4,0.881 -0.14,0.991 0.23,0.09 0.431,0.14 0.601,0.17 0,0.311 0,0.651 -0.03,0.962 -1.221,-0.571 -3.744,0.99 -2.242,1.531 0.08,0.06 1.561,-0.51 2.242,-0.941 -0.651,22.474 1.221,50.423 0.09,71.475 -0.03,0.451 -1.081,1.962 -0.51,8.489 -5.166,-1.702 -0.341,0.821 0,2.132 1.131,4.345 -4.736,4.735 0.991,11.663 -2.783,2.272 -1.422,4.344 -0.991,7.407 -2.303,0.481 -4.085,11.262 -3.914,12.203 0.029,0.2 1.531,3.834 1.701,3.974 0.791,0.541 5.026,-1.872 5.677,-0.791 -3.915,5.055 -10.361,13.535 0,4.765 0.11,3.494 -1.452,9.871 0.51,11.662 -2.693,2.473 0.06,6.157 0,6.867 -0.791,8.199 -3.204,-2.322 -4.935,2.663 -1.082,3.063 2.723,7.749 1.962,11.122 -0.481,1.251 -6.667,-2.613 -4.906,2.643 0.401,1.281 3.204,1.251 3.434,1.591 0.741,1.051 -1.842,2.693 -1.962,3.204 -0.431,1.562 1.562,2.072 -0.991,5.276 1.642,3.003 3.914,-7.298 1.962,2.662 -0.23,1.282 2.353,3.434 -1.962,1.051 5.566,5.816 0.741,3.004 0.48,3.714 -0.34,1.021 1.472,1.422 1.472,1.592 0.681,4.905 -1.051,2.182 -1.702,2.382 -1.902,0.541 2.072,5.616 2.212,6.607 0.281,2.013 -1.021,14.015 -1.471,17.509 -4.796,1.361 -3.063,8.168 0.48,3.684 -1.501,5.075 0.961,13.054 0.991,13.794 0.03,0.601 -0.991,3.524 -0.991,3.714 -0.029,2.553 1.452,5.786 0.261,5.566 -0.541,-0.11 -4.115,-7.468 0.74,2.923 -2.983,1.282 1.082,1.502 -2.953,6.867 0.961,1.732 4.115,-5.646 2.443,-1.591 2.302,10.951 -0.991,8.198 -1.471,10.07 -0.401,1.562 2.893,8.88 -0.481,7.948 3.664,4.395 0.281,12.233 1.472,18.019 -7.379,7.659 -0.621,6.837 0,8.489 0.56,1.502 -0.071,6.817 -0.391,10.962 5.075,0.08 10.392,0.15 15.427,0.19 0.32,-7.608 0.34,-20.471 0.26,-33.405l0.07 0.058zm62.117 -76.299c-0.37,-0.621 -0.341,-1.161 0.03,-1.702 0,0.57 -0.03,1.131 -0.03,1.702zm-1.282 -145.432c0.201,-0.431 1.672,-2.893 1.702,-3.063 0.311,0.17 0.451,0.23 0.621,0.31 0.14,1.221 0.37,2.182 0.57,2.643 -1.251,1.391 -0.79,4.735 -0.82,7.948 0,0.881 0.139,1.331 0.28,1.762 -0.341,0.11 -0.711,0 -1.221,0.03 0.08,-2.072 -1.162,-1.672 -0.571,-3.063 0.291,-0.667 -0.826,-2.498 -1.132,-3.093 2.693,-0.681 1.022,-0.711 1.132,-1.132 1.111,-1.391 -0.511,-1.451 -0.571,-1.561 -0.03,-0.03 -0.881,0.17 -1.131,-0.171l1.141 -0.61zm-16.908 -19.21c0.08,7.178 0.681,14.325 0.571,21.532 -0.03,0.991 0.23,1.562 -0.571,1.532 -0.03,-0.14 -0.791,-2.133 -1.131,-2.493 0.23,-6.837 -0.711,-13.904 1.131,-20.571zm-1.141 52.494c0,-0.14 1.111,-0.62 1.111,-0.77 0.091,-5.196 -1.081,-10.611 -1.111,-15.776 0,-0.141 1.131,-0.281 1.111,-1.532 0,-0.14 -1.111,-0.621 -1.111,-0.771 -0.03,-2.663 -0.541,-8.489 1.672,-9.82 0.28,8.258 -0.37,16.547 0,24.796 0.03,0.23 1.081,2.983 1.131,4.424 1.903,-1.221 -1.331,-3.864 1.702,-3.834l0 -0.4c2.043,0.651 0.371,9.17 3.094,9.99 3.293,1.021 -3.344,-6.326 1.982,-4.394 -4.565,-4.965 -0.03,-1.222 0.28,-1.362 0.681,-0.31 -0.11,-1.191 0.571,-1.531 0.06,-0.06 1.642,0.941 1.962,0.2 0.2,-0.48 -3.514,-0.681 -4.515,-2.133 8.319,-1.281 7.208,-0.34 7.639,-0.37 4.284,-0.48 -1.792,-1.702 4.224,-2.893 -2.643,-0.77 2.212,-3.604 -1.131,-3.463 0.03,3.543 -2.583,0.14 -1.422,-0.962 0.06,-0.06 1.622,0.941 1.982,-0.2 0.111,-0.34 0.571,-6.927 0.571,-7.297 -0.03,-0.261 -2.132,-0.851 -1.702,-1.932 0.541,-1.331 1.592,-0.791 2.473,-0.31 -0.171,35.216 -0.711,70.453 -0.401,105.67 0.281,0.26 0.571,0.481 0.821,0.711 -0.26,0.601 -1.221,1.842 -1.221,2.072 -0.03,5.816 -0.17,11.633 -0.28,17.448 -0.961,-0.79 -2.043,-1.641 -3.094,-2.352 0,-26.992 0.318,-56.004 -0.31,-59.993 -0.09,-0.51 -0.541,-0.34 -0.821,-0.34l0 58.962c-3.123,-2.493 -9.36,-2.302 -7.318,-7.488 0.2,-0.481 0.681,-0.741 1.131,-1.132 -1.421,-1.671 -2.132,-0.65 -2.272,-0.96 -0.401,-0.991 0.571,-0.912 0.571,-0.962 1.331,-1.081 3.003,-1.791 3.974,-3.063 -0.711,0.281 -1.642,0.431 -2.273,0.771 -2.212,-2.553 -4.685,-4.594 -7.888,-6.557l-0.031 0c-2.983,-4.205 0.341,-30.502 -1.672,-37.68 1.792,-10.751 0.371,-22.022 0.571,-32.864 0,-0.09 -0.911,-0.961 -1.132,-1.161 2.103,-3.004 1.082,-7.268 1.132,-10.751l0 0.009zm-2.833 158.596c-6.898,-3.914 -2.953,-4.594 1.131,-0.77 -0.791,1.191 -1.081,0.74 -1.131,0.77zm-13.284 -222.122c0.06,-1.531 0.09,-3.063 0.11,-4.625 0.62,0.231 1.251,0.451 1.872,0.681 -0.285,1.607 0.505,2.158 0.851,0.31 0.45,0.14 0.881,0.311 1.301,0.451 0.281,3.153 1.532,5.676 0.371,6.927 0.57,-0.991 -2.323,-3.343 -4.515,-3.714l0 -0.03 0.01 0zm2.752 4.195c0.681,0.06 1.162,-0.03 1.472,-0.17 -0.17,0.11 -0.34,0.2 -0.541,0.28 0.621,11.893 0.651,23.264 0,34.986 0.481,0.451 0.961,0.912 1.422,1.332 1.902,-2.753 1.331,3.974 0,7.688 -4.825,-9.7 -1.812,-2.182 -0.851,3.664 0.17,0.911 -2.783,4.565 2.272,3.464 -0.23,1.872 -3.433,7.827 -0.28,2.892 4.034,11.753 3.294,-2.522 3.093,-6.356 -0.2,-0.231 -5.876,1.641 -4.514,0 0.51,-0.621 4.905,2.352 4.514,-9.62 -0.11,-3.464 -4.204,-10.161 1.983,-7.488 4.715,2.042 -1.932,4.004 -0.851,5.196 0.57,0.62 1.391,-0.231 1.421,-0.201 2.243,2.813 -1.191,0.911 -1.421,1.362 -0.14,0.28 -0.601,5.445 -0.571,6.156 0,0.14 1.132,0.601 1.132,0.771 0.11,5.276 -1.132,12.713 1.701,13.454 -4.935,7.718 3.664,2.953 0.822,7.117 -5.737,1.592 -1.732,-7.548 -7.889,-5.025 -2.012,0.851 2.693,0.961 1.982,4.425 -0.62,3.063 -3.544,1.421 -3.974,1.932 -1.282,1.591 2.493,2.643 3.123,2.492 0.261,-0.06 2.723,-3.003 3.374,-3.063 4.595,-0.51 -0.911,11.833 2.553,15.947 -1.562,1.812 -4.996,-4.996 -3.975,-0.4 0.261,1.051 4.285,3.093 0.571,2.692 7.548,5.416 2.272,9.871 1.131,6.928 -0.62,-1.592 1.962,-9.851 -5.075,0.4 0.26,1.731 14.475,2.782 -0.571,1.902 2.243,3.603 0.341,1.451 0,2.322 -0.741,1.872 1.332,2.643 1.131,3.063 -0.28,0.601 -1.641,-0.62 -2.272,0.4 -0.14,0.261 -0.601,5.106 -0.57,5.366 0.65,5.396 1.701,2.783 1.982,2.893 2.582,1.111 -1.251,1.812 -1.422,2.132 -0.57,1.111 0.541,4.795 0,6.327 -1.051,1.502 1.222,0.881 1.131,2.893 -3.293,2.412 0.451,5.646 -1.962,11.352 2.783,-1.251 -0.911,10.301 -0.28,15.186 -2.212,-2.073 -0.711,-12.173 -1.702,-4.996l-1.132 0.001c0.261,-11.212 0.06,-22.444 0,-33.656 -0.09,-19.61 -0.57,-39.241 -0.57,-58.821 0,-16.177 0.4,-32.374 0.771,-48.58l2.842 1.361zm-73.529 263.675l-0.281 -21.903c0,-0.621 -0.139,-1.192 0.281,-1.161 0,0.14 0.4,2.132 0.601,2.492 -0.14,6.837 0.34,13.905 -0.601,20.572zm1.481 -210.33c0.431,-1.191 0.571,-0.74 0.601,-0.771 3.604,3.915 1.532,4.595 -0.601,0.771zm53.208 224.345c0.451,0.09 0.03,1.531 0.481,1.591 7.919,1.161 4.905,-2.152 -0.481,-3.173 -2.783,-4.224 -2.182,2.243 -3.694,-8.198 -0.09,-0.511 -1.451,-0.03 -1.471,-0.541 1.331,-2.443 1.421,-11.892 1.471,-16.427 0,-0.2 -0.991,-0.851 -0.991,-1.051 0,-0.17 1.502,-0.621 1.472,-3.173 0,-1.302 -2.353,-2.102 -0.481,-5.056 -3.063,-0.23 0.621,-0.71 0.481,-3.173 -3.153,0.681 -1.502,-1.762 -0.26,-2.642 0.08,-0.061 0.911,1.621 1.982,0.54 1.762,-1.811 -0.941,-4.564 -1.251,-5.305 -0.03,-0.11 -1.022,0.48 -1.472,-1.842 -0.51,-2.693 1.812,-4.394 -0.961,-5.306 0.991,-1.641 0.14,-4.204 0.481,-7.147 -0.481,-0.2 -0.991,-0.37 -1.472,-0.541 0.03,-23.154 0.03,-46.278 0,-69.432 -0.34,0 -0.911,-0.11 -0.991,0.28 -1.221,5.476 0.451,68.131 -0.991,81.866 -0.03,17.428 -0.13,34.836 0.101,52.264l3.994 0c-0.851,-2.393 2.062,-3.774 4.044,-3.523l0.009 -0.011zm21.193 -197.807c0.541,0.2 4.515,-2.212 4.225,-2.493 -1.642,-1.531 -5.246,2.133 -4.225,2.493zm-1.702 8.479c5.757,-0.231 3.154,-1.332 3.684,-3.294 0.03,-0.14 3.975,-2.302 0.281,-2.492 -1.932,-0.09 -3.434,4.735 -3.975,5.786l0.01 0zm-46.851 -43.586c-1.131,2.133 2.213,3.204 1.472,0.541 -0.11,-0.45 -1.131,-1.221 -1.472,-0.541zm94.854 -1.531l0.04 -0.36 -0.04 0.35 0 0.01zm-6.418 34.806c0,0 -0.009,-0.06 -0.019,-0.1l0.009 0.1 0.01 0zm-0.15 -13.804c0.11,-1.872 -0.34,-4.455 -0.791,-0.341 -0.23,1.932 0.431,2.212 0.681,1.191 1.476,-0.523 0.711,-1.045 0.11,-0.85zm1.642 1.051c-0.28,1.491 0.12,1.841 0.641,1.661 0.26,-0.851 0.54,-1.762 0.81,-2.752 -0.57,-0.07 -1.321,0.35 -1.451,1.091zm-11.663 116.341c0.293,-0.536 0.309,-0.826 0,-1.391l-0.62 1.051c0.09,0.11 0.14,0.23 0.2,0.34l0.42 0zm0 26.248c-0.06,-0.061 -1.051,1.591 -1.021,1.732 0.28,1.391 1.842,-1.252 1.021,-1.732zm-1.021 66.629c0,0.261 0.601,1.502 1.021,0.341 0.481,-1.302 -1.021,-1.532 -1.021,-0.341zm0.401 -49.722c-0.06,0.371 -0.06,1.592 0.2,1.732 0.681,0.341 0.481,-5.105 -0.2,-1.732zm17.168 -204.844c0.201,0.371 0.431,0.821 0.541,1.362 0.51,0.09 0.431,-0.851 0.14,-1.872 0.14,-0.201 0.28,-0.431 0.401,-0.681 0.62,1.672 1.221,3.323 0.941,5.245 1.281,-1.982 0.37,-4.254 -0.681,-6.216 0.06,-0.451 0.03,-0.961 -0.06,-1.532 -0.571,-3.063 -3.865,-1.562 -3.694,1.392 0.11,2.102 1.361,2.783 2.412,2.302l0 0zm2.073 9.45c0.384,-1.989 -0.341,-2.085 -0.341,-3.063 -0.029,0.11 -0.029,0.23 -0.06,0.34 -0.6,-0.79 -1.591,-0.74 -2.132,0.281 -0.09,-0.571 -0.14,-1.392 -0.17,-2.553 -0.741,5.586 -1.302,2.613 -1.472,2.693 -1.842,0.741 2.133,4.204 -0.74,4.795 0.65,0 1.811,0.23 1.901,0.2 0.341,-0.14 0.881,-3.774 0.451,4.795 0,0.11 -0.431,0.481 -0.601,0.771 2.183,1.391 -1.732,5.055 0.14,4.425 0.401,-0.11 0.821,-1.962 0.881,-1.902 0.05,0.981 0.11,1.782 0.18,2.443l0.271 -2.643 0.28 -1.382c-1.121,0.931 -0.31,-4.104 0,-7.618 0.23,0.03 0.431,-0.03 0.621,-0.14 -0.09,1.551 -0.131,3.133 -0.181,4.715 0.261,-1.682 0.521,-3.314 0.801,-4.845 0,-0.211 -0.009,-0.421 -0.02,-0.631 0.06,-0.2 0.141,-0.431 0.171,-0.681l0.02 0zm-14.817 -23.074c0.231,0 0.231,-1.161 0,-1.161 -0.23,0 -0.23,1.161 0,1.161zm8.85 19.24c0.11,1.532 0.2,3.063 0.31,4.595 0.941,-1.702 0.451,-2.863 -0.31,-4.595zm4.435 -15.776c0.941,0.17 0.821,-0.581 0.46,-1.331 -0.4,-0.211 -0.81,-0.421 -1.211,-0.641 0.061,0.801 0.511,1.932 0.751,1.972zm-2.603 -2.923c-0.431,-0.22 -0.861,-0.441 -1.291,-0.651 0.201,0.889 1.079,1.71 1.291,0.65l0 0.001zm-43.057 270.282c0.481,-0.03 0.171,-0.681 0.281,-0.771 0,0.09 -3.094,0.911 -0.281,0.771zm-8.719 3.063c-0.561,-0.35 -1.211,0.16 -1.491,0.811 0.66,-0.02 1.321,-0.03 1.971,-0.05l-0.48 -0.761zm7.298 -58.421c-0.281,0.26 -0.571,0.51 -0.851,0.771 1.221,0.14 0.791,-0.771 0.851,-0.771zm-1.132 -4.825c-3.233,3.975 2.273,0.481 1.132,-0.17 -0.09,-0.06 -0.911,-0.09 -1.132,0.17zm5.076 61.915c0.451,-2.043 -1.081,-2.012 -1.111,-2.102 1.882,3.763 -4.915,0.11 -1.792,3.924 0.23,0 0.471,-0.02 0.701,-0.03 0.23,-0.761 0.63,-1.381 2.202,-1.792l0 0zm25.628 -35.778c0.601,0.401 0.481,-4.314 -0.2,-1.731 -0.09,0.34 -0.06,1.531 0.2,1.731zm-42.816 38.02c0.26,0 0.53,0 0.79,-0.01 -0.232,-0.186 -0.447,-0.272 -0.79,0.02l0 -0.01zm64.61 -262.354l0 -8.348c-0.191,-0.101 -0.391,-0.191 -0.581,-0.29 -0.01,3.563 -0.03,7.127 -0.04,10.691l0.621 -2.053zm-20.893 -16.357c0.08,0.541 0.54,0.571 0.961,0.451l0 2.412c-0.785,0.161 -0.525,1.339 0.26,1.221 0.601,2.153 1.452,2.523 2.353,1.963 0.28,0.43 0.881,0.941 1.812,1.331 0.54,-0.541 -0.571,-1.622 -1.111,-1.962 0.891,-0.981 1.762,-2.633 2.422,-4.215 -0.31,-0.11 -0.64,-0.21 -0.961,-0.31 -0.751,2.583 -1.661,4.745 -3.984,2.593 0,-1.262 0.01,-2.483 0.02,-3.694 -0.541,-0.13 -1.081,-0.27 -1.642,-0.4 -0.12,0.18 -0.19,0.35 -0.14,0.61l0.01 0zm-27.1 267.249c-0.941,5.055 -2.302,0.851 -1.111,-6.557 0.03,-0.14 -1.331,-0.54 -1.131,-1.131 2.272,-1.281 5.476,-4.455 0.57,-2.322 0.401,-5.416 -0.11,-10.902 0,-16.317 -2.272,2.492 0.851,6.837 -1.701,8.629 2.863,0.77 0.029,3.743 0,4.625 -0.061,3.203 1.051,6.756 1.131,9.99 0,0.11 -1.162,1.331 -1.131,1.932 0,0.14 1.131,0.62 1.131,0.77 0.08,1.872 -0.601,5.196 -0.571,6.157 0,0.14 1.021,0.451 1.131,0.961 0.03,-0.03 0.771,0.11 0.571,-0.771 -1.251,-3.944 4.084,-3.974 1.111,-5.956l0 -0.01zm-3.654 -49.802l0.281 -0.57 -0.281 -0.2 -0.851 0.57 0.851 0.2zm16.659 58.651c-2.693,3.634 -0.681,-12.062 -2.833,-10.981 0.05,4.144 -0.041,8.318 -0.021,12.473l4.756 -0.4c0.53,-3.665 -3.354,-8.66 -1.902,-1.092zm-17.8 0.571c0.09,-2.072 1.422,-2.382 1.422,-2.492 0.34,-3.694 -3.204,0.48 -1.422,2.492zm1.422 -16.737c0.961,-8.289 -3.204,-5.676 -1.422,3.663 0.281,0.03 1.392,-3.463 1.422,-3.663zm-70.287 -254.937c0,0.14 0.681,0.541 0.602,1.132 -1.192,1.281 -2.864,4.454 -0.311,2.302 -0.2,5.445 0.06,10.921 0,16.347 1.192,-2.493 -0.43,-6.837 0.911,-8.659 -1.501,-0.741 -0.03,-3.714 0,-4.595 0.03,-3.203 -0.57,-6.757 -0.6,-10.02 0,-0.09 0.6,-1.302 0.6,-1.902 0,-0.17 -0.6,-0.621 -0.6,-0.771 -0.061,-1.872 0.31,-5.195 0.28,-6.156 0,-0.14 -0.511,-0.451 -0.601,-0.961 0,0.03 -0.4,-0.11 -0.281,0.77 0.651,3.945 -2.132,3.974 -0.6,5.957 0.51,-5.056 1.221,-0.851 0.6,6.556zm-51.165 15.467c-0.2,0.4 0.77,0.96 0.851,0.96 0.941,-0.06 -0.511,-1.561 -0.851,-0.96zm0.851 -7.889c-0.541,0.231 0.43,0.771 0.57,0.791 2.583,0.341 1.192,-1.451 -0.57,-0.791zm1.842 26.918c0.03,0.18 0.05,0.371 0.08,0.551 1.532,-0.361 3.144,-0.771 -0.08,-0.551zm1.842 4.435c-0.35,-0.431 -0.831,-0.581 -1.282,-0.581 0.081,0.521 0.151,1.041 0.231,1.562 0.891,0 1.581,-0.33 1.061,-0.981l-0.01 0zm153.977 -37.309c0.601,-0.28 -0.541,-1.732 -0.741,-0.961 -0.03,0.06 0.681,0.991 0.741,0.961zm-156.66 27.309c0.03,0.219 0.07,0.43 0.1,0.65 0.421,-0.09 0.27,-0.35 -0.1,-0.65zm-1.852 -17.299c-0.06,-0.31 1.111,-0.48 -0.26,-5.585 -1.031,0.81 -1.532,1.681 -1.722,2.572l1.281 6.237c5.145,-1.622 1.201,-1.061 0.691,-3.224l0.01 0zm1.982 16.348c0.541,0.2 3.033,-0.881 1.702,-1.562 -1.085,-0.535 -2.832,1.096 -1.702,1.562zm30.794 242.132c-0.14,-5.165 0.4,-9.34 0.4,-9.87 0.09,-5.586 -0.4,-10.241 -0.4,-11.182 0,-0.23 0.43,-1.931 0.4,-3.974 0,-0.28 -0.4,-0.681 -0.4,-1.962 0,-0.31 0.68,0.681 -0.231,-4.625 1.642,-5.195 -0.06,-6.267 -0.2,-6.927 0.37,-0.23 0.06,-1.251 0.431,-2.613 0.029,-0.17 1.421,0.14 0,-1.982l0.2 -3.944c-0.451,-1.702 -0.401,-2.523 -0.431,-2.643 -0.2,-6.297 0.431,-13.334 -0.601,-18.79 0.681,-5.225 0.481,-18.559 0.2,-24.375 -0.51,-10.671 -1.161,1.592 -1.251,-6.587 0,-1.792 0.541,-4.935 0,-8.539 2.693,-3.434 0.851,-10.381 1.452,-26.698 0.03,-0.28 0.34,1.592 0.2,-4.935 0,-1.191 0.43,1.532 0,-2.302 -0.451,-4.425 -1.302,-9.65 -2.043,-17.108 1.082,-3.263 0.621,-2.613 0.821,-6.607 0,-0.23 0.431,0.06 0.401,-4.935 0,-0.26 -0.401,-1.051 -0.401,-1.302 -0.06,-1.872 0,-13.504 -0.74,-14.155 -0.111,-0.11 -2.273,4.716 0.11,-2.302l-1.642 -5.275c0.06,-0.881 0.14,-1.762 0.2,-2.643 -1.842,-1.792 0.431,-6.587 -2.693,-3.294 1.192,-7.638 0.171,-4.054 -0.6,-6.587 -0.091,-0.23 0.2,-7.407 -0.541,-1.641 -3.914,-5.136 1.111,4.144 1.131,4.935 0.281,4.455 -2.243,-1.842 -3.173,-3.634 -0.03,-0.03 -0.4,1.361 -0.431,1.332 -0.17,-0.341 -0.991,-5.336 -1.131,-5.926 -0.281,-1.192 -1.021,-1.562 -1.021,-2.303 -0.11,-2.983 3.123,1.081 1.331,-2.983 -0.45,-0.991 -0.961,0.681 -1.131,-0.31 1.331,-6.927 -2.863,5.396 0,-9.22 -3.264,6.387 -1.161,1.502 -2.693,-0.991 0,-6.947 -0.62,-0.851 -0.711,-0.651 -0.03,0.03 -0.23,-1.05 -0.43,-0.68 -2.894,5.736 -2.353,14.275 -2.583,24.065 -0.03,1.392 -0.621,3.093 -0.621,3.294 -0.06,5.876 1.112,11.291 1.251,17.107 0.05,2.113 -0.2,19.941 -0.21,30.132 0.15,1.531 0.301,3.063 0.431,4.595 0.37,4.144 0.88,8.258 1.021,12.432l0.841 15.887c0.711,0.231 1.361,-1.091 1.622,-4.414 0.79,-10.161 -0.941,-11.262 -1.051,-11.862 -0.571,-3.094 -2.102,-10.532 -2.273,-13.164 -0.17,-2.553 -0.2,-38.17 -0.2,-44.467 2.012,11.692 2.302,-1.531 4.345,2.643 3.033,6.246 1.221,28.599 4.655,23.074 1.732,14.815 1.641,5.846 2.272,6.587 0.791,0.881 0.06,7.718 -0.31,9.53 0.28,0.11 0.681,0.941 0.821,0.991 -0.681,3.433 0.31,2.072 0.62,3.293 -1.301,1.702 0,11.602 0.201,16.798 0.03,0.65 -0.881,11.242 0.941,11.522 0.74,0.14 1.281,-8.94 1.562,1.642 0.17,7.437 -0.712,8.168 -1.051,10.21 1.641,-0.65 -1.302,10.531 -0.201,14.816 -2.493,8.058 -0.74,13.844 -1.872,31.612 -0.03,0.431 -0.571,1.562 -0.601,1.983 -0.11,1.531 0.651,5.956 -0.62,7.237 0.961,1.962 0.54,4.625 -0.431,0.991 -0.26,-0.941 0.741,-2.302 -1.251,-2.953 -0.4,-12.062 -1.562,-22.273 0.851,-30.963 0.06,-1.05 -0.431,-1.701 -0.431,-1.982 0.341,-16.627 0.03,-32.834 -0.4,-49.401 -0.03,-0.541 0.571,-3.804 -0.23,-10.211 0.06,-6.187 0.14,2.492 1.131,0 1.301,-3.173 -1.161,-16.347 -1.842,-15.807 -0.06,0.06 -0.651,2.243 -0.741,2.643 -0.31,1.762 -1.021,14.445 -0.821,16.147 0.651,2.782 1.161,-1.672 1.452,0.65 0.139,1.192 -0.231,23.325 0,25.677 0.08,0.941 2.042,2.103 1.251,17.789 -0.06,0.851 -1.732,15.406 -2.273,14.505 0.06,9.9 0.571,19.581 0.201,28.66 -0.11,2.582 -0.791,9.019 0,8.539 -0.141,1.301 -0.681,1.131 -0.201,5.616 -2.813,5.335 -6.267,24.715 -6.217,34.245 -0.821,1.192 -1.151,4.425 -1.121,7.929 1.702,0.38 3.484,0.74 5.396,1.091 0.571,-4.765 1.061,-9.691 1.942,-11.342 0.201,-0.37 0.371,-0.681 0.511,-1.301 1.471,0.34 2.953,0.65 4.425,0.99 -0.05,4.205 0.02,8.469 0.04,12.744 1.401,0.19 2.833,0.36 4.284,0.52 0.292,-1.167 0.538,-1.973 1.103,-2.091zm-22.615 -272.925c-0.33,0.14 -0.651,0.281 -0.971,0.421 0.14,17.989 0.921,46.568 -0.14,53.235 -1.672,0.09 0.571,2.493 0.541,3.834 0,0.14 -1.111,2.183 -1.111,2.323 -0.02,2.853 0.04,5.716 0.12,8.579 0.671,2.622 0.851,3.173 0.871,3.734l-0.34 3.403c0.35,0.891 0.711,2.252 1.051,3.894 0.02,-26.477 0.01,-52.955 -0.02,-79.433l-0.001 0.01zm25.367 263.306l0 3.463c0.371,-2.472 0.962,-2.352 0.881,-3.263 -0.09,-1.051 -0.85,-0.17 -0.881,-0.2l0 0zm-30.703 -226.758c0.741,-0.65 1.502,-1.281 2.243,-1.932 -1.472,0.261 -3.294,0.791 -2.243,1.932zm3.374 1.933c-0.11,-0.03 -0.991,1.131 -0.571,1.131 1.282,0.03 1.052,-0.991 0.571,-1.131zm-5.366 -18.27c-0.2,0.281 -3.774,1.502 -1.421,1.732 1.051,0.11 4.004,-1.732 2.833,-2.693 -3.975,-3.203 -1.332,0.821 -1.422,0.961l0.01 0zm0.851 8.259c4.275,-1.181 -0.27,-1.361 -2.553,-1.041 0.05,0.301 0.11,0.601 0.16,0.911l2.393 0.13zm49.674 -46.078c-0.101,0.09 -0.2,0.17 -0.301,0.26 0.121,-0.08 0.221,-0.16 0.301,-0.26zm-3.073 4.645c-0.261,2.042 0.57,1.982 0.601,2.102 -1.022,-3.804 2.642,-0.03 0.881,-4.034 0,-0.401 1.471,-1.282 1.471,-1.532 -0.03,-0.501 -0.451,0.24 -1.181,-0.04 -0.14,0.13 -0.29,0.25 -0.431,0.38 -0.27,1.352 -0.09,2.493 -1.341,3.123l0 0.001zm2.072 16.547c-0.51,8.289 1.672,5.676 0.741,-3.664 -0.14,-0.03 -0.741,3.464 -0.741,3.664zm0.14 42.474l0 0.771 0.42 -0.57c-0.03,-0.09 -0.08,-0.14 -0.14,-0.201l-0.28 0zm0.42 2.894c1.702,-3.975 -1.161,-0.511 -0.57,0.17 0.03,0.06 0.45,0.09 0.57,-0.17zm-0.56 -4.826l0.431 -0.77c-0.621,-0.171 -0.401,0.77 -0.431,0.77zm-0.741 -55.357c-0.26,0.03 -0.11,0.68 -0.17,0.77 0,-0.09 1.622,-0.911 0.17,-0.77zm-7.708 0.17l-0.931 0.38c0.39,2.183 1.161,3.324 0.931,-0.38zm-9.411 3.774c-0.12,0.04 -0.24,0.08 -0.35,0.13 -0.09,0.681 -0.05,1.231 -0.07,1.952 1.09,-0.799 0.42,-1.979 0.42,-2.082zm10.762 5.676c-0.02,-3.344 0,-6.667 0,-10.001l-0.73 0.301c0.256,4.178 -0.123,9.7 0.73,9.7zm7.829 -11.553c-0.06,2.073 -0.741,2.353 -0.741,2.493 -0.17,3.694 1.672,-0.48 0.741,-2.493zm-17.109 273.776c0.23,-0.14 0.23,-0.99 0,-1.131 -0.62,-0.37 -0.62,1.502 0,1.131zm-34.327 -256.397c-0.27,0.14 -0.541,0.28 -0.811,0.42 0.967,-0.1 0.895,-0.193 0.801,-0.42l0.01 0z"/>
    </g>
   </g>
   <g clip-path="url(#id2)">
    <path fill="none" d="M195.291 97.768c-0.085,-0.928 -0.17,-1.856 -0.308,-2.718 -0.137,-0.863 -0.329,-1.661 -0.099,-3.18 0.23,-1.519 0.881,-3.758 1.681,-6.311 0.801,-2.553 1.752,-5.418 2.565,-9.742 0.813,-4.323 1.489,-10.104 2.278,-15.986 0.788,-5.881 1.689,-11.863 2.652,-16.318 0.964,-4.454 1.99,-7.383 2.541,-9.31 0.55,-1.927 0.626,-2.853 0.663,-4.067 0.021,-0.674 0.03,-1.438 0.034,-2.242 -0.11,-0.063 -0.222,-0.122 -0.337,-0.177 -4.975,-2.38 -9.714,-5.334 -14.858,-7.149 -4.647,-1.639 -11.454,-2.699 -17.288,-4.719 -2.277,-0.789 -4.556,-1.589 -6.82,-2.415l-0.004 -0.03 -9.999 -4.08 -0.175 -0.072c-0.614,-0.28 -1.553,-1.207 -2.512,-1.889 -0.494,-0.369 -0.613,-0.563 -1.038,-0.905 -2.856,-2.299 -5.606,-5.635 -9.574,-5.641 -0.901,-0.002 -1.04,-0.123 -1.779,-0.163l-7.601 -0.17c-5.892,-0.486 -12.055,-0.501 -18.06,-0.477 -5.087,0.02 -9.557,0.063 -14.567,0.477 -2.529,0.209 -4.996,0.029 -7.6,0.17 -0.739,0.04 -0.878,0.161 -1.779,0.163 -3.968,0.006 -6.718,3.342 -9.575,5.641 -0.424,0.342 -0.543,0.536 -1.037,0.905 -0.741,0.527 -1.471,1.2 -2.047,1.608 -0.17,0.121 -0.326,0.218 -0.465,0.281l-10.174 4.152 -0.003 0.03c-2.265,0.826 -4.544,1.626 -6.821,2.415 -5.834,2.02 -12.641,3.08 -17.288,4.719 -5.144,1.815 -9.883,4.769 -14.858,7.149 -0.212,0.101 -0.412,0.215 -0.605,0.339 0.121,0.721 0.248,1.443 0.383,2.165 0.438,2.34 0.963,4.693 1.752,8.597 0.788,3.904 1.839,9.36 2.815,15.624 0.976,6.262 1.877,13.332 3.034,19.705 1.157,6.372 2.57,12.047 3.374,15.175 0.803,3.129 0.998,3.71 1.026,4.321 0.028,0.61 -0.11,1.248 -0.192,1.818 -0.083,0.57 -0.11,1.072 -0.138,1.574 1.678,4.247 3.328,18.944 3.789,24.023 0.735,8.116 1.826,16.186 2.512,24.347 0.348,4.137 0.874,8.269 1.009,12.419l0.653 12.776c0.396,4.199 0.208,8.934 0.274,13.179 0.032,2.062 0.194,4.007 0.186,6.13 -0.007,2.226 -0.172,4.349 -0.196,6.512 -0.051,4.469 -0.054,8.634 -0.319,13.111 -0.68,11.475 -1.257,26.076 -3.267,37.02 -0.966,5.407 -2.177,11.944 -2.754,17.389 -0.258,2.432 -0.827,10.057 -1.468,11.951 -0.68,2.01 -0.163,3.658 -0.568,5.77 -0.342,1.785 -0.742,3.812 -1.164,5.568 -0.463,1.93 -1.435,3.647 0.397,4.966 4.276,1.054 8.552,2.108 13.913,3.017 5.36,0.909 11.804,1.672 18.03,2.048 6.226,0.375 12.232,0.363 21.568,0.476 9.335,0.112 21.999,0.351 32.523,0.382 10.525,0.032 18.909,-0.144 26.242,-0.419 7.333,-0.275 13.615,-0.65 19.058,-1.151 5.443,-0.501 10.048,-1.126 13.829,-1.873 3.78,-0.746 6.736,-1.613 9.693,-2.48 1.832,-1.319 0.86,-3.036 0.397,-4.966 -0.422,-1.756 -0.822,-3.783 -1.164,-5.568 -0.405,-2.112 0.112,-3.76 -0.568,-5.77 -0.641,-1.894 -1.21,-9.519 -1.468,-11.951 -0.577,-5.445 -1.788,-11.982 -2.754,-17.389 -2.01,-10.944 -2.587,-25.545 -3.267,-37.02 -0.265,-4.477 -0.268,-8.642 -0.319,-13.111 -0.024,-2.163 -0.189,-4.286 -0.196,-6.512 -0.008,-2.123 0.154,-4.068 0.186,-6.13 0.066,-4.245 -0.122,-8.98 0.274,-13.179l0.653 -12.776c0.135,-4.15 0.661,-8.282 1.009,-12.419 0.686,-8.161 1.777,-16.231 2.512,-24.347 0.461,-5.079 1.889,-19.043 3.568,-23.29z"/>
    <g>
    </g>
   </g>
   <g clip-path="url(#id3)">
   </g>
   <g clip-path="url(#id4)">
    <path id="manga" fill="none" d="M42.488 97.035c0.028,-0.502 0.055,-1.004 0.138,-1.574 0.082,-0.57 0.22,-1.208 0.192,-1.818 -0.028,-0.611 -0.223,-1.192 -1.026,-4.321 -0.804,-3.128 -2.217,-8.803 -3.374,-15.175 -1.157,-6.373 -2.058,-13.443 -3.034,-19.705 -0.976,-6.264 -2.027,-11.72 -2.815,-15.624 -0.789,-3.904 -1.314,-6.257 -1.752,-8.597 -0.135,-0.722 -0.262,-1.444 -0.383,-2.165 -0.909,0.583 -1.664,1.379 -2.651,2.001 -11.263,7.099 -18.243,27.467 -21.401,39.215 -1.569,5.839 -1.98,12.983 -2.969,19.04 -0.5,3.067 -1.172,6.193 -1.752,9.253 -0.585,3.095 -0.872,6.493 -1.288,9.631 -0.406,0.268 -0.327,-0.023 -0.308,0.899l-0.065 1.854 0 8.783c0.041,1.018 0.102,1.813 0.186,2.164 1.125,0.477 3.706,0.514 5.07,0.712 7.662,1.114 9.041,0.828 15.791,1.554l21.547 1.349c-0.015,-1.623 0.547,-10.725 0.578,-13.424l-0.603 -0.316 0 0 -0.07 -0.036c0,-4.476 -0.011,-9.226 -0.011,-13.7zm152.698 13.793l0 0 -0.416 0.247c-0.004,0.882 0.338,12.091 0.604,13.423l21.579 -1.336c6.75,-0.726 8.129,-0.44 15.791,-1.554 1.364,-0.198 3.945,-0.235 5.07,-0.712 0.084,-0.351 0.145,-1.146 0.186,-2.164l0 -8.783 -0.065 -1.854c0.014,-0.687 0.062,-0.7 -0.083,-0.774 -0.05,-0.025 -0.122,-0.057 -0.225,-0.125 -0.416,-3.138 -0.703,-6.536 -1.288,-9.631 -0.58,-3.06 -1.252,-6.186 -1.752,-9.253 -0.989,-6.057 -1.4,-13.201 -2.969,-19.04 -3.158,-11.748 -10.138,-32.116 -21.401,-39.215 -1.057,-0.665 -1.895,-1.576 -2.919,-2.163 -0.004,0.804 -0.013,1.568 -0.034,2.242 -0.037,1.214 -0.113,2.14 -0.663,4.067 -0.551,1.927 -1.577,4.856 -2.541,9.31 -0.963,4.455 -1.864,10.437 -2.652,16.318 -0.789,5.882 -1.465,11.663 -2.278,15.986 -0.813,4.324 -1.764,7.189 -2.565,9.742 -0.8,2.553 -1.451,4.792 -1.681,6.311 -0.23,1.519 -0.038,2.317 0.099,3.18 0.138,0.862 0.223,1.79 0.308,2.718 0,4.474 -0.105,8.584 -0.105,13.06zm-194.813 -3.632c0.744,0.196 1.489,0.392 4.426,0.672 2.938,0.279 8.068,0.642 13.143,1.005 5.074,0.363 10.092,0.726 13.996,1.045 3.905,0.319 6.695,0.595 8.372,0.73l0.055 0.004 0.053 0.004 0.053 0.004 0.052 0.004 0.051 0.004 0.051 0.004 0.05 0.004 0.048 0.004 0.001 0 0.048 0.003 0.048 0.004 0.046 0.003 0.047 0.003 0.045 0.004 0.045 0.003 0.044 0.003 0.044 0.003 0.042 0.003 0.043 0.003 0.041 0.002 0.041 0.003 0 0 0.041 0.002 0.039 0.003 0.039 0.002 0.001 0 0.038 0.003 0.038 0.002 0.037 0.002 0 0 0.037 0.002 0.036 0.002 0.036 0.002 0 0 0.035 0.002 0 0 0.035 0.002 0 0 0.034 0.002 0 0 0.033 0.002 0.033 0.001 0.001 0 0.032 0.002 0.032 0.002 0 0 0.031 0.001 0.001 0 0.031 0.001 0 0 0.03 0.002 0.001 0 0.029 0.001 0.001 0 0.029 0.001 0 0 0.029 0.002 0.001 0 0.028 0 0.001 0 0.028 0.002 0.028 0.001 0 0 0.028 0 0 0 0.027 0.001 0 0 0.027 0.001 0.026 0.001 0.001 0 0.025 0.001 0.001 0 0.025 0.001 0 0 0.025 0 0.001 0 0.025 0.001 0 0 0.024 0 0.001 0 0.024 0.001 0 0 0.024 0.001 0 0 0.023 0 0.001 0 0.023 0 0 0 0.023 0.001 0.001 0 0.022 0 0.001 0 0.022 0.001 0 0 0.022 0 0 0 0.022 0 0.001 0 0.021 0 0 0 -42.196 -3.575z"/>
   </g>
  </g>
  <path fill="none" d="M207.298 27.894c-0.11,-0.063 -0.222,-0.122 -0.337,-0.177 -4.975,-2.38 -9.714,-5.334 -14.858,-7.149 -4.647,-1.639 -11.454,-2.699 -17.288,-4.719 -2.277,-0.789 -4.556,-1.589 -6.82,-2.415l-0.004 -0.03 -9.999 -4.08 -0.175 -0.072c-0.614,-0.28 -1.553,-1.207 -2.512,-1.889 -0.494,-0.369 -0.613,-0.563 -1.038,-0.905 -2.856,-2.299 -5.606,-5.635 -9.574,-5.641 -0.901,-0.002 -1.04,-0.123 -1.779,-0.163l-7.601 -0.17c-5.892,-0.486 -12.055,-0.501 -18.06,-0.477 -5.087,0.02 -9.557,0.063 -14.567,0.477 -2.529,0.209 -4.996,0.029 -7.6,0.17 -0.739,0.04 -0.878,0.161 -1.779,0.163 -3.968,0.006 -6.718,3.342 -9.575,5.641 -0.424,0.342 -0.543,0.536 -1.037,0.905 -0.741,0.527 -1.471,1.2 -2.047,1.608 -0.17,0.121 -0.326,0.218 -0.465,0.281l-10.174 4.152 -0.003 0.03c-2.265,0.826 -4.544,1.626 -6.821,2.415 -5.834,2.02 -12.641,3.08 -17.288,4.719 -5.144,1.815 -9.883,4.769 -14.858,7.149 -0.212,0.101 -0.412,0.215 -0.605,0.339 -0.909,0.583 -1.664,1.379 -2.651,2.001 -11.263,7.099 -18.243,27.467 -21.401,39.215 -1.569,5.839 -1.98,12.983 -2.969,19.04 -0.5,3.067 -1.172,6.193 -1.752,9.253 -0.585,3.095 -0.872,6.493 -1.288,9.631 -0.406,0.268 -0.327,-0.023 -0.308,0.899l-0.065 1.854 0 8.783c0.041,1.018 0.102,1.813 0.186,2.164 1.125,0.477 3.706,0.514 5.07,0.712 7.662,1.114 9.041,0.828 15.791,1.554l21.547 1.349c-0.015,-1.623 0.547,-10.725 0.578,-13.424l-0.603 -0.316 -0.07 -0.036c0,-4.476 -0.011,-9.226 -0.011,-13.7 1.678,4.247 3.328,18.944 3.789,24.023 0.735,8.116 1.826,16.186 2.512,24.347 0.348,4.137 0.874,8.269 1.009,12.419l0.653 12.776c0.396,4.199 0.208,8.934 0.274,13.179 0.032,2.062 0.194,4.007 0.186,6.13 -0.007,2.226 -0.172,4.349 -0.196,6.512 -0.051,4.469 -0.054,8.634 -0.319,13.111 -0.68,11.475 -1.257,26.076 -3.267,37.02 -0.966,5.407 -2.177,11.944 -2.754,17.389 -0.258,2.432 -0.827,10.057 -1.468,11.951 -0.68,2.01 -0.163,3.658 -0.568,5.77 -0.342,1.785 -0.742,3.812 -1.164,5.568 -0.463,1.93 -1.435,3.647 0.397,4.966 4.276,1.054 8.552,2.108 13.913,3.017 5.36,0.909 11.804,1.672 18.03,2.048 6.226,0.375 12.232,0.363 21.568,0.476 9.335,0.112 21.999,0.351 32.523,0.382 10.525,0.032 18.909,-0.144 26.242,-0.419 7.333,-0.275 13.615,-0.65 19.058,-1.151 5.443,-0.501 10.048,-1.126 13.829,-1.873 3.78,-0.746 6.736,-1.613 9.693,-2.48 1.832,-1.319 0.86,-3.036 0.397,-4.966 -0.422,-1.756 -0.822,-3.783 -1.164,-5.568 -0.405,-2.112 0.112,-3.76 -0.568,-5.77 -0.641,-1.894 -1.21,-9.519 -1.468,-11.951 -0.577,-5.445 -1.788,-11.982 -2.754,-17.389 -2.01,-10.944 -2.587,-25.545 -3.267,-37.02 -0.265,-4.477 -0.268,-8.642 -0.319,-13.111 -0.024,-2.163 -0.189,-4.286 -0.196,-6.512 -0.008,-2.123 0.154,-4.068 0.186,-6.13 0.066,-4.245 -0.122,-8.98 0.274,-13.179l0.653 -12.776c0.135,-4.15 0.661,-8.282 1.009,-12.419 0.686,-8.161 1.777,-16.231 2.512,-24.347 0.461,-5.079 1.889,-19.043 3.568,-23.29 0,4.474 -0.105,8.584 -0.105,13.06l0 0 -0.416 0.247c-0.004,0.882 0.338,12.091 0.604,13.423l21.579 -1.336c6.75,-0.726 8.129,-0.44 15.791,-1.554 1.364,-0.198 3.945,-0.235 5.07,-0.712 0.084,-0.351 0.145,-1.146 0.186,-2.164l0 -8.783 -0.065 -1.854c0.014,-0.687 0.062,-0.7 -0.083,-0.774 -0.05,-0.025 -0.122,-0.057 -0.225,-0.125 -0.416,-3.138 -0.703,-6.536 -1.288,-9.631 -0.58,-3.06 -1.252,-6.186 -1.752,-9.253 -0.989,-6.057 -1.4,-13.201 -2.969,-19.04 -3.158,-11.748 -10.138,-32.116 -21.401,-39.215 -1.057,-0.665 -1.895,-1.576 -2.919,-2.163z"/>
 </g>
</svg>
