<?xml version="1.0" encoding="UTF-8"?>
<!DOCTYPE svg PUBLIC "-//W3C//DTD SVG 1.1//EN" "http://www.w3.org/Graphics/SVG/1.1/DTD/svg11.dtd">
<!-- Creator: CorelDRAW -->
<svg xmlns="http://www.w3.org/2000/svg" xml:space="preserve" width="181px" height="149px" version="1.1" shape-rendering="geometricPrecision" text-rendering="geometricPrecision" image-rendering="optimizeQuality" fill-rule="evenodd" clip-rule="evenodd"
viewBox="0 0 205.498 169.387"
 xmlns:xlink="http://www.w3.org/1999/xlink"
 xmlns:xodm="http://www.corel.com/coreldraw/odm/2003">
 <defs>
   <clipPath id="id0">
    <path d="M91.234 163.341c0.06,-0.29 0.117,-0.718 0.209,-2.252 0.091,-1.534 0.216,-4.174 0.518,-9.369 0.303,-5.195 0.782,-12.944 1.164,-18.604 0.382,-5.659 0.667,-9.229 1.038,-13.175 0.37,-3.946 0.826,-8.268 1.397,-12.773 0.57,-4.505 1.254,-9.192 2.132,-14.518 0.879,-5.326 1.95,-11.291 2.766,-15.197 0.815,-3.906 1.374,-5.753 1.733,-6.921 0.358,-1.167 0.516,-1.655 0.64,-1.921 0.123,-0.267 0.212,-0.313 0.296,-0.305 0.084,0.008 0.164,0.069 0.266,0.183 0.103,0.113 0.228,0.278 0.391,0.627 0.163,0.349 0.362,0.88 0.684,1.602 0.321,0.721 0.764,1.632 1.146,2.525 0.381,0.893 0.7,1.768 0.836,2.443 0.135,0.674 0.087,1.147 0.127,1.679 0.04,0.532 0.168,1.122 0.504,1.619 0.337,0.498 0.881,0.903 1.195,1.44 0.314,0.538 0.396,1.208 0.602,2.158 0.205,0.951 0.533,2.183 0.646,3.113 0.112,0.929 0.009,1.556 -0.098,2.148 -0.106,0.591 -0.218,1.148 -0.101,1.705 0.117,0.557 0.462,1.116 0.865,1.635 0.404,0.519 0.866,0.998 1.149,1.313 0.284,0.315 0.39,0.466 0.491,0.609 0.101,0.142 0.198,0.276 0.351,0.879 0.152,0.603 0.36,1.675 0.439,2.419 0.078,0.745 0.027,1.161 -0.003,1.576 -0.03,0.415 -0.039,0.828 -0.073,1.354 -0.034,0.526 -0.094,1.165 -0.085,1.751 0.008,0.586 0.085,1.119 0.46,1.91 0.375,0.791 1.048,1.84 1.685,2.689 0.637,0.848 1.239,1.495 1.643,1.902 0.404,0.407 0.611,0.574 0.797,0.87 0.186,0.296 0.351,0.72 0.488,1.263 0.137,0.544 0.246,1.205 0.304,1.972 0.058,0.767 0.067,1.64 0.054,2.608 -0.013,0.968 -0.047,2.031 0.15,2.999 0.197,0.968 0.624,1.84 1.101,2.577 0.476,0.738 1,1.339 1.389,1.826 0.39,0.488 0.644,0.862 0.856,1.23 0.213,0.367 0.384,0.729 0.555,1.154 0.171,0.425 0.342,0.913 0.472,1.479 0.13,0.566 0.218,1.21 0.339,1.795 0.121,0.584 0.275,1.108 0.375,1.699 0.1,0.59 0.145,1.246 0.32,2.204 0.174,0.958 0.476,2.218 0.678,3.273 0.203,1.055 0.305,1.904 0.416,2.657 0.112,0.753 0.231,1.409 0.325,2.284 0.094,0.875 0.163,1.97 0.294,2.774 0.131,0.804 0.325,1.317 0.465,2.09 0.14,0.772 0.225,1.805 0.299,2.412 0.074,0.607 0.137,0.79 0.288,0.952 0.104,0.112 0.251,0.215 0.437,0.32 -0.079,-0.368 -0.154,-0.732 -0.127,-0.999 0.028,-0.278 0.168,-0.45 0.332,-0.556 0.164,-0.105 0.352,-0.145 0.75,-0.063 0.398,0.082 1.007,0.284 1.729,0.399 0.723,0.115 1.56,0.144 2.868,0.151 1.309,0.007 3.089,-0.007 5.568,-0.327 2.479,-0.319 5.657,-0.943 8.788,-1.599 3.132,-0.656 6.217,-1.344 9.657,-2.107 3.44,-0.762 7.234,-1.599 10.248,-2.124 3.014,-0.525 5.249,-0.737 8.16,-0.854 2.912,-0.118 6.502,-0.139 10.137,0.024 3.635,0.163 7.316,0.511 9.976,0.862 2.66,0.351 4.298,0.706 5.688,1.227 1.391,0.522 2.533,1.21 3.226,1.734 0.693,0.524 0.938,0.884 1.054,1.193 0.116,0.309 0.104,0.568 -0.007,0.887 -0.11,0.319 -0.318,0.698 -0.526,1.077 0.192,-0.063 0.354,-0.202 0.566,-0.399 0.232,-0.218 0.523,-0.509 0.64,-0.957 0.116,-0.447 0.059,-1.052 0.065,-2.577 0.006,-1.525 0.074,-3.972 0.052,-6.694 -0.023,-2.724 -0.137,-5.723 -0.194,-7.553 -0.057,-1.831 -0.057,-2.492 -0.057,-3.427 0,-0.936 0,-2.144 -0.029,-3.276 -0.028,-1.132 -0.085,-2.187 -0.111,-3.279 -0.025,-1.092 -0.02,-2.221 -0.091,-4.009 -0.072,-1.787 -0.22,-4.234 -0.3,-6.212 -0.079,-1.979 -0.091,-3.49 -0.231,-7.51 -0.139,-4.02 -0.407,-10.55 -0.929,-16.996 -0.522,-6.446 -1.297,-12.81 -2.278,-18.854 -0.981,-6.045 -2.167,-11.77 -3.341,-17.21 -1.175,-5.44 -2.338,-10.594 -3.867,-15.864 -1.528,-5.268 -3.421,-10.651 -5.246,-15.498 -1.824,-4.847 -3.581,-9.158 -4.618,-11.657 -1.038,-2.499 -1.357,-3.186 -1.494,-3.631 -0.137,-0.445 -0.092,-0.647 0.009,-0.803 0.102,-0.155 0.258,-0.263 0.386,-0.349 0.014,-0.01 0.028,-0.019 0.041,-0.029 -0.042,-0.002 -0.088,-0.005 -0.144,-0.008 -0.105,-0.005 -0.243,-0.013 -0.693,-0.048 -0.449,-0.035 -1.21,-0.098 -2.217,-0.107 -1.008,-0.008 -2.262,0.038 -3.577,0.132 -1.316,0.095 -2.692,0.24 -4.839,0.609 -2.148,0.368 -5.068,0.962 -7.478,1.498 -2.41,0.535 -4.311,1.014 -6.805,1.509 -2.494,0.494 -5.581,1.003 -8.679,1.418 -3.098,0.414 -6.208,0.733 -9.971,1.076 -3.764,0.341 -8.181,0.707 -11.872,0.965 -3.692,0.259 -6.657,0.41 -9.367,0.559 -2.711,0.148 -5.167,0.292 -7.957,0.403 -2.79,0.11 -5.915,0.186 -9.017,0.251 -3.102,0.064 -6.181,0.117 -9.116,0.11 -2.935,-0.008 -5.725,-0.076 -8.341,-0.137 -2.615,-0.061 -5.056,-0.114 -7.698,-0.194 -2.642,-0.08 -5.486,-0.186 -8.975,-0.285 -3.49,-0.099 -7.626,-0.19 -12.01,-0.217 -4.383,-0.026 -9.013,0.012 -12.845,0.008 -3.832,-0.004 -6.865,-0.049 -10.876,-0.205 -4.011,-0.156 -8.998,-0.422 -12.585,-0.69 -3.587,-0.268 -5.773,-0.538 -7.362,-0.856 -1.59,-0.318 -2.583,-0.683 -3.577,-1.049 0.044,0.064 0.021,0.188 -0.027,0.625 -0.062,0.551 -0.164,1.597 -0.449,3.521 -0.286,1.925 -0.753,4.728 -1.058,6.779 -0.305,2.052 -0.448,3.352 -0.79,5.493 -0.342,2.141 -0.884,5.124 -1.32,7.752 -0.436,2.629 -0.767,4.904 -1.029,6.823 -0.263,1.919 -0.457,3.481 -0.636,5.294 -0.18,1.814 -0.345,3.878 -0.525,6.376 -0.18,2.497 -0.373,5.428 -0.567,8.701 -0.194,3.273 -0.388,6.888 -0.53,10.743 -0.143,3.855 -0.234,7.949 -0.206,12.14 0.029,4.192 0.177,8.48 0.468,12.648 0.291,4.169 0.724,8.217 1.009,11.855 0.285,3.638 0.422,6.865 0.485,10.435 0.063,3.57 0.051,7.481 0.091,11.969 0.04,4.488 0.131,9.552 0.223,13.777 0.091,4.225 0.182,7.612 0.266,9.945 0.084,2.332 0.162,3.609 0.193,4.373 0.031,0.764 0.017,1.015 0.027,2.23 0.01,1.214 0.044,3.393 0.078,4.946 0.035,1.554 0.069,2.484 0.137,3.037 0.068,0.553 0.171,0.73 0.482,1.055 0.311,0.325 0.83,0.798 2.632,1.177 1.802,0.38 4.886,0.665 7.829,0.918 2.942,0.254 5.742,0.476 10.492,0.73 4.75,0.254 11.451,0.539 16.4,0.753 4.95,0.214 8.149,0.356 10.954,0.382 2.806,0.026 5.218,-0.066 7.656,-0.143 2.438,-0.077 4.901,-0.139 7.25,-0.216 2.35,-0.077 4.585,-0.168 7.735,-0.565 3.151,-0.396 7.217,-1.098 9.757,-1.616 2.54,-0.519 3.556,-0.856 4.448,-1.309 0.892,-0.453 1.662,-1.024 2.078,-1.386 0.417,-0.362 0.479,-0.516 0.539,-0.807z"/>
   </clipPath>
 </defs>
 <g id="VETORES">
  <metadata id="CorelCorpID_0Corel-Layer"/>
  <g>
  </g>
  <g clip-path="url(#id0)">
   <g id="_1760738331312">
    <path id="_1" fill="#ECD407" fill-rule="nonzero" d="M13.173 28.988c-0.068,0.896 0.193,1.475 0.896,2.19 -0.219,-0.973 -0.143,-2.066 -0.908,-2.19l0.012 0zm2.86 -10.133l0 -0.102c0,0 -0.069,0.068 -0.069,0.068 0,0 0.023,0.011 0.069,0.034zm-6.525 45.355c0,0 0.033,-0.034 0.068,-0.034 -0.159,-0.227 -0.193,-0.227 -0.068,0.034zm4.686 -41.95c0.125,0.033 0.261,0.068 0.42,0.102 -0.159,-0.159 -0.193,-0.159 -0.42,-0.102zm-2.179 36.957c0,0 0,0.011 0,0.034l0 -0.034zm0.228 -5.208c-0.262,-0.193 -0.545,-0.488 -1.09,-0.295 0.772,1.032 1.668,1.77 2.349,2.802 -0.125,-0.805 -0.806,-2.156 -1.259,-2.507zm-0.262 5.174c0,0 0,0.023 0.034,0.034 0,-0.023 0,-0.034 -0.034,-0.034zm2.054 -36.47l-0.034 0.034 0.034 0 0 -0.034zm0.068 8.715l0 -0.227c0,0 -0.034,0 -0.034,-0.034 0,0.125 0.034,0.193 0.034,0.262l0 -0.001zm-2.666 13.288c0,0 0.068,0.068 0.102,0.102 0.124,-0.159 0.124,-0.227 -0.102,-0.102zm-0.908 62.239l0.317 0.125c-0.193,0.034 0.193,-0.703 -0.317,-0.125zm1.543 48.6l0 0.034c0,0 0,-0.034 0,-0.034zm-1.668 -89.03c0,0 0,-0.034 0.034,-0.034 0,0.068 -0.193,-0.159 -0.034,0.034zm-0.965 72.849l0.193 0c-0.124,-0.125 -0.068,-0.034 -0.193,0zm2.44 -93.955c0.102,0.159 0.193,0.318 0.295,0.488 0.034,-0.352 -0.068,-0.511 -0.295,-0.488zm1.35 -6.854c0.032,-0.116 0.059,-0.469 -0.351,-0.17 0.068,0.068 0.158,0.159 0.227,0.295 0.033,-0.034 0.102,-0.068 0.124,-0.125zm-1.157 117.024c-0.568,0.567 0.041,0.66 0.193,0.454 0.227,-0.227 -0.068,-0.318 -0.193,-0.454zm-4.437 -49.213c0.068,0.068 0.125,0.125 0.193,0.159 -0.068,-0.102 -0.125,-0.261 -0.227,-0.352 0,0.068 0,0.159 0.034,0.193zm2.122 -32.998l0.034 0c0.034,-0.317 0,-0.317 -0.033,0l-0.001 0zm0.034 0.25c0,0 0.069,0.034 0.069,0.034 0.102,-0.159 0.034,-0.227 -0.069,-0.295 0,0.102 0.034,0.193 0,0.261zm-0.454 -1.861c0.068,0.352 0.261,0.579 0.647,0.738 0,-0.511 -0.261,-0.681 -0.647,-0.738zm-0.987 18.042c0.056,-0.316 -0.419,-0.679 -0.443,-0.363 -0.034,0.458 0.443,0.468 0.443,0.352l0 0.011zm1.214 -18.972c0,0 -0.034,-0.068 -0.034,-0.102 -0.034,0.034 -0.068,0.034 -0.102,0.034l0.136 0.068zm0.034 58.631c0.159,0.125 0.318,0.295 0.511,0.42 -0.034,-0.318 -0.227,-0.454 -0.511,-0.42zm0.999 34.745c0.068,-0.42 -0.261,-0.681 -0.454,-0.965 0.618,-1.247 1.472,0.03 1.645,0.567 0.034,0.068 0.193,0.102 0.295,0.227 0.103,-0.261 0.193,-0.488 0.296,-0.738 -0.511,-0.453 -0.999,-0.93 -1.476,-1.384 0.42,-0.737 -0.488,-1.26 -1.226,-1.963 0.393,-0.275 1.788,-0.083 -0.612,-1.668 -0.296,-0.193 -0.125,-0.578 -0.262,-0.964 0.318,0.124 0.579,0.159 0.897,0.193 -0.125,-0.295 -0.318,-0.579 -0.488,-0.806 0.453,0 0.771,0.703 1.089,0.544 0.792,-0.379 -1.309,-1.13 -1.123,-1.872 0.711,0.432 1.535,0.743 1.101,-0.488 0,-0.125 0.102,-0.295 0.124,-0.227 0.545,0.227 0.965,0.931 1.646,0.874 -0.454,-1.067 -2.316,-1.668 -1.998,-2.825 0.613,0.26 1.033,1.259 1.703,1.123l-1.033 -1.249c-0.613,-1.157 -1.509,-1.997 -2.349,-2.962 -0.102,-0.124 -0.034,-0.261 -0.068,-0.351 0.51,0.318 0.93,0.998 1.577,0.703 -0.295,-0.454 -0.125,-0.738 -0.102,-1.191 0.102,-0.682 -0.703,-1.646 -0.896,-2.542 -0.176,-0.93 1.061,-0.088 0.964,-0.295 -0.125,-1.316 -2.383,-2.418 -2.508,-3.927 0,-0.068 0.262,-0.102 0.352,-0.068 0.511,0.318 0.613,1.316 1.316,1.123 -0.102,-0.317 -0.124,-0.681 -0.295,-1.066 2.335,1.589 2.669,3.54 3.995,3.54 -1.668,-1.645 -2.996,-3.631 -4.63,-5.435 -0.227,-0.227 -0.261,-0.806 -0.545,-1.226 0.511,0.227 0.999,1.157 1.544,0.771 -1.158,-1.332 0.469,-1.386 -1.385,-2.61 -0.425,-0.28 -0.409,-0.765 0.386,-0.646 -0.318,-0.125 -0.454,-0.579 -0.84,-0.704 0.352,-0.158 0.681,0.159 0.998,0.295 -0.119,-1.727 -3.245,-2.045 -3.245,-2.984 0.932,0.174 3.381,2.374 3.37,1.736 0.068,-0.999 -1.453,-1.123 -1.896,-1.929 -0.226,-0.42 0.545,-0.488 0.897,-0.318 0,0 2.37,1.474 2.031,0.488 -0.125,-0.42 -0.738,-0.511 -0.771,-1.067 1.645,0.682 2.802,2.281 3.926,3.824l0.195 0.003c-0.931,-3.041 -3.756,-4.301 -5.981,-6.172 0.613,-0.125 1.407,0.612 1.635,0.102 0.261,-0.647 -0.738,-1.033 -1.26,-1.351 0.578,-0.454 0.488,-1.282 1.032,-1.702 0.279,-0.245 -2.56,-1.75 -2.95,-2.258 0.102,0.068 0.227,0 0.295,-0.102 0.034,-0.579 -0.646,-0.738 -0.873,-1.192 1.282,-0.124 2.802,1.861 3.858,0.318 0.034,-0.068 0.454,-0.068 0.772,0.102 -0.704,-0.647 -1.283,-1.032 -1.703,-1.861 -0.453,-0.805 -1.475,-0.964 -2.031,-1.77 0.193,-0.193 0.772,0.227 0.545,-0.261 -0.102,-0.261 -0.579,-0.681 -0.227,-0.897 0.352,-0.226 0.874,0.069 1.089,0.454 0.295,-0.703 -0.351,-1.123 -0.125,-1.645 -0.805,0.295 -1.191,-0.771 -1.838,-1.089 0.593,-0.297 1.02,0.749 1.35,0.351 -1.093,-0.898 -0.417,-1.884 0.545,-0.737 0.553,0.659 -0.036,-0.961 0.159,-1.191 0.193,-0.228 0.681,0.351 0.703,-0.194 0.034,-0.578 -0.226,-1.066 -0.351,-1.611 0.821,0 -1.315,-2.552 -1.68,-2.927 1.053,0.207 2.257,2.334 2.826,1.645 0.324,-0.392 -0.733,-2.158 0.068,-1.668 0.681,0.42 0.874,1.35 1.668,1.611 -0.84,-0.964 -1.452,-3.154 -2.802,-2.507 0,0.351 0.261,0.51 0.453,0.805 -1.834,-0.127 -0.918,-4.2 -2.439,-5.764 0.858,0.276 1.598,1.297 2.087,1.929 0.098,-0.6 0.845,0.661 0.227,0.352 0.647,0.896 1.26,1.804 2.224,2.383 -1.191,-2.996 -3.983,-4.732 -4.119,-6.525 0.647,0.261 0.874,1.316 1.668,1.157 -0.839,-0.998 -1.089,-2.349 -1.475,-3.574 0.125,0.102 0.227,0.125 0.352,0.193 -0.193,-0.386 -0.318,-0.681 -0.454,-0.965 0.193,-0.124 0.352,-0.261 0.454,-0.317l1.384 0.737c0.511,0.511 0.999,1.067 1.645,1.418 -0.261,-0.771 -1.26,-1.702 -1.282,-1.77 -0.553,-1.482 -1.68,-1.982 -1.68,-2.962 0.613,0.296 0.874,0.897 1.419,1.124 0.261,-0.772 0.034,0.295 -0.386,-1.646l-0.931 -2.122c0.102,0.069 0.193,0.125 0.295,0.125 0,-0.034 -0.034,-0.068 -0.034,-0.158 0.51,0.761 2.117,0.967 1.055,-0.545 0.125,-0.227 0.227,-0.42 0.318,-0.511 -0.044,-0.436 -1.515,-1.723 -1.702,-2.451 0,0 0,-0.034 0.034,0 0.295,0.579 1.066,0.579 1.475,0.068 -0.511,-0.351 -1.157,-1.032 -1.191,-1.736 0.386,0.102 0.681,0.352 0.771,0 -0.193,-0.295 -0.386,-0.613 -0.578,-0.873 0.42,-0.488 0.806,-0.034 1.225,0 -0.386,-0.42 -0.737,-0.874 -1.032,-1.317 0.034,-0.068 0.068,-0.158 0.125,-0.158 -0.262,-0.42 -0.262,-0.454 -0.352,-0.874 0.406,-0.215 1.784,1.871 2.088,1.771 0.159,0.226 0.295,0.26 0.545,0.317l-1.737 -2.632c0.21,-0.633 -0.686,-1.298 -1.089,-1.668 1.158,0.386 1.123,1.475 2.803,1.997 0.125,0.034 0.227,0.125 0.42,0.261 -0.613,-1.77 -1.929,-2.666 -3.121,-3.665l0.159 -1.316c0.627,0.682 1.237,1.579 1.509,1.26 -0.295,-0.613 -1.032,-0.965 -1.123,-1.771 0.703,0.386 1.033,1.226 1.475,1.838 -0.159,-0.453 -0.42,-0.873 -0.703,-1.259 0.567,0.628 1.402,1.775 2.122,1.894 -0.678,-1.574 -2.411,-2.707 -3.155,-4.209 0.227,-0.193 0.227,-0.159 0.545,-0.295l-0.806 -1.419c1.688,1.362 1.957,2.331 2.633,1.873 -0.318,-0.647 -1.089,-0.806 -1.453,-1.544 0.034,-0.646 -0.193,-1.191 -0.703,-1.668 0.261,0.102 0.318,0.454 0.544,0.579 -0.068,-0.352 -0.226,-0.738 -0.317,-1.158 0.034,-0.033 0.068,-0.068 0.102,-0.102 -0.385,-0.19 -0.459,-1.59 0.193,-2.28 0.318,0.703 1.191,0.806 1.736,1.282 -0.454,-1.123 -0.965,-2.224 -1.351,-3.404 0.125,0.124 0.318,0.193 0.454,-0.034 -0.691,-1.277 -0.942,-1.572 -0.942,-2.769 1.056,0.887 1.041,1.444 1.452,1.033 -0.5,-0.776 -1.579,-1.54 -1.134,-2.02 0.576,-0.62 1.189,0.682 1.713,0.965 0.074,-0.569 0.383,-0.21 -0.42,-1.578 0.034,0 0.034,0.034 0.068,0.034 -0.124,-0.771 -1.032,-1.089 -1.418,-1.702 0.318,-0.102 0.579,0.295 0.738,0.159 0.295,0.261 0.102,0.125 0.578,0.261 -0.546,-1.141 -1.326,-1.422 -0.93,-1.702 0.227,-0.125 0.511,0.805 0.772,0.295 0.214,-0.467 -0.902,-1.018 -0.715,-1.509 0.227,0.261 0.613,0.488 0.93,0.317 -0.102,-0.158 -0.227,-0.295 -0.317,-0.386 0.261,0.125 0.488,0.318 0.703,0.511 0.66,-1.868 -0.17,-0.581 -1.509,-2.825 0.404,-0.404 2.084,1.807 2.768,1.929 -0.179,-1.343 -1.919,-2.099 -2.088,-2.576 0.454,-0.545 0.84,-0.102 1.26,-0.068 -0.42,-0.352 -0.806,-0.681 -1.453,-0.488 -0.167,-0.785 -0.147,-1.284 -0.874,-1.509 -0.034,-0.069 -0.034,-0.193 -0.102,-0.318 2.721,1.33 1.792,1.1 4.051,3.279 -0.034,-0.193 -0.034,-0.386 -0.102,-0.544 -0.125,-0.227 0.102,-0.454 0.034,-0.704 -1.506,-0.502 -0.78,-0.418 -1.418,-1.826 0.158,-0.193 0.317,-0.386 0.488,-0.613 -0.318,-0.159 -0.579,-0.318 -0.806,-0.454 0,-1.092 0.418,0.221 -1.26,-1.929 0.48,-0.479 0.827,0.278 1.385,0.579 0.193,-0.193 0.578,-0.193 0.612,-0.579 -1.452,-1.282 -2.893,-2.575 -4.312,-3.892 -0.351,-0.317 -0.227,-0.351 -0.193,-0.51 1.271,0.953 1.68,1.7 2.61,1.997 0.159,0.068 0.42,-0.159 0.352,-0.352 -0.309,-0.788 0.445,-0.326 0.068,-1.453 0.159,-0.068 0.318,-0.158 0.488,-0.226 0.193,0.226 0.159,0.771 0.738,0.488 -0.386,-0.681 -0.772,-1.351 -1.09,-1.93 0.318,-1.032 0.159,-0.646 0.647,-1.577 -0.318,-0.545 -0.613,-1.033 -0.965,-1.611 0.125,-0.125 0.296,-0.261 0.421,-0.386 0.068,-0.318 -0.511,-0.511 -0.103,-0.931 0.755,0.827 1.186,1.618 1.487,1.123 -0.42,-1.032 -0.579,-2.087 -0.295,-3.313 0.125,-0.511 -0.318,-1.123 -0.125,-1.645 0.511,-0.102 0.703,0.453 1.26,0.488l-0.648 -1.906c0.843,0.333 1.068,1.32 1.351,1.906 0.362,-0.726 -0.543,-0.671 0.033,-2.19 -0.001,-0.002 -1.953,-3.459 -0.93,-3.529 0.352,0.034 0.352,0.578 0.703,0.511 -0.124,-0.613 -0.261,-1.226 -0.419,-1.805 0.692,0 0.958,2.064 1.555,1.873 -1.842,-4.697 0.269,-0.958 -1.714,-5.594 -0.386,-0.931 -0.386,-0.579 -0.226,-1.033 0.51,0.295 0.488,0.896 0.896,1.226l0.261 -1.351c0.892,-1.629 -0.625,-1.941 -0.284,-2.86 0.193,0.159 0.386,0.318 0.703,0.647 -0.068,-0.544 -0.102,-0.93 -0.159,-1.35 0.996,0.647 1.087,0.875 1.387,0.578 0.71,0.869 0.883,2.549 1.52,2.928 -0.315,-0.89 -1.245,-4.081 -1.861,-4.664l0.193 1.362c-1.044,-0.963 0.345,-1.772 -0.091,-2.338 -1.031,-1.341 0.463,-1.412 -0.646,-2.735 -0.318,-0.318 -0.261,-0.703 -0.034,-1.089 0.086,0.335 0.712,1.572 1.124,1.089 -0.125,-0.318 -0.227,-0.703 -0.352,-1.067 0.227,-0.068 0.42,-0.124 0.647,-0.261l-0.455 -1.645c0.511,0.227 0.545,0.896 0.999,1.26 0.159,-0.613 -0.318,-0.999 -0.193,-1.51 0.125,-0.068 0.261,-0.068 0.42,-0.124 -0.193,-0.386 -0.352,-0.704 -0.545,-1.067 0.488,-0.703 -0.034,-1.157 -0.261,-1.702 0.227,-0.102 0.42,-0.193 0.579,-0.295 0.102,-0.772 -0.84,-0.738 -0.897,-1.453 0.488,-0.102 0.261,-0.578 0.42,-0.896 1.316,0.647 1.838,1.895 2.417,3.087 0.741,-0.519 -1.257,-3.228 -1.101,-3.995 0.159,-0.839 -0.703,-1.259 -0.544,-1.577 0.193,-0.386 -0.069,-0.647 -0.193,-0.931 0.068,-0.102 0.124,-0.193 0.193,-0.261l0 0.001c-3.697,-0.337 -5.792,-0.707 -8.556,-1.714 0.259,0.519 -4.341,28.26 -4.709,30.978 -1.952,14.417 -3.001,41.528 -1.986,55.897 0.605,8.566 1.356,13.675 1.521,22.285l0.59 35.665 0.295 11.552c0.097,4.463 -0.571,5.04 7.705,5.9 -0.034,-0.159 -0.091,-0.341 -0.057,-0.488 1.572,0.646 0.155,0.508 2.111,0.692 -0.568,-0.726 -1.01,-1.089 -1.044,-1.623 -0.062,-0.858 -0.957,-1.135 -0.965,-1.577zm-1.475 -7.625c0.068,0.068 0.102,0.192 -0.068,0.102 0.034,-0.034 0.034,-0.069 0.068,-0.102zm-3.382 -24.159c0.069,0.068 0.125,0.068 0.125,0.159 -0.068,0 -0.102,-0.068 -0.159,-0.068 0,-0.034 0.034,-0.102 0.034,-0.102l0 0.011zm2.315 -21.196c0.068,0.261 -0.102,0.295 -0.261,0.261 -0.159,-0.295 -0.295,-0.545 -0.511,-0.931 0.454,0.102 0.681,0.352 0.772,0.681l0 -0.011zm-1.032 -19.393c0.158,0.193 0.068,0.42 -0.034,0.647 0.377,-0.128 0.587,-0.243 0.715,0.227 -0.262,-0.102 -0.488,-0.159 -0.704,-0.227 -0.124,-0.261 -0.227,-0.51 -0.295,-0.738 0.159,-0.158 0.227,-0.033 0.318,0.103l0 -0.012zm3.381 -35.448c0.102,0 0.159,0.034 0.227,0.034 -0.068,0.124 -0.159,0.158 -0.227,0.226l0 -0.26zm-1.895 -3.699c0,0 0,0.102 0,0.158 -0.227,0 -0.125,0.034 -0.261,-0.193 0.125,0 0.193,0 0.261,0.034l0 0.001zm-0.647 1.769c1.252,1.03 1.17,0.344 1.964,1.453 -1.079,-0.249 -1.022,-0.54 -2.508,-1.555 0.295,-0.158 0.419,0.034 0.544,0.102zm4.017 -17.213c-0.295,-0.034 -0.42,-0.159 -0.454,-0.511 0.295,0.068 0.42,0.193 0.454,0.511zm0.125 -5.084c0,0 -0.034,0.103 -0.034,0.125 -0.034,-0.033 -0.068,-0.102 -0.102,-0.125l0.136 0zm2.632 -23.284c0.227,0.102 0.034,0.352 -0.033,0.42 -0.069,-0.125 -0.103,-0.227 -0.125,-0.295 0,0 0.125,-0.125 0.158,-0.125zm-0.487 -0.42c0,0 -0.034,0.068 -0.034,0.068l-0.103 0 0.137 -0.068zm-1.646 8.465c0.352,0.318 0.511,0.738 0.931,0.965 -0.634,0.249 -0.774,-0.173 -1.35,-1.226 0.227,-0.068 0.295,0.159 0.42,0.262l-0.001 -0.001zm-1.895 15.66c0,-0.069 -0.033,-0.125 -0.033,-0.193 0,0.068 0.033,0.124 0.068,0.193l-0.035 0zm-0.261 -6.718c0.42,0.419 0.704,0.839 1.123,1.384 -0.883,0 -0.159,0.16 -1.293,-1.191 0.068,-0.069 0.102,-0.102 0.159,-0.193l0.011 0zm-1.452 6.751c0,0 0.034,0.102 0.034,0.125 -0.069,0.034 -0.102,0.034 -0.193,0.068 0,-0.068 -0.034,-0.102 -0.034,-0.158 0.068,0 0.125,-0.068 0.193,-0.034l0 -0.001zm-0.296 16.794c0.103,-0.125 0.193,-0.034 0.454,0.193 -0.469,0.314 -0.455,-0.19 -0.454,-0.193l0 0zm-0.68 -0.545l0.193 0 0 0.159c-0.068,-0.034 -0.125,-0.034 -0.193,-0.068l0 -0.091zm-2.383 66.552c0,0 -0.034,0.578 -0.068,-0.034 0,0 0.023,0.011 0.068,0.034zm-0.261 6.627c-0.068,0 -0.159,-0.034 -0.159,-0.034 -0.034,-0.159 0.102,-0.102 0.227,-0.034 -0.034,0.034 -0.034,0.068 -0.068,0.068l0 0zm0.125 -2.383c-0.295,0 -0.318,0 -0.511,-0.295 0.261,-0.068 0.351,0.125 0.511,0.295zm-0.613 4.345c0.102,0.103 0.227,0.193 0.352,0.352 -0.175,-0.047 -0.528,-0.011 -0.352,-0.363l0 0.011zm-0.227 -22.614l0.102 0.102 0 0.068c0,0 -0.068,-0.102 -0.102,-0.125l0 -0.045zm-0.896 21.072c0.226,0.068 0.317,0.192 0.544,0.295 -0.295,0.226 -0.386,-0.125 -0.613,-0.193 0.034,-0.034 0.069,-0.069 0.069,-0.102zm0.295 1.928c0.352,0 0.681,0.159 0.93,0.545 -0.488,0.069 -0.578,-0.386 -0.93,-0.545zm2.507 10.588c0.102,0.159 0.159,0.295 0.227,0.454 -0.318,-0.069 -0.261,-0.262 -0.227,-0.454zm-0.193 -0.034c0,0 0.102,0.033 0.159,0.033 -0.125,0.069 -0.159,0.069 -0.261,0.069l0.102 -0.102zm-0.158 12.481c0.317,0.069 0.453,0.295 0.613,0.647 -0.352,-0.227 -0.579,-0.295 -0.613,-0.647zm1.316 8.942c-0.034,-0.318 0.034,-0.318 0.068,0l-0.068 0zm0.806 0.806l0.034 0c0,0.351 -0.034,0.068 -0.034,0zm-0.159 -4.891c0.033,-0.068 0.068,-0.125 0.102,-0.158 0.033,0.068 0.125,0.124 0.193,0.158 0,0.102 -0.034,0.193 -0.295,0zm1.123 12.709l0.034 -0.102c0,0 -0.011,0.034 -0.034,0.102zm0.704 0.738c-0.102,-0.125 -0.159,-0.227 -0.227,-0.318 0.383,-0.257 0.246,0.239 0.227,0.318zm-0.034 -3.382c0.068,-0.034 0.125,-0.068 0.193,-0.102 0.125,0.261 0.125,0.125 -0.068,0.295 -0.034,-0.102 -0.102,-0.159 -0.125,-0.193zm-0.114 -96.633c0,0 0.034,-0.124 0.034,-0.159l-0.159 0c0.034,0.069 0.102,0.125 0.125,0.159zm7.501 -58.121c0.158,-0.192 0.318,-0.419 0.488,-0.681 -0.046,-0.056 -0.091,-0.113 -0.137,-0.17 -0.283,-0.023 -0.567,-0.045 -0.828,-0.068 0.547,0.704 -0.076,0.601 0.477,0.908l0 0.011zm-9.271 82.858c0.068,0.386 0.42,0.806 0.874,0.874 -0.295,-0.352 -0.545,-0.681 -0.806,-1.033 -0.034,0.034 -0.068,0.102 -0.068,0.159l0 0zm0 29.786c0.159,-0.227 0.261,-0.317 -0.068,-0.102 0,0.068 0.034,0.102 0.068,0.102zm6.241 -96.144c0,0 0,-0.012 0,-0.023l0 0.023zm-5.526 87.94c0.235,0.454 0.514,0.689 0.839,0.704 -0.193,-0.386 -0.419,-0.681 -0.839,-0.704l0 0zm-0.545 -8.011c0,0 -0.102,0.034 -0.158,0.102 0.578,0.896 1.316,1.736 2.122,2.417 -0.178,-1.004 -1.957,-2.29 -1.964,-2.519zm1.544 -2.701c0.033,-0.124 0.033,-0.158 -0.193,-0.26l0.193 0.26zm-0.193 0.84c0.327,0.99 0.471,-0.101 0,0zm-0.806 -0.873c-0.034,-0.159 0.102,-0.545 -0.227,-0.227 0,0.068 0.069,0.159 0.102,0.261l0.125 -0.034zm187.494 2.382c0.102,-0.295 -0.227,-0.124 -0.262,-0.26 -0.124,0.193 0.193,0.453 0.262,0.26zm-0.704 -10.098c-0.034,-0.102 0,-0.227 -0.227,-0.035 0.034,0.035 0.068,0.069 0.068,0.125 0.068,0 0.125,-0.068 0.159,-0.102l0 0.012zm0.465 47.397c0.386,0.057 0.749,0.125 1.101,0.181 -0.511,-0.397 -0.976,-0.862 -2.009,-1.293 0.273,0.544 0.534,0.84 0.919,1.112l-0.011 0zm-1.248 -40.033c0.352,0.318 0.613,0.647 1.157,0.613 -0.646,-0.681 -0.737,-0.703 -1.157,-0.613zm-11.121 -69.354c-0.068,-0.068 -0.125,-0.125 -0.227,-0.125 0,0.034 0,0.068 -0.034,0.125 0.069,0.034 0.125,0.102 0.227,0.102 0,0 0.034,-0.125 0.034,-0.102zm4.437 22.07c0.125,0.068 0.261,0.159 0.352,0.227 -0.068,-0.227 -0.125,-0.454 -0.352,-0.227zm-4.437 -4.436c0.159,0.226 0.295,0.351 0.579,0.317 -0.159,-0.295 -0.318,-0.386 -0.579,-0.317zm5.98 20.038c0.227,0.228 0.454,0.352 0.682,0.488 0,0 0.102,-0.033 0.261,-0.124 -0.318,-0.227 -0.579,-0.42 -0.931,-0.352l-0.012 -0.012zm1.612 2.054c0,0 0.068,0.102 0.124,0.159 0.069,-0.034 0.159,-0.068 0.262,-0.068 -0.269,-0.416 -0.386,-0.151 -0.386,-0.091zm5.469 50.598c0,-0.318 -0.034,-0.545 -0.511,-0.545 0.261,0.318 0.386,0.42 0.511,0.545zm-2.609 -6.4c0.124,0.351 0.317,0.51 0.578,0.612 -0.068,-0.351 -0.193,-0.544 -0.578,-0.612zm0.192 -24.635c-0.102,-0.613 -0.488,-0.102 -0.193,0.193 0.102,-0.068 0.193,-0.159 0.193,-0.193zm1.895 34.927l0 0zm-1.441 -32.907c0.236,1.345 0.775,-0.471 0,0zm-1.135 13.095l-0.034 0c0,0 -0.159,0.261 0.034,0l0 0zm2.157 14.569c-0.296,-0.84 -0.454,-0.998 -0.931,-0.998 0.227,0.545 0.545,0.839 0.931,0.998zm-0.477 -23.421l-0.034 0.035c0.106,0.105 0.117,0.094 0.034,-0.035zm0.193 -1.123c0,0 -0.102,-0.124 -0.125,-0.158 -0.034,0.102 -0.068,0.124 -0.102,0.193l0.227 -0.035zm-5.277 -37.151c0,0.068 -0.034,0.103 -0.034,0.103 0.034,-0.069 0.068,0.295 0.034,-0.103zm-2.031 -8.17c-0.125,-0.261 -0.295,-0.158 -0.102,0.068 0.034,0.035 0.068,-0.068 0.102,-0.068zm-0.828 -4.051c-0.069,-0.033 -0.102,-0.033 -0.125,-0.068 -0.034,0.034 -0.034,0.102 -0.068,0.125 0.102,0.068 0.102,0 0.193,-0.068l0 0.011zm3.245 15.467c-0.068,0.068 0.102,-0.738 -0.193,0.158 0.102,0.034 0.125,0.034 0.227,0.034 0,-0.034 0,-0.102 -0.034,-0.193l0 0.001zm-2.928 -11.994l0 -0.068c-0.033,0.068 -0.033,0.158 0,0.193 0,-0.034 0.034,-0.069 0,-0.125zm10.031 77.195c-0.033,0.068 -0.033,0.102 -0.033,0.102 0.068,0.034 0.068,0 0.033,-0.102zm-12.697 -94.534c-0.352,-0.454 -0.681,-0.681 -0.965,-0.738 0.261,0.386 0.511,0.681 0.965,0.738zm13.855 83.629c-0.261,-0.488 -0.545,-0.681 -0.931,-0.931 0.262,0.682 0.295,0.704 0.931,0.931zm-2.338 -22.161l0 0.193c0.068,-0.193 0.034,-0.159 0,-0.193zm-2.927 -27.88c-0.295,-0.102 -0.579,-0.579 -0.84,-0.227 0.193,0.352 0.386,0.454 0.84,0.227zm-12.868 -40.056c0.033,0.102 0,0.068 0.102,0.102 0,-0.034 -0.034,-0.068 -0.034,-0.102l-0.068 0zm-0.806 -8.17l0 0zm1.418 25.475c0.371,-0.1 0.414,0.253 0.579,0.102 -0.462,-0.38 -0.458,-0.102 -0.579,-0.102zm-4.153 -42.325c0.102,0.034 0.159,0.068 0.261,0.159l0 -0.227c-0.193,-0.034 -0.226,-0.068 -0.261,0.068zm-5.31 1.645l0.227 0.023c-0.159,-0.159 -0.069,-0.125 -0.227,-0.034l0 0.011zm13.934 33.871c-0.068,-0.102 -0.034,-0.068 -0.125,-0.068 0.069,0.193 0.034,0.125 0.125,0.068zm2.701 0.636l0 0zm-8.976 -35.96c-0.158,0.034 -0.227,-0.068 -0.295,-0.261 -0.125,-0.034 -0.261,-0.034 -0.454,0 0.961,1.402 1.685,1.601 1.158,1.839 -0.488,-0.421 -1.09,-0.579 -1.736,-0.965 0.257,0.855 2.249,3.021 2.95,3.801 0.102,0.102 0.352,0.159 0.352,0.262 0.034,0.544 0.51,0.771 0.578,1.35 -2.203,-1.029 -3.652,-3.865 -4.062,-3.018 0.681,0.612 1.804,1.475 2.247,2.315 -0.102,0.125 -0.193,0.227 -0.295,0.42 0.49,0.596 0.952,0.503 1.055,1.52l-2.576 -2.349c0,0.545 0.613,0.703 0.387,1.158 -0.035,0.124 0.964,0.806 1.122,0.896 -0.322,0.999 1.326,1.813 2.577,3.733 0.261,0.42 0.544,0.897 0.896,0.806 -0.295,0.318 0.034,0.647 0.102,0.965 -0.82,0.391 -1.312,-0.893 -2.247,-1.294 -0.114,0.655 0.498,0.765 0.771,1.35 0.955,2.044 2.605,3.049 2.52,3.405 -0.735,-0.142 -2.057,-1.848 -2.156,-1.191l0.681 0.964 -1.328 -0.522c0.193,0.896 0.896,1.282 1.282,2.088 -0.261,-0.034 -0.386,-0.068 -0.647,-0.034l2.123 2.485c-0.641,0.369 -0.23,-0.089 -1.124,0.227 0.599,0.54 1.805,1.498 1.645,1.838 -0.539,-0.351 -1.789,-1.314 -1.714,-0.794 0.227,0.511 0.806,0.579 1.124,1.123 -0.818,0.217 -2.217,-1.811 -2.315,-0.998 0.51,0.544 1.123,0.964 1.667,1.509 -0.102,0.295 0.262,0.578 0.454,0.737l0 0.352c0.488,0.352 0.931,0.681 1.385,0.965 0.068,0.193 0.034,0.93 -0.295,0.839l-3.382 -2.383c-0.125,-0.158 -0.318,-0.351 -0.511,-0.033l3.257 2.609c0.158,0.352 0.386,0.545 0.737,0.545 0,0 0.034,0.102 0.068,0.227 -0.068,0.102 -0.158,0.193 -0.261,0.295 0.159,0.544 0.738,0.703 0.806,0.772 0.034,0.124 0.125,0.317 0.227,0.419 -1.73,-0.6 -4.255,-2.513 -5.243,-2.643 1.246,1.243 4.018,2.911 5.595,3.994 -0.318,-0.034 -0.647,-0.102 -0.931,-0.159 -0.826,-0.33 -2.442,-2.01 -2.542,-1.407 0.999,0.874 1.089,0.965 1.226,1.418 -0.964,-0.482 -1.361,-0.911 -1.419,-0.488l1.327 0.953c0.477,0.851 1.09,1.464 1.726,2.043 -0.035,-0.034 -0.103,0 -0.159,-0.034 0,0.1 -0.042,0.755 0.42,0.511 -0.034,-0.125 -0.103,-0.295 -0.159,-0.42l1.294 1.418c-1.476,-0.068 -2.508,-1.804 -3.858,-2.507 1.495,1.986 4.79,4.178 5.083,4.766 -0.102,-0.125 -0.227,-0.227 -0.386,-0.227 0,1.251 1.776,0.982 0.715,1.849 -0.703,-0.386 -1.384,-0.873 -2.088,-1.226 0.159,0.318 -0.124,0.454 -0.226,0.579 0.453,0.125 0.896,0.295 1.35,0.578 0.034,0.295 0,0.227 0.261,0.386 -0.613,-0.5 -0.954,-0.048 -0.227,0.738 0.295,0.42 0.579,0.704 0.84,1.123 -1.191,-0.805 -2.19,-2.031 -3.506,-2.44 0.351,0.999 1.452,1.158 2.156,2.281 -0.352,-0.102 -0.647,-0.158 -0.931,-0.386 0.261,0.42 0.578,0.738 0.874,1.033 -0.226,-0.113 -1.403,-0.794 -1.51,-0.477 0.409,0.63 2.877,1.794 3.087,2.122 0.034,0.159 0.068,0.318 0.102,0.454 -0.261,0.102 -0.545,-0.102 -0.84,-0.193 0.206,0.622 0.846,0.627 0.511,0.999 -0.159,0.227 -0.454,-0.193 -0.454,-0.102 -0.068,0.896 0.613,1.611 1.192,2.122 -0.511,0.261 -1.033,-0.034 -1.578,-0.102 0.647,0.84 1.736,1.123 2.054,2.383 -0.703,-0.488 -1.384,-1.033 -2.224,-1.033 0.511,0.579 1.089,1.033 1.645,1.509 -0.034,-0.034 -0.102,-0.034 -0.124,-0.034 0.488,0.874 1.191,1.385 1.577,2.156 -0.36,-0.152 -1.143,-1.069 -1.577,-0.748 0.386,0.612 1.067,0.964 1.475,1.543 0,0.068 0,0.124 0.034,0.158 -0.545,-0.158 -0.931,-0.998 -1.475,-0.737 0.159,0.295 0.647,0.544 0.454,0.964 -0.035,0.193 -0.262,-0.125 -0.488,-0.102 0.328,1.048 2.121,1.898 2.121,2.576 -1.582,-0.808 -3.377,-3.54 -4.595,-3.802 1.033,1.192 2.156,2.122 3.155,3.382 -0.296,0.193 -0.454,-0.261 -0.704,-0.352 0.511,1.283 1.509,1.929 2.349,2.826 -0.102,0.578 0.386,0.578 0.579,0.873 -0.159,0 -0.318,0.102 -0.545,0.034 0.034,0.068 0.034,0.159 0.102,0.261 -0.102,0.102 -0.125,0.159 -0.125,0.262 -0.998,-0.386 -1.838,-2.054 -3.12,-2.44 0.873,1.543 2.19,2.349 3.347,3.313 0,0.069 0.034,0.193 0.068,0.262 -0.034,0.033 -0.068,0.068 -0.125,0.124 -0.632,-0.467 -1.246,0.592 0.42,1.668 0.034,0.193 0.102,0.42 0.159,0.579 -0.193,-0.069 -0.352,-0.102 -0.545,0.068 0.262,0.193 0.488,0.544 0.681,0.874 -0.068,0.261 -0.033,0.295 0.227,0.612 0.034,0 0.068,-0.033 0.102,-0.033 0.068,0.124 0.103,0.26 0.159,0.351 -0.613,-0.193 -1.123,-1.26 -1.804,-0.703 -0.261,0.193 -0.159,0.771 0.068,0.896 1.26,0.998 2.088,2.474 3.279,3.665 0.227,0.159 0.511,0.159 0.703,0.454 -2.28,0 -4.43,-3.63 -6.377,-3.54l1.385 1.52c2.146,1.873 2.883,1.616 3.994,2.837 -1.612,-0.159 -3.053,-1.033 -4.437,-1.963 0.397,1.732 2.277,1.432 3.03,2.485 0.124,0.227 0.102,0.579 -0.102,0.647 -0.318,0.318 -0.511,-0.42 -0.874,-0.261 -0.42,0.227 0.125,0.579 0.193,0.896 -0.295,-0.102 -0.579,-0.261 -0.874,-0.261 0.772,1.226 2.156,1.123 2.962,2.315 0.068,0.068 -0.102,0.511 0.068,0.772 -0.261,-0.125 -0.544,-0.125 -0.874,-0.102 0.125,0.646 0.614,0.737 0.965,1.157 0.102,0.102 0.125,0.318 0.193,0.42 -1.033,0.158 -1.861,-0.806 -2.894,-0.703 0.897,0.511 1.771,1.225 2.735,1.543 -0.318,1.066 0.896,0.806 1.316,1.35 -0.474,0.474 -1.256,-0.495 -1.838,0 0.544,0.738 1.123,1.543 1.645,2.417 -0.318,0.068 -0.965,-0.386 -0.931,0.318 0.034,0.42 0.454,0.579 0.704,0.806 -0.806,0.647 -1.476,-0.352 -2.316,-0.386 -0.158,0 -0.351,0.102 -0.51,0.125 0.068,0.125 0.158,0.193 0.295,0.227 1.77,-0.125 2.542,2.053 3.438,3.54 -0.261,0.193 -0.578,-0.125 -0.84,0.068 -0.454,0.318 -1.066,0.772 -1.033,0.999 -0.068,2.28 1.703,3.574 2.633,5.344 -1.033,-0.068 -1.282,-1.77 -2.122,-1.929 0.295,0.772 0.84,1.26 1.067,1.997 -0.262,-0.193 -0.545,-0.295 -0.772,-0.488 0.386,1.703 1.804,2.383 2.667,3.574 0.295,0 0.578,0.193 0.771,0.545 -0.352,0.125 -0.703,-0.102 -0.771,-0.545 -0.511,0.613 0.454,0.84 0.419,1.385 -0.02,0.653 -0.961,-0.92 -1.509,-0.738 -0.887,0.296 1.135,1.844 0.352,2.859 0.228,0.318 0.296,0.84 0.262,1.283 -0.386,-0.125 -0.738,-0.488 -1.192,-0.318 0.738,1.577 2.122,2.224 3.246,3.245 -0.579,0.545 -1.158,-0.318 -1.737,-0.386 0.102,0.159 0.262,0.386 0.159,0.647 -0.386,1.158 -0.896,0.102 -1.452,0.318 0.419,0.738 1.316,1.226 1.225,2.383 -0.034,0.102 -0.544,0.454 -0.261,0.612 0.227,0.125 0.579,0.102 0.681,0.295 0.261,0.772 0.125,1.737 0.647,2.247 -0.227,-0.124 -0.511,-0.158 -0.738,-0.033 0.732,0.518 -0.07,1.922 0.42,2.292 -1.201,0.218 -2.075,-2.213 -3.541,-2.213 1.192,1.351 2.417,2.86 3.961,3.699 -0.227,0.386 -0.193,0.806 -0.159,1.124 -0.681,-0.034 -1.033,-0.806 -1.645,-1.067 -0.102,0 -0.227,0.034 -0.318,-0.034 0.034,0.511 0.681,0.545 0.578,0.931 -0.226,0.703 0.42,0.998 0.262,1.645 0.805,1.26 1.736,2.315 2.542,3.54 0.112,0.195 -1.189,-0.258 -0.318,0.613 0.544,0.545 1.418,1.123 1.316,1.997 -0.84,-0.578 -1.645,-1.963 -2.667,-1.77 0.511,0.839 1.192,1.384 0.999,2.576 -0.034,0.261 0.158,0.386 0.124,0.613 -0.158,1.316 -1.089,-0.296 -1.736,-0.42 0.296,1.066 1.703,1.702 1.351,2.995 -0.704,-0.261 -1.067,-1.032 -1.736,-1.418 0.445,1.415 1.904,1.876 2.292,3.03 -1.26,-0.454 -1.838,-1.963 -2.996,-2.735 -0.566,-0.171 0.54,0.958 0.545,0.965 -0.647,0.317 -0.681,0.351 -0.318,0.93 1.226,1.668 2.61,2.803 3.666,4.505 -1.067,0.227 -1.612,-0.964 -2.44,-1.316 -0.277,0.826 1.341,1.147 1.804,2.315 0.386,0.896 0.896,1.577 1.668,2.122 -0.068,0.102 -0.159,0.295 -0.193,0.42 0.488,0.454 0.931,0.874 1.475,1.384 -1.089,0.235 -1.84,-1.141 -3.767,-1.384 -0.806,-0.125 -1.509,-0.647 -2.281,-1.123 -0.712,0.352 0.938,0.91 1.101,1.804 0.193,1.067 1.578,1.157 1.929,2.383 -0.737,0.352 -1.35,-0.613 -1.929,-0.193l1.578 1.157c0.419,0.295 0.226,0.613 0.386,0.965 0.102,0.158 0.261,0.261 0.386,0.454 -0.874,-0.068 -1.419,-0.704 -2.088,-0.613 0.634,1.152 1.158,0.293 2.576,2.383 -0.331,0.513 -0.148,1.039 -0.42,1.123 -0.613,-0.034 -1.192,-0.544 -1.998,-0.647 0.805,1.032 1.8,0.698 2.145,1.725 0.005,0 5.044,1.814 4.324,3.835 -0.125,0.318 -0.318,0.682 -0.511,1.067 1.559,-0.67 1.26,-2.34 1.26,-3.926 0,-1.509 0.068,-3.961 0.068,-6.695l-0.42 -17.52 -0.386 -10.224c-0.603,-15.012 -0.705,-26.519 -3.438,-43.358 -1.596,-9.832 -4.528,-23.818 -7.206,-33.065 -2.553,-8.819 -6.711,-19.63 -9.839,-27.143 -1.852,-4.447 -1.927,-3.951 -1.055,-4.822l-3.686 -0.173c0.536,0.567 1.022,0.942 1.225,1.657 -1.325,-1.028 -1.704,-1.689 -2.541,-1.634l1.316 1.475 -0.045 -0.091zm12.642 68.958c0.158,-0.159 0.295,-0.069 0.419,0.193 -0.226,0.034 -0.351,0 -0.419,-0.193zm2.189 2.734c0,0 0.034,-0.068 0.068,-0.068 0,0.193 -0.033,0.102 -0.068,0.068zm0 -4.539c0,0 0.068,-0.124 0.125,-0.124 0.068,0.317 -0.102,0.124 -0.125,0.124zm5.016 55.647c0,-0.068 -0.125,-0.159 -0.159,-0.193 0.102,-0.102 0.227,-0.125 0.318,0.159 -0.068,0 -0.125,0.068 -0.159,0.034l0 0zm-1.453 0.84c-0.124,-0.227 -0.261,-0.318 -0.351,-0.454 0.295,-0.125 0.42,0.068 0.351,0.454zm6.503 15.466c0.124,0.034 0.261,0.034 0.351,0.068 0,0.068 -0.034,0.125 -0.034,0.227 -0.124,-0.068 -0.261,-0.125 -0.386,-0.193 0.034,-0.034 0.034,-0.068 0.069,-0.102zm-0.455 -1.577l0 0.068c0,0 -0.033,-0.034 -0.068,-0.068l0.068 0zm-0.771 -0.488c0.193,0.068 0.159,0.034 0.125,0.227l-0.125 -0.125 0 -0.102zm-1.543 -8.59c0,0 -0.034,0.102 -0.034,0.102 0,-0.034 -0.034,-0.102 0.034,-0.102zm-2.417 -27.528c-0.261,-0.034 -0.511,-0.125 -0.806,-0.454 0.42,0 0.647,0.193 0.806,0.454zm-0.772 1.838c0,0.386 -0.034,0.102 -0.034,0l0.034 0zm0.227 3.087c0.159,-0.103 0.261,-0.103 0.295,0.295 -0.125,-0.103 -0.227,-0.227 -0.295,-0.295zm-0.42 -1.805c0.579,-0.124 0.999,0.579 1.578,0.772 -0.806,-0.034 -1.067,-0.193 -1.578,-0.772zm-1.577 -16.953c0,0 -0.034,0.102 -0.069,0.227 -0.345,-0.122 -0.552,-1.146 0.057,-0.227l0.012 0zm-5.98 -40.01l0 0.068c0,0 -0.034,0 -0.102,-0.033l0.102 -0.035zm-1.282 -3.438c0,0 0,0.034 -0.035,0.034 -0.033,-0.034 -0.068,-0.068 -0.101,-0.068 0.068,-0.193 0.101,-0.034 0.124,0.033l0.012 0.001zm-3.314 -12.8c0.261,0.159 0.545,0.352 0.806,0.454 -0.295,-0.068 -0.545,-0.261 -0.806,-0.454zm-4.403 -27.982c0.318,0.318 0.261,0.261 0.261,0.42l-0.249 -0.42 -0.012 0zm-0.454 -0.318c0,0 0.034,0.034 0.034,0 0,0.034 -0.034,0.068 -0.034,0.068l0 -0.068zm-0.703 -0.771l0 0.102c0,0 -0.034,0 -0.034,0.034l-0.068 -0.068c0,0 0.068,-0.068 0.102,-0.068l0 0z"/>
   </g>
  </g>
  <path fill="none" d="M91.234 163.341c0.06,-0.29 0.117,-0.718 0.209,-2.252 0.091,-1.534 0.216,-4.174 0.518,-9.369 0.303,-5.195 0.782,-12.944 1.164,-18.604 0.382,-5.659 0.667,-9.229 1.038,-13.175 0.37,-3.946 0.826,-8.268 1.397,-12.773 0.57,-4.505 1.254,-9.192 2.132,-14.518 0.879,-5.326 1.95,-11.291 2.766,-15.197 0.815,-3.906 1.374,-5.753 1.733,-6.921 0.358,-1.167 0.516,-1.655 0.64,-1.921 0.123,-0.267 0.212,-0.313 0.296,-0.305 0.084,0.008 0.164,0.069 0.266,0.183 0.103,0.113 0.228,0.278 0.391,0.627 0.163,0.349 0.362,0.88 0.684,1.602 0.321,0.721 0.764,1.632 1.146,2.525 0.381,0.893 0.7,1.768 0.836,2.443 0.135,0.674 0.087,1.147 0.127,1.679 0.04,0.532 0.168,1.122 0.504,1.619 0.337,0.498 0.881,0.903 1.195,1.44 0.314,0.538 0.396,1.208 0.602,2.158 0.205,0.951 0.533,2.183 0.646,3.113 0.112,0.929 0.009,1.556 -0.098,2.148 -0.106,0.591 -0.218,1.148 -0.101,1.705 0.117,0.557 0.462,1.116 0.865,1.635 0.404,0.519 0.866,0.998 1.149,1.313 0.284,0.315 0.39,0.466 0.491,0.609 0.101,0.142 0.198,0.276 0.351,0.879 0.152,0.603 0.36,1.675 0.439,2.419 0.078,0.745 0.027,1.161 -0.003,1.576 -0.03,0.415 -0.039,0.828 -0.073,1.354 -0.034,0.526 -0.094,1.165 -0.085,1.751 0.008,0.586 0.085,1.119 0.46,1.91 0.375,0.791 1.048,1.84 1.685,2.689 0.637,0.848 1.239,1.495 1.643,1.902 0.404,0.407 0.611,0.574 0.797,0.87 0.186,0.296 0.351,0.72 0.488,1.263 0.137,0.544 0.246,1.205 0.304,1.972 0.058,0.767 0.067,1.64 0.054,2.608 -0.013,0.968 -0.047,2.031 0.15,2.999 0.197,0.968 0.624,1.84 1.101,2.577 0.476,0.738 1,1.339 1.389,1.826 0.39,0.488 0.644,0.862 0.856,1.23 0.213,0.367 0.384,0.729 0.555,1.154 0.171,0.425 0.342,0.913 0.472,1.479 0.13,0.566 0.218,1.21 0.339,1.795 0.121,0.584 0.275,1.108 0.375,1.699 0.1,0.59 0.145,1.246 0.32,2.204 0.174,0.958 0.476,2.218 0.678,3.273 0.203,1.055 0.305,1.904 0.416,2.657 0.112,0.753 0.231,1.409 0.325,2.284 0.094,0.875 0.163,1.97 0.294,2.774 0.131,0.804 0.325,1.317 0.465,2.09 0.14,0.772 0.225,1.805 0.299,2.412 0.074,0.607 0.137,0.79 0.288,0.952 0.104,0.112 0.251,0.215 0.437,0.32 -0.079,-0.368 -0.154,-0.732 -0.127,-0.999 0.028,-0.278 0.168,-0.45 0.332,-0.556 0.164,-0.105 0.352,-0.145 0.75,-0.063 0.398,0.082 1.007,0.284 1.729,0.399 0.723,0.115 1.56,0.144 2.868,0.151 1.309,0.007 3.089,-0.007 5.568,-0.327 2.479,-0.319 5.657,-0.943 8.788,-1.599 3.132,-0.656 6.217,-1.344 9.657,-2.107 3.44,-0.762 7.234,-1.599 10.248,-2.124 3.014,-0.525 5.249,-0.737 8.16,-0.854 2.912,-0.118 6.502,-0.139 10.137,0.024 3.635,0.163 7.316,0.511 9.976,0.862 2.66,0.351 4.298,0.706 5.688,1.227 1.391,0.522 2.533,1.21 3.226,1.734 0.693,0.524 0.938,0.884 1.054,1.193 0.116,0.309 0.104,0.568 -0.007,0.887 -0.11,0.319 -0.318,0.698 -0.526,1.077 0.192,-0.063 0.354,-0.202 0.566,-0.399 0.232,-0.218 0.523,-0.509 0.64,-0.957 0.116,-0.447 0.059,-1.052 0.065,-2.577 0.006,-1.525 0.074,-3.972 0.052,-6.694 -0.023,-2.724 -0.137,-5.723 -0.194,-7.553 -0.057,-1.831 -0.057,-2.492 -0.057,-3.427 0,-0.936 0,-2.144 -0.029,-3.276 -0.028,-1.132 -0.085,-2.187 -0.111,-3.279 -0.025,-1.092 -0.02,-2.221 -0.091,-4.009 -0.072,-1.787 -0.22,-4.234 -0.3,-6.212 -0.079,-1.979 -0.091,-3.49 -0.231,-7.51 -0.139,-4.02 -0.407,-10.55 -0.929,-16.996 -0.522,-6.446 -1.297,-12.81 -2.278,-18.854 -0.981,-6.045 -2.167,-11.77 -3.341,-17.21 -1.175,-5.44 -2.338,-10.594 -3.867,-15.864 -1.528,-5.268 -3.421,-10.651 -5.246,-15.498 -1.824,-4.847 -3.581,-9.158 -4.618,-11.657 -1.038,-2.499 -1.357,-3.186 -1.494,-3.631 -0.137,-0.445 -0.092,-0.647 0.009,-0.803 0.102,-0.155 0.258,-0.263 0.386,-0.349 0.014,-0.01 0.028,-0.019 0.041,-0.029 -0.042,-0.002 -0.088,-0.005 -0.144,-0.008 -0.105,-0.005 -0.243,-0.013 -0.693,-0.048 -0.449,-0.035 -1.21,-0.098 -2.217,-0.107 -1.008,-0.008 -2.262,0.038 -3.577,0.132 -1.316,0.095 -2.692,0.24 -4.839,0.609 -2.148,0.368 -5.068,0.962 -7.478,1.498 -2.41,0.535 -4.311,1.014 -6.805,1.509 -2.494,0.494 -5.581,1.003 -8.679,1.418 -3.098,0.414 -6.208,0.733 -9.971,1.076 -3.764,0.341 -8.181,0.707 -11.872,0.965 -3.692,0.259 -6.657,0.41 -9.367,0.559 -2.711,0.148 -5.167,0.292 -7.957,0.403 -2.79,0.11 -5.915,0.186 -9.017,0.251 -3.102,0.064 -6.181,0.117 -9.116,0.11 -2.935,-0.008 -5.725,-0.076 -8.341,-0.137 -2.615,-0.061 -5.056,-0.114 -7.698,-0.194 -2.642,-0.08 -5.486,-0.186 -8.975,-0.285 -3.49,-0.099 -7.626,-0.19 -12.01,-0.217 -4.383,-0.026 -9.013,0.012 -12.845,0.008 -3.832,-0.004 -6.865,-0.049 -10.876,-0.205 -4.011,-0.156 -8.998,-0.422 -12.585,-0.69 -3.587,-0.268 -5.773,-0.538 -7.362,-0.856 -1.59,-0.318 -2.583,-0.683 -3.577,-1.049 0.044,0.064 0.021,0.188 -0.027,0.625 -0.062,0.551 -0.164,1.597 -0.449,3.521 -0.286,1.925 -0.753,4.728 -1.058,6.779 -0.305,2.052 -0.448,3.352 -0.79,5.493 -0.342,2.141 -0.884,5.124 -1.32,7.752 -0.436,2.629 -0.767,4.904 -1.029,6.823 -0.263,1.919 -0.457,3.481 -0.636,5.294 -0.18,1.814 -0.345,3.878 -0.525,6.376 -0.18,2.497 -0.373,5.428 -0.567,8.701 -0.194,3.273 -0.388,6.888 -0.53,10.743 -0.143,3.855 -0.234,7.949 -0.206,12.14 0.029,4.192 0.177,8.48 0.468,12.648 0.291,4.169 0.724,8.217 1.009,11.855 0.285,3.638 0.422,6.865 0.485,10.435 0.063,3.57 0.051,7.481 0.091,11.969 0.04,4.488 0.131,9.552 0.223,13.777 0.091,4.225 0.182,7.612 0.266,9.945 0.084,2.332 0.162,3.609 0.193,4.373 0.031,0.764 0.017,1.015 0.027,2.23 0.01,1.214 0.044,3.393 0.078,4.946 0.035,1.554 0.069,2.484 0.137,3.037 0.068,0.553 0.171,0.73 0.482,1.055 0.311,0.325 0.83,0.798 2.632,1.177 1.802,0.38 4.886,0.665 7.829,0.918 2.942,0.254 5.742,0.476 10.492,0.73 4.75,0.254 11.451,0.539 16.4,0.753 4.95,0.214 8.149,0.356 10.954,0.382 2.806,0.026 5.218,-0.066 7.656,-0.143 2.438,-0.077 4.901,-0.139 7.25,-0.216 2.35,-0.077 4.585,-0.168 7.735,-0.565 3.151,-0.396 7.217,-1.098 9.757,-1.616 2.54,-0.519 3.556,-0.856 4.448,-1.309 0.892,-0.453 1.662,-1.024 2.078,-1.386 0.417,-0.362 0.479,-0.516 0.539,-0.807z"/>
 </g>
</svg>
