<?xml version="1.0" encoding="utf-8"?>
<!-- Generator: Adobe Illustrator 16.0.3, SVG Export Plug-In . SVG Version: 6.00 Build 0)  -->
<!DOCTYPE svg PUBLIC "-//W3C//DTD SVG 1.1//EN" "http://www.w3.org/Graphics/SVG/1.1/DTD/svg11.dtd">
<svg version="1.1"
	 id="Layer_1" image-rendering="optimizeQuality" text-rendering="geometricPrecision" shape-rendering="geometricPrecision" xmlns:xodm="http://www.corel.com/coreldraw/odm/2003"
	 xmlns="http://www.w3.org/2000/svg" xmlns:xlink="http://www.w3.org/1999/xlink" x="0px" y="0px" width="181px" height="149px"
	 viewBox="0 0 181 149" enable-background="new 0 0 181 149" xml:space="preserve">
<g id="Camada_x0020_1">
	<path id="d1" fill="#F00808" d="M82.615,109.243h-0.396v3.774h-0.543v1.225h-0.257v4.051h-0.051v-11.864h-0.543v6.589h-0.544v4.037
		v-0.772H80.25v4.298v-1.901h-0.292v-12.25h-0.542v6.589h-0.542v4.037v-0.772h-0.305v-0.048v3.809h-0.32v-2.255h-0.344v-0.093
		h-0.543v-1.506h-0.543v1.599h-0.506V115.6h-0.231v-5.396h-0.543v-7.321h-0.543v14.905h-0.091V115.6h-0.304v2.188h-0.543v1.526
		h-0.207v-6.085h-0.543v6.506h-0.117v-1.947h-0.542v3.454h-0.279v-7.492h-0.402v-5.715h-0.142v-1.606h-0.543v14.813h-0.308v-7.492
		h-0.532v-4.347h-0.554v7.372h-0.294v-0.78h-0.029v1.793v-4.038h-0.437v-6.112h-0.543v1.766h-0.106v7.372h-0.226v-5.193h-0.542
		v6.277h-0.334v-8.388h-0.543v2.11h-0.516v7.375h-0.219v2.414h-0.543v-12.538H65.01v2.35h-0.14v7.774h-0.507v0.584h-0.159v1.865
		h-0.149v-9.225h-0.036v-0.999h-0.543v1.835h-0.358v2.775h-0.149v3.748H62.81v1.865h-0.2v-10.224h-0.544v1.835h-0.226v-0.639h-0.544
		v8.908h-0.149v0.119h-0.291v-8.389h-0.375v-10.135h-0.543v9.496h-0.035v3.348h-0.105v4.765h-0.403v-4.925v3.111h-0.358v-6.299
		h-0.542v3.348h-0.09v4.503h-0.427v0.993h-0.333v-6.49h-0.543v0.994h-0.106v4.503h-0.227v-13.801h-0.543v3.479h-0.334v7.135h-0.516
		v-6.32h-0.543v7.074h-0.543v0.732h-0.15v1.299v-2.194h-0.173v-6.911h-0.37v-0.734h-0.543v11.484v-3.676h-0.174v0.732h-0.158v-5.074
		h-0.543v0.719h-0.47v1.555h-0.38v-2.273h-0.543v4.822h-0.202v2.312h-0.278v-2.955h-0.387v-4.179h-0.543v0.08h-0.036v5.205h-0.12
		v1.849h-0.387v0.591h-0.293v-3.46h-0.05v-4.185h-0.542v-0.345h-0.542v-8.991h-0.544v9.336h-0.323v5.739H46.13v-0.956h-0.395v-0.599
		h-0.148v-4.052h-0.543v5.606h-0.396v-3.72v0.492H44.37v3.035v-2.398h-0.543v-1.686h-0.138v-7.253h-0.542v8.302h-0.308v3.99v-3.301
		h-0.543v-6.014h-0.544v2.468h-0.228v-10.308H40.98v13.854h-0.095v-6.014h-0.543v6.492H40.33v-11.357h-0.543v11.266h-0.542v3.106
		H39.07v-3.015h-0.542v-2.217h-0.543v1.281h-0.174v-9.851h-0.543v12.114h-0.308v-1.807h-0.344v-7.333h-0.199v-2.975h-0.543v6.389
		h-0.232v4.534H35.55v-0.615h-0.328v-7.333h-0.215v-2.975h-0.543v11.355h-0.537v-4.967h-0.114v-3.414h-0.543v9.14h-0.392v1.283
		h-0.12v-16.73h-0.544v6.376h-0.542v9.071h-0.202v1.283h-0.392v-3.463h-0.543v4.535h-0.032v-1.922h-0.288v-2.613H29.67v0.133h-0.004
		v-0.133h-0.543v4.535h-0.08v-14.256H28.5v6.375h-0.543v1.225h-0.257v4.051H27.65v-11.864h-0.543v6.589h-0.543v4.037v-0.772h-0.032
		v4.298v-1.901H26.24v-12.25h-0.543v6.589h-0.543v4.037v-0.772H24.85v-0.048v3.809h-0.32v-2.255h-0.344v-0.093h-0.542v-1.506h-0.543
		v1.599h-0.507V115.6h-0.231v-5.396h-0.544v-8.475h-0.542v16.059h-0.091V115.6h-0.304v2.188h-0.543v1.526H20.13v-6.085h-0.543v6.506
		h-0.116v-1.947h-0.543v3.454h-0.279v-7.492h-0.402v-5.715h-0.142v-2.76h-0.543v15.967h-0.308v-7.492h-0.543v-3.027h-0.543v6.053
		h-0.294v-0.78h-0.029v1.793v-4.038h-0.302v-6.112H15v3.085h-0.241v6.053h-0.224v-5.193H13.99v9.24h-0.334v-5.464H13.14v-3.776
		h-0.543v7.375h-0.217v2.045h-0.543v-13.465h-0.543v3.646h-0.006v0.399h-0.099v7.375h-0.544v0.584h-0.158v-1.411h-0.185v-6.947
		h-0.149v-5.292H9.608v13.014H9.399v1.629H9.065v0.873H8.892v-10.224H8.349v1.835H8.123v-1.934H7.974v-7.988H7.431v16.384H7.139
		v-6.462h-0.41v-0.639H6.438v-2.942H5.895v8.403H5.611v-9.367H5.068v3.906H4.776v8.631H4.524v-3.863H4.367v-10.145H4.26v-0.359
		H3.716v2.468H3.248v8.389H2.956v-10.497H2.413v10.477H2.188v-8.404h-0.15v-1.437h-0.13c0.004,1.046,0.011,2.128,0.021,3.25
		c0.035,3.947,0.116,8.401,0.196,12.118c0.081,3.717,0.16,6.695,0.235,8.748c0.074,2.051,0.141,3.174,0.169,3.848
		c0.028,0.672,0.015,0.893,0.024,1.961c0.008,1.068,0.039,2.984,0.068,4.352c0.031,1.366,0.061,2.184,0.121,2.67
		c0.06,0.487,0.151,0.643,0.424,0.929s0.729,0.702,2.315,1.036c1.584,0.333,4.298,0.584,6.886,0.807
		c2.588,0.224,5.051,0.419,9.229,0.643c4.178,0.223,10.073,0.474,14.426,0.662c4.354,0.188,7.167,0.313,9.636,0.335
		c2.467,0.023,4.589-0.058,6.733-0.124c2.145-0.068,4.313-0.123,6.379-0.191s4.033-0.148,6.804-0.496
		c2.771-0.349,6.347-0.967,8.582-1.423c2.235-0.456,3.128-0.752,3.913-1.151c0.784-0.397,1.461-0.899,1.828-1.218
		c0.366-0.319,0.421-0.454,0.474-0.71s0.103-0.633,0.183-1.98c0.081-1.35,0.191-3.673,0.457-8.242
		c0.266-4.57,0.688-11.387,1.023-16.365C82.25,113.916,82.429,111.487,82.615,109.243z M180.503,102.606l-0.015-0.009l0.02,0.344
		L180.503,102.606z M180.541,104.764c-0.162-0.086-0.325-0.172-0.481-0.248c0.05,0.818,0.101,1.648,0.149,2.467
		c-0.017-0.01-0.033-0.021-0.05-0.031c-0.062-1.02-0.124-2.053-0.187-3.084c-0.19-0.101-0.381-0.201-0.563-0.292
		c-0.045-0.729-0.088-1.458-0.133-2.187c-0.115-0.061-0.223-0.111-0.33-0.16c0.045,0.729,0.089,1.458,0.133,2.188
		c-0.09-0.041-0.182-0.092-0.264-0.131c-0.152-2.513-0.305-5.036-0.459-7.571c-0.189-0.089-0.379-0.179-0.561-0.259
		c-0.147-2.433-0.295-4.867-0.443-7.313c-0.189-0.09-0.379-0.179-0.561-0.27c0.332,5.474,0.664,10.947,0.995,16.42
		c-0.075-1.234-0.15-2.479-0.226-3.724c-0.025-0.011-0.041-0.021-0.059-0.03c0.045,0.729,0.09,1.459,0.133,2.188
		c-0.189-0.091-0.379-0.181-0.561-0.271c0.039,0.652,0.079,1.303,0.117,1.953c-0.016,0-0.023-0.011-0.031-0.01
		c-0.14-2.299-0.279-4.599-0.419-6.909c-0.19-0.091-0.379-0.168-0.56-0.247c0.092,1.514,0.183,3.017,0.274,4.531
		c-0.189-0.09-0.379-0.168-0.56-0.248c0.009,0.146,0.018,0.292,0.026,0.426c-0.099-0.039-0.198-0.078-0.296-0.129
		c0.039,0.652,0.078,1.303,0.117,1.953c-0.105-0.039-0.213-0.09-0.313-0.128c-0.08-1.347-0.162-2.692-0.244-4.038
		c-0.017-0.01-0.023-0.01-0.033-0.02c0.086,1.412,0.17,2.803,0.255,4.205c-0.042-0.695-0.086-1.413-0.128-2.119
		c-0.1-0.039-0.197-0.078-0.296-0.129c-0.081-1.334-0.163-2.669-0.245-4.025c-0.09-0.04-0.18-0.068-0.262-0.108
		c-0.02-0.304-0.038-0.617-0.056-0.921c-0.099-0.038-0.198-0.088-0.297-0.128c-0.13-2.131-0.259-4.261-0.387-6.382
		c-0.188-0.078-0.378-0.156-0.558-0.224c0.269,4.429,0.536,8.849,0.805,13.278l0,0c-0.081-1.334-0.163-2.691-0.246-4.037
		c-0.105-0.039-0.212-0.078-0.311-0.117c0.043,0.696,0.085,1.402,0.127,2.086c-0.081-1.334-0.162-2.668-0.244-4.026
		c-0.188-0.066-0.377-0.145-0.559-0.213c-0.079-1.313-0.158-2.636-0.238-3.96c-0.189-0.066-0.377-0.135-0.558-0.201
		c0.14,2.299,0.278,4.586,0.417,6.886c-0.041-0.021-0.082-0.029-0.123-0.049c-0.032-0.55-0.066-1.11-0.102-1.683
		c-0.074-0.029-0.148-0.059-0.213-0.088c-0.025-0.416-0.051-0.818-0.076-1.246c-0.188-0.066-0.376-0.135-0.557-0.201
		c-0.08-1.313-0.16-2.636-0.24-3.96c-0.188-0.056-0.375-0.124-0.556-0.18c0.156,2.567,0.312,5.125,0.466,7.683
		c-0.033-0.021-0.057-0.02-0.082-0.029c-0.021-0.369-0.045-0.74-0.066-1.11c-0.148-0.059-0.295-0.105-0.443-0.153
		c-0.214-3.544-0.43-7.088-0.645-10.643c-0.188-0.068-0.375-0.124-0.557-0.192c0.217,3.556,0.432,7.099,0.646,10.644
		c-0.041-0.008-0.082-0.018-0.115-0.038c0.091,1.503,0.184,3.017,0.273,4.521c-0.105-0.028-0.211-0.066-0.311-0.105
		c-0.091-1.503-0.182-3.018-0.273-4.52c-0.08-0.018-0.163-0.047-0.236-0.065c-0.271-4.485-0.543-8.972-0.816-13.47
		c-0.188-0.066-0.375-0.123-0.555-0.18c0.193,3.196,0.386,6.381,0.579,9.566c-0.186-0.033-0.374-0.101-0.554-0.158
		c0.122,2.02,0.245,4.049,0.368,6.08c-0.032-0.01-0.065-0.02-0.09-0.029c-0.044-0.718-0.088-1.446-0.132-2.176
		c-0.188-0.045-0.375-0.102-0.555-0.157c0.078,1.29,0.156,2.567,0.234,3.847c-0.139-0.036-0.27-0.073-0.399-0.111
		c-0.033-0.549-0.067-1.11-0.102-1.67c-0.065-0.02-0.13-0.038-0.196-0.057c-0.07-1.178-0.143-2.354-0.214-3.543
		c-0.073-0.02-0.147-0.049-0.22-0.066c-0.117-1.906-0.232-3.824-0.349-5.742c-0.187-0.045-0.375-0.102-0.554-0.135
		c0.143,2.344,0.284,4.677,0.426,7.02c-0.113-0.026-0.227-0.053-0.333-0.08c0.079,1.313,0.159,2.636,0.239,3.937
		c-0.05-0.02-0.098-0.028-0.139-0.037c-0.033-0.55-0.067-1.11-0.102-1.671c-0.064-0.019-0.131-0.037-0.187-0.045
		c-0.243-4.026-0.489-8.064-0.732-12.091c-0.188-0.044-0.374-0.089-0.554-0.135c0.057,0.931,0.113,1.872,0.17,2.804
		c-0.072-0.018-0.139-0.036-0.203-0.055c0.09,1.48,0.179,2.938,0.268,4.407c-0.057,0.004-0.105-0.027-0.154-0.036
		c0.047,0.785,0.094,1.56,0.143,2.345c-0.066-0.019-0.131-0.026-0.195-0.044c0.039,0.639,0.076,1.278,0.115,1.906
		c-0.106-0.027-0.211-0.055-0.318-0.082c-0.23-3.813-0.463-7.638-0.694-11.462c-0.186-0.034-0.373-0.079-0.552-0.114
		c0.057,0.932,0.114,1.874,0.17,2.805c-0.071-0.007-0.145-0.024-0.219-0.043c0.137,2.255,0.273,4.498,0.41,6.752
		c-0.008,0-0.008,0-0.008,0c-0.178-2.938-0.357-5.877-0.535-8.814c-0.186-0.035-0.373-0.08-0.551-0.113
		c0.106,1.761,0.213,3.521,0.319,5.271c-0.032-0.01-0.065-0.008-0.097-0.018c-0.121-1.996-0.244-4.004-0.365-6.012
		c-0.188-0.044-0.373-0.078-0.551-0.112c0.193,3.185,0.387,6.37,0.579,9.556c-0.187-0.033-0.373-0.078-0.552-0.113
		c0.051,0.842,0.104,1.693,0.154,2.535c-0.065-0.008-0.121-0.016-0.179-0.034c-0.026-0.438-0.053-0.875-0.081-1.335
		c-0.186-0.023-0.371-0.057-0.55-0.09c0.038,0.639,0.077,1.267,0.115,1.895c-0.154-0.024-0.308-0.049-0.462-0.072
		c-0.029-0.494-0.059-0.988-0.089-1.47c-0.138-0.026-0.267-0.04-0.396-0.067c-0.01-0.146-0.018-0.279-0.026-0.426
		c-0.146-0.024-0.291-0.049-0.429-0.075c-0.131-2.153-0.262-4.307-0.393-6.471c-0.186-0.022-0.372-0.056-0.55-0.091
		c0.105,1.75,0.213,3.51,0.319,5.271c-0.186-0.022-0.371-0.045-0.549-0.068c0.004,0.079,0.01,0.158,0.014,0.225
		c-0.016,0.002-0.031,0.002-0.049,0.003c-0.04-0.673-0.082-1.368-0.124-2.052c-0.089-0.018-0.177-0.023-0.259-0.041
		c-0.07-1.156-0.139-2.299-0.209-3.443c-0.185-0.023-0.37-0.045-0.549-0.068c0.106,1.75,0.214,3.511,0.32,5.271
		c-0.186-0.022-0.371-0.045-0.548-0.057c-0.125-2.053-0.249-4.105-0.374-6.169c-0.186-0.022-0.371-0.045-0.549-0.067
		c0.019,0.303,0.037,0.605,0.055,0.896c-0.113-0.016-0.226-0.02-0.33-0.035c0.105,1.748,0.213,3.51,0.319,5.271
		c-0.186-0.011-0.371-0.034-0.548-0.045c0.066,1.099,0.133,2.197,0.199,3.297c-0.058-0.965-0.115-1.918-0.175-2.894
		c-0.137-0.015-0.273-0.018-0.401-0.032c0.096,1.593,0.191,3.174,0.287,4.755c-0.008,0-0.016,0.002-0.016,0.002
		c-0.027-0.461-0.056-0.92-0.084-1.392c-0.161-0.012-0.313-0.024-0.467-0.028c-0.045-0.739-0.09-1.48-0.135-2.221
		c-0.186-0.033-0.371-0.045-0.549-0.066c-0.152-2.535-0.308-5.081-0.462-7.639c-0.185-0.012-0.37-0.022-0.547-0.034
		c0.199,3.286,0.397,6.572,0.598,9.858c-0.112-0.005-0.226-0.009-0.337-0.014c-0.129-2.119-0.26-4.262-0.388-6.393
		c-0.186-0.012-0.37-0.022-0.547-0.035c0.028,0.461,0.055,0.908,0.083,1.369c-0.113-0.016-0.227-0.021-0.338-0.024
		c0.117,1.918,0.232,3.835,0.348,5.742c-0.016,0.001-0.023,0.001-0.031,0.002c-0.016-0.235-0.027-0.46-0.043-0.707
		c-0.162-0.013-0.321-0.014-0.482-0.026c-0.128-2.12-0.258-4.263-0.388-6.394c-0.185-0.011-0.37-0.022-0.546-0.022
		c0.088,1.447,0.176,2.894,0.262,4.329c-0.023,0.001-0.047-0.009-0.064-0.007c0.057,0.93,0.113,1.861,0.17,2.781
		c-0.161-0.002-0.32-0.004-0.481-0.005c0.013,0.202,0.024,0.403,0.036,0.594c-0.112-0.004-0.217,0.002-0.32-0.003
		c-0.156-2.568-0.313-5.136-0.467-7.705c-0.129-0.004-0.258-0.008-0.378-0.011c-0.125-2.063-0.249-4.116-0.375-6.191
		c-0.185,0.001-0.368,0-0.544,0c0.269,4.441,0.537,8.871,0.807,13.302c-0.057-0.009-0.113-0.005-0.17-0.014
		c0.012,0.203,0.024,0.404,0.036,0.596c-0.056,0.004-0.111,0.006-0.161-0.002c-0.057-0.942-0.113-1.873-0.17-2.814
		c-0.064,0.003-0.128,0.007-0.184,0c-0.098-1.604-0.195-3.208-0.293-4.813c-0.184,0-0.367,0-0.543,0.012
		c0.166,2.746,0.334,5.506,0.501,8.266c-0.057-0.009-0.104-0.006-0.152-0.003c-0.093-1.525-0.186-3.062-0.278-4.598
		c-0.184,0.011-0.367,0.022-0.544,0.011c0.022,0.381,0.046,0.762,0.069,1.143c-0.057,0.004-0.113-0.004-0.169,0
		c-0.097-1.604-0.194-3.208-0.291-4.812c-0.185,0.011-0.368,0.011-0.544,0.011c0.088,1.446,0.176,2.894,0.262,4.328
		c-0.008,0.001-0.016,0.002-0.023,0.002c-0.031-0.504-0.063-1.031-0.094-1.549c-0.185,0.002-0.368,0.013-0.544,0.012
		c-0.073-1.2-0.146-2.4-0.218-3.6c-0.049,0.002-0.098-0.006-0.137-0.004c-0.038-0.629-0.076-1.268-0.115-1.906
		c-0.184,0.012-0.368,0.022-0.543,0.033c0.143,2.355,0.285,4.71,0.428,7.055c-0.176-0.002-0.344,0.009-0.512,0.02
		c0.016,0.246,0.029,0.492,0.045,0.729c-0.104,0.006-0.208,0.002-0.305,0.008c-0.203-3.343-0.405-6.686-0.608-10.038
		c-0.016,0.001-0.032,0.002-0.04,0.002c-0.04-0.673-0.082-1.357-0.123-2.03c-0.184,0.012-0.367,0.023-0.543,0.021
		c0.287,4.744,0.575,9.477,0.862,14.222c-0.12,0.007-0.24,0.015-0.351,0.021c0.006,0.113,0.013,0.225,0.02,0.326
		c-0.057,0.004-0.104,0.006-0.152-0.002c-0.051-0.818-0.101-1.649-0.151-2.479c-0.119,0.008-0.239,0.015-0.358,0.021
		c-0.244-4.026-0.488-8.042-0.731-12.067c-0.185,0.011-0.366,0.033-0.542,0.044c0.055,0.897,0.107,1.783,0.161,2.669
		c-0.128,0.007-0.255,0.016-0.374,0.034c0.145,2.367,0.285,4.711,0.428,7.055c-0.136,0.008-0.264,0.016-0.391,0.023
		c0.027,0.438,0.053,0.875,0.08,1.324c-0.057,0.002-0.104,0.005-0.151,0.009c0.032,0.515,0.062,1.032,0.093,1.547
		c-0.095,0.018-0.189,0.023-0.285,0.028c0.033,0.551,0.066,1.1,0.098,1.639c-0.127,0.007-0.254,0.015-0.375,0.021
		c-0.262-4.34-0.525-8.68-0.789-13.032c-0.184,0.023-0.366,0.046-0.541,0.067c0.089,1.458,0.177,2.916,0.266,4.373
		c-0.049,0.003-0.096,0.007-0.145,0.01c0.195,3.207,0.389,6.403,0.583,9.611c-0.135,0.02-0.271,0.027-0.397,0.047
		c-0.104-1.727-0.209-3.455-0.313-5.182c0.036,0.617,0.075,1.234,0.112,1.861c-0.048,0.002-0.096,0.006-0.143,0.009
		c0.028,0.482,0.059,0.976,0.088,1.469c-0.07,0.017-0.143,0.021-0.214,0.025c-0.073-1.2-0.146-2.401-0.219-3.612
		c-0.032,0.003-0.063,0.016-0.088,0.017c-0.083-1.379-0.167-2.771-0.251-4.149c-0.184,0.012-0.366,0.045-0.541,0.056
		c0.012,0.212,0.025,0.426,0.038,0.64c-0.144,0.008-0.286,0.028-0.422,0.036c0.169,2.793,0.338,5.585,0.508,8.378
		c-0.11,0.019-0.223,0.036-0.333,0.055c-0.263-4.33-0.525-8.658-0.789-13c-0.182,0.023-0.364,0.045-0.539,0.067
		c0.08,1.335,0.161,2.657,0.24,3.981c-0.039,0.014-0.07,0.016-0.103,0.018c0.013,0.213,0.026,0.426,0.039,0.639
		c-0.079,0.017-0.159,0.021-0.229,0.037c-0.03-0.494-0.061-0.987-0.09-1.47c-0.184,0.022-0.366,0.046-0.541,0.066
		c0.199,3.286,0.398,6.573,0.598,9.848c-0.063,0.015-0.127,0.019-0.183,0.033c-0.042-0.694-0.084-1.391-0.126-2.086
		c-0.096,0.005-0.191,0.022-0.279,0.04c-0.115-1.907-0.23-3.813-0.346-5.721c-0.017,0.002-0.031,0.002-0.039,0.002
		c-0.013-0.189-0.023-0.381-0.035-0.571c-0.119,0.019-0.231,0.025-0.342,0.054c-0.029-0.492-0.06-0.986-0.088-1.469
		c-0.184,0.022-0.366,0.057-0.54,0.09c0.155,2.567,0.312,5.137,0.468,7.705c-0.056,0.014-0.111,0.018-0.159,0.031
		c0.044,0.717,0.087,1.436,0.13,2.142c-0.016,0.002-0.031,0.003-0.039,0.003c-0.043-0.695-0.084-1.391-0.127-2.086
		c-0.119,0.019-0.23,0.037-0.342,0.055c0.014,0.201,0.023,0.381,0.035,0.572c-0.071,0.016-0.141,0.042-0.213,0.047
		c-0.297-4.891-0.594-9.781-0.891-14.682c-0.182,0.022-0.364,0.056-0.547,0.09c0.094,1.547,0.188,3.096,0.281,4.631
		c-0.183,0.033-0.356,0.067-0.531,0.101c0.192,3.163,0.383,6.314,0.574,9.477c-0.039,0.003-0.071,0.005-0.104,0.018
		c0.014,0.202,0.023,0.382,0.035,0.571c-0.119,0.02-0.229,0.049-0.34,0.066c-0.16-2.646-0.32-5.293-0.481-7.939
		c-0.181,0.044-0.363,0.077-0.537,0.121c0.094,1.537,0.187,3.074,0.279,4.599c-0.095,0.018-0.19,0.034-0.286,0.051
		c0.013,0.202,0.024,0.403,0.037,0.595c-0.072,0.016-0.135,0.031-0.198,0.046c0.011,0.18,0.022,0.37,0.033,0.55
		c-0.118,0.029-0.229,0.048-0.34,0.077c0.044,0.729,0.088,1.436,0.13,2.142c-0.065-1.076-0.131-2.164-0.196-3.252
		c-0.016,0.001-0.024,0.001-0.032,0.002c-0.094-1.536-0.188-3.084-0.281-4.633c-0.182,0.034-0.363,0.078-0.537,0.111
		c0.104,1.729,0.209,3.455,0.314,5.193c-0.079,0.016-0.158,0.031-0.229,0.059c-0.17-2.804-0.34-5.597-0.51-8.4
		c-0.182,0.045-0.363,0.09-0.543,0.146c0.094,1.547,0.188,3.095,0.281,4.643c-0.175,0.033-0.349,0.066-0.521,0.11
		c0.105,1.749,0.212,3.511,0.318,5.271c-0.016,0.013-0.022,0.014-0.031,0.014c-0.029-0.504-0.061-1.009-0.091-1.514
		c-0.095,0.018-0.19,0.045-0.277,0.062c-0.208-3.442-0.417-6.886-0.626-10.329c-0.182,0.045-0.362,0.089-0.536,0.133
		c0.134,2.199,0.265,4.386,0.398,6.573c-0.183,0.044-0.363,0.089-0.536,0.146c0.115,1.884,0.229,3.768,0.343,5.652
		c-0.079,0.016-0.157,0.043-0.229,0.059c-0.088-1.47-0.178-2.949-0.268-4.43c-0.031,0.012-0.063,0.025-0.086,0.027
		c-0.158-2.59-0.316-5.193-0.473-7.795c-0.182,0.057-0.361,0.123-0.535,0.156c0.133,2.198,0.266,4.385,0.398,6.572
		c-0.182,0.057-0.362,0.111-0.535,0.156c0.158,2.613,0.316,5.227,0.475,7.852c-0.094,0.027-0.188,0.056-0.275,0.084
		c-0.062-1.032-0.124-2.064-0.188-3.096c-0.086,0.027-0.172,0.055-0.251,0.072c-0.032-0.527-0.064-1.056-0.097-1.594
		c-0.18,0.057-0.36,0.123-0.534,0.168c0.044,0.74,0.09,1.48,0.134,2.209c-0.181,0.057-0.361,0.112-0.533,0.179
		c0.049,0.829,0.1,1.66,0.149,2.479c-0.017,0.001-0.032,0.002-0.046,0.015c-0.063-1.033-0.126-2.064-0.188-3.084
		c-0.182,0.044-0.363,0.101-0.534,0.167c-0.044-0.729-0.089-1.458-0.134-2.188c-0.109,0.03-0.211,0.069-0.313,0.099
		c0.044,0.729,0.088,1.458,0.132,2.187c-0.086,0.028-0.172,0.056-0.251,0.083c-0.152-2.512-0.305-5.036-0.458-7.57
		c-0.182,0.066-0.361,0.123-0.534,0.179c-0.147-2.435-0.296-4.868-0.443-7.313c-0.181,0.066-0.36,0.134-0.532,0.2
		c0.332,5.484,0.664,10.958,0.996,16.432c-0.076-1.246-0.15-2.479-0.227-3.735c-0.023,0.002-0.039,0.015-0.055,0.015
		c0.043,0.729,0.087,1.458,0.131,2.188c-0.18,0.066-0.359,0.135-0.531,0.201c0.039,0.65,0.078,1.301,0.118,1.951
		c-0.017,0.001-0.023,0.012-0.032,0.014c-0.139-2.3-0.277-4.588-0.417-6.898c-0.181,0.068-0.36,0.135-0.533,0.201
		c0.092,1.504,0.183,3.018,0.274,4.521c-0.18,0.066-0.359,0.134-0.531,0.2c0.009,0.157,0.018,0.292,0.025,0.427
		c-0.094,0.04-0.188,0.067-0.281,0.107c0.038,0.65,0.078,1.301,0.117,1.951c-0.102,0.04-0.203,0.08-0.297,0.119
		c-0.082-1.334-0.162-2.681-0.245-4.037c-0.016,0.013-0.022,0.013-0.031,0.013c0.086,1.414,0.171,2.814,0.255,4.206
		c-0.043-0.695-0.085-1.402-0.129-2.12c-0.093,0.04-0.188,0.08-0.28,0.119c-0.081-1.336-0.161-2.67-0.243-4.016
		c-0.086,0.039-0.172,0.078-0.25,0.105c-0.02-0.314-0.039-0.628-0.057-0.932c-0.094,0.041-0.188,0.079-0.281,0.119
		c-0.13-2.131-0.258-4.263-0.387-6.382c-0.18,0.079-0.359,0.157-0.531,0.224c0.268,4.43,0.537,8.859,0.805,13.279l0,0
		c-0.081-1.335-0.162-2.681-0.244-4.038c-0.102,0.051-0.203,0.092-0.297,0.13c0.043,0.707,0.085,1.402,0.127,2.088
		c-0.082-1.336-0.162-2.67-0.243-4.016c-0.181,0.078-0.359,0.156-0.531,0.223c-0.092-1.502-0.183-3.006-0.273-4.508
		c-0.179,0.1-0.358,0.168-0.529,0.257c0.15,2.479,0.301,4.957,0.45,7.436c-0.039,0.014-0.077,0.039-0.115,0.053
		c-0.035-0.561-0.068-1.122-0.104-1.694c-0.07,0.038-0.141,0.064-0.202,0.103c-0.024-0.415-0.05-0.818-0.075-1.245
		c-0.179,0.09-0.357,0.18-0.529,0.258c-0.091-1.503-0.182-3.006-0.273-4.509c-0.179,0.089-0.357,0.168-0.529,0.258
		c0.166,2.747,0.333,5.483,0.498,8.22c-0.03,0.014-0.055,0.026-0.077,0.039c-0.022-0.37-0.044-0.74-0.067-1.11
		c-0.141,0.065-0.28,0.13-0.42,0.194c-0.216-3.545-0.43-7.088-0.646-10.644c-0.179,0.101-0.357,0.19-0.528,0.28
		c0.217,3.555,0.431,7.099,0.646,10.643c-0.041,0.015-0.078,0.039-0.109,0.053c0.092,1.514,0.183,3.017,0.273,4.52
		c-0.1,0.063-0.201,0.113-0.295,0.152c-0.092-1.503-0.182-3.006-0.274-4.52c-0.177,0.1-0.355,0.202-0.527,0.279
		c0.079,1.289,0.155,2.579,0.233,3.857c-0.046,0.026-0.085,0.051-0.123,0.064c-0.313-5.125-0.622-10.25-0.933-15.376
		c-0.179,0.101-0.356,0.19-0.536,0.28c0.154,2.534,0.309,5.08,0.463,7.615c-0.031,0.024-0.063,0.037-0.094,0.051
		c0.123,2.03,0.246,4.049,0.368,6.078c-0.03,0.025-0.062,0.037-0.085,0.051c-0.043-0.718-0.088-1.447-0.132-2.177
		c-0.179,0.09-0.356,0.191-0.526,0.291c0.077,1.29,0.156,2.58,0.233,3.858c-0.132,0.076-0.255,0.15-0.379,0.226
		c-0.034-0.561-0.068-1.121-0.103-1.683c-0.061,0.039-0.121,0.086-0.186,0.102c-0.071-1.178-0.143-2.355-0.215-3.544
		c-0.068,0.049-0.139,0.087-0.208,0.125c-0.116-1.905-0.233-3.825-0.349-5.742c-0.178,0.101-0.356,0.202-0.526,0.302
		c0.142,2.345,0.284,4.688,0.426,7.021c-0.108,0.063-0.216,0.137-0.317,0.188c0.08,1.313,0.16,2.636,0.24,3.948
		c-0.047,0.024-0.094,0.051-0.133,0.075c-0.033-0.561-0.066-1.121-0.102-1.683c-0.131,0.076-0.254,0.151-0.379,0.227
		c-0.188-3.096-0.375-6.19-0.563-9.286c-0.076,0.061-0.154,0.1-0.225,0.137c-0.018-0.291-0.035-0.584-0.053-0.875
		c-0.184,0.125-0.361,0.236-0.539,0.348c0.154,2.547,0.309,5.092,0.462,7.627c-0.03,0.013-0.062,0.038-0.085,0.05
		c0.039,0.64,0.078,1.279,0.115,1.907c-0.1,0.063-0.2,0.124-0.301,0.188c-0.23-3.814-0.463-7.639-0.695-11.463
		c-0.177,0.112-0.354,0.225-0.523,0.336c0.057,0.931,0.113,1.873,0.17,2.805c-0.068,0.049-0.139,0.086-0.209,0.135
		c0.137,2.255,0.273,4.51,0.41,6.752c-0.008,0.002-0.008,0.002-0.008,0.002c-0.264-4.363-0.528-8.727-0.795-13.111
		c-0.177,0.111-0.354,0.224-0.523,0.335c0.193,3.196,0.387,6.382,0.58,9.566c-0.031,0.025-0.062,0.05-0.093,0.062
		c-0.121-1.996-0.243-4.003-0.364-6.01c-0.178,0.123-0.354,0.245-0.523,0.368c0.193,3.187,0.387,6.371,0.58,9.556
		c-0.177,0.123-0.354,0.247-0.523,0.357c0.053,0.854,0.104,1.695,0.154,2.535c-0.062,0.049-0.115,0.086-0.168,0.123
		c-0.027-0.438-0.053-0.875-0.081-1.322c-0.177,0.122-0.354,0.246-0.522,0.357l0.107,1.76l0.04,0.168
		c0.114,0.498,0.191,1.065,0.298,1.579c0.107,0.515,0.242,0.976,0.33,1.495s0.127,1.096,0.281,1.938
		c0.153,0.843,0.418,1.951,0.597,2.878c0.179,0.93,0.269,1.676,0.366,2.339c0.098,0.662,0.203,1.239,0.285,2.009
		c0.083,0.77,0.144,1.733,0.26,2.439c0.114,0.708,0.285,1.16,0.408,1.839c0.123,0.68,0.197,1.588,0.263,2.122
		c0.065,0.535,0.12,0.694,0.253,0.838c0.133,0.143,0.344,0.268,0.627,0.408c0.284,0.141,0.64,0.297,1.004,0.531
		c0.363,0.236,0.735,0.552,1.161,0.915c0.427,0.362,0.908,0.771,1.429,1.098c0.521,0.325,1.079,0.569,1.611,0.755
		c0.531,0.188,1.035,0.317,1.591,0.459c0.556,0.143,1.163,0.295,1.983,0.438c0.819,0.142,1.854,0.275,2.648,0.366
		c0.794,0.093,1.352,0.143,2.494,0.161c1.142,0.02,2.869,0.007,4.188-0.029c1.318-0.037,2.227-0.097,3.383-0.198
		c1.156-0.1,2.561-0.24,4.203-0.414s3.523-0.383,5.102-0.529c1.576-0.146,2.852-0.232,4.16-0.305c1.31-0.072,2.653-0.133,3.82-0.166
		c1.168-0.032,2.158-0.037,4.202-0.07c2.042-0.035,5.137-0.098,7.196-0.158c2.059-0.063,3.082-0.122,4.611-0.309
		c1.531-0.186,3.567-0.496,4.825-0.713c1.259-0.22,1.737-0.346,2.065-0.48c0.326-0.135,0.501-0.279,0.641-0.373
		c0.141-0.094,0.246-0.137,0.529-0.238c0.282-0.102,0.744-0.262,1.28-0.445c0.534-0.186,1.145-0.393,1.624-0.6
		c0.48-0.205,0.832-0.408,1.059-0.537s0.33-0.185,0.496-0.195c0.168-0.009,0.398,0.026,0.59-0.021
		c0.192-0.045,0.346-0.173,0.55-0.365s0.46-0.448,0.563-0.842c0.103-0.393,0.053-0.926,0.058-2.267
		c0.006-1.343,0.065-3.493,0.046-5.89c-0.021-2.395-0.121-5.033-0.171-6.643c-0.05-1.61-0.05-2.192-0.05-3.015
		c0-0.823,0-1.886-0.024-2.882C180.609,106.473,180.566,105.628,180.541,104.764z M106.299,107.254l-0.521-8.604
		c-0.177,0.135-0.353,0.257-0.521,0.393l0.453,7.479c0.154,0.193,0.301,0.369,0.431,0.531
		C106.197,107.123,106.25,107.189,106.299,107.254z M104.783,105.229l-0.168-2.772c-0.145-0.283-0.291-0.578-0.43-0.873l0.174,2.84
		C104.486,104.708,104.631,104.977,104.783,105.229z"/>
	<path id="calcao_contorno" fill="none" d="M80.372,143.682c0.053-0.256,0.103-0.633,0.183-1.98c0.081-1.35,0.191-3.673,0.457-8.242
		c0.266-4.57,0.688-11.387,1.023-16.365c0.336-4.979,0.587-8.118,0.914-11.589c0.325-3.472,0.727-7.273,1.229-11.235
		c0.502-3.963,1.104-8.086,1.876-12.771c0.772-4.684,1.715-9.931,2.432-13.367c0.718-3.436,1.209-5.062,1.524-6.088
		c0.316-1.027,0.455-1.456,0.564-1.69c0.108-0.234,0.186-0.275,0.259-0.268c0.075,0.006,0.145,0.061,0.234,0.161
		c0.091,0.1,0.201,0.245,0.344,0.551c0.144,0.307,0.318,0.774,0.602,1.409c0.283,0.635,0.674,1.437,1.009,2.222
		s0.616,1.556,0.735,2.149c0.119,0.593,0.076,1.01,0.111,1.477s0.148,0.986,0.443,1.424c0.297,0.438,0.775,0.794,1.052,1.267
		c0.276,0.473,0.349,1.062,0.529,1.898c0.181,0.837,0.468,1.92,0.567,2.738c0.1,0.816,0.009,1.369-0.086,1.89
		c-0.093,0.521-0.19,1.01-0.088,1.499c0.103,0.49,0.406,0.982,0.762,1.438c0.354,0.457,0.761,0.878,1.01,1.155
		c0.25,0.277,0.343,0.409,0.432,0.535c0.088,0.125,0.174,0.244,0.309,0.773c0.134,0.531,0.316,1.475,0.386,2.128
		c0.069,0.655,0.024,1.021-0.003,1.386c-0.025,0.365-0.033,0.729-0.063,1.191c-0.029,0.463-0.082,1.024-0.075,1.54
		c0.008,0.516,0.075,0.985,0.405,1.681c0.329,0.696,0.922,1.619,1.482,2.364c0.561,0.747,1.089,1.316,1.444,1.675
		c0.355,0.357,0.538,0.504,0.701,0.764c0.164,0.261,0.311,0.635,0.43,1.111c0.12,0.479,0.217,1.061,0.268,1.735
		s0.059,1.442,0.048,2.294s-0.042,1.786,0.132,2.638c0.173,0.853,0.549,1.618,0.969,2.267c0.418,0.648,0.879,1.178,1.222,1.607
		s0.566,0.757,0.753,1.081c0.188,0.323,0.337,0.642,0.488,1.016c0.15,0.374,0.301,0.803,0.415,1.3
		c0.114,0.498,0.191,1.065,0.298,1.579c0.107,0.515,0.242,0.976,0.33,1.495s0.127,1.096,0.281,1.938
		c0.153,0.843,0.418,1.951,0.597,2.878c0.179,0.93,0.269,1.676,0.366,2.339c0.098,0.662,0.203,1.239,0.285,2.009
		c0.083,0.77,0.144,1.733,0.26,2.439c0.114,0.708,0.285,1.16,0.408,1.839c0.123,0.68,0.197,1.588,0.263,2.122
		c0.065,0.535,0.12,0.694,0.253,0.838c0.133,0.143,0.344,0.268,0.627,0.408c0.284,0.141,0.64,0.297,1.004,0.531
		c0.363,0.236,0.735,0.552,1.161,0.915c0.427,0.362,0.908,0.771,1.429,1.098c0.521,0.325,1.079,0.569,1.611,0.755
		c0.531,0.188,1.035,0.317,1.591,0.459c0.556,0.143,1.163,0.295,1.983,0.438c0.819,0.142,1.854,0.275,2.648,0.366
		c0.794,0.093,1.352,0.143,2.494,0.161c1.142,0.02,2.869,0.007,4.188-0.029c1.318-0.037,2.227-0.097,3.383-0.198
		c1.156-0.1,2.561-0.24,4.203-0.414s3.523-0.383,5.102-0.529c1.576-0.146,2.852-0.232,4.16-0.305c1.31-0.072,2.653-0.133,3.82-0.166
		c1.168-0.032,2.158-0.037,4.202-0.07c2.042-0.035,5.137-0.098,7.196-0.158c2.059-0.063,3.082-0.122,4.611-0.309
		c1.531-0.186,3.567-0.496,4.825-0.713c1.259-0.22,1.737-0.346,2.065-0.48c0.326-0.135,0.501-0.279,0.641-0.373
		c0.141-0.094,0.246-0.137,0.529-0.238c0.282-0.102,0.744-0.262,1.28-0.445c0.534-0.186,1.145-0.393,1.624-0.6
		c0.48-0.205,0.832-0.408,1.059-0.537s0.33-0.185,0.496-0.195c0.168-0.009,0.398,0.026,0.59-0.021
		c0.192-0.045,0.346-0.173,0.55-0.365s0.46-0.448,0.563-0.842c0.103-0.393,0.053-0.926,0.058-2.267
		c0.006-1.343,0.065-3.493,0.046-5.89c-0.021-2.395-0.121-5.033-0.171-6.643c-0.05-1.61-0.05-2.192-0.05-3.015
		c0-0.823,0-1.886-0.024-2.882c-0.026-0.996-0.076-1.924-0.099-2.885c-0.022-0.96-0.018-1.953-0.08-3.525
		c-0.063-1.573-0.193-3.725-0.263-5.465c-0.07-1.74-0.081-3.07-0.204-6.607c-0.122-3.535-0.358-9.278-0.817-14.949
		c-0.459-5.671-1.142-11.269-2.004-16.585c-0.862-5.317-1.906-10.354-2.939-15.139c-1.033-4.785-2.057-9.32-3.4-13.954
		c-1.345-4.634-3.01-9.37-4.615-13.634c-1.605-4.263-3.149-8.055-4.063-10.253c-0.913-2.198-1.193-2.803-1.314-3.193
		c-0.119-0.392-0.08-0.57,0.009-0.707c0.089-0.136,0.228-0.232,0.339-0.307c0.012-0.008,0.025-0.017,0.036-0.026
		c-0.036-0.002-0.077-0.003-0.126-0.006c-0.092-0.006-0.214-0.012-0.61-0.042c-0.396-0.032-1.063-0.087-1.95-0.094
		c-0.886-0.007-1.99,0.033-3.146,0.116c-1.157,0.083-2.367,0.211-4.256,0.535c-1.891,0.324-4.459,0.846-6.578,1.318
		c-2.121,0.471-3.793,0.893-5.985,1.328c-2.194,0.434-4.909,0.882-7.635,1.247c-2.726,0.364-5.462,0.645-8.771,0.946
		c-3.311,0.301-7.196,0.623-10.442,0.85c-3.248,0.227-5.855,0.361-8.24,0.491s-4.545,0.257-7,0.355
		c-2.453,0.097-5.202,0.164-7.931,0.22c-2.729,0.057-5.438,0.104-8.019,0.098c-2.581-0.007-5.036-0.067-7.336-0.121
		c-2.301-0.054-4.448-0.1-6.772-0.17c-2.323-0.071-4.825-0.165-7.894-0.251c-3.07-0.087-6.708-0.167-10.564-0.19
		c-3.855-0.024-7.928,0.01-11.299,0.006c-3.371-0.003-6.04-0.043-9.567-0.181c-3.528-0.137-7.915-0.371-11.07-0.607
		c-3.154-0.236-5.078-0.473-6.476-0.752c-1.398-0.28-2.272-0.602-3.146-0.923c0.039,0.056,0.019,0.165-0.024,0.549
		C6.322,5.35,6.232,6.27,5.981,7.963c-0.25,1.693-0.663,4.159-0.93,5.963c-0.269,1.805-0.394,2.948-0.695,4.831
		c-0.301,1.885-0.778,4.508-1.161,6.82c-0.383,2.312-0.675,4.313-0.905,6c-0.231,1.688-0.402,3.063-0.56,4.658
		c-0.158,1.595-0.303,3.41-0.461,5.608c-0.158,2.197-0.329,4.775-0.5,7.654c-0.17,2.879-0.341,6.059-0.465,9.45
		c-0.126,3.391-0.206,6.992-0.181,10.679c0.025,3.687,0.156,7.458,0.412,11.125c0.256,3.666,0.636,7.228,0.888,10.428
		c0.25,3.2,0.37,6.039,0.426,9.18c0.055,3.139,0.045,6.58,0.08,10.528c0.035,3.947,0.116,8.401,0.196,12.118
		c0.081,3.717,0.16,6.695,0.235,8.748c0.074,2.051,0.141,3.174,0.169,3.848c0.028,0.672,0.015,0.893,0.024,1.961
		c0.008,1.068,0.039,2.984,0.068,4.352c0.031,1.366,0.061,2.184,0.121,2.67c0.06,0.487,0.151,0.643,0.424,0.929
		s0.729,0.702,2.315,1.036c1.584,0.333,4.298,0.584,6.886,0.807c2.588,0.224,5.051,0.419,9.229,0.643
		c4.178,0.223,10.073,0.474,14.426,0.662c4.354,0.188,7.167,0.313,9.636,0.335c2.467,0.023,4.589-0.058,6.733-0.124
		c2.145-0.068,4.313-0.123,6.379-0.191s4.033-0.148,6.804-0.496c2.771-0.349,6.347-0.967,8.582-1.423
		c2.235-0.456,3.128-0.752,3.913-1.151c0.784-0.397,1.461-0.899,1.828-1.218C80.263,144.072,80.319,143.938,80.372,143.682z"/>
</g>
</svg>
