<?xml version="1.0" encoding="UTF-8"?>
<!DOCTYPE svg PUBLIC "-//W3C//DTD SVG 1.1//EN" "http://www.w3.org/Graphics/SVG/1.1/DTD/svg11.dtd">
<!-- Creator: CorelDRAW -->
<svg xmlns="http://www.w3.org/2000/svg" xml:space="preserve" width="240px" height="296px" version="1.1" shape-rendering="geometricPrecision" text-rendering="geometricPrecision" image-rendering="optimizeQuality" fill-rule="evenodd" clip-rule="evenodd"
viewBox="0 0 240 296.307"
 xmlns:xlink="http://www.w3.org/1999/xlink"
 xmlns:xodm="http://www.corel.com/coreldraw/odm/2003">
 <defs>
   <clipPath id="id0">
    <path d="M136.796 295.988c2.461,-0.097 4.626,-0.225 7.017,-0.355 2.39,-0.131 5.006,-0.265 8.261,-0.493 3.256,-0.228 7.151,-0.55 10.471,-0.852 3.319,-0.302 6.061,-0.583 8.794,-0.949 2.732,-0.365 5.455,-0.814 7.654,-1.25 2.2,-0.436 3.876,-0.858 6.001,-1.331 2.126,-0.473 4.701,-0.996 6.595,-1.321 1.894,-0.325 3.108,-0.453 4.268,-0.536 1.16,-0.084 2.267,-0.124 3.155,-0.117 0.889,0.008 1.559,0.063 1.956,0.094 0.396,0.031 0.518,0.038 0.611,0.043 0.049,0.002 0.09,0.004 0.127,0.006 0.093,-0.07 0.162,-0.18 0.177,-0.779 0.016,-0.673 -0.037,-1.966 -0.106,-2.786 -0.069,-0.819 -0.154,-1.166 -0.285,-1.855 -0.131,-0.689 -0.307,-1.72 -0.651,-2.686 -0.345,-0.965 -0.858,-1.866 -1.476,-3.045 -0.619,-1.179 -1.343,-2.638 -1.783,-3.616 -0.44,-0.978 -0.596,-1.476 -0.848,-2.693 -0.251,-1.217 -0.598,-3.153 -0.953,-5.871 -0.354,-2.718 -0.716,-6.219 -1.038,-8.884 -0.322,-2.666 -0.603,-4.496 -1.081,-7.559 -0.478,-3.062 -1.152,-7.357 -1.71,-11.521 -0.558,-4.164 -1.001,-8.198 -1.348,-12.226 -0.347,-4.028 -0.598,-8.051 -0.759,-11.637 -0.161,-3.586 -0.231,-6.734 -0.287,-9.787 -0.055,-3.052 -0.095,-6.01 -0.156,-9.258 -0.06,-3.249 -0.14,-6.79 -0.108,-12.037 0.033,-5.248 0.179,-12.203 0.352,-17.466 0.174,-5.263 0.375,-8.834 0.652,-12.807 0.276,-3.973 0.628,-8.348 0.975,-12.271 0.347,-3.922 0.689,-7.393 1.122,-11.743 0.432,-4.35 0.955,-9.58 1.483,-13.99 0.528,-4.411 1.061,-8.002 1.512,-10.619 0.45,-2.618 0.817,-4.262 1.139,-5.308 0.321,-1.046 0.598,-1.494 0.803,-1.766 0.205,-0.271 0.338,-0.367 0.405,-0.414 0.066,-0.048 0.066,-0.048 0.049,0.598 -0.018,0.646 -0.053,1.939 -0.108,3.533 -0.056,1.594 -0.131,3.49 -0.173,4.967 -0.041,1.478 -0.049,2.536 -0.079,3.186 -0.03,0.65 -0.083,0.892 -0.102,1.011 -0.018,0.119 -0.003,0.117 -0.041,0.151 -0.038,0.034 -0.128,0.104 -0.133,0.68 -0.005,0.576 0.075,1.657 0.192,3.051 0.117,1.395 0.27,3.102 0.322,4.786 0.051,1.683 0.001,3.343 0.002,4.231 0,0.887 0.052,1.003 0.132,1.078 0.08,0.076 0.188,0.111 1.001,0.06 0.814,-0.051 2.333,-0.188 4.105,-0.324 1.773,-0.137 3.8,-0.273 5.955,-0.431 2.155,-0.158 4.438,-0.339 6.588,-0.463 2.15,-0.123 4.166,-0.188 5.992,-0.299 1.826,-0.111 3.46,-0.267 5.336,-0.47 1.876,-0.204 3.993,-0.455 6.015,-0.682 2.021,-0.226 3.947,-0.427 5.109,-0.565 1.162,-0.139 1.559,-0.214 1.758,-0.327 0.199,-0.113 0.199,-0.264 0.229,-0.906 0.03,-0.641 0.09,-1.772 0.108,-3.132 0.017,-1.361 -0.008,-2.95 -0.023,-4.429 -0.015,-1.478 -0.02,-2.846 -0.038,-3.724 -0.017,-0.877 -0.047,-1.264 -0.071,-1.469 -0.025,-0.205 -0.043,-0.227 -0.083,-0.294 -0.04,-0.068 -0.103,-0.181 -0.174,-0.682 -0.071,-0.5 -0.152,-1.388 -0.255,-2.32 -0.103,-0.933 -0.229,-1.911 -0.348,-2.739 -0.12,-0.827 -0.233,-1.504 -0.413,-2.544 -0.179,-1.042 -0.426,-2.447 -0.613,-3.449 -0.187,-1.002 -0.316,-1.601 -0.436,-2.27 -0.121,-0.668 -0.234,-1.408 -0.366,-2.121 -0.132,-0.713 -0.283,-1.399 -0.425,-2.156 -0.142,-0.757 -0.275,-1.584 -0.375,-2.322 -0.099,-0.738 -0.165,-1.387 -0.239,-2.029 -0.074,-0.643 -0.157,-1.279 -0.257,-2.036 -0.101,-0.757 -0.219,-1.634 -0.34,-2.526 -0.121,-0.891 -0.244,-1.796 -0.353,-2.565 -0.11,-0.768 -0.205,-1.399 -0.373,-2.344 -0.168,-0.945 -0.408,-2.203 -0.82,-4.085 -0.412,-1.881 -0.995,-4.386 -1.704,-6.89 -0.709,-2.505 -1.544,-5.009 -2.651,-7.745 -1.106,-2.736 -2.484,-5.703 -4.093,-8.851 -1.61,-3.149 -3.45,-6.478 -4.878,-8.781 -1.429,-2.304 -2.444,-3.581 -3.453,-4.629 -1.008,-1.049 -2.009,-1.869 -3.015,-2.608 -1.006,-0.739 -2.017,-1.398 -2.582,-1.773 -0.566,-0.375 -0.687,-0.465 -0.756,-0.571 -0.069,-0.105 -0.087,-0.226 -0.095,-0.303 -0.009,-0.077 -0.009,-0.109 -0.07,-0.174 -0.06,-0.066 -0.181,-0.164 -1.307,-0.714 -1.127,-0.551 -3.259,-1.555 -5.31,-2.603 -2.05,-1.048 -4.019,-2.142 -5.77,-2.976 -1.752,-0.833 -3.286,-1.407 -5.061,-1.957 -1.775,-0.551 -3.792,-1.079 -5.429,-1.507 -1.637,-0.427 -2.894,-0.754 -3.762,-1.008 -0.867,-0.254 -1.345,-0.435 -2.044,-0.7 -0.699,-0.266 -1.619,-0.615 -2.606,-0.909 -0.987,-0.295 -2.041,-0.533 -2.716,-0.687 -0.675,-0.153 -0.972,-0.221 -1.44,-0.471 -0.467,-0.25 -1.106,-0.683 -1.581,-0.937 -0.475,-0.254 -0.787,-0.329 -1.073,-0.365 -0.285,-0.035 -0.544,-0.03 -0.777,-0.03 -0.232,0 -0.438,-0.005 -1.342,-0.33 -0.904,-0.326 -2.506,-0.972 -4.026,-1.577 -1.52,-0.605 -2.959,-1.168 -4.404,-1.748 -1.446,-0.579 -2.9,-1.175 -3.816,-1.569 -0.917,-0.393 -1.297,-0.584 -1.594,-0.779 -0.298,-0.194 -0.514,-0.392 -0.705,-0.497 -0.191,-0.105 -0.356,-0.116 -0.467,-0.117 -0.11,0 -0.164,0.01 -0.251,-0.004 -0.086,-0.014 -0.204,-0.052 -0.587,-0.292 -0.382,-0.24 -1.028,-0.682 -1.678,-1.193 -0.65,-0.51 -1.304,-1.089 -1.956,-1.661 -0.653,-0.572 -1.304,-1.138 -2.311,-1.569 -1.007,-0.431 -2.37,-0.728 -3.723,-0.919 -1.353,-0.191 -2.695,-0.276 -4.576,-0.354 -1.881,-0.078 -4.3,-0.149 -7.931,-0.131 -3.631,0.017 -8.474,0.123 -12.914,0.219 -4.439,0.096 -8.475,0.183 -10.597,0.231 -2.123,0.048 -2.332,0.058 -4.152,0.203 -1.82,0.145 -5.249,0.427 -7.404,0.671 -2.155,0.244 -3.035,0.45 -3.752,0.707 -0.717,0.256 -1.27,0.563 -1.886,1.078 -0.616,0.516 -1.295,1.24 -2.019,1.877 -0.725,0.638 -1.494,1.189 -1.953,1.46 -0.459,0.272 -0.607,0.264 -0.901,0.366 -0.295,0.102 -0.735,0.313 -1.268,0.582 -0.533,0.269 -1.159,0.596 -1.919,0.922 -0.761,0.325 -1.656,0.65 -2.301,0.904 -0.645,0.254 -1.04,0.437 -1.514,0.628 -0.474,0.192 -1.027,0.39 -1.765,0.621 -0.738,0.232 -1.661,0.496 -2.558,0.836 -0.896,0.341 -1.766,0.759 -2.573,1.076 -0.808,0.316 -1.552,0.533 -2.299,0.749 -0.746,0.216 -1.496,0.432 -2.053,0.655 -0.557,0.222 -0.921,0.451 -1.207,0.636 -0.285,0.185 -0.491,0.326 -0.999,0.476 -0.508,0.15 -1.318,0.31 -1.914,0.463 -0.596,0.154 -0.978,0.301 -1.488,0.492 -0.51,0.192 -1.147,0.429 -1.75,0.617 -0.603,0.189 -1.171,0.329 -1.687,0.459 -0.516,0.13 -0.98,0.248 -1.7,0.426 -0.719,0.179 -1.693,0.418 -2.551,0.633 -0.857,0.216 -1.598,0.408 -2.171,0.57 -0.573,0.161 -0.979,0.292 -1.436,0.426 -0.456,0.134 -0.963,0.271 -1.427,0.4 -0.465,0.129 -0.887,0.249 -1.312,0.377 -0.424,0.128 -0.85,0.262 -1.203,0.399 -0.353,0.137 -0.632,0.277 -1.012,0.437 -0.38,0.159 -0.862,0.339 -1.279,0.53 -0.417,0.191 -0.769,0.394 -1.165,0.602 -0.397,0.209 -0.838,0.424 -1.221,0.617 -0.382,0.194 -0.705,0.366 -1.126,0.589 -0.421,0.223 -0.941,0.495 -1.657,0.865 -0.717,0.371 -1.631,0.838 -2.694,1.37 -1.063,0.532 -2.275,1.128 -3.18,1.576 -0.905,0.448 -1.504,0.747 -2.037,1.087 -0.533,0.341 -1.001,0.723 -1.443,1.08 -0.443,0.358 -0.86,0.689 -1.353,1.079 -0.493,0.39 -1.061,0.837 -1.779,1.475 -0.718,0.637 -1.586,1.465 -2.375,2.331 -0.79,0.866 -1.501,1.771 -2.145,2.665 -0.644,0.894 -1.22,1.777 -1.924,2.935 -0.704,1.158 -1.536,2.591 -2.208,3.821 -0.671,1.229 -1.181,2.255 -1.732,3.264 -0.551,1.008 -1.141,1.999 -1.644,2.942 -0.503,0.943 -0.918,1.838 -1.313,2.759 -0.395,0.922 -0.77,1.87 -1.152,2.756 -0.382,0.887 -0.772,1.712 -1.285,3.043 -0.513,1.331 -1.149,3.17 -1.716,4.911 -0.567,1.741 -1.065,3.386 -1.49,4.836 -0.425,1.451 -0.777,2.709 -1.129,4.225 -0.352,1.516 -0.704,3.291 -1.144,5.668 -0.44,2.376 -0.968,5.353 -1.29,7.073 -0.322,1.72 -0.438,2.183 -0.543,2.673 -0.106,0.491 -0.201,1.009 -0.4,1.833 -0.198,0.825 -0.5,1.957 -0.807,3.143 -0.307,1.187 -0.618,2.43 -0.84,3.478 -0.221,1.049 -0.352,1.904 -0.575,3.166 -0.224,1.262 -0.541,2.932 -0.787,4.297 -0.247,1.366 -0.423,2.427 -0.529,2.975 -0.105,0.548 -0.14,0.583 -0.204,0.634 -0.063,0.05 -0.155,0.115 -0.251,2.246 -0.096,2.13 -0.197,6.326 -0.275,8.622 -0.078,2.297 -0.133,2.694 0.035,2.902 0.169,0.209 0.561,0.229 1.419,0.337 0.857,0.108 2.18,0.305 4.51,0.755 2.332,0.45 5.671,1.154 8.339,1.667 2.668,0.513 4.664,0.835 6.751,1.182 2.088,0.347 4.265,0.719 7.24,1.192 2.975,0.472 6.746,1.046 9.15,1.373 2.404,0.327 3.44,0.407 3.958,0.447 0.518,0.041 0.518,0.041 0.568,-0.543 0.049,-0.583 0.149,-1.75 0.263,-2.759 0.114,-1.009 0.242,-1.86 0.394,-2.937 0.152,-1.077 0.328,-2.379 0.498,-3.576 0.17,-1.197 0.333,-2.289 0.417,-2.902 0.085,-0.614 0.089,-0.749 0.076,-0.865 -0.014,-0.116 -0.047,-0.211 -0.023,-1.818 0.024,-1.607 0.104,-4.725 0.147,-7.257 0.043,-2.532 0.048,-4.478 0.059,-5.601 0.011,-1.123 0.029,-1.422 0.067,-1.618 0.038,-0.197 0.095,-0.29 0.176,-0.338 0.08,-0.05 0.184,-0.055 0.308,0.038 0.124,0.094 0.27,0.285 0.345,0.376 0.074,0.092 0.076,0.085 0.078,0.081 0.001,-0.004 0.001,-0.004 0.115,0.253 0.114,0.256 0.343,0.769 0.597,1.463 0.254,0.694 0.533,1.569 0.762,2.507 0.229,0.938 0.408,1.939 0.607,3.547 0.2,1.608 0.422,3.823 0.739,6.228 0.316,2.406 0.729,5.001 1.468,11.393 0.739,6.392 1.805,16.58 2.64,24.511 0.835,7.931 1.439,13.604 1.811,19.699 0.372,6.095 0.513,12.613 0.503,19.654 -0.01,7.04 -0.171,14.604 -0.372,20.609 -0.202,6.004 -0.443,10.45 -0.725,14.423 -0.281,3.973 -0.603,7.473 -1.448,14.162 -0.845,6.688 -2.213,16.566 -3.007,23.777 -0.795,7.212 -1.016,11.758 -1.217,15.269 -0.202,3.51 -0.383,5.984 -0.674,8.122 -0.292,2.137 -0.694,3.937 -0.973,5.315 -0.279,1.378 -0.436,2.334 -0.453,2.935 -0.018,0.601 0.103,0.847 0.249,0.975 0.146,0.129 0.317,0.138 0.5,0.175 0.184,0.036 0.38,0.099 0.469,0.155 0.019,0.011 0.032,0.022 0.042,0.037 0.876,0.322 1.753,0.645 3.155,0.925 1.401,0.28 3.329,0.518 6.493,0.754 3.163,0.237 7.562,0.472 11.099,0.609 3.537,0.138 6.212,0.178 9.592,0.181 3.38,0.003 7.463,-0.03 11.329,-0.007 3.866,0.024 7.513,0.104 10.591,0.191 3.078,0.088 5.586,0.181 7.916,0.252 2.33,0.07 4.483,0.117 6.789,0.171 2.307,0.053 4.768,0.114 7.356,0.121 2.589,0.006 5.304,-0.041 8.04,-0.098 2.736,-0.057 5.492,-0.124 7.953,-0.221z"/>
   </clipPath>
    <clipPath id="id1">
     <path d="M197.737 96.303c0.032,-0.569 0.064,-1.138 -0.075,-1.761 -0.138,-0.623 -0.446,-1.3 -0.601,-1.639 -0.154,-0.338 -0.154,-0.338 -0.16,-0.59 -0.007,-0.251 -0.021,-0.754 0.221,-1.78 0.241,-1.026 0.737,-2.575 1.398,-4.644 0.66,-2.068 1.485,-4.656 2.313,-7.962 0.828,-3.306 1.66,-7.329 2.444,-13.19 0.785,-5.86 1.522,-13.558 2.347,-18.902 0.825,-5.345 1.737,-8.335 2.716,-11.172 0.793,-2.296 1.629,-4.491 2.474,-6.668l-0.007 -0.017 0 -0.001 -0.002 -0.007 -0.002 -0.005 -0.002 -0.005 -0.004 -0.013 -0.004 -0.013 -0.002 -0.006 -0.011 -0.048 -0.001 -0.002 -0.006 -0.032 -0.001 -0.008 0 -0.004 -0.001 -0.006 -0.001 -0.005 -0.001 -0.004 -0.001 -0.007 0 -0.005 -0.001 -0.007 -0.001 -0.004 -0.001 -0.009 0 -0.006c-0.009,-0.077 -0.009,-0.109 -0.07,-0.174 -0.06,-0.066 -0.181,-0.164 -1.307,-0.714 -1.127,-0.551 -3.259,-1.555 -5.31,-2.603 -2.05,-1.048 -4.019,-2.142 -5.77,-2.976 -1.752,-0.833 -3.286,-1.407 -5.061,-1.957 -1.775,-0.551 -3.792,-1.079 -5.429,-1.507 -1.637,-0.427 -2.894,-0.754 -3.762,-1.008 -0.867,-0.254 -1.345,-0.435 -2.044,-0.7 -0.699,-0.266 -1.619,-0.615 -2.606,-0.909 -0.987,-0.295 -2.041,-0.533 -2.716,-0.687 -0.675,-0.153 -0.972,-0.221 -1.44,-0.471 -0.467,-0.25 -1.106,-0.683 -1.581,-0.937 -0.475,-0.254 -0.787,-0.329 -1.073,-0.365 -0.285,-0.035 -0.544,-0.03 -0.777,-0.03 -0.232,0 -0.438,-0.005 -1.342,-0.33 -0.904,-0.326 -2.506,-0.972 -4.026,-1.577 -1.52,-0.605 -2.959,-1.168 -4.404,-1.748 -1.446,-0.579 -2.9,-1.175 -3.816,-1.569 -0.917,-0.393 -1.297,-0.584 -1.594,-0.779 -0.298,-0.194 -0.514,-0.392 -0.705,-0.497 -0.191,-0.105 -0.356,-0.116 -0.467,-0.117l-0.028 0 -0.006 0.001 -0.013 0 -0.005 0 -0.008 0 -0.005 0 -0.004 0 -0.004 0 -0.005 0 -0.007 0.001 -0.001 0 -0.007 0 -0.004 0 -0.001 0 -0.003 0 -0.004 0 -0.007 0.001 -0.004 0 -0.004 0 -0.006 0 -0.008 0 -0.008 0 -0.022 0 -0.009 0 -0.006 0 -0.001 0 -0.002 0 -0.004 0 -0.001 0 -0.007 -0.001 -0.001 0 -0.019 -0.001 -0.003 0 -0.012 -0.002 -0.008 -0.001 -0.014 -0.002c-0.086,-0.014 -0.204,-0.052 -0.587,-0.292 -0.382,-0.24 -1.028,-0.682 -1.678,-1.193 -0.65,-0.51 -1.304,-1.089 -1.956,-1.661 -0.653,-0.572 -1.304,-1.138 -2.311,-1.569 -1.007,-0.431 -2.37,-0.728 -3.723,-0.919 -1.353,-0.191 -2.695,-0.276 -4.576,-0.354 -1.881,-0.078 -4.3,-0.149 -7.931,-0.131 -3.631,0.017 -8.474,0.123 -12.914,0.219 -4.439,0.096 -8.475,0.183 -10.597,0.231 -2.123,0.048 -2.332,0.058 -4.152,0.203 -1.82,0.145 -5.249,0.427 -7.404,0.671 -2.155,0.244 -3.035,0.45 -3.752,0.707 -0.717,0.256 -1.27,0.563 -1.886,1.078 -0.616,0.516 -1.295,1.24 -2.019,1.877 -0.725,0.638 -1.494,1.189 -1.953,1.46l-0.056 0.033 -0.011 0.006 -0.02 0.011 -0.005 0.003 -0.013 0.008 -0.002 0.001 -0.008 0.004 0 0 -0.024 0.014 -0.003 0.001 -0.031 0.016 -0.002 0.002 -0.006 0.002 -0.001 0.002 -0.008 0.003 -0.021 0.011 -0.004 0.002 -0.005 0.003 -0.002 0.001 -0.006 0.003 -0.007 0.004 -0.003 0.001 -0.005 0.002 -0.001 0.001 -0.026 0.013 -0.051 0.024 -0.01 0.004 -0.041 0.018 -0.011 0.005 -0.02 0.008 -0.01 0.004 -0.034 0.013 -0.002 0.001 -0.025 0.009 -0.02 0.007 -0.031 0.011 -0.022 0.007 -0.018 0.006 -0.022 0.007 -0.015 0.004 -0.01 0.003 -0.039 0.012 -0.006 0.002 -0.051 0.014 -0.013 0.004 -0.006 0.002 -0.014 0.004 -0.065 0.019 -0.01 0.003 -0.033 0.011 -0.001 0 -0.022 0.007 -0.029 0.01c-0.295,0.102 -0.735,0.313 -1.268,0.582 -0.533,0.269 -1.159,0.596 -1.919,0.922 -0.761,0.325 -1.656,0.65 -2.301,0.904 -0.645,0.254 -1.04,0.437 -1.514,0.628 -0.474,0.192 -1.027,0.39 -1.765,0.621 -0.738,0.232 -1.661,0.496 -2.558,0.836 -0.896,0.341 -1.766,0.759 -2.573,1.076 -0.808,0.316 -1.552,0.533 -2.299,0.749 -0.746,0.216 -1.496,0.432 -2.053,0.655 -0.557,0.222 -0.921,0.451 -1.207,0.636 -0.285,0.185 -0.491,0.326 -0.999,0.476 -0.508,0.15 -1.318,0.31 -1.914,0.463 -0.596,0.154 -0.978,0.301 -1.488,0.492 -0.51,0.192 -1.147,0.429 -1.75,0.617 -0.603,0.189 -1.171,0.329 -1.687,0.459 -0.516,0.13 -0.98,0.248 -1.7,0.426 -0.719,0.179 -1.693,0.418 -2.551,0.633 -0.857,0.216 -1.598,0.408 -2.171,0.57 -0.573,0.161 -0.979,0.292 -1.436,0.426 -0.456,0.134 -0.963,0.271 -1.427,0.4 -0.465,0.129 -0.887,0.249 -1.312,0.377 -0.424,0.128 -0.85,0.262 -1.203,0.399 -0.353,0.137 -0.632,0.277 -1.012,0.437 -0.38,0.159 -0.862,0.339 -1.279,0.53 -0.417,0.191 -0.769,0.394 -1.165,0.602 -0.397,0.209 -0.838,0.424 -1.221,0.617 -0.382,0.194 -0.705,0.366 -1.126,0.589 -0.421,0.223 -0.941,0.495 -1.657,0.865 -0.717,0.371 -1.631,0.838 -2.694,1.37 -1.063,0.532 -2.275,1.128 -3.18,1.576 -0.905,0.448 -1.504,0.747 -2.037,1.087 -0.533,0.341 -1.001,0.723 -1.443,1.08l-0.01 0.008 -0.008 0.007 -0.023 0.019 -0.005 0.003 -0.009 0.007 -0.017 0.014 -0.007 0.006 -0.01 0.008 -0.034 0.027 -0.004 0.003 -0.009 0.007 -0.006 0.006 -0.012 0.01 -0.002 0.001 -0.022 0.017c0.046,0.197 0.1,0.412 0.167,0.649 0.328,1.174 0.946,2.898 1.737,5.811 0.792,2.914 1.757,7.018 2.522,10.974 0.764,3.956 1.327,7.765 1.971,12.15 0.644,4.386 1.368,9.348 2.24,13.927 0.872,4.58 1.891,8.778 2.843,12.104 0.952,3.326 1.837,5.78 2.266,7.426 0.429,1.646 0.402,2.484 0.362,3.011 -0.04,0.526 -0.094,0.741 -0.225,1.071 -0.132,0.331 -0.341,0.778 -0.551,1.225 0.08,-0.05 0.184,-0.055 0.308,0.038 0.124,0.094 0.27,0.285 0.345,0.376 0.074,0.092 0.076,0.085 0.078,0.081 0.001,-0.004 0.001,-0.004 0.115,0.253 0.114,0.256 0.343,0.769 0.597,1.463 0.254,0.694 0.533,1.569 0.762,2.507 0.229,0.938 0.408,1.939 0.607,3.547 0.2,1.608 0.422,3.823 0.739,6.228 0.316,2.406 0.729,5.001 1.468,11.393 0.739,6.392 1.805,16.58 2.64,24.511 0.835,7.931 1.439,13.604 1.811,19.699 0.372,6.095 0.513,12.613 0.503,19.654 -0.01,7.04 -0.171,14.604 -0.372,20.609 -0.202,6.004 -0.443,10.45 -0.725,14.423 -0.281,3.973 -0.603,7.473 -1.448,14.162 -0.845,6.688 -2.213,16.566 -3.007,23.777 -0.795,7.212 -1.016,11.758 -1.217,15.269 -0.202,3.51 -0.383,5.984 -0.674,8.122 -0.292,2.137 -0.694,3.937 -0.973,5.315 -0.279,1.378 -0.436,2.334 -0.453,2.935 -0.018,0.601 0.103,0.847 0.249,0.975 0.146,0.129 0.317,0.138 0.5,0.175 0.184,0.036 0.38,0.099 0.469,0.155 0.019,0.011 0.032,0.022 0.042,0.037 0.876,0.322 1.753,0.645 3.155,0.925 1.401,0.28 3.329,0.518 6.493,0.754 3.163,0.237 7.562,0.472 11.099,0.609 3.537,0.138 6.212,0.178 9.592,0.181 3.38,0.003 7.463,-0.03 11.329,-0.007 3.866,0.024 7.513,0.104 10.591,0.191 3.078,0.088 5.586,0.181 7.916,0.252 2.33,0.07 4.483,0.117 6.789,0.171 2.307,0.053 4.768,0.114 7.356,0.121 2.589,0.006 5.304,-0.041 8.04,-0.098 2.736,-0.057 5.492,-0.124 7.953,-0.221 2.461,-0.097 4.626,-0.225 7.017,-0.355 2.39,-0.131 5.006,-0.265 8.261,-0.493 3.256,-0.228 7.151,-0.55 10.471,-0.852 3.319,-0.302 6.061,-0.583 8.794,-0.949 2.732,-0.365 5.455,-0.814 7.654,-1.25 2.2,-0.436 3.876,-0.858 6.001,-1.331 2.126,-0.473 4.701,-0.996 6.595,-1.321 1.894,-0.325 3.108,-0.453 4.268,-0.536 1.16,-0.084 2.267,-0.124 3.155,-0.117 0.889,0.008 1.559,0.063 1.956,0.094 0.396,0.031 0.518,0.038 0.611,0.043 0.049,0.002 0.09,0.004 0.127,0.006 0.093,-0.07 0.162,-0.18 0.177,-0.779 0.016,-0.673 -0.037,-1.966 -0.106,-2.786 -0.069,-0.819 -0.154,-1.166 -0.285,-1.855 -0.131,-0.689 -0.307,-1.72 -0.651,-2.686 -0.345,-0.965 -0.858,-1.866 -1.476,-3.045 -0.619,-1.179 -1.343,-2.638 -1.783,-3.616 -0.44,-0.978 -0.596,-1.476 -0.848,-2.693 -0.251,-1.217 -0.598,-3.153 -0.953,-5.871 -0.354,-2.718 -0.716,-6.219 -1.038,-8.884 -0.322,-2.666 -0.603,-4.496 -1.081,-7.559 -0.478,-3.062 -1.152,-7.357 -1.71,-11.521 -0.558,-4.164 -1.001,-8.198 -1.348,-12.226 -0.347,-4.028 -0.598,-8.051 -0.759,-11.637 -0.161,-3.586 -0.231,-6.734 -0.287,-9.787 -0.055,-3.052 -0.095,-6.01 -0.156,-9.258 -0.06,-3.249 -0.14,-6.79 -0.108,-12.037 0.033,-5.248 0.179,-12.203 0.352,-17.466 0.174,-5.263 0.375,-8.834 0.652,-12.807 0.276,-3.973 0.628,-8.348 0.975,-12.271 0.347,-3.922 0.689,-7.393 1.122,-11.743 0.432,-4.35 0.955,-9.58 1.483,-13.99 0.528,-4.411 1.061,-8.002 1.512,-10.619 0.45,-2.618 0.817,-4.262 1.139,-5.308 0.321,-1.046 0.598,-1.494 0.803,-1.766 0.205,-0.271 0.338,-0.367 0.405,-0.414z"/>
    </clipPath>
    <clipPath id="id2">
     <path d="M136.796 295.988c2.461,-0.097 4.626,-0.225 7.017,-0.355 2.39,-0.131 5.006,-0.265 8.261,-0.493 3.256,-0.228 7.151,-0.55 10.471,-0.852 3.319,-0.302 6.061,-0.583 8.794,-0.949 2.732,-0.365 5.455,-0.814 7.654,-1.25 2.2,-0.436 3.876,-0.858 6.001,-1.331 2.126,-0.473 4.701,-0.996 6.595,-1.321 1.894,-0.325 3.108,-0.453 4.268,-0.536 1.16,-0.084 2.267,-0.124 3.155,-0.117 0.889,0.008 1.559,0.063 1.956,0.094 0.396,0.031 0.518,0.038 0.611,0.043 0.049,0.002 0.09,0.004 0.127,0.006 0.093,-0.07 0.162,-0.18 0.177,-0.779 0.016,-0.673 -0.037,-1.966 -0.106,-2.786 -0.069,-0.819 -0.154,-1.166 -0.285,-1.855 -0.131,-0.689 -0.307,-1.72 -0.651,-2.686 -0.345,-0.965 -0.858,-1.866 -1.476,-3.045 -0.619,-1.179 -1.343,-2.638 -1.783,-3.616 -0.44,-0.978 -0.596,-1.476 -0.848,-2.693 -0.251,-1.217 -0.598,-3.153 -0.953,-5.871 -0.354,-2.718 -0.716,-6.219 -1.038,-8.884 -0.322,-2.666 -0.603,-4.496 -1.081,-7.559 -0.478,-3.062 -1.152,-7.357 -1.71,-11.521 -0.558,-4.164 -1.001,-8.198 -1.348,-12.226 -0.347,-4.028 -0.598,-8.051 -0.759,-11.637 -0.161,-3.586 -0.231,-6.734 -0.287,-9.787 -0.055,-3.052 -0.095,-6.01 -0.156,-9.258 -0.06,-3.249 -0.14,-6.79 -0.108,-12.037 0.033,-5.248 0.179,-12.203 0.352,-17.466 0.174,-5.263 0.375,-8.834 0.652,-12.807 0.276,-3.973 0.628,-8.348 0.975,-12.271 0.347,-3.922 0.689,-7.393 1.122,-11.743 0.432,-4.35 0.955,-9.58 1.483,-13.99 0.528,-4.411 1.061,-8.002 1.512,-10.619 0.45,-2.618 0.817,-4.262 1.139,-5.308 0.321,-1.046 0.598,-1.494 0.803,-1.766 0.205,-0.271 0.338,-0.367 0.405,-0.414 0.066,-0.048 0.066,-0.048 0.049,0.598 -0.018,0.646 -0.053,1.939 -0.108,3.533 -0.056,1.594 -0.131,3.49 -0.173,4.967 -0.041,1.478 -0.049,2.536 -0.079,3.186 -0.03,0.65 -0.083,0.892 -0.102,1.011 -0.018,0.119 -0.003,0.117 -0.041,0.151 -0.038,0.034 -0.128,0.104 -0.133,0.68 -0.005,0.576 0.075,1.657 0.192,3.051 0.117,1.395 0.27,3.102 0.322,4.786 0.051,1.683 0.001,3.343 0.002,4.231 0,0.887 0.052,1.003 0.132,1.078 0.08,0.076 0.188,0.111 1.001,0.06 0.814,-0.051 2.333,-0.188 4.105,-0.324 1.773,-0.137 3.8,-0.273 5.955,-0.431 2.155,-0.158 4.438,-0.339 6.588,-0.463 2.15,-0.123 4.166,-0.188 5.992,-0.299 1.826,-0.111 3.46,-0.267 5.336,-0.47 1.876,-0.204 3.993,-0.455 6.015,-0.682 2.021,-0.226 3.947,-0.427 5.109,-0.565 1.162,-0.139 1.559,-0.214 1.758,-0.327 0.199,-0.113 0.199,-0.264 0.229,-0.906 0.03,-0.641 0.09,-1.772 0.108,-3.132 0.017,-1.361 -0.008,-2.95 -0.023,-4.429 -0.015,-1.478 -0.02,-2.846 -0.038,-3.724 -0.017,-0.877 -0.047,-1.264 -0.071,-1.469 -0.025,-0.205 -0.043,-0.227 -0.083,-0.294 -0.04,-0.068 -0.103,-0.181 -0.174,-0.682 -0.071,-0.5 -0.152,-1.388 -0.255,-2.32 -0.103,-0.933 -0.229,-1.911 -0.348,-2.739 -0.12,-0.827 -0.233,-1.504 -0.413,-2.544 -0.179,-1.042 -0.426,-2.447 -0.613,-3.449 -0.187,-1.002 -0.316,-1.601 -0.436,-2.27 -0.121,-0.668 -0.234,-1.408 -0.366,-2.121 -0.132,-0.713 -0.283,-1.399 -0.425,-2.156 -0.142,-0.757 -0.275,-1.584 -0.375,-2.322 -0.099,-0.738 -0.165,-1.387 -0.239,-2.029 -0.074,-0.643 -0.157,-1.279 -0.257,-2.036 -0.101,-0.757 -0.219,-1.634 -0.34,-2.526 -0.121,-0.891 -0.244,-1.796 -0.353,-2.565 -0.11,-0.768 -0.205,-1.399 -0.373,-2.344 -0.168,-0.945 -0.408,-2.203 -0.82,-4.085 -0.412,-1.881 -0.995,-4.386 -1.704,-6.89 -0.709,-2.505 -1.544,-5.009 -2.651,-7.745 -1.106,-2.736 -2.484,-5.703 -4.093,-8.851 -1.61,-3.149 -3.45,-6.478 -4.878,-8.781 -1.429,-2.304 -2.444,-3.581 -3.453,-4.629 -1.008,-1.049 -2.009,-1.869 -3.015,-2.608 -1.006,-0.739 -2.017,-1.398 -2.582,-1.773 -0.566,-0.375 -0.687,-0.465 -0.756,-0.571 -0.069,-0.105 -0.087,-0.226 -0.095,-0.303 -0.009,-0.077 -0.009,-0.109 -0.07,-0.174 -0.06,-0.066 -0.181,-0.164 -1.307,-0.714 -1.127,-0.551 -3.259,-1.555 -5.31,-2.603 -2.05,-1.048 -4.019,-2.142 -5.77,-2.976 -1.752,-0.833 -3.286,-1.407 -5.061,-1.957 -1.775,-0.551 -3.792,-1.079 -5.429,-1.507 -1.637,-0.427 -2.894,-0.754 -3.762,-1.008 -0.867,-0.254 -1.345,-0.435 -2.044,-0.7 -0.699,-0.266 -1.619,-0.615 -2.606,-0.909 -0.987,-0.295 -2.041,-0.533 -2.716,-0.687 -0.675,-0.153 -0.972,-0.221 -1.44,-0.471 -0.467,-0.25 -1.106,-0.683 -1.581,-0.937 -0.475,-0.254 -0.787,-0.329 -1.073,-0.365 -0.285,-0.035 -0.544,-0.03 -0.777,-0.03 -0.232,0 -0.438,-0.005 -1.342,-0.33 -0.904,-0.326 -2.506,-0.972 -4.026,-1.577 -1.52,-0.605 -2.959,-1.168 -4.404,-1.748 -1.446,-0.579 -2.9,-1.175 -3.816,-1.569 -0.917,-0.393 -1.297,-0.584 -1.594,-0.779 -0.298,-0.194 -0.514,-0.392 -0.705,-0.497 -0.191,-0.105 -0.356,-0.116 -0.467,-0.117 -0.11,0 -0.164,0.01 -0.251,-0.004 -0.086,-0.014 -0.204,-0.052 -0.587,-0.292 -0.382,-0.24 -1.028,-0.682 -1.678,-1.193 -0.65,-0.51 -1.304,-1.089 -1.956,-1.661 -0.653,-0.572 -1.304,-1.138 -2.311,-1.569 -1.007,-0.431 -2.37,-0.728 -3.723,-0.919 -1.353,-0.191 -2.695,-0.276 -4.576,-0.354 -1.881,-0.078 -4.3,-0.149 -7.931,-0.131 -3.631,0.017 -8.474,0.123 -12.914,0.219 -4.439,0.096 -8.475,0.183 -10.597,0.231 -2.123,0.048 -2.332,0.058 -4.152,0.203 -1.82,0.145 -5.249,0.427 -7.404,0.671 -2.155,0.244 -3.035,0.45 -3.752,0.707 -0.717,0.256 -1.27,0.563 -1.886,1.078 -0.616,0.516 -1.295,1.24 -2.019,1.877 -0.725,0.638 -1.494,1.189 -1.953,1.46 -0.459,0.272 -0.607,0.264 -0.901,0.366 -0.295,0.102 -0.735,0.313 -1.268,0.582 -0.533,0.269 -1.159,0.596 -1.919,0.922 -0.761,0.325 -1.656,0.65 -2.301,0.904 -0.645,0.254 -1.04,0.437 -1.514,0.628 -0.474,0.192 -1.027,0.39 -1.765,0.621 -0.738,0.232 -1.661,0.496 -2.558,0.836 -0.896,0.341 -1.766,0.759 -2.573,1.076 -0.808,0.316 -1.552,0.533 -2.299,0.749 -0.746,0.216 -1.496,0.432 -2.053,0.655 -0.557,0.222 -0.921,0.451 -1.207,0.636 -0.285,0.185 -0.491,0.326 -0.999,0.476 -0.508,0.15 -1.318,0.31 -1.914,0.463 -0.596,0.154 -0.978,0.301 -1.488,0.492 -0.51,0.192 -1.147,0.429 -1.75,0.617 -0.603,0.189 -1.171,0.329 -1.687,0.459 -0.516,0.13 -0.98,0.248 -1.7,0.426 -0.719,0.179 -1.693,0.418 -2.551,0.633 -0.857,0.216 -1.598,0.408 -2.171,0.57 -0.573,0.161 -0.979,0.292 -1.436,0.426 -0.456,0.134 -0.963,0.271 -1.427,0.4 -0.465,0.129 -0.887,0.249 -1.312,0.377 -0.424,0.128 -0.85,0.262 -1.203,0.399 -0.353,0.137 -0.632,0.277 -1.012,0.437 -0.38,0.159 -0.862,0.339 -1.279,0.53 -0.417,0.191 -0.769,0.394 -1.165,0.602 -0.397,0.209 -0.838,0.424 -1.221,0.617 -0.382,0.194 -0.705,0.366 -1.126,0.589 -0.421,0.223 -0.941,0.495 -1.657,0.865 -0.717,0.371 -1.631,0.838 -2.694,1.37 -1.063,0.532 -2.275,1.128 -3.18,1.576 -0.905,0.448 -1.504,0.747 -2.037,1.087 -0.533,0.341 -1.001,0.723 -1.443,1.08 -0.443,0.358 -0.86,0.689 -1.353,1.079 -0.493,0.39 -1.061,0.837 -1.779,1.475 -0.718,0.637 -1.586,1.465 -2.375,2.331 -0.79,0.866 -1.501,1.771 -2.145,2.665 -0.644,0.894 -1.22,1.777 -1.924,2.935 -0.704,1.158 -1.536,2.591 -2.208,3.821 -0.671,1.229 -1.181,2.255 -1.732,3.264 -0.551,1.008 -1.141,1.999 -1.644,2.942 -0.503,0.943 -0.918,1.838 -1.313,2.759 -0.395,0.922 -0.77,1.87 -1.152,2.756 -0.382,0.887 -0.772,1.712 -1.285,3.043 -0.513,1.331 -1.149,3.17 -1.716,4.911 -0.567,1.741 -1.065,3.386 -1.49,4.836 -0.425,1.451 -0.777,2.709 -1.129,4.225 -0.352,1.516 -0.704,3.291 -1.144,5.668 -0.44,2.376 -0.968,5.353 -1.29,7.073 -0.322,1.72 -0.438,2.183 -0.543,2.673 -0.106,0.491 -0.201,1.009 -0.4,1.833 -0.198,0.825 -0.5,1.957 -0.807,3.143 -0.307,1.187 -0.618,2.43 -0.84,3.478 -0.221,1.049 -0.352,1.904 -0.575,3.166 -0.224,1.262 -0.541,2.932 -0.787,4.297 -0.247,1.366 -0.423,2.427 -0.529,2.975 -0.105,0.548 -0.14,0.583 -0.204,0.634 -0.063,0.05 -0.155,0.115 -0.251,2.246 -0.096,2.13 -0.197,6.326 -0.275,8.622 -0.078,2.297 -0.133,2.694 0.035,2.902 0.169,0.209 0.561,0.229 1.419,0.337 0.857,0.108 2.18,0.305 4.51,0.755 2.332,0.45 5.671,1.154 8.339,1.667 2.668,0.513 4.664,0.835 6.751,1.182 2.088,0.347 4.265,0.719 7.24,1.192 2.975,0.472 6.746,1.046 9.15,1.373 2.404,0.327 3.44,0.407 3.958,0.447 0.518,0.041 0.518,0.041 0.568,-0.543 0.049,-0.583 0.149,-1.75 0.263,-2.759 0.114,-1.009 0.242,-1.86 0.394,-2.937 0.152,-1.077 0.328,-2.379 0.498,-3.576 0.17,-1.197 0.333,-2.289 0.417,-2.902 0.085,-0.614 0.089,-0.749 0.076,-0.865 -0.014,-0.116 -0.047,-0.211 -0.023,-1.818 0.024,-1.607 0.104,-4.725 0.147,-7.257 0.043,-2.532 0.048,-4.478 0.059,-5.601 0.011,-1.123 0.029,-1.422 0.067,-1.618 0.038,-0.197 0.095,-0.29 0.176,-0.338 0.08,-0.05 0.184,-0.055 0.308,0.038 0.124,0.094 0.27,0.285 0.345,0.376 0.074,0.092 0.076,0.085 0.078,0.081 0.001,-0.004 0.001,-0.004 0.115,0.253 0.114,0.256 0.343,0.769 0.597,1.463 0.254,0.694 0.533,1.569 0.762,2.507 0.229,0.938 0.408,1.939 0.607,3.547 0.2,1.608 0.422,3.823 0.739,6.228 0.316,2.406 0.729,5.001 1.468,11.393 0.739,6.392 1.805,16.58 2.64,24.511 0.835,7.931 1.439,13.604 1.811,19.699 0.372,6.095 0.513,12.613 0.503,19.654 -0.01,7.04 -0.171,14.604 -0.372,20.609 -0.202,6.004 -0.443,10.45 -0.725,14.423 -0.281,3.973 -0.603,7.473 -1.448,14.162 -0.845,6.688 -2.213,16.566 -3.007,23.777 -0.795,7.212 -1.016,11.758 -1.217,15.269 -0.202,3.51 -0.383,5.984 -0.674,8.122 -0.292,2.137 -0.694,3.937 -0.973,5.315 -0.279,1.378 -0.436,2.334 -0.453,2.935 -0.018,0.601 0.103,0.847 0.249,0.975 0.146,0.129 0.317,0.138 0.5,0.175 0.184,0.036 0.38,0.099 0.469,0.155 0.019,0.011 0.032,0.022 0.042,0.037 0.876,0.322 1.753,0.645 3.155,0.925 1.401,0.28 3.329,0.518 6.493,0.754 3.163,0.237 7.562,0.472 11.099,0.609 3.537,0.138 6.212,0.178 9.592,0.181 3.38,0.003 7.463,-0.03 11.329,-0.007 3.866,0.024 7.513,0.104 10.591,0.191 3.078,0.088 5.586,0.181 7.916,0.252 2.33,0.07 4.483,0.117 6.789,0.171 2.307,0.053 4.768,0.114 7.356,0.121 2.589,0.006 5.304,-0.041 8.04,-0.098 2.736,-0.057 5.492,-0.124 7.953,-0.221z"/>
    </clipPath>
    <clipPath id="id3">
     <path d="M44.533 92.099c-0.429,-1.646 -1.314,-4.1 -2.266,-7.426 -0.952,-3.326 -1.971,-7.524 -2.843,-12.104 -0.872,-4.579 -1.596,-9.541 -2.24,-13.927 -0.644,-4.385 -1.207,-8.194 -1.971,-12.15 -0.765,-3.956 -1.73,-8.06 -2.522,-10.974 -0.791,-2.913 -1.409,-4.637 -1.737,-5.811 -0.067,-0.237 -0.121,-0.452 -0.167,-0.649l-0.108 0.087 -0.019 0.015 -0.307 0.246 -0.02 0.016 -0.078 0.062 -0.021 0.017 -0.171 0.135 -0.017 0.014 -0.05 0.04 -0.023 0.018 -0.064 0.051 -0.036 0.028 -0.019 0.015 -0.038 0.03 -0.038 0.03 -0.027 0.022 -0.056 0.044 -0.019 0.015 -0.064 0.051c-0.493,0.39 -1.061,0.837 -1.779,1.475 -0.718,0.637 -1.586,1.465 -2.375,2.331 -0.79,0.866 -1.501,1.771 -2.145,2.665 -0.644,0.894 -1.22,1.777 -1.924,2.935 -0.704,1.158 -1.536,2.591 -2.208,3.821 -0.671,1.229 -1.181,2.255 -1.732,3.264 -0.551,1.008 -1.141,1.999 -1.644,2.942 -0.503,0.943 -0.918,1.838 -1.313,2.759 -0.395,0.922 -0.77,1.87 -1.152,2.756 -0.382,0.887 -0.772,1.712 -1.285,3.043 -0.513,1.331 -1.149,3.17 -1.716,4.911 -0.567,1.741 -1.065,3.386 -1.49,4.836 -0.425,1.451 -0.777,2.709 -1.129,4.225 -0.352,1.516 -0.704,3.291 -1.144,5.668 -0.44,2.376 -0.968,5.353 -1.29,7.073 -0.322,1.72 -0.438,2.183 -0.543,2.673 -0.106,0.491 -0.201,1.009 -0.4,1.833 -0.198,0.825 -0.5,1.957 -0.807,3.143 -0.307,1.187 -0.618,2.43 -0.84,3.478 -0.221,1.049 -0.352,1.904 -0.575,3.166 -0.224,1.262 -0.541,2.932 -0.787,4.297 -0.247,1.366 -0.423,2.427 -0.529,2.975l-0.009 0.052 -0.008 0.037 -0.002 0.011 -0.005 0.025 -0.006 0.026 -0.005 0.025 -0.001 0.006 -0.004 0.018 -0.004 0.019 -0.005 0.025 -0.009 0.04 -0.003 0.014 -0.01 0.044 -0.004 0.015 -0.004 0.016 -0.004 0.015 -0.002 0.008 -0.005 0.016 -0.007 0.028 -0.001 0.003 -0.003 0.009 -0.005 0.016 -0.008 0.027 -0.006 0.015 -0.004 0.011 -0.003 0.006 -0.001 0.005 -0.003 0.006 -0.003 0.007 -0.005 0.011 0 0 -0.004 0.006 -0.003 0.006 -0.006 0.011 -0.003 0.005 -0.005 0.006 -0.005 0.007 -0.002 0.003 -0.006 0.006 -0.003 0.003 -0.004 0.004 -0.006 0.006 -0.007 0.006 -0.003 0.002 -0.005 0.004 -0.003 0.003c-0.063,0.05 -0.155,0.115 -0.251,2.246 -0.096,2.13 -0.197,6.326 -0.275,8.622 -0.078,2.297 -0.133,2.694 0.035,2.902 0.169,0.209 0.561,0.229 1.419,0.337 0.857,0.108 2.18,0.305 4.51,0.755 2.332,0.45 5.671,1.154 8.339,1.667 2.668,0.513 4.664,0.835 6.751,1.182 2.088,0.347 4.265,0.719 7.24,1.192 2.975,0.472 6.746,1.046 9.15,1.373 2.404,0.327 3.44,0.407 3.958,0.447 0.518,0.041 0.518,0.041 0.568,-0.543 0.049,-0.583 0.149,-1.75 0.263,-2.759 0.114,-1.009 0.242,-1.86 0.394,-2.937 0.152,-1.077 0.328,-2.379 0.498,-3.576 0.17,-1.197 0.333,-2.289 0.417,-2.902 0.085,-0.614 0.089,-0.749 0.076,-0.865l-0.001 -0.007 -0.001 -0.008 -0.001 -0.007 -0.001 -0.008 -0.002 -0.012 -0.001 -0.012 -0.002 -0.012 0 -0.002 -0.001 -0.013 -0.002 -0.019 0 -0.001c-0.004,-0.041 -0.009,-0.098 -0.012,-0.184l0 -0.009 -0.001 -0.033 0 -0.002 -0.004 -0.176 -0.001 -0.062 0 -0.048 0 -0.02 -0.001 -0.042 0 -0.031 0 -0.037 0 -0.042 0 -0.131 0 -0.049 0 -0.046 0 -0.043 0.001 -0.06 0 -0.031 0 -0.054 0 -0.043 0.001 -0.094 0 -0.009 0.002 -0.127 0.001 -0.096 0.001 -0.077 0.001 -0.085 0.001 -0.086c0.024,-1.607 0.104,-4.725 0.147,-7.257 0.043,-2.532 0.048,-4.478 0.059,-5.601 0.011,-1.123 0.029,-1.422 0.067,-1.618 0.038,-0.197 0.095,-0.29 0.176,-0.338 0.21,-0.447 0.419,-0.894 0.551,-1.225 0.131,-0.33 0.185,-0.545 0.225,-1.071 0.04,-0.527 0.067,-1.365 -0.362,-3.011zm-0.852 21.838l-0.007 -0.093 -0.005 -0.091m153.655 -4.155l-0.003 0.026 -0.001 0.007 -0.003 0.02 0 0.004c-0.004,0.028 -0.004,0.044 -0.007,0.056l-0.002 0.005 -0.001 0.003 -0.001 0.004 -0.001 0.002 -0.001 0.001 -0.002 0.003 -0.002 0.003 -0.001 0.001 -0.002 0.002 -0.002 0.002 0 0.001 -0.005 0.005 -0.004 0.003 -0.003 0.003c-0.038,0.034 -0.128,0.104 -0.133,0.68 -0.005,0.576 0.075,1.657 0.192,3.051 0.117,1.395 0.27,3.102 0.322,4.786 0.051,1.683 0.001,3.343 0.002,4.231 0,0.887 0.052,1.003 0.132,1.078 0.08,0.076 0.188,0.111 1.001,0.06 0.814,-0.051 2.333,-0.188 4.105,-0.324 1.773,-0.137 3.8,-0.273 5.955,-0.431 2.155,-0.158 4.438,-0.339 6.588,-0.463 2.15,-0.123 4.166,-0.188 5.992,-0.299 1.826,-0.111 3.46,-0.267 5.336,-0.47 1.876,-0.204 3.993,-0.455 6.015,-0.682 2.021,-0.226 3.947,-0.427 5.109,-0.565 1.162,-0.139 1.559,-0.214 1.758,-0.327 0.199,-0.113 0.199,-0.264 0.229,-0.906 0.03,-0.641 0.09,-1.772 0.108,-3.132 0.017,-1.361 -0.008,-2.95 -0.023,-4.429 -0.015,-1.478 -0.02,-2.846 -0.038,-3.724 -0.017,-0.877 -0.047,-1.264 -0.071,-1.469l-0.004 -0.031 -0.005 -0.037 -0.003 -0.016 -0.004 -0.03 -0.002 -0.007 -0.003 -0.019 -0.003 -0.015 -0.001 -0.002c-0.005,-0.022 -0.01,-0.04 -0.015,-0.055l-0.001 -0.001 -0.006 -0.016 -0.001 -0.001 -0.006 -0.013 0 -0.001 -0.002 -0.003 -0.007 -0.013 -0.001 -0.002 -0.003 -0.004 -0.002 -0.004 -0.002 -0.003 -0.002 -0.003 -0.004 -0.008 -0.002 -0.003 -0.004 -0.007c-0.04,-0.068 -0.103,-0.181 -0.174,-0.682 -0.071,-0.5 -0.152,-1.388 -0.255,-2.32 -0.103,-0.933 -0.229,-1.911 -0.348,-2.739 -0.12,-0.827 -0.233,-1.504 -0.413,-2.544 -0.179,-1.042 -0.426,-2.447 -0.613,-3.449 -0.187,-1.002 -0.316,-1.601 -0.436,-2.27 -0.121,-0.668 -0.234,-1.408 -0.366,-2.121 -0.132,-0.713 -0.283,-1.399 -0.425,-2.156 -0.142,-0.757 -0.275,-1.584 -0.375,-2.322 -0.099,-0.738 -0.165,-1.387 -0.239,-2.029 -0.074,-0.643 -0.157,-1.279 -0.257,-2.036 -0.101,-0.757 -0.219,-1.634 -0.34,-2.526 -0.121,-0.891 -0.244,-1.796 -0.353,-2.565 -0.11,-0.768 -0.205,-1.399 -0.373,-2.344 -0.168,-0.945 -0.408,-2.203 -0.82,-4.085 -0.412,-1.881 -0.995,-4.386 -1.704,-6.89 -0.709,-2.505 -1.544,-5.009 -2.651,-7.745 -1.106,-2.736 -2.484,-5.703 -4.093,-8.851 -1.61,-3.149 -3.45,-6.478 -4.878,-8.781 -1.429,-2.304 -2.444,-3.581 -3.453,-4.629 -1.008,-1.049 -2.009,-1.869 -3.015,-2.608 -1.006,-0.739 -2.017,-1.398 -2.582,-1.773 -0.566,-0.375 -0.687,-0.465 -0.756,-0.571l-0.002 -0.003 -0.002 -0.004 -0.002 -0.003 -0.003 -0.005 -0.004 -0.006 -0.001 -0.001 -0.002 -0.005 -0.002 -0.003 -0.003 -0.005 -0.002 -0.005 -0.003 -0.006 -0.002 -0.002 -0.002 -0.005 -0.007 -0.016 -0.001 -0.002 -0.001 -0.002 -0.002 -0.005 -0.004 -0.008 -0.001 -0.003c-0.845,2.177 -1.681,4.372 -2.474,6.668 -0.979,2.837 -1.891,5.827 -2.716,11.172 -0.825,5.344 -1.562,13.042 -2.347,18.902 -0.784,5.861 -1.616,9.884 -2.444,13.19 -0.828,3.306 -1.653,5.894 -2.313,7.962 -0.661,2.069 -1.157,3.618 -1.398,4.644 -0.242,1.026 -0.228,1.529 -0.221,1.78 0.006,0.252 0.006,0.252 0.16,0.59 0.155,0.339 0.463,1.016 0.601,1.639 0.139,0.623 0.107,1.192 0.075,1.761 0.066,-0.048 0.066,-0.048 0.049,0.598 -0.018,0.646 -0.053,1.939 -0.108,3.533 -0.056,1.594 -0.131,3.49 -0.173,4.967 -0.041,1.478 -0.049,2.536 -0.079,3.186 -0.03,0.65 -0.083,0.892 -0.102,1.011z"/>
    </clipPath>
    <clipPath id="id4">
     <path d="M136.796 295.988c2.461,-0.097 4.626,-0.225 7.017,-0.355 2.39,-0.131 5.006,-0.265 8.261,-0.493 3.256,-0.228 7.151,-0.55 10.471,-0.852 3.319,-0.302 6.061,-0.583 8.794,-0.949 2.732,-0.365 5.455,-0.814 7.654,-1.25 2.2,-0.436 3.876,-0.858 6.001,-1.331 2.126,-0.473 4.701,-0.996 6.595,-1.321 1.894,-0.325 3.108,-0.453 4.268,-0.536 1.16,-0.084 2.267,-0.124 3.155,-0.117 0.889,0.008 1.559,0.063 1.956,0.094 0.396,0.031 0.518,0.038 0.611,0.043 0.049,0.002 0.09,0.004 0.127,0.006 0.093,-0.07 0.162,-0.18 0.177,-0.779 0.016,-0.673 -0.037,-1.966 -0.106,-2.786 -0.069,-0.819 -0.154,-1.166 -0.285,-1.855 -0.131,-0.689 -0.307,-1.72 -0.651,-2.686 -0.345,-0.965 -0.858,-1.866 -1.476,-3.045 -0.619,-1.179 -1.343,-2.638 -1.783,-3.616 -0.44,-0.978 -0.596,-1.476 -0.848,-2.693 -0.251,-1.217 -0.598,-3.153 -0.953,-5.871 -0.354,-2.718 -0.716,-6.219 -1.038,-8.884 -0.322,-2.666 -0.603,-4.496 -1.081,-7.559 -0.478,-3.062 -1.152,-7.357 -1.71,-11.521 -0.558,-4.164 -1.001,-8.198 -1.348,-12.226 -0.347,-4.028 -0.598,-8.051 -0.759,-11.637 -0.161,-3.586 -0.231,-6.734 -0.287,-9.787 -0.055,-3.052 -0.095,-6.01 -0.156,-9.258 -0.06,-3.249 -0.14,-6.79 -0.108,-12.037 0.033,-5.248 0.179,-12.203 0.352,-17.466 0.174,-5.263 0.375,-8.834 0.652,-12.807 0.276,-3.973 0.628,-8.348 0.975,-12.271 0.347,-3.922 0.689,-7.393 1.122,-11.743 0.432,-4.35 0.955,-9.58 1.483,-13.99 0.528,-4.411 1.061,-8.002 1.512,-10.619 0.45,-2.618 0.817,-4.262 1.139,-5.308 0.321,-1.046 0.598,-1.494 0.803,-1.766 0.205,-0.271 0.338,-0.367 0.405,-0.414 0.066,-0.048 0.066,-0.048 0.049,0.598 -0.018,0.646 -0.053,1.939 -0.108,3.533 -0.056,1.594 -0.131,3.49 -0.173,4.967 -0.041,1.478 -0.049,2.536 -0.079,3.186 -0.03,0.65 -0.083,0.892 -0.102,1.011 -0.018,0.119 -0.003,0.117 -0.041,0.151 -0.038,0.034 -0.128,0.104 -0.133,0.68 -0.005,0.576 0.075,1.657 0.192,3.051 0.117,1.395 0.27,3.102 0.322,4.786 0.051,1.683 0.001,3.343 0.002,4.231 0,0.887 0.052,1.003 0.132,1.078 0.08,0.076 0.188,0.111 1.001,0.06 0.814,-0.051 2.333,-0.188 4.105,-0.324 1.773,-0.137 3.8,-0.273 5.955,-0.431 2.155,-0.158 4.438,-0.339 6.588,-0.463 2.15,-0.123 4.166,-0.188 5.992,-0.299 1.826,-0.111 3.46,-0.267 5.336,-0.47 1.876,-0.204 3.993,-0.455 6.015,-0.682 2.021,-0.226 3.947,-0.427 5.109,-0.565 1.162,-0.139 1.559,-0.214 1.758,-0.327 0.199,-0.113 0.199,-0.264 0.229,-0.906 0.03,-0.641 0.09,-1.772 0.108,-3.132 0.017,-1.361 -0.008,-2.95 -0.023,-4.429 -0.015,-1.478 -0.02,-2.846 -0.038,-3.724 -0.017,-0.877 -0.047,-1.264 -0.071,-1.469 -0.025,-0.205 -0.043,-0.227 -0.083,-0.294 -0.04,-0.068 -0.103,-0.181 -0.174,-0.682 -0.071,-0.5 -0.152,-1.388 -0.255,-2.32 -0.103,-0.933 -0.229,-1.911 -0.348,-2.739 -0.12,-0.827 -0.233,-1.504 -0.413,-2.544 -0.179,-1.042 -0.426,-2.447 -0.613,-3.449 -0.187,-1.002 -0.316,-1.601 -0.436,-2.27 -0.121,-0.668 -0.234,-1.408 -0.366,-2.121 -0.132,-0.713 -0.283,-1.399 -0.425,-2.156 -0.142,-0.757 -0.275,-1.584 -0.375,-2.322 -0.099,-0.738 -0.165,-1.387 -0.239,-2.029 -0.074,-0.643 -0.157,-1.279 -0.257,-2.036 -0.101,-0.757 -0.219,-1.634 -0.34,-2.526 -0.121,-0.891 -0.244,-1.796 -0.353,-2.565 -0.11,-0.768 -0.205,-1.399 -0.373,-2.344 -0.168,-0.945 -0.408,-2.203 -0.82,-4.085 -0.412,-1.881 -0.995,-4.386 -1.704,-6.89 -0.709,-2.505 -1.544,-5.009 -2.651,-7.745 -1.106,-2.736 -2.484,-5.703 -4.093,-8.851 -1.61,-3.149 -3.45,-6.478 -4.878,-8.781 -1.429,-2.304 -2.444,-3.581 -3.453,-4.629 -1.008,-1.049 -2.009,-1.869 -3.015,-2.608 -1.006,-0.739 -2.017,-1.398 -2.582,-1.773 -0.566,-0.375 -0.687,-0.465 -0.756,-0.571 -0.069,-0.105 -0.087,-0.226 -0.095,-0.303 -0.009,-0.077 -0.009,-0.109 -0.07,-0.174 -0.06,-0.066 -0.181,-0.164 -1.307,-0.714 -1.127,-0.551 -3.259,-1.555 -5.31,-2.603 -2.05,-1.048 -4.019,-2.142 -5.77,-2.976 -1.752,-0.833 -3.286,-1.407 -5.061,-1.957 -1.775,-0.551 -3.792,-1.079 -5.429,-1.507 -1.637,-0.427 -2.894,-0.754 -3.762,-1.008 -0.867,-0.254 -1.345,-0.435 -2.044,-0.7 -0.699,-0.266 -1.619,-0.615 -2.606,-0.909 -0.987,-0.295 -2.041,-0.533 -2.716,-0.687 -0.675,-0.153 -0.972,-0.221 -1.44,-0.471 -0.467,-0.25 -1.106,-0.683 -1.581,-0.937 -0.475,-0.254 -0.787,-0.329 -1.073,-0.365 -0.285,-0.035 -0.544,-0.03 -0.777,-0.03 -0.232,0 -0.438,-0.005 -1.342,-0.33 -0.904,-0.326 -2.506,-0.972 -4.026,-1.577 -1.52,-0.605 -2.959,-1.168 -4.404,-1.748 -1.446,-0.579 -2.9,-1.175 -3.816,-1.569 -0.917,-0.393 -1.297,-0.584 -1.594,-0.779 -0.298,-0.194 -0.514,-0.392 -0.705,-0.497 -0.191,-0.105 -0.356,-0.116 -0.467,-0.117 -0.11,0 -0.164,0.01 -0.251,-0.004 -0.086,-0.014 -0.204,-0.052 -0.587,-0.292 -0.382,-0.24 -1.028,-0.682 -1.678,-1.193 -0.65,-0.51 -1.304,-1.089 -1.956,-1.661 -0.653,-0.572 -1.304,-1.138 -2.311,-1.569 -1.007,-0.431 -2.37,-0.728 -3.723,-0.919 -1.353,-0.191 -2.695,-0.276 -4.576,-0.354 -1.881,-0.078 -4.3,-0.149 -7.931,-0.131 -3.631,0.017 -8.474,0.123 -12.914,0.219 -4.439,0.096 -8.475,0.183 -10.597,0.231 -2.123,0.048 -2.332,0.058 -4.152,0.203 -1.82,0.145 -5.249,0.427 -7.404,0.671 -2.155,0.244 -3.035,0.45 -3.752,0.707 -0.717,0.256 -1.27,0.563 -1.886,1.078 -0.616,0.516 -1.295,1.24 -2.019,1.877 -0.725,0.638 -1.494,1.189 -1.953,1.46 -0.459,0.272 -0.607,0.264 -0.901,0.366 -0.295,0.102 -0.735,0.313 -1.268,0.582 -0.533,0.269 -1.159,0.596 -1.919,0.922 -0.761,0.325 -1.656,0.65 -2.301,0.904 -0.645,0.254 -1.04,0.437 -1.514,0.628 -0.474,0.192 -1.027,0.39 -1.765,0.621 -0.738,0.232 -1.661,0.496 -2.558,0.836 -0.896,0.341 -1.766,0.759 -2.573,1.076 -0.808,0.316 -1.552,0.533 -2.299,0.749 -0.746,0.216 -1.496,0.432 -2.053,0.655 -0.557,0.222 -0.921,0.451 -1.207,0.636 -0.285,0.185 -0.491,0.326 -0.999,0.476 -0.508,0.15 -1.318,0.31 -1.914,0.463 -0.596,0.154 -0.978,0.301 -1.488,0.492 -0.51,0.192 -1.147,0.429 -1.75,0.617 -0.603,0.189 -1.171,0.329 -1.687,0.459 -0.516,0.13 -0.98,0.248 -1.7,0.426 -0.719,0.179 -1.693,0.418 -2.551,0.633 -0.857,0.216 -1.598,0.408 -2.171,0.57 -0.573,0.161 -0.979,0.292 -1.436,0.426 -0.456,0.134 -0.963,0.271 -1.427,0.4 -0.465,0.129 -0.887,0.249 -1.312,0.377 -0.424,0.128 -0.85,0.262 -1.203,0.399 -0.353,0.137 -0.632,0.277 -1.012,0.437 -0.38,0.159 -0.862,0.339 -1.279,0.53 -0.417,0.191 -0.769,0.394 -1.165,0.602 -0.397,0.209 -0.838,0.424 -1.221,0.617 -0.382,0.194 -0.705,0.366 -1.126,0.589 -0.421,0.223 -0.941,0.495 -1.657,0.865 -0.717,0.371 -1.631,0.838 -2.694,1.37 -1.063,0.532 -2.275,1.128 -3.18,1.576 -0.905,0.448 -1.504,0.747 -2.037,1.087 -0.533,0.341 -1.001,0.723 -1.443,1.08 -0.443,0.358 -0.86,0.689 -1.353,1.079 -0.493,0.39 -1.061,0.837 -1.779,1.475 -0.718,0.637 -1.586,1.465 -2.375,2.331 -0.79,0.866 -1.501,1.771 -2.145,2.665 -0.644,0.894 -1.22,1.777 -1.924,2.935 -0.704,1.158 -1.536,2.591 -2.208,3.821 -0.671,1.229 -1.181,2.255 -1.732,3.264 -0.551,1.008 -1.141,1.999 -1.644,2.942 -0.503,0.943 -0.918,1.838 -1.313,2.759 -0.395,0.922 -0.77,1.87 -1.152,2.756 -0.382,0.887 -0.772,1.712 -1.285,3.043 -0.513,1.331 -1.149,3.17 -1.716,4.911 -0.567,1.741 -1.065,3.386 -1.49,4.836 -0.425,1.451 -0.777,2.709 -1.129,4.225 -0.352,1.516 -0.704,3.291 -1.144,5.668 -0.44,2.376 -0.968,5.353 -1.29,7.073 -0.322,1.72 -0.438,2.183 -0.543,2.673 -0.106,0.491 -0.201,1.009 -0.4,1.833 -0.198,0.825 -0.5,1.957 -0.807,3.143 -0.307,1.187 -0.618,2.43 -0.84,3.478 -0.221,1.049 -0.352,1.904 -0.575,3.166 -0.224,1.262 -0.541,2.932 -0.787,4.297 -0.247,1.366 -0.423,2.427 -0.529,2.975 -0.105,0.548 -0.14,0.583 -0.204,0.634 -0.063,0.05 -0.155,0.115 -0.251,2.246 -0.096,2.13 -0.197,6.326 -0.275,8.622 -0.078,2.297 -0.133,2.694 0.035,2.902 0.169,0.209 0.561,0.229 1.419,0.337 0.857,0.108 2.18,0.305 4.51,0.755 2.332,0.45 5.671,1.154 8.339,1.667 2.668,0.513 4.664,0.835 6.751,1.182 2.088,0.347 4.265,0.719 7.24,1.192 2.975,0.472 6.746,1.046 9.15,1.373 2.404,0.327 3.44,0.407 3.958,0.447 0.518,0.041 0.518,0.041 0.568,-0.543 0.049,-0.583 0.149,-1.75 0.263,-2.759 0.114,-1.009 0.242,-1.86 0.394,-2.937 0.152,-1.077 0.328,-2.379 0.498,-3.576 0.17,-1.197 0.333,-2.289 0.417,-2.902 0.085,-0.614 0.089,-0.749 0.076,-0.865 -0.014,-0.116 -0.047,-0.211 -0.023,-1.818 0.024,-1.607 0.104,-4.725 0.147,-7.257 0.043,-2.532 0.048,-4.478 0.059,-5.601 0.011,-1.123 0.029,-1.422 0.067,-1.618 0.038,-0.197 0.095,-0.29 0.176,-0.338 0.08,-0.05 0.184,-0.055 0.308,0.038 0.124,0.094 0.27,0.285 0.345,0.376 0.074,0.092 0.076,0.085 0.078,0.081 0.001,-0.004 0.001,-0.004 0.115,0.253 0.114,0.256 0.343,0.769 0.597,1.463 0.254,0.694 0.533,1.569 0.762,2.507 0.229,0.938 0.408,1.939 0.607,3.547 0.2,1.608 0.422,3.823 0.739,6.228 0.316,2.406 0.729,5.001 1.468,11.393 0.739,6.392 1.805,16.58 2.64,24.511 0.835,7.931 1.439,13.604 1.811,19.699 0.372,6.095 0.513,12.613 0.503,19.654 -0.01,7.04 -0.171,14.604 -0.372,20.609 -0.202,6.004 -0.443,10.45 -0.725,14.423 -0.281,3.973 -0.603,7.473 -1.448,14.162 -0.845,6.688 -2.213,16.566 -3.007,23.777 -0.795,7.212 -1.016,11.758 -1.217,15.269 -0.202,3.51 -0.383,5.984 -0.674,8.122 -0.292,2.137 -0.694,3.937 -0.973,5.315 -0.279,1.378 -0.436,2.334 -0.453,2.935 -0.018,0.601 0.103,0.847 0.249,0.975 0.146,0.129 0.317,0.138 0.5,0.175 0.184,0.036 0.38,0.099 0.469,0.155 0.019,0.011 0.032,0.022 0.042,0.037 0.876,0.322 1.753,0.645 3.155,0.925 1.401,0.28 3.329,0.518 6.493,0.754 3.163,0.237 7.562,0.472 11.099,0.609 3.537,0.138 6.212,0.178 9.592,0.181 3.38,0.003 7.463,-0.03 11.329,-0.007 3.866,0.024 7.513,0.104 10.591,0.191 3.078,0.088 5.586,0.181 7.916,0.252 2.33,0.07 4.483,0.117 6.789,0.171 2.307,0.053 4.768,0.114 7.356,0.121 2.589,0.006 5.304,-0.041 8.04,-0.098 2.736,-0.057 5.492,-0.124 7.953,-0.221z"/>
    </clipPath>
 </defs>
 <g id="VETORES">
  <metadata id="CorelCorpID_0Corel-Layer"/>
  <g>
  </g>
  <g clip-path="url(#id0)">
   <g id="_2012377912192">
    <g>
    </g>
   </g>
   <g clip-path="url(#id1)">
    <g>
     <g>
      <g id="Camada_1-2" data-name="Camada 1">
       <g>
        <polygon fill="#4D1387" fill-rule="nonzero" points="303.653,-161.495 308.668,-162.75 269.997,-214.525 270.762,-214.714 316.974,-152.843 311.959,-151.588 350.63,-99.815 349.865,-99.624 "/>
        <polygon fill="#4D1387" fill-rule="nonzero" points="331.217,-168.388 336.231,-169.641 297.561,-221.416 298.325,-221.607 344.538,-159.734 339.523,-158.482 378.194,-106.707 377.429,-106.515 "/>
        <polygon fill="#4D1387" fill-rule="nonzero" points="325.125,-228.309 325.889,-228.5 372.103,-166.627 371.337,-166.436 "/>
        <polygon fill="#4D1387" fill-rule="nonzero" points="352.688,-235.201 353.453,-235.392 399.665,-173.519 398.901,-173.329 "/>
        <polygon fill="#4D1387" fill-rule="nonzero" points="282.181,-94.683 287.196,-95.938 248.526,-147.711 253.54,-148.965 214.87,-200.74 215.634,-200.931 261.848,-139.059 256.832,-137.804 295.504,-86.031 290.488,-84.776 329.159,-33.003 328.395,-32.812 "/>
        <polygon fill="#4D1387" fill-rule="nonzero" points="309.745,-101.576 314.76,-102.829 276.089,-154.604 281.104,-155.857 242.433,-207.632 243.198,-207.823 289.41,-145.95 284.396,-144.697 323.066,-92.922 318.052,-91.669 356.722,-39.894 355.959,-39.703 "/>
        <polygon fill="#4D1387" fill-rule="nonzero" points="260.71,-27.871 265.725,-29.125 227.054,-80.899 232.069,-82.153 193.398,-133.926 198.414,-135.181 159.742,-186.956 160.507,-187.145 206.72,-125.274 201.706,-124.019 240.375,-72.246 235.362,-70.992 274.031,-19.217 269.016,-17.964 307.687,33.811 306.922,34.002 "/>
        <polygon fill="#4D1387" fill-rule="nonzero" points="288.274,-34.762 293.288,-36.017 254.618,-87.791 259.633,-89.045 220.962,-140.819 225.978,-142.072 187.306,-193.847 188.072,-194.038 234.284,-132.165 229.268,-130.912 267.939,-79.138 262.924,-77.885 301.595,-26.11 296.58,-24.855 335.251,26.918 334.486,27.109 "/>
        <polygon fill="#4D1387" fill-rule="nonzero" points="239.239,38.942 244.253,37.689 205.584,-14.086 210.597,-15.339 171.928,-67.114 176.941,-68.369 138.272,-120.142 143.287,-121.396 104.616,-173.169 105.381,-173.361 151.593,-111.489 146.578,-110.235 185.249,-58.462 180.234,-57.207 218.905,-5.432 213.89,-4.179 252.561,47.595 247.545,48.849 286.215,100.623 285.452,100.815 "/>
        <polygon fill="#4D1387" fill-rule="nonzero" points="266.802,32.05 271.817,30.795 233.146,-20.978 238.161,-22.232 199.49,-74.007 204.505,-75.26 165.836,-127.035 170.849,-128.288 132.18,-180.063 132.943,-180.254 179.157,-118.381 174.142,-117.128 212.813,-65.353 207.798,-64.1 246.467,-12.325 241.454,-11.071 280.123,40.702 275.109,41.957 313.779,93.73 313.016,93.921 "/>
        <polygon fill="#4D1387" fill-rule="nonzero" points="217.767,105.754 222.782,104.501 184.111,52.726 189.127,51.473 150.455,-0.302 155.471,-1.556 116.8,-53.329 121.815,-54.584 83.145,-106.357 88.159,-107.612 49.489,-159.385 50.253,-159.576 96.467,-97.705 91.451,-96.45 130.121,-44.677 125.107,-43.423 163.777,8.352 158.763,9.605 197.433,61.38 192.417,62.633 231.089,114.408 226.073,115.661 264.744,167.436 263.979,167.627 "/>
        <polygon fill="#4D1387" fill-rule="nonzero" points="245.331,98.862 250.345,97.608 211.675,45.835 216.689,44.58 178.02,-7.193 183.035,-8.448 144.364,-60.223 149.379,-61.475 110.708,-113.25 115.723,-114.503 77.052,-166.278 77.817,-166.469 124.029,-104.596 119.015,-103.343 157.685,-51.568 152.67,-50.316 191.341,1.459 186.326,2.714 224.997,54.487 219.981,55.742 258.653,107.515 253.637,108.769 292.308,160.544 291.544,160.736 "/>
        <polygon fill="#4D1387" fill-rule="nonzero" points="196.295,172.568 201.31,171.313 162.641,119.538 167.654,118.286 128.985,66.511 133.998,65.258 95.329,13.483 100.344,12.228 61.673,-39.545 66.688,-40.799 28.017,-92.573 28.782,-92.764 74.994,-30.893 69.979,-29.638 108.65,22.137 103.635,23.39 142.306,75.165 137.291,76.417 175.962,128.192 170.947,129.447 209.618,181.22 204.603,182.475 243.272,234.248 242.509,234.439 "/>
        <polygon fill="#4D1387" fill-rule="nonzero" points="223.859,165.675 228.874,164.42 190.203,112.647 195.218,111.392 156.547,59.619 161.563,58.365 122.891,6.592 127.907,5.337 89.237,-46.438 94.251,-47.691 55.581,-99.466 56.344,-99.657 102.558,-37.784 97.543,-36.529 136.214,15.244 131.199,16.498 169.87,68.272 164.855,69.526 203.524,121.299 198.511,122.554 237.18,174.329 232.167,175.582 270.836,227.356 270.071,227.548 "/>
        <polygon fill="#4D1387" fill-rule="nonzero" points="174.824,239.38 179.84,238.126 141.169,186.353 146.184,185.098 107.513,133.323 112.528,132.07 73.856,80.295 78.872,79.042 40.201,27.268 45.216,26.014 6.546,-25.76 7.31,-25.951 53.523,35.921 48.508,37.174 87.178,88.949 82.164,90.202 120.834,141.977 115.82,143.232 154.49,195.005 149.476,196.259 188.146,248.032 183.13,249.287 221.802,301.06 221.036,301.252 "/>
        <polygon fill="#4D1387" fill-rule="nonzero" points="202.389,232.487 207.402,231.234 168.733,179.459 173.746,178.206 135.077,126.432 140.092,125.177 101.421,73.404 106.436,72.149 67.765,20.376 72.78,19.121 34.109,-32.653 34.874,-32.843 81.086,29.028 76.072,30.283 114.742,82.056 109.727,83.311 148.398,135.084 143.383,136.338 182.054,188.113 177.039,189.366 215.71,241.141 210.695,242.394 249.366,294.169 248.601,294.36 "/>
        <polygon fill="#4D1387" fill-rule="nonzero" points="153.352,306.193 158.367,304.938 119.698,253.165 124.711,251.91 86.042,200.137 91.055,198.882 52.386,147.109 57.401,145.854 18.73,94.08 23.745,92.827 -14.926,41.052 -14.161,40.861 32.051,102.734 27.036,103.987 65.707,155.761 60.692,157.016 99.363,208.789 94.348,210.044 133.019,261.817 128.004,263.072 166.675,314.846 161.66,316.099 200.329,367.874 199.566,368.065 "/>
        <polygon fill="#4D1387" fill-rule="nonzero" points="180.916,299.299 185.932,298.047 147.26,246.272 152.276,245.019 113.604,193.244 118.619,191.989 79.95,140.216 84.964,138.962 46.294,87.188 51.308,85.934 12.638,34.16 13.402,33.969 59.615,95.84 54.6,97.095 93.271,148.868 88.256,150.123 126.925,201.898 121.912,203.151 160.581,254.926 155.568,256.178 194.238,307.953 189.224,309.206 227.893,360.981 227.128,361.172 "/>
        <polygon fill="#4D1387" fill-rule="nonzero" points="131.881,373.005 136.897,371.75 98.225,319.977 103.241,318.722 64.57,266.949 69.585,265.695 30.914,213.921 35.929,212.667 -2.742,160.894 2.273,159.639 -36.397,107.864 -35.633,107.673 10.581,169.546 5.565,170.8 44.235,222.574 39.221,223.828 77.891,275.601 72.877,276.856 111.547,328.631 106.531,329.884 145.203,381.659 140.187,382.912 178.859,434.687 178.094,434.878 "/>
        <polygon fill="#4D1387" fill-rule="nonzero" points="159.446,366.114 164.459,364.859 125.79,313.086 130.803,311.831 92.134,260.056 97.149,258.803 58.478,207.029 63.493,205.774 24.822,154.001 29.837,152.746 -8.834,100.973 -8.069,100.782 38.143,162.655 33.129,163.907 71.799,215.682 66.784,216.935 105.455,268.71 100.44,269.963 139.111,321.738 134.096,322.993 172.767,374.766 167.752,376.02 206.423,427.793 205.658,427.985 "/>
        <polygon fill="#4D1387" fill-rule="nonzero" points="110.409,439.819 115.424,438.564 76.753,386.789 81.768,385.536 43.099,333.762 48.113,332.507 9.443,280.734 14.458,279.479 -24.213,227.706 -19.198,226.451 -57.869,174.678 -57.104,174.487 -10.892,236.358 -15.907,237.613 22.764,289.386 17.749,290.641 56.42,342.415 51.405,343.668 90.076,395.443 85.061,396.696 123.732,448.471 118.717,449.724 157.386,501.499 156.623,501.69 "/>
        <polygon fill="#4D1387" fill-rule="nonzero" points="137.973,432.926 142.988,431.671 104.317,379.898 109.333,378.643 70.661,326.87 75.677,325.615 37.007,273.841 42.021,272.588 3.351,220.813 8.365,219.56 -30.305,167.785 -29.541,167.594 16.672,229.467 11.657,230.72 50.328,282.495 45.313,283.748 83.983,335.522 78.969,336.777 117.639,388.55 112.625,389.805 151.294,441.578 146.281,442.833 184.95,494.607 184.186,494.797 "/>
        <polygon fill="#4D1387" fill-rule="nonzero" points="-131.571,561.769 -126.556,560.514 -165.225,508.741 -164.462,508.55 -118.248,570.421 -123.263,571.676 -84.594,623.449 -85.357,623.64 "/>
        <polygon fill="#4D1387" fill-rule="nonzero" points="-104.007,554.876 -98.991,553.623 -137.663,501.848 -136.898,501.657 -90.685,563.53 -95.701,564.783 -57.029,616.558 -57.795,616.749 "/>
        <polygon fill="#4D1387" fill-rule="nonzero" points="-76.443,547.985 -71.429,546.73 -110.098,494.955 -105.083,493.702 -143.754,441.927 -142.99,441.736 -96.777,503.609 -101.792,504.864 -63.121,556.637 -68.137,557.892 -29.465,609.665 -30.231,609.856 "/>
        <polygon fill="#4D1387" fill-rule="nonzero" points="-48.879,541.092 -43.865,539.838 -82.534,488.064 -77.521,486.809 -116.19,435.036 -115.427,434.845 -69.213,496.716 -74.228,497.971 -35.557,549.745 -40.573,550.998 -1.903,602.773 -2.667,602.964 "/>
        <polygon fill="#4D1387" fill-rule="nonzero" points="-21.316,534.2 -16.301,532.946 -54.972,481.171 -49.957,479.918 -88.628,428.143 -83.613,426.89 -122.282,375.115 -121.519,374.924 -75.305,436.797 -80.32,438.05 -41.651,489.825 -46.664,491.079 -7.995,542.852 -13.008,544.107 25.661,595.88 24.898,596.071 "/>
        <polygon fill="#4D1387" fill-rule="nonzero" points="6.248,527.307 11.263,526.054 -27.408,474.279 -22.393,473.025 -61.064,421.252 -56.049,419.997 -94.72,368.224 -93.955,368.032 -47.743,429.904 -52.756,431.158 -14.087,482.933 -19.102,484.186 19.569,535.961 14.554,537.214 53.225,588.989 52.46,589.18 "/>
        <polygon fill="#4D1387" fill-rule="nonzero" points="33.81,520.416 38.826,519.161 0.156,467.386 5.17,466.133 -33.5,414.358 -28.486,413.105 -67.156,361.331 -62.14,360.078 -100.812,308.303 -100.047,308.112 -53.834,369.984 -58.85,371.237 -20.178,423.012 -25.194,424.267 13.477,476.04 8.462,477.295 47.133,529.068 42.118,530.322 80.789,582.095 80.024,582.287 "/>
        <polygon fill="#4D1387" fill-rule="nonzero" points="61.374,513.523 66.39,512.27 27.719,460.495 32.734,459.24 -5.937,407.467 -0.922,406.212 -39.592,354.439 -34.578,353.185 -73.248,301.41 -72.484,301.22 -26.27,363.091 -31.286,364.346 7.386,416.119 2.37,417.374 41.04,469.147 36.026,470.401 74.696,522.176 69.682,523.429 108.352,575.204 107.588,575.395 "/>
        <polygon fill="#4D1387" fill-rule="nonzero" points="88.938,506.631 93.954,505.376 55.283,453.602 60.298,452.349 21.627,400.574 26.642,399.321 -12.029,347.546 -7.014,346.293 -45.685,294.518 -40.67,293.264 -79.339,241.491 -78.576,241.299 -32.362,303.171 -37.377,304.425 1.292,356.2 -3.722,357.453 34.948,409.228 29.934,410.481 68.604,462.255 63.589,463.51 102.26,515.283 97.244,516.538 135.916,568.311 135.151,568.502 "/>
        <polygon fill="#4D1387" fill-rule="nonzero" points="116.503,499.738 121.516,498.485 82.847,446.71 87.86,445.456 49.191,393.682 54.206,392.428 15.535,340.655 20.55,339.4 -18.121,287.625 -13.106,286.372 -51.777,234.597 -51.012,234.406 -4.8,296.279 -9.815,297.532 28.856,349.307 23.841,350.561 62.512,402.335 57.497,403.589 96.168,455.362 91.153,456.617 129.824,508.392 124.809,509.645 163.48,561.42 162.715,561.611 "/>
        <polygon fill="#4D1387" fill-rule="nonzero" points="-186.698,575.554 -185.932,575.362 -139.72,637.234 -140.485,637.425 "/>
        <polygon fill="#4D1387" fill-rule="nonzero" points="-159.133,568.661 -158.37,568.469 -112.156,630.342 -112.921,630.534 "/>
       </g>
      </g>
     </g>
    </g>
   </g>
   <g clip-path="url(#id2)">
    <path fill="none" d="M197.737 96.303c0.032,-0.569 0.064,-1.138 -0.075,-1.761 -0.138,-0.623 -0.446,-1.3 -0.601,-1.639 -0.154,-0.338 -0.154,-0.338 -0.16,-0.59 -0.007,-0.251 -0.021,-0.754 0.221,-1.78 0.241,-1.026 0.737,-2.575 1.398,-4.644 0.66,-2.068 1.485,-4.656 2.313,-7.962 0.828,-3.306 1.66,-7.329 2.444,-13.19 0.785,-5.86 1.522,-13.558 2.347,-18.902 0.825,-5.345 1.737,-8.335 2.716,-11.172 0.793,-2.296 1.629,-4.491 2.474,-6.668 -0.032,-0.079 -0.043,-0.158 -0.049,-0.214 -0.009,-0.077 -0.009,-0.109 -0.07,-0.174 -0.06,-0.066 -0.181,-0.164 -1.307,-0.714 -1.127,-0.551 -3.259,-1.555 -5.31,-2.603 -2.05,-1.048 -4.019,-2.142 -5.77,-2.976 -1.752,-0.833 -3.286,-1.407 -5.061,-1.957 -1.775,-0.551 -3.792,-1.079 -5.429,-1.507 -1.637,-0.427 -2.894,-0.754 -3.762,-1.008 -0.867,-0.254 -1.345,-0.435 -2.044,-0.7 -0.699,-0.266 -1.619,-0.615 -2.606,-0.909 -0.987,-0.295 -2.041,-0.533 -2.716,-0.687 -0.675,-0.153 -0.972,-0.221 -1.44,-0.471 -0.467,-0.25 -1.106,-0.683 -1.581,-0.937 -0.475,-0.254 -0.787,-0.329 -1.073,-0.365 -0.285,-0.035 -0.544,-0.03 -0.777,-0.03 -0.232,0 -0.438,-0.005 -1.342,-0.33 -0.904,-0.326 -2.506,-0.972 -4.026,-1.577 -1.52,-0.605 -2.959,-1.168 -4.404,-1.748 -1.446,-0.579 -2.9,-1.175 -3.816,-1.569 -0.917,-0.393 -1.297,-0.584 -1.594,-0.779 -0.298,-0.194 -0.514,-0.392 -0.705,-0.497 -0.191,-0.105 -0.356,-0.116 -0.467,-0.117 -0.078,0 -0.128,0.005 -0.182,0.003 -0.022,-0.001 -0.044,-0.003 -0.069,-0.007 -0.086,-0.014 -0.204,-0.052 -0.587,-0.292 -0.382,-0.24 -1.028,-0.682 -1.678,-1.193 -0.65,-0.51 -1.304,-1.089 -1.956,-1.661 -0.653,-0.572 -1.304,-1.138 -2.311,-1.569 -1.007,-0.431 -2.37,-0.728 -3.723,-0.919 -1.353,-0.191 -2.695,-0.276 -4.576,-0.354 -1.881,-0.078 -4.3,-0.149 -7.931,-0.131 -3.631,0.017 -8.474,0.123 -12.914,0.219 -4.439,0.096 -8.475,0.183 -10.597,0.231 -2.123,0.048 -2.332,0.058 -4.152,0.203 -1.82,0.145 -5.249,0.427 -7.404,0.671 -2.155,0.244 -3.035,0.45 -3.752,0.707 -0.717,0.256 -1.27,0.563 -1.886,1.078 -0.616,0.516 -1.295,1.24 -2.019,1.877 -0.725,0.638 -1.494,1.189 -1.953,1.46 -0.104,0.062 -0.192,0.109 -0.27,0.147 -0.264,0.127 -0.404,0.14 -0.631,0.219 -0.295,0.102 -0.735,0.313 -1.268,0.582 -0.533,0.269 -1.159,0.596 -1.919,0.922 -0.761,0.325 -1.656,0.65 -2.301,0.904 -0.645,0.254 -1.04,0.437 -1.514,0.628 -0.474,0.192 -1.027,0.39 -1.765,0.621 -0.738,0.232 -1.661,0.496 -2.558,0.836 -0.896,0.341 -1.766,0.759 -2.573,1.076 -0.808,0.316 -1.552,0.533 -2.299,0.749 -0.746,0.216 -1.496,0.432 -2.053,0.655 -0.557,0.222 -0.921,0.451 -1.207,0.636 -0.285,0.185 -0.491,0.326 -0.999,0.476 -0.508,0.15 -1.318,0.31 -1.914,0.463 -0.596,0.154 -0.978,0.301 -1.488,0.492 -0.51,0.192 -1.147,0.429 -1.75,0.617 -0.603,0.189 -1.171,0.329 -1.687,0.459 -0.516,0.13 -0.98,0.248 -1.7,0.426 -0.719,0.179 -1.693,0.418 -2.551,0.633 -0.857,0.216 -1.598,0.408 -2.171,0.57 -0.573,0.161 -0.979,0.292 -1.436,0.426 -0.456,0.134 -0.963,0.271 -1.427,0.4 -0.465,0.129 -0.887,0.249 -1.312,0.377 -0.424,0.128 -0.85,0.262 -1.203,0.399 -0.353,0.137 -0.632,0.277 -1.012,0.437 -0.38,0.159 -0.862,0.339 -1.279,0.53 -0.417,0.191 -0.769,0.394 -1.165,0.602 -0.397,0.209 -0.838,0.424 -1.221,0.617 -0.382,0.194 -0.705,0.366 -1.126,0.589 -0.421,0.223 -0.941,0.495 -1.657,0.865 -0.717,0.371 -1.631,0.838 -2.694,1.37 -1.063,0.532 -2.275,1.128 -3.18,1.576 -0.905,0.448 -1.504,0.747 -2.037,1.087 -0.533,0.341 -1.001,0.723 -1.443,1.08 -0.06,0.048 -0.119,0.096 -0.178,0.143 0.046,0.197 0.1,0.412 0.167,0.649 0.328,1.174 0.946,2.898 1.737,5.811 0.792,2.914 1.757,7.018 2.522,10.974 0.764,3.956 1.327,7.765 1.971,12.15 0.644,4.386 1.368,9.348 2.24,13.927 0.872,4.58 1.891,8.778 2.843,12.104 0.952,3.326 1.837,5.78 2.266,7.426 0.429,1.646 0.402,2.484 0.362,3.011 -0.04,0.526 -0.094,0.741 -0.225,1.071 -0.132,0.331 -0.341,0.778 -0.551,1.225 0.08,-0.05 0.184,-0.055 0.308,0.038 0.124,0.094 0.27,0.285 0.345,0.376 0.074,0.092 0.076,0.085 0.078,0.081 0.001,-0.004 0.001,-0.004 0.115,0.253 0.114,0.256 0.343,0.769 0.597,1.463 0.254,0.694 0.533,1.569 0.762,2.507 0.229,0.938 0.408,1.939 0.607,3.547 0.2,1.608 0.422,3.823 0.739,6.228 0.316,2.406 0.729,5.001 1.468,11.393 0.739,6.392 1.805,16.58 2.64,24.511 0.835,7.931 1.439,13.604 1.811,19.699 0.372,6.095 0.513,12.613 0.503,19.654 -0.01,7.04 -0.171,14.604 -0.372,20.609 -0.202,6.004 -0.443,10.45 -0.725,14.423 -0.281,3.973 -0.603,7.473 -1.448,14.162 -0.845,6.688 -2.213,16.566 -3.007,23.777 -0.795,7.212 -1.016,11.758 -1.217,15.269 -0.202,3.51 -0.383,5.984 -0.674,8.122 -0.292,2.137 -0.694,3.937 -0.973,5.315 -0.279,1.378 -0.436,2.334 -0.453,2.935 -0.018,0.601 0.103,0.847 0.249,0.975 0.146,0.129 0.317,0.138 0.5,0.175 0.184,0.036 0.38,0.099 0.469,0.155 0.019,0.011 0.032,0.022 0.042,0.037 0.876,0.322 1.753,0.645 3.155,0.925 1.401,0.28 3.329,0.518 6.493,0.754 3.163,0.237 7.562,0.472 11.099,0.609 3.537,0.138 6.212,0.178 9.592,0.181 3.38,0.003 7.463,-0.03 11.329,-0.007 3.866,0.024 7.513,0.104 10.591,0.191 3.078,0.088 5.586,0.181 7.916,0.252 2.33,0.07 4.483,0.117 6.789,0.171 2.307,0.053 4.768,0.114 7.356,0.121 2.589,0.006 5.304,-0.041 8.04,-0.098 2.736,-0.057 5.492,-0.124 7.953,-0.221 2.461,-0.097 4.626,-0.225 7.017,-0.355 2.39,-0.131 5.006,-0.265 8.261,-0.493 3.256,-0.228 7.151,-0.55 10.471,-0.852 3.319,-0.302 6.061,-0.583 8.794,-0.949 2.732,-0.365 5.455,-0.814 7.654,-1.25 2.2,-0.436 3.876,-0.858 6.001,-1.331 2.126,-0.473 4.701,-0.996 6.595,-1.321 1.894,-0.325 3.108,-0.453 4.268,-0.536 1.16,-0.084 2.267,-0.124 3.155,-0.117 0.889,0.008 1.559,0.063 1.956,0.094 0.396,0.031 0.518,0.038 0.611,0.043 0.049,0.002 0.09,0.004 0.127,0.006 0.093,-0.07 0.162,-0.18 0.177,-0.779 0.016,-0.673 -0.037,-1.966 -0.106,-2.786 -0.069,-0.819 -0.154,-1.166 -0.285,-1.855 -0.131,-0.689 -0.307,-1.72 -0.651,-2.686 -0.345,-0.965 -0.858,-1.866 -1.476,-3.045 -0.619,-1.179 -1.343,-2.638 -1.783,-3.616 -0.44,-0.978 -0.596,-1.476 -0.848,-2.693 -0.251,-1.217 -0.598,-3.153 -0.953,-5.871 -0.354,-2.718 -0.716,-6.219 -1.038,-8.884 -0.322,-2.666 -0.603,-4.496 -1.081,-7.559 -0.478,-3.062 -1.152,-7.357 -1.71,-11.521 -0.558,-4.164 -1.001,-8.198 -1.348,-12.226 -0.347,-4.028 -0.598,-8.051 -0.759,-11.637 -0.161,-3.586 -0.231,-6.734 -0.287,-9.787 -0.055,-3.052 -0.095,-6.01 -0.156,-9.258 -0.06,-3.249 -0.14,-6.79 -0.108,-12.037 0.033,-5.248 0.179,-12.203 0.352,-17.466 0.174,-5.263 0.375,-8.834 0.652,-12.807 0.276,-3.973 0.628,-8.348 0.975,-12.271 0.347,-3.922 0.689,-7.393 1.122,-11.743 0.432,-4.35 0.955,-9.58 1.483,-13.99 0.528,-4.411 1.061,-8.002 1.512,-10.619 0.45,-2.618 0.817,-4.262 1.139,-5.308 0.321,-1.046 0.598,-1.494 0.803,-1.766 0.205,-0.271 0.338,-0.367 0.405,-0.414z"/>
    <g>
    </g>
   </g>
   <g clip-path="url(#id3)">
    <g>
     <g>
      <g id="Camada_1-2_0" data-name="Camada 1">
       <g>
        <polygon fill="#4D1387" fill-rule="nonzero" points="225.978,-202.307 231.142,-202.553 203.388,-260.912 204.175,-260.948 237.341,-191.208 232.177,-190.962 259.932,-132.605 259.144,-132.567 "/>
        <polygon fill="#4D1387" fill-rule="nonzero" points="254.359,-203.655 259.521,-203.899 231.768,-262.258 232.554,-262.296 265.722,-192.554 260.558,-192.31 288.313,-133.951 287.525,-133.914 "/>
        <polygon fill="#4D1387" fill-rule="nonzero" points="260.149,-263.606 260.935,-263.643 294.103,-193.902 293.315,-193.864 "/>
        <polygon fill="#4D1387" fill-rule="nonzero" points="288.528,-264.952 289.316,-264.989 322.482,-195.248 321.696,-195.212 "/>
        <polygon fill="#4D1387" fill-rule="nonzero" points="191.807,-141.01 196.971,-141.256 169.218,-199.613 174.38,-199.859 146.628,-258.218 147.413,-258.255 180.581,-188.514 175.417,-188.268 203.172,-129.911 198.008,-129.665 225.763,-71.308 224.975,-71.271 "/>
        <polygon fill="#4D1387" fill-rule="nonzero" points="220.188,-142.358 225.352,-142.602 197.597,-200.961 202.761,-201.205 175.006,-259.564 175.794,-259.602 208.96,-189.861 203.798,-189.616 231.551,-131.257 226.389,-131.013 254.142,-72.654 253.356,-72.616 "/>
        <polygon fill="#4D1387" fill-rule="nonzero" points="157.638,-79.713 162.802,-79.959 135.047,-138.316 140.211,-138.562 112.456,-196.919 117.62,-197.165 89.866,-255.524 90.653,-255.56 123.82,-185.82 118.658,-185.574 146.411,-127.217 141.248,-126.971 169.001,-68.613 163.838,-68.369 191.592,-10.009 190.804,-9.972 "/>
        <polygon fill="#4D1387" fill-rule="nonzero" points="186.019,-81.059 191.181,-81.305 163.428,-139.664 168.592,-139.908 140.837,-198.267 146.001,-198.511 118.247,-256.87 119.034,-256.908 152.201,-187.166 147.037,-186.923 174.791,-128.563 169.628,-128.319 197.382,-69.96 192.218,-69.715 219.973,-11.357 219.185,-11.32 "/>
        <polygon fill="#4D1387" fill-rule="nonzero" points="123.469,-18.416 128.631,-18.66 100.878,-77.019 106.04,-77.263 78.287,-135.622 83.45,-135.868 55.696,-194.225 60.86,-194.471 33.106,-252.828 33.893,-252.866 67.06,-183.126 61.896,-182.881 89.651,-124.523 84.487,-124.278 112.241,-65.918 107.078,-65.674 134.832,-7.315 129.668,-7.071 157.421,51.287 156.635,51.325 "/>
        <polygon fill="#4D1387" fill-rule="nonzero" points="151.848,-19.762 157.012,-20.008 129.257,-78.366 134.421,-78.611 106.667,-136.97 111.83,-137.214 84.077,-195.573 89.239,-195.817 61.487,-254.176 62.273,-254.214 95.441,-184.472 90.277,-184.228 118.031,-125.869 112.868,-125.625 140.62,-67.266 135.458,-67.02 163.211,-8.663 158.049,-8.417 185.802,49.94 185.016,49.977 "/>
        <polygon fill="#4D1387" fill-rule="nonzero" points="89.298,42.881 94.462,42.637 66.707,-15.722 71.871,-15.966 44.116,-74.325 49.28,-74.571 21.526,-132.929 26.69,-133.174 -1.063,-191.531 4.099,-191.777 -23.654,-250.134 -22.868,-250.172 10.3,-180.432 5.136,-180.187 32.889,-121.83 27.727,-121.584 55.48,-63.225 50.318,-62.98 78.07,-4.622 72.907,-4.378 100.661,53.981 95.497,54.225 123.252,112.585 122.464,112.622 "/>
        <polygon fill="#4D1387" fill-rule="nonzero" points="117.679,41.535 122.841,41.289 95.088,-17.068 100.25,-17.314 72.497,-75.671 77.661,-75.917 49.907,-134.276 55.07,-134.52 27.316,-192.879 32.479,-193.123 4.725,-251.482 5.513,-251.52 38.679,-181.779 33.517,-181.534 61.27,-123.175 56.106,-122.932 83.86,-64.573 78.696,-64.327 106.451,-5.969 101.287,-5.724 129.042,52.634 123.878,52.879 151.633,111.238 150.845,111.276 "/>
        <polygon fill="#4D1387" fill-rule="nonzero" points="55.127,104.179 60.291,103.934 32.538,45.575 37.7,45.33 9.947,-13.028 15.109,-13.273 -12.644,-71.631 -7.48,-71.877 -35.234,-130.235 -30.07,-130.48 -57.825,-188.838 -57.037,-188.875 -23.871,-119.136 -29.035,-118.89 -1.28,-60.531 -6.444,-60.287 21.31,-1.928 16.147,-1.684 43.901,56.675 38.737,56.921 66.492,115.279 61.328,115.524 89.081,173.881 88.295,173.919 "/>
        <polygon fill="#4D1387" fill-rule="nonzero" points="83.508,102.831 88.672,102.586 60.917,44.229 66.081,43.983 38.326,-14.375 43.49,-14.62 15.736,-72.978 20.9,-73.224 -6.853,-131.582 -1.691,-131.826 -29.444,-190.185 -28.658,-190.223 4.51,-120.481 -0.654,-120.236 27.1,-61.879 21.937,-61.633 49.691,-3.275 44.527,-3.03 72.281,55.328 67.118,55.574 94.871,113.932 89.709,114.176 117.462,172.535 116.674,172.573 "/>
        <polygon fill="#4D1387" fill-rule="nonzero" points="20.958,165.476 26.122,165.231 -1.633,106.873 3.531,106.628 -24.223,48.268 -19.06,48.024 -46.814,-10.335 -41.65,-10.579 -69.405,-68.938 -64.242,-69.182 -91.994,-127.541 -91.208,-127.578 -58.04,-57.837 -63.204,-57.593 -35.451,0.766 -40.613,1.011 -12.86,59.369 -18.023,59.615 9.73,117.972 4.568,118.218 32.321,176.575 27.157,176.821 54.912,235.178 54.124,235.216 "/>
        <polygon fill="#4D1387" fill-rule="nonzero" points="49.339,164.129 54.501,163.884 26.748,105.525 31.91,105.281 4.157,46.923 9.321,46.677 -18.434,-11.681 -13.27,-11.926 -41.024,-70.284 -35.86,-70.53 -63.615,-128.888 -62.828,-128.924 -29.661,-59.185 -34.823,-58.939 -7.07,-0.582 -12.234,-0.336 15.521,58.022 10.357,58.267 38.111,116.626 32.947,116.87 60.702,175.229 55.538,175.473 83.292,233.833 82.505,233.87 "/>
        <polygon fill="#4D1387" fill-rule="nonzero" points="-13.213,226.773 -8.049,226.527 -35.802,168.17 -30.64,167.924 -58.393,109.567 -53.231,109.321 -80.984,50.964 -75.82,50.719 -103.574,-7.64 -98.41,-7.885 -126.165,-66.244 -125.377,-66.281 -92.211,3.46 -97.375,3.704 -69.62,62.063 -74.784,62.309 -47.03,120.666 -52.193,120.912 -24.439,179.269 -29.603,179.515 -1.848,237.874 -7.012,238.118 20.741,296.477 19.955,296.515 "/>
        <polygon fill="#4D1387" fill-rule="nonzero" points="15.168,225.426 20.332,225.182 -7.423,166.822 -2.259,166.578 -30.014,108.219 -24.85,107.974 -52.603,49.617 -47.441,49.371 -75.194,-8.987 -70.031,-9.233 -97.784,-67.59 -96.998,-67.627 -63.83,2.112 -68.994,2.358 -41.239,60.716 -46.403,60.961 -18.651,119.32 -23.813,119.564 3.94,177.923 -1.222,178.167 26.531,236.526 21.369,236.771 49.122,295.129 48.334,295.167 "/>
        <polygon fill="#4D1387" fill-rule="nonzero" points="-47.382,288.07 -42.218,287.825 -69.973,229.467 -64.809,229.222 -92.564,170.864 -87.4,170.618 -115.155,112.261 -109.991,112.015 -137.745,53.658 -132.581,53.412 -160.334,-4.946 -159.548,-4.984 -126.38,64.757 -131.544,65.003 -103.791,123.36 -108.953,123.606 -81.2,181.963 -86.363,182.209 -58.61,240.568 -63.773,240.812 -36.019,299.171 -41.183,299.415 -13.428,357.774 -14.216,357.812 "/>
        <polygon fill="#4D1387" fill-rule="nonzero" points="-19.002,286.724 -13.839,286.478 -41.592,228.121 -36.43,227.875 -64.183,169.516 -59.019,169.272 -86.774,110.913 -81.61,110.668 -109.364,52.31 -104.2,52.065 -131.955,-6.293 -131.167,-6.33 -98.001,63.411 -103.163,63.655 -75.411,122.014 -80.574,122.258 -52.82,180.617 -57.983,180.861 -30.229,239.22 -35.393,239.466 -7.638,297.823 -12.802,298.069 14.953,356.426 14.165,356.464 "/>
        <polygon fill="#4D1387" fill-rule="nonzero" points="-81.553,349.369 -76.389,349.123 -104.144,290.764 -98.98,290.52 -126.733,232.161 -121.571,231.915 -149.324,173.558 -144.16,173.312 -171.915,114.955 -166.751,114.709 -194.505,56.352 -193.717,56.315 -160.551,126.054 -165.715,126.3 -137.96,184.657 -143.124,184.903 -115.37,243.262 -120.533,243.506 -92.779,301.865 -97.943,302.109 -70.188,360.468 -75.352,360.712 -47.599,419.071 -48.385,419.108 "/>
        <polygon fill="#4D1387" fill-rule="nonzero" points="-53.173,348.021 -48.009,347.776 -75.763,289.418 -70.599,289.172 -98.354,230.815 -93.19,230.569 -120.943,172.21 -115.781,171.966 -143.533,113.607 -138.371,113.363 -166.124,55.004 -165.338,54.967 -132.17,124.708 -137.334,124.952 -109.58,183.311 -114.743,183.555 -86.991,241.914 -92.153,242.16 -64.4,300.517 -69.562,300.763 -41.809,359.12 -46.971,359.366 -19.218,417.725 -20.006,417.761 "/>
        <polygon fill="#4D1387" fill-rule="nonzero" points="-342.766,421.441 -337.602,421.196 -365.355,362.838 -364.569,362.801 -331.4,432.541 -336.564,432.786 -308.811,491.144 -309.597,491.181 "/>
        <polygon fill="#4D1387" fill-rule="nonzero" points="-314.384,420.094 -309.221,419.85 -336.975,361.491 -336.188,361.453 -303.022,431.194 -308.185,431.438 -280.431,489.797 -281.218,489.835 "/>
        <polygon fill="#4D1387" fill-rule="nonzero" points="-286.004,418.748 -280.842,418.502 -308.594,360.143 -303.431,359.899 -331.185,301.54 -330.398,301.502 -297.231,371.244 -302.395,371.489 -274.64,429.847 -279.804,430.092 -252.05,488.45 -252.837,488.487 "/>
        <polygon fill="#4D1387" fill-rule="nonzero" points="-257.623,417.4 -252.461,417.156 -280.214,358.797 -275.052,358.551 -302.805,300.194 -302.018,300.156 -268.85,369.896 -274.014,370.142 -246.26,428.501 -251.424,428.745 -223.671,487.103 -224.457,487.141 "/>
        <polygon fill="#4D1387" fill-rule="nonzero" points="-229.244,416.054 -224.08,415.808 -251.834,357.449 -246.671,357.205 -274.425,298.846 -269.261,298.602 -297.014,240.243 -296.228,240.205 -263.061,309.947 -268.224,310.191 -240.471,368.549 -245.634,368.795 -217.88,427.153 -223.043,427.399 -195.29,485.756 -196.076,485.794 "/>
        <polygon fill="#4D1387" fill-rule="nonzero" points="-200.863,414.706 -195.699,414.462 -223.454,356.103 -218.29,355.857 -246.045,297.5 -240.881,297.254 -268.635,238.897 -267.848,238.859 -234.681,308.599 -239.843,308.845 -212.091,367.204 -217.254,367.447 -189.5,425.807 -194.664,426.051 -166.909,484.41 -167.697,484.447 "/>
        <polygon fill="#4D1387" fill-rule="nonzero" points="-172.484,413.359 -167.32,413.114 -195.073,354.755 -189.911,354.511 -217.664,296.152 -212.502,295.908 -240.254,237.549 -235.091,237.305 -262.845,178.946 -262.058,178.908 -228.891,248.65 -234.055,248.894 -206.301,307.253 -211.465,307.498 -183.71,365.856 -188.874,366.102 -161.119,424.459 -166.283,424.705 -138.528,483.062 -139.316,483.099 "/>
        <polygon fill="#4D1387" fill-rule="nonzero" points="-144.103,412.012 -138.939,411.768 -166.694,353.409 -161.53,353.163 -189.285,294.806 -184.121,294.56 -211.874,236.203 -206.711,235.957 -234.464,177.598 -233.679,177.562 -200.51,247.302 -205.674,247.548 -177.92,305.905 -183.083,306.151 -155.33,364.508 -160.493,364.754 -132.74,423.113 -137.902,423.357 -110.149,481.716 -110.935,481.753 "/>
        <polygon fill="#4D1387" fill-rule="nonzero" points="-115.723,410.666 -110.559,410.42 -138.313,352.061 -133.149,351.817 -160.904,293.458 -155.74,293.214 -183.495,234.855 -178.331,234.611 -206.085,176.252 -200.921,176.006 -228.674,117.649 -227.888,117.612 -194.72,187.351 -199.884,187.597 -172.131,245.956 -177.293,246.2 -149.541,304.559 -154.703,304.803 -126.95,363.162 -132.114,363.408 -104.359,421.765 -109.523,422.01 -81.768,480.368 -82.556,480.405 "/>
        <polygon fill="#4D1387" fill-rule="nonzero" points="-87.341,409.318 -82.18,409.074 -109.932,350.715 -104.77,350.469 -132.523,292.112 -127.359,291.866 -155.114,233.509 -149.95,233.263 -177.704,174.904 -172.541,174.66 -200.295,116.301 -199.508,116.264 -166.341,186.005 -171.505,186.249 -143.751,244.608 -148.914,244.854 -121.16,303.211 -126.324,303.457 -98.569,361.814 -103.733,362.06 -75.978,420.419 -81.142,420.663 -53.388,479.022 -54.175,479.059 "/>
        <polygon fill="#4D1387" fill-rule="nonzero" points="-399.526,424.135 -398.738,424.098 -365.571,493.838 -366.359,493.875 "/>
        <polygon fill="#4D1387" fill-rule="nonzero" points="-371.144,422.788 -370.359,422.75 -337.191,492.491 -337.978,492.529 "/>
       </g>
      </g>
     </g>
     <g>
      <g id="Camada_1-2_1" data-name="Camada 1">
       <g>
        <polygon fill="#4D1387" fill-rule="nonzero" points="432.098,-247.695 437.025,-249.263 395.169,-298.499 395.921,-298.737 445.938,-239.899 441.011,-238.331 482.867,-189.096 482.115,-188.857 "/>
        <polygon fill="#4D1387" fill-rule="nonzero" points="459.173,-256.31 464.098,-257.876 422.245,-307.113 422.995,-307.352 473.013,-248.513 468.087,-246.946 509.942,-197.709 509.191,-197.47 "/>
        <polygon fill="#4D1387" fill-rule="nonzero" points="449.32,-315.728 450.07,-315.967 500.088,-257.128 499.337,-256.889 "/>
        <polygon fill="#4D1387" fill-rule="nonzero" points="476.394,-324.342 477.145,-324.581 527.162,-265.741 526.412,-265.504 "/>
        <polygon fill="#4D1387" fill-rule="nonzero" points="414.876,-179.663 419.802,-181.231 377.949,-230.466 382.874,-232.034 341.021,-281.271 341.77,-281.509 391.789,-222.67 386.862,-221.102 428.717,-171.867 423.791,-170.299 465.646,-121.064 464.895,-120.825 "/>
        <polygon fill="#4D1387" fill-rule="nonzero" points="441.951,-188.278 446.878,-189.845 405.023,-239.081 409.949,-240.647 368.094,-289.884 368.846,-290.123 418.862,-231.283 413.938,-229.717 455.791,-180.48 450.867,-178.914 492.72,-129.677 491.97,-129.439 "/>
        <polygon fill="#4D1387" fill-rule="nonzero" points="397.656,-111.631 402.582,-113.199 360.727,-162.434 365.654,-164.002 323.799,-213.237 328.725,-214.805 286.87,-264.042 287.621,-264.279 337.638,-205.441 332.714,-203.873 374.567,-154.638 369.642,-153.07 411.496,-103.833 406.569,-102.267 448.424,-53.03 447.673,-52.791 "/>
        <polygon fill="#4D1387" fill-rule="nonzero" points="424.731,-120.245 429.656,-121.813 387.803,-171.049 392.729,-172.616 350.874,-221.852 355.8,-223.419 313.945,-272.655 314.697,-272.894 364.714,-214.054 359.787,-212.488 401.642,-163.251 396.716,-161.685 438.571,-112.449 433.645,-110.881 475.5,-61.646 474.748,-61.407 "/>
        <polygon fill="#4D1387" fill-rule="nonzero" points="380.435,-43.599 385.36,-45.166 343.507,-94.402 348.432,-95.968 306.578,-145.205 311.503,-146.773 269.65,-196.008 274.576,-197.576 232.721,-246.811 233.472,-247.05 283.489,-188.212 278.563,-186.644 320.418,-137.409 315.492,-135.841 357.347,-86.604 352.42,-85.038 394.275,-35.801 389.349,-34.235 431.202,15.002 430.453,15.241 "/>
        <polygon fill="#4D1387" fill-rule="nonzero" points="407.509,-52.213 412.435,-53.781 370.581,-103.016 375.507,-104.584 333.652,-153.82 338.578,-155.387 296.725,-204.623 301.65,-206.19 259.796,-255.426 260.546,-255.665 310.565,-196.826 305.638,-195.259 347.493,-146.023 342.567,-144.456 384.42,-95.22 379.496,-93.652 421.349,-44.417 416.424,-42.849 458.278,6.386 457.528,6.625 "/>
        <polygon fill="#4D1387" fill-rule="nonzero" points="363.214,24.433 368.14,22.866 326.285,-26.37 331.211,-27.937 289.356,-77.173 294.283,-78.741 252.428,-127.976 257.354,-129.544 215.501,-178.779 220.425,-180.347 178.572,-229.582 179.322,-229.821 229.34,-170.983 224.414,-169.415 266.267,-120.18 261.343,-118.612 303.196,-69.375 298.271,-67.809 340.125,-18.572 335.198,-17.006 377.053,32.23 372.127,33.797 413.982,83.033 413.231,83.273 "/>
        <polygon fill="#4D1387" fill-rule="nonzero" points="390.289,15.819 395.214,14.251 353.36,-34.984 358.285,-36.552 316.432,-85.787 321.358,-87.355 279.503,-136.592 284.429,-138.158 242.574,-187.394 247.501,-188.961 205.646,-238.197 206.397,-238.437 256.414,-179.597 251.489,-178.03 293.343,-128.794 288.416,-127.227 330.271,-77.991 325.345,-76.423 367.2,-27.188 362.274,-25.62 404.129,23.615 399.202,25.183 441.057,74.42 440.306,74.659 "/>
        <polygon fill="#4D1387" fill-rule="nonzero" points="345.992,92.466 350.918,90.898 309.065,41.662 313.989,40.096 272.136,-9.141 277.061,-10.708 235.207,-59.944 240.134,-61.512 198.279,-110.747 203.205,-112.315 161.35,-161.55 162.101,-161.789 212.118,-102.951 207.192,-101.383 249.047,-52.147 244.121,-50.58 285.976,-1.344 281.049,0.223 322.904,49.459 317.978,51.027 359.833,100.262 354.907,101.83 396.76,151.066 396.01,151.304 "/>
        <polygon fill="#4D1387" fill-rule="nonzero" points="373.067,83.851 377.993,82.283 336.138,33.048 341.065,31.48 299.21,-17.755 304.136,-19.323 262.281,-68.558 267.207,-70.126 225.354,-119.363 230.279,-120.929 188.425,-170.166 189.175,-170.404 239.194,-111.565 234.267,-109.997 276.122,-60.762 271.196,-59.194 313.051,-9.959 308.125,-8.391 349.978,40.844 345.053,42.412 386.907,91.649 381.982,93.215 423.836,142.452 423.084,142.691 "/>
        <polygon fill="#4D1387" fill-rule="nonzero" points="328.771,160.498 333.698,158.93 291.843,109.695 296.769,108.127 254.914,58.891 259.841,57.324 217.985,8.088 222.912,6.521 181.057,-42.715 185.983,-44.282 144.13,-93.518 144.879,-93.757 194.898,-34.918 189.972,-33.351 231.825,15.885 226.9,17.452 268.754,66.688 263.829,68.256 305.682,117.491 300.758,119.059 342.611,168.294 337.685,169.862 379.54,219.097 378.789,219.336 "/>
        <polygon fill="#4D1387" fill-rule="nonzero" points="355.847,151.883 360.771,150.317 318.918,101.08 323.843,99.514 281.99,50.277 286.916,48.709 245.061,-0.526 249.987,-2.094 208.132,-51.329 213.058,-52.897 171.203,-102.133 171.955,-102.371 221.972,-43.533 217.047,-41.965 258.9,7.27 253.974,8.838 295.829,58.073 290.903,59.641 332.758,108.878 327.831,110.444 369.686,159.681 364.76,161.247 406.615,210.484 405.864,210.723 "/>
        <polygon fill="#4D1387" fill-rule="nonzero" points="311.549,228.53 316.476,226.962 274.622,177.727 279.547,176.159 237.694,126.924 242.618,125.356 200.765,76.121 205.691,74.553 163.836,25.317 168.763,23.75 126.908,-25.486 127.659,-25.725 177.676,33.114 172.75,34.681 214.605,83.917 209.679,85.485 251.533,134.72 246.607,136.288 288.462,185.523 283.536,187.091 325.391,236.328 320.465,237.894 362.318,287.131 361.568,287.37 "/>
        <polygon fill="#4D1387" fill-rule="nonzero" points="338.625,219.915 343.551,218.349 301.696,169.112 306.622,167.546 264.767,118.309 269.694,116.741 227.84,67.506 232.765,65.938 190.912,16.703 195.836,15.135 153.983,-34.1 154.733,-34.339 204.751,24.499 199.825,26.067 241.68,75.302 236.754,76.87 278.607,126.107 273.682,127.673 315.536,176.909 310.611,178.476 352.465,227.713 347.54,229.279 389.393,278.516 388.642,278.754 "/>
        <polygon fill="#4D1387" fill-rule="nonzero" points="294.329,296.562 299.255,294.994 257.4,245.759 262.327,244.191 220.472,194.956 225.398,193.388 183.543,144.153 188.47,142.585 146.614,93.35 151.541,91.782 109.687,42.546 110.437,42.307 160.456,101.146 155.53,102.714 197.383,151.949 192.458,153.517 234.311,202.752 229.387,204.32 271.24,253.557 266.314,255.123 308.169,304.36 303.243,305.926 345.098,355.163 344.346,355.402 "/>
        <polygon fill="#4D1387" fill-rule="nonzero" points="321.404,287.948 326.329,286.38 284.476,237.145 289.4,235.577 247.547,186.341 252.474,184.774 210.619,135.538 215.545,133.97 173.69,84.735 178.616,83.167 136.761,33.932 137.512,33.693 187.53,92.533 182.605,94.099 224.458,143.335 219.532,144.902 261.387,194.138 256.46,195.705 298.316,244.942 293.389,246.51 335.244,295.744 330.318,297.312 372.173,346.547 371.422,346.787 "/>
        <polygon fill="#4D1387" fill-rule="nonzero" points="277.107,364.596 282.033,363.028 240.178,313.791 245.105,312.225 203.252,262.988 208.176,261.42 166.323,212.185 171.249,210.617 129.394,161.382 134.32,159.814 92.465,110.579 93.217,110.34 143.234,169.178 138.308,170.746 180.162,219.981 175.236,221.549 217.091,270.786 212.165,272.352 254.02,321.589 249.094,323.155 290.949,372.392 286.022,373.958 327.876,423.195 327.126,423.434 "/>
        <polygon fill="#4D1387" fill-rule="nonzero" points="304.182,355.98 309.109,354.412 267.254,305.177 272.18,303.609 230.325,254.374 235.251,252.806 193.398,203.57 198.323,202.003 156.47,152.767 161.394,151.201 119.541,101.964 120.291,101.725 170.309,160.564 165.383,162.131 207.238,211.367 202.311,212.934 244.165,262.171 239.24,263.738 281.094,312.973 276.169,314.541 318.022,363.776 313.098,365.344 354.951,414.581 354.2,414.818 "/>
        <polygon fill="#4D1387" fill-rule="nonzero" points="43.288,501.543 48.214,499.975 6.361,450.74 7.11,450.501 57.129,509.339 52.203,510.907 94.056,560.142 93.306,560.381 "/>
        <polygon fill="#4D1387" fill-rule="nonzero" points="70.363,492.928 75.289,491.361 33.434,442.125 34.186,441.886 84.203,500.726 79.276,502.292 121.131,551.529 120.38,551.768 "/>
        <polygon fill="#4D1387" fill-rule="nonzero" points="97.438,484.314 102.363,482.746 60.51,433.51 65.436,431.943 23.581,382.707 24.332,382.468 74.349,441.307 69.423,442.875 111.278,492.11 106.352,493.678 148.207,542.913 147.455,543.152 "/>
        <polygon fill="#4D1387" fill-rule="nonzero" points="124.514,475.699 129.439,474.133 87.585,424.896 92.51,423.328 50.656,374.093 51.406,373.854 101.425,432.692 96.498,434.26 138.353,483.497 133.427,485.063 175.28,534.3 174.531,534.539 "/>
        <polygon fill="#4D1387" fill-rule="nonzero" points="151.587,467.085 156.514,465.517 114.659,416.281 119.585,414.714 77.73,365.478 82.656,363.911 40.803,314.675 41.553,314.436 91.571,373.275 86.645,374.842 128.498,424.078 123.574,425.646 165.427,474.881 160.502,476.449 202.356,525.684 201.606,525.923 "/>
        <polygon fill="#4D1387" fill-rule="nonzero" points="178.663,458.47 183.589,456.904 141.734,407.667 146.66,406.099 104.805,356.864 109.732,355.296 67.877,306.061 68.628,305.822 118.645,364.66 113.72,366.228 155.574,415.465 150.647,417.031 192.502,466.268 187.576,467.834 229.431,517.071 228.68,517.31 "/>
        <polygon fill="#4D1387" fill-rule="nonzero" points="205.736,449.857 210.663,448.288 168.809,399.052 173.734,397.485 131.881,348.249 136.805,346.682 94.952,297.446 99.878,295.88 58.023,246.643 58.775,246.404 108.792,305.244 103.865,306.81 145.72,356.047 140.794,357.615 182.649,406.849 177.723,408.417 219.578,457.652 214.651,459.22 256.506,508.455 255.755,508.694 "/>
        <polygon fill="#4D1387" fill-rule="nonzero" points="232.812,441.241 237.738,439.675 195.883,390.438 200.809,388.87 158.954,339.635 163.881,338.067 122.027,288.832 126.952,287.264 85.099,238.028 85.848,237.79 135.867,296.628 130.941,298.196 172.795,347.431 167.869,348.999 209.723,398.234 204.798,399.802 246.651,449.039 241.727,450.605 283.58,499.842 282.83,500.081 "/>
        <polygon fill="#4D1387" fill-rule="nonzero" points="259.887,432.627 264.813,431.059 222.958,381.823 227.885,380.256 186.029,331.02 190.956,329.453 149.101,280.217 154.027,278.651 112.172,229.414 117.099,227.846 75.245,178.611 75.995,178.372 126.013,237.21 121.087,238.778 162.941,288.015 158.016,289.581 199.869,338.818 194.945,340.384 236.798,389.621 231.872,391.189 273.727,440.423 268.8,441.991 310.655,491.226 309.904,491.466 "/>
        <polygon fill="#4D1387" fill-rule="nonzero" points="286.962,424.012 291.887,422.446 250.034,373.209 254.958,371.641 213.105,322.406 218.031,320.838 176.176,271.603 181.103,270.035 139.248,220.799 144.174,219.232 102.319,169.996 103.07,169.757 153.087,228.596 148.161,230.163 190.016,279.399 185.09,280.967 226.945,330.202 222.018,331.77 263.873,381.005 258.947,382.573 300.802,431.81 295.876,433.376 337.731,482.613 336.979,482.852 "/>
        <polygon fill="#4D1387" fill-rule="nonzero" points="-10.861,518.772 -10.11,518.533 39.907,577.371 39.156,577.61 "/>
        <polygon fill="#4D1387" fill-rule="nonzero" points="16.214,510.157 16.964,509.918 66.983,568.757 66.231,568.997 "/>
       </g>
      </g>
     </g>
    </g>
   </g>
   <g clip-path="url(#id4)">
    <path fill="none" d="M44.533 92.099c-0.429,-1.646 -1.314,-4.1 -2.266,-7.426 -0.952,-3.326 -1.971,-7.524 -2.843,-12.104 -0.872,-4.579 -1.596,-9.541 -2.24,-13.927 -0.644,-4.385 -1.207,-8.194 -1.971,-12.15 -0.765,-3.956 -1.73,-8.06 -2.522,-10.974 -0.791,-2.913 -1.409,-4.637 -1.737,-5.811 -0.067,-0.237 -0.121,-0.452 -0.167,-0.649 -0.378,0.305 -0.748,0.599 -1.175,0.936 -0.493,0.39 -1.061,0.837 -1.779,1.475 -0.718,0.637 -1.586,1.465 -2.375,2.331 -0.79,0.866 -1.501,1.771 -2.145,2.665 -0.644,0.894 -1.22,1.777 -1.924,2.935 -0.704,1.158 -1.536,2.591 -2.208,3.821 -0.671,1.229 -1.181,2.255 -1.732,3.264 -0.551,1.008 -1.141,1.999 -1.644,2.942 -0.503,0.943 -0.918,1.838 -1.313,2.759 -0.395,0.922 -0.77,1.87 -1.152,2.756 -0.382,0.887 -0.772,1.712 -1.285,3.043 -0.513,1.331 -1.149,3.17 -1.716,4.911 -0.567,1.741 -1.065,3.386 -1.49,4.836 -0.425,1.451 -0.777,2.709 -1.129,4.225 -0.352,1.516 -0.704,3.291 -1.144,5.668 -0.44,2.376 -0.968,5.353 -1.29,7.073 -0.322,1.72 -0.438,2.183 -0.543,2.673 -0.106,0.491 -0.201,1.009 -0.4,1.833 -0.198,0.825 -0.5,1.957 -0.807,3.143 -0.307,1.187 -0.618,2.43 -0.84,3.478 -0.221,1.049 -0.352,1.904 -0.575,3.166 -0.224,1.262 -0.541,2.932 -0.787,4.297 -0.247,1.366 -0.423,2.427 -0.529,2.975 -0.083,0.431 -0.122,0.545 -0.166,0.598 -0.012,0.015 -0.024,0.025 -0.038,0.036 -0.063,0.05 -0.155,0.115 -0.251,2.246 -0.096,2.13 -0.197,6.326 -0.275,8.622 -0.078,2.297 -0.133,2.694 0.035,2.902 0.169,0.209 0.561,0.229 1.419,0.337 0.857,0.108 2.18,0.305 4.51,0.755 2.332,0.45 5.671,1.154 8.339,1.667 2.668,0.513 4.664,0.835 6.751,1.182 2.088,0.347 4.265,0.719 7.24,1.192 2.975,0.472 6.746,1.046 9.15,1.373 2.404,0.327 3.44,0.407 3.958,0.447 0.518,0.041 0.518,0.041 0.568,-0.543 0.049,-0.583 0.149,-1.75 0.263,-2.759 0.114,-1.009 0.242,-1.86 0.394,-2.937 0.152,-1.077 0.328,-2.379 0.498,-3.576 0.17,-1.197 0.333,-2.289 0.417,-2.902 0.085,-0.614 0.089,-0.749 0.076,-0.865 -0.005,-0.042 -0.013,-0.082 -0.019,-0.194 -0.011,-0.194 -0.019,-0.605 -0.004,-1.624 0.024,-1.607 0.104,-4.725 0.147,-7.257 0.043,-2.532 0.048,-4.478 0.059,-5.601 0.011,-1.123 0.029,-1.422 0.067,-1.618 0.038,-0.197 0.095,-0.29 0.176,-0.338 0.21,-0.447 0.419,-0.894 0.551,-1.225 0.131,-0.33 0.185,-0.545 0.225,-1.071 0.04,-0.527 0.067,-1.365 -0.362,-3.011zm152.791 17.505c-0.018,0.113 -0.004,0.111 -0.041,0.145 -0.038,0.034 -0.128,0.104 -0.133,0.68 -0.005,0.576 0.075,1.657 0.192,3.051 0.117,1.395 0.27,3.102 0.322,4.786 0.051,1.683 0.001,3.343 0.002,4.231 0,0.887 0.052,1.003 0.132,1.078 0.08,0.076 0.188,0.111 1.001,0.06 0.814,-0.051 2.333,-0.188 4.105,-0.324 1.773,-0.137 3.8,-0.273 5.955,-0.431 2.155,-0.158 4.438,-0.339 6.588,-0.463 2.15,-0.123 4.166,-0.188 5.992,-0.299 1.826,-0.111 3.46,-0.267 5.336,-0.47 1.876,-0.204 3.993,-0.455 6.015,-0.682 2.021,-0.226 3.947,-0.427 5.109,-0.565 1.162,-0.139 1.559,-0.214 1.758,-0.327 0.199,-0.113 0.199,-0.264 0.229,-0.906 0.03,-0.641 0.09,-1.772 0.108,-3.132 0.017,-1.361 -0.008,-2.95 -0.023,-4.429 -0.015,-1.478 -0.02,-2.846 -0.038,-3.724 -0.017,-0.877 -0.047,-1.264 -0.071,-1.469 -0.024,-0.198 -0.042,-0.225 -0.079,-0.288 -0.001,-0.002 -0.003,-0.004 -0.004,-0.006 -0.04,-0.068 -0.103,-0.181 -0.174,-0.682 -0.071,-0.5 -0.152,-1.388 -0.255,-2.32 -0.103,-0.933 -0.229,-1.911 -0.348,-2.739 -0.12,-0.827 -0.233,-1.504 -0.413,-2.544 -0.179,-1.042 -0.426,-2.447 -0.613,-3.449 -0.187,-1.002 -0.316,-1.601 -0.436,-2.27 -0.121,-0.668 -0.234,-1.408 -0.366,-2.121 -0.132,-0.713 -0.283,-1.399 -0.425,-2.156 -0.142,-0.757 -0.275,-1.584 -0.375,-2.322 -0.099,-0.738 -0.165,-1.387 -0.239,-2.029 -0.074,-0.643 -0.157,-1.279 -0.257,-2.036 -0.101,-0.757 -0.219,-1.634 -0.34,-2.526 -0.121,-0.891 -0.244,-1.796 -0.353,-2.565 -0.11,-0.768 -0.205,-1.399 -0.373,-2.344 -0.168,-0.945 -0.408,-2.203 -0.82,-4.085 -0.412,-1.881 -0.995,-4.386 -1.704,-6.89 -0.709,-2.505 -1.544,-5.009 -2.651,-7.745 -1.106,-2.736 -2.484,-5.703 -4.093,-8.851 -1.61,-3.149 -3.45,-6.478 -4.878,-8.781 -1.429,-2.304 -2.444,-3.581 -3.453,-4.629 -1.008,-1.049 -2.009,-1.869 -3.015,-2.608 -1.006,-0.739 -2.017,-1.398 -2.582,-1.773 -0.566,-0.375 -0.687,-0.465 -0.756,-0.571 -0.019,-0.029 -0.034,-0.059 -0.046,-0.089 -0.845,2.177 -1.681,4.372 -2.474,6.668 -0.979,2.837 -1.891,5.827 -2.716,11.172 -0.825,5.344 -1.562,13.042 -2.347,18.902 -0.784,5.861 -1.616,9.884 -2.444,13.19 -0.828,3.306 -1.653,5.894 -2.313,7.962 -0.661,2.069 -1.157,3.618 -1.398,4.644 -0.242,1.026 -0.228,1.529 -0.221,1.78 0.006,0.252 0.006,0.252 0.16,0.59 0.155,0.339 0.463,1.016 0.601,1.639 0.139,0.623 0.107,1.192 0.075,1.761 0.066,-0.048 0.066,-0.048 0.049,0.598 -0.018,0.646 -0.053,1.939 -0.108,3.533 -0.056,1.594 -0.131,3.49 -0.173,4.967 -0.041,1.478 -0.049,2.536 -0.079,3.186 -0.03,0.65 -0.083,0.892 -0.102,1.011 0,0.002 0,0.004 0,0.006z"/>
   </g>
  </g>
  <path fill="none" d="M136.796 295.988c2.461,-0.097 4.626,-0.225 7.017,-0.355 2.39,-0.131 5.006,-0.265 8.261,-0.493 3.256,-0.228 7.151,-0.55 10.471,-0.852 3.319,-0.302 6.061,-0.583 8.794,-0.949 2.732,-0.365 5.455,-0.814 7.654,-1.25 2.2,-0.436 3.876,-0.858 6.001,-1.331 2.126,-0.473 4.701,-0.996 6.595,-1.321 1.894,-0.325 3.108,-0.453 4.268,-0.536 1.16,-0.084 2.267,-0.124 3.155,-0.117 0.889,0.008 1.559,0.063 1.956,0.094 0.396,0.031 0.518,0.038 0.611,0.043 0.049,0.002 0.09,0.004 0.127,0.006 0.093,-0.07 0.162,-0.18 0.177,-0.779 0.016,-0.673 -0.037,-1.966 -0.106,-2.786 -0.069,-0.819 -0.154,-1.166 -0.285,-1.855 -0.131,-0.689 -0.307,-1.72 -0.651,-2.686 -0.345,-0.965 -0.858,-1.866 -1.476,-3.045 -0.619,-1.179 -1.343,-2.638 -1.783,-3.616 -0.44,-0.978 -0.596,-1.476 -0.848,-2.693 -0.251,-1.217 -0.598,-3.153 -0.953,-5.871 -0.354,-2.718 -0.716,-6.219 -1.038,-8.884 -0.322,-2.666 -0.603,-4.496 -1.081,-7.559 -0.478,-3.062 -1.152,-7.357 -1.71,-11.521 -0.558,-4.164 -1.001,-8.198 -1.348,-12.226 -0.347,-4.028 -0.598,-8.051 -0.759,-11.637 -0.161,-3.586 -0.231,-6.734 -0.287,-9.787 -0.055,-3.052 -0.095,-6.01 -0.156,-9.258 -0.06,-3.249 -0.14,-6.79 -0.108,-12.037 0.033,-5.248 0.179,-12.203 0.352,-17.466 0.174,-5.263 0.375,-8.834 0.652,-12.807 0.276,-3.973 0.628,-8.348 0.975,-12.271 0.347,-3.922 0.689,-7.393 1.122,-11.743 0.432,-4.35 0.955,-9.58 1.483,-13.99 0.528,-4.411 1.061,-8.002 1.512,-10.619 0.45,-2.618 0.817,-4.262 1.139,-5.308 0.321,-1.046 0.598,-1.494 0.803,-1.766 0.205,-0.271 0.338,-0.367 0.405,-0.414 0.066,-0.048 0.066,-0.048 0.049,0.598 -0.018,0.646 -0.053,1.939 -0.108,3.533 -0.056,1.594 -0.131,3.49 -0.173,4.967 -0.041,1.478 -0.049,2.536 -0.079,3.186 -0.03,0.65 -0.083,0.892 -0.102,1.011 -0.018,0.119 -0.003,0.117 -0.041,0.151 -0.038,0.034 -0.128,0.104 -0.133,0.68 -0.005,0.576 0.075,1.657 0.192,3.051 0.117,1.395 0.27,3.102 0.322,4.786 0.051,1.683 0.001,3.343 0.002,4.231 0,0.887 0.052,1.003 0.132,1.078 0.08,0.076 0.188,0.111 1.001,0.06 0.814,-0.051 2.333,-0.188 4.105,-0.324 1.773,-0.137 3.8,-0.273 5.955,-0.431 2.155,-0.158 4.438,-0.339 6.588,-0.463 2.15,-0.123 4.166,-0.188 5.992,-0.299 1.826,-0.111 3.46,-0.267 5.336,-0.47 1.876,-0.204 3.993,-0.455 6.015,-0.682 2.021,-0.226 3.947,-0.427 5.109,-0.565 1.162,-0.139 1.559,-0.214 1.758,-0.327 0.199,-0.113 0.199,-0.264 0.229,-0.906 0.03,-0.641 0.09,-1.772 0.108,-3.132 0.017,-1.361 -0.008,-2.95 -0.023,-4.429 -0.015,-1.478 -0.02,-2.846 -0.038,-3.724 -0.017,-0.877 -0.047,-1.264 -0.071,-1.469 -0.025,-0.205 -0.043,-0.227 -0.083,-0.294 -0.04,-0.068 -0.103,-0.181 -0.174,-0.682 -0.071,-0.5 -0.152,-1.388 -0.255,-2.32 -0.103,-0.933 -0.229,-1.911 -0.348,-2.739 -0.12,-0.827 -0.233,-1.504 -0.413,-2.544 -0.179,-1.042 -0.426,-2.447 -0.613,-3.449 -0.187,-1.002 -0.316,-1.601 -0.436,-2.27 -0.121,-0.668 -0.234,-1.408 -0.366,-2.121 -0.132,-0.713 -0.283,-1.399 -0.425,-2.156 -0.142,-0.757 -0.275,-1.584 -0.375,-2.322 -0.099,-0.738 -0.165,-1.387 -0.239,-2.029 -0.074,-0.643 -0.157,-1.279 -0.257,-2.036 -0.101,-0.757 -0.219,-1.634 -0.34,-2.526 -0.121,-0.891 -0.244,-1.796 -0.353,-2.565 -0.11,-0.768 -0.205,-1.399 -0.373,-2.344 -0.168,-0.945 -0.408,-2.203 -0.82,-4.085 -0.412,-1.881 -0.995,-4.386 -1.704,-6.89 -0.709,-2.505 -1.544,-5.009 -2.651,-7.745 -1.106,-2.736 -2.484,-5.703 -4.093,-8.851 -1.61,-3.149 -3.45,-6.478 -4.878,-8.781 -1.429,-2.304 -2.444,-3.581 -3.453,-4.629 -1.008,-1.049 -2.009,-1.869 -3.015,-2.608 -1.006,-0.739 -2.017,-1.398 -2.582,-1.773 -0.566,-0.375 -0.687,-0.465 -0.756,-0.571 -0.069,-0.105 -0.087,-0.226 -0.095,-0.303 -0.009,-0.077 -0.009,-0.109 -0.07,-0.174 -0.06,-0.066 -0.181,-0.164 -1.307,-0.714 -1.127,-0.551 -3.259,-1.555 -5.31,-2.603 -2.05,-1.048 -4.019,-2.142 -5.77,-2.976 -1.752,-0.833 -3.286,-1.407 -5.061,-1.957 -1.775,-0.551 -3.792,-1.079 -5.429,-1.507 -1.637,-0.427 -2.894,-0.754 -3.762,-1.008 -0.867,-0.254 -1.345,-0.435 -2.044,-0.7 -0.699,-0.266 -1.619,-0.615 -2.606,-0.909 -0.987,-0.295 -2.041,-0.533 -2.716,-0.687 -0.675,-0.153 -0.972,-0.221 -1.44,-0.471 -0.467,-0.25 -1.106,-0.683 -1.581,-0.937 -0.475,-0.254 -0.787,-0.329 -1.073,-0.365 -0.285,-0.035 -0.544,-0.03 -0.777,-0.03 -0.232,0 -0.438,-0.005 -1.342,-0.33 -0.904,-0.326 -2.506,-0.972 -4.026,-1.577 -1.52,-0.605 -2.959,-1.168 -4.404,-1.748 -1.446,-0.579 -2.9,-1.175 -3.816,-1.569 -0.917,-0.393 -1.297,-0.584 -1.594,-0.779 -0.298,-0.194 -0.514,-0.392 -0.705,-0.497 -0.191,-0.105 -0.356,-0.116 -0.467,-0.117 -0.11,0 -0.164,0.01 -0.251,-0.004 -0.086,-0.014 -0.204,-0.052 -0.587,-0.292 -0.382,-0.24 -1.028,-0.682 -1.678,-1.193 -0.65,-0.51 -1.304,-1.089 -1.956,-1.661 -0.653,-0.572 -1.304,-1.138 -2.311,-1.569 -1.007,-0.431 -2.37,-0.728 -3.723,-0.919 -1.353,-0.191 -2.695,-0.276 -4.576,-0.354 -1.881,-0.078 -4.3,-0.149 -7.931,-0.131 -3.631,0.017 -8.474,0.123 -12.914,0.219 -4.439,0.096 -8.475,0.183 -10.597,0.231 -2.123,0.048 -2.332,0.058 -4.152,0.203 -1.82,0.145 -5.249,0.427 -7.404,0.671 -2.155,0.244 -3.035,0.45 -3.752,0.707 -0.717,0.256 -1.27,0.563 -1.886,1.078 -0.616,0.516 -1.295,1.24 -2.019,1.877 -0.725,0.638 -1.494,1.189 -1.953,1.46 -0.459,0.272 -0.607,0.264 -0.901,0.366 -0.295,0.102 -0.735,0.313 -1.268,0.582 -0.533,0.269 -1.159,0.596 -1.919,0.922 -0.761,0.325 -1.656,0.65 -2.301,0.904 -0.645,0.254 -1.04,0.437 -1.514,0.628 -0.474,0.192 -1.027,0.39 -1.765,0.621 -0.738,0.232 -1.661,0.496 -2.558,0.836 -0.896,0.341 -1.766,0.759 -2.573,1.076 -0.808,0.316 -1.552,0.533 -2.299,0.749 -0.746,0.216 -1.496,0.432 -2.053,0.655 -0.557,0.222 -0.921,0.451 -1.207,0.636 -0.285,0.185 -0.491,0.326 -0.999,0.476 -0.508,0.15 -1.318,0.31 -1.914,0.463 -0.596,0.154 -0.978,0.301 -1.488,0.492 -0.51,0.192 -1.147,0.429 -1.75,0.617 -0.603,0.189 -1.171,0.329 -1.687,0.459 -0.516,0.13 -0.98,0.248 -1.7,0.426 -0.719,0.179 -1.693,0.418 -2.551,0.633 -0.857,0.216 -1.598,0.408 -2.171,0.57 -0.573,0.161 -0.979,0.292 -1.436,0.426 -0.456,0.134 -0.963,0.271 -1.427,0.4 -0.465,0.129 -0.887,0.249 -1.312,0.377 -0.424,0.128 -0.85,0.262 -1.203,0.399 -0.353,0.137 -0.632,0.277 -1.012,0.437 -0.38,0.159 -0.862,0.339 -1.279,0.53 -0.417,0.191 -0.769,0.394 -1.165,0.602 -0.397,0.209 -0.838,0.424 -1.221,0.617 -0.382,0.194 -0.705,0.366 -1.126,0.589 -0.421,0.223 -0.941,0.495 -1.657,0.865 -0.717,0.371 -1.631,0.838 -2.694,1.37 -1.063,0.532 -2.275,1.128 -3.18,1.576 -0.905,0.448 -1.504,0.747 -2.037,1.087 -0.533,0.341 -1.001,0.723 -1.443,1.08 -0.443,0.358 -0.86,0.689 -1.353,1.079 -0.493,0.39 -1.061,0.837 -1.779,1.475 -0.718,0.637 -1.586,1.465 -2.375,2.331 -0.79,0.866 -1.501,1.771 -2.145,2.665 -0.644,0.894 -1.22,1.777 -1.924,2.935 -0.704,1.158 -1.536,2.591 -2.208,3.821 -0.671,1.229 -1.181,2.255 -1.732,3.264 -0.551,1.008 -1.141,1.999 -1.644,2.942 -0.503,0.943 -0.918,1.838 -1.313,2.759 -0.395,0.922 -0.77,1.87 -1.152,2.756 -0.382,0.887 -0.772,1.712 -1.285,3.043 -0.513,1.331 -1.149,3.17 -1.716,4.911 -0.567,1.741 -1.065,3.386 -1.49,4.836 -0.425,1.451 -0.777,2.709 -1.129,4.225 -0.352,1.516 -0.704,3.291 -1.144,5.668 -0.44,2.376 -0.968,5.353 -1.29,7.073 -0.322,1.72 -0.438,2.183 -0.543,2.673 -0.106,0.491 -0.201,1.009 -0.4,1.833 -0.198,0.825 -0.5,1.957 -0.807,3.143 -0.307,1.187 -0.618,2.43 -0.84,3.478 -0.221,1.049 -0.352,1.904 -0.575,3.166 -0.224,1.262 -0.541,2.932 -0.787,4.297 -0.247,1.366 -0.423,2.427 -0.529,2.975 -0.105,0.548 -0.14,0.583 -0.204,0.634 -0.063,0.05 -0.155,0.115 -0.251,2.246 -0.096,2.13 -0.197,6.326 -0.275,8.622 -0.078,2.297 -0.133,2.694 0.035,2.902 0.169,0.209 0.561,0.229 1.419,0.337 0.857,0.108 2.18,0.305 4.51,0.755 2.332,0.45 5.671,1.154 8.339,1.667 2.668,0.513 4.664,0.835 6.751,1.182 2.088,0.347 4.265,0.719 7.24,1.192 2.975,0.472 6.746,1.046 9.15,1.373 2.404,0.327 3.44,0.407 3.958,0.447 0.518,0.041 0.518,0.041 0.568,-0.543 0.049,-0.583 0.149,-1.75 0.263,-2.759 0.114,-1.009 0.242,-1.86 0.394,-2.937 0.152,-1.077 0.328,-2.379 0.498,-3.576 0.17,-1.197 0.333,-2.289 0.417,-2.902 0.085,-0.614 0.089,-0.749 0.076,-0.865 -0.014,-0.116 -0.047,-0.211 -0.023,-1.818 0.024,-1.607 0.104,-4.725 0.147,-7.257 0.043,-2.532 0.048,-4.478 0.059,-5.601 0.011,-1.123 0.029,-1.422 0.067,-1.618 0.038,-0.197 0.095,-0.29 0.176,-0.338 0.08,-0.05 0.184,-0.055 0.308,0.038 0.124,0.094 0.27,0.285 0.345,0.376 0.074,0.092 0.076,0.085 0.078,0.081 0.001,-0.004 0.001,-0.004 0.115,0.253 0.114,0.256 0.343,0.769 0.597,1.463 0.254,0.694 0.533,1.569 0.762,2.507 0.229,0.938 0.408,1.939 0.607,3.547 0.2,1.608 0.422,3.823 0.739,6.228 0.316,2.406 0.729,5.001 1.468,11.393 0.739,6.392 1.805,16.58 2.64,24.511 0.835,7.931 1.439,13.604 1.811,19.699 0.372,6.095 0.513,12.613 0.503,19.654 -0.01,7.04 -0.171,14.604 -0.372,20.609 -0.202,6.004 -0.443,10.45 -0.725,14.423 -0.281,3.973 -0.603,7.473 -1.448,14.162 -0.845,6.688 -2.213,16.566 -3.007,23.777 -0.795,7.212 -1.016,11.758 -1.217,15.269 -0.202,3.51 -0.383,5.984 -0.674,8.122 -0.292,2.137 -0.694,3.937 -0.973,5.315 -0.279,1.378 -0.436,2.334 -0.453,2.935 -0.018,0.601 0.103,0.847 0.249,0.975 0.146,0.129 0.317,0.138 0.5,0.175 0.184,0.036 0.38,0.099 0.469,0.155 0.019,0.011 0.032,0.022 0.042,0.037 0.876,0.322 1.753,0.645 3.155,0.925 1.401,0.28 3.329,0.518 6.493,0.754 3.163,0.237 7.562,0.472 11.099,0.609 3.537,0.138 6.212,0.178 9.592,0.181 3.38,0.003 7.463,-0.03 11.329,-0.007 3.866,0.024 7.513,0.104 10.591,0.191 3.078,0.088 5.586,0.181 7.916,0.252 2.33,0.07 4.483,0.117 6.789,0.171 2.307,0.053 4.768,0.114 7.356,0.121 2.589,0.006 5.304,-0.041 8.04,-0.098 2.736,-0.057 5.492,-0.124 7.953,-0.221z"/>
 </g>
</svg>
