<?xml version="1.0" encoding="UTF-8"?>
<!DOCTYPE svg PUBLIC "-//W3C//DTD SVG 1.1//EN" "http://www.w3.org/Graphics/SVG/1.1/DTD/svg11.dtd">
<!-- Creator: CorelDRAW -->
<svg xmlns="http://www.w3.org/2000/svg" xml:space="preserve" width="240px" height="296px" version="1.1" shape-rendering="geometricPrecision" text-rendering="geometricPrecision" image-rendering="optimizeQuality" fill-rule="evenodd" clip-rule="evenodd"
viewBox="0 0 240 296.307"
 xmlns:xlink="http://www.w3.org/1999/xlink"
 xmlns:xodm="http://www.corel.com/coreldraw/odm/2003">
 <defs>
   <clipPath id="id0">
    <path d="M136.796 295.988c2.461,-0.097 4.626,-0.225 7.017,-0.355 2.39,-0.131 5.006,-0.265 8.261,-0.493 3.256,-0.228 7.151,-0.55 10.471,-0.852 3.319,-0.302 6.061,-0.583 8.794,-0.949 2.732,-0.365 5.455,-0.814 7.654,-1.25 2.2,-0.436 3.876,-0.858 6.001,-1.331 2.126,-0.473 4.701,-0.996 6.595,-1.321 1.894,-0.325 3.108,-0.453 4.268,-0.536 1.16,-0.084 2.267,-0.124 3.155,-0.117 0.889,0.008 1.559,0.063 1.956,0.094 0.396,0.031 0.518,0.038 0.611,0.043 0.049,0.002 0.09,0.004 0.127,0.006 0.093,-0.07 0.162,-0.18 0.177,-0.779 0.016,-0.673 -0.037,-1.966 -0.106,-2.786 -0.069,-0.819 -0.154,-1.166 -0.285,-1.855 -0.131,-0.689 -0.307,-1.72 -0.651,-2.686 -0.345,-0.965 -0.858,-1.866 -1.476,-3.045 -0.619,-1.179 -1.343,-2.638 -1.783,-3.616 -0.44,-0.978 -0.596,-1.476 -0.848,-2.693 -0.251,-1.217 -0.598,-3.153 -0.953,-5.871 -0.354,-2.718 -0.716,-6.219 -1.038,-8.884 -0.322,-2.666 -0.603,-4.496 -1.081,-7.559 -0.478,-3.062 -1.152,-7.357 -1.71,-11.521 -0.558,-4.164 -1.001,-8.198 -1.348,-12.226 -0.347,-4.028 -0.598,-8.051 -0.759,-11.637 -0.161,-3.586 -0.231,-6.734 -0.287,-9.787 -0.055,-3.052 -0.095,-6.01 -0.156,-9.258 -0.06,-3.249 -0.14,-6.79 -0.108,-12.037 0.033,-5.248 0.179,-12.203 0.352,-17.466 0.174,-5.263 0.375,-8.834 0.652,-12.807 0.276,-3.973 0.628,-8.348 0.975,-12.271 0.347,-3.922 0.689,-7.393 1.122,-11.743 0.432,-4.35 0.955,-9.58 1.483,-13.99 0.528,-4.411 1.061,-8.002 1.512,-10.619 0.45,-2.618 0.817,-4.262 1.139,-5.308 0.321,-1.046 0.598,-1.494 0.803,-1.766 0.205,-0.271 0.338,-0.367 0.405,-0.414 0.066,-0.048 0.066,-0.048 0.049,0.598 -0.018,0.646 -0.053,1.939 -0.108,3.533 -0.056,1.594 -0.131,3.49 -0.173,4.967 -0.041,1.478 -0.049,2.536 -0.079,3.186 -0.03,0.65 -0.083,0.892 -0.102,1.011 -0.018,0.119 -0.003,0.117 -0.041,0.151 -0.038,0.034 -0.128,0.104 -0.133,0.68 -0.005,0.576 0.075,1.657 0.192,3.051 0.117,1.395 0.27,3.102 0.322,4.786 0.051,1.683 0.001,3.343 0.002,4.231 0,0.887 0.052,1.003 0.132,1.078 0.08,0.076 0.188,0.111 1.001,0.06 0.814,-0.051 2.333,-0.188 4.105,-0.324 1.773,-0.137 3.8,-0.273 5.955,-0.431 2.155,-0.158 4.438,-0.339 6.588,-0.463 2.15,-0.123 4.166,-0.188 5.992,-0.299 1.826,-0.111 3.46,-0.267 5.336,-0.47 1.876,-0.204 3.993,-0.455 6.015,-0.682 2.021,-0.226 3.947,-0.427 5.109,-0.565 1.162,-0.139 1.559,-0.214 1.758,-0.327 0.199,-0.113 0.199,-0.264 0.229,-0.906 0.03,-0.641 0.09,-1.772 0.108,-3.132 0.017,-1.361 -0.008,-2.95 -0.023,-4.429 -0.015,-1.478 -0.02,-2.846 -0.038,-3.724 -0.017,-0.877 -0.047,-1.264 -0.071,-1.469 -0.025,-0.205 -0.043,-0.227 -0.083,-0.294 -0.04,-0.068 -0.103,-0.181 -0.174,-0.682 -0.071,-0.5 -0.152,-1.388 -0.255,-2.32 -0.103,-0.933 -0.229,-1.911 -0.348,-2.739 -0.12,-0.827 -0.233,-1.504 -0.413,-2.544 -0.179,-1.042 -0.426,-2.447 -0.613,-3.449 -0.187,-1.002 -0.316,-1.601 -0.436,-2.27 -0.121,-0.668 -0.234,-1.408 -0.366,-2.121 -0.132,-0.713 -0.283,-1.399 -0.425,-2.156 -0.142,-0.757 -0.275,-1.584 -0.375,-2.322 -0.099,-0.738 -0.165,-1.387 -0.239,-2.029 -0.074,-0.643 -0.157,-1.279 -0.257,-2.036 -0.101,-0.757 -0.219,-1.634 -0.34,-2.526 -0.121,-0.891 -0.244,-1.796 -0.353,-2.565 -0.11,-0.768 -0.205,-1.399 -0.373,-2.344 -0.168,-0.945 -0.408,-2.203 -0.82,-4.085 -0.412,-1.881 -0.995,-4.386 -1.704,-6.89 -0.709,-2.505 -1.544,-5.009 -2.651,-7.745 -1.106,-2.736 -2.484,-5.703 -4.093,-8.851 -1.61,-3.149 -3.45,-6.478 -4.878,-8.781 -1.429,-2.304 -2.444,-3.581 -3.453,-4.629 -1.008,-1.049 -2.009,-1.869 -3.015,-2.608 -1.006,-0.739 -2.017,-1.398 -2.582,-1.773 -0.566,-0.375 -0.687,-0.465 -0.756,-0.571 -0.069,-0.105 -0.087,-0.226 -0.095,-0.303 -0.009,-0.077 -0.009,-0.109 -0.07,-0.174 -0.06,-0.066 -0.181,-0.164 -1.307,-0.714 -1.127,-0.551 -3.259,-1.555 -5.31,-2.603 -2.05,-1.048 -4.019,-2.142 -5.77,-2.976 -1.752,-0.833 -3.286,-1.407 -5.061,-1.957 -1.775,-0.551 -3.792,-1.079 -5.429,-1.507 -1.637,-0.427 -2.894,-0.754 -3.762,-1.008 -0.867,-0.254 -1.345,-0.435 -2.044,-0.7 -0.699,-0.266 -1.619,-0.615 -2.606,-0.909 -0.987,-0.295 -2.041,-0.533 -2.716,-0.687 -0.675,-0.153 -0.972,-0.221 -1.44,-0.471 -0.467,-0.25 -1.106,-0.683 -1.581,-0.937 -0.475,-0.254 -0.787,-0.329 -1.073,-0.365 -0.285,-0.035 -0.544,-0.03 -0.777,-0.03 -0.232,0 -0.438,-0.005 -1.342,-0.33 -0.904,-0.326 -2.506,-0.972 -4.026,-1.577 -1.52,-0.605 -2.959,-1.168 -4.404,-1.748 -1.446,-0.579 -2.9,-1.175 -3.816,-1.569 -0.917,-0.393 -1.297,-0.584 -1.594,-0.779 -0.298,-0.194 -0.514,-0.392 -0.705,-0.497 -0.191,-0.105 -0.356,-0.116 -0.467,-0.117 -0.11,0 -0.164,0.01 -0.251,-0.004 -0.086,-0.014 -0.204,-0.052 -0.587,-0.292 -0.382,-0.24 -1.028,-0.682 -1.678,-1.193 -0.65,-0.51 -1.304,-1.089 -1.956,-1.661 -0.653,-0.572 -1.304,-1.138 -2.311,-1.569 -1.007,-0.431 -2.37,-0.728 -3.723,-0.919 -1.353,-0.191 -2.695,-0.276 -4.576,-0.354 -1.881,-0.078 -4.3,-0.149 -7.931,-0.131 -3.631,0.017 -8.474,0.123 -12.914,0.219 -4.439,0.096 -8.475,0.183 -10.597,0.231 -2.123,0.048 -2.332,0.058 -4.152,0.203 -1.82,0.145 -5.249,0.427 -7.404,0.671 -2.155,0.244 -3.035,0.45 -3.752,0.707 -0.717,0.256 -1.27,0.563 -1.886,1.078 -0.616,0.516 -1.295,1.24 -2.019,1.877 -0.725,0.638 -1.494,1.189 -1.953,1.46 -0.459,0.272 -0.607,0.264 -0.901,0.366 -0.295,0.102 -0.735,0.313 -1.268,0.582 -0.533,0.269 -1.159,0.596 -1.919,0.922 -0.761,0.325 -1.656,0.65 -2.301,0.904 -0.645,0.254 -1.04,0.437 -1.514,0.628 -0.474,0.192 -1.027,0.39 -1.765,0.621 -0.738,0.232 -1.661,0.496 -2.558,0.836 -0.896,0.341 -1.766,0.759 -2.573,1.076 -0.808,0.316 -1.552,0.533 -2.299,0.749 -0.746,0.216 -1.496,0.432 -2.053,0.655 -0.557,0.222 -0.921,0.451 -1.207,0.636 -0.285,0.185 -0.491,0.326 -0.999,0.476 -0.508,0.15 -1.318,0.31 -1.914,0.463 -0.596,0.154 -0.978,0.301 -1.488,0.492 -0.51,0.192 -1.147,0.429 -1.75,0.617 -0.603,0.189 -1.171,0.329 -1.687,0.459 -0.516,0.13 -0.98,0.248 -1.7,0.426 -0.719,0.179 -1.693,0.418 -2.551,0.633 -0.857,0.216 -1.598,0.408 -2.171,0.57 -0.573,0.161 -0.979,0.292 -1.436,0.426 -0.456,0.134 -0.963,0.271 -1.427,0.4 -0.465,0.129 -0.887,0.249 -1.312,0.377 -0.424,0.128 -0.85,0.262 -1.203,0.399 -0.353,0.137 -0.632,0.277 -1.012,0.437 -0.38,0.159 -0.862,0.339 -1.279,0.53 -0.417,0.191 -0.769,0.394 -1.165,0.602 -0.397,0.209 -0.838,0.424 -1.221,0.617 -0.382,0.194 -0.705,0.366 -1.126,0.589 -0.421,0.223 -0.941,0.495 -1.657,0.865 -0.717,0.371 -1.631,0.838 -2.694,1.37 -1.063,0.532 -2.275,1.128 -3.18,1.576 -0.905,0.448 -1.504,0.747 -2.037,1.087 -0.533,0.341 -1.001,0.723 -1.443,1.08 -0.443,0.358 -0.86,0.689 -1.353,1.079 -0.493,0.39 -1.061,0.837 -1.779,1.475 -0.718,0.637 -1.586,1.465 -2.375,2.331 -0.79,0.866 -1.501,1.771 -2.145,2.665 -0.644,0.894 -1.22,1.777 -1.924,2.935 -0.704,1.158 -1.536,2.591 -2.208,3.821 -0.671,1.229 -1.181,2.255 -1.732,3.264 -0.551,1.008 -1.141,1.999 -1.644,2.942 -0.503,0.943 -0.918,1.838 -1.313,2.759 -0.395,0.922 -0.77,1.87 -1.152,2.756 -0.382,0.887 -0.772,1.712 -1.285,3.043 -0.513,1.331 -1.149,3.17 -1.716,4.911 -0.567,1.741 -1.065,3.386 -1.49,4.836 -0.425,1.451 -0.777,2.709 -1.129,4.225 -0.352,1.516 -0.704,3.291 -1.144,5.668 -0.44,2.376 -0.968,5.353 -1.29,7.073 -0.322,1.72 -0.438,2.183 -0.543,2.673 -0.106,0.491 -0.201,1.009 -0.4,1.833 -0.198,0.825 -0.5,1.957 -0.807,3.143 -0.307,1.187 -0.618,2.43 -0.84,3.478 -0.221,1.049 -0.352,1.904 -0.575,3.166 -0.224,1.262 -0.541,2.932 -0.787,4.297 -0.247,1.366 -0.423,2.427 -0.529,2.975 -0.105,0.548 -0.14,0.583 -0.204,0.634 -0.063,0.05 -0.155,0.115 -0.251,2.246 -0.096,2.13 -0.197,6.326 -0.275,8.622 -0.078,2.297 -0.133,2.694 0.035,2.902 0.169,0.209 0.561,0.229 1.419,0.337 0.857,0.108 2.18,0.305 4.51,0.755 2.332,0.45 5.671,1.154 8.339,1.667 2.668,0.513 4.664,0.835 6.751,1.182 2.088,0.347 4.265,0.719 7.24,1.192 2.975,0.472 6.746,1.046 9.15,1.373 2.404,0.327 3.44,0.407 3.958,0.447 0.518,0.041 0.518,0.041 0.568,-0.543 0.049,-0.583 0.149,-1.75 0.263,-2.759 0.114,-1.009 0.242,-1.86 0.394,-2.937 0.152,-1.077 0.328,-2.379 0.498,-3.576 0.17,-1.197 0.333,-2.289 0.417,-2.902 0.085,-0.614 0.089,-0.749 0.076,-0.865 -0.014,-0.116 -0.047,-0.211 -0.023,-1.818 0.024,-1.607 0.104,-4.725 0.147,-7.257 0.043,-2.532 0.048,-4.478 0.059,-5.601 0.011,-1.123 0.029,-1.422 0.067,-1.618 0.038,-0.197 0.095,-0.29 0.176,-0.338 0.08,-0.05 0.184,-0.055 0.308,0.038 0.124,0.094 0.27,0.285 0.345,0.376 0.074,0.092 0.076,0.085 0.078,0.081 0.001,-0.004 0.001,-0.004 0.115,0.253 0.114,0.256 0.343,0.769 0.597,1.463 0.254,0.694 0.533,1.569 0.762,2.507 0.229,0.938 0.408,1.939 0.607,3.547 0.2,1.608 0.422,3.823 0.739,6.228 0.316,2.406 0.729,5.001 1.468,11.393 0.739,6.392 1.805,16.58 2.64,24.511 0.835,7.931 1.439,13.604 1.811,19.699 0.372,6.095 0.513,12.613 0.503,19.654 -0.01,7.04 -0.171,14.604 -0.372,20.609 -0.202,6.004 -0.443,10.45 -0.725,14.423 -0.281,3.973 -0.603,7.473 -1.448,14.162 -0.845,6.688 -2.213,16.566 -3.007,23.777 -0.795,7.212 -1.016,11.758 -1.217,15.269 -0.202,3.51 -0.383,5.984 -0.674,8.122 -0.292,2.137 -0.694,3.937 -0.973,5.315 -0.279,1.378 -0.436,2.334 -0.453,2.935 -0.018,0.601 0.103,0.847 0.249,0.975 0.146,0.129 0.317,0.138 0.5,0.175 0.184,0.036 0.38,0.099 0.469,0.155 0.019,0.011 0.032,0.022 0.042,0.037 0.876,0.322 1.753,0.645 3.155,0.925 1.401,0.28 3.329,0.518 6.493,0.754 3.163,0.237 7.562,0.472 11.099,0.609 3.537,0.138 6.212,0.178 9.592,0.181 3.38,0.003 7.463,-0.03 11.329,-0.007 3.866,0.024 7.513,0.104 10.591,0.191 3.078,0.088 5.586,0.181 7.916,0.252 2.33,0.07 4.483,0.117 6.789,0.171 2.307,0.053 4.768,0.114 7.356,0.121 2.589,0.006 5.304,-0.041 8.04,-0.098 2.736,-0.057 5.492,-0.124 7.953,-0.221z"/>
   </clipPath>
    <clipPath id="id1">
     <path d="M197.737 96.303c0.032,-0.569 0.064,-1.138 -0.075,-1.761 -0.138,-0.623 -0.446,-1.3 -0.601,-1.639 -0.154,-0.338 -0.154,-0.338 -0.16,-0.59 -0.007,-0.251 -0.021,-0.754 0.221,-1.78 0.241,-1.026 0.737,-2.575 1.398,-4.644 0.66,-2.068 1.485,-4.656 2.313,-7.962 0.828,-3.306 1.66,-7.329 2.444,-13.19 0.785,-5.86 1.522,-13.558 2.347,-18.902 0.825,-5.345 1.737,-8.335 2.716,-11.172 0.793,-2.296 1.629,-4.491 2.474,-6.668l-0.007 -0.017 0 -0.001 -0.002 -0.007 -0.002 -0.005 -0.002 -0.005 -0.004 -0.013 -0.004 -0.013 -0.002 -0.006 -0.011 -0.048 -0.001 -0.002 -0.006 -0.032 -0.001 -0.008 0 -0.004 -0.001 -0.006 -0.001 -0.005 -0.001 -0.004 -0.001 -0.007 0 -0.005 -0.001 -0.007 -0.001 -0.004 -0.001 -0.009 0 -0.006c-0.009,-0.077 -0.009,-0.109 -0.07,-0.174 -0.06,-0.066 -0.181,-0.164 -1.307,-0.714 -1.127,-0.551 -3.259,-1.555 -5.31,-2.603 -2.05,-1.048 -4.019,-2.142 -5.77,-2.976 -1.752,-0.833 -3.286,-1.407 -5.061,-1.957 -1.775,-0.551 -3.792,-1.079 -5.429,-1.507 -1.637,-0.427 -2.894,-0.754 -3.762,-1.008 -0.867,-0.254 -1.345,-0.435 -2.044,-0.7 -0.699,-0.266 -1.619,-0.615 -2.606,-0.909 -0.987,-0.295 -2.041,-0.533 -2.716,-0.687 -0.675,-0.153 -0.972,-0.221 -1.44,-0.471 -0.467,-0.25 -1.106,-0.683 -1.581,-0.937 -0.475,-0.254 -0.787,-0.329 -1.073,-0.365 -0.285,-0.035 -0.544,-0.03 -0.777,-0.03 -0.232,0 -0.438,-0.005 -1.342,-0.33 -0.904,-0.326 -2.506,-0.972 -4.026,-1.577 -1.52,-0.605 -2.959,-1.168 -4.404,-1.748 -1.446,-0.579 -2.9,-1.175 -3.816,-1.569 -0.917,-0.393 -1.297,-0.584 -1.594,-0.779 -0.298,-0.194 -0.514,-0.392 -0.705,-0.497 -0.191,-0.105 -0.356,-0.116 -0.467,-0.117l-0.028 0 -0.006 0.001 -0.013 0 -0.005 0 -0.008 0 -0.005 0 -0.004 0 -0.004 0 -0.005 0 -0.007 0.001 -0.001 0 -0.007 0 -0.004 0 -0.001 0 -0.003 0 -0.004 0 -0.007 0.001 -0.004 0 -0.004 0 -0.006 0 -0.008 0 -0.008 0 -0.022 0 -0.009 0 -0.006 0 -0.001 0 -0.002 0 -0.004 0 -0.001 0 -0.007 -0.001 -0.001 0 -0.019 -0.001 -0.003 0 -0.012 -0.002 -0.008 -0.001 -0.014 -0.002c-0.086,-0.014 -0.204,-0.052 -0.587,-0.292 -0.382,-0.24 -1.028,-0.682 -1.678,-1.193 -0.65,-0.51 -1.304,-1.089 -1.956,-1.661 -0.653,-0.572 -1.304,-1.138 -2.311,-1.569 -1.007,-0.431 -2.37,-0.728 -3.723,-0.919 -1.353,-0.191 -2.695,-0.276 -4.576,-0.354 -1.881,-0.078 -4.3,-0.149 -7.931,-0.131 -3.631,0.017 -8.474,0.123 -12.914,0.219 -4.439,0.096 -8.475,0.183 -10.597,0.231 -2.123,0.048 -2.332,0.058 -4.152,0.203 -1.82,0.145 -5.249,0.427 -7.404,0.671 -2.155,0.244 -3.035,0.45 -3.752,0.707 -0.717,0.256 -1.27,0.563 -1.886,1.078 -0.616,0.516 -1.295,1.24 -2.019,1.877 -0.725,0.638 -1.494,1.189 -1.953,1.46l-0.056 0.033 -0.011 0.006 -0.02 0.011 -0.005 0.003 -0.013 0.008 -0.002 0.001 -0.008 0.004 0 0 -0.024 0.014 -0.003 0.001 -0.031 0.016 -0.002 0.002 -0.006 0.002 -0.001 0.002 -0.008 0.003 -0.021 0.011 -0.004 0.002 -0.005 0.003 -0.002 0.001 -0.006 0.003 -0.007 0.004 -0.003 0.001 -0.005 0.002 -0.001 0.001 -0.026 0.013 -0.051 0.024 -0.01 0.004 -0.041 0.018 -0.011 0.005 -0.02 0.008 -0.01 0.004 -0.034 0.013 -0.002 0.001 -0.025 0.009 -0.02 0.007 -0.031 0.011 -0.022 0.007 -0.018 0.006 -0.022 0.007 -0.015 0.004 -0.01 0.003 -0.039 0.012 -0.006 0.002 -0.051 0.014 -0.013 0.004 -0.006 0.002 -0.014 0.004 -0.065 0.019 -0.01 0.003 -0.033 0.011 -0.001 0 -0.022 0.007 -0.029 0.01c-0.295,0.102 -0.735,0.313 -1.268,0.582 -0.533,0.269 -1.159,0.596 -1.919,0.922 -0.761,0.325 -1.656,0.65 -2.301,0.904 -0.645,0.254 -1.04,0.437 -1.514,0.628 -0.474,0.192 -1.027,0.39 -1.765,0.621 -0.738,0.232 -1.661,0.496 -2.558,0.836 -0.896,0.341 -1.766,0.759 -2.573,1.076 -0.808,0.316 -1.552,0.533 -2.299,0.749 -0.746,0.216 -1.496,0.432 -2.053,0.655 -0.557,0.222 -0.921,0.451 -1.207,0.636 -0.285,0.185 -0.491,0.326 -0.999,0.476 -0.508,0.15 -1.318,0.31 -1.914,0.463 -0.596,0.154 -0.978,0.301 -1.488,0.492 -0.51,0.192 -1.147,0.429 -1.75,0.617 -0.603,0.189 -1.171,0.329 -1.687,0.459 -0.516,0.13 -0.98,0.248 -1.7,0.426 -0.719,0.179 -1.693,0.418 -2.551,0.633 -0.857,0.216 -1.598,0.408 -2.171,0.57 -0.573,0.161 -0.979,0.292 -1.436,0.426 -0.456,0.134 -0.963,0.271 -1.427,0.4 -0.465,0.129 -0.887,0.249 -1.312,0.377 -0.424,0.128 -0.85,0.262 -1.203,0.399 -0.353,0.137 -0.632,0.277 -1.012,0.437 -0.38,0.159 -0.862,0.339 -1.279,0.53 -0.417,0.191 -0.769,0.394 -1.165,0.602 -0.397,0.209 -0.838,0.424 -1.221,0.617 -0.382,0.194 -0.705,0.366 -1.126,0.589 -0.421,0.223 -0.941,0.495 -1.657,0.865 -0.717,0.371 -1.631,0.838 -2.694,1.37 -1.063,0.532 -2.275,1.128 -3.18,1.576 -0.905,0.448 -1.504,0.747 -2.037,1.087 -0.533,0.341 -1.001,0.723 -1.443,1.08l-0.01 0.008 -0.008 0.007 -0.023 0.019 -0.005 0.003 -0.009 0.007 -0.017 0.014 -0.007 0.006 -0.01 0.008 -0.034 0.027 -0.004 0.003 -0.009 0.007 -0.006 0.006 -0.012 0.01 -0.002 0.001 -0.022 0.017c0.046,0.197 0.1,0.412 0.167,0.649 0.328,1.174 0.946,2.898 1.737,5.811 0.792,2.914 1.757,7.018 2.522,10.974 0.764,3.956 1.327,7.765 1.971,12.15 0.644,4.386 1.368,9.348 2.24,13.927 0.872,4.58 1.891,8.778 2.843,12.104 0.952,3.326 1.837,5.78 2.266,7.426 0.429,1.646 0.402,2.484 0.362,3.011 -0.04,0.526 -0.094,0.741 -0.225,1.071 -0.132,0.331 -0.341,0.778 -0.551,1.225 0.08,-0.05 0.184,-0.055 0.308,0.038 0.124,0.094 0.27,0.285 0.345,0.376 0.074,0.092 0.076,0.085 0.078,0.081 0.001,-0.004 0.001,-0.004 0.115,0.253 0.114,0.256 0.343,0.769 0.597,1.463 0.254,0.694 0.533,1.569 0.762,2.507 0.229,0.938 0.408,1.939 0.607,3.547 0.2,1.608 0.422,3.823 0.739,6.228 0.316,2.406 0.729,5.001 1.468,11.393 0.739,6.392 1.805,16.58 2.64,24.511 0.835,7.931 1.439,13.604 1.811,19.699 0.372,6.095 0.513,12.613 0.503,19.654 -0.01,7.04 -0.171,14.604 -0.372,20.609 -0.202,6.004 -0.443,10.45 -0.725,14.423 -0.281,3.973 -0.603,7.473 -1.448,14.162 -0.845,6.688 -2.213,16.566 -3.007,23.777 -0.795,7.212 -1.016,11.758 -1.217,15.269 -0.202,3.51 -0.383,5.984 -0.674,8.122 -0.292,2.137 -0.694,3.937 -0.973,5.315 -0.279,1.378 -0.436,2.334 -0.453,2.935 -0.018,0.601 0.103,0.847 0.249,0.975 0.146,0.129 0.317,0.138 0.5,0.175 0.184,0.036 0.38,0.099 0.469,0.155 0.019,0.011 0.032,0.022 0.042,0.037 0.876,0.322 1.753,0.645 3.155,0.925 1.401,0.28 3.329,0.518 6.493,0.754 3.163,0.237 7.562,0.472 11.099,0.609 3.537,0.138 6.212,0.178 9.592,0.181 3.38,0.003 7.463,-0.03 11.329,-0.007 3.866,0.024 7.513,0.104 10.591,0.191 3.078,0.088 5.586,0.181 7.916,0.252 2.33,0.07 4.483,0.117 6.789,0.171 2.307,0.053 4.768,0.114 7.356,0.121 2.589,0.006 5.304,-0.041 8.04,-0.098 2.736,-0.057 5.492,-0.124 7.953,-0.221 2.461,-0.097 4.626,-0.225 7.017,-0.355 2.39,-0.131 5.006,-0.265 8.261,-0.493 3.256,-0.228 7.151,-0.55 10.471,-0.852 3.319,-0.302 6.061,-0.583 8.794,-0.949 2.732,-0.365 5.455,-0.814 7.654,-1.25 2.2,-0.436 3.876,-0.858 6.001,-1.331 2.126,-0.473 4.701,-0.996 6.595,-1.321 1.894,-0.325 3.108,-0.453 4.268,-0.536 1.16,-0.084 2.267,-0.124 3.155,-0.117 0.889,0.008 1.559,0.063 1.956,0.094 0.396,0.031 0.518,0.038 0.611,0.043 0.049,0.002 0.09,0.004 0.127,0.006 0.093,-0.07 0.162,-0.18 0.177,-0.779 0.016,-0.673 -0.037,-1.966 -0.106,-2.786 -0.069,-0.819 -0.154,-1.166 -0.285,-1.855 -0.131,-0.689 -0.307,-1.72 -0.651,-2.686 -0.345,-0.965 -0.858,-1.866 -1.476,-3.045 -0.619,-1.179 -1.343,-2.638 -1.783,-3.616 -0.44,-0.978 -0.596,-1.476 -0.848,-2.693 -0.251,-1.217 -0.598,-3.153 -0.953,-5.871 -0.354,-2.718 -0.716,-6.219 -1.038,-8.884 -0.322,-2.666 -0.603,-4.496 -1.081,-7.559 -0.478,-3.062 -1.152,-7.357 -1.71,-11.521 -0.558,-4.164 -1.001,-8.198 -1.348,-12.226 -0.347,-4.028 -0.598,-8.051 -0.759,-11.637 -0.161,-3.586 -0.231,-6.734 -0.287,-9.787 -0.055,-3.052 -0.095,-6.01 -0.156,-9.258 -0.06,-3.249 -0.14,-6.79 -0.108,-12.037 0.033,-5.248 0.179,-12.203 0.352,-17.466 0.174,-5.263 0.375,-8.834 0.652,-12.807 0.276,-3.973 0.628,-8.348 0.975,-12.271 0.347,-3.922 0.689,-7.393 1.122,-11.743 0.432,-4.35 0.955,-9.58 1.483,-13.99 0.528,-4.411 1.061,-8.002 1.512,-10.619 0.45,-2.618 0.817,-4.262 1.139,-5.308 0.321,-1.046 0.598,-1.494 0.803,-1.766 0.205,-0.271 0.338,-0.367 0.405,-0.414z"/>
    </clipPath>
    <clipPath id="id2">
     <path d="M136.796 295.988c2.461,-0.097 4.626,-0.225 7.017,-0.355 2.39,-0.131 5.006,-0.265 8.261,-0.493 3.256,-0.228 7.151,-0.55 10.471,-0.852 3.319,-0.302 6.061,-0.583 8.794,-0.949 2.732,-0.365 5.455,-0.814 7.654,-1.25 2.2,-0.436 3.876,-0.858 6.001,-1.331 2.126,-0.473 4.701,-0.996 6.595,-1.321 1.894,-0.325 3.108,-0.453 4.268,-0.536 1.16,-0.084 2.267,-0.124 3.155,-0.117 0.889,0.008 1.559,0.063 1.956,0.094 0.396,0.031 0.518,0.038 0.611,0.043 0.049,0.002 0.09,0.004 0.127,0.006 0.093,-0.07 0.162,-0.18 0.177,-0.779 0.016,-0.673 -0.037,-1.966 -0.106,-2.786 -0.069,-0.819 -0.154,-1.166 -0.285,-1.855 -0.131,-0.689 -0.307,-1.72 -0.651,-2.686 -0.345,-0.965 -0.858,-1.866 -1.476,-3.045 -0.619,-1.179 -1.343,-2.638 -1.783,-3.616 -0.44,-0.978 -0.596,-1.476 -0.848,-2.693 -0.251,-1.217 -0.598,-3.153 -0.953,-5.871 -0.354,-2.718 -0.716,-6.219 -1.038,-8.884 -0.322,-2.666 -0.603,-4.496 -1.081,-7.559 -0.478,-3.062 -1.152,-7.357 -1.71,-11.521 -0.558,-4.164 -1.001,-8.198 -1.348,-12.226 -0.347,-4.028 -0.598,-8.051 -0.759,-11.637 -0.161,-3.586 -0.231,-6.734 -0.287,-9.787 -0.055,-3.052 -0.095,-6.01 -0.156,-9.258 -0.06,-3.249 -0.14,-6.79 -0.108,-12.037 0.033,-5.248 0.179,-12.203 0.352,-17.466 0.174,-5.263 0.375,-8.834 0.652,-12.807 0.276,-3.973 0.628,-8.348 0.975,-12.271 0.347,-3.922 0.689,-7.393 1.122,-11.743 0.432,-4.35 0.955,-9.58 1.483,-13.99 0.528,-4.411 1.061,-8.002 1.512,-10.619 0.45,-2.618 0.817,-4.262 1.139,-5.308 0.321,-1.046 0.598,-1.494 0.803,-1.766 0.205,-0.271 0.338,-0.367 0.405,-0.414 0.066,-0.048 0.066,-0.048 0.049,0.598 -0.018,0.646 -0.053,1.939 -0.108,3.533 -0.056,1.594 -0.131,3.49 -0.173,4.967 -0.041,1.478 -0.049,2.536 -0.079,3.186 -0.03,0.65 -0.083,0.892 -0.102,1.011 -0.018,0.119 -0.003,0.117 -0.041,0.151 -0.038,0.034 -0.128,0.104 -0.133,0.68 -0.005,0.576 0.075,1.657 0.192,3.051 0.117,1.395 0.27,3.102 0.322,4.786 0.051,1.683 0.001,3.343 0.002,4.231 0,0.887 0.052,1.003 0.132,1.078 0.08,0.076 0.188,0.111 1.001,0.06 0.814,-0.051 2.333,-0.188 4.105,-0.324 1.773,-0.137 3.8,-0.273 5.955,-0.431 2.155,-0.158 4.438,-0.339 6.588,-0.463 2.15,-0.123 4.166,-0.188 5.992,-0.299 1.826,-0.111 3.46,-0.267 5.336,-0.47 1.876,-0.204 3.993,-0.455 6.015,-0.682 2.021,-0.226 3.947,-0.427 5.109,-0.565 1.162,-0.139 1.559,-0.214 1.758,-0.327 0.199,-0.113 0.199,-0.264 0.229,-0.906 0.03,-0.641 0.09,-1.772 0.108,-3.132 0.017,-1.361 -0.008,-2.95 -0.023,-4.429 -0.015,-1.478 -0.02,-2.846 -0.038,-3.724 -0.017,-0.877 -0.047,-1.264 -0.071,-1.469 -0.025,-0.205 -0.043,-0.227 -0.083,-0.294 -0.04,-0.068 -0.103,-0.181 -0.174,-0.682 -0.071,-0.5 -0.152,-1.388 -0.255,-2.32 -0.103,-0.933 -0.229,-1.911 -0.348,-2.739 -0.12,-0.827 -0.233,-1.504 -0.413,-2.544 -0.179,-1.042 -0.426,-2.447 -0.613,-3.449 -0.187,-1.002 -0.316,-1.601 -0.436,-2.27 -0.121,-0.668 -0.234,-1.408 -0.366,-2.121 -0.132,-0.713 -0.283,-1.399 -0.425,-2.156 -0.142,-0.757 -0.275,-1.584 -0.375,-2.322 -0.099,-0.738 -0.165,-1.387 -0.239,-2.029 -0.074,-0.643 -0.157,-1.279 -0.257,-2.036 -0.101,-0.757 -0.219,-1.634 -0.34,-2.526 -0.121,-0.891 -0.244,-1.796 -0.353,-2.565 -0.11,-0.768 -0.205,-1.399 -0.373,-2.344 -0.168,-0.945 -0.408,-2.203 -0.82,-4.085 -0.412,-1.881 -0.995,-4.386 -1.704,-6.89 -0.709,-2.505 -1.544,-5.009 -2.651,-7.745 -1.106,-2.736 -2.484,-5.703 -4.093,-8.851 -1.61,-3.149 -3.45,-6.478 -4.878,-8.781 -1.429,-2.304 -2.444,-3.581 -3.453,-4.629 -1.008,-1.049 -2.009,-1.869 -3.015,-2.608 -1.006,-0.739 -2.017,-1.398 -2.582,-1.773 -0.566,-0.375 -0.687,-0.465 -0.756,-0.571 -0.069,-0.105 -0.087,-0.226 -0.095,-0.303 -0.009,-0.077 -0.009,-0.109 -0.07,-0.174 -0.06,-0.066 -0.181,-0.164 -1.307,-0.714 -1.127,-0.551 -3.259,-1.555 -5.31,-2.603 -2.05,-1.048 -4.019,-2.142 -5.77,-2.976 -1.752,-0.833 -3.286,-1.407 -5.061,-1.957 -1.775,-0.551 -3.792,-1.079 -5.429,-1.507 -1.637,-0.427 -2.894,-0.754 -3.762,-1.008 -0.867,-0.254 -1.345,-0.435 -2.044,-0.7 -0.699,-0.266 -1.619,-0.615 -2.606,-0.909 -0.987,-0.295 -2.041,-0.533 -2.716,-0.687 -0.675,-0.153 -0.972,-0.221 -1.44,-0.471 -0.467,-0.25 -1.106,-0.683 -1.581,-0.937 -0.475,-0.254 -0.787,-0.329 -1.073,-0.365 -0.285,-0.035 -0.544,-0.03 -0.777,-0.03 -0.232,0 -0.438,-0.005 -1.342,-0.33 -0.904,-0.326 -2.506,-0.972 -4.026,-1.577 -1.52,-0.605 -2.959,-1.168 -4.404,-1.748 -1.446,-0.579 -2.9,-1.175 -3.816,-1.569 -0.917,-0.393 -1.297,-0.584 -1.594,-0.779 -0.298,-0.194 -0.514,-0.392 -0.705,-0.497 -0.191,-0.105 -0.356,-0.116 -0.467,-0.117 -0.11,0 -0.164,0.01 -0.251,-0.004 -0.086,-0.014 -0.204,-0.052 -0.587,-0.292 -0.382,-0.24 -1.028,-0.682 -1.678,-1.193 -0.65,-0.51 -1.304,-1.089 -1.956,-1.661 -0.653,-0.572 -1.304,-1.138 -2.311,-1.569 -1.007,-0.431 -2.37,-0.728 -3.723,-0.919 -1.353,-0.191 -2.695,-0.276 -4.576,-0.354 -1.881,-0.078 -4.3,-0.149 -7.931,-0.131 -3.631,0.017 -8.474,0.123 -12.914,0.219 -4.439,0.096 -8.475,0.183 -10.597,0.231 -2.123,0.048 -2.332,0.058 -4.152,0.203 -1.82,0.145 -5.249,0.427 -7.404,0.671 -2.155,0.244 -3.035,0.45 -3.752,0.707 -0.717,0.256 -1.27,0.563 -1.886,1.078 -0.616,0.516 -1.295,1.24 -2.019,1.877 -0.725,0.638 -1.494,1.189 -1.953,1.46 -0.459,0.272 -0.607,0.264 -0.901,0.366 -0.295,0.102 -0.735,0.313 -1.268,0.582 -0.533,0.269 -1.159,0.596 -1.919,0.922 -0.761,0.325 -1.656,0.65 -2.301,0.904 -0.645,0.254 -1.04,0.437 -1.514,0.628 -0.474,0.192 -1.027,0.39 -1.765,0.621 -0.738,0.232 -1.661,0.496 -2.558,0.836 -0.896,0.341 -1.766,0.759 -2.573,1.076 -0.808,0.316 -1.552,0.533 -2.299,0.749 -0.746,0.216 -1.496,0.432 -2.053,0.655 -0.557,0.222 -0.921,0.451 -1.207,0.636 -0.285,0.185 -0.491,0.326 -0.999,0.476 -0.508,0.15 -1.318,0.31 -1.914,0.463 -0.596,0.154 -0.978,0.301 -1.488,0.492 -0.51,0.192 -1.147,0.429 -1.75,0.617 -0.603,0.189 -1.171,0.329 -1.687,0.459 -0.516,0.13 -0.98,0.248 -1.7,0.426 -0.719,0.179 -1.693,0.418 -2.551,0.633 -0.857,0.216 -1.598,0.408 -2.171,0.57 -0.573,0.161 -0.979,0.292 -1.436,0.426 -0.456,0.134 -0.963,0.271 -1.427,0.4 -0.465,0.129 -0.887,0.249 -1.312,0.377 -0.424,0.128 -0.85,0.262 -1.203,0.399 -0.353,0.137 -0.632,0.277 -1.012,0.437 -0.38,0.159 -0.862,0.339 -1.279,0.53 -0.417,0.191 -0.769,0.394 -1.165,0.602 -0.397,0.209 -0.838,0.424 -1.221,0.617 -0.382,0.194 -0.705,0.366 -1.126,0.589 -0.421,0.223 -0.941,0.495 -1.657,0.865 -0.717,0.371 -1.631,0.838 -2.694,1.37 -1.063,0.532 -2.275,1.128 -3.18,1.576 -0.905,0.448 -1.504,0.747 -2.037,1.087 -0.533,0.341 -1.001,0.723 -1.443,1.08 -0.443,0.358 -0.86,0.689 -1.353,1.079 -0.493,0.39 -1.061,0.837 -1.779,1.475 -0.718,0.637 -1.586,1.465 -2.375,2.331 -0.79,0.866 -1.501,1.771 -2.145,2.665 -0.644,0.894 -1.22,1.777 -1.924,2.935 -0.704,1.158 -1.536,2.591 -2.208,3.821 -0.671,1.229 -1.181,2.255 -1.732,3.264 -0.551,1.008 -1.141,1.999 -1.644,2.942 -0.503,0.943 -0.918,1.838 -1.313,2.759 -0.395,0.922 -0.77,1.87 -1.152,2.756 -0.382,0.887 -0.772,1.712 -1.285,3.043 -0.513,1.331 -1.149,3.17 -1.716,4.911 -0.567,1.741 -1.065,3.386 -1.49,4.836 -0.425,1.451 -0.777,2.709 -1.129,4.225 -0.352,1.516 -0.704,3.291 -1.144,5.668 -0.44,2.376 -0.968,5.353 -1.29,7.073 -0.322,1.72 -0.438,2.183 -0.543,2.673 -0.106,0.491 -0.201,1.009 -0.4,1.833 -0.198,0.825 -0.5,1.957 -0.807,3.143 -0.307,1.187 -0.618,2.43 -0.84,3.478 -0.221,1.049 -0.352,1.904 -0.575,3.166 -0.224,1.262 -0.541,2.932 -0.787,4.297 -0.247,1.366 -0.423,2.427 -0.529,2.975 -0.105,0.548 -0.14,0.583 -0.204,0.634 -0.063,0.05 -0.155,0.115 -0.251,2.246 -0.096,2.13 -0.197,6.326 -0.275,8.622 -0.078,2.297 -0.133,2.694 0.035,2.902 0.169,0.209 0.561,0.229 1.419,0.337 0.857,0.108 2.18,0.305 4.51,0.755 2.332,0.45 5.671,1.154 8.339,1.667 2.668,0.513 4.664,0.835 6.751,1.182 2.088,0.347 4.265,0.719 7.24,1.192 2.975,0.472 6.746,1.046 9.15,1.373 2.404,0.327 3.44,0.407 3.958,0.447 0.518,0.041 0.518,0.041 0.568,-0.543 0.049,-0.583 0.149,-1.75 0.263,-2.759 0.114,-1.009 0.242,-1.86 0.394,-2.937 0.152,-1.077 0.328,-2.379 0.498,-3.576 0.17,-1.197 0.333,-2.289 0.417,-2.902 0.085,-0.614 0.089,-0.749 0.076,-0.865 -0.014,-0.116 -0.047,-0.211 -0.023,-1.818 0.024,-1.607 0.104,-4.725 0.147,-7.257 0.043,-2.532 0.048,-4.478 0.059,-5.601 0.011,-1.123 0.029,-1.422 0.067,-1.618 0.038,-0.197 0.095,-0.29 0.176,-0.338 0.08,-0.05 0.184,-0.055 0.308,0.038 0.124,0.094 0.27,0.285 0.345,0.376 0.074,0.092 0.076,0.085 0.078,0.081 0.001,-0.004 0.001,-0.004 0.115,0.253 0.114,0.256 0.343,0.769 0.597,1.463 0.254,0.694 0.533,1.569 0.762,2.507 0.229,0.938 0.408,1.939 0.607,3.547 0.2,1.608 0.422,3.823 0.739,6.228 0.316,2.406 0.729,5.001 1.468,11.393 0.739,6.392 1.805,16.58 2.64,24.511 0.835,7.931 1.439,13.604 1.811,19.699 0.372,6.095 0.513,12.613 0.503,19.654 -0.01,7.04 -0.171,14.604 -0.372,20.609 -0.202,6.004 -0.443,10.45 -0.725,14.423 -0.281,3.973 -0.603,7.473 -1.448,14.162 -0.845,6.688 -2.213,16.566 -3.007,23.777 -0.795,7.212 -1.016,11.758 -1.217,15.269 -0.202,3.51 -0.383,5.984 -0.674,8.122 -0.292,2.137 -0.694,3.937 -0.973,5.315 -0.279,1.378 -0.436,2.334 -0.453,2.935 -0.018,0.601 0.103,0.847 0.249,0.975 0.146,0.129 0.317,0.138 0.5,0.175 0.184,0.036 0.38,0.099 0.469,0.155 0.019,0.011 0.032,0.022 0.042,0.037 0.876,0.322 1.753,0.645 3.155,0.925 1.401,0.28 3.329,0.518 6.493,0.754 3.163,0.237 7.562,0.472 11.099,0.609 3.537,0.138 6.212,0.178 9.592,0.181 3.38,0.003 7.463,-0.03 11.329,-0.007 3.866,0.024 7.513,0.104 10.591,0.191 3.078,0.088 5.586,0.181 7.916,0.252 2.33,0.07 4.483,0.117 6.789,0.171 2.307,0.053 4.768,0.114 7.356,0.121 2.589,0.006 5.304,-0.041 8.04,-0.098 2.736,-0.057 5.492,-0.124 7.953,-0.221z"/>
    </clipPath>
    <clipPath id="id3">
     <path d="M44.533 92.099c-0.429,-1.646 -1.314,-4.1 -2.266,-7.426 -0.952,-3.326 -1.971,-7.524 -2.843,-12.104 -0.872,-4.579 -1.596,-9.541 -2.24,-13.927 -0.644,-4.385 -1.207,-8.194 -1.971,-12.15 -0.765,-3.956 -1.73,-8.06 -2.522,-10.974 -0.791,-2.913 -1.409,-4.637 -1.737,-5.811 -0.067,-0.237 -0.121,-0.452 -0.167,-0.649l-0.108 0.087 -0.019 0.015 -0.307 0.246 -0.02 0.016 -0.078 0.062 -0.021 0.017 -0.171 0.135 -0.017 0.014 -0.05 0.04 -0.023 0.018 -0.064 0.051 -0.036 0.028 -0.019 0.015 -0.038 0.03 -0.038 0.03 -0.027 0.022 -0.056 0.044 -0.019 0.015 -0.064 0.051c-0.493,0.39 -1.061,0.837 -1.779,1.475 -0.718,0.637 -1.586,1.465 -2.375,2.331 -0.79,0.866 -1.501,1.771 -2.145,2.665 -0.644,0.894 -1.22,1.777 -1.924,2.935 -0.704,1.158 -1.536,2.591 -2.208,3.821 -0.671,1.229 -1.181,2.255 -1.732,3.264 -0.551,1.008 -1.141,1.999 -1.644,2.942 -0.503,0.943 -0.918,1.838 -1.313,2.759 -0.395,0.922 -0.77,1.87 -1.152,2.756 -0.382,0.887 -0.772,1.712 -1.285,3.043 -0.513,1.331 -1.149,3.17 -1.716,4.911 -0.567,1.741 -1.065,3.386 -1.49,4.836 -0.425,1.451 -0.777,2.709 -1.129,4.225 -0.352,1.516 -0.704,3.291 -1.144,5.668 -0.44,2.376 -0.968,5.353 -1.29,7.073 -0.322,1.72 -0.438,2.183 -0.543,2.673 -0.106,0.491 -0.201,1.009 -0.4,1.833 -0.198,0.825 -0.5,1.957 -0.807,3.143 -0.307,1.187 -0.618,2.43 -0.84,3.478 -0.221,1.049 -0.352,1.904 -0.575,3.166 -0.224,1.262 -0.541,2.932 -0.787,4.297 -0.247,1.366 -0.423,2.427 -0.529,2.975l-0.009 0.052 -0.008 0.037 -0.002 0.011 -0.005 0.025 -0.006 0.026 -0.005 0.025 -0.001 0.006 -0.004 0.018 -0.004 0.019 -0.005 0.025 -0.009 0.04 -0.003 0.014 -0.01 0.044 -0.004 0.015 -0.004 0.016 -0.004 0.015 -0.002 0.008 -0.005 0.016 -0.007 0.028 -0.001 0.003 -0.003 0.009 -0.005 0.016 -0.008 0.027 -0.006 0.015 -0.004 0.011 -0.003 0.006 -0.001 0.005 -0.003 0.006 -0.003 0.007 -0.005 0.011 0 0 -0.004 0.006 -0.003 0.006 -0.006 0.011 -0.003 0.005 -0.005 0.006 -0.005 0.007 -0.002 0.003 -0.006 0.006 -0.003 0.003 -0.004 0.004 -0.006 0.006 -0.007 0.006 -0.003 0.002 -0.005 0.004 -0.003 0.003c-0.063,0.05 -0.155,0.115 -0.251,2.246 -0.096,2.13 -0.197,6.326 -0.275,8.622 -0.078,2.297 -0.133,2.694 0.035,2.902 0.169,0.209 0.561,0.229 1.419,0.337 0.857,0.108 2.18,0.305 4.51,0.755 2.332,0.45 5.671,1.154 8.339,1.667 2.668,0.513 4.664,0.835 6.751,1.182 2.088,0.347 4.265,0.719 7.24,1.192 2.975,0.472 6.746,1.046 9.15,1.373 2.404,0.327 3.44,0.407 3.958,0.447 0.518,0.041 0.518,0.041 0.568,-0.543 0.049,-0.583 0.149,-1.75 0.263,-2.759 0.114,-1.009 0.242,-1.86 0.394,-2.937 0.152,-1.077 0.328,-2.379 0.498,-3.576 0.17,-1.197 0.333,-2.289 0.417,-2.902 0.085,-0.614 0.089,-0.749 0.076,-0.865l-0.001 -0.007 -0.001 -0.008 -0.001 -0.007 -0.001 -0.008 -0.002 -0.012 -0.001 -0.012 -0.002 -0.012 0 -0.002 -0.001 -0.013 -0.002 -0.019 0 -0.001c-0.004,-0.041 -0.009,-0.098 -0.012,-0.184l0 -0.009 -0.001 -0.033 0 -0.002 -0.004 -0.176 -0.001 -0.062 0 -0.048 0 -0.02 -0.001 -0.042 0 -0.031 0 -0.037 0 -0.042 0 -0.131 0 -0.049 0 -0.046 0 -0.043 0.001 -0.06 0 -0.031 0 -0.054 0 -0.043 0.001 -0.094 0 -0.009 0.002 -0.127 0.001 -0.096 0.001 -0.077 0.001 -0.085 0.001 -0.086c0.024,-1.607 0.104,-4.725 0.147,-7.257 0.043,-2.532 0.048,-4.478 0.059,-5.601 0.011,-1.123 0.029,-1.422 0.067,-1.618 0.038,-0.197 0.095,-0.29 0.176,-0.338 0.21,-0.447 0.419,-0.894 0.551,-1.225 0.131,-0.33 0.185,-0.545 0.225,-1.071 0.04,-0.527 0.067,-1.365 -0.362,-3.011zm-0.852 21.838l-0.007 -0.093 -0.005 -0.091m153.655 -4.155l-0.003 0.026 -0.001 0.007 -0.003 0.02 0 0.004c-0.004,0.028 -0.004,0.044 -0.007,0.056l-0.002 0.005 -0.001 0.003 -0.001 0.004 -0.001 0.002 -0.001 0.001 -0.002 0.003 -0.002 0.003 -0.001 0.001 -0.002 0.002 -0.002 0.002 0 0.001 -0.005 0.005 -0.004 0.003 -0.003 0.003c-0.038,0.034 -0.128,0.104 -0.133,0.68 -0.005,0.576 0.075,1.657 0.192,3.051 0.117,1.395 0.27,3.102 0.322,4.786 0.051,1.683 0.001,3.343 0.002,4.231 0,0.887 0.052,1.003 0.132,1.078 0.08,0.076 0.188,0.111 1.001,0.06 0.814,-0.051 2.333,-0.188 4.105,-0.324 1.773,-0.137 3.8,-0.273 5.955,-0.431 2.155,-0.158 4.438,-0.339 6.588,-0.463 2.15,-0.123 4.166,-0.188 5.992,-0.299 1.826,-0.111 3.46,-0.267 5.336,-0.47 1.876,-0.204 3.993,-0.455 6.015,-0.682 2.021,-0.226 3.947,-0.427 5.109,-0.565 1.162,-0.139 1.559,-0.214 1.758,-0.327 0.199,-0.113 0.199,-0.264 0.229,-0.906 0.03,-0.641 0.09,-1.772 0.108,-3.132 0.017,-1.361 -0.008,-2.95 -0.023,-4.429 -0.015,-1.478 -0.02,-2.846 -0.038,-3.724 -0.017,-0.877 -0.047,-1.264 -0.071,-1.469l-0.004 -0.031 -0.005 -0.037 -0.003 -0.016 -0.004 -0.03 -0.002 -0.007 -0.003 -0.019 -0.003 -0.015 -0.001 -0.002c-0.005,-0.022 -0.01,-0.04 -0.015,-0.055l-0.001 -0.001 -0.006 -0.016 -0.001 -0.001 -0.006 -0.013 0 -0.001 -0.002 -0.003 -0.007 -0.013 -0.001 -0.002 -0.003 -0.004 -0.002 -0.004 -0.002 -0.003 -0.002 -0.003 -0.004 -0.008 -0.002 -0.003 -0.004 -0.007c-0.04,-0.068 -0.103,-0.181 -0.174,-0.682 -0.071,-0.5 -0.152,-1.388 -0.255,-2.32 -0.103,-0.933 -0.229,-1.911 -0.348,-2.739 -0.12,-0.827 -0.233,-1.504 -0.413,-2.544 -0.179,-1.042 -0.426,-2.447 -0.613,-3.449 -0.187,-1.002 -0.316,-1.601 -0.436,-2.27 -0.121,-0.668 -0.234,-1.408 -0.366,-2.121 -0.132,-0.713 -0.283,-1.399 -0.425,-2.156 -0.142,-0.757 -0.275,-1.584 -0.375,-2.322 -0.099,-0.738 -0.165,-1.387 -0.239,-2.029 -0.074,-0.643 -0.157,-1.279 -0.257,-2.036 -0.101,-0.757 -0.219,-1.634 -0.34,-2.526 -0.121,-0.891 -0.244,-1.796 -0.353,-2.565 -0.11,-0.768 -0.205,-1.399 -0.373,-2.344 -0.168,-0.945 -0.408,-2.203 -0.82,-4.085 -0.412,-1.881 -0.995,-4.386 -1.704,-6.89 -0.709,-2.505 -1.544,-5.009 -2.651,-7.745 -1.106,-2.736 -2.484,-5.703 -4.093,-8.851 -1.61,-3.149 -3.45,-6.478 -4.878,-8.781 -1.429,-2.304 -2.444,-3.581 -3.453,-4.629 -1.008,-1.049 -2.009,-1.869 -3.015,-2.608 -1.006,-0.739 -2.017,-1.398 -2.582,-1.773 -0.566,-0.375 -0.687,-0.465 -0.756,-0.571l-0.002 -0.003 -0.002 -0.004 -0.002 -0.003 -0.003 -0.005 -0.004 -0.006 -0.001 -0.001 -0.002 -0.005 -0.002 -0.003 -0.003 -0.005 -0.002 -0.005 -0.003 -0.006 -0.002 -0.002 -0.002 -0.005 -0.007 -0.016 -0.001 -0.002 -0.001 -0.002 -0.002 -0.005 -0.004 -0.008 -0.001 -0.003c-0.845,2.177 -1.681,4.372 -2.474,6.668 -0.979,2.837 -1.891,5.827 -2.716,11.172 -0.825,5.344 -1.562,13.042 -2.347,18.902 -0.784,5.861 -1.616,9.884 -2.444,13.19 -0.828,3.306 -1.653,5.894 -2.313,7.962 -0.661,2.069 -1.157,3.618 -1.398,4.644 -0.242,1.026 -0.228,1.529 -0.221,1.78 0.006,0.252 0.006,0.252 0.16,0.59 0.155,0.339 0.463,1.016 0.601,1.639 0.139,0.623 0.107,1.192 0.075,1.761 0.066,-0.048 0.066,-0.048 0.049,0.598 -0.018,0.646 -0.053,1.939 -0.108,3.533 -0.056,1.594 -0.131,3.49 -0.173,4.967 -0.041,1.478 -0.049,2.536 -0.079,3.186 -0.03,0.65 -0.083,0.892 -0.102,1.011z"/>
    </clipPath>
    <clipPath id="id4">
     <path d="M136.796 295.988c2.461,-0.097 4.626,-0.225 7.017,-0.355 2.39,-0.131 5.006,-0.265 8.261,-0.493 3.256,-0.228 7.151,-0.55 10.471,-0.852 3.319,-0.302 6.061,-0.583 8.794,-0.949 2.732,-0.365 5.455,-0.814 7.654,-1.25 2.2,-0.436 3.876,-0.858 6.001,-1.331 2.126,-0.473 4.701,-0.996 6.595,-1.321 1.894,-0.325 3.108,-0.453 4.268,-0.536 1.16,-0.084 2.267,-0.124 3.155,-0.117 0.889,0.008 1.559,0.063 1.956,0.094 0.396,0.031 0.518,0.038 0.611,0.043 0.049,0.002 0.09,0.004 0.127,0.006 0.093,-0.07 0.162,-0.18 0.177,-0.779 0.016,-0.673 -0.037,-1.966 -0.106,-2.786 -0.069,-0.819 -0.154,-1.166 -0.285,-1.855 -0.131,-0.689 -0.307,-1.72 -0.651,-2.686 -0.345,-0.965 -0.858,-1.866 -1.476,-3.045 -0.619,-1.179 -1.343,-2.638 -1.783,-3.616 -0.44,-0.978 -0.596,-1.476 -0.848,-2.693 -0.251,-1.217 -0.598,-3.153 -0.953,-5.871 -0.354,-2.718 -0.716,-6.219 -1.038,-8.884 -0.322,-2.666 -0.603,-4.496 -1.081,-7.559 -0.478,-3.062 -1.152,-7.357 -1.71,-11.521 -0.558,-4.164 -1.001,-8.198 -1.348,-12.226 -0.347,-4.028 -0.598,-8.051 -0.759,-11.637 -0.161,-3.586 -0.231,-6.734 -0.287,-9.787 -0.055,-3.052 -0.095,-6.01 -0.156,-9.258 -0.06,-3.249 -0.14,-6.79 -0.108,-12.037 0.033,-5.248 0.179,-12.203 0.352,-17.466 0.174,-5.263 0.375,-8.834 0.652,-12.807 0.276,-3.973 0.628,-8.348 0.975,-12.271 0.347,-3.922 0.689,-7.393 1.122,-11.743 0.432,-4.35 0.955,-9.58 1.483,-13.99 0.528,-4.411 1.061,-8.002 1.512,-10.619 0.45,-2.618 0.817,-4.262 1.139,-5.308 0.321,-1.046 0.598,-1.494 0.803,-1.766 0.205,-0.271 0.338,-0.367 0.405,-0.414 0.066,-0.048 0.066,-0.048 0.049,0.598 -0.018,0.646 -0.053,1.939 -0.108,3.533 -0.056,1.594 -0.131,3.49 -0.173,4.967 -0.041,1.478 -0.049,2.536 -0.079,3.186 -0.03,0.65 -0.083,0.892 -0.102,1.011 -0.018,0.119 -0.003,0.117 -0.041,0.151 -0.038,0.034 -0.128,0.104 -0.133,0.68 -0.005,0.576 0.075,1.657 0.192,3.051 0.117,1.395 0.27,3.102 0.322,4.786 0.051,1.683 0.001,3.343 0.002,4.231 0,0.887 0.052,1.003 0.132,1.078 0.08,0.076 0.188,0.111 1.001,0.06 0.814,-0.051 2.333,-0.188 4.105,-0.324 1.773,-0.137 3.8,-0.273 5.955,-0.431 2.155,-0.158 4.438,-0.339 6.588,-0.463 2.15,-0.123 4.166,-0.188 5.992,-0.299 1.826,-0.111 3.46,-0.267 5.336,-0.47 1.876,-0.204 3.993,-0.455 6.015,-0.682 2.021,-0.226 3.947,-0.427 5.109,-0.565 1.162,-0.139 1.559,-0.214 1.758,-0.327 0.199,-0.113 0.199,-0.264 0.229,-0.906 0.03,-0.641 0.09,-1.772 0.108,-3.132 0.017,-1.361 -0.008,-2.95 -0.023,-4.429 -0.015,-1.478 -0.02,-2.846 -0.038,-3.724 -0.017,-0.877 -0.047,-1.264 -0.071,-1.469 -0.025,-0.205 -0.043,-0.227 -0.083,-0.294 -0.04,-0.068 -0.103,-0.181 -0.174,-0.682 -0.071,-0.5 -0.152,-1.388 -0.255,-2.32 -0.103,-0.933 -0.229,-1.911 -0.348,-2.739 -0.12,-0.827 -0.233,-1.504 -0.413,-2.544 -0.179,-1.042 -0.426,-2.447 -0.613,-3.449 -0.187,-1.002 -0.316,-1.601 -0.436,-2.27 -0.121,-0.668 -0.234,-1.408 -0.366,-2.121 -0.132,-0.713 -0.283,-1.399 -0.425,-2.156 -0.142,-0.757 -0.275,-1.584 -0.375,-2.322 -0.099,-0.738 -0.165,-1.387 -0.239,-2.029 -0.074,-0.643 -0.157,-1.279 -0.257,-2.036 -0.101,-0.757 -0.219,-1.634 -0.34,-2.526 -0.121,-0.891 -0.244,-1.796 -0.353,-2.565 -0.11,-0.768 -0.205,-1.399 -0.373,-2.344 -0.168,-0.945 -0.408,-2.203 -0.82,-4.085 -0.412,-1.881 -0.995,-4.386 -1.704,-6.89 -0.709,-2.505 -1.544,-5.009 -2.651,-7.745 -1.106,-2.736 -2.484,-5.703 -4.093,-8.851 -1.61,-3.149 -3.45,-6.478 -4.878,-8.781 -1.429,-2.304 -2.444,-3.581 -3.453,-4.629 -1.008,-1.049 -2.009,-1.869 -3.015,-2.608 -1.006,-0.739 -2.017,-1.398 -2.582,-1.773 -0.566,-0.375 -0.687,-0.465 -0.756,-0.571 -0.069,-0.105 -0.087,-0.226 -0.095,-0.303 -0.009,-0.077 -0.009,-0.109 -0.07,-0.174 -0.06,-0.066 -0.181,-0.164 -1.307,-0.714 -1.127,-0.551 -3.259,-1.555 -5.31,-2.603 -2.05,-1.048 -4.019,-2.142 -5.77,-2.976 -1.752,-0.833 -3.286,-1.407 -5.061,-1.957 -1.775,-0.551 -3.792,-1.079 -5.429,-1.507 -1.637,-0.427 -2.894,-0.754 -3.762,-1.008 -0.867,-0.254 -1.345,-0.435 -2.044,-0.7 -0.699,-0.266 -1.619,-0.615 -2.606,-0.909 -0.987,-0.295 -2.041,-0.533 -2.716,-0.687 -0.675,-0.153 -0.972,-0.221 -1.44,-0.471 -0.467,-0.25 -1.106,-0.683 -1.581,-0.937 -0.475,-0.254 -0.787,-0.329 -1.073,-0.365 -0.285,-0.035 -0.544,-0.03 -0.777,-0.03 -0.232,0 -0.438,-0.005 -1.342,-0.33 -0.904,-0.326 -2.506,-0.972 -4.026,-1.577 -1.52,-0.605 -2.959,-1.168 -4.404,-1.748 -1.446,-0.579 -2.9,-1.175 -3.816,-1.569 -0.917,-0.393 -1.297,-0.584 -1.594,-0.779 -0.298,-0.194 -0.514,-0.392 -0.705,-0.497 -0.191,-0.105 -0.356,-0.116 -0.467,-0.117 -0.11,0 -0.164,0.01 -0.251,-0.004 -0.086,-0.014 -0.204,-0.052 -0.587,-0.292 -0.382,-0.24 -1.028,-0.682 -1.678,-1.193 -0.65,-0.51 -1.304,-1.089 -1.956,-1.661 -0.653,-0.572 -1.304,-1.138 -2.311,-1.569 -1.007,-0.431 -2.37,-0.728 -3.723,-0.919 -1.353,-0.191 -2.695,-0.276 -4.576,-0.354 -1.881,-0.078 -4.3,-0.149 -7.931,-0.131 -3.631,0.017 -8.474,0.123 -12.914,0.219 -4.439,0.096 -8.475,0.183 -10.597,0.231 -2.123,0.048 -2.332,0.058 -4.152,0.203 -1.82,0.145 -5.249,0.427 -7.404,0.671 -2.155,0.244 -3.035,0.45 -3.752,0.707 -0.717,0.256 -1.27,0.563 -1.886,1.078 -0.616,0.516 -1.295,1.24 -2.019,1.877 -0.725,0.638 -1.494,1.189 -1.953,1.46 -0.459,0.272 -0.607,0.264 -0.901,0.366 -0.295,0.102 -0.735,0.313 -1.268,0.582 -0.533,0.269 -1.159,0.596 -1.919,0.922 -0.761,0.325 -1.656,0.65 -2.301,0.904 -0.645,0.254 -1.04,0.437 -1.514,0.628 -0.474,0.192 -1.027,0.39 -1.765,0.621 -0.738,0.232 -1.661,0.496 -2.558,0.836 -0.896,0.341 -1.766,0.759 -2.573,1.076 -0.808,0.316 -1.552,0.533 -2.299,0.749 -0.746,0.216 -1.496,0.432 -2.053,0.655 -0.557,0.222 -0.921,0.451 -1.207,0.636 -0.285,0.185 -0.491,0.326 -0.999,0.476 -0.508,0.15 -1.318,0.31 -1.914,0.463 -0.596,0.154 -0.978,0.301 -1.488,0.492 -0.51,0.192 -1.147,0.429 -1.75,0.617 -0.603,0.189 -1.171,0.329 -1.687,0.459 -0.516,0.13 -0.98,0.248 -1.7,0.426 -0.719,0.179 -1.693,0.418 -2.551,0.633 -0.857,0.216 -1.598,0.408 -2.171,0.57 -0.573,0.161 -0.979,0.292 -1.436,0.426 -0.456,0.134 -0.963,0.271 -1.427,0.4 -0.465,0.129 -0.887,0.249 -1.312,0.377 -0.424,0.128 -0.85,0.262 -1.203,0.399 -0.353,0.137 -0.632,0.277 -1.012,0.437 -0.38,0.159 -0.862,0.339 -1.279,0.53 -0.417,0.191 -0.769,0.394 -1.165,0.602 -0.397,0.209 -0.838,0.424 -1.221,0.617 -0.382,0.194 -0.705,0.366 -1.126,0.589 -0.421,0.223 -0.941,0.495 -1.657,0.865 -0.717,0.371 -1.631,0.838 -2.694,1.37 -1.063,0.532 -2.275,1.128 -3.18,1.576 -0.905,0.448 -1.504,0.747 -2.037,1.087 -0.533,0.341 -1.001,0.723 -1.443,1.08 -0.443,0.358 -0.86,0.689 -1.353,1.079 -0.493,0.39 -1.061,0.837 -1.779,1.475 -0.718,0.637 -1.586,1.465 -2.375,2.331 -0.79,0.866 -1.501,1.771 -2.145,2.665 -0.644,0.894 -1.22,1.777 -1.924,2.935 -0.704,1.158 -1.536,2.591 -2.208,3.821 -0.671,1.229 -1.181,2.255 -1.732,3.264 -0.551,1.008 -1.141,1.999 -1.644,2.942 -0.503,0.943 -0.918,1.838 -1.313,2.759 -0.395,0.922 -0.77,1.87 -1.152,2.756 -0.382,0.887 -0.772,1.712 -1.285,3.043 -0.513,1.331 -1.149,3.17 -1.716,4.911 -0.567,1.741 -1.065,3.386 -1.49,4.836 -0.425,1.451 -0.777,2.709 -1.129,4.225 -0.352,1.516 -0.704,3.291 -1.144,5.668 -0.44,2.376 -0.968,5.353 -1.29,7.073 -0.322,1.72 -0.438,2.183 -0.543,2.673 -0.106,0.491 -0.201,1.009 -0.4,1.833 -0.198,0.825 -0.5,1.957 -0.807,3.143 -0.307,1.187 -0.618,2.43 -0.84,3.478 -0.221,1.049 -0.352,1.904 -0.575,3.166 -0.224,1.262 -0.541,2.932 -0.787,4.297 -0.247,1.366 -0.423,2.427 -0.529,2.975 -0.105,0.548 -0.14,0.583 -0.204,0.634 -0.063,0.05 -0.155,0.115 -0.251,2.246 -0.096,2.13 -0.197,6.326 -0.275,8.622 -0.078,2.297 -0.133,2.694 0.035,2.902 0.169,0.209 0.561,0.229 1.419,0.337 0.857,0.108 2.18,0.305 4.51,0.755 2.332,0.45 5.671,1.154 8.339,1.667 2.668,0.513 4.664,0.835 6.751,1.182 2.088,0.347 4.265,0.719 7.24,1.192 2.975,0.472 6.746,1.046 9.15,1.373 2.404,0.327 3.44,0.407 3.958,0.447 0.518,0.041 0.518,0.041 0.568,-0.543 0.049,-0.583 0.149,-1.75 0.263,-2.759 0.114,-1.009 0.242,-1.86 0.394,-2.937 0.152,-1.077 0.328,-2.379 0.498,-3.576 0.17,-1.197 0.333,-2.289 0.417,-2.902 0.085,-0.614 0.089,-0.749 0.076,-0.865 -0.014,-0.116 -0.047,-0.211 -0.023,-1.818 0.024,-1.607 0.104,-4.725 0.147,-7.257 0.043,-2.532 0.048,-4.478 0.059,-5.601 0.011,-1.123 0.029,-1.422 0.067,-1.618 0.038,-0.197 0.095,-0.29 0.176,-0.338 0.08,-0.05 0.184,-0.055 0.308,0.038 0.124,0.094 0.27,0.285 0.345,0.376 0.074,0.092 0.076,0.085 0.078,0.081 0.001,-0.004 0.001,-0.004 0.115,0.253 0.114,0.256 0.343,0.769 0.597,1.463 0.254,0.694 0.533,1.569 0.762,2.507 0.229,0.938 0.408,1.939 0.607,3.547 0.2,1.608 0.422,3.823 0.739,6.228 0.316,2.406 0.729,5.001 1.468,11.393 0.739,6.392 1.805,16.58 2.64,24.511 0.835,7.931 1.439,13.604 1.811,19.699 0.372,6.095 0.513,12.613 0.503,19.654 -0.01,7.04 -0.171,14.604 -0.372,20.609 -0.202,6.004 -0.443,10.45 -0.725,14.423 -0.281,3.973 -0.603,7.473 -1.448,14.162 -0.845,6.688 -2.213,16.566 -3.007,23.777 -0.795,7.212 -1.016,11.758 -1.217,15.269 -0.202,3.51 -0.383,5.984 -0.674,8.122 -0.292,2.137 -0.694,3.937 -0.973,5.315 -0.279,1.378 -0.436,2.334 -0.453,2.935 -0.018,0.601 0.103,0.847 0.249,0.975 0.146,0.129 0.317,0.138 0.5,0.175 0.184,0.036 0.38,0.099 0.469,0.155 0.019,0.011 0.032,0.022 0.042,0.037 0.876,0.322 1.753,0.645 3.155,0.925 1.401,0.28 3.329,0.518 6.493,0.754 3.163,0.237 7.562,0.472 11.099,0.609 3.537,0.138 6.212,0.178 9.592,0.181 3.38,0.003 7.463,-0.03 11.329,-0.007 3.866,0.024 7.513,0.104 10.591,0.191 3.078,0.088 5.586,0.181 7.916,0.252 2.33,0.07 4.483,0.117 6.789,0.171 2.307,0.053 4.768,0.114 7.356,0.121 2.589,0.006 5.304,-0.041 8.04,-0.098 2.736,-0.057 5.492,-0.124 7.953,-0.221z"/>
    </clipPath>
 </defs>
 <g id="VETORES">
  <metadata id="CorelCorpID_0Corel-Layer"/>
  <g>
  </g>
  <g clip-path="url(#id0)">
   <g id="_1760181502400">
    <g>
    </g>
   </g>
   <g clip-path="url(#id1)">
   </g>
   <g clip-path="url(#id2)">
    <path id="torso" fill="none" d="M197.737 96.303c0.032,-0.569 0.064,-1.138 -0.075,-1.761 -0.138,-0.623 -0.446,-1.3 -0.601,-1.639 -0.154,-0.338 -0.154,-0.338 -0.16,-0.59 -0.007,-0.251 -0.021,-0.754 0.221,-1.78 0.241,-1.026 0.737,-2.575 1.398,-4.644 0.66,-2.068 1.485,-4.656 2.313,-7.962 0.828,-3.306 1.66,-7.329 2.444,-13.19 0.785,-5.86 1.522,-13.558 2.347,-18.902 0.825,-5.345 1.737,-8.335 2.716,-11.172 0.793,-2.296 1.629,-4.491 2.474,-6.668 -0.032,-0.079 -0.043,-0.158 -0.049,-0.214 -0.009,-0.077 -0.009,-0.109 -0.07,-0.174 -0.06,-0.066 -0.181,-0.164 -1.307,-0.714 -1.127,-0.551 -3.259,-1.555 -5.31,-2.603 -2.05,-1.048 -4.019,-2.142 -5.77,-2.976 -1.752,-0.833 -3.286,-1.407 -5.061,-1.957 -1.775,-0.551 -3.792,-1.079 -5.429,-1.507 -1.637,-0.427 -2.894,-0.754 -3.762,-1.008 -0.867,-0.254 -1.345,-0.435 -2.044,-0.7 -0.699,-0.266 -1.619,-0.615 -2.606,-0.909 -0.987,-0.295 -2.041,-0.533 -2.716,-0.687 -0.675,-0.153 -0.972,-0.221 -1.44,-0.471 -0.467,-0.25 -1.106,-0.683 -1.581,-0.937 -0.475,-0.254 -0.787,-0.329 -1.073,-0.365 -0.285,-0.035 -0.544,-0.03 -0.777,-0.03 -0.232,0 -0.438,-0.005 -1.342,-0.33 -0.904,-0.326 -2.506,-0.972 -4.026,-1.577 -1.52,-0.605 -2.959,-1.168 -4.404,-1.748 -1.446,-0.579 -2.9,-1.175 -3.816,-1.569 -0.917,-0.393 -1.297,-0.584 -1.594,-0.779 -0.298,-0.194 -0.514,-0.392 -0.705,-0.497 -0.191,-0.105 -0.356,-0.116 -0.467,-0.117 -0.078,0 -0.128,0.005 -0.182,0.003 -0.022,-0.001 -0.044,-0.003 -0.069,-0.007 -0.086,-0.014 -0.204,-0.052 -0.587,-0.292 -0.382,-0.24 -1.028,-0.682 -1.678,-1.193 -0.65,-0.51 -1.304,-1.089 -1.956,-1.661 -0.653,-0.572 -1.304,-1.138 -2.311,-1.569 -1.007,-0.431 -2.37,-0.728 -3.723,-0.919 -1.353,-0.191 -2.695,-0.276 -4.576,-0.354 -1.881,-0.078 -4.3,-0.149 -7.931,-0.131 -3.631,0.017 -8.474,0.123 -12.914,0.219 -4.439,0.096 -8.475,0.183 -10.597,0.231 -2.123,0.048 -2.332,0.058 -4.152,0.203 -1.82,0.145 -5.249,0.427 -7.404,0.671 -2.155,0.244 -3.035,0.45 -3.752,0.707 -0.717,0.256 -1.27,0.563 -1.886,1.078 -0.616,0.516 -1.295,1.24 -2.019,1.877 -0.725,0.638 -1.494,1.189 -1.953,1.46 -0.104,0.062 -0.192,0.109 -0.27,0.147 -0.264,0.127 -0.404,0.14 -0.631,0.219 -0.295,0.102 -0.735,0.313 -1.268,0.582 -0.533,0.269 -1.159,0.596 -1.919,0.922 -0.761,0.325 -1.656,0.65 -2.301,0.904 -0.645,0.254 -1.04,0.437 -1.514,0.628 -0.474,0.192 -1.027,0.39 -1.765,0.621 -0.738,0.232 -1.661,0.496 -2.558,0.836 -0.896,0.341 -1.766,0.759 -2.573,1.076 -0.808,0.316 -1.552,0.533 -2.299,0.749 -0.746,0.216 -1.496,0.432 -2.053,0.655 -0.557,0.222 -0.921,0.451 -1.207,0.636 -0.285,0.185 -0.491,0.326 -0.999,0.476 -0.508,0.15 -1.318,0.31 -1.914,0.463 -0.596,0.154 -0.978,0.301 -1.488,0.492 -0.51,0.192 -1.147,0.429 -1.75,0.617 -0.603,0.189 -1.171,0.329 -1.687,0.459 -0.516,0.13 -0.98,0.248 -1.7,0.426 -0.719,0.179 -1.693,0.418 -2.551,0.633 -0.857,0.216 -1.598,0.408 -2.171,0.57 -0.573,0.161 -0.979,0.292 -1.436,0.426 -0.456,0.134 -0.963,0.271 -1.427,0.4 -0.465,0.129 -0.887,0.249 -1.312,0.377 -0.424,0.128 -0.85,0.262 -1.203,0.399 -0.353,0.137 -0.632,0.277 -1.012,0.437 -0.38,0.159 -0.862,0.339 -1.279,0.53 -0.417,0.191 -0.769,0.394 -1.165,0.602 -0.397,0.209 -0.838,0.424 -1.221,0.617 -0.382,0.194 -0.705,0.366 -1.126,0.589 -0.421,0.223 -0.941,0.495 -1.657,0.865 -0.717,0.371 -1.631,0.838 -2.694,1.37 -1.063,0.532 -2.275,1.128 -3.18,1.576 -0.905,0.448 -1.504,0.747 -2.037,1.087 -0.533,0.341 -1.001,0.723 -1.443,1.08 -0.06,0.048 -0.119,0.096 -0.178,0.143 0.046,0.197 0.1,0.412 0.167,0.649 0.328,1.174 0.946,2.898 1.737,5.811 0.792,2.914 1.757,7.018 2.522,10.974 0.764,3.956 1.327,7.765 1.971,12.15 0.644,4.386 1.368,9.348 2.24,13.927 0.872,4.58 1.891,8.778 2.843,12.104 0.952,3.326 1.837,5.78 2.266,7.426 0.429,1.646 0.402,2.484 0.362,3.011 -0.04,0.526 -0.094,0.741 -0.225,1.071 -0.132,0.331 -0.341,0.778 -0.551,1.225 0.08,-0.05 0.184,-0.055 0.308,0.038 0.124,0.094 0.27,0.285 0.345,0.376 0.074,0.092 0.076,0.085 0.078,0.081 0.001,-0.004 0.001,-0.004 0.115,0.253 0.114,0.256 0.343,0.769 0.597,1.463 0.254,0.694 0.533,1.569 0.762,2.507 0.229,0.938 0.408,1.939 0.607,3.547 0.2,1.608 0.422,3.823 0.739,6.228 0.316,2.406 0.729,5.001 1.468,11.393 0.739,6.392 1.805,16.58 2.64,24.511 0.835,7.931 1.439,13.604 1.811,19.699 0.372,6.095 0.513,12.613 0.503,19.654 -0.01,7.04 -0.171,14.604 -0.372,20.609 -0.202,6.004 -0.443,10.45 -0.725,14.423 -0.281,3.973 -0.603,7.473 -1.448,14.162 -0.845,6.688 -2.213,16.566 -3.007,23.777 -0.795,7.212 -1.016,11.758 -1.217,15.269 -0.202,3.51 -0.383,5.984 -0.674,8.122 -0.292,2.137 -0.694,3.937 -0.973,5.315 -0.279,1.378 -0.436,2.334 -0.453,2.935 -0.018,0.601 0.103,0.847 0.249,0.975 0.146,0.129 0.317,0.138 0.5,0.175 0.184,0.036 0.38,0.099 0.469,0.155 0.019,0.011 0.032,0.022 0.042,0.037 0.876,0.322 1.753,0.645 3.155,0.925 1.401,0.28 3.329,0.518 6.493,0.754 3.163,0.237 7.562,0.472 11.099,0.609 3.537,0.138 6.212,0.178 9.592,0.181 3.38,0.003 7.463,-0.03 11.329,-0.007 3.866,0.024 7.513,0.104 10.591,0.191 3.078,0.088 5.586,0.181 7.916,0.252 2.33,0.07 4.483,0.117 6.789,0.171 2.307,0.053 4.768,0.114 7.356,0.121 2.589,0.006 5.304,-0.041 8.04,-0.098 2.736,-0.057 5.492,-0.124 7.953,-0.221 2.461,-0.097 4.626,-0.225 7.017,-0.355 2.39,-0.131 5.006,-0.265 8.261,-0.493 3.256,-0.228 7.151,-0.55 10.471,-0.852 3.319,-0.302 6.061,-0.583 8.794,-0.949 2.732,-0.365 5.455,-0.814 7.654,-1.25 2.2,-0.436 3.876,-0.858 6.001,-1.331 2.126,-0.473 4.701,-0.996 6.595,-1.321 1.894,-0.325 3.108,-0.453 4.268,-0.536 1.16,-0.084 2.267,-0.124 3.155,-0.117 0.889,0.008 1.559,0.063 1.956,0.094 0.396,0.031 0.518,0.038 0.611,0.043 0.049,0.002 0.09,0.004 0.127,0.006 0.093,-0.07 0.162,-0.18 0.177,-0.779 0.016,-0.673 -0.037,-1.966 -0.106,-2.786 -0.069,-0.819 -0.154,-1.166 -0.285,-1.855 -0.131,-0.689 -0.307,-1.72 -0.651,-2.686 -0.345,-0.965 -0.858,-1.866 -1.476,-3.045 -0.619,-1.179 -1.343,-2.638 -1.783,-3.616 -0.44,-0.978 -0.596,-1.476 -0.848,-2.693 -0.251,-1.217 -0.598,-3.153 -0.953,-5.871 -0.354,-2.718 -0.716,-6.219 -1.038,-8.884 -0.322,-2.666 -0.603,-4.496 -1.081,-7.559 -0.478,-3.062 -1.152,-7.357 -1.71,-11.521 -0.558,-4.164 -1.001,-8.198 -1.348,-12.226 -0.347,-4.028 -0.598,-8.051 -0.759,-11.637 -0.161,-3.586 -0.231,-6.734 -0.287,-9.787 -0.055,-3.052 -0.095,-6.01 -0.156,-9.258 -0.06,-3.249 -0.14,-6.79 -0.108,-12.037 0.033,-5.248 0.179,-12.203 0.352,-17.466 0.174,-5.263 0.375,-8.834 0.652,-12.807 0.276,-3.973 0.628,-8.348 0.975,-12.271 0.347,-3.922 0.689,-7.393 1.122,-11.743 0.432,-4.35 0.955,-9.58 1.483,-13.99 0.528,-4.411 1.061,-8.002 1.512,-10.619 0.45,-2.618 0.817,-4.262 1.139,-5.308 0.321,-1.046 0.598,-1.494 0.803,-1.766 0.205,-0.271 0.338,-0.367 0.405,-0.414z"/>
    <g>
    </g>
   </g>
   <g clip-path="url(#id3)">
   </g>
   <g clip-path="url(#id4)">
    <path id="manga" fill="none" d="M44.533 92.099c-0.429,-1.646 -1.314,-4.1 -2.266,-7.426 -0.952,-3.326 -1.971,-7.524 -2.843,-12.104 -0.872,-4.579 -1.596,-9.541 -2.24,-13.927 -0.644,-4.385 -1.207,-8.194 -1.971,-12.15 -0.765,-3.956 -1.73,-8.06 -2.522,-10.974 -0.791,-2.913 -1.409,-4.637 -1.737,-5.811 -0.067,-0.237 -0.121,-0.452 -0.167,-0.649 -0.378,0.305 -0.748,0.599 -1.175,0.936 -0.493,0.39 -1.061,0.837 -1.779,1.475 -0.718,0.637 -1.586,1.465 -2.375,2.331 -0.79,0.866 -1.501,1.771 -2.145,2.665 -0.644,0.894 -1.22,1.777 -1.924,2.935 -0.704,1.158 -1.536,2.591 -2.208,3.821 -0.671,1.229 -1.181,2.255 -1.732,3.264 -0.551,1.008 -1.141,1.999 -1.644,2.942 -0.503,0.943 -0.918,1.838 -1.313,2.759 -0.395,0.922 -0.77,1.87 -1.152,2.756 -0.382,0.887 -0.772,1.712 -1.285,3.043 -0.513,1.331 -1.149,3.17 -1.716,4.911 -0.567,1.741 -1.065,3.386 -1.49,4.836 -0.425,1.451 -0.777,2.709 -1.129,4.225 -0.352,1.516 -0.704,3.291 -1.144,5.668 -0.44,2.376 -0.968,5.353 -1.29,7.073 -0.322,1.72 -0.438,2.183 -0.543,2.673 -0.106,0.491 -0.201,1.009 -0.4,1.833 -0.198,0.825 -0.5,1.957 -0.807,3.143 -0.307,1.187 -0.618,2.43 -0.84,3.478 -0.221,1.049 -0.352,1.904 -0.575,3.166 -0.224,1.262 -0.541,2.932 -0.787,4.297 -0.247,1.366 -0.423,2.427 -0.529,2.975 -0.083,0.431 -0.122,0.545 -0.166,0.598 -0.012,0.015 -0.024,0.025 -0.038,0.036 -0.063,0.05 -0.155,0.115 -0.251,2.246 -0.096,2.13 -0.197,6.326 -0.275,8.622 -0.078,2.297 -0.133,2.694 0.035,2.902 0.169,0.209 0.561,0.229 1.419,0.337 0.857,0.108 2.18,0.305 4.51,0.755 2.332,0.45 5.671,1.154 8.339,1.667 2.668,0.513 4.664,0.835 6.751,1.182 2.088,0.347 4.265,0.719 7.24,1.192 2.975,0.472 6.746,1.046 9.15,1.373 2.404,0.327 3.44,0.407 3.958,0.447 0.518,0.041 0.518,0.041 0.568,-0.543 0.049,-0.583 0.149,-1.75 0.263,-2.759 0.114,-1.009 0.242,-1.86 0.394,-2.937 0.152,-1.077 0.328,-2.379 0.498,-3.576 0.17,-1.197 0.333,-2.289 0.417,-2.902 0.085,-0.614 0.089,-0.749 0.076,-0.865 -0.005,-0.042 -0.013,-0.082 -0.019,-0.194 -0.011,-0.194 -0.019,-0.605 -0.004,-1.624 0.024,-1.607 0.104,-4.725 0.147,-7.257 0.043,-2.532 0.048,-4.478 0.059,-5.601 0.011,-1.123 0.029,-1.422 0.067,-1.618 0.038,-0.197 0.095,-0.29 0.176,-0.338 0.21,-0.447 0.419,-0.894 0.551,-1.225 0.131,-0.33 0.185,-0.545 0.225,-1.071 0.04,-0.527 0.067,-1.365 -0.362,-3.011zm152.791 17.505c-0.018,0.113 -0.004,0.111 -0.041,0.145 -0.038,0.034 -0.128,0.104 -0.133,0.68 -0.005,0.576 0.075,1.657 0.192,3.051 0.117,1.395 0.27,3.102 0.322,4.786 0.051,1.683 0.001,3.343 0.002,4.231 0,0.887 0.052,1.003 0.132,1.078 0.08,0.076 0.188,0.111 1.001,0.06 0.814,-0.051 2.333,-0.188 4.105,-0.324 1.773,-0.137 3.8,-0.273 5.955,-0.431 2.155,-0.158 4.438,-0.339 6.588,-0.463 2.15,-0.123 4.166,-0.188 5.992,-0.299 1.826,-0.111 3.46,-0.267 5.336,-0.47 1.876,-0.204 3.993,-0.455 6.015,-0.682 2.021,-0.226 3.947,-0.427 5.109,-0.565 1.162,-0.139 1.559,-0.214 1.758,-0.327 0.199,-0.113 0.199,-0.264 0.229,-0.906 0.03,-0.641 0.09,-1.772 0.108,-3.132 0.017,-1.361 -0.008,-2.95 -0.023,-4.429 -0.015,-1.478 -0.02,-2.846 -0.038,-3.724 -0.017,-0.877 -0.047,-1.264 -0.071,-1.469 -0.024,-0.198 -0.042,-0.225 -0.079,-0.288 -0.001,-0.002 -0.003,-0.004 -0.004,-0.006 -0.04,-0.068 -0.103,-0.181 -0.174,-0.682 -0.071,-0.5 -0.152,-1.388 -0.255,-2.32 -0.103,-0.933 -0.229,-1.911 -0.348,-2.739 -0.12,-0.827 -0.233,-1.504 -0.413,-2.544 -0.179,-1.042 -0.426,-2.447 -0.613,-3.449 -0.187,-1.002 -0.316,-1.601 -0.436,-2.27 -0.121,-0.668 -0.234,-1.408 -0.366,-2.121 -0.132,-0.713 -0.283,-1.399 -0.425,-2.156 -0.142,-0.757 -0.275,-1.584 -0.375,-2.322 -0.099,-0.738 -0.165,-1.387 -0.239,-2.029 -0.074,-0.643 -0.157,-1.279 -0.257,-2.036 -0.101,-0.757 -0.219,-1.634 -0.34,-2.526 -0.121,-0.891 -0.244,-1.796 -0.353,-2.565 -0.11,-0.768 -0.205,-1.399 -0.373,-2.344 -0.168,-0.945 -0.408,-2.203 -0.82,-4.085 -0.412,-1.881 -0.995,-4.386 -1.704,-6.89 -0.709,-2.505 -1.544,-5.009 -2.651,-7.745 -1.106,-2.736 -2.484,-5.703 -4.093,-8.851 -1.61,-3.149 -3.45,-6.478 -4.878,-8.781 -1.429,-2.304 -2.444,-3.581 -3.453,-4.629 -1.008,-1.049 -2.009,-1.869 -3.015,-2.608 -1.006,-0.739 -2.017,-1.398 -2.582,-1.773 -0.566,-0.375 -0.687,-0.465 -0.756,-0.571 -0.019,-0.029 -0.034,-0.059 -0.046,-0.089 -0.845,2.177 -1.681,4.372 -2.474,6.668 -0.979,2.837 -1.891,5.827 -2.716,11.172 -0.825,5.344 -1.562,13.042 -2.347,18.902 -0.784,5.861 -1.616,9.884 -2.444,13.19 -0.828,3.306 -1.653,5.894 -2.313,7.962 -0.661,2.069 -1.157,3.618 -1.398,4.644 -0.242,1.026 -0.228,1.529 -0.221,1.78 0.006,0.252 0.006,0.252 0.16,0.59 0.155,0.339 0.463,1.016 0.601,1.639 0.139,0.623 0.107,1.192 0.075,1.761 0.066,-0.048 0.066,-0.048 0.049,0.598 -0.018,0.646 -0.053,1.939 -0.108,3.533 -0.056,1.594 -0.131,3.49 -0.173,4.967 -0.041,1.478 -0.049,2.536 -0.079,3.186 -0.03,0.65 -0.083,0.892 -0.102,1.011 0,0.002 0,0.004 0,0.006z"/>
    <path id="_4" fill="goldenrod" fill-rule="nonzero" d="M130.096 119.896l-6.545 6.546 0 -141.885 6.545 0 0 135.339zm-9.621 9.621l-6.551 6.551 -130.475 0 0 -6.545 131.283 0 0 -0.006 5.743 0zm0.803 0.804l0 117.722 -0.18 -0.098 0 15.085 -0.179 -0.1 0 15.085 -0.511 -0.284 0 -15.086 -0.178 -0.1 0 -15.085 -0.18 -0.1 0 -15.684 -0.545 -0.303 0 15.684 -0.179 -0.099 0 15.085 -0.18 -0.1 0 15.085 -0.511 -0.284 0 -15.085 -0.178 -0.1 0 -15.086 -0.179 -0.099 0 -15.685 -0.546 -0.304 0 15.685 -0.179 -0.1 0 15.085 -0.18 -0.1 0 15.087 -0.511 -0.286 0 -15.085 -0.178 -0.099 0 -15.085 -0.179 -0.1 0 -15.685 -0.546 -0.303 0 15.684 -0.179 -0.1 0 15.086 -0.179 -0.1 0 15.085 -0.512 -0.285 0 -15.085 -0.178 -0.1 0 -15.085 -0.179 -0.1 0 -107.533 6.546 -6.545zm65.328 -3.251l-15.085 0 0.099 0.179 -15.684 0 0 0.001 -20.663 0 -0.003 -0.005 -10.917 0 6.542 -6.542 37.081 0 0.1 0.179 15.085 0 0.099 0.179 15.085 0 0.286 0.512 -15.085 0 0.099 0.179 -15.086 0 0.1 0.178 -15.684 0 0.305 0.546 15.683 0 0.1 0.179 15.085 0 0.1 0.179 15.085 0 0.285 0.512 -15.086 0 0.1 0.179 -15.085 0 0.099 0.178 -15.683 0 0.303 0.545 15.685 0 0.098 0.18 15.086 0 0.1 0.179 15.085 0 0.284 0.511 -15.085 0 0.1 0.18 -15.085 0 0.1 0.178 -15.685 0 0.304 0.545 15.684 0 0.1 0.18 15.085 0 0.099 0.179 15.087 0 0.284 0.511 -15.085 0 0.099 0.179z"/>
   </g>
  </g>
  <path fill="none" d="M136.796 295.988c2.461,-0.097 4.626,-0.225 7.017,-0.355 2.39,-0.131 5.006,-0.265 8.261,-0.493 3.256,-0.228 7.151,-0.55 10.471,-0.852 3.319,-0.302 6.061,-0.583 8.794,-0.949 2.732,-0.365 5.455,-0.814 7.654,-1.25 2.2,-0.436 3.876,-0.858 6.001,-1.331 2.126,-0.473 4.701,-0.996 6.595,-1.321 1.894,-0.325 3.108,-0.453 4.268,-0.536 1.16,-0.084 2.267,-0.124 3.155,-0.117 0.889,0.008 1.559,0.063 1.956,0.094 0.396,0.031 0.518,0.038 0.611,0.043 0.049,0.002 0.09,0.004 0.127,0.006 0.093,-0.07 0.162,-0.18 0.177,-0.779 0.016,-0.673 -0.037,-1.966 -0.106,-2.786 -0.069,-0.819 -0.154,-1.166 -0.285,-1.855 -0.131,-0.689 -0.307,-1.72 -0.651,-2.686 -0.345,-0.965 -0.858,-1.866 -1.476,-3.045 -0.619,-1.179 -1.343,-2.638 -1.783,-3.616 -0.44,-0.978 -0.596,-1.476 -0.848,-2.693 -0.251,-1.217 -0.598,-3.153 -0.953,-5.871 -0.354,-2.718 -0.716,-6.219 -1.038,-8.884 -0.322,-2.666 -0.603,-4.496 -1.081,-7.559 -0.478,-3.062 -1.152,-7.357 -1.71,-11.521 -0.558,-4.164 -1.001,-8.198 -1.348,-12.226 -0.347,-4.028 -0.598,-8.051 -0.759,-11.637 -0.161,-3.586 -0.231,-6.734 -0.287,-9.787 -0.055,-3.052 -0.095,-6.01 -0.156,-9.258 -0.06,-3.249 -0.14,-6.79 -0.108,-12.037 0.033,-5.248 0.179,-12.203 0.352,-17.466 0.174,-5.263 0.375,-8.834 0.652,-12.807 0.276,-3.973 0.628,-8.348 0.975,-12.271 0.347,-3.922 0.689,-7.393 1.122,-11.743 0.432,-4.35 0.955,-9.58 1.483,-13.99 0.528,-4.411 1.061,-8.002 1.512,-10.619 0.45,-2.618 0.817,-4.262 1.139,-5.308 0.321,-1.046 0.598,-1.494 0.803,-1.766 0.205,-0.271 0.338,-0.367 0.405,-0.414 0.066,-0.048 0.066,-0.048 0.049,0.598 -0.018,0.646 -0.053,1.939 -0.108,3.533 -0.056,1.594 -0.131,3.49 -0.173,4.967 -0.041,1.478 -0.049,2.536 -0.079,3.186 -0.03,0.65 -0.083,0.892 -0.102,1.011 -0.018,0.119 -0.003,0.117 -0.041,0.151 -0.038,0.034 -0.128,0.104 -0.133,0.68 -0.005,0.576 0.075,1.657 0.192,3.051 0.117,1.395 0.27,3.102 0.322,4.786 0.051,1.683 0.001,3.343 0.002,4.231 0,0.887 0.052,1.003 0.132,1.078 0.08,0.076 0.188,0.111 1.001,0.06 0.814,-0.051 2.333,-0.188 4.105,-0.324 1.773,-0.137 3.8,-0.273 5.955,-0.431 2.155,-0.158 4.438,-0.339 6.588,-0.463 2.15,-0.123 4.166,-0.188 5.992,-0.299 1.826,-0.111 3.46,-0.267 5.336,-0.47 1.876,-0.204 3.993,-0.455 6.015,-0.682 2.021,-0.226 3.947,-0.427 5.109,-0.565 1.162,-0.139 1.559,-0.214 1.758,-0.327 0.199,-0.113 0.199,-0.264 0.229,-0.906 0.03,-0.641 0.09,-1.772 0.108,-3.132 0.017,-1.361 -0.008,-2.95 -0.023,-4.429 -0.015,-1.478 -0.02,-2.846 -0.038,-3.724 -0.017,-0.877 -0.047,-1.264 -0.071,-1.469 -0.025,-0.205 -0.043,-0.227 -0.083,-0.294 -0.04,-0.068 -0.103,-0.181 -0.174,-0.682 -0.071,-0.5 -0.152,-1.388 -0.255,-2.32 -0.103,-0.933 -0.229,-1.911 -0.348,-2.739 -0.12,-0.827 -0.233,-1.504 -0.413,-2.544 -0.179,-1.042 -0.426,-2.447 -0.613,-3.449 -0.187,-1.002 -0.316,-1.601 -0.436,-2.27 -0.121,-0.668 -0.234,-1.408 -0.366,-2.121 -0.132,-0.713 -0.283,-1.399 -0.425,-2.156 -0.142,-0.757 -0.275,-1.584 -0.375,-2.322 -0.099,-0.738 -0.165,-1.387 -0.239,-2.029 -0.074,-0.643 -0.157,-1.279 -0.257,-2.036 -0.101,-0.757 -0.219,-1.634 -0.34,-2.526 -0.121,-0.891 -0.244,-1.796 -0.353,-2.565 -0.11,-0.768 -0.205,-1.399 -0.373,-2.344 -0.168,-0.945 -0.408,-2.203 -0.82,-4.085 -0.412,-1.881 -0.995,-4.386 -1.704,-6.89 -0.709,-2.505 -1.544,-5.009 -2.651,-7.745 -1.106,-2.736 -2.484,-5.703 -4.093,-8.851 -1.61,-3.149 -3.45,-6.478 -4.878,-8.781 -1.429,-2.304 -2.444,-3.581 -3.453,-4.629 -1.008,-1.049 -2.009,-1.869 -3.015,-2.608 -1.006,-0.739 -2.017,-1.398 -2.582,-1.773 -0.566,-0.375 -0.687,-0.465 -0.756,-0.571 -0.069,-0.105 -0.087,-0.226 -0.095,-0.303 -0.009,-0.077 -0.009,-0.109 -0.07,-0.174 -0.06,-0.066 -0.181,-0.164 -1.307,-0.714 -1.127,-0.551 -3.259,-1.555 -5.31,-2.603 -2.05,-1.048 -4.019,-2.142 -5.77,-2.976 -1.752,-0.833 -3.286,-1.407 -5.061,-1.957 -1.775,-0.551 -3.792,-1.079 -5.429,-1.507 -1.637,-0.427 -2.894,-0.754 -3.762,-1.008 -0.867,-0.254 -1.345,-0.435 -2.044,-0.7 -0.699,-0.266 -1.619,-0.615 -2.606,-0.909 -0.987,-0.295 -2.041,-0.533 -2.716,-0.687 -0.675,-0.153 -0.972,-0.221 -1.44,-0.471 -0.467,-0.25 -1.106,-0.683 -1.581,-0.937 -0.475,-0.254 -0.787,-0.329 -1.073,-0.365 -0.285,-0.035 -0.544,-0.03 -0.777,-0.03 -0.232,0 -0.438,-0.005 -1.342,-0.33 -0.904,-0.326 -2.506,-0.972 -4.026,-1.577 -1.52,-0.605 -2.959,-1.168 -4.404,-1.748 -1.446,-0.579 -2.9,-1.175 -3.816,-1.569 -0.917,-0.393 -1.297,-0.584 -1.594,-0.779 -0.298,-0.194 -0.514,-0.392 -0.705,-0.497 -0.191,-0.105 -0.356,-0.116 -0.467,-0.117 -0.11,0 -0.164,0.01 -0.251,-0.004 -0.086,-0.014 -0.204,-0.052 -0.587,-0.292 -0.382,-0.24 -1.028,-0.682 -1.678,-1.193 -0.65,-0.51 -1.304,-1.089 -1.956,-1.661 -0.653,-0.572 -1.304,-1.138 -2.311,-1.569 -1.007,-0.431 -2.37,-0.728 -3.723,-0.919 -1.353,-0.191 -2.695,-0.276 -4.576,-0.354 -1.881,-0.078 -4.3,-0.149 -7.931,-0.131 -3.631,0.017 -8.474,0.123 -12.914,0.219 -4.439,0.096 -8.475,0.183 -10.597,0.231 -2.123,0.048 -2.332,0.058 -4.152,0.203 -1.82,0.145 -5.249,0.427 -7.404,0.671 -2.155,0.244 -3.035,0.45 -3.752,0.707 -0.717,0.256 -1.27,0.563 -1.886,1.078 -0.616,0.516 -1.295,1.24 -2.019,1.877 -0.725,0.638 -1.494,1.189 -1.953,1.46 -0.459,0.272 -0.607,0.264 -0.901,0.366 -0.295,0.102 -0.735,0.313 -1.268,0.582 -0.533,0.269 -1.159,0.596 -1.919,0.922 -0.761,0.325 -1.656,0.65 -2.301,0.904 -0.645,0.254 -1.04,0.437 -1.514,0.628 -0.474,0.192 -1.027,0.39 -1.765,0.621 -0.738,0.232 -1.661,0.496 -2.558,0.836 -0.896,0.341 -1.766,0.759 -2.573,1.076 -0.808,0.316 -1.552,0.533 -2.299,0.749 -0.746,0.216 -1.496,0.432 -2.053,0.655 -0.557,0.222 -0.921,0.451 -1.207,0.636 -0.285,0.185 -0.491,0.326 -0.999,0.476 -0.508,0.15 -1.318,0.31 -1.914,0.463 -0.596,0.154 -0.978,0.301 -1.488,0.492 -0.51,0.192 -1.147,0.429 -1.75,0.617 -0.603,0.189 -1.171,0.329 -1.687,0.459 -0.516,0.13 -0.98,0.248 -1.7,0.426 -0.719,0.179 -1.693,0.418 -2.551,0.633 -0.857,0.216 -1.598,0.408 -2.171,0.57 -0.573,0.161 -0.979,0.292 -1.436,0.426 -0.456,0.134 -0.963,0.271 -1.427,0.4 -0.465,0.129 -0.887,0.249 -1.312,0.377 -0.424,0.128 -0.85,0.262 -1.203,0.399 -0.353,0.137 -0.632,0.277 -1.012,0.437 -0.38,0.159 -0.862,0.339 -1.279,0.53 -0.417,0.191 -0.769,0.394 -1.165,0.602 -0.397,0.209 -0.838,0.424 -1.221,0.617 -0.382,0.194 -0.705,0.366 -1.126,0.589 -0.421,0.223 -0.941,0.495 -1.657,0.865 -0.717,0.371 -1.631,0.838 -2.694,1.37 -1.063,0.532 -2.275,1.128 -3.18,1.576 -0.905,0.448 -1.504,0.747 -2.037,1.087 -0.533,0.341 -1.001,0.723 -1.443,1.08 -0.443,0.358 -0.86,0.689 -1.353,1.079 -0.493,0.39 -1.061,0.837 -1.779,1.475 -0.718,0.637 -1.586,1.465 -2.375,2.331 -0.79,0.866 -1.501,1.771 -2.145,2.665 -0.644,0.894 -1.22,1.777 -1.924,2.935 -0.704,1.158 -1.536,2.591 -2.208,3.821 -0.671,1.229 -1.181,2.255 -1.732,3.264 -0.551,1.008 -1.141,1.999 -1.644,2.942 -0.503,0.943 -0.918,1.838 -1.313,2.759 -0.395,0.922 -0.77,1.87 -1.152,2.756 -0.382,0.887 -0.772,1.712 -1.285,3.043 -0.513,1.331 -1.149,3.17 -1.716,4.911 -0.567,1.741 -1.065,3.386 -1.49,4.836 -0.425,1.451 -0.777,2.709 -1.129,4.225 -0.352,1.516 -0.704,3.291 -1.144,5.668 -0.44,2.376 -0.968,5.353 -1.29,7.073 -0.322,1.72 -0.438,2.183 -0.543,2.673 -0.106,0.491 -0.201,1.009 -0.4,1.833 -0.198,0.825 -0.5,1.957 -0.807,3.143 -0.307,1.187 -0.618,2.43 -0.84,3.478 -0.221,1.049 -0.352,1.904 -0.575,3.166 -0.224,1.262 -0.541,2.932 -0.787,4.297 -0.247,1.366 -0.423,2.427 -0.529,2.975 -0.105,0.548 -0.14,0.583 -0.204,0.634 -0.063,0.05 -0.155,0.115 -0.251,2.246 -0.096,2.13 -0.197,6.326 -0.275,8.622 -0.078,2.297 -0.133,2.694 0.035,2.902 0.169,0.209 0.561,0.229 1.419,0.337 0.857,0.108 2.18,0.305 4.51,0.755 2.332,0.45 5.671,1.154 8.339,1.667 2.668,0.513 4.664,0.835 6.751,1.182 2.088,0.347 4.265,0.719 7.24,1.192 2.975,0.472 6.746,1.046 9.15,1.373 2.404,0.327 3.44,0.407 3.958,0.447 0.518,0.041 0.518,0.041 0.568,-0.543 0.049,-0.583 0.149,-1.75 0.263,-2.759 0.114,-1.009 0.242,-1.86 0.394,-2.937 0.152,-1.077 0.328,-2.379 0.498,-3.576 0.17,-1.197 0.333,-2.289 0.417,-2.902 0.085,-0.614 0.089,-0.749 0.076,-0.865 -0.014,-0.116 -0.047,-0.211 -0.023,-1.818 0.024,-1.607 0.104,-4.725 0.147,-7.257 0.043,-2.532 0.048,-4.478 0.059,-5.601 0.011,-1.123 0.029,-1.422 0.067,-1.618 0.038,-0.197 0.095,-0.29 0.176,-0.338 0.08,-0.05 0.184,-0.055 0.308,0.038 0.124,0.094 0.27,0.285 0.345,0.376 0.074,0.092 0.076,0.085 0.078,0.081 0.001,-0.004 0.001,-0.004 0.115,0.253 0.114,0.256 0.343,0.769 0.597,1.463 0.254,0.694 0.533,1.569 0.762,2.507 0.229,0.938 0.408,1.939 0.607,3.547 0.2,1.608 0.422,3.823 0.739,6.228 0.316,2.406 0.729,5.001 1.468,11.393 0.739,6.392 1.805,16.58 2.64,24.511 0.835,7.931 1.439,13.604 1.811,19.699 0.372,6.095 0.513,12.613 0.503,19.654 -0.01,7.04 -0.171,14.604 -0.372,20.609 -0.202,6.004 -0.443,10.45 -0.725,14.423 -0.281,3.973 -0.603,7.473 -1.448,14.162 -0.845,6.688 -2.213,16.566 -3.007,23.777 -0.795,7.212 -1.016,11.758 -1.217,15.269 -0.202,3.51 -0.383,5.984 -0.674,8.122 -0.292,2.137 -0.694,3.937 -0.973,5.315 -0.279,1.378 -0.436,2.334 -0.453,2.935 -0.018,0.601 0.103,0.847 0.249,0.975 0.146,0.129 0.317,0.138 0.5,0.175 0.184,0.036 0.38,0.099 0.469,0.155 0.019,0.011 0.032,0.022 0.042,0.037 0.876,0.322 1.753,0.645 3.155,0.925 1.401,0.28 3.329,0.518 6.493,0.754 3.163,0.237 7.562,0.472 11.099,0.609 3.537,0.138 6.212,0.178 9.592,0.181 3.38,0.003 7.463,-0.03 11.329,-0.007 3.866,0.024 7.513,0.104 10.591,0.191 3.078,0.088 5.586,0.181 7.916,0.252 2.33,0.07 4.483,0.117 6.789,0.171 2.307,0.053 4.768,0.114 7.356,0.121 2.589,0.006 5.304,-0.041 8.04,-0.098 2.736,-0.057 5.492,-0.124 7.953,-0.221z"/>
 </g>
</svg>
