<?xml version="1.0" encoding="UTF-8"?>
<!DOCTYPE svg PUBLIC "-//W3C//DTD SVG 1.1//EN" "http://www.w3.org/Graphics/SVG/1.1/DTD/svg11.dtd">
<!-- Creator: CorelDRAW -->
<svg xmlns="http://www.w3.org/2000/svg" xml:space="preserve" width="238px" height="298px" version="1.1" shape-rendering="geometricPrecision" text-rendering="geometricPrecision" image-rendering="optimizeQuality" fill-rule="evenodd" clip-rule="evenodd"
viewBox="0 0 238 298.123"
 xmlns:xlink="http://www.w3.org/1999/xlink"
 xmlns:xodm="http://www.corel.com/coreldraw/odm/2003">
 <defs>
   <clipPath id="id0">
    <path d="M207.298 27.894c-0.11,-0.063 -0.222,-0.122 -0.337,-0.177 -4.975,-2.38 -9.714,-5.334 -14.858,-7.149 -4.647,-1.639 -11.454,-2.699 -17.288,-4.719 -2.277,-0.789 -4.556,-1.589 -6.82,-2.415l-0.004 -0.03 -9.999 -4.08 -0.175 -0.072c-0.614,-0.28 -1.553,-1.207 -2.512,-1.889 -0.494,-0.369 -0.613,-0.563 -1.038,-0.905 -2.856,-2.299 -5.606,-5.635 -9.574,-5.641 -0.901,-0.002 -1.04,-0.123 -1.779,-0.163l-7.601 -0.17c-5.892,-0.486 -12.055,-0.501 -18.06,-0.477 -5.087,0.02 -9.557,0.063 -14.567,0.477 -2.529,0.209 -4.996,0.029 -7.6,0.17 -0.739,0.04 -0.878,0.161 -1.779,0.163 -3.968,0.006 -6.718,3.342 -9.575,5.641 -0.424,0.342 -0.543,0.536 -1.037,0.905 -0.741,0.527 -1.471,1.2 -2.047,1.608 -0.17,0.121 -0.326,0.218 -0.465,0.281l-10.174 4.152 -0.003 0.03c-2.265,0.826 -4.544,1.626 -6.821,2.415 -5.834,2.02 -12.641,3.08 -17.288,4.719 -5.144,1.815 -9.883,4.769 -14.858,7.149 -0.212,0.101 -0.412,0.215 -0.605,0.339 -0.909,0.583 -1.664,1.379 -2.651,2.001 -11.263,7.099 -18.243,27.467 -21.401,39.215 -1.569,5.839 -1.98,12.983 -2.969,19.04 -0.5,3.067 -1.172,6.193 -1.752,9.253 -0.585,3.095 -0.872,6.493 -1.288,9.631 -0.406,0.268 -0.327,-0.023 -0.308,0.899l-0.065 1.854 0 8.783c0.041,1.018 0.102,1.813 0.186,2.164 1.125,0.477 3.706,0.514 5.07,0.712 7.662,1.114 9.041,0.828 15.791,1.554l21.547 1.349c-0.015,-1.623 0.547,-10.725 0.578,-13.424l-0.603 -0.316 -0.07 -0.036c0,-4.476 -0.011,-9.226 -0.011,-13.7 1.678,4.247 3.328,18.944 3.789,24.023 0.735,8.116 1.826,16.186 2.512,24.347 0.348,4.137 0.874,8.269 1.009,12.419l0.653 12.776c0.396,4.199 0.208,8.934 0.274,13.179 0.032,2.062 0.194,4.007 0.186,6.13 -0.007,2.226 -0.172,4.349 -0.196,6.512 -0.051,4.469 -0.054,8.634 -0.319,13.111 -0.68,11.475 -1.257,26.076 -3.267,37.02 -0.966,5.407 -2.177,11.944 -2.754,17.389 -0.258,2.432 -0.827,10.057 -1.468,11.951 -0.68,2.01 -0.163,3.658 -0.568,5.77 -0.342,1.785 -0.742,3.812 -1.164,5.568 -0.463,1.93 -1.435,3.647 0.397,4.966 4.276,1.054 8.552,2.108 13.913,3.017 5.36,0.909 11.804,1.672 18.03,2.048 6.226,0.375 12.232,0.363 21.568,0.476 9.335,0.112 21.999,0.351 32.523,0.382 10.525,0.032 18.909,-0.144 26.242,-0.419 7.333,-0.275 13.615,-0.65 19.058,-1.151 5.443,-0.501 10.048,-1.126 13.829,-1.873 3.78,-0.746 6.736,-1.613 9.693,-2.48 1.832,-1.319 0.86,-3.036 0.397,-4.966 -0.422,-1.756 -0.822,-3.783 -1.164,-5.568 -0.405,-2.112 0.112,-3.76 -0.568,-5.77 -0.641,-1.894 -1.21,-9.519 -1.468,-11.951 -0.577,-5.445 -1.788,-11.982 -2.754,-17.389 -2.01,-10.944 -2.587,-25.545 -3.267,-37.02 -0.265,-4.477 -0.268,-8.642 -0.319,-13.111 -0.024,-2.163 -0.189,-4.286 -0.196,-6.512 -0.008,-2.123 0.154,-4.068 0.186,-6.13 0.066,-4.245 -0.122,-8.98 0.274,-13.179l0.653 -12.776c0.135,-4.15 0.661,-8.282 1.009,-12.419 0.686,-8.161 1.777,-16.231 2.512,-24.347 0.461,-5.079 1.889,-19.043 3.568,-23.29 0,4.474 -0.105,8.584 -0.105,13.06l0 0 -0.416 0.247c-0.004,0.882 0.338,12.091 0.604,13.423l21.579 -1.336c6.75,-0.726 8.129,-0.44 15.791,-1.554 1.364,-0.198 3.945,-0.235 5.07,-0.712 0.084,-0.351 0.145,-1.146 0.186,-2.164l0 -8.783 -0.065 -1.854c0.014,-0.687 0.062,-0.7 -0.083,-0.774 -0.05,-0.025 -0.122,-0.057 -0.225,-0.125 -0.416,-3.138 -0.703,-6.536 -1.288,-9.631 -0.58,-3.06 -1.252,-6.186 -1.752,-9.253 -0.989,-6.057 -1.4,-13.201 -2.969,-19.04 -3.158,-11.748 -10.138,-32.116 -21.401,-39.215 -1.057,-0.665 -1.895,-1.576 -2.919,-2.163z"/>
   </clipPath>
    <clipPath id="id1">
     <path d="M195.291 97.768c-0.085,-0.928 -0.17,-1.856 -0.308,-2.718 -0.137,-0.863 -0.329,-1.661 -0.099,-3.18 0.23,-1.519 0.881,-3.758 1.681,-6.311 0.801,-2.553 1.752,-5.418 2.565,-9.742 0.813,-4.323 1.489,-10.104 2.278,-15.986 0.788,-5.881 1.689,-11.863 2.652,-16.318 0.964,-4.454 1.99,-7.383 2.541,-9.31 0.55,-1.927 0.626,-2.853 0.663,-4.067 0.021,-0.674 0.03,-1.438 0.034,-2.242 -0.11,-0.063 -0.222,-0.122 -0.337,-0.177 -4.975,-2.38 -9.714,-5.334 -14.858,-7.149 -4.647,-1.639 -11.454,-2.699 -17.288,-4.719 -2.277,-0.789 -4.556,-1.589 -6.82,-2.415l-0.004 -0.03 -9.999 -4.08 -0.175 -0.072c-0.614,-0.28 -1.553,-1.207 -2.512,-1.889 -0.494,-0.369 -0.613,-0.563 -1.038,-0.905 -2.856,-2.299 -5.606,-5.635 -9.574,-5.641 -0.901,-0.002 -1.04,-0.123 -1.779,-0.163l-7.601 -0.17c-5.892,-0.486 -12.055,-0.501 -18.06,-0.477 -5.087,0.02 -9.557,0.063 -14.567,0.477 -2.529,0.209 -4.996,0.029 -7.6,0.17 -0.739,0.04 -0.878,0.161 -1.779,0.163 -3.968,0.006 -6.718,3.342 -9.575,5.641 -0.424,0.342 -0.543,0.536 -1.037,0.905 -0.741,0.527 -1.471,1.2 -2.047,1.608 -0.17,0.121 -0.326,0.218 -0.465,0.281l-10.174 4.152 -0.003 0.03c-2.265,0.826 -4.544,1.626 -6.821,2.415 -5.834,2.02 -12.641,3.08 -17.288,4.719 -5.144,1.815 -9.883,4.769 -14.858,7.149 -0.212,0.101 -0.412,0.215 -0.605,0.339 0.121,0.721 0.248,1.443 0.383,2.165 0.438,2.34 0.963,4.693 1.752,8.597 0.788,3.904 1.839,9.36 2.815,15.624 0.976,6.262 1.877,13.332 3.034,19.705 1.157,6.372 2.57,12.047 3.374,15.175 0.803,3.129 0.998,3.71 1.026,4.321 0.028,0.61 -0.11,1.248 -0.192,1.818 -0.083,0.57 -0.11,1.072 -0.138,1.574 1.678,4.247 3.328,18.944 3.789,24.023 0.735,8.116 1.826,16.186 2.512,24.347 0.348,4.137 0.874,8.269 1.009,12.419l0.653 12.776c0.396,4.199 0.208,8.934 0.274,13.179 0.032,2.062 0.194,4.007 0.186,6.13 -0.007,2.226 -0.172,4.349 -0.196,6.512 -0.051,4.469 -0.054,8.634 -0.319,13.111 -0.68,11.475 -1.257,26.076 -3.267,37.02 -0.966,5.407 -2.177,11.944 -2.754,17.389 -0.258,2.432 -0.827,10.057 -1.468,11.951 -0.68,2.01 -0.163,3.658 -0.568,5.77 -0.342,1.785 -0.742,3.812 -1.164,5.568 -0.463,1.93 -1.435,3.647 0.397,4.966 4.276,1.054 8.552,2.108 13.913,3.017 5.36,0.909 11.804,1.672 18.03,2.048 6.226,0.375 12.232,0.363 21.568,0.476 9.335,0.112 21.999,0.351 32.523,0.382 10.525,0.032 18.909,-0.144 26.242,-0.419 7.333,-0.275 13.615,-0.65 19.058,-1.151 5.443,-0.501 10.048,-1.126 13.829,-1.873 3.78,-0.746 6.736,-1.613 9.693,-2.48 1.832,-1.319 0.86,-3.036 0.397,-4.966 -0.422,-1.756 -0.822,-3.783 -1.164,-5.568 -0.405,-2.112 0.112,-3.76 -0.568,-5.77 -0.641,-1.894 -1.21,-9.519 -1.468,-11.951 -0.577,-5.445 -1.788,-11.982 -2.754,-17.389 -2.01,-10.944 -2.587,-25.545 -3.267,-37.02 -0.265,-4.477 -0.268,-8.642 -0.319,-13.111 -0.024,-2.163 -0.189,-4.286 -0.196,-6.512 -0.008,-2.123 0.154,-4.068 0.186,-6.13 0.066,-4.245 -0.122,-8.98 0.274,-13.179l0.653 -12.776c0.135,-4.15 0.661,-8.282 1.009,-12.419 0.686,-8.161 1.777,-16.231 2.512,-24.347 0.461,-5.079 1.889,-19.043 3.568,-23.29z"/>
    </clipPath>
    <clipPath id="id2">
     <path d="M207.298 27.894c-0.11,-0.063 -0.222,-0.122 -0.337,-0.177 -4.975,-2.38 -9.714,-5.334 -14.858,-7.149 -4.647,-1.639 -11.454,-2.699 -17.288,-4.719 -2.277,-0.789 -4.556,-1.589 -6.82,-2.415l-0.004 -0.03 -9.999 -4.08 -0.175 -0.072c-0.614,-0.28 -1.553,-1.207 -2.512,-1.889 -0.494,-0.369 -0.613,-0.563 -1.038,-0.905 -2.856,-2.299 -5.606,-5.635 -9.574,-5.641 -0.901,-0.002 -1.04,-0.123 -1.779,-0.163l-7.601 -0.17c-5.892,-0.486 -12.055,-0.501 -18.06,-0.477 -5.087,0.02 -9.557,0.063 -14.567,0.477 -2.529,0.209 -4.996,0.029 -7.6,0.17 -0.739,0.04 -0.878,0.161 -1.779,0.163 -3.968,0.006 -6.718,3.342 -9.575,5.641 -0.424,0.342 -0.543,0.536 -1.037,0.905 -0.741,0.527 -1.471,1.2 -2.047,1.608 -0.17,0.121 -0.326,0.218 -0.465,0.281l-10.174 4.152 -0.003 0.03c-2.265,0.826 -4.544,1.626 -6.821,2.415 -5.834,2.02 -12.641,3.08 -17.288,4.719 -5.144,1.815 -9.883,4.769 -14.858,7.149 -0.212,0.101 -0.412,0.215 -0.605,0.339 -0.909,0.583 -1.664,1.379 -2.651,2.001 -11.263,7.099 -18.243,27.467 -21.401,39.215 -1.569,5.839 -1.98,12.983 -2.969,19.04 -0.5,3.067 -1.172,6.193 -1.752,9.253 -0.585,3.095 -0.872,6.493 -1.288,9.631 -0.406,0.268 -0.327,-0.023 -0.308,0.899l-0.065 1.854 0 8.783c0.041,1.018 0.102,1.813 0.186,2.164 1.125,0.477 3.706,0.514 5.07,0.712 7.662,1.114 9.041,0.828 15.791,1.554l21.547 1.349c-0.015,-1.623 0.547,-10.725 0.578,-13.424l-0.603 -0.316 -0.07 -0.036c0,-4.476 -0.011,-9.226 -0.011,-13.7 1.678,4.247 3.328,18.944 3.789,24.023 0.735,8.116 1.826,16.186 2.512,24.347 0.348,4.137 0.874,8.269 1.009,12.419l0.653 12.776c0.396,4.199 0.208,8.934 0.274,13.179 0.032,2.062 0.194,4.007 0.186,6.13 -0.007,2.226 -0.172,4.349 -0.196,6.512 -0.051,4.469 -0.054,8.634 -0.319,13.111 -0.68,11.475 -1.257,26.076 -3.267,37.02 -0.966,5.407 -2.177,11.944 -2.754,17.389 -0.258,2.432 -0.827,10.057 -1.468,11.951 -0.68,2.01 -0.163,3.658 -0.568,5.77 -0.342,1.785 -0.742,3.812 -1.164,5.568 -0.463,1.93 -1.435,3.647 0.397,4.966 4.276,1.054 8.552,2.108 13.913,3.017 5.36,0.909 11.804,1.672 18.03,2.048 6.226,0.375 12.232,0.363 21.568,0.476 9.335,0.112 21.999,0.351 32.523,0.382 10.525,0.032 18.909,-0.144 26.242,-0.419 7.333,-0.275 13.615,-0.65 19.058,-1.151 5.443,-0.501 10.048,-1.126 13.829,-1.873 3.78,-0.746 6.736,-1.613 9.693,-2.48 1.832,-1.319 0.86,-3.036 0.397,-4.966 -0.422,-1.756 -0.822,-3.783 -1.164,-5.568 -0.405,-2.112 0.112,-3.76 -0.568,-5.77 -0.641,-1.894 -1.21,-9.519 -1.468,-11.951 -0.577,-5.445 -1.788,-11.982 -2.754,-17.389 -2.01,-10.944 -2.587,-25.545 -3.267,-37.02 -0.265,-4.477 -0.268,-8.642 -0.319,-13.111 -0.024,-2.163 -0.189,-4.286 -0.196,-6.512 -0.008,-2.123 0.154,-4.068 0.186,-6.13 0.066,-4.245 -0.122,-8.98 0.274,-13.179l0.653 -12.776c0.135,-4.15 0.661,-8.282 1.009,-12.419 0.686,-8.161 1.777,-16.231 2.512,-24.347 0.461,-5.079 1.889,-19.043 3.568,-23.29 0,4.474 -0.105,8.584 -0.105,13.06l0 0 -0.416 0.247c-0.004,0.882 0.338,12.091 0.604,13.423l21.579 -1.336c6.75,-0.726 8.129,-0.44 15.791,-1.554 1.364,-0.198 3.945,-0.235 5.07,-0.712 0.084,-0.351 0.145,-1.146 0.186,-2.164l0 -8.783 -0.065 -1.854c0.014,-0.687 0.062,-0.7 -0.083,-0.774 -0.05,-0.025 -0.122,-0.057 -0.225,-0.125 -0.416,-3.138 -0.703,-6.536 -1.288,-9.631 -0.58,-3.06 -1.252,-6.186 -1.752,-9.253 -0.989,-6.057 -1.4,-13.201 -2.969,-19.04 -3.158,-11.748 -10.138,-32.116 -21.401,-39.215 -1.057,-0.665 -1.895,-1.576 -2.919,-2.163z"/>
    </clipPath>
    <clipPath id="id3">
     <path d="M42.488 97.035c0.028,-0.502 0.055,-1.004 0.138,-1.574 0.082,-0.57 0.22,-1.208 0.192,-1.818 -0.028,-0.611 -0.223,-1.192 -1.026,-4.321 -0.804,-3.128 -2.217,-8.803 -3.374,-15.175 -1.157,-6.373 -2.058,-13.443 -3.034,-19.705 -0.976,-6.264 -2.027,-11.72 -2.815,-15.624 -0.789,-3.904 -1.314,-6.257 -1.752,-8.597 -0.135,-0.722 -0.262,-1.444 -0.383,-2.165 -0.909,0.583 -1.664,1.379 -2.651,2.001 -11.263,7.099 -18.243,27.467 -21.401,39.215 -1.569,5.839 -1.98,12.983 -2.969,19.04 -0.5,3.067 -1.172,6.193 -1.752,9.253 -0.585,3.095 -0.872,6.493 -1.288,9.631 0.744,0.196 1.489,0.392 4.426,0.672 2.938,0.279 8.068,0.642 13.143,1.005 5.074,0.363 10.092,0.726 13.996,1.045 3.905,0.319 6.695,0.595 8.372,0.73l0.055 0.004 0.053 0.004 0.053 0.004 0.052 0.004 0.051 0.004 0.051 0.004 0.05 0.004 0.048 0.004 0.001 0 0.048 0.003 0.048 0.004 0.046 0.003 0.047 0.003 0.045 0.004 0.045 0.003 0.044 0.003 0.044 0.003 0.042 0.003 0.043 0.003 0.041 0.002 0.041 0.003 0 0 0.041 0.002 0.039 0.003 0.039 0.002 0.001 0 0.038 0.003 0.038 0.002 0.037 0.002 0 0 0.037 0.002 0.036 0.002 0.036 0.002 0 0 0.035 0.002 0 0 0.035 0.002 0 0 0.034 0.002 0 0 0.033 0.002 0.033 0.001 0.001 0 0.032 0.002 0.032 0.002 0 0 0.031 0.001 0.001 0 0.031 0.001 0 0 0.03 0.002 0.001 0 0.029 0.001 0.001 0 0.029 0.001 0 0 0.029 0.002 0.001 0 0.028 0 0.001 0 0.028 0.002 0.028 0.001 0 0 0.028 0 0 0 0.027 0.001 0 0 0.027 0.001 0.026 0.001 0.001 0 0.025 0.001 0.001 0 0.025 0.001 0 0 0.025 0 0.001 0 0.025 0.001 0 0 0.024 0 0.001 0 0.024 0.001 0 0 0.024 0.001 0 0 0.023 0 0.001 0 0.023 0 0 0 0.023 0.001 0.001 0 0.022 0 0.001 0 0.022 0.001 0 0 0.022 0 0 0 0.022 0 0.001 0 0.021 0 0 0 -42.196 -3.575c-0.406,0.268 -0.327,-0.023 -0.308,0.899l-0.065 1.854 0 8.783c0.041,1.018 0.102,1.813 0.186,2.164 1.125,0.477 3.706,0.514 5.07,0.712 7.662,1.114 9.041,0.828 15.791,1.554l21.547 1.349c-0.015,-1.623 0.547,-10.725 0.578,-13.424l-0.603 -0.316 0 0 -0.07 -0.036c0,-4.476 -0.011,-9.226 -0.011,-13.7zm152.698 13.793l0 0 -0.416 0.247c-0.004,0.882 0.338,12.091 0.604,13.423l21.579 -1.336c6.75,-0.726 8.129,-0.44 15.791,-1.554 1.364,-0.198 3.945,-0.235 5.07,-0.712 0.084,-0.351 0.145,-1.146 0.186,-2.164l0 -8.783 -0.065 -1.854c0.014,-0.687 0.062,-0.7 -0.083,-0.774 -0.05,-0.025 -0.122,-0.057 -0.225,-0.125 -0.416,-3.138 -0.703,-6.536 -1.288,-9.631 -0.58,-3.06 -1.252,-6.186 -1.752,-9.253 -0.989,-6.057 -1.4,-13.201 -2.969,-19.04 -3.158,-11.748 -10.138,-32.116 -21.401,-39.215 -1.057,-0.665 -1.895,-1.576 -2.919,-2.163 -0.004,0.804 -0.013,1.568 -0.034,2.242 -0.037,1.214 -0.113,2.14 -0.663,4.067 -0.551,1.927 -1.577,4.856 -2.541,9.31 -0.963,4.455 -1.864,10.437 -2.652,16.318 -0.789,5.882 -1.465,11.663 -2.278,15.986 -0.813,4.324 -1.764,7.189 -2.565,9.742 -0.8,2.553 -1.451,4.792 -1.681,6.311 -0.23,1.519 -0.038,2.317 0.099,3.18 0.138,0.862 0.223,1.79 0.308,2.718 0,4.474 -0.105,8.584 -0.105,13.06z"/>
    </clipPath>
    <clipPath id="id4">
     <path d="M207.298 27.894c-0.11,-0.063 -0.222,-0.122 -0.337,-0.177 -4.975,-2.38 -9.714,-5.334 -14.858,-7.149 -4.647,-1.639 -11.454,-2.699 -17.288,-4.719 -2.277,-0.789 -4.556,-1.589 -6.82,-2.415l-0.004 -0.03 -9.999 -4.08 -0.175 -0.072c-0.614,-0.28 -1.553,-1.207 -2.512,-1.889 -0.494,-0.369 -0.613,-0.563 -1.038,-0.905 -2.856,-2.299 -5.606,-5.635 -9.574,-5.641 -0.901,-0.002 -1.04,-0.123 -1.779,-0.163l-7.601 -0.17c-5.892,-0.486 -12.055,-0.501 -18.06,-0.477 -5.087,0.02 -9.557,0.063 -14.567,0.477 -2.529,0.209 -4.996,0.029 -7.6,0.17 -0.739,0.04 -0.878,0.161 -1.779,0.163 -3.968,0.006 -6.718,3.342 -9.575,5.641 -0.424,0.342 -0.543,0.536 -1.037,0.905 -0.741,0.527 -1.471,1.2 -2.047,1.608 -0.17,0.121 -0.326,0.218 -0.465,0.281l-10.174 4.152 -0.003 0.03c-2.265,0.826 -4.544,1.626 -6.821,2.415 -5.834,2.02 -12.641,3.08 -17.288,4.719 -5.144,1.815 -9.883,4.769 -14.858,7.149 -0.212,0.101 -0.412,0.215 -0.605,0.339 -0.909,0.583 -1.664,1.379 -2.651,2.001 -11.263,7.099 -18.243,27.467 -21.401,39.215 -1.569,5.839 -1.98,12.983 -2.969,19.04 -0.5,3.067 -1.172,6.193 -1.752,9.253 -0.585,3.095 -0.872,6.493 -1.288,9.631 -0.406,0.268 -0.327,-0.023 -0.308,0.899l-0.065 1.854 0 8.783c0.041,1.018 0.102,1.813 0.186,2.164 1.125,0.477 3.706,0.514 5.07,0.712 7.662,1.114 9.041,0.828 15.791,1.554l21.547 1.349c-0.015,-1.623 0.547,-10.725 0.578,-13.424l-0.603 -0.316 -0.07 -0.036c0,-4.476 -0.011,-9.226 -0.011,-13.7 1.678,4.247 3.328,18.944 3.789,24.023 0.735,8.116 1.826,16.186 2.512,24.347 0.348,4.137 0.874,8.269 1.009,12.419l0.653 12.776c0.396,4.199 0.208,8.934 0.274,13.179 0.032,2.062 0.194,4.007 0.186,6.13 -0.007,2.226 -0.172,4.349 -0.196,6.512 -0.051,4.469 -0.054,8.634 -0.319,13.111 -0.68,11.475 -1.257,26.076 -3.267,37.02 -0.966,5.407 -2.177,11.944 -2.754,17.389 -0.258,2.432 -0.827,10.057 -1.468,11.951 -0.68,2.01 -0.163,3.658 -0.568,5.77 -0.342,1.785 -0.742,3.812 -1.164,5.568 -0.463,1.93 -1.435,3.647 0.397,4.966 4.276,1.054 8.552,2.108 13.913,3.017 5.36,0.909 11.804,1.672 18.03,2.048 6.226,0.375 12.232,0.363 21.568,0.476 9.335,0.112 21.999,0.351 32.523,0.382 10.525,0.032 18.909,-0.144 26.242,-0.419 7.333,-0.275 13.615,-0.65 19.058,-1.151 5.443,-0.501 10.048,-1.126 13.829,-1.873 3.78,-0.746 6.736,-1.613 9.693,-2.48 1.832,-1.319 0.86,-3.036 0.397,-4.966 -0.422,-1.756 -0.822,-3.783 -1.164,-5.568 -0.405,-2.112 0.112,-3.76 -0.568,-5.77 -0.641,-1.894 -1.21,-9.519 -1.468,-11.951 -0.577,-5.445 -1.788,-11.982 -2.754,-17.389 -2.01,-10.944 -2.587,-25.545 -3.267,-37.02 -0.265,-4.477 -0.268,-8.642 -0.319,-13.111 -0.024,-2.163 -0.189,-4.286 -0.196,-6.512 -0.008,-2.123 0.154,-4.068 0.186,-6.13 0.066,-4.245 -0.122,-8.98 0.274,-13.179l0.653 -12.776c0.135,-4.15 0.661,-8.282 1.009,-12.419 0.686,-8.161 1.777,-16.231 2.512,-24.347 0.461,-5.079 1.889,-19.043 3.568,-23.29 0,4.474 -0.105,8.584 -0.105,13.06l0 0 -0.416 0.247c-0.004,0.882 0.338,12.091 0.604,13.423l21.579 -1.336c6.75,-0.726 8.129,-0.44 15.791,-1.554 1.364,-0.198 3.945,-0.235 5.07,-0.712 0.084,-0.351 0.145,-1.146 0.186,-2.164l0 -8.783 -0.065 -1.854c0.014,-0.687 0.062,-0.7 -0.083,-0.774 -0.05,-0.025 -0.122,-0.057 -0.225,-0.125 -0.416,-3.138 -0.703,-6.536 -1.288,-9.631 -0.58,-3.06 -1.252,-6.186 -1.752,-9.253 -0.989,-6.057 -1.4,-13.201 -2.969,-19.04 -3.158,-11.748 -10.138,-32.116 -21.401,-39.215 -1.057,-0.665 -1.895,-1.576 -2.919,-2.163z"/>
    </clipPath>
 </defs>
 <g id="VETORES">
  <metadata id="CorelCorpID_0Corel-Layer"/>
  <g>
  </g>
  <g clip-path="url(#id0)">
   <g id="_2320992129424">
    <g>
    </g>
   </g>
   <g clip-path="url(#id1)">
   </g>
   <g clip-path="url(#id2)">
    <path id="torso" fill="none" d="M195.291 97.768c-0.085,-0.928 -0.17,-1.856 -0.308,-2.718 -0.137,-0.863 -0.329,-1.661 -0.099,-3.18 0.23,-1.519 0.881,-3.758 1.681,-6.311 0.801,-2.553 1.752,-5.418 2.565,-9.742 0.813,-4.323 1.489,-10.104 2.278,-15.986 0.788,-5.881 1.689,-11.863 2.652,-16.318 0.964,-4.454 1.99,-7.383 2.541,-9.31 0.55,-1.927 0.626,-2.853 0.663,-4.067 0.021,-0.674 0.03,-1.438 0.034,-2.242 -0.11,-0.063 -0.222,-0.122 -0.337,-0.177 -4.975,-2.38 -9.714,-5.334 -14.858,-7.149 -4.647,-1.639 -11.454,-2.699 -17.288,-4.719 -2.277,-0.789 -4.556,-1.589 -6.82,-2.415l-0.004 -0.03 -9.999 -4.08 -0.175 -0.072c-0.614,-0.28 -1.553,-1.207 -2.512,-1.889 -0.494,-0.369 -0.613,-0.563 -1.038,-0.905 -2.856,-2.299 -5.606,-5.635 -9.574,-5.641 -0.901,-0.002 -1.04,-0.123 -1.779,-0.163l-7.601 -0.17c-5.892,-0.486 -12.055,-0.501 -18.06,-0.477 -5.087,0.02 -9.557,0.063 -14.567,0.477 -2.529,0.209 -4.996,0.029 -7.6,0.17 -0.739,0.04 -0.878,0.161 -1.779,0.163 -3.968,0.006 -6.718,3.342 -9.575,5.641 -0.424,0.342 -0.543,0.536 -1.037,0.905 -0.741,0.527 -1.471,1.2 -2.047,1.608 -0.17,0.121 -0.326,0.218 -0.465,0.281l-10.174 4.152 -0.003 0.03c-2.265,0.826 -4.544,1.626 -6.821,2.415 -5.834,2.02 -12.641,3.08 -17.288,4.719 -5.144,1.815 -9.883,4.769 -14.858,7.149 -0.212,0.101 -0.412,0.215 -0.605,0.339 0.121,0.721 0.248,1.443 0.383,2.165 0.438,2.34 0.963,4.693 1.752,8.597 0.788,3.904 1.839,9.36 2.815,15.624 0.976,6.262 1.877,13.332 3.034,19.705 1.157,6.372 2.57,12.047 3.374,15.175 0.803,3.129 0.998,3.71 1.026,4.321 0.028,0.61 -0.11,1.248 -0.192,1.818 -0.083,0.57 -0.11,1.072 -0.138,1.574 1.678,4.247 3.328,18.944 3.789,24.023 0.735,8.116 1.826,16.186 2.512,24.347 0.348,4.137 0.874,8.269 1.009,12.419l0.653 12.776c0.396,4.199 0.208,8.934 0.274,13.179 0.032,2.062 0.194,4.007 0.186,6.13 -0.007,2.226 -0.172,4.349 -0.196,6.512 -0.051,4.469 -0.054,8.634 -0.319,13.111 -0.68,11.475 -1.257,26.076 -3.267,37.02 -0.966,5.407 -2.177,11.944 -2.754,17.389 -0.258,2.432 -0.827,10.057 -1.468,11.951 -0.68,2.01 -0.163,3.658 -0.568,5.77 -0.342,1.785 -0.742,3.812 -1.164,5.568 -0.463,1.93 -1.435,3.647 0.397,4.966 4.276,1.054 8.552,2.108 13.913,3.017 5.36,0.909 11.804,1.672 18.03,2.048 6.226,0.375 12.232,0.363 21.568,0.476 9.335,0.112 21.999,0.351 32.523,0.382 10.525,0.032 18.909,-0.144 26.242,-0.419 7.333,-0.275 13.615,-0.65 19.058,-1.151 5.443,-0.501 10.048,-1.126 13.829,-1.873 3.78,-0.746 6.736,-1.613 9.693,-2.48 1.832,-1.319 0.86,-3.036 0.397,-4.966 -0.422,-1.756 -0.822,-3.783 -1.164,-5.568 -0.405,-2.112 0.112,-3.76 -0.568,-5.77 -0.641,-1.894 -1.21,-9.519 -1.468,-11.951 -0.577,-5.445 -1.788,-11.982 -2.754,-17.389 -2.01,-10.944 -2.587,-25.545 -3.267,-37.02 -0.265,-4.477 -0.268,-8.642 -0.319,-13.111 -0.024,-2.163 -0.189,-4.286 -0.196,-6.512 -0.008,-2.123 0.154,-4.068 0.186,-6.13 0.066,-4.245 -0.122,-8.98 0.274,-13.179l0.653 -12.776c0.135,-4.15 0.661,-8.282 1.009,-12.419 0.686,-8.161 1.777,-16.231 2.512,-24.347 0.461,-5.079 1.889,-19.043 3.568,-23.29z"/>
    <g>
    </g>
   </g>
   <g clip-path="url(#id3)">
   </g>
   <g clip-path="url(#id4)">
    <path id="manga" fill="none" d="M42.488 97.035c0.028,-0.502 0.055,-1.004 0.138,-1.574 0.082,-0.57 0.22,-1.208 0.192,-1.818 -0.028,-0.611 -0.223,-1.192 -1.026,-4.321 -0.804,-3.128 -2.217,-8.803 -3.374,-15.175 -1.157,-6.373 -2.058,-13.443 -3.034,-19.705 -0.976,-6.264 -2.027,-11.72 -2.815,-15.624 -0.789,-3.904 -1.314,-6.257 -1.752,-8.597 -0.135,-0.722 -0.262,-1.444 -0.383,-2.165 -0.909,0.583 -1.664,1.379 -2.651,2.001 -11.263,7.099 -18.243,27.467 -21.401,39.215 -1.569,5.839 -1.98,12.983 -2.969,19.04 -0.5,3.067 -1.172,6.193 -1.752,9.253 -0.585,3.095 -0.872,6.493 -1.288,9.631 -0.406,0.268 -0.327,-0.023 -0.308,0.899l-0.065 1.854 0 8.783c0.041,1.018 0.102,1.813 0.186,2.164 1.125,0.477 3.706,0.514 5.07,0.712 7.662,1.114 9.041,0.828 15.791,1.554l21.547 1.349c-0.015,-1.623 0.547,-10.725 0.578,-13.424l-0.603 -0.316 0 0 -0.07 -0.036c0,-4.476 -0.011,-9.226 -0.011,-13.7zm152.698 13.793l0 0 -0.416 0.247c-0.004,0.882 0.338,12.091 0.604,13.423l21.579 -1.336c6.75,-0.726 8.129,-0.44 15.791,-1.554 1.364,-0.198 3.945,-0.235 5.07,-0.712 0.084,-0.351 0.145,-1.146 0.186,-2.164l0 -8.783 -0.065 -1.854c0.014,-0.687 0.062,-0.7 -0.083,-0.774 -0.05,-0.025 -0.122,-0.057 -0.225,-0.125 -0.416,-3.138 -0.703,-6.536 -1.288,-9.631 -0.58,-3.06 -1.252,-6.186 -1.752,-9.253 -0.989,-6.057 -1.4,-13.201 -2.969,-19.04 -3.158,-11.748 -10.138,-32.116 -21.401,-39.215 -1.057,-0.665 -1.895,-1.576 -2.919,-2.163 -0.004,0.804 -0.013,1.568 -0.034,2.242 -0.037,1.214 -0.113,2.14 -0.663,4.067 -0.551,1.927 -1.577,4.856 -2.541,9.31 -0.963,4.455 -1.864,10.437 -2.652,16.318 -0.789,5.882 -1.465,11.663 -2.278,15.986 -0.813,4.324 -1.764,7.189 -2.565,9.742 -0.8,2.553 -1.451,4.792 -1.681,6.311 -0.23,1.519 -0.038,2.317 0.099,3.18 0.138,0.862 0.223,1.79 0.308,2.718 0,4.474 -0.105,8.584 -0.105,13.06zm-194.813 -3.632c0.744,0.196 1.489,0.392 4.426,0.672 2.938,0.279 8.068,0.642 13.143,1.005 5.074,0.363 10.092,0.726 13.996,1.045 3.905,0.319 6.695,0.595 8.372,0.73l0.055 0.004 0.053 0.004 0.053 0.004 0.052 0.004 0.051 0.004 0.051 0.004 0.05 0.004 0.048 0.004 0.001 0 0.048 0.003 0.048 0.004 0.046 0.003 0.047 0.003 0.045 0.004 0.045 0.003 0.044 0.003 0.044 0.003 0.042 0.003 0.043 0.003 0.041 0.002 0.041 0.003 0 0 0.041 0.002 0.039 0.003 0.039 0.002 0.001 0 0.038 0.003 0.038 0.002 0.037 0.002 0 0 0.037 0.002 0.036 0.002 0.036 0.002 0 0 0.035 0.002 0 0 0.035 0.002 0 0 0.034 0.002 0 0 0.033 0.002 0.033 0.001 0.001 0 0.032 0.002 0.032 0.002 0 0 0.031 0.001 0.001 0 0.031 0.001 0 0 0.03 0.002 0.001 0 0.029 0.001 0.001 0 0.029 0.001 0 0 0.029 0.002 0.001 0 0.028 0 0.001 0 0.028 0.002 0.028 0.001 0 0 0.028 0 0 0 0.027 0.001 0 0 0.027 0.001 0.026 0.001 0.001 0 0.025 0.001 0.001 0 0.025 0.001 0 0 0.025 0 0.001 0 0.025 0.001 0 0 0.024 0 0.001 0 0.024 0.001 0 0 0.024 0.001 0 0 0.023 0 0.001 0 0.023 0 0 0 0.023 0.001 0.001 0 0.022 0 0.001 0 0.022 0.001 0 0 0.022 0 0 0 0.022 0 0.001 0 0.021 0 0 0 -42.196 -3.575z"/>
    <path id="_5" fill="#FF3203" fill-rule="nonzero" d="M51.449 18.991c-0.857,0.211 -1.692,0.423 -2.492,0.641l-0.225 0.275c-4.377,5.56 -4.857,6.795 -8.763,12.904l0.294 -1.012c1.434,-3.15 -3.221,-2.611 -5.025,-6.21 -1.214,0.637 -2.432,1.268 -3.663,1.869 0.465,2.433 1.241,4.822 2.925,6.25 1.832,1.553 2.74,1.507 4.629,0.717 -1.305,3.8 -3.529,5.795 -5.246,8.649 -0.124,0.206 -0.242,0.42 -0.356,0.639 0.592,3.127 1.24,6.766 1.857,10.729 0.369,2.368 0.727,4.852 1.093,7.37l0.01 -0.027c1.191,-3.142 4.868,-4.328 6.99,-3.144 3.876,3 7.034,7.959 8.9,12.466 1.636,5.304 2.698,11.369 1.93,16.923 -0.617,4.479 -2.411,9.309 -4.284,13.414 -0.88,1.869 -3.359,3.918 -5.316,6.365 0.743,5.124 1.325,10.547 1.57,13.249 0.735,8.116 1.826,16.186 2.512,24.347 0.348,4.137 0.874,8.269 1.009,12.419l0.3 5.872c2.76,0.604 6.16,-0.189 8.638,-1.335 0,-0.559 0.153,-1.186 0.789,-1.327 0.933,0.093 1.83,0.229 2.634,-0.331 2.196,0.144 5.053,-0.007 7.191,-0.552 4.852,-1.242 9.532,-3.639 14.204,-5.433 3.882,-1.493 8.002,-2.304 11.612,-4.471l0.237 -0.424 -0.352 -0.387 -2.44 0.696 -18.667 6.696c-0.387,-0.237 -0.459,-0.38 -0.71,-0.754 3.825,-2.521 6.23,-4.592 8.583,-8.806 -2.289,2.246 -4.822,4.113 -7.356,6.079 -1.299,0.826 -2.627,1.457 -4.033,2.081l-0.151 -0.409c0,0 0.552,-0.603 0.552,-0.603l0.201 0.001c2.763,-1.902 5.024,-4.644 6.991,-7.321 -1.247,0.73 -6.123,5.239 -7.672,6.431 -3.54,2.722 -6.815,1.747 -10.321,-0.331 -6.836,-4.051 -7.407,-9.453 -9.998,-16.643 -0.687,-1.906 -0.582,-2.18 -2.024,-3.438l-0.538 -10.011c-0.246,-5.582 -0.146,-9.703 3.969,-14.146l-0.208 -0.287 -0.402 0.402c-0.26,-0.385 -0.393,-0.609 -0.093,-1.163 0.824,-1.521 1.376,-2.428 3.058,-3.53 2.041,-1.338 2.394,-2.147 2.454,-2.197 3.926,-1.342 8.656,-2.318 12.797,-2.605 9.348,-0.519 9.598,-0.062 19.693,-2.153 0.115,-0.179 1.45,-0.438 1.737,-0.517 1.794,-0.502 3.581,0.524 5.296,-0.107 1.095,-0.403 2.417,-1.158 1.63,-2.441 -1.657,-2.698 -8.13,-1.883 -11.096,-2.677l-3.064 -0.868c-3.302,-0.882 -6.172,-3.028 -9.531,-3.839 -1.752,-0.424 -3.417,-0.115 -5.146,-0.359 -0.917,-0.132 -1.388,-0.294 -1.637,-1.68l-0.997 -0.983c-1.4,-2.935 -1.981,-5.447 -0.89,-8.605 0.438,-1.966 1.579,-4.048 2.533,-5.814 5.498,-10.161 11.252,-14.177 20.203,-20.504 0.767,0.231 2.517,0.637 3.086,-0.072 0.367,-0.703 0.826,-1.32 0.603,-2.117l-0.359 -0.143c-4.961,2.935 -8.899,4.853 -13.915,7.55 -3.376,1.854 -4.251,3.415 -9.503,5.361 -1.506,0.559 -2.697,-0.017 -3.782,-1.048l-0.151 0.287c0.538,1.71 1.026,1.05 1.816,1.766 -0.653,0.143 -1.593,-0.208 -2.275,-0.302 -1.577,0.04 -1.427,8.941 -4.485,9.553 -1.034,-0.739 -1.852,-1.931 -2.699,-2.871l-3.976 -4.033c-2.828,-2.62 -6.595,-4.68 -9.028,-7.665 -1.615,-1.981 -3.187,-5.067 -4.185,-7.436 -0.98,-2.324 -0.197,-6.65 0.625,-8.964l3.502 -7.744c2.35,-4.233 5.205,-8.335 8.401,-12.162zm-12.762 56.604c0.199,1.045 0.403,2.065 0.609,3.054 0.404,0.33 0.82,0.658 1.26,0.977 2.211,1.608 4.658,2.928 6.84,4.55 1.238,0.92 2.231,2.846 4.342,2.226l0.151 -0.309c-0.79,-1.421 -2.491,-1.73 -3.768,-2.584 -3.139,-2.094 -6.921,-4.739 -9.434,-7.914zm11.547 90.749l0.105 2.049c0.435,-0.568 0.664,-1.488 0.861,-2.07l0.008 0c-0.222,0.012 -0.566,0.014 -0.974,0.021zm54.413 131.525l0.635 0.009c0.837,-0.714 0.466,-0.916 0.463,-3.642l-0.208 -36.982c-0.315,-2.106 -0.449,-0.689 -0.416,-3.761l-0.905 -0.481 -0.021 0.632 -0.008 0.007c-0.079,1.328 0.345,2.555 -0.394,3.718l0.014 35.74c0,1.416 -0.327,3.833 0.84,4.76zm17.619 0.219c1.339,0.011 2.659,0.02 3.953,0.026 0.261,-11.417 0.456,-22.827 0.511,-34.157l-0.086 -21.229 -1.228 -13.73c-1.284,1.486 -2.088,2.778 -2.389,4.773 -0.564,3.725 -0.706,44.535 -0.761,64.317zm10.169 0.031c1.017,-0.003 2.012,-0.008 2.989,-0.016l-0.089 -12.407 -0.122 -28.191 -0.869 -24.243c0.035,-1.825 -0.469,-6.696 -1.047,-8.591l-0.862 73.448zm16.999 -0.27c1.06,-0.032 2.096,-0.066 3.112,-0.101l0.932 -74.405c0.072,-1.529 0.165,-3.337 -0.309,-4.794 -0.243,-0.741 3.089,-3.649 3.18,-8.49l-0.633 -0.021c-0.286,-0.905 -0.097,-2.629 -0.079,-3.639 -0.194,0.646 -0.172,0.868 -0.717,1.285l-0.316 -0.194c0.151,-1.177 0.581,-2.405 1.277,-3.366 0,0 0.618,-0.058 0.618,-0.058 0,-1.756 0.306,-1.066 -1.414,-2.813l-0.294 0.445 0.021 -0.804 -0.359 -0.359c-0.301,0.452 -0.057,0.711 -0.359,1.163 0,0.423 0.065,0.531 -0.179,0.897 0,0.38 0.043,0.38 -0.179,0.718 -0.026,0.085 -0.323,2.301 -0.897,2.777l0.402 0.272 -0.589 2.333 -0.179 0.086c0.015,-0.847 0.072,-1.658 -0.222,-2.462 -0.701,-1.5 1.534,-3.808 -1.206,-6.681 0.515,2.363 0.696,3.632 -0.229,6.273l-0.23 0.086c-0.309,-0.345 -0.582,-0.682 -0.969,-0.94 0.489,2.765 1.161,3.717 1.277,4.449 0.316,1.953 -0.093,4.034 0.216,6.015 0,1.27 0.129,2.016 0.961,2.992l0.402 -0.014c0.331,1.443 0.029,3.165 0.108,4.658 0.091,9.235 -4.368,9.283 -5.21,14.153 -0.589,3.409 -0.259,6.882 -0.194,10.305l0.237 15.811c0.036,2.527 0.294,5.289 -0.122,7.787l-0.008 0.007c-0.143,0.876 -0.617,1.794 -0.911,2.641 -0.529,1.501 -0.487,1.73 0.366,2.598 0.313,-0.675 1.083,-2.161 1.938,-1.277 1.369,1.415 0.93,2.719 0.861,3.696l-0.104 18.971zm38.487 -134.531l0.046 -0.896c-0.573,-0.224 -1.419,-0.225 -1.978,-0.298l0.001 0c-0.984,-0.129 -1.96,-0.344 -2.928,-0.538 -1.048,-0.359 -2.247,-0.933 -3.36,-0.947 0.585,1.321 3.092,1.885 4.414,2.031 1.646,0.181 2.833,0.414 3.805,0.648zm0.18 -3.519l0.101 -1.975c0.04,-1.237 0.115,-2.472 0.21,-3.706 -0.958,0.653 -1.832,1.174 -2.48,1.44 -6.871,2.817 -10.007,-2.136 -14.806,-6.086l-0.172 0.193c1.127,1.565 2.612,2.993 3.89,4.443 -1.606,0.13 -6.39,-3.817 -9.452,-3.122l0.05 0.144c3.522,1.358 4.644,2.7 7.93,4.033 1.019,0.416 2.491,0.861 3.574,0.89l3.833 1.751 0.057 0.294 0.166 0.101 -0.725 0.244 -2.806 -0.459 0.014 -0.015c-0.897,-0.423 -1.801,-0.782 -2.663,-1.284 -1.978,-1.157 -1.609,-1.155 -3.954,-2.111l-4.177 -1.413 -0.065 -0.187c-4.011,-1.486 -7.995,-2.168 -11.734,-4.428 -3.007,-1.823 -5.54,-5.124 -8.77,-6.402 0.658,2.319 0.613,2.079 2.476,3.603 4.899,4.007 10.037,6.579 16.414,7.823l-0.015 -0.007c1.342,0.552 2.785,0.947 4.077,1.579l5.411 2.878c1.16,0.646 1.532,1.546 2.842,0.61 2.828,1.068 6.317,2.393 9.323,1.65 0.578,-0.143 1.05,-0.3 1.451,-0.481zm-92.949 79.355c0.035,-3.202 0.432,-17.508 -0.072,-20.067l-0.747 -1.816c0.41,-0.236 0.732,-0.366 1.192,-0.473 1.105,0.674 1.457,1.012 2.834,1.083l0.252 0.173c-0.489,5.766 -0.622,17.905 0.186,23.482 -2.169,0.589 -3.989,0.862 -2.39,3.847 -0.373,0.352 -0.459,0.524 -0.975,0.596 -1.593,-1.819 -0.421,-3.758 -0.281,-6.832l0.001 0.007zm-16.636 -41.784l3.007 4.249c0.43,0 0.603,0.337 0.897,0.631l0 0.266c1.401,1.229 3.007,2.701 3.007,4.707 0.212,-3.922 -2.133,-5.808 -3.897,-7.894l-2.232 -2.763c-0.524,-0.596 -1.235,-0.969 -1.321,-1.78 1.378,1.378 2.569,2.821 3.854,4.285 1.952,2.232 3.998,4.478 4.012,7.643 0,2.117 -1.019,3.876 -1.471,5.885 -0.682,3.065 -0.323,8.612 1.758,11.088l0.775 0.23c0.826,-0.919 0.142,-5.405 0.194,-7.048l-0.129 -8.784c0.143,-1.694 0.739,-3.115 1.743,-4.464l1.242 0.531 0.617 -0.351c0.246,1.627 0.487,1.775 0,3.681l0.366 0.46c0.438,-0.754 0.94,-2.039 1.766,-2.376l0.165 0.782c-0.116,1.471 -3.049,3.498 -3.151,14.856l-0.071 36.574c-0.002,1.73 0.458,5.074 0.222,5.871l-0.359 0.143c-0.672,0.004 -3.361,-2.059 -3.847,-3.459l-0.014 -13.291c0,-5.599 0.302,-11.526 -0.531,-17.067 -0.151,-1.012 -0.459,-1.988 -0.639,-2.993 -0.165,-0.933 -0.186,-1.923 -0.438,-2.842 -0.753,-2.698 -1.543,-5.333 -1.966,-8.117 -0.517,-3.387 -0.122,-6.84 -0.459,-10.234 -0.359,-3.646 -1.837,-6.531 -4.292,-9.18l0.014 -0.43c0.417,0.359 0.862,0.746 1.177,1.191l0.001 0zm5.145 9.344c0.13,0.668 0.051,1.486 0.044,2.167l0.244 0.187c2.647,-1.933 -0.009,-4.577 -1.249,-5.835l-0.258 0.036c0.387,1.098 1.004,2.318 1.227,3.452l-0.008 -0.007zm12.775 -38.116c-0.077,0.575 -0.312,0.988 -0.861,1.105 -0.925,-0.925 -1.326,-1.032 -0.962,-2.275 0.366,-1.012 1.916,-1.816 2.857,-2.225 -0.457,0.979 -1.29,1.64 -1.96,2.577 0.395,0.244 0.639,0.445 0.926,0.818l0 0zm65.145 2.404c2.648,-0.043 4.313,-1.866 6.014,-3.61 -0.109,2.342 -4.944,6.07 -6.811,3.581l0.797 0.029zm-72.429 -66.443l0.273 0.251 0.272 -0.086c0.89,1.008 1.526,0.267 1.529,0.266 1.259,-0.669 2.232,0.777 2.332,1.349l6.495 2.132c1.501,0.425 2.294,0.363 3.057,1.098 -4.988,-0.833 -9.969,-3.086 -14.719,-4.802l0.767 -0.201 -0.006 -0.007zm45.659 109.461c-0.463,-1.028 -2.111,-12.443 -0.56,-14.102 0.785,1.695 0.524,7.914 0.56,10.284 0.043,1.278 0.273,2.562 0,3.825l0 -0.007zm-23.863 3.051c0.388,-1.472 0.036,-3.101 0.244,-4.601 0.165,-1.191 0.539,-2.347 0.725,-3.538 0.273,-1.744 0.366,-3.531 0.732,-5.261 0.101,-0.481 0.797,-1.974 0.761,-2.332 -0.03,-0.28 -0.519,-0.664 0.237,-1.163 0.294,0.359 0.244,1.414 0.359,1.457 0.292,-0.743 -0.674,-0.644 0.674,-2.778l1.859 -2.813c2.252,1.751 -0.941,5.398 -0.739,10.457 0.021,1.284 -0.187,2.691 0.086,3.933 0.409,0.122 0.216,0.1 0.574,0.1l0.295 -4.636c0.043,-1.163 -0.051,-2.376 0.523,-3.431l0.259 0.036c1.611,2.957 1.672,2.583 1.536,5.562 -0.051,1.098 -0.029,2.225 -0.144,3.323l0.897 0.402c0.635,2.771 -0.315,4.963 -2.397,6.775l-1.077 -0.811c-2.954,-2.458 -1.179,-10.751 -2.792,-14.913l-0.201 0.114c0.158,1.794 0.237,3.646 0.222,5.447 -0.006,1.077 -0.222,2.347 -0.035,3.402 0.266,1.516 -0.805,4.667 -2.606,5.261l0.008 0.008zm13.672 -5.469c-0.119,-1.15 -0.162,-3.715 -0.538,-4.629 -0.291,-0.708 -0.788,-1.384 -0.883,-2.197 0.022,-0.66 0,-1.5 -0.208,-2.131 -0.221,-0.661 0.289,-1.215 0.854,-1.493 0.122,-1.277 0.208,-2.741 0.761,-3.918 0.407,0.248 1.086,2.871 1.17,3.416 0.724,2.304 0.768,4.615 0.846,7.012l0.331 7.048 -0.144 0.179c-0.28,-0.481 -0.517,-0.933 -0.703,-1.457 -0.503,-0.395 -1.393,-1.17 -1.5,-1.83l0.014 0zm-53.539 -38.024c0.74,-0.703 1.669,-0.581 2.576,-0.308l0.158 -0.374c-0.517,-0.746 -0.84,-1.478 -1.17,-2.311 2.536,0.718 4.868,4.1 6.157,5.161l-0.035 1.026c0.45,0.463 0.785,0.681 0.703,1.148l-3.194 -0.595c-0.588,-0.18 -0.617,0.057 -1.069,0.114 -0.963,0.125 -1.994,-1.403 -5.842,0.682 1.066,-3.835 1.167,-1.892 1.722,-4.55l-0.006 0.007zm12.193 -7.643c-0.674,0.287 -1.938,-0.237 -2.519,0.036 -0.732,0.337 -0.459,0.868 -1.471,0.904 -0.581,-0.56 -0.603,-0.761 -0.804,-1.557 0.904,0.201 1.837,0.423 2.763,0.495 0.301,0.022 1.895,-0.014 2.038,0.122l-0.007 0zm35.311 23.784c-1.276,-1.994 -0.021,-2.159 0.279,-2.878l0.036 -0.488 -1.464 1.07c-2.799,-0.417 -4.959,-0.603 -7.514,-2.039 -1.45,-0.811 -3.409,-3.315 -3.976,-4.844 -0.438,-1.191 -0.646,-2.569 -0.984,-3.811 2.294,2.269 2.473,1.773 2.713,1.96 0.786,0.61 4.734,11.383 12.56,4.909 2.031,-1.902 3.2,-5.046 3.982,-7.651 -0.473,-1.737 -0.38,-3.452 -0.365,-5.232l0.359 -16.04c0.028,-0.689 0.028,-1.084 0.552,-1.558 0.733,0.584 0.714,0.557 0.905,1.672 0.416,2.447 0.77,11.533 0.854,14.426 0.09,3.129 -0.269,4.358 0.244,7.837 0.659,4.468 4.32,9.514 9.567,8.39 2.77,-0.588 5.002,-2.375 6.516,-4.751 2.283,-3.588 3.617,-8.526 2.691,-12.753l0.101 -3.366c0.92,1.954 1.876,3.4 2.153,5.569 0.294,2.534 -0.51,5.118 -0.976,7.586 -0.323,1.701 -0.517,4.428 -1.643,5.792 -3.411,4.123 -9.081,2.807 -9.783,3.574 -1.007,1.102 -2.386,1.737 -2.562,1.96 -0.459,0.581 -0.861,1.772 -1.199,2.461 0.194,-1.658 0.524,-2.828 0.209,-4.5 -2.181,-0.999 -5.077,-3.558 -5.9,-5.834 -0.352,-0.97 -0.488,-2.024 -0.696,-3.029 -1.011,2.511 -1.677,4.87 -3.509,6.89l-0.014 -0.001c-1.478,1.7 -2.442,2.542 -3.136,4.679zm-8.189 0.718l0.761 0.316c0.801,0.541 1.902,4.648 -1.293,5.174 -0.975,-0.745 -0.538,-2.329 -1.011,-3.187 -0.107,-0.192 -1.694,-1.658 0.279,-2.432 0.481,-0.187 0.804,-0.036 1.264,0.129l0 0zm32.13 8.878c0.345,0.251 0.245,1.213 0.345,1.679l0.272 0.087 0.216 -3.761c0.086,-1.299 0,-2.713 1.054,-3.646 1.312,0.202 0.875,0.287 1.816,-0.302 1.622,1.515 4.421,3.79 4.644,6.129 -1.414,-1.851 -3.187,-3.724 -4.917,-5.289 -1.744,1.42 -1.555,4.23 -1.887,6.789 -0.23,1.572 0.387,3.144 0.682,4.694 -0.065,3.136 -0.237,6.101 -1.565,8.985 -0.483,-2.274 0.091,-4.352 -1.041,-7.995 -0.215,-1.593 -0.631,-3.028 -1.148,-4.55 -0.094,-0.946 1.528,-2.788 1.529,-2.82zm-6.007 -75.178c-2.8,0.507 -3.387,0.27 -6.143,-1.808 3.353,0.464 3.266,3.35 11.497,-0.948l2.785 -1.421 0.208 0.474 0.323 0.115c-0.546,0.351 -2.031,1.392 -2.613,1.442 -1.952,1.155 -3.839,1.73 -6.057,2.139l0 0.007zm22.622 125.395l0.237 0.244c0.165,-0.266 0.294,-0.381 0.559,-0.546l0.596 0.467 0.445 -0.266c-0.251,4.242 0.036,8.534 0.014,12.782 -0.002,0.957 0.378,4.499 -1.048,4.572 -0.538,-0.158 -0.588,-0.216 -0.954,-0.646 -0.309,-1.306 -0.158,-2.885 -0.172,-4.227 -0.043,-4.127 -0.065,-8.275 0.337,-12.387l-0.014 0.007zm4.313 -45.538c1.486,2.821 2.175,5.448 2.397,8.627l0.581 0.079c0.23,1.571 0.409,4.155 0.065,5.677l0.28 0.029 0.107 -0.84c0.061,1.309 -0.082,0.938 0.496,1.636 0.521,-0.343 1.079,-1.43 1.435,-1.967l0.366 0.094c-0.833,1.787 -2.426,3.359 -4.198,4.162 -0.208,-1.744 -0.74,-3.746 -0.632,-5.483 0.122,-1.873 0.868,-3.466 0.703,-5.404 -0.182,-2.159 -1.6,-5.266 -1.6,-6.61zm-47.712 23.971c0.08,-1.193 -0.001,-6.271 1.048,-6.796 0.617,3.645 0.431,7.406 0.459,11.088 0.013,1.213 0.488,20.409 0.065,21.208 -0.539,1.019 -1.51,0.441 -2.211,0 -0.38,-2.562 0,-5.641 0.05,-8.254l0.596 -17.246 -0.007 0zm-26.145 44.138l2.232 -0.158c1.392,0.71 2.67,1.457 3.186,3.036 1.526,4.689 -2.986,7.39 -4.987,6.732 -1.58,-0.854 -2.706,-1.478 -3.237,-3.287 -0.381,-1.299 -0.445,-2.333 -0.395,-3.675 0.768,-1.141 1.766,-2.383 3.201,-2.648zm67.118 -213.67l2.634 -0.847 -0.223 -0.402 -0.811 0c0,0 -0.179,-0.273 -0.179,-0.273l0.273 -0.445 3.768 0 0.466 0.582c-1.83,0.696 -3.703,1.249 -5.634,1.571l-0.294 -0.186zm-13.737 -41.397l-2.906 -2.024 0.165 -0.416c1.005,-0.392 2.916,0.457 3.337,1.227 0.208,0.38 0.223,0.926 0.23,1.35l-0.826 -0.137zm-47.18 195.635l-0.108 -0.115 2.045 -1.844c-3.131,-1.026 -1.088,-5.336 -0.947,-6.467 0.233,-1.86 0.037,-3.011 -0.129,-4.844 1.243,1.364 1.706,1.961 2.059,3.689 2.147,-0.098 1.857,1.087 2.914,2.117l0.474 0.617c0.093,-1.148 0.481,-2.017 0.983,-3.028 0.301,1.16 1.676,9.065 1.313,9.947 -0.179,0.251 -0.165,0.359 -0.487,0.416 -0.503,-1.442 -1.235,-2.512 -1.45,-4.076l-0.251 0.079c-0.582,2.598 -0.259,4.449 -1.91,6.811 -0.574,0.1 -1.22,0.258 -1.801,0.237 -1.32,-0.047 -1.959,-2.763 -2.705,-3.539zm15.33 -88.771c-3.826,-0.444 -6.338,-2.799 -9.137,-5.182 -1.227,-1.04 -2.433,-1.952 -3.538,-3.135 -1.221,-1.323 -4.652,-5.118 -6.287,-5.835 -1.399,-0.617 -2.906,-0.983 -4.327,-1.608l-10.364 -1.938c-0.394,-0.28 -0.588,-0.315 -1.062,-0.394l0.086 -0.273c1.984,-0.711 9.882,0.905 11.9,1.737 3.437,0.804 7.356,3.509 9.545,6.28l1.45 1.801c4.019,3.588 7.952,8.268 13.815,7.952 1.809,-0.093 3.589,-0.825 5.347,-1.227 -1.995,1.593 -4.938,2.117 -7.428,1.823l0 -0.001zm-36.567 36.085c1.536,-0.803 3.28,-1.327 4.945,-1.844 2.584,-1.414 5.168,-2.512 7.995,-3.345l5.699 -2.311c1.184,-0.502 2.332,-1.069 3.394,-1.801 3.668,-1.938 6.201,-4.909 8.964,-7.916 0.213,-0.443 -0.31,-0.609 1.601,-2.282l1.809 -2.125 -0.079 -0.136c-0.531,0.409 -0.861,0.524 -1.522,0.624l-0.351 -0.344c2.451,-3.012 2.45,-3.367 4.499,-6.818l-0.487 5.009c4.252,-4.252 3.541,-5.744 5.188,-9.495 -0.05,6.567 -2.124,6.947 -3.566,9.538 0.272,0.158 0.516,0.266 0.811,0.38l-0.452 0.073 0.05 0.222c-0.263,0.231 -0.876,0.965 -1.278,0.596 -0.56,0.861 -1.083,1.78 -1.758,2.554 -0.287,1.264 -1.285,2.405 -1.981,3.489 -2.634,4.1 -2.148,3.596 -5.454,7.061 -1.385,1.385 -2.885,2.677 -4.4,3.919 0.799,-1.792 2.8,-3.338 2.943,-3.933 0.028,-0.129 -0.043,-0.617 -0.05,-0.725l2.641 -2.339c0.983,-1.45 2.684,-2.548 3.208,-4.292 -1.787,1.888 -3.524,4.033 -5.562,5.648 -2.225,1.766 -4.923,2.864 -7.507,3.983 -2.462,0.768 -4.73,2.218 -7.112,3.23 -0.395,0.294 -0.747,0.631 -1.256,0.674l-2.426 2.089 -4.099 -0.021c-0.522,0.102 -3.572,1.454 -4.414,0.631l0.007 0.007zm80.561 -121.131c-1.645,0.662 -5.272,-1.818 -4.263,-3.387 0.351,-0.553 0.588,-0.675 1.205,-0.819 1.227,0.503 3.266,1.17 3.862,2.469l0.179 0.539c-0.251,0.402 -0.538,1.019 -0.983,1.198zm-23.268 98.56c-0.926,-1.349 -1.693,-2.038 -3.15,-2.777 -0.761,-0.66 -1.5,-1.084 -2.391,-1.536l-3.322 1.622c-1.393,1.227 -2.548,2.734 -3.74,4.148 -1.507,2.613 -3.222,5.656 -4.069,8.562 -0.301,0.201 -0.667,0.524 -0.998,0.646 -0.107,0 -0.208,-0.072 -0.308,-0.122 0.072,-1.938 0.918,-3.818 1.579,-5.626 0.682,-2.771 2.139,-5.527 3.33,-8.11 1.306,-2.57 3.115,-4.751 4.909,-6.983 0.639,-0.797 1.45,-1.673 2.497,-1.809 4.029,3.529 4.938,7.106 6.201,12.2l-0.545 -0.215 0.007 0zm0.337 63.092c0.941,-1.844 0.991,-3.667 1.12,-5.684 0.888,3.367 0.644,3.613 -0.466,6.323 -0.761,1.923 -1.465,3.273 -1.429,5.39l-0.552 -0.883c-0.416,-0.05 -0.244,-0.007 -0.531,-0.093 0.38,-1.091 0.581,-2.154 0.768,-3.287 0.287,-0.122 0.89,-1.428 1.084,-1.766l0.006 0zm-35.309 -157.418l-0.912 -0.538c-0.431,1.271 -0.868,2.706 -1.693,3.783 -0.252,-0.144 -0.23,-0.201 -0.352,-0.453 0.301,-1.464 0.746,-2.626 1.571,-3.897 1.035,-1.468 3.875,-4.016 5.189,-2.791 0.122,0.114 0.251,0.351 0.345,0.495 -0.718,1.593 -3.194,1.959 -4.148,3.402l0 -0.001z"/>
   </g>
  </g>
  <path fill="none" d="M207.298 27.894c-0.11,-0.063 -0.222,-0.122 -0.337,-0.177 -4.975,-2.38 -9.714,-5.334 -14.858,-7.149 -4.647,-1.639 -11.454,-2.699 -17.288,-4.719 -2.277,-0.789 -4.556,-1.589 -6.82,-2.415l-0.004 -0.03 -9.999 -4.08 -0.175 -0.072c-0.614,-0.28 -1.553,-1.207 -2.512,-1.889 -0.494,-0.369 -0.613,-0.563 -1.038,-0.905 -2.856,-2.299 -5.606,-5.635 -9.574,-5.641 -0.901,-0.002 -1.04,-0.123 -1.779,-0.163l-7.601 -0.17c-5.892,-0.486 -12.055,-0.501 -18.06,-0.477 -5.087,0.02 -9.557,0.063 -14.567,0.477 -2.529,0.209 -4.996,0.029 -7.6,0.17 -0.739,0.04 -0.878,0.161 -1.779,0.163 -3.968,0.006 -6.718,3.342 -9.575,5.641 -0.424,0.342 -0.543,0.536 -1.037,0.905 -0.741,0.527 -1.471,1.2 -2.047,1.608 -0.17,0.121 -0.326,0.218 -0.465,0.281l-10.174 4.152 -0.003 0.03c-2.265,0.826 -4.544,1.626 -6.821,2.415 -5.834,2.02 -12.641,3.08 -17.288,4.719 -5.144,1.815 -9.883,4.769 -14.858,7.149 -0.212,0.101 -0.412,0.215 -0.605,0.339 -0.909,0.583 -1.664,1.379 -2.651,2.001 -11.263,7.099 -18.243,27.467 -21.401,39.215 -1.569,5.839 -1.98,12.983 -2.969,19.04 -0.5,3.067 -1.172,6.193 -1.752,9.253 -0.585,3.095 -0.872,6.493 -1.288,9.631 -0.406,0.268 -0.327,-0.023 -0.308,0.899l-0.065 1.854 0 8.783c0.041,1.018 0.102,1.813 0.186,2.164 1.125,0.477 3.706,0.514 5.07,0.712 7.662,1.114 9.041,0.828 15.791,1.554l21.547 1.349c-0.015,-1.623 0.547,-10.725 0.578,-13.424l-0.603 -0.316 -0.07 -0.036c0,-4.476 -0.011,-9.226 -0.011,-13.7 1.678,4.247 3.328,18.944 3.789,24.023 0.735,8.116 1.826,16.186 2.512,24.347 0.348,4.137 0.874,8.269 1.009,12.419l0.653 12.776c0.396,4.199 0.208,8.934 0.274,13.179 0.032,2.062 0.194,4.007 0.186,6.13 -0.007,2.226 -0.172,4.349 -0.196,6.512 -0.051,4.469 -0.054,8.634 -0.319,13.111 -0.68,11.475 -1.257,26.076 -3.267,37.02 -0.966,5.407 -2.177,11.944 -2.754,17.389 -0.258,2.432 -0.827,10.057 -1.468,11.951 -0.68,2.01 -0.163,3.658 -0.568,5.77 -0.342,1.785 -0.742,3.812 -1.164,5.568 -0.463,1.93 -1.435,3.647 0.397,4.966 4.276,1.054 8.552,2.108 13.913,3.017 5.36,0.909 11.804,1.672 18.03,2.048 6.226,0.375 12.232,0.363 21.568,0.476 9.335,0.112 21.999,0.351 32.523,0.382 10.525,0.032 18.909,-0.144 26.242,-0.419 7.333,-0.275 13.615,-0.65 19.058,-1.151 5.443,-0.501 10.048,-1.126 13.829,-1.873 3.78,-0.746 6.736,-1.613 9.693,-2.48 1.832,-1.319 0.86,-3.036 0.397,-4.966 -0.422,-1.756 -0.822,-3.783 -1.164,-5.568 -0.405,-2.112 0.112,-3.76 -0.568,-5.77 -0.641,-1.894 -1.21,-9.519 -1.468,-11.951 -0.577,-5.445 -1.788,-11.982 -2.754,-17.389 -2.01,-10.944 -2.587,-25.545 -3.267,-37.02 -0.265,-4.477 -0.268,-8.642 -0.319,-13.111 -0.024,-2.163 -0.189,-4.286 -0.196,-6.512 -0.008,-2.123 0.154,-4.068 0.186,-6.13 0.066,-4.245 -0.122,-8.98 0.274,-13.179l0.653 -12.776c0.135,-4.15 0.661,-8.282 1.009,-12.419 0.686,-8.161 1.777,-16.231 2.512,-24.347 0.461,-5.079 1.889,-19.043 3.568,-23.29 0,4.474 -0.105,8.584 -0.105,13.06l0 0 -0.416 0.247c-0.004,0.882 0.338,12.091 0.604,13.423l21.579 -1.336c6.75,-0.726 8.129,-0.44 15.791,-1.554 1.364,-0.198 3.945,-0.235 5.07,-0.712 0.084,-0.351 0.145,-1.146 0.186,-2.164l0 -8.783 -0.065 -1.854c0.014,-0.687 0.062,-0.7 -0.083,-0.774 -0.05,-0.025 -0.122,-0.057 -0.225,-0.125 -0.416,-3.138 -0.703,-6.536 -1.288,-9.631 -0.58,-3.06 -1.252,-6.186 -1.752,-9.253 -0.989,-6.057 -1.4,-13.201 -2.969,-19.04 -3.158,-11.748 -10.138,-32.116 -21.401,-39.215 -1.057,-0.665 -1.895,-1.576 -2.919,-2.163z"/>
 </g>
</svg>
