<?xml version="1.0" encoding="UTF-8"?>
<!DOCTYPE svg PUBLIC "-//W3C//DTD SVG 1.1//EN" "http://www.w3.org/Graphics/SVG/1.1/DTD/svg11.dtd">
<!-- Creator: CorelDRAW -->
<svg xmlns="http://www.w3.org/2000/svg" xml:space="preserve" width="238px" height="298px" version="1.1" shape-rendering="geometricPrecision" text-rendering="geometricPrecision" image-rendering="optimizeQuality" fill-rule="evenodd" clip-rule="evenodd"
viewBox="0 0 238 298.123"
 xmlns:xlink="http://www.w3.org/1999/xlink"
 xmlns:xodm="http://www.corel.com/coreldraw/odm/2003">
 <defs>
   <clipPath id="id0">
    <path d="M207.298 27.894c-0.11,-0.063 -0.222,-0.122 -0.337,-0.177 -4.975,-2.38 -9.714,-5.334 -14.858,-7.149 -4.647,-1.639 -11.454,-2.699 -17.288,-4.719 -2.277,-0.789 -4.556,-1.589 -6.82,-2.415l-0.004 -0.03 -9.999 -4.08 -0.175 -0.072c-0.614,-0.28 -1.553,-1.207 -2.512,-1.889 -0.494,-0.369 -0.613,-0.563 -1.038,-0.905 -2.856,-2.299 -5.606,-5.635 -9.574,-5.641 -0.901,-0.002 -1.04,-0.123 -1.779,-0.163l-7.601 -0.17c-5.892,-0.486 -12.055,-0.501 -18.06,-0.477 -5.087,0.02 -9.557,0.063 -14.567,0.477 -2.529,0.209 -4.996,0.029 -7.6,0.17 -0.739,0.04 -0.878,0.161 -1.779,0.163 -3.968,0.006 -6.718,3.342 -9.575,5.641 -0.424,0.342 -0.543,0.536 -1.037,0.905 -0.741,0.527 -1.471,1.2 -2.047,1.608 -0.17,0.121 -0.326,0.218 -0.465,0.281l-10.174 4.152 -0.003 0.03c-2.265,0.826 -4.544,1.626 -6.821,2.415 -5.834,2.02 -12.641,3.08 -17.288,4.719 -5.144,1.815 -9.883,4.769 -14.858,7.149 -0.212,0.101 -0.412,0.215 -0.605,0.339 -0.909,0.583 -1.664,1.379 -2.651,2.001 -11.263,7.099 -18.243,27.467 -21.401,39.215 -1.569,5.839 -1.98,12.983 -2.969,19.04 -0.5,3.067 -1.172,6.193 -1.752,9.253 -0.585,3.095 -0.872,6.493 -1.288,9.631 -0.406,0.268 -0.327,-0.023 -0.308,0.899l-0.065 1.854 0 8.783c0.041,1.018 0.102,1.813 0.186,2.164 1.125,0.477 3.706,0.514 5.07,0.712 7.662,1.114 9.041,0.828 15.791,1.554l21.547 1.349c-0.015,-1.623 0.547,-10.725 0.578,-13.424l-0.603 -0.316 -0.07 -0.036c0,-4.476 -0.011,-9.226 -0.011,-13.7 1.678,4.247 3.328,18.944 3.789,24.023 0.735,8.116 1.826,16.186 2.512,24.347 0.348,4.137 0.874,8.269 1.009,12.419l0.653 12.776c0.396,4.199 0.208,8.934 0.274,13.179 0.032,2.062 0.194,4.007 0.186,6.13 -0.007,2.226 -0.172,4.349 -0.196,6.512 -0.051,4.469 -0.054,8.634 -0.319,13.111 -0.68,11.475 -1.257,26.076 -3.267,37.02 -0.966,5.407 -2.177,11.944 -2.754,17.389 -0.258,2.432 -0.827,10.057 -1.468,11.951 -0.68,2.01 -0.163,3.658 -0.568,5.77 -0.342,1.785 -0.742,3.812 -1.164,5.568 -0.463,1.93 -1.435,3.647 0.397,4.966 4.276,1.054 8.552,2.108 13.913,3.017 5.36,0.909 11.804,1.672 18.03,2.048 6.226,0.375 12.232,0.363 21.568,0.476 9.335,0.112 21.999,0.351 32.523,0.382 10.525,0.032 18.909,-0.144 26.242,-0.419 7.333,-0.275 13.615,-0.65 19.058,-1.151 5.443,-0.501 10.048,-1.126 13.829,-1.873 3.78,-0.746 6.736,-1.613 9.693,-2.48 1.832,-1.319 0.86,-3.036 0.397,-4.966 -0.422,-1.756 -0.822,-3.783 -1.164,-5.568 -0.405,-2.112 0.112,-3.76 -0.568,-5.77 -0.641,-1.894 -1.21,-9.519 -1.468,-11.951 -0.577,-5.445 -1.788,-11.982 -2.754,-17.389 -2.01,-10.944 -2.587,-25.545 -3.267,-37.02 -0.265,-4.477 -0.268,-8.642 -0.319,-13.111 -0.024,-2.163 -0.189,-4.286 -0.196,-6.512 -0.008,-2.123 0.154,-4.068 0.186,-6.13 0.066,-4.245 -0.122,-8.98 0.274,-13.179l0.653 -12.776c0.135,-4.15 0.661,-8.282 1.009,-12.419 0.686,-8.161 1.777,-16.231 2.512,-24.347 0.461,-5.079 1.889,-19.043 3.568,-23.29 0,4.474 -0.105,8.584 -0.105,13.06l0 0 -0.416 0.247c-0.004,0.882 0.338,12.091 0.604,13.423l21.579 -1.336c6.75,-0.726 8.129,-0.44 15.791,-1.554 1.364,-0.198 3.945,-0.235 5.07,-0.712 0.084,-0.351 0.145,-1.146 0.186,-2.164l0 -8.783 -0.065 -1.854c0.014,-0.687 0.062,-0.7 -0.083,-0.774 -0.05,-0.025 -0.122,-0.057 -0.225,-0.125 -0.416,-3.138 -0.703,-6.536 -1.288,-9.631 -0.58,-3.06 -1.252,-6.186 -1.752,-9.253 -0.989,-6.057 -1.4,-13.201 -2.969,-19.04 -3.158,-11.748 -10.138,-32.116 -21.401,-39.215 -1.057,-0.665 -1.895,-1.576 -2.919,-2.163z"/>
   </clipPath>
    <clipPath id="id1">
     <path d="M195.291 97.768c-0.085,-0.928 -0.17,-1.856 -0.308,-2.718 -0.137,-0.863 -0.329,-1.661 -0.099,-3.18 0.23,-1.519 0.881,-3.758 1.681,-6.311 0.801,-2.553 1.752,-5.418 2.565,-9.742 0.813,-4.323 1.489,-10.104 2.278,-15.986 0.788,-5.881 1.689,-11.863 2.652,-16.318 0.964,-4.454 1.99,-7.383 2.541,-9.31 0.55,-1.927 0.626,-2.853 0.663,-4.067 0.021,-0.674 0.03,-1.438 0.034,-2.242 -0.11,-0.063 -0.222,-0.122 -0.337,-0.177 -4.975,-2.38 -9.714,-5.334 -14.858,-7.149 -4.647,-1.639 -11.454,-2.699 -17.288,-4.719 -2.277,-0.789 -4.556,-1.589 -6.82,-2.415l-0.004 -0.03 -9.999 -4.08 -0.175 -0.072c-0.614,-0.28 -1.553,-1.207 -2.512,-1.889 -0.494,-0.369 -0.613,-0.563 -1.038,-0.905 -2.856,-2.299 -5.606,-5.635 -9.574,-5.641 -0.901,-0.002 -1.04,-0.123 -1.779,-0.163l-7.601 -0.17c-5.892,-0.486 -12.055,-0.501 -18.06,-0.477 -5.087,0.02 -9.557,0.063 -14.567,0.477 -2.529,0.209 -4.996,0.029 -7.6,0.17 -0.739,0.04 -0.878,0.161 -1.779,0.163 -3.968,0.006 -6.718,3.342 -9.575,5.641 -0.424,0.342 -0.543,0.536 -1.037,0.905 -0.741,0.527 -1.471,1.2 -2.047,1.608 -0.17,0.121 -0.326,0.218 -0.465,0.281l-10.174 4.152 -0.003 0.03c-2.265,0.826 -4.544,1.626 -6.821,2.415 -5.834,2.02 -12.641,3.08 -17.288,4.719 -5.144,1.815 -9.883,4.769 -14.858,7.149 -0.212,0.101 -0.412,0.215 -0.605,0.339 0.121,0.721 0.248,1.443 0.383,2.165 0.438,2.34 0.963,4.693 1.752,8.597 0.788,3.904 1.839,9.36 2.815,15.624 0.976,6.262 1.877,13.332 3.034,19.705 1.157,6.372 2.57,12.047 3.374,15.175 0.803,3.129 0.998,3.71 1.026,4.321 0.028,0.61 -0.11,1.248 -0.192,1.818 -0.083,0.57 -0.11,1.072 -0.138,1.574 1.678,4.247 3.328,18.944 3.789,24.023 0.735,8.116 1.826,16.186 2.512,24.347 0.348,4.137 0.874,8.269 1.009,12.419l0.653 12.776c0.396,4.199 0.208,8.934 0.274,13.179 0.032,2.062 0.194,4.007 0.186,6.13 -0.007,2.226 -0.172,4.349 -0.196,6.512 -0.051,4.469 -0.054,8.634 -0.319,13.111 -0.68,11.475 -1.257,26.076 -3.267,37.02 -0.966,5.407 -2.177,11.944 -2.754,17.389 -0.258,2.432 -0.827,10.057 -1.468,11.951 -0.68,2.01 -0.163,3.658 -0.568,5.77 -0.342,1.785 -0.742,3.812 -1.164,5.568 -0.463,1.93 -1.435,3.647 0.397,4.966 4.276,1.054 8.552,2.108 13.913,3.017 5.36,0.909 11.804,1.672 18.03,2.048 6.226,0.375 12.232,0.363 21.568,0.476 9.335,0.112 21.999,0.351 32.523,0.382 10.525,0.032 18.909,-0.144 26.242,-0.419 7.333,-0.275 13.615,-0.65 19.058,-1.151 5.443,-0.501 10.048,-1.126 13.829,-1.873 3.78,-0.746 6.736,-1.613 9.693,-2.48 1.832,-1.319 0.86,-3.036 0.397,-4.966 -0.422,-1.756 -0.822,-3.783 -1.164,-5.568 -0.405,-2.112 0.112,-3.76 -0.568,-5.77 -0.641,-1.894 -1.21,-9.519 -1.468,-11.951 -0.577,-5.445 -1.788,-11.982 -2.754,-17.389 -2.01,-10.944 -2.587,-25.545 -3.267,-37.02 -0.265,-4.477 -0.268,-8.642 -0.319,-13.111 -0.024,-2.163 -0.189,-4.286 -0.196,-6.512 -0.008,-2.123 0.154,-4.068 0.186,-6.13 0.066,-4.245 -0.122,-8.98 0.274,-13.179l0.653 -12.776c0.135,-4.15 0.661,-8.282 1.009,-12.419 0.686,-8.161 1.777,-16.231 2.512,-24.347 0.461,-5.079 1.889,-19.043 3.568,-23.29z"/>
    </clipPath>
    <clipPath id="id2">
     <path d="M207.298 27.894c-0.11,-0.063 -0.222,-0.122 -0.337,-0.177 -4.975,-2.38 -9.714,-5.334 -14.858,-7.149 -4.647,-1.639 -11.454,-2.699 -17.288,-4.719 -2.277,-0.789 -4.556,-1.589 -6.82,-2.415l-0.004 -0.03 -9.999 -4.08 -0.175 -0.072c-0.614,-0.28 -1.553,-1.207 -2.512,-1.889 -0.494,-0.369 -0.613,-0.563 -1.038,-0.905 -2.856,-2.299 -5.606,-5.635 -9.574,-5.641 -0.901,-0.002 -1.04,-0.123 -1.779,-0.163l-7.601 -0.17c-5.892,-0.486 -12.055,-0.501 -18.06,-0.477 -5.087,0.02 -9.557,0.063 -14.567,0.477 -2.529,0.209 -4.996,0.029 -7.6,0.17 -0.739,0.04 -0.878,0.161 -1.779,0.163 -3.968,0.006 -6.718,3.342 -9.575,5.641 -0.424,0.342 -0.543,0.536 -1.037,0.905 -0.741,0.527 -1.471,1.2 -2.047,1.608 -0.17,0.121 -0.326,0.218 -0.465,0.281l-10.174 4.152 -0.003 0.03c-2.265,0.826 -4.544,1.626 -6.821,2.415 -5.834,2.02 -12.641,3.08 -17.288,4.719 -5.144,1.815 -9.883,4.769 -14.858,7.149 -0.212,0.101 -0.412,0.215 -0.605,0.339 -0.909,0.583 -1.664,1.379 -2.651,2.001 -11.263,7.099 -18.243,27.467 -21.401,39.215 -1.569,5.839 -1.98,12.983 -2.969,19.04 -0.5,3.067 -1.172,6.193 -1.752,9.253 -0.585,3.095 -0.872,6.493 -1.288,9.631 -0.406,0.268 -0.327,-0.023 -0.308,0.899l-0.065 1.854 0 8.783c0.041,1.018 0.102,1.813 0.186,2.164 1.125,0.477 3.706,0.514 5.07,0.712 7.662,1.114 9.041,0.828 15.791,1.554l21.547 1.349c-0.015,-1.623 0.547,-10.725 0.578,-13.424l-0.603 -0.316 -0.07 -0.036c0,-4.476 -0.011,-9.226 -0.011,-13.7 1.678,4.247 3.328,18.944 3.789,24.023 0.735,8.116 1.826,16.186 2.512,24.347 0.348,4.137 0.874,8.269 1.009,12.419l0.653 12.776c0.396,4.199 0.208,8.934 0.274,13.179 0.032,2.062 0.194,4.007 0.186,6.13 -0.007,2.226 -0.172,4.349 -0.196,6.512 -0.051,4.469 -0.054,8.634 -0.319,13.111 -0.68,11.475 -1.257,26.076 -3.267,37.02 -0.966,5.407 -2.177,11.944 -2.754,17.389 -0.258,2.432 -0.827,10.057 -1.468,11.951 -0.68,2.01 -0.163,3.658 -0.568,5.77 -0.342,1.785 -0.742,3.812 -1.164,5.568 -0.463,1.93 -1.435,3.647 0.397,4.966 4.276,1.054 8.552,2.108 13.913,3.017 5.36,0.909 11.804,1.672 18.03,2.048 6.226,0.375 12.232,0.363 21.568,0.476 9.335,0.112 21.999,0.351 32.523,0.382 10.525,0.032 18.909,-0.144 26.242,-0.419 7.333,-0.275 13.615,-0.65 19.058,-1.151 5.443,-0.501 10.048,-1.126 13.829,-1.873 3.78,-0.746 6.736,-1.613 9.693,-2.48 1.832,-1.319 0.86,-3.036 0.397,-4.966 -0.422,-1.756 -0.822,-3.783 -1.164,-5.568 -0.405,-2.112 0.112,-3.76 -0.568,-5.77 -0.641,-1.894 -1.21,-9.519 -1.468,-11.951 -0.577,-5.445 -1.788,-11.982 -2.754,-17.389 -2.01,-10.944 -2.587,-25.545 -3.267,-37.02 -0.265,-4.477 -0.268,-8.642 -0.319,-13.111 -0.024,-2.163 -0.189,-4.286 -0.196,-6.512 -0.008,-2.123 0.154,-4.068 0.186,-6.13 0.066,-4.245 -0.122,-8.98 0.274,-13.179l0.653 -12.776c0.135,-4.15 0.661,-8.282 1.009,-12.419 0.686,-8.161 1.777,-16.231 2.512,-24.347 0.461,-5.079 1.889,-19.043 3.568,-23.29 0,4.474 -0.105,8.584 -0.105,13.06l0 0 -0.416 0.247c-0.004,0.882 0.338,12.091 0.604,13.423l21.579 -1.336c6.75,-0.726 8.129,-0.44 15.791,-1.554 1.364,-0.198 3.945,-0.235 5.07,-0.712 0.084,-0.351 0.145,-1.146 0.186,-2.164l0 -8.783 -0.065 -1.854c0.014,-0.687 0.062,-0.7 -0.083,-0.774 -0.05,-0.025 -0.122,-0.057 -0.225,-0.125 -0.416,-3.138 -0.703,-6.536 -1.288,-9.631 -0.58,-3.06 -1.252,-6.186 -1.752,-9.253 -0.989,-6.057 -1.4,-13.201 -2.969,-19.04 -3.158,-11.748 -10.138,-32.116 -21.401,-39.215 -1.057,-0.665 -1.895,-1.576 -2.919,-2.163z"/>
    </clipPath>
    <clipPath id="id3">
     <path d="M42.488 97.035c0.028,-0.502 0.055,-1.004 0.138,-1.574 0.082,-0.57 0.22,-1.208 0.192,-1.818 -0.028,-0.611 -0.223,-1.192 -1.026,-4.321 -0.804,-3.128 -2.217,-8.803 -3.374,-15.175 -1.157,-6.373 -2.058,-13.443 -3.034,-19.705 -0.976,-6.264 -2.027,-11.72 -2.815,-15.624 -0.789,-3.904 -1.314,-6.257 -1.752,-8.597 -0.135,-0.722 -0.262,-1.444 -0.383,-2.165 -0.909,0.583 -1.664,1.379 -2.651,2.001 -11.263,7.099 -18.243,27.467 -21.401,39.215 -1.569,5.839 -1.98,12.983 -2.969,19.04 -0.5,3.067 -1.172,6.193 -1.752,9.253 -0.585,3.095 -0.872,6.493 -1.288,9.631 0.744,0.196 1.489,0.392 4.426,0.672 2.938,0.279 8.068,0.642 13.143,1.005 5.074,0.363 10.092,0.726 13.996,1.045 3.905,0.319 6.695,0.595 8.372,0.73l0.055 0.004 0.053 0.004 0.053 0.004 0.052 0.004 0.051 0.004 0.051 0.004 0.05 0.004 0.048 0.004 0.001 0 0.048 0.003 0.048 0.004 0.046 0.003 0.047 0.003 0.045 0.004 0.045 0.003 0.044 0.003 0.044 0.003 0.042 0.003 0.043 0.003 0.041 0.002 0.041 0.003 0 0 0.041 0.002 0.039 0.003 0.039 0.002 0.001 0 0.038 0.003 0.038 0.002 0.037 0.002 0 0 0.037 0.002 0.036 0.002 0.036 0.002 0 0 0.035 0.002 0 0 0.035 0.002 0 0 0.034 0.002 0 0 0.033 0.002 0.033 0.001 0.001 0 0.032 0.002 0.032 0.002 0 0 0.031 0.001 0.001 0 0.031 0.001 0 0 0.03 0.002 0.001 0 0.029 0.001 0.001 0 0.029 0.001 0 0 0.029 0.002 0.001 0 0.028 0 0.001 0 0.028 0.002 0.028 0.001 0 0 0.028 0 0 0 0.027 0.001 0 0 0.027 0.001 0.026 0.001 0.001 0 0.025 0.001 0.001 0 0.025 0.001 0 0 0.025 0 0.001 0 0.025 0.001 0 0 0.024 0 0.001 0 0.024 0.001 0 0 0.024 0.001 0 0 0.023 0 0.001 0 0.023 0 0 0 0.023 0.001 0.001 0 0.022 0 0.001 0 0.022 0.001 0 0 0.022 0 0 0 0.022 0 0.001 0 0.021 0 0 0 -42.196 -3.575c-0.406,0.268 -0.327,-0.023 -0.308,0.899l-0.065 1.854 0 8.783c0.041,1.018 0.102,1.813 0.186,2.164 1.125,0.477 3.706,0.514 5.07,0.712 7.662,1.114 9.041,0.828 15.791,1.554l21.547 1.349c-0.015,-1.623 0.547,-10.725 0.578,-13.424l-0.603 -0.316 0 0 -0.07 -0.036c0,-4.476 -0.011,-9.226 -0.011,-13.7zm152.698 13.793l0 0 -0.416 0.247c-0.004,0.882 0.338,12.091 0.604,13.423l21.579 -1.336c6.75,-0.726 8.129,-0.44 15.791,-1.554 1.364,-0.198 3.945,-0.235 5.07,-0.712 0.084,-0.351 0.145,-1.146 0.186,-2.164l0 -8.783 -0.065 -1.854c0.014,-0.687 0.062,-0.7 -0.083,-0.774 -0.05,-0.025 -0.122,-0.057 -0.225,-0.125 -0.416,-3.138 -0.703,-6.536 -1.288,-9.631 -0.58,-3.06 -1.252,-6.186 -1.752,-9.253 -0.989,-6.057 -1.4,-13.201 -2.969,-19.04 -3.158,-11.748 -10.138,-32.116 -21.401,-39.215 -1.057,-0.665 -1.895,-1.576 -2.919,-2.163 -0.004,0.804 -0.013,1.568 -0.034,2.242 -0.037,1.214 -0.113,2.14 -0.663,4.067 -0.551,1.927 -1.577,4.856 -2.541,9.31 -0.963,4.455 -1.864,10.437 -2.652,16.318 -0.789,5.882 -1.465,11.663 -2.278,15.986 -0.813,4.324 -1.764,7.189 -2.565,9.742 -0.8,2.553 -1.451,4.792 -1.681,6.311 -0.23,1.519 -0.038,2.317 0.099,3.18 0.138,0.862 0.223,1.79 0.308,2.718 0,4.474 -0.105,8.584 -0.105,13.06z"/>
    </clipPath>
    <clipPath id="id4">
     <path d="M207.298 27.894c-0.11,-0.063 -0.222,-0.122 -0.337,-0.177 -4.975,-2.38 -9.714,-5.334 -14.858,-7.149 -4.647,-1.639 -11.454,-2.699 -17.288,-4.719 -2.277,-0.789 -4.556,-1.589 -6.82,-2.415l-0.004 -0.03 -9.999 -4.08 -0.175 -0.072c-0.614,-0.28 -1.553,-1.207 -2.512,-1.889 -0.494,-0.369 -0.613,-0.563 -1.038,-0.905 -2.856,-2.299 -5.606,-5.635 -9.574,-5.641 -0.901,-0.002 -1.04,-0.123 -1.779,-0.163l-7.601 -0.17c-5.892,-0.486 -12.055,-0.501 -18.06,-0.477 -5.087,0.02 -9.557,0.063 -14.567,0.477 -2.529,0.209 -4.996,0.029 -7.6,0.17 -0.739,0.04 -0.878,0.161 -1.779,0.163 -3.968,0.006 -6.718,3.342 -9.575,5.641 -0.424,0.342 -0.543,0.536 -1.037,0.905 -0.741,0.527 -1.471,1.2 -2.047,1.608 -0.17,0.121 -0.326,0.218 -0.465,0.281l-10.174 4.152 -0.003 0.03c-2.265,0.826 -4.544,1.626 -6.821,2.415 -5.834,2.02 -12.641,3.08 -17.288,4.719 -5.144,1.815 -9.883,4.769 -14.858,7.149 -0.212,0.101 -0.412,0.215 -0.605,0.339 -0.909,0.583 -1.664,1.379 -2.651,2.001 -11.263,7.099 -18.243,27.467 -21.401,39.215 -1.569,5.839 -1.98,12.983 -2.969,19.04 -0.5,3.067 -1.172,6.193 -1.752,9.253 -0.585,3.095 -0.872,6.493 -1.288,9.631 -0.406,0.268 -0.327,-0.023 -0.308,0.899l-0.065 1.854 0 8.783c0.041,1.018 0.102,1.813 0.186,2.164 1.125,0.477 3.706,0.514 5.07,0.712 7.662,1.114 9.041,0.828 15.791,1.554l21.547 1.349c-0.015,-1.623 0.547,-10.725 0.578,-13.424l-0.603 -0.316 -0.07 -0.036c0,-4.476 -0.011,-9.226 -0.011,-13.7 1.678,4.247 3.328,18.944 3.789,24.023 0.735,8.116 1.826,16.186 2.512,24.347 0.348,4.137 0.874,8.269 1.009,12.419l0.653 12.776c0.396,4.199 0.208,8.934 0.274,13.179 0.032,2.062 0.194,4.007 0.186,6.13 -0.007,2.226 -0.172,4.349 -0.196,6.512 -0.051,4.469 -0.054,8.634 -0.319,13.111 -0.68,11.475 -1.257,26.076 -3.267,37.02 -0.966,5.407 -2.177,11.944 -2.754,17.389 -0.258,2.432 -0.827,10.057 -1.468,11.951 -0.68,2.01 -0.163,3.658 -0.568,5.77 -0.342,1.785 -0.742,3.812 -1.164,5.568 -0.463,1.93 -1.435,3.647 0.397,4.966 4.276,1.054 8.552,2.108 13.913,3.017 5.36,0.909 11.804,1.672 18.03,2.048 6.226,0.375 12.232,0.363 21.568,0.476 9.335,0.112 21.999,0.351 32.523,0.382 10.525,0.032 18.909,-0.144 26.242,-0.419 7.333,-0.275 13.615,-0.65 19.058,-1.151 5.443,-0.501 10.048,-1.126 13.829,-1.873 3.78,-0.746 6.736,-1.613 9.693,-2.48 1.832,-1.319 0.86,-3.036 0.397,-4.966 -0.422,-1.756 -0.822,-3.783 -1.164,-5.568 -0.405,-2.112 0.112,-3.76 -0.568,-5.77 -0.641,-1.894 -1.21,-9.519 -1.468,-11.951 -0.577,-5.445 -1.788,-11.982 -2.754,-17.389 -2.01,-10.944 -2.587,-25.545 -3.267,-37.02 -0.265,-4.477 -0.268,-8.642 -0.319,-13.111 -0.024,-2.163 -0.189,-4.286 -0.196,-6.512 -0.008,-2.123 0.154,-4.068 0.186,-6.13 0.066,-4.245 -0.122,-8.98 0.274,-13.179l0.653 -12.776c0.135,-4.15 0.661,-8.282 1.009,-12.419 0.686,-8.161 1.777,-16.231 2.512,-24.347 0.461,-5.079 1.889,-19.043 3.568,-23.29 0,4.474 -0.105,8.584 -0.105,13.06l0 0 -0.416 0.247c-0.004,0.882 0.338,12.091 0.604,13.423l21.579 -1.336c6.75,-0.726 8.129,-0.44 15.791,-1.554 1.364,-0.198 3.945,-0.235 5.07,-0.712 0.084,-0.351 0.145,-1.146 0.186,-2.164l0 -8.783 -0.065 -1.854c0.014,-0.687 0.062,-0.7 -0.083,-0.774 -0.05,-0.025 -0.122,-0.057 -0.225,-0.125 -0.416,-3.138 -0.703,-6.536 -1.288,-9.631 -0.58,-3.06 -1.252,-6.186 -1.752,-9.253 -0.989,-6.057 -1.4,-13.201 -2.969,-19.04 -3.158,-11.748 -10.138,-32.116 -21.401,-39.215 -1.057,-0.665 -1.895,-1.576 -2.919,-2.163z"/>
    </clipPath>
 </defs>
 <g id="VETORES">
  <metadata id="CorelCorpID_0Corel-Layer"/>
  <g>
  </g>
  <g clip-path="url(#id0)">
   <g id="_1763328841104">
    <g>
    </g>
   </g>
   <g clip-path="url(#id1)">
   </g>
   <g clip-path="url(#id2)">
    <path id="torso" fill="none" d="M195.291 97.768c-0.085,-0.928 -0.17,-1.856 -0.308,-2.718 -0.137,-0.863 -0.329,-1.661 -0.099,-3.18 0.23,-1.519 0.881,-3.758 1.681,-6.311 0.801,-2.553 1.752,-5.418 2.565,-9.742 0.813,-4.323 1.489,-10.104 2.278,-15.986 0.788,-5.881 1.689,-11.863 2.652,-16.318 0.964,-4.454 1.99,-7.383 2.541,-9.31 0.55,-1.927 0.626,-2.853 0.663,-4.067 0.021,-0.674 0.03,-1.438 0.034,-2.242 -0.11,-0.063 -0.222,-0.122 -0.337,-0.177 -4.975,-2.38 -9.714,-5.334 -14.858,-7.149 -4.647,-1.639 -11.454,-2.699 -17.288,-4.719 -2.277,-0.789 -4.556,-1.589 -6.82,-2.415l-0.004 -0.03 -9.999 -4.08 -0.175 -0.072c-0.614,-0.28 -1.553,-1.207 -2.512,-1.889 -0.494,-0.369 -0.613,-0.563 -1.038,-0.905 -2.856,-2.299 -5.606,-5.635 -9.574,-5.641 -0.901,-0.002 -1.04,-0.123 -1.779,-0.163l-7.601 -0.17c-5.892,-0.486 -12.055,-0.501 -18.06,-0.477 -5.087,0.02 -9.557,0.063 -14.567,0.477 -2.529,0.209 -4.996,0.029 -7.6,0.17 -0.739,0.04 -0.878,0.161 -1.779,0.163 -3.968,0.006 -6.718,3.342 -9.575,5.641 -0.424,0.342 -0.543,0.536 -1.037,0.905 -0.741,0.527 -1.471,1.2 -2.047,1.608 -0.17,0.121 -0.326,0.218 -0.465,0.281l-10.174 4.152 -0.003 0.03c-2.265,0.826 -4.544,1.626 -6.821,2.415 -5.834,2.02 -12.641,3.08 -17.288,4.719 -5.144,1.815 -9.883,4.769 -14.858,7.149 -0.212,0.101 -0.412,0.215 -0.605,0.339 0.121,0.721 0.248,1.443 0.383,2.165 0.438,2.34 0.963,4.693 1.752,8.597 0.788,3.904 1.839,9.36 2.815,15.624 0.976,6.262 1.877,13.332 3.034,19.705 1.157,6.372 2.57,12.047 3.374,15.175 0.803,3.129 0.998,3.71 1.026,4.321 0.028,0.61 -0.11,1.248 -0.192,1.818 -0.083,0.57 -0.11,1.072 -0.138,1.574 1.678,4.247 3.328,18.944 3.789,24.023 0.735,8.116 1.826,16.186 2.512,24.347 0.348,4.137 0.874,8.269 1.009,12.419l0.653 12.776c0.396,4.199 0.208,8.934 0.274,13.179 0.032,2.062 0.194,4.007 0.186,6.13 -0.007,2.226 -0.172,4.349 -0.196,6.512 -0.051,4.469 -0.054,8.634 -0.319,13.111 -0.68,11.475 -1.257,26.076 -3.267,37.02 -0.966,5.407 -2.177,11.944 -2.754,17.389 -0.258,2.432 -0.827,10.057 -1.468,11.951 -0.68,2.01 -0.163,3.658 -0.568,5.77 -0.342,1.785 -0.742,3.812 -1.164,5.568 -0.463,1.93 -1.435,3.647 0.397,4.966 4.276,1.054 8.552,2.108 13.913,3.017 5.36,0.909 11.804,1.672 18.03,2.048 6.226,0.375 12.232,0.363 21.568,0.476 9.335,0.112 21.999,0.351 32.523,0.382 10.525,0.032 18.909,-0.144 26.242,-0.419 7.333,-0.275 13.615,-0.65 19.058,-1.151 5.443,-0.501 10.048,-1.126 13.829,-1.873 3.78,-0.746 6.736,-1.613 9.693,-2.48 1.832,-1.319 0.86,-3.036 0.397,-4.966 -0.422,-1.756 -0.822,-3.783 -1.164,-5.568 -0.405,-2.112 0.112,-3.76 -0.568,-5.77 -0.641,-1.894 -1.21,-9.519 -1.468,-11.951 -0.577,-5.445 -1.788,-11.982 -2.754,-17.389 -2.01,-10.944 -2.587,-25.545 -3.267,-37.02 -0.265,-4.477 -0.268,-8.642 -0.319,-13.111 -0.024,-2.163 -0.189,-4.286 -0.196,-6.512 -0.008,-2.123 0.154,-4.068 0.186,-6.13 0.066,-4.245 -0.122,-8.98 0.274,-13.179l0.653 -12.776c0.135,-4.15 0.661,-8.282 1.009,-12.419 0.686,-8.161 1.777,-16.231 2.512,-24.347 0.461,-5.079 1.889,-19.043 3.568,-23.29z"/>
    <g>
    </g>
   </g>
   <g clip-path="url(#id3)">
    <g>
     <path id="_2" fill="#04003E" fill-rule="nonzero" d="M236.993 145.679l-12.271 -11.814 6.528 -2.945 -9.947 -7.309 1.214 -8.383 9.826 -3.334 23.688 11.603 -3.116 2.831 -8.195 -1.016 -1.762 -2.66 -5.42 7.886 3.165 10.763 -3.71 4.378zm39.39 6.232c-0.044,-0.479 -4.834,-28.764 -4.834,-28.764l4.434 -1.703 4.524 3.938 -0.813 5.24 8.257 4.964 3.705 -1.15 17.059 4.59 11.587 -4.907 7.692 -17.014 -8.427 -8.659 0.074 -1.057 17.543 13.544 3.413 -7.096c0,0 6.096,5.004 6.353,4.98 0.258,-0.024 -8.993,6.725 -8.993,6.725l-8.471 -0.747 -2.094 5.44 4.011 11.491c-0.987,0.575 -4.24,1.926 -4.24,1.926l0.012 5.728 -7.055 -9.755 -1.872 1.303 -0.896 12.752 -40.969 -1.769 0 0zm-86.562 -46.179l1.199 -4.589 41.17 0.437c0,0 -8.251,1.411 -8.337,1.419 -0.086,0.008 14.817,4.234 14.817,4.234l2.343 -1.346 -6.32 -4.619 21.207 -14.797 -7.052 -2.463 0.021 -0.819 -0.881 -2.259 -14.271 -5.576 24.466 3.884 2.054 -1.673 -36.998 -19.435 -5.016 1.029 0.984 0.796 -0.725 1.763 9.857 3.765 1.777 4.436 -18.886 9.589 0.65 1.06 -0.617 1.752 -0.793 -0.138 0.202 1.828 1.178 1.494 8.35 -8.401 24.563 9.958 3.102 2.618 -2.47 2.326 -16.357 -3.567 -1.513 7.041 -35.399 -8.499 0.116 0.796 4.081 2.445 -1.083 1.392 -7.067 -0.071 -4.828 -7.219 -3.054 8.635 3.566 -2.186 5.957 14.962 0.007 -0.002zm124.188 18.439l1.462 -3.847c0,0 -2.901,-14.942 -2.924,-15.182 -0.022,-0.24 1.055,-9.176 1.055,-9.176l3.444 -3.023 14.983 -0.985 -3.732 -6.15 -1.826 -7.537 -1.85 5.74 -0.032 -11.778 1.6 -5.173 5.122 -3.622 1.016 -5.843 -4.007 3.035 -1.777 -3.044 5.513 -7.108 -1.949 -1.393 -10.885 9.422 1.04 4.201 -2.959 8.747 3.478 5.971 -1.952 5.568 -7.929 7.695 -0.775 7.758c0,0 -4.892,1.906 -4.704,1.829 0.189,-0.077 -8.068,-2.217 -8.068,-2.217l-1.946 0.725 0.334 3.601 13.344 11.473 -1.584 6.381 0.391 2.112 5.922 1.842 0.193 -0.018 0.002 -0.004zm-11.122 -42.846l16.218 -19.178 -12.755 -31.742 2.619 -7.142 7.795 9.444 1.944 -3.569 8.432 -2.96 -6.451 -12.112 2.721 -3.582 9.298 0.772 12.583 -11.455 -4.938 -7.714 -6.99 13.601 -19.157 -13.899 -0.701 0.852 8.546 8.77 -10.641 16.965 -12.853 4.339 -15.934 -3.666 -5.728 0.592c0,0 -8.288,-3.892 -8.095,-3.909 0.192,-0.018 1.088,-5.064 1.088,-5.064l-4.406 -4.07 -3.924 1.816 4.097 25.948 -6.661 4.551 17.043 -0.491 3.617 -3.724 9.261 -2.434 2.301 2.389c0,0 -18.183,11.088 -18.311,11.1 -0.129,0.012 -13.168,-1.401 -13.168,-1.401l6.548 17.832 4.981 1.394 21.395 -22.926 2.757 6.847 -4.611 11.926 2.042 0.052 14.775 -9.399 2.745 3.316 -11.912 28.491 4.431 -0.562 -0.001 0.002zm-121.2 -27.554c-0.136,-0.068 -1.529,-13.214 -1.529,-13.214l4.364 -4.318 15.754 3.139 -14.141 4.458 -2.373 3.368 1.54 2.6 13.283 -2.262 14.869 -5.011 0.15 1.62 -4.57 6.779 35.473 -20.357c0,0 1.601,0.457 1.731,0.445 0.13,-0.012 -0.145,1.588 -0.145,1.588l-38.271 24.853 12.57 -3.889 1.921 1.093 -24.717 15.124 0.184 -2.922 3.201 -9.617 -1.831 -1.526 -14.462 1.704 -0.88 -1.794 1.492 -2.135 -3.613 0.274 0 0zm32.315 -34.773l11.768 11.982 4.255 -4.57 -2.31 -11.589 5.261 -7.024 2.687 2.354 7.539 1.419 2.484 -2.652 -16.279 -8.779 -2.543 -4.303 -14.826 1.981 -1.791 10.817 9.982 7.428 -6.227 2.936zm-3.44 -30.789l9.564 -1.977 -33.404 -2.168 -8.928 0.407 -1.004 5.297 -7.726 -16.048 -5.2 2.782 3.5 -10.613 7.099 8.6 7.935 -0.615 0.206 -1.289 -4.63 -3.686 39.113 11.2 0.747 -6.666 17.035 3.625 2.741 -2.675 -4.279 -2.69 -23.583 -11.189 -6.364 4.948 -2.818 3.954 -1.835 -2.978 0.871 -3.228 20.429 -9.519 -1.381 -5.077 -10.29 -5.159 0.85 -1.35 -1.485 -0.589 6.071 -1.108 37.01 21.443 -2.269 1.724 -26.356 -4.214 15.671 5.749 0.948 2.515 -0.248 0.809 7.221 2.901 -18.154 12.337 -1.43 4.187 3.311 2.78 -1.987 1.697 -6.946 -2.744 -10.005 -1.373zm-25.621 -36.661l-1.774 -6.049 6.643 -6.829 -1.357 -1.57 -18.725 1.737 -0.665 -1.552 2.519 -2.735 -7.775 0.236 1.675 -15.568 6.254 -3.566 20.137 3.216 -18.742 5.289 -4.192 3.376 2.101 3.033 33.318 -7.852 0.686 1.792 -6.597 8.279 37.393 -23.724 2.721 0.393 -1.335 3.352 -40.896 27.034 14.962 -4.939 1.815 0.881 -28.166 15.766zm66.181 -26.231l5.781 20.283 4.541 1.334 20.61 -21.581 11.863 1.805 9.562 9.684 -13.644 29.429 4.799 0.362 20.761 -20.89 -16.629 -33.561 2.944 -8.423c0,0 9.169,10.125 9.427,10.101 0.257,-0.024 0.798,-5.4 0.798,-5.4l11.104 -4.499c0,0 -10.213,-12.045 -10.19,-11.805 0.022,0.239 5.254,-6.863 5.254,-6.863l11.591 1.669 3.117 -10.297 -20.615 -9.305 -7.161 2.197 10.729 7.317 -12.04 20.565 -14.231 5.354 -37.741 -15.543 -4.63 5.19 9.6 21.301 -7.084 5.822 16.74 0.221 4.353 -4.438 8.729 -2.101 3.567 2.979 -19.626 10.696 -12.279 -1.604 0 0.001zm33.091 59.753l16.356 13.816 -2.675 5.251 0.535 2.493c0,0 6.563,1.166 6.691,1.154 0.129,-0.012 1.964,-2.644 2.331,-3.363 0.367,-0.72 -2.394,-15.998 -2.394,-15.998l1.423 -8.484 5.956 -3.497 18.232 -0.521 -5.353 -14.271 -2.907 6.484 -0.36 -12.757 1.243 -5.28 8.606 -5.761 1.103 -7.729 -6.829 6.242 -1.303 -4.721 10.271 -11.162 0.163 -9.455 -20.128 23.978 2.772 4.666 -5.883 9.422 4.378 5.162 -3.335 7.008c0,0 -8.713,6.941 -8.97,6.965 -0.258,0.024 -1.745,7.344 -1.745,7.344l-7.124 2.598 -7.71 -1.867 -3.341 2.286 -0.003 -0.003zm-95.093 169.145c-0.112,0.192 -8.837,-9.107 -8.837,-9.107l2.228 -5.411 4.101 -0.622 5.571 0.513 7.979 -8.547 -6.045 -2.828 -3.861 6.713 -17.002 -11.678 0.089 0.96 7.728 8.362 -6.574 15.982 -19.066 8.792 -1.138 16.445c0,0 12.608,-3.469 12.71,-3.782 0.1,-0.312 5.949,-16.409 5.949,-16.409l6.075 8.757 10.096 -8.139 -0.003 -0.001zm5.315 9.674l0.53 -10.398 3.297 -2.968 18.45 2.766 -12.4 2.907 -6.715 6.069 -3.162 1.624zm147.263 -13.92l-1.649 -9.369 5.398 -4.374 14.271 4.405 3.385 8.482 -21.405 0.856zm-187.935 -10.571l13.965 1.126 2.059 -5.84 -5.225 -11.136 6.643 -14.657 12.693 -0.451 -4.977 -13.5 -4.217 6.847 0.726 -12.736 1.758 -5.328 6.417 -6.002 -0.549 -5.92 -4 3.114 -0.636 -2.201 6.017 -9.838 -1.724 -1.777 -6.935 7.422 -4.237 9.431 2.393 2.441 -5.4 10.911 0.999 3.296 -3.605 9.696 -9.929 5.036 -1.035 5.665 -12.37 4.859 11.169 19.542zm-7.262 -35.318c-0.249,0.104 12.785,-5.06 12.785,-5.06l13.202 -18.331 -13.43 -28.047 0.974 -10.985 7.817 10.492 0.832 -5.969 9.408 -6.924 -11.013 -6.645 1.901 -5.664 8.294 -1.173 11.101 -10.148 -8.274 -3.267 -5.176 6.774 -19.7 -11.568 0.082 0.88 12.462 10.142 -7.882 17.758 -15.665 6.699 5.641 32.806 10.439 -8.876 5.339 8.058 -3.823 11.087 -9.46 8.221 8.943 -15.678 -1.359 -4.957c0,0 -19.974,28.076 -20.233,28.1 -0.259,0.024 6.795,2.275 6.795,2.275zm-7.664 -108.795l31.27 -3.788 -8.242 -13.195 -0.729 7.088 -3.284 -14.868 1.876 -4.047 7.537 -5.621 -0.094 -6.608 -4.954 4.494 -2.786 -4.826 8.137 -7.533 -2.967 -3.034 -12.235 13.805 1.835 4.833 -4.428 10.176 6.581 6.489 -4.363 9.363 -14.608 4.664 1.454 2.608zm-0.998 -16.369l13.904 -17.268 -2.925 -14.738 -7.95 -7.252 3.596 19.154 -8.551 18.023 1.53 1.553 0.396 0.528zm-1.906 -55.101l11.393 7.013 3.557 -7.431 9.833 -3.253 -13.855 -11.142 4.54 -6.151 11.789 1.006 13.491 -10.532 -8.325 -3.828 -6.944 9.198 -18.427 -14.672 -4.897 0.454 11.758 10.933 -14.107 15.108 6.734 7.203 -0.796 4.512 -5.744 1.582zm223.225 80.006l-25.517 20.04 0.169 16.769 5.53 0.778 -4.219 4.024 3.088 5.282 24.576 -7.767 -0.153 -7.248 -19.548 8.752 2.7 -6.383 -7.555 -0.187 -0.917 -7.098 13.358 -5.435 3.965 8.185c0,0 12.658,-11.099 12.161,-11.78 -0.496,-0.681 -7.641,-17.933 -7.641,-17.933l0.003 0.001zm-31.173 72.088l4.542 -7.078 4.775 9.453 10.387 -0.087 -6.914 -5.894 31.31 -2.904 0.414 28.286 -33.049 -10.25 0.08 5.077 -7.187 -17.249 -4.358 0.646z"/>
     <path id="_2_0" fill="#04003E" fill-rule="nonzero" d="M-52.377 142.667l-8.997 -14.464 7.051 -1.253 -7.85 -9.527 3.235 -7.829 10.344 -0.82 20.116 17.061 -3.715 1.98 -7.695 -2.996 -1.056 -3.012 -7.189 6.315 0.427 11.211 -4.671 3.334zm36.657 15.708c0.074,-0.476 2.371,-29.072 2.371,-29.072l4.717 -0.562 3.419 4.927 -2.074 4.881 6.787 6.837 3.874 -0.205 15.411 8.636 12.437 -1.913 11.631 -14.607 -6.044 -10.463 0.331 -1.005 13.683 17.434 5.05 -6.041c0,0 4.682,6.346 4.937,6.386 0.255,0.04 -10.368,4.313 -10.368,4.313l-8.03 -2.803 -3.365 4.76 1.069 12.124c-1.097,0.315 -4.582,0.826 -4.582,0.826l-1.394 5.557 -4.447 -11.188 -2.133 0.803 -3.999 12.142 -39.281 -11.767 0 0zm-72.585 -66.009l2.289 -4.155 39.804 10.527c0,0 -8.345,-0.657 -8.43,-0.67 -0.086,-0.014 13.324,7.74 13.324,7.74l2.603 -0.73 -4.993 -6.028 24.188 -9.142 -6.231 -4.117 0.221 -0.789 -0.3 -2.406 -12.466 -8.908 22.765 9.769 2.402 -1.118 -31.098 -27.92 -5.115 -0.233 0.758 1.014 -1.135 1.53 8.632 6.07 0.633 4.735 -20.661 4.662 0.371 1.187 -1.029 1.547 -0.735 -0.328 -0.253 1.822 0.776 1.737 10.156 -6.095 21.368 15.681 2.365 3.299 -2.965 1.649 -14.982 -7.472 -3.195 6.454 -32.231 -16.925 -0.082 0.8 3.356 3.372 -1.391 1.084 -6.834 -1.804 -2.909 -8.182 -5.079 7.621 3.994 -1.244 2.103 15.966 0.006 0zm115.866 48.349l2.363 -3.37c0,0 0.853,-15.198 0.891,-15.435 0.037,-0.238 3.273,-8.637 3.273,-8.637l4.081 -2.086 14.767 2.721 -2.109 -6.877 0.08 -7.754 -3.203 5.11 2.86 -11.426 2.819 -4.622 5.854 -2.254 2.42 -5.416 -4.629 1.96 -0.976 -3.387 7.089 -5.538 -1.548 -1.829 -12.865 6.463 -0.023 4.328 -5.014 7.753 1.906 6.642 -3.259 4.919 -9.574 5.514 -2.655 7.331c0,0 -5.21,0.647 -5.008,0.618 0.201,-0.028 -7.278,-4.128 -7.278,-4.128l-2.065 0.225 -0.559 3.573 10.121 14.396 -3.102 5.797 -0.139 2.144 5.288 3.238 0.192 0.03 0.002 -0.003zm-0.267 -44.266l20.429 -14.611 -4.578 -33.901 4.292 -6.282 5.24 11.069 2.76 -2.983 8.901 -0.801 -3.282 -13.325 3.516 -2.804 8.825 3.03 15.009 -8.018 -2.894 -8.689 -10.114 11.47 -15.161 -18.175 -0.888 0.654 6.132 10.599 -14.478 13.835 -13.524 1.053 -14.548 -7.465 -5.699 -0.832c0,0 -7.079,-5.806 -6.888,-5.775 0.191,0.029 2.298,-4.642 2.298,-4.642l-3.273 -5.027 -4.25 0.798 -2.395 26.159 -7.573 2.778 16.641 3.706 4.421 -2.723 9.575 -0.086 1.645 2.88c0,0 -20.348,6.287 -20.476,6.267 -0.128,-0.02 -12.421,-4.589 -12.421,-4.589l1.972 18.894 4.487 2.573 26.366 -16.974 0.993 7.313 -7.396 10.43 1.965 0.552 16.631 -5.486 1.847 3.888 -18.54 24.697 4.435 0.542 -0.002 0.001zm-110.733 -56.451c-0.115,-0.1 1.76,-13.185 1.76,-13.185l5.29 -3.116 14.503 6.909 -14.804 0.853 -3.127 2.681 0.856 2.899 13.431 1.067 15.644 -1.209 -0.252 1.607 -6.093 5.45 39.383 -11.03c0,0 1.44,0.836 1.569,0.856 0.129,0.021 -0.53,1.504 -0.53,1.504l-43.199 14.702 13.14 -0.686 1.594 1.532 -27.672 8.596 0.895 -2.788 5.463 -8.538 -1.401 -1.928 -14.437 -1.896 -0.414 -1.956 1.97 -1.703 -3.569 -0.621 0 0zm39.86 -25.78l8.467 14.502 5.247 -3.386 0.604 -11.801 6.824 -5.518 2.027 2.941 6.961 3.226 3.058 -1.962 -13.627 -12.504 -1.409 -4.796 -14.859 -1.718 -4.39 10.047 7.854 9.65 -6.757 1.319zm4.22 -30.693l9.757 0.431 -31.851 -10.298 -8.755 -1.797 -2.273 4.889 -3.552 -17.453 -5.723 1.421 5.997 -9.43 4.772 10.079 7.843 1.351 0.516 -1.199 -3.585 -4.709 35.17 20.455 2.359 -6.279 15.625 7.694 3.313 -1.92 -3.487 -3.658 -20.117 -16.634 -7.383 3.235 -3.702 3.142 -1.048 -3.337 1.635 -2.916 22.141 -4.216 -0.093 -5.26 -8.71 -7.526 1.156 -1.1 -1.295 -0.936 6.157 0.416 30.617 29.869 -2.623 1.115 -24.516 -10.553 13.781 9.419 0.302 2.67 -0.439 0.724 6.289 4.584 -20.627 7.505 -2.414 3.708 2.528 3.508 -2.343 1.157 -6.06 -4.365 -9.362 -3.786zm-15.842 -41.826l-0.236 -6.3 8.117 -4.99 -0.931 -1.855 -18.579 -2.911 -0.263 -1.668 3.113 -2.033 -7.595 -1.679 5.444 -14.68 6.937 -1.923 18.732 8.059 -19.467 0.528 -4.892 2.244 1.293 3.456 34.226 0.564 0.225 1.906 -8.426 6.406 42.07 -13.823 2.542 1.049 -2.116 2.922 -46.28 16.172 15.717 -1.116 1.542 1.299 -31.173 8.373zm70.595 -9.19l0.626 21.082 4.076 2.407 25.275 -15.864 11.058 4.661 6.893 11.735 -20.448 25.181 4.563 1.528 25.252 -15.157 -7.885 -36.615 4.921 -7.443c0,0 6.404,12.065 6.66,12.105 0.255,0.04 2.098,-5.038 2.098,-5.038l11.87 -1.638c0,0 -6.946,-14.182 -6.983,-13.944 -0.037,0.238 6.778,-5.363 6.778,-5.363l10.828 4.461 5.547 -9.216 -17.701 -14.08 -7.481 0.373 8.605 9.726 -16.718 16.981 -15.11 1.699 -32.773 -24.33 -5.762 3.896 4.08 23.005 -8.296 3.906 16.174 4.323 5.309 -3.235 8.977 0.106 2.728 3.762 -21.652 5.554 -11.509 -4.568 0 0zm17.416 66.047l12.465 17.407 -3.881 4.433 -0.093 2.548c0,0 6.076,2.741 6.204,2.761 0.127,0.02 2.552,-2.081 3.085,-2.688 0.532,-0.607 1.605,-16.096 1.605,-16.096l3.46 -7.875 6.632 -1.929 17.803 3.969 -1.687 -15.149 -4.409 5.573 2.781 -12.455 2.5 -4.814 9.757 -3.473 2.966 -7.222 -8.152 4.375 -0.105 -4.896 12.696 -8.3 2.478 -9.127 -25.396 18.306 1.542 5.204 -8.015 7.69 2.977 6.079 -4.952 5.975c0,0 -10.15,4.591 -10.406,4.551 -0.255,-0.04 -3.493,6.692 -3.493,6.692l-7.544 0.77 -7.016 -3.702 -3.799 1.397 -0.003 -0.004zm-133.691 140.638c-0.156,0.159 -6.332,-10.996 -6.332,-10.996l3.487 -4.699 4.128 0.403 5.275 1.864 9.833 -6.327 -5.166 -4.225 -5.391 5.56 -13.616 -15.493 -0.149 0.953 5.44 10.002 -10.295 13.881 -20.64 3.844 -5.14 15.663c0,0 13.075,-0.269 13.25,-0.547 0.174,-0.278 9.794,-14.448 9.794,-14.448l3.74 9.98 11.785 -5.413 -0.003 -0.002zm2.779 10.683l3.065 -9.95 3.925 -2.069 17.206 7.21 -12.734 -0.225 -7.998 4.236 -3.464 0.798zm146.176 22.642l0.7 -9.488 6.307 -2.915 12.754 7.772 1.2 9.053 -20.961 -4.422zm-179.595 -56.364l13.262 4.518 3.428 -5.156 -2.332 -12.078 10.036 -12.579 12.417 2.678 -1.513 -14.309 -5.768 5.603 3.829 -12.168 3.011 -4.734 7.694 -4.244 0.92 -5.874 -4.641 2.037 -0.077 -2.289 8.247 -8.061 -1.234 -2.145 -8.545 5.493 -6.422 8.103 1.721 2.953 -7.912 9.253 0.159 3.44 -5.873 8.515 -10.862 2.446 -2.393 5.238 -13.184 1.675 6.032 21.685zm1.627 -36.02c-0.268,0.039 13.636,-1.768 13.636,-1.768l17.296 -14.532 -6.137 -30.485 3.639 -10.409 5.004 12.089 2.271 -5.582 10.82 -4.405 -9.046 -9.144 3.232 -5.024 8.329 0.898 13.251 -7.114 -7.219 -5.197 -6.68 5.297 -16.258 -16.049 -0.137 0.873 9.592 12.89 -11.999 15.282 -16.83 2.65 -2.581 33.186 12.298 -6.043 3.199 9.122 -6.427 9.81 -11.188 5.648 12.516 -13.003 -0.101 -5.14c0,0 -26.253,22.317 -26.509,22.277 -0.257,-0.041 6.029,3.873 6.029,3.873zm19.266 -107.35l31.244 4.001 -4.752 -14.814 -2.446 6.692 0.464 -15.218 2.812 -3.464 8.686 -3.599 1.53 -6.429 -5.905 3.14 -1.517 -5.361 9.737 -5.307 -2.131 -3.669 -15.249 10.381 0.593 5.135 -6.789 8.778 4.787 7.907 -6.527 8.005 -15.306 0.937 0.769 2.885zm3.05 -16.113l17.716 -13.328 0.781 -15.006 -5.928 -8.981 -1.214 19.451 -12.712 15.374 1.103 1.881 0.254 0.609zm11.673 -53.884l9.324 9.594 5.271 -6.331 10.331 -0.741 -10.698 -14.201 5.911 -4.848 11.182 3.867 15.663 -6.899 -7.132 -5.754 -8.988 7.213 -14.263 -18.745 -4.859 -0.761 8.715 13.483 -17.382 11.185 4.76 8.634 -1.878 4.179 -5.957 0.125zm196.768 132.336l-29.655 13.166 -3.951 16.297 5.17 2.112 -5.077 2.865 1.698 5.878 25.73 -1.499 1.63 -7.064 -21.097 3.688 4.183 -5.526 -7.278 -2.035 0.852 -7.105 14.283 -1.992 1.836 8.909c0,0 14.995,-7.655 14.681,-8.436 -0.315,-0.782 -3.008,-19.26 -3.008,-19.26l0.003 0.002zm-47.91 62.235l6.14 -5.747 2.31 10.335 10.091 2.465 -5.257 -7.411 31.065 4.867 -6.539 27.523 -29.523 -18.045 -1.168 4.94 -2.735 -18.484 -4.384 -0.443z"/>
    </g>
   </g>
   <g clip-path="url(#id4)">
    <path fill="none" d="M42.488 97.035c0.028,-0.502 0.055,-1.004 0.138,-1.574 0.082,-0.57 0.22,-1.208 0.192,-1.818 -0.028,-0.611 -0.223,-1.192 -1.026,-4.321 -0.804,-3.128 -2.217,-8.803 -3.374,-15.175 -1.157,-6.373 -2.058,-13.443 -3.034,-19.705 -0.976,-6.264 -2.027,-11.72 -2.815,-15.624 -0.789,-3.904 -1.314,-6.257 -1.752,-8.597 -0.135,-0.722 -0.262,-1.444 -0.383,-2.165 -0.909,0.583 -1.664,1.379 -2.651,2.001 -11.263,7.099 -18.243,27.467 -21.401,39.215 -1.569,5.839 -1.98,12.983 -2.969,19.04 -0.5,3.067 -1.172,6.193 -1.752,9.253 -0.585,3.095 -0.872,6.493 -1.288,9.631 -0.406,0.268 -0.327,-0.023 -0.308,0.899l-0.065 1.854 0 8.783c0.041,1.018 0.102,1.813 0.186,2.164 1.125,0.477 3.706,0.514 5.07,0.712 7.662,1.114 9.041,0.828 15.791,1.554l21.547 1.349c-0.015,-1.623 0.547,-10.725 0.578,-13.424l-0.603 -0.316 0 0 -0.07 -0.036c0,-4.476 -0.011,-9.226 -0.011,-13.7zm152.698 13.793l0 0 -0.416 0.247c-0.004,0.882 0.338,12.091 0.604,13.423l21.579 -1.336c6.75,-0.726 8.129,-0.44 15.791,-1.554 1.364,-0.198 3.945,-0.235 5.07,-0.712 0.084,-0.351 0.145,-1.146 0.186,-2.164l0 -8.783 -0.065 -1.854c0.014,-0.687 0.062,-0.7 -0.083,-0.774 -0.05,-0.025 -0.122,-0.057 -0.225,-0.125 -0.416,-3.138 -0.703,-6.536 -1.288,-9.631 -0.58,-3.06 -1.252,-6.186 -1.752,-9.253 -0.989,-6.057 -1.4,-13.201 -2.969,-19.04 -3.158,-11.748 -10.138,-32.116 -21.401,-39.215 -1.057,-0.665 -1.895,-1.576 -2.919,-2.163 -0.004,0.804 -0.013,1.568 -0.034,2.242 -0.037,1.214 -0.113,2.14 -0.663,4.067 -0.551,1.927 -1.577,4.856 -2.541,9.31 -0.963,4.455 -1.864,10.437 -2.652,16.318 -0.789,5.882 -1.465,11.663 -2.278,15.986 -0.813,4.324 -1.764,7.189 -2.565,9.742 -0.8,2.553 -1.451,4.792 -1.681,6.311 -0.23,1.519 -0.038,2.317 0.099,3.18 0.138,0.862 0.223,1.79 0.308,2.718 0,4.474 -0.105,8.584 -0.105,13.06zm-194.813 -3.632c0.744,0.196 1.489,0.392 4.426,0.672 2.938,0.279 8.068,0.642 13.143,1.005 5.074,0.363 10.092,0.726 13.996,1.045 3.905,0.319 6.695,0.595 8.372,0.73l0.055 0.004 0.053 0.004 0.053 0.004 0.052 0.004 0.051 0.004 0.051 0.004 0.05 0.004 0.048 0.004 0.001 0 0.048 0.003 0.048 0.004 0.046 0.003 0.047 0.003 0.045 0.004 0.045 0.003 0.044 0.003 0.044 0.003 0.042 0.003 0.043 0.003 0.041 0.002 0.041 0.003 0 0 0.041 0.002 0.039 0.003 0.039 0.002 0.001 0 0.038 0.003 0.038 0.002 0.037 0.002 0 0 0.037 0.002 0.036 0.002 0.036 0.002 0 0 0.035 0.002 0 0 0.035 0.002 0 0 0.034 0.002 0 0 0.033 0.002 0.033 0.001 0.001 0 0.032 0.002 0.032 0.002 0 0 0.031 0.001 0.001 0 0.031 0.001 0 0 0.03 0.002 0.001 0 0.029 0.001 0.001 0 0.029 0.001 0 0 0.029 0.002 0.001 0 0.028 0 0.001 0 0.028 0.002 0.028 0.001 0 0 0.028 0 0 0 0.027 0.001 0 0 0.027 0.001 0.026 0.001 0.001 0 0.025 0.001 0.001 0 0.025 0.001 0 0 0.025 0 0.001 0 0.025 0.001 0 0 0.024 0 0.001 0 0.024 0.001 0 0 0.024 0.001 0 0 0.023 0 0.001 0 0.023 0 0 0 0.023 0.001 0.001 0 0.022 0 0.001 0 0.022 0.001 0 0 0.022 0 0 0 0.022 0 0.001 0 0.021 0 0 0 -42.196 -3.575z"/>
   </g>
  </g>
  <path fill="none" d="M207.298 27.894c-0.11,-0.063 -0.222,-0.122 -0.337,-0.177 -4.975,-2.38 -9.714,-5.334 -14.858,-7.149 -4.647,-1.639 -11.454,-2.699 -17.288,-4.719 -2.277,-0.789 -4.556,-1.589 -6.82,-2.415l-0.004 -0.03 -9.999 -4.08 -0.175 -0.072c-0.614,-0.28 -1.553,-1.207 -2.512,-1.889 -0.494,-0.369 -0.613,-0.563 -1.038,-0.905 -2.856,-2.299 -5.606,-5.635 -9.574,-5.641 -0.901,-0.002 -1.04,-0.123 -1.779,-0.163l-7.601 -0.17c-5.892,-0.486 -12.055,-0.501 -18.06,-0.477 -5.087,0.02 -9.557,0.063 -14.567,0.477 -2.529,0.209 -4.996,0.029 -7.6,0.17 -0.739,0.04 -0.878,0.161 -1.779,0.163 -3.968,0.006 -6.718,3.342 -9.575,5.641 -0.424,0.342 -0.543,0.536 -1.037,0.905 -0.741,0.527 -1.471,1.2 -2.047,1.608 -0.17,0.121 -0.326,0.218 -0.465,0.281l-10.174 4.152 -0.003 0.03c-2.265,0.826 -4.544,1.626 -6.821,2.415 -5.834,2.02 -12.641,3.08 -17.288,4.719 -5.144,1.815 -9.883,4.769 -14.858,7.149 -0.212,0.101 -0.412,0.215 -0.605,0.339 -0.909,0.583 -1.664,1.379 -2.651,2.001 -11.263,7.099 -18.243,27.467 -21.401,39.215 -1.569,5.839 -1.98,12.983 -2.969,19.04 -0.5,3.067 -1.172,6.193 -1.752,9.253 -0.585,3.095 -0.872,6.493 -1.288,9.631 -0.406,0.268 -0.327,-0.023 -0.308,0.899l-0.065 1.854 0 8.783c0.041,1.018 0.102,1.813 0.186,2.164 1.125,0.477 3.706,0.514 5.07,0.712 7.662,1.114 9.041,0.828 15.791,1.554l21.547 1.349c-0.015,-1.623 0.547,-10.725 0.578,-13.424l-0.603 -0.316 -0.07 -0.036c0,-4.476 -0.011,-9.226 -0.011,-13.7 1.678,4.247 3.328,18.944 3.789,24.023 0.735,8.116 1.826,16.186 2.512,24.347 0.348,4.137 0.874,8.269 1.009,12.419l0.653 12.776c0.396,4.199 0.208,8.934 0.274,13.179 0.032,2.062 0.194,4.007 0.186,6.13 -0.007,2.226 -0.172,4.349 -0.196,6.512 -0.051,4.469 -0.054,8.634 -0.319,13.111 -0.68,11.475 -1.257,26.076 -3.267,37.02 -0.966,5.407 -2.177,11.944 -2.754,17.389 -0.258,2.432 -0.827,10.057 -1.468,11.951 -0.68,2.01 -0.163,3.658 -0.568,5.77 -0.342,1.785 -0.742,3.812 -1.164,5.568 -0.463,1.93 -1.435,3.647 0.397,4.966 4.276,1.054 8.552,2.108 13.913,3.017 5.36,0.909 11.804,1.672 18.03,2.048 6.226,0.375 12.232,0.363 21.568,0.476 9.335,0.112 21.999,0.351 32.523,0.382 10.525,0.032 18.909,-0.144 26.242,-0.419 7.333,-0.275 13.615,-0.65 19.058,-1.151 5.443,-0.501 10.048,-1.126 13.829,-1.873 3.78,-0.746 6.736,-1.613 9.693,-2.48 1.832,-1.319 0.86,-3.036 0.397,-4.966 -0.422,-1.756 -0.822,-3.783 -1.164,-5.568 -0.405,-2.112 0.112,-3.76 -0.568,-5.77 -0.641,-1.894 -1.21,-9.519 -1.468,-11.951 -0.577,-5.445 -1.788,-11.982 -2.754,-17.389 -2.01,-10.944 -2.587,-25.545 -3.267,-37.02 -0.265,-4.477 -0.268,-8.642 -0.319,-13.111 -0.024,-2.163 -0.189,-4.286 -0.196,-6.512 -0.008,-2.123 0.154,-4.068 0.186,-6.13 0.066,-4.245 -0.122,-8.98 0.274,-13.179l0.653 -12.776c0.135,-4.15 0.661,-8.282 1.009,-12.419 0.686,-8.161 1.777,-16.231 2.512,-24.347 0.461,-5.079 1.889,-19.043 3.568,-23.29 0,4.474 -0.105,8.584 -0.105,13.06l0 0 -0.416 0.247c-0.004,0.882 0.338,12.091 0.604,13.423l21.579 -1.336c6.75,-0.726 8.129,-0.44 15.791,-1.554 1.364,-0.198 3.945,-0.235 5.07,-0.712 0.084,-0.351 0.145,-1.146 0.186,-2.164l0 -8.783 -0.065 -1.854c0.014,-0.687 0.062,-0.7 -0.083,-0.774 -0.05,-0.025 -0.122,-0.057 -0.225,-0.125 -0.416,-3.138 -0.703,-6.536 -1.288,-9.631 -0.58,-3.06 -1.252,-6.186 -1.752,-9.253 -0.989,-6.057 -1.4,-13.201 -2.969,-19.04 -3.158,-11.748 -10.138,-32.116 -21.401,-39.215 -1.057,-0.665 -1.895,-1.576 -2.919,-2.163z"/>
 </g>
</svg>
