<?xml version="1.0" encoding="UTF-8"?>
<!DOCTYPE svg PUBLIC "-//W3C//DTD SVG 1.1//EN" "http://www.w3.org/Graphics/SVG/1.1/DTD/svg11.dtd">
<!-- Creator: CorelDRAW 2018 (64 Bit Versão de avaliação) -->
<svg xmlns="http://www.w3.org/2000/svg" xml:space="preserve" width="238px" height="298px" version="1.1" shape-rendering="geometricPrecision" text-rendering="geometricPrecision" image-rendering="optimizeQuality" fill-rule="evenodd" clip-rule="evenodd"
viewBox="0 0 238000 298131"
 xmlns:xlink="http://www.w3.org/1999/xlink">
 <g id="Camada_x0020_1">
  <metadata id="CorelCorpID_0Corel-Layer"/>
  <path id="d1" fill="#F00808" d="M30434 28056c-910,583 -1664,1379 -2651,2001 -11263,7099 -18243,27467 -21401,39215 -1569,5839 -1980,12983 -2969,19040 -500,3067 -1172,6193 -1752,9253 -585,3095 -872,6493 -1288,9631 -406,268 -327,-23 -308,899l-65 1854 0 8783c41,1018 102,1813 186,2164 1125,477 3706,514 5070,712 7662,1114 9041,828 15791,1554l21547 1349c-15,-1623 547,-10725 578,-13424l-673 -352c0,-4476 -11,-9226 -11,-13700 28,-502 55,-1004 138,-1574 82,-570 220,-1208 192,-1818 -28,-611 -223,-1192 -1026,-4321 -804,-3128 -2217,-8803 -3374,-15175 -241,-1324 -470,-2677 -691,-4048 10076,-33381 42424,-57807 80774,-57807 39025,0 71836,25295 81285,59582 -211,1409 -428,2733 -656,3943 -813,4324 -1764,7189 -2565,9742 -800,2553 -1451,4792 -1681,6311 -230,1519 -38,2317 99,3180 138,862 223,1790 308,2718 0,4474 -105,8584 -105,13060l-416 247c-4,882 338,12091 604,13423l21579 -1336c6750,-726 8129,-440 15791,-1554 1364,-198 3945,-235 5070,-712 84,-351 145,-1146 186,-2164l0 -8783 -65 -1854c19,-922 98,-631 -308,-899 -416,-3138 -703,-6536 -1288,-9631 -580,-3060 -1252,-6186 -1752,-9253 -989,-6057 -1400,-13201 -2969,-19040 -3158,-11748 -10138,-32116 -21401,-39215 -1058,-666 -1896,-1577 -2919,-2163 -110,-63 -222,-122 -337,-177 -4975,-2380 -9714,-5334 -14858,-7149 -4647,-1639 -11454,-2699 -17288,-4719 -2277,-789 -4556,-1589 -6820,-2415l-4 -30 -10174 -4152c-614,-280 -1553,-1207 -2512,-1889 -494,-369 -613,-563 -1038,-905 -2856,-2299 -5606,-5635 -9574,-5641 -901,-2 -1040,-123 -1779,-163l-7601 -170c-5892,-486 -12055,-501 -18060,-477 -5087,20 -9557,63 -14567,477 -2529,209 -4996,29 -7600,170 -739,40 -878,161 -1779,163 -3968,6 -6718,3342 -9575,5641 -424,342 -543,536 -1037,905 -959,682 -1899,1609 -2512,1889l-10174 4152 -3 30c-2265,826 -4544,1626 -6821,2415 -5834,2020 -12641,3080 -17288,4719 -5144,1815 -9883,4769 -14858,7149 -212,101 -412,215 -605,339z"/>
  <path id="camisa_contorno" fill="none" d="M207298 27902c-110,-63 -222,-122 -337,-177 -4975,-2380 -9714,-5334 -14858,-7149 -4647,-1640 -11454,-2699 -17288,-4720 -2277,-788 -4556,-1589 -6820,-2415l-4 -29 -9999 -4081 -175 -71c-614,-281 -1553,-1207 -2512,-1889 -494,-369 -613,-563 -1038,-905 -2856,-2299 -5606,-5636 -9574,-5642 -901,-1 -1040,-122 -1779,-163l-7601 -169c-5892,-486 -12055,-502 -18060,-478 -5087,21 -9557,64 -14567,478 -2529,209 -4996,29 -7600,169 -739,41 -878,162 -1779,163 -3968,6 -6718,3343 -9575,5642 -424,342 -543,536 -1037,905 -741,526 -1471,1200 -2047,1608 -170,120 -326,217 -465,281l-10174 4152 -3 29c-2265,826 -4544,1627 -6821,2415 -5834,2021 -12641,3080 -17288,4720 -5144,1815 -9883,4769 -14858,7149 -212,101 -412,215 -605,339 -909,583 -1664,1379 -2651,2001 -11263,7098 -18243,27467 -21401,39215 -1569,5839 -1980,12982 -2969,19040 -500,3067 -1172,6193 -1752,9252 -585,3096 -872,6494 -1288,9632 -406,268 -327,-23 -308,899l-65 1854 0 8783c41,1018 102,1813 186,2164 1125,476 3706,514 5070,712 7662,1114 9041,828 15791,1554l21547 1349c-15,-1624 547,-10726 578,-13424l-603 -316 -70 -37c0,-4475 -11,-9226 -11,-13700 1678,4247 3328,18944 3789,24024 735,8115 1826,16186 2512,24346 348,4138 874,8270 1009,12420l653 12776c396,4198 208,8934 274,13179 32,2061 194,4006 186,6129 -7,2227 -172,4350 -196,6513 -51,4469 -54,8634 -319,13111 -680,11475 -1257,26075 -3267,37019 -966,5408 -2177,11944 -2754,17390 -258,2432 -827,10057 -1468,11950 -680,2011 -163,3659 -568,5771 -342,1785 -742,3812 -1164,5568 -463,1930 -1435,3647 397,4965 4276,1055 8552,2109 13913,3018 5360,909 11804,1672 18030,2048 6226,375 12232,363 21568,475 9335,113 21999,351 32523,383 10525,31 18909,-144 26242,-419 7333,-275 13615,-651 19058,-1151 5443,-501 10048,-1127 13829,-1873 3780,-747 6736,-1614 9693,-2481 1832,-1318 860,-3035 397,-4965 -422,-1756 -822,-3783 -1164,-5568 -405,-2112 112,-3760 -568,-5771 -641,-1893 -1210,-9518 -1468,-11950 -577,-5446 -1788,-11982 -2754,-17390 -2010,-10944 -2587,-25544 -3267,-37019 -265,-4477 -268,-8642 -319,-13111 -24,-2163 -189,-4286 -196,-6513 -8,-2123 154,-4068 186,-6129 66,-4245 -122,-8981 274,-13179l653 -12776c135,-4150 661,-8282 1009,-12420 686,-8160 1777,-16231 2512,-24346 461,-5080 1889,-19043 3568,-23290 0,4474 -105,8584 -105,13060l0 0 -416 247c-4,881 338,12090 604,13422l21579 -1335c6750,-726 8129,-440 15791,-1554 1364,-198 3945,-236 5070,-712 84,-351 145,-1146 186,-2164l0 -8783 -65 -1854c14,-688 62,-701 -83,-774 -50,-25 -122,-57 -225,-125 -416,-3138 -703,-6536 -1288,-9632 -580,-3059 -1252,-6185 -1752,-9252 -989,-6058 -1400,-13201 -2969,-19040 -3158,-11748 -10138,-32117 -21401,-39215 -1057,-666 -1895,-1576 -2919,-2163z"/>
 </g>
</svg>
