<?xml version="1.0" encoding="UTF-8"?>
<!DOCTYPE svg PUBLIC "-//W3C//DTD SVG 1.1//EN" "http://www.w3.org/Graphics/SVG/1.1/DTD/svg11.dtd">
<!-- Creator: CorelDRAW -->
<svg xmlns="http://www.w3.org/2000/svg" xml:space="preserve" width="187px" height="148px" version="1.1" shape-rendering="geometricPrecision" text-rendering="geometricPrecision" image-rendering="optimizeQuality" fill-rule="evenodd" clip-rule="evenodd"
viewBox="0 0 186.999 147.486"
 xmlns:xlink="http://www.w3.org/1999/xlink"
 xmlns:xodm="http://www.corel.com/coreldraw/odm/2003">
 <defs>
   <clipPath id="id0">
    <path d="M69.622 5.532c-9.32,-0.113 -15.317,-0.1 -21.532,-0.475 -6.215,-0.375 -12.649,-1.137 -18.001,-2.044 -5.351,-0.908 -9.62,-1.96 -13.89,-3.013l-2.056 6.766c-2.101,6.05 -3.233,10.386 -4.916,16.285 -0.249,0.873 -0.435,1.453 -0.642,2.333 -2.36,10.025 -4.55,19.989 -6.162,30.214 -0.554,3.516 -0.787,7.435 -1.226,10.942l-0.435 5.757c-0.045,1.83 -0.234,3.899 -0.37,5.626 -0.078,0.987 0.009,2.192 -0.003,3.205 -0.013,1.158 -0.208,1.511 -0.203,2.794 0.009,2.038 0.069,4.202 0.011,6.226 -0.028,1.013 -0.181,1.575 -0.197,2.723l0.192 9.099c-0.03,8.303 0.172,15.985 0.183,24.267 0.002,1.267 0.207,1.666 0.202,2.996 -0.004,0.925 -0.065,2.104 0.005,3.001 0.131,1.645 0.218,4.048 0.519,5.469 1.056,4.985 5.703,6.849 10.073,7.859 3.312,0.766 6.714,1.111 10.138,1.576 4.01,0.545 19.376,0.399 23.493,-0.086 6.45,-0.761 15.507,-0.276 22.162,-1.971 7.272,-1.853 6.398,-2.822 7.435,-7.425 0.87,-3.869 2.219,-13.998 3.169,-16.919 0.807,-2.484 1.721,-7.868 2.195,-10.524 0.344,-1.99 1.133,-3.678 1.718,-5.612 1.344,-4.441 1.694,-7.626 2.92,-12.169 0.377,-1.398 0.722,-2.38 1.102,-3.854 0.997,-3.864 2.19,-8.249 2.968,-12.117 0.575,-2.856 1.095,-5.36 1.653,-8.289l2.191 -12.734c0.189,-0.998 0.23,-2.248 1.182,-2.596 0.952,0.348 0.993,1.598 1.182,2.596l2.191 12.734c0.558,2.929 1.077,5.433 1.652,8.289 0.779,3.868 1.972,8.253 2.968,12.117 0.38,1.474 0.725,2.456 1.103,3.854 1.226,4.543 1.576,7.728 2.919,12.169 0.585,1.934 1.375,3.622 1.719,5.612 0.473,2.654 1.389,8.042 2.195,10.524 0.949,2.921 2.299,13.05 3.169,16.919 1.037,4.603 0.163,5.572 7.434,7.425 6.656,1.695 15.712,1.21 22.163,1.971 4.117,0.485 19.483,0.631 23.492,0.086 3.425,-0.465 6.827,-0.81 10.138,-1.576 4.371,-1.01 9.018,-2.874 10.074,-7.859 0.301,-1.421 0.388,-3.824 0.519,-5.469 0.07,-0.897 0.009,-2.076 0.005,-3.001 -0.005,-1.33 0.2,-1.729 0.202,-2.996 0.011,-8.282 0.213,-15.964 0.183,-24.267l0.191 -8.764 -0.196 -3.058c-0.058,-2.024 0.002,-4.188 0.011,-6.226 0.004,-1.283 -0.19,-1.636 -0.204,-2.794 -0.011,-1.013 0.076,-2.218 -0.002,-3.205 -0.136,-1.727 -0.325,-3.796 -0.37,-5.626l-0.436 -5.757c-0.439,-3.507 -0.671,-7.426 -1.225,-10.942 -1.612,-10.225 -3.802,-20.189 -6.162,-30.214 -0.207,-0.88 -0.394,-1.46 -0.643,-2.333 -1.682,-5.899 -2.814,-10.235 -4.915,-16.285l-2.057 -6.766c-2.951,0.866 -5.902,1.731 -9.677,2.477 -3.774,0.745 -8.371,1.369 -13.806,1.869 -5.434,0.5 -11.706,0.875 -19.026,1.15 -7.321,0.274 -15.692,0.449 -26.199,0.418 -10.507,-0.031 -23.15,-0.269 -32.47,-0.382z"/>
   </clipPath>
 </defs>
 <g id="VETORES">
  <metadata id="CorelCorpID_0Corel-Layer"/>
  <g>
  </g>
  <g clip-path="url(#id0)">
   <g id="_3224645143520">
    <path id="_1" fill="#330066" fill-rule="nonzero" d="M23.09 52.189l0 -0.03c0,0 -0.06,0.03 -0.09,0.03l0.06 0.029c0.03,0 0.03,-0.029 0.06,-0.029l-0.03 0zm3.878 -5.587c0,0 -0.02,0 -0.03,0l0.03 0zm-0.2 3.318c0.789,-0.91 -0.11,-1.11 -2.488,-0.959 -0.45,1.249 -0.82,2.238 -1.16,3.198 2.639,-0.54 3.089,-1.449 3.658,-2.239l-0.01 0zm5.637 -6.996c-3.788,1.129 -4.988,2.379 -5.437,3.678 1.549,-0.23 3.098,-0.48 4.587,-0.699 1.28,-1.33 2.129,-2.409 0.85,-2.979zm7.116 -3.997c-0.03,-1.39 -3.088,-0.11 -5.867,0.679l0.03 0c3.288,1.02 1.899,1.05 5.837,-0.679zm-21.878 20.117c0,0 0.03,0.06 0.03,0.06 0.06,-0.03 0.11,-0.03 0.2,-0.09 -0.03,-0.029 -0.06,-0.029 -0.09,-0.06 0,0 -0.11,0.06 -0.14,0.09zm6.516 -6.096c-0.09,-0.34 -0.709,-0.51 -1.109,-0.74 -1.419,1.13 -3.368,1.899 -5.947,2.579 -2.129,0.54 -4.277,1.329 -7.056,2.208 0.82,0.57 1.299,0.91 1.789,1.22 2.489,-0.94 4.477,-1.699 7.196,-2.749 -2.239,3.089 -2.209,2.489 -1.279,3.488 2.148,-1.449 4.337,-2.828 6.236,-4.077 0.08,-0.74 0.28,-1.389 0.14,-1.959l0.03 0.03zm8.416 -10.084l-0.25 0.03 0.259 -0.03 -0.009 0zm3.658 -2.468l-0.08 -0.03c0,0 0.08,0.03 0.08,0.03zm-0.03 0c0,0 -0.14,0.029 -0.11,0.029 0,0 -0.03,0 0,0.031 0.06,-0.031 0.079,-0.031 0.139,-0.061l-0.029 0.001zm-3.738 2.408c1.329,-0.789 3.798,-1.499 3.628,-2.348 -4.388,1.448 -4.788,1.698 -3.628,2.348zm-12.973 8.645c1.219,-0.679 2.319,-1.329 3.458,-1.959 -2.039,-0.03 -3.738,-0.06 -5.976,-0.06 -1.449,1.899 -2.689,3.538 -3.968,5.217 2.349,-0.65 4.707,-1.3 7.226,-2.009 -0.26,-0.4 -0.48,-0.789 -0.74,-1.189l0 0zm69.151 4.107c1.13,-1.109 1.839,-1.809 2.549,-2.518l-0.85 -0.03c-4.587,2.298 -3.708,1.589 -1.699,2.548zm-10.424 0.65c1.159,-1.159 2.918,-2.469 0.37,-2.639 -3.398,2.149 -3.459,2.489 -0.37,2.639zm0.37 -2.639c0,0 0.03,-0.029 0.06,-0.029 0,0 -0.03,-0.03 -0.03,-0.06 -0.06,0.029 -0.08,0.06 -0.14,0.06 0.06,0.029 0.08,0.029 0.11,0.029l0 0zm3.138 -7.245c-2.149,0.85 -4.308,1.669 -6.597,2.549 -0.879,-0.14 -1.728,-0.26 -2.638,-0.43 -1.359,0.509 -2.688,0.989 -4.168,1.529 -0.939,-0.14 -1.838,-0.28 -3.148,-0.51 -1.529,1.789 -2.808,3.258 -4.048,4.727 -1.728,2.009 -1.979,2.129 -6.796,3.089 -0.54,0.679 -1.109,1.359 -1.669,2.128 6.406,-1.958 10.364,-3.337 11.953,-4.167 -0.17,-0.48 -0.31,-0.939 -0.48,-1.469 4.168,-0.6 6.067,-0.2 5.667,1.249 1.22,-0.509 2.999,-1.049 3.228,-1.359 0.88,-1.189 1.28,-2.298 1.959,-3.568 1.899,-1.109 5.497,-2.129 6.746,-3.768l-0.009 0zm-3.368 6.486c-0.31,0.23 0.11,0.45 0.26,0.68 3.148,-1.899 3.228,-0.091 5.866,-0.91 4.338,-1.809 3.859,-3.058 3.149,-4.138 2.039,-1.019 3.707,-1.838 4.897,-2.438 -1.499,-0.31 -2.858,-0.62 -4.198,-0.91l-9.974 7.705 0 0.011zm-30.063 3.398l-1.959 4.167c4.107,-1.529 4.587,-2.718 7.086,-5.326 -1.869,0.43 -3.708,0.819 -5.127,1.159zm-2.829 -2.208c-0.849,0.939 -1.699,1.898 -3.088,3.398l5.297 -2.319 -2.209 -1.079zm7.956 1.019l0 0.029 0.06 0.001 -0.06 -0.03zm-7.925 -1.019c0,0 0.029,-0.061 0.06,-0.091 -0.06,0 -0.11,0 -0.2,0.03l0.14 0.061zm-12.614 10.852c0.99,0.09 0.88,0.94 3.738,0.06 -0.85,-0.479 0.11,-1.979 -3.738,-0.06zm15.392 -41.424c0,0 0.08,-0.06 0.11,-0.06l-0.22 0.031c0.03,0 0.09,0.029 0.11,0.029zm0.31 -0.11l0 0zm-29.244 -19.887c0,0 -0.03,0.03 -0.06,0.03l0 0.029 0.06 -0.059zm67.122 38.556c1.729,-0.6 3.168,-1.05 4.678,-1.56 -0.28,1.529 -3.258,3.398 -2.659,4.618 1.39,-0.34 2.779,-0.65 4.277,-0.99 0.23,-0.269 0.49,-0.549 0.77,-0.849l0 -8.884c-2.938,2.768 -6.956,5.466 -7.056,7.665l-0.01 0zm-21.788 -28.303l0 -0.029 -0.029 0.029 0.029 0zm-45.014 -10.283c2.918,-0.28 1.219,1.049 0.939,1.898 1.729,-0.509 3.428,-1.219 4.708,-1.419 1.619,-0.249 3.178,-0.52 4.807,-0.879l-12.023 -2.549c-0.36,0.4 -0.729,0.82 -1.09,1.209 5.187,-0.399 5.357,-0.23 2.659,1.729l0 0.011zm39.068 14.511c3.938,-2.349 3.028,-1.56 5.946,-4.248 -3.458,1.13 -5.436,2.549 -5.946,4.248zm32.472 -12.073l-1.849 -0.03 1.219 0.6c0.22,-0.21 0.43,-0.38 0.64,-0.57l-0.01 0zm-35.54 33.49c0.23,0.139 0.43,0.259 0.619,0.399l3.908 -1.699c-0.17,-0.11 -0.34,-0.2 -0.509,-0.31 -1.33,0.54 -2.689,1.08 -4.029,1.619l0.011 -0.009zm19.918 -32.131c1.24,-0.49 2.509,-0.959 3.978,-1.529 -3.709,0 -2.416,-0.458 -4.907,1.08l0.939 0.449 -0.01 0zm-5.946 5.417c4.477,-1.08 7.505,-3.338 12.153,-4.217 -2.919,1.499 -7.256,3.318 -8.925,5.216 -1.3,1.449 -5.727,3.828 -8.615,4.338 -2.579,0.429 -4.168,1.329 -6.207,2.039 -1.699,0.569 -3.488,0.989 -5.237,1.499 1.28,0.65 -3.088,2.468 -4.508,1.959l-3.318 2.298c2.269,0.94 6.087,0.959 9.515,1.129 -1.02,1.19 -1.979,2.349 -2.978,3.518 -4.728,0.88 -4.818,0.959 -6.657,3.028l-5.297 5.557 0.06 -0.06c1.3,1.559 -8.725,7.595 -3.058,8.524 -4.537,2.009 -4.587,3.538 -5.947,5.187 0.88,-0.06 1.67,-0.09 2.469,-0.14 0.17,1.19 -2.209,2.579 -4.308,3.938 1.28,0.09 2.519,0.17 3.878,0.26 -1.389,1.759 -2.979,3.658 -4.387,5.496 -0.57,0.74 -1.28,1.19 -2.999,1.419 4.587,-0.089 1.08,2.319 0.4,4.048 2.748,-1.079 4.877,-1.899 6.966,-2.718l0.229 -0.06 -0.249 0.029c-0.39,-0.439 -0.78,-0.889 -1.28,-1.449 2.129,-0.879 4.028,-1.669 6.427,-2.658 -0.23,0.769 -0.34,1.19 -0.51,1.789 5.807,-1.979 4.618,-3.398 6.826,-5.126 -2.408,0.309 -4.477,0.569 -6.936,0.879 2.809,-3.168 2.809,-3.908 6.346,-5.897 0.23,0.11 0.431,0.31 0.68,0.261 5.237,-1.25 7.876,-3.658 10.934,-6.516l3.198 1.559c-3.368,1.469 -6.626,2.858 -9.715,4.307 -1.219,0.54 -2.009,1.249 -2.978,1.899 2.009,-0.4 3.658,-0.57 4.507,0 0.79,0.51 2.239,0.769 3.399,1.109 2.378,-1.219 4.757,-2.488 7.136,-3.708 -0.11,-0.509 -0.23,-0.989 -0.37,-1.559 9.295,-3.167 6.376,-7.815 12.723,-7.735 -1.3,0.77 -2.489,1.419 -4.248,2.439 1.699,0.109 3.118,0.169 4.557,0.279 -2.519,2.919 -3.368,4.048 3.878,2.299 0.6,-0.48 1.079,-0.989 1.729,-1.499 0.769,-0.57 1.959,-1.19 2.408,-1.699 2.009,-2.269 3.878,-4.537 5.607,-6.746 0.34,-0.43 -0.03,-0.71 -0.17,-1.08 2.079,-0.739 4.128,-1.499 6.746,-2.458l0 -1.499 -0.43 0.19 0 0.03 -0.65 -0.26c0.36,-0.17 0.72,-0.35 1.08,-0.52l0 -6.106c-0.55,0.39 -1.309,0.909 -2.068,1.439 -0.48,-0.14 -1.33,-0.2 -1.33,-0.48 0.34,-3.028 -1.559,-0.399 -5.437,-0.34 1.359,-0.989 2.749,-1.959 4.508,-3.198l4.337 2.099 0 -4.857c-0.13,-0.03 -0.26,-0.07 -0.37,-0.13 0.121,-0.05 0.24,-0.11 0.37,-0.16l0 -0.869c-0.6,0.369 -0.91,0.759 -0.54,1.039 -4.307,2.069 -4.217,-0.6 -1.808,-1.809 0.989,-0.489 1.738,-1.02 2.348,-1.529l0 -3.248c-0.249,0.38 -0.52,0.809 -0.85,1.329 -1.638,0.11 -3.088,0.23 -4.816,0.37 1.369,-1.08 3.208,-1.979 5.666,-2.638l0 -3.069c-8.435,3.338 -1.739,3.708 -12.153,6.876 0.53,-1.529 3.388,-3.628 2.859,-4.867 0.2,0.17 0.6,0.29 1.299,0.33l4.168 -1.809c-1.049,-0.45 -2.009,-0.82 -3.458,-1.419 -0.34,0.399 -0.75,0.799 -1.12,1.169 0.77,-1.309 0.46,-2.628 1.1,-2.838 1.019,0.09 2.069,0.2 3.318,0.31 -0.57,-0.18 -1.1,-0.35 -1.629,-0.52l1.728 0.52 -0.008 0 1.16 -0.54c-2.045,-1.022 -1.875,-1.011 -4.557,0.11 0.06,-0.3 0.24,-0.579 0.539,-0.859l-4.767 -0.08c-1.589,0.95 -4.288,1.629 -6.317,1.579 -4.337,1.899 -4.617,3.488 -6.036,5.327l-0.01 -0.05zm9.544 6.936c-3.428,0.769 -3.737,0.34 -3.737,-0.31 1.759,-0.82 0.879,-0.85 3.737,0.31zm2.099 10.223c-0.4,0.43 -2.319,1.05 -4.308,1.929 1.759,-2.239 1.39,-2.379 3.148,-2.948 0.45,0.31 1.529,0.569 1.13,1.019l0.03 0zm-8.755 -11.213c-1.249,2.918 -6.596,3.858 -6.686,3.967 -1.929,2.039 -5.747,1.809 -8.445,2.979 4.507,-2.549 9.574,-4.727 15.131,-6.936l0 -0.01zm-28.554 29.862c-0.82,1.129 -1.809,2.298 0.06,2.718 0.37,0.09 -0.37,0.74 -0.65,1.16 -1.759,-0.23 -3.997,0.739 -6.456,1.869 1.159,-2.439 -1.389,-4.168 7.966,-6.936 -0.37,0.48 -0.65,0.849 -0.91,1.189l-0.01 0zm-0.539 -2.159l-2.379 -1.159c2.378,-1.419 4.677,-2.778 7.256,-4.308 4.167,0.85 -2.719,3.508 -4.878,5.467l0.001 0zm10.284 -4.867l1.639 0.82c-3.708,0.54 -3.738,0.57 -1.639,-0.82zm0.08 -0.15c0.06,-0.6 0.11,-1.189 0.17,-1.809 -0.79,0.06 -1.809,0.11 -2.829,0.17 0.82,-1.019 2.949,-0.649 3.908,-1.189 1.589,-1.759 0.769,-2.579 -2.469,-2.488 2.069,-0.94 3.908,-1.79 5.897,-2.719 4.138,0.6 5.297,2.209 4.587,4.587 -1.189,0.769 -2.638,1.699 -4.387,2.858 -1.669,0.57 -1.839,-1.249 -4.878,0.6l0.001 -0.01zm5.357 4.907c0.789,-1.049 1.389,-1.789 2.009,-2.608 1.759,-0.26 3.258,-0.43 5.667,-0.74l-7.676 3.338 0 0.01zm9.944 -19.268l-0.03 0c0.23,0.37 0.48,0.769 0.71,1.109 -1.589,1.05 -3.029,2.039 -4.508,3.028 -2.349,-0.369 -2.438,-1.759 -0.26,-4.137 3.059,-1.049 5.747,-1.979 9.685,-3.338 -1.959,-0.03 -2.859,-0.06 -4.028,-0.06 0.54,-0.62 1.219,-1.329 1.959,-2.129 4.757,0.91 4.198,1.729 -3.538,5.526l0.01 0.001zm19.719 1.189c0.06,-0.23 1.669,-0.789 2.609,-1.219 0,0.51 -0.03,0.989 -0.03,1.589 -2.349,0.62 -2.749,0.17 -2.579,-0.37l0 0zm1.329 2.699l-1.869 -0.94c2.948,-0.769 2.859,-0.11 1.869,0.94zm-2.858 3.817c-0.14,0.31 -0.4,0.85 -0.65,1.419l0 -0.029c-1.279,0.649 -2.609,1.299 -3.738,1.979 -4.507,2.638 -1.189,1.809 -7.305,2.858 0.649,-1.419 1.249,-2.779 1.869,-4.107 2.888,-0.62 6.116,-1.33 9.834,-2.13l-0.01 0.01zm-5.637 -11.673l-1.639 0.77 -1.699 -0.85c1.529,-0.739 0.769,-0.71 3.338,0.09l0 -0.01zm2.569 -12.302c-0.101,0.17 -0.16,0.33 -0.131,0.47 -0.06,-0.07 -0.129,-0.14 -0.23,-0.2 0.13,-0.09 0.25,-0.18 0.361,-0.27l0 0zm-72.24 40.355c3.598,-1.838 3.228,-3.148 5.017,-4.677 -1.279,0.03 -2.179,0.06 -3.088,0.06 7.306,-2.179 5.807,-0.43 6.346,1.109 1.56,-1.109 2.689,-1.788 3.538,-2.468 0.96,-0.789 1.39,-1.589 2.579,-2.299 3.338,-2.068 4.217,-3.687 4.107,-5.157 1.359,-0.569 3.678,-1.329 3.828,-1.638 0.91,-1.839 3.968,-1.979 6.766,-2.689 0.43,-0.709 1.449,-1.639 1.05,-2.039 -0.45,-0.429 -2.239,-0.339 -3.168,-0.449l6.176 -4.898 -1.959 -0.989c2.079,-1.069 3.738,-1.959 5.247,-1.539l4.358 -1.809c-1.676,0.192 -1.131,-1.671 -0.85,-2.429 0.34,-0.509 5.497,-2.149 2.919,-2.658 5.606,-2.129 2.238,-4.617 8.755,-6.316 0.909,1.049 -1.619,3.148 1.079,3.597 0.54,-0.849 4.078,-2.148 1.98,-2.638 4.731,-3.714 2.602,-2.594 7.805,-4.237l0.08 0.05c0,0 0.08,-0.06 0.11,-0.09l-0.03 -0.03c-0.49,0.219 -2.9,-1.366 -3.748,-1.159 -1.099,0.57 -1.649,0.44 -2.309,0.28 -0.52,-0.12 -1.069,-0.23 -1.649,-0.34 -2.019,-0.02 -3.878,-0.04 -5.627,-0.06l-0.38 0.17 -0.629 -0.18c-3.108,-0.04 -5.847,-0.09 -8.505,-0.19 -0.86,0.4 -1.789,0.83 -2.959,1.37 0,-0.69 0.55,-1.14 1.509,-1.43l-11.753 -0.96c0.02,0.07 0.04,0.14 0.05,0.22 -5.437,1.02 -9.065,3.198 -12.353,4.677 -0.54,1.28 -0.65,2.149 -1.39,3.148 -1.299,1.789 -1.469,1.809 -4.787,2.859 -0.17,-0.62 -0.31,-1.28 -0.57,-2.269 -7.306,3.628 -6.546,5.896 -9.665,8.555 5.128,-0.71 4.048,-3.318 9.405,-3.968 -1.449,0.85 -2.609,1.529 -4.167,2.468 1.529,0.2 2.808,0.34 4.307,0.54 -1.389,0.31 -2.828,0.54 -3.148,0.74 -9.494,6.626 -5.237,6.546 -7.086,7.675 -0.63,0.39 -1.169,0.769 -1.649,1.139 -0.33,1.419 -0.65,2.849 -0.959,4.277 2.268,-1.699 3.318,-1.918 4.967,-1.189 -1.56,1.329 -2.979,2.578 -4.368,3.798 0.4,0 0.82,0.03 1.28,0.03 1.559,-0.91 3.118,-1.809 4.957,-2.888 0.6,0.23 1.159,0.479 1.869,0.769 -2.888,1.389 -5.497,2.638 -8.106,3.878 0.17,0.11 0.31,0.199 0.45,0.28 1.619,-0.48 3.228,-0.99 5.097,-1.56 0.28,0.45 0.48,0.79 0.77,1.28 -2.748,0.45 -4.897,0.819 -6.966,1.189 -0.509,0.5 -0.959,0.95 -1.449,1.439 -0.05,0.27 -0.1,0.53 -0.16,0.8 5.897,-1.479 2.239,1.059 3.078,1.709 1.32,1.069 -1.769,2.628 -4.227,4.117 0,0.04 -0.01,0.08 -0.02,0.11 1.329,-0.13 2.259,-0.21 3.168,-0.29 -3.058,2.539 -2.649,1.619 -3.878,4.408l-0.65 3.857c2.419,-0.979 5.937,-2.928 9.175,-3.058 0.14,-0.769 -0.399,-1.529 0.43,-1.959l0 -0.049zm10.574 -12.892l-1.639 -0.819 8.326 -3.658c0.199,0.769 0.509,1.419 0.399,2.208l0.03 0.001c-0.029,0.17 -1.219,0.649 -1.958,1.019 -1.36,-0.54 -3.399,1.049 -5.158,1.249zm2.859 2.069c0.34,-1.329 0.679,-2.149 2.318,-3.198 0.77,0.199 1.559,0.429 2.319,0.619 -1.22,0.68 -2.469,1.359 -4.648,2.578l0.011 0.001zm10.194 -21.137c-0.17,-0.09 -0.34,-0.2 -0.51,-0.28l3.828 -1.669c0.23,0.11 0.43,0.23 0.62,0.34 -1.3,0.539 -2.639,1.079 -3.938,1.619l0 -0.01zm16.121 0.03c-1.419,0.28 -2.859,0.569 -4.758,0.959 0.23,0.48 0.431,0.939 0.68,1.499l-6.086 2.659c1.359,-3.428 3.737,-4.988 11.473,-7.676l1.62 -0.06c-1.53,0.91 -4.218,1.959 -2.919,2.609l-0.01 0.01zm3.718 -9.234c-3.518,4.107 -0.6,4.107 -0.2,4.557 -0.31,0.17 -0.619,0.34 -0.939,0.509l-5.777 0.54c-1.39,0.57 -2.778,1.13 -4.678,1.899 0.23,-1.159 2.489,-1.729 3.768,-2.439 -0.82,-0.619 2.179,-2.438 -0.679,-2.438 1.449,-0.62 2.888,-1.25 4.617,-2.009 0.14,0.6 0.26,0.989 0.37,1.359 1.329,-0.789 2.439,-1.449 3.518,-2.129l0 0.151zm10.424 -2.069l-8.485 3.698c1.469,-1.419 0.46,-2.129 3.438,-3.128 1.19,-0.43 2.689,-0.34 5.047,-0.57l0 0zm-4.987 -2.069c-1.789,1.299 -3.598,2.609 -5.407,3.908 -1.389,0.089 -2.749,0.17 -4.078,0.259 0.4,-0.569 0.769,-1.129 1.129,-1.669l8.356 -2.488 0 -0.01zm-16.661 4.198c4.095,-1.098 4.121,-1.361 8.156,-1.67l-6.717 2.919c0.4,0.54 0.74,0.939 1.02,1.359 -2.149,0.399 -4.308,0.819 -6.457,1.249 1.36,-1.3 2.749,-2.639 3.998,-3.858l0 0.001zm-5.467 3.367c0.54,-0.139 0.959,0.31 1.419,0.51 -1.419,0.399 -2.808,0.789 -4.447,1.279 0,-0.814 1.631,-1.447 3.028,-1.789zm-11.413 -0.909l0 -0.03c1.049,-0.48 2.239,-1.019 3.488,-1.589 -0.48,-0.31 -0.96,-0.65 -1.56,-1.05l8.725 -3.797c0.37,1.529 -3.428,3.318 -5.097,4.847 -0.14,1.019 -0.28,2.009 -0.43,3.228 -2.298,0.4 -3.878,0.679 -5.216,0.91 0.029,-0.88 0.06,-1.67 0.089,-2.519l0.001 0zm5.776 5.896c-0.509,0.23 -1.019,0.48 -1.559,0.71l-1.729 -0.849c1.559,-0.71 0.71,-0.74 3.288,0.139zm-6.116 1.07l1.589 1.079c-2.888,0.71 -5.267,1.28 -8.925,2.149l7.336 -3.228zm-15.361 11.253c-0.231,-0.09 -0.45,-0.2 -0.68,-0.31l3.938 -1.729c0.2,0.09 0.37,0.17 0.6,0.28 -1.28,0.6 -2.579,1.19 -3.858,1.759l0 0zm3.118 1.589c0.909,-4.987 13.312,-6.117 19.349,-6.996 -3.488,1.469 -6.407,1.02 -9.975,2.858 -2.748,1.419 -6.066,2.688 -9.374,4.138zm3.858 33.759c0,0 0.06,-0.03 0.089,-0.06 0,0 -0.029,0 -0.06,-0.03l-0.019 0.09 -0.01 0zm-10.595 4.767c-0.619,1.159 0.11,1.359 2.779,0.879 3.198,-0.619 6.316,-1.08 9.545,-1.619 0.819,-0.939 2.008,-2.039 2.718,-3.088 0.6,-0.85 0.65,-1.619 0.94,-2.408 -1.839,0.899 -3.728,2.278 -5.398,1.479 -2.938,1.579 -5.447,0.5 -1.968,-1 0.679,0.31 1.359,0.62 2.008,0.91l4.388 -1.869 -1.729 -0.6c-1.129,0.17 -2.269,0.37 -3.398,0.57 -1.499,-0.65 -1.699,-1.639 -0.23,-3.199 0.6,-0.599 0.06,-1.079 -0.03,-1.618 -1.329,0.6 -2.688,1.219 -4.048,1.809 -1.469,-0.37 -2.978,-0.74 -4.537,-1.129 -2.179,1.528 -4.138,2.917 -6.347,4.446 -0.41,-0.089 -0.809,-0.189 -1.219,-0.28l-0.33 3.219c4.178,-2.958 2.659,-2.259 8.835,-3.808 -0.679,0.939 -2.069,1.959 -1.109,2.609 0.449,0.309 -0.94,1.359 -1.869,2.578 -3.948,-1.229 -2.429,-0.97 -5.897,-0.87l-0.26 3.298c4.048,-1.803 8.102,-2.064 7.146,-0.31l0.01 0.001zm-1.508 -8.076c3.228,-0.769 5.157,-1.189 7.056,-1.639 -1.16,0.77 -2.319,1.56 -3.489,2.319 -0.909,-0.17 -1.868,-0.37 -3.567,-0.68zm12.092 3.319c0,0 0,0 0.01,0l-0.03 0c0,0 0.01,0 0.02,0zm57.009 -58.704c-0.06,0.03 -0.14,0.06 -0.2,0.09l0.31 -0.03 -0.11 -0.06zm-59.297 -2.518c0.11,-0.2 1.899,-0.79 2.978,-1.219 -0.17,-0.2 -0.14,-0.54 -0.6,-0.54 -1.049,-0.02 -2.178,0.01 -3.408,0.06l-1.039 3.408c0.989,-0.51 1.759,-1.07 2.069,-1.72l0 0.011zm-13.143 55.556l0.17 -0.09 -0.17 0.03 0 0.06zm0.03 0c-0.48,0.229 -0.939,0.459 -1.409,0.689 -0.03,0.32 -0.06,0.629 -0.09,0.95 1.838,-0.81 1.499,-1.266 1.499,-1.639zm-0.999 -2.959c-0.02,0.16 -0.05,0.33 -0.07,0.49 0.519,-0.32 1.029,-0.64 1.549,-0.96 -0.5,0.15 -0.989,0.31 -1.479,0.47zm1.878 1.679c-0.599,-0.08 -1.329,-0.08 -2.078,-0.07 -0.05,0.45 -0.1,0.9 -0.14,1.35 0.46,-0.07 0.93,-0.12 1.399,-0.09 0.834,-0.137 1.983,-1.19 0.819,-1.19zm149.126 -38.956l2.179 -4.197c-3.908,1.559 -3.938,2.828 -4.677,3.937 -1.224,1.801 2.495,0.26 2.498,0.26zm29.064 99.129c-0.57,1.299 -0.909,2.098 -1.329,3.088 2.888,-1.839 3.338,-2.858 1.329,-3.088zm-15.122 -72.605c3.258,-2.179 3.289,-2.179 2.919,-3.628 -1.839,0.91 -3.688,1.789 -5.777,2.809l2.858 0.819zm-69.38 -31.391c3.088,-0.03 2.318,1.929 0.959,4.048 1.28,-0.34 2.129,-0.6 3.518,-0.96 -2.239,1.67 -3.828,2.888 -5.837,4.388 1.419,-0.34 2.379,-0.57 3.598,-0.85 -1.279,1.109 -2.298,1.959 -3.488,2.978 1.159,0.2 2.179,0.37 3.368,0.57 3.148,-3.688 5.217,-5.497 8.815,-7.505 -0.06,0.71 0.09,1.249 -0.26,1.959 -1.279,2.638 -1.019,3.058 4.927,1.728 -1.728,2.689 -3.518,5.527 -5.217,8.215 1.16,-0.17 2.009,-0.28 3.708,-0.539 -3.737,1.449 -6.406,2.348 -7.026,4.197 -0.139,0.4 -5.097,3.908 -4.277,6.316 -2.299,2.039 -2.609,3.428 -2.999,4.898 6.746,-3.768 5.727,-3.708 5.977,-5.917 2.129,-1.299 3.688,-2.408 4.367,-3.737 0.74,-1.469 2.239,-3.258 6.007,-4.957 1.189,0.11 2.349,0.23 3.828,0.34 2.208,-2.828 1.129,-1.959 5.127,-3.508 -0.48,-0.619 -0.85,-1.079 -1.19,-1.529 3.258,-1.589 5.047,-3.198 5.917,-4.787 1.759,-0.51 3.148,-0.91 4.817,-1.419 -1.359,1.109 -2.318,1.869 -3.198,2.578 1.249,2.149 1.619,4.557 -3.199,9.155 4.818,-3.089 10.255,-5.867 12.633,-8.955 1.5,-0.62 2.949,-1.219 4.308,-1.809 -0.28,0.82 -0.43,1.299 -0.6,1.759 11.364,-3.907 3.318,-3.088 12.014,-8.644l-2.829 -0.82c1.499,-1.669 3.858,-4.817 6.686,-5.437 1.249,-0.279 1.699,0.14 0.06,1.449 -2.129,1.639 -3.118,2.979 -1.899,3.508l5.607 -3.797c3.798,-0.2 0.23,2.658 -0.369,4.167 -0.6,1.619 -2.519,3.738 -3.878,5.607 2.068,-0.77 4.557,-0.91 6.546,-3.228 2.638,-3.089 5.217,-6.147 7.985,-9.405 0.03,0 0.06,0 0.1,-0.009l-1.569 -5.147c-2.768,0.8 -5.537,1.619 -8.975,2.329 -1.049,0.739 -2.109,1.468 -3.518,2.458 -0.16,-0.859 0.88,-1.539 1.999,-2.168 -0.999,0.189 -2.049,0.369 -3.158,0.539 -1.309,1.629 -3.018,3.398 -6.716,5.927 1.119,-2.069 2.009,-3.748 2.898,-5.397 -7.887,0.966 -15.707,1.44 -25.026,1.789 -1.919,0.07 -3.918,0.14 -5.997,0.2 -0.249,0.129 -0.519,0.259 -0.799,0.399 0.05,-0.13 0.12,-0.26 0.19,-0.38 -3.648,0.101 -7.566,0.16 -11.883,0.2 -0.8,1.06 -1.56,2.269 -4.708,3.728 0.76,-1.259 1.489,-2.468 2.249,-3.718l-5.336 -0.001c-0.939,2.209 -3.878,5.087 -2.428,6.406 0.34,0.28 -1.3,1.759 -2.149,2.719 -1.09,-0.32 -2.549,0.799 -3.908,1.618l0 1.63c2.794,-1.209 1.56,-0.48 4.247,-3.169l-0.019 -0.01zm42.776 -0.569c-0.82,0.399 -1.79,0.17 -3.319,0.259 2.999,-1.928 4.728,-3.028 7.456,-4.787 -1.249,1.869 -0.709,2.858 -4.137,4.537l0 -0.009zm1.159 -8.015c1.529,-0.09 2.999,-0.45 1.729,1.079 -1.389,1.619 -0.23,2.778 -4.707,4.987l2.978 -6.066zm-7.076 3.397c0.569,-1.079 1.019,-1.928 1.619,-3.058 1.959,0.23 1.449,1.249 -1.619,3.058zm-1.249 -3.907c1.219,-0.17 2.638,-0.4 0.769,1.299l-2.069 -0.6c0.65,-0.37 1.13,-0.679 1.3,-0.71l0 0.011zm-8.556 6.596c0.23,-0.2 0.96,-0.48 1.56,-0.77 -0.34,1.5 -0.65,2.949 -1.02,4.558 -1.809,0.28 -3.538,0.569 -5.387,0.849 1.589,-1.529 3.148,-3.088 4.847,-4.647l0 0.01zm-4.027 12.442c-1.39,0.37 -1.39,0.03 -0.88,-0.82 0.77,-1.249 0.79,-2.268 1.22,-3.597 0.879,-0.09 1.959,-0.231 3.118,-0.37 1.869,-1.13 3.798,-2.269 5.727,-3.428 -0.77,1.529 -3.428,2.858 -5.047,4.198l0.03 0.029c-1.619,1.33 -2.809,2.659 -4.168,3.998 0.17,0.09 0.34,0.14 0.51,0.23 -1.33,0.989 -2.689,1.979 -4.048,2.978 -0.2,-1.159 1.729,-2.178 3.538,-3.198l0 -0.02zm49.322 17.789l-0.06 0c0,0 0.03,0.03 0,0.03l0.06 -0.03zm10.374 72.775c-4.707,2.349 -4.678,3.428 -4.817,4.707 3.938,-1.899 3.737,-2.998 4.817,-4.707zm-3.088 -55.945c-0.34,0.06 -0.68,0.09 -1.02,0.14l-3.538 2.407c0.85,0.11 1.56,0.23 2.749,0.4 0.82,-1.329 1.299,-2.129 1.809,-2.948l0 0.001zm3.827 17.868c-0.259,-2.149 0.091,-1.419 -0.989,-3.228 -0.679,0.34 -1.359,0.68 -2.069,1.02 -0.509,1.249 -1.019,2.518 -1.559,3.857l4.617 -1.638 0 -0.011zm-82.503 -47.33c-1.799,2.049 -3.528,4.087 -5.217,6.126l0 7.666c5.787,-7.146 5.357,-6.386 8.216,-15.621 -1.16,0.71 -2.609,1.39 -2.999,1.839l0 -0.01zm72.669 26.144l0.22 -0.06 -0.23 0.06 0.01 0zm0.23 -15.72c3.058,-2.409 2.719,-3.598 3.488,-5.327 -10.004,6.036 -11.163,7.905 -5.047,7.535 0.48,-0.739 0.62,-1.499 1.559,-2.208l0 0zm4.838 84.647c-0.79,1.279 -1.3,2.069 -1.899,3.028l5.467 -2.009 -3.568 -1.019zm-21.359 -46.861l-4.507 3.028c2.348,-0.6 3.538,-1.419 4.507,-3.028zm-2.488 49.04c2.178,-1.16 4.277,-2.349 5.806,-4.477l-6.456 4.337c0.23,0.06 0.45,0.09 0.65,0.14zm9.714 2.268c-3.228,1.529 -2.468,2.489 -3.857,4.308 4.027,-2.239 6.886,-1.639 10.734,-4.927 -0.79,-1.329 -3.229,-1.11 -6.887,0.619l0.01 0zm-19.639 4.867c0.2,0.06 0.43,0.11 0.62,0.14l3.368 -2.239c-0.23,-0.09 -0.48,-0.139 -0.71,-0.199l-3.288 2.298 0.01 0zm26.066 -16.46c0.23,0.06 0.429,0.09 0.649,0.14 2.149,-1.189 4.278,-2.408 4.818,-3.828l-5.467 3.688zm-25.746 -74.104l-5.946 4.028c2.039,-0.569 3.458,-0.959 5.097,-1.419l0.849 -2.609zm26.995 14.561c1.589,-1.079 3.538,-2.298 1.499,-2.238l-5.496 3.597 0 -0.029c-0.091,0.06 -0.11,0.109 -0.2,0.17l0.24 -0.101c0.549,0.939 2.318,-0.299 3.958,-1.399l-0.001 0zm-3.628 4.307c0.14,-1.109 -3.658,-0.34 -0.57,-2.807 -3.658,1.388 -4.587,2.098 -5.267,3.857 -0.51,1.389 0.79,1.159 5.837,-1.05zm-6.826 10.594c-0.54,-1.469 3.938,-4.727 0.09,-4.557 -1.05,0.769 -2.979,2.099 -2.919,2.129 1.399,0.323 -1.66,3.27 2.839,2.438l-0.01 -0.01zm-8.835 1.159c1.639,-2.978 1.019,-4.337 -1.929,-4.048l0.88 1.22c0.06,0.139 -0.48,0.57 -0.91,1.019 -1.129,0.06 -2.099,0.09 -3.458,0.14 -2.239,3.938 -1.19,4.168 5.407,1.669l0.01 0zm35.93 49.06c0,-0.11 0,-0.23 0,-0.34 -0.06,0.15 -0.11,0.29 -0.18,0.46 0.06,-0.04 0.12,-0.08 0.18,-0.12l0 0zm-1.34 3.977c-1.249,1.11 -2.318,2.099 -3.398,3.058 2.449,-0.24 3.518,-0.509 4.538,-1.489l0.199 -3.038c0,-0.779 0,-1.549 0,-2.318 -1.549,1.089 -2.528,1.799 -3.627,2.578 0.849,0.45 1.589,0.849 2.298,1.219l-0.01 -0.01zm-3.477 3.109c0,0 0.049,-0.03 0.069,-0.05l-0.06 0 -0.02 0.05 0.011 0zm-87.441 -124.953l-0.88 -0.03 0 1.529c0.37,-0.32 1.07,-0.8 2.159,-1.499l-1.279 0zm87.57 90.194c-0.539,0.23 -1.559,0.62 -2.718,1.11 0.03,0.989 1.559,0.539 3.228,0.169 1.19,-0.259 -0.96,2.009 1.449,1.42 0.26,-0.06 0.679,-0.34 1.249,-0.62 0.1,-0.83 1.099,-2.019 1.799,-3.138l-0.02 -2.658c-0.199,-0.09 -0.429,-0.16 -0.739,-0.21 -1.67,1.559 -2.859,2.658 -4.248,3.937l0 -0.01zm-83.853 -87.735c0.33,-0.69 1.359,-1.62 2.079,-2.439l-3.528 0c-0.36,0.69 -0.659,1.249 -0.959,1.838 -1.069,0.121 -1.799,0.2 -2.179,0.17l0 5.777c2.589,-1.879 3.778,-3.638 4.587,-5.346zm83.683 122.494l0.03 0 0.03 -0.06c0,0 -0.03,0.03 -0.06,0.06l0 0zm-4.497 2.069c-1.249,1.469 -2.149,2.888 -3.508,4.727 0.14,0.03 0.82,0.109 1.449,0.2 4.028,-2.549 5.807,-4.558 5.357,-6.087 -0.03,-0.09 0.77,-0.569 1.219,-0.909 -0.539,-0.11 -1.049,-0.2 -1.589,-0.31 -0.989,0.79 -2.298,1.669 -2.918,2.379l-0.01 0zm8.335 2.178c0.21,-0.14 0.42,-0.28 0.63,-0.43 0.03,-0.439 0.06,-0.869 0.08,-1.289 -0.969,0.38 -1.859,0.73 -2.878,1.13l2.168 0.589zm0.02 0.01l-0.02 -0.01 -0.01 0.01 0.03 0zm-3.828 -4.227l0.011 -0.03 -0.011 0 0 0.03zm4.648 -13.542c0,0 0.12,-0.04 0.23,-0.09 0,-0.39 0,-0.78 0.009,-1.179 -0.179,-0.07 -0.359,-0.15 -0.559,-0.24 -2.311,2.071 0.155,1.349 0.32,1.509zm-9.575 -67.988c-0.51,-0.989 3.658,-4.198 -0.939,-3.058 -0.68,1.219 -1.25,2.239 -1.839,3.288 -1.469,0.57 -2.489,0.959 -2.549,0.989 -2.099,1.76 -3.568,2.979 -5.067,4.218 -2.519,0.339 -3.488,0.849 -4.617,2.438 -0.82,1.19 -1.639,2.349 -2.779,3.967 2.888,-1.248 4.728,-2.038 6.597,-2.828 -0.4,-0.479 -3.199,0.17 -0.14,-1.958 0.74,0.199 1.419,0.399 2.149,0.599 0.48,-0.369 0.959,-0.709 1.449,-1.079 0.79,0.14 1.589,0.28 2.408,0.43 1.98,-0.79 3.998,-1.619 5.917,-2.379 -0.11,1.959 -1.959,3.688 -7.336,5.527 1.16,0.26 1.759,0.369 2.349,0.479 9.035,-5.496 9.155,-5.576 10.025,-8.275 -0.88,0.23 -1.729,0.45 -2.579,0.65 0.6,-1.049 2.009,-0.989 2.778,-1.559 0.29,-0.32 0.57,-0.62 0.85,-0.93 -0.18,-0.979 -0.35,-1.969 -0.53,-2.948 -1.339,1.069 -2.808,2.229 -4.627,3.688 1.419,-1.839 1.249,-2.519 -1.529,-1.25l0.009 -0.009zm-0.48 2.609c-2.518,1.359 -4.817,2.608 -7.106,3.828 0.37,-0.54 0.48,-1.11 1.16,-1.589 1.898,-1.39 4.027,-2.749 7.086,-4.818 -0.57,1.329 -0.91,2.069 -1.13,2.579l-0.01 0zm-1.169 -22.886c-1.109,1.838 -1.759,3.517 -2.608,5.236 4.137,-2.268 5.686,-3.338 6.826,-4.327 -0.25,-1.099 -0.5,-2.188 -0.75,-3.288 -1.499,0.6 -2.838,1.309 -3.468,2.379zm5.137 5.376c0,0 0.06,-0.02 0.09,-0.029 -0.04,-0.17 -0.07,-0.34 -0.11,-0.51 -0.316,0.475 -0.11,0.205 0.01,0.54l0.01 -0.001zm-12.383 -13.681c-5.097,2.978 -6.516,5.916 -11.244,8.834 2.239,0.91 -2.609,5.217 1.219,4.927 -1.389,1.669 -2.828,3.088 -3.458,4.248 -0.6,1.079 -2.408,2.978 1.56,1.869 1.109,-0.96 2.318,-2.069 3.598,-3.199 1.129,-0.45 2.658,-1.049 4.047,-1.589 -0.279,0.74 -0.449,1.22 -0.619,1.699 2.488,-1.219 4.587,-2.208 6.886,-3.338 0.77,-2.528 2.769,-5.286 8.455,-8.754l-1.739 -6.206c-0.6,0.43 -1.948,1.089 -3.797,2.188 1.199,-1.909 2.248,-3.448 3.038,-4.867 -0.55,-1.928 -1.12,-3.828 -1.759,-5.856 -2.259,4.147 -5.248,9.474 -6.187,10.034l0 0.01zm-0.88 8.725c-0.849,1.559 -0.17,3.168 -5.297,5.806 -0.479,-2.489 0.17,-5.237 4.818,-9.514 4.677,-0.74 1.299,2.239 0.479,3.708zm14.253 32.919c1.279,-0.71 2.608,-1.419 3.757,-2.338 -0.029,-0.25 -0.049,-0.49 -0.08,-0.73l-4.307 2.908c0.199,0.06 0.399,0.11 0.619,0.17l0.011 -0.01zm5.437 21.656l0 -0.669c-0.36,0.22 -0.69,0.439 -0.93,0.639 0.3,0.02 0.69,0.08 0.93,0.04l0 -0.01zm-4.278 -0.719c0.06,-0.03 0.11,-0.09 0.17,-0.11l-0.28 0.09c0,0 0.08,0.029 0.11,0.029l0 -0.009zm-6.377 1.219c-1.079,2.179 -1.869,0.939 -4.447,3.198 -2.689,2.349 -3.598,4.248 -4.897,6.256 -1.22,1.839 -1.16,2.948 2.548,2.299 1.869,-1.699 3.768,-3.458 5.637,-5.127 -0.14,-0.54 -0.939,-1.019 -0.28,-1.559 2.489,-2.099 3.708,-4.217 7.706,-6.316 -1.05,-0.28 -2.129,-0.6 -3.318,-0.94l-2.949 2.189zm6.547 -1.339c0.71,0.14 1.389,0.31 2.069,0.48l1.949 -1.32 -0.11 -1.838 -0.07 -0.02c-1.469,1.019 -2.689,1.868 -3.858,2.688l0.02 0.01z"/>
   </g>
  </g>
  <path fill="none" d="M69.622 5.532c-9.32,-0.113 -15.317,-0.1 -21.532,-0.475 -6.215,-0.375 -12.649,-1.137 -18.001,-2.044 -5.351,-0.908 -9.62,-1.96 -13.89,-3.013l-2.056 6.766c-2.101,6.05 -3.233,10.386 -4.916,16.285 -0.249,0.873 -0.435,1.453 -0.642,2.333 -2.36,10.025 -4.55,19.989 -6.162,30.214 -0.554,3.516 -0.787,7.435 -1.226,10.942l-0.435 5.757c-0.045,1.83 -0.234,3.899 -0.37,5.626 -0.078,0.987 0.009,2.192 -0.003,3.205 -0.013,1.158 -0.208,1.511 -0.203,2.794 0.009,2.038 0.069,4.202 0.011,6.226 -0.028,1.013 -0.181,1.575 -0.197,2.723l0.192 9.099c-0.03,8.303 0.172,15.985 0.183,24.267 0.002,1.267 0.207,1.666 0.202,2.996 -0.004,0.925 -0.065,2.104 0.005,3.001 0.131,1.645 0.218,4.048 0.519,5.469 1.056,4.985 5.703,6.849 10.073,7.859 3.312,0.766 6.714,1.111 10.138,1.576 4.01,0.545 19.376,0.399 23.493,-0.086 6.45,-0.761 15.507,-0.276 22.162,-1.971 7.272,-1.853 6.398,-2.822 7.435,-7.425 0.87,-3.869 2.219,-13.998 3.169,-16.919 0.807,-2.484 1.721,-7.868 2.195,-10.524 0.344,-1.99 1.133,-3.678 1.718,-5.612 1.344,-4.441 1.694,-7.626 2.92,-12.169 0.377,-1.398 0.722,-2.38 1.102,-3.854 0.997,-3.864 2.19,-8.249 2.968,-12.117 0.575,-2.856 1.095,-5.36 1.653,-8.289l2.191 -12.734c0.189,-0.998 0.23,-2.248 1.182,-2.596 0.952,0.348 0.993,1.598 1.182,2.596l2.191 12.734c0.558,2.929 1.077,5.433 1.652,8.289 0.779,3.868 1.972,8.253 2.968,12.117 0.38,1.474 0.725,2.456 1.103,3.854 1.226,4.543 1.576,7.728 2.919,12.169 0.585,1.934 1.375,3.622 1.719,5.612 0.473,2.654 1.389,8.042 2.195,10.524 0.949,2.921 2.299,13.05 3.169,16.919 1.037,4.603 0.163,5.572 7.434,7.425 6.656,1.695 15.712,1.21 22.163,1.971 4.117,0.485 19.483,0.631 23.492,0.086 3.425,-0.465 6.827,-0.81 10.138,-1.576 4.371,-1.01 9.018,-2.874 10.074,-7.859 0.301,-1.421 0.388,-3.824 0.519,-5.469 0.07,-0.897 0.009,-2.076 0.005,-3.001 -0.005,-1.33 0.2,-1.729 0.202,-2.996 0.011,-8.282 0.213,-15.964 0.183,-24.267l0.191 -8.764 -0.196 -3.058c-0.058,-2.024 0.002,-4.188 0.011,-6.226 0.004,-1.283 -0.19,-1.636 -0.204,-2.794 -0.011,-1.013 0.076,-2.218 -0.002,-3.205 -0.136,-1.727 -0.325,-3.796 -0.37,-5.626l-0.436 -5.757c-0.439,-3.507 -0.671,-7.426 -1.225,-10.942 -1.612,-10.225 -3.802,-20.189 -6.162,-30.214 -0.207,-0.88 -0.394,-1.46 -0.643,-2.333 -1.682,-5.899 -2.814,-10.235 -4.915,-16.285l-2.057 -6.766c-2.951,0.866 -5.902,1.731 -9.677,2.477 -3.774,0.745 -8.371,1.369 -13.806,1.869 -5.434,0.5 -11.706,0.875 -19.026,1.15 -7.321,0.274 -15.692,0.449 -26.199,0.418 -10.507,-0.031 -23.15,-0.269 -32.47,-0.382z"/>
 </g>
</svg>
