<?xml version="1.0" encoding="UTF-8"?>
<!DOCTYPE svg PUBLIC "-//W3C//DTD SVG 1.1//EN" "http://www.w3.org/Graphics/SVG/1.1/DTD/svg11.dtd">
<!-- Creator: CorelDRAW -->
<svg xmlns="http://www.w3.org/2000/svg" xml:space="preserve" width="238px" height="298px" version="1.1" shape-rendering="geometricPrecision" text-rendering="geometricPrecision" image-rendering="optimizeQuality" fill-rule="evenodd" clip-rule="evenodd"
viewBox="0 0 238 298.123"
 xmlns:xlink="http://www.w3.org/1999/xlink"
 xmlns:xodm="http://www.corel.com/coreldraw/odm/2003">
 <defs>
   <clipPath id="id0">
    <path d="M207.298 27.894c-0.11,-0.063 -0.222,-0.122 -0.337,-0.177 -4.975,-2.38 -9.714,-5.334 -14.858,-7.149 -4.647,-1.639 -11.454,-2.699 -17.288,-4.719 -2.277,-0.789 -4.556,-1.589 -6.82,-2.415l-0.004 -0.03 -9.999 -4.08 -0.175 -0.072c-0.614,-0.28 -1.553,-1.207 -2.512,-1.889 -0.494,-0.369 -0.613,-0.563 -1.038,-0.905 -2.856,-2.299 -5.606,-5.635 -9.574,-5.641 -0.901,-0.002 -1.04,-0.123 -1.779,-0.163l-7.601 -0.17c-5.892,-0.486 -12.055,-0.501 -18.06,-0.477 -5.087,0.02 -9.557,0.063 -14.567,0.477 -2.529,0.209 -4.996,0.029 -7.6,0.17 -0.739,0.04 -0.878,0.161 -1.779,0.163 -3.968,0.006 -6.718,3.342 -9.575,5.641 -0.424,0.342 -0.543,0.536 -1.037,0.905 -0.741,0.527 -1.471,1.2 -2.047,1.608 -0.17,0.121 -0.326,0.218 -0.465,0.281l-10.174 4.152 -0.003 0.03c-2.265,0.826 -4.544,1.626 -6.821,2.415 -5.834,2.02 -12.641,3.08 -17.288,4.719 -5.144,1.815 -9.883,4.769 -14.858,7.149 -0.212,0.101 -0.412,0.215 -0.605,0.339 -0.909,0.583 -1.664,1.379 -2.651,2.001 -11.263,7.099 -18.243,27.467 -21.401,39.215 -1.569,5.839 -1.98,12.983 -2.969,19.04 -0.5,3.067 -1.172,6.193 -1.752,9.253 -0.585,3.095 -0.872,6.493 -1.288,9.631 -0.406,0.268 -0.327,-0.023 -0.308,0.899l-0.065 1.854 0 8.783c0.041,1.018 0.102,1.813 0.186,2.164 1.125,0.477 3.706,0.514 5.07,0.712 7.662,1.114 9.041,0.828 15.791,1.554l21.547 1.349c-0.015,-1.623 0.547,-10.725 0.578,-13.424l-0.603 -0.316 -0.07 -0.036c0,-4.476 -0.011,-9.226 -0.011,-13.7 1.678,4.247 3.328,18.944 3.789,24.023 0.735,8.116 1.826,16.186 2.512,24.347 0.348,4.137 0.874,8.269 1.009,12.419l0.653 12.776c0.396,4.199 0.208,8.934 0.274,13.179 0.032,2.062 0.194,4.007 0.186,6.13 -0.007,2.226 -0.172,4.349 -0.196,6.512 -0.051,4.469 -0.054,8.634 -0.319,13.111 -0.68,11.475 -1.257,26.076 -3.267,37.02 -0.966,5.407 -2.177,11.944 -2.754,17.389 -0.258,2.432 -0.827,10.057 -1.468,11.951 -0.68,2.01 -0.163,3.658 -0.568,5.77 -0.342,1.785 -0.742,3.812 -1.164,5.568 -0.463,1.93 -1.435,3.647 0.397,4.966 4.276,1.054 8.552,2.108 13.913,3.017 5.36,0.909 11.804,1.672 18.03,2.048 6.226,0.375 12.232,0.363 21.568,0.476 9.335,0.112 21.999,0.351 32.523,0.382 10.525,0.032 18.909,-0.144 26.242,-0.419 7.333,-0.275 13.615,-0.65 19.058,-1.151 5.443,-0.501 10.048,-1.126 13.829,-1.873 3.78,-0.746 6.736,-1.613 9.693,-2.48 1.832,-1.319 0.86,-3.036 0.397,-4.966 -0.422,-1.756 -0.822,-3.783 -1.164,-5.568 -0.405,-2.112 0.112,-3.76 -0.568,-5.77 -0.641,-1.894 -1.21,-9.519 -1.468,-11.951 -0.577,-5.445 -1.788,-11.982 -2.754,-17.389 -2.01,-10.944 -2.587,-25.545 -3.267,-37.02 -0.265,-4.477 -0.268,-8.642 -0.319,-13.111 -0.024,-2.163 -0.189,-4.286 -0.196,-6.512 -0.008,-2.123 0.154,-4.068 0.186,-6.13 0.066,-4.245 -0.122,-8.98 0.274,-13.179l0.653 -12.776c0.135,-4.15 0.661,-8.282 1.009,-12.419 0.686,-8.161 1.777,-16.231 2.512,-24.347 0.461,-5.079 1.889,-19.043 3.568,-23.29 0,4.474 -0.105,8.584 -0.105,13.06l0 0 -0.416 0.247c-0.004,0.882 0.338,12.091 0.604,13.423l21.579 -1.336c6.75,-0.726 8.129,-0.44 15.791,-1.554 1.364,-0.198 3.945,-0.235 5.07,-0.712 0.084,-0.351 0.145,-1.146 0.186,-2.164l0 -8.783 -0.065 -1.854c0.014,-0.687 0.062,-0.7 -0.083,-0.774 -0.05,-0.025 -0.122,-0.057 -0.225,-0.125 -0.416,-3.138 -0.703,-6.536 -1.288,-9.631 -0.58,-3.06 -1.252,-6.186 -1.752,-9.253 -0.989,-6.057 -1.4,-13.201 -2.969,-19.04 -3.158,-11.748 -10.138,-32.116 -21.401,-39.215 -1.057,-0.665 -1.895,-1.576 -2.919,-2.163z"/>
   </clipPath>
    <clipPath id="id1">
     <path d="M195.291 97.768c-0.085,-0.928 -0.17,-1.856 -0.308,-2.718 -0.137,-0.863 -0.329,-1.661 -0.099,-3.18 0.23,-1.519 0.881,-3.758 1.681,-6.311 0.801,-2.553 1.752,-5.418 2.565,-9.742 0.813,-4.323 1.489,-10.104 2.278,-15.986 0.788,-5.881 1.689,-11.863 2.652,-16.318 0.964,-4.454 1.99,-7.383 2.541,-9.31 0.55,-1.927 0.626,-2.853 0.663,-4.067 0.021,-0.674 0.03,-1.438 0.034,-2.242 -0.11,-0.063 -0.222,-0.122 -0.337,-0.177 -4.975,-2.38 -9.714,-5.334 -14.858,-7.149 -4.647,-1.639 -11.454,-2.699 -17.288,-4.719 -2.277,-0.789 -4.556,-1.589 -6.82,-2.415l-0.004 -0.03 -9.999 -4.08 -0.175 -0.072c-0.614,-0.28 -1.553,-1.207 -2.512,-1.889 -0.494,-0.369 -0.613,-0.563 -1.038,-0.905 -2.856,-2.299 -5.606,-5.635 -9.574,-5.641 -0.901,-0.002 -1.04,-0.123 -1.779,-0.163l-7.601 -0.17c-5.892,-0.486 -12.055,-0.501 -18.06,-0.477 -5.087,0.02 -9.557,0.063 -14.567,0.477 -2.529,0.209 -4.996,0.029 -7.6,0.17 -0.739,0.04 -0.878,0.161 -1.779,0.163 -3.968,0.006 -6.718,3.342 -9.575,5.641 -0.424,0.342 -0.543,0.536 -1.037,0.905 -0.741,0.527 -1.471,1.2 -2.047,1.608 -0.17,0.121 -0.326,0.218 -0.465,0.281l-10.174 4.152 -0.003 0.03c-2.265,0.826 -4.544,1.626 -6.821,2.415 -5.834,2.02 -12.641,3.08 -17.288,4.719 -5.144,1.815 -9.883,4.769 -14.858,7.149 -0.212,0.101 -0.412,0.215 -0.605,0.339 0.121,0.721 0.248,1.443 0.383,2.165 0.438,2.34 0.963,4.693 1.752,8.597 0.788,3.904 1.839,9.36 2.815,15.624 0.976,6.262 1.877,13.332 3.034,19.705 1.157,6.372 2.57,12.047 3.374,15.175 0.803,3.129 0.998,3.71 1.026,4.321 0.028,0.61 -0.11,1.248 -0.192,1.818 -0.083,0.57 -0.11,1.072 -0.138,1.574 1.678,4.247 3.328,18.944 3.789,24.023 0.735,8.116 1.826,16.186 2.512,24.347 0.348,4.137 0.874,8.269 1.009,12.419l0.653 12.776c0.396,4.199 0.208,8.934 0.274,13.179 0.032,2.062 0.194,4.007 0.186,6.13 -0.007,2.226 -0.172,4.349 -0.196,6.512 -0.051,4.469 -0.054,8.634 -0.319,13.111 -0.68,11.475 -1.257,26.076 -3.267,37.02 -0.966,5.407 -2.177,11.944 -2.754,17.389 -0.258,2.432 -0.827,10.057 -1.468,11.951 -0.68,2.01 -0.163,3.658 -0.568,5.77 -0.342,1.785 -0.742,3.812 -1.164,5.568 -0.463,1.93 -1.435,3.647 0.397,4.966 4.276,1.054 8.552,2.108 13.913,3.017 5.36,0.909 11.804,1.672 18.03,2.048 6.226,0.375 12.232,0.363 21.568,0.476 9.335,0.112 21.999,0.351 32.523,0.382 10.525,0.032 18.909,-0.144 26.242,-0.419 7.333,-0.275 13.615,-0.65 19.058,-1.151 5.443,-0.501 10.048,-1.126 13.829,-1.873 3.78,-0.746 6.736,-1.613 9.693,-2.48 1.832,-1.319 0.86,-3.036 0.397,-4.966 -0.422,-1.756 -0.822,-3.783 -1.164,-5.568 -0.405,-2.112 0.112,-3.76 -0.568,-5.77 -0.641,-1.894 -1.21,-9.519 -1.468,-11.951 -0.577,-5.445 -1.788,-11.982 -2.754,-17.389 -2.01,-10.944 -2.587,-25.545 -3.267,-37.02 -0.265,-4.477 -0.268,-8.642 -0.319,-13.111 -0.024,-2.163 -0.189,-4.286 -0.196,-6.512 -0.008,-2.123 0.154,-4.068 0.186,-6.13 0.066,-4.245 -0.122,-8.98 0.274,-13.179l0.653 -12.776c0.135,-4.15 0.661,-8.282 1.009,-12.419 0.686,-8.161 1.777,-16.231 2.512,-24.347 0.461,-5.079 1.889,-19.043 3.568,-23.29z"/>
    </clipPath>
    <clipPath id="id2">
     <path d="M207.298 27.894c-0.11,-0.063 -0.222,-0.122 -0.337,-0.177 -4.975,-2.38 -9.714,-5.334 -14.858,-7.149 -4.647,-1.639 -11.454,-2.699 -17.288,-4.719 -2.277,-0.789 -4.556,-1.589 -6.82,-2.415l-0.004 -0.03 -9.999 -4.08 -0.175 -0.072c-0.614,-0.28 -1.553,-1.207 -2.512,-1.889 -0.494,-0.369 -0.613,-0.563 -1.038,-0.905 -2.856,-2.299 -5.606,-5.635 -9.574,-5.641 -0.901,-0.002 -1.04,-0.123 -1.779,-0.163l-7.601 -0.17c-5.892,-0.486 -12.055,-0.501 -18.06,-0.477 -5.087,0.02 -9.557,0.063 -14.567,0.477 -2.529,0.209 -4.996,0.029 -7.6,0.17 -0.739,0.04 -0.878,0.161 -1.779,0.163 -3.968,0.006 -6.718,3.342 -9.575,5.641 -0.424,0.342 -0.543,0.536 -1.037,0.905 -0.741,0.527 -1.471,1.2 -2.047,1.608 -0.17,0.121 -0.326,0.218 -0.465,0.281l-10.174 4.152 -0.003 0.03c-2.265,0.826 -4.544,1.626 -6.821,2.415 -5.834,2.02 -12.641,3.08 -17.288,4.719 -5.144,1.815 -9.883,4.769 -14.858,7.149 -0.212,0.101 -0.412,0.215 -0.605,0.339 -0.909,0.583 -1.664,1.379 -2.651,2.001 -11.263,7.099 -18.243,27.467 -21.401,39.215 -1.569,5.839 -1.98,12.983 -2.969,19.04 -0.5,3.067 -1.172,6.193 -1.752,9.253 -0.585,3.095 -0.872,6.493 -1.288,9.631 -0.406,0.268 -0.327,-0.023 -0.308,0.899l-0.065 1.854 0 8.783c0.041,1.018 0.102,1.813 0.186,2.164 1.125,0.477 3.706,0.514 5.07,0.712 7.662,1.114 9.041,0.828 15.791,1.554l21.547 1.349c-0.015,-1.623 0.547,-10.725 0.578,-13.424l-0.603 -0.316 -0.07 -0.036c0,-4.476 -0.011,-9.226 -0.011,-13.7 1.678,4.247 3.328,18.944 3.789,24.023 0.735,8.116 1.826,16.186 2.512,24.347 0.348,4.137 0.874,8.269 1.009,12.419l0.653 12.776c0.396,4.199 0.208,8.934 0.274,13.179 0.032,2.062 0.194,4.007 0.186,6.13 -0.007,2.226 -0.172,4.349 -0.196,6.512 -0.051,4.469 -0.054,8.634 -0.319,13.111 -0.68,11.475 -1.257,26.076 -3.267,37.02 -0.966,5.407 -2.177,11.944 -2.754,17.389 -0.258,2.432 -0.827,10.057 -1.468,11.951 -0.68,2.01 -0.163,3.658 -0.568,5.77 -0.342,1.785 -0.742,3.812 -1.164,5.568 -0.463,1.93 -1.435,3.647 0.397,4.966 4.276,1.054 8.552,2.108 13.913,3.017 5.36,0.909 11.804,1.672 18.03,2.048 6.226,0.375 12.232,0.363 21.568,0.476 9.335,0.112 21.999,0.351 32.523,0.382 10.525,0.032 18.909,-0.144 26.242,-0.419 7.333,-0.275 13.615,-0.65 19.058,-1.151 5.443,-0.501 10.048,-1.126 13.829,-1.873 3.78,-0.746 6.736,-1.613 9.693,-2.48 1.832,-1.319 0.86,-3.036 0.397,-4.966 -0.422,-1.756 -0.822,-3.783 -1.164,-5.568 -0.405,-2.112 0.112,-3.76 -0.568,-5.77 -0.641,-1.894 -1.21,-9.519 -1.468,-11.951 -0.577,-5.445 -1.788,-11.982 -2.754,-17.389 -2.01,-10.944 -2.587,-25.545 -3.267,-37.02 -0.265,-4.477 -0.268,-8.642 -0.319,-13.111 -0.024,-2.163 -0.189,-4.286 -0.196,-6.512 -0.008,-2.123 0.154,-4.068 0.186,-6.13 0.066,-4.245 -0.122,-8.98 0.274,-13.179l0.653 -12.776c0.135,-4.15 0.661,-8.282 1.009,-12.419 0.686,-8.161 1.777,-16.231 2.512,-24.347 0.461,-5.079 1.889,-19.043 3.568,-23.29 0,4.474 -0.105,8.584 -0.105,13.06l0 0 -0.416 0.247c-0.004,0.882 0.338,12.091 0.604,13.423l21.579 -1.336c6.75,-0.726 8.129,-0.44 15.791,-1.554 1.364,-0.198 3.945,-0.235 5.07,-0.712 0.084,-0.351 0.145,-1.146 0.186,-2.164l0 -8.783 -0.065 -1.854c0.014,-0.687 0.062,-0.7 -0.083,-0.774 -0.05,-0.025 -0.122,-0.057 -0.225,-0.125 -0.416,-3.138 -0.703,-6.536 -1.288,-9.631 -0.58,-3.06 -1.252,-6.186 -1.752,-9.253 -0.989,-6.057 -1.4,-13.201 -2.969,-19.04 -3.158,-11.748 -10.138,-32.116 -21.401,-39.215 -1.057,-0.665 -1.895,-1.576 -2.919,-2.163z"/>
    </clipPath>
    <clipPath id="id3">
     <path d="M42.488 97.035c0.028,-0.502 0.055,-1.004 0.138,-1.574 0.082,-0.57 0.22,-1.208 0.192,-1.818 -0.028,-0.611 -0.223,-1.192 -1.026,-4.321 -0.804,-3.128 -2.217,-8.803 -3.374,-15.175 -1.157,-6.373 -2.058,-13.443 -3.034,-19.705 -0.976,-6.264 -2.027,-11.72 -2.815,-15.624 -0.789,-3.904 -1.314,-6.257 -1.752,-8.597 -0.135,-0.722 -0.262,-1.444 -0.383,-2.165 -0.909,0.583 -1.664,1.379 -2.651,2.001 -11.263,7.099 -18.243,27.467 -21.401,39.215 -1.569,5.839 -1.98,12.983 -2.969,19.04 -0.5,3.067 -1.172,6.193 -1.752,9.253 -0.585,3.095 -0.872,6.493 -1.288,9.631 0.744,0.196 1.489,0.392 4.426,0.672 2.938,0.279 8.068,0.642 13.143,1.005 5.074,0.363 10.092,0.726 13.996,1.045 3.905,0.319 6.695,0.595 8.372,0.73l0.055 0.004 0.053 0.004 0.053 0.004 0.052 0.004 0.051 0.004 0.051 0.004 0.05 0.004 0.048 0.004 0.001 0 0.048 0.003 0.048 0.004 0.046 0.003 0.047 0.003 0.045 0.004 0.045 0.003 0.044 0.003 0.044 0.003 0.042 0.003 0.043 0.003 0.041 0.002 0.041 0.003 0 0 0.041 0.002 0.039 0.003 0.039 0.002 0.001 0 0.038 0.003 0.038 0.002 0.037 0.002 0 0 0.037 0.002 0.036 0.002 0.036 0.002 0 0 0.035 0.002 0 0 0.035 0.002 0 0 0.034 0.002 0 0 0.033 0.002 0.033 0.001 0.001 0 0.032 0.002 0.032 0.002 0 0 0.031 0.001 0.001 0 0.031 0.001 0 0 0.03 0.002 0.001 0 0.029 0.001 0.001 0 0.029 0.001 0 0 0.029 0.002 0.001 0 0.028 0 0.001 0 0.028 0.002 0.028 0.001 0 0 0.028 0 0 0 0.027 0.001 0 0 0.027 0.001 0.026 0.001 0.001 0 0.025 0.001 0.001 0 0.025 0.001 0 0 0.025 0 0.001 0 0.025 0.001 0 0 0.024 0 0.001 0 0.024 0.001 0 0 0.024 0.001 0 0 0.023 0 0.001 0 0.023 0 0 0 0.023 0.001 0.001 0 0.022 0 0.001 0 0.022 0.001 0 0 0.022 0 0 0 0.022 0 0.001 0 0.021 0 0 0 -42.196 -3.575c-0.406,0.268 -0.327,-0.023 -0.308,0.899l-0.065 1.854 0 8.783c0.041,1.018 0.102,1.813 0.186,2.164 1.125,0.477 3.706,0.514 5.07,0.712 7.662,1.114 9.041,0.828 15.791,1.554l21.547 1.349c-0.015,-1.623 0.547,-10.725 0.578,-13.424l-0.603 -0.316 0 0 -0.07 -0.036c0,-4.476 -0.011,-9.226 -0.011,-13.7zm152.698 13.793l0 0 -0.416 0.247c-0.004,0.882 0.338,12.091 0.604,13.423l21.579 -1.336c6.75,-0.726 8.129,-0.44 15.791,-1.554 1.364,-0.198 3.945,-0.235 5.07,-0.712 0.084,-0.351 0.145,-1.146 0.186,-2.164l0 -8.783 -0.065 -1.854c0.014,-0.687 0.062,-0.7 -0.083,-0.774 -0.05,-0.025 -0.122,-0.057 -0.225,-0.125 -0.416,-3.138 -0.703,-6.536 -1.288,-9.631 -0.58,-3.06 -1.252,-6.186 -1.752,-9.253 -0.989,-6.057 -1.4,-13.201 -2.969,-19.04 -3.158,-11.748 -10.138,-32.116 -21.401,-39.215 -1.057,-0.665 -1.895,-1.576 -2.919,-2.163 -0.004,0.804 -0.013,1.568 -0.034,2.242 -0.037,1.214 -0.113,2.14 -0.663,4.067 -0.551,1.927 -1.577,4.856 -2.541,9.31 -0.963,4.455 -1.864,10.437 -2.652,16.318 -0.789,5.882 -1.465,11.663 -2.278,15.986 -0.813,4.324 -1.764,7.189 -2.565,9.742 -0.8,2.553 -1.451,4.792 -1.681,6.311 -0.23,1.519 -0.038,2.317 0.099,3.18 0.138,0.862 0.223,1.79 0.308,2.718 0,4.474 -0.105,8.584 -0.105,13.06z"/>
    </clipPath>
    <clipPath id="id4">
     <path d="M207.298 27.894c-0.11,-0.063 -0.222,-0.122 -0.337,-0.177 -4.975,-2.38 -9.714,-5.334 -14.858,-7.149 -4.647,-1.639 -11.454,-2.699 -17.288,-4.719 -2.277,-0.789 -4.556,-1.589 -6.82,-2.415l-0.004 -0.03 -9.999 -4.08 -0.175 -0.072c-0.614,-0.28 -1.553,-1.207 -2.512,-1.889 -0.494,-0.369 -0.613,-0.563 -1.038,-0.905 -2.856,-2.299 -5.606,-5.635 -9.574,-5.641 -0.901,-0.002 -1.04,-0.123 -1.779,-0.163l-7.601 -0.17c-5.892,-0.486 -12.055,-0.501 -18.06,-0.477 -5.087,0.02 -9.557,0.063 -14.567,0.477 -2.529,0.209 -4.996,0.029 -7.6,0.17 -0.739,0.04 -0.878,0.161 -1.779,0.163 -3.968,0.006 -6.718,3.342 -9.575,5.641 -0.424,0.342 -0.543,0.536 -1.037,0.905 -0.741,0.527 -1.471,1.2 -2.047,1.608 -0.17,0.121 -0.326,0.218 -0.465,0.281l-10.174 4.152 -0.003 0.03c-2.265,0.826 -4.544,1.626 -6.821,2.415 -5.834,2.02 -12.641,3.08 -17.288,4.719 -5.144,1.815 -9.883,4.769 -14.858,7.149 -0.212,0.101 -0.412,0.215 -0.605,0.339 -0.909,0.583 -1.664,1.379 -2.651,2.001 -11.263,7.099 -18.243,27.467 -21.401,39.215 -1.569,5.839 -1.98,12.983 -2.969,19.04 -0.5,3.067 -1.172,6.193 -1.752,9.253 -0.585,3.095 -0.872,6.493 -1.288,9.631 -0.406,0.268 -0.327,-0.023 -0.308,0.899l-0.065 1.854 0 8.783c0.041,1.018 0.102,1.813 0.186,2.164 1.125,0.477 3.706,0.514 5.07,0.712 7.662,1.114 9.041,0.828 15.791,1.554l21.547 1.349c-0.015,-1.623 0.547,-10.725 0.578,-13.424l-0.603 -0.316 -0.07 -0.036c0,-4.476 -0.011,-9.226 -0.011,-13.7 1.678,4.247 3.328,18.944 3.789,24.023 0.735,8.116 1.826,16.186 2.512,24.347 0.348,4.137 0.874,8.269 1.009,12.419l0.653 12.776c0.396,4.199 0.208,8.934 0.274,13.179 0.032,2.062 0.194,4.007 0.186,6.13 -0.007,2.226 -0.172,4.349 -0.196,6.512 -0.051,4.469 -0.054,8.634 -0.319,13.111 -0.68,11.475 -1.257,26.076 -3.267,37.02 -0.966,5.407 -2.177,11.944 -2.754,17.389 -0.258,2.432 -0.827,10.057 -1.468,11.951 -0.68,2.01 -0.163,3.658 -0.568,5.77 -0.342,1.785 -0.742,3.812 -1.164,5.568 -0.463,1.93 -1.435,3.647 0.397,4.966 4.276,1.054 8.552,2.108 13.913,3.017 5.36,0.909 11.804,1.672 18.03,2.048 6.226,0.375 12.232,0.363 21.568,0.476 9.335,0.112 21.999,0.351 32.523,0.382 10.525,0.032 18.909,-0.144 26.242,-0.419 7.333,-0.275 13.615,-0.65 19.058,-1.151 5.443,-0.501 10.048,-1.126 13.829,-1.873 3.78,-0.746 6.736,-1.613 9.693,-2.48 1.832,-1.319 0.86,-3.036 0.397,-4.966 -0.422,-1.756 -0.822,-3.783 -1.164,-5.568 -0.405,-2.112 0.112,-3.76 -0.568,-5.77 -0.641,-1.894 -1.21,-9.519 -1.468,-11.951 -0.577,-5.445 -1.788,-11.982 -2.754,-17.389 -2.01,-10.944 -2.587,-25.545 -3.267,-37.02 -0.265,-4.477 -0.268,-8.642 -0.319,-13.111 -0.024,-2.163 -0.189,-4.286 -0.196,-6.512 -0.008,-2.123 0.154,-4.068 0.186,-6.13 0.066,-4.245 -0.122,-8.98 0.274,-13.179l0.653 -12.776c0.135,-4.15 0.661,-8.282 1.009,-12.419 0.686,-8.161 1.777,-16.231 2.512,-24.347 0.461,-5.079 1.889,-19.043 3.568,-23.29 0,4.474 -0.105,8.584 -0.105,13.06l0 0 -0.416 0.247c-0.004,0.882 0.338,12.091 0.604,13.423l21.579 -1.336c6.75,-0.726 8.129,-0.44 15.791,-1.554 1.364,-0.198 3.945,-0.235 5.07,-0.712 0.084,-0.351 0.145,-1.146 0.186,-2.164l0 -8.783 -0.065 -1.854c0.014,-0.687 0.062,-0.7 -0.083,-0.774 -0.05,-0.025 -0.122,-0.057 -0.225,-0.125 -0.416,-3.138 -0.703,-6.536 -1.288,-9.631 -0.58,-3.06 -1.252,-6.186 -1.752,-9.253 -0.989,-6.057 -1.4,-13.201 -2.969,-19.04 -3.158,-11.748 -10.138,-32.116 -21.401,-39.215 -1.057,-0.665 -1.895,-1.576 -2.919,-2.163z"/>
    </clipPath>
 </defs>
 <g id="VETORES">
  <metadata id="CorelCorpID_0Corel-Layer"/>
  <g>
  </g>
  <g clip-path="url(#id0)">
   <g id="_2321445688272">
    <g>
    </g>
   </g>
   <g clip-path="url(#id1)">
   </g>
   <g clip-path="url(#id2)">
    <path id="torso" fill="none" d="M195.291 97.768c-0.085,-0.928 -0.17,-1.856 -0.308,-2.718 -0.137,-0.863 -0.329,-1.661 -0.099,-3.18 0.23,-1.519 0.881,-3.758 1.681,-6.311 0.801,-2.553 1.752,-5.418 2.565,-9.742 0.813,-4.323 1.489,-10.104 2.278,-15.986 0.788,-5.881 1.689,-11.863 2.652,-16.318 0.964,-4.454 1.99,-7.383 2.541,-9.31 0.55,-1.927 0.626,-2.853 0.663,-4.067 0.021,-0.674 0.03,-1.438 0.034,-2.242 -0.11,-0.063 -0.222,-0.122 -0.337,-0.177 -4.975,-2.38 -9.714,-5.334 -14.858,-7.149 -4.647,-1.639 -11.454,-2.699 -17.288,-4.719 -2.277,-0.789 -4.556,-1.589 -6.82,-2.415l-0.004 -0.03 -9.999 -4.08 -0.175 -0.072c-0.614,-0.28 -1.553,-1.207 -2.512,-1.889 -0.494,-0.369 -0.613,-0.563 -1.038,-0.905 -2.856,-2.299 -5.606,-5.635 -9.574,-5.641 -0.901,-0.002 -1.04,-0.123 -1.779,-0.163l-7.601 -0.17c-5.892,-0.486 -12.055,-0.501 -18.06,-0.477 -5.087,0.02 -9.557,0.063 -14.567,0.477 -2.529,0.209 -4.996,0.029 -7.6,0.17 -0.739,0.04 -0.878,0.161 -1.779,0.163 -3.968,0.006 -6.718,3.342 -9.575,5.641 -0.424,0.342 -0.543,0.536 -1.037,0.905 -0.741,0.527 -1.471,1.2 -2.047,1.608 -0.17,0.121 -0.326,0.218 -0.465,0.281l-10.174 4.152 -0.003 0.03c-2.265,0.826 -4.544,1.626 -6.821,2.415 -5.834,2.02 -12.641,3.08 -17.288,4.719 -5.144,1.815 -9.883,4.769 -14.858,7.149 -0.212,0.101 -0.412,0.215 -0.605,0.339 0.121,0.721 0.248,1.443 0.383,2.165 0.438,2.34 0.963,4.693 1.752,8.597 0.788,3.904 1.839,9.36 2.815,15.624 0.976,6.262 1.877,13.332 3.034,19.705 1.157,6.372 2.57,12.047 3.374,15.175 0.803,3.129 0.998,3.71 1.026,4.321 0.028,0.61 -0.11,1.248 -0.192,1.818 -0.083,0.57 -0.11,1.072 -0.138,1.574 1.678,4.247 3.328,18.944 3.789,24.023 0.735,8.116 1.826,16.186 2.512,24.347 0.348,4.137 0.874,8.269 1.009,12.419l0.653 12.776c0.396,4.199 0.208,8.934 0.274,13.179 0.032,2.062 0.194,4.007 0.186,6.13 -0.007,2.226 -0.172,4.349 -0.196,6.512 -0.051,4.469 -0.054,8.634 -0.319,13.111 -0.68,11.475 -1.257,26.076 -3.267,37.02 -0.966,5.407 -2.177,11.944 -2.754,17.389 -0.258,2.432 -0.827,10.057 -1.468,11.951 -0.68,2.01 -0.163,3.658 -0.568,5.77 -0.342,1.785 -0.742,3.812 -1.164,5.568 -0.463,1.93 -1.435,3.647 0.397,4.966 4.276,1.054 8.552,2.108 13.913,3.017 5.36,0.909 11.804,1.672 18.03,2.048 6.226,0.375 12.232,0.363 21.568,0.476 9.335,0.112 21.999,0.351 32.523,0.382 10.525,0.032 18.909,-0.144 26.242,-0.419 7.333,-0.275 13.615,-0.65 19.058,-1.151 5.443,-0.501 10.048,-1.126 13.829,-1.873 3.78,-0.746 6.736,-1.613 9.693,-2.48 1.832,-1.319 0.86,-3.036 0.397,-4.966 -0.422,-1.756 -0.822,-3.783 -1.164,-5.568 -0.405,-2.112 0.112,-3.76 -0.568,-5.77 -0.641,-1.894 -1.21,-9.519 -1.468,-11.951 -0.577,-5.445 -1.788,-11.982 -2.754,-17.389 -2.01,-10.944 -2.587,-25.545 -3.267,-37.02 -0.265,-4.477 -0.268,-8.642 -0.319,-13.111 -0.024,-2.163 -0.189,-4.286 -0.196,-6.512 -0.008,-2.123 0.154,-4.068 0.186,-6.13 0.066,-4.245 -0.122,-8.98 0.274,-13.179l0.653 -12.776c0.135,-4.15 0.661,-8.282 1.009,-12.419 0.686,-8.161 1.777,-16.231 2.512,-24.347 0.461,-5.079 1.889,-19.043 3.568,-23.29z"/>
    <g>
    </g>
   </g>
   <g clip-path="url(#id3)">
   </g>
   <g clip-path="url(#id4)">
    <path id="manga" fill="none" d="M42.488 97.035c0.028,-0.502 0.055,-1.004 0.138,-1.574 0.082,-0.57 0.22,-1.208 0.192,-1.818 -0.028,-0.611 -0.223,-1.192 -1.026,-4.321 -0.804,-3.128 -2.217,-8.803 -3.374,-15.175 -1.157,-6.373 -2.058,-13.443 -3.034,-19.705 -0.976,-6.264 -2.027,-11.72 -2.815,-15.624 -0.789,-3.904 -1.314,-6.257 -1.752,-8.597 -0.135,-0.722 -0.262,-1.444 -0.383,-2.165 -0.909,0.583 -1.664,1.379 -2.651,2.001 -11.263,7.099 -18.243,27.467 -21.401,39.215 -1.569,5.839 -1.98,12.983 -2.969,19.04 -0.5,3.067 -1.172,6.193 -1.752,9.253 -0.585,3.095 -0.872,6.493 -1.288,9.631 -0.406,0.268 -0.327,-0.023 -0.308,0.899l-0.065 1.854 0 8.783c0.041,1.018 0.102,1.813 0.186,2.164 1.125,0.477 3.706,0.514 5.07,0.712 7.662,1.114 9.041,0.828 15.791,1.554l21.547 1.349c-0.015,-1.623 0.547,-10.725 0.578,-13.424l-0.603 -0.316 0 0 -0.07 -0.036c0,-4.476 -0.011,-9.226 -0.011,-13.7zm152.698 13.793l0 0 -0.416 0.247c-0.004,0.882 0.338,12.091 0.604,13.423l21.579 -1.336c6.75,-0.726 8.129,-0.44 15.791,-1.554 1.364,-0.198 3.945,-0.235 5.07,-0.712 0.084,-0.351 0.145,-1.146 0.186,-2.164l0 -8.783 -0.065 -1.854c0.014,-0.687 0.062,-0.7 -0.083,-0.774 -0.05,-0.025 -0.122,-0.057 -0.225,-0.125 -0.416,-3.138 -0.703,-6.536 -1.288,-9.631 -0.58,-3.06 -1.252,-6.186 -1.752,-9.253 -0.989,-6.057 -1.4,-13.201 -2.969,-19.04 -3.158,-11.748 -10.138,-32.116 -21.401,-39.215 -1.057,-0.665 -1.895,-1.576 -2.919,-2.163 -0.004,0.804 -0.013,1.568 -0.034,2.242 -0.037,1.214 -0.113,2.14 -0.663,4.067 -0.551,1.927 -1.577,4.856 -2.541,9.31 -0.963,4.455 -1.864,10.437 -2.652,16.318 -0.789,5.882 -1.465,11.663 -2.278,15.986 -0.813,4.324 -1.764,7.189 -2.565,9.742 -0.8,2.553 -1.451,4.792 -1.681,6.311 -0.23,1.519 -0.038,2.317 0.099,3.18 0.138,0.862 0.223,1.79 0.308,2.718 0,4.474 -0.105,8.584 -0.105,13.06zm-194.813 -3.632c0.744,0.196 1.489,0.392 4.426,0.672 2.938,0.279 8.068,0.642 13.143,1.005 5.074,0.363 10.092,0.726 13.996,1.045 3.905,0.319 6.695,0.595 8.372,0.73l0.055 0.004 0.053 0.004 0.053 0.004 0.052 0.004 0.051 0.004 0.051 0.004 0.05 0.004 0.048 0.004 0.001 0 0.048 0.003 0.048 0.004 0.046 0.003 0.047 0.003 0.045 0.004 0.045 0.003 0.044 0.003 0.044 0.003 0.042 0.003 0.043 0.003 0.041 0.002 0.041 0.003 0 0 0.041 0.002 0.039 0.003 0.039 0.002 0.001 0 0.038 0.003 0.038 0.002 0.037 0.002 0 0 0.037 0.002 0.036 0.002 0.036 0.002 0 0 0.035 0.002 0 0 0.035 0.002 0 0 0.034 0.002 0 0 0.033 0.002 0.033 0.001 0.001 0 0.032 0.002 0.032 0.002 0 0 0.031 0.001 0.001 0 0.031 0.001 0 0 0.03 0.002 0.001 0 0.029 0.001 0.001 0 0.029 0.001 0 0 0.029 0.002 0.001 0 0.028 0 0.001 0 0.028 0.002 0.028 0.001 0 0 0.028 0 0 0 0.027 0.001 0 0 0.027 0.001 0.026 0.001 0.001 0 0.025 0.001 0.001 0 0.025 0.001 0 0 0.025 0 0.001 0 0.025 0.001 0 0 0.024 0 0.001 0 0.024 0.001 0 0 0.024 0.001 0 0 0.023 0 0.001 0 0.023 0 0 0 0.023 0.001 0.001 0 0.022 0 0.001 0 0.022 0.001 0 0 0.022 0 0 0 0.022 0 0.001 0 0.021 0 0 0 -42.196 -3.575z"/>
    <path id="_3" fill="#B51723" fill-rule="nonzero" d="M173.99 194.542c4.352,-4.319 7.057,-3.042 11.339,-2.942 0.528,0.012 1.134,0.029 1.793,0.045 0.045,1.399 0.122,2.77 0.153,4.152 -4.046,-0.808 -7.527,-1.852 -9.718,-1.284 -3.342,0.867 -6.268,5.465 -7.012,8.713 -1.112,4.856 1.086,10.931 -1.356,14.095l-0.366 -0.093c-0.366,0.55 -0.904,1.608 -1.435,1.967 -0.578,-0.699 -0.436,-0.328 -0.496,-1.637l-0.107 0.84 -0.28 -0.029c0.344,-1.528 0.172,-4.105 -0.065,-5.676 0.129,-2.233 -0.272,-4.335 -0.308,-6.531 -0.044,-2.383 5.978,-9.754 7.865,-11.62l-0.007 0zm21.301 -96.774c-0.085,-0.928 -0.17,-1.856 -0.308,-2.718 -0.095,-0.6 -0.217,-1.169 -0.205,-1.971 -2.497,-5.946 -1.744,-10.58 1.834,-19.095 1.604,-3.82 2.262,-5.294 3.815,-6.684 0.32,-2.397 0.64,-4.924 0.981,-7.469 0.537,-4.005 1.126,-8.057 1.751,-11.641 -0.31,0.356 -0.597,0.725 -0.841,1.113l-6.18 10.17c-0.854,1.428 -1.629,2.943 -2.598,4.299 -2.845,3.962 -4.113,4.211 -5.44,6.057 -1.156,1.615 -1.744,3.905 -2.656,5.677 -1.32,2.57 -2.971,5.153 -4.521,7.601 -3.043,4.78 -9.079,7.055 -14.103,9.05 -3.767,1.502 -11.153,4.617 -14.834,2.016 -4.089,-2.888 -2.021,-6.84 0.265,-10.205l3.545 -4.989c0.81,-0.895 2.634,-2.997 2.684,-4.255 -0.459,0.036 -1.112,0.804 -1.492,1.119 -3.085,2.548 -10.12,6.402 -13.658,8.183 -10.403,5.232 -14.094,6.805 -25.083,10.556 -3.617,1.199 -7.5,2.907 -11.39,2.247 -6.366,-1.083 -6.955,-8.875 -5.835,-13.773 0.768,-2.784 2.483,-6.121 4.895,-7.815 3.819,-2.671 4.631,-2.451 8.49,-3.474 2.605,-0.689 6.309,-2.418 8.992,-1.916 1.78,0.33 3.811,0.833 5.62,0.718 4.436,-0.28 7.536,-3.459 10.988,-5.778 6.454,-4.35 10.518,-4.283 17.038,-6.164l-0.294 -0.187 2.634 -0.847c0,0 -0.223,-0.409 -0.223,-0.409l-0.808 -0.001 -0.179 -0.266 0.272 -0.445 3.768 0 0.467 0.582c7.399,-2.201 18.178,-10.254 17.734,-19.148 -0.065,-1.263 -0.51,-2.562 -0.825,-3.783 -1.955,-7.55 0.485,-9.935 3.315,-15.695 0.047,-0.095 0.09,-0.19 0.135,-0.284 -2.748,-0.664 -5.587,-1.381 -8.226,-2.295 -1.543,-0.535 -3.088,-1.075 -4.628,-1.625 -0.86,0.374 -1.7,0.419 -2.367,0.042 -0.572,-0.325 -0.934,-0.8 -1.152,-1.402l-8.676 -3.54 -0.175 -0.072c-0.614,-0.28 -1.553,-1.207 -2.512,-1.889 -0.494,-0.369 -0.613,-0.563 -1.038,-0.905 -2.856,-2.299 -5.606,-5.635 -9.574,-5.641 -0.901,-0.002 -1.04,-0.123 -1.779,-0.163l-7.601 -0.17c-5.892,-0.486 -12.055,-0.501 -18.06,-0.477 -5.087,0.02 -9.557,0.063 -14.567,0.477 -2.529,0.209 -4.996,0.029 -7.6,0.17 -0.739,0.04 -0.878,0.161 -1.779,0.163 -3.968,0.006 -6.718,3.342 -9.575,5.641 -0.424,0.342 -0.543,0.536 -1.037,0.905 -0.741,0.527 -1.471,1.2 -2.047,1.608 -0.17,0.121 -0.326,0.218 -0.465,0.281l-10.174 4.152 -0.003 0.03c-2.265,0.826 -4.544,1.626 -6.821,2.415 -3.77,1.305 -7.946,2.209 -11.683,3.128 -3.2,3.831 -6.061,7.938 -8.416,12.176l-3.502 7.743c-0.822,2.315 -1.603,6.643 -0.625,8.964 0.997,2.376 2.569,5.455 4.184,7.436 2.433,2.978 6.194,5.045 9.029,7.665l3.976 4.033c0.847,0.948 1.665,2.132 2.698,2.871 2.512,-0.501 3.313,-7.812 3.668,-8.691 0.654,-1.623 1.788,-0.288 3.093,-0.56 -0.788,-0.714 -1.28,-0.059 -1.816,-1.765l0.151 -0.288c0.566,0.553 1.04,0.869 1.772,1.163 2.963,0.795 9.344,-4.29 11.512,-5.476 5.016,-2.691 8.968,-4.622 13.916,-7.55l0.359 0.144c0.222,0.796 -0.237,1.413 -0.603,2.117 -0.57,0.709 -2.32,0.301 -3.086,0.071 -3.28,2.318 -6.596,4.522 -9.632,7.17 -5.065,4.416 -11.23,12.568 -13.105,19.148 -1.091,3.158 -0.509,5.67 0.89,8.605 0.293,0.623 0.407,0.626 0.998,0.983 0.515,2.902 3.062,1.146 6.782,2.039 3.359,0.803 6.223,2.949 9.531,3.839l3.065 0.869c2.935,0.739 5.92,0.172 8.884,1.177 2.369,0.806 3.804,2.751 0.582,3.94 -1.723,0.631 -3.51,-0.395 -5.297,0.107 -0.294,0.079 -1.629,0.338 -1.736,0.517 -10.147,2.103 -10.325,1.626 -19.694,2.153 -4.141,0.294 -8.87,1.271 -12.796,2.605 -0.431,0.747 -1.041,1.228 -1.752,1.687 -1.214,0.861 -2.872,2.069 -3.423,3.409 -0.333,0.809 -0.81,0.956 -0.244,1.794l0.401 -0.402 0.209 0.287c8.624,-5.89 17.137,-3.387 26.016,-2.72 -0.395,-0.28 -0.588,-0.316 -1.062,-0.394l0.086 -0.273c0.849,-0.319 0.889,-0.172 1.988,-0.172 -3.219,-0.918 -6.381,-0.489 -8.103,-1.306 -0.653,-0.309 -1.011,-0.618 -1.248,-1.307 0.208,-0.473 0.588,-0.681 0.997,-0.961 2.749,-0.366 4.787,0.301 7.428,0.761l6.187 1.062 4.629 1.141 0.768 -0.201 0.272 0.251 0.273 -0.086c0.891,1.01 1.525,0.268 1.529,0.266 1.256,-0.656 2.229,0.764 2.332,1.349l8.26 2.563c0.86,0.14 1.203,0.612 1.292,0.667 1.472,0.567 3.172,1.069 4.45,2.01 1.622,1.184 2.749,2.827 4.493,3.918 3.767,2.361 8.777,1.88 13.033,1.924 3.121,0.028 6.279,0.157 9.38,-0.338 4.297,-0.656 6.321,-4.409 8.225,-6.036 2.11,-1.801 4.693,-2.928 6.782,-4.679 1.991,-1.673 6.537,-6.872 7.679,-7.277 3.847,-1.364 8.268,0.006 12.201,-1.328 1.779,-0.603 2.669,-2.125 4.062,-3.258 1.686,-1.363 7.803,-2.769 10.55,-1.221 2.653,1.496 3.684,3.545 1.981,6.244 -1.835,2.907 -4.875,4.701 -8.196,5.218 -8.313,1.294 -18.149,0.171 -24.079,6.797 -0.883,0.983 -1.543,2.174 -2.397,3.186 -1.888,2.247 -4.249,3.582 -6.617,5.24l0.208 0.473 0.323 0.115c2.476,-1.227 5.081,-3.065 6.925,-5.132 0.704,-0.789 1.221,-1.722 1.888,-2.533 4.137,-5.037 8.359,-4.876 14.203,-6.172l10.077 -1.242c3.511,-0.287 6.471,-1.659 10.133,-1.32 1.581,0.146 3.359,0.745 5.097,1.645 0.528,-3.412 1.131,-6.444 1.771,-8.063zm10.989 -70.381c-1.791,-0.878 -3.556,-1.82 -5.323,-2.747 -0.067,0.108 -0.122,0.202 -0.161,0.277 -1.019,1.959 -1.744,4.191 -2.835,6.086 -0.925,1.614 -2.224,2.985 -3.287,4.5 -2.239,3.186 -3.89,7.909 -3.818,11.827l0.151 0.1c0.337,-0.66 0.351,-1.535 0.553,-2.253 1.996,-7.149 4.875,-10.284 10.973,-15.129 1.163,-0.926 2.275,-1.996 3.588,-2.706l0.159 0.045zm-156.184 136.272l0.138 2.69c0.347,-0.006 0.674,-0.011 0.966,-0.027 -0.197,0.577 -0.426,1.5 -0.861,2.07l0.112 2.208c0.216,2.285 0.258,4.73 0.263,7.168 2.416,0.882 3.543,0.766 5.008,1.459 0.445,0.208 0.804,0.387 1.292,0.473 1.392,0.251 2.225,2.979 3.961,1.795 0.603,-0.409 0.761,-1.098 0.941,-1.773 0.265,-1.005 0.854,-1.385 1.643,-2.003 2.074,-0.071 3.948,0.546 5.971,0.618 1.677,0.06 2.823,-3.826 11.175,2.978 2.827,2.304 4.657,5.01 6.488,8.096l0.036 -0.028c1.564,2.634 3.072,5.785 3.344,8.871 0.2,2.245 -0.342,3.66 -1.816,5.332l1.242 0.531 0.617 -0.351c0.245,1.622 0.487,1.773 0,3.681l0.366 0.459c0.438,-0.753 0.94,-2.038 1.766,-2.375l0.165 0.782 1.973 -6.574c1.413,7.7 -3.949,12.052 -0.646,17.339 0.036,0.058 0.05,0.144 0.115,0.166 0.402,-0.237 0.732,-0.366 1.191,-0.474 1.106,0.675 1.457,1.012 2.835,1.084l0.251 0.172 1.694 -2.089c-0.574,0.094 -1.22,0.258 -1.801,0.237 -1.327,-0.046 -1.852,-2.63 -2.806,-3.646l2.045 -1.844c-3.13,-1.026 -1.09,-5.327 -0.947,-6.467 0.237,-1.894 0.048,-2.985 -0.13,-4.844 1.24,1.345 1.708,1.969 2.06,3.689 1.735,-0.079 1.819,0.618 3.388,2.734 0.093,-1.141 0.488,-2.01 0.983,-3.029 0.553,2.125 0.789,4.271 1.069,6.445 0.141,1.082 0.781,3.737 -0.244,3.919l-0.107 44.21c0.602,-0.957 0.423,-2.776 0.423,-4.349l0.905 0.48c-0.017,1.501 -0.025,2.284 0.416,3.761 0.007,-1.536 0.143,-3.187 -0.065,-4.708 0,-0.003 0.909,-2.093 2.268,-1.199 1.841,1.211 1.436,6.603 1.471,8.735l0.371 37.88 2.421 0.033 0.172 -36.371c0.164,-2.266 0.025,-8.121 -0.33,-10.133 -0.258,-1.457 -0.746,-2.857 -1.069,-4.299 -1.515,-6.775 -0.732,-14.06 -0.919,-20.95 -0.057,-2.189 -0.689,-4.335 -0.488,-6.538 0.092,-1.049 1.028,-1.611 1.062,-2.548 -0.452,-5.325 -0.071,-11.619 2.763,-16.327 0.144,-0.381 0.093,-0.417 0.445,-0.654 0.294,0.359 0.244,1.414 0.359,1.457l0.481 8.835c0.122,2.397 -0.029,5.541 1.88,7.292l1.077 0.811c2.082,-1.812 3.032,-4.004 2.397,-6.775l-0.035 0.001c-0.146,-2.126 -0.115,-5.121 0.854,-7.054 0.394,-0.79 1.155,-1.5 1.744,-2.153l0.811 2.181c0.068,-2.081 -0.892,-2.869 0.646,-3.624 0.122,-1.285 0.201,-2.742 0.76,-3.919 0.323,0.201 0.352,0.617 0.467,0.976 1.336,4.161 1.368,4.891 1.55,9.453l0.33 7.047 -0.143 0.179c-0.28,-0.481 -0.51,-0.933 -0.704,-1.456 -0.502,-0.395 -1.392,-1.17 -1.5,-1.831 -0.37,-2.788 0.086,-3.952 -1.141,-5.791 0.201,1.127 0.374,2.239 0.438,3.38 0.142,2.522 -0.147,6.768 2.16,8.368 1.17,-0.337 2.62,-0.639 3.266,-1.78 1.232,-2.169 -0.703,-8.978 1.005,-12.674 0.757,-1.64 0.097,0.628 1.837,-2.584 0.94,-1.845 0.99,-3.667 1.119,-5.684 0.281,1.062 0.618,2.296 0.51,3.401 -0.342,2.438 -3.018,6.437 -2.34,8.505 0.905,2.806 0.567,5.677 1.838,8.411 0.755,1.612 1.678,0.846 2.813,0.668 0.388,-0.847 0.825,-1.716 1.019,-2.627 0.452,-2.16 0.323,-4.428 0.775,-6.632 0.454,-0.989 1.14,-5.045 2.828,-5.045l0.251 0.624c0.144,-1.165 0.771,-1.852 1.529,-2.813 0.345,0.258 0.244,1.213 0.345,1.679l0.272 0.087 0.101 -1.996c0.109,-1.903 0.001,-4.37 1.169,-5.411 1.312,0.203 0.875,0.287 1.816,-0.301 1.622,1.514 4.421,3.789 4.643,6.129 -1.406,-1.852 -3.186,-3.725 -4.916,-5.29 -1.737,1.415 -1.562,4.23 -1.887,6.789 -0.222,1.579 0.395,3.151 0.682,4.694 -0.065,3.136 -0.237,6.101 -1.565,8.986 -0.416,-1.967 -0.021,-3.991 -0.56,-5.943 -0.194,-0.689 -0.15,-1.399 -0.481,-2.053 0.085,1.348 0.142,9.309 1.816,8.979 1.034,-0.388 1.88,-1.041 2.426,-2.017 3.995,-7.173 1.564,-8.856 0.208,-14.052 0.589,0.071 1.457,0.624 1.78,1.133 0.187,0.295 0.237,0.524 0.28,0.862 0.395,0.71 0.818,1.378 0.984,2.181l-0.216 0.273 0.201 1.026c0.388,0.259 0.66,0.596 0.969,0.941l0.23 -0.087c0.924,-2.651 0.745,-3.905 0.229,-6.272 2.743,2.853 0.505,5.174 1.206,6.681 0.294,0.811 0.229,1.622 0.222,2.462l0.18 -0.087 0.588 -2.332 -0.402 -0.272c0.666,-0.537 1.372,-5.192 1.614,-5.555l0.359 0.359 -0.021 0.803 0.294 -0.444c1.05,1.559 2.543,0.893 3.516,7.22l0.015 -0.002 0.151 4.981c0.201,0.524 0.947,1.149 1.335,1.536 0.58,0.384 2.414,-0.096 3.215,-1.514 0.998,-1.773 -0.94,-5.491 -1.442,-7.328 0.021,-2.821 -0.452,-5.612 -0.495,-8.419 -0.058,-3.861 1.141,-8.511 3.416,-11.683 3.301,-4.608 7.966,-6.474 13.155,-8.132 1.406,-0.445 2.863,-1.033 4.313,-1.284 0.854,-0.135 3.159,-0.536 4.991,-0.698 0.024,-1.82 0.088,-3.619 0.25,-5.33l0.37 -7.24 -0.221 -0.059 -0.001 0c-1.127,-0.466 -2.397,-0.473 -3.588,-0.631 -1.331,-0.137 -3.821,-0.718 -4.414,-2.031 1.113,0.014 2.311,0.588 3.359,0.947 0.969,0.194 1.945,0.409 2.928,0.538 0.561,0.073 1.412,0.074 1.985,0.301l0.235 -4.601c0.04,-1.216 0.113,-2.431 0.205,-3.645 -0.947,0.645 -1.811,1.158 -2.453,1.421 -6.871,2.818 -10.008,-2.135 -14.806,-6.086l-0.172 0.194c1.644,2.283 3.911,4.463 5.992,6.381 -1.084,-0.029 -2.562,-0.481 -3.574,-0.89 -1.664,-0.675 -1.187,-0.925 -2.519,-0.589 0.359,0.172 0.696,0.338 1.077,0.467 1.012,0.337 1.959,1.105 2.878,1.643 0.861,0.509 1.765,0.861 2.662,1.285l-0.014 0.014 2.806 0.459 0.725 -0.244 -0.165 -0.1 -0.058 -0.295c3.186,0.769 3.111,0.228 6.057,0.797l0.137 0.222c-0.804,0.596 -2.455,0.281 -3.438,0.223 0.89,0.502 1.751,0.344 2.763,0.359 1.19,0.008 0.751,-0.07 1.134,0.696 -3.806,0.942 -6.618,-0.14 -10.105,-1.457 -1.317,0.941 -1.682,0.042 -2.842,-0.61l-5.412 -2.878c-1.299,-0.631 -2.741,-1.026 -4.076,-1.579 0.646,-0.093 1.127,-0.036 1.672,-0.409l-0.064 -0.187c-4.012,-1.485 -7.995,-2.167 -11.735,-4.428 -3.96,-2.398 -4.496,-4.703 -9.853,-6.832l-0.251 0.158 1.815 3.796c-1.234,-1.414 -2.339,-3.007 -3.401,-4.55 -2.942,-4.258 -1.577,-3.909 -2.814,-8.067 -0.585,5.91 1.972,8.343 3.194,12.732 -4.215,-2.169 -5.344,-6.091 -6.933,-8.131 -0.66,-0.847 -2.347,-2.002 -2.713,-2.943 -0.488,-1.269 0.262,-4.962 -0.66,-6.99 -0.574,2.433 -0.05,4.808 -0.022,7.234 0.015,1.141 -0.243,2.347 -0.286,3.502 -0.252,-0.107 -0.424,-0.581 -0.56,-0.825l-0.546 -0.215c-0.926,-1.349 -1.694,-2.038 -3.15,-2.778 0.904,1.02 1.801,1.716 2.49,2.921l7.579 12.359c2.38,4.055 5.652,13.417 6.775,18.042l0.1 -3.365c3.06,6.435 2.564,5.718 1.177,13.155 -0.315,1.701 -0.516,4.428 -1.643,5.792 -2.621,3.168 -5.869,2.958 -8.756,3.308 -1.607,0.195 -0.458,0.152 -2.763,1.679 -1.522,1.009 -0.863,0.613 -2.024,3.008 0.193,-1.658 0.523,-2.821 0.208,-4.5 -2.179,-0.999 -5.074,-3.562 -5.9,-5.835 -0.351,-0.969 -0.488,-2.024 -0.696,-3.029 -1.008,2.506 -1.681,4.876 -3.509,6.89l-0.014 0c-1.384,1.58 -2.488,2.608 -3.129,4.651 -0.853,-1.335 -0.651,-1.811 0.129,-2.706l0.186 -0.661 -1.464 1.07c-2.799,-0.416 -4.959,-0.603 -7.514,-2.038 -1.45,-0.811 -3.409,-3.316 -3.976,-4.845 -0.438,-1.198 -0.646,-2.576 -0.983,-3.81 0.958,0.948 1.409,1.54 2.713,1.959 -2.153,-5.096 -0.072,-10.83 1.736,-15.71l5.771 -15.56c-0.985,0.657 -0.799,0.742 -1.307,0.524 0.079,-1.938 0.926,-3.818 1.579,-5.626 0.682,-2.763 2.139,-5.527 3.331,-8.11 1.313,-2.562 3.114,-4.751 4.908,-6.983 0.632,-0.797 1.45,-1.673 2.498,-1.809 -0.208,-0.136 -0.438,-0.395 -0.696,-0.323 -0.961,0.273 -1.909,1.68 -2.59,2.404 -0.632,0.668 -1.314,1.228 -2.032,1.795 -0.365,-0.578 0.009,-1.384 0.252,-1.974l-0.223 -0.259c-1.639,0.264 -2.502,3.383 -3.258,4.91 -0.756,1.524 -2.822,4.929 -4.636,5.218l0.049 0.222 -0.767 0.675 -0.754 -0.374c-2.175,1.443 -3.732,3.675 -5.986,5.053 0.164,-1.059 0.691,-1.473 1.601,-2.282l1.809 -2.124 -0.079 -0.137c-0.531,0.409 -0.861,0.531 -1.522,0.624l-0.351 -0.344c-3.628,3.282 -6.357,7.321 -10.594,9.897 -1.263,0.768 -2.741,0.968 -3.99,1.693l2.648 -0.717 0.352 0.387 -0.237 0.424c-3.603,2.167 -7.723,2.978 -11.612,4.471 -4.672,1.794 -9.345,4.191 -14.204,5.433 -2.138,0.545 -4.995,0.696 -7.191,0.552 -0.803,0.56 -1.7,0.424 -2.634,0.33 -0.635,0.141 -0.789,0.769 -0.789,1.328 -2.488,1.151 -5.898,1.939 -8.669,1.327zm0.747 23.393c0.04,0.934 0.072,1.876 0.068,2.857 -0.004,1.412 -0.073,2.783 -0.128,4.149 0.747,0.522 1.531,0.979 2.356,1.353 7.46,3.395 16.918,-3.105 22.377,-0.33 0.682,0.344 1.27,0.997 1.816,1.521l0.014 -0.43c1.234,1.042 1.839,2.128 2.749,3.466 2.074,3.048 0.839,1.111 2.332,2.605l0 0.265c1.394,1.236 3,2.696 3,4.709 0.225,-3.925 -2.143,-5.813 -3.897,-7.895l-2.232 -2.763c-0.524,-0.596 -1.234,-0.969 -1.32,-1.78 -0.123,-0.473 -2.848,-2.739 -4.242,-3.23 -3.495,-1.234 -7.607,0.101 -11.26,-0.366 -3.359,-0.43 -6.575,-1.227 -9.625,-2.755 -0.741,-0.371 -1.365,-0.879 -2.008,-1.376zm-0.594 25.039c-0.325,5.724 -0.651,12.057 -1.15,18.243 1.163,1.368 2.515,2.613 4.083,3.718 8.005,5.639 12.73,-0.541 17.131,0.983 3.266,1.13 6.657,6.182 8.662,6.258 2.432,0.092 3.193,-1.933 2.656,-4.105 -0.806,-3.261 -3.222,-3.188 -5.081,-4.142 -2.383,-1.219 -4.73,-2.669 -6.984,-4.105 -2.935,-1.859 -5.11,-4.205 -7.227,-6.932 -3.64,-4.685 -3.318,-4.403 -8.375,-7.407 -1.482,-0.88 -2.698,-1.714 -3.715,-2.511zm142.424 44.862c-0.563,-3.555 -1.226,-7.178 -1.802,-10.401 -1.201,-6.537 -1.89,-14.378 -2.395,-22.078 -0.264,0.175 -0.52,0.348 -0.764,0.52l-0.001 -0.035c-3.144,2.211 -6.904,5.756 -7.55,9.761 -0.488,3.035 0.452,6.093 1.471,8.913 2.498,6.915 6.353,10.375 11.041,13.32zm-35.879 27.437c1.021,-0.557 1.657,0.937 1.557,1.284 -0.298,1.04 -2.121,1.427 -2.189,-0.359 -0.014,-0.395 0.302,-0.746 0.632,-0.925l0 0zm-15.969 5.784c0.617,0.068 1.448,0.141 1.708,1.07 0.363,1.296 0.531,6.686 -1.708,5.605 -0.665,-0.322 -2.477,-5.139 0.001,-6.675l-0.001 0zm-1.026 -56.69c0.107,-1.134 0.51,-1.751 1.234,-2.598l0.374 -0.029c0.81,1.432 0.303,2.787 0.251,4.615l-0.05 28.578 -0.251 0.287c-0.913,-0.012 -1.686,0.125 -1.695,-0.875l0.115 -15.739c0.011,-5.231 -0.447,-8.735 0.022,-14.239l0 0zm19.27 -12.136c0.345,-1.586 1.156,-3.136 2.017,-4.5l0.452 9.273 -0.301 13.779c-0.036,3.165 0.165,6.402 -0.259,9.538l-0.445 0.266 -0.596 -0.467c-0.265,0.166 -0.387,0.287 -0.559,0.546l-0.237 -0.244c0.323,-0.976 0.057,-1.507 -0.158,-2.433 -0.517,-2.232 -0.481,-4.637 -0.531,-6.912l0.301 -13.923c0.094,-1.614 -0.028,-3.33 0.316,-4.909l0 -0.014zm-2.576 -17.282l-0.144 5.993 -0.632 -0.022c-0.284,-0.883 -0.096,-2.638 -0.078,-3.631 -0.194,0.645 -0.173,0.868 -0.718,1.284l-0.316 -0.193c0.158,-1.17 0.581,-2.405 1.278,-3.366l0.61 -0.065zm-82.771 66.314c1.742,-0.301 3.982,1.993 1.916,3.811 -2.523,2.219 -4.779,-0.786 -3.237,-2.963l1.321 -0.848zm113.035 -205.395c-3.945,0.32 -4.316,-4.712 -1.256,-5.16 4.298,-0.629 4.02,4.926 1.256,5.16zm-128.559 181.762c1.374,-0.636 3.767,0.188 4.435,1.514 1.583,3.142 -1.381,5.1 -2.963,4.931 -3.672,-0.722 -3.765,-5.393 -1.457,-6.452l-0.015 0.007zm18.746 34.155c0.874,0.074 3.129,0.901 3.423,1.327 0.488,1.823 1.055,2.771 0.044,4.507 -0.407,0.698 -0.69,1.178 -1.565,1.278 -5.393,0.617 -5.123,-6.882 -1.895,-7.113l-0.007 0.001zm-33.983 -237.182c-0.691,-0.149 -0.833,-0.089 -1.536,0.703 0.094,0.559 0.58,0.885 1.077,1.343 0.468,-0.39 0.939,-0.966 0.948,-1.601l-0.489 -0.445zm12.933 -0.538c-0.359,0.043 -0.459,0.151 -0.746,0.359l0.028 0.538c0.641,0.386 0.703,0.574 1.278,0 -0.093,-0.581 -0.093,-0.538 -0.567,-0.897l0.007 0zm84.343 -28.586l-0.165 0.416c1.215,0.847 3.002,2.42 3.724,2.153 0,-1.79 -0.76,-2.267 -2.899,-2.698 -0.323,-0.043 -0.374,0.007 -0.668,0.122l0.008 0.007zm11.827 20.06c-2.382,0.553 -1.496,2.916 1.184,4.069 1.852,0.797 2.303,-0.175 2.857,-1.062 -0.615,-1.846 -2.102,-2.214 -4.041,-3.007zm4.909 -18.115c3.78,-1.174 2.752,-6.878 -0.351,-6.208 -2.898,0.626 -4.771,5.081 -1.214,6.237 0.532,0.1 1.048,0.143 1.572,-0.021l-0.007 -0.008zm-55.943 23.146c-1.406,-2.339 -4.62,0.998 -5.534,2.296 -0.825,1.263 -1.263,2.433 -1.571,3.897 0.122,0.251 0.1,0.309 0.352,0.452 0.832,-1.076 1.263,-2.511 1.693,-3.782l0.912 0.538c0.954,-1.442 3.423,-1.808 4.148,-3.401l0 0zm42.336 56.833c-0.292,-1.932 -2.827,-2.19 -4.263,-1.938 -2.198,0.388 -6.973,3.348 -8.634,4.823 -2.505,2.225 -4.227,4.967 -6.165,7.665 -1.772,-0.157 -3.531,-0.868 -5.124,-1.636 -2.303,-0.71 -6.308,-2.54 -8.634,-1.249 -1.871,1.04 -2.584,4.006 -1.808,5.189 4.868,7.429 8.2,6.413 16.126,6.352 3.396,-0.026 5.781,0.32 9.136,-0.531 1.601,-0.424 2.225,-1.335 3.072,-2.692 0.524,-1.263 1.435,-2.44 2.088,-3.652 1.22,-2.261 2.139,-4.522 3.051,-6.912 0.609,-1.6 1.406,-3.681 1.155,-5.418l0 -0.001zm21.502 80.604c1.316,-0.539 4.563,0.491 8.784,-2.031 1.428,-0.89 2.72,-2.175 4.335,-2.72 3.154,-1.076 7.18,-0.83 7.873,-1.349l0.029 -0.474c-1.285,-0.99 -4.227,-1.192 -5.863,-1.493 -3.996,-0.74 -7.557,-2.145 -10.723,-0.258 -1.5,0.897 -2.117,2.253 -3.129,3.61 -2.564,3.444 -2.908,3.54 -1.306,4.715zm-11.419 -11.72c0.977,3.085 4.778,4.526 7.328,5.548 0,0.087 1.516,2.445 5.369,-1.019 0.796,-0.718 1.399,-1.457 1.449,-2.541 0.66,-0.882 1.227,-1.766 1.601,-2.806 -0.481,-2.139 -1.091,-3.811 -3.079,-5.031 -3.228,-1.975 -10.046,-2.345 -12.208,1.407 -0.668,1.155 -0.862,3.158 -0.452,4.443l-0.008 -0.001zm-36.408 48.049l0.323 0.216c0.661,-0.718 1.055,-1.465 1.572,-2.283l0.122 -5.719c-0.244,-1.07 -0.99,-2.204 -1.514,-3.166l-0.259 -0.035c-0.699,1.276 -0.648,6.338 -0.818,8.066 -0.221,2.246 0.574,2.544 0.574,2.921zm-2.368 -10.586c0.237,1.443 0.093,2.936 0.495,4.35l0.359 0.086c0.079,-0.244 0.137,-0.589 0.273,-0.797 -0.072,-1.133 0.093,-2.705 0.366,-3.818 0.425,-1.732 2.161,-5.278 0.373,-6.638l-2.383 3.681c0.094,1.105 0.338,2.067 0.517,3.144l0 -0.008zm-5.813 -10.126c0.442,1.269 0.141,2.511 1.012,3.187 3.156,-0.483 2.119,-4.613 1.292,-5.175 -1.536,-1.042 -4.223,-0.375 -2.304,1.988l0 0zm-42.854 -25.93c-1.607,0.983 -3.272,1.909 -3.767,3.854 -0.172,1.287 6.388,4.556 6.732,4.593 0.674,-0.575 1.349,-1.22 2.11,-1.68 -0.559,2.644 -0.653,0.731 -1.723,4.55 3.869,-2.096 4.853,-0.554 5.842,-0.681 0.697,-0.09 0.382,-0.395 1.457,0.043 0.423,0.172 0.61,0.072 1.048,0.107 0.617,0.051 1.076,0.345 1.758,0.331 0.091,-0.463 -0.237,-0.67 -0.703,-1.149l0.036 -1.026c1.255,-0.043 2.526,-0.582 3.789,-0.395 4.553,0.667 4.664,2.819 6.344,-1.084 0.891,-2.07 0.59,-3.768 -0.825,-5.698 -1.127,-1.536 -2.993,-2.404 -4.837,-2.648 -0.144,-0.144 -1.737,-0.101 -2.038,-0.122 -3.264,-0.244 -1.158,-0.74 -6.445,-0.582 -2.792,0.086 -6.344,0.086 -8.792,1.586l0.014 0.001zm29.576 2.892c0.549,-0.117 0.785,-0.53 0.862,-1.105 -0.287,-0.366 -0.532,-0.567 -0.926,-0.819 0.668,-0.935 1.495,-1.597 1.959,-2.576 -1.236,0.538 -2.912,1.425 -3.014,2.921 0.065,0.739 0.617,1.069 1.12,1.579l-0.001 0zm-1.715 -16.313l-0.674 -0.897 -5.699 2.311c-2.828,0.832 -5.411,1.93 -7.995,3.344 -1.658,0.51 -3.402,1.034 -4.945,1.845 0.84,0.822 3.849,-0.515 4.414,-0.625l4.098 0.015 2.425 -2.089c0.51,-0.043 0.862,-0.38 1.256,-0.674l7.12 -3.23z"/>
   </g>
  </g>
  <path fill="none" d="M207.298 27.894c-0.11,-0.063 -0.222,-0.122 -0.337,-0.177 -4.975,-2.38 -9.714,-5.334 -14.858,-7.149 -4.647,-1.639 -11.454,-2.699 -17.288,-4.719 -2.277,-0.789 -4.556,-1.589 -6.82,-2.415l-0.004 -0.03 -9.999 -4.08 -0.175 -0.072c-0.614,-0.28 -1.553,-1.207 -2.512,-1.889 -0.494,-0.369 -0.613,-0.563 -1.038,-0.905 -2.856,-2.299 -5.606,-5.635 -9.574,-5.641 -0.901,-0.002 -1.04,-0.123 -1.779,-0.163l-7.601 -0.17c-5.892,-0.486 -12.055,-0.501 -18.06,-0.477 -5.087,0.02 -9.557,0.063 -14.567,0.477 -2.529,0.209 -4.996,0.029 -7.6,0.17 -0.739,0.04 -0.878,0.161 -1.779,0.163 -3.968,0.006 -6.718,3.342 -9.575,5.641 -0.424,0.342 -0.543,0.536 -1.037,0.905 -0.741,0.527 -1.471,1.2 -2.047,1.608 -0.17,0.121 -0.326,0.218 -0.465,0.281l-10.174 4.152 -0.003 0.03c-2.265,0.826 -4.544,1.626 -6.821,2.415 -5.834,2.02 -12.641,3.08 -17.288,4.719 -5.144,1.815 -9.883,4.769 -14.858,7.149 -0.212,0.101 -0.412,0.215 -0.605,0.339 -0.909,0.583 -1.664,1.379 -2.651,2.001 -11.263,7.099 -18.243,27.467 -21.401,39.215 -1.569,5.839 -1.98,12.983 -2.969,19.04 -0.5,3.067 -1.172,6.193 -1.752,9.253 -0.585,3.095 -0.872,6.493 -1.288,9.631 -0.406,0.268 -0.327,-0.023 -0.308,0.899l-0.065 1.854 0 8.783c0.041,1.018 0.102,1.813 0.186,2.164 1.125,0.477 3.706,0.514 5.07,0.712 7.662,1.114 9.041,0.828 15.791,1.554l21.547 1.349c-0.015,-1.623 0.547,-10.725 0.578,-13.424l-0.603 -0.316 -0.07 -0.036c0,-4.476 -0.011,-9.226 -0.011,-13.7 1.678,4.247 3.328,18.944 3.789,24.023 0.735,8.116 1.826,16.186 2.512,24.347 0.348,4.137 0.874,8.269 1.009,12.419l0.653 12.776c0.396,4.199 0.208,8.934 0.274,13.179 0.032,2.062 0.194,4.007 0.186,6.13 -0.007,2.226 -0.172,4.349 -0.196,6.512 -0.051,4.469 -0.054,8.634 -0.319,13.111 -0.68,11.475 -1.257,26.076 -3.267,37.02 -0.966,5.407 -2.177,11.944 -2.754,17.389 -0.258,2.432 -0.827,10.057 -1.468,11.951 -0.68,2.01 -0.163,3.658 -0.568,5.77 -0.342,1.785 -0.742,3.812 -1.164,5.568 -0.463,1.93 -1.435,3.647 0.397,4.966 4.276,1.054 8.552,2.108 13.913,3.017 5.36,0.909 11.804,1.672 18.03,2.048 6.226,0.375 12.232,0.363 21.568,0.476 9.335,0.112 21.999,0.351 32.523,0.382 10.525,0.032 18.909,-0.144 26.242,-0.419 7.333,-0.275 13.615,-0.65 19.058,-1.151 5.443,-0.501 10.048,-1.126 13.829,-1.873 3.78,-0.746 6.736,-1.613 9.693,-2.48 1.832,-1.319 0.86,-3.036 0.397,-4.966 -0.422,-1.756 -0.822,-3.783 -1.164,-5.568 -0.405,-2.112 0.112,-3.76 -0.568,-5.77 -0.641,-1.894 -1.21,-9.519 -1.468,-11.951 -0.577,-5.445 -1.788,-11.982 -2.754,-17.389 -2.01,-10.944 -2.587,-25.545 -3.267,-37.02 -0.265,-4.477 -0.268,-8.642 -0.319,-13.111 -0.024,-2.163 -0.189,-4.286 -0.196,-6.512 -0.008,-2.123 0.154,-4.068 0.186,-6.13 0.066,-4.245 -0.122,-8.98 0.274,-13.179l0.653 -12.776c0.135,-4.15 0.661,-8.282 1.009,-12.419 0.686,-8.161 1.777,-16.231 2.512,-24.347 0.461,-5.079 1.889,-19.043 3.568,-23.29 0,4.474 -0.105,8.584 -0.105,13.06l0 0 -0.416 0.247c-0.004,0.882 0.338,12.091 0.604,13.423l21.579 -1.336c6.75,-0.726 8.129,-0.44 15.791,-1.554 1.364,-0.198 3.945,-0.235 5.07,-0.712 0.084,-0.351 0.145,-1.146 0.186,-2.164l0 -8.783 -0.065 -1.854c0.014,-0.687 0.062,-0.7 -0.083,-0.774 -0.05,-0.025 -0.122,-0.057 -0.225,-0.125 -0.416,-3.138 -0.703,-6.536 -1.288,-9.631 -0.58,-3.06 -1.252,-6.186 -1.752,-9.253 -0.989,-6.057 -1.4,-13.201 -2.969,-19.04 -3.158,-11.748 -10.138,-32.116 -21.401,-39.215 -1.057,-0.665 -1.895,-1.576 -2.919,-2.163z"/>
 </g>
</svg>
