<?xml version="1.0" encoding="utf-8"?>
<!-- Generator: Adobe Illustrator 16.0.3, SVG Export Plug-In . SVG Version: 6.00 Build 0)  -->
<!DOCTYPE svg PUBLIC "-//W3C//DTD SVG 1.1//EN" "http://www.w3.org/Graphics/SVG/1.1/DTD/svg11.dtd">
<svg version="1.1"
	 id="Layer_1" image-rendering="optimizeQuality" text-rendering="geometricPrecision" shape-rendering="geometricPrecision" xmlns:xodm="http://www.corel.com/coreldraw/odm/2003"
	 xmlns="http://www.w3.org/2000/svg" xmlns:xlink="http://www.w3.org/1999/xlink" x="0px" y="0px" width="240px" height="296px"
	 viewBox="0 0 240 296" enable-background="new 0 0 240 296" xml:space="preserve">
<g id="Camada_x0020_1">
	<path id="d2" fill="#F00808" d="M53.719,168.366h0.391v3.567h0.207v0.999h0.544v-1.419h0.116v-3.147h0.544v1.636h0.28v-1.636v4.046
		h0.401v5.721h0.143v1.611h0.544v-9.742h0.308v-1.636v4.046h0.533v4.352h0.555v-7.383h0.295v-0.371h0.029v-0.644v4.046h0.437v6.121
		h0.545v-1.77h0.106v-7.383h0.225v5.201h0.544v-6.288h0.335v8.402h0.544v-2.114h0.517v-8.541h0.218v3.833h0.544v7.46h0.543v-2.354
		h0.143v-8.939h0.508v-0.583h0.159v4.381h0.15v4.144h0.035v0.998h0.544v-1.835h0.359v-3.935h0.149v-3.753h0.158v4.381h0.201v5.142
		h0.544v-1.835h0.226v0.64h0.544v-3.827h0.149v-0.119h0.292v3.307h0.375v10.148h0.544v-9.509h0.035v-3.354h0.106v0.323h0.402v-4.432
		h0.36v7.462h0.544v-3.354h0.09v0.586h0.426v-0.996h0.335v1.406h0.544v-0.996h0.106v0.586h0.226v8.727h0.544v-3.487h0.334v-7.145
		h0.517v6.331h0.544v-8.238h0.544v-0.734h0.151v4.947v-2.898h0.173v6.924h0.371v0.734h0.544v-8.973h0.173v-0.734h0.158v6.236h0.544
		v-0.721h0.471v-1.557h0.381v2.277h0.545v0.266h0.201v-2.316h0.278v-2.137h0.388v4.188h0.544v-0.081h0.036v-0.117h0.121v-1.853
		h0.387v-0.592h0.294v-1.629h0.05v4.19h0.543v0.345h0.544v9.006h0.544v-9.351h0.325v-0.652h0.406v0.957h0.396v-4.495h0.147v4.057
		h0.544v-0.519h0.396v-3.017h0.279v3.21v-2.695h0.544v1.69h0.137v7.264h0.544v-9.469h0.308v2.253v-1.791h0.545v6.024h0.544v-2.473
		h0.229v10.323h0.543v-13.875h0.095v6.024h0.544v-6.502h0.014v11.375h0.544v-11.283h0.544v2.896v-0.912h0.173v-2.076h0.543v2.221
		h0.544v-1.286h0.174v9.868h0.545v-7.037h0.308v-3.288h0.344v7.345h0.2v2.98h0.544v-6.4h0.233v-4.54h0.091v0.615h0.327v7.345h0.217
		v2.98h0.544V168.37h0.537v4.974h0.115v3.42h0.544v-4.057h0.392v-1.285h0.122v11.659h0.543v-6.385h0.544v-4.046v0.057h0.203v-1.285
		h0.391v-1.631h0.545v0.557h0.032v1.924h0.288v-2.48h0.544v-0.132h0.003v0.132h0.545v0.557h0.08v9.184h0.544v-6.386h0.544v-1.229
		h0.257v1.04h0.052v6.787h0.543v-6.599h0.545v-4.425h0.033v3.85H102v7.174h0.544v-6.599h0.544v-4.425h0.305v2.482h0.32v-2.837h0.345
		v0.093h0.544v1.51h0.544v-1.603h0.507v1.039h0.232v6.558h0.544v8.487h0.544v-16.084h0.092v1.039h0.303v-1.039h0.545v3.567h0.207
		v0.999h0.544v-1.419h0.117v-3.147h0.544v1.636h0.28v-1.636v4.046h0.402v5.721h0.142v2.766h0.544v-10.896H111v-1.636v4.046h0.544
		v3.031h0.544v-6.063h0.295v-0.371h0.03v-0.644v4.046h0.302v6.121h0.544v-3.09h0.241v-6.063h0.225v5.201h0.545v-4.158h0.334v0.377
		h0.518v3.781h0.544v-8.541h0.218v4.203h0.544v8.388h0.544v-3.651h0.006v-0.398h0.1v-8.541h0.543v-0.583h0.159v1.413h0.185v8.109
		h0.151v5.303h0.544v-7.939h0.208v-1.631h0.335v-0.874h0.173v5.142h0.544v-1.835h0.226v1.937h0.15v7.999h0.543v-11.313h0.291v1.377
		h0.411v0.64h0.292v2.946h0.543v-9.569h0.285v10.535h0.544v-3.912h0.292v-3.55h0.252v-2.38h0.159v11.313h0.106v0.362h0.544v-2.473
		h0.47v-8.403h0.291v10.514h0.544v-11.646h0.226v9.57h0.15v1.44h0.544v-4.388h0.142v-4.554h0.402v-2.069h0.174v9.57h0.545v-1.649
		h0.274v-1.937h0.427V170.2h0.335v7.933h0.544v-2.689h0.106v-2.736h0.226v2.273h0.545v-7.747h0.185v-1.192h0.282v6.892h0.52v2.048
		h0.544v-2.639h0.024v-5.108h0.042v-1.192h0.478v-0.583h0.083v13.536h0.544v-2.298h0.544v-10.655h0.241v-0.583h0.209v9.124h0.544
		v-4.613h0.289v-0.588h0.201v-0.561h0.343v2.951v-2.982h0.034v5.793h0.544v-5.201h0.227v6.063h0.543v-2.298h0.545V169.1v3.857h0.028
		v-3.576h0.278v11.518h0.545v-7.753h0.544V169.1v3.471h0.233v-0.653h0.09v8.981h0.545v-7.753h0.544V169.1v1.266h0.278v-1.999h0.258
		v1.603h0.545v2.888h0.543v-2.491h0.051v-1.999h0.545v1.039h0.319v-1.039h0.257v7.597h0.545v7.331h0.543v-13.889h0.053v-1.039h0.543
		v3.146h0.032v1.832h0.544v-4.54h0.545v-0.438h0.291v3.146h0.303v-2.207h0.034v2.03v-2.965h0.287v4.042h0.257v0.932h0.287v6.4h0.544
		v-8.232h0.003v-2.207h0.305v-0.938v4.046h0.544v3.973h0.544v-6.913h0.121v1.69h0.203v1.25h0.543v3.973h0.545v-7.705h0.081v1.111
		h0.433v10.685h0.544v-10.685h0.114v0.557h0.305v-0.557h0.233v13.503h0.544v-9.589h0.543v-3.307v2.309h0.091v-2.916h0.544v1.227
		h0.393v1.689h0.191v-1.545h0.217v5.762h0.545v-7.048h0.326v2.696v-1.555h0.133v1.689h0.191v7.037h0.545v-2.82h0.201v-4.432h0.148
		v-2.338h0.193v-1.913h0.309v11.503h0.545v-2.82h0.215v-6.77h0.014v8.84h0.545v-5.289h0.094v6.039h0.543v-9.59h0.545v2.553h0.174
		v-3.766h0.545v3.203h0.462v-3.625h0.39v0.422h0.423v6.502h0.544v-5.289h0.544v-0.238h0.048v2.07h0.261v3.457h0.543v-5.289h0.543
		v6.182h0.544v-0.893h0.324v-5.289h0.545v1.789v-3.35h0.406v1.471h0.01v1.397h0.471v0.037V168.6h0.543v7.657h0.545v-4.795h0.332
		v1.324h0.545v-1.358h0.336v-0.673h0.037v0.707h0.479v1.324h0.543v-4.351h0.066v2.301h0.479v-0.591h0.324v2.641h0.371v6.208h0.543
		v-8.258h0.174v-0.591h0.159v2.827h0.184v-0.266h0.544v-3.205h0.15v-0.484h0.545v3.955h0.173v-0.266h0.544v-5.502h0.017v1.553h0.545
		v4.77h0.142v1.916h0.544v-8.238h0.508v-0.734h0.308v11.227h0.036v2.047h0.544v-9.182h0.358v-0.327h0.149v-3.765h0.359v13.273h0.545
		v-2.686h0.375v-7.081h0.396v-1.322h0.149v-2.702h0.291v4.609h0.375v7.971h0.544v-4.388h0.142v-4.554h0.402v-2.907h0.142v-1.479
		h0.218v4.771h0.09v4.168h0.545v-0.639h0.428V170.2h0.333v7.933h0.544v-3.987h0.106v-0.639h0.226v1.474h0.545v-4.78h0.186v-4.159
		h0.281v6.892h0.042v0.574h0.344v1.474h0.544v-2.639h0.158V170.2h0.041v-4.159h0.344v-0.583h0.218v15.892h0.556v-4.653h0.532
		v-10.655h0.107v-0.583h0.343v9.124h0.544v-4.613h0.289v-0.588h0.201v-0.561h0.343v2.951v-2.982h0.035v1.932
		c0.047-1.993,0.102-3.926,0.16-5.672c0.174-5.257,0.375-8.824,0.651-12.793c0.275-3.969,0.628-8.34,0.974-12.258
		c0.347-3.918,0.688-7.385,1.121-11.731c0.432-4.345,0.955-9.57,1.482-13.976s1.059-7.993,1.509-10.608
		c0.243-1.407,0.46-2.533,0.659-3.435v-4.67h-0.543v-7.332h-0.545v14.928h-0.092v-2.191h-0.305v2.191h-0.543v1.529h-0.207v-6.095
		h-0.544v6.516h-0.116v-1.95h-0.545v3.46h-0.278v-7.505h-0.403v-5.722h-0.142v-1.61h-0.544v14.837h-0.309v-7.505h-0.531v-4.354
		h-0.557v7.384h-0.295v-0.781h-0.029v1.796v-4.044h-0.438v-6.122h-0.543v1.768h-0.107v7.384h-0.226v-5.202h-0.544v6.288h-0.334
		v-8.401h-0.545v2.113h-0.516v7.389h-0.219v2.416h-0.545V94.204h-0.543v2.354h-0.142v7.789h-0.509v0.583h-0.158v1.867h-0.15v-9.238
		h-0.035v-1h-0.543v1.836h-0.359v2.782h-0.148v3.753h-0.159v1.867h-0.2V96.557h-0.545v1.836h-0.227v-0.639h-0.544v8.923h-0.149
		v0.118h-0.293v-8.402h-0.374V88.245h-0.544v9.509h-0.036v3.354h-0.104v4.772h-0.403v-4.933v3.117h-0.359v-6.311h-0.543v3.354
		h-0.091v4.51h-0.428v0.995h-0.333v-6.501h-0.546v0.996h-0.105v4.51h-0.227V91.796h-0.544v3.485h-0.335v7.146h-0.517v-6.332h-0.544
		v7.086h-0.544v0.734h-0.151v1.301v-2.199h-0.173v-6.922h-0.37v-0.734h-0.545v11.502v-3.682h-0.173v0.734h-0.159v-5.083h-0.543v0.72
		h-0.471v1.557h-0.381v-2.276h-0.544v4.83h-0.201v2.315h-0.278v-2.96h-0.389v-4.185h-0.544v0.08h-0.036v5.214h-0.119v1.852h-0.389
		v0.592h-0.295v-3.467h-0.049v-4.191h-0.544v-0.344h-0.543v-9.005h-0.544v9.349h-0.324v5.749h-0.406v-0.957h-0.396v-0.601h-0.148
		v-4.057h-0.544v5.615h-0.396v-3.726v0.493h-0.279v3.039v-2.401h-0.544v-1.689h-0.138v-7.263h-0.544v8.314h-0.309v3.996v-3.306
		h-0.543v-6.023h-0.544v2.473h-0.23V88.245h-0.544v13.874h-0.095v-6.023h-0.544v6.503h-0.013V91.223h-0.544v11.284h-0.544v3.111
		h-0.174v-3.019h-0.543v-2.221h-0.543v1.283h-0.176v-9.866h-0.545v12.133h-0.307v-1.81h-0.344v-7.345h-0.201v-2.979h-0.543v6.4
		h-0.232v4.54h-0.092v-0.617h-0.328v-7.345h-0.217v-2.979h-0.543v11.373h-0.537v-4.973h-0.115v-3.422h-0.543v9.154h-0.393v1.284
		h-0.121V88.458h-0.545v6.386h-0.543v9.085h-0.203v1.284h-0.393v-3.467h-0.543v4.541h-0.033v-1.924h-0.288v-2.617h-0.544v0.133
		h-0.004v-0.133h-0.545v4.541h-0.078V92.01h-0.545v6.384h-0.544v1.229h-0.257v4.056h-0.052V91.796h-0.543v6.598h-0.544v4.046v-0.774
		h-0.033v4.303v-1.904h-0.291V91.796h-0.544v6.598h-0.545v4.046v-0.774h-0.304v-0.049v3.814h-0.32v-2.259h-0.344v-0.092h-0.545
		v-1.509h-0.544v1.601H142.4v-2.191h-0.232v-5.404h-0.545v-8.488h-0.543v16.084h-0.092v-2.191h-0.305v2.191h-0.543v1.529h-0.207
		v-6.095h-0.544v6.516h-0.116v-1.95h-0.546v3.46h-0.278v-7.505h-0.402v-5.722h-0.143V90.64h-0.543v15.993h-0.309v-7.505h-0.545
		v-3.033h-0.543v6.063h-0.296v-0.781h-0.028v1.796v-4.044h-0.302v-6.122h-0.544v3.089h-0.242v6.063h-0.225v-5.202h-0.545v9.256
		h-0.334v-5.474h-0.518v-3.782h-0.545v7.389h-0.217v2.046h-0.545V92.906h-0.543v3.651h-0.007v0.399h-0.101v7.389h-0.543v0.583
		h-0.158v-1.413h-0.186v-6.958h-0.15v-5.3h-0.543v13.034h-0.209v1.632h-0.336v0.873h-0.174V96.557h-0.543v1.836h-0.227v-1.937
		h-0.149v-8h-0.544v16.41h-0.291v-6.474h-0.411v-0.639h-0.292v-2.946h-0.545v8.416h-0.283v-9.381h-0.544v3.911h-0.292v8.646h-0.252
		v-3.868h-0.158V92.37h-0.107v-0.36h-0.544v2.472h-0.47v8.402h-0.291V92.37h-0.545v10.494h-0.225v-8.418h-0.15v-1.439h-0.544v4.387
		h-0.142v9.649h-0.402v-5.202v1.023h-0.174v-8.418h-0.544v1.65h-0.276v1.937h-0.426v8.403h-0.334V93.406h-0.544v2.689h-0.107v7.833
		h-0.226v-7.372h-0.543v6.596h-0.185v1.192h-0.282v-5.739h-0.52v-2.05h-0.544v7.737h-0.024v1.75v-2.891h-0.042v1.192h-0.478v0.583
		h-0.083v1.051V92.544h-0.544v2.299h-0.544v9.502h-0.241v0.583h-0.208v-7.972h-0.544v4.615h-0.289v0.586h-0.201v0.561h-0.343v2.145
		v-3.266h-0.035v-4.641h-0.544v5.202h-0.225v-6.063h-0.544v2.298h-0.544v5.285h-0.029v-1.521h-0.279V90.64h-0.544v7.753h-0.544
		v5.671h-0.232v-4.442h-0.092V90.64h-0.544v7.753h-0.544v7.877h-0.28v-3.097h-0.257v-1.602h-0.544v2.207h-0.544v2.492h-0.051v-3.097
		h-0.544v-2.192h-0.32v2.192h-0.257v-7.597h-0.544v-7.332h-0.544v16.471v-3.735h-0.051v2.192h-0.543v1.949h-0.033v-6.927h-0.544
		v4.54h-0.544v0.438h-0.292v1.949h-0.304v-4.041h-0.033v4.218v-2.131h-0.287v-4.041h-0.257v-0.932h-0.287v-6.4h-0.544v13.327h-0.004
		v-4.041h-0.304v2.09v-4.044h-0.544v-3.975h-0.544v6.914h-0.122v-1.689h-0.202v-1.25h-0.544v-3.975h-0.544v7.706h-0.081v-1.113
		h-0.433V91.064h-0.544v10.682h-0.115v4.541h-0.305v-4.541h-0.232V88.245h-0.545v9.59h-0.543v6.094h-0.092v-2.183h-0.544v3.872
		h-0.392v-1.689H93.35v-3.55h-0.217v-5.764h-0.544v7.048h-0.328v3.956h-0.133v-1.689h-0.191V91.796h-0.544v2.818h-0.2v4.433h-0.15
		v2.339h-0.193v1.913h-0.308V91.796h-0.545v2.818h-0.216v6.772h-0.013v-8.842h-0.544v5.291h-0.094v-6.039h-0.544v9.59h-0.544v2.542
		h-0.174v-1.33h-0.544v1.892H86.86v-1.473h-0.389v-0.419h-0.423v-6.503h-0.544v5.291H84.96v0.235h-0.048v-2.069h-0.259v-3.457
		h-0.544v5.291h-0.544v-6.185h-0.543v0.894h-0.325v5.291h-0.544v3.305v-2.897h-0.407v4.776h-0.009v-1.398h-0.471v-2.234h-0.544
		v-7.657h-0.544v9.891h-0.331v-6.419h-0.544v1.359h-0.335v5.769h-0.039v-0.708h-0.479v-6.419h-0.544v4.351H77.84v2.796h-0.479v0.59
		h-0.323v-7.737h-0.371v-6.208h-0.544v13.355h-0.174v0.59h-0.158v-2.827h-0.185v-4.83h-0.544v8.3h-0.151v-4.61h-0.544v1.141h-0.173
		v-4.83H73.65v4.349h-0.017v-1.552H73.09v-3.618h-0.143v-1.916h-0.543v7.086h-0.509v0.734h-0.308V93.843h-0.036v-2.047h-0.544
		v14.278h-0.359v0.326H70.5v-2.484h-0.359v-12.12h-0.544v2.686h-0.376v7.081h-0.396v1.321h-0.148v1.551h-0.291v1.639h-0.377V93.007
		h-0.543v4.387h-0.143v9.649h-0.402v-5.202v1.861h-0.142v1.478h-0.217v-3.618h-0.091v-4.168h-0.544v0.638h-0.426v8.403h-0.335
		V93.406h-0.544v3.988h-0.105v0.638H64.29v-1.475h-0.544v9.878h-0.184v-2.089H63.28v-5.739h-0.042v-0.575h-0.344v-1.475H62.35v7.737
		h-0.158v2.141h-0.042v-2.089h-0.344v0.583h-0.217V90.191h-0.556v4.652h-0.532v9.502h-0.107v0.583h-0.343v-7.972h-0.544v4.615
		h-0.289v0.586h-0.201v0.561h-0.343v2.145v-3.266h-0.035v-4.641h-0.544v5.202H57.87v-8.417h-0.556v4.652h-0.532v5.285h-0.029v-1.521
		h-0.279V91.796H55.93v6.598h-0.544v5.671h-0.232v-4.442h-0.092v-7.827h-0.544v6.598h-0.544v7.877h-0.28v-3.097h-0.257v-1.602
		h-0.544v2.207h-0.544v2.492h-0.051v-3.097h-0.544v-2.192h-0.32v2.192h-0.257v-7.597h-0.544v-7.332h-0.544v16.471v-3.735h-0.052
		v2.192h-0.544v1.949h-0.032v-6.927h-0.545v4.54h-0.544v0.438h-0.291v1.949h-0.303v-4.041h-0.033v4.218v-2.131h-0.287v-4.041h-0.257
		v-0.932h-0.287v-6.4H46.37v10.099l0.031,0.123c0.229,0.938,0.407,1.937,0.606,3.543c0.2,1.607,0.421,3.82,0.738,6.223
		c0.316,2.403,0.728,4.995,1.467,11.38c0.738,6.386,1.803,16.564,2.638,24.487c0.834,7.922,1.437,13.589,1.809,19.678
		L53.719,168.366z M46.366,101.877v-0.795h-0.214C46.226,101.34,46.298,101.606,46.366,101.877z M46.062,100.78v-1.652h-0.543
		v-4.514h-0.525c-0.003,0.146-0.01,0.273-0.019,0.386v2.896l0.068,0.155c0.115,0.256,0.344,0.769,0.597,1.462
		C45.777,99.889,45.922,100.317,46.062,100.78z"/>
	<path id="camisa_contorno" fill="none" d="M136.779,295.682c2.457-0.098,4.621-0.225,7.009-0.355
		c2.389-0.131,5.001-0.265,8.253-0.492s7.144-0.55,10.459-0.852c3.316-0.301,6.056-0.583,8.786-0.947
		c2.729-0.365,5.448-0.813,7.646-1.249s3.873-0.858,5.995-1.329c2.124-0.473,4.696-0.996,6.589-1.32
		c1.891-0.324,3.104-0.453,4.264-0.536c1.158-0.083,2.264-0.124,3.15-0.116c0.888,0.008,1.558,0.063,1.954,0.094
		s0.519,0.038,0.61,0.043c0.049,0.002,0.091,0.004,0.127,0.006c0.094-0.068,0.163-0.18,0.178-0.777
		c0.016-0.674-0.037-1.964-0.107-2.783c-0.067-0.818-0.153-1.166-0.284-1.854c-0.13-0.688-0.307-1.719-0.65-2.683
		c-0.344-0.966-0.856-1.864-1.474-3.042c-0.619-1.178-1.342-2.636-1.782-3.612c-0.438-0.978-0.595-1.476-0.847-2.69
		c-0.25-1.216-0.598-3.15-0.951-5.865c-0.354-2.716-0.716-6.212-1.037-8.875c-0.322-2.662-0.604-4.49-1.08-7.551
		c-0.478-3.06-1.15-7.35-1.709-11.51c-0.557-4.159-0.999-8.188-1.346-12.213c-0.346-4.023-0.598-8.043-0.759-11.625
		c-0.16-3.582-0.23-6.727-0.286-9.776s-0.095-6.003-0.156-9.249c-0.06-3.245-0.141-6.781-0.107-12.024
		c0.032-5.242,0.178-12.19,0.352-17.448c0.174-5.257,0.375-8.824,0.651-12.793c0.275-3.969,0.628-8.34,0.974-12.258
		c0.347-3.918,0.688-7.385,1.121-11.731c0.432-4.345,0.955-9.57,1.482-13.976s1.059-7.993,1.509-10.608
		c0.45-2.614,0.816-4.257,1.138-5.303c0.322-1.044,0.598-1.492,0.803-1.763s0.338-0.366,0.404-0.414
		c0.066-0.049,0.066-0.049,0.049,0.598c-0.018,0.645-0.053,1.937-0.107,3.529c-0.055,1.592-0.131,3.486-0.172,4.962
		c-0.041,1.476-0.05,2.533-0.08,3.183c-0.029,0.649-0.082,0.89-0.102,1.01c-0.019,0.12-0.004,0.117-0.041,0.151
		c-0.037,0.034-0.129,0.104-0.134,0.679c-0.005,0.575,0.075,1.656,0.192,3.048c0.117,1.394,0.27,3.099,0.322,4.78
		c0.051,1.682,0,3.339,0.002,4.226c0,0.887,0.051,1.002,0.132,1.078c0.079,0.075,0.187,0.11,1.001,0.06
		c0.812-0.052,2.329-0.188,4.1-0.324c1.771-0.136,3.796-0.271,5.947-0.43c2.154-0.158,4.435-0.339,6.582-0.462
		c2.147-0.123,4.162-0.188,5.986-0.298c1.823-0.111,3.457-0.267,5.33-0.47c1.873-0.204,3.988-0.456,6.009-0.682
		c2.02-0.226,3.943-0.426,5.104-0.564c1.16-0.138,1.557-0.214,1.756-0.326c0.199-0.114,0.199-0.264,0.229-0.905
		c0.029-0.64,0.09-1.771,0.107-3.129c0.018-1.359-0.008-2.947-0.022-4.424c-0.015-1.476-0.021-2.843-0.038-3.719
		c-0.018-0.877-0.047-1.264-0.072-1.469c-0.023-0.203-0.041-0.226-0.082-0.293c-0.04-0.068-0.102-0.181-0.174-0.68
		c-0.07-0.5-0.151-1.387-0.254-2.319s-0.229-1.91-0.349-2.735c-0.118-0.827-0.231-1.502-0.411-2.542
		c-0.18-1.04-0.426-2.443-0.613-3.445s-0.315-1.599-0.436-2.267c-0.12-0.669-0.234-1.407-0.365-2.119
		c-0.132-0.712-0.283-1.398-0.425-2.154c-0.142-0.756-0.274-1.583-0.374-2.32c-0.1-0.737-0.165-1.385-0.239-2.026
		c-0.073-0.642-0.157-1.278-0.257-2.033c-0.102-0.757-0.219-1.633-0.34-2.524c-0.119-0.89-0.244-1.794-0.354-2.562
		c-0.107-0.767-0.204-1.397-0.371-2.341c-0.168-0.944-0.408-2.201-0.818-4.081c-0.412-1.879-0.996-4.382-1.703-6.883
		c-0.709-2.502-1.543-5.004-2.648-7.737c-1.104-2.733-2.481-5.697-4.089-8.843c-1.608-3.144-3.446-6.47-4.874-8.771
		c-1.426-2.301-2.44-3.577-3.448-4.625c-1.007-1.047-2.007-1.866-3.011-2.605c-1.006-0.738-2.016-1.396-2.581-1.77
		c-0.564-0.375-0.686-0.465-0.755-0.57c-0.068-0.106-0.086-0.226-0.095-0.303c-0.009-0.077-0.009-0.109-0.069-0.175
		c-0.061-0.065-0.181-0.163-1.307-0.713c-1.125-0.55-3.255-1.553-5.304-2.599c-2.048-1.048-4.015-2.14-5.765-2.973
		s-3.281-1.405-5.055-1.955s-3.789-1.078-5.424-1.505c-1.635-0.427-2.892-0.753-3.758-1.007c-0.867-0.254-1.344-0.435-2.043-0.699
		c-0.697-0.266-1.617-0.614-2.604-0.909c-0.985-0.294-2.039-0.533-2.713-0.687c-0.674-0.152-0.97-0.221-1.438-0.471
		c-0.467-0.25-1.104-0.681-1.58-0.935c-0.475-0.254-0.786-0.33-1.07-0.364c-0.287-0.035-0.545-0.03-0.777-0.03
		s-0.438-0.005-1.342-0.33c-0.902-0.325-2.503-0.971-4.021-1.575s-2.955-1.167-4.399-1.746s-2.896-1.175-3.812-1.567
		c-0.916-0.393-1.295-0.584-1.593-0.778c-0.298-0.195-0.513-0.392-0.704-0.498c-0.191-0.104-0.355-0.115-0.465-0.115
		c-0.111-0.001-0.166,0.009-0.252-0.005c-0.086-0.013-0.204-0.052-0.586-0.291c-0.382-0.24-1.027-0.683-1.676-1.192
		c-0.65-0.509-1.303-1.087-1.955-1.659c-0.652-0.571-1.303-1.137-2.309-1.567c-1.006-0.43-2.367-0.727-3.719-0.918
		c-1.352-0.191-2.693-0.276-4.572-0.354c-1.879-0.078-4.295-0.148-7.922-0.13c-3.628,0.018-8.465,0.123-12.901,0.219
		c-4.435,0.096-8.466,0.183-10.586,0.231c-2.121,0.047-2.33,0.057-4.148,0.202s-5.244,0.427-7.396,0.67
		c-2.153,0.244-3.032,0.45-3.748,0.707c-0.715,0.256-1.269,0.563-1.884,1.078s-1.293,1.239-2.017,1.875
		c-0.724,0.637-1.492,1.187-1.95,1.458s-0.607,0.265-0.901,0.366c-0.293,0.102-0.733,0.313-1.266,0.581
		c-0.533,0.27-1.158,0.596-1.918,0.921s-1.655,0.649-2.299,0.903c-0.644,0.254-1.038,0.437-1.512,0.628
		c-0.473,0.191-1.026,0.39-1.763,0.62c-0.737,0.231-1.659,0.496-2.555,0.835c-0.895,0.34-1.764,0.758-2.57,1.075
		c-0.806,0.316-1.551,0.532-2.296,0.748c-0.747,0.216-1.495,0.432-2.051,0.655c-0.556,0.222-0.921,0.451-1.206,0.635
		c-0.285,0.185-0.492,0.326-1,0.476c-0.507,0.149-1.316,0.31-1.911,0.462c-0.596,0.154-0.978,0.3-1.486,0.491
		c-0.51,0.192-1.146,0.428-1.749,0.616c-0.602,0.189-1.169,0.33-1.686,0.459c-0.515,0.129-0.979,0.247-1.697,0.425
		c-0.718,0.179-1.692,0.417-2.548,0.632c-0.856,0.216-1.596,0.408-2.169,0.57c-0.573,0.161-0.979,0.292-1.435,0.425
		c-0.455,0.134-0.961,0.271-1.425,0.399c-0.464,0.129-0.886,0.25-1.31,0.377c-0.424,0.128-0.85,0.262-1.202,0.398
		c-0.353,0.137-0.632,0.276-1.012,0.437c-0.38,0.159-0.861,0.338-1.277,0.53c-0.417,0.191-0.768,0.393-1.165,0.602
		s-0.837,0.423-1.219,0.616c-0.382,0.194-0.704,0.365-1.125,0.587c-0.421,0.223-0.939,0.496-1.656,0.865
		c-0.715,0.371-1.629,0.837-2.69,1.369c-1.063,0.532-2.273,1.126-3.178,1.573c-0.904,0.448-1.502,0.746-2.035,1.087
		c-0.532,0.34-1,0.722-1.442,1.079c-0.442,0.357-0.859,0.689-1.351,1.078c-0.493,0.39-1.061,0.836-1.777,1.473
		c-0.717,0.637-1.584,1.464-2.373,2.329c-0.789,0.865-1.5,1.769-2.143,2.662c-0.642,0.893-1.218,1.774-1.921,2.932
		c-0.703,1.156-1.535,2.588-2.206,3.817c-0.67,1.228-1.18,2.252-1.73,3.26c-0.55,1.007-1.141,1.997-1.643,2.939
		c-0.502,0.942-0.917,1.836-1.311,2.757c-0.395,0.919-0.769,1.867-1.15,2.753c-0.382,0.886-0.771,1.709-1.284,3.039
		c-0.512,1.331-1.148,3.166-1.715,4.906c-0.565,1.739-1.063,3.382-1.487,4.831c-0.425,1.45-0.776,2.706-1.128,4.22
		s-0.704,3.288-1.143,5.662c-0.44,2.373-0.967,5.347-1.29,7.066c-0.321,1.718-0.437,2.18-0.542,2.669
		c-0.105,0.49-0.201,1.007-0.399,1.833c-0.198,0.824-0.5,1.954-0.806,3.139c-0.307,1.186-0.619,2.427-0.839,3.475
		c-0.221,1.047-0.351,1.901-0.575,3.162c-0.223,1.262-0.54,2.929-0.785,4.293c-0.247,1.364-0.422,2.424-0.529,2.971
		c-0.105,0.548-0.14,0.583-0.203,0.634c-0.064,0.049-0.155,0.115-0.251,2.243c-0.097,2.128-0.197,6.319-0.274,8.613
		c-0.079,2.295-0.133,2.691,0.035,2.899c0.168,0.209,0.559,0.229,1.416,0.337s2.178,0.304,4.507,0.753
		c2.328,0.45,5.665,1.153,8.33,1.666c2.665,0.512,4.66,0.833,6.744,1.18c2.085,0.347,4.26,0.718,7.232,1.191
		c2.972,0.472,6.74,1.045,9.141,1.371c2.401,0.327,3.437,0.407,3.954,0.447c0.518,0.041,0.518,0.041,0.568-0.542
		c0.049-0.583,0.148-1.749,0.262-2.756c0.113-1.009,0.241-1.858,0.393-2.934c0.153-1.077,0.329-2.377,0.498-3.573
		c0.17-1.196,0.333-2.286,0.417-2.898c0.085-0.613,0.09-0.749,0.076-0.864c-0.014-0.115-0.046-0.211-0.023-1.816
		c0.024-1.605,0.104-4.72,0.147-7.25c0.042-2.529,0.048-4.473,0.059-5.595c0.011-1.121,0.029-1.42,0.066-1.616
		c0.039-0.196,0.096-0.289,0.177-0.338c0.08-0.048,0.183-0.053,0.308,0.04c0.124,0.093,0.27,0.284,0.344,0.375
		c0.074,0.091,0.076,0.083,0.078,0.08c0.001-0.003,0.001-0.003,0.115,0.253c0.115,0.256,0.344,0.769,0.597,1.462
		c0.254,0.693,0.533,1.568,0.762,2.504c0.229,0.938,0.407,1.937,0.606,3.543c0.2,1.607,0.421,3.82,0.738,6.223
		c0.316,2.403,0.728,4.995,1.467,11.38c0.738,6.386,1.803,16.564,2.638,24.487c0.834,7.922,1.437,13.589,1.809,19.678
		s0.512,12.601,0.502,19.633c-0.01,7.033-0.171,14.59-0.373,20.589c-0.2,5.997-0.442,10.439-0.724,14.408
		c-0.281,3.968-0.603,7.465-1.446,14.146c-0.844,6.683-2.21,16.549-3.004,23.753c-0.794,7.205-1.015,11.746-1.216,15.252
		c-0.202,3.507-0.382,5.979-0.673,8.114s-0.694,3.934-0.972,5.31c-0.279,1.377-0.435,2.331-0.452,2.932
		c-0.018,0.6,0.103,0.847,0.249,0.975s0.317,0.139,0.5,0.175c0.184,0.036,0.38,0.099,0.469,0.155
		c0.019,0.011,0.032,0.021,0.042,0.037c0.875,0.321,1.75,0.644,3.15,0.924c1.401,0.279,3.326,0.517,6.487,0.753
		c3.16,0.236,7.553,0.471,11.087,0.608c3.534,0.137,6.206,0.178,9.583,0.181c3.376,0.003,7.456-0.03,11.317-0.007
		s7.505,0.104,10.581,0.191c3.074,0.087,5.58,0.181,7.908,0.251c2.328,0.07,4.478,0.116,6.782,0.17
		c2.304,0.054,4.763,0.114,7.349,0.121c2.586,0.007,5.298-0.04,8.031-0.097C131.566,295.846,134.32,295.778,136.779,295.682z"/>
</g>
</svg>
