<?xml version="1.0" encoding="utf-8"?>
<!-- Generator: Adobe Illustrator 16.0.3, SVG Export Plug-In . SVG Version: 6.00 Build 0)  -->
<!DOCTYPE svg PUBLIC "-//W3C//DTD SVG 1.1//EN" "http://www.w3.org/Graphics/SVG/1.1/DTD/svg11.dtd">
<svg version="1.1"
	 id="Layer_1" image-rendering="optimizeQuality" text-rendering="geometricPrecision" shape-rendering="geometricPrecision" xmlns:xodm="http://www.corel.com/coreldraw/odm/2003"
	 xmlns="http://www.w3.org/2000/svg" xmlns:xlink="http://www.w3.org/1999/xlink" x="0px" y="0px" width="181px" height="149px"
	 viewBox="0 0 181 149" enable-background="new 0 0 181 149" xml:space="preserve">
<g id="Camada_x0020_1">
	<path id="d1" fill="#F00808" d="M164.635,10.535c-0.084-0.104-0.168-0.211-0.25-0.322c1.813,4.563,3.488,9.127,5.043,13.678
		c-0.014,0.138-0.037,0.264-0.055,0.39c0.773,2.432,1.523,4.862,2.231,7.281c-0.263,0.034-0.524,0.068-0.782,0.103
		c-1.1-3.668-2.264-7.337-3.502-11.006c-0.023,0.161-0.045,0.321-0.068,0.481c-1.271-3.577-2.619-7.154-4.041-10.731
		c0.014,0.148,0.031,0.298,0.042,0.435c-0.276-0.653-0.549-1.306-0.819-1.972c-0.125,0.022-0.254,0.045-0.383,0.058
		c0.438,1.054,0.875,2.109,1.284,3.153c0.014,0.184,0.028,0.367,0.042,0.538c1.283,3.349,2.498,6.686,3.649,10.021
		c-0.056,0.345-0.106,0.677-0.157,1.01c0.746,2.316,1.468,4.632,2.158,6.948c-0.152-0.092-0.308-0.183-0.465-0.274
		c-0.579-1.927-1.188-3.853-1.803-5.779c-0.01-0.023-0.02-0.046-0.023-0.08c-0.346-1.021-0.687-2.042-1.035-3.072
		c-0.079-0.081-0.148-0.161-0.221-0.241c-0.977-2.764-2.002-5.527-3.065-8.29c0.005,0.172,0.019,0.344,0.032,0.516
		c-0.843-2.132-1.726-4.265-2.628-6.409c-0.125,0.023-0.253,0.046-0.378,0.058c1.063,2.534,2.099,5.067,3.088,7.59
		c0.01,0.161,0.014,0.31,0.023,0.458c0.594,1.605,1.182,3.211,1.753,4.816c-0.138-0.138-0.271-0.274-0.399-0.424
		c0.852,2.431,1.656,4.862,2.434,7.292c0.285,0.93,0.576,1.847,0.852,2.764c-0.414-0.241-0.833-0.493-1.247-0.746
		c-1.169-3.703-2.411-7.418-3.733-11.133c-0.16-0.161-0.316-0.321-0.477-0.493c-1.437-3.784-2.969-7.578-4.585-11.374
		c-0.124,0.023-0.247,0.046-0.377,0.069c1.515,3.542,2.944,7.074,4.298,10.605c-0.229-0.241-0.465-0.481-0.694-0.722
		c1.481,4.082,2.871,8.163,4.174,12.233c-0.156-0.091-0.313-0.183-0.47-0.274c-0.088,0.148-0.174,0.298-0.262,0.435
		c-1.308-4.093-2.697-8.187-4.184-12.28c-0.031,0.264-0.06,0.517-0.088,0.769c-1.371-3.588-2.825-7.177-4.357-10.766
		c-0.124,0.022-0.248,0.045-0.377,0.057c1.638,3.852,3.18,7.693,4.639,11.534c-0.028,0.23-0.06,0.459-0.088,0.688
		c1.313,3.75,2.541,7.498,3.695,11.237c-0.18,0.286-0.354,0.573-0.539,0.848c-1.059-3.474-2.186-6.959-3.377-10.445
		c-0.009,0.068-0.018,0.138-0.027,0.206c-0.479-1.353-0.98-2.706-1.482-4.058c-0.119-0.161-0.238-0.321-0.358-0.482
		c-0.966-2.5-1.965-5-3.015-7.509c-0.125,0.022-0.248,0.045-0.377,0.056c0.879,2.122,1.734,4.231,2.567,6.341
		c-0.097-0.126-0.198-0.252-0.3-0.39c0.953,2.511,1.874,5.022,2.758,7.533c-0.032,0.195-0.061,0.39-0.092,0.584
		c1.035,3.13,2.006,6.26,2.936,9.39c-0.203,0.321-0.404,0.642-0.603,0.963c-0.838-2.833-1.708-5.665-2.628-8.508
		c-0.014,0.138-0.033,0.264-0.056,0.39c-1.149-3.394-2.36-6.788-3.64-10.192c-0.105-0.138-0.211-0.275-0.318-0.424
		c-0.422-1.066-0.852-2.144-1.288-3.222c-0.124,0.023-0.249,0.046-0.368,0.068c0.28,0.688,0.547,1.376,0.818,2.052
		c-0.119-0.148-0.238-0.31-0.354-0.47c1.749,4.563,3.383,9.127,4.9,13.69c-0.022,0.137-0.045,0.264-0.063,0.39
		c1.412,4.679,2.719,9.345,3.915,14.012c0.005,0,0.009,0,0.014,0c1.781,7.578,3.332,15.146,4.667,22.713c-0.004,0-0.004,0-0.004,0
		c1.057,7.579,1.891,15.157,2.484,22.736c-0.005,0-0.01,0-0.014,0c0.258,4.679,0.395,9.356,0.437,14.022
		c0.065,0.115,0.13,0.219,0.188,0.32c-0.101,4.564-0.336,9.127-0.686,13.69c0.074-0.171,0.144-0.343,0.217-0.515
		c-0.06,0.687-0.124,1.375-0.184,2.051c0.128-0.023,0.271-0.045,0.404-0.068c0.097-1.065,0.193-2.144,0.295-3.222
		c0.06-0.149,0.124-0.31,0.192-0.47c0.227-3.395,0.388-6.788,0.479-10.193c0.065,0.115,0.125,0.219,0.185,0.322
		c0.027-2.833,0.019-5.665-0.032-8.508c0.295,0.229,0.599,0.457,0.903,0.676c0.049,3.131,0.049,6.26,0,9.391
		c0.086,0.172,0.179,0.332,0.27,0.492c-0.1,2.512-0.229,5.022-0.395,7.533c0.055-0.137,0.114-0.286,0.17-0.436
		c-0.175,2.121-0.359,4.23-0.594,6.34c0.143-0.022,0.28-0.045,0.419-0.068c0.267-2.499,0.487-4.999,0.667-7.51
		c0.069-0.172,0.139-0.355,0.207-0.539c0.088-1.353,0.152-2.706,0.211-4.07c0.027,0.069,0.064,0.127,0.098,0.184
		c0.097-3.475,0.129-6.959,0.097-10.445c0.258,0.207,0.524,0.401,0.787,0.597c0.028,3.749-0.019,7.487-0.144,11.225
		c0.102,0.194,0.207,0.39,0.318,0.585c-0.244,3.84-0.566,7.682-0.99,11.522c0.135-0.011,0.271-0.034,0.41-0.058
		c0.4-3.588,0.713-7.178,0.948-10.766c0.114,0.218,0.221,0.436,0.331,0.642c0.193-4.093,0.285-8.187,0.275-12.279
		c0.135,0.104,0.271,0.207,0.41,0.31c0.119-0.126,0.249-0.264,0.373-0.401c0.014,4.082-0.074,8.163-0.263,12.245
		c0.156-0.286,0.317-0.573,0.474-0.871c-0.225,3.543-0.529,7.086-0.91,10.617c0.137-0.023,0.275-0.047,0.414-0.068
		c0.4-3.783,0.713-7.58,0.939-11.374c0.1-0.195,0.201-0.39,0.312-0.585c0.13-3.715,0.181-7.43,0.157-11.145
		c0.33-0.344,0.667-0.699,1.008-1.056c0.014,0.919,0.027,1.835,0.047,2.752c0.003,2.431-0.02,4.862-0.079,7.292
		c0.082-0.16,0.17-0.332,0.263-0.504c-0.056,1.605-0.125,3.211-0.198,4.815c0.042,0.138,0.083,0.274,0.119,0.413
		c-0.165,2.533-0.382,5.057-0.63,7.579c0.138-0.013,0.271-0.035,0.418-0.058c0.207-2.133,0.396-4.266,0.549-6.41
		c0.046,0.161,0.092,0.311,0.137,0.459c0.175-2.764,0.295-5.526,0.373-8.289c0.047-0.092,0.088-0.184,0.139-0.287
		c0.022-1.02,0.027-2.041,0.037-3.072c0-0.023-0.006-0.047,0-0.081c-0.006-1.926-0.033-3.852-0.079-5.79
		c0.124-0.125,0.249-0.264,0.378-0.4c0.055,2.326,0.096,4.643,0.096,6.959c0.166,0.287,0.327,0.573,0.492,0.848
		c-0.059,3.338-0.184,6.674-0.377,10.01c0.047,0.172,0.093,0.333,0.147,0.494c-0.073,1.055-0.165,2.098-0.253,3.141
		c0.134-0.012,0.271-0.034,0.41-0.057c0.055-0.654,0.11-1.307,0.174-1.973c0.028,0.127,0.07,0.253,0.106,0.379
		c0.244-3.566,0.419-7.143,0.516-10.721l0.069,0.125l-0.015-0.412c-0.063-1.573-0.193-3.725-0.263-5.465
		c-0.07-1.74-0.081-3.07-0.204-6.607c-0.122-3.535-0.358-9.278-0.817-14.949c-0.459-5.671-1.142-11.269-2.004-16.585
		c-0.862-5.317-1.906-10.354-2.939-15.139c-1.033-4.785-2.057-9.32-3.4-13.954c-1.345-4.634-3.01-9.37-4.615-13.634
		C165.672,13.198,165.139,11.818,164.635,10.535z M1.091,44.407c-0.105,1.562-0.213,3.267-0.321,5.091
		c-0.17,2.879-0.341,6.059-0.465,9.45c-0.126,3.391-0.206,6.992-0.181,10.679c0.025,3.687,0.156,7.458,0.412,11.125
		c0.256,3.666,0.636,7.228,0.888,10.428c0.25,3.2,0.37,6.039,0.426,9.18c0.055,3.139,0.045,6.58,0.08,10.528
		c0.019,2.1,0.05,4.343,0.088,6.542c0.429,3.688,0.913,7.368,1.443,11.047c0.034-0.162,0.065-0.324,0.092-0.496
		c0.106,0.694,0.216,1.389,0.323,2.073c0.134,0.007,0.268,0.002,0.401-0.004c-0.169-1.081-0.339-2.164-0.503-3.259
		c0.032-0.139,0.058-0.288,0.088-0.438c-0.468-3.421-0.897-6.844-1.281-10.279c0.078,0.124,0.149,0.248,0.226,0.359
		c-0.308-3.014-0.592-6.04-0.843-9.067c0.314,0.286,0.631,0.573,0.945,0.849c0.291,3.313,0.622,6.623,0.989,9.933
		c0.116,0.179,0.228,0.358,0.344,0.538c0.313,2.543,0.64,5.076,0.995,7.606c0.025-0.138,0.054-0.276,0.083-0.415
		c0.317,2.132,0.647,4.263,1,6.381c0.137,0.006,0.271,0.002,0.404-0.003c-0.418-2.517-0.809-5.035-1.166-7.566
		c0.033-0.173,0.069-0.347,0.103-0.519c-0.182-1.357-0.355-2.727-0.528-4.096c0.042,0.067,0.083,0.135,0.125,0.19
		c-0.424-3.64-0.801-7.28-1.131-10.937c0.28,0.254,0.559,0.508,0.838,0.75c0.376,3.905,0.801,7.809,1.284,11.71
		c0.142,0.224,0.28,0.437,0.42,0.649c0.534,3.877,1.124,7.751,1.779,11.612c0.13,0.007,0.267,0.002,0.4-0.003
		c-0.611-3.611-1.175-7.223-1.684-10.848c0.158,0.246,0.313,0.48,0.472,0.717c-0.546-4.232-1.022-8.479-1.442-12.726
		c0.283,0.255,0.565,0.507,0.844,0.761c0.401,3.996,0.856,7.979,1.375,11.959c0.1-0.268,0.202-0.534,0.311-0.801
		c0.495,3.568,1.05,7.135,1.655,10.688c0.13,0.008,0.264,0.003,0.397-0.003c-0.643-3.815-1.226-7.633-1.748-11.452
		c0.072-0.175,0.144-0.361,0.213-0.547c-0.436-3.628-0.824-7.258-1.172-10.9c0.311-0.32,0.621-0.641,0.928-0.961
		c0.075,0.834,0.151,1.667,0.229,2.489c0.246,2.454,0.513,4.909,0.794,7.362c0.062-0.151,0.129-0.303,0.193-0.465
		c0.204,1.619,0.41,3.239,0.633,4.858c0.071,0.146,0.141,0.293,0.215,0.438c0.362,2.555,0.76,5.107,1.185,7.646
		c0.133,0.007,0.264,0.002,0.4-0.003c-0.365-2.152-0.697-4.306-1.02-6.46c0.078,0.169,0.161,0.338,0.239,0.496
		c-0.395-2.782-0.752-5.565-1.085-8.361c0.033-0.081,0.066-0.174,0.105-0.267c-0.118-1.038-0.232-2.077-0.333-3.116
		c-0.003-0.022-0.004-0.046-0.005-0.068c-0.188-1.861-0.355-3.734-0.522-5.607c0.117-0.119,0.235-0.238,0.351-0.357
		c0.206,2.273,0.417,4.535,0.653,6.795c0.193,0.314,0.39,0.628,0.589,0.941c0.391,3.378,0.824,6.742,1.297,10.105
		c0.085,0.18,0.17,0.35,0.257,0.519c0.163,1.06,0.331,2.119,0.497,3.179c0.133,0.006,0.264,0.002,0.401-0.003
		c-0.106-0.661-0.212-1.321-0.315-1.993c0.069,0.146,0.138,0.28,0.206,0.416c-0.532-3.602-1.013-7.205-1.449-10.822
		c0.097,0.158,0.19,0.303,0.284,0.449c-0.398-3.652-0.753-7.308-1.066-10.963c-0.136-1.771-0.257-3.543-0.375-5.314
		c-0.006,0-0.016,0.001-0.021,0.001c-0.384-8.213-0.59-16.444-0.633-24.681l0,0c0.036-8.24,0.236-16.485,0.609-24.737
		c0.009,0,0.019-0.001,0.024-0.001c0.112-1.78,0.237-3.56,0.368-5.341c0.303-3.678,0.654-7.357,1.049-11.037
		c-0.098,0.152-0.19,0.304-0.286,0.445c0.429-3.636,0.906-7.274,1.436-10.914c-0.071,0.14-0.139,0.28-0.207,0.408
		c0.104-0.668,0.21-1.336,0.314-2.005c-0.134,0.006-0.267,0.01-0.401,0.003c-0.165,1.071-0.331,2.144-0.484,3.203
		c-0.085,0.175-0.173,0.35-0.258,0.525c-0.467,3.408-0.892,6.804-1.278,10.198c-0.198,0.315-0.394,0.632-0.588,0.948
		c-0.234,2.289-0.444,4.565-0.642,6.842c-0.117-0.122-0.231-0.244-0.347-0.366c0.157-1.873,0.324-3.747,0.509-5.633
		c0.002-0.023,0.005-0.046,0.006-0.081c0.105-1.046,0.213-2.093,0.328-3.14c-0.036-0.079-0.069-0.169-0.104-0.26
		c0.328-2.807,0.689-5.616,1.081-8.438c-0.083,0.164-0.159,0.327-0.238,0.49c0.308-2.166,0.649-4.343,1.005-6.521
		c-0.133,0.004-0.267-0.003-0.395-0.009c-0.421,2.582-0.815,5.163-1.176,7.731c-0.073,0.151-0.145,0.303-0.212,0.442
		c-0.215,1.635-0.427,3.269-0.624,4.903c-0.066-0.158-0.126-0.316-0.19-0.474c-0.285,2.473-0.546,4.946-0.792,7.418
		c-0.079,0.839-0.155,1.679-0.229,2.506c-0.31-0.322-0.615-0.643-0.922-0.964c0.346-3.656,0.735-7.313,1.166-10.984
		c-0.07-0.18-0.141-0.361-0.211-0.554c0.524-3.857,1.103-7.716,1.745-11.578c-0.133,0.005-0.267-0.001-0.398-0.008
		c-0.6,3.608-1.151,7.213-1.646,10.818c-0.106-0.271-0.21-0.543-0.314-0.813C7.884,34.2,7.435,38.216,7.035,42.229
		c-0.279,0.262-0.562,0.513-0.841,0.763c0.418-4.266,0.894-8.545,1.439-12.828c-0.155,0.247-0.308,0.481-0.46,0.716
		c0.504-3.651,1.066-7.303,1.68-10.968c-0.134,0.003-0.271,0.009-0.401,0.001c-0.653,3.92-1.248,7.836-1.776,11.74
		C6.534,31.877,6.396,32.1,6.258,32.31c-0.481,3.936-0.908,7.871-1.285,11.791c-0.282,0.262-0.562,0.513-0.835,0.763
		c0.333-3.667,0.712-7.348,1.14-11.029c-0.043,0.07-0.087,0.14-0.126,0.199c0.169-1.37,0.345-2.75,0.526-4.133
		c-0.034-0.17-0.067-0.341-0.098-0.523c0.355-2.545,0.754-5.091,1.166-7.65c-0.133,0.005-0.267,0.01-0.394,0.003
		c-0.354,2.155-0.694,4.31-1.002,6.452c-0.03-0.136-0.056-0.272-0.082-0.421c-0.361,2.557-0.686,5.112-0.995,7.667
		c-0.115,0.188-0.227,0.374-0.345,0.551c-0.367,3.335-0.697,6.67-0.994,9.992c-0.315,0.286-0.629,0.573-0.941,0.859
		c0.253-3.035,0.539-6.081,0.853-9.128c-0.078,0.129-0.149,0.246-0.224,0.364c0.386-3.452,0.819-6.905,1.291-10.37
		c-0.03-0.148-0.056-0.296-0.086-0.455c0.164-1.095,0.335-2.189,0.505-3.284c-0.133,0.005-0.267,0.009-0.394,0.003
		c-0.112,0.703-0.221,1.394-0.326,2.086c-0.033-0.16-0.064-0.319-0.094-0.49c-0.668,4.653-1.255,9.292-1.767,13.928
		c-0.075,0.128-0.15,0.246-0.221,0.363C1.373,41.371,1.227,42.89,1.091,44.407z M2.298,129.914l0.005,0.138H2.32L2.298,129.914z"/>
	<path id="calcao_contorno" fill="none" d="M80.372,143.682c0.053-0.256,0.103-0.633,0.183-1.98c0.081-1.35,0.191-3.673,0.457-8.242
		c0.266-4.57,0.688-11.387,1.023-16.365c0.336-4.979,0.587-8.118,0.914-11.589c0.325-3.472,0.727-7.273,1.229-11.235
		c0.502-3.963,1.104-8.086,1.876-12.771c0.772-4.684,1.715-9.931,2.432-13.367c0.718-3.436,1.209-5.062,1.524-6.088
		c0.316-1.027,0.455-1.456,0.564-1.69c0.108-0.234,0.186-0.275,0.259-0.268c0.075,0.006,0.145,0.061,0.234,0.161
		c0.091,0.1,0.201,0.245,0.344,0.551c0.144,0.307,0.318,0.774,0.602,1.409c0.283,0.635,0.674,1.437,1.009,2.222
		s0.616,1.556,0.735,2.149c0.119,0.593,0.076,1.01,0.111,1.477s0.148,0.986,0.443,1.424c0.297,0.438,0.775,0.794,1.052,1.267
		c0.276,0.473,0.349,1.062,0.529,1.898c0.181,0.837,0.468,1.92,0.567,2.738c0.1,0.816,0.009,1.369-0.086,1.89
		c-0.093,0.521-0.19,1.01-0.088,1.499c0.103,0.49,0.406,0.982,0.762,1.438c0.354,0.457,0.761,0.878,1.01,1.155
		c0.25,0.277,0.343,0.409,0.432,0.535c0.088,0.125,0.174,0.244,0.309,0.773c0.134,0.531,0.316,1.475,0.386,2.128
		c0.069,0.655,0.024,1.021-0.003,1.386c-0.025,0.365-0.033,0.729-0.063,1.191c-0.029,0.463-0.082,1.024-0.075,1.54
		c0.008,0.516,0.075,0.985,0.405,1.681c0.329,0.696,0.922,1.619,1.482,2.364c0.561,0.747,1.089,1.316,1.444,1.675
		c0.355,0.357,0.538,0.504,0.701,0.764c0.164,0.261,0.311,0.635,0.43,1.111c0.12,0.479,0.217,1.061,0.268,1.735
		s0.059,1.442,0.048,2.294s-0.042,1.786,0.132,2.638c0.173,0.853,0.549,1.618,0.969,2.267c0.418,0.648,0.879,1.178,1.222,1.607
		s0.566,0.757,0.753,1.081c0.188,0.323,0.337,0.642,0.488,1.016c0.15,0.374,0.301,0.803,0.415,1.3
		c0.114,0.498,0.191,1.065,0.298,1.579c0.107,0.515,0.242,0.976,0.33,1.495s0.127,1.096,0.281,1.938
		c0.153,0.843,0.418,1.951,0.597,2.878c0.179,0.93,0.269,1.676,0.366,2.339c0.098,0.662,0.203,1.239,0.285,2.009
		c0.083,0.77,0.144,1.733,0.26,2.439c0.114,0.708,0.285,1.16,0.408,1.839c0.123,0.68,0.197,1.588,0.263,2.122
		c0.065,0.535,0.12,0.694,0.253,0.838c0.133,0.143,0.344,0.268,0.627,0.408c0.284,0.141,0.64,0.297,1.004,0.531
		c0.363,0.236,0.735,0.552,1.161,0.915c0.427,0.362,0.908,0.771,1.429,1.098c0.521,0.325,1.079,0.569,1.611,0.755
		c0.531,0.188,1.035,0.317,1.591,0.459c0.556,0.143,1.163,0.295,1.983,0.438c0.819,0.142,1.854,0.275,2.648,0.366
		c0.794,0.093,1.352,0.143,2.494,0.161c1.142,0.02,2.869,0.007,4.188-0.029c1.318-0.037,2.227-0.097,3.383-0.198
		c1.156-0.1,2.561-0.24,4.203-0.414s3.523-0.383,5.102-0.529c1.576-0.146,2.852-0.232,4.16-0.305c1.31-0.072,2.653-0.133,3.82-0.166
		c1.168-0.032,2.158-0.037,4.202-0.07c2.042-0.035,5.137-0.098,7.196-0.158c2.059-0.063,3.082-0.122,4.611-0.309
		c1.531-0.186,3.567-0.496,4.825-0.713c1.259-0.22,1.737-0.346,2.065-0.48c0.326-0.135,0.501-0.279,0.641-0.373
		c0.141-0.094,0.246-0.137,0.529-0.238c0.282-0.102,0.744-0.262,1.28-0.445c0.534-0.186,1.145-0.393,1.624-0.6
		c0.48-0.205,0.832-0.408,1.059-0.537s0.33-0.185,0.496-0.195c0.168-0.009,0.398,0.026,0.59-0.021
		c0.192-0.045,0.346-0.173,0.55-0.365s0.46-0.448,0.563-0.842c0.103-0.393,0.053-0.926,0.058-2.267
		c0.006-1.343,0.065-3.493,0.046-5.89c-0.021-2.395-0.121-5.033-0.171-6.643c-0.05-1.61-0.05-2.192-0.05-3.015
		c0-0.823,0-1.886-0.024-2.882c-0.026-0.996-0.076-1.924-0.099-2.885c-0.022-0.96-0.018-1.953-0.08-3.525
		c-0.063-1.573-0.193-3.725-0.263-5.465c-0.07-1.74-0.081-3.07-0.204-6.607c-0.122-3.535-0.358-9.278-0.817-14.949
		c-0.459-5.671-1.142-11.269-2.004-16.585c-0.862-5.317-1.906-10.354-2.939-15.139c-1.033-4.785-2.057-9.32-3.4-13.954
		c-1.345-4.634-3.01-9.37-4.615-13.634c-1.605-4.263-3.149-8.055-4.063-10.253c-0.913-2.198-1.193-2.803-1.314-3.193
		c-0.119-0.392-0.08-0.57,0.009-0.707c0.089-0.136,0.228-0.232,0.339-0.307c0.012-0.008,0.025-0.017,0.036-0.026
		c-0.036-0.002-0.077-0.003-0.126-0.006c-0.092-0.006-0.214-0.012-0.61-0.042c-0.396-0.032-1.063-0.087-1.95-0.094
		c-0.886-0.007-1.99,0.033-3.146,0.116c-1.157,0.083-2.367,0.211-4.256,0.535c-1.891,0.324-4.459,0.846-6.578,1.318
		c-2.121,0.471-3.793,0.893-5.985,1.328c-2.194,0.434-4.909,0.882-7.635,1.247c-2.726,0.364-5.462,0.645-8.771,0.946
		c-3.311,0.301-7.196,0.623-10.442,0.85c-3.248,0.227-5.855,0.361-8.24,0.491s-4.545,0.257-7,0.355
		c-2.453,0.097-5.202,0.164-7.931,0.22c-2.729,0.057-5.438,0.104-8.019,0.098c-2.581-0.007-5.036-0.067-7.336-0.121
		c-2.301-0.054-4.448-0.1-6.772-0.17c-2.323-0.071-4.825-0.165-7.894-0.251c-3.07-0.087-6.708-0.167-10.564-0.19
		c-3.855-0.024-7.928,0.01-11.299,0.006c-3.371-0.003-6.04-0.043-9.567-0.181c-3.528-0.137-7.915-0.371-11.07-0.607
		c-3.154-0.236-5.078-0.473-6.476-0.752c-1.398-0.28-2.272-0.602-3.146-0.923c0.039,0.056,0.019,0.165-0.024,0.549
		C6.322,5.35,6.232,6.27,5.981,7.963c-0.25,1.693-0.663,4.159-0.93,5.963c-0.269,1.805-0.394,2.948-0.695,4.831
		c-0.301,1.885-0.778,4.508-1.161,6.82c-0.383,2.312-0.675,4.313-0.905,6c-0.231,1.688-0.402,3.063-0.56,4.658
		c-0.158,1.595-0.303,3.41-0.461,5.608c-0.158,2.197-0.329,4.775-0.5,7.654c-0.17,2.879-0.341,6.059-0.465,9.45
		c-0.126,3.391-0.206,6.992-0.181,10.679c0.025,3.687,0.156,7.458,0.412,11.125c0.256,3.666,0.636,7.228,0.888,10.428
		c0.25,3.2,0.37,6.039,0.426,9.18c0.055,3.139,0.045,6.58,0.08,10.528c0.035,3.947,0.116,8.401,0.196,12.118
		c0.081,3.717,0.16,6.695,0.235,8.748c0.074,2.051,0.141,3.174,0.169,3.848c0.028,0.672,0.015,0.893,0.024,1.961
		c0.008,1.068,0.039,2.984,0.068,4.352c0.031,1.366,0.061,2.184,0.121,2.67c0.06,0.487,0.151,0.643,0.424,0.929
		s0.729,0.702,2.315,1.036c1.584,0.333,4.298,0.584,6.886,0.807c2.588,0.224,5.051,0.419,9.229,0.643
		c4.178,0.223,10.073,0.474,14.426,0.662c4.354,0.188,7.167,0.313,9.636,0.335c2.467,0.023,4.589-0.058,6.733-0.124
		c2.145-0.068,4.313-0.123,6.379-0.191s4.033-0.148,6.804-0.496c2.771-0.349,6.347-0.967,8.582-1.423
		c2.235-0.456,3.128-0.752,3.913-1.151c0.784-0.397,1.461-0.899,1.828-1.218C80.263,144.072,80.319,143.938,80.372,143.682z"/>
</g>
</svg>
