<?xml version="1.0" encoding="utf-8"?>
<!-- Generator: Adobe Illustrator 16.0.3, SVG Export Plug-In . SVG Version: 6.00 Build 0)  -->
<!DOCTYPE svg PUBLIC "-//W3C//DTD SVG 1.1//EN" "http://www.w3.org/Graphics/SVG/1.1/DTD/svg11.dtd">
<svg version="1.1"
	 id="Layer_1" image-rendering="optimizeQuality" text-rendering="geometricPrecision" shape-rendering="geometricPrecision" xmlns:xodm="http://www.corel.com/coreldraw/odm/2003"
	 xmlns="http://www.w3.org/2000/svg" xmlns:xlink="http://www.w3.org/1999/xlink" x="0px" y="0px" width="181px" height="149px"
	 viewBox="0 0 181 149" enable-background="new 0 0 181 149" xml:space="preserve">
<g id="Camada_x0020_1">
	<path id="d3" fill="#F00808" d="M81.855,119.807h-0.179v1.124h-0.257v3.711h-0.051v-10.87h-0.543v6.035h-0.544v3.701v-0.707H80.25
		v3.936v-1.741h-0.292v-11.224h-0.542v6.035h-0.542v3.701v-0.707h-0.305v-0.045v3.488h-0.32v-2.064h-0.344v-0.085h-0.543v-1.381
		h-0.543v1.466h-0.506v-2.006h-0.231v-4.944h-0.543v-6.706h-0.543v13.656h-0.091v-2.006h-0.304v2.006h-0.543v1.398h-0.207v-5.576
		h-0.543v5.961h-0.117v-1.783h-0.542v3.164h-0.279v-6.865h-0.402v-5.234h-0.142v-1.473h-0.543v13.572h-0.308v-6.865h-0.532v-3.982
		h-0.554v6.755h-0.294v-0.714h-0.029v1.643v-3.701h-0.437v-5.6h-0.543v1.617h-0.106v6.755h-0.226v-4.758h-0.542v5.752h-0.334v-7.686
		h-0.543v1.934h-0.516v6.757h-0.219v2.212h-0.543v-11.487H65.01v2.152h-0.14v7.123h-0.507v0.534h-0.159v1.71h-0.149v-8.453h-0.036
		v-0.914h-0.543v1.68h-0.358v2.546h-0.149v3.432H62.81v1.71h-0.2v-9.367h-0.544v1.68h-0.226v-0.583h-0.544v8.161h-0.149v0.109
		h-0.291v-7.688h-0.375v-9.283h-0.543v8.7h-0.034v3.067h-0.106v4.363h-0.403v-4.511v2.851h-0.358v-5.771h-0.542v3.067h-0.09v4.125
		h-0.427v0.91h-0.333v-5.947h-0.543v0.912h-0.106v4.125h-0.227v-12.645h-0.543v3.189h-0.334v6.535h-0.516v-5.791h-0.543v6.482
		h-0.543v0.671h-0.15v1.19v-2.011h-0.173v-6.333h-0.37v-0.672h-0.543v10.522v-3.368h-0.174v0.671h-0.158v-4.649h-0.543v0.659h-0.47
		v1.423h-0.38v-2.082h-0.543v4.418h-0.202v2.118h-0.278v-2.707h-0.387v-3.829h-0.543v0.072h-0.036v4.771h-0.12v1.693h-0.387v0.542
		h-0.293v-3.172h-0.05v-3.834h-0.542v-0.314h-0.542v-8.238h-0.544v8.553h-0.323v5.259H46.13v-0.876h-0.395v-0.549h-0.148v-3.711
		h-0.543v5.136h-0.396v-3.408v0.452H44.37v2.779v-2.196h-0.543v-1.544h-0.138v-6.646h-0.542v7.607h-0.308v3.656v-3.025h-0.543v-5.51
		h-0.544v2.262h-0.228v-9.443H40.98v12.691h-0.095v-5.51h-0.543v5.948H40.33v-10.405h-0.543v10.322h-0.542v2.846H39.07v-2.763
		h-0.542v-2.03h-0.543v1.174h-0.174v-9.025h-0.543v11.1h-0.308v-1.656h-0.344v-6.719h-0.199v-2.725h-0.543v5.854h-0.232v4.154H35.55
		v-0.564h-0.328v-6.719h-0.215v-2.725h-0.543v10.404h-0.537v-4.551h-0.114v-3.129h-0.543v8.375h-0.392v1.174h-0.12v-15.326h-0.544
		v5.841h-0.542v8.312h-0.202v1.174h-0.392v-3.17h-0.543v4.153h-0.032v-1.761h-0.288v-2.393H29.67v0.12h-0.004v-0.12h-0.543v4.153
		h-0.08v-13.063H28.5v5.841h-0.543v1.124h-0.257v3.711H27.65v-10.87h-0.543v6.035h-0.543v3.701v-0.707h-0.032v3.936v-1.741H26.24
		v-11.224h-0.543v6.035h-0.543v3.701v-0.707H24.85v-0.045v3.488h-0.32v-2.064h-0.344v-0.085h-0.542v-1.381h-0.543v1.466h-0.507
		v-2.006h-0.231v-4.944h-0.544v-7.764h-0.542v14.714h-0.091v-2.006h-0.304v2.006h-0.543v1.398H20.13v-5.576h-0.543v5.961h-0.116
		v-1.783h-0.543v3.164h-0.279v-6.865h-0.402v-5.234h-0.142v-2.528h-0.543v14.628h-0.308v-6.865h-0.543v-2.773h-0.543v5.546h-0.294
		v-0.714h-0.029v1.643v-3.701h-0.302v-5.6H15v2.826h-0.241v5.546h-0.224v-4.758H13.99v8.467h-0.334v-5.007H13.14v-3.46h-0.543v6.757
		h-0.217v1.873h-0.543v-12.336h-0.543v3.34h-0.006v0.366h-0.099v6.757h-0.544v0.534h-0.158v-1.292h-0.185v-6.365h-0.149v-4.849
		H9.608v11.923H9.399v1.493H9.065v0.8H8.892v-9.367H8.349v1.68H8.123v-1.77H7.974v-7.318H7.431v15.01H7.139v-5.922h-0.41v-0.583
		H6.438v-2.696H5.895v7.699H5.611v-8.582H5.068v3.579H4.776v7.907H4.524v-3.539H4.367v-9.295H4.26v-0.331H3.716v2.263H3.248v7.686
		H2.956v-9.617H2.413v9.6H2.188v-7.7h-0.15v-1.317H1.976c0.041,2.79,0.094,5.626,0.148,8.127c0.081,3.717,0.16,6.695,0.235,8.748
		c0.074,2.051,0.141,3.174,0.169,3.848c0.028,0.672,0.015,0.893,0.024,1.961c0.008,1.068,0.039,2.984,0.068,4.352
		c0.031,1.366,0.061,2.184,0.121,2.67c0.06,0.487,0.151,0.643,0.424,0.929s0.729,0.702,2.315,1.036
		c1.584,0.333,4.298,0.584,6.886,0.807c2.588,0.224,5.051,0.419,9.229,0.643c4.178,0.223,10.073,0.474,14.426,0.662
		c4.354,0.188,7.167,0.313,9.636,0.335c2.467,0.023,4.589-0.058,6.733-0.124c2.145-0.068,4.313-0.123,6.379-0.191
		s4.033-0.148,6.804-0.496c2.771-0.349,6.347-0.967,8.582-1.423c2.235-0.456,3.128-0.752,3.913-1.151
		c0.784-0.397,1.461-0.899,1.828-1.218c0.366-0.319,0.421-0.454,0.474-0.71s0.103-0.633,0.183-1.98
		c0.081-1.35,0.191-3.673,0.457-8.242C81.231,129.676,81.559,124.353,81.855,119.807z M180.658,110.939l-0.215-0.109
		c0.046,0.763,0.091,1.514,0.137,2.276c-0.016-0.011-0.033-0.021-0.049-0.031c-0.059-0.941-0.114-1.872-0.172-2.825
		c-0.191-0.102-0.381-0.203-0.563-0.293c-0.041-0.662-0.081-1.334-0.121-2.008c-0.116-0.061-0.223-0.111-0.33-0.16
		c0.041,0.673,0.081,1.346,0.121,2.008c-0.09-0.04-0.182-0.091-0.264-0.131c-0.141-2.311-0.279-4.62-0.421-6.942
		c-0.189-0.09-0.38-0.179-0.56-0.259c-0.135-2.22-0.271-4.453-0.406-6.684c-0.189-0.09-0.379-0.18-0.561-0.271
		c0.305,5.013,0.607,10.026,0.911,15.028c-0.068-1.133-0.138-2.275-0.207-3.409c-0.024-0.009-0.042-0.02-0.058-0.03
		c0.041,0.674,0.082,1.347,0.121,2.008c-0.189-0.09-0.379-0.18-0.561-0.27c0.037,0.605,0.072,1.189,0.107,1.783
		c-0.016-0.011-0.024-0.021-0.033-0.021c-0.127-2.099-0.254-4.206-0.382-6.315c-0.19-0.09-0.38-0.179-0.56-0.247
		c0.084,1.392,0.167,2.759,0.251,4.14c-0.189-0.08-0.38-0.17-0.56-0.236c0.008,0.135,0.017,0.269,0.023,0.393
		c-0.098-0.039-0.196-0.079-0.295-0.129c0.035,0.605,0.072,1.189,0.107,1.783c-0.107-0.051-0.214-0.088-0.313-0.139
		c-0.074-1.223-0.148-2.457-0.223-3.679c-0.018-0.011-0.025-0.011-0.033-0.021c0.077,1.29,0.154,2.568,0.232,3.847
		c-0.039-0.64-0.078-1.29-0.117-1.94c-0.1-0.039-0.197-0.078-0.297-0.128c-0.074-1.223-0.148-2.456-0.223-3.69
		c-0.09-0.039-0.181-0.067-0.264-0.107c-0.017-0.28-0.033-0.561-0.051-0.852c-0.1-0.039-0.197-0.09-0.297-0.129
		c-0.118-1.952-0.235-3.893-0.354-5.844c-0.189-0.078-0.378-0.157-0.559-0.225c0.246,4.061,0.491,8.107,0.738,12.169l0,0
		c-0.076-1.234-0.149-2.456-0.225-3.69c-0.105-0.038-0.212-0.076-0.311-0.117c0.039,0.641,0.077,1.28,0.115,1.907
		c-0.074-1.222-0.148-2.455-0.224-3.689c-0.188-0.067-0.378-0.146-0.558-0.214c-0.073-1.211-0.146-2.422-0.221-3.634
		c-0.188-0.067-0.377-0.135-0.557-0.202c0.129,2.107,0.256,4.216,0.383,6.314c-0.041-0.021-0.082-0.029-0.123-0.049
		c-0.031-0.505-0.063-1.021-0.094-1.548c-0.074-0.03-0.147-0.06-0.213-0.089c-0.023-0.381-0.047-0.752-0.069-1.133
		c-0.188-0.066-0.377-0.135-0.558-0.203c-0.072-1.211-0.146-2.422-0.219-3.634c-0.188-0.056-0.377-0.123-0.556-0.181
		c0.142,2.355,0.284,4.699,0.426,7.033c-0.033-0.021-0.058-0.02-0.082-0.029c-0.021-0.336-0.041-0.673-0.062-1.01
		c-0.147-0.059-0.295-0.104-0.441-0.152c-0.197-3.253-0.395-6.494-0.592-9.758c-0.188-0.067-0.375-0.123-0.557-0.191
		c0.199,3.264,0.395,6.505,0.592,9.758c-0.04-0.01-0.08-0.018-0.113-0.038c0.082,1.38,0.168,2.77,0.25,4.149
		c-0.104-0.027-0.212-0.066-0.31-0.105c-0.084-1.379-0.168-2.77-0.253-4.149c-0.08-0.018-0.162-0.046-0.236-0.075
		c-0.248-4.105-0.498-8.21-0.746-12.314c-0.188-0.068-0.376-0.124-0.555-0.181c0.178,2.927,0.354,5.844,0.529,8.759
		c-0.186-0.045-0.373-0.101-0.553-0.156c0.111,1.85,0.225,3.711,0.338,5.562c-0.033-0.009-0.066-0.019-0.092-0.028
		c-0.039-0.662-0.08-1.334-0.121-1.996c-0.186-0.045-0.373-0.102-0.553-0.158c0.071,1.178,0.143,2.367,0.215,3.544
		c-0.139-0.036-0.27-0.073-0.399-0.11c-0.031-0.516-0.063-1.032-0.095-1.547c-0.064-0.02-0.13-0.037-0.194-0.057
		c-0.067-1.088-0.132-2.164-0.198-3.252c-0.072-0.019-0.146-0.048-0.219-0.065c-0.107-1.75-0.213-3.499-0.319-5.261
		c-0.187-0.045-0.375-0.102-0.554-0.135c0.131,2.142,0.261,4.295,0.391,6.438c-0.113-0.027-0.227-0.054-0.333-0.082
		c0.073,1.213,0.147,2.424,0.22,3.623c-0.049-0.02-0.098-0.027-0.139-0.037c-0.031-0.515-0.063-1.031-0.094-1.547
		c-0.064-0.018-0.131-0.037-0.188-0.045c-0.223-3.689-0.446-7.38-0.671-11.08c-0.187-0.046-0.373-0.091-0.552-0.137
		c0.051,0.864,0.103,1.717,0.154,2.569c-0.072-0.019-0.139-0.037-0.203-0.056c0.082,1.357,0.164,2.703,0.245,4.049
		c-0.056,0.003-0.105-0.027-0.154-0.035c0.044,0.717,0.087,1.424,0.129,2.131c-0.064-0.02-0.129-0.026-0.194-0.045
		c0.035,0.594,0.07,1.166,0.105,1.75c-0.105-0.027-0.211-0.055-0.317-0.082c-0.212-3.5-0.423-6.988-0.636-10.498
		c-0.187-0.034-0.373-0.078-0.551-0.112c0.051,0.862,0.104,1.716,0.154,2.567c-0.072-0.006-0.145-0.024-0.219-0.043
		c0.126,2.063,0.25,4.127,0.375,6.18c-0.008,0-0.008,0-0.008,0c-0.162-2.68-0.325-5.371-0.488-8.063
		c-0.187-0.033-0.374-0.078-0.553-0.112c0.099,1.614,0.195,3.219,0.293,4.834c-0.031-0.01-0.063-0.008-0.097-0.017
		c-0.11-1.841-0.223-3.68-0.334-5.519c-0.187-0.045-0.374-0.078-0.552-0.113c0.176,2.916,0.354,5.832,0.53,8.748
		c-0.187-0.033-0.373-0.078-0.552-0.112c0.049,0.785,0.096,1.56,0.142,2.333c-0.063-0.008-0.121-0.016-0.179-0.035
		c-0.023-0.403-0.049-0.818-0.073-1.222c-0.187-0.022-0.372-0.057-0.55-0.091c0.035,0.583,0.07,1.156,0.104,1.728
		c-0.153-0.024-0.308-0.05-0.461-0.073c-0.026-0.438-0.054-0.887-0.081-1.336c-0.137-0.024-0.267-0.039-0.396-0.064
		c-0.008-0.135-0.016-0.258-0.023-0.393c-0.146-0.025-0.292-0.051-0.43-0.076c-0.119-1.973-0.24-3.959-0.359-5.933
		c-0.186-0.022-0.372-0.056-0.551-0.091c0.099,1.604,0.196,3.219,0.293,4.822c-0.186-0.021-0.371-0.044-0.549-0.067
		c0.005,0.079,0.01,0.157,0.014,0.225c-0.016,0.001-0.031,0.002-0.047,0.003c-0.039-0.629-0.077-1.256-0.115-1.885
		c-0.09-0.028-0.178-0.034-0.26-0.052c-0.063-1.043-0.126-2.097-0.191-3.151c-0.184-0.022-0.369-0.045-0.549-0.068
		c0.099,1.615,0.197,3.219,0.293,4.822c-0.186-0.021-0.371-0.044-0.547-0.057c-0.113-1.873-0.229-3.758-0.342-5.641
		c-0.186-0.022-0.371-0.045-0.549-0.068c0.017,0.281,0.033,0.549,0.049,0.818c-0.113-0.015-0.226-0.02-0.33-0.036
		c0.098,1.604,0.195,3.22,0.292,4.823c-0.185-0.012-0.37-0.034-0.548-0.047c0.063,1.01,0.123,2.02,0.184,3.029
		c-0.053-0.875-0.105-1.761-0.159-2.647c-0.138-0.014-0.274-0.017-0.403-0.031c0.089,1.458,0.177,2.915,0.265,4.362
		c-0.009,0-0.016,0.002-0.016,0.002c-0.024-0.416-0.052-0.854-0.077-1.279c-0.161-0.013-0.314-0.025-0.467-0.028
		c-0.042-0.684-0.082-1.356-0.124-2.042c-0.186-0.033-0.37-0.044-0.549-0.066c-0.14-2.322-0.282-4.655-0.424-6.999
		c-0.185-0.011-0.37-0.022-0.547-0.034c0.183,3.018,0.366,6.034,0.548,9.04c-0.111-0.005-0.225-0.009-0.336-0.014
		c-0.119-1.952-0.238-3.903-0.355-5.866c-0.186-0.011-0.371-0.021-0.547-0.023c0.026,0.426,0.051,0.831,0.075,1.246
		c-0.112-0.016-0.226-0.021-0.339-0.025c0.107,1.761,0.214,3.51,0.32,5.26c-0.017,0.002-0.023,0.002-0.032,0.003
		c-0.013-0.214-0.024-0.415-0.039-0.64c-0.161-0.013-0.321-0.015-0.481-0.027c-0.119-1.951-0.237-3.902-0.356-5.865
		c-0.184-0.012-0.369-0.023-0.546-0.023c0.082,1.334,0.162,2.658,0.241,3.98c-0.022,0.002-0.048-0.008-0.063-0.007
		c0.051,0.853,0.103,1.694,0.154,2.546c-0.161-0.002-0.32-0.003-0.481-0.004c0.011,0.18,0.022,0.359,0.033,0.538
		c-0.112-0.005-0.216,0.002-0.321-0.003c-0.142-2.345-0.285-4.699-0.428-7.066c-0.129-0.003-0.257-0.006-0.377-0.011
		c-0.115-1.884-0.229-3.768-0.344-5.663c-0.184,0-0.369,0-0.544-0.001c0.245,4.06,0.491,8.12,0.737,12.19
		c-0.056-0.008-0.111-0.004-0.168-0.012c0.011,0.18,0.021,0.359,0.033,0.539c-0.057,0.003-0.112,0.006-0.16-0.002
		c-0.053-0.864-0.104-1.716-0.157-2.58c-0.063,0.004-0.128,0.008-0.184,0c-0.09-1.469-0.179-2.938-0.267-4.408
		c-0.184,0-0.369,0-0.545,0.011c0.152,2.523,0.307,5.048,0.459,7.571c-0.056-0.009-0.105-0.006-0.152-0.002
		c-0.084-1.391-0.17-2.805-0.254-4.206c-0.185,0.011-0.368,0.022-0.545,0.011c0.021,0.347,0.043,0.695,0.064,1.043
		c-0.057,0.003-0.113-0.006-0.17-0.002c-0.088-1.469-0.178-2.938-0.267-4.408c-0.183,0.012-0.368,0.012-0.544,0.012
		c0.08,1.322,0.162,2.658,0.24,3.971c-0.008,0-0.016,0-0.023,0c-0.028-0.47-0.057-0.941-0.086-1.413
		c-0.184,0-0.367,0.011-0.544,0.011c-0.066-1.099-0.133-2.198-0.2-3.309c-0.047,0.003-0.096-0.006-0.137-0.002
		c-0.035-0.584-0.069-1.155-0.105-1.75c-0.184,0.011-0.367,0.021-0.543,0.033c0.131,2.153,0.262,4.317,0.393,6.471
		c-0.177-0.001-0.344,0.01-0.512,0.02c0.015,0.235,0.027,0.449,0.041,0.674c-0.104,0.006-0.207,0-0.304,0.007
		c-0.187-3.073-0.372-6.135-0.558-9.196c-0.016,0-0.031,0.001-0.04,0.001c-0.038-0.627-0.075-1.244-0.114-1.872
		c-0.184,0.011-0.366,0.021-0.543,0.021c0.264,4.34,0.527,8.692,0.79,13.033c-0.119,0.006-0.239,0.014-0.351,0.021
		c0.006,0.1,0.012,0.201,0.018,0.302c-0.055,0.003-0.103,0.007-0.152-0.002c-0.045-0.751-0.09-1.503-0.137-2.267
		c-0.119,0.008-0.24,0.016-0.359,0.022c-0.223-3.679-0.446-7.368-0.671-11.069c-0.183,0.012-0.366,0.033-0.542,0.043
		c0.05,0.82,0.1,1.639,0.149,2.457c-0.128,0.008-0.256,0.016-0.374,0.034c0.13,2.153,0.26,4.307,0.393,6.472
		c-0.136,0.008-0.264,0.016-0.392,0.023c0.024,0.393,0.048,0.796,0.073,1.201c-0.056,0.002-0.104,0.005-0.152,0.008
		c0.029,0.471,0.058,0.942,0.086,1.413c-0.095,0.017-0.191,0.023-0.287,0.028c0.031,0.506,0.061,0.999,0.092,1.504
		c-0.127,0.007-0.255,0.016-0.375,0.022c-0.241-3.981-0.482-7.952-0.725-11.944c-0.183,0.022-0.365,0.045-0.54,0.066
		c0.081,1.346,0.163,2.68,0.243,4.016c-0.047,0.002-0.096,0.005-0.144,0.008c0.179,2.938,0.356,5.877,0.534,8.815
		c-0.135,0.02-0.271,0.028-0.397,0.047c-0.097-1.581-0.191-3.163-0.288-4.755c0.034,0.571,0.068,1.132,0.103,1.693
		c-0.048,0.002-0.097,0.006-0.144,0.009c0.027,0.448,0.054,0.897,0.082,1.356c-0.07,0.016-0.143,0.02-0.215,0.024
		c-0.066-1.099-0.133-2.198-0.199-3.298c-0.033,0.002-0.064,0.016-0.087,0.017c-0.077-1.267-0.155-2.546-0.231-3.813
		c-0.184,0.012-0.366,0.045-0.542,0.056c0.013,0.202,0.024,0.393,0.036,0.583c-0.145,0.01-0.287,0.029-0.422,0.038
		c0.154,2.556,0.309,5.114,0.465,7.671c-0.111,0.018-0.223,0.035-0.334,0.053c-0.24-3.97-0.48-7.928-0.721-11.898
		c-0.184,0.022-0.365,0.045-0.54,0.066c0.073,1.223,0.147,2.444,0.221,3.645c-0.04,0.014-0.071,0.016-0.104,0.018
		c0.013,0.202,0.024,0.394,0.035,0.584c-0.079,0.016-0.159,0.02-0.229,0.035c-0.027-0.447-0.055-0.896-0.082-1.346
		c-0.183,0.023-0.365,0.046-0.541,0.066c0.183,3.006,0.365,6.012,0.547,9.018c-0.063,0.016-0.127,0.02-0.182,0.033
		c-0.039-0.627-0.077-1.267-0.116-1.906c-0.095,0.006-0.19,0.023-0.278,0.04c-0.105-1.749-0.211-3.499-0.317-5.249
		c-0.016,0.001-0.031,0.002-0.04,0.002c-0.01-0.168-0.02-0.336-0.031-0.516c-0.119,0.019-0.23,0.025-0.341,0.055
		c-0.027-0.449-0.054-0.896-0.082-1.346c-0.183,0.021-0.364,0.055-0.538,0.088c0.142,2.356,0.285,4.711,0.428,7.055
		c-0.057,0.016-0.112,0.018-0.16,0.033c0.041,0.661,0.08,1.312,0.12,1.963c-0.017,0-0.032,0.002-0.04,0.002
		c-0.037-0.629-0.076-1.268-0.115-1.906c-0.119,0.018-0.23,0.036-0.341,0.054c0.01,0.18,0.021,0.359,0.031,0.528
		c-0.071,0.014-0.142,0.041-0.214,0.045c-0.271-4.486-0.543-8.972-0.815-13.457c-0.183,0.021-0.364,0.055-0.547,0.088
		c0.086,1.425,0.172,2.838,0.258,4.252c-0.183,0.033-0.356,0.066-0.531,0.1c0.176,2.894,0.351,5.787,0.526,8.68
		c-0.039,0.003-0.072,0.005-0.102,0.018c0.01,0.18,0.021,0.359,0.031,0.527c-0.119,0.02-0.229,0.048-0.342,0.066
		c-0.146-2.411-0.293-4.846-0.439-7.268c-0.182,0.045-0.363,0.078-0.537,0.122c0.085,1.402,0.17,2.805,0.255,4.206
		c-0.095,0.017-0.19,0.034-0.286,0.051c0.012,0.18,0.022,0.359,0.033,0.538c-0.07,0.017-0.135,0.03-0.197,0.046
		c0.01,0.168,0.021,0.337,0.031,0.505c-0.119,0.03-0.229,0.048-0.341,0.077c0.041,0.662,0.081,1.313,0.12,1.963
		c-0.061-0.986-0.121-1.985-0.182-2.983c-0.016,0.001-0.023,0.001-0.031,0.002c-0.086-1.402-0.172-2.815-0.256-4.229
		c-0.184,0.035-0.364,0.079-0.539,0.112c0.096,1.581,0.192,3.163,0.287,4.745c-0.078,0.016-0.158,0.031-0.228,0.058
		c-0.155-2.558-0.31-5.114-0.466-7.683c-0.182,0.045-0.363,0.09-0.544,0.146c0.086,1.413,0.173,2.838,0.257,4.24
		c-0.174,0.032-0.348,0.077-0.521,0.11c0.098,1.615,0.195,3.219,0.293,4.834c-0.016,0.012-0.023,0.013-0.031,0.013
		c-0.027-0.46-0.055-0.919-0.084-1.391c-0.096,0.017-0.19,0.046-0.277,0.062c-0.191-3.151-0.381-6.303-0.574-9.466
		c-0.18,0.045-0.362,0.091-0.536,0.134c0.122,2.008,0.244,4.016,0.366,6.023c-0.182,0.045-0.363,0.089-0.537,0.145
		c0.105,1.728,0.211,3.466,0.314,5.182c-0.078,0.016-0.157,0.043-0.229,0.059c-0.082-1.357-0.164-2.703-0.246-4.06
		c-0.031,0.013-0.063,0.026-0.086,0.027c-0.145-2.378-0.289-4.755-0.434-7.144c-0.182,0.056-0.36,0.122-0.535,0.155
		c0.122,2.009,0.243,4.016,0.365,6.022c-0.182,0.057-0.361,0.112-0.535,0.156c0.145,2.4,0.291,4.801,0.436,7.201
		c-0.094,0.029-0.188,0.057-0.274,0.084c-0.058-0.942-0.114-1.885-0.171-2.826c-0.086,0.027-0.173,0.055-0.252,0.072
		c-0.029-0.494-0.061-0.988-0.089-1.471c-0.181,0.057-0.362,0.112-0.535,0.168c0.04,0.673,0.081,1.346,0.123,2.02
		c-0.181,0.056-0.362,0.111-0.534,0.179c0.045,0.751,0.092,1.514,0.138,2.276c-0.016,0-0.031,0.002-0.047,0.014
		c-0.057-0.941-0.114-1.884-0.171-2.826c-0.182,0.056-0.362,0.111-0.534,0.179c-0.04-0.673-0.081-1.347-0.122-2.008
		c-0.109,0.03-0.211,0.069-0.314,0.099c0.041,0.661,0.082,1.334,0.123,2.007c-0.088,0.028-0.174,0.056-0.252,0.083
		c-0.141-2.311-0.281-4.631-0.421-6.941c-0.181,0.066-0.361,0.123-0.533,0.178c-0.136-2.231-0.271-4.463-0.406-6.695
		c-0.181,0.066-0.36,0.134-0.532,0.201c0.304,5.013,0.607,10.025,0.91,15.04c-0.068-1.134-0.137-2.277-0.205-3.409
		c-0.024,0-0.04,0.014-0.056,0.014c0.04,0.662,0.081,1.334,0.122,2.008c-0.18,0.066-0.36,0.134-0.533,0.201
		c0.037,0.594,0.072,1.188,0.107,1.771c-0.016,0.002-0.022,0.014-0.031,0.014c-0.127-2.109-0.256-4.217-0.382-6.314
		c-0.181,0.056-0.361,0.123-0.533,0.189c0.084,1.391,0.167,2.771,0.251,4.15c-0.18,0.066-0.359,0.135-0.531,0.201
		c0.008,0.135,0.016,0.269,0.023,0.403c-0.094,0.04-0.188,0.067-0.281,0.107c0.035,0.595,0.072,1.188,0.107,1.772
		c-0.102,0.039-0.203,0.08-0.298,0.118c-0.074-1.222-0.149-2.455-0.224-3.689c-0.015,0.013-0.022,0.013-0.031,0.014
		c0.078,1.29,0.156,2.568,0.233,3.847c-0.038-0.639-0.079-1.289-0.117-1.93c-0.093,0.039-0.188,0.08-0.28,0.119
		c-0.076-1.234-0.15-2.467-0.225-3.701c-0.086,0.039-0.172,0.077-0.25,0.105c-0.018-0.28-0.034-0.561-0.052-0.854
		c-0.095,0.04-0.187,0.091-0.282,0.119c-0.117-1.94-0.234-3.893-0.354-5.844c-0.179,0.079-0.357,0.156-0.531,0.225
		c0.246,4.06,0.492,8.119,0.738,12.168l0,0c-0.074-1.223-0.149-2.456-0.223-3.689c-0.103,0.051-0.204,0.091-0.297,0.131
		c0.039,0.639,0.077,1.277,0.116,1.917c-0.075-1.233-0.149-2.468-0.225-3.701c-0.179,0.079-0.359,0.157-0.531,0.224
		c-0.083-1.368-0.166-2.748-0.251-4.127c-0.178,0.102-0.357,0.168-0.527,0.258c0.137,2.275,0.275,4.541,0.412,6.817
		c-0.038,0.015-0.077,0.039-0.117,0.053c-0.031-0.517-0.062-1.032-0.093-1.547c-0.07,0.038-0.141,0.064-0.204,0.091
		c-0.021-0.37-0.045-0.752-0.068-1.133c-0.179,0.078-0.357,0.168-0.529,0.246c-0.082-1.369-0.166-2.748-0.25-4.128
		c-0.179,0.089-0.357,0.168-0.529,0.258c0.154,2.522,0.305,5.024,0.457,7.536c-0.031,0.014-0.054,0.025-0.077,0.039
		c-0.021-0.348-0.042-0.684-0.062-1.021c-0.141,0.066-0.281,0.131-0.422,0.195c-0.196-3.253-0.393-6.494-0.591-9.746
		c-0.177,0.1-0.356,0.189-0.527,0.279c0.198,3.252,0.394,6.494,0.591,9.746c-0.039,0.014-0.077,0.038-0.109,0.051
		c0.084,1.392,0.169,2.781,0.252,4.15c-0.1,0.063-0.201,0.113-0.295,0.152c-0.083-1.367-0.167-2.758-0.252-4.148
		c-0.178,0.1-0.355,0.201-0.527,0.278c0.072,1.19,0.145,2.366,0.215,3.544c-0.046,0.026-0.085,0.051-0.125,0.064
		c-0.284-4.699-0.568-9.387-0.854-14.098c-0.178,0.101-0.357,0.19-0.536,0.28c0.142,2.332,0.282,4.654,0.424,6.987
		c-0.03,0.023-0.062,0.037-0.093,0.051c0.112,1.861,0.225,3.713,0.337,5.563c-0.03,0.023-0.062,0.038-0.085,0.05
		c-0.04-0.661-0.08-1.323-0.121-1.996c-0.178,0.09-0.357,0.19-0.527,0.291c0.072,1.188,0.145,2.366,0.215,3.544
		c-0.131,0.076-0.255,0.15-0.379,0.227c-0.03-0.516-0.062-1.032-0.093-1.549c-0.062,0.038-0.123,0.086-0.187,0.102
		c-0.064-1.077-0.131-2.153-0.196-3.241c-0.069,0.038-0.14,0.077-0.208,0.126c-0.107-1.75-0.214-3.511-0.32-5.272
		c-0.178,0.102-0.355,0.202-0.526,0.302c0.13,2.154,0.261,4.297,0.391,6.45c-0.108,0.063-0.216,0.126-0.317,0.177
		c0.074,1.211,0.146,2.422,0.22,3.623c-0.046,0.024-0.094,0.049-0.132,0.074c-0.031-0.516-0.063-1.031-0.094-1.547
		c-0.131,0.075-0.255,0.15-0.379,0.225c-0.172-2.838-0.344-5.674-0.516-8.512c-0.076,0.061-0.154,0.1-0.225,0.137
		c-0.016-0.258-0.031-0.516-0.047-0.785c-0.185,0.125-0.361,0.236-0.539,0.348c0.141,2.322,0.281,4.655,0.422,6.965
		c-0.03,0.024-0.063,0.039-0.085,0.051c0.036,0.595,0.071,1.178,0.106,1.749c-0.102,0.063-0.201,0.125-0.301,0.188
		c-0.212-3.487-0.424-6.987-0.637-10.497c-0.178,0.111-0.355,0.223-0.525,0.335c0.053,0.864,0.105,1.728,0.156,2.569
		c-0.068,0.049-0.139,0.086-0.207,0.136c0.125,2.075,0.25,4.127,0.375,6.19c-0.009,0.002-0.009,0.002-0.009,0.002
		c-0.242-4.006-0.483-7.998-0.728-12.001c-0.177,0.111-0.354,0.224-0.523,0.335c0.178,2.928,0.354,5.844,0.53,8.76
		c-0.03,0.024-0.062,0.049-0.093,0.062c-0.11-1.839-0.223-3.679-0.334-5.518c-0.176,0.122-0.353,0.247-0.521,0.369
		c0.176,2.915,0.353,5.832,0.529,8.759c-0.176,0.123-0.352,0.247-0.521,0.359c0.047,0.772,0.094,1.547,0.141,2.32l-0.05,0.039
		c0.156,0.803,0.388,1.787,0.549,2.623c0.179,0.93,0.269,1.676,0.366,2.339c0.098,0.662,0.203,1.239,0.285,2.009
		c0.083,0.77,0.144,1.733,0.26,2.439c0.114,0.708,0.285,1.16,0.408,1.839c0.123,0.68,0.197,1.588,0.263,2.122
		c0.065,0.535,0.12,0.694,0.253,0.838c0.133,0.143,0.344,0.268,0.627,0.408c0.284,0.141,0.64,0.297,1.004,0.531
		c0.363,0.236,0.735,0.552,1.161,0.915c0.427,0.362,0.908,0.771,1.429,1.098c0.521,0.325,1.079,0.569,1.611,0.755
		c0.531,0.188,1.035,0.317,1.591,0.459c0.556,0.143,1.163,0.295,1.983,0.438c0.819,0.142,1.854,0.275,2.648,0.366
		c0.794,0.093,1.352,0.143,2.494,0.161c1.142,0.02,2.869,0.007,4.188-0.029c1.318-0.037,2.227-0.097,3.383-0.198
		c1.156-0.1,2.561-0.24,4.203-0.414s3.523-0.383,5.102-0.529c1.576-0.146,2.852-0.232,4.16-0.305c1.31-0.072,2.653-0.133,3.82-0.166
		c1.168-0.032,2.158-0.037,4.202-0.07c2.042-0.035,5.137-0.098,7.196-0.158c2.059-0.063,3.082-0.122,4.611-0.309
		c1.531-0.186,3.567-0.496,4.825-0.713c1.259-0.22,1.737-0.346,2.065-0.48c0.326-0.135,0.501-0.279,0.641-0.373
		c0.141-0.094,0.246-0.137,0.529-0.238c0.282-0.102,0.744-0.262,1.28-0.445c0.534-0.186,1.145-0.393,1.624-0.6
		c0.48-0.205,0.832-0.408,1.059-0.537s0.33-0.185,0.496-0.195c0.168-0.009,0.398,0.026,0.59-0.021
		c0.192-0.045,0.346-0.173,0.55-0.365s0.46-0.448,0.563-0.842c0.103-0.393,0.053-0.926,0.058-2.267
		c0.006-1.343,0.065-3.493,0.046-5.89c-0.021-2.395-0.121-5.033-0.171-6.643C180.671,112.125,180.662,111.5,180.658,110.939z
		 M106.299,107.254l-0.077-1.279c-0.175,0.134-0.353,0.258-0.521,0.391l0.01,0.156c0.154,0.193,0.301,0.369,0.431,0.531
		L106.299,107.254z"/>
	<path id="calcao_contorno" fill="none" d="M80.372,143.682c0.053-0.256,0.103-0.633,0.183-1.98c0.081-1.35,0.191-3.673,0.457-8.242
		c0.266-4.57,0.688-11.387,1.023-16.365c0.336-4.979,0.587-8.118,0.914-11.589c0.325-3.472,0.727-7.273,1.229-11.235
		c0.502-3.963,1.104-8.086,1.876-12.771c0.772-4.684,1.715-9.931,2.432-13.367c0.718-3.436,1.209-5.062,1.524-6.088
		c0.316-1.027,0.455-1.456,0.564-1.69c0.108-0.234,0.186-0.275,0.259-0.268c0.075,0.006,0.145,0.061,0.234,0.161
		c0.091,0.1,0.201,0.245,0.344,0.551c0.144,0.307,0.318,0.774,0.602,1.409c0.283,0.635,0.674,1.437,1.009,2.222
		s0.616,1.556,0.735,2.149c0.119,0.593,0.076,1.01,0.111,1.477s0.148,0.986,0.443,1.424c0.297,0.438,0.775,0.794,1.052,1.267
		c0.276,0.473,0.349,1.062,0.529,1.898c0.181,0.837,0.468,1.92,0.567,2.738c0.1,0.816,0.009,1.369-0.086,1.89
		c-0.093,0.521-0.19,1.01-0.088,1.499c0.103,0.49,0.406,0.982,0.762,1.438c0.354,0.457,0.761,0.878,1.01,1.155
		c0.25,0.277,0.343,0.409,0.432,0.535c0.088,0.125,0.174,0.244,0.309,0.773c0.134,0.531,0.316,1.475,0.386,2.128
		c0.069,0.655,0.024,1.021-0.003,1.386c-0.025,0.365-0.033,0.729-0.063,1.191c-0.029,0.463-0.082,1.024-0.075,1.54
		c0.008,0.516,0.075,0.985,0.405,1.681c0.329,0.696,0.922,1.619,1.482,2.364c0.561,0.747,1.089,1.316,1.444,1.675
		c0.355,0.357,0.538,0.504,0.701,0.764c0.164,0.261,0.311,0.635,0.43,1.111c0.12,0.479,0.217,1.061,0.268,1.735
		s0.059,1.442,0.048,2.294s-0.042,1.786,0.132,2.638c0.173,0.853,0.549,1.618,0.969,2.267c0.418,0.648,0.879,1.178,1.222,1.607
		s0.566,0.757,0.753,1.081c0.188,0.323,0.337,0.642,0.488,1.016c0.15,0.374,0.301,0.803,0.415,1.3
		c0.114,0.498,0.191,1.065,0.298,1.579c0.107,0.515,0.242,0.976,0.33,1.495s0.127,1.096,0.281,1.938
		c0.153,0.843,0.418,1.951,0.597,2.878c0.179,0.93,0.269,1.676,0.366,2.339c0.098,0.662,0.203,1.239,0.285,2.009
		c0.083,0.77,0.144,1.733,0.26,2.439c0.114,0.708,0.285,1.16,0.408,1.839c0.123,0.68,0.197,1.588,0.263,2.122
		c0.065,0.535,0.12,0.694,0.253,0.838c0.133,0.143,0.344,0.268,0.627,0.408c0.284,0.141,0.64,0.297,1.004,0.531
		c0.363,0.236,0.735,0.552,1.161,0.915c0.427,0.362,0.908,0.771,1.429,1.098c0.521,0.325,1.079,0.569,1.611,0.755
		c0.531,0.188,1.035,0.317,1.591,0.459c0.556,0.143,1.163,0.295,1.983,0.438c0.819,0.142,1.854,0.275,2.648,0.366
		c0.794,0.093,1.352,0.143,2.494,0.161c1.142,0.02,2.869,0.007,4.188-0.029c1.318-0.037,2.227-0.097,3.383-0.198
		c1.156-0.1,2.561-0.24,4.203-0.414s3.523-0.383,5.102-0.529c1.576-0.146,2.852-0.232,4.16-0.305c1.31-0.072,2.653-0.133,3.82-0.166
		c1.168-0.032,2.158-0.037,4.202-0.07c2.042-0.035,5.137-0.098,7.196-0.158c2.059-0.063,3.082-0.122,4.611-0.309
		c1.531-0.186,3.567-0.496,4.825-0.713c1.259-0.22,1.737-0.346,2.065-0.48c0.326-0.135,0.501-0.279,0.641-0.373
		c0.141-0.094,0.246-0.137,0.529-0.238c0.282-0.102,0.744-0.262,1.28-0.445c0.534-0.186,1.145-0.393,1.624-0.6
		c0.48-0.205,0.832-0.408,1.059-0.537s0.33-0.185,0.496-0.195c0.168-0.009,0.398,0.026,0.59-0.021
		c0.192-0.045,0.346-0.173,0.55-0.365s0.46-0.448,0.563-0.842c0.103-0.393,0.053-0.926,0.058-2.267
		c0.006-1.343,0.065-3.493,0.046-5.89c-0.021-2.395-0.121-5.033-0.171-6.643c-0.05-1.61-0.05-2.192-0.05-3.015
		c0-0.823,0-1.886-0.024-2.882c-0.026-0.996-0.076-1.924-0.099-2.885c-0.022-0.96-0.018-1.953-0.08-3.525
		c-0.063-1.573-0.193-3.725-0.263-5.465c-0.07-1.74-0.081-3.07-0.204-6.607c-0.122-3.535-0.358-9.278-0.817-14.949
		c-0.459-5.671-1.142-11.269-2.004-16.585c-0.862-5.317-1.906-10.354-2.939-15.139c-1.033-4.785-2.057-9.32-3.4-13.954
		c-1.345-4.634-3.01-9.37-4.615-13.634c-1.605-4.263-3.149-8.055-4.063-10.253c-0.913-2.198-1.193-2.803-1.314-3.193
		c-0.119-0.392-0.08-0.57,0.009-0.707c0.089-0.136,0.228-0.232,0.339-0.307c0.012-0.008,0.025-0.017,0.036-0.026
		c-0.036-0.002-0.077-0.003-0.126-0.006c-0.092-0.006-0.214-0.012-0.61-0.042c-0.396-0.032-1.063-0.087-1.95-0.094
		c-0.886-0.007-1.99,0.033-3.146,0.116c-1.157,0.083-2.367,0.211-4.256,0.535c-1.891,0.324-4.459,0.846-6.578,1.318
		c-2.121,0.471-3.793,0.893-5.985,1.328c-2.194,0.434-4.909,0.882-7.635,1.247c-2.726,0.364-5.462,0.645-8.771,0.946
		c-3.311,0.301-7.196,0.623-10.442,0.85c-3.248,0.227-5.855,0.361-8.24,0.491s-4.545,0.257-7,0.355
		c-2.453,0.097-5.202,0.164-7.931,0.22c-2.729,0.057-5.438,0.104-8.019,0.098c-2.581-0.007-5.036-0.067-7.336-0.121
		c-2.301-0.054-4.448-0.1-6.772-0.17c-2.323-0.071-4.825-0.165-7.894-0.251c-3.07-0.087-6.708-0.167-10.564-0.19
		c-3.855-0.024-7.928,0.01-11.299,0.006c-3.371-0.003-6.04-0.043-9.567-0.181c-3.528-0.137-7.915-0.371-11.07-0.607
		c-3.154-0.236-5.078-0.473-6.476-0.752c-1.398-0.28-2.272-0.602-3.146-0.923c0.039,0.056,0.019,0.165-0.024,0.549
		C6.322,5.35,6.232,6.27,5.981,7.963c-0.25,1.693-0.663,4.159-0.93,5.963c-0.269,1.805-0.394,2.948-0.695,4.831
		c-0.301,1.885-0.778,4.508-1.161,6.82c-0.383,2.312-0.675,4.313-0.905,6c-0.231,1.688-0.402,3.063-0.56,4.658
		c-0.158,1.595-0.303,3.41-0.461,5.608c-0.158,2.197-0.329,4.775-0.5,7.654c-0.17,2.879-0.341,6.059-0.465,9.45
		c-0.126,3.391-0.206,6.992-0.181,10.679c0.025,3.687,0.156,7.458,0.412,11.125c0.256,3.666,0.636,7.228,0.888,10.428
		c0.25,3.2,0.37,6.039,0.426,9.18c0.055,3.139,0.045,6.58,0.08,10.528c0.035,3.947,0.116,8.401,0.196,12.118
		c0.081,3.717,0.16,6.695,0.235,8.748c0.074,2.051,0.141,3.174,0.169,3.848c0.028,0.672,0.015,0.893,0.024,1.961
		c0.008,1.068,0.039,2.984,0.068,4.352c0.031,1.366,0.061,2.184,0.121,2.67c0.06,0.487,0.151,0.643,0.424,0.929
		s0.729,0.702,2.315,1.036c1.584,0.333,4.298,0.584,6.886,0.807c2.588,0.224,5.051,0.419,9.229,0.643
		c4.178,0.223,10.073,0.474,14.426,0.662c4.354,0.188,7.167,0.313,9.636,0.335c2.467,0.023,4.589-0.058,6.733-0.124
		c2.145-0.068,4.313-0.123,6.379-0.191s4.033-0.148,6.804-0.496c2.771-0.349,6.347-0.967,8.582-1.423
		c2.235-0.456,3.128-0.752,3.913-1.151c0.784-0.397,1.461-0.899,1.828-1.218C80.263,144.072,80.319,143.938,80.372,143.682z"/>
</g>
</svg>
