<?xml version="1.0" encoding="UTF-8"?>
<!DOCTYPE svg PUBLIC "-//W3C//DTD SVG 1.1//EN" "http://www.w3.org/Graphics/SVG/1.1/DTD/svg11.dtd">
<!-- Creator: CorelDRAW -->
<svg xmlns="http://www.w3.org/2000/svg" xml:space="preserve" width="238px" height="298px" version="1.1" shape-rendering="geometricPrecision" text-rendering="geometricPrecision" image-rendering="optimizeQuality" fill-rule="evenodd" clip-rule="evenodd"
viewBox="0 0 238 298.123"
 xmlns:xlink="http://www.w3.org/1999/xlink"
 xmlns:xodm="http://www.corel.com/coreldraw/odm/2003">
 <defs>
   <clipPath id="id0">
    <path d="M207.298 27.894c-0.11,-0.063 -0.222,-0.122 -0.337,-0.177 -4.975,-2.38 -9.714,-5.334 -14.858,-7.149 -4.647,-1.639 -11.454,-2.699 -17.288,-4.719 -2.277,-0.789 -4.556,-1.589 -6.82,-2.415l-0.004 -0.03 -9.999 -4.08 -0.175 -0.072c-0.614,-0.28 -1.553,-1.207 -2.512,-1.889 -0.494,-0.369 -0.613,-0.563 -1.038,-0.905 -2.856,-2.299 -5.606,-5.635 -9.574,-5.641 -0.901,-0.002 -1.04,-0.123 -1.779,-0.163l-7.601 -0.17c-5.892,-0.486 -12.055,-0.501 -18.06,-0.477 -5.087,0.02 -9.557,0.063 -14.567,0.477 -2.529,0.209 -4.996,0.029 -7.6,0.17 -0.739,0.04 -0.878,0.161 -1.779,0.163 -3.968,0.006 -6.718,3.342 -9.575,5.641 -0.424,0.342 -0.543,0.536 -1.037,0.905 -0.741,0.527 -1.471,1.2 -2.047,1.608 -0.17,0.121 -0.326,0.218 -0.465,0.281l-10.174 4.152 -0.003 0.03c-2.265,0.826 -4.544,1.626 -6.821,2.415 -5.834,2.02 -12.641,3.08 -17.288,4.719 -5.144,1.815 -9.883,4.769 -14.858,7.149 -0.212,0.101 -0.412,0.215 -0.605,0.339 -0.909,0.583 -1.664,1.379 -2.651,2.001 -11.263,7.099 -18.243,27.467 -21.401,39.215 -1.569,5.839 -1.98,12.983 -2.969,19.04 -0.5,3.067 -1.172,6.193 -1.752,9.253 -0.585,3.095 -0.872,6.493 -1.288,9.631 -0.406,0.268 -0.327,-0.023 -0.308,0.899l-0.065 1.854 0 8.783c0.041,1.018 0.102,1.813 0.186,2.164 1.125,0.477 3.706,0.514 5.07,0.712 7.662,1.114 9.041,0.828 15.791,1.554l21.547 1.349c-0.015,-1.623 0.547,-10.725 0.578,-13.424l-0.603 -0.316 -0.07 -0.036c0,-4.476 -0.011,-9.226 -0.011,-13.7 1.678,4.247 3.328,18.944 3.789,24.023 0.735,8.116 1.826,16.186 2.512,24.347 0.348,4.137 0.874,8.269 1.009,12.419l0.653 12.776c0.396,4.199 0.208,8.934 0.274,13.179 0.032,2.062 0.194,4.007 0.186,6.13 -0.007,2.226 -0.172,4.349 -0.196,6.512 -0.051,4.469 -0.054,8.634 -0.319,13.111 -0.68,11.475 -1.257,26.076 -3.267,37.02 -0.966,5.407 -2.177,11.944 -2.754,17.389 -0.258,2.432 -0.827,10.057 -1.468,11.951 -0.68,2.01 -0.163,3.658 -0.568,5.77 -0.342,1.785 -0.742,3.812 -1.164,5.568 -0.463,1.93 -1.435,3.647 0.397,4.966 4.276,1.054 8.552,2.108 13.913,3.017 5.36,0.909 11.804,1.672 18.03,2.048 6.226,0.375 12.232,0.363 21.568,0.476 9.335,0.112 21.999,0.351 32.523,0.382 10.525,0.032 18.909,-0.144 26.242,-0.419 7.333,-0.275 13.615,-0.65 19.058,-1.151 5.443,-0.501 10.048,-1.126 13.829,-1.873 3.78,-0.746 6.736,-1.613 9.693,-2.48 1.832,-1.319 0.86,-3.036 0.397,-4.966 -0.422,-1.756 -0.822,-3.783 -1.164,-5.568 -0.405,-2.112 0.112,-3.76 -0.568,-5.77 -0.641,-1.894 -1.21,-9.519 -1.468,-11.951 -0.577,-5.445 -1.788,-11.982 -2.754,-17.389 -2.01,-10.944 -2.587,-25.545 -3.267,-37.02 -0.265,-4.477 -0.268,-8.642 -0.319,-13.111 -0.024,-2.163 -0.189,-4.286 -0.196,-6.512 -0.008,-2.123 0.154,-4.068 0.186,-6.13 0.066,-4.245 -0.122,-8.98 0.274,-13.179l0.653 -12.776c0.135,-4.15 0.661,-8.282 1.009,-12.419 0.686,-8.161 1.777,-16.231 2.512,-24.347 0.461,-5.079 1.889,-19.043 3.568,-23.29 0,4.474 -0.105,8.584 -0.105,13.06l0 0 -0.416 0.247c-0.004,0.882 0.338,12.091 0.604,13.423l21.579 -1.336c6.75,-0.726 8.129,-0.44 15.791,-1.554 1.364,-0.198 3.945,-0.235 5.07,-0.712 0.084,-0.351 0.145,-1.146 0.186,-2.164l0 -8.783 -0.065 -1.854c0.014,-0.687 0.062,-0.7 -0.083,-0.774 -0.05,-0.025 -0.122,-0.057 -0.225,-0.125 -0.416,-3.138 -0.703,-6.536 -1.288,-9.631 -0.58,-3.06 -1.252,-6.186 -1.752,-9.253 -0.989,-6.057 -1.4,-13.201 -2.969,-19.04 -3.158,-11.748 -10.138,-32.116 -21.401,-39.215 -1.057,-0.665 -1.895,-1.576 -2.919,-2.163z"/>
   </clipPath>
 </defs>
 <g id="VETORES">
  <metadata id="CorelCorpID_0Corel-Layer"/>
  <g>
  </g>
  <g clip-path="url(#id0)">
   <g id="_1761690889104">
    <path id="_1c" fill="black" fill-rule="nonzero" d="M129.326 298.136c17.018,0 42.638,-0.537 57.41,-3.464 3.774,-0.74 6.727,-1.621 9.68,-2.472 1.842,-1.332 0.851,-3.033 0.4,-4.965 -0.43,-1.762 -0.821,-3.774 -1.161,-5.566 -0.4,-2.132 0.11,-3.774 -0.57,-5.786 -0.651,-1.872 -1.222,-9.51 -1.472,-11.943 -0.33,-3.173 -0.88,-6.717 -1.482,-10.2 -24.255,9.6 -45.577,24.636 -62.805,44.386l0 0.01zm43.205 -80.254c-30.541,22.083 -56.47,48.697 -77.722,79.844l20.592 0.29c8.809,-17.617 21.942,-34.333 37.95,-46.148 9.76,-7.208 20.972,-12.944 32.524,-16.737l-12.203 -5.816 14.565 -8.559c-0.523,-8.868 -0.951,-15.798 -0.951,-24.576 -10.14,6.206 -19.8,13.214 -28.82,20.922 4.735,-0.43 9.39,-0.17 14.075,0.771l-0.01 0.009zm-68.191 -159.837c12.343,-10.841 26.357,-21.282 40.262,-30.051l-25.287 7.748c13.212,-9.297 25.221,-17.545 38.971,-26.267 -3.476,-1.392 -8.243,-8.64 -13.605,-8.64l-5.505 -0.25 -45.408 41.173 15.527 -5.245c-9.51,7.858 -19.13,16.086 -28.4,24.115 -12.863,11.131 -25.637,22.633 -38.17,34.195l-0.24 2.243c1.672,4.224 3.343,18.93 3.804,24.005 0.11,1.211 0.24,2.412 0.36,3.624 16.08,-24.773 35.416,-47.136 57.701,-66.65l-0.01 0zm-37.259 189.688c30.909,-35.007 56.556,-73.367 76.9,-115.46l-19.891 8.829c9.784,-25.815 34.126,-43.371 61.685,-44.637 -4.855,-4.144 -10.531,-7.208 -16.628,-9.08 9.32,-1.731 18.71,-3.113 28.139,-4.164 2.031,-6.691 2.612,-11.969 3.654,-19.861 -22.954,5.436 -44.837,14.856 -64.858,27.97 5.647,-2.212 11.803,-1.872 17.078,1.131 -19.41,14.445 -36.208,31.983 -49.602,52.384 -6.466,9.871 -12.653,21.313 -17.197,32.204 0,0.03 -0.03,0.06 -0.03,0.09l19.33 -8.819c-7.118,15.606 -14.986,29.541 -24.796,43.695 -10.23,14.756 -21.963,28.49 -34.876,40.963 -0.641,3.725 -1.252,7.558 -1.612,10.962 -0.17,1.642 -0.49,5.636 -0.871,8.649 8.129,-7.998 15.987,-16.267 23.575,-24.846l0 -0.01zm8.489 -79.933c10.33,-22.952 22.996,-45.283 37.059,-66.148l-22.164 12.773c29.935,-35.081 69.58,-62.461 115.311,-77.471 1.393,-4.603 1.522,-4.595 1.522,-9.05 -0.11,-0.06 -0.231,-0.11 -0.341,-0.17 -4.965,-2.383 -9.7,-5.335 -14.845,-7.147 -2.493,-0.881 -5.596,-1.592 -8.84,-2.373 -17.228,9.29 -33.685,20.001 -49.101,32.134 -14.415,11.351 -27.979,23.894 -40.292,37.489 -17.388,19.19 -32.134,39.781 -44.637,62.335 0.15,1.491 0.28,2.983 0.39,4.474 7.298,-3.864 15.076,-6.927 23.185,-9.039 -6.377,11.131 -13.794,21.582 -22.103,31.233l0.2 13.063c0,2.243 -0.17,4.375 -0.2,6.527l-0.941 24.145c12.3,-18.963 16.698,-32.666 25.797,-52.775l0 0zm73.547 -33.905c6.837,-2.153 14.214,-2.353 21.281,-0.511 -23.073,30.504 -46.059,62.81 -67.109,94.839l-7.749 11.832 19.271 -8.028c-23.805,17.378 -43.703,38.173 -59.582,63.146 0.08,0.01 0.16,0.03 0.25,0.04 5.366,0.911 11.802,1.672 18.049,2.043 3.153,0.2 6.266,0.29 9.78,0.35 11.782,-33.606 34.936,-61.254 65.809,-79.153 0.139,-0.06 0.26,-0.14 0.37,-0.2l-23.304 6.016c14.863,-27.07 35.442,-50.963 60.102,-69.612 -7.056,0 -15.29,1.083 -22.163,2.503 7.148,-8.619 15.817,-15.186 25.867,-19.771 0.581,-5.446 1.221,-10.881 1.712,-16.327 0.31,-3.263 1.011,-10.191 1.912,-15.857 -6.707,2.463 -13.224,5.496 -19.47,9.16 -9.25,5.415 -17.619,12.032 -25.026,19.52l0 0.01zm-44.007 -129.716l4.825 -3.093 -25.286 7.758 11.682 -8.198 -3.043 0.21c-4.827,0 -8.702,5.488 -12.653,8.149 -1.115,0.751 -9.673,3.877 -10.451,4.345 -12.283,10.27 -24.476,20.731 -36.478,31.362l3.133 19.711c2.833,-3.323 5.666,-6.537 8.749,-9.87 17.619,-19.07 37.88,-36.098 59.502,-50.343l0.02 -0.031z"/>
    <path id="_1c_0" fill="black" fill-rule="nonzero" d="M20.662 90.079l-18.158 3.223 -1.392 7.918c6.067,-4.074 12.473,-7.738 19.18,-10.951 0.11,-0.09 0.261,-0.14 0.37,-0.2l0 0.01zm21.843 20.711l-0.14 0 -0.02 -0.02 -1.201 -0.059 -23.164 -1.813c-5.306,3.965 -10.491,8.109 -15.576,12.453 1.021,0.11 2.101,0.18 2.842,0.29 7.659,1.112 9.05,0.822 15.807,1.532l1.902 0.12c6.327,-3.853 13.103,-7.117 20.121,-9.69 0.04,-1.031 0.07,-1.912 0.08,-2.483l-0.661 -0.309 0.01 -0.021zm-10.241 -58.05c0.822,-0.75 1.652,-1.491 2.483,-2.232l-3.934 -20.271c-0.14,-0.711 -0.26,-1.452 -0.37,-2.153 -0.641,0.401 -1.211,0.911 -1.832,1.392 -4.345,5.045 -8.659,10.131 -12.944,15.226 -4.414,8.278 -7.478,17.848 -9.28,24.585 -1.221,4.565 -1.751,9.921 -2.392,14.926 8.389,-11.342 17.888,-21.953 28.269,-31.473l0 0zm9.971 58.021l0.34 0.029 -0.06 -0.06c0,-2.855 -0.183,-13.174 0.11,-15.266 0.215,-1.535 0.362,-1.55 -0.08,-3.253 -8.409,5.175 -16.497,10.661 -24.325,16.517l24.015 2.033zm0.03 -19.601l-2.122 -8.638c-3.554,2.292 -7.048,4.674 -10.461,7.157 4.294,-0.05 8.448,0.431 12.583,1.482l0 -0.001zm191.79 -6.547c-1.038,-7.93 -1.197,-11.263 -3.394,-18.729 -1.922,3.714 -3.944,7.428 -6.086,11.172 -8.499,14.815 -18.429,28.81 -29.541,41.783 0.11,2.643 0.23,5.086 0.35,5.656l10.852 -0.671c9.972,-12.753 19.092,-25.568 27.829,-39.22l-0.01 0.009zm3.934 34.126l0 -2.863c-1.662,1.872 -3.283,3.784 -4.885,5.716 1.421,-0.16 3.674,-0.25 4.715,-0.691l0.17 -2.162zm-22.764 -84.418c-1.561,-1.692 -3.233,-3.144 -5.005,-4.265 -1.051,-0.651 -1.902,-1.561 -2.923,-2.152 0,7.173 -1.284,6.601 -3.233,15.606 -2.42,11.182 -3.534,28.203 -6.186,37.7 7.664,-15.969 11.539,-30.314 17.338,-46.889l0.009 0z"/>
   </g>
  </g>
  <path fill="none" d="M207.298 27.894c-0.11,-0.063 -0.222,-0.122 -0.337,-0.177 -4.975,-2.38 -9.714,-5.334 -14.858,-7.149 -4.647,-1.639 -11.454,-2.699 -17.288,-4.719 -2.277,-0.789 -4.556,-1.589 -6.82,-2.415l-0.004 -0.03 -9.999 -4.08 -0.175 -0.072c-0.614,-0.28 -1.553,-1.207 -2.512,-1.889 -0.494,-0.369 -0.613,-0.563 -1.038,-0.905 -2.856,-2.299 -5.606,-5.635 -9.574,-5.641 -0.901,-0.002 -1.04,-0.123 -1.779,-0.163l-7.601 -0.17c-5.892,-0.486 -12.055,-0.501 -18.06,-0.477 -5.087,0.02 -9.557,0.063 -14.567,0.477 -2.529,0.209 -4.996,0.029 -7.6,0.17 -0.739,0.04 -0.878,0.161 -1.779,0.163 -3.968,0.006 -6.718,3.342 -9.575,5.641 -0.424,0.342 -0.543,0.536 -1.037,0.905 -0.741,0.527 -1.471,1.2 -2.047,1.608 -0.17,0.121 -0.326,0.218 -0.465,0.281l-10.174 4.152 -0.003 0.03c-2.265,0.826 -4.544,1.626 -6.821,2.415 -5.834,2.02 -12.641,3.08 -17.288,4.719 -5.144,1.815 -9.883,4.769 -14.858,7.149 -0.212,0.101 -0.412,0.215 -0.605,0.339 -0.909,0.583 -1.664,1.379 -2.651,2.001 -11.263,7.099 -18.243,27.467 -21.401,39.215 -1.569,5.839 -1.98,12.983 -2.969,19.04 -0.5,3.067 -1.172,6.193 -1.752,9.253 -0.585,3.095 -0.872,6.493 -1.288,9.631 -0.406,0.268 -0.327,-0.023 -0.308,0.899l-0.065 1.854 0 8.783c0.041,1.018 0.102,1.813 0.186,2.164 1.125,0.477 3.706,0.514 5.07,0.712 7.662,1.114 9.041,0.828 15.791,1.554l21.547 1.349c-0.015,-1.623 0.547,-10.725 0.578,-13.424l-0.603 -0.316 -0.07 -0.036c0,-4.476 -0.011,-9.226 -0.011,-13.7 1.678,4.247 3.328,18.944 3.789,24.023 0.735,8.116 1.826,16.186 2.512,24.347 0.348,4.137 0.874,8.269 1.009,12.419l0.653 12.776c0.396,4.199 0.208,8.934 0.274,13.179 0.032,2.062 0.194,4.007 0.186,6.13 -0.007,2.226 -0.172,4.349 -0.196,6.512 -0.051,4.469 -0.054,8.634 -0.319,13.111 -0.68,11.475 -1.257,26.076 -3.267,37.02 -0.966,5.407 -2.177,11.944 -2.754,17.389 -0.258,2.432 -0.827,10.057 -1.468,11.951 -0.68,2.01 -0.163,3.658 -0.568,5.77 -0.342,1.785 -0.742,3.812 -1.164,5.568 -0.463,1.93 -1.435,3.647 0.397,4.966 4.276,1.054 8.552,2.108 13.913,3.017 5.36,0.909 11.804,1.672 18.03,2.048 6.226,0.375 12.232,0.363 21.568,0.476 9.335,0.112 21.999,0.351 32.523,0.382 10.525,0.032 18.909,-0.144 26.242,-0.419 7.333,-0.275 13.615,-0.65 19.058,-1.151 5.443,-0.501 10.048,-1.126 13.829,-1.873 3.78,-0.746 6.736,-1.613 9.693,-2.48 1.832,-1.319 0.86,-3.036 0.397,-4.966 -0.422,-1.756 -0.822,-3.783 -1.164,-5.568 -0.405,-2.112 0.112,-3.76 -0.568,-5.77 -0.641,-1.894 -1.21,-9.519 -1.468,-11.951 -0.577,-5.445 -1.788,-11.982 -2.754,-17.389 -2.01,-10.944 -2.587,-25.545 -3.267,-37.02 -0.265,-4.477 -0.268,-8.642 -0.319,-13.111 -0.024,-2.163 -0.189,-4.286 -0.196,-6.512 -0.008,-2.123 0.154,-4.068 0.186,-6.13 0.066,-4.245 -0.122,-8.98 0.274,-13.179l0.653 -12.776c0.135,-4.15 0.661,-8.282 1.009,-12.419 0.686,-8.161 1.777,-16.231 2.512,-24.347 0.461,-5.079 1.889,-19.043 3.568,-23.29 0,4.474 -0.105,8.584 -0.105,13.06l0 0 -0.416 0.247c-0.004,0.882 0.338,12.091 0.604,13.423l21.579 -1.336c6.75,-0.726 8.129,-0.44 15.791,-1.554 1.364,-0.198 3.945,-0.235 5.07,-0.712 0.084,-0.351 0.145,-1.146 0.186,-2.164l0 -8.783 -0.065 -1.854c0.014,-0.687 0.062,-0.7 -0.083,-0.774 -0.05,-0.025 -0.122,-0.057 -0.225,-0.125 -0.416,-3.138 -0.703,-6.536 -1.288,-9.631 -0.58,-3.06 -1.252,-6.186 -1.752,-9.253 -0.989,-6.057 -1.4,-13.201 -2.969,-19.04 -3.158,-11.748 -10.138,-32.116 -21.401,-39.215 -1.057,-0.665 -1.895,-1.576 -2.919,-2.163z"/>
 </g>
</svg>
