<?xml version="1.0" encoding="UTF-8"?>
<!DOCTYPE svg PUBLIC "-//W3C//DTD SVG 1.1//EN" "http://www.w3.org/Graphics/SVG/1.1/DTD/svg11.dtd">
<!-- Creator: CorelDRAW 2018 (64 Bit Versão de avaliação) -->
<svg xmlns="http://www.w3.org/2000/svg" xml:space="preserve" width="187px" height="148px" version="1.1" shape-rendering="geometricPrecision" text-rendering="geometricPrecision" image-rendering="optimizeQuality" fill-rule="evenodd" clip-rule="evenodd"
viewBox="0 0 186999 147558"
 xmlns:xlink="http://www.w3.org/1999/xlink">
 <defs>
   <linearGradient id="id0" gradientUnits="userSpaceOnUse" x1="4095" y1="141571" x2="4096" y2="88490">
    <stop offset="0" stop-opacity="1" stop-color="#F00808"/>
    <stop offset="1" stop-opacity="0" stop-color="#F00808"/>
   </linearGradient>
   <linearGradient id="id1" gradientUnits="userSpaceOnUse" x1="121246" y1="144677" x2="116868" y2="91777">
    <stop offset="0" stop-opacity="1" stop-color="#F00808"/>
    <stop offset="1" stop-opacity="0" stop-color="#F00808"/>
   </linearGradient>
 </defs>
 <g id="Camada_x0020_1">
  <metadata id="CorelCorpID_0Corel-Layer"/>
  <path id="d1" fill="url(#id0)" d="M735 74954c-66,947 -146,1886 -215,2750l1529 -2596 -1314 -154zm-344 7545l-33 270 151 -257c878,104 1757,208 2646,295l-2827 4814c4,827 1,1650 -20,2452 437,50 876,99 1318,147l-1516 2574 -2 104 95 4527c1349,-2298 2699,-4605 4058,-6927 879,88 1757,176 2646,255 -1399,2405 -2787,4785 -4175,7174 -848,-91 -1686,-190 -2524,-288l91 4347 0 81c809,-1379 1619,-2760 2433,-4140 879,88 1757,175 2635,263 -1398,2388 -2787,4777 -4175,7142l-893 -98 7 1606 886 -1508c879,103 1757,199 2646,286 -1169,1997 -2331,3977 -3492,5959l14 1245c646,72 1292,147 1938,217l-1896 3228c16,1377 32,2758 46,4147l321 38 -316 535c14,1564 25,3141 29,4739l2923 -4988c878,88 1756,175 2646,263 -1399,2397 -2788,4777 -4176,7158 -419,-45 -836,-92 -1252,-139 35,332 63,699 61,1197 -1,309 -9,647 -16,993l1207 -2051c879,95 1757,183 2646,278 -1226,2095 -2444,4177 -3661,6257 23,316 47,633 75,942l2046 222 -1555 2649c305,972 759,1812 1325,2542 956,-1636 1914,-3276 2877,-4920 878,88 1757,167 2635,247 -1247,2143 -2485,4273 -3722,6397 499,367 1034,693 1595,984l598 55 -109 188c726,342 1487,631 2262,880l482 -829c879,72 1757,143 2646,207l-735 1273c817,188 1639,351 2465,496l906 -1578c878,64 1756,120 2646,175l-1030 1800c845,120 1694,231 2545,340l1131 -1988c878,47 1757,95 2635,143l-1239 2175 56 8c611,83 1486,150 2543,202l1286 -2273c879,31 1757,63 2636,87l-1280 2278c844,21 1741,35 2669,44l1257 -2242c878,24 1757,48 2635,63 -409,729 -817,1459 -1225,2188 895,-1 1797,-7 2690,-17l1181 -2115c879,8 1757,16 2646,24l-1134 2046c937,-20 1840,-45 2686,-75l1084 -1963c878,0 1757,0 2646,16l-1011 1824c878,-52 1616,-109 2157,-173 201,-24 405,-47 611,-68l878 -1599c879,0 1757,-8 2646,-16l-764 1393c873,-54 1772,-98 2689,-138l711 -1303c878,-8 1757,-24 2646,-48l-678 1242c885,-36 1778,-74 2671,-118l653 -1203c878,-24 1757,-64 2635,-80l-609 1123c917,-66 1827,-145 2719,-242l536 -992c879,-40 1757,-80 2636,-128l-398 740c882,-148 1736,-324 2555,-532l349 -90 140 -261 1062 -67c708,-203 1316,-400 1839,-596 1300,-2459 2600,-4912 3909,-7387l338 -27c60,-301 121,-622 183,-960l-521 987c-878,64 -1756,128 -2635,191 1388,-2619 2776,-5255 4175,-7906l124 -9 55 -329 -179 338c-889,80 -1767,151 -2646,223 1388,-2635 2776,-5271 4176,-7930l78 -7c31,-113 62,-218 92,-318l-170 325c-879,80 -1758,151 -2636,215 1388,-2636 2776,-5271 4175,-7938l294 -27 149 -819 -443 846c-889,87 -1767,167 -2646,239 1388,-2644 2777,-5295 4175,-7970l710 -71c122,-355 241,-716 353,-1085 202,-668 381,-1307 545,-1927l-1608 3083c-878,87 -1756,167 -2635,246 1388,-2651 2777,-5302 4175,-7978 389,-38 777,-79 1165,-120 253,-1194 510,-2407 829,-3718 -666,1283 -1329,2562 -1994,3838 -889,88 -1767,176 -2646,263 1389,-2659 2777,-5326 4176,-8010 530,-57 1061,-118 1593,-180 137,-463 275,-947 417,-1501 366,-1419 758,-2907 1147,-4414 -1056,2041 -2107,4070 -3157,6095 -879,96 -1757,184 -2636,271 1389,-2667 2777,-5326 4176,-8026 700,-76 1401,-157 2102,-243 494,-1972 961,-3938 1333,-5787l207 -1025c-1219,2365 -2431,4713 -3642,7055 -890,104 -1768,199 -2647,295 1388,-2667 2777,-5358 4176,-8058 -879,104 -1757,207 -2636,303 -1399,2691 -2787,5350 -4175,8018 -889,79 -1768,159 -2646,239 1388,-2652 2776,-5303 4175,-7978 -878,87 -1757,167 -2635,247 -1399,2667 -2798,5310 -4186,7946 -879,71 -1757,135 -2635,191 1388,-2620 2776,-5247 4175,-7899 -889,64 -1768,136 -2646,207 -1399,2636 -2787,5263 -4176,7875 -878,55 -1756,103 -2635,159 1388,-2604 2776,-5215 4175,-7851 -889,64 -1767,120 -2646,168 -1399,2627 -2787,5223 -4175,7818 -878,48 -1757,80 -2635,120 1388,-2580 2776,-5175 4175,-7787 -889,48 -1768,95 -2646,135 -1399,2596 -2787,5184 -4176,7755 -889,24 -1767,56 -2646,80 1388,-2564 2787,-5136 4186,-7723 -889,32 -1767,63 -2646,87 -1399,2588 -2787,5144 -4175,7708 -889,16 -1768,31 -2646,47 1388,-2547 2776,-5103 4175,-7675 -878,24 -1757,40 -2635,64 -1399,2563 -2787,5111 -4175,7643 -890,8 -1768,24 -2647,24 1389,-2532 2777,-5072 4176,-7620 -879,8 -1757,16 -2636,24 -1398,2548 -2787,5080 -4175,7612 -889,0 -1768,-8 -2646,-8 1388,-2516 2776,-5040 4175,-7588 -878,0 -1757,8 -2635,8 -1399,2532 -2798,5048 -4186,7556 -879,-8 -1757,-16 -2635,-40 1388,-2492 2776,-5008 4175,-7532 -890,-8 -1768,-16 -2646,-24 -1399,2516 -2788,5009 -4176,7509 -878,-24 -1756,-48 -2635,-72 1388,-2484 2776,-4976 4175,-7484 -889,-16 -1767,-40 -2646,-64 -1399,2508 -2787,4984 -4175,7460 -878,-23 -1757,-63 -2635,-95 1388,-2468 2776,-4944 4175,-7437 -889,-32 -1768,-63 -2646,-87 -1399,2476 -2787,4944 -4175,7396 -890,-40 -1768,-87 -2647,-135 1389,-2452 2788,-4904 4187,-7373 -890,-40 -1768,-87 -2647,-135 -1399,2468 -2787,4904 -4175,7349 -889,-56 -1768,-120 -2646,-183 1388,-2429 2776,-4857 4175,-7318 -878,-47 -1757,-103 -2635,-159 -1399,2437 -2787,4865 -4175,7277 -890,-71 -1768,-143 -2647,-214 1388,-2405 2777,-4825 4176,-7254 -879,-64 -1757,-135 -2636,-207 -1399,2421 -2787,4817 -4175,7214 -889,-88 -1768,-175 -2646,-263 1388,-2381 2776,-4769 4175,-7182 -878,-79 -1757,-159 -2635,-246 -1399,2396 -2798,4769 -4186,7133l-118 -13zm82007 332c-878,88 -1756,175 -2635,263 -1399,2659 -2787,5310 -4175,7946 878,-72 1757,-151 2635,-231 1388,-2651 2776,-5311 4175,-7978zm-4175 7978c-1399,2667 -2787,5303 -4175,7938 878,-72 1757,-135 2646,-207 1388,-2651 2776,-5303 4175,-7978 -889,88 -1767,167 -2646,247zm1106 7492c-878,80 -1756,159 -2635,239 -1399,2643 -2787,5279 -4175,7898 878,-55 1757,-127 2635,-199 1388,-2635 2776,-5279 4175,-7938zm-4175 7938c-1399,2652 -2787,5279 -4175,7899 878,-64 1757,-120 2646,-191 1388,-2628 2776,-5263 4175,-7931 -889,80 -1767,152 -2646,223zm1106 7501c-878,71 -1757,143 -2635,207 -1399,2635 -2787,5255 -4175,7874 878,-56 1757,-119 2635,-183 1388,-2620 2776,-5255 4175,-7898zm-4175 7898c-1399,2643 -2787,5255 -4175,7867 878,-56 1757,-112 2646,-168 1388,-2619 2776,-5247 4175,-7898 -889,72 -1768,143 -2646,199zm1106 7516c-878,56 -1757,120 -2635,183 -1399,2620 -2787,5231 -4175,7835 878,-48 1756,-104 2635,-159 1388,-2612 2776,-5231 4175,-7859zm-4175 7859c-1399,2627 -2787,5231 -4175,7826 878,-47 1756,-87 2646,-143 1388,-2612 2776,-5223 4175,-7859 -889,64 -1768,128 -2646,176zm8101 -53680c-889,71 -1768,143 -2646,215 -1399,2643 -2787,5262 -4175,7882 878,-64 1756,-119 2646,-183 1388,-2635 2776,-5271 4175,-7914zm-4175 7914c-1399,2635 -2787,5255 -4176,7866 879,-55 1757,-111 2647,-175 1388,-2619 2776,-5247 4175,-7898 -889,71 -1768,135 -2646,207zm1106 7500c-879,72 -1757,128 -2635,191 -1399,2636 -2798,5239 -4186,7851 878,-56 1756,-104 2646,-160 1388,-2619 2776,-5246 4175,-7882zm-4175 7882c-1399,2620 -2787,5232 -4176,7835 879,-48 1757,-103 2646,-159 1389,-2604 2777,-5223 4176,-7867 -890,64 -1768,128 -2646,191zm1106 7509c-879,63 -1757,119 -2636,167 -1399,2619 -2787,5223 -4175,7819 879,-48 1757,-96 2635,-144 1389,-2603 2777,-5215 4176,-7842zm-4176 7842c-1399,2620 -2787,5215 -4175,7803 879,-40 1757,-87 2647,-135 1388,-2596 2776,-5199 4175,-7827 -890,56 -1768,112 -2647,159zm1107 7525c-879,47 -1757,103 -2635,143 -1400,2603 -2788,5199 -4176,7779 879,-40 1757,-72 2636,-120 1388,-2595 2776,-5191 4175,-7802zm-4175 7802c-1399,2604 -2788,5191 -4176,7771 879,-47 1757,-72 2646,-111 1388,-2588 2777,-5183 4176,-7795 -890,48 -1768,96 -2646,135zm8101 -53568c-890,63 -1768,127 -2647,183 -1399,2619 -2787,5223 -4175,7818 879,-47 1757,-87 2646,-143 1388,-2611 2777,-5223 4176,-7858zm-4176 7858c-1399,2620 -2787,5215 -4175,7811 878,-48 1757,-88 2635,-136 1388,-2603 2777,-5215 4176,-7842 -879,56 -1757,112 -2636,167zm1106 7516c-889,56 -1767,112 -2646,159 -1399,2604 -2787,5200 -4175,7780 878,-32 1757,-72 2646,-120 1388,-2596 2776,-5199 4175,-7819zm-4175 7819c-1399,2612 -2787,5191 -4175,7779 878,-40 1757,-80 2635,-112 1388,-2595 2776,-5191 4176,-7810 -879,48 -1758,95 -2636,143zm1106 7532c-889,40 -1767,88 -2646,135 -1399,2588 -2787,5168 -4175,7748 878,-32 1757,-72 2646,-104 1388,-2588 2776,-5175 4175,-7779zm-4175 7779c-1399,2596 -2787,5160 -4175,7739 878,-32 1757,-56 2646,-87 1388,-2588 2776,-5168 4175,-7771 -889,40 -1767,79 -2646,119zm1106 7540c-878,32 -1757,72 -2635,112 -1399,2579 -2798,5151 -4186,7715 878,-24 1757,-56 2646,-88 1388,-2564 2776,-5151 4175,-7739zm-4175 7739c-1399,2588 -2787,5152 -4175,7715 878,-23 1757,-47 2646,-79 1388,-2564 2776,-5136 4175,-7731 -889,39 -1768,71 -2646,95zm8101 -53441c-889,48 -1768,96 -2646,135 -1399,2596 -2787,5184 -4175,7763 878,-31 1757,-71 2646,-111 1388,-2588 2776,-5183 4175,-7787zm-4175 7787c-1399,2603 -2787,5183 -4176,7747 879,-24 1757,-56 2636,-95 1388,-2580 2776,-5168 4175,-7780 -878,48 -1757,96 -2635,128zm1106 7540c-889,40 -1768,80 -2646,112 -1399,2587 -2787,5159 -4176,7731 879,-32 1757,-64 2647,-88 1388,-2580 2776,-5159 4175,-7755zm-4175 7755c-1399,2588 -2787,5151 -4175,7715 878,-24 1756,-56 2635,-79 1388,-2572 2776,-5152 4175,-7747 -878,39 -1757,79 -2635,111zm1106 7548c-889,32 -1768,64 -2646,88 -1399,2579 -2787,5135 -4175,7699 878,-24 1756,-48 2646,-72 1388,-2564 2776,-5135 4175,-7715zm-4175 7715c-1399,2580 -2787,5136 -4176,7692 879,-16 1757,-40 2636,-64 1388,-2556 2776,-5128 4175,-7707 -879,23 -1757,55 -2635,79zm1106 7556c-890,32 -1768,48 -2646,72 -1399,2572 -2787,5119 -4176,7675 879,-24 1757,-40 2647,-55 1388,-2556 2776,-5120 4175,-7692zm-4175 7692c-1400,2563 -2788,5119 -4176,7659 879,-8 1757,-24 2636,-48 1388,-2540 2776,-5111 4175,-7675 -878,24 -1757,40 -2635,64zm8101 -53338c-890,40 -1768,72 -2647,103 -1399,2572 -2787,5144 -4175,7700 879,-24 1757,-48 2646,-72 1389,-2572 2777,-5143 4176,-7731zm-4176 7731c-1398,2580 -2787,5143 -4175,7699 879,-24 1757,-48 2635,-71 1389,-2556 2777,-5128 4176,-7716 -879,32 -1757,56 -2636,88zm1106 7548c-889,32 -1767,64 -2646,80 -1398,2571 -2787,5127 -4175,7683 879,-24 1757,-40 2646,-64 1388,-2556 2777,-5119 4175,-7699zm-4175 7699c-1399,2580 -2787,5128 -4175,7676 878,-16 1757,-40 2635,-48 1388,-2556 2777,-5120 4175,-7691 -878,24 -1756,47 -2635,63zm1107 7564c-890,24 -1768,48 -2647,64 -1399,2556 -2787,5112 -4175,7643 878,-7 1757,-15 2646,-32 1388,-2555 2776,-5111 4176,-7675zm-4176 7675c-1399,2564 -2787,5096 -4175,7628 878,0 1757,-8 2635,-16 1388,-2548 2777,-5095 4176,-7667 -879,16 -1757,32 -2636,55zm1106 7565c-889,15 -1767,31 -2646,47 -1399,2540 -2787,5080 -4175,7612 878,0 1757,-8 2646,-16 1388,-2540 2776,-5088 4175,-7643zm-4175 7643c-1399,2540 -2787,5080 -4175,7604 878,0 1757,0 2635,-16 1388,-2524 2776,-5064 4175,-7620 -878,16 -1756,24 -2635,32zm8090 -53242c-878,24 -1756,48 -2635,72 -1399,2555 -2787,5103 -4175,7651 878,-8 1757,-24 2635,-40 1388,-2556 2776,-5111 4175,-7683zm-4175 7683c-1399,2564 -2787,5104 -4175,7644 878,-8 1757,-16 2646,-32 1388,-2548 2776,-5096 4175,-7675 -889,23 -1767,39 -2646,63zm1117 7564c-889,16 -1768,32 -2646,48 -1399,2548 -2787,5088 -4175,7628 878,-8 1756,-16 2635,-24 1388,-2540 2787,-5096 4186,-7652zm-4186 7652c-1399,2548 -2787,5087 -4175,7611 878,0 1756,-16 2646,-16 1388,-2531 2776,-5071 4175,-7635 -889,16 -1768,32 -2646,40zm1117 7572c-889,8 -1768,16 -2646,23 -1399,2548 -2787,5080 -4175,7604 878,0 1757,-8 2646,-8 1388,-2532 2776,-5072 4175,-7619zm-4175 7619c-1399,2540 -2787,5056 -4175,7580 878,0 1756,8 2635,8 1388,-2524 2776,-5064 4175,-7612 -878,8 -1757,16 -2635,24zm1106 7572c-889,16 -1768,16 -2646,16 -1399,2524 -2787,5048 -4175,7572 878,0 1756,0 2646,0 1388,-2508 2776,-5040 4175,-7588zm-4175 7588c-1399,2532 -2788,5056 -4176,7572 879,8 1757,8 2636,8 1388,-2524 2776,-5032 4175,-7572 -879,8 -1757,8 -2635,-8zm8090 -53131c-879,16 -1757,24 -2635,32 -1399,2548 -2788,5080 -4176,7612 879,-8 1757,-8 2636,-16 1388,-2532 2776,-5072 4175,-7628zm-4175 7628c-1399,2548 -2788,5080 -4176,7604 879,0 1757,0 2647,-8 1388,-2532 2776,-5064 4175,-7620 -890,8 -1768,16 -2646,24zm1106 7580c-879,8 -1757,16 -2635,16 -1400,2540 -2788,5064 -4176,7580 879,8 1757,8 2636,8 1388,-2532 2776,-5056 4175,-7604zm-4175 7604c-1399,2532 -2787,5048 -4176,7571 879,0 1757,0 2646,8 1389,-2524 2777,-5047 4176,-7587 -890,0 -1768,8 -2646,8zm1106 7579c-879,0 -1757,0 -2636,0 -1399,2532 -2787,5048 -4175,7556 879,8 1757,16 2635,24 1389,-2524 2777,-5040 4176,-7580zm-4176 7580c-1399,2524 -2787,5032 -4175,7556 879,8 1757,16 2646,24 1388,-2524 2776,-5048 4176,-7572 -890,-8 -1768,-8 -2647,-8zm1118 7580c-890,0 -1768,0 -2647,0 -1399,2516 -2787,5024 -4175,7516 878,24 1757,40 2635,48 1388,-2508 2788,-5032 4187,-7564zm-4187 7564c-1399,2516 -2787,5008 -4175,7508 878,24 1757,40 2646,56 1388,-2508 2777,-5024 4176,-7548 -890,0 -1768,-8 -2647,-16zm8101 -53059c-878,8 -1756,8 -2635,16 -1399,2532 -2787,5048 -4175,7556 878,8 1757,16 2635,24 1388,-2524 2777,-5056 4175,-7596zm-4175 7596c-1399,2524 -2787,5032 -4175,7548 878,8 1757,16 2646,24 1388,-2524 2776,-5040 4175,-7580 -889,0 -1767,8 -2646,8zm1106 7580c-878,0 -1757,-8 -2635,-8 -1399,2516 -2787,5032 -4175,7540 878,16 1757,24 2635,32 1388,-2516 2776,-5040 4175,-7564zm-4175 7564c-1399,2516 -2787,5024 -4175,7516 878,24 1757,40 2646,48 1388,-2508 2776,-5024 4175,-7556 -889,0 -1768,0 -2646,-8zm1106 7587c-878,-8 -1757,-15 -2635,-23 -1399,2508 -2787,5008 -4175,7508 878,16 1756,32 2635,47 1388,-2499 2776,-5007 4175,-7532zm-4175 7532c-1399,2509 -2787,5001 -4175,7501 878,8 1757,40 2646,56 1388,-2501 2776,-5001 4175,-7525 -889,-7 -1767,-15 -2646,-32zm1106 7612c-878,-16 -1757,-40 -2635,-55 -1399,2508 -2787,4992 -4175,7484 878,16 1757,40 2635,63 1388,-2491 2776,-4999 4175,-7492zm-4175 7492c-1399,2501 -2787,4977 -4175,7461 878,32 1757,56 2646,80 1388,-2485 2776,-4977 4175,-7493 -889,-8 -1768,-23 -2646,-48zm8101 -52955c-889,-8 -1768,-16 -2646,-24 -1399,2516 -2787,5016 -4175,7516 878,16 1756,32 2646,48 1388,-2508 2776,-5016 4175,-7540zm-4175 7540c-1399,2508 -2787,5008 -4176,7492 879,24 1757,40 2646,56 1389,-2492 2777,-5000 4176,-7524 -889,-8 -1768,-16 -2646,-24zm1106 7596c-878,-8 -1757,-24 -2636,-48 -1398,2508 -2787,5000 -4175,7493 879,23 1757,47 2636,71 1388,-2500 2776,-5008 4175,-7516zm-4175 7516c-1399,2492 -2788,4984 -4176,7468 879,24 1757,48 2647,72 1388,-2492 2776,-4984 4175,-7492 -889,-24 -1768,-32 -2646,-48zm1106 7596c-879,-16 -1757,-32 -2635,-56 -1399,2492 -2788,4976 -4176,7461 879,23 1757,55 2636,79 1388,-2492 2776,-4976 4175,-7484zm-4175 7484c-1399,2492 -2788,4969 -4176,7453 879,32 1757,47 2646,87 1389,-2484 2777,-4976 4176,-7468 -890,-24 -1768,-48 -2646,-72zm1106 7620c-879,-24 -1757,-56 -2636,-80 -1399,2484 -2787,4953 -4175,7429 879,32 1757,71 2635,103 1389,-2484 2777,-4960 4176,-7452zm-4176 7452c-1399,2476 -2787,4937 -4175,7413 879,32 1757,72 2646,112 1388,-2477 2777,-4953 4176,-7437 -890,-32 -1768,-64 -2647,-88zm8102 -52868c-890,-16 -1768,-31 -2647,-47 -1399,2492 -2787,4984 -4175,7460 879,32 1757,56 2646,80 1388,-2493 2776,-4985 4176,-7493zm-4176 7493c-1399,2492 -2787,4968 -4175,7452 878,24 1757,56 2635,88 1389,-2493 2777,-4977 4176,-7477 -879,-23 -1757,-40 -2636,-63zm1106 7603c-889,-23 -1767,-39 -2646,-63 -1399,2484 -2787,4968 -4175,7436 879,40 1757,72 2646,96 1388,-2476 2777,-4969 4175,-7469zm-4175 7469c-1399,2484 -2787,4952 -4175,7421 878,39 1757,71 2635,111 1388,-2476 2787,-4961 4186,-7452 -889,-25 -1767,-48 -2646,-80zm1106 7619c-889,-31 -1767,-55 -2646,-87 -1399,2476 -2787,4936 -4175,7397 878,47 1757,79 2646,119 1388,-2468 2776,-4944 4175,-7429zm-4175 7429c-1399,2468 -2787,4929 -4175,7389 878,48 1757,95 2646,135 1388,-2476 2776,-4936 4175,-7420 -889,-32 -1768,-64 -2646,-104zm1106 7636c-878,-40 -1756,-80 -2635,-112 -1399,2460 -2798,4913 -4186,7365 878,48 1757,96 2646,135 1388,-2452 2776,-4920 4175,-7388zm-4175 7388c-1399,2461 -2787,4913 -4175,7349 878,56 1757,104 2646,152 1388,-2453 2776,-4905 4175,-7373 -889,-40 -1767,-80 -2646,-128zm8101 -52756c-889,-24 -1768,-56 -2646,-88 -1399,2485 -2787,4953 -4175,7413 878,40 1757,80 2646,111 1388,-2468 2776,-4944 4175,-7436zm-4175 7436c-1399,2477 -2787,4945 -4175,7397 878,40 1756,88 2635,120 1388,-2461 2776,-4937 4175,-7421 -878,-32 -1757,-56 -2635,-96zm1106 7628c-889,-32 -1768,-72 -2646,-111 -1399,2476 -2787,4936 -4175,7388 878,40 1756,88 2646,136 1388,-2460 2776,-4937 4175,-7413zm-4175 7413c-1399,2460 -2787,4912 -4176,7349 879,56 1757,103 2636,151 1388,-2452 2776,-4913 4175,-7389 -879,-47 -1757,-72 -2635,-111zm1106 7628c-889,-40 -1768,-80 -2646,-128 -1399,2460 -2787,4897 -4176,7341 879,48 1757,104 2647,159 1388,-2452 2776,-4904 4175,-7372zm-4175 7372c-1399,2445 -2787,4889 -4176,7325 879,64 1757,112 2636,167 1388,-2444 2776,-4896 4175,-7356 -878,-48 -1757,-88 -2635,-136zm1106 7644c-889,-48 -1768,-96 -2646,-152 -1399,2445 -2787,4881 -4175,7302 878,64 1756,127 2646,183 1388,-2436 2776,-4873 4175,-7333zm-4175 7333c-1399,2436 -2788,4857 -4176,7285 879,72 1757,128 2636,191 1388,-2428 2776,-4865 4175,-7309 -879,-56 -1757,-111 -2635,-167zm8101 -52637c-890,-40 -1768,-80 -2646,-128 -1399,2461 -2788,4913 -4176,7349 879,56 1757,112 2646,152 1388,-2445 2777,-4905 4176,-7373zm-4176 7373c-1399,2460 -2787,4896 -4175,7341 878,47 1757,103 2635,159 1388,-2445 2777,-4897 4176,-7365 -879,-40 -1757,-88 -2636,-135zm1107 7643c-890,-48 -1768,-95 -2647,-143 -1399,2444 -2787,4889 -4175,7317 878,64 1757,120 2646,175 1389,-2436 2777,-4888 4176,-7349zm-4176 7349c-1399,2445 -2787,4865 -4175,7301 879,56 1757,120 2635,183 1389,-2436 2777,-4880 4176,-7325 -879,-55 -1757,-103 -2636,-159zm1106 7644c-889,-48 -1767,-104 -2646,-160 -1399,2429 -2787,4857 -4175,7278 879,64 1757,127 2646,191 1388,-2420 2776,-4857 4175,-7309zm-4175 7309c-1399,2436 -2787,4849 -4175,7269 878,72 1757,144 2635,207 1388,-2428 2776,-4857 4175,-7293 -878,-56 -1756,-119 -2635,-183zm1106 7667c-889,-63 -1767,-127 -2646,-191 -1399,2429 -2787,4841 -4175,7246 878,79 1757,143 2646,207 1388,-2405 2776,-4825 4175,-7262zm-4175 7262c-1399,2428 -2787,4833 -4175,7229 878,80 1757,160 2635,239 1388,-2412 2776,-4825 4176,-7261 -879,-56 -1758,-128 -2636,-207zm8090 -52510c-878,-56 -1757,-111 -2635,-159 -1399,2436 -2787,4864 -4175,7285 878,64 1757,127 2635,191 1388,-2428 2776,-4873 4175,-7317zm-4175 7317c-1399,2429 -2787,4857 -4175,7270 878,71 1757,135 2646,198 1388,-2420 2776,-4856 4175,-7301 -889,-55 -1767,-103 -2646,-167zm1117 7660c-889,-64 -1768,-128 -2646,-192 -1399,2429 -2787,4849 -4175,7262 878,72 1757,135 2646,215 1388,-2421 2776,-4857 4175,-7285zm-4175 7285c-1399,2420 -2798,4833 -4186,7229 878,80 1757,160 2646,231 1388,-2420 2776,-4833 4175,-7269 -878,-64 -1757,-119 -2635,-191zm1106 7667c-889,-71 -1768,-143 -2646,-207 -1399,2413 -2787,4809 -4175,7206 878,80 1756,167 2646,247 1388,-2413 2776,-4825 4175,-7246zm-4175 7246c-1399,2404 -2787,4801 -4176,7189 879,88 1757,176 2636,255 1388,-2404 2776,-4809 4175,-7229 -878,-72 -1757,-144 -2635,-215zm1106 7675c-889,-72 -1768,-151 -2646,-231 -1399,2405 -2787,4786 -4176,7166 879,88 1757,183 2647,271 1388,-2397 2776,-4793 4175,-7206zm3915 -45192c-878,-64 -1757,-128 -2635,-200 -1399,2421 -2787,4826 -4176,7222 879,80 1757,159 2636,239 1388,-2412 2776,-4825 4175,-7261zm-4175 7261c-1399,2405 -2787,4801 -4176,7198 879,87 1757,167 2646,247 1389,-2405 2777,-4818 4176,-7238 -889,-71 -1768,-135 -2646,-207zm1106 7668c-879,-72 -1757,-144 -2636,-223 -1398,2404 -2787,4801 -4175,7181 879,96 1757,183 2635,263 1389,-2396 2777,-4801 4176,-7221zm-4176 7221c-1398,2397 -2787,4777 -4175,7158 879,88 1757,183 2646,271 1389,-2389 2777,-4786 4176,-7190 -890,-80 -1768,-159 -2647,-239zm1107 7683c-879,-79 -1757,-159 -2636,-254 -1399,2396 -2787,4777 -4175,7142 879,103 1757,199 2636,286 1388,-2380 2776,-4769 4175,-7174zm856 -30247c-878,-80 -1756,-168 -2635,-247 -1399,2397 -2787,4777 -4175,7150 878,103 1757,191 2635,278 1388,-2380 2776,-4777 4175,-7181z"/>
  <path id="d1_0" fill="url(#id1)" d="M100296 78211c36,-91 72,-174 119,-266 887,63 1773,125 2671,187 -802,1624 -1604,3240 -2395,4856 -131,-1587 -263,-3182 -395,-4777zm707 8545l201 774c314,-650 630,-1295 953,-1947 887,62 1773,125 2670,178 -878,1787 -1757,3563 -2631,5338 128,428 256,868 389,1360 62,229 121,455 179,677 377,27 755,55 1135,84 -249,500 -496,1001 -743,1502 319,1355 580,2614 847,3868 853,-1730 1706,-3466 2564,-5215 886,46 1771,93 2656,131 -1201,2457 -2391,4904 -3582,7344l-1158 -82c123,531 254,1070 397,1623l761 -1541c885,46 1770,93 2667,138 -801,1632 -1597,3264 -2392,4889 300,861 613,1696 872,2560 201,11 403,23 605,33l-381 775c79,318 149,642 206,975 145,815 332,1890 546,3058 759,-1554 1520,-3109 2284,-4668 885,38 1770,77 2665,115 -1201,2456 -2390,4911 -3580,7359l-845 -44c84,420 170,837 256,1243l589 -1199c885,46 1770,85 2654,123l-2310 4740c196,658 408,1599 628,2711l768 39 -548 1117c235,1267 475,2679 714,4111l2488 -5112c884,38 1767,61 2663,91 -1199,2480 -2388,4943 -3578,7399 -397,-17 -792,-34 -1187,-52 105,631 208,1253 310,1853l877 -1801c885,38 1770,77 2654,116 -935,1920 -1863,3835 -2791,5744 34,165 68,321 101,468 98,435 179,837 251,1210 506,24 1014,46 1525,67l-1045 2148c280,921 704,1595 1650,2192 685,-1409 1372,-2820 2058,-4240 884,22 1767,45 2650,68 -831,1725 -1657,3443 -2481,5160 663,225 1444,452 2364,693 923,-1929 1847,-3862 2777,-5802 882,15 1764,22 2647,29 -1008,2116 -2009,4221 -3009,6319 808,149 1642,275 2494,382 1054,-2226 2108,-4460 3169,-6713 882,6 1763,6 2643,-11 -1099,2343 -2191,4665 -3282,6985 847,72 1703,130 2563,179 1120,-2399 2241,-4792 3371,-7200 880,-17 1760,-34 2640,-51 -1153,2468 -2297,4927 -3441,7379 866,38 1730,72 2582,106 1166,-2509 2332,-5035 3508,-7568 879,-25 1758,-58 2647,-92 -1190,2576 -2372,5134 -3552,7692l-1091 31c354,16 705,32 1054,49l37 -80c879,-24 1758,-49 2638,-74l-143 307c809,60 1591,132 2338,220l150 17 301 -651c878,-41 1756,-82 2633,-130l-441 964c763,40 1617,75 2533,106l552 -1209c877,-49 1755,-97 2632,-154l-653 1431c830,18 1686,32 2551,42l744 -1636c876,-65 1751,-129 2639,-194l-834 1847c859,2 1711,0 2540,-7l921 -2050c875,-72 1750,-145 2638,-202 -334,738 -667,1476 -999,2215 923,-20 1788,-46 2567,-80l1057 -2369c875,-72 1750,-152 2636,-234l-1081 2425c136,-14 263,-30 380,-45 763,-104 1524,-201 2284,-299l1039 -2346c875,-80 1749,-168 2633,-266l-999 2257c901,-127 1799,-263 2691,-420l939 -2134c873,-96 1746,-209 2620,-297l-823 1870c955,-227 1919,-498 2853,-835l598 -1364c872,-113 1744,-225 2616,-345l-82 188c109,-72 217,-145 324,-221l-242 33c1169,-2701 2338,-5410 3515,-8144 190,-26 380,-53 570,-81 36,-501 68,-1003 99,-1478l-669 1559c-871,128 -1742,256 -2613,376 1168,-2709 2336,-5426 3514,-8153l17 -2 3 -43 -20 45c-881,130 -1752,257 -2623,386 898,-2089 1796,-4178 2697,-6282l18 -1778c-605,94 -1209,186 -1814,275l1861 -4344 43 -3595 -1014 156 1036 -2422c16,-1784 27,-3580 28,-5403l-164 25 164 -385c0,-547 0,-1096 -2,-1649l93 -4279c-962,2247 -1919,4487 -2877,6721 -882,129 -1753,249 -2624,378 1168,-2718 2348,-5428 3524,-8169 669,-105 1338,-204 2007,-311l68 -3093 -81 -1258c-666,1558 -1329,3111 -1994,4662 -881,136 -1751,264 -2622,392 1168,-2717 2335,-5442 3512,-8184l965 -157c-4,-706 1,-1419 9,-2131l-974 2288c-881,137 -1752,265 -2622,401l3420 -7987 -2 -91 -1 -106c-838,138 -1677,268 -2517,392 784,-1830 1568,-3664 2354,-5506 -65,-825 -125,-1674 -166,-2499l-1298 213c-1177,2742 -2344,5475 -3512,8193 -871,127 -1742,248 -2613,376 1168,-2710 2337,-5427 3513,-8169 -881,137 -1751,265 -2623,385 -1177,2734 -2347,5435 -3516,8137 -871,120 -1744,224 -2616,336 1170,-2685 2340,-5386 3518,-8105 -882,122 -1754,241 -2626,354 -1180,2702 -2350,5395 -3521,8073 -885,97 -1757,201 -2631,297 1172,-2669 2354,-5348 3535,-8042 -884,105 -1756,209 -2630,306 -1181,2694 -2353,5356 -3525,8025 -885,89 -1759,178 -2633,266 1173,-2654 2345,-5315 3527,-7994 -873,96 -1747,185 -2620,281 -1183,2671 -2357,5324 -3531,7962 -886,81 -1760,170 -2635,242 1174,-2638 2348,-5283 3532,-7938 -875,81 -1749,161 -2624,241 -1184,2655 -2359,5293 -3533,7930 -886,74 -1763,139 -2638,211 1176,-2622 2351,-5252 3535,-7907 -875,73 -1750,153 -2625,226 -1186,2639 -2373,5261 -3549,7875 -876,65 -1752,129 -2630,178 1178,-2598 2354,-5220 3540,-7851 -887,66 -1763,130 -2639,195 -1187,2623 -2365,5221 -3542,7827 -877,48 -1754,97 -2632,146 1179,-2590 2356,-5189 3544,-7804 -888,58 -1765,106 -2643,155 -1187,2615 -2366,5197 -3545,7780 -878,48 -1756,81 -2634,122 1179,-2574 2358,-5156 3547,-7756 -889,42 -1767,83 -2644,131 -1190,2583 -2370,5158 -3551,7716 -890,34 -1769,59 -2649,84 1182,-2559 2374,-5118 3564,-7693 -889,33 -1769,58 -2648,83 -1191,2575 -2373,5118 -3555,7668 -891,18 -1771,27 -2652,36 1183,-2534 2366,-5069 3557,-7637 -879,26 -1759,42 -2639,59 -1193,2544 -2377,5078 -3561,7597 -892,2 -1773,3 -2655,4 1185,-2511 2369,-5038 3563,-7573 -881,9 -1762,10 -2643,11 -1195,2528 -2381,5031 -3566,7534 -894,-14 -1777,-29 -2659,-44 1187,-2487 2373,-4982 3568,-7502 -881,-6 -1764,-13 -2646,-28 -1197,2504 -2395,4983 -3584,7455 -883,-23 -1767,-54 -2651,-92 1188,-2464 2377,-4935 3575,-7415 -895,-30 -1779,-60 -2663,-91 -1198,2480 -2388,4935 -3578,7383 -885,-47 -1770,-93 -2656,-140 1191,-2439 2382,-4879 3581,-7351 -895,-38 -1780,-76 -2666,-131 -1200,2456 -2392,4888 -3585,7304 -427,-29 -843,-58 -1258,-88l104 1261zm82914 17672c-1178,2726 -2346,5444 -3515,8153 872,-120 1743,-248 2624,-377 1169,-2709 2336,-5434 3513,-8184 -881,136 -1752,273 -2622,408zm1722 7392c-870,136 -1741,264 -2613,384 -1178,2726 -2346,5435 -3515,8136 871,-120 1743,-240 2614,-360 1169,-2709 2336,-5426 3514,-8160zm-3514 8160c-1178,2726 -2347,5428 -3517,8121 872,-112 1743,-232 2626,-353 1169,-2701 2337,-5411 3515,-8145 -882,129 -1753,257 -2624,377zm1723 7408c-871,119 -1742,247 -2614,360 -1180,2710 -2349,5411 -3520,8096 872,-112 1745,-216 2617,-336 1169,-2701 2338,-5403 3517,-8120zm-3517 8120c-1180,2710 -2350,5403 -3520,8089 871,-120 1745,-217 2628,-329 1169,-2694 2339,-5395 3518,-8113 -883,121 -1754,241 -2626,353zm3654 -54054c-881,137 -1751,272 -2622,401 -1178,2725 -2347,5435 -3516,8136 872,-120 1744,-232 2626,-361 1167,-2717 2335,-5434 3512,-8176zm-3512 8176c-1179,2726 -2348,5427 -3517,8129 871,-120 1743,-233 2615,-353 1168,-2709 2337,-5426 3514,-8160 -871,128 -1742,256 -2612,384zm1722 7399c-882,129 -1753,257 -2624,377 -1180,2710 -2349,5411 -3519,8097 872,-104 1745,-216 2627,-337 1169,-2702 2338,-5411 3516,-8137zm-3516 8137c-1179,2718 -2350,5403 -3520,8097 873,-113 1745,-225 2618,-329 1169,-2701 2338,-5402 3516,-8128 -871,120 -1743,240 -2614,360zm1723 7415c-882,113 -1754,233 -2625,353 -1181,2694 -2352,5380 -3523,8065 874,-104 1745,-216 2629,-321 1170,-2694 2340,-5387 3519,-8097zm-3519 8097c-1180,2702 -2352,5372 -3522,8057 872,-104 1746,-200 2629,-306 1170,-2693 2341,-5378 3521,-8089 -884,113 -1756,226 -2628,338zm1725 7423c-873,104 -1745,216 -2618,328 -1181,2687 -2363,5365 -3535,8035 873,-97 1746,-201 2630,-306 1172,-2670 2342,-5363 3523,-8057zm-3523 8057c-1181,2694 -2353,5364 -3525,8033 874,-96 1747,-192 2631,-297 1172,-2670 2343,-5347 3523,-8050 -883,114 -1756,218 -2629,314zm3665 -53927c-883,121 -1754,241 -2626,353 -1180,2702 -2350,5395 -3521,8081 873,-104 1745,-217 2628,-330 1170,-2693 2340,-5394 3519,-8104zm-3519 8104c-1179,2711 -2350,5396 -3522,8065 874,-96 1746,-200 2619,-312 1170,-2686 2340,-5379 3519,-8097 -871,120 -1743,240 -2616,344zm1725 7424c-883,112 -1756,225 -2628,329 -1181,2694 -2352,5372 -3524,8049 873,-104 1746,-208 2630,-305 1171,-2686 2341,-5371 3522,-8073zm-3522 8073c-1180,2694 -2352,5363 -3524,8033 873,-97 1746,-200 2619,-297 1172,-2678 2342,-5363 3523,-8065 -873,112 -1745,224 -2618,329zm1725 7431c-883,105 -1756,209 -2630,305 -1181,2687 -2354,5348 -3525,8018 873,-97 1746,-193 2631,-290 1172,-2670 2343,-5347 3524,-8033zm-3524 8033c-1182,2687 -2354,5348 -3527,8009 874,-88 1748,-184 2622,-280 1172,-2662 2343,-5340 3524,-8026 -873,96 -1746,201 -2619,297zm1726 7439c-884,105 -1758,193 -2631,290 -1183,2678 -2356,5332 -3529,7994 874,-97 1748,-185 2633,-274 1173,-2662 2344,-5332 3527,-8010zm-3527 8010c-1183,2670 -2355,5331 -3529,7977 875,-80 1749,-168 2622,-265 1174,-2645 2345,-5323 3528,-7993 -873,96 -1748,184 -2621,281zm3674 -53825c-884,113 -1756,218 -2629,322 -1182,2678 -2353,5355 -3526,8017 874,-96 1747,-192 2631,-289 1171,-2678 2343,-5355 3524,-8050zm-3524 8050c-1181,2686 -2353,5355 -3525,8017 873,-97 1746,-192 2620,-289 1172,-2661 2344,-5339 3524,-8033 -873,104 -1746,200 -2619,305zm1725 7430c-883,106 -1756,210 -2630,298 -1182,2679 -2355,5340 -3527,8002 873,-96 1747,-185 2632,-282 1172,-2662 2344,-5331 3525,-8018zm-3525 8018c-1182,2686 -2355,5340 -3529,7994 875,-88 1748,-185 2623,-265 1172,-2662 2345,-5332 3526,-8010 -873,96 -1747,193 -2620,281zm1726 7447c-885,97 -1758,193 -2632,282 -1183,2662 -2356,5324 -3531,7962 875,-81 1750,-161 2635,-251 1172,-2661 2345,-5323 3528,-7993zm-3528 7993c-1183,2671 -2357,5309 -3532,7947 876,-73 1750,-153 2625,-234 1173,-2653 2347,-5307 3529,-7985 -875,88 -1749,176 -2622,272zm1726 7447c-885,89 -1759,178 -2633,266 -1185,2647 -2358,5293 -3533,7931 875,-73 1750,-153 2636,-235 1174,-2645 2347,-5299 3530,-7962zm-3530 7962c-1185,2647 -2359,5293 -3534,7923 876,-73 1751,-145 2625,-234 1175,-2629 2349,-5275 3532,-7937 -873,88 -1748,168 -2623,248zm3670 -53728c-873,97 -1746,193 -2620,289 -1184,2663 -2357,5316 -3530,7970 875,-80 1749,-169 2623,-257 1173,-2662 2345,-5323 3527,-8002zm-3527 8002c-1183,2670 -2357,5316 -3530,7962 875,-81 1749,-161 2634,-250 1173,-2654 2347,-5308 3528,-7994 -884,97 -1758,186 -2632,282zm1738 7446c-886,89 -1760,177 -2634,266 -1184,2654 -2358,5300 -3532,7946 875,-81 1750,-161 2625,-241 1173,-2646 2357,-5308 3541,-7971zm-3541 7971c-1184,2654 -2358,5300 -3533,7930 875,-73 1749,-161 2635,-234 1175,-2638 2349,-5284 3532,-7954 -886,89 -1759,177 -2634,258zm1737 7454c-885,81 -1760,161 -2635,242 -1184,2654 -2358,5292 -3534,7922 876,-72 1751,-153 2637,-226 1175,-2638 2348,-5284 3532,-7938zm-3532 7938c-1185,2646 -2361,5268 -3536,7898 876,-72 1752,-137 2627,-209 1176,-2630 2349,-5276 3533,-7930 -874,80 -1749,160 -2624,241zm1727 7455c-885,89 -1760,161 -2636,234 -1186,2631 -2361,5260 -3536,7890 875,-72 1751,-145 2637,-218 1176,-2614 2351,-5252 3535,-7906zm-3535 7906c-1185,2639 -2361,5269 -3536,7891 876,-65 1751,-137 2627,-210 1175,-2630 2351,-5244 3536,-7890 -875,80 -1750,153 -2627,209zm3680 -53617c-875,88 -1749,169 -2624,249 -1184,2655 -2359,5293 -3533,7931 875,-81 1750,-154 2625,-234 1174,-2638 2348,-5283 3532,-7946zm-3532 7946c-1184,2655 -2359,5292 -3534,7922 876,-72 1751,-144 2637,-226 1174,-2638 2349,-5275 3532,-7938 -886,81 -1760,162 -2635,242zm1728 7463c-875,80 -1750,161 -2625,233 -1185,2647 -2360,5276 -3536,7899 876,-65 1752,-137 2627,-210 1174,-2638 2350,-5268 3534,-7922zm-3534 7922c-1186,2639 -2361,5261 -3537,7891 876,-73 1751,-145 2638,-211 1176,-2630 2351,-5260 3535,-7906 -886,73 -1761,154 -2636,226zm1728 7463c-876,72 -1751,145 -2627,217 -1185,2639 -2361,5261 -3538,7875 877,-65 1753,-129 2629,-194 1175,-2630 2351,-5251 3536,-7898zm-3536 7898c-1186,2631 -2363,5245 -3538,7875 876,-64 1752,-129 2639,-195 1175,-2629 2350,-5259 3536,-7890 -886,65 -1762,138 -2637,210zm1738 7462c-886,74 -1761,146 -2637,218 -1186,2624 -2363,5238 -3541,7836 878,-49 1754,-106 2630,-170 1177,-2614 2363,-5245 3548,-7884zm-3548 7884c-1186,2622 -2364,5221 -3541,7827 877,-49 1754,-106 2642,-163 1176,-2614 2352,-5236 3538,-7867 -886,74 -1762,138 -2639,203zm3697 -53547c-875,81 -1750,153 -2625,233 -1186,2639 -2361,5261 -3538,7875 876,-65 1752,-129 2629,-193 1175,-2630 2349,-5268 3534,-7915zm-3534 7915c-1187,2631 -2363,5244 -3539,7866 876,-64 1752,-129 2639,-194 1175,-2630 2351,-5252 3536,-7898 -886,73 -1761,153 -2636,226zm1727 7462c-875,73 -1751,137 -2627,210 -1187,2623 -2362,5245 -3539,7859 877,-57 1753,-121 2629,-186 1176,-2622 2351,-5252 3537,-7883zm-3537 7883c-1187,2623 -2363,5237 -3541,7835 878,-48 1754,-105 2641,-171 1177,-2614 2352,-5236 3538,-7874 -886,73 -1762,145 -2638,210zm1728 7471c-876,64 -1752,129 -2628,193 -1187,2615 -2365,5221 -3541,7827 876,-56 1753,-113 2630,-170 1177,-2606 2353,-5219 3539,-7850zm-3539 7850c-1188,2615 -2366,5213 -3542,7820 876,-65 1753,-106 2641,-163 1177,-2606 2355,-5212 3540,-7843 -886,66 -1762,130 -2639,186zm1730 7495c-877,57 -1754,105 -2631,162 -1187,2615 -2366,5205 -3544,7803 877,-56 1755,-105 2632,-154 1178,-2598 2354,-5212 3543,-7811zm-3543 7811c-1188,2607 -2367,5189 -3546,7780 878,-41 1756,-90 2644,-139 1179,-2590 2357,-5189 3543,-7811 -887,65 -1763,122 -2641,170zm3705 -53443c-887,65 -1763,130 -2639,194 -1187,2623 -2364,5229 -3541,7835 877,-56 1753,-113 2641,-170 1177,-2614 2353,-5228 3539,-7859zm-3539 7859c-1187,2615 -2364,5221 -3543,7811 878,-49 1754,-105 2642,-163 1178,-2598 2354,-5212 3540,-7843 -887,66 -1763,130 -2639,195zm1729 7478c-876,65 -1753,122 -2630,170 -1187,2615 -2366,5213 -3543,7811 877,-48 1754,-97 2632,-146 1177,-2606 2354,-5220 3541,-7835zm-3541 7835c-1189,2599 -2367,5197 -3545,7788 878,-49 1755,-98 2643,-147 1178,-2599 2356,-5196 3543,-7811 -888,49 -1764,114 -2641,170zm1729 7479c-877,57 -1753,113 -2631,162 -1188,2599 -2367,5189 -3546,7779 878,-49 1756,-89 2634,-138 1177,-2598 2356,-5188 3543,-7803zm-3543 7803c-1189,2599 -2368,5182 -3547,7772 878,-41 1755,-98 2644,-131 1179,-2591 2357,-5189 3546,-7788 -889,50 -1766,99 -2643,147zm1731 7503c-878,48 -1756,89 -2634,138 -1189,2591 -2368,5165 -3548,7747 878,-40 1757,-73 2635,-114 1179,-2590 2358,-5172 3547,-7771zm-3547 7771c-1190,2583 -2370,5150 -3549,7732 878,-41 1757,-74 2646,-107 1179,-2582 2358,-5165 3547,-7756 -888,42 -1767,82 -2644,131zm3712 -53356c-887,58 -1764,114 -2641,171 -1188,2599 -2366,5197 -3545,7779 878,-41 1755,-89 2643,-139 1178,-2598 2356,-5196 3543,-7811zm-3543 7811c-1188,2599 -2368,5182 -3546,7772 878,-49 1755,-89 2634,-131 1178,-2598 2356,-5188 3544,-7795 -877,49 -1754,106 -2632,154zm1730 7487c-888,50 -1765,106 -2642,154 -1190,2592 -2368,5182 -3548,7756 879,-33 1757,-73 2645,-123 1179,-2582 2357,-5180 3545,-7787zm-3545 7787c-1189,2591 -2369,5166 -3549,7740 879,-33 1757,-74 2636,-106 1179,-2583 2368,-5174 3557,-7773 -889,50 -1766,99 -2644,139zm1731 7503c-889,41 -1766,90 -2644,131 -1190,2583 -2371,5149 -3551,7716 879,-25 1757,-66 2647,-100 1180,-2574 2359,-5156 3548,-7747zm-3548 7747c-1191,2576 -2371,5142 -3552,7708 880,-25 1759,-49 2649,-83 1179,-2582 2359,-5149 3548,-7740 -888,42 -1766,82 -2645,115zm1732 7519c-878,33 -1757,65 -2635,106 -1191,2567 -2383,5127 -3565,7685 880,-25 1759,-50 2649,-83 1181,-2559 2360,-5133 3551,-7708zm170 -45537c-888,49 -1766,90 -2644,131 -1190,2591 -2369,5165 -3550,7732 879,-33 1757,-66 2647,-108 1179,-2574 2358,-5156 3547,-7755zm-3547 7755c-1190,2583 -2370,5158 -3551,7716 878,-32 1758,-57 2636,-98 1180,-2566 2360,-5149 3549,-7740 -879,41 -1756,90 -2634,122zm1731 7511c-889,41 -1767,74 -2646,107 -1190,2583 -2371,5150 -3552,7708 879,-33 1758,-58 2649,-83 1180,-2567 2359,-5149 3549,-7732zm-3549 7732c-1192,2567 -2373,5125 -3555,7668 880,-17 1759,-42 2639,-67 1181,-2558 2361,-5125 3551,-7708 -879,25 -1757,74 -2635,107zm1731 7510c-889,34 -1768,67 -2647,91 -1192,2568 -2374,5110 -3556,7661 879,-25 1760,-42 2650,-60 1182,-2558 2363,-5117 3553,-7692zm-3553 7692c-1192,2552 -2374,5102 -3556,7645 880,-9 1760,-34 2640,-51 1182,-2551 2363,-5109 3554,-7676 -879,24 -1758,57 -2638,82zm1733 7526c-890,26 -1769,51 -2649,68 -1193,2551 -2375,5094 -3559,7621 881,-9 1761,-18 2652,-36 1183,-2543 2365,-5085 3556,-7653zm176 -45473c-890,34 -1769,67 -2648,91 -1191,2567 -2373,5126 -3555,7669 880,-17 1760,-34 2650,-68 1181,-2550 2362,-5117 3553,-7692zm-3553 7692c-1192,2567 -2374,5110 -3556,7661 879,-25 1760,-42 2640,-59 1181,-2551 2363,-5109 3553,-7684 -879,32 -1758,57 -2637,82zm1733 7526c-891,26 -1770,51 -2649,76 -1193,2551 -2375,5102 -3558,7636 881,-8 1761,-25 2652,-43 1182,-2543 2363,-5101 3555,-7669zm-3555 7669c-1193,2551 -2376,5078 -3559,7620 880,-17 1761,-26 2642,-34 1182,-2543 2364,-5094 3556,-7645 -880,17 -1759,42 -2639,59zm1733 7526c-890,26 -1771,43 -2650,60 -1194,2535 -2377,5070 -3561,7597 880,-10 1761,-19 2653,-28 1183,-2527 2366,-5069 3558,-7629zm-3558 7629c-1194,2543 -2378,5062 -3562,7589 882,-1 1763,-3 2644,-12 1183,-2534 2366,-5069 3559,-7612 -880,17 -1761,26 -2641,35zm1735 7550c-892,10 -1773,18 -2653,27 -1194,2536 -2379,5055 -3563,7566 881,7 1762,-2 2654,-12 1185,-2511 2368,-5038 3562,-7581zm168 -45417c-879,17 -1759,34 -2639,58 -1193,2544 -2376,5078 -3560,7605 881,-9 1762,-18 2642,-27 1183,-2534 2365,-5085 3557,-7636zm-3557 7636c-1194,2536 -2377,5070 -3561,7589 881,-1 1762,-10 2653,-20 1184,-2526 2367,-5069 3559,-7620 -891,17 -1770,42 -2651,51zm1745 7542c-891,9 -1772,18 -2653,27 -1194,2536 -2377,5062 -3562,7582 882,-2 1763,-11 2655,-5 1184,-2526 2366,-5069 3560,-7604zm-3560 7604c-1194,2528 -2389,5048 -3575,7550 882,8 1764,14 2656,12 1184,-2526 2368,-5045 3561,-7589 -880,9 -1760,26 -2642,27zm1735 7550c-892,2 -1773,3 -2654,12 -1195,2520 -2381,5023 -3567,7526 882,7 1765,22 2658,28 1184,-2519 2369,-5038 3563,-7566zm-3563 7566c-1196,2511 -2382,5014 -3568,7509 883,15 1765,30 2647,37 1185,-2511 2370,-5022 3565,-7549 -882,1 -1763,2 -2644,3zm1735 7558c-892,1 -1774,-5 -2656,-12 -1196,2512 -2383,4999 -3570,7486 883,14 1766,37 2660,51 1186,-2503 2371,-5006 3566,-7525zm174 -45362c-881,9 -1762,18 -2643,19 -1195,2528 -2379,5039 -3565,7542 882,7 1764,13 2646,20 1184,-2519 2369,-5037 3562,-7581zm-3562 7581c-1196,2512 -2382,5015 -3567,7518 882,15 1764,22 2657,28 1185,-2511 2369,-5030 3564,-7558 -892,2 -1773,11 -2654,12zm1735 7550c-881,1 -1763,2 -2645,-4 -1196,2511 -2382,5014 -3568,7501 883,23 1765,38 2648,45 1185,-2503 2370,-5014 3565,-7542zm-3565 7542c-1197,2504 -2384,4991 -3571,7477 883,15 1766,38 2660,52 1186,-2495 2372,-4998 3567,-7509 -892,-7 -1774,-13 -2656,-20zm1736 7565c-882,-6 -1764,-13 -2647,-36 -1197,2504 -2384,4991 -3572,7462 883,31 1767,54 2650,68 1186,-2486 2373,-4982 3569,-7494zm-3569 7494c-1198,2496 -2386,4967 -3574,7447 884,22 1767,53 2662,75 1187,-2487 2374,-4974 3570,-7478 -893,-14 -1776,-29 -2658,-44zm1748 7581c-894,-21 -1777,-36 -2660,-59 -1199,2480 -2386,4959 -3576,7414 885,39 1769,70 2663,100 1188,-2480 2376,-4959 3573,-7455zm179 -45290c-882,-7 -1764,-21 -2646,-28 -1197,2504 -2384,4990 -3572,7470 884,30 1767,45 2650,60 1187,-2487 2372,-4990 3568,-7502zm-3568 7502c-1197,2496 -2385,4975 -3573,7446 884,31 1768,62 2662,83 1186,-2495 2373,-4981 3569,-7493 -893,-6 -1775,-21 -2658,-36zm1737 7574c-883,-15 -1766,-30 -2648,-45 -1199,2480 -2387,4960 -3575,7431 884,30 1767,53 2651,76 1188,-2471 2375,-4966 3572,-7462zm-3572 7462c-1198,2488 -2387,4951 -3577,7406 885,39 1769,70 2664,107 1188,-2479 2376,-4950 3574,-7446 -894,-14 -1777,-36 -2661,-67zm1738 7589c-884,-22 -1767,-53 -2651,-76 -1199,2472 -2388,4928 -3578,7383 884,39 1769,77 2654,116 1189,-2463 2377,-4935 3575,-7423zm-1640 -30199c-894,-14 -1778,-44 -2662,-75 -1198,2480 -2388,4935 -3577,7390 884,39 1769,78 2664,115 1189,-2471 2377,-4942 3575,-7430zm-3575 7430c-1199,2464 -2389,4920 -3579,7367 885,47 1769,85 2665,123 1189,-2455 2378,-4926 3576,-7406 -894,-22 -1778,-53 -2662,-84zm1739 7590c-884,-23 -1769,-61 -2653,-100 -1200,2464 -2389,4920 -3580,7359 885,47 1770,93 2655,140 1190,-2456 2379,-4919 3578,-7399zm-3477 -15187c-896,-38 -1780,-77 -2666,-123 -1201,2448 -2391,4895 -3584,7319 887,62 1772,109 2668,155 1191,-2440 2382,-4887 3582,-7351z"/>
  <path id="calcao_contorno" fill="none" stroke="#828282" stroke-width="216" stroke-miterlimit="22.9256" d="M69650 5659c-9310,-112 -15300,-100 -21508,-474 -6208,-375 -12634,-1136 -17980,-2042 -5345,-907 -9609,-1958 -13873,-3009l-2054 6757c-2099,6043 -3230,10375 -4911,16267 -248,872 -434,1451 -641,2330 -2358,10014 -4545,19966 -6155,30179 -554,3512 -786,7427 -1224,10930l-436 5750c-44,1828 -233,3895 -369,5619 -78,986 10,2190 -2,3202 -14,1157 -208,1509 -203,2791 8,2036 68,4197 11,6219 -29,1011 -181,1573 -197,2720l191 9088c-30,8293 172,15967 183,24239 2,1266 207,1664 202,2992 -4,924 -65,2102 5,2998 131,1643 218,4044 519,5463 1054,4979 5696,6841 10061,7850 3308,765 6706,1109 10126,1574 4005,544 19353,399 23466,-86 6443,-760 15490,-276 22137,-1969 7263,-1851 6390,-2818 7426,-7416 869,-3864 2217,-13982 3165,-16900 806,-2481 1720,-7859 2193,-10511 343,-1988 1132,-3674 1716,-5606 1342,-4436 1692,-7618 2916,-12155 377,-1396 722,-2378 1101,-3849 996,-3861 2188,-8240 2965,-12104 574,-2852 1093,-5353 1651,-8279l2188 -12719c189,-997 230,-2245 1181,-2593 951,348 992,1596 1180,2593l2189 12719c558,2926 1076,5427 1650,8279 778,3864 1970,8243 2965,12104 380,1471 724,2453 1101,3849 1225,4537 1575,7719 2916,12155 585,1932 1374,3618 1717,5606 472,2650 1387,8032 2193,10511 948,2918 2296,13036 3165,16900 1036,4598 163,5565 7426,7416 6647,1693 15693,1209 22136,1969 4113,485 19462,630 23466,86 3420,-465 6819,-809 10126,-1574 4366,-1009 9008,-2871 10062,-7850 301,-1419 388,-3820 519,-5463 70,-896 8,-2074 5,-2998 -5,-1328 200,-1726 202,-2992 10,-8272 212,-15946 183,-24239l191 -8753 -197 -3055c-57,-2022 3,-4183 11,-6219 5,-1282 -189,-1634 -203,-2791 -12,-1012 75,-2216 -2,-3202 -136,-1724 -325,-3791 -369,-5619l-436 -5750c-439,-3503 -670,-7418 -1224,-10930 -1610,-10213 -3798,-20165 -6155,-30179 -207,-879 -393,-1458 -642,-2330 -1680,-5892 -2811,-10224 -4910,-16267l-2054 -6757c-2948,864 -5896,1729 -9666,2473 -3770,745 -8362,1369 -13790,1868 -5428,499 -11692,873 -19005,1148 -7312,274 -15673,449 -26168,418 -10494,-32 -23123,-269 -32432,-382z"/>
 </g>
</svg>
