<?xml version="1.0" encoding="utf-8"?>
<!-- Generator: Adobe Illustrator 16.0.3, SVG Export Plug-In . SVG Version: 6.00 Build 0)  -->
<!DOCTYPE svg PUBLIC "-//W3C//DTD SVG 1.1//EN" "http://www.w3.org/Graphics/SVG/1.1/DTD/svg11.dtd">
<svg version="1.1"
	 id="Layer_1" image-rendering="optimizeQuality" text-rendering="geometricPrecision" shape-rendering="geometricPrecision" xmlns:xodm="http://www.corel.com/coreldraw/odm/2003"
	 xmlns="http://www.w3.org/2000/svg" xmlns:xlink="http://www.w3.org/1999/xlink" x="0px" y="0px" width="181px" height="149px"
	 viewBox="0 0 181 149" enable-background="new 0 0 181 149" xml:space="preserve">
<g id="Camada_x0020_1">
	<path id="d2" fill="#F00808" d="M82.304,113.244h-0.085v1.186L82.304,113.244z M180.652,108.688
		c-0.119-0.063-0.236-0.124-0.351-0.181c0.051,0.83,0.101,1.649,0.149,2.468c-0.017-0.011-0.033-0.021-0.05-0.032
		c-0.062-1.02-0.124-2.051-0.187-3.083c-0.19-0.102-0.381-0.202-0.563-0.292c-0.045-0.729-0.088-1.459-0.133-2.188
		c-0.115-0.061-0.223-0.11-0.329-0.16c0.044,0.729,0.087,1.459,0.132,2.188c-0.09-0.04-0.182-0.091-0.264-0.131
		c-0.152-2.512-0.305-5.036-0.459-7.57c-0.189-0.09-0.379-0.168-0.561-0.258c-0.147-2.435-0.295-4.867-0.442-7.302
		c-0.19-0.091-0.38-0.181-0.561-0.27c0.331,5.472,0.662,10.935,0.994,16.407c-0.075-1.234-0.151-2.479-0.226-3.724
		c-0.025-0.01-0.041-0.021-0.059-0.03c0.045,0.73,0.089,1.459,0.133,2.188c-0.189-0.09-0.379-0.18-0.561-0.27
		c0.039,0.65,0.079,1.301,0.117,1.951c-0.016,0-0.023-0.011-0.031-0.01c-0.141-2.299-0.279-4.609-0.419-6.908
		c-0.19-0.09-0.38-0.18-0.56-0.248c0.09,1.503,0.183,3.018,0.273,4.52c-0.189-0.09-0.379-0.168-0.559-0.247
		c0.009,0.157,0.018,0.303,0.026,0.438c-0.099-0.041-0.198-0.079-0.297-0.129c0.04,0.65,0.079,1.301,0.118,1.951
		c-0.105-0.038-0.213-0.089-0.313-0.128c-0.08-1.346-0.162-2.692-0.244-4.038c-0.017-0.009-0.023-0.009-0.033-0.02
		c0.086,1.413,0.17,2.805,0.255,4.205c-0.042-0.694-0.085-1.4-0.128-2.119c-0.099-0.039-0.197-0.078-0.297-0.128
		c-0.08-1.335-0.162-2.681-0.244-4.026c-0.09-0.04-0.18-0.078-0.262-0.108c-0.02-0.313-0.039-0.628-0.057-0.931
		c-0.1-0.039-0.197-0.089-0.297-0.129c-0.129-2.119-0.258-4.25-0.387-6.37c-0.188-0.079-0.377-0.157-0.557-0.225
		c0.268,4.431,0.536,8.86,0.804,13.279l0,0c-0.08-1.335-0.163-2.692-0.245-4.038c-0.105-0.039-0.212-0.076-0.311-0.116
		c0.043,0.706,0.085,1.402,0.127,2.086c-0.081-1.334-0.163-2.681-0.244-4.026c-0.189-0.066-0.378-0.146-0.558-0.214
		c-0.08-1.323-0.159-2.636-0.239-3.958c-0.189-0.068-0.377-0.137-0.558-0.203c0.14,2.299,0.278,4.598,0.417,6.887
		c-0.041-0.021-0.082-0.029-0.123-0.038c-0.033-0.562-0.066-1.122-0.102-1.693c-0.074-0.03-0.148-0.06-0.214-0.089
		c-0.024-0.414-0.05-0.83-0.075-1.245c-0.188-0.067-0.377-0.135-0.558-0.202c-0.079-1.324-0.159-2.636-0.239-3.959
		c-0.188-0.057-0.376-0.123-0.556-0.181c0.155,2.568,0.312,5.125,0.466,7.683c-0.033-0.02-0.058-0.02-0.082-0.028
		c-0.021-0.37-0.045-0.741-0.067-1.11c-0.147-0.059-0.294-0.106-0.441-0.153c-0.216-3.544-0.431-7.088-0.646-10.644
		c-0.188-0.067-0.376-0.123-0.557-0.191c0.216,3.555,0.431,7.1,0.645,10.643c-0.039-0.008-0.08-0.018-0.113-0.037
		c0.091,1.502,0.184,3.017,0.273,4.52c-0.105-0.027-0.212-0.065-0.311-0.105c-0.091-1.503-0.183-3.018-0.273-4.52
		c-0.082-0.018-0.163-0.047-0.236-0.064c-0.271-4.486-0.544-8.973-0.815-13.458c-0.188-0.067-0.376-0.124-0.556-0.181
		c0.193,3.186,0.386,6.37,0.578,9.557c-0.186-0.035-0.373-0.102-0.554-0.158c0.124,2.029,0.246,4.049,0.368,6.066
		c-0.033-0.009-0.064-0.018-0.09-0.027c-0.043-0.719-0.087-1.437-0.131-2.165c-0.188-0.046-0.375-0.101-0.555-0.158
		c0.078,1.29,0.157,2.58,0.234,3.858c-0.139-0.037-0.269-0.074-0.4-0.11c-0.033-0.562-0.066-1.122-0.102-1.693
		c-0.064-0.019-0.131-0.038-0.195-0.057c-0.072-1.177-0.143-2.355-0.215-3.532c-0.072-0.019-0.146-0.048-0.221-0.065
		c-0.115-1.907-0.23-3.825-0.347-5.742c-0.188-0.046-0.375-0.102-0.554-0.136c0.143,2.344,0.285,4.688,0.426,7.021
		c-0.113-0.027-0.227-0.055-0.333-0.082c0.079,1.313,0.159,2.637,0.239,3.947c-0.049-0.02-0.098-0.027-0.138-0.035
		c-0.034-0.561-0.068-1.122-0.104-1.694c-0.064-0.019-0.13-0.037-0.187-0.044c-0.244-4.027-0.488-8.054-0.731-12.08
		c-0.188-0.045-0.374-0.09-0.554-0.135c0.057,0.931,0.113,1.873,0.17,2.803c-0.072-0.018-0.139-0.035-0.203-0.055
		c0.09,1.48,0.178,2.95,0.268,4.419c-0.057-0.008-0.105-0.026-0.154-0.035c0.047,0.774,0.094,1.548,0.141,2.333
		c-0.064-0.02-0.129-0.026-0.193-0.045c0.039,0.639,0.077,1.278,0.115,1.906c-0.106-0.027-0.212-0.055-0.318-0.082
		c-0.23-3.813-0.463-7.638-0.694-11.462c-0.187-0.034-0.373-0.079-0.552-0.112c0.057,0.93,0.113,1.872,0.17,2.803
		c-0.072-0.006-0.145-0.024-0.219-0.043c0.137,2.255,0.273,4.509,0.41,6.752c-0.008,0.001-0.008,0.001-0.008,0.001
		c-0.179-2.938-0.357-5.877-0.534-8.805c-0.187-0.034-0.373-0.078-0.552-0.112c0.106,1.75,0.213,3.51,0.318,5.26
		c-0.031-0.01-0.064-0.008-0.097-0.017c-0.12-1.996-0.243-4.005-0.364-6.012c-0.188-0.044-0.373-0.079-0.551-0.112
		c0.193,3.185,0.386,6.369,0.579,9.556c-0.187-0.034-0.373-0.079-0.552-0.114c0.052,0.854,0.102,1.683,0.152,2.524
		c-0.064-0.007-0.121-0.016-0.178-0.034c-0.026-0.438-0.053-0.875-0.08-1.313c-0.186-0.022-0.371-0.057-0.549-0.09
		c0.037,0.627,0.075,1.256,0.114,1.884c-0.154-0.024-0.308-0.05-0.462-0.073c-0.029-0.494-0.059-0.977-0.089-1.47
		c-0.138-0.026-0.267-0.04-0.396-0.065c-0.009-0.135-0.018-0.281-0.025-0.415c-0.146-0.026-0.292-0.051-0.43-0.075
		c-0.131-2.164-0.262-4.318-0.393-6.482c-0.186-0.023-0.373-0.057-0.55-0.09c0.105,1.748,0.212,3.51,0.319,5.271
		c-0.187-0.023-0.371-0.046-0.549-0.068c0.005,0.078,0.01,0.157,0.014,0.235c-0.016,0.001-0.031,0.002-0.047,0.003
		c-0.042-0.685-0.084-1.368-0.125-2.063c-0.09-0.018-0.179-0.023-0.26-0.041c-0.069-1.144-0.139-2.299-0.208-3.443
		c-0.186-0.021-0.371-0.045-0.549-0.066c0.106,1.76,0.213,3.509,0.319,5.271c-0.186-0.022-0.371-0.046-0.549-0.058
		c-0.124-2.053-0.248-4.104-0.373-6.168c-0.186-0.022-0.371-0.045-0.549-0.068c0.018,0.303,0.037,0.605,0.055,0.897
		c-0.113-0.016-0.227-0.021-0.33-0.036c0.105,1.75,0.213,3.51,0.318,5.271c-0.185-0.012-0.37-0.033-0.547-0.046
		c0.066,1.099,0.133,2.198,0.199,3.297c-0.058-0.964-0.115-1.929-0.176-2.904c-0.137-0.015-0.273-0.018-0.402-0.032
		c0.096,1.593,0.193,3.186,0.289,4.767c-0.008,0-0.016,0.001-0.016,0.001c-0.028-0.46-0.057-0.919-0.084-1.391
		c-0.162-0.013-0.314-0.025-0.467-0.027c-0.045-0.74-0.09-1.48-0.135-2.221c-0.186-0.034-0.371-0.045-0.549-0.068
		c-0.152-2.535-0.309-5.08-0.463-7.627c-0.184-0.011-0.369-0.023-0.545-0.035c0.198,3.287,0.396,6.563,0.596,9.848
		c-0.112-0.004-0.225-0.008-0.336-0.013c-0.129-2.12-0.26-4.263-0.389-6.393c-0.185-0.013-0.369-0.022-0.545-0.024
		c0.027,0.449,0.055,0.909,0.081,1.358c-0.112-0.017-0.224-0.021-0.337-0.024c0.116,1.917,0.232,3.835,0.348,5.741
		c-0.016,0.002-0.023,0.002-0.031,0.002c-0.016-0.234-0.028-0.46-0.043-0.706c-0.162-0.013-0.321-0.015-0.482-0.027
		c-0.129-2.12-0.258-4.262-0.388-6.393c-0.185-0.012-0.37-0.023-0.546-0.023c0.088,1.447,0.176,2.894,0.262,4.329
		c-0.023,0.002-0.047-0.009-0.064-0.007c0.057,0.931,0.113,1.861,0.17,2.792c-0.16-0.002-0.32-0.003-0.48-0.005
		c0.011,0.191,0.023,0.393,0.035,0.584c-0.112-0.004-0.217,0.001-0.321-0.004c-0.155-2.567-0.312-5.136-0.466-7.703
		c-0.129-0.004-0.258-0.008-0.379-0.012c-0.124-2.063-0.248-4.116-0.373-6.18c-0.184,0-0.369,0-0.545-0.001
		c0.268,4.431,0.537,8.859,0.806,13.301c-0.056-0.007-0.111-0.005-0.168-0.012c0.011,0.19,0.023,0.393,0.035,0.584
		c-0.056,0.003-0.112,0.007-0.161-0.002c-0.057-0.942-0.113-1.874-0.17-2.815c-0.063,0.004-0.128,0.008-0.185,0
		c-0.096-1.593-0.194-3.207-0.292-4.811c-0.184-0.002-0.367-0.002-0.543,0.01c0.168,2.758,0.334,5.506,0.501,8.266
		c-0.057-0.008-0.104-0.005-0.153-0.002c-0.092-1.525-0.184-3.051-0.278-4.599c-0.183,0.011-0.366,0.022-0.543,0.011
		c0.022,0.381,0.046,0.763,0.069,1.145c-0.057,0.002-0.113-0.005-0.168-0.002c-0.098-1.593-0.195-3.207-0.293-4.811
		c-0.184,0.01-0.367,0.01-0.543,0.01c0.088,1.446,0.176,2.895,0.262,4.328c-0.008,0.002-0.016,0.002-0.023,0.002
		c-0.031-0.504-0.063-1.021-0.094-1.547c-0.185,0-0.367,0.011-0.544,0.01c-0.073-1.199-0.146-2.389-0.218-3.6
		c-0.049,0.003-0.098-0.006-0.137-0.004c-0.038-0.628-0.077-1.266-0.115-1.906c-0.185,0.012-0.367,0.023-0.544,0.033
		c0.144,2.355,0.286,4.71,0.428,7.055c-0.175,0-0.343,0.01-0.511,0.02c0.016,0.258,0.029,0.493,0.045,0.729
		c-0.105,0.005-0.209,0.001-0.305,0.007c-0.202-3.343-0.405-6.685-0.608-10.038c-0.016,0.001-0.031,0.002-0.04,0.002
		c-0.041-0.673-0.082-1.356-0.123-2.029c-0.184,0.011-0.367,0.022-0.543,0.021c0.287,4.745,0.574,9.489,0.862,14.222
		c-0.12,0.008-0.239,0.015-0.351,0.021c0.005,0.102,0.012,0.214,0.019,0.326c-0.056,0.003-0.103,0.005-0.152-0.003
		c-0.05-0.818-0.1-1.648-0.149-2.479c-0.119,0.019-0.239,0.025-0.359,0.033c-0.244-4.026-0.488-8.053-0.731-12.079
		c-0.185,0.011-0.367,0.033-0.542,0.044c0.055,0.897,0.107,1.783,0.162,2.681c-0.127,0.008-0.255,0.016-0.374,0.034
		c0.144,2.355,0.284,4.699,0.427,7.043c-0.136,0.009-0.264,0.016-0.391,0.023c0.026,0.449,0.053,0.887,0.08,1.324
		c-0.057,0.002-0.104,0.006-0.151,0.009c0.03,0.516,0.063,1.043,0.093,1.548c-0.095,0.018-0.189,0.022-0.286,0.028
		c0.034,0.55,0.067,1.088,0.099,1.626c-0.127,0.008-0.256,0.016-0.375,0.023c-0.262-4.33-0.525-8.67-0.789-13.01
		c-0.182,0.021-0.365,0.044-0.54,0.066c0.089,1.457,0.177,2.915,0.265,4.363c-0.049,0.002-0.096,0.005-0.144,0.008
		c0.194,3.207,0.388,6.416,0.583,9.623c-0.135,0.02-0.271,0.027-0.396,0.047c-0.105-1.738-0.211-3.466-0.316-5.193
		c0.039,0.628,0.076,1.245,0.113,1.862c-0.048,0.003-0.096,0.005-0.143,0.009c0.029,0.494,0.059,0.977,0.088,1.469
		c-0.07,0.016-0.143,0.02-0.214,0.024c-0.073-1.2-0.146-2.399-0.22-3.61c-0.031,0.002-0.063,0.014-0.087,0.016
		c-0.083-1.38-0.167-2.759-0.251-4.15c-0.184,0.012-0.366,0.046-0.542,0.056c0.013,0.214,0.026,0.427,0.039,0.64
		c-0.144,0.008-0.286,0.028-0.423,0.037c0.17,2.792,0.34,5.596,0.509,8.377c-0.112,0.019-0.223,0.036-0.333,0.055
		c-0.263-4.33-0.525-8.658-0.789-12.999c-0.183,0.022-0.365,0.045-0.54,0.066c0.081,1.335,0.161,2.659,0.241,3.982
		c-0.039,0.013-0.071,0.015-0.103,0.017c0.013,0.213,0.026,0.427,0.039,0.641c-0.079,0.016-0.159,0.02-0.23,0.035
		c-0.03-0.493-0.06-0.975-0.089-1.469c-0.183,0.022-0.366,0.045-0.541,0.066c0.199,3.286,0.398,6.572,0.597,9.847
		c-0.063,0.015-0.126,0.02-0.182,0.034c-0.042-0.685-0.084-1.391-0.127-2.087c-0.095,0.007-0.19,0.023-0.278,0.04
		c-0.115-1.906-0.23-3.813-0.346-5.721c-0.016,0.002-0.033,0.002-0.04,0.004c-0.012-0.191-0.022-0.382-0.035-0.572
		c-0.119,0.018-0.231,0.025-0.341,0.054c-0.029-0.493-0.059-0.976-0.088-1.469c-0.184,0.022-0.366,0.056-0.54,0.089
		c0.156,2.578,0.312,5.148,0.468,7.705c-0.056,0.015-0.112,0.018-0.159,0.032c0.044,0.729,0.087,1.436,0.13,2.142
		c-0.017,0.002-0.032,0.002-0.039,0.003c-0.042-0.685-0.086-1.392-0.127-2.087c-0.119,0.019-0.23,0.037-0.341,0.055
		c0.012,0.203,0.022,0.393,0.035,0.584c-0.071,0.015-0.143,0.03-0.214,0.046c-0.297-4.901-0.594-9.79-0.891-14.692
		c-0.183,0.022-0.364,0.057-0.547,0.09c0.094,1.549,0.188,3.096,0.281,4.644c-0.182,0.034-0.356,0.065-0.53,0.099
		c0.19,3.152,0.382,6.305,0.573,9.467c-0.039,0.002-0.072,0.004-0.104,0.018c0.014,0.201,0.024,0.393,0.037,0.583
		c-0.119,0.019-0.23,0.048-0.342,0.065c-0.16-2.646-0.32-5.294-0.48-7.94c-0.182,0.044-0.363,0.079-0.538,0.123
		c0.093,1.536,0.186,3.062,0.278,4.587c-0.094,0.018-0.189,0.033-0.285,0.051c0.012,0.201,0.024,0.404,0.037,0.594
		c-0.072,0.017-0.135,0.031-0.198,0.047c0.012,0.19,0.022,0.381,0.034,0.561c-0.118,0.029-0.229,0.047-0.34,0.076
		c0.043,0.719,0.086,1.425,0.129,2.132c-0.065-1.077-0.131-2.165-0.197-3.253c-0.016,0.001-0.023,0.001-0.031,0.002
		c-0.094-1.536-0.188-3.073-0.28-4.621c-0.183,0.034-0.364,0.079-0.538,0.111c0.105,1.728,0.209,3.455,0.314,5.182
		c-0.079,0.017-0.158,0.032-0.229,0.059c-0.17-2.803-0.34-5.596-0.509-8.389c-0.182,0.045-0.364,0.09-0.544,0.146
		c0.094,1.548,0.188,3.096,0.281,4.633c-0.175,0.032-0.349,0.065-0.522,0.11c0.107,1.76,0.213,3.51,0.319,5.271
		c-0.016,0.013-0.023,0.013-0.031,0.014c-0.029-0.494-0.061-1.01-0.092-1.515c-0.094,0.018-0.188,0.045-0.276,0.063
		c-0.209-3.443-0.417-6.887-0.626-10.33c-0.182,0.045-0.362,0.09-0.536,0.135c0.133,2.197,0.265,4.385,0.397,6.571
		c-0.182,0.046-0.362,0.09-0.535,0.146c0.115,1.885,0.229,3.779,0.343,5.652c-0.079,0.017-0.158,0.043-0.229,0.059
		c-0.088-1.469-0.178-2.949-0.268-4.43c-0.031,0.013-0.063,0.025-0.087,0.027c-0.157-2.59-0.315-5.192-0.472-7.795
		c-0.182,0.057-0.361,0.123-0.536,0.156c0.134,2.199,0.267,4.387,0.399,6.572c-0.182,0.057-0.362,0.112-0.536,0.156
		c0.159,2.613,0.317,5.238,0.476,7.852c-0.094,0.028-0.188,0.057-0.273,0.084c-0.063-1.032-0.127-2.064-0.188-3.084
		c-0.086,0.027-0.174,0.055-0.253,0.071c-0.031-0.527-0.064-1.065-0.097-1.604c-0.18,0.057-0.36,0.124-0.535,0.168
		c0.045,0.74,0.091,1.48,0.135,2.209c-0.181,0.057-0.361,0.113-0.533,0.18c0.049,0.829,0.1,1.659,0.148,2.479
		c-0.016,0-0.031,0.001-0.047,0.014c-0.062-1.031-0.123-2.053-0.186-3.084c-0.182,0.057-0.361,0.111-0.535,0.178
		c-0.044-0.729-0.088-1.457-0.131-2.186c-0.111,0.028-0.213,0.068-0.314,0.098c0.043,0.729,0.088,1.457,0.132,2.187
		c-0.086,0.027-0.173,0.056-0.251,0.083c-0.152-2.523-0.307-5.047-0.459-7.571c-0.181,0.067-0.361,0.124-0.534,0.179
		c-0.147-2.444-0.296-4.879-0.442-7.312c-0.181,0.067-0.361,0.135-0.533,0.201c0.332,5.474,0.664,10.945,0.996,16.419
		c-0.076-1.244-0.15-2.479-0.227-3.724c-0.023,0.002-0.039,0.014-0.055,0.015c0.043,0.729,0.088,1.459,0.133,2.188
		c-0.181,0.066-0.361,0.134-0.533,0.201c0.039,0.65,0.079,1.301,0.117,1.939c-0.016,0.002-0.022,0.024-0.029,0.024
		c-0.141-2.299-0.279-4.609-0.42-6.92c-0.18,0.067-0.36,0.136-0.532,0.202c0.091,1.514,0.183,3.017,0.274,4.53
		c-0.18,0.067-0.36,0.134-0.532,0.2c0.009,0.147,0.018,0.293,0.026,0.438c-0.094,0.04-0.188,0.067-0.282,0.106
		c0.04,0.65,0.079,1.301,0.118,1.941c-0.102,0.039-0.204,0.08-0.297,0.119c-0.082-1.335-0.163-2.681-0.245-4.027
		c-0.015,0.013-0.022,0.014-0.03,0.014c0.085,1.402,0.17,2.805,0.255,4.206c-0.042-0.707-0.086-1.413-0.128-2.12
		c-0.095,0.039-0.188,0.079-0.282,0.119c-0.081-1.346-0.163-2.691-0.245-4.038c-0.085,0.039-0.171,0.077-0.249,0.105
		c-0.02-0.313-0.038-0.617-0.057-0.931c-0.095,0.039-0.188,0.078-0.282,0.117c-0.128-2.119-0.256-4.238-0.385-6.369
		c-0.18,0.078-0.359,0.156-0.531,0.223c0.268,4.43,0.537,8.86,0.805,13.279l0,0c-0.081-1.334-0.162-2.681-0.244-4.026
		c-0.102,0.052-0.203,0.091-0.297,0.131c0.043,0.694,0.085,1.391,0.127,2.086c-0.081-1.346-0.163-2.692-0.244-4.038
		c-0.18,0.079-0.359,0.157-0.531,0.225c-0.091-1.504-0.182-2.996-0.273-4.498c-0.178,0.102-0.357,0.169-0.527,0.258
		c0.149,2.479,0.3,4.957,0.449,7.436c-0.039,0.014-0.077,0.038-0.116,0.052c-0.034-0.561-0.068-1.121-0.104-1.694
		c-0.069,0.039-0.14,0.066-0.201,0.104c-0.024-0.404-0.05-0.83-0.075-1.245c-0.18,0.079-0.359,0.169-0.529,0.246
		c-0.092-1.503-0.183-2.995-0.273-4.498c-0.179,0.091-0.357,0.169-0.529,0.258c0.166,2.748,0.333,5.484,0.498,8.221
		c-0.031,0.013-0.053,0.026-0.078,0.038c-0.021-0.37-0.043-0.739-0.066-1.109c-0.141,0.064-0.28,0.129-0.42,0.193
		c-0.216-3.543-0.43-7.088-0.646-10.643c-0.178,0.1-0.356,0.189-0.527,0.279c0.217,3.556,0.43,7.1,0.646,10.644
		c-0.04,0.014-0.077,0.038-0.108,0.052c0.091,1.514,0.183,3.017,0.273,4.531c-0.1,0.051-0.201,0.113-0.295,0.152
		c-0.092-1.515-0.182-3.017-0.274-4.53c-0.178,0.101-0.356,0.201-0.528,0.278c0.079,1.29,0.156,2.58,0.234,3.859
		c-0.047,0.024-0.084,0.049-0.123,0.063c-0.313-5.126-0.623-10.251-0.933-15.377c-0.179,0.102-0.356,0.191-0.536,0.28
		c0.154,2.547,0.308,5.081,0.462,7.615c-0.03,0.025-0.062,0.037-0.093,0.051c0.123,2.03,0.245,4.06,0.368,6.079
		c-0.03,0.024-0.062,0.037-0.085,0.05c-0.045-0.729-0.088-1.446-0.133-2.176c-0.178,0.09-0.355,0.191-0.527,0.291
		c0.079,1.29,0.158,2.58,0.235,3.857c-0.132,0.076-0.255,0.151-0.379,0.227c-0.034-0.562-0.068-1.122-0.103-1.693
		c-0.063,0.037-0.123,0.086-0.186,0.112c-0.072-1.188-0.143-2.366-0.215-3.544c-0.068,0.049-0.139,0.087-0.209,0.125
		c-0.115-1.906-0.23-3.824-0.348-5.742c-0.178,0.101-0.356,0.201-0.526,0.303c0.142,2.344,0.284,4.688,0.426,7.02
		c-0.108,0.063-0.216,0.137-0.317,0.188c0.081,1.324,0.16,2.636,0.24,3.949c-0.047,0.025-0.094,0.051-0.133,0.075
		c-0.033-0.561-0.067-1.122-0.103-1.694c-0.131,0.076-0.255,0.15-0.378,0.227c-0.188-3.084-0.375-6.18-0.563-9.275
		c-0.076,0.061-0.154,0.1-0.225,0.138c-0.018-0.292-0.035-0.583-0.053-0.864c-0.184,0.124-0.361,0.236-0.538,0.349
		c0.154,2.545,0.308,5.081,0.461,7.615c-0.031,0.013-0.062,0.037-0.085,0.05c0.039,0.64,0.078,1.279,0.115,1.906
		c-0.1,0.063-0.2,0.125-0.301,0.188c-0.23-3.813-0.463-7.638-0.695-11.463c-0.177,0.112-0.354,0.225-0.523,0.336
		c0.058,0.942,0.113,1.873,0.17,2.805c-0.068,0.049-0.139,0.087-0.207,0.136c0.135,2.255,0.271,4.509,0.408,6.752
		c-0.008,0.001-0.008,0.001-0.008,0.001c-0.264-4.363-0.528-8.727-0.795-13.1c-0.177,0.111-0.354,0.223-0.523,0.335
		c0.193,3.187,0.387,6.371,0.579,9.556c-0.03,0.024-0.061,0.049-0.093,0.063c-0.121-1.997-0.242-4.005-0.363-6.012
		c-0.178,0.123-0.354,0.246-0.523,0.369c0.193,3.186,0.387,6.37,0.58,9.556c-0.177,0.122-0.354,0.247-0.523,0.358
		c0.052,0.852,0.103,1.693,0.154,2.535c-0.062,0.047-0.115,0.084-0.169,0.122c-0.026-0.448-0.054-0.886-0.08-1.323l-0.253,0.176
		c0.093,0.397,0.193,0.775,0.264,1.191c0.088,0.52,0.127,1.096,0.281,1.938c0.153,0.843,0.418,1.951,0.597,2.878
		c0.179,0.93,0.269,1.676,0.366,2.339c0.098,0.662,0.203,1.239,0.285,2.009c0.083,0.77,0.144,1.733,0.26,2.439
		c0.114,0.708,0.285,1.16,0.408,1.839c0.123,0.68,0.197,1.588,0.263,2.122c0.065,0.535,0.12,0.694,0.253,0.838
		c0.133,0.143,0.344,0.268,0.627,0.408c0.284,0.141,0.64,0.297,1.004,0.531c0.363,0.236,0.735,0.552,1.161,0.915
		c0.427,0.362,0.908,0.771,1.429,1.098c0.521,0.325,1.079,0.569,1.611,0.755c0.531,0.188,1.035,0.317,1.591,0.459
		c0.556,0.143,1.163,0.295,1.983,0.438c0.819,0.142,1.854,0.275,2.648,0.366c0.794,0.093,1.352,0.143,2.494,0.161
		c1.142,0.02,2.869,0.007,4.188-0.029c1.318-0.037,2.227-0.097,3.383-0.198c1.156-0.1,2.561-0.24,4.203-0.414
		s3.523-0.383,5.102-0.529c1.576-0.146,2.852-0.232,4.16-0.305c1.31-0.072,2.653-0.133,3.82-0.166
		c1.168-0.032,2.158-0.037,4.202-0.07c2.042-0.035,5.137-0.098,7.196-0.158c2.059-0.063,3.082-0.122,4.611-0.309
		c1.531-0.186,3.567-0.496,4.825-0.713c1.259-0.22,1.737-0.346,2.065-0.48c0.326-0.135,0.501-0.279,0.641-0.373
		c0.141-0.094,0.246-0.137,0.529-0.238c0.282-0.102,0.744-0.262,1.28-0.445c0.534-0.186,1.145-0.393,1.624-0.6
		c0.48-0.205,0.832-0.408,1.059-0.537s0.33-0.185,0.496-0.195c0.168-0.009,0.398,0.026,0.59-0.021
		c0.192-0.045,0.346-0.173,0.55-0.365s0.46-0.448,0.563-0.842c0.103-0.393,0.053-0.926,0.058-2.267
		c0.006-1.343,0.065-3.493,0.046-5.89c-0.021-2.395-0.121-5.033-0.171-6.643c-0.05-1.61-0.05-2.192-0.05-3.015
		C180.657,109.79,180.657,109.25,180.652,108.688z M106.301,107.254l-0.28-4.611c-0.177,0.135-0.353,0.258-0.521,0.393l0.211,3.486
		c0.154,0.193,0.301,0.369,0.431,0.531C106.197,107.123,106.25,107.189,106.301,107.254z M82.04,117.018h-0.364v1.227h-0.257v4.05
		h-0.051v-11.863h-0.543v6.587h-0.544v4.039v-0.772H80.25v4.298v-1.902h-0.292v-12.249h-0.542v6.587h-0.542v4.039v-0.772h-0.305
		v-0.048v3.808h-0.32v-2.255h-0.344v-0.092h-0.543v-1.506h-0.543v1.598h-0.506v-2.188h-0.231v-5.396h-0.543v-7.32h-0.543v14.904
		h-0.091v-2.188h-0.304v2.188h-0.543v1.527h-0.207v-6.086h-0.543v6.506h-0.117v-1.947h-0.542v3.455h-0.279v-7.494h-0.402v-5.713
		h-0.142v-1.606h-0.543v14.813h-0.308v-7.494h-0.532v-4.346h-0.554v7.372h-0.294v-0.78h-0.029v1.793v-4.039h-0.437v-6.111h-0.543
		v1.766h-0.106v7.372h-0.226v-5.194h-0.542v6.279h-0.334v-8.389h-0.543v2.109h-0.516v7.377h-0.219v2.413h-0.543v-12.538H65.01v2.35
		h-0.14v7.775h-0.507v0.583h-0.159v1.864h-0.149v-9.224h-0.036v-0.999h-0.543v1.834h-0.358v2.777h-0.149v3.747H62.81v1.864h-0.2
		v-10.223h-0.544v1.834h-0.226v-0.637h-0.544v8.907h-0.149v0.118h-0.291v-8.389h-0.375v-10.133h-0.543v9.496h-0.035v3.348h-0.105
		v4.764h-0.403v-4.923v3.11h-0.358v-6.299h-0.542v3.348h-0.09v4.503h-0.427v0.993h-0.333v-6.491h-0.543v0.995h-0.106v4.503h-0.227
		v-13.801h-0.543v3.479h-0.334v7.135h-0.516v-6.322h-0.543v7.076h-0.543v0.732h-0.15v1.299v-2.195h-0.173v-6.912h-0.37v-0.732
		h-0.543v11.484v-3.676h-0.174v0.732h-0.158v-5.074h-0.543v0.719h-0.47v1.553h-0.38v-2.271h-0.543v4.821h-0.202v2.313h-0.278v-2.956
		h-0.387v-4.178h-0.543v0.079h-0.036v5.205h-0.12v1.85h-0.387v0.591h-0.293v-3.461h-0.05v-4.185h-0.542v-0.344h-0.542V108.2h-0.544
		v9.336h-0.323v5.739H46.13v-0.955h-0.395v-0.6h-0.148v-4.051h-0.543v5.605h-0.396v-3.719v0.492H44.37v3.033v-2.396h-0.543v-1.687
		h-0.138v-7.253h-0.542v8.303h-0.308v3.989v-3.3h-0.543v-6.016h-0.544v2.47h-0.228v-10.308H40.98v13.854h-0.095v-6.016h-0.543v6.494
		H40.33v-11.359h-0.543v11.268h-0.542v3.106H39.07v-3.015h-0.542v-2.218h-0.543v1.281h-0.174v-9.85h-0.543v12.112h-0.308v-1.805
		h-0.344v-7.334h-0.199v-2.974h-0.543v6.39h-0.232v4.533H35.55v-0.615h-0.328v-7.334h-0.215v-2.974h-0.543v11.354h-0.537v-4.965
		h-0.114v-3.416h-0.543v9.139h-0.392v1.283h-0.12v-16.729h-0.544v6.375h-0.542v9.07h-0.202v1.283h-0.392v-3.461h-0.543v4.534h-0.032
		v-1.923h-0.288v-2.611H29.67v0.133h-0.004v-0.133h-0.543v4.534h-0.08v-14.257H28.5v6.375h-0.543v1.227h-0.257v4.05H27.65v-11.863
		h-0.543v6.587h-0.543v4.039v-0.772h-0.032v4.298v-1.902H26.24v-12.249h-0.543v6.587h-0.543v4.039v-0.772H24.85v-0.048v3.808h-0.32
		v-2.255h-0.344v-0.092h-0.542v-1.506h-0.543v1.598h-0.507v-2.188h-0.231v-5.396h-0.544v-8.474h-0.542v16.058h-0.091v-2.188h-0.304
		v2.188h-0.543v1.527H20.13v-6.086h-0.543v6.506h-0.116v-1.947h-0.543v3.455h-0.279v-7.494h-0.402v-5.713h-0.142v-2.76h-0.543
		v15.967h-0.308v-7.494h-0.543v-3.027h-0.543v6.054h-0.294v-0.78h-0.029v1.793v-4.039h-0.302v-6.111H15v3.084h-0.241v6.054h-0.224
		v-5.194H13.99v9.242h-0.334v-5.465H13.14v-3.777h-0.543v7.377h-0.217v2.044h-0.543v-13.464h-0.543v3.645h-0.006v0.398h-0.099v7.377
		h-0.544v0.583h-0.158v-1.411h-0.185v-6.947h-0.149v-5.292H9.608v13.015H9.399v1.629H9.065v0.871H8.892v-10.223H8.349v1.834H8.123
		v-1.934H7.974v-7.986H7.431v16.384H7.139v-6.464h-0.41v-0.637H6.438v-2.943H5.895v8.404H5.611v-9.368H5.068v3.907H4.776v8.63H4.524
		v-3.862H4.367v-10.145H4.26v-0.361H3.716v2.47H3.248v8.388H2.956v-10.496H2.413v10.477H2.188v-8.404h-0.15v-1.438H1.936
		c0.038,3.754,0.113,7.885,0.188,11.367c0.081,3.717,0.16,6.695,0.235,8.748c0.074,2.051,0.141,3.174,0.169,3.848
		c0.028,0.672,0.015,0.893,0.024,1.961c0.008,1.068,0.039,2.984,0.068,4.352c0.031,1.366,0.061,2.184,0.121,2.67
		c0.06,0.487,0.151,0.643,0.424,0.929s0.729,0.702,2.315,1.036c1.584,0.333,4.298,0.584,6.886,0.807
		c2.588,0.224,5.051,0.419,9.229,0.643c4.178,0.223,10.073,0.474,14.426,0.662c4.354,0.188,7.167,0.313,9.636,0.335
		c2.467,0.023,4.589-0.058,6.733-0.124c2.145-0.068,4.313-0.123,6.379-0.191s4.033-0.148,6.804-0.496
		c2.771-0.349,6.347-0.967,8.582-1.423c2.235-0.456,3.128-0.752,3.913-1.151c0.784-0.397,1.461-0.899,1.828-1.218
		c0.366-0.319,0.421-0.454,0.474-0.71s0.103-0.633,0.183-1.98c0.081-1.35,0.191-3.673,0.457-8.242
		c0.266-4.57,0.688-11.387,1.023-16.365L82.04,117.018z"/>
	<path id="calcao_contorno" fill="none" d="M80.372,143.682c0.053-0.256,0.103-0.633,0.183-1.98c0.081-1.35,0.191-3.673,0.457-8.242
		c0.266-4.57,0.688-11.387,1.023-16.365c0.336-4.979,0.587-8.118,0.914-11.589c0.325-3.472,0.727-7.273,1.229-11.235
		c0.502-3.963,1.104-8.086,1.876-12.771c0.772-4.684,1.715-9.931,2.432-13.367c0.718-3.436,1.209-5.062,1.524-6.088
		c0.316-1.027,0.455-1.456,0.564-1.69c0.108-0.234,0.186-0.275,0.259-0.268c0.075,0.006,0.145,0.061,0.234,0.161
		c0.091,0.1,0.201,0.245,0.344,0.551c0.144,0.307,0.318,0.774,0.602,1.409c0.283,0.635,0.674,1.437,1.009,2.222
		s0.616,1.556,0.735,2.149c0.119,0.593,0.076,1.01,0.111,1.477s0.148,0.986,0.443,1.424c0.297,0.438,0.775,0.794,1.052,1.267
		c0.276,0.473,0.349,1.062,0.529,1.898c0.181,0.837,0.468,1.92,0.567,2.738c0.1,0.816,0.009,1.369-0.086,1.89
		c-0.093,0.521-0.19,1.01-0.088,1.499c0.103,0.49,0.406,0.982,0.762,1.438c0.354,0.457,0.761,0.878,1.01,1.155
		c0.25,0.277,0.343,0.409,0.432,0.535c0.088,0.125,0.174,0.244,0.309,0.773c0.134,0.531,0.316,1.475,0.386,2.128
		c0.069,0.655,0.024,1.021-0.003,1.386c-0.025,0.365-0.033,0.729-0.063,1.191c-0.029,0.463-0.082,1.024-0.075,1.54
		c0.008,0.516,0.075,0.985,0.405,1.681c0.329,0.696,0.922,1.619,1.482,2.364c0.561,0.747,1.089,1.316,1.444,1.675
		c0.355,0.357,0.538,0.504,0.701,0.764c0.164,0.261,0.311,0.635,0.43,1.111c0.12,0.479,0.217,1.061,0.268,1.735
		s0.059,1.442,0.048,2.294s-0.042,1.786,0.132,2.638c0.173,0.853,0.549,1.618,0.969,2.267c0.418,0.648,0.879,1.178,1.222,1.607
		s0.566,0.757,0.753,1.081c0.188,0.323,0.337,0.642,0.488,1.016c0.15,0.374,0.301,0.803,0.415,1.3
		c0.114,0.498,0.191,1.065,0.298,1.579c0.107,0.515,0.242,0.976,0.33,1.495s0.127,1.096,0.281,1.938
		c0.153,0.843,0.418,1.951,0.597,2.878c0.179,0.93,0.269,1.676,0.366,2.339c0.098,0.662,0.203,1.239,0.285,2.009
		c0.083,0.77,0.144,1.733,0.26,2.439c0.114,0.708,0.285,1.16,0.408,1.839c0.123,0.68,0.197,1.588,0.263,2.122
		c0.065,0.535,0.12,0.694,0.253,0.838c0.133,0.143,0.344,0.268,0.627,0.408c0.284,0.141,0.64,0.297,1.004,0.531
		c0.363,0.236,0.735,0.552,1.161,0.915c0.427,0.362,0.908,0.771,1.429,1.098c0.521,0.325,1.079,0.569,1.611,0.755
		c0.531,0.188,1.035,0.317,1.591,0.459c0.556,0.143,1.163,0.295,1.983,0.438c0.819,0.142,1.854,0.275,2.648,0.366
		c0.794,0.093,1.352,0.143,2.494,0.161c1.142,0.02,2.869,0.007,4.188-0.029c1.318-0.037,2.227-0.097,3.383-0.198
		c1.156-0.1,2.561-0.24,4.203-0.414s3.523-0.383,5.102-0.529c1.576-0.146,2.852-0.232,4.16-0.305c1.31-0.072,2.653-0.133,3.82-0.166
		c1.168-0.032,2.158-0.037,4.202-0.07c2.042-0.035,5.137-0.098,7.196-0.158c2.059-0.063,3.082-0.122,4.611-0.309
		c1.531-0.186,3.567-0.496,4.825-0.713c1.259-0.22,1.737-0.346,2.065-0.48c0.326-0.135,0.501-0.279,0.641-0.373
		c0.141-0.094,0.246-0.137,0.529-0.238c0.282-0.102,0.744-0.262,1.28-0.445c0.534-0.186,1.145-0.393,1.624-0.6
		c0.48-0.205,0.832-0.408,1.059-0.537s0.33-0.185,0.496-0.195c0.168-0.009,0.398,0.026,0.59-0.021
		c0.192-0.045,0.346-0.173,0.55-0.365s0.46-0.448,0.563-0.842c0.103-0.393,0.053-0.926,0.058-2.267
		c0.006-1.343,0.065-3.493,0.046-5.89c-0.021-2.395-0.121-5.033-0.171-6.643c-0.05-1.61-0.05-2.192-0.05-3.015
		c0-0.823,0-1.886-0.024-2.882c-0.026-0.996-0.076-1.924-0.099-2.885c-0.022-0.96-0.018-1.953-0.08-3.525
		c-0.063-1.573-0.193-3.725-0.263-5.465c-0.07-1.74-0.081-3.07-0.204-6.607c-0.122-3.535-0.358-9.278-0.817-14.949
		c-0.459-5.671-1.142-11.269-2.004-16.585c-0.862-5.317-1.906-10.354-2.939-15.139c-1.033-4.785-2.057-9.32-3.4-13.954
		c-1.345-4.634-3.01-9.37-4.615-13.634c-1.605-4.263-3.149-8.055-4.063-10.253c-0.913-2.198-1.193-2.803-1.314-3.193
		c-0.119-0.392-0.08-0.57,0.009-0.707c0.089-0.136,0.228-0.232,0.339-0.307c0.012-0.008,0.025-0.017,0.036-0.026
		c-0.036-0.002-0.077-0.003-0.126-0.006c-0.092-0.006-0.214-0.012-0.61-0.042c-0.396-0.032-1.063-0.087-1.95-0.094
		c-0.886-0.007-1.99,0.033-3.146,0.116c-1.157,0.083-2.367,0.211-4.256,0.535c-1.891,0.324-4.459,0.846-6.578,1.318
		c-2.121,0.471-3.793,0.893-5.985,1.328c-2.194,0.434-4.909,0.882-7.635,1.247c-2.726,0.364-5.462,0.645-8.771,0.946
		c-3.311,0.301-7.196,0.623-10.442,0.85c-3.248,0.227-5.855,0.361-8.24,0.491s-4.545,0.257-7,0.355
		c-2.453,0.097-5.202,0.164-7.931,0.22c-2.729,0.057-5.438,0.104-8.019,0.098c-2.581-0.007-5.036-0.067-7.336-0.121
		c-2.301-0.054-4.448-0.1-6.772-0.17c-2.323-0.071-4.825-0.165-7.894-0.251c-3.07-0.087-6.708-0.167-10.564-0.19
		c-3.855-0.024-7.928,0.01-11.299,0.006c-3.371-0.003-6.04-0.043-9.567-0.181c-3.528-0.137-7.915-0.371-11.07-0.607
		c-3.154-0.236-5.078-0.473-6.476-0.752c-1.398-0.28-2.272-0.602-3.146-0.923c0.039,0.056,0.019,0.165-0.024,0.549
		C6.322,5.35,6.232,6.27,5.981,7.963c-0.25,1.693-0.663,4.159-0.93,5.963c-0.269,1.805-0.394,2.948-0.695,4.831
		c-0.301,1.885-0.778,4.508-1.161,6.82c-0.383,2.312-0.675,4.313-0.905,6c-0.231,1.688-0.402,3.063-0.56,4.658
		c-0.158,1.595-0.303,3.41-0.461,5.608c-0.158,2.197-0.329,4.775-0.5,7.654c-0.17,2.879-0.341,6.059-0.465,9.45
		c-0.126,3.391-0.206,6.992-0.181,10.679c0.025,3.687,0.156,7.458,0.412,11.125c0.256,3.666,0.636,7.228,0.888,10.428
		c0.25,3.2,0.37,6.039,0.426,9.18c0.055,3.139,0.045,6.58,0.08,10.528c0.035,3.947,0.116,8.401,0.196,12.118
		c0.081,3.717,0.16,6.695,0.235,8.748c0.074,2.051,0.141,3.174,0.169,3.848c0.028,0.672,0.015,0.893,0.024,1.961
		c0.008,1.068,0.039,2.984,0.068,4.352c0.031,1.366,0.061,2.184,0.121,2.67c0.06,0.487,0.151,0.643,0.424,0.929
		s0.729,0.702,2.315,1.036c1.584,0.333,4.298,0.584,6.886,0.807c2.588,0.224,5.051,0.419,9.229,0.643
		c4.178,0.223,10.073,0.474,14.426,0.662c4.354,0.188,7.167,0.313,9.636,0.335c2.467,0.023,4.589-0.058,6.733-0.124
		c2.145-0.068,4.313-0.123,6.379-0.191s4.033-0.148,6.804-0.496c2.771-0.349,6.347-0.967,8.582-1.423
		c2.235-0.456,3.128-0.752,3.913-1.151c0.784-0.397,1.461-0.899,1.828-1.218C80.263,144.072,80.319,143.938,80.372,143.682z"/>
</g>
</svg>
