<?xml version="1.0" encoding="UTF-8"?>
<!DOCTYPE svg PUBLIC "-//W3C//DTD SVG 1.1//EN" "http://www.w3.org/Graphics/SVG/1.1/DTD/svg11.dtd">
<!-- Creator: CorelDRAW -->
<svg xmlns="http://www.w3.org/2000/svg" xml:space="preserve" width="238px" height="298px" version="1.1" shape-rendering="geometricPrecision" text-rendering="geometricPrecision" image-rendering="optimizeQuality" fill-rule="evenodd" clip-rule="evenodd"
viewBox="0 0 238 298.123"
 xmlns:xlink="http://www.w3.org/1999/xlink"
 xmlns:xodm="http://www.corel.com/coreldraw/odm/2003">
 <defs>
   <clipPath id="id0">
    <path d="M207.298 27.894c-0.11,-0.063 -0.222,-0.122 -0.337,-0.177 -4.975,-2.38 -9.714,-5.334 -14.858,-7.149 -4.647,-1.639 -11.454,-2.699 -17.288,-4.719 -2.277,-0.789 -4.556,-1.589 -6.82,-2.415l-0.004 -0.03 -9.999 -4.08 -0.175 -0.072c-0.614,-0.28 -1.553,-1.207 -2.512,-1.889 -0.494,-0.369 -0.613,-0.563 -1.038,-0.905 -2.856,-2.299 -5.606,-5.635 -9.574,-5.641 -0.901,-0.002 -1.04,-0.123 -1.779,-0.163l-7.601 -0.17c-5.892,-0.486 -12.055,-0.501 -18.06,-0.477 -5.087,0.02 -9.557,0.063 -14.567,0.477 -2.529,0.209 -4.996,0.029 -7.6,0.17 -0.739,0.04 -0.878,0.161 -1.779,0.163 -3.968,0.006 -6.718,3.342 -9.575,5.641 -0.424,0.342 -0.543,0.536 -1.037,0.905 -0.741,0.527 -1.471,1.2 -2.047,1.608 -0.17,0.121 -0.326,0.218 -0.465,0.281l-10.174 4.152 -0.003 0.03c-2.265,0.826 -4.544,1.626 -6.821,2.415 -5.834,2.02 -12.641,3.08 -17.288,4.719 -5.144,1.815 -9.883,4.769 -14.858,7.149 -0.212,0.101 -0.412,0.215 -0.605,0.339 -0.909,0.583 -1.664,1.379 -2.651,2.001 -11.263,7.099 -18.243,27.467 -21.401,39.215 -1.569,5.839 -1.98,12.983 -2.969,19.04 -0.5,3.067 -1.172,6.193 -1.752,9.253 -0.585,3.095 -0.872,6.493 -1.288,9.631 -0.406,0.268 -0.327,-0.023 -0.308,0.899l-0.065 1.854 0 8.783c0.041,1.018 0.102,1.813 0.186,2.164 1.125,0.477 3.706,0.514 5.07,0.712 7.662,1.114 9.041,0.828 15.791,1.554l21.547 1.349c-0.015,-1.623 0.547,-10.725 0.578,-13.424l-0.603 -0.316 -0.07 -0.036c0,-4.476 -0.011,-9.226 -0.011,-13.7 1.678,4.247 3.328,18.944 3.789,24.023 0.735,8.116 1.826,16.186 2.512,24.347 0.348,4.137 0.874,8.269 1.009,12.419l0.653 12.776c0.396,4.199 0.208,8.934 0.274,13.179 0.032,2.062 0.194,4.007 0.186,6.13 -0.007,2.226 -0.172,4.349 -0.196,6.512 -0.051,4.469 -0.054,8.634 -0.319,13.111 -0.68,11.475 -1.257,26.076 -3.267,37.02 -0.966,5.407 -2.177,11.944 -2.754,17.389 -0.258,2.432 -0.827,10.057 -1.468,11.951 -0.68,2.01 -0.163,3.658 -0.568,5.77 -0.342,1.785 -0.742,3.812 -1.164,5.568 -0.463,1.93 -1.435,3.647 0.397,4.966 4.276,1.054 8.552,2.108 13.913,3.017 5.36,0.909 11.804,1.672 18.03,2.048 6.226,0.375 12.232,0.363 21.568,0.476 9.335,0.112 21.999,0.351 32.523,0.382 10.525,0.032 18.909,-0.144 26.242,-0.419 7.333,-0.275 13.615,-0.65 19.058,-1.151 5.443,-0.501 10.048,-1.126 13.829,-1.873 3.78,-0.746 6.736,-1.613 9.693,-2.48 1.832,-1.319 0.86,-3.036 0.397,-4.966 -0.422,-1.756 -0.822,-3.783 -1.164,-5.568 -0.405,-2.112 0.112,-3.76 -0.568,-5.77 -0.641,-1.894 -1.21,-9.519 -1.468,-11.951 -0.577,-5.445 -1.788,-11.982 -2.754,-17.389 -2.01,-10.944 -2.587,-25.545 -3.267,-37.02 -0.265,-4.477 -0.268,-8.642 -0.319,-13.111 -0.024,-2.163 -0.189,-4.286 -0.196,-6.512 -0.008,-2.123 0.154,-4.068 0.186,-6.13 0.066,-4.245 -0.122,-8.98 0.274,-13.179l0.653 -12.776c0.135,-4.15 0.661,-8.282 1.009,-12.419 0.686,-8.161 1.777,-16.231 2.512,-24.347 0.461,-5.079 1.889,-19.043 3.568,-23.29 0,4.474 -0.105,8.584 -0.105,13.06l0 0 -0.416 0.247c-0.004,0.882 0.338,12.091 0.604,13.423l21.579 -1.336c6.75,-0.726 8.129,-0.44 15.791,-1.554 1.364,-0.198 3.945,-0.235 5.07,-0.712 0.084,-0.351 0.145,-1.146 0.186,-2.164l0 -8.783 -0.065 -1.854c0.014,-0.687 0.062,-0.7 -0.083,-0.774 -0.05,-0.025 -0.122,-0.057 -0.225,-0.125 -0.416,-3.138 -0.703,-6.536 -1.288,-9.631 -0.58,-3.06 -1.252,-6.186 -1.752,-9.253 -0.989,-6.057 -1.4,-13.201 -2.969,-19.04 -3.158,-11.748 -10.138,-32.116 -21.401,-39.215 -1.057,-0.665 -1.895,-1.576 -2.919,-2.163z"/>
   </clipPath>
    <clipPath id="id1">
     <path d="M195.291 97.768c-0.085,-0.928 -0.17,-1.856 -0.308,-2.718 -0.137,-0.863 -0.329,-1.661 -0.099,-3.18 0.23,-1.519 0.881,-3.758 1.681,-6.311 0.801,-2.553 1.752,-5.418 2.565,-9.742 0.813,-4.323 1.489,-10.104 2.278,-15.986 0.788,-5.881 1.689,-11.863 2.652,-16.318 0.964,-4.454 1.99,-7.383 2.541,-9.31 0.55,-1.927 0.626,-2.853 0.663,-4.067 0.021,-0.674 0.03,-1.438 0.034,-2.242 -0.11,-0.063 -0.222,-0.122 -0.337,-0.177 -4.975,-2.38 -9.714,-5.334 -14.858,-7.149 -4.647,-1.639 -11.454,-2.699 -17.288,-4.719 -2.277,-0.789 -4.556,-1.589 -6.82,-2.415l-0.004 -0.03 -9.999 -4.08 -0.175 -0.072c-0.614,-0.28 -1.553,-1.207 -2.512,-1.889 -0.494,-0.369 -0.613,-0.563 -1.038,-0.905 -2.856,-2.299 -5.606,-5.635 -9.574,-5.641 -0.901,-0.002 -1.04,-0.123 -1.779,-0.163l-7.601 -0.17c-5.892,-0.486 -12.055,-0.501 -18.06,-0.477 -5.087,0.02 -9.557,0.063 -14.567,0.477 -2.529,0.209 -4.996,0.029 -7.6,0.17 -0.739,0.04 -0.878,0.161 -1.779,0.163 -3.968,0.006 -6.718,3.342 -9.575,5.641 -0.424,0.342 -0.543,0.536 -1.037,0.905 -0.741,0.527 -1.471,1.2 -2.047,1.608 -0.17,0.121 -0.326,0.218 -0.465,0.281l-10.174 4.152 -0.003 0.03c-2.265,0.826 -4.544,1.626 -6.821,2.415 -5.834,2.02 -12.641,3.08 -17.288,4.719 -5.144,1.815 -9.883,4.769 -14.858,7.149 -0.212,0.101 -0.412,0.215 -0.605,0.339 0.121,0.721 0.248,1.443 0.383,2.165 0.438,2.34 0.963,4.693 1.752,8.597 0.788,3.904 1.839,9.36 2.815,15.624 0.976,6.262 1.877,13.332 3.034,19.705 1.157,6.372 2.57,12.047 3.374,15.175 0.803,3.129 0.998,3.71 1.026,4.321 0.028,0.61 -0.11,1.248 -0.192,1.818 -0.083,0.57 -0.11,1.072 -0.138,1.574 1.678,4.247 3.328,18.944 3.789,24.023 0.735,8.116 1.826,16.186 2.512,24.347 0.348,4.137 0.874,8.269 1.009,12.419l0.653 12.776c0.396,4.199 0.208,8.934 0.274,13.179 0.032,2.062 0.194,4.007 0.186,6.13 -0.007,2.226 -0.172,4.349 -0.196,6.512 -0.051,4.469 -0.054,8.634 -0.319,13.111 -0.68,11.475 -1.257,26.076 -3.267,37.02 -0.966,5.407 -2.177,11.944 -2.754,17.389 -0.258,2.432 -0.827,10.057 -1.468,11.951 -0.68,2.01 -0.163,3.658 -0.568,5.77 -0.342,1.785 -0.742,3.812 -1.164,5.568 -0.463,1.93 -1.435,3.647 0.397,4.966 4.276,1.054 8.552,2.108 13.913,3.017 5.36,0.909 11.804,1.672 18.03,2.048 6.226,0.375 12.232,0.363 21.568,0.476 9.335,0.112 21.999,0.351 32.523,0.382 10.525,0.032 18.909,-0.144 26.242,-0.419 7.333,-0.275 13.615,-0.65 19.058,-1.151 5.443,-0.501 10.048,-1.126 13.829,-1.873 3.78,-0.746 6.736,-1.613 9.693,-2.48 1.832,-1.319 0.86,-3.036 0.397,-4.966 -0.422,-1.756 -0.822,-3.783 -1.164,-5.568 -0.405,-2.112 0.112,-3.76 -0.568,-5.77 -0.641,-1.894 -1.21,-9.519 -1.468,-11.951 -0.577,-5.445 -1.788,-11.982 -2.754,-17.389 -2.01,-10.944 -2.587,-25.545 -3.267,-37.02 -0.265,-4.477 -0.268,-8.642 -0.319,-13.111 -0.024,-2.163 -0.189,-4.286 -0.196,-6.512 -0.008,-2.123 0.154,-4.068 0.186,-6.13 0.066,-4.245 -0.122,-8.98 0.274,-13.179l0.653 -12.776c0.135,-4.15 0.661,-8.282 1.009,-12.419 0.686,-8.161 1.777,-16.231 2.512,-24.347 0.461,-5.079 1.889,-19.043 3.568,-23.29z"/>
    </clipPath>
    <clipPath id="id2">
     <path d="M207.298 27.894c-0.11,-0.063 -0.222,-0.122 -0.337,-0.177 -4.975,-2.38 -9.714,-5.334 -14.858,-7.149 -4.647,-1.639 -11.454,-2.699 -17.288,-4.719 -2.277,-0.789 -4.556,-1.589 -6.82,-2.415l-0.004 -0.03 -9.999 -4.08 -0.175 -0.072c-0.614,-0.28 -1.553,-1.207 -2.512,-1.889 -0.494,-0.369 -0.613,-0.563 -1.038,-0.905 -2.856,-2.299 -5.606,-5.635 -9.574,-5.641 -0.901,-0.002 -1.04,-0.123 -1.779,-0.163l-7.601 -0.17c-5.892,-0.486 -12.055,-0.501 -18.06,-0.477 -5.087,0.02 -9.557,0.063 -14.567,0.477 -2.529,0.209 -4.996,0.029 -7.6,0.17 -0.739,0.04 -0.878,0.161 -1.779,0.163 -3.968,0.006 -6.718,3.342 -9.575,5.641 -0.424,0.342 -0.543,0.536 -1.037,0.905 -0.741,0.527 -1.471,1.2 -2.047,1.608 -0.17,0.121 -0.326,0.218 -0.465,0.281l-10.174 4.152 -0.003 0.03c-2.265,0.826 -4.544,1.626 -6.821,2.415 -5.834,2.02 -12.641,3.08 -17.288,4.719 -5.144,1.815 -9.883,4.769 -14.858,7.149 -0.212,0.101 -0.412,0.215 -0.605,0.339 -0.909,0.583 -1.664,1.379 -2.651,2.001 -11.263,7.099 -18.243,27.467 -21.401,39.215 -1.569,5.839 -1.98,12.983 -2.969,19.04 -0.5,3.067 -1.172,6.193 -1.752,9.253 -0.585,3.095 -0.872,6.493 -1.288,9.631 -0.406,0.268 -0.327,-0.023 -0.308,0.899l-0.065 1.854 0 8.783c0.041,1.018 0.102,1.813 0.186,2.164 1.125,0.477 3.706,0.514 5.07,0.712 7.662,1.114 9.041,0.828 15.791,1.554l21.547 1.349c-0.015,-1.623 0.547,-10.725 0.578,-13.424l-0.603 -0.316 -0.07 -0.036c0,-4.476 -0.011,-9.226 -0.011,-13.7 1.678,4.247 3.328,18.944 3.789,24.023 0.735,8.116 1.826,16.186 2.512,24.347 0.348,4.137 0.874,8.269 1.009,12.419l0.653 12.776c0.396,4.199 0.208,8.934 0.274,13.179 0.032,2.062 0.194,4.007 0.186,6.13 -0.007,2.226 -0.172,4.349 -0.196,6.512 -0.051,4.469 -0.054,8.634 -0.319,13.111 -0.68,11.475 -1.257,26.076 -3.267,37.02 -0.966,5.407 -2.177,11.944 -2.754,17.389 -0.258,2.432 -0.827,10.057 -1.468,11.951 -0.68,2.01 -0.163,3.658 -0.568,5.77 -0.342,1.785 -0.742,3.812 -1.164,5.568 -0.463,1.93 -1.435,3.647 0.397,4.966 4.276,1.054 8.552,2.108 13.913,3.017 5.36,0.909 11.804,1.672 18.03,2.048 6.226,0.375 12.232,0.363 21.568,0.476 9.335,0.112 21.999,0.351 32.523,0.382 10.525,0.032 18.909,-0.144 26.242,-0.419 7.333,-0.275 13.615,-0.65 19.058,-1.151 5.443,-0.501 10.048,-1.126 13.829,-1.873 3.78,-0.746 6.736,-1.613 9.693,-2.48 1.832,-1.319 0.86,-3.036 0.397,-4.966 -0.422,-1.756 -0.822,-3.783 -1.164,-5.568 -0.405,-2.112 0.112,-3.76 -0.568,-5.77 -0.641,-1.894 -1.21,-9.519 -1.468,-11.951 -0.577,-5.445 -1.788,-11.982 -2.754,-17.389 -2.01,-10.944 -2.587,-25.545 -3.267,-37.02 -0.265,-4.477 -0.268,-8.642 -0.319,-13.111 -0.024,-2.163 -0.189,-4.286 -0.196,-6.512 -0.008,-2.123 0.154,-4.068 0.186,-6.13 0.066,-4.245 -0.122,-8.98 0.274,-13.179l0.653 -12.776c0.135,-4.15 0.661,-8.282 1.009,-12.419 0.686,-8.161 1.777,-16.231 2.512,-24.347 0.461,-5.079 1.889,-19.043 3.568,-23.29 0,4.474 -0.105,8.584 -0.105,13.06l0 0 -0.416 0.247c-0.004,0.882 0.338,12.091 0.604,13.423l21.579 -1.336c6.75,-0.726 8.129,-0.44 15.791,-1.554 1.364,-0.198 3.945,-0.235 5.07,-0.712 0.084,-0.351 0.145,-1.146 0.186,-2.164l0 -8.783 -0.065 -1.854c0.014,-0.687 0.062,-0.7 -0.083,-0.774 -0.05,-0.025 -0.122,-0.057 -0.225,-0.125 -0.416,-3.138 -0.703,-6.536 -1.288,-9.631 -0.58,-3.06 -1.252,-6.186 -1.752,-9.253 -0.989,-6.057 -1.4,-13.201 -2.969,-19.04 -3.158,-11.748 -10.138,-32.116 -21.401,-39.215 -1.057,-0.665 -1.895,-1.576 -2.919,-2.163z"/>
    </clipPath>
    <clipPath id="id3">
     <path d="M42.488 97.035c0.028,-0.502 0.055,-1.004 0.138,-1.574 0.082,-0.57 0.22,-1.208 0.192,-1.818 -0.028,-0.611 -0.223,-1.192 -1.026,-4.321 -0.804,-3.128 -2.217,-8.803 -3.374,-15.175 -1.157,-6.373 -2.058,-13.443 -3.034,-19.705 -0.976,-6.264 -2.027,-11.72 -2.815,-15.624 -0.789,-3.904 -1.314,-6.257 -1.752,-8.597 -0.135,-0.722 -0.262,-1.444 -0.383,-2.165 -0.909,0.583 -1.664,1.379 -2.651,2.001 -11.263,7.099 -18.243,27.467 -21.401,39.215 -1.569,5.839 -1.98,12.983 -2.969,19.04 -0.5,3.067 -1.172,6.193 -1.752,9.253 -0.585,3.095 -0.872,6.493 -1.288,9.631 0.744,0.196 1.489,0.392 4.426,0.672 2.938,0.279 8.068,0.642 13.143,1.005 5.074,0.363 10.092,0.726 13.996,1.045 3.905,0.319 6.695,0.595 8.372,0.73l0.055 0.004 0.053 0.004 0.053 0.004 0.052 0.004 0.051 0.004 0.051 0.004 0.05 0.004 0.048 0.004 0.001 0 0.048 0.003 0.048 0.004 0.046 0.003 0.047 0.003 0.045 0.004 0.045 0.003 0.044 0.003 0.044 0.003 0.042 0.003 0.043 0.003 0.041 0.002 0.041 0.003 0 0 0.041 0.002 0.039 0.003 0.039 0.002 0.001 0 0.038 0.003 0.038 0.002 0.037 0.002 0 0 0.037 0.002 0.036 0.002 0.036 0.002 0 0 0.035 0.002 0 0 0.035 0.002 0 0 0.034 0.002 0 0 0.033 0.002 0.033 0.001 0.001 0 0.032 0.002 0.032 0.002 0 0 0.031 0.001 0.001 0 0.031 0.001 0 0 0.03 0.002 0.001 0 0.029 0.001 0.001 0 0.029 0.001 0 0 0.029 0.002 0.001 0 0.028 0 0.001 0 0.028 0.002 0.028 0.001 0 0 0.028 0 0 0 0.027 0.001 0 0 0.027 0.001 0.026 0.001 0.001 0 0.025 0.001 0.001 0 0.025 0.001 0 0 0.025 0 0.001 0 0.025 0.001 0 0 0.024 0 0.001 0 0.024 0.001 0 0 0.024 0.001 0 0 0.023 0 0.001 0 0.023 0 0 0 0.023 0.001 0.001 0 0.022 0 0.001 0 0.022 0.001 0 0 0.022 0 0 0 0.022 0 0.001 0 0.021 0 0 0 -42.196 -3.575c-0.406,0.268 -0.327,-0.023 -0.308,0.899l-0.065 1.854 0 8.783c0.041,1.018 0.102,1.813 0.186,2.164 1.125,0.477 3.706,0.514 5.07,0.712 7.662,1.114 9.041,0.828 15.791,1.554l21.547 1.349c-0.015,-1.623 0.547,-10.725 0.578,-13.424l-0.603 -0.316 0 0 -0.07 -0.036c0,-4.476 -0.011,-9.226 -0.011,-13.7zm152.698 13.793l0 0 -0.416 0.247c-0.004,0.882 0.338,12.091 0.604,13.423l21.579 -1.336c6.75,-0.726 8.129,-0.44 15.791,-1.554 1.364,-0.198 3.945,-0.235 5.07,-0.712 0.084,-0.351 0.145,-1.146 0.186,-2.164l0 -8.783 -0.065 -1.854c0.014,-0.687 0.062,-0.7 -0.083,-0.774 -0.05,-0.025 -0.122,-0.057 -0.225,-0.125 -0.416,-3.138 -0.703,-6.536 -1.288,-9.631 -0.58,-3.06 -1.252,-6.186 -1.752,-9.253 -0.989,-6.057 -1.4,-13.201 -2.969,-19.04 -3.158,-11.748 -10.138,-32.116 -21.401,-39.215 -1.057,-0.665 -1.895,-1.576 -2.919,-2.163 -0.004,0.804 -0.013,1.568 -0.034,2.242 -0.037,1.214 -0.113,2.14 -0.663,4.067 -0.551,1.927 -1.577,4.856 -2.541,9.31 -0.963,4.455 -1.864,10.437 -2.652,16.318 -0.789,5.882 -1.465,11.663 -2.278,15.986 -0.813,4.324 -1.764,7.189 -2.565,9.742 -0.8,2.553 -1.451,4.792 -1.681,6.311 -0.23,1.519 -0.038,2.317 0.099,3.18 0.138,0.862 0.223,1.79 0.308,2.718 0,4.474 -0.105,8.584 -0.105,13.06z"/>
    </clipPath>
    <clipPath id="id4">
     <path d="M207.298 27.894c-0.11,-0.063 -0.222,-0.122 -0.337,-0.177 -4.975,-2.38 -9.714,-5.334 -14.858,-7.149 -4.647,-1.639 -11.454,-2.699 -17.288,-4.719 -2.277,-0.789 -4.556,-1.589 -6.82,-2.415l-0.004 -0.03 -9.999 -4.08 -0.175 -0.072c-0.614,-0.28 -1.553,-1.207 -2.512,-1.889 -0.494,-0.369 -0.613,-0.563 -1.038,-0.905 -2.856,-2.299 -5.606,-5.635 -9.574,-5.641 -0.901,-0.002 -1.04,-0.123 -1.779,-0.163l-7.601 -0.17c-5.892,-0.486 -12.055,-0.501 -18.06,-0.477 -5.087,0.02 -9.557,0.063 -14.567,0.477 -2.529,0.209 -4.996,0.029 -7.6,0.17 -0.739,0.04 -0.878,0.161 -1.779,0.163 -3.968,0.006 -6.718,3.342 -9.575,5.641 -0.424,0.342 -0.543,0.536 -1.037,0.905 -0.741,0.527 -1.471,1.2 -2.047,1.608 -0.17,0.121 -0.326,0.218 -0.465,0.281l-10.174 4.152 -0.003 0.03c-2.265,0.826 -4.544,1.626 -6.821,2.415 -5.834,2.02 -12.641,3.08 -17.288,4.719 -5.144,1.815 -9.883,4.769 -14.858,7.149 -0.212,0.101 -0.412,0.215 -0.605,0.339 -0.909,0.583 -1.664,1.379 -2.651,2.001 -11.263,7.099 -18.243,27.467 -21.401,39.215 -1.569,5.839 -1.98,12.983 -2.969,19.04 -0.5,3.067 -1.172,6.193 -1.752,9.253 -0.585,3.095 -0.872,6.493 -1.288,9.631 -0.406,0.268 -0.327,-0.023 -0.308,0.899l-0.065 1.854 0 8.783c0.041,1.018 0.102,1.813 0.186,2.164 1.125,0.477 3.706,0.514 5.07,0.712 7.662,1.114 9.041,0.828 15.791,1.554l21.547 1.349c-0.015,-1.623 0.547,-10.725 0.578,-13.424l-0.603 -0.316 -0.07 -0.036c0,-4.476 -0.011,-9.226 -0.011,-13.7 1.678,4.247 3.328,18.944 3.789,24.023 0.735,8.116 1.826,16.186 2.512,24.347 0.348,4.137 0.874,8.269 1.009,12.419l0.653 12.776c0.396,4.199 0.208,8.934 0.274,13.179 0.032,2.062 0.194,4.007 0.186,6.13 -0.007,2.226 -0.172,4.349 -0.196,6.512 -0.051,4.469 -0.054,8.634 -0.319,13.111 -0.68,11.475 -1.257,26.076 -3.267,37.02 -0.966,5.407 -2.177,11.944 -2.754,17.389 -0.258,2.432 -0.827,10.057 -1.468,11.951 -0.68,2.01 -0.163,3.658 -0.568,5.77 -0.342,1.785 -0.742,3.812 -1.164,5.568 -0.463,1.93 -1.435,3.647 0.397,4.966 4.276,1.054 8.552,2.108 13.913,3.017 5.36,0.909 11.804,1.672 18.03,2.048 6.226,0.375 12.232,0.363 21.568,0.476 9.335,0.112 21.999,0.351 32.523,0.382 10.525,0.032 18.909,-0.144 26.242,-0.419 7.333,-0.275 13.615,-0.65 19.058,-1.151 5.443,-0.501 10.048,-1.126 13.829,-1.873 3.78,-0.746 6.736,-1.613 9.693,-2.48 1.832,-1.319 0.86,-3.036 0.397,-4.966 -0.422,-1.756 -0.822,-3.783 -1.164,-5.568 -0.405,-2.112 0.112,-3.76 -0.568,-5.77 -0.641,-1.894 -1.21,-9.519 -1.468,-11.951 -0.577,-5.445 -1.788,-11.982 -2.754,-17.389 -2.01,-10.944 -2.587,-25.545 -3.267,-37.02 -0.265,-4.477 -0.268,-8.642 -0.319,-13.111 -0.024,-2.163 -0.189,-4.286 -0.196,-6.512 -0.008,-2.123 0.154,-4.068 0.186,-6.13 0.066,-4.245 -0.122,-8.98 0.274,-13.179l0.653 -12.776c0.135,-4.15 0.661,-8.282 1.009,-12.419 0.686,-8.161 1.777,-16.231 2.512,-24.347 0.461,-5.079 1.889,-19.043 3.568,-23.29 0,4.474 -0.105,8.584 -0.105,13.06l0 0 -0.416 0.247c-0.004,0.882 0.338,12.091 0.604,13.423l21.579 -1.336c6.75,-0.726 8.129,-0.44 15.791,-1.554 1.364,-0.198 3.945,-0.235 5.07,-0.712 0.084,-0.351 0.145,-1.146 0.186,-2.164l0 -8.783 -0.065 -1.854c0.014,-0.687 0.062,-0.7 -0.083,-0.774 -0.05,-0.025 -0.122,-0.057 -0.225,-0.125 -0.416,-3.138 -0.703,-6.536 -1.288,-9.631 -0.58,-3.06 -1.252,-6.186 -1.752,-9.253 -0.989,-6.057 -1.4,-13.201 -2.969,-19.04 -3.158,-11.748 -10.138,-32.116 -21.401,-39.215 -1.057,-0.665 -1.895,-1.576 -2.919,-2.163z"/>
    </clipPath>
 </defs>
 <g id="VETORES">
  <metadata id="CorelCorpID_0Corel-Layer"/>
  <g>
  </g>
  <g clip-path="url(#id0)">
   <g id="_2018274439120">
    <g>
    </g>
   </g>
   <g clip-path="url(#id1)">
   </g>
   <g clip-path="url(#id2)">
    <path id="torso" fill="none" d="M195.291 97.768c-0.085,-0.928 -0.17,-1.856 -0.308,-2.718 -0.137,-0.863 -0.329,-1.661 -0.099,-3.18 0.23,-1.519 0.881,-3.758 1.681,-6.311 0.801,-2.553 1.752,-5.418 2.565,-9.742 0.813,-4.323 1.489,-10.104 2.278,-15.986 0.788,-5.881 1.689,-11.863 2.652,-16.318 0.964,-4.454 1.99,-7.383 2.541,-9.31 0.55,-1.927 0.626,-2.853 0.663,-4.067 0.021,-0.674 0.03,-1.438 0.034,-2.242 -0.11,-0.063 -0.222,-0.122 -0.337,-0.177 -4.975,-2.38 -9.714,-5.334 -14.858,-7.149 -4.647,-1.639 -11.454,-2.699 -17.288,-4.719 -2.277,-0.789 -4.556,-1.589 -6.82,-2.415l-0.004 -0.03 -9.999 -4.08 -0.175 -0.072c-0.614,-0.28 -1.553,-1.207 -2.512,-1.889 -0.494,-0.369 -0.613,-0.563 -1.038,-0.905 -2.856,-2.299 -5.606,-5.635 -9.574,-5.641 -0.901,-0.002 -1.04,-0.123 -1.779,-0.163l-7.601 -0.17c-5.892,-0.486 -12.055,-0.501 -18.06,-0.477 -5.087,0.02 -9.557,0.063 -14.567,0.477 -2.529,0.209 -4.996,0.029 -7.6,0.17 -0.739,0.04 -0.878,0.161 -1.779,0.163 -3.968,0.006 -6.718,3.342 -9.575,5.641 -0.424,0.342 -0.543,0.536 -1.037,0.905 -0.741,0.527 -1.471,1.2 -2.047,1.608 -0.17,0.121 -0.326,0.218 -0.465,0.281l-10.174 4.152 -0.003 0.03c-2.265,0.826 -4.544,1.626 -6.821,2.415 -5.834,2.02 -12.641,3.08 -17.288,4.719 -5.144,1.815 -9.883,4.769 -14.858,7.149 -0.212,0.101 -0.412,0.215 -0.605,0.339 0.121,0.721 0.248,1.443 0.383,2.165 0.438,2.34 0.963,4.693 1.752,8.597 0.788,3.904 1.839,9.36 2.815,15.624 0.976,6.262 1.877,13.332 3.034,19.705 1.157,6.372 2.57,12.047 3.374,15.175 0.803,3.129 0.998,3.71 1.026,4.321 0.028,0.61 -0.11,1.248 -0.192,1.818 -0.083,0.57 -0.11,1.072 -0.138,1.574 1.678,4.247 3.328,18.944 3.789,24.023 0.735,8.116 1.826,16.186 2.512,24.347 0.348,4.137 0.874,8.269 1.009,12.419l0.653 12.776c0.396,4.199 0.208,8.934 0.274,13.179 0.032,2.062 0.194,4.007 0.186,6.13 -0.007,2.226 -0.172,4.349 -0.196,6.512 -0.051,4.469 -0.054,8.634 -0.319,13.111 -0.68,11.475 -1.257,26.076 -3.267,37.02 -0.966,5.407 -2.177,11.944 -2.754,17.389 -0.258,2.432 -0.827,10.057 -1.468,11.951 -0.68,2.01 -0.163,3.658 -0.568,5.77 -0.342,1.785 -0.742,3.812 -1.164,5.568 -0.463,1.93 -1.435,3.647 0.397,4.966 4.276,1.054 8.552,2.108 13.913,3.017 5.36,0.909 11.804,1.672 18.03,2.048 6.226,0.375 12.232,0.363 21.568,0.476 9.335,0.112 21.999,0.351 32.523,0.382 10.525,0.032 18.909,-0.144 26.242,-0.419 7.333,-0.275 13.615,-0.65 19.058,-1.151 5.443,-0.501 10.048,-1.126 13.829,-1.873 3.78,-0.746 6.736,-1.613 9.693,-2.48 1.832,-1.319 0.86,-3.036 0.397,-4.966 -0.422,-1.756 -0.822,-3.783 -1.164,-5.568 -0.405,-2.112 0.112,-3.76 -0.568,-5.77 -0.641,-1.894 -1.21,-9.519 -1.468,-11.951 -0.577,-5.445 -1.788,-11.982 -2.754,-17.389 -2.01,-10.944 -2.587,-25.545 -3.267,-37.02 -0.265,-4.477 -0.268,-8.642 -0.319,-13.111 -0.024,-2.163 -0.189,-4.286 -0.196,-6.512 -0.008,-2.123 0.154,-4.068 0.186,-6.13 0.066,-4.245 -0.122,-8.98 0.274,-13.179l0.653 -12.776c0.135,-4.15 0.661,-8.282 1.009,-12.419 0.686,-8.161 1.777,-16.231 2.512,-24.347 0.461,-5.079 1.889,-19.043 3.568,-23.29z"/>
    <g>
    </g>
   </g>
   <g clip-path="url(#id3)">
    <g>
     <path id="_1" fill="black" fill-rule="nonzero" d="M-109.36 134.752c4.355,-5.079 12.017,-13.37 22.415,-21.212 10.542,-7.95 23.931,-15.486 39.684,-18.947 5.486,-1.206 10.908,-1.857 15.067,-2.208 4.045,-0.341 7.172,-0.406 7.641,-0.414 11.298,-0.195 17.912,1.278 26.347,3.157 4.313,0.96 9.125,2.032 15.075,2.986l0.011 0.002c12.614,2.022 27.29,4.375 44.89,1.623 2.797,-0.437 7.517,-1.285 13.236,-2.96 5.798,-1.698 12.787,-4.273 20.263,-8.196 7.694,-4.038 13.777,-8.412 19.787,-13.724 6.228,-5.507 12.411,-12.013 20.118,-20.124 3.324,-3.499 7.328,-7.883 11.933,-13.288 4.54,-5.329 9.404,-11.358 14.322,-17.998l8.756 6.464c-5.3,7.156 -10.275,13.339 -14.771,18.616 -4.432,5.202 -8.663,9.819 -12.346,13.696 -7.949,8.365 -14.325,15.075 -20.791,20.791 -6.686,5.911 -13.434,10.766 -21.94,15.231 -8.115,4.258 -15.837,7.093 -22.296,8.984 -6.537,1.915 -11.618,2.836 -14.59,3.3 -19.189,3.001 -34.845,0.49 -48.301,-1.667l-0.011 -0.002c-6.536,-1.048 -11.372,-2.125 -15.707,-3.091 -7.752,-1.726 -13.83,-3.08 -23.792,-2.907 -0.381,0.006 -2.947,0.061 -6.947,0.398 -3.887,0.329 -8.863,0.917 -13.642,1.967 -13.926,3.06 -25.917,9.839 -35.427,17.011 -9.652,7.279 -16.713,14.916 -20.719,19.587l-8.265 -7.075zm-2.508 -74.617c2.594,-1.73 5.914,-3.77 9.944,-5.828 4.032,-2.06 8.732,-4.113 14.047,-5.843 10.706,-3.486 18.538,-3.987 28.361,-4.614 4.489,-0.287 9.424,-0.602 15.498,-1.301 4.448,-0.511 10.861,-1.248 17.21,-2.362 6.363,-1.116 12.971,-2.635 18.195,-4.74 4.016,-1.617 10.895,-5.084 18.367,-13.348 7.752,-8.574 16.053,-22.197 22.462,-44.028l10.484 3.072c-6.943,23.647 -16.168,38.662 -24.849,48.263 -8.959,9.909 -17.418,14.151 -22.377,16.148 -6.028,2.429 -13.399,4.137 -20.42,5.369 -7.035,1.234 -13.411,1.967 -17.834,2.475 -6.065,0.697 -11.302,1.032 -16.066,1.336 -9.051,0.579 -16.267,1.04 -25.681,4.105 -4.725,1.539 -8.875,3.349 -12.42,5.16 -3.547,1.811 -6.533,3.65 -8.892,5.222l-6.029 -9.086zm10.459 31.601c10.049,-5.657 19.45,-9.895 27.897,-13.101 8.455,-3.208 15.962,-5.385 22.21,-6.915 17.716,-4.337 36.077,-6.098 44.367,-6.893l0.001 0.001c9.447,-0.907 16.063,-1.2 21.217,-1.428 8.237,-0.365 12.418,-0.55 18.998,-3.083 14.385,-5.535 23.344,-15.334 28.967,-21.506l0.058 -0.065c7.548,-8.285 12.854,-16.974 16.603,-24.971 3.754,-8.007 5.944,-15.325 7.265,-20.854l10.616 2.531c-1.45,6.067 -3.858,14.108 -7.999,22.939 -4.116,8.779 -9.948,18.335 -18.26,27.503l-0.004 0.005 -0.173 0.19c-6.281,6.895 -16.311,17.906 -33.168,24.392 -8.27,3.183 -13.045,3.395 -22.45,3.811 -4.998,0.221 -11.412,0.506 -20.649,1.391l-0.002 0c-8.04,0.771 -25.849,2.479 -42.808,6.631 -5.879,1.439 -12.951,3.491 -20.934,6.52 -7.99,3.033 -16.885,7.043 -26.396,12.396l-5.356 -9.494zm45.765 209.119c1.521,-0.691 5.332,-2.529 9.382,-5.91 3.948,-3.295 8.108,-8.074 10.447,-14.689l0.001 0 0 -0.004c0.992,-2.805 3.363,-9.515 1.2,-16.38 -0.954,-3.026 -2.667,-5.642 -5.709,-8.375 -3.504,-3.148 -8.671,-6.448 -16.152,-10.508 -16.37,-8.884 -29.934,-13.809 -36.032,-16.023l-1.129 -0.411c-6.746,-2.468 -14.865,-5.806 -24.003,-10.399 -9.102,-4.576 -19.291,-10.439 -30.271,-18.002l6.155 -8.98c10.436,7.19 20.219,12.812 29.013,17.232 8.758,4.403 16.461,7.573 22.83,9.904l1.13 0.41c6.294,2.285 20.294,7.368 37.479,16.694 8.249,4.477 14.07,8.227 18.245,11.979 4.639,4.168 7.298,8.305 8.847,13.219 3.263,10.354 0.05,19.445 -1.294,23.245l0 0 -0.001 0.004c-3.116,8.812 -8.596,15.127 -13.787,19.46 -5.089,4.249 -9.916,6.575 -11.843,7.451l-4.508 -9.917zm-94.852 -80.726c9.523,4.279 17.661,7.803 24.545,10.701 6.514,2.742 12.741,5.26 18.141,7.402l0.646 0.256c8.57,3.396 16.122,6.389 22.995,14.566 3.99,4.745 6.405,9.746 7.9,14.093 1.46,4.243 2.031,7.848 2.341,9.927 1.222,8.194 0.314,15.516 -1.236,21.41 -1.56,5.936 -3.717,10.349 -5.037,12.792l-9.617 -5.179c1.099,-2.033 2.886,-5.672 4.115,-10.347 1.24,-4.717 1.969,-10.564 0.997,-17.079 -0.251,-1.679 -0.711,-4.589 -1.881,-7.991 -1.135,-3.299 -2.951,-7.074 -5.923,-10.609 -5.081,-6.044 -11.444,-8.566 -18.667,-11.428l-0.645 -0.256c-4.57,-1.813 -10.526,-4.232 -18.338,-7.521 -7.442,-3.133 -15.774,-6.733 -24.791,-10.785l4.455 -9.952zm177.238 89.745c4.886,-0.57 8.805,-1.677 11.95,-2.987 3.071,-1.278 5.398,-2.745 7.155,-4.077 2.121,-1.607 3.871,-3.409 5.591,-5.178 3.295,-3.391 6.496,-6.685 12.61,-9.702l0.021 0.003c0.017,-0.008 6.007,-2.963 13.687,-4.161 8.467,-1.322 17.336,0.659 25.4,3.889 14.774,5.918 27.011,16.2 27.923,16.981l-7.076 8.265c-0.813,-0.697 -11.723,-9.864 -24.894,-15.14 -6.442,-2.58 -13.373,-4.187 -19.673,-3.203 -5.909,0.922 -10.273,3.011 -10.563,3.152l0.005 0.011c-4.433,2.188 -6.984,4.812 -9.61,7.515 -1.963,2.021 -3.963,4.078 -6.852,6.267 -2.371,1.799 -5.487,3.767 -9.546,5.458 -3.987,1.66 -8.888,3.056 -14.89,3.755l-1.238 -10.848zm-119.965 -146.968c3.546,5.635 7.185,10.459 10.63,14.528 3.453,4.08 6.654,7.34 9.359,9.886 4.981,4.689 8.487,7.203 10.933,8.564 1.975,1.099 3.003,1.304 3.545,1.39 1.894,0.3 3.652,0.133 5.634,-0.055 2.954,-0.281 6.293,-0.598 11.564,0.061 1.851,0.232 3.677,0.545 5.721,1.043 2.019,0.493 4.334,1.18 7.213,2.167 5.364,1.841 10.638,4.031 17.202,7.342 6.52,3.29 14.242,7.638 24.524,13.803 7.279,4.365 11.733,7.18 14.838,9.587 3.545,2.747 5.308,4.903 6.977,7.771 0.729,1.254 2.326,4.072 3.48,7.924 1.182,3.946 1.888,8.961 0.744,14.517 -1.083,5.268 -3.486,9.405 -6.363,12.827 -2.72,3.235 -5.682,5.657 -8.315,7.809 -4.562,3.729 -7.783,5.226 -11.104,6.77 -1.729,0.803 -3.491,1.622 -5.554,2.911 -2.483,1.552 -5.355,3.768 -8.287,7.054 -3.034,3.401 -6.112,7.898 -8.877,13.903l-9.896 -4.532c3.309,-7.187 6.994,-12.571 10.627,-16.643 3.735,-4.187 7.436,-7.036 10.65,-9.044 2.534,-1.585 4.656,-2.571 6.738,-3.538 2.665,-1.239 5.249,-2.44 8.79,-5.334 2.282,-1.866 4.849,-3.965 6.864,-6.362 1.859,-2.21 3.398,-4.817 4.056,-8.015 0.703,-3.419 0.231,-6.631 -0.54,-9.204 -0.798,-2.666 -1.928,-4.658 -2.445,-5.546 -0.968,-1.664 -2.023,-2.94 -4.205,-4.632 -2.622,-2.031 -6.803,-4.66 -13.792,-8.851 -10.163,-6.095 -17.66,-10.324 -23.808,-13.425 -6.103,-3.079 -10.947,-5.095 -15.826,-6.769 -2.489,-0.854 -4.5,-1.451 -6.264,-1.881 -1.74,-0.424 -3.155,-0.673 -4.499,-0.841 -4.042,-0.505 -6.774,-0.246 -9.192,-0.016 -2.667,0.253 -5.033,0.477 -8.386,-0.053 -1.233,-0.195 -3.527,-0.635 -7.105,-2.627 -3.108,-1.73 -7.385,-4.754 -13.097,-10.133 -3.004,-2.826 -6.516,-6.396 -10.21,-10.761 -3.702,-4.374 -7.645,-9.609 -11.545,-15.804l9.221 -5.791zm-12.668 -13.75c6.238,0.227 12.034,0.414 17.574,0.562 5.318,0.142 9.757,0.229 13.42,0.26l0.084 0.001c2.17,0.019 6.197,0.053 11.485,1.034 6.779,1.259 11.533,3.299 13.722,4.237l0.255 0.11 -0.002 0.004c6.965,2.973 14.729,5.16 21.41,6.712 6.906,1.604 12.451,2.503 15.053,2.924 5.204,0.845 8.314,1.059 10.844,1.233 3.704,0.255 6.331,0.436 11.638,1.961 5.758,1.655 10.711,3.788 14.648,5.793 3.987,2.03 6.824,3.861 8.456,4.969 4.944,3.358 8.817,6.828 12.303,10.558 3.302,3.534 6.259,7.351 9.497,11.564 4.769,6.205 6.928,9.874 12.353,19.09 2.16,3.669 4.827,8.2 8.057,13.587 3.617,6.033 6.333,10.562 9.369,15.544l-0.014 0.009c2.1,3.445 3.352,5.432 3.891,6.135 3.094,4.032 7.688,8.782 14.76,13.265 7.244,4.592 17.051,8.885 30.445,11.849l-2.32 10.651c-14.811,-3.278 -25.782,-8.106 -33.971,-13.296 -8.36,-5.3 -13.852,-10.995 -17.578,-15.851 -0.76,-0.991 -2.205,-3.266 -4.524,-7.072l-0.021 -0.004c-1.388,-2.276 -4.82,-8 -9.398,-15.635 -3.574,-5.962 -6.07,-10.203 -8.092,-13.637 -5.294,-8.993 -7.401,-12.573 -11.58,-18.01 -2.991,-3.892 -5.726,-7.421 -8.85,-10.765 -2.94,-3.147 -6.226,-6.086 -10.447,-8.954 -1.466,-0.995 -3.974,-2.619 -7.269,-4.297 -3.345,-1.703 -7.613,-3.533 -12.702,-4.995 -4.325,-1.243 -6.433,-1.389 -9.406,-1.593 -2.724,-0.188 -6.072,-0.418 -11.862,-1.357 -2.808,-0.455 -8.791,-1.425 -15.727,-3.036 -7.154,-1.661 -15.538,-4.034 -23.233,-7.32l-0.021 -0.004 -0.256 -0.109c-1.857,-0.797 -5.894,-2.528 -11.412,-3.553 -4.364,-0.81 -7.773,-0.839 -9.61,-0.855l-0.084 -0.001c-4.155,-0.035 -8.655,-0.12 -13.638,-0.253 -4.761,-0.127 -10.628,-0.32 -17.658,-0.575l0.411 -10.88zm259.622 -43.718c-24.801,6.631 -39.904,12.056 -48.732,16.502 -6.867,3.459 -9.026,5.31 -9.022,6.309l0.019 0.379c0.078,1.596 0.221,4.537 -0.873,8.32 -2.011,6.958 -6.333,10.747 -10.555,14.45 -0.167,0.147 -0.339,0.298 -1.044,0.924 -0.81,0.719 -3.364,2.988 -6.428,6.052 -2.787,2.785 -5.737,5.996 -7.226,8.442 -2.321,3.815 -2.547,8.509 -1.912,13.087 0.711,5.116 2.526,10.232 3.89,14.074 5.504,15.507 17.144,27.948 28.588,37.1 11.635,9.306 23.1,15.219 27.908,17.586l-4.82 9.805c-5.128,-2.524 -17.364,-8.838 -29.904,-18.866 -12.731,-10.183 -25.738,-24.184 -32.063,-42.001 -1.519,-4.282 -3.543,-9.984 -4.405,-16.194 -0.937,-6.748 -0.467,-13.891 3.396,-20.24 2.071,-3.403 5.588,-7.282 8.822,-10.516 2.956,-2.955 5.975,-5.636 6.932,-6.487l1.094 -0.959c3.014,-2.643 6.098,-5.348 7.237,-9.286 0.597,-2.066 0.511,-3.836 0.464,-4.796 -0.014,-0.282 -0.025,-0.519 -0.027,-0.856 -0.021,-4.798 3.574,-10.27 15.043,-16.047 9.508,-4.788 25.321,-10.511 50.815,-17.326l2.803 10.544z"/>
     <path id="_1_0" fill="black" fill-rule="nonzero" d="M175.719 162.024c2.982,-5.989 8.385,-15.901 16.552,-26.046 8.279,-10.285 19.421,-20.864 33.851,-28.07 5.025,-2.509 10.124,-4.465 14.071,-5.822 3.839,-1.32 6.855,-2.146 7.309,-2.269 10.907,-2.95 17.68,-3.137 26.319,-3.377 4.417,-0.122 9.345,-0.259 15.348,-0.787l0.011 -0.001c12.726,-1.121 27.532,-2.426 43.925,-9.395 2.606,-1.107 6.975,-3.083 12.112,-6.105 5.207,-3.063 11.356,-7.268 17.646,-12.898 6.474,-5.796 11.304,-11.524 15.833,-18.144 4.695,-6.861 9.1,-14.681 14.592,-24.429 2.368,-4.206 5.179,-9.435 8.324,-15.801 3.1,-6.277 6.344,-13.312 9.491,-20.952l10.069 4.129c-3.391,8.233 -6.704,15.445 -9.774,21.661 -3.027,6.127 -6.001,11.638 -8.626,16.297 -5.663,10.053 -10.206,18.118 -15.08,25.241 -5.039,7.365 -10.396,13.722 -17.553,20.129 -6.828,6.113 -13.624,10.749 -19.425,14.161 -5.871,3.454 -10.573,5.589 -13.342,6.765 -17.874,7.599 -33.669,8.99 -47.244,10.186l-0.011 0.001c-6.593,0.58 -11.546,0.718 -15.986,0.841 -7.939,0.22 -14.163,0.392 -23.781,2.993 -0.368,0.1 -2.843,0.78 -6.639,2.085 -3.689,1.268 -8.371,3.055 -12.748,5.24 -12.756,6.37 -22.728,15.874 -30.196,25.152 -7.582,9.417 -12.562,18.547 -15.305,24.056l-9.743 -4.841zm-20.666 -71.743c2.094,-2.31 4.814,-5.1 8.219,-8.08 3.407,-2.983 7.463,-6.122 12.193,-9.099 9.53,-5.996 17.002,-8.395 26.375,-11.404 4.282,-1.375 8.991,-2.887 14.71,-5.048 4.189,-1.582 10.226,-3.864 16.111,-6.496 5.897,-2.637 11.934,-5.725 16.486,-9.042 3.499,-2.55 9.322,-7.592 14.548,-17.432 5.422,-10.207 10.142,-25.447 11.024,-48.181l10.916 0.417c-0.955,24.626 -6.231,41.441 -12.303,52.872 -6.267,11.798 -13.432,17.978 -17.753,21.126 -5.251,3.828 -11.982,7.285 -18.489,10.195 -6.52,2.916 -12.524,5.185 -16.688,6.758 -5.712,2.159 -10.708,3.763 -15.253,5.222 -8.636,2.773 -15.52,4.983 -23.9,10.255 -4.206,2.647 -7.788,5.417 -10.782,8.038 -2.997,2.624 -5.444,5.136 -7.347,7.237l-8.067 -7.338zm17.864 28.088c8.363,-7.941 16.443,-14.348 23.85,-19.52 7.415,-5.177 14.163,-9.123 19.848,-12.133 16.119,-8.534 33.493,-14.728 41.337,-17.524l0.002 0c8.939,-3.187 15.282,-5.088 20.225,-6.569 7.897,-2.367 11.907,-3.568 17.669,-7.632 12.596,-8.882 18.889,-20.573 22.833,-27.932l0.041 -0.077c5.295,-9.879 8.316,-19.601 9.997,-28.271 1.684,-8.681 2.019,-16.313 1.95,-21.997l10.912 -0.14c0.077,6.237 -0.294,14.623 -2.151,24.198 -1.845,9.519 -5.166,20.21 -10.986,31.131l-0.003 0.007 -0.121 0.226c-4.406,8.221 -11.442,21.348 -26.203,31.757 -7.241,5.107 -11.82,6.479 -20.838,9.181 -4.792,1.436 -10.943,3.279 -19.683,6.395l-0.002 0c-7.608,2.713 -24.46,8.72 -39.89,16.89 -5.349,2.832 -11.706,6.55 -18.706,11.438 -7.007,4.893 -14.653,10.955 -22.567,18.47l-7.514 -7.898zm95.477 191.598c1.306,-1.042 4.552,-3.756 7.653,-8.024 3.023,-4.16 5.889,-9.811 6.541,-16.797l0 0 0 -0.003c0.276,-2.963 0.937,-10.048 -2.84,-16.177 -1.663,-2.702 -3.964,-4.819 -7.581,-6.726 -4.167,-2.197 -9.984,-4.134 -18.23,-6.243 -18.045,-4.615 -32.401,-6.076 -38.855,-6.733l-1.196 -0.122c-7.145,-0.745 -15.832,-1.998 -25.816,-4.219 -9.944,-2.213 -21.257,-5.409 -33.752,-10.06l3.774 -10.211c11.877,4.421 22.737,7.482 32.345,9.62 9.568,2.129 17.812,3.321 24.558,4.025l1.195 0.122c6.662,0.678 21.48,2.186 40.422,7.03 9.093,2.325 15.654,4.539 20.62,7.158 5.516,2.908 9.106,6.269 11.808,10.656 5.694,9.242 4.8,18.843 4.426,22.856l-0.001 0 0 0.004c-0.868,9.307 -4.639,16.77 -8.614,22.24 -3.896,5.363 -8.008,8.798 -9.663,10.119l-6.794 -8.515zm-111.702 -55.103c10.279,1.823 19.032,3.252 26.415,4.38 6.987,1.067 13.64,1.987 19.4,2.744l0.688 0.091c9.141,1.199 17.195,2.256 25.858,8.505 5.029,3.627 8.592,7.887 11.105,11.736 2.452,3.758 3.886,7.114 4.695,9.055 3.187,7.646 4.096,14.968 4.033,21.062 -0.063,6.137 -1.076,10.944 -1.759,13.635l-10.59 -2.672c0.569,-2.24 1.412,-6.205 1.461,-11.039 0.05,-4.877 -0.672,-10.724 -3.206,-16.805 -0.654,-1.567 -1.811,-4.276 -3.777,-7.289 -1.907,-2.921 -4.59,-6.138 -8.335,-8.84 -6.404,-4.619 -13.191,-5.51 -20.894,-6.521l-0.688 -0.09c-4.874,-0.641 -11.242,-1.532 -19.62,-2.812 -7.982,-1.219 -16.941,-2.675 -26.675,-4.401l1.889 -10.739zm193.793 43.717c4.599,-1.746 8.13,-3.778 10.858,-5.816 2.666,-1.99 4.564,-3.981 5.943,-5.702 1.663,-2.077 2.921,-4.251 4.156,-6.387 2.367,-4.094 4.666,-8.07 9.857,-12.49l0.021 -0.001c0.015,-0.013 5.101,-4.341 12.255,-7.38 7.888,-3.351 16.972,-3.597 25.581,-2.435 15.772,2.128 30.15,9.108 31.226,9.643l-4.842 9.743c-0.959,-0.476 -13.778,-6.7 -27.839,-8.597 -6.877,-0.929 -13.991,-0.793 -19.86,1.7 -5.504,2.339 -9.226,5.431 -9.472,5.638l0.008 0.01c-3.764,3.204 -5.596,6.372 -7.483,9.635 -1.41,2.439 -2.846,4.922 -5.112,7.752 -1.861,2.323 -4.401,4.993 -7.924,7.624 -3.461,2.584 -7.872,5.136 -13.521,7.28l-3.852 -10.217zm-152.24 -113.199c4.817,4.597 9.524,8.386 13.858,11.49 4.345,3.112 8.246,5.491 11.491,7.299 5.976,3.33 9.99,4.911 12.694,5.633 2.184,0.584 3.232,0.531 3.777,0.482 1.91,-0.172 3.575,-0.764 5.451,-1.431 2.795,-0.993 5.956,-2.117 11.228,-2.766 1.851,-0.227 3.698,-0.37 5.802,-0.386 2.079,-0.016 4.492,0.084 7.524,0.339 5.651,0.475 11.3,1.309 18.475,2.916 7.126,1.597 15.676,3.926 27.154,7.392 8.124,2.454 13.131,4.096 16.73,5.67 4.109,1.798 6.345,3.458 8.664,5.831 1.014,1.038 3.251,3.38 5.311,6.834 2.11,3.537 4.02,8.227 4.269,13.895 0.236,5.372 -1.083,9.971 -3.037,13.992 -1.847,3.802 -4.127,6.874 -6.154,9.605 -3.513,4.731 -6.27,6.969 -9.114,9.277 -1.479,1.202 -2.988,2.426 -4.673,4.181 -2.029,2.111 -4.272,4.962 -6.313,8.865 -2.111,4.039 -3.996,9.152 -5.21,15.651l-10.704 -1.977c1.453,-7.778 3.71,-13.899 6.238,-18.736 2.599,-4.972 5.492,-8.639 8.117,-11.372 2.071,-2.155 3.888,-3.63 5.67,-5.077 2.281,-1.852 4.494,-3.648 7.22,-7.32 1.757,-2.367 3.734,-5.03 5.102,-7.846 1.262,-2.597 2.117,-5.501 1.974,-8.763 -0.153,-3.487 -1.396,-6.487 -2.772,-8.794 -1.426,-2.389 -3.008,-4.046 -3.727,-4.78 -1.344,-1.377 -2.68,-2.356 -5.209,-3.463 -3.039,-1.33 -7.735,-2.857 -15.536,-5.214 -11.345,-3.426 -19.648,-5.695 -26.367,-7.2 -6.671,-1.494 -11.861,-2.265 -17,-2.697 -2.623,-0.22 -4.719,-0.307 -6.535,-0.293 -1.79,0.014 -3.223,0.118 -4.568,0.284 -4.042,0.497 -6.629,1.416 -8.917,2.23 -2.524,0.897 -4.764,1.693 -8.145,1.998 -1.243,0.112 -3.575,0.246 -7.531,-0.811 -3.437,-0.918 -8.323,-2.806 -15.176,-6.625 -3.603,-2.008 -7.881,-4.611 -12.53,-7.941 -4.659,-3.337 -9.762,-7.45 -15.056,-12.504l7.525 -7.868zm-15.643 -10.238c6.104,-1.304 11.77,-2.54 17.179,-3.75 5.191,-1.161 9.517,-2.161 13.077,-3.026l0.081 -0.02c2.109,-0.512 6.022,-1.463 11.389,-1.804 6.882,-0.435 11.99,0.381 14.341,0.756l0.275 0.044 -0.001 0.005c7.48,1.18 15.543,1.404 22.401,1.277 7.089,-0.132 12.685,-0.616 15.311,-0.843 5.253,-0.453 8.321,-1.005 10.817,-1.454 3.654,-0.658 6.245,-1.125 11.765,-0.943 5.987,0.198 11.311,1.056 15.618,2.038 4.363,0.995 7.562,2.077 9.414,2.752 5.615,2.049 10.219,4.467 14.51,7.232 4.066,2.621 7.866,5.6 12.035,8.893 6.141,4.852 9.131,7.882 16.644,15.493 2.99,3.03 6.683,6.772 11.133,11.207 4.981,4.966 8.721,8.694 12.883,12.783l-0.012 0.012c2.878,2.828 4.578,4.448 5.272,4.998 3.986,3.154 9.601,6.638 17.554,9.257 8.146,2.682 18.705,4.449 32.418,4.05l0.352 10.895c-15.162,0.441 -26.981,-1.56 -36.19,-4.592 -9.401,-3.097 -16.119,-7.277 -20.918,-11.075 -0.98,-0.775 -2.936,-2.628 -6.116,-5.752l-0.021 0.001c-1.901,-1.868 -6.627,-6.579 -12.933,-12.865 -4.923,-4.907 -8.379,-8.41 -11.178,-11.246 -7.332,-7.427 -10.25,-10.384 -15.63,-14.635 -3.852,-3.042 -7.366,-5.797 -11.212,-8.276 -3.621,-2.333 -7.525,-4.38 -12.319,-6.129 -1.665,-0.607 -4.493,-1.569 -8.098,-2.391 -3.661,-0.834 -8.246,-1.565 -13.538,-1.74 -4.498,-0.149 -6.577,0.226 -9.51,0.753 -2.688,0.484 -5.99,1.079 -11.834,1.583 -2.834,0.245 -8.873,0.767 -15.992,0.9 -7.344,0.136 -16.053,-0.116 -24.318,-1.422l-0.021 0.002 -0.275 -0.044c-1.996,-0.319 -6.333,-1.011 -11.934,-0.657 -4.43,0.281 -7.742,1.086 -9.528,1.52l-0.081 0.019c-4.038,0.981 -8.422,1.999 -13.287,3.087 -4.648,1.04 -10.384,2.287 -17.263,3.757l-2.26 -10.65zm241.07 -105.832c-22.429,12.49 -35.749,21.442 -43.223,27.91 -5.813,5.032 -7.455,7.354 -7.207,8.322l0.111 0.363c0.465,1.529 1.323,4.346 1.187,8.281 -0.251,7.238 -3.515,11.969 -6.704,16.591 -0.127,0.184 -0.257,0.372 -0.788,1.152 -0.609,0.895 -2.531,3.719 -4.754,7.438 -2.021,3.383 -4.098,7.216 -4.943,9.952 -1.319,4.267 -0.392,8.873 1.343,13.157 1.939,4.788 4.95,9.305 7.211,12.697 9.126,13.692 23.454,22.912 36.787,28.991 13.556,6.18 26.118,9.113 31.359,10.233l-2.278 10.686c-5.589,-1.195 -18.998,-4.327 -33.607,-10.988 -14.834,-6.763 -30.868,-17.161 -41.354,-32.893 -2.52,-3.781 -5.875,-8.815 -8.229,-14.626 -2.557,-6.315 -3.848,-13.356 -1.653,-20.457 1.177,-3.805 3.64,-8.427 5.986,-12.352 2.144,-3.589 4.416,-6.926 5.137,-7.985l0.826 -1.197c2.276,-3.299 4.606,-6.676 4.748,-10.773 0.074,-2.149 -0.442,-3.844 -0.721,-4.764 -0.083,-0.27 -0.152,-0.497 -0.236,-0.824 -1.193,-4.646 0.956,-10.831 10.666,-19.235 8.049,-6.967 21.985,-16.38 45.041,-29.218l5.295 9.539z"/>
    </g>
   </g>
   <g clip-path="url(#id4)">
    <path fill="none" d="M42.488 97.035c0.028,-0.502 0.055,-1.004 0.138,-1.574 0.082,-0.57 0.22,-1.208 0.192,-1.818 -0.028,-0.611 -0.223,-1.192 -1.026,-4.321 -0.804,-3.128 -2.217,-8.803 -3.374,-15.175 -1.157,-6.373 -2.058,-13.443 -3.034,-19.705 -0.976,-6.264 -2.027,-11.72 -2.815,-15.624 -0.789,-3.904 -1.314,-6.257 -1.752,-8.597 -0.135,-0.722 -0.262,-1.444 -0.383,-2.165 -0.909,0.583 -1.664,1.379 -2.651,2.001 -11.263,7.099 -18.243,27.467 -21.401,39.215 -1.569,5.839 -1.98,12.983 -2.969,19.04 -0.5,3.067 -1.172,6.193 -1.752,9.253 -0.585,3.095 -0.872,6.493 -1.288,9.631 -0.406,0.268 -0.327,-0.023 -0.308,0.899l-0.065 1.854 0 8.783c0.041,1.018 0.102,1.813 0.186,2.164 1.125,0.477 3.706,0.514 5.07,0.712 7.662,1.114 9.041,0.828 15.791,1.554l21.547 1.349c-0.015,-1.623 0.547,-10.725 0.578,-13.424l-0.603 -0.316 0 0 -0.07 -0.036c0,-4.476 -0.011,-9.226 -0.011,-13.7zm152.698 13.793l0 0 -0.416 0.247c-0.004,0.882 0.338,12.091 0.604,13.423l21.579 -1.336c6.75,-0.726 8.129,-0.44 15.791,-1.554 1.364,-0.198 3.945,-0.235 5.07,-0.712 0.084,-0.351 0.145,-1.146 0.186,-2.164l0 -8.783 -0.065 -1.854c0.014,-0.687 0.062,-0.7 -0.083,-0.774 -0.05,-0.025 -0.122,-0.057 -0.225,-0.125 -0.416,-3.138 -0.703,-6.536 -1.288,-9.631 -0.58,-3.06 -1.252,-6.186 -1.752,-9.253 -0.989,-6.057 -1.4,-13.201 -2.969,-19.04 -3.158,-11.748 -10.138,-32.116 -21.401,-39.215 -1.057,-0.665 -1.895,-1.576 -2.919,-2.163 -0.004,0.804 -0.013,1.568 -0.034,2.242 -0.037,1.214 -0.113,2.14 -0.663,4.067 -0.551,1.927 -1.577,4.856 -2.541,9.31 -0.963,4.455 -1.864,10.437 -2.652,16.318 -0.789,5.882 -1.465,11.663 -2.278,15.986 -0.813,4.324 -1.764,7.189 -2.565,9.742 -0.8,2.553 -1.451,4.792 -1.681,6.311 -0.23,1.519 -0.038,2.317 0.099,3.18 0.138,0.862 0.223,1.79 0.308,2.718 0,4.474 -0.105,8.584 -0.105,13.06zm-194.813 -3.632c0.744,0.196 1.489,0.392 4.426,0.672 2.938,0.279 8.068,0.642 13.143,1.005 5.074,0.363 10.092,0.726 13.996,1.045 3.905,0.319 6.695,0.595 8.372,0.73l0.055 0.004 0.053 0.004 0.053 0.004 0.052 0.004 0.051 0.004 0.051 0.004 0.05 0.004 0.048 0.004 0.001 0 0.048 0.003 0.048 0.004 0.046 0.003 0.047 0.003 0.045 0.004 0.045 0.003 0.044 0.003 0.044 0.003 0.042 0.003 0.043 0.003 0.041 0.002 0.041 0.003 0 0 0.041 0.002 0.039 0.003 0.039 0.002 0.001 0 0.038 0.003 0.038 0.002 0.037 0.002 0 0 0.037 0.002 0.036 0.002 0.036 0.002 0 0 0.035 0.002 0 0 0.035 0.002 0 0 0.034 0.002 0 0 0.033 0.002 0.033 0.001 0.001 0 0.032 0.002 0.032 0.002 0 0 0.031 0.001 0.001 0 0.031 0.001 0 0 0.03 0.002 0.001 0 0.029 0.001 0.001 0 0.029 0.001 0 0 0.029 0.002 0.001 0 0.028 0 0.001 0 0.028 0.002 0.028 0.001 0 0 0.028 0 0 0 0.027 0.001 0 0 0.027 0.001 0.026 0.001 0.001 0 0.025 0.001 0.001 0 0.025 0.001 0 0 0.025 0 0.001 0 0.025 0.001 0 0 0.024 0 0.001 0 0.024 0.001 0 0 0.024 0.001 0 0 0.023 0 0.001 0 0.023 0 0 0 0.023 0.001 0.001 0 0.022 0 0.001 0 0.022 0.001 0 0 0.022 0 0 0 0.022 0 0.001 0 0.021 0 0 0 -42.196 -3.575z"/>
   </g>
  </g>
  <path fill="none" d="M207.298 27.894c-0.11,-0.063 -0.222,-0.122 -0.337,-0.177 -4.975,-2.38 -9.714,-5.334 -14.858,-7.149 -4.647,-1.639 -11.454,-2.699 -17.288,-4.719 -2.277,-0.789 -4.556,-1.589 -6.82,-2.415l-0.004 -0.03 -9.999 -4.08 -0.175 -0.072c-0.614,-0.28 -1.553,-1.207 -2.512,-1.889 -0.494,-0.369 -0.613,-0.563 -1.038,-0.905 -2.856,-2.299 -5.606,-5.635 -9.574,-5.641 -0.901,-0.002 -1.04,-0.123 -1.779,-0.163l-7.601 -0.17c-5.892,-0.486 -12.055,-0.501 -18.06,-0.477 -5.087,0.02 -9.557,0.063 -14.567,0.477 -2.529,0.209 -4.996,0.029 -7.6,0.17 -0.739,0.04 -0.878,0.161 -1.779,0.163 -3.968,0.006 -6.718,3.342 -9.575,5.641 -0.424,0.342 -0.543,0.536 -1.037,0.905 -0.741,0.527 -1.471,1.2 -2.047,1.608 -0.17,0.121 -0.326,0.218 -0.465,0.281l-10.174 4.152 -0.003 0.03c-2.265,0.826 -4.544,1.626 -6.821,2.415 -5.834,2.02 -12.641,3.08 -17.288,4.719 -5.144,1.815 -9.883,4.769 -14.858,7.149 -0.212,0.101 -0.412,0.215 -0.605,0.339 -0.909,0.583 -1.664,1.379 -2.651,2.001 -11.263,7.099 -18.243,27.467 -21.401,39.215 -1.569,5.839 -1.98,12.983 -2.969,19.04 -0.5,3.067 -1.172,6.193 -1.752,9.253 -0.585,3.095 -0.872,6.493 -1.288,9.631 -0.406,0.268 -0.327,-0.023 -0.308,0.899l-0.065 1.854 0 8.783c0.041,1.018 0.102,1.813 0.186,2.164 1.125,0.477 3.706,0.514 5.07,0.712 7.662,1.114 9.041,0.828 15.791,1.554l21.547 1.349c-0.015,-1.623 0.547,-10.725 0.578,-13.424l-0.603 -0.316 -0.07 -0.036c0,-4.476 -0.011,-9.226 -0.011,-13.7 1.678,4.247 3.328,18.944 3.789,24.023 0.735,8.116 1.826,16.186 2.512,24.347 0.348,4.137 0.874,8.269 1.009,12.419l0.653 12.776c0.396,4.199 0.208,8.934 0.274,13.179 0.032,2.062 0.194,4.007 0.186,6.13 -0.007,2.226 -0.172,4.349 -0.196,6.512 -0.051,4.469 -0.054,8.634 -0.319,13.111 -0.68,11.475 -1.257,26.076 -3.267,37.02 -0.966,5.407 -2.177,11.944 -2.754,17.389 -0.258,2.432 -0.827,10.057 -1.468,11.951 -0.68,2.01 -0.163,3.658 -0.568,5.77 -0.342,1.785 -0.742,3.812 -1.164,5.568 -0.463,1.93 -1.435,3.647 0.397,4.966 4.276,1.054 8.552,2.108 13.913,3.017 5.36,0.909 11.804,1.672 18.03,2.048 6.226,0.375 12.232,0.363 21.568,0.476 9.335,0.112 21.999,0.351 32.523,0.382 10.525,0.032 18.909,-0.144 26.242,-0.419 7.333,-0.275 13.615,-0.65 19.058,-1.151 5.443,-0.501 10.048,-1.126 13.829,-1.873 3.78,-0.746 6.736,-1.613 9.693,-2.48 1.832,-1.319 0.86,-3.036 0.397,-4.966 -0.422,-1.756 -0.822,-3.783 -1.164,-5.568 -0.405,-2.112 0.112,-3.76 -0.568,-5.77 -0.641,-1.894 -1.21,-9.519 -1.468,-11.951 -0.577,-5.445 -1.788,-11.982 -2.754,-17.389 -2.01,-10.944 -2.587,-25.545 -3.267,-37.02 -0.265,-4.477 -0.268,-8.642 -0.319,-13.111 -0.024,-2.163 -0.189,-4.286 -0.196,-6.512 -0.008,-2.123 0.154,-4.068 0.186,-6.13 0.066,-4.245 -0.122,-8.98 0.274,-13.179l0.653 -12.776c0.135,-4.15 0.661,-8.282 1.009,-12.419 0.686,-8.161 1.777,-16.231 2.512,-24.347 0.461,-5.079 1.889,-19.043 3.568,-23.29 0,4.474 -0.105,8.584 -0.105,13.06l0 0 -0.416 0.247c-0.004,0.882 0.338,12.091 0.604,13.423l21.579 -1.336c6.75,-0.726 8.129,-0.44 15.791,-1.554 1.364,-0.198 3.945,-0.235 5.07,-0.712 0.084,-0.351 0.145,-1.146 0.186,-2.164l0 -8.783 -0.065 -1.854c0.014,-0.687 0.062,-0.7 -0.083,-0.774 -0.05,-0.025 -0.122,-0.057 -0.225,-0.125 -0.416,-3.138 -0.703,-6.536 -1.288,-9.631 -0.58,-3.06 -1.252,-6.186 -1.752,-9.253 -0.989,-6.057 -1.4,-13.201 -2.969,-19.04 -3.158,-11.748 -10.138,-32.116 -21.401,-39.215 -1.057,-0.665 -1.895,-1.576 -2.919,-2.163z"/>
 </g>
</svg>
