<?xml version="1.0" encoding="utf-8"?>
<!-- Generator: Adobe Illustrator 16.0.3, SVG Export Plug-In . SVG Version: 6.00 Build 0)  -->
<!DOCTYPE svg PUBLIC "-//W3C//DTD SVG 1.1//EN" "http://www.w3.org/Graphics/SVG/1.1/DTD/svg11.dtd">
<svg version="1.1"
	 id="Layer_1" image-rendering="optimizeQuality" text-rendering="geometricPrecision" shape-rendering="geometricPrecision" xmlns:xodm="http://www.corel.com/coreldraw/odm/2003"
	 xmlns="http://www.w3.org/2000/svg" xmlns:xlink="http://www.w3.org/1999/xlink" x="0px" y="0px" width="240px" height="296px"
	 viewBox="0 0 240 296" enable-background="new 0 0 240 296" xml:space="preserve">
<g id="Camada_x0020_1">
	<path id="d4" fill="#F00808" d="M195.373,103.33v-2.999h-0.543v6.338c0.168-1.103,0.328-2.1,0.481-2.987L195.373,103.33z
		 M194.155,111.463h-0.267v-2.662h-0.207v-0.744h-0.544v1.059h-0.116v2.347h-0.543v-1.221h-0.28v1.221v-3.017h-0.403v-4.269h-0.142
		v-1.199h-0.543v7.263h-0.31v1.221v-3.017h-0.529v-3.248h-0.559v5.507h-0.295v0.277h-0.029v0.48v-3.017h-0.436v-4.566h-0.545v1.318
		h-0.107v5.507h-0.224v-3.879h-0.545v4.688h-0.335v-6.265h-0.545v1.576h-0.516v6.368h-0.218v-2.857h-0.544v-5.563h-0.545v1.754
		h-0.14v6.667h-0.511v0.436h-0.158v-3.266h-0.148v-3.089h-0.035v-0.747h-0.545v1.37h-0.359v2.934h-0.148v2.798h-0.159v-3.266h-0.2
		v-3.836h-0.545v1.37h-0.226v-0.477h-0.544v2.854h-0.149v0.088h-0.292v-2.466h-0.376v-7.568h-0.543v7.091h-0.035v2.501h-0.106
		v-0.242h-0.402v3.306h-0.359v-5.565h-0.544v2.501h-0.091v-0.438h-0.428v0.743h-0.333v-1.048h-0.546v0.742h-0.105v-0.438h-0.225
		v-6.506h-0.545v2.599h-0.336v5.329h-0.517v-4.721h-0.543v6.143h-0.545v0.546h-0.151v-3.689v2.162h-0.172v-5.162h-0.371v-0.548
		h-0.545v6.691h-0.172v0.546h-0.159v-4.649h-0.543v0.537h-0.472v1.161h-0.381v-1.698h-0.544v-0.198h-0.201v1.727h-0.278v1.593
		h-0.388v-3.122h-0.545v0.06h-0.036v0.087h-0.119v1.381h-0.389v0.441h-0.295v1.215h-0.049v-3.125h-0.543v-0.257h-0.544v-6.715
		h-0.544v6.972h-0.324v0.486h-0.406v-0.713h-0.396v3.352h-0.148v-3.025h-0.543v0.386h-0.396v2.25h-0.278v-2.394v2.01h-0.544v-1.26
		h-0.139v-5.417h-0.544v7.061h-0.308v-1.681v1.336h-0.544v-4.492h-0.544v1.843h-0.23v-7.698h-0.543v10.347h-0.094v-4.492h-0.544
		v4.848h-0.015v-8.481h-0.544v8.413h-0.544v-2.162v0.681h-0.174v1.548h-0.541v-1.655h-0.545v0.957h-0.176v-7.357h-0.545v5.247
		h-0.307v2.452h-0.344v-5.479h-0.201v-2.22h-0.543v4.772h-0.232v3.386h-0.092v-0.459h-0.328v-5.479h-0.217v-2.22h-0.543v8.481
		h-0.537v-3.709h-0.113v-2.552h-0.545v3.027h-0.393v0.958h-0.121v-8.695h-0.544v4.762h-0.544v3.016v-0.041h-0.203v0.958h-0.392
		v1.215h-0.544v-0.414h-0.033v-1.435h-0.287v1.849h-0.544v0.099h-0.005v-0.099h-0.542v-0.414h-0.081v-6.847h-0.545v4.761h-0.544
		v0.916h-0.255v-0.775h-0.053v-5.06h-0.544v4.92h-0.544v3.299h-0.033v-2.871h-0.291v-5.348h-0.544v4.92h-0.544v3.299h-0.304v-1.852
		h-0.321v2.117h-0.344v-0.069h-0.545v-1.126h-0.543v1.196h-0.508v-0.776h-0.232v-4.889h-0.543v-6.329h-0.545v11.994h-0.091v-0.776
		h-0.304v0.776h-0.545v-2.662h-0.207v-0.744h-0.544v1.059h-0.116v2.347h-0.545v-1.221h-0.279v1.221v-3.017h-0.402v-4.269h-0.143
		v-2.062h-0.543v8.125h-0.309v1.221v-3.017h-0.543v-2.261h-0.545v4.521h-0.295v0.277h-0.027v0.48v-3.017h-0.303v-4.566h-0.544v2.305
		h-0.243v4.521h-0.225v-3.879h-0.544v3.101h-0.335v-0.28h-0.518v-2.821h-0.543v6.368h-0.219v-3.133h-0.543v-6.256h-0.545v2.722
		h-0.006v0.298h-0.1v6.368h-0.545v0.436h-0.158v-1.055h-0.186v-6.047h-0.148v-3.953h-0.545v5.92h-0.209v1.217h-0.335v0.651h-0.173
		v-3.836h-0.545v1.37h-0.227v-1.444h-0.148v-5.965h-0.545v8.437h-0.291v-1.027h-0.411v-0.477h-0.291v-2.197h-0.544v7.136h-0.285
		v-7.855h-0.544v2.916h-0.291v2.646h-0.252v1.776h-0.159v-8.437h-0.106v-0.27h-0.544v1.843h-0.47v6.266h-0.292v-7.839h-0.544v8.685
		h-0.226v-7.137h-0.15v-1.074h-0.543v3.272h-0.141v3.395h-0.404v1.544h-0.173v-7.137h-0.544v1.231h-0.276v1.443h-0.427v2.465h-0.334
		v-5.916h-0.544v2.008h-0.106v2.04h-0.226v-1.697h-0.544v5.778h-0.185v0.889h-0.281v-5.138h-0.521v-1.529h-0.543v1.97h-0.024v3.808
		h-0.042v0.889h-0.479v0.436h-0.082v-10.094h-0.544v1.714h-0.544v7.944h-0.242v0.436H113.8v-6.804h-0.544v3.44h-0.29v0.439h-0.2
		v0.418h-0.343v-2.201v2.223h-0.035v-4.319h-0.544v3.879h-0.225v-4.521h-0.544v1.713h-0.544v3.016v-2.876h-0.029v2.667h-0.279v-8.59
		h-0.545v5.782h-0.544v3.016v-2.588h-0.232v0.487h-0.091v-6.698h-0.545v5.782h-0.543v3.016v-0.943h-0.28v1.492h-0.257v-1.196h-0.544
		v-2.153h-0.544v1.857h-0.05v1.492h-0.545v-0.776h-0.32v0.776h-0.257v-5.666h-0.543v-5.467h-0.544v10.356h-0.051v0.776h-0.544
		v-2.347h-0.033v-1.366h-0.544v3.386h-0.544v0.326h-0.292v-2.347h-0.303v1.646h-0.033v-1.513v2.211h-0.287v-3.013h-0.257v-0.696
		h-0.287v-4.772h-0.544v6.138h-0.004v1.646h-0.304v0.701v-3.017h-0.544v-2.964h-0.544v5.156h-0.122v-1.26h-0.202v-0.932h-0.544
		v-2.964h-0.544v5.748h-0.081v-0.831h-0.433v-7.966h-0.544v7.966h-0.116v-0.414h-0.304v0.414h-0.232v-10.068h-0.545v7.152h-0.544
		v2.464v-1.721h-0.091v2.173h-0.544v-0.914h-0.392v-1.259h-0.192v1.153h-0.216v-4.297h-0.545v5.255h-0.327v-2.011v1.159h-0.133
		v-1.259h-0.192v-5.247h-0.544v2.103h-0.2v3.304h-0.149v1.744h-0.194v1.427h-0.308v-8.577h-0.544v2.103h-0.217v5.048h-0.013v-6.592
		H89.17v3.946h-0.095v-4.504h-0.544v7.15h-0.544v-1.903h-0.173v2.808h-0.545v-2.388h-0.461v2.702h-0.389v-0.314h-0.423v-4.848
		h-0.545v3.943h-0.543v0.177h-0.049v-1.543h-0.259v-2.577h-0.543v3.943h-0.544v-4.61h-0.544v0.667h-0.325v3.943h-0.543v-1.334v2.499
		h-0.407v-1.098h-0.01v-1.042h-0.47v-0.027v2.161h-0.544v-5.709h-0.544v3.576h-0.333v-0.988h-0.544v1.015h-0.335v0.5h-0.039v-0.527
		h-0.478v-0.988h-0.544v3.245h-0.066v-1.717h-0.478v0.443h-0.324v-1.971h-0.371v-4.629h-0.544v6.157h-0.173v0.443h-0.159v-2.109
		h-0.185v0.198h-0.544v2.389h-0.15v0.362h-0.544v-2.949h-0.173v0.198h-0.544v4.103h-0.018v-1.157h-0.544v-3.559h-0.142v-1.427H72.35
		v6.143h-0.509v0.546h-0.308v-8.37h-0.035v-1.527h-0.544v6.846h-0.359v0.243h-0.149v2.807h-0.359v-9.896h-0.544v2.001h-0.375v5.281
		h-0.395v0.985h-0.15v2.016h-0.291v-3.438h-0.376v-5.944h-0.544v3.272H67.27v3.395h-0.402v2.168h-0.142v1.103h-0.218v-3.557h-0.09
		v-3.108h-0.544v0.476h-0.426v2.465h-0.335v-5.916h-0.544v2.975h-0.106v0.476h-0.226v-1.101h-0.544v3.565h-0.185v3.101h-0.281
		v-5.138h-0.042v-0.428H62.84v-1.101h-0.544v1.97h-0.158v1.596h-0.042v3.101h-0.344v0.436h-0.218v-11.85h-0.555v3.47h-0.532v7.944
		H60.34v0.436h-0.343v-6.804h-0.544v3.44h-0.29v0.439h-0.201v0.418h-0.343v-2.201v2.223h-0.034v-4.319h-0.544v3.879h-0.226v-6.277
		H57.26v3.47h-0.532v3.016v-2.876h-0.03v2.667h-0.279v-7.728h-0.544v4.92h-0.543v3.016v-2.588h-0.233v0.487h-0.092v-5.835h-0.544
		v4.92h-0.544v3.016v-0.943h-0.278v1.492h-0.257v-1.196h-0.544v-2.153h-0.544v1.857h-0.052v1.492h-0.543v-0.776H51.38v0.776h-0.256
		v-5.666H50.58v-5.467h-0.545v10.356h-0.051v0.776H49.44v-2.347h-0.033v-1.366h-0.544v3.386h-0.544v0.326h-0.291v-2.347h-0.304
		v1.646h-0.032v-1.513v2.124l0.054,0.411c0.316,2.403,0.728,4.995,1.467,11.38c0.738,6.386,1.803,16.564,2.638,24.487
		c0.508,4.825,0.93,8.814,1.267,12.571v-0.145h0.091v1.185l0.039,0.45h0.265v-1.635h0.544v-1.141h0.207v4.546h0.544v-4.859h0.117
		v1.454h0.543v-2.578h0.279v5.596h0.403v4.266h0.143v1.201h0.543v-11.063h0.309v5.596h0.532v3.246h0.556v-5.506h0.295v0.582h0.029
		v-1.34v3.018h0.437v4.564h0.544v-1.318h0.107v-5.506h0.225v3.877h0.544v-4.688h0.335v6.265h0.544v-1.577h0.516v-5.509h0.218V157.4
		h0.544v9.364h0.544v-1.755h0.142v-5.808h0.509v-0.436h0.159v-1.392h0.149v6.89h0.035v0.745h0.545v-1.369h0.359v-2.074h0.148v-2.8
		h0.159v-1.392h0.2v7.635h0.544v-1.369h0.226v0.476h0.544v-6.653h0.15v-0.088h0.292v6.266h0.375v7.568h0.544v-7.093h0.036v-2.501
		h0.105v-3.558h0.403v3.678v-2.323h0.359v4.704h0.544v-2.501h0.091v-3.362h0.426v-0.741h0.335v4.848h0.544v-0.744h0.106v-3.362
		h0.225v10.308h0.545v-2.6h0.334v-5.326h0.517v4.719h0.544v-5.284h0.544v-0.546h0.15v-0.971v1.639h0.173v5.162h0.371v0.549h0.544
		v-8.578v2.745h0.173v-0.546h0.159v3.789h0.544v-0.536h0.47v-1.161h0.382v1.697h0.544v-3.602h0.202v-1.727h0.278v2.207h0.388v3.121
		h0.544v-0.06h0.035v-3.888h0.121v-1.381h0.388v-0.441h0.293v2.584h0.05v3.126h0.544v0.257h0.544v6.715h0.544v-6.972h0.324v-4.286
		h0.407v0.713h0.395v0.447h0.149v3.027h0.544v-4.188h0.396v2.778v-0.368h0.279v-2.266v1.789h0.545v1.261h0.137v5.416h0.544v-6.2
		h0.308v-2.979v2.465h0.544v4.491h0.544v-1.844h0.229v7.699h0.544v-10.347h0.095v4.491h0.544v-4.849h0.013v8.482h0.544v-8.414h0.544
		v-2.32h0.173v2.252h0.542v1.656h0.544v-0.958h0.175v7.357h0.545v-9.047h0.308v1.349h0.344v5.478h0.2v2.221h0.544v-4.773h0.232
		v-3.385h0.092v0.46h0.328v5.478h0.216v2.221h0.543v-8.48h0.538v3.707h0.114v2.553h0.545v-6.826h0.392v-0.959h0.121v12.495h0.544
		v-4.762h0.543v-6.774h0.204v-0.959h0.392v2.586h0.544v-3.387h0.033v1.436h0.288v1.951h0.544v-0.1h0.003v0.1h0.544v-3.387h0.081
		v10.648h0.544v-4.762h0.544v-0.916h0.257v-3.025h0.051v8.861h0.544v-4.92h0.544v-3.017v0.577h0.033v-3.209v1.419h0.291v9.149h0.544
		v-4.92h0.544v-3.017v0.577h0.304v0.035v-2.844h0.32v1.684h0.345v0.068h0.545v1.127h0.544v-1.195h0.507v1.635h0.232v4.031h0.544
		v6.328h0.543v-11.994h0.092v1.635h0.305v-1.635h0.544v-1.141h0.208v4.546h0.544v-4.859h0.117v1.454h0.544v-2.578h0.28v5.596h0.401
		v4.266h0.143v2.063h0.544v-11.924h0.308v5.596h0.544v2.26h0.544v-4.52h0.295v0.582h0.029v-1.34v3.018h0.301v4.564h0.545v-2.305
		h0.24v-4.52h0.226v3.877h0.544v-6.901h0.336v4.082h0.516v2.819h0.544v-5.509h0.218v-1.526h0.545v10.058h0.543v-2.724h0.006v-0.299
		h0.1v-5.509h0.544v-0.436h0.159v1.056h0.185v5.188h0.15v3.953h0.544v-9.719h0.209v-1.218h0.334v-0.651h0.173v7.635h0.545v-1.369
		h0.226v1.443h0.149v5.966h0.543v-12.237h0.293v4.828h0.41v0.476h0.291v2.198h0.545v-6.277h0.284v6.997h0.544v-2.918h0.291v-6.446
		h0.254v2.885h0.158v7.577h0.105v0.271h0.544v-1.845h0.47v-6.265h0.292v7.839h0.544v-7.825h0.225v6.277h0.151v1.074h0.544v-3.271
		h0.142v-7.195h0.402v3.877v-0.762h0.173v6.277h0.545v-1.23h0.275v-1.443h0.426v-6.266h0.336v9.715h0.544v-2.006h0.106v-5.84h0.227
		v5.496h0.543v-4.918h0.186v-0.89h0.281v4.279h0.521v1.528h0.544v-5.77h0.023v-1.305v2.156h0.043v-0.89h0.479v-0.436h0.082v-0.782
		v10.018h0.544v-1.714h0.543v-7.086h0.243v-0.436h0.207v5.944h0.545v-3.439h0.289v-0.438h0.201v-0.42h0.343v-1.598v2.436h0.034
		v3.459h0.544v-3.877h0.226v4.52h0.545v-1.713h0.543v-3.941h0.029v1.135h0.277v8.588h0.545v-5.781h0.543v-4.229h0.234v3.313h0.092
		v6.697h0.544v-5.781h0.543v-5.873h0.279v2.309h0.257v1.195h0.545v-1.646h0.543v-1.857h0.053v2.309h0.543v1.635h0.32v-1.635h0.258
		v5.666h0.543v5.467h0.545v-12.283v2.785h0.051v-1.635h0.543v-1.454h0.033v5.165h0.545v-3.385h0.543v-0.326h0.291v-1.454h0.305
		v3.014h0.032v-3.145v1.589h0.287v3.014h0.257v0.693h0.288v4.773h0.543v-9.938h0.005v3.014h0.304v-1.56v3.018h0.544v2.963h0.545
		V160.9h0.12v1.261h0.203v0.933h0.544v2.963h0.545v-5.746h0.079v0.83h0.433v7.967h0.545v-7.967h0.114v-3.387h0.305v3.387h0.232
		v10.068h0.544v-7.152h0.544v-4.543h0.092v1.627h0.543v-2.888h0.392v1.261h0.193v2.647h0.215v4.298h0.545v-5.256h0.328v-2.95h0.131
		v1.261h0.193v9.047h0.543v-2.102h0.201v-3.305h0.15v-1.746h0.193v-1.426h0.307v8.578h0.545v-2.102h0.217v-5.051h0.012v6.594h0.545
		v-3.945h0.094v4.504h0.545v-7.152h0.543v-1.895h0.174v0.991h0.545v-1.411h0.462v1.098h0.39v0.313h0.423v4.849h0.544v-3.945h0.544
		v-0.176h0.05v1.544h0.259v2.577h0.543v-3.945h0.544v4.612h0.543v-0.667h0.326v-3.945h0.545v-2.464v2.161h0.404v-3.563h0.01v1.042
		h0.473v1.666h0.543v5.71h0.545v-7.376h0.33v4.786h0.545v-1.012h0.336v-4.302h0.037v0.527h0.479v4.786h0.544v-3.244h0.065v-2.084
		h0.479v-0.439h0.324v5.768h0.371v4.631h0.543v-9.959h0.174v-0.439h0.159v2.107h0.185v3.602h0.543v-6.188h0.15v3.438h0.545v-0.852
		h0.173v3.602h0.544v-3.243h0.018v1.157h0.544v2.699h0.142v1.428h0.544v-5.284h0.508v-0.546h0.31v7.511h0.034v1.526h0.544v-10.646
		h0.358v-0.244h0.149v1.854h0.36v9.037h0.544v-2.003h0.375v-5.279h0.396v-0.985h0.149v-1.158h0.291v-1.221h0.376v9.744h0.544v-3.271
		h0.142v-7.195h0.401v3.877v-1.387h0.143v-1.102h0.218v2.698h0.09v3.108h0.544v-0.477h0.428v-6.266h0.335v9.715h0.543v-2.973h0.106
		v-0.477h0.227v1.1h0.543v-7.365h0.186v1.558h0.281v4.279h0.043v0.429h0.343v1.1h0.544v-5.77h0.158v-1.596h0.043v1.558h0.343v-0.436
		h0.217v10.991h0.556v-3.47h0.533v-7.086h0.106v-0.436h0.344v5.944h0.544v-3.439h0.288v-0.438h0.202v-0.42h0.342v-1.598v2.436h0.035
		v3.459h0.227c0.17-5.072,0.368-8.571,0.64-12.455c0.275-3.969,0.628-8.34,0.974-12.258c0.347-3.918,0.688-7.385,1.121-11.731
		c0.432-4.345,0.955-9.57,1.482-13.976C193.92,113.307,194.037,112.363,194.155,111.463z M47.404,109.001v-0.554H47.34
		L47.404,109.001z M46.86,104.459v-1.48h-0.249C46.697,103.417,46.779,103.896,46.86,104.459z"/>
	<path id="camisa_contorno" fill="none" d="M136.779,295.682c2.457-0.098,4.621-0.225,7.009-0.355
		c2.389-0.131,5.001-0.265,8.253-0.492s7.144-0.55,10.459-0.852c3.316-0.301,6.056-0.583,8.786-0.947
		c2.729-0.365,5.448-0.813,7.646-1.249s3.873-0.858,5.995-1.329c2.124-0.473,4.696-0.996,6.589-1.32
		c1.891-0.324,3.104-0.453,4.264-0.536c1.158-0.083,2.264-0.124,3.15-0.116c0.888,0.008,1.558,0.063,1.954,0.094
		s0.519,0.038,0.61,0.043c0.049,0.002,0.091,0.004,0.127,0.006c0.094-0.068,0.163-0.18,0.178-0.777
		c0.016-0.674-0.037-1.964-0.107-2.783c-0.067-0.818-0.153-1.166-0.284-1.854c-0.13-0.688-0.307-1.719-0.65-2.683
		c-0.344-0.966-0.856-1.864-1.474-3.042c-0.619-1.178-1.342-2.636-1.782-3.612c-0.438-0.978-0.595-1.476-0.847-2.69
		c-0.25-1.216-0.598-3.15-0.951-5.865c-0.354-2.716-0.716-6.212-1.037-8.875c-0.322-2.662-0.604-4.49-1.08-7.551
		c-0.478-3.06-1.15-7.35-1.709-11.51c-0.557-4.159-0.999-8.188-1.346-12.213c-0.346-4.023-0.598-8.043-0.759-11.625
		c-0.16-3.582-0.23-6.727-0.286-9.776s-0.095-6.003-0.156-9.249c-0.06-3.245-0.141-6.781-0.107-12.024
		c0.032-5.242,0.178-12.19,0.352-17.448c0.174-5.257,0.375-8.824,0.651-12.793c0.275-3.969,0.628-8.34,0.974-12.258
		c0.347-3.918,0.688-7.385,1.121-11.731c0.432-4.345,0.955-9.57,1.482-13.976s1.059-7.993,1.509-10.608
		c0.45-2.614,0.816-4.257,1.138-5.303c0.322-1.044,0.598-1.492,0.803-1.763s0.338-0.366,0.404-0.414
		c0.066-0.049,0.066-0.049,0.049,0.598c-0.018,0.645-0.053,1.937-0.107,3.529c-0.055,1.592-0.131,3.486-0.172,4.962
		c-0.041,1.476-0.05,2.533-0.08,3.183c-0.029,0.649-0.082,0.89-0.102,1.01c-0.019,0.12-0.004,0.117-0.041,0.151
		c-0.037,0.034-0.129,0.104-0.134,0.679c-0.005,0.575,0.075,1.656,0.192,3.048c0.117,1.394,0.27,3.099,0.322,4.78
		c0.051,1.682,0,3.339,0.002,4.226c0,0.887,0.051,1.002,0.132,1.078c0.079,0.075,0.187,0.11,1.001,0.06
		c0.812-0.052,2.329-0.188,4.1-0.324c1.771-0.136,3.796-0.271,5.947-0.43c2.154-0.158,4.435-0.339,6.582-0.462
		c2.147-0.123,4.162-0.188,5.986-0.298c1.823-0.111,3.457-0.267,5.33-0.47c1.873-0.204,3.988-0.456,6.009-0.682
		c2.02-0.226,3.943-0.426,5.104-0.564c1.16-0.138,1.557-0.214,1.756-0.326c0.199-0.114,0.199-0.264,0.229-0.905
		c0.029-0.64,0.09-1.771,0.107-3.129c0.018-1.359-0.008-2.947-0.022-4.424c-0.015-1.476-0.021-2.843-0.038-3.719
		c-0.018-0.877-0.047-1.264-0.072-1.469c-0.023-0.203-0.041-0.226-0.082-0.293c-0.04-0.068-0.102-0.181-0.174-0.68
		c-0.07-0.5-0.151-1.387-0.254-2.319s-0.229-1.91-0.349-2.735c-0.118-0.827-0.231-1.502-0.411-2.542
		c-0.18-1.04-0.426-2.443-0.613-3.445s-0.315-1.599-0.436-2.267c-0.12-0.669-0.234-1.407-0.365-2.119
		c-0.132-0.712-0.283-1.398-0.425-2.154c-0.142-0.756-0.274-1.583-0.374-2.32c-0.1-0.737-0.165-1.385-0.239-2.026
		c-0.073-0.642-0.157-1.278-0.257-2.033c-0.102-0.757-0.219-1.633-0.34-2.524c-0.119-0.89-0.244-1.794-0.354-2.562
		c-0.107-0.767-0.204-1.397-0.371-2.341c-0.168-0.944-0.408-2.201-0.818-4.081c-0.412-1.879-0.996-4.382-1.703-6.883
		c-0.709-2.502-1.543-5.004-2.648-7.737c-1.104-2.733-2.481-5.697-4.089-8.843c-1.608-3.144-3.446-6.47-4.874-8.771
		c-1.426-2.301-2.44-3.577-3.448-4.625c-1.007-1.047-2.007-1.866-3.011-2.605c-1.006-0.738-2.016-1.396-2.581-1.77
		c-0.564-0.375-0.686-0.465-0.755-0.57c-0.068-0.106-0.086-0.226-0.095-0.303c-0.009-0.077-0.009-0.109-0.069-0.175
		c-0.061-0.065-0.181-0.163-1.307-0.713c-1.125-0.55-3.255-1.553-5.304-2.599c-2.048-1.048-4.015-2.14-5.765-2.973
		s-3.281-1.405-5.055-1.955s-3.789-1.078-5.424-1.505c-1.635-0.427-2.892-0.753-3.758-1.007c-0.867-0.254-1.344-0.435-2.043-0.699
		c-0.697-0.266-1.617-0.614-2.604-0.909c-0.985-0.294-2.039-0.533-2.713-0.687c-0.674-0.152-0.97-0.221-1.438-0.471
		c-0.467-0.25-1.104-0.681-1.58-0.935c-0.475-0.254-0.786-0.33-1.07-0.364c-0.287-0.035-0.545-0.03-0.777-0.03
		s-0.438-0.005-1.342-0.33c-0.902-0.325-2.503-0.971-4.021-1.575s-2.955-1.167-4.399-1.746s-2.896-1.175-3.812-1.567
		c-0.916-0.393-1.295-0.584-1.593-0.778c-0.298-0.195-0.513-0.392-0.704-0.498c-0.191-0.104-0.355-0.115-0.465-0.115
		c-0.111-0.001-0.166,0.009-0.252-0.005c-0.086-0.013-0.204-0.052-0.586-0.291c-0.382-0.24-1.027-0.683-1.676-1.192
		c-0.65-0.509-1.303-1.087-1.955-1.659c-0.652-0.571-1.303-1.137-2.309-1.567c-1.006-0.43-2.367-0.727-3.719-0.918
		c-1.352-0.191-2.693-0.276-4.572-0.354c-1.879-0.078-4.295-0.148-7.922-0.13c-3.628,0.018-8.465,0.123-12.901,0.219
		c-4.435,0.096-8.466,0.183-10.586,0.231c-2.121,0.047-2.33,0.057-4.148,0.202s-5.244,0.427-7.396,0.67
		c-2.153,0.244-3.032,0.45-3.748,0.707c-0.715,0.256-1.269,0.563-1.884,1.078s-1.293,1.239-2.017,1.875
		c-0.724,0.637-1.492,1.187-1.95,1.458s-0.607,0.265-0.901,0.366c-0.293,0.102-0.733,0.313-1.266,0.581
		c-0.533,0.27-1.158,0.596-1.918,0.921s-1.655,0.649-2.299,0.903c-0.644,0.254-1.038,0.437-1.512,0.628
		c-0.473,0.191-1.026,0.39-1.763,0.62c-0.737,0.231-1.659,0.496-2.555,0.835c-0.895,0.34-1.764,0.758-2.57,1.075
		c-0.806,0.316-1.551,0.532-2.296,0.748c-0.747,0.216-1.495,0.432-2.051,0.655c-0.556,0.222-0.921,0.451-1.206,0.635
		c-0.285,0.185-0.492,0.326-1,0.476c-0.507,0.149-1.316,0.31-1.911,0.462c-0.596,0.154-0.978,0.3-1.486,0.491
		c-0.51,0.192-1.146,0.428-1.749,0.616c-0.602,0.189-1.169,0.33-1.686,0.459c-0.515,0.129-0.979,0.247-1.697,0.425
		c-0.718,0.179-1.692,0.417-2.548,0.632c-0.856,0.216-1.596,0.408-2.169,0.57c-0.573,0.161-0.979,0.292-1.435,0.425
		c-0.455,0.134-0.961,0.271-1.425,0.399c-0.464,0.129-0.886,0.25-1.31,0.377c-0.424,0.128-0.85,0.262-1.202,0.398
		c-0.353,0.137-0.632,0.276-1.012,0.437c-0.38,0.159-0.861,0.338-1.277,0.53c-0.417,0.191-0.768,0.393-1.165,0.602
		s-0.837,0.423-1.219,0.616c-0.382,0.194-0.704,0.365-1.125,0.587c-0.421,0.223-0.939,0.496-1.656,0.865
		c-0.715,0.371-1.629,0.837-2.69,1.369c-1.063,0.532-2.273,1.126-3.178,1.573c-0.904,0.448-1.502,0.746-2.035,1.087
		c-0.532,0.34-1,0.722-1.442,1.079c-0.442,0.357-0.859,0.689-1.351,1.078c-0.493,0.39-1.061,0.836-1.777,1.473
		c-0.717,0.637-1.584,1.464-2.373,2.329c-0.789,0.865-1.5,1.769-2.143,2.662c-0.642,0.893-1.218,1.774-1.921,2.932
		c-0.703,1.156-1.535,2.588-2.206,3.817c-0.67,1.228-1.18,2.252-1.73,3.26c-0.55,1.007-1.141,1.997-1.643,2.939
		c-0.502,0.942-0.917,1.836-1.311,2.757c-0.395,0.919-0.769,1.867-1.15,2.753c-0.382,0.886-0.771,1.709-1.284,3.039
		c-0.512,1.331-1.148,3.166-1.715,4.906c-0.565,1.739-1.063,3.382-1.487,4.831c-0.425,1.45-0.776,2.706-1.128,4.22
		s-0.704,3.288-1.143,5.662c-0.44,2.373-0.967,5.347-1.29,7.066c-0.321,1.718-0.437,2.18-0.542,2.669
		c-0.105,0.49-0.201,1.007-0.399,1.833c-0.198,0.824-0.5,1.954-0.806,3.139c-0.307,1.186-0.619,2.427-0.839,3.475
		c-0.221,1.047-0.351,1.901-0.575,3.162c-0.223,1.262-0.54,2.929-0.785,4.293c-0.247,1.364-0.422,2.424-0.529,2.971
		c-0.105,0.548-0.14,0.583-0.203,0.634c-0.064,0.049-0.155,0.115-0.251,2.243c-0.097,2.128-0.197,6.319-0.274,8.613
		c-0.079,2.295-0.133,2.691,0.035,2.899c0.168,0.209,0.559,0.229,1.416,0.337s2.178,0.304,4.507,0.753
		c2.328,0.45,5.665,1.153,8.33,1.666c2.665,0.512,4.66,0.833,6.744,1.18c2.085,0.347,4.26,0.718,7.232,1.191
		c2.972,0.472,6.74,1.045,9.141,1.371c2.401,0.327,3.437,0.407,3.954,0.447c0.518,0.041,0.518,0.041,0.568-0.542
		c0.049-0.583,0.148-1.749,0.262-2.756c0.113-1.009,0.241-1.858,0.393-2.934c0.153-1.077,0.329-2.377,0.498-3.573
		c0.17-1.196,0.333-2.286,0.417-2.898c0.085-0.613,0.09-0.749,0.076-0.864c-0.014-0.115-0.046-0.211-0.023-1.816
		c0.024-1.605,0.104-4.72,0.147-7.25c0.042-2.529,0.048-4.473,0.059-5.595c0.011-1.121,0.029-1.42,0.066-1.616
		c0.039-0.196,0.096-0.289,0.177-0.338c0.08-0.048,0.183-0.053,0.308,0.04c0.124,0.093,0.27,0.284,0.344,0.375
		c0.074,0.091,0.076,0.083,0.078,0.08c0.001-0.003,0.001-0.003,0.115,0.253c0.115,0.256,0.344,0.769,0.597,1.462
		c0.254,0.693,0.533,1.568,0.762,2.504c0.229,0.938,0.407,1.937,0.606,3.543c0.2,1.607,0.421,3.82,0.738,6.223
		c0.316,2.403,0.728,4.995,1.467,11.38c0.738,6.386,1.803,16.564,2.638,24.487c0.834,7.922,1.437,13.589,1.809,19.678
		s0.512,12.601,0.502,19.633c-0.01,7.033-0.171,14.59-0.373,20.589c-0.2,5.997-0.442,10.439-0.724,14.408
		c-0.281,3.968-0.603,7.465-1.446,14.146c-0.844,6.683-2.21,16.549-3.004,23.753c-0.794,7.205-1.015,11.746-1.216,15.252
		c-0.202,3.507-0.382,5.979-0.673,8.114s-0.694,3.934-0.972,5.31c-0.279,1.377-0.435,2.331-0.452,2.932
		c-0.018,0.6,0.103,0.847,0.249,0.975s0.317,0.139,0.5,0.175c0.184,0.036,0.38,0.099,0.469,0.155
		c0.019,0.011,0.032,0.021,0.042,0.037c0.875,0.321,1.75,0.644,3.15,0.924c1.401,0.279,3.326,0.517,6.487,0.753
		c3.16,0.236,7.553,0.471,11.087,0.608c3.534,0.137,6.206,0.178,9.583,0.181c3.376,0.003,7.456-0.03,11.317-0.007
		s7.505,0.104,10.581,0.191c3.074,0.087,5.58,0.181,7.908,0.251c2.328,0.07,4.478,0.116,6.782,0.17
		c2.304,0.054,4.763,0.114,7.349,0.121c2.586,0.007,5.298-0.04,8.031-0.097C131.566,295.846,134.32,295.778,136.779,295.682z"/>
</g>
</svg>
