<?xml version="1.0" encoding="utf-8"?>
<!-- Generator: Adobe Illustrator 16.0.3, SVG Export Plug-In . SVG Version: 6.00 Build 0)  -->
<!DOCTYPE svg PUBLIC "-//W3C//DTD SVG 1.1//EN" "http://www.w3.org/Graphics/SVG/1.1/DTD/svg11.dtd">
<svg version="1.1"
	 id="Layer_1" shape-rendering="geometricPrecision" text-rendering="geometricPrecision" image-rendering="optimizeQuality" xmlns:xodm="http://www.corel.com/coreldraw/odm/2003"
	 xmlns="http://www.w3.org/2000/svg" xmlns:xlink="http://www.w3.org/1999/xlink" x="0px" y="0px" width="238px" height="298px"
	 viewBox="0 0 238 298" enable-background="new 0 0 238 298" xml:space="preserve">
<g>
	<g>
		<linearGradient id="SVGID_1_" gradientUnits="userSpaceOnUse" x1="119.0005" y1="297.9922" x2="119.0005" y2="86.9185">
			<stop  offset="0.15" style="stop-color:#F00808"/>
			<stop  offset="0.8" style="stop-color:#F00808;stop-opacity:0"/>
		</linearGradient>
		<path fill="url(#SVGID_1_)" d="M144.713,140.832c3.256,0.33,6.713-1.798,4.197-3.617c-3.088-0.462-1.832-2.642-1.835-4.55
			c-0.007-3.603-2.897-0.806-3.4-0.071c-0.774,1.133-2.407-1.314-2.741-2.008c-0.555-1.151-3.199-0.858-3.85-0.256
			c-2.053,1.899,0.979,3.073,2.463,3.584c1.613,0.555,2.197,1.69,2.41,3.045C142.359,139.529,141.092,140.465,144.713,140.832z
			 M156.102,91.566c0.652-0.016,0.673-0.451,0.648-0.661c-0.072-0.625-0.664-0.221-0.997-0.658c-0.337-0.51-1.022-0.495-0.929,0.164
			c0.049,0.344-0.246,0.238-0.361,0.598C154.35,91.37,155.445,91.583,156.102,91.566z M144.881,98.763
			c0.441-0.23,0.73-0.499,0.922-0.25c0.191,0.25-0.173,0.923,0.326,1.019c0.5,0.096,0.673,0.058,0.673,0.327
			c0,0.844,0.405,1.785,1.384,1.325c1.32-0.622,0.605-2.512-0.129-2.481c-0.608-0.005-0.676,0.035-0.717-0.574
			c-0.064-0.478-1.012-0.567-1.172-0.5c-0.23,0.096,0.096-0.365-0.327-0.653c-0.423-0.288-1.786-0.231-2.171,0.134
			c-0.384,0.366-0.652,0.827-0.191,1.25C143.938,98.782,144.438,98.994,144.881,98.763z M148.505,113.515
			c-0.204,0.64,1.743,1.018,2.905,0.988c1.156-0.028,1.193-0.8,1.15-1.173c-0.127-1.109-1.18-0.392-1.77-1.166
			c-0.597-0.903-1.814-0.877-1.647,0.29C149.23,113.065,148.707,112.876,148.505,113.515z M154.291,102.215
			c0.393,0.131,0.35,0.482,0.196,1.008c-0.153,0.525-0.044,0.919,0.108,1.248c0.154,0.328,0.965,0.065,1.425,0.219
			c0.46,0.153,0.109,0.569,0.372,1.16c0.263,0.592,0.679,0.109,1.074,0.46c0.393,0.351-0.066,0.219-0.154,0.964
			s0.985,0.963,1.643,0.919s0.547-0.416,0.635-0.81c0.088-0.395-0.109-0.658,0.131-1.118c0.241-0.46,0.396,0.066,1.03,0
			s0.581-0.252,0.689-0.339c0.11-0.088,0.11-0.395,0.044-0.876c-0.064-0.482-0.285-0.57-0.592-0.789
			c-0.306-0.219-0.941,0.46-1.248,0.439c-0.307-0.022-0.24-0.417-0.065-0.592c0.175-0.175,0.591,0.022,0.92-0.372
			c0.329-0.395-0.065-0.526-0.351-0.987c-0.284-0.459-0.986-0.284-1.357-0.087c-0.372,0.197-0.241,0.723-0.045,1.183
			c0.197,0.46-0.196,0.592-0.744,0.526c-0.547-0.066-0.35-0.351-0.81-0.679c-0.46-0.329-0.329-0.044-0.899-0.241
			c-0.568-0.198-0.152-0.438-0.393-0.833c-0.242-0.394-0.526-0.307-0.701-0.591c-0.176-0.285,0.033-1.007-0.208-1.292
			c-0.237-0.28-1.828-0.545-1.556,0.909C153.502,101.996,153.896,102.083,154.291,102.215z M150.801,122.876
			c-0.516,0.354-1,0.516-1.418,0.033c-0.419-0.484-1.515-1.546-2.514-1.45c-0.998,0.097-2.255,0.161-2.738,1.547
			c-0.941,2.695,0.822,3.612,3.061,2.674c1-0.419,1.482-1.225,2.225-0.87c0.74,0.354,1.029,1.063,2.287,0.87
			c1.256-0.194,1.385-1.74,1.127-2.32C152.573,122.78,151.315,122.522,150.801,122.876z M141.367,104.887
			c0.361-0.362,0.676-0.024,1.98,0.266c1.186,0.263,1.582-0.385,1.652-0.992c0.068-0.589-0.147-1.134-1.797-1.134
			c-0.58,0-0.538,0.466-1.408,0.249c-0.868-0.218-0.791-0.781-1.877-1.48c-0.899-0.58-2.229,0.647-1.279,2.052
			C139.101,104.529,140.605,105.647,141.367,104.887z M121.506,114.756c0.318,0.193,0.714,0.292,1.088,0.216
			c0.291-0.061,0.139,0.032,0.4,0.684c1.143,2.846,3.018-0.966,1.257-1.214c-0.401-0.057-0.601-0.128-0.676-0.54
			c-0.054-0.287-0.176-0.846-0.401-1.214c-0.487-0.803-1.68-0.129-1.924,0.272C121.014,113.346,120.811,114.335,121.506,114.756z
			 M117.875,99.327c0.301-0.266,0.137-0.696,0.515-0.619c0.378,0.078,0.413,0.585,0.988,0.481c0.576-0.103,0.738-0.3,0.756-0.592
			c0.018-0.292,0.025-0.653-0.506-0.885c-0.533-0.231-0.645-0.429-0.937-0.661c-0.481-0.383-1.429-0.423-1.348,0.292
			c0.043,0.378,0.181,0.404,0.189,0.644c0.009,0.241,0,0.258-0.421,0.181C116.025,97.969,117.025,100.08,117.875,99.327z
			 M120.567,127.084c0.831,0.514,1.368,1.154,0.747,2.874c-2.356,6.532,3.512,5.477,4.535,2.315c0.76-2.348,2.121-2.925,3.264-2.556
			c0.033-0.352,0.041-0.727-0.021-1.247c-0.084-0.697-0.662-0.98-1.293-1.048c0.092-0.659-0.06-1.37,0.373-2.12
			c0.643-1.112,1.84-0.77,1.498-2.31c-0.344-1.541-1.199-2.738-0.6-2.866c0.6-0.129,1.925,0.77,2.994,1.068
			c1.07,0.3,2.396,0.386,1.541,1.242s-2.524,1.71-2.14,2.823c0.385,1.113,1.841,2.738,4.15,1.113
			c2.31-1.625,0.556-2.396,1.411-4.192c0.941-2.053,2.695-1.284,2.695-3.85c0-2.567-0.171-3.422-1.369-4.107
			c-1.198-0.685-2.139-1.069-2.566,0.856c-0.133,0.595,0.779,1.533,1,2.467c0.699,2.927-1.869,3.578-1.855,3.055
			c0.091-3.523-3.895-3.5-4.577-3.211c-1.112,0.471-0.856,1.197-1.54,0.727c-0.686-0.47-1.883-1.283-2.311-0.171
			s-1.326,1.541-0.599,2.695c0.727,1.156,0.171,0.985,0.171,2.139s1.112,1.625,0.685,2.182c-0.385,0.5-2.153-0.28-2.755,0.18
			c-0.111-1.104-0.109-2.162-0.516-2.246c-0.096-0.457-2.162,0.227-2.182,0.229c-1.148,0.214-0.858,1.853-0.79,2.68
			C120.563,126.358,120.582,126.772,120.567,127.084z M132.879,108.322c0.088,0.61-0.437,0.421-0.639,1.061
			c-0.205,0.64,1.742,1.017,2.905,0.988c1.156-0.029,1.192-0.801,1.149-1.173c-0.127-1.11-1.18-0.392-1.77-1.167
			C133.93,107.128,132.711,107.155,132.879,108.322z M117.015,111.739c0.244-0.366,0.397-0.519,0.743-0.315
			c0.241,0.142,0.72,0.397,1.108,0.422c0.844,0.053,0.941-1.609,0.766-2.128c-0.171-0.503-0.807-1.38-1.471-0.965
			c-0.304,0.191-0.578,0.523-0.708,0.953c-0.102,0.335-0.094,0.118-0.712-0.061C114.043,108.862,115.943,113.347,117.015,111.739z
			 M133.109,94.153c0.652-0.016,0.672-0.452,0.648-0.662c-0.07-0.625-0.664-0.221-0.998-0.658c-0.336-0.509-1.021-0.494-0.928,0.164
			c0.049,0.344-0.246,0.238-0.36,0.599C131.357,93.956,132.455,94.169,133.109,94.153z M125.131,104.536
			c0.756,0.638,0.121,1.347,1.5,1.607c1.379,0.261,1.703-0.774,1.649-1.356c-0.056-0.583-0.985-0.626-1.548-0.837
			c-0.563-0.212,0.02-0.523,0.441-0.879c0.423-0.354,0.838-1.033,1.135-1.1c0.297-0.065,0.156,0.654,0.318,1.42
			c0.162,0.768,0.634,0.366,1.152,0.738c0.52,0.371,0.439,0.968,0.973,1.216c0.785,0.366,2.301-0.83,0.992-2.084
			c-0.331-0.317-1.088,0.587-1.396,0.424c-0.309-0.164,0.099-0.605-0.139-1.128s-0.453-0.331-0.362-1.002
			c0.092-0.672-0.403-0.681-0.825-1.097c-0.422-0.415-0.797,0.199-1.01,0.553c-0.213,0.353-0.246-0.029-0.846-0.013
			c-0.369,0.01-2.176,0.819-1.412,2.394c0.113,0.234-1.182,0.468-1.469-1c-0.09-0.468,0.129-1.08-0.053-1.321
			c-0.59-0.784-0.936-0.416-1.337,0.14c-0.401,0.556-0.304,0.979,0.225,2.139C123.646,104.51,124.283,103.8,125.131,104.536z
			 M163.318,118.905c-0.091-1.036-1.835-1.456-2.711-0.871c-1.711,1.146-0.408,3.608-3.23,3.053
			c-1.736-0.342-1.852,3.982,0.292,4.055c0.741,0.025,1.184,0.597,1.624,1.095c0.717,0.812,3.845,1.819,4.492,0.459
			c0.641-1.345-0.709-2.408-1.35-3.669C161.739,121.655,163.47,120.655,163.318,118.905z M116.541,123.278
			c0.97-0.405,0.696-1.262,1.181-1.666s0.453-1.406-0.049-1.858c-0.5-0.453-1.858-0.486-2.457-0.017
			c-0.598,0.469-0.5,0.744-0.792,1.488C113.593,123.347,114.888,123.967,116.541,123.278z M192.054,107.616
			c0.507-0.681,0.856-0.681,1.237-0.506c0.059-0.41,0.119-0.815,0.182-1.215c-0.827,0.148-0.689-0.64-0.185-1.353
			c0.722-1.018-0.192-2.364-0.628-2.507c-1.297-0.425-0.889,1.089-1.096,1.785c-0.37,1.234-1.277,1.539-2.317,1.071
			c-0.297-0.134-1.354,0.318-0.692,0.978c0.602,0.599,2.611-0.158,1.793,1.309c-0.35,0.625-1.637-0.296-2.19-0.459
			c-0.802-0.237-1.042,0.231-1.042,0.888C187.115,109.436,191.836,107.908,192.054,107.616z M192.217,115.745
			c-0.598-2.33-3.27-1.009-2.635,1.144c0.156,0.531,2.038,1.949,2.26,2.522C191.945,118.351,192.07,117.103,192.217,115.745z
			 M187.311,130.801c-0.072,2.57-0.086,3.268,2.155,2.155c0.383-0.19,0.72-0.315,1.018-0.386c0.136-1.22,0.271-2.438,0.405-3.658
			l-0.249,0.004C189.012,129.549,187.332,130.056,187.311,130.801z M191.581,122.214c0.038-0.405,0.076-0.81,0.112-1.213
			c0.037-0.409,0.08-0.876,0.129-1.392C190.547,121.527,190.735,122.102,191.581,122.214z M167.38,139.905
			c-0.256-2.883-2.321-0.734-2.628-1.796c-0.303-1.054-3.943-1.011-2.808-1.863c0.17,0.044,0.997-0.241,1.218-0.322
			c1.921-0.706-1.875-1.944-2.635-1.403c-1.363,0.971-3.322,0.673-1.992-0.981c0.928-1.152,0.228-2.642-0.762-2.693
			c-2.19-0.113-2.558-0.265-2.558,1.476c0,0.605-0.051,1.324-0.399,1.669c1.111,1.82-0.082,4.616,0.945,5.217
			c2,1.167,2.839-0.964,4.055-1.344c2.271-0.71,2.916,0.606,2.929,2.287c0.425-0.074,0.952-0.104,1.599-0.078
			C165.009,140.099,166.395,139.691,167.38,139.905z M195.885,87.636c-0.084,0.064-0.192,0.125-0.252,0.314
			c-0.027,0.083,0.012,0.159,0.095,0.225L195.885,87.636z M190.41,94.742c0.653-0.017,0.673-0.452,0.648-0.662
			c-0.071-0.625-0.664-0.221-0.997-0.658c-0.336-0.509-1.022-0.494-0.929,0.164c0.049,0.345-0.246,0.238-0.361,0.598
			C188.658,94.545,189.756,94.758,190.41,94.742z M195.986,87.295l0.113-0.377C196.02,86.994,195.973,87.118,195.986,87.295z
			 M173.177,99.332c1.156-0.029,1.192-0.801,1.149-1.172c-0.126-1.111-1.18-0.392-1.77-1.167c-0.596-0.904-1.814-0.878-1.646,0.291
			c0.088,0.61-0.437,0.421-0.639,1.061C170.068,98.983,172.014,99.361,173.177,99.332z M181.28,111.753
			c-0.898-0.177-0.958,2.058,0.149,2.095c0.385,0.013,0.612,0.309,0.84,0.567c0.371,0.418,1.987,0.939,2.322,0.237
			c0.331-0.696-0.367-1.246-0.697-1.897c-0.36-0.708,0.535-1.226,0.455-2.13c-0.045-0.535-0.947-0.753-1.4-0.45
			C182.064,110.766,182.738,112.04,181.28,111.753z M167.523,151.027c-2.648-0.719-2.176,1.672-3.189,2.705
			c-1.441,1.469-2.862-1.295-1.293,2.43c0.404,0.961,1.004,1.793,2.168,2.227c4.699,1.748,1.006-1.891,0.85-2.514
			C165.77,154.717,171.491,152.105,167.523,151.027z M168.836,122.924c-0.217,0.565-0.674,0.782-0.305,1.369
			c0.37,0.586,0.088,0.5,0.088,1.086c0,0.586,0.564,0.826,0.348,1.108c-0.217,0.282-1.304-0.239-1.479,0.195
			c-0.688,1.723,1.229,2.194,1.804,1.521c0.392-0.456,0.066-0.978,0.392-1.542c0.326-0.564,0.934-0.392,0.76-1.173
			c-0.174-0.783-0.607-1.392-0.304-1.457s0.978,0.392,1.521,0.544c0.543,0.152,1.217,0.195,0.782,0.629
			c-0.434,0.435-1.281,0.87-1.086,1.435c0.195,0.565,0.934,1.391,2.107,0.565s0.283-1.217,0.717-2.129
			c0.479-1.042,1.369-0.651,1.369-1.956c0-1.303,1.131-3.646,0.523-3.993c-0.608-0.348-2.093-0.702-2.311,0.276
			c-0.067,0.302,0.184,2.845,0.297,3.319c0.354,1.487-0.949,1.817-0.943,1.551c0.047-1.789-1.979-1.778-2.326-1.631
			c-0.564,0.239-0.434,0.608-0.781,0.37C169.662,122.771,169.053,122.358,168.836,122.924z M180.043,98.967
			c0.293,0.177,0.656,0.269,0.998,0.198c0.268-0.056,0.129,0.029,0.368,0.627c1.048,2.612,2.769-0.886,1.152-1.115
			c-0.368-0.052-0.55-0.116-0.62-0.495c-0.049-0.263-0.161-0.776-0.367-1.115c-0.447-0.736-1.543-0.118-1.766,0.25
			C179.591,97.674,179.405,98.581,180.043,98.967z M178.873,131.374c1.154,0.312,1.653-0.718,2.309-0.187
			c0.654,0.53,0,1.31,0.717,2.059c0.719,0.749,1.777,1.653,2.809,1.216c1.028-0.437,1.652-1.154,1.061-2.059
			c-0.594-0.905-2.278-1.248-2.371-2.215c-0.094-0.967,1.342-0.28,0.998-1.185c-0.344-0.905-1.373-1.342-1.092-1.903
			c0.281-0.562,0.343,0.281,1.436,0.093c1.092-0.187,1.59-0.904,1.341-1.31c-0.249-0.406-2.028-0.562-1.965-1.403
			c0.062-0.843,0.593-0.469,0.966-2.09c0.375-1.623-0.654-1.623-1.091-1.873c-0.437-0.249-1.466-0.281-1.902,0.406
			c-0.437,0.687-0.125,0.905,0.031,1.935c0.155,1.029-0.095,1.715-0.655,2.059c-0.562,0.343-1.966-0.032-2.027,1.341
			c-0.063,1.372-0.125,1.715-1.186,1.715C176.399,127.974,177.167,130.913,178.873,131.374z M163.609,113.169
			c0.904,0.245,1.297-0.563,1.811-0.146c0.514,0.416,0,1.027,0.563,1.614c0.563,0.588,1.395,1.297,2.202,0.955
			s1.298-0.906,0.832-1.615c-0.465-0.71-1.786-0.979-1.859-1.737s1.052-0.22,0.784-0.93c-0.271-0.709-1.078-1.053-0.857-1.492
			c0.221-0.441,0.27,0.22,1.125,0.073c0.857-0.146,1.248-0.708,1.053-1.027c-0.195-0.318-1.591-0.44-1.542-1.101
			c0.05-0.661,0.465-0.367,0.759-1.64c0.15-0.65,0.014-0.968-0.204-1.15h-2.146c-0.342,0.539-0.098,0.71,0.025,1.518
			c0.122,0.808-0.074,1.345-0.514,1.614c-0.441,0.27-1.541-0.024-1.59,1.052c-0.049,1.077-0.098,1.346-0.932,1.346
			C161.668,110.502,162.271,112.809,163.609,113.169z M52.518,166.531c1.417-0.294,3.729-1.93,3.927-1.971
			c1.414-0.32,3.799-6.47-0.643-2.889c-1.295,1.044-3.265,0.83-3.477-0.211c-0.799-3.918-0.209-3.244-2.488-3.489l0.075,1.466
			c0.156,0.164,0.3,0.338,0.428,0.52c0.756,1.066,0.787,2.034,0.656,4.082C50.892,165.66,51.082,166.794,52.518,166.531z
			 M49.306,137.215c-0.585-0.088-1.015-0.237-1.325-0.435c0.129,1.201,0.256,2.402,0.376,3.605
			C50.06,139.699,50.934,138.392,49.306,137.215z M49.811,124.811c0.742,0.354,1.032,1.063,2.288,0.87
			c1.256-0.194,1.385-1.74,1.127-2.32c-0.258-0.58-1.514-0.838-2.029-0.484c-0.516,0.354-1,0.516-1.418,0.033
			c-0.419-0.484-1.515-1.546-2.513-1.45c-0.289,0.028-0.6,0.053-0.907,0.109c0.135,1.458,0.281,2.917,0.434,4.373
			c0.255-0.059,0.521-0.146,0.794-0.261C48.587,125.261,49.07,124.456,49.811,124.811z M62.34,136.246
			c0.17,0.044,0.997-0.241,1.219-0.322c1.92-0.706-1.876-1.944-2.635-1.403c-1.363,0.971-3.322,0.673-1.992-0.981
			c0.927-1.152,0.227-2.642-0.763-2.693c-2.19-0.113-2.557-0.265-2.557,1.476c0,0.605-0.051,1.324-0.4,1.669
			c1.111,1.82-0.082,4.616,0.945,5.217c2,1.167,2.839-0.964,4.054-1.344c2.273-0.71,2.917,0.606,2.93,2.287
			c0.425-0.074,0.952-0.104,1.598-0.078c0.666,0.026,2.051-0.382,3.037-0.168c-0.256-2.883-2.322-0.734-2.627-1.796
			C64.845,137.055,61.205,137.098,62.34,136.246z M69.55,142.241c-0.314,0.018-0.659-0.189-0.958-0.448
			c-0.813,0.522-2.924,1.576-0.833,1.919c1.628,0.266-1.568,4.113,3.761,3.931c2.387-0.081,3.173,2.022,3.173-1.052
			c0-0.094,0.008-0.184,0.022-0.269c-0.817-0.258-0.65-0.927-0.229-1.211c0.864-0.587,0.49-1.475,0.149-1.585
			c-2.013-0.657-1.793,1.472-3.174,1.523C69.791,145.111,71.729,142.116,69.55,142.241z M61.003,118.034
			c-1.71,1.146-0.408,3.608-3.229,3.053c-1.737-0.342-1.852,3.982,0.292,4.055c0.742,0.025,1.183,0.597,1.625,1.095
			c0.717,0.812,3.844,1.819,4.492,0.459c0.641-1.345-0.71-2.408-1.35-3.669c-0.697-1.372,1.034-2.371,0.882-4.122
			C63.625,117.869,61.878,117.449,61.003,118.034z M59.476,147.766c1.648-0.362,2.907,0.176,3.384-0.672
			c1.246-2.215,0.57-3.404-1.98-2.289c-2.418,1.057-6.306,0.551-7.654-0.089c-0.89-0.422-2.868-0.616-4.5-0.458l0.093,1.079
			c0.033,0.396,0.069,0.791,0.105,1.187c0.66-0.316,1.418-0.597,2.251-0.597c2.362,1.076-0.239,5.792-1.665,6.8
			c0.046,0.532,0.09,1.064,0.129,1.596c0.479-0.304,1.02-0.56,1.584-0.73c4.656-1.41-1.081,4.197,6.354,2.623
			c2.497-0.528,0.828-1.785,0.345-1.771c-4.363,0.131-4.058-2.709,0.556-2.709c0.286,0,2.411-0.45,1.757-2.071
			C59.876,148.777,58.69,147.939,59.476,147.766z M67.918,151.027c-2.647-0.719-2.174,1.672-3.188,2.705
			c-1.441,1.469-2.862-1.295-1.292,2.43c0.405,0.961,1.003,1.793,2.168,2.227c4.699,1.748,1.006-1.891,0.85-2.514
			C66.166,154.717,71.887,152.105,67.918,151.027z M43.982,103.038c0.125,0.699,0.248,1.426,0.368,2.172
			c0.722-0.045,0.99-0.56,1.047-1.049C45.458,103.62,45.282,103.117,43.982,103.038z M196.793,287.104
			c-0.422-1.754-0.822-3.78-1.164-5.564c-0.404-2.111,0.112-3.759-0.567-5.77c-0.641-1.893-1.21-9.515-1.468-11.944
			c-0.576-5.444-1.787-11.978-2.752-17.383c-1.632-8.882-2.318-20.172-2.883-30.245c-0.08,0.014-0.166,0.024-0.262,0.035
			c-1.223,0.125-1.518-0.887-1.98,0c-0.463,0.884-0.084,1.39-0.254,2.148c-0.168,0.759,0.043,1.476-1.222,1.56
			c-1.264,0.084-3.329-0.337-3.161-1.771c0.17-1.433,1.055-1.18,0.295-1.854c-0.758-0.674-1.559,0.252-2.064-0.885
			c-0.506-1.139,0.168-1.939-0.717-2.234s-2.444,0.211-2.739-0.421c-0.015-0.03-0.026-0.06-0.041-0.091v-2.996
			c0.054-0.293,0.063-0.542,0-0.744v-0.744c-1.247-0.499-2.144-1.982-0.204-4.293v1.285c0.463,0.063,0.861,0.229,1.004,0.396
			c0.464,0.548,0.063,1.938,0.4,2.486s0.885,0.38,1.349,1.139c0.464,0.758-0.337,1.221,0.759,1.602
			c1.096,0.379,0.843-0.17,1.728,0.463c0.886,0.633,0.506,1.18,1.56,1.307c1.055,0.127,1.813-0.127,1.434-1.012
			s-0.633-1.896,0.084-2.275c0.717-0.38,2.064-0.717,2.612,0.169c0.548,0.884,1.307,1.138,0.675,1.896
			c-0.632,0.76-1.434,0.379-1.771,0.717s-0.464,1.096,0.127,1.138c0.521,0.038,1.534-0.977,2.171-0.925
			c-0.056-0.969-0.109-1.923-0.164-2.855c-0.166-2.802-0.229-5.482-0.267-8.191c-0.954-1.031-0.905-3.246-0.043-3.981l-0.01-0.933
			c-0.024-2.161-0.188-4.284-0.196-6.51c-0.002-0.479,0.006-0.949,0.018-1.413c-1.013-0.084-2.102-0.021-3.254,0.377
			c-4.759,1.64-5.924-4.524-3.603-4.457c5.229,0.149,2.758-3.526,6.563-2.624c0.182,0.043,0.34,0.099,0.478,0.164l0.001-0.805
			c-0.809-0.063-1.48-0.511-1.412-1.625c0.235-3.865-2.173-2.875-2.173-5.415c0-3.952,3.538-0.866,2.588-5.533
			c-0.137-0.663,0.715-0.556,1.398-0.788l0.438-8.547c-3.852-1.021-1.175,3.588-3.128,5.341c-1.255,1.126-1.565,0.898-2.921,0.063
			c-1.843-1.134-1.064-2.131-1.542-3.334c-0.113-0.284,0.606-2.662,0.747-3.039c1.924-5.156-3.264-4.04-3.92-5.094
			c-0.027-0.043-0.053-0.088-0.078-0.134l0.592-2.574c-0.133-0.483-0.318-0.837-0.533-1.07c0.219-0.321,0.516-0.559,0.896-0.656
			c7.044-1.796,7.606,3.698,8.325,3.961c0.836,0.308,1.44,0.738,1.912,0.563c0.22-2.617,0.51-5.23,0.729-7.847
			c-0.344,0.331-0.672,0.624-1.246,0.741c-3.16,0.645-2.307-1.796-1.939-2.073c5.418-4.072,1.363-7.454,0.428-5.421
			c-0.565,1.229-2.848,3.559-4.014,3.721c-4.973,0.695-2.814-2.8-2.67-5.369c0.059-1.066-0.133-1.368-1.217-1.368
			c-1.269,0-2.215-0.229-2.914-0.595v0.718c-0.307-0.085-0.668-0.146-1.082-0.176c-0.464-0.033-0.364-0.63-0.1-0.895
			c0.264-0.264,0.891,0.031,1.386-0.557v-0.833c-0.146-0.18-0.348-0.381-0.524-0.665c-0.43-0.696-1.49-0.431-2.055-0.133
			c-0.563,0.299-0.365,1.095-0.066,1.791s-0.299,0.895-1.127,0.794c-0.828-0.099-0.529-0.53-1.226-1.026
			c-0.696-0.498-0.497-0.066-1.359-0.365c-0.861-0.298-0.231-0.663-0.597-1.26c-0.363-0.597-0.795-0.464-1.061-0.895
			c-0.265-0.431,0.05-1.524-0.314-1.955c-0.358-0.423-2.766-0.826-2.354,1.375c0.1,0.53,0.697,0.663,1.293,0.861
			c0.596,0.199,0.53,0.729,0.299,1.524c-0.232,0.796-0.066,1.393,0.166,1.889c0.231,0.497,1.458,0.099,2.154,0.331
			c0.695,0.233,0.166,0.863,0.563,1.757c0.397,0.895,1.027,0.166,1.624,0.696c0.597,0.531-0.099,0.332-0.231,1.458
			c-0.133,1.126,1.49,1.458,2.485,1.392c0.995-0.067,0.829-0.63,0.961-1.227c0.133-0.597-0.165-0.994,0.198-1.69
			c0.613-1.17,4.052,8.399,1.197,6.767c-1.643-0.938-3.338,0.345-4.773,0.398c-1.672,0.061,0.268-2.934-1.912-2.809
			c-0.313,0.018-0.658-0.189-0.959-0.448c-0.812,0.522-2.922,1.576-0.831,1.919c1.628,0.266-1.568,4.113,3.761,3.931
			c1.531-0.052,2.403,0.794,2.832,0.598c1.132,1.702,1.652,1.976,1.652,4.089c-0.47,0.626-1.505,0.776-0.399,1.71
			c0.231,0.196,0.358,0.458,0.399,0.743v0.433c-0.146,1.084-1.34,2.166-2.746,1.033c-0.072-0.059-0.27-1.041-1.057-1.628
			c-0.893-0.665-2.349-0.829-1.66,1.303c0.137,0.426,0.531,0.844,0.123,1.195c-2.091,1.802,0.012,2.903,0.945,1.863
			c2.305-2.569,3.48,1.499,4.376,1.489c0.001,0.001,1.208,1.348,1.238,2.48c0.042,1.628-1.335,2.981-3.645,0.672
			c-5.678-5.678-1.813,2.41-5.839,3.813c-9.034,3.15,1.764-6.908-3.481-4.338c-1.738,0.852-5.796,1.742-5.796,3.349
			c0,3.607-0.816,2.819-2.786,4.085c-1.224,0.786-4.441,0.819-3.008,2.627c1.834,2.315,2.45-0.234,4.959-1.641
			c4.614-2.586,3.779,1.415,3.779,3.371c0,1.092,3.286,1.762,2.506-0.24c-0.991-2.547,0.868-4.052,3.179-3.581
			c2.804,0.571,0.402,3.95,0.561,4.627c0.376,1.598,1.804,2.337,2.512,1.415c0.467-0.607-0.748-1.121-0.748-2.383
			s0.607-1.075-0.188-2.338c-0.795-1.262,0.188-1.729,0.655-2.943c0.911-2.37,4.009-2.977,6.005-1.732
			c1.368,0.854,1.273,2.314,1.436,2.794c0.497,1.479-3.161,1.005-4.637,1.321c-0.654,0.141,0.279,1.449,0.654,3.132
			s-0.936,1.309-1.636,2.524c-0.7,1.214,0,2.336-0.842,3.316c-0.675,0.788-2.204,0.846-3.218,0.138
			c-1.156-0.809-0.92-1.763-1.285-2.364c-0.745-1.228-2.686,0.002-3.662,0.298c-2.635,0.799-6.141,1.155-6.619-0.653
			c-0.642-2.417-4.529,0.758-5.305-1.777c-0.447-0.148-0.471-2.406-0.871-2.487c-2.305-0.471-0.737,1.843-4.02,1.601
			c-1.983-0.146-3.854-2.035-3.691-3.99c0.197-2.372-0.18-2.258-0.473-2.471c-0.542-0.398-0.963-3.278,1.232-3.582
			c0.93-0.129,1.98,0.271,2.453,1.285c2.455,5.286,6.098-1.963,1.209-1.963c-1.426,0-3.998-0.758-2.898-2.529
			c0.92-1.48,1.108,0.773,2.922-2.793c0.971-1.904,2.765-0.878,3.7,0.443c0.755,1.066,0.786,2.034,0.655,4.082
			c-0.104,1.621,0.086,2.755,1.521,2.492c1.416-0.294,3.729-1.93,3.928-1.971c1.413-0.32,3.799-6.47-0.643-2.889
			c-1.296,1.044-3.266,0.83-3.477-0.211c-0.875-4.287-0.086-3.075-3.213-3.587c-2.9-0.476-0.701-3.433,2.107-4.282
			c4.658-1.41-1.079,4.197,6.357,2.623c2.496-0.528,0.826-1.785,0.344-1.771c-4.363,0.131-4.058-2.709,0.556-2.709
			c0.286,0,2.411-0.45,1.757-2.071c-0.357-0.887-1.544-1.725-0.758-1.898c1.647-0.362,2.906,0.176,3.383-0.672
			c1.246-2.215,0.57-3.404-1.98-2.289c-2.416,1.057-6.307,0.551-7.653-0.089c-1.647-0.782-7.028-0.78-7.028,0.784
			c0,3.968,2.026,0.427,4.977,0.427c2.441,1.112-0.418,6.112-1.804,6.89c-4.885,2.737-10.575-5.117-15.003-0.422
			c-1.778,1.886-5.066,0.928-4.861-1.648c0.188-2.368-1.99-4.448-1.761-6.395c0.183-1.564,2.93-4.146,4.437-1.746
			c1.074,1.713,0.98,4.821,2.104,4.868c2.443,0.104,0.275-1.803,0.275-3.23c0-2.115,4.525-0.127,6.285-0.895
			c2.324-1.012-0.473-2.42-1.392-2.772c-1.048-0.402-2.171-0.786-2.435-0.825c-3.041-0.453-3.104-2.969-0.443-4.385
			c1.215-1.144-3.088-3.35-4.842-0.436c0.413,9.317-7.259,3.149-11.016,7.11c-0.457,0.481-2.96,0.788-4.755,1.747
			c-2.147,1.148,0.116,2.777-4.378,3.045c-2.068,0.124-2.703-1.564-3.937-0.783c-1.233,0.783-0.262,2.256-1.646,3.401
			s-3.391,2.492-5.076,1.535c-1.686-0.957-2.616-2.318-1.416-3.757c1.201-1.438,4.169-1.693,4.524-3.34
			c0.354-1.646-2.254-0.751-1.483-2.24c0.772-1.488,2.631-2.035,2.26-3.058c-0.372-1.022-0.646,0.415-2.49-0.125
			c-1.842-0.541-2.558-1.875-2.047-2.524c0.51-0.648,3.603-0.562,3.663-2.024c0.061-1.462-0.927-0.924-1.248-3.792
			c-0.314-2.805-2.755-0.656-2.818-0.341c-0.474,2.321,2.954,0.649,2.331,3.708c-0.139,0.68-0.948,0.798-1.633,0.798
			c-2.196,0-1.37,2.401-1.859,3.969c0.53,1.046,0.543,2.927,0.235,3.755c-0.811,2.185-2.111,2.173-3.953,2.027
			c-4.863-0.384-4.282,1.671-6.06,2.033c-3.161,0.645-2.306-1.796-1.939-2.073c5.418-4.072,1.362-7.454,0.427-5.421
			c-0.566,1.229-2.847,3.559-4.015,3.721c-4.972,0.695-2.814-2.8-2.67-5.369c0.06-1.066-0.132-1.368-1.215-1.368
			c-1.269,0-2.215-0.229-2.914-0.595v0.78c-0.348-0.117-0.777-0.201-1.287-0.238c-0.464-0.033-0.365-0.63-0.099-0.895
			c0.264-0.264,0.89,0.031,1.386-0.557v-0.833c-0.146-0.18-0.35-0.381-0.524-0.665c-0.431-0.696-1.493-0.431-2.055-0.133
			c-0.564,0.299-0.365,1.095-0.067,1.791c0.299,0.696-0.298,0.895-1.127,0.794c-0.829-0.099-0.53-0.53-1.225-1.026
			c-0.697-0.498-0.498-0.066-1.36-0.365c-0.861-0.298-0.231-0.663-0.597-1.26c-0.364-0.597-0.794-0.464-1.061-0.895
			c-0.265-0.431,0.05-1.524-0.315-1.955c-0.357-0.423-2.766-0.826-2.353,1.375c0.1,0.53,0.696,0.663,1.292,0.861
			c0.597,0.199,0.531,0.729,0.299,1.524c-0.232,0.796-0.067,1.393,0.165,1.889c0.233,0.497,1.458,0.099,2.155,0.331
			c0.696,0.233,0.165,0.863,0.563,1.757c0.398,0.895,1.028,0.166,1.625,0.696c0.597,0.531-0.099,0.332-0.232,1.458
			c-0.133,1.126,1.492,1.458,2.486,1.392c0.994-0.067,0.829-0.63,0.961-1.227c0.133-0.597-0.166-0.994,0.199-1.69
			c0.378-0.722,1.917,1.592,2.102,2.324c0.22,0.864-1.825,1.656-1.04,2.833c1.007,1.505,1.137,2.908,0.972,4.006
			c-0.544,1.219-0.468,2.001-0.089,2.297c2.086,1.631,2.107-2.727,5.722-1.973c3.37,0.703,3.301,5.101,4.434,5.249
			c1.272,0.168,1.929,1.142,2.466-0.082c0.921-2.098,0.128-3.574,1.662-5.608c0.375-0.497,3.732-1.645,4.412-0.117
			c0.702,1.577-0.399,1.948-1.861,4.896c-0.665,1.339,0.792,2.928,1.64,3.65c2.037,1.736-2.067,5.575-5.771,4.125
			c-5.269-2.065-2.013,3.127-4.114,5.011c-1.254,1.126-1.564,0.898-2.92,0.063c-1.844-1.134-1.064-2.131-1.542-3.334
			c-0.113-0.284,0.606-2.662,0.747-3.039c1.924-5.156-3.264-4.04-3.919-5.094c-1.511-2.424-3.345,0.093-2.333,0.947
			c1.192,1.009-0.368,3.804-2.348,2.209c-0.071-0.059-0.268-1.041-1.056-1.628c-0.893-0.665-2.348-0.829-1.66,1.303
			c0.137,0.426,0.532,0.844,0.122,1.195c-2.089,1.802,0.013,2.903,0.945,1.863c4.218-4.699,7.442,10.112,1.97,4.642
			c-5.676-5.678-1.812,2.41-5.837,3.813c-9.034,3.15,1.763-6.908-3.481-4.338c-1.738,0.852-5.796,1.742-5.796,3.349
			c0,3.607-0.816,2.819-2.787,4.085c-1.224,0.786-4.441,0.819-3.008,2.627c1.834,2.315,2.451-0.234,4.959-1.641
			c4.614-2.586,3.779,1.415,3.779,3.371c0,1.092,3.286,1.762,2.506-0.24c-0.991-2.547,0.868-4.052,3.179-3.581
			c2.804,0.571,0.402,3.95,0.561,4.627c0.376,1.598,1.803,2.337,2.511,1.415c0.468-0.607-0.748-1.121-0.748-2.383
			s0.608-1.075-0.187-2.338c-0.794-1.262,0.187-1.729,0.655-2.943c0.467-1.216,2.941-2.87,3.688-2.356
			c3.084,0.517,5.108,6.669,2.387,5.907c-1.168-0.326-2.618-1.309-3.272-1.168c-0.655,0.141,0.28,1.449,0.654,3.132
			c0.374,1.683-0.935,1.309-1.635,2.524c-0.702,1.214,0,2.336-0.842,3.316c-0.675,0.788-2.204,0.846-3.217,0.138
			c-1.157-0.809-0.921-1.763-1.286-2.364c-0.745-1.228-2.686,0.002-3.662,0.298c-2.635,0.799-6.141,1.155-6.62-0.653
			c-0.641-2.417-4.529,0.758-5.304-1.777c-0.014-0.006-0.028-0.012-0.042-0.021c0.011,1.293,0.006,2.592,0.003,3.871
			c0.2-0.086,0.405-0.206,0.613-0.35c0.748-0.514,2.57-0.14,2.944,0.702c0.375,0.841,0.188,3.083-1.636,3.364
			c-0.891,0.137-1.445-0.037-1.906-0.313c0.032,2.059,0.194,4.004,0.186,6.125c-0.007,2.226-0.172,4.349-0.196,6.51
			c-0.02,1.723-0.032,3.398-0.055,5.064c1.236,1.133,1.453,2.01,3.007,2.398c1.969,0.492,1.873-0.563,3.185-0.563
			c3.734,0,4.223,1.233,4.069,2.566c-0.158,1.375-1.057,2.842-3.741,2.246c-2.953-0.656-3.664-1.422-4.484-0.602
			c-0.594,0.595-1.388,0.682-2.218,0.479c-0.023,0.502-0.051,1.007-0.081,1.516c-0.044,0.744-0.087,1.5-0.131,2.268
			c0.417,0.027,0.74,0.138,0.978,0.639c0.892,1.883-0.147,3.716,0.42,4.12c0.516,0.366,1.112-0.831,2.84-0.087
			c0.425,0.183,0.782-1.863,1.198-2.051c2.634-1.184,2.447,3.668,0.827,3.668c-1.853,0-1.307-0.9-1.841,0.471
			c-0.324,0.832-0.023,2.661-1.934,2.077c-0.976-0.298-1.506-1.697-2.34-0.589c-0.155,0.207-0.379,0.337-0.638,0.41
			c-0.134,2.264-0.28,4.563-0.445,6.857c0.55-0.152,1.319-0.07,1.69,0.106c0.573,0.272,0.478,0.6,0.251,1.161
			c-0.479,1.188-1.571,0.413-1.215,1.275c0.194,0.471,0.416,1.4,0.172,1.892c-0.397,0.8-0.404,0.794-1.183,0.829
			c-0.046,0.004-0.091,0.003-0.135,0c-0.153,1.723-0.322,3.428-0.509,5.098c0.299,0.208,0.291,0.482,0.277,0.711
			c-0.012,0.213-0.109,0.373-0.414,0.477c-0.32,2.686-0.691,5.268-1.133,7.673c-0.966,5.405-2.176,11.938-2.753,17.383
			c-0.258,2.43-0.827,10.052-1.467,11.944c-0.68,2.011-0.163,3.658-0.568,5.77c-0.342,1.784-0.742,3.811-1.164,5.564
			c-0.463,1.93-1.435,3.646,0.397,4.964c4.274,1.054,8.548,2.108,13.907,3.017c5.358,0.908,11.799,1.672,18.022,2.047
			c6.224,0.375,12.227,0.362,21.559,0.475c9.331,0.113,21.99,0.352,32.51,0.384c10.521,0.03,18.901-0.144,26.231-0.419
			s13.609-0.65,19.05-1.152c5.44-0.499,10.044-1.125,13.823-1.871c3.778-0.746,6.733-1.613,9.689-2.479
			C198.228,290.749,197.256,289.033,196.793,287.104z M56.405,248.082c-0.417,0.01-1.113-0.125-1.041-0.354
			c0.073-0.229,0.26-0.161,0.229-0.38c-0.06-0.416,0.376-0.427,0.59-0.103c0.211,0.276,0.587,0.021,0.632,0.417
			C56.832,247.795,56.819,248.072,56.405,248.082z M157.448,193.141c0.93,0.739,1.285,1.368,2.979,2.105
			c1.695,0.739,1.668,1.888,1.613,2.817c-0.055,0.929-0.574,1.558-2.406,1.886s-1.941-1.284-3.143-1.531
			c-1.204-0.246-0.685,1.121-1.643,1.969c-2.705,2.397-5.886-4.324-2.433-3.691c1.34,0.246,1.368,0.191,1.34-0.574
			c-0.027-0.765-0.465-0.847-0.603-2.051C152.896,191.797,155.914,191.924,157.448,193.141z M145.253,177.888
			c1.448-0.14,3.038,1.401,3.646,2.103s1.309,0.467,2.057-0.047s2.57-0.14,2.943,0.702c0.375,0.841,0.188,3.083-1.635,3.364
			c-1.822,0.28-2.244-0.748-3.318-1.262c-1.075-0.514-1.775,0.654-3.226,1.262c-3.247,1.361-5.804,0.031-4.438-3.879
			C141.981,178.121,143.804,178.027,145.253,177.888z M140.623,178.985c-0.701,0.585-0.304,1.823-1.705,2.407
			c-2.391,0.996-4.262,0.101-3.063-2.969c0.422-1.074,0.281-1.471,1.146-2.148c0.864-0.678,2.826-0.632,3.551,0.023
			C141.277,176.953,141.324,178.401,140.623,178.985z M134.05,187.295c-0.684-0.574-1.395-0.027-1.886,0.492
			c-0.493,0.52-0.465,1.504-1.204,2.188s-1.503,0.574-2.05,1.258s-0.657,1.914-0.657,2.844s-1.367,1.258-2.487,1.503
			c-1.121,0.247-1.723-0.245-2.625-1.695c0,0-0.355-1.12,0.465-1.831s2.516-0.766,2.953-1.805s-0.109-2.188,0.875-3.227
			c0.984-1.038,2.078-0.438,2.461-0.82s0.82-2.625,2.406-3.281c1.585-0.656,3.172,0,3.883,1.203c0.71,1.203,1.093,1.258,2.133,1.805
			c1.038,0.547,1.258,2.953,0.19,3.609c-1.066,0.656-1.613,0.602-1.804,1.695c-0.192,1.094-0.684,2.598-1.259,3.527
			c-0.573,0.93-1.745,2.303-3.882,1.968c-1.984-0.311-1.926-2.258-1.532-3.171c0.521-1.203,0.246-1.094,1.094-2.023
			c0.849-0.93,2.078-0.027,2.762-0.602S134.733,187.869,134.05,187.295z M115.528,163.281c0.392-0.162,2.695,0.053,2.85,1.217
			c0.101,1.479,0.264,1.381,1.747,1.396c1.785-0.076,3.523,4.522,0.311,6.034c-2.378,1.119-3.366-1.172-3.366-3.225
			c0-0.653-0.42-0.561-1.635-0.795c-1.216-0.232-0.327-1.869-0.795-2.477c-0.468-0.606-1.168,0.047-2.243,0.607
			c-1.074,0.561-2.29,0.047-3.411-0.981c-1.123-1.027-0.468-2.149,0.467-3.038c0.935-0.887,4.253-1.027,5.282-0.326
			C115.761,162.395,114.967,163.516,115.528,163.281z M108.633,167.488c0.093,0.42-0.374,1.682-1.636,2.009
			c-1.262,0.327-2.103-0.374-2.477,0s-0.28,1.589-1.496,2.149c-1.215,0.562-1.776,0.469-2.664,0.281
			c-0.889-0.188-0.468,0.701-1.216,1.402c-1.125,1.055-4.867-0.389-1.962-3.739c0.606-0.702,1.167,0.233,2.289,0.046
			c1.123-0.187,0.981-1.354,1.215-2.009c0.234-0.653,0.748-1.309,1.823-1.495c1.075-0.188,1.122,1.355,2.009,1.121
			s0.981-0.889,2.431-1.168C108.399,165.805,108.54,167.066,108.633,167.488z M97.405,177.793c1.024-0.33,1.742,0.224,2.22-0.274
			c0.477-0.497,0.751-1.322,0.788-1.974c0.035-0.648,1.195-1.318,2.796-1.834c1.602-0.518,2.29,0.096,3.393,0.771
			c1.102,0.676,2.272,1.869,2.793,3.027c0.6,1.332,2.178-0.09,3.323,1.672c1.498,2.305,1.194,5.254-1.611,6.371
			c-1.306,0.519-2.375-0.512-3.289-0.757c-2.793-0.75-0.929-3.062-0.165-4.317c1.42-2.336-3.396-1.102-3.729-1.056
			c-1.835,0.248-1.045-0.497-1.69-0.978c-0.646-0.479-1.466,0.326-1.709,0.945c-0.242,0.617-0.3,1.963-1.84,2.361
			c-1.542,0.398-2.098-0.109-2.679-1.149C95.422,179.563,96.381,178.123,97.405,177.793z M96.439,190.097
			c0.459-1.448,1.644-1.02,1.446-2.401c-0.377-2.643,2.379-2.703,3.729-0.658c1.336,1.753,3.719,0.127,4.006,2.642
			c0.096,0.842,0.014,2.589-2.604,2.653C100.386,192.398,95.979,191.544,96.439,190.097z M104.822,197.146
			c1.251,0.37,4.167,2.454,4.957,1.038c1.853-3.318-2.697-1.605-4.058-2.961c-1.5-1.494,0.895-2.516,1.567-2.213
			c2.356,1.059,4.407,0.368,5.245-2.426c0.472-1.575-0.455-5.004,2.482-4.04c0.988,0.323,3.057,3.37,1.422,5.674
			c-1.333,1.879-1.536,3.995,1.53,2.707c1.118-0.47,1.485-1.997,3.712,0.478c0.779,0.867,0.501,3.457-1.012,3.767
			c-3.687,0.751-4.483-3.411-7.027,0.007c-0.494,0.662-11.176,4.12-11.176-0.021C102.465,197.668,103.008,196.611,104.822,197.146z
			 M116.159,203.105c0.809,3.469,2.315,1.215,4.132,1.118c1.592-0.085,2.494,2.86,1.599,4.427c-0.473,1.395-2.622,2.913-4.317,1.904
			c-1.595-1.428-1.461-3.48-4.253-2.528C108.4,209.705,114.444,195.75,116.159,203.105z M119.436,183.393
			c0.187-1.59,1.168-1.309,0.327-2.057s-1.729,0.28-2.29-0.981c-0.561-1.263,0.187-2.149-0.795-2.478
			c-0.981-0.326-2.71,0.234-3.038-0.467c-0.327-0.701-0.561-1.543-0.234-2.664c0.327-1.121,0.421-1.869-0.421-2.15
			c-0.84-0.279-1.682-0.467-1.822-1.215c-0.582-3.103,2.814-2.535,3.318-1.939c0.515,0.607,0.071,2.15,0.445,2.758
			c0.374,0.606,0.98,0.42,1.495,1.262c0.514,0.842-0.374,1.355,0.841,1.775c1.215,0.421,0.936-0.187,1.916,0.514
			c0.982,0.702,0.563,1.309,1.729,1.449c1.169,0.141,2.011-0.141,1.589-1.122c-0.42-0.98-0.7-2.103,0.094-2.524
			c0.795-0.419,2.291-0.793,2.897,0.188c0.608,0.981,1.449,1.263,0.749,2.104c-0.702,0.842-1.59,0.422-1.963,0.795
			c-0.375,0.374-0.515,1.215,0.139,1.262c0.655,0.047,2.011-1.402,2.664-0.935c0.655,0.467,1.122,0.653,1.264,1.683
			c0.139,1.028,0.139,1.682-0.095,1.869s-0.116,0.584-1.472,0.725s-1.684-0.981-2.197,0s-0.094,1.543-0.28,2.384
			s0.047,1.636-1.355,1.729C121.539,185.448,119.249,184.981,119.436,183.393z M123.092,199.766
			c0.373-0.609,2.189-1.637,2.934-0.414c0.342,0.563,0.529,1.414,0.61,1.852c0.116,0.627,0.419,0.735,1.03,0.821
			c2.684,0.381-0.174,6.188-1.916,1.852c-0.397-0.993-0.164-1.134-0.609-1.042c-0.57,0.117-1.174-0.035-1.658-0.328
			C122.422,201.865,122.731,200.358,123.092,199.766z M130.133,170.433c0.328-1.355,1.847-1.472,2.969-1.169
			c1.121,0.305,1.004,0.959,1.963,1.191c0.957,0.234,2.851,1.777,2.921,3.389c0.069,1.613-2.454,2.314-3.669,2.058
			s-1.215-1.38-2.033-2.267c-0.818-0.889-1.684-0.444-2.01-1.52C130.273,172.115,129.807,171.788,130.133,170.433z M129.472,164.973
			c0.467-0.607-0.747-1.122-0.747-2.384s0.607-1.075-0.188-2.337s0.188-1.729,0.654-2.943c0.467-1.216,1.775-0.328,2.523,0.187
			c0.748,0.514,0.468-0.281,1.682-0.795c0.747-0.315,5.102-0.341,5.002,3.509c-0.015,0.57,2.791-0.139,2.029-3.338
			c-0.244-1.02-1.239-2.045-1.094-2.695c0.467-2.103,1.495-1.682,2.804-0.934c1.308,0.747,1.495,1.682,1.495,4.486
			s-1.916,1.963-2.945,4.207c-0.934,1.962,0.982,2.804-1.542,4.58c-2.522,1.775-4.112-0.002-4.533-1.216
			c-0.421-1.216,1.403-2.15,2.337-3.085c0.936-0.935-0.515-1.028-1.682-1.355c-1.169-0.326-2.618-1.309-3.271-1.168
			c-0.655,0.14,0.279,1.448,0.653,3.131s-0.935,1.309-1.636,2.524c-0.701,1.215,0,2.337-0.842,3.317
			c-1.238,1.447-5.359,0.432-3.878-3.271C126.668,164.458,129.004,165.58,129.472,164.973z M115.063,155.174
			c1.589,0,1.683-0.514,1.776-2.57c0.093-2.057,2.196-1.496,3.038-2.01c0.84-0.514,1.215-1.542,0.981-3.084
			c-0.233-1.542-0.702-1.87-0.048-2.898c0.655-1.027,2.197-0.981,2.852-0.608c0.654,0.374,2.197,0.374,1.635,2.805
			c-0.561,2.43-1.355,1.869-1.447,3.131c-0.095,1.262,2.569,1.495,2.943,2.103c0.373,0.608-0.374,1.683-2.01,1.964
			c-1.636,0.279-1.729-0.982-2.15-0.141c-0.42,0.841,1.122,1.496,1.637,2.852c0.514,1.355-1.637,0.326-1.496,1.775
			s2.664,1.963,3.552,3.318s-0.046,2.43-1.589,3.084c-1.542,0.655-3.131-0.7-4.206-1.822c-1.076-1.122-0.094-2.289-1.076-3.084
			c-0.981-0.795-1.729,0.748-3.458,0.279C113.44,159.577,112.29,155.174,115.063,155.174z M97.462,159.857
			c2.371-0.936-1.192-2.981-0.643-4.039c0.653-1.264,1.916-0.936,3.412-0.281c1.495,0.654,3.131,1.495,4.393,1.449
			c1.261-0.047,1.168-1.823,0.607-2.29c-0.561-0.468-1.916,0.841-2.71-0.281c-0.795-1.121,0.281-1.823,1.402-2.663
			c1.122-0.842,3.083,1.402,3.925,1.402s0.748-0.749,1.028-2.432c0.28-1.682,0.841-2.149,2.43-1.869s2.991,2.617,2.991,4.487
			c0,1.869-1.027,2.337-1.869,3.364c-0.842,1.029-0.561,2.805-2.056,3.74c-1.496,0.934-2.804-0.936-5.141-0.936
			c-2.337,0-1.589,2.244-3.365,3.178C97.437,165.02,92.563,161.788,97.462,159.857z M95.691,194.488
			c0.177,2.049-1.847,3.219-1.032,4.823c0.749,1.476,2.329,2.72,1.579,4.294c-0.758,1.592-4.418,0.411-5.257-0.537
			c-0.516-0.584-1.042-1.146-1.9-1.283c-9.424-1.501-7.962-9.271-0.341-4.742c3.293,1.957,1.777-2.232,3.778-3.572
			C93.544,192.784,95.586,193.277,95.691,194.488z M94.078,188.451c-1.848,2.114-5.29-1.17-9.653,0.335
			c-4.759,1.64-5.923-4.524-3.603-4.457c5.229,0.149,2.758-3.526,6.563-2.624c2.643,0.628,0.312,3.742,2.816,3.349
			C95.181,184.271,95.879,186.391,94.078,188.451z M86.865,168.491c-0.187-0.919,1.518-0.358,2.051-1.273
			c0.779-1.335-1.62-4.721,1.67-5.048c3.771-0.375,2.344,4.889,2.36,4.932c0.399,1.057,2.527,1.729,0.024,4.731
			c-0.485,0.581-1.245,0.131-2.07,0.072c-3.823-0.271-0.765,1.761-1.932,4.075c-0.468,0.929,2.364,2.093,1.391,4.055
			c-0.532,1.07-4.059,1.889-3.907-0.596c0.234-3.865-2.174-2.875-2.174-5.415C84.277,170.072,87.817,173.158,86.865,168.491z
			 M76.581,176.422c1.818,1.172,1.687,2.112,3.142,2.475c1.455,0.364,1.382-0.414,2.352-0.414c2.758,0,3.119,0.91,3.006,1.896
			c-0.117,1.014-0.782,2.098-2.764,1.658c-2.181-0.484-2.706-1.051-3.312-0.445c-1.271,1.272-3.788-0.598-4.56-1.738
			C72.854,177.505,75.078,175.455,76.581,176.422z M60.031,199.949c-1.832,0.328-1.941-1.284-3.145-1.531
			c-1.203-0.246-0.684,1.121-1.641,1.969c-2.706,2.397-5.886-4.324-2.433-3.691c1.339,0.246,1.366,0.191,1.339-0.574
			c-0.027-0.765-0.465-0.847-0.602-2.051c-0.258-2.273,2.76-2.146,4.293-0.93c0.93,0.739,1.286,1.368,2.98,2.105
			c1.695,0.739,1.668,1.888,1.613,2.817C62.382,198.992,61.864,199.621,60.031,199.949z M58.157,234.017
			c0.158-0.496,0.563-0.351,0.496-0.823c-0.129-0.905,0.815-0.926,1.277-0.226c0.225,0.296,0.724,0.978,1.32,1.292
			c0.617,0.326,1.327,0.287,1.376,0.725c0.033,0.289-0.922,0.993-2.216-0.202C59.51,234.805,57.999,234.512,58.157,234.017z
			 M63.348,241.913c-0.014,0.241-0.148,0.403-0.623,0.489c-0.475,0.084-0.502-0.333-0.814-0.397
			c-0.312-0.063-0.178,0.291-0.426,0.51c-0.701,0.622-1.525-1.12-0.63-0.956c0.347,0.063,0.354,0.05,0.347-0.148
			c-0.007-0.199-0.121-0.22-0.156-0.531c-0.067-0.589,0.715-0.557,1.113-0.241c0.241,0.192,0.333,0.354,0.771,0.546
			C63.37,241.375,63.363,241.672,63.348,241.913z M65.529,224.233c-0.396,0.831-2.306,0.215-2.744-0.28
			c-0.27-0.305-0.54-0.654-0.993-0.67c-1.309-0.043-1.239-2.684-0.178-2.476c1.723,0.34,0.928-1.165,1.972-1.865
			c0.536-0.357,1.601-0.101,1.656,0.532c0.093,1.069-0.964,1.68-0.539,2.518C65.095,222.762,65.92,223.412,65.529,224.233z
			 M63.788,211.682c-1,0.521-2.131,0.043-3.174-0.914c-1.044-0.956-0.435-2,0.435-2.826c0.87-0.827,3.958-0.957,4.915-0.305
			c0.957,0.652,0.217,1.695,0.739,1.479c0.365-0.151,2.508,0.049,2.653,1.132c0.094,1.376,0.245,1.286,1.625,1.299
			c1.661-0.071,3.278,4.208,0.289,5.615c-2.213,1.042-3.131-1.089-3.131-3.001c0-0.609-0.391-0.521-1.522-0.739
			c-1.131-0.217-0.304-1.739-0.739-2.306C65.441,210.551,64.789,211.16,63.788,211.682z M71.109,250.903
			c-0.233,0.512-1.158,1.173-1.414,1.173c-0.688,0-0.486-0.334-0.684,0.175c-0.12,0.309-0.009,0.987-0.719,0.771
			c-0.362-0.11-0.559-0.631-0.869-0.219c-0.22,0.293-0.805,0.166-1.098,0.069c-0.415-0.137-0.211-0.902-0.203-0.938
			c0.135-0.6-0.532-1.79,0.203-2.173c0.369-0.192,0.03-1.126,0.444-1.113c0.284,0.01,0.487-0.035,0.618,0.243
			c0.331,0.698,0.29,2.466,0.5,2.615c0.192,0.137,0.414-0.309,1.055-0.033c0.158,0.068,1.297-1.512,1.452-1.582
			C70.956,249.641,71.424,250.213,71.109,250.903z M72.167,242.333c-0.416,0.011-1.432-0.927-1.397-1.474
			c0.073-0.229,0.008-0.709-0.023-0.928c-0.06-0.418,0.375-0.428,0.589-0.104c0.211,0.276,0.588,0.021,0.633,0.417
			c0.102,0.918-0.706-0.708-0.399,0.869C71.666,241.612,72.755,242.116,72.167,242.333z M73.38,231.574
			c-0.819,0-0.578-0.397-0.813,0.208c-0.143,0.368-0.01,1.176-0.854,0.918c-0.432-0.132-0.666-0.75-1.034-0.261
			c-0.263,0.35-0.958,0.199-1.306,0.084c-0.493-0.164-0.233-1.159-0.242-1.117c0.161-0.711-0.223-0.836,0.652-1.292
			c0.231-0.12,0.711-0.915,0.785-1.993c0.066-0.977-0.279-2.254-0.045-2.245c0.338,0.012,0.579-0.042,0.735,0.288
			c0.394,0.831-0.276,4.556-0.026,4.733c0.228,0.163,0.492-0.366,1.255-0.038c0.188,0.081,0.345-0.822,0.53-0.905
			C74.179,229.432,74.096,231.574,73.38,231.574z M71.413,200.85c-1.64,0.108-2.46-1.423-3.391-2.024
			c-2.841-1.839,0.066-3.743,1.368-4.867c2.422-2.091-3.385-2.445-3.773-2.515c-2.132-0.383-0.984-0.93-1.531-1.695
			c-0.546-0.766-1.75-0.164-2.242,0.438c-0.493,0.602-1.04,2.078-2.899,1.969s-2.297-0.875-2.57-2.242
			c-0.274-1.368,1.313-2.625,2.57-2.625s1.859,0.875,2.57,0.492c0.712-0.383,1.313-1.203,1.586-1.914s1.804-1.039,3.773-1.039
			c1.968,0,2.515,0.93,3.5,2.078c0.985,1.148,1.859,2.898,2.023,4.375c0.188,1.699,2.457,0.682,3.1,3.055
			C76.336,197.438,74.939,200.613,71.413,200.85z M81.689,236.611c-1.057,0.121,0.117-2.003-0.609-2.675
			c-0.728-0.676-2.584,0.233-2.773-0.326c0.203-0.64,0.726-0.45,0.639-1.061c-0.167-1.167,1.051-1.194,1.647-0.29
			c0.59,0.773,1.643,0.055,1.77,1.166C82.406,233.797,82.847,236.582,81.689,236.611z M87.216,243.244
			c-0.335,0.704-1.952,0.184-2.323-0.236c-0.227-0.258-0.456-0.553-0.84-0.566c-1.107-0.037-1.047-2.272-0.15-2.096
			c1.458,0.288,0.786-0.985,1.669-1.577c0.453-0.303,1.354-0.085,1.401,0.45c0.078,0.904-0.816,1.421-0.456,2.13
			C86.848,242,87.547,242.55,87.216,243.244z M89.204,231.264c-0.318,0.668-1.852,0.173-2.204-0.225
			c-0.217-0.245-0.434-0.526-0.797-0.538c-0.803-0.027-1.69-2.421-2.652-3.13c-0.498-0.365-1.287,1.076-1.521,0.667
			c-0.737-1.29,0.631-2.474,1.459-2.238c1.313,0.373,2.366,3.362,3.273,3.755c1.037,0.448,0.659-2.393,0.881-2.541
			c0.43-0.287,1.286-0.082,1.331,0.428c0.075,0.858-0.775,1.348-0.433,2.021C88.855,230.082,89.518,230.604,89.204,231.264z
			 M89.626,215.578c-0.211,0.169-0.106,0.527-1.327,0.654c-1.223,0.125-1.518-0.887-1.981,0c-0.464,0.884-0.084,1.39-0.253,2.148
			s0.042,1.476-1.222,1.56c-1.264,0.084-3.33-0.337-3.161-1.771c0.168-1.433,1.053-1.18,0.294-1.854
			c-0.758-0.674-1.559,0.252-2.065-0.885c-0.506-1.139,0.169-1.939-0.717-2.234c-0.885-0.295-2.444,0.211-2.739-0.421
			c-0.095-0.205-0.182-0.423-0.245-0.657V210.5c0.01-0.041,0.022-0.084,0.034-0.127c0.632-2.164-0.741-2.5-1.407-4.652
			c-0.443-1.427,0.072-2.734,1.432-1.645c0.378,0.303,0.333,0.791,0.945,1.514c0.463,0.548,0.063,1.938,0.4,2.486
			c0.338,0.548,0.885,0.38,1.349,1.139c0.463,0.758-0.338,1.221,0.758,1.602c1.097,0.379,0.844-0.17,1.729,0.463
			c0.884,0.633,0.505,1.18,1.559,1.307s1.813-0.127,1.434-1.012c-0.38-0.885-0.633-1.896,0.084-2.275
			c0.717-0.38,2.065-0.717,2.613,0.169c0.548,0.884,1.307,1.138,0.675,1.896c-0.633,0.76-1.434,0.379-1.771,0.717
			s-0.464,1.096,0.126,1.138c0.591,0.042,1.813-1.265,2.403-0.843c0.589,0.422,1.011,0.59,1.137,1.518S89.836,215.41,89.626,215.578
			z M94.493,207.971c1.196,1.032-0.263,2.979,1.53,3.307c3.381,0.616,1.496,5.387-1.199,4.322c-1.345-0.531-2.025-1.077-1.368-2.627
			c0.662-1.559-0.927-1.83-2.058-2.197C88.682,209.896,91.641,205.508,94.493,207.971z M92.605,221.691
			c-0.26-1.389,1.26-1.135,1.486-0.869c0.23,0.272,0.031,0.963,0.198,1.235c0.168,0.271,0.44,0.188,0.67,0.564
			c0.231,0.377-0.167,0.608,0.377,0.796c0.543,0.188,0.418-0.084,0.858,0.229c0.439,0.313,0.251,0.586,0.774,0.649
			c0.523,0.063,0.899-0.063,0.711-0.502c-0.188-0.439-0.314-0.941,0.042-1.131c0.356-0.188,1.026-0.355,1.297,0.084
			c0.272,0.439,0.649,0.564,0.335,0.941s-0.711,0.189-0.879,0.355c-0.167,0.168-0.23,0.545,0.063,0.565
			c0.292,0.021,0.9-0.628,1.193-0.419c0.293,0.21,0.502,0.294,0.565,0.754c0.063,0.461,0.063,0.754-0.042,0.838
			c-0.105,0.082-0.053,0.261-0.659,0.323c-0.607,0.063-0.754-0.439-0.984,0c-0.231,0.44-0.042,0.69-0.126,1.067
			s0.021,0.732-0.606,0.773c-0.628,0.043-1.653-0.166-1.569-0.878s0.522-0.586,0.146-0.921c-0.376-0.334-0.773,0.126-1.025-0.439
			c-0.251-0.564,0.084-0.963-0.355-1.109c-0.439-0.146-1.214,0.104-1.36-0.209c-0.147-0.314-0.251-0.689-0.105-1.193
			c0.147-0.501,0.189-0.836-0.188-0.962C93.045,222.109,92.668,222.026,92.605,221.691z M99.314,254.425
			c-0.015,0.241-0.149,0.403-0.624,0.489c-0.475,0.085-0.504-0.333-0.815-0.396c-0.312-0.064-0.178,0.29-0.426,0.51
			c-0.701,0.621-1.524-1.121-0.629-0.956c0.347,0.063,0.354,0.049,0.347-0.149c-0.007-0.199-0.121-0.22-0.156-0.531
			c-0.067-0.59,0.714-0.557,1.112-0.241c0.241,0.19,0.333,0.354,0.772,0.546C99.335,253.887,99.328,254.184,99.314,254.425z
			 M99.317,236.826c-0.383,0.803,0.402,1.147-0.63,1.875c-1.033,0.727-1.684,0-1.855-0.498c-0.172-0.497,0.574-0.88,0.957-1.262
			c0.382-0.383-0.211-0.421-0.688-0.555c-0.478-0.135-1.071-0.536-1.338-0.479c-0.268,0.058,0.115,0.594,0.268,1.281
			c0.153,0.688-0.383,0.535-0.669,1.032c-0.287,0.498,0,0.956-0.344,1.358c-0.507,0.591-2.193,0.176-1.586-1.34
			c0.153-0.381,1.108,0.077,1.299-0.172c0.191-0.248-0.306-0.459-0.306-0.975c0-0.517,0.249-0.439-0.076-0.956
			c-0.326-0.517,0.076-0.707,0.267-1.204c0.192-0.498,0.727-0.135,1.032,0.076c0.306,0.21,0.192-0.115,0.689-0.324
			c0.305-0.131,2.087-0.141,2.046,1.436c-0.006,0.232,1.142-0.058,0.83-1.366c-0.1-0.417-0.506-0.837-0.448-1.103
			c0.192-0.86,0.612-0.688,1.147-0.383c0.536,0.307,0.612,0.689,0.612,1.836S99.738,235.908,99.317,236.826z M100.763,208.236
			c-0.242,0.311-0.5,1.065-1.443,1.032c-0.943-0.032-1.174-0.413-1.33-1.103c-0.155-0.689,0.632-1.346,1.27-1.361
			c0.637-0.016,0.952,0.42,1.307,0.218c0.355-0.202,0.65-0.626,0.779-0.989c0.13-0.363,0.901-0.548,1.898-0.573
			c0.997-0.024,1.284,0.44,1.797,1.009c0.513,0.568,0.978,1.444,1.08,2.189c0.116,0.858,1.252,0.315,1.607,1.509
			c0.464,1.562-0.205,3.187-1.987,3.35c-0.83,0.075-1.263-0.689-1.742-0.982c-1.461-0.896-0.013-1.896,0.632-2.481
			c1.201-1.089-1.744-1.195-1.941-1.227c-1.085-0.168-0.51-0.458-0.797-0.839C101.606,207.606,101.004,207.926,100.763,208.236z
			 M104.925,218.195c-0.306,0.256-0.132,0.797-0.745,1.053c-1.043,0.434-1.861,0.043-1.336-1.297c0.183-0.469,0.122-0.643,0.5-0.938
			c0.378-0.296,1.235-0.276,1.552,0.01C105.211,217.309,105.231,217.941,104.925,218.195z M101.55,228.295
			c0-0.656,0.24-1.123,1.042-0.888c0.553,0.163,1.84,1.085,2.189,0.459c0.819-1.467-1.191-0.71-1.792-1.309
			c-0.663-0.659,0.395-1.11,0.691-0.978c1.041,0.468,1.947,0.162,2.317-1.072c0.208-0.695-0.201-2.209,1.096-1.783
			c0.436,0.143,1.351,1.488,0.629,2.506c-0.589,0.83-0.679,1.765,0.676,1.195c0.494-0.207,0.657-0.882,1.639,0.212
			c0.345,0.383,0.222,1.527-0.447,1.663c-1.628,0.332-1.979-1.506-3.104,0.003C106.269,228.597,101.55,230.124,101.55,228.295z
			 M107.613,233.815c-0.081-0.715,0.867-0.675,1.348-0.292c0.292,0.232,0.404,0.43,0.936,0.661c0.533,0.232,0.524,0.594,0.506,0.886
			c-0.017,0.291-0.18,0.488-0.755,0.592c-0.575,0.104-0.61-0.403-0.988-0.481c-0.378-0.077-0.215,0.353-0.515,0.619
			c-0.851,0.753-1.849-1.358-0.765-1.159c0.421,0.076,0.429,0.06,0.421-0.182C107.792,234.219,107.656,234.193,107.613,233.815z
			 M108.64,242.65c-0.516-0.157-0.795-0.896-1.235-0.312c-0.314,0.418-1.146,0.237-1.562,0.099
			c-0.588-0.194-0.277-1.383-0.289-1.333c0.192-0.851-0.267-0.999,0.779-1.544c0.524-0.273,0.042-1.603,0.631-1.583
			c0.404,0.015,0.691-0.05,0.878,0.345c0.471,0.994-0.077,1.961,0.222,2.174c0.272,0.194,0.588-0.438,1.5-0.045
			c0.224,0.097,0.413-0.984,0.633-1.082c1.39-0.625,1.292,1.937,0.437,1.937c-0.979,0-0.69-0.476-0.973,0.247
			C109.491,241.993,109.649,242.959,108.64,242.65z M111.782,246.883c-0.102,0.303-0.568,0.632-0.937,0.413
			c-0.346-0.31-0.317-0.755-0.922-0.549c-1.068,0.364,0.244-2.663,0.617-1.066c0.175,0.751,0.502,0.263,0.896,0.241
			C111.781,245.904,111.977,246.543,111.782,246.883z M112.366,224.629c-0.726-0.287-1.093-0.582-0.738-1.418
			c0.357-0.842-0.5-0.986-1.111-1.186c-1.465-0.475,0.132-2.842,1.67-1.515c0.646,0.558-0.142,1.608,0.826,1.784
			C114.838,222.629,113.82,225.203,112.366,224.629z M114.888,216.438c-2.654,0.905,0.608-6.624,1.533-2.655
			c0.436,1.871,1.25,0.655,2.229,0.604c0.859-0.047,1.346,1.544,0.862,2.389c-0.255,0.753-1.415,1.572-2.329,1.027
			C116.323,217.032,116.395,215.925,114.888,216.438z M120.768,226.846c-0.15-0.438,0.504-0.773,0.84-1.107
			c0.336-0.336-0.185-0.37-0.604-0.487c-0.419-0.118-0.939-0.47-1.175-0.42c-0.234,0.05,0.101,0.521,0.235,1.124
			c0.134,0.604-0.336,0.471-0.588,0.907c-0.251,0.437,0,0.839-0.302,1.191c-0.255,0.297-2.331,2.371-3.223,1.28
			c-0.14-0.172,0.802-0.482,1.773-0.832c0.472-0.17-0.027-1.414,0.056-1.623c0.135-0.336,0.974,0.067,1.142-0.151
			c0.168-0.218-0.268-0.403-0.268-0.856c0-0.452,0.218-0.385-0.068-0.839c-0.285-0.453,0.068-0.621,0.235-1.057
			c0.167-0.437,0.638-0.118,0.906,0.067c0.269,0.185,0.168-0.102,0.604-0.286c0.268-0.113,1.832-0.122,1.796,1.261
			c-0.005,0.205,1.003-0.051,0.729-1.199c-0.088-0.365-0.444-0.734-0.394-0.967c0.168-0.756,0.537-0.605,1.008-0.336
			c0.469,0.268,0.537,0.604,0.537,1.611c0,1.006-0.688,0.704-1.058,1.51c-0.336,0.705,0.353,1.007-0.554,1.646
			C121.49,227.919,120.92,227.281,120.768,226.846z M123.049,239.811c-0.737,0.018-1.973-0.223-1.844-0.629
			c0.129-0.405,0.461-0.285,0.406-0.672c-0.106-0.742,0.666-0.759,1.045-0.186c0.374,0.492,1.043,0.036,1.124,0.741
			C123.807,239.301,123.784,239.791,123.049,239.811z M129.666,233.873c-1.629,0.331-1.98-1.507-3.104,0.002
			c-0.219,0.293-4.938,1.82-4.938-0.009c0-0.656,0.24-1.123,1.041-0.888c0.553,0.164,1.841,1.085,2.189,0.459
			c0.818-1.467-1.191-0.709-1.792-1.309c-0.663-0.659,0.395-1.11,0.691-0.978c1.04,0.468,1.947,0.164,2.317-1.07
			c0.209-0.696-0.201-2.211,1.096-1.785c0.437,0.143,1.352,1.488,0.629,2.506c-0.588,0.831-0.678,1.765,0.676,1.196
			c0.494-0.207,0.657-0.883,1.64,0.211C130.457,232.592,130.334,233.736,129.666,233.873z M129.744,220.659
			c-0.439-0.029-1.15,0.696-2.168,0.241c-1.021-0.455-1.27-0.857-1.639-1.518c-0.37-0.659-0.697,0.093-1.547,0.008
			c-1.279-0.127-2.428-3.266,1.269-3.283c0.772-0.004,0.493,0.861,1.228,1.462c0.732,0.602,1.389-0.128,1.928-0.34
			c0.538-0.213,1.23-0.25,1.938,0.321c0.707,0.572-0.235,1.447,0.399,1.877c0.633,0.429,1.096,0.129,2.066,0.883
			c0.971,0.756,0.256,1.536,0.045,1.826c-0.213,0.289-1.262,0.688-2.16,0.076C130.207,221.601,130.185,220.689,129.744,220.659z
			 M132.061,252.107c-0.416,0.012-1.112-0.125-1.039-0.353c0.072-0.229,0.26-0.161,0.229-0.38c-0.061-0.418,0.376-0.428,0.59-0.104
			c0.211,0.277,0.588,0.02,0.633,0.416C132.487,251.822,132.475,252.098,132.061,252.107z M136.322,237.845
			c-0.016,0.276-0.17,0.464-0.717,0.562c-0.545,0.098-0.578-0.383-0.936-0.455c-0.359-0.074-0.204,0.334-0.489,0.586
			c-0.807,0.714-1.755-1.289-0.726-1.1c0.4,0.072,0.408,0.057,0.4-0.172c-0.01-0.228-0.14-0.252-0.181-0.61
			c-0.077-0.678,0.823-0.64,1.28-0.276c0.276,0.219,0.383,0.406,0.887,0.627C136.348,237.225,136.339,237.566,136.322,237.845z
			 M133.766,233.369c0.184-0.469,0.122-0.643,0.499-0.939c0.378-0.295,1.235-0.274,1.552,0.012c0.316,0.285,0.336,0.918,0.031,1.174
			c-0.308,0.254-0.134,0.795-0.746,1.05C134.058,235.1,133.24,234.709,133.766,233.369z M132.246,227.63
			c0.047-0.235,0.641-1.194,2.014-1.017c0.617,0.079,0.548,0.968,1.226,1.252c1.095,0.459,2.866,0.367,3.083,0.408
			c0.592,0.107,0.604,0.084,0.592-0.254c-0.013-0.338-0.207-0.375-0.267-0.906c-0.114-1.004,1.219-0.949,1.896-0.41
			c0.411,0.325,0.567,0.604,1.316,0.929c0.749,0.327,0.737,0.834,0.713,1.245c-0.024,0.41-0.254,0.688-1.063,0.833
			c-0.81,0.146-0.938-1.442-1.469-1.55c-0.532-0.109-0.141,1.49-0.646,1.743c-1.088,0.544-1.254-0.413-3.07-0.636
			C134.266,228.983,132.121,228.256,132.246,227.63z M140.354,258.58c-0.014,0.241-0.149,0.404-0.624,0.489
			s-0.503-0.333-0.815-0.397c-0.311-0.063-0.176,0.29-0.424,0.51c-0.702,0.621-1.525-1.12-0.631-0.956
			c0.347,0.063,0.354,0.05,0.347-0.149c-0.007-0.197-0.12-0.219-0.155-0.53c-0.067-0.59,0.715-0.558,1.111-0.241
			c0.242,0.191,0.334,0.354,0.773,0.546C140.374,258.041,140.367,258.34,140.354,258.58z M143.045,243.84
			c-0.818,0-0.578-0.397-0.813,0.209c-0.144,0.367-0.011,1.175-0.854,0.917c-0.433-0.132-0.666-0.749-1.034-0.26
			c-0.263,0.349-0.958,0.198-1.307,0.082c-0.492-0.163-0.232-1.157-0.241-1.116c0.161-0.711-0.224-0.836,0.651-1.292
			c0.439-0.229,0.036-1.341,0.528-1.323c0.337,0.011,0.579-0.043,0.734,0.287c0.396,0.832-0.063,1.643,0.187,1.82
			c0.228,0.162,0.491-0.367,1.254-0.039c0.188,0.082,0.345-0.823,0.529-0.904C143.844,241.697,143.761,243.84,143.045,243.84z
			 M143.427,214.967c-0.89,2.201-2.913,0.766-2.253,2.363c0.359,0.873,0.771,2.596,0.318,3.506c-0.736,1.481-0.749,1.471-2.19,1.538
			c-1.346,0.063-2.287-0.989-2.287-2.003c0.382-0.422,0.657-3.287,1.642-3.4c1.636-0.189-0.59-2.219,0.117-3.631
			c0.555-1.106,3.174-1.008,4.188-0.525C144.022,213.32,143.847,213.926,143.427,214.967z M141.646,206.418
			c-0.897,1.885,0.942,2.693-1.481,4.398c-2.424,1.707-3.95,0-4.354-1.167c-0.405-1.167,1.346-2.065,2.244-2.963
			c0.896-0.897-0.494-0.987-1.617-1.302c-1.121-0.313-2.513-1.256-3.142-1.122c-0.628,0.135,0.269,1.392,0.629,3.008
			c0.358,1.616-0.898,1.257-1.571,2.424c-0.674,1.167,0,2.245-0.809,3.188c-1.19,1.388-5.148,0.414-3.726-3.144
			c0.358-0.897,2.604,0.181,3.053-0.403s-0.719-1.078-0.719-2.291c0-1.211,0.584-1.031-0.179-2.244
			c-0.764-1.211,0.179-1.66,0.627-2.827c0.449-1.167,1.707-0.313,2.426,0.179c0.718,0.494,0.449-0.269,1.615-0.763
			c0.717-0.303,4.898-0.327,4.805,3.371c-0.015,0.548,2.68-0.134,1.947-3.206c-0.234-0.979-1.189-1.965-1.051-2.589
			c0.449-2.021,1.438-1.616,2.693-0.897s1.437,1.616,1.437,4.309C144.474,205.071,142.633,204.263,141.646,206.418z
			 M144.068,193.618c-0.775,0.161-1.6-0.047-2.26-0.446c-1.445-0.874-1.023-2.928-0.531-3.734c0.506-0.832,2.983-2.232,3.998-0.565
			c0.466,0.767,0.722,1.927,0.832,2.524c0.158,0.855,0.57,1.001,1.404,1.119c3.658,0.519-0.238,8.435-2.611,2.523
			C144.357,193.686,144.674,193.493,144.068,193.618z M148.311,238.293c-0.017,0.27-0.166,0.451-0.697,0.547
			s-0.563-0.372-0.912-0.443c-0.348-0.072-0.197,0.325-0.475,0.57c-0.785,0.694-1.706-1.254-0.705-1.07
			c0.389,0.072,0.396,0.057,0.389-0.166c-0.008-0.222-0.135-0.246-0.176-0.594c-0.074-0.659,0.801-0.622,1.245-0.27
			c0.269,0.214,0.372,0.396,0.864,0.609C148.334,237.691,148.326,238.023,148.311,238.293z M150.904,228.488
			c-0.48,1.188-1.572,0.413-1.217,1.275c0.193,0.471,0.416,1.4,0.172,1.892c-0.396,0.8-0.404,0.794-1.183,0.829
			c-0.726,0.035-1.233-0.533-1.233-1.08c0.206-0.227,0.355-1.773,0.887-1.835c0.881-0.101-0.318-1.198,0.063-1.96
			c0.299-0.596,1.713-0.543,2.26-0.282C151.225,227.6,151.13,227.927,150.904,228.488z M156.009,248.082
			c-0.416,0.01-1.114-0.125-1.04-0.354c0.072-0.229,0.26-0.161,0.229-0.38c-0.061-0.416,0.375-0.427,0.59-0.103
			c0.211,0.276,0.588,0.021,0.633,0.417C156.436,247.795,156.422,248.072,156.009,248.082z M156.16,217.994
			c-1.854,0-1.309-0.9-1.842,0.471c-0.324,0.832-0.023,2.661-1.934,2.077c-0.977-0.298-1.507-1.697-2.34-0.589
			c-0.594,0.791-2.17,0.449-2.957,0.188c-1.116-0.369-0.526-2.621-0.547-2.526c0.362-1.611-0.506-1.895,1.475-2.926
			c0.994-0.517,0.08-3.034,1.195-2.997c0.766,0.026,1.309-0.096,1.664,0.652c0.892,1.883-0.146,3.716,0.42,4.12
			c0.515,0.366,1.112-0.831,2.84-0.087c0.425,0.183,0.781-1.863,1.198-2.051C157.968,213.143,157.779,217.994,156.16,217.994z
			 M156.812,208.045c-2.953-0.656-3.663-1.422-4.484-0.602c-1.722,1.723-5.129-0.811-6.175-2.354
			c-2.152-3.18,0.859-5.957,2.895-4.646c2.459,1.586,2.283,2.859,4.253,3.352c1.968,0.492,1.871-0.563,3.184-0.563
			c3.734,0,4.224,1.233,4.069,2.566C160.395,207.174,159.495,208.641,156.812,208.045z M157.762,234.017
			c0.157-0.496,0.563-0.351,0.495-0.823c-0.129-0.905,0.814-0.926,1.277-0.226c0.457,0.601,1.273,0.044,1.372,0.905
			c0.032,0.288,0.004,0.887-0.893,0.909C159.113,234.805,157.604,234.512,157.762,234.017z M162.953,241.913
			c-0.016,0.241-0.149,0.403-0.624,0.489c-0.475,0.084-0.503-0.333-0.814-0.397c-0.312-0.063-0.177,0.291-0.425,0.51
			c-0.702,0.622-1.525-1.12-0.631-0.956c0.347,0.063,0.354,0.05,0.347-0.148c-0.007-0.199-0.121-0.22-0.155-0.531
			c-0.067-0.589,0.715-0.557,1.111-0.241c0.242,0.192,0.334,0.354,0.772,0.546C162.974,241.375,162.967,241.672,162.953,241.913z
			 M165.133,224.233c-0.396,0.831-2.306,0.215-2.744-0.28c-0.27-0.305-0.539-0.654-0.992-0.67c-1.309-0.043-1.238-2.684-0.178-2.476
			c1.723,0.34,0.928-1.165,1.973-1.865c0.535-0.357,1.601-0.101,1.656,0.532c0.092,1.069-0.965,1.68-0.539,2.518
			C164.699,222.762,165.523,223.412,165.133,224.233z M165.48,211.115c-0.436-0.564-1.088,0.045-2.088,0.566
			s-2.131,0.043-3.176-0.914c-1.043-0.956-0.435-2,0.436-2.826c0.87-0.827,3.958-0.957,4.914-0.305
			c0.957,0.652,0.217,1.695,0.739,1.479c0.366-0.151,2.509,0.049,2.653,1.132c0.094,1.376,0.244,1.286,1.625,1.299
			c1.661-0.071,3.278,4.208,0.289,5.615c-2.213,1.042-3.133-1.089-3.133-3.001c0-0.609-0.391-0.521-1.521-0.739
			C165.088,213.204,165.914,211.682,165.48,211.115z M169.299,252.076c-0.688,0-0.485-0.334-0.684,0.175
			c-0.119,0.309-0.009,0.987-0.719,0.771c-0.361-0.11-0.559-0.631-0.868-0.219c-0.22,0.293-0.805,0.166-1.098,0.069
			c-0.414-0.137-0.194-0.973-0.203-0.938c0.136-0.6-0.188-0.704,0.548-1.087c0.369-0.192,0.03-1.127,0.443-1.112
			c0.285,0.01,0.486-0.035,0.618,0.242c0.331,0.699-0.055,1.38,0.156,1.529c0.19,0.137,0.413-0.309,1.054-0.033
			c0.158,0.068,0.291-0.691,0.444-0.76C169.97,250.275,169.9,252.076,169.299,252.076z M171.16,240.664
			c-0.416,0.011-1.112-0.125-1.039-0.354c0.072-0.229,0.26-0.16,0.229-0.379c-0.06-0.418,0.376-0.428,0.59-0.104
			c0.211,0.276,0.588,0.021,0.633,0.417C171.588,240.378,171.575,240.654,171.16,240.664z M172.984,231.574
			c-0.819,0-0.578-0.397-0.814,0.208c-0.143,0.368-0.01,1.176-0.854,0.918c-0.432-0.132-0.666-0.75-1.033-0.261
			c-0.264,0.35-0.959,0.199-1.307,0.084c-0.493-0.164-0.232-1.159-0.242-1.117c0.161-0.711-0.223-0.836,0.652-1.292
			c0.438-0.228,0.035-1.341,0.528-1.323c0.338,0.011,0.577-0.043,0.735,0.287c0.393,0.832-0.066,1.642,0.184,1.819
			c0.229,0.163,0.492-0.366,1.255-0.038c0.188,0.081,0.347-0.822,0.53-0.905C173.782,229.432,173.699,231.574,172.984,231.574z
			 M171.017,200.85c-1.641,0.108-2.46-1.423-3.39-2.024c-2.842-1.839,0.064-3.743,1.366-4.867c2.423-2.091-3.384-2.445-3.773-2.515
			c-2.132-0.383-0.983-0.93-1.53-1.695s-1.75-0.164-2.242,0.438s-1.039,2.078-2.898,1.969s-2.297-0.875-2.57-2.242
			c-0.272-1.368,1.313-2.625,2.57-2.625s1.859,0.875,2.57,0.492c0.71-0.383,1.313-1.203,1.586-1.914s1.805-1.039,3.773-1.039
			s2.515,0.93,3.5,2.078c0.984,1.148,1.859,2.898,2.022,4.375c0.188,1.699,2.458,0.682,3.101,3.055
			C175.941,197.438,174.543,200.613,171.017,200.85z M180.613,234.598c-1.163,0.029-3.109-0.348-2.906-0.987s0.727-0.45,0.639-1.061
			c-0.166-1.167,1.051-1.194,1.646-0.29c0.59,0.773,1.645,0.055,1.771,1.166C181.805,233.797,181.77,234.57,180.613,234.598z
			 M186.615,243.244c-0.335,0.704-1.952,0.184-2.322-0.236c-0.229-0.258-0.457-0.553-0.84-0.566
			c-1.107-0.037-1.049-2.272-0.15-2.096c1.458,0.288,0.785-0.985,1.669-1.577c0.453-0.303,1.355-0.085,1.401,0.45
			c0.079,0.904-0.815,1.421-0.455,2.13C186.248,242,186.945,242.55,186.615,243.244z M188.604,231.264
			c-0.318,0.668-1.853,0.173-2.204-0.225c-0.216-0.245-0.433-0.526-0.797-0.538c-1.052-0.036-0.995-2.157-0.144-1.989
			c1.384,0.273,0.745-0.936,1.585-1.498c0.43-0.287,1.286-0.082,1.331,0.428c0.073,0.858-0.775,1.348-0.434,2.021
			C188.256,230.082,188.917,230.604,188.604,231.264z M46.016,112.271c-0.067-0.581-0.387-0.661-0.762-0.717
			c0.077,0.6,0.151,1.193,0.222,1.775C46.034,113.095,46.049,112.562,46.016,112.271z M45.276,98.763
			c0.442-0.23,0.73-0.499,0.923-0.25c0.192,0.25-0.173,0.923,0.326,1.019c0.5,0.096,0.673,0.058,0.673,0.327
			c0,0.844,0.406,1.785,1.383,1.325c1.32-0.622,0.606-2.512-0.128-2.481c-0.61-0.005-0.677,0.035-0.718-0.574
			c-0.064-0.478-1.011-0.567-1.171-0.5c-0.231,0.096,0.096-0.365-0.327-0.653c-0.423-0.288-1.786-0.231-2.171,0.134
			c-0.384,0.366-0.653,0.827-0.192,1.25C44.335,98.782,44.834,98.994,45.276,98.763z M111.694,124.857
			c-2.464,0.333-1.042,1.161-4.363,0.754c-0.048-0.006-6.118-4.467-5.944-0.377c0.093,2.183,3.303,1.182,4.316,1.764
			c0.902,0.111,1.715,0.535,2.038,1.203c0.615,1.269,0.034,1.581-0.44,3.323c-0.474,1.741-0.181,2.973,0.718,3.675
			s3.39,0.339,3.223,2.714c-0.166,2.376-0.127,2.979,1.699,3.19c0.119,0.013,0.229,0.034,0.334,0.06
			c0.285-1.141,2.424-2.605,2.432-2.617c1.457-2.304-2.464-2.229-3.33-2.909c-5.825-4.57,3.63-0.697,1.719-8.084
			C113.518,125.317,112.6,124.735,111.694,124.857z M54.687,102.215c0.394,0.131,0.35,0.482,0.197,1.008
			c-0.153,0.525-0.044,0.919,0.109,1.248c0.154,0.328,0.964,0.065,1.425,0.219c0.459,0.153,0.109,0.569,0.372,1.16
			c0.263,0.592,0.679,0.109,1.074,0.46c0.394,0.351-0.066,0.219-0.154,0.964c-0.088,0.745,0.985,0.963,1.642,0.919
			c0.658-0.044,0.548-0.416,0.636-0.81c0.088-0.395-0.11-0.658,0.131-1.118c0.241-0.46,0.395,0.066,1.03,0s0.581-0.252,0.689-0.339
			c0.11-0.088,0.11-0.395,0.044-0.876c-0.066-0.482-0.285-0.57-0.591-0.789c-0.306-0.219-0.942,0.46-1.248,0.439
			c-0.307-0.022-0.241-0.417-0.066-0.592c0.175-0.175,0.59,0.022,0.919-0.372c0.329-0.395-0.066-0.526-0.351-0.987
			c-0.284-0.459-0.985-0.284-1.357-0.087c-0.372,0.197-0.241,0.723-0.044,1.183c0.197,0.46-0.197,0.592-0.745,0.526
			c-0.547-0.066-0.35-0.351-0.81-0.679c-0.46-0.329-0.329-0.044-0.898-0.241c-0.569-0.198-0.153-0.438-0.394-0.833
			s-0.526-0.307-0.701-0.591c-0.176-0.285,0.033-1.007-0.208-1.292c-0.237-0.28-1.828-0.545-1.555,0.909
			C53.898,101.996,54.292,102.083,54.687,102.215z M49.391,115.813c1.694,0.213,0.681,2.262,1.325,3.092
			c1.552,2,1.505-0.924,2.813,0.357c0.688,0.674,2.941,0.826,2.273-1.104c-0.007-0.001-0.492-0.365-0.666-0.428
			c-2.071-0.756-2.916-2.814-0.954-3.251c1.233-0.274,0.336-2.52,0.927-2.675c0.676-0.177,2.572,0.409,1.854-1.973
			c-0.01-0.033-1.801-1.229-2.034-1.502c-0.487-0.569-2.438-0.014-1.17,1.396c0.815,0.907-0.13,2.011-1.271,0.477
			c-0.107-0.144-2.384-0.767-1.978,1.222c0.079,0.392,1.349,0.575,1.69,0.694c0.567,1.639,0.401,1.991-1.253,1.73
			C49.363,111.106,47.88,115.623,49.391,115.813z M56.498,91.566c0.652-0.016,0.673-0.451,0.649-0.661
			c-0.072-0.625-0.666-0.221-0.999-0.658c-0.336-0.51-1.021-0.495-0.928,0.164c0.049,0.344-0.246,0.238-0.361,0.598
			C54.745,91.37,55.842,91.583,56.498,91.566z M69.688,128.204c0.391-0.456,0.065-0.978,0.391-1.542
			c0.327-0.564,0.935-0.392,0.761-1.173c-0.174-0.783-0.608-1.392-0.304-1.457c0.304-0.065,0.978,0.392,1.521,0.544
			c0.542,0.152,1.216,0.195,0.781,0.629c-0.434,0.435-1.281,0.87-1.086,1.435c0.196,0.565,0.935,1.391,2.108,0.565
			c1.173-0.826,0.283-1.217,0.717-2.129c0.478-1.042,1.369-0.651,1.369-1.956c0-1.303-0.087-1.738-0.695-2.086
			c-0.608-0.347-1.086-0.543-1.304,0.435c-0.067,0.302,0.396,0.779,0.509,1.253c0.354,1.487-0.95,1.817-0.943,1.551
			c0.046-1.789-1.979-1.778-2.326-1.631c-0.564,0.239-0.434,0.608-0.781,0.37c-0.348-0.24-0.957-0.653-1.174-0.087
			c-0.218,0.565-0.674,0.782-0.304,1.369c0.369,0.586,0.086,0.5,0.086,1.086c0,0.586,0.566,0.826,0.348,1.108
			c-0.217,0.282-1.303-0.239-1.477,0.195C67.196,128.405,69.113,128.877,69.688,128.204z M95.286,132.542
			c-0.641,1.654-2.212-0.566-1.651-1.127c2.95-2.951-0.091-2.521-2.395-2.498c-1.628,0.632-3.307,1.139-3.328,1.884
			c-0.073,2.57-0.086,3.268,2.155,2.155c3.855-1.914,3.161,2.626,3.6,5.2c0.342,2.007,1.676,1.107,1.893-0.267
			c-0.315-0.736-0.283-1.666,0.5-2.487C98.219,133.131,95.792,131.231,95.286,132.542z M99.838,98.709
			c0.652-0.017,0.673-0.452,0.648-0.662c-0.071-0.625-0.665-0.221-0.998-0.657c-0.336-0.51-1.023-0.495-0.929,0.163
			c0.049,0.345-0.245,0.238-0.36,0.599C98.084,98.512,99.182,98.725,99.838,98.709z M97.153,112.207
			c0.349,0.116,1.045,0.266,1.307-0.083c0.368-0.49,0.603,0.129,1.034,0.261c0.844,0.258,0.711-0.551,0.854-0.918
			c0.236-0.605-0.005-0.208,0.813-0.208c0.715,0,0.798-2.143-0.366-1.621c-0.184,0.083-0.342,0.987-0.53,0.906
			c-0.763-0.329-1.026,0.201-1.253,0.038c-0.251-0.178,0.208-0.989-0.186-1.82c-0.157-0.33-0.396-0.276-0.734-0.288
			c-0.493-0.016-0.089,1.096-0.528,1.325c-0.875,0.456-0.492,0.581-0.652,1.292C96.921,111.049,96.66,112.044,97.153,112.207z
			 M108.563,103.563c0.06,0.531,0.254,0.567,0.266,0.905c0.012,0.339,0,0.363-0.592,0.254c-1.525-0.28-0.121,2.689,1.075,1.63
			c0.423-0.375,0.193-0.979,0.725-0.87s0.58,0.822,1.39,0.677c0.809-0.145,1.039-0.423,1.063-0.833
			c0.024-0.411,0.036-0.917-0.713-1.245c-0.749-0.326-0.906-0.604-1.316-0.93C109.781,102.615,108.448,102.559,108.563,103.563z
			 M109.025,92.833c0.652-0.016,0.673-0.451,0.649-0.661c-0.072-0.625-0.666-0.221-0.998-0.658c-0.337-0.509-1.022-0.494-0.93,0.164
			c0.05,0.344-0.245,0.238-0.36,0.598C107.272,92.638,108.369,92.851,109.025,92.833z M103.93,114.373
			c1.313,0.937,2.995,0.548,3.104,1.853c0.109,1.3-5.804-0.845-6.362-0.052c-0.722,1.027,0.437,1.528,2.021,1.892
			c0.77-0.113,1.63-0.059,2.57,0.223c6.733,2.024,8.209-0.05,7.932-1.851c-0.428-2.765-1.856-1.742-3.364-1.598
			c-1.805,0.172-2.587-0.813-2.584-1.658c0.002-1.642,1.532-3.25-2.803-1.223C103.23,112.525,102.485,113.342,103.93,114.373z
			 M95.295,118.222c0.383-0.163,0.736-0.322,1.032-0.239c1.686,0.469,2.289,0.857,1.276-2.123c-0.187-0.549-0.403-0.958-1.292-0.958
			c-1.349,0-3.618,5.079-3.4,2.437c0.36-4.367-3.476-2.984-2.728-0.451c0.176,0.596,2.519,2.306,2.262,2.689
			c-2.027,3.029-0.442,2.748,1.642,2.543c0.728-0.072,0.996,0.523,1.026,1.289c0.029,0.706-1.548,1.637-0.342,2.167
			c1.744-0.378,2.528-2.533,0.89-4.408C95.058,120.479,94.473,118.572,95.295,118.222z M79.473,131.374
			c1.155,0.312,1.653-0.718,2.309-0.187c0.655,0.53,0,1.31,0.717,2.059c0.718,0.749,1.778,1.653,2.808,1.216
			c1.029-0.437,1.653-1.154,1.061-2.059s-2.277-1.248-2.371-2.215c-0.093-0.967,1.341-0.28,0.999-1.185
			c-0.343-0.905-1.373-1.342-1.092-1.903c0.281-0.562,0.343,0.281,1.436,0.093c1.092-0.187,1.59-0.904,1.34-1.31
			c-0.249-0.406-2.027-0.562-1.965-1.403c0.063-0.843,0.593-0.469,0.967-2.09c0.375-1.623-0.655-1.623-1.091-1.873
			c-0.437-0.249-1.466-0.281-1.903,0.406c-0.437,0.687-0.125,0.905,0.031,1.935c0.156,1.029-0.093,1.715-0.654,2.059
			c-0.562,0.343-1.965-0.032-2.028,1.341c-0.062,1.372-0.124,1.715-1.185,1.715C77,127.974,77.767,130.913,79.473,131.374z
			 M73.573,99.332c1.157-0.029,1.192-0.801,1.149-1.172c-0.127-1.111-1.179-0.392-1.769-1.167c-0.597-0.904-1.813-0.878-1.647,0.291
			c0.087,0.61-0.436,0.421-0.639,1.061C70.463,98.983,72.41,99.361,73.573,99.332z M69.674,115.13
			c0.906,0.244,1.296-0.563,1.81-0.147c0.514,0.416,0,1.028,0.563,1.614c0.563,0.588,1.395,1.298,2.202,0.955
			c0.808-0.343,1.297-0.906,0.833-1.616c-0.465-0.709-1.786-0.979-1.86-1.737c-0.073-0.757,1.053-0.22,0.784-0.929
			c-0.27-0.71-1.076-1.052-0.856-1.493c0.22-0.44,0.269,0.22,1.125,0.073c0.856-0.146,1.248-0.709,1.053-1.027
			c-0.196-0.318-1.591-0.44-1.542-1.101c0.048-0.661,0.465-0.367,0.758-1.639c0.15-0.651,0.013-0.969-0.204-1.151h-2.145
			c-0.342,0.539-0.097,0.71,0.025,1.518s-0.074,1.346-0.514,1.615c-0.441,0.269-1.542-0.025-1.59,1.052s-0.098,1.346-0.93,1.346
			C67.734,112.463,68.336,114.769,69.674,115.13z M91.012,94.742c0.651-0.017,0.672-0.452,0.648-0.662
			c-0.072-0.625-0.666-0.221-0.999-0.658c-0.336-0.509-1.022-0.494-0.928,0.164c0.049,0.345-0.246,0.238-0.361,0.598
			C89.258,94.545,90.356,94.758,91.012,94.742z M80.644,98.967c0.292,0.177,0.656,0.269,0.999,0.198
			c0.268-0.056,0.127,0.029,0.368,0.627c1.047,2.612,2.769-0.886,1.152-1.115c-0.368-0.052-0.55-0.116-0.62-0.495
			c-0.049-0.263-0.162-0.776-0.368-1.115c-0.448-0.736-1.542-0.118-1.767,0.25C80.192,97.674,80.005,98.581,80.644,98.967z
			 M92.654,107.616c1.125-1.51,1.476,0.329,3.104-0.003c0.668-0.136,0.792-1.282,0.448-1.665c-0.984-1.093-1.146-0.418-1.641-0.211
			c-1.354,0.57-1.264-0.365-0.676-1.195c0.722-1.018-0.192-2.364-0.628-2.507c-1.297-0.425-0.888,1.089-1.097,1.785
			c-0.37,1.234-1.275,1.539-2.317,1.071c-0.297-0.134-1.354,0.318-0.692,0.978c0.601,0.599,2.611-0.158,1.793,1.309
			c-0.35,0.625-1.638-0.296-2.19-0.459c-0.801-0.237-1.042,0.231-1.042,0.888C87.717,109.436,92.436,107.908,92.654,107.616z
			 M81.88,111.753c-0.897-0.177-0.957,2.058,0.151,2.095c0.384,0.013,0.612,0.309,0.84,0.567c0.371,0.418,1.987,0.939,2.322,0.237
			c0.331-0.696-0.367-1.246-0.698-1.897c-0.36-0.708,0.535-1.226,0.456-2.13c-0.046-0.535-0.949-0.753-1.401-0.45
			C82.666,110.766,83.339,112.04,81.88,111.753z"/>
	</g>
</g>
</svg>
