<?xml version="1.0" encoding="utf-8"?>
<!-- Generator: Adobe Illustrator 16.0.3, SVG Export Plug-In . SVG Version: 6.00 Build 0)  -->
<!DOCTYPE svg PUBLIC "-//W3C//DTD SVG 1.1//EN" "http://www.w3.org/Graphics/SVG/1.1/DTD/svg11.dtd">
<svg version="1.1"
	 id="Layer_1" shape-rendering="geometricPrecision" text-rendering="geometricPrecision" image-rendering="optimizeQuality" xmlns:xodm="http://www.corel.com/coreldraw/odm/2003"
	 xmlns="http://www.w3.org/2000/svg" xmlns:xlink="http://www.w3.org/1999/xlink" x="0px" y="0px" width="238px" height="298px"
	 viewBox="0 0 238 298" enable-background="new 0 0 238 298" xml:space="preserve">
<g id="Camada_x0020_1">
	<g>
		<path fill="#F00808" d="M93.634,147.908c0.488-0.013,0.503-0.338,0.485-0.495c-0.053-0.468-0.497-0.165-0.746-0.492
			c-0.251-0.381-0.765-0.37-0.695,0.123c0.037,0.257-0.183,0.178-0.269,0.447C92.324,147.761,93.145,147.92,93.634,147.908z"/>
		<path fill="#F00808" d="M84.958,163.314c0.238,0.145,0.534,0.219,0.813,0.161c0.218-0.046,0.104,0.024,0.299,0.511
			c0.854,2.128,2.257-0.722,0.939-0.908c-0.3-0.043-0.448-0.096-0.505-0.403c-0.04-0.215-0.132-0.633-0.3-0.909
			c-0.365-0.6-1.256-0.096-1.439,0.203C84.589,162.26,84.438,163,84.958,163.314z"/>
		<path fill="#F00808" d="M77.621,170.867c-1.843,0.249-0.78,0.868-3.264,0.564c-0.035-0.004-4.574-3.341-4.443-0.282
			c0.069,1.634,2.469,0.884,3.227,1.319c0.674,0.083,1.282,0.4,1.524,0.898c0.459,0.949,0.026,1.184-0.329,2.485
			c-0.354,1.302-0.135,2.224,0.537,2.749c0.672,0.524,2.535,0.252,2.41,2.029c-0.125,1.775-0.095,2.227,1.271,2.386
			c0.088,0.01,0.171,0.024,0.25,0.045c0.213-0.854,1.812-1.948,1.818-1.957c1.089-1.723-1.842-1.667-2.49-2.175
			c-4.355-3.418,2.715-0.521,1.286-6.045C78.984,171.211,78.298,170.776,77.621,170.867z"/>
		<path fill="#F00808" d="M93.461,158.504c0.066,0.455-0.326,0.314-0.478,0.793c-0.152,0.477,1.303,0.76,2.173,0.738
			c0.865-0.021,0.892-0.6,0.86-0.877c-0.095-0.83-0.882-0.293-1.324-0.873C94.35,157.619,93.448,157.641,93.461,158.504z"/>
		<path fill="#F00808" d="M84.255,172.533c0.623,0.385,1.024,0.862,0.56,2.148c-1.762,4.885,2.626,4.096,3.392,1.731
			c0.568-1.755,1.585-2.187,2.439-1.911c0.026-0.263,0.032-0.543-0.015-0.932c-0.063-0.521-0.495-0.733-0.968-0.785
			c0.069-0.492-0.044-1.023,0.28-1.585c0.48-0.831,1.375-0.575,1.12-1.728c-0.256-1.151-0.896-2.047-0.448-2.143
			s1.439,0.576,2.239,0.799c0.799,0.225,1.791,0.289,1.151,0.928c-0.64,0.641-1.887,1.28-1.6,2.111
			c0.288,0.832,1.375,2.047,3.103,0.832c1.727-1.215,0.416-1.791,1.056-3.135c0.704-1.535,2.015-0.959,2.015-2.879
			c0-1.919-0.128-2.559-1.024-3.07c-0.896-0.512-1.599-0.8-1.919,0.64c-0.099,0.444,0.582,1.146,0.749,1.845
			c0.522,2.188-1.398,2.674-1.388,2.284c0.068-2.636-2.912-2.618-3.423-2.401c-0.832,0.352-0.64,0.895-1.151,0.543
			s-1.408-0.959-1.728-0.127c-0.32,0.831-0.991,1.15-0.448,2.015c0.544,0.863,0.128,0.735,0.128,1.599
			c0,0.864,0.832,1.217,0.512,1.632c-0.288,0.374-1.61-0.209-2.06,0.136c-0.083-0.826-0.083-1.617-0.386-1.68
			c-0.071-0.342-1.616,0.168-1.631,0.172c-0.858,0.16-0.642,1.385-0.591,2.003C84.253,171.99,84.268,172.3,84.255,172.533z"/>
		<path fill="#F00808" d="M82.242,151.776c0.225-0.198,0.103-0.52,0.386-0.462c0.282,0.059,0.308,0.438,0.739,0.359
			c0.43-0.077,0.552-0.225,0.565-0.443c0.013-0.218,0.019-0.488-0.379-0.66c-0.399-0.174-0.482-0.322-0.701-0.495
			c-0.36-0.286-1.069-0.315-1.008,0.218c0.032,0.283,0.135,0.302,0.141,0.482c0.006,0.18,0,0.192-0.315,0.135
			C80.86,150.761,81.606,152.34,82.242,151.776z"/>
		<path fill="#F00808" d="M81.601,161.059c0.182-0.273,0.296-0.388,0.555-0.236c0.18,0.106,0.538,0.297,0.829,0.315
			c0.631,0.04,0.704-1.202,0.572-1.591c-0.128-0.377-0.603-1.032-1.1-0.722c-0.227,0.144-0.432,0.392-0.529,0.712
			c-0.077,0.251-0.071,0.089-0.533-0.045C79.377,158.906,80.799,162.262,81.601,161.059z"/>
		<path fill="#F00808" d="M99.809,155.935c0.271-0.271,0.506-0.019,1.481,0.198c0.886,0.197,1.183-0.287,1.236-0.742
			c0.05-0.439-0.111-0.848-1.345-0.848c-0.434,0-0.402,0.348-1.052,0.186c-0.65-0.162-0.592-0.583-1.404-1.105
			c-0.672-0.434-1.667,0.483-0.956,1.534C98.115,155.667,99.24,156.504,99.809,155.935z"/>
		<path fill="#F00808" d="M51.087,177.752v-0.624c-0.097-0.119-0.229-0.252-0.35-0.43c0.004,0.432,0.005,0.865,0.005,1.298
			C50.859,177.953,50.977,177.882,51.087,177.752z"/>
		<path fill="#F00808" d="M61.449,176.924c2.884-1.432,2.363,1.965,2.691,3.889c0.256,1.5,1.254,0.828,1.417-0.2
			c-0.236-0.55-0.211-1.245,0.373-1.86c1.616-1.697-0.199-3.119-0.578-2.139c-0.479,1.237-1.654-0.423-1.235-0.843
			c2.207-2.206-0.067-1.884-1.791-1.867c-1.217,0.473-2.473,0.853-2.488,1.409C59.782,177.234,59.773,177.756,61.449,176.924z"/>
		<path fill="#F00808" d="M53.527,175.74c0.864,0.234,1.237-0.537,1.727-0.14s0,0.979,0.537,1.539s1.33,1.237,2.099,0.909
			c0.77-0.325,1.236-0.861,0.794-1.539c-0.444-0.676-1.704-0.932-1.773-1.656c-0.07-0.723,1.002-0.209,0.747-0.885
			c-0.257-0.678-1.026-1.004-0.816-1.424s0.257,0.21,1.073,0.07c0.816-0.141,1.189-0.678,1.003-0.98
			c-0.187-0.303-1.517-0.42-1.47-1.049c0.046-0.63,0.443-0.35,0.724-1.563c0.279-1.213-0.491-1.213-0.816-1.399
			c-0.327-0.186-1.097-0.21-1.423,0.304c-0.326,0.513-0.093,0.677,0.023,1.446c0.117,0.77-0.069,1.283-0.489,1.539
			c-0.421,0.258-1.471-0.023-1.517,1.003c-0.047,1.026-0.093,1.283-0.887,1.283C51.678,173.198,52.251,175.396,53.527,175.74z"/>
		<path fill="#F00808" d="M62.083,158.156c-0.007,0.03-0.188,0.711,0.181,0.833c0.26,0.087,0.781,0.2,0.977-0.062
			c0.276-0.366,0.451,0.097,0.773,0.194c0.631,0.193,0.532-0.411,0.639-0.686c0.176-0.452-0.004-0.155,0.608-0.155
			c0.535,0,0.597-1.604-0.273-1.212c-0.138,0.062-0.256,0.737-0.396,0.678c-0.571-0.246-0.769,0.149-0.938,0.028
			c-0.187-0.133,0.156-0.739-0.139-1.361c-0.117-0.246-0.295-0.207-0.548-0.215c-0.369-0.013-0.067,0.818-0.395,0.99
			C61.916,157.529,62.203,157.623,62.083,158.156z"/>
		<path fill="#F00808" d="M62.155,148.348c0.487-0.012,0.503-0.338,0.485-0.494c-0.054-0.469-0.498-0.166-0.747-0.492
			c-0.251-0.381-0.765-0.37-0.694,0.122c0.036,0.258-0.184,0.178-0.27,0.448C60.844,148.201,61.665,148.36,62.155,148.348z"/>
		<path fill="#F00808" d="M50.153,164.146c0.725,0.187,2.367,2.083,2.624,1.542c0.51-1.07-1.79-1.987-2.3-2.99
			c-0.554-1.093,2.646-2.285,2.525-3.677c-0.071-0.825-1.46-1.161-2.158-0.694c-0.57,0.383-0.116,1.894-0.344,2.238
			c-0.091,0.139-0.287,0.121-0.527,0.055L50.153,164.146z"/>
		<path fill="#F00808" d="M55.327,161.068c-0.671-0.133-0.715,1.539,0.113,1.566c0.286,0.01,0.457,0.23,0.627,0.424
			c0.277,0.314,1.485,0.703,1.736,0.177c0.248-0.52-0.275-0.931-0.522-1.418c-0.269-0.53,0.4-0.916,0.341-1.593
			c-0.035-0.399-0.709-0.563-1.048-0.336C55.914,160.331,56.418,161.283,55.327,161.068z"/>
		<path fill="#F00808" d="M54.403,151.508c0.218,0.133,0.49,0.201,0.747,0.147c0.2-0.041,0.095,0.022,0.275,0.47
			c0.784,1.952,2.07-0.662,0.861-0.834c-0.274-0.039-0.411-0.088-0.463-0.369c-0.036-0.198-0.121-0.581-0.275-0.834
			c-0.335-0.551-1.153-0.089-1.321,0.186C54.065,150.541,53.925,151.219,54.403,151.508z"/>
		<path fill="#F00808" d="M68.755,151.314c0.488-0.012,0.502-0.337,0.485-0.494c-0.053-0.469-0.497-0.166-0.746-0.491
			c-0.251-0.381-0.765-0.37-0.694,0.122c0.037,0.258-0.184,0.178-0.269,0.447C67.444,151.168,68.265,151.328,68.755,151.314z"/>
		<path fill="#F00808" d="M75.279,154.945c0.045,0.396,0.19,0.424,0.199,0.676c0.009,0.254,0,0.271-0.443,0.19
			c-1.141-0.21-0.09,2.011,0.804,1.22c0.316-0.279,0.145-0.732,0.542-0.65c0.398,0.08,0.434,0.613,1.039,0.506
			c0.606-0.108,0.778-0.316,0.795-0.623c0.019-0.309,0.028-0.688-0.533-0.931c-0.56-0.244-0.677-0.452-0.985-0.696
			C76.19,154.235,75.193,154.193,75.279,154.945z"/>
		<path fill="#F00808" d="M50.37,168.009l-0.02-0.013l0.123,2.402c0.23-0.152,0.417-0.313,0.417-0.83
			C50.89,168.594,50.825,168.269,50.37,168.009z"/>
		<path fill="#F00808" d="M75.625,146.921c0.488-0.012,0.503-0.337,0.485-0.494c-0.054-0.469-0.497-0.166-0.746-0.492
			c-0.251-0.381-0.765-0.37-0.694,0.123c0.037,0.257-0.184,0.177-0.27,0.447C74.314,146.774,75.135,146.935,75.625,146.921z"/>
		<path fill="#F00808" d="M63.575,165.246c0.269-3.266-2.599-2.231-2.039-0.337c0.131,0.445,1.883,1.724,1.691,2.011
			c-1.517,2.264-0.33,2.055,1.228,1.9c0.543-0.053,0.744,0.392,0.767,0.964c0.022,0.528-1.157,1.226-0.255,1.621
			c1.305-0.282,1.89-1.894,0.666-3.297c-0.451-0.516-0.889-1.94-0.274-2.202c0.286-0.121,0.551-0.24,0.772-0.179
			c1.26,0.351,1.711,0.641,0.954-1.587c-0.139-0.411-0.301-0.717-0.967-0.717C65.109,163.424,63.413,167.223,63.575,165.246z"/>
		<path fill="#F00808" d="M46.868,248.064l-0.126,0.704c0.061-0.201,0.108-0.433,0.125-0.685L46.868,248.064z"/>
		<path fill="#F00808" d="M49.975,150.904c-0.056-0.494-0.357-0.504-0.685-0.553c0.045,0.463,0.089,0.928,0.131,1.392
			C49.985,151.608,50.002,151.145,49.975,150.904z"/>
		<path fill="#F00808" d="M70.891,165.789c0.576-0.084,1.219-0.045,1.921,0.166c5.036,1.514,6.14-0.037,5.932-1.384
			c-0.32-2.067-1.389-1.303-2.516-1.196c-1.349,0.129-1.933-0.607-1.933-1.238c0.002-1.229,1.147-2.431-2.095-0.914
			c-0.907,0.424-1.464,1.034-0.384,1.805c0.981,0.7,2.239,0.411,2.321,1.386c0.081,0.973-4.34-0.631-4.757-0.038
			C68.84,165.142,69.707,165.518,70.891,165.789z"/>
		<path fill="#F00808" d="M158.584,172.533c0.621,0.385,1.023,0.862,0.56,2.148c-1.763,4.885,2.625,4.096,3.391,1.731
			c0.567-1.755,1.585-2.187,2.44-1.911c0.024-0.263,0.03-0.543-0.017-0.932c-0.062-0.521-0.495-0.733-0.968-0.785
			c0.069-0.492-0.044-1.023,0.28-1.585c0.479-0.831,1.375-0.575,1.119-1.728c-0.256-1.151-0.896-2.047-0.448-2.143
			c0.448-0.096,1.439,0.576,2.24,0.799c0.799,0.225,1.791,0.289,1.15,0.928c-0.639,0.641-1.887,1.28-1.599,2.111
			c0.288,0.832,1.376,2.047,3.103,0.832c1.728-1.215,0.416-1.791,1.056-3.135c0.704-1.535,2.015-0.959,2.015-2.879
			c0-1.919-0.127-2.559-1.021-3.07c-0.897-0.512-1.602-0.8-1.92,0.64c-0.1,0.444,0.582,1.146,0.748,1.845
			c0.522,2.188-1.397,2.674-1.388,2.284c0.067-2.636-2.913-2.618-3.423-2.401c-0.832,0.352-0.641,0.895-1.152,0.543
			s-1.407-0.959-1.727-0.127c-0.32,0.831-0.992,1.15-0.448,2.015c0.544,0.863,0.128,0.735,0.128,1.599
			c0,0.864,0.832,1.217,0.512,1.632c-0.288,0.374-1.61-0.209-2.059,0.136c-0.084-0.826-0.084-1.617-0.388-1.68
			c-0.069-0.342-1.615,0.168-1.632,0.172c-0.857,0.16-0.641,1.385-0.59,2.003C158.58,171.99,158.596,172.3,158.584,172.533z"/>
		<path fill="#F00808" d="M156.569,151.776c0.226-0.198,0.103-0.52,0.386-0.462c0.283,0.059,0.309,0.438,0.738,0.359
			c0.431-0.077,0.553-0.225,0.565-0.443c0.013-0.218,0.021-0.488-0.379-0.66c-0.397-0.174-0.481-0.322-0.7-0.495
			c-0.36-0.286-1.068-0.315-1.008,0.218c0.031,0.283,0.135,0.302,0.142,0.482c0.007,0.18,0,0.192-0.315,0.135
			C155.188,150.761,155.935,152.34,156.569,151.776z"/>
		<path fill="#F00808" d="M167.963,147.908c0.486-0.013,0.503-0.338,0.484-0.495c-0.054-0.468-0.498-0.165-0.745-0.492
			c-0.252-0.381-0.765-0.37-0.694,0.123c0.036,0.257-0.185,0.178-0.271,0.447C166.652,147.761,167.473,147.92,167.963,147.908z"/>
		<path fill="#F00808" d="M143.648,163.236c0.982,0.7,2.239,0.41,2.321,1.386c0.081,0.973-4.34-0.632-4.757-0.039
			c-0.54,0.768,0.326,1.143,1.512,1.415c0.575-0.084,1.219-0.045,1.921,0.166c5.034,1.514,6.14-0.037,5.932-1.385
			c-0.319-2.067-1.389-1.302-2.515-1.195c-1.35,0.129-1.935-0.607-1.935-1.239c0.002-1.228,1.147-2.43-2.095-0.915
			C143.126,161.855,142.568,162.466,143.648,163.236z"/>
		<path fill="#F00808" d="M159.285,163.314c0.238,0.145,0.535,0.219,0.814,0.161c0.217-0.046,0.104,0.024,0.299,0.511
			c0.854,2.128,2.258-0.722,0.939-0.908c-0.299-0.043-0.448-0.096-0.506-0.403c-0.038-0.215-0.131-0.633-0.299-0.909
			c-0.365-0.6-1.257-0.096-1.439,0.203C158.916,162.26,158.766,163,159.285,163.314z"/>
		<path fill="#F00808" d="M155.928,161.059c0.182-0.273,0.297-0.388,0.555-0.236c0.182,0.106,0.539,0.297,0.828,0.315
			c0.633,0.04,0.704-1.202,0.573-1.591c-0.128-0.377-0.604-1.032-1.101-0.722c-0.227,0.144-0.432,0.392-0.529,0.712
			c-0.075,0.251-0.069,0.089-0.531-0.045C153.705,158.906,155.126,162.262,155.928,161.059z"/>
		<path fill="#F00808" d="M149.606,154.945c0.046,0.396,0.19,0.424,0.198,0.676c0.01,0.254,0,0.271-0.441,0.19
			c-1.141-0.21-0.091,2.011,0.804,1.22c0.315-0.279,0.144-0.732,0.542-0.65c0.396,0.08,0.433,0.613,1.039,0.506
			c0.604-0.108,0.775-0.316,0.794-0.623c0.019-0.309,0.027-0.688-0.532-0.931c-0.561-0.244-0.678-0.452-0.984-0.696
			C150.518,154.235,149.521,154.193,149.606,154.945z"/>
		<path fill="#F00808" d="M102.437,151.355c0.33-0.173,0.545-0.374,0.689-0.188c0.143,0.188-0.13,0.69,0.244,0.762
			c0.374,0.072,0.502,0.043,0.502,0.244c0,0.632,0.304,1.336,1.035,0.992c0.988-0.465,0.453-1.879-0.095-1.855
			c-0.457-0.004-0.507,0.025-0.538-0.429c-0.048-0.358-0.755-0.424-0.875-0.374c-0.173,0.072,0.072-0.273-0.245-0.488
			c-0.315-0.215-1.335-0.172-1.623,0.101c-0.287,0.272-0.488,0.618-0.143,0.934S102.106,151.527,102.437,151.355z"/>
		<path fill="#F00808" d="M155.572,169.688c0.727-0.303,0.521-0.943,0.883-1.246c0.363-0.302,0.34-1.052-0.035-1.389
			c-0.375-0.34-1.391-0.363-1.838-0.014c-0.446,0.351-0.375,0.557-0.592,1.112C153.369,169.738,154.338,170.201,155.572,169.688z"/>
		<path fill="#F00808" d="M151.949,170.867c-1.844,0.249-0.779,0.868-3.264,0.564c-0.035-0.004-4.574-3.341-4.443-0.282
			c0.069,1.634,2.469,0.884,3.227,1.319c0.676,0.083,1.283,0.4,1.525,0.898c0.459,0.949,0.024,1.184-0.33,2.485
			c-0.354,1.302-0.135,2.224,0.537,2.749c0.671,0.524,2.534,0.252,2.41,2.029c-0.125,1.775-0.096,2.227,1.27,2.386
			c0.089,0.01,0.172,0.024,0.25,0.045c0.213-0.854,1.813-1.948,1.818-1.957c1.09-1.723-1.842-1.667-2.489-2.175
			c-4.354-3.418,2.716-0.521,1.284-6.045C153.313,171.211,152.626,170.776,151.949,170.867z"/>
		<path fill="#F00808" d="M167.79,158.504c0.065,0.455-0.326,0.314-0.478,0.793c-0.152,0.477,1.303,0.76,2.172,0.738
			c0.865-0.021,0.893-0.6,0.86-0.877c-0.095-0.83-0.882-0.293-1.323-0.873C168.576,157.609,167.665,157.63,167.79,158.504z"/>
		<path fill="#F00808" d="M186.626,201.969c0,2.697-0.61,2.107-2.083,3.054c-0.916,0.588-3.322,0.612-2.25,1.965
			c1.371,1.731,1.833-0.176,3.709-1.226c0.564-0.318,1.021-0.502,1.389-0.582c-0.041-1.391-0.066-2.768-0.084-4.156
			C186.895,201.301,186.626,201.611,186.626,201.969z"/>
		<path fill="#F00808" d="M184.9,181.6c1.109,0.646,1.74-0.062,2.362-0.586c0-0.829-0.004-1.666-0.005-2.508
			c-0.574-0.008-0.896-0.385-0.283-1.146c0.148-0.183,0.24-0.377,0.287-0.57l0.005-0.607c-0.104-0.459-0.45-0.814-0.861-0.836
			c-1.638-0.084-1.912-0.198-1.912,1.104c0,0.452-0.038,0.989-0.299,1.249C185.025,179.059,184.133,181.15,184.9,181.6z"/>
		<path fill="#F00808" d="M186.327,171.08c0.487,0.016,0.801,0.348,1.094,0.682c0.028-0.418,0.062-0.831,0.1-1.239l0.17-3.333
			c-0.185,0.614-0.397,1.092-1.581,0.859C184.811,167.793,184.725,171.026,186.327,171.08z"/>
		<path fill="#F00808" d="M185.156,145.974c0.487-0.012,0.502-0.338,0.484-0.494c-0.055-0.469-0.498-0.166-0.747-0.492
			c-0.251-0.382-0.765-0.37-0.693,0.122c0.037,0.258-0.185,0.178-0.271,0.447C183.844,145.827,184.665,145.986,185.156,145.974z"/>
		<path fill="#F00808" d="M181.438,163.657c0.864-0.022,0.892-0.599,0.86-0.876c-0.095-0.831-0.883-0.295-1.323-0.873
			c-0.445-0.676-1.356-0.656-1.231,0.218c0.065,0.456-0.326,0.315-0.479,0.793C179.112,163.396,180.568,163.68,181.438,163.657z"/>
		<path fill="#F00808" d="M181.745,152.574c0.33-0.172,0.546-0.374,0.688-0.188c0.145,0.188-0.129,0.689,0.245,0.762
			c0.373,0.072,0.503,0.043,0.503,0.244c0,0.632,0.303,1.336,1.035,0.992c0.986-0.465,0.452-1.879-0.097-1.855
			c-0.456-0.004-0.506,0.025-0.536-0.43c-0.049-0.357-0.756-0.424-0.877-0.373c-0.172,0.072,0.072-0.273-0.244-0.489
			c-0.316-0.215-1.336-0.172-1.623,0.101c-0.287,0.273-0.489,0.618-0.144,0.934C181.041,152.589,181.414,152.747,181.745,152.574z"
			/>
		<path fill="#F00808" d="M176.203,169.482c-0.703,2.017,0.616,2.703,2.289,2.001c0.748-0.313,1.109-0.916,1.662-0.651
			c0.555,0.266,0.771,0.795,1.712,0.651c0.939-0.146,1.036-1.302,0.843-1.735s-1.133-0.626-1.518-0.361
			c-0.386,0.266-0.746,0.385-1.061,0.024c-0.313-0.362-1.133-1.157-1.879-1.085C177.505,168.398,176.565,168.446,176.203,169.482z"
			/>
		<path fill="#F00808" d="M176.641,182.813c2.433,0.247,5.019-1.344,3.137-2.704c-2.308-0.345-1.369-1.976-1.372-3.402
			c-0.005-2.694-2.166-0.602-2.542-0.053c-0.58,0.848-1.8-0.983-2.05-1.503c-0.415-0.86-2.394-0.641-2.88-0.19
			c-1.534,1.421,0.732,2.298,1.844,2.681c1.205,0.415,1.643,1.264,1.801,2.277C174.879,181.839,173.932,182.539,176.641,182.813z"/>
		<path fill="#F00808" d="M174.137,155.935c0.271-0.271,0.506-0.019,1.48,0.198c0.887,0.197,1.186-0.287,1.236-0.742
			c0.052-0.439-0.11-0.848-1.344-0.848c-0.434,0-0.402,0.348-1.052,0.186c-0.65-0.162-0.592-0.583-1.404-1.105
			c-0.673-0.434-1.667,0.483-0.956,1.534C172.443,155.667,173.568,156.504,174.137,155.935z"/>
		<path fill="#F00808" d="M149.952,146.921c0.487-0.012,0.503-0.337,0.485-0.494c-0.053-0.469-0.497-0.166-0.746-0.492
			c-0.251-0.381-0.765-0.37-0.693,0.123c0.035,0.257-0.185,0.177-0.271,0.447C148.642,146.774,149.463,146.935,149.952,146.921z"/>
		<path fill="#F00808" d="M116.441,162.128c0.678,0.183,0.971-0.421,1.354-0.11c0.384,0.312,0,0.77,0.421,1.208
			c0.421,0.44,1.042,0.97,1.647,0.714c0.604-0.256,0.969-0.677,0.622-1.207c-0.348-0.531-1.336-0.732-1.392-1.3
			c-0.054-0.567,0.788-0.164,0.586-0.694c-0.201-0.531-0.805-0.787-0.64-1.117c0.165-0.329,0.201,0.165,0.842,0.055
			c0.64-0.109,0.933-0.53,0.786-0.769c-0.146-0.237-1.189-0.329-1.152-0.822c0.036-0.494,0.348-0.274,0.566-1.227
			c0.113-0.487,0.01-0.724-0.152-0.86h-1.604c-0.256,0.403-0.073,0.531,0.018,1.135c0.092,0.604-0.055,1.007-0.384,1.208
			c-0.329,0.2-1.152-0.019-1.189,0.786c-0.036,0.805-0.073,1.007-0.695,1.007C114.991,160.134,115.44,161.857,116.441,162.128z"/>
		<path fill="#F00808" d="M119.261,182.119c-0.191-2.154-1.736-0.548-1.964-1.343c-0.227-0.788-2.949-0.756-2.1-1.393
			c0.127,0.032,0.745-0.18,0.912-0.241c1.435-0.527-1.404-1.453-1.971-1.049c-1.02,0.726-2.485,0.502-1.49-0.734
			c0.693-0.86,0.17-1.975-0.571-2.014c-1.637-0.084-1.911-0.198-1.911,1.104c0,0.452-0.038,0.989-0.299,1.249
			c0.831,1.359-0.062,3.451,0.707,3.9c1.496,0.873,2.123-0.723,3.032-1.006c1.698-0.53,2.181,0.453,2.19,1.71
			c0.318-0.055,0.711-0.077,1.195-0.058C117.488,182.265,118.524,181.96,119.261,182.119z"/>
		<path fill="#F00808" d="M110.827,145.974c0.488-0.012,0.503-0.338,0.485-0.494c-0.053-0.469-0.497-0.166-0.746-0.492
			c-0.252-0.382-0.765-0.37-0.695,0.122c0.037,0.258-0.183,0.178-0.269,0.447C109.517,145.827,110.337,145.986,110.827,145.974z"/>
		<path fill="#F00808" d="M119.368,190.437c-1.98-0.537-1.626,1.251-2.385,2.022c-1.078,1.098-2.14-0.968-0.967,1.818
			c0.303,0.719,0.751,1.34,1.622,1.664c3.513,1.307,0.751-1.414,0.636-1.879C118.058,193.195,122.336,191.243,119.368,190.437z"/>
		<path fill="#F00808" d="M141.857,150.898c-0.086,0.27,0.736,0.43,1.226,0.416c0.487-0.012,0.503-0.337,0.485-0.494
			c-0.055-0.469-0.498-0.166-0.747-0.491c-0.251-0.381-0.764-0.37-0.694,0.122C142.164,150.709,141.943,150.629,141.857,150.898z"/>
		<path fill="#F00808" d="M99.957,161.594c-0.152,0.479,1.303,0.762,2.172,0.739c0.866-0.022,0.892-0.599,0.861-0.876
			c-0.095-0.831-0.883-0.295-1.324-0.873c-0.446-0.676-1.356-0.656-1.231,0.218C100.5,161.258,100.109,161.117,99.957,161.594z"/>
		<path fill="#F00808" d="M107.538,171.483c0.94-0.146,1.037-1.302,0.844-1.735s-1.132-0.626-1.519-0.361
			c-0.385,0.266-0.747,0.385-1.06,0.024c-0.313-0.362-1.132-1.157-1.879-1.085s-1.688,0.12-2.048,1.156
			c-0.704,2.017,0.615,2.703,2.289,2.001c0.747-0.313,1.108-0.916,1.663-0.651C106.381,171.098,106.598,171.627,107.538,171.483z"/>
		<path fill="#F00808" d="M105.513,164.105c1.268,0.158,0.51,1.691,0.99,2.311c1.162,1.496,1.126-0.69,2.104,0.268
			c0.515,0.504,2.2,0.617,1.7-0.825c-0.005-0.001-0.368-0.272-0.498-0.321c-1.548-0.564-2.18-2.103-0.713-2.43
			c0.923-0.205,0.252-1.884,0.693-2c0.505-0.132,1.923,0.305,1.387-1.475c-0.008-0.025-1.348-0.92-1.521-1.124
			c-0.364-0.426-1.822-0.011-0.875,1.044c0.609,0.678-0.098,1.504-0.952,0.356c-0.08-0.106-1.782-0.573-1.479,0.915
			c0.06,0.291,1.01,0.43,1.265,0.518c0.425,1.227,0.3,1.489-0.937,1.294C105.492,160.585,104.384,163.963,105.513,164.105z"/>
		<path fill="#F00808" d="M102.312,182.813c2.434,0.247,5.019-1.344,3.138-2.704c-2.308-0.345-1.37-1.976-1.372-3.402
			c-0.006-2.694-2.167-0.602-2.543-0.053c-0.579,0.848-1.8-0.983-2.049-1.503c-0.415-0.86-2.394-0.641-2.879-0.19
			c-1.536,1.421,0.732,2.298,1.842,2.681c1.206,0.415,1.644,1.264,1.803,2.277C100.551,181.839,99.604,182.539,102.312,182.813z"/>
		<path fill="#F00808" d="M111.999,171.08c0.555,0.019,0.886,0.446,1.215,0.818c0.536,0.607,2.875,1.361,3.359,0.344
			c0.479-1.005-0.531-1.801-1.009-2.744c-0.521-1.025,0.772-1.772,0.659-3.082c-0.067-0.774-1.372-1.09-2.026-0.65
			c-1.279,0.856-0.306,2.699-2.416,2.283C110.482,167.793,110.396,171.026,111.999,171.08z"/>
		<path fill="#F00808" d="M135.775,176.924c2.885-1.432,2.365,1.965,2.692,3.889c0.256,1.5,1.254,0.828,1.417-0.2
			c-0.237-0.55-0.213-1.245,0.373-1.86c1.613-1.697-0.201-3.119-0.579-2.139c-0.479,1.237-1.655-0.423-1.235-0.843
			c2.207-2.206-0.067-1.884-1.789-1.867c-1.219,0.473-2.474,0.853-2.49,1.409C134.109,177.234,134.101,177.756,135.775,176.924z"/>
		<path fill="#F00808" d="M120.351,169.422c-0.163,0.423-0.504,0.585-0.228,1.023c0.275,0.439,0.064,0.374,0.064,0.813
			c0,0.439,0.423,0.617,0.26,0.829c-0.162,0.211-0.975-0.179-1.104,0.146c-0.516,1.288,0.917,1.641,1.349,1.139
			c0.292-0.342,0.049-0.732,0.292-1.154c0.243-0.423,0.698-0.293,0.568-0.877c-0.13-0.586-0.454-1.041-0.227-1.089
			c0.227-0.05,0.73,0.292,1.138,0.405c0.405,0.114,0.909,0.146,0.584,0.473c-0.324,0.324-0.958,0.649-0.813,1.072
			c0.147,0.422,0.699,1.039,1.576,0.422c0.878-0.617,0.211-0.91,0.537-1.593c0.357-0.779,1.023-0.487,1.023-1.462
			s0.846-2.727,0.391-2.986c-0.454-0.26-1.564-0.525-1.727,0.206c-0.051,0.226,0.137,2.128,0.222,2.481
			c0.265,1.112-0.711,1.359-0.706,1.161c0.035-1.339-1.479-1.329-1.738-1.22c-0.422,0.178-0.326,0.455-0.586,0.276
			S120.512,168.999,120.351,169.422z"/>
		<path fill="#F00808" d="M137.522,158.109c0.261,0.086,0.78,0.199,0.977-0.063c0.276-0.366,0.45,0.097,0.773,0.195
			c0.631,0.192,0.532-0.411,0.639-0.686c0.177-0.453-0.004-0.156,0.608-0.156c0.535,0,0.598-1.603-0.273-1.212
			c-0.138,0.062-0.256,0.737-0.396,0.678c-0.571-0.246-0.769,0.149-0.938,0.028c-0.186-0.133,0.156-0.739-0.139-1.361
			c-0.117-0.246-0.297-0.206-0.549-0.215c-0.368-0.013-0.067,0.819-0.396,0.99c-0.653,0.341-0.366,0.434-0.487,0.965
			C137.336,157.305,137.154,157.986,137.522,158.109z"/>
		<path fill="#F00808" d="M141.613,143.686c0.486-0.012,0.502-0.338,0.484-0.495c-0.055-0.468-0.498-0.165-0.747-0.492
			c-0.251-0.381-0.765-0.37-0.693,0.123c0.036,0.257-0.185,0.177-0.271,0.447C140.303,143.539,141.122,143.698,141.613,143.686z"/>
		<path fill="#F00808" d="M136.482,148.348c0.488-0.012,0.503-0.338,0.485-0.494c-0.054-0.469-0.497-0.166-0.746-0.492
			c-0.251-0.381-0.765-0.37-0.694,0.122c0.037,0.258-0.184,0.178-0.27,0.448C135.172,148.201,135.993,148.36,136.482,148.348z"/>
		<path fill="#F00808" d="M123.596,151.78c0.865-0.022,0.893-0.599,0.859-0.876c-0.094-0.831-0.882-0.295-1.322-0.872
			c-0.446-0.677-1.357-0.657-1.232,0.217c0.065,0.456-0.326,0.315-0.478,0.792C121.271,151.521,122.727,151.803,123.596,151.78z"/>
		<path fill="#F00808" d="M127.855,175.74c0.862,0.234,1.236-0.537,1.727-0.14c0.489,0.397,0,0.979,0.535,1.539
			c0.537,0.56,1.33,1.237,2.101,0.909c0.77-0.325,1.235-0.861,0.792-1.539c-0.442-0.676-1.701-0.932-1.771-1.656
			c-0.071-0.723,1.002-0.209,0.745-0.885c-0.256-0.678-1.025-1.004-0.815-1.424s0.256,0.21,1.072,0.07
			c0.816-0.141,1.189-0.678,1.004-0.98c-0.188-0.303-1.517-0.42-1.471-1.049c0.047-0.63,0.444-0.35,0.725-1.563
			c0.279-1.213-0.49-1.213-0.817-1.399c-0.327-0.186-1.095-0.21-1.423,0.304c-0.326,0.513-0.094,0.677,0.023,1.446
			s-0.07,1.283-0.49,1.539c-0.42,0.258-1.469-0.023-1.516,1.003s-0.094,1.283-0.886,1.283
			C126.005,173.198,126.579,175.396,127.855,175.74z"/>
		<path fill="#F00808" d="M128.73,151.508c0.219,0.133,0.49,0.201,0.746,0.147c0.201-0.041,0.096,0.022,0.275,0.47
			c0.783,1.952,2.07-0.662,0.862-0.834c-0.276-0.039-0.412-0.088-0.464-0.369c-0.036-0.198-0.121-0.581-0.275-0.834
			c-0.334-0.551-1.152-0.089-1.32,0.186C128.393,150.541,128.253,151.219,128.73,151.508z"/>
		<path fill="#F00808" d="M129.654,161.068c-0.67-0.133-0.715,1.539,0.113,1.566c0.287,0.01,0.458,0.23,0.628,0.424
			c0.276,0.314,1.486,0.703,1.735,0.177c0.248-0.52-0.273-0.931-0.521-1.418c-0.269-0.53,0.4-0.916,0.342-1.593
			c-0.035-0.399-0.709-0.563-1.048-0.336C130.242,160.331,130.745,161.283,129.654,161.068z"/>
		<path fill="#F00808" d="M81.246,169.688c0.725-0.303,0.52-0.943,0.883-1.246c0.362-0.302,0.338-1.052-0.037-1.389
			c-0.375-0.34-1.39-0.363-1.836-0.014c-0.448,0.351-0.375,0.557-0.593,1.112C79.042,169.738,80.009,170.201,81.246,169.688z"/>
		<path fill="#F00808" d="M196.793,287.104c-0.422-1.754-0.822-3.78-1.164-5.564c-0.404-2.111,0.112-3.759-0.567-5.77
			c-0.471-1.391-0.902-5.875-1.201-9.119c-0.202-0.129-0.338-0.37-0.534-0.108c-0.164,0.219-0.603,0.124-0.821,0.052
			c-0.31-0.103-0.146-0.728-0.152-0.701c0.101-0.447-0.14-0.526,0.41-0.813c0.276-0.144,0.022-0.842,0.331-0.832
			c0.213,0.008,0.365-0.026,0.463,0.181c0.248,0.522-0.041,1.032,0.117,1.145c0.027,0.021,0.057,0.022,0.09,0.017
			c-0.065-0.715-0.123-1.324-0.17-1.765c-0.576-5.444-1.787-11.978-2.752-17.383c-0.064-0.349-0.127-0.7-0.188-1.056
			c-0.348-0.102-0.663-0.268-0.796-0.418c-0.203-0.228-0.404-0.49-0.743-0.5c-0.979-0.033-0.926-2.009-0.134-1.852
			c0.975,0.19,0.873-0.403,1.102-0.932c-0.262-1.886-0.492-3.84-0.698-5.837c-0.387-0.135-0.776-0.396-1.151-0.739
			c-0.781-0.717-0.324-1.496,0.326-2.113c0.123-0.117,0.305-0.215,0.523-0.294c-0.175-1.948-0.328-3.921-0.469-5.895
			c-0.223,0.083-0.492,0.153-0.815,0.212c-1.37,0.246-1.452-0.961-2.351-1.145c-0.9-0.184-0.512,0.838-1.227,1.473
			c-2.025,1.792-4.402-3.235-1.82-2.762c1.001,0.184,1.021,0.144,1.001-0.43c-0.021-0.571-0.347-0.633-0.45-1.533
			c-0.192-1.7,2.064-1.605,3.211-0.695c0.695,0.553,0.961,1.023,2.229,1.575c-0.057-0.888-0.111-1.773-0.164-2.654
			c-0.3,0.222-0.695,0.374-1.242,0.341c-1.39-0.082-1.717-0.653-1.922-1.676c-0.203-1.023,0.982-1.963,1.922-1.963
			c0.445,0,0.78,0.146,1.066,0.271c-0.12-2.095-0.232-4.146-0.344-6.122c-1.385,0.154-2.625-0.028-2.863-0.928
			c-0.479-1.808-3.387,0.565-3.967-1.329c-0.334-0.112-0.352-1.799-0.651-1.86c-1.724-0.352-0.551,1.378-3.006,1.197
			c-1.481-0.11-2.882-1.521-2.761-2.984c0.148-1.773-0.134-1.688-0.352-1.848c-0.406-0.297-0.721-2.45,0.922-2.678
			c0.694-0.097,1.48,0.202,1.833,0.961c1.836,3.953,4.56-1.467,0.904-1.467c-1.065,0-2.991-0.567-2.167-1.893
			c0.687-1.106,0.828,0.578,2.186-2.088c0.725-1.425,2.066-0.657,2.766,0.33c0.565,0.799,0.588,1.521,0.49,3.055
			c-0.078,1.211,0.064,2.059,1.138,1.861c1.06-0.219,2.788-1.441,2.937-1.473c1.057-0.239,2.842-4.838-0.48-2.16
			c-0.969,0.78-2.441,0.62-2.6-0.157c-0.654-3.206-0.063-2.3-2.402-2.683c-2.169-0.355-0.524-2.566,1.576-3.203
			c3.482-1.054-0.807,3.14,4.754,1.963c1.865-0.396,0.617-1.335,0.258-1.324c-3.264,0.098-3.035-2.025,0.414-2.025
			c0.062,0,0.235-0.027,0.439-0.096c-0.008-0.347-0.012-0.697-0.014-1.049c-0.005-1.27,0.051-2.478,0.104-3.684
			c-1.687,0.271-3.663-0.043-4.456-0.42c-1.232-0.586-5.256-0.584-5.256,0.584c0,2.969,1.514,0.319,3.721,0.319
			c1.826,0.833-0.313,4.571-1.35,5.151c-3.652,2.049-7.906-3.825-11.218-0.314c-1.331,1.41-3.788,0.693-3.634-1.232
			c0.141-1.771-1.489-3.326-1.318-4.782c0.137-1.169,2.19-3.1,3.316-1.304c0.805,1.279,0.735,3.604,1.574,3.64
			c1.828,0.077,0.205-1.349,0.205-2.416c0-1.582,3.385-0.096,4.701-0.669c1.738-0.758-0.354-1.81-1.041-2.074
			c-0.783-0.301-1.623-0.588-1.82-0.616c-2.273-0.338-2.321-2.22-0.331-3.278c0.907-0.855-2.31-2.506-3.622-0.327
			c0.31,6.968-5.428,2.354-8.236,5.317c-0.342,0.36-2.214,0.589-3.555,1.307c-1.605,0.859,0.086,2.076-3.273,2.276
			c-1.548,0.093-2.021-1.169-2.944-0.585c-0.923,0.585-0.196,1.687-1.23,2.544c-1.036,0.856-2.536,1.863-3.796,1.146
			c-1.26-0.716-1.957-1.731-1.059-2.808s3.117-1.268,3.382-2.498c0.265-1.231-1.685-0.562-1.108-1.676
			c0.576-1.113,1.967-1.521,1.689-2.287c-0.278-0.764-0.484,0.312-1.861-0.092c-1.377-0.404-1.913-1.403-1.531-1.888
			c0.382-0.485,2.693-0.42,2.74-1.514c0.045-1.095-0.694-0.69-0.934-2.835c-0.235-2.098-2.06-0.49-2.107-0.256
			c-0.354,1.736,2.209,0.486,1.743,2.773c-0.104,0.508-0.709,0.598-1.222,0.598c-1.643,0-1.023,1.796-1.391,2.968
			c0.396,0.782,0.406,2.188,0.176,2.808c-0.605,1.635-1.578,1.625-2.957,1.517c-3.635-0.287-3.201,1.249-4.531,1.521
			c-2.362,0.481-1.724-1.345-1.449-1.551c4.051-3.046,1.02-5.574,0.319-4.055c-0.423,0.919-2.129,2.661-3.002,2.783
			c-3.718,0.519-2.104-2.094-1.996-4.016c0.045-0.797-0.099-1.021-0.909-1.021c-0.947,0-1.656-0.171-2.178-0.444v0.536
			c-0.23-0.063-0.502-0.109-0.811-0.132c-0.347-0.024-0.272-0.471-0.074-0.669c0.197-0.197,0.665,0.023,1.036-0.416v-0.624
			c-0.108-0.134-0.26-0.284-0.392-0.497c-0.322-0.52-1.115-0.322-1.537-0.099c-0.422,0.223-0.272,0.818-0.05,1.339
			c0.224,0.521-0.223,0.668-0.843,0.594c-0.618-0.073-0.396-0.396-0.916-0.768c-0.521-0.371-0.372-0.05-1.017-0.272
			c-0.644-0.224-0.173-0.496-0.446-0.941c-0.272-0.447-0.595-0.349-0.793-0.67c-0.197-0.321,0.037-1.14-0.235-1.462
			c-0.267-0.316-2.068-0.617-1.759,1.028c0.074,0.396,0.521,0.495,0.967,0.645s0.396,0.546,0.223,1.141s-0.05,1.04,0.124,1.412
			s1.09,0.074,1.611,0.248c0.521,0.173,0.125,0.644,0.422,1.313c0.297,0.669,0.768,0.124,1.214,0.52
			c0.446,0.396-0.073,0.248-0.174,1.091c-0.099,0.843,1.116,1.091,1.859,1.042c0.743-0.051,0.62-0.471,0.719-0.918
			c0.099-0.445-0.124-0.742,0.149-1.264c0.457-0.875,3.027,6.281,0.893,5.061c-1.227-0.702-2.494,0.258-3.568,0.297
			c-1.25,0.045,0.2-2.193-1.43-2.1c-0.234,0.014-0.492-0.141-0.717-0.335c-0.607,0.39-2.186,1.179-0.622,1.435
			c1.218,0.199-1.173,3.076,2.813,2.94c1.146-0.038,1.798,0.594,2.118,0.446c0.846,1.272,1.236,1.479,1.236,3.059
			c-0.353,0.468-1.126,0.58-0.301,1.279c0.174,0.146,0.27,0.342,0.301,0.555v0.324c-0.111,0.81-1.004,1.619-2.056,0.771
			c-0.054-0.043-0.2-0.779-0.79-1.218c-0.666-0.497-1.755-0.618-1.241,0.975c0.103,0.318,0.397,0.631,0.092,0.896
			c-1.563,1.346,0.009,2.168,0.707,1.392c1.724-1.921,2.604,1.122,3.273,1.114c0,0,0.903,1.008,0.926,1.854
			c0.03,1.219-0.997,2.23-2.726,0.503c-4.246-4.245-1.355,1.802-4.366,2.853c-6.756,2.354,1.319-5.166-2.604-3.245
			c-1.299,0.638-4.333,1.304-4.333,2.505c0,2.697-0.611,2.107-2.084,3.054c-0.915,0.588-3.322,0.612-2.25,1.965
			c1.372,1.731,1.833-0.176,3.708-1.226c3.451-1.936,2.826,1.057,2.826,2.521c0,0.815,2.457,1.316,1.874-0.181
			c-0.742-1.904,0.649-3.03,2.377-2.678c2.097,0.428,0.3,2.954,0.419,3.46c0.281,1.194,1.349,1.746,1.879,1.058
			c0.348-0.454-0.561-0.839-0.561-1.781c0-0.945,0.455-0.805-0.14-1.748c-0.594-0.943,0.14-1.293,0.489-2.201
			c0.682-1.772,2.998-2.227,4.49-1.296c1.023,0.638,0.953,1.73,1.074,2.089c0.371,1.107-2.364,0.752-3.467,0.989
			c-0.49,0.104,0.209,1.083,0.488,2.341c0.28,1.258-0.698,0.979-1.223,1.887c-0.524,0.909,0,1.748-0.629,2.481
			c-0.505,0.59-1.648,0.633-2.406,0.103c-0.866-0.604-0.689-1.318-0.962-1.768c-0.557-0.918-2.009,0.002-2.739,0.223
			c-1.969,0.598-4.591,0.863-4.95-0.488c-0.479-1.808-3.387,0.565-3.965-1.329c-0.335-0.112-0.352-1.799-0.652-1.86
			c-1.724-0.352-0.551,1.378-3.006,1.197c-1.482-0.11-2.882-1.521-2.761-2.984c0.148-1.773-0.135-1.688-0.353-1.848
			c-0.406-0.297-0.721-2.45,0.923-2.678c0.695-0.097,1.48,0.202,1.833,0.961c1.836,3.953,4.56-1.467,0.904-1.467
			c-1.065,0-2.99-0.567-2.167-1.893c0.688-1.106,0.829,0.578,2.186-2.088c0.725-1.425,2.066-0.657,2.766,0.33
			c0.565,0.799,0.589,1.521,0.49,3.055c-0.077,1.211,0.065,2.059,1.139,1.861c1.059-0.219,2.788-1.441,2.937-1.473
			c1.056-0.239,2.841-4.838-0.481-2.16c-0.97,0.78-2.442,0.62-2.6-0.157c-0.654-3.206-0.064-2.3-2.403-2.683
			c-2.168-0.355-0.524-2.566,1.577-3.203c3.483-1.054-0.808,3.14,4.753,1.963c1.866-0.396,0.618-1.335,0.257-1.324
			c-3.263,0.098-3.035-2.025,0.415-2.025c0.215,0,1.803-0.338,1.314-1.549c-0.267-0.663-1.154-1.291-0.566-1.42
			c1.232-0.271,2.173,0.131,2.53-0.502c0.932-1.656,0.427-2.545-1.481-1.712c-1.807,0.79-4.715,0.412-5.723-0.065
			c-1.232-0.586-5.256-0.584-5.256,0.584c0,2.969,1.516,0.319,3.723,0.319c1.825,0.833-0.314,4.571-1.35,5.151
			c-3.653,2.049-7.908-3.825-11.218-0.314c-1.331,1.41-3.789,0.693-3.636-1.232c0.141-1.771-1.487-3.326-1.317-4.782
			c0.138-1.169,2.191-3.1,3.318-1.304c0.804,1.279,0.734,3.604,1.573,3.64c1.827,0.077,0.205-1.349,0.205-2.416
			c0-1.582,3.384-0.096,4.701-0.669c1.737-0.758-0.354-1.81-1.041-2.074c-0.784-0.301-1.623-0.588-1.821-0.616
			c-2.273-0.338-2.321-2.22-0.331-3.278c0.909-0.855-2.31-2.506-3.621-0.327c0.309,6.968-5.428,2.354-8.238,5.317
			c-0.342,0.36-2.213,0.589-3.555,1.307c-1.605,0.859,0.087,2.076-3.274,2.276c-1.546,0.093-2.021-1.169-2.944-0.585
			c-0.922,0.585-0.195,1.687-1.23,2.544c-1.036,0.856-2.536,1.863-3.795,1.146c-1.26-0.716-1.957-1.731-1.059-2.808
			c0.898-1.076,3.118-1.268,3.383-2.498c0.265-1.231-1.686-0.562-1.108-1.676c0.577-1.113,1.967-1.521,1.689-2.287
			c-0.278-0.764-0.484,0.312-1.861-0.092c-1.377-0.404-1.913-1.403-1.531-1.888c0.382-0.485,2.694-0.42,2.739-1.514
			c0.046-1.095-0.693-0.69-0.934-2.835c-0.234-2.098-2.059-0.49-2.107-0.256c-0.353,1.736,2.21,0.486,1.743,2.773
			c-0.103,0.508-0.708,0.598-1.221,0.598c-1.643,0-1.024,1.796-1.39,2.968c0.396,0.782,0.406,2.188,0.175,2.808
			c-0.605,1.635-1.578,1.625-2.956,1.517c-3.637-0.287-3.202,1.249-4.531,1.521c-2.364,0.481-1.724-1.345-1.449-1.551
			c4.05-3.046,1.018-5.574,0.319-4.055c-0.423,0.919-2.129,2.661-3.002,2.783c-3.718,0.519-2.104-2.094-1.997-4.016
			c0.045-0.797-0.098-1.021-0.909-1.021c-0.949,0-1.656-0.171-2.179-0.444v0.583c-0.105-0.037-0.22-0.067-0.346-0.094l-0.004,1.799
			c0.431,0.403,0.956,1.268,1.046,1.626c0.164,0.647-1.365,1.239-0.778,2.119c0.753,1.126,0.85,2.175,0.727,2.995
			c-0.407,0.912-0.35,1.497-0.067,1.718c1.56,1.22,1.575-2.039,4.278-1.476c2.52,0.525,2.468,3.814,3.317,3.926
			c0.951,0.126,1.442,0.853,1.843-0.061c0.688-1.57,0.096-2.674,1.242-4.195c0.28-0.37,2.791-1.23,3.3-0.086
			c0.524,1.178-0.298,1.456-1.393,3.66c-0.497,1.002,0.593,2.189,1.228,2.73c1.521,1.299-1.546,4.168-4.315,3.084
			c-3.94-1.543-1.506,2.338-3.077,3.748c-0.939,0.842-1.171,0.672-2.184,0.047c-1.379-0.848-0.796-1.594-1.153-2.493
			c-0.085-0.213,0.453-1.99,0.558-2.272c1.438-3.856-2.44-3.021-2.931-3.809c-0.513-0.823-1.076-0.885-1.466-0.646
			c-0.016,0.55-0.038,1.095-0.06,1.637c0.143,0.302,0.113,0.681-0.043,1.008c-0.031,0.783-0.059,1.564-0.067,2.352l-0.011,0.99
			c0.674,1.44,0.806,3.327-0.036,3.447c-0.011,0.874-0.024,1.742-0.042,2.613c1.302,1.431,1.771,3.91,0.246,3.484
			c-0.112-0.033-0.227-0.071-0.344-0.117c-0.033,0.838-0.073,1.682-0.123,2.535c0.307-0.082,0.638-0.047,0.932,0.142
			c1.358,0.876,1.261,1.579,2.348,1.851c1.087,0.272,1.034-0.311,1.759-0.311c2.062,0,2.332,0.681,2.247,1.418
			c-0.087,0.758-0.583,1.568-2.066,1.24c-1.631-0.363-2.024-0.785-2.477-0.333c-0.762,0.763-2.123,0.015-2.93-0.751
			c-0.165,2.932-0.333,6.017-0.524,9.152c0.347,0.195,0.663,0.506,0.831,1.127c0.449,1.657,0.044,3.342-1.185,4.234
			c-0.24,3.363-0.524,6.722-0.875,9.955c0.231,0.701,0.219,1.55-0.253,2.197c-0.308,2.523-0.662,4.949-1.079,7.219
			c0.09,0.021,0.164,0.073,0.222,0.196c0.293,0.622-0.207,3.407-0.02,3.54c0.17,0.121,0.368-0.274,0.938-0.029
			c0.141,0.061,0.259-0.615,0.397-0.677c0.87-0.391,0.808,1.212,0.272,1.212c-0.612,0-0.432-0.297-0.608,0.154
			c-0.107,0.275-0.008,0.88-0.639,0.688c-0.322-0.1-0.498-0.562-0.773-0.195c-0.137,0.182-0.432,0.182-0.686,0.136
			c-0.712,4.044-1.416,8.311-1.828,12.082c0.02,0.022,0.037,0.05,0.054,0.085c0.247,0.523,0.217,1.844,0.374,1.956
			c0.143,0.103,0.309-0.231,0.788-0.024c0.119,0.051,0.971-1.131,1.085-1.184c0.42-0.188,0.77,0.24,0.535,0.756
			c-0.174,0.383-0.866,0.877-1.058,0.877c-0.515,0-0.363-0.25-0.511,0.131c-0.09,0.23-0.007,0.738-0.538,0.576
			c-0.271-0.082-0.418-0.471-0.649-0.163c-0.081,0.106-0.227,0.139-0.381,0.136c-0.298,3.242-0.729,7.705-1.198,9.092
			c-0.68,2.011-0.163,3.658-0.568,5.77c-0.342,1.784-0.742,3.811-1.164,5.564c-0.463,1.93-1.435,3.646,0.397,4.964
			c4.274,1.054,8.548,2.108,13.907,3.017c5.358,0.908,11.799,1.672,18.022,2.047c6.224,0.375,12.227,0.362,21.559,0.475
			c9.331,0.113,21.99,0.352,32.51,0.384c10.521,0.03,18.901-0.144,26.231-0.419s13.609-0.65,19.05-1.152
			c5.44-0.499,10.044-1.125,13.823-1.871c3.778-0.746,6.733-1.613,9.689-2.479C198.228,290.749,197.256,289.033,196.793,287.104z
			 M48.063,258.713c-0.311,0.008-1.07-0.693-1.046-1.102c0.055-0.172,0.007-0.531-0.017-0.695c-0.045-0.313,0.281-0.318,0.441-0.077
			c0.158,0.207,0.44,0.015,0.474,0.312c0.076,0.686-0.528-0.529-0.299,0.65C47.689,258.174,48.503,258.551,48.063,258.713z
			 M177.043,210.521c1.084-0.104,2.271,1.049,2.727,1.573c0.453,0.523,0.979,0.35,1.537-0.035c0.56-0.384,1.922-0.104,2.201,0.524
			c0.28,0.629,0.141,2.307-1.223,2.516c-1.363,0.211-1.678-0.559-2.481-0.943s-1.328,0.49-2.411,0.943
			c-2.429,1.02-4.34,0.023-3.32-2.9C174.598,210.697,175.959,210.627,177.043,210.521z M173.582,211.343
			c-0.525,0.438-0.229,1.363-1.275,1.8c-1.789,0.745-3.188,0.075-2.291-2.219c0.315-0.804,0.211-1.101,0.857-1.608
			c0.646-0.506,2.113-0.471,2.655,0.019S174.105,210.906,173.582,211.343z M168.666,217.557c-0.512-0.43-1.043-0.021-1.411,0.367
			c-0.368,0.389-0.348,1.126-0.899,1.637s-1.125,0.43-1.533,0.94c-0.409,0.511-0.491,1.432-0.491,2.126
			c0,0.695-1.022,0.941-1.86,1.125s-1.288-0.184-1.963-1.268c0,0-0.266-0.839,0.348-1.371c0.613-0.53,1.881-0.571,2.209-1.348
			c0.326-0.777-0.082-1.637,0.654-2.413c0.735-0.776,1.553-0.327,1.839-0.614c0.287-0.285,0.614-1.962,1.8-2.453
			c1.186-0.49,2.371,0,2.903,0.9c0.532,0.899,0.817,0.94,1.595,1.35c0.777,0.408,0.94,2.207,0.143,2.698
			c-0.797,0.491-1.205,0.45-1.35,1.268c-0.143,0.817-0.511,1.942-0.939,2.637c-0.43,0.696-1.307,1.724-2.904,1.473
			c-1.482-0.231-1.439-1.688-1.145-2.372c0.389-0.899,0.184-0.818,0.818-1.512c0.634-0.696,1.553-0.021,2.064-0.451
			S169.178,217.986,168.666,217.557z M133.382,203.496c-0.139-0.688,1.136-0.27,1.534-0.953c0.583-0.997-1.21-3.529,1.25-3.773
			c2.82-0.28,1.751,3.654,1.764,3.688c0.299,0.79,1.89,1.292,0.019,3.537c-0.362,0.435-0.931,0.099-1.548,0.055
			c-2.859-0.203-0.572,1.316-1.445,3.048c-0.35,0.694,1.768,1.564,1.04,3.03c-0.397,0.801-3.034,1.413-2.923-0.444
			c0.176-2.891-1.625-2.149-1.625-4.05C131.447,204.678,134.094,206.985,133.382,203.496z M133.771,213.377
			c1.976,0.469,0.233,2.798,2.105,2.504c3.724-0.585,4.246,0.998,2.898,2.54c-1.381,1.581-3.955-0.874-7.218,0.251
			c-3.558,1.227-4.429-3.384-2.694-3.334C132.773,215.451,130.926,212.701,133.771,213.377z M134.785,224.846
			c2.469,0.486,1.328-1.669,2.825-2.672c0.767-0.512,2.293-0.144,2.372,0.762c0.133,1.533-1.381,2.406-0.771,3.605
			c0.56,1.104,1.741,2.035,1.18,3.211c-0.566,1.191-3.303,0.309-3.93-0.4c-0.386-0.438-0.773-0.938-1.422-0.959
			C133.164,228.33,133.266,224.547,134.785,224.846z M154.815,199.601c0.292-0.122,2.015,0.039,2.131,0.909
			c0.076,1.105,0.198,1.033,1.307,1.043c1.335-0.056,2.635,3.383,0.231,4.514c-1.777,0.836-2.516-0.876-2.516-2.412
			c0-0.489-0.314-0.419-1.224-0.594c-0.909-0.174-0.243-1.398-0.594-1.853c-0.35-0.454-0.874,0.035-1.677,0.454
			c-0.805,0.42-1.713,0.035-2.551-0.732c-0.84-0.771-0.351-1.609,0.348-2.272c0.699-0.664,3.182-0.769,3.95-0.245
			C154.99,198.938,154.396,199.775,154.815,199.601z M149.659,202.745c0.07,0.315-0.278,1.259-1.222,1.503
			c-0.945,0.244-1.574-0.279-1.854,0s-0.209,1.188-1.117,1.607c-0.909,0.42-1.329,0.35-1.992,0.209
			c-0.664-0.139-0.351,0.525-0.909,1.049c-0.842,0.789-3.64-0.289-1.469-2.795c0.455-0.524,0.875,0.174,1.714,0.034
			c0.838-0.14,0.733-1.014,0.908-1.503c0.174-0.489,0.559-0.979,1.362-1.117c0.804-0.141,0.839,1.013,1.503,0.838
			s0.734-0.664,1.818-0.873C149.484,201.486,149.59,202.431,149.659,202.745z M141.264,210.451c0.765-0.247,1.303,0.168,1.66-0.205
			c0.357-0.371,0.563-0.989,0.589-1.475c0.027-0.486,0.894-0.986,2.091-1.373c1.197-0.386,1.713,0.072,2.537,0.578
			c0.823,0.504,1.699,1.396,2.088,2.263c0.448,0.997,1.629-0.067,2.485,1.249c1.12,1.725,0.894,3.93-1.205,4.765
			c-0.977,0.389-1.776-0.382-2.46-0.565c-2.088-0.561-0.693-2.289-0.123-3.229c1.063-1.747-2.539-0.823-2.789-0.789
			c-1.373,0.186-0.781-0.372-1.264-0.73s-1.096,0.243-1.278,0.706c-0.181,0.462-0.224,1.468-1.376,1.767
			c-1.152,0.298-1.568-0.082-2.004-0.859C139.781,211.774,140.498,210.698,141.264,210.451z M140.541,219.651
			c0.345-1.081,1.229-0.762,1.082-1.796c-0.282-1.976,1.779-2.021,2.789-0.491c0.998,1.311,2.78,0.095,2.995,1.974
			c0.072,0.631,0.011,1.937-1.947,1.986C143.492,221.373,140.197,220.734,140.541,219.651z M146.811,224.924
			c0.936,0.275,3.115,1.834,3.707,0.775c1.385-2.482-2.018-1.202-3.035-2.215c-1.121-1.117,0.668-1.881,1.172-1.654
			c1.761,0.791,3.295,0.276,3.922-1.814c0.354-1.178-0.341-3.74,1.855-3.021c0.738,0.242,2.285,2.521,1.064,4.244
			c-0.998,1.404-1.148,2.987,1.144,2.023c0.835-0.351,1.111-1.493,2.776,0.357c0.583,0.648,0.374,2.586-0.758,2.816
			c-2.756,0.562-3.352-2.551-5.254,0.005c-0.368,0.496-8.357,3.082-8.357-0.016C145.047,225.314,145.453,224.522,146.811,224.924z
			 M155.288,229.381c0.604,2.592,1.731,0.907,3.089,0.834c1.19-0.063,1.865,2.141,1.195,3.311c-0.354,1.044-1.96,2.178-3.228,1.424
			c-1.192-1.068-1.093-2.604-3.181-1.891C149.486,234.313,154.006,223.879,155.288,229.381z M157.736,214.639
			c0.141-1.189,0.875-0.979,0.246-1.537c-0.629-0.561-1.293,0.209-1.713-0.735c-0.419-0.943,0.141-1.607-0.594-1.853
			c-0.734-0.244-2.027,0.176-2.271-0.349c-0.246-0.524-0.42-1.153-0.176-1.992c0.245-0.839,0.315-1.398-0.313-1.608
			c-0.63-0.209-1.259-0.349-1.363-0.907c-0.435-2.321,2.104-1.897,2.481-1.452c0.385,0.455,0.053,1.609,0.331,2.063
			c0.28,0.455,0.735,0.315,1.118,0.943c0.385,0.631-0.278,1.014,0.629,1.329c0.91,0.313,0.7-0.14,1.434,0.384
			c0.734,0.525,0.42,0.979,1.293,1.084c0.875,0.104,1.503-0.105,1.189-0.84c-0.314-0.732-0.525-1.572,0.068-1.887
			c0.596-0.314,1.713-0.594,2.168,0.141c0.453,0.733,1.083,0.943,0.559,1.572c-0.523,0.629-1.188,0.314-1.468,0.594
			s-0.384,0.909,0.104,0.944c0.489,0.034,1.503-1.049,1.992-0.698c0.489,0.348,0.84,0.488,0.944,1.257s0.104,1.259-0.07,1.397
			c-0.175,0.141-0.088,0.438-1.101,0.542c-1.014,0.104-1.258-0.733-1.643,0c-0.385,0.734-0.07,1.153-0.211,1.783
			c-0.139,0.628,0.037,1.222-1.012,1.292S157.598,215.827,157.736,214.639z M160.472,226.883c0.278-0.457,1.637-1.225,2.193-0.311
			c0.256,0.421,0.396,1.057,0.456,1.385c0.088,0.47,0.313,0.55,0.771,0.615c2.007,0.283-0.13,4.625-1.433,1.383
			c-0.298-0.742-0.123-0.848-0.455-0.779c-0.426,0.088-0.879-0.025-1.241-0.245C159.971,228.451,160.202,227.325,160.472,226.883z
			 M165.736,204.947c0.245-1.014,1.381-1.101,2.219-0.873c0.84,0.227,0.752,0.717,1.469,0.891c0.716,0.174,2.131,1.328,2.185,2.535
			c0.052,1.205-1.835,1.729-2.744,1.537c-0.909-0.192-0.909-1.032-1.521-1.695c-0.611-0.664-1.258-0.332-1.502-1.136
			C165.842,206.206,165.492,205.961,165.736,204.947z M165.242,200.864c0.35-0.454-0.559-0.839-0.559-1.781
			c0-0.944,0.453-0.805-0.141-1.749c-0.594-0.943,0.141-1.292,0.49-2.201c0.349-0.908,1.327-0.244,1.887,0.14
			c0.559,0.385,0.35-0.209,1.258-0.594c0.558-0.235,3.814-0.255,3.74,2.624c-0.011,0.427,2.088-0.104,1.517-2.496
			c-0.183-0.763-0.927-1.529-0.817-2.016c0.349-1.572,1.117-1.258,2.096-0.698c0.979,0.559,1.119,1.259,1.119,3.354
			c0,2.098-1.434,1.469-2.203,3.146c-0.698,1.468,0.735,2.098-1.152,3.425c-1.887,1.328-3.075,0-3.391-0.908
			c-0.314-0.909,1.049-1.607,1.748-2.307s-0.385-0.77-1.259-1.014s-1.956-0.979-2.446-0.873c-0.488,0.104,0.21,1.082,0.49,2.341
			c0.279,1.259-0.699,0.979-1.224,1.888c-0.524,0.908,0,1.746-0.629,2.48c-0.927,1.082-4.009,0.324-2.901-2.446
			C163.146,200.48,164.893,201.318,165.242,200.864z M155.498,193.895c1.188,0,0.229-0.741,0.298-2.279
			c0.069-1.537,1.642-1.117,2.271-1.503c0.631-0.384,0.909-1.153,0.734-2.307c-0.174-1.153-0.523-1.397-0.035-2.166
			c0.49-0.769,1.643-0.733,2.132-0.455c0.49,0.28,1.643,0.28,1.224,2.097c-0.42,1.818-1.014,1.398-1.084,2.342
			c-0.069,0.943,1.923,1.118,2.203,1.573c0.278,0.454-0.28,1.257-1.504,1.468c-1.224,0.209-1.293-0.734-1.607-0.105
			c-0.314,0.63,0.839,1.119,1.224,2.132c0.384,1.014-1.225,0.245-1.12,1.327c0.105,1.084,1.992,1.469,2.657,2.482
			c0.664,1.014-0.036,1.817-1.188,2.307c-1.153,0.489-2.342-0.524-3.146-1.363c-0.804-0.838-0.069-1.712-0.804-2.307
			c-0.733-0.594-1.293,0.56-2.586,0.21C153.254,196.83,153.425,193.895,155.498,193.895z M140.825,194.02
			c0.489-0.944,1.433-0.7,2.552-0.211c1.117,0.489,2.341,1.119,3.285,1.084c0.943-0.035,0.873-1.363,0.454-1.713
			s-1.433,0.629-2.026-0.209c-0.594-0.839,0.209-1.363,1.048-1.992s2.306,1.049,2.937,1.049c0.628,0,0.559-0.56,0.768-1.818
			c0.211-1.258,0.629-1.607,1.818-1.398c1.188,0.211,2.235,1.957,2.235,3.355s-1.917,0.836-2.546,1.605
			c-0.63,0.77,0.729,3.008-0.389,3.707c-1.119,0.699-2.098-0.699-3.845-0.699s-1.188,1.678-2.517,2.377
			c-3.313,1.742-6.956-0.672-3.293-2.117C143.079,196.34,140.415,194.811,140.825,194.02z M126.693,189.156
			c0.162-0.24,0.385-0.417,0.67-0.49c5.268-1.342,5.688,2.766,6.225,2.963c0.9,0.331,1.442,0.853,1.844-0.061
			c0.688-1.57,0.097-2.674,1.243-4.195c0.28-0.37,2.79-1.23,3.298-0.086c0.525,1.178-0.297,1.456-1.391,3.66
			c-0.497,1.002,0.593,2.189,1.227,2.73c1.521,1.299-1.547,4.168-4.315,3.084c-3.94-1.543-1.505,2.338-3.077,3.748
			c-0.938,0.842-1.169,0.672-2.183,0.047c-1.378-0.848-0.796-1.594-1.153-2.493c-0.084-0.213,0.453-1.99,0.559-2.272
			c1.438-3.856-2.439-3.021-2.931-3.809c-0.021-0.033-0.04-0.065-0.058-0.101l0.441-1.925
			C126.992,189.596,126.853,189.332,126.693,189.156z M111.834,221.928c0.696,0.553,0.961,1.023,2.229,1.575s1.247,1.41,1.207,2.106
			c-0.041,0.694-0.43,1.165-1.799,1.41c-1.371,0.246-1.452-0.961-2.352-1.145c-0.898-0.184-0.511,0.838-1.227,1.473
			c-2.023,1.792-4.401-3.235-1.819-2.762c1.002,0.184,1.022,0.144,1.002-0.43c-0.021-0.571-0.348-0.633-0.45-1.533
			C108.431,220.923,110.688,221.018,111.834,221.928z M102.715,210.521c1.083-0.104,2.272,1.049,2.726,1.573
			c0.455,0.523,0.979,0.35,1.539-0.035c0.559-0.384,1.922-0.104,2.202,0.524c0.279,0.629,0.139,2.307-1.224,2.516
			c-1.363,0.211-1.678-0.559-2.481-0.943c-0.805-0.385-1.329,0.49-2.412,0.943c-2.428,1.02-4.34,0.023-3.319-2.9
			C100.269,210.697,101.632,210.627,102.715,210.521z M99.253,211.343c-0.523,0.438-0.227,1.363-1.275,1.8
			c-1.787,0.745-3.187,0.075-2.289-2.219c0.315-0.804,0.21-1.101,0.857-1.608c0.646-0.506,2.114-0.471,2.656,0.019
			S99.778,210.906,99.253,211.343z M94.338,217.557c-0.512-0.43-1.044-0.021-1.412,0.367c-0.368,0.389-0.347,1.126-0.899,1.637
			c-0.552,0.511-1.125,0.43-1.534,0.94c-0.409,0.511-0.491,1.432-0.491,2.126c0,0.695-1.021,0.941-1.86,1.125
			c-0.838,0.184-1.288-0.184-1.963-1.268c0,0-0.265-0.839,0.348-1.371c0.614-0.53,1.881-0.571,2.209-1.348
			c0.327-0.777-0.082-1.637,0.654-2.413s1.554-0.327,1.84-0.614c0.286-0.285,0.614-1.962,1.799-2.453c1.186-0.49,2.372,0,2.903,0.9
			c0.532,0.899,0.818,0.94,1.595,1.35c0.777,0.408,0.939,2.207,0.143,2.698c-0.798,0.491-1.207,0.45-1.35,1.268
			s-0.512,1.942-0.94,2.637c-0.43,0.696-1.306,1.724-2.903,1.473c-1.483-0.231-1.44-1.688-1.146-2.372
			c0.389-0.899,0.184-0.818,0.817-1.512c0.634-0.696,1.555-0.021,2.065-0.451S94.849,217.986,94.338,217.557z M80.488,199.601
			c0.293-0.122,2.015,0.039,2.131,0.909c0.076,1.105,0.197,1.033,1.306,1.043c1.334-0.056,2.635,3.383,0.232,4.514
			c-1.778,0.836-2.516-0.876-2.516-2.412c0-0.489-0.315-0.419-1.224-0.594c-0.909-0.174-0.245-1.398-0.594-1.853
			c-0.35-0.454-0.875,0.035-1.678,0.454c-0.804,0.42-1.712,0.035-2.551-0.732c-0.838-0.771-0.35-1.609,0.35-2.272
			c0.699-0.664,3.18-0.769,3.948-0.245C80.663,198.938,80.068,199.775,80.488,199.601z M75.332,202.745
			c0.07,0.315-0.28,1.259-1.224,1.503c-0.943,0.244-1.572-0.279-1.852,0s-0.21,1.188-1.119,1.607s-1.327,0.35-1.992,0.209
			c-0.664-0.139-0.349,0.525-0.909,1.049c-0.841,0.789-3.639-0.289-1.467-2.795c0.454-0.524,0.874,0.174,1.712,0.034
			c0.838-0.14,0.733-1.014,0.909-1.503c0.175-0.489,0.559-0.979,1.363-1.117c0.804-0.141,0.839,1.013,1.502,0.838
			s0.734-0.664,1.817-0.873C75.157,201.486,75.262,202.431,75.332,202.745z M66.936,210.451c0.766-0.247,1.302,0.168,1.66-0.205
			c0.357-0.371,0.562-0.989,0.589-1.475c0.027-0.486,0.894-0.986,2.091-1.373c1.197-0.386,1.712,0.072,2.537,0.578
			c0.824,0.504,1.699,1.396,2.089,2.263c0.448,0.997,1.628-0.067,2.484,1.249c1.121,1.725,0.894,3.93-1.206,4.765
			c-0.977,0.389-1.775-0.382-2.459-0.565c-2.089-0.561-0.695-2.289-0.124-3.229c1.063-1.747-2.538-0.823-2.788-0.789
			c-1.373,0.186-0.782-0.372-1.265-0.73s-1.097,0.243-1.277,0.706c-0.181,0.462-0.225,1.468-1.376,1.767
			c-1.152,0.298-1.569-0.082-2.003-0.859C65.453,211.774,66.171,210.698,66.936,210.451z M66.214,219.651
			c0.344-1.081,1.229-0.762,1.082-1.796c-0.282-1.976,1.779-2.021,2.788-0.491c0.999,1.311,2.781,0.095,2.996,1.974
			c0.072,0.631,0.011,1.937-1.947,1.986C69.165,221.373,65.869,220.734,66.214,219.651z M72.482,224.924
			c0.936,0.275,3.116,1.834,3.706,0.775c1.386-2.482-2.017-1.202-3.035-2.215c-1.121-1.117,0.67-1.881,1.171-1.654
			c1.763,0.791,3.297,0.276,3.923-1.814c0.353-1.178-0.34-3.74,1.856-3.021c0.738,0.242,2.285,2.521,1.063,4.244
			c-0.997,1.404-1.148,2.987,1.145,2.023c0.835-0.351,1.111-1.493,2.776,0.357c0.583,0.648,0.375,2.586-0.756,2.816
			c-2.757,0.562-3.352-2.551-5.254,0.005c-0.37,0.496-8.359,3.082-8.359-0.016C70.719,225.314,71.125,224.522,72.482,224.924z
			 M80.959,229.381c0.605,2.592,1.731,0.907,3.09,0.834c1.19-0.063,1.865,2.141,1.196,3.311c-0.354,1.044-1.96,2.178-3.229,1.424
			c-1.192-1.068-1.092-2.604-3.181-1.891C75.158,234.313,79.677,223.879,80.959,229.381z M83.41,214.639
			c0.14-1.189,0.874-0.979,0.245-1.537c-0.63-0.561-1.293,0.209-1.713-0.735c-0.419-0.943,0.14-1.607-0.594-1.853
			c-0.734-0.244-2.027,0.176-2.271-0.349c-0.245-0.524-0.42-1.153-0.175-1.992c0.245-0.839,0.314-1.398-0.314-1.608
			c-0.629-0.209-1.259-0.349-1.363-0.907c-0.436-2.321,2.103-1.897,2.481-1.452c0.384,0.455,0.052,1.609,0.332,2.063
			c0.28,0.455,0.734,0.315,1.119,0.943c0.384,0.631-0.28,1.014,0.628,1.329c0.909,0.313,0.699-0.14,1.434,0.384
			c0.734,0.525,0.419,0.979,1.292,1.084c0.874,0.104,1.503-0.105,1.188-0.84c-0.315-0.732-0.524-1.572,0.07-1.887
			s1.712-0.594,2.167,0.141c0.454,0.733,1.083,0.943,0.559,1.572c-0.524,0.629-1.188,0.314-1.467,0.594
			c-0.28,0.279-0.385,0.909,0.104,0.944c0.49,0.034,1.503-1.049,1.992-0.698c0.49,0.348,0.838,0.488,0.943,1.257
			s0.105,1.259-0.069,1.397c-0.175,0.141-0.088,0.438-1.102,0.542s-1.258-0.733-1.643,0c-0.385,0.734-0.07,1.153-0.21,1.783
			c-0.14,0.628,0.035,1.222-1.013,1.292C84.982,216.176,83.27,215.827,83.41,214.639z M86.144,226.883
			c0.278-0.457,1.637-1.225,2.194-0.311c0.256,0.421,0.396,1.057,0.456,1.385c0.087,0.47,0.314,0.55,0.771,0.615
			c2.007,0.283-0.131,4.625-1.432,1.383c-0.298-0.742-0.124-0.848-0.456-0.779c-0.426,0.088-0.877-0.025-1.24-0.245
			C85.643,228.451,85.874,227.325,86.144,226.883z M91.409,204.947c0.245-1.014,1.381-1.101,2.219-0.873
			c0.839,0.227,0.752,0.717,1.467,0.891c0.717,0.174,2.132,1.328,2.184,2.535c0.053,1.205-1.834,1.729-2.743,1.537
			c-0.909-0.192-0.909-1.032-1.521-1.695c-0.612-0.664-1.258-0.332-1.502-1.136C91.514,206.206,91.165,205.961,91.409,204.947z
			 M90.915,200.864c0.349-0.454-0.56-0.839-0.56-1.781c0-0.944,0.455-0.805-0.139-1.749c-0.595-0.943,0.139-1.292,0.489-2.201
			c0.35-0.908,1.329-0.244,1.887,0.14c0.559,0.385,0.35-0.209,1.259-0.594c0.558-0.235,3.813-0.255,3.739,2.624
			c-0.011,0.427,2.087-0.104,1.517-2.496c-0.182-0.763-0.926-1.529-0.818-2.016c0.35-1.572,1.119-1.258,2.097-0.698
			c0.979,0.559,1.119,1.259,1.119,3.354c0,2.098-1.434,1.469-2.202,3.146c-0.7,1.468,0.733,2.098-1.154,3.425
			c-1.887,1.328-3.076,0-3.391-0.908c-0.313-0.909,1.05-1.607,1.749-2.307s-0.385-0.77-1.258-1.014
			c-0.874-0.244-1.958-0.979-2.446-0.873c-0.49,0.104,0.209,1.082,0.489,2.341s-0.699,0.979-1.224,1.888
			c-0.523,0.908,0,1.746-0.628,2.48c-0.927,1.082-4.008,0.324-2.901-2.446C88.817,200.48,90.565,201.318,90.915,200.864z
			 M80.14,193.537c1.188,0,1.257-0.384,1.327-1.922c0.07-1.537,1.643-1.117,2.272-1.503c0.628-0.384,0.908-1.153,0.733-2.307
			s-0.525-1.397-0.035-2.166c0.489-0.769,1.642-0.733,2.132-0.455c0.489,0.28,1.643,0.28,1.223,2.097
			c-0.419,1.818-1.014,1.398-1.083,2.342c-0.069,0.943,1.922,1.118,2.202,1.573c0.28,0.454-0.28,1.257-1.502,1.468
			c-1.224,0.209-1.293-0.734-1.608-0.105c-0.314,0.63,0.839,1.119,1.224,2.132c0.385,1.014-1.224,0.245-1.119,1.327
			c0.105,1.084,1.992,1.469,2.656,2.482s-0.035,1.817-1.188,2.307c-1.152,0.489-2.341-0.524-3.145-1.363
			c-0.804-0.838-0.07-1.712-0.804-2.307c-0.735-0.594-1.293,0.56-2.587,0.21C78.927,196.83,78.067,193.537,80.14,193.537z
			 M66.979,197.039c1.773-0.699-0.892-2.229-0.481-3.02c0.489-0.944,1.433-0.7,2.551-0.211c1.118,0.489,2.342,1.119,3.285,1.084
			c0.944-0.035,0.875-1.363,0.455-1.713c-0.419-0.35-1.433,0.629-2.027-0.209c-0.594-0.839,0.21-1.363,1.049-1.992
			c0.838-0.629,2.307,1.049,2.936,1.049c0.629,0,0.559-0.56,0.769-1.818c0.209-1.258,0.629-1.607,1.817-1.398
			c1.188,0.211,2.237,1.957,2.237,3.355s-0.769,1.748-1.398,2.517c-0.629,0.769-0.419,2.097-1.538,2.796
			c-1.118,0.699-2.097-0.699-3.844-0.699s-1.188,1.678-2.516,2.377C66.959,200.898,63.315,198.484,66.979,197.039z M65.654,222.936
			c0.133,1.533-1.38,2.406-0.771,3.605c0.561,1.104,1.741,2.035,1.182,3.211c-0.568,1.191-3.304,0.309-3.932-0.4
			c-0.385-0.438-0.779-0.857-1.421-0.959c-7.046-1.123-5.954-6.934-0.255-3.547c2.464,1.464,1.33-1.669,2.827-2.672
			C64.049,221.662,65.576,222.03,65.654,222.936z M57.12,207.633c0-2.955,2.646-0.647,1.935-4.137
			c-0.14-0.688,1.135-0.27,1.534-0.953c0.582-0.997-1.211-3.529,1.249-3.773c2.82-0.28,1.752,3.654,1.765,3.688
			c0.299,0.79,1.89,1.292,0.018,3.537c-0.362,0.435-0.93,0.099-1.547,0.055c-2.858-0.203-0.571,1.316-1.445,3.048
			c-0.35,0.694,1.769,1.564,1.04,3.03c-0.396,0.801-3.035,1.413-2.922-0.444C58.92,208.792,57.12,209.533,57.12,207.633z
			 M54.536,215.338c3.91,0.113,2.063-2.637,4.907-1.961c1.978,0.469,0.234,2.798,2.107,2.504c3.723-0.585,4.245,0.998,2.899,2.54
			c-1.383,1.581-3.957-0.874-7.219,0.251C53.671,219.898,52.8,215.288,54.536,215.338z M55.185,254.434
			c-0.79,0.09,0.087-1.498-0.455-2.001c-0.545-0.503-1.932,0.175-2.074-0.243c0.152-0.478,0.543-0.336,0.478-0.792
			c-0.125-0.874,0.786-0.894,1.231-0.218c0.442,0.58,1.229,0.041,1.323,0.872C55.72,252.33,56.05,254.413,55.185,254.434z
			 M59.316,259.395c-0.25,0.526-1.459,0.137-1.736-0.178c-0.171-0.193-0.342-0.414-0.628-0.424
			c-0.829-0.027-0.784-1.698-0.113-1.566c1.09,0.215,0.587-0.737,1.249-1.18c0.338-0.227,1.012-0.063,1.047,0.336
			c0.059,0.678-0.61,1.063-0.341,1.594C59.042,258.463,59.564,258.875,59.316,259.395z M60.803,250.435
			c-0.237,0.499-1.385,0.129-1.647-0.168c-0.162-0.183-0.324-0.393-0.597-0.401c-0.6-0.021-1.265-1.811-1.983-2.34
			c-0.372-0.274-0.961,0.805-1.136,0.498c-0.551-0.965,0.472-1.85,1.091-1.674c0.981,0.279,1.769,2.514,2.448,2.808
			c0.774,0.335,0.493-1.788,0.659-1.9c0.321-0.215,0.961-0.06,0.995,0.319c0.056,0.643-0.579,1.01-0.324,1.512
			C60.543,249.551,61.038,249.941,60.803,250.435z M61.119,238.705c-0.158,0.127-0.079,0.396-0.992,0.489
			c-0.915,0.095-1.135-0.661-1.481,0c-0.347,0.661-0.063,1.04-0.189,1.607s0.031,1.104-0.914,1.167
			c-0.946,0.063-2.49-0.252-2.364-1.324c0.126-1.071,0.788-0.883,0.221-1.387c-0.568-0.504-1.167,0.189-1.544-0.662
			c-0.378-0.851,0.126-1.449-0.536-1.67c-0.662-0.221-1.829,0.157-2.048-0.315c-0.072-0.153-0.137-0.315-0.184-0.491v-1.21
			c0.008-0.031,0.016-0.063,0.026-0.095c0.472-1.619-0.554-1.869-1.053-3.48c-0.33-1.066,0.055-2.043,1.072-1.229
			c0.282,0.227,0.249,0.592,0.706,1.131c0.347,0.41,0.047,1.451,0.3,1.86c0.252,0.409,0.662,0.283,1.007,0.851
			c0.347,0.566-0.252,0.914,0.568,1.197c0.819,0.284,0.63-0.125,1.292,0.348c0.662,0.473,0.378,0.883,1.166,0.977
			c0.788,0.095,1.355-0.094,1.072-0.756c-0.284-0.663-0.473-1.418,0.063-1.703c0.536-0.283,1.544-0.535,1.954,0.127
			c0.41,0.661,0.977,0.85,0.504,1.418c-0.473,0.566-1.072,0.284-1.324,0.536c-0.252,0.251-0.347,0.818,0.095,0.851
			c0.44,0.031,1.354-0.945,1.796-0.63c0.441,0.315,0.756,0.44,0.851,1.134C61.276,238.139,61.277,238.58,61.119,238.705z
			 M64.758,233.017c0.895,0.772-0.197,2.229,1.144,2.474c2.529,0.461,1.12,4.027-0.896,3.231c-1.006-0.397-1.515-0.806-1.022-1.964
			c0.495-1.166-0.694-1.368-1.54-1.643C60.412,234.457,62.626,231.176,64.758,233.017z M63.347,243.277
			c-0.195-1.039,0.941-0.85,1.11-0.649c0.172,0.202,0.024,0.72,0.149,0.923s0.329,0.141,0.501,0.422
			c0.172,0.283-0.125,0.455,0.282,0.596s0.313-0.063,0.641,0.172c0.329,0.234,0.188,0.438,0.58,0.484
			c0.391,0.049,0.673-0.046,0.532-0.375c-0.141-0.328-0.235-0.705,0.031-0.846c0.266-0.14,0.767-0.266,0.971,0.063
			c0.203,0.329,0.485,0.423,0.25,0.704c-0.234,0.281-0.532,0.141-0.657,0.267c-0.125,0.124-0.172,0.407,0.047,0.422
			c0.219,0.016,0.673-0.47,0.892-0.313c0.219,0.157,0.376,0.219,0.423,0.564c0.047,0.344,0.047,0.563-0.032,0.625
			c-0.078,0.063-0.039,0.196-0.493,0.243c-0.454,0.047-0.563-0.329-0.735,0c-0.173,0.329-0.032,0.517-0.094,0.798
			c-0.063,0.281,0.015,0.548-0.454,0.578c-0.47,0.033-1.237-0.125-1.175-0.656c0.063-0.533,0.392-0.438,0.11-0.688
			c-0.282-0.25-0.579,0.094-0.767-0.329s0.063-0.72-0.266-0.83c-0.329-0.108-0.908,0.08-1.018-0.155
			c-0.109-0.235-0.187-0.517-0.078-0.892c0.11-0.376,0.141-0.626-0.141-0.72C63.676,243.59,63.394,243.527,63.347,243.277z
			 M68.363,267.754c-0.011,0.181-0.111,0.303-0.466,0.366s-0.377-0.249-0.61-0.297s-0.132,0.218-0.318,0.381
			c-0.523,0.465-1.14-0.837-0.471-0.714c0.259,0.047,0.265,0.036,0.259-0.111c-0.005-0.149-0.09-0.165-0.116-0.398
			c-0.051-0.44,0.535-0.416,0.832-0.18c0.18,0.143,0.249,0.266,0.578,0.408C68.379,267.352,68.374,267.574,68.363,267.754z
			 M68.366,254.595c-0.286,0.601,0.3,0.858-0.472,1.401c-0.772,0.543-1.258-0.001-1.387-0.371c-0.129-0.373,0.429-0.658,0.714-0.945
			c0.287-0.285-0.157-0.313-0.514-0.414c-0.358-0.1-0.802-0.4-1.001-0.357c-0.2,0.043,0.086,0.443,0.2,0.957
			c0.115,0.516-0.286,0.401-0.5,0.773c-0.215,0.371,0,0.715-0.257,1.015c-0.38,0.442-1.641,0.133-1.188-1.001
			c0.115-0.285,0.83,0.059,0.972-0.129c0.143-0.185-0.229-0.343-0.229-0.729s0.186-0.329-0.057-0.715s0.057-0.529,0.2-0.9
			c0.143-0.372,0.544-0.1,0.772,0.057c0.229,0.157,0.143-0.086,0.515-0.242c0.229-0.098,1.562-0.105,1.53,1.073
			c-0.004,0.174,0.854-0.043,0.621-1.022c-0.075-0.311-0.379-0.625-0.335-0.824c0.143-0.643,0.458-0.515,0.857-0.285
			c0.401,0.229,0.458,0.514,0.458,1.372S68.68,253.908,68.366,254.595z M68.367,233.988c-0.705-0.023-0.877-0.31-0.993-0.824
			c-0.116-0.516,0.473-1.007,0.948-1.02c0.477-0.012,0.713,0.315,0.978,0.164c0.266-0.152,0.486-0.469,0.583-0.74
			c0.097-0.271,0.674-0.41,1.419-0.429c0.745-0.019,0.96,0.329,1.344,0.755c0.383,0.426,0.731,1.079,0.807,1.637
			c0.087,0.643,0.937,0.236,1.202,1.128c0.347,1.169-0.152,2.383-1.485,2.505c-0.62,0.057-0.945-0.515-1.303-0.734
			c-1.092-0.669-0.01-1.418,0.473-1.855c0.896-0.814-1.305-0.895-1.453-0.918c-0.812-0.125-0.382-0.342-0.596-0.627
			c-0.214-0.284-0.664-0.045-0.845,0.187C69.266,233.447,69.073,234.012,68.367,233.988z M72.559,240.664
			c-0.229,0.19-0.099,0.594-0.557,0.785c-0.781,0.326-1.392,0.033-1-0.969c0.137-0.351,0.091-0.48,0.374-0.703
			c0.282-0.221,0.923-0.205,1.16,0.009S72.788,240.473,72.559,240.664z M73.728,248.223c-0.164,0.219-3.692,1.36-3.692-0.008
			c0-0.491,0.18-0.84,0.779-0.663c0.414,0.122,1.376,0.811,1.637,0.343c0.613-1.096-0.891-0.531-1.34-0.979
			c-0.495-0.494,0.296-0.83,0.518-0.73c0.778,0.35,1.457,0.121,1.732-0.802c0.156-0.521-0.15-1.652,0.82-1.335
			c0.327,0.107,1.009,1.113,0.471,1.875c-0.441,0.621-0.508,1.319,0.505,0.895c0.37-0.156,0.491-0.66,1.227,0.158
			c0.258,0.285,0.166,1.141-0.335,1.243C74.83,248.467,74.567,247.093,73.728,248.223z M74.967,253.827
			c-0.636,0.563-1.382-1.017-0.572-0.868c0.315,0.059,0.321,0.045,0.315-0.135c-0.007-0.18-0.109-0.198-0.141-0.481
			c-0.061-0.534,0.648-0.504,1.008-0.218c0.219,0.173,0.302,0.32,0.701,0.494c0.397,0.174,0.391,0.443,0.378,0.662
			c-0.013,0.219-0.135,0.366-0.565,0.443c-0.43,0.076-0.456-0.303-0.739-0.36C75.07,253.307,75.192,253.627,74.967,253.827z
			 M77.687,262.115c-0.077,0.226-0.426,0.473-0.701,0.309c-0.259-0.232-0.237-0.564-0.69-0.41c-0.797,0.271,0.182-1.992,0.461-0.799
			c0.131,0.563,0.376,0.197,0.67,0.182C77.686,261.383,77.832,261.861,77.687,262.115z M78.123,245.474
			c-0.543-0.214-0.817-0.435-0.552-1.06c0.267-0.63-0.374-0.738-0.831-0.887c-1.096-0.354,0.099-2.126,1.249-1.133
			c0.484,0.417-0.106,1.203,0.618,1.335C79.971,243.979,79.21,245.902,78.123,245.474z M80.009,239.35
			c-1.984,0.676,0.454-4.953,1.146-1.985c0.326,1.399,0.934,0.489,1.667,0.45c0.642-0.033,1.007,1.154,0.645,1.787
			c-0.191,0.563-1.058,1.175-1.742,0.768C81.083,239.793,81.137,238.965,80.009,239.35z M84.406,247.131
			c-0.113-0.326,0.377-0.576,0.628-0.828s-0.138-0.276-0.452-0.364c-0.313-0.088-0.703-0.351-0.878-0.313s0.075,0.39,0.176,0.842
			c0.1,0.451-0.252,0.351-0.44,0.678c-0.188,0.325,0,0.626-0.226,0.891c-0.19,0.221-1.743,1.773-2.409,0.957
			c-0.105-0.128,0.599-0.361,1.326-0.623c0.353-0.127-0.021-1.057,0.042-1.213c0.101-0.251,0.728,0.05,0.854-0.113
			c0.125-0.163-0.201-0.301-0.201-0.64s0.163-0.289-0.05-0.628c-0.214-0.339,0.05-0.464,0.176-0.791
			c0.125-0.325,0.477-0.088,0.677,0.051c0.201,0.139,0.126-0.075,0.453-0.213c0.2-0.086,1.369-0.092,1.342,0.942
			c-0.004,0.153,0.75-0.038,0.545-0.896c-0.066-0.274-0.333-0.55-0.294-0.724c0.126-0.564,0.402-0.452,0.752-0.251
			c0.352,0.2,0.402,0.452,0.402,1.204c0,0.753-0.514,0.527-0.791,1.13c-0.251,0.527,0.264,0.753-0.414,1.229
			C84.946,247.935,84.519,247.457,84.406,247.131z M86.111,256.825c-0.55,0.014-1.475-0.165-1.378-0.469
			c0.096-0.304,0.345-0.214,0.303-0.503c-0.079-0.555,0.499-0.566,0.782-0.139c0.281,0.367,0.779,0.026,0.84,0.555
			C86.678,256.445,86.661,256.813,86.111,256.825z M91.06,252.386c-1.218,0.249-1.48-1.126-2.321,0.003
			c-0.163,0.219-3.691,1.36-3.691-0.008c0-0.49,0.179-0.84,0.779-0.662c0.413,0.121,1.376,0.811,1.637,0.342
			c0.612-1.096-0.892-0.53-1.34-0.979c-0.496-0.492,0.295-0.83,0.518-0.73c0.778,0.35,1.456,0.122,1.732-0.802
			c0.156-0.52-0.151-1.652,0.82-1.334c0.326,0.106,1.009,1.113,0.47,1.874c-0.441,0.621-0.507,1.32,0.506,0.895
			c0.369-0.156,0.491-0.66,1.226,0.158C91.651,251.428,91.56,252.283,91.06,252.386z M91.119,242.505
			c-0.329-0.021-0.861,0.521-1.623,0.181s-0.948-0.641-1.225-1.135c-0.277-0.492-0.521,0.069-1.156,0.006
			c-0.958-0.094-1.816-2.442,0.949-2.455c0.578-0.002,0.369,0.645,0.917,1.094c0.548,0.449,1.039-0.097,1.441-0.256
			c0.403-0.157,0.92-0.186,1.449,0.242s-0.176,1.083,0.299,1.404c0.474,0.319,0.819,0.094,1.545,0.659
			c0.726,0.564,0.192,1.148,0.033,1.364c-0.159,0.217-0.943,0.516-1.614,0.059C91.463,243.209,91.447,242.527,91.119,242.505z
			 M92.851,266.022c-0.311,0.008-0.833-0.095-0.777-0.265c0.054-0.172,0.194-0.121,0.171-0.284
			c-0.045-0.312,0.281-0.319,0.441-0.077c0.158,0.207,0.439,0.016,0.474,0.313C93.169,265.807,93.16,266.014,92.851,266.022z
			 M95.682,252.193c-0.229,0.19-0.099,0.594-0.557,0.785c-0.781,0.326-1.393,0.033-1-0.969c0.137-0.352,0.091-0.48,0.374-0.703
			c0.282-0.221,0.923-0.205,1.16,0.009S95.911,252.002,95.682,252.193z M92.989,247.718c0.035-0.176,0.479-0.893,1.506-0.761
			c0.462,0.061,0.409,0.724,0.916,0.937c0.82,0.344,2.144,0.274,2.305,0.306c0.443,0.08,0.452,0.063,0.443-0.19
			c-0.009-0.253-0.154-0.28-0.199-0.678c-0.085-0.751,0.912-0.709,1.418-0.308c0.307,0.244,0.425,0.452,0.985,0.696
			c0.56,0.244,0.551,0.622,0.533,0.931c-0.018,0.307-0.19,0.515-0.796,0.623c-0.604,0.108-0.7-1.078-1.097-1.16
			c-0.398-0.08-0.105,1.115-0.483,1.305c-0.813,0.406-0.938-0.309-2.295-0.476C94.499,248.73,92.896,248.187,92.989,247.718z
			 M99.051,270.861c-0.011,0.181-0.111,0.302-0.466,0.365c-0.356,0.064-0.377-0.248-0.61-0.297
			c-0.233-0.047-0.133,0.217-0.318,0.383c-0.525,0.463-1.141-0.839-0.472-0.717c0.26,0.049,0.265,0.037,0.26-0.11
			s-0.09-0.164-0.117-0.397c-0.05-0.441,0.535-0.416,0.833-0.18c0.18,0.143,0.248,0.264,0.577,0.407
			C99.067,270.459,99.062,270.682,99.051,270.861z M101.064,259.84c-0.613,0-0.432-0.298-0.609,0.154
			c-0.107,0.275-0.008,0.881-0.639,0.688c-0.322-0.1-0.498-0.561-0.772-0.195c-0.196,0.262-0.717,0.148-0.978,0.063
			c-0.368-0.122-0.173-0.866-0.18-0.835c0.12-0.532-0.167-0.626,0.487-0.967c0.329-0.171,0.027-1.003,0.395-0.989
			c0.253,0.008,0.433-0.032,0.55,0.215c0.294,0.623-0.048,1.228,0.139,1.361c0.17,0.121,0.368-0.275,0.938-0.029
			c0.141,0.062,0.259-0.615,0.396-0.678C101.661,258.237,101.599,259.84,101.064,259.84z M101.349,238.248
			c-0.665,1.646-2.178,0.573-1.684,1.77c0.269,0.65,0.577,1.938,0.238,2.62c-0.55,1.108-0.56,1.1-1.638,1.151
			c-1.006,0.045-1.709-0.741-1.709-1.499c0.285-0.315,0.491-2.458,1.228-2.543c1.223-0.142-0.442-1.659,0.087-2.715
			c0.416-0.827,2.374-0.754,3.133-0.394C101.795,237.018,101.664,237.471,101.349,238.248z M100.018,231.856
			c-0.672,1.409,0.705,2.013-1.108,3.29c-1.813,1.275-2.955-0.002-3.256-0.874c-0.302-0.872,1.006-1.544,1.678-2.216
			c0.672-0.671-0.369-0.738-1.208-0.973c-0.839-0.235-1.879-0.939-2.35-0.839c-0.469,0.1,0.202,1.04,0.471,2.249
			c0.268,1.209-0.672,0.939-1.175,1.813c-0.503,0.872,0,1.678-0.604,2.383c-0.891,1.039-3.849,0.311-2.786-2.35
			c0.268-0.672,1.946,0.135,2.282-0.303c0.336-0.436-0.537-0.805-0.537-1.711s0.437-0.773-0.134-1.678
			c-0.571-0.907,0.134-1.243,0.47-2.115c0.336-0.873,1.275-0.235,1.812,0.133c0.537,0.371,0.336-0.2,1.208-0.569
			c0.536-0.227,3.664-0.245,3.593,2.521c-0.011,0.41,2.004-0.101,1.457-2.397c-0.175-0.732-0.89-1.47-0.786-1.937
			c0.335-1.51,1.073-1.208,2.014-0.67c0.939,0.536,1.073,1.207,1.073,3.221C102.132,230.849,100.756,230.245,100.018,231.856z
			 M101.83,222.285c-0.581,0.12-1.196-0.035-1.69-0.334c-1.081-0.653-0.766-2.189-0.397-2.793c0.378-0.621,2.231-1.668,2.99-0.422
			c0.349,0.573,0.54,1.441,0.623,1.887c0.118,0.64,0.426,0.75,1.049,0.838c2.736,0.388-0.178,6.307-1.952,1.887
			C102.045,222.335,102.283,222.191,101.83,222.285z M105.002,255.691c-0.012,0.202-0.125,0.338-0.522,0.408
			c-0.397,0.072-0.421-0.277-0.682-0.331c-0.26-0.054-0.148,0.243-0.355,0.427c-0.587,0.52-1.275-0.938-0.528-0.8
			c0.291,0.054,0.296,0.041,0.291-0.125c-0.006-0.166-0.101-0.183-0.131-0.444c-0.056-0.492,0.598-0.465,0.931-0.201
			c0.201,0.16,0.278,0.297,0.646,0.457C105.019,255.242,105.013,255.49,105.002,255.691z M106.94,248.359
			c-0.359,0.889-1.175,0.309-0.909,0.953c0.145,0.354,0.311,1.049,0.128,1.416c-0.297,0.598-0.302,0.593-0.883,0.621
			c-0.543,0.024-0.923-0.4-0.923-0.809c0.154-0.17,0.265-1.327,0.663-1.373c0.66-0.076-0.239-0.896,0.047-1.465
			c0.224-0.446,1.28-0.406,1.69-0.211C107.181,247.695,107.11,247.939,106.94,248.359z M110.757,263.012
			c-0.311,0.007-0.832-0.094-0.778-0.266c0.055-0.17,0.195-0.119,0.171-0.283c-0.044-0.313,0.282-0.319,0.44-0.078
			c0.158,0.208,0.44,0.016,0.474,0.313C111.077,262.797,111.067,263.004,110.757,263.012z M110.872,240.513
			c-1.387,0-0.979-0.673-1.377,0.353c-0.242,0.622-0.017,1.989-1.446,1.553c-0.73-0.223-1.127-1.27-1.75-0.441
			c-0.444,0.592-1.623,0.336-2.212,0.141c-0.833-0.275-0.392-1.959-0.408-1.889c0.272-1.205-0.378-1.416,1.104-2.188
			c0.743-0.387,0.059-2.27,0.894-2.241c0.572,0.021,0.979-0.072,1.244,0.487c0.667,1.408-0.109,2.779,0.314,3.081
			c0.386,0.274,0.833-0.622,2.124-0.065c0.317,0.138,0.584-1.393,0.896-1.533C112.223,236.885,112.082,240.513,110.872,240.513z
			 M111.358,233.072c-2.208-0.49-2.74-1.063-3.353-0.449c-1.288,1.287-3.835-0.605-4.617-1.76c-1.61-2.379,0.642-4.455,2.163-3.475
			c1.84,1.186,1.708,2.138,3.181,2.506c1.471,0.368,1.399-0.42,2.381-0.42c2.792,0,3.158,0.922,3.042,1.919
			C114.038,232.421,113.365,233.519,111.358,233.072z M112.068,252.492c0.118-0.369,0.422-0.26,0.371-0.614
			c-0.096-0.677,0.61-0.692,0.956-0.168c0.342,0.449,0.952,0.032,1.025,0.676c0.025,0.216,0.004,0.663-0.667,0.681
			C113.08,253.082,111.951,252.863,112.068,252.492z M115.95,258.398c-0.011,0.18-0.111,0.302-0.466,0.365s-0.377-0.248-0.61-0.297
			c-0.233-0.047-0.132,0.217-0.318,0.383c-0.523,0.463-1.14-0.839-0.472-0.717c0.26,0.049,0.265,0.037,0.26-0.11
			c-0.005-0.149-0.09-0.165-0.116-0.397c-0.051-0.441,0.534-0.416,0.832-0.18c0.18,0.143,0.249,0.264,0.577,0.407
			C115.966,257.996,115.961,258.219,115.95,258.398z M117.581,245.178c-0.296,0.622-1.724,0.161-2.052-0.209
			c-0.201-0.228-0.403-0.49-0.742-0.5c-0.979-0.033-0.926-2.009-0.133-1.852c1.289,0.254,0.694-0.872,1.476-1.395
			c0.399-0.268,1.196-0.076,1.237,0.396c0.07,0.8-0.721,1.257-0.403,1.883C117.257,244.078,117.874,244.564,117.581,245.178z
			 M117.84,235.369c-0.326-0.422-0.813,0.033-1.561,0.422c-0.748,0.392-1.594,0.033-2.374-0.682
			c-0.781-0.717-0.325-1.496,0.325-2.113c0.651-0.619,2.96-0.716,3.675-0.229c0.715,0.488,0.162,1.268,0.553,1.105
			c0.273-0.113,1.876,0.037,1.983,0.846c0.07,1.029,0.184,0.962,1.215,0.973c1.242-0.054,2.453,3.146,0.217,4.199
			c-1.654,0.777-2.342-0.816-2.342-2.244c0-0.457-0.292-0.391-1.138-0.553C117.547,236.93,118.166,235.791,117.84,235.369z
			 M120.696,265.998c-0.515,0-0.364-0.25-0.512,0.131c-0.09,0.23-0.006,0.738-0.536,0.576c-0.271-0.082-0.418-0.471-0.65-0.163
			c-0.165,0.219-0.602,0.124-0.821,0.052c-0.31-0.103-0.146-0.728-0.152-0.701c0.101-0.447-0.14-0.526,0.41-0.813
			c0.276-0.144,0.022-0.842,0.332-0.832c0.212,0.008,0.363-0.026,0.462,0.181c0.247,0.522-0.041,1.032,0.116,1.145
			c0.144,0.103,0.31-0.231,0.788-0.024c0.119,0.051,0.218-0.518,0.334-0.569C121.198,264.65,121.145,265.998,120.696,265.998z
			 M122.088,257.465c-0.311,0.008-0.832-0.094-0.777-0.264c0.055-0.172,0.194-0.121,0.172-0.285c-0.045-0.313,0.28-0.318,0.44-0.077
			c0.157,0.207,0.44,0.015,0.474,0.312C122.408,257.25,122.397,257.457,122.088,257.465z M123.451,250.668
			c-0.611,0-0.432-0.297-0.607,0.154c-0.107,0.275-0.008,0.88-0.639,0.688c-0.323-0.1-0.498-0.562-0.773-0.195
			c-0.197,0.261-0.717,0.148-0.977,0.062c-0.369-0.122-0.174-0.865-0.181-0.835c0.12-0.531-0.167-0.625,0.487-0.966
			c0.328-0.17,0.026-1.002,0.395-0.989c0.253,0.008,0.433-0.031,0.55,0.215c0.294,0.622-0.05,1.229,0.139,1.361
			c0.17,0.121,0.367-0.274,0.938-0.029c0.142,0.061,0.259-0.615,0.396-0.677C124.049,249.065,123.986,250.668,123.451,250.668z
			 M121.98,227.691c-1.227,0.082-1.84-1.063-2.535-1.513c-2.125-1.374,0.049-2.799,1.021-3.64c1.813-1.563-2.53-1.828-2.82-1.881
			c-1.595-0.286-0.737-0.695-1.146-1.268s-1.309-0.122-1.676,0.326c-0.368,0.451-0.777,1.555-2.167,1.473
			c-1.391-0.082-1.717-0.653-1.922-1.676c-0.204-1.023,0.981-1.963,1.922-1.963c0.94,0,1.39,0.654,1.921,0.367
			c0.532-0.285,0.982-0.898,1.187-1.43c0.204-0.532,1.35-0.777,2.822-0.777c1.471,0,1.879,0.695,2.617,1.553
			c0.735,0.859,1.39,2.168,1.513,3.272c0.142,1.271,1.838,0.51,2.318,2.284C125.663,225.141,124.617,227.516,121.98,227.691z
			 M129.156,252.929c-0.869,0.022-2.326-0.261-2.172-0.739c0.151-0.478,0.542-0.336,0.477-0.792
			c-0.125-0.874,0.786-0.894,1.232-0.218c0.44,0.58,1.229,0.041,1.323,0.872C130.047,252.33,130.021,252.908,129.156,252.929z
			 M133.645,259.395c-0.25,0.526-1.459,0.137-1.736-0.178c-0.17-0.193-0.342-0.414-0.629-0.424
			c-0.828-0.027-0.783-1.698-0.112-1.566c1.091,0.215,0.588-0.737,1.249-1.18c0.338-0.227,1.014-0.063,1.048,0.336
			c0.058,0.678-0.61,1.063-0.342,1.594C133.37,258.463,133.892,258.875,133.645,259.395z M135.131,250.435
			c-0.237,0.499-1.385,0.129-1.648-0.168c-0.161-0.183-0.323-0.393-0.596-0.401c-0.786-0.027-0.744-1.613-0.106-1.488
			c1.034,0.205,0.558-0.699,1.185-1.12c0.322-0.215,0.961-0.06,0.994,0.319c0.057,0.643-0.578,1.01-0.323,1.512
			C134.871,249.551,135.366,249.941,135.131,250.435z M135.446,238.705c-0.157,0.127-0.078,0.396-0.993,0.489
			c-0.913,0.095-1.134-0.661-1.48,0c-0.346,0.661-0.063,1.04-0.189,1.607s0.032,1.104-0.914,1.167
			c-0.945,0.063-2.489-0.252-2.363-1.324c0.127-1.071,0.789-0.883,0.221-1.387c-0.566-0.504-1.166,0.189-1.545-0.662
			c-0.377-0.851,0.127-1.449-0.535-1.67s-1.827,0.157-2.049-0.315c-0.01-0.022-0.02-0.044-0.03-0.067v-2.24
			c0.04-0.219,0.047-0.405,0-0.557v-0.557c-0.933-0.373-1.603-1.482-0.151-3.209v0.96c0.346,0.046,0.643,0.17,0.749,0.296
			c0.347,0.41,0.048,1.451,0.3,1.86s0.662,0.283,1.009,0.851c0.347,0.566-0.252,0.914,0.566,1.197
			c0.819,0.284,0.631-0.125,1.292,0.348c0.662,0.473,0.379,0.883,1.167,0.977c0.788,0.095,1.354-0.094,1.071-0.756
			c-0.283-0.663-0.473-1.418,0.063-1.703c0.535-0.283,1.545-0.535,1.954,0.127c0.409,0.661,0.978,0.85,0.505,1.418
			c-0.473,0.566-1.072,0.284-1.324,0.536c-0.252,0.251-0.346,0.818,0.095,0.851c0.442,0.031,1.355-0.945,1.796-0.63
			c0.442,0.315,0.757,0.44,0.852,1.134C135.604,238.139,135.604,238.58,135.446,238.705z M139.086,233.017
			c0.896,0.772-0.196,2.229,1.145,2.474c2.529,0.461,1.118,4.027-0.896,3.231c-1.006-0.397-1.515-0.806-1.023-1.964
			c0.495-1.166-0.692-1.368-1.539-1.643C134.74,234.457,136.953,231.176,139.086,233.017z M137.674,243.277
			c-0.193-1.039,0.943-0.85,1.111-0.649c0.173,0.202,0.023,0.72,0.148,0.923c0.126,0.203,0.329,0.141,0.501,0.422
			c0.173,0.283-0.125,0.455,0.282,0.596c0.406,0.141,0.313-0.063,0.642,0.172s0.188,0.438,0.579,0.484
			c0.391,0.049,0.672-0.046,0.531-0.375c-0.141-0.328-0.234-0.705,0.031-0.846c0.267-0.14,0.768-0.266,0.971,0.063
			s0.484,0.423,0.25,0.704s-0.532,0.141-0.657,0.267c-0.125,0.124-0.172,0.407,0.047,0.422c0.22,0.016,0.674-0.47,0.893-0.313
			c0.22,0.157,0.375,0.219,0.422,0.564c0.047,0.344,0.047,0.563-0.03,0.625c-0.078,0.063-0.039,0.196-0.493,0.243
			s-0.563-0.329-0.735,0s-0.031,0.517-0.095,0.798c-0.062,0.281,0.017,0.548-0.454,0.578c-0.469,0.033-1.234-0.125-1.173-0.656
			c0.063-0.533,0.392-0.438,0.11-0.688c-0.282-0.25-0.579,0.094-0.768-0.329c-0.188-0.423,0.063-0.72-0.266-0.83
			c-0.328-0.108-0.908,0.08-1.018-0.155s-0.188-0.517-0.078-0.892c0.109-0.376,0.141-0.626-0.141-0.72
			C138.003,243.59,137.721,243.527,137.674,243.277z M142.691,267.754c-0.012,0.181-0.112,0.303-0.467,0.366
			c-0.355,0.063-0.376-0.249-0.609-0.297c-0.232-0.048-0.133,0.218-0.317,0.381c-0.524,0.465-1.141-0.837-0.472-0.714
			c0.26,0.047,0.265,0.036,0.26-0.111c-0.006-0.149-0.09-0.165-0.117-0.398c-0.05-0.44,0.535-0.416,0.832-0.18
			c0.18,0.143,0.248,0.266,0.578,0.408C142.707,267.352,142.701,267.574,142.691,267.754z M142.693,254.595
			c-0.286,0.601,0.301,0.858-0.473,1.401c-0.771,0.543-1.257-0.001-1.386-0.371c-0.129-0.373,0.429-0.658,0.715-0.945
			c0.286-0.285-0.157-0.313-0.515-0.414c-0.357-0.1-0.801-0.4-1.001-0.357s0.086,0.443,0.2,0.957
			c0.113,0.516-0.286,0.401-0.501,0.773c-0.214,0.371,0,0.715-0.257,1.015c-0.379,0.442-1.641,0.133-1.187-1.001
			c0.114-0.285,0.829,0.059,0.972-0.129c0.145-0.185-0.229-0.343-0.229-0.729s0.186-0.329-0.058-0.715s0.058-0.529,0.201-0.9
			c0.144-0.372,0.542-0.1,0.771,0.057c0.229,0.157,0.144-0.086,0.515-0.242c0.229-0.098,1.561-0.105,1.531,1.073
			c-0.006,0.174,0.854-0.043,0.619-1.022c-0.074-0.311-0.379-0.625-0.335-0.824c0.144-0.643,0.458-0.515,0.858-0.285
			c0.4,0.229,0.458,0.514,0.458,1.372S143.008,253.908,142.693,254.595z M142.695,233.988c-0.705-0.023-0.878-0.31-0.994-0.824
			c-0.117-0.516,0.473-1.007,0.949-1.02c0.476-0.012,0.711,0.315,0.978,0.164c0.265-0.152,0.485-0.469,0.583-0.74
			c0.097-0.271,0.674-0.41,1.418-0.429c0.746-0.019,0.962,0.329,1.345,0.755c0.384,0.426,0.73,1.079,0.807,1.637
			c0.088,0.643,0.937,0.236,1.202,1.128c0.348,1.169-0.152,2.383-1.486,2.505c-0.619,0.057-0.944-0.515-1.303-0.734
			c-1.092-0.669-0.01-1.418,0.473-1.855c0.898-0.814-1.304-0.895-1.451-0.918c-0.812-0.125-0.381-0.342-0.596-0.627
			c-0.215-0.284-0.664-0.045-0.846,0.187C143.594,233.447,143.4,234.012,142.695,233.988z M146.888,240.664
			c-0.229,0.19-0.101,0.594-0.558,0.785c-0.781,0.326-1.392,0.033-1-0.969c0.139-0.351,0.092-0.48,0.374-0.703
			c0.282-0.221,0.923-0.205,1.16,0.009C147.101,240,147.116,240.473,146.888,240.664z M148.055,248.223
			c-0.162,0.219-3.691,1.36-3.691-0.008c0-0.491,0.18-0.84,0.779-0.663c0.412,0.122,1.376,0.811,1.637,0.343
			c0.611-1.096-0.892-0.531-1.34-0.979c-0.496-0.494,0.295-0.83,0.518-0.73c0.777,0.35,1.455,0.121,1.732-0.802
			c0.156-0.521-0.151-1.652,0.819-1.335c0.325,0.107,1.01,1.113,0.47,1.875c-0.441,0.621-0.508,1.319,0.506,0.895
			c0.369-0.156,0.49-0.66,1.227,0.158c0.257,0.285,0.165,1.141-0.335,1.243C149.158,248.467,148.896,247.093,148.055,248.223z
			 M149.295,253.827c-0.635,0.563-1.383-1.017-0.572-0.868c0.314,0.059,0.322,0.045,0.314-0.135
			c-0.006-0.18-0.108-0.198-0.141-0.481c-0.061-0.534,0.648-0.504,1.009-0.218c0.218,0.173,0.302,0.32,0.7,0.494
			c0.397,0.174,0.391,0.443,0.379,0.662c-0.014,0.219-0.136,0.366-0.565,0.443c-0.431,0.076-0.456-0.303-0.739-0.36
			C149.397,253.307,149.52,253.627,149.295,253.827z M152.014,262.115c-0.075,0.226-0.424,0.473-0.699,0.309
			c-0.259-0.232-0.238-0.564-0.69-0.41c-0.798,0.271,0.183-1.992,0.461-0.799c0.132,0.563,0.376,0.197,0.671,0.182
			C152.014,261.383,152.16,261.861,152.014,262.115z M152.451,245.474c-0.543-0.214-0.818-0.435-0.552-1.06
			c0.267-0.63-0.374-0.738-0.831-0.887c-1.096-0.354,0.098-2.126,1.249-1.133c0.482,0.417-0.106,1.203,0.618,1.335
			C154.299,243.979,153.539,245.902,152.451,245.474z M154.338,239.35c-1.986,0.676,0.453-4.953,1.145-1.985
			c0.327,1.399,0.936,0.489,1.668,0.45c0.643-0.033,1.006,1.154,0.645,1.787c-0.189,0.563-1.058,1.175-1.741,0.768
			C155.41,239.793,155.464,238.965,154.338,239.35z M158.733,247.131c-0.112-0.326,0.377-0.576,0.628-0.828
			s-0.138-0.276-0.451-0.364c-0.314-0.088-0.703-0.351-0.879-0.313s0.076,0.39,0.176,0.842c0.101,0.451-0.251,0.351-0.439,0.678
			c-0.188,0.325,0,0.626-0.226,0.891c-0.19,0.221-1.743,1.773-2.41,0.957c-0.104-0.128,0.601-0.361,1.327-0.623
			c0.353-0.127-0.021-1.057,0.041-1.213c0.101-0.251,0.729,0.05,0.854-0.113s-0.201-0.301-0.201-0.64s0.164-0.289-0.051-0.628
			c-0.213-0.339,0.051-0.464,0.177-0.791c0.125-0.325,0.477-0.088,0.678,0.051c0.2,0.139,0.126-0.075,0.452-0.213
			c0.199-0.086,1.369-0.092,1.343,0.942c-0.004,0.153,0.749-0.038,0.545-0.896c-0.065-0.274-0.333-0.55-0.294-0.724
			c0.125-0.564,0.4-0.452,0.753-0.251c0.352,0.2,0.401,0.452,0.401,1.204c0,0.753-0.515,0.527-0.791,1.13
			c-0.25,0.527,0.264,0.753-0.414,1.229C159.273,247.935,158.847,247.457,158.733,247.131z M160.439,256.825
			c-0.551,0.014-1.475-0.165-1.379-0.469c0.097-0.304,0.345-0.214,0.304-0.503c-0.08-0.555,0.499-0.566,0.782-0.139
			c0.279,0.367,0.779,0.026,0.84,0.555C161.006,256.445,160.988,256.813,160.439,256.825z M165.387,252.386
			c-1.217,0.249-1.48-1.126-2.32,0.003c-0.164,0.219-3.691,1.36-3.691-0.008c0-0.49,0.178-0.84,0.777-0.662
			c0.414,0.121,1.377,0.811,1.639,0.342c0.611-1.096-0.891-0.53-1.342-0.979c-0.494-0.492,0.297-0.83,0.519-0.73
			c0.777,0.35,1.455,0.122,1.732-0.802c0.155-0.52-0.15-1.652,0.819-1.334c0.327,0.106,1.01,1.113,0.47,1.874
			c-0.439,0.621-0.507,1.32,0.506,0.895c0.369-0.156,0.491-0.66,1.227,0.158C165.979,251.428,165.887,252.283,165.387,252.386z
			 M165.447,242.505c-0.33-0.021-0.861,0.521-1.623,0.181s-0.948-0.641-1.225-1.135c-0.277-0.492-0.521,0.069-1.157,0.006
			c-0.956-0.094-1.815-2.442,0.948-2.455c0.578-0.002,0.37,0.645,0.918,1.094c0.549,0.449,1.039-0.097,1.441-0.256
			c0.402-0.157,0.921-0.186,1.451,0.242c0.528,0.428-0.177,1.083,0.297,1.404c0.475,0.319,0.82,0.094,1.546,0.659
			c0.727,0.564,0.192,1.148,0.032,1.364c-0.158,0.217-0.941,0.516-1.613,0.059C165.791,243.209,165.775,242.527,165.447,242.505z
			 M167.178,266.022c-0.311,0.008-0.831-0.095-0.777-0.265c0.055-0.172,0.195-0.121,0.172-0.284
			c-0.045-0.312,0.281-0.319,0.439-0.077c0.158,0.207,0.44,0.016,0.475,0.313C167.498,265.807,167.488,266.014,167.178,266.022z
			 M170.009,252.193c-0.229,0.19-0.099,0.594-0.557,0.785c-0.78,0.326-1.392,0.033-0.999-0.969c0.137-0.352,0.092-0.48,0.373-0.703
			c0.282-0.221,0.924-0.205,1.16,0.009S170.238,252.002,170.009,252.193z M167.316,247.718c0.035-0.176,0.479-0.893,1.506-0.761
			c0.463,0.061,0.41,0.724,0.917,0.937c0.818,0.344,2.144,0.274,2.305,0.306c0.442,0.08,0.451,0.063,0.442-0.19
			c-0.01-0.253-0.153-0.28-0.198-0.678c-0.086-0.751,0.911-0.709,1.417-0.308c0.309,0.244,0.426,0.452,0.984,0.696
			c0.561,0.244,0.551,0.622,0.533,0.931c-0.018,0.307-0.189,0.515-0.795,0.623c-0.604,0.108-0.7-1.078-1.098-1.16
			c-0.397-0.08-0.104,1.115-0.482,1.305c-0.813,0.406-0.938-0.309-2.295-0.476C168.828,248.73,167.223,248.187,167.316,247.718z
			 M173.379,270.861c-0.01,0.181-0.111,0.302-0.467,0.365c-0.354,0.064-0.376-0.248-0.607-0.297
			c-0.234-0.047-0.134,0.217-0.319,0.383c-0.524,0.463-1.141-0.839-0.472-0.717c0.26,0.049,0.266,0.037,0.26-0.11
			s-0.09-0.164-0.116-0.397c-0.05-0.441,0.534-0.416,0.831-0.18c0.181,0.143,0.25,0.264,0.578,0.407S173.39,270.682,173.379,270.861
			z M175.392,259.84c-0.612,0-0.432-0.298-0.607,0.154c-0.106,0.275-0.009,0.881-0.64,0.688c-0.322-0.1-0.497-0.561-0.773-0.195
			c-0.195,0.262-0.717,0.148-0.977,0.063c-0.367-0.122-0.172-0.866-0.181-0.835c0.12-0.532-0.165-0.626,0.487-0.967
			c0.328-0.171,0.027-1.003,0.396-0.989c0.253,0.008,0.432-0.032,0.55,0.215c0.294,0.623-0.049,1.228,0.138,1.361
			c0.171,0.121,0.368-0.275,0.938-0.029c0.141,0.062,0.258-0.615,0.396-0.678C175.989,258.237,175.926,259.84,175.392,259.84z
			 M175.678,238.248c-0.665,1.646-2.178,0.573-1.686,1.77c0.27,0.65,0.576,1.938,0.238,2.62c-0.55,1.108-0.561,1.1-1.639,1.151
			c-1.006,0.045-1.709-0.741-1.709-1.499c0.285-0.315,0.492-2.458,1.229-2.543c1.223-0.142-0.443-1.659,0.087-2.715
			c0.415-0.827,2.373-0.754,3.132-0.394C176.123,237.018,175.992,237.471,175.678,238.248z M174.346,231.856
			c-0.672,1.409,0.704,2.013-1.107,3.29c-1.813,1.275-2.955-0.002-3.256-0.874c-0.303-0.872,1.006-1.544,1.678-2.216
			c0.671-0.671-0.369-0.738-1.209-0.973c-0.839-0.235-1.88-0.939-2.35-0.839c-0.47,0.1,0.201,1.04,0.47,2.249
			s-0.671,0.939-1.175,1.813c-0.504,0.872,0,1.678-0.604,2.383c-0.891,1.039-3.85,0.311-2.787-2.35
			c0.27-0.672,1.947,0.135,2.283-0.303c0.336-0.436-0.537-0.805-0.537-1.711s0.437-0.773-0.135-1.678
			c-0.57-0.907,0.135-1.243,0.471-2.115c0.336-0.873,1.275-0.235,1.813,0.133c0.537,0.371,0.336-0.2,1.209-0.569
			c0.535-0.227,3.662-0.245,3.592,2.521c-0.01,0.41,2.005-0.101,1.457-2.397c-0.176-0.732-0.89-1.47-0.787-1.937
			c0.336-1.51,1.075-1.208,2.015-0.67c0.939,0.536,1.075,1.207,1.075,3.221C176.461,230.849,175.084,230.245,174.346,231.856z
			 M176.157,222.285c-0.579,0.12-1.195-0.035-1.69-0.334c-1.08-0.653-0.764-2.189-0.397-2.793c0.379-0.621,2.231-1.668,2.989-0.422
			c0.35,0.573,0.541,1.441,0.623,1.887c0.118,0.64,0.427,0.75,1.05,0.838c2.735,0.388-0.179,6.307-1.952,1.887
			C176.373,222.335,176.61,222.191,176.157,222.285z M179.329,255.691c-0.013,0.202-0.124,0.338-0.522,0.408
			c-0.396,0.072-0.419-0.277-0.68-0.331c-0.262-0.054-0.148,0.243-0.356,0.427c-0.585,0.52-1.275-0.938-0.526-0.8
			c0.289,0.054,0.296,0.041,0.289-0.125c-0.006-0.166-0.1-0.183-0.129-0.444c-0.057-0.492,0.598-0.465,0.93-0.201
			c0.201,0.16,0.278,0.297,0.646,0.457C179.348,255.242,179.342,255.49,179.329,255.691z M181.268,248.359
			c-0.357,0.889-1.175,0.309-0.908,0.953c0.145,0.354,0.311,1.049,0.129,1.416c-0.297,0.598-0.303,0.593-0.885,0.621
			c-0.543,0.024-0.922-0.4-0.922-0.809c0.154-0.17,0.265-1.327,0.662-1.373c0.659-0.076-0.238-0.896,0.047-1.465
			c0.223-0.446,1.281-0.406,1.689-0.211C181.508,247.695,181.438,247.939,181.268,248.359z M185.086,263.012
			c-0.311,0.007-0.833-0.094-0.777-0.266c0.053-0.17,0.193-0.119,0.17-0.283c-0.045-0.313,0.281-0.319,0.441-0.078
			c0.158,0.208,0.439,0.016,0.474,0.313C185.404,262.797,185.396,263.004,185.086,263.012z M185.199,240.513
			c-1.386,0-0.979-0.673-1.377,0.353c-0.242,0.622-0.018,1.989-1.446,1.553c-0.729-0.223-1.126-1.27-1.751-0.441
			c-0.443,0.592-1.621,0.336-2.211,0.141c-0.833-0.275-0.393-1.959-0.408-1.889c0.271-1.205-0.378-1.416,1.104-2.188
			c0.742-0.387,0.06-2.27,0.894-2.241c0.571,0.021,0.979-0.072,1.243,0.487c0.668,1.408-0.109,2.779,0.314,3.081
			c0.385,0.274,0.832-0.622,2.123-0.065c0.318,0.138,0.586-1.393,0.897-1.533C186.551,236.885,186.41,240.513,185.199,240.513z
			 M185.687,233.072c-2.208-0.49-2.739-1.063-3.354-0.449c-1.288,1.287-3.835-0.605-4.617-1.76c-1.61-2.379,0.643-4.455,2.164-3.475
			c1.839,1.186,1.708,2.138,3.18,2.506s1.399-0.42,2.381-0.42c2.793,0,3.157,0.922,3.044,1.919
			C188.365,232.421,187.693,233.519,185.687,233.072z M186.396,252.492c0.117-0.369,0.42-0.26,0.371-0.614
			c-0.098-0.677,0.608-0.692,0.954-0.168c0.343,0.449,0.952,0.032,1.026,0.676c0.023,0.216,0.003,0.663-0.666,0.681
			C187.406,253.082,186.278,252.863,186.396,252.492z M190.277,258.398c-0.01,0.18-0.111,0.302-0.466,0.365
			s-0.376-0.248-0.608-0.297c-0.234-0.047-0.133,0.217-0.318,0.383c-0.524,0.463-1.141-0.839-0.471-0.717
			c0.26,0.049,0.264,0.037,0.26-0.11c-0.006-0.149-0.09-0.165-0.117-0.397c-0.051-0.441,0.534-0.416,0.831-0.18
			c0.181,0.143,0.249,0.264,0.578,0.407C190.293,257.996,190.289,258.219,190.277,258.398z"/>
	</g>
	<path id="camisa_contorno" fill="none" d="M207.262,27.882c-0.11-0.063-0.223-0.122-0.337-0.177
		c-4.974-2.379-9.71-5.332-14.853-7.146c-4.645-1.638-11.449-2.698-17.28-4.717c-2.276-0.789-4.554-1.588-6.817-2.414l-0.004-0.03
		l-9.994-4.078l-0.176-0.072c-0.613-0.28-1.553-1.207-2.511-1.888c-0.493-0.369-0.612-0.563-1.038-0.905
		c-2.854-2.298-5.604-5.632-9.569-5.639c-0.901-0.002-1.04-0.123-1.778-0.163l-7.598-0.17c-5.891-0.486-12.051-0.501-18.053-0.477
		c-5.085,0.02-9.553,0.063-14.561,0.477c-2.528,0.209-4.994,0.029-7.597,0.17c-0.739,0.04-0.877,0.161-1.778,0.163
		c-3.966,0.006-6.715,3.341-9.571,5.639c-0.424,0.342-0.543,0.536-1.037,0.905c-0.741,0.527-1.47,1.2-2.046,1.607
		c-0.17,0.121-0.326,0.218-0.465,0.281l-10.17,4.15l-0.003,0.03c-2.264,0.825-4.542,1.625-6.818,2.414
		c-5.832,2.02-12.636,3.079-17.281,4.717c-5.142,1.814-9.879,4.767-14.852,7.146c-0.212,0.101-0.412,0.215-0.604,0.339
		c-0.909,0.583-1.664,1.378-2.65,2C16.563,37.141,9.585,57.5,6.428,69.243C4.86,75.08,4.449,82.221,3.46,88.275
		c-0.5,3.066-1.171,6.19-1.751,9.25c-0.585,3.094-0.872,6.49-1.288,9.627c-0.406,0.268-0.327-0.023-0.308,0.898l-0.065,1.854v8.779
		c0.041,1.018,0.102,1.812,0.186,2.163c1.125,0.477,3.705,0.514,5.068,0.711c7.659,1.114,9.038,0.828,15.785,1.554l21.538,1.348
		c-0.015-1.622,0.547-10.72,0.578-13.418l-0.603-0.316l-0.07-0.036c0-4.474-0.011-9.222-0.011-13.694
		c1.677,4.245,3.327,18.936,3.788,24.013c0.734,8.113,1.825,16.18,2.511,24.337c0.348,4.135,0.874,8.265,1.009,12.414l0.653,12.771
		c0.396,4.197,0.208,8.931,0.273,13.174c0.032,2.061,0.194,4.006,0.186,6.127c-0.007,2.226-0.172,4.348-0.196,6.51
		c-0.051,4.467-0.054,8.631-0.319,13.105c-0.68,11.471-1.256,26.065-3.266,37.005c-0.966,5.405-2.176,11.938-2.753,17.382
		c-0.258,2.432-0.827,10.053-1.467,11.946c-0.68,2.009-0.163,3.656-0.568,5.768c-0.342,1.784-0.742,3.811-1.164,5.565
		c-0.463,1.93-1.435,3.646,0.397,4.964c4.274,1.054,8.548,2.107,13.907,3.017c5.358,0.908,11.799,1.671,18.022,2.047
		c6.224,0.375,12.227,0.362,21.559,0.476c9.331,0.112,21.99,0.351,32.51,0.382c10.521,0.031,18.901-0.145,26.231-0.419
		s13.609-0.649,19.05-1.15s10.044-1.126,13.823-1.872c3.778-0.746,6.733-1.613,9.689-2.479c1.831-1.318,0.859-3.034,0.396-4.964
		c-0.422-1.755-0.822-3.781-1.164-5.565c-0.404-2.111,0.112-3.759-0.567-5.768c-0.641-1.894-1.21-9.515-1.468-11.946
		c-0.576-5.443-1.787-11.977-2.752-17.382c-2.01-10.939-2.586-25.534-3.266-37.005c-0.266-4.475-0.269-8.639-0.319-13.105
		c-0.024-2.162-0.188-4.284-0.196-6.51c-0.008-2.121,0.154-4.066,0.187-6.127c0.065-4.243-0.122-8.977,0.273-13.174l0.653-12.771
		c0.135-4.148,0.66-8.278,1.008-12.414c0.686-8.158,1.777-16.225,2.512-24.337c0.461-5.077,1.888-19.035,3.566-23.28
		c0,4.472-0.105,8.581-0.105,13.055l0,0l-0.416,0.247c-0.004,0.881,0.338,12.086,0.604,13.417l21.57-1.335
		c6.748-0.726,8.126-0.44,15.785-1.554c1.363-0.198,3.943-0.235,5.068-0.711c0.084-0.351,0.145-1.146,0.186-2.163v-8.779
		l-0.065-1.854c0.015-0.687,0.062-0.7-0.083-0.773c-0.05-0.025-0.121-0.057-0.225-0.125c-0.416-3.137-0.703-6.533-1.287-9.627
		c-0.58-3.059-1.252-6.184-1.752-9.25c-0.988-6.054-1.399-13.195-2.968-19.032c-3.156-11.743-10.134-32.103-21.392-39.199
		C209.123,29.38,208.285,28.469,207.262,27.882z"/>
</g>
</svg>
