<?xml version="1.0" encoding="UTF-8"?>
<!DOCTYPE svg PUBLIC "-//W3C//DTD SVG 1.1//EN" "http://www.w3.org/Graphics/SVG/1.1/DTD/svg11.dtd">
<!-- Creator: CorelDRAW -->
<svg xmlns="http://www.w3.org/2000/svg" xml:space="preserve" width="240px" height="296px" version="1.1" shape-rendering="geometricPrecision" text-rendering="geometricPrecision" image-rendering="optimizeQuality" fill-rule="evenodd" clip-rule="evenodd"
viewBox="0 0 240 296.307"
 xmlns:xlink="http://www.w3.org/1999/xlink"
 xmlns:xodm="http://www.corel.com/coreldraw/odm/2003">
 <defs>
   <clipPath id="id0">
    <path d="M136.796 295.988c2.461,-0.097 4.626,-0.225 7.017,-0.355 2.39,-0.131 5.006,-0.265 8.261,-0.493 3.256,-0.228 7.151,-0.55 10.471,-0.852 3.319,-0.302 6.061,-0.583 8.794,-0.949 2.732,-0.365 5.455,-0.814 7.654,-1.25 2.2,-0.436 3.876,-0.858 6.001,-1.331 2.126,-0.473 4.701,-0.996 6.595,-1.321 1.894,-0.325 3.108,-0.453 4.268,-0.536 1.16,-0.084 2.267,-0.124 3.155,-0.117 0.889,0.008 1.559,0.063 1.956,0.094 0.396,0.031 0.518,0.038 0.611,0.043 0.049,0.002 0.09,0.004 0.127,0.006 0.093,-0.07 0.162,-0.18 0.177,-0.779 0.016,-0.673 -0.037,-1.966 -0.106,-2.786 -0.069,-0.819 -0.154,-1.166 -0.285,-1.855 -0.131,-0.689 -0.307,-1.72 -0.651,-2.686 -0.345,-0.965 -0.858,-1.866 -1.476,-3.045 -0.619,-1.179 -1.343,-2.638 -1.783,-3.616 -0.44,-0.978 -0.596,-1.476 -0.848,-2.693 -0.251,-1.217 -0.598,-3.153 -0.953,-5.871 -0.354,-2.718 -0.716,-6.219 -1.038,-8.884 -0.322,-2.666 -0.603,-4.496 -1.081,-7.559 -0.478,-3.062 -1.152,-7.357 -1.71,-11.521 -0.558,-4.164 -1.001,-8.198 -1.348,-12.226 -0.347,-4.028 -0.598,-8.051 -0.759,-11.637 -0.161,-3.586 -0.231,-6.734 -0.287,-9.787 -0.055,-3.052 -0.095,-6.01 -0.156,-9.258 -0.06,-3.249 -0.14,-6.79 -0.108,-12.037 0.033,-5.248 0.179,-12.203 0.352,-17.466 0.174,-5.263 0.375,-8.834 0.652,-12.807 0.276,-3.973 0.628,-8.348 0.975,-12.271 0.347,-3.922 0.689,-7.393 1.122,-11.743 0.432,-4.35 0.955,-9.58 1.483,-13.99 0.528,-4.411 1.061,-8.002 1.512,-10.619 0.45,-2.618 0.817,-4.262 1.139,-5.308 0.321,-1.046 0.598,-1.494 0.803,-1.766 0.205,-0.271 0.338,-0.367 0.405,-0.414 0.066,-0.048 0.066,-0.048 0.049,0.598 -0.018,0.646 -0.053,1.939 -0.108,3.533 -0.056,1.594 -0.131,3.49 -0.173,4.967 -0.041,1.478 -0.049,2.536 -0.079,3.186 -0.03,0.65 -0.083,0.892 -0.102,1.011 -0.018,0.119 -0.003,0.117 -0.041,0.151 -0.038,0.034 -0.128,0.104 -0.133,0.68 -0.005,0.576 0.075,1.657 0.192,3.051 0.117,1.395 0.27,3.102 0.322,4.786 0.051,1.683 0.001,3.343 0.002,4.231 0,0.887 0.052,1.003 0.132,1.078 0.08,0.076 0.188,0.111 1.001,0.06 0.814,-0.051 2.333,-0.188 4.105,-0.324 1.773,-0.137 3.8,-0.273 5.955,-0.431 2.155,-0.158 4.438,-0.339 6.588,-0.463 2.15,-0.123 4.166,-0.188 5.992,-0.299 1.826,-0.111 3.46,-0.267 5.336,-0.47 1.876,-0.204 3.993,-0.455 6.015,-0.682 2.021,-0.226 3.947,-0.427 5.109,-0.565 1.162,-0.139 1.559,-0.214 1.758,-0.327 0.199,-0.113 0.199,-0.264 0.229,-0.906 0.03,-0.641 0.09,-1.772 0.108,-3.132 0.017,-1.361 -0.008,-2.95 -0.023,-4.429 -0.015,-1.478 -0.02,-2.846 -0.038,-3.724 -0.017,-0.877 -0.047,-1.264 -0.071,-1.469 -0.025,-0.205 -0.043,-0.227 -0.083,-0.294 -0.04,-0.068 -0.103,-0.181 -0.174,-0.682 -0.071,-0.5 -0.152,-1.388 -0.255,-2.32 -0.103,-0.933 -0.229,-1.911 -0.348,-2.739 -0.12,-0.827 -0.233,-1.504 -0.413,-2.544 -0.179,-1.042 -0.426,-2.447 -0.613,-3.449 -0.187,-1.002 -0.316,-1.601 -0.436,-2.27 -0.121,-0.668 -0.234,-1.408 -0.366,-2.121 -0.132,-0.713 -0.283,-1.399 -0.425,-2.156 -0.142,-0.757 -0.275,-1.584 -0.375,-2.322 -0.099,-0.738 -0.165,-1.387 -0.239,-2.029 -0.074,-0.643 -0.157,-1.279 -0.257,-2.036 -0.101,-0.757 -0.219,-1.634 -0.34,-2.526 -0.121,-0.891 -0.244,-1.796 -0.353,-2.565 -0.11,-0.768 -0.205,-1.399 -0.373,-2.344 -0.168,-0.945 -0.408,-2.203 -0.82,-4.085 -0.412,-1.881 -0.995,-4.386 -1.704,-6.89 -0.709,-2.505 -1.544,-5.009 -2.651,-7.745 -1.106,-2.736 -2.484,-5.703 -4.093,-8.851 -1.61,-3.149 -3.45,-6.478 -4.878,-8.781 -1.429,-2.304 -2.444,-3.581 -3.453,-4.629 -1.008,-1.049 -2.009,-1.869 -3.015,-2.608 -1.006,-0.739 -2.017,-1.398 -2.582,-1.773 -0.566,-0.375 -0.687,-0.465 -0.756,-0.571 -0.069,-0.105 -0.087,-0.226 -0.095,-0.303 -0.009,-0.077 -0.009,-0.109 -0.07,-0.174 -0.06,-0.066 -0.181,-0.164 -1.307,-0.714 -1.127,-0.551 -3.259,-1.555 -5.31,-2.603 -2.05,-1.048 -4.019,-2.142 -5.77,-2.976 -1.752,-0.833 -3.286,-1.407 -5.061,-1.957 -1.775,-0.551 -3.792,-1.079 -5.429,-1.507 -1.637,-0.427 -2.894,-0.754 -3.762,-1.008 -0.867,-0.254 -1.345,-0.435 -2.044,-0.7 -0.699,-0.266 -1.619,-0.615 -2.606,-0.909 -0.987,-0.295 -2.041,-0.533 -2.716,-0.687 -0.675,-0.153 -0.972,-0.221 -1.44,-0.471 -0.467,-0.25 -1.106,-0.683 -1.581,-0.937 -0.475,-0.254 -0.787,-0.329 -1.073,-0.365 -0.285,-0.035 -0.544,-0.03 -0.777,-0.03 -0.232,0 -0.438,-0.005 -1.342,-0.33 -0.904,-0.326 -2.506,-0.972 -4.026,-1.577 -1.52,-0.605 -2.959,-1.168 -4.404,-1.748 -1.446,-0.579 -2.9,-1.175 -3.816,-1.569 -0.917,-0.393 -1.297,-0.584 -1.594,-0.779 -0.298,-0.194 -0.514,-0.392 -0.705,-0.497 -0.191,-0.105 -0.356,-0.116 -0.467,-0.117 -0.11,0 -0.164,0.01 -0.251,-0.004 -0.086,-0.014 -0.204,-0.052 -0.587,-0.292 -0.382,-0.24 -1.028,-0.682 -1.678,-1.193 -0.65,-0.51 -1.304,-1.089 -1.956,-1.661 -0.653,-0.572 -1.304,-1.138 -2.311,-1.569 -1.007,-0.431 -2.37,-0.728 -3.723,-0.919 -1.353,-0.191 -2.695,-0.276 -4.576,-0.354 -1.881,-0.078 -4.3,-0.149 -7.931,-0.131 -3.631,0.017 -8.474,0.123 -12.914,0.219 -4.439,0.096 -8.475,0.183 -10.597,0.231 -2.123,0.048 -2.332,0.058 -4.152,0.203 -1.82,0.145 -5.249,0.427 -7.404,0.671 -2.155,0.244 -3.035,0.45 -3.752,0.707 -0.717,0.256 -1.27,0.563 -1.886,1.078 -0.616,0.516 -1.295,1.24 -2.019,1.877 -0.725,0.638 -1.494,1.189 -1.953,1.46 -0.459,0.272 -0.607,0.264 -0.901,0.366 -0.295,0.102 -0.735,0.313 -1.268,0.582 -0.533,0.269 -1.159,0.596 -1.919,0.922 -0.761,0.325 -1.656,0.65 -2.301,0.904 -0.645,0.254 -1.04,0.437 -1.514,0.628 -0.474,0.192 -1.027,0.39 -1.765,0.621 -0.738,0.232 -1.661,0.496 -2.558,0.836 -0.896,0.341 -1.766,0.759 -2.573,1.076 -0.808,0.316 -1.552,0.533 -2.299,0.749 -0.746,0.216 -1.496,0.432 -2.053,0.655 -0.557,0.222 -0.921,0.451 -1.207,0.636 -0.285,0.185 -0.491,0.326 -0.999,0.476 -0.508,0.15 -1.318,0.31 -1.914,0.463 -0.596,0.154 -0.978,0.301 -1.488,0.492 -0.51,0.192 -1.147,0.429 -1.75,0.617 -0.603,0.189 -1.171,0.329 -1.687,0.459 -0.516,0.13 -0.98,0.248 -1.7,0.426 -0.719,0.179 -1.693,0.418 -2.551,0.633 -0.857,0.216 -1.598,0.408 -2.171,0.57 -0.573,0.161 -0.979,0.292 -1.436,0.426 -0.456,0.134 -0.963,0.271 -1.427,0.4 -0.465,0.129 -0.887,0.249 -1.312,0.377 -0.424,0.128 -0.85,0.262 -1.203,0.399 -0.353,0.137 -0.632,0.277 -1.012,0.437 -0.38,0.159 -0.862,0.339 -1.279,0.53 -0.417,0.191 -0.769,0.394 -1.165,0.602 -0.397,0.209 -0.838,0.424 -1.221,0.617 -0.382,0.194 -0.705,0.366 -1.126,0.589 -0.421,0.223 -0.941,0.495 -1.657,0.865 -0.717,0.371 -1.631,0.838 -2.694,1.37 -1.063,0.532 -2.275,1.128 -3.18,1.576 -0.905,0.448 -1.504,0.747 -2.037,1.087 -0.533,0.341 -1.001,0.723 -1.443,1.08 -0.443,0.358 -0.86,0.689 -1.353,1.079 -0.493,0.39 -1.061,0.837 -1.779,1.475 -0.718,0.637 -1.586,1.465 -2.375,2.331 -0.79,0.866 -1.501,1.771 -2.145,2.665 -0.644,0.894 -1.22,1.777 -1.924,2.935 -0.704,1.158 -1.536,2.591 -2.208,3.821 -0.671,1.229 -1.181,2.255 -1.732,3.264 -0.551,1.008 -1.141,1.999 -1.644,2.942 -0.503,0.943 -0.918,1.838 -1.313,2.759 -0.395,0.922 -0.77,1.87 -1.152,2.756 -0.382,0.887 -0.772,1.712 -1.285,3.043 -0.513,1.331 -1.149,3.17 -1.716,4.911 -0.567,1.741 -1.065,3.386 -1.49,4.836 -0.425,1.451 -0.777,2.709 -1.129,4.225 -0.352,1.516 -0.704,3.291 -1.144,5.668 -0.44,2.376 -0.968,5.353 -1.29,7.073 -0.322,1.72 -0.438,2.183 -0.543,2.673 -0.106,0.491 -0.201,1.009 -0.4,1.833 -0.198,0.825 -0.5,1.957 -0.807,3.143 -0.307,1.187 -0.618,2.43 -0.84,3.478 -0.221,1.049 -0.352,1.904 -0.575,3.166 -0.224,1.262 -0.541,2.932 -0.787,4.297 -0.247,1.366 -0.423,2.427 -0.529,2.975 -0.105,0.548 -0.14,0.583 -0.204,0.634 -0.063,0.05 -0.155,0.115 -0.251,2.246 -0.096,2.13 -0.197,6.326 -0.275,8.622 -0.078,2.297 -0.133,2.694 0.035,2.902 0.169,0.209 0.561,0.229 1.419,0.337 0.857,0.108 2.18,0.305 4.51,0.755 2.332,0.45 5.671,1.154 8.339,1.667 2.668,0.513 4.664,0.835 6.751,1.182 2.088,0.347 4.265,0.719 7.24,1.192 2.975,0.472 6.746,1.046 9.15,1.373 2.404,0.327 3.44,0.407 3.958,0.447 0.518,0.041 0.518,0.041 0.568,-0.543 0.049,-0.583 0.149,-1.75 0.263,-2.759 0.114,-1.009 0.242,-1.86 0.394,-2.937 0.152,-1.077 0.328,-2.379 0.498,-3.576 0.17,-1.197 0.333,-2.289 0.417,-2.902 0.085,-0.614 0.089,-0.749 0.076,-0.865 -0.014,-0.116 -0.047,-0.211 -0.023,-1.818 0.024,-1.607 0.104,-4.725 0.147,-7.257 0.043,-2.532 0.048,-4.478 0.059,-5.601 0.011,-1.123 0.029,-1.422 0.067,-1.618 0.038,-0.197 0.095,-0.29 0.176,-0.338 0.08,-0.05 0.184,-0.055 0.308,0.038 0.124,0.094 0.27,0.285 0.345,0.376 0.074,0.092 0.076,0.085 0.078,0.081 0.001,-0.004 0.001,-0.004 0.115,0.253 0.114,0.256 0.343,0.769 0.597,1.463 0.254,0.694 0.533,1.569 0.762,2.507 0.229,0.938 0.408,1.939 0.607,3.547 0.2,1.608 0.422,3.823 0.739,6.228 0.316,2.406 0.729,5.001 1.468,11.393 0.739,6.392 1.805,16.58 2.64,24.511 0.835,7.931 1.439,13.604 1.811,19.699 0.372,6.095 0.513,12.613 0.503,19.654 -0.01,7.04 -0.171,14.604 -0.372,20.609 -0.202,6.004 -0.443,10.45 -0.725,14.423 -0.281,3.973 -0.603,7.473 -1.448,14.162 -0.845,6.688 -2.213,16.566 -3.007,23.777 -0.795,7.212 -1.016,11.758 -1.217,15.269 -0.202,3.51 -0.383,5.984 -0.674,8.122 -0.292,2.137 -0.694,3.937 -0.973,5.315 -0.279,1.378 -0.436,2.334 -0.453,2.935 -0.018,0.601 0.103,0.847 0.249,0.975 0.146,0.129 0.317,0.138 0.5,0.175 0.184,0.036 0.38,0.099 0.469,0.155 0.019,0.011 0.032,0.022 0.042,0.037 0.876,0.322 1.753,0.645 3.155,0.925 1.401,0.28 3.329,0.518 6.493,0.754 3.163,0.237 7.562,0.472 11.099,0.609 3.537,0.138 6.212,0.178 9.592,0.181 3.38,0.003 7.463,-0.03 11.329,-0.007 3.866,0.024 7.513,0.104 10.591,0.191 3.078,0.088 5.586,0.181 7.916,0.252 2.33,0.07 4.483,0.117 6.789,0.171 2.307,0.053 4.768,0.114 7.356,0.121 2.589,0.006 5.304,-0.041 8.04,-0.098 2.736,-0.057 5.492,-0.124 7.953,-0.221z"/>
   </clipPath>
    <clipPath id="id1">
     <path d="M197.737 96.303c0.032,-0.569 0.064,-1.138 -0.075,-1.761 -0.138,-0.623 -0.446,-1.3 -0.601,-1.639 -0.154,-0.338 -0.154,-0.338 -0.16,-0.59 -0.007,-0.251 -0.021,-0.754 0.221,-1.78 0.241,-1.026 0.737,-2.575 1.398,-4.644 0.66,-2.068 1.485,-4.656 2.313,-7.962 0.828,-3.306 1.66,-7.329 2.444,-13.19 0.785,-5.86 1.522,-13.558 2.347,-18.902 0.825,-5.345 1.737,-8.335 2.716,-11.172 0.793,-2.296 1.629,-4.491 2.474,-6.668l-0.007 -0.017 0 -0.001 -0.002 -0.007 -0.002 -0.005 -0.002 -0.005 -0.004 -0.013 -0.004 -0.013 -0.002 -0.006 -0.011 -0.048 -0.001 -0.002 -0.006 -0.032 -0.001 -0.008 0 -0.004 -0.001 -0.006 -0.001 -0.005 -0.001 -0.004 -0.001 -0.007 0 -0.005 -0.001 -0.007 -0.001 -0.004 -0.001 -0.009 0 -0.006c-0.009,-0.077 -0.009,-0.109 -0.07,-0.174 -0.06,-0.066 -0.181,-0.164 -1.307,-0.714 -1.127,-0.551 -3.259,-1.555 -5.31,-2.603 -2.05,-1.048 -4.019,-2.142 -5.77,-2.976 -1.752,-0.833 -3.286,-1.407 -5.061,-1.957 -1.775,-0.551 -3.792,-1.079 -5.429,-1.507 -1.637,-0.427 -2.894,-0.754 -3.762,-1.008 -0.867,-0.254 -1.345,-0.435 -2.044,-0.7 -0.699,-0.266 -1.619,-0.615 -2.606,-0.909 -0.987,-0.295 -2.041,-0.533 -2.716,-0.687 -0.675,-0.153 -0.972,-0.221 -1.44,-0.471 -0.467,-0.25 -1.106,-0.683 -1.581,-0.937 -0.475,-0.254 -0.787,-0.329 -1.073,-0.365 -0.285,-0.035 -0.544,-0.03 -0.777,-0.03 -0.232,0 -0.438,-0.005 -1.342,-0.33 -0.904,-0.326 -2.506,-0.972 -4.026,-1.577 -1.52,-0.605 -2.959,-1.168 -4.404,-1.748 -1.446,-0.579 -2.9,-1.175 -3.816,-1.569 -0.917,-0.393 -1.297,-0.584 -1.594,-0.779 -0.298,-0.194 -0.514,-0.392 -0.705,-0.497 -0.191,-0.105 -0.356,-0.116 -0.467,-0.117l-0.028 0 -0.006 0.001 -0.013 0 -0.005 0 -0.008 0 -0.005 0 -0.004 0 -0.004 0 -0.005 0 -0.007 0.001 -0.001 0 -0.007 0 -0.004 0 -0.001 0 -0.003 0 -0.004 0 -0.007 0.001 -0.004 0 -0.004 0 -0.006 0 -0.008 0 -0.008 0 -0.022 0 -0.009 0 -0.006 0 -0.001 0 -0.002 0 -0.004 0 -0.001 0 -0.007 -0.001 -0.001 0 -0.019 -0.001 -0.003 0 -0.012 -0.002 -0.008 -0.001 -0.014 -0.002c-0.086,-0.014 -0.204,-0.052 -0.587,-0.292 -0.382,-0.24 -1.028,-0.682 -1.678,-1.193 -0.65,-0.51 -1.304,-1.089 -1.956,-1.661 -0.653,-0.572 -1.304,-1.138 -2.311,-1.569 -1.007,-0.431 -2.37,-0.728 -3.723,-0.919 -1.353,-0.191 -2.695,-0.276 -4.576,-0.354 -1.881,-0.078 -4.3,-0.149 -7.931,-0.131 -3.631,0.017 -8.474,0.123 -12.914,0.219 -4.439,0.096 -8.475,0.183 -10.597,0.231 -2.123,0.048 -2.332,0.058 -4.152,0.203 -1.82,0.145 -5.249,0.427 -7.404,0.671 -2.155,0.244 -3.035,0.45 -3.752,0.707 -0.717,0.256 -1.27,0.563 -1.886,1.078 -0.616,0.516 -1.295,1.24 -2.019,1.877 -0.725,0.638 -1.494,1.189 -1.953,1.46l-0.056 0.033 -0.011 0.006 -0.02 0.011 -0.005 0.003 -0.013 0.008 -0.002 0.001 -0.008 0.004 0 0 -0.024 0.014 -0.003 0.001 -0.031 0.016 -0.002 0.002 -0.006 0.002 -0.001 0.002 -0.008 0.003 -0.021 0.011 -0.004 0.002 -0.005 0.003 -0.002 0.001 -0.006 0.003 -0.007 0.004 -0.003 0.001 -0.005 0.002 -0.001 0.001 -0.026 0.013 -0.051 0.024 -0.01 0.004 -0.041 0.018 -0.011 0.005 -0.02 0.008 -0.01 0.004 -0.034 0.013 -0.002 0.001 -0.025 0.009 -0.02 0.007 -0.031 0.011 -0.022 0.007 -0.018 0.006 -0.022 0.007 -0.015 0.004 -0.01 0.003 -0.039 0.012 -0.006 0.002 -0.051 0.014 -0.013 0.004 -0.006 0.002 -0.014 0.004 -0.065 0.019 -0.01 0.003 -0.033 0.011 -0.001 0 -0.022 0.007 -0.029 0.01c-0.295,0.102 -0.735,0.313 -1.268,0.582 -0.533,0.269 -1.159,0.596 -1.919,0.922 -0.761,0.325 -1.656,0.65 -2.301,0.904 -0.645,0.254 -1.04,0.437 -1.514,0.628 -0.474,0.192 -1.027,0.39 -1.765,0.621 -0.738,0.232 -1.661,0.496 -2.558,0.836 -0.896,0.341 -1.766,0.759 -2.573,1.076 -0.808,0.316 -1.552,0.533 -2.299,0.749 -0.746,0.216 -1.496,0.432 -2.053,0.655 -0.557,0.222 -0.921,0.451 -1.207,0.636 -0.285,0.185 -0.491,0.326 -0.999,0.476 -0.508,0.15 -1.318,0.31 -1.914,0.463 -0.596,0.154 -0.978,0.301 -1.488,0.492 -0.51,0.192 -1.147,0.429 -1.75,0.617 -0.603,0.189 -1.171,0.329 -1.687,0.459 -0.516,0.13 -0.98,0.248 -1.7,0.426 -0.719,0.179 -1.693,0.418 -2.551,0.633 -0.857,0.216 -1.598,0.408 -2.171,0.57 -0.573,0.161 -0.979,0.292 -1.436,0.426 -0.456,0.134 -0.963,0.271 -1.427,0.4 -0.465,0.129 -0.887,0.249 -1.312,0.377 -0.424,0.128 -0.85,0.262 -1.203,0.399 -0.353,0.137 -0.632,0.277 -1.012,0.437 -0.38,0.159 -0.862,0.339 -1.279,0.53 -0.417,0.191 -0.769,0.394 -1.165,0.602 -0.397,0.209 -0.838,0.424 -1.221,0.617 -0.382,0.194 -0.705,0.366 -1.126,0.589 -0.421,0.223 -0.941,0.495 -1.657,0.865 -0.717,0.371 -1.631,0.838 -2.694,1.37 -1.063,0.532 -2.275,1.128 -3.18,1.576 -0.905,0.448 -1.504,0.747 -2.037,1.087 -0.533,0.341 -1.001,0.723 -1.443,1.08l-0.01 0.008 -0.008 0.007 -0.023 0.019 -0.005 0.003 -0.009 0.007 -0.017 0.014 -0.007 0.006 -0.01 0.008 -0.034 0.027 -0.004 0.003 -0.009 0.007 -0.006 0.006 -0.012 0.01 -0.002 0.001 -0.022 0.017c0.046,0.197 0.1,0.412 0.167,0.649 0.328,1.174 0.946,2.898 1.737,5.811 0.792,2.914 1.757,7.018 2.522,10.974 0.764,3.956 1.327,7.765 1.971,12.15 0.644,4.386 1.368,9.348 2.24,13.927 0.872,4.58 1.891,8.778 2.843,12.104 0.952,3.326 1.837,5.78 2.266,7.426 0.429,1.646 0.402,2.484 0.362,3.011 -0.04,0.526 -0.094,0.741 -0.225,1.071 -0.132,0.331 -0.341,0.778 -0.551,1.225 0.08,-0.05 0.184,-0.055 0.308,0.038 0.124,0.094 0.27,0.285 0.345,0.376 0.074,0.092 0.076,0.085 0.078,0.081 0.001,-0.004 0.001,-0.004 0.115,0.253 0.114,0.256 0.343,0.769 0.597,1.463 0.254,0.694 0.533,1.569 0.762,2.507 0.229,0.938 0.408,1.939 0.607,3.547 0.2,1.608 0.422,3.823 0.739,6.228 0.316,2.406 0.729,5.001 1.468,11.393 0.739,6.392 1.805,16.58 2.64,24.511 0.835,7.931 1.439,13.604 1.811,19.699 0.372,6.095 0.513,12.613 0.503,19.654 -0.01,7.04 -0.171,14.604 -0.372,20.609 -0.202,6.004 -0.443,10.45 -0.725,14.423 -0.281,3.973 -0.603,7.473 -1.448,14.162 -0.845,6.688 -2.213,16.566 -3.007,23.777 -0.795,7.212 -1.016,11.758 -1.217,15.269 -0.202,3.51 -0.383,5.984 -0.674,8.122 -0.292,2.137 -0.694,3.937 -0.973,5.315 -0.279,1.378 -0.436,2.334 -0.453,2.935 -0.018,0.601 0.103,0.847 0.249,0.975 0.146,0.129 0.317,0.138 0.5,0.175 0.184,0.036 0.38,0.099 0.469,0.155 0.019,0.011 0.032,0.022 0.042,0.037 0.876,0.322 1.753,0.645 3.155,0.925 1.401,0.28 3.329,0.518 6.493,0.754 3.163,0.237 7.562,0.472 11.099,0.609 3.537,0.138 6.212,0.178 9.592,0.181 3.38,0.003 7.463,-0.03 11.329,-0.007 3.866,0.024 7.513,0.104 10.591,0.191 3.078,0.088 5.586,0.181 7.916,0.252 2.33,0.07 4.483,0.117 6.789,0.171 2.307,0.053 4.768,0.114 7.356,0.121 2.589,0.006 5.304,-0.041 8.04,-0.098 2.736,-0.057 5.492,-0.124 7.953,-0.221 2.461,-0.097 4.626,-0.225 7.017,-0.355 2.39,-0.131 5.006,-0.265 8.261,-0.493 3.256,-0.228 7.151,-0.55 10.471,-0.852 3.319,-0.302 6.061,-0.583 8.794,-0.949 2.732,-0.365 5.455,-0.814 7.654,-1.25 2.2,-0.436 3.876,-0.858 6.001,-1.331 2.126,-0.473 4.701,-0.996 6.595,-1.321 1.894,-0.325 3.108,-0.453 4.268,-0.536 1.16,-0.084 2.267,-0.124 3.155,-0.117 0.889,0.008 1.559,0.063 1.956,0.094 0.396,0.031 0.518,0.038 0.611,0.043 0.049,0.002 0.09,0.004 0.127,0.006 0.093,-0.07 0.162,-0.18 0.177,-0.779 0.016,-0.673 -0.037,-1.966 -0.106,-2.786 -0.069,-0.819 -0.154,-1.166 -0.285,-1.855 -0.131,-0.689 -0.307,-1.72 -0.651,-2.686 -0.345,-0.965 -0.858,-1.866 -1.476,-3.045 -0.619,-1.179 -1.343,-2.638 -1.783,-3.616 -0.44,-0.978 -0.596,-1.476 -0.848,-2.693 -0.251,-1.217 -0.598,-3.153 -0.953,-5.871 -0.354,-2.718 -0.716,-6.219 -1.038,-8.884 -0.322,-2.666 -0.603,-4.496 -1.081,-7.559 -0.478,-3.062 -1.152,-7.357 -1.71,-11.521 -0.558,-4.164 -1.001,-8.198 -1.348,-12.226 -0.347,-4.028 -0.598,-8.051 -0.759,-11.637 -0.161,-3.586 -0.231,-6.734 -0.287,-9.787 -0.055,-3.052 -0.095,-6.01 -0.156,-9.258 -0.06,-3.249 -0.14,-6.79 -0.108,-12.037 0.033,-5.248 0.179,-12.203 0.352,-17.466 0.174,-5.263 0.375,-8.834 0.652,-12.807 0.276,-3.973 0.628,-8.348 0.975,-12.271 0.347,-3.922 0.689,-7.393 1.122,-11.743 0.432,-4.35 0.955,-9.58 1.483,-13.99 0.528,-4.411 1.061,-8.002 1.512,-10.619 0.45,-2.618 0.817,-4.262 1.139,-5.308 0.321,-1.046 0.598,-1.494 0.803,-1.766 0.205,-0.271 0.338,-0.367 0.405,-0.414z"/>
    </clipPath>
    <clipPath id="id2">
     <path d="M136.796 295.988c2.461,-0.097 4.626,-0.225 7.017,-0.355 2.39,-0.131 5.006,-0.265 8.261,-0.493 3.256,-0.228 7.151,-0.55 10.471,-0.852 3.319,-0.302 6.061,-0.583 8.794,-0.949 2.732,-0.365 5.455,-0.814 7.654,-1.25 2.2,-0.436 3.876,-0.858 6.001,-1.331 2.126,-0.473 4.701,-0.996 6.595,-1.321 1.894,-0.325 3.108,-0.453 4.268,-0.536 1.16,-0.084 2.267,-0.124 3.155,-0.117 0.889,0.008 1.559,0.063 1.956,0.094 0.396,0.031 0.518,0.038 0.611,0.043 0.049,0.002 0.09,0.004 0.127,0.006 0.093,-0.07 0.162,-0.18 0.177,-0.779 0.016,-0.673 -0.037,-1.966 -0.106,-2.786 -0.069,-0.819 -0.154,-1.166 -0.285,-1.855 -0.131,-0.689 -0.307,-1.72 -0.651,-2.686 -0.345,-0.965 -0.858,-1.866 -1.476,-3.045 -0.619,-1.179 -1.343,-2.638 -1.783,-3.616 -0.44,-0.978 -0.596,-1.476 -0.848,-2.693 -0.251,-1.217 -0.598,-3.153 -0.953,-5.871 -0.354,-2.718 -0.716,-6.219 -1.038,-8.884 -0.322,-2.666 -0.603,-4.496 -1.081,-7.559 -0.478,-3.062 -1.152,-7.357 -1.71,-11.521 -0.558,-4.164 -1.001,-8.198 -1.348,-12.226 -0.347,-4.028 -0.598,-8.051 -0.759,-11.637 -0.161,-3.586 -0.231,-6.734 -0.287,-9.787 -0.055,-3.052 -0.095,-6.01 -0.156,-9.258 -0.06,-3.249 -0.14,-6.79 -0.108,-12.037 0.033,-5.248 0.179,-12.203 0.352,-17.466 0.174,-5.263 0.375,-8.834 0.652,-12.807 0.276,-3.973 0.628,-8.348 0.975,-12.271 0.347,-3.922 0.689,-7.393 1.122,-11.743 0.432,-4.35 0.955,-9.58 1.483,-13.99 0.528,-4.411 1.061,-8.002 1.512,-10.619 0.45,-2.618 0.817,-4.262 1.139,-5.308 0.321,-1.046 0.598,-1.494 0.803,-1.766 0.205,-0.271 0.338,-0.367 0.405,-0.414 0.066,-0.048 0.066,-0.048 0.049,0.598 -0.018,0.646 -0.053,1.939 -0.108,3.533 -0.056,1.594 -0.131,3.49 -0.173,4.967 -0.041,1.478 -0.049,2.536 -0.079,3.186 -0.03,0.65 -0.083,0.892 -0.102,1.011 -0.018,0.119 -0.003,0.117 -0.041,0.151 -0.038,0.034 -0.128,0.104 -0.133,0.68 -0.005,0.576 0.075,1.657 0.192,3.051 0.117,1.395 0.27,3.102 0.322,4.786 0.051,1.683 0.001,3.343 0.002,4.231 0,0.887 0.052,1.003 0.132,1.078 0.08,0.076 0.188,0.111 1.001,0.06 0.814,-0.051 2.333,-0.188 4.105,-0.324 1.773,-0.137 3.8,-0.273 5.955,-0.431 2.155,-0.158 4.438,-0.339 6.588,-0.463 2.15,-0.123 4.166,-0.188 5.992,-0.299 1.826,-0.111 3.46,-0.267 5.336,-0.47 1.876,-0.204 3.993,-0.455 6.015,-0.682 2.021,-0.226 3.947,-0.427 5.109,-0.565 1.162,-0.139 1.559,-0.214 1.758,-0.327 0.199,-0.113 0.199,-0.264 0.229,-0.906 0.03,-0.641 0.09,-1.772 0.108,-3.132 0.017,-1.361 -0.008,-2.95 -0.023,-4.429 -0.015,-1.478 -0.02,-2.846 -0.038,-3.724 -0.017,-0.877 -0.047,-1.264 -0.071,-1.469 -0.025,-0.205 -0.043,-0.227 -0.083,-0.294 -0.04,-0.068 -0.103,-0.181 -0.174,-0.682 -0.071,-0.5 -0.152,-1.388 -0.255,-2.32 -0.103,-0.933 -0.229,-1.911 -0.348,-2.739 -0.12,-0.827 -0.233,-1.504 -0.413,-2.544 -0.179,-1.042 -0.426,-2.447 -0.613,-3.449 -0.187,-1.002 -0.316,-1.601 -0.436,-2.27 -0.121,-0.668 -0.234,-1.408 -0.366,-2.121 -0.132,-0.713 -0.283,-1.399 -0.425,-2.156 -0.142,-0.757 -0.275,-1.584 -0.375,-2.322 -0.099,-0.738 -0.165,-1.387 -0.239,-2.029 -0.074,-0.643 -0.157,-1.279 -0.257,-2.036 -0.101,-0.757 -0.219,-1.634 -0.34,-2.526 -0.121,-0.891 -0.244,-1.796 -0.353,-2.565 -0.11,-0.768 -0.205,-1.399 -0.373,-2.344 -0.168,-0.945 -0.408,-2.203 -0.82,-4.085 -0.412,-1.881 -0.995,-4.386 -1.704,-6.89 -0.709,-2.505 -1.544,-5.009 -2.651,-7.745 -1.106,-2.736 -2.484,-5.703 -4.093,-8.851 -1.61,-3.149 -3.45,-6.478 -4.878,-8.781 -1.429,-2.304 -2.444,-3.581 -3.453,-4.629 -1.008,-1.049 -2.009,-1.869 -3.015,-2.608 -1.006,-0.739 -2.017,-1.398 -2.582,-1.773 -0.566,-0.375 -0.687,-0.465 -0.756,-0.571 -0.069,-0.105 -0.087,-0.226 -0.095,-0.303 -0.009,-0.077 -0.009,-0.109 -0.07,-0.174 -0.06,-0.066 -0.181,-0.164 -1.307,-0.714 -1.127,-0.551 -3.259,-1.555 -5.31,-2.603 -2.05,-1.048 -4.019,-2.142 -5.77,-2.976 -1.752,-0.833 -3.286,-1.407 -5.061,-1.957 -1.775,-0.551 -3.792,-1.079 -5.429,-1.507 -1.637,-0.427 -2.894,-0.754 -3.762,-1.008 -0.867,-0.254 -1.345,-0.435 -2.044,-0.7 -0.699,-0.266 -1.619,-0.615 -2.606,-0.909 -0.987,-0.295 -2.041,-0.533 -2.716,-0.687 -0.675,-0.153 -0.972,-0.221 -1.44,-0.471 -0.467,-0.25 -1.106,-0.683 -1.581,-0.937 -0.475,-0.254 -0.787,-0.329 -1.073,-0.365 -0.285,-0.035 -0.544,-0.03 -0.777,-0.03 -0.232,0 -0.438,-0.005 -1.342,-0.33 -0.904,-0.326 -2.506,-0.972 -4.026,-1.577 -1.52,-0.605 -2.959,-1.168 -4.404,-1.748 -1.446,-0.579 -2.9,-1.175 -3.816,-1.569 -0.917,-0.393 -1.297,-0.584 -1.594,-0.779 -0.298,-0.194 -0.514,-0.392 -0.705,-0.497 -0.191,-0.105 -0.356,-0.116 -0.467,-0.117 -0.11,0 -0.164,0.01 -0.251,-0.004 -0.086,-0.014 -0.204,-0.052 -0.587,-0.292 -0.382,-0.24 -1.028,-0.682 -1.678,-1.193 -0.65,-0.51 -1.304,-1.089 -1.956,-1.661 -0.653,-0.572 -1.304,-1.138 -2.311,-1.569 -1.007,-0.431 -2.37,-0.728 -3.723,-0.919 -1.353,-0.191 -2.695,-0.276 -4.576,-0.354 -1.881,-0.078 -4.3,-0.149 -7.931,-0.131 -3.631,0.017 -8.474,0.123 -12.914,0.219 -4.439,0.096 -8.475,0.183 -10.597,0.231 -2.123,0.048 -2.332,0.058 -4.152,0.203 -1.82,0.145 -5.249,0.427 -7.404,0.671 -2.155,0.244 -3.035,0.45 -3.752,0.707 -0.717,0.256 -1.27,0.563 -1.886,1.078 -0.616,0.516 -1.295,1.24 -2.019,1.877 -0.725,0.638 -1.494,1.189 -1.953,1.46 -0.459,0.272 -0.607,0.264 -0.901,0.366 -0.295,0.102 -0.735,0.313 -1.268,0.582 -0.533,0.269 -1.159,0.596 -1.919,0.922 -0.761,0.325 -1.656,0.65 -2.301,0.904 -0.645,0.254 -1.04,0.437 -1.514,0.628 -0.474,0.192 -1.027,0.39 -1.765,0.621 -0.738,0.232 -1.661,0.496 -2.558,0.836 -0.896,0.341 -1.766,0.759 -2.573,1.076 -0.808,0.316 -1.552,0.533 -2.299,0.749 -0.746,0.216 -1.496,0.432 -2.053,0.655 -0.557,0.222 -0.921,0.451 -1.207,0.636 -0.285,0.185 -0.491,0.326 -0.999,0.476 -0.508,0.15 -1.318,0.31 -1.914,0.463 -0.596,0.154 -0.978,0.301 -1.488,0.492 -0.51,0.192 -1.147,0.429 -1.75,0.617 -0.603,0.189 -1.171,0.329 -1.687,0.459 -0.516,0.13 -0.98,0.248 -1.7,0.426 -0.719,0.179 -1.693,0.418 -2.551,0.633 -0.857,0.216 -1.598,0.408 -2.171,0.57 -0.573,0.161 -0.979,0.292 -1.436,0.426 -0.456,0.134 -0.963,0.271 -1.427,0.4 -0.465,0.129 -0.887,0.249 -1.312,0.377 -0.424,0.128 -0.85,0.262 -1.203,0.399 -0.353,0.137 -0.632,0.277 -1.012,0.437 -0.38,0.159 -0.862,0.339 -1.279,0.53 -0.417,0.191 -0.769,0.394 -1.165,0.602 -0.397,0.209 -0.838,0.424 -1.221,0.617 -0.382,0.194 -0.705,0.366 -1.126,0.589 -0.421,0.223 -0.941,0.495 -1.657,0.865 -0.717,0.371 -1.631,0.838 -2.694,1.37 -1.063,0.532 -2.275,1.128 -3.18,1.576 -0.905,0.448 -1.504,0.747 -2.037,1.087 -0.533,0.341 -1.001,0.723 -1.443,1.08 -0.443,0.358 -0.86,0.689 -1.353,1.079 -0.493,0.39 -1.061,0.837 -1.779,1.475 -0.718,0.637 -1.586,1.465 -2.375,2.331 -0.79,0.866 -1.501,1.771 -2.145,2.665 -0.644,0.894 -1.22,1.777 -1.924,2.935 -0.704,1.158 -1.536,2.591 -2.208,3.821 -0.671,1.229 -1.181,2.255 -1.732,3.264 -0.551,1.008 -1.141,1.999 -1.644,2.942 -0.503,0.943 -0.918,1.838 -1.313,2.759 -0.395,0.922 -0.77,1.87 -1.152,2.756 -0.382,0.887 -0.772,1.712 -1.285,3.043 -0.513,1.331 -1.149,3.17 -1.716,4.911 -0.567,1.741 -1.065,3.386 -1.49,4.836 -0.425,1.451 -0.777,2.709 -1.129,4.225 -0.352,1.516 -0.704,3.291 -1.144,5.668 -0.44,2.376 -0.968,5.353 -1.29,7.073 -0.322,1.72 -0.438,2.183 -0.543,2.673 -0.106,0.491 -0.201,1.009 -0.4,1.833 -0.198,0.825 -0.5,1.957 -0.807,3.143 -0.307,1.187 -0.618,2.43 -0.84,3.478 -0.221,1.049 -0.352,1.904 -0.575,3.166 -0.224,1.262 -0.541,2.932 -0.787,4.297 -0.247,1.366 -0.423,2.427 -0.529,2.975 -0.105,0.548 -0.14,0.583 -0.204,0.634 -0.063,0.05 -0.155,0.115 -0.251,2.246 -0.096,2.13 -0.197,6.326 -0.275,8.622 -0.078,2.297 -0.133,2.694 0.035,2.902 0.169,0.209 0.561,0.229 1.419,0.337 0.857,0.108 2.18,0.305 4.51,0.755 2.332,0.45 5.671,1.154 8.339,1.667 2.668,0.513 4.664,0.835 6.751,1.182 2.088,0.347 4.265,0.719 7.24,1.192 2.975,0.472 6.746,1.046 9.15,1.373 2.404,0.327 3.44,0.407 3.958,0.447 0.518,0.041 0.518,0.041 0.568,-0.543 0.049,-0.583 0.149,-1.75 0.263,-2.759 0.114,-1.009 0.242,-1.86 0.394,-2.937 0.152,-1.077 0.328,-2.379 0.498,-3.576 0.17,-1.197 0.333,-2.289 0.417,-2.902 0.085,-0.614 0.089,-0.749 0.076,-0.865 -0.014,-0.116 -0.047,-0.211 -0.023,-1.818 0.024,-1.607 0.104,-4.725 0.147,-7.257 0.043,-2.532 0.048,-4.478 0.059,-5.601 0.011,-1.123 0.029,-1.422 0.067,-1.618 0.038,-0.197 0.095,-0.29 0.176,-0.338 0.08,-0.05 0.184,-0.055 0.308,0.038 0.124,0.094 0.27,0.285 0.345,0.376 0.074,0.092 0.076,0.085 0.078,0.081 0.001,-0.004 0.001,-0.004 0.115,0.253 0.114,0.256 0.343,0.769 0.597,1.463 0.254,0.694 0.533,1.569 0.762,2.507 0.229,0.938 0.408,1.939 0.607,3.547 0.2,1.608 0.422,3.823 0.739,6.228 0.316,2.406 0.729,5.001 1.468,11.393 0.739,6.392 1.805,16.58 2.64,24.511 0.835,7.931 1.439,13.604 1.811,19.699 0.372,6.095 0.513,12.613 0.503,19.654 -0.01,7.04 -0.171,14.604 -0.372,20.609 -0.202,6.004 -0.443,10.45 -0.725,14.423 -0.281,3.973 -0.603,7.473 -1.448,14.162 -0.845,6.688 -2.213,16.566 -3.007,23.777 -0.795,7.212 -1.016,11.758 -1.217,15.269 -0.202,3.51 -0.383,5.984 -0.674,8.122 -0.292,2.137 -0.694,3.937 -0.973,5.315 -0.279,1.378 -0.436,2.334 -0.453,2.935 -0.018,0.601 0.103,0.847 0.249,0.975 0.146,0.129 0.317,0.138 0.5,0.175 0.184,0.036 0.38,0.099 0.469,0.155 0.019,0.011 0.032,0.022 0.042,0.037 0.876,0.322 1.753,0.645 3.155,0.925 1.401,0.28 3.329,0.518 6.493,0.754 3.163,0.237 7.562,0.472 11.099,0.609 3.537,0.138 6.212,0.178 9.592,0.181 3.38,0.003 7.463,-0.03 11.329,-0.007 3.866,0.024 7.513,0.104 10.591,0.191 3.078,0.088 5.586,0.181 7.916,0.252 2.33,0.07 4.483,0.117 6.789,0.171 2.307,0.053 4.768,0.114 7.356,0.121 2.589,0.006 5.304,-0.041 8.04,-0.098 2.736,-0.057 5.492,-0.124 7.953,-0.221z"/>
    </clipPath>
    <clipPath id="id3">
     <path d="M44.533 92.099c-0.429,-1.646 -1.314,-4.1 -2.266,-7.426 -0.952,-3.326 -1.971,-7.524 -2.843,-12.104 -0.872,-4.579 -1.596,-9.541 -2.24,-13.927 -0.644,-4.385 -1.207,-8.194 -1.971,-12.15 -0.765,-3.956 -1.73,-8.06 -2.522,-10.974 -0.791,-2.913 -1.409,-4.637 -1.737,-5.811 -0.067,-0.237 -0.121,-0.452 -0.167,-0.649l-0.108 0.087 -0.019 0.015 -0.307 0.246 -0.02 0.016 -0.078 0.062 -0.021 0.017 -0.171 0.135 -0.017 0.014 -0.05 0.04 -0.023 0.018 -0.064 0.051 -0.036 0.028 -0.019 0.015 -0.038 0.03 -0.038 0.03 -0.027 0.022 -0.056 0.044 -0.019 0.015 -0.064 0.051c-0.493,0.39 -1.061,0.837 -1.779,1.475 -0.718,0.637 -1.586,1.465 -2.375,2.331 -0.79,0.866 -1.501,1.771 -2.145,2.665 -0.644,0.894 -1.22,1.777 -1.924,2.935 -0.704,1.158 -1.536,2.591 -2.208,3.821 -0.671,1.229 -1.181,2.255 -1.732,3.264 -0.551,1.008 -1.141,1.999 -1.644,2.942 -0.503,0.943 -0.918,1.838 -1.313,2.759 -0.395,0.922 -0.77,1.87 -1.152,2.756 -0.382,0.887 -0.772,1.712 -1.285,3.043 -0.513,1.331 -1.149,3.17 -1.716,4.911 -0.567,1.741 -1.065,3.386 -1.49,4.836 -0.425,1.451 -0.777,2.709 -1.129,4.225 -0.352,1.516 -0.704,3.291 -1.144,5.668 -0.44,2.376 -0.968,5.353 -1.29,7.073 -0.322,1.72 -0.438,2.183 -0.543,2.673 -0.106,0.491 -0.201,1.009 -0.4,1.833 -0.198,0.825 -0.5,1.957 -0.807,3.143 -0.307,1.187 -0.618,2.43 -0.84,3.478 -0.221,1.049 -0.352,1.904 -0.575,3.166 -0.224,1.262 -0.541,2.932 -0.787,4.297 -0.247,1.366 -0.423,2.427 -0.529,2.975l-0.009 0.052 -0.008 0.037 -0.002 0.011 -0.005 0.025 -0.006 0.026 -0.005 0.025 -0.001 0.006 -0.004 0.018 -0.004 0.019 -0.005 0.025 -0.009 0.04 -0.003 0.014 -0.01 0.044 -0.004 0.015 -0.004 0.016 -0.004 0.015 -0.002 0.008 -0.005 0.016 -0.007 0.028 -0.001 0.003 -0.003 0.009 -0.005 0.016 -0.008 0.027 -0.006 0.015 -0.004 0.011 -0.003 0.006 -0.001 0.005 -0.003 0.006 -0.003 0.007 -0.005 0.011 0 0 -0.004 0.006 -0.003 0.006 -0.006 0.011 -0.003 0.005 -0.005 0.006 -0.005 0.007 -0.002 0.003 -0.006 0.006 -0.003 0.003 -0.004 0.004 -0.006 0.006 -0.007 0.006 -0.003 0.002 -0.005 0.004 -0.003 0.003c-0.063,0.05 -0.155,0.115 -0.251,2.246 -0.096,2.13 -0.197,6.326 -0.275,8.622 -0.078,2.297 -0.133,2.694 0.035,2.902 0.169,0.209 0.561,0.229 1.419,0.337 0.857,0.108 2.18,0.305 4.51,0.755 2.332,0.45 5.671,1.154 8.339,1.667 2.668,0.513 4.664,0.835 6.751,1.182 2.088,0.347 4.265,0.719 7.24,1.192 2.975,0.472 6.746,1.046 9.15,1.373 2.404,0.327 3.44,0.407 3.958,0.447 0.518,0.041 0.518,0.041 0.568,-0.543 0.049,-0.583 0.149,-1.75 0.263,-2.759 0.114,-1.009 0.242,-1.86 0.394,-2.937 0.152,-1.077 0.328,-2.379 0.498,-3.576 0.17,-1.197 0.333,-2.289 0.417,-2.902 0.085,-0.614 0.089,-0.749 0.076,-0.865l-0.001 -0.007 -0.001 -0.008 -0.001 -0.007 -0.001 -0.008 -0.002 -0.012 -0.001 -0.012 -0.002 -0.012 0 -0.002 -0.001 -0.013 -0.002 -0.019 0 -0.001c-0.004,-0.041 -0.009,-0.098 -0.012,-0.184l0 -0.009 -0.001 -0.033 0 -0.002 -0.004 -0.176 -0.001 -0.062 0 -0.048 0 -0.02 -0.001 -0.042 0 -0.031 0 -0.037 0 -0.042 0 -0.131 0 -0.049 0 -0.046 0 -0.043 0.001 -0.06 0 -0.031 0 -0.054 0 -0.043 0.001 -0.094 0 -0.009 0.002 -0.127 0.001 -0.096 0.001 -0.077 0.001 -0.085 0.001 -0.086c0.024,-1.607 0.104,-4.725 0.147,-7.257 0.043,-2.532 0.048,-4.478 0.059,-5.601 0.011,-1.123 0.029,-1.422 0.067,-1.618 0.038,-0.197 0.095,-0.29 0.176,-0.338 0.21,-0.447 0.419,-0.894 0.551,-1.225 0.131,-0.33 0.185,-0.545 0.225,-1.071 0.04,-0.527 0.067,-1.365 -0.362,-3.011zm-0.852 21.838l-0.007 -0.093 -0.005 -0.091m153.655 -4.155l-0.003 0.026 -0.001 0.007 -0.003 0.02 0 0.004c-0.004,0.028 -0.004,0.044 -0.007,0.056l-0.002 0.005 -0.001 0.003 -0.001 0.004 -0.001 0.002 -0.001 0.001 -0.002 0.003 -0.002 0.003 -0.001 0.001 -0.002 0.002 -0.002 0.002 0 0.001 -0.005 0.005 -0.004 0.003 -0.003 0.003c-0.038,0.034 -0.128,0.104 -0.133,0.68 -0.005,0.576 0.075,1.657 0.192,3.051 0.117,1.395 0.27,3.102 0.322,4.786 0.051,1.683 0.001,3.343 0.002,4.231 0,0.887 0.052,1.003 0.132,1.078 0.08,0.076 0.188,0.111 1.001,0.06 0.814,-0.051 2.333,-0.188 4.105,-0.324 1.773,-0.137 3.8,-0.273 5.955,-0.431 2.155,-0.158 4.438,-0.339 6.588,-0.463 2.15,-0.123 4.166,-0.188 5.992,-0.299 1.826,-0.111 3.46,-0.267 5.336,-0.47 1.876,-0.204 3.993,-0.455 6.015,-0.682 2.021,-0.226 3.947,-0.427 5.109,-0.565 1.162,-0.139 1.559,-0.214 1.758,-0.327 0.199,-0.113 0.199,-0.264 0.229,-0.906 0.03,-0.641 0.09,-1.772 0.108,-3.132 0.017,-1.361 -0.008,-2.95 -0.023,-4.429 -0.015,-1.478 -0.02,-2.846 -0.038,-3.724 -0.017,-0.877 -0.047,-1.264 -0.071,-1.469l-0.004 -0.031 -0.005 -0.037 -0.003 -0.016 -0.004 -0.03 -0.002 -0.007 -0.003 -0.019 -0.003 -0.015 -0.001 -0.002c-0.005,-0.022 -0.01,-0.04 -0.015,-0.055l-0.001 -0.001 -0.006 -0.016 -0.001 -0.001 -0.006 -0.013 0 -0.001 -0.002 -0.003 -0.007 -0.013 -0.001 -0.002 -0.003 -0.004 -0.002 -0.004 -0.002 -0.003 -0.002 -0.003 -0.004 -0.008 -0.002 -0.003 -0.004 -0.007c-0.04,-0.068 -0.103,-0.181 -0.174,-0.682 -0.071,-0.5 -0.152,-1.388 -0.255,-2.32 -0.103,-0.933 -0.229,-1.911 -0.348,-2.739 -0.12,-0.827 -0.233,-1.504 -0.413,-2.544 -0.179,-1.042 -0.426,-2.447 -0.613,-3.449 -0.187,-1.002 -0.316,-1.601 -0.436,-2.27 -0.121,-0.668 -0.234,-1.408 -0.366,-2.121 -0.132,-0.713 -0.283,-1.399 -0.425,-2.156 -0.142,-0.757 -0.275,-1.584 -0.375,-2.322 -0.099,-0.738 -0.165,-1.387 -0.239,-2.029 -0.074,-0.643 -0.157,-1.279 -0.257,-2.036 -0.101,-0.757 -0.219,-1.634 -0.34,-2.526 -0.121,-0.891 -0.244,-1.796 -0.353,-2.565 -0.11,-0.768 -0.205,-1.399 -0.373,-2.344 -0.168,-0.945 -0.408,-2.203 -0.82,-4.085 -0.412,-1.881 -0.995,-4.386 -1.704,-6.89 -0.709,-2.505 -1.544,-5.009 -2.651,-7.745 -1.106,-2.736 -2.484,-5.703 -4.093,-8.851 -1.61,-3.149 -3.45,-6.478 -4.878,-8.781 -1.429,-2.304 -2.444,-3.581 -3.453,-4.629 -1.008,-1.049 -2.009,-1.869 -3.015,-2.608 -1.006,-0.739 -2.017,-1.398 -2.582,-1.773 -0.566,-0.375 -0.687,-0.465 -0.756,-0.571l-0.002 -0.003 -0.002 -0.004 -0.002 -0.003 -0.003 -0.005 -0.004 -0.006 -0.001 -0.001 -0.002 -0.005 -0.002 -0.003 -0.003 -0.005 -0.002 -0.005 -0.003 -0.006 -0.002 -0.002 -0.002 -0.005 -0.007 -0.016 -0.001 -0.002 -0.001 -0.002 -0.002 -0.005 -0.004 -0.008 -0.001 -0.003c-0.845,2.177 -1.681,4.372 -2.474,6.668 -0.979,2.837 -1.891,5.827 -2.716,11.172 -0.825,5.344 -1.562,13.042 -2.347,18.902 -0.784,5.861 -1.616,9.884 -2.444,13.19 -0.828,3.306 -1.653,5.894 -2.313,7.962 -0.661,2.069 -1.157,3.618 -1.398,4.644 -0.242,1.026 -0.228,1.529 -0.221,1.78 0.006,0.252 0.006,0.252 0.16,0.59 0.155,0.339 0.463,1.016 0.601,1.639 0.139,0.623 0.107,1.192 0.075,1.761 0.066,-0.048 0.066,-0.048 0.049,0.598 -0.018,0.646 -0.053,1.939 -0.108,3.533 -0.056,1.594 -0.131,3.49 -0.173,4.967 -0.041,1.478 -0.049,2.536 -0.079,3.186 -0.03,0.65 -0.083,0.892 -0.102,1.011z"/>
    </clipPath>
    <clipPath id="id4">
     <path d="M136.796 295.988c2.461,-0.097 4.626,-0.225 7.017,-0.355 2.39,-0.131 5.006,-0.265 8.261,-0.493 3.256,-0.228 7.151,-0.55 10.471,-0.852 3.319,-0.302 6.061,-0.583 8.794,-0.949 2.732,-0.365 5.455,-0.814 7.654,-1.25 2.2,-0.436 3.876,-0.858 6.001,-1.331 2.126,-0.473 4.701,-0.996 6.595,-1.321 1.894,-0.325 3.108,-0.453 4.268,-0.536 1.16,-0.084 2.267,-0.124 3.155,-0.117 0.889,0.008 1.559,0.063 1.956,0.094 0.396,0.031 0.518,0.038 0.611,0.043 0.049,0.002 0.09,0.004 0.127,0.006 0.093,-0.07 0.162,-0.18 0.177,-0.779 0.016,-0.673 -0.037,-1.966 -0.106,-2.786 -0.069,-0.819 -0.154,-1.166 -0.285,-1.855 -0.131,-0.689 -0.307,-1.72 -0.651,-2.686 -0.345,-0.965 -0.858,-1.866 -1.476,-3.045 -0.619,-1.179 -1.343,-2.638 -1.783,-3.616 -0.44,-0.978 -0.596,-1.476 -0.848,-2.693 -0.251,-1.217 -0.598,-3.153 -0.953,-5.871 -0.354,-2.718 -0.716,-6.219 -1.038,-8.884 -0.322,-2.666 -0.603,-4.496 -1.081,-7.559 -0.478,-3.062 -1.152,-7.357 -1.71,-11.521 -0.558,-4.164 -1.001,-8.198 -1.348,-12.226 -0.347,-4.028 -0.598,-8.051 -0.759,-11.637 -0.161,-3.586 -0.231,-6.734 -0.287,-9.787 -0.055,-3.052 -0.095,-6.01 -0.156,-9.258 -0.06,-3.249 -0.14,-6.79 -0.108,-12.037 0.033,-5.248 0.179,-12.203 0.352,-17.466 0.174,-5.263 0.375,-8.834 0.652,-12.807 0.276,-3.973 0.628,-8.348 0.975,-12.271 0.347,-3.922 0.689,-7.393 1.122,-11.743 0.432,-4.35 0.955,-9.58 1.483,-13.99 0.528,-4.411 1.061,-8.002 1.512,-10.619 0.45,-2.618 0.817,-4.262 1.139,-5.308 0.321,-1.046 0.598,-1.494 0.803,-1.766 0.205,-0.271 0.338,-0.367 0.405,-0.414 0.066,-0.048 0.066,-0.048 0.049,0.598 -0.018,0.646 -0.053,1.939 -0.108,3.533 -0.056,1.594 -0.131,3.49 -0.173,4.967 -0.041,1.478 -0.049,2.536 -0.079,3.186 -0.03,0.65 -0.083,0.892 -0.102,1.011 -0.018,0.119 -0.003,0.117 -0.041,0.151 -0.038,0.034 -0.128,0.104 -0.133,0.68 -0.005,0.576 0.075,1.657 0.192,3.051 0.117,1.395 0.27,3.102 0.322,4.786 0.051,1.683 0.001,3.343 0.002,4.231 0,0.887 0.052,1.003 0.132,1.078 0.08,0.076 0.188,0.111 1.001,0.06 0.814,-0.051 2.333,-0.188 4.105,-0.324 1.773,-0.137 3.8,-0.273 5.955,-0.431 2.155,-0.158 4.438,-0.339 6.588,-0.463 2.15,-0.123 4.166,-0.188 5.992,-0.299 1.826,-0.111 3.46,-0.267 5.336,-0.47 1.876,-0.204 3.993,-0.455 6.015,-0.682 2.021,-0.226 3.947,-0.427 5.109,-0.565 1.162,-0.139 1.559,-0.214 1.758,-0.327 0.199,-0.113 0.199,-0.264 0.229,-0.906 0.03,-0.641 0.09,-1.772 0.108,-3.132 0.017,-1.361 -0.008,-2.95 -0.023,-4.429 -0.015,-1.478 -0.02,-2.846 -0.038,-3.724 -0.017,-0.877 -0.047,-1.264 -0.071,-1.469 -0.025,-0.205 -0.043,-0.227 -0.083,-0.294 -0.04,-0.068 -0.103,-0.181 -0.174,-0.682 -0.071,-0.5 -0.152,-1.388 -0.255,-2.32 -0.103,-0.933 -0.229,-1.911 -0.348,-2.739 -0.12,-0.827 -0.233,-1.504 -0.413,-2.544 -0.179,-1.042 -0.426,-2.447 -0.613,-3.449 -0.187,-1.002 -0.316,-1.601 -0.436,-2.27 -0.121,-0.668 -0.234,-1.408 -0.366,-2.121 -0.132,-0.713 -0.283,-1.399 -0.425,-2.156 -0.142,-0.757 -0.275,-1.584 -0.375,-2.322 -0.099,-0.738 -0.165,-1.387 -0.239,-2.029 -0.074,-0.643 -0.157,-1.279 -0.257,-2.036 -0.101,-0.757 -0.219,-1.634 -0.34,-2.526 -0.121,-0.891 -0.244,-1.796 -0.353,-2.565 -0.11,-0.768 -0.205,-1.399 -0.373,-2.344 -0.168,-0.945 -0.408,-2.203 -0.82,-4.085 -0.412,-1.881 -0.995,-4.386 -1.704,-6.89 -0.709,-2.505 -1.544,-5.009 -2.651,-7.745 -1.106,-2.736 -2.484,-5.703 -4.093,-8.851 -1.61,-3.149 -3.45,-6.478 -4.878,-8.781 -1.429,-2.304 -2.444,-3.581 -3.453,-4.629 -1.008,-1.049 -2.009,-1.869 -3.015,-2.608 -1.006,-0.739 -2.017,-1.398 -2.582,-1.773 -0.566,-0.375 -0.687,-0.465 -0.756,-0.571 -0.069,-0.105 -0.087,-0.226 -0.095,-0.303 -0.009,-0.077 -0.009,-0.109 -0.07,-0.174 -0.06,-0.066 -0.181,-0.164 -1.307,-0.714 -1.127,-0.551 -3.259,-1.555 -5.31,-2.603 -2.05,-1.048 -4.019,-2.142 -5.77,-2.976 -1.752,-0.833 -3.286,-1.407 -5.061,-1.957 -1.775,-0.551 -3.792,-1.079 -5.429,-1.507 -1.637,-0.427 -2.894,-0.754 -3.762,-1.008 -0.867,-0.254 -1.345,-0.435 -2.044,-0.7 -0.699,-0.266 -1.619,-0.615 -2.606,-0.909 -0.987,-0.295 -2.041,-0.533 -2.716,-0.687 -0.675,-0.153 -0.972,-0.221 -1.44,-0.471 -0.467,-0.25 -1.106,-0.683 -1.581,-0.937 -0.475,-0.254 -0.787,-0.329 -1.073,-0.365 -0.285,-0.035 -0.544,-0.03 -0.777,-0.03 -0.232,0 -0.438,-0.005 -1.342,-0.33 -0.904,-0.326 -2.506,-0.972 -4.026,-1.577 -1.52,-0.605 -2.959,-1.168 -4.404,-1.748 -1.446,-0.579 -2.9,-1.175 -3.816,-1.569 -0.917,-0.393 -1.297,-0.584 -1.594,-0.779 -0.298,-0.194 -0.514,-0.392 -0.705,-0.497 -0.191,-0.105 -0.356,-0.116 -0.467,-0.117 -0.11,0 -0.164,0.01 -0.251,-0.004 -0.086,-0.014 -0.204,-0.052 -0.587,-0.292 -0.382,-0.24 -1.028,-0.682 -1.678,-1.193 -0.65,-0.51 -1.304,-1.089 -1.956,-1.661 -0.653,-0.572 -1.304,-1.138 -2.311,-1.569 -1.007,-0.431 -2.37,-0.728 -3.723,-0.919 -1.353,-0.191 -2.695,-0.276 -4.576,-0.354 -1.881,-0.078 -4.3,-0.149 -7.931,-0.131 -3.631,0.017 -8.474,0.123 -12.914,0.219 -4.439,0.096 -8.475,0.183 -10.597,0.231 -2.123,0.048 -2.332,0.058 -4.152,0.203 -1.82,0.145 -5.249,0.427 -7.404,0.671 -2.155,0.244 -3.035,0.45 -3.752,0.707 -0.717,0.256 -1.27,0.563 -1.886,1.078 -0.616,0.516 -1.295,1.24 -2.019,1.877 -0.725,0.638 -1.494,1.189 -1.953,1.46 -0.459,0.272 -0.607,0.264 -0.901,0.366 -0.295,0.102 -0.735,0.313 -1.268,0.582 -0.533,0.269 -1.159,0.596 -1.919,0.922 -0.761,0.325 -1.656,0.65 -2.301,0.904 -0.645,0.254 -1.04,0.437 -1.514,0.628 -0.474,0.192 -1.027,0.39 -1.765,0.621 -0.738,0.232 -1.661,0.496 -2.558,0.836 -0.896,0.341 -1.766,0.759 -2.573,1.076 -0.808,0.316 -1.552,0.533 -2.299,0.749 -0.746,0.216 -1.496,0.432 -2.053,0.655 -0.557,0.222 -0.921,0.451 -1.207,0.636 -0.285,0.185 -0.491,0.326 -0.999,0.476 -0.508,0.15 -1.318,0.31 -1.914,0.463 -0.596,0.154 -0.978,0.301 -1.488,0.492 -0.51,0.192 -1.147,0.429 -1.75,0.617 -0.603,0.189 -1.171,0.329 -1.687,0.459 -0.516,0.13 -0.98,0.248 -1.7,0.426 -0.719,0.179 -1.693,0.418 -2.551,0.633 -0.857,0.216 -1.598,0.408 -2.171,0.57 -0.573,0.161 -0.979,0.292 -1.436,0.426 -0.456,0.134 -0.963,0.271 -1.427,0.4 -0.465,0.129 -0.887,0.249 -1.312,0.377 -0.424,0.128 -0.85,0.262 -1.203,0.399 -0.353,0.137 -0.632,0.277 -1.012,0.437 -0.38,0.159 -0.862,0.339 -1.279,0.53 -0.417,0.191 -0.769,0.394 -1.165,0.602 -0.397,0.209 -0.838,0.424 -1.221,0.617 -0.382,0.194 -0.705,0.366 -1.126,0.589 -0.421,0.223 -0.941,0.495 -1.657,0.865 -0.717,0.371 -1.631,0.838 -2.694,1.37 -1.063,0.532 -2.275,1.128 -3.18,1.576 -0.905,0.448 -1.504,0.747 -2.037,1.087 -0.533,0.341 -1.001,0.723 -1.443,1.08 -0.443,0.358 -0.86,0.689 -1.353,1.079 -0.493,0.39 -1.061,0.837 -1.779,1.475 -0.718,0.637 -1.586,1.465 -2.375,2.331 -0.79,0.866 -1.501,1.771 -2.145,2.665 -0.644,0.894 -1.22,1.777 -1.924,2.935 -0.704,1.158 -1.536,2.591 -2.208,3.821 -0.671,1.229 -1.181,2.255 -1.732,3.264 -0.551,1.008 -1.141,1.999 -1.644,2.942 -0.503,0.943 -0.918,1.838 -1.313,2.759 -0.395,0.922 -0.77,1.87 -1.152,2.756 -0.382,0.887 -0.772,1.712 -1.285,3.043 -0.513,1.331 -1.149,3.17 -1.716,4.911 -0.567,1.741 -1.065,3.386 -1.49,4.836 -0.425,1.451 -0.777,2.709 -1.129,4.225 -0.352,1.516 -0.704,3.291 -1.144,5.668 -0.44,2.376 -0.968,5.353 -1.29,7.073 -0.322,1.72 -0.438,2.183 -0.543,2.673 -0.106,0.491 -0.201,1.009 -0.4,1.833 -0.198,0.825 -0.5,1.957 -0.807,3.143 -0.307,1.187 -0.618,2.43 -0.84,3.478 -0.221,1.049 -0.352,1.904 -0.575,3.166 -0.224,1.262 -0.541,2.932 -0.787,4.297 -0.247,1.366 -0.423,2.427 -0.529,2.975 -0.105,0.548 -0.14,0.583 -0.204,0.634 -0.063,0.05 -0.155,0.115 -0.251,2.246 -0.096,2.13 -0.197,6.326 -0.275,8.622 -0.078,2.297 -0.133,2.694 0.035,2.902 0.169,0.209 0.561,0.229 1.419,0.337 0.857,0.108 2.18,0.305 4.51,0.755 2.332,0.45 5.671,1.154 8.339,1.667 2.668,0.513 4.664,0.835 6.751,1.182 2.088,0.347 4.265,0.719 7.24,1.192 2.975,0.472 6.746,1.046 9.15,1.373 2.404,0.327 3.44,0.407 3.958,0.447 0.518,0.041 0.518,0.041 0.568,-0.543 0.049,-0.583 0.149,-1.75 0.263,-2.759 0.114,-1.009 0.242,-1.86 0.394,-2.937 0.152,-1.077 0.328,-2.379 0.498,-3.576 0.17,-1.197 0.333,-2.289 0.417,-2.902 0.085,-0.614 0.089,-0.749 0.076,-0.865 -0.014,-0.116 -0.047,-0.211 -0.023,-1.818 0.024,-1.607 0.104,-4.725 0.147,-7.257 0.043,-2.532 0.048,-4.478 0.059,-5.601 0.011,-1.123 0.029,-1.422 0.067,-1.618 0.038,-0.197 0.095,-0.29 0.176,-0.338 0.08,-0.05 0.184,-0.055 0.308,0.038 0.124,0.094 0.27,0.285 0.345,0.376 0.074,0.092 0.076,0.085 0.078,0.081 0.001,-0.004 0.001,-0.004 0.115,0.253 0.114,0.256 0.343,0.769 0.597,1.463 0.254,0.694 0.533,1.569 0.762,2.507 0.229,0.938 0.408,1.939 0.607,3.547 0.2,1.608 0.422,3.823 0.739,6.228 0.316,2.406 0.729,5.001 1.468,11.393 0.739,6.392 1.805,16.58 2.64,24.511 0.835,7.931 1.439,13.604 1.811,19.699 0.372,6.095 0.513,12.613 0.503,19.654 -0.01,7.04 -0.171,14.604 -0.372,20.609 -0.202,6.004 -0.443,10.45 -0.725,14.423 -0.281,3.973 -0.603,7.473 -1.448,14.162 -0.845,6.688 -2.213,16.566 -3.007,23.777 -0.795,7.212 -1.016,11.758 -1.217,15.269 -0.202,3.51 -0.383,5.984 -0.674,8.122 -0.292,2.137 -0.694,3.937 -0.973,5.315 -0.279,1.378 -0.436,2.334 -0.453,2.935 -0.018,0.601 0.103,0.847 0.249,0.975 0.146,0.129 0.317,0.138 0.5,0.175 0.184,0.036 0.38,0.099 0.469,0.155 0.019,0.011 0.032,0.022 0.042,0.037 0.876,0.322 1.753,0.645 3.155,0.925 1.401,0.28 3.329,0.518 6.493,0.754 3.163,0.237 7.562,0.472 11.099,0.609 3.537,0.138 6.212,0.178 9.592,0.181 3.38,0.003 7.463,-0.03 11.329,-0.007 3.866,0.024 7.513,0.104 10.591,0.191 3.078,0.088 5.586,0.181 7.916,0.252 2.33,0.07 4.483,0.117 6.789,0.171 2.307,0.053 4.768,0.114 7.356,0.121 2.589,0.006 5.304,-0.041 8.04,-0.098 2.736,-0.057 5.492,-0.124 7.953,-0.221z"/>
    </clipPath>
 </defs>
 <g id="VETORES">
  <metadata id="CorelCorpID_0Corel-Layer"/>
  <g>
  </g>
  <g clip-path="url(#id0)">
   <g id="_2321448930384">
    <g>
    </g>
   </g>
   <g clip-path="url(#id1)">
   </g>
   <g clip-path="url(#id2)">
    <path id="torso" fill="none" d="M197.737 96.303c0.032,-0.569 0.064,-1.138 -0.075,-1.761 -0.138,-0.623 -0.446,-1.3 -0.601,-1.639 -0.154,-0.338 -0.154,-0.338 -0.16,-0.59 -0.007,-0.251 -0.021,-0.754 0.221,-1.78 0.241,-1.026 0.737,-2.575 1.398,-4.644 0.66,-2.068 1.485,-4.656 2.313,-7.962 0.828,-3.306 1.66,-7.329 2.444,-13.19 0.785,-5.86 1.522,-13.558 2.347,-18.902 0.825,-5.345 1.737,-8.335 2.716,-11.172 0.793,-2.296 1.629,-4.491 2.474,-6.668 -0.032,-0.079 -0.043,-0.158 -0.049,-0.214 -0.009,-0.077 -0.009,-0.109 -0.07,-0.174 -0.06,-0.066 -0.181,-0.164 -1.307,-0.714 -1.127,-0.551 -3.259,-1.555 -5.31,-2.603 -2.05,-1.048 -4.019,-2.142 -5.77,-2.976 -1.752,-0.833 -3.286,-1.407 -5.061,-1.957 -1.775,-0.551 -3.792,-1.079 -5.429,-1.507 -1.637,-0.427 -2.894,-0.754 -3.762,-1.008 -0.867,-0.254 -1.345,-0.435 -2.044,-0.7 -0.699,-0.266 -1.619,-0.615 -2.606,-0.909 -0.987,-0.295 -2.041,-0.533 -2.716,-0.687 -0.675,-0.153 -0.972,-0.221 -1.44,-0.471 -0.467,-0.25 -1.106,-0.683 -1.581,-0.937 -0.475,-0.254 -0.787,-0.329 -1.073,-0.365 -0.285,-0.035 -0.544,-0.03 -0.777,-0.03 -0.232,0 -0.438,-0.005 -1.342,-0.33 -0.904,-0.326 -2.506,-0.972 -4.026,-1.577 -1.52,-0.605 -2.959,-1.168 -4.404,-1.748 -1.446,-0.579 -2.9,-1.175 -3.816,-1.569 -0.917,-0.393 -1.297,-0.584 -1.594,-0.779 -0.298,-0.194 -0.514,-0.392 -0.705,-0.497 -0.191,-0.105 -0.356,-0.116 -0.467,-0.117 -0.078,0 -0.128,0.005 -0.182,0.003 -0.022,-0.001 -0.044,-0.003 -0.069,-0.007 -0.086,-0.014 -0.204,-0.052 -0.587,-0.292 -0.382,-0.24 -1.028,-0.682 -1.678,-1.193 -0.65,-0.51 -1.304,-1.089 -1.956,-1.661 -0.653,-0.572 -1.304,-1.138 -2.311,-1.569 -1.007,-0.431 -2.37,-0.728 -3.723,-0.919 -1.353,-0.191 -2.695,-0.276 -4.576,-0.354 -1.881,-0.078 -4.3,-0.149 -7.931,-0.131 -3.631,0.017 -8.474,0.123 -12.914,0.219 -4.439,0.096 -8.475,0.183 -10.597,0.231 -2.123,0.048 -2.332,0.058 -4.152,0.203 -1.82,0.145 -5.249,0.427 -7.404,0.671 -2.155,0.244 -3.035,0.45 -3.752,0.707 -0.717,0.256 -1.27,0.563 -1.886,1.078 -0.616,0.516 -1.295,1.24 -2.019,1.877 -0.725,0.638 -1.494,1.189 -1.953,1.46 -0.104,0.062 -0.192,0.109 -0.27,0.147 -0.264,0.127 -0.404,0.14 -0.631,0.219 -0.295,0.102 -0.735,0.313 -1.268,0.582 -0.533,0.269 -1.159,0.596 -1.919,0.922 -0.761,0.325 -1.656,0.65 -2.301,0.904 -0.645,0.254 -1.04,0.437 -1.514,0.628 -0.474,0.192 -1.027,0.39 -1.765,0.621 -0.738,0.232 -1.661,0.496 -2.558,0.836 -0.896,0.341 -1.766,0.759 -2.573,1.076 -0.808,0.316 -1.552,0.533 -2.299,0.749 -0.746,0.216 -1.496,0.432 -2.053,0.655 -0.557,0.222 -0.921,0.451 -1.207,0.636 -0.285,0.185 -0.491,0.326 -0.999,0.476 -0.508,0.15 -1.318,0.31 -1.914,0.463 -0.596,0.154 -0.978,0.301 -1.488,0.492 -0.51,0.192 -1.147,0.429 -1.75,0.617 -0.603,0.189 -1.171,0.329 -1.687,0.459 -0.516,0.13 -0.98,0.248 -1.7,0.426 -0.719,0.179 -1.693,0.418 -2.551,0.633 -0.857,0.216 -1.598,0.408 -2.171,0.57 -0.573,0.161 -0.979,0.292 -1.436,0.426 -0.456,0.134 -0.963,0.271 -1.427,0.4 -0.465,0.129 -0.887,0.249 -1.312,0.377 -0.424,0.128 -0.85,0.262 -1.203,0.399 -0.353,0.137 -0.632,0.277 -1.012,0.437 -0.38,0.159 -0.862,0.339 -1.279,0.53 -0.417,0.191 -0.769,0.394 -1.165,0.602 -0.397,0.209 -0.838,0.424 -1.221,0.617 -0.382,0.194 -0.705,0.366 -1.126,0.589 -0.421,0.223 -0.941,0.495 -1.657,0.865 -0.717,0.371 -1.631,0.838 -2.694,1.37 -1.063,0.532 -2.275,1.128 -3.18,1.576 -0.905,0.448 -1.504,0.747 -2.037,1.087 -0.533,0.341 -1.001,0.723 -1.443,1.08 -0.06,0.048 -0.119,0.096 -0.178,0.143 0.046,0.197 0.1,0.412 0.167,0.649 0.328,1.174 0.946,2.898 1.737,5.811 0.792,2.914 1.757,7.018 2.522,10.974 0.764,3.956 1.327,7.765 1.971,12.15 0.644,4.386 1.368,9.348 2.24,13.927 0.872,4.58 1.891,8.778 2.843,12.104 0.952,3.326 1.837,5.78 2.266,7.426 0.429,1.646 0.402,2.484 0.362,3.011 -0.04,0.526 -0.094,0.741 -0.225,1.071 -0.132,0.331 -0.341,0.778 -0.551,1.225 0.08,-0.05 0.184,-0.055 0.308,0.038 0.124,0.094 0.27,0.285 0.345,0.376 0.074,0.092 0.076,0.085 0.078,0.081 0.001,-0.004 0.001,-0.004 0.115,0.253 0.114,0.256 0.343,0.769 0.597,1.463 0.254,0.694 0.533,1.569 0.762,2.507 0.229,0.938 0.408,1.939 0.607,3.547 0.2,1.608 0.422,3.823 0.739,6.228 0.316,2.406 0.729,5.001 1.468,11.393 0.739,6.392 1.805,16.58 2.64,24.511 0.835,7.931 1.439,13.604 1.811,19.699 0.372,6.095 0.513,12.613 0.503,19.654 -0.01,7.04 -0.171,14.604 -0.372,20.609 -0.202,6.004 -0.443,10.45 -0.725,14.423 -0.281,3.973 -0.603,7.473 -1.448,14.162 -0.845,6.688 -2.213,16.566 -3.007,23.777 -0.795,7.212 -1.016,11.758 -1.217,15.269 -0.202,3.51 -0.383,5.984 -0.674,8.122 -0.292,2.137 -0.694,3.937 -0.973,5.315 -0.279,1.378 -0.436,2.334 -0.453,2.935 -0.018,0.601 0.103,0.847 0.249,0.975 0.146,0.129 0.317,0.138 0.5,0.175 0.184,0.036 0.38,0.099 0.469,0.155 0.019,0.011 0.032,0.022 0.042,0.037 0.876,0.322 1.753,0.645 3.155,0.925 1.401,0.28 3.329,0.518 6.493,0.754 3.163,0.237 7.562,0.472 11.099,0.609 3.537,0.138 6.212,0.178 9.592,0.181 3.38,0.003 7.463,-0.03 11.329,-0.007 3.866,0.024 7.513,0.104 10.591,0.191 3.078,0.088 5.586,0.181 7.916,0.252 2.33,0.07 4.483,0.117 6.789,0.171 2.307,0.053 4.768,0.114 7.356,0.121 2.589,0.006 5.304,-0.041 8.04,-0.098 2.736,-0.057 5.492,-0.124 7.953,-0.221 2.461,-0.097 4.626,-0.225 7.017,-0.355 2.39,-0.131 5.006,-0.265 8.261,-0.493 3.256,-0.228 7.151,-0.55 10.471,-0.852 3.319,-0.302 6.061,-0.583 8.794,-0.949 2.732,-0.365 5.455,-0.814 7.654,-1.25 2.2,-0.436 3.876,-0.858 6.001,-1.331 2.126,-0.473 4.701,-0.996 6.595,-1.321 1.894,-0.325 3.108,-0.453 4.268,-0.536 1.16,-0.084 2.267,-0.124 3.155,-0.117 0.889,0.008 1.559,0.063 1.956,0.094 0.396,0.031 0.518,0.038 0.611,0.043 0.049,0.002 0.09,0.004 0.127,0.006 0.093,-0.07 0.162,-0.18 0.177,-0.779 0.016,-0.673 -0.037,-1.966 -0.106,-2.786 -0.069,-0.819 -0.154,-1.166 -0.285,-1.855 -0.131,-0.689 -0.307,-1.72 -0.651,-2.686 -0.345,-0.965 -0.858,-1.866 -1.476,-3.045 -0.619,-1.179 -1.343,-2.638 -1.783,-3.616 -0.44,-0.978 -0.596,-1.476 -0.848,-2.693 -0.251,-1.217 -0.598,-3.153 -0.953,-5.871 -0.354,-2.718 -0.716,-6.219 -1.038,-8.884 -0.322,-2.666 -0.603,-4.496 -1.081,-7.559 -0.478,-3.062 -1.152,-7.357 -1.71,-11.521 -0.558,-4.164 -1.001,-8.198 -1.348,-12.226 -0.347,-4.028 -0.598,-8.051 -0.759,-11.637 -0.161,-3.586 -0.231,-6.734 -0.287,-9.787 -0.055,-3.052 -0.095,-6.01 -0.156,-9.258 -0.06,-3.249 -0.14,-6.79 -0.108,-12.037 0.033,-5.248 0.179,-12.203 0.352,-17.466 0.174,-5.263 0.375,-8.834 0.652,-12.807 0.276,-3.973 0.628,-8.348 0.975,-12.271 0.347,-3.922 0.689,-7.393 1.122,-11.743 0.432,-4.35 0.955,-9.58 1.483,-13.99 0.528,-4.411 1.061,-8.002 1.512,-10.619 0.45,-2.618 0.817,-4.262 1.139,-5.308 0.321,-1.046 0.598,-1.494 0.803,-1.766 0.205,-0.271 0.338,-0.367 0.405,-0.414z"/>
    <g>
    </g>
   </g>
   <g clip-path="url(#id3)">
   </g>
   <g clip-path="url(#id4)">
    <path id="manga" fill="none" d="M44.533 92.099c-0.429,-1.646 -1.314,-4.1 -2.266,-7.426 -0.952,-3.326 -1.971,-7.524 -2.843,-12.104 -0.872,-4.579 -1.596,-9.541 -2.24,-13.927 -0.644,-4.385 -1.207,-8.194 -1.971,-12.15 -0.765,-3.956 -1.73,-8.06 -2.522,-10.974 -0.791,-2.913 -1.409,-4.637 -1.737,-5.811 -0.067,-0.237 -0.121,-0.452 -0.167,-0.649 -0.378,0.305 -0.748,0.599 -1.175,0.936 -0.493,0.39 -1.061,0.837 -1.779,1.475 -0.718,0.637 -1.586,1.465 -2.375,2.331 -0.79,0.866 -1.501,1.771 -2.145,2.665 -0.644,0.894 -1.22,1.777 -1.924,2.935 -0.704,1.158 -1.536,2.591 -2.208,3.821 -0.671,1.229 -1.181,2.255 -1.732,3.264 -0.551,1.008 -1.141,1.999 -1.644,2.942 -0.503,0.943 -0.918,1.838 -1.313,2.759 -0.395,0.922 -0.77,1.87 -1.152,2.756 -0.382,0.887 -0.772,1.712 -1.285,3.043 -0.513,1.331 -1.149,3.17 -1.716,4.911 -0.567,1.741 -1.065,3.386 -1.49,4.836 -0.425,1.451 -0.777,2.709 -1.129,4.225 -0.352,1.516 -0.704,3.291 -1.144,5.668 -0.44,2.376 -0.968,5.353 -1.29,7.073 -0.322,1.72 -0.438,2.183 -0.543,2.673 -0.106,0.491 -0.201,1.009 -0.4,1.833 -0.198,0.825 -0.5,1.957 -0.807,3.143 -0.307,1.187 -0.618,2.43 -0.84,3.478 -0.221,1.049 -0.352,1.904 -0.575,3.166 -0.224,1.262 -0.541,2.932 -0.787,4.297 -0.247,1.366 -0.423,2.427 -0.529,2.975 -0.083,0.431 -0.122,0.545 -0.166,0.598 -0.012,0.015 -0.024,0.025 -0.038,0.036 -0.063,0.05 -0.155,0.115 -0.251,2.246 -0.096,2.13 -0.197,6.326 -0.275,8.622 -0.078,2.297 -0.133,2.694 0.035,2.902 0.169,0.209 0.561,0.229 1.419,0.337 0.857,0.108 2.18,0.305 4.51,0.755 2.332,0.45 5.671,1.154 8.339,1.667 2.668,0.513 4.664,0.835 6.751,1.182 2.088,0.347 4.265,0.719 7.24,1.192 2.975,0.472 6.746,1.046 9.15,1.373 2.404,0.327 3.44,0.407 3.958,0.447 0.518,0.041 0.518,0.041 0.568,-0.543 0.049,-0.583 0.149,-1.75 0.263,-2.759 0.114,-1.009 0.242,-1.86 0.394,-2.937 0.152,-1.077 0.328,-2.379 0.498,-3.576 0.17,-1.197 0.333,-2.289 0.417,-2.902 0.085,-0.614 0.089,-0.749 0.076,-0.865 -0.005,-0.042 -0.013,-0.082 -0.019,-0.194 -0.011,-0.194 -0.019,-0.605 -0.004,-1.624 0.024,-1.607 0.104,-4.725 0.147,-7.257 0.043,-2.532 0.048,-4.478 0.059,-5.601 0.011,-1.123 0.029,-1.422 0.067,-1.618 0.038,-0.197 0.095,-0.29 0.176,-0.338 0.21,-0.447 0.419,-0.894 0.551,-1.225 0.131,-0.33 0.185,-0.545 0.225,-1.071 0.04,-0.527 0.067,-1.365 -0.362,-3.011zm152.791 17.505c-0.018,0.113 -0.004,0.111 -0.041,0.145 -0.038,0.034 -0.128,0.104 -0.133,0.68 -0.005,0.576 0.075,1.657 0.192,3.051 0.117,1.395 0.27,3.102 0.322,4.786 0.051,1.683 0.001,3.343 0.002,4.231 0,0.887 0.052,1.003 0.132,1.078 0.08,0.076 0.188,0.111 1.001,0.06 0.814,-0.051 2.333,-0.188 4.105,-0.324 1.773,-0.137 3.8,-0.273 5.955,-0.431 2.155,-0.158 4.438,-0.339 6.588,-0.463 2.15,-0.123 4.166,-0.188 5.992,-0.299 1.826,-0.111 3.46,-0.267 5.336,-0.47 1.876,-0.204 3.993,-0.455 6.015,-0.682 2.021,-0.226 3.947,-0.427 5.109,-0.565 1.162,-0.139 1.559,-0.214 1.758,-0.327 0.199,-0.113 0.199,-0.264 0.229,-0.906 0.03,-0.641 0.09,-1.772 0.108,-3.132 0.017,-1.361 -0.008,-2.95 -0.023,-4.429 -0.015,-1.478 -0.02,-2.846 -0.038,-3.724 -0.017,-0.877 -0.047,-1.264 -0.071,-1.469 -0.024,-0.198 -0.042,-0.225 -0.079,-0.288 -0.001,-0.002 -0.003,-0.004 -0.004,-0.006 -0.04,-0.068 -0.103,-0.181 -0.174,-0.682 -0.071,-0.5 -0.152,-1.388 -0.255,-2.32 -0.103,-0.933 -0.229,-1.911 -0.348,-2.739 -0.12,-0.827 -0.233,-1.504 -0.413,-2.544 -0.179,-1.042 -0.426,-2.447 -0.613,-3.449 -0.187,-1.002 -0.316,-1.601 -0.436,-2.27 -0.121,-0.668 -0.234,-1.408 -0.366,-2.121 -0.132,-0.713 -0.283,-1.399 -0.425,-2.156 -0.142,-0.757 -0.275,-1.584 -0.375,-2.322 -0.099,-0.738 -0.165,-1.387 -0.239,-2.029 -0.074,-0.643 -0.157,-1.279 -0.257,-2.036 -0.101,-0.757 -0.219,-1.634 -0.34,-2.526 -0.121,-0.891 -0.244,-1.796 -0.353,-2.565 -0.11,-0.768 -0.205,-1.399 -0.373,-2.344 -0.168,-0.945 -0.408,-2.203 -0.82,-4.085 -0.412,-1.881 -0.995,-4.386 -1.704,-6.89 -0.709,-2.505 -1.544,-5.009 -2.651,-7.745 -1.106,-2.736 -2.484,-5.703 -4.093,-8.851 -1.61,-3.149 -3.45,-6.478 -4.878,-8.781 -1.429,-2.304 -2.444,-3.581 -3.453,-4.629 -1.008,-1.049 -2.009,-1.869 -3.015,-2.608 -1.006,-0.739 -2.017,-1.398 -2.582,-1.773 -0.566,-0.375 -0.687,-0.465 -0.756,-0.571 -0.019,-0.029 -0.034,-0.059 -0.046,-0.089 -0.845,2.177 -1.681,4.372 -2.474,6.668 -0.979,2.837 -1.891,5.827 -2.716,11.172 -0.825,5.344 -1.562,13.042 -2.347,18.902 -0.784,5.861 -1.616,9.884 -2.444,13.19 -0.828,3.306 -1.653,5.894 -2.313,7.962 -0.661,2.069 -1.157,3.618 -1.398,4.644 -0.242,1.026 -0.228,1.529 -0.221,1.78 0.006,0.252 0.006,0.252 0.16,0.59 0.155,0.339 0.463,1.016 0.601,1.639 0.139,0.623 0.107,1.192 0.075,1.761 0.066,-0.048 0.066,-0.048 0.049,0.598 -0.018,0.646 -0.053,1.939 -0.108,3.533 -0.056,1.594 -0.131,3.49 -0.173,4.967 -0.041,1.478 -0.049,2.536 -0.079,3.186 -0.03,0.65 -0.083,0.892 -0.102,1.011 0,0.002 0,0.004 0,0.006z"/>
    <path id="_3" fill="#B51723" fill-rule="nonzero" d="M131.659 196.56c-2.289,-2.272 -3.712,-1.6 -5.963,-1.548 -1.711,0.04 -5.001,0.176 -6.522,-0.294 -4.251,-1.314 -5.761,-5.935 -7.567,-8.171 -1.37,-1.691 -3.223,-2.993 -4.767,-4.529l-0.204 0.14 -0.785 -0.197c1.45,2.32 1.639,1.898 3.495,3.767 3.567,3.592 4.469,7.534 6.597,9.933 0.717,0.808 1.714,1.518 2.778,1.752 4.397,0.969 8.911,-1.426 11.062,-0.868 1.757,0.455 3.296,2.874 3.687,4.581 0.585,2.554 -0.571,5.749 0.713,7.412l0.193 -0.049c0.192,0.289 0.475,0.846 0.755,1.034l0.234 -0.282 0.026 -0.578 0.057 0.442 0.147 -0.015c-0.181,-0.804 -0.091,-2.159 0.034,-2.986 -0.068,-1.173 0.143,-2.279 0.162,-3.434 0.023,-1.253 -3.144,-5.129 -4.136,-6.11l0.004 0zm59.097 30.536c-0.053,-0.563 -0.103,-1.127 -0.152,-1.69l-0.082 -0.977c-0.13,0.114 -0.235,0.241 -0.305,0.38 -0.537,1.066 -0.078,1.873 0.539,2.287zm-0.663 -8.662c-0.099,-1.61 -0.181,-3.175 -0.248,-4.665 -0.031,-0.684 -0.058,-1.353 -0.083,-2.007 -0.93,1.114 -1.926,2.087 -3.191,2.887 -1.185,0.755 -2.419,1.517 -3.672,2.159 -0.978,0.501 -2.248,0.463 -2.672,2.178 -0.282,1.142 0.118,2.207 1.396,2.158 1.055,-0.04 2.838,-2.696 4.556,-3.291 1.189,-0.411 2.424,0.247 3.914,0.581zm-0.648 -21.274l-0.04 -2.312c-1.679,0.008 -3.469,-0.412 -5.026,0.138 -0.734,0.258 -2.166,1.45 -2.231,1.698 -0.045,0.427 -0.419,0.623 -0.694,0.936l-1.174 1.453c-0.922,1.095 -2.168,2.088 -2.049,4.152 0,-1.059 0.844,-1.827 1.577,-2.476l0 -0.14c0.786,-0.785 0.136,0.233 1.227,-1.37 0.478,-0.703 0.797,-1.274 1.445,-1.823l0.008 0.227c0.286,-0.275 0.596,-0.619 0.955,-0.8 1.552,-0.789 3.719,-0.152 6.002,0.317zm-0.149 -9.444c-0.006,-0.811 -0.009,-1.667 -0.009,-2.577 -0.544,0.332 -1.14,0.623 -1.432,0.789 -0.28,0.158 -0.653,0.457 -0.97,0.491 -0.355,-0.302 -0.71,-0.642 -1.11,-0.884 0.294,1.391 0.343,0.385 0.906,2.393 -2.035,-1.102 -2.552,-0.291 -3.072,-0.358 -0.366,-0.047 -0.201,-0.207 -0.766,0.022 -0.223,0.091 -0.321,0.038 -0.551,0.057 -0.325,0.026 -0.566,0.181 -0.925,0.174 -0.048,-0.244 0.125,-0.352 0.37,-0.604l-0.019 -0.54c-0.66,-0.023 -1.328,-0.306 -1.992,-0.208 -2.395,0.351 -2.453,1.483 -3.337,-0.569 -0.469,-1.089 -0.31,-1.982 0.434,-2.997 0.593,-0.808 1.574,-1.264 2.544,-1.393 0.075,-0.075 0.913,-0.052 1.072,-0.064 1.716,-0.128 0.608,-0.389 3.389,-0.306 1.468,0.046 3.336,0.046 4.623,0.834l-0.008 0.001c0.29,0.176 0.582,0.35 0.852,0.542 0.008,-1.178 0.021,-2.438 0.04,-3.744 -0.908,-0.016 -1.879,-0.115 -2.665,-0.316 -2.555,-0.653 -5.012,-1.913 -7.469,-2.857 -2.046,-0.785 -4.212,-1.211 -6.107,-2.351l-0.124 -0.223 0.185 -0.204 1.392 0.378c-0.657,-0.381 -1.434,-0.487 -2.098,-0.891 -2.228,-1.354 -3.663,-3.478 -5.571,-5.204l-0.185 0.181c-0.347,-0.049 -0.521,-0.113 -0.8,-0.328l-0.041 0.071 0.951 1.118c0.478,0.425 0.756,0.643 0.842,1.2 -1.186,-0.725 -2.005,-1.899 -3.148,-2.657l-0.396 0.196 -0.404 -0.355 0.026 -0.117c-0.954,-0.152 -2.04,-1.942 -2.438,-2.744 -0.398,-0.802 -0.852,-2.443 -1.713,-2.581l-0.118 0.136c0.128,0.31 0.325,0.734 0.133,1.038 -0.378,-0.298 -0.736,-0.593 -1.069,-0.944 -0.358,-0.381 -0.856,-1.121 -1.362,-1.264 -0.136,-0.038 -0.256,0.098 -0.366,0.17 0.551,0.071 0.981,0.532 1.314,0.951 0.943,1.174 1.891,2.325 2.581,3.672 0.626,1.358 1.393,2.812 1.751,4.264 0.344,0.952 0.789,1.94 0.83,2.959 -0.266,0.115 -0.169,0.07 -0.686,-0.275l3.034 8.182c0.951,2.566 2.046,5.582 0.913,8.261 0.686,-0.22 0.923,-0.532 1.427,-1.03 -0.178,0.649 -0.287,1.374 -0.517,2.004 -0.298,0.804 -1.329,2.121 -2.091,2.547 -1.344,0.755 -2.48,0.854 -3.951,1.072l-0.77 -0.562 0.098 0.347c0.41,0.471 0.516,0.721 0.068,1.423 -0.337,-1.074 -0.918,-1.615 -1.646,-2.445l-0.007 0c-0.961,-1.06 -1.316,-2.306 -1.846,-3.624 -0.109,0.529 -0.181,1.084 -0.366,1.593 -0.434,1.195 -1.956,2.543 -3.102,3.069 -0.166,0.882 0.008,1.494 0.109,2.366 -0.61,-1.26 -0.263,-1.051 -1.064,-1.582 -1.212,-0.803 -0.608,-0.78 -1.453,-0.883 -1.518,-0.184 -3.226,-0.073 -4.605,-1.74 -0.592,-0.717 -0.698,-2.151 -0.864,-3.045 -0.272,-1.457 -0.691,-2.644 -0.49,-4.152 0.117,-0.921 0.709,-1.925 1.109,-2.766l0.053 1.77c0.591,-2.433 2.311,-7.355 3.563,-9.488l3.985 -6.499c0.363,-0.634 0.834,-1 1.31,-1.536 -0.766,0.389 -1.17,0.751 -1.657,1.46l-0.287 0.114c-0.072,0.128 -0.162,0.377 -0.294,0.434 -0.023,-0.608 -0.159,-1.242 -0.151,-1.842 0.015,-1.276 0.291,-2.525 -0.011,-3.804 -0.485,1.066 -0.091,3.008 -0.348,3.676 -0.192,0.494 -1.079,1.102 -1.426,1.547 -0.836,1.073 -1.43,3.136 -3.646,4.276 0.643,-2.308 1.987,-3.588 1.68,-6.695 -0.651,2.186 0.067,2.003 -1.48,4.242 -0.558,0.811 -1.14,1.649 -1.789,2.392l0.955 -1.996 -0.132 -0.083c-2.817,1.12 -3.099,2.332 -5.182,3.593 -1.966,1.189 -4.061,1.547 -6.17,2.329l-0.034 0.098c0.286,0.196 0.54,0.166 0.879,0.215 -0.702,0.29 -1.46,0.498 -2.144,0.83l-2.845 1.514c-0.61,0.343 -0.802,0.815 -1.495,0.32 -1.833,0.693 -3.312,1.262 -5.314,0.767 0.202,-0.403 -0.029,-0.362 0.597,-0.367 0.532,-0.007 0.985,0.076 1.453,-0.188 -0.517,0.03 -1.386,0.196 -1.808,-0.117l0.072 -0.117c1.549,-0.299 1.509,-0.014 3.185,-0.419l-0.03 0.155 -0.087 0.053 0.381 0.128 1.476 -0.242 -0.008 -0.007c0.472,-0.223 0.947,-0.408 1.4,-0.676 0.483,-0.283 0.981,-0.687 1.514,-0.864 0.2,-0.068 0.377,-0.155 0.566,-0.245 -0.701,-0.177 -0.45,-0.046 -1.325,0.309 -0.532,0.215 -1.31,0.453 -1.88,0.468 1.095,-1.008 2.287,-2.155 3.152,-3.355l-0.091 -0.102c-2.523,2.078 -4.173,4.682 -7.786,3.201 -1.198,-0.492 -3.87,-2.642 -4.74,-3.661l-1.54 -2.683c-0.155,-0.355 -0.215,-0.744 -0.351,-1.106l-1.17 -2.883c0.053,-0.412 0.023,-0.714 -0.226,-1.069 -0.223,-0.313 -0.506,-0.434 -0.533,-0.841 -0.196,-2.902 -0.079,-5.914 0.05,-8.816 0.015,-0.31 0.162,-0.646 0.275,-0.933 0.948,-2.396 4.419,-4.813 6.937,-5.046 1.926,-0.178 3.482,0.544 5.329,0.695l5.298 0.653c3.073,0.681 5.294,0.597 7.469,3.245 0.351,0.427 0.623,0.917 0.993,1.333 0.97,1.086 2.34,2.053 3.642,2.698l0.17 -0.06 0.109 -0.249c-1.245,-0.872 -2.487,-1.574 -3.479,-2.755 -0.45,-0.533 -0.797,-1.159 -1.261,-1.676 -3.119,-3.484 -8.291,-2.894 -12.662,-3.574 -1.747,-0.272 -3.346,-1.215 -4.31,-2.744 -0.896,-1.419 -0.354,-2.497 1.042,-3.284 1.444,-0.814 4.661,-0.075 5.547,0.642 0.733,0.596 1.201,1.396 2.136,1.713 2.069,0.702 4.394,-0.018 6.416,0.699 0.601,0.213 2.992,2.947 4.039,3.827 1.098,0.921 2.456,1.513 3.566,2.46 1.001,0.856 2.065,2.829 4.325,3.174 1.631,0.261 3.291,0.193 4.933,0.178 2.238,-0.023 4.872,0.23 6.854,-1.012 0.917,-0.573 1.509,-1.438 2.362,-2.06 0.672,-0.495 1.566,-0.759 2.34,-1.057 0.047,-0.029 0.228,-0.277 0.679,-0.351l2.125 -0.589 1.842 -0.615 0.377 -0.144c0.054,-0.307 0.566,-1.054 1.227,-0.709 0.002,0.001 0.335,0.391 0.804,-0.14l0.143 0.045 0.143 -0.132 0.404 0.106 2.434 -0.6 3.254 -0.559c1.389,-0.241 2.46,-0.592 3.906,-0.4 0.215,0.148 0.415,0.257 0.524,0.506 -0.124,0.362 -0.313,0.525 -0.656,0.687 -0.906,0.43 -2.568,0.204 -4.261,0.687 0.578,0 0.599,-0.077 1.045,0.09l0.046 0.144c-0.25,0.041 -0.351,0.06 -0.559,0.207 2.748,-0.206 5.431,-0.747 8.097,-0.525 0.059,-0.795 0.121,-1.598 0.184,-2.402 -1.297,-0.286 -2.627,-0.488 -3.858,-0.575 -4.926,-0.277 -5.02,-0.027 -10.356,-1.132 -0.057,-0.094 -0.758,-0.231 -0.913,-0.272 -0.94,-0.264 -1.88,0.275 -2.785,-0.057 -1.695,-0.625 -0.941,-1.648 0.305,-2.072 1.559,-0.528 3.129,-0.23 4.672,-0.619l1.612 -0.456c1.74,-0.468 3.246,-1.597 5.012,-2.019 0.794,-0.191 2.845,-0.085 3.178,-0.295 0.268,-0.309 0.317,-0.373 0.388,-0.777 0.311,-0.188 0.371,-0.19 0.525,-0.517 0.736,-1.544 1.042,-2.865 0.468,-4.525 -0.986,-3.461 -4.228,-7.747 -6.891,-10.07 -1.597,-1.392 -3.34,-2.551 -5.065,-3.77 -0.403,0.121 -1.323,0.335 -1.623,-0.038 -0.192,-0.369 -0.434,-0.694 -0.317,-1.113l0.189 -0.075 1.83 1.083 5.488 2.887c1.139,0.623 4.495,3.297 6.053,2.88 0.385,-0.155 0.634,-0.321 0.932,-0.612l0.08 0.151c-0.282,0.897 -0.541,0.553 -0.955,0.928 0.686,0.144 1.282,-0.559 1.626,0.295 0.26,0.643 0.236,2.404 1.363,4.197 0.144,0.231 0.261,0.305 0.496,0.359l0.256 -2.582c0.335,-3.371 0.725,-7.271 1.129,-10.909l-0.057 -0.055c0.029,-0.181 0.041,-0.247 0.098,-0.31 0.103,-0.929 0.208,-1.839 0.313,-2.716 0.528,-4.411 1.061,-8.002 1.512,-10.619l0.05 -0.293c-1.674,-1.918 -3.507,-3.691 -5.42,-5.25 -1.446,-1.177 -3.031,-2.219 -4.567,-3.279 -4.476,-3.183 -7.122,-3.829 -11.526,-5.918l-3.393 -1.729 1.272 -0.007c-1.302,-0.578 -2.868,-0.906 -4.261,-1.212 -8.472,-1.863 -19.951,-1.756 -27.682,3.039 2.883,0.312 4.576,3.489 2.838,4.615 -0.618,0.4 -1.807,0.144 -2.272,-0.705 -0.487,-0.887 -0.559,-1.955 -1.657,-2.344 -1.652,-0.59 -2.623,1.389 -3.02,2.732 -1.073,3.644 0.898,7.329 -0.849,8.318 -1.233,0.699 -3.589,-1.346 -3.589,-4.034 0,-1.334 0.399,-1.908 -0.66,-2.333 -1.852,-0.741 -6.495,2.835 -3.684,8.556 1.488,3.029 2.771,4.283 1.743,8.254 -0.166,0.642 -0.4,1.325 -0.434,1.989 -0.233,4.677 5.435,8.912 9.326,10.069l0.246 -0.305 1.981 0 0.143 0.233 -0.094 0.14 -0.425 0.001c0,0 -0.117,0.215 -0.117,0.215l1.385 0.445 -0.155 0.099c3.429,0.989 5.566,0.953 8.96,3.241 1.815,1.219 3.446,2.891 5.778,3.038 0.951,0.061 2.019,-0.203 2.956,-0.377 1.411,-0.264 3.358,0.645 4.728,1.008 2.03,0.537 2.457,0.422 4.465,1.826 1.268,0.891 2.17,2.646 2.574,4.11 0.589,2.576 0.279,6.673 -3.069,7.243 -2.045,0.347 -4.087,-0.551 -5.989,-1.182 -5.779,-1.972 -7.72,-2.8 -13.19,-5.551 -1.861,-0.936 -5.56,-2.963 -7.183,-4.303 -0.199,-0.166 -0.543,-0.57 -0.784,-0.589 0.026,0.662 0.985,1.768 1.411,2.238l1.864 2.623c1.203,1.77 2.29,3.848 0.14,5.367 -1.936,1.368 -5.82,-0.27 -7.801,-1.06 -2.642,-1.049 -5.816,-2.246 -7.416,-4.759 -0.815,-1.287 -1.683,-2.646 -2.378,-3.997 -0.479,-0.932 -0.789,-2.136 -1.396,-2.985 -0.698,-0.971 -1.365,-1.102 -2.861,-3.186 -0.51,-0.713 -0.917,-1.509 -1.366,-2.261l-3.25 -5.347c-0.506,-0.804 -1.355,-1.446 -1.959,-2.182 -0.358,-0.438 -0.649,-1 -0.94,-1.487 -1.113,-1.857 -1.901,-3.849 -1.335,-6.061 0.154,-0.6 0.652,-1.192 1.203,-1.472 0.317,-0.162 0.691,-0.249 1.031,-0.347 0.691,0.373 1.276,0.936 1.887,1.423 3.207,2.548 4.72,4.196 5.77,7.956 0.106,0.377 0.114,0.838 0.291,1.185l0.079 -0.053c0.038,-2.061 -0.83,-4.544 -2.008,-6.22 -0.558,-0.796 -1.241,-1.517 -1.728,-2.366 -0.574,-0.996 -0.955,-2.17 -1.491,-3.2 -0.219,-0.423 -0.555,-0.785 -0.808,-1.185l-0.864 -1.48 -1.615 -4.299c-0.8,-1.706 -2.253,-3.098 -3.167,-4.744 -0.972,-1.751 -1.482,-5.25 -3.906,-5.797 -2.176,-0.491 -4.908,2.204 -2.517,5.537 1.098,1.536 2.948,2.363 4.408,3.487 2.215,1.706 4.095,4.967 3.68,7.82 -0.209,1.437 -1.839,5.063 -2.498,6.582 -0.185,0.412 -0.45,0.789 -0.623,1.208 -0.274,0.663 -0.899,3.447 -2.148,3.159 -0.343,-0.08 -0.721,-0.51 -0.883,-0.812 -0.542,-0.992 0.103,-3.373 -0.524,-5.77 -0.47,-1.795 -1.995,-4.465 -3.235,-5.809 -2.852,-3.089 -8.463,-5.56 -12.473,-7.68 -0.751,-0.404 -1.479,-0.868 -2.261,-1.211l-0.045 0.064 3.389 2.06c2.478,1.578 8.922,6.695 10.715,8.941 4.108,5.149 0.93,7.38 2.083,12.594 0.463,2.094 2.353,3.935 2.393,6.333l-0.027 3.321 0 23.196c-0.004,1.06 0.159,2.155 0.095,3.204 -0.049,0.861 -0.348,1.759 -0.472,2.619 -0.24,0.468 -1.768,0.077 -2.374,-0.596 -1.63,-1.809 0.524,-3.802 -2.329,-7.005 -1.136,-1.272 -2.517,-2.276 -3.838,-3.34 -1.328,-1.068 -2.936,-2.706 -4.687,-3.034 -0.448,-0.084 -1.885,-0.996 -2.25,-1.291 -1.487,-1.202 -1.879,-1.806 -4.219,-2.151 -0.389,-0.057 -0.793,-0.057 -1.174,-0.17 -0.857,-0.261 -1.653,-0.929 -2.124,-1.68 -0.469,-0.743 -0.238,-1.524 -0.57,-2.222 -0.106,1.452 0.067,2.404 1.049,3.54 1.532,1.774 3.911,0.511 6.046,2.494 0.562,0.525 0.962,1.37 1.423,1.997 -1.149,0.615 -2.805,1.174 -1.733,2.826 0.838,1.284 2.816,2.321 4.284,2.605 1.172,0.227 4.078,0.419 4.683,0.626 1.031,0.351 2.084,1.174 2.699,2.061 1.456,2.096 0.256,3.541 2.766,7.442 0.721,1.121 3.608,4.937 4.839,5.17 1.206,0.229 1.813,-0.811 2.094,-1.8 0.146,-0.512 -1.227,-2.958 -1.476,-3.853 -0.207,-0.749 -0.16,-4.276 -0.188,-5.227l-0.193 -4.329 0.019 -5.861 -0.105 -4.171c2.082,0.944 3.144,3.753 3.906,4.243 0.166,0.105 0.422,0.079 0.611,0.067 0.348,-0.573 -0.147,-1.296 -0.532,-2.015 -1.021,-1.909 -3.201,-5.521 -3.608,-7.36 -0.121,-0.547 -0.125,-1.169 -0.155,-1.728 1.027,0.543 1.763,1.366 2.597,2.155 2.017,1.829 1.588,1.265 3.555,3.646 2.543,3.079 3.198,4.407 2.106,8.435 0.245,-0.502 0.577,-1.049 0.66,-1.604 0.359,-2.359 -0.177,-4.948 -1.69,-6.839 -1.208,-1.502 -2.74,-2.763 -3.892,-4.302 -2.958,-3.958 -3.43,-5.643 -3.43,-10.164 0,-1.108 -0.095,-2.04 0.09,-3.151 0.302,-1.809 1.644,-3.385 3.646,-2.974 1.964,0.402 2.784,3.27 3.238,4.932 0.555,2.025 0.532,2.325 -0.279,4.152 2.617,1.674 2.714,1.788 4.039,4.94 2.703,6.435 2.341,8.655 -1.755,14.764 0.948,-0.054 1.035,-0.973 2.381,-2.207 -0.266,0.772 -1.783,3.405 -2.242,4.027 -1.09,1.475 -2.675,2.743 -2.925,4.691 -0.071,0.551 0.14,1.347 0.246,1.898 0.053,0.283 0.075,0.529 -0.072,0.785 0.245,1.865 -0.109,3.627 -0.366,5.48 -0.45,3.26 -0.796,6.297 -2.382,9.194 -0.886,1.62 -3.368,4.534 -3.487,5.51 0.606,-0.449 2.738,-2.068 3.503,-1.974 0.181,0.023 0.347,0.072 0.517,0.136 -0.012,0.188 -0.253,1.101 -0.634,1.159 -1.087,0.17 -1.925,0.641 -2.948,0.936l0.642 -0.015c-0.219,0.475 -1.087,0.833 -1.517,1.151 -0.544,0.396 -1.065,0.849 -1.563,1.305 0.617,0.137 2.214,1.663 2.789,2.129 1.99,1.61 3.218,2.252 5.227,3.461 3.067,1.845 3.621,4.336 4.567,4.646 0.392,0.128 1.011,-0.114 1.328,-0.329 0.666,-0.448 1.254,-2.735 2.397,-3.121 0.601,-0.203 3.121,0.242 3.815,0.351 0.763,0.132 1.529,0.442 2.269,0.675 2.728,0.872 5.181,1.854 6.917,4.276 1.197,1.669 1.827,4.114 1.797,6.145 -0.023,1.475 -0.272,2.944 -0.261,4.427 -0.264,0.966 -1.283,2.921 -0.758,3.853 0.421,0.746 1.386,0.998 1.691,0.796 0.204,-0.203 0.596,-0.532 0.702,-0.807l0.079 -2.619 0.008 0c0.512,-3.327 1.297,-2.976 1.849,-3.796l0.155 0.233 -0.012 -0.422 0.189 -0.189c0.159,0.238 0.03,0.374 0.189,0.611 0,0.223 -0.034,0.28 0.094,0.472 0,0.2 -0.023,0.2 0.094,0.378l0.189 0.849c0.071,0.185 0.041,0.417 0.283,0.611l-0.211 0.144 0.309 1.226 0.094 0.045c-0.004,-0.441 -0.038,-0.868 0.117,-1.294 0.369,-0.793 -0.808,-2.014 0.634,-3.514 -0.271,1.245 -0.365,1.905 0.121,3.299l0.121 0.045c0.162,-0.181 0.305,-0.358 0.509,-0.494l0.106 -0.54 -0.113 -0.143c0.087,-0.423 0.309,-0.774 0.517,-1.148 0.023,-0.177 0.049,-0.298 0.147,-0.453 0.17,-0.268 0.627,-0.558 0.936,-0.596 -0.713,2.733 -1.991,3.618 0.11,7.39 0.286,0.513 0.732,0.857 1.275,1.061 0.682,0.02 0.772,-1.811 0.797,-2.205l0.158 -2.517c-0.174,0.344 -0.151,0.717 -0.253,1.079 -0.283,1.027 -0.075,2.091 -0.294,3.125 -0.698,-1.517 -0.789,-3.076 -0.823,-4.725 0.151,-0.811 0.476,-1.638 0.359,-2.468 -0.171,-1.346 -0.079,-2.826 -0.993,-3.57 -0.909,0.823 -1.845,1.808 -2.585,2.781 0.117,-1.23 1.589,-2.426 2.442,-3.223l0.392 0.246 0.562 -0.087c0.552,0.491 0.506,1.234 0.555,1.917l0.06 0.929 0.053 1.049 0.144 -0.046c0.053,-0.245 0,-0.747 0.181,-0.883 0.399,0.506 0.728,0.867 0.804,1.48l0.132 -0.329c0.887,0 1.249,2.133 1.487,2.653 0.238,1.159 0.17,2.352 0.408,3.488 0.101,0.479 0.332,0.936 0.536,1.381 0.596,0.094 1.082,0.497 1.479,-0.351 0.668,-1.438 0.491,-2.947 0.966,-4.423 0.357,-1.087 -1.05,-3.19 -1.23,-4.472 -0.057,-0.582 0.12,-1.231 0.268,-1.789 0.068,1.061 0.094,2.019 0.588,2.989 0.915,1.689 0.568,0.496 0.967,1.359 0.898,1.943 -0.12,5.524 0.528,6.665 0.34,0.6 1.102,0.758 1.717,0.936 1.214,-0.842 1.062,-3.074 1.136,-4.401 0.034,-0.6 0.125,-1.185 0.231,-1.777 -0.646,0.967 -0.406,1.579 -0.601,3.045 -0.056,0.348 -0.524,0.755 -0.789,0.963 -0.101,0.275 -0.222,0.513 -0.369,0.766l-0.076 -0.094 0.174 -3.706c0.096,-2.399 0.112,-2.783 0.815,-4.971 0.061,-0.189 0.076,-0.408 0.245,-0.513 0.295,0.619 0.336,1.385 0.4,2.06 0.809,0.397 0.304,0.812 0.34,1.906l0.427 -1.147c0.309,0.343 0.709,0.717 0.917,1.132 0.509,1.017 0.525,2.592 0.449,3.71l-0.019 -0.001c-0.334,1.457 0.166,2.61 1.261,3.563l0.566 -0.427c1.004,-0.92 0.925,-2.574 0.989,-3.834l0.253 -4.646c0.06,-0.023 0.034,-0.577 0.188,-0.766 0.185,0.125 0.159,0.143 0.234,0.344 1.491,2.475 1.691,5.785 1.453,8.586 0.018,0.492 0.511,0.788 0.559,1.339 0.106,1.159 -0.227,2.287 -0.257,3.439 -0.098,3.623 0.314,7.453 -0.483,11.016 -0.17,0.759 -0.426,1.495 -0.562,2.261 -0.187,1.058 -0.26,4.137 -0.174,5.329l0.091 19.131c0.098,0.702 0.102,1.369 0.453,2.008 0.151,0.498 0.072,1.083 0.121,1.604 0.111,1.154 0.467,1.476 -0.004,2.487l-0.155 -0.034c-0.091,-0.408 -0.049,-0.857 -0.046,-1.276l-0.143 -0.079 0 1.521c0.441,0.216 0.801,-0.051 0.898,-0.359 0.008,-0.26 -0.019,-0.532 0.099,-0.77l0.245 -25.044c0.018,-1.121 -0.195,-3.957 0.774,-4.593 0.715,-0.471 1.192,0.628 1.192,0.63 -0.109,0.8 -0.037,1.668 -0.034,2.476 0.232,-0.777 0.228,-1.189 0.219,-1.978l0.476 -0.253c0,0.827 -0.094,1.784 0.222,2.287l-0.056 -23.248c-0.539,-0.096 -0.203,-1.492 -0.129,-2.061 0.148,-1.143 0.272,-2.272 0.563,-3.389 0.26,0.536 0.468,0.993 0.517,1.593l0.864 -1.166c0.336,-0.291 0.502,-0.291 0.917,-0.272 0.186,-0.904 0.432,-1.233 1.083,-1.94 -0.093,0.978 -0.192,1.552 -0.068,2.548 0.075,0.599 1.148,2.86 -0.498,3.4l1.076 0.97c-0.502,0.535 -0.778,1.893 -1.476,1.917 -0.306,0.011 -0.645,-0.075 -0.947,-0.124l0.89 1.098 0.133 -0.091c0.724,-0.038 0.909,-0.215 1.49,-0.57 0.242,0.057 0.416,0.125 0.627,0.25 0.034,-0.012 0.041,-0.057 0.06,-0.087 1.738,-2.781 -1.083,-5.069 -0.339,-9.118l1.037 3.457 0.087 -0.412c0.434,0.178 0.698,0.853 0.929,1.25l0.192 -0.242c-0.256,-1.003 -0.129,-1.083 0,-1.936l0.325 0.185 0.652 -0.279c-0.774,-0.88 -1.06,-1.624 -0.955,-2.804 0.144,-1.623 0.937,-3.28 1.759,-4.665l0.019 0.014c0.963,-1.623 1.925,-3.046 3.412,-4.257 4.392,-3.578 4.995,-1.535 5.876,-1.566 0.921,-0.033 1.784,-0.281 2.706,-0.322zm-48.594 56.091c-0.537,-0.292 -0.872,0.494 -0.82,0.676 0.157,0.546 1.116,0.75 1.151,-0.189 0.008,-0.208 -0.158,-0.393 -0.331,-0.487zm-66.737 -92.291c-0.524,-0.315 -0.977,0.141 -1.14,0.642 0.139,0.238 0.226,0.351 0.46,0.513 0.365,0.114 0.983,-0.167 1.038,-0.562l-0.358 -0.593zm75.134 95.333c-0.324,0.036 -0.762,0.074 -0.898,0.562 -0.191,0.682 -0.279,3.517 0.898,2.948 0.456,-0.22 1.021,-2.516 0.317,-3.279 -0.087,-0.095 -0.208,-0.163 -0.317,-0.231l0 0zm0.539 -29.811c-0.056,-0.596 -0.268,-0.921 -0.649,-1.366l-0.196 -0.015c-0.426,0.752 -0.159,1.465 -0.132,2.426l0.027 15.029 0.131 0.151c0.48,-0.007 0.887,0.065 0.891,-0.461l-0.06 -8.276c-0.006,-2.751 0.235,-4.594 -0.012,-7.488l0 0zm-10.133 -6.382c-0.181,-0.834 -0.608,-1.649 -1.06,-2.366l-0.238 4.876 0.158 7.246c0.019,1.664 -0.087,3.366 0.136,5.016l0.234 0.139 0.313 -0.245c0.14,0.087 0.204,0.151 0.295,0.287l0.124 -0.129c-0.169,-0.513 -0.03,-0.792 0.083,-1.279 0.272,-1.174 0.253,-2.438 0.28,-3.634l-0.159 -7.322c-0.049,-0.849 0.015,-1.751 -0.166,-2.582l0 -0.007zm1.355 -9.088l0.075 3.151 0.333 -0.011c0.149,-0.465 0.051,-1.387 0.041,-1.91 0.102,0.34 0.091,0.457 0.378,0.676l0.166 -0.102c-0.084,-0.615 -0.306,-1.264 -0.672,-1.77l-0.321 -0.034zm43.526 34.872c-0.916,-0.158 -2.094,1.048 -1.008,2.004 1.327,1.167 2.514,-0.413 1.703,-1.558l-0.695 -0.446zm-59.441 -108.01c2.074,0.168 2.27,-2.478 0.66,-2.713 -2.26,-0.331 -2.113,2.59 -0.66,2.713zm-13.028 98.111c1.554,0.482 2.15,-2.167 1.045,-3.091 -0.621,-0.52 -1.763,0.348 -2.072,1.019 -0.667,1.45 0.819,2.08 1.027,2.072zm-20.467 -97.247c1.237,1.007 8.134,6.745 8.869,7.137l-2.842 -2.461c-1.582,-1.172 -3.094,-1.773 -3.744,-3.804 -0.125,-0.389 -0.09,-0.804 -0.215,-1.189 -0.204,-0.634 -1.027,-1.868 -1.74,-1.962 -0.196,-0.027 -0.404,0 -0.593,0.049 -0.279,0.264 -0.52,0.547 -0.543,0.951 -0.03,0.509 0.472,0.959 0.808,1.279zm91.242 112.679c-0.46,0.039 -1.646,0.474 -1.8,0.698 -0.257,0.959 -0.555,1.457 -0.023,2.37 0.214,0.368 0.363,0.62 0.823,0.672 1.462,0.168 2.192,-0.717 2.196,-2.004 0.003,-0.866 -0.393,-1.678 -1.2,-1.736l0.004 0zm-58.249 -29.4c-0.906,-0.638 -2.144,-1.309 -2.778,-2.234 -1.068,-1.551 -0.747,-4.053 -2.238,-5.401 -1.881,-1.698 -5.405,-1.483 -8.258,-7.216 -0.196,-0.396 -0.305,-0.826 -0.505,-1.223 -0.355,-0.698 -0.748,-1.347 -1.027,-2.079 -0.766,-2.012 -1.377,-4.087 -2.506,-5.941 -0.74,-1.215 -1.649,-2.279 -2.472,-3.438 -0.445,-0.626 -0.811,-1.351 -1.298,-1.94 -0.857,-1.037 -2.333,-1.826 -2.861,-3.106 -0.197,-0.476 -0.364,-1.144 -0.132,-1.615 1.925,-3.912 1.276,-6.118 -2.253,-8.873 -1.797,-1.4 -3.627,-2.4 -5.578,-3.544l-1.536 -0.954c-0.321,-0.182 -0.71,-0.276 -1.012,-0.464 -0.396,-0.246 -0.698,-0.548 -1.132,-0.744 -0.565,-0.254 -1.586,-1.125 -1.925,-1.543 -1.238,-1.544 -1.404,-3.005 -1.411,-4.914 -0.916,2.969 0.703,5.217 2.778,7.068 3.133,2.795 5.474,3.529 6.634,8.265 0.627,2.557 -0.203,7.48 -2.241,7.817 -0.865,0.143 -1.838,-0.563 -2.601,-0.868 -0.917,-0.37 -2.245,-0.763 -3.027,-1.385 -1.018,-0.812 -1.001,-2.364 -1.154,-2.786 -0.282,1.399 0.373,2.833 1.234,3.876 0.385,0.465 0.849,0.872 1.26,1.314l1.155 1.351 2.431 2.423c2.916,2.928 3.973,4.083 7.74,6.057 1.102,0.578 2.246,1.057 3.325,1.687 5.378,3.148 7.792,7.881 8.001,14.033 0.033,0.966 0.074,2.297 -0.49,3.162 -2.544,3.903 -7.278,-3.126 -10.156,-5.004 -3.249,-2.12 -8.85,-1.967 -10.972,1.37 -2.07,3.254 -0.664,6.729 1.816,9.273 1.389,1.426 2.958,2.502 4.706,3.43 6.701,3.562 8.72,1.397 14.862,0.653 0.525,-0.064 1.148,-0.192 1.672,-0.158 0.872,0.06 2.231,1.166 2.706,1.872 3.974,5.89 -1.397,10.683 -4.249,9.548 -1.355,-0.539 -1.959,-2.37 -3.552,-1.812 -2.699,0.948 -1.443,4.938 1.272,5.918 3.735,1.349 6.208,-1.025 9.3,-2.83 4.195,-2.451 7.719,-3.844 9.669,-9.243 0.536,-1.483 1.03,-3.091 0.774,-4.687 -0.34,-2.106 -2.318,-3.971 -3.971,-5.133l0 0.018zm24.965 -110.641l0.087 0.219c-0.639,0.445 -1.579,1.272 -1.958,1.132 0,-0.941 0.399,-1.192 1.524,-1.418 0.17,-0.023 0.196,0.003 0.351,0.064l-0.004 0.003zm-6.22 10.549c1.253,0.291 0.787,1.533 -0.622,2.14 -0.974,0.419 -1.211,-0.092 -1.502,-0.559 0.323,-0.97 1.105,-1.164 2.124,-1.581zm-2.581 -9.526c-1.988,-0.617 -1.447,-3.617 0.185,-3.264 1.524,0.329 2.509,2.671 0.638,3.279 -0.279,0.053 -0.551,0.076 -0.826,-0.011l0.003 -0.004zm32.223 -11.719c0.458,-0.425 0.545,-0.582 0.785,-1.147 0.5,0.01 1.414,0.03 1.846,0.261 0.615,0.317 1.521,0.411 2.2,0.551 -2.045,0.923 -2.172,0.696 -3.985,0.69 -0.388,-0.001 -0.693,0.115 -1.035,-0.064 0.031,-0.143 0.08,-0.185 0.189,-0.287l0 -0.004zm-2.804 23.891c0.739,-1.23 2.429,0.525 2.91,1.207 0.434,0.664 0.664,1.279 0.826,2.049 -0.064,0.133 -0.053,0.163 -0.185,0.238 -0.438,-0.566 -0.664,-1.32 -0.89,-1.989l-0.48 0.283c-0.502,-0.758 -1.8,-0.951 -2.181,-1.788zm-22.263 29.887c0.153,-1.016 1.487,-1.153 2.241,-1.02 1.156,0.204 3.667,1.761 4.541,2.537 1.317,1.17 2.223,2.611 3.242,4.03 0.932,-0.083 1.857,-0.456 2.694,-0.86 1.212,-0.374 3.318,-1.336 4.54,-0.657 0.985,0.547 1.359,2.106 0.951,2.729 -2.56,3.906 -4.312,3.372 -8.48,3.34 -1.786,-0.014 -3.04,0.169 -4.804,-0.279 -0.842,-0.223 -1.17,-0.702 -1.615,-1.416 -0.276,-0.664 -0.755,-1.283 -1.099,-1.921 -0.641,-1.188 -1.124,-2.377 -1.604,-3.634 -0.321,-0.842 -0.74,-1.936 -0.607,-2.849zm-32.159 39.68c-0.498,0.441 -2.46,-1.004 -2.853,-1.649 -0.378,-0.621 0.465,-1.491 1.404,-1.604 0.585,-0.071 1.78,0.929 1.815,1.947 0.015,0.419 -0.034,1.004 -0.37,1.306l0.004 0zm8.846 -4.563c-2.462,0.661 -3.369,0.639 -5.993,0.227 -2.893,-0.455 -0.978,-0.404 -3.808,-0.144 -0.785,0.072 -1.593,0.057 -2.381,0.072 -0.295,-0.177 -0.48,-0.453 -0.691,-0.717l1.717 -0.4c2.684,-0.54 5.242,0.524 7.915,0.728l-0.151 -0.608 0.101 -0.075c-0.216,-0.423 -1.305,-1.532 -0.445,-1.778 0.613,0.502 0.503,0.687 0.608,0.808 0.524,0.328 1.045,0.811 1.592,1.076 0.298,0.143 0.819,0.234 1.159,0.324l-0.072 0.087 0.163 0.015c0.282,-0.196 0.841,-0.188 1.188,-0.234 0.518,-0.068 1.031,-0.181 1.54,-0.283 0.551,-0.189 1.181,-0.49 1.767,-0.498 -0.312,0.691 -1.622,0.996 -2.322,1.068 -0.626,0.083 -1.294,0.087 -1.887,0.332zm12.006 7.269c-0.693,-0.283 -2.4,0.258 -4.62,-1.068 -0.751,-0.468 -1.43,-1.143 -2.279,-1.43 -1.659,-0.566 -3.776,-0.437 -4.141,-0.71l-0.015 -0.249c0.676,-0.521 2.223,-0.627 3.084,-0.785 2.101,-0.389 3.974,-1.128 5.638,-0.136 0.789,0.472 1.114,1.185 1.646,1.898 1.348,1.812 1.529,1.862 0.687,2.48zm6.004 -6.163c-0.513,1.623 -2.513,2.38 -3.853,2.917 0,0.046 -0.798,1.286 -2.823,-0.536 -0.419,-0.377 -0.736,-0.766 -0.762,-1.335 -0.348,-0.465 -0.646,-0.929 -0.842,-1.476 0.253,-1.125 0.573,-2.004 1.619,-2.646 1.697,-1.038 5.282,-1.233 6.42,0.74 0.351,0.608 0.453,1.661 0.238,2.336l0.003 0zm19.146 25.268l-0.17 0.113c-0.347,-0.378 -0.555,-0.77 -0.826,-1.201l-0.065 -3.007c0.129,-0.563 0.521,-1.159 0.797,-1.665l0.136 -0.019c0.367,0.671 0.341,3.334 0.43,4.243 0.116,1.18 -0.302,1.337 -0.302,1.536zm1.245 -5.567c-0.124,0.758 -0.049,1.543 -0.26,2.287l-0.189 0.045c-0.041,-0.128 -0.071,-0.309 -0.143,-0.419 0.038,-0.596 -0.049,-1.423 -0.193,-2.008 -0.223,-0.91 -1.136,-2.775 -0.196,-3.491l1.253 1.937c-0.049,0.581 -0.177,1.086 -0.272,1.652l0 -0.003zm3.057 -5.326c-0.232,0.668 -0.074,1.321 -0.532,1.676 -1.659,-0.253 -1.115,-2.425 -0.679,-2.721 0.098,-0.066 0.745,-0.357 1.064,-0.234 0.768,0.297 0.555,0.777 0.147,1.28l0 -0.001zm6.983 -12.114c-0.289,-0.062 -0.413,-0.279 -0.454,-0.582 0.151,-0.192 0.28,-0.298 0.487,-0.43 -0.351,-0.492 -0.786,-0.84 -1.03,-1.355 0.65,0.283 1.532,0.75 1.585,1.536 -0.034,0.389 -0.324,0.563 -0.589,0.83l0.001 0.001zm0.901 -8.579l0.355 -0.472 2.997 1.216c1.487,0.437 2.846,1.015 4.204,1.758 0.872,0.268 1.789,0.544 2.601,0.97 -0.442,0.433 -2.025,-0.27 -2.322,-0.328l-2.155 0.007 -1.275 -1.098c-0.268,-0.022 -0.453,-0.2 -0.661,-0.354l-3.744 -1.699z"/>
   </g>
  </g>
  <path fill="none" d="M136.796 295.988c2.461,-0.097 4.626,-0.225 7.017,-0.355 2.39,-0.131 5.006,-0.265 8.261,-0.493 3.256,-0.228 7.151,-0.55 10.471,-0.852 3.319,-0.302 6.061,-0.583 8.794,-0.949 2.732,-0.365 5.455,-0.814 7.654,-1.25 2.2,-0.436 3.876,-0.858 6.001,-1.331 2.126,-0.473 4.701,-0.996 6.595,-1.321 1.894,-0.325 3.108,-0.453 4.268,-0.536 1.16,-0.084 2.267,-0.124 3.155,-0.117 0.889,0.008 1.559,0.063 1.956,0.094 0.396,0.031 0.518,0.038 0.611,0.043 0.049,0.002 0.09,0.004 0.127,0.006 0.093,-0.07 0.162,-0.18 0.177,-0.779 0.016,-0.673 -0.037,-1.966 -0.106,-2.786 -0.069,-0.819 -0.154,-1.166 -0.285,-1.855 -0.131,-0.689 -0.307,-1.72 -0.651,-2.686 -0.345,-0.965 -0.858,-1.866 -1.476,-3.045 -0.619,-1.179 -1.343,-2.638 -1.783,-3.616 -0.44,-0.978 -0.596,-1.476 -0.848,-2.693 -0.251,-1.217 -0.598,-3.153 -0.953,-5.871 -0.354,-2.718 -0.716,-6.219 -1.038,-8.884 -0.322,-2.666 -0.603,-4.496 -1.081,-7.559 -0.478,-3.062 -1.152,-7.357 -1.71,-11.521 -0.558,-4.164 -1.001,-8.198 -1.348,-12.226 -0.347,-4.028 -0.598,-8.051 -0.759,-11.637 -0.161,-3.586 -0.231,-6.734 -0.287,-9.787 -0.055,-3.052 -0.095,-6.01 -0.156,-9.258 -0.06,-3.249 -0.14,-6.79 -0.108,-12.037 0.033,-5.248 0.179,-12.203 0.352,-17.466 0.174,-5.263 0.375,-8.834 0.652,-12.807 0.276,-3.973 0.628,-8.348 0.975,-12.271 0.347,-3.922 0.689,-7.393 1.122,-11.743 0.432,-4.35 0.955,-9.58 1.483,-13.99 0.528,-4.411 1.061,-8.002 1.512,-10.619 0.45,-2.618 0.817,-4.262 1.139,-5.308 0.321,-1.046 0.598,-1.494 0.803,-1.766 0.205,-0.271 0.338,-0.367 0.405,-0.414 0.066,-0.048 0.066,-0.048 0.049,0.598 -0.018,0.646 -0.053,1.939 -0.108,3.533 -0.056,1.594 -0.131,3.49 -0.173,4.967 -0.041,1.478 -0.049,2.536 -0.079,3.186 -0.03,0.65 -0.083,0.892 -0.102,1.011 -0.018,0.119 -0.003,0.117 -0.041,0.151 -0.038,0.034 -0.128,0.104 -0.133,0.68 -0.005,0.576 0.075,1.657 0.192,3.051 0.117,1.395 0.27,3.102 0.322,4.786 0.051,1.683 0.001,3.343 0.002,4.231 0,0.887 0.052,1.003 0.132,1.078 0.08,0.076 0.188,0.111 1.001,0.06 0.814,-0.051 2.333,-0.188 4.105,-0.324 1.773,-0.137 3.8,-0.273 5.955,-0.431 2.155,-0.158 4.438,-0.339 6.588,-0.463 2.15,-0.123 4.166,-0.188 5.992,-0.299 1.826,-0.111 3.46,-0.267 5.336,-0.47 1.876,-0.204 3.993,-0.455 6.015,-0.682 2.021,-0.226 3.947,-0.427 5.109,-0.565 1.162,-0.139 1.559,-0.214 1.758,-0.327 0.199,-0.113 0.199,-0.264 0.229,-0.906 0.03,-0.641 0.09,-1.772 0.108,-3.132 0.017,-1.361 -0.008,-2.95 -0.023,-4.429 -0.015,-1.478 -0.02,-2.846 -0.038,-3.724 -0.017,-0.877 -0.047,-1.264 -0.071,-1.469 -0.025,-0.205 -0.043,-0.227 -0.083,-0.294 -0.04,-0.068 -0.103,-0.181 -0.174,-0.682 -0.071,-0.5 -0.152,-1.388 -0.255,-2.32 -0.103,-0.933 -0.229,-1.911 -0.348,-2.739 -0.12,-0.827 -0.233,-1.504 -0.413,-2.544 -0.179,-1.042 -0.426,-2.447 -0.613,-3.449 -0.187,-1.002 -0.316,-1.601 -0.436,-2.27 -0.121,-0.668 -0.234,-1.408 -0.366,-2.121 -0.132,-0.713 -0.283,-1.399 -0.425,-2.156 -0.142,-0.757 -0.275,-1.584 -0.375,-2.322 -0.099,-0.738 -0.165,-1.387 -0.239,-2.029 -0.074,-0.643 -0.157,-1.279 -0.257,-2.036 -0.101,-0.757 -0.219,-1.634 -0.34,-2.526 -0.121,-0.891 -0.244,-1.796 -0.353,-2.565 -0.11,-0.768 -0.205,-1.399 -0.373,-2.344 -0.168,-0.945 -0.408,-2.203 -0.82,-4.085 -0.412,-1.881 -0.995,-4.386 -1.704,-6.89 -0.709,-2.505 -1.544,-5.009 -2.651,-7.745 -1.106,-2.736 -2.484,-5.703 -4.093,-8.851 -1.61,-3.149 -3.45,-6.478 -4.878,-8.781 -1.429,-2.304 -2.444,-3.581 -3.453,-4.629 -1.008,-1.049 -2.009,-1.869 -3.015,-2.608 -1.006,-0.739 -2.017,-1.398 -2.582,-1.773 -0.566,-0.375 -0.687,-0.465 -0.756,-0.571 -0.069,-0.105 -0.087,-0.226 -0.095,-0.303 -0.009,-0.077 -0.009,-0.109 -0.07,-0.174 -0.06,-0.066 -0.181,-0.164 -1.307,-0.714 -1.127,-0.551 -3.259,-1.555 -5.31,-2.603 -2.05,-1.048 -4.019,-2.142 -5.77,-2.976 -1.752,-0.833 -3.286,-1.407 -5.061,-1.957 -1.775,-0.551 -3.792,-1.079 -5.429,-1.507 -1.637,-0.427 -2.894,-0.754 -3.762,-1.008 -0.867,-0.254 -1.345,-0.435 -2.044,-0.7 -0.699,-0.266 -1.619,-0.615 -2.606,-0.909 -0.987,-0.295 -2.041,-0.533 -2.716,-0.687 -0.675,-0.153 -0.972,-0.221 -1.44,-0.471 -0.467,-0.25 -1.106,-0.683 -1.581,-0.937 -0.475,-0.254 -0.787,-0.329 -1.073,-0.365 -0.285,-0.035 -0.544,-0.03 -0.777,-0.03 -0.232,0 -0.438,-0.005 -1.342,-0.33 -0.904,-0.326 -2.506,-0.972 -4.026,-1.577 -1.52,-0.605 -2.959,-1.168 -4.404,-1.748 -1.446,-0.579 -2.9,-1.175 -3.816,-1.569 -0.917,-0.393 -1.297,-0.584 -1.594,-0.779 -0.298,-0.194 -0.514,-0.392 -0.705,-0.497 -0.191,-0.105 -0.356,-0.116 -0.467,-0.117 -0.11,0 -0.164,0.01 -0.251,-0.004 -0.086,-0.014 -0.204,-0.052 -0.587,-0.292 -0.382,-0.24 -1.028,-0.682 -1.678,-1.193 -0.65,-0.51 -1.304,-1.089 -1.956,-1.661 -0.653,-0.572 -1.304,-1.138 -2.311,-1.569 -1.007,-0.431 -2.37,-0.728 -3.723,-0.919 -1.353,-0.191 -2.695,-0.276 -4.576,-0.354 -1.881,-0.078 -4.3,-0.149 -7.931,-0.131 -3.631,0.017 -8.474,0.123 -12.914,0.219 -4.439,0.096 -8.475,0.183 -10.597,0.231 -2.123,0.048 -2.332,0.058 -4.152,0.203 -1.82,0.145 -5.249,0.427 -7.404,0.671 -2.155,0.244 -3.035,0.45 -3.752,0.707 -0.717,0.256 -1.27,0.563 -1.886,1.078 -0.616,0.516 -1.295,1.24 -2.019,1.877 -0.725,0.638 -1.494,1.189 -1.953,1.46 -0.459,0.272 -0.607,0.264 -0.901,0.366 -0.295,0.102 -0.735,0.313 -1.268,0.582 -0.533,0.269 -1.159,0.596 -1.919,0.922 -0.761,0.325 -1.656,0.65 -2.301,0.904 -0.645,0.254 -1.04,0.437 -1.514,0.628 -0.474,0.192 -1.027,0.39 -1.765,0.621 -0.738,0.232 -1.661,0.496 -2.558,0.836 -0.896,0.341 -1.766,0.759 -2.573,1.076 -0.808,0.316 -1.552,0.533 -2.299,0.749 -0.746,0.216 -1.496,0.432 -2.053,0.655 -0.557,0.222 -0.921,0.451 -1.207,0.636 -0.285,0.185 -0.491,0.326 -0.999,0.476 -0.508,0.15 -1.318,0.31 -1.914,0.463 -0.596,0.154 -0.978,0.301 -1.488,0.492 -0.51,0.192 -1.147,0.429 -1.75,0.617 -0.603,0.189 -1.171,0.329 -1.687,0.459 -0.516,0.13 -0.98,0.248 -1.7,0.426 -0.719,0.179 -1.693,0.418 -2.551,0.633 -0.857,0.216 -1.598,0.408 -2.171,0.57 -0.573,0.161 -0.979,0.292 -1.436,0.426 -0.456,0.134 -0.963,0.271 -1.427,0.4 -0.465,0.129 -0.887,0.249 -1.312,0.377 -0.424,0.128 -0.85,0.262 -1.203,0.399 -0.353,0.137 -0.632,0.277 -1.012,0.437 -0.38,0.159 -0.862,0.339 -1.279,0.53 -0.417,0.191 -0.769,0.394 -1.165,0.602 -0.397,0.209 -0.838,0.424 -1.221,0.617 -0.382,0.194 -0.705,0.366 -1.126,0.589 -0.421,0.223 -0.941,0.495 -1.657,0.865 -0.717,0.371 -1.631,0.838 -2.694,1.37 -1.063,0.532 -2.275,1.128 -3.18,1.576 -0.905,0.448 -1.504,0.747 -2.037,1.087 -0.533,0.341 -1.001,0.723 -1.443,1.08 -0.443,0.358 -0.86,0.689 -1.353,1.079 -0.493,0.39 -1.061,0.837 -1.779,1.475 -0.718,0.637 -1.586,1.465 -2.375,2.331 -0.79,0.866 -1.501,1.771 -2.145,2.665 -0.644,0.894 -1.22,1.777 -1.924,2.935 -0.704,1.158 -1.536,2.591 -2.208,3.821 -0.671,1.229 -1.181,2.255 -1.732,3.264 -0.551,1.008 -1.141,1.999 -1.644,2.942 -0.503,0.943 -0.918,1.838 -1.313,2.759 -0.395,0.922 -0.77,1.87 -1.152,2.756 -0.382,0.887 -0.772,1.712 -1.285,3.043 -0.513,1.331 -1.149,3.17 -1.716,4.911 -0.567,1.741 -1.065,3.386 -1.49,4.836 -0.425,1.451 -0.777,2.709 -1.129,4.225 -0.352,1.516 -0.704,3.291 -1.144,5.668 -0.44,2.376 -0.968,5.353 -1.29,7.073 -0.322,1.72 -0.438,2.183 -0.543,2.673 -0.106,0.491 -0.201,1.009 -0.4,1.833 -0.198,0.825 -0.5,1.957 -0.807,3.143 -0.307,1.187 -0.618,2.43 -0.84,3.478 -0.221,1.049 -0.352,1.904 -0.575,3.166 -0.224,1.262 -0.541,2.932 -0.787,4.297 -0.247,1.366 -0.423,2.427 -0.529,2.975 -0.105,0.548 -0.14,0.583 -0.204,0.634 -0.063,0.05 -0.155,0.115 -0.251,2.246 -0.096,2.13 -0.197,6.326 -0.275,8.622 -0.078,2.297 -0.133,2.694 0.035,2.902 0.169,0.209 0.561,0.229 1.419,0.337 0.857,0.108 2.18,0.305 4.51,0.755 2.332,0.45 5.671,1.154 8.339,1.667 2.668,0.513 4.664,0.835 6.751,1.182 2.088,0.347 4.265,0.719 7.24,1.192 2.975,0.472 6.746,1.046 9.15,1.373 2.404,0.327 3.44,0.407 3.958,0.447 0.518,0.041 0.518,0.041 0.568,-0.543 0.049,-0.583 0.149,-1.75 0.263,-2.759 0.114,-1.009 0.242,-1.86 0.394,-2.937 0.152,-1.077 0.328,-2.379 0.498,-3.576 0.17,-1.197 0.333,-2.289 0.417,-2.902 0.085,-0.614 0.089,-0.749 0.076,-0.865 -0.014,-0.116 -0.047,-0.211 -0.023,-1.818 0.024,-1.607 0.104,-4.725 0.147,-7.257 0.043,-2.532 0.048,-4.478 0.059,-5.601 0.011,-1.123 0.029,-1.422 0.067,-1.618 0.038,-0.197 0.095,-0.29 0.176,-0.338 0.08,-0.05 0.184,-0.055 0.308,0.038 0.124,0.094 0.27,0.285 0.345,0.376 0.074,0.092 0.076,0.085 0.078,0.081 0.001,-0.004 0.001,-0.004 0.115,0.253 0.114,0.256 0.343,0.769 0.597,1.463 0.254,0.694 0.533,1.569 0.762,2.507 0.229,0.938 0.408,1.939 0.607,3.547 0.2,1.608 0.422,3.823 0.739,6.228 0.316,2.406 0.729,5.001 1.468,11.393 0.739,6.392 1.805,16.58 2.64,24.511 0.835,7.931 1.439,13.604 1.811,19.699 0.372,6.095 0.513,12.613 0.503,19.654 -0.01,7.04 -0.171,14.604 -0.372,20.609 -0.202,6.004 -0.443,10.45 -0.725,14.423 -0.281,3.973 -0.603,7.473 -1.448,14.162 -0.845,6.688 -2.213,16.566 -3.007,23.777 -0.795,7.212 -1.016,11.758 -1.217,15.269 -0.202,3.51 -0.383,5.984 -0.674,8.122 -0.292,2.137 -0.694,3.937 -0.973,5.315 -0.279,1.378 -0.436,2.334 -0.453,2.935 -0.018,0.601 0.103,0.847 0.249,0.975 0.146,0.129 0.317,0.138 0.5,0.175 0.184,0.036 0.38,0.099 0.469,0.155 0.019,0.011 0.032,0.022 0.042,0.037 0.876,0.322 1.753,0.645 3.155,0.925 1.401,0.28 3.329,0.518 6.493,0.754 3.163,0.237 7.562,0.472 11.099,0.609 3.537,0.138 6.212,0.178 9.592,0.181 3.38,0.003 7.463,-0.03 11.329,-0.007 3.866,0.024 7.513,0.104 10.591,0.191 3.078,0.088 5.586,0.181 7.916,0.252 2.33,0.07 4.483,0.117 6.789,0.171 2.307,0.053 4.768,0.114 7.356,0.121 2.589,0.006 5.304,-0.041 8.04,-0.098 2.736,-0.057 5.492,-0.124 7.953,-0.221z"/>
 </g>
</svg>
