<?xml version="1.0" encoding="UTF-8"?>
<!DOCTYPE svg PUBLIC "-//W3C//DTD SVG 1.1//EN" "http://www.w3.org/Graphics/SVG/1.1/DTD/svg11.dtd">
<!-- Creator: CorelDRAW -->
<svg xmlns="http://www.w3.org/2000/svg" xml:space="preserve" width="240px" height="296px" version="1.1" shape-rendering="geometricPrecision" text-rendering="geometricPrecision" image-rendering="optimizeQuality" fill-rule="evenodd" clip-rule="evenodd"
viewBox="0 0 232252 286742"
 xmlns:xlink="http://www.w3.org/1999/xlink">
 <g id="Camada_x0020_1">
  <metadata id="CorelCorpID_0Corel-Layer"/>
  <path id="d4" fill="#F00808" d="M129520 92856l147 -78 -455 -320c-5,13 -9,23 -14,36 -148,-90 -293,-121 -410,-18 -115,246 -165,481 -150,691 55,-83 106,-173 152,-286 87,-215 104,-222 635,-246 39,63 66,143 95,221zm63642 -71609c-430,-219 -849,-427 -1256,-621 -1695,-807 -3179,-1361 -4897,-1894 -1718,-533 -3670,-1044 -5254,-1458 -1584,-414 -2801,-730 -3640,-976 -565,-165 -959,-299 -1363,-447l-37249 52123c229,-104 480,-147 705,94 -190,351 -495,306 -887,292 32,-82 53,-167 75,-236l-249 348c60,112 23,197 -181,255l-3429 4797c263,97 324,400 207,865 52,-11 104,-23 156,-36 149,138 295,274 473,440 139,-74 281,-140 423,-207 -12,-4 -25,-9 -37,-13 38,-86 74,-172 112,-257 30,10 60,20 91,30 -16,61 -32,124 -49,186 529,-248 1043,-508 1350,-1082 349,-66 560,54 520,438 -48,457 -124,911 -196,1420 -507,-73 -692,264 -890,601 -339,579 -808,963 -1486,1136 -245,63 -482,162 -729,257 -137,101 -219,248 -267,429 -54,205 -161,334 -459,308 7,-243 96,-421 220,-571 -82,21 -163,46 -250,62 132,-254 265,-508 410,-788 -155,-89 -297,-171 -474,-273 172,-245 339,-482 508,-723 -251,-125 -209,-257 116,-572 88,66 129,132 146,198 40,-57 78,-110 119,-169 -131,-102 -277,-215 -452,-350 13,-41 29,-76 45,-110 -78,9 -156,17 -235,25 -70,-321 202,-238 339,-344 38,-182 163,-378 56,-573l-1748 2445c27,-7 53,-12 80,-15 198,-24 392,-81 629,-133 -8,238 -106,394 -315,504 -180,94 -336,232 -509,340 -53,32 -151,59 -189,33 -45,-32 -91,-88 -114,-144l-470 658c97,175 91,207 35,530 -144,-63 -236,-125 -277,-192l-1908 2670c15,14 30,30 44,49 -212,284 -421,563 -669,893l-11 -51 -357 498c46,141 -40,354 -239,726 25,28 50,54 77,82 -115,138 -278,156 -393,50l-34 -33 -406 569 12 48c44,2 83,17 104,4 135,-89 292,-284 395,-257 282,71 -2,326 110,526 179,-12 379,-25 595,-39 282,209 182,485 88,824 -70,-105 -103,-186 -162,-241 -423,-396 -672,-400 -1147,-34 -55,42 -117,77 -177,113 81,31 163,58 239,103 65,39 134,81 182,138 186,218 372,441 560,665 370,-151 555,-569 976,-653 68,-13 116,-119 174,-181 138,-146 243,-268 506,-276 372,-11 627,-311 783,-704 150,198 300,219 492,15 28,130 36,211 62,284 129,360 507,439 800,180 120,-106 263,-187 460,-323 0,161 0,227 0,289 0,3 0,7 0,10 4,-4 9,-5 13,-8 275,272 -136,497 -47,859 106,18 257,45 312,54 219,223 385,391 557,566 -48,151 -103,323 -158,496 30,22 61,44 91,66 183,-203 347,-451 669,-319 11,4 76,-106 104,-168 9,-19 -19,-55 -33,-91 -132,15 -266,30 -366,42 9,-321 18,-619 26,-919 -38,-198 251,-298 133,-589 -163,71 -308,134 -437,190 0,-117 0,-233 1,-362 -323,-22 -614,-49 -852,175 -4,-3 -4,-6 -7,-9l0 0c-2,2 -4,5 -6,7 -58,62 -109,156 -178,172 -294,66 -423,270 -499,561 -115,10 -279,75 -341,22 -61,-53 -121,-84 -180,-101 -43,53 -94,112 -154,181 -54,-59 -87,-120 -115,-183 -94,20 -187,49 -283,73 -159,40 -324,53 -508,81 19,-317 262,-194 485,-359 -375,22 -635,37 -864,50 -146,177 -252,361 -407,481 -200,154 -501,211 -421,567 -130,90 -264,182 -405,279 161,193 320,383 493,589 -49,69 -97,144 -145,216 39,36 87,66 135,96 5,3 11,6 16,10 0,0 1,0 1,0l7 -12 1 -2c-9,1 -16,4 -25,4 -89,8 -169,29 -241,63 -69,107 -140,215 -210,324 76,40 165,78 191,143 40,102 -11,237 -4,357 13,208 -66,319 -278,363 -139,29 -266,114 -463,203 81,-212 157,-409 237,-616 -99,128 -203,251 -316,366 -333,337 -530,688 -605,1113 73,60 150,122 235,193 -89,59 -185,123 -283,187 -17,237 -43,469 -101,693 148,74 280,140 412,206 1,1 2,1 3,2 1,1 0,0 0,-1l2 2c-1,-1 -2,-3 -4,-4 367,16 486,396 792,559 104,-119 201,-230 301,-345 113,64 226,128 359,204 177,-165 445,-295 479,-471 7,-35 20,-58 30,-88 220,352 575,623 886,950 -290,260 -495,589 -756,893 -329,-41 -699,-86 -1062,-130 -74,177 -125,305 -158,402 -78,-43 -155,-92 -233,-144 20,-51 39,-101 60,-153 -15,1 -26,7 -40,8 61,-174 124,-354 207,-593 312,100 592,189 892,284 37,-131 77,-273 118,-417 -149,-128 -276,-237 -439,-376 -114,338 -539,134 -685,432 -275,135 -531,261 -768,377 90,-107 192,-217 316,-361 17,-81 57,-264 108,-494 -146,73 -259,170 -381,183 -120,13 -350,-40 -359,-93 -32,-191 -156,-270 -290,-332 49,-85 88,-173 122,-262 34,100 136,170 240,244 103,-109 181,-193 260,-276 0,0 1,-1 1,-1 -99,-131 -236,-220 -48,-431 160,-179 212,-456 314,-696 -275,-384 -273,-433 76,-781 163,147 378,235 458,447 -8,-171 -5,-374 11,-628 390,-29 786,-57 1220,-88 0,2 -1,4 -1,7 84,-10 182,-1 313,47 40,14 91,-2 142,-19 -105,-189 -157,-392 -128,-597 159,161 295,297 485,488 191,-70 357,-131 578,-213 15,68 28,133 43,200 47,22 96,61 153,119 126,-178 243,-345 341,-485 394,139 747,263 1145,404 -17,49 -56,160 -95,270 -610,-266 -552,263 -679,572 -28,67 -58,133 -85,194 -206,-7 -405,-48 -596,-106 53,106 104,209 185,274 72,58 228,14 389,15 -40,83 -57,196 -108,213 -257,88 -520,160 -785,215 -63,13 -182,-46 -205,-101 -24,-58 10,-186 62,-222 134,-94 325,-133 235,-360 -2,-6 0,-8 -2,-14l0 -1c-6,5 -11,12 -16,17 -56,56 -111,137 -170,141 -183,11 -325,87 -460,179 41,-21 79,-40 123,-62 199,595 -43,1184 -26,1793 147,-128 314,-241 524,-321 -70,294 71,565 -295,708 -176,69 -235,400 -530,257l-296 481 411 -218 254 -361c18,75 35,141 50,199l380 -202c-49,-148 30,-350 50,-560 263,44 483,81 618,205l537 -285c-46,-29 -92,-62 -141,-97 -240,-177 -527,-289 -817,-443 19,-14 40,-30 59,-43 -84,34 -173,65 -261,106 -6,-128 -30,-319 -11,-324 247,-57 406,-370 729,-264 -19,90 -51,160 -90,219 261,-189 532,-382 823,-555 598,-357 1018,-422 1345,-195 -66,-239 -108,-395 -162,-591 -225,16 -446,47 -666,43 -102,-2 -201,-74 -302,-113 58,-96 93,-226 178,-279 112,-71 263,-79 396,-115 109,-31 216,-64 365,-109 90,407 548,279 787,500 27,222 54,448 86,705 -253,-15 -398,-436 -652,-19 141,107 264,269 376,488l785 -417 -158 37c61,-172 108,-306 163,-461 -102,-59 -207,-121 -353,-205 233,-193 524,-303 458,-635 -2,-6 -1,-11 -2,-18l0 -1c-1,0 -2,0 -2,0 4,-48 18,-100 1,-138 -74,-165 -122,-305 -140,-425 70,-87 134,-187 184,-313 -55,16 -104,30 -156,45 74,-178 281,-286 646,-357 5,6 9,14 14,20l7 -25c63,148 128,300 197,459 -22,86 -36,180 -34,296 310,-55 587,-103 885,-156 196,138 414,291 632,444 33,-32 66,-63 99,-95 -275,-352 -551,-704 -862,-1104 -135,51 -259,102 -368,166 -23,-189 -13,-379 -149,-521 168,-64 295,-99 405,-163 33,-18 18,-118 28,-202 -116,27 -197,46 -278,65 -273,-342 -555,-504 -817,-436 -83,21 -187,119 -201,196 -11,63 82,185 156,215 140,57 300,69 440,97 -48,262 -92,501 -135,739 -7,2 -12,3 -19,5 -91,-134 -182,-269 -276,-409 -614,186 -856,785 -1346,1046 7,8 13,14 19,23 -41,17 -83,32 -122,51 -106,50 -106,342 -125,526 -2,26 217,123 241,97 71,-73 155,-132 242,-188 41,198 92,199 380,144 152,-29 302,-68 452,-102 0,5 -2,10 -2,14 3,1 3,4 6,5 268,150 174,453 290,697 120,-52 239,-103 364,-157 17,131 30,228 32,301l545 -289 -50 -23c73,-302 350,-305 575,-476 2,81 15,147 37,199l1494 -794c-42,-132 -70,-276 -136,-406 360,-227 777,-404 890,-818 -56,38 -167,60 -189,36 -59,-64 -123,-192 -96,-255 95,-222 252,-395 556,-445 36,131 18,227 -16,311 433,113 481,298 288,888l1638 -871c-58,-44 -114,-100 -168,-161 -42,38 -98,69 -149,77 -37,5 -108,-78 -130,-135 -45,-118 -46,-196 24,-273 -47,-69 -94,-138 -139,-201 -25,-34 20,-155 81,-254 -64,-12 -129,-25 -196,-30 187,-414 306,-432 779,-158 112,-1 225,0 347,-5l580 593 56 -30 -57 1c-60,-179 -122,-362 -193,-573 104,-32 195,-42 275,-29 -32,-35 -64,-74 -100,-120 -157,-202 -220,-308 -166,-438 -63,-101 -63,-215 40,-298 154,-125 340,-211 568,-347 80,156 114,215 141,277 28,62 50,127 68,175 -16,46 -52,88 -94,127 168,162 333,320 499,478 -13,9 -22,15 -35,23l154 139 561 -298 -7 -3c-53,-22 -122,-85 -124,-133 -3,-53 50,-143 98,-158 95,-31 208,-46 302,-23 69,18 135,41 201,67l2117 -1125c-59,-77 -139,-150 -167,-239 -27,-86 -28,-218 21,-283 125,-165 434,-215 704,-152l2969 -4059 -7 2c-112,107 -230,218 -375,354 -16,-197 241,-714 354,-734 107,-18 212,-25 312,-10l985 -1347c-68,-5 -138,-36 -210,-94 167,-192 197,-227 359,-109l2351 -3213 -359 103c103,-300 230,-311 388,-250l23 76 37980 -51918zm-101238 139165c18,-177 31,-303 44,-436 189,119 352,222 545,344 -190,30 -366,57 -589,92zm-2190 4748c120,-155 221,-286 317,-410 100,37 228,130 284,97 176,-104 50,-169 -51,-257 -37,-32 -10,-214 44,-257 101,-82 243,-112 398,-177 -58,384 257,536 436,565 339,55 466,318 720,464 -104,113 -187,203 -295,320 484,34 633,-20 633,-228 -1,-206 -36,-412 -59,-650 -310,10 -534,-149 -662,-448 -139,66 -241,114 -342,162 -15,-18 -29,-36 -44,-53 38,-42 72,-88 113,-125 41,-36 89,-63 153,-108 -446,-259 -869,-287 -1320,-137 -126,258 -254,525 -380,786 -135,30 -252,57 -471,107 226,150 363,241 526,349zm6551 18509c-8,-237 73,-394 225,-551 116,26 218,69 318,65 109,-5 258,-23 310,-94 41,-57 -19,-208 -66,-303 -51,-104 -138,-191 -239,-325 -247,157 -532,260 -695,461 -149,185 -167,476 -238,701 -169,19 -338,37 -454,49 -148,-150 -247,-252 -345,-352 -93,111 -235,211 -268,338 -32,122 -44,253 -52,391 -355,134 -554,304 -632,551 -63,-44 -126,-88 -195,-135 -57,162 -164,303 34,415 39,21 78,40 118,52 2,96 12,198 32,312 550,-64 967,-439 1118,-955 177,-41 347,-80 517,-109 356,-60 523,-181 512,-511zm-31059 54071l30186 -50440c-47,-156 42,-283 188,-314l1859 -3106c-180,139 -393,209 -668,151 73,-406 393,-484 657,-612 38,-19 151,31 170,75 10,23 18,51 23,81l1715 -2865 -236 -140c83,-284 280,-276 471,-257l2 1 777 -1299c-246,50 -443,234 -634,439 -33,-24 -66,-48 -99,-72 22,-89 18,-201 72,-262 100,-116 237,-198 353,-300 175,-154 360,-224 543,-197l420 -701c-271,-2 -517,-42 -704,-358 52,-103 103,-252 196,-367 64,-80 185,-115 281,-170 24,105 51,210 72,316 7,31 -2,64 -4,88 144,14 293,12 432,34l710 -1187c-160,37 -329,73 -514,115 -7,-141 -16,-295 -24,-472 -328,-28 -437,507 -830,302 12,-151 25,-307 39,-463 0,-2 0,-4 0,-5 -1,0 -3,0 -4,-1 110,-148 308,-286 29,-504 -138,138 -268,267 -444,441 189,29 302,46 415,63l-8 10 0 0 -2 1c4,-2 9,-3 14,-5 406,-208 846,-282 1292,-244 180,15 348,22 505,-19l1031 -1722 -98 62c-148,154 -296,308 -445,461 -1,2 -1,3 -2,4 -2,1 -4,1 -5,2 -161,-73 -304,-89 -362,175 120,-58 241,-116 362,-175 2,2 6,2 8,3 3,2 -3,-5 -3,-5l6 7c-2,-3 -2,-7 -4,-11 -23,-97 -48,-194 -71,-291 12,-158 23,-316 39,-534 -200,219 -103,377 -39,536 -223,-93 -392,-12 -568,135 -120,101 -286,150 -415,214 -281,-340 115,-420 144,-624 30,-213 86,-424 140,-681 340,198 607,339 888,65 33,-31 150,12 222,36 257,87 353,111 539,59l960 -1603c-65,-45 -126,-100 -182,-169 125,-100 255,-149 378,-160l161 -269c-57,42 -149,45 -282,7 -96,-28 -220,42 -417,87 -27,-18 -101,-85 -187,-129 -73,-37 -159,-49 -253,-76 -14,-378 315,-321 458,-434 262,117 497,220 761,337 -1,35 -5,66 -12,94l329 -549c-139,12 -284,11 -435,1 68,-65 147,-195 203,-186 147,25 268,-1 379,-60l228 -381c-82,-108 -116,-228 84,-274 36,-8 69,-19 99,-33l698 -1165c-76,21 -197,15 -388,6 -151,-7 -300,-39 -449,-60 -3,-1 -6,0 -9,-1 -3,3 -5,7 -8,10 -222,5 -440,11 -572,15 -137,256 -238,445 -338,634 415,185 490,173 534,-192 20,-164 92,-178 189,-240 77,-49 127,-140 187,-217l19 -1 2 2c-2,-3 -2,-6 -4,-10 -171,-313 40,-496 256,-739 104,146 163,311 274,363 106,49 266,-22 400,-39 11,122 19,215 17,284l466 -778c-231,100 -446,115 -651,104 -55,99 -165,113 -355,-1 15,-10 30,-20 45,-29 -20,-3 -42,-5 -61,-8 -271,-40 -483,-45 -735,119 -168,109 -449,44 -743,60 49,-181 51,-267 77,-274 246,-67 463,-254 703,-355 -61,-55 -96,-125 -108,-202 -28,-8 -57,-16 -110,-29 38,-28 70,-51 107,-78 7,-82 33,-168 79,-246 106,-182 151,-346 156,-499 -74,52 -159,111 -274,191 125,-320 160,-408 259,-368 -50,-246 -215,-464 -448,-677 50,-142 99,-281 149,-424 -212,17 -369,-125 -411,-416 -285,258 -90,853 -653,898 -109,-169 -103,-334 -51,-476 -79,123 -158,245 -238,367 -48,-26 -96,-52 -144,-79 76,-159 153,-318 230,-477 63,37 125,74 188,111 41,-78 92,-150 149,-204 240,-222 101,-403 118,-654 -231,145 -420,242 -581,374 -94,77 -182,200 -210,318 -85,360 -280,576 -611,658 -29,87 -58,176 -83,271 208,43 416,90 620,133 54,192 100,354 149,530 212,-48 393,-89 625,-142 -113,264 -210,470 -463,553 -240,79 -185,258 -140,431 124,-37 251,-110 372,-101 222,18 440,85 726,145 -97,92 -150,187 -223,206 -311,78 -616,16 -912,-95 22,195 44,390 66,586 -33,9 -65,19 -98,29 -61,-103 -122,-206 -198,-334 -208,47 -426,96 -643,146 -284,66 -546,114 -718,-227 -61,-122 -229,-192 -351,-289 294,-205 557,-388 866,-603 23,52 53,118 81,182 76,-33 193,-53 355,-74 18,-69 37,-138 55,-206 -475,-193 -567,-316 -521,-671 6,-46 16,-84 31,-117 -101,-80 -185,-147 -280,-222 36,-41 69,-79 103,-119 -57,-1 -103,-1 -121,-3 153,-131 261,-225 354,-306 -25,-162 -51,-324 -82,-515 -65,41 -130,83 -196,125 -70,60 -145,125 -225,194 -16,-6 -34,-12 -50,-18 -109,69 -222,141 -344,219 -7,-135 -25,-256 -40,-363 -102,-38 -211,-79 -337,-126 117,-42 226,-81 333,-121 6,-26 10,-54 26,-72 124,-143 188,-322 257,-509 -82,0 -164,-4 -244,-19 127,-287 226,-510 347,-782 -275,-37 -489,-67 -702,-97 -297,497 -405,533 -913,317 -182,-78 -361,-191 -550,-213 -128,-15 -273,99 -430,162 64,121 107,204 157,297 -148,85 -430,-286 -450,184 226,1 444,2 660,2 -28,148 -59,315 -93,493 -144,75 -306,158 -468,242 9,29 18,58 27,87 99,-4 198,-7 303,-10 143,306 -41,427 -232,538 -137,-111 -246,-228 -379,-299 -125,-68 -275,-88 -436,-135 -58,39 -150,72 -199,137 -285,381 -636,495 -1090,328 -100,-37 -239,10 -354,41 -197,54 -388,126 -587,177 -149,69 -94,332 -242,410 -60,153 -133,297 -237,422 383,-249 778,-506 1188,-773 31,100 64,209 97,315 33,6 67,9 94,22 28,14 13,120 18,183 -16,2 -32,3 -48,5 58,188 117,381 177,578 102,-49 161,-77 217,-103 7,-3 15,-8 21,-10 -3,-4 -6,-9 -9,-13 144,-6 351,35 407,-37 125,-164 166,-390 4,-602 -187,221 -207,233 -610,368 71,97 135,184 199,271 -4,0 -8,0 -11,0l0 0c0,8 0,15 -1,23 -2,93 -4,187 -6,263 234,262 443,56 669,-21 79,198 -27,287 -153,337 -346,142 -468,403 -447,753 0,2 -1,4 -1,7 -93,49 -187,99 -282,149 -221,114 -359,263 -224,555 376,-34 844,273 1042,-364 -99,-107 -200,-217 -334,-361 659,17 659,17 688,-688 -326,264 -608,491 -890,719l16 -19c-6,1 -9,0 -15,2 -315,49 -205,-224 -243,-425 -181,104 -320,197 -469,267 -585,273 -1184,-89 -1237,-735 -12,-138 -57,-277 -101,-462 -123,79 -269,144 -463,184 30,-73 55,-147 79,-220 -130,100 -231,169 -318,250 -87,81 -160,178 -222,248 62,134 144,235 138,329 -4,59 -136,130 -222,159 -125,42 -260,52 -391,76 -99,-206 28,-458 -169,-666 -98,-104 133,-393 328,-454 156,-49 310,-102 512,-168 70,41 184,109 351,208 138,-418 228,-818 553,-1059 -5,-6 -7,-9 -12,-15 157,-278 294,-553 462,-806 203,-305 812,-354 1025,-64 94,129 136,287 317,283 207,-4 427,-2 618,-69 230,-81 436,-231 671,-361 -108,-109 -218,-221 -329,-333 -2,-2 -3,-4 -6,-5 0,0 -1,0 -1,1 -93,37 -186,74 -301,120 -42,-185 -79,-348 -126,-553 -137,153 -290,291 -466,391 86,5 167,10 260,16 -233,408 -459,459 -725,173 -477,134 -990,97 -1421,-123 93,533 -67,738 -620,819 -6,1 -10,2 -17,3 6,6 7,10 13,16 -187,150 -198,342 -122,553 -7,-193 352,-316 122,-553 3,-2 4,-5 6,-7l-2 -1 0 0 0 -11c0,-45 0,-90 0,-131 -42,-14 -76,-38 -99,-30 -154,53 -353,203 -446,152 -256,-139 81,-316 22,-537 -177,-33 -373,-70 -586,-109 -221,-272 -57,-516 118,-820 42,119 54,206 98,273 313,488 553,553 1102,316 65,-28 133,-46 200,-66 -70,-51 -143,-97 -206,-159 -53,-53 -109,-112 -142,-178 -126,-258 -252,-519 -380,-783 -395,54 -677,414 -1106,392 -69,-4 -142,87 -214,132 -169,108 -301,201 -557,143 -364,-80 -685,147 -933,489 -97,-229 -238,-286 -473,-135 5,-133 17,-213 9,-291 -35,-381 -382,-551 -730,-371 -143,73 -301,115 -526,199 40,-156 56,-220 71,-280 1,-3 2,-7 3,-10 -5,3 -9,3 -14,5 -200,-331 254,-448 257,-820 -98,-45 -238,-108 -289,-131l-54 -92 840 -1148 -84 170c276,119 526,215 765,334 78,38 132,123 195,191 4,4 8,9 12,13l-1 -1c-6,-2 -11,-2 -16,-4 -10,252 -147,413 -357,515 -122,-152 -236,-294 -380,-473 236,-64 472,-167 737,-42 0,-2 1,-4 1,-6 1,-1 2,-2 4,-2 537,-181 554,-637 575,-1121l-546 -203 1065 -611 201 -21c136,232 234,398 348,592 80,-191 80,-400 24,-610 54,-3 107,-6 142,17 116,79 208,113 292,123 -1,2 -2,4 -2,7 428,77 818,147 1203,215 78,-242 131,-438 166,-606 24,226 211,363 333,546 424,-252 439,-298 267,-738 158,-207 276,-463 475,-597 234,-157 125,-278 60,-430 1,0 1,0 2,0 96,-61 193,-123 320,-204 82,98 163,191 172,296 55,-78 114,-153 183,-224 -114,-93 -216,-200 -200,-393 3,-38 -101,-104 -205,-144l-619 355c81,140 174,262 347,314 -1,-1 -2,-2 -2,-4l2 3 -1 -2c1,1 2,2 3,3 111,96 223,193 348,301 -111,203 -193,422 -269,647 -110,38 -220,76 -320,111 65,90 124,169 179,245 -177,393 -454,685 -860,930 -138,83 -269,177 -397,277 129,-182 251,-353 383,-539 -214,38 -357,88 -499,82 -217,-9 -321,79 -359,284 -23,117 -106,236 -92,344 9,70 86,129 150,187 -96,87 -191,175 -284,262 -78,15 -160,16 -248,1 -9,-1 -17,0 -26,-2l2 -2 1 -1 8 -8c0,0 0,0 1,0 4,5 9,9 14,13 38,41 78,82 106,126 -64,59 -129,119 -193,175 116,241 223,465 332,692 -160,59 -313,116 -462,170 -9,365 -315,346 -547,446 -180,79 -328,230 -513,366 -226,-44 -482,-94 -850,-165 257,-105 462,75 559,-228 -185,-18 -349,-47 -513,-48 -99,0 -196,6 -292,1 -12,-67 -28,-134 -66,-205 -76,52 -139,97 -194,138 -53,-32 -104,-77 -149,-142 -48,-68 -223,-45 -337,-63 -145,262 -320,428 -621,420 -71,-1 -143,77 -216,123 -2,2 -4,3 -7,5l0 0c-2,-3 -2,-6 -4,-10 -274,151 -538,69 -829,-28l-141 194c122,16 219,87 248,201 33,134 -74,316 -150,460 -32,62 -143,82 -217,120 -169,-104 -198,-230 -189,-360l-1039 1419 310 90c-9,481 -84,540 -488,384 -43,-16 -86,-36 -129,-54l-2101 2873c52,4 105,9 157,15 38,5 102,119 88,159 -32,86 -91,203 -164,226 -132,42 -266,70 -409,48l-360 491c352,-212 747,-324 1208,-324 254,0 508,-38 770,-69 158,-64 274,-187 365,-351 103,-185 238,-283 521,-185 -67,234 -197,384 -355,500 86,-1 170,-5 258,1 -191,213 -382,427 -592,663 129,124 246,239 392,381 -226,195 -446,384 -670,576 212,182 139,300 -253,525 -69,-85 -93,-160 -93,-228 -53,46 -103,88 -157,135 102,131 216,277 351,450 -22,38 -46,67 -70,95 78,11 156,23 233,35 -10,328 -254,181 -412,249 -107,219 -364,422 -73,759 -194,24 -324,41 -415,52 -246,-155 -235,-468 -1,-899 -54,-2 -107,-4 -161,-4 -110,-171 -218,-337 -350,-543 -152,38 -307,67 -460,96 10,8 21,15 32,23 -58,73 -115,147 -172,221 -27,-17 -54,-34 -81,-51 31,-56 62,-113 93,-169 -573,110 -1136,235 -1574,716 -93,-6 -173,-22 -239,-48l-9465 12937c129,-90 268,-141 365,-113 54,15 126,84 131,135 7,75 -15,175 -63,231 -144,167 -405,205 -709,124l-6826 9332 21364 -8996c-85,-53 -156,-137 -205,-267 253,-156 642,-156 753,-6 7,9 13,21 18,35l3560 -1499 -366 737c302,-198 560,-47 810,41 44,15 84,156 62,214 -24,62 -127,135 -191,131 -255,-16 -501,-75 -700,-349l-658 1326 226 -51c-114,187 -205,244 -312,225l-21334 42981c-4552,9171 -4552,9171 -4552,9171zm28059 -69867c-222,-5 -445,288 -429,689 221,-72 400,-130 592,-192 50,111 103,230 155,347 -80,18 -167,39 -287,66 10,16 18,31 28,47 -73,-10 -147,-19 -228,-29 69,348 260,398 432,400 149,294 300,565 677,695 -49,-121 -100,-245 -151,-367 172,22 248,-91 336,-364 -166,-26 -321,-29 -477,23 -31,-77 -63,-156 -96,-234 18,-19 34,-36 54,-55 -30,-4 -54,-7 -81,-11 -24,-58 -46,-112 -71,-172 427,-53 575,-510 955,-631 -94,-143 -168,-255 -242,-366 -137,31 -248,56 -369,84 -38,-166 -69,-305 -108,-472 -79,49 -139,65 -156,102 -110,228 -158,449 -534,440zm3953 11661c-267,-228 -83,-564 -402,-618 -59,-211 257,-515 -207,-628 -53,141 -98,264 -150,406 -174,-60 -327,-112 -588,-202 246,450 -6,804 28,1211 273,55 532,106 794,157 112,-174 -202,-297 46,-381 98,-33 226,22 479,55zm-5403 2069c115,-106 277,-235 415,-387 58,-65 111,-198 82,-261 -30,-65 -165,-115 -252,-111 -408,17 -736,243 -1068,448 -17,10 -6,65 -9,129 153,77 317,159 498,249 -52,210 -101,409 -163,659 279,171 540,236 846,-25 -115,-230 -225,-451 -349,-701zm-4391 -9472c174,-111 315,-201 420,-268 146,82 254,194 330,175 388,-94 194,-396 157,-632 192,23 376,170 471,-80 58,-154 -118,-355 -330,-397 -18,-3 -36,-10 -52,-6 -361,102 -721,205 -1195,340 424,264 79,560 199,868zm12756 769c309,9 575,25 839,18 72,-2 176,-56 205,-116 22,-46 -44,-140 -80,-208 -30,-56 -75,-104 -110,-153 164,-164 310,-309 452,-450 -48,-145 -108,-256 -117,-371 -8,-112 36,-227 59,-351 -169,22 -321,41 -471,61 39,-77 77,-151 115,-223 -446,60 -566,281 -411,799 62,-119 114,-221 163,-316 47,118 95,239 140,351 -105,152 -200,290 -295,428 -81,-61 -139,-105 -215,-162 -105,268 -193,489 -274,693zm-11082 3908c277,182 1068,24 1250,-239 9,-14 26,-33 22,-45 -118,-348 229,-353 372,-483 37,-675 37,-675 -296,-774 -231,456 -462,915 -704,1394 -229,-74 -391,-143 -559,-173 -58,-10 -171,64 -191,123 -17,50 48,160 106,197zm3441 -3289c-358,-251 -629,-382 -1026,-311 65,-136 99,-208 157,-331 149,85 246,170 358,196 123,30 281,51 384,-3 159,-81 97,-217 16,-355 -46,-79 -16,-204 -23,-422 -338,472 -912,213 -1136,549 -15,292 -25,494 -37,736 399,48 791,140 1307,-59zm-5578 7272c228,-10 320,-263 323,-478 1,-72 -140,-147 -244,-247 -105,194 -178,328 -252,465 -396,-152 -659,56 -959,312 229,179 305,377 206,639 -30,80 54,203 85,306 58,7 116,14 174,21 85,-178 235,-352 243,-534 16,-305 65,-469 424,-484zm8769 -4427c328,204 410,146 506,-374 -380,58 -520,-262 -718,-474 -206,-221 -411,-318 -816,-197 252,196 431,335 606,472 54,297 -300,607 29,938 151,-140 272,-253 393,-365zm-2876 -5686c180,81 350,157 519,233 3,52 5,102 8,154 -173,71 -346,142 -561,230 194,117 350,210 496,297 699,-353 761,-503 523,-1227 -429,-115 -662,-49 -985,313zm167 5445c396,-50 626,-212 644,-480 8,-132 -119,-273 -180,-399 -2,-199 24,-411 -14,-611 -35,-184 155,-538 -299,-495 -76,173 -149,340 -217,496 84,78 151,140 218,201 -137,160 -244,286 -400,471 211,55 357,92 498,129 -82,223 -159,438 -250,688zm-3670 1812c-232,-169 -401,-357 -609,-429 -454,-157 -1231,515 -1261,1072 374,-5 393,-401 510,-488 496,-207 906,240 1360,-155zm659 3644c23,163 62,291 53,417 -9,143 -60,282 -95,427 240,38 442,134 582,77 166,-68 280,-266 404,-396 -431,-662 -431,-662 -944,-525zm5756 1001c168,-245 308,-451 447,-655 86,49 170,96 267,150 101,-120 204,-217 273,-335 46,-77 86,-220 47,-270 -46,-58 -187,-80 -275,-62 -248,51 -491,130 -773,209 -51,276 -331,571 14,963zm-1159 -23049c-145,-38 -305,-80 -457,-120 -69,162 -117,287 -175,405 -38,80 -91,152 -137,228 83,47 162,119 251,133 85,14 180,-33 290,-58 36,244 -108,510 189,623 102,-110 202,-219 310,-335 -88,-284 -174,-562 -271,-876zm-3644 18779c-169,-165 -276,8 -390,109 -19,17 -61,7 -92,9 -389,-316 -648,-342 -957,-44 172,101 319,225 488,275 194,57 366,99 383,469 231,-190 375,-285 486,-408 100,-110 237,-257 82,-410zm1739 -16847c50,-64 243,-53 353,-19 86,27 132,166 218,215 202,114 419,275 660,-26 -186,-159 -325,-336 -181,-671 -389,360 -389,360 -570,346 15,-112 30,-222 53,-395 -371,215 -688,400 -1049,610 251,132 378,114 516,-60zm-779 6681c-277,81 -438,128 -625,182 98,142 148,215 200,290 -225,128 -509,100 -627,369 16,23 36,39 56,54 -50,103 -53,234 -2,392 7,19 36,31 74,64 192,4 367,-23 455,-147 8,37 15,75 14,125 461,-415 235,-866 455,-1329zm-870 3522c-445,-20 -413,359 -507,571 -95,217 -270,499 17,778 270,-284 517,-545 786,-830 -140,-51 -270,-101 -400,-149 39,-138 69,-243 104,-370zm10527 -3617c1,0 2,-1 4,-2 -153,396 -306,795 -486,1265 -115,-195 -178,-302 -263,-445 -344,357 -28,598 38,873 113,1 215,31 283,-3 377,-197 749,-405 1115,-621 40,-23 35,-123 66,-251 -252,-22 -472,-42 -691,-62 337,17 541,-118 557,-430 155,37 273,66 393,96 -88,-248 -161,-453 -259,-727 -144,51 -295,100 -442,159 -107,42 -208,97 -311,146 2,-6 4,-12 6,-18 -5,6 -11,5 -17,11 -27,-44 -55,-113 -79,-112 -348,25 -597,-204 -851,-339 -196,105 -361,193 -526,281 2,-6 5,-11 8,-17 -3,1 -5,1 -8,2 43,-195 86,-390 129,-585 -311,158 -387,508 -747,554 15,38 30,75 46,113 190,-28 381,-55 572,-82 -1,5 -3,11 -4,17l12 -19 -12 19c1,-1 3,-1 4,-2 -65,130 -129,259 -194,390 246,-11 474,1 695,-37 156,-26 299,-162 452,-171 166,-10 339,141 503,-12 2,3 4,8 6,10 0,0 0,-1 1,-1zm-8435 -1482c31,-10 71,-17 112,-21 -98,111 -188,212 -327,371 466,36 472,36 503,-227 5,-37 -42,-86 -92,-146 34,2 64,8 75,23 241,337 346,77 534,-106 -305,-161 -330,-434 -320,-740 -321,260 -593,479 -868,701 77,186 211,195 383,145zm-253 18773c-85,-4 -214,48 -252,116 -109,197 -182,414 -274,635 -167,66 -298,117 -440,172 50,73 64,113 90,127 197,106 372,142 561,-53 233,-241 487,-460 481,-826 -2,-62 -106,-169 -166,-171zm-4386 -15931c-230,55 -363,183 -429,411 242,8 444,1 641,26 286,37 572,-123 630,-399 15,-69 -25,-170 -74,-227 -30,-35 -132,-33 -191,-14 -194,61 -380,156 -577,203zm1460 4244c4,130 7,225 11,336 351,-217 364,-460 41,-647 -199,-114 -422,-186 -644,-282 -83,73 -165,137 -237,212 -34,34 -51,87 -74,129 309,325 309,325 903,252zm-1556 -8361c-37,256 -78,485 -98,716 -4,39 76,87 143,159 80,-160 141,-281 224,-446 320,233 320,233 551,-33 -176,-342 -436,-498 -820,-396zm6773 5696c56,247 96,419 134,588 134,2 232,18 319,46 -36,158 -1,323 94,504 -63,7 -121,47 -178,137 159,121 286,159 418,-39 -28,-22 -55,-36 -81,-52 91,-112 154,-198 182,-272 188,28 276,138 247,371 -16,126 23,260 40,408 418,-118 521,-440 632,-744 56,-157 -23,-301 -200,-269 -240,43 -474,121 -709,191 6,-30 7,-61 3,-91 66,-76 131,-152 177,-238 50,-93 66,-222 45,-325 -8,-36 -204,-84 -262,-47 -319,208 -590,119 -861,-168zm-4114 -1144c-307,8 -611,17 -914,26 -36,21 -72,42 -108,64 282,197 244,461 297,760 150,-267 346,-388 616,-451 150,-35 200,-221 109,-399zm5383 -2125c-127,-123 -274,-170 -471,-78 -298,139 -384,411 -530,678 80,35 158,102 199,84 285,-128 567,-265 836,-423 32,-18 18,-210 -34,-261zm-7863 4780c-28,-65 -164,-122 -249,-116 -166,10 -329,66 -501,105 -30,217 -55,400 -84,614 390,83 579,-142 773,-326 60,-57 93,-205 61,-277zm16196 -7098c127,374 -248,636 -207,1007 124,5 248,46 318,3 144,-88 317,-200 373,-343 150,-388 -264,-455 -484,-667zm-7221 14638c-326,352 -730,483 -793,928 616,130 750,-10 793,-928zm-660 -11629c55,-130 73,-280 39,-466 -782,210 -827,281 -654,1058 1,0 2,-1 4,-2 208,44 360,75 490,103 16,98 26,163 54,336 372,-379 147,-703 67,-1029zm2798 7070c116,-104 194,-237 72,-356 -58,-57 -225,-59 -313,-19 -230,102 -444,242 -666,368 369,269 615,269 907,7zm-3170 -72c383,262 755,188 1105,192 52,1 107,-172 156,-259 -445,-339 -819,-199 -1261,67zm-17247 5563c-176,65 -350,149 -501,258 -94,66 -144,193 -231,316 403,170 641,-15 868,-201 50,-40 72,-167 47,-235 -22,-63 -141,-153 -183,-138zm24056 -8458c-158,64 -259,162 -186,348 511,126 764,-1 882,-441 -266,-238 -472,1 -696,93zm-8674 243c-129,203 28,262 176,404 140,-423 370,-771 176,-1294 -261,233 -523,340 -290,656 31,42 -19,167 -62,234zm5858 3611c-58,-35 -208,-33 -229,4 -141,253 -429,469 -235,899 376,-116 505,-387 575,-693 14,-62 -51,-172 -111,-210zm-4325 -2178c17,24 183,-1 215,-48 182,-267 347,-544 505,-825 14,-24 -62,-98 -118,-181 -196,217 -347,379 -492,546 -67,77 -151,157 -174,249 -21,78 17,188 64,259zm-15173 5636c-13,-54 -160,-134 -199,-113 -248,134 -563,212 -605,616 341,95 566,-34 755,-222 57,-57 72,-195 49,-281zm-2890 4916c-278,45 -593,36 -783,407 325,185 590,125 838,-8 68,-37 117,-166 117,-253 -1,-51 -120,-155 -172,-146zm4924 -10251c34,-81 17,-209 -27,-286 -28,-49 -157,-77 -227,-59 -209,52 -460,451 -474,716 349,-9 634,-141 728,-371zm14756 1947c327,-87 391,-429 593,-640 116,-120 219,-277 33,-397 -189,-121 -270,60 -347,196 -18,31 -42,63 -42,95 0,354 -231,534 -647,708 228,24 327,61 410,38zm-3833 1130c521,62 500,-370 690,-582 -151,-249 -312,-395 -593,-241 158,328 158,328 -97,823zm-3931 -2026c22,-53 -37,-174 -94,-213 -54,-39 -196,-44 -226,-7 -162,209 -396,392 -344,778 391,-47 552,-284 664,-558zm1119 -11891c130,-128 274,-271 445,-440 -104,-162 -183,-287 -254,-397 -398,5 -332,321 -406,527 -55,151 -3,272 215,310zm2314 13276c26,-70 -28,-199 -87,-261 -39,-42 -192,-48 -225,-10 -184,215 -391,432 -297,825 365,-67 514,-293 609,-554zm-4164 -10803c-283,254 -419,382 -469,490 -132,95 -210,241 -101,567 94,-116 174,-214 246,-304 526,-262 614,-468 324,-753zm15547 3425c-202,-38 -349,-64 -527,-97 -95,198 -182,379 -290,608 232,45 413,135 559,-58 98,-129 163,-284 258,-453zm-24990 8661c-45,-46 -191,-72 -221,-40 -175,190 -443,341 -356,732 335,-50 515,-223 629,-463 27,-59 -3,-181 -52,-229zm3628 3353c320,-131 403,-377 432,-636 9,-73 -90,-172 -162,-230 -33,-27 -138,-3 -183,33 -150,119 -197,554 -87,833zm6995 12518c294,-42 397,-266 448,-510 16,-77 -64,-189 -127,-259 -30,-33 -138,-30 -190,-3 -196,101 -261,505 -131,772zm-10854 -9049c-205,-37 -437,-160 -649,115 144,236 343,336 572,315 106,-10 202,-137 302,-211 -75,-76 -140,-204 -225,-219zm1358 -8585c88,-17 147,-183 251,-325 -377,-111 -662,-229 -933,64 164,298 428,311 682,261zm17805 -12929c393,-170 393,-176 254,-602 65,-160 441,-43 354,-398 -25,-103 221,-273 338,-405 248,48 523,131 800,142 102,4 358,26 312,-283 -39,-4 -96,-18 -152,-12 -368,38 -651,-175 -852,-409 -41,-47 -82,-77 -121,-103 -243,212 -517,364 -803,497 -91,119 -181,242 -287,375 134,20 208,29 279,44 61,13 121,33 289,81 -177,103 -263,187 -360,205 -329,64 -651,13 -1011,-26 -122,153 -220,345 -281,599 380,-127 670,-223 962,-320 -34,51 -79,89 -117,135 120,-52 249,-108 382,-165 166,252 190,451 7,641 -3,3 -4,6 -7,9l-1 1c6,-2 9,-4 15,-6zm-16119 14981c204,33 410,67 616,100 101,-243 176,-425 251,-606 -31,-15 -62,-29 -94,-44 -192,109 -384,218 -575,327 -71,-215 -131,-396 -220,-667 -37,430 -41,495 155,703 -48,28 -96,55 -144,83 3,34 7,70 11,104zm12404 8228c274,160 488,39 657,-134 65,-66 27,-234 44,-475 -382,184 -690,226 -701,609zm-1424 -8512c43,-41 36,-162 12,-231 -17,-44 -131,-101 -164,-83 -230,126 -517,197 -599,568 346,64 563,-71 751,-254zm-3089 -12334c15,-40 -39,-150 -81,-164 -239,-77 -482,-205 -782,-5 191,289 429,363 698,338 62,-6 136,-100 165,-169zm-1489 16947c-22,-30 -158,-28 -182,5 -146,197 -380,372 -218,724 284,-78 433,-242 499,-467 22,-73 -44,-188 -99,-262zm-10 13085c-224,-40 -458,-187 -715,46 173,272 406,326 649,318 73,-3 162,-110 200,-189 16,-33 -77,-166 -134,-175zm-5543 -13960c361,411 513,433 799,89 -471,-303 -549,-310 -799,-89zm11734 -3970c-13,-34 -139,-63 -177,-38 -201,134 -466,233 -414,565 291,91 480,-50 621,-251 42,-58 4,-191 -30,-276zm-9584 -5251c256,205 472,91 664,-47 59,-42 67,-181 61,-274 -2,-38 -111,-111 -152,-100 -234,67 -505,100 -573,421zm11868 5860c306,228 551,-5 874,-103 -310,-384 -516,-352 -874,103zm-4379 -13758c34,218 65,421 106,688 311,-121 462,-309 371,-572 -72,-206 -275,-216 -477,-116zm1129 5534c8,40 16,80 24,120 450,137 808,-20 882,-469 -330,127 -618,238 -906,349zm4181 7514c547,-118 648,-264 432,-692 -35,31 -72,60 -108,89 83,-123 155,-231 243,-361 -407,-4 -558,102 -458,542 -100,104 -159,227 -109,422zm-1127 4742c176,165 348,315 585,138 133,-99 319,-193 133,-425 -143,44 -330,166 -418,116 -260,-147 -255,23 -300,171zm-8740 -6300c23,-39 -9,-157 -48,-177 -209,-101 -422,-263 -684,-71 74,294 293,379 544,396 62,5 149,-81 188,-148zm-951 5050c1,-62 -79,-165 -140,-181 -59,-15 -187,41 -206,94 -79,218 -214,442 -17,725 275,-169 357,-390 363,-638zm7930 3048c-166,134 -357,269 -356,573 528,-60 640,-136 634,-405 -4,-164 -155,-267 -278,-168zm-5954 -1211c-164,103 -307,235 -534,417 377,170 570,60 729,-97 51,-51 50,-190 21,-270 -14,-40 -168,-80 -216,-50zm1374 4050c-117,280 -241,489 -64,787 281,-136 373,-332 333,-569 -13,-76 -156,-130 -269,-218zm-13888 -2359c-20,-36 -141,-64 -179,-39 -221,146 -468,284 -448,632 318,36 505,-138 652,-357 35,-52 11,-169 -25,-236zm17473 -5983c-387,-228 -387,-228 -661,-107 274,415 408,444 661,107zm-13043 5647c-130,141 -258,289 -360,451 -23,37 55,137 90,207 5,9 31,11 47,11 195,4 442,-321 384,-558 -39,-27 -154,-118 -161,-111zm2278 -11296c-276,-182 -524,-185 -791,121 641,217 641,217 791,-121zm15073 5771c-93,4 -204,-23 -275,18 -190,111 -363,252 -543,381 9,35 16,69 25,104 226,-67 462,-114 675,-211 69,-31 80,-191 118,-292zm371 -9856c246,-152 736,271 812,-353 -317,56 -693,-98 -812,353zm-1281 5412c-161,106 -312,205 -490,323 156,118 285,215 451,340 127,-265 319,-436 39,-663zm-11986 1567c-164,58 -318,141 -532,243 273,223 457,178 629,42 42,-34 67,-130 51,-181 -17,-49 -113,-117 -148,-104zm9832 -8946c-149,-67 -298,-135 -444,-200 -138,119 -247,212 -356,306 9,35 19,69 28,105 247,-15 494,-30 742,-44 10,-56 20,-111 30,-167zm-385 3042c411,178 522,136 693,-267 -279,-12 -539,-34 -693,267zm-450 3299c-1,4 -3,7 -4,10 -68,-19 -154,-41 -287,-76 129,304 -221,496 10,758 99,-243 188,-463 277,-682 56,14 99,26 142,37 -46,-15 -92,-31 -138,-47zm-407 11686c-20,-34 -149,-53 -179,-25 -128,119 -237,259 -353,391 306,135 453,23 556,-141 33,-53 11,-164 -24,-225zm-4624 -16309c378,-175 410,-335 78,-592 -148,332 -148,332 -78,592zm4861 -4250c-85,-132 -247,-154 -392,-48 19,34 36,64 54,97 -404,443 -509,630 -323,817 -19,6 -35,10 -56,17 120,100 195,163 361,302 2,-43 4,-67 6,-101 22,13 41,25 66,40 12,-304 25,-582 39,-909 67,120 134,241 205,370 204,-210 148,-417 40,-585zm3486 15586c-23,-29 -45,-57 -67,-86 -137,68 -272,136 -423,211 56,175 97,305 161,508 137,-265 233,-449 329,-633zm5627 -9758c48,-48 28,-166 49,-335 -249,90 -425,154 -601,217 278,231 420,246 552,118zm-3899 7592c-11,9 -11,31 -33,98 198,155 391,233 597,55 29,-26 19,-162 -9,-176 -185,-92 -378,-137 -555,23zm160 -3643c-90,-114 -181,-228 -341,-429 -84,268 -140,444 -195,621 36,23 72,45 109,68 142,-86 284,-173 427,-260zm-12425 3c-286,-6 -435,129 -545,378 440,32 457,20 545,-378zm6797 5088c44,-20 86,-119 74,-166 -14,-49 -100,-116 -147,-109 -172,21 -342,70 -600,129 261,246 465,240 673,146zm-3052 -13298c-173,-105 -77,-628 -510,-372 44,147 85,283 132,434 147,-24 263,-43 378,-62zm1840 3167c-535,109 -567,152 -365,520 108,-186 494,-149 365,-520zm-9965 3093c-7,-55 -139,-95 -261,-171 -66,242 -117,427 -196,713 401,-112 486,-303 457,-542zm13818 4978c169,-91 317,-152 435,-249 31,-25 -32,-164 -59,-283 -220,114 -465,144 -376,532zm-16911 6517c-61,-37 -181,-65 -221,-31 -124,105 -305,193 -244,418 229,92 363,-43 474,-205 29,-43 21,-164 -9,-182zm17145 -14095c148,-103 263,-175 368,-260 96,-78 182,-171 355,-338 -726,221 -749,241 -723,598zm-4426 16220c-122,193 -268,323 -159,535 328,-122 374,-152 360,-338 -5,-63 -117,-119 -201,-197zm4067 -9643c128,-159 256,-317 415,-514 -138,-55 -240,-94 -379,-148 -50,255 -86,439 -122,623 29,13 58,26 86,39zm-5526 -5610c3,-133 -51,-293 -151,-515 -588,335 -614,402 -458,1144 245,-145 407,-255 502,-367 195,56 356,51 509,-103 -212,-154 -290,-211 -402,-159zm-10345 8577c58,-31 64,-156 121,-315 -257,43 -436,73 -706,119 226,291 409,291 585,196zm9567 -5087c24,27 47,54 69,82 505,-203 505,-203 435,-569 -183,177 -343,332 -504,487zm14708 -5109c-198,-135 -362,-143 -364,263 51,-16 91,-30 136,-45 166,38 289,66 430,99 45,-163 81,-295 150,-553 -138,92 -248,166 -352,236zm-16789 1044c-303,79 -303,79 -301,450 303,-25 258,-251 301,-450zm5733 1523c-194,5 -351,9 -509,13 312,336 312,336 509,-13zm7270 1846c175,-118 138,-255 -39,-415 -163,100 -298,190 -169,372 32,44 164,72 208,43zm3450 -5854c-155,28 -295,53 -436,78 377,295 390,291 436,-78zm-14727 3216c-160,36 -307,70 -488,111 349,299 383,290 488,-111zm2952 -10941c-188,160 -241,293 -116,501 195,-133 314,-244 116,-501zm4910 21671c-72,120 -144,239 -216,357 256,3 411,-57 216,-357zm-6284 -4979c-267,-89 -361,26 -456,216 237,101 350,17 456,-216zm7728 379c-259,-23 -311,136 -319,339 193,-25 367,-71 319,-339zm6412 -8623c-11,-28 -86,-34 -161,-60 -48,134 -92,257 -171,476 307,-102 405,-211 332,-416zm-9768 1237c118,-113 216,-206 314,-300 -399,-57 -399,-57 -314,300zm-6254 19989c184,-124 300,-202 499,-336 -398,-23 -398,-23 -499,336zm-8306 -10188c243,-29 384,-87 371,-349 -269,-35 -320,119 -371,349zm-845 4481c266,57 372,-26 433,-233 -233,-94 -328,12 -433,233zm4800 -4113c162,129 283,234 496,10 -180,-152 -312,-190 -496,-10zm2261 -5128c200,-90 299,-195 223,-466 -254,116 -306,246 -223,466zm9451 -9618c309,66 411,-17 443,-201 -34,-37 -68,-73 -103,-110 -94,87 -189,173 -340,311zm-3417 16961c-132,202 -132,202 -47,551 127,-253 267,-384 47,-551zm6774 -18969c-89,84 -152,144 -214,202 38,-61 76,-121 113,-182 -45,-31 -91,-61 -135,-92 -89,127 -176,253 -265,380 56,28 111,58 166,86 20,-30 38,-60 58,-91 160,55 288,98 444,152 -58,-157 -98,-265 -167,-455zm-8921 16367c-206,348 1,423 250,446 -74,-131 -147,-263 -250,-446zm-600 -18568c-147,-109 -273,-171 -426,-8 238,156 238,156 426,8zm2898 9021c-192,-107 -321,-76 -460,135 204,58 350,102 460,-135zm-510 -5210c151,190 252,289 473,97 -95,-63 -156,-125 -230,-146 -53,-16 -121,21 -243,49zm-4346 2698c-211,-114 -332,-39 -461,195 237,40 385,42 461,-195zm2947 4165c96,-152 163,-250 216,-354 3,-6 -116,-106 -150,-92 -136,55 -242,146 -66,446zm2837 -8824c-179,-77 -289,-124 -403,-174 2,289 2,289 403,174zm3268 9800c-227,30 -377,69 -438,309 213,-24 448,81 438,-309zm-5929 -4793c-137,104 -164,228 -11,489 71,-210 112,-329 152,-449 -47,-13 -93,-26 -141,-40zm2441 12449c110,-51 219,-102 328,-153 -29,-58 -59,-116 -89,-175 -102,68 -206,137 -308,205 23,41 46,82 69,123zm-15896 2388c-50,109 -101,217 -150,326 41,21 82,43 123,65 65,-101 130,-202 196,-303 -57,-29 -113,-58 -169,-88zm16981 -1806c-143,144 -161,263 39,386 119,-154 184,-278 -39,-386zm-7474 -12701c85,-88 165,-171 272,-282 -260,-105 -329,8 -357,178 -3,19 37,46 85,104zm1448 2679c-47,-111 -89,-212 -164,-389 -191,401 -191,401 164,389zm8399 5470c188,67 309,110 430,153 -74,-177 -157,-327 -430,-153zm27 -6572c-103,78 -206,154 -308,232 14,31 28,61 42,92 92,-3 183,-7 275,-10 -1,2 -2,4 -2,7 -368,246 -689,629 -1206,443 -31,-194 -59,-370 -90,-563 -490,82 -787,304 -1014,755 346,63 384,437 767,505 387,69 465,-290 792,-407 -68,373 -123,676 -174,955 222,-100 432,-195 644,-290 25,30 50,59 75,90 -121,235 -243,471 -364,707 405,-205 715,-192 961,55 -1,1 -3,0 -5,1l22 12c0,0 -1,-1 -1,-1 0,0 2,1 2,1 -128,30 -256,59 -369,84 -27,468 427,353 565,581 -184,638 -603,652 -1089,508 -328,-98 -885,100 -1019,378 -45,94 -10,225 -12,411 495,-482 869,-580 1248,-368 -51,151 -101,304 -163,491 256,-21 498,49 748,95 25,80 93,134 198,117 77,-14 151,-52 224,-99 61,-5 119,-1 182,-17 -15,-31 -28,-55 -43,-84 84,-70 165,-148 241,-219 186,-175 248,-389 -64,-650 52,-88 83,-192 109,-294 60,-224 -126,-291 -288,-364 -36,-16 -52,-75 -78,-115 110,-116 208,-219 355,-372 -301,-38 -531,-66 -760,-94 -1,-1 -2,-1 -3,-2 33,-7 71,-5 96,-24 434,-320 870,-639 1296,-970 55,-43 104,-196 79,-220 -61,-60 -172,-113 -253,-102 -233,32 -462,97 -693,150 13,17 27,34 40,51 -257,178 -514,357 -805,558 -74,-281 111,-374 241,-494 197,-183 216,-347 -14,-478 -323,-41 -413,506 -805,244 35,-97 69,-191 106,-291 120,36 226,66 334,98 101,-134 183,-245 265,-356 256,162 253,152 494,61 300,-114 609,-228 895,46 134,-194 261,-378 388,-563 -29,-28 -57,-56 -85,-83 -127,93 -253,188 -386,287 -73,-94 -135,-173 -196,-251 -64,9 -117,10 -164,26 -325,110 -643,302 -981,15 -38,-33 -162,33 -246,54l1 -1 0 1c-1,0 11,-15 11,-15 -2,0 -5,0 -7,0 24,-84 47,-167 71,-251 -27,-21 -54,-42 -80,-63zm171 6971c-6,-30 -105,-73 -108,-69 -66,85 -126,176 -238,343 275,-42 375,-103 346,-274zm-5323 -12799c26,40 52,81 77,123 194,9 304,-82 346,-421 -195,137 -309,217 -423,298zm-1573 26613c-10,199 -17,322 -28,544 257,-207 316,-327 28,-544zm-7217 -12753c-150,129 -84,251 111,375 12,-123 23,-245 34,-367 -48,-3 -97,-5 -145,-8zm756 -6047c-250,92 -282,222 -222,434 212,-88 306,-187 222,-434zm1652 6821c16,21 61,18 146,39 -3,-133 -6,-252 -10,-420 -274,113 -249,240 -136,381zm-10181 4493c32,37 63,73 95,110 94,-84 188,-169 326,-294 -299,-86 -379,21 -421,184zm11254 -599c229,226 229,226 384,5 -149,-2 -266,-3 -384,-5zm-5160 -8642c-157,36 -265,61 -373,85 175,168 297,174 373,-85zm4147 -6161c177,-78 280,-123 384,-169 -15,-42 -29,-85 -44,-127 -186,-71 -265,28 -340,296zm3426 12657c-72,129 -125,192 -139,263 -10,50 35,110 84,245 77,-137 132,-200 145,-272 10,-49 -39,-109 -90,-236zm5319 572l0 -2 0 0 0 1c-65,-69 -129,-139 -214,-229 -135,105 -251,196 -392,305 270,186 431,18 606,-76l0 0c-53,142 -105,285 -188,511 380,-157 254,-341 188,-510zm-1211 -7544c-101,-92 -197,-109 -292,-114 -21,-2 -44,42 -67,65 1,32 2,64 3,96 118,-16 237,-31 356,-47zm-567 -755c296,-27 407,-105 298,-386 -81,106 -163,211 -298,386zm-3106 -5825c-93,185 -141,282 -189,378 252,15 296,-84 189,-378zm9034 -1530c154,-78 256,-130 358,-182 -236,-158 -330,-87 -358,182zm1242 -461c68,-220 116,-296 96,-327 -37,-58 -115,-88 -176,-130 -40,61 -118,129 -109,182 12,74 89,138 189,275zm-789 -519c87,-31 174,-62 261,-93 -26,-59 -51,-118 -76,-176 -83,43 -166,86 -248,129 21,47 43,93 63,140zm-12248 14464c3,14 55,19 136,46 4,-128 8,-241 13,-427 -179,235 -181,235 -149,381zm5236 308c-124,28 -247,57 -426,96 205,173 335,193 426,-96zm-9264 -2875c-142,47 -249,83 -357,119 11,38 22,76 33,113 152,41 301,76 324,-232zm10483 -14528c-75,-111 -146,-223 -307,-134 -27,15 -46,105 -28,133 93,133 204,155 335,1zm-5005 17856c-25,-47 -50,-94 -74,-142 -168,-7 -276,61 -301,360 164,-95 269,-156 375,-218zm3006 -3829c-63,208 -99,326 -168,552 278,-164 358,-271 168,-552zm-5992 7275c157,-17 266,-28 374,-38 -7,-44 -14,-88 -20,-131 -137,-70 -259,-96 -354,169zm4493 -7064c-17,41 -35,84 -52,125 87,30 174,62 262,87 5,1 40,-78 37,-80 -80,-48 -164,-90 -247,-132zm-8646 9750c10,45 18,89 27,134 142,70 262,69 380,-204 -183,32 -295,51 -407,70zm9197 -329c43,-10 87,-20 130,-31 -20,-87 -39,-175 -65,-260 -2,-3 -81,18 -124,28 19,88 39,176 59,263zm-3365 -16601c28,-108 55,-215 83,-322 -35,-11 -70,-22 -105,-33 -37,102 -74,205 -112,307 45,16 89,32 134,48zm822 2784c44,20 89,41 133,61 45,-97 89,-194 134,-291 -34,-17 -69,-33 -104,-50 -54,93 -108,186 -163,280zm-7515 4730c62,-95 124,-189 224,-340 -324,-4 -338,125 -224,340zm25823 -10871c63,-42 125,-84 212,-142 -70,-47 -119,-100 -140,-90 -54,26 -104,73 -137,123 -10,16 42,72 65,109zm-5879 -274c-7,6 -13,6 -20,11 -202,-194 -416,-37 -626,-16 -253,115 -433,291 -414,667 -282,-418 -281,-411 -566,-364 -247,41 -430,139 -454,414 -24,267 -77,546 224,707 86,-102 166,-196 242,-286 6,3 12,7 17,10 26,-39 51,-80 76,-119 56,-65 112,-132 158,-186 46,77 104,269 233,360 157,110 374,135 606,209 119,-132 251,-277 383,-422 -25,-21 -40,-35 -61,-52 45,-39 93,-80 144,-123 165,765 96,832 -555,1045 -129,43 -289,58 -234,307 321,-15 648,-30 899,-40 205,-346 188,-767 615,-895 13,-228 23,-420 34,-608 -305,-38 -228,428 -566,335 27,-159 50,-305 94,-566 -162,85 -267,105 -298,164 -16,30 -18,69 -14,110 -182,15 -272,37 -312,99 61,-126 110,-226 173,-354 -240,-72 -440,-145 -425,-411l1 -1 -1 1c209,44 418,183 627,15 4,3 7,2 10,6l1 -1c4,-2 8,-4 13,-7 50,95 93,255 150,260 167,13 355,-7 505,-77 113,-54 180,-206 289,-340 -400,-132 -676,-1 -944,157 -2,-3 -3,-6 -4,-9zm-1759 7118c124,-58 294,-72 243,-366 -128,118 -216,200 -305,281 21,29 41,57 62,85zm-4186 590c-27,-16 -55,-32 -82,-48 -44,74 -88,148 -132,221 29,17 56,33 85,49 42,-74 86,-148 129,-222zm1906 9079c24,-83 48,-166 72,-249 -45,-5 -128,-20 -130,-15 -19,80 -27,163 -38,244 33,6 64,13 96,20zm-6190 -20109c44,10 88,21 131,32 84,-99 163,-196 -32,-403 -44,164 -72,268 -99,371zm1593 20048c-46,20 -74,80 -109,122 17,24 32,48 49,72 93,-30 185,-60 279,-91 -12,-39 -24,-79 -37,-118 -61,3 -129,-8 -182,15zm-3263 -13634c17,47 34,95 50,142 93,-38 185,-77 278,-115 -14,-35 -27,-70 -40,-106 -96,26 -192,52 -288,79zm12537 6616c-42,87 -83,176 -125,264 44,24 87,45 132,68 33,-97 67,-194 101,-291 -36,-14 -72,-28 -108,-41zm-9499 -10860c-100,-8 -199,-17 -298,-25 -2,35 -4,70 -7,104 98,13 197,24 295,35 4,-38 6,-76 10,-114zm-3001 5938c48,3 98,-51 215,-121 -128,-40 -185,-74 -238,-68 -39,4 -72,58 -108,90 43,36 85,97 131,99zm1023 -3455c-17,42 -34,84 -59,142 50,25 97,67 125,57 30,-11 70,-88 59,-106 -26,-40 -81,-63 -125,-93zm206 10763c92,-6 185,-11 277,-17 -1,-38 -2,-76 -3,-114 -91,-4 -182,-9 -274,-13 0,48 0,95 0,144zm-60 -12174c-3,-43 -4,-86 -6,-129 -71,16 -141,32 -211,48 3,28 6,56 9,84 69,-1 139,-2 208,-3zm4201 17102c-178,51 -280,80 -479,137 253,128 364,130 479,-137zm-9477 -3822c10,40 20,79 29,118 70,-21 139,-43 209,-65 -13,-40 -26,-80 -39,-119 -66,22 -133,44 -199,66zm16927 -11816c17,-43 34,-85 55,-140 -48,-25 -92,-70 -122,-62 -30,8 -74,90 -64,102 32,42 85,68 131,100zm-1338 3577c-8,39 -16,77 -23,116 99,20 198,41 297,61 8,-40 16,-80 23,-120 -99,-19 -198,-38 -297,-57zm-14751 3420c-101,1 -201,1 -302,2 -1,33 -3,66 -5,98 98,15 195,29 293,42 5,-47 10,-95 14,-142zm16261 -3292c-24,-35 -49,-71 -73,-107 -80,57 -159,113 -238,169 23,35 46,69 69,103 81,-55 161,-110 242,-165zm-2011 -1481c47,-63 73,-99 100,-136 -50,-29 -98,-72 -152,-81 -22,-4 -88,84 -81,95 30,45 80,77 133,122zm-5442 752c29,37 52,83 66,80 45,-9 86,-36 130,-56 -26,-33 -53,-92 -78,-92 -39,1 -77,43 -118,68zm-1205 -5823c-45,44 -87,100 -105,160 -8,23 47,66 104,138 49,-99 88,-163 109,-233 4,-11 -101,-73 -108,-65zm1087 4954c23,22 48,43 71,65 59,-66 117,-131 174,-196 -23,-21 -47,-43 -71,-64 -58,65 -116,130 -174,195zm-13729 5762c27,26 53,52 80,78 72,-62 144,-125 217,-187 -35,-38 -69,-75 -104,-113 -64,74 -128,148 -193,222zm1502 8394c14,-100 28,-200 42,-301 -37,-7 -73,-14 -110,-20 -23,91 -46,182 -70,273 46,16 92,32 138,48zm24601 -15435l176 -294 -3 -179c-42,-4 -93,-20 -157,-53 47,-37 98,-77 154,-121 -4,-255 -7,-497 -11,-761l489 325 92 -155 -294 7c158,-256 270,-435 374,-602 -292,-230 -590,-463 -906,-711 -114,236 -222,459 -341,705 140,26 273,52 405,77 110,120 60,437 -115,490 -268,81 -463,224 -610,455 -33,52 -130,121 -163,107 -141,-60 -266,-46 -384,-12 -40,101 -81,203 -123,305 99,5 201,27 314,89 38,21 143,-67 211,-113 86,-59 159,-144 253,-186 66,-29 157,-5 237,-5 -1,93 11,188 -6,277 -8,41 -77,67 -113,104 -30,32 -59,73 -104,132 1,12 -1,19 -1,31l626 88zm2965 -4956l281 -469 -162 -43c86,-58 162,-110 241,-163 -175,61 -341,120 -524,185 68,46 145,96 209,139 -42,119 -84,236 -130,366l85 -15zm1003 -1675l36 -60 -14 -118c-32,-3 -67,-7 -99,-10 -233,161 -479,235 -748,248 102,52 213,97 310,153l515 -213zm2044 -3417l20 -33 -10 -512c-77,20 -155,13 -245,-17 -118,117 -187,198 -236,320 90,-37 190,-68 299,-96 54,93 119,174 149,265l23 73zm-14355 -1361l-17 10 5 5 12 -15zm-422 243l-62 35 25 33c2,-1 3,-2 6,-3l31 -65zm9456 8350c2,44 3,87 6,131 -37,-32 -72,-62 -115,-100 43,-11 74,-21 109,-31zm-758 -385c-134,-25 -295,101 -497,177 146,117 234,187 322,258 -97,71 -190,137 -286,206 9,-152 -38,-289 -113,-455 -76,31 -146,60 -218,89 16,-11 35,-21 46,-36 168,-216 299,-466 411,-718 17,-38 16,-103 3,-162 200,-103 406,-194 612,-280 96,9 227,-9 432,-40 -4,-61 -9,-132 -13,-194 105,-83 185,-183 244,-297 311,28 360,-468 651,-513 101,141 207,290 280,392 -48,300 -431,352 -323,672 122,-12 229,-23 338,-34 -10,78 -20,148 -31,230 80,41 162,83 242,122 -51,99 -153,162 -215,209 10,44 17,76 26,113 -260,-140 -411,-362 -428,-787 -259,151 -423,198 -511,306 -86,105 -146,290 -180,511 -224,162 -462,292 -792,231zm-573 1492c-110,74 -217,131 -326,173 34,-79 66,-159 101,-235 65,-18 136,-11 225,62zm-612 -1508c9,104 23,220 43,400 67,-22 142,-36 211,-53 -142,57 -279,113 -416,169 34,-190 85,-369 162,-516zm-1031 -1014c10,-70 -33,-184 -88,-216 -59,-35 -174,-24 -241,12 -205,110 -402,235 -598,356 -11,-3 -17,-9 -30,-11 -86,-15 -196,102 -295,158 10,10 20,20 29,31 -308,-224 -616,-378 -966,-369 -29,-97 -57,-188 -88,-293 -47,27 -83,58 -122,88 -17,-78 -37,-149 -78,-204 -286,-376 -293,-369 138,-603 40,-22 62,-77 96,-119 -59,-83 -112,-159 -224,-318 347,177 583,460 909,180 24,155 43,284 62,404 549,109 538,109 548,-370 4,-181 157,-385 -85,-509 -232,-119 -317,166 -494,214 -58,16 -113,40 -221,78 74,-178 123,-297 178,-432 493,89 605,-261 783,-597 70,-41 138,-80 207,-121 7,76 13,139 19,193 103,32 206,64 310,96 -40,107 -65,171 -89,235 163,44 317,87 494,135 -60,166 -160,306 -138,422 22,114 170,203 277,319 -108,120 -220,246 -332,371 -4,0 -5,-1 -8,-1 -22,-97 -44,-196 -75,-327 -197,300 -197,305 75,327 1,3 1,5 2,7l8 -6c-174,230 -411,293 -690,288 -196,-4 -420,-54 -607,234 171,48 363,164 436,112 394,-279 835,-239 1269,-262 -20,42 -39,84 -57,127 -25,61 -35,115 -39,164 -11,4 -18,2 -29,7 10,18 19,36 29,53 8,79 44,142 103,195 33,62 66,125 105,198 -257,4 -265,242 -331,429 -96,57 -191,115 -287,174 17,13 32,23 49,35 -27,4 -50,13 -85,10 61,-308 127,-599 171,-894zm-1930 922c9,-5 17,-10 25,-16 -49,-164 -93,-310 -138,-459 162,12 319,50 468,149 -74,160 -139,300 -228,491 -48,-63 -87,-113 -127,-165zm-14 -3307c23,-65 83,-118 128,-176 43,44 110,81 122,131 10,44 -42,102 -81,185 -81,-65 -175,-120 -169,-140zm-1395 1161c118,-158 198,-264 278,-371 67,107 138,216 258,398 -216,-11 -346,-17 -536,-27zm458 -717c90,268 90,270 -178,341 60,-115 120,-231 178,-341zm-1852 -79c116,-35 233,-53 330,-37 98,15 192,23 283,27 90,42 185,87 290,128 -381,97 -662,127 -903,-118zm-2064 1237c52,-30 106,-58 160,-84 0,2 -2,7 -2,9 -59,52 -110,72 -158,75zm11251 147c106,-91 224,-194 398,-345 27,119 49,216 71,315 -148,25 -300,51 -451,76 -6,-16 -11,-30 -18,-46zm641 -1042c-37,123 -51,268 -63,427 -88,-58 -168,-112 -263,-175 111,-87 217,-168 326,-252zm-3900 81c1,15 -1,28 0,44 11,-8 20,-17 30,-26 34,19 65,38 99,58 172,-89 257,-214 275,-392 263,-244 514,-497 748,-766 1,-1 2,-2 3,-3 116,-47 225,-92 353,-144 -55,-16 -103,-31 -150,-45 150,-113 306,-154 490,-46 -9,18 -16,34 -25,53 -236,246 -466,498 -906,465 104,161 173,266 234,360 -144,188 -264,345 -395,519 187,84 319,75 428,19 -13,31 -28,62 -42,91 -114,250 -224,501 -389,682 -4,2 -8,5 -13,7 -1,-3 -3,-5 -3,-7 86,-129 85,-254 -49,-349 -161,-115 -242,29 -345,119 -102,90 -207,178 -318,269 -77,-62 -148,-111 -216,-141 4,-15 14,-26 14,-43 9,-176 -140,-461 -292,-523 -323,-134 -256,-314 -167,-574 212,124 421,247 636,373zm740 876c1,2 2,3 3,5 -16,17 -34,34 -51,49 11,-16 25,-30 35,-47l13 -7zm-12 6l1 -3c-1,1 -1,2 -1,2l0 1zm-1812 -3077c81,26 153,48 224,70 -46,24 -92,53 -139,88 -24,-53 -51,-105 -85,-158zm2653 266c-8,-72 48,-135 254,-173 41,-8 99,-154 82,-218 -77,-309 133,-383 342,-456 33,45 67,83 103,119 -96,86 -188,167 -279,248 53,124 102,242 149,353 -221,56 -434,140 -651,127zm-1320 -479c96,-9 200,-43 312,-104 149,51 362,172 683,372 -28,12 -55,18 -83,27 -32,-27 -64,-48 -97,-83 -12,40 -22,76 -34,115 -322,49 -574,-99 -843,-146 18,-75 39,-133 62,-181zm-575 -328c-16,-5 -32,-9 -47,-13 1,-16 1,-29 1,-44 15,17 30,38 46,57zm2729 -641c36,-161 94,-335 199,-371 284,-100 243,-295 234,-531 -90,-16 -177,-31 -263,-47 44,-96 42,-195 13,-301 147,-129 255,-303 358,-472 26,139 38,280 36,420 -24,3 -47,6 -74,15 -28,10 -52,125 -42,131 32,19 69,36 105,54 -18,190 -48,379 -97,571 -28,116 -65,250 -117,361 -104,77 -213,146 -352,170zm-791 -219c83,-78 145,-138 184,-174 32,36 64,71 114,101 42,-33 72,-59 111,-90 -15,141 -46,274 -203,369 -77,-77 -143,-144 -206,-206zm-3033 180c238,-205 553,-202 572,-552 -109,-26 -208,-50 -308,-74 275,-83 402,-268 506,-468 123,45 249,121 376,271 -244,313 -476,624 -795,885 -115,-20 -227,-40 -351,-62zm52 925c32,-36 64,-75 94,-117 29,-42 54,-74 81,-112 21,43 39,80 63,128 -88,37 -163,69 -238,101zm-389 80c47,10 93,17 140,26 -35,15 -73,31 -107,45 -16,-25 -22,-47 -33,-71zm-354 192c53,13 94,68 141,105 -35,33 -70,65 -131,123 -48,-56 -87,-100 -125,-143 38,-31 85,-92 115,-85zm1120 -2913c-64,88 -128,178 -198,274 -54,-42 -112,-80 -169,-117 99,-80 237,-104 367,-157zm-691 -354c23,-14 44,-26 68,-40 -20,-7 -29,-8 -47,-14 206,-435 619,-207 1096,-238 12,1 25,2 37,3 -113,156 -209,290 -303,420 -126,26 -225,46 -307,73 -178,58 -302,120 -385,195 -136,-102 -222,-216 -159,-399zm6620 2077c74,-84 159,-157 277,-196 -34,299 -48,359 -169,453 -28,-75 -65,-163 -108,-257zm-545 -438c80,75 165,164 267,248 -221,112 -361,198 -512,253 -76,29 -165,28 -250,51 189,-145 343,-345 495,-552zm-2037 -1188c-76,-99 -172,-211 -285,-336 195,88 367,166 533,241 -102,36 -181,66 -248,95zm3725 172c65,156 119,285 173,415 -41,18 -81,35 -122,53 -97,-122 -297,-218 -51,-468zm-3626 -1777c57,-2 114,8 168,36 5,49 6,96 8,143 -75,-36 -137,-91 -176,-179zm-1369 561c47,-50 88,-107 132,-169 42,142 88,298 140,477 -26,27 -49,57 -72,88 -135,-41 -267,-80 -386,-117 -3,-71 61,-141 186,-279zm-1949 -1378c14,-9 28,-19 41,-29 118,-68 285,-82 385,-171 14,-13 31,-18 47,-27 -15,410 -305,585 -518,843 -35,-123 -48,-258 -51,-387 -3,-115 38,-182 96,-229zm-1467 667c-110,-11 -224,-34 -336,-49 148,-102 286,-197 426,-294 25,41 50,77 81,125 -63,37 -159,95 -255,151 27,23 56,45 84,67zm9427 -2167c25,-76 51,-158 84,-259 53,38 94,67 133,95 -76,57 -148,113 -217,164zm-24 1032c-62,29 -130,61 -195,90 34,-63 84,-109 144,-144 18,19 33,35 51,54zm913 1641c-73,121 -161,233 -242,343 -2,-4 -4,-9 -7,-12 81,-107 163,-217 249,-331zm-1547 179c24,-31 48,-62 72,-94 37,13 73,28 110,41 -8,103 11,222 -33,305 -38,70 -152,99 -232,147 -40,-46 -80,-91 -121,-137 37,-48 75,-97 112,-144 74,17 93,-15 92,-118zm1662 -448c-91,-191 -138,-289 -183,-383 55,-26 105,-51 157,-76 48,172 60,323 31,451 -1,3 -4,5 -5,8zm-1115 757c1,-3 2,-4 3,-7 159,108 311,212 493,335 -17,11 -29,19 -45,30 -274,-126 -419,-230 -451,-358zm1078 -3029c56,90 111,182 167,272 -67,18 -138,35 -222,54 -3,-4 -6,-5 -9,-9 -56,-64 -79,-158 -116,-239 56,-19 121,-55 180,-78zm-1830 4965c-2,297 -212,286 -393,183 3,-67 6,-132 9,-205 132,4 258,9 385,14 0,3 -1,5 -1,8zm-7780 815c38,-60 72,-124 88,-200 23,46 40,79 61,120 -47,28 -98,54 -149,80zm3081 -1437c-386,77 -595,391 -547,831 -181,-182 -402,-334 -647,-507 34,-20 70,-42 112,-68 176,-107 386,-161 587,-242 -54,-108 -103,-218 -162,-324 109,30 226,34 365,-26 135,-57 468,154 436,483 -6,63 -10,126 -11,187 -45,-114 -89,-222 -133,-334zm798 453c-1,4 -1,8 -2,11 -3,0 -5,-1 -8,-1 4,-4 7,-7 10,-10zm-1183 1124c353,-88 609,-152 920,-230 3,12 5,25 9,36 -261,426 -540,504 -929,194zm2657 653l0 -1c329,-61 346,-252 323,-484 5,-7 10,-14 14,-20 -6,0 -9,1 -14,2 -4,-32 -8,-64 -11,-97 -228,8 -427,14 -642,21 -45,211 -84,395 -122,578 -61,-210 -233,-504 -155,-606 57,-74 89,-146 115,-218 171,-8 314,-55 442,-126 -24,25 -48,46 -68,86 266,73 499,136 689,187 118,-19 203,-75 278,-146 9,70 22,139 37,208 -20,22 -45,41 -61,66 -215,332 -408,679 -615,1029 -142,-54 -247,-95 -399,-154 27,-49 50,-101 70,-150 0,0 0,1 1,2 43,-64 79,-118 118,-177zm799 90c152,-15 306,-25 457,-45 406,-57 440,-110 365,-559 41,-17 85,-41 131,-53 64,-16 131,-31 193,-32 50,58 102,119 161,187 -231,198 -458,393 -687,589 -192,64 -394,62 -620,-87zm-7398 167c-20,-1 -41,18 -63,38 -7,-118 -15,-241 -23,-362 77,-60 156,-115 244,-155 4,-2 9,0 13,-2 69,244 94,404 65,496 -79,-4 -157,-11 -236,-15zm3425 1223c-84,37 -175,76 -261,124 -10,-37 -11,-67 -24,-106 104,-43 213,-87 319,-131 -11,38 -22,74 -34,113zm2350 262c16,-42 30,-80 47,-129 -100,74 -176,130 -242,182 -213,64 -439,128 -694,104 -2,-23 -2,-45 -2,-67 148,-104 243,-194 336,-194 436,-3 508,-36 698,-484 -16,-30 -26,-79 -49,-87 -430,-136 -489,-231 -242,-583 128,-183 142,-543 516,-476 -111,184 -222,368 -340,563 78,69 161,126 245,179 -14,204 -23,354 -41,627 213,-127 347,-207 498,-296 54,57 105,119 140,197 20,43 172,9 240,49 52,30 75,110 108,173 -274,-85 -431,78 -576,320 -219,-144 -427,-130 -642,-78zm-2699 -1165c55,-29 105,-57 162,-87 -81,-50 -159,-100 -237,-147 197,76 358,139 516,201 -127,488 -564,570 -891,788 -75,-223 117,-260 231,-349 220,-173 273,-216 219,-406zm2693 2094c-324,138 -612,40 -864,-104 6,-94 10,-188 9,-281 290,118 611,167 992,88 -1,20 -2,41 -3,63 -62,129 -86,213 -134,234zm-6144 5030c-15,-33 -25,-57 -39,-88 29,-36 63,-76 93,-112 -18,66 -34,126 -54,200zm-6827 -8653c-295,-25 -449,75 -550,354 -3,5 -3,9 -4,15 14,-228 -40,-379 -174,-492 197,-113 408,-212 631,-302 30,130 59,256 97,425zm8467 9451c-116,-3 -229,-8 -342,-13 3,-61 -1,-125 -22,-198 -91,68 -172,129 -247,186 -373,-18 -736,-33 -1092,7 -537,60 -654,400 -364,1039 123,-188 183,-296 258,-392 72,-90 159,-168 214,-225 17,27 34,54 51,80 2,56 4,119 5,176 -26,43 -52,88 -78,132 165,118 330,237 495,355 10,15 18,28 28,44 3,-7 5,-12 8,-19 69,50 139,100 209,150 39,-53 78,-106 117,-159 -44,104 -87,208 -149,356 475,88 672,27 709,-193 49,-287 -124,-466 -562,-563 29,-134 122,-241 214,-352 228,-13 461,-8 548,-411zm-6294 759c-51,236 18,458 215,675 75,-56 129,-95 181,-136 196,-161 369,-330 678,-233 160,50 343,-59 261,-365 -93,-10 -193,-19 -288,-29 32,-14 58,-24 94,-39 -66,-253 -130,-497 -206,-790 -150,101 -294,198 -442,297 -45,12 -94,41 -145,97 -156,106 -315,212 -472,318 47,85 86,149 124,205zm-6228 9314c-129,-37 -241,-38 -344,-23 71,-196 130,-358 208,-576 -364,47 -443,351 -753,548 161,33 276,57 366,75 -147,73 -264,208 -352,393 -120,253 -37,436 268,535 343,-217 682,-434 607,-952zm8209 -4240c-13,12 -25,22 -35,34 -4,-15 -7,-30 -10,-45 14,3 29,7 45,11zm623 -165c-22,1 -38,2 -59,3 -34,-72 -68,-144 -113,-207 -36,-52 -104,-79 -150,-111 -233,81 -471,129 -417,444 -105,9 -210,18 -339,29 106,192 186,338 277,502 22,-14 30,-29 46,-43 8,315 183,432 463,418 109,-386 201,-712 292,-1035zm-2395 575c175,-49 347,-106 524,-143 48,-10 82,-31 118,-50 -93,88 -182,180 -272,272 -132,14 -241,25 -346,36 -8,-38 -16,-77 -24,-115zm-3103 364c343,-216 565,-480 549,-910 -716,67 -817,232 -549,910zm-8398 -671c164,-558 164,-558 -96,-893 -467,481 -466,505 96,893zm11198 2948c-738,80 -771,116 -665,813 301,-249 710,-306 665,-813zm-11492 749c-262,-403 -453,-514 -706,-318 -12,-36 -28,-72 -50,-93 -50,-48 -188,-83 -224,-52 -220,195 -503,357 -493,719 219,10 424,-60 573,-168 338,-32 619,-60 900,-88zm-2355 -3322c101,-49 162,-131 190,-242 14,-56 -81,-138 -164,-270 -79,137 -144,249 -209,360 -514,354 -473,479 -12,908 67,-260 127,-493 195,-756zm944 839c-690,34 -690,34 -544,609 197,-220 370,-415 544,-609zm5622 12015c-32,-326 -56,-571 -81,-816 -411,443 -411,443 81,816zm-11441 -136c211,-149 392,-276 713,-503 -844,-149 -850,-144 -713,503zm2285 -6358c-430,-85 -616,42 -586,527 358,-87 550,-201 586,-527zm3673 -901c-453,37 -575,188 -422,569 116,-156 231,-312 422,-569zm14996 -14408c366,-205 365,-340 -110,-527 51,245 76,365 110,527zm3418 6799l124 -67c9,39 17,76 34,124 51,-84 90,-151 126,-210 81,-43 165,-88 272,-145 -438,-211 -512,-59 -556,297 -115,-133 -217,-218 -249,-324 -57,-187 -173,-252 -342,-257 -275,-10 -358,-130 -310,-405 19,-100 -89,-317 -151,-320 -86,-6 -175,-15 -264,-22 150,-127 229,-245 250,-391 479,-124 477,-203 332,-677 -180,-9 -393,47 -477,-33 -295,-282 -465,2 -709,65 184,206 224,238 428,308 -2,235 151,503 80,724 -186,-6 -375,14 -556,146 88,103 199,177 220,271 21,91 -50,203 -84,319 192,-8 341,-15 577,-25 -135,181 -220,296 -318,426 380,330 825,398 1274,422 104,5 213,-111 337,-181l-38 -45zm-9887 9499c-36,-24 -73,-49 -110,-73 -79,128 -158,258 -238,386 29,20 58,39 87,58 88,-124 175,-247 261,-371zm39560 -93629c91,28 209,106 267,74 244,-131 501,-266 686,-462 83,-88 8,-325 7,-494 0,-40 9,-80 22,-178 99,133 164,218 220,293 316,-222 605,-425 895,-628 43,58 87,116 131,175 40,-66 111,-131 112,-198 3,-142 -85,-162 -198,-90 -8,-239 -15,-477 -24,-745 -122,-37 -266,-156 -376,59 -101,197 -170,421 -466,403 -37,-3 -108,95 -118,154 -71,400 -321,496 -661,398 -142,154 -212,309 -216,472 -32,-21 -61,-40 -98,-65 20,179 37,329 55,481 -54,24 -104,50 -140,88 -59,64 -67,174 -98,263zm102 -6642c-78,180 -144,332 -207,476 -105,-12 -252,-70 -298,-25 -146,144 -7,177 113,237 43,22 62,204 20,260 -77,104 -207,168 -342,269 -39,-386 -381,-455 -561,-439 -343,30 -531,-193 -814,-272 74,-136 132,-244 208,-383 -477,86 -608,175 -557,376 51,200 136,391 217,616 298,-87 555,12 752,271 119,-98 205,-170 292,-242 19,14 37,28 55,42 -25,49 -47,102 -78,148 -31,45 -71,83 -122,142 497,141 913,64 1314,-192 57,-281 116,-572 173,-855 124,-63 231,-118 431,-221 -256,-89 -411,-143 -596,-208zm-952 5141c26,176 45,301 65,434 -212,-69 -396,-129 -613,-199 177,-76 341,-146 548,-235zm7943 -16150c-48,44 -92,92 -144,145 108,190 207,363 305,536 449,14 449,14 635,-198 -71,-139 -225,-309 -188,-389 226,-478 -141,-885 -141,-1347 -285,141 -396,377 -284,631 126,289 5,452 -183,622zm-8628 18809c26,-23 53,-48 83,-75 -148,-54 -284,-124 -412,-203 -5,34 -9,69 -18,100 125,69 227,124 329,180 3,2 7,4 10,5 2,-2 5,-5 8,-7zm-1717 -1138c149,1 315,2 473,4 27,-175 42,-307 69,-436 18,-87 51,-170 77,-255 -92,-25 -187,-76 -276,-67 -86,8 -167,77 -267,128 -95,-228 -20,-521 -336,-558 -72,132 -143,262 -219,402 156,253 307,501 479,782zm1370 -2342c-33,74 -223,111 -338,105 -90,-5 -168,-128 -264,-154 -224,-61 -474,-164 -633,187 219,108 397,246 341,606 288,-445 288,-445 467,-476 13,112 26,223 46,396 306,-300 568,-557 866,-850 -275,-66 -395,-17 -485,186zm6573 1344c147,240 294,38 433,-49 27,-17 64,-17 102,-26 109,129 149,383 456,236 48,-166 102,-357 178,-625 -393,9 -685,-201 -950,50 -118,112 -346,205 -219,414zm2966 -8092c357,150 635,353 635,769 0,26 164,52 224,71 119,-233 217,-425 327,-639 -209,-116 -393,-236 -591,-323 -189,-82 -406,-210 -595,122zm-5287 2682c12,-146 28,-322 51,-572 -155,35 -270,78 -387,84 -118,6 -238,-26 -358,-40 -430,-51 -488,25 -378,493 355,12 712,23 1072,35zm5158 2573c-157,70 -316,133 -473,202 -371,164 -395,292 -112,676 371,-262 564,-753 1124,-580 -193,-392 -259,-424 -539,-298zm-6195 -3277c-27,-256 -44,-489 -81,-717 -6,-39 -95,-66 -178,-120 -39,176 -68,307 -107,488 -368,-147 -368,-147 -527,168 255,288 546,375 893,181zm10166 -2557c14,84 168,147 268,228 -332,227 -332,227 -253,496 422,-68 451,-499 640,-651 -64,-228 -105,-375 -147,-522 -315,61 -542,238 -508,449zm-725 -10545c-552,-71 -737,355 -589,1094 570,-656 643,-796 589,-1094zm-9011 14892c-487,155 -571,555 -718,906 -1,-1 -1,-1 -1,-2 -6,2 -11,5 -16,6 -105,-225 48,-572 -337,-692 -62,56 -164,103 -180,170 -38,159 -97,361 -32,483 82,153 289,179 468,72 24,-15 53,-23 81,-33 3,7 4,13 7,19l0 0c4,-7 6,-15 10,-23 55,125 131,213 272,109 146,-109 350,-202 409,-349 75,-188 30,-424 37,-666zm8517 2531c-47,39 -93,77 -143,120 -14,-54 -35,-88 -55,-126 59,24 123,25 198,6zm6872 -21818c240,-118 531,-187 631,-563 -353,-162 -606,-25 -820,193 -53,54 -52,199 -22,283 18,51 162,111 211,87zm-2605 2953c-168,268 141,335 243,489 8,12 31,14 15,7 224,-115 425,-217 724,-370 -211,-118 -307,-207 -414,-223 -194,-30 -429,-122 -568,97zm1197 2873c-23,56 32,205 73,215 149,33 306,31 460,29 172,-3 353,-6 420,-261 -228,-234 -490,-233 -748,-182 -81,17 -170,116 -205,199zm-5113 12567c136,-248 264,-482 412,-752 -372,-129 -551,-27 -692,312 -114,277 26,369 280,440zm-6382 -11128c-13,87 35,206 97,270 39,40 171,36 234,1 189,-102 335,-551 283,-810 -336,94 -580,292 -614,539zm-1262 7150c166,-22 336,-52 489,-118 121,-53 218,-162 383,-291 -401,-222 -658,-128 -894,17 -65,41 -94,169 -103,260 -4,42 87,137 125,132zm-3926 5355c-94,156 -198,330 -322,536 140,131 248,233 344,322 384,-103 242,-393 263,-610 16,-161 -64,-265 -285,-248zm8425 1993c-50,63 -130,120 -142,189 -27,147 -19,300 -26,480 311,14 583,53 715,-341 -171,-71 -301,-115 -419,-179 -54,-29 -86,-98 -128,-149zm-7242 -4846c212,-316 312,-473 334,-590 105,-125 144,-286 -42,-575 -63,136 -116,250 -164,355 -445,383 -479,605 -128,810zm9462 658c218,-75 412,-141 601,-206 -51,-217 -89,-376 -127,-534 -398,42 -446,111 -474,740zm2372 -1082c-83,-79 -166,-159 -255,-244 -264,135 -468,239 -691,353 577,337 577,337 946,-109zm4413 -2810c169,15 345,24 510,-8 96,-19 175,-119 317,-224 -388,-190 -642,-249 -776,-161 -74,47 -127,151 -153,241 -12,40 61,148 102,152zm-15140 7748c66,26 179,29 224,-12 280,-251 321,-592 291,-962 -206,265 -318,576 -562,801 -22,21 12,160 47,173zm6526 -4275c518,-10 202,566 560,671 33,-265 62,-499 95,-769 -282,-221 -282,-221 -655,98zm-1261 -355c-26,63 40,192 101,253 28,28 182,-10 218,-60 134,-193 321,-372 270,-700 -358,34 -489,266 -589,507zm6454 -11519c244,32 518,145 707,-146 -128,-295 -377,-299 -620,-259 -78,13 -165,122 -195,206 -18,51 61,193 108,199zm-13987 12181c-5,43 74,137 119,140 250,15 517,79 758,-189 -256,-233 -505,-246 -759,-155 -59,21 -108,130 -118,204zm11332 -3135c329,-159 636,-203 671,-613 -341,-117 -563,7 -720,223 -50,68 25,225 49,390zm1707 4056c188,-102 359,-235 537,-356 -310,-223 -524,-116 -708,38 -55,46 -66,182 -48,264 8,36 167,83 219,54zm5629 -15636c-557,-83 -753,93 -590,529 480,-111 549,-173 590,-529zm-5474 11218c251,-90 525,-162 639,-513 -350,-87 -572,32 -764,221 -37,37 -47,137 -26,190 21,49 115,115 151,102zm-15454 5152c-86,-202 -166,-391 -272,-640 -272,195 -371,414 -218,646 120,182 319,141 490,-6zm1838 3417c-5,-1 -10,0 -16,-1l-1 0c5,3 10,7 15,10 -476,308 -380,754 -281,1228 210,22 428,46 639,68 11,57 27,90 22,121 -26,148 -24,316 152,320 86,2 227,-146 256,-250 106,-380 176,-771 271,-1215 -297,-47 -562,-79 -822,-135 -86,-18 -159,-87 -237,-137 1,-1 2,-2 3,-3 0,-2 0,-4 -1,-6 288,56 492,-103 704,-223 -183,-138 -328,-247 -484,-364 -179,151 -272,340 -220,587zm9808 -9101c194,-42 390,-84 620,-133 0,-154 0,-300 0,-511 -677,381 -677,381 -620,644zm435 -6643c-198,-57 -330,-109 -467,-131 -170,-28 -307,158 -213,297 91,133 224,237 387,403 112,-218 199,-387 293,-569zm-2396 2112c-345,435 -317,613 158,758 38,-300 139,-565 -158,-758zm2524 -1929c-35,181 93,230 316,217 53,-218 109,-447 177,-729 -398,40 -449,285 -493,512zm1257 -2786c42,20 141,-18 176,-61 128,-153 60,-474 -215,-742 -54,271 -106,449 -117,628 -4,58 89,142 156,175zm-4593 17010c138,-152 385,-252 313,-546 -298,-90 -438,119 -571,309 -33,46 -7,178 39,221 43,42 187,52 219,16zm2263 -15544c145,-103 350,-188 276,-454 -224,-93 -406,9 -537,171 -55,68 -15,213 -18,321 94,-10 211,11 279,-38zm7920 8683c60,-201 207,-410 -19,-653 -297,109 -326,333 -316,560 3,60 97,137 167,165 42,18 157,-31 168,-72zm-12086 -5696c313,108 554,50 737,-313 -675,-53 -675,-53 -737,313zm-519 7235c-136,160 -451,92 -452,474 131,61 261,122 454,214 47,-246 81,-431 116,-616 -39,-24 -79,-48 -118,-72zm9871 -8631c292,72 531,196 750,-60 -353,-380 -519,-376 -750,60zm-10181 11882c-211,486 -122,971 118,1452 266,532 616,668 1139,366 379,-219 730,-467 1040,-755 587,-85 675,-189 684,-710 -29,10 -60,21 -91,32 45,-64 85,-133 126,-200 107,-34 199,-62 283,-88 -67,-55 -124,-82 -177,-91 57,-110 110,-224 158,-343 34,-83 56,-167 82,-250 17,-15 33,-23 52,-43 -15,-2 -22,-4 -35,-5 235,-769 199,-1525 58,-2274 14,6 29,12 43,18 227,-230 465,-474 762,-777 -194,-23 -326,-79 -415,-41 -169,74 -335,157 -509,246 -33,-136 -67,-272 -103,-408 -79,-22 -156,-35 -231,-43 -1,-8 -2,-16 -2,-24 -171,2 -342,4 -513,6 1,17 1,34 2,52 -362,87 -685,292 -1007,487 -187,-132 -345,-243 -655,-460 74,704 135,1281 194,1850 -253,84 -254,109 -112,340 45,-88 83,-164 123,-243 2,19 3,38 6,56 177,-209 286,-444 395,-676 107,-64 205,-123 328,-196 -84,-30 -152,-43 -210,-45 128,-248 218,-358 409,-386 32,98 83,178 146,248 -433,346 -425,880 -547,1347 -146,18 -217,104 -153,312 19,0 39,-1 58,-1 -93,302 -95,592 -39,881 -24,59 -48,115 -76,183 41,-4 76,-14 115,-20 75,294 194,587 318,892 -578,262 -732,247 -878,-204 7,-1 12,2 19,1 166,-375 176,-793 12,-1112 -39,120 -79,234 -117,347 1,-85 -1,-171 1,-255 7,-220 94,-437 145,-655 -253,59 -399,183 -499,337 -93,143 -161,303 -239,457 -270,45 -377,165 -297,362 27,10 60,22 89,33zm1412 4236c252,-212 270,-458 136,-779 -351,197 -384,413 -136,779zm7962 -19127c146,-74 337,-128 316,-404 -223,-111 -400,-44 -533,105 -48,54 -37,191 -6,274 12,33 163,55 223,25zm-1487 11718c-190,-38 -347,-69 -473,-95 -55,83 -146,221 -260,393 403,69 569,-65 733,-298zm-1689 1999c201,61 378,113 576,173 174,-212 95,-339 -84,-389 -187,-52 -412,-109 -492,216zm275 -3305c230,-19 481,28 574,-284 -437,-208 -586,-138 -574,284zm6179 -13203c147,-176 266,-352 113,-644 -438,342 -451,430 -113,644zm-3935 6592c184,-159 320,-323 201,-593 -425,205 -457,299 -201,593zm-5071 6614c92,-243 184,-485 303,-801 -207,151 -360,263 -512,373 33,151 64,292 95,434 38,-2 76,-4 114,-6zm-8548 2685c194,59 230,589 586,234 -79,-131 -152,-253 -234,-387 -137,59 -245,106 -352,153zm6330 -8070c21,52 159,57 295,101 5,-250 9,-442 15,-739 -361,207 -396,413 -310,638zm4936 -5232c84,-71 145,-170 215,-255 -21,-37 -42,-74 -63,-110 -106,24 -237,18 -311,81 -87,73 -200,240 -170,304 88,186 230,63 329,-20zm7336 12318c-404,-70 -404,-70 -517,312 372,-51 372,-51 517,-312zm-13150 839c232,-270 261,-466 185,-748 -285,187 -336,378 -185,748zm5543 -5835c-194,30 -354,37 -500,88 -39,13 -32,159 -55,298 245,-75 481,-24 555,-386zm-1251 -1075c-289,336 -290,344 28,598 35,-216 64,-392 92,-568 -40,-10 -80,-20 -120,-30zm6422 5629c208,-51 237,-218 232,-399 -1,-13 -20,-27 -72,-92 -219,69 -321,196 -279,417 6,32 85,82 119,74zm-10760 5684c-55,207 -102,382 -177,665 412,-277 412,-277 177,-665zm-3354 857c-75,164 -150,325 -242,524 532,-260 533,-263 242,-524zm2712 -4001c-151,-71 -231,-109 -323,-152 -52,198 -94,358 -166,637 200,-197 312,-309 489,-485zm6713 -7827c277,16 415,-50 484,-278 -223,-54 -381,-27 -484,278zm-11762 13140c143,-202 161,-344 -11,-514 -156,176 -244,314 11,514zm17239 -15998c-384,-215 -384,-215 -557,162 205,-59 350,-101 557,-162zm-8380 4582c287,-213 105,-343 16,-488 -51,8 -103,16 -154,25 46,154 92,309 138,463zm4017 8519c195,46 329,-22 371,-289 -190,6 -381,-87 -437,164 -8,37 34,117 66,125zm-2202 -990c304,122 304,122 399,-204 -157,80 -278,142 -399,204zm4181 -35c-214,153 -257,299 -145,564 233,-182 221,-340 145,-564zm2128 -1849c-84,207 -136,327 -175,450 -2,7 127,83 154,65 137,-90 203,-217 21,-515zm1658 -5910c-5,-53 -11,-105 -17,-157 -161,-74 -330,-186 -465,192 198,-14 340,-25 482,-35zm-2508 5290c113,-76 206,-138 299,-200 -288,-75 -288,-75 -299,200zm-4654 3697c196,-141 181,-273 42,-460 -148,159 -214,281 -42,460zm-1029 -218c134,-119 229,-203 324,-288 -33,-38 -66,-76 -99,-114 -130,61 -325,65 -225,402zm6830 -16475c-137,155 -218,247 -299,339 39,33 78,67 118,100 176,-30 220,-149 181,-439zm-7956 15503c167,-13 304,-23 502,-38 -344,-286 -344,-286 -502,38zm7516 -18574c-250,81 -381,152 -344,378 227,-74 227,-74 344,-378zm-15066 21078c170,70 307,99 414,-97 -269,-92 -269,-92 -414,97zm6303 -651c-259,-154 -377,-66 -429,219 173,-87 301,-153 429,-219zm6618 -15423c198,-74 330,-123 460,-171 -14,-44 -28,-89 -41,-133 -177,-35 -348,-59 -419,304zm-16175 12970c-194,-147 -316,-218 -482,23 107,38 182,82 259,85 54,2 111,-51 223,-108zm10331 -8903c187,-147 144,-284 -43,-533 -60,252 -193,395 43,533zm5184 -7166c-13,-50 -26,-100 -38,-149 -155,-33 -311,-70 -397,267 187,-51 310,-84 435,-118zm-11968 12383c232,59 331,-44 398,-303 -239,20 -383,54 -398,303zm5188 -4127c-93,130 -148,259 102,461 20,-198 32,-324 45,-449 -49,-4 -98,-8 -147,-12zm-9645 10068c193,31 310,50 434,70 -74,-280 -74,-280 -434,-70zm5088 -6801c-60,105 -117,206 -194,339 279,39 318,-88 303,-260 -2,-19 -47,-36 -109,-79zm-3527 5284c-35,-34 -71,-66 -105,-100 -190,39 -275,154 -231,493 154,-181 245,-287 336,-393zm16774 -8638c167,-121 282,-203 396,-284 -26,-41 -51,-80 -77,-120 -179,19 -343,53 -319,404zm-6182 7541c19,-173 31,-291 44,-408 -42,-6 -85,-13 -128,-19 -123,125 -145,248 84,427zm-3408 3357c-344,-27 -344,-27 -297,313 109,-115 191,-201 297,-313zm3387 -8695c141,-57 241,-99 342,-140 -179,-156 -303,-142 -342,140zm-4711 -3118c219,-151 218,-285 107,-476 -184,138 -250,257 -107,476zm9167 8734c0,8 0,11 0,19 -135,73 -283,138 -286,346 291,-90 299,-97 286,-346 7,-4 14,-8 21,-12 -4,-4 -9,-7 -13,-10 90,-37 182,-74 319,-131 -77,253 -211,484 156,604 96,-75 277,-145 317,-263 48,-139 119,-216 203,-260 31,-8 68,-23 102,-34 80,-17 167,-21 267,-8 154,19 278,-27 289,-232 -102,-151 -248,-208 -408,-232 -38,-104 -78,-213 -124,-340 -100,22 -195,43 -282,70 1,-92 1,-194 2,-318 -138,155 -172,272 -143,373 -92,45 -161,106 -200,191 -126,-2 -251,0 -374,18 -117,16 -263,111 -320,212 -103,186 84,256 196,350 -3,0 -6,2 -8,3zm-1501 -604c-112,26 -223,53 -334,80 17,62 35,124 53,186 108,-43 217,-86 326,-128 -15,-46 -30,-92 -45,-138zm-5819 -10740c144,-73 243,-124 341,-174 -211,-120 -330,-95 -341,174zm-2499 6993c-152,119 -241,189 -330,259 24,37 49,75 74,112 197,23 250,-92 256,-371zm-3521 1821c44,-203 67,-309 90,-415 -248,49 -265,156 -90,415zm15273 -3002c-226,-31 -367,-40 -418,182 194,119 291,28 418,-182zm-13876 11863c-149,193 -232,301 -372,483 345,-31 419,-147 372,-483zm9709 -10000c75,-84 149,-167 224,-251 -30,-29 -60,-58 -91,-87 -82,74 -165,149 -248,223 38,38 77,76 115,115zm-6166 377c21,100 43,199 64,299 51,-9 101,-18 151,-26 -12,-103 -25,-205 -38,-308 -59,12 -118,23 -177,35zm3897 7177c13,23 133,-19 208,-33 0,3 0,8 -1,12l0 0c6,-1 12,-2 18,-3 201,209 207,205 540,-92 -249,42 -396,67 -540,92 -4,-4 -7,-7 -11,-11 -2,0 -4,1 -6,2 4,-99 9,-198 15,-341 -206,108 -333,190 -223,374zm-11149 -523c100,89 196,180 330,54 23,-21 19,-113 -6,-135 -122,-107 -235,-100 -324,81zm12252 -12867c-3,-98 -6,-196 -8,-295 -50,5 -100,10 -149,14 12,99 24,197 36,295 40,-4 81,-9 121,-14zm2155 -2606c135,-35 229,-60 323,-85 -164,-174 -274,-170 -323,85zm-527 -323c38,-14 75,-28 113,-43 -28,-94 -56,-188 -83,-282 -50,14 -99,28 -148,43 39,94 79,188 118,282zm1518 5425c12,169 19,272 34,491 229,-249 192,-354 -34,-491zm-896 -1093c-42,73 -86,147 -120,223 -2,5 72,43 110,66 42,-74 84,-148 126,-221 -39,-23 -77,-46 -116,-68zm-10125 3068c-1,111 -1,221 -2,332 37,2 74,4 110,6 11,-108 22,-217 33,-325 -48,-4 -94,-8 -141,-13zm6673 -5804c189,-114 189,-114 137,-401 -57,167 -90,262 -137,401zm1912 3560c38,-134 67,-230 95,-327 -224,62 -311,154 -95,327zm-644 -1071c-28,94 -56,188 -83,282 50,11 101,21 151,32 14,-96 27,-193 41,-289 -36,-8 -73,-17 -109,-25zm-1033 -1494l1 -2 -1 0 1 0c-14,-122 -27,-243 -45,-401 -312,226 -1,286 44,403 -1,0 -1,0 -1,1 -282,82 -283,83 -233,326 89,-126 161,-227 233,-326 0,0 0,0 1,-1zm3506 10917c233,-32 305,-120 132,-354 -57,153 -94,254 -132,354zm-2757 -1698c-37,9 -74,18 -111,29 23,91 46,183 68,275 39,-10 76,-20 115,-30 -24,-91 -48,-183 -72,-274zm-8871 3073c-45,1 -91,2 -136,2 -56,115 -109,230 131,382 2,-170 3,-277 5,-384zm36 -6628c-28,-41 -56,-83 -83,-125 -81,60 -161,120 -242,180 22,31 44,62 66,93 86,-49 172,-98 259,-148zm15842 1535c5,89 10,178 15,267 45,-7 91,-15 137,-22 -22,-86 -45,-172 -67,-258 -28,4 -57,9 -85,13zm-17739 3328c98,-17 196,-33 294,-50 -6,-34 -13,-68 -19,-102 -98,12 -196,25 -295,38 7,38 13,76 20,114zm9855 -14525c1,-3 -47,-38 -72,-58 -51,65 -102,129 -152,194 27,20 53,41 80,61 49,-65 99,-129 144,-197zm-2406 17531c73,-29 142,-68 212,-103 -20,-40 -40,-79 -59,-119 -71,52 -141,103 -212,154 21,24 50,72 59,68zm-6146 -5901c7,-44 14,-89 23,-151 -54,-12 -110,-42 -135,-25 -27,18 -46,103 -31,117 35,33 94,42 143,59zm208 1404c12,41 25,82 37,123 65,-33 129,-66 193,-98 -10,-27 -20,-53 -29,-80 -68,19 -135,37 -201,55zm18829 -6593c-191,34 -297,54 -467,85 217,208 315,146 467,-85zm-3284 3218c95,-12 190,-23 285,-35 -6,-46 -11,-93 -17,-139 -96,20 -193,39 -289,59 7,39 14,77 21,115zm-5153 4860c69,-77 139,-154 283,-312 -173,40 -231,38 -266,65 -47,37 -76,96 -112,145 31,33 63,68 95,102zm-13118 636c32,-54 59,-118 62,-181 2,-24 -63,-52 -135,-108 -24,107 -46,179 -49,252 0,12 116,47 122,37zm10625 -11858c20,90 39,181 59,272 36,-7 72,-14 108,-22 -17,-91 -34,-183 -51,-275 -39,9 -77,17 -116,25zm-1017 -1644c-32,-19 -64,-38 -96,-56 -54,78 -109,156 -164,234 42,28 85,56 128,84 44,-88 88,-175 132,-262zm-10599 12340l-17 23 28 30 -11 -53zm-1103 1544l-109 151c60,8 120,18 179,31 -29,-65 -53,-126 -70,-182zm-6737 9426l-541 757c414,-100 804,-37 888,-469 -19,-1 -28,0 -49,-2 20,-20 37,-36 56,-55 16,-193 -96,-283 -252,-348 -26,39 -60,78 -102,117zm6775 113c-103,24 -214,38 -343,40 -111,2 -308,25 -317,67 -7,37 -23,50 -35,74 -126,-57 -226,-141 -290,-270 116,-157 319,-240 519,-327 118,-52 285,-82 339,-175 41,-69 75,-141 113,-211 106,268 113,540 14,802zm2165 -1444c1,23 2,46 3,70 -66,19 -126,26 -185,30 31,-44 61,-87 92,-130 30,10 60,20 90,30zm-8894 3673c-10,13 -22,26 -32,39 -98,95 -256,150 -332,261 -10,16 -25,24 -38,37 -86,-401 152,-642 294,-944 65,110 110,238 145,362 31,111 8,186 -37,245zm1257 -1007c110,-17 226,-23 338,-36 -118,136 -228,262 -340,390 -35,-33 -67,-62 -110,-101 53,-52 132,-131 211,-210 -33,-15 -66,-29 -99,-43zm4527 -2380c183,58 244,-62 273,-220 13,-65 24,-132 38,-197 2,-1 3,-2 5,-3 122,96 222,197 314,300 -92,148 -189,303 -288,465 -292,-85 -375,-106 -477,18 8,-136 34,-267 90,-387 16,8 24,19 45,24zm2970 -2533c-15,-5 1,-89 3,-137 101,11 202,22 302,32 -10,60 -21,119 -32,178 -92,-22 -186,-38 -273,-73zm-954 -453c292,-48 417,-183 447,-478 1,-6 -1,-10 0,-15 42,224 132,357 290,434 -164,157 -344,305 -538,448 -61,-119 -120,-234 -199,-389zm14213 -17353c-58,56 -119,109 -192,153 89,24 171,40 246,49 71,268 144,532 226,793 186,593 613,939 1223,1049 518,94 786,-28 1053,-443 157,-243 210,-484 168,-722 47,-27 96,-69 103,-103 44,-205 55,-418 79,-627 -226,48 -337,148 -395,269 -320,-418 -632,-845 -986,-1233 -592,-650 -802,-647 -1476,-78 -58,48 -108,106 -224,223 61,227 118,449 175,670zm-3260 15173l333 -177 -12 0c-101,2 -202,9 -304,14l-17 163zm15572 -21944c238,-389 148,-751 -85,-1074 -69,-95 -281,-163 -390,-127 -85,28 -174,244 -155,359 63,374 149,759 630,842zm-9206 12559c34,39 205,-43 314,-70 -38,-133 -47,-289 -126,-392 -46,-59 -205,-32 -443,-58 113,249 156,409 255,520zm-9530 6457c-178,10 -302,18 -394,36 40,-157 19,-331 -40,-523 -87,44 -247,106 -242,126 87,350 -182,432 -395,561 -36,21 -49,80 -93,157 147,50 271,94 387,134 54,-31 101,-64 143,-97 -3,60 -5,128 -7,212 126,-119 233,-221 346,-327 10,17 20,34 30,51 57,-12 124,-9 169,-39 62,-42 108,-108 162,-164 -46,-20 -91,-40 -137,-60 24,-23 46,-43 71,-67zm5593 -6585c-8,-78 -20,-165 -28,-270 -274,92 -465,157 -674,227 111,177 165,302 252,396 82,88 198,146 299,217 54,-111 136,-219 154,-337 2,-15 -2,-35 -1,-51 12,30 25,57 42,70 56,40 174,-5 312,-16 -27,-136 -46,-226 -64,-316 -99,24 -208,33 -292,80zm-6374 8420c50,0 100,0 151,0 9,-163 19,-327 28,-490 -57,-2 -114,-4 -172,-7 -2,166 -5,331 -7,497zm7347 -18062c-275,-148 -406,-219 -587,-317 -17,393 98,499 587,317zm-5588 9275c17,-60 28,-111 35,-158 245,-31 486,-67 725,-83 280,-18 589,120 886,-258 -261,-117 -462,-207 -661,-295 70,-109 117,-183 168,-262 -354,-176 -467,43 -548,263 -446,-51 -695,74 -735,324 -77,-22 -178,-30 -311,-25 185,208 288,324 441,494zm-1160 3650c166,-76 331,-151 496,-226 -29,-59 -58,-118 -88,-177 -160,85 -321,169 -481,254 24,50 49,99 73,149zm9528 -1854c62,-25 125,-51 230,-93 -55,-118 -97,-222 -157,-314 -7,-10 -179,62 -176,78 19,112 65,220 103,329zm-11548 4635c78,4 164,28 230,2 34,-14 34,-116 57,-211 -95,7 -178,-12 -215,21 -44,40 -49,124 -72,188z"/>
  <path id="camisa_contorno" fill="none" d="M132380 286433c2381,-94 4477,-217 6790,-344 2314,-127 4844,-256 7995,-477 3150,-220 6920,-532 10132,-824 3212,-292 5866,-565 8511,-918 2644,-354 5278,-788 7407,-1210 2128,-422 3751,-831 5807,-1288 2058,-458 4549,-964 6383,-1279 1832,-314 3007,-438 4130,-519 1122,-81 2193,-120 3052,-113 860,8 1509,61 1893,91 384,31 502,37 591,42 48,2 88,4 123,6 91,-67 158,-175 172,-754 16,-652 -36,-1902 -103,-2696 -66,-793 -149,-1129 -276,-1795 -126,-667 -297,-1665 -630,-2599 -333,-935 -829,-1806 -1428,-2947 -599,-1141 -1300,-2553 -1726,-3499 -425,-947 -576,-1429 -820,-2607 -243,-1177 -579,-3051 -922,-5681 -343,-2631 -693,-6018 -1005,-8597 -311,-2580 -584,-4351 -1046,-7315 -462,-2964 -1114,-7120 -1655,-11150 -540,-4029 -968,-7932 -1304,-11831 -335,-3898 -579,-7791 -735,-11261 -155,-3470 -223,-6517 -277,-9471 -54,-2954 -92,-5815 -151,-8959 -58,-3144 -136,-6570 -105,-11649 32,-5078 173,-11809 341,-16902 168,-5093 363,-8548 631,-12393 267,-3845 608,-8079 943,-11875 336,-3796 667,-7154 1086,-11364 418,-4209 925,-9271 1436,-13539 511,-4268 1026,-7743 1462,-10276 436,-2533 791,-4124 1102,-5137 312,-1012 579,-1445 778,-1708 198,-263 327,-355 392,-401 64,-47 64,-47 47,579 -17,625 -51,1876 -105,3419 -53,1542 -126,3377 -166,4807 -40,1429 -48,2454 -77,3083 -29,629 -80,862 -99,978 -18,116 -3,113 -40,146 -36,33 -124,101 -129,658 -5,557 73,1604 186,2953 114,1350 262,3002 312,4631 50,1629 1,3235 2,4094 0,859 50,971 128,1044 77,73 181,107 969,58 787,-50 2257,-182 3972,-314 1716,-132 3677,-263 5762,-417 2086,-153 4295,-328 6376,-448 2080,-119 4032,-182 5799,-289 1766,-107 3348,-258 5163,-455 1815,-197 3864,-441 5821,-660 1956,-219 3820,-413 4944,-547 1125,-134 1509,-207 1701,-316 193,-110 193,-256 222,-877 29,-620 87,-1715 104,-3031 17,-1317 -7,-2855 -22,-4286 -14,-1430 -19,-2754 -36,-3603 -17,-850 -46,-1224 -70,-1423 -23,-197 -41,-219 -80,-284 -39,-66 -99,-175 -168,-659 -69,-484 -147,-1343 -247,-2246 -99,-903 -221,-1850 -337,-2650 -115,-801 -225,-1455 -399,-2463 -174,-1007 -412,-2367 -593,-3337 -182,-970 -306,-1549 -423,-2196 -116,-648 -226,-1363 -354,-2053 -127,-690 -273,-1354 -411,-2087 -137,-732 -266,-1533 -362,-2247 -97,-714 -160,-1342 -232,-1963 -71,-622 -152,-1238 -249,-1970 -98,-733 -212,-1582 -329,-2445 -116,-862 -236,-1738 -342,-2482 -105,-743 -198,-1354 -360,-2268 -163,-915 -395,-2132 -793,-3953 -399,-1821 -964,-4245 -1650,-6668 -686,-2424 -1494,-4848 -2565,-7495 -1070,-2648 -2404,-5519 -3961,-8566 -1558,-3046 -3339,-6268 -4721,-8497 -1382,-2229 -2365,-3465 -3341,-4480 -976,-1015 -1944,-1808 -2917,-2524 -974,-715 -1952,-1352 -2500,-1715 -547,-363 -664,-450 -731,-552 -67,-103 -84,-219 -92,-293 -9,-75 -9,-106 -67,-170 -59,-63 -175,-158 -1266,-691 -1090,-533 -3153,-1504 -5138,-2518 -1984,-1015 -3889,-2073 -5584,-2880 -1695,-807 -3179,-1361 -4897,-1894 -1718,-533 -3670,-1044 -5254,-1458 -1584,-414 -2801,-730 -3640,-976 -840,-246 -1302,-421 -1979,-677 -676,-257 -1567,-595 -2522,-880 -955,-285 -1975,-516 -2628,-665 -653,-148 -940,-214 -1393,-456 -452,-242 -1070,-660 -1531,-906 -459,-246 -761,-319 -1037,-353 -277,-34 -527,-29 -752,-29 -226,0 -425,-5 -1300,-320 -875,-315 -2425,-941 -3896,-1526 -1471,-585 -2863,-1130 -4262,-1691 -1399,-561 -2805,-1138 -3692,-1518 -887,-381 -1255,-566 -1543,-754 -288,-189 -497,-380 -682,-482 -185,-101 -345,-112 -451,-112 -107,-1 -160,9 -243,-5 -84,-13 -198,-50 -568,-282 -370,-232 -995,-661 -1624,-1155 -629,-493 -1262,-1053 -1894,-1607 -631,-553 -1261,-1101 -2236,-1518 -974,-417 -2293,-704 -3602,-890 -1309,-185 -2609,-267 -4429,-343 -1820,-75 -4161,-143 -7675,-126 -3514,17 -8200,119 -12497,212 -4296,93 -8201,177 -10255,224 -2054,46 -2257,55 -4018,196 -1761,141 -5080,413 -7165,649 -2086,236 -2937,436 -3631,684 -693,248 -1229,545 -1825,1044 -596,499 -1253,1200 -1954,1816 -701,617 -1445,1150 -1889,1413 -444,263 -588,256 -873,354 -284,99 -710,303 -1226,563 -516,261 -1122,577 -1858,892 -736,315 -1603,629 -2227,875 -624,246 -1006,423 -1465,608 -458,185 -994,378 -1708,601 -714,224 -1607,480 -2475,809 -867,330 -1709,734 -2490,1041 -781,306 -1502,516 -2224,725 -723,209 -1448,418 -1987,634 -539,215 -892,437 -1168,615 -276,179 -476,316 -968,461 -491,145 -1275,300 -1851,448 -577,149 -947,291 -1440,476 -494,186 -1110,415 -1694,597 -583,183 -1133,319 -1633,445 -499,125 -948,239 -1644,412 -696,173 -1639,404 -2469,612 -829,209 -1546,395 -2101,552 -555,156 -948,283 -1390,412 -441,130 -931,262 -1381,387 -449,125 -858,242 -1269,365 -411,124 -823,254 -1164,386 -342,133 -612,268 -980,423 -368,154 -834,328 -1237,513 -404,185 -744,381 -1128,583 -384,202 -811,410 -1181,597 -370,188 -682,354 -1090,569 -408,216 -910,480 -1604,838 -693,359 -1578,811 -2606,1326 -1029,515 -2202,1091 -3078,1524 -876,434 -1455,723 -1971,1053 -516,329 -969,699 -1397,1045 -428,346 -832,667 -1309,1044 -477,377 -1027,810 -1721,1427 -695,617 -1535,1418 -2299,2256 -764,838 -1453,1714 -2076,2579 -622,865 -1180,1719 -1861,2840 -681,1120 -1487,2507 -2137,3698 -649,1189 -1143,2182 -1676,3158 -533,976 -1105,1935 -1592,2847 -486,913 -888,1779 -1270,2671 -382,891 -745,1809 -1114,2667 -370,858 -747,1656 -1244,2944 -496,1289 -1112,3067 -1661,4753 -548,1685 -1030,3276 -1441,4680 -412,1404 -752,2621 -1093,4088 -341,1467 -682,3185 -1107,5485 -426,2299 -937,5180 -1249,6845 -311,1664 -423,2112 -525,2586 -102,475 -195,976 -387,1775 -192,798 -484,1893 -781,3041 -297,1149 -599,2351 -813,3366 -214,1014 -340,1842 -557,3063 -216,1222 -523,2837 -761,4159 -239,1321 -409,2348 -512,2878 -102,531 -136,565 -197,614 -62,48 -150,112 -243,2173 -94,2062 -191,6122 -266,8344 -76,2223 -129,2607 34,2809 163,202 542,221 1372,326 830,105 2110,295 4366,730 2255,436 5487,1117 8069,1614 2581,496 4514,807 6533,1143 2020,336 4127,696 7006,1154 2879,457 6529,1012 8855,1328 2326,317 3329,394 3830,433 502,39 502,39 550,-525 48,-565 144,-1694 254,-2670 110,-977 234,-1800 381,-2842 148,-1043 318,-2303 482,-3461 165,-1159 323,-2215 404,-2808 82,-594 87,-725 73,-837 -13,-112 -45,-205 -22,-1760 23,-1555 101,-4572 143,-7023 41,-2450 46,-4333 57,-5420 11,-1086 28,-1376 64,-1566 37,-190 93,-280 171,-327 77,-47 177,-52 298,38 120,90 261,275 333,364 72,88 74,81 76,77 1,-3 1,-3 111,245 111,248 333,745 578,1416 246,672 516,1519 738,2426 221,908 394,1876 587,3432 194,1557 408,3701 715,6028 306,2328 705,4839 1421,11024 715,6186 1747,16046 2555,23721 808,7675 1392,13164 1752,19063 360,5898 496,12206 487,19019 -10,6813 -166,14133 -361,19944 -194,5810 -428,10113 -701,13958 -272,3844 -584,7231 -1401,13704 -818,6473 -2141,16031 -2910,23010 -769,6979 -983,11378 -1178,14775 -195,3397 -370,5792 -652,7860 -282,2068 -672,3811 -942,5144 -270,1334 -421,2258 -438,2840 -17,581 100,820 241,944 141,124 307,134 484,169 178,35 368,96 454,150 18,11 31,21 41,36 848,312 1695,624 3052,895 1357,271 3222,501 6284,730 3061,229 7317,456 10740,589 3423,133 6012,172 9283,175 3270,3 7222,-29 10963,-6 3741,22 7271,100 10250,185 2978,84 5405,175 7660,243 2255,68 4338,113 6570,165 2232,52 4614,111 7118,117 2505,7 5133,-39 7781,-94 2647,-55 5314,-120 7696,-214z"/>
 </g>
</svg>
