<?xml version="1.0" encoding="utf-8"?>
<!-- Generator: Adobe Illustrator 16.0.3, SVG Export Plug-In . SVG Version: 6.00 Build 0)  -->
<!DOCTYPE svg PUBLIC "-//W3C//DTD SVG 1.1//EN" "http://www.w3.org/Graphics/SVG/1.1/DTD/svg11.dtd">
<svg version="1.1"
	 id="Layer_1" shape-rendering="geometricPrecision" text-rendering="geometricPrecision" image-rendering="optimizeQuality" xmlns:xodm="http://www.corel.com/coreldraw/odm/2003"
	 xmlns="http://www.w3.org/2000/svg" xmlns:xlink="http://www.w3.org/1999/xlink" x="0px" y="0px" width="240px" height="296px"
	 viewBox="0 0 240 296" enable-background="new 0 0 240 296" xml:space="preserve">
<g id="Camada_x0020_1">
	<g>
		<path fill="#F00808" d="M86.277,169.56c0.725-0.303,0.519-0.942,0.881-1.244c0.362-0.303,0.339-1.051-0.036-1.39
			c-0.375-0.338-1.388-0.362-1.835-0.012c-0.447,0.351-0.375,0.556-0.591,1.111C84.075,169.611,85.042,170.073,86.277,169.56z"/>
		<path fill="#F00808" d="M82.656,170.739c-1.841,0.249-0.778,0.867-3.26,0.563c-0.035-0.004-4.57-3.337-4.44-0.282
			c0.069,1.633,2.467,0.885,3.224,1.318c0.674,0.083,1.282,0.4,1.522,0.898c0.459,0.949,0.026,1.184-0.328,2.483
			c-0.354,1.301-0.135,2.221,0.536,2.746c0.672,0.524,2.533,0.253,2.408,2.027c-0.124,1.774-0.095,2.226,1.27,2.384
			c0.087,0.01,0.171,0.025,0.25,0.045c0.213-0.854,1.811-1.945,1.816-1.955c1.089-1.722-1.841-1.666-2.487-2.173
			c-4.352-3.415,2.713-0.521,1.284-6.04C84.019,171.083,83.332,170.648,82.656,170.739z"/>
		<path fill="#F00808" d="M112.547,171.354c0.939-0.145,1.035-1.3,0.842-1.733c-0.192-0.434-1.131-0.626-1.516-0.361
			c-0.385,0.266-0.747,0.386-1.06,0.024c-0.313-0.361-1.131-1.156-1.877-1.084c-0.747,0.072-1.685,0.121-2.046,1.156
			c-0.703,2.015,0.614,2.699,2.286,1.998c0.747-0.313,1.108-0.914,1.661-0.65C111.392,170.969,111.608,171.498,112.547,171.354z"/>
		<path fill="#F00808" d="M86.631,160.938c0.183-0.273,0.296-0.387,0.554-0.235c0.181,0.106,0.538,0.298,0.828,0.315
			c0.631,0.04,0.704-1.202,0.572-1.589c-0.128-0.377-0.603-1.031-1.098-0.722c-0.228,0.143-0.432,0.391-0.529,0.712
			c-0.076,0.25-0.07,0.088-0.533-0.046C84.411,158.789,85.83,162.139,86.631,160.938z"/>
		<path fill="#F00808" d="M80.662,146.814c0.487-0.012,0.503-0.337,0.484-0.495c-0.052-0.468-0.496-0.165-0.745-0.49
			c-0.251-0.381-0.764-0.37-0.694,0.122c0.038,0.257-0.183,0.177-0.269,0.447C79.353,146.667,80.172,146.826,80.662,146.814z"/>
		<path fill="#F00808" d="M80.316,154.83c0.045,0.396,0.19,0.424,0.199,0.677c0.008,0.252,0,0.271-0.443,0.188
			c-1.14-0.208-0.09,2.01,0.803,1.219c0.316-0.28,0.145-0.73,0.542-0.649c0.396,0.081,0.432,0.613,1.037,0.505
			c0.605-0.107,0.776-0.314,0.794-0.623c0.019-0.307,0.028-0.686-0.532-0.929s-0.677-0.451-0.984-0.694
			C81.228,154.121,80.231,154.079,80.316,154.83z"/>
		<path fill="#F00808" d="M89.986,163.192c0.237,0.144,0.534,0.219,0.813,0.161c0.218-0.046,0.103,0.023,0.298,0.511
			c0.854,2.126,2.255-0.722,0.939-0.909c-0.299-0.041-0.448-0.094-0.505-0.402c-0.04-0.215-0.131-0.631-0.299-0.906
			c-0.365-0.601-1.255-0.097-1.438,0.203C89.618,162.139,89.467,162.877,89.986,163.192z"/>
		<path fill="#F00808" d="M98.655,147.799c0.487-0.013,0.503-0.337,0.485-0.494c-0.054-0.467-0.497-0.165-0.745-0.491
			c-0.251-0.381-0.764-0.37-0.694,0.123c0.036,0.257-0.184,0.177-0.27,0.446S98.166,147.811,98.655,147.799z"/>
		<path fill="#F00808" d="M98.483,158.386c0.065,0.455-0.325,0.315-0.477,0.792c-0.152,0.479,1.302,0.76,2.171,0.738
			c0.864-0.021,0.891-0.598,0.859-0.877c-0.095-0.828-0.881-0.292-1.322-0.871C99.371,157.502,98.469,157.523,98.483,158.386z"/>
		<path fill="#F00808" d="M104.825,155.818c0.271-0.271,0.505-0.019,1.479,0.198c0.886,0.197,1.183-0.287,1.236-0.741
			c0.05-0.439-0.112-0.846-1.344-0.846c-0.433,0-0.4,0.348-1.051,0.186c-0.649-0.164-0.592-0.584-1.403-1.107
			c-0.672-0.432-1.667,0.484-0.955,1.533C103.132,155.551,104.257,156.387,104.825,155.818z"/>
		<path fill="#F00808" d="M89.285,172.403c0.622,0.384,1.023,0.86,0.559,2.146c-1.761,4.881,2.624,4.093,3.388,1.73
			c0.567-1.754,1.584-2.186,2.438-1.91c0.025-0.262,0.031-0.541-0.015-0.931c-0.063-0.521-0.495-0.733-0.967-0.783
			c0.069-0.491-0.043-1.022,0.279-1.583c0.479-0.832,1.374-0.576,1.119-1.727c-0.256-1.15-0.895-2.046-0.448-2.141
			c0.448-0.097,1.438,0.574,2.237,0.799c0.799,0.223,1.79,0.287,1.151,0.926c-0.639,0.641-1.886,1.279-1.598,2.109
			c0.288,0.832,1.374,2.045,3.1,0.832c1.726-1.215,0.415-1.791,1.055-3.133c0.703-1.533,2.013-0.959,2.013-2.877
			c0-1.916-0.128-2.557-1.022-3.067c-0.895-0.511-1.598-0.8-1.918,0.639c-0.099,0.444,0.582,1.146,0.749,1.844
			c0.521,2.187-1.397,2.673-1.387,2.282c0.068-2.633-2.91-2.615-3.42-2.4c-0.831,0.353-0.639,0.896-1.151,0.545
			c-0.511-0.353-1.406-0.959-1.726-0.129c-0.319,0.832-0.99,1.15-0.447,2.014c0.544,0.863,0.128,0.734,0.128,1.598
			s0.831,1.215,0.511,1.63c-0.287,0.374-1.608-0.208-2.058,0.136c-0.083-0.826-0.083-1.615-0.386-1.679
			c-0.07-0.341-1.615,0.169-1.63,0.173c-0.858,0.158-0.64,1.383-0.591,2.001C89.282,171.86,89.297,172.17,89.285,172.403z"/>
		<path fill="#F00808" d="M107.451,151.244c0.329-0.173,0.545-0.373,0.688-0.187s-0.129,0.688,0.244,0.761
			c0.374,0.071,0.502,0.043,0.502,0.244c0,0.631,0.304,1.333,1.033,0.989c0.987-0.464,0.454-1.876-0.095-1.853
			c-0.455-0.004-0.506,0.025-0.537-0.429c-0.048-0.356-0.755-0.425-0.875-0.374c-0.172,0.072,0.072-0.271-0.244-0.488
			c-0.316-0.215-1.335-0.172-1.622,0.102c-0.287,0.272-0.488,0.616-0.144,0.932C106.747,151.258,107.12,151.416,107.451,151.244z"/>
		<path fill="#F00808" d="M87.273,151.664c0.225-0.199,0.102-0.519,0.385-0.461c0.282,0.058,0.308,0.436,0.738,0.359
			c0.43-0.078,0.551-0.225,0.565-0.443c0.012-0.219,0.019-0.488-0.379-0.66c-0.398-0.174-0.481-0.321-0.7-0.494
			c-0.359-0.286-1.067-0.316-1.006,0.217c0.032,0.283,0.134,0.303,0.141,0.481c0.006,0.18,0,0.193-0.314,0.136
			C85.892,150.65,86.639,152.227,87.273,151.664z"/>
		<path fill="#F00808" d="M75.932,165.664c0.575-0.083,1.218-0.044,1.92,0.166c5.032,1.513,6.134-0.037,5.925-1.383
			c-0.319-2.065-1.386-1.301-2.512-1.193c-1.348,0.128-1.933-0.607-1.932-1.237c0.001-1.229,1.146-2.429-2.093-0.915
			c-0.907,0.424-1.464,1.035-0.384,1.805c0.981,0.699,2.237,0.41,2.319,1.385c0.082,0.971-4.336-0.631-4.753-0.039
			C73.883,165.018,74.748,165.393,75.932,165.664z"/>
		<path fill="#F00808" d="M54.174,151.669c0.864-0.022,0.892-0.599,0.86-0.876c-0.095-0.83-0.882-0.294-1.322-0.872
			c-0.445-0.675-1.355-0.655-1.23,0.217c0.047,0.333-0.148,0.349-0.316,0.518l0.067,0.644
			C52.66,151.548,53.563,151.684,54.174,151.669z"/>
		<path fill="#F00808" d="M201.691,285.066c-0.067-0.818-0.153-1.166-0.284-1.854c-0.13-0.688-0.307-1.719-0.65-2.683
			c-0.344-0.966-0.856-1.864-1.474-3.042c-0.619-1.178-1.342-2.636-1.782-3.612c-0.438-0.978-0.595-1.476-0.847-2.69
			c-0.25-1.216-0.598-3.15-0.951-5.865c-0.268-2.053-0.54-4.551-0.795-6.799c-0.047,0.014-0.1,0.026-0.159,0.037
			c-0.354,0.063-0.376-0.248-0.608-0.296s-0.133,0.217-0.318,0.381c-0.522,0.464-1.139-0.839-0.471-0.714
			c0.26,0.047,0.266,0.035,0.26-0.111c-0.006-0.149-0.09-0.164-0.117-0.398c-0.049-0.439,0.534-0.414,0.832-0.18
			c0.16,0.127,0.232,0.238,0.476,0.361c-0.046-0.398-0.091-0.785-0.136-1.156c-0.322-2.662-0.604-4.49-1.08-7.551
			c-0.478-3.06-1.15-7.35-1.709-11.51c-0.198-1.48-0.382-2.944-0.551-4.396c-0.213-0.01-0.445-0.041-0.699-0.098
			c-2.206-0.49-2.738-1.063-3.35-0.451c-1.287,1.288-3.832-0.604-4.613-1.758c-1.609-2.376,0.643-4.449,2.162-3.471
			c1.838,1.185,1.705,2.137,3.177,2.504s1.399-0.42,2.38-0.42c0.19,0,0.369,0.004,0.539,0.012c-0.123-1.186-0.234-2.367-0.34-3.549
			c-0.061-0.025-0.125-0.047-0.194-0.06c-0.898-0.184-0.511,0.837-1.226,1.471c-2.021,1.79-4.398-3.231-1.818-2.758
			c1.001,0.184,1.021,0.142,1.001-0.43s-0.347-0.633-0.449-1.532c-0.151-1.325,1.189-1.56,2.329-1.165
			c-0.035-0.49-0.068-0.978-0.102-1.463c-0.045-0.146-0.084-0.307-0.119-0.479c-0.044-0.221-0.021-0.438,0.047-0.642
			c-0.112-1.782-0.204-3.513-0.278-5.153c-0.051-1.129-0.093-2.215-0.127-3.268c-0.747-1.156-3.286,0.758-3.823-1
			c-0.334-0.111-0.351-1.797-0.65-1.857c-1.723-0.353-0.551,1.377-3.004,1.195c-1.48-0.109-2.879-1.521-2.758-2.98
			c0.147-1.772-0.135-1.688-0.352-1.847c-0.406-0.298-0.72-2.448,0.92-2.676c0.695-0.097,1.48,0.202,1.833,0.96
			c1.834,3.949,4.556-1.466,0.903-1.466c-1.065,0-2.988-0.567-2.165-1.89c0.687-1.105,0.828,0.576,2.183-2.087
			c0.725-1.423,2.065-0.656,2.764,0.331c0.564,0.797,0.588,1.52,0.49,3.05c-0.078,1.211,0.064,2.059,1.137,1.861
			c0.693-0.144,1.677-0.72,2.312-1.106l-0.038-2.393c-0.96,0.627-2.268,0.441-2.418-0.289c-0.652-3.203-0.063-2.297-2.4-2.68
			c-2.166-0.354-0.522-2.564,1.577-3.199c3.071-0.93,0.093,2.225,3.172,2.168l-0.034-1.844c-0.59-0.322-0.592-0.828-0.021-1.206
			c-0.027-1.592-0.049-3.329-0.055-5.339c-0.662-0.098-1.223-0.248-1.564-0.41c-1.232-0.584-5.252-0.582-5.252,0.586
			c0,2.965,1.515,0.318,3.719,0.318c1.824,0.831-0.313,4.566-1.348,5.146c-3.65,2.045-7.9-3.823-11.209-0.314
			c-1.328,1.409-3.785,0.693-3.632-1.232c0.141-1.77-1.486-3.322-1.315-4.776c0.137-1.169,2.188-3.098,3.314-1.304
			c0.803,1.279,0.733,3.602,1.572,3.637c1.824,0.077,0.203-1.348,0.203-2.414c0-1.58,3.383-0.096,4.697-0.668
			c1.736-0.757-0.353-1.809-1.039-2.072c-0.783-0.301-1.622-0.588-1.818-0.616c-2.273-0.337-2.32-2.218-0.332-3.276
			c0.907-0.854-2.309-2.502-3.617-0.325c0.308,6.96-5.424,2.353-8.23,5.312c-0.342,0.359-2.212,0.589-3.553,1.307
			c-1.604,0.857,0.088,2.074-3.271,2.273c-1.546,0.094-2.019-1.168-2.94-0.584s-0.195,1.686-1.23,2.541
			c-1.034,0.856-2.533,1.861-3.792,1.146c-1.26-0.715-1.956-1.73-1.058-2.806c0.897-1.075,3.115-1.266,3.379-2.496
			c0.264-1.229-1.684-0.561-1.107-1.673s1.965-1.521,1.688-2.285c-0.276-0.764-0.482,0.31-1.859-0.094
			c-1.375-0.402-1.912-1.4-1.529-1.885c0.381-0.484,2.691-0.42,2.736-1.513s-0.692-0.69-0.932-2.833
			c-0.236-2.095-2.059-0.488-2.106-0.254c-0.353,1.734,2.207,0.484,1.741,2.77c-0.104,0.509-0.707,0.598-1.22,0.598
			c-1.64,0-1.022,1.794-1.389,2.965c0.396,0.782,0.405,2.188,0.176,2.807c-0.606,1.632-1.577,1.623-2.954,1.514
			c-3.633-0.287-3.199,1.248-4.527,1.52c-2.361,0.481-1.723-1.343-1.447-1.549c4.046-3.043,1.016-5.569,0.318-4.051
			c-0.424,0.918-2.127,2.658-3,2.779c-3.714,0.52-2.103-2.092-1.994-4.011c0.045-0.796-0.1-1.021-0.908-1.021
			c-0.947,0-1.655-0.172-2.178-0.444v0.534c-0.23-0.063-0.5-0.107-0.809-0.131c-0.346-0.025-0.271-0.47-0.074-0.668
			c0.197-0.197,0.666,0.023,1.036-0.416v-0.623c-0.108-0.133-0.261-0.284-0.393-0.497c-0.321-0.519-1.114-0.321-1.534-0.099
			c-0.422,0.223-0.273,0.817-0.051,1.338c0.224,0.52-0.223,0.668-0.842,0.594c-0.618-0.074-0.396-0.396-0.916-0.768
			c-0.52-0.371-0.371-0.049-1.016-0.272c-0.643-0.223-0.174-0.495-0.445-0.94s-0.594-0.347-0.792-0.669
			c-0.198-0.321,0.037-1.14-0.235-1.46c-0.268-0.316-2.066-0.617-1.758,1.026c0.074,0.396,0.52,0.495,0.966,0.645
			c0.446,0.148,0.396,0.545,0.224,1.138c-0.176,0.596-0.051,1.041,0.122,1.413c0.175,0.372,1.091,0.074,1.61,0.247
			s0.124,0.644,0.422,1.313c0.296,0.668,0.767,0.124,1.213,0.52c0.445,0.396-0.074,0.248-0.174,1.09s1.113,1.089,1.857,1.039
			c0.742-0.049,0.619-0.469,0.718-0.915s-0.124-0.743,0.149-1.264c0.457-0.874,3.026,6.276,0.893,5.058
			c-1.228-0.703-2.493,0.256-3.566,0.296c-1.25,0.046,0.2-2.192-1.428-2.098c-0.234,0.013-0.492-0.142-0.717-0.335
			c-0.607,0.39-2.184,1.178-0.621,1.434c1.217,0.199-1.172,3.072,2.811,2.938c1.145-0.039,1.795,0.594,2.115,0.445
			c0.846,1.272,1.234,1.477,1.234,3.057c-0.351,0.467-1.125,0.58-0.299,1.277c0.174,0.146,0.268,0.343,0.299,0.555v0.324
			c-0.109,0.809-1.001,1.617-2.052,0.771c-0.054-0.044-0.201-0.777-0.79-1.217c-0.666-0.496-1.754-0.618-1.24,0.974
			c0.104,0.317,0.396,0.63,0.092,0.894c-1.563,1.346,0.01,2.168,0.706,1.391c1.723-1.919,2.601,1.121,3.271,1.114
			c0,0,0.902,1.007,0.924,1.852c0.033,1.218-0.996,2.229-2.723,0.502c-4.24-4.241-1.354,1.802-4.361,2.849
			c-6.75,2.354,1.318-5.161-2.602-3.241c-1.298,0.638-4.329,1.303-4.329,2.503c0,2.695-0.61,2.106-2.082,3.051
			c-0.915,0.589-3.319,0.612-2.248,1.964c1.37,1.729,1.832-0.175,3.705-1.226c3.448-1.933,2.824,1.057,2.824,2.519
			c0,0.815,2.454,1.315,1.872-0.179c-0.741-1.903,0.648-3.028,2.375-2.676c2.095,0.426,0.301,2.951,0.42,3.457
			c0.28,1.193,1.347,1.744,1.875,1.057c0.35-0.454-0.559-0.838-0.559-1.781s0.455-0.803-0.141-1.746
			c-0.594-0.942,0.141-1.291,0.49-2.199c0.681-1.771,2.995-2.223,4.486-1.294c1.021,0.638,0.952,1.729,1.072,2.087
			c0.371,1.105-2.361,0.752-3.465,0.987c-0.488,0.104,0.21,1.083,0.49,2.34c0.279,1.257-0.698,0.978-1.223,1.886
			c-0.523,0.908,0,1.746-0.629,2.479c-0.504,0.589-1.646,0.633-2.404,0.103c-0.863-0.604-0.688-1.315-0.96-1.767
			c-0.556-0.917-2.007,0.002-2.736,0.223c-1.968,0.598-4.587,0.863-4.946-0.488c-0.478-1.806-3.384,0.565-3.962-1.328
			c-0.334-0.111-0.352-1.797-0.651-1.857c-1.723-0.353-0.55,1.377-3.003,1.195c-1.481-0.109-2.88-1.521-2.758-2.98
			c0.147-1.772-0.134-1.688-0.352-1.847c-0.406-0.298-0.721-2.448,0.921-2.676c0.694-0.097,1.479,0.202,1.831,0.96
			c1.835,3.949,4.557-1.466,0.904-1.466c-1.065,0-2.988-0.567-2.166-1.89c0.687-1.105,0.828,0.576,2.183-2.087
			c0.725-1.423,2.064-0.656,2.765,0.331c0.563,0.797,0.587,1.52,0.489,3.05c-0.078,1.211,0.064,2.059,1.138,1.861
			c1.057-0.219,2.785-1.442,2.934-1.474c1.056-0.238,2.838-4.832-0.48-2.156c-0.968,0.779-2.439,0.619-2.598-0.158
			c-0.652-3.203-0.063-2.297-2.4-2.68c-2.167-0.354-0.524-2.564,1.576-3.199c3.479-1.053-0.807,3.136,4.749,1.96
			c1.865-0.395,0.617-1.334,0.257-1.323c-3.26,0.098-3.032-2.023,0.415-2.023c0.215,0,1.801-0.336,1.313-1.547
			c-0.268-0.663-1.154-1.29-0.567-1.419c1.231-0.271,2.172,0.132,2.528-0.501c0.932-1.656,0.427-2.543-1.479-1.711
			c-1.806,0.789-4.711,0.412-5.718-0.066c-1.231-0.584-5.251-0.582-5.251,0.586c0,2.965,1.513,0.318,3.718,0.318
			c1.824,0.831-0.313,4.566-1.348,5.146c-3.649,2.045-7.9-3.823-11.209-0.314c-1.328,1.409-3.785,0.693-3.631-1.232
			c0.141-1.77-1.486-3.322-1.316-4.776c0.137-1.169,2.188-3.098,3.314-1.304c0.803,1.279,0.734,3.602,1.573,3.637
			c1.825,0.077,0.204-1.348,0.204-2.414c0-1.58,3.382-0.096,4.697-0.668c1.735-0.757-0.354-1.809-1.041-2.072
			c-0.783-0.301-1.621-0.588-1.819-0.616c-2.271-0.337-2.318-2.218-0.33-3.276c0.907-0.854-2.308-2.502-3.618-0.325
			c0.309,6.96-5.423,2.353-8.23,5.312c-0.341,0.359-2.211,0.589-3.552,1.307c-1.604,0.857,0.088,2.074-3.27,2.273
			c-1.545,0.094-2.021-1.168-2.941-0.584c-0.922,0.584-0.196,1.686-1.23,2.541c-1.035,0.856-2.533,1.861-3.793,1.146
			c-1.258-0.715-1.954-1.73-1.057-2.806c0.897-1.075,3.116-1.266,3.38-2.496c0.264-1.229-1.684-0.561-1.107-1.673
			c0.576-1.112,1.965-1.521,1.688-2.285c-0.277-0.764-0.483,0.31-1.86-0.094c-1.376-0.402-1.911-1.4-1.53-1.885
			c0.382-0.484,2.692-0.42,2.738-1.513s-0.694-0.69-0.933-2.833c-0.234-2.095-2.057-0.488-2.105-0.254
			c-0.354,1.734,2.207,0.484,1.742,2.77c-0.104,0.509-0.708,0.598-1.22,0.598c-1.642,0-1.023,1.794-1.39,2.965
			c0.396,0.782,0.406,2.188,0.176,2.807c-0.605,1.632-1.577,1.623-2.954,1.514c-3.632-0.287-3.199,1.248-4.526,1.52
			c-2.362,0.481-1.723-1.343-1.449-1.549c4.047-3.043,1.018-5.569,0.319-4.051c-0.422,0.918-2.127,2.658-2.999,2.779
			c-3.715,0.52-2.103-2.092-1.995-4.011c0.045-0.796-0.098-1.021-0.908-1.021c-0.947,0-1.656-0.172-2.178-0.444v0.581
			c-0.259-0.087-0.581-0.15-0.961-0.178c-0.347-0.025-0.272-0.47-0.074-0.668c0.197-0.197,0.665,0.023,1.036-0.416v-0.623
			c-0.108-0.133-0.26-0.284-0.392-0.497c-0.322-0.519-1.115-0.321-1.535-0.099c-0.075,0.039-0.131,0.091-0.172,0.149l0.022,0.933
			c0.03,0.086,0.064,0.171,0.1,0.256c0.106,0.248,0.06,0.41-0.084,0.507c0.03,1.447,0.049,2.918,0.062,4.413
			c0.09,0.003,0.176,0.001,0.257-0.006c0.743-0.049,0.619-0.469,0.718-0.915s-0.124-0.743,0.149-1.264
			c0.283-0.538,1.432,1.19,1.57,1.736c0.166,0.646-1.363,1.239-0.776,2.117c0.751,1.124,0.848,2.173,0.726,2.993
			c-0.406,0.911-0.349,1.495-0.066,1.716c1.559,1.218,1.574-2.038,4.273-1.474c2.519,0.524,2.466,3.811,3.313,3.922
			c0.951,0.125,1.442,0.852,1.843-0.062c0.688-1.567,0.096-2.671,1.241-4.19c0.28-0.371,2.789-1.229,3.296-0.087
			c0.524,1.179-0.297,1.455-1.39,3.657c-0.498,1.001,0.591,2.188,1.226,2.729c1.521,1.297-1.545,4.165-4.312,3.081
			c-3.937-1.542-1.504,2.336-3.073,3.744c-0.938,0.841-1.169,0.672-2.182,0.048c-1.377-0.848-0.795-1.592-1.152-2.491
			c-0.084-0.213,0.454-1.988,0.558-2.271c1.438-3.854-2.437-3.018-2.928-3.806c-1.129-1.812-2.499,0.069-1.743,0.708
			c0.858,0.727-0.192,2.69-1.593,1.767l-0.019,1.232c2.362,0.217,3.56,7.622,0.098,4.16l-0.172-0.171
			c-0.02,0.911-0.041,1.809-0.063,2.69c0.09,0.005,0.168,0.028,0.231,0.07c2.303,0.388,3.815,4.983,1.783,4.414
			c-0.711-0.199-1.561-0.723-2.116-0.853l-0.051,1.586c0.079,0.229,0.154,0.476,0.211,0.733c0.134,0.601-0.02,0.85-0.272,1.046
			c-0.153,4.184-0.328,7.588-0.523,10.637c0.041,0.172,0.071,0.343,0.09,0.508c0.14,1.271,1.836,0.51,2.315,2.282
			c0.625,2.309-0.406,4.667-3.01,4.864c-0.214,2.189-0.496,4.693-0.907,7.988c0.145,0.007,0.323,0.005,0.543,0.007
			c1.241-0.052,2.449,3.145,0.215,4.196c-0.535,0.252-0.968,0.255-1.311,0.096c-0.821,6.299-1.871,14.093-2.528,20.061
			c-0.794,7.205-1.015,11.746-1.216,15.252c-0.202,3.507-0.382,5.979-0.673,8.114s-0.694,3.934-0.972,5.31
			c-0.279,1.377-0.435,2.331-0.452,2.932c-0.018,0.6,0.103,0.847,0.249,0.975s0.317,0.139,0.5,0.175
			c0.184,0.036,0.38,0.099,0.469,0.155c0.019,0.011,0.032,0.021,0.042,0.037c0.875,0.321,1.75,0.644,3.15,0.924
			c1.401,0.279,3.326,0.517,6.487,0.753c3.16,0.236,7.553,0.471,11.087,0.608c3.534,0.137,6.206,0.178,9.583,0.181
			c3.376,0.003,7.456-0.03,11.317-0.007s7.505,0.104,10.581,0.191c3.074,0.087,5.58,0.181,7.908,0.251
			c2.328,0.07,4.478,0.116,6.782,0.17c2.304,0.054,4.763,0.114,7.349,0.121c2.586,0.007,5.298-0.04,8.031-0.097
			c2.732-0.057,5.486-0.124,7.945-0.221c2.457-0.098,4.621-0.225,7.009-0.355c2.389-0.131,5.001-0.265,8.253-0.492
			s7.144-0.55,10.459-0.852c3.316-0.301,6.056-0.583,8.786-0.947c2.729-0.365,5.448-0.813,7.646-1.249s3.873-0.858,5.995-1.329
			c2.124-0.473,4.696-0.996,6.589-1.32c1.891-0.324,3.104-0.453,4.264-0.536c1.158-0.083,2.264-0.124,3.15-0.116
			c0.888,0.008,1.558,0.063,1.954,0.094s0.519,0.038,0.61,0.043c0.049,0.002,0.091,0.004,0.127,0.006
			c0.094-0.068,0.163-0.18,0.178-0.777C201.814,287.176,201.762,285.886,201.691,285.066z M52.333,264.91
			c-0.173,0.383-0.865,0.876-1.056,0.876c-0.514,0-0.362-0.249-0.511,0.131c-0.09,0.23-0.006,0.738-0.537,0.576
			c-0.271-0.083-0.417-0.471-0.648-0.163c-0.165,0.219-0.602,0.124-0.821,0.052c-0.31-0.103-0.157-0.675-0.152-0.701
			c0.102-0.446-0.397-1.337,0.152-1.622c0.277-0.145,0.023-0.842,0.333-0.832c0.211,0.008,0.362-0.026,0.461,0.182
			c0.247,0.521,0.217,1.842,0.374,1.953c0.143,0.103,0.309-0.23,0.788-0.023c0.118,0.051,0.968-1.131,1.084-1.184
			C52.22,263.967,52.569,264.395,52.333,264.91z M53.125,258.508c-0.311,0.008-1.07-0.693-1.045-1.102
			c0.055-0.171,0.006-0.529-0.017-0.693c-0.045-0.313,0.281-0.32,0.44-0.078c0.158,0.207,0.44,0.016,0.474,0.312
			c0.077,0.686-0.527-0.528-0.298,0.65C52.75,257.969,53.564,258.346,53.125,258.508z M54.031,250.469
			c-0.611,0-0.432-0.296-0.608,0.156c-0.106,0.274-0.007,0.879-0.638,0.686c-0.322-0.1-0.498-0.561-0.772-0.194
			c-0.196,0.261-0.716,0.147-0.977,0.062c-0.368-0.123-0.173-0.865-0.18-0.834c0.12-0.531-0.167-0.625,0.486-0.966
			c0.172-0.089,0.531-0.684,0.586-1.489c0.05-0.729-0.207-1.682-0.033-1.677c0.253,0.009,0.432-0.031,0.549,0.216
			c0.294,0.621-0.207,3.403-0.02,3.536c0.169,0.121,0.367-0.274,0.937-0.028c0.14,0.061,0.258-0.614,0.396-0.676
			C54.627,248.867,54.565,250.469,54.031,250.469z M181.99,210.358c1.084-0.104,2.271,1.048,2.725,1.571
			c0.455,0.524,0.979,0.35,1.536-0.034c0.56-0.384,1.921-0.105,2.2,0.523c0.279,0.628,0.141,2.306-1.223,2.514
			c-1.361,0.21-1.676-0.559-2.479-0.942c-0.803-0.385-1.327,0.489-2.409,0.942c-2.426,1.018-4.337,0.023-3.317-2.897
			C179.547,210.533,180.909,210.464,181.99,210.358z M178.533,211.18c-0.523,0.436-0.228,1.361-1.275,1.798
			c-1.785,0.744-3.184,0.075-2.287-2.218c0.314-0.803,0.21-1.1,0.855-1.605c0.646-0.506,2.113-0.471,2.654,0.018
			S179.057,210.742,178.533,211.18z M173.621,217.387c-0.51-0.428-1.041-0.02-1.409,0.368c-0.367,0.388-0.348,1.124-0.899,1.634
			c-0.551,0.512-1.123,0.43-1.531,0.94c-0.409,0.511-0.49,1.43-0.49,2.124c0,0.695-1.021,0.939-1.859,1.123
			c-0.838,0.185-1.286-0.184-1.961-1.266c0,0-0.265-0.838,0.348-1.369c0.613-0.531,1.879-0.572,2.207-1.348
			c0.326-0.777-0.083-1.635,0.653-2.411c0.735-0.776,1.552-0.326,1.839-0.612c0.285-0.287,0.613-1.961,1.797-2.451
			c1.186-0.49,2.37,0,2.9,0.898c0.531,0.898,0.818,0.939,1.594,1.349c0.776,0.407,0.939,2.206,0.143,2.696s-1.205,0.449-1.348,1.267
			c-0.143,0.816-0.512,1.94-0.939,2.636c-0.43,0.693-1.305,1.721-2.9,1.47c-1.482-0.232-1.439-1.687-1.145-2.369
			c0.387-0.899,0.183-0.817,0.816-1.513c0.633-0.693,1.553-0.02,2.064-0.449C174.01,219.675,174.133,217.816,173.621,217.387z
			 M138.369,203.339c-0.141-0.687,1.134-0.269,1.532-0.952c0.583-0.997-1.21-3.525,1.248-3.771c2.817-0.28,1.751,3.652,1.763,3.685
			c0.299,0.789,1.889,1.291,0.018,3.534c-0.361,0.435-0.929,0.099-1.546,0.055c-2.856-0.203-0.571,1.315-1.442,3.044
			c-0.351,0.693,1.766,1.564,1.037,3.029c-0.396,0.801-3.032,1.412-2.92-0.444c0.176-2.888-1.623-2.149-1.623-4.046
			C136.436,204.52,139.08,206.826,138.369,203.339z M138.757,213.211c1.975,0.469,0.234,2.795,2.104,2.502
			c3.721-0.584,4.242,0.998,2.896,2.538c-1.381,1.579-3.952-0.873-7.213,0.25c-3.555,1.227-4.425-3.38-2.69-3.33
			C137.761,215.283,135.914,212.537,138.757,213.211z M139.77,224.67c2.467,0.486,1.328-1.667,2.823-2.668
			c0.766-0.514,2.292-0.145,2.37,0.76c0.133,1.53-1.381,2.404-0.771,3.604c0.56,1.103,1.74,2.032,1.18,3.207
			c-0.566,1.19-3.3,0.309-3.926-0.4c-0.386-0.437-0.773-0.937-1.421-0.958C138.15,228.15,138.252,224.371,139.77,224.67z
			 M159.783,199.447c0.293-0.123,2.014,0.039,2.13,0.908c0.075,1.105,0.196,1.032,1.305,1.043c1.333-0.057,2.632,3.379,0.232,4.508
			c-1.776,0.836-2.515-0.875-2.515-2.408c0-0.49-0.314-0.42-1.223-0.594c-0.907-0.174-0.243-1.398-0.594-1.852
			c-0.349-0.453-0.872,0.035-1.675,0.453c-0.804,0.42-1.712,0.035-2.549-0.732c-0.839-0.768-0.351-1.605,0.349-2.269
			c0.698-0.664,3.178-0.77,3.945-0.245C159.958,198.783,159.364,199.621,159.783,199.447z M154.633,202.588
			c0.069,0.315-0.28,1.258-1.223,1.502c-0.943,0.245-1.571-0.279-1.852,0c-0.279,0.28-0.209,1.188-1.116,1.607
			c-0.909,0.418-1.327,0.348-1.991,0.209c-0.663-0.14-0.35,0.523-0.908,1.048c-0.84,0.788-3.635-0.29-1.465-2.794
			c0.453-0.523,0.871,0.175,1.71,0.034c0.839-0.14,0.733-1.011,0.907-1.501c0.176-0.489,0.56-0.978,1.363-1.117
			c0.803-0.14,0.837,1.012,1.5,0.838c0.664-0.175,0.733-0.663,1.816-0.873C154.457,201.332,154.563,202.274,154.633,202.588z
			 M146.242,210.288c0.766-0.247,1.303,0.167,1.66-0.205c0.356-0.372,0.561-0.988,0.588-1.474c0.027-0.486,0.893-0.985,2.09-1.371
			c1.195-0.386,1.71,0.072,2.533,0.576c0.824,0.506,1.699,1.396,2.088,2.262c0.447,0.996,1.627-0.066,2.482,1.248
			c1.119,1.723,0.893,3.926-1.205,4.76c-0.975,0.39-1.773-0.381-2.457-0.564c-2.086-0.559-0.693-2.286-0.123-3.225
			c1.063-1.746-2.537-0.822-2.786-0.789c-1.371,0.186-0.78-0.372-1.263-0.73s-1.096,0.244-1.277,0.706
			c-0.18,0.462-0.224,1.466-1.375,1.765c-1.15,0.298-1.566-0.082-2.001-0.859S145.479,210.535,146.242,210.288z M145.521,219.48
			c0.345-1.082,1.229-0.762,1.082-1.794c-0.283-1.975,1.777-2.019,2.785-0.491c0.998,1.311,2.777,0.095,2.993,1.973
			c0.071,0.629,0.011,1.935-1.946,1.982C148.471,221.201,145.178,220.562,145.521,219.48z M151.785,224.748
			c0.936,0.275,3.113,1.832,3.703,0.774c1.384-2.48-2.016-1.2-3.032-2.213c-1.12-1.115,0.668-1.879,1.171-1.653
			c1.76,0.791,3.293,0.276,3.918-1.813c0.354-1.177-0.34-3.736,1.855-3.018c0.736,0.241,2.283,2.518,1.063,4.239
			c-0.996,1.403-1.147,2.985,1.144,2.022c0.834-0.352,1.109-1.493,2.773,0.357c0.583,0.646,0.374,2.582-0.757,2.813
			c-2.754,0.561-3.348-2.549-5.249,0.005c-0.369,0.496-8.351,3.078-8.351-0.017C150.023,225.138,150.429,224.347,151.785,224.748z
			 M160.255,229.201c0.604,2.59,1.73,0.906,3.087,0.834c1.189-0.063,1.864,2.138,1.194,3.307c-0.353,1.043-1.958,2.178-3.226,1.423
			c-1.191-1.066-1.092-2.601-3.178-1.89C154.459,234.13,158.975,223.705,160.255,229.201z M162.703,214.471
			c0.14-1.188,0.873-0.978,0.244-1.535c-0.629-0.559-1.291,0.209-1.711-0.733c-0.418-0.942,0.14-1.606-0.594-1.851
			c-0.733-0.245-2.025,0.174-2.27-0.35s-0.419-1.152-0.174-1.99c0.244-0.838,0.313-1.396-0.315-1.605
			c-0.628-0.21-1.257-0.351-1.361-0.909c-0.435-2.317,2.103-1.894,2.479-1.449c0.384,0.454,0.052,1.606,0.331,2.061
			c0.28,0.454,0.733,0.313,1.117,0.942s-0.278,1.013,0.628,1.328c0.909,0.313,0.699-0.141,1.433,0.384
			c0.733,0.522,0.419,0.978,1.292,1.081c0.873,0.105,1.502-0.104,1.188-0.836c-0.314-0.734-0.524-1.572,0.069-1.887
			c0.593-0.314,1.712-0.594,2.165,0.14s1.082,0.943,0.559,1.571c-0.523,0.629-1.188,0.314-1.467,0.594
			c-0.278,0.279-0.384,0.908,0.105,0.943c0.488,0.035,1.501-1.049,1.99-0.699c0.488,0.35,0.838,0.489,0.942,1.258
			c0.104,0.768,0.104,1.257-0.069,1.396c-0.176,0.139-0.088,0.437-1.1,0.541c-1.014,0.105-1.258-0.733-1.642,0
			s-0.07,1.152-0.21,1.781c-0.139,0.629,0.035,1.221-1.013,1.291S162.563,215.659,162.703,214.471z M165.436,226.705
			c0.277-0.457,1.635-1.223,2.191-0.311c0.255,0.42,0.395,1.057,0.455,1.384c0.086,0.47,0.313,0.549,0.77,0.614
			c2.005,0.283-0.13,4.623-1.43,1.383c-0.299-0.742-0.125-0.848-0.457-0.779c-0.426,0.089-0.877-0.025-1.238-0.244
			C164.935,228.272,165.164,227.147,165.436,226.705z M170.695,204.789c0.245-1.013,1.379-1.1,2.218-0.873
			c0.837,0.227,0.751,0.717,1.466,0.891c0.717,0.175,2.131,1.326,2.182,2.531c0.053,1.205-1.833,1.729-2.74,1.537
			s-0.907-1.03-1.519-1.693c-0.61-0.664-1.257-0.332-1.502-1.135C170.8,206.047,170.451,205.802,170.695,204.789z M170.201,200.709
			c0.349-0.453-0.559-0.838-0.559-1.78s0.453-0.803-0.141-1.745c-0.594-0.943,0.141-1.293,0.49-2.2
			c0.348-0.908,1.326-0.245,1.885,0.14c0.559,0.384,0.35-0.21,1.257-0.594c0.558-0.235,3.812-0.255,3.737,2.622
			c-0.012,0.427,2.085-0.104,1.516-2.494c-0.182-0.762-0.926-1.528-0.818-2.013c0.35-1.572,1.117-1.258,2.096-0.699
			c0.978,0.559,1.117,1.258,1.117,3.352c0,2.096-1.432,1.467-2.2,3.144c-0.698,1.466,0.733,2.095-1.151,3.421
			c-1.887,1.328-3.074,0-3.389-0.907c-0.313-0.908,1.048-1.606,1.747-2.305c0.698-0.698-0.384-0.769-1.257-1.012
			c-0.874-0.245-1.956-0.979-2.445-0.874c-0.488,0.105,0.21,1.082,0.489,2.34c0.278,1.258-0.698,0.978-1.222,1.886
			c-0.523,0.907,0,1.745-0.629,2.479c-0.926,1.081-4.004,0.323-2.898-2.443C168.105,200.326,169.852,201.164,170.201,200.709z
			 M160.465,193.744c1.188,0,0.229-0.739,0.298-2.275s1.641-1.117,2.269-1.501c0.629-0.384,0.909-1.153,0.733-2.306
			c-0.175-1.151-0.522-1.396-0.034-2.164s1.642-0.734,2.13-0.455c0.489,0.28,1.642,0.28,1.222,2.096
			c-0.418,1.816-1.012,1.396-1.082,2.34c-0.07,0.942,1.921,1.117,2.199,1.57c0.28,0.455-0.278,1.258-1.5,1.468
			c-1.223,0.21-1.293-0.734-1.607-0.105c-0.314,0.628,0.838,1.118,1.223,2.13c0.385,1.014-1.223,0.244-1.117,1.327
			c0.104,1.083,1.99,1.467,2.653,2.479c0.663,1.012-0.035,1.816-1.187,2.305c-1.154,0.488-2.341-0.523-3.145-1.362
			c-0.803-0.838-0.068-1.71-0.803-2.305c-0.732-0.594-1.291,0.558-2.584,0.21C158.224,196.679,158.395,193.744,160.465,193.744z
			 M145.805,193.869c0.49-0.941,1.432-0.697,2.551-0.209c1.116,0.489,2.338,1.118,3.281,1.083c0.942-0.035,0.873-1.362,0.454-1.712
			c-0.419-0.349-1.433,0.629-2.025-0.209c-0.594-0.838,0.21-1.361,1.048-1.99s2.304,1.047,2.933,1.047
			c0.628,0,0.559-0.559,0.769-1.815c0.209-1.257,0.628-1.606,1.815-1.396c1.187,0.21,2.235,1.955,2.235,3.352
			c0,1.397-1.916,0.837-2.545,1.604s0.729,3.005-0.389,3.703s-2.096-0.698-3.841-0.698s-1.188,1.677-2.515,2.376
			c-3.309,1.74-6.951-0.673-3.29-2.115C148.058,196.189,145.396,194.66,145.805,193.869z M131.685,189.013
			c0.164-0.24,0.386-0.418,0.671-0.49c5.262-1.342,5.683,2.763,6.22,2.96c0.899,0.33,1.44,0.852,1.841-0.062
			c0.688-1.567,0.097-2.671,1.242-4.19c0.279-0.371,2.789-1.229,3.297-0.087c0.523,1.179-0.298,1.455-1.391,3.657
			c-0.497,1.001,0.591,2.188,1.225,2.729c1.521,1.297-1.544,4.165-4.311,3.081c-3.938-1.542-1.505,2.336-3.074,3.744
			c-0.938,0.841-1.17,0.672-2.182,0.048c-1.377-0.848-0.795-1.592-1.152-2.491c-0.085-0.213,0.453-1.988,0.559-2.271
			c1.437-3.854-2.438-3.018-2.93-3.806c-0.02-0.032-0.039-0.065-0.057-0.101l0.44-1.923
			C131.984,189.45,131.846,189.188,131.685,189.013z M116.839,221.756c0.694,0.551,0.961,1.021,2.227,1.572
			c1.267,0.553,1.246,1.41,1.206,2.104c-0.042,0.694-0.429,1.163-1.798,1.409c-1.368,0.244-1.45-0.96-2.348-1.144
			c-0.899-0.184-0.511,0.837-1.227,1.471c-2.021,1.79-4.397-3.231-1.818-2.758c1.001,0.184,1.022,0.142,1.001-0.43
			c-0.021-0.571-0.347-0.633-0.45-1.532C113.439,220.75,115.693,220.846,116.839,221.756z M107.728,210.358
			c1.083-0.104,2.27,1.048,2.723,1.571c0.455,0.524,0.979,0.35,1.537-0.034c0.559-0.384,1.92-0.105,2.2,0.523
			c0.28,0.628,0.14,2.306-1.222,2.514c-1.361,0.21-1.676-0.559-2.479-0.942c-0.804-0.385-1.327,0.489-2.41,0.942
			c-2.426,1.018-4.335,0.023-3.317-2.897C105.284,210.533,106.646,210.464,107.728,210.358z M104.27,211.18
			c-0.524,0.436-0.227,1.361-1.275,1.798c-1.786,0.744-3.185,0.075-2.288-2.218c0.315-0.803,0.209-1.1,0.856-1.605
			c0.646-0.506,2.112-0.471,2.654,0.018C104.758,209.66,104.793,210.742,104.27,211.18z M99.358,217.387
			c-0.511-0.428-1.042-0.02-1.409,0.368c-0.367,0.388-0.348,1.124-0.899,1.634c-0.551,0.512-1.123,0.43-1.532,0.94
			c-0.409,0.511-0.49,1.43-0.49,2.124c0,0.695-1.022,0.939-1.859,1.123c-0.837,0.185-1.288-0.184-1.961-1.266
			c0,0-0.265-0.838,0.348-1.369c0.612-0.531,1.879-0.572,2.206-1.348c0.327-0.777-0.082-1.635,0.653-2.411
			c0.736-0.776,1.553-0.326,1.839-0.612c0.286-0.287,0.613-1.961,1.798-2.451c1.185-0.49,2.37,0,2.9,0.898
			c0.531,0.898,0.818,0.939,1.594,1.349c0.775,0.407,0.938,2.206,0.143,2.696c-0.797,0.49-1.206,0.449-1.348,1.267
			c-0.144,0.816-0.511,1.94-0.94,2.636c-0.428,0.693-1.304,1.721-2.899,1.47c-1.482-0.232-1.439-1.687-1.145-2.369
			c0.388-0.899,0.184-0.817,0.817-1.513c0.633-0.693,1.553-0.02,2.063-0.449C99.747,219.675,99.869,217.816,99.358,217.387z
			 M85.521,199.447c0.292-0.123,2.013,0.039,2.13,0.908c0.075,1.105,0.197,1.032,1.305,1.043c1.333-0.057,2.632,3.379,0.231,4.508
			c-1.776,0.836-2.513-0.875-2.513-2.408c0-0.49-0.314-0.42-1.223-0.594c-0.907-0.174-0.245-1.398-0.593-1.852
			c-0.349-0.453-0.874,0.035-1.677,0.453c-0.803,0.42-1.71,0.035-2.548-0.732c-0.838-0.768-0.349-1.605,0.349-2.269
			c0.699-0.664,3.179-0.77,3.947-0.245C85.695,198.783,85.102,199.621,85.521,199.447z M80.369,202.588
			c0.07,0.315-0.279,1.258-1.221,1.502c-0.944,0.245-1.572-0.279-1.851,0c-0.28,0.28-0.209,1.188-1.118,1.607
			c-0.907,0.418-1.326,0.348-1.99,0.209c-0.663-0.14-0.349,0.523-0.907,1.048c-0.841,0.788-3.637-0.29-1.467-2.794
			c0.454-0.523,0.873,0.175,1.711,0.034c0.837-0.14,0.733-1.011,0.907-1.501c0.175-0.489,0.559-0.978,1.362-1.117
			s0.838,1.012,1.502,0.838c0.663-0.175,0.733-0.663,1.816-0.873C80.194,201.332,80.299,202.274,80.369,202.588z M71.98,210.288
			c0.765-0.247,1.302,0.167,1.659-0.205c0.356-0.372,0.562-0.988,0.588-1.474c0.027-0.486,0.893-0.985,2.089-1.371
			c1.196-0.386,1.71,0.072,2.534,0.576c0.823,0.506,1.698,1.396,2.087,2.262c0.447,0.996,1.626-0.066,2.481,1.248
			c1.12,1.723,0.893,3.926-1.204,4.76c-0.976,0.39-1.774-0.381-2.458-0.564c-2.086-0.559-0.694-2.286-0.123-3.225
			c1.061-1.746-2.537-0.822-2.786-0.789c-1.371,0.186-0.781-0.372-1.263-0.73c-0.483-0.358-1.096,0.244-1.277,0.706
			c-0.182,0.462-0.224,1.466-1.375,1.765c-1.152,0.298-1.568-0.082-2.002-0.859C70.499,211.609,71.216,210.535,71.98,210.288z
			 M71.258,219.48c0.344-1.082,1.229-0.762,1.082-1.794c-0.283-1.975,1.776-2.019,2.785-0.491c0.997,1.311,2.778,0.095,2.993,1.973
			c0.072,0.629,0.011,1.935-1.945,1.982C74.207,221.201,70.915,220.562,71.258,219.48z M77.522,224.748
			c0.934,0.275,3.112,1.832,3.703,0.774c1.384-2.48-2.015-1.2-3.032-2.213c-1.12-1.115,0.668-1.879,1.171-1.653
			c1.76,0.791,3.293,0.276,3.918-1.813c0.353-1.177-0.34-3.736,1.854-3.018c0.738,0.241,2.283,2.518,1.063,4.239
			c-0.996,1.403-1.148,2.985,1.143,2.022c0.835-0.352,1.11-1.493,2.773,0.357c0.583,0.646,0.375,2.582-0.755,2.813
			c-2.755,0.561-3.349-2.549-5.25,0.005c-0.368,0.496-8.35,3.078-8.35-0.017C75.76,225.138,76.166,224.347,77.522,224.748z
			 M85.992,229.201c0.604,2.59,1.729,0.906,3.087,0.834c1.189-0.063,1.863,2.138,1.194,3.307c-0.353,1.043-1.958,2.178-3.225,1.423
			c-1.192-1.066-1.092-2.601-3.178-1.89C80.195,234.13,84.71,223.705,85.992,229.201z M88.44,214.471
			c0.139-1.188,0.872-0.978,0.245-1.535c-0.629-0.559-1.292,0.209-1.711-0.733c-0.419-0.942,0.139-1.606-0.594-1.851
			c-0.733-0.245-2.025,0.174-2.269-0.35c-0.245-0.523-0.419-1.152-0.175-1.99c0.245-0.838,0.315-1.396-0.314-1.605
			c-0.628-0.21-1.257-0.351-1.361-0.909c-0.435-2.317,2.102-1.894,2.479-1.449c0.384,0.454,0.052,1.606,0.332,2.061
			c0.279,0.454,0.733,0.313,1.117,0.942c0.384,0.629-0.28,1.013,0.628,1.328c0.908,0.313,0.698-0.141,1.432,0.384
			c0.733,0.522,0.418,0.978,1.291,1.081c0.874,0.105,1.502-0.104,1.188-0.836c-0.314-0.734-0.523-1.572,0.07-1.887
			c0.594-0.314,1.711-0.594,2.165,0.14s1.083,0.943,0.558,1.571c-0.523,0.629-1.187,0.314-1.466,0.594
			c-0.279,0.279-0.384,0.908,0.104,0.943c0.489,0.035,1.502-1.049,1.99-0.699c0.489,0.35,0.838,0.489,0.943,1.258
			c0.104,0.768,0.104,1.257-0.07,1.396c-0.175,0.139-0.088,0.437-1.1,0.541c-1.013,0.105-1.257-0.733-1.641,0
			c-0.384,0.733-0.07,1.152-0.21,1.781c-0.139,0.629,0.035,1.221-1.013,1.291C90.011,216.008,88.301,215.659,88.44,214.471z
			 M91.171,226.705c0.278-0.457,1.636-1.223,2.191-0.311c0.256,0.42,0.396,1.057,0.457,1.384c0.086,0.47,0.313,0.549,0.769,0.614
			c2.005,0.283-0.13,4.623-1.431,1.383c-0.297-0.742-0.123-0.848-0.455-0.779c-0.425,0.089-0.876-0.025-1.24-0.244
			C90.671,228.272,90.902,227.147,91.171,226.705z M96.432,204.789c0.245-1.013,1.38-1.1,2.218-0.873
			c0.838,0.227,0.751,0.717,1.467,0.891c0.715,0.175,2.129,1.326,2.182,2.531s-1.833,1.729-2.741,1.537
			c-0.908-0.191-0.908-1.03-1.52-1.693c-0.611-0.664-1.256-0.332-1.501-1.135C96.537,206.047,96.188,205.802,96.432,204.789z
			 M95.938,200.709c0.35-0.453-0.559-0.838-0.559-1.78s0.454-0.803-0.139-1.745c-0.594-0.943,0.139-1.293,0.489-2.2
			c0.349-0.908,1.326-0.245,1.885,0.14c0.559,0.384,0.349-0.21,1.257-0.594c0.558-0.235,3.81-0.255,3.737,2.622
			c-0.011,0.427,2.085-0.104,1.516-2.494c-0.183-0.762-0.926-1.528-0.818-2.013c0.349-1.572,1.117-1.258,2.095-0.699
			s1.118,1.258,1.118,3.352c0,2.096-1.432,1.467-2.2,3.144c-0.699,1.466,0.733,2.095-1.153,3.421c-1.885,1.328-3.072,0-3.387-0.907
			c-0.313-0.908,1.048-1.606,1.747-2.305c0.698-0.698-0.385-0.769-1.257-1.012c-0.874-0.245-1.956-0.979-2.445-0.874
			s0.209,1.082,0.489,2.34c0.279,1.258-0.699,0.978-1.222,1.886c-0.524,0.907,0,1.745-0.628,2.479
			c-0.926,1.081-4.005,0.323-2.899-2.443C93.843,200.326,95.588,201.164,95.938,200.709z M85.173,193.389
			c1.187,0,1.257-0.384,1.326-1.92c0.07-1.536,1.642-1.117,2.27-1.501c0.629-0.384,0.908-1.153,0.733-2.306
			c-0.174-1.151-0.523-1.396-0.035-2.164c0.49-0.768,1.642-0.734,2.131-0.455c0.488,0.28,1.64,0.28,1.222,2.096
			c-0.419,1.816-1.014,1.396-1.083,2.34c-0.07,0.942,1.92,1.117,2.2,1.57c0.28,0.455-0.28,1.258-1.502,1.468
			c-1.221,0.21-1.292-0.734-1.606-0.105c-0.314,0.628,0.838,1.118,1.222,2.13c0.384,1.014-1.222,0.244-1.117,1.327
			c0.104,1.083,1.99,1.467,2.653,2.479c0.664,1.012-0.034,1.816-1.187,2.305c-1.152,0.488-2.339-0.523-3.143-1.362
			c-0.803-0.838-0.07-1.71-0.803-2.305c-0.733-0.594-1.292,0.558-2.583,0.21C83.961,196.679,83.101,193.389,85.173,193.389z
			 M72.023,196.889c1.771-0.699-0.891-2.229-0.481-3.02c0.489-0.941,1.432-0.697,2.549-0.209c1.118,0.489,2.34,1.118,3.283,1.083
			c0.942-0.035,0.873-1.362,0.454-1.712c-0.419-0.349-1.432,0.629-2.025-0.209c-0.594-0.838,0.209-1.361,1.048-1.99
			c0.837-0.629,2.304,1.047,2.933,1.047c0.628,0,0.559-0.559,0.768-1.815s0.628-1.606,1.816-1.396
			c1.187,0.21,2.235,1.955,2.235,3.352c0,1.397-0.768,1.747-1.397,2.515c-0.628,0.768-0.419,2.095-1.537,2.793
			c-1.117,0.698-2.094-0.698-3.84-0.698c-1.747,0-1.188,1.677-2.515,2.376C72.004,200.744,68.363,198.331,72.023,196.889z
			 M70.7,222.762c0.132,1.53-1.38,2.404-0.771,3.604c0.56,1.103,1.74,2.032,1.18,3.207c-0.567,1.19-3.3,0.309-3.927-0.4
			c-0.386-0.437-0.779-0.855-1.42-0.958c-7.042-1.122-5.949-6.928-0.255-3.544c2.461,1.463,1.328-1.667,2.823-2.668
			C69.096,221.488,70.622,221.857,70.7,222.762z M69.494,218.251c-1.38,1.579-3.951-0.873-7.211,0.25
			c-3.555,1.227-4.425-3.38-2.691-3.33c3.906,0.112,2.06-2.634,4.902-1.96c1.975,0.469,0.233,2.795,2.104,2.502
			C70.319,215.129,70.84,216.711,69.494,218.251z M64.106,203.339c-0.14-0.687,1.134-0.269,1.533-0.952
			c0.583-0.997-1.21-3.525,1.248-3.771c2.817-0.28,1.751,3.652,1.762,3.685c0.298,0.789,1.889,1.291,0.019,3.534
			c-0.362,0.435-0.93,0.099-1.546,0.055c-2.856-0.203-0.571,1.315-1.443,3.044c-0.35,0.693,1.766,1.564,1.038,3.029
			c-0.396,0.801-3.032,1.412-2.919-0.444c0.176-2.888-1.624-2.149-1.624-4.046C62.172,204.52,64.816,206.826,64.106,203.339z
			 M54.826,211.828c-1.188-1.755,0.474-3.287,1.597-2.564c1.357,0.876,1.261,1.578,2.347,1.85c1.087,0.272,1.033-0.311,1.757-0.311
			c2.062,0,2.331,0.681,2.246,1.417c-0.087,0.759-0.584,1.567-2.064,1.239c-1.63-0.361-2.022-0.785-2.475-0.332
			C57.282,214.076,55.402,212.68,54.826,211.828z M60.24,254.232c-0.79,0.09,0.086-1.496-0.455-2
			c-0.544-0.503-1.932,0.176-2.073-0.242c0.153-0.478,0.543-0.336,0.478-0.793c-0.125-0.872,0.785-0.892,1.23-0.217
			c0.44,0.58,1.227,0.043,1.322,0.871C60.774,252.13,61.104,254.211,60.24,254.232z M64.368,259.188
			c-0.251,0.525-1.459,0.136-1.735-0.177c-0.17-0.192-0.341-0.414-0.628-0.423c-0.827-0.028-0.782-1.698-0.112-1.565
			c1.09,0.215,0.587-0.738,1.248-1.18c0.337-0.226,1.012-0.063,1.047,0.337c0.059,0.675-0.61,1.062-0.341,1.591
			C64.093,258.259,64.615,258.67,64.368,259.188z M65.854,250.236c-0.237,0.499-1.384,0.129-1.646-0.168
			c-0.162-0.183-0.324-0.393-0.596-0.401c-0.6-0.02-1.264-1.809-1.982-2.337c-0.372-0.275-0.961,0.803-1.136,0.497
			c-0.55-0.964,0.471-1.849,1.09-1.673c0.981,0.279,1.767,2.514,2.445,2.807c0.774,0.334,0.493-1.788,0.659-1.898
			c0.321-0.216,0.961-0.061,0.994,0.318c0.056,0.642-0.579,1.008-0.324,1.511C65.593,249.354,66.088,249.744,65.854,250.236z
			 M66.168,238.518c-0.157,0.127-0.079,0.395-0.992,0.488c-0.913,0.096-1.133-0.661-1.479,0c-0.347,0.662-0.064,1.04-0.188,1.607
			c-0.126,0.566,0.031,1.101-0.914,1.164c-0.945,0.063-2.488-0.252-2.362-1.322c0.126-1.07,0.788-0.882,0.221-1.386
			s-1.166,0.188-1.543-0.661c-0.377-0.85,0.126-1.449-0.535-1.669c-0.662-0.221-1.827,0.157-2.047-0.314
			c-0.071-0.153-0.136-0.315-0.184-0.491v-1.209c0.008-0.031,0.016-0.063,0.025-0.096c0.472-1.616-0.552-1.867-1.052-3.477
			c-0.33-1.064,0.055-2.041,1.072-1.229c0.282,0.228,0.249,0.592,0.705,1.132c0.346,0.409,0.047,1.448,0.299,1.858
			c0.251,0.408,0.661,0.283,1.007,0.85c0.346,0.566-0.252,0.913,0.567,1.196c0.818,0.284,0.629-0.126,1.29,0.347
			c0.662,0.472,0.378,0.882,1.166,0.976c0.788,0.095,1.354-0.094,1.07-0.755c-0.283-0.662-0.472-1.417,0.063-1.701
			c0.536-0.283,1.543-0.535,1.952,0.126c0.41,0.662,0.977,0.851,0.505,1.417c-0.473,0.567-1.071,0.283-1.323,0.535
			c-0.252,0.253-0.346,0.818,0.095,0.851c0.441,0.032,1.354-0.944,1.795-0.63c0.44,0.314,0.755,0.441,0.85,1.134
			C66.325,237.951,66.326,238.393,66.168,238.518z M69.804,232.834c0.895,0.771-0.196,2.227,1.144,2.471
			c2.526,0.461,1.118,4.025-0.896,3.229c-1.004-0.396-1.512-0.804-1.021-1.962c0.495-1.165-0.692-1.366-1.538-1.64
			C65.462,234.273,67.674,230.994,69.804,232.834z M68.394,243.085c-0.194-1.038,0.941-0.848,1.111-0.648
			c0.171,0.204,0.022,0.719,0.148,0.923c0.125,0.203,0.327,0.141,0.5,0.422s-0.125,0.453,0.282,0.594
			c0.406,0.141,0.313-0.063,0.641,0.172c0.329,0.235,0.188,0.438,0.578,0.484c0.391,0.048,0.672-0.046,0.532-0.375
			c-0.141-0.327-0.234-0.703,0.031-0.844c0.267-0.141,0.766-0.266,0.969,0.063c0.204,0.328,0.485,0.422,0.251,0.703
			s-0.532,0.141-0.656,0.266c-0.125,0.126-0.172,0.407,0.046,0.422c0.219,0.016,0.672-0.469,0.891-0.313
			c0.219,0.157,0.376,0.219,0.422,0.563c0.047,0.346,0.047,0.564-0.031,0.626c-0.079,0.063-0.04,0.195-0.493,0.243
			c-0.453,0.047-0.563-0.329-0.735,0c-0.171,0.328-0.031,0.516-0.094,0.797c-0.062,0.281,0.016,0.548-0.453,0.578
			c-0.468,0.031-1.234-0.125-1.172-0.656c0.063-0.531,0.391-0.438,0.109-0.688c-0.281-0.249-0.578,0.095-0.766-0.328
			s0.063-0.719-0.265-0.828c-0.33-0.109-0.908,0.077-1.017-0.157s-0.188-0.516-0.078-0.891s0.141-0.625-0.141-0.719
			S68.441,243.336,68.394,243.085z M73.407,267.541c-0.011,0.181-0.111,0.303-0.467,0.365c-0.354,0.064-0.375-0.248-0.608-0.297
			c-0.233-0.047-0.133,0.217-0.318,0.382c-0.524,0.464-1.14-0.837-0.471-0.715c0.259,0.048,0.264,0.038,0.259-0.111
			c-0.005-0.147-0.09-0.164-0.117-0.396c-0.05-0.44,0.535-0.416,0.831-0.181c0.179,0.144,0.249,0.266,0.577,0.408
			C73.422,267.139,73.417,267.361,73.407,267.541z M73.409,254.393c-0.286,0.601,0.3,0.857-0.471,1.4
			c-0.772,0.543-1.257,0-1.386-0.371s0.428-0.658,0.714-0.943c0.286-0.285-0.157-0.314-0.514-0.414c-0.357-0.1-0.8-0.399-1-0.357
			c-0.2,0.043,0.086,0.443,0.201,0.957c0.113,0.514-0.286,0.4-0.501,0.771c-0.213,0.371,0,0.715-0.257,1.015
			c-0.379,0.441-1.638,0.132-1.185-1.001c0.113-0.284,0.829,0.059,0.971-0.127c0.143-0.187-0.229-0.344-0.229-0.729
			c0-0.385,0.186-0.328-0.057-0.714c-0.243-0.387,0.057-0.529,0.2-0.9c0.142-0.371,0.543-0.1,0.771,0.058
			c0.229,0.157,0.143-0.085,0.514-0.243c0.228-0.096,1.56-0.104,1.529,1.073c-0.004,0.175,0.854-0.044,0.62-1.021
			c-0.074-0.313-0.379-0.626-0.334-0.824c0.143-0.643,0.458-0.514,0.857-0.285c0.4,0.229,0.458,0.514,0.458,1.371
			S73.724,253.707,73.409,254.393z M73.411,233.805c-0.705-0.023-0.877-0.31-0.993-0.824c-0.117-0.515,0.472-1.005,0.947-1.018
			c0.476-0.012,0.711,0.314,0.977,0.162c0.266-0.15,0.485-0.467,0.583-0.738c0.097-0.271,0.673-0.409,1.418-0.428
			c0.745-0.02,0.96,0.328,1.343,0.754c0.383,0.425,0.73,1.078,0.806,1.636c0.087,0.641,0.935,0.235,1.201,1.127
			c0.347,1.167-0.153,2.38-1.484,2.503c-0.62,0.057-0.945-0.516-1.302-0.734c-1.091-0.669-0.009-1.416,0.473-1.854
			c0.896-0.814-1.304-0.895-1.451-0.918c-0.811-0.124-0.381-0.341-0.595-0.626c-0.215-0.284-0.664-0.046-0.844,0.187
			C74.308,233.265,74.115,233.828,73.411,233.805z M77.599,240.475c-0.229,0.189-0.099,0.594-0.556,0.785
			c-0.78,0.324-1.391,0.033-1-0.969c0.138-0.351,0.092-0.48,0.374-0.701s0.923-0.205,1.159,0.008S77.828,240.283,77.599,240.475z
			 M78.766,248.026c-0.163,0.218-3.689,1.36-3.689-0.007c0-0.492,0.179-0.84,0.778-0.664c0.413,0.123,1.375,0.811,1.636,0.343
			c0.611-1.095-0.891-0.529-1.34-0.977c-0.494-0.493,0.295-0.831,0.518-0.731c0.777,0.351,1.454,0.123,1.731-0.801
			c0.156-0.52-0.15-1.65,0.82-1.332c0.325,0.105,1.008,1.111,0.468,1.872c-0.439,0.62-0.507,1.318,0.506,0.894
			c0.369-0.155,0.491-0.659,1.226,0.158c0.257,0.285,0.165,1.141-0.334,1.242C79.868,248.271,79.605,246.898,78.766,248.026z
			 M80.004,253.625c-0.635,0.563-1.381-1.014-0.571-0.865c0.315,0.058,0.321,0.045,0.315-0.135s-0.109-0.199-0.142-0.481
			c-0.061-0.534,0.647-0.504,1.008-0.218c0.218,0.173,0.301,0.32,0.699,0.494c0.398,0.174,0.392,0.443,0.379,0.66
			c-0.012,0.219-0.134,0.366-0.565,0.443c-0.429,0.078-0.455-0.301-0.738-0.359C80.107,253.106,80.229,253.428,80.004,253.625z
			 M82.722,261.906c-0.077,0.227-0.425,0.473-0.7,0.309c-0.258-0.23-0.236-0.564-0.689-0.409c-0.797,0.271,0.183-1.99,0.46-0.798
			c0.131,0.563,0.376,0.197,0.67,0.182C82.721,261.176,82.867,261.652,82.722,261.906z M83.158,245.279
			c-0.542-0.213-0.816-0.434-0.551-1.059c0.268-0.628-0.374-0.737-0.83-0.885c-1.095-0.355,0.098-2.125,1.248-1.131
			c0.482,0.416-0.106,1.199,0.616,1.332C85.004,243.786,84.244,245.709,83.158,245.279z M85.042,239.161
			c-1.983,0.677,0.453-4.95,1.145-1.983c0.326,1.398,0.933,0.488,1.666,0.451c0.641-0.035,1.005,1.152,0.644,1.784
			c-0.191,0.563-1.057,1.174-1.74,0.767C86.114,239.605,86.168,238.777,85.042,239.161z M89.435,246.937
			c-0.113-0.326,0.377-0.577,0.627-0.828c0.251-0.251-0.138-0.275-0.451-0.363c-0.313-0.088-0.703-0.351-0.878-0.313
			c-0.175,0.037,0.076,0.388,0.176,0.84c0.1,0.451-0.251,0.352-0.439,0.678s0,0.626-0.226,0.89c-0.19,0.222-1.741,1.771-2.407,0.956
			c-0.104-0.127,0.6-0.359,1.326-0.622c0.352-0.127-0.021-1.055,0.041-1.212c0.1-0.25,0.728,0.05,0.853-0.113
			c0.126-0.162-0.2-0.301-0.2-0.639c0-0.339,0.163-0.288-0.05-0.627c-0.213-0.338,0.05-0.465,0.175-0.791
			c0.126-0.324,0.477-0.088,0.677,0.051c0.201,0.139,0.126-0.075,0.452-0.213c0.199-0.086,1.368-0.092,1.342,0.941
			c-0.004,0.153,0.749-0.037,0.544-0.896c-0.066-0.273-0.332-0.55-0.294-0.723c0.126-0.564,0.401-0.452,0.752-0.251
			c0.351,0.2,0.402,0.451,0.402,1.203c0,0.753-0.514,0.527-0.79,1.129c-0.25,0.526,0.263,0.752-0.414,1.229
			C89.975,247.738,89.548,247.262,89.435,246.937z M91.139,256.621c-0.551,0.015-1.474-0.165-1.377-0.467
			c0.096-0.305,0.344-0.215,0.303-0.504c-0.08-0.554,0.499-0.566,0.781-0.138c0.28,0.368,0.778,0.026,0.839,0.554
			C91.705,256.242,91.688,256.607,91.139,256.621z M96.083,252.187c-1.217,0.248-1.479-1.126-2.32,0.002
			c-0.162,0.22-3.688,1.36-3.688-0.007c0-0.49,0.18-0.84,0.778-0.663c0.413,0.122,1.375,0.811,1.636,0.343
			c0.611-1.096-0.891-0.53-1.34-0.978c-0.494-0.492,0.295-0.83,0.518-0.729c0.777,0.349,1.454,0.121,1.731-0.801
			c0.156-0.521-0.15-1.651,0.819-1.334c0.326,0.107,1.009,1.112,0.469,1.872c-0.439,0.62-0.507,1.319,0.506,0.894
			c0.369-0.154,0.491-0.659,1.225,0.158C96.674,251.229,96.583,252.084,96.083,252.187z M96.142,242.314
			c-0.328-0.022-0.86,0.52-1.621,0.18s-0.948-0.64-1.224-1.133c-0.276-0.492-0.521,0.068-1.155,0.006
			c-0.956-0.095-1.813-2.441,0.948-2.453c0.578-0.004,0.37,0.643,0.917,1.092c0.548,0.449,1.039-0.096,1.441-0.254
			c0.402-0.159,0.919-0.186,1.448,0.24c0.528,0.428-0.176,1.082,0.298,1.402c0.473,0.32,0.818,0.096,1.543,0.66
			c0.726,0.563,0.192,1.146,0.033,1.363s-0.941,0.515-1.612,0.057C96.486,243.018,96.47,242.336,96.142,242.314z M97.873,265.811
			c-0.312,0.008-0.832-0.094-0.777-0.264c0.055-0.172,0.194-0.121,0.171-0.284c-0.045-0.312,0.281-0.319,0.439-0.077
			c0.158,0.206,0.439,0.014,0.473,0.312C98.191,265.596,98.182,265.803,97.873,265.811z M100.7,251.994
			c-0.228,0.189-0.099,0.594-0.556,0.785c-0.779,0.324-1.391,0.031-0.999-0.969c0.138-0.351,0.091-0.48,0.374-0.701
			c0.282-0.221,0.922-0.207,1.158,0.007S100.93,251.803,100.7,251.994z M98.011,247.523c0.035-0.178,0.477-0.894,1.504-0.76
			c0.461,0.059,0.409,0.722,0.916,0.935c0.818,0.343,2.142,0.274,2.303,0.305c0.442,0.081,0.451,0.063,0.442-0.19
			c-0.009-0.252-0.154-0.279-0.198-0.677c-0.085-0.751,0.911-0.708,1.417-0.307c0.307,0.243,0.424,0.451,0.983,0.694
			c0.56,0.244,0.55,0.623,0.533,0.931c-0.019,0.307-0.19,0.514-0.795,0.622c-0.604,0.108-0.7-1.078-1.096-1.158
			c-0.397-0.082-0.105,1.114-0.482,1.303c-0.813,0.406-0.938-0.309-2.294-0.475C99.52,248.533,97.917,247.99,98.011,247.523z
			 M104.068,270.646c-0.011,0.18-0.112,0.301-0.466,0.363c-0.355,0.064-0.375-0.247-0.609-0.296
			c-0.233-0.048-0.132,0.217-0.318,0.382c-0.523,0.464-1.14-0.838-0.471-0.715c0.259,0.047,0.264,0.037,0.259-0.11
			c-0.005-0.149-0.09-0.165-0.117-0.397c-0.049-0.441,0.535-0.416,0.832-0.18c0.18,0.143,0.248,0.264,0.576,0.408
			C104.083,270.243,104.078,270.465,104.068,270.646z M106.079,259.634c-0.611,0-0.432-0.298-0.607,0.155
			c-0.107,0.273-0.008,0.878-0.639,0.685c-0.322-0.098-0.497-0.56-0.772-0.194c-0.196,0.262-0.716,0.148-0.977,0.063
			c-0.368-0.122-0.172-0.865-0.18-0.834c0.12-0.531-0.167-0.626,0.486-0.965c0.328-0.172,0.027-1.002,0.395-0.989
			c0.252,0.008,0.432-0.032,0.548,0.214c0.295,0.622-0.047,1.227,0.139,1.36c0.169,0.122,0.367-0.274,0.938-0.028
			c0.141,0.061,0.258-0.615,0.396-0.677C106.675,258.032,106.613,259.634,106.079,259.634z M106.363,238.063
			c-0.664,1.644-2.176,0.571-1.683,1.765c0.269,0.652,0.576,1.938,0.239,2.62c-0.55,1.106-0.56,1.098-1.638,1.148
			c-1.004,0.047-1.708-0.74-1.708-1.496c0.285-0.315,0.49-2.457,1.228-2.542c1.221-0.141-0.442-1.657,0.086-2.712
			c0.415-0.826,2.371-0.754,3.129-0.393C106.81,236.83,106.678,237.283,106.363,238.063z M105.033,231.674
			c-0.67,1.409,0.704,2.012-1.106,3.287s-2.951,0-3.253-0.872c-0.302-0.872,1.006-1.542,1.677-2.214
			c0.671-0.67-0.369-0.738-1.207-0.973c-0.839-0.234-1.878-0.939-2.348-0.838c-0.469,0.101,0.201,1.04,0.47,2.246
			c0.268,1.208-0.671,0.939-1.174,1.813c-0.503,0.871,0,1.676-0.604,2.38c-0.889,1.038-3.846,0.312-2.783-2.347
			c0.269-0.672,1.945,0.134,2.281-0.302c0.335-0.437-0.537-0.806-0.537-1.711s0.437-0.771-0.134-1.677
			c-0.57-0.906,0.134-1.24,0.47-2.112s1.275-0.235,1.812,0.134c0.536,0.369,0.334-0.201,1.207-0.57
			c0.535-0.227,3.661-0.245,3.589,2.519c-0.012,0.409,2.002-0.101,1.456-2.396c-0.176-0.731-0.889-1.469-0.786-1.934
			c0.335-1.51,1.073-1.208,2.012-0.672c0.939,0.537,1.074,1.208,1.074,3.221C107.146,230.668,105.771,230.064,105.033,231.674z
			 M106.844,222.111c-0.58,0.121-1.195-0.034-1.689-0.334c-1.08-0.652-0.764-2.186-0.396-2.79c0.378-0.622,2.229-1.666,2.986-0.421
			c0.349,0.572,0.54,1.438,0.623,1.885c0.118,0.639,0.426,0.748,1.048,0.837c2.733,0.388-0.177,6.302-1.95,1.886
			C107.059,222.162,107.297,222.018,106.844,222.111z M110.013,255.488c-0.013,0.202-0.124,0.338-0.521,0.409
			c-0.396,0.071-0.42-0.278-0.68-0.331c-0.26-0.054-0.147,0.242-0.355,0.426c-0.586,0.519-1.275-0.938-0.528-0.799
			c0.292,0.053,0.296,0.041,0.292-0.125c-0.006-0.166-0.102-0.184-0.131-0.443c-0.056-0.492,0.598-0.466,0.93-0.201
			c0.2,0.16,0.278,0.296,0.645,0.456C110.03,255.039,110.024,255.287,110.013,255.488z M111.95,248.164
			c-0.359,0.888-1.175,0.309-0.908,0.953c0.145,0.352,0.311,1.045,0.128,1.412c-0.296,0.598-0.302,0.594-0.884,0.621
			c-0.542,0.024-0.921-0.399-0.921-0.809c0.154-0.169,0.265-1.325,0.662-1.371c0.66-0.075-0.238-0.894,0.048-1.463
			c0.223-0.446,1.279-0.406,1.688-0.212C112.19,247.5,112.12,247.744,111.95,248.164z M115.765,262.802
			c-0.312,0.009-0.832-0.093-0.777-0.263c0.054-0.172,0.194-0.121,0.17-0.285c-0.044-0.313,0.282-0.318,0.44-0.076
			c0.158,0.206,0.439,0.014,0.473,0.311C116.083,262.588,116.073,262.795,115.765,262.802z M115.877,240.324
			c-1.384,0-0.978-0.674-1.375,0.351c-0.243,0.622-0.019,1.987-1.445,1.552c-0.729-0.223-1.126-1.268-1.749-0.44
			c-0.444,0.591-1.621,0.336-2.209,0.141c-0.833-0.275-0.393-1.958-0.409-1.888c0.271-1.204-0.378-1.414,1.103-2.186
			c0.742-0.387,0.06-2.268,0.893-2.239c0.572,0.02,0.978-0.071,1.243,0.487c0.667,1.407-0.109,2.777,0.313,3.078
			c0.385,0.275,0.831-0.62,2.122-0.064c0.318,0.136,0.584-1.393,0.896-1.532C117.227,236.699,117.087,240.324,115.877,240.324z
			 M116.364,232.891c-2.206-0.49-2.738-1.063-3.351-0.451c-1.287,1.288-3.832-0.604-4.612-1.758
			c-1.609-2.376,0.641-4.449,2.162-3.471c1.838,1.185,1.706,2.137,3.177,2.504s1.397-0.42,2.378-0.42c2.79,0,3.156,0.92,3.041,1.918
			C119.041,232.238,118.369,233.335,116.364,232.891z M117.073,252.293c0.118-0.369,0.421-0.26,0.371-0.614
			c-0.097-0.677,0.608-0.691,0.954-0.168c0.342,0.448,0.952,0.032,1.025,0.676c0.025,0.215,0.004,0.661-0.666,0.679
			C118.083,252.883,116.956,252.664,117.073,252.293z M120.951,258.193c-0.01,0.18-0.111,0.302-0.465,0.365
			c-0.354,0.063-0.376-0.248-0.609-0.296c-0.232-0.048-0.132,0.217-0.317,0.381c-0.524,0.464-1.14-0.839-0.472-0.714
			c0.259,0.047,0.266,0.035,0.259-0.111c-0.004-0.149-0.09-0.164-0.116-0.398c-0.05-0.439,0.534-0.414,0.831-0.18
			c0.18,0.143,0.249,0.265,0.578,0.408C120.967,257.791,120.963,258.014,120.951,258.193z M122.58,244.984
			c-0.295,0.621-1.723,0.161-2.049-0.209c-0.202-0.228-0.403-0.488-0.742-0.5c-0.978-0.033-0.925-2.006-0.133-1.85
			c1.288,0.254,0.694-0.871,1.475-1.393c0.398-0.269,1.195-0.076,1.236,0.396c0.07,0.799-0.72,1.255-0.402,1.881
			C122.258,243.887,122.873,244.371,122.58,244.984z M122.84,235.186c-0.325-0.423-0.813,0.031-1.559,0.422
			c-0.748,0.389-1.593,0.031-2.373-0.683c-0.78-0.716-0.325-1.495,0.325-2.112c0.649-0.617,2.957-0.715,3.67-0.229
			c0.716,0.488,0.164,1.268,0.553,1.105c0.272-0.113,1.875,0.037,1.982,0.846c0.07,1.028,0.184,0.961,1.215,0.97
			c1.24-0.052,2.449,3.145,0.215,4.196c-1.652,0.777-2.34-0.814-2.34-2.242c0-0.455-0.292-0.391-1.137-0.553
			S123.165,235.607,122.84,235.186z M125.694,265.786c-0.515,0-0.364-0.249-0.511,0.131c-0.09,0.23-0.008,0.738-0.537,0.576
			c-0.271-0.083-0.418-0.471-0.649-0.163c-0.164,0.219-0.603,0.124-0.819,0.052c-0.311-0.103-0.146-0.728-0.152-0.701
			c0.101-0.446-0.141-0.525,0.409-0.812c0.275-0.144,0.022-0.842,0.331-0.831c0.213,0.007,0.363-0.026,0.461,0.181
			c0.248,0.522-0.039,1.031,0.117,1.143c0.144,0.103,0.309-0.23,0.787-0.023c0.119,0.051,0.217-0.518,0.333-0.568
			C126.195,264.441,126.143,265.786,125.694,265.786z M127.084,257.26c-0.311,0.009-0.83-0.092-0.777-0.264
			c0.055-0.17,0.195-0.119,0.172-0.283c-0.045-0.313,0.281-0.32,0.441-0.078c0.157,0.207,0.438,0.016,0.473,0.312
			C127.403,257.047,127.393,257.253,127.084,257.26z M128.446,250.469c-0.611,0-0.432-0.296-0.606,0.156
			c-0.107,0.274-0.009,0.879-0.639,0.686c-0.323-0.1-0.498-0.561-0.773-0.194c-0.195,0.261-0.715,0.147-0.975,0.062
			c-0.369-0.123-0.174-0.865-0.182-0.834c0.12-0.531-0.166-0.625,0.488-0.966c0.328-0.171,0.025-1.001,0.394-0.989
			c0.252,0.01,0.432-0.031,0.55,0.216c0.294,0.622-0.049,1.227,0.138,1.359c0.171,0.121,0.368-0.274,0.938-0.028
			c0.14,0.061,0.258-0.614,0.396-0.676C129.043,248.867,128.98,250.469,128.446,250.469z M126.977,227.513
			c-1.225,0.083-1.838-1.062-2.533-1.511c-2.121-1.373,0.051-2.797,1.021-3.636c1.81-1.563-2.527-1.827-2.818-1.88
			c-1.594-0.286-0.736-0.695-1.144-1.267c-0.409-0.572-1.308-0.122-1.675,0.327s-0.776,1.553-2.166,1.471
			c-1.389-0.082-1.716-0.653-1.92-1.676c-0.204-1.021,0.981-1.961,1.92-1.961c0.94,0,1.389,0.654,1.92,0.367
			c0.532-0.285,0.98-0.897,1.186-1.43c0.203-0.53,1.348-0.775,2.818-0.775s1.879,0.694,2.615,1.553
			c0.734,0.857,1.389,2.165,1.512,3.268c0.141,1.271,1.836,0.51,2.316,2.282C130.656,224.965,129.611,227.338,126.977,227.513z
			 M134.146,252.729c-0.868,0.021-2.322-0.26-2.171-0.738c0.151-0.478,0.543-0.336,0.478-0.793c-0.125-0.872,0.785-0.892,1.23-0.217
			c0.439,0.58,1.227,0.043,1.322,0.871C135.037,252.13,135.01,252.707,134.146,252.729z M138.631,259.188
			c-0.25,0.525-1.457,0.136-1.735-0.177c-0.171-0.192-0.341-0.414-0.626-0.423c-0.828-0.028-0.784-1.698-0.113-1.565
			c1.09,0.215,0.586-0.738,1.247-1.18c0.339-0.226,1.013-0.063,1.047,0.337c0.059,0.675-0.61,1.062-0.341,1.591
			C138.355,258.259,138.879,258.67,138.631,259.188z M140.116,250.236c-0.237,0.499-1.384,0.129-1.646-0.168
			c-0.162-0.183-0.324-0.393-0.596-0.401c-0.786-0.026-0.743-1.611-0.106-1.485c1.033,0.203,0.557-0.7,1.184-1.119
			c0.32-0.216,0.961-0.061,0.994,0.318c0.055,0.642-0.58,1.008-0.324,1.511C139.855,249.354,140.351,249.744,140.116,250.236z
			 M140.432,238.518c-0.158,0.127-0.079,0.395-0.992,0.488c-0.913,0.096-1.133-0.661-1.479,0c-0.347,0.662-0.063,1.04-0.188,1.607
			c-0.127,0.566,0.03,1.101-0.914,1.164c-0.945,0.063-2.486-0.252-2.361-1.322c0.127-1.07,0.787-0.882,0.221-1.386
			c-0.567-0.504-1.165,0.188-1.543-0.661c-0.377-0.85,0.125-1.449-0.535-1.669c-0.662-0.221-1.826,0.157-2.047-0.314
			c-0.011-0.022-0.02-0.044-0.03-0.067v-2.238c0.04-0.22,0.046-0.405,0-0.557v-0.556c-0.934-0.372-1.603-1.481-0.153-3.206v0.959
			c0.346,0.046,0.644,0.17,0.75,0.296c0.347,0.409,0.047,1.448,0.299,1.858c0.252,0.408,0.662,0.283,1.008,0.85
			c0.347,0.566-0.252,0.913,0.566,1.196c0.818,0.284,0.63-0.126,1.291,0.347c0.661,0.472,0.379,0.882,1.166,0.976
			c0.787,0.095,1.354-0.094,1.07-0.755c-0.283-0.662-0.473-1.417,0.063-1.701c0.535-0.283,1.543-0.535,1.953,0.126
			c0.408,0.662,0.975,0.851,0.504,1.417c-0.473,0.567-1.07,0.283-1.322,0.535c-0.252,0.253-0.348,0.818,0.094,0.851
			c0.44,0.032,1.354-0.944,1.795-0.63c0.44,0.314,0.756,0.441,0.85,1.134C140.589,237.951,140.589,238.393,140.432,238.518z
			 M144.068,232.834c0.894,0.771-0.197,2.227,1.143,2.471c2.526,0.461,1.117,4.025-0.896,3.229
			c-1.005-0.396-1.513-0.804-1.022-1.962c0.495-1.165-0.691-1.366-1.537-1.64C139.727,234.273,141.938,230.994,144.068,232.834z
			 M142.658,243.085c-0.195-1.038,0.939-0.848,1.109-0.648c0.172,0.204,0.023,0.719,0.148,0.923c0.125,0.203,0.328,0.141,0.5,0.422
			s-0.125,0.453,0.281,0.594s0.313-0.063,0.641,0.172c0.329,0.235,0.188,0.438,0.578,0.484c0.392,0.048,0.674-0.046,0.532-0.375
			c-0.141-0.327-0.234-0.703,0.032-0.844c0.266-0.141,0.766-0.266,0.969,0.063s0.484,0.422,0.25,0.703s-0.531,0.141-0.656,0.266
			c-0.125,0.126-0.172,0.407,0.047,0.422c0.219,0.016,0.672-0.469,0.891-0.313c0.22,0.157,0.375,0.219,0.423,0.563
			c0.046,0.346,0.046,0.564-0.032,0.626c-0.077,0.063-0.039,0.195-0.492,0.243c-0.453,0.047-0.563-0.329-0.734,0
			c-0.172,0.328-0.031,0.516-0.094,0.797s0.016,0.548-0.454,0.578c-0.468,0.031-1.234-0.125-1.173-0.656
			c0.063-0.531,0.392-0.438,0.111-0.688c-0.282-0.249-0.58,0.095-0.768-0.328s0.063-0.719-0.266-0.828s-0.906,0.077-1.017-0.157
			c-0.109-0.234-0.187-0.516-0.077-0.891s0.141-0.625-0.142-0.719C142.986,243.398,142.704,243.336,142.658,243.085z
			 M147.67,267.541c-0.011,0.181-0.111,0.303-0.466,0.365c-0.355,0.064-0.376-0.248-0.609-0.297
			c-0.232-0.047-0.132,0.217-0.317,0.382c-0.523,0.464-1.141-0.837-0.471-0.715c0.259,0.048,0.265,0.038,0.259-0.111
			c-0.005-0.147-0.09-0.164-0.116-0.396c-0.051-0.44,0.534-0.416,0.83-0.181c0.182,0.144,0.25,0.266,0.577,0.408
			C147.686,267.139,147.68,267.361,147.67,267.541z M147.672,254.393c-0.285,0.601,0.3,0.857-0.471,1.4
			c-0.771,0.543-1.258,0-1.387-0.371c-0.128-0.371,0.428-0.658,0.715-0.943c0.285-0.285-0.157-0.314-0.515-0.414
			c-0.356-0.1-0.8-0.399-1.001-0.357c-0.199,0.043,0.088,0.443,0.201,0.957c0.114,0.514-0.286,0.4-0.5,0.771
			c-0.215,0.371,0,0.715-0.257,1.015c-0.379,0.441-1.64,0.132-1.187-1.001c0.115-0.284,0.829,0.059,0.972-0.127
			c0.144-0.187-0.228-0.344-0.228-0.729c0-0.385,0.186-0.328-0.057-0.714c-0.244-0.387,0.057-0.529,0.199-0.9
			c0.142-0.371,0.543-0.1,0.771,0.058c0.229,0.157,0.144-0.085,0.515-0.243c0.228-0.096,1.559-0.104,1.529,1.073
			c-0.006,0.175,0.853-0.044,0.619-1.021c-0.074-0.313-0.377-0.626-0.334-0.824c0.143-0.643,0.457-0.514,0.857-0.285
			c0.399,0.229,0.457,0.514,0.457,1.371S147.986,253.707,147.672,254.393z M147.674,233.805c-0.704-0.023-0.877-0.31-0.993-0.824
			s0.472-1.005,0.947-1.018c0.476-0.012,0.712,0.314,0.978,0.162c0.266-0.15,0.485-0.467,0.582-0.738
			c0.096-0.271,0.672-0.409,1.418-0.428c0.744-0.02,0.96,0.328,1.343,0.754c0.383,0.425,0.731,1.078,0.806,1.636
			c0.088,0.641,0.938,0.235,1.201,1.127c0.347,1.167-0.152,2.38-1.484,2.503c-0.619,0.057-0.943-0.516-1.301-0.734
			c-1.092-0.669-0.01-1.416,0.472-1.854c0.896-0.814-1.303-0.895-1.45-0.918c-0.812-0.124-0.382-0.341-0.596-0.626
			c-0.214-0.284-0.664-0.046-0.844,0.187C148.572,233.265,148.377,233.828,147.674,233.805z M151.861,240.475
			c-0.229,0.189-0.1,0.594-0.557,0.785c-0.779,0.324-1.391,0.033-0.998-0.969c0.138-0.351,0.092-0.48,0.373-0.701
			c0.283-0.221,0.923-0.205,1.159,0.008S152.091,240.283,151.861,240.475z M153.029,248.026c-0.164,0.218-3.689,1.36-3.689-0.007
			c0-0.492,0.18-0.84,0.778-0.664c0.413,0.123,1.375,0.811,1.636,0.343c0.611-1.095-0.89-0.529-1.338-0.977
			c-0.496-0.493,0.295-0.831,0.517-0.731c0.777,0.351,1.454,0.123,1.729-0.801c0.156-0.52-0.149-1.65,0.82-1.332
			c0.326,0.105,1.008,1.111,0.47,1.872c-0.44,0.62-0.507,1.318,0.505,0.894c0.368-0.155,0.49-0.659,1.225,0.158
			c0.258,0.285,0.166,1.141-0.334,1.242C154.131,248.271,153.868,246.898,153.029,248.026z M154.268,253.625
			c-0.635,0.563-1.381-1.014-0.572-0.865c0.315,0.058,0.322,0.045,0.315-0.135s-0.109-0.199-0.142-0.481
			c-0.06-0.534,0.648-0.504,1.008-0.218c0.219,0.173,0.301,0.32,0.699,0.494s0.392,0.443,0.379,0.66
			c-0.013,0.219-0.135,0.366-0.565,0.443c-0.429,0.078-0.455-0.301-0.737-0.359C154.37,253.106,154.492,253.428,154.268,253.625z
			 M156.984,261.906c-0.076,0.227-0.425,0.473-0.699,0.309c-0.258-0.23-0.236-0.564-0.689-0.409c-0.797,0.271,0.182-1.99,0.46-0.798
			c0.132,0.563,0.376,0.197,0.67,0.182C156.984,261.176,157.131,261.652,156.984,261.906z M157.422,245.279
			c-0.543-0.213-0.816-0.434-0.553-1.059c0.268-0.628-0.373-0.737-0.83-0.885c-1.096-0.355,0.1-2.125,1.248-1.131
			c0.482,0.416-0.106,1.199,0.617,1.332C159.268,243.786,158.508,245.709,157.422,245.279z M159.305,239.161
			c-1.982,0.677,0.455-4.95,1.146-1.983c0.326,1.398,0.933,0.488,1.666,0.451c0.642-0.035,1.005,1.152,0.644,1.784
			c-0.189,0.563-1.057,1.174-1.74,0.767C160.378,239.605,160.432,238.777,159.305,239.161z M163.699,246.937
			c-0.113-0.326,0.375-0.577,0.626-0.828s-0.138-0.275-0.451-0.363s-0.702-0.351-0.878-0.313s0.075,0.388,0.176,0.84
			c0.101,0.451-0.25,0.352-0.439,0.678c-0.188,0.326,0,0.626-0.225,0.89c-0.19,0.222-1.742,1.771-2.408,0.956
			c-0.104-0.127,0.6-0.359,1.325-0.622c0.353-0.127-0.021-1.055,0.042-1.212c0.1-0.25,0.727,0.05,0.854-0.113
			c0.124-0.162-0.202-0.301-0.202-0.639c0-0.339,0.163-0.288-0.05-0.627c-0.213-0.338,0.05-0.465,0.176-0.791
			c0.125-0.324,0.477-0.088,0.678,0.051c0.199,0.139,0.125-0.075,0.451-0.213c0.199-0.086,1.368-0.092,1.342,0.941
			c-0.004,0.153,0.748-0.037,0.544-0.896c-0.065-0.273-0.333-0.55-0.294-0.723c0.125-0.564,0.4-0.452,0.753-0.251
			c0.351,0.2,0.401,0.451,0.401,1.203c0,0.753-0.515,0.527-0.791,1.129c-0.25,0.526,0.264,0.752-0.413,1.229
			S163.812,247.262,163.699,246.937z M165.403,256.621c-0.552,0.015-1.476-0.165-1.378-0.467c0.096-0.305,0.344-0.215,0.303-0.504
			c-0.079-0.554,0.498-0.566,0.781-0.138c0.279,0.368,0.779,0.026,0.839,0.554C165.969,256.242,165.951,256.607,165.403,256.621z
			 M170.346,252.187c-1.217,0.248-1.479-1.126-2.318,0.002c-0.163,0.22-3.688,1.36-3.688-0.007c0-0.49,0.179-0.84,0.777-0.663
			c0.414,0.122,1.376,0.811,1.636,0.343c0.611-1.096-0.89-0.53-1.338-0.978c-0.496-0.492,0.293-0.83,0.516-0.729
			c0.778,0.349,1.455,0.121,1.73-0.801c0.156-0.521-0.148-1.651,0.82-1.334c0.326,0.107,1.008,1.112,0.47,1.872
			c-0.44,0.62-0.507,1.319,0.505,0.894c0.368-0.154,0.49-0.659,1.225,0.158C170.938,251.229,170.846,252.084,170.346,252.187z
			 M170.406,242.314c-0.33-0.022-0.861,0.52-1.623,0.18c-0.76-0.34-0.945-0.64-1.223-1.133c-0.277-0.492-0.521,0.068-1.156,0.006
			c-0.956-0.095-1.813-2.441,0.947-2.453c0.578-0.004,0.37,0.643,0.918,1.092c0.547,0.449,1.037-0.096,1.44-0.254
			c0.402-0.159,0.919-0.186,1.448,0.24c0.528,0.428-0.176,1.082,0.299,1.402c0.473,0.32,0.818,0.096,1.543,0.66
			c0.727,0.563,0.191,1.146,0.033,1.363s-0.941,0.515-1.613,0.057C170.75,243.018,170.734,242.336,170.406,242.314z
			 M172.136,265.811c-0.312,0.008-0.831-0.094-0.777-0.264c0.055-0.172,0.194-0.121,0.171-0.284
			c-0.044-0.312,0.281-0.319,0.439-0.077c0.158,0.206,0.44,0.014,0.475,0.312C172.455,265.596,172.444,265.803,172.136,265.811z
			 M174.964,251.994c-0.229,0.189-0.099,0.594-0.556,0.785c-0.781,0.324-1.393,0.031-1-0.969c0.138-0.351,0.092-0.48,0.374-0.701
			s0.923-0.207,1.159,0.007S175.192,251.803,174.964,251.994z M172.273,247.523c0.035-0.178,0.479-0.894,1.504-0.76
			c0.463,0.059,0.41,0.722,0.916,0.935c0.818,0.343,2.143,0.274,2.303,0.305c0.442,0.081,0.451,0.063,0.442-0.19
			c-0.009-0.252-0.153-0.279-0.198-0.677c-0.086-0.751,0.91-0.708,1.416-0.307c0.309,0.243,0.425,0.451,0.984,0.694
			c0.559,0.244,0.551,0.623,0.532,0.931c-0.019,0.307-0.188,0.514-0.794,0.622c-0.604,0.108-0.699-1.078-1.098-1.158
			c-0.396-0.082-0.104,1.114-0.481,1.303c-0.813,0.406-0.937-0.309-2.294-0.475C173.783,248.533,172.18,247.99,172.273,247.523z
			 M178.33,270.646c-0.01,0.18-0.11,0.301-0.465,0.363c-0.355,0.064-0.376-0.247-0.609-0.296c-0.232-0.048-0.133,0.217-0.316,0.382
			c-0.525,0.464-1.141-0.838-0.473-0.715c0.26,0.047,0.266,0.037,0.26-0.11c-0.004-0.149-0.09-0.165-0.115-0.397
			c-0.051-0.441,0.533-0.416,0.83-0.18c0.18,0.143,0.249,0.264,0.577,0.408C178.347,270.243,178.341,270.465,178.33,270.646z
			 M180.342,259.634c-0.611,0-0.432-0.298-0.607,0.155c-0.107,0.273-0.008,0.878-0.639,0.685c-0.321-0.098-0.497-0.56-0.772-0.194
			c-0.195,0.262-0.716,0.148-0.976,0.063c-0.369-0.122-0.174-0.865-0.181-0.834c0.12-0.531-0.166-0.626,0.487-0.965
			c0.327-0.172,0.027-1.002,0.395-0.989c0.252,0.008,0.432-0.032,0.549,0.214c0.295,0.622-0.049,1.227,0.139,1.36
			c0.17,0.122,0.367-0.274,0.938-0.028c0.141,0.061,0.258-0.615,0.395-0.677C180.939,258.032,180.876,259.634,180.342,259.634z
			 M180.627,238.063c-0.664,1.644-2.176,0.571-1.684,1.765c0.27,0.652,0.576,1.938,0.238,2.62c-0.55,1.106-0.559,1.098-1.637,1.148
			c-1.006,0.047-1.709-0.74-1.709-1.496c0.287-0.315,0.492-2.457,1.229-2.542c1.221-0.141-0.442-1.657,0.086-2.712
			c0.415-0.826,2.371-0.754,3.129-0.393C181.072,236.83,180.941,237.283,180.627,238.063z M179.297,231.674
			c-0.672,1.409,0.703,2.012-1.107,3.287s-2.951,0-3.254-0.872c-0.301-0.872,1.008-1.542,1.678-2.214
			c0.67-0.67-0.369-0.738-1.207-0.973c-0.84-0.234-1.879-0.939-2.348-0.838c-0.47,0.101,0.2,1.04,0.469,2.246
			c0.268,1.208-0.67,0.939-1.174,1.813c-0.503,0.871,0,1.676-0.604,2.38c-0.889,1.038-3.847,0.312-2.783-2.347
			c0.268-0.672,1.944,0.134,2.28-0.302c0.335-0.437-0.537-0.806-0.537-1.711s0.437-0.771-0.134-1.677s0.134-1.24,0.469-2.112
			c0.336-0.872,1.275-0.235,1.813,0.134s0.336-0.201,1.207-0.57c0.535-0.227,3.66-0.245,3.589,2.519
			c-0.011,0.409,2.003-0.101,1.456-2.396c-0.176-0.731-0.89-1.469-0.785-1.934c0.334-1.51,1.072-1.208,2.012-0.672
			c0.938,0.537,1.074,1.208,1.074,3.221C181.41,230.668,180.033,230.064,179.297,231.674z M181.107,222.111
			c-0.58,0.121-1.195-0.034-1.689-0.334c-1.079-0.652-0.765-2.186-0.396-2.79c0.377-0.622,2.229-1.666,2.986-0.421
			c0.349,0.572,0.539,1.438,0.622,1.885c0.118,0.639,0.427,0.748,1.049,0.837c2.733,0.388-0.178,6.302-1.951,1.886
			C181.322,222.162,181.56,222.018,181.107,222.111z M184.275,255.488c-0.012,0.202-0.124,0.338-0.521,0.409
			c-0.397,0.071-0.42-0.278-0.681-0.331c-0.261-0.054-0.148,0.242-0.355,0.426c-0.586,0.519-1.273-0.938-0.526-0.799
			c0.29,0.053,0.295,0.041,0.29-0.125c-0.006-0.166-0.102-0.184-0.131-0.443c-0.057-0.492,0.598-0.466,0.93-0.201
			c0.201,0.16,0.279,0.296,0.645,0.456C184.294,255.039,184.287,255.287,184.275,255.488z M186.213,248.164
			c-0.358,0.888-1.175,0.309-0.908,0.953c0.146,0.352,0.311,1.045,0.129,1.412c-0.297,0.598-0.303,0.594-0.884,0.621
			c-0.543,0.024-0.922-0.399-0.922-0.809c0.153-0.169,0.265-1.325,0.662-1.371c0.659-0.075-0.239-0.894,0.048-1.463
			c0.223-0.446,1.278-0.406,1.688-0.212C186.453,247.5,186.383,247.744,186.213,248.164z M190.027,262.802
			c-0.311,0.009-0.832-0.093-0.777-0.263c0.055-0.172,0.193-0.121,0.172-0.285c-0.045-0.313,0.28-0.318,0.439-0.076
			c0.158,0.206,0.439,0.014,0.474,0.311C190.346,262.588,190.336,262.795,190.027,262.802z M190.14,240.324
			c-1.384,0-0.977-0.674-1.375,0.351c-0.241,0.622-0.018,1.987-1.445,1.552c-0.729-0.223-1.125-1.268-1.747-0.44
			c-0.444,0.591-1.622,0.336-2.211,0.141c-0.832-0.275-0.392-1.958-0.407-1.888c0.271-1.204-0.378-1.414,1.103-2.186
			c0.742-0.387,0.059-2.268,0.893-2.239c0.571,0.02,0.978-0.071,1.242,0.487c0.666,1.407-0.108,2.777,0.313,3.078
			c0.386,0.275,0.832-0.62,2.122-0.064c0.317,0.136,0.585-1.393,0.896-1.532C191.491,236.699,191.351,240.324,190.14,240.324z
			 M191.336,252.293c0.119-0.369,0.422-0.26,0.371-0.614c-0.096-0.677,0.609-0.691,0.955-0.168c0.342,0.448,0.95,0.032,1.024,0.676
			c0.024,0.215,0.003,0.661-0.667,0.679C192.347,252.883,191.219,252.664,191.336,252.293z"/>
		<path fill="#F00808" d="M55.012,186.979c0-0.07,0.006-0.138,0.017-0.201c-0.61-0.193-0.485-0.693-0.171-0.906
			c0.646-0.438,0.367-1.102,0.113-1.184c-0.348-0.113-0.607-0.115-0.813-0.052c0.003,0.769,0.004,1.544,0.003,2.325l-0.003,1.125
			C54.778,188.336,55.012,188.428,55.012,186.979z"/>
		<path fill="#F00808" d="M55.949,169.44c0-0.974-0.065-1.298-0.52-1.559c-0.455-0.259-0.812-0.405-0.974,0.325
			c-0.051,0.225,0.295,0.582,0.38,0.937c0.265,1.11-0.709,1.357-0.704,1.159c0.01-0.432-0.14-0.723-0.357-0.917
			c0.058,1.099,0.107,2.209,0.151,3.335c0.144-0.037,0.298-0.109,0.466-0.228c0.876-0.617,0.21-0.909,0.536-1.592
			C55.283,170.123,55.949,170.415,55.949,169.44z"/>
		<path fill="#F00808" d="M53.944,161.252c0.285,0.25,0.546,0.554,0.577,0.88c0.125,0.776-0.78,1.104-1.131,1.347l0.025,0.32
			c0.041,0.02,0.091,0.041,0.151,0.063c0.827,0.555,0.07,1.504,0.421,1.9c0.221,0.25,0.557-0.213,0.903-1.563
			c0.245-0.957,2.629,2.025,2.944,1.364c0.509-1.069-1.789-1.985-2.299-2.989c-0.553-1.09,2.644-2.281,2.523-3.672
			c-0.071-0.825-1.459-1.16-2.156-0.693c-0.569,0.381-0.116,1.892-0.343,2.235c-0.19,0.288-0.83-0.095-1.385-0.208
			C52.598,159.91,53.372,160.753,53.944,161.252z"/>
		<path fill="#F00808" d="M104.972,161.474c-0.152,0.478,1.303,0.76,2.171,0.737c0.864-0.021,0.891-0.598,0.86-0.876
			c-0.095-0.829-0.882-0.292-1.323-0.871c-0.445-0.675-1.355-0.655-1.23,0.218C105.515,161.137,105.125,160.996,104.972,161.474z"/>
		<path fill="#F00808" d="M67.204,148.238c0.487-0.011,0.503-0.336,0.484-0.493c-0.053-0.468-0.497-0.165-0.746-0.491
			c-0.25-0.381-0.764-0.37-0.693,0.123c0.037,0.257-0.184,0.177-0.27,0.446C65.894,148.092,66.714,148.251,67.204,148.238z"/>
		<path fill="#F00808" d="M67.131,158.038c-0.007,0.03-0.188,0.711,0.181,0.833c0.26,0.086,0.779,0.199,0.976-0.061
			c0.275-0.367,0.45,0.096,0.772,0.193c0.631,0.193,0.532-0.41,0.639-0.686c0.175-0.451-0.004-0.155,0.607-0.155
			c0.535,0,0.597-1.602-0.272-1.21c-0.137,0.063-0.255,0.736-0.396,0.676c-0.57-0.246-0.767,0.15-0.937,0.029
			c-0.187-0.133,0.156-0.738-0.139-1.359c-0.118-0.247-0.297-0.207-0.549-0.216c-0.369-0.013-0.066,0.818-0.395,0.989
			C66.964,157.412,67.251,157.506,67.131,158.038z"/>
		<path fill="#F00808" d="M68.622,165.123c0.27-3.264-2.596-2.23-2.038-0.337c0.131,0.444,1.882,1.722,1.69,2.009
			c-1.515,2.263-0.33,2.053,1.227,1.899c0.543-0.054,0.743,0.39,0.766,0.962c0.021,0.527-1.156,1.225-0.255,1.619
			c1.303-0.281,1.888-1.892,0.665-3.293c-0.45-0.516-0.888-1.939-0.273-2.2c0.286-0.122,0.55-0.241,0.771-0.18
			c1.259,0.351,1.71,0.642,0.953-1.585c-0.14-0.41-0.301-0.716-0.965-0.716C70.155,163.302,68.46,167.096,68.622,165.123z"/>
		<path fill="#F00808" d="M58.583,175.607c0.863,0.233,1.236-0.535,1.725-0.139c0.489,0.396,0,0.979,0.536,1.537
			c0.537,0.561,1.329,1.234,2.098,0.908s1.236-0.861,0.793-1.537c-0.443-0.677-1.701-0.933-1.771-1.655s1.002-0.21,0.746-0.885
			c-0.257-0.676-1.026-1.002-0.815-1.423c0.209-0.418,0.256,0.211,1.072,0.07c0.815-0.139,1.189-0.676,1.002-0.979
			c-0.187-0.303-1.515-0.42-1.469-1.049c0.047-0.629,0.444-0.35,0.724-1.562c0.279-1.212-0.49-1.212-0.816-1.398
			s-1.095-0.21-1.421,0.304c-0.326,0.513-0.093,0.676,0.023,1.445c0.117,0.769-0.07,1.281-0.489,1.537
			c-0.42,0.256-1.469-0.023-1.515,1.003c-0.047,1.024-0.093,1.28-0.886,1.28C56.735,173.066,57.308,175.264,58.583,175.607z"/>
		<path fill="#F00808" d="M73.798,151.203c0.487-0.012,0.503-0.338,0.484-0.493c-0.054-0.469-0.497-0.167-0.746-0.493
			c-0.25-0.379-0.764-0.369-0.693,0.123c0.037,0.258-0.184,0.178-0.27,0.447C72.488,151.057,73.309,151.216,73.798,151.203z"/>
		<path fill="#F00808" d="M59.458,151.396c0.219,0.132,0.49,0.2,0.746,0.147c0.2-0.042,0.095,0.021,0.275,0.469
			c0.783,1.95,2.068-0.662,0.861-0.833c-0.275-0.039-0.411-0.087-0.462-0.369c-0.037-0.197-0.121-0.581-0.275-0.834
			c-0.335-0.549-1.153-0.088-1.32,0.188C59.12,150.43,58.98,151.107,59.458,151.396z"/>
		<path fill="#F00808" d="M60.381,160.948c-0.67-0.132-0.714,1.538,0.112,1.565c0.287,0.01,0.458,0.23,0.628,0.424
			c0.276,0.313,1.484,0.701,1.735,0.176c0.247-0.519-0.275-0.93-0.521-1.417c-0.27-0.529,0.399-0.915,0.341-1.591
			c-0.035-0.4-0.709-0.563-1.047-0.336C60.969,160.212,61.471,161.162,60.381,160.948z"/>
		<path fill="#F00808" d="M66.498,176.791c2.881-1.432,2.362,1.961,2.689,3.884c0.256,1.499,1.253,0.827,1.416-0.2
			c-0.236-0.549-0.212-1.244,0.373-1.857c1.613-1.697-0.199-3.116-0.578-2.138c-0.478,1.235-1.653-0.422-1.233-0.841
			c2.205-2.205-0.067-1.885-1.789-1.867c-1.216,0.474-2.47,0.852-2.487,1.408C64.833,177.1,64.824,177.621,66.498,176.791z"/>
		<path fill="#F00808" d="M181.588,182.674c2.433,0.246,5.016-1.344,3.135-2.701c-2.306-0.346-1.367-1.975-1.37-3.4
			c-0.005-2.691-2.165-0.602-2.54-0.053c-0.578,0.848-1.799-0.982-2.047-1.5c-0.416-0.86-2.393-0.642-2.877-0.191
			c-1.535,1.418,0.731,2.296,1.84,2.678c1.205,0.415,1.643,1.263,1.801,2.275C179.829,181.7,178.883,182.4,181.588,182.674z"/>
		<path fill="#F00808" d="M164.249,163.192c0.238,0.144,0.534,0.219,0.813,0.161c0.218-0.046,0.104,0.023,0.299,0.511
			c0.854,2.126,2.255-0.722,0.939-0.909c-0.3-0.041-0.447-0.094-0.506-0.402c-0.039-0.215-0.131-0.631-0.299-0.906
			c-0.365-0.601-1.256-0.097-1.438,0.203C163.881,162.139,163.729,162.877,164.249,163.192z"/>
		<path fill="#F00808" d="M163.548,172.403c0.622,0.384,1.023,0.86,0.56,2.146c-1.761,4.881,2.623,4.093,3.389,1.73
			c0.567-1.754,1.583-2.186,2.437-1.91c0.026-0.262,0.031-0.541-0.015-0.931c-0.063-0.521-0.495-0.733-0.967-0.783
			c0.068-0.491-0.045-1.022,0.279-1.583c0.479-0.832,1.375-0.576,1.118-1.727c-0.256-1.15-0.896-2.046-0.448-2.141
			c0.448-0.097,1.439,0.574,2.238,0.799c0.799,0.223,1.789,0.287,1.15,0.926c-0.639,0.641-1.887,1.279-1.598,2.109
			c0.287,0.832,1.375,2.045,3.1,0.832c1.726-1.215,0.416-1.791,1.055-3.133c0.703-1.533,2.014-0.959,2.014-2.877
			c0-1.916-0.128-2.557-1.022-3.067c-0.896-0.511-1.599-0.8-1.919,0.639c-0.098,0.444,0.583,1.146,0.749,1.844
			c0.521,2.187-1.396,2.673-1.388,2.282c0.068-2.633-2.91-2.615-3.42-2.4c-0.83,0.353-0.639,0.896-1.149,0.545
			c-0.511-0.353-1.406-0.959-1.726-0.129c-0.32,0.832-0.992,1.15-0.447,2.014c0.543,0.863,0.127,0.734,0.127,1.598
			s0.83,1.215,0.512,1.63c-0.288,0.374-1.609-0.208-2.059,0.136c-0.082-0.826-0.082-1.615-0.386-1.679
			c-0.07-0.341-1.614,0.169-1.629,0.173c-0.858,0.158-0.642,1.383-0.591,2.001C163.545,171.86,163.56,172.17,163.548,172.403z"/>
		<path fill="#F00808" d="M172.746,158.386c0.066,0.455-0.326,0.315-0.477,0.792c-0.152,0.479,1.303,0.76,2.17,0.738
			c0.864-0.021,0.891-0.598,0.859-0.877c-0.096-0.828-0.881-0.292-1.322-0.871C173.531,157.493,172.622,157.513,172.746,158.386z"/>
		<path fill="#F00808" d="M172.919,147.799c0.487-0.013,0.503-0.337,0.484-0.494c-0.054-0.467-0.497-0.165-0.745-0.491
			c-0.251-0.381-0.764-0.37-0.693,0.123c0.035,0.257-0.184,0.177-0.27,0.446S172.43,147.811,172.919,147.799z"/>
		<path fill="#F00808" d="M161.536,151.664c0.226-0.199,0.103-0.519,0.386-0.461c0.282,0.058,0.307,0.436,0.737,0.359
			c0.43-0.078,0.552-0.225,0.565-0.443c0.012-0.219,0.02-0.488-0.379-0.66c-0.398-0.174-0.481-0.321-0.699-0.494
			c-0.36-0.286-1.068-0.316-1.008,0.217c0.032,0.283,0.135,0.303,0.142,0.481c0.006,0.18,0,0.193-0.315,0.136
			C160.154,150.65,160.901,152.227,161.536,151.664z"/>
		<path fill="#F00808" d="M156.92,170.739c-1.842,0.249-0.779,0.867-3.262,0.563c-0.035-0.004-4.569-3.337-4.439-0.282
			c0.069,1.633,2.467,0.885,3.225,1.318c0.674,0.083,1.281,0.4,1.523,0.898c0.459,0.949,0.025,1.184-0.328,2.483
			c-0.354,1.301-0.136,2.221,0.535,2.746c0.671,0.524,2.532,0.253,2.408,2.027c-0.125,1.774-0.096,2.226,1.27,2.384
			c0.088,0.01,0.171,0.025,0.249,0.045c0.213-0.854,1.811-1.945,1.817-1.955c1.088-1.722-1.841-1.666-2.488-2.173
			c-4.352-3.415,2.713-0.521,1.284-6.04C158.281,171.083,157.596,170.648,156.92,170.739z"/>
		<path fill="#F00808" d="M160.895,160.938c0.182-0.273,0.297-0.387,0.555-0.235c0.18,0.106,0.538,0.298,0.828,0.315
			c0.631,0.04,0.703-1.202,0.572-1.589c-0.129-0.377-0.604-1.031-1.1-0.722c-0.227,0.143-0.432,0.391-0.529,0.712
			c-0.076,0.25-0.07,0.088-0.531-0.046C158.674,158.789,160.094,162.139,160.895,160.938z"/>
		<path fill="#F00808" d="M160.54,169.56c0.725-0.303,0.521-0.942,0.882-1.244c0.361-0.303,0.338-1.051-0.037-1.39
			c-0.373-0.338-1.388-0.362-1.835-0.012c-0.446,0.351-0.374,0.556-0.591,1.111C158.338,169.611,159.305,170.073,160.54,169.56z"/>
		<path fill="#F00808" d="M186.383,163.535c0.863-0.021,0.891-0.598,0.858-0.877c-0.095-0.828-0.881-0.292-1.322-0.871
			c-0.445-0.675-1.354-0.655-1.229,0.218c0.064,0.456-0.326,0.315-0.479,0.792C184.06,163.275,185.514,163.557,186.383,163.535z"/>
		<path fill="#F00808" d="M179.088,155.818c0.271-0.271,0.506-0.019,1.479,0.198c0.887,0.197,1.183-0.287,1.235-0.741
			c0.051-0.439-0.11-0.846-1.343-0.846c-0.434,0-0.401,0.348-1.051,0.186c-0.65-0.164-0.591-0.584-1.403-1.107
			c-0.672-0.432-1.666,0.484-0.955,1.533C177.395,155.551,178.52,156.387,179.088,155.818z"/>
		<path fill="#F00808" d="M187.236,206.827c0.949,1.197,1.463,0.653,2.309-0.143c-0.014-0.62-0.026-1.229-0.038-1.835l-0.022,0.014
			C188.57,205.452,186.166,205.476,187.236,206.827z"/>
		<path fill="#F00808" d="M189.273,177.829l0.008-0.479c-0.039,0.083-0.086,0.156-0.145,0.214
			C189.189,177.649,189.233,177.738,189.273,177.829z"/>
		<path fill="#F00808" d="M190.096,145.866c0.488-0.011,0.504-0.336,0.486-0.493c-0.055-0.468-0.498-0.166-0.746-0.492
			c-0.252-0.381-0.765-0.37-0.693,0.123c0.036,0.257-0.184,0.177-0.27,0.446C188.787,145.72,189.607,145.879,190.096,145.866z"/>
		<path fill="#F00808" d="M186.689,152.461c0.33-0.172,0.545-0.373,0.689-0.186c0.143,0.186-0.129,0.689,0.243,0.76
			c0.372,0.072,0.503,0.044,0.503,0.244c0,0.631,0.303,1.334,1.033,0.99c0.986-0.464,0.453-1.876-0.096-1.854
			c-0.455-0.004-0.506,0.025-0.536-0.428c-0.048-0.357-0.755-0.424-0.876-0.374c-0.172,0.072,0.072-0.272-0.244-0.487
			c-0.314-0.216-1.335-0.172-1.621,0.1c-0.287,0.273-0.488,0.617-0.145,0.934C185.986,152.477,186.358,152.634,186.689,152.461z"/>
		<path fill="#F00808" d="M181.152,169.355c-0.701,2.015,0.615,2.699,2.288,1.998c0.746-0.313,1.107-0.914,1.661-0.65
			c0.553,0.266,0.77,0.795,1.709,0.65c0.938-0.145,1.035-1.3,0.842-1.733c-0.192-0.434-1.131-0.626-1.517-0.361
			c-0.386,0.266-0.745,0.386-1.06,0.024c-0.313-0.361-1.131-1.156-1.877-1.084S181.514,168.32,181.152,169.355z"/>
		<path fill="#F00808" d="M154.58,154.83c0.044,0.396,0.188,0.424,0.197,0.677c0.01,0.252,0,0.271-0.441,0.188
			c-1.14-0.208-0.09,2.01,0.803,1.219c0.315-0.28,0.145-0.73,0.541-0.649c0.397,0.081,0.434,0.613,1.037,0.505
			c0.605-0.107,0.777-0.314,0.795-0.623c0.018-0.307,0.027-0.686-0.532-0.929s-0.677-0.451-0.983-0.694
			C155.49,154.121,154.494,154.079,154.58,154.83z"/>
		<path fill="#F00808" d="M134.645,160.948c-0.67-0.132-0.715,1.538,0.113,1.565c0.285,0.01,0.457,0.23,0.627,0.424
			c0.277,0.313,1.484,0.701,1.734,0.176c0.248-0.519-0.273-0.93-0.521-1.417c-0.268-0.529,0.4-0.915,0.342-1.591
			c-0.035-0.4-0.709-0.563-1.047-0.336C135.231,160.212,135.734,161.162,134.645,160.948z"/>
		<path fill="#F00808" d="M121.443,162.007c0.676,0.183,0.969-0.42,1.352-0.109c0.385,0.312,0,0.767,0.421,1.207
			c0.421,0.438,1.042,0.968,1.646,0.712s0.969-0.676,0.621-1.207c-0.347-0.529-1.334-0.73-1.39-1.297
			c-0.055-0.566,0.786-0.164,0.585-0.695c-0.201-0.529-0.804-0.785-0.64-1.114c0.165-0.329,0.202,0.164,0.841,0.055
			c0.641-0.109,0.933-0.53,0.787-0.769c-0.146-0.236-1.189-0.329-1.152-0.822c0.037-0.494,0.348-0.273,0.567-1.225
			c0.112-0.486,0.009-0.724-0.153-0.859h-1.602c-0.256,0.402-0.073,0.53,0.019,1.133c0.091,0.604-0.055,1.006-0.384,1.207
			c-0.33,0.201-1.152-0.019-1.188,0.787c-0.037,0.804-0.073,1.005-0.694,1.005C119.993,160.015,120.443,161.736,121.443,162.007z"/>
		<path fill="#F00808" d="M124.26,181.982c-0.19-2.154-1.734-0.549-1.963-1.343c-0.227-0.788-2.946-0.755-2.098-1.393
			c0.126,0.033,0.744-0.179,0.91-0.24c1.434-0.527-1.402-1.452-1.969-1.049c-1.019,0.726-2.483,0.503-1.488-0.733
			c0.692-0.859,0.169-1.973-0.571-2.012c-1.635-0.084-1.91-0.197-1.91,1.104c0,0.452-0.038,0.988-0.298,1.247
			c0.83,1.36-0.062,3.449,0.706,3.897c1.495,0.873,2.122-0.721,3.029-1.004c1.698-0.53,2.179,0.453,2.188,1.707
			c0.318-0.055,0.711-0.076,1.194-0.057C122.488,182.127,123.523,181.822,124.26,181.982z"/>
		<path fill="#F00808" d="M128.591,151.669c0.864-0.022,0.891-0.599,0.858-0.876c-0.095-0.83-0.881-0.294-1.32-0.872
			c-0.447-0.675-1.355-0.655-1.232,0.217c0.066,0.456-0.325,0.315-0.477,0.793C126.268,151.408,127.723,151.69,128.591,151.669z"/>
		<path fill="#F00808" d="M125.348,169.294c-0.162,0.423-0.503,0.585-0.228,1.022c0.276,0.439,0.065,0.374,0.065,0.813
			c0,0.438,0.422,0.617,0.26,0.828s-0.975-0.178-1.104,0.146c-0.516,1.287,0.916,1.639,1.348,1.136
			c0.291-0.341,0.048-0.73,0.291-1.153c0.244-0.421,0.698-0.292,0.568-0.876c-0.129-0.585-0.454-1.038-0.227-1.087
			c0.227-0.05,0.73,0.292,1.137,0.406c0.404,0.113,0.908,0.145,0.584,0.471c-0.324,0.323-0.957,0.648-0.813,1.07
			c0.147,0.423,0.699,1.039,1.576,0.423c0.876-0.617,0.211-0.909,0.535-1.592c0.357-0.778,1.022-0.486,1.022-1.461
			c0-0.974,0.847-2.724,0.392-2.983s-1.564-0.525-1.727,0.205c-0.051,0.227,0.137,2.127,0.223,2.481
			c0.264,1.11-0.711,1.357-0.705,1.159c0.035-1.338-1.479-1.328-1.738-1.219c-0.422,0.178-0.324,0.453-0.584,0.275
			C125.965,169.181,125.51,168.873,125.348,169.294z"/>
		<path fill="#F00808" d="M124.367,190.291c-1.979-0.537-1.625,1.249-2.385,2.021c-1.076,1.097-2.137-0.968-0.965,1.815
			c0.303,0.718,0.751,1.339,1.62,1.663c3.511,1.307,0.751-1.414,0.636-1.878C123.057,193.047,127.331,191.097,124.367,190.291z"/>
		<path fill="#F00808" d="M117.004,170.951c0.554,0.018,0.885,0.445,1.214,0.818c0.536,0.605,2.872,1.359,3.356,0.343
			c0.479-1.005-0.529-1.8-1.008-2.741c-0.521-1.025,0.772-1.771,0.658-3.079c-0.066-0.774-1.37-1.089-2.024-0.65
			c-1.278,0.856-0.306,2.696-2.414,2.28C115.489,167.666,115.403,170.896,117.004,170.951z"/>
		<path fill="#F00808" d="M110.523,163.982c1.266,0.158,0.509,1.689,0.99,2.309c1.16,1.494,1.124-0.689,2.101,0.268
			c0.514,0.504,2.198,0.617,1.699-0.825c-0.005-0.001-0.368-0.272-0.498-0.319c-1.547-0.564-2.178-2.102-0.712-2.428
			c0.922-0.206,0.251-1.883,0.692-1.999c0.504-0.132,1.922,0.306,1.385-1.474c-0.007-0.025-1.345-0.918-1.52-1.123
			c-0.363-0.426-1.821-0.01-0.875,1.043c0.609,0.678-0.097,1.503-0.95,0.355c-0.081-0.106-1.781-0.572-1.478,0.914
			c0.059,0.293,1.008,0.431,1.263,0.519c0.423,1.226,0.298,1.487-0.936,1.292C110.503,160.465,109.396,163.84,110.523,163.982z"/>
		<path fill="#F00808" d="M115.833,145.866c0.487-0.011,0.503-0.336,0.484-0.493c-0.053-0.468-0.497-0.166-0.745-0.492
			c-0.251-0.381-0.764-0.37-0.694,0.123c0.037,0.257-0.183,0.177-0.27,0.446C114.524,145.72,115.344,145.879,115.833,145.866z"/>
		<path fill="#F00808" d="M146.592,143.581c0.487-0.012,0.502-0.337,0.484-0.494c-0.055-0.468-0.497-0.166-0.746-0.492
			c-0.25-0.38-0.764-0.369-0.693,0.123c0.037,0.257-0.184,0.178-0.27,0.447C145.281,143.433,146.103,143.592,146.592,143.581z"/>
		<path fill="#F00808" d="M154.924,146.814c0.488-0.012,0.504-0.337,0.486-0.495c-0.055-0.468-0.497-0.165-0.746-0.49
			c-0.25-0.381-0.764-0.37-0.693,0.122c0.036,0.257-0.184,0.177-0.27,0.447S154.436,146.826,154.924,146.814z"/>
		<path fill="#F00808" d="M141.467,148.238c0.486-0.011,0.502-0.336,0.484-0.493c-0.053-0.468-0.497-0.165-0.746-0.491
			c-0.25-0.381-0.764-0.37-0.693,0.123c0.037,0.257-0.184,0.177-0.269,0.446C140.157,148.092,140.977,148.251,141.467,148.238z"/>
		<path fill="#F00808" d="M146.838,150.787c-0.088,0.27,0.733,0.429,1.223,0.416c0.487-0.012,0.503-0.338,0.485-0.493
			c-0.054-0.469-0.497-0.167-0.747-0.493c-0.25-0.379-0.764-0.369-0.693,0.123C147.143,150.598,146.923,150.518,146.838,150.787z"/>
		<path fill="#F00808" d="M148.627,163.115c0.98,0.698,2.236,0.409,2.318,1.384c0.081,0.972-4.336-0.632-4.753-0.039
			c-0.539,0.767,0.326,1.142,1.511,1.413c0.574-0.084,1.217-0.045,1.92,0.167c5.029,1.512,6.133-0.038,5.925-1.384
			c-0.319-2.066-1.386-1.301-2.513-1.193c-1.348,0.128-1.932-0.608-1.932-1.239c0.002-1.226,1.146-2.428-2.094-0.913
			C148.104,161.733,147.547,162.345,148.627,163.115z"/>
		<path fill="#F00808" d="M107.326,182.674c2.431,0.246,5.015-1.344,3.135-2.701c-2.306-0.346-1.369-1.975-1.371-3.4
			c-0.005-2.691-2.165-0.602-2.541-0.053c-0.578,0.848-1.798-0.982-2.048-1.5c-0.414-0.86-2.391-0.642-2.877-0.191
			c-1.533,1.418,0.732,2.296,1.842,2.678c1.204,0.415,1.642,1.263,1.8,2.275C105.566,181.7,104.62,182.4,107.326,182.674z"/>
		<path fill="#F00808" d="M140.762,176.791c2.88-1.432,2.36,1.961,2.689,3.884c0.254,1.499,1.252,0.827,1.414-0.2
			c-0.236-0.549-0.211-1.244,0.372-1.857c1.613-1.697-0.199-3.116-0.577-2.138c-0.479,1.235-1.654-0.422-1.234-0.841
			c2.205-2.205-0.067-1.885-1.788-1.867c-1.217,0.474-2.472,0.852-2.487,1.408C139.096,177.1,139.087,177.621,140.762,176.791z"/>
		<path fill="#F00808" d="M133.721,151.396c0.219,0.132,0.49,0.2,0.746,0.147c0.199-0.042,0.096,0.021,0.274,0.469
			c0.783,1.95,2.069-0.662,0.862-0.833c-0.276-0.039-0.411-0.087-0.464-0.369c-0.036-0.197-0.121-0.581-0.274-0.834
			c-0.335-0.549-1.152-0.088-1.32,0.188C133.383,150.43,133.244,151.107,133.721,151.396z"/>
		<path fill="#F00808" d="M132.847,175.607c0.862,0.233,1.235-0.535,1.724-0.139c0.49,0.396,0,0.979,0.537,1.537
			c0.535,0.561,1.328,1.234,2.098,0.908s1.234-0.861,0.792-1.537c-0.442-0.677-1.701-0.933-1.771-1.655
			c-0.069-0.723,1.003-0.21,0.746-0.885c-0.256-0.676-1.024-1.002-0.815-1.423c0.209-0.418,0.256,0.211,1.072,0.07
			c0.816-0.139,1.188-0.676,1.002-0.979c-0.186-0.303-1.515-0.42-1.469-1.049c0.047-0.629,0.443-0.35,0.723-1.562
			c0.28-1.212-0.488-1.212-0.814-1.398s-1.096-0.21-1.423,0.304c-0.326,0.513-0.093,0.676,0.023,1.445
			c0.116,0.769-0.07,1.281-0.489,1.537c-0.42,0.256-1.468-0.023-1.516,1.003c-0.047,1.024-0.093,1.28-0.885,1.28
			C130.998,173.066,131.572,175.264,132.847,175.607z"/>
		<path fill="#F00808" d="M142.506,157.992c0.26,0.085,0.779,0.199,0.976-0.063c0.275-0.365,0.45,0.096,0.772,0.193
			c0.631,0.193,0.531-0.41,0.639-0.686c0.176-0.451-0.004-0.154,0.607-0.154c0.534,0,0.596-1.602-0.273-1.211
			c-0.137,0.063-0.254,0.737-0.395,0.678c-0.57-0.246-0.768,0.149-0.938,0.027c-0.188-0.133,0.156-0.738-0.139-1.359
			c-0.117-0.246-0.297-0.207-0.549-0.215c-0.369-0.012-0.067,0.818-0.395,0.989c-0.654,0.341-0.367,0.434-0.487,0.965
			C142.318,157.188,142.137,157.869,142.506,157.992z"/>
	</g>
	<path id="camisa_contorno" fill="none" d="M136.779,295.682c2.457-0.098,4.621-0.225,7.009-0.355
		c2.389-0.131,5.001-0.265,8.253-0.492s7.144-0.55,10.459-0.852c3.316-0.301,6.056-0.583,8.786-0.947
		c2.729-0.365,5.448-0.813,7.646-1.249s3.873-0.858,5.995-1.329c2.124-0.473,4.696-0.996,6.589-1.32
		c1.891-0.324,3.104-0.453,4.264-0.536c1.158-0.083,2.264-0.124,3.15-0.116c0.888,0.008,1.558,0.063,1.954,0.094
		s0.519,0.038,0.61,0.043c0.049,0.002,0.091,0.004,0.127,0.006c0.094-0.068,0.163-0.18,0.178-0.777
		c0.016-0.674-0.037-1.964-0.107-2.783c-0.067-0.818-0.153-1.166-0.284-1.854c-0.13-0.688-0.307-1.719-0.65-2.683
		c-0.344-0.966-0.856-1.864-1.474-3.042c-0.619-1.178-1.342-2.636-1.782-3.612c-0.438-0.978-0.595-1.476-0.847-2.69
		c-0.25-1.216-0.598-3.15-0.951-5.865c-0.354-2.716-0.716-6.212-1.037-8.875c-0.322-2.662-0.604-4.49-1.08-7.551
		c-0.478-3.06-1.15-7.35-1.709-11.51c-0.557-4.159-0.999-8.188-1.346-12.213c-0.346-4.023-0.598-8.043-0.759-11.625
		c-0.16-3.582-0.23-6.727-0.286-9.776s-0.095-6.003-0.156-9.249c-0.06-3.245-0.141-6.781-0.107-12.024
		c0.032-5.242,0.178-12.19,0.352-17.448c0.174-5.257,0.375-8.824,0.651-12.793c0.275-3.969,0.628-8.34,0.974-12.258
		c0.347-3.918,0.688-7.385,1.121-11.731c0.432-4.345,0.955-9.57,1.482-13.976s1.059-7.993,1.509-10.608
		c0.45-2.614,0.816-4.257,1.138-5.303c0.322-1.044,0.598-1.492,0.803-1.763s0.338-0.366,0.404-0.414
		c0.066-0.049,0.066-0.049,0.049,0.598c-0.018,0.645-0.053,1.937-0.107,3.529c-0.055,1.592-0.131,3.486-0.172,4.962
		c-0.041,1.476-0.05,2.533-0.08,3.183c-0.029,0.649-0.082,0.89-0.102,1.01c-0.019,0.12-0.004,0.117-0.041,0.151
		c-0.037,0.034-0.129,0.104-0.134,0.679c-0.005,0.575,0.075,1.656,0.192,3.048c0.117,1.394,0.27,3.099,0.322,4.78
		c0.051,1.682,0,3.339,0.002,4.226c0,0.887,0.051,1.002,0.132,1.078c0.079,0.075,0.187,0.11,1.001,0.06
		c0.812-0.052,2.329-0.188,4.1-0.324c1.771-0.136,3.796-0.271,5.947-0.43c2.154-0.158,4.435-0.339,6.582-0.462
		c2.147-0.123,4.162-0.188,5.986-0.298c1.823-0.111,3.457-0.267,5.33-0.47c1.873-0.204,3.988-0.456,6.009-0.682
		c2.02-0.226,3.943-0.426,5.104-0.564c1.16-0.138,1.557-0.214,1.756-0.326c0.199-0.114,0.199-0.264,0.229-0.905
		c0.029-0.64,0.09-1.771,0.107-3.129c0.018-1.359-0.008-2.947-0.022-4.424c-0.015-1.476-0.021-2.843-0.038-3.719
		c-0.018-0.877-0.047-1.264-0.072-1.469c-0.023-0.203-0.041-0.226-0.082-0.293c-0.04-0.068-0.102-0.181-0.174-0.68
		c-0.07-0.5-0.151-1.387-0.254-2.319s-0.229-1.91-0.349-2.735c-0.118-0.827-0.231-1.502-0.411-2.542
		c-0.18-1.04-0.426-2.443-0.613-3.445s-0.315-1.599-0.436-2.267c-0.12-0.669-0.234-1.407-0.365-2.119
		c-0.132-0.712-0.283-1.398-0.425-2.154c-0.142-0.756-0.274-1.583-0.374-2.32c-0.1-0.737-0.165-1.385-0.239-2.026
		c-0.073-0.642-0.157-1.278-0.257-2.033c-0.102-0.757-0.219-1.633-0.34-2.524c-0.119-0.89-0.244-1.794-0.354-2.562
		c-0.107-0.767-0.204-1.397-0.371-2.341c-0.168-0.944-0.408-2.201-0.818-4.081c-0.412-1.879-0.996-4.382-1.703-6.883
		c-0.709-2.502-1.543-5.004-2.648-7.737c-1.104-2.733-2.481-5.697-4.089-8.843c-1.608-3.144-3.446-6.47-4.874-8.771
		c-1.426-2.301-2.44-3.577-3.448-4.625c-1.007-1.047-2.007-1.866-3.011-2.605c-1.006-0.738-2.016-1.396-2.581-1.77
		c-0.564-0.375-0.686-0.465-0.755-0.57c-0.068-0.106-0.086-0.226-0.095-0.303c-0.009-0.077-0.009-0.109-0.069-0.175
		c-0.061-0.065-0.181-0.163-1.307-0.713c-1.125-0.55-3.255-1.553-5.304-2.599c-2.048-1.048-4.015-2.14-5.765-2.973
		s-3.281-1.405-5.055-1.955s-3.789-1.078-5.424-1.505c-1.635-0.427-2.892-0.753-3.758-1.007c-0.867-0.254-1.344-0.435-2.043-0.699
		c-0.697-0.266-1.617-0.614-2.604-0.909c-0.985-0.294-2.039-0.533-2.713-0.687c-0.674-0.152-0.97-0.221-1.438-0.471
		c-0.467-0.25-1.104-0.681-1.58-0.935c-0.475-0.254-0.786-0.33-1.07-0.364c-0.287-0.035-0.545-0.03-0.777-0.03
		s-0.438-0.005-1.342-0.33c-0.902-0.325-2.503-0.971-4.021-1.575s-2.955-1.167-4.399-1.746s-2.896-1.175-3.812-1.567
		c-0.916-0.393-1.295-0.584-1.593-0.778c-0.298-0.195-0.513-0.392-0.704-0.498c-0.191-0.104-0.355-0.115-0.465-0.115
		c-0.111-0.001-0.166,0.009-0.252-0.005c-0.086-0.013-0.204-0.052-0.586-0.291c-0.382-0.24-1.027-0.683-1.676-1.192
		c-0.65-0.509-1.303-1.087-1.955-1.659c-0.652-0.571-1.303-1.137-2.309-1.567c-1.006-0.43-2.367-0.727-3.719-0.918
		c-1.352-0.191-2.693-0.276-4.572-0.354c-1.879-0.078-4.295-0.148-7.922-0.13c-3.628,0.018-8.465,0.123-12.901,0.219
		c-4.435,0.096-8.466,0.183-10.586,0.231c-2.121,0.047-2.33,0.057-4.148,0.202s-5.244,0.427-7.396,0.67
		c-2.153,0.244-3.032,0.45-3.748,0.707c-0.715,0.256-1.269,0.563-1.884,1.078s-1.293,1.239-2.017,1.875
		c-0.724,0.637-1.492,1.187-1.95,1.458s-0.607,0.265-0.901,0.366c-0.293,0.102-0.733,0.313-1.266,0.581
		c-0.533,0.27-1.158,0.596-1.918,0.921s-1.655,0.649-2.299,0.903c-0.644,0.254-1.038,0.437-1.512,0.628
		c-0.473,0.191-1.026,0.39-1.763,0.62c-0.737,0.231-1.659,0.496-2.555,0.835c-0.895,0.34-1.764,0.758-2.57,1.075
		c-0.806,0.316-1.551,0.532-2.296,0.748c-0.747,0.216-1.495,0.432-2.051,0.655c-0.556,0.222-0.921,0.451-1.206,0.635
		c-0.285,0.185-0.492,0.326-1,0.476c-0.507,0.149-1.316,0.31-1.911,0.462c-0.596,0.154-0.978,0.3-1.486,0.491
		c-0.51,0.192-1.146,0.428-1.749,0.616c-0.602,0.189-1.169,0.33-1.686,0.459c-0.515,0.129-0.979,0.247-1.697,0.425
		c-0.718,0.179-1.692,0.417-2.548,0.632c-0.856,0.216-1.596,0.408-2.169,0.57c-0.573,0.161-0.979,0.292-1.435,0.425
		c-0.455,0.134-0.961,0.271-1.425,0.399c-0.464,0.129-0.886,0.25-1.31,0.377c-0.424,0.128-0.85,0.262-1.202,0.398
		c-0.353,0.137-0.632,0.276-1.012,0.437c-0.38,0.159-0.861,0.338-1.277,0.53c-0.417,0.191-0.768,0.393-1.165,0.602
		s-0.837,0.423-1.219,0.616c-0.382,0.194-0.704,0.365-1.125,0.587c-0.421,0.223-0.939,0.496-1.656,0.865
		c-0.715,0.371-1.629,0.837-2.69,1.369c-1.063,0.532-2.273,1.126-3.178,1.573c-0.904,0.448-1.502,0.746-2.035,1.087
		c-0.532,0.34-1,0.722-1.442,1.079c-0.442,0.357-0.859,0.689-1.351,1.078c-0.493,0.39-1.061,0.836-1.777,1.473
		c-0.717,0.637-1.584,1.464-2.373,2.329c-0.789,0.865-1.5,1.769-2.143,2.662c-0.642,0.893-1.218,1.774-1.921,2.932
		c-0.703,1.156-1.535,2.588-2.206,3.817c-0.67,1.228-1.18,2.252-1.73,3.26c-0.55,1.007-1.141,1.997-1.643,2.939
		c-0.502,0.942-0.917,1.836-1.311,2.757c-0.395,0.919-0.769,1.867-1.15,2.753c-0.382,0.886-0.771,1.709-1.284,3.039
		c-0.512,1.331-1.148,3.166-1.715,4.906c-0.565,1.739-1.063,3.382-1.487,4.831c-0.425,1.45-0.776,2.706-1.128,4.22
		s-0.704,3.288-1.143,5.662c-0.44,2.373-0.967,5.347-1.29,7.066c-0.321,1.718-0.437,2.18-0.542,2.669
		c-0.105,0.49-0.201,1.007-0.399,1.833c-0.198,0.824-0.5,1.954-0.806,3.139c-0.307,1.186-0.619,2.427-0.839,3.475
		c-0.221,1.047-0.351,1.901-0.575,3.162c-0.223,1.262-0.54,2.929-0.785,4.293c-0.247,1.364-0.422,2.424-0.529,2.971
		c-0.105,0.548-0.14,0.583-0.203,0.634c-0.064,0.049-0.155,0.115-0.251,2.243c-0.097,2.128-0.197,6.319-0.274,8.613
		c-0.079,2.295-0.133,2.691,0.035,2.899c0.168,0.209,0.559,0.229,1.416,0.337s2.178,0.304,4.507,0.753
		c2.328,0.45,5.665,1.153,8.33,1.666c2.665,0.512,4.66,0.833,6.744,1.18c2.085,0.347,4.26,0.718,7.232,1.191
		c2.972,0.472,6.74,1.045,9.141,1.371c2.401,0.327,3.437,0.407,3.954,0.447c0.518,0.041,0.518,0.041,0.568-0.542
		c0.049-0.583,0.148-1.749,0.262-2.756c0.113-1.009,0.241-1.858,0.393-2.934c0.153-1.077,0.329-2.377,0.498-3.573
		c0.17-1.196,0.333-2.286,0.417-2.898c0.085-0.613,0.09-0.749,0.076-0.864c-0.014-0.115-0.046-0.211-0.023-1.816
		c0.024-1.605,0.104-4.72,0.147-7.25c0.042-2.529,0.048-4.473,0.059-5.595c0.011-1.121,0.029-1.42,0.066-1.616
		c0.039-0.196,0.096-0.289,0.177-0.338c0.08-0.048,0.183-0.053,0.308,0.04c0.124,0.093,0.27,0.284,0.344,0.375
		c0.074,0.091,0.076,0.083,0.078,0.08c0.001-0.003,0.001-0.003,0.115,0.253c0.115,0.256,0.344,0.769,0.597,1.462
		c0.254,0.693,0.533,1.568,0.762,2.504c0.229,0.938,0.407,1.937,0.606,3.543c0.2,1.607,0.421,3.82,0.738,6.223
		c0.316,2.403,0.728,4.995,1.467,11.38c0.738,6.386,1.803,16.564,2.638,24.487c0.834,7.922,1.437,13.589,1.809,19.678
		s0.512,12.601,0.502,19.633c-0.01,7.033-0.171,14.59-0.373,20.589c-0.2,5.997-0.442,10.439-0.724,14.408
		c-0.281,3.968-0.603,7.465-1.446,14.146c-0.844,6.683-2.21,16.549-3.004,23.753c-0.794,7.205-1.015,11.746-1.216,15.252
		c-0.202,3.507-0.382,5.979-0.673,8.114s-0.694,3.934-0.972,5.31c-0.279,1.377-0.435,2.331-0.452,2.932
		c-0.018,0.6,0.103,0.847,0.249,0.975s0.317,0.139,0.5,0.175c0.184,0.036,0.38,0.099,0.469,0.155
		c0.019,0.011,0.032,0.021,0.042,0.037c0.875,0.321,1.75,0.644,3.15,0.924c1.401,0.279,3.326,0.517,6.487,0.753
		c3.16,0.236,7.553,0.471,11.087,0.608c3.534,0.137,6.206,0.178,9.583,0.181c3.376,0.003,7.456-0.03,11.317-0.007
		s7.505,0.104,10.581,0.191c3.074,0.087,5.58,0.181,7.908,0.251c2.328,0.07,4.478,0.116,6.782,0.17
		c2.304,0.054,4.763,0.114,7.349,0.121c2.586,0.007,5.298-0.04,8.031-0.097C131.566,295.846,134.32,295.778,136.779,295.682z"/>
</g>
</svg>
