<?xml version="1.0" encoding="UTF-8"?>
<!DOCTYPE svg PUBLIC "-//W3C//DTD SVG 1.1//EN" "http://www.w3.org/Graphics/SVG/1.1/DTD/svg11.dtd">
<!-- Creator: CorelDRAW 2018 (64 Bit Versão de avaliação) -->
<svg xmlns="http://www.w3.org/2000/svg" xml:space="preserve" width="187px" height="148px" version="1.1" shape-rendering="geometricPrecision" text-rendering="geometricPrecision" image-rendering="optimizeQuality" fill-rule="evenodd" clip-rule="evenodd"
viewBox="0 0 186999 147486"
 xmlns:xlink="http://www.w3.org/1999/xlink">
 <g id="Camada_x0020_1">
  <metadata id="CorelCorpID_0Corel-Layer"/>
  <path id="d1" fill="#F00808" d="M237 111435c37,3428 87,6830 115,10301l11 0c1474,-27 2606,206 2606,533 -21,220 855,393 1261,240 535,-206 385,-280 -1794,-873 -3696,-1060 -1432,-767 -855,-440 705,393 5299,820 1346,60 -2435,-507 -1431,-593 555,-133 3077,646 107,-327 1859,-120 1047,106 727,-300 1325,-367 1923,327 3418,587 4550,767 599,273 1475,566 -470,173 -1538,-353 -2221,-287 -1132,100 1218,446 1026,886 -256,660 -2158,-387 -1346,293 961,780 3654,693 3804,693 3611,206 -256,-666 1816,-293 1816,-573 21,-373 5021,1073 2200,593 -1965,-373 -192,187 -1474,107 -1559,-87 -641,493 1367,860 4572,720 2073,-467 3162,-793 706,-207 -619,-614 -512,-854 641,81 1367,160 2201,260 -22,160 21,294 491,354 299,26 534,-40 555,-174 0,-20 0,-40 0,-53 599,73 1218,133 1838,187 619,213 1260,520 1495,826 321,387 -256,493 -982,187 -428,-194 -2479,-180 -898,-267 1752,-133 1453,-266 -940,-473 -2179,-247 -3248,93 -1453,460 876,167 -641,140 -449,433 129,193 -85,620 1112,760 470,40 704,27 534,-47 -492,-220 298,-433 1089,-300 940,167 2351,-100 2351,174 -22,320 3589,693 1089,506 -1346,-106 -1282,427 107,727 1859,413 -3333,-94 -3354,-314 0,-60 -470,-133 -1047,-200 -1133,-126 -1517,221 -534,461 577,140 -171,273 534,346 1025,100 -599,-440 897,-233 1154,140 1581,566 470,480 -1666,-160 -428,386 492,146 619,-180 2969,-113 3760,93 2051,527 -1924,87 -1944,361 20,219 -1582,-7 -1582,160 0,180 1005,199 2244,66 1154,-147 2628,14 1538,160 -940,120 -705,487 363,573 1282,87 3290,660 3269,394 21,-654 5854,366 5833,799 21,294 897,167 1218,467 213,180 42,233 -727,207 -1688,-34 -1239,373 620,573 1666,180 1923,527 2521,640 -22,226 -43,446 -22,666 -619,40 -491,174 0,254 -21,140 -21,286 0,426 -2243,-460 -5384,-1366 -4935,-106 235,646 235,646 -1389,579 -2029,-106 -1367,20 -1901,294 -683,353 4337,440 5448,46 1773,-593 1795,354 1795,-193 -22,-133 448,-193 961,-206 0,413 0,833 -21,1239 -898,-46 -1218,60 -1005,347 -897,-193 -3546,-540 -3546,-440 0,53 -598,67 -1325,27 -1388,-100 -1239,-294 -1965,-214 -1069,127 -5747,-93 -5726,-253 -21,-333 -1837,-706 -2542,-520 -1026,280 -4914,-360 -4914,-53 0,173 -1603,26 -2179,-194 277,40 448,34 213,-166 -85,-67 -107,-120 -85,-147 106,-26 213,-53 341,-73 236,13 513,93 513,173 0,167 1068,267 1068,80 22,-240 1838,-40 -192,-440 -107,-20 -235,-53 -363,-73 171,-87 106,-140 -299,-67 -663,-140 -1303,-306 -1624,-413 -961,-320 -3183,-640 -3483,-473 -213,93 -3503,-267 -4229,-480 -1090,-313 277,-320 2029,-20 1902,313 4231,360 3632,73 -321,-153 833,-173 812,33 21,267 2649,347 2478,280 -534,-166 790,-286 1859,-180 1389,174 641,-140 2072,0 1367,121 684,294 1838,387 1303,113 -22,-340 2670,-126 1218,100 1859,213 1859,319 0,360 3312,480 1581,154 -1560,-287 1966,-594 -406,-727 -1154,-60 -5405,-1486 -3739,-560 620,340 1517,387 1517,587 -21,446 -3183,-493 -5576,-600 -1325,-100 -1816,-280 -791,-300 385,0 983,-567 -106,-440 -598,73 -3718,-87 -1432,-266 1261,-94 1261,-94 -321,-194 -4123,-246 -3525,147 -2243,227 663,40 -42,60 236,326 427,414 -941,-13 -941,-186 22,-180 -812,-320 -1281,-220 -556,100 342,506 1495,646 5085,574 705,860 -107,500 -512,-233 -4016,-833 -4615,-1086 -320,-113 -1175,-274 -2136,-367 -1602,-166 -1602,-166 384,220 2009,367 3291,773 1795,567 -1367,-200 -1025,66 427,320 1902,320 791,553 -705,126 -1517,-413 -1922,-453 -2606,-220 -599,180 -2244,14 -2222,-213 0,-160 -1602,-346 -1602,-567 0,-286 3055,434 811,-380 -1431,-519 1667,-286 -1538,-859 -748,-120 -918,-187 -491,-174 1004,47 235,-566 -983,-779 -86,-14 -171,-27 -235,-34 299,27 705,14 1218,-26 1474,293 2221,533 1944,646 -406,153 1581,507 2478,427 897,-100 -470,-193 428,-234 491,-46 790,-6 1239,154 833,306 2072,366 2072,93 0,-253 1068,-147 1068,107 0,280 3099,706 791,-200 -1752,-700 -1581,-1033 171,-393 1217,446 1987,6 -1004,-407 -1795,-254 -2222,-733 -727,-833 2650,-200 -2393,-340 -2393,-760 0,-147 3184,146 3205,-60 0,-253 2479,67 705,-194 -1495,-219 -2841,54 -2820,-353 -21,-260 -1239,-406 -855,-6 235,266 107,306 -704,193 -1325,-207 -1988,-93 -1069,206 1090,327 -2180,-506 -2180,-233 0,100 193,207 428,254 1880,326 4337,1799 1218,706 -3546,-1326 -4016,-1120 -4615,-1426 -619,-347 2885,726 2243,233 -278,-227 -21,-467 -1089,-567 -876,-80 -1560,-433 -812,-300 961,174 -342,-646 555,-479 1325,233 -662,-1100 -1474,-614 -448,267 -1452,-213 -2307,-160 -684,40 -1966,-319 -1090,-326 748,0 748,-360 0,-614 -528,-181 -1119,-245 -1483,-215l3 411c349,181 203,244 2,286l6 826c876,187 1820,324 1835,579 -16,229 -884,95 -1834,-232 5,812 8,1629 9,2452 2,1268 207,1667 202,2996 -4,925 -65,2105 5,3001 131,1646 218,4049 519,5470 1056,4984 5703,6848 10073,7859 257,59 514,116 772,170 3163,474 7292,1019 12687,1642 6076,242 16830,71 20172,-323 3019,-356 6610,-439 10257,-601 216,-98 895,-195 2366,-252 0,0 0,0 0,0 1281,-78 2066,-75 2214,-18 769,-62 1530,-134 2280,-219 -38,-188 -227,-405 -862,-616 -3973,-1346 215,-2239 215,-1799 0,66 -193,113 -470,140 -428,19 85,1966 2584,1833 770,-44 1387,-59 1787,-44 613,-117 1211,-247 1791,-395 7272,-1853 6398,-2821 7435,-7425 236,-1053 509,-2569 799,-4278 -1139,187 -2284,382 -2902,530 -812,200 -1154,220 -1645,114 -727,-160 -1325,-140 -1133,40 150,173 -3931,460 -4550,313 -300,-60 -363,-40 -214,66 299,174 -1111,281 -2094,267 1367,-273 1752,-446 748,-400 -342,27 -919,114 -1603,240 -149,-133 -918,-173 -918,93 0,47 0,67 -21,81 -193,46 -385,86 -556,126 -449,-27 -1004,-153 -1026,-20 0,120 -704,193 -1196,174 85,-40 192,-74 449,-87 320,-20 1260,-213 2008,-433 1282,-354 2030,-1287 1752,-1767 619,33 1666,47 1645,174 0,393 3696,-607 2692,-674 -811,-33 1389,-420 1837,-140 385,247 1603,60 2692,300 909,156 3408,-22 4200,23 736,-4405 1562,-9683 2205,-11661 467,-1439 971,-3853 1404,-6145 -2866,258 -7865,892 -7552,1033 214,140 170,140 -406,53 -663,-119 -5705,200 -5705,367 -21,100 -1666,340 -1346,200 492,-207 -1388,-193 -1901,-7 -876,353 192,-273 -1260,60 -898,193 -620,-33 -3461,114 -3291,79 -2244,226 -3718,260 -727,13 -1047,-47 -1047,-200 -22,-214 192,-247 1709,-227 4679,40 5534,-260 8119,-427 577,-33 1175,-126 1303,-200 641,-299 -10212,174 -11729,487 -1902,367 -4422,573 -4017,340 363,-213 -748,-307 -3995,-320 -2115,-47 -2585,-27 -2350,127 449,273 -2521,346 -7756,86 -1410,-73 -4956,1267 -4764,1573 171,260 -748,214 -1154,-60 -384,-266 812,-966 1923,-1106 1837,-267 491,-527 -855,-327 -1367,180 -705,-346 -2200,-466 -1325,-114 -22,386 -876,200 -898,-200 -1538,280 -1538,-194 0,-460 -1581,-406 -1581,-140 0,254 -769,194 -1859,-133 -1859,-573 -2329,-666 -3675,-773 -1923,-193 -598,307 -1666,53 -983,-220 -620,133 -1325,-60 -833,-226 641,-500 -769,-586 -1153,-67 -1325,-194 -1346,120 0,313 -256,253 -2222,-480 -2329,-894 85,-207 -1325,-813 -1173,-492 -6396,-1530 -8394,-1703zm107693 2645c453,2436 997,5105 1499,6649 453,1396 999,4437 1539,7654 563,83 996,176 996,258 0,0 0,0 0,0 0,70 -335,62 -954,-4 135,801 268,1611 400,2408 1267,214 3246,707 3246,836 0,0 0,0 0,0 0,146 -171,133 -2756,-267 -144,-27 -281,-56 -410,-87l42 249c286,80 544,164 752,251 342,140 769,247 1175,340 385,47 748,87 1154,134 43,-14 64,-34 64,-54 -21,-186 3354,107 4444,-80 1089,-240 2307,-53 2692,-300 448,-280 2649,107 1838,140 -1005,67 2691,1067 2691,674 -21,-127 1026,-141 1645,-174 -278,480 470,1413 1752,1767 748,220 1688,413 2008,433 257,13 364,47 449,87 -491,19 -1196,-54 -1196,-174 -22,-133 -577,-7 -1026,20 -170,-40 -363,-80 -555,-126 -22,-14 -22,-34 -22,-81 0,-266 -768,-226 -918,-93 -684,-126 -1261,-213 -1603,-240 -1003,-46 -619,127 748,400 -983,14 -2393,-93 -2093,-267 149,-106 85,-126 -214,-66 -620,147 -4701,-140 -4551,-313 192,-180 -406,-200 -1132,-40 -491,106 -834,86 -1646,-114 -747,-180 -2264,-426 -3610,-646 -786,-190 -1886,-361 -2662,-376 321,1908 623,3617 882,4770 1037,4604 163,5572 7434,7425 1469,374 3055,642 4703,841 398,-56 399,-127 48,-243 -599,-206 363,-259 2115,-159 2499,133 3012,-1814 2585,-1833 -278,-27 -471,-74 -471,-140 0,-440 4188,453 215,1799 -1008,336 -892,684 -832,912 1213,83 2437,145 3654,198l-259 -30c-1986,-233 -1325,-373 1069,-227 0,0 0,0 0,0 2171,83 2618,256 2392,388 2475,102 4847,218 6944,465 4117,486 19483,631 23492,86 1288,-175 2572,-333 3850,-502 -69,-42 67,-129 518,-277 0,0 0,0 0,0 705,-240 3098,-560 3098,-426 0,70 -140,147 -364,225 1019,-170 2032,-363 3036,-595 3604,-834 7395,-2248 9206,-5511 -181,-22 -184,-90 95,-177 340,-649 603,-1370 773,-2171 301,-1421 388,-3824 519,-5470 70,-896 9,-2076 5,-3001 -5,-1327 199,-1727 202,-2989 -156,65 -401,131 -803,192 0,0 0,0 0,0 -1090,120 -982,247 -1731,447 -512,47 -961,126 -1111,213 -128,20 -256,34 -384,47 -3268,480 641,-353 3717,-1240 95,-30 201,-60 312,-90 2,-904 6,-1801 12,-2692 -641,104 -1259,303 -1584,109 -812,-486 -2799,847 -1474,614 897,-167 -406,653 555,479 748,-133 64,220 -812,300 -1068,100 -811,340 -1089,567 -642,493 2862,-580 2243,-233 -598,306 -1068,100 -4615,1426 -3119,1093 -662,-380 1218,-706 235,-47 428,-154 428,-254 0,-273 -3269,560 -2179,233 918,-299 255,-413 -1069,-206 -812,113 -940,73 -705,-193 384,-400 -833,-254 -855,6 22,407 -1324,134 -2820,353 -1774,261 705,-59 705,194 22,206 3205,-87 3205,60 0,420 -5042,560 -2393,760 1495,100 1068,579 -726,833 -2992,413 -2222,853 -1005,407 1752,-640 1923,-307 171,393 -2307,906 791,480 791,200 0,-254 1068,-360 1068,-107 0,273 1239,213 2072,-93 449,-160 748,-200 1240,-154 897,41 -470,134 427,234 898,80 2884,-274 2478,-427 -277,-113 471,-353 1944,-646 513,40 919,53 1218,26 -64,7 -149,20 -234,34 -1218,213 -1988,826 -984,779 428,-13 257,54 -491,174 -3205,573 -107,340 -1538,859 -2244,814 812,94 812,380 0,221 -1603,407 -1603,567 22,227 -1623,393 -2222,213 -683,-233 -1089,-193 -2606,220 -1496,427 -2606,194 -705,-126 1452,-254 1794,-520 427,-320 -1496,206 -214,-200 1795,-567 1986,-386 1986,-386 385,-220 -962,93 -1817,254 -2137,367 -598,253 -4102,853 -4615,1086 -812,360 -5192,74 -107,-500 1154,-140 2051,-546 1496,-646 -470,-100 -1304,40 -1282,220 0,173 -1368,600 -940,186 277,-266 -428,-286 235,-326 1282,-80 1880,-473 -2243,-227 -1582,100 -1582,100 -321,194 2286,179 -833,339 -1431,266 -1090,-127 -492,440 -107,440 1025,20 534,200 -791,300 -2393,107 -5554,1046 -5576,600 0,-200 898,-247 1517,-587 1666,-926 -2585,500 -3739,560 -2371,133 1154,440 -406,727 -1731,326 1581,206 1581,-154 0,-106 641,-219 1859,-319 2692,-214 1367,239 2670,126 1154,-93 471,-266 1838,-387 1431,-140 683,174 2072,0 1069,-106 2393,14 1859,180 -171,67 2457,-13 2478,-280 -21,-206 1133,-186 812,-33 -598,287 1730,240 3632,-73 1752,-300 3119,-293 2029,20 -726,213 -4015,573 -4229,480 -299,-167 -2521,153 -3483,473 -320,107 -961,273 -1624,413 -405,-73 -470,-20 -299,67 -128,20 -256,53 -363,73 -2030,400 -214,200 -192,440 0,187 1068,87 1068,-80 0,-80 278,-160 513,-173 128,20 235,47 341,73 22,27 0,80 -85,147 -235,200 -64,206 214,166 -577,220 -2180,367 -2180,194 0,-307 -3888,333 -4913,53 -705,-186 -2521,187 -2543,520 22,160 -4657,380 -5726,253 -726,-80 -577,114 -1965,214 -727,40 -1324,26 -1324,-27 0,-100 -2650,247 -3547,440 213,-287 -107,-393 -1005,-347 -21,-406 -21,-826 -21,-1239 513,13 983,73 962,206 0,547 21,-400 1794,193 1111,394 6132,307 5449,-46 -535,-274 128,-400 -1902,-294 -1624,67 -1624,67 -1389,-579 449,-1260 -2692,-354 -4935,106 21,-140 21,-286 0,-426 491,-80 619,-214 0,-254 21,-220 0,-440 -21,-666 598,-113 854,-460 2520,-640 1859,-200 2308,-607 620,-573 -769,26 -940,-27 -726,-207 320,-300 1196,-173 1218,-467 -22,-433 5811,-1453 5832,-799 -21,266 1987,-307 3269,-394 1068,-86 1303,-453 364,-573 -1090,-146 383,-307 1537,-160 1239,133 2244,114 2244,-66 0,-167 -1602,59 -1581,-160 -21,-274 -3996,166 -1945,-361 791,-206 3141,-273 3760,-93 920,240 2159,-306 492,-146 -1111,86 -683,-340 470,-480 1496,-207 -128,333 897,233 706,-73 -42,-206 534,-346 984,-240 599,-587 -534,-461 -576,67 -1046,140 -1046,200 -22,220 -5213,727 -3355,314 1389,-300 1453,-833 107,-727 -2500,187 1111,-186 1090,-506 0,-274 1410,-7 2350,-174 791,-133 1581,80 1089,300 -170,74 65,87 535,47 1196,-140 982,-567 1111,-760 192,-293 -1325,-266 -449,-433 1795,-367 726,-707 -1453,-460 -2393,207 -2692,340 -940,473 1581,87 -470,73 -898,267 -726,306 -1303,200 -982,-187 235,-306 876,-613 1495,-826 620,-54 1239,-114 1838,-187 0,13 0,33 0,53 22,134 256,200 555,174 471,-60 513,-194 492,-354 833,-100 1559,-179 2200,-260 107,240 -1217,647 -512,854 1089,326 -1410,1513 3162,793 2008,-367 2927,-947 1367,-860 -1282,80 491,-480 -1474,-107 -2820,480 2179,-966 2200,-593 0,280 2072,-93 1817,573 -193,487 -44,487 3610,-206 2307,-487 3120,-1167 961,-780 -1281,226 -1474,-214 -256,-660 1090,-387 406,-453 -1132,-100 -1944,393 -1069,100 -470,-173 1132,-180 2627,-440 4551,-767 597,67 277,473 1324,367 1722,-203 -1117,734 1706,151 28,-3102 71,-6153 105,-9221 -2102,388 -4375,900 -5101,1205 -1410,606 1004,-81 -1324,813 -1966,733 -2222,793 -2222,480 -22,-314 -193,-187 -1347,-120 -1409,86 64,360 -769,586 -705,193 -342,-160 -1324,60 -1068,254 256,-246 -1667,-53 -1346,107 -1816,200 -3674,773 -1090,327 -1860,387 -1860,133 0,-266 -1580,-320 -1580,140 0,474 -641,-6 -1539,194 -854,186 449,-314 -876,-200 -1495,120 -833,646 -2200,466 -1346,-200 -2692,60 -855,327 1111,140 2308,840 1923,1106 -406,274 -1325,320 -1153,60 192,-306 -3355,-1646 -4765,-1573 -5234,260 -8204,187 -7756,-86 235,-154 -234,-174 -2350,-127 -3247,13 -4358,107 -3995,320 406,233 -2115,27 -4016,-340 -1518,-313 -12371,-786 -11730,-487 128,74 726,167 1303,200 2585,167 3440,467 8119,427 1517,-20 1731,13 1709,227 0,153 -320,213 -1047,200 -1474,-34 -427,-181 -3717,-260 -2842,-147 -2564,79 -3461,-114 -1453,-333 -385,293 -1261,-60 -513,-186 -2393,-200 -1901,7 320,140 -1325,-100 -1346,-200 0,-167 -5042,-486 -5704,-367 -577,87 -621,87 -407,-53 385,-173 -7264,-1093 -9101,-1140 -1132,-26 -1239,-53 -1282,-306 -43,-174 -149,-227 -299,-127 -31,25 -120,37 -252,36zm78711 8478l5 -585c-1006,297 -999,377 -589,536 153,58 372,69 584,49zm7 -936l2 -223c-1415,302 -888,324 -2,223zm-5120 9159c-3013,400 -2693,380 -2137,447 171,19 235,40 235,73 449,-113 1005,-127 898,106 -214,500 1324,-206 1067,-526 -21,-33 -63,-67 -63,-100zm-2329 680c-449,93 -1218,207 -2286,326 -43,7 -86,14 -107,20 235,0 406,34 406,147 0,347 1837,-67 1859,-340 0,-60 43,-107 128,-153zm6174 -4206c770,-40 -405,500 428,167 470,-194 448,-314 128,-360 -150,93 -321,146 -556,193zm-39290 7312c-235,-173 -405,-427 -1111,-713 -1517,-574 -1474,-1147 85,-1267 471,-33 706,-126 834,-227 -192,-26 -406,-39 -598,-93 -107,-13 -192,-40 -278,-53 -406,167 -1175,213 -1666,113 -1539,-320 -1816,-106 -684,494 769,399 -1346,-134 -1346,366 22,187 -277,287 -833,280 -1752,0 1175,-820 -192,-806 -749,6 213,193 -1090,266 -1667,53 -641,-413 -1709,-200 -492,87 -364,173 512,407 1987,486 919,1053 257,1673 320,133 43,287 919,153 1132,-213 1175,260 1687,7 577,-287 1282,286 1282,-47 0,-226 2329,-366 3867,-333 21,-7 43,-14 64,-20zm15447 -16024c427,-53 962,-120 1666,-206 342,-40 641,-60 898,-94 -22,-27 -22,-60 -43,-93 0,-67 -470,-87 -1110,-53 -599,33 -1133,240 -1411,446zm2714 -120c-22,-7 -44,-7 -65,-7 -897,34 -1238,94 -1175,214 43,186 -833,340 -1602,340 64,47 192,73 363,93 705,33 -363,427 492,467 341,20 640,260 769,533 107,-20 256,-40 448,-60 1175,-94 1197,-886 1987,-1366 -534,40 -982,-47 -1217,-214zm11280 -766c-427,-60 -470,-140 -299,-220 -85,-7 -150,-7 -235,0 0,0 0,0 0,0 -1495,33 -1645,73 -1624,420 0,426 1196,-14 2179,-160 65,-7 107,-14 171,-27 -64,-13 -128,-13 -192,-13zm-9336 3599c-22,0 -43,0 -86,0 -106,67 -64,153 257,253 961,-60 2029,-86 2990,-13 920,53 2201,-187 1646,-307 -214,-46 -43,-173 384,-306 171,-47 321,-120 449,-187 -2115,553 -4465,813 -4786,560 -427,27 -769,27 -854,0zm-3269 133c321,-160 1474,-326 2670,-420 1090,-320 1945,-686 940,-706 0,0 0,0 0,0 -448,-7 -747,-173 -876,-400 -128,53 -213,127 -192,227 0,366 -1624,340 -2350,199 64,234 -42,467 -299,514 -427,93 -278,426 107,586zm19249 507c-640,-120 -405,-647 343,-767 683,-126 1025,127 640,507 -320,333 -405,360 -983,260zm1219 973c-492,-193 -385,-566 213,-660 1389,-246 876,1073 -213,660zm-13589 3353c0,-247 -4700,873 -1517,-433 1838,-774 3098,-374 3098,-720 0,-214 1581,-534 2863,-614 1282,-66 812,347 -577,514 -1089,126 -2264,639 -2264,1013 0,227 -1581,386 -1603,240zm22 526c-22,-266 2649,-413 2649,-593 0,-73 213,-147 534,-200 1111,-153 470,293 -854,580 -1859,367 -2329,413 -2329,213zm-7115 1627c-1560,-133 -1624,-407 -107,-400 1966,0 2949,-627 2970,-380 0,233 -2350,520 -1196,540 1325,20 598,426 -1667,240zm1304 733c-22,-753 3183,-513 2243,-413 -1026,113 -64,166 -919,326 -812,113 -1346,520 -1324,87zm-5833 1559c-2799,-73 -214,-786 -1688,-613 -1324,167 192,460 -2222,660 -2243,167 -940,-153 -64,-213 1581,-80 -1132,-260 128,-607 919,-253 769,-386 -342,-280 -1645,154 -4743,-426 -1004,-386 6538,-94 5063,-687 7969,-653 1432,-7 2415,153 1474,226 -961,80 -63,387 -1495,400 -897,7 -897,7 -21,67 1303,87 1239,413 -107,446 -1389,34 -2072,287 -150,187 4123,-233 -1303,780 -1517,787 -107,0 -555,-7 -961,-21zm16472 -1286c492,-213 449,-253 -235,-220 -1709,107 1282,-773 1282,-106 21,486 -2008,719 -1047,326zm-24933 2253c-21,-73 -427,-140 -854,-127 -1710,47 -470,-360 1602,-533 1111,-86 2393,60 2393,294 0,166 -1474,200 -1944,33 -620,-207 -1090,553 -1197,333zm5171 260c1004,-140 791,-300 -278,-200 -1367,127 384,-33 363,-193 0,-100 1581,-347 1218,106 -342,440 -2201,407 -1303,287zm-9657 167c171,-7 427,-14 726,-14 43,0 85,0 128,0 86,-133 171,-253 535,-306 341,-54 298,-154 -108,-294 -42,-6 -64,-13 -106,-33 -214,-13 -471,-53 -812,-120 -214,-40 -406,-66 -556,-87 -256,100 -384,187 -234,261 448,246 555,446 427,593zm-13503 -7952c21,-13 43,-40 43,-54 -257,-6 -513,-26 -791,-40 -1922,361 -3333,7 -3802,-186 -278,-20 -556,-27 -855,-40 107,20 256,60 448,100 791,153 -170,560 363,700 641,180 -21,-394 2223,-274 0,0 0,0 0,0 1666,87 1752,-146 2371,-206zm15276 100c0,20 0,46 0,67 278,-7 556,-34 812,-87 -278,26 -556,26 -812,20zm21 1846c22,167 22,320 0,480 898,-100 2052,-213 2030,-487 0,-126 -1132,-53 -2030,7zm22 807c21,126 0,253 0,379 1581,-119 2030,-186 2030,-306 0,-227 -1218,-367 -1496,-180 -64,53 -257,87 -534,107zm0 873c0,80 0,153 0,220 919,-134 2307,20 1837,-140 -320,-100 -1154,-113 -1837,-80zm-18887 4806c150,-80 363,-134 641,-114 1005,54 1068,-413 342,-446 -257,-14 -320,-54 -299,-100 -150,40 -406,53 -812,0 -1752,-187 -2543,220 -898,473 492,73 834,140 1026,187zm1901 -860c65,6 108,0 150,6 1176,60 1218,-186 492,-253 -342,20 -492,140 -642,247zm-4871 -460c-448,-307 -470,-673 193,-607 2200,120 -2671,-1453 -2671,-866 21,286 -1239,-20 -919,386 300,387 -2777,814 -2777,340 0,-173 -556,-260 -1132,-253 0,20 21,33 21,60 214,333 -1004,600 -2201,467 -1474,-160 -1346,200 300,380 747,79 1474,86 1644,19 599,-280 3056,174 705,281 -3054,66 1624,1019 1603,226 0,-673 2671,193 3697,-320 427,-213 1089,-153 1537,-113zm-9934 -2633c85,-60 128,-120 149,-180 -149,-33 -320,-53 -491,-73 -363,-47 21,93 342,253zm-2457 -2346c-193,-94 -406,-173 -577,-187 -235,-40 -492,-53 -748,-60 342,74 748,160 1325,247zm9657 6c0,0 0,0 0,0 3140,714 3439,-193 2222,-33 -2436,340 -2821,-666 -3568,-726 -855,-74 107,480 1346,759zm10062 6546c0,0 0,0 0,0 1924,-20 3419,286 3120,633 -342,353 3012,213 1495,-160 -769,-187 -170,-533 -1645,-580 -683,-13 -1175,-140 -1410,-320 -342,-326 -1261,-433 -1261,-160 22,240 -1944,-120 -2221,147 -363,320 107,420 1922,440zm-8802 600c342,-60 406,-160 -21,-254 -2115,-479 3718,27 2008,407 -662,-46 -1325,-107 -1987,-153zm54908 -5766c0,0 0,0 0,0 -235,-346 -4123,327 -1495,280 1325,-13 1666,-73 1495,-280zm-23864 140c0,0 0,0 0,0 -278,-153 3162,-413 3653,-266 449,133 1666,39 491,-154 -1025,-193 -683,-580 492,-553 982,0 2393,-460 -534,-80 -2949,300 -5000,200 -5000,620 0,327 -1068,300 -726,493 299,160 2030,133 1624,-60zm1965 -1220c0,0 0,0 0,0 -64,-106 85,-833 -1025,-773 -919,60 -1111,240 -321,313 705,54 -449,840 662,694 428,-54 705,-154 684,-234zm10170 -7985c-684,34 -1325,100 -257,167 22,0 43,0 43,0 86,-53 150,-114 214,-167zm16087 -5519c0,0 0,0 0,0 -1452,220 1368,307 2778,-246 385,-147 -1175,-7 -2778,246zm-68431 3486c0,0 0,0 0,0 -2649,-320 256,580 1709,627 1303,40 21,-434 -1709,-627zm22817 26055c342,14 727,7 1175,20 0,7 0,7 0,7 0,147 -748,107 -1452,80 64,-27 149,-60 277,-107zm12392 -80c556,-6 983,0 1303,0 214,40 342,100 406,167 -406,153 -812,293 -1217,433 0,34 -65,60 -193,87 -64,13 -106,26 -150,26 -363,67 -1025,94 -1431,21 -150,-34 -256,-80 -299,-121 0,0 0,0 0,0 0,0 0,0 0,0 -21,-13 -43,-19 -43,-46 0,0 0,0 0,0 0,0 0,0 0,0 0,-213 791,-460 1624,-567zm10383 1567c1048,86 2030,180 1774,373 -128,100 -22,200 235,267 -2094,446 -3782,33 -2009,-640zm6239 446c855,-20 1624,27 1624,140 0,0 21,7 42,14 -619,-7 -1239,-60 -1666,-154zm-26236 -1653c-150,34 -321,74 -491,107 -86,-53 42,-87 491,-107zm299 307c1175,0 3376,60 4038,-160 513,-187 342,106 1517,153 42,0 64,0 64,0 -192,34 -406,60 -620,74 -1623,126 -1345,453 278,353 22,6 43,6 64,0 -42,180 -1132,220 -1603,6 -277,-126 300,487 -320,494 -684,6 -406,-300 -1067,-347 84,-26 42,-60 -44,-93 278,-47 577,-100 577,-167 0,-146 -1688,47 -1325,-93 171,-67 -320,-93 -918,-100 -214,-47 -449,-80 -641,-120zm-1132 280c-257,13 -642,13 -941,-7 299,-6 620,0 941,7zm-1539 -187c0,-20 0,-60 21,-86 44,-34 44,-67 44,-100 405,33 704,73 704,139 0,47 -320,61 -769,47zm5320 1986c0,0 0,0 0,0 2478,-26 321,-739 2393,-886 1004,-93 1069,-313 1431,-313 770,6 1838,-133 2863,-267 599,160 962,420 1539,400 406,-7 0,-293 -171,-520 85,-7 171,0 235,0 470,0 1794,-453 2329,-440 0,80 21,147 277,187 150,73 577,153 1111,200 1154,93 1154,93 -640,533 -3825,893 -3141,87 -3782,53 -1880,-93 -1239,274 -2286,507 -961,193 -107,460 1388,420 3569,-120 -1815,587 -2457,753 -747,213 -3097,313 -3610,180 -2179,-613 -2329,-800 -620,-807zm4658 -2486c-171,-53 -385,-93 -641,-106 213,-20 384,-47 513,-60 576,-100 555,20 128,166zm1452 3193c0,0 0,0 0,0 1688,-47 1197,467 -320,387 -1111,-74 -897,-367 320,-387zm-148348 -16477c22,0 129,-20 279,0 -65,14 -172,14 -279,0zm7906 1300c3012,400 2692,380 2136,447 -171,19 -235,40 -235,73 -449,-113 -1005,-127 -897,106 213,500 -1325,-206 -1068,-526 21,-33 64,-67 64,-100zm2328 680c449,93 1218,207 2286,326 43,7 86,14 107,20 -234,0 -406,34 -406,147 0,347 -1837,-67 -1859,-340 0,-60 -42,-107 -128,-153zm-6174 -4206c-770,-40 406,500 -428,167 -470,-194 -448,-314 -128,-360 150,93 321,146 556,193zm39290 7312c235,-173 406,-427 1111,-713 1517,-574 1474,-1147 -85,-1267 -471,-33 -706,-126 -834,-227 193,-26 406,-39 598,-93 107,-13 192,-40 278,-53 406,167 1175,213 1666,113 1539,-320 1817,-106 684,494 -769,399 1346,-134 1346,366 -22,187 278,287 833,280 1752,0 -1175,-820 193,-806 748,6 -214,193 1089,266 1667,53 641,-413 1709,-200 492,87 364,173 -512,407 -1987,486 -919,1053 -257,1673 -320,133 -42,287 -918,153 -1133,-213 -1175,260 -1688,7 -577,-287 -1282,286 -1282,-47 0,-226 -2328,-366 -3867,-333 -21,-7 -43,-14 -64,-20zm-15447 -16024c-427,-53 -962,-120 -1666,-206 -342,-40 -641,-60 -898,-94 22,-27 22,-60 43,-93 0,-67 470,-87 1111,-53 598,33 1132,240 1410,446zm-2714 -120c22,-7 44,-7 65,-7 897,34 1239,94 1175,214 -43,186 833,340 1602,340 -64,47 -192,73 -363,93 -705,33 363,427 -491,467 -342,20 -641,260 -770,533 -106,-20 -256,-40 -448,-60 -1175,-94 -1197,-886 -1987,-1366 534,40 983,-47 1217,-214zm-11280 -766c427,-60 470,-140 299,-220 86,-7 150,-7 235,0 0,0 0,0 0,0 1496,33 1645,73 1624,420 0,426 -1196,-14 -2179,-160 -64,-7 -107,-14 -171,-27 64,-13 128,-13 192,-13zm9336 3599c22,0 43,0 86,0 106,67 64,153 -256,253 -962,-60 -2030,-86 -2991,-13 -920,53 -2201,-187 -1646,-307 214,-46 43,-173 -384,-306 -171,-47 -321,-120 -449,-187 2115,553 4466,813 4786,560 427,27 769,27 854,0zm3269 133c-321,-160 -1474,-326 -2670,-420 -1090,-320 -1945,-686 -940,-706 0,0 0,0 0,0 448,-7 747,-173 876,-400 128,53 213,127 192,227 0,366 1624,340 2350,199 -64,234 43,467 299,514 428,93 278,426 -107,586zm-19249 507c641,-120 406,-647 -343,-767 -683,-126 -1025,127 -640,507 320,333 406,360 983,260zm-1219 973c493,-193 385,-566 -213,-660 -1389,-246 -876,1073 213,660zm13589 3353c0,-247 4700,873 1517,-433 -1838,-774 -3098,-374 -3098,-720 0,-214 -1581,-534 -2863,-614 -1282,-66 -812,347 577,514 1089,126 2265,639 2265,1013 0,227 1580,386 1602,240zm-22 526c22,-266 -2649,-413 -2649,-593 0,-73 -213,-147 -534,-200 -1111,-153 -470,293 854,580 1859,367 2329,413 2329,213zm7115 1627c1560,-133 1624,-407 107,-400 -1966,0 -2949,-627 -2970,-380 0,233 2350,520 1196,540 -1324,20 -598,426 1667,240zm-1303 733c21,-753 -3184,-513 -2244,-413 1026,113 64,166 919,326 812,113 1346,520 1325,87zm5832 1559c2799,-73 214,-786 1688,-613 1325,167 -192,460 2222,660 2243,167 940,-153 64,-213 -1581,-80 1133,-260 -128,-607 -919,-253 -769,-386 342,-280 1645,154 4743,-426 1004,-386 -6538,-94 -5063,-687 -7969,-653 -1431,-7 -2415,153 -1474,226 961,80 63,387 1495,400 897,7 897,7 21,67 -1303,87 -1239,413 107,446 1389,34 2072,287 150,187 -4123,-233 1303,780 1517,787 107,0 555,-7 961,-21zm-16472 -1286c-491,-213 -449,-253 235,-220 1709,107 -1282,-773 -1282,-106 -21,486 2008,719 1047,326zm24933 2253c21,-73 427,-140 854,-127 1710,47 470,-360 -1602,-533 -1111,-86 -2393,60 -2393,294 0,166 1475,200 1944,33 620,-207 1090,553 1197,333zm-5171 260c-1004,-140 -790,-300 278,-200 1367,127 -384,-33 -363,-193 0,-100 -1581,-347 -1218,106 342,440 2201,407 1303,287zm9657 167c-171,-7 -427,-14 -726,-14 -43,0 -85,0 -128,0 -86,-133 -171,-253 -535,-306 -341,-54 -298,-154 108,-294 42,-6 64,-13 106,-33 214,-13 471,-53 812,-120 214,-40 406,-66 556,-87 256,100 384,187 235,261 -449,246 -555,446 -428,593zm13503 -7952c-21,-13 -43,-40 -43,-54 257,-6 513,-26 791,-40 1922,361 3333,7 3802,-186 278,-20 556,-27 855,-40 -106,20 -256,60 -448,100 -791,153 170,560 -363,700 -641,180 21,-394 -2223,-274 0,0 0,0 0,0 -1666,87 -1752,-146 -2371,-206zm-15276 100c0,20 0,46 0,67 -278,-7 -555,-34 -812,-87 278,26 556,26 812,20zm-21 1846c-22,167 -22,320 0,480 -898,-100 -2051,-213 -2030,-487 0,-126 1132,-53 2030,7zm-22 807c-21,126 0,253 0,379 -1580,-119 -2029,-186 -2029,-306 0,-227 1217,-367 1496,-180 63,53 256,87 533,107zm0 873c0,80 0,153 0,220 -918,-134 -2307,20 -1837,-140 321,-100 1154,-113 1837,-80zm18887 4806c-149,-80 -363,-134 -641,-114 -1004,54 -1068,-413 -342,-446 257,-14 321,-54 299,-100 150,40 407,53 812,0 1752,-187 2543,220 898,473 -492,73 -834,140 -1026,187zm-1901 -860c-65,6 -107,0 -150,6 -1175,60 -1218,-186 -491,-253 341,20 491,140 641,247zm4871 -460c448,-307 470,-673 -193,-607 -2200,120 2671,-1453 2671,-866 -21,286 1239,-20 919,386 -299,387 2777,814 2777,340 0,-173 556,-260 1133,-253 0,20 -22,33 -22,60 -214,333 1004,600 2201,467 1474,-160 1346,200 -299,380 -748,79 -1475,86 -1645,19 -599,-280 -3055,174 -705,281 3054,66 -1624,1019 -1602,226 0,-673 -2672,193 -3697,-320 -428,-213 -1090,-153 -1538,-113zm9934 -2633c-85,-60 -128,-120 -149,-180 149,-33 320,-53 491,-73 363,-47 -21,93 -342,253zm-7200 -2340c0,0 0,0 0,0 -3140,714 -3439,-193 -2221,-33 2435,340 2820,-666 3567,-726 855,-74 -106,480 -1346,759zm-10062 6546c0,0 0,0 0,0 -1923,-20 -3419,286 -3120,633 342,353 -3012,213 -1495,-160 769,-187 171,-533 1645,-580 684,-13 1175,-140 1410,-320 342,-326 1261,-433 1261,-160 -22,240 1944,-120 2221,147 363,320 -106,420 -1922,440zm8802 600c-342,-60 -406,-160 21,-254 2116,-479 -3717,27 -2008,407 662,-46 1325,-107 1987,-153zm-62108 -6966c0,0 0,0 0,0 -1517,-233 -790,-526 -1559,-586 -321,-27 -812,-140 -1176,-273 -876,-300 1239,6 2244,326 3076,887 6986,1720 3717,1240 -128,-13 -256,-27 -384,-47 -150,-87 -599,-166 -1111,-213 -748,-200 -641,-327 -1731,-447zm7200 1200c0,0 0,0 0,0 235,-346 4124,327 1496,280 -1325,-13 -1667,-73 -1496,-280zm23864 140c0,0 0,0 0,0 279,-153 -3161,-413 -3653,-266 -448,133 -1666,39 -491,-154 1025,-193 684,-580 -492,-553 -982,0 -2393,-460 535,-80 2948,300 4999,200 4999,620 0,327 1068,300 726,493 -299,160 -2029,133 -1624,-60zm-1965 -1220c0,0 0,0 0,0 64,-106 -85,-833 1026,-773 918,60 1111,240 320,313 -705,54 449,840 -662,694 -428,-54 -705,-154 -684,-234zm-10169 -7985c683,34 1324,100 256,167 -22,0 -43,0 -43,0 -85,-53 -149,-114 -213,-167zm-16088 -5519c0,0 0,0 0,0 1453,220 -1368,307 -2778,-246 -385,-147 1175,-7 2778,246zm68431 3486c0,0 0,0 0,0 2650,-320 -256,580 -1709,627 -1303,40 -21,-434 1709,-627zm-22817 26055c-342,14 -726,7 -1175,20 0,7 0,7 0,7 0,147 748,107 1453,80 -65,-27 -150,-60 -278,-107zm-12392 -80c-555,-6 -983,0 -1303,0 -214,40 -342,100 -406,167 406,153 812,293 1217,433 0,34 65,60 193,87 64,13 107,26 150,26 363,67 1025,94 1431,21 150,-34 257,-80 299,-121 0,0 0,0 0,0 0,0 0,0 0,0 21,-13 43,-19 43,-46 0,0 0,0 0,0 0,0 0,0 0,0 0,-213 -791,-460 -1624,-567zm-10383 1567c-1047,86 -2030,180 -1774,373 128,100 22,200 -235,267 2094,446 3782,33 2009,-640zm-6238 446c-855,-20 -1625,27 -1625,140 0,0 -21,7 -42,14 619,-7 1239,-60 1667,-154zm26235 -1653c150,34 321,74 492,107 85,-53 -43,-87 -492,-107zm-299 307c-1175,0 -3375,60 -4037,-160 -513,-187 -343,106 -1518,153 -42,0 -64,0 -64,0 193,34 406,60 620,74 1624,126 1345,453 -278,353 -22,6 -43,6 -64,0 42,180 1132,220 1603,6 277,-126 -299,487 320,494 684,6 406,-300 1068,-347 -85,-26 -43,-60 43,-93 -278,-47 -577,-100 -577,-167 0,-146 1688,47 1325,-93 -171,-67 320,-93 918,-100 214,-47 449,-80 641,-120zm1133 280c256,13 641,13 940,-7 -299,-6 -620,0 -940,7zm1538 -187c0,-20 0,-60 -21,-86 -44,-34 -44,-67 -44,-100 -405,33 -704,73 -704,139 0,47 321,61 769,47zm-5320 1986c0,0 0,0 0,0 -2478,-26 -321,-739 -2393,-886 -1004,-93 -1068,-313 -1431,-313 -769,6 -1838,-133 -2863,-267 -599,160 -962,420 -1538,400 -406,-7 0,-293 170,-520 -85,-7 -170,0 -234,0 -471,0 -1795,-453 -2330,-440 0,80 -21,147 -277,187 -149,73 -577,153 -1111,200 -1154,93 -1154,93 641,533 3824,893 3141,87 3781,53 1880,-93 1240,274 2286,507 962,193 107,460 -1388,420 -3568,-120 1816,587 2457,753 748,213 3097,313 3610,180 2180,-613 2329,-800 620,-807zm-4657 -2486c171,-53 384,-93 640,-106 -213,-20 -384,-47 -512,-60 -577,-100 -556,20 -128,166zm-1453 3193c0,0 0,0 0,0 -1688,-47 -1197,467 320,387 1111,-74 897,-367 -320,-387zm-20853 393c0,0 0,0 0,0 -705,-240 -3098,-560 -3098,-426 0,433 5299,1146 3098,426zm-17497 -7025c106,40 192,87 278,147 1431,766 3076,640 2051,366 -770,-140 -1389,-280 -1796,-380 -192,-53 -362,-86 -533,-133z"/>
  <path id="calcao_contorno" fill="none" d="M69622 5532c-9320,-113 -15317,-100 -21532,-475 -6215,-375 -12649,-1137 -18001,-2044 -5351,-908 -9620,-1960 -13890,-3013l-2056 6766c-2101,6050 -3233,10386 -4916,16285 -249,873 -435,1453 -642,2333 -2360,10025 -4550,19989 -6162,30214 -554,3516 -787,7435 -1226,10942l-435 5757c-45,1830 -234,3899 -370,5626 -78,987 9,2192 -3,3205 -13,1158 -208,1511 -203,2794 9,2038 69,4202 11,6226 -28,1013 -181,1575 -197,2723l192 9099c-30,8303 172,15985 183,24267 2,1267 207,1666 202,2996 -4,925 -65,2104 5,3001 131,1645 218,4048 519,5469 1056,4985 5703,6849 10073,7859 3312,766 6714,1111 10138,1576 4010,545 19376,399 23493,-86 6450,-761 15507,-276 22162,-1971 7272,-1853 6398,-2822 7435,-7425 870,-3869 2219,-13998 3169,-16919 807,-2484 1721,-7868 2195,-10524 344,-1990 1133,-3678 1718,-5612 1344,-4441 1694,-7626 2920,-12169 377,-1398 722,-2380 1102,-3854 997,-3864 2190,-8249 2968,-12117 575,-2856 1095,-5360 1653,-8289l2191 -12734c189,-998 230,-2248 1182,-2596 952,348 993,1598 1182,2596l2191 12734c558,2929 1077,5433 1652,8289 779,3868 1972,8253 2968,12117 380,1474 725,2456 1103,3854 1226,4543 1576,7728 2919,12169 585,1934 1375,3622 1719,5612 473,2654 1389,8042 2195,10524 949,2921 2299,13050 3169,16919 1037,4603 163,5572 7434,7425 6656,1695 15712,1210 22163,1971 4117,485 19483,631 23492,86 3425,-465 6827,-810 10138,-1576 4371,-1010 9018,-2874 10074,-7859 301,-1421 388,-3824 519,-5469 70,-897 9,-2076 5,-3001 -5,-1330 200,-1729 202,-2996 11,-8282 213,-15964 183,-24267l191 -8764 -196 -3058c-58,-2024 2,-4188 11,-6226 4,-1283 -190,-1636 -204,-2794 -11,-1013 76,-2218 -2,-3205 -136,-1727 -325,-3796 -370,-5626l-436 -5757c-439,-3507 -671,-7426 -1225,-10942 -1612,-10225 -3802,-20189 -6162,-30214 -207,-880 -394,-1460 -643,-2333 -1682,-5899 -2814,-10235 -4915,-16285l-2057 -6766c-2951,866 -5902,1731 -9677,2477 -3774,745 -8371,1369 -13806,1869 -5434,500 -11706,875 -19026,1150 -7321,274 -15692,449 -26199,418 -10507,-31 -23150,-269 -32470,-382z"/>
 </g>
</svg>
