<?xml version="1.0" encoding="UTF-8"?>
<!DOCTYPE svg PUBLIC "-//W3C//DTD SVG 1.1//EN" "http://www.w3.org/Graphics/SVG/1.1/DTD/svg11.dtd">
<!-- Creator: CorelDRAW -->
<svg xmlns="http://www.w3.org/2000/svg" xml:space="preserve" width="181px" height="149px" version="1.1" shape-rendering="geometricPrecision" text-rendering="geometricPrecision" image-rendering="optimizeQuality" fill-rule="evenodd" clip-rule="evenodd"
viewBox="0 0 205.498 169.387"
 xmlns:xlink="http://www.w3.org/1999/xlink"
 xmlns:xodm="http://www.corel.com/coreldraw/odm/2003">
 <defs>
   <clipPath id="id0">
    <path d="M91.234 163.341c0.06,-0.29 0.117,-0.718 0.209,-2.252 0.091,-1.534 0.216,-4.174 0.518,-9.369 0.303,-5.195 0.782,-12.944 1.164,-18.604 0.382,-5.659 0.667,-9.229 1.038,-13.175 0.37,-3.946 0.826,-8.268 1.397,-12.773 0.57,-4.505 1.254,-9.192 2.132,-14.518 0.879,-5.326 1.95,-11.291 2.766,-15.197 0.815,-3.906 1.374,-5.753 1.733,-6.921 0.358,-1.167 0.516,-1.655 0.64,-1.921 0.123,-0.267 0.212,-0.313 0.296,-0.305 0.084,0.008 0.164,0.069 0.266,0.183 0.103,0.113 0.228,0.278 0.391,0.627 0.163,0.349 0.362,0.88 0.684,1.602 0.321,0.721 0.764,1.632 1.146,2.525 0.381,0.893 0.7,1.768 0.836,2.443 0.135,0.674 0.087,1.147 0.127,1.679 0.04,0.532 0.168,1.122 0.504,1.619 0.337,0.498 0.881,0.903 1.195,1.44 0.314,0.538 0.396,1.208 0.602,2.158 0.205,0.951 0.533,2.183 0.646,3.113 0.112,0.929 0.009,1.556 -0.098,2.148 -0.106,0.591 -0.218,1.148 -0.101,1.705 0.117,0.557 0.462,1.116 0.865,1.635 0.404,0.519 0.866,0.998 1.149,1.313 0.284,0.315 0.39,0.466 0.491,0.609 0.101,0.142 0.198,0.276 0.351,0.879 0.152,0.603 0.36,1.675 0.439,2.419 0.078,0.745 0.027,1.161 -0.003,1.576 -0.03,0.415 -0.039,0.828 -0.073,1.354 -0.034,0.526 -0.094,1.165 -0.085,1.751 0.008,0.586 0.085,1.119 0.46,1.91 0.375,0.791 1.048,1.84 1.685,2.689 0.637,0.848 1.239,1.495 1.643,1.902 0.404,0.407 0.611,0.574 0.797,0.87 0.186,0.296 0.351,0.72 0.488,1.263 0.137,0.544 0.246,1.205 0.304,1.972 0.058,0.767 0.067,1.64 0.054,2.608 -0.013,0.968 -0.047,2.031 0.15,2.999 0.197,0.968 0.624,1.84 1.101,2.577 0.476,0.738 1,1.339 1.389,1.826 0.39,0.488 0.644,0.862 0.856,1.23 0.213,0.367 0.384,0.729 0.555,1.154 0.171,0.425 0.342,0.913 0.472,1.479 0.13,0.566 0.218,1.21 0.339,1.795 0.121,0.584 0.275,1.108 0.375,1.699 0.1,0.59 0.145,1.246 0.32,2.204 0.174,0.958 0.476,2.218 0.678,3.273 0.203,1.055 0.305,1.904 0.416,2.657 0.112,0.753 0.231,1.409 0.325,2.284 0.094,0.875 0.163,1.97 0.294,2.774 0.131,0.804 0.325,1.317 0.465,2.09 0.14,0.772 0.225,1.805 0.299,2.412 0.074,0.607 0.137,0.79 0.288,0.952 0.104,0.112 0.251,0.215 0.437,0.32 -0.079,-0.368 -0.154,-0.732 -0.127,-0.999 0.028,-0.278 0.168,-0.45 0.332,-0.556 0.164,-0.105 0.352,-0.145 0.75,-0.063 0.398,0.082 1.007,0.284 1.729,0.399 0.723,0.115 1.56,0.144 2.868,0.151 1.309,0.007 3.089,-0.007 5.568,-0.327 2.479,-0.319 5.657,-0.943 8.788,-1.599 3.132,-0.656 6.217,-1.344 9.657,-2.107 3.44,-0.762 7.234,-1.599 10.248,-2.124 3.014,-0.525 5.249,-0.737 8.16,-0.854 2.912,-0.118 6.502,-0.139 10.137,0.024 3.635,0.163 7.316,0.511 9.976,0.862 2.66,0.351 4.298,0.706 5.688,1.227 1.391,0.522 2.533,1.21 3.226,1.734 0.693,0.524 0.938,0.884 1.054,1.193 0.116,0.309 0.104,0.568 -0.007,0.887 -0.11,0.319 -0.318,0.698 -0.526,1.077 0.192,-0.063 0.354,-0.202 0.566,-0.399 0.232,-0.218 0.523,-0.509 0.64,-0.957 0.116,-0.447 0.059,-1.052 0.065,-2.577 0.006,-1.525 0.074,-3.972 0.052,-6.694 -0.023,-2.724 -0.137,-5.723 -0.194,-7.553 -0.057,-1.831 -0.057,-2.492 -0.057,-3.427 0,-0.936 0,-2.144 -0.029,-3.276 -0.028,-1.132 -0.085,-2.187 -0.111,-3.279 -0.025,-1.092 -0.02,-2.221 -0.091,-4.009 -0.072,-1.787 -0.22,-4.234 -0.3,-6.212 -0.079,-1.979 -0.091,-3.49 -0.231,-7.51 -0.139,-4.02 -0.407,-10.55 -0.929,-16.996 -0.522,-6.446 -1.297,-12.81 -2.278,-18.854 -0.981,-6.045 -2.167,-11.77 -3.341,-17.21 -1.175,-5.44 -2.338,-10.594 -3.867,-15.864 -1.528,-5.268 -3.421,-10.651 -5.246,-15.498 -1.824,-4.847 -3.581,-9.158 -4.618,-11.657 -1.038,-2.499 -1.357,-3.186 -1.494,-3.631 -0.137,-0.445 -0.092,-0.647 0.009,-0.803 0.102,-0.155 0.258,-0.263 0.386,-0.349 0.014,-0.01 0.028,-0.019 0.041,-0.029 -0.042,-0.002 -0.088,-0.005 -0.144,-0.008 -0.105,-0.005 -0.243,-0.013 -0.693,-0.048 -0.449,-0.035 -1.21,-0.098 -2.217,-0.107 -1.008,-0.008 -2.262,0.038 -3.577,0.132 -1.316,0.095 -2.692,0.24 -4.839,0.609 -2.148,0.368 -5.068,0.962 -7.478,1.498 -2.41,0.535 -4.311,1.014 -6.805,1.509 -2.494,0.494 -5.581,1.003 -8.679,1.418 -3.098,0.414 -6.208,0.733 -9.971,1.076 -3.764,0.341 -8.181,0.707 -11.872,0.965 -3.692,0.259 -6.657,0.41 -9.367,0.559 -2.711,0.148 -5.167,0.292 -7.957,0.403 -2.79,0.11 -5.915,0.186 -9.017,0.251 -3.102,0.064 -6.181,0.117 -9.116,0.11 -2.935,-0.008 -5.725,-0.076 -8.341,-0.137 -2.615,-0.061 -5.056,-0.114 -7.698,-0.194 -2.642,-0.08 -5.486,-0.186 -8.975,-0.285 -3.49,-0.099 -7.626,-0.19 -12.01,-0.217 -4.383,-0.026 -9.013,0.012 -12.845,0.008 -3.832,-0.004 -6.865,-0.049 -10.876,-0.205 -4.011,-0.156 -8.998,-0.422 -12.585,-0.69 -3.587,-0.268 -5.773,-0.538 -7.362,-0.856 -1.59,-0.318 -2.583,-0.683 -3.577,-1.049 0.044,0.064 0.021,0.188 -0.027,0.625 -0.062,0.551 -0.164,1.597 -0.449,3.521 -0.286,1.925 -0.753,4.728 -1.058,6.779 -0.305,2.052 -0.448,3.352 -0.79,5.493 -0.342,2.141 -0.884,5.124 -1.32,7.752 -0.436,2.629 -0.767,4.904 -1.029,6.823 -0.263,1.919 -0.457,3.481 -0.636,5.294 -0.18,1.814 -0.345,3.878 -0.525,6.376 -0.18,2.497 -0.373,5.428 -0.567,8.701 -0.194,3.273 -0.388,6.888 -0.53,10.743 -0.143,3.855 -0.234,7.949 -0.206,12.14 0.029,4.192 0.177,8.48 0.468,12.648 0.291,4.169 0.724,8.217 1.009,11.855 0.285,3.638 0.422,6.865 0.485,10.435 0.063,3.57 0.051,7.481 0.091,11.969 0.04,4.488 0.131,9.552 0.223,13.777 0.091,4.225 0.182,7.612 0.266,9.945 0.084,2.332 0.162,3.609 0.193,4.373 0.031,0.764 0.017,1.015 0.027,2.23 0.01,1.214 0.044,3.393 0.078,4.946 0.035,1.554 0.069,2.484 0.137,3.037 0.068,0.553 0.171,0.73 0.482,1.055 0.311,0.325 0.83,0.798 2.632,1.177 1.802,0.38 4.886,0.665 7.829,0.918 2.942,0.254 5.742,0.476 10.492,0.73 4.75,0.254 11.451,0.539 16.4,0.753 4.95,0.214 8.149,0.356 10.954,0.382 2.806,0.026 5.218,-0.066 7.656,-0.143 2.438,-0.077 4.901,-0.139 7.25,-0.216 2.35,-0.077 4.585,-0.168 7.735,-0.565 3.151,-0.396 7.217,-1.098 9.757,-1.616 2.54,-0.519 3.556,-0.856 4.448,-1.309 0.892,-0.453 1.662,-1.024 2.078,-1.386 0.417,-0.362 0.479,-0.516 0.539,-0.807z"/>
   </clipPath>
    <clipPath id="id1">
     <path d="M126.868 7.208c-3.692,0.259 -6.657,0.41 -9.367,0.559 -2.711,0.148 -5.167,0.292 -7.957,0.403 -2.79,0.11 -5.915,0.186 -9.017,0.251l-0.168 0.003 -0.203 0.004 -0.658 0.014 -0.07 0.001 -0.359 0.007 -0.209 0.004 -0.131 0.003 -0.253 0.004 -0.26 0.005 -0.531 0.009 -0.079 0.002 -0.276 0.004 -0.23 0.004 -0.357 0.006 -0.115 0.002 -0.088 0.001 -0.101 0.001 -0.118 0.002 -0.783 0.01 -0.066 0.001c0.077,0.533 0.157,1.09 0.241,1.678 0.521,3.612 1.205,8.363 1.612,11.976 0.408,3.612 0.539,6.086 1.088,9.846 0.549,3.758 1.516,8.803 2.362,13.439 0.846,4.636 1.571,8.864 2.128,11.482 0.557,2.618 0.946,3.625 1.265,4.398 0.319,0.772 0.568,1.31 0.72,1.7 0.152,0.39 0.206,0.631 0.184,0.807 -0.021,0.175 -0.12,0.285 -0.256,0.446 -0.135,0.161 -0.307,0.373 -0.481,0.599 -0.173,0.226 -0.349,0.466 -0.581,1.057 -0.233,0.592 -0.523,1.535 -0.813,2.478l0.001 -0.001c0.014,-0.019 0.028,-0.034 0.041,-0.047l0.006 -0.006 0.009 -0.009 0.004 -0.004 0.005 -0.003 0.011 -0.008 0.001 -0.001 0.023 -0.014 0.005 -0.002 0.001 -0.001 0.01 -0.004 0.022 -0.006 0.001 0 0.004 0 0.003 -0.001 0.005 -0.001 0.007 0 0.002 0 0.005 -0.001 0.004 0 0.005 0.001 0.003 0 0.004 0 0.004 0c0.084,0.008 0.164,0.069 0.266,0.183 0.103,0.113 0.228,0.278 0.391,0.627 0.163,0.349 0.362,0.88 0.684,1.602 0.321,0.721 0.764,1.632 1.146,2.525 0.381,0.893 0.7,1.768 0.836,2.443 0.135,0.674 0.087,1.147 0.127,1.679 0.04,0.532 0.168,1.122 0.504,1.619 0.337,0.498 0.881,0.903 1.195,1.44 0.314,0.538 0.396,1.208 0.602,2.158 0.205,0.951 0.533,2.183 0.646,3.113 0.112,0.929 0.009,1.556 -0.098,2.148 -0.106,0.591 -0.218,1.148 -0.101,1.705 0.117,0.557 0.462,1.116 0.865,1.635 0.404,0.519 0.866,0.998 1.149,1.313 0.284,0.315 0.39,0.466 0.491,0.609 0.101,0.142 0.198,0.276 0.351,0.879 0.152,0.603 0.36,1.675 0.439,2.419 0.078,0.745 0.027,1.161 -0.003,1.576 -0.03,0.415 -0.039,0.828 -0.073,1.354 -0.034,0.526 -0.094,1.165 -0.085,1.751 0.008,0.586 0.085,1.119 0.46,1.91 0.375,0.791 1.048,1.84 1.685,2.689 0.637,0.848 1.239,1.495 1.643,1.902 0.404,0.407 0.611,0.574 0.797,0.87 0.186,0.296 0.351,0.72 0.488,1.263 0.137,0.544 0.246,1.205 0.304,1.972 0.058,0.767 0.067,1.64 0.054,2.608 -0.013,0.968 -0.047,2.031 0.15,2.999 0.197,0.968 0.624,1.84 1.101,2.577 0.476,0.738 1,1.339 1.389,1.826 0.39,0.488 0.644,0.862 0.856,1.23 0.213,0.367 0.384,0.729 0.555,1.154 0.171,0.425 0.342,0.913 0.472,1.479 0.13,0.566 0.218,1.21 0.339,1.795 0.121,0.584 0.275,1.108 0.375,1.699 0.1,0.59 0.145,1.246 0.32,2.204 0.174,0.958 0.476,2.218 0.678,3.273 0.203,1.055 0.305,1.904 0.416,2.657 0.112,0.753 0.231,1.409 0.325,2.284 0.094,0.875 0.163,1.97 0.294,2.774 0.131,0.804 0.325,1.317 0.465,2.09 0.14,0.772 0.225,1.805 0.299,2.412 0.074,0.607 0.137,0.79 0.288,0.952l0.005 0.005 0.005 0.006 0.005 0.005 0.01 0.01 0.006 0.005 0.015 0.016 0.012 0.01 0.005 0.005 0.006 0.005 0.005 0.006 0.006 0.005 0.012 0.01 0.012 0.01 0.006 0.005 0.006 0.005 0.013 0.01 0.006 0.005 0.019 0.015 0.007 0.005 0.007 0.005 0.02 0.015 0.007 0.005 0.007 0.005 0.028 0.02 0.014 0.009 0.008 0.005 0.015 0.01 0.015 0.01 0.015 0.01 0.008 0.005 0.016 0.009 0.008 0.005 0.008 0.005 0.016 0.01 0.016 0.01 0.025 0.014 0.009 0.006 0.008 0.004 0.009 0.005 0.009 0.005 0.008 0.005c-0.079,-0.368 -0.154,-0.732 -0.127,-0.999 0.028,-0.278 0.168,-0.45 0.332,-0.556 0.164,-0.105 0.352,-0.145 0.75,-0.063 0.398,0.082 1.007,0.284 1.729,0.399 0.723,0.115 1.56,0.144 2.868,0.151 1.309,0.007 3.089,-0.007 5.568,-0.327 2.479,-0.319 5.657,-0.943 8.788,-1.599 3.132,-0.656 6.217,-1.344 9.657,-2.107 3.44,-0.762 7.234,-1.599 10.248,-2.124 3.014,-0.525 5.249,-0.737 8.16,-0.854 2.912,-0.118 6.502,-0.139 10.137,0.024 3.635,0.163 7.316,0.511 9.976,0.862 2.66,0.351 4.298,0.706 5.688,1.227 1.391,0.522 2.533,1.21 3.226,1.734 0.693,0.524 0.938,0.884 1.054,1.193 0.116,0.309 0.104,0.568 -0.007,0.887l-0.005 0.015 -0.011 0.031 -0.006 0.015 -0.011 0.031 -0.012 0.03 -0.02 0.048 -0.006 0.015 -0.014 0.033 -0.014 0.032 -0.008 0.016 -0.022 0.049 -0.015 0.033 -0.008 0.017 -0.032 0.067 -0.008 0.016 -0.026 0.051 -0.017 0.034 -0.017 0.035 -0.018 0.034 -0.055 0.104c-0.064,0.123 -0.132,0.246 -0.201,0.371l0.036 -0.012 0.026 -0.011 0.017 -0.008 0.026 -0.012 0.026 -0.013 0.009 -0.005 0.025 -0.014 0.025 -0.016 0.017 -0.01 0.026 -0.018c0.059,-0.04 0.119,-0.088 0.182,-0.143l0.092 -0.083 0.039 -0.036 0.01 -0.009 0.01 -0.009c0.232,-0.218 0.523,-0.509 0.64,-0.957 0.116,-0.447 0.059,-1.052 0.065,-2.577 0.006,-1.525 0.074,-3.972 0.052,-6.694 -0.023,-2.724 -0.137,-5.723 -0.194,-7.553 -0.057,-1.831 -0.057,-2.492 -0.057,-3.427 0,-0.936 0,-2.144 -0.029,-3.276 -0.028,-1.132 -0.085,-2.187 -0.111,-3.279 -0.025,-1.092 -0.02,-2.221 -0.091,-4.009 -0.072,-1.787 -0.22,-4.234 -0.3,-6.212 -0.079,-1.979 -0.091,-3.49 -0.231,-7.51 -0.139,-4.02 -0.407,-10.55 -0.929,-16.996 -0.522,-6.446 -1.297,-12.81 -2.278,-18.854 -0.981,-6.045 -2.167,-11.77 -3.341,-17.21 -1.175,-5.44 -2.338,-10.594 -3.867,-15.864 -1.528,-5.268 -3.421,-10.651 -5.246,-15.498 -1.824,-4.847 -3.581,-9.158 -4.618,-11.657 -1.038,-2.499 -1.357,-3.186 -1.494,-3.631 -0.137,-0.445 -0.092,-0.647 0.009,-0.803 0.102,-0.155 0.258,-0.263 0.386,-0.349 0.014,-0.01 0.028,-0.019 0.041,-0.029 -0.042,-0.002 -0.088,-0.005 -0.144,-0.008 -0.105,-0.005 -0.243,-0.013 -0.693,-0.048 -0.449,-0.035 -1.21,-0.098 -2.217,-0.107 -1.008,-0.008 -2.262,0.038 -3.577,0.132 -1.316,0.095 -2.692,0.24 -4.839,0.609 -2.148,0.368 -5.068,0.962 -7.478,1.498 -2.41,0.535 -4.311,1.014 -6.805,1.509 -2.494,0.494 -5.581,1.003 -8.679,1.418 -3.098,0.414 -6.208,0.733 -9.971,1.076 -3.764,0.341 -8.181,0.707 -11.872,0.965z"/>
    </clipPath>
    <clipPath id="id2">
     <path d="M91.234 163.341c0.06,-0.29 0.117,-0.718 0.209,-2.252 0.091,-1.534 0.216,-4.174 0.518,-9.369 0.303,-5.195 0.782,-12.944 1.164,-18.604 0.382,-5.659 0.667,-9.229 1.038,-13.175 0.37,-3.946 0.826,-8.268 1.397,-12.773 0.57,-4.505 1.254,-9.192 2.132,-14.518 0.879,-5.326 1.95,-11.291 2.766,-15.197 0.815,-3.906 1.374,-5.753 1.733,-6.921 0.358,-1.167 0.516,-1.655 0.64,-1.921 0.123,-0.267 0.212,-0.313 0.296,-0.305 0.084,0.008 0.164,0.069 0.266,0.183 0.103,0.113 0.228,0.278 0.391,0.627 0.163,0.349 0.362,0.88 0.684,1.602 0.321,0.721 0.764,1.632 1.146,2.525 0.381,0.893 0.7,1.768 0.836,2.443 0.135,0.674 0.087,1.147 0.127,1.679 0.04,0.532 0.168,1.122 0.504,1.619 0.337,0.498 0.881,0.903 1.195,1.44 0.314,0.538 0.396,1.208 0.602,2.158 0.205,0.951 0.533,2.183 0.646,3.113 0.112,0.929 0.009,1.556 -0.098,2.148 -0.106,0.591 -0.218,1.148 -0.101,1.705 0.117,0.557 0.462,1.116 0.865,1.635 0.404,0.519 0.866,0.998 1.149,1.313 0.284,0.315 0.39,0.466 0.491,0.609 0.101,0.142 0.198,0.276 0.351,0.879 0.152,0.603 0.36,1.675 0.439,2.419 0.078,0.745 0.027,1.161 -0.003,1.576 -0.03,0.415 -0.039,0.828 -0.073,1.354 -0.034,0.526 -0.094,1.165 -0.085,1.751 0.008,0.586 0.085,1.119 0.46,1.91 0.375,0.791 1.048,1.84 1.685,2.689 0.637,0.848 1.239,1.495 1.643,1.902 0.404,0.407 0.611,0.574 0.797,0.87 0.186,0.296 0.351,0.72 0.488,1.263 0.137,0.544 0.246,1.205 0.304,1.972 0.058,0.767 0.067,1.64 0.054,2.608 -0.013,0.968 -0.047,2.031 0.15,2.999 0.197,0.968 0.624,1.84 1.101,2.577 0.476,0.738 1,1.339 1.389,1.826 0.39,0.488 0.644,0.862 0.856,1.23 0.213,0.367 0.384,0.729 0.555,1.154 0.171,0.425 0.342,0.913 0.472,1.479 0.13,0.566 0.218,1.21 0.339,1.795 0.121,0.584 0.275,1.108 0.375,1.699 0.1,0.59 0.145,1.246 0.32,2.204 0.174,0.958 0.476,2.218 0.678,3.273 0.203,1.055 0.305,1.904 0.416,2.657 0.112,0.753 0.231,1.409 0.325,2.284 0.094,0.875 0.163,1.97 0.294,2.774 0.131,0.804 0.325,1.317 0.465,2.09 0.14,0.772 0.225,1.805 0.299,2.412 0.074,0.607 0.137,0.79 0.288,0.952 0.104,0.112 0.251,0.215 0.437,0.32 -0.079,-0.368 -0.154,-0.732 -0.127,-0.999 0.028,-0.278 0.168,-0.45 0.332,-0.556 0.164,-0.105 0.352,-0.145 0.75,-0.063 0.398,0.082 1.007,0.284 1.729,0.399 0.723,0.115 1.56,0.144 2.868,0.151 1.309,0.007 3.089,-0.007 5.568,-0.327 2.479,-0.319 5.657,-0.943 8.788,-1.599 3.132,-0.656 6.217,-1.344 9.657,-2.107 3.44,-0.762 7.234,-1.599 10.248,-2.124 3.014,-0.525 5.249,-0.737 8.16,-0.854 2.912,-0.118 6.502,-0.139 10.137,0.024 3.635,0.163 7.316,0.511 9.976,0.862 2.66,0.351 4.298,0.706 5.688,1.227 1.391,0.522 2.533,1.21 3.226,1.734 0.693,0.524 0.938,0.884 1.054,1.193 0.116,0.309 0.104,0.568 -0.007,0.887 -0.11,0.319 -0.318,0.698 -0.526,1.077 0.192,-0.063 0.354,-0.202 0.566,-0.399 0.232,-0.218 0.523,-0.509 0.64,-0.957 0.116,-0.447 0.059,-1.052 0.065,-2.577 0.006,-1.525 0.074,-3.972 0.052,-6.694 -0.023,-2.724 -0.137,-5.723 -0.194,-7.553 -0.057,-1.831 -0.057,-2.492 -0.057,-3.427 0,-0.936 0,-2.144 -0.029,-3.276 -0.028,-1.132 -0.085,-2.187 -0.111,-3.279 -0.025,-1.092 -0.02,-2.221 -0.091,-4.009 -0.072,-1.787 -0.22,-4.234 -0.3,-6.212 -0.079,-1.979 -0.091,-3.49 -0.231,-7.51 -0.139,-4.02 -0.407,-10.55 -0.929,-16.996 -0.522,-6.446 -1.297,-12.81 -2.278,-18.854 -0.981,-6.045 -2.167,-11.77 -3.341,-17.21 -1.175,-5.44 -2.338,-10.594 -3.867,-15.864 -1.528,-5.268 -3.421,-10.651 -5.246,-15.498 -1.824,-4.847 -3.581,-9.158 -4.618,-11.657 -1.038,-2.499 -1.357,-3.186 -1.494,-3.631 -0.137,-0.445 -0.092,-0.647 0.009,-0.803 0.102,-0.155 0.258,-0.263 0.386,-0.349 0.014,-0.01 0.028,-0.019 0.041,-0.029 -0.042,-0.002 -0.088,-0.005 -0.144,-0.008 -0.105,-0.005 -0.243,-0.013 -0.693,-0.048 -0.449,-0.035 -1.21,-0.098 -2.217,-0.107 -1.008,-0.008 -2.262,0.038 -3.577,0.132 -1.316,0.095 -2.692,0.24 -4.839,0.609 -2.148,0.368 -5.068,0.962 -7.478,1.498 -2.41,0.535 -4.311,1.014 -6.805,1.509 -2.494,0.494 -5.581,1.003 -8.679,1.418 -3.098,0.414 -6.208,0.733 -9.971,1.076 -3.764,0.341 -8.181,0.707 -11.872,0.965 -3.692,0.259 -6.657,0.41 -9.367,0.559 -2.711,0.148 -5.167,0.292 -7.957,0.403 -2.79,0.11 -5.915,0.186 -9.017,0.251 -3.102,0.064 -6.181,0.117 -9.116,0.11 -2.935,-0.008 -5.725,-0.076 -8.341,-0.137 -2.615,-0.061 -5.056,-0.114 -7.698,-0.194 -2.642,-0.08 -5.486,-0.186 -8.975,-0.285 -3.49,-0.099 -7.626,-0.19 -12.01,-0.217 -4.383,-0.026 -9.013,0.012 -12.845,0.008 -3.832,-0.004 -6.865,-0.049 -10.876,-0.205 -4.011,-0.156 -8.998,-0.422 -12.585,-0.69 -3.587,-0.268 -5.773,-0.538 -7.362,-0.856 -1.59,-0.318 -2.583,-0.683 -3.577,-1.049 0.044,0.064 0.021,0.188 -0.027,0.625 -0.062,0.551 -0.164,1.597 -0.449,3.521 -0.286,1.925 -0.753,4.728 -1.058,6.779 -0.305,2.052 -0.448,3.352 -0.79,5.493 -0.342,2.141 -0.884,5.124 -1.32,7.752 -0.436,2.629 -0.767,4.904 -1.029,6.823 -0.263,1.919 -0.457,3.481 -0.636,5.294 -0.18,1.814 -0.345,3.878 -0.525,6.376 -0.18,2.497 -0.373,5.428 -0.567,8.701 -0.194,3.273 -0.388,6.888 -0.53,10.743 -0.143,3.855 -0.234,7.949 -0.206,12.14 0.029,4.192 0.177,8.48 0.468,12.648 0.291,4.169 0.724,8.217 1.009,11.855 0.285,3.638 0.422,6.865 0.485,10.435 0.063,3.57 0.051,7.481 0.091,11.969 0.04,4.488 0.131,9.552 0.223,13.777 0.091,4.225 0.182,7.612 0.266,9.945 0.084,2.332 0.162,3.609 0.193,4.373 0.031,0.764 0.017,1.015 0.027,2.23 0.01,1.214 0.044,3.393 0.078,4.946 0.035,1.554 0.069,2.484 0.137,3.037 0.068,0.553 0.171,0.73 0.482,1.055 0.311,0.325 0.83,0.798 2.632,1.177 1.802,0.38 4.886,0.665 7.829,0.918 2.942,0.254 5.742,0.476 10.492,0.73 4.75,0.254 11.451,0.539 16.4,0.753 4.95,0.214 8.149,0.356 10.954,0.382 2.806,0.026 5.218,-0.066 7.656,-0.143 2.438,-0.077 4.901,-0.139 7.25,-0.216 2.35,-0.077 4.585,-0.168 7.735,-0.565 3.151,-0.396 7.217,-1.098 9.757,-1.616 2.54,-0.519 3.556,-0.856 4.448,-1.309 0.892,-0.453 1.662,-1.024 2.078,-1.386 0.417,-0.362 0.479,-0.516 0.539,-0.807z"/>
    </clipPath>
    <clipPath id="id3">
     <path d="M66.397 7.915c-3.49,-0.099 -7.626,-0.19 -12.01,-0.217 -4.383,-0.026 -9.013,0.012 -12.845,0.008 -3.832,-0.004 -6.865,-0.049 -10.876,-0.205 -4.011,-0.156 -8.998,-0.422 -12.585,-0.69 -3.587,-0.268 -5.773,-0.538 -7.362,-0.856 -1.59,-0.318 -2.583,-0.683 -3.577,-1.049 0.044,0.064 0.021,0.188 -0.027,0.625 -0.062,0.551 -0.164,1.597 -0.449,3.521 -0.286,1.925 -0.753,4.728 -1.058,6.779 -0.305,2.052 -0.448,3.352 -0.79,5.493 -0.342,2.141 -0.884,5.124 -1.32,7.752 -0.436,2.629 -0.767,4.904 -1.029,6.823 -0.263,1.919 -0.457,3.481 -0.636,5.294 -0.18,1.814 -0.345,3.878 -0.525,6.376 -0.18,2.497 -0.373,5.428 -0.567,8.701 -0.194,3.273 -0.388,6.888 -0.53,10.743 -0.143,3.855 -0.234,7.949 -0.206,12.14 0.029,4.192 0.177,8.48 0.468,12.648 0.291,4.169 0.724,8.217 1.009,11.855 0.285,3.638 0.422,6.865 0.485,10.435 0.063,3.57 0.051,7.481 0.091,11.969 0.04,4.488 0.131,9.552 0.223,13.777 0.091,4.225 0.182,7.612 0.266,9.945 0.084,2.332 0.162,3.609 0.193,4.373 0.031,0.764 0.017,1.015 0.027,2.23 0.01,1.214 0.044,3.393 0.078,4.946 0.035,1.554 0.069,2.484 0.137,3.037 0.068,0.553 0.171,0.73 0.482,1.055 0.311,0.325 0.83,0.798 2.632,1.177 1.802,0.38 4.886,0.665 7.829,0.918 2.942,0.254 5.742,0.476 10.492,0.73 4.75,0.254 11.451,0.539 16.4,0.753 4.95,0.214 8.149,0.356 10.954,0.382 2.806,0.026 5.218,-0.066 7.656,-0.143 2.438,-0.077 4.901,-0.139 7.25,-0.216 2.35,-0.077 4.585,-0.168 7.735,-0.565 3.151,-0.396 7.217,-1.098 9.757,-1.616 2.54,-0.519 3.556,-0.856 4.448,-1.309 0.892,-0.453 1.662,-1.024 2.078,-1.386 0.417,-0.362 0.479,-0.516 0.539,-0.807 0.06,-0.29 0.117,-0.718 0.209,-2.252 0.091,-1.534 0.216,-4.174 0.518,-9.369 0.303,-5.195 0.782,-12.944 1.164,-18.604 0.382,-5.659 0.667,-9.229 1.038,-13.175 0.37,-3.946 0.826,-8.268 1.397,-12.773 0.57,-4.505 1.254,-9.192 2.132,-14.518 0.879,-5.326 1.95,-11.291 2.766,-15.197 0.815,-3.906 1.374,-5.753 1.733,-6.921 0.358,-1.167 0.516,-1.655 0.64,-1.921l0.003 -0.007 0.001 -0.002 0.008 -0.016 0.002 -0.005 0.003 -0.006 0.003 -0.005 0.002 -0.006 0.002 -0.004 0.004 -0.007 0.003 -0.005 0.002 -0.005 0 -0.001 0.003 -0.005 0.001 -0.002 0.002 -0.004 0.002 -0.003 0.002 -0.005 0.002 -0.002 0.001 -0.002 0.007 -0.013 0.002 -0.005 0.002 -0.003 0.002 -0.004 0.003 -0.005 0.011 -0.018 0 -0.001 0.003 -0.004 0.007 -0.011 0.006 -0.01 0.018 -0.026 0.003 -0.005c0.29,-0.943 0.58,-1.886 0.813,-2.478 0.232,-0.591 0.408,-0.831 0.581,-1.057 0.174,-0.226 0.346,-0.438 0.481,-0.599 0.136,-0.161 0.235,-0.271 0.256,-0.446 0.022,-0.176 -0.032,-0.417 -0.184,-0.807 -0.152,-0.39 -0.401,-0.928 -0.72,-1.7 -0.319,-0.773 -0.708,-1.78 -1.265,-4.398 -0.557,-2.618 -1.282,-6.846 -2.128,-11.482 -0.846,-4.636 -1.813,-9.681 -2.362,-13.439 -0.549,-3.76 -0.68,-6.234 -1.088,-9.846 -0.407,-3.613 -1.091,-8.364 -1.612,-11.976 -0.084,-0.588 -0.164,-1.145 -0.241,-1.678l-0.105 0.002 -0.092 0.001 -0.082 0.001 -0.164 0.002 -0.186 0.002 -0.056 0 -0.048 0.001 -0.206 0.002 -0.132 0.001 -0.185 0.002 -0.15 0.001 -0.008 0 -0.096 0.001 -0.083 0 -0.016 0 -0.162 0.001 -0.036 0 -0.142 0.001 -0.854 0.005 -0.012 0 -0.103 0 -0.036 0 -0.079 0 -0.06 0 -0.155 0.001 -0.502 0 -0.174 -0.001 -0.024 0 -0.113 0c-2.935,-0.008 -5.725,-0.076 -8.341,-0.137 -2.615,-0.061 -5.056,-0.114 -7.698,-0.194 -2.642,-0.08 -5.486,-0.186 -8.975,-0.285z"/>
    </clipPath>
    <clipPath id="id4">
     <path d="M91.234 163.341c0.06,-0.29 0.117,-0.718 0.209,-2.252 0.091,-1.534 0.216,-4.174 0.518,-9.369 0.303,-5.195 0.782,-12.944 1.164,-18.604 0.382,-5.659 0.667,-9.229 1.038,-13.175 0.37,-3.946 0.826,-8.268 1.397,-12.773 0.57,-4.505 1.254,-9.192 2.132,-14.518 0.879,-5.326 1.95,-11.291 2.766,-15.197 0.815,-3.906 1.374,-5.753 1.733,-6.921 0.358,-1.167 0.516,-1.655 0.64,-1.921 0.123,-0.267 0.212,-0.313 0.296,-0.305 0.084,0.008 0.164,0.069 0.266,0.183 0.103,0.113 0.228,0.278 0.391,0.627 0.163,0.349 0.362,0.88 0.684,1.602 0.321,0.721 0.764,1.632 1.146,2.525 0.381,0.893 0.7,1.768 0.836,2.443 0.135,0.674 0.087,1.147 0.127,1.679 0.04,0.532 0.168,1.122 0.504,1.619 0.337,0.498 0.881,0.903 1.195,1.44 0.314,0.538 0.396,1.208 0.602,2.158 0.205,0.951 0.533,2.183 0.646,3.113 0.112,0.929 0.009,1.556 -0.098,2.148 -0.106,0.591 -0.218,1.148 -0.101,1.705 0.117,0.557 0.462,1.116 0.865,1.635 0.404,0.519 0.866,0.998 1.149,1.313 0.284,0.315 0.39,0.466 0.491,0.609 0.101,0.142 0.198,0.276 0.351,0.879 0.152,0.603 0.36,1.675 0.439,2.419 0.078,0.745 0.027,1.161 -0.003,1.576 -0.03,0.415 -0.039,0.828 -0.073,1.354 -0.034,0.526 -0.094,1.165 -0.085,1.751 0.008,0.586 0.085,1.119 0.46,1.91 0.375,0.791 1.048,1.84 1.685,2.689 0.637,0.848 1.239,1.495 1.643,1.902 0.404,0.407 0.611,0.574 0.797,0.87 0.186,0.296 0.351,0.72 0.488,1.263 0.137,0.544 0.246,1.205 0.304,1.972 0.058,0.767 0.067,1.64 0.054,2.608 -0.013,0.968 -0.047,2.031 0.15,2.999 0.197,0.968 0.624,1.84 1.101,2.577 0.476,0.738 1,1.339 1.389,1.826 0.39,0.488 0.644,0.862 0.856,1.23 0.213,0.367 0.384,0.729 0.555,1.154 0.171,0.425 0.342,0.913 0.472,1.479 0.13,0.566 0.218,1.21 0.339,1.795 0.121,0.584 0.275,1.108 0.375,1.699 0.1,0.59 0.145,1.246 0.32,2.204 0.174,0.958 0.476,2.218 0.678,3.273 0.203,1.055 0.305,1.904 0.416,2.657 0.112,0.753 0.231,1.409 0.325,2.284 0.094,0.875 0.163,1.97 0.294,2.774 0.131,0.804 0.325,1.317 0.465,2.09 0.14,0.772 0.225,1.805 0.299,2.412 0.074,0.607 0.137,0.79 0.288,0.952 0.104,0.112 0.251,0.215 0.437,0.32 -0.079,-0.368 -0.154,-0.732 -0.127,-0.999 0.028,-0.278 0.168,-0.45 0.332,-0.556 0.164,-0.105 0.352,-0.145 0.75,-0.063 0.398,0.082 1.007,0.284 1.729,0.399 0.723,0.115 1.56,0.144 2.868,0.151 1.309,0.007 3.089,-0.007 5.568,-0.327 2.479,-0.319 5.657,-0.943 8.788,-1.599 3.132,-0.656 6.217,-1.344 9.657,-2.107 3.44,-0.762 7.234,-1.599 10.248,-2.124 3.014,-0.525 5.249,-0.737 8.16,-0.854 2.912,-0.118 6.502,-0.139 10.137,0.024 3.635,0.163 7.316,0.511 9.976,0.862 2.66,0.351 4.298,0.706 5.688,1.227 1.391,0.522 2.533,1.21 3.226,1.734 0.693,0.524 0.938,0.884 1.054,1.193 0.116,0.309 0.104,0.568 -0.007,0.887 -0.11,0.319 -0.318,0.698 -0.526,1.077 0.192,-0.063 0.354,-0.202 0.566,-0.399 0.232,-0.218 0.523,-0.509 0.64,-0.957 0.116,-0.447 0.059,-1.052 0.065,-2.577 0.006,-1.525 0.074,-3.972 0.052,-6.694 -0.023,-2.724 -0.137,-5.723 -0.194,-7.553 -0.057,-1.831 -0.057,-2.492 -0.057,-3.427 0,-0.936 0,-2.144 -0.029,-3.276 -0.028,-1.132 -0.085,-2.187 -0.111,-3.279 -0.025,-1.092 -0.02,-2.221 -0.091,-4.009 -0.072,-1.787 -0.22,-4.234 -0.3,-6.212 -0.079,-1.979 -0.091,-3.49 -0.231,-7.51 -0.139,-4.02 -0.407,-10.55 -0.929,-16.996 -0.522,-6.446 -1.297,-12.81 -2.278,-18.854 -0.981,-6.045 -2.167,-11.77 -3.341,-17.21 -1.175,-5.44 -2.338,-10.594 -3.867,-15.864 -1.528,-5.268 -3.421,-10.651 -5.246,-15.498 -1.824,-4.847 -3.581,-9.158 -4.618,-11.657 -1.038,-2.499 -1.357,-3.186 -1.494,-3.631 -0.137,-0.445 -0.092,-0.647 0.009,-0.803 0.102,-0.155 0.258,-0.263 0.386,-0.349 0.014,-0.01 0.028,-0.019 0.041,-0.029 -0.042,-0.002 -0.088,-0.005 -0.144,-0.008 -0.105,-0.005 -0.243,-0.013 -0.693,-0.048 -0.449,-0.035 -1.21,-0.098 -2.217,-0.107 -1.008,-0.008 -2.262,0.038 -3.577,0.132 -1.316,0.095 -2.692,0.24 -4.839,0.609 -2.148,0.368 -5.068,0.962 -7.478,1.498 -2.41,0.535 -4.311,1.014 -6.805,1.509 -2.494,0.494 -5.581,1.003 -8.679,1.418 -3.098,0.414 -6.208,0.733 -9.971,1.076 -3.764,0.341 -8.181,0.707 -11.872,0.965 -3.692,0.259 -6.657,0.41 -9.367,0.559 -2.711,0.148 -5.167,0.292 -7.957,0.403 -2.79,0.11 -5.915,0.186 -9.017,0.251 -3.102,0.064 -6.181,0.117 -9.116,0.11 -2.935,-0.008 -5.725,-0.076 -8.341,-0.137 -2.615,-0.061 -5.056,-0.114 -7.698,-0.194 -2.642,-0.08 -5.486,-0.186 -8.975,-0.285 -3.49,-0.099 -7.626,-0.19 -12.01,-0.217 -4.383,-0.026 -9.013,0.012 -12.845,0.008 -3.832,-0.004 -6.865,-0.049 -10.876,-0.205 -4.011,-0.156 -8.998,-0.422 -12.585,-0.69 -3.587,-0.268 -5.773,-0.538 -7.362,-0.856 -1.59,-0.318 -2.583,-0.683 -3.577,-1.049 0.044,0.064 0.021,0.188 -0.027,0.625 -0.062,0.551 -0.164,1.597 -0.449,3.521 -0.286,1.925 -0.753,4.728 -1.058,6.779 -0.305,2.052 -0.448,3.352 -0.79,5.493 -0.342,2.141 -0.884,5.124 -1.32,7.752 -0.436,2.629 -0.767,4.904 -1.029,6.823 -0.263,1.919 -0.457,3.481 -0.636,5.294 -0.18,1.814 -0.345,3.878 -0.525,6.376 -0.18,2.497 -0.373,5.428 -0.567,8.701 -0.194,3.273 -0.388,6.888 -0.53,10.743 -0.143,3.855 -0.234,7.949 -0.206,12.14 0.029,4.192 0.177,8.48 0.468,12.648 0.291,4.169 0.724,8.217 1.009,11.855 0.285,3.638 0.422,6.865 0.485,10.435 0.063,3.57 0.051,7.481 0.091,11.969 0.04,4.488 0.131,9.552 0.223,13.777 0.091,4.225 0.182,7.612 0.266,9.945 0.084,2.332 0.162,3.609 0.193,4.373 0.031,0.764 0.017,1.015 0.027,2.23 0.01,1.214 0.044,3.393 0.078,4.946 0.035,1.554 0.069,2.484 0.137,3.037 0.068,0.553 0.171,0.73 0.482,1.055 0.311,0.325 0.83,0.798 2.632,1.177 1.802,0.38 4.886,0.665 7.829,0.918 2.942,0.254 5.742,0.476 10.492,0.73 4.75,0.254 11.451,0.539 16.4,0.753 4.95,0.214 8.149,0.356 10.954,0.382 2.806,0.026 5.218,-0.066 7.656,-0.143 2.438,-0.077 4.901,-0.139 7.25,-0.216 2.35,-0.077 4.585,-0.168 7.735,-0.565 3.151,-0.396 7.217,-1.098 9.757,-1.616 2.54,-0.519 3.556,-0.856 4.448,-1.309 0.892,-0.453 1.662,-1.024 2.078,-1.386 0.417,-0.362 0.479,-0.516 0.539,-0.807z"/>
    </clipPath>
 </defs>
 <g id="VETORES">
  <metadata id="CorelCorpID_0Corel-Layer"/>
  <g>
  </g>
  <g clip-path="url(#id0)">
   <g id="_2070687277232">
    <g>
    </g>
   </g>
   <g clip-path="url(#id1)">
   </g>
   <g clip-path="url(#id2)">
    <path id="perna-direita" fill="none" d="M126.868 7.208c-3.692,0.259 -6.657,0.41 -9.367,0.559 -2.711,0.148 -5.167,0.292 -7.957,0.403 -2.79,0.11 -5.915,0.186 -9.017,0.251 -1.699,0.035 -3.39,0.067 -5.055,0.087 0.077,0.533 0.157,1.09 0.241,1.678 0.521,3.612 1.205,8.363 1.612,11.976 0.408,3.612 0.539,6.086 1.088,9.846 0.549,3.758 1.516,8.803 2.362,13.439 0.846,4.636 1.571,8.864 2.128,11.482 0.557,2.618 0.946,3.625 1.265,4.398 0.319,0.772 0.568,1.31 0.72,1.7 0.152,0.39 0.206,0.631 0.184,0.807 -0.021,0.175 -0.12,0.285 -0.256,0.446 -0.135,0.161 -0.307,0.373 -0.481,0.599 -0.173,0.226 -0.349,0.466 -0.581,1.057 -0.233,0.592 -0.523,1.535 -0.813,2.478 0.07,-0.094 0.129,-0.113 0.186,-0.108 0.084,0.008 0.164,0.069 0.266,0.183 0.103,0.113 0.228,0.278 0.391,0.627 0.163,0.349 0.362,0.88 0.684,1.602 0.321,0.721 0.764,1.632 1.146,2.525 0.381,0.893 0.7,1.768 0.836,2.443 0.135,0.674 0.087,1.147 0.127,1.679 0.04,0.532 0.168,1.122 0.504,1.619 0.337,0.498 0.881,0.903 1.195,1.44 0.314,0.538 0.396,1.208 0.602,2.158 0.205,0.951 0.533,2.183 0.646,3.113 0.112,0.929 0.009,1.556 -0.098,2.148 -0.106,0.591 -0.218,1.148 -0.101,1.705 0.117,0.557 0.462,1.116 0.865,1.635 0.404,0.519 0.866,0.998 1.149,1.313 0.284,0.315 0.39,0.466 0.491,0.609 0.101,0.142 0.198,0.276 0.351,0.879 0.152,0.603 0.36,1.675 0.439,2.419 0.078,0.745 0.027,1.161 -0.003,1.576 -0.03,0.415 -0.039,0.828 -0.073,1.354 -0.034,0.526 -0.094,1.165 -0.085,1.751 0.008,0.586 0.085,1.119 0.46,1.91 0.375,0.791 1.048,1.84 1.685,2.689 0.637,0.848 1.239,1.495 1.643,1.902 0.404,0.407 0.611,0.574 0.797,0.87 0.186,0.296 0.351,0.72 0.488,1.263 0.137,0.544 0.246,1.205 0.304,1.972 0.058,0.767 0.067,1.64 0.054,2.608 -0.013,0.968 -0.047,2.031 0.15,2.999 0.197,0.968 0.624,1.84 1.101,2.577 0.476,0.738 1,1.339 1.389,1.826 0.39,0.488 0.644,0.862 0.856,1.23 0.213,0.367 0.384,0.729 0.555,1.154 0.171,0.425 0.342,0.913 0.472,1.479 0.13,0.566 0.218,1.21 0.339,1.795 0.121,0.584 0.275,1.108 0.375,1.699 0.1,0.59 0.145,1.246 0.32,2.204 0.174,0.958 0.476,2.218 0.678,3.273 0.203,1.055 0.305,1.904 0.416,2.657 0.112,0.753 0.231,1.409 0.325,2.284 0.094,0.875 0.163,1.97 0.294,2.774 0.131,0.804 0.325,1.317 0.465,2.09 0.14,0.772 0.225,1.805 0.299,2.412 0.074,0.607 0.137,0.79 0.288,0.952 0.104,0.112 0.251,0.215 0.437,0.32 -0.079,-0.368 -0.154,-0.732 -0.127,-0.999 0.028,-0.278 0.168,-0.45 0.332,-0.556 0.164,-0.105 0.352,-0.145 0.75,-0.063 0.398,0.082 1.007,0.284 1.729,0.399 0.723,0.115 1.56,0.144 2.868,0.151 1.309,0.007 3.089,-0.007 5.568,-0.327 2.479,-0.319 5.657,-0.943 8.788,-1.599 3.132,-0.656 6.217,-1.344 9.657,-2.107 3.44,-0.762 7.234,-1.599 10.248,-2.124 3.014,-0.525 5.249,-0.737 8.16,-0.854 2.912,-0.118 6.502,-0.139 10.137,0.024 3.635,0.163 7.316,0.511 9.976,0.862 2.66,0.351 4.298,0.706 5.688,1.227 1.391,0.522 2.533,1.21 3.226,1.734 0.693,0.524 0.938,0.884 1.054,1.193 0.116,0.309 0.104,0.568 -0.007,0.887 -0.11,0.319 -0.318,0.698 -0.526,1.078 0.192,-0.064 0.354,-0.202 0.566,-0.4 0.232,-0.218 0.523,-0.509 0.64,-0.957 0.116,-0.447 0.059,-1.052 0.065,-2.577 0.006,-1.525 0.074,-3.972 0.052,-6.694 -0.023,-2.724 -0.137,-5.723 -0.194,-7.553 -0.057,-1.831 -0.057,-2.492 -0.057,-3.427 0,-0.936 0,-2.144 -0.029,-3.276 -0.028,-1.132 -0.085,-2.187 -0.111,-3.279 -0.025,-1.092 -0.02,-2.221 -0.091,-4.009 -0.072,-1.787 -0.22,-4.234 -0.3,-6.212 -0.079,-1.979 -0.091,-3.49 -0.231,-7.51 -0.139,-4.02 -0.407,-10.55 -0.929,-16.996 -0.522,-6.446 -1.297,-12.81 -2.278,-18.854 -0.981,-6.045 -2.167,-11.77 -3.341,-17.21 -1.175,-5.44 -2.338,-10.594 -3.867,-15.864 -1.528,-5.268 -3.421,-10.651 -5.246,-15.498 -1.824,-4.847 -3.581,-9.158 -4.618,-11.657 -1.038,-2.499 -1.357,-3.186 -1.494,-3.631 -0.137,-0.445 -0.092,-0.647 0.009,-0.803 0.102,-0.155 0.258,-0.263 0.386,-0.349 0.014,-0.01 0.028,-0.019 0.041,-0.029 -0.042,-0.002 -0.088,-0.005 -0.144,-0.008 -0.105,-0.005 -0.243,-0.013 -0.693,-0.048 -0.449,-0.035 -1.21,-0.098 -2.217,-0.107 -1.008,-0.008 -2.262,0.038 -3.577,0.132 -1.316,0.095 -2.692,0.24 -4.839,0.609 -2.148,0.368 -5.068,0.962 -7.478,1.498 -2.41,0.535 -4.311,1.014 -6.805,1.509 -2.494,0.494 -5.581,1.003 -8.679,1.418 -3.098,0.414 -6.208,0.733 -9.971,1.076 -3.764,0.341 -8.181,0.707 -11.872,0.965z"/>
    <g>
    </g>
   </g>
   <g clip-path="url(#id3)">
   </g>
   <g clip-path="url(#id4)">
    <path id="perna-esquerda" fill="none" d="M66.397 7.915c-3.49,-0.099 -7.626,-0.19 -12.01,-0.217 -4.383,-0.026 -9.013,0.012 -12.845,0.008 -3.832,-0.004 -6.865,-0.049 -10.876,-0.205 -4.011,-0.156 -8.998,-0.422 -12.585,-0.69 -3.587,-0.268 -5.773,-0.538 -7.362,-0.856 -1.59,-0.318 -2.583,-0.683 -3.577,-1.049 0.044,0.064 0.021,0.188 -0.027,0.625 -0.062,0.551 -0.164,1.597 -0.449,3.521 -0.286,1.925 -0.753,4.728 -1.058,6.779 -0.305,2.052 -0.448,3.352 -0.79,5.493 -0.342,2.141 -0.884,5.124 -1.32,7.752 -0.436,2.629 -0.767,4.904 -1.029,6.823 -0.263,1.919 -0.457,3.481 -0.636,5.294 -0.18,1.814 -0.345,3.878 -0.525,6.376 -0.18,2.497 -0.373,5.428 -0.567,8.701 -0.194,3.273 -0.388,6.888 -0.53,10.743 -0.143,3.855 -0.234,7.949 -0.206,12.14 0.029,4.192 0.177,8.48 0.468,12.648 0.291,4.169 0.724,8.217 1.009,11.855 0.285,3.638 0.422,6.865 0.485,10.435 0.063,3.57 0.051,7.481 0.091,11.969 0.04,4.488 0.131,9.552 0.223,13.777 0.091,4.225 0.182,7.612 0.266,9.945 0.084,2.332 0.162,3.609 0.193,4.373 0.031,0.764 0.017,1.015 0.027,2.23 0.01,1.214 0.044,3.393 0.078,4.946 0.035,1.554 0.069,2.484 0.137,3.037 0.068,0.553 0.171,0.73 0.482,1.055 0.311,0.325 0.83,0.798 2.632,1.177 1.802,0.38 4.886,0.665 7.829,0.918 2.942,0.254 5.742,0.476 10.492,0.73 4.75,0.254 11.451,0.539 16.4,0.753 4.95,0.214 8.149,0.356 10.954,0.382 2.806,0.026 5.218,-0.066 7.656,-0.143 2.438,-0.077 4.901,-0.139 7.25,-0.216 2.35,-0.077 4.585,-0.168 7.735,-0.565 3.151,-0.396 7.217,-1.098 9.757,-1.616 2.54,-0.519 3.556,-0.856 4.448,-1.309 0.892,-0.453 1.662,-1.024 2.078,-1.386 0.417,-0.362 0.479,-0.516 0.539,-0.807 0.06,-0.29 0.117,-0.718 0.209,-2.252 0.091,-1.534 0.216,-4.174 0.518,-9.369 0.303,-5.195 0.782,-12.944 1.164,-18.604 0.382,-5.659 0.667,-9.229 1.038,-13.175 0.37,-3.946 0.826,-8.268 1.397,-12.773 0.57,-4.505 1.254,-9.192 2.132,-14.518 0.879,-5.326 1.95,-11.291 2.766,-15.197 0.815,-3.906 1.374,-5.753 1.733,-6.921 0.358,-1.167 0.516,-1.655 0.64,-1.921 0.04,-0.087 0.077,-0.151 0.11,-0.197 0.29,-0.943 0.58,-1.886 0.813,-2.478 0.232,-0.591 0.408,-0.831 0.581,-1.057 0.174,-0.226 0.346,-0.438 0.481,-0.599 0.136,-0.161 0.235,-0.271 0.256,-0.446 0.022,-0.176 -0.032,-0.417 -0.184,-0.807 -0.152,-0.39 -0.401,-0.928 -0.72,-1.7 -0.319,-0.773 -0.708,-1.78 -1.265,-4.398 -0.557,-2.618 -1.282,-6.846 -2.128,-11.482 -0.846,-4.636 -1.813,-9.681 -2.362,-13.439 -0.549,-3.76 -0.68,-6.234 -1.088,-9.846 -0.407,-3.613 -1.091,-8.364 -1.612,-11.976 -0.084,-0.588 -0.164,-1.145 -0.241,-1.678 -1.376,0.017 -2.733,0.026 -4.061,0.023 -2.935,-0.008 -5.725,-0.076 -8.341,-0.137 -2.615,-0.061 -5.056,-0.114 -7.698,-0.194 -2.642,-0.08 -5.486,-0.186 -8.975,-0.285z"/>
    <path id="_2" fill="#0DFF00" fill-rule="nonzero" d="M61.87 147.373c-0.816,2.088 -1.443,3.195 -2.622,5.069 -0.91,1.444 -1.451,2.137 -2.812,3.741 -2.026,2.387 -4.026,3.991 -6.49,5.791 2.272,-1.455 5.05,-4.048 6.631,-5.864l1.136 -1.427c-0.629,0.968 -2.008,2.493 -2.879,3.345 -0.354,0.346 -0.295,0.331 0.566,-0.422l1.374 -1.625c1.163,-1.242 0.54,-0.725 1.263,-1.702 1.307,-1.765 2.78,-4.172 3.603,-6.247 1.21,-3.053 1.721,-4.469 2.419,-8.173 -0.077,0.902 0.202,-0.921 0.169,-1.114 0.13,-0.997 0.381,-2.964 0.324,-5.391 -0.146,-6.815 -2.332,-13.208 -6.079,-18.559 -0.219,-0.314 0.935,1.208 0.079,-0.053 -1.439,-2.121 -3.326,-4.238 -5.255,-5.905l-1.51 -1.177c0.003,0.014 0.13,0.118 0.149,0.151 0.006,0.011 -2.69,-1.971 -4.316,-2.89l-3.324 -1.65 0.099 0.015c1.012,0.416 2.835,1.294 3.844,1.913 0.025,-0.135 -3.05,-1.64 -3.334,-1.772 -2.008,-0.926 -4.663,-1.792 -6.687,-2.208 -1.383,-0.297 -3.504,-0.711 -6.659,-0.785 2.746,0.101 6.293,0.664 7.457,1.005 1.46,0.429 -0.252,0.008 -0.967,-0.144 -6.574,-1.4 -13.341,-0.917 -19.824,1.727 -2.43,0.987 -4.181,2.088 -4.917,2.547 -0.431,0.257 0.022,-0.045 0.137,-0.136 -2.33,1.587 -2.388,1.574 -4.384,3.228 -0.922,0.77 2.087,-1.998 -0.918,0.669 0.179,-0.177 0.359,-0.354 0.539,-0.532 -2.666,2.307 -4.033,3.989 -6.025,6.999 1.817,-2.738 3.425,-4.405 4.416,-5.395l0.944 -0.839c-2.457,2.399 -4.617,5.002 -6.32,8.078 -0.142,0.244 0.017,-0.106 -0.522,0.789 -1.371,2.289 -2.476,5.697 -3.098,8.286l-0.464 3.339 0.275 -2.413 -0.408 3.002c-0.031,0.28 -0.244,1.895 -0.087,1.879 0.04,-0.004 0.049,0.048 -0.025,0.931 -0.071,1.33 0.161,4.117 0.386,5.615 0.288,1.679 0.427,2.503 0.015,0.393l-0.433 -3.74c-0.02,-0.344 -0.038,-0.519 -0.047,-0.378 -0.016,1.722 0.582,5.543 1.114,7.46 0.545,1.962 1.048,3.465 1.869,5.231 0.388,0.824 0.311,0.615 -0.363,-1.163 0.819,1.928 1.43,2.993 2.326,4.724 -0.576,-0.952 -0.946,-1.552 -1.109,-1.874l0.203 0.432 1.97 3.221c3.701,4.764 -0.12,-0.108 -0.461,-0.822 -0.038,-0.06 0.017,-0.095 0.055,-0.039 1.957,2.771 2.8,3.994 5.455,6.444 0.992,0.916 -1.246,-1.023 -0.096,0.066 3.182,3.014 8.015,5.856 12.186,7.051 -2.657,-0.835 -4.747,-2.002 -5.3,-2.346l1.779 0.844c1.855,0.91 4.792,1.783 4.778,1.783l-0.597 -0.12 1.522 0.438c-0.761,-0.275 -0.4,-0.196 0.177,-0.042 1.543,0.421 2.478,0.525 3.894,0.74 -0.77,0.008 -3.053,-0.432 -4.076,-0.695 0.735,0.282 4.07,0.889 5.367,0.983 1.313,0.031 1.048,-0.002 0.425,-0.05l-0.807 -0.122c2.19,0.24 5.644,0.168 7.18,-0.075 1.027,-0.163 2.889,-0.445 4.183,-0.853l-2.573 0.491 2.554 -0.573c0.005,-0.002 -3.12,0.665 -6.077,0.763l-0.085 -0.014c1.479,-0.065 3.949,-0.303 5.955,-0.792 1.497,-0.364 -1.163,0.192 -0.027,-0.102l0.655 -0.155 -0.863 0.086c-3.473,0.762 -6.41,0.935 -9.906,0.67 3.569,0.271 7.183,-0.057 10.41,-0.908 0.413,-0.121 0.598,-0.181 0.561,-0.182l-3.042 0.607c-2.432,0.412 -5.27,0.536 -7.736,0.358 0.549,-0.045 1.962,0.113 4.447,-0.056 2.317,-0.157 4.997,-0.636 7.146,-1.297 0.719,-0.238 0.098,-0.116 0.15,-0.135 0.079,-0.028 0.831,-0.301 1.532,-0.552 0.688,-0.285 1.32,-0.555 1.185,-0.522 -0.302,0.068 -3.105,1.142 -3.807,1.24 -0.46,0.037 -0.46,0.047 -0.921,0.063l-2.133 0.43c-3.888,0.731 -8.667,0.545 -12.529,-0.336l-2.135 -0.579c2.668,0.729 4.249,1.036 7.053,1.192l-1.7 -0.177c-2.544,-0.282 -7.3,-1.556 -9.425,-2.516 -13.056,-5.905 -20.639,-19.737 -18.642,-33.913 0.917,-6.506 3.605,-12.345 8.063,-17.223l1.495 -1.506 -1.088 1.141 -2.009 2.355c-0.894,1.18 -1.144,1.641 -1.112,1.587 0.045,-0.044 0.398,-0.59 0.932,-1.264 1.024,-1.38 2.779,-3.251 3.106,-3.516 0.548,-0.534 1.02,-0.809 2.09,-1.991 0.885,-0.707 0.783,-0.612 2.028,-1.503 3.221,-2.25 5.817,-3.309 6.793,-3.696l-0.665 0.342c-0.409,0.199 -0.934,0.463 -1.58,0.795 3.869,-1.861 7.972,-3.068 12.305,-3.232 1.777,-0.067 2.053,-0.052 2.167,-0.053 3.135,-0.008 7.831,0.823 11.383,2.441 3.003,1.368 5.515,2.515 8.18,4.63 4.106,3.26 7.224,7.236 9.372,12.123 0.657,1.496 1.945,5.227 2.191,6.85l0.277 1.644c0.279,1.912 0.392,3.93 0.302,5.945 -0.172,3.948 -0.842,6.556 -2.137,10.228l1.021 -2.823c-0.057,0.484 -0.883,2.715 -1.208,3.53 -0.819,2.109 0.305,-0.433 0.214,0.088l0.707 -1.927c0.045,-0.117 0.046,-0.078 -0.035,0.194l-1.132 2.823c-0.085,0.179 -0.205,0.412 -0.372,0.735l-0.69 1.585c-0.275,0.563 -1.247,2.189 -0.656,1.342 0.251,-0.358 0.78,-1.135 1.573,-2.613 0.377,-0.637 -0.731,1.851 -0.656,1.746 0.857,-1.446 0.859,-1.425 1.103,-1.759 0.668,-0.94 1.531,-2.993 1.97,-4.236l-1.06 2.954 -0.012 -0.014zm-23.393 2.808l2.425 -1.484c-1.599,0.919 -2.899,1.643 -4.795,2.181 -0.816,0.218 -1.524,0.382 -1.973,0.439l1.036 -0.269 0.068 -0.05c-0.882,0.19 -1.995,0.375 -3.905,0.457 0.554,0.093 -0.669,0.106 -0.672,0.106 -0.518,0.006 -1.008,-0.09 -0.547,-0.096l-0.91 -0.085c0.128,0.054 -1.607,0.036 -3.876,-0.818 -1.814,-0.683 -3.283,-1.317 -5.009,-2.676 -2.026,-1.596 -3.367,-3.205 -4.582,-5.403 -0.145,-0.271 -0.231,-0.498 -0.299,-0.646 -2.226,-4.412 -2.414,-9.551 -0.604,-14.18 3.503,-8.957 14.125,-13.507 23.221,-9.461 7.251,3.227 11.423,10.964 10.099,18.729 -0.277,1.62 -0.641,3.254 -1.43,4.659 -0.134,0.239 -0.231,0.769 -0.941,1.909 -0.415,0.657 -1.038,1.596 -2.151,2.777 0.852,-0.746 -0.043,0.484 1.002,-0.752 2.125,-2.511 3.477,-5.681 3.964,-8.919l0.198 -2.423 -0.041 1.575c-0.271,3.398 -1.645,6.659 -3.657,9.34 0.446,-0.418 0.767,-0.64 0.452,-0.049 0.971,-1.194 2.092,-3.332 2.603,-4.789 0.807,-2.304 1.165,-4.85 0.882,-7.328 -0.033,-0.42 -0.083,-1.297 -0.272,-2.369 -0.488,-2.721 -1.513,-4.993 -3.092,-7.157l-0.798 -0.893c-0.392,-0.661 -1.443,-1.804 -3.045,-2.988l-1.583 -1.053c-2.341,-1.379 -5.258,-2.328 -7.913,-2.477l0.316 0.06 0.191 0.083c-2.316,-0.318 -5.478,0.127 -7.395,0.752 -1.418,0.458 -2.796,1.069 -4.074,1.917l0.471 -0.334c0.694,-0.42 0.03,-0.118 -0.276,0.057 -2.52,1.435 -5.383,4.648 -6.813,7.565 -3.456,7.049 -2.04,15.593 3.66,21.038l0.898 0.693c0.696,0.549 1.094,0.98 1.98,1.563 1.738,1.143 3.646,1.978 6.137,2.435 -0.066,0.15 2.463,0.392 2.809,0.404l1.81 -0.019c0.852,-0.049 1.749,-0.175 2.625,-0.343 0.583,-0.174 -0.706,-0.04 -0.706,-0.04 -0.351,0.023 2.017,-0.346 3.651,-1.051 1.109,-0.523 -0.334,0.044 0.369,-0.33 0.078,-0.044 0.266,-0.139 0.517,-0.26l-0.025 0.003zm21.793 12.949c-1.968,2.06 -3.733,3.466 -6.033,5.139 4.821,-3.284 8.863,-7.326 11.934,-12.276l0.619 -0.979c-0.294,0.678 -1.983,3.117 -2.619,3.981 -0.287,0.382 -0.23,0.327 0.538,-0.682 1.889,-2.601 3.365,-5.219 4.621,-8.218 -0.512,1.008 0.443,-1.362 0.502,-1.52 0.441,-1.143 0.789,-2.268 0.501,-1.209l0.648 -2.081c-0.095,0.255 0.163,-0.688 0.167,-0.707 0.506,-2.494 1.156,-5.004 1.308,-8.596 0.298,-6.994 -1.148,-13.973 -4.389,-20.463 -2.567,-5.141 -5.585,-8.622 -8.03,-11.066 -4.858,-4.858 -11.475,-8.57 -18.13,-10.389 -9.857,-2.694 -20.514,-1.641 -29.685,3.029 -19.48,9.919 -27.879,33.088 -19.542,52.992 3.827,9.139 10.797,16.619 19.623,21.099 6.328,3.212 13.138,4.576 20.201,4.379 4.246,-0.119 9.627,-1.284 14.267,-3.172 -1.35,0.473 -1.108,0.328 -0.996,0.252l-1.789 0.573c-7.039,2.438 -15.776,2.81 -23.108,0.85 -1.924,-0.515 -3.152,-0.904 -4.842,-1.56l1.595 0.566c3.993,1.339 8.123,2.077 12.358,2.187 4.732,0.123 8.179,-0.433 12.598,-1.667 -1.374,0.3 -2.187,0.424 -0.765,-0.053 -3.626,1.08 -8.365,1.559 -12.184,1.422 -13.212,-0.477 -24.712,-6.607 -32.35,-17.658l-2.26 -3.529 -2.091 -4.634 -1.449 -4.36 -0.674 -2.635 -0.229 -1.569c-0.955,-6.273 -0.535,-12.556 1.335,-18.547l-0.244 0.681 -0.159 0.416c0.513,-2.002 1.737,-5.09 2.335,-6.324 2.909,-6.23 7.342,-11.571 12.844,-15.65l-1.008 0.805 -0.274 0.291c7.427,-5.77 14.886,-8.697 24.549,-9.041 7.953,-0.283 16.537,2.159 23.2,6.5 7.31,4.764 12.636,11.343 15.79,19.057 0.641,1.566 0.945,2.074 1.462,4.109 1.514,5.969 2.067,11.485 0.911,18.443l-0.691 2.975c-1.326,4.829 -2.599,7.77 -5.38,12.244 -0.306,0.513 -0.137,0.309 0.147,-0.074l0.203 -0.187c-1.365,2.246 -3.133,4.321 -4.956,6.3 -1.399,1.503 0.806,-0.693 -0.382,0.575l0.003 -0.019zm-4.53 -18.38l-0.701 1.729c-0.491,0.945 -1.109,1.93 -2.018,3.381l-1.611 1.966c-1.621,1.924 -3.247,3.201 -5.204,4.653 1.741,-1.056 4.139,-3.34 5.343,-4.695l0.904 -1.15 -0.879 1.173c-1.075,1.306 -2.382,2.356 -0.922,1.221l1.08 -1.326c0.991,-1 0.347,-0.54 1.271,-1.763 0.67,-0.889 2.157,-3.512 2.57,-4.649 0.502,-1.382 0.682,-1.68 1.122,-3.204 0.231,-0.816 0.469,-1.732 0.784,-3.363 -0.025,0.728 0.183,-0.738 0.129,-0.894 0.105,-0.8 0.31,-2.375 0.266,-4.322 -0.122,-5.619 -1.852,-10.453 -4.861,-14.871 -0.184,-0.269 0.8,0.988 0.099,-0.07 -1.098,-1.657 -2.703,-3.465 -4.221,-4.748l-1.227 -0.921c-0.001,0.033 0.391,0.347 -0.28,-0.107 -1.034,-0.749 -1.892,-1.427 -3.068,-2.064l-2.661 -1.322 0.086 0.001 3.088 1.515c0.025,-0.129 -2.431,-1.324 -2.665,-1.433 -1.517,-0.712 -3.804,-1.459 -5.371,-1.774 -1.112,-0.236 -2.817,-0.569 -5.35,-0.63 2.07,0.093 5.214,0.584 5.987,0.825 1.187,0.371 -0.242,0.037 -0.784,-0.078 -5.284,-1.128 -10.669,-0.752 -15.88,1.372 -1.945,0.787 -3.347,1.68 -3.935,2.054 -0.35,0.203 0.013,-0.045 0.1,-0.127l-3.005 2.181c-0.286,0.225 -0.471,0.397 -0.507,0.425 -0.746,0.609 1.631,-1.659 -0.771,0.499 0.139,-0.147 0.279,-0.294 0.42,-0.44 -2.239,1.915 -3.148,3.074 -4.821,5.618 1.419,-2.118 3.365,-4.262 4.415,-5.089l-0.986 1.045c-1.561,1.639 -3.014,3.542 -4.147,5.559 -0.117,0.194 -0.002,-0.094 -0.452,0.613 -1.12,1.756 -2.015,4.647 -2.512,6.645 0.134,0.08 -0.293,3.1 -0.321,2.69l0.17 -1.945 -0.308 2.416c-0.057,0.475 -0.051,0.677 -0.069,0.755 -0.024,0.158 -0.031,-0.169 -0.058,0.286 -0.035,0.522 0.038,0.469 0.086,0.469 0.047,-0.003 0.069,0.038 -0.017,0.745 -0.061,0.896 0.16,3.415 0.323,4.498 0.233,1.343 0.334,2.005 -0.009,0.318l-0.422 -3.3c0.091,1.611 0.302,3.5 0.674,5.099l0.636 2.301 1.079 2.778c0.314,0.662 0.27,0.483 -0.232,-0.956 0.677,1.574 1.173,2.381 1.843,3.797 -0.958,-1.508 -1.145,-1.951 -0.97,-1.569l1.791 3.025c3.002,3.814 -0.076,-0.102 -0.344,-0.683 -0.028,-0.05 0.039,-0.092 0.072,-0.049l1.165 1.648c1.275,1.622 2.197,2.576 3.202,3.521 0.786,0.74 -1.026,-0.791 -0.113,0.089 1.289,1.244 3.083,2.468 4.671,3.441 1.328,0.79 3.118,1.66 5.117,2.189 -2.138,-0.661 -3.801,-1.62 -4.233,-1.912l1.431 0.657c1.593,0.782 1.71,0.7 3.284,1.235 1.347,0.458 -0.241,0.018 0.054,0.133l1.22 0.357c-1.128,-0.474 1.091,0.157 1.341,0.221l1.932 0.296c-0.557,0.042 -2.487,-0.313 -3.275,-0.516 0.494,0.223 3.4,0.758 4.304,0.818 1.056,-0.004 0.844,-0.037 0.346,-0.078l-0.639 -0.122c1.67,0.187 4.646,0.136 5.746,-0.078 0.858,-0.167 2.358,-0.38 3.331,-0.731l-2.057 0.374 1.543 -0.411c-1.462,0.262 -2.918,0.434 -4.357,0.463l-0.066 -0.021c1.065,-0.037 3.309,-0.236 4.736,-0.593l0.094 -0.074c-0.961,0.165 0.393,-0.181 0.393,-0.183 0.001,-0.001 -1.208,0.175 -0.696,0.012 -2.831,0.59 -5.012,0.705 -7.848,0.481 2.843,0.225 5.744,-0.04 8.227,-0.719 1.662,-0.455 -1.809,0.305 -2.999,0.43 -1.737,0.182 -3.287,0.264 -5.075,0.119l3.064 -0.044c1.809,-0.085 4.429,-0.508 6.068,-1.045 0.567,-0.193 0.064,-0.133 0.106,-0.148 0.058,-0.03 0.651,-0.243 1.197,-0.452 2.697,-1.101 -1.221,0.313 -1.52,0.373l-0.641 0.142c-1.026,-0.004 -0.33,-0.089 -1.486,0.157 -4.084,0.868 -8.319,0.557 -12.32,-0.555 -0.001,0.001 0.003,-0.01 0.009,-0.032 2.384,0.644 3.24,0.765 5.527,0.894l-1.328 -0.145c-2.047,-0.227 -5.861,-1.334 -7.382,-1.918 -1.487,-0.572 -3.994,-2.191 -5.258,-3.201 -8.217,-6.569 -11.311,-17.121 -8.589,-26.855 1.015,-3.629 3.177,-7.305 5.573,-9.916l1.173 -1.169 -1.498 1.659c-0.444,0.558 -0.746,0.846 -0.904,1.081l-0.119 0.268c0.802,-1.071 2.165,-2.53 2.425,-2.73 0.428,-0.416 0.837,-0.577 1.605,-1.585 0.693,-0.558 0.623,-0.467 1.598,-1.168 2.526,-1.769 4.537,-2.614 5.3,-2.914l-0.506 0.298c-0.31,0.169 -0.714,0.385 -1.212,0.655 1.136,-0.558 3.044,-1.297 4.219,-1.661 2.451,-0.757 4.307,-0.94 7.046,-0.96 2.369,-0.018 6.214,0.665 8.88,1.976 2.355,1.157 4.148,1.793 6.399,3.565 3.931,3.095 6.682,7.005 8.151,11.735l0.691 2.165 0.257 1.369c0.008,0.05 0.178,0.777 0.172,0.83 0.222,1.491 0.311,3.07 0.244,4.646 -0.127,2.997 -0.669,5.181 -1.675,8.01l0.84 -2.199c-0.006,0.315 -0.712,2.169 -0.944,2.768 -0.608,1.667 0.287,-0.32 0.272,0.11l0.549 -1.519 -0.46 1.399c-0.093,0.214 -0.078,0.093 -0.089,0.12l-0.361 0.861c-0.069,0.139 -0.168,0.321 -0.301,0.573l-0.492 1.275c-0.239,0.536 -0.948,1.718 -0.471,1.085 0.209,-0.276 0.643,-0.88 1.295,-2.036 0.331,-0.503 -0.518,1.556 -0.424,1.437 0.703,-1.138 0.725,-1.111 0.948,-1.361 0.569,-0.649 1.333,-2.39 1.684,-3.337l-0.831 2.376 -0.009 -0.033zm-8.442 1.482l-1.463 2.18c1.031,-1.157 1.406,-1.516 2.34,-2.928l-1.396 1.993c0.011,-0.007 0.308,-0.317 0.195,-0.126 3.142,-3.65 4.951,-8.876 4.772,-13.735 -0.147,-3.962 -0.985,-6.585 -2.815,-10.09 -0.594,-1.137 -1.776,-2.754 -2.648,-3.652 -0.7,-0.721 -2.62,-2.371 -3.267,-2.788l0.468 0.403 0.664 0.584c-1.089,-0.924 -2.866,-2.127 -2.865,-2.127l-1.79 -0.938c-1.026,-0.452 -0.957,-0.384 -0.712,-0.269 0.239,0.129 0.639,0.325 0.267,0.169 -1.319,-0.583 -2.858,-1.086 -4.39,-1.367 0.541,0.14 1.602,0.46 1.188,0.362 -4.003,-1.004 -8.382,-0.667 -12.38,0.765 -1.374,0.491 -2.649,1.091 -3.852,1.919l0.855 -0.452 1.427 -0.758c0.579,-0.258 0.229,-0.113 -0.477,0.256 -0.913,0.446 -2.647,1.543 -3.485,2.223 -0.127,0.103 -0.097,0.089 0.219,-0.159 -1.203,0.961 -2.545,2.249 -3.583,3.585 -1.726,2.221 -2.942,4.791 -3.761,7.508 -0.173,0.531 -0.234,0.907 -0.151,0.746 -0.875,3.317 -0.465,7.558 -0.516,6 -0.009,-0.525 -0.105,-1.715 0.174,-3.784 -0.318,2.948 -0.051,5.813 0.729,8.487 0.066,0.213 0.083,0.29 0.023,0.135 -0.296,-0.649 -0.754,-3.284 -0.841,-4.541l-0.066 -0.844c0.064,1.938 0.309,3.832 0.912,5.503 -0.117,0.001 0.906,2.427 1.055,2.713 0.859,1.654 2.504,4.023 3.823,5.386 0.175,0.175 0.356,0.37 0.557,0.564 -0.291,-0.317 0.286,0.232 0.692,0.62l-0.321 -0.364c1.321,1.339 3.399,2.607 4.931,3.345 0.325,0.159 0.243,0.126 -0.064,-0.012 -1.081,-0.482 -1.934,-1.022 -2.926,-1.659 1.365,0.86 1.702,1.162 3.493,1.971 1.43,0.632 2.665,0.948 2.096,0.811 -0.132,-0.021 -0.687,-0.234 -1.061,-0.355l1.899 0.656 -0.271 -0.129 2.705 0.569c-1.684,-0.319 -2.499,-0.526 -4.085,-1.127 1.891,0.658 3.234,1.031 5.426,1.194l-1.643 -0.274 2.091 0.214c0.346,0.004 0.809,0.014 0.665,-0.023l-1.494 -0.134c-0.085,-0.023 0.364,0.058 1.717,0.11 -0.286,-0.035 0.01,-0.04 0.002,-0.041 -1.527,-0.166 -1.198,-0.055 -3.047,-0.387l2.184 0.175c-0.039,-0.006 0.041,-0.008 0.001,-0.014 -0.052,0.016 -1.393,-0.159 -0.861,-0.147 -1.36,-0.172 -3.566,-0.683 -5.342,-1.408 -3.955,-1.629 -7.306,-4.493 -9.534,-8.172 -2.217,-3.646 -3.204,-7.948 -2.827,-12.208 0.163,-0.55 0.201,-0.831 0.193,-1.026 -0.002,-1.106 0.444,-2.553 0.776,-3.558 0.267,-0.809 -0.331,1.071 0.206,-0.347 0.804,-2.12 1.1,-2.912 2.264,-4.646 1.673,-2.495 4.296,-4.594 4.262,-4.51 4.382,-3.439 9.881,-4.817 15.332,-3.995 -0.589,-0.071 -0.591,-0.05 -1.182,-0.11l1.466 0.195c0.437,0.059 0.875,0.178 1.297,0.267 0.007,-0.004 0.287,0.074 0.213,0.039 -0.283,-0.073 -1.02,-0.237 -0.732,-0.19 2.537,0.463 5.814,1.92 7.819,3.47 0.353,0.293 0.189,0.163 -0.168,-0.112 -0.372,-0.252 -0.937,-0.644 -1.382,-0.849 1.884,1.143 3.19,2.194 4.715,3.857l-1.229 -1.203c1.689,1.603 2.998,3.289 4.083,5.402l-0.543 -0.931c0.57,1.05 1.252,2.266 1.678,3.603 1.418,4.447 1.38,8.235 0.051,12.66 -0.438,1.456 -1.371,3.386 -2.232,4.684l-1.159 1.74c-0.089,0.119 -0.328,0.403 -0.401,0.509l1.373 -1.676 0.404 -0.515 0.064 -0.089c-0.459,0.718 -0.654,0.999 -0.809,1.187l0.005 0.01zm-8.645 11.022c-1.172,0.336 -2.36,0.605 -3.562,0.807l2.504 -0.699 -0.757 0.172c-0.326,0.061 -0.569,0.095 -0.27,-0.006 -2.009,0.449 -0.257,0.056 -0.638,0.103 -2.699,0.452 -3.042,0.514 -5.384,0.49 -5.945,-0.061 -11.798,-2.462 -16.065,-6.553l-0.597 -0.587c-2.876,-2.942 -5.011,-6.644 -6.068,-10.612 -0.077,-0.422 -0.024,-0.772 -0.197,-1.223 -0.084,-0.215 -0.175,-0.314 -0.21,-0.529 -0.224,-1.626 -0.354,-2.064 -0.384,-3.755 -0.018,-1.073 0.111,1.339 0.094,-0.474l0.13 -3.154c-0.26,1.787 -0.022,-0.882 0.502,-2.987 0.558,-2.239 1.592,-4.736 2.828,-6.687 0.056,-0.087 0.089,-0.139 0.089,-0.129 3.433,-5.58 9.138,-9.434 15.521,-10.756l-1.359 0.378 2.43 -0.518 1.09 -0.152c-0.344,0.044 -1.236,0.131 -0.896,0.076 2.041,-0.315 4.066,-0.312 6.087,-0.094 1.365,0.152 2.719,0.413 4.095,0.791 1.056,0.338 -1.251,-0.371 -2.142,-0.44 2.163,0.411 4.949,1.3 6.889,2.389l-1.879 -0.828c2.464,1.062 4.615,2.338 6.761,4.338l-0.987 -0.819 2.187 2.031c3.835,3.949 6.173,9.606 6.421,15.309 0.069,1.581 -0.048,4.094 -0.438,5.671 -0.078,0.323 -0.171,0.842 -0.403,1.699 -0.017,0.326 -0.21,0.833 -0.216,0.877l-0.34 1.248 0.858 -2.446 0.313 -1.053 -0.038 0.18 -0.926 3.68 -0.215 1.051c0.705,-1.665 0.965,-2.457 1.429,-4.258 -0.32,1.421 -0.311,1.424 -0.745,2.822 0.008,-0.012 0.223,-0.48 0.174,-0.22 0.742,-1.722 1.341,-5.095 1.434,-7.17 0.274,-6.142 -1.867,-12.577 -5.942,-17.255 -3.237,-3.716 -6.168,-5.94 -11.048,-7.508l-1.314 -0.394c-0.257,-0.064 -0.282,-0.063 0.049,0.048 0.223,0.058 0.991,0.329 1.529,0.513l-1.158 -0.359 -2.84 -0.78c-1.771,-0.252 -1.828,-0.272 -2.397,-0.324 -2.673,-0.146 0.422,0.109 -0.542,0.067 -1.721,-0.126 -3.648,-0.029 -5.481,0.265 0.367,-0.033 2.67,-0.208 0.926,0.002 -4.072,0.491 -8.517,2.407 -11.696,4.857 -1.989,1.532 -3.213,2.434 -4.878,4.751 -1.394,1.941 0.498,-0.526 0.775,-0.849l1.288 -1.435c1.104,-1.04 -1.355,1.225 -2.686,3.318l-0.539 0.793c-1.415,2.29 -2.159,4.222 -2.916,6.711l-0.714 4.204c-0.129,1.387 -0.128,3.317 -0.067,4.593 0.039,0.665 0.109,1.112 0.142,0.897 0.264,2.325 0.94,4.894 1.801,6.798l-0.154 -0.453c-0.313,-0.815 -0.965,-2.81 -1.119,-3.732 0.509,2.5 2.24,6.21 3.634,8.232l0.773 1.145c-0.525,-0.553 -2.253,-3.437 -2.821,-4.772l-0.427 -0.916c1.254,2.959 2.11,4.349 3.304,5.818 -0.114,0.05 1.963,2.342 2.401,2.717 2.213,1.893 4.439,3.502 7.24,4.753 -0.454,-0.244 0.413,0.158 1.036,0.413l-0.516 -0.275c2.474,1.069 4.415,1.401 6.937,1.736 0.429,0.052 0.324,0.048 -0.077,0.013 -1.722,-0.155 -2.307,-0.3 -3.974,-0.67 1.523,0.409 3.121,0.681 4.742,0.776 1.917,0.114 3.993,0.001 2.134,0.088 -0.255,0.009 -0.55,0 -0.787,0.004 1.481,0.047 2.151,-0.019 2.403,-0.04l-0.359 -0.03 1.954 -0.197c1.043,-0.183 1.211,-0.248 1.289,-0.265 -1.737,0.276 -3.287,0.465 -5.018,0.392 1.793,0.058 4.797,-0.302 6.558,-0.887l-1.949 0.357c-0.119,-0.011 0.349,-0.031 2.424,-0.619l0.405 -0.2 -1.395 0.364c-0.105,0.009 0.426,-0.087 1.96,-0.588 -0.337,0.069 -0.006,-0.052 -0.018,-0.05l0.008 0.01zm16.678 -19.48l-0.181 0.893 0.277 -2.008c0.018,-0.071 -0.013,0.514 -0.097,1.118l0.001 -0.003zm1.069 20.613c0.539,-0.468 1.924,-2.109 2.342,-2.664 0.709,-0.941 0.851,-0.9 1.2,-1.329 0.872,-1.072 2.584,-4.225 3.2,-5.563 1.727,-3.749 2.681,-7.612 3.062,-11.737 0,0 0.009,0 0.027,0.001 -0.158,2.35 -0.775,5.488 -1.447,7.717 -0.072,0.236 -0.048,0.16 0.149,-0.45 1.052,-3.152 1.564,-7.09 1.47,-10.095 -0.225,-7.203 -1.878,-14.067 -6.736,-20.825 -6.549,-9.109 -17.167,-14.515 -27.685,-14.653l-1.112 -0.046c-5.08,-0.05 -10.185,1.244 -14.45,3.126l0.938 -0.452 3.716 -1.316c1.561,-0.466 2.129,-0.561 2.055,-0.564 -0.702,0.043 -3.798,1.026 -4.656,1.366l-1.9 0.776c-0.766,0.335 -1.38,0.468 -2.804,1.491 -1.076,0.624 -0.973,0.498 -2.381,1.418 -2.232,1.425 -4.768,3.712 -6.422,5.545l0.504 -0.651c0.337,-0.371 0.777,-0.841 1.337,-1.42 -3.458,3.254 -5.865,6.804 -7.919,11.105 -0.123,0.261 -0.074,0.084 -0.192,0.348 -0.743,1.682 -1.515,3.933 -1.898,5.315 -0.715,2.569 -1.217,5.484 -1.302,8.512 -0.132,2.015 -0.076,3.144 0.212,5.177 1.234,8.732 5.815,17.08 12.535,22.792 0.946,0.804 4.352,3.176 5.251,3.56 1.842,1.044 3.858,1.962 5.947,2.676 3.714,1.273 7.234,1.877 11.278,1.93l-2.538 -0.159 0.359 -0.022 2.971 0.088c2.457,-0.142 -0.566,-0.093 -0.003,-0.231l-2.208 -0.017 2.009 -0.005c0.319,-0.007 0.156,0.022 0.196,0.024l3.009 -0.227c0.2,-0.031 4.004,-0.693 2.53,-0.517 -0.463,0.057 -1.448,0.203 -3.213,0.294 -0.485,-0.001 0.707,-0.2 0.793,-0.199 0.595,-0.113 1.239,-0.231 1.11,-0.238 -1.741,0.179 -1.724,0.083 -2.149,0.061 -1.47,-0.098 -2.983,-0.048 -4.765,-0.223 1.997,0.15 3.792,-0.009 5.52,-0.204 2.591,-0.291 4.915,-0.738 7.938,-1.76 2.979,-1.009 5.244,-2.318 7.809,-3.975 -0.11,0.063 -0.22,0.126 -0.33,0.188 -2.337,1.566 -5.237,3.026 -7.647,3.776 0.183,-0.02 -0.871,0.358 -1.453,0.518l0.249 -0.12 3.607 -1.375c0.451,-0.209 0.397,-0.192 -0.679,0.183 -0.944,0.376 -1.187,0.583 -1.966,0.805l-1.423 0.49c-0.757,0.326 -1.47,0.377 -1.995,0.537 -1.759,0.536 -5.443,0.977 -7.489,0.961 -2.432,-0.02 -3.984,-0.067 -6.866,-0.657 0.906,0.117 -0.922,-0.241 -1.121,-0.23l-2.747 -0.804c-7.241,-2.462 -13.182,-6.96 -17.396,-13.145l-0.017 -0.093c0.513,0.643 -0.797,-1.374 -0.886,-1.521l-1.592 -2.954 -1.704 -4.177 -0.213 -0.448 -0.676 -2.431c-0.476,-2.158 -0.757,-4.304 -0.818,-6.445l0.031 0.097c0.051,1.117 0.237,3.134 0.475,4.312l-0.282 -2.378c-0.239,-3.38 -0.198,-5.599 0.283,-8.497 0.221,-1.409 0.608,-3.555 1.721,-6.536 -1.162,3.007 -1.697,5.678 -1.888,7.354 -0.078,0.602 -0.154,0.823 -0.111,0.371 0.322,-3.623 1.914,-8.498 3.91,-12.154 2.449,-4.487 6.091,-8.473 9.501,-10.992 0.423,-0.288 -0.02,0.043 -0.131,0.145 1.182,-0.868 3.109,-2.209 4.646,-2.978 1.083,-0.538 -2.513,1.475 1.069,-0.424 -0.219,0.128 -0.439,0.254 -0.659,0.38l2.453 -1.11c2.328,-0.955 3.838,-1.405 6.305,-1.991 -2.393,0.493 -4.567,1.162 -6.721,2.055l-1.189 0.468c2.936,-1.412 5.595,-2.245 8.803,-2.816 1.244,-0.221 2.457,-0.246 3.919,-0.328 2.209,-0.125 4.801,0 7.099,0.367 0.178,-0.248 4.038,0.664 3.351,0.582l-2.413 -0.432c1.308,0.228 2.85,0.568 3.901,0.923 0.001,0.001 0.9,0.405 0.92,0.229l3.406 1.339 2.665 1.365c1.481,0.895 2.189,1.351 0.316,0.247l-3.402 -1.716c-0.323,-0.127 -0.491,-0.186 -0.365,-0.118 1.873,0.773 3.957,1.95 5.65,3.131 0.105,0.073 0.536,0.33 0.644,0.411l2.944 2.436 1.553 1.499c0.644,0.653 0.53,0.466 -0.769,-0.961 1.619,1.57 2.284,2.322 3.51,4.018 -0.717,-0.865 -1.169,-1.413 -1.428,-1.673l0.301 0.375c1.555,1.882 2.415,3.288 3.612,5.192 0.136,0.219 0.023,0.014 -0.197,-0.377l-1.633 -2.58c-0.09,-0.128 0.003,-0.219 0.796,1.048 1.441,2.304 2.483,4.244 3.278,6.474 0.454,1.273 -0.667,-1.484 -0.114,0.016 1.725,4.674 2.399,8.706 2.245,14.027 0.168,-2.81 -0.06,-5.208 -0.102,-5.871 -0.023,-0.332 0.009,-0.233 0.101,0.465 0.167,1.438 0.205,4.397 0.09,5.984 -0.131,1.801 -0.053,-0.34 -0.091,0.108l-0.17 1.594c0.165,-0.804 0.139,-0.432 0.067,0.174l-0.75 3.967 0.683 -4.137c-0.406,2.193 -0.322,2.441 -1.167,5.391l0.25 -0.597 -0.321 1.291c-0.694,2.255 -1.754,4.591 -2.805,6.572 -0.024,0.046 0.095,-0.13 -0.07,0.182 -0.24,0.416 -0.871,1.396 -1.71,2.778l1.493 -2.237c-0.095,0.17 -0.412,0.734 -0.744,1.248l-0.296 0.536c1.126,-1.572 2.11,-3.232 2.916,-4.91 0.463,-0.995 0.693,-1.524 0.393,-0.829 -1.392,3.207 -3.785,6.568 -3.775,6.562l0.352 -0.364 -0.163 0.277c0.263,-0.332 0.61,-0.775 0.366,-0.373 1.939,-2.78 3.243,-5.323 4.373,-8.451 -1.125,3.273 -2.747,6.329 -4.598,8.991 -0.266,0.371 -0.383,0.54 -0.354,0.516 0.509,-0.416 2.357,-3.427 3.054,-4.732 0.86,-1.61 1.7,-3.653 2.278,-5.459 -0.331,1.746 -1.843,5.009 -3.47,7.726 -0.729,1.218 -1.557,2.327 -2.312,3.32 -0.5,0.642 -0.019,0.16 -0.052,0.208l-1.996 2.432zm-13.036 13.017c-2.071,0.66 -3.609,1.014 -5.748,1.375 0.864,-0.176 1.159,-0.258 1.601,-0.383 0.443,-0.131 1.046,-0.24 2.487,-0.648l-1.224 0.306c-0.527,0.113 -0.917,0.185 -0.422,0.045 -6.048,1.401 -13.747,1.612 -21.556,-1.026 -11.279,-3.812 -20.272,-12.634 -24.247,-23.844l-0.917 -2.958c-0.183,-0.782 -0.183,-1.241 -0.401,-1.979 -0.106,-0.358 -0.198,-0.532 -0.258,-0.88 -0.405,-2.522 -0.571,-3.662 -0.643,-6.109 -0.011,-0.573 0,-0.525 0.014,-0.311 0.03,0.425 0.078,1.497 0.049,-0.457l0.199 -4.617 -0.071 0.445c-0.01,0.129 0.06,-1.313 0.458,-3.443 0.79,-4.227 2.43,-8.654 4.598,-12.367 0.341,-0.563 0.667,-1.099 0.66,-1.072 5.591,-9.05 14.911,-15.429 25.258,-17.52l-2.232 0.57c0.027,-0.009 -0.165,0.05 0.406,-0.103l3.892 -0.822c2.93,-0.429 5.713,-0.502 8.437,-0.305 2.723,0.2 5.396,0.668 8.117,1.434l-0.382 -0.09 -3.082 -0.684c3.658,0.701 7.88,2.107 11.184,3.944l-3.032 -1.409c4.008,1.751 7.493,3.888 11.004,7.145l-1.589 -1.364c1.976,1.713 3.561,3.178 5.435,5.5 4.45,5.512 7.576,12.667 8.361,20.292 0.356,3.458 0.255,8.163 -0.549,11.678l-1.247 4.98c-0.082,0.279 -0.338,0.948 -0.414,1.187l1.332 -3.979c-0.152,0.595 -0.117,0.493 0.001,0.078l0.636 -2.636c-0.518,2.626 -1.138,4.552 -1.878,7.023l-0.499 1.625c1.088,-2.564 1.592,-4.043 2.286,-6.823 -0.348,1.553 -0.744,3.006 -1.266,4.489 0.012,-0.021 0.321,-0.78 0.209,-0.376 1.186,-2.985 2.093,-7.878 2.254,-11.429 0.413,-9.152 -2.439,-18.395 -8.009,-25.715 -2.835,-3.724 -6.596,-7.348 -10.599,-9.831 -3.033,-1.882 -6.282,-3.242 -9.794,-4.321 -0.358,-0.106 -0.654,-0.18 -0.856,-0.236 -0.407,-0.107 -0.448,-0.108 0.086,0.049 0.353,0.091 1.588,0.489 2.441,0.783l-1.845 -0.576 -3.89 -0.985c-0.429,-0.086 -0.68,-0.141 -0.647,-0.146l-3.809 -0.481c-4.246,-0.212 0.676,0.093 -0.858,0.026 -2.739,-0.166 -5.804,-0.002 -8.726,0.493l1.869 -0.208 -1.504 0.257c-6.458,1.131 -12.444,3.674 -17.558,7.591 -3.042,2.329 -5.294,4.346 -7.712,7.64l-0.398 0.615c1.276,-1.661 2.159,-2.791 3.639,-4.312l-0.694 0.765c-1.571,1.675 -3.572,4.307 -4.738,6.257 -0.188,0.315 -0.114,0.198 0.532,-0.832 -3.335,5.429 -5.247,10.658 -5.958,16.93 -0.315,2.778 -0.319,5.513 -0.144,8.143 0.08,1.057 0.19,1.772 0.193,1.435 0.453,3.754 1.559,7.767 2.946,10.841l-0.275 -0.707c-0.601,-1.502 -1.521,-4.244 -1.866,-5.945 0.493,2.3 1.778,5.711 2.782,7.819 1.207,2.533 2.515,4.658 4.147,6.882 0.257,0.34 0.346,0.46 0.142,0.218 -1.023,-1.174 -3.516,-5.254 -4.525,-7.552l-0.666 -1.468c1.251,3.033 3.317,6.854 5.296,9.208l2.188 2.62c2.326,2.562 5.706,5.178 8.652,6.971 1.128,0.697 2.566,1.485 4.524,2.357 -0.739,-0.362 0.646,0.275 1.646,0.669l0.452 0.154c-0.271,-0.114 -0.696,-0.266 -1.29,-0.541 3.985,1.664 6.979,2.285 11.036,2.783 0.686,0.078 0.518,0.067 -0.119,0.003 -2.526,-0.267 -3.815,-0.517 -6.307,-1.133 2.585,0.673 4.797,1.091 7.531,1.276 2.971,0.212 5.386,0.013 4.276,0.097l-2.129 0.031c1.548,0.061 2.752,0 3.825,-0.078l-0.569 -0.006c1.768,-0.151 3.433,-0.274 5.217,-0.698 -2.853,0.497 -5.183,0.732 -8.051,0.675 3.064,0.078 7.5,-0.448 10.511,-1.351l-3.123 0.633c-0.092,0.01 0.045,-0.021 0.631,-0.132l3.287 -0.816c0.636,-0.188 1.469,-0.496 1.197,-0.432 -0.805,0.228 -2.075,0.67 -2.778,0.768 -0.167,0.019 0.693,-0.124 3.172,-0.931 -0.534,0.144 0.004,-0.043 -0.014,-0.04l0.012 0.002zm25.657 -10.596c1.616,-2.264 2.923,-4.253 4.249,-6.784 0.151,-0.275 0.009,0.023 -0.295,0.621 -1.124,2.098 -2.202,3.709 -3.532,5.606 -0.175,0.248 -0.281,0.399 -0.284,0.401l2.237 -3.204 -0.285 0.479c-2.147,3.349 -5.404,7.198 -8.417,9.826l1.678 -1.595c1.752,-1.693 3.095,-3.32 4.65,-5.363l-0.001 0.013zm-15.402 -13.134l-0.998 1.303 0.994 -1.3 0.004 -0.003zm-1.882 -27.489c-0.699,-1.339 0.911,1.595 0.807,1.8l-0.807 -1.8zm-18.787 -13.953l-0.622 -0.097c0.313,0.045 0.7,0.101 0.622,0.097zm-2.681 -0.241l-1.015 -0.049 1.015 0.052 0 -0.003zm-2.15 0.028c-0.112,0.033 -0.825,0.061 -0.802,0.053 0.063,-0.017 0.898,-0.081 0.802,-0.053zm-13.391 4.829c0.496,-0.536 3.236,-2.022 3.956,-2.406l2.903 -1.149c-2.496,0.826 -4.784,2.074 -6.859,3.555zm-5.861 32.346c-0.021,-0.03 -0.435,-0.699 -0.48,-0.769 -0.271,-0.479 0.284,0.362 0.48,0.769zm12.978 11.392c0.022,0.011 -0.342,-0.102 -0.76,-0.251 -0.673,-0.239 0.601,0.181 0.76,0.251zm0.808 0.273c2.215,0.591 3.171,0.68 5.496,0.897 -1.938,-0.101 -4.499,-0.361 -6.29,-1.075 -0.175,-0.064 -0.286,-0.106 -0.29,-0.106l1.027 0.301c0.078,0.017 -0.373,-0.127 0.06,-0.02l-0.003 0.003zm18.454 -2.028l0.969 -0.521 -1.144 0.629c-0.123,0.059 -0.022,-0.001 0.178,-0.104l-0.003 -0.004zm1.361 -1.053l1.156 -0.745 -1.576 1.016c-0.047,0.023 0.157,-0.093 0.423,-0.274l-0.003 0.003zm2 -1.598l0 0zm0.162 0.207c-0.398,0.336 -0.2,0.09 0.086,-0.103 0.081,-0.054 0.022,0.011 -0.086,0.103zm1.337 -1.289l0.291 -0.274 -0.386 0.357c0.048,-0.046 0.051,-0.043 0.096,-0.089l-0.001 0.006zm1.955 -2.094l-0.685 0.747c-0.921,0.949 0.296,-0.326 0.682,-0.751l0.003 0.004zm-42.315 -23.115l-0.124 0.384 0.147 -0.513 0.006 0.001c-0.01,0.045 -0.022,0.089 -0.033,0.131l0.004 -0.003zm36.068 52.945c-2.906,0.847 -7.251,1.59 -10.279,1.599l1.448 -0.104c0.15,-0.014 -0.753,0.036 0.096,-0.04 4.116,-0.376 6.229,-0.774 10.432,-1.961 -0.304,0.088 -0.928,0.273 -1.703,0.502l0.006 0.004zm-11.889 1.557c-1.361,0.004 1.201,-0.035 1.53,-0.044 0.048,0.003 -0.681,0.036 -1.53,0.044zm26.528 -35.86l0.341 -0.863c0.104,-0.257 0.185,-0.445 0.185,-0.445 0,0 -0.399,1.055 -0.526,1.308zm-0.728 1.74l-0.22 0.417 0.273 -0.564c0,0 0.004,0 0.01,0.004 -0.022,0.046 -0.045,0.094 -0.069,0.143l0.006 0zm-1.383 2.095c0.059,-0.055 0.612,-0.956 0.594,-0.921 -0.282,0.622 -1.303,1.999 -0.594,0.921zm0.284 0.18c-0.314,0.533 -0.195,0.179 0.056,-0.153 0.07,-0.09 0.033,0.002 -0.056,0.153zm-2.069 3.207l0 0zm-15.272 9.942c-2.087,0.665 -4.3,0.993 -6.433,1.043l0.914 -0.083c0.095,-0.014 -0.471,0.012 0.058,-0.049 3.196,-0.372 3.354,-0.403 6.524,-1.242l-1.063 0.331zm-7.446 0.964c-0.857,-0.002 0.753,-0.039 0.96,-0.035 0.033,0.002 -0.427,0.03 -0.96,0.035zm-23.864 -47.825c1.788,-2.159 2.771,-3.34 5.083,-5.154 -2.515,2.038 -4.434,4.164 -6.245,6.813 0.026,-0.126 0.566,-0.884 1.158,-1.662l0.004 0.003zm11.904 -9.286c-0.111,0.085 -0.905,0.401 -0.881,0.383 0.061,-0.049 0.976,-0.453 0.881,-0.383zm0.33 -0.21l2.058 -0.705 -2.051 0.754 -0.008 -0.046 0.001 -0.003zm5.142 -1.532c-0.129,0.038 -0.75,0.182 -0.934,0.211 -0.893,0.171 1.116,-0.27 0.934,-0.211zm-12.501 50.705l0 0zm-10.896 -19.306l-0.02 -0.479 0.041 0.639c-0.006,-0.052 -0.012,-0.105 -0.017,-0.16l-0.004 0zm50.848 -22.889l0.721 0.821 -1.714 -1.72c-0.055,-0.068 0.48,0.386 0.996,0.903l-0.003 -0.004zm-3.431 31.657c-0.022,0.042 -0.272,0.48 -0.38,0.624 -0.538,0.667 0.689,-1.261 0.38,-0.624zm-1.65 3.352l0.458 -0.541c0.074,-0.049 -0.188,0.237 -0.458,0.541l0 0zm-26.656 4.423c0.253,0.131 0.253,0.127 0.517,0.236 0.442,0.257 0.034,0.108 -0.517,-0.236zm26.537 -32.499c1.092,1.212 3.135,4.156 3.666,5.776l-0.64 -1.303 -0.916 -1.621 0.758 1.473c0.094,0.196 0.049,0.129 -0.078,-0.112 -0.961,-1.941 -1.84,-3.013 -3.145,-4.618 -0.059,-0.072 0.043,0.038 0.365,0.412l-0.01 -0.007zm30.006 70.895c0.055,-0.041 0.131,-0.102 0.238,-0.191 -0.081,0.064 -0.157,0.126 -0.238,0.191zm-26.155 -44.669c0.537,-1.142 -0.599,1.411 -0.789,1.446l0.789 -1.446zm-0.22 -19.54l-0.249 -0.463c0.128,0.231 0.286,0.517 0.249,0.463zm-1.195 -1.904l-0.479 -0.699 0.477 0.701 0.002 -0.002zm-1.104 -1.414c-0.079,-0.058 -0.458,-0.518 -0.441,-0.507 0.043,0.034 0.507,0.556 0.441,0.507zm-9.978 -6.461c0.608,0.059 2.979,1.128 3.599,1.413l2.23 1.35c-1.81,-1.243 -3.796,-2.132 -5.829,-2.763zm-24.463 12.45c0.01,-0.029 0.245,-0.641 0.269,-0.707 0.181,-0.422 -0.098,0.371 -0.269,0.707zm-1.013 14.384c0.003,0.021 -0.105,-0.279 -0.218,-0.632 -0.181,-0.568 0.184,0.491 0.218,0.632zm0.226 0.675c0.727,1.771 1.151,2.452 2.182,4.107 -0.913,-1.339 -2.034,-3.173 -2.464,-4.724 -0.046,-0.149 -0.075,-0.244 -0.076,-0.246l0.319 0.834c0.027,0.06 -0.105,-0.312 0.043,0.03l-0.004 -0.001zm10.674 11.242l0.837 0.381 -0.997 -0.442c-0.101,-0.053 -0.01,-0.016 0.16,0.065l0 -0.004zm1.388 0.373l1.08 0.392 -1.472 -0.535c-0.039,-0.019 0.141,0.058 0.396,0.143l-0.004 0zm2.074 0.522l0 0zm-0.056 0.211c-0.425,-0.094 -0.161,-0.087 0.112,0.006 0.077,0.026 0.004,0.02 -0.112,-0.006zm1.532 0.238l0.329 0.055 -0.432 -0.076c0.055,0.008 0.054,0.012 0.108,0.018l-0.005 0.003zm2.381 0.241l-0.844 -0.078c-1.096,-0.132 0.366,0.033 0.844,0.074l0 0.004zm-6.021 -39.809l-0.318 0.112 0.415 -0.162 0.003 0.005c-0.035,0.015 -0.07,0.03 -0.104,0.045l0.004 0zm16.779 57.609l1.834 -0.502c0,0 -1.461,0.425 -1.836,0.5l0.002 0.002zm-6.167 1.146l0.259 0c-0.397,0.038 -0.416,0.025 -0.259,0l0 0zm-1.56 0.049l-2.197 0.009 1.64 -0.009 0.557 0zm-3.179 0.199l-0.382 -0.042 0.384 0.044 -0.002 -0.002zm-22.838 -8.27c-2.032,-1.504 -4.722,-4.017 -6.258,-6.026l0.801 0.911c0.085,0.092 -0.404,-0.482 0.075,0.044 2.33,2.545 3.662,3.749 6.576,5.942 -0.212,-0.157 -0.651,-0.478 -1.195,-0.878l0.001 0.007zm-7.044 -7.116c-0.69,-0.903 0.631,0.78 0.802,0.994 0.023,0.034 -0.368,-0.434 -0.802,-0.994zm34.951 14.91c0.105,0.01 1.526,-0.142 1.471,-0.137 -0.902,0.169 -3.205,0.262 -1.471,0.137zm2.945 -0.272l0.627 -0.116 0.002 0.005 -0.838 0.145 0.208 -0.04 0.001 0.006zm-45.298 -41.661l-0.064 0.935 0.066 -1.009 -0.002 0.074zm12.462 -26.802l0.481 -0.419 0.005 0.006 -0.641 0.561c0.052,-0.048 0.105,-0.096 0.158,-0.143l-0.003 -0.005zm26.445 -10.031c3.543,0.096 5.979,0.299 9.554,1.209 -4.093,-1.011 -8.067,-1.354 -12.246,-1.109 0.154,-0.043 1.394,-0.101 2.694,-0.098l-0.002 -0.002zm19.424 5.125c-0.17,-0.071 -1.159,-0.633 -1.121,-0.62 0.097,0.036 1.264,0.676 1.121,0.62zm0.468 0.215l2.139 1.359 -1.252 -0.773 -0.886 -0.583 -0.001 -0.003zm5.054 3.537l-0.225 -0.168c-0.469,-0.385 -0.16,-0.157 0.223,0.169l0.002 -0.001zm14.04 36.661l-0.367 1.984 0.303 -1.819 0.254 -1.95c0.018,-0.114 -0.05,0.821 -0.19,1.785l0 0zm-0.46 0.952c-0.005,0.04 -0.027,0.173 -0.076,0.423 0.041,-0.225 0.07,-0.379 0.076,-0.423zm0.684 4.993c0.234,-0.729 0.427,-1.504 0.426,-1.467 -0.082,0.594 -1.503,4.831 -0.425,1.469l-0.001 -0.002zm-18.011 -46.843c-0.209,-0.113 -0.639,-0.394 -1.18,-0.691 0.48,0.247 0.478,0.248 0.946,0.516 0.412,0.264 0.438,0.292 0.232,0.173l0.002 0.002zm-21.187 76.409c2.321,-0.07 4.303,-0.207 6.657,-0.604 0.258,-0.038 -0.012,0.018 -0.563,0.118 -1.963,0.313 -3.578,0.411 -5.511,0.486 -0.254,0.008 -0.407,0.014 -0.411,0.014l3.261 -0.133 -0.463 0.053c-3.31,0.265 -7.514,0.046 -10.785,-0.63l1.909 0.31c2.01,0.309 3.77,0.379 5.914,0.38l-0.008 0.006zm5.726 -17.683l0.746 -0.209c0.224,-0.061 0.39,-0.102 0.39,-0.102 0,0 -0.903,0.268 -1.136,0.311zm-1.524 0.396l-0.388 0.064 0.513 -0.103c0,0 0.001,0.002 0.002,0.008 -0.042,0.009 -0.085,0.018 -0.13,0.026l0.003 0.005zm-2.091 0.139c0.066,0.011 0.944,-0.076 0.912,-0.07 -0.556,0.126 -1.987,0.143 -0.912,0.07zm0.023 0.28c-0.513,0.06 -0.217,-0.039 0.13,-0.04 0.096,0.001 0.015,0.022 -0.13,0.04zm-1.188 -0.007l-1.37 -0.005 1.366 0.004 0.004 0.001zm-1.989 0.253l0 0zm-14.327 -5.128c-1.496,-1.052 -2.833,-2.357 -3.944,-3.749l0.517 0.566c0.057,0.056 -0.246,-0.308 0.062,0.014 1.862,1.936 1.963,2.025 4.123,3.708l-0.758 -0.539zm-4.403 -4.462c-0.432,-0.571 0.406,0.481 0.508,0.621 0.015,0.022 -0.236,-0.269 -0.508,-0.621zm19.729 -40.032c2.34,0.097 3.621,0.154 5.995,0.774 -2.625,-0.642 -5.009,-0.844 -7.685,-0.709 0.097,-0.046 0.874,-0.07 1.691,-0.069l-0.001 0.004zm12.189 3.22c-0.113,-0.031 -0.724,-0.399 -0.7,-0.392 0.063,0.015 0.794,0.42 0.7,0.392zm0.306 0.112l1.509 1.012 -1.538 -0.982 0.027 -0.028 0.002 -0.002zm3.617 2.644c-0.091,-0.066 -0.5,-0.407 -0.612,-0.514 -0.565,-0.507 0.743,0.605 0.612,0.514zm-40.022 17.316l0 0zm7.327 -16.999l0.308 -0.256 -0.405 0.35c0.032,-0.03 0.065,-0.061 0.098,-0.092l-0.001 -0.002zm18.134 35.95c-0.038,0.006 -0.456,0.061 -0.606,0.062 -0.716,-0.021 1.186,-0.179 0.606,-0.062zm-3.061 0.597l0.591 0.03c0.069,0.025 -0.253,-0.005 -0.591,-0.03l0 0zm-16.412 -15.483c0.041,0.233 0.044,0.232 0.105,0.462 0.052,0.423 -0.055,0.077 -0.105,-0.462zm35.014 1.215c-0.254,1.338 -1.178,4.184 -1.987,5.356l0.543 -1.085 0.614 -1.428 -0.595 1.249c-0.083,0.161 -0.061,0.097 0.034,-0.109 0.805,-1.62 1.074,-2.746 1.481,-4.425 0.018,-0.074 -0.004,0.048 -0.09,0.451l0 -0.009z"/>
   </g>
  </g>
  <path fill="none" d="M91.234 163.341c0.06,-0.29 0.117,-0.718 0.209,-2.252 0.091,-1.534 0.216,-4.174 0.518,-9.369 0.303,-5.195 0.782,-12.944 1.164,-18.604 0.382,-5.659 0.667,-9.229 1.038,-13.175 0.37,-3.946 0.826,-8.268 1.397,-12.773 0.57,-4.505 1.254,-9.192 2.132,-14.518 0.879,-5.326 1.95,-11.291 2.766,-15.197 0.815,-3.906 1.374,-5.753 1.733,-6.921 0.358,-1.167 0.516,-1.655 0.64,-1.921 0.123,-0.267 0.212,-0.313 0.296,-0.305 0.084,0.008 0.164,0.069 0.266,0.183 0.103,0.113 0.228,0.278 0.391,0.627 0.163,0.349 0.362,0.88 0.684,1.602 0.321,0.721 0.764,1.632 1.146,2.525 0.381,0.893 0.7,1.768 0.836,2.443 0.135,0.674 0.087,1.147 0.127,1.679 0.04,0.532 0.168,1.122 0.504,1.619 0.337,0.498 0.881,0.903 1.195,1.44 0.314,0.538 0.396,1.208 0.602,2.158 0.205,0.951 0.533,2.183 0.646,3.113 0.112,0.929 0.009,1.556 -0.098,2.148 -0.106,0.591 -0.218,1.148 -0.101,1.705 0.117,0.557 0.462,1.116 0.865,1.635 0.404,0.519 0.866,0.998 1.149,1.313 0.284,0.315 0.39,0.466 0.491,0.609 0.101,0.142 0.198,0.276 0.351,0.879 0.152,0.603 0.36,1.675 0.439,2.419 0.078,0.745 0.027,1.161 -0.003,1.576 -0.03,0.415 -0.039,0.828 -0.073,1.354 -0.034,0.526 -0.094,1.165 -0.085,1.751 0.008,0.586 0.085,1.119 0.46,1.91 0.375,0.791 1.048,1.84 1.685,2.689 0.637,0.848 1.239,1.495 1.643,1.902 0.404,0.407 0.611,0.574 0.797,0.87 0.186,0.296 0.351,0.72 0.488,1.263 0.137,0.544 0.246,1.205 0.304,1.972 0.058,0.767 0.067,1.64 0.054,2.608 -0.013,0.968 -0.047,2.031 0.15,2.999 0.197,0.968 0.624,1.84 1.101,2.577 0.476,0.738 1,1.339 1.389,1.826 0.39,0.488 0.644,0.862 0.856,1.23 0.213,0.367 0.384,0.729 0.555,1.154 0.171,0.425 0.342,0.913 0.472,1.479 0.13,0.566 0.218,1.21 0.339,1.795 0.121,0.584 0.275,1.108 0.375,1.699 0.1,0.59 0.145,1.246 0.32,2.204 0.174,0.958 0.476,2.218 0.678,3.273 0.203,1.055 0.305,1.904 0.416,2.657 0.112,0.753 0.231,1.409 0.325,2.284 0.094,0.875 0.163,1.97 0.294,2.774 0.131,0.804 0.325,1.317 0.465,2.09 0.14,0.772 0.225,1.805 0.299,2.412 0.074,0.607 0.137,0.79 0.288,0.952 0.104,0.112 0.251,0.215 0.437,0.32 -0.079,-0.368 -0.154,-0.732 -0.127,-0.999 0.028,-0.278 0.168,-0.45 0.332,-0.556 0.164,-0.105 0.352,-0.145 0.75,-0.063 0.398,0.082 1.007,0.284 1.729,0.399 0.723,0.115 1.56,0.144 2.868,0.151 1.309,0.007 3.089,-0.007 5.568,-0.327 2.479,-0.319 5.657,-0.943 8.788,-1.599 3.132,-0.656 6.217,-1.344 9.657,-2.107 3.44,-0.762 7.234,-1.599 10.248,-2.124 3.014,-0.525 5.249,-0.737 8.16,-0.854 2.912,-0.118 6.502,-0.139 10.137,0.024 3.635,0.163 7.316,0.511 9.976,0.862 2.66,0.351 4.298,0.706 5.688,1.227 1.391,0.522 2.533,1.21 3.226,1.734 0.693,0.524 0.938,0.884 1.054,1.193 0.116,0.309 0.104,0.568 -0.007,0.887 -0.11,0.319 -0.318,0.698 -0.526,1.077 0.192,-0.063 0.354,-0.202 0.566,-0.399 0.232,-0.218 0.523,-0.509 0.64,-0.957 0.116,-0.447 0.059,-1.052 0.065,-2.577 0.006,-1.525 0.074,-3.972 0.052,-6.694 -0.023,-2.724 -0.137,-5.723 -0.194,-7.553 -0.057,-1.831 -0.057,-2.492 -0.057,-3.427 0,-0.936 0,-2.144 -0.029,-3.276 -0.028,-1.132 -0.085,-2.187 -0.111,-3.279 -0.025,-1.092 -0.02,-2.221 -0.091,-4.009 -0.072,-1.787 -0.22,-4.234 -0.3,-6.212 -0.079,-1.979 -0.091,-3.49 -0.231,-7.51 -0.139,-4.02 -0.407,-10.55 -0.929,-16.996 -0.522,-6.446 -1.297,-12.81 -2.278,-18.854 -0.981,-6.045 -2.167,-11.77 -3.341,-17.21 -1.175,-5.44 -2.338,-10.594 -3.867,-15.864 -1.528,-5.268 -3.421,-10.651 -5.246,-15.498 -1.824,-4.847 -3.581,-9.158 -4.618,-11.657 -1.038,-2.499 -1.357,-3.186 -1.494,-3.631 -0.137,-0.445 -0.092,-0.647 0.009,-0.803 0.102,-0.155 0.258,-0.263 0.386,-0.349 0.014,-0.01 0.028,-0.019 0.041,-0.029 -0.042,-0.002 -0.088,-0.005 -0.144,-0.008 -0.105,-0.005 -0.243,-0.013 -0.693,-0.048 -0.449,-0.035 -1.21,-0.098 -2.217,-0.107 -1.008,-0.008 -2.262,0.038 -3.577,0.132 -1.316,0.095 -2.692,0.24 -4.839,0.609 -2.148,0.368 -5.068,0.962 -7.478,1.498 -2.41,0.535 -4.311,1.014 -6.805,1.509 -2.494,0.494 -5.581,1.003 -8.679,1.418 -3.098,0.414 -6.208,0.733 -9.971,1.076 -3.764,0.341 -8.181,0.707 -11.872,0.965 -3.692,0.259 -6.657,0.41 -9.367,0.559 -2.711,0.148 -5.167,0.292 -7.957,0.403 -2.79,0.11 -5.915,0.186 -9.017,0.251 -3.102,0.064 -6.181,0.117 -9.116,0.11 -2.935,-0.008 -5.725,-0.076 -8.341,-0.137 -2.615,-0.061 -5.056,-0.114 -7.698,-0.194 -2.642,-0.08 -5.486,-0.186 -8.975,-0.285 -3.49,-0.099 -7.626,-0.19 -12.01,-0.217 -4.383,-0.026 -9.013,0.012 -12.845,0.008 -3.832,-0.004 -6.865,-0.049 -10.876,-0.205 -4.011,-0.156 -8.998,-0.422 -12.585,-0.69 -3.587,-0.268 -5.773,-0.538 -7.362,-0.856 -1.59,-0.318 -2.583,-0.683 -3.577,-1.049 0.044,0.064 0.021,0.188 -0.027,0.625 -0.062,0.551 -0.164,1.597 -0.449,3.521 -0.286,1.925 -0.753,4.728 -1.058,6.779 -0.305,2.052 -0.448,3.352 -0.79,5.493 -0.342,2.141 -0.884,5.124 -1.32,7.752 -0.436,2.629 -0.767,4.904 -1.029,6.823 -0.263,1.919 -0.457,3.481 -0.636,5.294 -0.18,1.814 -0.345,3.878 -0.525,6.376 -0.18,2.497 -0.373,5.428 -0.567,8.701 -0.194,3.273 -0.388,6.888 -0.53,10.743 -0.143,3.855 -0.234,7.949 -0.206,12.14 0.029,4.192 0.177,8.48 0.468,12.648 0.291,4.169 0.724,8.217 1.009,11.855 0.285,3.638 0.422,6.865 0.485,10.435 0.063,3.57 0.051,7.481 0.091,11.969 0.04,4.488 0.131,9.552 0.223,13.777 0.091,4.225 0.182,7.612 0.266,9.945 0.084,2.332 0.162,3.609 0.193,4.373 0.031,0.764 0.017,1.015 0.027,2.23 0.01,1.214 0.044,3.393 0.078,4.946 0.035,1.554 0.069,2.484 0.137,3.037 0.068,0.553 0.171,0.73 0.482,1.055 0.311,0.325 0.83,0.798 2.632,1.177 1.802,0.38 4.886,0.665 7.829,0.918 2.942,0.254 5.742,0.476 10.492,0.73 4.75,0.254 11.451,0.539 16.4,0.753 4.95,0.214 8.149,0.356 10.954,0.382 2.806,0.026 5.218,-0.066 7.656,-0.143 2.438,-0.077 4.901,-0.139 7.25,-0.216 2.35,-0.077 4.585,-0.168 7.735,-0.565 3.151,-0.396 7.217,-1.098 9.757,-1.616 2.54,-0.519 3.556,-0.856 4.448,-1.309 0.892,-0.453 1.662,-1.024 2.078,-1.386 0.417,-0.362 0.479,-0.516 0.539,-0.807z"/>
 </g>
</svg>
