<?xml version="1.0" encoding="UTF-8"?>
<!DOCTYPE svg PUBLIC "-//W3C//DTD SVG 1.1//EN" "http://www.w3.org/Graphics/SVG/1.1/DTD/svg11.dtd">
<!-- Creator: CorelDRAW 2018 (64 Bit Versão de avaliação) -->
<svg xmlns="http://www.w3.org/2000/svg" xml:space="preserve" width="181px" height="149px" version="1.1" shape-rendering="geometricPrecision" text-rendering="geometricPrecision" image-rendering="optimizeQuality" fill-rule="evenodd" clip-rule="evenodd"
viewBox="0 0 195683 161298"
 xmlns:xlink="http://www.w3.org/1999/xlink">
 <g id="Camada_x0020_1">
  <metadata id="CorelCorpID_0Corel-Layer"/>
  <path id="d1" fill="#F00808" d="M190086 95367l4578 -550 -30 -774 -2490 295 2490 -306 -61 -1504 -1632 192 1631 -206c-30,-698 -62,-1430 -98,-2189 -1941,216 -3902,442 -5881,678l0 0 0 0c-14005,1673 -27042,3641 -38077,5671 10107,-563 21785,-1561 34256,-2978 -14047,1700 -27143,3404 -38408,4976 10133,-1007 21719,-2257 34119,-3696 -8158,1026 -15771,2063 -22487,3051 8218,-755 17742,-1754 27931,-2947 -19281,2317 -37268,4606 -52655,6680 16015,-1667 34802,-3768 54898,-6164 -10997,1321 -21251,2689 -29987,3974 1913,-176 3896,-364 5943,-566 -2037,286 -4009,569 -5910,849 7221,-664 15450,-1515 24252,-2521 -8728,1088 -16867,2191 -23990,3241 8997,-826 19568,-1945 30865,-3294 -18878,2254 -36483,4627 -51414,6878 13126,-1160 28253,-2709 44438,-4583 -4281,574 -8285,1170 -11871,1760 5397,-404 11701,-1015 18435,-1810 -16523,1980 -31926,4089 -45014,6113 7805,-659 16405,-1480 25547,-2448 -975,173 -1928,348 -2857,525 5227,-265 11144,-729 17461,-1391 -18086,2207 -34938,4480 -49444,6636 14083,-1275 30311,-2956 47677,-4970 -5066,666 -9802,1351 -14030,2023 6374,-513 13858,-1263 21850,-2217 -15589,1862 -30109,3977 -42407,6107 12454,-826 27063,-2190 42653,-4052 1563,-186 3115,-376 4656,-567 -33,-657 -64,-1303 -88,-1903l-6 -147c-1591,182 -3194,369 -4808,562 1626,-194 3230,-392 4807,-592 -51,-1305 -72,-2435 -129,-4371 -1500,174 -3010,351 -4528,532 1535,-185 3045,-375 4526,-567 -18,-624 -40,-1331 -68,-2154 -1784,208 -3579,420 -5386,636 1816,-217 3612,-435 5386,-654l-14 -397 -50 -1396c-1511,174 -3038,353 -4579,535zm-22459 48980c723,-13 1550,-28 2413,-45 5566,-548 11597,-1190 17927,-1914 154,-90 263,-174 357,-237 152,-102 266,-148 573,-258 306,-110 806,-284 1386,-483 579,-200 1239,-425 1759,-648 520,-222 900,-442 1145,-582 246,-140 358,-200 538,-211 181,-10 430,28 638,-23 208,-50 374,-188 595,-396 98,-92 208,-199 309,-326l-211 25 211 -25c126,-158 239,-349 300,-585 75,-286 75,-639 69,-1280l-1485 176 1485 -179c-4,-313 -8,-695 -6,-1171 1,-303 5,-645 10,-1018 -420,47 -841,95 -1265,145l1265 -153c16,-1197 45,-2727 43,-4408 -763,86 -1534,175 -2311,268 774,-93 1545,-186 2311,-282 0,-305 -2,-614 -4,-927 -3,-377 -9,-760 -15,-1143 -841,96 -1687,195 -2537,296 -11238,1343 -21692,2972 -30536,4689 9000,-413 19544,-1291 30781,-2633 -5761,688 -11127,1472 -15671,2264 3081,-201 6520,-492 10184,-869 -12506,1553 -24153,3201 -34222,4811 10543,-836 22744,-2032 35790,-3544 -4534,635 -8751,1381 -12445,2182 683,-17 1382,-39 2097,-67 -6566,908 -12723,1849 -18294,2787 9527,-676 20686,-1740 32598,-3155 -4852,588 -9368,1270 -13210,1969 2615,-150 5523,-381 8619,-687 -11652,1450 -22502,3003 -31879,4531 10858,-829 23604,-2081 37212,-3706 -8144,972 -15734,2022 -22171,3040 5176,-419 11069,-992 17371,-1699 -6337,802 -12242,1638 -17407,2454 1381,-112 2813,-236 4289,-368 -1466,217 -2887,435 -4255,651 6347,-516 13767,-1260 21697,-2199 -14486,1735 -28000,3492 -39495,5109 11140,-1094 24134,-2504 38037,-4151 -7341,901 -14178,1856 -20056,2785 4879,-397 10393,-928 16284,-1579 -7449,924 -14476,1862 -20818,2769zm9600 -245c1049,-53 1885,-126 2945,-255 1657,-201 3861,-537 5223,-773 1362,-237 1881,-373 2235,-519 66,-27 127,-55 182,-82 -3666,507 -7208,1053 -10585,1629zm18431 -15788c-6,-327 -13,-654 -21,-979 -884,103 -1773,208 -2667,315 897,-108 1786,-218 2666,-330 -42,-1795 -105,-3509 -142,-4702l-10 -347c-1031,119 -2069,241 -3113,365 -11437,1366 -22092,2894 -31119,4416 875,-62 1766,-128 2669,-197 -6367,875 -12407,1748 -18027,2604 7075,-615 14791,-1357 22969,-2214 -1105,185 -2188,371 -3244,557 6293,-399 13453,-1020 21102,-1853 -6690,904 -12917,1926 -18373,2993 3597,-162 7503,-417 11633,-766 -2248,369 -4389,750 -6398,1139 5668,-265 12309,-820 19387,-1665 -10313,1231 -19926,2560 -28076,3847 8224,-668 17880,-1640 28192,-2872 863,-103 1720,-207 2572,-311zm-180 -6222c-38,-1356 -38,-1943 -38,-2737 0,-891 0,-2042 -27,-3120l-5 -181c-1247,141 -2504,288 -3771,439 -10652,1273 -20575,2713 -28980,4160 6844,-461 14642,-1157 22975,-2074 -4211,610 -8139,1293 -11634,2011 3872,-135 8230,-431 12878,-891 -13514,1664 -26101,3413 -36956,5104 9338,-779 19912,-1814 31213,-3073 -20166,2473 -38964,4959 -55291,7285 9814,-948 20500,-2048 31819,-3280 -1722,261 -3405,522 -5046,781 11591,-941 25201,-2311 39736,-4047 1048,-125 2091,-251 3127,-377zm-71 -6071c-14,-470 -32,-927 -49,-1381 -1125,131 -2256,264 -3392,399 1139,-137 2270,-276 3391,-416 -19,-503 -38,-1002 -50,-1510 -6,-246 -10,-494 -14,-752 -1354,156 -2718,317 -4091,481 1373,-164 2737,-328 4091,-492l-10 -654c-1377,162 -2763,327 -4159,493 -14006,1673 -27077,3355 -38171,4890 10969,-1103 23834,-2519 37593,-4159 -13758,1651 -26578,3437 -37471,5174 5607,-447 11704,-1000 18158,-1651 -3040,465 -5945,938 -8687,1411 8313,-556 18044,-1464 28430,-2697 -14791,1773 -28577,3674 -40286,5511 11943,-984 25967,-2403 40946,-4192 1264,-151 2521,-303 3771,-455zm-131 -4753c-8,-449 -19,-943 -39,-1510l-773 90 773 -97 -17 -455c-21,-534 -50,-1129 -81,-1753 -1491,168 -2995,343 -4507,523 1513,-180 3015,-364 4505,-551l-105 -2045c-1537,174 -3086,355 -4646,541 -14092,1683 -27212,3631 -38321,5619 11265,-684 24475,-1881 38567,-3564 -14006,1673 -27043,3641 -38078,5672 10246,-572 22106,-1589 34771,-3038 -8971,1101 -17329,2237 -24546,3318 6322,-563 13493,-1290 21162,-2157 -8695,1085 -16803,2184 -23907,3230 9048,-832 19680,-1958 31040,-3315 1414,-169 2814,-338 4202,-508zm-804 -20980c-32,-663 -65,-1347 -103,-2047 -1992,229 -4000,465 -6021,706 -18846,2251 -36408,4730 -51292,7168 15040,-1134 32691,-2862 51537,-5112 1975,-236 3934,-474 5879,-715zm-113 -2232c-36,-671 -74,-1355 -115,-2050 -2040,236 -4094,478 -6161,725 2094,-250 4150,-506 6158,-765 -41,-705 -86,-1420 -134,-2142l-739 85 738 -99c-48,-722 -99,-1450 -153,-2180 -1891,218 -3798,442 -5720,670 1948,-235 3857,-476 5716,-722 -38,-511 -78,-1023 -119,-1533l-49 -592c-2141,248 -4300,503 -6476,762 2189,-261 4348,-524 6474,-789 -50,-591 -101,-1182 -155,-1773 -1835,210 -3695,427 -5576,651 1870,-224 3728,-448 5574,-671 -47,-510 -95,-1018 -145,-1526 -992,113 -1993,228 -3001,345 1005,-125 2004,-252 2998,-380 -72,-722 -146,-1442 -223,-2160 -2178,240 -4382,493 -6608,759 2226,-266 4428,-539 6602,-817 -73,-669 -148,-1336 -225,-2002 -2183,242 -4391,497 -6622,763 -14092,1683 -27212,3631 -38322,5619 11265,-684 24475,-1880 38567,-3563 -14005,1672 -27042,3640 -38077,5671 10245,-571 22106,-1589 34771,-3038 -8971,1101 -17330,2237 -24546,3319 6321,-564 13492,-1291 21159,-2157 -1712,213 -3401,428 -5064,641 -15876,1941 -30687,3842 -43652,5590 16016,-1668 34802,-3769 54898,-6165 -10997,1322 -21251,2689 -29987,3975 1913,-176 3896,-365 5943,-567 -2036,286 -4009,570 -5910,849 7221,-663 15450,-1514 24253,-2520 -8729,1087 -16868,2190 -23991,3240 8998,-826 19569,-1945 30865,-3294 -18877,2255 -36482,4627 -51414,6878 13123,-1159 28247,-2708 44428,-4581 -4278,573 -8278,1168 -11861,1758 5397,-404 11701,-1014 18436,-1810 -16524,1980 -31927,4089 -45015,6114 7805,-659 16404,-1481 25547,-2449 -975,174 -1928,349 -2857,525 5296,-268 11301,-741 17713,-1417 -13736,1696 -26529,3482 -37573,5214 10685,-880 22944,-2090 36059,-3587 -5258,686 -10168,1394 -14535,2088 6374,-512 13858,-1262 21850,-2217 -20849,2490 -40283,5192 -56756,7821 16629,-1325 36153,-3275 57002,-5765 2024,-242 4034,-486 6030,-731zm-1364 -16415c-79,-672 -162,-1342 -246,-2009 -2183,245 -4389,501 -6616,767 2250,-269 4457,-544 6609,-823 -91,-711 -184,-1420 -281,-2125l-792 92 790 -107c-99,-722 -201,-1441 -306,-2155 -1940,223 -3898,452 -5870,687 1999,-241 3957,-490 5862,-743 -103,-705 -210,-1406 -320,-2104 -2139,248 -4297,503 -6470,762 2185,-261 4343,-524 6466,-788l-161 -1004 -123 -754c-1791,205 -3605,417 -5440,634 1824,-218 3636,-436 5437,-653 -69,-415 -139,-827 -210,-1238 -1884,178 -3846,385 -5860,622 1971,-236 3921,-478 5843,-723 -121,-703 -245,-1403 -371,-2097 -673,60 -1352,123 -2039,191l2028 -251c-86,-473 -173,-943 -261,-1411l-541 61 539 -73 -125 -661c-1965,198 -3996,422 -6075,671 2047,-245 4068,-499 6058,-761 -126,-660 -253,-1315 -381,-1966 -1949,209 -3925,433 -5923,671 -11238,1342 -21692,2972 -30535,4689 8999,-413 19543,-1291 30781,-2633 -5762,688 -11127,1472 -15672,2264 3082,-201 6520,-492 10185,-869 -12506,1553 -24153,3201 -34222,4811 10542,-836 22743,-2032 35790,-3544 -4535,635 -8752,1380 -12446,2181 683,-16 1382,-38 2097,-66 -6566,908 -12723,1849 -18294,2787 9528,-676 20686,-1740 32599,-3155 -4853,588 -9369,1270 -13210,1969 1103,-63 2257,-141 3456,-233 -16560,2018 -32005,3997 -45462,5810 16016,-1667 34803,-3768 54899,-6164 -10998,1321 -21252,2689 -29988,3974 1913,-175 3897,-364 5943,-566 -2036,286 -4008,569 -5909,849 7220,-663 15449,-1515 24252,-2521 -8729,1088 -16867,2191 -23991,3241 8998,-826 19569,-1945 30865,-3294 -18877,2255 -36482,4627 -51414,6878 13127,-1160 28254,-2709 44439,-4583 -4282,574 -8286,1170 -11871,1759 5397,-403 11701,-1014 18435,-1809 -16523,1980 -31927,4089 -45014,6114 7805,-660 16404,-1481 25547,-2449 -975,173 -1928,349 -2857,525 5226,-265 11144,-729 17461,-1391 -18086,2207 -34939,4480 -49445,6636 14083,-1275 30312,-2955 47678,-4970 -5067,666 -9803,1351 -14030,2023 6374,-513 13858,-1263 21849,-2217 -15589,1862 -30109,3977 -42407,6107 12454,-827 27064,-2190 42653,-4052 2229,-266 4435,-537 6617,-813zm-2933 -18349l-186 -928c-1912,215 -3852,441 -5817,675 1977,-236 3914,-485 5802,-747 -334,-1656 -675,-3285 -1017,-4890 -1774,200 -3570,408 -5383,624 -11437,1366 -22092,2894 -31120,4416 876,-63 1766,-128 2670,-197 -6367,875 -12407,1748 -18028,2604 7075,-615 14792,-1357 22970,-2214 -1106,185 -2188,371 -3244,557 6294,-399 13454,-1020 21105,-1853 -6692,903 -12920,1926 -18377,2992 3598,-161 7505,-416 11636,-765 -2249,369 -4391,750 -6401,1139 5668,-265 12309,-820 19387,-1666 -10312,1232 -19925,2561 -28075,3848 8223,-669 17879,-1640 28192,-2872 1990,-238 3954,-479 5886,-723zm-1260 -6085l-323 -1504c-452,-2091 -902,-4139 -1374,-6167 -1301,152 -2609,306 -3924,462 1325,-160 2632,-323 3918,-489 -164,-705 -331,-1408 -501,-2110 -1441,169 -2890,340 -4345,514 1461,-174 2909,-350 4342,-526 -143,-586 -287,-1172 -435,-1757 -1048,122 -2102,246 -3164,372l3161 -380c-127,-504 -257,-1008 -390,-1512l-319 37 319 -40c-189,-719 -385,-1438 -585,-2158 -1191,136 -2388,276 -3591,420l0 -1 0 1c-14006,1672 -27042,3640 -38077,5671 10238,-571 22090,-1587 34747,-3035 -8962,1100 -17312,2234 -24522,3316 6321,-564 13491,-1291 21158,-2157 -1712,213 -3401,427 -5064,641 -15875,1941 -30686,3842 -43651,5590 16015,-1668 34802,-3769 54898,-6164 -10997,1321 -21251,2688 -29987,3973 1913,-175 3896,-365 5943,-566 -2037,286 -4009,570 -5910,849 7221,-664 15450,-1515 24252,-2521 -8728,1088 -16867,2191 -23990,3241 8997,-826 19568,-1945 30865,-3294 -18878,2254 -36483,4627 -51414,6878 13123,-1159 28247,-2708 44428,-4581 -4278,573 -8279,1168 -11861,1758 5397,-404 11701,-1015 18436,-1810 -16524,1981 -31927,4089 -45015,6113 7805,-658 16404,-1480 25547,-2448 -975,174 -1928,349 -2857,524 5296,-267 11301,-741 17713,-1416 -13736,1695 -26529,3482 -37573,5214 8535,-703 18076,-1617 28253,-2719 -968,182 -1910,367 -2822,554 3871,-136 8230,-431 12877,-890 -13513,1662 -26101,3412 -36955,5103 9338,-779 19911,-1814 31212,-3073 -20166,2473 -38963,4959 -55290,7284 9814,-947 20499,-2047 31819,-3279 -1723,261 -3406,522 -5047,781 11592,-941 25202,-2311 39737,-4047 1803,-215 3590,-433 5361,-652zm-3625 -15275c-124,-444 -251,-889 -380,-1335l-195 -666c-1080,124 -2166,252 -3257,382 -14091,1683 -27212,3631 -38321,5619 11265,-684 24475,-1881 38567,-3564 1202,-143 2398,-289 3586,-436zm-625 -2171c-198,-666 -402,-1334 -610,-2002l-1761 207c590,-72 1176,-146 1757,-220l-231 -735c-896,100 -1803,204 -2719,314 909,-109 1813,-218 2714,-329 -212,-668 -429,-1335 -648,-2000 -768,90 -1538,181 -2312,273 -15028,1795 -29025,3848 -40879,5925 12010,-773 26096,-2074 41125,-3869 -5761,688 -11127,1472 -15671,2264 4309,-281 9315,-738 14663,-1360 -15172,1829 -29299,3895 -41307,5975 12454,-826 27064,-2190 42653,-4052 1081,-129 2156,-259 3226,-391zm-1552 -4928c-222,-669 -447,-1335 -674,-1998l-1848 218c-13585,1622 -26233,3514 -36940,5454 10863,-636 23601,-1776 37185,-3398 762,-91 1521,-184 2277,-276zm-677 -2005c-748,-2182 -1523,-4322 -2289,-6370l-339 40 339 -41 -232 -619c-175,-464 -349,-922 -522,-1375 -10004,1199 -19306,2690 -27177,4288 8072,-303 17523,-1050 27592,-2253 -5162,617 -9967,1334 -14036,2069 2763,-163 5845,-412 9129,-744 -11205,1398 -21637,2901 -30654,4386 7389,-552 15685,-1311 24539,-2261 -10483,1306 -20269,2601 -28915,3818 11140,-1094 24134,-2505 38037,-4152 -7341,901 -14178,1856 -20056,2785 4879,-397 10393,-928 16284,-1579 -8931,1108 -17255,2235 -24519,3306 8167,-748 17635,-1739 27767,-2926 -8976,1143 -17314,2536 -24469,4034 8099,-254 17580,-975 27676,-2181l0 0 0 0c618,-74 1233,-149 1845,-225zm-3169 -8694l-363 -945c-9050,1087 -17482,2274 -24647,3438 7304,-562 15867,-1404 25010,-2493zm-364 -946c-683,-1767 -1335,-3411 -1916,-4853 -9556,1170 -18451,2483 -26054,3808 785,-51 1583,-106 2393,-164 -5703,796 -11113,1594 -16147,2380 6342,-528 13259,-1174 20588,-1930 -991,171 -1960,344 -2905,517 5644,-321 12063,-854 18918,-1592 -5994,820 -11571,1765 -16455,2763 3226,-117 6729,-324 10433,-622 -2014,341 -3932,696 -5731,1059 4949,-190 10723,-643 16876,-1366zm-1983 -5019c-545,-1351 -1024,-2518 -1403,-3431 -455,-1093 -764,-1822 -979,-2332 -8202,1035 -15834,2190 -22422,3365 6137,-376 13126,-976 20593,-1789 -3772,557 -7288,1191 -10416,1865 3473,-88 7381,-330 11546,-731 -12107,1495 -23382,3087 -33103,4642 8371,-663 17848,-1567 27974,-2685 -18067,2222 -34907,4474 -49531,6597 8796,-826 18372,-1793 28516,-2885 -1542,239 -3050,478 -4519,718 9893,-760 21423,-1885 33744,-3334zm-2396 -5796c-243,-578 -361,-867 -430,-1092 -27,-88 -47,-165 -60,-234 -11952,1471 -23083,3048 -32658,4592 9758,-762 21062,-1863 33148,-3266zm-493 -1347c-45,-254 -2,-395 72,-510 97,-147 246,-251 367,-332 13,-9 27,-18 39,-28 -39,-2 -84,-4 -137,-7 -99,-6 -231,-13 -660,-46 -428,-34 -1152,-94 -2111,-102 -959,-8 -2154,36 -3406,126 -1253,90 -2563,228 -4608,579 -1713,294 -3941,738 -5969,1175 710,-69 1424,-138 2143,-209 -1542,242 -3045,487 -4505,734 -745,170 -1455,336 -2174,500 6268,-402 13379,-1032 20949,-1880zm-146679 6035c-3392,-151 -7171,-363 -10022,-576l-265 -20c-3364,-21 -6805,-36 -10308,-42 -27,227 -59,483 -97,772 7201,-13 14143,-59 20692,-134zm-12212 -756c-2169,-198 -3661,-403 -4820,-634 -458,-92 -864,-188 -1234,-286l-1582 -13 1489 -12c-808,-220 -1443,-454 -2079,-688 42,61 20,179 -26,595 -29,255 -67,621 -129,1140 2887,-17 5690,-52 8381,-102zm-8481 901c-54,404 -119,873 -199,1414l-13 87c9860,-29 19060,-166 27014,-384 -7339,-203 -15738,-334 -24737,-376 5927,-52 11465,-178 16356,-363 -5455,-206 -11714,-340 -18421,-378zm-213 1511c-98,655 -216,1409 -341,2196 8836,-83 17082,-474 24213,-1099 -7039,-618 -15165,-1007 -23872,-1097zm-345 2221l-327 2055c12476,-54 24119,-423 34131,-1028 -9924,-600 -21452,-968 -33804,-1027zm-354 2229c-106,673 -207,1322 -294,1908l-23 153c14060,-44 27184,-416 38442,-1031 -11174,-611 -24185,-981 -38125,-1030zm-319 2077c-240,1630 -376,2773 -619,4367 11338,-31 21922,-293 30999,-730 -5643,-271 -11868,-474 -18495,-598 712,-56 1409,-117 2090,-182 -3814,-362 -8153,-604 -12799,-694 9976,-54 19286,-311 27339,-721 -7723,-393 -16602,-645 -26116,-714 3821,-58 7396,-179 10581,-350 -3843,-206 -8254,-340 -12980,-378zm-621 4379l-106 682c-154,967 -352,2113 -561,3318 12126,-30 23449,-403 33129,-1033 -6381,-415 -13475,-719 -21042,-886 8554,-115 16566,-336 23741,-643 -9492,-405 -20450,-660 -32192,-719 3111,-62 6025,-178 8640,-339 -3431,-210 -7378,-345 -11609,-380zm-667 4005c-213,1226 -437,2513 -642,3733 9905,-9 19154,-150 27049,-390 -6432,-195 -13761,-325 -21612,-371 6914,-50 13371,-178 19055,-368 -6529,-218 -14078,-355 -22168,-384 11414,-63 22066,-460 31236,-1107 -9619,-679 -20869,-1081 -32918,-1113zm-711 4149l-108 658c12358,-5 23900,-125 33737,-329 -9808,-204 -21311,-324 -33629,-329zm-108 658c-129,793 -247,1550 -356,2272l61 0 -61 0c-73,478 -142,941 -207,1387 13448,-2 26012,-255 36694,-693 -10612,-436 -23079,-689 -36426,-694 9371,-8 18124,-261 25579,-694 -2489,-145 -5122,-269 -7875,-371 5810,-119 11292,-293 16327,-514 -9836,-431 -21378,-683 -33736,-693zm-565 3677c-107,733 -204,1424 -292,2072 -196,1431 -351,2653 -492,3946l607 0c13116,0 25369,-254 35782,-694 -1487,-63 -3012,-122 -4571,-177 10201,-119 19824,-294 28655,-517 -14772,-373 -31760,-612 -49964,-676 10188,-91 19705,-317 28095,-651 -9836,-391 -21221,-635 -33420,-684 4183,-95 8093,-319 11551,-643 -3184,-298 -6751,-511 -10561,-617 7510,-78 14521,-312 20658,-666 -7584,-437 -16503,-690 -26048,-693zm-802 6187c-33,303 -64,611 -96,927 -122,1231 -237,2583 -355,4119l1076 2 -1076 1 -74 980 1150 1c9305,0 17999,-179 25387,-491 -7388,-311 -16082,-491 -25387,-491 6387,0 12354,-236 17425,-645 -1829,-147 -3774,-273 -5814,-372 3712,-143 7215,-353 10432,-620 -4969,-412 -10618,-688 -16667,-792 6894,-80 13331,-313 18973,-663 -959,-60 -1942,-116 -2945,-168 7366,-119 14311,-297 20670,-526 -5091,-183 -10558,-334 -16316,-448 812,-38 1611,-79 2397,-121 -8193,-440 -17835,-694 -28155,-694l-625 1zm-550 6373l-45 625 -102 1442 1322 2c-443,0 -884,1 -1323,3 -136,1972 -279,4184 -423,6594 580,3 1162,4 1746,4l0 0 0 0c10168,0 19668,-408 27739,-1116 -7281,-639 -15726,-1033 -24774,-1104 10201,-23 19720,-161 27917,-387 -7339,-202 -15738,-334 -24737,-376 5927,-52 11465,-178 16356,-363 -5947,-225 -12849,-363 -20245,-386 14000,-14 27070,-154 38261,-389 -8728,-183 -18600,-309 -29164,-362 8905,-106 17232,-336 24634,-665 -9129,-405 -19666,-660 -30957,-719 3300,-60 6390,-179 9153,-345 -4127,-247 -8984,-389 -14183,-389 10141,0 19615,-379 27665,-1035 -8050,-657 -17524,-1036 -27665,-1036l-1175 2zm-571 8672l-15 239c-35,597 -70,1206 -105,1827l1866 2c13682,0 26464,-378 37326,-1035 -10862,-657 -23644,-1035 -37326,-1035l-1746 2zm-130 2232c-38,676 -75,1365 -112,2066l1988 2c-668,0 -1331,3 -1988,6l-40 768 920 4 -920 2c-35,678 -68,1366 -100,2065l2128 3c15700,0 30368,-379 42833,-1035 -12171,-641 -26443,-1017 -41725,-1035 5384,-16 10409,-156 14721,-388 -4606,-247 -10027,-390 -15829,-390 15136,0 29277,-378 41293,-1035 -12016,-656 -26157,-1035 -41293,-1035l-1876 2zm-259 5080c-31,679 -60,1368 -88,2065 738,2 1479,3 2223,3 14192,0 27451,-379 38717,-1035 -11266,-657 -24525,-1035 -38717,-1035 -714,0 -1426,1 -2135,2zm-88 2072l-42 1085c-33,882 -63,1778 -89,2685l1389 0 -1389 2c-17,597 -33,1199 -46,1806l2400 2 -2400 1c-17,719 -30,1444 -41,2174 586,3 1174,4 1767,5l-1767 2c-23,1606 -31,3237 -20,4883 7,979 20,1963 41,2949l2420 2c14638,0 28315,-253 39936,-693 -1660,-63 -3361,-122 -5101,-177 11385,-119 22125,-294 31981,-517 -16488,-374 -35447,-613 -55765,-677 11371,-90 21993,-317 31357,-650 -10978,-392 -23684,-636 -37300,-685 4670,-95 9032,-318 12893,-642 -928,-78 -1885,-150 -2868,-216 10236,-112 19817,-337 28376,-651 -11172,-410 -24086,-666 -37926,-721 6446,-90 12465,-332 17755,-694 -944,-64 -1910,-125 -2899,-182 9193,-124 17829,-327 25657,-598 -13235,-459 -28779,-726 -45422,-733 6782,-9 13114,-150 18520,-389 -3626,-161 -7669,-277 -11985,-339 16289,-59 31489,-314 44658,-719 -15093,-465 -32856,-733 -51867,-733 11377,0 22006,-143 31038,-390 -7198,-197 -15410,-328 -24206,-373 8860,-44 17132,-175 24380,-372 -1920,-52 -3913,-100 -5969,-143 2056,-42 4049,-90 5969,-142 -8827,-240 -19170,-382 -30247,-390 20238,-4 39141,-146 55242,-389 -13081,-198 -28012,-329 -44007,-374 -1676,-15 -3379,-27 -5104,-37 7716,-49 14922,-177 21265,-367 -7287,-218 -15713,-355 -24742,-384 12739,-63 24628,-460 34862,-1107 -11198,-708 -24376,-1116 -38481,-1116l0 0 0 0c-744,0 -1485,2 -2223,4zm-193 15769c36,1677 94,3361 174,5037 742,5 1489,8 2242,8 -751,0 -1498,1 -2242,3 16,326 32,651 49,976 728,2 1459,3 2193,3 10386,0 20089,-180 28334,-491 -8245,-312 -17948,-491 -28334,-491 7128,0 13789,-236 19448,-645 -2041,-148 -4213,-273 -6489,-373 4143,-143 8052,-353 11643,-620 -5545,-411 -11850,-688 -18602,-792 7695,-80 14879,-312 21176,-663 -1071,-59 -2167,-115 -3287,-168 8222,-118 15972,-297 23070,-525 -5683,-183 -11784,-334 -18211,-448 906,-39 1798,-79 2675,-121 -9144,-440 -19905,-694 -31423,-694 -809,0 -1614,1 -2416,4zm242 6373c38,689 80,1377 126,2061 680,3 1362,4 2048,4 -688,0 -1371,3 -2048,6l33 476c91,1315 198,2618 310,3898l1219 2c-409,1 -815,2 -1219,5l118 1330 622 0 -622 1 165 1809 1422 1 -1422 0c67,738 133,1465 195,2179l553 1 -553 0c62,701 120,1389 173,2063 61,790 116,1560 164,2318l890 0 -890 1c44,698 83,1385 117,2069l773 1c15700,0 30368,-379 42833,-1035 -12465,-657 -27133,-1036 -42833,-1036 8049,0 15569,-142 21959,-389 -4278,-166 -9062,-285 -14171,-345 17482,-59 33795,-314 47930,-719 -14659,-420 -31662,-679 -49882,-725 6351,-93 12281,-333 17502,-691 -943,-64 -1910,-125 -2898,-182 9192,-123 17828,-327 25656,-598 -13235,-459 -28779,-725 -45421,-732 6781,-9 13113,-150 18519,-390 -3629,-160 -7676,-277 -11995,-339 16292,-58 31497,-314 44668,-719 -15093,-465 -32855,-732 -51867,-732 11377,0 22006,-143 31038,-390 -7198,-198 -15410,-328 -24206,-373 8861,-45 17132,-175 24380,-373 -1920,-52 -3913,-100 -5969,-142 2056,-43 4049,-90 5969,-143 -8827,-240 -19170,-382 -30247,-390 20238,-4 39141,-146 55242,-389 -13577,-205 -29148,-338 -45831,-378 1202,-51 2358,-111 3461,-179 -3898,-239 -8462,-380 -13351,-389 11997,-7 23202,-274 32743,-732 -5643,-272 -11868,-476 -18495,-598 712,-57 1409,-118 2090,-183 -3764,-357 -8039,-598 -12617,-690 13134,-46 25391,-305 35958,-725 -10189,-405 -21949,-660 -34551,-719 3683,-61 7132,-180 10215,-345 -4606,-247 -10027,-390 -15829,-390 11318,0 21891,-379 30876,-1035 -8985,-656 -19558,-1035 -30876,-1035 -728,0 -1452,2 -2174,5zm1409 18387c33,690 62,1378 86,2069l679 1 -679 0c38,1087 66,2183 86,3315 13,740 23,1496 30,2269l563 0 -563 0c20,2049 25,4221 39,6562l524 0 -524 0c3,676 8,1365 14,2070l510 0c20997,0 40614,-378 57283,-1035 -16669,-657 -36286,-1035 -57283,-1035 8049,0 15569,-143 21959,-390 -4419,-171 -9378,-292 -14680,-350 13199,-69 25516,-321 36230,-714 -11172,-410 -24086,-667 -37926,-721 6446,-90 12465,-332 17755,-694 -944,-65 -1910,-125 -2899,-182 9193,-124 17829,-328 25657,-598 -13235,-459 -28779,-726 -45422,-733 6782,-9 13114,-150 18520,-389 -3626,-161 -7669,-277 -11985,-339 16289,-59 31489,-314 44658,-720 -15093,-464 -32856,-732 -51867,-732 11377,0 22006,-143 31038,-390 -7198,-197 -15410,-328 -24206,-373 8860,-45 17132,-175 24380,-372 -1920,-53 -3913,-100 -5969,-143 2056,-42 4049,-90 5969,-142 -8827,-241 -19170,-383 -30247,-390 20238,-4 39141,-146 55242,-390 -13081,-197 -28012,-328 -44007,-373 -1676,-15 -3379,-28 -5104,-37 7716,-49 14922,-177 21265,-367 -7294,-219 -15728,-355 -24766,-384 12748,-63 24645,-460 34886,-1107 -11198,-708 -24376,-1116 -38481,-1116 14192,0 27451,-379 38717,-1035 -11266,-657 -24525,-1035 -38717,-1035l-765 0zm256 16448l3 335 18 1735 488 0c18980,0 36712,-378 51780,-1035 -15068,-656 -32800,-1035 -51780,-1035l-509 0zm21 2071c23,2072 56,4225 94,6320l394 0 -394 0c31,1757 65,3472 100,5062l33 1500 261 0 -261 0 49 2070 212 0c15700,0 30368,-379 42833,-1035 -12465,-657 -27133,-1035 -42833,-1035 8049,0 15569,-143 21959,-390 -4278,-166 -9062,-284 -14171,-345 17482,-59 33795,-314 47930,-719 -14659,-420 -31662,-679 -49882,-725 6351,-92 12281,-333 17502,-690 -943,-65 -1910,-126 -2898,-183 9192,-123 17828,-327 25656,-598 -13235,-458 -28779,-725 -45421,-732 6781,-9 13113,-150 18519,-389 -3629,-161 -7676,-278 -11995,-339 16292,-59 31497,-315 44668,-720 -15093,-464 -32855,-732 -51867,-732 11377,0 22006,-143 31038,-390 -7198,-197 -15410,-328 -24206,-373 8861,-45 17132,-175 24380,-372 -1920,-53 -3913,-100 -5969,-143 2056,-42 4049,-90 5969,-143 -8827,-240 -19170,-381 -30247,-389 20238,-5 39141,-147 55242,-390 -15525,-235 -33656,-375 -53076,-388 10259,-24 19833,-162 28083,-387 -6785,-185 -14467,-311 -22690,-363 12484,-42 24136,-174 34317,-376 -11372,-225 -24577,-364 -38728,-386 12552,-72 24266,-466 34368,-1105 -11198,-708 -24376,-1116 -38481,-1116l0 0 0 0 -488 1zm280 15114l54 2070 154 0 -154 0c39,1420 77,2650 114,3668l2 68 38 0c11441,0 22131,-143 31214,-390 -7177,-195 -15358,-325 -24120,-371 7716,-50 14923,-178 21267,-368 -7294,-219 -15728,-355 -24766,-384 12748,-63 24645,-460 34886,-1107 -11198,-708 -24376,-1116 -38481,-1116 14192,0 27451,-379 38717,-1035 -11266,-656 -24525,-1035 -38717,-1035l-208 0zm186 6222l26 657c14103,0 27280,254 38477,694 -5620,221 -11739,395 -18223,514 3073,101 6012,226 8790,371 -8321,433 -18090,686 -28549,694 14896,5 28811,258 40655,693 -11933,439 -25969,693 -40993,694 -2,-192 -8,-385 -18,-636 -24,-592 -77,-1507 -139,-3024 14103,0 27280,-120 38477,-328 -11198,-209 -24376,-329 -38481,-329l-22 0zm183 4335c5,359 2,724 8,1469 9,1115 39,3083 71,4549 14547,-3 28138,-257 39696,-694 -1660,-63 -3361,-122 -5101,-177 11385,-119 22125,-294 31981,-517 -16488,-373 -35447,-612 -55765,-676 11371,-91 21993,-317 31357,-651 -10978,-392 -23684,-636 -37300,-685 4670,-95 9032,-318 12893,-642 -3554,-299 -7535,-512 -11788,-617 8382,-78 16207,-312 23057,-666 -8475,-438 -18441,-691 -29109,-693zm82 6186c33,1476 66,2359 131,2885 65,527 163,695 459,1005 296,309 790,760 2506,1121l96 20c5831,-63 11273,-285 16013,-627 -2041,-148 -4213,-273 -6489,-372 4143,-143 8052,-353 11643,-620 -5545,-412 -11849,-689 -18599,-792 7694,-81 14877,-313 21173,-663 -1071,-60 -2167,-116 -3287,-168 8222,-119 15972,-297 23070,-526 -5683,-183 -11784,-334 -18211,-448 906,-39 1798,-79 2675,-121 -9079,-437 -19753,-690 -31180,-694zm3320 5056c1740,339 4548,597 7231,829l817 70c6007,-81 11642,-223 16723,-415 -7294,-276 -15731,-448 -24771,-484z"/>
  <path id="calcao_contorno" fill="none" d="M86877 155540c57,-276 111,-684 198,-2144 87,-1461 207,-3975 494,-8922 288,-4947 745,-12326 1108,-17715 364,-5390 636,-8789 989,-12546 352,-3758 787,-7874 1330,-12163 543,-4290 1195,-8753 2031,-13825 836,-5071 1857,-10751 2633,-14471 777,-3719 1309,-5479 1650,-6590 342,-1112 492,-1576 610,-1830 117,-254 201,-298 281,-290 81,7 157,66 254,174 98,108 218,265 372,597 155,332 345,838 651,1525 306,687 729,1555 1092,2405 363,850 667,1684 796,2326 129,642 83,1093 121,1599 38,506 160,1068 480,1542 321,474 839,860 1138,1371 299,512 377,1150 573,2055 195,906 507,2079 615,2964 107,885 9,1482 -93,2046 -101,563 -207,1093 -96,1623 111,531 440,1063 824,1557 384,495 824,951 1094,1251 270,300 371,443 467,579 96,136 189,264 334,838 145,574 343,1595 418,2303 75,709 26,1106 -3,1500 -28,396 -36,789 -69,1290 -32,501 -89,1109 -81,1667 8,558 81,1066 438,1819 357,754 998,1753 1605,2560 607,808 1179,1425 1564,1812 385,388 582,546 759,828 177,282 335,686 465,1203 130,518 234,1148 289,1878 56,730 64,1561 52,2483 -12,922 -45,1934 143,2856 187,922 594,1752 1048,2454 453,702 952,1275 1323,1739 371,465 613,820 815,1171 203,350 365,695 528,1099 163,405 326,869 450,1408 123,539 207,1153 323,1709 115,557 262,1056 357,1618 95,562 138,1187 304,2099 166,912 453,2112 646,3116 193,1005 291,1814 396,2531 106,717 220,1341 310,2175 89,833 155,1876 280,2641 124,766 309,1255 442,1990 133,736 214,1719 285,2297 71,579 130,752 274,907 144,155 372,290 679,442 307,153 692,321 1086,576 394,255 796,597 1257,990 462,392 983,834 1546,1188 564,352 1169,616 1745,818 575,202 1121,343 1722,497 602,153 1259,319 2147,474 887,154 2006,298 2867,397 860,100 1463,154 2700,174 1236,21 3107,7 4534,-32 1426,-40 2409,-105 3661,-214 1252,-108 2772,-260 4550,-449 1779,-188 3815,-414 5523,-572 1707,-159 3087,-252 4504,-330 1417,-79 2872,-144 4136,-180 1264,-35 2336,-40 4548,-77 2211,-37 5561,-105 7790,-171 2229,-67 3337,-132 4993,-333 1657,-201 3861,-537 5223,-773 1362,-237 1881,-373 2235,-519 354,-146 543,-303 694,-404 152,-102 266,-148 573,-258 306,-110 806,-284 1386,-483 579,-200 1239,-425 1759,-648 520,-222 900,-442 1145,-582 246,-140 358,-200 538,-211 181,-10 430,28 638,-23 208,-50 374,-188 595,-396 221,-208 498,-485 609,-911 111,-426 57,-1002 63,-2454 5,-1453 70,-3782 49,-6375 -22,-2593 -131,-5449 -185,-7192 -54,-1743 -54,-2373 -54,-3263 0,-891 0,-2042 -27,-3120 -28,-1078 -82,-2082 -106,-3122 -25,-1040 -19,-2115 -87,-3817 -68,-1703 -209,-4032 -285,-5916 -76,-1884 -87,-3324 -220,-7152 -133,-3828 -388,-10045 -885,-16183 -497,-6139 -1236,-12199 -2170,-17954 -933,-5756 -2063,-11208 -3181,-16388 -1119,-5180 -2227,-10089 -3682,-15106 -1455,-5017 -3258,-10143 -4995,-14759 -1738,-4615 -3410,-8720 -4398,-11100 -989,-2379 -1293,-3034 -1423,-3457 -130,-424 -87,-617 9,-765 97,-147 246,-251 367,-332 13,-9 27,-18 39,-28 -39,-2 -84,-4 -137,-7 -99,-6 -231,-13 -660,-46 -428,-34 -1152,-94 -2111,-102 -959,-8 -2154,36 -3406,126 -1253,90 -2563,228 -4608,579 -2046,351 -4826,916 -7121,1427 -2295,510 -4105,966 -6479,1437 -2375,470 -5315,955 -8265,1350 -2950,394 -5912,698 -9495,1024 -3584,326 -7790,674 -11305,920 -3515,246 -6339,391 -8920,532 -2581,141 -4920,278 -7577,384 -2657,105 -5632,177 -8586,238 -2954,62 -5886,113 -8681,106 -2794,-8 -5451,-73 -7942,-131 -2491,-58 -4815,-108 -7331,-184 -2515,-77 -5223,-178 -8546,-272 -3323,-94 -7262,-181 -11436,-206 -4174,-26 -8583,11 -12232,7 -3649,-4 -6538,-47 -10357,-196 -3819,-148 -8568,-401 -11984,-657 -3415,-255 -5497,-512 -7010,-814 -1514,-303 -2460,-651 -3406,-999 42,61 20,179 -26,595 -59,524 -156,1520 -428,3353 -271,1833 -717,4502 -1007,6455 -291,1954 -426,3192 -752,5230 -326,2040 -842,4880 -1257,7383 -415,2503 -731,4669 -980,6496 -250,1828 -435,3315 -606,5042 -171,1727 -328,3692 -499,6071 -171,2378 -356,5169 -541,8286 -184,3117 -369,6559 -504,10230 -136,3671 -223,7569 -196,11560 27,3991 169,8074 446,12044 277,3969 689,7824 961,11289 271,3464 401,6537 461,9936 60,3399 49,7124 87,11398 38,4273 125,9095 212,13118 87,4024 173,7249 254,9470 80,2221 153,3437 183,4165 30,728 16,967 26,2123 9,1157 42,3231 74,4711 33,1479 66,2364 131,2891 65,527 163,695 459,1005 296,309 790,760 2506,1121 1715,361 4653,632 7455,874 2802,242 5468,453 9991,695 4523,242 10904,513 15617,717 4713,203 7759,339 10431,363 2671,25 4968,-62 7289,-135 2322,-74 4668,-133 6905,-207 2237,-73 4366,-160 7366,-537 3000,-377 6871,-1046 9290,-1540 2419,-494 3386,-814 4236,-1246 849,-431 1582,-974 1979,-1319 396,-345 456,-492 513,-769z"/>
 </g>
</svg>
