<?xml version="1.0" encoding="UTF-8"?>
<!DOCTYPE svg PUBLIC "-//W3C//DTD SVG 1.1//EN" "http://www.w3.org/Graphics/SVG/1.1/DTD/svg11.dtd">
<!-- Creator: CorelDRAW -->
<svg xmlns="http://www.w3.org/2000/svg" xml:space="preserve" width="181px" height="149px" version="1.1" shape-rendering="geometricPrecision" text-rendering="geometricPrecision" image-rendering="optimizeQuality" fill-rule="evenodd" clip-rule="evenodd"
viewBox="0 0 205.498 169.387"
 xmlns:xlink="http://www.w3.org/1999/xlink"
 xmlns:xodm="http://www.corel.com/coreldraw/odm/2003">
 <defs>
   <clipPath id="id0">
    <path d="M91.234 163.341c0.06,-0.29 0.117,-0.718 0.209,-2.252 0.091,-1.534 0.216,-4.174 0.518,-9.369 0.303,-5.195 0.782,-12.944 1.164,-18.604 0.382,-5.659 0.667,-9.229 1.038,-13.175 0.37,-3.946 0.826,-8.268 1.397,-12.773 0.57,-4.505 1.254,-9.192 2.132,-14.518 0.879,-5.326 1.95,-11.291 2.766,-15.197 0.815,-3.906 1.374,-5.753 1.733,-6.921 0.358,-1.167 0.516,-1.655 0.64,-1.921 0.123,-0.267 0.212,-0.313 0.296,-0.305 0.084,0.008 0.164,0.069 0.266,0.183 0.103,0.113 0.228,0.278 0.391,0.627 0.163,0.349 0.362,0.88 0.684,1.602 0.321,0.721 0.764,1.632 1.146,2.525 0.381,0.893 0.7,1.768 0.836,2.443 0.135,0.674 0.087,1.147 0.127,1.679 0.04,0.532 0.168,1.122 0.504,1.619 0.337,0.498 0.881,0.903 1.195,1.44 0.314,0.538 0.396,1.208 0.602,2.158 0.205,0.951 0.533,2.183 0.646,3.113 0.112,0.929 0.009,1.556 -0.098,2.148 -0.106,0.591 -0.218,1.148 -0.101,1.705 0.117,0.557 0.462,1.116 0.865,1.635 0.404,0.519 0.866,0.998 1.149,1.313 0.284,0.315 0.39,0.466 0.491,0.609 0.101,0.142 0.198,0.276 0.351,0.879 0.152,0.603 0.36,1.675 0.439,2.419 0.078,0.745 0.027,1.161 -0.003,1.576 -0.03,0.415 -0.039,0.828 -0.073,1.354 -0.034,0.526 -0.094,1.165 -0.085,1.751 0.008,0.586 0.085,1.119 0.46,1.91 0.375,0.791 1.048,1.84 1.685,2.689 0.637,0.848 1.239,1.495 1.643,1.902 0.404,0.407 0.611,0.574 0.797,0.87 0.186,0.296 0.351,0.72 0.488,1.263 0.137,0.544 0.246,1.205 0.304,1.972 0.058,0.767 0.067,1.64 0.054,2.608 -0.013,0.968 -0.047,2.031 0.15,2.999 0.197,0.968 0.624,1.84 1.101,2.577 0.476,0.738 1,1.339 1.389,1.826 0.39,0.488 0.644,0.862 0.856,1.23 0.213,0.367 0.384,0.729 0.555,1.154 0.171,0.425 0.342,0.913 0.472,1.479 0.13,0.566 0.218,1.21 0.339,1.795 0.121,0.584 0.275,1.108 0.375,1.699 0.1,0.59 0.145,1.246 0.32,2.204 0.174,0.958 0.476,2.218 0.678,3.273 0.203,1.055 0.305,1.904 0.416,2.657 0.112,0.753 0.231,1.409 0.325,2.284 0.094,0.875 0.163,1.97 0.294,2.774 0.131,0.804 0.325,1.317 0.465,2.09 0.14,0.772 0.225,1.805 0.299,2.412 0.074,0.607 0.137,0.79 0.288,0.952 0.104,0.112 0.251,0.215 0.437,0.32 -0.079,-0.368 -0.154,-0.732 -0.127,-0.999 0.028,-0.278 0.168,-0.45 0.332,-0.556 0.164,-0.105 0.352,-0.145 0.75,-0.063 0.398,0.082 1.007,0.284 1.729,0.399 0.723,0.115 1.56,0.144 2.868,0.151 1.309,0.007 3.089,-0.007 5.568,-0.327 2.479,-0.319 5.657,-0.943 8.788,-1.599 3.132,-0.656 6.217,-1.344 9.657,-2.107 3.44,-0.762 7.234,-1.599 10.248,-2.124 3.014,-0.525 5.249,-0.737 8.16,-0.854 2.912,-0.118 6.502,-0.139 10.137,0.024 3.635,0.163 7.316,0.511 9.976,0.862 2.66,0.351 4.298,0.706 5.688,1.227 1.391,0.522 2.533,1.21 3.226,1.734 0.693,0.524 0.938,0.884 1.054,1.193 0.116,0.309 0.104,0.568 -0.007,0.887 -0.11,0.319 -0.318,0.698 -0.526,1.077 0.192,-0.063 0.354,-0.202 0.566,-0.399 0.232,-0.218 0.523,-0.509 0.64,-0.957 0.116,-0.447 0.059,-1.052 0.065,-2.577 0.006,-1.525 0.074,-3.972 0.052,-6.694 -0.023,-2.724 -0.137,-5.723 -0.194,-7.553 -0.057,-1.831 -0.057,-2.492 -0.057,-3.427 0,-0.936 0,-2.144 -0.029,-3.276 -0.028,-1.132 -0.085,-2.187 -0.111,-3.279 -0.025,-1.092 -0.02,-2.221 -0.091,-4.009 -0.072,-1.787 -0.22,-4.234 -0.3,-6.212 -0.079,-1.979 -0.091,-3.49 -0.231,-7.51 -0.139,-4.02 -0.407,-10.55 -0.929,-16.996 -0.522,-6.446 -1.297,-12.81 -2.278,-18.854 -0.981,-6.045 -2.167,-11.77 -3.341,-17.21 -1.175,-5.44 -2.338,-10.594 -3.867,-15.864 -1.528,-5.268 -3.421,-10.651 -5.246,-15.498 -1.824,-4.847 -3.581,-9.158 -4.618,-11.657 -1.038,-2.499 -1.357,-3.186 -1.494,-3.631 -0.137,-0.445 -0.092,-0.647 0.009,-0.803 0.102,-0.155 0.258,-0.263 0.386,-0.349 0.014,-0.01 0.028,-0.019 0.041,-0.029 -0.042,-0.002 -0.088,-0.005 -0.144,-0.008 -0.105,-0.005 -0.243,-0.013 -0.693,-0.048 -0.449,-0.035 -1.21,-0.098 -2.217,-0.107 -1.008,-0.008 -2.262,0.038 -3.577,0.132 -1.316,0.095 -2.692,0.24 -4.839,0.609 -2.148,0.368 -5.068,0.962 -7.478,1.498 -2.41,0.535 -4.311,1.014 -6.805,1.509 -2.494,0.494 -5.581,1.003 -8.679,1.418 -3.098,0.414 -6.208,0.733 -9.971,1.076 -3.764,0.341 -8.181,0.707 -11.872,0.965 -3.692,0.259 -6.657,0.41 -9.367,0.559 -2.711,0.148 -5.167,0.292 -7.957,0.403 -2.79,0.11 -5.915,0.186 -9.017,0.251 -3.102,0.064 -6.181,0.117 -9.116,0.11 -2.935,-0.008 -5.725,-0.076 -8.341,-0.137 -2.615,-0.061 -5.056,-0.114 -7.698,-0.194 -2.642,-0.08 -5.486,-0.186 -8.975,-0.285 -3.49,-0.099 -7.626,-0.19 -12.01,-0.217 -4.383,-0.026 -9.013,0.012 -12.845,0.008 -3.832,-0.004 -6.865,-0.049 -10.876,-0.205 -4.011,-0.156 -8.998,-0.422 -12.585,-0.69 -3.587,-0.268 -5.773,-0.538 -7.362,-0.856 -1.59,-0.318 -2.583,-0.683 -3.577,-1.049 0.044,0.064 0.021,0.188 -0.027,0.625 -0.062,0.551 -0.164,1.597 -0.449,3.521 -0.286,1.925 -0.753,4.728 -1.058,6.779 -0.305,2.052 -0.448,3.352 -0.79,5.493 -0.342,2.141 -0.884,5.124 -1.32,7.752 -0.436,2.629 -0.767,4.904 -1.029,6.823 -0.263,1.919 -0.457,3.481 -0.636,5.294 -0.18,1.814 -0.345,3.878 -0.525,6.376 -0.18,2.497 -0.373,5.428 -0.567,8.701 -0.194,3.273 -0.388,6.888 -0.53,10.743 -0.143,3.855 -0.234,7.949 -0.206,12.14 0.029,4.192 0.177,8.48 0.468,12.648 0.291,4.169 0.724,8.217 1.009,11.855 0.285,3.638 0.422,6.865 0.485,10.435 0.063,3.57 0.051,7.481 0.091,11.969 0.04,4.488 0.131,9.552 0.223,13.777 0.091,4.225 0.182,7.612 0.266,9.945 0.084,2.332 0.162,3.609 0.193,4.373 0.031,0.764 0.017,1.015 0.027,2.23 0.01,1.214 0.044,3.393 0.078,4.946 0.035,1.554 0.069,2.484 0.137,3.037 0.068,0.553 0.171,0.73 0.482,1.055 0.311,0.325 0.83,0.798 2.632,1.177 1.802,0.38 4.886,0.665 7.829,0.918 2.942,0.254 5.742,0.476 10.492,0.73 4.75,0.254 11.451,0.539 16.4,0.753 4.95,0.214 8.149,0.356 10.954,0.382 2.806,0.026 5.218,-0.066 7.656,-0.143 2.438,-0.077 4.901,-0.139 7.25,-0.216 2.35,-0.077 4.585,-0.168 7.735,-0.565 3.151,-0.396 7.217,-1.098 9.757,-1.616 2.54,-0.519 3.556,-0.856 4.448,-1.309 0.892,-0.453 1.662,-1.024 2.078,-1.386 0.417,-0.362 0.479,-0.516 0.539,-0.807z"/>
   </clipPath>
 </defs>
 <g id="VETORES">
  <metadata id="CorelCorpID_0Corel-Layer"/>
  <g>
  </g>
  <g clip-path="url(#id0)">
   <g id="_3222242182368">
    <path id="_1" fill="#330066" fill-rule="nonzero" d="M202.008 70.256c-0.056,-0.386 -0.114,-0.772 -0.17,-1.158 -0.17,0.59 -0.306,1.033 -0.409,1.486l0.579 -0.328zm-0.442 22.681c-0.873,1.418 -1.668,2.802 -2.825,4.697 2.258,-1.146 3.949,-2.02 5.469,-2.802 -0.068,-1.339 -0.136,-2.757 -0.227,-4.221 -1.044,0.488 -1.713,1.18 -2.417,2.326zm-44.942 -58.774c-0.045,0.046 -0.113,0.137 -0.204,0.239 0.057,-0.068 0.125,-0.148 0.204,-0.239zm43.943 66.557c-0.397,1.316 0.522,1.316 3.869,-0.295 -0.034,-1.055 -0.079,-2.235 -0.136,-3.54 -2.428,1.27 -3.211,2.167 -3.733,3.835l0 0zm-6.92 -38.69c2.609,0.896 -2.576,6.115 1.735,5.503 -1.418,1.997 -2.961,3.732 -3.574,5.083 -0.578,1.259 -2.541,3.54 1.895,1.997 1.158,-1.158 2.474,-2.508 3.824,-3.892 1.169,-0.556 2.78,-1.339 4.232,-2.031 -0.079,-0.567 -0.17,-1.135 -0.261,-1.702 -0.488,0.352 -1.044,0.726 -1.691,1.123 -0.488,-1.736 -0.431,-3.631 0.874,-6.082 -0.329,-1.883 -0.669,-3.744 -1.021,-5.571 -1.736,1.85 -3.381,3.677 -6.025,5.571l0.012 0.001zm-5.878 47.143l1.089 1.282c0.069,0.159 -0.51,0.681 -0.964,1.226 -1.26,0.125 -2.349,0.261 -3.892,0.42 -2.246,4.629 -1.032,4.788 6.274,1.475 1.645,-3.506 0.806,-4.981 -2.507,-4.402l0 -0.001zm-85.866 -100.788l-6.445 0.136 0.636 4.322c1.225,-0.68 2.394,-1.35 3.574,-2.008l2.235 -2.45zm54.517 26.005c0,0 -0.011,0.011 -0.022,0.023 0,0 0.011,-0.011 0.022,-0.023zm41.311 12.697c-0.249,-1.112 -0.488,-2.224 -0.737,-3.325 -0.886,1.555 -2.168,3.279 -3.121,4.845 1.203,-0.544 2.553,-0.908 3.858,-1.52l0 0zm2.19 59.329c-1.123,0.931 -3.211,2.61 -3.12,2.632 1.509,0.454 -1.578,3.824 3.404,2.542 -0.738,-1.611 4.05,-5.662 -0.296,-5.174l0.012 0zm-4.403 11.096l-4.856 3.79c2.632,-0.873 3.926,-1.895 4.856,-3.79zm-87.125 -56.606c0.125,-1.259 -0.704,-2.156 0.488,-3.381 6.115,-6.207 2.382,-7.784 9.428,-11.188 -2.087,3.246 -1.225,5.243 -5.786,9.259 -0.772,0.681 -1.192,1.645 -0.965,1.997 0.704,1.067 -0.805,3.279 -0.544,4.436 0.227,1.226 -0.102,2.247 -3.189,4.732 2.576,-0.999 4.244,-1.668 5.946,-2.349 0.51,-0.454 3.313,-7.557 5.276,-9.043 1.225,-0.873 2.927,-1.645 4.209,-2.315 0.839,-0.964 1.645,-1.929 2.439,-2.859 3.506,-0.261 2.803,2.031 1.453,4.504 1.384,-0.488 2.348,-0.805 3.891,-1.316 -2.417,2.054 -4.118,3.54 -6.274,5.401 1.578,-0.488 2.632,-0.806 3.983,-1.226 -1.351,1.351 -2.417,2.383 -3.699,3.631 1.316,0.125 2.474,0.261 3.858,0.386 3.245,-4.436 5.469,-6.626 9.429,-9.202 -0.035,0.806 0.158,1.385 -0.159,2.247 -1.26,3.086 -0.897,3.54 5.729,1.543 -1.736,3.211 -3.573,6.524 -5.276,9.712 1.283,-0.261 2.224,-0.454 4.153,-0.873 -4.118,1.928 -7.08,3.154 -7.624,5.276 -0.125,0.453 -5.469,4.822 -4.38,7.488 -2.417,2.474 -2.7,4.051 -3.018,5.787 7.363,-4.788 6.206,-4.629 6.308,-7.205 2.315,-1.611 4.017,-2.995 4.663,-4.573 0.704,-1.702 2.281,-3.823 6.434,-6.047 1.35,0.034 2.666,0.068 4.345,0.102 2.315,-3.404 1.124,-2.315 5.56,-4.402 -0.613,-0.647 -1.066,-1.158 -1.475,-1.612 3.574,-2.053 5.469,-4.016 6.331,-5.888 1.929,-0.703 3.472,-1.282 5.367,-1.963 -1.475,1.316 -2.508,2.281 -3.438,3.154 1.577,2.349 2.156,5.049 -2.927,10.586 5.208,-3.823 11.164,-7.398 13.638,-11.096 1.645,-0.806 3.211,-1.611 4.731,-2.349 -0.261,0.931 -0.386,1.475 -0.545,1.997 12.572,-5.276 3.54,-3.733 12.935,-10.711l-3.245 -0.681c1.577,-2.031 3.983,-5.752 7.137,-6.694 1.384,-0.42 1.928,0.034 0.158,1.645 -2.246,2.031 -3.279,3.597 -1.86,4.119l3.982 -3.098c-0.465,-1.895 -0.964,-3.778 -1.498,-5.673 -0.272,0.216 -0.544,0.431 -0.839,0.67 -0.125,-0.522 0.158,-1.01 0.623,-1.464l-0.635 -2.11c-2.528,2.691 -1.977,3.863 -8.577,9.076 1.384,-3.052 2.417,-5.344 3.506,-7.783l4.856 -1.997c-2.406,-7.861 -6.337,-18.043 -9.066,-24.598 -1.86,-4.469 -1.922,-3.948 -1.055,-4.823l-3.065 -0.169 -3.653 0.124c-0.42,0.466 -1.078,0.942 -2.167,1.476 -0.272,-0.352 -0.454,-0.738 -0.477,-1.192 -8.716,1.272 -15.279,3.426 -25.097,4.755l-18.404 1.781c0.092,0.647 0.193,1.316 0.318,2.144 0,0 2.831,-1.427 2.644,-0.941 -0.998,2.541 -0.579,2.28 -2.417,3.086 0.738,-1.452 -1.577,-0.613 -2.315,-0.931 -0.578,-0.261 0.988,-2.087 1.77,-3.369l-7.193 0.499c-5.321,5.287 -11.834,10.631 -17.915,16.032l-2.962 -0.647 19.731 -15.317 -16.883 0.806c-1.385,2.156 -4.142,3.506 -5.356,4.606 -1.01,1.192 -2.122,1.793 -3.278,2.281 0.204,1.486 0.408,2.995 0.59,4.425 0.839,-1.271 2.223,-1.6 2.598,-1.917 0.681,0.419 1.316,0.896 1.963,1.35l-3.245 2.667c-0.42,0.113 -0.749,0.181 -1.021,0.215l1.112 10.041c0.521,3.563 1.407,8.283 2.212,12.697 0.885,-0.239 2.087,-0.738 3.347,-1.214 -1.271,1.951 -1.861,3.653 -2.587,5.4 0.59,3.246 1.078,6.105 1.486,8.045 0.729,3.374 1.165,4.081 1.963,6.013 0.148,-0.193 0.295,-0.374 0.477,-0.578 1.282,-0.613 2.348,-1.089 3.051,-1.453l-0.009 0.056zm82.36 -32.484c-0.805,-0.068 -1.645,-0.125 -3.188,-0.295 3.767,-1.667 4.38,-1.452 3.188,0.295zm-33.8 26.403l0 0.033c-1.702,1.646 -2.961,3.246 -4.402,4.857 -1.543,0.51 -1.543,0.158 -1.033,-0.874 0.738,-1.475 0.738,-2.632 1.09,-4.153 0.998,-0.193 2.189,-0.42 3.471,-0.681 2.054,-1.418 4.153,-2.859 6.274,-4.346 -0.771,1.805 -3.698,3.507 -5.4,5.151l0 0.013zm-0.294 -20.718c-2.928,0.646 -1.26,-1.226 -0.193,-2.803l0 0.034c1.997,-0.317 2.053,0.613 0.193,2.769zm7.272 3.96c0.704,-0.454 1.226,-0.874 1.418,-0.896 1.351,-0.262 2.962,-0.647 0.965,1.417l-2.383 -0.51 0 -0.011zm11.551 -9.009c-0.454,1.282 -1.158,2.439 -4.244,4.118 -0.158,-1.282 -0.295,-2.541 -0.453,-3.96 -1.543,0.931 -3.121,1.895 -4.698,2.86 -0.125,-0.068 -0.295,-0.102 -0.42,-0.159l10.643 -8.271c0.545,0.261 1.475,0.613 1.418,0.681 -3.733,2.825 -1.736,3.279 -2.246,4.731l0 0zm1.384 9.134c-1.453,1.962 -0.034,3.188 -4.958,6.013 0.998,-2.44 1.895,-4.596 2.927,-7.103 1.702,-0.193 3.347,-0.737 2.031,1.09zm-9.781 3.289c0.545,-1.225 0.999,-2.246 1.578,-3.539 2.247,0.102 1.702,1.281 -1.578,3.539zm7.046 4.789c-0.896,0.51 -1.997,0.351 -3.733,0.578 3.245,-2.417 5.117,-3.823 8.067,-6.013 -1.282,2.224 -0.578,3.279 -4.345,5.435l0.011 0zm3.313 -44.704c-1.066,1.316 -1.895,2.349 -2.7,3.347 -2.149,0.199 -1.954,0.247 -3.063,-0.284 3.12,-3.574 1.611,-2.927 5.752,-3.052l0.011 -0.011zm-2.609 3.347l-0.034 0c1.577,-0.84 3.12,-1.645 4.697,-2.44 -3.381,3.96 -6.116,5.752 -12.152,7.874 2.315,-2.122 4.312,-3.959 7.489,-5.435l0 0.001zm-8.204 8.192c1.192,-0.352 2.734,-0.84 4.596,-1.385 -1.804,3.631 -3.699,7.557 -5.787,11.574l-0.034 0c-0.453,0.839 -1.804,2.053 -3.574,4.016 -0.351,-1.509 -0.578,-2.417 -0.839,-3.404 1.667,-1.384 3.438,-2.825 6.047,-4.981 -1.895,0.738 -2.893,1.09 -4.175,1.611 1.123,-2.28 2.314,-4.595 3.766,-7.431zm-4.754 -7.943c-1.225,0.999 -2.439,1.997 -3.664,2.996 -0.295,-1.089 1.066,-2.088 3.664,-2.996zm-5.241 5.73l2.155 0.454c-1.417,1.191 -0.544,0.998 -3.732,0.806 0.511,-0.42 1.066,-0.84 1.577,-1.26zm1.861 4.755c0.193,-0.318 1.667,-1.158 3.471,-2.349 -2.121,3.472 -1.316,5.503 -6.115,9.451 -0.545,0.193 -1.067,0.386 -1.611,0.613 1.384,-2.576 2.666,-5.083 4.243,-7.715l0.012 0zm-1.861 18.494c0,0 0,0.011 0,0.022 0,0 0.011,-0.011 0.023,-0.022 -0.647,0.646 -0.588,1.697 -4.743,3.993 0.511,-1.667 2.541,-2.825 4.731,-3.982l-0.011 -0.011zm-0.488 11.164c0.261,-0.261 1.089,-0.612 1.736,-0.998 -0.295,1.77 -0.511,3.404 -0.806,5.276l-6.047 1.35 5.117 -5.628zm-3.574 14.41c0.193,0.068 0.386,0.125 0.578,0.193 -1.452,1.225 -2.893,2.474 -4.345,3.665 -0.431,-1.572 3.753,-3.858 3.767,-3.858zm-18.971 -16.305c0.965,-1.838 1.838,-3.54 2.803,-5.401 1.384,-0.385 2.893,-0.805 4.152,-1.157 -2.7,1.804 -1.577,3.631 -6.943,6.558l-0.012 0zm9.815 -32.461c0.511,-0.193 1.032,-0.386 1.509,-0.579 -1.59,3.109 -1.241,2.833 -2.837,3.438l1.316 -2.859 0.012 0zm-2.962 7.625c0.295,0 0.511,0.034 0.806,0.068 -1.191,0.964 -2.315,1.929 -3.506,2.927l-0.998 -0.125 3.698 -2.859 0 -0.011zm-2.643 -4.788c-0.511,0.351 -1.033,0.703 -1.543,1.066 -0.647,-0.193 -1.26,-0.419 -2.224,-0.737 3.574,-1.702 3.733,-1.067 3.767,-0.318l0 -0.011zm-4.698 23.928c-0.964,0.454 -1.962,0.897 -3.211,1.476 -0.771,2.575 -4.152,6.274 -2.348,7.681 0.419,0.318 -1.351,2.087 -2.247,3.279 -1.668,-0.352 -3.846,2.167 -5.696,2.927 -0.158,-0.873 -0.351,-1.736 -0.578,-2.825 4.084,-2.894 5.593,-5.367 6.558,-7.783 0.318,-0.874 1.645,-2.19 2.382,-3.211 1.033,-1.578 1.963,-3.053 2.927,-4.596 4.437,-0.896 4.471,-0.873 2.225,3.052l-0.012 0zm-8.838 0.965c-0.647,1.418 -1.067,2.315 -1.475,3.313 -3.96,0.703 -3.96,0.681 1.475,-3.313zm8.873 -12.186c-0.738,1.351 -1.26,2.576 -1.861,3.858 -2.281,0.703 -4.346,1.384 -6.206,1.861 -2.86,0.771 -0.193,-1.736 -0.806,-2.383 2.189,-2.44 10.778,-6.751 8.872,-3.347l0.001 0.011zm-4.471 -10.518l2.542 0.545c-5.56,3.438 -1.963,4.89 -9.043,9.1 2.349,-3.382 0.806,-5.083 6.502,-9.645l-0.001 0zm-7.624 -1.486l2.439 0.511c-3.188,1.702 -3.278,0.998 -3.631,0.488 0.386,-0.318 0.772,-0.681 1.192,-0.999l0 0zm-2.02 18.211c1.158,-1.611 3.382,-3.018 5.118,-2.803 -1.26,0.897 -2.508,1.838 -3.96,2.894 -0.386,1.259 2.734,1.316 -3.404,4.697 0.737,-1.645 0.964,-3.052 2.246,-4.788l0 0zm-10.71 15.884l4.663 -3.631c-0.84,1.804 -2.281,2.769 -4.663,3.631zm1.225 -24.213l-2.439 -0.51c3.12,-1.645 3.732,-1.385 2.439,0.51zm3.823 16.339c-0.51,1.384 -0.873,2.315 -1.282,3.472 -2.031,0.771 -3.698,1.384 -6.115,2.28l7.397 -5.752zm-5.4 -24.735c0.261,0.034 0.488,0.102 0.703,0.125 -1.191,0.965 -2.417,1.929 -3.631,2.927 -0.261,-0.068 -0.544,-0.102 -0.839,-0.158l3.767 -2.894zm-8.305 1.669c-2.44,-0.262 -2.315,-0.386 2.507,-3.189 -0.874,1.123 -1.702,2.156 -2.507,3.189zm9.553 57.797c0.125,-1.226 0.227,-2.44 0.386,-4.153 -1.123,1.055 -2.383,2.008 -3.597,2.927 0.936,2.586 0.25,2.941 0.84,4.357 1.018,-2.093 0.568,-1.275 2.36,-3.131l0.011 0zm7.659 -9.746c0.578,-1.192 1.123,-2.247 1.702,-3.506 -3.245,2.28 -3.824,3.437 -1.702,3.506zm-2.315 4.765c-1.861,1.77 -3.54,3.347 -5.208,4.924 3.506,-0.193 4.629,-2.961 7.466,-4.595l-2.258 -0.329zm41.833 -36.036c-0.159,0.181 -0.341,0.386 -0.454,0.522 0.091,-0.102 0.227,-0.261 0.454,-0.522zm-0.534 0.602c0,0 -0.045,0.045 0,0zm-46.507 40.347l-0.102 0 -0.068 0.136 0.17 -0.136zm18.619 -8.135c-2.802,3.63 -5.469,7.273 -7.943,10.835 -0.544,0.772 -0.317,1.282 -0.385,1.895 -0.917,8.209 -1.295,6.242 1.259,6.468 8.362,-12.096 7.523,-9.645 10.325,-21.513 -1.282,0.874 -2.825,1.77 -3.245,2.315l-0.011 0zm50.433 15.283l0.805 -3.03 -6.467 5.016c2.281,-0.806 3.824,-1.351 5.662,-1.998l0 0.012zm10.483 -31.043l2.156 -4.925c-4.311,2.054 -4.243,3.506 -5.015,4.788 -0.647,1.123 0.159,1.453 2.859,0.125l0 0.012zm-32.948 -16.532c0,0 -0.057,0.068 -0.079,0.091 0.022,-0.023 0.045,-0.057 0.079,-0.091z"/>
    <path id="_1_0" fill="#330066" fill-rule="nonzero" d="M49.972 134.566l0 0zm-43.988 -48.414c3.347,-1.645 5.435,-2.632 7.329,-3.699 0.352,-0.193 0,-0.579 -0.102,-0.896 -2.247,1.259 -5.537,2.382 -7.238,4.595l0.011 0zm43.999 48.402c0,0 0.069,-0.034 0.102,-0.068 0,0 -0.033,0 -0.068,-0.034 -0.068,0.034 -0.102,0.068 -0.158,0.068 0.033,0.034 0.068,0.034 0.124,0.034zm-32.097 -81.238c-5.401,2.7 -8.101,5.083 -8.067,7.522 1.77,-0.93 3.54,-1.667 3.823,-2.087 3.92,-5.774 7.128,-4.577 4.244,-5.435l0 0zm0.09 -0.068l-0.034 -0.068c0,0 -0.102,0.068 -0.158,0.102l0.227 -0.035 -0.035 0.001zm-4.663 57.025c0.125,-0.09 -0.147,-0.193 -0.408,-0.408l-4.675 2.303c2.507,-0.034 3.79,-1.033 5.083,-1.895l0 0zm7.012 3.37c3.767,-1.35 3.018,-2.417 3.54,-3.631l-7.523 3.767c1.736,-0.034 2.962,0.261 3.983,-0.125l0 -0.011zm-7.136 -32.155l0.124 -0.033c-0.068,0 -0.124,0.033 -0.124,0.033zm3.313 -33.8c-0.069,0.034 -0.125,0.068 -0.193,0.102l0.068 0.034 0.125 -0.136zm21.579 -19.822c-2.053,0.896 -3.926,1.929 -5.888,2.893l4.572 -0.192c0,0 0.182,-0.034 0.182,-0.034l-0.147 0 3.63 -2.826c-0.805,0.034 -1.804,-0.102 -2.348,0.159l-0.001 0zm-35.966 100.72c0,0.272 0,0.545 0,0.828 1.168,-0.612 2.144,-1.112 3.086,-1.611 -1.293,0.193 -2.326,0.443 -3.097,0.783l0.011 0zm3.165 -20.57c1.418,-0.681 2.768,-1.316 4.175,-1.997 0.545,1.475 -0.033,3.12 -3.982,6.047 3.926,-1.838 6.172,-2.86 8.589,-3.96 1.033,0.125 1.963,0.261 2.859,0.386 3.983,-1.895 4.403,-2.189 6.944,-5.628 0.545,-0.737 0.647,-1.384 1.033,-2.189 -2.088,0.771 -3.699,1.384 -4.856,1.838 -0.613,-1.509 -1.157,-2.893 -1.668,-4.243 -1.838,0.612 -3.381,1.157 -5.31,1.838 1.736,-1.997 4.312,-2.281 6.309,-2.826 1.77,-1.384 3.404,-2.609 5.049,-3.857l-6.819 -2.962c-1.736,1.123 -3.823,2.224 -3.699,2.44 0.42,0.771 0.897,1.225 -1.861,2.825 -1.384,0.806 -0.805,1.929 -1.384,2.961l-0.035 0c-0.578,1.066 -5.151,4.243 -4.856,4.981 0.522,1.327 -1.441,3.041 -3.96,4.652 0.057,1.18 0.102,2.371 0.148,3.563 1.157,-0.795 2.609,-1.589 4.493,-2.395 -0.454,-0.544 -0.738,-0.964 -1.157,-1.475l-0.012 0.001zm35.15 -80.309l0.261 -0.102 -0.102 -0.034c0,0 -0.102,0.103 -0.159,0.125l0 0.011zm-29.012 15.567l0 -0.033 -0.261 0.102c0.102,-0.034 0.159,-0.069 0.261,-0.069zm77.414 76.939l0 0.034 0.068 0 -0.068 -0.034zm-33.255 -98.837l2.031 0.896c0.613,-1.838 0.227,-1.929 -2.031,-0.896zm-46.28 51.103l2.28 0.738c1.612,-1.509 0.874,-1.77 -2.28,-0.738zm10.642 49.084c6.717,-2.542 4.437,-4.016 6.467,-5.98 -6.115,2.474 -5.854,4.176 -6.467,5.98zm-4.334 0.704c-2.087,0.488 -3.823,0.896 -6.274,1.475 1.283,0.873 3.347,0.386 6.274,-1.475zm11.119 -35.117l0.295 -0.068 -0.068 -0.034c-0.068,0.034 -0.159,0.068 -0.227,0.102zm8.34 -15.476c0.896,-0.488 0.896,-1.158 1.316,-1.736 2.927,-1.509 6.694,-2.86 7.466,-4.663 0.102,-0.261 2.087,-0.998 3.278,-1.543 -0.193,-0.261 -0.193,-0.613 -0.703,-0.579 -1.736,0.034 -3.699,0.261 -5.922,0.454l-3.121 1.577c-0.578,0.965 2.701,0.84 -0.805,2.576 -0.965,-0.227 -1.963,-0.454 -3.052,-0.738 -2.122,2.088 -3.892,3.824 -6.206,6.082 0.067,0.42 0.158,1.282 0.317,2.349 2.825,-1.419 5.344,-2.542 7.432,-3.767l0 -0.012zm-8.147 15.442l-0.227 0.125 0.318 -0.159c0,0 -0.069,0.034 -0.102,0.034l0.011 0zm-13.728 -5.628l0.033 0.069c0.069,-0.034 0.159,-0.069 0.227,-0.125l-0.261 0.068 0.001 -0.012zm36.783 53.078c-3.245,1.952 -6.161,0.896 -2.303,-0.998 0.772,0.295 1.577,0.612 2.349,0.896l4.856 -2.383 -1.997 -0.578c-1.26,0.295 -2.542,0.544 -3.79,0.84 -1.77,-0.647 -2.053,-1.771 -0.454,-3.597 0.613,-0.703 0,-1.226 -0.125,-1.838 -1.474,0.771 -2.995,1.543 -4.504,2.281 -1.667,-0.318 -3.404,-0.681 -5.207,-1.033 -2.383,1.861 -4.539,3.574 -6.91,5.435 -1.577,-0.295 -3.018,-0.579 -5.344,-0.998 -0.034,0.896 -0.454,1.509 0.034,1.577 2.189,0.351 1.066,1.77 0,3.154 -1.804,2.439 -3.733,4.89 -5.31,7.273 -0.454,0.681 0.226,1.123 0.317,1.577 3.574,-2.031 6.309,-3.767 9.486,-5.31 4.084,-1.963 8.044,-2.122 7.17,-0.295 -0.646,1.35 0.193,1.543 3.211,0.805 3.597,-0.873 7.08,-1.542 10.711,-2.348 0.896,-1.123 2.156,-2.44 2.927,-3.665 0.613,-0.998 0.647,-1.861 0.897,-2.803 -2.02,1.124 -4.096,2.815 -6.025,1.998l0.011 0.01zm-11.017 0.601c0.684,0 -1.083,1.783 -1.963,3.052 -4.822,-1.259 -2.575,-0.93 -7.522,-0.613 5.627,-4.311 3.313,-3.211 10.586,-5.469 -0.704,1.09 -2.224,2.349 -1.09,3.019l-0.011 0.011zm1.214 -3.12c-1.066,-0.125 -2.155,-0.295 -4.084,-0.545 3.596,-1.066 5.752,-1.667 7.874,-2.28 -1.26,0.964 -2.542,1.895 -3.79,2.825zm7.046 -68.383c0,0 -0.068,0.034 -0.102,0.034 0,0.033 0.034,0.033 0.034,0.033 0,0 0.034,-0.068 0.068,-0.068l0 0.001zm32.393 55.778l0.158 0.068c0,0 0.034,-0.068 0.069,-0.102 -0.069,0 -0.125,0.034 -0.227,0.034zm-74.101 -22.489c-2.348,0.806 -3.619,1.52 -4.39,2.19 0.056,0.567 0.102,1.134 0.158,1.679 3.347,-1.384 3.677,-2.53 4.232,-3.869zm27.14 -13.797c-2.088,1.09 -4.243,2.19 -6.241,3.313 -0.192,0.102 0.296,0.352 0.545,0.579 2.224,-1.226 4.436,-2.417 6.66,-3.597l-0.964 -0.295zm5.083 -20.514c0.681,-0.998 1.282,-1.86 1.997,-2.893 -3.858,1.702 -4.539,2.666 -1.997,2.893zm-24.825 47.212l0.011 0.011 0.011 -0.011 -0.022 0zm70.174 11.993l-1.962 4.822c4.573,-1.963 5.049,-3.347 7.715,-6.433l-5.753 1.611zm-56.377 -34.606l-4.823 2.417c0.999,0.261 1.793,0.476 3.484,0.896 0.601,-1.555 0.987,-2.451 1.339,-3.313zm-6.887 34.447l0.124 -0.125c-0.102,0.034 -0.158,0.068 -0.261,0.102l0.137 0.023zm5.559 -31.134c0,0 -0.011,0 -0.023,0 0,0.011 0,0.023 -0.011,0.034l0.034 -0.034zm54.392 28.944c-0.93,1.123 -1.86,2.281 -3.313,4.051l5.855 -2.927 -2.542 -1.124zm-21.421 -7.295c-0.011,0 -0.022,0 -0.033,0l0.033 0zm11.902 -71.277c0,0 -0.022,0 -0.033,0l0.033 0zm-11.935 75.043c0.839,-1.089 -0.193,-1.259 -2.894,-0.93 -0.453,1.418 -0.806,2.575 -1.123,3.698 2.962,-0.805 3.438,-1.838 4.017,-2.768l0 0zm-8.169 2.156c1.316,-0.839 2.575,-1.644 3.789,-2.417 -2.315,0.069 -4.243,0.159 -6.751,0.295 -1.543,2.225 -2.893,4.187 -4.209,6.116 2.632,-0.873 5.276,-1.736 8.101,-2.666l-0.93 -1.328zm20.104 -77.29c0.42,-0.931 -0.578,-1.158 -3.018,-0.999 -0.385,1.351 -0.158,1.998 3.018,0.999zm-38.111 88.126c0,0 0.034,0.034 0,0.068l0.193 -0.102 -0.193 0.034zm17.723 -6.241c-2.349,3.597 -2.383,2.962 -1.26,3.983 2.383,-1.736 4.766,-3.438 6.853,-4.958 0.034,-0.84 0.261,-1.611 0.034,-2.224l0.034 0c-0.124,-0.352 -0.839,-0.511 -1.282,-0.772 -1.543,1.385 -3.733,2.383 -6.592,3.279 -2.382,0.738 -4.765,1.77 -7.874,2.928 0.998,0.612 1.543,0.93 2.088,1.282 2.768,-1.226 5.015,-2.224 8.01,-3.54l-0.011 0.022zm4.436 -3.993l-0.102 0.034 0.068 0 0.034 -0.034zm-0.136 0.034l0.102 -0.034c0,0 -0.068,0 -0.102,0.034zm-40.937 -37.307c4.539,-2.859 3.404,-5.049 8.464,-7.976 -2.087,-0.578 1.645,-2.247 2.701,-3.438l11.675 -13.287c0.42,-0.124 0.873,-0.261 1.282,-0.386 0.295,0.772 0.613,1.544 0.931,2.383l3.766 -1.86c-0.646,-1.067 -1.259,-2.054 -1.895,-3.155l-11.38 5.696c0.42,0.511 0.738,0.931 0.965,1.158 -3.018,1.259 -6.717,2.416 -7.908,3.381 -2.281,1.861 -5.276,3.631 -7.874,5.593 1.736,-0.612 3.506,-1.225 5.276,-1.86 -0.193,1.645 -0.034,3.086 -3.472,5.401 -0.738,0.488 -1.509,1.35 -1.191,1.452 2.541,0.931 -2.996,3.347 -3.96,4.924 -0.511,0.84 -2.542,1.998 -3.574,2.734 -2.383,0.262 -4.754,0.523 -6.899,0.738 0.034,1.509 0.091,3.007 0.148,4.505 2.666,-2.258 7.012,-3.949 10.711,-5.764 0.454,-0.227 1.452,-0.193 2.246,-0.227l-0.012 -0.012zm58.92 21.32c-0.125,-1.577 -3.506,0.033 -6.626,1.089l0.034 0c3.79,0.964 2.19,1.066 6.592,-1.089zm-7.851 4.924c-4.244,1.509 -5.526,2.984 -5.946,4.493 1.759,-0.351 3.484,-0.737 5.14,-1.055 1.384,-1.577 2.281,-2.86 0.806,-3.438l0 0zm-49.208 35.026l-0.125 0c0,0 0,0.034 0,0.034l0.159 0 -0.034 -0.034zm53.36 -38.078l0 0zm-53.133 38.009c1.861,-1.225 3.733,-2.439 6.138,-4.016 -1.804,-0.068 -3.471,-0.102 -5.241,-0.159 2.223,-1.225 4.209,-2.348 6.399,-3.596 -0.896,-0.261 -1.611,-0.488 -2.7,-0.806 -2.825,3.018 -1.419,2.189 -7.08,3.188l6.025 -5.639c2.292,-0.715 4.595,-1.43 7.295,-2.235l-4.118 3.211c4.175,-1.316 6.944,-3.699 10.2,-3.665 1.645,-0.771 1.838,-1.316 0.873,-1.384 -1.191,-0.102 -2.802,0.102 -4.243,0.159 1.26,-0.897 2.474,-1.771 3.665,-2.61 -5.321,1.94 -9.712,4.028 -13.592,6.4 0.658,-1.09 1.304,-2.213 2.076,-3.529 4.061,-0.427 2.35,0.073 6.75,-3.12l-2.314 -0.999 4.924 -2.473 -2.61 3.472 0.158 -0.103c1.453,1.509 7.659,-3.982 13.321,-4.504 0.102,-0.874 -0.545,-1.702 0.386,-2.247 3.959,-2.28 3.472,-3.733 5.4,-5.56 -1.452,0.103 -2.473,0.159 -3.506,0.261 8.169,-2.927 6.558,-0.839 7.239,0.874 1.736,-1.316 2.961,-2.19 3.926,-3.018 1.032,-0.931 1.452,-1.838 2.768,-2.734 3.665,-2.542 4.573,-4.403 4.38,-6.082 1.509,-0.737 4.051,-1.702 4.209,-2.054 0.931,-2.189 4.402,-2.507 7.523,-3.471 0.419,-0.84 1.542,-1.963 1.089,-2.383 -0.545,-0.454 -2.576,-0.261 -3.631,-0.318l6.694 -5.922 -2.292 -0.988c2.315,-1.327 4.13,-2.428 5.866,-2.064 1.532,-0.749 3.029,-1.499 4.561,-2.247 -1.838,-0.352 -0.896,-1.736 -0.806,-2.769 0.352,-0.578 6.116,-2.734 3.154,-3.188 6.241,-2.734 2.281,-5.367 9.554,-7.659 1.123,1.123 -1.645,3.665 1.452,4.017 0.545,-0.999 4.47,-2.701 2.088,-3.12 2.597,-2.271 1.429,-0.903 2.473,-3.631 0.651,-1.699 1.484,-1.588 1.294,-2.485 -0.794,0.317 -1.316,0.227 -1.918,0.124 -1.474,-0.295 -3.153,-0.453 -5.082,-0.703 0.84,-0.771 1.225,-1.543 1.702,-2.348 1.236,-0.477 2.519,-1.067 3.619,-1.68l-0.783 -3.506c-0.045,0.045 -0.068,0.091 -0.102,0.125 0.023,-0.046 0.057,-0.08 0.102,-0.136l-2.972 -16.339c-0.716,1.418 -1.056,2.644 -3.529,4.346 -2.962,-0.761 -2.145,-2.009 3.46,-4.698l-1.384 -8.668c-2.632,0.193 -3.154,-0.658 -4.266,-1.135 1.339,-0.442 2.666,-0.862 3.994,-1.293l-0.67 -6.365c-0.646,0.59 -1.486,1.214 -2.587,1.895 -0.896,0.578 -1.225,1.225 -1.861,1.895 -5.729,0.737 -9.621,4.595 -15.566,6.206 1.861,-1.452 3.438,-2.666 5.049,-3.926 4.731,-1.226 8.815,-3.188 11.448,-5.435l0 -0.034c1.055,-0.885 2.155,-1.792 3.256,-2.7 -0.057,-0.465 -0.125,-0.931 -0.181,-1.407 -1.18,0.34 -2.428,0.703 -3.846,1.112 1.509,-1.464 2.507,-1.838 3.653,-2.485l-1.123 -7.806c-9.378,0 -1.829,-0.389 -12.504,2.678 -0.42,1.282 -0.84,2.541 -1.259,3.823 -1.839,0.488 -3.053,0.806 -4.925,1.283 0.318,0.646 0.579,1.157 0.806,1.645 -2.031,0.896 -2.122,0.896 -4.084,-0.318l-0.034 -0.034 9.213 -9.213c-5.232,-0.139 -3.866,-0.445 -8.272,0.782 0.375,-0.328 0.681,-0.658 0.954,-0.964 -2.179,-0.057 -4.482,-0.148 -7.137,-0.238 -2.893,2.881 -4.913,5.571 -3.88,7.635 0.737,-0.124 1.702,-0.351 2.609,-0.544 0.068,0.227 0.261,0.318 0.125,0.511l-7.296 9.973c-0.193,1.543 -0.261,1.702 -2.927,3.574 1.26,-0.159 2.44,-0.318 4.085,-0.511 -4.21,1.645 -7.75,3.018 -11.414,4.47 2.224,-2.961 4.402,-5.786 6.784,-8.906 -4.186,0.839 -5.945,0.318 -6.852,-0.703l-8.397 4.152 2.054 0.897c-2.122,1.418 -3.96,2.416 -5.922,2.087l-6.717 3.347c-2.769,-0.193 -1.316,-1.509 0.159,-2.802 0.873,-0.999 1.452,-1.963 2.632,-2.962 3.086,-2.632 2.927,-4.788 7.658,-7.625l1.475 -7.046c-1.86,0.999 -4.118,1.963 -4.209,2.315 -0.642,2.414 -11.153,4.894 -18.211,11.574 0.704,0.488 1.419,0.964 2.349,1.611 -1.895,0.544 -3.086,0.93 -4.663,1.418 -0.681,2.417 -5.31,4.981 -10.359,7.432 0.613,0.646 4.471,-0.511 2.417,1.282 -0.386,0.295 0.998,0.453 1.645,0.646 0.102,0.034 0.704,-0.261 1.476,-0.544 -0.296,-0.488 -0.545,-0.999 -0.84,-1.453 2.859,-1.418 5.82,-2.246 8.94,-2.473 -6.716,2.995 -8.43,5.503 -9.201,7.908 2.995,-0.998 6.047,-2.031 9.871,-3.313 1.667,1.838 -1.838,4.856 -4.788,7.749 0.488,1.838 0.964,3.665 1.475,5.503 5.503,-2.122 1.895,-3.506 4.118,-5.049 3.631,-2.507 4.788,-4.766 8.011,-7.205 1.452,-1.123 2.859,-2.281 3.767,-3.347 0.613,-0.703 0.453,-1.259 0.578,-1.895 2.962,-0.578 2.769,-2.893 3.767,-3.404 1.282,-0.454 2.507,-0.896 3.733,-1.35 0.511,0.102 1.543,0.068 1.418,0.295 -1.475,2.348 -1.736,4.504 -6.592,7.397 -0.261,0.159 -0.158,0.352 -0.261,0.613 1.033,-0.159 2.122,-0.317 3.211,-0.51 -0.84,1.225 -1.611,2.314 -2.575,3.698 2.382,-0.93 4.118,-1.611 5.854,-2.281 -0.703,0.965 -2.7,1.963 -2.995,2.508 -1.067,2.088 -4.243,2.859 -7.556,3.631 -0.454,0.579 -0.84,1.066 -1.226,1.543 -1.418,0.351 -2.734,0.738 -4.085,1.089 -0.226,0.227 -0.419,0.42 -0.681,0.647 1.612,0.102 3.211,0.193 4.981,0.295 -2.666,1.645 -5.242,3.211 -8.623,3.506 -1.667,1.418 -3.12,2.666 -4.595,3.892 6.433,-3.189 12.832,-5.151 19.492,-7.012 -0.317,-0.647 -0.578,-1.158 -0.93,-1.804 1.77,-0.454 2.995,-0.738 3.858,-0.965 5.593,-3.789 6.853,-7.295 13.569,-11.062 5.367,-0.318 0.125,2.053 -0.42,2.666 1.476,2.054 2.701,3.767 4.017,5.594 -4.958,1.35 -3.245,0.578 -6.717,3.347 1.226,-0.034 2.44,-0.102 4.243,-0.159 -3.789,3.472 -1.962,2.701 -7.204,3.382 0.261,-0.681 0.488,-1.351 0.703,-1.997 -1.645,0.839 -3.279,1.735 -4.856,2.575l3.347 1.418 4.822 -2.417c-0.068,0.454 0.068,0.874 -0.318,1.35 -2.507,3.246 -5.173,6.525 -7.715,9.713 5.82,-0.738 6.047,-0.579 3.086,1.804 3.313,-0.488 1.453,1.123 1.191,2.122 1.895,-0.703 3.79,-1.611 5.242,-1.895 3.12,-0.647 6.014,-1.316 9.486,-2.576 4.538,-1.611 5.786,-1.226 5.344,0.613 -0.159,0.647 0.193,1.158 0.295,1.77 -6.116,1.475 -10.065,4.187 -13.707,6.014 -0.544,1.475 -0.646,2.507 -1.418,3.699 -1.384,2.053 -1.577,2.121 -5.275,3.471 -0.227,-0.681 -0.42,-1.384 -0.772,-2.507 -8.067,4.538 -7.046,7.08 -10.45,10.257 5.787,-1.124 4.403,-3.983 10.45,-5.049 -1.577,1.066 -2.893,1.895 -4.595,3.052 1.736,0.102 3.211,0.227 4.924,0.317 -1.543,0.454 -3.188,0.772 -3.506,1.067 -10.393,8.044 -5.56,7.715 -7.591,9.1 -5.015,3.472 -5.151,5.979 -8.135,9.428 3.926,-1.702 2.927,-1.032 5.401,-3.086 2.507,-2.122 3.698,-2.439 5.627,-1.702 -1.667,1.611 -3.211,3.086 -4.731,4.573 0.488,-0.034 0.964,-0.034 1.453,-0.068 1.702,-1.09 3.403,-2.224 5.468,-3.54 0.681,0.226 1.351,0.453 2.156,0.737 -3.211,1.77 -6.082,3.313 -8.941,4.89 0.159,0.103 0.352,0.193 0.511,0.296 1.804,-0.647 3.597,-1.283 5.696,-2.054 0.318,0.488 0.613,0.873 0.93,1.384 -3.052,0.703 -5.502,1.26 -7.851,1.771 -0.874,0.998 -1.611,1.803 -2.667,2.926 8.011,-2.609 3.54,0.738 4.573,1.453 1.645,1.191 -2.054,3.188 -4.766,5.049 1.612,-0.227 2.701,-0.386 3.767,-0.511 -3.438,3.189 -2.859,1.861 -4.243,5.594 -0.42,-2.734 -7.488,2.893 -11.255,1.453 -3.449,2.916 -5.027,5.457 -5.877,7.874 2.847,-1.498 2.938,-1.464 4.685,-0.284 -2.053,0.182 -3.404,0.306 -4.742,0.409 -1.214,1.158 -2.462,2.269 -3.813,3.517 -0.839,0.227 -2.155,0.579 -4.311,1.158 1.089,0.703 1.929,1.225 2.576,1.667 -2.99,2.512 -2.829,2.854 -6.355,4.573 0,0.374 0.023,0.748 0.023,1.1l5.628 -2.031c-2.054,1.328 -3.846,2.473 -5.583,3.597 0.023,0.998 0.057,1.929 0.08,2.791 2.439,-1.657 3.993,-3.404 6.558,-5.106 2.28,0.647 4.311,1.191 6.308,1.736l-0.01 -0.044zm10.427 -115.231c0.488,-0.261 0.965,-0.511 1.453,-0.771l2.417 1.032c-3.699,1.123 -3.405,0.227 -3.858,-0.261l-0.012 0zm3.529 11.516c0.453,-1.895 2.859,-2.507 5.015,-3.188 -1.385,0.896 -2.825,1.804 -5.015,3.188zm12.707 -8.01c1.124,-1.09 2.19,-2.19 5.503,-2.86 -1.033,1.384 -3.052,2.19 -5.503,2.86zm10.87 71.844l-1.895 -0.84 9.235 -4.595c0.227,0.839 0.647,1.577 0.545,2.439l0.034 0c-0.034,0.193 -1.316,0.84 -2.155,1.282 -1.578,-0.544 -3.79,1.385 -5.753,1.702l-0.011 0.012zm3.347 2.19c0.317,-1.543 0.681,-2.508 2.439,-3.767 0.897,0.193 1.804,0.386 2.701,0.544 -1.351,0.84 -2.735,1.702 -5.151,3.211l0.011 0.012zm10.325 -24.543c-0.193,-0.102 -0.352,-0.192 -0.579,-0.317l4.278 -2.122c0.226,0.125 0.453,0.261 0.703,0.386 -1.475,0.681 -2.927,1.35 -4.402,2.053zm13.479 -31.224c-1.668,0.772 -3.347,1.577 -5.015,2.383 0.93,-1.418 1.032,-1.453 5.015,-2.383zm-9.077 2.315c-0.772,-0.193 -1.475,-0.386 -2.609,-0.704 4.345,-1.735 3.63,-3.732 8.657,-5.31 0.033,0.931 0.068,1.895 0.068,2.962l-6.116 3.052zm6.501 10.449c0.613,0.352 1.158,0.681 1.736,1.033 -0.488,0.227 -0.964,0.454 -1.452,0.704l-2.054 -0.897 1.77 -0.84zm-1.645 7.591c4.895,-1.625 4.299,-1.733 9.133,-2.383l-7.431 3.699c0.488,0.579 0.874,1.033 1.259,1.475 -2.417,0.579 -4.856,1.192 -7.273,1.771 1.476,-1.544 2.962,-3.121 4.312,-4.573l0 0.011zm17.246 -7.454c-0.658,0.612 -0.806,0.975 -0.658,1.168l-1.498 -0.397 2.156 -0.771zm1.384 1.702c-1.929,1.611 -3.926,3.188 -5.888,4.765 -1.578,0.193 -3.121,0.352 -4.596,0.545 0.42,-0.703 0.772,-1.316 1.158,-1.963l9.326 -3.347zm-1.123 -0.329l2.28 -0.284 -1.123 0.544 -1.157 -0.26zm1.566 -0.613l-1.691 -0.726c0.976,0.318 1.895,-0.102 1.691,0.726zm-9.577 0.363c-1.316,0.703 -2.632,1.384 -4.504,2.383 -0.033,-1.351 1.668,-1.997 4.504,-2.383zm-0.453 16.304c-1.578,0.386 -3.211,0.806 -5.344,1.351 0.294,0.544 0.51,1.032 0.873,1.668l-6.751 3.381c1.35,-3.96 3.96,-5.889 12.549,-9.395l1.838 -0.159c-1.668,1.158 -4.663,2.474 -3.154,3.154l-0.011 0zm2.7 -4.89l-6.524 0.965c-1.543,0.703 -3.121,1.418 -5.174,2.417 0.193,-1.316 2.7,-2.122 4.085,-2.962 -0.931,-0.681 2.348,-2.927 -0.874,-2.734 1.577,-0.806 3.188,-1.611 5.083,-2.576 0.227,0.681 0.351,1.123 0.511,1.543 1.475,-0.998 2.7,-1.804 3.857,-2.609 0.034,0.034 0.034,0.068 0,0.125 -3.733,4.89 -0.42,4.697 0.068,5.174 -0.351,0.226 -0.703,0.419 -1.032,0.646l0 0.011zm12.673 -8.748l-9.485 4.732c1.702,-1.702 0.42,-2.474 3.79,-3.824 1.35,-0.511 3.018,-0.511 5.695,-0.896l0 -0.012zm-5.922 -5.923c0.737,-1.417 1.259,-2.416 1.77,-3.404 1.089,0.159 2.156,0.352 3.506,0.613 -1.838,0.965 -3.052,1.612 -5.276,2.803l0 -0.012zm3.857 1.135c0,0 0.023,-0.011 0.023,-0.022 0.148,-0.046 0.295,-0.092 0.443,-0.148 -0.159,0.056 -0.306,0.114 -0.466,0.159l0 0.011zm4.051 -3.54c-0.567,0.828 -1.566,1.679 -2.44,2.349 0.863,-0.67 1.85,-1.52 2.44,-2.349zm-2.496 2.383c0,0 0.023,-0.011 0.034,-0.023 -0.011,0 -0.023,0.011 -0.034,0.023zm-3.608 -3.427c-0.137,-0.964 -1.453,-1.826 4.436,-3.562 -1.668,1.316 -0.079,2.155 -4.436,3.562zm-0.227 -12.912c-0.613,1.226 -1.259,2.417 -1.963,3.79l3.597 -0.318c-1.509,1.226 -2.961,2.417 -4.403,3.574 1.861,0.295 2.508,1.089 1.51,2.156 0.828,-0.601 1.702,-1.203 2.677,-1.884l-3.994 2.814 -2.507 0.545 -1.43 1.611c0.216,-0.238 0.42,-0.465 0.624,-0.703 -0.453,0.068 -0.873,0.034 -1.259,-0.125 -1.645,0.738 -3.279,1.475 -4.924,2.247 -0.227,-0.125 -0.454,-0.262 -0.703,-0.386l5.752 -2.86 2.439 -2.893c-1.066,-0.318 -2.122,-0.647 -2.7,-0.874 1.167,-1.166 6.481,-6.694 7.284,-6.694zm-14.307 3.858c2.348,-1.123 3.698,-1.77 5.945,-2.825 -0.84,1.259 -1.384,2.087 -2.247,3.438 -1.452,-0.261 -2.314,-0.386 -3.698,-0.613zm15.271 -15.181c-1.089,1.645 -2.053,3.018 -3.12,4.595 -1.86,0.42 -3.631,0.806 -5.31,1.192 0.125,-1.929 2.7,-3.699 8.43,-5.787zm-1.316 -7.114c-2.28,4.765 -0.896,3.188 -6.365,6.115l-2.156 -0.93c3.927,-1.509 3.189,-3.506 8.521,-5.174l0 -0.011zm-15.918 13.445c0.125,-0.419 2.507,-1.418 4.186,-2.28 -0.873,1.384 -1.509,2.417 -2.246,3.631 4.924,-0.874 7.012,-0.159 7.205,1.77l0.034 -0.001c-3.018,0.262 -5.56,0.454 -8.238,0.681 -1.35,1.192 -2.417,2.088 -3.438,2.962 -4.084,-0.874 1.645,-4.504 2.508,-6.751l-0.011 -0.012zm-25.574 19.175l0 -0.034c-0.454,0.159 -0.93,0.295 -1.384,0.454 -0.295,-0.454 -1.226,-0.772 -0.772,-1.384 1.158,-1.543 1.351,-2.86 4.573,-4.856 2.7,-1.612 2.802,-2.962 1.316,-3.597 3.052,-1.997 5.662,-3.631 4.504,-4.958 -0.737,-0.874 0.647,-2.542 4.244,-4.119 -0.103,-1.032 -0.159,-1.929 -0.261,-3.245 -2.315,1.509 -4.085,2.633 -5.787,3.767 -1.963,-0.42 -1.929,-1.543 0.102,-3.12 3.96,-2.995 7.273,-7.046 7.625,-9.52 0.124,-0.896 0.998,-1.667 3.437,-2.507 3.245,-0.42 0.579,1.577 1.418,1.997 1.702,0.806 -1.509,2.122 -3.506,3.665 1.645,0.068 3.154,0.159 5.083,0.261 -2.575,1.452 -5.469,3.018 -8.294,4.595 0.069,0.125 0.125,0.227 0.193,0.318 1.509,-0.488 3.018,-0.998 5.015,-1.645 -0.102,0.488 -0.158,0.998 -0.261,1.543 0.999,-0.193 1.963,-0.386 2.803,-0.511 -0.897,1.09 -1.771,2.156 -2.667,3.245 1.736,-0.125 2.735,-0.227 4.278,-0.351 -1.895,1.089 -3.574,2.053 -5.208,3.018 1.543,-0.262 3.052,-0.545 5.117,-0.897 -5.82,3.574 -5.729,6.048 -8.271,8.68 -3.381,1.385 -6.365,2.61 -10.257,4.21 4.346,0.806 -2.859,3.472 -3.018,4.981l-0.022 0.01zm9.746 0.057c1.453,-1.158 2.927,-2.349 3.926,-3.121l7.012 -2.961c0.364,1.255 1.543,0.414 -4.834,3.733 0.227,0.511 0.454,1.089 0.84,1.963 -2.859,0.158 -4.89,0.261 -6.944,0.386zm6.048 15.828c0.578,-0.159 1.066,0.295 1.611,0.488l-4.992 1.702c0,-0.931 1.804,-1.702 3.381,-2.19zm-10.995 -3.506l9.678 -4.822c0.511,1.735 -3.698,3.959 -5.503,5.82 -0.102,1.158 -0.192,2.315 -0.317,3.699 -2.542,0.578 -4.346,0.964 -5.821,1.316 -0.033,-0.998 -0.033,-1.895 -0.068,-2.893 1.158,-0.613 2.507,-1.317 3.858,-1.998 -0.545,-0.351 -1.123,-0.681 -1.838,-1.123l0.011 0.001zm4.879 9.485c-0.579,0.295 -1.157,0.613 -1.736,0.896l-2.031 -0.873c1.899,0 -1.275,-1.448 3.767,-0.034l0 0.011zm-6.875 1.611l1.837 1.09c-3.211,0.964 -5.854,1.735 -9.973,2.961l8.136 -4.051zm-16.759 13.605c-0.295,-0.102 -0.544,-0.227 -0.805,-0.318l4.345 -2.156c0.262,0.068 0.488,0.159 0.704,0.261 -1.418,0.738 -2.825,1.475 -4.244,2.224l0 -0.011zm3.631 1.611c0.703,-5.696 14.727,-7.682 21.512,-9.043 -3.858,1.861 -7.205,1.509 -11.165,3.823 -3.018,1.736 -6.693,3.382 -10.358,5.208l0.011 0.012zm-36.727 52.612l6.013 -1.35c0.704,-1.771 1.351,-3.382 1.998,-4.981 -1.805,0.488 -3.574,0.93 -5.242,1.35 -1.033,1.861 -1.861,3.381 -2.769,4.981zm57.411 -41.516c1.452,-0.964 4.209,-1.929 3.96,-2.893 -4.891,1.929 -5.31,2.224 -3.96,2.893zm0.125 0.057l-0.284 0.034 0.295 -0.034 -0.011 0zm-50.286 22.023l0.069 -0.125c-0.092,0.046 -0.171,0.091 -0.262,0.136 0.069,0 0.137,0 0.205,-0.011l-0.012 0zm77.856 -49.458c-1.894,0.771 -3.925,1.35 -5.888,1.997 1.509,0.669 -3.324,2.984 -4.981,2.473 0.034,-0.022 0.068,-0.045 0.091,-0.068l-0.249 0.068c0.033,0 0.09,0 0.124,0.034l-3.563 2.769c2.61,0.964 6.945,0.771 10.836,0.737 -1.066,1.418 -2.122,2.769 -3.188,4.153 -5.276,1.282 -5.401,1.385 -7.364,3.824l-5.695 6.592 0.033 0 0.034 -0.034c1.577,1.668 -9.451,9.1 -2.961,9.814 -5.015,2.575 -5.015,4.277 -6.434,6.24 0.965,-0.102 1.861,-0.193 2.769,-0.317 0.261,1.35 -2.383,3.052 -4.663,4.731 1.452,0.034 2.893,0.068 4.436,0.068 -1.475,2.054 -3.188,4.312 -4.697,6.502 -0.579,0.873 -1.351,1.418 -3.313,1.77 5.207,-0.352 1.384,2.575 0.703,4.572 3.041,-1.372 5.389,-2.439 7.726,-3.494 0,0.023 0.023,0.023 0.023,0.057 0.102,-0.034 0.159,-0.103 0.261,-0.125l-0.261 0.056c-0.476,-0.476 -0.998,-0.964 -1.565,-1.543 2.382,-1.123 4.47,-2.155 7.136,-3.404 -0.193,0.874 -0.318,1.384 -0.488,2.054 6.467,-2.575 5.049,-4.153 7.432,-6.207 -2.701,0.488 -5.015,0.897 -7.818,1.385 2.996,-3.733 2.961,-4.596 6.887,-7.08 0.261,0.125 0.488,0.351 0.771,0.261 5.855,-1.702 8.714,-4.595 12.027,-8.011l3.699 1.611c-3.699,1.861 -7.329,3.597 -10.779,5.401 -1.316,0.704 -2.189,1.543 -3.245,2.315 2.281,-0.511 4.119,-0.806 5.118,-0.227 0.93,0.511 2.575,0.703 3.925,1.067 1.85,-1.078 3.688,-2.168 5.515,-3.245 0.226,-2.36 0.499,-4.834 0.805,-7.364l-0.442 0.216c0.728,-1.049 0.507,-0.82 0.737,-2.678 0.216,-1.702 0.454,-3.46 0.716,-5.242 -0.726,0.522 -1.499,1.089 -2.349,1.702 -1.838,0.738 -2.156,-1.282 -5.469,0.931 0.034,-0.647 0.068,-1.316 0.102,-2.054 -0.896,0.125 -2.054,0.261 -3.211,0.386 0.896,-1.225 3.313,-0.93 4.379,-1.577 1.668,-2.088 0.704,-2.995 -2.961,-2.667 2.281,-1.225 4.346,-2.28 6.524,-3.437 1.691,0.147 2.95,0.476 3.846,0.953l2.065 -12.129c-2.235,1.112 -5.287,1.372 -7.59,2.496 2.496,-1.577 5.151,-3.064 7.953,-4.505l0.976 -4.947c-0.556,0.205 -1.1,0.375 -1.6,0.488 -2.859,0.647 -4.629,1.736 -6.887,2.667l0.012 -0.035zm-14.352 33.097c-0.84,1.316 -1.929,2.7 0.227,3.051 0.42,0.069 -0.352,0.84 -0.681,1.351 -1.998,-0.125 -4.505,1.067 -7.205,2.507 1.191,-2.825 -1.838,-4.629 8.623,-8.328 -0.386,0.545 -0.703,0.965 -0.965,1.419l0.001 0zm-0.738 -2.44l-2.768 -1.191c2.632,-1.736 5.151,-3.404 7.976,-5.31 4.765,0.738 -2.86,4.153 -5.208,6.501zm11.391 -6.115l1.929 0.84c-4.186,0.839 -4.209,0.839 -1.929,-0.84zm-81.146 -74.908c1.067,-0.125 1.997,-0.261 3.245,-0.42 0.42,-0.511 0.896,-1.089 1.452,-1.735 3.087,-0.704 5.083,-1.226 7.591,-3.472 2.28,-2.054 4.277,-4.051 5.73,-5.946 1.032,-1.282 2.439,-1.928 4.923,-2.7 -0.703,1.282 -1.281,2.349 -2.223,4.051 13.106,-6.537 9.607,-4.999 23.543,-10.167 -2.508,2.19 -4.187,3.665 -5.787,5.049l4.857 0c-4.278,2.86 -6.819,5.923 -7.239,8.487 1.963,-0.896 3.733,-1.838 5.628,-2.576 0.93,-0.351 2.053,-0.295 3.086,-0.453 2.28,-1.226 4.504,-2.349 4.98,-3.665 0.227,-0.681 4.925,-3.824 5.594,-5.923 0.283,-0.817 0.624,-1.645 1.294,-2.541 -11.121,-0.261 -22.346,0.073 -33.199,-0.352 -3.517,-0.137 -7.783,-0.352 -11.175,-0.578 -1.43,0.669 -2.905,1.418 -4.607,1.996 0.556,-0.805 0.885,-1.52 1.339,-2.235 -3.983,-0.34 -6.151,-0.684 -9.066,-1.747l-1.769 12.367c1.134,-0.578 2.689,-1.078 2.791,-1.236 1.316,0.386 3.313,0.386 -0.034,2.053 -1.282,0.636 -2.28,0.931 -2.995,0.863l-2.428 15.011c0.499,-0.159 0.987,-0.306 1.497,-0.466 0.84,-1.032 1.737,-2.155 2.962,-3.664l0.01 -0.001zm51.295 -20.389l-5.049 2.507c1.067,-1.475 2.44,-2.189 5.049,-2.507zm-39.075 5.503c2.666,-0.896 5.344,-1.804 8.521,-2.825 -0.863,0.964 -1.612,1.827 -2.735,3.12 -1.463,-0.125 -2.553,-0.227 -3.801,-0.318 -0.964,0.874 -1.736,1.509 -2.473,2.156 -0.352,0.068 -0.647,0.125 -0.999,0.193l1.487 -2.326zm0.646 5.174c-1.089,1.804 -2.632,2.473 -5.242,2.768 1.351,-0.703 2.701,-1.418 5.242,-2.768zm71.106 82.6l4.345 -2.19c-0.193,-0.102 -0.42,-0.193 -0.613,-0.317 -1.475,0.681 -2.961,1.384 -4.436,2.053 0.227,0.159 0.488,0.295 0.704,0.454zm-59.011 26.301c-1.611,0.896 -3.188,1.77 -4.788,2.666 0.386,0.068 0.806,0.102 1.226,0.125 2.281,-0.873 4.085,-1.77 3.574,-2.803l-0.012 0.012zm-25.698 -71.3c0.771,-0.806 -1.26,-1.191 -2.031,-1.804 2.246,-1.226 4.243,-2.315 6.592,-3.597 -2.156,0.125 -3.79,0.193 -5.469,0.295 1.35,-1.259 2.507,-2.439 6.013,-2.995 1.158,-0.193 3.086,-1.158 4.698,-1.838 -4.856,-1.668 -0.068,-4.981 -0.068,-4.981 -1.736,0.193 -3.314,0.352 -4.857,0.511 -2.734,2.382 -5.434,4.765 -8.679,7.591l-1.52 -0.67c-0.103,1.589 -0.216,3.302 -0.318,5.117 1.293,-0.601 2.507,-1.18 3.71,-1.747 0.283,0.942 -1.6,1.872 -3.778,2.904 -0.125,2.224 -0.262,4.607 -0.375,7.092 2.678,-2.304 5.56,-5.299 6.082,-5.889l0 0.011zm-5.015 -11.925l-0.159 2.122c1.157,-1.021 0.783,-1.611 0.158,-2.122l0.001 0zm79.83 38.713c0,0 -0.091,0.046 -0.136,0.068l0.351 -0.033c-0.068,-0.023 -0.147,-0.023 -0.215,-0.034l0 -0.001zm-74.464 -45.248c-1.838,0.669 -3.471,1.384 -4.969,2.11 -0.08,0.783 -0.159,1.6 -0.239,2.496 3.041,-1.622 6.23,-3.199 5.208,-4.606l0 0zm63.651 1.543l-0.227 0.034 0 0.079c0.08,-0.034 0.171,-0.056 0.227,-0.114l0 0.001zm-0.136 91.598c-0.998,-0.511 0.034,-2.247 -4.243,0.124 1.157,0.069 1.067,1.033 4.243,-0.124zm17.847 -7.171c2.156,-0.783 4.028,-1.486 5.685,-2.122 0.045,-0.511 0.091,-1.01 0.136,-1.509 -0.931,0.329 -2.178,0.646 -4.051,1.112l-1.77 2.519zm-39.552 1.509l0.034 -0.034c0,0 -0.124,0.102 -0.193,0.125l0.034 0 0 0.068c0.103,-0.034 0.159,-0.068 0.228,-0.102 0,-0.034 -0.069,-0.068 -0.103,-0.068l0 0.011zm28.876 -39.269l-0.023 0 0.023 0.011 0 -0.011zm15.181 -9.644c0,0 0,-0.023 0,-0.023 -0.012,0 -0.023,0.023 -0.046,0.023l0.046 0zm-73.874 53.871c0,0 -0.023,0.023 -0.034,0.023l0.034 -0.034 0 0.011zm73.885 -53.906c4.323,-2.859 3.347,-1.94 6.456,-5.117 -3.812,1.441 -5.957,3.166 -6.456,5.117z"/>
   </g>
  </g>
  <path fill="none" d="M91.234 163.341c0.06,-0.29 0.117,-0.718 0.209,-2.252 0.091,-1.534 0.216,-4.174 0.518,-9.369 0.303,-5.195 0.782,-12.944 1.164,-18.604 0.382,-5.659 0.667,-9.229 1.038,-13.175 0.37,-3.946 0.826,-8.268 1.397,-12.773 0.57,-4.505 1.254,-9.192 2.132,-14.518 0.879,-5.326 1.95,-11.291 2.766,-15.197 0.815,-3.906 1.374,-5.753 1.733,-6.921 0.358,-1.167 0.516,-1.655 0.64,-1.921 0.123,-0.267 0.212,-0.313 0.296,-0.305 0.084,0.008 0.164,0.069 0.266,0.183 0.103,0.113 0.228,0.278 0.391,0.627 0.163,0.349 0.362,0.88 0.684,1.602 0.321,0.721 0.764,1.632 1.146,2.525 0.381,0.893 0.7,1.768 0.836,2.443 0.135,0.674 0.087,1.147 0.127,1.679 0.04,0.532 0.168,1.122 0.504,1.619 0.337,0.498 0.881,0.903 1.195,1.44 0.314,0.538 0.396,1.208 0.602,2.158 0.205,0.951 0.533,2.183 0.646,3.113 0.112,0.929 0.009,1.556 -0.098,2.148 -0.106,0.591 -0.218,1.148 -0.101,1.705 0.117,0.557 0.462,1.116 0.865,1.635 0.404,0.519 0.866,0.998 1.149,1.313 0.284,0.315 0.39,0.466 0.491,0.609 0.101,0.142 0.198,0.276 0.351,0.879 0.152,0.603 0.36,1.675 0.439,2.419 0.078,0.745 0.027,1.161 -0.003,1.576 -0.03,0.415 -0.039,0.828 -0.073,1.354 -0.034,0.526 -0.094,1.165 -0.085,1.751 0.008,0.586 0.085,1.119 0.46,1.91 0.375,0.791 1.048,1.84 1.685,2.689 0.637,0.848 1.239,1.495 1.643,1.902 0.404,0.407 0.611,0.574 0.797,0.87 0.186,0.296 0.351,0.72 0.488,1.263 0.137,0.544 0.246,1.205 0.304,1.972 0.058,0.767 0.067,1.64 0.054,2.608 -0.013,0.968 -0.047,2.031 0.15,2.999 0.197,0.968 0.624,1.84 1.101,2.577 0.476,0.738 1,1.339 1.389,1.826 0.39,0.488 0.644,0.862 0.856,1.23 0.213,0.367 0.384,0.729 0.555,1.154 0.171,0.425 0.342,0.913 0.472,1.479 0.13,0.566 0.218,1.21 0.339,1.795 0.121,0.584 0.275,1.108 0.375,1.699 0.1,0.59 0.145,1.246 0.32,2.204 0.174,0.958 0.476,2.218 0.678,3.273 0.203,1.055 0.305,1.904 0.416,2.657 0.112,0.753 0.231,1.409 0.325,2.284 0.094,0.875 0.163,1.97 0.294,2.774 0.131,0.804 0.325,1.317 0.465,2.09 0.14,0.772 0.225,1.805 0.299,2.412 0.074,0.607 0.137,0.79 0.288,0.952 0.104,0.112 0.251,0.215 0.437,0.32 -0.079,-0.368 -0.154,-0.732 -0.127,-0.999 0.028,-0.278 0.168,-0.45 0.332,-0.556 0.164,-0.105 0.352,-0.145 0.75,-0.063 0.398,0.082 1.007,0.284 1.729,0.399 0.723,0.115 1.56,0.144 2.868,0.151 1.309,0.007 3.089,-0.007 5.568,-0.327 2.479,-0.319 5.657,-0.943 8.788,-1.599 3.132,-0.656 6.217,-1.344 9.657,-2.107 3.44,-0.762 7.234,-1.599 10.248,-2.124 3.014,-0.525 5.249,-0.737 8.16,-0.854 2.912,-0.118 6.502,-0.139 10.137,0.024 3.635,0.163 7.316,0.511 9.976,0.862 2.66,0.351 4.298,0.706 5.688,1.227 1.391,0.522 2.533,1.21 3.226,1.734 0.693,0.524 0.938,0.884 1.054,1.193 0.116,0.309 0.104,0.568 -0.007,0.887 -0.11,0.319 -0.318,0.698 -0.526,1.077 0.192,-0.063 0.354,-0.202 0.566,-0.399 0.232,-0.218 0.523,-0.509 0.64,-0.957 0.116,-0.447 0.059,-1.052 0.065,-2.577 0.006,-1.525 0.074,-3.972 0.052,-6.694 -0.023,-2.724 -0.137,-5.723 -0.194,-7.553 -0.057,-1.831 -0.057,-2.492 -0.057,-3.427 0,-0.936 0,-2.144 -0.029,-3.276 -0.028,-1.132 -0.085,-2.187 -0.111,-3.279 -0.025,-1.092 -0.02,-2.221 -0.091,-4.009 -0.072,-1.787 -0.22,-4.234 -0.3,-6.212 -0.079,-1.979 -0.091,-3.49 -0.231,-7.51 -0.139,-4.02 -0.407,-10.55 -0.929,-16.996 -0.522,-6.446 -1.297,-12.81 -2.278,-18.854 -0.981,-6.045 -2.167,-11.77 -3.341,-17.21 -1.175,-5.44 -2.338,-10.594 -3.867,-15.864 -1.528,-5.268 -3.421,-10.651 -5.246,-15.498 -1.824,-4.847 -3.581,-9.158 -4.618,-11.657 -1.038,-2.499 -1.357,-3.186 -1.494,-3.631 -0.137,-0.445 -0.092,-0.647 0.009,-0.803 0.102,-0.155 0.258,-0.263 0.386,-0.349 0.014,-0.01 0.028,-0.019 0.041,-0.029 -0.042,-0.002 -0.088,-0.005 -0.144,-0.008 -0.105,-0.005 -0.243,-0.013 -0.693,-0.048 -0.449,-0.035 -1.21,-0.098 -2.217,-0.107 -1.008,-0.008 -2.262,0.038 -3.577,0.132 -1.316,0.095 -2.692,0.24 -4.839,0.609 -2.148,0.368 -5.068,0.962 -7.478,1.498 -2.41,0.535 -4.311,1.014 -6.805,1.509 -2.494,0.494 -5.581,1.003 -8.679,1.418 -3.098,0.414 -6.208,0.733 -9.971,1.076 -3.764,0.341 -8.181,0.707 -11.872,0.965 -3.692,0.259 -6.657,0.41 -9.367,0.559 -2.711,0.148 -5.167,0.292 -7.957,0.403 -2.79,0.11 -5.915,0.186 -9.017,0.251 -3.102,0.064 -6.181,0.117 -9.116,0.11 -2.935,-0.008 -5.725,-0.076 -8.341,-0.137 -2.615,-0.061 -5.056,-0.114 -7.698,-0.194 -2.642,-0.08 -5.486,-0.186 -8.975,-0.285 -3.49,-0.099 -7.626,-0.19 -12.01,-0.217 -4.383,-0.026 -9.013,0.012 -12.845,0.008 -3.832,-0.004 -6.865,-0.049 -10.876,-0.205 -4.011,-0.156 -8.998,-0.422 -12.585,-0.69 -3.587,-0.268 -5.773,-0.538 -7.362,-0.856 -1.59,-0.318 -2.583,-0.683 -3.577,-1.049 0.044,0.064 0.021,0.188 -0.027,0.625 -0.062,0.551 -0.164,1.597 -0.449,3.521 -0.286,1.925 -0.753,4.728 -1.058,6.779 -0.305,2.052 -0.448,3.352 -0.79,5.493 -0.342,2.141 -0.884,5.124 -1.32,7.752 -0.436,2.629 -0.767,4.904 -1.029,6.823 -0.263,1.919 -0.457,3.481 -0.636,5.294 -0.18,1.814 -0.345,3.878 -0.525,6.376 -0.18,2.497 -0.373,5.428 -0.567,8.701 -0.194,3.273 -0.388,6.888 -0.53,10.743 -0.143,3.855 -0.234,7.949 -0.206,12.14 0.029,4.192 0.177,8.48 0.468,12.648 0.291,4.169 0.724,8.217 1.009,11.855 0.285,3.638 0.422,6.865 0.485,10.435 0.063,3.57 0.051,7.481 0.091,11.969 0.04,4.488 0.131,9.552 0.223,13.777 0.091,4.225 0.182,7.612 0.266,9.945 0.084,2.332 0.162,3.609 0.193,4.373 0.031,0.764 0.017,1.015 0.027,2.23 0.01,1.214 0.044,3.393 0.078,4.946 0.035,1.554 0.069,2.484 0.137,3.037 0.068,0.553 0.171,0.73 0.482,1.055 0.311,0.325 0.83,0.798 2.632,1.177 1.802,0.38 4.886,0.665 7.829,0.918 2.942,0.254 5.742,0.476 10.492,0.73 4.75,0.254 11.451,0.539 16.4,0.753 4.95,0.214 8.149,0.356 10.954,0.382 2.806,0.026 5.218,-0.066 7.656,-0.143 2.438,-0.077 4.901,-0.139 7.25,-0.216 2.35,-0.077 4.585,-0.168 7.735,-0.565 3.151,-0.396 7.217,-1.098 9.757,-1.616 2.54,-0.519 3.556,-0.856 4.448,-1.309 0.892,-0.453 1.662,-1.024 2.078,-1.386 0.417,-0.362 0.479,-0.516 0.539,-0.807z"/>
 </g>
</svg>
