<?xml version="1.0" encoding="UTF-8"?>
<!DOCTYPE svg PUBLIC "-//W3C//DTD SVG 1.1//EN" "http://www.w3.org/Graphics/SVG/1.1/DTD/svg11.dtd">
<!-- Creator: CorelDRAW -->
<svg xmlns="http://www.w3.org/2000/svg" xml:space="preserve" width="187px" height="148px" version="1.1" shape-rendering="geometricPrecision" text-rendering="geometricPrecision" image-rendering="optimizeQuality" fill-rule="evenodd" clip-rule="evenodd"
viewBox="0 0 186.999 147.486"
 xmlns:xlink="http://www.w3.org/1999/xlink"
 xmlns:xodm="http://www.corel.com/coreldraw/odm/2003">
 <defs>
   <clipPath id="id0">
    <path d="M69.622 5.532c-9.32,-0.113 -15.317,-0.1 -21.532,-0.475 -6.215,-0.375 -12.649,-1.137 -18.001,-2.044 -5.351,-0.908 -9.62,-1.96 -13.89,-3.013l-2.056 6.766c-2.101,6.05 -3.233,10.386 -4.916,16.285 -0.249,0.873 -0.435,1.453 -0.642,2.333 -2.36,10.025 -4.55,19.989 -6.162,30.214 -0.554,3.516 -0.787,7.435 -1.226,10.942l-0.435 5.757c-0.045,1.83 -0.234,3.899 -0.37,5.626 -0.078,0.987 0.009,2.192 -0.003,3.205 -0.013,1.158 -0.208,1.511 -0.203,2.794 0.009,2.038 0.069,4.202 0.011,6.226 -0.028,1.013 -0.181,1.575 -0.197,2.723l0.192 9.099c-0.03,8.303 0.172,15.985 0.183,24.267 0.002,1.267 0.207,1.666 0.202,2.996 -0.004,0.925 -0.065,2.104 0.005,3.001 0.131,1.645 0.218,4.048 0.519,5.469 1.056,4.985 5.703,6.849 10.073,7.859 3.312,0.766 6.714,1.111 10.138,1.576 4.01,0.545 19.376,0.399 23.493,-0.086 6.45,-0.761 15.507,-0.276 22.162,-1.971 7.272,-1.853 6.398,-2.822 7.435,-7.425 0.87,-3.869 2.219,-13.998 3.169,-16.919 0.807,-2.484 1.721,-7.868 2.195,-10.524 0.344,-1.99 1.133,-3.678 1.718,-5.612 1.344,-4.441 1.694,-7.626 2.92,-12.169 0.377,-1.398 0.722,-2.38 1.102,-3.854 0.997,-3.864 2.19,-8.249 2.968,-12.117 0.575,-2.856 1.095,-5.36 1.653,-8.289l2.191 -12.734c0.189,-0.998 0.23,-2.248 1.182,-2.596 0.952,0.348 0.993,1.598 1.182,2.596l2.191 12.734c0.558,2.929 1.077,5.433 1.652,8.289 0.779,3.868 1.972,8.253 2.968,12.117 0.38,1.474 0.725,2.456 1.103,3.854 1.226,4.543 1.576,7.728 2.919,12.169 0.585,1.934 1.375,3.622 1.719,5.612 0.473,2.654 1.389,8.042 2.195,10.524 0.949,2.921 2.299,13.05 3.169,16.919 1.037,4.603 0.163,5.572 7.434,7.425 6.656,1.695 15.712,1.21 22.163,1.971 4.117,0.485 19.483,0.631 23.492,0.086 3.425,-0.465 6.827,-0.81 10.138,-1.576 4.371,-1.01 9.018,-2.874 10.074,-7.859 0.301,-1.421 0.388,-3.824 0.519,-5.469 0.07,-0.897 0.009,-2.076 0.005,-3.001 -0.005,-1.33 0.2,-1.729 0.202,-2.996 0.011,-8.282 0.213,-15.964 0.183,-24.267l0.191 -8.764 -0.196 -3.058c-0.058,-2.024 0.002,-4.188 0.011,-6.226 0.004,-1.283 -0.19,-1.636 -0.204,-2.794 -0.011,-1.013 0.076,-2.218 -0.002,-3.205 -0.136,-1.727 -0.325,-3.796 -0.37,-5.626l-0.436 -5.757c-0.439,-3.507 -0.671,-7.426 -1.225,-10.942 -1.612,-10.225 -3.802,-20.189 -6.162,-30.214 -0.207,-0.88 -0.394,-1.46 -0.643,-2.333 -1.682,-5.899 -2.814,-10.235 -4.915,-16.285l-2.057 -6.766c-2.951,0.866 -5.902,1.731 -9.677,2.477 -3.774,0.745 -8.371,1.369 -13.806,1.869 -5.434,0.5 -11.706,0.875 -19.026,1.15 -7.321,0.274 -15.692,0.449 -26.199,0.418 -10.507,-0.031 -23.15,-0.269 -32.47,-0.382z"/>
   </clipPath>
    <clipPath id="id1">
     <path d="M69.622 5.532c-9.32,-0.113 -15.317,-0.1 -21.532,-0.475 -6.215,-0.375 -12.649,-1.137 -18.001,-2.044 -5.351,-0.908 -9.62,-1.96 -13.89,-3.013l-2.056 6.766c-2.101,6.05 -3.233,10.386 -4.916,16.285 -0.249,0.873 -0.435,1.453 -0.642,2.333 -2.36,10.025 -4.55,19.989 -6.162,30.214 -0.554,3.516 -0.787,7.435 -1.226,10.942l-0.435 5.757c-0.045,1.83 -0.234,3.899 -0.37,5.626 -0.078,0.987 0.009,2.192 -0.003,3.205 -0.013,1.158 -0.208,1.511 -0.203,2.794 0.009,2.038 0.069,4.202 0.011,6.226 -0.028,1.013 -0.181,1.575 -0.197,2.723l0.192 9.099c-0.03,8.303 0.172,15.985 0.183,24.267 0.002,1.267 0.207,1.666 0.202,2.996 -0.004,0.925 -0.065,2.104 0.005,3.001 0.131,1.645 0.218,4.048 0.519,5.469 1.056,4.985 5.703,6.849 10.073,7.859 3.312,0.766 6.714,1.111 10.138,1.576 4.01,0.545 19.376,0.399 23.493,-0.086 6.45,-0.761 15.507,-0.276 22.162,-1.971 7.272,-1.853 6.398,-2.822 7.435,-7.425 0.87,-3.869 2.219,-13.998 3.169,-16.919 0.807,-2.484 1.721,-7.868 2.195,-10.524 0.344,-1.99 1.133,-3.678 1.718,-5.612 1.344,-4.441 1.694,-7.626 2.92,-12.169 0.377,-1.398 0.722,-2.38 1.102,-3.854 0.997,-3.864 2.19,-8.249 2.968,-12.117 0.575,-2.856 1.095,-5.36 1.653,-8.289l2.191 -12.734c0.189,-0.998 0.23,-2.248 1.182,-2.596 0,-15.663 0,-31.326 0,-46.989l-1.415 -0.015 -0.288 -0.004 -0.504 -0.005 -0.132 -0.002 -3.306 -0.041 -0.515 -0.007 -2.349 -0.031 -0.409 -0.006 -0.104 -0.001 -0.906 -0.013 -0.54 -0.008 -0.439 -0.006 -0.04 -0.001 -0.639 -0.009 -0.309 -0.004 -0.507 -0.008 -0.448 -0.006 -0.023 -0.001 -0.521 -0.007 -0.23 -0.004 -1.099 -0.016 -0.133 -0.002 -2.031 -0.029 -0.158 -0.002 -0.514 -0.008 -0.306 -0.004 -1.22 -0.017 -0.056 -0.001 -0.433 -0.006 -0.55 -0.008 -0.216 -0.003 -0.465 -0.006 -0.408 -0.006 -0.805 -0.01 -0.458 -0.006 -0.103 -0.002 -0.641 -0.008 -0.658 -0.008z"/>
    </clipPath>
    <clipPath id="id2">
     <path d="M69.622 5.532c-9.32,-0.113 -15.317,-0.1 -21.532,-0.475 -6.215,-0.375 -12.649,-1.137 -18.001,-2.044 -5.351,-0.908 -9.62,-1.96 -13.89,-3.013l-2.056 6.766c-2.101,6.05 -3.233,10.386 -4.916,16.285 -0.249,0.873 -0.435,1.453 -0.642,2.333 -2.36,10.025 -4.55,19.989 -6.162,30.214 -0.554,3.516 -0.787,7.435 -1.226,10.942l-0.435 5.757c-0.045,1.83 -0.234,3.899 -0.37,5.626 -0.078,0.987 0.009,2.192 -0.003,3.205 -0.013,1.158 -0.208,1.511 -0.203,2.794 0.009,2.038 0.069,4.202 0.011,6.226 -0.028,1.013 -0.181,1.575 -0.197,2.723l0.192 9.099c-0.03,8.303 0.172,15.985 0.183,24.267 0.002,1.267 0.207,1.666 0.202,2.996 -0.004,0.925 -0.065,2.104 0.005,3.001 0.131,1.645 0.218,4.048 0.519,5.469 1.056,4.985 5.703,6.849 10.073,7.859 3.312,0.766 6.714,1.111 10.138,1.576 4.01,0.545 19.376,0.399 23.493,-0.086 6.45,-0.761 15.507,-0.276 22.162,-1.971 7.272,-1.853 6.398,-2.822 7.435,-7.425 0.87,-3.869 2.219,-13.998 3.169,-16.919 0.807,-2.484 1.721,-7.868 2.195,-10.524 0.344,-1.99 1.133,-3.678 1.718,-5.612 1.344,-4.441 1.694,-7.626 2.92,-12.169 0.377,-1.398 0.722,-2.38 1.102,-3.854 0.997,-3.864 2.19,-8.249 2.968,-12.117 0.575,-2.856 1.095,-5.36 1.653,-8.289l2.191 -12.734c0.189,-0.998 0.23,-2.248 1.182,-2.596 0.952,0.348 0.993,1.598 1.182,2.596l2.191 12.734c0.558,2.929 1.077,5.433 1.652,8.289 0.779,3.868 1.972,8.253 2.968,12.117 0.38,1.474 0.725,2.456 1.103,3.854 1.226,4.543 1.576,7.728 2.919,12.169 0.585,1.934 1.375,3.622 1.719,5.612 0.473,2.654 1.389,8.042 2.195,10.524 0.949,2.921 2.299,13.05 3.169,16.919 1.037,4.603 0.163,5.572 7.434,7.425 6.656,1.695 15.712,1.21 22.163,1.971 4.117,0.485 19.483,0.631 23.492,0.086 3.425,-0.465 6.827,-0.81 10.138,-1.576 4.371,-1.01 9.018,-2.874 10.074,-7.859 0.301,-1.421 0.388,-3.824 0.519,-5.469 0.07,-0.897 0.009,-2.076 0.005,-3.001 -0.005,-1.33 0.2,-1.729 0.202,-2.996 0.011,-8.282 0.213,-15.964 0.183,-24.267l0.191 -8.764 -0.196 -3.058c-0.058,-2.024 0.002,-4.188 0.011,-6.226 0.004,-1.283 -0.19,-1.636 -0.204,-2.794 -0.011,-1.013 0.076,-2.218 -0.002,-3.205 -0.136,-1.727 -0.325,-3.796 -0.37,-5.626l-0.436 -5.757c-0.439,-3.507 -0.671,-7.426 -1.225,-10.942 -1.612,-10.225 -3.802,-20.189 -6.162,-30.214 -0.207,-0.88 -0.394,-1.46 -0.643,-2.333 -1.682,-5.899 -2.814,-10.235 -4.915,-16.285l-2.057 -6.766c-2.951,0.866 -5.902,1.731 -9.677,2.477 -3.774,0.745 -8.371,1.369 -13.806,1.869 -5.434,0.5 -11.706,0.875 -19.026,1.15 -7.321,0.274 -15.692,0.449 -26.199,0.418 -10.507,-0.031 -23.15,-0.269 -32.47,-0.382z"/>
    </clipPath>
    <clipPath id="id3">
     <path d="M128.291 5.496c-7.321,0.274 -15.692,0.449 -26.199,0.418l-1.616 -0.006 -0.217 -0.001 -0.215 -0.001 -0.066 -0.001 -0.625 -0.003 -0.854 -0.006 -1.14 -0.008 -0.045 0 -0.617 -0.005 -0.252 -0.002 -0.921 -0.008 -0.253 -0.003 -0.219 -0.002 -0.286 -0.002 -0.091 -0.001 -0.283 -0.003 -0.892 -0.009c0,15.663 0,31.326 0,46.989 0.952,0.348 0.993,1.598 1.182,2.596l2.191 12.734c0.558,2.929 1.077,5.433 1.652,8.289 0.779,3.868 1.972,8.253 2.968,12.117 0.38,1.474 0.725,2.456 1.103,3.854 1.226,4.543 1.576,7.728 2.919,12.169 0.585,1.934 1.375,3.622 1.719,5.612 0.473,2.654 1.389,8.042 2.195,10.524 0.949,2.921 2.299,13.05 3.169,16.919 1.037,4.603 0.163,5.572 7.434,7.425 6.656,1.695 15.712,1.21 22.163,1.971 4.117,0.485 19.483,0.631 23.492,0.086 3.425,-0.465 6.827,-0.81 10.138,-1.576 4.371,-1.01 9.018,-2.874 10.074,-7.859 0.301,-1.421 0.388,-3.824 0.519,-5.469 0.07,-0.897 0.009,-2.076 0.005,-3.001 -0.005,-1.33 0.2,-1.729 0.202,-2.996 0.011,-8.282 0.213,-15.964 0.183,-24.267l0.191 -8.764 -0.196 -3.058c-0.058,-2.024 0.002,-4.188 0.011,-6.226 0.004,-1.283 -0.19,-1.636 -0.204,-2.794 -0.011,-1.013 0.076,-2.218 -0.002,-3.205 -0.136,-1.727 -0.325,-3.796 -0.37,-5.626l-0.436 -5.757c-0.439,-3.507 -0.671,-7.426 -1.225,-10.942 -1.612,-10.225 -3.802,-20.189 -6.162,-30.214 -0.207,-0.88 -0.394,-1.46 -0.643,-2.333 -1.682,-5.899 -2.814,-10.235 -4.915,-16.285l-2.057 -6.766c-2.951,0.866 -5.902,1.731 -9.677,2.477 -3.774,0.745 -8.371,1.369 -13.806,1.869 -5.434,0.5 -11.706,0.875 -19.026,1.15z"/>
    </clipPath>
    <clipPath id="id4">
     <path d="M69.622 5.532c-9.32,-0.113 -15.317,-0.1 -21.532,-0.475 -6.215,-0.375 -12.649,-1.137 -18.001,-2.044 -5.351,-0.908 -9.62,-1.96 -13.89,-3.013l-2.056 6.766c-2.101,6.05 -3.233,10.386 -4.916,16.285 -0.249,0.873 -0.435,1.453 -0.642,2.333 -2.36,10.025 -4.55,19.989 -6.162,30.214 -0.554,3.516 -0.787,7.435 -1.226,10.942l-0.435 5.757c-0.045,1.83 -0.234,3.899 -0.37,5.626 -0.078,0.987 0.009,2.192 -0.003,3.205 -0.013,1.158 -0.208,1.511 -0.203,2.794 0.009,2.038 0.069,4.202 0.011,6.226 -0.028,1.013 -0.181,1.575 -0.197,2.723l0.192 9.099c-0.03,8.303 0.172,15.985 0.183,24.267 0.002,1.267 0.207,1.666 0.202,2.996 -0.004,0.925 -0.065,2.104 0.005,3.001 0.131,1.645 0.218,4.048 0.519,5.469 1.056,4.985 5.703,6.849 10.073,7.859 3.312,0.766 6.714,1.111 10.138,1.576 4.01,0.545 19.376,0.399 23.493,-0.086 6.45,-0.761 15.507,-0.276 22.162,-1.971 7.272,-1.853 6.398,-2.822 7.435,-7.425 0.87,-3.869 2.219,-13.998 3.169,-16.919 0.807,-2.484 1.721,-7.868 2.195,-10.524 0.344,-1.99 1.133,-3.678 1.718,-5.612 1.344,-4.441 1.694,-7.626 2.92,-12.169 0.377,-1.398 0.722,-2.38 1.102,-3.854 0.997,-3.864 2.19,-8.249 2.968,-12.117 0.575,-2.856 1.095,-5.36 1.653,-8.289l2.191 -12.734c0.189,-0.998 0.23,-2.248 1.182,-2.596 0.952,0.348 0.993,1.598 1.182,2.596l2.191 12.734c0.558,2.929 1.077,5.433 1.652,8.289 0.779,3.868 1.972,8.253 2.968,12.117 0.38,1.474 0.725,2.456 1.103,3.854 1.226,4.543 1.576,7.728 2.919,12.169 0.585,1.934 1.375,3.622 1.719,5.612 0.473,2.654 1.389,8.042 2.195,10.524 0.949,2.921 2.299,13.05 3.169,16.919 1.037,4.603 0.163,5.572 7.434,7.425 6.656,1.695 15.712,1.21 22.163,1.971 4.117,0.485 19.483,0.631 23.492,0.086 3.425,-0.465 6.827,-0.81 10.138,-1.576 4.371,-1.01 9.018,-2.874 10.074,-7.859 0.301,-1.421 0.388,-3.824 0.519,-5.469 0.07,-0.897 0.009,-2.076 0.005,-3.001 -0.005,-1.33 0.2,-1.729 0.202,-2.996 0.011,-8.282 0.213,-15.964 0.183,-24.267l0.191 -8.764 -0.196 -3.058c-0.058,-2.024 0.002,-4.188 0.011,-6.226 0.004,-1.283 -0.19,-1.636 -0.204,-2.794 -0.011,-1.013 0.076,-2.218 -0.002,-3.205 -0.136,-1.727 -0.325,-3.796 -0.37,-5.626l-0.436 -5.757c-0.439,-3.507 -0.671,-7.426 -1.225,-10.942 -1.612,-10.225 -3.802,-20.189 -6.162,-30.214 -0.207,-0.88 -0.394,-1.46 -0.643,-2.333 -1.682,-5.899 -2.814,-10.235 -4.915,-16.285l-2.057 -6.766c-2.951,0.866 -5.902,1.731 -9.677,2.477 -3.774,0.745 -8.371,1.369 -13.806,1.869 -5.434,0.5 -11.706,0.875 -19.026,1.15 -7.321,0.274 -15.692,0.449 -26.199,0.418 -10.507,-0.031 -23.15,-0.269 -32.47,-0.382z"/>
    </clipPath>
 </defs>
 <g id="VETORES">
  <metadata id="CorelCorpID_0Corel-Layer"/>
  <g>
  </g>
  <g clip-path="url(#id0)">
   <g id="_1763329328960">
    <g>
    </g>
   </g>
   <g clip-path="url(#id1)">
    <g>
     <path id="_2" fill="#04003E" fill-rule="nonzero" d="M7.91 201.376l-11.109 -12.876 6.761 -2.325 -9.215 -8.184 1.981 -8.222 10.075 -2.407 22.478 13.718 -3.359 2.528 -8.052 -1.766 -1.507 -2.808 -6.115 7.34 2.154 10.991 -4.092 4.011zm38.583 9.827c0,-0.48 -2.154,-29.04 -2.154,-29.04l4.565 -1.284 4.135 4.332 -1.292 5.134 7.75 5.695 3.79 -0.801 16.534 6.137 11.972 -3.81 9.215 -16.205 -7.579 -9.385 0.171 -1.043 16.19 15.081 4.047 -6.739c0,0 5.599,5.535 5.857,5.535 0.258,0 -9.56,5.857 -9.56,5.857l-8.352 -1.524 -2.584 5.215 2.928 11.793c-1.033,0.48 -4.392,1.524 -4.392,1.524l-0.516 5.695 -6.114 -10.348 -1.981 1.123 -2.067 12.594 -40.563 -5.536 0 0zm-81.793 -53.888l1.615 -4.451 40.887 4.231c0,0 -8.332,0.641 -8.419,0.641 -0.086,0 14.339,5.576 14.339,5.576l2.454 -1.123 -5.857 -5.173 22.445 -12.756 -6.782 -3.097 0.096 -0.813 -0.667 -2.327 -13.673 -6.858 23.964 6.116 2.195 -1.473 -34.987 -22.732 -5.081 0.561 0.905 0.882 -0.884 1.685 9.452 4.652 1.357 4.573 -19.658 7.792 0.549 1.113 -0.776 1.685 -0.775 -0.21 0.032 1.836 1.034 1.594 9.074 -7.582 23.5 12.164 2.842 2.888 -2.669 2.085 -15.932 -5.054 -2.154 6.859 -34.406 -11.712 0.043 0.802 3.832 2.807 -1.205 1.284 -7.019 -0.723 -4.134 -7.621 -3.832 8.303 3.747 -1.845 4.542 15.423 0.006 -0.002zm121.754 29.781l1.809 -3.689c0,0 -1.507,-15.122 -1.507,-15.362 0,-0.24 1.894,-9.025 1.894,-9.025l3.703 -2.687 14.985 0.401 -3.143 -6.457 -1.12 -7.661 -2.369 5.536 1.054 -11.712 2.067 -4.994 5.426 -3.129 1.549 -5.715 -4.263 2.648 -1.486 -3.189 6.136 -6.558 -1.809 -1.565 -11.69 8.363 0.647 4.272 -3.748 8.423 2.907 6.256 -2.454 5.355 -8.592 6.918 -1.485 7.641c0,0 -5.039,1.443 -4.845,1.384 0.195,-0.059 -7.816,-2.947 -7.816,-2.947l-2.001 0.541 0 3.61 12.208 12.636 -2.164 6.197 0.195 2.135 5.716 2.377 0.194 0 0.002 -0.003zm-7.106 -43.619l17.891 -17.569 -9.754 -32.729 3.263 -6.859 6.878 10.107 2.261 -3.369 8.655 -2.165 -5.296 -12.635 3.035 -3.31 9.173 1.625 13.564 -10.228 -4.197 -8.123 -8.203 12.876 -17.762 -15.583 -0.776 0.782 7.687 9.506 -12.143 15.884 -13.176 3.129 -15.502 -5.115 -5.749 0.061c0,0 -7.88,-4.633 -7.687,-4.633 0.193,0 1.55,-4.933 1.55,-4.933l-4.005 -4.452 -4.069 1.444 1.68 26.171 -7.04 3.911 16.986 1.082 3.94 -3.368 9.431 -1.565 2.067 2.587c0,0 -19.098,9.345 -19.227,9.345 -0.129,0 -12.96,-2.606 -12.96,-2.606l4.865 18.33 4.823 1.845 23.382 -20.817 2.11 7.06 -5.684 11.43 2.025 0.24 15.555 -7.981 2.422 3.55 -14.469 27.224 4.458 -0.15 -0.002 0.001zm-117.942 -38.565c-0.129,-0.081 -0.302,-13.277 -0.302,-13.277l4.736 -3.89 15.372 4.573 -14.469 3.128 -2.67 3.129 1.292 2.726 13.413 -1.023 15.243 -3.61 0 1.624 -5.168 6.317 37.139 -16.966c0,0 1.55,0.602 1.68,0.602 0.131,0 -0.29,1.565 -0.29,1.565l-40.336 21.178 12.854 -2.707 1.809 1.263 -25.965 12.756 0.452 -2.888 4.069 -9.265 -1.68 -1.685 -14.533 0.36 -0.71 -1.864 1.68 -1.985 -3.616 -0.061 0 0zm35.33 -31.588l10.593 12.996 4.651 -4.151 -1.227 -11.733 5.878 -6.497 2.454 2.587 7.363 2.106 2.714 -2.407 -15.374 -10.228 -2.131 -4.512 -14.921 0.602 -2.777 10.588 9.238 8.304 -6.461 2.345zm-0.581 -30.925l9.69 -1.083 -33.007 -5.234 -8.913 -0.42 -1.486 5.174 -6.201 -16.665 -5.426 2.286 4.458 -10.228 6.265 9.204 7.944 0.12 0.324 -1.262 -4.263 -4.091 37.849 14.74 1.357 -6.558 16.6 5.174 2.971 -2.406 -4.005 -3.069 -22.412 -13.297 -6.782 4.331 -3.166 3.672 -1.55 -3.13 1.163 -3.129 21.186 -7.58 -0.905 -5.173 -9.753 -6.078 0.97 -1.263 -1.423 -0.723 6.138 -0.541 34.814 24.729 -2.415 1.504 -25.811 -6.619 15.049 7.16 0.71 2.587 -0.322 0.782 6.911 3.549 -19.184 10.59 -1.807 4.03 3.035 3.069 -2.132 1.504 -6.652 -3.368 -9.819 -2.288zm-22.089 -38.805l-1.207 -6.178 7.235 -6.176 -1.205 -1.685 -18.775 0 -0.517 -1.605 2.756 -2.486 -7.751 -0.482 3.101 -15.321 6.545 -2.969 19.722 5.054 -19.119 3.53 -4.479 2.968 1.809 3.209 33.845 -4.733 0.517 1.845 -7.321 7.621 39.358 -20.136 2.67 0.642 -1.636 3.209 -43.148 23.103 15.33 -3.53 1.722 1.043 -29.452 13.077zm68.208 -19.975l3.876 20.697 4.392 1.744 22.478 -19.553 11.626 2.888 8.613 10.509 -16.277 27.997 4.737 0.802 22.564 -18.853 -13.436 -34.895 3.703 -8.102c0,0 8.182,10.911 8.44,10.911 0.258,0 1.291,-5.294 1.291,-5.294l11.454 -3.449c0,0 -9.042,-12.916 -9.042,-12.675 0,0.24 5.856,-6.338 5.856,-6.338l11.369 2.727 4.047 -9.947 -19.635 -11.151 -7.321 1.523 9.991 8.263 -13.865 19.333 -14.641 4.011 -36.084 -18.932 -5.081 4.733 7.579 22.06 -7.579 5.134 16.621 1.764 4.736 -4.01 8.871 -1.284 3.272 3.29 -20.497 8.824 -12.058 -2.727 0 0zm27.386 62.452l14.984 15.241 -3.143 4.974 0.302 2.527c0,0 6.417,1.764 6.546,1.764 0.129,0 2.196,-2.446 2.627,-3.128 0.431,-0.681 -0.904,-16.124 -0.904,-16.124l2.196 -8.302 6.243 -2.928 18.172 1.164 -4.005 -14.681 -3.487 6.178 0.818 -12.714 1.722 -5.135 9.086 -4.933 1.809 -7.582 -7.363 5.576 -0.861 -4.814 11.24 -10.148 1.033 -9.385 -22.219 21.98 2.325 4.894 -6.717 8.824 3.876 5.536 -3.961 6.658c0,0 -9.302,6.097 -9.56,6.097 -0.257,0 -2.411,7.141 -2.411,7.141l-7.321 1.925 -7.493 -2.567 -3.531 1.965 -0.003 -0.003zm-110.127 159.376c-0.129,0.181 -7.945,-9.867 -7.945,-9.867l2.714 -5.174 4.134 -0.241 5.491 1.024 8.72 -7.761 -5.749 -3.368 -4.457 6.317 -15.824 -13.177 0 0.963 6.911 9.025 -8.009 15.281 -19.764 6.982 -2.648 16.243c0,0 12.855,-2.286 12.983,-2.587 0.13,-0.301 7.428,-15.764 7.428,-15.764l5.231 9.265 10.787 -7.16 -0.003 -0.001zm4.392 10.107l1.486 -10.288 3.551 -2.646 18.085 4.451 -12.594 1.746 -7.235 5.414 -3.293 1.323zm147.676 -0.26l-0.776 -9.465 5.77 -3.851 13.78 5.695 2.583 8.743 -21.357 -1.122zm-185.849 -27.836l13.779 2.406 2.584 -5.615 -4.167 -11.552 7.955 -13.958 12.66 0.722 -3.703 -13.879 -4.823 6.418 1.896 -12.594 2.238 -5.134 6.933 -5.375 0 -5.936 -4.263 2.727 -0.43 -2.246 6.888 -9.226 -1.549 -1.925 -7.579 6.739 -5.081 8.985 2.154 2.646 -6.374 10.349 0.689 3.369 -4.477 9.306 -10.336 4.091 -1.551 5.536 -12.744 3.689 9.301 20.457zm-3.963 -35.779c-0.258,0.081 13.176,-3.851 13.176,-3.851l14.814 -17.006 -10.765 -29.119 1.981 -10.83 6.804 11.151 1.378 -5.857 9.99 -6.017 -10.335 -7.62 2.412 -5.456 8.353 -0.401 11.971 -9.064 -7.924 -4.011 -5.77 6.257 -18.516 -13.316 0 0.882 11.453 11.231 -9.473 16.927 -16.19 5.215 2.583 33.131 11.195 -7.861 4.566 8.503 -4.823 10.669 -10.162 7.3 10.335 -14.76 -0.894 -5.054c0,0 -22.445,26.069 -22.704,26.069 -0.26,0 6.545,2.888 6.545,2.888zm2.412 -108.858l31.435 -0.882 -6.977 -13.878 -1.378 6.979 -1.894 -15.082 2.239 -3.851 8.01 -4.892 0.516 -6.578 -5.34 4.01 -2.324 -5.053 8.784 -6.739 -2.67 -3.29 -13.436 12.596 1.378 4.973 -5.338 9.707 5.942 7.059 -5.2 8.904 -14.952 3.29 1.205 2.727zm0.518 -16.364l15.414 -15.884 -1.549 -14.921 -7.235 -7.942 1.809 19.372 -10.162 17.128 1.378 1.685 0.345 0.562zm3.185 -54.951l10.68 8.022 4.22 -7.06 10.076 -2.327 -12.747 -12.353 5.081 -5.696 11.627 2.087 14.382 -9.226 -7.924 -4.573 -7.75 8.503 -16.965 -16.283 -4.91 0 10.68 11.952 -15.416 13.718 6.029 7.78 -1.206 4.412 -5.857 1.044zm214.529 100.115l-27.214 17.569 -1.378 16.685 5.425 1.283 -4.565 3.611 2.583 5.535 25.147 -5.455 0.516 -7.219 -20.239 6.898 3.272 -6.097 -7.493 -0.882 -0.258 -7.14 13.78 -4.172 3.187 8.503c0,0 13.608,-9.867 13.176,-10.589 -0.431,-0.723 -5.943,-18.532 -5.943,-18.532l0.004 0.002zm-37.636 68.787l5.168 -6.617 3.876 9.837 10.333 0.871 -6.33 -6.497 31.392 0 -2.196 28.157 -31.908 -13.236 -0.389 5.054 -5.554 -17.809 -4.392 0.24z"/>
    </g>
   </g>
   <g clip-path="url(#id2)">
    <path fill="none" d="M69.622 5.532c-9.32,-0.113 -15.317,-0.1 -21.532,-0.475 -6.215,-0.375 -12.649,-1.137 -18.001,-2.044 -5.351,-0.908 -9.62,-1.96 -13.89,-3.013l-2.056 6.766c-2.101,6.05 -3.233,10.386 -4.916,16.285 -0.249,0.873 -0.435,1.453 -0.642,2.333 -2.36,10.025 -4.55,19.989 -6.162,30.214 -0.554,3.516 -0.787,7.435 -1.226,10.942l-0.435 5.757c-0.045,1.83 -0.234,3.899 -0.37,5.626 -0.078,0.987 0.009,2.192 -0.003,3.205 -0.013,1.158 -0.208,1.511 -0.203,2.794 0.009,2.038 0.069,4.202 0.011,6.226 -0.028,1.013 -0.181,1.575 -0.197,2.723l0.192 9.099c-0.03,8.303 0.172,15.985 0.183,24.267 0.002,1.267 0.207,1.666 0.202,2.996 -0.004,0.925 -0.065,2.104 0.005,3.001 0.131,1.645 0.218,4.048 0.519,5.469 1.056,4.985 5.703,6.849 10.073,7.859 3.312,0.766 6.714,1.111 10.138,1.576 4.01,0.545 19.376,0.399 23.493,-0.086 6.45,-0.761 15.507,-0.276 22.162,-1.971 7.272,-1.853 6.398,-2.822 7.435,-7.425 0.87,-3.869 2.219,-13.998 3.169,-16.919 0.807,-2.484 1.721,-7.868 2.195,-10.524 0.344,-1.99 1.133,-3.678 1.718,-5.612 1.344,-4.441 1.694,-7.626 2.92,-12.169 0.377,-1.398 0.722,-2.38 1.102,-3.854 0.997,-3.864 2.19,-8.249 2.968,-12.117 0.575,-2.856 1.095,-5.36 1.653,-8.289l2.191 -12.734c0.189,-0.998 0.23,-2.248 1.182,-2.596 0,-15.663 0,-31.326 0,-46.989 -8.306,-0.086 -16.998,-0.238 -23.878,-0.321z"/>
    <g>
    </g>
   </g>
   <g clip-path="url(#id3)">
    <g>
     <path id="_2_0" fill="#04003E" fill-rule="nonzero" d="M129.746 175.583l-11.109 -12.875 6.761 -2.326 -9.215 -8.183 1.98 -8.222 10.076 -2.408 22.477 13.718 -3.358 2.528 -8.053 -1.766 -1.507 -2.807 -6.114 7.339 2.153 10.992 -4.091 4.01zm38.582 9.828c0,-0.481 -2.153,-29.041 -2.153,-29.041l4.565 -1.283 4.134 4.331 -1.292 5.134 7.751 5.696 3.789 -0.802 16.535 6.137 11.971 -3.81 9.215 -16.204 -7.579 -9.385 0.171 -1.044 16.19 15.081 4.048 -6.739c0,0 5.598,5.536 5.856,5.536 0.258,0 -9.559,5.857 -9.559,5.857l-8.353 -1.524 -2.583 5.215 2.927 11.792c-1.033,0.481 -4.392,1.524 -4.392,1.524l-0.515 5.696 -6.115 -10.348 -1.981 1.122 -2.067 12.594 -40.563 -5.536 0 0.001zm-81.792 -53.888l1.615 -4.452 40.886 4.231c0,0 -8.332,0.642 -8.418,0.642 -0.087,0 14.338,5.575 14.338,5.575l2.454 -1.122 -5.856 -5.174 22.445 -12.755 -6.783 -3.098 0.097 -0.812 -0.668 -2.327 -13.672 -6.859 23.963 6.117 2.196 -1.474 -34.988 -22.732 -5.081 0.561 0.905 0.882 -0.883 1.685 9.451 4.653 1.357 4.573 -19.658 7.791 0.549 1.113 -0.776 1.685 -0.775 -0.209 0.033 1.835 1.033 1.594 9.075 -7.581 23.499 12.163 2.843 2.888 -2.67 2.085 -15.932 -5.053 -2.153 6.859 -34.406 -11.712 0.042 0.801 3.832 2.808 -1.205 1.283 -7.019 -0.722 -4.134 -7.621 -3.832 8.302 3.747 -1.845 4.542 15.423 0.007 -0.001zm121.753 29.781l1.809 -3.69c0,0 -1.507,-15.121 -1.507,-15.362 0,-0.24 1.894,-9.024 1.894,-9.024l3.703 -2.688 14.985 0.402 -3.143 -6.458 -1.12 -7.66 -2.369 5.536 1.055 -11.712 2.067 -4.995 5.425 -3.128 1.55 -5.715 -4.263 2.647 -1.486 -3.189 6.136 -6.557 -1.809 -1.565 -11.691 8.362 0.647 4.272 -3.747 8.423 2.906 6.257 -2.454 5.354 -8.591 6.919 -1.486 7.64c0,0 -5.039,1.444 -4.844,1.384 0.194,-0.059 -7.816,-2.947 -7.816,-2.947l-2.002 0.542 0 3.61 12.208 12.635 -2.163 6.197 0.194 2.136 5.716 2.377 0.194 0 0.002 -0.003zm-7.106 -43.619l17.891 -17.569 -9.753 -32.73 3.262 -6.859 6.878 10.108 2.262 -3.369 8.655 -2.166 -5.297 -12.635 3.035 -3.309 9.173 1.624 13.565 -10.228 -4.198 -8.122 -8.203 12.875 -17.762 -15.583 -0.775 0.782 7.686 9.507 -12.142 15.884 -13.176 3.128 -15.503 -5.114 -5.749 0.06c0,0 -7.879,-4.632 -7.686,-4.632 0.192,0 1.549,-4.934 1.549,-4.934l-4.005 -4.451 -4.069 1.443 1.68 26.172 -7.04 3.91 16.987 1.083 3.939 -3.369 9.431 -1.565 2.067 2.587c0,0 -19.098,9.346 -19.227,9.346 -0.129,0 -12.96,-2.607 -12.96,-2.607l4.865 18.331 4.823 1.844 23.383 -20.817 2.109 7.06 -5.683 11.431 2.024 0.24 15.555 -7.981 2.423 3.549 -14.469 27.225 4.457 -0.151 -0.002 0.002zm-117.942 -38.566c-0.129,-0.08 -0.302,-13.276 -0.302,-13.276l4.737 -3.891 15.371 4.573 -14.469 3.129 -2.669 3.128 1.291 2.727 13.413 -1.024 15.243 -3.61 0 1.624 -5.168 6.318 37.14 -16.967c0,0 1.549,0.603 1.68,0.603 0.131,0 -0.291,1.564 -0.291,1.564l-40.336 21.178 12.854 -2.707 1.81 1.264 -25.965 12.755 0.452 -2.888 4.068 -9.265 -1.68 -1.685 -14.532 0.361 -0.711 -1.865 1.68 -1.985 -3.616 -0.06 0 -0.001zm35.33 -31.587l10.593 12.995 4.652 -4.15 -1.228 -11.734 5.878 -6.497 2.454 2.587 7.363 2.107 2.714 -2.408 -15.374 -10.227 -2.13 -4.513 -14.922 0.602 -2.777 10.589 9.238 8.303 -6.461 2.346zm-0.581 -30.925l9.69 -1.083 -33.007 -5.235 -8.913 -0.419 -1.485 5.174 -6.202 -16.666 -5.425 2.286 4.457 -10.228 6.265 9.204 7.945 0.121 0.323 -1.263 -4.263 -4.091 37.85 14.74 1.356 -6.558 16.6 5.174 2.972 -2.406 -4.005 -3.069 -22.412 -13.296 -6.783 4.331 -3.166 3.671 -1.549 -3.13 1.162 -3.128 21.186 -7.58 -0.904 -5.174 -9.754 -6.077 0.97 -1.264 -1.422 -0.722 6.137 -0.542 34.815 24.729 -2.415 1.504 -25.812 -6.618 15.049 7.16 0.71 2.586 -0.321 0.782 6.911 3.55 -19.184 10.59 -1.808 4.03 3.035 3.069 -2.132 1.504 -6.652 -3.369 -9.819 -2.287zm-22.089 -38.806l-1.207 -6.177 7.235 -6.177 -1.205 -1.685 -18.774 0 -0.518 -1.604 2.756 -2.487 -7.75 -0.482 3.1 -15.321 6.546 -2.968 19.721 5.053 -19.119 3.53 -4.479 2.969 1.81 3.209 33.844 -4.733 0.518 1.845 -7.321 7.621 39.358 -20.136 2.669 0.642 -1.636 3.209 -43.147 23.103 15.329 -3.53 1.722 1.043 -29.452 13.076zm68.208 -19.974l3.876 20.696 4.392 1.745 22.478 -19.553 11.627 2.888 8.612 10.509 -16.276 27.997 4.736 0.801 22.564 -18.852 -13.435 -34.896 3.703 -8.101c0,0 8.181,10.91 8.439,10.91 0.258,0 1.292,-5.294 1.292,-5.294l11.453 -3.449c0,0 -9.042,-12.915 -9.042,-12.675 0,0.24 5.857,-6.337 5.857,-6.337l11.368 2.727 4.048 -9.948 -19.635 -11.151 -7.321 1.524 9.99 8.263 -13.865 19.332 -14.64 4.011 -36.085 -18.931 -5.081 4.732 7.579 22.06 -7.579 5.134 16.621 1.765 4.737 -4.011 8.87 -1.283 3.272 3.289 -20.497 8.824 -12.058 -2.727 0 0.001zm27.386 62.451l14.985 15.242 -3.143 4.973 0.302 2.528c0,0 6.416,1.764 6.546,1.764 0.129,0 2.196,-2.447 2.626,-3.129 0.432,-0.681 -0.904,-16.123 -0.904,-16.123l2.196 -8.303 6.244 -2.927 18.172 1.163 -4.005 -14.68 -3.488 6.177 0.818 -12.714 1.723 -5.134 9.086 -4.934 1.809 -7.581 -7.364 5.575 -0.86 -4.813 11.239 -10.149 1.034 -9.385 -22.22 21.981 2.325 4.894 -6.717 8.824 3.876 5.536 -3.961 6.658c0,0 -9.301,6.097 -9.559,6.097 -0.258,0 -2.412,7.14 -2.412,7.14l-7.321 1.926 -7.492 -2.568 -3.532 1.965 -0.003 -0.003zm-110.127 159.376c-0.129,0.181 -7.944,-9.867 -7.944,-9.867l2.713 -5.174 4.134 -0.24 5.491 1.024 8.72 -7.761 -5.748 -3.369 -4.458 6.318 -15.824 -13.177 0 0.963 6.911 9.024 -8.008 15.282 -19.764 6.982 -2.648 16.242c0,0 12.854,-2.286 12.983,-2.587 0.129,-0.301 7.427,-15.763 7.427,-15.763l5.231 9.265 10.788 -7.16 -0.004 -0.002zm4.392 10.108l1.486 -10.289 3.551 -2.646 18.086 4.452 -12.595 1.745 -7.234 5.415 -3.294 1.323zm147.676 -0.26l-0.776 -9.466 5.77 -3.851 13.78 5.696 2.583 8.743 -21.357 -1.122zm-185.849 -27.836l13.779 2.406 2.585 -5.615 -4.167 -11.552 7.954 -13.959 12.661 0.723 -3.704 -13.879 -4.823 6.417 1.896 -12.593 2.238 -5.135 6.933 -5.375 0 -5.935 -4.263 2.726 -0.429 -2.246 6.888 -9.225 -1.55 -1.926 -7.579 6.739 -5.081 8.985 2.154 2.646 -6.374 10.35 0.689 3.368 -4.477 9.306 -10.335 4.092 -1.551 5.535 -12.745 3.69 9.301 20.457zm-3.962 -35.779c-0.258,0.08 13.176,-3.851 13.176,-3.851l14.813 -17.006 -10.764 -29.12 1.98 -10.83 6.804 11.151 1.378 -5.856 9.991 -6.017 -10.335 -7.621 2.411 -5.455 8.353 -0.402 11.971 -9.064 -7.923 -4.01 -5.77 6.257 -18.517 -13.317 0 0.882 11.453 11.231 -9.472 16.927 -16.191 5.215 2.583 33.132 11.196 -7.861 4.565 8.503 -4.823 10.668 -10.162 7.3 10.335 -14.759 -0.893 -5.054c0,0 -22.445,26.069 -22.705,26.069 -0.259,0 6.546,2.888 6.546,2.888zm2.411 -108.859l31.435 -0.882 -6.977 -13.878 -1.378 6.979 -1.893 -15.082 2.238 -3.85 8.01 -4.893 0.516 -6.578 -5.339 4.011 -2.325 -5.054 8.784 -6.739 -2.669 -3.289 -13.436 12.595 1.378 4.973 -5.339 9.708 5.943 7.058 -5.2 8.905 -14.953 3.289 1.205 2.727zm0.518 -16.364l15.414 -15.884 -1.549 -14.921 -7.235 -7.942 1.809 19.373 -10.162 17.128 1.378 1.685 0.345 0.561zm3.185 -54.951l10.68 8.022 4.221 -7.059 10.075 -2.327 -12.747 -12.354 5.081 -5.696 11.627 2.087 14.383 -9.225 -7.924 -4.573 -7.751 8.503 -16.965 -16.284 -4.909 0 10.679 11.952 -15.416 13.718 6.03 7.781 -1.207 4.412 -5.857 1.043zm214.529 100.115l-27.214 17.569 -1.378 16.685 5.426 1.284 -4.566 3.61 2.583 5.536 25.147 -5.455 0.516 -7.22 -20.239 6.899 3.272 -6.097 -7.492 -0.882 -0.258 -7.141 13.78 -4.171 3.187 8.503c0,0 13.607,-9.868 13.176,-10.59 -0.431,-0.722 -5.943,-18.531 -5.943,-18.531l0.003 0.001zm-37.635 68.788l5.167 -6.618 3.876 9.837 10.333 0.872 -6.329 -6.497 31.392 0 -2.196 28.156 -31.908 -13.235 -0.389 5.053 -5.554 -17.809 -4.392 0.241z"/>
    </g>
   </g>
   <g clip-path="url(#id4)">
    <path fill="none" d="M128.291 5.496c-7.321,0.274 -15.692,0.449 -26.199,0.418 -2.75,-0.008 -5.647,-0.031 -8.592,-0.061 0,15.663 0,31.326 0,46.989 0.952,0.348 0.993,1.598 1.182,2.596l2.191 12.734c0.558,2.929 1.077,5.433 1.652,8.289 0.779,3.868 1.972,8.253 2.968,12.117 0.38,1.474 0.725,2.456 1.103,3.854 1.226,4.543 1.576,7.728 2.919,12.169 0.585,1.934 1.375,3.622 1.719,5.612 0.473,2.654 1.389,8.042 2.195,10.524 0.949,2.921 2.299,13.05 3.169,16.919 1.037,4.603 0.163,5.572 7.434,7.425 6.656,1.695 15.712,1.21 22.163,1.971 4.117,0.485 19.483,0.631 23.492,0.086 3.425,-0.465 6.827,-0.81 10.138,-1.576 4.371,-1.01 9.018,-2.874 10.074,-7.859 0.301,-1.421 0.388,-3.824 0.519,-5.469 0.07,-0.897 0.009,-2.076 0.005,-3.001 -0.005,-1.33 0.2,-1.729 0.202,-2.996 0.011,-8.282 0.213,-15.964 0.183,-24.267l0.191 -8.764 -0.196 -3.058c-0.058,-2.024 0.002,-4.188 0.011,-6.226 0.004,-1.283 -0.19,-1.636 -0.204,-2.794 -0.011,-1.013 0.076,-2.218 -0.002,-3.205 -0.136,-1.727 -0.325,-3.796 -0.37,-5.626l-0.436 -5.757c-0.439,-3.507 -0.671,-7.426 -1.225,-10.942 -1.612,-10.225 -3.802,-20.189 -6.162,-30.214 -0.207,-0.88 -0.394,-1.46 -0.643,-2.333 -1.682,-5.899 -2.814,-10.235 -4.915,-16.285l-2.057 -6.766c-2.951,0.866 -5.902,1.731 -9.677,2.477 -3.774,0.745 -8.371,1.369 -13.806,1.869 -5.434,0.5 -11.706,0.875 -19.026,1.15z"/>
   </g>
  </g>
  <path fill="none" d="M69.622 5.532c-9.32,-0.113 -15.317,-0.1 -21.532,-0.475 -6.215,-0.375 -12.649,-1.137 -18.001,-2.044 -5.351,-0.908 -9.62,-1.96 -13.89,-3.013l-2.056 6.766c-2.101,6.05 -3.233,10.386 -4.916,16.285 -0.249,0.873 -0.435,1.453 -0.642,2.333 -2.36,10.025 -4.55,19.989 -6.162,30.214 -0.554,3.516 -0.787,7.435 -1.226,10.942l-0.435 5.757c-0.045,1.83 -0.234,3.899 -0.37,5.626 -0.078,0.987 0.009,2.192 -0.003,3.205 -0.013,1.158 -0.208,1.511 -0.203,2.794 0.009,2.038 0.069,4.202 0.011,6.226 -0.028,1.013 -0.181,1.575 -0.197,2.723l0.192 9.099c-0.03,8.303 0.172,15.985 0.183,24.267 0.002,1.267 0.207,1.666 0.202,2.996 -0.004,0.925 -0.065,2.104 0.005,3.001 0.131,1.645 0.218,4.048 0.519,5.469 1.056,4.985 5.703,6.849 10.073,7.859 3.312,0.766 6.714,1.111 10.138,1.576 4.01,0.545 19.376,0.399 23.493,-0.086 6.45,-0.761 15.507,-0.276 22.162,-1.971 7.272,-1.853 6.398,-2.822 7.435,-7.425 0.87,-3.869 2.219,-13.998 3.169,-16.919 0.807,-2.484 1.721,-7.868 2.195,-10.524 0.344,-1.99 1.133,-3.678 1.718,-5.612 1.344,-4.441 1.694,-7.626 2.92,-12.169 0.377,-1.398 0.722,-2.38 1.102,-3.854 0.997,-3.864 2.19,-8.249 2.968,-12.117 0.575,-2.856 1.095,-5.36 1.653,-8.289l2.191 -12.734c0.189,-0.998 0.23,-2.248 1.182,-2.596 0.952,0.348 0.993,1.598 1.182,2.596l2.191 12.734c0.558,2.929 1.077,5.433 1.652,8.289 0.779,3.868 1.972,8.253 2.968,12.117 0.38,1.474 0.725,2.456 1.103,3.854 1.226,4.543 1.576,7.728 2.919,12.169 0.585,1.934 1.375,3.622 1.719,5.612 0.473,2.654 1.389,8.042 2.195,10.524 0.949,2.921 2.299,13.05 3.169,16.919 1.037,4.603 0.163,5.572 7.434,7.425 6.656,1.695 15.712,1.21 22.163,1.971 4.117,0.485 19.483,0.631 23.492,0.086 3.425,-0.465 6.827,-0.81 10.138,-1.576 4.371,-1.01 9.018,-2.874 10.074,-7.859 0.301,-1.421 0.388,-3.824 0.519,-5.469 0.07,-0.897 0.009,-2.076 0.005,-3.001 -0.005,-1.33 0.2,-1.729 0.202,-2.996 0.011,-8.282 0.213,-15.964 0.183,-24.267l0.191 -8.764 -0.196 -3.058c-0.058,-2.024 0.002,-4.188 0.011,-6.226 0.004,-1.283 -0.19,-1.636 -0.204,-2.794 -0.011,-1.013 0.076,-2.218 -0.002,-3.205 -0.136,-1.727 -0.325,-3.796 -0.37,-5.626l-0.436 -5.757c-0.439,-3.507 -0.671,-7.426 -1.225,-10.942 -1.612,-10.225 -3.802,-20.189 -6.162,-30.214 -0.207,-0.88 -0.394,-1.46 -0.643,-2.333 -1.682,-5.899 -2.814,-10.235 -4.915,-16.285l-2.057 -6.766c-2.951,0.866 -5.902,1.731 -9.677,2.477 -3.774,0.745 -8.371,1.369 -13.806,1.869 -5.434,0.5 -11.706,0.875 -19.026,1.15 -7.321,0.274 -15.692,0.449 -26.199,0.418 -10.507,-0.031 -23.15,-0.269 -32.47,-0.382z"/>
 </g>
</svg>
