<?xml version="1.0" encoding="UTF-8"?>
<!DOCTYPE svg PUBLIC "-//W3C//DTD SVG 1.1//EN" "http://www.w3.org/Graphics/SVG/1.1/DTD/svg11.dtd">
<!-- Creator: CorelDRAW -->
<svg xmlns="http://www.w3.org/2000/svg" xml:space="preserve" width="187px" height="148px" version="1.1" shape-rendering="geometricPrecision" text-rendering="geometricPrecision" image-rendering="optimizeQuality" fill-rule="evenodd" clip-rule="evenodd"
viewBox="0 0 186.999 147.486"
 xmlns:xlink="http://www.w3.org/1999/xlink"
 xmlns:xodm="http://www.corel.com/coreldraw/odm/2003">
 <defs>
   <clipPath id="id0">
    <path d="M69.622 5.532c-9.32,-0.113 -15.317,-0.1 -21.532,-0.475 -6.215,-0.375 -12.649,-1.137 -18.001,-2.044 -5.351,-0.908 -9.62,-1.96 -13.89,-3.013l-2.056 6.766c-2.101,6.05 -3.233,10.386 -4.916,16.285 -0.249,0.873 -0.435,1.453 -0.642,2.333 -2.36,10.025 -4.55,19.989 -6.162,30.214 -0.554,3.516 -0.787,7.435 -1.226,10.942l-0.435 5.757c-0.045,1.83 -0.234,3.899 -0.37,5.626 -0.078,0.987 0.009,2.192 -0.003,3.205 -0.013,1.158 -0.208,1.511 -0.203,2.794 0.009,2.038 0.069,4.202 0.011,6.226 -0.028,1.013 -0.181,1.575 -0.197,2.723l0.192 9.099c-0.03,8.303 0.172,15.985 0.183,24.267 0.002,1.267 0.207,1.666 0.202,2.996 -0.004,0.925 -0.065,2.104 0.005,3.001 0.131,1.645 0.218,4.048 0.519,5.469 1.056,4.985 5.703,6.849 10.073,7.859 3.312,0.766 6.714,1.111 10.138,1.576 4.01,0.545 19.376,0.399 23.493,-0.086 6.45,-0.761 15.507,-0.276 22.162,-1.971 7.272,-1.853 6.398,-2.822 7.435,-7.425 0.87,-3.869 2.219,-13.998 3.169,-16.919 0.807,-2.484 1.721,-7.868 2.195,-10.524 0.344,-1.99 1.133,-3.678 1.718,-5.612 1.344,-4.441 1.694,-7.626 2.92,-12.169 0.377,-1.398 0.722,-2.38 1.102,-3.854 0.997,-3.864 2.19,-8.249 2.968,-12.117 0.575,-2.856 1.095,-5.36 1.653,-8.289l2.191 -12.734c0.189,-0.998 0.23,-2.248 1.182,-2.596 0.952,0.348 0.993,1.598 1.182,2.596l2.191 12.734c0.558,2.929 1.077,5.433 1.652,8.289 0.779,3.868 1.972,8.253 2.968,12.117 0.38,1.474 0.725,2.456 1.103,3.854 1.226,4.543 1.576,7.728 2.919,12.169 0.585,1.934 1.375,3.622 1.719,5.612 0.473,2.654 1.389,8.042 2.195,10.524 0.949,2.921 2.299,13.05 3.169,16.919 1.037,4.603 0.163,5.572 7.434,7.425 6.656,1.695 15.712,1.21 22.163,1.971 4.117,0.485 19.483,0.631 23.492,0.086 3.425,-0.465 6.827,-0.81 10.138,-1.576 4.371,-1.01 9.018,-2.874 10.074,-7.859 0.301,-1.421 0.388,-3.824 0.519,-5.469 0.07,-0.897 0.009,-2.076 0.005,-3.001 -0.005,-1.33 0.2,-1.729 0.202,-2.996 0.011,-8.282 0.213,-15.964 0.183,-24.267l0.191 -8.764 -0.196 -3.058c-0.058,-2.024 0.002,-4.188 0.011,-6.226 0.004,-1.283 -0.19,-1.636 -0.204,-2.794 -0.011,-1.013 0.076,-2.218 -0.002,-3.205 -0.136,-1.727 -0.325,-3.796 -0.37,-5.626l-0.436 -5.757c-0.439,-3.507 -0.671,-7.426 -1.225,-10.942 -1.612,-10.225 -3.802,-20.189 -6.162,-30.214 -0.207,-0.88 -0.394,-1.46 -0.643,-2.333 -1.682,-5.899 -2.814,-10.235 -4.915,-16.285l-2.057 -6.766c-2.951,0.866 -5.902,1.731 -9.677,2.477 -3.774,0.745 -8.371,1.369 -13.806,1.869 -5.434,0.5 -11.706,0.875 -19.026,1.15 -7.321,0.274 -15.692,0.449 -26.199,0.418 -10.507,-0.031 -23.15,-0.269 -32.47,-0.382z"/>
   </clipPath>
    <clipPath id="id1">
     <path d="M69.622 5.532c-9.32,-0.113 -15.317,-0.1 -21.532,-0.475 -6.215,-0.375 -12.649,-1.137 -18.001,-2.044 -5.351,-0.908 -9.62,-1.96 -13.89,-3.013l-2.056 6.766c-2.101,6.05 -3.233,10.386 -4.916,16.285 -0.249,0.873 -0.435,1.453 -0.642,2.333 -2.36,10.025 -4.55,19.989 -6.162,30.214 -0.554,3.516 -0.787,7.435 -1.226,10.942l-0.435 5.757c-0.045,1.83 -0.234,3.899 -0.37,5.626 -0.078,0.987 0.009,2.192 -0.003,3.205 -0.013,1.158 -0.208,1.511 -0.203,2.794 0.009,2.038 0.069,4.202 0.011,6.226 -0.028,1.013 -0.181,1.575 -0.197,2.723l0.192 9.099c-0.03,8.303 0.172,15.985 0.183,24.267 0.002,1.267 0.207,1.666 0.202,2.996 -0.004,0.925 -0.065,2.104 0.005,3.001 0.131,1.645 0.218,4.048 0.519,5.469 1.056,4.985 5.703,6.849 10.073,7.859 3.312,0.766 6.714,1.111 10.138,1.576 4.01,0.545 19.376,0.399 23.493,-0.086 6.45,-0.761 15.507,-0.276 22.162,-1.971 7.272,-1.853 6.398,-2.822 7.435,-7.425 0.87,-3.869 2.219,-13.998 3.169,-16.919 0.807,-2.484 1.721,-7.868 2.195,-10.524 0.344,-1.99 1.133,-3.678 1.718,-5.612 1.344,-4.441 1.694,-7.626 2.92,-12.169 0.377,-1.398 0.722,-2.38 1.102,-3.854 0.997,-3.864 2.19,-8.249 2.968,-12.117 0.575,-2.856 1.095,-5.36 1.653,-8.289l2.191 -12.734c0.189,-0.998 0.23,-2.248 1.182,-2.596 0,-15.663 0,-31.326 0,-46.989l-1.415 -0.015 -0.288 -0.004 -0.504 -0.005 -0.132 -0.002 -3.306 -0.041 -0.515 -0.007 -2.349 -0.031 -0.409 -0.006 -0.104 -0.001 -0.906 -0.013 -0.54 -0.008 -0.439 -0.006 -0.04 -0.001 -0.639 -0.009 -0.309 -0.004 -0.507 -0.008 -0.448 -0.006 -0.023 -0.001 -0.521 -0.007 -0.23 -0.004 -1.099 -0.016 -0.133 -0.002 -2.031 -0.029 -0.158 -0.002 -0.514 -0.008 -0.306 -0.004 -1.22 -0.017 -0.056 -0.001 -0.433 -0.006 -0.55 -0.008 -0.216 -0.003 -0.465 -0.006 -0.408 -0.006 -0.805 -0.01 -0.458 -0.006 -0.103 -0.002 -0.641 -0.008 -0.658 -0.008z"/>
    </clipPath>
    <clipPath id="id2">
     <path d="M69.622 5.532c-9.32,-0.113 -15.317,-0.1 -21.532,-0.475 -6.215,-0.375 -12.649,-1.137 -18.001,-2.044 -5.351,-0.908 -9.62,-1.96 -13.89,-3.013l-2.056 6.766c-2.101,6.05 -3.233,10.386 -4.916,16.285 -0.249,0.873 -0.435,1.453 -0.642,2.333 -2.36,10.025 -4.55,19.989 -6.162,30.214 -0.554,3.516 -0.787,7.435 -1.226,10.942l-0.435 5.757c-0.045,1.83 -0.234,3.899 -0.37,5.626 -0.078,0.987 0.009,2.192 -0.003,3.205 -0.013,1.158 -0.208,1.511 -0.203,2.794 0.009,2.038 0.069,4.202 0.011,6.226 -0.028,1.013 -0.181,1.575 -0.197,2.723l0.192 9.099c-0.03,8.303 0.172,15.985 0.183,24.267 0.002,1.267 0.207,1.666 0.202,2.996 -0.004,0.925 -0.065,2.104 0.005,3.001 0.131,1.645 0.218,4.048 0.519,5.469 1.056,4.985 5.703,6.849 10.073,7.859 3.312,0.766 6.714,1.111 10.138,1.576 4.01,0.545 19.376,0.399 23.493,-0.086 6.45,-0.761 15.507,-0.276 22.162,-1.971 7.272,-1.853 6.398,-2.822 7.435,-7.425 0.87,-3.869 2.219,-13.998 3.169,-16.919 0.807,-2.484 1.721,-7.868 2.195,-10.524 0.344,-1.99 1.133,-3.678 1.718,-5.612 1.344,-4.441 1.694,-7.626 2.92,-12.169 0.377,-1.398 0.722,-2.38 1.102,-3.854 0.997,-3.864 2.19,-8.249 2.968,-12.117 0.575,-2.856 1.095,-5.36 1.653,-8.289l2.191 -12.734c0.189,-0.998 0.23,-2.248 1.182,-2.596 0.952,0.348 0.993,1.598 1.182,2.596l2.191 12.734c0.558,2.929 1.077,5.433 1.652,8.289 0.779,3.868 1.972,8.253 2.968,12.117 0.38,1.474 0.725,2.456 1.103,3.854 1.226,4.543 1.576,7.728 2.919,12.169 0.585,1.934 1.375,3.622 1.719,5.612 0.473,2.654 1.389,8.042 2.195,10.524 0.949,2.921 2.299,13.05 3.169,16.919 1.037,4.603 0.163,5.572 7.434,7.425 6.656,1.695 15.712,1.21 22.163,1.971 4.117,0.485 19.483,0.631 23.492,0.086 3.425,-0.465 6.827,-0.81 10.138,-1.576 4.371,-1.01 9.018,-2.874 10.074,-7.859 0.301,-1.421 0.388,-3.824 0.519,-5.469 0.07,-0.897 0.009,-2.076 0.005,-3.001 -0.005,-1.33 0.2,-1.729 0.202,-2.996 0.011,-8.282 0.213,-15.964 0.183,-24.267l0.191 -8.764 -0.196 -3.058c-0.058,-2.024 0.002,-4.188 0.011,-6.226 0.004,-1.283 -0.19,-1.636 -0.204,-2.794 -0.011,-1.013 0.076,-2.218 -0.002,-3.205 -0.136,-1.727 -0.325,-3.796 -0.37,-5.626l-0.436 -5.757c-0.439,-3.507 -0.671,-7.426 -1.225,-10.942 -1.612,-10.225 -3.802,-20.189 -6.162,-30.214 -0.207,-0.88 -0.394,-1.46 -0.643,-2.333 -1.682,-5.899 -2.814,-10.235 -4.915,-16.285l-2.057 -6.766c-2.951,0.866 -5.902,1.731 -9.677,2.477 -3.774,0.745 -8.371,1.369 -13.806,1.869 -5.434,0.5 -11.706,0.875 -19.026,1.15 -7.321,0.274 -15.692,0.449 -26.199,0.418 -10.507,-0.031 -23.15,-0.269 -32.47,-0.382z"/>
    </clipPath>
    <clipPath id="id3">
     <path d="M128.291 5.496c-7.321,0.274 -15.692,0.449 -26.199,0.418l-1.616 -0.006 -0.217 -0.001 -0.215 -0.001 -0.066 -0.001 -0.625 -0.003 -0.854 -0.006 -1.14 -0.008 -0.045 0 -0.617 -0.005 -0.252 -0.002 -0.921 -0.008 -0.253 -0.003 -0.219 -0.002 -0.286 -0.002 -0.091 -0.001 -0.283 -0.003 -0.892 -0.009c0,15.663 0,31.326 0,46.989 0.952,0.348 0.993,1.598 1.182,2.596l2.191 12.734c0.558,2.929 1.077,5.433 1.652,8.289 0.779,3.868 1.972,8.253 2.968,12.117 0.38,1.474 0.725,2.456 1.103,3.854 1.226,4.543 1.576,7.728 2.919,12.169 0.585,1.934 1.375,3.622 1.719,5.612 0.473,2.654 1.389,8.042 2.195,10.524 0.949,2.921 2.299,13.05 3.169,16.919 1.037,4.603 0.163,5.572 7.434,7.425 6.656,1.695 15.712,1.21 22.163,1.971 4.117,0.485 19.483,0.631 23.492,0.086 3.425,-0.465 6.827,-0.81 10.138,-1.576 4.371,-1.01 9.018,-2.874 10.074,-7.859 0.301,-1.421 0.388,-3.824 0.519,-5.469 0.07,-0.897 0.009,-2.076 0.005,-3.001 -0.005,-1.33 0.2,-1.729 0.202,-2.996 0.011,-8.282 0.213,-15.964 0.183,-24.267l0.191 -8.764 -0.196 -3.058c-0.058,-2.024 0.002,-4.188 0.011,-6.226 0.004,-1.283 -0.19,-1.636 -0.204,-2.794 -0.011,-1.013 0.076,-2.218 -0.002,-3.205 -0.136,-1.727 -0.325,-3.796 -0.37,-5.626l-0.436 -5.757c-0.439,-3.507 -0.671,-7.426 -1.225,-10.942 -1.612,-10.225 -3.802,-20.189 -6.162,-30.214 -0.207,-0.88 -0.394,-1.46 -0.643,-2.333 -1.682,-5.899 -2.814,-10.235 -4.915,-16.285l-2.057 -6.766c-2.951,0.866 -5.902,1.731 -9.677,2.477 -3.774,0.745 -8.371,1.369 -13.806,1.869 -5.434,0.5 -11.706,0.875 -19.026,1.15z"/>
    </clipPath>
    <clipPath id="id4">
     <path d="M69.622 5.532c-9.32,-0.113 -15.317,-0.1 -21.532,-0.475 -6.215,-0.375 -12.649,-1.137 -18.001,-2.044 -5.351,-0.908 -9.62,-1.96 -13.89,-3.013l-2.056 6.766c-2.101,6.05 -3.233,10.386 -4.916,16.285 -0.249,0.873 -0.435,1.453 -0.642,2.333 -2.36,10.025 -4.55,19.989 -6.162,30.214 -0.554,3.516 -0.787,7.435 -1.226,10.942l-0.435 5.757c-0.045,1.83 -0.234,3.899 -0.37,5.626 -0.078,0.987 0.009,2.192 -0.003,3.205 -0.013,1.158 -0.208,1.511 -0.203,2.794 0.009,2.038 0.069,4.202 0.011,6.226 -0.028,1.013 -0.181,1.575 -0.197,2.723l0.192 9.099c-0.03,8.303 0.172,15.985 0.183,24.267 0.002,1.267 0.207,1.666 0.202,2.996 -0.004,0.925 -0.065,2.104 0.005,3.001 0.131,1.645 0.218,4.048 0.519,5.469 1.056,4.985 5.703,6.849 10.073,7.859 3.312,0.766 6.714,1.111 10.138,1.576 4.01,0.545 19.376,0.399 23.493,-0.086 6.45,-0.761 15.507,-0.276 22.162,-1.971 7.272,-1.853 6.398,-2.822 7.435,-7.425 0.87,-3.869 2.219,-13.998 3.169,-16.919 0.807,-2.484 1.721,-7.868 2.195,-10.524 0.344,-1.99 1.133,-3.678 1.718,-5.612 1.344,-4.441 1.694,-7.626 2.92,-12.169 0.377,-1.398 0.722,-2.38 1.102,-3.854 0.997,-3.864 2.19,-8.249 2.968,-12.117 0.575,-2.856 1.095,-5.36 1.653,-8.289l2.191 -12.734c0.189,-0.998 0.23,-2.248 1.182,-2.596 0.952,0.348 0.993,1.598 1.182,2.596l2.191 12.734c0.558,2.929 1.077,5.433 1.652,8.289 0.779,3.868 1.972,8.253 2.968,12.117 0.38,1.474 0.725,2.456 1.103,3.854 1.226,4.543 1.576,7.728 2.919,12.169 0.585,1.934 1.375,3.622 1.719,5.612 0.473,2.654 1.389,8.042 2.195,10.524 0.949,2.921 2.299,13.05 3.169,16.919 1.037,4.603 0.163,5.572 7.434,7.425 6.656,1.695 15.712,1.21 22.163,1.971 4.117,0.485 19.483,0.631 23.492,0.086 3.425,-0.465 6.827,-0.81 10.138,-1.576 4.371,-1.01 9.018,-2.874 10.074,-7.859 0.301,-1.421 0.388,-3.824 0.519,-5.469 0.07,-0.897 0.009,-2.076 0.005,-3.001 -0.005,-1.33 0.2,-1.729 0.202,-2.996 0.011,-8.282 0.213,-15.964 0.183,-24.267l0.191 -8.764 -0.196 -3.058c-0.058,-2.024 0.002,-4.188 0.011,-6.226 0.004,-1.283 -0.19,-1.636 -0.204,-2.794 -0.011,-1.013 0.076,-2.218 -0.002,-3.205 -0.136,-1.727 -0.325,-3.796 -0.37,-5.626l-0.436 -5.757c-0.439,-3.507 -0.671,-7.426 -1.225,-10.942 -1.612,-10.225 -3.802,-20.189 -6.162,-30.214 -0.207,-0.88 -0.394,-1.46 -0.643,-2.333 -1.682,-5.899 -2.814,-10.235 -4.915,-16.285l-2.057 -6.766c-2.951,0.866 -5.902,1.731 -9.677,2.477 -3.774,0.745 -8.371,1.369 -13.806,1.869 -5.434,0.5 -11.706,0.875 -19.026,1.15 -7.321,0.274 -15.692,0.449 -26.199,0.418 -10.507,-0.031 -23.15,-0.269 -32.47,-0.382z"/>
    </clipPath>
 </defs>
 <g id="VETORES">
  <metadata id="CorelCorpID_0Corel-Layer"/>
  <g>
  </g>
  <g clip-path="url(#id0)">
   <g id="_2018271025984">
    <g>
    </g>
   </g>
   <g clip-path="url(#id1)">
   </g>
   <g clip-path="url(#id2)">
    <path id="perna-esquerda" fill="none" d="M69.622 5.532c-9.32,-0.113 -15.317,-0.1 -21.532,-0.475 -6.215,-0.375 -12.649,-1.137 -18.001,-2.044 -5.351,-0.908 -9.62,-1.96 -13.89,-3.013l-2.056 6.766c-2.101,6.05 -3.233,10.386 -4.916,16.285 -0.249,0.873 -0.435,1.453 -0.642,2.333 -2.36,10.025 -4.55,19.989 -6.162,30.214 -0.554,3.516 -0.787,7.435 -1.226,10.942l-0.435 5.757c-0.045,1.83 -0.234,3.899 -0.37,5.626 -0.078,0.987 0.009,2.192 -0.003,3.205 -0.013,1.158 -0.208,1.511 -0.203,2.794 0.009,2.038 0.069,4.202 0.011,6.226 -0.028,1.013 -0.181,1.575 -0.197,2.723l0.192 9.099c-0.03,8.303 0.172,15.985 0.183,24.267 0.002,1.267 0.207,1.666 0.202,2.996 -0.004,0.925 -0.065,2.104 0.005,3.001 0.131,1.645 0.218,4.048 0.519,5.469 1.056,4.985 5.703,6.849 10.073,7.859 3.312,0.766 6.714,1.111 10.138,1.576 4.01,0.545 19.376,0.399 23.493,-0.086 6.45,-0.761 15.507,-0.276 22.162,-1.971 7.272,-1.853 6.398,-2.822 7.435,-7.425 0.87,-3.869 2.219,-13.998 3.169,-16.919 0.807,-2.484 1.721,-7.868 2.195,-10.524 0.344,-1.99 1.133,-3.678 1.718,-5.612 1.344,-4.441 1.694,-7.626 2.92,-12.169 0.377,-1.398 0.722,-2.38 1.102,-3.854 0.997,-3.864 2.19,-8.249 2.968,-12.117 0.575,-2.856 1.095,-5.36 1.653,-8.289l2.191 -12.734c0.189,-0.998 0.23,-2.248 1.182,-2.596 0,-15.663 0,-31.326 0,-46.989 -8.306,-0.086 -16.998,-0.238 -23.878,-0.321z"/>
    <g>
    </g>
   </g>
   <g clip-path="url(#id3)">
    <g>
     <path id="_1" fill="#AAFC26" fill-rule="nonzero" d="M0.258 94.947c2.431,-6.221 6.922,-16.558 14.14,-27.373 7.317,-10.965 17.454,-22.476 31.161,-30.926 4.774,-2.943 9.669,-5.342 13.473,-7.043 3.701,-1.654 6.626,-2.744 7.066,-2.906 10.583,-3.905 17.302,-4.694 25.87,-5.702 4.382,-0.515 9.27,-1.089 15.192,-2.149l0.011 -0.002c12.554,-2.248 27.161,-4.863 42.842,-13.253 2.492,-1.333 6.661,-3.687 11.5,-7.149 4.905,-3.51 10.645,-8.238 16.398,-14.397 5.922,-6.34 10.215,-12.465 14.129,-19.451 4.057,-7.241 7.742,-15.409 12.334,-25.591 1.981,-4.393 4.311,-9.843 6.87,-16.453 2.525,-6.518 5.124,-13.802 7.573,-21.68l10.38 3.209c-2.638,8.49 -5.291,15.956 -7.791,22.41 -2.464,6.362 -4.931,12.107 -7.126,16.974 -4.736,10.501 -8.536,18.924 -12.748,26.442 -4.354,7.772 -9.115,14.57 -15.662,21.579 -6.245,6.686 -12.59,11.9 -18.055,15.81 -5.53,3.957 -10.016,6.498 -12.664,7.915 -17.097,9.147 -32.679,11.937 -46.072,14.335l-0.01 0.002c-6.505,1.164 -11.418,1.741 -15.822,2.259 -7.874,0.926 -14.048,1.651 -23.38,5.094 -0.358,0.132 -2.758,1.029 -6.416,2.664 -3.555,1.589 -8.052,3.783 -12.21,6.346 -12.117,7.47 -21.186,17.808 -27.787,27.698 -6.7,10.04 -10.84,19.562 -13.077,25.284l-10.119 -3.946zm-26.937 -69.499c1.876,-2.484 4.333,-5.5 7.453,-8.768 3.122,-3.269 6.875,-6.751 11.314,-10.132 8.943,-6.811 16.159,-9.862 25.211,-13.688 4.136,-1.749 8.684,-3.672 14.178,-6.33 4.024,-1.946 9.825,-4.753 15.442,-7.893 5.629,-3.148 11.357,-6.756 15.588,-10.46 3.252,-2.847 8.593,-8.379 12.914,-18.629 4.483,-10.633 7.82,-26.207 6.672,-48.892l10.892 -0.557c1.244,24.573 -2.506,41.763 -7.526,53.67 -5.181,12.29 -11.756,19.073 -15.772,22.588 -4.881,4.274 -11.266,8.311 -17.477,11.784 -6.224,3.48 -11.992,6.271 -15.993,8.206 -5.487,2.655 -10.313,4.695 -14.702,6.55 -8.34,3.526 -14.99,6.337 -22.852,12.326 -3.947,3.006 -7.262,6.079 -10.007,8.953 -2.746,2.875 -4.955,5.592 -6.66,7.85l-8.675 -6.578zm20.264 26.339c7.609,-8.641 15.073,-15.731 21.978,-21.534 6.912,-5.808 13.27,-10.332 18.656,-13.832 15.268,-9.921 31.993,-17.627 39.544,-21.106l0.001 0c8.606,-3.965 14.744,-6.42 19.527,-8.333 7.642,-3.056 11.523,-4.608 16.89,-9.161 11.734,-9.954 16.951,-22.14 20.218,-29.809l0.034 -0.08c4.385,-10.295 6.524,-20.231 7.424,-29.003 0.901,-8.781 0.555,-16.4 -0.02,-22.046l10.839 -1.111c0.631,6.195 1.009,14.567 0.015,24.254 -0.988,9.63 -3.338,20.556 -8.153,31.934l-0.002 0.007 -0.1 0.235c-3.649,8.568 -9.477,22.247 -23.228,33.912 -6.746,5.723 -11.177,7.495 -19.903,10.985 -4.638,1.854 -10.59,4.234 -19.004,8.111l-0.001 0c-7.324,3.375 -23.546,10.849 -38.162,20.347 -5.067,3.293 -11.057,7.555 -17.583,13.039 -6.532,5.49 -13.595,12.198 -20.795,20.376l-8.175 -7.185zm111.999 182.019c1.205,-1.152 4.192,-4.14 6.895,-8.66 2.636,-4.406 4.983,-10.28 5.009,-17.284l0.001 0 -0.001 -0.004c0.011,-2.971 0.036,-10.075 -4.264,-15.834 -1.895,-2.537 -4.371,-4.438 -8.138,-6.012 -4.34,-1.814 -10.296,-3.222 -18.683,-4.585 -18.355,-2.982 -32.76,-3.157 -39.236,-3.235l-1.2 -0.015c-7.171,-0.105 -15.922,-0.577 -26.047,-1.898 -10.084,-1.314 -21.618,-3.485 -34.458,-6.997l2.844 -10.49c12.204,3.339 23.275,5.416 33.019,6.686 9.704,1.265 18.008,1.716 24.778,1.816l1.2 0.015c6.685,0.081 21.553,0.261 40.821,3.391 9.248,1.503 15.969,3.12 21.141,5.282 5.744,2.4 9.613,5.423 12.691,9.545 6.484,8.683 6.45,18.309 6.435,22.334l0 0 0 0.004c-0.035,9.331 -3.121,17.088 -6.586,22.881 -3.397,5.68 -7.179,9.462 -8.708,10.922l-7.513 -7.862zm-115.98 -44.847c10.384,0.897 19.214,1.539 26.656,2.003 7.043,0.439 13.741,0.761 19.535,1.002l0.693 0.028c9.196,0.379 17.299,0.713 26.47,6.156 5.323,3.159 9.246,7.077 12.087,10.681 2.773,3.518 4.497,6.728 5.474,8.585 3.851,7.32 5.406,14.521 5.886,20.586 0.484,6.107 -0.095,10.978 -0.535,13.714l-10.768 -1.713c0.366,-2.279 0.851,-6.297 0.47,-11.108 -0.384,-4.853 -1.623,-10.604 -4.685,-16.425 -0.789,-1.5 -2.181,-4.091 -4.404,-6.912 -2.156,-2.735 -5.111,-5.695 -9.076,-8.047 -6.779,-4.024 -13.607,-4.305 -21.357,-4.624l-0.692 -0.029c-4.903,-0.203 -11.314,-0.522 -19.76,-1.049 -8.046,-0.502 -17.083,-1.152 -26.916,-2.001l0.922 -10.847zm196.596 26.216c4.417,-2.145 7.747,-4.48 10.279,-6.749 2.473,-2.217 4.183,-4.365 5.401,-6.2 1.47,-2.213 2.526,-4.487 3.563,-6.721 1.99,-4.282 3.922,-8.44 8.69,-13.297l0.021 -0.004c0.014,-0.013 4.686,-4.77 11.529,-8.428 7.545,-4.035 16.557,-5.089 25.221,-4.7 15.873,0.713 30.791,6.373 31.908,6.809l-3.946 10.12c-0.996,-0.389 -14.298,-5.436 -28.449,-6.071 -6.921,-0.311 -13.982,0.458 -19.596,3.459 -5.265,2.815 -8.691,6.221 -8.918,6.45l0.009 0.008c-3.457,3.522 -4.997,6.836 -6.582,10.248 -1.185,2.551 -2.392,5.148 -4.394,8.163 -1.643,2.476 -3.931,5.357 -7.2,8.287 -3.211,2.878 -7.37,5.808 -12.797,8.443l-4.739 -9.817zm-161.463 -99.007c5.199,4.143 10.217,7.49 14.803,10.192 4.598,2.707 8.688,4.725 12.076,6.234 6.239,2.779 10.372,3.994 13.124,4.471 2.224,0.386 3.261,0.241 3.799,0.143 1.884,-0.341 3.487,-1.078 5.292,-1.908 2.692,-1.237 5.735,-2.635 10.919,-3.75 1.821,-0.391 3.645,-0.697 5.736,-0.901 2.065,-0.201 4.473,-0.315 7.511,-0.332 5.662,-0.032 11.353,0.295 18.631,1.254 7.228,0.954 15.938,2.508 27.659,4.933 8.297,1.717 13.422,2.904 17.142,4.149 4.245,1.422 6.616,2.873 9.134,5.027 1.1,0.941 3.533,3.071 5.889,6.322 2.413,3.33 4.731,7.823 5.482,13.437 0.714,5.321 -0.189,10.012 -1.773,14.184 -1.499,3.945 -3.493,7.203 -5.265,10.098 -3.072,5.017 -5.614,7.489 -8.236,10.037 -1.365,1.327 -2.756,2.678 -4.275,4.573 -1.829,2.28 -3.807,5.315 -5.488,9.377 -1.74,4.205 -3.159,9.457 -3.788,16.027l-10.819 -1.013c0.752,-7.863 2.451,-14.151 4.534,-19.185 2.142,-5.176 4.692,-9.08 7.059,-12.031 1.867,-2.328 3.543,-3.956 5.186,-5.554 2.104,-2.044 4.144,-4.027 6.528,-7.921 1.536,-2.51 3.265,-5.334 4.375,-8.256 1.023,-2.696 1.615,-5.659 1.182,-8.889 -0.463,-3.455 -1.966,-6.327 -3.539,-8.498 -1.631,-2.25 -3.352,-3.755 -4.131,-4.422 -1.46,-1.249 -2.876,-2.104 -5.489,-2.98 -3.14,-1.051 -7.946,-2.152 -15.913,-3.801 -11.586,-2.396 -20.045,-3.914 -26.86,-4.812 -6.766,-0.892 -11.995,-1.196 -17.144,-1.168 -2.627,0.015 -4.72,0.115 -6.524,0.291 -1.779,0.173 -3.195,0.404 -4.517,0.688 -3.975,0.855 -6.465,1.999 -8.668,3.012 -2.431,1.116 -4.587,2.107 -7.921,2.712 -1.226,0.222 -3.533,0.563 -7.562,-0.136 -3.499,-0.607 -8.526,-2.049 -15.68,-5.237 -3.762,-1.675 -8.248,-3.883 -13.167,-6.78 -4.93,-2.903 -10.37,-6.539 -16.085,-11.093l6.783 -8.494zm-16.467 -8.787c5.953,-1.841 11.478,-3.574 16.748,-5.259 5.059,-1.617 9.272,-2.997 12.734,-4.174l0.08 -0.026c2.051,-0.698 5.857,-1.992 11.164,-2.808 6.804,-1.046 11.957,-0.689 14.328,-0.526l0.277 0.02 -0.001 0.005c7.543,0.508 15.581,0.012 22.389,-0.725 7.037,-0.762 12.559,-1.741 15.15,-2.201 5.183,-0.918 8.184,-1.741 10.626,-2.41 3.575,-0.979 6.11,-1.674 11.615,-1.984 5.972,-0.337 11.342,0.043 15.712,0.636 4.427,0.6 7.704,1.391 9.606,1.898 5.766,1.537 10.559,3.532 15.073,5.9 4.275,2.243 8.319,4.867 12.758,7.771 6.538,4.277 9.782,7.024 17.93,13.924 3.243,2.746 7.249,6.138 12.068,10.152 5.396,4.495 9.447,7.869 13.949,11.565l-0.01 0.012c3.113,2.556 4.947,4.016 5.687,4.501 4.244,2.781 10.138,5.745 18.279,7.642 8.339,1.942 18.996,2.758 32.596,1.141l1.32 10.802c-15.037,1.789 -26.968,0.851 -36.395,-1.344 -9.624,-2.242 -16.676,-5.801 -21.787,-9.15 -1.043,-0.684 -3.153,-2.352 -6.593,-5.176l-0.021 0.004c-2.057,-1.689 -7.176,-5.953 -14.005,-11.641 -5.333,-4.442 -9.082,-7.617 -12.118,-10.188 -7.951,-6.733 -11.116,-9.413 -16.844,-13.161 -4.101,-2.682 -7.841,-5.108 -11.886,-7.231 -3.808,-1.998 -7.873,-3.686 -12.795,-4.998 -1.71,-0.456 -4.608,-1.16 -8.266,-1.656 -3.714,-0.504 -8.339,-0.823 -13.617,-0.526 -4.485,0.253 -6.52,0.811 -9.389,1.597 -2.629,0.72 -5.861,1.605 -11.627,2.627 -2.795,0.496 -8.754,1.553 -15.821,2.318 -7.29,0.79 -15.973,1.315 -24.308,0.752l-0.021 0.003 -0.277 -0.019c-2.013,-0.139 -6.387,-0.442 -11.925,0.41 -4.38,0.674 -7.603,1.769 -9.339,2.359l-0.08 0.027c-3.927,1.335 -8.196,2.737 -12.936,4.253 -4.529,1.447 -10.123,3.198 -16.832,5.272l-3.196 -10.388zm230.291 -126.701c-21.191,14.417 -33.639,24.504 -40.494,31.601 -5.333,5.521 -6.759,7.977 -6.426,8.917l0.143 0.351c0.599,1.479 1.702,4.204 1.917,8.129 0.396,7.22 -2.429,12.214 -5.189,17.095 -0.11,0.193 -0.222,0.392 -0.68,1.215 -0.527,0.944 -2.187,3.923 -4.066,7.82 -1.708,3.543 -3.432,7.54 -4.029,10.336 -0.932,4.36 0.401,8.858 2.507,12.963 2.354,4.589 5.751,8.812 8.301,11.984 10.294,12.802 25.362,20.695 39.161,25.552 14.03,4.939 26.783,6.736 32.094,7.383l-1.314 10.829c-5.664,-0.69 -19.276,-2.611 -34.397,-7.933 -15.351,-5.404 -32.221,-14.317 -44.049,-29.027 -2.843,-3.535 -6.627,-8.242 -9.485,-13.811 -3.105,-6.052 -5.015,-12.939 -3.465,-20.194 0.831,-3.889 2.869,-8.704 4.852,-12.816 1.813,-3.759 3.775,-7.28 4.397,-8.397l0.715 -1.264c1.97,-3.484 3.986,-7.049 3.762,-11.136 -0.117,-2.143 -0.781,-3.783 -1.141,-4.672 -0.106,-0.262 -0.195,-0.481 -0.307,-0.798 -1.601,-4.515 -0.014,-10.856 8.893,-20.077 7.384,-7.645 20.403,-18.245 42.186,-33.065l6.114 9.015z"/>
    </g>
   </g>
   <g clip-path="url(#id4)">
    <path fill="none" d="M128.291 5.496c-7.321,0.274 -15.692,0.449 -26.199,0.418 -2.75,-0.008 -5.647,-0.031 -8.592,-0.061 0,15.663 0,31.326 0,46.989 0.952,0.348 0.993,1.598 1.182,2.596l2.191 12.734c0.558,2.929 1.077,5.433 1.652,8.289 0.779,3.868 1.972,8.253 2.968,12.117 0.38,1.474 0.725,2.456 1.103,3.854 1.226,4.543 1.576,7.728 2.919,12.169 0.585,1.934 1.375,3.622 1.719,5.612 0.473,2.654 1.389,8.042 2.195,10.524 0.949,2.921 2.299,13.05 3.169,16.919 1.037,4.603 0.163,5.572 7.434,7.425 6.656,1.695 15.712,1.21 22.163,1.971 4.117,0.485 19.483,0.631 23.492,0.086 3.425,-0.465 6.827,-0.81 10.138,-1.576 4.371,-1.01 9.018,-2.874 10.074,-7.859 0.301,-1.421 0.388,-3.824 0.519,-5.469 0.07,-0.897 0.009,-2.076 0.005,-3.001 -0.005,-1.33 0.2,-1.729 0.202,-2.996 0.011,-8.282 0.213,-15.964 0.183,-24.267l0.191 -8.764 -0.196 -3.058c-0.058,-2.024 0.002,-4.188 0.011,-6.226 0.004,-1.283 -0.19,-1.636 -0.204,-2.794 -0.011,-1.013 0.076,-2.218 -0.002,-3.205 -0.136,-1.727 -0.325,-3.796 -0.37,-5.626l-0.436 -5.757c-0.439,-3.507 -0.671,-7.426 -1.225,-10.942 -1.612,-10.225 -3.802,-20.189 -6.162,-30.214 -0.207,-0.88 -0.394,-1.46 -0.643,-2.333 -1.682,-5.899 -2.814,-10.235 -4.915,-16.285l-2.057 -6.766c-2.951,0.866 -5.902,1.731 -9.677,2.477 -3.774,0.745 -8.371,1.369 -13.806,1.869 -5.434,0.5 -11.706,0.875 -19.026,1.15z"/>
   </g>
  </g>
  <path fill="none" d="M69.622 5.532c-9.32,-0.113 -15.317,-0.1 -21.532,-0.475 -6.215,-0.375 -12.649,-1.137 -18.001,-2.044 -5.351,-0.908 -9.62,-1.96 -13.89,-3.013l-2.056 6.766c-2.101,6.05 -3.233,10.386 -4.916,16.285 -0.249,0.873 -0.435,1.453 -0.642,2.333 -2.36,10.025 -4.55,19.989 -6.162,30.214 -0.554,3.516 -0.787,7.435 -1.226,10.942l-0.435 5.757c-0.045,1.83 -0.234,3.899 -0.37,5.626 -0.078,0.987 0.009,2.192 -0.003,3.205 -0.013,1.158 -0.208,1.511 -0.203,2.794 0.009,2.038 0.069,4.202 0.011,6.226 -0.028,1.013 -0.181,1.575 -0.197,2.723l0.192 9.099c-0.03,8.303 0.172,15.985 0.183,24.267 0.002,1.267 0.207,1.666 0.202,2.996 -0.004,0.925 -0.065,2.104 0.005,3.001 0.131,1.645 0.218,4.048 0.519,5.469 1.056,4.985 5.703,6.849 10.073,7.859 3.312,0.766 6.714,1.111 10.138,1.576 4.01,0.545 19.376,0.399 23.493,-0.086 6.45,-0.761 15.507,-0.276 22.162,-1.971 7.272,-1.853 6.398,-2.822 7.435,-7.425 0.87,-3.869 2.219,-13.998 3.169,-16.919 0.807,-2.484 1.721,-7.868 2.195,-10.524 0.344,-1.99 1.133,-3.678 1.718,-5.612 1.344,-4.441 1.694,-7.626 2.92,-12.169 0.377,-1.398 0.722,-2.38 1.102,-3.854 0.997,-3.864 2.19,-8.249 2.968,-12.117 0.575,-2.856 1.095,-5.36 1.653,-8.289l2.191 -12.734c0.189,-0.998 0.23,-2.248 1.182,-2.596 0.952,0.348 0.993,1.598 1.182,2.596l2.191 12.734c0.558,2.929 1.077,5.433 1.652,8.289 0.779,3.868 1.972,8.253 2.968,12.117 0.38,1.474 0.725,2.456 1.103,3.854 1.226,4.543 1.576,7.728 2.919,12.169 0.585,1.934 1.375,3.622 1.719,5.612 0.473,2.654 1.389,8.042 2.195,10.524 0.949,2.921 2.299,13.05 3.169,16.919 1.037,4.603 0.163,5.572 7.434,7.425 6.656,1.695 15.712,1.21 22.163,1.971 4.117,0.485 19.483,0.631 23.492,0.086 3.425,-0.465 6.827,-0.81 10.138,-1.576 4.371,-1.01 9.018,-2.874 10.074,-7.859 0.301,-1.421 0.388,-3.824 0.519,-5.469 0.07,-0.897 0.009,-2.076 0.005,-3.001 -0.005,-1.33 0.2,-1.729 0.202,-2.996 0.011,-8.282 0.213,-15.964 0.183,-24.267l0.191 -8.764 -0.196 -3.058c-0.058,-2.024 0.002,-4.188 0.011,-6.226 0.004,-1.283 -0.19,-1.636 -0.204,-2.794 -0.011,-1.013 0.076,-2.218 -0.002,-3.205 -0.136,-1.727 -0.325,-3.796 -0.37,-5.626l-0.436 -5.757c-0.439,-3.507 -0.671,-7.426 -1.225,-10.942 -1.612,-10.225 -3.802,-20.189 -6.162,-30.214 -0.207,-0.88 -0.394,-1.46 -0.643,-2.333 -1.682,-5.899 -2.814,-10.235 -4.915,-16.285l-2.057 -6.766c-2.951,0.866 -5.902,1.731 -9.677,2.477 -3.774,0.745 -8.371,1.369 -13.806,1.869 -5.434,0.5 -11.706,0.875 -19.026,1.15 -7.321,0.274 -15.692,0.449 -26.199,0.418 -10.507,-0.031 -23.15,-0.269 -32.47,-0.382z"/>
 </g>
</svg>
