<?xml version="1.0" encoding="UTF-8"?>
<!DOCTYPE svg PUBLIC "-//W3C//DTD SVG 1.1//EN" "http://www.w3.org/Graphics/SVG/1.1/DTD/svg11.dtd">
<!-- Creator: CorelDRAW -->
<svg xmlns="http://www.w3.org/2000/svg" xml:space="preserve" width="187px" height="148px" version="1.1" shape-rendering="geometricPrecision" text-rendering="geometricPrecision" image-rendering="optimizeQuality" fill-rule="evenodd" clip-rule="evenodd"
viewBox="0 0 186.999 147.486"
 xmlns:xlink="http://www.w3.org/1999/xlink"
 xmlns:xodm="http://www.corel.com/coreldraw/odm/2003">
 <defs>
   <clipPath id="id0">
    <path d="M69.622 5.532c-9.32,-0.113 -15.317,-0.1 -21.532,-0.475 -6.215,-0.375 -12.649,-1.137 -18.001,-2.044 -5.351,-0.908 -9.62,-1.96 -13.89,-3.013l-2.056 6.766c-2.101,6.05 -3.233,10.386 -4.916,16.285 -0.249,0.873 -0.435,1.453 -0.642,2.333 -2.36,10.025 -4.55,19.989 -6.162,30.214 -0.554,3.516 -0.787,7.435 -1.226,10.942l-0.435 5.757c-0.045,1.83 -0.234,3.899 -0.37,5.626 -0.078,0.987 0.009,2.192 -0.003,3.205 -0.013,1.158 -0.208,1.511 -0.203,2.794 0.009,2.038 0.069,4.202 0.011,6.226 -0.028,1.013 -0.181,1.575 -0.197,2.723l0.192 9.099c-0.03,8.303 0.172,15.985 0.183,24.267 0.002,1.267 0.207,1.666 0.202,2.996 -0.004,0.925 -0.065,2.104 0.005,3.001 0.131,1.645 0.218,4.048 0.519,5.469 1.056,4.985 5.703,6.849 10.073,7.859 3.312,0.766 6.714,1.111 10.138,1.576 4.01,0.545 19.376,0.399 23.493,-0.086 6.45,-0.761 15.507,-0.276 22.162,-1.971 7.272,-1.853 6.398,-2.822 7.435,-7.425 0.87,-3.869 2.219,-13.998 3.169,-16.919 0.807,-2.484 1.721,-7.868 2.195,-10.524 0.344,-1.99 1.133,-3.678 1.718,-5.612 1.344,-4.441 1.694,-7.626 2.92,-12.169 0.377,-1.398 0.722,-2.38 1.102,-3.854 0.997,-3.864 2.19,-8.249 2.968,-12.117 0.575,-2.856 1.095,-5.36 1.653,-8.289l2.191 -12.734c0.189,-0.998 0.23,-2.248 1.182,-2.596 0.952,0.348 0.993,1.598 1.182,2.596l2.191 12.734c0.558,2.929 1.077,5.433 1.652,8.289 0.779,3.868 1.972,8.253 2.968,12.117 0.38,1.474 0.725,2.456 1.103,3.854 1.226,4.543 1.576,7.728 2.919,12.169 0.585,1.934 1.375,3.622 1.719,5.612 0.473,2.654 1.389,8.042 2.195,10.524 0.949,2.921 2.299,13.05 3.169,16.919 1.037,4.603 0.163,5.572 7.434,7.425 6.656,1.695 15.712,1.21 22.163,1.971 4.117,0.485 19.483,0.631 23.492,0.086 3.425,-0.465 6.827,-0.81 10.138,-1.576 4.371,-1.01 9.018,-2.874 10.074,-7.859 0.301,-1.421 0.388,-3.824 0.519,-5.469 0.07,-0.897 0.009,-2.076 0.005,-3.001 -0.005,-1.33 0.2,-1.729 0.202,-2.996 0.011,-8.282 0.213,-15.964 0.183,-24.267l0.191 -8.764 -0.196 -3.058c-0.058,-2.024 0.002,-4.188 0.011,-6.226 0.004,-1.283 -0.19,-1.636 -0.204,-2.794 -0.011,-1.013 0.076,-2.218 -0.002,-3.205 -0.136,-1.727 -0.325,-3.796 -0.37,-5.626l-0.436 -5.757c-0.439,-3.507 -0.671,-7.426 -1.225,-10.942 -1.612,-10.225 -3.802,-20.189 -6.162,-30.214 -0.207,-0.88 -0.394,-1.46 -0.643,-2.333 -1.682,-5.899 -2.814,-10.235 -4.915,-16.285l-2.057 -6.766c-2.951,0.866 -5.902,1.731 -9.677,2.477 -3.774,0.745 -8.371,1.369 -13.806,1.869 -5.434,0.5 -11.706,0.875 -19.026,1.15 -7.321,0.274 -15.692,0.449 -26.199,0.418 -10.507,-0.031 -23.15,-0.269 -32.47,-0.382z"/>
   </clipPath>
 </defs>
 <g id="VETORES">
  <metadata id="CorelCorpID_0Corel-Layer"/>
  <g>
  </g>
  <g clip-path="url(#id0)">
   <g id="_1723970285520">
    <path fill="#F90000" fill-rule="nonzero" d="M23.519 106.58l0 6.376 1.529 0 0 -7.956 -1.529 0 0 1.58zm0 14.341l1.529 0 0 -1.589 -1.529 0 0 1.589zm0 -38.248l0 3.198 1.529 0 0 -4.786 -1.529 0 0 1.588zm0 7.986l0 7.965 1.529 0 0 -9.574 -1.529 0 0 1.609zm0 50.97l1.529 0 0 -1.589 -1.529 0 0 1.589zm0 -15.951l0 1.609 1.529 0 0 -3.198 -1.529 0 0 1.589zm0 11.164l1.529 0 0 -1.59 -1.529 0 0 1.59zm0 -4.788l1.529 0 0 -1.589 -1.529 0 0 1.589zm6.117 -23.885l1.529 0 0 -1.589 0 -1.58 -1.529 0 0 3.169zm-6.117 -33.461l0 4.788 1.529 0 0 -6.367 -1.529 0 0 1.579zm6.117 39.837l1.529 0 0 -1.589 0 -1.589 -1.529 0 0 3.178zm-22.947 -37.198l0 19.099 1.529 0 0 -20.718 -1.529 0 0 1.619zm20.538 -59.975l-1.499 0.4 0.88 3.198 -0.03 2.828 0 30.233 1.529 0 0 -30.283 0.03 -2.978 -0.09 -0.34 -0.82 -3.058zm2.409 116.291l0 4.758 1.529 0 0 -6.367 -1.529 0 0 1.609zm-3.058 -38.247l1.529 0 0 -1.579 0 -38.217 -1.529 0 0 39.796zm-3.059 -25.465l1.529 0 0 -1.609 0 -11.133 -1.529 0 0 12.742zm3.059 52.549l0 1.589 1.529 0 0 -3.168 -1.529 0 0 1.579zm0 -23.876l0 4.757 1.529 0 0 -6.346 -1.529 0 0 1.589zm-19.889 21.727l1.529 0 0 -1.619 0 -20.708 -1.529 0 0 22.327zm74.428 -37.198l0 -3.198 -1.539 0 0 4.787 1.539 0 0 -1.589zm0 -7.985l0 -3.178 -1.539 0 0 4.787 1.539 0 0 -1.609zm0 12.743l0 -1.58 -1.539 0 0 3.198 1.539 0 0 -1.618zm0 -22.298l0 -6.366 -1.539 0 0 7.956 1.539 0 0 -1.59zm-51.481 37.768l1.529 0 0 -1.589 0 -3.168 -1.529 0 0 4.757zm51.481 -9.094l0 -1.589 -1.539 0 0 3.178 1.539 0 0 -1.589zm-29.074 45.613l0 6.676c0.51,-0.02 1.02,-0.04 1.53,-0.06l0 -6.616 -1.53 0zm29.074 -83.831l0 -19.118 -1.539 0 0 20.707 1.539 0 0 -1.589zm-75.957 14.901l-1.53 0 0 1.589 0 27.085 1.53 0 0 -28.674zm0 70.089l0 1.589 1.529 0 0 -3.198 -1.529 0 0 1.609zm38.248 -44.164l1.559 0 0 -1.589 0 -3.168 -1.559 0 0 4.757zm5.577 49.381l0 0.44c0.499,-0.03 1.009,-0.051 1.529,-0.07l0 -0.37 -1.529 0zm29.063 -71.108l0 -38.217 -1.529 0 0 39.826 1.529 0 0 -1.609zm-34.64 24.925l1.559 0 0 -1.589 -1.559 0 0 1.589zm34.64 -21.727l-1.529 0 0 1.589 0 4.787 1.529 0 0 -6.376zm-36.169 23.316l1.529 0 0 -1.589 -1.529 0 0 1.589zm36.169 0.57l-1.529 0 0 1.579 0 1.619 1.529 0 0 -3.198zm-72.888 21.268l0 -17.5 -1.53 0 0 19.089 1.53 0 0 -1.589zm53.03 11.623l1.509 0 0 -1.62 0 -1.588 -1.509 0 0 3.208zm0 -35.05l0 -20.707 -1.529 0 0 22.296 1.529 0 0 -1.589zm-6.027 25.126l0.17 0 0 -0.48 -0.17 0 0 0.48zm4.498 -66.541l0 19.119 1.529 0 0 -20.708 -1.529 0 0 1.589zm16.8 59.495l1.529 0 0 -1.59 -1.529 0 0 1.59zm-18.359 -13.322l0 -17.5 -1.529 0 0 19.119 1.529 0 0 -1.619zm-3.059 17.539l1.53 0 0 -1.59 -1.53 0 0 1.59zm4.618 -95.643l0 27.144 1.529 0 0 -1.589 0 -29.093 -1.579 -4.898 -1.449 0.48 1.499 4.668 -0.03 3.288 0.03 0zm-1.559 95.643l0 1.589 1.529 0 0 -3.178 -1.529 0 0 1.589zm18.359 0.57l1.529 0 0 -1.589 -1.529 0 0 1.589zm0 -58.925l0 3.168 1.529 0 0 -4.758 -1.529 0 0 1.59zm0 -7.966l0 4.758 1.529 0 0 -6.346 -1.529 0 0 1.588zm0 15.921l0 7.965 1.529 0 0 -9.554 -1.529 0 0 1.589zm0 -20.708l1.529 0 0 -1.589 0 -11.154 -1.529 0 0 12.743zm-43.825 44.134l1.529 0 0 -1.579 0 -3.178 -1.529 0 0 4.757zm43.825 -7.505l0 6.376 1.529 0 0 -7.956 -1.529 0 0 1.58zm0 19.128l0 1.579 1.529 0 0 -3.168 -1.529 0 0 1.589zm0 -4.787l1.529 0 0 -1.589 -1.529 0 0 1.589zm0 11.164l1.529 0 0 -1.59 -1.529 0 0 1.59zm-24.476 -40.407l-1.529 0 0 1.589 0 6.377 1.529 0 0 -7.966zm4.588 -19.118l0 27.084 1.529 0 0 -28.673 -1.529 0 0 1.589zm-4.588 -7.966l-1.529 0 0 1.589 0 22.327 1.529 0 0 -23.916zm0 52.579l-1.529 0 0 1.589 0 6.377 1.529 0 0 -7.966zm0 -15.941l-1.529 0 0 1.609 0 11.134 1.529 0 0 -12.743zm-19.349 3.308l1.529 0 0 -1.589 0 -6.366 -1.529 0 0 7.955zm0 -9.544l1.529 0 0 -1.619 0 -19.088 -1.529 0 0 20.707zm23.937 -27.194l1.529 0 0 -3.737 0 -21.398 -1.56 -4.757 -1.439 0.45 1.47 4.537 0 24.905zm-1.53 63.713l0 -4.787 -1.529 0 0 6.376 1.529 0 0 -1.589zm-3.058 -4.787l-1.529 0 0 1.578 0 3.209 1.529 0 0 -4.787zm0 25.494l1.529 0 0 -1.618 0 -1.58 -1.529 0 0 3.198zm3.058 -6.376l0 1.589 1.53 0 0 -3.197 -1.53 0 0 1.608zm0 7.966l0 1.579 1.53 0 0 -3.169 -1.53 0 0 1.59zm-3.058 -11.164l0 1.59 1.529 0 0 -3.179 -1.529 0 0 1.589zm0 12.753l1.529 0 0 -1.589 -1.529 0 0 1.589zm-3.058 -3.179l0 1.59 1.529 0 0 -3.208 -1.529 0 0 1.618zm1.529 -15.95l1.529 0 0 -1.589 -1.529 0 0 1.589zm6.117 -98.362l1.529 -0.45 -0.48 -1.529 -1.529 0.45 0.48 1.529zm-26.935 -3.028c0.14,0.399 0.26,0.79 0.37,1.219l1.529 -0.479 -0.45 -1.5 -1.529 0.45 0.089 0.31 -0.009 0zm-2.699 2.068l-0.62 0.2 -0.739 0.25 0.03 0.06 -0.14 0.05 0.17 0.06 0.849 2.519 0 2.578 0.03 0 0 30.033 1.529 0 0 -30.283 -0.03 0 0 -2.578 -0.959 -2.838 1.439 -0.45 -0.48 -1.5 -1.529 0.48 0.45 1.419zm8.755 105.698l1.529 0 0 -1.589 -1.529 0 0 1.589zm-3.058 -100.201l0 30.253 1.529 0 0 -30.283 0.03 -3.488 -0.11 -0.309 -1.079 -3.459 -1.48 0.46 1.14 3.538 -0.03 3.288zm9.175 103.399l-1.529 0 0 1.589 -3.059 0 0 1.589 -1.529 0 0 1.589 1.529 0 0 6.377 -1.529 0 0 3.198 1.529 0 0 -1.619 1.53 0 0 -3.168 1.529 0 0 1.589 4.587 0 0 -1.589 3.088 0 0 -3.168 -1.559 -0.001 0 -1.619 -1.529 0 0 -3.168 -3.058 0 0 -1.589 0 -0.01zm1.529 3.169l0 6.376 -1.529 0 0 -1.589 -1.529 0 0 -3.199 -1.529 0.001 0 -1.589 4.587 0zm-7.646 -9.535l1.529 0 0 -1.589 -1.529 0 0 1.589zm-6.966 -112.903l-0.479 -1.529 -1.53 0.48 0.48 1.508 1.529 -0.459zm10.025 104.938l1.529 0 0 -1.619 -1.529 0 0 1.619zm-3.059 4.757l1.529 0 0 1.619 1.53 0 0 1.579 -1.53 0 0 1.589 1.53 0 3.058 0 0 4.787 3.068 0 0 1.589 1.529 0 0 -1.589 1.559 0 0 -3.198 -1.559 0 0 1.59 -1.529 0 0 -3.179 -1.539 0 0 -1.589 -3.058 0 0 -6.366 -4.588 0 0 3.168zm-9.914 -113.743l-1.53 0.48 0.93 3.008 1.539 -0.489 -0.939 -2.999zm-1.979 -1.049l-1.529 0.48 0.449 1.499 1.529 -0.45 -0.449 -1.529zm1.379 4.537l-1.499 0.48 0.46 1.499 1.529 -0.48 -0.49 -1.499zm1.419 4.527l-1.529 0.45 0.48 1.539 1.529 -0.49 -0.48 -1.499zm-0.819 -8.015l1.529 -0.48 -0.48 -1.509 -1.499 0.49 0.17 0.539 0.28 0.96zm2.469 2.519l1.529 -0.45 -0.94 -3.029 -1.529 0.48 0.06 0.2 0.88 2.799zm-0.121 5.017l0.48 1.499 1.509 -0.48 -0.46 -1.499 -1.529 0.48zm-0.419 -1.36l-0.51 -1.669 -1.529 0.48 0.929 3.028 1.529 -0.479 -0.419 -1.36zm1.439 -0.709l0.509 1.589 1.53 -0.48 -0.93 -3.008 -1.529 0.48 0.42 1.419zm11.134 105.108l1.529 0 0 -1.589 -1.529 0 0 1.589zm37.708 -79.073l0 -29.763 -0.56 -0.01 -0.059 0 -0.43 0 -0.48 0 0 29.773 1.529 0zm15.332 25.355l1.109 0 0.27 -1.589 -1.379 0 0 1.589zm-7.676 -28.673l1.529 0 0 1.619 -1.529 0 0 19.098 1.529 0 0 1.59 -1.529 0 0 6.376 4.587 0 0 1.589 -4.587 0 0 6.376 3.058 0 0 1.619 -1.529 0 0 4.757 1.529 0 0 -1.589 1.529 0 0 1.589 -1.529 0 0 1.619 -1.529 0 0 1.589 -1.529 0 0 3.168 1.529 0 0 1.589 -1.529 0 0 11.164 1.339 0c0.06,-0.24 0.13,-0.5 0.19,-0.749l0 -0.83 0.22 0c0,0 0.02,-0.09 0.04,-0.14 0.37,-1.419 0.71,-2.378 1.079,-3.878 0.061,-0.239 0.13,-0.5 0.2,-0.749l0 -1.599 0.42 0c0.14,-0.53 0.27,-1.05 0.41,-1.589l-0.84 0 0 -1.619 1.26 -0.001c0.089,-0.37 0.179,-0.729 0.269,-1.089l0 -0.49 0.12 0c0.42,-1.689 0.81,-3.368 1.13,-4.957 0.1,-0.529 0.21,-1.039 0.31,-1.549l0 -1.459 0.3 0c0.319,-1.559 0.639,-3.118 0.959,-4.787l-1.259 0 0 1.619 -1.56 0 0 -1.619 1.56 0 0 -3.168 1.529 0 0 1.669 0.839 -4.877 -0.839 0 0 1.619 -1.529 0 0 -4.788 -1.56 0 0 -6.376 -1.529 0 0 -1.589 1.529 0 0 1.589 3.089 0 0 1.589 1.529 0 0 3.918 0.48 -2.808c0.199,-0.99 0.23,-2.269 1.189,-2.609l0 -0.09 -0.14 0 0 -3.168 0.14 0 0 -6.376 -0.14 0 0 -3.198 0.14 0 0 -14.332 -0.14 0 0 -1.589 0.14 0 0 -18.249 -2.349 0 -3.318 -0.06 -0.51 0 -2.349 -0.03 -0.509 0 -0.91 -0.03 -1.039 0c0.04,4.837 0.09,9.674 0.11,14.501l0 11.814 0 -0.03zm9.205 -3.169l1.529 0 0 1.589 -1.529 0 0 -1.589zm0 20.708l0 1.589 -1.529 0 0 -1.589 1.529 0zm-3.058 -4.787l1.529 0 0 1.589 -1.529 0 0 -1.589zm-10.745 -9.434l0 -29.703 -1.408 -0.02 -0.121 -0.01 0 29.733 1.529 0zm-43.825 90.206l1.529 0 0 -1.589 -1.529 0 0 1.589zm54.57 -66.431l1.529 0 0 -1.589 -1.529 0 0 1.589zm-12.274 66.461c0.07,-0.36 0.13,-0.719 0.19,-1.059l-0.19 0 0 1.059zm6.127 -26.634l0.27 0c0.23,-1.049 0.45,-2.098 0.699,-3.198l-0.959 0 0 3.198 -0.01 0zm-1.529 -63.602l0 -29.663 -0.46 0 -0.03 0 -0.51 -0.03 -0.219 0 -0.32 0 0 29.693 1.539 0zm-33.661 -14.252l1.359 -0.42 1.669 4.668 0.03 20.038 0 35.579 1.529 0 0 -36.629 -0.03 -19.269 -1.749 -4.817 -1.279 0.37 -0.45 -1.529 -1.529 0.48 0.45 1.529zm-10.174 90.117l1.529 0 0 -1.59 -1.529 0 0 1.59zm16.071 -103.629l-0.71 -2.329c-0.57,-0.02 -1.139,-0.04 -1.699,-0.07l0.879 2.878 1.529 -0.479 0.001 0zm-13.013 113.213l1.529 0 0 -1.589 -1.529 0 0 1.589zm-14.732 -107.916l-1.529 0.479 0.939 3.008 1.529 -0.479 -0.449 -1.479 -0.49 -1.529zm29.154 -0.71l-0.93 -3.058 -1.529 0.48 0.93 3.058 1.529 -0.48zm-4.248 7.996l1.529 -0.49 -0.45 -1.529 -1.529 0.489 0.45 1.53zm5.637 -3.399l-0.45 -1.539 -0.48 -1.528 -1.529 0.489 0.93 3.058 1.529 -0.48zm-8.295 -10.853l-0.29 -0.91c-0.57,-0.04 -1.139,-0.07 -1.719,-0.11 0.17,0.5 0.31,1.01 0.48,1.509l1.529 -0.479 0 -0.01zm-23.877 -4.097c-0.06,-0.011 -0.12,-0.031 -0.17,-0.041l0.03 0.08 0.15 -0.05 -0.01 0.011zm-1.649 0.529l-0.31 -0.96c-0.609,-0.139 -1.199,-0.279 -1.799,-0.419l0.57 1.829 1.529 -0.45 0.01 0zm4.887 0.13c-0.549,-0.1 -1.079,-0.21 -1.609,-0.32l0.23 0.729 1.379 -0.41 0 0.001zm-8.065 5.817l1.529 -0.48 -0.96 -3.029 -1.499 0.48 -0.48 -1.499 1.529 -0.48 -0.859 -2.748c-0.17,-0.04 -0.34,-0.08 -0.5,-0.12l-1.109 0.35 -0.21 -0.67c-0.13,-0.03 -0.26,-0.06 -0.38,-0.09l-0.159 0.529 0.759 0.27 0.71 2.239 -2.009 -0.71 -0.56 1.819 3.278 1.15 0.71 2.238 -4.537 -1.599 -0.25 0.83c-0.12,0.34 -0.22,0.65 -0.33,0.979l5.797 2.049 -0.45 -1.499 -0.02 -0.009zm22.727 136.379l0 1.589 -1.529 0 0 -1.589 1.529 0 0 -3.168 -3.058 0 0 -1.619 -1.529 0 0 3.198 1.529 0 0 4.288c1.779,-0.05 3.367,-0.13 4.587,-0.22l0 -2.479 -1.529 0zm-14.762 -132.272l0.96 3.028 1.499 -0.479 -0.93 -3.029 -1.529 0.48zm-6.546 0.4l1.499 -0.48 -0.939 -2.998 -1.529 0.48 0.709 2.238 -7.106 -2.499c-0.2,0.61 -0.399,1.22 -0.579,1.809l8.395 2.959 -0.45 -1.499 0 -0.01zm9.804 -7.116l0.4 1.329 -2.208 -0.789 -0.26 -0.79 -1.529 0.48 0.479 1.499 1.499 -0.479 0.96 3.028 -1.529 0.45 0.45 1.498 1.529 -0.449 -0.26 -0.82 1.979 0.71c0.11,0.43 0.23,0.879 0.31,1.299l-1.869 -0.649 0.769 2.468 -1.529 0.48 0.48 1.499 0.939 -0.28 0.48 0.17c0.37,1.19 0.71,2.379 1.079,3.568 0.061,6.317 0.09,12.633 0.14,18.949l0 11.843 1.529 0 0 1.589 -1.529 0 0 19.118 1.529 0 0 1.589 -1.529 0 0 6.376 4.587 0.001 0 1.589 -4.587 0 0 6.376 3.058 0 0 1.589 -1.529 0 0 4.787 1.529 0 0 -1.589 1.529 0 0 1.589 -1.529 0 0 1.589 -1.529 0 0 1.589 -1.529 0 0 3.199 1.529 0 0 1.589 -1.529 0 0 11.133 1.529 0 0 -1.589 1.529 0 0 -1.589 1.529 0 0 -1.589 -1.529 0 0 -3.198 1.529 0 0 3.198 3.059 0 0 3.168 1.529 0 0 3.198 -1.529 0 0 3.168 1.529 0 0 1.589 2.519 0 0 1.619 1.529 0 0 -1.619 -0.96 0 0 -1.589 -1.559 0 0 -3.168 0.99 0 0 1.589 1.529 0 0 -1.589 -0.96 0 0 -11.163 -1.559 0 0 3.198 -1.529 -0.001 0 -3.198 -1.529 0.001 0 -4.757 1.529 -0.001 0 -1.619 -1.529 0 0 -3.168 -1.53 0 0 -1.589 1.53 0 0 -3.198 4.617 0 0 -6.376 -1.559 0 0 1.618 -1.529 0 0 -3.198 -1.529 0.001 0 1.589 -1.53 -0.001 0 -4.757 -1.529 0 0 -6.376 -1.529 0 0 -1.619 1.529 0 0 1.619 3.059 0 0 1.59 1.529 0 0 4.787 -1.529 -0.001 0 1.589 4.617 0 0 -7.965 -1.559 0 0 -3.198 1.559 0 0 -6.376 -1.559 0 0 -3.168 1.559 -0.001 0 -14.331 -1.559 0 0 -1.589 1.559 0 0 -6.376 -0.06 0c-0.06,-4.817 -0.17,-9.604 -0.23,-14.421l0.85 -0.26 1.899 4.757 0.029 18.949 1.53 0 -0.03 -19.239 -1.979 -4.927 -1.049 0.31 -0.45 -1.529 -1.529 0.479 -0.94 -3.058 1.529 -0.48 -0.479 -1.528 -1.53 0.479 0.14 0.45 -0.11 -0.06 -0.769 -3.538 1.329 -0.399 -0.45 -1.529 -1.249 0.37 -0.789 -3.089 1.109 -0.34 -0.48 -1.529 -1.079 0.31 -0.67 -2.269c-0.56,-0.06 -1.109,-0.13 -1.659,-0.19 0.03,0.1 0.06,0.21 0.1,0.31l-1.109 -0.4c0,0 0,-0.02 -0.01,-0.03 -2.359,-0.299 -4.628,-0.629 -6.737,-0.989 -0.929,-0.159 -1.818,-0.32 -2.698,-0.489l0.74 2.388 2.238 0.79 0.02 0.009zm11.504 102.36l1.529 0 0 1.589 -1.529 0 0 -1.589zm-3.058 -6.377l-1.529 0 0 1.589 -1.53 0 0 -1.589 1.53 0 0 -1.589 1.529 0 0 1.589zm0 -14.331l0 -3.168 1.529 0 0 3.168 -1.529 0 0 1.589 -1.529 0 0 -1.589 1.529 0zm0 -22.297l0 -1.59 1.529 0.001 0 1.589 -1.529 0zm3.058 -17.54l1.529 0 0 1.619 -1.529 0 0 -1.619zm0 20.708l0 1.589 -1.529 0 0 -1.589 1.529 0zm-1.279 -53.798c0.08,0.43 0.17,0.88 0.26,1.299l-1.13 -0.399c-0.08,-0.43 -0.17,-0.88 -0.28,-1.3l1.16 0.4 -0.01 0zm-1.39 -5.607l0.37 1.329 -1.129 -0.399c-0.06,-0.17 -0.09,-0.34 -0.14,-0.48 -0.06,-0.28 -0.14,-0.57 -0.2,-0.85l1.11 0.4 -0.011 0zm-1.469 4.617c0.11,0.43 0.2,0.88 0.31,1.3l-1.109 -0.4 -0.28 -1.299 1.079 0.399zm-1.389 -5.636c0.11,0.45 0.23,0.879 0.34,1.329l-1.08 -0.4c-0.139,-0.429 -0.259,-0.879 -0.369,-1.329l1.109 0.4zm-1.079 5.946l-1.329 -0.45c-0.11,-0.449 -0.23,-0.879 -0.31,-1.329l1.329 0.48 0.31 1.299zm-1.809 -6.966c0.14,0.45 0.26,0.91 0.4,1.33l-1.33 -0.451c-0.139,-0.449 -0.26,-0.909 -0.369,-1.329l1.299 0.45zm9.315 -0.989l-0.36 -1.179c-0.58,-0.05 -1.16,-0.11 -1.729,-0.17l0.559 1.829 1.53 -0.48zm0.629 138.898l0.989 0 0 1.589 1.53 0 0 -1.589 -0.96 0 0 -3.178 2.489 0 0 -3.198 -1.529 0 0 1.589 -4.048 0 0 1.609 1.529 0 0 3.178zm-39.778 -5.237l-1.529 0 0 0.81c0.17,0.279 0.36,0.549 0.56,0.809l0.979 0 0 -1.619 -0.01 0zm24.477 3.768l-1.529 0 0 4.227c0.489,0.01 1.009,0.02 1.529,0.03l0 -4.257zm22.267 -138.039c-0.37,-0.019 -0.729,-0.04 -1.099,-0.059l0.11 0.359 0.989 -0.3zm-28.414 12.163l1.529 -0.48 -0.939 -2.998 -1.5 0.45 -0.029 0 0.709 2.239 -9.664 -3.398c-0.18,0.609 -0.36,1.219 -0.54,1.818l10.914 3.848 -0.48 -1.469 0 -0.01zm-19.859 114.143l0 -4.757 -1.529 0 0 1.708c0.02,0.24 0.03,0.5 0.03,0.81 0,0.41 -0.02,0.889 -0.03,1.359l0 1.049c0,0.191 0.01,0.39 0.03,0.56 0.02,0.27 0.04,0.55 0.06,0.85l1.449 0 0 -1.589 -0.01 0.01zm0 -31.841l0 -41.516c-0.34,2.809 -0.549,5.737 -0.879,8.425l-0.45 5.747c-0.02,1.129 -0.1,2.358 -0.2,3.548l0 23.786 1.529 0 0 0.01zm4.588 -54.248l0 27.163 1.529 0 0 -30.681 -1.559 -4.898 -0.73 0.231c-0.11,0.489 -0.22,0.989 -0.32,1.479l1.08 3.418 0 3.288 0 0zm-1.529 22.376l0 -25.125 -0.23 -0.69c-0.45,2.229 -0.89,4.468 -1.3,6.717l0 19.098 1.53 0zm40.627 -62.873c-0.55,-0.039 -1.099,-0.089 -1.649,-0.13l0.17 0.57 1.479 -0.44zm3.349 10.68l1.525 -0.481 -0.48 -1.525 -1.525 0.48 0.48 1.526zm-3.409 -5.653l-1.529 0.48 0.449 1.529 1.53 -0.479 -0.45 -1.53zm0.324 6.598l1.525 -0.48 -0.48 -1.526 -1.525 0.481 0.48 1.525zm4.723 -6.458l1.529 -0.459 -0.48 -1.53 -1.509 0.461 0.46 1.528zm-1.529 0.45l-0.46 -1.529 -1.529 0.479 0.45 1.53 1.539 -0.48zm-10.434 67.29l1.529 0 0 -1.619 -1.529 0 0 1.619zm7.366 -66.35l0.939 3.058 1.529 -0.46 -0.939 -3.058 -1.529 0.46zm4.137 -2.918l-0.929 -3.069 -1.529 0.46 0.929 3.058 1.529 -0.449zm-0.59 3.507l0.45 1.529 1.529 -0.45 -0.929 -3.058 -1.529 0.45 0.479 1.529zm-5.187 4.927l0.94 3.059 1.529 -0.45 -0.939 -3.058 -1.53 0.449zm1.19 -7.046l1.529 -0.46 -0.93 -3.057 -1.529 0.45 0.45 1.529 0.48 1.538zm4.927 5.178l0.46 1.529 0.479 1.529 1.5 -0.45 -0.93 -3.058 -1.509 0.45zm1.49 -0.43l1.533 -0.455 -0.454 -1.533 -1.534 0.455 0.455 1.533zm-3.019 0.909l-1.529 0.46 0.939 3.058 1.529 -0.45 -0.479 -1.529 -0.46 -1.539zm-4.328 -8.724l-0.489 -1.53 -1.529 0.46 0.479 1.559 1.539 -0.489zm-1.539 0.489l-1.529 0.45 0.94 3.058 1.529 -0.45 -0.94 -3.058zm1.879 6.116l-0.49 -1.529 -1.529 0.45 0.939 3.058 1.53 -0.449 -0.45 -1.53zm111.757 77.195l-1.529 0 0 3.178 0 1.579 1.529 0 0 -4.757zm0 -12.743l-1.529 0 0 6.366 0 1.589 1.529 0 0 -7.955zm4.618 63.713l1.529 0 0 -1.589 -1.529 0 0 1.589zm-4.618 -43.005l-1.529 0 0 3.168 0 1.589 1.529 0 0 -4.757zm3.059 0l0 -1.589 -1.53 0 0 6.346 1.53 0 0 -4.757zm0 -43.004l-1.53 0 0 38.217 0 1.579 1.53 0 0 -39.796zm-3.059 0l-1.529 0 0 19.088 0 1.619 1.529 0 0 -20.707zm3.059 66.88l0 -1.579 -1.53 0 0 3.168 1.53 0 0 -1.589zm-54.53 -28.213l0 1.589 1.529 0 0 -3.178 -1.529 0 0 1.589zm0 -6.376l0 1.618 1.529 0 0 -3.198 -1.529 0 0 1.58zm0 -4.758l0 1.589 1.529 0 0 -4.787 -1.529 0 0 3.198zm0 -7.985l0 1.609 1.529 0 0 -4.787 -1.529 0 0 3.178zm37.709 26.514l1.529 0 0 -1.589 -1.529 0 0 1.589zm13.762 3.318l-1.529 0 0 1.58 0 1.589 1.529 0 0 -3.169zm-15.291 -4.907l1.529 0 0 -1.589 -1.529 0 0 1.589zm15.291 33.57l0 -1.609 -1.529 0 0 6.367 1.529 0 0 -4.758zm0 -22.296l-1.529 0 0 1.589 0 1.589 1.529 0 0 -3.178zm-13.762 -19.229l-1.529 0 0 3.168 0 1.589 1.529 0 0 -4.757zm19.909 -9.465l0 -1.588 -1.529 0 0 4.786 1.529 0 0 -3.198zm19.889 -10.114l0 -1.589 -1.53 0 0 28.674 1.53 0 0 -27.085zm3.038 54.169l-1.539 0 0 4.757 0 1.589 1.539 0 0 -6.346zm-3.038 -20.708l-1.53 0 0 17.5 0 1.589 1.53 0 0 -19.089zm-3.089 36.628l1.559 0 0 -1.589 0 -1.609 -1.559 0 0 3.198zm0 -65.301l0 -1.619 -1.529 0 0 20.718 1.529 0 0 -19.099zm-74.418 -11.734l0 1.59 1.529 0 0 -7.956 -1.529 0 0 6.366zm-1.529 17.4l-1.529 0 0 -1.589 1.529 0 0 -3.168 -1.529 0 0 -1.589 -1.529 0 0 -1.619 -1.529 0 0 -1.589 1.529 0 0 1.589 1.529 0 0 -4.757 -1.529 0 0 -1.619 3.058 0 0 -6.376 -4.587 0 0 -1.589 4.587 0 0 -6.377 -1.529 0 0 -1.589 1.529 0 0 -19.098 -1.529 0 0 -1.62 1.529 0 0 -11.813c0.04,-4.757 0.09,-9.534 0.13,-14.301 -0.64,0 -1.26,0 -1.909,0l-1.619 -0.03 -3.798 0 -0.23 -0.03 -2.069 0 -0.879 -0.03 0 23.036 1.189 0 0 1.589 -1.189 0 0 22.377c0.94,0.34 0.989,1.619 1.159,2.608l0.03 0.161 0 -1.27 1.529 0 0 -1.589 3.059 0 0 -1.589 1.529 0 0 1.589 -1.529 0 0 6.376 -1.53 0.001 0 4.787 -1.529 -0.001 0 -1.618 -0.37 0 0.56 3.198 1.339 0 0 3.168 1.53 0 0 1.619 -1.53 0 0 -1.619 -0.779 0c0.51,2.718 1.009,5.097 1.549,7.796 0.41,2.078 0.96,4.317 1.529,6.545l0.76 0 0 1.62 -0.35 0c0.35,1.339 0.7,2.668 1.029,3.937 0.37,1.499 0.71,2.469 1.11,3.878 0.16,0.6 0.31,1.17 0.439,1.729l0.84 0 0 -11.164 0 0.03zm-7.646 -31.841l-1.529 0 0 -1.589 1.529 0 0 1.589zm1.53 -4.787l-1.53 0 0 -1.589 1.53 0 0 1.589zm5.646 49.371c0.17,0.739 0.32,1.459 0.47,2.179l0 -2.179 -0.47 0zm59.617 10.824l0 -1.58 -1.529 0 0 7.956 1.529 0 0 -6.376zm-1.529 14.341l1.529 0 0 -1.589 -1.529 0 0 1.589zm0 15.921l1.529 0 0 -1.59 -1.529 0 0 1.59zm1.529 -11.164l0 -1.589 -1.529 0 0 3.198 1.529 0 0 -1.609zm-1.529 6.376l1.529 0 0 -1.589 -1.529 0 0 1.589zm1.529 -57.346l0 -1.579 -1.529 0 0 6.367 1.529 0 0 -4.788zm0 -17.499l-1.529 0 0 11.133 0 1.609 1.529 0 0 -12.742zm16.8 40.815l-1.529 0 0 20.708 0 1.619 1.529 0 0 -22.327zm-16.8 -7.365l0 -1.609 -1.529 0 0 9.574 1.529 0 0 -7.965zm-23.967 -43.145l0 -1.589 -1.529 0 0 23.916 1.529 0 0 -22.327zm0 52.579l0 -1.589 -1.529 0 0 7.966 1.529 0 0 -6.377zm-3.058 31.842l0 1.618 1.529 0 0 -3.198 -1.529 0 0 1.58zm0 -6.366l1.529 0 0 -1.59 0 -1.589 -1.529 0 0 3.179zm3.058 -41.397l0 -1.609 -1.529 0 0 12.743 1.529 0 0 -11.134zm0 -9.574l0 -1.589 -1.529 0 0 7.966 1.529 0 0 -6.377zm-3.058 33.461l-1.529 0 0 4.787 0 1.589 1.529 0 0 -6.376zm3.058 27.084l1.53 0 0 -1.59 0 -1.618 -1.53 0 0 3.208zm-42.836 -76.015l-0.919 0 0.28 1.589 0.639 0 0 -1.589zm41.307 58.475l1.529 0 0 -1.589 -1.529 0 0 1.589zm-7.646 -38.217l-1.529 0 0 20.707 0 1.589 1.529 0 0 -22.296zm-3.058 54.137l0 1.62 1.529 0 0 -3.208 -1.529 0 0 1.588zm3.058 -74.845l0 -1.589 -1.529 0 0 20.708 1.529 0 0 -19.119zm0 65.301l1.529 0 0 -1.589 0 -1.589 -1.529 0 0 3.178zm3.059 -1.589l1.529 0 0 -1.59 -1.529 0 0 1.59zm0 -68.499l0 -1.589 -1.53 0 0 28.673 1.53 0 0 -27.084zm-3.059 -27.144l0.03 0 -0.03 -3.288 1.5 -4.668 -1.47 -0.48 -1.559 4.898 0 29.093 0 1.589 1.529 0 0 -27.144zm3.059 60.604l-1.53 0 0 17.5 0 1.619 1.53 0 0 -19.119zm-21.418 -37.658l0 1.589 1.529 0 0 -12.743 -1.529 0 0 11.154zm0 68.48l1.529 0 0 -1.59 -1.529 0 0 1.59zm0 -4.757l1.529 0 0 -1.59 -1.529 0 0 1.59zm24.476 23.316l1.529 0 0 -1.589 -1.529 0 0 1.589zm-24.476 -13.772l1.529 0 0 -1.589 -1.529 0 0 1.589zm-3.059 -38.218l1.53 0 0 -4.787 0 -1.589 -1.53 0 0 6.376zm0 20.708l1.53 0 0 -1.619 0 -1.579 -1.53 0 0 3.198zm3.059 -3.198l1.529 0 0 -1.589 -1.529 0 0 1.589zm-3.059 -27.084l0 1.609 1.53 0 0 -39.826 -1.53 0 0 38.217zm3.059 33.45l1.529 0 0 -1.579 0 -1.589 -1.529 0 0 3.168zm0 -14.331l1.529 0 0 -6.376 0 -1.58 -1.529 0 0 7.956zm21.418 34.479l1.529 0 0 -1.589 0 -1.608 -1.529 0 0 3.197zm1.249 -3.547l0.2 0 0 -0.48 -0.2 0 0 0.48zm-28.784 -69.15l0 1.589 1.529 0 0 -20.707 -1.529 0 0 19.118zm27.535 80.653l1.529 0 0 -1.579 0 -1.59 -1.529 0 0 3.169zm-21.418 -75.895l1.529 0 0 -4.758 0 -1.588 -1.529 0 0 6.346zm0 19.128l1.529 0 0 -7.965 0 -1.589 -1.529 0 0 9.554zm0 -12.752l1.529 0 0 -3.168 0 -1.59 -1.529 0 0 4.758zm27.534 42.434l0 -1.578 -1.529 0 0 4.787 1.529 0 0 -3.209zm-7.646 -64.241l0 3.737 1.53 0 0 -24.905 1.499 -4.537 -1.469 -0.45 -1.56 4.757 0 21.398zm6.117 -24.766l-1.269 -0.37 -1.759 4.817 -0.03 19.269 0 36.629 1.529 0 0 -35.579 0.03 -20.038 1.699 -4.668 1.329 0.42 0.48 -1.529 -1.529 -0.48 -0.48 1.529zm-3.028 -0.939l1.499 0.49 0.48 -1.53 -1.53 -0.489 -0.449 1.529zm-1.542 -0.479l0.454 -1.533 -1.533 -0.455 -0.454 1.534 1.533 0.454zm16.273 93.634l1.53 0 0 -1.619 -1.53 0 0 1.619zm-1.529 -1.619l1.529 0 0 -1.59 -1.529 0 0 1.59zm-1.529 9.574l0 1.589 -1.529 0 0 3.179 -1.529 0 0 -1.59 -1.529 0 0 3.198 1.529 0 0 1.589 1.529 0 0 -1.589 3.058 0 0 -4.787 3.059 0 1.529 0 0 -1.589 -1.529 0 0 -1.579 1.529 0 0 -1.619 1.529 0 0 -3.168 -4.588 0 0 6.366 -3.058 0zm1.529 -6.366l1.529 0 0 -1.589 -1.529 0 0 1.589zm-16.401 -100.72l-0.459 1.528 -0.48 1.539 1.529 0.48 0.94 -3.058 -1.53 -0.489zm8.096 0.799l-0.45 1.529 1.53 0.48 0.449 -1.529 -1.529 -0.48zm-2.578 -2.469l0.459 -1.529 -1.509 -0.45 -0.93 3.058 1.5 0.45 0.48 -1.529zm-0.48 1.529l-0.45 1.53 1.529 0.479 0.45 -1.529 -1.529 -0.48zm-3.628 -4.447l-0.93 3.058 1.529 0.48 0.93 -3.058 -1.529 -0.48zm8.705 4.337l-0.49 1.53 1.53 0.449 0.939 -3.058 -1.529 -0.45 -0.45 1.529zm3.228 115.302l0 3.168 -1.529 0.001 0 1.618 -1.529 0 0 3.169 3.058 0 0 1.589 4.587 0 0 -1.589 1.53 0 0 3.168 1.529 0 0 1.619 1.529 0 0 -3.198 -1.529 0 0 -6.376 1.529 0 0 -1.589 -1.529 0 0 -1.59 -3.059 0 0 -1.589 -1.529 0 0 1.589 -3.058 0 0 0.01zm6.117 1.589l0 1.589 -1.53 0 0 3.199 -1.529 0 0 1.589 -1.529 0 0 -6.376 4.588 -0.001zm-11.954 -119.359l-0.939 3.058 1.529 0.46 0.939 -3.058 -1.529 -0.46zm3.045 0.918l0.48 -1.525 -1.526 -0.48 -0.48 1.525 1.526 0.48zm-3.064 -0.943l0.48 -1.525 -1.525 -0.48 -0.48 1.525 1.525 0.48zm45.624 52.044l0 36.629 1.529 0 0 -31.172 -0.14 -1.919c-0.45,-3.508 -0.679,-7.455 -1.249,-10.963 -0.03,-0.22 -0.08,-0.44 -0.11,-0.66l0 8.085 -0.03 0zm-35.181 80.083l0 -3.198 -1.529 0 0 1.619 -3.058 0 0 3.168 1.529 0 0 1.589 -1.529 0 0 -1.589 -1.529 0 0 2.448c1.159,0.1 2.769,0.18 4.587,0.24l0 -4.268 1.529 0.001 0 -0.01zm33.682 -3.648l0 1.619 1.429 0c0,0 0.05,-0.06 0.069,-0.089l0 -1.52 -1.498 0 0 -0.01zm-86.692 -80.313l1.529 0 0 -1.589 -1.529 0 0 1.589zm46.125 -48.731l1.529 0.45 0.939 -3.058 -1.529 -0.45 -0.939 3.058zm16.06 132.812l0 4.267c0.52,0 1.03,-0.009 1.53,-0.02l0 -4.237 -1.53 0 0 -0.01zm-23.936 -3.318l-1.529 0 0 6.596c0.509,0.02 1.019,0.04 1.529,0.06l0 -6.656 0 0zm1.529 6.376l0 0.35c0.52,0.02 1.03,0.039 1.529,0.07l0 -0.42 -1.529 0zm8.645 -4.767l0 -1.609 -4.057 0 0 -1.589 -1.53 0 0 3.198 2.529 0 0 3.178 -0.999 0 0 1.589 1.558 0 0 -1.589 0.97 0 0 -3.178 1.529 0zm33.651 -99.631l0 30.681 1.529 0 0 -27.163 0.03 0 -0.029 -3.289 1.369 -4.277c-0.03,-0.16 -0.07,-0.31 -0.1,-0.47l-1.219 -0.38 -1.59 4.898 0.01 0zm-26.005 78.933l1.529 0 0 -1.589 -1.529 0 0 1.589zm0 3.168l1.529 0 0 -1.589 -1.529 0 0 1.589zm5.697 -107.027l1.459 0.46 -0.13 -0.03 -0.82 3.058 -0.08 0.34 0.03 2.978 -0.03 0 0 30.283 1.53 -0.001 0 -33.06 0.849 -3.198 -1.269 -0.34c0.14,-0.42 0.25,-0.82 0.37,-1.22l0.11 -0.309 -1.53 -0.45 -0.479 1.499 -0.01 -0.01zm-7.226 108.616l1.529 0 0 -1.589 -1.529 0 0 1.589zm4.677 -105.617l-0.09 0.309 0.03 3.488 -0.03 0 0 30.283 1.529 0 0 -30.253 0.03 0 -0.03 -3.288 1.11 -3.538 -1.45 -0.46 -1.099 3.459zm-10.794 100.86l1.529 0 0 -1.589 -1.529 0 0 1.589zm36.07 -85.24c-0.06,-0.28 -0.12,-0.549 -0.18,-0.829l-0.22 0.709 0.4 0.121 0 -0.001zm-19.669 -17.689l1.419 0.45 -0.969 2.838 0 2.578 0 30.283 1.529 0 0 -30.033 0 -2.578 0.879 -2.519 0.14 -0.06 -0.109 -0.05 0 -0.06 -0.71 -0.25 -0.62 -0.2 0.42 -1.419 -1.499 -0.48 -0.48 1.5zm20.338 46.153l0 3.737 1.53 0 0 -21.487c-0.33,-1.739 -0.67,-3.468 -1.02,-5.197l-0.51 1.569 0 21.388 0 -0.01zm-15.641 -61.224l0.47 -1.52c-0.589,0.16 -1.199,0.31 -1.818,0.46l-0.19 0.61 1.529 0.45 0.009 0zm-20.478 3.458l-0.45 1.529 1.109 0.34 -0.789 3.088 -1.249 -0.369 -0.48 1.528 1.359 0.4 -0.77 3.538 -0.139 0.06 0.139 -0.45 -1.529 -0.48 -0.449 1.529 1.529 0.48 -0.94 3.058 -1.529 -0.48 -0.48 1.529 -1.049 -0.309 -1.959 4.927 -0.03 19.238 1.529 0 0.03 -18.948 1.899 -4.758 0.82 0.26c-0.03,4.817 -0.14,9.605 -0.23,14.422l-0.03 0 0 6.376 1.529 0 0 1.589 -1.529 0 0 14.332 1.529 0 0 3.168 -1.529 0 0 6.376 1.529 0 0 3.198 -1.529 0 0 7.965 4.587 0.001 0 -1.589 -1.529 0 0 -4.788 1.529 0 0 -1.589 3.059 0 0 -1.619 1.529 0 0 1.619 -1.529 0 0 6.376 -1.53 0.001 0 4.757 -1.529 0 0 -1.589 -1.529 0 0 3.198 -1.529 0 0 -1.619 -1.529 -0.001 0 6.377 4.587 0 0 3.198 1.529 0 0 1.589 -1.529 0 0 3.168 -1.529 0 0 1.619 1.529 0 0 4.757 -1.529 0 0 3.199 -1.529 0 0 -3.199 -1.529 0 0 11.164 -0.989 0 0 1.589 1.558 0 0 -1.589 0.96 0 0 3.168 -1.529 0 0 1.589 -0.989 0 0 1.619 1.558 0 0 -1.619 2.489 0 0 -1.589 1.529 0 0 -3.168 -1.529 0 0 -3.198 1.529 0 0 -3.169 3.059 0 0 -3.198 1.529 0 0 3.198 -1.529 0 0 1.589 1.529 0 0 1.59 1.529 0 0 1.589 1.529 0 0 -11.134 -1.529 0 0 -1.589 1.529 0 0 -3.198 -1.529 0.001 0 -1.59 -1.529 0 0 -1.589 -1.529 0 0 -1.589 1.529 0 0 1.589 1.529 0 0 -4.787 -1.529 0 0 -1.59 3.058 0 0 -6.375 -4.587 0 0 -1.59 4.587 0 0 -6.375 -1.529 0 0 -1.59 1.529 0 0 -19.118 -1.529 0 0 -1.589 1.529 0 0 -11.844c0.06,-6.316 0.11,-12.632 0.17,-18.948 0.34,-1.19 0.71,-2.379 1.049,-3.569l0.48 -0.169 0.959 0.279 0.45 -1.499 -1.529 -0.479 0.77 -2.469 -1.869 0.65c0.11,-0.43 0.23,-0.88 0.34,-1.3l1.958 -0.709 -0.259 0.819 1.529 0.45 0.48 -1.499 -1.53 -0.45 0.94 -3.028 1.529 0.48 0.48 -1.5 -1.529 -0.48 -0.26 0.79 -2.209 0.79 0.37 -1.33 2.269 -0.789 0.639 -2.049c-2.829,0.5 -6.037,0.93 -9.654,1.289l-0.78 0.28c0.02,-0.07 0.04,-0.14 0.07,-0.21 -0.45,0.04 -0.9,0.09 -1.37,0.13 -0.089,0 -0.19,0.02 -0.289,0.03l-0.68 2.208 -1.08 -0.309 0.011 -0.019zm-0.62 103.379l-1.529 0 0 -1.589 1.529 0 0 1.589zm6.117 -7.966l0 1.589 -1.53 0 0 -1.589 -1.529 0 0 -1.589 1.529 0 0 1.589 1.53 0zm-1.53 -12.752l-1.529 0 0 -1.589 -1.529 0 0 -3.168 1.529 -0.001 0 3.169 1.529 0 0 1.589 0 0zm-3.287 -74.506l1.129 -0.4c-0.08,0.43 -0.17,0.88 -0.26,1.3l-1.159 0.399c0.08,-0.43 0.2,-0.879 0.28,-1.299l0.01 0zm-2.829 34.7l0 -1.62 1.529 0 0 1.62 -1.529 0zm3.058 20.677l-1.529 0 0 -1.589 1.529 0 0 1.589zm1.529 -4.757l-1.529 0 0 -1.589 1.529 0 0 1.589zm5.357 -58.276l1.33 -0.449c-0.14,0.429 -0.26,0.879 -0.37,1.329l-1.329 0.449c0.11,-0.429 0.259,-0.879 0.369,-1.329zm-0.14 5.187c-0.109,0.45 -0.23,0.879 -0.31,1.329l-1.329 0.45 0.31 -1.299 1.329 -0.48zm-2.718 -4.167l1.11 -0.4c-0.14,0.45 -0.26,0.91 -0.37,1.329l-1.11 0.4c0.11,-0.45 0.23,-0.88 0.37,-1.329zm-1.419 5.637l1.079 -0.4 -0.279 1.3 -1.08 0.399c0.09,-0.43 0.2,-0.879 0.28,-1.299zm-1.469 -4.618l1.129 -0.399c-0.08,0.279 -0.14,0.569 -0.23,0.849 -0.03,0.14 -0.09,0.31 -0.11,0.48l-1.129 0.399 0.34 -1.329zm16.42 -4.947l0.31 -0.96 0.17 -0.539 -1.029 -0.32c-0.2,0.04 -0.39,0.09 -0.59,0.13l-0.37 1.209 1.499 0.48 0.01 0zm-2.918 -1.329c-0.27,0.05 -0.54,0.1 -0.809,0.16l0.699 0.209 0.11 -0.36 0 -0.009zm-0.37 11.893l-0.449 1.479 1.499 0.479 0.969 -3.008 -1.529 -0.479 -0.49 1.529zm2.469 -2.549l-0.45 1.499 1.499 0.49 0.48 -1.539 -1.529 -0.45zm3.998 -2.068l-1.53 -0.48 -0.939 2.998 1.529 0.48 -0.48 1.499 8.835 -3.108c-0.19,-0.59 -0.379,-1.199 -0.579,-1.809l-7.546 2.648 0.71 -2.239 0 0.011zm-1.42 4.507l-1.529 -0.45 -0.939 2.998 1.529 0.48 -0.45 1.469 11.324 -3.988c-0.18,-0.599 -0.36,-1.209 -0.54,-1.818l-10.075 3.537 0.68 -2.238 0 0.01zm3.318 -10.544l-0.479 1.499 -1.529 -0.479 -0.94 3.028 1.529 0.48 -0.479 1.499 6.236 -2.199c-0.1,-0.28 -0.18,-0.55 -0.28,-0.829l-0.3 -0.98 -4.947 1.739 0.71 -2.239 3.688 -1.299 -0.56 -1.819 -2.419 0.85 0.68 -2.239 1.189 -0.42 -0.11 -0.37c-0.3,0.09 -0.6,0.171 -0.899,0.26l-0.15 0.51 -0.77 -0.24c-0.299,0.09 -0.609,0.17 -0.919,0.26l-0.78 2.498 1.529 0.48 0 0.01zm-55.758 31.592l0 -29.483c-0.5,0 -1.02,0 -1.529,0.01l0 29.462 1.529 0 0 0.011zm-3.058 0l0 -29.453c-0.5,0 -1.02,0 -1.53,0l0 29.442 1.53 0 0 0.011zm-3.059 0l0 -29.433c-0.509,0 -1.009,0 -1.529,0l0 29.433 1.529 0zm27.765 -27.285l0.889 -2.908c-0.559,0.03 -1.129,0.061 -1.699,0.09l-0.719 2.339 1.529 0.479zm7.505 -2.748l0.18 -0.59c-0.56,0.041 -1.129,0.08 -1.709,0.121l0 0c0,0 1.529,0.469 1.529,0.469l0 0zm-4.917 -0.25c-0.409,0.021 -0.809,0.05 -1.229,0.07l1.11 0.33 0.13 -0.4 -0.011 0zm7.976 1.19l0.549 -1.789c-0.56,0.049 -1.139,0.1 -1.719,0.14l-0.36 1.169 1.529 0.48 0.001 0zm-5.047 0.14c0.14,-0.51 0.31,-1.02 0.449,-1.529l-0.03 0c-0.549,0.029 -1.109,0.06 -1.669,0.099l-0.28 0.95 1.529 0.48 0.001 0zm26.575 -1.619l0.489 -1.499 -1.539 -0.48 -0.479 1.529 1.529 0.45zm-31.953 8.334l-1.529 -0.459 -0.479 1.539 1.529 0.45 0.479 -1.53zm11.334 64.682l1.529 0 0 -1.619 -1.529 0 0 1.619zm-10.284 -62.702l-1.529 -0.45 -0.94 3.058 1.529 0.45 0.46 -1.529 0.48 -1.529zm4.588 1.419l-0.94 3.058 1.529 0.45 0.94 -3.059 -1.529 -0.449zm-3.059 -0.94l-0.479 1.539 -0.46 1.529 1.529 0.45 0.939 -3.058 -1.529 -0.46zm3.398 -5.657l0.45 -1.538 0.49 -1.529 -1.539 -0.45 -0.93 3.057 1.529 0.46zm17.051 2.009l-0.93 3.029 1.529 0.479 0.94 -3.028 -1.539 -0.48zm-19.179 -6.006l-1.529 -0.46 -0.93 3.069 1.529 0.449 0.93 -3.058zm-2.894 4.16l0.455 -1.532 -1.534 -0.455 -0.454 1.533 1.533 0.454zm26.38 -6.509l0.06 -0.2 -1.529 -0.48 -0.939 3.029 1.509 0.45 0.899 -2.799zm2.159 3.768l0.93 -3.008 -1.53 -0.48 -0.929 2.999 1.529 0.489zm-21.048 0l0.45 -1.559 -1.53 -0.46 -0.449 1.53 1.529 0.489zm17.08 1.979l0.45 -1.419 -1.529 -0.48 -0.93 3.008 1.53 0.48 0.479 -1.589zm3.488 -0.48l1.529 0.48 0.48 -1.499 -1.529 -0.48 -0.48 1.499zm-4.447 3.568l1.529 0.48 0.45 -1.499 -1.499 -0.48 -0.48 1.499zm3.398 -5.556l-1.529 -0.48 -0.46 1.529 1.529 0.459 0.46 -1.508zm-0.46 1.508l-0.51 1.669 -0.449 1.36 1.529 0.479 0.939 -3.028 -1.509 -0.48z"/>
   </g>
  </g>
  <path fill="none" d="M69.622 5.532c-9.32,-0.113 -15.317,-0.1 -21.532,-0.475 -6.215,-0.375 -12.649,-1.137 -18.001,-2.044 -5.351,-0.908 -9.62,-1.96 -13.89,-3.013l-2.056 6.766c-2.101,6.05 -3.233,10.386 -4.916,16.285 -0.249,0.873 -0.435,1.453 -0.642,2.333 -2.36,10.025 -4.55,19.989 -6.162,30.214 -0.554,3.516 -0.787,7.435 -1.226,10.942l-0.435 5.757c-0.045,1.83 -0.234,3.899 -0.37,5.626 -0.078,0.987 0.009,2.192 -0.003,3.205 -0.013,1.158 -0.208,1.511 -0.203,2.794 0.009,2.038 0.069,4.202 0.011,6.226 -0.028,1.013 -0.181,1.575 -0.197,2.723l0.192 9.099c-0.03,8.303 0.172,15.985 0.183,24.267 0.002,1.267 0.207,1.666 0.202,2.996 -0.004,0.925 -0.065,2.104 0.005,3.001 0.131,1.645 0.218,4.048 0.519,5.469 1.056,4.985 5.703,6.849 10.073,7.859 3.312,0.766 6.714,1.111 10.138,1.576 4.01,0.545 19.376,0.399 23.493,-0.086 6.45,-0.761 15.507,-0.276 22.162,-1.971 7.272,-1.853 6.398,-2.822 7.435,-7.425 0.87,-3.869 2.219,-13.998 3.169,-16.919 0.807,-2.484 1.721,-7.868 2.195,-10.524 0.344,-1.99 1.133,-3.678 1.718,-5.612 1.344,-4.441 1.694,-7.626 2.92,-12.169 0.377,-1.398 0.722,-2.38 1.102,-3.854 0.997,-3.864 2.19,-8.249 2.968,-12.117 0.575,-2.856 1.095,-5.36 1.653,-8.289l2.191 -12.734c0.189,-0.998 0.23,-2.248 1.182,-2.596 0.952,0.348 0.993,1.598 1.182,2.596l2.191 12.734c0.558,2.929 1.077,5.433 1.652,8.289 0.779,3.868 1.972,8.253 2.968,12.117 0.38,1.474 0.725,2.456 1.103,3.854 1.226,4.543 1.576,7.728 2.919,12.169 0.585,1.934 1.375,3.622 1.719,5.612 0.473,2.654 1.389,8.042 2.195,10.524 0.949,2.921 2.299,13.05 3.169,16.919 1.037,4.603 0.163,5.572 7.434,7.425 6.656,1.695 15.712,1.21 22.163,1.971 4.117,0.485 19.483,0.631 23.492,0.086 3.425,-0.465 6.827,-0.81 10.138,-1.576 4.371,-1.01 9.018,-2.874 10.074,-7.859 0.301,-1.421 0.388,-3.824 0.519,-5.469 0.07,-0.897 0.009,-2.076 0.005,-3.001 -0.005,-1.33 0.2,-1.729 0.202,-2.996 0.011,-8.282 0.213,-15.964 0.183,-24.267l0.191 -8.764 -0.196 -3.058c-0.058,-2.024 0.002,-4.188 0.011,-6.226 0.004,-1.283 -0.19,-1.636 -0.204,-2.794 -0.011,-1.013 0.076,-2.218 -0.002,-3.205 -0.136,-1.727 -0.325,-3.796 -0.37,-5.626l-0.436 -5.757c-0.439,-3.507 -0.671,-7.426 -1.225,-10.942 -1.612,-10.225 -3.802,-20.189 -6.162,-30.214 -0.207,-0.88 -0.394,-1.46 -0.643,-2.333 -1.682,-5.899 -2.814,-10.235 -4.915,-16.285l-2.057 -6.766c-2.951,0.866 -5.902,1.731 -9.677,2.477 -3.774,0.745 -8.371,1.369 -13.806,1.869 -5.434,0.5 -11.706,0.875 -19.026,1.15 -7.321,0.274 -15.692,0.449 -26.199,0.418 -10.507,-0.031 -23.15,-0.269 -32.47,-0.382z"/>
 </g>
</svg>
