<?xml version="1.0" encoding="utf-8"?>
<!-- Generator: Adobe Illustrator 16.0.3, SVG Export Plug-In . SVG Version: 6.00 Build 0)  -->
<!DOCTYPE svg PUBLIC "-//W3C//DTD SVG 1.1//EN" "http://www.w3.org/Graphics/SVG/1.1/DTD/svg11.dtd">
<svg version="1.1"
	 id="Layer_1" shape-rendering="geometricPrecision" text-rendering="geometricPrecision" image-rendering="optimizeQuality" xmlns:xodm="http://www.corel.com/coreldraw/odm/2003"
	 xmlns="http://www.w3.org/2000/svg" xmlns:xlink="http://www.w3.org/1999/xlink" x="0px" y="0px" width="187px" height="148px"
	 viewBox="0 0 187 148" enable-background="new 0 0 187 148" xml:space="preserve">
<g>
	<path fill="#F00808" d="M125.228,110.5c-0.179,0.447-0.075,0.51-0.274,0.469c-0.256-0.053-0.527,0.017-0.746,0.148
		c-0.477,0.288-0.338,0.965-0.176,1.232c0.168,0.273,0.985,0.734,1.319,0.186c0.154-0.253,0.239-0.636,0.274-0.833
		c0.053-0.282,0.188-0.33,0.464-0.369C127.296,111.162,126.011,108.551,125.228,110.5z"/>
	<path fill="#F00808" d="M73.671,83.729c0.646-0.506,3.575-0.451,2.486-2.172c-0.006-0.01-1.603-1.102-1.816-1.955
		c-0.078,0.02-0.161,0.035-0.249,0.045c-1.364,0.158-1.393,0.609-1.269,2.384c0.125,1.774-1.736,1.502-2.407,2.026
		c-0.671,0.525-0.89,1.444-0.536,2.746c0.354,1.299,0.788,1.533,0.329,2.481c-0.242,0.498-0.849,0.815-1.523,0.897
		c-0.757,0.436-3.154-0.313-3.223,1.317c-0.13,3.056,4.403-0.276,4.438-0.28c2.481-0.305,1.419,0.313,3.26,0.562
		c0.676,0.091,1.361-0.343,1.794-2.015C76.383,84.249,69.321,87.143,73.671,83.729z"/>
	<path fill="#F00808" d="M77.626,95.592c0.374-0.338,0.398-1.087,0.036-1.388c-0.362-0.302-0.157-0.942-0.882-1.244
		c-1.234-0.514-2.201-0.052-1.581,1.533c0.218,0.556,0.145,0.761,0.592,1.11C76.237,95.954,77.251,95.93,77.626,95.592z"/>
	<path fill="#F00808" d="M78.899,110.951c-0.43-0.078-0.456,0.301-0.738,0.359c-0.282,0.058-0.16-0.264-0.385-0.463
		c-0.635-0.562-1.381,1.016-0.571,0.867c0.315-0.059,0.321-0.046,0.315,0.135c-0.007,0.179-0.11,0.197-0.142,0.48
		c-0.06,0.533,0.648,0.503,1.007,0.219c0.218-0.175,0.302-0.322,0.7-0.494c0.397-0.174,0.391-0.443,0.378-0.662
		C79.45,111.176,79.329,111.028,78.899,110.951z"/>
	<path fill="#F00808" d="M77.461,103.098c0.097,0.32,0.302,0.568,0.529,0.711c0.495,0.31,0.97-0.346,1.098-0.722
		c0.131-0.387,0.059-1.628-0.571-1.589c-0.291,0.018-0.648,0.209-0.828,0.314c-0.258,0.152-0.372,0.039-0.554-0.234
		c-0.801-1.201-2.22,2.148-0.206,1.564C77.392,103.01,77.385,102.846,77.461,103.098z"/>
	<path fill="#F00808" d="M68.358,96.688c-0.702,0.209-1.345,0.25-1.919,0.166c-1.184,0.271-2.049,0.646-1.51,1.412
		c0.417,0.593,4.833-1.01,4.751-0.039c-0.082,0.975-1.338,0.686-2.318,1.385c-1.079,0.77-0.522,1.38,0.384,1.803
		c3.238,1.514,2.094,0.313,2.093-0.914c-0.001-0.63,0.582-1.365,1.93-1.236c1.126,0.106,2.193,0.871,2.512-1.194
		C74.489,96.725,73.387,95.176,68.358,96.688z"/>
	<path fill="#F00808" d="M119.078,110.844c-0.867-0.021-2.321,0.26-2.17,0.738c0.152,0.477,0.543,0.336,0.479,0.792
		c-0.125,0.872,0.783,0.892,1.23,0.218c0.439-0.578,1.226-0.043,1.32-0.871C119.97,111.442,119.943,110.866,119.078,110.844z"/>
	<path fill="#F00808" d="M61.685,96.915c-0.221,0.062-0.485-0.057-0.772-0.179c-0.613-0.262-0.176-1.686,0.274-2.2
		c1.223-1.401,0.638-3.01-0.665-3.292c-0.9,0.395,0.277,1.091,0.255,1.619c-0.022,0.57-0.222,1.016-0.766,0.962
		c-1.556-0.154-2.74-0.363-1.226,1.897c0.192,0.287-1.558,1.564-1.689,2.01c-0.558,1.892,2.305,2.925,2.037-0.338
		c-0.162-1.973,1.532,1.82,2.539,1.82c0.665,0,0.826-0.305,0.965-0.715C63.394,96.273,62.942,96.564,61.685,96.915z"/>
	<path fill="#F00808" d="M60.815,104.352c-0.611,0-0.431,0.298-0.607-0.154c-0.107-0.275-0.008-0.878-0.638-0.686
		c-0.323,0.098-0.498,0.56-0.772,0.194c-0.196-0.261-0.716-0.147-0.976-0.062c-0.368,0.121-0.187,0.802-0.181,0.832
		c0.12,0.533-0.166,0.625,0.487,0.966c0.328,0.171,0.027,1.002,0.395,0.989c0.252-0.01,0.432,0.031,0.548-0.215
		c0.295-0.621-0.048-1.227,0.139-1.359c0.17-0.121,0.367,0.273,0.937,0.029c0.14-0.062,0.258,0.613,0.395,0.676
		C61.411,105.952,61.349,104.352,60.815,104.352z"/>
	<path fill="#F00808" d="M59.672,86.883c-0.419-0.419,0.756-2.076,1.234-0.841c0.378,0.978,2.19-0.44,0.577-2.136
		c-0.584-0.615-0.608-1.309-0.372-1.858c-0.163-1.026-1.16-1.698-1.415-0.2c-0.327,1.922,0.192,5.313-2.688,3.885
		c-1.673-0.832-1.664-0.311-1.61,1.609c0.016,0.557,1.27,0.935,2.486,1.407C59.605,88.766,61.876,89.087,59.672,86.883z"/>
	<path fill="#F00808" d="M57.714,114.273c-0.49-0.014-1.31,0.146-1.224,0.415c0.086,0.27,0.306,0.19,0.269,0.446
		c-0.07,0.492,0.443,0.504,0.694,0.123c0.248-0.326,0.692-0.023,0.745-0.492C58.216,114.61,58.201,114.285,57.714,114.273z"/>
	<path fill="#F00808" d="M71.167,115.697c-0.49-0.012-1.309,0.146-1.224,0.416c0.086,0.27,0.306,0.189,0.27,0.445
		c-0.071,0.492,0.442,0.504,0.693,0.123c0.249-0.325,0.692-0.023,0.745-0.49C71.669,116.034,71.654,115.709,71.167,115.697z"/>
	<path fill="#F00808" d="M64.305,111.309c-0.489-0.012-1.309,0.147-1.223,0.416c0.086,0.27,0.306,0.19,0.269,0.447
		c-0.07,0.492,0.442,0.504,0.693,0.123c0.249-0.326,0.692-0.023,0.746-0.492C64.809,111.646,64.792,111.321,64.305,111.309z"/>
	<path fill="#F00808" d="M72.959,105.745c-0.604-0.108-0.64,0.424-1.037,0.505s-0.226-0.369-0.541-0.65
		c-0.893-0.789-1.942,1.428-0.803,1.219c0.442-0.081,0.451-0.063,0.442,0.189c-0.009,0.252-0.154,0.279-0.199,0.676
		c-0.085,0.75,0.911,0.709,1.417,0.308c0.306-0.244,0.424-0.451,0.983-0.694c0.559-0.244,0.55-0.623,0.532-0.93
		S73.564,105.854,72.959,105.745z"/>
	<path fill="#F00808" d="M81.601,98.653c-0.195,0.487-0.081,0.556-0.299,0.511c-0.279-0.059-0.575,0.018-0.813,0.161
		c-0.52,0.313-0.368,1.052-0.191,1.343c0.182,0.299,1.073,0.803,1.438,0.202c0.167-0.274,0.259-0.692,0.299-0.907
		c0.057-0.308,0.205-0.359,0.505-0.402c0.131-0.019,0.235-0.064,0.315-0.129l0.18-0.84C82.852,97.916,82.124,97.352,81.601,98.653z"
		/>
	<path fill="#F00808" d="M103.884,92.898c0.192-0.432,0.096-1.588-0.843-1.732c-0.379-0.059-0.64-0.006-0.854,0.094
		c0.135,0.448,0.27,0.908,0.409,1.426c0.063,0.234,0.124,0.466,0.183,0.692C103.209,93.401,103.744,93.214,103.884,92.898z"/>
	<path fill="#F00808" d="M99.226,79.9c0.231,0.984,0.478,1.983,0.729,2.981c0.233-0.151,0.557-0.265,1-0.331
		C102.469,81.458,101.09,80.215,99.226,79.9z"/>
	<path fill="#F00808" d="M115.369,102.958c-0.64-0.108-0.676,0.384-0.84,0.056c-0.166-0.33,0.438-0.586,0.639-1.115
		c0.201-0.53-0.639-0.129-0.584-0.694c0.054-0.567,1.041-0.769,1.389-1.298c0.348-0.53-0.02-0.95-0.622-1.206
		c-0.603-0.255-1.224,0.274-1.644,0.713c-0.422,0.438-0.037,0.896-0.422,1.206c-0.383,0.311-0.676-0.292-1.352-0.109
		c-0.999,0.271-1.449,1.991-0.365,1.991c0.621,0,0.658,0.201,0.694,1.005c0.037,0.805,0.858,0.586,1.188,0.786
		c0.328,0.201,0.475,0.603,0.383,1.206s-0.273,0.73-0.018,1.133h1.602c0.162-0.135,0.265-0.373,0.152-0.858
		c-0.219-0.95-0.529-0.731-0.566-1.224c-0.036-0.494,1.005-0.586,1.152-0.822C116.302,103.488,116.009,103.068,115.369,102.958z"/>
	<path fill="#F00808" d="M105.289,101.529c-0.441-0.116,0.229-1.793-0.692-1.998c-0.192-0.043-0.347-0.105-0.47-0.186
		c0.322,1.496,0.666,3,1.144,4.672c0.373-0.309,1.397-0.993,1.403-1.015C107.209,101.225,105.793,101.661,105.289,101.529z"/>
	<path fill="#F00808" d="M119.83,91.618c-0.324-0.683,0.34-0.974-0.535-1.59c-0.877-0.617-1.43,0-1.575,0.421
		c-0.146,0.422,0.487,0.747,0.812,1.072c0.324,0.324-0.179,0.356-0.584,0.47c-0.406,0.114-0.908,0.455-1.137,0.405
		c-0.227-0.049,0.098-0.502,0.229-1.088c0.129-0.584-0.325-0.453-0.568-0.875c-0.244-0.422,0-0.812-0.292-1.152
		c-0.431-0.502-1.862-0.15-1.347,1.136c0.129,0.324,0.94-0.065,1.103,0.146s-0.259,0.391-0.259,0.828
		c0,0.438,0.21,0.373-0.066,0.812c-0.275,0.438,0.066,0.601,0.229,1.022s0.615,0.113,0.876-0.064c0.26-0.18,0.163,0.098,0.584,0.275
		c0.259,0.109,1.772,0.119,1.737-1.219c-0.006-0.197,0.969,0.049,0.703,1.159c-0.084,0.354-0.271,2.254-0.221,2.479
		c0.162,0.729,1.271,0.466,1.725,0.205c0.455-0.26-0.391-2.008-0.391-2.982C120.852,92.105,120.187,92.396,119.83,91.618z"/>
	<path fill="#F00808" d="M111.716,96.227c0.114-1.308-1.179-2.054-0.658-3.078c0.478-0.942,1.485-1.736,1.008-2.74
		c-0.483-1.018-2.819-0.264-3.354,0.342c-0.33,0.373-0.66,0.801-1.215,0.818c-1.6,0.054-1.514,3.283-0.217,3.027
		c2.107-0.414,1.135,1.426,2.412,2.28C110.346,97.314,111.649,97,111.716,96.227z"/>
	<path fill="#F00808" d="M105.807,96.784c0.499-1.44-1.186-1.328-1.698-0.824c-0.293,0.287-0.495,0.291-0.666,0.197
		c0.158,0.711,0.304,1.401,0.45,2.086c0.221-0.444,0.729-0.888,1.416-1.14C105.438,97.057,105.802,96.785,105.807,96.784z"/>
	<path fill="#F00808" d="M185.523,80.359c-0.008,1.254-0.489,2.236-2.187,1.707c-0.907-0.283-1.534-1.877-3.028-1.004
		c-0.767,0.449,0.125,2.537-0.705,3.896c0.26,0.259,0.299,0.795,0.299,1.247c0,1.301,0.273,1.188,1.908,1.104
		c0.74-0.039,1.262-1.152,0.57-2.012c-0.994-1.234,0.469-1.458,1.488-0.732c0.566,0.402,3.402-0.521,1.968-1.049
		c-0.166-0.061-0.784-0.272-0.91-0.24c-0.686-0.514,0.962-0.592,1.735-1.02c-0.025-0.25-0.047-0.525-0.051-0.875
		c-0.004-0.307,0.002-0.631,0.01-0.961C186.182,80.434,185.82,80.41,185.523,80.359z"/>
	<path fill="#F00808" d="M112.787,81.884c0.229-0.794,1.771,0.812,1.963-1.342c-0.736,0.16-1.771-0.146-2.269-0.125
		c-0.483,0.019-0.876-0.003-1.194-0.058c-0.008,1.254-0.49,2.236-2.187,1.707c-0.908-0.283-1.534-1.877-3.028-1.004
		c-0.767,0.449,0.125,2.537-0.705,3.896c0.26,0.259,0.299,0.795,0.299,1.247c0,1.301,0.273,1.188,1.908,1.104
		c0.739-0.039,1.262-1.152,0.57-2.012c-0.994-1.234,0.469-1.458,1.488-0.732c0.566,0.402,3.402-0.521,1.968-1.049
		c-0.166-0.061-0.784-0.272-0.91-0.24C109.843,82.639,112.561,82.671,112.787,81.884z"/>
	<path fill="#F00808" d="M83.628,95.842c0.08-0.356,0.163-0.719,0.251-1.088c-0.03,0.055-0.065,0.113-0.105,0.178
		C83.537,95.309,83.531,95.583,83.628,95.842z"/>
	<path fill="#F00808" d="M83.733,86.242c-0.764-2.361-5.147-3.15-3.387,1.729c0.464,1.285,0.062,1.762-0.559,2.146
		c0.012,0.232-0.003,0.543-0.036,0.957c-0.051,0.617-0.268,1.841,0.59,2.001c0.015,0.003,1.558,0.513,1.629,0.171
		c0.303-0.063,0.303-0.852,0.386-1.677c0.449,0.344,1.769-0.239,2.057,0.135c0.319,0.415-0.511,0.767-0.511,1.629
		c0,0.412,0.095,0.599,0.134,0.774c0.114-0.461,0.236-0.934,0.368-1.422c0.273-1.014,0.53-1.808,0.795-2.729
		c-0.003-0.031-0.007-0.063-0.011-0.092l0.038-0.005c0.092-0.321,0.185-0.66,0.28-1.029l0.157-0.604
		C84.941,88.211,84.191,87.657,83.733,86.242z"/>
	<path fill="#F00808" d="M103.883,76.949c1.006-0.479,3.91-0.855,5.716-0.067c1.905,0.832,2.41-0.054,1.479-1.709
		c-0.356-0.633-1.297-0.231-2.527-0.502c-0.588-0.129,0.3-0.755,0.566-1.417c0.488-1.211-1.099-1.547-1.313-1.547
		c-3.445,0-3.674-2.121-0.415-2.023c0.36,0.01,1.606-0.928-0.257-1.323c-5.553-1.175-1.27,3.012-4.747,1.96
		c-2.099-0.635-3.741-2.844-1.575-3.198c2.337-0.383,1.747,0.523,2.4-2.68c0.158-0.777,1.629-0.937,2.597-0.157
		c3.317,2.674,1.535-1.918,0.479-2.157c-0.148-0.031-1.875-1.253-2.933-1.472c-1.073-0.197-1.215,0.65-1.137,1.86
		c0.098,1.531,0.075,2.253-0.49,3.05c-0.698,0.987-2.038,1.753-2.763,0.33c-1.354-2.662-1.496-0.98-2.182-2.085
		c-0.822-1.324,1.1-1.89,2.164-1.89c3.651,0,0.93-5.413-0.904-1.465c-0.352,0.757-1.137,1.056-1.83,0.959
		c-0.229-0.031-0.422-0.101-0.58-0.198l0.763,4.429c0.358,0.293,0.619,0.691,0.619,1.584c0,0.658-0.015,1.178-0.063,1.599
		c0.131,0.678,0.258,1.335,0.387,1.981c1.248-0.407,2.488-0.571,3.666,0.089c1.033,0.58,3.17,4.314,1.347,5.145
		c-2.204,0-3.718-2.645-3.718,0.319C98.633,77.531,102.651,77.533,103.883,76.949z"/>
	<path fill="#F00808" d="M113.129,66.738c-0.87,0.324-1.317,0.945-1.62,1.663c-1.173,2.782-0.111,0.718,0.966,1.814
		c0.758,0.772,0.404,2.558,2.382,2.021c2.964-0.806-1.309-2.755-1.093-3.621C113.879,68.15,116.638,65.432,113.129,66.738z"/>
	<path fill="#F00808" d="M53.477,90.035c-0.816-0.139-0.862,0.49-1.072,0.07s0.559-0.745,0.815-1.422
		c0.257-0.676-0.815-0.162-0.745-0.885c0.07-0.722,1.328-0.978,1.77-1.654c0.443-0.676-0.023-1.211-0.792-1.537
		s-1.561,0.35-2.096,0.908c-0.536,0.56-0.047,1.142-0.536,1.537c-0.49,0.396-0.862-0.371-1.724-0.139
		c-1.275,0.344-1.848,2.539-0.466,2.539c0.792,0,0.839,0.256,0.885,1.281c0.047,1.025,1.095,0.746,1.515,1.002
		c0.419,0.256,0.605,0.769,0.489,1.537c-0.117,0.77-0.35,0.933-0.023,1.445c0.326,0.512,1.094,0.488,1.421,0.303
		c0.326-0.187,1.095-0.187,0.815-1.398c-0.279-1.211-0.676-0.932-0.722-1.561c-0.047-0.629,1.281-0.745,1.468-1.049
		C54.666,90.711,54.292,90.176,53.477,90.035z"/>
	<path fill="#F00808" d="M28.652,91.166c-0.939-0.145-1.155,0.385-1.709,0.65c-0.553,0.265-0.914-0.338-1.66-0.65
		c-1.672-0.701-2.989-0.016-2.286,1.997c0.361,1.035,1.299,1.084,2.045,1.155c0.746,0.072,1.564-0.721,1.877-1.082
		s0.674-0.241,1.059,0.023c0.385,0.264,1.323,0.072,1.516-0.361C29.686,92.467,29.59,91.311,28.652,91.166z"/>
	<path fill="#F00808" d="M26.024,109.461c-0.729-0.344-1.032,0.359-1.032,0.99c0,0.201-0.13,0.172-0.503,0.244
		c-0.373,0.07-0.1,0.574-0.244,0.76c-0.143,0.188-0.358-0.014-0.688-0.186c-0.33-0.174-0.704-0.016-1.048,0.301
		c-0.344,0.316-0.143,0.66,0.144,0.932c0.287,0.273,1.305,0.316,1.621,0.102c0.316-0.215,0.072-0.559,0.244-0.488
		c0.12,0.05,0.827-0.016,0.875-0.373c0.031-0.454,0.081-0.424,0.536-0.429C26.477,111.338,27.011,109.926,26.024,109.461z"/>
	<path fill="#F00808" d="M27.627,99.523c-0.867-0.022-2.322,0.26-2.169,0.738c0.151,0.477,0.542,0.336,0.477,0.791
		c-0.125,0.873,0.785,0.893,1.23,0.217c0.441-0.578,1.227-0.041,1.322-0.87C28.518,100.121,28.491,99.544,27.627,99.523z"/>
	<path fill="#F00808" d="M14.766,114.713c-0.49-0.013-1.31,0.146-1.224,0.416c0.086,0.269,0.306,0.189,0.269,0.446
		c-0.07,0.491,0.443,0.503,0.694,0.122c0.248-0.326,0.692-0.023,0.745-0.491C15.268,115.049,15.253,114.725,14.766,114.713z"/>
	<path fill="#F00808" d="M31.937,116.645c-0.489-0.014-1.309,0.146-1.223,0.416c0.085,0.269,0.305,0.188,0.269,0.445
		c-0.07,0.492,0.442,0.504,0.693,0.123c0.249-0.326,0.692-0.023,0.746-0.492C32.439,116.981,32.424,116.656,31.937,116.645z"/>
	<path fill="#F00808" d="M37.676,90.408c-0.484-1.018-2.82-0.264-3.355,0.342c-0.33,0.373-0.659,0.801-1.214,0.818
		c-1.6,0.054-1.514,3.283-0.217,3.027c2.107-0.414,1.134,1.426,2.412,2.28c0.654,0.438,1.958,0.124,2.025-0.649
		c0.113-1.308-1.179-2.054-0.659-3.078C37.146,92.206,38.154,91.412,37.676,90.408z"/>
	<path fill="#F00808" d="M40.36,80.542c-0.736,0.16-1.77-0.146-2.268-0.125c-0.483,0.019-0.876-0.003-1.194-0.058
		c-0.008,1.254-0.49,2.236-2.187,1.707c-0.908-0.283-1.534-1.877-3.028-1.004c-0.767,0.449,0.124,2.537-0.706,3.896
		c0.261,0.259,0.299,0.795,0.299,1.247c0,1.301,0.274,1.188,1.909,1.104c0.74-0.039,1.262-1.152,0.57-2.012
		c-0.994-1.234,0.469-1.458,1.488-0.732c0.566,0.402,3.402-0.521,1.968-1.049c-0.166-0.061-0.784-0.272-0.91-0.24
		c-0.848-0.637,1.87-0.604,2.097-1.392C38.626,81.09,40.169,82.695,40.36,80.542z"/>
	<path fill="#F00808" d="M35.409,105.665c-0.474-0.049-0.588,0.345-0.768,0c-0.18-0.343-0.033-0.54-0.099-0.834
		c-0.065-0.295,0.017-0.571-0.474-0.604c-0.491-0.033-1.292,0.131-1.227,0.687c0.066,0.556,0.409,0.458,0.115,0.72
		c-0.295,0.262-0.605-0.099-0.802,0.344c-0.196,0.441,0.066,0.752-0.278,0.867c-0.343,0.113-0.948-0.082-1.063,0.162
		c-0.114,0.246-0.196,0.541-0.082,0.934c0.115,0.392,0.148,0.654-0.147,0.752c-0.294,0.098-0.589,0.164-0.638,0.425
		c-0.203,1.086,0.985,0.888,1.162,0.679c0.179-0.212,0.024-0.752,0.155-0.965c0.131-0.212,0.343-0.146,0.523-0.441
		s-0.131-0.475,0.295-0.621c0.425-0.147,0.327,0.064,0.67-0.18c0.344-0.246,0.197-0.459,0.605-0.508
		c0.41-0.049,0.704,0.049,0.557,0.393s-0.246,0.736,0.032,0.884c0.278,0.146,0.802,0.278,1.015-0.065
		c0.212-0.344,0.506-0.441,0.261-0.736s-0.556-0.147-0.687-0.278c-0.13-0.132-0.179-0.425,0.049-0.441
		c0.229-0.017,0.704,0.49,0.933,0.327c0.229-0.164,0.392-0.229,0.441-0.589c0.049-0.36,0.049-0.589-0.032-0.654
		C35.843,105.854,35.884,105.715,35.409,105.665z"/>
	<path fill="#F00808" d="M13.745,107.91c0.979-0.938-0.154-1.83-0.74-1.557c-0.398,0.186-0.339,0.631-0.727,0.908
		c-0.387,0.277-0.74-0.022-0.86,0.551c-0.121,0.572-0.016,1.109-0.238,1.061c-0.222-0.049-0.532-0.556-0.848-0.82
		c-0.315-0.266-0.75-0.498-0.33-0.656c0.421-0.158,1.116-0.191,1.157-0.627c0.04-0.435-0.202-1.207-1.232-1.012
		c-1.03,0.194-0.556,0.725-1.12,1.2c-0.634,0.55-1.108,0.019-1.502,0.888c-0.394,0.867-0.468,1.182-0.168,1.598
		c0.299,0.415,0.558,0.689,0.999,0.105c0.135-0.182-0.028-0.639,0.04-0.988c0.213-1.096,1.181-0.922,1.096-0.748
		c-0.571,1.178,0.779,1.781,1.054,1.789c0.448,0.012,0.473-0.274,0.632-0.01s0.439,0.723,0.755,0.412
		c0.315-0.31,0.684-0.316,0.616-0.818c-0.069-0.502,0.093-0.358,0.27-0.75c0.178-0.389-0.126-0.719,0.104-0.842
		C12.933,107.473,13.498,108.147,13.745,107.91z"/>
	<path fill="#F00808" d="M16.286,102.6c-0.868-0.021-2.322,0.261-2.171,0.738c0.153,0.478,0.543,0.336,0.478,0.793
		c-0.125,0.871,0.785,0.891,1.23,0.217c0.441-0.58,1.227-0.043,1.322-0.871C17.177,103.198,17.149,102.621,16.286,102.6z"/>
	<path fill="#F00808" d="M17.691,93.78c-0.639-1.341,0.671-1.916-1.054-3.132c-1.725-1.213-2.811,0.002-3.099,0.832
		s0.958,1.47,1.597,2.108c0.639,0.64-0.351,0.703-1.15,0.927c-0.798,0.224-1.789,0.895-2.236,0.799
		c-0.447-0.096,0.191-0.99,0.447-2.141c0.256-1.15-0.639-0.895-1.118-1.726c-0.323-0.56-0.21-1.091-0.279-1.583
		c0.472-0.051,0.903-0.262,0.966-0.783c0.047-0.389,0.041-0.668,0.016-0.931c-0.854,0.274-1.87-0.156-2.437-1.909
		c-0.764-2.361-5.147-3.15-3.387,1.729c0.464,1.285,0.063,1.762-0.559,2.146c0.012,0.232-0.003,0.543-0.036,0.957
		c-0.051,0.617-0.268,1.841,0.59,2.001c0.015,0.003,1.558,0.513,1.629,0.171c0.303-0.063,0.303-0.852,0.386-1.677
		c0.449,0.344,1.769-0.239,2.057,0.135c0.319,0.415-0.511,0.767-0.511,1.629c0,0.863,0.415,0.735-0.128,1.599
		c-0.543,0.861,0.128,1.182,0.447,2.012c0.32,0.831,1.214,0.224,1.725-0.127c0.512-0.353,0.32,0.191,1.15,0.543
		c0.51,0.216,3.487,0.232,3.419-2.399c-0.01-0.39,1.908,0.095,1.387,2.282c-0.166,0.697-0.847,1.398-0.748,1.842
		c0.319,1.438,1.022,1.15,1.917,0.639c0.894-0.511,1.022-1.149,1.022-3.066S18.394,95.314,17.691,93.78z"/>
	<path fill="#F00808" d="M127.604,99.403c-0.25-0.525-1.458-0.136-1.733,0.177c-0.17,0.191-0.342,0.413-0.627,0.423
		c-0.828,0.027-0.783,1.697-0.113,1.565c1.09-0.215,0.587,0.736,1.246,1.178c0.339,0.227,1.013,0.064,1.048-0.336
		c0.058-0.675-0.61-1.061-0.341-1.591C127.33,100.332,127.852,99.922,127.604,99.403z"/>
	<path fill="#F00808" d="M22.657,86.002c0.375,0.549,2.534,2.639,2.539-0.053c0.002-1.426-0.935-3.053,1.37-3.398
		c1.879-1.357-0.704-2.947-3.134-2.701c-2.705,0.274-1.759,0.974-2.059,2.893c-0.158,1.012-0.595,1.859-1.799,2.273
		c-1.109,0.383-3.373,1.26-1.841,2.678c0.486,0.449,2.462,0.669,2.876-0.191C20.859,86.984,22.078,85.156,22.657,86.002z"/>
	<path fill="#F00808" d="M7.346,100.87c0.167-0.274,0.259-0.692,0.299-0.907c0.057-0.308,0.205-0.359,0.505-0.402
		c1.315-0.187-0.086-3.032-0.939-0.907c-0.195,0.487-0.081,0.556-0.299,0.511c-0.279-0.059-0.575,0.018-0.813,0.161
		c-0.519,0.313-0.368,1.052-0.191,1.343C6.09,100.967,6.981,101.471,7.346,100.87z"/>
	<path fill="#F00808" d="M4.51,110.951c-0.43-0.078-0.456,0.301-0.738,0.359c-0.282,0.058-0.16-0.264-0.385-0.463
		c-0.635-0.562-1.381,1.016-0.571,0.867c0.315-0.059,0.321-0.046,0.315,0.135c-0.007,0.179-0.11,0.197-0.142,0.48
		c-0.06,0.533,0.648,0.503,1.008,0.219c0.217-0.175,0.301-0.322,0.699-0.494c0.397-0.174,0.391-0.443,0.378-0.662
		C5.061,111.176,4.939,111.028,4.51,110.951z"/>
	<path fill="#F00808" d="M50.991,110.5c-0.18,0.447-0.075,0.51-0.275,0.469c-0.256-0.053-0.527,0.017-0.745,0.148
		c-0.477,0.288-0.338,0.965-0.176,1.232c0.167,0.273,0.985,0.734,1.319,0.186c0.154-0.253,0.238-0.636,0.275-0.833
		c0.052-0.282,0.188-0.33,0.463-0.369C53.059,111.162,51.774,108.551,50.991,110.5z"/>
	<path fill="#F00808" d="M181.408,56.931c-1.873-1.05-2.334-2.954-3.704-1.225c-1.07,1.35,1.333,1.375,2.247,1.962
		c1.471,0.945,2.08,0.356,2.08,3.05c0,0.953,1.91,1.569,3.348,2.1c-0.229-2.346-0.449-4.737-0.801-6.967
		c-0.09-0.562-0.18-1.123-0.271-1.683c-0.048,0.076-0.076,0.159-0.076,0.245C184.23,55.874,184.854,58.862,181.408,56.931z"/>
	<path fill="#F00808" d="M38.739,66.738c-0.87,0.324-1.317,0.945-1.62,1.663c-1.172,2.782-0.11,0.718,0.966,1.814
		c0.758,0.772,0.405,2.558,2.382,2.021c2.964-0.806-1.309-2.755-1.093-3.621C39.489,68.15,42.248,65.432,38.739,66.738z"/>
	<path fill="#F00808" d="M46.051,99.942c0.509-1.003,2.806-1.918,2.297-2.987c-0.315-0.662-2.698,2.32-2.943,1.364
		c-0.347-1.351-0.682-1.814-0.903-1.563c-0.351,0.396,0.406,1.346-0.421,1.9c-1.119,0.402,1.148,0.527,0.955,1.729
		c-0.031,0.325-0.292,0.631-0.578,0.879c-0.571,0.5-1.345,1.342,0.231,1.018c0.556-0.115,1.195-0.497,1.384-0.21
		c0.228,0.344-0.226,1.854,0.344,2.235c0.696,0.465,2.084,0.131,2.155-0.692C48.693,102.223,45.497,101.032,46.051,99.942z"/>
	<path fill="#F00808" d="M186.036,69.866L185.9,68.07c-0.057,0.107-0.107,0.218-0.155,0.331
		C184.827,70.58,185.279,69.786,186.036,69.866z"/>
	<path fill="#F00808" d="M53.368,99.403c-0.25-0.525-1.458-0.136-1.734,0.177c-0.17,0.191-0.341,0.413-0.627,0.423
		c-0.828,0.027-0.783,1.697-0.113,1.565c1.09-0.215,0.587,0.736,1.247,1.178c0.338,0.227,1.012,0.064,1.047-0.336
		c0.058-0.675-0.61-1.061-0.341-1.591C53.094,100.332,53.615,99.922,53.368,99.403z"/>
	<path fill="#F00808" d="M35.98,4.289c0.081-0.016,0.136-0.065,0.189-0.119l-0.384-0.05C35.819,4.229,35.837,4.317,35.98,4.289z"/>
	<path fill="#F00808" d="M45.543,75.749c-0.01-0.063-0.016-0.131-0.016-0.202c0-2.295-0.586-0.724-2.369-0.785
		c-3.981-0.135-1.593,2.738-2.81,2.938c-1.562,0.255,0.015,1.043,0.622,1.433c0.224-0.194,0.481-0.348,0.716-0.335
		c1.627,0.094,0.178-2.143,1.427-2.097c1.032,0.038,0.868,1.628,2.371,1.137c0.254-0.083,0.534-0.746-0.112-1.183
		C45.058,76.441,44.934,75.941,45.543,75.749z"/>
	<path fill="#F00808" d="M0.212,86.794c0.012,1.216,0.019,2.435-0.015,3.607c-0.004,0.157-0.012,0.302-0.021,0.44
		c0.144-0.281,0.276-0.635,0.39-1.076C0.964,88.229,0.702,87.344,0.212,86.794z"/>
	<path fill="#F00808" d="M3.273,94.204c-0.362-0.302-0.157-0.942-0.881-1.244c-1.235-0.514-2.202-0.052-1.582,1.533
		c0.218,0.556,0.145,0.761,0.592,1.11c0.447,0.351,1.461,0.326,1.835-0.012S3.635,94.505,3.273,94.204z"/>
	<path fill="#F00808" d="M1.768,81.557c-0.004-0.007-0.847-0.584-1.39-1.227c0.008,0.361,0.015,0.716,0.011,1.051
		c-0.01,0.879-0.125,1.295-0.177,2.006C1.244,83.116,2.555,82.8,1.768,81.557z"/>
	<path fill="#F00808" d="M44.689,110.844c-0.868-0.021-2.322,0.26-2.17,0.738c0.152,0.477,0.543,0.336,0.478,0.792
		c-0.125,0.872,0.785,0.892,1.23,0.218c0.44-0.578,1.227-0.043,1.321-0.871C45.58,111.442,45.553,110.866,44.689,110.844z"/>
	<path fill="#F00808" d="M42.909,93.436c0.259,0.109,1.771,0.119,1.736-1.219c-0.005-0.197,0.97,0.049,0.705,1.159
		c-0.085,0.354-0.43,0.71-0.38,0.937c0.162,0.729,0.519,0.584,0.973,0.324c0.455-0.26,0.52-0.584,0.52-1.559
		c0-0.973-0.666-0.682-1.023-1.46c-0.324-0.683,0.341-0.974-0.535-1.59c-0.877-0.617-1.429,0-1.575,0.421
		c-0.146,0.422,0.487,0.747,0.812,1.072c0.325,0.324-0.179,0.356-0.584,0.47c-0.406,0.114-0.909,0.455-1.136,0.405
		c-0.228-0.049,0.097-0.502,0.227-1.088c0.13-0.584-0.325-0.453-0.568-0.875c-0.244-0.422,0-0.812-0.292-1.152
		c-0.431-0.502-1.862-0.15-1.347,1.136c0.13,0.324,0.941-0.065,1.103,0.146c0.162,0.211-0.259,0.391-0.259,0.828
		c0,0.438,0.211,0.373-0.065,0.812s0.065,0.601,0.227,1.022s0.617,0.113,0.876-0.064C42.584,92.98,42.487,93.258,42.909,93.436z"/>
	<path fill="#F00808" d="M127.714,90.035c-0.816-0.139-0.862,0.49-1.072,0.07s0.56-0.745,0.815-1.422
		c0.257-0.676-0.815-0.162-0.745-0.885c0.069-0.722,1.327-0.978,1.77-1.654c0.443-0.676-0.022-1.211-0.792-1.537
		c-0.769-0.326-1.561,0.35-2.096,0.908c-0.536,0.56-0.047,1.142-0.536,1.537c-0.489,0.396-0.862-0.371-1.724-0.139
		c-1.275,0.344-1.848,2.539-0.467,2.539c0.793,0,0.84,0.256,0.885,1.281c0.048,1.025,1.096,0.746,1.516,1.002
		c0.419,0.256,0.605,0.769,0.489,1.537c-0.117,0.77-0.351,0.933-0.022,1.445c0.325,0.512,1.094,0.488,1.42,0.303
		c0.326-0.187,1.096-0.187,0.815-1.398c-0.278-1.211-0.677-0.932-0.722-1.561c-0.047-0.629,1.281-0.745,1.468-1.049
		C128.902,90.711,128.529,90.176,127.714,90.035z"/>
	<path fill="#F00808" d="M162.068,84.258c1.31,2.176,4.523,0.528,3.617-0.326c-1.988-1.058-1.94-2.937,0.329-3.274
		c0.198-0.029,1.036-0.316,1.819-0.616c0.686-0.263,2.775-1.314,1.039-2.07c-1.314-0.574-4.695,0.911-4.695-0.668
		c0-1.066,1.62-2.49-0.205-2.414c-0.838,0.035-0.769,2.357-1.57,3.637c-1.125,1.793-3.176-0.135-3.313-1.303
		c-0.171-1.455,1.456-3.008,1.315-4.777c-0.153-1.924,2.302-2.64,3.631-1.231c3.307,3.506,7.556-2.36,11.205-0.315
		c1.033,0.58,3.17,4.314,1.347,5.145c-2.204,0-3.717-2.645-3.717,0.319c0,1.167,4.018,1.169,5.249,0.585
		c1.006-0.479,3.91-0.855,5.716-0.067c1.906,0.832,2.41-0.054,1.479-1.709c-0.356-0.633-1.297-0.231-2.527-0.502
		c-0.587-0.129,0.3-0.755,0.566-1.417c0.488-1.211-1.099-1.547-1.313-1.547c-3.445,0-3.674-2.121-0.415-2.023
		c0.36,0.01,1.606-0.928-0.257-1.323c-5.553-1.175-1.268,3.012-4.747,1.96c-2.099-0.635-3.741-2.844-1.575-3.198
		c2.337-0.383,1.747,0.523,2.4-2.68c0.158-0.777,1.629-0.937,2.597-0.157c3.317,2.674,1.535-1.918,0.479-2.157
		c-0.148-0.031-1.875-1.253-2.933-1.472c-1.073-0.197-1.215,0.65-1.137,1.86c0.098,1.531,0.075,2.253-0.49,3.05
		c-0.698,0.987-2.038,1.753-2.762,0.33c-1.355-2.662-1.497-0.98-2.183-2.085c-0.822-1.324,1.1-1.89,2.164-1.89
		c3.651,0,0.93-5.413-0.904-1.465c-0.352,0.757-1.137,1.056-1.83,0.959c-1.641-0.227-1.326-2.377-0.922-2.674
		c0.219-0.159,0.5-0.074,0.354-1.846c-0.122-1.46,1.275-2.87,2.757-2.98c2.452-0.181,1.28,1.547,3.003,1.195
		c0.299-0.06,0.316-1.746,0.65-1.857c0.578-1.893,3.482,0.478,3.961-1.327c0.275-1.043,1.9-1.122,3.533-0.829
		c-0.35-1.995-0.721-3.982-1.107-5.963c-0.091,0.013-0.186,0.02-0.287,0.02c-0.939,0-2.123-0.939-1.92-1.96
		c0.182-0.907,0.461-1.459,1.492-1.629l-0.195-0.948c-0.063,0.055-0.129,0.109-0.199,0.165c-1.146,0.909-3.398,1.004-3.207-0.694
		c0.104-0.899,0.43-0.96,0.451-1.532c0.02-0.572,0-0.612-1.002-0.429c-2.578,0.474-0.203-4.547,1.818-2.757
		c0.714,0.633,0.326,1.655,1.225,1.471c0.037-0.008,0.07-0.017,0.104-0.027c-0.272-1.253-0.55-2.505-0.831-3.757
		c-0.38-0.206-0.673-0.478-1.657-0.232c-1.47,0.368-1.339,1.319-3.176,2.503c-1.519,0.979-3.769-1.094-2.161-3.469
		c0.781-1.153,3.325-3.045,4.611-1.758c0.42,0.419,0.802,0.283,1.711-0.002c-0.342-1.488-0.688-2.975-1.039-4.463
		c-0.188-0.794-0.357-1.344-0.571-2.084c-0.409-0.118-0.651-0.346-0.872-0.188c-0.423,0.301,0.354,1.671-0.313,3.077
		c-0.265,0.558-0.671,0.467-1.242,0.487c-0.833,0.028-0.151-1.852-0.894-2.239c-1.479-0.77-0.83-0.981-1.102-2.184
		c0.016,0.07-0.424-1.612,0.408-1.887c0.589-0.195,1.766-0.45,2.209,0.14c0.383,0.509,0.681,0.31,1.021,0.029
		c-0.531-1.884-1.024-3.643-1.539-5.407c-0.32-0.029-0.61-0.131-0.715-0.341c-0.287-0.569,0.61-1.387-0.048-1.463
		c-0.397-0.046-0.508-1.201-0.662-1.371c0-0.215,0.105-0.434,0.283-0.59c-0.334-1.061-0.69-2.156-1.08-3.308
		c-0.269,0.031-0.514-0.073-0.479-0.383c0.029-0.26,0.125-0.278,0.131-0.443c0.006-0.166,0-0.178-0.29-0.125
		c-0.537,0.099-0.332-0.624,0.042-0.847l-1.902-6.257c-2.951,0.866-5.902,1.731-9.677,2.477c-3.774,0.745-8.371,1.369-13.806,1.869
		c-5.311,0.489-11.42,0.857-18.527,1.131c0.091,0.189,0.164,0.396,0.144,0.64c-0.034,0.4-0.708,0.563-1.046,0.336
		c-0.369-0.246-0.375-0.652-0.498-0.924c-3.154,0.113-6.506,0.208-10.141,0.275c-0.075,0.036-0.153,0.039-0.209,0.004
		c-4.498,0.082-9.428,0.122-14.948,0.106c-6.368-0.019-13.521-0.114-20.242-0.211c0.344,0.09,0.354,0.378,0.336,0.529
		c-0.06,0.526-0.559,0.186-0.839,0.553c-0.282,0.428-0.86,0.416-0.78-0.138c0.041-0.289-0.207-0.2-0.303-0.503
		C80.188,6.161,80.732,6,81.236,5.947c-4.147-0.059-8.115-0.12-11.614-0.162C63.464,5.71,58.757,5.69,54.479,5.578
		c0.119,0.231,0.246,0.481,0.219,0.792c-0.034,0.4-0.708,0.563-1.046,0.336c-0.523-0.349-0.317-1.017-0.748-1.175l-0.433-0.015
		l-0.066,0.012c-0.078,0.015-0.147,0.006-0.208-0.021c-1.383-0.051-2.74-0.115-4.107-0.197c-1.624-0.098-3.263-0.222-4.894-0.369
		l-0.003,0.014c-0.229,1.178,0.375-0.036,0.298,0.649c-0.034,0.297-0.315,0.105-0.473,0.312c-0.159,0.241-0.484,0.234-0.44-0.078
		c0.024-0.163,0.072-0.523,0.017-0.693c-0.004-0.077,0.018-0.163,0.06-0.253c-1.898-0.177-3.781-0.383-5.613-0.611
		c0.006,0.024,0.01,0.05,0.012,0.077c0.01,0.18,0.015,0.402-0.313,0.545s-0.397,0.265-0.576,0.407
		c-0.297,0.236-0.881,0.261-0.831-0.18c0.026-0.232,0.111-0.248,0.116-0.396c0.006-0.148,0-0.159-0.259-0.112
		c-0.387,0.072-0.343-0.336-0.136-0.6c-1.727-0.236-3.393-0.49-4.966-0.756c-5.351-0.908-9.62-1.96-13.89-3.013l-2.056,6.766
		c-1.738,5.005-2.814,8.838-4.086,13.353c0.148-0.108,0.332-0.213,0.575-0.321c0.761-0.34,1.292,0.202,1.62,0.18
		c0.329-0.021,0.345-0.703,1.016-1.16c0.67-0.458,1.453-0.159,1.612,0.057c0.159,0.216,0.692,0.799-0.033,1.363
		s-1.07,0.34-1.544,0.66c-0.473,0.32,0.231,0.974-0.298,1.401c-0.528,0.427-1.045,0.4-1.448,0.241
		c-0.402-0.159-0.892-0.703-1.439-0.254c-0.548,0.449-0.339,1.095-0.917,1.092L9.134,23.63c-0.204,0.702-0.369,1.241-0.549,2.007
		C7.72,29.308,6.879,32.971,6.08,36.642c0.577,0.65,0.605,1.946,0.149,2.452C5.9,39.46,5.626,39.708,5.39,39.869
		c-0.699,3.333-1.359,6.675-1.963,10.039c0.395-0.226,0.893,0.116,1.371-0.308c0.628-0.559-0.105-0.349-0.245-1.536
		c-0.139-1.187,1.571-1.536,2.618-1.466c1.047,0.07,0.873,0.663,1.012,1.291c0.14,0.629-0.174,1.048,0.21,1.781s0.628-0.105,1.64,0
		c1.013,0.104,0.925,0.401,1.1,0.541c0.174,0.14,0.174,0.628,0.069,1.396c-0.104,0.768-0.453,0.907-0.942,1.256
		c-0.488,0.349-1.501-0.732-1.989-0.698c-0.489,0.035-0.384,0.664-0.105,0.943s0.942-0.035,1.466,0.593
		c0.523,0.629-0.105,0.838-0.559,1.571c-0.453,0.733-1.57,0.454-2.164,0.14c-0.593-0.314-0.384-1.152-0.07-1.885
		s-0.314-0.943-1.186-0.838c-0.873,0.105-0.559,0.559-1.292,1.082c-0.733,0.524-0.524,0.07-1.431,0.384
		c-0.103,0.036-0.186,0.072-0.252,0.11c-0.087,0.528-0.172,1.057-0.255,1.586c-0.189,1.2-0.341,2.448-0.476,3.71
		c0.616-0.1,0.84-0.114,0.84-0.527c0-1.533,0.737-3.244,2.513-2.408c2.4,1.129,1.101,4.563-0.232,4.507
		c-1.108,0.01-1.229-0.063-1.305,1.042c-0.115,0.869-1.835,1.03-2.128,0.908L1.598,63.07c-0.085,0.866-0.17,1.726-0.264,2.568
		c0.199-0.135,0.417-0.241,0.651-0.304c1.291-0.349,1.85,0.803,2.583,0.21c0.733-0.594,0-1.466,0.803-2.304
		c0.803-0.838,1.989-1.85,3.141-1.361c1.152,0.488,1.85,1.291,1.187,2.303c-0.664,1.013-2.548,1.397-2.653,2.479
		s1.501,0.314,1.117,1.326c-0.384,1.012-1.536,1.501-1.221,2.129c0.314,0.629,0.383-0.314,1.605-0.105
		c1.222,0.21,1.78,1.013,1.501,1.467c-0.279,0.453-2.269,0.628-2.199,1.57c0.07,0.943,0.663,0.524,1.083,2.339
		c0.418,1.815-0.734,1.815-1.222,2.094c-0.489,0.279-1.641,0.314-2.129-0.453c-0.489-0.769-0.14-1.012,0.034-2.164
		c0.175-1.152-0.104-1.92-0.733-2.304c-0.628-0.383-2.199,0.035-2.269-1.5c-0.069-1.536-0.139-1.92-1.326-1.92
		c-0.095,0-0.183-0.007-0.266-0.02L0.762,72.55c-0.027,1.12-0.109,2.33-0.199,3.496c0.352,0.472,0.164,1.095,1.101,1.597
		c1.34,0.717,3.21,0.945,3.551,1.306c2.806,2.958,8.536-1.649,8.227,5.31c1.309,2.176,4.524,0.528,3.617-0.326
		c-1.988-1.058-1.94-2.937,0.331-3.274c0.197-0.029,1.035-0.316,1.818-0.616c0.686-0.263,2.775-1.314,1.039-2.07
		c-1.314-0.574-4.694,0.911-4.694-0.668c0-1.066,1.619-2.49-0.205-2.414c-0.838,0.035-0.769,2.357-1.572,3.637
		c-1.125,1.793-3.176-0.135-3.313-1.303c-0.171-1.455,1.456-3.008,1.315-4.777c-0.153-1.924,2.303-2.64,3.631-1.231
		c3.307,3.506,7.556-2.36,11.205-0.315c1.034,0.58,3.17,4.314,1.347,5.145c-2.204,0-3.717-2.645-3.717,0.319
		c0,1.167,4.019,1.169,5.249,0.585c1.007-0.479,3.911-0.855,5.716-0.067c1.906,0.832,2.41-0.054,1.479-1.709
		c-0.356-0.633-1.296-0.231-2.527-0.502c-0.587-0.129,0.299-0.755,0.567-1.417c0.488-1.211-1.099-1.547-1.313-1.547
		c-3.445,0-3.674-2.121-0.414-2.023c0.36,0.01,1.607-0.928-0.258-1.323c-5.553-1.175-1.269,3.012-4.746,1.96
		c-2.099-0.635-3.742-2.844-1.576-3.198c2.337-0.383,1.747,0.523,2.4-2.68c0.158-0.777,1.629-0.937,2.597-0.157
		c3.317,2.674,1.535-1.918,0.48-2.157c-0.149-0.031-1.876-1.253-2.933-1.472c-1.072-0.197-1.214,0.65-1.137,1.86
		c0.098,1.531,0.075,2.253-0.49,3.05c-0.698,0.987-2.038,1.753-2.762,0.33c-1.355-2.662-1.496-0.98-2.183-2.085
		c-0.822-1.324,1.1-1.89,2.165-1.89c3.651,0,0.93-5.413-0.904-1.465c-0.352,0.757-1.137,1.056-1.831,0.959
		c-1.64-0.227-1.326-2.377-0.921-2.674c0.218-0.159,0.5-0.074,0.353-1.846c-0.122-1.46,1.276-2.87,2.757-2.98
		c2.452-0.181,1.28,1.547,3.002,1.195c0.299-0.06,0.317-1.746,0.651-1.857c0.578-1.893,3.482,0.478,3.961-1.327
		c0.358-1.351,2.976-1.085,4.944-0.489c0.729,0.221,2.179,1.14,2.735,0.223c0.273-0.45,0.096-1.162,0.96-1.766
		c0.757-0.529,1.899-0.486,2.403,0.102c0.629,0.733,0.105,1.571,0.629,2.479c0.523,0.907,1.5,0.628,1.221,1.884
		c-0.279,1.257-0.977,2.234-0.489,2.339c0.489,0.105,1.571-0.628,2.444-0.873c2.032-0.569,0.521,4.026-1.782,4.413
		c-0.559,0.384-2.407-0.852-2.756-1.76c-0.349-0.908-1.082-1.257-0.488-2.199c0.593-0.942,0.139-0.803,0.139-1.745
		c0-0.943,0.908-1.327,0.559-1.78c-0.529-0.688-1.595-0.137-1.876,1.057c-0.118,0.505,1.675,3.029-0.418,3.455
		c-1.726,0.352-3.115-0.773-2.374-2.675c0.582-1.494-1.872-0.994-1.872-0.179c0,1.461,0.624,4.449-2.823,2.518
		c-1.873-1.05-2.333-2.954-3.703-1.225c-1.071,1.35,1.332,1.375,2.246,1.962c1.472,0.945,2.081,0.356,2.081,3.05
		c0,1.2,3.03,1.865,4.329,2.502c3.917,1.919-4.148-5.593,2.6-3.24c3.006,1.047,0.12,7.088,4.36,2.848
		c4.086-4.087,1.678,6.975-1.471,3.466c-0.697-0.776-2.268,0.045-0.707,1.391c0.306,0.263,0.011,0.575-0.091,0.893
		c-0.513,1.591,0.573,1.469,1.24,0.973c0.588-0.438,0.735-1.172,0.789-1.215c1.479-1.192,2.643,0.896,1.753,1.648
		c-0.756,0.639,0.614,2.519,1.742,0.708c0.49-0.787,4.364,0.047,2.928-3.804c-0.105-0.282-0.642-2.057-0.558-2.27
		c0.357-0.898-0.225-1.642,1.152-2.49c1.012-0.624,1.244-0.793,2.181,0.048c1.568,1.407-0.863,5.284,3.072,3.742
		c2.766-1.083,5.83,1.784,4.31,3.081c-0.633,0.54-1.722,1.726-1.225,2.727c1.093,2.201,1.914,2.478,1.39,3.656
		c-0.508,1.142-3.015,0.284-3.295-0.088c-1.145-1.518-0.553-2.62-1.241-4.188c-0.401-0.913-0.891-0.186-1.841-0.061
		c-0.848,0.112-0.795,3.396-3.313,3.921c-2.699,0.563-2.715-2.692-4.273-1.474c-0.282,0.221-0.339,0.805,0.067,1.716
		c0.123,0.819,0.026,1.867-0.725,2.992c-0.587,0.878,0.94,1.47,0.776,2.116c-0.139,0.546-1.288,2.273-1.57,1.734
		c-0.272-0.52-0.05-0.816-0.149-1.262s0.025-0.867-0.718-0.916c-0.742-0.05-1.955,0.198-1.856,1.039
		c0.099,0.842,0.619,0.693,0.173,1.089c-0.445,0.397-0.915-0.147-1.213,0.521c-0.296,0.668,0.099,1.139-0.42,1.312
		c-0.52,0.173-1.436-0.124-1.609,0.248c-0.174,0.371-0.297,0.815-0.124,1.411c0.173,0.594,0.223,0.99-0.223,1.138
		c-0.445,0.149-0.891,0.248-0.965,0.644c-0.308,1.644,1.49,1.344,1.757,1.027c0.272-0.32,0.037-1.139,0.235-1.46
		c0.198-0.321,0.52-0.223,0.792-0.669c0.273-0.445-0.198-0.717,0.446-0.939s0.495,0.099,1.015-0.273
		c0.52-0.371,0.297-0.691,0.916-0.768c0.619-0.073,1.064,0.076,0.841,0.595c-0.222,0.521-0.371,1.114,0.05,1.337
		c0.421,0.223,1.213,0.421,1.535-0.1c0.131-0.211,0.283-0.361,0.391-0.495v-0.623c-0.37-0.439-0.838-0.22-1.035-0.416
		c-0.198-0.198-0.272-0.644,0.074-0.668c0.381-0.027,0.702-0.091,0.961-0.179v0.582c0.522-0.272,1.23-0.443,2.177-0.443
		c0.809,0,0.952-0.225,0.908-1.021c-0.108-1.918-1.72-4.527,1.994-4.009c0.871,0.121,2.575,1.861,2.998,2.779
		c0.698,1.518,3.727-1.009-0.319-4.05c-0.274-0.207-0.913-2.029,1.448-1.549c1.328,0.271,0.894,1.806,4.525,1.519
		c1.377-0.108,2.348-0.117,2.953,1.514c0.23,0.619,0.22,2.024-0.175,2.806c0.366,1.17-0.252,2.963,1.388,2.963
		c0.512,0,1.117,0.09,1.22,0.598c0.466,2.284-2.094,1.036-1.741,2.77c0.048,0.234,1.87,1.84,2.104-0.254
		c0.24-2.143,0.978-1.74,0.933-2.832c-0.045-1.093-2.355-1.029-2.736-1.513s0.153-1.481,1.529-1.884
		c1.376-0.404,1.582,0.67,1.859-0.094c0.278-0.765-1.111-1.172-1.688-2.284c-0.576-1.112,1.372-0.443,1.107-1.673
		c-0.264-1.229-2.481-1.42-3.378-2.494c-0.897-1.075-0.202-2.091,1.057-2.805c1.259-0.716,2.757,0.29,3.791,1.145
		c1.034,0.856,0.308,1.956,1.229,2.541c0.922,0.584,1.396-0.678,2.941-0.585c3.356,0.2,1.666,1.417,3.269,2.274
		c1.34,0.717,3.21,0.945,3.551,1.306c2.272,2.396,6.459-0.167,7.808,2.461c0.225-0.917,0.441-1.828,0.641-2.724
		c-1.144,1.51-3.069-0.334-3.201-1.463c-0.171-1.455,1.456-3.008,1.315-4.777c-0.146-1.84,2.092-2.575,3.45-1.403
		c0.168-0.847,0.337-1.712,0.51-2.618l0.057-0.332c-0.375,0.009-0.677-0.036-0.814-0.094c-0.908-0.384-0.699-0.978-1.257-0.593
		c-0.558,0.383-1.536,1.047-1.885,0.139c-0.349-0.907-1.082-1.257-0.489-2.199c0.594-0.942,0.14-0.803,0.14-1.745
		c0-0.943,0.908-1.327,0.558-1.78c-0.349-0.454-2.094,0.384-2.373-0.314c-1.106-2.766,1.971-3.524,2.897-2.444
		c0.628,0.733,0.105,1.571,0.628,2.478c0.524,0.908,1.501,0.629,1.222,1.885c-0.279,1.257-0.977,2.234-0.489,2.339
		c0.483,0.103,1.544-0.61,2.411-0.863l0.317-1.844c-0.528-0.447-0.966-0.925-0.773-1.482c0.171-0.494,0.602-1.113,1.262-1.359
		l0.619-3.597c-0.482,0.576-1.13,1.004-1.544,1.105c-0.715,0.175-0.628,0.663-1.466,0.89s-1.972,0.14-2.216-0.872
		c-0.245-1.012,0.104-1.257,0.104-1.257c0.245-0.803,0.891-0.471,1.501-1.134c0.611-0.663,0.611-1.501,1.519-1.693
		c0.691-0.146,1.947,0.122,2.485,0.79c0.065-0.276,0.15-0.536,0.277-0.757c-0.295-0.057-0.563-0.16-0.757-0.312
		c-0.646-0.507-0.541-0.803-0.855-1.606c-0.897-2.292,0.501-2.96,2.286-2.216c1.046,0.437,0.751,1.361,1.274,1.797
		c0.524,0.436,0.489,1.518-0.052,2.007c-0.137,0.124-0.334,0.219-0.561,0.283c0.338,0.549,0.396,1.358,0.528,2.046l0.537,3.124
		c0.024-0.03,0.048-0.055,0.071-0.073c0.219-0.159,0.5-0.074,0.354-1.846c-0.122-1.46,1.275-2.87,2.757-2.98
		c2.452-0.181,1.28,1.547,3.002,1.195c0.3-0.06,0.317-1.746,0.651-1.857c0.578-1.893,3.482,0.478,3.961-1.327
		c0.357-1.351,2.977-1.085,4.943-0.489c0.729,0.221,2.18,1.14,2.736,0.223c0.271-0.45,0.096-1.162,0.959-1.766
		c0.758-0.529,1.899-0.486,2.403,0.102c0.628,0.733,0.104,1.571,0.628,2.479c0.523,0.907,1.501,0.628,1.223,1.884
		c-0.279,1.257-0.978,2.234-0.49,2.339c1.103,0.236,3.836-0.118,3.464,0.987c-0.12,0.359-0.05,1.449-1.072,2.086
		c-1.489,0.93-3.804,0.477-4.485-1.293c-0.349-0.908-1.082-1.257-0.488-2.199s0.14-0.803,0.14-1.745c0-0.943,0.908-1.327,0.56-1.78
		c-0.529-0.688-1.596-0.137-1.877,1.057c-0.117,0.505,1.676,3.029-0.418,3.455c-1.726,0.352-3.115-0.773-2.373-2.675
		c0.58-1.494-1.873-0.994-1.873-0.179c0,1.461,0.625,4.449-2.822,2.518c-1.873-1.05-2.334-2.954-3.704-1.225
		c-1.07,1.35,1.333,1.375,2.247,1.962c1.471,0.945,2.08,0.356,2.08,3.05c0,1.2,3.031,1.865,4.33,2.502
		c3.916,1.919-4.148-5.593,2.6-3.24c3.006,1.047,0.12,7.088,4.359,2.848c1.727-1.726,2.755-0.715,2.723,0.501
		c-0.021,0.846-0.924,1.852-0.924,1.852c-0.669-0.007-1.547,3.031-3.27,1.113c-0.697-0.776-2.268,0.045-0.707,1.391
		c0.307,0.263,0.012,0.575-0.091,0.893c-0.513,1.591,0.573,1.469,1.24,0.973c0.588-0.438,0.735-1.172,0.789-1.215
		c1.05-0.847,1.942-0.039,2.051,0.771v0.323c-0.03,0.212-0.126,0.408-0.298,0.554c-0.826,0.698-0.053,0.81,0.298,1.278
		c0,1.578-0.389,1.783-1.233,3.054c-0.32-0.147-0.972,0.485-2.114,0.446c-3.981-0.135-1.593,2.738-2.81,2.938
		c-1.563,0.255,0.014,1.043,0.621,1.433c0.225-0.194,0.481-0.348,0.715-0.335c1.629,0.094,0.18-2.143,1.428-2.097
		c1.074,0.039,2.339,0.998,3.566,0.297c2.133-1.22-0.437,5.928-0.894,5.054c-0.272-0.52-0.05-0.816-0.149-1.262
		c-0.099-0.445,0.025-0.867-0.718-0.916c-0.742-0.05-1.955,0.198-1.856,1.039c0.1,0.842,0.619,0.693,0.174,1.089
		c-0.445,0.397-0.916-0.147-1.213,0.521s0.099,1.139-0.42,1.312c-0.521,0.173-1.437-0.124-1.609,0.248
		c-0.174,0.371-0.299,0.815-0.124,1.411c0.173,0.594,0.223,0.99-0.224,1.138c-0.444,0.149-0.891,0.248-0.965,0.644
		c-0.308,1.644,1.49,1.344,1.758,1.027c0.271-0.32,0.037-1.139,0.234-1.46c0.198-0.321,0.52-0.223,0.792-0.669
		c0.272-0.445-0.198-0.717,0.446-0.939s0.494,0.099,1.015-0.273c0.521-0.371,0.298-0.691,0.916-0.768
		c0.618-0.073,1.063,0.076,0.841,0.595c-0.223,0.521-0.371,1.114,0.051,1.337c0.42,0.223,1.213,0.421,1.533-0.1
		c0.133-0.211,0.284-0.361,0.393-0.495v-0.623c-0.37-0.439-0.838-0.22-1.035-0.416c-0.198-0.198-0.271-0.644,0.074-0.668
		c0.309-0.022,0.578-0.068,0.808-0.132v0.535c0.522-0.272,1.229-0.443,2.177-0.443c0.81,0,0.953-0.225,0.908-1.021
		c-0.107-1.918-1.719-4.527,1.994-4.009c0.871,0.121,2.575,1.861,2.998,2.779c0.698,1.518,3.727-1.009-0.318-4.05
		c-0.274-0.207-0.914-2.029,1.447-1.549c1.328,0.271,0.895,1.806,4.525,1.519c1.377-0.108,2.348-0.117,2.953,1.514
		c0.229,0.619,0.22,2.024-0.176,2.806c0.366,1.17-0.252,2.963,1.389,2.963c0.512,0,1.117,0.09,1.22,0.598
		c0.465,2.284-2.094,1.036-1.741,2.77c0.049,0.234,1.87,1.84,2.105-0.254c0.238-2.143,0.977-1.74,0.932-2.832
		c-0.045-1.093-2.355-1.029-2.736-1.513s0.154-1.481,1.529-1.884c1.376-0.404,1.582,0.67,1.859-0.094
		c0.277-0.765-1.111-1.172-1.688-2.284s1.372-0.443,1.107-1.673c-0.264-1.229-2.48-1.42-3.378-2.494
		c-0.897-1.075-0.201-2.091,1.057-2.805c1.259-0.716,2.757,0.29,3.791,1.145c1.034,0.856,0.308,1.956,1.229,2.541
		c0.922,0.584,1.396-0.678,2.941-0.585c3.355,0.2,1.666,1.417,3.269,2.274c1.34,0.717,3.21,0.945,3.551,1.306
		C156.646,81.906,162.377,77.299,162.068,84.258z M171.251,67.231c0,2.094-0.14,2.792-1.117,3.351
		c-0.978,0.558-1.745,0.873-2.094-0.698c-0.108-0.485,0.635-1.251,0.815-2.013c0.57-2.389-1.524-2.919-1.514-2.493
		c0.074,2.875-3.178,2.857-3.736,2.621c-0.906-0.384-0.697-0.978-1.256-0.593c-0.558,0.383-1.535,1.047-1.885,0.139
		c-0.35-0.907-1.082-1.257-0.488-2.199c0.594-0.942,0.139-0.803,0.139-1.745c0-0.943,0.908-1.327,0.56-1.78
		c-0.351-0.454-2.095,0.384-2.374-0.314c-1.105-2.766,1.973-3.524,2.896-2.444c0.629,0.733,0.105,1.571,0.629,2.478
		c0.523,0.908,1.5,0.629,1.222,1.885c-0.278,1.257-0.978,2.234-0.489,2.339c0.489,0.105,1.571-0.628,2.444-0.873
		c0.872-0.244,1.954-0.314,1.256-1.012c-0.698-0.698-2.06-1.396-1.745-2.304c0.314-0.907,1.501-2.234,3.387-0.907
		c1.885,1.326,0.453,1.955,1.151,3.42C169.82,65.765,171.251,65.137,171.251,67.231z M149.667,64.27
		c-0.769,0.523-3.246,0.419-3.944-0.245c-0.697-0.663-1.188-1.5-0.349-2.268c0.838-0.768,1.745-1.152,2.548-0.733
		s1.327,0.907,1.676,0.453c0.35-0.453-0.314-1.675,0.594-1.85c0.906-0.174,1.221-0.104,1.221-0.593c0-1.533,0.738-3.244,2.514-2.408
		c2.398,1.129,1.102,4.563-0.232,4.507c-1.107,0.01-1.229-0.063-1.305,1.042c-0.115,0.869-1.836,1.03-2.128,0.908
		C149.842,62.909,150.435,63.746,149.667,64.27z M135.445,39.776c-0.078,0.905-1.604,1.273-2.369,0.761
		c-1.494-1.001-0.356-3.153-2.822-2.668c-1.518,0.299-1.618-3.48,0.255-3.542c0.647-0.022,1.034-0.522,1.42-0.958
		c0.626-0.709,3.358-1.59,3.925-0.401c0.561,1.175-0.619,2.105-1.179,3.207C134.066,37.374,135.578,38.247,135.445,39.776z
		 M131.634,63.914c-2.457-0.245-0.666-2.773-1.248-3.77c-0.399-0.683-1.671-0.265-1.532-0.951c0.71-3.486-1.933-1.181-1.933-4.132
		c0-1.897,1.799-1.158,1.624-4.045c-0.113-1.854,2.521-1.244,2.918-0.444c0.727,1.464-1.387,2.334-1.038,3.027
		c0.872,1.729-1.412,3.247,1.442,3.044c0.617-0.044,1.185-0.38,1.547,0.054c1.869,2.243,0.279,2.745-0.019,3.534
		C133.384,60.263,134.449,64.194,131.634,63.914z M131.346,46.823c-1.871-0.293-0.13,2.032-2.104,2.501
		c-2.842,0.674-0.996-2.072-4.901-1.959c-1.733,0.05-0.864-4.555,2.69-3.329c3.258,1.123,5.83-1.33,7.209,0.25
		C135.586,45.826,135.064,47.407,131.346,46.823z M148.852,36.276c1.9,2.553,2.494-0.556,5.247,0.006
		c1.13,0.23,1.339,2.165,0.757,2.812c-1.664,1.849-1.938,0.708-2.772,0.357c-2.29-0.962-2.14,0.618-1.144,2.022
		c1.221,1.72-0.324,3.996-1.063,4.238c-2.193,0.718-1.501-1.842-1.854-3.018c-0.625-2.087-2.158-2.602-3.916-1.811
		c-0.504,0.225-2.291-0.538-1.172-1.653c1.018-1.012,4.415,0.267,3.031-2.213c-0.59-1.057-2.768,0.5-3.702,0.776
		c-1.354,0.4-1.761-0.39-1.761-1.5C140.504,33.199,148.482,35.781,148.852,36.276z M148.611,29.666
		c2.084,0.712,1.985-0.822,3.176-1.888c1.267-0.754,2.871,0.38,3.225,1.422c0.669,1.169-0.005,3.37-1.193,3.306
		c-1.357-0.072-2.482-1.755-3.086,0.834C149.451,38.834,144.938,28.413,148.611,29.666z M140.917,41.387
		c1.954,0.048,2.016,1.353,1.944,1.982c-0.215,1.878-1.994,0.663-2.992,1.972c-1.008,1.528-3.066,1.483-2.784-0.491
		c0.147-1.032-0.737-0.712-1.081-1.793S138.951,41.338,140.917,41.387z M135.679,50.148c0.435-0.777,0.851-1.156,2-0.859
		c1.151,0.298,1.194,1.302,1.375,1.764s0.794,1.063,1.276,0.705s-0.108-0.915,1.263-0.729c0.25,0.033,3.847,0.956,2.785-0.789
		c-0.57-0.938-1.964-2.664,0.123-3.224c0.683-0.184,1.481-0.953,2.456-0.565c2.097,0.834,2.322,3.037,1.203,4.758
		c-0.854,1.316-2.032,0.253-2.48,1.248c-0.389,0.865-1.264,1.757-2.087,2.261c-0.823,0.505-1.337,0.962-2.533,0.577
		c-1.196-0.386-2.062-0.886-2.088-1.371c-0.026-0.485-0.231-1.102-0.589-1.473c-0.357-0.372-0.893,0.041-1.657-0.205
		C135.961,51.999,135.244,50.925,135.679,50.148z M138.025,55.579c0.559,0.524,0.244,1.187,0.907,1.047
		c0.663-0.139,1.082-0.209,1.989,0.21c0.908,0.419,0.838,1.326,1.117,1.605c0.279,0.28,0.908-0.244,1.85,0
		c0.943,0.245,1.292,1.187,1.223,1.501c-0.07,0.315-0.175,1.257-1.256,1.048c-1.084-0.21-1.152-0.699-1.816-0.873
		c-0.663-0.175-0.698,0.977-1.5,0.838c-0.803-0.14-1.188-0.629-1.362-1.117c-0.174-0.489-0.069-1.362-0.907-1.501
		c-0.838-0.14-1.257,0.558-1.71,0.035C134.391,55.869,137.185,54.791,138.025,55.579z M155.465,53.527
		c0.314-0.733-0.314-0.943-1.186-0.838c-0.873,0.105-0.56,0.559-1.293,1.082c-0.732,0.524-0.523,0.07-1.431,0.384
		s-0.243,0.698-0.628,1.326c-0.384,0.629-0.838,0.489-1.117,0.943s0.053,1.606-0.332,2.059c-0.377,0.445-2.912,0.869-2.478-1.448
		c0.104-0.559,0.733-0.698,1.36-0.908c0.629-0.209,0.56-0.768,0.314-1.606c-0.244-0.837-0.068-1.465,0.175-1.989
		c0.244-0.524,1.536-0.105,2.269-0.349c0.734-0.245,0.175-0.908,0.594-1.85c0.419-0.943,1.082-0.175,1.71-0.733
		c0.629-0.559-0.104-0.349-0.244-1.536s1.571-1.536,2.618-1.466c1.047,0.07,0.873,0.663,1.012,1.291
		c0.141,0.629-0.174,1.048,0.211,1.781c0.383,0.733,0.627-0.105,1.639,0c1.013,0.104,0.926,0.401,1.101,0.541
		c0.174,0.14,0.174,0.628,0.07,1.396c-0.105,0.768-0.454,0.907-0.943,1.256s-1.501-0.732-1.989-0.698
		c-0.488,0.035-0.385,0.664-0.104,0.943c0.278,0.279,0.942-0.035,1.466,0.593c0.523,0.629-0.105,0.838-0.559,1.571
		c-0.455,0.733-1.571,0.454-2.164,0.14C154.941,55.098,155.15,54.26,155.465,53.527z M163.971,42.433
		c-0.51-0.428-1.429,0.245-2.063-0.449c-0.633-0.694-0.428-0.613-0.816-1.511c-0.295-0.682-0.338-2.137,1.145-2.369
		c1.595-0.25,2.471,0.776,2.898,1.47c0.43,0.695,0.797,1.818,0.939,2.635c0.144,0.817,0.552,0.776,1.348,1.266
		c0.797,0.49,0.634,2.287-0.143,2.695c-0.775,0.409-1.062,0.449-1.592,1.348c-0.531,0.898-1.716,1.389-2.9,0.898
		c-1.184-0.49-1.512-2.164-1.797-2.45c-0.286-0.286-1.104,0.163-1.838-0.613c-0.735-0.776-0.326-1.633-0.653-2.409
		s-1.593-0.817-2.206-1.348c-0.612-0.531-0.348-1.368-0.348-1.368c0.674-1.082,1.123-1.45,1.961-1.266s1.858,0.429,1.858,1.123
		c0,0.694,0.081,1.613,0.49,2.124c0.408,0.51,0.979,0.429,1.53,0.939c0.553,0.511,0.531,1.246,0.9,1.634
		c0.366,0.388,0.897,0.796,1.408,0.367C164.605,44.72,164.482,42.862,163.971,42.433z M167.033,55.195
		c-0.053,1.204-1.467,2.356-2.182,2.53c-0.716,0.175-0.629,0.663-1.467,0.89s-1.972,0.14-2.216-0.872
		c-0.245-1.012,0.104-1.257,0.104-1.257c0.244-0.803,0.89-0.471,1.5-1.134c0.611-0.663,0.611-1.501,1.52-1.693
		C165.199,53.467,167.085,53.99,167.033,55.195z M159.326,34.148c-0.457,0.065-0.684,0.145-0.77,0.614
		c-0.061,0.327-0.201,0.963-0.455,1.383c-0.557,0.913-1.914,0.146-2.191-0.31c-0.271-0.442-0.5-1.567,0.291-2.046
		c0.361-0.219,0.813-0.333,1.238-0.245c0.332,0.069,0.158-0.037,0.455-0.778C159.195,29.527,161.33,33.864,159.326,34.148z
		 M168.951,53.362c-0.541,0.489-2.008,0.524-2.653,0.018c-0.646-0.507-0.541-0.803-0.854-1.606c-0.897-2.292,0.5-2.96,2.285-2.216
		c1.047,0.437,0.752,1.361,1.274,1.797C169.527,51.791,169.492,52.873,168.951,53.362z M177.695,47.603
		c1.363,0.209,1.502,1.885,1.223,2.513c-0.279,0.628-1.641,0.907-2.199,0.524c-0.558-0.384-1.082-0.559-1.535-0.035
		c-0.453,0.523-1.641,1.675-2.723,1.57s-2.443-0.174-2.967-1.675c-1.02-2.92,0.891-3.914,3.316-2.897
		c1.082,0.453,1.604,1.326,2.407,0.942C176.021,48.161,176.335,47.393,177.695,47.603z M174.146,41.25
		c-0.621,0.088-0.93,0.197-1.047,0.837c-0.084,0.445-0.273,1.312-0.623,1.884c-0.757,1.244-2.607,0.2-2.986-0.421
		c-0.366-0.603-0.682-2.137,0.397-2.79c0.494-0.298,1.109-0.454,1.688-0.334c0.453,0.094,0.215-0.049,0.621-1.061
		C173.97,34.951,176.88,40.863,174.146,41.25z M171.879,33.885c0,2.012-0.135,2.682-1.073,3.218
		c-0.938,0.537-1.677,0.838-2.012-0.67c-0.103-0.466,0.61-1.202,0.785-1.933c0.547-2.295-1.466-2.804-1.455-2.395
		c0.071,2.762-3.054,2.744-3.587,2.518c-0.872-0.369-0.672-0.939-1.207-0.57c-0.537,0.368-1.477,1.005-1.811,0.134
		c-0.336-0.872-1.039-1.207-0.47-2.113c0.569-0.905,0.134-0.771,0.134-1.676c0-0.905,0.872-1.274,0.536-1.71
		c-0.335-0.435-2.011,0.369-2.278-0.301c-1.063-2.657,1.893-3.384,2.781-2.347c0.604,0.704,0.102,1.509,0.604,2.38
		c0.503,0.872,1.441,0.604,1.174,1.811s-0.939,2.145-0.469,2.246c0.469,0.1,1.508-0.604,2.346-0.838
		c0.838-0.235,1.878-0.302,1.207-0.972c-0.67-0.671-1.979-1.342-1.676-2.213c0.302-0.872,1.441-2.146,3.252-0.872
		c1.81,1.274,0.436,1.878,1.105,3.286C170.504,32.477,171.879,31.873,171.879,33.885z M170.75,26.09
		c-0.758,0.361-2.714,0.434-3.128-0.392c-0.529-1.054,1.134-2.571-0.087-2.711c-0.736-0.085-0.942-2.226-1.227-2.541
		c0-0.756,0.702-1.542,1.707-1.496c1.077,0.051,1.088,0.043,1.637,1.149c0.338,0.681,0.031,1.967-0.238,2.618
		c-0.493,1.193,1.02,0.121,1.683,1.766C171.411,25.26,171.542,25.713,170.75,26.09z M167.818,2.21
		c0.26-0.086,0.779-0.199,0.976,0.061c0.274,0.366,0.45-0.095,0.772-0.194c0.629-0.193,0.531,0.411,0.638,0.685
		c0.176,0.453-0.005,0.156,0.608,0.156c0.533,0,0.596,1.6-0.273,1.21c-0.139-0.063-0.256-0.737-0.396-0.677
		c-0.568,0.246-0.766-0.149-0.936-0.028c-0.188,0.133,0.154,0.738-0.139,1.359c-0.117,0.247-0.297,0.207-0.549,0.215
		c-0.367,0.013-0.066-0.818-0.395-0.989c-0.653-0.34-0.367-0.433-0.487-0.965C167.645,3.075,167.451,2.332,167.818,2.21z
		 M164.879,9.771c0.458,0.19,0.328,0.594,0.557,0.785c0.229,0.19,0.213,0.663-0.022,0.876c-0.236,0.214-0.878,0.229-1.159,0.008
		c-0.282-0.221-0.236-0.351-0.373-0.701C163.488,9.738,164.1,9.446,164.879,9.771z M165.979,13.802
		c1.355-0.166,1.48-0.881,2.293-0.474c0.377,0.188,0.084,1.383,0.48,1.302s0.493-1.266,1.098-1.158s0.775,0.316,0.793,0.622
		c0.019,0.307,0.027,0.686-0.531,0.929c-0.56,0.244-0.678,0.451-0.983,0.695c-0.506,0.402-1.502,0.444-1.417-0.307
		c0.045-0.397,0.189-0.424,0.199-0.676c0.009-0.253,0-0.271-0.442-0.19c-0.161,0.03-1.483-0.039-2.302,0.304
		c-0.508,0.213-0.454,0.876-0.915,0.936c-1.027,0.132-1.47-0.584-1.504-0.76C162.652,14.557,164.255,14.014,165.979,13.802z
		 M161.895,19.071c0.67-0.458,1.452-0.159,1.611,0.057c0.159,0.216,0.691,0.799-0.033,1.363s-1.07,0.34-1.543,0.66
		c-0.474,0.32,0.23,0.974-0.299,1.401c-0.527,0.427-1.045,0.4-1.448,0.241c-0.401-0.159-0.892-0.703-1.438-0.254
		c-0.549,0.449-0.34,1.095-0.918,1.092c-2.76-0.013-1.902-2.358-0.946-2.452c0.635-0.063,0.878,0.498,1.155,0.005
		c0.275-0.493,0.462-0.794,1.223-1.133c0.762-0.34,1.292,0.202,1.62,0.18C161.207,20.209,161.223,19.528,161.895,19.071z
		 M160.818,10.363c0.5,0.101,0.592,0.956,0.334,1.242c-0.733,0.817-0.855,0.313-1.224,0.158c-1.012-0.425-0.944,0.273-0.505,0.893
		c0.539,0.76-0.145,1.765-0.469,1.872c-0.971,0.318-0.664-0.813-0.819-1.333c-0.276-0.922-0.954-1.149-1.731-0.8
		c-0.222,0.1-1.01-0.237-0.517-0.73c0.449-0.447,1.95,0.118,1.339-0.977c-0.26-0.467-1.222,0.22-1.635,0.342
		c-0.6,0.177-0.777-0.172-0.777-0.662c0-1.367,3.523-0.226,3.687-0.007C159.341,11.488,159.604,10.115,160.818,10.363z
		 M155.878,5.929c0.548,0.014,0.565,0.38,0.546,0.556c-0.061,0.526-0.561,0.186-0.84,0.553c-0.282,0.428-0.859,0.416-0.78-0.138
		c0.041-0.289-0.207-0.2-0.303-0.503C154.404,6.094,155.326,5.915,155.878,5.929z M150.576,13.753
		c0.666-0.815,2.218,0.734,2.408,0.956c0.225,0.263,0.037,0.564,0.225,0.89s0.539,0.225,0.439,0.677
		c-0.101,0.451-0.352,0.802-0.176,0.84c0.176,0.037,0.564-0.226,0.877-0.314s0.702-0.113,0.451-0.363
		c-0.25-0.251-0.738-0.502-0.627-0.828c0.113-0.326,0.539-0.802,1.216-0.326c0.677,0.477,0.163,0.702,0.414,1.229
		c0.276,0.601,0.79,0.376,0.79,1.128s-0.05,1.003-0.4,1.203c-0.352,0.201-0.627,0.314-0.754-0.25
		c-0.037-0.174,0.229-0.45,0.295-0.723c0.203-0.858-0.549-1.048-0.545-0.895c0.027,1.032-1.141,1.025-1.341,0.941
		c-0.325-0.138-0.251-0.351-0.452-0.213c-0.199,0.138-0.551,0.376-0.677,0.05c-0.125-0.326-0.388-0.452-0.175-0.79
		s0.05-0.288,0.05-0.627c0-0.338,0.326-0.476,0.201-0.639c-0.126-0.163-0.752,0.138-0.853-0.113
		c-0.063-0.156,0.311-1.085-0.041-1.212C151.176,14.113,150.472,13.881,150.576,13.753z M149.783,23.384
		c1.125,0.383,1.072-0.444,1.713-1.019c0.684-0.407,1.551,0.205,1.74,0.767c0.361,0.631-0.002,1.818-0.644,1.784
		c-0.731-0.039-1.34-0.947-1.665,0.45C150.236,28.331,147.801,22.707,149.783,23.384z M147.348,18.325
		c-0.265-0.624,0.01-0.844,0.551-1.058c1.086-0.429,1.846,1.494,0.483,1.742c-0.724,0.132-0.134,0.916-0.617,1.333
		c-1.147,0.992-2.342-0.777-1.247-1.131C146.974,19.063,147.615,18.954,147.348,18.325z M144.746,8.924
		c0.225,0.199,0.103,0.519,0.386,0.462c0.282-0.058,0.308-0.437,0.737-0.36c0.43,0.077,0.552,0.225,0.564,0.443
		c0.014,0.218,0.02,0.488-0.379,0.661c-0.396,0.173-0.48,0.321-0.699,0.494c-0.359,0.285-1.066,0.315-1.007-0.218
		c0.032-0.283,0.136-0.302,0.142-0.482c0.006-0.179,0-0.192-0.314-0.134C143.365,9.938,144.111,8.361,144.746,8.924z
		 M143.509,14.521c0.839,1.128,1.103-0.246,2.317,0.002c0.5,0.102,0.592,0.957,0.334,1.243c-0.734,0.816-0.855,0.312-1.225,0.157
		c-1.012-0.425-0.945,0.273-0.505,0.893c0.539,0.76-0.144,1.766-0.469,1.872c-0.97,0.318-0.663-0.813-0.819-1.333
		c-0.277-0.922-0.953-1.149-1.73-0.8c-0.221,0.1-1.012-0.237-0.517-0.73c0.449-0.447,1.95,0.118,1.339-0.977
		c-0.261-0.467-1.223,0.221-1.636,0.342c-0.599,0.177-0.778-0.172-0.778-0.662C139.82,13.162,143.346,14.303,143.509,14.521z
		 M142.318,22.947c-0.235,0.214-0.875,0.229-1.158,0.008c-0.281-0.221-0.236-0.351-0.373-0.701
		c-0.393-1.001,0.219-1.293,0.998-0.968c0.457,0.19,0.328,0.594,0.557,0.785C142.57,22.261,142.555,22.734,142.318,22.947z
		 M140.076,29.696c0.215-0.285-0.215-0.502,0.596-0.627c0.146-0.023,2.346-0.103,1.449-0.916c-0.481-0.438-1.563-1.185-0.471-1.853
		c0.356-0.219,0.682-0.791,1.301-0.734c1.33,0.121,1.83,1.335,1.483,2.501c-0.265,0.892-1.114,0.486-1.2,1.127
		c-0.076,0.557-0.423,1.21-0.807,1.635c-0.382,0.426-0.598,0.772-1.342,0.754c-0.745-0.019-1.321-0.157-1.417-0.428
		c-0.097-0.272-0.317-0.587-0.582-0.739c-0.267-0.151-0.501,0.174-0.978,0.162c-0.475-0.011-1.063-0.502-0.947-1.016
		c0.117-0.514,0.289-0.8,0.992-0.824c0.705-0.024,0.898,0.539,1.078,0.771C139.414,29.741,139.863,29.98,140.076,29.696z
		 M134.941,6.101c0.256,0.299,0.041,0.642,0.256,1.014c0.215,0.371,0.614,0.257,0.5,0.771c-0.115,0.514-0.399,0.914-0.201,0.957
		c0.201,0.042,0.644-0.258,1-0.357c0.357-0.1,0.801-0.129,0.515-0.415c-0.285-0.285-0.842-0.571-0.714-0.942
		c0.129-0.371,0.613-0.914,1.386-0.372c0.771,0.543,0.185,0.8,0.472,1.4c0.313,0.685,0.898,0.428,0.898,1.285
		c0,0.857-0.057,1.143-0.457,1.371c-0.4,0.229-0.714,0.357-0.857-0.285c-0.043-0.199,0.262-0.512,0.336-0.824
		c0.232-0.977-0.625-1.194-0.621-1.02c0.031,1.176-1.299,1.169-1.527,1.072c-0.371-0.157-0.286-0.4-0.514-0.242
		c-0.229,0.157-0.629,0.428-0.771,0.057c-0.143-0.371-0.443-0.514-0.199-0.9c0.241-0.385,0.057-0.328,0.057-0.714
		c0-0.386,0.371-0.543,0.229-0.728c-0.143-0.186-0.857,0.157-0.972-0.129C133.303,5.969,134.562,5.659,134.941,6.101z
		 M133.141,19.461c0.047-0.251,0.328-0.313,0.609-0.407s0.25-0.344,0.141-0.719s-0.031-0.656,0.078-0.891
		c0.109-0.234,0.688-0.046,1.016-0.156c0.328-0.109,0.078-0.406,0.266-0.828c0.188-0.422,0.484-0.078,0.767-0.328
		c0.281-0.25-0.047-0.157-0.11-0.688c-0.062-0.531,0.705-0.688,1.172-0.656c0.47,0.031,0.392,0.297,0.455,0.578
		c0.062,0.281-0.08,0.469,0.093,0.797c0.172,0.328,0.28-0.047,0.735,0c0.453,0.047,0.414,0.18,0.491,0.242
		c0.078,0.063,0.078,0.281,0.031,0.625c-0.046,0.344-0.203,0.407-0.422,0.563c-0.218,0.156-0.673-0.328-0.892-0.313
		c-0.218,0.016-0.17,0.297-0.045,0.422s0.422-0.015,0.655,0.266c0.233,0.281-0.047,0.375-0.25,0.703
		c-0.203,0.329-0.703,0.203-0.969,0.063c-0.267-0.141-0.173-0.516-0.031-0.844c0.14-0.328-0.142-0.422-0.532-0.375
		c-0.39,0.047-0.25,0.25-0.578,0.484c-0.328,0.235-0.233,0.031-0.641,0.172c-0.406,0.141-0.109,0.313-0.281,0.594
		c-0.172,0.281-0.375,0.219-0.5,0.422c-0.125,0.203,0.023,0.719-0.148,0.922C134.082,20.309,132.947,20.498,133.141,19.461z
		 M132.238,27.612c0.846-0.274,2.032-0.476,1.539-1.64c-0.492-1.157,0.017-1.565,1.021-1.962c2.013-0.794,3.421,2.768,0.896,3.229
		c-1.34,0.244-0.248,1.698-1.143,2.469C132.421,31.547,130.209,28.27,132.238,27.612z M128.359,12.881
		c0.271-0.009,0.434-0.218,0.596-0.401c0.262-0.297,1.408-0.667,1.646-0.168c0.233,0.493-0.26,0.882-0.495,1.344
		c-0.255,0.503,0.379,0.869,0.323,1.511c-0.033,0.379-0.672,0.533-0.993,0.318c-0.627-0.419-0.15-1.322-1.183-1.118
		C127.615,14.492,127.574,12.908,128.359,12.881z M124.633,9.821c0.863,0.021,0.891,0.598,0.859,0.876
		c-0.096,0.829-0.881,0.292-1.322,0.871c-0.445,0.675-1.354,0.655-1.23-0.217c0.065-0.456-0.324-0.315-0.477-0.792
		C122.311,10.081,123.765,9.799,124.633,9.821z M115.941,11.371c0.26-0.086,0.78-0.199,0.977,0.062
		c0.274,0.366,0.449-0.096,0.771-0.194c0.631-0.193,0.531,0.411,0.639,0.685c0.176,0.452-0.004,0.155,0.606,0.155
		c0.535,0,0.597,1.601-0.272,1.21c-0.138-0.061-0.254-0.736-0.396-0.676c-0.569,0.245-0.767-0.15-0.937-0.029
		c-0.188,0.134,0.156,0.738-0.139,1.359c-0.117,0.247-0.297,0.207-0.549,0.216c-0.368,0.012-0.066-0.818-0.395-0.989
		c-0.653-0.34-0.366-0.434-0.486-0.965C115.769,12.236,115.574,11.493,115.941,11.371z M113.883,25.637
		c0.845-0.162,1.137-0.097,1.137-0.552c0-1.427,0.686-3.019,2.338-2.241c2.234,1.051,1.025,4.246-0.215,4.194
		c-1.031,0.01-1.145-0.059-1.214,0.97c-0.108,0.808-1.708,0.958-1.981,0.845c-0.39-0.163,0.162,0.617-0.552,1.104
		c-0.715,0.487-3.021,0.39-3.67-0.227c-0.649-0.617-1.104-1.397-0.325-2.112c0.779-0.714,1.624-1.071,2.371-0.682
		c0.747,0.39,1.234,0.845,1.559,0.423C113.656,26.936,113.039,25.8,113.883,25.637z M110.281,18.271
		c0.338-0.011,0.539-0.272,0.74-0.5c0.328-0.37,1.754-0.83,2.051-0.209c0.291,0.613-0.324,1.099-0.617,1.674
		c-0.316,0.626,0.473,1.081,0.402,1.88c-0.04,0.472-0.836,0.665-1.236,0.397c-0.779-0.523-0.186-1.646-1.473-1.393
		C109.355,20.276,109.304,18.304,110.281,18.271z M109.248,9.684c0.67,0.017,0.691,0.463,0.666,0.679
		c-0.072,0.643-0.683,0.227-1.024,0.675c-0.345,0.524-1.05,0.508-0.953-0.168c0.05-0.353-0.253-0.244-0.371-0.614
		C107.449,9.886,108.576,9.667,109.248,9.684z M109.65,31.329c0.115,0.996-0.25,1.917-3.039,1.917c-0.98,0-0.908-0.787-2.378-0.42
		c-1.47,0.368-1.338,1.319-3.176,2.503c-1.519,0.979-3.769-1.094-2.161-3.469c0.781-1.153,3.325-3.045,4.611-1.758
		c0.613,0.612,1.144,0.04,3.349-0.45C108.861,29.207,109.533,30.303,109.65,31.329z M104.996,21.87
		c0.397,1.024-0.011,0.352,1.373,0.352c1.211,0,1.351,3.622-0.617,2.739c-0.311-0.14-0.577-1.668-0.895-1.531
		c-1.29,0.555-1.736-0.339-2.121-0.065c-0.423,0.301,0.352,1.671-0.314,3.077c-0.264,0.558-0.67,0.467-1.241,0.487
		c-0.833,0.028-0.151-1.852-0.894-2.239c-1.479-0.77-0.83-0.981-1.102-2.184c0.016,0.07-0.424-1.612,0.408-1.887
		c0.589-0.195,1.766-0.45,2.209,0.14c0.623,0.828,1.02-0.217,1.748-0.44C104.978,19.883,104.754,21.249,104.996,21.87z
		 M101.664,12.019c0.183,0.367,0.018,1.061-0.129,1.413c-0.265,0.643,0.551,0.065,0.909,0.952c0.169,0.42,0.24,0.664-0.188,0.867
		c-0.407,0.195-1.463,0.235-1.688-0.211c-0.285-0.569,0.612-1.387-0.047-1.463c-0.396-0.046-0.508-1.201-0.661-1.371
		c0-0.408,0.38-0.832,0.921-0.807C101.362,11.426,101.367,11.422,101.664,12.019z M98.951,6.559
		c0.207,0.183,0.094,0.479,0.355,0.425c0.26-0.053,0.283-0.402,0.68-0.331c0.396,0.071,0.51,0.207,0.521,0.408
		c0.012,0.202,0.018,0.45-0.35,0.61c-0.367,0.16-0.443,0.296-0.645,0.456c-0.332,0.263-0.985,0.291-0.93-0.202
		c0.029-0.26,0.125-0.278,0.131-0.443c0.006-0.166,0-0.178-0.291-0.125C97.678,7.495,98.365,6.04,98.951,6.559z M96.86,24.483
		c0.313,0.777,0.445,1.23-0.347,1.607c-0.758,0.361-2.714,0.434-3.128-0.392c-0.529-1.054,1.134-2.571-0.087-2.711
		c-0.736-0.085-0.942-2.226-1.227-2.541c0-0.756,0.703-1.542,1.707-1.496c1.078,0.051,1.089,0.043,1.638,1.149
		c0.338,0.681,0.03,1.967-0.238,2.618C94.685,23.91,96.196,22.838,96.86,24.483z M90.643,9.771c0.458,0.19,0.328,0.594,0.557,0.785
		c0.228,0.19,0.213,0.663-0.023,0.876c-0.237,0.214-0.877,0.229-1.159,0.008c-0.282-0.221-0.236-0.351-0.373-0.701
		C89.252,9.738,89.863,9.446,90.643,9.771z M91.742,13.802c1.356-0.166,1.481-0.881,2.292-0.474
		c0.379,0.188,0.086,1.383,0.482,1.302s0.492-1.266,1.097-1.158s0.776,0.316,0.794,0.622c0.018,0.307,0.027,0.686-0.531,0.929
		c-0.56,0.244-0.678,0.451-0.984,0.695c-0.506,0.402-1.501,0.444-1.416-0.307c0.045-0.397,0.19-0.424,0.199-0.676
		c0.009-0.253,0-0.271-0.442-0.19c-0.161,0.03-1.484-0.039-2.302,0.304c-0.507,0.213-0.454,0.876-0.915,0.936
		c-1.027,0.132-1.469-0.584-1.504-0.76C88.417,14.557,90.019,14.014,91.742,13.802z M87.657,19.071
		c0.67-0.458,1.453-0.159,1.612,0.057c0.158,0.216,0.692,0.799-0.033,1.363c-0.725,0.564-1.07,0.34-1.543,0.66
		c-0.474,0.32,0.23,0.974-0.299,1.401c-0.528,0.427-1.045,0.4-1.448,0.241c-0.402-0.159-0.892-0.703-1.439-0.254
		c-0.548,0.449-0.34,1.095-0.917,1.092c-2.761-0.013-1.903-2.358-0.947-2.452c0.634-0.063,0.878,0.498,1.155,0.005
		c0.276-0.493,0.462-0.794,1.223-1.133c0.761-0.34,1.292,0.202,1.62,0.18C86.971,20.209,86.986,19.528,87.657,19.071z
		 M85.089,34.148c-0.457,0.065-0.683,0.145-0.77,0.614c-0.06,0.327-0.2,0.963-0.455,1.383c-0.556,0.913-1.914,0.146-2.191-0.31
		c-0.27-0.442-0.5-1.567,0.291-2.046c0.362-0.219,0.813-0.333,1.239-0.245c0.332,0.069,0.157-0.037,0.455-0.778
		C84.959,29.527,87.093,33.864,85.089,34.148z M84.265,10.361c0.84,1.127,1.102-0.246,2.318,0.002
		c0.5,0.101,0.591,0.956,0.334,1.242c-0.734,0.817-0.856,0.313-1.224,0.158c-1.012-0.425-0.945,0.273-0.505,0.893
		c0.539,0.76-0.144,1.765-0.47,1.872c-0.969,0.318-0.663-0.813-0.819-1.333c-0.276-0.922-0.953-1.149-1.73-0.8
		c-0.222,0.1-1.011-0.237-0.517-0.73c0.449-0.447,1.95,0.118,1.339-0.977c-0.26-0.467-1.222,0.22-1.635,0.342
		c-0.599,0.177-0.778-0.172-0.778-0.662C80.578,9,84.102,10.142,84.265,10.361z M76.34,13.753c0.665-0.815,2.216,0.734,2.407,0.956
		c0.225,0.263,0.037,0.564,0.225,0.89c0.188,0.326,0.539,0.225,0.439,0.677c-0.1,0.451-0.351,0.802-0.175,0.84
		c0.175,0.037,0.564-0.226,0.877-0.314s0.702-0.113,0.451-0.363c-0.25-0.251-0.739-0.502-0.627-0.828
		c0.113-0.326,0.539-0.802,1.216-0.326c0.677,0.477,0.163,0.702,0.414,1.229c0.276,0.601,0.79,0.376,0.79,1.128
		s-0.05,1.003-0.401,1.203c-0.351,0.201-0.627,0.314-0.753-0.25c-0.038-0.174,0.228-0.45,0.294-0.723
		c0.204-0.858-0.548-1.048-0.544-0.895c0.027,1.032-1.141,1.025-1.342,0.941c-0.325-0.138-0.25-0.351-0.451-0.213
		c-0.2,0.138-0.551,0.376-0.677,0.05c-0.125-0.326-0.388-0.452-0.175-0.79c0.213-0.338,0.05-0.288,0.05-0.627
		c0-0.338,0.326-0.476,0.201-0.639c-0.126-0.163-0.752,0.138-0.853-0.113c-0.062-0.156,0.311-1.085-0.041-1.212
		C76.939,14.113,76.235,13.881,76.34,13.753z M76.704,41.473c1.22,1.72-0.325,3.996-1.063,4.238
		c-2.193,0.718-1.501-1.842-1.853-3.018c-0.626-2.087-2.158-2.602-3.918-1.811c-0.502,0.225-2.29-0.538-1.17-1.653
		c1.017-1.012,4.415,0.267,3.031-2.213c-0.59-1.057-2.767,0.5-3.702,0.776c-1.355,0.4-1.761-0.39-1.761-1.5
		c0-3.093,7.979-0.511,8.348-0.016c1.9,2.553,2.494-0.556,5.247,0.006c1.13,0.23,1.339,2.165,0.756,2.812
		c-1.663,1.849-1.938,0.708-2.772,0.357C75.557,38.489,75.708,40.069,76.704,41.473z M75.955,59.627
		c0.907-0.174,1.222-0.104,1.222-0.593c0-1.533,0.737-3.244,2.513-2.408c2.399,1.129,1.101,4.563-0.232,4.507
		c-1.108,0.01-1.229-0.063-1.305,1.042c-0.115,0.869-1.836,1.03-2.128,0.908c-0.419-0.174,0.174,0.663-0.594,1.187
		c-0.768,0.523-3.246,0.419-3.944-0.245c-0.698-0.663-1.187-1.5-0.349-2.268c0.838-0.768,1.745-1.152,2.548-0.733
		c0.803,0.419,1.326,0.907,1.675,0.453C75.71,61.024,75.046,59.802,75.955,59.627z M69.618,60.99
		c-1.083-0.21-1.152-0.699-1.816-0.873c-0.663-0.175-0.698,0.977-1.5,0.838c-0.803-0.14-1.187-0.629-1.362-1.117
		c-0.174-0.489-0.069-1.362-0.907-1.501c-0.838-0.14-1.257,0.558-1.711,0.035c-2.169-2.503,0.626-3.581,1.466-2.793
		c0.559,0.524,0.245,1.187,0.908,1.047c0.663-0.139,1.082-0.209,1.989,0.21c0.908,0.419,0.838,1.326,1.117,1.605
		c0.28,0.28,0.908-0.244,1.85,0c0.943,0.245,1.292,1.187,1.222,1.501C70.804,60.257,70.7,61.199,69.618,60.99z M71.443,52.457
		c-0.389,0.865-1.264,1.757-2.087,2.261c-0.823,0.505-1.337,0.962-2.533,0.577c-1.196-0.386-2.062-0.886-2.088-1.371
		c-0.027-0.485-0.232-1.102-0.589-1.473c-0.357-0.372-0.893,0.041-1.658-0.205c-0.764-0.247-1.48-1.321-1.046-2.098
		s0.85-1.156,2-0.859c1.151,0.298,1.194,1.302,1.375,1.764s0.794,1.063,1.277,0.705c0.482-0.358-0.109-0.915,1.262-0.729
		c0.25,0.033,3.846,0.956,2.785-0.789c-0.57-0.938-1.963-2.664,0.123-3.224c0.683-0.184,1.481-0.953,2.456-0.565
		c2.097,0.834,2.323,3.037,1.204,4.758C73.069,52.525,71.892,51.462,71.443,52.457z M61.767,43.057
		c-0.344-1.081,2.948-1.719,4.913-1.67c1.955,0.048,2.016,1.353,1.944,1.982c-0.214,1.878-1.994,0.663-2.992,1.972
		c-1.007,1.528-3.066,1.483-2.784-0.491C62.995,43.818,62.111,44.138,61.767,43.057z M79.582,32.506
		c-1.357-0.072-2.482-1.755-3.086,0.834c-1.281,5.494-5.794-4.927-2.121-3.674c2.085,0.712,1.986-0.822,3.177-1.888
		c1.266-0.754,2.871,0.38,3.224,1.422C81.444,30.369,80.771,32.57,79.582,32.506z M75.546,23.384
		c1.125,0.383,1.072-0.444,1.714-1.019c0.683-0.407,1.549,0.205,1.74,0.767c0.361,0.631-0.003,1.818-0.644,1.784
		c-0.732-0.039-1.34-0.947-1.665,0.45C76,28.331,73.564,22.707,75.546,23.384z M73.111,18.325c-0.265-0.624,0.009-0.844,0.551-1.058
		c1.086-0.429,1.846,1.494,0.483,1.742c-0.723,0.132-0.134,0.916-0.617,1.333c-1.148,0.992-2.342-0.777-1.247-1.131
		C72.737,19.063,73.378,18.954,73.111,18.325z M70.51,8.924c0.224,0.199,0.103,0.519,0.385,0.462
		c0.282-0.058,0.308-0.437,0.737-0.36c0.43,0.077,0.552,0.225,0.565,0.443c0.013,0.218,0.019,0.488-0.379,0.661
		c-0.397,0.173-0.481,0.321-0.699,0.494c-0.359,0.285-1.067,0.315-1.007-0.218c0.032-0.283,0.135-0.302,0.141-0.482
		c0.007-0.179,0-0.192-0.314-0.134C69.129,9.938,69.875,8.361,70.51,8.924z M69.272,14.521c0.839,1.128,1.101-0.246,2.318,0.002
		c0.499,0.102,0.591,0.957,0.334,1.243c-0.735,0.816-0.856,0.312-1.225,0.157c-1.012-0.425-0.945,0.273-0.505,0.893
		c0.539,0.76-0.144,1.766-0.469,1.872c-0.969,0.318-0.663-0.813-0.819-1.333c-0.276-0.922-0.953-1.149-1.73-0.8
		c-0.222,0.1-1.012-0.237-0.517-0.73c0.449-0.447,1.95,0.118,1.338-0.977c-0.26-0.467-1.222,0.221-1.635,0.342
		c-0.598,0.177-0.778-0.172-0.778-0.662C65.584,13.162,69.109,14.303,69.272,14.521z M68.083,22.947
		c-0.236,0.214-0.876,0.229-1.158,0.008c-0.282-0.221-0.237-0.351-0.374-0.701c-0.391-1.001,0.219-1.293,0.999-0.968
		c0.457,0.19,0.327,0.594,0.556,0.785C68.334,22.261,68.318,22.734,68.083,22.947z M65.84,29.696
		c0.214-0.285-0.216-0.502,0.595-0.627c0.147-0.023,2.346-0.103,1.45-0.916c-0.482-0.438-1.563-1.185-0.472-1.853
		c0.357-0.219,0.682-0.791,1.301-0.734c1.331,0.121,1.83,1.335,1.484,2.501c-0.265,0.892-1.114,0.486-1.201,1.127
		c-0.075,0.557-0.423,1.21-0.806,1.635c-0.382,0.426-0.598,0.772-1.342,0.754c-0.745-0.019-1.321-0.157-1.418-0.428
		c-0.096-0.272-0.316-0.587-0.581-0.739c-0.266-0.151-0.501,0.174-0.977,0.162c-0.475-0.011-1.064-0.502-0.947-1.016
		c0.116-0.514,0.288-0.8,0.992-0.824s0.898,0.539,1.078,0.771C65.176,29.741,65.626,29.98,65.84,29.696z M60.704,6.101
		c0.257,0.299,0.042,0.642,0.257,1.014c0.214,0.371,0.614,0.257,0.499,0.771c-0.114,0.514-0.399,0.914-0.199,0.957
		c0.199,0.042,0.642-0.258,0.999-0.357c0.357-0.1,0.8-0.129,0.514-0.415c-0.286-0.285-0.842-0.571-0.714-0.942
		c0.129-0.371,0.614-0.914,1.385-0.372c0.772,0.543,0.186,0.8,0.472,1.4c0.314,0.685,0.899,0.428,0.899,1.285
		c0,0.857-0.057,1.143-0.457,1.371c-0.4,0.229-0.714,0.357-0.857-0.285c-0.043-0.199,0.261-0.512,0.335-0.824
		c0.233-0.977-0.624-1.194-0.62-1.02c0.03,1.176-1.3,1.169-1.528,1.072c-0.371-0.157-0.286-0.4-0.514-0.242
		c-0.229,0.157-0.629,0.428-0.771,0.057c-0.143-0.371-0.443-0.514-0.2-0.9c0.243-0.385,0.057-0.328,0.057-0.714
		c0-0.386,0.371-0.543,0.228-0.728c-0.142-0.186-0.857,0.157-0.971-0.129C59.066,5.969,60.325,5.659,60.704,6.101z M58.904,19.461
		c0.047-0.251,0.328-0.313,0.609-0.407c0.282-0.094,0.25-0.344,0.141-0.719s-0.031-0.656,0.078-0.891
		c0.11-0.234,0.688-0.046,1.016-0.156c0.328-0.109,0.078-0.406,0.266-0.828c0.187-0.422,0.484-0.078,0.766-0.328
		c0.281-0.25-0.047-0.157-0.11-0.688c-0.062-0.531,0.703-0.688,1.172-0.656c0.469,0.031,0.391,0.297,0.454,0.578
		c0.062,0.281-0.079,0.469,0.093,0.797c0.172,0.328,0.281-0.047,0.735,0c0.453,0.047,0.414,0.18,0.492,0.242
		c0.078,0.063,0.078,0.281,0.031,0.625c-0.046,0.344-0.203,0.407-0.422,0.563c-0.218,0.156-0.672-0.328-0.891-0.313
		c-0.218,0.016-0.171,0.297-0.046,0.422s0.422-0.015,0.656,0.266c0.234,0.281-0.047,0.375-0.25,0.703
		c-0.203,0.329-0.703,0.203-0.969,0.063c-0.266-0.141-0.172-0.516-0.031-0.844c0.14-0.328-0.141-0.422-0.532-0.375
		c-0.39,0.047-0.25,0.25-0.578,0.484c-0.328,0.235-0.234,0.031-0.641,0.172c-0.406,0.141-0.109,0.313-0.281,0.594
		c-0.172,0.281-0.375,0.219-0.5,0.422c-0.125,0.203,0.023,0.719-0.148,0.922C59.845,20.309,58.709,20.498,58.904,19.461z
		 M58.002,27.612c0.845-0.274,2.032-0.476,1.538-1.64c-0.491-1.157,0.017-1.565,1.021-1.962c2.013-0.794,3.421,2.768,0.895,3.229
		c-1.339,0.244-0.248,1.698-1.142,2.469C58.186,31.547,55.973,28.27,58.002,27.612z M52.142,15.218
		c0.717-0.529,1.381-2.317,1.98-2.337c0.272-0.009,0.434-0.218,0.596-0.401c0.262-0.297,1.408-0.667,1.646-0.168
		c0.234,0.493-0.26,0.882-0.495,1.344c-0.255,0.503,0.379,0.869,0.323,1.511c-0.033,0.379-0.672,0.533-0.993,0.318
		c-0.166-0.111,0.116-2.232-0.658-1.897c-0.678,0.293-1.464,2.526-2.445,2.804c-0.619,0.176-1.64-0.708-1.09-1.672
		C51.181,14.415,51.771,15.492,52.142,15.218z M50.297,10.315c0.541-0.502-0.334-2.089,0.455-1.999
		c0.864,0.022,0.535,2.103,0.503,2.38c-0.095,0.829-0.881,0.292-1.322,0.871c-0.445,0.675-1.355,0.655-1.23-0.217
		c0.065-0.456-0.325-0.315-0.477-0.792C48.367,10.141,49.753,10.82,50.297,10.315z M45.633,31.388
		c0.499-1.608,1.524-1.859,1.052-3.475c-0.009-0.032-0.018-0.063-0.026-0.095V26.61c0.048-0.176,0.112-0.338,0.184-0.491
		c0.22-0.472,1.384-0.095,2.045-0.315c0.661-0.22,0.158-0.818,0.536-1.668c0.377-0.85,0.975-0.157,1.542-0.661
		c0.566-0.504-0.094-0.315-0.221-1.385c-0.125-1.07,1.417-1.385,2.361-1.322c0.945,0.063,0.787,0.598,0.913,1.165
		c0.126,0.566-0.157,0.944,0.189,1.605c0.346,0.661,0.566-0.094,1.479,0c0.913,0.095,0.835,0.362,0.992,0.488
		c0.157,0.126,0.157,0.566,0.063,1.259c-0.095,0.692-0.409,0.818-0.85,1.133c-0.441,0.315-1.354-0.661-1.794-0.63
		c-0.441,0.032-0.347,0.599-0.095,0.85c0.252,0.252,0.85-0.031,1.322,0.536c0.472,0.566-0.094,0.755-0.503,1.416
		c-0.41,0.661-1.417,0.409-1.952,0.126c-0.535-0.283-0.346-1.039-0.063-1.7c0.283-0.661-0.283-0.85-1.07-0.755
		c-0.787,0.094-0.504,0.503-1.165,0.975c-0.661,0.473-0.472,0.063-1.29,0.347c-0.819,0.283-0.221,0.629-0.567,1.196
		c-0.346,0.566-0.755,0.441-1.007,0.85c-0.252,0.409,0.047,1.448-0.299,1.857c-0.456,0.539-0.423,0.904-0.705,1.13
		C45.688,33.43,45.303,32.454,45.633,31.388z M41.552,11.371c0.26-0.086,0.78-0.199,0.976,0.062c0.275,0.366,0.45-0.096,0.772-0.194
		c0.63-0.193,0.531,0.411,0.638,0.685c0.176,0.452-0.004,0.155,0.608,0.155c0.534,0,0.596,1.601-0.273,1.21
		c-0.138-0.061-0.255-0.736-0.396-0.676c-0.569,0.245-0.767-0.15-0.937-0.029c-0.186,0.134,0.314,2.915,0.02,3.536
		c-0.117,0.247-0.296,0.206-0.549,0.215c-0.174,0.006,0.083-0.947,0.033-1.676c-0.054-0.806-0.413-1.399-0.585-1.489
		c-0.654-0.34-0.367-0.434-0.487-0.965C41.379,12.236,41.184,11.493,41.552,11.371z M39.493,25.637
		c0.845-0.162,1.137-0.097,1.137-0.552c0-1.427,0.686-3.019,2.339-2.241c2.233,1.051,1.025,4.246-0.216,4.194
		c-1.031,0.01-1.144-0.059-1.214,0.97c-0.108,0.808-1.708,0.958-1.981,0.845c-0.39-0.163,0.163,0.617-0.552,1.104
		c-0.715,0.487-3.021,0.39-3.67-0.227c-0.65-0.617-1.105-1.397-0.325-2.112c0.779-0.714,1.624-1.071,2.371-0.682
		c0.747,0.39,1.234,0.845,1.559,0.423C39.266,26.936,38.649,25.8,39.493,25.637z M38.682,17.562
		c0.292,0.613-0.324,1.099-0.616,1.674c-0.317,0.626,0.472,1.081,0.403,1.88c-0.041,0.472-0.837,0.665-1.237,0.397
		c-0.78-0.523-0.186-1.646-1.473-1.393c-0.793,0.156-0.845-1.816,0.132-1.849c0.339-0.011,0.54-0.272,0.742-0.5
		C36.96,17.401,38.387,16.941,38.682,17.562z M34.859,9.684c0.967-0.894,1.68-0.367,1.656-0.152
		c-0.038,0.327-0.568,0.298-1.028,0.542c-0.445,0.235-0.819,0.744-0.987,0.964c-0.345,0.524-1.05,0.508-0.953-0.168
		c0.05-0.353-0.253-0.244-0.37-0.614C33.059,9.886,34.186,9.667,34.859,9.684z M35.262,31.329c0.114,0.996-0.25,1.917-3.04,1.917
		c-0.98,0-0.908-0.787-2.378-0.42c-1.47,0.368-1.338,1.319-3.176,2.503c-1.52,0.979-3.769-1.094-2.161-3.469
		c0.781-1.153,3.325-3.045,4.611-1.758c0.613,0.612,1.144,0.04,3.349-0.45C34.472,29.207,35.143,30.303,35.262,31.329z
		 M30.606,21.87c0.398,1.024-0.01,0.352,1.374,0.352c1.21,0,1.351,3.622-0.617,2.739c-0.311-0.14-0.578-1.668-0.895-1.531
		c-1.29,0.555-1.736-0.339-2.121-0.065c-0.423,0.301,0.352,1.671-0.314,3.077c-0.264,0.558-0.67,0.467-1.242,0.487
		c-0.833,0.028-0.151-1.852-0.892-2.239c-1.48-0.77-0.831-0.981-1.103-2.184c0.016,0.07-0.424-1.612,0.409-1.887
		c0.588-0.195,1.765-0.45,2.209,0.14c0.622,0.828,1.018-0.217,1.747-0.44C30.588,19.883,30.364,21.249,30.606,21.87z M27.275,12.019
		c0.182,0.367,0.017,1.061-0.128,1.413c-0.266,0.643,0.55,0.065,0.908,0.952c0.169,0.42,0.24,0.664-0.188,0.867
		c-0.408,0.195-1.464,0.235-1.688-0.211c-0.285-0.569,0.612-1.387-0.046-1.463c-0.397-0.046-0.509-1.201-0.662-1.371
		c0-0.408,0.379-0.832,0.921-0.807C26.973,11.426,26.979,11.422,27.275,12.019z M24.562,6.559c0.207,0.183,0.095,0.479,0.355,0.425
		c0.26-0.053,0.284-0.402,0.681-0.331c0.396,0.071,0.508,0.207,0.52,0.408c0.012,0.202,0.018,0.45-0.349,0.61
		c-0.367,0.16-0.444,0.296-0.645,0.456c-0.332,0.263-0.985,0.291-0.929-0.202c0.03-0.26,0.124-0.278,0.13-0.443
		c0.006-0.166,0-0.178-0.29-0.125C23.288,7.495,23.976,6.04,24.562,6.559z M25.521,41.25c-0.622,0.088-0.93,0.197-1.048,0.837
		c-0.082,0.445-0.273,1.312-0.622,1.884c-0.757,1.244-2.607,0.2-2.986-0.421c-0.367-0.603-0.682-2.137,0.397-2.79
		c0.494-0.298,1.109-0.454,1.688-0.334c0.453,0.094,0.216-0.049,0.622-1.061C25.344,34.951,28.254,40.863,25.521,41.25z
		 M18.909,22.987c-0.736-0.085-0.941-2.226-1.227-2.541c0-0.756,0.703-1.542,1.708-1.496c1.077,0.051,1.086,0.043,1.636,1.149
		c0.338,0.681,0.031,1.967-0.238,2.618c-0.493,1.193,1.019,0.121,1.683,1.766c0.314,0.777,0.445,1.23-0.347,1.607
		c-0.758,0.361-2.714,0.434-3.128-0.392C18.467,24.644,20.13,23.127,18.909,22.987z M19.193,2.21
		c0.26-0.086,0.779-0.199,0.975,0.061c0.275,0.366,0.45-0.095,0.772-0.194c0.631-0.193,0.531,0.411,0.638,0.685
		c0.176,0.453-0.004,0.156,0.608,0.156c0.534,0,0.596,1.6-0.273,1.21c-0.138-0.063-0.255-0.737-0.395-0.677
		c-0.57,0.246-0.767-0.149-0.937-0.028c-0.187,0.133,0.156,0.738-0.139,1.359c-0.117,0.247-0.296,0.207-0.549,0.215
		c-0.368,0.013-0.066-0.818-0.394-0.989c-0.653-0.34-0.367-0.433-0.487-0.965C19.019,3.075,18.825,2.332,19.193,2.21z M16.253,9.771
		c0.458,0.19,0.328,0.594,0.557,0.785c0.228,0.19,0.213,0.663-0.023,0.876c-0.236,0.214-0.877,0.229-1.159,0.008
		c-0.282-0.221-0.236-0.351-0.373-0.701C14.863,9.738,15.474,9.446,16.253,9.771z M14.121,15.025
		c-0.094-0.468,1.508-1.011,3.231-1.223c1.356-0.166,1.48-0.881,2.293-0.474c0.377,0.188,0.085,1.383,0.482,1.302
		s0.492-1.266,1.096-1.158c0.605,0.108,0.776,0.316,0.794,0.622c0.018,0.307,0.027,0.686-0.532,0.929
		c-0.559,0.244-0.677,0.451-0.983,0.695c-0.506,0.402-1.502,0.444-1.417-0.307c0.046-0.397,0.19-0.424,0.199-0.676
		c0.009-0.253,0-0.271-0.442-0.19c-0.161,0.03-1.484-0.039-2.302,0.304c-0.507,0.213-0.454,0.876-0.915,0.936
		C14.598,15.917,14.156,15.201,14.121,15.025z M13.597,26.04c0.604,0.704,0.101,1.509,0.604,2.38
		c0.503,0.872,1.441,0.604,1.173,1.811s-0.939,2.145-0.469,2.246c0.469,0.1,1.508-0.604,2.347-0.838
		c0.838-0.235,1.877-0.302,1.206-0.972c-0.67-0.671-1.978-1.342-1.676-2.213c0.302-0.872,1.442-2.146,3.252-0.872
		c1.811,1.274,0.436,1.878,1.107,3.286c0.737,1.609,2.112,1.005,2.112,3.017c0,2.012-0.134,2.682-1.073,3.218
		c-0.939,0.537-1.676,0.838-2.012-0.67c-0.103-0.466,0.611-1.202,0.785-1.933c0.547-2.295-1.466-2.804-1.455-2.395
		c0.071,2.762-3.052,2.744-3.588,2.518c-0.871-0.369-0.67-0.939-1.206-0.57c-0.537,0.368-1.476,1.005-1.811,0.134
		c-0.335-0.872-1.039-1.207-0.469-2.113c0.57-0.905,0.134-0.771,0.134-1.676c0-0.905,0.872-1.274,0.536-1.71
		c-0.335-0.435-2.011,0.369-2.279-0.301C9.752,25.729,12.708,25.003,13.597,26.04z M7.575,33.789
		c0.362-0.219,0.813-0.333,1.239-0.245c0.332,0.069,0.158-0.037,0.455-0.778c1.301-3.239,3.435,1.098,1.431,1.382
		c-0.457,0.065-0.683,0.145-0.769,0.614c-0.061,0.327-0.201,0.963-0.456,1.383c-0.556,0.913-1.913,0.146-2.191-0.31
		C7.014,35.393,6.783,34.268,7.575,33.789z M10.527,45.353c-0.736-0.776-0.327-1.633-0.654-2.409s-1.593-0.817-2.206-1.348
		c-0.612-0.531-0.347-1.368-0.347-1.368c0.674-1.082,1.123-1.45,1.96-1.266c0.838,0.184,1.858,0.429,1.858,1.123
		c0,0.694,0.082,1.613,0.491,2.124c0.408,0.51,0.98,0.429,1.531,0.939c0.552,0.511,0.531,1.246,0.899,1.634
		c0.368,0.388,0.898,0.796,1.409,0.367c0.51-0.429,0.388-2.287-0.122-2.716c-0.511-0.428-1.43,0.245-2.063-0.449
		c-0.633-0.694-0.429-0.613-0.817-1.511c-0.294-0.682-0.338-2.137,1.144-2.369c1.596-0.25,2.471,0.776,2.899,1.47
		c0.429,0.695,0.797,1.818,0.94,2.635c0.143,0.817,0.551,0.776,1.347,1.266c0.797,0.49,0.634,2.287-0.142,2.695
		c-0.776,0.409-1.062,0.449-1.593,1.348c-0.531,0.898-1.715,1.389-2.9,0.898c-1.184-0.49-1.511-2.164-1.797-2.45
		C12.078,45.68,11.262,46.129,10.527,45.353z M18.407,55.195c-0.052,1.204-1.466,2.356-2.182,2.53
		c-0.715,0.175-0.628,0.663-1.466,0.89c-0.838,0.227-1.972,0.14-2.216-0.872c-0.245-1.012,0.104-1.257,0.104-1.257
		c0.245-0.803,0.89-0.471,1.501-1.134c0.611-0.663,0.611-1.501,1.519-1.693C16.574,53.467,18.459,53.99,18.407,55.195z
		 M22.625,67.231c0,2.094-0.14,2.792-1.117,3.351c-0.977,0.558-1.745,0.873-2.094-0.698c-0.108-0.485,0.635-1.251,0.817-2.013
		c0.57-2.389-1.526-2.919-1.515-2.493c0.074,2.875-3.178,2.857-3.735,2.621c-0.908-0.384-0.698-0.978-1.257-0.593
		c-0.558,0.383-1.536,1.047-1.885,0.139c-0.349-0.907-1.082-1.257-0.489-2.199c0.594-0.942,0.14-0.803,0.14-1.745
		c0-0.943,0.907-1.327,0.559-1.78c-0.349-0.454-2.095,0.384-2.374-0.314c-1.106-2.766,1.971-3.524,2.897-2.444
		c0.628,0.733,0.105,1.571,0.628,2.478c0.524,0.908,1.501,0.629,1.222,1.885c-0.279,1.257-0.977,2.234-0.489,2.339
		c0.489,0.105,1.571-0.628,2.444-0.873c0.872-0.244,1.954-0.314,1.256-1.012c-0.698-0.698-2.059-1.396-1.745-2.304
		c0.314-0.907,1.501-2.234,3.386-0.907c1.885,1.326,0.454,1.955,1.152,3.42C21.194,65.765,22.625,65.137,22.625,67.231z
		 M20.325,53.362c-0.541,0.489-2.007,0.524-2.653,0.018c-0.646-0.507-0.541-0.803-0.855-1.606c-0.897-2.292,0.501-2.96,2.286-2.216
		c1.047,0.437,0.751,1.361,1.274,1.797C20.901,51.791,20.866,52.873,20.325,53.362z M30.292,50.116
		c-0.279,0.628-1.64,0.907-2.199,0.524c-0.558-0.384-1.082-0.559-1.536-0.035c-0.453,0.523-1.64,1.675-2.722,1.57
		s-2.444-0.174-2.967-1.675c-1.019-2.92,0.891-3.914,3.316-2.897c1.082,0.453,1.606,1.326,2.408,0.942
		c0.803-0.384,1.117-1.152,2.479-0.942C30.432,47.812,30.572,49.488,30.292,50.116z M29.737,40.089
		c0.102-0.899,0.429-0.96,0.449-1.532c0.02-0.572,0-0.612-1.001-0.429c-2.579,0.474-0.203-4.547,1.817-2.757
		c0.715,0.633,0.327,1.655,1.226,1.471c0.898-0.184,0.98-1.389,2.348-1.144s1.756,0.715,1.797,1.409
		c0.041,0.695,0.062,1.552-1.205,2.103c-1.266,0.552-1.531,1.021-2.225,1.573C31.797,41.692,29.543,41.787,29.737,40.089z
		 M43.812,42.174c-0.123,1.103-0.776,2.41-1.511,3.267c-0.735,0.858-1.144,1.552-2.614,1.552c-1.47,0-2.614-0.245-2.818-0.776
		c-0.204-0.531-0.654-1.143-1.185-1.429c-0.531-0.286-0.98,0.367-1.919,0.367s-2.124-0.939-1.92-1.96
		c0.205-1.021,0.531-1.593,1.92-1.675c1.388-0.081,1.797,1.021,2.164,1.471c0.368,0.449,1.267,0.898,1.675,0.326
		c0.408-0.571-0.45-0.98,1.143-1.266c0.291-0.052,4.627-0.316,2.819-1.878c-0.973-0.84-3.143-2.262-1.022-3.635
		c0.695-0.449,1.307-1.593,2.533-1.511c2.633,0.175,3.677,2.547,3.049,4.866C45.647,41.665,43.953,40.905,43.812,42.174z
		 M51.039,51.731c-0.724,0-0.671-0.582-1.757-0.31c-1.086,0.271-0.988,0.974-2.346,1.848c-1.122,0.723-2.784-0.808-1.596-2.562
		c0.577-0.852,2.456-2.249,3.406-1.299c0.453,0.453,0.845,0.03,2.474-0.331c1.48-0.33,1.976,0.479,2.063,1.238
		C53.368,51.051,53.099,51.731,51.039,51.731z M57.397,63.914c-2.457-0.245-0.666-2.773-1.248-3.77
		c-0.398-0.683-1.672-0.265-1.532-0.951c0.71-3.486-1.933-1.181-1.933-4.132c0-1.897,1.799-1.158,1.623-4.045
		c-0.112-1.854,2.522-1.244,2.919-0.444c0.727,1.464-1.388,2.334-1.038,3.027c0.872,1.729-1.413,3.247,1.443,3.044
		c0.617-0.044,1.184-0.38,1.546,0.054c1.869,2.243,0.28,2.745-0.018,3.534C59.147,60.263,60.213,64.194,57.397,63.914z
		 M57.109,46.823c-1.871-0.293-0.13,2.032-2.104,2.501c-2.841,0.674-0.996-2.072-4.901-1.959c-1.733,0.05-0.864-4.555,2.69-3.329
		c3.259,1.123,5.83-1.33,7.21,0.25C61.349,45.826,60.828,47.407,57.109,46.823z M58.84,40.537c-1.495-1.001-0.363-4.13-2.823-2.668
		c-5.691,3.383-6.783-2.421,0.255-3.542c0.64-0.103,1.034-0.522,1.42-0.958c0.626-0.709,3.359-1.59,3.925-0.401
		c0.56,1.175-0.62,2.105-1.179,3.207c-0.609,1.199,0.903,2.072,0.771,3.601C61.13,40.681,59.605,41.049,58.84,40.537z
		 M72.872,73.859c-1.186,0.209-1.605-0.14-1.815-1.396c-0.209-1.257-0.139-1.815-0.768-1.815c-0.628,0-2.094,1.675-2.931,1.047
		c-0.838-0.628-1.641-1.152-1.048-1.99c0.594-0.837,1.606,0.14,2.025-0.209c0.419-0.349,0.488-1.675-0.454-1.711
		c-0.942-0.034-2.164,0.594-3.281,1.083c-1.117,0.488-2.06,0.733-2.548-0.21c-0.41-0.79,2.251-2.318,0.48-3.017
		c-3.659-1.442-0.018-3.855,3.289-2.114c1.327,0.698,0.768,2.374,2.514,2.374c1.745,0,2.722-1.396,3.839-0.698
		c1.117,0.698,0.908,2.024,1.536,2.792s1.396,1.117,1.396,2.513S74.059,73.65,72.872,73.859z M84.088,64.182
		c-0.663,1.013-2.548,1.397-2.653,2.479s1.501,0.314,1.117,1.326c-0.384,1.012-1.536,1.501-1.222,2.129
		c0.314,0.629,0.384-0.314,1.606-0.105c1.222,0.21,1.78,1.013,1.501,1.467c-0.279,0.453-2.269,0.628-2.199,1.57
		c0.07,0.943,0.664,0.524,1.082,2.339c0.419,1.815-0.733,1.815-1.221,2.094c-0.489,0.279-1.641,0.314-2.13-0.453
		c-0.488-0.769-0.139-1.012,0.035-2.164c0.175-1.152-0.104-1.92-0.733-2.304c-0.628-0.383-2.199,0.035-2.268-1.5
		c-0.07-1.536-0.14-1.92-1.327-1.92c-2.071,0-1.212-3.289,0.698-3.805c1.291-0.349,1.85,0.803,2.583,0.21
		c0.733-0.594,0-1.466,0.802-2.304c0.803-0.838,1.99-1.85,3.142-1.361C84.053,62.367,84.751,63.17,84.088,64.182z M85.592,51.607
		c-0.105,0.768-0.454,0.907-0.943,1.256c-0.489,0.349-1.501-0.732-1.99-0.698c-0.488,0.035-0.384,0.664-0.104,0.943
		c0.279,0.279,0.942-0.035,1.466,0.593c0.523,0.629-0.105,0.838-0.559,1.571s-1.571,0.454-2.164,0.14
		c-0.593-0.314-0.384-1.152-0.07-1.885c0.315-0.733-0.314-0.943-1.186-0.838c-0.873,0.105-0.559,0.559-1.292,1.082
		c-0.733,0.524-0.524,0.07-1.431,0.384c-0.908,0.314-0.245,0.698-0.628,1.326c-0.384,0.629-0.838,0.489-1.117,0.943
		c-0.28,0.454,0.052,1.606-0.332,2.059c-0.377,0.445-2.913,0.869-2.478-1.448c0.105-0.559,0.733-0.698,1.361-0.908
		c0.628-0.209,0.559-0.768,0.314-1.606c-0.244-0.837-0.07-1.465,0.175-1.989c0.244-0.524,1.536-0.105,2.269-0.349
		c0.733-0.245,0.174-0.908,0.593-1.85c0.419-0.943,1.082-0.175,1.711-0.733c0.628-0.559-0.105-0.349-0.245-1.536
		s1.571-1.536,2.618-1.466c1.047,0.07,0.873,0.663,1.012,1.291c0.14,0.629-0.174,1.048,0.21,1.781c0.384,0.733,0.628-0.105,1.64,0
		c1.012,0.104,0.925,0.401,1.1,0.541C85.696,50.351,85.696,50.839,85.592,51.607z M93.043,46.17
		c-0.776,0.409-1.062,0.449-1.593,1.348c-0.531,0.898-1.715,1.389-2.9,0.898c-1.184-0.49-1.511-2.164-1.797-2.45
		s-1.103,0.163-1.838-0.613c-0.735-0.776-0.326-1.633-0.653-2.409c-0.327-0.776-1.593-0.817-2.206-1.348
		c-0.612-0.531-0.347-1.368-0.347-1.368c0.674-1.082,1.123-1.45,1.96-1.266s1.858,0.429,1.858,1.123
		c0,0.694,0.082,1.613,0.491,2.124c0.408,0.51,0.98,0.429,1.531,0.939c0.551,0.511,0.531,1.246,0.899,1.634
		c0.367,0.388,0.898,0.796,1.409,0.367c0.51-0.429,0.388-2.287-0.123-2.716c-0.51-0.428-1.429,0.245-2.062-0.449
		c-0.633-0.694-0.429-0.613-0.817-1.511c-0.295-0.682-0.338-2.137,1.144-2.369c1.595-0.25,2.47,0.776,2.899,1.47
		c0.429,0.695,0.797,1.818,0.94,2.635c0.143,0.817,0.551,0.776,1.347,1.266C93.982,43.965,93.819,45.762,93.043,46.17z
		 M94.558,36.433c-0.103-0.466,0.61-1.202,0.784-1.933c0.548-2.295-1.464-2.804-1.454-2.395c0.071,2.762-3.053,2.744-3.588,2.518
		c-0.871-0.369-0.67-0.939-1.206-0.57c-0.537,0.368-1.476,1.005-1.811,0.134c-0.335-0.872-1.039-1.207-0.469-2.113
		c0.57-0.905,0.134-0.771,0.134-1.676c0-0.905,0.872-1.274,0.536-1.71c-0.335-0.435-2.011,0.369-2.279-0.301
		c-1.063-2.657,1.893-3.384,2.782-2.347c0.603,0.704,0.101,1.509,0.603,2.38c0.503,0.872,1.442,0.604,1.174,1.811
		c-0.268,1.207-0.939,2.145-0.47,2.246c0.47,0.1,1.509-0.604,2.347-0.838c0.838-0.235,1.878-0.302,1.207-0.972
		c-0.67-0.671-1.978-1.342-1.676-2.213c0.302-0.872,1.442-2.146,3.252-0.872c1.81,1.274,0.436,1.878,1.105,3.286
		c0.738,1.609,2.113,1.005,2.113,3.017c0,2.012-0.135,2.682-1.073,3.218C95.631,37.64,94.893,37.941,94.558,36.433z M95.651,40.76
		c0.494-0.298,1.109-0.454,1.688-0.334c0.453,0.094,0.216-0.049,0.621-1.061c1.772-4.414,4.683,1.498,1.949,1.885
		c-0.621,0.088-0.93,0.197-1.048,0.837c-0.083,0.445-0.274,1.312-0.622,1.884c-0.757,1.244-2.607,0.2-2.986-0.421
		C94.888,42.947,94.572,41.413,95.651,40.76z M104.682,50.116c-0.279,0.628-1.641,0.907-2.199,0.524
		c-0.559-0.384-1.082-0.559-1.535-0.035c-0.453,0.523-1.641,1.675-2.723,1.57s-2.444-0.174-2.967-1.675
		c-1.02-2.92,0.89-3.914,3.316-2.897c1.082,0.453,1.604,1.326,2.407,0.942c0.804-0.384,1.117-1.152,2.478-0.942
		C104.822,47.812,104.961,49.488,104.682,50.116z M104.125,40.089c0.104-0.899,0.43-0.96,0.451-1.532
		c0.02-0.572,0-0.612-1.002-0.429c-2.578,0.474-0.203-4.547,1.817-2.757c0.715,0.633,0.327,1.655,1.226,1.471
		s0.98-1.389,2.349-1.144s1.756,0.715,1.797,1.409c0.041,0.695,0.062,1.552-1.205,2.103c-1.267,0.552-1.531,1.021-2.226,1.573
		C106.187,41.692,103.933,41.787,104.125,40.089z M120.516,39.893c-0.479,1.772-2.173,1.012-2.314,2.281
		c-0.123,1.103-0.775,2.41-1.512,3.267c-0.734,0.858-1.143,1.552-2.613,1.552s-2.613-0.245-2.817-0.776
		c-0.205-0.531-0.654-1.143-1.185-1.429c-0.531-0.286-0.98,0.367-1.92,0.367s-2.123-0.939-1.92-1.96
		c0.204-1.021,0.531-1.593,1.92-1.675c1.389-0.081,1.797,1.021,2.164,1.471c0.368,0.449,1.266,0.898,1.676,0.326
		c0.407-0.571-0.451-0.98,1.143-1.266c0.291-0.052,4.627-0.316,2.818-1.878c-0.973-0.84-3.144-2.262-1.021-3.635
		c0.695-0.449,1.307-1.593,2.532-1.511C120.1,35.202,121.144,37.574,120.516,39.893z M121.945,29.629
		c-0.252,0.409,0.047,1.448-0.3,1.857c-0.106,0.126-0.403,0.249-0.75,0.296v0.959c-1.448-1.725-0.778-2.833,0.153-3.206V28.98
		c0.047-0.151,0.04-0.337,0-0.556v-2.238c0.01-0.023,0.02-0.045,0.031-0.067c0.22-0.472,1.384-0.095,2.045-0.315
		c0.66-0.22,0.158-0.818,0.535-1.668s0.976-0.157,1.543-0.661c0.566-0.504-0.094-0.315-0.221-1.385
		c-0.126-1.07,1.416-1.385,2.36-1.322s0.787,0.598,0.913,1.165c0.126,0.566-0.157,0.944,0.189,1.605
		c0.346,0.661,0.565-0.094,1.479,0c0.913,0.095,0.834,0.362,0.992,0.488c0.156,0.126,0.156,0.566,0.063,1.259
		c-0.095,0.692-0.408,0.818-0.85,1.133c-0.441,0.315-1.354-0.661-1.795-0.63c-0.44,0.032-0.346,0.599-0.094,0.85
		c0.252,0.252,0.85-0.031,1.321,0.536c0.472,0.566-0.094,0.755-0.503,1.416c-0.41,0.661-1.417,0.409-1.952,0.126
		c-0.534-0.283-0.346-1.039-0.063-1.7c0.283-0.661-0.282-0.85-1.069-0.755c-0.787,0.094-0.504,0.503-1.165,0.975
		c-0.661,0.473-0.472,0.063-1.29,0.347c-0.819,0.283-0.22,0.629-0.567,1.196C122.605,29.345,122.197,29.22,121.945,29.629z
		 M134.047,71.726c1.093,2.201,1.914,2.478,1.39,3.656c-0.508,1.142-3.015,0.284-3.295-0.088c-1.146-1.518-0.553-2.62-1.241-4.188
		c-0.4-0.913-0.941-0.391-1.841-0.061c-0.537,0.197-0.957,4.301-6.218,2.959c-0.284-0.073-0.506-0.25-0.67-0.49
		c0.16-0.175,0.3-0.438,0.398-0.799l-0.441-1.923c0.019-0.034,0.037-0.068,0.058-0.1c0.491-0.787,4.364,0.047,2.929-3.804
		c-0.105-0.282-0.643-2.057-0.559-2.27c0.357-0.898-0.225-1.642,1.152-2.49c1.012-0.624,1.244-0.793,2.181,0.048
		c1.567,1.407-0.862,5.284,3.073,3.742c2.765-1.083,5.828,1.784,4.309,3.081C134.639,69.539,133.551,70.725,134.047,71.726z
		 M147.107,73.859c-1.186,0.209-1.604-0.14-1.814-1.396c-0.209-1.257-0.139-1.815-0.768-1.815s-2.095,1.675-2.933,1.047
		c-0.837-0.628-1.64-1.152-1.047-1.99c0.594-0.837,1.606,0.14,2.024-0.209c0.42-0.349,0.488-1.675-0.453-1.711
		c-0.942-0.034-2.164,0.594-3.281,1.083c-1.117,0.488-2.059,0.733-2.549-0.21c-0.409-0.79,2.252-2.318,0.48-3.017
		c-3.658-1.442-0.018-3.855,3.29-2.114c1.326,0.698,0.769,2.374,2.513,2.374c1.746,0,2.723-1.396,3.84-0.698
		c1.117,0.698-0.24,2.934,0.389,3.702c0.628,0.768,2.543,0.207,2.543,1.603S148.295,73.65,147.107,73.859z M156.336,77.48
		c-0.489,0.279-1.641,0.314-2.13-0.453c-0.488-0.769-0.14-1.012,0.034-2.164c0.176-1.152-0.104-1.92-0.732-2.304
		c-0.628-0.383-2.199,0.035-2.268-1.5c-0.07-1.536,0.889-2.276-0.299-2.276c-2.07,0-2.24-2.933-0.33-3.449
		c1.291-0.349,1.85,0.803,2.582,0.21c0.733-0.594,0-1.466,0.803-2.304c0.803-0.838,1.99-1.85,3.142-1.361
		c1.152,0.488,1.851,1.291,1.187,2.303c-0.662,1.013-2.547,1.397-2.652,2.479s1.501,0.314,1.117,1.326
		c-0.385,1.012-1.536,1.501-1.223,2.129c0.315,0.629,0.385-0.314,1.606-0.105c1.222,0.21,1.78,1.013,1.501,1.467
		c-0.279,0.453-2.27,0.628-2.199,1.57c0.07,0.943,0.664,0.524,1.082,2.339C157.977,77.202,156.824,77.202,156.336,77.48z"/>
	<path fill="#F00808" d="M151.863,95.592c0.373-0.338,0.397-1.087,0.035-1.388c-0.361-0.302-0.156-0.942-0.882-1.244
		c-1.233-0.514-2.2-0.052-1.581,1.533c0.217,0.556,0.145,0.761,0.592,1.11C150.474,95.954,151.488,95.93,151.863,95.592z"/>
	<path fill="#F00808" d="M147.908,83.729c0.646-0.506,3.574-0.451,2.485-2.172c-0.005-0.01-1.603-1.102-1.815-1.955
		c-0.078,0.02-0.161,0.035-0.25,0.045c-1.363,0.158-1.393,0.609-1.269,2.384s-1.735,1.502-2.407,2.026
		c-0.67,0.525-0.89,1.444-0.535,2.746c0.354,1.299,0.787,1.533,0.328,2.481c-0.242,0.498-0.849,0.815-1.522,0.897
		c-0.757,0.436-3.154-0.313-3.224,1.317c-0.129,3.056,4.403-0.276,4.438-0.28c2.481-0.305,1.419,0.313,3.261,0.562
		c0.676,0.091,1.36-0.343,1.793-2.015C150.619,84.249,143.558,87.143,147.908,83.729z"/>
	<path fill="#F00808" d="M147.195,105.745c-0.604-0.108-0.64,0.424-1.037,0.505c-0.396,0.081-0.226-0.369-0.541-0.65
		c-0.893-0.789-1.941,1.428-0.803,1.219c0.442-0.081,0.451-0.063,0.442,0.189s-0.154,0.279-0.199,0.676
		c-0.085,0.75,0.911,0.709,1.417,0.308c0.307-0.244,0.424-0.451,0.983-0.694c0.559-0.244,0.55-0.623,0.532-0.93
		C147.972,106.061,147.801,105.854,147.195,105.745z"/>
	<path fill="#F00808" d="M151.697,103.098c0.098,0.32,0.303,0.568,0.529,0.711c0.495,0.31,0.971-0.346,1.098-0.722
		c0.132-0.387,0.06-1.628-0.57-1.589c-0.291,0.018-0.648,0.209-0.828,0.314c-0.258,0.152-0.372,0.039-0.555-0.234
		c-0.801-1.201-2.219,2.148-0.205,1.564C151.628,103.01,151.621,102.846,151.697,103.098z"/>
	<path fill="#F00808" d="M186.846,100.566c-0.182-0.073-0.396-0.133-0.676-0.057c-0.999,0.271-1.449,1.991-0.365,1.991
		c0.621,0,0.658,0.201,0.694,1.005c0.015,0.307,0.142,0.465,0.313,0.553c0-0.607-0.002-1.219-0.004-1.836L186.846,100.566z"/>
	<path fill="#F00808" d="M145.404,115.697c-0.49-0.012-1.31,0.146-1.225,0.416c0.086,0.27,0.307,0.189,0.27,0.445
		c-0.07,0.492,0.442,0.504,0.693,0.123c0.249-0.325,0.692-0.023,0.745-0.49C145.906,116.034,145.891,115.709,145.404,115.697z"/>
	<path fill="#F00808" d="M153.135,110.951c-0.429-0.078-0.455,0.301-0.736,0.359c-0.283,0.058-0.16-0.264-0.386-0.463
		c-0.635-0.562-1.381,1.016-0.571,0.867c0.315-0.059,0.321-0.046,0.315,0.135c-0.007,0.179-0.108,0.197-0.142,0.48
		c-0.061,0.533,0.647,0.503,1.006,0.219c0.22-0.175,0.303-0.322,0.701-0.494c0.396-0.174,0.391-0.443,0.377-0.662
		C153.688,111.176,153.564,111.028,153.135,110.951z"/>
	<path fill="#F00808" d="M137.074,118.93c-0.49-0.013-1.31,0.146-1.225,0.416c0.086,0.27,0.307,0.189,0.27,0.446
		c-0.07,0.491,0.442,0.503,0.693,0.122c0.249-0.326,0.692-0.023,0.745-0.49C137.576,119.266,137.561,118.941,137.074,118.93z"/>
	<path fill="#F00808" d="M175.191,82.551c1.879-1.357-0.703-2.947-3.133-2.701c-2.705,0.274-1.76,0.974-2.06,2.893
		c-0.158,1.012-0.597,1.859-1.8,2.273c-1.108,0.383-3.373,1.26-1.84,2.678c0.485,0.449,2.461,0.669,2.875-0.191
		c0.25-0.518,1.47-2.346,2.047-1.5c0.377,0.549,2.535,2.639,2.541-0.053C173.824,84.523,172.887,82.896,175.191,82.551z"/>
	<path fill="#F00808" d="M131.951,114.273c-0.49-0.014-1.31,0.146-1.225,0.415c0.086,0.27,0.307,0.19,0.27,0.446
		c-0.07,0.492,0.442,0.504,0.693,0.123c0.248-0.326,0.691-0.023,0.745-0.492C132.453,114.61,132.438,114.285,131.951,114.273z"/>
	<path fill="#F00808" d="M133.908,86.883c-0.418-0.419,0.756-2.076,1.234-0.841c0.378,0.978,2.189-0.44,0.577-2.136
		c-0.584-0.615-0.608-1.309-0.372-1.858c-0.163-1.026-1.159-1.698-1.415-0.2c-0.327,1.922,0.192,5.313-2.688,3.885
		c-1.672-0.832-1.664-0.311-1.608,1.609c0.015,0.557,1.269,0.935,2.485,1.407C133.842,88.766,136.113,89.087,133.908,86.883z"/>
	<path fill="#F00808" d="M135.982,105.231c-0.611,0-0.432,0.297-0.607-0.155c-0.107-0.273-0.008-0.878-0.639-0.686
		c-0.322,0.099-0.496,0.561-0.771,0.194c-0.196-0.26-0.717-0.147-0.977-0.062c-0.367,0.121-0.187,0.803-0.18,0.834
		c0.12,0.531-0.167,0.625,0.487,0.965c0.327,0.171,0.026,1.001,0.394,0.988c0.252-0.008,0.432,0.031,0.549-0.215
		c0.295-0.621-0.047-1.226,0.139-1.358c0.17-0.122,0.367,0.274,0.937,0.028c0.14-0.061,0.259,0.615,0.396,0.676
		C136.578,106.832,136.517,105.231,135.982,105.231z"/>
	<path fill="#F00808" d="M138.541,111.309c-0.488-0.012-1.309,0.147-1.223,0.416c0.086,0.27,0.307,0.19,0.27,0.447
		c-0.07,0.492,0.441,0.504,0.693,0.123c0.248-0.326,0.691-0.023,0.746-0.492C139.045,111.646,139.029,111.321,138.541,111.309z"/>
	<path fill="#F00808" d="M185.952,96.227c0.114-1.308-1.179-2.054-0.658-3.078c0.478-0.942,1.485-1.736,1.008-2.74
		c-0.483-1.018-2.819-0.264-3.354,0.342c-0.33,0.373-0.66,0.801-1.215,0.818c-1.6,0.054-1.515,3.283-0.217,3.027
		c2.107-0.414,1.135,1.426,2.412,2.28C184.582,97.314,185.886,97,185.952,96.227z"/>
	<path fill="#F00808" d="M146.027,97.861c0.207-1.346-0.896-2.895-5.925-1.383c-0.7,0.211-1.344,0.25-1.919,0.166
		c-1.183,0.271-2.048,0.646-1.509,1.412c0.417,0.593,4.832-1.01,4.751-0.039c-0.082,0.975-1.338,0.686-2.318,1.385
		c-1.08,0.77-0.522,1.38,0.383,1.804c3.238,1.515,2.096,0.313,2.094-0.914c-0.001-0.63,0.583-1.366,1.931-1.237
		C144.641,99.162,145.708,99.926,146.027,97.861z"/>
	<path fill="#F00808" d="M164.912,102.6c-0.868-0.021-2.322,0.261-2.17,0.738c0.15,0.478,0.541,0.336,0.477,0.793
		c-0.125,0.871,0.785,0.891,1.23,0.217c0.44-0.58,1.227-0.043,1.322-0.871C165.802,103.198,165.775,102.621,164.912,102.6z"/>
	<path fill="#F00808" d="M168.33,96.656c0-1.917-1.311-1.342-2.014-2.876c-0.639-1.341,0.672-1.916-1.054-3.132
		c-1.725-1.213-2.812,0.002-3.099,0.832c-0.288,0.83,0.958,1.47,1.597,2.108c0.64,0.64-0.351,0.703-1.149,0.927
		s-1.789,0.895-2.236,0.799c-0.448-0.096,0.191-0.99,0.447-2.141s-0.64-0.895-1.118-1.726c-0.323-0.56-0.212-1.091-0.279-1.583
		c0.472-0.051,0.903-0.262,0.966-0.783c0.047-0.389,0.041-0.668,0.016-0.931c-0.854,0.274-1.869-0.156-2.437-1.909
		c-0.765-2.361-5.147-3.15-3.387,1.729c0.464,1.285,0.062,1.762-0.56,2.146c0.012,0.232-0.002,0.543-0.035,0.957
		c-0.051,0.617-0.269,1.841,0.59,2.001c0.015,0.003,1.558,0.513,1.629,0.171c0.303-0.063,0.303-0.852,0.386-1.677
		c0.448,0.344,1.769-0.239,2.058,0.135c0.318,0.415-0.512,0.767-0.512,1.629c0,0.863,0.415,0.735-0.128,1.599
		c-0.543,0.861,0.128,1.182,0.447,2.012c0.319,0.831,1.214,0.224,1.725-0.127c0.511-0.353,0.32,0.191,1.15,0.543
		c0.51,0.216,3.487,0.232,3.419-2.399c-0.01-0.39,1.908,0.095,1.387,2.282c-0.167,0.697-0.847,1.398-0.748,1.842
		c0.319,1.438,1.022,1.15,1.918,0.639C168.202,99.212,168.33,98.573,168.33,96.656z"/>
	<path fill="#F00808" d="M163.391,114.713c-0.488-0.013-1.308,0.146-1.223,0.416c0.086,0.269,0.306,0.189,0.27,0.446
		c-0.07,0.491,0.442,0.503,0.693,0.122c0.248-0.326,0.691-0.023,0.745-0.491C163.895,115.049,163.878,114.725,163.391,114.713z"/>
	<path fill="#F00808" d="M155.837,98.653c-0.196,0.487-0.081,0.556-0.3,0.511c-0.278-0.059-0.574,0.018-0.813,0.161
		c-0.519,0.313-0.367,1.052-0.191,1.343c0.183,0.299,1.074,0.803,1.438,0.202c0.167-0.274,0.259-0.692,0.3-0.907
		c0.057-0.308,0.204-0.359,0.504-0.402C158.091,99.374,156.689,96.528,155.837,98.653z"/>
	<path fill="#F00808" d="M171.038,106.497c-0.974,0.218-1.209,0.47-1.479,0.199c-0.568-0.568-1.693,0.267-2.037,0.776
		c-0.711,1.049,0.283,1.965,0.955,1.533c0.812-0.523,0.754-0.943,1.402-1.106c0.648-0.162,0.617,0.186,1.05,0.186
		c1.233,0,1.394-0.407,1.343-0.847C172.22,106.785,171.923,106.301,171.038,106.497z"/>
	<path fill="#F00808" d="M179.625,108.244c-0.73-0.344-1.034,0.359-1.034,0.99c0,0.201-0.129,0.172-0.502,0.244
		c-0.373,0.07-0.101,0.574-0.244,0.76c-0.143,0.188-0.358-0.014-0.688-0.186c-0.329-0.174-0.702-0.016-1.047,0.301
		c-0.344,0.315-0.144,0.66,0.144,0.932c0.287,0.273,1.306,0.316,1.621,0.102s0.071-0.561,0.244-0.488
		c0.12,0.05,0.827-0.016,0.875-0.373c0.03-0.454,0.081-0.424,0.536-0.43C180.077,110.12,180.611,108.708,179.625,108.244z"/>
	<path fill="#F00808" d="M180.563,116.645c-0.488-0.014-1.309,0.146-1.223,0.416c0.085,0.269,0.307,0.188,0.27,0.445
		c-0.071,0.492,0.441,0.504,0.692,0.123c0.249-0.326,0.692-0.023,0.745-0.492C181.064,116.981,181.05,116.656,180.563,116.645z"/>
	<path fill="#F00808" d="M176.387,100.729c0.441-0.577,1.227-0.041,1.322-0.87c0.031-0.278,0.004-0.854-0.859-0.876
		c-0.867-0.022-2.322,0.26-2.171,0.738c0.153,0.477,0.544,0.336,0.478,0.791C175.031,101.385,175.941,101.404,176.387,100.729z"/>
	<path fill="#F00808" d="M175.545,93.236c0.313-0.361,0.674-0.241,1.059,0.023c0.385,0.264,1.323,0.072,1.517-0.361
		c0.192-0.432,0.096-1.588-0.843-1.732s-1.154,0.385-1.709,0.65c-0.553,0.265-0.914-0.338-1.659-0.65
		c-1.673-0.701-2.989-0.016-2.286,1.997c0.361,1.035,1.299,1.084,2.045,1.155C174.414,94.391,175.232,93.598,175.545,93.236z"/>
</g>
</svg>
