<?xml version="1.0" encoding="UTF-8"?>
<!DOCTYPE svg PUBLIC "-//W3C//DTD SVG 1.1//EN" "http://www.w3.org/Graphics/SVG/1.1/DTD/svg11.dtd">
<!-- Creator: CorelDRAW -->
<svg xmlns="http://www.w3.org/2000/svg" xml:space="preserve" width="187px" height="148px" version="1.1" shape-rendering="geometricPrecision" text-rendering="geometricPrecision" image-rendering="optimizeQuality" fill-rule="evenodd" clip-rule="evenodd"
viewBox="0 0 186.999 147.486"
 xmlns:xlink="http://www.w3.org/1999/xlink"
 xmlns:xodm="http://www.corel.com/coreldraw/odm/2003">
 <defs>
   <clipPath id="id0">
    <path d="M69.622 5.532c-9.32,-0.113 -15.317,-0.1 -21.532,-0.475 -6.215,-0.375 -12.649,-1.137 -18.001,-2.044 -5.351,-0.908 -9.62,-1.96 -13.89,-3.013l-2.056 6.766c-2.101,6.05 -3.233,10.386 -4.916,16.285 -0.249,0.873 -0.435,1.453 -0.642,2.333 -2.36,10.025 -4.55,19.989 -6.162,30.214 -0.554,3.516 -0.787,7.435 -1.226,10.942l-0.435 5.757c-0.045,1.83 -0.234,3.899 -0.37,5.626 -0.078,0.987 0.009,2.192 -0.003,3.205 -0.013,1.158 -0.208,1.511 -0.203,2.794 0.009,2.038 0.069,4.202 0.011,6.226 -0.028,1.013 -0.181,1.575 -0.197,2.723l0.192 9.099c-0.03,8.303 0.172,15.985 0.183,24.267 0.002,1.267 0.207,1.666 0.202,2.996 -0.004,0.925 -0.065,2.104 0.005,3.001 0.131,1.645 0.218,4.048 0.519,5.469 1.056,4.985 5.703,6.849 10.073,7.859 3.312,0.766 6.714,1.111 10.138,1.576 4.01,0.545 19.376,0.399 23.493,-0.086 6.45,-0.761 15.507,-0.276 22.162,-1.971 7.272,-1.853 6.398,-2.822 7.435,-7.425 0.87,-3.869 2.219,-13.998 3.169,-16.919 0.807,-2.484 1.721,-7.868 2.195,-10.524 0.344,-1.99 1.133,-3.678 1.718,-5.612 1.344,-4.441 1.694,-7.626 2.92,-12.169 0.377,-1.398 0.722,-2.38 1.102,-3.854 0.997,-3.864 2.19,-8.249 2.968,-12.117 0.575,-2.856 1.095,-5.36 1.653,-8.289l2.191 -12.734c0.189,-0.998 0.23,-2.248 1.182,-2.596 0.952,0.348 0.993,1.598 1.182,2.596l2.191 12.734c0.558,2.929 1.077,5.433 1.652,8.289 0.779,3.868 1.972,8.253 2.968,12.117 0.38,1.474 0.725,2.456 1.103,3.854 1.226,4.543 1.576,7.728 2.919,12.169 0.585,1.934 1.375,3.622 1.719,5.612 0.473,2.654 1.389,8.042 2.195,10.524 0.949,2.921 2.299,13.05 3.169,16.919 1.037,4.603 0.163,5.572 7.434,7.425 6.656,1.695 15.712,1.21 22.163,1.971 4.117,0.485 19.483,0.631 23.492,0.086 3.425,-0.465 6.827,-0.81 10.138,-1.576 4.371,-1.01 9.018,-2.874 10.074,-7.859 0.301,-1.421 0.388,-3.824 0.519,-5.469 0.07,-0.897 0.009,-2.076 0.005,-3.001 -0.005,-1.33 0.2,-1.729 0.202,-2.996 0.011,-8.282 0.213,-15.964 0.183,-24.267l0.191 -8.764 -0.196 -3.058c-0.058,-2.024 0.002,-4.188 0.011,-6.226 0.004,-1.283 -0.19,-1.636 -0.204,-2.794 -0.011,-1.013 0.076,-2.218 -0.002,-3.205 -0.136,-1.727 -0.325,-3.796 -0.37,-5.626l-0.436 -5.757c-0.439,-3.507 -0.671,-7.426 -1.225,-10.942 -1.612,-10.225 -3.802,-20.189 -6.162,-30.214 -0.207,-0.88 -0.394,-1.46 -0.643,-2.333 -1.682,-5.899 -2.814,-10.235 -4.915,-16.285l-2.057 -6.766c-2.951,0.866 -5.902,1.731 -9.677,2.477 -3.774,0.745 -8.371,1.369 -13.806,1.869 -5.434,0.5 -11.706,0.875 -19.026,1.15 -7.321,0.274 -15.692,0.449 -26.199,0.418 -10.507,-0.031 -23.15,-0.269 -32.47,-0.382z"/>
   </clipPath>
 </defs>
 <g id="VETORES">
  <metadata id="CorelCorpID_0Corel-Layer"/>
  <g>
  </g>
  <g clip-path="url(#id0)">
   <g id="_2359434424576">
    <path id="_1frente" fill="fuchsia" fill-rule="nonzero" d="M70.039 129l-0.058 -2.829 0.09 0.095c0.036,-0.065 0.07,-0.128 0.106,-0.192 -0.006,-0.201 -0.01,-0.402 -0.016,-0.603l-0.198 -0.208 -0.08 -3.873 0.171 0.18c-0.009,-0.305 -0.016,-0.61 -0.025,-0.915l-0.164 -0.172 -0.079 -3.866 0.136 0.143c-0.007,-0.305 -0.016,-0.61 -0.024,-0.915l-0.131 -0.138 -0.079 -3.86 0.104 0.109c-0.009,-0.304 -0.018,-0.609 -0.026,-0.913l-0.096 -0.102 -0.079 -3.855 0.071 0.074c-0.01,-0.303 -0.019,-0.608 -0.026,-0.91l-0.064 -0.067 -0.078 -3.85 0.035 0.038c-0.007,-0.304 -0.016,-0.607 -0.023,-0.912l-0.031 -0.032 -0.079 -3.839c0.001,0 0.002,0 0.003,0 0.048,-0.023 0.017,-0.225 -0.005,-0.229l-0.002 0 -0.005 -0.23c-0.003,0.001 -0.016,0.057 -0.063,0.159 -0.043,0.094 -0.065,0.115 -0.061,0.158 0.003,0.035 0.022,0.068 0.045,0.095 -0.147,0.415 -0.451,1.507 -0.796,2.882l-0.302 -0.315c-0.082,0.209 -0.165,0.417 -0.247,0.627l0.374 0.391c-0.233,0.956 -0.477,2.004 -0.697,3.035l-0.728 -0.762c-0.084,0.209 -0.167,0.417 -0.248,0.627l0.823 0.861c-0.161,0.786 -0.304,1.545 -0.414,2.226 -0.051,0.321 -0.098,0.641 -0.141,0.961l-1.32 -1.384c-0.083,0.209 -0.167,0.419 -0.248,0.629l1.472 1.542c-0.132,1.189 -0.206,2.369 -0.232,3.528l-2.292 -2.405c-0.084,0.209 -0.166,0.419 -0.249,0.629l2.53 2.654c-0.001,1.364 0.062,2.691 0.173,3.959l-3.756 -3.948c-0.082,0.209 -0.165,0.419 -0.247,0.629l4.101 4.31c0.181,1.654 0.44,3.191 0.735,4.557l-5.89 -6.2c-0.082,0.21 -0.165,0.418 -0.247,0.628l6.411 6.75c0.781,3.134 1.715,5.101 2.166,5.048l0 0zm-71.843 -79.288l0 0.889 9.229 9.715c0.149,-0.138 0.299,-0.277 0.449,-0.415l-9.678 -10.189zm0 4.554l0 0.89 6.921 7.297 0 0c0.149,-0.14 0.298,-0.278 0.448,-0.416l-7.369 -7.771zm0 4.557l0 0.893 4.612 4.872c0.15,-0.138 0.3,-0.278 0.451,-0.417l-5.063 -5.348zm0 4.567l0 0.89 2.308 2.441c0.148,-0.137 0.298,-0.275 0.448,-0.415l-2.756 -2.916zm0 4.567l0 0.891 0.005 0.004c0.148,-0.138 0.298,-0.276 0.448,-0.415l-0.453 -0.48zm0 13.241l0 0.497 2.271 2.421c0.389,-0.956 0.684,-1.873 0.91,-2.728l-1.505 -1.601 -1.676 1.411zm0 1.392l0 3.696 0.71 0.757c-0.191,0.087 -0.387,0.177 -0.588,0.269l-0.122 -0.13 0 1.168c0.152,-0.222 0.303,-0.451 0.451,-0.686l4.574 4.885c0.034,-0.262 0.068,-0.525 0.101,-0.787l0 -0.002 -4.342 -4.638c0.224,-0.379 0.443,-0.773 0.653,-1.184 0.209,-0.406 0.399,-0.808 0.574,-1.204l-2.011 -2.144zm0 8.293l0 0.895 4.501 4.816c0.035,-0.262 0.069,-0.523 0.102,-0.786l0 -0.001 -4.603 -4.924zm0 4.601l0 0.899 3.778 4.049c-0.062,1.173 -0.124,2.347 -0.185,3.52l8.658 9.301c0.152,-1.038 0.304,-2.076 0.456,-3.115l0.063 -0.065 -8.792 -9.426c0.034,-0.263 0.067,-0.526 0.102,-0.789l9.118 9.776 1.781 -1.827 -2.351 -2.516c-0.013,0.271 -0.026,0.542 -0.04,0.814 -1.471,-1.86 -2.943,-3.72 -4.414,-5.58l-4.167 -4.458c-0.061,1.172 -0.123,2.343 -0.185,3.515l-3.822 -4.098zm0 4.61l0 0.898 3.344 3.592c-0.562,0.636 -1.124,1.272 -1.686,1.908l0.978 1.052c-0.168,0.12 -0.336,0.238 -0.504,0.356l7.842 8.442c0.022,-0.285 0.042,-0.563 0.058,-0.837l1.632 1.757c0.158,-1.077 0.316,-2.155 0.474,-3.233l-8.685 -9.328c0.034,-0.263 0.069,-0.526 0.102,-0.789l-3.555 -3.818zm0 8.275l0 0.96 2.433 2.622c-0.016,-0.683 -0.031,-1.367 -0.047,-2.05 2.966,3.321 5.932,6.643 8.897,9.965 0.09,-0.609 0.179,-1.218 0.268,-1.827l-10.3 -11.086 -1.251 1.416zm0 1.04l0 0.82 0.802 0.865 -0.802 -0.865 0 3.727 2.539 2.743c-0.028,-1.275 -0.057,-2.549 -0.086,-3.824l7.002 7.551c0.046,-0.258 0.089,-0.511 0.127,-0.763l-9.537 -10.286 -0.045 0.032zm0 4.548l0 0.899 8.629 9.324c0.063,-0.237 0.123,-0.471 0.181,-0.703l0 0 -8.81 -9.52zm0 0.9l0 3.733 0 4.64 0.015 0.016c0.579,-0.619 1.158,-1.237 1.737,-1.857l5.791 6.271c0.077,-0.216 0.153,-0.435 0.228,-0.655l-7.771 -8.415 2.172 2.351c0.151,-0.161 0.301,-0.321 0.452,-0.482l-0.064 -2.836 -2.56 -2.766zm0 8.375l0 0.902 6.233 6.763c0.091,-0.201 0.181,-0.405 0.27,-0.61l-6.503 -7.055zm0 4.645l0 0.906 4.726 5.138c0.102,-0.187 0.205,-0.377 0.307,-0.571l-5.033 -5.473zm0 4.654l0 5.568 1.192 1.302c0.123,-0.163 0.248,-0.329 0.372,-0.5l0.7 0.765c-0.656,-1.969 -1.312,-3.937 -1.968,-5.905l2.745 2.991c0.114,-0.175 0.228,-0.354 0.342,-0.535l-3.383 -3.686zm0 5.569l0 3.762 4.717 5.162 -1.978 -5.933 -2.739 -2.991zm0 3.763l0 5.584 1.071 1.174c-0.038,-0.345 -0.077,-0.689 -0.114,-1.033l1.416 1.552 3.05 0 -0.23 -0.687 -4.711 -5.157c-0.04,-0.343 -0.077,-0.688 -0.114,-1.031l-0.368 -0.402zm0 5.585l0 1.692 1.544 0 -1.544 -1.692zm8.742 1.692l1.368 0 -1.298 -1.418 -0.07 1.418zm2.199 0l3.47 0 -5.382 -5.864c-0.058,1.195 -0.117,2.391 -0.175,3.586l2.087 2.278zm3.798 0l0.503 0 4.313 0 -0.526 -0.572c0.072,-1.184 0.144,-2.368 0.216,-3.552l-0.613 -0.666 4.415 4.79 0.831 0 -7.639 -8.287c-0.046,0.251 -0.091,0.503 -0.136,0.753l-6.64 -7.205c-0.058,1.192 -0.117,2.384 -0.175,3.576l6.244 6.789c-0.047,0.252 -0.092,0.504 -0.138,0.755l-6.148 -6.685c-0.058,1.193 -0.116,2.387 -0.175,3.58l5.751 6.267 -0.083 0.457zm12.64 0l1.647 0c0.014,-0.913 0.041,-1.856 0.084,-2.826l-4.104 -4.434c0.654,1.97 1.308,3.941 1.962,5.911l-7.404 -8.017 0.216 -3.542 -6.879 -7.434c-0.698,0.498 -1.396,0.996 -2.094,1.493l7.234 7.834 -1.094 -1.184c-0.045,0.252 -0.091,0.504 -0.136,0.754l1.358 1.471 -7.865 -8.516c-0.227,0.162 -0.454,0.323 -0.681,0.485 -0.039,0.803 -0.079,1.606 -0.118,2.409l9.791 10.624c0.072,-1.182 0.145,-2.365 0.217,-3.547l7.866 8.519zm10.157 0l2.911 0 -1.871 -2.013 -1.04 2.013zm3.747 0l3.54 0 -2.197 -2.36c0.002,-0.297 0.005,-0.594 0.007,-0.891l3.027 3.251 4.748 0c0.248,-0.818 0.537,-1.622 0.883,-2.478l-10.41 -11.14 1.822 1.95c0.001,-0.297 0.004,-0.593 0.007,-0.889l7.093 7.59c-0.108,0.183 -0.217,0.365 -0.325,0.548l4.13 4.419 0.838 0 -2.897 -3.1c0.333,-0.785 0.715,-1.625 1.159,-2.566l5.306 5.666 0.838 0 -5.862 -6.261c0.363,-0.762 0.765,-1.592 1.211,-2.51l5.364 5.718 0 3.053 2.865 0 -2.8 -2.984c-0.018,-0.318 -0.036,-0.635 -0.054,-0.952l3.693 3.936 0.723 0c-0.879,-2.094 -2.257,-4.808 -4.427,-7.699l0 3.751 -5.076 -5.412c0.417,-0.854 0.83,-1.68 1.239,-2.479l3.62 3.852c-0.018,-0.317 -0.034,-0.635 -0.052,-0.951l-0.002 -0.002 -3.269 -3.478c0.435,-0.843 0.863,-1.656 1.282,-2.434l-6.52 -6.925 0 3.785 4.131 4.396c-0.11,0.182 -0.218,0.365 -0.326,0.548l-3.805 -4.05 0 3.792 2.426 2.586c-0.108,0.183 -0.218,0.365 -0.326,0.548l-2.1 -2.239 0 3.797 0.721 0.771c-0.11,0.183 -0.217,0.365 -0.325,0.548l-0.396 -0.423 0 1.181c-0.307,-0.722 -0.614,-1.443 -0.922,-2.165l-9.28 -9.912 0 3.782 -8.241 -8.818c0.257,-0.951 0.532,-1.911 0.828,-2.879l9.569 10.216c0.002,-0.296 0.005,-0.591 0.007,-0.886l-1.763 -1.883 8.181 8.738c-0.985,-2.316 -1.971,-4.631 -2.956,-6.946l-5.625 -5.997 0 3.777 -7.203 -7.693c0.068,-0.216 0.134,-0.431 0.204,-0.648 0.232,-0.724 0.472,-1.432 0.716,-2.133l-3.445 -3.672 0 3.757 1.592 1.7c-0.032,0.256 -0.062,0.522 -0.09,0.8l-1.502 -1.604 0 3.287 -8.219 -8.319 -7.231 -7.737c0.594,-0.609 1.188,-1.218 1.782,-1.828l5.907 6.31c0.054,-0.233 0.114,-0.467 0.183,-0.703l-5.662 -6.046c0.595,-0.61 1.189,-1.22 1.784,-1.83l4.914 5.24c0.099,-0.195 0.201,-0.384 0.307,-0.568l-4.794 -5.111c0.595,-0.61 1.19,-1.22 1.785,-1.831l4.499 4.787c0.133,-0.162 0.267,-0.316 0.402,-0.466l-7.391 -7.864c-0.143,0.151 -0.28,0.301 -0.415,0.452l-4.632 -4.929c-0.298,0.302 -0.596,0.603 -0.894,0.905 -0.029,0.59 -0.058,1.18 -0.086,1.769l3.965 4.227c-0.129,0.167 -0.253,0.331 -0.375,0.495l2.656 2.831 -6.287 -6.702c-0.058,1.18 -0.115,2.359 -0.172,3.538l3.491 3.729 -1.159 -1.237c-0.115,0.181 -0.226,0.361 -0.332,0.541l-2.042 -2.181c-0.057,1.181 -0.114,2.362 -0.172,3.543l0.927 0.991c-0.102,0.201 -0.196,0.397 -0.288,0.589l9.428 10.087c-0.016,-0.295 -0.025,-0.602 -0.025,-0.923l9.445 10.108c-0.004,0.293 -0.004,0.593 0,0.897l0 0.003 8.429 9.015 0 3.789 -8.133 -8.72c0.045,0.351 0.097,0.708 0.157,1.068l0.002 0.001 7.974 8.55 0 3.341c-0.05,0.098 -0.101,0.195 -0.151,0.292l-6.519 -7.003c0.169,0.497 0.355,0.997 0.559,1.499l5.662 6.082c-0.421,0.814 -0.841,1.629 -1.261,2.443l2.408 2.592zm29.314 0l5.979 0 -1.93 -2.046 -0.001 -0.001 1.932 2.047 4.454 0 -8.539 -9.036c0.449,-0.768 0.893,-1.569 1.328,-2.406l8.72 9.212 -0.017 2.23 -1.492 0 -5.205 -5.508c-0.229,0.056 -0.457,0.11 -0.686,0.165l-2.972 -3.145c-0.004,0.006 -0.008,0.011 -0.011,0.017 -0.481,-1.24 -0.961,-2.481 -1.442,-3.721l0.151 5.764c-0.049,0.073 -0.097,0.148 -0.146,0.22l0.156 0.164c0.008,0.306 0.016,0.612 0.024,0.918l-0.303 -0.321 0 3.818 0.342 0.363c-0.003,0.296 -0.005,0.592 -0.007,0.886l-0.335 -0.356 0 0.736zm14.056 0l0.843 0 -2.948 -3.113c0.011,-1.263 0.023,-2.524 0.038,-3.782l6.538 6.895 0.843 0 -7.861 -8.289c-0.154,0.141 -0.307,0.276 -0.458,0.405l-6.334 -6.679c-0.069,0.158 -0.137,0.315 -0.209,0.473 -0.321,0.712 -0.652,1.401 -0.989,2.069l5.345 5.647c-0.229,0.054 -0.458,0.109 -0.688,0.163l5.88 6.211zm12.256 0l1.185 0 -1.142 -1.2 -0.043 1.2zm2.03 0l1.434 0 0 -2.327 -3.26 -3.42c-0.044,1.241 -0.088,2.472 -0.131,3.691l1.957 2.056zm-55.745 -54.423c-0.043,0.107 -0.089,0.217 -0.134,0.325l0.059 0.062 0.075 -0.387zm15.745 36.617l-8.152 -8.644 0 3.78 5.835 6.197c-0.108,0.183 -0.217,0.365 -0.325,0.548l1.55 1.646c-0.171,-0.479 -0.343,-0.959 -0.514,-1.438l0.281 0.298c0.455,-0.836 0.898,-1.633 1.325,-2.387zm-55.583 -50.654c0.235,-1.019 0.372,-1.933 0.454,-2.69l-1.665 1.402 1.211 1.288zm97.017 33.263l-2.144 -2.224c-0.043,1.226 -0.086,2.445 -0.128,3.657l2.272 2.361 0 -3.794zm-19.592 7.634l-1.359 -1.424c-0.149,1.037 -0.332,2.109 -0.555,3.209l1.874 1.967c0.005,-1.243 0.019,-2.494 0.04,-3.752zm-57.872 -37.537c-0.578,0.585 -1.156,1.17 -1.734,1.756l1.519 1.608c0.072,-1.121 0.143,-2.243 0.215,-3.364zm38.712 31.431l-5.776 -6.081c-0.396,0.837 -0.793,1.674 -1.19,2.511l6.966 7.347 0 -3.777zm-21.808 -9.06l-1.659 -1.755c-0.175,0.284 -0.353,0.569 -0.535,0.856 -0.298,0.468 -0.598,0.926 -0.899,1.373l1.86 1.972c0.409,-0.841 0.821,-1.656 1.233,-2.446zm-8.956 8.178l3.673 3.915c0.327,-0.917 0.663,-1.813 1.006,-2.689l-3.068 -3.264c-0.547,0.655 -1.085,1.274 -1.611,1.858l0 0.18zm19.93 5.471l0 1.738 8.469 8.979c0.479,-0.837 0.936,-1.617 1.369,-2.342l-9.196 -9.73c-0.214,0.451 -0.428,0.903 -0.642,1.355zm49.586 -1.44l-2.302 -2.392c-0.043,1.228 -0.086,2.448 -0.128,3.661l2.43 2.529 0 -3.798 0 0zm0 4.682l-2.46 -2.56c-0.044,1.23 -0.086,2.452 -0.129,3.666l2.589 2.699 0 -3.805zm-39.422 4.588c0.232,-0.385 0.456,-0.755 0.67,-1.104l0 -1.975 -8.719 -9.212c-0.397,0.837 -0.794,1.675 -1.191,2.512l9.24 9.779zm39.422 0.101l-2.619 -2.73c-0.044,1.232 -0.087,2.456 -0.129,3.671l2.748 2.869 0 -3.81 0 0zm-17.727 9.613l-6.007 -6.323c-0.323,0.886 -0.675,1.782 -1.06,2.686l7.017 7.4c0.016,-1.257 0.032,-2.511 0.05,-3.763zm17.727 -4.918l-2.779 -2.9c-0.043,1.234 -0.086,2.459 -0.129,3.675l2.908 3.041 0 -3.816zm-38.752 -12.548l-7.247 -7.643c-0.397,0.837 -0.794,1.674 -1.191,2.511l8.438 8.914 0 -3.782zm21.076 14.2l-1.898 -2.016c-0.009,-0.459 -0.016,-0.921 -0.024,-1.382l-2.995 -3.148c-0.271,0.934 -0.574,1.883 -0.91,2.843l5.789 6.094c0.012,-0.798 0.025,-1.595 0.038,-2.391zm17.676 7.759l-3.099 -3.246c-0.044,1.239 -0.087,2.468 -0.13,3.686l3.229 3.388 0 -3.828 0 0zm0 -4.709l-2.939 -3.072c-0.043,1.236 -0.087,2.463 -0.13,3.681l3.069 3.214 0 -3.823 0 0zm-19.635 -11.175l-2.024 -2.123c-0.213,0.985 -0.458,1.991 -0.741,3.017l2.789 2.931c-0.017,-1.267 -0.024,-2.541 -0.024,-3.825zm19.635 -21.604l-1.83 -1.892c-0.042,1.222 -0.085,2.438 -0.127,3.648l1.957 2.027 0 -3.783zm0 4.664l-1.987 -2.058c-0.042,1.225 -0.085,2.442 -0.127,3.653l2.114 2.193 0 -3.788zm-17.902 -13.9l-0.279 -0.29c-0.371,0.87 -0.742,1.739 -1.113,2.608l1.033 1.073c0.113,-1.137 0.233,-2.268 0.359,-3.391zm17.902 -4.334c-0.19,-0.325 -0.381,-0.651 -0.572,-0.976l-0.79 -0.813c-0.042,1.217 -0.084,2.429 -0.126,3.635l1.488 1.534 0 -3.38zm0 4.26l-1.517 -1.565c-0.043,1.219 -0.085,2.432 -0.127,3.639l1.644 1.698 0 -3.772zm0 4.652l-1.673 -1.728c-0.043,1.22 -0.085,2.435 -0.127,3.644l1.8 1.861 0 -3.777zm-38.752 1.558l-1.362 -1.427c-0.397,0.836 -0.793,1.673 -1.19,2.51l2.552 2.677 0 -3.76zm0 4.648l-2.833 -2.973 -1.19 2.51 4.023 4.229 0 -3.766zm0 4.654l-4.304 -4.524c-0.397,0.837 -0.794,1.673 -1.191,2.51l5.495 5.785 0 -3.771zm20.034 -6.987l-1.646 -1.713 0 3.77 1.384 1.443c0.08,-1.161 0.166,-2.328 0.262,-3.5zm-0.573 8.724l-1.073 -1.121 0 0.649c-0.004,0.943 -0.031,1.96 -0.09,3.038l1.008 1.054c0.044,-1.2 0.095,-2.407 0.155,-3.62zm0.254 -4.398l-1.327 -1.384 0 3.776 1.118 1.167c0.062,-1.181 0.131,-2.367 0.209,-3.559zm-0.44 8.873l-1.029 -1.077c-0.075,1.089 -0.185,2.234 -0.34,3.431l1.269 1.329c0.025,-1.221 0.059,-2.449 0.1,-3.683zm-59.956 -21.36l-4.643 -4.93c-0.597,0.604 -1.193,1.208 -1.79,1.812l7.359 7.831c0.075,-1.164 0.149,-2.328 0.223,-3.492l6.291 6.68c0.166,-0.133 0.329,-0.257 0.487,-0.374l-6.724 -7.143c0.074,-1.162 0.148,-2.325 0.222,-3.488l-3.845 -4.076c-0.597,0.604 -1.195,1.209 -1.792,1.814l4.667 4.957 0 0c-0.151,0.133 -0.304,0.27 -0.455,0.409zm61.046 4.392c0.015,-0.164 0.032,-0.326 0.048,-0.489l-1.216 -1.263c-0.27,0.632 -0.539,1.265 -0.809,1.897l0 1.027 1.714 1.784c0.082,-0.982 0.169,-1.967 0.263,-2.956zm-39.011 -4.213l-0.174 -0.183c-0.346,0.816 -0.726,1.664 -1.141,2.539l0.335 0.353 -1.747 -1.841c0.169,0.484 0.341,0.959 0.513,1.428l0.001 0.002 1.14 1.202c0.051,-0.24 0.1,-0.484 0.148,-0.733l0.322 0.339c0.201,-1.035 0.402,-2.07 0.603,-3.106zm-0.747 3.845l-0.852 -0.898c-0.385,0.791 -0.797,1.602 -1.243,2.431l1.491 1.575c0.201,-1.036 0.403,-2.072 0.604,-3.108zm-0.812 3.779l-1.591 -1.68c-0.42,0.763 -0.865,1.54 -1.341,2.328l1.63 1.725c0.435,-0.82 0.87,-1.611 1.302,-2.373zm-18.775 -15.227l-1.897 -2.007 -1.793 1.815 3.468 3.677c0.074,-1.162 0.148,-2.323 0.222,-3.485zm59.977 5.845c-0.055,0.129 -0.11,0.259 -0.165,0.388l0.108 0.112c0.019,-0.166 0.038,-0.334 0.057,-0.5zm-20.997 3.124c-0.36,0.76 -0.721,1.521 -1.081,2.281l1.081 1.133 0 -3.414zm-30.613 32.417c0.007,-0.29 0.015,-0.582 0.022,-0.873l0.393 0.421c0.225,-0.984 0.468,-1.979 0.733,-2.986l-10.981 -11.75c0.069,1.324 0.139,2.649 0.209,3.973l7.058 7.567 -0.184 -0.197c-0.333,-0.058 -0.667,-0.117 -1,-0.174l-5.824 -6.244c0.057,1.077 0.113,2.155 0.17,3.232 -0.131,0.094 -0.263,0.188 -0.395,0.282l4.675 5.021 -1.932 -2.075c-0.207,0.076 -0.414,0.154 -0.621,0.231l7.56 8.12c0.007,-0.291 0.015,-0.582 0.022,-0.872l0 -0.002 -0.283 -0.304c0.19,-1.018 0.4,-2.052 0.63,-3.098l-0.252 -0.271 0 -0.001zm11.563 -6.324l-1.986 -2.114 0 3.771 4.928 5.254c-0.981,-2.304 -1.961,-4.607 -2.942,-6.911zm-11.799 15.427c0.009,-0.292 0.017,-0.583 0.024,-0.876l-0.817 -0.879c0.15,-1.056 0.322,-2.131 0.516,-3.224l-9.789 -10.515c-0.7,0.5 -1.4,0.999 -2.101,1.498l2.126 2.288c-0.207,0.078 -0.415,0.154 -0.622,0.231l-2.007 -2.16c-0.699,0.498 -1.399,0.997 -2.099,1.496l2.358 2.543c-0.045,0.252 -0.092,0.502 -0.137,0.753l-2.724 -2.938c-0.698,0.498 -1.397,0.997 -2.096,1.495l4.251 4.594c-0.047,0.252 -0.092,0.502 -0.137,0.752l13.019 14.07c0.008,-0.292 0.015,-0.583 0.023,-0.876l-10.729 -11.594c0.072,-1.179 0.144,-2.358 0.215,-3.537l2.541 2.739 1.953 5.886 4.612 4.984c0.06,-1.137 0.143,-2.312 0.251,-3.518l1.252 1.351c0.008,-0.293 0.016,-0.587 0.023,-0.879l-1.198 -1.291c0.108,-1.096 0.237,-2.218 0.391,-3.364l0.901 0.971zm-27.697 -52.86l3.159 3.369c0.134,-0.158 0.266,-0.314 0.399,-0.471l-3.009 -3.207c-0.177,0.104 -0.36,0.207 -0.549,0.309zm29.871 31.842l9.833 10.482c0.003,-0.295 0.004,-0.59 0.007,-0.886l-9.694 -10.333c-0.05,0.243 -0.099,0.489 -0.146,0.737zm-27.08 -33.709c-0.044,0.036 -0.086,0.072 -0.129,0.107l2.546 2.709c0.133,-0.157 0.265,-0.314 0.398,-0.471l-2.476 -2.636c-0.111,0.099 -0.225,0.195 -0.339,0.291zm27.973 30.008l9.691 10.312c0.094,-0.199 0.188,-0.397 0.282,-0.594l-2.143 -2.28 0.207 0.22c-0.431,-1.011 -0.861,-2.022 -1.291,-3.034l0 1.66 -4.801 -5.108c0.355,-0.89 0.716,-1.76 1.083,-2.605l8.119 8.622c0.093,-0.202 0.184,-0.403 0.274,-0.602l-8.124 -8.629c0.382,-0.864 0.769,-1.706 1.159,-2.523l-1.736 -1.841 1.059 1.123c-0.317,-0.588 -0.637,-1.174 -0.955,-1.761 -0.081,0.158 -0.163,0.32 -0.247,0.486l-0.048 -0.05c-0.508,0.741 -1.016,1.451 -1.523,2.133l0.418 0.444c-0.086,0.204 -0.169,0.412 -0.255,0.623l-0.537 -0.57c-0.54,0.714 -1.078,1.394 -1.609,2.041l1.182 1.257c-0.071,0.222 -0.139,0.448 -0.205,0.676zm27.679 28.557c-0.014,0.284 -0.029,0.566 -0.044,0.849l0 0.002 0.57 0.604c0.103,-0.188 0.208,-0.375 0.312,-0.563l-0.838 -0.892zm-53.502 -60.629l2.316 2.458c0.134,-0.157 0.266,-0.313 0.398,-0.47l-2.307 -2.449c-0.13,0.153 -0.266,0.308 -0.407,0.461zm55.978 58.56l-2.252 -2.391c-0.013,0.282 -0.028,0.565 -0.041,0.847l1.983 2.107 0.31 -0.563zm-54.001 -61.055l2.387 2.532c0.134,-0.157 0.267,-0.313 0.399,-0.471l-2.438 -2.583c-0.111,0.172 -0.226,0.346 -0.348,0.522zm20.764 21.122l-6.879 -7.292c-0.165,0.118 -0.329,0.24 -0.496,0.365l7.3 7.74c0.026,-0.271 0.051,-0.541 0.075,-0.813zm15.911 16.868l-3.322 -3.522c-0.114,0.177 -0.227,0.355 -0.339,0.532l3.394 3.6c0.09,-0.205 0.18,-0.408 0.267,-0.61zm18.965 20.106l-3.666 -3.886c-0.013,0.281 -0.028,0.565 -0.042,0.847l3.398 3.601 0.31 -0.562zm-53.683 -61.504c-0.09,0.189 -0.186,0.385 -0.288,0.586l1.031 1.092c-0.044,-0.347 -0.091,-0.692 -0.137,-1.036l-0.606 -0.642zm36.081 38.185l-2.919 -3.091c-0.113,0.179 -0.227,0.356 -0.337,0.534l2.998 3.174c0.087,-0.206 0.174,-0.414 0.258,-0.618l0 0.001zm19.241 20.36l-5.08 -5.376c-0.015,0.282 -0.028,0.564 -0.043,0.845l4.813 5.092c0.103,-0.187 0.206,-0.373 0.31,-0.561zm-17.921 -23.623l-2.471 -2.609c-0.113,0.179 -0.227,0.355 -0.339,0.534l2.559 2.703c0.085,-0.211 0.168,-0.421 0.25,-0.628l0.001 0zm19.56 20.664l-6.495 -6.861c-0.014,0.282 -0.029,0.565 -0.042,0.847l6.225 6.576c0.103,-0.188 0.208,-0.375 0.312,-0.562zm-52.595 -60.149l-3.687 -3.887c-0.135,0.154 -0.27,0.307 -0.405,0.462l5.353 5.644c-0.42,-0.739 -0.841,-1.479 -1.261,-2.219zm31.992 34.627l2.074 2.186c0.081,-0.216 0.161,-0.429 0.238,-0.639l-1.973 -2.079c-0.112,0.177 -0.224,0.355 -0.339,0.532zm22.24 22.564l-7.907 -8.34c-0.015,0.282 -0.029,0.563 -0.044,0.845l7.641 8.057 0.31 -0.562 0 0zm-53.98 -61.507l-1.858 -1.957c-0.135,0.155 -0.27,0.309 -0.403,0.464l2.007 2.114c0.085,-0.207 0.17,-0.414 0.254,-0.621zm9.2 10.572l0.679 0.715c0.002,1.211 0.054,2.517 0.181,3.904l-0.538 -0.568c0.006,0.082 0.015,0.163 0.022,0.246 0.025,0.25 0.049,0.499 0.074,0.746l0.002 0.002 0.545 0.575c0.099,0.857 0.225,1.741 0.387,2.65 0.115,0.642 0.243,1.267 0.38,1.877l-0.812 -0.858c0.047,0.351 0.095,0.699 0.143,1.044l0.001 0.001 0.953 1.006c0.542,2.128 1.202,4.04 1.893,5.728l-3.104 -3.284c-0.177,0.104 -0.355,0.21 -0.538,0.321l4.352 4.604c0.44,0.963 0.881,1.835 1.3,2.61 0.132,-4.889 0.264,-9.779 0.396,-14.669l0.146 0.153c0.018,-0.182 0.034,-0.367 0.051,-0.55 -0.06,-0.068 -0.12,-0.135 -0.181,-0.203l0.062 -2.287c-1.878,-1.918 -3.756,-3.836 -5.635,-5.754 -0.035,0.576 -0.06,1.187 -0.071,1.827l-0.747 -0.786c0.018,0.315 0.038,0.632 0.059,0.949l0 0.001zm16.885 16.886l-4.473 -4.707c0.011,0.1 0.021,0.202 0.032,0.303 0.081,0.29 0.163,0.583 0.248,0.878l4.1 4.317c0.033,-0.261 0.065,-0.523 0.093,-0.79l0 -0.001zm7.572 7.971c-0.068,0.231 -0.14,0.451 -0.216,0.663l1.561 1.641c0.07,-0.227 0.136,-0.452 0.2,-0.677l-1.545 -1.627zm42.561 44.806l-8.443 -8.888c-0.132,0.162 -0.264,0.318 -0.397,0.471l8.862 9.328c-0.007,-0.304 -0.015,-0.609 -0.022,-0.911zm-80.797 -89.627l-10.596 -11.134c-0.13,0.159 -0.261,0.318 -0.39,0.477l10.536 11.072c0.15,-0.138 0.3,-0.277 0.45,-0.415zm25.764 27.964l5.152 5.414c0.01,-0.291 0.018,-0.579 0.024,-0.862l-5.278 -5.546c0.033,0.331 0.068,0.662 0.102,0.994zm12.917 13.575l1.739 1.827c0.035,-0.265 0.06,-0.532 0.081,-0.802l-1.877 -1.973c0.033,0.309 0.052,0.625 0.057,0.948zm42.002 43.254l-6.435 -6.765c-0.105,0.181 -0.215,0.363 -0.33,0.543l6.786 7.132c-0.006,-0.304 -0.014,-0.607 -0.021,-0.91zm-85.832 -94.76l-3.444 -3.614c-0.13,0.159 -0.261,0.319 -0.391,0.478l5.107 5.359c-0.423,-0.74 -0.848,-1.481 -1.272,-2.224l0 0.001zm36.009 38.667c-0.019,-0.325 -0.042,-0.646 -0.067,-0.959l-5.66 -5.939c0.033,0.333 0.067,0.664 0.102,0.995l5.625 5.903zm9.463 9.927c-0.062,-0.382 -0.134,-0.752 -0.215,-1.114l-4.522 -4.744c-0.156,0.077 -0.31,0.153 -0.466,0.23 0.204,0.232 0.516,0.599 0.871,1.084l4.332 4.544 0 0zm40.246 41.335l-4.829 -5.066c-0.08,0.211 -0.162,0.42 -0.249,0.628l5.099 5.35c-0.007,-0.305 -0.013,-0.609 -0.021,-0.912l0 0zm-0.114 -4.819l-3.651 -3.824c-0.055,0.238 -0.112,0.473 -0.171,0.707l3.843 4.026c-0.007,-0.303 -0.013,-0.606 -0.021,-0.909zm-0.114 -4.813l-2.81 -2.937c-0.039,0.256 -0.078,0.51 -0.118,0.76l2.949 3.084c-0.007,-0.302 -0.013,-0.605 -0.021,-0.907zm-0.114 -4.808l-2.153 -2.247c-0.03,0.268 -0.06,0.532 -0.09,0.791l2.264 2.365c-0.006,-0.303 -0.013,-0.606 -0.021,-0.909zm-0.114 -4.799l-1.656 -1.727c-0.02,0.277 -0.04,0.551 -0.06,0.823l1.739 1.811c-0.008,-0.303 -0.015,-0.605 -0.023,-0.907l0 0zm-1.472 -5.323l1.381 1.438c-0.008,-0.303 -0.014,-0.604 -0.021,-0.907l-1.333 -1.387c-0.009,0.288 -0.016,0.573 -0.027,0.856l0 0zm0.063 -4.601l1.205 1.252c-0.007,-0.302 -0.015,-0.603 -0.022,-0.904l-1.192 -1.24c0.004,0.3 0.007,0.596 0.009,0.892zm1.091 -3.527c-0.007,-0.301 -0.013,-0.604 -0.021,-0.905l-1.252 -1.299c0.017,0.314 0.033,0.624 0.048,0.933l1.225 1.271z"/>
    <path id="_1frente_0" fill="fuchsia" fill-rule="nonzero" d="M187.723 94.634l-5.644 -5.684c0.017,1.279 0.033,2.559 0.05,3.838l5.161 5.206c0.143,-1.12 0.289,-2.24 0.433,-3.36l0 0zm-168.52 -35.213l-0.027 -0.325 0.177 0.187 -0.15 0.138zm-0.361 -4.354l-0.08 -0.972 2.902 3.049c-0.15,0.138 -0.3,0.278 -0.45,0.416l-2.372 -2.493zm149.814 30.62c-1.072,-1.406 -2.144,-2.812 -3.215,-4.217l-3.459 -3.493c-0.846,0.402 -1.692,0.804 -2.539,1.206l9.137 9.238c0.025,-0.911 0.05,-1.823 0.076,-2.734zm22.324 -11.045l0 3.777 -2.935 -2.942c0.798,-0.459 1.595,-0.918 2.393,-1.377l0.542 0.542zm0 4.645l0 3.781 -12.538 -12.582 0 -3.767 12.538 12.568zm0 4.649l0 3.786 -3.225 -3.24 0 0 -5.809 -5.837c-0.008,-0.624 -0.016,-1.249 -0.025,-1.873 -1.159,-1.277 -2.319,-2.554 -3.478,-3.831l0 -1.588 12.537 12.583zm0 4.654l0 2.179 -0.779 0.829 -2.446 -2.461 0 -0.001 -5.748 -5.782c-0.016,-1.277 -0.033,-2.553 -0.049,-3.829l5.797 5.825 0 0 3.225 3.24zm0 3.792l0 0.868 -1.199 -1.205c-0.61,0.65 -1.221,1.299 -1.831,1.949l-0.128 -0.129 0 0.001 -5.755 -5.798c-0.016,-1.277 -0.033,-2.556 -0.049,-3.834l5.737 5.772 0 -0.001 1.657 1.668 -0.053 -0.921 1.621 1.63zm0 4.665l0 0.868 -1.278 -1.287c-0.017,-0.307 -0.035,-0.615 -0.054,-0.922l1.332 1.341zm0 4.668l0 0.871 -0.987 -0.995c-0.018,-0.309 -0.036,-0.617 -0.054,-0.926l1.041 1.05zm0 4.677l0 0.869 -0.696 -0.703c-0.019,-0.309 -0.036,-0.616 -0.056,-0.925l0.752 0.759zm0 4.681l0 0.871 -0.407 -0.411c-0.017,-0.309 -0.035,-0.617 -0.054,-0.926l0.461 0.466zm0 2.323l0 2.362 -1.146 -1.16 1.146 -1.202zm0 2.363l0 0.87 -1.569 -1.587c-0.196,0.206 -0.392,0.412 -0.588,0.618l0 0c-0.032,-0.437 -0.064,-0.874 -0.096,-1.311l-9.904 -10.028c1.044,2.326 2.087,4.652 3.13,6.979l9.027 9.151 0 -3.822 -0.115 -0.115c-0.018,-0.31 -0.036,-0.617 -0.054,-0.926l0.169 0.171zm0 5.564l0 3.825 -8.242 -8.367c-0.414,-1.737 -0.568,-3.264 -0.618,-4.441l8.86 8.983zm0 4.698l0 3.832 -3.543 -3.601c-1.114,-1.358 -2.302,-3.112 -3.281,-5.293l0.001 0c-0.462,-1.03 -0.821,-2.03 -1.101,-2.983l7.924 8.045zm0 4.11l0 7.749 -0.734 0.557c-0.051,-1.055 -0.103,-2.11 -0.154,-3.165 -0.013,-0.259 -0.025,-0.519 -0.038,-0.778l0.254 0.259 -1.521 -1.549c0.12,-0.168 0.24,-0.336 0.362,-0.506l0.86 0.876c-0.066,-1.345 -0.131,-2.69 -0.197,-4.035l0.922 0.937 0.246 -0.345zm0 9.148l0 0.873 -4.14 -4.219c0.119,-0.168 0.24,-0.336 0.361,-0.506l3.779 3.852zm-0.206 9.243l-0.855 0 -6.976 -7.13c0.121,-0.168 0.241,-0.336 0.361,-0.505l7.47 7.635zm-3.074 0l-11.37 0 -0.404 -0.369c-0.011,-0.228 -0.023,-0.456 -0.034,-0.684l-2.734 -2.807 0 0.878 2.905 2.982 -8.349 0 -0.632 -0.651c-1.18,-2.495 -2.359,-4.99 -3.538,-7.485l7.763 7.98c0.097,-0.193 0.193,-0.387 0.289,-0.581l-8.859 -9.107c-1.174,-2.483 -2.348,-4.967 -3.522,-7.45l13.645 14.006c0.096,-0.193 0.191,-0.388 0.289,-0.581l-2.563 -2.631c0.586,-0.595 1.199,-1.25 1.828,-1.968l0.501 0.514c0.03,-0.262 0.059,-0.524 0.087,-0.786l1.317 1.348 -1.503 -1.54c0.557,-0.654 1.124,-1.355 1.693,-2.106l0.942 0.964 0 0 -2.734 -2.799 -0.001 -0.001c-0.264,-0.562 -0.528,-1.123 -0.792,-1.685l3.482 3.563 0 -0.001 -0.526 -0.538c0.521,-0.707 1.041,-1.456 1.554,-2.247l-6.56 -6.706c0.048,1.325 0.096,2.651 0.144,3.977l-10.764 -11.019 0.035 -3.778 9.166 9.369c-0.035,-0.072 -0.068,-0.146 -0.102,-0.217 0.018,-0.236 0.037,-0.471 0.055,-0.706l-9.111 -9.313c0.012,-1.258 0.023,-2.516 0.035,-3.773l9.352 9.546c0.021,-0.272 0.042,-0.542 0.063,-0.812l9.742 9.943 0 -0.001c0.117,-0.219 0.23,-0.437 0.34,-0.653l0.001 -0.001c0.332,-0.65 0.636,-1.282 0.915,-1.894l0 -0.001 -10.72 -10.927c0.02,-0.269 0.041,-0.539 0.062,-0.809l10.858 11.067c0,0.077 -0.003,0.153 -0.004,0.231 0.024,-0.054 0.049,-0.108 0.072,-0.162 0.097,-0.221 0.19,-0.439 0.28,-0.653 0.015,-0.037 0.03,-0.073 0.045,-0.109 0.088,-0.209 0.173,-0.415 0.254,-0.618 -0.027,0.921 -0.054,1.842 -0.081,2.762 -0.028,0.963 -0.056,1.927 -0.084,2.89 -0.016,0.561 -0.033,1.122 -0.049,1.683 -0.001,0.026 -0.001,0.052 -0.002,0.078 -0.044,1.5 -0.088,3 -0.131,4.5 -0.037,1.244 -0.073,2.488 -0.109,3.733 -0.006,0.215 -0.013,0.43 -0.019,0.646 0.367,0.266 0.733,0.532 1.1,0.799 0.046,-0.065 0.093,-0.13 0.139,-0.195l0.997 1.02 5.347 3.885zm-27.809 0l-0.794 0 0.774 -1.872 0.02 1.872zm-1.352 0l-0.854 0 -7.494 -7.737c-0.004,-0.3 -0.01,-0.599 -0.016,-0.899l8.364 8.636zm-4.579 0l-0.851 0 -2.825 -2.921c-0.006,-0.301 -0.011,-0.599 -0.017,-0.899l3.693 3.82zm-3.259 0l-1.31 0 -10.453 -10.826c0.014,-1.262 0.028,-2.523 0.043,-3.785l11.743 12.145 -0.023 2.466zm-2.161 0l-3.711 0 -5.943 -6.165c0.014,-1.263 0.028,-2.527 0.042,-3.79l9.612 9.955zm-4.562 0l-3.704 0 -1.441 -1.497c0.015,-1.265 0.029,-2.53 0.043,-3.795l5.102 5.292zm-4.554 0l-0.608 0 0.008 -0.624 0.6 0.624zm-4.546 0l-3.688 0 -1.544 -1.608c0.002,-1.276 0.004,-2.553 0.005,-3.83l-7.717 -8.032c-0.01,-0.293 -0.018,-0.596 -0.024,-0.91l8.423 8.767 0 0.884 4.545 4.729zm-4.537 0l-0.697 0 0.001 -0.724 -7.318 -7.628c-0.036,-0.326 -0.072,-0.657 -0.107,-0.996l8.113 8.456 0 0.884 0.008 0.008zm-3.683 0l-0.849 0 -3.001 -3.133c-0.014,-0.324 -0.033,-0.637 -0.052,-0.942l3.902 4.075zm-6.631 0l-2.576 0 0.001 -0.174 -5.139 -5.383c-0.017,-0.244 -0.034,-0.491 -0.052,-0.744 -0.083,-1.198 -0.162,-2.325 -0.237,-3.384l5.442 5.69c0.001,-0.294 0.002,-0.588 0.003,-0.882l-5.512 -5.764c-0.109,-1.544 -0.208,-2.921 -0.295,-4.127l5.822 6.077c0.001,-0.294 0.002,-0.588 0.003,-0.882l-5.894 -6.152c-0.137,-1.895 -0.238,-3.281 -0.299,-4.126l6.207 6.47c0.001,-0.293 0.002,-0.587 0.003,-0.881l-6.278 -6.543c-0.072,-1.155 -0.077,-2.415 0.023,-3.783l6.269 6.524c0.002,-0.293 0.003,-0.587 0.004,-0.88l-6.203 -6.454c0.105,-1.033 0.269,-2.124 0.509,-3.273l5.708 5.931c0.001,-0.294 0.002,-0.587 0.003,-0.88l-5.553 -5.77c0.218,-0.945 0.488,-1.928 0.815,-2.95l4.752 4.929c0.001,-0.293 0.003,-0.586 0.004,-0.879l-4.539 -4.708c0.299,-0.88 0.641,-1.788 1.032,-2.724l3.521 3.647c0.001,-0.293 0.002,-0.586 0.003,-0.878l-3.265 -3.382c0.36,-0.83 0.757,-1.681 1.194,-2.554l2.085 2.156 0.003 -0.878 -1.795 -1.856c0.408,-0.789 0.848,-1.596 1.323,-2.42l0.486 0.502 0.004 -0.877 -0.169 -0.174c0.056,-0.095 0.114,-0.191 0.17,-0.287l0 0c0.009,-0.015 0.018,-0.029 0.027,-0.043 0.144,-0.242 0.291,-0.484 0.442,-0.729 0.008,-0.014 0.017,-0.028 0.025,-0.042 0.146,-0.235 0.294,-0.472 0.445,-0.71 0.058,-0.092 0.118,-0.184 0.177,-0.277 0.047,-0.074 0.094,-0.148 0.142,-0.222l-0.774 -0.799c0.015,-0.277 0.03,-0.556 0.045,-0.833l1.072 1.105 0 0 0 0c0.159,-0.242 0.32,-0.484 0.485,-0.728l0.009 1.237 0 0 0.819 0.845c0.003,0.295 0.005,0.592 0.008,0.887l-0.821 -0.846c0.002,0.218 0.003,0.435 0.005,0.652l0.022 3.162 0.828 0.854c0.002,0.297 0.004,0.592 0.008,0.889l-0.829 -0.855c0.009,1.273 0.018,2.547 0.027,3.82l0.836 0.864c0.002,0.297 0.004,0.593 0.007,0.89l-0.836 -0.866c0.004,0.543 0.007,1.086 0.011,1.629 0.006,0.732 0.011,1.465 0.016,2.197l0.844 0.873c0.001,0.297 0.004,0.593 0.007,0.889l-0.844 -0.875 0.027 3.834 0.851 0.883c0.002,0.297 0.006,0.593 0.008,0.89l-0.852 -0.884c0.004,0.635 0.009,1.271 0.013,1.906l0.014 1.932 0 0 0.858 0.892c0.003,0.297 0.006,0.594 0.009,0.891l-0.86 -0.894 0 0c0.005,0.723 0.01,1.446 0.015,2.169 0.004,0.559 0.008,1.117 0.012,1.675l0.866 0.902c0.004,0.298 0.006,0.595 0.009,0.893l-0.868 -0.904 0.007 1.076c0.007,0.924 0.014,1.849 0.02,2.773l0.875 0.911c0.002,0.299 0.006,0.596 0.008,0.894l-0.876 -0.914c0.008,1.094 0.015,2.187 0.023,3.281 0.002,0.192 0.003,0.384 0.004,0.575l0 0.001 0.883 0.921c0.002,0.298 0.006,0.595 0.009,0.893l-0.885 -0.923 0 0c0.009,1.287 0.018,2.575 0.028,3.862l0 0.001 0.891 0.932c0.002,0.298 0.004,0.595 0.008,0.893l-0.893 -0.933 0.01 1.327zm-3.255 0l-3.66 0 -0.57 -0.598c-0.008,-1.28 -0.074,-2.582 -0.166,-4.006l4.396 4.604zm-6.724 0l-1.434 0 -1.957 -2.057c0.043,-1.219 0.087,-2.45 0.131,-3.691l3.26 3.421 0 2.327zm-2.279 0l-1.185 0 0.042 -1.2 1.143 1.2zm68.193 -56.427l-2.485 -2.509c-0.617,0.638 -1.235,1.276 -1.853,1.914l2.98 3.013c0.453,-0.806 0.905,-1.612 1.358,-2.418zm-6.684 11.896l0.09 0.091c0.054,-0.237 0.108,-0.473 0.161,-0.71l0.062 0.063 1.359 -2.419 -0.727 -0.738c0.054,-0.236 0.106,-0.473 0.159,-0.71l-3.513 -3.561c-0.174,0.11 -0.348,0.222 -0.524,0.341l2.902 2.941c-0.01,1.256 -0.02,2.512 -0.029,3.767l-5.033 -5.109c-0.156,0.129 -0.314,0.261 -0.471,0.396l5.497 5.58c-0.001,0.064 -0.001,0.127 -0.001,0.19 0.022,-0.04 0.045,-0.081 0.068,-0.122zm0.067 -10.138l3.588 3.633c0.453,-0.806 0.906,-1.612 1.359,-2.418l-3.094 -3.128c-0.618,0.637 -1.235,1.275 -1.853,1.913zm6.929 -2.313c0.453,-0.806 0.905,-1.612 1.358,-2.417l-1.875 -1.892c-0.618,0.638 -1.236,1.276 -1.854,1.915l2.371 2.394zm-5.012 8.92c0.453,-0.806 0.906,-1.612 1.359,-2.419l-1.545 -1.565c0.054,-0.236 0.106,-0.472 0.159,-0.709l-1.389 -1.406c-0.19,0.09 -0.383,0.184 -0.58,0.283l0.017 0.017c-0.01,1.254 -0.02,2.509 -0.03,3.763l2.009 2.036zm7.333 -15.021l-0.559 -0.562c-0.617,0.638 -1.235,1.276 -1.853,1.914l1.706 1.721c0.235,-1.024 0.47,-2.048 0.706,-3.073zm-0.132 -1.002l0.294 0.296c0.06,-0.262 0.12,-0.524 0.18,-0.786 -0.158,0.163 -0.316,0.327 -0.474,0.49zm9.896 24.855l-9.89 -10c-0.052,1.214 -0.103,2.428 -0.155,3.642l10.344 10.474c-0.1,-1.372 -0.199,-2.744 -0.299,-4.116zm-6.107 -7.046c0,0.039 0,0.078 0.001,0.117 0.229,0.193 0.457,0.387 0.687,0.58l0.006 0.005 5.344 5.404 -0.299 -4.109 -1.334 -1.348 0 0 -4.456 -4.499c0.001,0.134 0.003,0.269 0.005,0.404 -1.195,-1.023 -2.39,-2.047 -3.586,-3.07l-0.115 2.727 3.747 3.789 0 0zm-8.08 -36.968l-0.918 0 0.514 0.516c0.135,-0.172 0.27,-0.344 0.404,-0.516zm-0.785 1.001l-0.998 -1.001 -3.199 0 0 0.549 2.545 2.558c0.551,-0.702 1.101,-1.404 1.652,-2.106zm-4.197 5.048l0 0.302 0.132 -0.168 -0.132 -0.134zm2.164 -2.457l-2.164 -2.175 0 3.764 0.513 0.516c0.551,-0.702 1.101,-1.403 1.651,-2.105l0 0zm16.678 0.683c-0.624,-0.201 -1.247,-0.401 -1.871,-0.602l1.871 1.873 0 -1.271zm0 2.138l-3.146 -3.15 -5.538 -1.781 8.684 8.704 0 -3.773zm-29.24 26.314l-2.756 -2.801c-0.614,0.638 -1.228,1.276 -1.842,1.914l4.479 4.559c0.039,-1.224 0.079,-2.448 0.119,-3.672zm0.146 -4.512l-0.636 -0.645c-0.614,0.638 -1.228,1.276 -1.842,1.914l2.359 2.398 0.119 -3.667zm-48.89 19.832l-2.144 -2.224c-0.043,1.226 -0.086,2.445 -0.128,3.656l2.272 2.361 0 -3.793zm48.934 -21.184c-0.085,0.088 -0.17,0.176 -0.255,0.265l0.238 0.242c0.006,-0.169 0.011,-0.338 0.017,-0.507zm0.415 13.464c-0.005,0.489 -0.009,0.979 -0.014,1.468l2.086 2.126c0.248,0.546 0.5,1.092 0.75,1.638l-2.844 -2.898 -0.035 3.768 6.157 6.284c0.168,0.366 0.336,0.733 0.504,1.098 0.035,-0.159 0.07,-0.316 0.106,-0.475l-0.209 -0.214 2.562 2.616c-0.714,-2.078 -1.598,-4.284 -2.696,-6.566l-1.523 -1.551 2.563 2.611c0.053,-0.237 0.106,-0.474 0.159,-0.71l-2.396 -2.444 0.296 0.302c-0.664,-1.268 -1.396,-2.554 -2.204,-3.85 -1.319,-2.117 -2.685,-4.01 -4.033,-5.694 0.006,-0.197 0.013,-0.394 0.019,-0.592l-4.875 -4.962c-0.614,0.638 -1.228,1.276 -1.841,1.914l7.035 7.171c0.144,-0.347 0.288,-0.693 0.433,-1.04l0 0zm-49.349 12.396l-2.302 -2.392c-0.043,1.229 -0.086,2.449 -0.129,3.662l2.431 2.529 0 -3.799zm0 4.683l-2.461 -2.561c-0.043,1.23 -0.086,2.452 -0.129,3.666l2.59 2.699 0 -3.804zm0 4.688l-2.62 -2.73c-0.043,1.232 -0.086,2.457 -0.129,3.671l2.749 2.87 0 -3.811zm0 4.696l-2.779 -2.901c-0.043,1.234 -0.086,2.46 -0.13,3.676l2.909 3.041 0 -3.816zm0 9.411l-3.099 -3.246c-0.044,1.239 -0.088,2.468 -0.131,3.686l3.23 3.388 0 -3.828 0 0zm0 -4.709l-2.939 -3.073c-0.043,1.237 -0.087,2.464 -0.13,3.681l3.069 3.214 0 -3.822zm28.942 -3.73l11.743 12.144 0.004 -0.432c-1.252,-2.428 -2.505,-4.856 -3.757,-7.284l-0.545 -0.563c-0.106,-0.389 -0.212,-0.79 -0.315,-1.206l-0.112 -0.115c-1.405,-2.725 -2.811,-5.45 -4.216,-8.175l-2.707 -2.791 -0.043 3.773 1.499 1.548c0.012,0.061 0.022,0.121 0.034,0.182 0.483,0.744 0.967,1.486 1.45,2.23l0.001 0.001 1.24 1.281 -4.233 -4.372c-0.015,1.26 -0.029,2.52 -0.043,3.779zm10.312 -16.676l0.115 3.928 2.709 2.781c0.371,-0.891 0.742,-1.782 1.113,-2.674l-3.937 -4.035zm5.305 0.748l-5.445 -5.574c0.038,1.308 0.076,2.615 0.114,3.922l4.219 4.325c0.371,-0.891 0.742,-1.782 1.112,-2.673zm-2.737 6.576l-2.427 -2.492c0.038,1.312 0.076,2.623 0.114,3.934l1.2 1.233c0.371,-0.892 0.742,-1.783 1.113,-2.675zm-4.895 -24.602l2.019 2.06c-0.042,-1.306 -0.084,-2.612 -0.127,-3.918l-4.079 -4.158c0.729,2.005 1.458,4.011 2.187,6.016zm9 14.74l-6.134 -6.269c0.111,-0.18 0.223,-0.357 0.337,-0.531l6.052 6.186c0.371,-0.89 0.741,-1.78 1.112,-2.67l-8.103 -8.271c-0.068,0.07 -0.135,0.14 -0.202,0.21 -0.005,-0.143 -0.01,-0.287 -0.014,-0.43l-1.542 -1.573c0.492,1.353 0.985,2.706 1.477,4.059l0.037 1.28 0.791 0.808 -1.699 -1.736c-0.121,0.165 -0.24,0.334 -0.36,0.507l1.294 1.323c0.038,1.305 0.076,2.611 0.114,3.916l5.728 5.863c0.371,-0.891 0.741,-1.781 1.112,-2.672zm-45.927 -9.835l-1.83 -1.893c-0.043,1.223 -0.085,2.438 -0.127,3.648l1.957 2.027 0 -3.782zm0 4.664l-1.987 -2.058c-0.043,1.224 -0.085,2.442 -0.128,3.652l2.115 2.194 0 -3.788zm0 -18.234c-0.191,-0.326 -0.381,-0.651 -0.572,-0.976l-0.79 -0.813c-0.042,1.217 -0.084,2.428 -0.126,3.635l1.488 1.534 0 -3.38zm0 4.259l-1.518 -1.564c-0.042,1.218 -0.084,2.432 -0.126,3.639l1.644 1.697 0 -3.772zm0 4.653l-1.674 -1.728c-0.042,1.22 -0.084,2.435 -0.127,3.643l1.801 1.862 0 -3.777zm49.198 22.527c-0.012,1.261 -0.024,2.522 -0.035,3.784l10.986 11.26c-0.049,-1.327 -0.097,-2.656 -0.145,-3.983l-10.806 -11.061zm-0.079 8.441l11.208 11.504c-0.049,-1.33 -0.097,-2.66 -0.145,-3.99l-11.027 -11.303 -0.036 3.789zm-20.073 -6.552l1.729 1.782c-0.57,-1.106 -1.141,-2.212 -1.711,-3.318 -0.006,0.512 -0.012,1.024 -0.018,1.536zm10.576 5.226c0.276,-0.666 0.553,-1.331 0.831,-1.997l1.982 2.037c-0.86,-1.068 -1.717,-2.137 -2.576,-3.205 0.003,0.189 0.007,0.379 0.01,0.568l-0.333 -0.343c0.028,0.98 0.057,1.96 0.086,2.94zm-0.832 -32.651c-0.039,-1.216 -0.078,-2.433 -0.117,-3.65 -1.661,-0.83 -3.322,-1.66 -4.983,-2.491 0.181,0.5 0.363,0.998 0.545,1.498l4.555 4.643 0 0zm9.871 10.935l-7.205 -7.343c-0.614,0.638 -1.227,1.276 -1.841,1.914l7.935 8.098 1.111 -2.669zm-56.248 39.512l-8.443 -8.888c-0.132,0.162 -0.264,0.318 -0.397,0.471l8.862 9.329c-0.007,-0.304 -0.015,-0.609 -0.022,-0.912zm-0.114 -4.834l-6.436 -6.764c-0.104,0.181 -0.214,0.362 -0.329,0.542l6.786 7.132c-0.006,-0.304 -0.014,-0.607 -0.021,-0.91zm-0.114 -4.83l-4.83 -5.067c-0.079,0.212 -0.161,0.42 -0.248,0.628l5.099 5.35c-0.008,-0.304 -0.014,-0.608 -0.021,-0.912l0 0.001zm-0.114 -4.819l-3.651 -3.825c-0.055,0.238 -0.112,0.474 -0.171,0.708l3.843 4.025c-0.008,-0.303 -0.014,-0.605 -0.021,-0.908zm-0.114 -4.813l-2.81 -2.937c-0.039,0.256 -0.078,0.51 -0.118,0.76l2.949 3.084c-0.008,-0.303 -0.014,-0.606 -0.021,-0.907zm-0.114 -4.808l-2.153 -2.248c-0.03,0.268 -0.06,0.532 -0.09,0.792l2.264 2.364c-0.006,-0.303 -0.014,-0.606 -0.021,-0.908zm28.442 15.527l4.672 4.853c-0.038,-0.666 -0.079,-1.387 -0.124,-2.169 -0.04,-0.68 -0.077,-1.314 -0.113,-1.911l-4.435 -4.6 0 -0.881 -8.17 -8.474c-0.021,0.274 -0.042,0.548 -0.058,0.82l7.559 7.842c-0.001,1.272 -0.004,2.545 -0.006,3.819l-7.711 -8.012c-0.007,0.288 -0.013,0.577 -0.018,0.864l8.404 8.732 0 -0.883zm0 -9.411l4.068 4.214c-0.114,-1.886 -0.167,-2.94 -0.173,-4l-4.552 -4.707c-0.001,1.268 -0.003,2.538 -0.004,3.808l-7.007 -7.256c-0.041,0.255 -0.081,0.508 -0.117,0.759l7.785 8.063 0 -0.881zm-0.655 -5.373l-6.207 -6.418c-0.06,0.235 -0.117,0.469 -0.173,0.701l7.035 7.275 0 -0.88 0 0 3.903 4.035c0.003,-0.171 0.007,-0.347 0.012,-0.533 0.015,-0.519 0.051,-1.601 0.165,-3.099l-4.08 -4.213 0 -0.88 -5.798 -5.987c-0.075,0.216 -0.147,0.435 -0.219,0.655l5.966 6.16c-0.201,0.409 -0.4,0.815 -0.601,1.216l0 0c-0.002,0.656 -0.002,1.312 -0.003,1.968zm0.655 -8.694l-4.514 -4.656c-0.087,0.203 -0.173,0.408 -0.258,0.615l4.772 4.919 0 -0.878zm14.867 16.207c-0.045,-0.331 -0.086,-0.667 -0.124,-1.007l-0.002 -0.002 -5.27 -5.433c-0.046,0.255 -0.088,0.504 -0.127,0.746l5.523 5.696zm15.787 15.399l-10.903 -11.244c0.006,0.3 0.01,0.598 0.016,0.898l10.831 11.166c0.018,-0.273 0.038,-0.548 0.056,-0.82zm-40.504 -46.424l-2.107 -2.17c-0.015,0.278 -0.03,0.556 -0.045,0.834l2.16 2.222c-0.002,-0.295 -0.006,-0.591 -0.008,-0.886zm9.85 10.14l-3.035 -3.123c-0.097,0.188 -0.196,0.382 -0.292,0.577l3.327 3.426 0 -0.88zm14.494 14.923l-4.177 -4.302c-0.063,0.235 -0.122,0.468 -0.178,0.696l4.353 4.483c-0.001,-0.29 -0.001,-0.582 0.002,-0.877zm16.464 16.949l-11.299 -11.633c0.006,0.299 0.011,0.598 0.017,0.897l11.225 11.557c0.02,-0.273 0.039,-0.548 0.057,-0.821zm-40.849 -46.711l-1.829 -1.88c-0.015,0.277 -0.03,0.555 -0.045,0.832l1.881 1.934c-0.003,-0.295 -0.005,-0.591 -0.007,-0.886zm9.891 10.168l-1.375 -1.414c-0.109,0.177 -0.217,0.359 -0.327,0.543l1.702 1.75 0 -0.879zm14.816 15.231l-3.409 -3.504c-0.077,0.218 -0.15,0.436 -0.222,0.65l3.535 3.633c0.027,-0.259 0.061,-0.519 0.096,-0.779zm-24.741 -29.228c-0.527,-0.672 -1.054,-1.345 -1.582,-2.017 -0.008,0.131 -0.014,0.263 -0.021,0.393l1.603 1.646 0 -0.022zm25.504 25.325l-2.865 -2.942c-0.088,0.204 -0.175,0.408 -0.261,0.61l2.954 3.03c0.056,-0.232 0.113,-0.464 0.172,-0.698zm-1.658 -5.504l2.551 2.613c0.075,-0.211 0.153,-0.423 0.235,-0.636l-2.489 -2.552c-0.1,0.189 -0.199,0.381 -0.297,0.575zm4.221 -1.231l-2.242 -2.294c-0.109,0.177 -0.219,0.357 -0.327,0.54l2.279 2.333c0.095,-0.195 0.191,-0.389 0.29,-0.579zm36.417 28.703l5.804 5.924c0.036,-0.255 0.073,-0.509 0.109,-0.763l-5.552 -5.668c-0.121,0.17 -0.241,0.339 -0.361,0.507zm-17.073 -27.676l-8.161 -8.306c-0.127,0.168 -0.249,0.336 -0.367,0.499l8.368 8.519c0.054,-0.237 0.108,-0.475 0.16,-0.712zm11.765 11.977l-10.157 -10.341c-0.021,0.27 -0.043,0.539 -0.063,0.809l10.354 10.542c-0.037,-0.334 -0.083,-0.67 -0.134,-1.01zm-18.219 -22.343l7.15 7.268c0.054,-0.237 0.106,-0.475 0.159,-0.712l-6.891 -7.005c-0.143,0.15 -0.283,0.3 -0.418,0.449zm8.4 7.666c-0.021,0.269 -0.042,0.539 -0.063,0.809l8.753 8.897c-0.137,-0.454 -0.283,-0.892 -0.433,-1.313l-8.257 -8.393zm-31.33 -3.061l-1.253 -1.286c-0.327,0.906 -0.666,1.82 -1.02,2.747l1.345 1.379c0.281,-0.92 0.591,-1.868 0.928,-2.839l0 -0.001zm-1.129 3.513l-1.385 -1.422c-0.343,0.889 -0.7,1.787 -1.069,2.695l1.643 1.69c0.24,-0.949 0.51,-1.939 0.811,-2.963zm2.339 -6.753c-0.434,-0.454 -0.869,-0.908 -1.304,-1.364 -0.297,0.88 -0.607,1.774 -0.93,2.678l1.254 1.283c0.304,-0.85 0.628,-1.714 0.98,-2.597zm-9.993 40.214l5.611 5.838c-0.044,-1.003 -0.11,-2.315 -0.206,-4.052l-5.4 -5.611c-0.002,1.274 -0.003,2.55 -0.005,3.825zm5.782 -25.603c0.022,-0.117 0.045,-0.24 0.067,-0.358l-2.285 -2.353c-0.385,0.883 -0.773,1.75 -1.163,2.602l2.911 3.001c0.131,-0.914 0.287,-1.883 0.47,-2.892zm-0.576 3.663l-3.081 -3.177c-0.402,0.87 -0.807,1.721 -1.212,2.556l3.915 4.041c0.087,-1.003 0.21,-2.156 0.378,-3.42zm1.465 -7.856l-1.724 -1.772c-0.019,0.045 -0.036,0.088 -0.054,0.133 -0.353,0.853 -0.708,1.69 -1.065,2.514l2.162 2.225c0.194,-0.973 0.417,-2.007 0.681,-3.1zm-6.652 16.575c-0.002,1.271 -0.004,2.543 -0.005,3.812l5.045 5.236c-0.102,-1.676 -0.184,-3.003 -0.252,-4.088l-4.788 -4.96zm57.085 -26.853c0.145,-1.122 0.289,-2.242 0.434,-3.363l-5.049 -5.093c0.016,1.282 0.033,2.563 0.049,3.844l4.566 4.612z"/>
   </g>
  </g>
  <path fill="none" d="M69.622 5.532c-9.32,-0.113 -15.317,-0.1 -21.532,-0.475 -6.215,-0.375 -12.649,-1.137 -18.001,-2.044 -5.351,-0.908 -9.62,-1.96 -13.89,-3.013l-2.056 6.766c-2.101,6.05 -3.233,10.386 -4.916,16.285 -0.249,0.873 -0.435,1.453 -0.642,2.333 -2.36,10.025 -4.55,19.989 -6.162,30.214 -0.554,3.516 -0.787,7.435 -1.226,10.942l-0.435 5.757c-0.045,1.83 -0.234,3.899 -0.37,5.626 -0.078,0.987 0.009,2.192 -0.003,3.205 -0.013,1.158 -0.208,1.511 -0.203,2.794 0.009,2.038 0.069,4.202 0.011,6.226 -0.028,1.013 -0.181,1.575 -0.197,2.723l0.192 9.099c-0.03,8.303 0.172,15.985 0.183,24.267 0.002,1.267 0.207,1.666 0.202,2.996 -0.004,0.925 -0.065,2.104 0.005,3.001 0.131,1.645 0.218,4.048 0.519,5.469 1.056,4.985 5.703,6.849 10.073,7.859 3.312,0.766 6.714,1.111 10.138,1.576 4.01,0.545 19.376,0.399 23.493,-0.086 6.45,-0.761 15.507,-0.276 22.162,-1.971 7.272,-1.853 6.398,-2.822 7.435,-7.425 0.87,-3.869 2.219,-13.998 3.169,-16.919 0.807,-2.484 1.721,-7.868 2.195,-10.524 0.344,-1.99 1.133,-3.678 1.718,-5.612 1.344,-4.441 1.694,-7.626 2.92,-12.169 0.377,-1.398 0.722,-2.38 1.102,-3.854 0.997,-3.864 2.19,-8.249 2.968,-12.117 0.575,-2.856 1.095,-5.36 1.653,-8.289l2.191 -12.734c0.189,-0.998 0.23,-2.248 1.182,-2.596 0.952,0.348 0.993,1.598 1.182,2.596l2.191 12.734c0.558,2.929 1.077,5.433 1.652,8.289 0.779,3.868 1.972,8.253 2.968,12.117 0.38,1.474 0.725,2.456 1.103,3.854 1.226,4.543 1.576,7.728 2.919,12.169 0.585,1.934 1.375,3.622 1.719,5.612 0.473,2.654 1.389,8.042 2.195,10.524 0.949,2.921 2.299,13.05 3.169,16.919 1.037,4.603 0.163,5.572 7.434,7.425 6.656,1.695 15.712,1.21 22.163,1.971 4.117,0.485 19.483,0.631 23.492,0.086 3.425,-0.465 6.827,-0.81 10.138,-1.576 4.371,-1.01 9.018,-2.874 10.074,-7.859 0.301,-1.421 0.388,-3.824 0.519,-5.469 0.07,-0.897 0.009,-2.076 0.005,-3.001 -0.005,-1.33 0.2,-1.729 0.202,-2.996 0.011,-8.282 0.213,-15.964 0.183,-24.267l0.191 -8.764 -0.196 -3.058c-0.058,-2.024 0.002,-4.188 0.011,-6.226 0.004,-1.283 -0.19,-1.636 -0.204,-2.794 -0.011,-1.013 0.076,-2.218 -0.002,-3.205 -0.136,-1.727 -0.325,-3.796 -0.37,-5.626l-0.436 -5.757c-0.439,-3.507 -0.671,-7.426 -1.225,-10.942 -1.612,-10.225 -3.802,-20.189 -6.162,-30.214 -0.207,-0.88 -0.394,-1.46 -0.643,-2.333 -1.682,-5.899 -2.814,-10.235 -4.915,-16.285l-2.057 -6.766c-2.951,0.866 -5.902,1.731 -9.677,2.477 -3.774,0.745 -8.371,1.369 -13.806,1.869 -5.434,0.5 -11.706,0.875 -19.026,1.15 -7.321,0.274 -15.692,0.449 -26.199,0.418 -10.507,-0.031 -23.15,-0.269 -32.47,-0.382z"/>
 </g>
</svg>
