<?xml version="1.0" encoding="utf-8"?>
<!-- Generator: Adobe Illustrator 16.0.3, SVG Export Plug-In . SVG Version: 6.00 Build 0)  -->
<!DOCTYPE svg PUBLIC "-//W3C//DTD SVG 1.1//EN" "http://www.w3.org/Graphics/SVG/1.1/DTD/svg11.dtd">
<svg version="1.1"
	 id="Layer_1" image-rendering="optimizeQuality" text-rendering="geometricPrecision" shape-rendering="geometricPrecision" xmlns:xodm="http://www.corel.com/coreldraw/odm/2003"
	 xmlns="http://www.w3.org/2000/svg" xmlns:xlink="http://www.w3.org/1999/xlink" x="0px" y="0px" width="240px" height="296px"
	 viewBox="0 0 240 296" enable-background="new 0 0 240 296" xml:space="preserve">
<g id="Camada_x0020_1">
	<path id="d3" fill="#F00808" d="M53.565,165.891v-0.593h0.544v3.269h0.207v0.914h0.544v-1.301h0.116v-2.882h0.544v1.499h0.28
		v-1.499v3.705h0.401v5.244h0.143v1.476h0.544v-8.926h0.308v-1.499v3.705h0.533v3.989h0.555v-6.764h0.295v-0.341h0.029v-0.59v3.705
		h0.437v5.609h0.545v-1.62h0.106v-6.764h0.225v4.766h0.544v-5.762h0.335v7.698h0.544v-1.937h0.517v-7.826h0.218v3.512h0.544v6.836
		h0.543v-2.156h0.143v-8.191h0.508v-0.534h0.159v4.015h0.15v3.795h0.035v0.916h0.544v-1.684h0.359v-3.603h0.149v-3.439h0.158v4.015
		h0.201v4.711h0.544v-1.684h0.226v0.586h0.544v-3.506h0.149v-0.107h0.292v3.027h0.375v9.299h0.544v-8.713h0.035v-3.072h0.106v0.298
		h0.402v-4.062h0.36v6.836h0.544v-3.072h0.09v0.537h0.426v-0.912h0.335v1.288h0.544v-0.913h0.106v0.537h0.226v7.996h0.544v-3.194
		h0.334v-6.547h0.517v5.8h0.544v-7.547h0.544v-0.673h0.151v4.532v-2.655h0.173v6.343h0.371v0.674h0.544v-8.221h0.173v-0.673h0.158
		v5.713h0.544v-0.659h0.471v-1.426h0.381v2.085h0.545v0.245h0.201v-2.122h0.278v-1.959h0.388v3.836h0.545v-0.073h0.035v-0.108h0.121
		v-1.695h0.387v-0.544h0.294v-1.492h0.05v3.84h0.543v0.316h0.544v8.25h0.544v-8.566h0.325v-0.597h0.406v0.876h0.396v-4.119h0.147
		v3.716h0.544v-0.473h0.396v-2.766h0.279v2.942v-2.472h0.544v1.55h0.137v6.654h0.544v-8.675h0.308v2.063v-1.641h0.545v5.52h0.544
		v-2.264h0.229v9.457h0.543v-12.713h0.095v5.52h0.544v-5.957h0.014v10.422h0.544v-10.338h0.544v2.656v-0.838h0.173v-1.902h0.543
		v2.035h0.544v-1.178h0.174v9.041h0.545v-6.448h0.308v-3.013h0.344v6.73h0.2v2.73h0.544v-5.865h0.233v-4.16h0.091v0.564h0.327v6.73
		h0.217v2.73h0.544v-10.42h0.537v4.555h0.115v3.135h0.544v-3.718h0.392v-1.177h0.122v10.684h0.543v-5.851h0.544v-3.707v0.051h0.203
		v-1.177h0.391v-1.494h0.545v0.51h0.032v1.765h0.288v-2.274h0.544v-0.121h0.003v0.121h0.545v0.51h0.08v8.414h0.544v-5.852h0.544
		v-1.125h0.257v0.953h0.052v6.219h0.543v-6.047h0.545v-4.052h0.033v3.525H102v6.573h0.544v-6.047h0.544v-4.052h0.305v2.274h0.32
		v-2.601h0.345v0.084h0.544v1.383h0.544v-1.467h0.507v0.952h0.232v6.008h0.544v7.777h0.544v-14.737h0.092v0.952h0.303v-0.952h0.545
		v3.269h0.207v0.914h0.544v-1.301h0.117v-2.882h0.544v1.499h0.28v-1.499v3.705h0.402v5.244h0.142v2.533h0.544v-9.983H111v-1.499
		v3.705h0.544v2.778h0.544v-5.553h0.295v-0.341h0.03v-0.59v3.705h0.302v5.609h0.544v-2.831h0.241v-5.553h0.225v4.766h0.545v-3.811
		h0.334v0.344h0.518v3.467h0.544v-7.826h0.218v3.85h0.544v7.687h0.544v-3.345h0.006v-0.365h0.1v-7.826h0.543v-0.534h0.159v1.296
		h0.185v7.43h0.151v4.857h0.544v-7.272h0.208v-1.496h0.335v-0.8h0.173v4.711h0.544v-1.684h0.226v1.774h0.15v7.331h0.543v-10.367
		h0.291v1.262h0.411v0.586h0.292v2.701h0.543v-8.769h0.285v9.653h0.544v-3.586h0.292v-3.251h0.252v-2.182h0.159v10.366h0.106v0.332
		h0.544v-2.266h0.47v-7.698h0.291v9.632h0.544v-10.67h0.226v8.769h0.15v1.318h0.544v-4.02h0.142v-4.171h0.402v-1.896h0.174v8.769
		h0.545v-1.513h0.274v-1.773h0.427v-3.028h0.335v7.268h0.544v-2.466h0.106v-2.507h0.226v2.085h0.545v-7.1h0.185v-1.092h0.282v6.313
		h0.52v1.879h0.544v-2.42h0.024v-4.68h0.042v-1.092h0.478v-0.534h0.083v12.401h0.544v-2.104h0.544v-9.763h0.241v-0.534h0.209v8.36
		h0.544v-4.229h0.289v-0.536h0.201v-0.515h0.343v2.704v-2.732h0.034v5.309h0.544v-4.766h0.227v5.553h0.543v-2.105h0.545v-3.707
		v3.535h0.028v-3.275h0.278v10.552h0.545v-7.104h0.544v-3.707v3.181h0.233v-0.599h0.09v8.229h0.545v-7.104h0.544v-3.707v1.16h0.278
		v-1.832h0.258v1.468h0.545v2.647h0.543v-2.283h0.051v-1.832h0.545v0.953h0.319v-0.953h0.257v6.961h0.545v6.717h0.543V166.25h0.053
		v-0.953h0.543v2.883h0.032v1.678h0.544v-4.16h0.545v-0.4h0.291v2.883h0.303v-2.021h0.034v1.858v-2.715h0.287v3.7h0.257v0.854h0.287
		v5.865h0.544v-7.543h0.003v-2.021h0.305v-0.861v3.705h0.544v3.644h0.544v-6.337h0.121v1.55h0.203v1.144h0.543v3.644h0.545v-7.062
		h0.081v1.019h0.433v9.789h0.544v-9.789h0.114v0.51h0.305v-0.51h0.233v12.371h0.544v-8.785h0.543v-3.029v2.114h0.091v-2.671h0.544
		v1.123h0.393v1.548h0.191v-1.415h0.217v5.279h0.545v-6.457h0.326v2.47v-1.425h0.133v1.548h0.191v6.448h0.545v-2.584h0.201v-4.062
		h0.149v-2.142h0.192v-1.753h0.309v10.54h0.545v-2.584h0.215v-6.203h0.014v8.1h0.545v-4.846h0.094v5.533h0.543v-8.787h0.545v2.339
		h0.174v-3.45h0.545v2.936h0.462v-3.321h0.39v0.386h0.423v5.957h0.544v-4.846h0.544v-0.217h0.048v1.896h0.261v3.166h0.543v-4.846
		h0.543v5.666h0.544v-0.82h0.324v-4.846h0.545v1.641v-3.07h0.406v1.348h0.01v1.28h0.471v0.033v-2.654h0.543v7.016h0.545v-4.395
		h0.332v1.214h0.545v-1.246h0.336v-0.614h0.037v0.646h0.479v1.214h0.543v-3.986h0.066v2.108h0.479v-0.542h0.324v2.42h0.371v5.688
		h0.543v-7.565h0.174v-0.542h0.159v2.59h0.184v-0.243h0.544v-2.934h0.15v-0.446h0.545v3.623h0.173v-0.243h0.544v-5.04h0.017v1.422
		h0.545v4.371h0.142v1.754h0.544v-7.547h0.508v-0.673h0.308v10.286h0.036v1.875h0.544v-8.412h0.358v-0.3h0.149v-3.449h0.359v12.161
		h0.545v-2.461h0.375v-6.488h0.396v-1.21h0.149v-2.478h0.291v4.225h0.375v7.302h0.544v-4.02h0.142v-4.171h0.402v-2.665h0.142v-1.355
		h0.218v4.372h0.09v3.819h0.545v-0.585h0.428v-3.028h0.333v7.268h0.544v-3.654h0.106v-0.585h0.226v1.352h0.545v-4.38h0.186v-3.812
		h0.281v6.313h0.042v0.527h0.344v1.352h0.544v-2.42h0.158v-1.96h0.041v-3.812h0.344v-0.534h0.218v14.56h0.556v-4.263h0.532v-9.763
		h0.107v-0.534h0.343v8.36h0.544v-4.229h0.289v-0.536h0.201v-0.515h0.343v2.704v-2.732h0.035v5.035
		c0.047-1.993,0.102-3.926,0.16-5.672c0.174-5.257,0.375-8.824,0.651-12.793c0.275-3.969,0.628-8.34,0.974-12.258
		c0.347-3.918,0.688-7.385,1.121-11.731c0.432-4.345,0.955-9.57,1.482-13.976s1.059-7.993,1.509-10.608
		c0.243-1.407,0.46-2.533,0.659-3.435v-1.642h-0.543v-6.717h-0.545v13.678h-0.092v-2.009h-0.305v2.009h-0.543v1.401h-0.207v-5.585
		h-0.544v5.97h-0.116v-1.786h-0.545v3.169h-0.278v-6.876h-0.403v-5.243h-0.142v-1.474h-0.544v13.593h-0.309v-6.876h-0.531v-3.988
		h-0.557v6.765h-0.295v-0.715h-0.029v1.646v-3.707h-0.438v-5.608h-0.543v1.621h-0.107v6.765h-0.226v-4.765h-0.544v5.76h-0.334
		v-7.698h-0.545v1.938h-0.516v6.768h-0.219v2.215h-0.545V97.349h-0.543v2.157h-0.142v7.134h-0.509v0.535h-0.158v1.713h-0.15v-8.466
		h-0.035v-0.916h-0.543v1.683h-0.359v2.548h-0.148v3.438h-0.159v1.713h-0.2v-9.381h-0.545v1.683h-0.227v-0.584h-0.544v8.174h-0.149
		v0.109h-0.293v-7.699h-0.374v-9.299h-0.544v8.714h-0.034v3.071h-0.106v4.371h-0.403v-4.517v2.854h-0.359v-5.779h-0.543v3.071
		h-0.091v4.133h-0.428v0.91h-0.333v-5.956h-0.546v0.913h-0.105v4.133h-0.227V95.143h-0.544v3.194h-0.335v6.545h-0.517v-5.8h-0.544
		v6.493h-0.544v0.672h-0.151v1.192v-2.014h-0.173v-6.343h-0.37v-0.673h-0.545v10.54v-3.374h-0.173v0.672h-0.159v-4.657h-0.543v0.66
		h-0.471v1.426h-0.381v-2.085h-0.544v4.425h-0.201v2.121h-0.278v-2.711h-0.389v-3.835h-0.544v0.072h-0.036v4.777h-0.119v1.696
		h-0.389v0.543h-0.295v-3.176h-0.049v-3.84h-0.544v-0.316h-0.543v-8.249h-0.544v8.565h-0.324v5.268h-0.406v-0.877h-0.396v-0.55
		h-0.148v-3.716h-0.544v5.144h-0.396v-3.414v0.452h-0.279v2.784v-2.2h-0.544v-1.547h-0.138V96.35h-0.544v7.619h-0.309v3.662v-3.03
		h-0.543v-5.519h-0.544v2.265h-0.23v-9.458h-0.544v12.711h-0.095v-5.519h-0.544v5.958h-0.013V94.617h-0.544v10.339h-0.544v2.852
		h-0.174v-2.768h-0.543v-2.035h-0.543v1.177h-0.176v-9.04h-0.545v11.116h-0.307v-1.658h-0.344v-6.729h-0.201v-2.729h-0.543v5.864
		h-0.232v4.16h-0.092v-0.565h-0.328v-6.729h-0.217v-2.729h-0.543v10.42h-0.537v-4.556h-0.115v-3.134h-0.543v8.386h-0.393v1.178
		h-0.121V92.084h-0.545v5.85h-0.543v8.324h-0.203v1.178h-0.393v-3.177h-0.543v4.16h-0.033v-1.763h-0.288v-2.397h-0.544v0.122h-0.004
		v-0.122h-0.545v4.16h-0.078V95.337h-0.545v5.851h-0.544v1.125h-0.257v3.716h-0.052V95.143h-0.543v6.045h-0.544v3.706v-0.708h-0.033
		v3.942v-1.745h-0.291V95.143h-0.544v6.045h-0.545v3.706v-0.708h-0.304v-0.045v3.496h-0.32v-2.069h-0.344v-0.084h-0.545v-1.384
		h-0.544v1.468H142.4v-2.009h-0.232v-4.952h-0.545v-7.775h-0.543v14.736h-0.092v-2.009h-0.305v2.009h-0.543v1.401h-0.207v-5.585
		h-0.544v5.97h-0.116v-1.786h-0.546v3.169h-0.278v-6.876h-0.402v-5.243h-0.143v-2.532h-0.543v14.651h-0.309v-6.876h-0.545v-2.778
		h-0.543v5.555h-0.296v-0.715h-0.028v1.646v-3.707h-0.302v-5.608h-0.544v2.831h-0.242v5.555h-0.225v-4.765h-0.545v8.48h-0.334
		v-5.015h-0.518v-3.465h-0.545v6.768h-0.217v1.877h-0.545V96.161h-0.543v3.345h-0.007v0.366h-0.101v6.768h-0.543v0.535h-0.158
		v-1.293h-0.186v-6.375h-0.15v-4.857h-0.543v11.942h-0.209v1.495h-0.336v0.801h-0.174v-9.381h-0.543v1.683h-0.227v-1.773h-0.149
		v-7.331h-0.544v15.034h-0.291v-5.93h-0.411v-0.584h-0.292v-2.701h-0.545v7.712h-0.283v-8.596h-0.544v3.585h-0.292v7.919h-0.252
		v-3.544h-0.158v-9.309h-0.107v-0.333h-0.544v2.266h-0.47v7.699h-0.291v-9.632h-0.545v9.614h-0.225v-7.712h-0.15v-1.319h-0.544v4.02
		h-0.142v8.841h-0.402v-4.764v0.936h-0.174v-7.712h-0.544v1.511h-0.276v1.774h-0.426v7.698h-0.334V96.617h-0.544v2.465h-0.107v7.176
		h-0.226v-6.753h-0.543v6.043h-0.185v1.091h-0.282v-5.256h-0.52v-1.877h-0.544v7.088h-0.024v1.603v-2.648h-0.042v1.091h-0.478v0.535
		h-0.083v0.964v-12.31h-0.544v2.106h-0.544v8.705h-0.241v0.535h-0.208v-7.302h-0.544v4.227h-0.289v0.538h-0.201v0.514h-0.343v1.964
		v-2.994h-0.035v-4.25h-0.544v4.765h-0.225v-5.555h-0.544v2.106h-0.544v4.841h-0.029v-1.393h-0.279V94.085h-0.544v7.103h-0.544
		v5.195h-0.232v-4.07h-0.092v-8.228h-0.544v7.103h-0.544v7.217h-0.28v-2.838h-0.257v-1.468h-0.544v2.023h-0.544v2.283h-0.051v-2.838
		h-0.544v-2.009h-0.32v2.009h-0.257v-6.961h-0.544v-6.717h-0.544v15.091v-3.422h-0.051v2.009h-0.543v1.786h-0.033v-6.346h-0.544
		v4.16h-0.544v0.401h-0.292v1.786h-0.304v-3.702h-0.033v3.865v-1.953h-0.287v-3.703h-0.257v-0.854h-0.287v-5.864h-0.544v12.21
		h-0.004v-3.702h-0.304v1.916v-3.707h-0.544v-3.641h-0.544v6.334h-0.122v-1.547h-0.202v-1.146h-0.544v-3.641h-0.544v7.061h-0.081
		v-1.02h-0.433v-9.788h-0.544v9.788h-0.115v4.16h-0.305v-4.16h-0.232V91.889h-0.545v8.787h-0.543v5.583h-0.092v-1.999h-0.544v3.548
		h-0.392v-1.55H93.35v-3.252h-0.217v-5.281h-0.544v6.459h-0.328v3.625h-0.133v-1.55h-0.191V95.143h-0.544v2.582h-0.2v4.062h-0.15
		v2.142h-0.193v1.754h-0.308v-10.54h-0.545v2.582h-0.216v6.204h-0.013v-8.101h-0.544v4.848h-0.094v-5.533h-0.544v8.786h-0.544v2.33
		h-0.174v-1.218h-0.544v1.734H86.86v-1.349h-0.389v-0.385h-0.423v-5.958h-0.544v4.847H84.96v0.217h-0.048v-1.896h-0.259v-3.168
		h-0.544v4.847h-0.544v-5.666h-0.543v0.819h-0.325v4.847h-0.544v3.028v-2.654h-0.407v4.376h-0.009v-1.28h-0.471v-2.047h-0.544
		v-7.015h-0.544v9.062h-0.331v-5.882h-0.544v1.245h-0.335v5.283h-0.039v-0.646h-0.479v-5.882h-0.544v3.986H77.84v2.56h-0.479v0.544
		h-0.323v-7.09h-0.371v-5.689h-0.544v12.235h-0.174v0.544h-0.158v-2.591h-0.185v-4.425h-0.544v7.604h-0.151v-4.224h-0.544v1.045
		h-0.173v-4.425H73.65v3.985h-0.017v-1.424H73.09v-3.314h-0.143v-1.755h-0.543v6.493h-0.509v0.672h-0.308v-9.229h-0.036v-1.876
		h-0.544v13.08h-0.359v0.3H70.5v-2.275h-0.359V95.143h-0.544v2.46h-0.376v6.488h-0.396v1.211h-0.148v1.421h-0.291v1.5h-0.377V96.251
		h-0.543v4.02h-0.143v8.841h-0.402v-4.764v1.704h-0.142v1.354h-0.217v-3.314h-0.091v-3.82h-0.544v0.585h-0.426v7.698h-0.335V96.617
		h-0.544v3.654h-0.105v0.585H64.29v-1.351h-0.544v9.049h-0.184v-1.915H63.28v-5.256h-0.042v-0.526h-0.344v-1.351H62.35v7.088h-0.158
		v1.96h-0.042v-1.915h-0.344v0.535h-0.217V93.671h-0.556v4.263h-0.532v8.705h-0.107v0.535h-0.343v-7.302h-0.544v4.227h-0.289v0.538
		h-0.201v0.514h-0.343v1.964v-2.994h-0.035v-4.25h-0.544v4.765H57.87v-7.711h-0.556v4.262h-0.532v4.841h-0.029v-1.393h-0.279v-9.494
		H55.93v6.045h-0.544v5.195h-0.232v-4.07h-0.092v-7.17h-0.544v6.045h-0.544v7.217h-0.28v-2.838h-0.257v-1.468h-0.544v2.023h-0.544
		v2.283h-0.051v-2.838h-0.544v-2.009h-0.32v2.009h-0.257v-6.961h-0.544v-6.717h-0.544v15.091v-3.422h-0.052v2.009h-0.544v1.786
		h-0.032v-6.346h-0.545v4.16h-0.544v0.401h-0.291v1.786h-0.303v-3.702h-0.033v3.865v-1.953h-0.287v-3.703h-0.257v-0.854h-0.287
		v-5.864H46.37v6.752l0.031,0.123c0.229,0.938,0.407,1.937,0.606,3.543c0.2,1.607,0.421,3.82,0.738,6.223
		c0.316,2.403,0.728,4.995,1.467,11.38c0.738,6.386,1.803,16.564,2.638,24.487C52.618,154.946,53.189,160.33,53.565,165.891z
		 M45.519,99.189v-1.465h-0.544v0.172l0.068,0.155C45.139,98.267,45.314,98.661,45.519,99.189z"/>
	<path id="camisa_contorno" fill="none" d="M136.779,295.682c2.457-0.098,4.621-0.225,7.009-0.355
		c2.389-0.131,5.001-0.265,8.253-0.492s7.144-0.55,10.459-0.852c3.316-0.301,6.056-0.583,8.786-0.947
		c2.729-0.365,5.448-0.813,7.646-1.249s3.873-0.858,5.995-1.329c2.124-0.473,4.696-0.996,6.589-1.32
		c1.891-0.324,3.104-0.453,4.264-0.536c1.158-0.083,2.264-0.124,3.15-0.116c0.888,0.008,1.558,0.063,1.954,0.094
		s0.519,0.038,0.61,0.043c0.049,0.002,0.091,0.004,0.127,0.006c0.094-0.068,0.163-0.18,0.178-0.777
		c0.016-0.674-0.037-1.964-0.107-2.783c-0.067-0.818-0.153-1.166-0.284-1.854c-0.13-0.688-0.307-1.719-0.65-2.683
		c-0.344-0.966-0.856-1.864-1.474-3.042c-0.619-1.178-1.342-2.636-1.782-3.612c-0.438-0.978-0.595-1.476-0.847-2.69
		c-0.25-1.216-0.598-3.15-0.951-5.865c-0.354-2.716-0.716-6.212-1.037-8.875c-0.322-2.662-0.604-4.49-1.08-7.551
		c-0.478-3.06-1.15-7.35-1.709-11.51c-0.557-4.159-0.999-8.188-1.346-12.213c-0.346-4.023-0.598-8.043-0.759-11.625
		c-0.16-3.582-0.23-6.727-0.286-9.776s-0.095-6.003-0.156-9.249c-0.06-3.245-0.141-6.781-0.107-12.024
		c0.032-5.242,0.178-12.19,0.352-17.448c0.174-5.257,0.375-8.824,0.651-12.793c0.275-3.969,0.628-8.34,0.974-12.258
		c0.347-3.918,0.688-7.385,1.121-11.731c0.432-4.345,0.955-9.57,1.482-13.976s1.059-7.993,1.509-10.608
		c0.45-2.614,0.816-4.257,1.138-5.303c0.322-1.044,0.598-1.492,0.803-1.763s0.338-0.366,0.404-0.414
		c0.066-0.049,0.066-0.049,0.049,0.598c-0.018,0.645-0.053,1.937-0.107,3.529c-0.055,1.592-0.131,3.486-0.172,4.962
		c-0.041,1.476-0.05,2.533-0.08,3.183c-0.029,0.649-0.082,0.89-0.102,1.01c-0.019,0.12-0.004,0.117-0.041,0.151
		c-0.037,0.034-0.129,0.104-0.134,0.679c-0.005,0.575,0.075,1.656,0.192,3.048c0.117,1.394,0.27,3.099,0.322,4.78
		c0.051,1.682,0,3.339,0.002,4.226c0,0.887,0.051,1.002,0.132,1.078c0.079,0.075,0.187,0.11,1.001,0.06
		c0.812-0.052,2.329-0.188,4.1-0.324c1.771-0.136,3.796-0.271,5.947-0.43c2.154-0.158,4.435-0.339,6.582-0.462
		c2.147-0.123,4.162-0.188,5.986-0.298c1.823-0.111,3.457-0.267,5.33-0.47c1.873-0.204,3.988-0.456,6.009-0.682
		c2.02-0.226,3.943-0.426,5.104-0.564c1.16-0.138,1.557-0.214,1.756-0.326c0.199-0.114,0.199-0.264,0.229-0.905
		c0.029-0.64,0.09-1.771,0.107-3.129c0.018-1.359-0.008-2.947-0.022-4.424c-0.015-1.476-0.021-2.843-0.038-3.719
		c-0.018-0.877-0.047-1.264-0.072-1.469c-0.023-0.203-0.041-0.226-0.082-0.293c-0.04-0.068-0.102-0.181-0.174-0.68
		c-0.07-0.5-0.151-1.387-0.254-2.319s-0.229-1.91-0.349-2.735c-0.118-0.827-0.231-1.502-0.411-2.542
		c-0.18-1.04-0.426-2.443-0.613-3.445s-0.315-1.599-0.436-2.267c-0.12-0.669-0.234-1.407-0.365-2.119
		c-0.132-0.712-0.283-1.398-0.425-2.154c-0.142-0.756-0.274-1.583-0.374-2.32c-0.1-0.737-0.165-1.385-0.239-2.026
		c-0.073-0.642-0.157-1.278-0.257-2.033c-0.102-0.757-0.219-1.633-0.34-2.524c-0.119-0.89-0.244-1.794-0.354-2.562
		c-0.107-0.767-0.204-1.397-0.371-2.341c-0.168-0.944-0.408-2.201-0.818-4.081c-0.412-1.879-0.996-4.382-1.703-6.883
		c-0.709-2.502-1.543-5.004-2.648-7.737c-1.104-2.733-2.481-5.697-4.089-8.843c-1.608-3.144-3.446-6.47-4.874-8.771
		c-1.426-2.301-2.44-3.577-3.448-4.625c-1.007-1.047-2.007-1.866-3.011-2.605c-1.006-0.738-2.016-1.396-2.581-1.77
		c-0.564-0.375-0.686-0.465-0.755-0.57c-0.068-0.106-0.086-0.226-0.095-0.303c-0.009-0.077-0.009-0.109-0.069-0.175
		c-0.061-0.065-0.181-0.163-1.307-0.713c-1.125-0.55-3.255-1.553-5.304-2.599c-2.048-1.048-4.015-2.14-5.765-2.973
		s-3.281-1.405-5.055-1.955s-3.789-1.078-5.424-1.505c-1.635-0.427-2.892-0.753-3.758-1.007c-0.867-0.254-1.344-0.435-2.043-0.699
		c-0.697-0.266-1.617-0.614-2.604-0.909c-0.985-0.294-2.039-0.533-2.713-0.687c-0.674-0.152-0.97-0.221-1.438-0.471
		c-0.467-0.25-1.104-0.681-1.58-0.935c-0.475-0.254-0.786-0.33-1.07-0.364c-0.287-0.035-0.545-0.03-0.777-0.03
		s-0.438-0.005-1.342-0.33c-0.902-0.325-2.503-0.971-4.021-1.575s-2.955-1.167-4.399-1.746s-2.896-1.175-3.812-1.567
		c-0.916-0.393-1.295-0.584-1.593-0.778c-0.298-0.195-0.513-0.392-0.704-0.498c-0.191-0.104-0.355-0.115-0.465-0.115
		c-0.111-0.001-0.166,0.009-0.252-0.005c-0.086-0.013-0.204-0.052-0.586-0.291c-0.382-0.24-1.027-0.683-1.676-1.192
		c-0.65-0.509-1.303-1.087-1.955-1.659c-0.652-0.571-1.303-1.137-2.309-1.567c-1.006-0.43-2.367-0.727-3.719-0.918
		c-1.352-0.191-2.693-0.276-4.572-0.354c-1.879-0.078-4.295-0.148-7.922-0.13c-3.628,0.018-8.465,0.123-12.901,0.219
		c-4.435,0.096-8.466,0.183-10.586,0.231c-2.121,0.047-2.33,0.057-4.148,0.202s-5.244,0.427-7.396,0.67
		c-2.153,0.244-3.032,0.45-3.748,0.707c-0.715,0.256-1.269,0.563-1.884,1.078s-1.293,1.239-2.017,1.875
		c-0.724,0.637-1.492,1.187-1.95,1.458s-0.607,0.265-0.901,0.366c-0.293,0.102-0.733,0.313-1.266,0.581
		c-0.533,0.27-1.158,0.596-1.918,0.921s-1.655,0.649-2.299,0.903c-0.644,0.254-1.038,0.437-1.512,0.628
		c-0.473,0.191-1.026,0.39-1.763,0.62c-0.737,0.231-1.659,0.496-2.555,0.835c-0.895,0.34-1.764,0.758-2.57,1.075
		c-0.806,0.316-1.551,0.532-2.296,0.748c-0.747,0.216-1.495,0.432-2.051,0.655c-0.556,0.222-0.921,0.451-1.206,0.635
		c-0.285,0.185-0.492,0.326-1,0.476c-0.507,0.149-1.316,0.31-1.911,0.462c-0.596,0.154-0.978,0.3-1.486,0.491
		c-0.51,0.192-1.146,0.428-1.749,0.616c-0.602,0.189-1.169,0.33-1.686,0.459c-0.515,0.129-0.979,0.247-1.697,0.425
		c-0.718,0.179-1.692,0.417-2.548,0.632c-0.856,0.216-1.596,0.408-2.169,0.57c-0.573,0.161-0.979,0.292-1.435,0.425
		c-0.455,0.134-0.961,0.271-1.425,0.399c-0.464,0.129-0.886,0.25-1.31,0.377c-0.424,0.128-0.85,0.262-1.202,0.398
		c-0.353,0.137-0.632,0.276-1.012,0.437c-0.38,0.159-0.861,0.338-1.277,0.53c-0.417,0.191-0.768,0.393-1.165,0.602
		s-0.837,0.423-1.219,0.616c-0.382,0.194-0.704,0.365-1.125,0.587c-0.421,0.223-0.939,0.496-1.656,0.865
		c-0.715,0.371-1.629,0.837-2.69,1.369c-1.063,0.532-2.273,1.126-3.178,1.573c-0.904,0.448-1.502,0.746-2.035,1.087
		c-0.532,0.34-1,0.722-1.442,1.079c-0.442,0.357-0.859,0.689-1.351,1.078c-0.493,0.39-1.061,0.836-1.777,1.473
		c-0.717,0.637-1.584,1.464-2.373,2.329c-0.789,0.865-1.5,1.769-2.143,2.662c-0.642,0.893-1.218,1.774-1.921,2.932
		c-0.703,1.156-1.535,2.588-2.206,3.817c-0.67,1.228-1.18,2.252-1.73,3.26c-0.55,1.007-1.141,1.997-1.643,2.939
		c-0.502,0.942-0.917,1.836-1.311,2.757c-0.395,0.919-0.769,1.867-1.15,2.753c-0.382,0.886-0.771,1.709-1.284,3.039
		c-0.512,1.331-1.148,3.166-1.715,4.906c-0.565,1.739-1.063,3.382-1.487,4.831c-0.425,1.45-0.776,2.706-1.128,4.22
		s-0.704,3.288-1.143,5.662c-0.44,2.373-0.967,5.347-1.29,7.066c-0.321,1.718-0.437,2.18-0.542,2.669
		c-0.105,0.49-0.201,1.007-0.399,1.833c-0.198,0.824-0.5,1.954-0.806,3.139c-0.307,1.186-0.619,2.427-0.839,3.475
		c-0.221,1.047-0.351,1.901-0.575,3.162c-0.223,1.262-0.54,2.929-0.785,4.293c-0.247,1.364-0.422,2.424-0.529,2.971
		c-0.105,0.548-0.14,0.583-0.203,0.634c-0.064,0.049-0.155,0.115-0.251,2.243c-0.097,2.128-0.197,6.319-0.274,8.613
		c-0.079,2.295-0.133,2.691,0.035,2.899c0.168,0.209,0.559,0.229,1.416,0.337s2.178,0.304,4.507,0.753
		c2.328,0.45,5.665,1.153,8.33,1.666c2.665,0.512,4.66,0.833,6.744,1.18c2.085,0.347,4.26,0.718,7.232,1.191
		c2.972,0.472,6.74,1.045,9.141,1.371c2.401,0.327,3.437,0.407,3.954,0.447c0.518,0.041,0.518,0.041,0.568-0.542
		c0.049-0.583,0.148-1.749,0.262-2.756c0.113-1.009,0.241-1.858,0.393-2.934c0.153-1.077,0.329-2.377,0.498-3.573
		c0.17-1.196,0.333-2.286,0.417-2.898c0.085-0.613,0.09-0.749,0.076-0.864c-0.014-0.115-0.046-0.211-0.023-1.816
		c0.024-1.605,0.104-4.72,0.147-7.25c0.042-2.529,0.048-4.473,0.059-5.595c0.011-1.121,0.029-1.42,0.066-1.616
		c0.039-0.196,0.096-0.289,0.177-0.338c0.08-0.048,0.183-0.053,0.308,0.04c0.124,0.093,0.27,0.284,0.344,0.375
		c0.074,0.091,0.076,0.083,0.078,0.08c0.001-0.003,0.001-0.003,0.115,0.253c0.115,0.256,0.344,0.769,0.597,1.462
		c0.254,0.693,0.533,1.568,0.762,2.504c0.229,0.938,0.407,1.937,0.606,3.543c0.2,1.607,0.421,3.82,0.738,6.223
		c0.316,2.403,0.728,4.995,1.467,11.38c0.738,6.386,1.803,16.564,2.638,24.487c0.834,7.922,1.437,13.589,1.809,19.678
		s0.512,12.601,0.502,19.633c-0.01,7.033-0.171,14.59-0.373,20.589c-0.2,5.997-0.442,10.439-0.724,14.408
		c-0.281,3.968-0.603,7.465-1.446,14.146c-0.844,6.683-2.21,16.549-3.004,23.753c-0.794,7.205-1.015,11.746-1.216,15.252
		c-0.202,3.507-0.382,5.979-0.673,8.114s-0.694,3.934-0.972,5.31c-0.279,1.377-0.435,2.331-0.452,2.932
		c-0.018,0.6,0.103,0.847,0.249,0.975s0.317,0.139,0.5,0.175c0.184,0.036,0.38,0.099,0.469,0.155
		c0.019,0.011,0.032,0.021,0.042,0.037c0.875,0.321,1.75,0.644,3.15,0.924c1.401,0.279,3.326,0.517,6.487,0.753
		c3.16,0.236,7.553,0.471,11.087,0.608c3.534,0.137,6.206,0.178,9.583,0.181c3.376,0.003,7.456-0.03,11.317-0.007
		s7.505,0.104,10.581,0.191c3.074,0.087,5.58,0.181,7.908,0.251c2.328,0.07,4.478,0.116,6.782,0.17
		c2.304,0.054,4.763,0.114,7.349,0.121c2.586,0.007,5.298-0.04,8.031-0.097C131.566,295.846,134.32,295.778,136.779,295.682z"/>
</g>
</svg>
