<?xml version="1.0" encoding="UTF-8"?>
<!DOCTYPE svg PUBLIC "-//W3C//DTD SVG 1.1//EN" "http://www.w3.org/Graphics/SVG/1.1/DTD/svg11.dtd">
<!-- Creator: CorelDRAW -->
<svg xmlns="http://www.w3.org/2000/svg" xml:space="preserve" width="181px" height="149px" version="1.1" shape-rendering="geometricPrecision" text-rendering="geometricPrecision" image-rendering="optimizeQuality" fill-rule="evenodd" clip-rule="evenodd"
viewBox="0 0 205.498 169.387"
 xmlns:xlink="http://www.w3.org/1999/xlink"
 xmlns:xodm="http://www.corel.com/coreldraw/odm/2003">
 <defs>
   <clipPath id="id0">
    <path d="M91.234 163.341c0.06,-0.29 0.117,-0.718 0.209,-2.252 0.091,-1.534 0.216,-4.174 0.518,-9.369 0.303,-5.195 0.782,-12.944 1.164,-18.604 0.382,-5.659 0.667,-9.229 1.038,-13.175 0.37,-3.946 0.826,-8.268 1.397,-12.773 0.57,-4.505 1.254,-9.192 2.132,-14.518 0.879,-5.326 1.95,-11.291 2.766,-15.197 0.815,-3.906 1.374,-5.753 1.733,-6.921 0.358,-1.167 0.516,-1.655 0.64,-1.921 0.123,-0.267 0.212,-0.313 0.296,-0.305 0.084,0.008 0.164,0.069 0.266,0.183 0.103,0.113 0.228,0.278 0.391,0.627 0.163,0.349 0.362,0.88 0.684,1.602 0.321,0.721 0.764,1.632 1.146,2.525 0.381,0.893 0.7,1.768 0.836,2.443 0.135,0.674 0.087,1.147 0.127,1.679 0.04,0.532 0.168,1.122 0.504,1.619 0.337,0.498 0.881,0.903 1.195,1.44 0.314,0.538 0.396,1.208 0.602,2.158 0.205,0.951 0.533,2.183 0.646,3.113 0.112,0.929 0.009,1.556 -0.098,2.148 -0.106,0.591 -0.218,1.148 -0.101,1.705 0.117,0.557 0.462,1.116 0.865,1.635 0.404,0.519 0.866,0.998 1.149,1.313 0.284,0.315 0.39,0.466 0.491,0.609 0.101,0.142 0.198,0.276 0.351,0.879 0.152,0.603 0.36,1.675 0.439,2.419 0.078,0.745 0.027,1.161 -0.003,1.576 -0.03,0.415 -0.039,0.828 -0.073,1.354 -0.034,0.526 -0.094,1.165 -0.085,1.751 0.008,0.586 0.085,1.119 0.46,1.91 0.375,0.791 1.048,1.84 1.685,2.689 0.637,0.848 1.239,1.495 1.643,1.902 0.404,0.407 0.611,0.574 0.797,0.87 0.186,0.296 0.351,0.72 0.488,1.263 0.137,0.544 0.246,1.205 0.304,1.972 0.058,0.767 0.067,1.64 0.054,2.608 -0.013,0.968 -0.047,2.031 0.15,2.999 0.197,0.968 0.624,1.84 1.101,2.577 0.476,0.738 1,1.339 1.389,1.826 0.39,0.488 0.644,0.862 0.856,1.23 0.213,0.367 0.384,0.729 0.555,1.154 0.171,0.425 0.342,0.913 0.472,1.479 0.13,0.566 0.218,1.21 0.339,1.795 0.121,0.584 0.275,1.108 0.375,1.699 0.1,0.59 0.145,1.246 0.32,2.204 0.174,0.958 0.476,2.218 0.678,3.273 0.203,1.055 0.305,1.904 0.416,2.657 0.112,0.753 0.231,1.409 0.325,2.284 0.094,0.875 0.163,1.97 0.294,2.774 0.131,0.804 0.325,1.317 0.465,2.09 0.14,0.772 0.225,1.805 0.299,2.412 0.074,0.607 0.137,0.79 0.288,0.952 0.104,0.112 0.251,0.215 0.437,0.32 -0.079,-0.368 -0.154,-0.732 -0.127,-0.999 0.028,-0.278 0.168,-0.45 0.332,-0.556 0.164,-0.105 0.352,-0.145 0.75,-0.063 0.398,0.082 1.007,0.284 1.729,0.399 0.723,0.115 1.56,0.144 2.868,0.151 1.309,0.007 3.089,-0.007 5.568,-0.327 2.479,-0.319 5.657,-0.943 8.788,-1.599 3.132,-0.656 6.217,-1.344 9.657,-2.107 3.44,-0.762 7.234,-1.599 10.248,-2.124 3.014,-0.525 5.249,-0.737 8.16,-0.854 2.912,-0.118 6.502,-0.139 10.137,0.024 3.635,0.163 7.316,0.511 9.976,0.862 2.66,0.351 4.298,0.706 5.688,1.227 1.391,0.522 2.533,1.21 3.226,1.734 0.693,0.524 0.938,0.884 1.054,1.193 0.116,0.309 0.104,0.568 -0.007,0.887 -0.11,0.319 -0.318,0.698 -0.526,1.077 0.192,-0.063 0.354,-0.202 0.566,-0.399 0.232,-0.218 0.523,-0.509 0.64,-0.957 0.116,-0.447 0.059,-1.052 0.065,-2.577 0.006,-1.525 0.074,-3.972 0.052,-6.694 -0.023,-2.724 -0.137,-5.723 -0.194,-7.553 -0.057,-1.831 -0.057,-2.492 -0.057,-3.427 0,-0.936 0,-2.144 -0.029,-3.276 -0.028,-1.132 -0.085,-2.187 -0.111,-3.279 -0.025,-1.092 -0.02,-2.221 -0.091,-4.009 -0.072,-1.787 -0.22,-4.234 -0.3,-6.212 -0.079,-1.979 -0.091,-3.49 -0.231,-7.51 -0.139,-4.02 -0.407,-10.55 -0.929,-16.996 -0.522,-6.446 -1.297,-12.81 -2.278,-18.854 -0.981,-6.045 -2.167,-11.77 -3.341,-17.21 -1.175,-5.44 -2.338,-10.594 -3.867,-15.864 -1.528,-5.268 -3.421,-10.651 -5.246,-15.498 -1.824,-4.847 -3.581,-9.158 -4.618,-11.657 -1.038,-2.499 -1.357,-3.186 -1.494,-3.631 -0.137,-0.445 -0.092,-0.647 0.009,-0.803 0.102,-0.155 0.258,-0.263 0.386,-0.349 0.014,-0.01 0.028,-0.019 0.041,-0.029 -0.042,-0.002 -0.088,-0.005 -0.144,-0.008 -0.105,-0.005 -0.243,-0.013 -0.693,-0.048 -0.449,-0.035 -1.21,-0.098 -2.217,-0.107 -1.008,-0.008 -2.262,0.038 -3.577,0.132 -1.316,0.095 -2.692,0.24 -4.839,0.609 -2.148,0.368 -5.068,0.962 -7.478,1.498 -2.41,0.535 -4.311,1.014 -6.805,1.509 -2.494,0.494 -5.581,1.003 -8.679,1.418 -3.098,0.414 -6.208,0.733 -9.971,1.076 -3.764,0.341 -8.181,0.707 -11.872,0.965 -3.692,0.259 -6.657,0.41 -9.367,0.559 -2.711,0.148 -5.167,0.292 -7.957,0.403 -2.79,0.11 -5.915,0.186 -9.017,0.251 -3.102,0.064 -6.181,0.117 -9.116,0.11 -2.935,-0.008 -5.725,-0.076 -8.341,-0.137 -2.615,-0.061 -5.056,-0.114 -7.698,-0.194 -2.642,-0.08 -5.486,-0.186 -8.975,-0.285 -3.49,-0.099 -7.626,-0.19 -12.01,-0.217 -4.383,-0.026 -9.013,0.012 -12.845,0.008 -3.832,-0.004 -6.865,-0.049 -10.876,-0.205 -4.011,-0.156 -8.998,-0.422 -12.585,-0.69 -3.587,-0.268 -5.773,-0.538 -7.362,-0.856 -1.59,-0.318 -2.583,-0.683 -3.577,-1.049 0.044,0.064 0.021,0.188 -0.027,0.625 -0.062,0.551 -0.164,1.597 -0.449,3.521 -0.286,1.925 -0.753,4.728 -1.058,6.779 -0.305,2.052 -0.448,3.352 -0.79,5.493 -0.342,2.141 -0.884,5.124 -1.32,7.752 -0.436,2.629 -0.767,4.904 -1.029,6.823 -0.263,1.919 -0.457,3.481 -0.636,5.294 -0.18,1.814 -0.345,3.878 -0.525,6.376 -0.18,2.497 -0.373,5.428 -0.567,8.701 -0.194,3.273 -0.388,6.888 -0.53,10.743 -0.143,3.855 -0.234,7.949 -0.206,12.14 0.029,4.192 0.177,8.48 0.468,12.648 0.291,4.169 0.724,8.217 1.009,11.855 0.285,3.638 0.422,6.865 0.485,10.435 0.063,3.57 0.051,7.481 0.091,11.969 0.04,4.488 0.131,9.552 0.223,13.777 0.091,4.225 0.182,7.612 0.266,9.945 0.084,2.332 0.162,3.609 0.193,4.373 0.031,0.764 0.017,1.015 0.027,2.23 0.01,1.214 0.044,3.393 0.078,4.946 0.035,1.554 0.069,2.484 0.137,3.037 0.068,0.553 0.171,0.73 0.482,1.055 0.311,0.325 0.83,0.798 2.632,1.177 1.802,0.38 4.886,0.665 7.829,0.918 2.942,0.254 5.742,0.476 10.492,0.73 4.75,0.254 11.451,0.539 16.4,0.753 4.95,0.214 8.149,0.356 10.954,0.382 2.806,0.026 5.218,-0.066 7.656,-0.143 2.438,-0.077 4.901,-0.139 7.25,-0.216 2.35,-0.077 4.585,-0.168 7.735,-0.565 3.151,-0.396 7.217,-1.098 9.757,-1.616 2.54,-0.519 3.556,-0.856 4.448,-1.309 0.892,-0.453 1.662,-1.024 2.078,-1.386 0.417,-0.362 0.479,-0.516 0.539,-0.807z"/>
   </clipPath>
 </defs>
 <g id="VETORES">
  <metadata id="CorelCorpID_0Corel-Layer"/>
  <g>
  </g>
  <g clip-path="url(#id0)">
   <g id="_2012368115888">
    <path fill="#511A20" fill-rule="nonzero" d="M13.903 7.269c-0.102,0.772 -0.158,1.543 -0.261,2.281l2.19 0.034c0.226,-1.393 0.369,-0.77 -1.044,-3.087 -0.873,-0.09 -1.634,-0.181 -2.303,-0.283 -0.046,0.341 -0.079,0.681 -0.125,1.021l1.543 0.034zm-0.193 1.033c-0.646,0 -1.316,-0.034 -1.997,-0.034 0.545,0.931 1.124,1.861 1.702,2.803 0.102,-0.897 0.193,-1.838 0.295,-2.769zm-8.328 127.985c0.102,0.965 0.193,1.929 0.295,2.86 -0.681,0 -1.35,-0.034 -2.031,-0.034 0.296,2.576 0.545,5.175 0.874,7.716l6.887 -11.029c-0.068,-2.508 -0.125,-4.823 -0.159,-6.979l-0.805 0c0.159,1.77 0.295,3.506 0.454,5.276 -0.931,0 -1.895,-0.033 -2.826,-0.033 -0.102,-1.033 -0.192,-2.032 -0.261,-3.087 -1.157,1.77 -2.28,3.54 -3.404,5.311l0.976 -0.001zm-0.771 -87.26c0.93,0.034 1.861,0.034 2.825,0.069 -0.647,-0.965 -1.282,-1.896 -1.929,-2.86l-0.772 0c-0.068,0.93 -0.102,1.861 -0.124,2.803l0 -0.012zm-2.19 14.185c-0.033,1.316 -0.068,2.632 -0.102,3.96 0.488,-0.682 0.998,-1.317 1.475,-1.963 -0.453,-0.647 -0.93,-1.316 -1.384,-1.997l0.011 0zm10.813 -36.187l-0.42 0 0.352 0.545 0.068 -0.545zm-0.84 138.822c-0.102,-2.349 -0.193,-4.596 -0.261,-6.718 -0.873,1.476 -1.736,2.962 -2.575,4.437 0.102,0.772 0.227,1.509 0.351,2.247l2.485 0.034zm-5.957 -4.153c-0.351,-2.247 -0.68,-4.505 -0.964,-6.786 0.931,0.034 1.861,0.034 2.825,0.069 0.125,0.964 0.261,1.895 0.386,2.825 1.067,-1.804 2.122,-3.597 3.211,-5.367 -0.124,-3.597 -0.261,-7.047 -0.351,-10.224l-8.748 14.468 0.159 7.194c0.738,0.011 1.486,0.023 2.224,0.046 0.42,-0.738 0.84,-1.476 1.259,-2.225l-0.001 0zm-3.891 -12.879l0.034 1.191c0.238,-0.386 0.465,-0.783 0.703,-1.169 -0.238,-0.022 -0.499,-0.011 -0.748,-0.022l0.011 0zm6.149 8.987c-0.771,1.316 -1.509,2.609 -2.246,3.892 0.125,0.737 0.227,1.475 0.351,2.224l-1.61 0c-0.375,0.646 -0.76,1.282 -1.135,1.917l3.654 0.988c0.623,-1.079 1.236,-2.156 1.86,-3.268 -0.317,-1.896 -0.612,-3.824 -0.873,-5.753l-0.001 0zm1.827 -146.379c-1.123,0 -2.246,-0.034 -3.381,-0.034 0.578,0.964 1.191,1.895 1.77,2.825 0.454,0 0.874,0.034 1.316,0.034 0.102,-0.931 0.193,-1.861 0.295,-2.825zm-2.28 10.484c0.453,0 0.896,0 1.35,0.034 -0.454,-0.681 -0.873,-1.351 -1.282,-2.054 -0.545,0 -1.089,0 -1.645,-0.034 -0.068,1.067 -0.159,2.122 -0.261,3.189l1.735 0 0.103 -1.135zm-1.351 -4.277c0.454,0.737 0.931,1.509 1.418,2.246l0.193 0c0.102,-0.931 0.159,-1.861 0.262,-2.802l1.191 0c-0.102,0.93 -0.193,1.86 -0.295,2.802 0.93,0 1.86,0.034 2.768,0.034 -1.157,-1.861 -2.348,-3.767 -3.506,-5.696 -1.021,0 -2.042,-0.034 -3.041,-0.034l-0.816 5.628c0.533,0 1.077,0.034 1.6,0.034 0.068,-0.738 0.158,-1.476 0.226,-2.225l0 0.013zm-4.754 23.477c-0.068,-0.114 -0.147,-0.216 -0.215,-0.329l-0.488 5.515c0.125,0.193 0.261,0.386 0.386,0.578l0.317 -5.764zm2.088 -1.157c-0.681,0 -1.35,-0.035 -2.03,-0.035 -0.035,0.386 -0.069,0.806 -0.069,1.192 1.09,1.736 2.224,3.404 3.381,5.118 0.772,0 1.578,0.034 2.383,0.034 0.193,-3.666 0.386,-7.365 0.613,-11.03 0.771,0 1.543,0 2.314,0.034 0.035,-0.352 0.035,-0.704 0.069,-1.033 0.386,0.545 0.737,1.123 1.123,1.702 0.261,-1.997 0.545,-4.017 0.84,-6.082l-2.224 -0.034c0.068,-0.931 0.124,-1.895 0.227,-2.825 0.646,0 1.282,0 1.962,0.033 -0.261,-0.351 -0.453,-0.703 -0.681,-1.066 -1.997,-0.034 -3.982,-0.068 -5.979,-0.102 -0.261,3.404 -0.511,6.853 -0.772,10.292 -0.794,-1.248 -1.6,-2.485 -2.394,-3.734l-0.658 4.665c0.693,0 1.373,0.022 2.054,0.022l-0.159 2.849zm2.281 -29.639c-0.057,0.34 -0.114,0.692 -0.171,1.055 0.273,0 0.556,0 0.818,0.023 -0.216,-0.364 -0.431,-0.727 -0.647,-1.078zm-0.091 12.72c-0.624,-0.023 -1.237,-0.023 -1.85,-0.034 -0.147,0.896 -0.318,1.85 -0.488,2.825 0.693,0.012 1.373,0.023 2.077,0.046l0.261 -2.837zm-4.175 113.211c0.022,1.157 0.033,2.292 0.056,3.359 0.703,-1.101 1.407,-2.19 2.099,-3.314l-2.155 -0.045zm9.893 -110.284l0.386 0c0.068,-0.351 0.102,-0.737 0.125,-1.123l0.896 0 0.386 -2.542 -0.193 -0.295c-1.384,-0.034 -2.768,-0.068 -4.152,-0.068l2.552 4.028zm-1.248 -17.724c0.295,0.034 0.545,0.034 0.84,0.034 -0.488,-0.806 -0.976,-1.645 -1.475,-2.462 -0.715,-0.159 -1.316,-0.329 -1.85,-0.5 -0.022,0.159 -0.033,0.318 -0.056,0.477 -0.409,0 -0.817,-0.023 -1.214,-0.023 -0.057,0.534 -0.148,1.407 -0.352,2.769 1.351,0.023 2.723,0.034 4.074,0.057 0.033,-0.103 0.033,-0.193 0.033,-0.352zm3.563 6.082c-0.102,0.965 -0.193,1.929 -0.295,2.825l-1.384 0c-0.102,0.931 -0.193,1.861 -0.295,2.769l-0.068 0c0.453,0.704 0.896,1.419 1.316,2.088l0.226 0c0.42,-2.927 0.84,-5.594 1.192,-8.102l-1.736 -2.825c-0.125,1.089 -0.227,2.156 -0.352,3.211l1.396 0.034zm-7.012 34.768c0.681,0.998 1.316,1.997 2.031,2.995 0.034,-0.964 0.068,-1.962 0.125,-2.961 -0.738,-0.034 -1.453,-0.034 -2.156,-0.034zm-3.211 47.636c-0.613,0 -1.191,-0.034 -1.77,-0.034 -1.565,2.176 -1.4,1.588 -1.305,2.814 1.044,0 2.076,0.022 3.132,0.056 -0.034,-0.931 -0.034,-1.861 -0.068,-2.825l0.011 -0.011zm0.227 7.591c-0.964,-0.023 -1.917,-0.045 -2.882,-0.068 0.069,0.964 0.125,1.906 0.171,2.837 0.941,0 1.895,0.023 2.837,0.023 -0.035,-0.931 -0.103,-1.861 -0.125,-2.803l-0.001 0.011zm6.138 1.385l-0.068 -1.124c-0.613,0.896 -1.225,1.77 -1.838,2.633l1.963 0.034c0,-0.545 -0.034,-1.067 -0.068,-1.543l0.011 0zm-6.433 -11.416c0.034,0.806 0.034,1.645 0.068,2.44 0.647,0 1.316,0.034 1.997,0.034 0,0.965 0.034,1.895 0.068,2.825 -0.681,-0.034 -1.316,-0.034 -1.997,-0.034 0.069,1.578 0.102,3.189 0.159,4.766 1.089,0 2.19,0.034 3.279,0.034 -0.159,-3.79 -0.261,-7.591 -0.352,-11.415 0.704,0.034 1.418,0.034 2.122,0.068 -0.034,-0.511 -0.034,-1.032 -0.034,-1.543 -1.316,-0.034 -2.609,-0.068 -3.926,-0.068 0,-0.931 -0.034,-1.895 -0.034,-2.86 1.283,0.034 2.61,0.034 3.926,0.068l-0.102 -5.946 -2.223 -0.034 0 -0.386 -0.579 0 0 -0.511 -6.128 8.443 0.488 6.514c0.522,0 1.033,0.011 1.555,0.033l1.713 -2.428zm5.821 1.509c-0.069,-0.896 -0.125,-1.838 -0.193,-2.802l-0.295 -0.001c0,1.124 0.033,2.281 0.068,3.382l0.42 -0.579zm-5.243 53.048c-0.068,-0.646 -0.158,-1.316 -0.226,-1.997 -0.42,0.681 -0.806,1.316 -1.226,1.997l1.452 0zm4.993 -33.065l1.226 0.034 -0.159 -5.504c-0.647,0.965 -1.316,1.929 -1.997,2.894l0.805 0c0.034,0.874 0.102,1.736 0.125,2.576zm-2.87 10.155c-1.312,1.966 -1.152,1.473 -1.022,2.826 0.613,0 1.192,0 1.77,0.034 0.069,0.737 0.125,1.475 0.193,2.189l3.211 -4.947c-0.261,0 -0.544,-0.034 -0.805,-0.034 -0.034,-0.351 -0.068,-0.737 -0.102,-1.123l0.226 0c-0.102,-1.259 -0.193,-2.508 -0.261,-3.767 -0.931,1.384 -1.838,2.802 -2.768,4.153 0.033,0.261 0.033,0.488 0.068,0.703 -0.193,0 -0.352,0 -0.511,-0.034l0.001 0zm4.311 -0.124l-0.159 0.227 0.159 0 0 -0.227zm-0.159 -7.138l-1.123 -0.033c0.068,0.839 0.125,1.645 0.193,2.473 1.118,-1.718 0.976,-1.151 0.93,-2.44l0 0zm-8.464 -60.833c-0.613,-0.022 -1.237,-0.033 -1.86,-0.045 -0.173,3.289 -0.594,2.14 1.724,5.413 0.034,-1.804 0.068,-3.574 0.125,-5.368l0.011 0zm3.063 68.095l1.26 0c0.712,-0.867 0.409,-1.437 0.26,-3.54l0.194 0c-0.068,-1.259 -0.159,-2.542 -0.261,-3.79 -0.454,-0.034 -0.931,-0.034 -1.385,-0.034 0.069,0.681 0.102,1.385 0.159,2.054 -0.681,0 -1.35,0 -2.031,-0.034 -0.295,0.488 -0.613,0.965 -0.93,1.419 0.737,0.033 1.509,0.033 2.246,0.068 0.068,0.93 0.125,1.861 0.193,2.803 -1.078,0 -2.156,-0.023 -3.234,-0.046l0.102 8.352c1.181,-1.838 2.36,-3.677 3.552,-5.503l-0.125 -1.749zm2.349 -60.662c-0.738,0.999 -1.475,1.963 -2.224,2.928 1.089,0.034 2.156,0.034 3.211,0.068 0,0.806 0,1.577 -0.034,2.349l0.318 0c0.034,-3.189 0.159,-6.662 0.352,-10.417l-0.421 0c0.035,-0.772 0.069,-1.543 0.069,-2.349 0.159,0.227 0.318,0.42 0.454,0.647l1.316 -14.57 0.158 -1.351 -0.26 0.001c0.124,-2.418 0.295,-4.857 0.419,-7.297l-0.51 0c-0.352,5.856 -0.647,11.642 -0.931,17.464 -0.125,-0.193 -0.295,-0.421 -0.42,-0.647 -0.034,0.998 -0.068,1.963 -0.102,2.893l-1.837 0c0,0.677 1.27,2.199 1.702,2.826 -0.613,0 -1.192,-0.034 -1.804,-0.034 0.034,-0.806 0.068,-1.645 0.102,-2.474 -1.929,-2.802 -3.824,-5.628 -5.73,-8.431 -0.034,0.738 -0.068,1.475 -0.102,2.19 -0.159,0 -0.318,0 -0.488,0 -0.114,1.793 -0.238,3.779 -0.374,5.912l7.091 10.315 0.045 -0.023zm-2.802 43.709c0.067,1.067 0.102,2.088 0.158,3.121 1.123,-1.611 2.247,-3.245 3.381,-4.891 -1.384,-0.034 -2.768,-0.068 -4.118,-0.102 0.034,0.613 0.034,1.226 0.068,1.861l0.511 0 0 0.011zm0.578 -40.781c-1.123,0 -2.28,-0.034 -3.438,-0.068 0.034,-0.295 0.034,-0.613 0.034,-0.965 -0.748,0.965 -1.463,1.94 -2.178,2.905 0,0.283 -0.011,0.578 -0.023,0.873 1.169,0 2.349,0.023 3.517,0.057 0.704,-0.931 1.419,-1.838 2.088,-2.803l0 0.001zm-2.859 53.808l-0.805 0 0.068 1.158c0.227,-0.386 0.488,-0.738 0.738,-1.158l-0.001 0zm3.733 -50.972c-0.999,0 -1.963,-0.033 -2.962,-0.033 -0.93,1.259 -1.838,2.473 -2.768,3.733 1.452,0.034 2.927,0.034 4.402,0.068l0 2.86c-1.77,-0.034 -3.506,-0.057 -5.242,-0.091l0.114 7.149c2.122,-2.917 4.243,-5.833 6.388,-8.76l0.068 -4.926zm3.12 20.425c-0.068,-0.93 -0.125,-1.895 -0.159,-2.859l-0.125 0c0,0.964 0.034,1.929 0.034,2.86l0.25 -0.001zm-9.667 -16.748c0,0.386 -0.011,0.76 -0.011,1.146 0.283,-0.374 0.556,-0.749 0.839,-1.123l-0.828 -0.023zm9.179 3.302c-0.034,-1.804 -0.034,-3.665 -0.034,-5.628 -0.874,1.226 -1.77,2.417 -2.666,3.574l0 5.753c0.896,-1.226 1.804,-2.474 2.7,-3.699zm-4.595 30.966c-0.771,-0.033 -1.543,-0.033 -2.315,-0.068 0.193,3.892 0.42,7.784 0.681,11.677l0.806 0c1.644,-2.474 3.347,-4.925 4.98,-7.399 -0.681,-0.034 -1.35,-0.034 -2.03,-0.034 0.033,0.874 0.102,1.703 0.124,2.576 -0.454,0 -0.896,-0.034 -1.384,-0.034 -0.068,-1.191 -0.125,-2.382 -0.193,-3.597 -0.158,0.262 -0.318,0.489 -0.488,0.738l-0.193 -3.858 0.012 -0.001zm196.501 30.558c0.488,-0.068 0.93,-0.124 1.418,-0.193 0.068,-0.646 0.125,-1.282 0.193,-1.929 0.919,-0.102 1.826,-0.226 2.734,-0.34l-0.034 -2.86c-0.136,0.012 -0.272,0.034 -0.409,0.046 -1.282,1.77 -2.575,3.54 -3.891,5.276l-0.011 0zm-4.788 -81.597c-0.352,0.034 -0.681,0.102 -0.999,0.125 0.39,2.408 -0.036,2.125 1.578,3.608 -0.193,-1.226 -0.386,-2.473 -0.579,-3.733l0 0zm-12.061 -27.756c0.454,1.351 0.874,2.735 1.26,4.119l2.768 -0.352 -4.028 -3.767zm11.199 10.452c0.249,-0.035 0.51,-0.057 0.76,-0.092 -0.216,-0.93 -0.454,-1.86 -0.692,-2.779 -0.216,0.022 -0.431,0.045 -0.659,0.079 0.193,0.931 0.386,1.861 0.579,2.802l0.012 -0.01zm3.244 12.186c-0.102,-0.647 -0.193,-1.282 -0.317,-1.929 -1.351,-1.316 -2.667,-2.666 -3.983,-3.983 -0.453,0.034 -0.874,0.102 -1.316,0.159 0.193,0.931 0.352,1.861 0.511,2.769 0.544,-0.068 1.123,-0.125 1.668,-0.193 0.215,1.055 0.385,2.133 0.567,3.188 -0.034,0 -0.091,0 -0.125,0.034 0.544,0.545 0.611,0.219 2.984,-0.022l0.011 -0.023zm-2.189 -10.984c-0.034,-0.159 -0.069,-0.318 -0.114,-0.476 -0.113,0.011 -0.216,0.022 -0.34,0.045l0.454 0.431zm1.861 9.055c0.056,0.057 0.113,0.114 0.17,0.182 -0.125,-0.602 -0.25,-1.203 -0.375,-1.793 -0.023,0 -0.056,0 -0.079,0 0.102,0.545 0.193,1.067 0.295,1.611l-0.011 0zm-2.474 2.281c0,0 0,-0.102 -0.034,-0.125 0.102,0.703 0.227,1.385 0.318,2.054 0.511,-0.068 0.998,-0.125 1.509,-0.193 -0.545,-0.545 -1.123,-1.158 -1.702,-1.77 -0.034,0 -0.068,0.034 -0.102,0.034l0.011 0zm-2.122 -11.484c0.771,-0.102 1.543,-0.192 2.281,-0.295 -0.874,-0.839 -1.736,-1.668 -2.61,-2.542 0.102,0.488 0.193,0.999 0.295,1.453 -0.93,0.125 -1.86,0.261 -2.802,0.352 -0.295,-1.351 -0.579,-2.701 -0.84,-4.085l-3.789 0.454 0.737 2.7c1.283,1.26 2.576,2.474 3.858,3.734 1.066,-0.125 2.087,-0.261 3.154,-0.386 -0.102,-0.454 -0.193,-0.896 -0.295,-1.385l0.011 0zm6.944 27.416c-0.737,0.102 -1.509,0.193 -2.246,0.295 -0.42,0.737 -0.806,1.452 -1.226,2.19 0.896,-0.125 1.77,-0.227 2.666,-0.318 -0.033,-0.318 -0.068,-0.681 -0.124,-1.033 0.714,-0.079 1.429,-0.17 2.144,-0.25 -0.181,-1.27 -0.374,-2.519 -0.578,-3.756 -0.329,0.046 -0.659,0.08 -0.999,0.125 0.125,0.931 0.227,1.861 0.352,2.769l0.011 -0.022zm-3.824 -7.433c0.102,0.737 0.193,1.475 0.295,2.19 -0.351,0.034 -0.681,0.102 -1.032,0.125 -0.125,-1.192 -0.295,-2.383 -0.488,-3.575 -0.999,-1.033 -1.963,-2.031 -2.962,-3.052 -0.124,0.034 -0.261,0.034 -0.352,0.068 0.262,1.702 0.511,3.439 0.772,5.152 1.089,1.157 2.224,2.349 3.313,3.506 -0.511,0.897 -0.998,1.838 -1.509,2.735 0.613,-0.102 1.226,-0.159 1.838,-0.227 -0.068,-0.579 -0.125,-1.158 -0.227,-1.771 0.318,-0.068 0.681,-0.101 0.999,-0.124 0.124,0.93 0.261,1.838 0.385,2.768 0.159,-0.033 0.352,-0.033 0.545,-0.068 0.703,-1.259 1.418,-2.542 2.088,-3.824 -1.226,-1.282 -2.44,-2.609 -3.665,-3.892l0 -0.011zm3.087 1.827c0.306,-0.034 0.612,-0.08 0.919,-0.114 -0.341,-1.997 -0.693,-3.96 -1.067,-5.889 -0.238,0.034 -0.488,0.068 -0.726,0.091 0.318,1.997 0.613,3.96 0.874,5.923l0 -0.011zm-0.227 -6.479c-0.148,-0.772 -0.306,-1.533 -0.454,-2.293 -0.533,0.057 -1.055,0.125 -1.6,0.181l2.054 2.112zm-11.188 -11.268l1.77 7.75 5.367 -0.647 -7.137 -7.103zm1.93 -2.224c0.158,0.93 0.351,1.861 0.51,2.802 0.84,-0.102 1.645,-0.227 2.473,-0.318 -0.839,-0.839 -1.702,-1.668 -2.575,-2.542 -0.159,0 -0.295,0.035 -0.42,0.069l0.012 -0.011zm4.084 2.349c-0.352,0.033 -0.703,0.102 -1.089,0.124 0.295,0.318 0.578,0.613 0.896,0.897 0.125,-0.034 0.261,-0.034 0.386,-0.069 -0.068,-0.317 -0.125,-0.612 -0.193,-0.964l0 0.012zm-12.288 -38.955c0.84,-0.103 1.691,-0.205 2.542,-0.318l-1.112 -2.701c-1.452,0.182 -2.893,0.352 -4.346,0.545 0.999,0.84 1.963,1.668 2.928,2.474l-0.012 0zm1.577 11.869c0.965,0.839 1.895,1.668 2.825,2.474 1.191,-0.137 2.405,-0.284 3.619,-0.42 -0.433,-1.192 -0.817,-1.252 -2.303,-2.565 -1.384,0.159 -2.768,0.352 -4.152,0.511l0.011 0zm8.396 14.672l-3.767 -3.7c0.318,1.351 0.647,2.701 0.965,4.052 -0.386,0.033 -0.806,0.102 -1.192,0.124 1.737,1.645 3.472,3.28 5.174,4.925 -0.193,-0.874 -0.351,-1.736 -0.544,-2.632 0.737,-0.091 1.429,-0.193 2.167,-0.25 0,0 0,-0.023 0,-0.034 -0.885,-0.828 -1.747,-1.657 -2.632,-2.508l-0.171 0.023zm-14.919 -28.754c0.681,-0.102 1.35,-0.193 2.03,-0.262 -0.998,-0.839 -1.997,-1.645 -2.995,-2.473l0.965 2.735zm-2.292 -3.801c0.453,0.351 0.873,0.703 1.316,1.066 -0.125,-0.386 -0.295,-0.771 -0.42,-1.191 -0.295,0.034 -0.613,0.102 -0.896,0.125zm0 0c-0.239,-0.193 -0.477,-0.398 -0.704,-0.59 -0.352,0.045 -0.726,0.09 -1.135,0.147l0.262 0.636 1.577 -0.193zm4.617 -0.931c-0.306,0 -0.623,0 -0.953,0.011 0.454,0.374 0.908,0.738 1.362,1.101 -0.125,-0.364 -0.273,-0.749 -0.409,-1.124l0 0.012zm4.55 8.59c0.692,0.613 1.407,1.203 2.122,1.804 -0.295,-0.737 -0.579,-1.441 -0.84,-2.11 -0.454,0.056 -0.885,0.124 -1.35,0.17l0.068 0.136zm-1.35 4.334c1.384,-0.158 2.768,-0.317 4.118,-0.51 -0.125,-0.454 -0.261,-0.931 -0.42,-1.385 -0.488,0.068 -0.998,0.125 -1.509,0.193 -1.16,-3.524 -0.193,-1.974 -2.768,-4.277 -1.35,0.158 -2.7,0.318 -4.051,0.511 0.352,1.066 0.704,2.155 1.067,3.211 1.316,1.157 2.632,2.281 3.926,3.404 -0.125,-0.386 -0.227,-0.771 -0.352,-1.157l-0.011 0.01zm5.82 5.277c-0.295,-0.998 -0.578,-1.997 -0.873,-3.018 -0.999,0.125 -1.963,0.261 -2.962,0.386 1.067,0.896 2.088,1.838 3.154,2.734 0.227,-0.033 0.454,-0.068 0.681,-0.102zm-8.225 -2.371c0,0 -0.069,-0.069 -0.102,-0.125 0.033,0.102 0.033,0.125 0.033,0.193l-0.998 0.125c0.386,1.066 0.772,2.122 1.158,3.188l3.313 -0.386c-1.123,-0.998 -2.247,-1.997 -3.404,-3.018l0 0.023zm1.089 6.104c0.227,0.704 0.488,1.453 0.737,2.156 2.054,1.895 4.153,3.79 6.207,5.696 -0.034,-0.158 -0.068,-0.318 -0.102,-0.511 0.93,-0.124 1.86,-0.226 2.802,-0.351 1.2,5.57 0.517,4.599 3.097,4.312l-2.11 -6.888c-1.827,-1.679 -3.665,-3.359 -5.491,-5.038l-5.151 0.647 0.011 -0.023zm3.313 -6.366c-0.545,-0.488 -1.089,-0.964 -1.645,-1.475 0.159,0.545 0.318,1.089 0.454,1.611 0.419,-0.033 0.805,-0.102 1.191,-0.124l0 -0.012zm-5.117 -3.472c-0.159,-0.488 -0.318,-0.93 -0.454,-1.418l-2.893 -2.417 2.349 6.048c0.544,0.488 1.066,0.931 1.611,1.385 -0.352,-1.192 -0.704,-2.383 -1.067,-3.575 0.125,0 0.295,-0.033 0.454,-0.033l0 0.01zm18.301 100.605c-0.034,1.929 -0.034,3.858 -0.068,5.787 3.427,-5.224 2.743,-3.099 2.893,-6.82 0.578,-0.102 1.191,-0.158 1.804,-0.227l1.963 -3.075c-1.362,0.159 -2.723,0.318 -4.085,0.511l-2.507 3.824zm-1.35 -0.511c0.033,0.806 0.068,1.612 0.068,2.44 1.071,-1.526 1.282,-1.572 1.282,-2.632l-1.35 0.192zm2.643 12.936c-0.738,1.066 -1.452,2.088 -2.189,3.12 1.384,-0.158 2.734,-0.318 4.118,-0.488 0.034,-0.964 0.068,-1.929 0.125,-2.893 -0.704,0.102 -1.385,0.158 -2.054,0.261zm-2.417 -5.084l0.42 -0.612 -0.42 0.034 0 0.578zm6.241 -11.971c0.488,-0.056 0.975,-0.113 1.463,-0.181 -0.022,-0.862 -0.045,-1.725 -0.068,-2.826 -0.488,0.057 -0.964,0.125 -1.452,0.182 0.034,0.965 0.034,1.895 0.068,2.825l-0.011 0zm-5.208 11.256c0.034,-0.261 0.034,-0.544 0.034,-0.839 -0.227,0.295 -0.42,0.613 -0.647,0.93 0.227,-0.033 0.42,-0.068 0.613,-0.102l0 0.011zm2.893 -5.106c-0.034,1.612 -0.068,3.189 -0.068,4.766 0.42,-0.033 0.84,-0.102 1.282,-0.124 -0.034,0.964 -0.102,1.929 -0.125,2.859l-4.958 0.613c0.034,1.033 0.034,2.054 0.068,3.087l2.281 -0.295c0.703,-1.033 1.452,-2.088 2.156,-3.121 -0.034,0.965 -0.069,1.929 -0.102,2.86 1.259,-0.159 2.53,-0.306 3.789,-0.454l-0.17 -7.704c-1.282,0.159 -2.564,0.306 -3.846,0.476 0,-0.93 0.034,-1.895 0.034,-2.859 1.237,-0.159 2.473,-0.307 3.71,-0.454 -0.045,-0.84 -0.091,-1.748 -0.136,-2.678 -0.692,0.091 -1.384,0.181 -2.099,0.273 -0.613,0.93 -1.226,1.86 -1.838,2.768l0.022 -0.013zm2.735 29.56c0.306,0.227 0.51,0.42 0.669,0.601 0.386,-0.045 0.76,-0.091 1.135,-0.136l0.034 -5.436c-1.033,1.385 -2.076,2.769 -3.109,4.165 0.511,0.283 0.942,0.578 1.26,0.817l0.011 -0.011zm-6.502 -15.444l0.069 -0.091 -0.069 0.023 0 0.068zm3.087 12.482c0.453,-4.346 0.771,-8.658 1.066,-13.026 -0.193,0.034 -0.386,0.068 -0.578,0.102 0,0.102 0,0.193 -0.035,0.295 -0.771,0.102 -1.542,0.193 -2.314,0.295 -0.068,0.964 -0.125,1.895 -0.193,2.859 0.771,-0.102 1.543,-0.193 2.315,-0.295 -0.068,0.897 -0.125,1.771 -0.193,2.633 -0.647,0.068 -1.282,0.159 -1.963,0.227 -0.034,0.42 -0.068,0.806 -0.068,1.225 -0.295,0.034 -0.545,0.069 -0.806,0.102l-0.261 2.894 0.771 -0.102c-0.034,0.511 -0.102,1.033 -0.124,1.543l-0.647 0.068 0 1.578c1.293,0.238 2.28,0.499 3.154,0.817 0.056,-0.522 0.102,-1.056 0.159,-1.589 -0.103,0.159 -0.193,0.295 -0.296,0.386l0.013 -0.012zm0.385 -1.191c-0.034,0.261 -0.068,0.544 -0.102,0.805 0.227,-0.294 0.454,-0.578 0.647,-0.873 -0.193,0.034 -0.352,0.034 -0.545,0.068l0 0zm-4.084 -33.803c0.033,1.191 0.102,2.348 0.124,3.54l3.96 -0.488c1.316,-2.043 2.621,-4.085 3.926,-6.128l-0.125 -3.325c-1.384,0.171 -2.779,0.329 -4.153,0.511 -1.225,1.963 -2.473,3.927 -3.732,5.89zm0.681 27.687l0 1.736 0.26 -0.034c0.069,-0.772 0.103,-1.509 0.159,-2.315l-0.419 0.613zm4.084 -5.719c0.738,-0.068 1.475,-0.159 2.247,-0.261 -0.034,0.101 -0.034,0.226 -0.034,0.295 0.59,-0.069 1.168,-0.137 1.77,-0.216 0,-0.125 0,-0.239 0,-0.364 -1.328,0.171 -2.632,0.341 -3.949,0.5 0,0.034 -0.034,0.034 -0.034,0.034l0 0.012zm1.736 6.751c0.681,-0.102 1.35,-0.193 2.031,-0.261 0.136,-0.181 0.261,-0.374 0.397,-0.556 -0.034,-1.168 -0.068,-2.303 -0.102,-3.29 -0.681,0.079 -1.362,0.17 -2.031,0.249 -0.102,1.316 -0.193,2.576 -0.295,3.858zm-2.156 -60.537c0.068,0.578 0.125,1.158 0.193,1.77 0.352,-0.646 0.738,-1.282 1.089,-1.929 -0.419,0.068 -0.873,0.125 -1.282,0.159zm-6.66 0.84l1.351 -0.159c0.578,-1.033 1.157,-2.054 1.735,-3.087l-3.506 0.42c0.125,0.965 0.295,1.895 0.42,2.826zm-0.42 -7.683l-0.771 0.102 0.646 3.96c0.454,-0.805 0.897,-1.611 1.316,-2.382 -0.317,0.034 -0.646,0.068 -0.964,0.102l-0.227 -1.782zm8.464 6.525l0.114 -0.873c-0.069,0 -0.137,0.022 -0.204,0.033 0.033,0.295 0.068,0.579 0.102,0.84l-0.012 0zm-7.466 6.116l3.79 -0.454c-0.158,-1.645 -0.318,-3.313 -0.511,-4.981 -0.839,0.102 -1.667,0.193 -2.507,0.318 -1.552,2.851 -1.127,1.052 -0.772,5.118l0 -0.001zm7.138 11.223c-0.874,1.452 -1.702,2.859 -2.576,4.278 0,0.646 0.034,1.282 0.068,1.895 -0.453,0.034 -0.896,0.102 -1.35,0.158l-1.804 3.053 3.982 -0.488c0.681,-1.066 1.316,-2.088 1.963,-3.154 -0.068,-1.895 -0.159,-3.824 -0.295,-5.753l0.012 0.011zm-10.961 -34.712l0.681 -0.102c-0.295,-0.295 -0.578,-0.613 -0.896,-0.896l0.227 0.998 -0.012 0zm1.577 8.137l0.874 -0.102c-0.256,-2.167 0.019,-1.518 -1.453,-3.031l0.579 3.133zm2.825 21.207c0.647,-1.089 1.26,-2.19 1.896,-3.279l-2.19 0.261c0.102,0.999 0.193,1.998 0.295,3.019l-0.001 -0.001zm6.434 -2.156c-0.488,0.069 -0.999,0.125 -1.475,0.193l-4.539 7.648 0.352 6.241 1.929 -0.227c0.419,-0.681 0.84,-1.384 1.282,-2.053 -0.125,-2.418 -0.295,-4.789 -0.454,-7.172 0.931,-0.125 1.861,-0.261 2.803,-0.352 0.102,1.09 0.158,2.19 0.227,3.246 0.635,-1.056 1.247,-2.123 1.883,-3.177l-0.488 -6.219c-0.567,0.068 -1.123,0.125 -1.679,0.193l0.159 1.679zm0.42 13.345c0.692,-0.091 1.384,-0.171 2.076,-0.25 -0.046,-0.942 -0.091,-1.917 -0.136,-2.939l-1.94 3.2 0 -0.011zm-7.398 -41.009c-1.066,0.125 -2.122,0.261 -3.188,0.386 0.385,0.386 0.737,0.772 1.123,1.157 0.771,-0.102 1.509,-0.193 2.28,-0.295 -0.068,-0.419 -0.125,-0.839 -0.227,-1.259l0.012 0.011zm7.431 17.849c-0.033,0.068 -0.068,0.125 -0.102,0.159l0.102 0 0 -0.159zm-1.191 2.088c-1.225,2.19 -2.507,4.403 -3.789,6.593 0.51,-0.069 1.066,-0.125 1.577,-0.194 0.034,0.545 0.102,1.09 0.159,1.668 0.419,-0.068 0.873,-0.124 1.316,-0.158l2.734 -4.902c-0.568,0.068 -1.101,0.147 -1.668,0.204 -0.102,-1.067 -0.193,-2.156 -0.318,-3.212l-0.011 0.001z"/>
   </g>
  </g>
  <path fill="none" d="M91.234 163.341c0.06,-0.29 0.117,-0.718 0.209,-2.252 0.091,-1.534 0.216,-4.174 0.518,-9.369 0.303,-5.195 0.782,-12.944 1.164,-18.604 0.382,-5.659 0.667,-9.229 1.038,-13.175 0.37,-3.946 0.826,-8.268 1.397,-12.773 0.57,-4.505 1.254,-9.192 2.132,-14.518 0.879,-5.326 1.95,-11.291 2.766,-15.197 0.815,-3.906 1.374,-5.753 1.733,-6.921 0.358,-1.167 0.516,-1.655 0.64,-1.921 0.123,-0.267 0.212,-0.313 0.296,-0.305 0.084,0.008 0.164,0.069 0.266,0.183 0.103,0.113 0.228,0.278 0.391,0.627 0.163,0.349 0.362,0.88 0.684,1.602 0.321,0.721 0.764,1.632 1.146,2.525 0.381,0.893 0.7,1.768 0.836,2.443 0.135,0.674 0.087,1.147 0.127,1.679 0.04,0.532 0.168,1.122 0.504,1.619 0.337,0.498 0.881,0.903 1.195,1.44 0.314,0.538 0.396,1.208 0.602,2.158 0.205,0.951 0.533,2.183 0.646,3.113 0.112,0.929 0.009,1.556 -0.098,2.148 -0.106,0.591 -0.218,1.148 -0.101,1.705 0.117,0.557 0.462,1.116 0.865,1.635 0.404,0.519 0.866,0.998 1.149,1.313 0.284,0.315 0.39,0.466 0.491,0.609 0.101,0.142 0.198,0.276 0.351,0.879 0.152,0.603 0.36,1.675 0.439,2.419 0.078,0.745 0.027,1.161 -0.003,1.576 -0.03,0.415 -0.039,0.828 -0.073,1.354 -0.034,0.526 -0.094,1.165 -0.085,1.751 0.008,0.586 0.085,1.119 0.46,1.91 0.375,0.791 1.048,1.84 1.685,2.689 0.637,0.848 1.239,1.495 1.643,1.902 0.404,0.407 0.611,0.574 0.797,0.87 0.186,0.296 0.351,0.72 0.488,1.263 0.137,0.544 0.246,1.205 0.304,1.972 0.058,0.767 0.067,1.64 0.054,2.608 -0.013,0.968 -0.047,2.031 0.15,2.999 0.197,0.968 0.624,1.84 1.101,2.577 0.476,0.738 1,1.339 1.389,1.826 0.39,0.488 0.644,0.862 0.856,1.23 0.213,0.367 0.384,0.729 0.555,1.154 0.171,0.425 0.342,0.913 0.472,1.479 0.13,0.566 0.218,1.21 0.339,1.795 0.121,0.584 0.275,1.108 0.375,1.699 0.1,0.59 0.145,1.246 0.32,2.204 0.174,0.958 0.476,2.218 0.678,3.273 0.203,1.055 0.305,1.904 0.416,2.657 0.112,0.753 0.231,1.409 0.325,2.284 0.094,0.875 0.163,1.97 0.294,2.774 0.131,0.804 0.325,1.317 0.465,2.09 0.14,0.772 0.225,1.805 0.299,2.412 0.074,0.607 0.137,0.79 0.288,0.952 0.104,0.112 0.251,0.215 0.437,0.32 -0.079,-0.368 -0.154,-0.732 -0.127,-0.999 0.028,-0.278 0.168,-0.45 0.332,-0.556 0.164,-0.105 0.352,-0.145 0.75,-0.063 0.398,0.082 1.007,0.284 1.729,0.399 0.723,0.115 1.56,0.144 2.868,0.151 1.309,0.007 3.089,-0.007 5.568,-0.327 2.479,-0.319 5.657,-0.943 8.788,-1.599 3.132,-0.656 6.217,-1.344 9.657,-2.107 3.44,-0.762 7.234,-1.599 10.248,-2.124 3.014,-0.525 5.249,-0.737 8.16,-0.854 2.912,-0.118 6.502,-0.139 10.137,0.024 3.635,0.163 7.316,0.511 9.976,0.862 2.66,0.351 4.298,0.706 5.688,1.227 1.391,0.522 2.533,1.21 3.226,1.734 0.693,0.524 0.938,0.884 1.054,1.193 0.116,0.309 0.104,0.568 -0.007,0.887 -0.11,0.319 -0.318,0.698 -0.526,1.077 0.192,-0.063 0.354,-0.202 0.566,-0.399 0.232,-0.218 0.523,-0.509 0.64,-0.957 0.116,-0.447 0.059,-1.052 0.065,-2.577 0.006,-1.525 0.074,-3.972 0.052,-6.694 -0.023,-2.724 -0.137,-5.723 -0.194,-7.553 -0.057,-1.831 -0.057,-2.492 -0.057,-3.427 0,-0.936 0,-2.144 -0.029,-3.276 -0.028,-1.132 -0.085,-2.187 -0.111,-3.279 -0.025,-1.092 -0.02,-2.221 -0.091,-4.009 -0.072,-1.787 -0.22,-4.234 -0.3,-6.212 -0.079,-1.979 -0.091,-3.49 -0.231,-7.51 -0.139,-4.02 -0.407,-10.55 -0.929,-16.996 -0.522,-6.446 -1.297,-12.81 -2.278,-18.854 -0.981,-6.045 -2.167,-11.77 -3.341,-17.21 -1.175,-5.44 -2.338,-10.594 -3.867,-15.864 -1.528,-5.268 -3.421,-10.651 -5.246,-15.498 -1.824,-4.847 -3.581,-9.158 -4.618,-11.657 -1.038,-2.499 -1.357,-3.186 -1.494,-3.631 -0.137,-0.445 -0.092,-0.647 0.009,-0.803 0.102,-0.155 0.258,-0.263 0.386,-0.349 0.014,-0.01 0.028,-0.019 0.041,-0.029 -0.042,-0.002 -0.088,-0.005 -0.144,-0.008 -0.105,-0.005 -0.243,-0.013 -0.693,-0.048 -0.449,-0.035 -1.21,-0.098 -2.217,-0.107 -1.008,-0.008 -2.262,0.038 -3.577,0.132 -1.316,0.095 -2.692,0.24 -4.839,0.609 -2.148,0.368 -5.068,0.962 -7.478,1.498 -2.41,0.535 -4.311,1.014 -6.805,1.509 -2.494,0.494 -5.581,1.003 -8.679,1.418 -3.098,0.414 -6.208,0.733 -9.971,1.076 -3.764,0.341 -8.181,0.707 -11.872,0.965 -3.692,0.259 -6.657,0.41 -9.367,0.559 -2.711,0.148 -5.167,0.292 -7.957,0.403 -2.79,0.11 -5.915,0.186 -9.017,0.251 -3.102,0.064 -6.181,0.117 -9.116,0.11 -2.935,-0.008 -5.725,-0.076 -8.341,-0.137 -2.615,-0.061 -5.056,-0.114 -7.698,-0.194 -2.642,-0.08 -5.486,-0.186 -8.975,-0.285 -3.49,-0.099 -7.626,-0.19 -12.01,-0.217 -4.383,-0.026 -9.013,0.012 -12.845,0.008 -3.832,-0.004 -6.865,-0.049 -10.876,-0.205 -4.011,-0.156 -8.998,-0.422 -12.585,-0.69 -3.587,-0.268 -5.773,-0.538 -7.362,-0.856 -1.59,-0.318 -2.583,-0.683 -3.577,-1.049 0.044,0.064 0.021,0.188 -0.027,0.625 -0.062,0.551 -0.164,1.597 -0.449,3.521 -0.286,1.925 -0.753,4.728 -1.058,6.779 -0.305,2.052 -0.448,3.352 -0.79,5.493 -0.342,2.141 -0.884,5.124 -1.32,7.752 -0.436,2.629 -0.767,4.904 -1.029,6.823 -0.263,1.919 -0.457,3.481 -0.636,5.294 -0.18,1.814 -0.345,3.878 -0.525,6.376 -0.18,2.497 -0.373,5.428 -0.567,8.701 -0.194,3.273 -0.388,6.888 -0.53,10.743 -0.143,3.855 -0.234,7.949 -0.206,12.14 0.029,4.192 0.177,8.48 0.468,12.648 0.291,4.169 0.724,8.217 1.009,11.855 0.285,3.638 0.422,6.865 0.485,10.435 0.063,3.57 0.051,7.481 0.091,11.969 0.04,4.488 0.131,9.552 0.223,13.777 0.091,4.225 0.182,7.612 0.266,9.945 0.084,2.332 0.162,3.609 0.193,4.373 0.031,0.764 0.017,1.015 0.027,2.23 0.01,1.214 0.044,3.393 0.078,4.946 0.035,1.554 0.069,2.484 0.137,3.037 0.068,0.553 0.171,0.73 0.482,1.055 0.311,0.325 0.83,0.798 2.632,1.177 1.802,0.38 4.886,0.665 7.829,0.918 2.942,0.254 5.742,0.476 10.492,0.73 4.75,0.254 11.451,0.539 16.4,0.753 4.95,0.214 8.149,0.356 10.954,0.382 2.806,0.026 5.218,-0.066 7.656,-0.143 2.438,-0.077 4.901,-0.139 7.25,-0.216 2.35,-0.077 4.585,-0.168 7.735,-0.565 3.151,-0.396 7.217,-1.098 9.757,-1.616 2.54,-0.519 3.556,-0.856 4.448,-1.309 0.892,-0.453 1.662,-1.024 2.078,-1.386 0.417,-0.362 0.479,-0.516 0.539,-0.807z"/>
 </g>
</svg>
