<?xml version="1.0" encoding="UTF-8"?>
<!DOCTYPE svg PUBLIC "-//W3C//DTD SVG 1.1//EN" "http://www.w3.org/Graphics/SVG/1.1/DTD/svg11.dtd">
<!-- Creator: CorelDRAW -->
<svg xmlns="http://www.w3.org/2000/svg" xml:space="preserve" width="187px" height="148px" version="1.1" shape-rendering="geometricPrecision" text-rendering="geometricPrecision" image-rendering="optimizeQuality" fill-rule="evenodd" clip-rule="evenodd"
viewBox="0 0 186.999 147.486"
 xmlns:xlink="http://www.w3.org/1999/xlink"
 xmlns:xodm="http://www.corel.com/coreldraw/odm/2003">
 <defs>
   <clipPath id="id0">
    <path d="M69.622 5.532c-9.32,-0.113 -15.317,-0.1 -21.532,-0.475 -6.215,-0.375 -12.649,-1.137 -18.001,-2.044 -5.351,-0.908 -9.62,-1.96 -13.89,-3.013l-2.056 6.766c-2.101,6.05 -3.233,10.386 -4.916,16.285 -0.249,0.873 -0.435,1.453 -0.642,2.333 -2.36,10.025 -4.55,19.989 -6.162,30.214 -0.554,3.516 -0.787,7.435 -1.226,10.942l-0.435 5.757c-0.045,1.83 -0.234,3.899 -0.37,5.626 -0.078,0.987 0.009,2.192 -0.003,3.205 -0.013,1.158 -0.208,1.511 -0.203,2.794 0.009,2.038 0.069,4.202 0.011,6.226 -0.028,1.013 -0.181,1.575 -0.197,2.723l0.192 9.099c-0.03,8.303 0.172,15.985 0.183,24.267 0.002,1.267 0.207,1.666 0.202,2.996 -0.004,0.925 -0.065,2.104 0.005,3.001 0.131,1.645 0.218,4.048 0.519,5.469 1.056,4.985 5.703,6.849 10.073,7.859 3.312,0.766 6.714,1.111 10.138,1.576 4.01,0.545 19.376,0.399 23.493,-0.086 6.45,-0.761 15.507,-0.276 22.162,-1.971 7.272,-1.853 6.398,-2.822 7.435,-7.425 0.87,-3.869 2.219,-13.998 3.169,-16.919 0.807,-2.484 1.721,-7.868 2.195,-10.524 0.344,-1.99 1.133,-3.678 1.718,-5.612 1.344,-4.441 1.694,-7.626 2.92,-12.169 0.377,-1.398 0.722,-2.38 1.102,-3.854 0.997,-3.864 2.19,-8.249 2.968,-12.117 0.575,-2.856 1.095,-5.36 1.653,-8.289l2.191 -12.734c0.189,-0.998 0.23,-2.248 1.182,-2.596 0.952,0.348 0.993,1.598 1.182,2.596l2.191 12.734c0.558,2.929 1.077,5.433 1.652,8.289 0.779,3.868 1.972,8.253 2.968,12.117 0.38,1.474 0.725,2.456 1.103,3.854 1.226,4.543 1.576,7.728 2.919,12.169 0.585,1.934 1.375,3.622 1.719,5.612 0.473,2.654 1.389,8.042 2.195,10.524 0.949,2.921 2.299,13.05 3.169,16.919 1.037,4.603 0.163,5.572 7.434,7.425 6.656,1.695 15.712,1.21 22.163,1.971 4.117,0.485 19.483,0.631 23.492,0.086 3.425,-0.465 6.827,-0.81 10.138,-1.576 4.371,-1.01 9.018,-2.874 10.074,-7.859 0.301,-1.421 0.388,-3.824 0.519,-5.469 0.07,-0.897 0.009,-2.076 0.005,-3.001 -0.005,-1.33 0.2,-1.729 0.202,-2.996 0.011,-8.282 0.213,-15.964 0.183,-24.267l0.191 -8.764 -0.196 -3.058c-0.058,-2.024 0.002,-4.188 0.011,-6.226 0.004,-1.283 -0.19,-1.636 -0.204,-2.794 -0.011,-1.013 0.076,-2.218 -0.002,-3.205 -0.136,-1.727 -0.325,-3.796 -0.37,-5.626l-0.436 -5.757c-0.439,-3.507 -0.671,-7.426 -1.225,-10.942 -1.612,-10.225 -3.802,-20.189 -6.162,-30.214 -0.207,-0.88 -0.394,-1.46 -0.643,-2.333 -1.682,-5.899 -2.814,-10.235 -4.915,-16.285l-2.057 -6.766c-2.951,0.866 -5.902,1.731 -9.677,2.477 -3.774,0.745 -8.371,1.369 -13.806,1.869 -5.434,0.5 -11.706,0.875 -19.026,1.15 -7.321,0.274 -15.692,0.449 -26.199,0.418 -10.507,-0.031 -23.15,-0.269 -32.47,-0.382z"/>
   </clipPath>
    <clipPath id="id1">
     <path d="M69.622 5.532c-9.32,-0.113 -15.317,-0.1 -21.532,-0.475 -6.215,-0.375 -12.649,-1.137 -18.001,-2.044 -5.351,-0.908 -9.62,-1.96 -13.89,-3.013l-2.056 6.766c-2.101,6.05 -3.233,10.386 -4.916,16.285 -0.249,0.873 -0.435,1.453 -0.642,2.333 -2.36,10.025 -4.55,19.989 -6.162,30.214 -0.554,3.516 -0.787,7.435 -1.226,10.942l-0.435 5.757c-0.045,1.83 -0.234,3.899 -0.37,5.626 -0.078,0.987 0.009,2.192 -0.003,3.205 -0.013,1.158 -0.208,1.511 -0.203,2.794 0.009,2.038 0.069,4.202 0.011,6.226 -0.028,1.013 -0.181,1.575 -0.197,2.723l0.192 9.099c-0.03,8.303 0.172,15.985 0.183,24.267 0.002,1.267 0.207,1.666 0.202,2.996 -0.004,0.925 -0.065,2.104 0.005,3.001 0.131,1.645 0.218,4.048 0.519,5.469 1.056,4.985 5.703,6.849 10.073,7.859 3.312,0.766 6.714,1.111 10.138,1.576 4.01,0.545 19.376,0.399 23.493,-0.086 6.45,-0.761 15.507,-0.276 22.162,-1.971 7.272,-1.853 6.398,-2.822 7.435,-7.425 0.87,-3.869 2.219,-13.998 3.169,-16.919 0.807,-2.484 1.721,-7.868 2.195,-10.524 0.344,-1.99 1.133,-3.678 1.718,-5.612 1.344,-4.441 1.694,-7.626 2.92,-12.169 0.377,-1.398 0.722,-2.38 1.102,-3.854 0.997,-3.864 2.19,-8.249 2.968,-12.117 0.575,-2.856 1.095,-5.36 1.653,-8.289l2.191 -12.734c0.189,-0.998 0.23,-2.248 1.182,-2.596 0,-15.663 0,-31.326 0,-46.989l-1.415 -0.015 -0.288 -0.004 -0.504 -0.005 -0.132 -0.002 -3.306 -0.041 -0.515 -0.007 -2.349 -0.031 -0.409 -0.006 -0.104 -0.001 -0.906 -0.013 -0.54 -0.008 -0.439 -0.006 -0.04 -0.001 -0.639 -0.009 -0.309 -0.004 -0.507 -0.008 -0.448 -0.006 -0.023 -0.001 -0.521 -0.007 -0.23 -0.004 -1.099 -0.016 -0.133 -0.002 -2.031 -0.029 -0.158 -0.002 -0.514 -0.008 -0.306 -0.004 -1.22 -0.017 -0.056 -0.001 -0.433 -0.006 -0.55 -0.008 -0.216 -0.003 -0.465 -0.006 -0.408 -0.006 -0.805 -0.01 -0.458 -0.006 -0.103 -0.002 -0.641 -0.008 -0.658 -0.008z"/>
    </clipPath>
    <clipPath id="id2">
     <path d="M69.622 5.532c-9.32,-0.113 -15.317,-0.1 -21.532,-0.475 -6.215,-0.375 -12.649,-1.137 -18.001,-2.044 -5.351,-0.908 -9.62,-1.96 -13.89,-3.013l-2.056 6.766c-2.101,6.05 -3.233,10.386 -4.916,16.285 -0.249,0.873 -0.435,1.453 -0.642,2.333 -2.36,10.025 -4.55,19.989 -6.162,30.214 -0.554,3.516 -0.787,7.435 -1.226,10.942l-0.435 5.757c-0.045,1.83 -0.234,3.899 -0.37,5.626 -0.078,0.987 0.009,2.192 -0.003,3.205 -0.013,1.158 -0.208,1.511 -0.203,2.794 0.009,2.038 0.069,4.202 0.011,6.226 -0.028,1.013 -0.181,1.575 -0.197,2.723l0.192 9.099c-0.03,8.303 0.172,15.985 0.183,24.267 0.002,1.267 0.207,1.666 0.202,2.996 -0.004,0.925 -0.065,2.104 0.005,3.001 0.131,1.645 0.218,4.048 0.519,5.469 1.056,4.985 5.703,6.849 10.073,7.859 3.312,0.766 6.714,1.111 10.138,1.576 4.01,0.545 19.376,0.399 23.493,-0.086 6.45,-0.761 15.507,-0.276 22.162,-1.971 7.272,-1.853 6.398,-2.822 7.435,-7.425 0.87,-3.869 2.219,-13.998 3.169,-16.919 0.807,-2.484 1.721,-7.868 2.195,-10.524 0.344,-1.99 1.133,-3.678 1.718,-5.612 1.344,-4.441 1.694,-7.626 2.92,-12.169 0.377,-1.398 0.722,-2.38 1.102,-3.854 0.997,-3.864 2.19,-8.249 2.968,-12.117 0.575,-2.856 1.095,-5.36 1.653,-8.289l2.191 -12.734c0.189,-0.998 0.23,-2.248 1.182,-2.596 0.952,0.348 0.993,1.598 1.182,2.596l2.191 12.734c0.558,2.929 1.077,5.433 1.652,8.289 0.779,3.868 1.972,8.253 2.968,12.117 0.38,1.474 0.725,2.456 1.103,3.854 1.226,4.543 1.576,7.728 2.919,12.169 0.585,1.934 1.375,3.622 1.719,5.612 0.473,2.654 1.389,8.042 2.195,10.524 0.949,2.921 2.299,13.05 3.169,16.919 1.037,4.603 0.163,5.572 7.434,7.425 6.656,1.695 15.712,1.21 22.163,1.971 4.117,0.485 19.483,0.631 23.492,0.086 3.425,-0.465 6.827,-0.81 10.138,-1.576 4.371,-1.01 9.018,-2.874 10.074,-7.859 0.301,-1.421 0.388,-3.824 0.519,-5.469 0.07,-0.897 0.009,-2.076 0.005,-3.001 -0.005,-1.33 0.2,-1.729 0.202,-2.996 0.011,-8.282 0.213,-15.964 0.183,-24.267l0.191 -8.764 -0.196 -3.058c-0.058,-2.024 0.002,-4.188 0.011,-6.226 0.004,-1.283 -0.19,-1.636 -0.204,-2.794 -0.011,-1.013 0.076,-2.218 -0.002,-3.205 -0.136,-1.727 -0.325,-3.796 -0.37,-5.626l-0.436 -5.757c-0.439,-3.507 -0.671,-7.426 -1.225,-10.942 -1.612,-10.225 -3.802,-20.189 -6.162,-30.214 -0.207,-0.88 -0.394,-1.46 -0.643,-2.333 -1.682,-5.899 -2.814,-10.235 -4.915,-16.285l-2.057 -6.766c-2.951,0.866 -5.902,1.731 -9.677,2.477 -3.774,0.745 -8.371,1.369 -13.806,1.869 -5.434,0.5 -11.706,0.875 -19.026,1.15 -7.321,0.274 -15.692,0.449 -26.199,0.418 -10.507,-0.031 -23.15,-0.269 -32.47,-0.382z"/>
    </clipPath>
    <clipPath id="id3">
     <path d="M128.291 5.496c-7.321,0.274 -15.692,0.449 -26.199,0.418l-1.616 -0.006 -0.217 -0.001 -0.215 -0.001 -0.066 -0.001 -0.625 -0.003 -0.854 -0.006 -1.14 -0.008 -0.045 0 -0.617 -0.005 -0.252 -0.002 -0.921 -0.008 -0.253 -0.003 -0.219 -0.002 -0.286 -0.002 -0.091 -0.001 -0.283 -0.003 -0.892 -0.009c0,15.663 0,31.326 0,46.989 0.952,0.348 0.993,1.598 1.182,2.596l2.191 12.734c0.558,2.929 1.077,5.433 1.652,8.289 0.779,3.868 1.972,8.253 2.968,12.117 0.38,1.474 0.725,2.456 1.103,3.854 1.226,4.543 1.576,7.728 2.919,12.169 0.585,1.934 1.375,3.622 1.719,5.612 0.473,2.654 1.389,8.042 2.195,10.524 0.949,2.921 2.299,13.05 3.169,16.919 1.037,4.603 0.163,5.572 7.434,7.425 6.656,1.695 15.712,1.21 22.163,1.971 4.117,0.485 19.483,0.631 23.492,0.086 3.425,-0.465 6.827,-0.81 10.138,-1.576 4.371,-1.01 9.018,-2.874 10.074,-7.859 0.301,-1.421 0.388,-3.824 0.519,-5.469 0.07,-0.897 0.009,-2.076 0.005,-3.001 -0.005,-1.33 0.2,-1.729 0.202,-2.996 0.011,-8.282 0.213,-15.964 0.183,-24.267l0.191 -8.764 -0.196 -3.058c-0.058,-2.024 0.002,-4.188 0.011,-6.226 0.004,-1.283 -0.19,-1.636 -0.204,-2.794 -0.011,-1.013 0.076,-2.218 -0.002,-3.205 -0.136,-1.727 -0.325,-3.796 -0.37,-5.626l-0.436 -5.757c-0.439,-3.507 -0.671,-7.426 -1.225,-10.942 -1.612,-10.225 -3.802,-20.189 -6.162,-30.214 -0.207,-0.88 -0.394,-1.46 -0.643,-2.333 -1.682,-5.899 -2.814,-10.235 -4.915,-16.285l-2.057 -6.766c-2.951,0.866 -5.902,1.731 -9.677,2.477 -3.774,0.745 -8.371,1.369 -13.806,1.869 -5.434,0.5 -11.706,0.875 -19.026,1.15z"/>
    </clipPath>
    <clipPath id="id4">
     <path d="M69.622 5.532c-9.32,-0.113 -15.317,-0.1 -21.532,-0.475 -6.215,-0.375 -12.649,-1.137 -18.001,-2.044 -5.351,-0.908 -9.62,-1.96 -13.89,-3.013l-2.056 6.766c-2.101,6.05 -3.233,10.386 -4.916,16.285 -0.249,0.873 -0.435,1.453 -0.642,2.333 -2.36,10.025 -4.55,19.989 -6.162,30.214 -0.554,3.516 -0.787,7.435 -1.226,10.942l-0.435 5.757c-0.045,1.83 -0.234,3.899 -0.37,5.626 -0.078,0.987 0.009,2.192 -0.003,3.205 -0.013,1.158 -0.208,1.511 -0.203,2.794 0.009,2.038 0.069,4.202 0.011,6.226 -0.028,1.013 -0.181,1.575 -0.197,2.723l0.192 9.099c-0.03,8.303 0.172,15.985 0.183,24.267 0.002,1.267 0.207,1.666 0.202,2.996 -0.004,0.925 -0.065,2.104 0.005,3.001 0.131,1.645 0.218,4.048 0.519,5.469 1.056,4.985 5.703,6.849 10.073,7.859 3.312,0.766 6.714,1.111 10.138,1.576 4.01,0.545 19.376,0.399 23.493,-0.086 6.45,-0.761 15.507,-0.276 22.162,-1.971 7.272,-1.853 6.398,-2.822 7.435,-7.425 0.87,-3.869 2.219,-13.998 3.169,-16.919 0.807,-2.484 1.721,-7.868 2.195,-10.524 0.344,-1.99 1.133,-3.678 1.718,-5.612 1.344,-4.441 1.694,-7.626 2.92,-12.169 0.377,-1.398 0.722,-2.38 1.102,-3.854 0.997,-3.864 2.19,-8.249 2.968,-12.117 0.575,-2.856 1.095,-5.36 1.653,-8.289l2.191 -12.734c0.189,-0.998 0.23,-2.248 1.182,-2.596 0.952,0.348 0.993,1.598 1.182,2.596l2.191 12.734c0.558,2.929 1.077,5.433 1.652,8.289 0.779,3.868 1.972,8.253 2.968,12.117 0.38,1.474 0.725,2.456 1.103,3.854 1.226,4.543 1.576,7.728 2.919,12.169 0.585,1.934 1.375,3.622 1.719,5.612 0.473,2.654 1.389,8.042 2.195,10.524 0.949,2.921 2.299,13.05 3.169,16.919 1.037,4.603 0.163,5.572 7.434,7.425 6.656,1.695 15.712,1.21 22.163,1.971 4.117,0.485 19.483,0.631 23.492,0.086 3.425,-0.465 6.827,-0.81 10.138,-1.576 4.371,-1.01 9.018,-2.874 10.074,-7.859 0.301,-1.421 0.388,-3.824 0.519,-5.469 0.07,-0.897 0.009,-2.076 0.005,-3.001 -0.005,-1.33 0.2,-1.729 0.202,-2.996 0.011,-8.282 0.213,-15.964 0.183,-24.267l0.191 -8.764 -0.196 -3.058c-0.058,-2.024 0.002,-4.188 0.011,-6.226 0.004,-1.283 -0.19,-1.636 -0.204,-2.794 -0.011,-1.013 0.076,-2.218 -0.002,-3.205 -0.136,-1.727 -0.325,-3.796 -0.37,-5.626l-0.436 -5.757c-0.439,-3.507 -0.671,-7.426 -1.225,-10.942 -1.612,-10.225 -3.802,-20.189 -6.162,-30.214 -0.207,-0.88 -0.394,-1.46 -0.643,-2.333 -1.682,-5.899 -2.814,-10.235 -4.915,-16.285l-2.057 -6.766c-2.951,0.866 -5.902,1.731 -9.677,2.477 -3.774,0.745 -8.371,1.369 -13.806,1.869 -5.434,0.5 -11.706,0.875 -19.026,1.15 -7.321,0.274 -15.692,0.449 -26.199,0.418 -10.507,-0.031 -23.15,-0.269 -32.47,-0.382z"/>
    </clipPath>
 </defs>
 <g id="VETORES">
  <metadata id="CorelCorpID_0Corel-Layer"/>
  <g>
  </g>
  <g clip-path="url(#id0)">
   <g id="_1761683113152">
    <g>
    </g>
   </g>
   <g clip-path="url(#id1)">
    <g>
     <path fill="gold" fill-rule="nonzero" d="M-131.748 -24.592c0.189,0.109 0.375,0.218 0.562,0.33 0.371,0.222 0.738,0.452 1.098,0.691 -0.36,-0.239 -0.725,-0.468 -1.098,-0.691 -0.187,-0.11 -0.373,-0.221 -0.562,-0.33 -0.35,-0.202 -0.705,-0.4 -1.062,-0.598 0.357,0.198 0.712,0.396 1.062,0.598zm4.187 3.064c0.169,0.17 0.337,0.343 0.503,0.516 0.333,0.349 0.659,0.704 0.98,1.064 -0.321,-0.36 -0.647,-0.715 -0.98,-1.064 -0.165,-0.173 -0.334,-0.346 -0.503,-0.516 -0.312,-0.315 -0.634,-0.609 -0.967,-0.887 0.333,0.278 0.657,0.572 0.967,0.887zm2.895 3.23c-0.307,-0.372 -0.62,-0.74 -0.936,-1.105 0.316,0.365 0.628,0.733 0.936,1.105zm2.414 2.997c0.145,0.177 0.294,0.351 0.445,0.523 -0.151,-0.172 -0.298,-0.346 -0.445,-0.523 -0.364,-0.441 -0.717,-0.895 -1.071,-1.344 0.354,0.449 0.707,0.903 1.071,1.344zm1.653 1.736c-0.26,-0.224 -0.506,-0.461 -0.744,-0.709 0.238,0.248 0.484,0.485 0.744,0.709zm4.348 2.407c0.227,0.083 0.456,0.161 0.685,0.237 0.344,0.114 0.692,0.222 1.041,0.322 -0.348,-0.102 -0.697,-0.21 -1.041,-0.322 -0.229,-0.076 -0.458,-0.154 -0.685,-0.237 -0.226,-0.083 -0.451,-0.168 -0.673,-0.258 0.222,0.09 0.447,0.176 0.673,0.258zm2.779 0.851c-0.235,-0.062 -0.469,-0.126 -0.704,-0.192 0.234,0.066 0.469,0.13 0.704,0.192zm8.983 2.317c-0.787,-0.244 -1.589,-0.453 -2.391,-0.655 0.802,0.202 1.604,0.411 2.391,0.655zm6.351 2.898c0.219,0.113 0.44,0.221 0.667,0.321 0.112,0.048 0.225,0.095 0.34,0.139 0.343,0.132 0.693,0.246 1.042,0.366 -0.348,-0.118 -0.697,-0.234 -1.042,-0.366 -0.115,-0.044 -0.228,-0.091 -0.34,-0.139 -0.226,-0.098 -0.448,-0.206 -0.667,-0.321 -0.327,-0.17 -0.649,-0.354 -0.97,-0.538 0.321,0.184 0.643,0.368 0.97,0.538zm3.415 1.374c0.3,0.154 0.589,0.325 0.872,0.509 0.188,0.122 0.373,0.25 0.558,0.378 -0.183,-0.128 -0.369,-0.256 -0.558,-0.378 -0.283,-0.183 -0.571,-0.355 -0.872,-0.509 -0.221,-0.111 -0.446,-0.209 -0.674,-0.297 0.228,0.088 0.453,0.186 0.674,0.297zm2.251 1.473c0.19,0.136 0.386,0.261 0.584,0.387 -0.198,-0.124 -0.394,-0.251 -0.584,-0.387 -0.183,-0.13 -0.365,-0.262 -0.548,-0.391 0.183,0.129 0.365,0.261 0.548,0.391zm10.036 4.543c-0.334,-0.223 -0.663,-0.454 -0.997,-0.679 0.334,0.225 0.663,0.456 0.997,0.679zm0.729 0.545c0.081,0.065 0.163,0.13 0.244,0.194 -0.081,-0.064 -0.163,-0.129 -0.244,-0.194 -0.125,-0.1 -0.247,-0.204 -0.37,-0.309 0.123,0.105 0.245,0.209 0.37,0.309zm2.107 1.586c-0.157,-0.101 -0.31,-0.21 -0.46,-0.321 0.15,0.111 0.303,0.22 0.46,0.321zm0.732 0.381c0.285,0.11 0.579,0.18 0.878,0.228 -0.297,-0.048 -0.591,-0.118 -0.878,-0.228 -0.084,-0.032 -0.169,-0.069 -0.25,-0.108 0.083,0.039 0.166,0.076 0.25,0.108zm41.243 18.384c0.164,0.148 0.331,0.294 0.503,0.438 -0.052,-0.073 -0.216,-0.233 -0.472,-0.416 -0.011,-0.008 -0.021,-0.016 -0.031,-0.022 -0.093,-0.087 -0.187,-0.172 -0.28,-0.258 -0.125,-0.118 -0.248,-0.238 -0.367,-0.362 -0.001,0.002 -0.001,0.003 -0.001,0.005 0.158,0.173 0.3,0.323 0.425,0.45 0.074,0.054 0.148,0.11 0.225,0.165l-0.002 0zm56.6 24.706c0.399,0.209 0.79,0.431 1.175,0.667 -0.385,-0.236 -0.776,-0.457 -1.175,-0.667 -0.265,-0.14 -0.534,-0.273 -0.806,-0.403 0.272,0.13 0.541,0.263 0.806,0.403zm6.06 3.426c0.762,0.31 1.52,0.641 2.296,0.92 -0.774,-0.28 -1.534,-0.61 -2.296,-0.92 -0.327,-0.133 -0.653,-0.272 -0.978,-0.421 0.325,0.149 0.651,0.288 0.978,0.421zm4.817 1.567c-0.082,-0.032 -0.17,-0.055 -0.264,-0.073 0.094,0.02 0.183,0.043 0.264,0.073zm0.67 0.54c0.07,0.048 0.139,0.099 0.207,0.149 -0.07,-0.052 -0.137,-0.101 -0.207,-0.149 -0.066,-0.045 -0.135,-0.088 -0.203,-0.132 0.068,0.044 0.138,0.087 0.203,0.132zm1.675 1.199c-0.151,-0.077 -0.296,-0.166 -0.439,-0.264 0.143,0.096 0.288,0.187 0.439,0.264zm4.129 1.249c0.154,0.027 0.31,0.047 0.469,0.067 -0.157,-0.02 -0.315,-0.04 -0.469,-0.067 -0.677,-0.122 -1.403,-0.276 -2.111,-0.479 0.708,0.203 1.434,0.357 2.111,0.479zm1.284 0.195c0,0 0.005,0.002 0.012,0.004 0.017,0.007 0.049,0.017 0.091,0.031 -0.042,-0.014 -0.076,-0.024 -0.091,-0.031 -0.005,0 -0.009,-0.004 -0.012,-0.004 -0.113,-0.026 -0.228,-0.046 -0.345,-0.064 0.117,0.018 0.232,0.038 0.345,0.064zm0.25 0.081c0.054,0.017 0.112,0.034 0.166,0.051 0.037,0.01 0.07,0.022 0.102,0.03 -0.032,-0.01 -0.067,-0.02 -0.102,-0.03 -0.054,-0.017 -0.112,-0.034 -0.166,-0.051 -0.037,-0.012 -0.072,-0.022 -0.104,-0.032 0.032,0.01 0.067,0.022 0.104,0.032zm0.403 0.119c-0.011,-0.003 -0.028,-0.008 -0.051,-0.013 0.023,0.007 0.041,0.01 0.051,0.013zm7.232 1.956c-0.103,-0.044 -0.207,-0.087 -0.309,-0.127 0.102,0.04 0.206,0.083 0.309,0.127zm0.713 0.428c0.074,0.067 0.136,0.139 0.191,0.213 -0.055,-0.074 -0.117,-0.146 -0.191,-0.213 -0.163,-0.149 -0.357,-0.262 -0.561,-0.358 0.202,0.096 0.396,0.21 0.561,0.358zm1.156 1.798c-0.065,-0.099 -0.13,-0.197 -0.192,-0.294 0.061,0.099 0.125,0.197 0.192,0.294zm0.543 0.698c-0.079,-0.085 -0.154,-0.174 -0.229,-0.266 0.073,0.092 0.15,0.181 0.229,0.266zm4.795 2.254c0.054,0.03 0.11,0.058 0.169,0.084 -0.059,-0.026 -0.116,-0.054 -0.169,-0.084 -0.098,-0.052 -0.18,-0.118 -0.253,-0.194 0.071,0.074 0.153,0.141 0.253,0.194zm2.678 1.167c-0.122,-0.087 -0.245,-0.169 -0.371,-0.246 0.126,0.077 0.249,0.16 0.371,0.246zm3.93 2.564c0.308,0.121 0.618,0.232 0.928,0.347 -0.31,-0.113 -0.622,-0.227 -0.928,-0.347 -0.232,-0.089 -0.459,-0.183 -0.684,-0.283 0.225,0.1 0.454,0.193 0.684,0.283zm4.377 1.765c-0.984,-0.436 -1.976,-0.863 -2.984,-1.245 1.007,0.382 1.999,0.809 2.984,1.245zm4.295 2.007c0.088,0.016 0.177,0.033 0.265,0.045 0.178,0.027 0.357,0.048 0.536,0.062 -0.179,-0.014 -0.358,-0.035 -0.536,-0.062 -0.088,-0.014 -0.177,-0.029 -0.265,-0.045 -0.267,-0.05 -0.531,-0.117 -0.791,-0.201 0.258,0.084 0.524,0.151 0.791,0.201zm6.483 3.455c0.177,0.07 0.344,0.156 0.509,0.252 -0.163,-0.096 -0.332,-0.181 -0.509,-0.252 -0.237,-0.093 -0.486,-0.156 -0.759,-0.176 0.273,0.022 0.524,0.085 0.759,0.176zm8.402 5.936c0.497,0.28 1.007,0.526 1.536,0.725 0.652,0.246 1.281,0.448 1.891,0.724 -0.61,-0.276 -1.239,-0.478 -1.891,-0.724 -0.527,-0.199 -1.039,-0.445 -1.536,-0.725 -0.373,-0.209 -0.738,-0.437 -1.097,-0.676 0.359,0.239 0.724,0.467 1.097,0.676zm4.499 2.052c0.241,0.168 0.469,0.346 0.688,0.524 -0.221,-0.179 -0.447,-0.356 -0.688,-0.524 -0.117,-0.082 -0.233,-0.158 -0.353,-0.228 0.118,0.07 0.236,0.146 0.353,0.228zm9.011 5.422c0.084,-0.029 0.179,-0.079 0.275,-0.134 0.096,-0.055 0.19,-0.114 0.268,-0.165 0.04,-0.025 0.074,-0.048 0.103,-0.067 0.028,-0.019 0.051,-0.033 0.066,-0.041 -0.015,0.008 -0.038,0.022 -0.066,0.041 -0.029,0.019 -0.065,0.042 -0.103,0.067 -0.078,0.051 -0.172,0.11 -0.268,0.165 -0.096,0.055 -0.192,0.105 -0.275,0.134 -0.041,0.015 -0.079,0.024 -0.112,0.028 0.033,-0.002 0.07,-0.012 0.112,-0.028zm2.192 -1.36c-0.234,0.175 -0.477,0.342 -0.725,0.499 0.248,-0.157 0.491,-0.322 0.725,-0.499zm-46.641 -23.99c0.014,0.077 0.023,0.153 0.033,0.229 -0.008,-0.078 -0.019,-0.154 -0.033,-0.229zm0.035 0.951c0.009,-0.084 0.014,-0.166 0.017,-0.248 -0.003,0.08 -0.008,0.162 -0.017,0.248zm-1.705 -1.552c-0.212,-0.025 -0.449,-0.047 -0.72,-0.066 0.239,0.016 0.482,0.045 0.724,0.079 -0.001,-0.006 -0.003,-0.009 -0.004,-0.013l0 0zm-55.527 -23.325c-0.445,-0.194 -0.875,-0.295 -1.212,-0.14 -0.064,0.029 -0.122,0.064 -0.175,0.099 0.571,0.165 1.156,0.297 1.743,0.415 -0.099,-0.11 -0.224,-0.246 -0.356,-0.374l0 0zm-18.933 -10.283c-0.196,-0.061 -0.392,-0.116 -0.589,-0.17 0.304,0.17 0.621,0.312 0.939,0.452 -0.117,-0.096 -0.234,-0.188 -0.35,-0.282zm-4.176 -1.264c0.064,0.05 0.128,0.1 0.191,0.151 0.064,0.001 0.129,0.003 0.193,0.006 -0.129,-0.05 -0.257,-0.102 -0.384,-0.157l0 0zm-3.006 -2.115c-0.421,-0.376 -0.161,-0.053 0.186,0.235 0.074,0.035 0.148,0.07 0.209,0.098 -0.131,-0.111 -0.266,-0.221 -0.395,-0.333l0 0zm-115.973 39.87c0.188,-3.735 1.41,-7.374 1.865,-11.082 0.481,-3.928 0.614,-7.884 0.882,-11.827 0.267,-3.94 0.799,-7.816 1.504,-11.699 0.7,-3.852 1.4,-7.691 1.658,-11.605 0.255,-3.827 0.564,-7.494 1.726,-11.172 0.566,-1.792 1.197,-3.566 1.686,-5.38 0.478,-1.781 0.796,-3.604 1.165,-5.408 0.739,-3.616 1.728,-7.199 2.286,-10.849 0.266,-1.741 0.434,-3.535 0.456,-5.297 0.011,-0.877 -0.047,-1.758 -0.266,-2.61 -0.177,-0.688 -0.524,-1.341 -0.559,-2.06 -0.031,-0.627 0.161,-1.313 0.224,-1.976l0 0c-1.497,-0.833 -2.996,-1.666 -4.517,-2.456 0.09,0.047 1.343,-0.465 1.532,-0.512 0.367,-0.09 1.227,-0.453 1.594,-0.261 1.336,0.694 2.655,1.419 3.97,2.151 0.569,0.318 1.135,0.635 1.703,0.951 1.649,0.915 3.325,1.775 4.793,2.972 2.944,2.403 4.877,5.745 7.506,8.439 2.816,2.882 6.942,3.578 10.672,4.585 3.932,1.058 7.81,1.908 11.395,3.926 0.947,0.533 1.872,0.993 2.904,1.346 0.979,0.335 1.873,0.736 2.733,1.32 0.48,0.325 0.954,0.652 1.432,0.975 -0.226,-0.196 -0.453,-0.391 -0.683,-0.582 -0.091,-0.077 -0.948,-0.833 -0.772,-0.833 0.414,0.002 1.314,0.944 1.594,1.179 1.087,0.912 2.108,1.947 3.277,2.757 0.089,0.032 0.18,0.061 0.277,0.085 0.035,0.006 0.004,0.031 -0.059,0.063 1.264,0.849 2.553,1.645 3.716,2.637 0.046,0.042 0.095,0.082 0.144,0.123 0.047,0.04 0.097,0.082 0.144,0.123 0.131,0.07 0.27,0.123 0.418,0.151 0.78,0.236 1.604,0.162 2.403,0.207 1.378,0.077 2.488,0.237 3.715,0.905 1.214,0.657 2.35,1.323 3.41,2.181 0.161,0.128 0.316,0.261 0.472,0.397 1.06,0.936 2.02,2 2.962,3.053 0.234,0.262 0.467,0.521 0.703,0.781 0.111,0.02 0.225,0.033 0.34,0.035 0.296,0.017 0.595,-0.016 0.885,-0.068 0.561,-0.099 1.971,-0.485 2.597,-1.122 0.011,-0.257 -0.018,-0.48 0.307,-0.639 0.286,-0.14 2.502,1.703 2.5,2.03 -0.001,0.258 -0.135,0.488 -0.346,0.693 -0.017,0.148 -0.037,0.3 -0.098,0.437 -0.059,0.13 -0.184,0.474 -0.271,0.578 -0.223,-0.16 -0.416,-0.302 -0.587,-0.425 0.496,0.369 1,0.724 1.488,1.103 0.358,0.277 0.708,0.564 1.05,0.858 0.005,0.004 0.008,0.008 0.013,0.012 0.513,0.135 1.054,0.664 1.434,0.966 0.24,0.19 0.473,0.385 0.707,0.58 0.408,0.351 0.439,0.366 0.092,0.041 -0.332,-0.248 -0.32,-0.299 0.032,-0.151 0.602,-0.012 1.406,0.301 1.94,0.548 0.274,0.124 0.54,0.27 0.809,0.403 0.049,0.023 0.938,0.466 0.962,0.287 -0.21,-0.258 -0.377,-0.51 -0.497,-0.838 -0.007,-0.02 -0.016,-0.043 -0.023,-0.063 0.635,0.039 1.33,0.459 1.899,0.719 0.827,0.38 1.563,1.003 2.343,1.473 0.355,0.214 0.708,0.442 1.075,0.639 0.555,0.296 1.14,0.518 1.806,0.5 0.378,-0.01 0.719,-0.12 1.102,-0.049 0.439,0.082 0.845,0.318 1.273,0.439 1.668,0.474 3.512,0.865 4.926,1.928 0.318,0.24 0.629,0.491 0.933,0.748 0.046,0.034 0.09,0.064 0.126,0.089 0.159,0.111 0.319,0.227 0.474,0.345 0.156,0.119 0.311,0.239 0.464,0.363 1.193,0.449 2.502,0.418 3.77,0.43 1.245,0.012 2.262,1.012 3.169,1.844 0.058,0.053 0.115,0.104 0.172,0.155 0.012,0.007 0.175,0.14 0.324,0.264 0.244,0.029 0.582,0.223 0.784,0.281 0.241,0.07 0.488,0.126 0.735,0.177 0.975,0.203 1.927,0.493 2.845,0.88 1.076,0.456 2.087,1.215 2.979,1.963 0.227,0.189 0.456,0.374 0.685,0.56 0.592,0.384 1.165,0.808 1.768,1.168 0.192,0.114 0.386,0.221 0.58,0.325 0.072,0.026 0.141,0.051 0.213,0.077 0.458,0.168 0.911,0.359 1.353,0.568 0.327,0.154 0.645,0.322 0.96,0.496 0.017,0.007 0.036,0.014 0.054,0.021 0.634,0.255 1.154,0.575 1.671,0.942 0.549,0.196 1.074,0.474 1.572,0.8 0.764,0.38 1.564,0.839 2.24,1.407 0.155,0.072 0.313,0.137 0.476,0.193 0.373,0.133 1.098,0.402 1.503,0.297 0.242,-0.063 0.713,0.243 1.069,0.49 0.42,-0.018 0.892,0.318 1.228,0.482 0.453,0.218 0.915,0.488 1.387,0.671 0.005,-0.157 0.012,-0.284 0.015,-0.318 0.044,-0.502 -0.007,-1.519 0.307,-1.958 0.032,-0.042 0.063,-0.087 0.093,-0.129 0.014,-0.017 0.028,-0.036 0.04,-0.054 0.452,0.121 0.795,0.578 1.099,0.901 0.363,0.383 0.812,0.644 1.244,0.941l0.041 0.028c0.239,-0.047 0.463,-0.058 0.609,0.018 1.1,0.572 2.189,1.164 3.273,1.764 0.717,0.236 1.431,0.537 2.109,0.815 0.472,0.195 0.951,0.376 1.424,0.571 0.585,0.241 1.079,0.646 1.657,0.91 0.092,0.043 0.096,0.335 0.07,0.661l0.121 0.075c0.054,-0.033 0.108,-0.063 0.164,-0.085 0.511,-0.216 1.618,0.132 2.064,0.434 0.328,0.224 0.736,0.618 1.027,1.047 0.689,0.249 1.378,0.495 2.08,0.714 0.931,0.29 1.799,0.565 2.581,1.148 0.265,0.199 0.442,0.425 0.57,0.669 0.133,0.042 0.266,0.083 0.399,0.124 0.66,0.207 1.316,0.413 1.966,0.624 1.686,0.547 3.352,1.246 4.934,2.029 1.539,0.761 2.82,1.977 4.409,2.625 1.222,0.496 2.42,1.208 3.679,1.664 0.294,0.109 0.592,0.203 0.895,0.276 0.695,0.168 1.415,0.254 2.052,0.602 0.801,0.439 1.433,1.144 2.226,1.58 0.376,0.209 0.792,0.304 1.198,0.434 0.14,0.044 0.294,0.087 0.433,0.148 0.111,0.047 0.182,0.083 0.223,0.108 0.101,0.016 0.2,0.033 0.301,0.048 0.703,0.111 1.412,0.223 2.103,0.398l0.198 0.016c0.448,0.032 0.896,0.063 1.342,0.113 0.847,0.096 1.359,0.083 2.262,0.217 0.959,0.145 1.845,0.287 2.65,0.832 0.772,0.523 1.62,0.881 2.476,1.244 0.786,0.333 1.147,0.678 1.548,1.39 0.177,0.316 0.414,0.628 0.621,0.925 0.029,0.041 0.06,0.083 0.089,0.125 0.213,-0.169 0.237,-0.729 0.208,-1.144 -0.037,-0.116 -0.064,-0.226 -0.066,-0.318 -0.002,-0.038 -0.083,-0.323 0.034,-0.187 0.311,0.359 0.464,0.845 0.864,1.065 0.402,0.221 0.974,0.339 1.411,0.497 0.978,0.356 1.68,1.045 2.484,1.696 1.154,0.929 2.348,1.387 3.716,1.908 1.247,0.474 2.431,1.093 3.672,1.569 1.145,0.44 2.064,1.281 3.245,1.635 0.623,0.185 1.263,0.261 1.91,0.297 0.633,0.036 1.46,-0.074 2.039,0.208 0.409,0.2 0.597,0.594 0.802,0.981 0.293,0.553 0.5,0.847 1.088,1.101 0.484,0.209 1.008,0.391 1.536,0.427 0.118,0.008 0.287,0.025 0.447,0.015 0.227,-0.362 0.457,-0.707 0.629,-0.928 -0.018,-0.043 -0.034,-0.088 -0.052,-0.132 -0.132,-0.038 -0.286,-0.085 -0.286,-0.083 -0.351,-0.124 -0.702,-0.289 -1.037,-0.445 -0.384,-0.181 -1.178,-0.409 -1.403,-0.802 -0.088,-0.153 -0.243,-0.254 -0.332,-0.395 -0.016,-0.025 -0.028,-0.048 -0.037,-0.066 -0.38,-0.166 -0.749,-0.357 -1.097,-0.569 -0.232,-0.105 -0.464,-0.212 -0.694,-0.326 -0.291,-0.11 -0.578,-0.236 -0.864,-0.363 -0.005,-0.002 -0.008,-0.004 -0.014,-0.007 -0.028,0.004 -0.101,-0.01 -0.242,-0.044 -0.533,-0.132 -1.067,-0.341 -1.58,-0.564 -0.888,-0.207 -1.761,-0.528 -2.607,-0.852 -0.682,-0.26 -1.356,-0.563 -2.001,-0.906 -0.096,-0.051 -0.192,-0.104 -0.286,-0.158 -0.634,-0.267 -1.243,-0.59 -1.828,-0.946 0,0 -0.295,-0.19 -0.107,-0.162 0.511,0.073 1.008,0.234 1.49,0.443 0.284,0.052 0.569,0.106 0.84,0.196 0.755,0.252 1.482,0.579 2.193,0.933 0.075,0.037 0.3,0.129 0.524,0.235 -0.018,-0.018 -0.038,-0.033 -0.053,-0.053 -0.018,-0.021 -0.285,-0.183 -0.104,-0.157 0.387,0.053 0.772,0.18 1.148,0.341 0.699,0.145 1.42,0.233 2.119,0.161 0.728,-0.074 1.499,-0.153 2.221,-0.045 0.555,0.083 1.146,0.427 1.64,0.667 0.119,0.058 1.199,0.706 1.209,0.707 -0.252,0.164 -0.268,0.389 -0.338,0.583 0.079,0.044 0.16,0.088 0.24,0.134 0.234,0.104 0.58,0.236 0.693,0.417 0.187,0.305 -0.256,0.412 -0.238,0.857 0,0.02 -0.453,-0.15 -0.864,-0.309 0.226,0.119 0.395,0.237 0.407,0.331 0.066,0.036 0.135,0.069 0.2,0.104 0.197,0.113 0.407,0.224 0.58,0.369 0.152,0.127 0.297,0.277 0.428,0.437 0.014,-0.039 0.061,-0.024 0.169,0.082 0.052,0.051 0.1,0.112 0.147,0.181 0.015,-0.013 0.029,-0.025 0.042,-0.031 0.018,-0.009 0.037,-0.015 0.055,-0.022l0.005 -0.007c0,0 0.003,0.002 0.005,0.002 0.199,-0.088 0.408,-0.117 0.625,-0.159 0.195,-0.036 0.572,-0.065 0.818,-0.17 0.082,-0.112 0.167,-0.222 0.253,-0.33 0.378,-0.459 0.634,-0.406 1.199,-0.336 0.04,0.005 -0.71,1.313 -0.777,1.416 -0.21,0.316 -0.424,0.633 -0.658,0.931 -0.058,0.073 -0.232,0.356 -0.335,0.345 -0.085,-0.011 -0.416,-0.099 -0.619,-0.098 -0.004,0.005 -0.008,0.01 -0.012,0.015 0.034,0.111 0.064,0.212 0.093,0.299 0.125,0.374 0.28,0.786 0.308,1.197 0.224,-0.131 0.452,-0.225 0.641,-0.21 1.035,0.085 1.766,0.756 2.575,1.359 0.412,0.309 0.901,0.476 1.313,0.771 0.365,0.262 0.6,0.663 0.963,0.939 1.812,1.37 3.704,2.952 5.847,3.767 1.041,0.398 2.033,0.671 2.963,1.327 0.915,0.645 1.604,1.434 2.642,1.917 0.977,0.455 2.081,0.828 2.979,1.417 0.24,0.158 0.478,0.317 0.716,0.475 0.333,-0.384 0.979,-0.688 1.383,-0.932 0.178,-0.107 1.051,-0.761 1.251,-0.63 0.724,0.475 1.485,0.896 2.18,1.413 0.699,0.52 1.289,1.166 1.94,1.743 1.382,1.231 2.904,2.221 4.367,3.336 0.647,0.495 1.28,1.015 2.007,1.387 0.806,0.412 1.623,0.766 2.399,1.234 0.387,0.235 1.617,0.759 1.734,1.241 0.052,0.217 -0.166,0.374 -0.088,0.583 0.08,0.217 0.625,0.397 0.81,0.5 0,0.01 -0.11,0.094 -0.265,0.21 -0.066,0.051 -0.143,0.107 -0.221,0.166 -0.054,0.038 -0.107,0.079 -0.16,0.117 0.053,-0.04 0.108,-0.079 0.16,-0.117 0.078,-0.059 0.155,-0.115 0.221,-0.166 0.23,0.086 0.456,0.178 0.68,0.272 0.692,-0.623 1.648,-1.428 1.83,-1.264 2.897,2.595 6.405,4.47 9.487,6.845 0.536,0.413 1.068,0.832 1.598,1.255 0.037,-0.116 0.083,-0.219 0.142,-0.302 0.032,-0.042 0.062,-0.086 0.093,-0.129 0.014,-0.016 0.028,-0.035 0.04,-0.054 0.452,0.121 0.795,0.578 1.099,0.901 0.363,0.383 0.812,0.644 1.244,0.942 0.953,0.656 1.875,1.287 3,1.548 0.228,0.053 0.458,0.116 0.688,0.187l0.006 -0.069c0,-0.012 0.047,0.037 0.105,0.104 0.492,0.156 0.983,0.345 1.463,0.539 0.08,0.009 0.159,0.017 0.239,0.023 -0.013,-0.001 -0.04,0.015 -0.078,0.043 0.206,0.083 0.409,0.168 0.609,0.25 0.472,0.194 0.951,0.375 1.423,0.57 0.585,0.242 1.08,0.646 1.658,0.911 0.107,0.05 0.095,0.442 0.054,0.83 0.1,-0.073 0.198,-0.138 0.3,-0.18 0.511,-0.215 1.619,0.132 2.065,0.434 0.328,0.224 0.736,0.618 1.027,1.048 0.689,0.248 1.378,0.495 2.08,0.713 0.931,0.29 1.799,0.566 2.58,1.148 0.266,0.199 0.443,0.426 0.57,0.669 0.134,0.042 0.267,0.083 0.4,0.125 0.659,0.206 1.316,0.412 1.966,0.623 1.686,0.547 3.352,1.247 4.934,2.029 1.539,0.761 2.82,1.977 4.409,2.625 1.222,0.497 2.42,1.209 3.679,1.665 0.294,0.108 0.592,0.203 0.894,0.276 0.696,0.168 1.415,0.253 2.053,0.602 0.801,0.438 1.432,1.143 2.226,1.58 0.376,0.208 0.792,0.303 1.198,0.433 0.14,0.044 0.294,0.087 0.433,0.149 0.111,0.046 0.181,0.083 0.223,0.107 0.1,0.016 0.2,0.033 0.301,0.048 0.703,0.112 1.412,0.223 2.103,0.398l0.198 0.017c0.448,0.031 0.896,0.062 1.342,0.113 0.847,0.096 1.359,0.082 2.262,0.217 0.959,0.144 1.845,0.287 2.649,0.832 0.773,0.522 1.621,0.88 2.476,1.243 0.786,0.333 1.148,0.679 1.549,1.39 0.177,0.316 0.414,0.628 0.621,0.925 0.029,0.042 0.06,0.084 0.088,0.125 0.213,-0.169 0.238,-0.729 0.209,-1.144 -0.037,-0.116 -0.064,-0.226 -0.066,-0.318 -0.002,-0.037 -0.083,-0.322 0.033,-0.187 0.312,0.359 0.464,0.845 0.865,1.065 0.402,0.221 0.974,0.339 1.411,0.498 0.978,0.356 1.679,1.045 2.484,1.696 1.154,0.928 2.348,1.387 3.716,1.908 1.247,0.473 2.431,1.092 3.672,1.568 1.145,0.44 2.064,1.282 3.244,1.635 0.624,0.185 1.264,0.261 1.911,0.298 0.633,0.035 1.46,-0.075 2.038,0.207 0.409,0.201 0.598,0.595 0.803,0.981 0.293,0.554 0.5,0.847 1.088,1.102 0.484,0.208 1.007,0.39 1.536,0.426 0.118,0.008 0.287,0.026 0.447,0.015 0.227,-0.362 0.456,-0.707 0.629,-0.928 -0.018,-0.043 -0.034,-0.087 -0.052,-0.132 -0.132,-0.038 -0.286,-0.084 -0.286,-0.082 -0.351,-0.124 -0.702,-0.289 -1.037,-0.446 -0.384,-0.18 -1.178,-0.409 -1.403,-0.802 -0.088,-0.152 -0.243,-0.253 -0.332,-0.395 -0.016,-0.025 -0.029,-0.047 -0.038,-0.066 -0.379,-0.165 -0.748,-0.357 -1.097,-0.569 -0.232,-0.105 -0.463,-0.212 -0.693,-0.326 -0.29,-0.11 -0.578,-0.235 -0.864,-0.363 -0.005,-0.002 -0.009,-0.004 -0.014,-0.006 -0.029,0.003 -0.101,-0.01 -0.242,-0.045 -0.533,-0.132 -1.067,-0.34 -1.58,-0.563 -0.888,-0.207 -1.761,-0.528 -2.607,-0.852 -0.682,-0.261 -1.356,-0.563 -2.001,-0.907 -0.096,-0.051 -0.192,-0.104 -0.287,-0.158 -0.633,-0.267 -1.242,-0.59 -1.827,-0.946 0,0 -0.295,-0.189 -0.107,-0.161 0.511,0.072 1.008,0.233 1.49,0.443 0.284,0.052 0.569,0.105 0.84,0.196 0.755,0.252 1.482,0.579 2.192,0.933 0.076,0.036 0.3,0.128 0.525,0.235 -0.018,-0.018 -0.039,-0.034 -0.053,-0.053 -0.018,-0.021 -0.285,-0.183 -0.104,-0.158 0.387,0.053 0.772,0.18 1.148,0.342 0.699,0.145 1.42,0.232 2.119,0.16 0.728,-0.073 1.499,-0.152 2.22,-0.045 0.555,0.083 1.147,0.428 1.64,0.667 0.12,0.059 1.199,0.706 1.21,0.707 -0.252,0.165 -0.269,0.39 -0.338,0.583 0.079,0.044 0.159,0.088 0.24,0.135 0.234,0.103 0.58,0.235 0.693,0.417 0.187,0.304 -0.256,0.412 -0.239,0.856 0,0.02 -0.452,-0.15 -0.863,-0.309 0.225,0.119 0.395,0.237 0.407,0.332 0.066,0.035 0.135,0.068 0.2,0.103 0.197,0.114 0.407,0.224 0.58,0.369 0.151,0.128 0.297,0.278 0.428,0.437 0.014,-0.038 0.061,-0.023 0.169,0.082 0.051,0.051 0.1,0.113 0.147,0.181 0.015,-0.013 0.028,-0.025 0.041,-0.031 0.019,-0.009 0.038,-0.015 0.056,-0.022l0.005 -0.007c0,0 0.003,0.002 0.005,0.002 0.199,-0.088 0.408,-0.117 0.625,-0.159 0.195,-0.036 0.572,-0.064 0.817,-0.17 0.083,-0.112 0.168,-0.221 0.254,-0.329 0.378,-0.459 0.634,-0.406 1.199,-0.337 0.039,0.005 -0.71,1.313 -0.778,1.416 -0.209,0.316 -0.423,0.633 -0.657,0.932 -0.058,0.072 -0.232,0.356 -0.335,0.344 -0.086,-0.011 -0.416,-0.099 -0.619,-0.097 -0.004,0.005 -0.008,0.01 -0.012,0.015 0.034,0.11 0.064,0.211 0.092,0.298 0.126,0.375 0.281,0.786 0.308,1.197 0.225,-0.13 0.453,-0.225 0.642,-0.209 1.034,0.084 1.766,0.756 2.574,1.359 0.413,0.308 0.902,0.475 1.314,0.771 0.365,0.261 0.6,0.663 0.963,0.938 1.812,1.371 3.704,2.952 5.847,3.768 1.041,0.397 2.033,0.67 2.963,1.326 0.915,0.645 1.604,1.434 2.642,1.917 0.977,0.455 2.08,0.829 2.978,1.417 0.241,0.158 0.479,0.318 0.717,0.475 0.333,-0.384 0.979,-0.688 1.383,-0.932 0.178,-0.107 1.051,-0.761 1.251,-0.63 0.723,0.476 1.484,0.897 2.18,1.413 0.699,0.52 1.289,1.166 1.94,1.743 1.382,1.232 2.904,2.221 4.367,3.337 0.647,0.494 1.28,1.014 2.007,1.386 0.806,0.412 1.623,0.766 2.399,1.235 0.387,0.234 1.617,0.758 1.733,1.24 0.053,0.218 -0.165,0.374 -0.087,0.583 0.079,0.217 0.625,0.398 0.81,0.501 0,0.009 -0.11,0.093 -0.265,0.21 -0.067,0.05 -0.143,0.106 -0.221,0.165 -0.054,0.039 -0.107,0.079 -0.161,0.118 0.054,-0.041 0.109,-0.079 0.161,-0.118 0.078,-0.059 0.154,-0.115 0.221,-0.165 0.23,0.085 0.456,0.177 0.68,0.271 0.692,-0.622 1.648,-1.427 1.83,-1.264 2.897,2.596 6.405,4.47 9.487,6.845 0.745,0.575 1.483,1.161 2.218,1.75 0.704,0.568 1.361,1.172 2.195,1.54 1.119,0.494 2.277,0.994 3.469,1.321l0.027 -0.332c0.003,-0.03 0.287,0.32 0.323,0.362 0,0 0.001,0 0.001,0 0.002,0.001 0.002,0.002 0.002,0.002 0.016,0.023 0.032,0.044 0.048,0.069 0.474,0.112 0.95,0.194 1.433,0.233 -0.062,-0.005 -0.49,0.404 -0.823,0.721 0.237,0.368 0.706,0.955 0.672,1.373l-0.457 5.595c-0.142,1.742 -0.032,3.589 -0.735,5.219 -0.64,1.487 -1.177,2.991 -1.441,4.595 -0.28,1.697 -0.325,3.452 -0.467,5.166 -0.139,1.66 -0.4,3.214 -1.227,4.683 -0.668,1.182 -1.407,2.611 -1.273,3.98 0.165,1.657 0.31,3.288 0.824,4.883 0.504,1.558 0.358,2.973 0.188,4.578 -0.366,3.463 -1.526,6.811 -1.628,10.308 -0.052,1.799 0.318,3.49 0.747,5.225 0.374,1.513 0.509,2.917 0.391,4.472 -0.274,3.62 -0.677,7.238 -0.859,10.865 -0.08,1.604 -0.104,3.386 -1.002,4.78 -0.368,0.568 -0.814,1.05 -1.066,1.689 -0.301,0.765 -0.48,1.588 -0.734,2.37 -0.264,0.813 -0.553,1.635 -0.673,2.485 -0.134,0.935 -0.007,1.888 0.032,2.826 0.033,0.76 0.09,1.461 0.329,2.19 0.248,0.756 0.543,1.482 0.608,2.284 0.059,0.732 -0.271,1.303 -0.318,2.003 -0.047,0.719 -0.601,0.886 -1.179,1.142 -0.659,0.294 -1.484,0.792 -1.378,1.601 0.054,0.41 0.244,0.789 0.3,1.204 0.036,0.265 0.054,0.53 0.064,0.797l0.856 0.07c-0.077,-0.006 -1.019,1.012 -1.158,1.126 -0.273,0.227 -0.928,0.96 -1.323,0.927 -4.335,-0.354 -8.725,-0.949 -13.079,-0.963 -4.493,-0.015 -9.012,0.639 -13.463,1.204 -4.51,0.57 -8.88,0.888 -13.423,0.544 -2.243,-0.169 -4.48,-0.4 -6.723,-0.54 -2.215,-0.139 -4.426,-0.072 -6.641,-0.156 -2.182,-0.081 -4.245,-0.508 -6.367,-0.99 -2.18,-0.494 -4.405,-0.696 -6.628,-0.891 -4.421,-0.387 -8.861,-0.571 -13.278,-0.997 -4.507,-0.434 -8.629,-2.167 -12.978,-3.265 -4.312,-1.092 -8.968,-1.682 -13.397,-2.051 -4.508,-0.375 -8.942,-0.764 -13.406,-1.545 -4.42,-0.775 -8.796,-1.856 -13.231,-2.538 -8.87,-1.363 -17.445,1.671 -26.156,2.934 -4.247,0.615 -8.491,1.369 -12.767,0.67 -4.371,-0.714 -8.782,-0.99 -13.11,-1.975 -4.303,-0.98 -8.486,-2.404 -12.774,-3.439 -4.223,-1.022 -8.881,-1.933 -13.239,-1.516 -4.384,0.419 -8.603,1.784 -13.021,2.05 -4.509,0.27 -9.108,-0.362 -13.592,-0.805 -4.35,-0.431 -8.417,-1.553 -12.545,-2.945 -4.131,-1.394 -8.244,-2.572 -12.649,-2.239 -2.136,0.163 -4.254,0.509 -6.394,0.625 0.141,-0.006 0.985,-0.982 1.158,-1.126 0.318,-0.263 0.88,-0.903 1.323,-0.926 0.287,-0.016 0.574,-0.036 0.859,-0.055 -0.235,-0.029 -0.467,-0.064 -0.7,-0.113 -1.298,-0.278 -2.891,-0.552 -3.747,-1.659 -0.753,-0.975 -1.622,-2.179 -1.902,-3.388 -0.359,-1.557 -0.42,-3.172 -0.786,-4.726 -0.391,-1.651 -1.318,-3.135 -1.823,-4.758 -0.507,-1.621 -0.819,-3.298 -1.021,-4.98 -0.426,-3.528 -0.765,-7.357 0.053,-10.846 0.437,-1.854 0.895,-3.664 1.214,-5.546 0.305,-1.802 0.723,-3.511 1.313,-5.242 0.515,-1.514 0.281,-3.184 0.339,-4.77 0.065,-1.768 0.031,-3.65 -0.096,-5.414 -0.126,-1.739 -0.655,-3.367 -0.164,-5.1 0.124,-0.436 0.279,-0.862 0.414,-1.293 -6.686,0.283 -13.259,2.28 -19.912,3.244 -4.247,0.616 -8.491,1.37 -12.766,0.67 -4.372,-0.714 -8.783,-0.99 -13.111,-1.975 -4.303,-0.979 -8.486,-2.403 -12.774,-3.439 -4.222,-1.021 -8.881,-1.933 -13.239,-1.515 -4.383,0.419 -8.603,1.783 -13.021,2.049 -4.509,0.271 -9.108,-0.361 -13.592,-0.804 -4.35,-0.431 -8.417,-1.553 -12.544,-2.945 -4.132,-1.395 -8.245,-2.572 -12.65,-2.239 -2.136,0.163 -4.254,0.509 -6.394,0.625 0.141,-0.007 0.985,-0.982 1.158,-1.126 0.318,-0.263 0.88,-0.903 1.323,-0.926 0.287,-0.016 0.574,-0.036 0.859,-0.056 -0.234,-0.028 -0.467,-0.063 -0.7,-0.112 -1.298,-0.279 -2.891,-0.552 -3.747,-1.66 -0.753,-0.975 -1.622,-2.178 -1.902,-3.388 -0.359,-1.556 -0.419,-3.171 -0.786,-4.725 -0.391,-1.651 -1.318,-3.136 -1.823,-4.758 -0.507,-1.621 -0.818,-3.298 -1.02,-4.98 -0.427,-3.528 -0.766,-7.357 0.052,-10.846 0.437,-1.855 0.895,-3.664 1.214,-5.546 0.305,-1.803 0.723,-3.511 1.313,-5.242 0.515,-1.514 0.282,-3.185 0.339,-4.77 0.066,-1.768 0.031,-3.65 -0.096,-5.414 -0.126,-1.739 -0.655,-3.367 -0.164,-5.1 0.237,-0.832 0.586,-1.629 0.696,-2.494 0.116,-0.919 0.062,-1.864 0.013,-2.785 -0.2,-3.698 -0.251,-7.369 0.001,-11.062 0.132,-1.931 -0.128,-3.821 -0.267,-5.744 -0.136,-1.87 -0.215,-3.745 -0.214,-5.623 -0.001,-3.861 0.487,-7.619 1.096,-11.423 0.616,-3.854 1.217,-7.725 1.334,-11.632 0.113,-3.851 -0.507,-7.711 -0.311,-11.554l-0.001 0.002zm214.093 -28.575c0.095,0.046 0.192,0.092 0.287,0.137 0.083,0.017 0.166,0.035 0.249,0.051 -0.18,-0.062 -0.36,-0.125 -0.536,-0.188zm-128.098 -47.645c-0.052,-0.016 -0.105,-0.031 -0.16,-0.044 0.04,0.028 0.076,0.058 0.115,0.087 0.205,0.151 0.221,0.136 0.045,-0.043zm206.701 124.928c0.103,0.079 0.194,0.16 0.273,0.245 0.119,0.128 0.211,0.263 0.29,0.408 -0.077,-0.143 -0.171,-0.28 -0.29,-0.408 -0.079,-0.085 -0.17,-0.166 -0.273,-0.245 -0.098,-0.072 -0.197,-0.142 -0.297,-0.205 0.1,0.063 0.199,0.133 0.297,0.205zm0.839 1.417c-0.056,-0.217 -0.118,-0.424 -0.206,-0.62 0.088,0.196 0.15,0.403 0.206,0.62zm6.365 -0.664c0.4,0.209 0.791,0.431 1.176,0.667 -0.385,-0.236 -0.776,-0.456 -1.176,-0.667 -0.265,-0.14 -0.534,-0.273 -0.805,-0.403 0.271,0.13 0.54,0.263 0.805,0.403zm6.06 3.426c0.763,0.31 1.52,0.642 2.296,0.92 -0.774,-0.28 -1.533,-0.61 -2.296,-0.92 -0.326,-0.132 -0.652,-0.272 -0.978,-0.421 0.326,0.149 0.652,0.289 0.978,0.421zm4.817 1.568c-0.081,-0.032 -0.169,-0.056 -0.263,-0.074 0.094,0.02 0.183,0.044 0.263,0.074zm0.671 0.539c0.069,0.049 0.139,0.099 0.207,0.15 -0.07,-0.053 -0.138,-0.101 -0.207,-0.15 -0.067,-0.045 -0.135,-0.088 -0.203,-0.132 0.068,0.044 0.138,0.087 0.203,0.132zm1.675 1.199c-0.151,-0.077 -0.297,-0.166 -0.439,-0.263 0.143,0.096 0.288,0.186 0.439,0.263zm4.129 1.249c0.154,0.027 0.31,0.047 0.468,0.067 -0.156,-0.02 -0.314,-0.04 -0.468,-0.067 -0.678,-0.121 -1.403,-0.276 -2.111,-0.479 0.708,0.203 1.433,0.358 2.111,0.479zm1.284 0.195c0,0 0.005,0.002 0.012,0.004 0.017,0.007 0.049,0.017 0.091,0.031 -0.042,-0.014 -0.076,-0.024 -0.091,-0.031 -0.006,0 -0.009,-0.004 -0.012,-0.004 -0.113,-0.025 -0.228,-0.046 -0.345,-0.064 0.117,0.018 0.232,0.039 0.345,0.064zm0.25 0.081c0.054,0.017 0.112,0.034 0.166,0.052 0.037,0.01 0.07,0.021 0.102,0.029 -0.032,-0.009 -0.067,-0.019 -0.102,-0.029 -0.054,-0.017 -0.112,-0.035 -0.166,-0.052 -0.037,-0.012 -0.072,-0.022 -0.104,-0.032 0.032,0.01 0.067,0.022 0.104,0.032zm0.403 0.119c-0.011,-0.002 -0.028,-0.007 -0.051,-0.013 0.022,0.007 0.04,0.011 0.051,0.013zm7.231 1.957c-0.102,-0.045 -0.206,-0.087 -0.309,-0.128 0.103,0.041 0.207,0.083 0.309,0.128zm0.714 0.428c0.073,0.067 0.136,0.138 0.191,0.213 -0.055,-0.075 -0.118,-0.146 -0.191,-0.213 -0.164,-0.15 -0.357,-0.263 -0.561,-0.358 0.202,0.095 0.395,0.209 0.561,0.358zm1.156 1.798c-0.065,-0.099 -0.131,-0.198 -0.193,-0.295 0.062,0.099 0.126,0.197 0.193,0.295zm0.543 0.697c-0.079,-0.085 -0.155,-0.174 -0.23,-0.266 0.074,0.092 0.151,0.181 0.23,0.266zm4.795 2.255c0.053,0.029 0.11,0.057 0.169,0.084 -0.059,-0.027 -0.116,-0.055 -0.169,-0.084 -0.098,-0.053 -0.181,-0.119 -0.254,-0.195 0.072,0.074 0.154,0.142 0.254,0.195zm2.678 1.166c-0.122,-0.087 -0.245,-0.169 -0.371,-0.246 0.126,0.077 0.248,0.161 0.371,0.246zm3.93 2.565c0.308,0.12 0.618,0.231 0.928,0.346 -0.31,-0.113 -0.622,-0.226 -0.928,-0.346 -0.232,-0.089 -0.459,-0.183 -0.685,-0.284 0.226,0.101 0.455,0.193 0.685,0.284zm4.377 1.764c-0.984,-0.436 -1.976,-0.863 -2.984,-1.245 1.006,0.382 1.998,0.809 2.984,1.245zm4.295 2.008c0.088,0.016 0.176,0.032 0.265,0.045 0.177,0.027 0.357,0.047 0.535,0.061 -0.178,-0.014 -0.358,-0.034 -0.535,-0.061 -0.088,-0.015 -0.177,-0.029 -0.265,-0.045 -0.267,-0.051 -0.531,-0.117 -0.792,-0.202 0.259,0.085 0.525,0.151 0.792,0.202zm6.483 3.455c0.177,0.07 0.344,0.155 0.509,0.251 -0.163,-0.096 -0.332,-0.181 -0.509,-0.251 -0.237,-0.093 -0.487,-0.157 -0.759,-0.177 0.272,0.022 0.524,0.086 0.759,0.177zm8.402 5.936c0.497,0.279 1.007,0.525 1.536,0.725 0.651,0.245 1.281,0.447 1.89,0.723 -0.609,-0.276 -1.239,-0.478 -1.89,-0.723 -0.528,-0.2 -1.039,-0.446 -1.536,-0.725 -0.373,-0.21 -0.738,-0.437 -1.097,-0.677 0.359,0.24 0.724,0.467 1.097,0.677zm4.499 2.051c0.241,0.168 0.469,0.347 0.688,0.524 -0.221,-0.179 -0.447,-0.356 -0.688,-0.524 -0.117,-0.082 -0.233,-0.157 -0.353,-0.228 0.118,0.071 0.236,0.146 0.353,0.228zm9.011 5.422c0.083,-0.029 0.179,-0.079 0.275,-0.134 0.096,-0.055 0.19,-0.113 0.268,-0.165 0.04,-0.025 0.074,-0.047 0.103,-0.066 0.028,-0.02 0.051,-0.034 0.066,-0.042 -0.015,0.008 -0.038,0.022 -0.066,0.042 -0.029,0.019 -0.065,0.041 -0.103,0.066 -0.078,0.052 -0.172,0.11 -0.268,0.165 -0.096,0.055 -0.192,0.105 -0.275,0.134 -0.041,0.015 -0.079,0.024 -0.112,0.029 0.033,-0.003 0.07,-0.013 0.112,-0.029zm2.191 -1.359c-0.233,0.174 -0.476,0.341 -0.724,0.499 0.248,-0.158 0.491,-0.323 0.724,-0.499zm-46.64 -23.99c0.013,0.076 0.023,0.152 0.033,0.229 -0.008,-0.078 -0.02,-0.155 -0.033,-0.229zm0.035 0.95c0.009,-0.083 0.014,-0.166 0.017,-0.248 -0.003,0.081 -0.008,0.163 -0.017,0.248zm-1.706 -1.552c-0.211,-0.024 -0.448,-0.047 -0.719,-0.066 0.239,0.016 0.482,0.045 0.724,0.079 -0.001,-0.005 -0.003,-0.009 -0.005,-0.013l0 0zm-43.037 -16.356c-0.038,-0.063 -0.079,-0.125 -0.123,-0.188 -0.172,-0.062 -0.347,-0.123 -0.521,-0.186 0.173,0.062 0.349,0.124 0.521,0.186 0.044,0.061 0.085,0.125 0.123,0.188 0.038,0.062 0.074,0.126 0.105,0.19 -0.032,-0.064 -0.067,-0.128 -0.105,-0.19zm59.516 -9.335c0.095,0.045 0.192,0.091 0.287,0.136 0.083,0.018 0.166,0.036 0.249,0.051 -0.18,-0.061 -0.36,-0.124 -0.536,-0.187zm-128.098 -47.646c-0.053,-0.015 -0.105,-0.03 -0.16,-0.044 0.039,0.028 0.076,0.058 0.115,0.087 0.205,0.151 0.221,0.136 0.045,-0.043z"/>
    </g>
   </g>
   <g clip-path="url(#id2)">
    <path fill="none" d="M69.622 5.532c-9.32,-0.113 -15.317,-0.1 -21.532,-0.475 -6.215,-0.375 -12.649,-1.137 -18.001,-2.044 -5.351,-0.908 -9.62,-1.96 -13.89,-3.013l-2.056 6.766c-2.101,6.05 -3.233,10.386 -4.916,16.285 -0.249,0.873 -0.435,1.453 -0.642,2.333 -2.36,10.025 -4.55,19.989 -6.162,30.214 -0.554,3.516 -0.787,7.435 -1.226,10.942l-0.435 5.757c-0.045,1.83 -0.234,3.899 -0.37,5.626 -0.078,0.987 0.009,2.192 -0.003,3.205 -0.013,1.158 -0.208,1.511 -0.203,2.794 0.009,2.038 0.069,4.202 0.011,6.226 -0.028,1.013 -0.181,1.575 -0.197,2.723l0.192 9.099c-0.03,8.303 0.172,15.985 0.183,24.267 0.002,1.267 0.207,1.666 0.202,2.996 -0.004,0.925 -0.065,2.104 0.005,3.001 0.131,1.645 0.218,4.048 0.519,5.469 1.056,4.985 5.703,6.849 10.073,7.859 3.312,0.766 6.714,1.111 10.138,1.576 4.01,0.545 19.376,0.399 23.493,-0.086 6.45,-0.761 15.507,-0.276 22.162,-1.971 7.272,-1.853 6.398,-2.822 7.435,-7.425 0.87,-3.869 2.219,-13.998 3.169,-16.919 0.807,-2.484 1.721,-7.868 2.195,-10.524 0.344,-1.99 1.133,-3.678 1.718,-5.612 1.344,-4.441 1.694,-7.626 2.92,-12.169 0.377,-1.398 0.722,-2.38 1.102,-3.854 0.997,-3.864 2.19,-8.249 2.968,-12.117 0.575,-2.856 1.095,-5.36 1.653,-8.289l2.191 -12.734c0.189,-0.998 0.23,-2.248 1.182,-2.596 0,-15.663 0,-31.326 0,-46.989 -8.306,-0.086 -16.998,-0.238 -23.878,-0.321z"/>
    <g>
    </g>
   </g>
   <g clip-path="url(#id3)">
   </g>
   <g clip-path="url(#id4)">
    <path id="perna-direita" fill="none" d="M128.291 5.496c-7.321,0.274 -15.692,0.449 -26.199,0.418 -2.75,-0.008 -5.647,-0.031 -8.592,-0.061 0,15.663 0,31.326 0,46.989 0.952,0.348 0.993,1.598 1.182,2.596l2.191 12.734c0.558,2.929 1.077,5.433 1.652,8.289 0.779,3.868 1.972,8.253 2.968,12.117 0.38,1.474 0.725,2.456 1.103,3.854 1.226,4.543 1.576,7.728 2.919,12.169 0.585,1.934 1.375,3.622 1.719,5.612 0.473,2.654 1.389,8.042 2.195,10.524 0.949,2.921 2.299,13.05 3.169,16.919 1.037,4.603 0.163,5.572 7.434,7.425 6.656,1.695 15.712,1.21 22.163,1.971 4.117,0.485 19.483,0.631 23.492,0.086 3.425,-0.465 6.827,-0.81 10.138,-1.576 4.371,-1.01 9.018,-2.874 10.074,-7.859 0.301,-1.421 0.388,-3.824 0.519,-5.469 0.07,-0.897 0.009,-2.076 0.005,-3.001 -0.005,-1.33 0.2,-1.729 0.202,-2.996 0.011,-8.282 0.213,-15.964 0.183,-24.267l0.191 -8.764 -0.196 -3.058c-0.058,-2.024 0.002,-4.188 0.011,-6.226 0.004,-1.283 -0.19,-1.636 -0.204,-2.794 -0.011,-1.013 0.076,-2.218 -0.002,-3.205 -0.136,-1.727 -0.325,-3.796 -0.37,-5.626l-0.436 -5.757c-0.439,-3.507 -0.671,-7.426 -1.225,-10.942 -1.612,-10.225 -3.802,-20.189 -6.162,-30.214 -0.207,-0.88 -0.394,-1.46 -0.643,-2.333 -1.682,-5.899 -2.814,-10.235 -4.915,-16.285l-2.057 -6.766c-2.951,0.866 -5.902,1.731 -9.677,2.477 -3.774,0.745 -8.371,1.369 -13.806,1.869 -5.434,0.5 -11.706,0.875 -19.026,1.15z"/>
   </g>
  </g>
  <path fill="none" d="M69.622 5.532c-9.32,-0.113 -15.317,-0.1 -21.532,-0.475 -6.215,-0.375 -12.649,-1.137 -18.001,-2.044 -5.351,-0.908 -9.62,-1.96 -13.89,-3.013l-2.056 6.766c-2.101,6.05 -3.233,10.386 -4.916,16.285 -0.249,0.873 -0.435,1.453 -0.642,2.333 -2.36,10.025 -4.55,19.989 -6.162,30.214 -0.554,3.516 -0.787,7.435 -1.226,10.942l-0.435 5.757c-0.045,1.83 -0.234,3.899 -0.37,5.626 -0.078,0.987 0.009,2.192 -0.003,3.205 -0.013,1.158 -0.208,1.511 -0.203,2.794 0.009,2.038 0.069,4.202 0.011,6.226 -0.028,1.013 -0.181,1.575 -0.197,2.723l0.192 9.099c-0.03,8.303 0.172,15.985 0.183,24.267 0.002,1.267 0.207,1.666 0.202,2.996 -0.004,0.925 -0.065,2.104 0.005,3.001 0.131,1.645 0.218,4.048 0.519,5.469 1.056,4.985 5.703,6.849 10.073,7.859 3.312,0.766 6.714,1.111 10.138,1.576 4.01,0.545 19.376,0.399 23.493,-0.086 6.45,-0.761 15.507,-0.276 22.162,-1.971 7.272,-1.853 6.398,-2.822 7.435,-7.425 0.87,-3.869 2.219,-13.998 3.169,-16.919 0.807,-2.484 1.721,-7.868 2.195,-10.524 0.344,-1.99 1.133,-3.678 1.718,-5.612 1.344,-4.441 1.694,-7.626 2.92,-12.169 0.377,-1.398 0.722,-2.38 1.102,-3.854 0.997,-3.864 2.19,-8.249 2.968,-12.117 0.575,-2.856 1.095,-5.36 1.653,-8.289l2.191 -12.734c0.189,-0.998 0.23,-2.248 1.182,-2.596 0.952,0.348 0.993,1.598 1.182,2.596l2.191 12.734c0.558,2.929 1.077,5.433 1.652,8.289 0.779,3.868 1.972,8.253 2.968,12.117 0.38,1.474 0.725,2.456 1.103,3.854 1.226,4.543 1.576,7.728 2.919,12.169 0.585,1.934 1.375,3.622 1.719,5.612 0.473,2.654 1.389,8.042 2.195,10.524 0.949,2.921 2.299,13.05 3.169,16.919 1.037,4.603 0.163,5.572 7.434,7.425 6.656,1.695 15.712,1.21 22.163,1.971 4.117,0.485 19.483,0.631 23.492,0.086 3.425,-0.465 6.827,-0.81 10.138,-1.576 4.371,-1.01 9.018,-2.874 10.074,-7.859 0.301,-1.421 0.388,-3.824 0.519,-5.469 0.07,-0.897 0.009,-2.076 0.005,-3.001 -0.005,-1.33 0.2,-1.729 0.202,-2.996 0.011,-8.282 0.213,-15.964 0.183,-24.267l0.191 -8.764 -0.196 -3.058c-0.058,-2.024 0.002,-4.188 0.011,-6.226 0.004,-1.283 -0.19,-1.636 -0.204,-2.794 -0.011,-1.013 0.076,-2.218 -0.002,-3.205 -0.136,-1.727 -0.325,-3.796 -0.37,-5.626l-0.436 -5.757c-0.439,-3.507 -0.671,-7.426 -1.225,-10.942 -1.612,-10.225 -3.802,-20.189 -6.162,-30.214 -0.207,-0.88 -0.394,-1.46 -0.643,-2.333 -1.682,-5.899 -2.814,-10.235 -4.915,-16.285l-2.057 -6.766c-2.951,0.866 -5.902,1.731 -9.677,2.477 -3.774,0.745 -8.371,1.369 -13.806,1.869 -5.434,0.5 -11.706,0.875 -19.026,1.15 -7.321,0.274 -15.692,0.449 -26.199,0.418 -10.507,-0.031 -23.15,-0.269 -32.47,-0.382z"/>
 </g>
</svg>
