<?xml version="1.0" encoding="UTF-8"?>
<!DOCTYPE svg PUBLIC "-//W3C//DTD SVG 1.1//EN" "http://www.w3.org/Graphics/SVG/1.1/DTD/svg11.dtd">
<!-- Creator: CorelDRAW 2018 (64 Bit Versão de avaliação) -->
<svg xmlns="http://www.w3.org/2000/svg" xml:space="preserve" width="181px" height="149px" version="1.1" shape-rendering="geometricPrecision" text-rendering="geometricPrecision" image-rendering="optimizeQuality" fill-rule="evenodd" clip-rule="evenodd"
viewBox="0 0 195683 161298"
 xmlns:xlink="http://www.w3.org/1999/xlink">
 <g id="Camada_x0020_1">
  <metadata id="CorelCorpID_0Corel-Layer"/>
  <path id="d1" fill="#F00808" d="M190186 53920c-196,-148 -395,-285 -590,-421 232,1330 458,2632 685,3948 -52,72 -108,159 -165,217 341,2135 681,4269 982,6374 -88,-59 -189,-118 -294,-192 223,1608 452,3230 641,4823 242,1959 450,3917 647,5889 -139,-103 -278,-207 -422,-325 -172,-1695 -349,-3391 -566,-5115 -214,-1856 -468,-3712 -733,-5584 -100,-59 -189,-133 -295,-222 -218,-1520 -453,-3041 -699,-4591 -63,87 -109,160 -176,232 -352,-2164 -737,-4314 -1122,-6493 -216,-148 -433,-297 -650,-445 465,2531 902,5060 1317,7575 -57,87 -114,160 -171,247 141,906 294,1813 429,2719 -100,-60 -194,-133 -288,-208 394,2836 766,5672 1110,8493 87,745 157,1490 239,2221 -144,-104 -283,-207 -428,-311 -51,-482 -101,-965 -152,-1461 -369,-3084 -772,-6168 -1214,-9267 -100,-60 -200,-120 -294,-193 -47,-322 -100,-629 -146,-951 -57,73 -114,159 -171,246 -534,-3391 -1129,-6770 -1759,-10163 -111,-59 -216,-133 -322,-208 -74,116 -148,218 -222,319 624,3378 1219,6757 1759,10149 -84,-60 -150,-104 -234,-163 47,307 105,628 152,950 -74,101 -147,203 -210,304 431,3085 834,6169 1197,9252 56,497 107,965 152,1447 -113,159 -227,304 -352,449 -65,-731 -141,-1476 -222,-2207 -344,-2821 -710,-5656 -1110,-8492 -74,87 -143,188 -216,289 -131,-891 -272,-1812 -418,-2704 -84,-59 -156,-104 -228,-163 -403,-2544 -846,-5074 -1305,-7605 -148,233 -296,450 -444,653 385,2179 764,4328 1104,6492 -72,-44 -150,-104 -227,-163 252,1536 481,3085 705,4605 -80,117 -148,218 -221,304 270,1872 496,3728 722,5599 205,1709 377,3405 543,5114 -109,159 -222,304 -336,449 -202,-1958 -399,-3916 -635,-5889 -201,-1593 -401,-3201 -619,-4824 -79,102 -148,203 -232,290 -290,-2120 -614,-4240 -949,-6374 -84,-45 -156,-104 -233,-164 -216,-1301 -448,-2617 -680,-3919 -142,218 -296,435 -449,652 168,951 337,1902 489,2837 -78,-59 -150,-103 -222,-163 435,2764 841,5512 1231,8261 -63,101 -142,188 -216,289 88,643 165,1301 248,1944 348,2923 652,5860 916,8782 -119,159 -238,304 -357,449 -290,-3171 -608,-6356 -987,-9542 -46,-395 -98,-775 -150,-1170 -79,102 -142,189 -227,290 -456,-3348 -957,-6681 -1502,-10029 -72,-60 -156,-104 -228,-163 -55,-45 -111,-74 -167,-119 -161,-104 -316,-222 -483,-341 47,293 100,570 148,834 -51,87 -103,159 -171,231 508,3173 994,6331 1424,9488 -94,-59 -189,-118 -283,-207 67,585 139,1154 205,1725 354,2996 662,5991 932,9001 -139,-104 -272,-208 -422,-326 -245,-2732 -522,-5479 -851,-8227 -97,-818 -200,-1651 -303,-2484 -100,-60 -194,-134 -294,-208 -358,-2558 -738,-5146 -1147,-7719 -57,87 -108,159 -165,246 -178,-1125 -378,-2252 -579,-3378 -211,-162 -433,-311 -644,-459 269,1492 521,2998 757,4475 -46,87 -114,159 -165,246 315,1930 596,3874 865,5818 -88,-59 -189,-133 -283,-207 244,1798 464,3596 674,5393 199,1783 381,3551 552,5334 -144,-104 -278,-208 -422,-311 -151,-1520 -302,-3054 -465,-4574 -252,-2046 -498,-4092 -778,-6139 -94,-59 -194,-133 -294,-222 -187,-1345 -379,-2704 -594,-4049 -62,72 -108,159 -165,231 -377,-2339 -771,-4679 -1188,-7033 -211,-148 -427,-297 -644,-445 485,2720 931,5425 1366,8130 -57,72 -114,159 -165,232 110,730 208,1462 312,2178 -89,-59 -189,-133 -283,-222 420,3026 785,6037 1127,9047 55,570 111,1125 161,1680 -134,-104 -278,-207 -417,-311 -100,-59 -188,-148 -283,-222 -72,-44 -150,-89 -222,-163 -823,-7132 -1881,-14266 -3113,-21402 -683,-3554 -1428,-7109 -2212,-10679 0,0 0,0 0,0 -2413,-9689 -5015,-19461 -8549,-29052 -1418,-3851 -2998,-7683 -4698,-11504 1433,-293 2855,-566 4034,-769 2045,-351 3355,-489 4608,-579 1252,-90 2447,-134 3406,-126 959,8 1683,68 2111,102 429,33 561,40 660,46 53,3 98,5 137,7 -12,10 -26,19 -39,28 -121,81 -270,185 -367,332 -96,148 -139,341 -9,765 130,423 434,1078 1423,3457 988,2380 2660,6485 4398,11100 1737,4616 3540,9742 4995,14759 1455,5017 2563,9926 3682,15106 575,2666 1154,5404 1707,8217zm-171179 -47309c-626,-41 -1226,-84 -1790,-126 -3415,-255 -5497,-512 -7010,-814 -1514,-303 -2460,-651 -3406,-999 42,61 20,179 -26,595 -59,524 -156,1520 -428,3353 -271,1833 -717,4502 -1007,6455 -291,1954 -426,3192 -752,5230 -326,2040 -842,4880 -1257,7383 -415,2503 -731,4669 -980,6496 -250,1828 -435,3315 -606,5042 -171,1727 -328,3692 -499,6071 -171,2378 -356,5169 -541,8286 -184,3117 -369,6559 -504,10230 -136,3671 -223,7569 -196,11560 22,3198 117,6456 296,9667 76,-70 150,-148 226,-227 11,-1548 30,-3097 54,-4660 67,70 131,141 201,196 31,-2191 78,-4383 126,-6590 185,-183 375,-365 564,-548 -57,2573 -110,5145 -144,7702 64,70 130,140 197,211 -11,920 -27,1841 -32,2761 85,-76 170,-167 258,-258 -22,2878 -37,5755 -42,8617 6,760 11,1504 16,2249 127,-122 254,-244 384,-380 -1,-482 -3,-978 -9,-1475 2,-3125 14,-6250 39,-9391 88,-76 176,-153 261,-244 5,-321 9,-642 14,-964 63,71 130,141 197,211 48,-3433 116,-6867 199,-10317 96,-77 187,-168 285,-259 89,99 180,197 272,282 -82,3434 -153,6869 -200,10303 69,-62 134,-122 205,-198 -4,321 -9,643 -13,964 85,99 173,183 254,268 -25,3140 -37,6266 -36,9391 0,496 1,978 6,1460 130,141 257,268 391,394 -9,-745 -10,-1489 -15,-2234 5,-2862 13,-5740 38,-8617 84,84 169,168 253,253 9,-906 18,-1826 37,-2747 69,-61 137,-122 202,-197 37,-2572 87,-5144 144,-7717 183,198 363,396 546,578 -47,2207 -94,4399 -122,6591 65,-61 134,-122 202,-197 -24,1563 -42,3126 -57,4675 88,98 169,183 257,267 -18,1899 -24,3783 -26,5667 3,1738 11,3460 23,5183 128,141 258,268 388,394 -12,-1985 -24,-3971 -23,-5957 6,-1621 11,-3257 19,-4892 88,84 169,168 257,252 15,-2147 41,-4309 73,-6472 68,-61 137,-121 205,-197 20,-1330 47,-2660 77,-3990 180,198 361,395 543,578 -20,964 -40,1929 -55,2879 69,-61 138,-122 203,-198 -42,2806 -73,5596 -95,8386 82,85 166,169 254,253 -2,657 -7,1315 -6,1972 -4,2964 12,5928 44,8891 128,142 258,268 391,394 -32,-3211 -51,-6438 -46,-9665 -2,-395 0,-789 1,-1183 88,84 169,168 257,253 22,-3389 65,-6779 117,-10183 68,-61 137,-122 205,-198 46,-45 95,-91 144,-136 140,-137 281,-274 424,-411 -2,292 -12,570 -18,847 64,71 131,142 197,197 -49,3215 -88,6429 -107,9628 81,-76 170,-153 255,-244 2,585 -3,1169 -1,1738 -6,3038 13,6074 42,9111 127,-122 251,-244 381,-380 -22,-2774 -41,-5547 -36,-8337 -1,-832 0,-1665 5,-2512 85,-76 173,-167 258,-258 21,-2600 50,-5215 88,-7830 67,70 131,141 201,211 14,-1140 41,-2280 64,-3434 186,-183 379,-366 568,-548 -33,1520 -66,3040 -86,4545 64,70 131,141 198,211 -29,1973 -52,3945 -64,5917 82,-76 170,-167 254,-258 -14,1826 -15,3651 -17,5462 2,1811 10,3607 25,5402 127,-121 255,-243 385,-380 -8,-1533 -20,-3080 -22,-4628 1,-2073 6,-4147 21,-6221 85,-77 173,-168 261,-259 8,-1373 23,-2746 45,-4119 67,70 130,141 197,211 38,-2382 82,-4764 132,-7146 186,-182 375,-365 568,-547 -60,2762 -110,5509 -150,8256 64,70 131,141 198,211 -12,746 -18,1476 -23,2206 84,-76 169,-167 257,-258 -28,3068 -32,6120 -30,9172 1,569 6,1139 11,1693 127,-121 254,-243 384,-380 82,-75 167,-166 255,-257 65,-61 134,-122 202,-198 0,-7228 80,-14475 228,-21723 95,-3611 209,-7237 344,-10864 0,0 0,0 0,0 459,-9889 979,-19806 1854,-29700 729,-8236 1731,-16486 2850,-24739zm-10459 59611c43,57 89,99 134,141 -49,45 -98,91 -143,137 3,-88 6,-176 9,-278zm170732 -19988c-34,58 -73,116 -108,159 50,30 112,74 161,119 -16,-88 -37,-176 -53,-278z"/>
  <path id="calcao_contorno" fill="none" d="M86877 155540c57,-276 111,-684 198,-2144 87,-1461 207,-3975 494,-8922 288,-4947 745,-12326 1108,-17715 364,-5390 636,-8789 989,-12546 352,-3758 787,-7874 1330,-12163 543,-4290 1195,-8753 2031,-13825 836,-5071 1857,-10751 2633,-14471 777,-3719 1309,-5479 1650,-6590 342,-1112 492,-1576 610,-1830 117,-254 201,-298 281,-290 81,7 157,66 254,174 98,108 218,265 372,597 155,332 345,838 651,1525 306,687 729,1555 1092,2405 363,850 667,1684 796,2326 129,642 83,1093 121,1599 38,506 160,1068 480,1542 321,474 839,860 1138,1371 299,512 377,1150 573,2055 195,906 507,2079 615,2964 107,885 9,1482 -93,2046 -101,563 -207,1093 -96,1623 111,531 440,1063 824,1557 384,495 824,951 1094,1251 270,300 371,443 467,579 96,136 189,264 334,838 145,574 343,1595 418,2303 75,709 26,1106 -3,1500 -28,396 -36,789 -69,1290 -32,501 -89,1109 -81,1667 8,558 81,1066 438,1819 357,754 998,1753 1605,2560 607,808 1179,1425 1564,1812 385,388 582,546 759,828 177,282 335,686 465,1203 130,518 234,1148 289,1878 56,730 64,1561 52,2483 -12,922 -45,1934 143,2856 187,922 594,1752 1048,2454 453,702 952,1275 1323,1739 371,465 613,820 815,1171 203,350 365,695 528,1099 163,405 326,869 450,1408 123,539 207,1153 323,1709 115,557 262,1056 357,1618 95,562 138,1187 304,2099 166,912 453,2112 646,3116 193,1005 291,1814 396,2531 106,717 220,1341 310,2175 89,833 155,1876 280,2641 124,766 309,1255 442,1990 133,736 214,1719 285,2297 71,579 130,752 274,907 144,155 372,290 679,442 307,153 692,321 1086,576 394,255 796,597 1257,990 462,392 983,834 1546,1188 564,352 1169,616 1745,818 575,202 1121,343 1722,497 602,153 1259,319 2147,474 887,154 2006,298 2867,397 860,100 1463,154 2700,174 1236,21 3107,7 4534,-32 1426,-40 2409,-105 3661,-214 1252,-108 2772,-260 4550,-449 1779,-188 3815,-414 5523,-572 1707,-159 3087,-252 4504,-330 1417,-79 2872,-144 4136,-180 1264,-35 2336,-40 4548,-77 2211,-37 5561,-105 7790,-171 2229,-67 3337,-132 4993,-333 1657,-201 3861,-537 5223,-773 1362,-237 1881,-373 2235,-519 354,-146 543,-303 694,-404 152,-102 266,-148 573,-258 306,-110 806,-284 1386,-483 579,-200 1239,-425 1759,-648 520,-222 900,-442 1145,-582 246,-140 358,-200 538,-211 181,-10 430,28 638,-23 208,-50 374,-188 595,-396 221,-208 498,-485 609,-911 111,-426 57,-1002 63,-2454 5,-1453 70,-3782 49,-6375 -22,-2593 -131,-5449 -185,-7192 -54,-1743 -54,-2373 -54,-3263 0,-891 0,-2042 -27,-3120 -28,-1078 -82,-2082 -106,-3122 -25,-1040 -19,-2115 -87,-3817 -68,-1703 -209,-4032 -285,-5916 -76,-1884 -87,-3324 -220,-7152 -133,-3828 -388,-10045 -885,-16183 -497,-6139 -1236,-12199 -2170,-17954 -933,-5756 -2063,-11208 -3181,-16388 -1119,-5180 -2227,-10089 -3682,-15106 -1455,-5017 -3258,-10143 -4995,-14759 -1738,-4615 -3410,-8720 -4398,-11100 -989,-2379 -1293,-3034 -1423,-3457 -130,-424 -87,-617 9,-765 97,-147 246,-251 367,-332 13,-9 27,-18 39,-28 -39,-2 -84,-4 -137,-7 -99,-6 -231,-13 -660,-46 -428,-34 -1152,-94 -2111,-102 -959,-8 -2154,36 -3406,126 -1253,90 -2563,228 -4608,579 -2046,351 -4826,916 -7121,1427 -2295,510 -4105,966 -6479,1437 -2375,470 -5315,955 -8265,1350 -2950,394 -5912,698 -9495,1024 -3584,326 -7790,674 -11305,920 -3515,246 -6339,391 -8920,532 -2581,141 -4920,278 -7577,384 -2657,105 -5632,177 -8586,238 -2954,62 -5886,113 -8681,106 -2794,-8 -5451,-73 -7942,-131 -2491,-58 -4815,-108 -7331,-184 -2515,-77 -5223,-178 -8546,-272 -3323,-94 -7262,-181 -11436,-206 -4174,-26 -8583,11 -12232,7 -3649,-4 -6538,-47 -10357,-196 -3819,-148 -8568,-401 -11984,-657 -3415,-255 -5497,-512 -7010,-814 -1514,-303 -2460,-651 -3406,-999 42,61 20,179 -26,595 -59,524 -156,1520 -428,3353 -271,1833 -717,4502 -1007,6455 -291,1954 -426,3192 -752,5230 -326,2040 -842,4880 -1257,7383 -415,2503 -731,4669 -980,6496 -250,1828 -435,3315 -606,5042 -171,1727 -328,3692 -499,6071 -171,2378 -356,5169 -541,8286 -184,3117 -369,6559 -504,10230 -136,3671 -223,7569 -196,11560 27,3991 169,8074 446,12044 277,3969 689,7824 961,11289 271,3464 401,6537 461,9936 60,3399 49,7124 87,11398 38,4273 125,9095 212,13118 87,4024 173,7249 254,9470 80,2221 153,3437 183,4165 30,728 16,967 26,2123 9,1157 42,3231 74,4711 33,1479 66,2364 131,2891 65,527 163,695 459,1005 296,309 790,760 2506,1121 1715,361 4653,632 7455,874 2802,242 5468,453 9991,695 4523,242 10904,513 15617,717 4713,203 7759,339 10431,363 2671,25 4968,-62 7289,-135 2322,-74 4668,-133 6905,-207 2237,-73 4366,-160 7366,-537 3000,-377 6871,-1046 9290,-1540 2419,-494 3386,-814 4236,-1246 849,-431 1582,-974 1979,-1319 396,-345 456,-492 513,-769z"/>
 </g>
</svg>
