<?xml version="1.0" encoding="UTF-8"?>
<!DOCTYPE svg PUBLIC "-//W3C//DTD SVG 1.1//EN" "http://www.w3.org/Graphics/SVG/1.1/DTD/svg11.dtd">
<!-- Creator: CorelDRAW 2018 (64 Bit Versão de avaliação) -->
<svg xmlns="http://www.w3.org/2000/svg" xml:space="preserve" width="240px" height="296px" version="1.1" shape-rendering="geometricPrecision" text-rendering="geometricPrecision" image-rendering="optimizeQuality" fill-rule="evenodd" clip-rule="evenodd"
viewBox="0 0 232252 286742"
 xmlns:xlink="http://www.w3.org/1999/xlink">
 <defs>
   <linearGradient id="id0" gradientUnits="userSpaceOnUse" x1="122124" y1="253967" x2="122126" y2="273789">
    <stop offset="0" stop-opacity="0.298039" stop-color="#F00808"/>
    <stop offset="1" stop-opacity="0.298039" stop-color="#F00808"/>
   </linearGradient>
 </defs>
 <g id="Camada_x0020_1">
  <metadata id="CorelCorpID_0Corel-Layer"/>
  <path id="desenho4" fill="url(#id0)" d="M115392 257135l-498 498 6662 0 180 180 2721 0 180 -180 6662 0 -498 -498 -5665 0 180 -180 -4439 0 180 180 -5665 0zm78785 -181043l127 -498 -5783 0 -180 -180 -2721 0 -180 180 -6662 0 498 498 5665 0 -180 180 4438 0 -180 -180 5158 0zm414 -1665l118 -498 -7604 0 180 -180 -610 0 181 180 -9494 0 -125 124 373 374 8997 0 -180 180 1107 0 -180 -180 7237 0zm383 -1665l81 -377 -122 -122 -6163 0 181 -180 -3941 0 180 180 -6163 0 -498 499 7159 0 181 180 2223 0 180 -180 6702 0zm1492 -8327l48 -335 -164 -164 -8996 0 180 -180 -1108 0 181 180 -8996 0 -374 374 124 125 9495 0 -180 180 609 0 -180 -180 9361 0zm3326 -24483l40 -180 -4766 0 -180 180 4906 0zm224 -987c70,-295 140,-581 211,-858l-3496 0 -180 180 -3331 0 498 498 2335 0 -180 180 4143 0zm424 -1665c80,-295 161,-580 242,-859l-2285 0 -181 180 -6662 0 499 499 5665 0 -180 180 2902 0zm542 -1846c52,-168 105,-334 159,-498l-1259 0 180 -180 -610 0 180 180 -9493 0 -125 125 373 373 8997 0 -181 180 1108 0 -180 -180 851 0zm548 -1665l84 -245 88 -254 -155 0 180 -180 -3940 0 180 180 -6163 0 -498 499 7159 0 180 180 2224 0 180 -180 481 0zm520 -1485c103,-288 206,-574 310,-859l-6239 0 181 180 -2833 0 -498 498 3829 0 180 181 5070 0zm607 -1666c107,-287 214,-573 321,-858l-7663 0 -180 180 -499 0 249 249 -249 249 498 0 181 180 7342 0zm627 -1665l30 -79 -102 -101 141 0 191 -499 -830 0 -180 -180 -5554 0 -180 180 -3829 0 498 499 2833 0 -180 180 7162 0zm711 -1846l14 -35c-31,-77 -42,-154 -48,-207 -9,-75 -9,-106 -67,-170 -19,-20 -45,-44 -108,-86l-2737 0 -180 -180 -2223 0 -181 180 -7160 0 499 498 6163 0 -180 180 3940 0 -180 -180 2448 0zm-2531 -1665l-1033 -498 -300 0 98 -98 -169 -83 -857 0 180 181 -8995 0 -374 373 124 125 9495 0 -181 180 610 0 -180 -180 1582 0zm-3042 -1485l-52 -26 26 26 26 0zm-359 -181l-573 -290 -404 -208 -5033 0 -498 498 6508 0zm-3201 -1665c-322,-169 -639,-336 -951,-498l-193 0 -498 498 1642 0zm4895 3206l125 125 -249 0 124 -125zm125 9619l-125 125 -125 -125 250 0zm-20606 27315l-498 498 6661 0 181 180 2721 0 180 -180 6662 0 -499 -498 -5665 0 181 -180 -4439 0 180 180 -5665 0zm12396 16474l-9383 0 -180 180 9743 0 -180 -180zm-9383 -19126l9383 0 180 -181 -9743 0 180 181zm4691 4691l125 125 -249 0 124 -125zm6538 12949l-3332 0 -180 -180 -6052 0 -180 180 -3331 0 498 499 2335 0 -180 180 7769 0 -180 -180 2334 0 499 -499zm-6413 -3330l-125 124 -124 -124 249 0zm6163 -3331l-2832 0 180 -180 -7271 0 180 180 -2832 0 -499 498 3829 0 180 180 5554 0 181 -180 3828 0 -498 -498zm-1167 -1167l-249 -249 249 -250 -498 0 -180 -180 -8885 0 -180 180 -499 0 250 250 -249 249 498 0 180 180 8885 0 180 -180 498 0zm1666 -2164l-3830 0 -180 -180 -5554 0 -180 180 -3829 0 498 498 2833 0 -180 180 7271 0 -180 -180 2832 0 499 -498zm1665 -1665l-7160 0 -180 -180 -2223 0 -180 180 -7160 0 498 498 6163 0 -180 180 3940 0 -180 -180 6164 0 498 -498zm-5245 -4498l3330 0 -498 -498 -2334 0 180 -181 -7769 0 180 181 -2334 0 -499 498 3331 0 180 180 6052 0 181 -180zm-23688 40140l-498 498 6662 0 180 180 2721 0 180 -180 6662 0 -498 -498 -5665 0 180 -180 -4439 0 180 180 -5665 0zm12396 16473l-9383 0 -180 181 9743 0 -180 -181zm-9383 -19126l9383 0 180 -180 -9743 0 180 180zm4816 4816l9494 0 125 -124 -374 -374 -8996 0 180 -180 -1107 0 180 180 -8996 0 -374 374 125 124 9494 0 -180 180 609 0 -180 -180zm-125 -124l125 124 -249 0 124 -124zm6538 12949l-3331 0 -181 -180 -6051 0 -180 180 -3332 0 499 498 2334 0 -180 181 7769 0 -180 -181 2335 0 498 -498zm1665 -1665l-6662 0 -180 -180 -2721 0 -180 180 -6662 0 498 498 5666 0 -180 180 4438 0 -181 -180 5666 0 498 -498zm1416 -1666l-9494 0 180 -180 -609 0 180 180 -9494 0 -125 125 374 374 8996 0 -180 180 1107 0 -180 -180 8996 0 374 -374 -125 -125zm-9494 0l-125 125 -124 -125 249 0zm7829 -1665l-6163 0 180 -180 -3941 0 180 180 -6163 0 -498 498 7160 0 180 180 2223 0 180 -180 7160 0 -498 -498zm-1666 -1665l-2832 0 180 -181 -7271 0 180 181 -2832 0 -499 498 3829 0 180 180 5555 0 180 -180 3829 0 -499 -498zm-1167 -1168l-249 -249 249 -249 -498 0 -180 -180 -8885 0 -180 180 -498 0 249 249 -249 249 498 0 180 181 8885 0 180 -181 498 0zm1666 -2163l-3829 0 -181 -180 -5553 0 -180 180 -3830 0 498 498 2833 0 -180 180 7271 0 -180 -180 2833 0 498 -498zm1665 -1666l-7160 0 -180 -180 -2223 0 -180 180 -7160 0 498 499 6164 0 -180 180 3940 0 -181 -180 6164 0 498 -499zm-5245 -4497l3331 0 -499 -499 -2334 0 180 -180 -7769 0 180 180 -2334 0 -499 499 3331 0 180 180 6053 0 180 -180zm-23687 40139l-499 499 6662 0 180 180 2722 0 180 -180 6661 0 -498 -499 -5665 0 180 -180 -4439 0 181 180 -5665 0zm12395 16474l-9383 0 -180 180 9743 1 -180 -181zm-9383 -19126l9383 0 180 -180 -9743 0 180 180zm4816 4816l9495 0 124 -125 -374 -373 -8995 0 180 -180 -1108 0 180 180 -8996 0 -374 373 125 125 9494 0 -180 180 609 0 -180 -180zm-124 -125l124 125 -249 0 125 -125zm6537 12950l-3331 0 -180 -180 -6052 0 -180 180 -3332 0 499 498 2334 0 -180 180 7769 0 -180 -180 2335 0 498 -498zm1665 -1665l-6662 0 -180 -181 -2721 0 -180 181 -6662 0 498 498 5666 0 -180 180 4438 0 -180 -180 5665 0 498 -498zm1416 -1666l-9493 0 180 -180 -610 0 180 180 -9494 0 -125 125 374 373 8996 0 -180 181 1107 0 -180 -181 8997 0 373 -373 -125 -125zm-9493 0l-125 125 -125 -125 250 0zm7828 -1665l-6163 0 180 -180 -3941 0 181 180 -6163 0 -499 498 7160 0 180 180 2224 0 180 -180 7159 0 -498 -498zm-1665 -1666l-2833 0 180 -180 -7271 0 180 180 -2832 0 -498 499 3829 0 180 180 5554 0 180 -180 3829 0 -498 -499zm-1168 -1167l-249 -249 250 -249 -499 0 -180 -180 -8885 0 -180 180 -498 0 249 249 -249 249 498 0 180 180 8885 0 180 -180 498 0zm1666 -2163l-3829 0 -180 -181 -5554 0 -180 181 -3830 0 499 498 2832 0 -180 180 7271 0 -180 -180 2833 0 498 -498zm1665 -1666l-7160 0 -180 -180 -2223 0 -180 180 -7160 0 498 498 6164 0 -180 181 3940 0 -180 -181 6163 0 498 -498zm-5245 -4498l3331 0 -498 -498 -2335 0 180 -180 -7769 0 180 180 -2334 0 -498 498 3330 0 181 180 6052 0 180 -180zm-23687 40140l-498 498 6661 0 180 181 2722 0 180 -181 6661 0 -498 -498 -5665 0 180 -180 -4438 0 180 180 -5665 0zm12395 16474l-9382 0 -180 180 9743 0 -181 -180zm-9383 -19126l9384 0 180 -180 -9744 0 180 180zm4817 4816l9494 0 124 -125 -373 -373 -8996 0 180 -181 -1108 0 180 181 -8996 0 -373 373 124 125 9494 0 -180 180 610 0 -180 -180zm-125 -125l125 125 -250 0 125 -125zm6537 12950l-3331 0 -180 -180 -6052 0 -180 180 -3331 0 498 498 2335 0 -180 180 7768 0 -180 -180 2335 0 498 -498zm1666 -1666l-6662 0 -180 -180 -2722 0 -180 180 -6662 0 499 499 5665 0 -180 180 4438 0 -180 -180 5665 0 499 -499zm1416 -1665l-9494 0 180 -180 -610 0 180 180 -9494 0 -124 124 373 374 8996 0 -180 180 1108 0 -180 -180 8996 0 373 -374 -124 -124zm-9494 0l-125 124 -125 -124 250 0zm7828 -1666l-6163 0 180 -180 -3940 0 180 180 -6163 0 -498 499 7159 0 180 180 2224 0 180 -180 7159 0 -498 -499zm-1665 -1665l-2832 0 180 -180 -7272 0 180 180 -2832 0 -498 498 3829 0 180 180 5554 0 180 -180 3829 0 -498 -498zm-1167 -1167l-249 -249 249 -249 -499 0 -180 -180 -8884 0 -180 180 -499 0 249 249 -249 249 498 0 180 180 8886 0 180 -180 498 0zm1665 -2164l-3829 0 -180 -180 -5554 0 -180 180 -3829 0 498 499 2833 0 -180 180 7270 0 -180 -180 2833 0 498 -499zm1666 -1665l-7160 0 -181 -180 -2223 0 -180 180 -7160 0 499 498 6163 0 -180 180 3940 0 -180 -180 6163 0 499 -498zm-5246 -4498l3331 0 -498 -498 -2334 0 180 -180 -7770 0 180 180 -2334 0 -498 498 3331 0 180 180 6052 0 180 -180zm-23687 40140l-498 498 6661 0 180 180 2722 0 180 -180 6662 0 -499 -498 -5665 0 181 -180 -4439 0 180 180 -5665 0zm12396 16474l-9383 0 -180 180 9743 0 -180 -180zm-9383 -19127l9383 0 180 -180 -9743 0 180 180zm4816 4817l9494 0 125 -125 -374 -374 -8996 0 180 -180 -1108 0 180 180 -8995 0 -374 374 124 125 9495 0 -180 180 609 0 -180 -180zm-125 -125l125 125 -249 0 124 -125zm6538 12949l-3332 0 -180 -180 -6052 0 -180 180 -3331 0 498 499 2335 0 -180 180 7769 0 -180 -180 2334 0 499 -499zm1665 -1665l-6662 0 -180 -180 -2721 0 -180 180 -6662 0 498 498 5665 0 -180 180 4438 0 -180 -180 5666 0 498 -498zm1416 -1665l-9494 0 180 -181 -610 0 180 181 -9493 0 -125 124 373 374 8997 0 -180 180 1107 0 -180 -180 8996 0 374 -374 -125 -124zm-9494 0l-125 124 -125 -124 250 0zm7828 -1666l-6163 0 180 -180 -3940 0 180 180 -6163 0 -498 499 7159 0 180 180 2224 0 180 -180 7160 0 -499 -499zm-1665 -1665l-2832 0 180 -180 -7271 0 180 180 -2833 0 -498 498 3829 0 180 180 5554 0 180 -180 3829 0 -498 -498zm-1167 -1167l-249 -249 249 -250 -498 0 -181 -180 -8884 0 -180 180 -499 0 250 250 -249 249 498 0 180 180 8885 0 180 -180 498 0zm1666 -2164l-3830 0 -180 -180 -5554 0 -180 180 -3829 0 498 498 2833 0 -180 180 7271 0 -180 -180 2832 0 499 -498zm1665 -1665l-7160 0 -180 -180 -2223 0 -180 180 -7161 0 499 498 6163 0 -180 180 3940 0 -180 -180 6164 0 498 -498zm-5246 -4498l3331 0 -498 -499 -2334 0 180 -180 -7769 0 180 180 -2335 0 -498 499 3331 0 180 180 6052 0 180 -180zm-11291 56613l-9383 0 -180 181 9743 0 -180 -181zm-9383 -19126l9383 0 180 -180 -9743 0 180 180zm4816 4816l9494 0 125 -124 -374 -374 -8996 0 180 -180 -1107 0 180 180 -8996 0 -374 374 125 124 9494 0 -180 180 609 0 -180 -180zm-125 -124l125 124 -249 0 124 -124zm6538 12949l-3332 0 -180 -180 -6051 0 -181 180 -3331 0 498 498 2335 0 -180 181 7769 0 -180 -181 2334 0 499 -498zm1665 -1665l-6662 0 -180 -180 -2721 0 -180 180 -6662 0 498 498 5666 0 -181 180 4438 0 -180 -180 5666 0 498 -498zm1416 -1666l-9494 0 180 -180 -609 0 180 180 -9494 0 -125 125 374 374 8996 0 -180 180 1107 0 -180 -180 8996 0 374 -374 -125 -125zm-9494 0l-125 125 -124 -125 249 0zm7829 -1665l-6163 0 180 -180 -3941 0 180 180 -6163 0 -498 498 7160 0 180 180 2223 0 180 -180 7160 0 -498 -498zm-1666 -1665l-2832 0 180 -181 -7271 0 180 181 -2832 0 -499 498 3829 0 180 180 5555 0 180 -180 3829 0 -499 -498zm-1167 -1168l-249 -249 249 -249 -498 0 -180 -180 -8885 0 -180 180 -498 0 249 249 -249 249 498 0 180 181 8885 0 180 -181 498 0zm1666 -2163l-3830 0 -180 -180 -5553 0 -181 180 -3829 0 498 498 2833 0 -180 180 7271 0 -180 -180 2832 0 499 -498zm1665 -1666l-7160 0 -180 -180 -2223 0 -180 180 -7160 0 498 499 6164 0 -181 180 3940 0 -180 -180 6164 0 498 -499zm-5245 -4497l3331 0 -499 -499 -2334 0 180 -180 -7769 0 180 180 -2334 0 -499 499 3331 0 180 180 6053 0 180 -180z"/>
  <path id="camisa_contorno" fill="none" d="M132380 286433c2381,-94 4477,-217 6790,-344 2314,-127 4844,-256 7995,-477 3150,-220 6920,-532 10132,-824 3212,-292 5866,-565 8511,-918 2644,-354 5278,-788 7407,-1210 2128,-422 3751,-831 5807,-1288 2058,-458 4549,-964 6383,-1279 1832,-314 3007,-438 4130,-519 1122,-81 2193,-120 3052,-113 860,8 1509,61 1893,91 384,31 502,37 591,42 48,2 88,4 123,6 91,-67 158,-175 172,-754 16,-652 -36,-1902 -103,-2696 -66,-793 -149,-1129 -276,-1795 -126,-667 -297,-1665 -630,-2599 -333,-935 -829,-1806 -1428,-2947 -599,-1141 -1300,-2553 -1726,-3499 -425,-947 -576,-1429 -820,-2607 -243,-1177 -579,-3051 -922,-5681 -343,-2631 -693,-6018 -1005,-8597 -311,-2580 -584,-4351 -1046,-7315 -462,-2964 -1114,-7120 -1655,-11150 -540,-4029 -968,-7932 -1304,-11831 -335,-3898 -579,-7791 -735,-11261 -155,-3470 -223,-6517 -277,-9471 -54,-2954 -92,-5815 -151,-8959 -58,-3144 -136,-6570 -105,-11649 32,-5078 173,-11809 341,-16902 168,-5093 363,-8548 631,-12393 267,-3845 608,-8079 943,-11875 336,-3796 667,-7154 1086,-11364 418,-4209 925,-9271 1436,-13539 511,-4268 1026,-7743 1462,-10276 436,-2533 791,-4124 1102,-5137 312,-1012 579,-1445 778,-1708 198,-263 327,-355 392,-401 64,-47 64,-47 47,579 -17,625 -51,1876 -105,3419 -53,1542 -126,3377 -166,4807 -40,1429 -48,2454 -77,3083 -29,629 -80,862 -99,978 -18,116 -3,113 -40,146 -36,33 -124,101 -129,658 -5,557 73,1604 186,2953 114,1350 262,3002 312,4631 50,1629 1,3235 2,4094 0,859 50,971 128,1044 77,73 181,107 969,58 787,-50 2257,-182 3972,-314 1716,-132 3677,-263 5762,-417 2086,-153 4295,-328 6376,-448 2080,-119 4032,-182 5799,-289 1766,-107 3348,-258 5163,-455 1815,-197 3864,-441 5821,-660 1956,-219 3820,-413 4944,-547 1125,-134 1509,-207 1701,-316 193,-110 193,-256 222,-877 29,-620 87,-1715 104,-3031 17,-1317 -7,-2855 -22,-4286 -14,-1430 -19,-2754 -36,-3603 -17,-850 -46,-1224 -70,-1423 -23,-197 -41,-219 -80,-284 -39,-66 -99,-175 -168,-659 -69,-484 -147,-1343 -247,-2246 -99,-903 -221,-1850 -337,-2650 -115,-801 -225,-1455 -399,-2463 -174,-1007 -412,-2367 -593,-3337 -182,-970 -306,-1549 -423,-2196 -116,-648 -226,-1363 -354,-2053 -127,-690 -273,-1354 -411,-2087 -137,-732 -266,-1533 -362,-2247 -97,-714 -160,-1342 -232,-1963 -71,-622 -152,-1238 -249,-1970 -98,-733 -212,-1582 -329,-2445 -116,-862 -236,-1738 -342,-2482 -105,-743 -198,-1354 -360,-2268 -163,-915 -395,-2132 -793,-3953 -399,-1821 -964,-4245 -1650,-6668 -686,-2424 -1494,-4848 -2565,-7495 -1070,-2648 -2404,-5519 -3961,-8566 -1558,-3046 -3339,-6268 -4721,-8497 -1382,-2229 -2365,-3465 -3341,-4480 -976,-1015 -1944,-1808 -2917,-2524 -974,-715 -1952,-1352 -2500,-1715 -547,-363 -664,-450 -731,-552 -67,-103 -84,-219 -92,-293 -9,-75 -9,-106 -67,-170 -59,-63 -175,-158 -1266,-691 -1090,-533 -3153,-1504 -5138,-2518 -1984,-1015 -3889,-2073 -5584,-2880 -1695,-807 -3179,-1361 -4897,-1894 -1718,-533 -3670,-1044 -5254,-1458 -1584,-414 -2801,-730 -3640,-976 -840,-246 -1302,-421 -1979,-677 -676,-257 -1567,-595 -2522,-880 -955,-285 -1975,-516 -2628,-665 -653,-148 -940,-214 -1393,-456 -452,-242 -1070,-660 -1531,-906 -459,-246 -761,-319 -1037,-353 -277,-34 -527,-29 -752,-29 -226,0 -425,-5 -1300,-320 -875,-315 -2425,-941 -3896,-1526 -1471,-585 -2863,-1130 -4262,-1691 -1399,-561 -2805,-1138 -3692,-1518 -887,-381 -1255,-566 -1543,-754 -288,-189 -497,-380 -682,-482 -185,-101 -345,-112 -451,-112 -107,-1 -160,9 -243,-5 -84,-13 -198,-50 -568,-282 -370,-232 -995,-661 -1624,-1155 -629,-493 -1262,-1053 -1894,-1607 -631,-553 -1261,-1101 -2236,-1518 -974,-417 -2293,-704 -3602,-890 -1309,-185 -2609,-267 -4429,-343 -1820,-75 -4161,-143 -7675,-126 -3514,17 -8200,119 -12497,212 -4296,93 -8201,177 -10255,224 -2054,46 -2257,55 -4018,196 -1761,141 -5080,413 -7165,649 -2086,236 -2937,436 -3631,684 -693,248 -1229,545 -1825,1044 -596,499 -1253,1200 -1954,1816 -701,617 -1445,1150 -1889,1413 -444,263 -588,256 -873,354 -284,99 -710,303 -1226,563 -516,261 -1122,577 -1858,892 -736,315 -1603,629 -2227,875 -624,246 -1006,423 -1465,608 -458,185 -994,378 -1708,601 -714,224 -1607,480 -2475,809 -867,330 -1709,734 -2490,1041 -781,306 -1502,516 -2224,725 -723,209 -1448,418 -1987,634 -539,215 -892,437 -1168,615 -276,179 -476,316 -968,461 -491,145 -1275,300 -1851,448 -577,149 -947,291 -1440,476 -494,186 -1110,415 -1694,597 -583,183 -1133,319 -1633,445 -499,125 -948,239 -1644,412 -696,173 -1639,404 -2469,612 -829,209 -1546,395 -2101,552 -555,156 -948,283 -1390,412 -441,130 -931,262 -1381,387 -449,125 -858,242 -1269,365 -411,124 -823,254 -1164,386 -342,133 -612,268 -980,423 -368,154 -834,328 -1237,513 -404,185 -744,381 -1128,583 -384,202 -811,410 -1181,597 -370,188 -682,354 -1090,569 -408,216 -910,480 -1604,838 -693,359 -1578,811 -2606,1326 -1029,515 -2202,1091 -3078,1524 -876,434 -1455,723 -1971,1053 -516,329 -969,699 -1397,1045 -428,346 -832,667 -1309,1044 -477,377 -1027,810 -1721,1427 -695,617 -1535,1418 -2299,2256 -764,838 -1453,1714 -2076,2579 -622,865 -1180,1719 -1861,2840 -681,1120 -1487,2507 -2137,3698 -649,1189 -1143,2182 -1676,3158 -533,976 -1105,1935 -1592,2847 -486,913 -888,1779 -1270,2671 -382,891 -745,1809 -1114,2667 -370,858 -747,1656 -1244,2944 -496,1289 -1112,3067 -1661,4753 -548,1685 -1030,3276 -1441,4680 -412,1404 -752,2621 -1093,4088 -341,1467 -682,3185 -1107,5485 -426,2299 -937,5180 -1249,6845 -311,1664 -423,2112 -525,2586 -102,475 -195,976 -387,1775 -192,798 -484,1893 -781,3041 -297,1149 -599,2351 -813,3366 -214,1014 -340,1842 -557,3063 -216,1222 -523,2837 -761,4159 -239,1321 -409,2348 -512,2878 -102,531 -136,565 -197,614 -62,48 -150,112 -243,2173 -94,2062 -191,6122 -266,8344 -76,2223 -129,2607 34,2809 163,202 542,221 1372,326 830,105 2110,295 4366,730 2255,436 5487,1117 8069,1614 2581,496 4514,807 6533,1143 2020,336 4127,696 7006,1154 2879,457 6529,1012 8855,1328 2326,317 3329,394 3830,433 502,39 502,39 550,-525 48,-565 144,-1694 254,-2670 110,-977 234,-1800 381,-2842 148,-1043 318,-2303 482,-3461 165,-1159 323,-2215 404,-2808 82,-594 87,-725 73,-837 -13,-112 -45,-205 -22,-1760 23,-1555 101,-4572 143,-7023 41,-2450 46,-4333 57,-5420 11,-1086 28,-1376 64,-1566 37,-190 93,-280 171,-327 77,-47 177,-52 298,38 120,90 261,275 333,364 72,88 74,81 76,77 1,-3 1,-3 111,245 111,248 333,745 578,1416 246,672 516,1519 738,2426 221,908 394,1876 587,3432 194,1557 408,3701 715,6028 306,2328 705,4839 1421,11024 715,6186 1747,16046 2555,23721 808,7675 1392,13164 1752,19063 360,5898 496,12206 487,19019 -10,6813 -166,14133 -361,19944 -194,5810 -428,10113 -701,13958 -272,3844 -584,7231 -1401,13704 -818,6473 -2141,16031 -2910,23010 -769,6979 -983,11378 -1178,14775 -195,3397 -370,5792 -652,7860 -282,2068 -672,3811 -942,5144 -270,1334 -421,2258 -438,2840 -17,581 100,820 241,944 141,124 307,134 484,169 178,35 368,96 454,150 18,11 31,21 41,36 848,312 1695,624 3052,895 1357,271 3222,501 6284,730 3061,229 7317,456 10740,589 3423,133 6012,172 9283,175 3270,3 7222,-29 10963,-6 3741,22 7271,100 10250,185 2978,84 5405,175 7660,243 2255,68 4338,113 6570,165 2232,52 4614,111 7118,117 2505,7 5133,-39 7781,-94 2647,-55 5314,-120 7696,-214z"/>
 </g>
</svg>
