<?xml version="1.0" encoding="utf-8"?>
<!-- Generator: Adobe Illustrator 16.0.3, SVG Export Plug-In . SVG Version: 6.00 Build 0)  -->
<!DOCTYPE svg PUBLIC "-//W3C//DTD SVG 1.1//EN" "http://www.w3.org/Graphics/SVG/1.1/DTD/svg11.dtd">
<svg version="1.1"
	 id="Layer_1" shape-rendering="geometricPrecision" text-rendering="geometricPrecision" image-rendering="optimizeQuality" xmlns:xodm="http://www.corel.com/coreldraw/odm/2003"
	 xmlns="http://www.w3.org/2000/svg" xmlns:xlink="http://www.w3.org/1999/xlink" x="0px" y="0px" width="181px" height="149px"
	 viewBox="0 0 181 149" enable-background="new 0 0 181 149" xml:space="preserve">
<g>
	<g>
		<linearGradient id="SVGID_1_" gradientUnits="userSpaceOnUse" x1="90.5024" y1="0" x2="90.5024" y2="148.8052">
			<stop  offset="0" style="stop-color:#F00808"/>
			<stop  offset="1" style="stop-color:#F00808;stop-opacity:0"/>
		</linearGradient>
		<path fill="url(#SVGID_1_)" d="M51.417,107.21c-1.161,0.433-1.759,1.263-2.163,2.221c-1.566,3.716-0.149,0.96,1.29,2.425
			c1.012,1.03,0.541,3.416,3.181,2.697c3.959-1.074-1.749-3.679-1.46-4.836C52.419,109.097,56.104,105.467,51.417,107.21z
			 M49.998,138.826c-0.647-1.358-3.767-0.353-4.482,0.457c-0.44,0.498-0.88,1.068-1.621,1.093c-2.138,0.071-2.024,4.386-0.291,4.044
			c2.815-0.555,1.516,1.902,3.222,3.045c0.874,0.586,2.615,0.165,2.704-0.867c0.152-1.747-1.574-2.743-0.88-4.111
			C49.289,141.228,50.636,140.167,49.998,138.826z M60.368,140.441c-0.434-0.91,0.455-1.3-0.715-2.123
			c-1.17-0.824-1.907,0-2.103,0.563c-0.195,0.564,0.651,0.998,1.084,1.432c0.433,0.433-0.238,0.477-0.781,0.628
			c-0.542,0.152-1.214,0.606-1.518,0.542c-0.303-0.064,0.13-0.672,0.304-1.452c0.174-0.78-0.433-0.606-0.759-1.171
			c-0.324-0.563,0-1.084-0.39-1.539c-0.575-0.671-2.486-0.199-1.799,1.518c0.173,0.434,1.257-0.087,1.474,0.195
			c0.217,0.281-0.347,0.52-0.347,1.105c0,0.584,0.282,0.498-0.086,1.084c-0.369,0.585,0.086,0.803,0.304,1.365
			c0.216,0.564,0.823,0.152,1.17-0.086c0.346-0.238,0.216,0.13,0.781,0.368c0.345,0.146,2.365,0.157,2.319-1.628
			c-0.007-0.266,1.294,0.064,0.94,1.549c-0.113,0.473-0.575,0.948-0.507,1.25c0.216,0.975,0.694,0.779,1.301,0.433
			s0.694-0.78,0.694-2.081C61.734,141.093,60.845,141.482,60.368,140.441z M60.041,147.945c-0.718-0.303-1.454,0.225-2.003,0.758
			l0.733-0.023c0.716-0.023,1.419-0.049,2.147-0.085C60.75,148.331,60.433,148.113,60.041,147.945z M39.37,146.24
			c-1.304,1.279-1.257-1.639-2.806,0.357c-0.373,0.48-0.188,1.369-0.298,2.072c1.149,0.051,2.19,0.096,3.144,0.135
			c0.359-0.414,0.898-0.793,1.563-1.036c0.174-0.063,0.658-0.426,0.666-0.427C42.304,145.417,40.055,145.569,39.37,146.24z
			 M53.583,125.647c-0.984,0.214-2.365-0.192-3.029-0.167c-0.646,0.025-1.17-0.004-1.596-0.077
			c-0.012,1.675-0.655,2.989-2.921,2.281c-1.212-0.379-2.048-2.507-4.044-1.342c-1.024,0.599,0.167,3.389-0.943,5.204
			c0.35,0.346,0.399,1.063,0.399,1.666c0,1.736,0.366,1.586,2.55,1.472c0.988-0.051,1.686-1.537,0.761-2.687
			c-1.328-1.648,0.627-1.947,1.987-0.979c0.758,0.539,4.545-0.696,2.629-1.398c-0.222-0.083-1.047-0.366-1.216-0.322
			c-1.133-0.85,2.499-0.807,2.802-1.859C51.267,126.38,53.328,128.523,53.583,125.647z M2.868,142.235
			c-0.081-0.034-0.163-0.065-0.242-0.093c0.028,1.23,0.058,1.982,0.115,2.441c0.06,0.487,0.151,0.643,0.424,0.929
			c0.117,0.123,0.268,0.269,0.527,0.423c0.119-0.051,0.223-0.112,0.304-0.186c0.5-0.451,0.532-1.451,0.048-1.854
			C3.561,143.492,3.835,142.639,2.868,142.235z M2.253,128.329c0.136-0.255,0.148-0.571-0.026-0.97L2.253,128.329z M23.304,143.331
			c-0.854-1.793,0.896-2.561-1.408-4.183c-2.305-1.621-3.756,0-4.14,1.109c-0.384,1.11,1.28,1.964,2.134,2.816
			c0.853,0.854-0.47,0.939-1.538,1.238c-1.066,0.298-2.39,1.193-2.986,1.066c-0.598-0.127,0.256-1.322,0.597-2.859
			c0.342-1.536-0.853-1.195-1.493-2.305c-0.432-0.748-0.282-1.457-0.373-2.115c0.63-0.066,1.206-0.35,1.291-1.045
			c0.063-0.52,0.054-0.893,0.02-1.244c-1.139,0.369-2.496-0.208-3.254-2.549c-1.021-3.154-6.875-4.207-4.523,2.31
			c0.619,1.716,0.083,2.354-0.747,2.866c0.016,0.311-0.003,0.725-0.049,1.277c-0.067,0.825-0.356,2.459,0.788,2.673
			c0.02,0.004,2.082,0.686,2.176,0.229c0.405-0.084,0.405-1.139,0.516-2.24c0.599,0.459,2.364-0.318,2.747,0.18
			c0.427,0.555-0.683,1.024-0.683,2.177c0,1.151,0.555,0.981-0.171,2.134c-0.688,1.092,0.082,1.532,0.527,2.52
			c0.696,0.061,1.388,0.117,2.114,0.175c0.092-0.062,0.18-0.122,0.261-0.177c0.472-0.324,0.495-0.078,0.832,0.26
			c1.024,0.075,2.14,0.15,3.433,0.228c1.005-0.423,1.882-1.294,1.838-2.966c-0.013-0.521,2.548,0.127,1.852,3.047
			c-0.009,0.04-0.021,0.08-0.032,0.119c0.933,0.047,1.924,0.095,2.945,0.143c0.01-0.313,0.015-0.658,0.015-1.044
			C25.993,144.61,24.242,145.379,23.304,143.331z M33.327,132.87c0.004-1.903-1.249-4.078,1.83-4.538
			c2.51-1.814-0.939-3.938-4.186-3.608c-3.613,0.366-2.349,1.3-2.75,3.863c-0.211,1.352-0.796,2.483-2.403,3.037
			c-1.481,0.51-4.506,1.681-2.459,3.576c0.649,0.601,3.289,0.894,3.842-0.255c0.333-0.692,1.962-3.135,2.735-2.004
			C30.437,133.674,33.321,136.465,33.327,132.87z M37.043,142.635c0.514,0.354,1.767,0.097,2.025-0.481
			c0.257-0.579,0.128-2.122-1.125-2.315c-1.253-0.191-1.542,0.515-2.282,0.869c-0.74,0.354-1.222-0.45-2.218-0.869
			c-2.234-0.936-3.992-0.021-3.054,2.668c0.482,1.383,1.736,1.447,2.732,1.544c0.997,0.096,2.09-0.965,2.507-1.446
			C36.047,142.121,36.529,142.281,37.043,142.635z M60.505,119.246c-0.013-0.086-0.021-0.175-0.021-0.27
			c0-3.065-0.783-0.968-3.165-1.049c-5.317-0.182-2.127,3.656-3.752,3.922c-2.087,0.342,0.02,1.395,0.83,1.914
			c0.299-0.258,0.643-0.465,0.956-0.445c2.173,0.124,0.239-2.863,1.908-2.803c1.377,0.051,1.158,2.175,3.167,1.52
			c0.339-0.11,0.712-0.996-0.15-1.581C59.857,120.17,59.691,119.502,60.505,119.246z M150.777,107.21
			c-1.162,0.433-1.759,1.263-2.164,2.221c-1.564,3.716-0.146,0.96,1.29,2.425c1.013,1.03,0.54,3.416,3.182,2.697
			c3.959-1.074-1.749-3.679-1.46-4.836C151.779,109.097,155.465,105.467,150.777,107.21z M71.103,138.328
			c-1.089-0.188-1.152,0.654-1.432,0.094c-0.28-0.561,0.746-0.996,1.089-1.898c0.342-0.902-1.089-0.218-0.996-1.182
			c0.093-0.966,1.773-1.308,2.365-2.21c0.591-0.903-0.032-1.618-1.058-2.055c-1.027-0.435-2.085,0.468-2.801,1.214
			c-0.716,0.748-0.063,1.525-0.716,2.054c-0.653,0.529-1.151-0.497-2.303-0.186c-1.702,0.459-2.467,3.391-0.622,3.391
			c1.058,0,1.121,0.343,1.182,1.712c0.062,1.369,1.462,0.996,2.022,1.338c0.561,0.342,0.81,1.027,0.654,2.055
			c-0.155,1.025-0.466,1.244-0.031,1.928c0.436,0.686,1.463,0.654,1.898,0.405c0.436-0.249,1.463-0.249,1.089-1.867
			c-0.373-1.618-0.902-1.245-0.964-2.085c-0.063-0.84,1.711-0.996,1.96-1.4S72.191,138.515,71.103,138.328z M170.227,131.077
			c-1.027-0.435-2.084,0.468-2.801,1.214c-0.165,0.172-0.256,0.346-0.309,0.518c1.439-0.187,3.152-0.451,4.261-0.643l0.088-0.016
			C171.316,131.705,170.846,131.341,170.227,131.077z M178.566,127.394c-0.113,0.658-0.151,1.447-0.211,2.224
			c0.085-0.047,0.158-0.089,0.221-0.125c0.227-0.129,0.33-0.185,0.496-0.195c0.168-0.009,0.398,0.026,0.59-0.021
			c0.192-0.045,0.346-0.173,0.55-0.365l0.077-0.073c-0.059-0.415,0.012-0.819,0.166-1.178
			C180.238,126.289,178.906,125.392,178.566,127.394z M171.514,121.559c-0.365-0.275-1.219-2.711,1.935-2.068
			c1.773,0.361,1.194,2.411,6.044,2.027c0.504-0.038,0.965-0.068,1.389-0.045c0.002-0.504,0.002-1.025-0.003-1.561
			c-0.021-2.395-0.121-5.033-0.171-6.643c-0.05-1.61-0.05-2.192-0.05-3.015v-0.362c-0.079,0.119-0.181,0.232-0.304,0.336
			c-0.846,0.723-2.299,2.307-1.637,3.643c1.46,2.941,2.558,3.313,1.857,4.885c-0.678,1.525-4.027,0.379-4.4-0.117
			c-1.53-2.028-0.74-3.501-1.658-5.594c-0.535-1.22-1.258-0.523-2.459-0.082c-0.717,0.263-1.279,5.744-8.305,3.952
			c-0.381-0.097-0.677-0.333-0.896-0.655c0.214-0.232,0.399-0.584,0.532-1.066l-0.59-2.568c0.025-0.046,0.051-0.09,0.078-0.134
			c0.654-1.052,5.828,0.063,3.91-5.081c-0.141-0.377-0.858-2.748-0.746-3.031c0.477-1.2-0.3-2.193,1.539-3.326
			c1.352-0.834,1.661-1.06,2.913,0.063c2.095,1.88-1.151,7.059,4.104,4.999c2.524-0.989,5.234,0.486,6.049,2.072
			c-0.003-0.272-0.008-0.546-0.014-0.814c-0.025-0.983-0.074-1.899-0.099-2.846c-0.304-0.447-0.282-0.891-0.021-1.274
			c-0.01-0.637-0.023-1.362-0.06-2.29c-0.063-1.573-0.193-3.725-0.263-5.465c-0.07-1.74-0.081-3.07-0.204-6.607
			c-0.078-2.266-0.204-5.438-0.404-8.916c-0.568,0.69-1.984,1.025-4.474,0.635c-2.498-0.391-0.173,2.715-2.81,3.341
			c-3.794,0.9-1.33-2.767-6.546-2.617c-2.315,0.067-1.154-6.083,3.593-4.446c4.353,1.5,7.786-1.775,9.63,0.334
			c0.188,0.214,0.346,0.428,0.477,0.64c-0.082-1.291-0.177-2.606-0.283-3.918c-0.039-0.487-0.08-0.973-0.123-1.458
			c-0.574,0.098-1.191,0.02-1.625-0.271c-1.997-1.337-0.477-4.212-3.771-3.563c-2.026,0.399-2.161-4.648,0.341-4.732
			c0.865-0.029,1.381-0.697,1.896-1.279c0.326-0.368,1.079-0.772,1.921-1.033c-0.148-1.053-0.303-2.098-0.465-3.133
			c-1.913-0.224-3.08-2.863-1.04-3.523c0.14-0.045,0.285-0.089,0.433-0.134c-0.768-4.388-1.643-8.582-2.51-12.598
			c-0.249-1.153-0.498-2.292-0.75-3.42c-0.291,0.121-0.674,0.118-0.918-0.045c-0.837-0.561-0.199-1.766-1.58-1.495
			c-0.85,0.168-0.906-1.948,0.142-1.983c0.363-0.013,0.579-0.293,0.796-0.537c0.101-0.114,0.299-0.235,0.537-0.336
			c-0.498-2.046-1.031-4.082-1.627-6.137c-0.123-0.421-0.247-0.843-0.375-1.267c-0.82-0.601-0.193-1.827-1.625-1.544
			c-0.896,0.176-0.955-2.054,0.15-2.091c0.113-0.003,0.213-0.031,0.303-0.077c-0.98-2.978-2.036-5.914-3.068-8.655
			c-1.605-4.263-3.149-8.055-4.063-10.253c-0.913-2.198-1.193-2.803-1.314-3.193c-0.119-0.392-0.08-0.57,0.009-0.707
			c0.089-0.136,0.228-0.232,0.339-0.307c0.012-0.008,0.025-0.017,0.036-0.026c-0.036-0.002-0.077-0.003-0.126-0.006
			c-0.092-0.006-0.214-0.012-0.61-0.042c-0.396-0.032-1.063-0.087-1.95-0.094c-0.886-0.007-1.99,0.033-3.146,0.116
			c-1.157,0.083-2.367,0.211-4.256,0.535c-1.891,0.324-4.459,0.846-6.578,1.318c-2.121,0.471-3.793,0.893-5.985,1.328
			c-2.194,0.434-4.909,0.882-7.635,1.247c-2.726,0.364-5.462,0.645-8.771,0.946c-3.311,0.301-7.196,0.623-10.442,0.85
			c-3.248,0.227-5.855,0.361-8.24,0.491s-4.545,0.257-7,0.355c-2.453,0.097-5.202,0.164-7.931,0.22
			c-2.729,0.057-5.438,0.104-8.019,0.098c-2.581-0.007-5.036-0.067-7.336-0.121c-2.301-0.054-4.448-0.1-6.772-0.17
			c-2.323-0.071-4.825-0.165-7.894-0.251c-3.07-0.087-6.708-0.167-10.564-0.19c-3.855-0.024-7.928,0.01-11.299,0.006
			c-3.371-0.003-6.04-0.043-9.567-0.181c-3.528-0.137-7.915-0.371-11.07-0.607c-3.154-0.236-5.078-0.473-6.476-0.752
			c-1.398-0.28-2.272-0.602-3.146-0.923c0.039,0.056,0.019,0.165-0.024,0.549C6.322,5.35,6.232,6.27,5.981,7.963
			c-0.25,1.693-0.663,4.159-0.93,5.963c-0.269,1.805-0.394,2.948-0.695,4.831c-0.301,1.885-0.778,4.508-1.161,6.82
			c-0.383,2.312-0.675,4.313-0.905,6c-0.231,1.688-0.402,3.063-0.56,4.658c-0.158,1.595-0.303,3.41-0.461,5.608
			c-0.153,2.128-0.318,4.613-0.483,7.383c0.122-0.004,0.266,0.019,0.433,0.076c1.503,0.513,1.431-0.592,2.289-1.361
			c0.913-0.543,2.07,0.273,2.324,1.024c0.482,0.844-0.003,2.429-0.861,2.383c-0.977-0.053-1.789-1.265-2.224,0.602
			c-0.463,1.984-1.511,1.087-2.108-0.188c-0.108,1.934-0.209,3.981-0.295,6.118c2.085,0.395,2.106-1.415,3.552-2.708
			c1.691-1.007,3.835,0.507,4.307,1.899c0.894,1.562-0.006,4.5-1.595,4.416c-1.812-0.096-3.315-2.345-4.122,1.114
			c-0.521,2.235-1.443,2.497-2.334,1.828c-0.013,0.756-0.022,1.519-0.028,2.286c2.422,3.053,3.255-0.92,6.86-0.186
			c1.51,0.308,1.788,2.892,1.01,3.757c-2.222,2.469-2.588,0.945-3.703,0.477c-3.059-1.285-2.856,0.825-1.527,2.7
			c1.629,2.298-0.435,5.337-1.419,5.66c-0.356,0.117-0.654,0.168-0.905,0.168c0.029,0.488,0.061,0.975,0.095,1.461
			c0.17,2.441,0.395,4.836,0.601,7.108c0.62,0.005,1.349,0.081,1.868-0.091c0.979-0.326,0.234-1.213,0.793-2.472
			c0.56-1.259,1.445-0.233,2.285-0.979c0.839-0.745-0.14-0.465-0.327-2.051c-0.187-1.585,2.098-2.051,3.497-1.958
			s1.166,0.886,1.353,1.725c0.187,0.84-0.233,1.398,0.28,2.378c0.513,0.979,0.839-0.14,2.191,0c1.353,0.141,1.236,0.537,1.469,0.723
			c0.233,0.188,0.233,0.84,0.094,1.865c-0.14,1.025-0.606,1.213-1.259,1.678c-0.652,0.467-2.004-0.979-2.658-0.932
			c-0.652,0.046-0.513,0.886-0.14,1.259c0.374,0.372,1.259-0.048,1.958,0.792s-0.14,1.119-0.746,2.099s-2.098,0.605-2.891,0.187
			c-0.792-0.42-0.513-1.539-0.093-2.519s-0.419-1.258-1.585-1.118c-1.166,0.139-0.746,0.746-1.725,1.445
			c-0.98,0.699-0.7,0.094-1.912,0.513s-0.326,0.933-0.839,1.772c-0.39,0.637-0.833,0.682-1.188,0.934
			c0.102,1.563,0.172,3.066,0.222,4.6C2.98,97.48,3.396,97.57,3.396,96.92c0-2.049,0.984-4.333,3.357-3.217
			c3.205,1.508,1.47,6.096-0.31,6.02c-1.48,0.014-1.643-0.084-1.743,1.393c-0.152,1.144-2.385,1.37-2.825,1.221
			c0.01,1.016,0.017,2.066,0.022,3.155c0.137-0.063,0.28-0.116,0.427-0.156c1.726-0.466,2.471,1.072,3.45,0.28
			c0.979-0.793,0-1.959,1.073-3.077c1.072-1.119,2.657-2.472,4.195-1.818c1.539,0.652,2.471,1.725,1.586,3.077
			c-0.886,1.352-3.404,1.864-3.543,3.311c-0.141,1.445,2.004,0.419,1.492,1.771c-0.513,1.352-2.052,2.004-1.631,2.843
			c0.419,0.84,0.513-0.419,2.144-0.14c1.632,0.28,2.377,1.353,2.004,1.959c-0.372,0.605-3.03,0.838-2.937,2.098
			c0.093,1.259,0.886,0.699,1.446,3.123c0.559,2.425-0.979,2.425-1.632,2.798c-0.652,0.374-2.191,0.419-2.844-0.605
			c-0.652-1.026-0.186-1.353,0.047-2.892c0.233-1.538-0.139-2.564-0.979-3.077c-0.839-0.513-2.937,0.048-3.03-2.005
			c-0.082-1.791-0.164-2.41-1.24-2.537l0.003,0.444c0.032,3.557,0.1,7.522,0.172,10.991c1.77,0.877,4.1,1.178,4.539,1.639
			c3.749,3.953,11.401-2.201,10.99,7.094c1.748,2.906,6.042,0.705,4.83-0.436c-2.654-1.414-2.591-3.924,0.442-4.374
			c0.263-0.039,1.384-0.423,2.429-0.823c0.916-0.352,3.706-1.755,1.388-2.766c-1.756-0.765-6.271,1.218-6.271-0.893
			c0-1.424,2.165-3.326-0.273-3.223c-1.119,0.047-1.027,3.146-2.099,4.855c-1.503,2.395-4.243-0.18-4.426-1.74
			c-0.227-1.941,1.946-4.016,1.757-6.379c-0.205-2.57,3.075-3.525,4.85-1.645c4.417,4.684,10.093-3.151,14.966-0.42
			c1.382,0.773,4.235,5.762,1.8,6.873c-2.944,0-4.965-3.533-4.965,0.424c0,1.561,5.367,1.563,7.011,0.782
			c1.344-0.639,5.223-1.142,7.634-0.089c2.546,1.111,3.219-0.072,1.976-2.283c-0.476-0.846-1.731-0.31-3.375-0.67
			c-0.783-0.173,0.4-1.01,0.757-1.894c0.652-1.616-1.467-2.066-1.752-2.066c-4.602,0-4.907-2.833-0.554-2.702
			c0.481,0.014,2.147-1.24-0.344-1.766c-7.417-1.571-1.694,4.022-6.34,2.616c-2.803-0.848-4.997-3.798-2.104-4.271
			c3.12-0.511,2.333,0.699,3.206-3.579c0.211-1.037,2.175-1.251,3.468-0.209c4.432,3.571,2.051-2.563,0.641-2.881
			c-0.199-0.042-2.505-1.676-3.917-1.967c-1.433-0.264-1.622,0.868-1.519,2.484c0.131,2.043,0.1,3.009-0.654,4.073
			c-0.933,1.317-2.722,2.343-3.69,0.441c-1.81-3.557-1.998-1.31-2.915-2.785c-1.098-1.769,1.47-2.523,2.891-2.523
			c4.877,0,1.244-7.23-1.207-1.958c-0.47,1.012-1.519,1.41-2.446,1.281c-2.19-0.303-1.771-3.176-1.229-3.572
			c0.291-0.212,0.668-0.099,0.471-2.465c-0.163-1.95,1.704-3.834,3.682-3.979c3.274-0.243,1.709,2.065,4.01,1.597
			c0.4-0.082,0.423-2.333,0.869-2.482c0.772-2.527,4.652,0.638,5.292-1.771c0.478-1.805,3.975-1.45,6.603-0.652
			c0.974,0.294,2.911,1.521,3.653,0.296c0.364-0.601,0.128-1.551,1.282-2.358c1.012-0.707,2.537-0.648,3.21,0.137
			c0.839,0.979,0.14,2.098,0.839,3.311c0.7,1.211,2.005,0.839,1.632,2.518s-1.305,2.984-0.653,3.123
			c0.653,0.14,2.099-0.839,3.264-1.166c2.715-0.759,0.696,5.379-2.38,5.895c-0.746,0.512-3.214-1.139-3.68-2.351
			c-0.466-1.212-1.445-1.679-0.652-2.938s0.187-1.071,0.187-2.331c0-1.259,1.212-1.771,0.746-2.377
			c-0.706-0.918-2.13-0.183-2.504,1.411c-0.159,0.675,2.236,4.046-0.56,4.616c-2.305,0.469-4.161-1.033-3.171-3.573
			c0.778-1.996-2.5-1.329-2.5-0.239c0,1.951,0.833,5.942-3.77,3.362c-2.502-1.402-3.118-3.945-4.948-1.637
			c-1.43,1.805,1.78,1.837,3.001,2.622c1.965,1.262,2.779,0.475,2.779,4.074c0,1.603,4.047,2.491,5.781,3.342
			c5.233,2.563-5.539-7.471,3.473-4.33c4.016,1.401,0.161,9.469,5.824,3.806c5.458-5.458,2.242,9.315-1.966,4.629
			c-0.931-1.036-3.028,0.062-0.943,1.858c0.408,0.352,0.015,0.769-0.122,1.193c-0.686,2.126,0.766,1.963,1.656,1.299
			c0.785-0.584,0.982-1.565,1.053-1.623c1.975-1.592,3.531,1.197,2.342,2.203c-1.009,0.852,0.82,3.363,2.328,0.944
			c0.654-1.052,5.829,0.063,3.91-5.081c-0.14-0.377-0.858-2.748-0.745-3.031c0.477-1.2-0.301-2.193,1.538-3.326
			c1.352-0.834,1.662-1.06,2.913,0.063c2.095,1.88-1.153,7.059,4.104,4.999c3.694-1.447,7.787,2.382,5.756,4.113
			c-0.845,0.723-2.299,2.307-1.636,3.643c1.459,2.941,2.556,3.313,1.856,4.885c-0.678,1.525-4.027,0.379-4.401-0.117
			c-1.529-2.028-0.739-3.501-1.657-5.594c-0.535-1.22-1.191-0.249-2.459-0.082c-1.131,0.149-1.062,4.536-4.424,5.237
			c-3.605,0.751-3.626-3.597-5.707-1.969c-0.378,0.295-0.454,1.075,0.088,2.291c0.165,1.096,0.035,2.495-0.969,3.997
			c-0.784,1.174,1.256,1.964,1.037,2.826c-0.186,0.729-1.721,3.037-2.098,2.317c-0.363-0.694-0.065-1.091-0.198-1.687
			c-0.132-0.594,0.033-1.156-0.959-1.223s-2.612,0.265-2.479,1.389c0.132,1.124,0.826,0.926,0.231,1.455
			c-0.595,0.529-1.223-0.199-1.621,0.693c-0.396,0.894,0.133,1.521-0.562,1.752c-0.695,0.232-1.918-0.164-2.149,0.332
			c-0.231,0.495-0.396,1.09-0.165,1.884c0.231,0.794,0.297,1.323-0.298,1.521c-0.595,0.198-1.19,0.331-1.289,0.858
			c-0.412,2.195,1.99,1.795,2.347,1.373c0.363-0.43,0.049-1.52,0.314-1.951c0.264-0.43,0.694-0.297,1.058-0.893
			c0.364-0.594-0.264-0.958,0.595-1.256c0.86-0.297,0.661,0.133,1.356-0.363c0.694-0.496,0.396-0.926,1.223-1.025
			c0.827-0.1,1.421,0.1,1.124,0.794s-0.496,1.487,0.065,1.784c0.563,0.298,1.621,0.563,2.051-0.131
			c0.175-0.284,0.378-0.484,0.523-0.663v-0.832c-0.495-0.586-1.12-0.292-1.383-0.556c-0.264-0.264-0.364-0.859,0.099-0.893
			c0.508-0.036,0.938-0.121,1.284-0.236v0.776c0.697-0.364,1.642-0.593,2.907-0.593c1.081,0,1.273-0.301,1.213-1.363
			c-0.144-2.563-2.296-6.049,2.663-5.356c1.164,0.163,3.44,2.487,4.004,3.712c0.933,2.028,4.978-1.346-0.426-5.408
			c-0.366-0.275-1.219-2.711,1.934-2.068c1.773,0.361,1.194,2.411,6.044,2.027c0.512-0.039,0.982-0.069,1.411-0.045
			c0.099-1.541,0.197-3.027,0.287-4.379c0.197-2.914,0.365-5.2,0.535-7.291l-0.015-0.028c-0.108-0.208-0.056-0.454,0.078-0.722
			c0.097-1.158,0.196-2.27,0.303-3.416c-2.879-1.255-1.895-2.981,0.335-3.422c0.199-1.941,0.421-3.963,0.671-6.036
			c-0.39,0.139-0.7,0.229-1.023-0.144c-2.604-3.005,0.147-4.471,1.546-3.973c0.18-1.344,0.373-2.713,0.58-4.122
			c-0.461-0.128-1.084,0.178-1.905-0.087c-1.021-0.33-1.978-1.766-1.398-2.803c0.58-1.038,1.135-1.544,2.672-1.146
			c0.538,0.139,0.894,0.393,1.141,0.691c0.158-1.007,0.324-2.037,0.499-3.098c0.102-0.617,0.207-1.246,0.314-1.878
			c-1.375,0.917-3.046,0.447-2.748-1.646c0.198-1.378-0.984-0.951-1.443-2.396c-0.391-1.228,2.733-2.028,5.29-2.2
			c0.36-1.958,0.71-3.771,1.019-5.249l0.016-0.074c-0.226-0.383-0.314-0.914-0.314-1.513c0-0.789,0.389-1.301,1.021-1.609
			c0.343-1.387,0.606-2.255,0.802-2.892c0.316-1.027,0.455-1.456,0.564-1.69c0.108-0.234,0.186-0.275,0.259-0.268
			c0.075,0.006,0.145,0.061,0.234,0.161c0.091,0.1,0.201,0.245,0.344,0.551c0.144,0.307,0.318,0.774,0.602,1.409
			c0.283,0.635,0.674,1.437,1.009,2.222l0.102,0.243c2.862,0.378,5.954,1.503,6.214,1.852c2.537,3.411,3.332-0.743,7.009,0.007
			c1.509,0.308,1.788,2.892,1.01,3.757c-2.221,2.469-2.589,0.945-3.704,0.477c-3.059-1.285-2.855,0.825-1.525,2.7
			c1.629,2.298-0.436,5.337-1.42,5.66c-2.93,0.961-2.004-2.459-2.476-4.029c-0.472-1.573-1.327-2.477-2.406-2.776l0.068,0.325
			c0.181,0.837,0.468,1.92,0.567,2.738c0.1,0.816,0.009,1.369-0.086,1.89c-0.093,0.521-0.19,1.01-0.088,1.499
			c0.103,0.49,0.406,0.982,0.762,1.438l0.009,0.013c1.924,0.889,2.54,2.704,2.118,4.496l0.009,0.083
			c0.069,0.655,0.024,1.021-0.003,1.386c-0.025,0.365-0.033,0.729-0.063,1.191c-0.029,0.463-0.082,1.024-0.075,1.54l0.004,0.117
			c0.07-0.287,0.175-0.552,0.289-0.799c0.327-0.699,2.053-0.141,3.031-0.466c0.979-0.326,0.232-1.213,0.793-2.472
			c0.56-1.259,1.444-0.233,2.284-0.979c0.839-0.745-0.14-0.465-0.326-2.051c-0.187-1.585,2.098-2.051,3.496-1.958
			c1.399,0.093,1.166,0.886,1.352,1.725c0.187,0.84-0.232,1.398,0.28,2.378c0.512,0.979,0.84-0.14,2.191,0
			c1.352,0.141,1.235,0.537,1.469,0.723c0.233,0.188,0.233,0.84,0.093,1.865c-0.14,1.025-0.606,1.213-1.259,1.678
			c-0.652,0.467-2.005-0.979-2.656-0.932c-0.654,0.046-0.514,0.886-0.141,1.259c0.373,0.372,1.259-0.048,1.958,0.792
			s-0.141,1.119-0.747,2.099c-0.605,0.979-2.098,0.605-2.891,0.187c-0.792-0.42-0.512-1.539-0.093-2.519s-0.419-1.258-1.585-1.118
			c-1.166,0.139-0.746,0.746-1.725,1.445s-0.699,0.094-1.912,0.513c-1.212,0.419-0.326,0.933-0.839,1.772
			c-0.361,0.591-0.769,0.673-1.108,0.881c0.533,0.7,1.033,1.236,1.373,1.58c0.293,0.293,0.467,0.444,0.61,0.632
			c0.411-1.388,1.403-2.378,3.13-1.565c3.205,1.508,1.471,6.096-0.311,6.02c-1.479,0.014-1.641-0.084-1.742,1.393
			c-0.026,0.201-0.117,0.372-0.25,0.518c0.008,0.522,0.039,1.049,0.141,1.546c0.173,0.853,0.549,1.618,0.969,2.267
			c0.047,0.076,0.097,0.149,0.146,0.221c0.021-0.016,0.045-0.033,0.069-0.051c0.979-0.793,0-1.959,1.072-3.077
			c1.071-1.119,2.657-2.472,4.196-1.818c1.537,0.652,2.471,1.725,1.584,3.077c-0.885,1.352-3.403,1.864-3.543,3.311
			c-0.14,1.445,2.006,0.419,1.492,1.771c-0.514,1.352-2.051,2.004-1.632,2.843c0.419,0.84,0.513-0.419,2.146-0.14
			c1.631,0.28,2.377,1.353,2.004,1.959c-0.373,0.605-3.031,0.838-2.938,2.098c0.094,1.259,0.887,0.699,1.445,3.123
			c0.455,1.967-0.473,2.338-1.188,2.607c0.064,0.41,0.127,0.824,0.18,1.318c0.08,0.738,0.139,1.654,0.246,2.352
			c3.479,0.109,7.073-0.875,6.788,5.572c1.749,2.906,6.042,0.705,4.83-0.436c-2.655-1.414-2.591-3.924,0.442-4.374
			c0.263-0.039,1.383-0.423,2.428-0.823c0.918-0.352,3.707-1.755,1.389-2.766c-1.756-0.765-6.271,1.218-6.271-0.893
			c0-1.424,2.163-3.326-0.273-3.223c-1.12,0.047-1.027,3.146-2.1,4.855c-1.503,2.395-4.242-0.18-4.426-1.74
			c-0.228-1.941,1.945-4.016,1.758-6.379c-0.204-2.57,3.074-3.525,4.849-1.645c4.418,4.684,10.094-3.151,14.967-0.42
			c1.382,0.773,4.234,5.762,1.799,6.873c-2.943,0-4.965-3.533-4.965,0.424c0,1.561,5.368,1.563,7.012,0.782
			c1.344-0.639,5.224-1.142,7.635-0.089c2.545,1.111,3.219-0.072,1.975-2.283c-0.475-0.846-1.73-0.31-3.374-0.67
			c-0.784-0.173,0.399-1.01,0.757-1.894c0.652-1.616-1.469-2.066-1.754-2.066c-4.602,0-4.906-2.833-0.554-2.702
			c0.481,0.014,2.146-1.24-0.344-1.766c-7.417-1.571-1.694,4.022-6.34,2.616c-2.804-0.848-4.997-3.798-2.104-4.271
			c3.12-0.511,2.333,0.699,3.204-3.579c0.212-1.037,2.177-1.251,3.469-0.209c4.432,3.571,2.051-2.563,0.642-2.881
			c-0.198-0.042-2.505-1.676-3.917-1.967c-1.433-0.264-1.622,0.868-1.519,2.484c0.13,2.043,0.099,3.009-0.653,4.073
			c-0.935,1.317-2.724,2.343-3.691,0.441c-1.809-3.557-1.998-1.31-2.915-2.785c-1.097-1.769,1.469-2.523,2.892-2.523
			c4.877,0,1.243-7.23-1.207-1.958c-0.471,1.012-1.518,1.41-2.445,1.281c-2.191-0.303-1.771-3.176-1.23-3.572
			c0.291-0.212,0.668-0.099,0.471-2.465c-0.162-1.95,1.705-3.834,3.682-3.979c3.276-0.243,1.711,2.065,4.011,1.597
			c0.399-0.082,0.423-2.333,0.869-2.482c0.772-2.527,4.651,0.638,5.291-1.771c0.479-1.805,3.976-1.45,6.604-0.652
			c0.973,0.294,2.91,1.521,3.652,0.296c0.363-0.601,0.129-1.551,1.283-2.358c1.01-0.707,2.536-0.648,3.209,0.137
			c0.84,0.979,0.141,2.098,0.84,3.311c0.699,1.211,2.004,0.839,1.631,2.518c-0.372,1.679-1.305,2.984-0.652,3.123
			c1.472,0.315,5.121-0.156,4.625,1.319c-0.16,0.479-0.066,1.935-1.432,2.786c-1.991,1.241-5.081,0.637-5.99-1.728
			c-0.467-1.212-1.445-1.679-0.652-2.938c0.792-1.259,0.186-1.071,0.186-2.331c0-1.259,1.213-1.771,0.746-2.377
			c-0.706-0.918-2.129-0.183-2.504,1.411c-0.158,0.675,2.236,4.046-0.561,4.616c-2.305,0.469-4.16-1.033-3.17-3.573
			c0.776-1.996-2.5-1.329-2.5-0.239c0,1.951,0.832,5.942-3.771,3.362c-2.502-1.402-3.117-3.945-4.946-1.637
			c-1.432,1.805,1.779,1.837,3,2.622c1.965,1.262,2.779,0.475,2.779,4.074c0,1.603,4.048,2.491,5.781,3.342
			c5.232,2.563-5.539-7.471,3.474-4.33c4.015,1.401,0.16,9.469,5.823,3.806c2.307-2.305,3.679-0.955,3.637,0.67
			c-0.029,1.128-1.234,2.473-1.235,2.474c-0.894-0.01-2.065,4.049-4.366,1.485c-0.931-1.036-3.029,0.062-0.943,1.858
			c0.408,0.352,0.016,0.769-0.122,1.193c-0.686,2.126,0.766,1.963,1.656,1.299c0.786-0.584,0.981-1.565,1.054-1.623
			c1.403-1.131,2.594-0.051,2.74,1.029v0.433c-0.041,0.283-0.168,0.546-0.398,0.741c-1.104,0.932-0.07,1.081,0.398,1.705
			c0,2.108-0.52,2.383-1.648,4.08c-0.427-0.196-1.297,0.648-2.824,0.596c-5.316-0.182-2.128,3.656-3.753,3.922
			c-2.085,0.342,0.02,1.395,0.831,1.914c0.299-0.258,0.643-0.465,0.955-0.445c2.174,0.124,0.238-2.863,1.907-2.803
			c1.433,0.053,3.123,1.334,4.761,0.396c2.85-1.629-0.58,7.918-1.192,6.751c-0.364-0.694-0.066-1.091-0.198-1.687
			c-0.133-0.594,0.033-1.156-0.959-1.223c-0.991-0.066-2.611,0.265-2.479,1.389s0.827,0.926,0.231,1.455s-1.224-0.199-1.619,0.693
			c-0.398,0.894,0.131,1.521-0.563,1.752c-0.693,0.232-1.917-0.164-2.148,0.332c-0.231,0.495-0.397,1.09-0.165,1.884
			c0.137,0.472,0.216,0.85,0.133,1.122c0.523-0.009,1.119-0.017,1.867-0.028c0.044-0.053,0.088-0.112,0.132-0.185
			c0.364-0.594-0.265-0.958,0.596-1.256c0.858-0.297,0.661,0.133,1.354-0.363c0.695-0.496,0.396-0.926,1.224-1.025
			s1.422,0.1,1.124,0.794c-0.297,0.694-0.496,1.487,0.066,1.784c0.105,0.057,0.226,0.11,0.357,0.158l1.456-0.035
			c0.091-0.065,0.171-0.148,0.237-0.254c0.175-0.284,0.377-0.484,0.522-0.663v-0.832c-0.495-0.586-1.12-0.292-1.383-0.556
			c-0.265-0.264-0.363-0.859,0.1-0.893c0.412-0.029,0.772-0.091,1.079-0.175v0.715c0.697-0.364,1.643-0.593,2.906-0.593
			c1.082,0,1.273-0.301,1.213-1.363c-0.143-2.563-2.296-6.049,2.664-5.356c1.164,0.163,3.44,2.487,4.004,3.712
			C172.873,128.995,176.918,125.621,171.514,121.559z M171.368,86.209c-0.151-2.477,3.368-1.66,3.897-0.593
			c0.971,1.958-1.853,3.119-1.387,4.044c1.166,2.311-1.886,4.336,1.929,4.066c0.823-0.06,1.581-0.508,2.064,0.072
			c2.497,2.995,0.374,3.666-0.024,4.72c-0.016,0.044,1.408,5.293-2.354,4.919c-3.281-0.326-0.889-3.703-1.666-5.035
			c-0.532-0.912-2.232-0.354-2.047-1.271c0.949-4.654-2.582-1.576-2.582-5.518C169.199,89.078,171.603,90.066,171.368,86.209z
			 M166.143,31.186c1.154,0.029,1.19,0.799,1.148,1.17c-0.127,1.107-1.178,0.391-1.766,1.163c-0.596,0.901-1.811,0.875-1.644-0.29
			c0.088-0.608-0.435-0.419-0.638-1.058C163.042,31.534,164.984,31.157,166.143,31.186z M156.715,25.135
			c0.412,0.01,0.426,0.286,0.41,0.418c-0.045,0.396-0.421,0.141-0.631,0.417c-0.214,0.322-0.648,0.313-0.589-0.104
			c0.031-0.218-0.155-0.151-0.229-0.379C155.605,25.26,156.3,25.125,156.715,25.135z M155.839,33.34
			c0.366,0.489,0.601-0.128,1.03-0.26c0.843-0.258,0.71,0.549,0.854,0.916c0.234,0.603-0.006,0.207,0.811,0.207
			c0.714,0,0.797,2.138-0.363,1.616c-0.185-0.083-0.342-0.984-0.529-0.903c-0.761,0.327-1.024-0.2-1.252-0.039
			c-0.249,0.178,0.209,0.986-0.184,1.816c-0.156,0.329-0.396,0.275-0.734,0.287c-0.491,0.017-0.088-1.093-0.526-1.321
			c-0.873-0.455-0.49-0.579-0.65-1.29c0.009,0.042-0.25-0.95,0.241-1.113C154.883,33.143,155.577,32.992,155.839,33.34z
			 M151.497,12.957c0.292-0.097,0.876-0.224,1.096,0.069c0.308,0.411,0.505-0.107,0.866-0.218c0.707-0.216,0.597,0.461,0.716,0.77
			c0.198,0.507-0.003,0.174,0.683,0.174c0.6,0,0.669,1.797-0.307,1.359c-0.154-0.069-0.286-0.827-0.443-0.759
			c-0.641,0.275-0.861-0.168-1.053-0.032c-0.209,0.149,0.176,0.829-0.154,1.526c-0.133,0.277-0.334,0.232-0.616,0.242
			c-0.413,0.014-0.075-0.919-0.442-1.11c-0.734-0.382-0.412-0.487-0.547-1.083C151.303,13.928,151.084,13.093,151.497,12.957z
			 M151.785,52.313c1.128-0.217,1.518-0.13,1.518-0.738c0-1.906,0.918-4.032,3.125-2.994c2.982,1.404,1.368,5.673-0.289,5.603
			c-1.376,0.013-1.527-0.079-1.621,1.296c-0.145,1.079-2.281,1.279-2.646,1.128c-0.52-0.216,0.217,0.824-0.737,1.475
			s-4.034,0.521-4.902-0.304c-0.867-0.824-1.476-1.865-0.435-2.819c1.043-0.955,2.17-1.432,3.168-0.912
			c0.998,0.521,1.648,1.128,2.082,0.564C151.481,54.047,150.656,52.528,151.785,52.313z M150.701,41.526
			c0.391,0.818-0.433,1.467-0.822,2.236c-0.424,0.836,0.631,1.445,0.537,2.511c-0.055,0.632-1.117,0.888-1.651,0.53
			c-1.042-0.698-0.249-2.199-1.968-1.86c-1.059,0.208-1.129-2.427,0.178-2.47c0.451-0.016,0.721-0.364,0.989-0.668
			C148.4,41.312,150.307,40.697,150.701,41.526z M146.668,23.289c0.247,0.219,0.112,0.572,0.424,0.509
			c0.311-0.064,0.339-0.48,0.813-0.396c0.473,0.084,0.607,0.247,0.622,0.487c0.014,0.241,0.021,0.538-0.417,0.729
			c-0.438,0.19-0.53,0.353-0.77,0.544c-0.396,0.314-1.178,0.348-1.111-0.24c0.036-0.311,0.148-0.333,0.156-0.53
			c0.008-0.198,0-0.212-0.346-0.148C145.146,24.407,145.969,22.669,146.668,23.289z M145.596,31.003
			c0.895,0.022,0.922,0.62,0.889,0.907c-0.098,0.859-0.912,0.304-1.369,0.902c-0.461,0.699-1.402,0.678-1.273-0.224
			c0.067-0.473-0.336-0.326-0.494-0.821C143.19,31.273,144.696,30.981,145.596,31.003z M146.133,59.915
			c0.153,1.331-0.334,2.561-4.061,2.561c-1.309,0-1.211-1.051-3.176-0.561c-1.963,0.492-1.788,1.761-4.242,3.343
			c-2.029,1.307-5.035-1.462-2.887-4.634c1.043-1.54,4.441-4.066,6.16-2.348c0.818,0.818,1.527,0.054,4.473-0.601
			C145.078,57.08,145.975,58.544,146.133,59.915z M141.6,17.736c0.412,0.01,0.426,0.285,0.41,0.418
			c-0.045,0.396-0.421,0.14-0.632,0.417c-0.214,0.322-0.647,0.313-0.589-0.104c0.032-0.218-0.154-0.15-0.228-0.379
			C140.488,17.861,141.184,17.726,141.6,17.736z M139.914,47.281c0.532,1.367-0.014,0.469,1.836,0.469
			c1.616,0,1.804,4.838-0.824,3.659c-0.416-0.187-0.771-2.228-1.195-2.045c-1.723,0.742-2.32-0.454-2.834-0.087
			c-0.564,0.403,0.472,2.232-0.419,4.11c-0.353,0.746-0.896,0.625-1.658,0.65c-1.112,0.038-0.202-2.474-1.192-2.989
			c-1.977-1.029-1.11-1.311-1.473-2.918c0.021,0.093-0.566-2.152,0.545-2.521c0.786-0.26,2.358-0.601,2.951,0.188
			c0.831,1.106,1.36-0.29,2.334-0.587C139.891,44.626,139.591,46.45,139.914,47.281z M135.465,34.123
			c0.244,0.49,0.022,1.417-0.172,1.886c-0.354,0.86,0.734,0.087,1.213,1.273c0.227,0.56,0.32,0.886-0.25,1.159
			c-0.546,0.259-1.955,0.312-2.254-0.283c-0.381-0.76,0.817-1.853-0.063-1.955c-0.53-0.061-0.678-1.604-0.885-1.831
			c0-0.545,0.507-1.112,1.23-1.078C135.063,33.33,135.068,33.325,135.465,34.123z M131.842,26.829
			c0.275,0.245,0.126,0.64,0.474,0.569c0.349-0.071,0.38-0.537,0.909-0.442c0.529,0.095,0.68,0.276,0.695,0.545
			c0.016,0.269,0.023,0.602-0.467,0.815c-0.489,0.213-0.592,0.396-0.861,0.609c-0.443,0.352-1.316,0.388-1.241-0.269
			c0.04-0.348,0.167-0.372,0.175-0.593c0.008-0.222,0-0.238-0.389-0.167C130.14,28.08,131.059,26.136,131.842,26.829z
			 M133.123,73.166c-0.832,0.117-1.243,0.263-1.4,1.117c-0.11,0.596-0.365,1.753-0.831,2.518c-1.011,1.662-3.482,0.267-3.987-0.563
			c-0.491-0.807-0.911-2.854,0.529-3.726c0.66-0.399,1.481-0.606,2.256-0.446c0.604,0.125,0.287-0.066,0.829-1.417
			C132.885,64.752,136.772,72.649,133.123,73.166z M130.093,63.328c0,2.687-0.179,3.582-1.433,4.299
			c-1.255,0.717-2.239,1.12-2.688-0.896c-0.138-0.622,0.814-1.605,1.049-2.582c0.73-3.064-1.958-3.745-1.943-3.198
			c0.095,3.688-4.078,3.665-4.792,3.362c-1.165-0.492-0.896-1.253-1.612-0.761c-0.717,0.492-1.971,1.343-2.418,0.179
			c-0.448-1.165-1.389-1.612-0.627-2.821c0.761-1.209,0.179-1.03,0.179-2.239c0-1.209,1.164-1.702,0.717-2.285
			c-0.448-0.582-2.687,0.494-3.046-0.401c-1.418-3.549,2.529-4.521,3.718-3.135c0.806,0.94,0.134,2.015,0.806,3.179
			c0.672,1.164,1.926,0.806,1.567,2.418c-0.358,1.612-1.253,2.866-0.628,3c0.628,0.134,2.016-0.807,3.135-1.12
			c1.119-0.314,2.508-0.404,1.613-1.299c-0.896-0.896-2.643-1.791-2.239-2.956c0.402-1.164,1.925-2.865,4.343-1.164
			c2.419,1.701,0.582,2.508,1.479,4.389C128.256,61.447,130.093,60.642,130.093,63.328z M128.584,52.917
			c-1.012,0.481-3.623,0.579-4.178-0.525c-0.706-1.407,1.515-3.434-0.115-3.621c-0.983-0.113-1.258-2.972-1.639-3.393
			c0-1.01,0.939-2.06,2.28-1.998c1.438,0.067,1.452,0.058,2.186,1.535c0.452,0.909,0.042,2.626-0.317,3.497
			c-0.658,1.594,1.36,0.161,2.247,2.357C129.467,51.808,129.643,52.413,128.584,52.917z M127.004,20.845
			c0.842-0.258,0.71,0.548,0.853,0.915c0.234,0.604-0.006,0.207,0.812,0.207c0.713,0,0.795,2.138-0.365,1.617
			c-0.184-0.082-0.34-0.984-0.527-0.903c-0.762,0.328-1.025-0.201-1.252-0.038c-0.25,0.177,0.209,0.986-0.186,1.815
			c-0.155,0.33-0.396,0.276-0.732,0.287c-0.49,0.017-0.089-1.093-0.527-1.321c-0.873-0.455-0.489-0.579-0.648-1.289
			c0.009,0.042-0.252-0.951,0.24-1.113c0.347-0.116,1.041-0.266,1.303,0.082C126.34,21.593,126.574,20.976,127.004,20.845z
			 M124.123,6.663c0.248,0.219,0.113,0.572,0.424,0.509c0.312-0.063,0.34-0.481,0.813-0.396c0.473,0.085,0.608,0.248,0.622,0.488
			s0.021,0.538-0.417,0.728c-0.438,0.19-0.53,0.354-0.771,0.544c-0.396,0.315-1.177,0.348-1.109-0.24
			c0.035-0.312,0.148-0.333,0.155-0.53s0-0.211-0.347-0.149C122.602,7.781,123.424,6.043,124.123,6.663z M122.211,36.504
			c1.812-0.223,1.979-1.177,3.063-0.634c0.504,0.252,0.113,1.849,0.645,1.74c0.529-0.108,0.657-1.691,1.465-1.546
			c0.807,0.144,1.035,0.421,1.059,0.832c0.024,0.409,0.037,0.915-0.71,1.24s-0.904,0.603-1.313,0.928
			c-0.676,0.537-2.006,0.593-1.893-0.409c0.061-0.53,0.254-0.566,0.266-0.904c0.012-0.338,0-0.362-0.59-0.253
			c-0.215,0.04-1.982-0.052-3.074,0.406c-0.678,0.284-0.606,1.17-1.223,1.249c-1.371,0.178-1.963-0.779-2.009-1.014
			C117.77,37.513,119.909,36.787,122.211,36.504z M120.743,31.12c0.612,0.255,0.438,0.794,0.743,1.048
			c0.307,0.255,0.286,0.886-0.029,1.171c-0.316,0.285-1.172,0.305-1.548,0.01c-0.377-0.296-0.315-0.469-0.499-0.937
			C118.887,31.076,119.702,30.686,120.743,31.12z M119.824,27.257c0.285,0.252,0.131,0.659,0.488,0.585
			c0.357-0.074,0.391-0.553,0.934-0.455c0.545,0.098,0.7,0.284,0.716,0.561c0.017,0.276,0.024,0.618-0.479,0.837
			c-0.504,0.22-0.609,0.406-0.886,0.626c-0.456,0.361-1.353,0.399-1.276-0.277c0.041-0.357,0.172-0.381,0.179-0.609
			c0.009-0.228,0-0.244-0.397-0.171C118.074,28.543,119.021,26.545,119.824,27.257z M117.711,13.72
			c0.412,0.01,0.426,0.285,0.41,0.418c-0.045,0.396-0.422,0.139-0.633,0.417c-0.212,0.322-0.646,0.313-0.587-0.104
			c0.031-0.217-0.156-0.149-0.228-0.378C116.6,13.844,117.296,13.708,117.711,13.72z M116.756,43.541
			c0.896-0.61,1.941-0.212,2.152,0.077c0.213,0.289,0.926,1.067-0.043,1.82s-1.43,0.454-2.062,0.881
			c-0.633,0.428,0.308,1.302-0.398,1.872s-1.396,0.534-1.935,0.322c-0.537-0.212-1.191-0.939-1.922-0.34
			c-0.732,0.6-0.453,1.462-1.225,1.458c-3.688-0.018-2.541-3.149-1.266-3.275c0.849-0.084,1.174,0.665,1.543,0.007
			c0.369-0.659,0.617-1.061,1.635-1.514c1.016-0.453,1.725,0.271,2.163,0.241C115.838,45.063,115.86,44.152,116.756,43.541z
			 M112.225,31.907c1.121,1.507,1.471-0.328,3.096,0.003c0.668,0.136,0.791,1.278,0.447,1.66c-0.981,1.09-1.145,0.417-1.637,0.21
			c-1.352-0.568-1.262,0.364-0.674,1.193c0.719,1.015-0.192,2.357-0.627,2.5c-1.295,0.424-0.887-1.086-1.094-1.781
			c-0.369-1.231-1.273-1.535-2.313-1.069c-0.295,0.134-1.35-0.316-0.689-0.975c0.6-0.598,2.605,0.158,1.789-1.305
			c-0.349-0.624-1.634,0.295-2.186,0.458c-0.8,0.235-1.038-0.23-1.038-0.885C107.3,30.091,112.008,31.616,112.225,31.907z
			 M108.721,25.988c0.732,0.018,0.756,0.507,0.729,0.742c-0.08,0.703-0.747,0.249-1.12,0.738c-0.378,0.573-1.149,0.556-1.043-0.184
			c0.054-0.386-0.276-0.267-0.405-0.672C106.752,26.209,107.984,25.97,108.721,25.988z M100.58,49.302
			c1.502,0.513,1.432-0.592,2.289-1.361c0.912-0.543,2.07,0.273,2.324,1.024c0.481,0.844-0.004,2.429-0.86,2.383
			c-0.979-0.053-1.79-1.265-2.225,0.602C101.186,55.909,97.932,48.398,100.58,49.302z M95.627,19.067
			c0.604,0.206,0.574-0.238,0.92-0.548c0.367-0.218,0.832,0.111,0.935,0.412c0.194,0.339-0.002,0.977-0.346,0.958
			c-0.394-0.021-0.72-0.509-0.896,0.241C95.87,21.724,94.562,18.704,95.627,19.067z M91.557,23.365
			c0.416-0.137,1.245-0.317,1.559,0.099c0.438,0.584,0.717-0.153,1.232-0.311c1.006-0.308,0.848,0.656,1.018,1.095
			c0.281,0.722-0.007,0.248,0.97,0.248c0.853,0,0.952,2.554-0.435,1.932c-0.221-0.099-0.408-1.176-0.633-1.08
			c-0.908,0.392-1.224-0.239-1.495-0.045c-0.298,0.212,0.249,1.178-0.221,2.169c-0.187,0.395-0.474,0.33-0.876,0.344
			c-0.588,0.02-0.105-1.307-0.63-1.579c-1.043-0.543-0.585-0.692-0.776-1.54C91.28,24.746,90.97,23.561,91.557,23.365z
			 M93.091,31.145c-1.083,0.198-0.086-1.908,0.762-1.157c0.3,0.266,0.138,0.695,0.515,0.617c0.377-0.077,0.411-0.583,0.984-0.479
			c0.574,0.103,0.738,0.299,0.754,0.591c0.018,0.291,0.026,0.651-0.505,0.882s-0.642,0.428-0.935,0.659
			c-0.48,0.382-1.425,0.421-1.344-0.291c0.042-0.377,0.18-0.403,0.188-0.643C93.519,31.085,93.51,31.068,93.091,31.145z
			 M83.184,10.808c0.248,0.219,0.113,0.572,0.424,0.509c0.311-0.064,0.339-0.481,0.813-0.396c0.473,0.085,0.608,0.247,0.622,0.487
			s0.021,0.538-0.417,0.728c-0.439,0.191-0.53,0.354-0.771,0.544c-0.396,0.315-1.177,0.347-1.11-0.24
			c0.036-0.312,0.148-0.333,0.156-0.53c0.007-0.198,0-0.212-0.347-0.149C81.663,11.926,82.485,10.188,83.184,10.808z M80.755,26.217
			c0.343,0.401,0.057,0.859,0.343,1.354c0.286,0.496,0.821,0.344,0.668,1.03c-0.153,0.687-0.534,1.221-0.267,1.278
			c0.267,0.057,0.858-0.344,1.335-0.478c0.477-0.133,1.068-0.171,0.687-0.553c-0.381-0.381-1.125-0.763-0.953-1.259
			c0.171-0.496,0.82-1.221,1.85-0.496c1.03,0.725,0.248,1.068,0.629,1.87c0.419,0.916,1.202,0.572,1.202,1.716
			s-0.077,1.526-0.611,1.831c-0.534,0.305-0.953,0.477-1.145-0.382c-0.058-0.265,0.348-0.684,0.446-1.1
			c0.312-1.304-0.833-1.594-0.828-1.361c0.041,1.571-1.737,1.561-2.041,1.432c-0.496-0.209-0.382-0.534-0.688-0.324
			c-0.305,0.209-0.839,0.573-1.03,0.077c-0.19-0.496-0.591-0.688-0.267-1.202c0.324-0.516,0.077-0.439,0.077-0.954
			c0-0.515,0.496-0.725,0.305-0.974c-0.19-0.248-1.144,0.211-1.297-0.171C78.567,26.041,80.25,25.628,80.755,26.217z M78.351,44.063
			c0.062-0.334,0.438-0.418,0.814-0.543c0.376-0.125,0.334-0.459,0.188-0.96c-0.146-0.501-0.042-0.877,0.104-1.189
			c0.147-0.313,0.919-0.063,1.357-0.209c0.439-0.147,0.104-0.543,0.354-1.106c0.251-0.563,0.648-0.104,1.024-0.439
			c0.376-0.333-0.063-0.209-0.146-0.918c-0.084-0.709,0.939-0.918,1.565-0.877c0.625,0.042,0.521,0.396,0.605,0.772
			c0.083,0.376-0.104,0.626,0.125,1.064c0.23,0.439,0.376-0.062,0.981,0c0.606,0.063,0.553,0.24,0.658,0.324
			c0.104,0.083,0.104,0.376,0.042,0.835c-0.062,0.459-0.271,0.542-0.563,0.751c-0.292,0.208-0.897-0.438-1.189-0.418
			c-0.292,0.021-0.229,0.397-0.063,0.563c0.167,0.167,0.564-0.02,0.877,0.356c0.313,0.375-0.063,0.5-0.334,0.939
			c-0.271,0.438-0.939,0.271-1.294,0.083c-0.355-0.188-0.23-0.689-0.042-1.127c0.188-0.439-0.188-0.563-0.71-0.501
			c-0.522,0.063-0.333,0.334-0.772,0.647c-0.438,0.313-0.313,0.042-0.855,0.229c-0.543,0.188-0.146,0.417-0.376,0.793
			s-0.5,0.293-0.667,0.563c-0.167,0.271,0.031,0.961-0.199,1.231C79.607,45.195,78.092,45.448,78.351,44.063z M74.958,34.513
			c0.313,0.659-0.348,1.179-0.661,1.796c-0.341,0.671,0.505,1.16,0.431,2.018c-0.044,0.506-0.898,0.712-1.326,0.426
			c-0.222-0.149,0.154-2.982-0.879-2.535c-0.905,0.392-1.955,3.375-3.266,3.746c-0.827,0.235-2.191-0.946-1.456-2.232
			c0.233-0.409,1.02,1.031,1.517,0.665c0.959-0.707,1.845-3.095,2.646-3.122c0.363-0.012,0.579-0.293,0.795-0.537
			C73.11,34.341,74.642,33.847,74.958,34.513z M69.82,23.362c0.382-0.012,0.611-0.307,0.838-0.564
			c0.37-0.418,1.982-0.938,2.317-0.236c0.33,0.693-0.367,1.241-0.697,1.892c-0.359,0.708,0.533,1.222,0.455,2.125
			c-0.045,0.535-0.946,0.751-1.397,0.449c-0.881-0.59-0.21-1.86-1.665-1.573C68.774,25.629,68.715,23.399,69.82,23.362z
			 M66.855,31.848c0.724-0.671-0.447-2.79,0.607-2.67c1.155,0.029,0.715,2.807,0.672,3.179c-0.126,1.107-1.177,0.391-1.766,1.163
			c-0.594,0.901-1.809,0.875-1.643-0.29c0.087-0.608-0.435-0.419-0.637-1.058C64.277,31.615,66.129,32.521,66.855,31.848z
			 M60.626,59.993c0.666-2.147,2.034-2.482,1.404-4.641c-0.012-0.043-0.024-0.085-0.034-0.127v-1.614
			c0.064-0.235,0.15-0.452,0.245-0.656c0.294-0.63,1.85-0.125,2.733-0.42c0.883-0.294,0.21-1.093,0.715-2.229
			c0.504-1.135,1.303-0.209,2.06-0.882c0.756-0.674-0.127-0.421-0.295-1.851c-0.168-1.429,1.893-1.85,3.154-1.766
			s1.05,0.799,1.219,1.557c0.168,0.756-0.21,1.261,0.252,2.144c0.462,0.882,0.756-0.126,1.976,0c1.22,0.125,1.114,0.483,1.324,0.651
			c0.211,0.168,0.211,0.756,0.084,1.681c-0.125,0.925-0.546,1.094-1.134,1.514c-0.589,0.42-1.809-0.883-2.397-0.841
			c-0.588,0.042-0.462,0.799-0.125,1.135c0.336,0.336,1.135-0.042,1.765,0.714c0.631,0.757-0.125,1.01-0.672,1.892
			c-0.547,0.883-1.892,0.547-2.607,0.169c-0.715-0.379-0.462-1.388-0.084-2.271c0.378-0.883-0.378-1.135-1.429-1.009
			c-1.051,0.125-0.672,0.672-1.556,1.303c-0.883,0.631-0.631,0.084-1.724,0.462c-1.093,0.379-0.295,0.841-0.756,1.598
			c-0.463,0.757-1.01,0.588-1.346,1.135c-0.336,0.547,0.063,1.934-0.399,2.48c-0.61,0.722-0.564,1.208-0.942,1.51
			C60.698,62.721,60.185,61.418,60.626,59.993z M59.172,34.203c0.714,0,0.797,2.138-0.364,1.616
			c-0.184-0.083-0.341-0.984-0.528-0.903c-0.76,0.327-1.024-0.2-1.25-0.039c-0.25,0.178,0.418,3.893,0.026,4.723
			c-0.156,0.329-0.396,0.275-0.733,0.286c-0.233,0.008,0.11-1.265,0.043-2.238c-0.073-1.076-0.552-1.87-0.781-1.989
			c-0.873-0.455-0.491-0.579-0.65-1.29c0.009,0.042-0.251-0.95,0.241-1.113c0.346-0.114,1.041-0.265,1.302,0.083
			c0.368,0.489,0.602-0.128,1.032-0.26c0.842-0.258,0.709,0.549,0.852,0.916C58.597,34.599,58.355,34.203,59.172,34.203z
			 M57.962,23.471c0.587,0.216-0.499,0.719-0.596,1.216c-0.306,1.574,0.5-0.047,0.399,0.867c-0.046,0.396-0.422,0.141-0.632,0.417
			c-0.213,0.322-0.648,0.313-0.588-0.104c0.032-0.218,0.095-0.699,0.023-0.927C56.535,24.395,57.547,23.46,57.962,23.471z
			 M51.934,13.893c-0.007-0.035-0.21-0.799,0.203-0.936c0.292-0.097,0.875-0.224,1.095,0.069c0.31,0.411,0.505-0.107,0.868-0.218
			c0.707-0.216,0.596,0.461,0.716,0.77c0.198,0.507-0.005,0.174,0.682,0.174c0.256,0,1.179,0.66,1.411,1.17
			c0.314,0.689-0.152,1.259-0.712,1.008c-0.154-0.069-1.292-1.646-1.448-1.579c-0.639,0.275-0.861-0.168-1.052-0.032
			c-0.209,0.149-0.168,1.912-0.499,2.609c-0.131,0.277-0.333,0.232-0.615,0.241c-0.414,0.014-0.076-0.918-0.443-1.109
			C51.403,15.677,52.068,14.489,51.934,13.893z M52.424,52.313c1.128-0.217,1.519-0.13,1.519-0.738c0-1.906,0.917-4.032,3.123-2.994
			c2.983,1.404,1.37,5.673-0.287,5.603c-1.377,0.013-1.528-0.079-1.622,1.296c-0.144,1.079-2.282,1.279-2.646,1.128
			c-0.521-0.216,0.217,0.824-0.737,1.475c-0.955,0.651-4.035,0.521-4.902-0.304c-0.869-0.824-1.476-1.865-0.434-2.819
			c1.041-0.955,2.169-1.432,3.167-0.912c0.998,0.521,1.649,1.128,2.083,0.564C52.12,54.047,51.296,52.528,52.424,52.313z
			 M51.341,41.526c0.391,0.818-0.433,1.467-0.822,2.236c-0.424,0.836,0.63,1.445,0.538,2.511c-0.055,0.632-1.119,0.888-1.653,0.53
			c-1.042-0.698-0.249-2.199-1.967-1.86c-1.059,0.208-1.128-2.427,0.177-2.47c0.453-0.016,0.721-0.364,0.99-0.668
			C49.041,41.312,50.946,40.697,51.341,41.526z M47.307,23.289c0.248,0.219,0.114,0.572,0.425,0.509
			c0.311-0.064,0.339-0.48,0.812-0.396c0.474,0.084,0.608,0.247,0.623,0.487c0.014,0.241,0.021,0.538-0.417,0.729
			c-0.438,0.19-0.53,0.353-0.771,0.544c-0.396,0.314-1.176,0.348-1.109-0.24c0.035-0.311,0.149-0.333,0.155-0.53
			c0.007-0.198,0-0.212-0.346-0.148C45.785,24.407,46.607,22.669,47.307,23.289z M46.235,31.003c1.291-1.192,2.244-0.49,2.21-0.202
			c-0.05,0.436-0.758,0.398-1.373,0.723c-0.595,0.314-1.093,0.994-1.317,1.289c-0.461,0.699-1.403,0.678-1.273-0.224
			c0.067-0.473-0.337-0.326-0.495-0.821C43.83,31.273,45.336,30.981,46.235,31.003z M46.771,59.915
			c0.153,1.331-0.333,2.561-4.059,2.561c-1.309,0-1.213-1.051-3.177-0.561c-1.964,0.492-1.788,1.761-4.242,3.343
			c-2.029,1.307-5.034-1.462-2.887-4.634c1.043-1.54,4.441-4.066,6.16-2.348c0.818,0.818,1.527,0.054,4.473-0.601
			C45.717,57.08,46.614,58.544,46.771,59.915z M42.239,17.736c0.413,0.01,0.426,0.285,0.41,0.418
			c-0.045,0.396-0.421,0.14-0.632,0.417c-0.212,0.322-0.646,0.313-0.587-0.104c0.031-0.218-0.156-0.15-0.228-0.379
			C41.128,17.861,41.824,17.726,42.239,17.736z M40.553,47.281c0.532,1.367-0.012,0.469,1.836,0.469
			c1.617,0,1.803,4.838-0.825,3.659c-0.415-0.187-0.771-2.228-1.195-2.045c-1.722,0.742-2.319-0.454-2.832-0.087
			c-0.565,0.403,0.47,2.232-0.419,4.11c-0.354,0.746-0.896,0.625-1.659,0.65c-1.112,0.038-0.202-2.474-1.192-2.989
			c-1.976-1.029-1.11-1.311-1.472-2.918c0.021,0.093-0.568-2.152,0.545-2.521c0.786-0.26,2.357-0.601,2.951,0.188
			c0.831,1.106,1.359-0.29,2.333-0.587C40.53,44.626,40.23,46.45,40.553,47.281z M36.105,34.123c0.243,0.49,0.022,1.417-0.172,1.886
			c-0.355,0.86,0.734,0.087,1.213,1.273c0.227,0.56,0.321,0.886-0.25,1.159c-0.546,0.259-1.956,0.312-2.254-0.283
			c-0.382-0.76,0.816-1.853-0.063-1.955c-0.531-0.061-0.679-1.604-0.884-1.831c0-0.545,0.506-1.112,1.23-1.078
			C35.701,33.33,35.709,33.325,36.105,34.123z M32.481,26.829c0.276,0.245,0.126,0.64,0.474,0.569
			c0.347-0.071,0.379-0.537,0.909-0.442c0.529,0.095,0.68,0.276,0.695,0.545c0.016,0.269,0.023,0.602-0.466,0.815
			c-0.491,0.213-0.593,0.396-0.862,0.609c-0.443,0.352-1.315,0.388-1.241-0.269c0.04-0.348,0.166-0.372,0.174-0.593
			c0.008-0.222,0-0.238-0.387-0.167C30.779,28.08,31.699,26.136,32.481,26.829z M33.762,73.166c-0.831,0.117-1.242,0.263-1.4,1.117
			c-0.11,0.596-0.365,1.753-0.83,2.518c-1.012,1.662-3.484,0.267-3.989-0.563c-0.491-0.807-0.911-2.854,0.53-3.726
			c0.659-0.399,1.48-0.606,2.255-0.446c0.605,0.125,0.288-0.066,0.83-1.417C33.525,64.752,37.411,72.649,33.762,73.166z
			 M30.731,63.328c0,2.687-0.178,3.582-1.433,4.299c-1.253,0.717-2.239,1.12-2.686-0.896c-0.139-0.622,0.814-1.605,1.047-2.582
			c0.731-3.064-1.958-3.745-1.943-3.198c0.095,3.688-4.077,3.665-4.792,3.362c-1.164-0.492-0.895-1.253-1.612-0.761
			c-0.717,0.492-1.97,1.343-2.418,0.179c-0.447-1.165-1.388-1.612-0.626-2.821c0.761-1.209,0.179-1.03,0.179-2.239
			c0-1.209,1.164-1.702,0.716-2.285c-0.447-0.582-2.687,0.494-3.045-0.401c-1.42-3.549,2.529-4.521,3.716-3.135
			c0.807,0.94,0.135,2.015,0.807,3.179c0.671,1.164,1.925,0.806,1.567,2.418c-0.359,1.612-1.254,2.866-0.627,3
			c0.627,0.134,2.015-0.807,3.134-1.12c1.12-0.314,2.508-0.404,1.612-1.299c-0.895-0.896-2.642-1.791-2.239-2.956
			c0.404-1.164,1.926-2.865,4.345-1.164c2.417,1.701,0.582,2.508,1.478,4.389C28.896,61.447,30.731,60.642,30.731,63.328z
			 M17.045,48.191c-0.706,0.57-1.397,0.534-1.935,0.322c-0.538-0.212-1.191-0.939-1.923-0.34c-0.73,0.6-0.453,1.462-1.225,1.458
			c-3.687-0.018-2.542-3.149-1.265-3.275c0.848-0.084,1.174,0.665,1.542,0.007c0.37-0.659,0.618-1.061,1.634-1.514
			c1.016-0.453,1.726,0.271,2.164,0.241c0.439-0.029,0.46-0.939,1.356-1.55c0.896-0.61,1.94-0.212,2.153,0.077
			c0.212,0.289,0.924,1.067-0.043,1.82c-0.969,0.753-1.43,0.454-2.062,0.881C16.811,46.748,17.75,47.622,17.045,48.191z
			 M29.224,52.917c-1.012,0.481-3.624,0.579-4.178-0.525c-0.706-1.407,1.515-3.434-0.116-3.621
			c-0.983-0.113-1.257-2.972-1.638-3.393c0-1.01,0.938-2.06,2.281-1.998c1.438,0.067,1.452,0.058,2.186,1.535
			c0.452,0.909,0.042,2.626-0.318,3.497c-0.658,1.594,1.361,0.161,2.249,2.357C30.107,51.808,30.282,52.413,29.224,52.917z
			 M27.644,20.845c0.841-0.258,0.709,0.548,0.852,0.915c0.236,0.604-0.004,0.207,0.812,0.207c0.713,0,0.796,2.138-0.365,1.617
			c-0.183-0.082-0.341-0.984-0.527-0.903c-0.761,0.328-1.025-0.201-1.252-0.038c-0.25,0.177,0.208,0.986-0.185,1.815
			c-0.157,0.33-0.396,0.276-0.733,0.287c-0.492,0.017-0.089-1.093-0.527-1.321c-0.873-0.455-0.49-0.579-0.65-1.289
			c0.009,0.042-0.25-0.951,0.241-1.113c0.347-0.116,1.041-0.266,1.304,0.082C26.979,21.593,27.213,20.976,27.644,20.845z
			 M24.762,6.663c0.248,0.219,0.114,0.572,0.425,0.509c0.311-0.063,0.339-0.481,0.812-0.396c0.474,0.085,0.608,0.248,0.623,0.488
			c0.014,0.24,0.021,0.538-0.417,0.728c-0.438,0.19-0.53,0.354-0.77,0.544c-0.396,0.315-1.176,0.348-1.11-0.24
			c0.036-0.312,0.149-0.333,0.155-0.53c0.007-0.198,0-0.211-0.345-0.149C23.241,7.781,24.063,6.043,24.762,6.663z M25.913,35.87
			c0.504,0.252,0.113,1.849,0.644,1.74c0.53-0.108,0.658-1.691,1.465-1.546c0.807,0.144,1.036,0.421,1.06,0.832
			c0.024,0.409,0.036,0.915-0.711,1.24c-0.747,0.325-0.903,0.603-1.313,0.928c-0.676,0.537-2.006,0.593-1.892-0.409
			c0.06-0.53,0.253-0.566,0.265-0.904c0.012-0.338,0-0.362-0.59-0.253c-0.215,0.04-1.982-0.052-3.075,0.406
			c-0.676,0.284-0.606,1.17-1.222,1.249c-1.371,0.178-1.962-0.779-2.009-1.014c-0.125-0.625,2.015-1.352,4.317-1.634
			C24.663,36.281,24.828,35.327,25.913,35.87z M21.383,31.12c0.61,0.255,0.438,0.794,0.743,1.048
			c0.306,0.255,0.285,0.886-0.031,1.171c-0.315,0.285-1.17,0.305-1.547,0.01c-0.377-0.296-0.315-0.469-0.499-0.937
			C19.526,31.076,20.342,30.686,21.383,31.12z M18.35,13.72c0.413,0.01,0.426,0.285,0.411,0.418
			c-0.045,0.396-0.421,0.139-0.632,0.417c-0.213,0.322-0.647,0.313-0.588-0.104c0.031-0.217-0.155-0.149-0.229-0.378
			C17.24,13.844,17.935,13.708,18.35,13.72z M17.964,21.081c0.84,0.04,0.847,0.033,1.276,0.895c0.263,0.53,0.024,1.533-0.186,2.041
			c-0.384,0.93,0.794,0.094,1.312,1.375c0.245,0.606,0.346,0.959-0.271,1.253c-0.59,0.282-2.115,0.339-2.438-0.305
			c-0.412-0.822,0.884-2.003-0.067-2.113c-0.574-0.066-0.733-1.734-0.956-1.979C16.634,21.657,17.182,21.044,17.964,21.081z
			 M15.96,31.91c0.667,0.136,0.79,1.278,0.447,1.66c-0.982,1.09-1.145,0.417-1.636,0.21c-1.352-0.568-1.262,0.364-0.675,1.193
			c0.721,1.015-0.191,2.357-0.626,2.5c-1.294,0.424-0.886-1.086-1.094-1.781c-0.369-1.231-1.273-1.535-2.311-1.069
			c-0.296,0.134-1.352-0.316-0.69-0.975c0.599-0.598,2.604,0.158,1.787-1.305c-0.348-0.624-1.632,0.295-2.184,0.458
			c-0.8,0.235-1.039-0.23-1.039-0.885c0-1.825,4.708-0.301,4.925-0.009C13.985,33.414,14.336,31.58,15.96,31.91z M9.36,25.988
			c0.733,0.018,0.756,0.507,0.728,0.742c-0.081,0.703-0.747,0.249-1.121,0.738c-0.377,0.573-1.148,0.556-1.043-0.184
			c0.056-0.386-0.276-0.267-0.404-0.672C7.392,26.209,8.625,25.97,9.36,25.988z M8.776,42.906c-0.052-0.233,0.305-0.601,0.392-0.966
			c0.273-1.146-0.731-1.399-0.726-1.195c0.035,1.379-1.524,1.37-1.792,1.257c-0.435-0.184-0.334-0.469-0.603-0.285
			C5.779,41.9,5.31,42.219,5.143,41.783c-0.167-0.435-0.519-0.602-0.234-1.055c0.284-0.452,0.067-0.384,0.067-0.837
			c0-0.452,0.435-0.637,0.268-0.854c-0.168-0.218-1.005,0.184-1.139-0.151c-0.083-0.208,0.415-1.449-0.056-1.619
			c-0.969-0.349-1.908-0.66-1.769-0.83c0.889-1.089,2.961,0.98,3.214,1.276c0.302,0.352,0.051,0.754,0.302,1.189
			c0.251,0.435,0.719,0.301,0.585,0.905c-0.134,0.602-0.468,1.071-0.234,1.121c0.234,0.05,0.753-0.301,1.172-0.418
			c0.418-0.117,0.938-0.15,0.604-0.486c-0.335-0.334-0.989-0.67-0.838-1.105c0.15-0.435,0.72-1.071,1.624-0.435
			c0.904,0.637,0.218,0.938,0.553,1.641c0.369,0.804,1.054,0.503,1.054,1.507c0,1.005-0.066,1.339-0.535,1.607
			C9.312,43.508,8.943,43.659,8.776,42.906z M9.792,63.201c0.484-0.293,1.086-0.445,1.654-0.327c0.443,0.091,0.21-0.049,0.609-1.04
			c1.737-4.326,4.587,1.467,1.91,1.847c-0.609,0.087-0.912,0.194-1.027,0.82c-0.081,0.437-0.268,1.286-0.609,1.846
			c-0.742,1.22-2.555,0.196-2.926-0.413C9.043,65.343,8.734,63.84,9.792,63.201z M13.733,78.646
			c-0.982-1.036-0.436-2.182-0.873-3.219c-0.436-1.036-2.127-1.09-2.946-1.8c-0.818-0.709-0.463-1.827-0.463-1.827
			c0.899-1.446,1.5-1.936,2.618-1.691c1.119,0.246,2.482,0.573,2.482,1.5c0,0.928,0.109,2.155,0.655,2.837
			c0.545,0.682,1.309,0.573,2.046,1.255c0.736,0.683,0.708,1.664,1.2,2.182c0.49,0.52,1.2,1.064,1.882,0.491
			c0.682-0.572,0.518-3.055-0.164-3.627s-1.91,0.328-2.755-0.601c-0.845-0.927-0.573-0.817-1.091-2.018
			c-0.394-0.911-0.452-2.854,1.527-3.164c2.132-0.333,3.301,1.037,3.874,1.964c0.573,0.928,1.064,2.428,1.254,3.519
			c0.191,1.091,0.737,1.036,1.8,1.691c1.064,0.655,0.846,3.054-0.19,3.601c-1.036,0.545-1.418,0.6-2.127,1.8s-2.291,1.854-3.873,1.2
			c-1.583-0.655-2.019-2.892-2.401-3.273C15.807,79.084,14.715,79.684,13.733,78.646z M24.259,91.792
			c-0.069,1.608-1.958,3.147-2.914,3.38c-0.955,0.232-0.839,0.886-1.958,1.189c-1.119,0.303-2.633,0.186-2.959-1.166
			c-0.327-1.352,0.14-1.679,0.14-1.679c0.326-1.071,1.188-0.63,2.004-1.515c0.815-0.887,0.815-2.005,2.028-2.262
			C21.812,89.484,24.329,90.184,24.259,91.792z M29.894,107.869c0,2.797-0.187,3.729-1.492,4.475
			c-1.306,0.746-2.332,1.166-2.798-0.932c-0.144-0.648,0.849-1.672,1.092-2.689c0.761-3.189-2.038-3.898-2.024-3.328
			c0.1,3.84-4.245,3.814-4.988,3.5c-1.213-0.514-0.933-1.306-1.679-0.793c-0.746,0.513-2.052,1.398-2.518,0.187
			c-0.465-1.212-1.445-1.679-0.652-2.938c0.793-1.258,0.187-1.072,0.187-2.331s1.212-1.771,0.745-2.377
			c-0.466-0.607-2.797,0.512-3.17-0.42c-1.478-3.695,2.634-4.706,3.87-3.264c0.839,0.979,0.14,2.098,0.839,3.311
			c0.7,1.211,2.005,0.84,1.632,2.517c-0.373,1.68-1.305,2.985-0.653,3.124c0.653,0.14,2.099-0.84,3.264-1.166
			c1.166-0.326,2.611-0.419,1.678-1.352c-0.932-0.932-2.751-1.864-2.331-3.077c0.419-1.212,2.004-2.983,4.522-1.212
			c2.518,1.771,0.606,2.611,1.538,4.568C27.981,105.91,29.894,105.07,29.894,107.869z M26.821,89.344
			c-0.722,0.653-2.681,0.699-3.543,0.023c-0.862-0.676-0.722-1.072-1.142-2.145c-1.198-3.061,0.668-3.954,3.054-2.961
			c1.397,0.584,1.002,1.818,1.702,2.401S27.544,88.691,26.821,89.344z M40.134,85.008c-0.373,0.84-2.191,1.213-2.937,0.699
			c-0.746-0.513-1.445-0.746-2.052-0.047c-0.606,0.7-2.191,2.238-3.637,2.099c-1.445-0.14-3.264-0.233-3.963-2.237
			c-1.36-3.901,1.19-5.229,4.43-3.871c1.445,0.607,2.145,1.773,3.216,1.26c1.073-0.513,1.492-1.538,3.311-1.26
			C40.321,81.931,40.508,84.169,40.134,85.008z M39.393,71.615c0.136-1.2,0.573-1.282,0.6-2.046c0.028-0.764,0-0.818-1.335-0.573
			c-3.445,0.633-0.273-6.074,2.426-3.682c0.956,0.845,0.437,2.21,1.637,1.964c1.2-0.246,1.309-1.855,3.136-1.528
			c1.828,0.328,2.346,0.955,2.401,1.882c0.054,0.928,0.081,2.074-1.609,2.81c-1.691,0.736-2.046,1.364-2.974,2.1
			C42.146,73.757,39.135,73.884,39.393,71.615z M58.192,74.4c-0.163,1.473-1.036,3.219-2.018,4.363
			c-0.981,1.146-1.527,2.073-3.491,2.073s-3.491-0.327-3.764-1.036c-0.272-0.71-0.873-1.527-1.582-1.91
			c-0.709-0.381-1.31,0.492-2.564,0.492c-1.254,0-2.836-1.255-2.563-2.619c0.272-1.363,0.708-2.127,2.563-2.236
			c1.855-0.109,2.401,1.363,2.892,1.964c0.491,0.6,1.691,1.2,2.236,0.437c0.546-0.765-0.6-1.31,1.528-1.691
			c0.388-0.07,6.18-0.424,3.765-2.51c-1.299-1.122-4.199-3.021-1.365-4.855c0.928-0.6,1.746-2.126,3.382-2.019
			c3.519,0.235,4.913,3.402,4.075,6.5C60.644,73.719,58.38,72.704,58.192,74.4z M67.845,87.166c-0.967,0-0.895-0.777-2.346-0.415
			c-1.45,0.362-1.32,1.301-3.133,2.47c-1.499,0.966-3.718-1.08-2.131-3.424c0.771-1.137,3.28-3.002,4.549-1.734
			c0.604,0.604,1.129,0.041,3.304-0.443c1.978-0.438,2.64,0.643,2.756,1.654C70.957,86.257,70.597,87.166,67.845,87.166z
			 M76.337,103.438c-3.281-0.326-0.889-3.703-1.667-5.035c-0.532-0.912-2.232-0.354-2.045-1.271
			c0.949-4.654-2.582-1.576-2.582-5.518c0-2.535,2.402-1.547,2.168-5.404c-0.15-2.477,3.368-1.66,3.898-0.593
			c0.971,1.958-1.854,3.119-1.387,4.044c1.165,2.311-1.886,4.336,1.927,4.066c0.824-0.06,1.582-0.508,2.065,0.072
			c2.498,2.995,0.374,3.666-0.023,4.72C78.675,98.563,80.1,103.812,76.337,103.438z M75.953,80.609
			c-2.498-0.391-0.174,2.715-2.81,3.341c-3.795,0.9-1.33-2.767-6.546-2.617c-2.316,0.067-1.154-6.083,3.594-4.446
			c4.353,1.5,7.786-1.775,9.629,0.334C81.618,79.277,80.92,81.389,75.953,80.609z M80.4,66.388c-0.813,1.601,1.207,2.767,1.03,4.81
			c-0.105,1.209-2.142,1.701-3.165,1.016c-1.996-1.337-0.484-5.517-3.77-3.563c-7.603,4.518-9.061-3.234,0.34-4.732
			c0.855-0.137,1.382-0.697,1.896-1.279c0.836-0.947,4.488-2.124,5.243-0.536C82.723,63.674,81.146,64.915,80.4,66.388z
			 M81.761,54.452c-1.789,0.326-0.333,2.267-1.527,3.298c-2.844,2.457-5.797-1.921-3.087-2.799c1.129-0.366,2.714-0.636,2.054-2.191
			c-0.656-1.546,0.023-2.09,1.364-2.621C83.252,49.077,85.133,53.836,81.761,54.452z M93.436,55.559
			c-0.354,1.189-1.486,0.648-1.604,1.504c-0.1,0.744-0.564,1.617-1.076,2.185c-0.511,0.568-0.799,1.031-1.793,1.007
			c-0.995-0.025-1.765-0.21-1.894-0.572c-0.129-0.362-0.423-0.784-0.777-0.987c-0.355-0.202-0.669,0.233-1.305,0.216
			c-0.635-0.015-1.42-0.67-1.266-1.357c0.155-0.688,0.385-1.069,1.326-1.101c0.941-0.032,1.199,0.72,1.44,1.031
			c0.241,0.31,0.841,0.628,1.127,0.249c0.285-0.38-0.289-0.67,0.794-0.837c0.197-0.031,3.135-0.138,1.936-1.224
			c-0.643-0.583-2.088-1.582-0.63-2.476c0.478-0.292,0.911-1.055,1.737-0.979C93.232,52.379,93.898,54,93.436,55.559z M89.897,46.5
			c0.611,0.254,0.438,0.794,0.744,1.048c0.306,0.255,0.285,0.886-0.031,1.17c-0.316,0.286-1.171,0.306-1.547,0.01
			c-0.377-0.294-0.316-0.468-0.499-0.937C88.042,46.456,88.856,46.066,89.897,46.5z M94.105,39.339
			c-1.352-0.568-1.262,0.364-0.674,1.193c0.72,1.015-0.192,2.357-0.627,2.5c-1.295,0.424-0.887-1.086-1.094-1.781
			c-0.369-1.231-1.273-1.535-2.312-1.068c-0.296,0.134-1.352-0.317-0.69-0.975c0.599-0.598,2.604,0.157,1.787-1.305
			c-0.347-0.625-1.632,0.294-2.184,0.457c-0.8,0.236-1.039-0.23-1.039-0.885c0-1.826,4.708-0.302,4.925-0.009
			c1.121,1.506,1.472-0.328,3.097,0.002c0.666,0.136,0.788,1.278,0.444,1.66C94.76,40.219,94.598,39.546,94.105,39.339z
			 M96.219,43.728c0.609-0.197,1.465-0.343,1.108-1.182c-0.354-0.834,0.012-1.129,0.736-1.415c1.45-0.572,2.466,1.995,0.645,2.327
			c-0.964,0.176-0.179,1.224-0.823,1.78C96.351,46.564,94.756,44.202,96.219,43.728z M105.97,61.487
			c-1.813-0.096-3.315-2.345-4.122,1.114c-1.711,7.338-7.74-6.582-2.833-4.907c2.785,0.949,2.652-1.099,4.243-2.522
			c1.691-1.007,3.835,0.507,4.307,1.899C108.457,58.633,107.558,61.571,105.97,61.487z M108.136,42.906
			c-0.051-0.233,0.306-0.601,0.393-0.966c0.273-1.146-0.732-1.399-0.728-1.195c0.037,1.379-1.523,1.37-1.791,1.257
			c-0.436-0.184-0.335-0.469-0.603-0.285c-0.269,0.184-0.736,0.502-0.904,0.066c-0.167-0.435-0.52-0.602-0.233-1.055
			c0.284-0.452,0.066-0.384,0.066-0.837c0-0.452,0.435-0.637,0.268-0.854c-0.168-0.218-1.004,0.184-1.139-0.151
			c-0.084-0.208,0.416-1.449-0.056-1.619c-0.97-0.349-1.909-0.66-1.769-0.83c0.889-1.089,2.96,0.98,3.214,1.276
			c0.302,0.352,0.05,0.754,0.302,1.189c0.251,0.435,0.721,0.301,0.586,0.905c-0.135,0.602-0.469,1.071-0.234,1.121
			s0.753-0.301,1.172-0.418c0.418-0.117,0.938-0.15,0.603-0.486c-0.335-0.334-0.987-0.67-0.837-1.105s0.72-1.071,1.624-0.435
			c0.904,0.637,0.218,0.938,0.552,1.641c0.369,0.804,1.056,0.503,1.056,1.507c0,1.005-0.067,1.339-0.536,1.607
			C108.672,43.508,108.305,43.659,108.136,42.906z M109.152,63.201c0.484-0.293,1.086-0.445,1.654-0.327
			c0.443,0.091,0.211-0.049,0.608-1.04c1.737-4.326,4.589,1.467,1.911,1.847c-0.61,0.087-0.912,0.194-1.027,0.82
			c-0.081,0.437-0.269,1.286-0.609,1.846c-0.742,1.22-2.555,0.196-2.926-0.413C108.404,65.343,108.096,63.84,109.152,63.201z
			 M113.095,78.646c-0.983-1.036-0.437-2.182-0.873-3.219c-0.437-1.036-2.128-1.09-2.946-1.8s-0.465-1.827-0.465-1.827
			c0.901-1.446,1.501-1.936,2.619-1.691c1.118,0.246,2.482,0.573,2.482,1.5c0,0.928,0.109,2.155,0.654,2.837
			c0.546,0.682,1.309,0.573,2.046,1.255c0.736,0.683,0.71,1.664,1.2,2.182c0.491,0.52,1.199,1.064,1.883,0.491
			c0.682-0.572,0.518-3.055-0.165-3.627c-0.682-0.573-1.908,0.328-2.755-0.601c-0.845-0.927-0.572-0.817-1.09-2.018
			c-0.395-0.911-0.451-2.854,1.527-3.164c2.131-0.333,3.299,1.037,3.873,1.964c0.572,0.928,1.063,2.428,1.254,3.519
			c0.191,1.091,0.736,1.036,1.801,1.691c1.063,0.655,0.846,3.054-0.191,3.601c-1.036,0.545-1.418,0.6-2.127,1.8
			s-2.291,1.854-3.873,1.2c-1.582-0.655-2.019-2.892-2.4-3.273C115.168,79.084,114.076,79.684,113.095,78.646z M123.62,91.792
			c-0.07,1.608-1.958,3.147-2.913,3.38c-0.957,0.232-0.84,0.886-1.959,1.189c-1.119,0.303-2.635,0.186-2.961-1.166
			s0.141-1.679,0.141-1.679c0.326-1.071,1.188-0.63,2.004-1.515c0.816-0.887,0.816-2.005,2.028-2.262
			C121.172,89.484,123.689,90.184,123.62,91.792z M129.254,107.869c0,2.797-0.187,3.729-1.492,4.475
			c-1.305,0.746-2.33,1.166-2.797-0.932c-0.145-0.648,0.848-1.672,1.091-2.689c0.761-3.189-2.038-3.898-2.022-3.328
			c0.099,3.84-4.245,3.814-4.99,3.5c-1.211-0.514-0.932-1.306-1.678-0.793s-2.052,1.398-2.518,0.187
			c-0.467-1.212-1.445-1.679-0.652-2.938c0.792-1.258,0.186-1.072,0.186-2.331s1.213-1.771,0.747-2.377
			c-0.467-0.607-2.798,0.512-3.171-0.42c-1.478-3.695,2.633-4.706,3.869-3.264c0.84,0.979,0.141,2.098,0.84,3.311
			c0.699,1.211,2.004,0.84,1.631,2.517c-0.372,1.68-1.305,2.985-0.652,3.124c0.652,0.14,2.098-0.84,3.264-1.166
			s2.611-0.419,1.679-1.352c-0.933-0.932-2.751-1.864-2.331-3.077c0.419-1.212,2.006-2.983,4.522-1.212s0.606,2.611,1.538,4.568
			C127.343,105.91,129.254,105.07,129.254,107.869z M126.182,89.344c-0.723,0.653-2.682,0.699-3.543,0.023
			c-0.863-0.676-0.723-1.072-1.143-2.145c-1.197-3.061,0.67-3.954,3.055-2.961c1.398,0.584,1.002,1.818,1.701,2.401
			S126.904,88.691,126.182,89.344z M139.494,85.008c-0.371,0.84-2.19,1.213-2.936,0.699c-0.747-0.513-1.446-0.746-2.053-0.047
			c-0.605,0.7-2.19,2.238-3.635,2.099c-1.446-0.14-3.266-0.233-3.963-2.237c-1.362-3.901,1.189-5.229,4.428-3.871
			c1.445,0.607,2.145,1.773,3.218,1.26c1.072-0.513,1.491-1.538,3.31-1.26C139.682,81.931,139.867,84.169,139.494,85.008z
			 M138.753,71.615c0.137-1.2,0.573-1.282,0.601-2.046c0.026-0.764,0-0.818-1.337-0.573c-3.444,0.633-0.271-6.074,2.428-3.682
			c0.954,0.845,0.437,2.21,1.637,1.964c1.2-0.246,1.31-1.855,3.136-1.528c1.828,0.328,2.346,0.955,2.4,1.882
			c0.055,0.928,0.082,2.074-1.609,2.81c-1.69,0.736-2.045,1.364-2.973,2.1C141.506,73.757,138.495,73.884,138.753,71.615z
			 M160.645,71.353c-0.64,2.367-2.902,1.352-3.092,3.048c-0.163,1.473-1.036,3.219-2.018,4.363
			c-0.982,1.146-1.527,2.073-3.492,2.073c-1.963,0-3.49-0.327-3.764-1.036c-0.273-0.71-0.873-1.527-1.582-1.91
			c-0.709-0.381-1.309,0.492-2.563,0.492s-2.837-1.255-2.564-2.619c0.272-1.363,0.71-2.127,2.564-2.236s2.399,1.363,2.892,1.964
			c0.49,0.6,1.689,1.2,2.236,0.437c0.545-0.765-0.601-1.31,1.527-1.691c0.387-0.07,6.18-0.424,3.764-2.51
			c-1.299-1.122-4.198-3.021-1.363-4.855c0.926-0.6,1.744-2.126,3.382-2.019C160.089,65.088,161.482,68.255,160.645,71.353z
			 M162.553,57.644c-0.336,0.547,0.063,1.934-0.399,2.48c-0.142,0.168-0.538,0.333-1.001,0.396v1.281
			c-1.935-2.305-1.041-3.784,0.204-4.282v-0.743c0.062-0.202,0.054-0.451,0-0.743v-2.989c0.014-0.031,0.026-0.06,0.04-0.09
			c0.295-0.63,1.851-0.125,2.732-0.42c0.884-0.294,0.211-1.093,0.715-2.229c0.505-1.135,1.305-0.209,2.061-0.882
			c0.758-0.674-0.125-0.421-0.294-1.851c-0.168-1.429,1.892-1.85,3.153-1.766c1.261,0.084,1.051,0.799,1.219,1.557
			c0.168,0.756-0.209,1.261,0.252,2.144c0.463,0.882,0.757-0.126,1.977,0c1.219,0.125,1.113,0.483,1.324,0.651
			c0.21,0.168,0.21,0.756,0.084,1.681c-0.126,0.925-0.547,1.094-1.135,1.514c-0.588,0.42-1.809-0.883-2.396-0.841
			c-0.588,0.042-0.463,0.799-0.127,1.135c0.337,0.336,1.136-0.042,1.767,0.714c0.63,0.757-0.126,1.01-0.673,1.892
			c-0.547,0.883-1.893,0.547-2.606,0.169c-0.715-0.379-0.463-1.388-0.084-2.271c0.378-0.883-0.379-1.135-1.431-1.009
			c-1.051,0.125-0.672,0.672-1.555,1.303c-0.883,0.631-0.631,0.084-1.725,0.462c-1.092,0.379-0.293,0.841-0.756,1.598
			C163.436,57.266,162.89,57.097,162.553,57.644z M152.943,125.647c-0.983,0.214-2.365-0.192-3.029-0.167
			c-0.645,0.025-1.171-0.004-1.595-0.077c-0.013,1.675-0.655,2.989-2.922,2.281c-1.213-0.379-2.049-2.507-4.044-1.342
			c-1.025,0.599,0.165,3.389-0.943,5.204c0.348,0.346,0.398,1.063,0.398,1.666c0,0.354,0.016,0.629,0.058,0.842
			c0.587-0.061,1.159-0.118,1.696-0.168c0.682-0.063,1.307-0.115,1.902-0.16c0.172-0.518,0.109-1.163-0.345-1.729
			c-1.327-1.648,0.627-1.947,1.987-0.979c0.757,0.539,4.545-0.696,2.629-1.398c-0.223-0.083-1.046-0.366-1.215-0.322
			c-1.134-0.85,2.498-0.807,2.801-1.859C150.627,126.38,152.688,128.523,152.943,125.647z M80.57,141.436
			c0.023-0.4,0.049-0.879,0.079-1.459c-0.045-0.013-0.091-0.023-0.139-0.034C79.665,140.314,80.193,140.885,80.57,141.436z
			 M78.006,145.643l0.063-0.033c0.784-0.397,1.461-0.899,1.828-1.218c0.366-0.319,0.421-0.454,0.474-0.71
			c0.022-0.107,0.043-0.235,0.066-0.445c-0.151,0.121-0.351,0.179-0.609,0.154C77.818,143.191,76.272,142.923,78.006,145.643z
			 M95.483,67.512c-0.306-0.548-0.93-0.57-1.651-0.371c0.022,0.324,0.012,0.607,0.035,0.913c0.035,0.467,0.148,0.986,0.443,1.424
			c0.063,0.091,0.133,0.179,0.207,0.265C95.672,69.601,96.447,69.24,95.483,67.512z M130.332,124.724
			c-3.613,0.366-2.35,1.3-2.75,3.863c-0.212,1.352-0.795,2.483-2.404,3.037c-1.371,0.474-4.068,1.513-2.828,3.171
			c0.296,0.038,0.583,0.072,0.844,0.102c0.794,0.093,1.352,0.143,2.494,0.161c0.244,0.004,0.516,0.007,0.805,0.009
			c0.025-0.039,0.049-0.08,0.07-0.121c0.332-0.692,1.961-3.135,2.734-2.004c0.5,0.732,3.385,3.523,3.391-0.071
			c0.004-1.903-1.248-4.078,1.83-4.538C137.028,126.518,133.579,124.395,130.332,124.724z M79.409,127.394
			c-0.437,2.567,0.257,7.097-3.589,5.187c-2.236-1.109-2.224-0.414-2.15,2.15c0.021,0.742,1.696,1.248,3.32,1.879
			c2.298,0.023,5.332,0.452,2.389-2.492c-0.56-0.559,1.009-2.773,1.647-1.123l0.012,0.028c0.066-1.132,0.141-2.388,0.221-3.708
			c-0.226-0.578-0.171-1.16,0.042-1.655C81.082,126.289,79.75,125.392,79.409,127.394z"/>
	</g>
</g>
</svg>
