<?xml version="1.0" encoding="UTF-8"?>
<!DOCTYPE svg PUBLIC "-//W3C//DTD SVG 1.1//EN" "http://www.w3.org/Graphics/SVG/1.1/DTD/svg11.dtd">
<!-- Creator: CorelDRAW -->
<svg xmlns="http://www.w3.org/2000/svg" xml:space="preserve" width="187px" height="148px" version="1.1" shape-rendering="geometricPrecision" text-rendering="geometricPrecision" image-rendering="optimizeQuality" fill-rule="evenodd" clip-rule="evenodd"
viewBox="0 0 186.999 147.486"
 xmlns:xlink="http://www.w3.org/1999/xlink"
 xmlns:xodm="http://www.corel.com/coreldraw/odm/2003">
 <defs>
   <clipPath id="id0">
    <path d="M69.622 5.532c-9.32,-0.113 -15.317,-0.1 -21.532,-0.475 -6.215,-0.375 -12.649,-1.137 -18.001,-2.044 -5.351,-0.908 -9.62,-1.96 -13.89,-3.013l-2.056 6.766c-2.101,6.05 -3.233,10.386 -4.916,16.285 -0.249,0.873 -0.435,1.453 -0.642,2.333 -2.36,10.025 -4.55,19.989 -6.162,30.214 -0.554,3.516 -0.787,7.435 -1.226,10.942l-0.435 5.757c-0.045,1.83 -0.234,3.899 -0.37,5.626 -0.078,0.987 0.009,2.192 -0.003,3.205 -0.013,1.158 -0.208,1.511 -0.203,2.794 0.009,2.038 0.069,4.202 0.011,6.226 -0.028,1.013 -0.181,1.575 -0.197,2.723l0.192 9.099c-0.03,8.303 0.172,15.985 0.183,24.267 0.002,1.267 0.207,1.666 0.202,2.996 -0.004,0.925 -0.065,2.104 0.005,3.001 0.131,1.645 0.218,4.048 0.519,5.469 1.056,4.985 5.703,6.849 10.073,7.859 3.312,0.766 6.714,1.111 10.138,1.576 4.01,0.545 19.376,0.399 23.493,-0.086 6.45,-0.761 15.507,-0.276 22.162,-1.971 7.272,-1.853 6.398,-2.822 7.435,-7.425 0.87,-3.869 2.219,-13.998 3.169,-16.919 0.807,-2.484 1.721,-7.868 2.195,-10.524 0.344,-1.99 1.133,-3.678 1.718,-5.612 1.344,-4.441 1.694,-7.626 2.92,-12.169 0.377,-1.398 0.722,-2.38 1.102,-3.854 0.997,-3.864 2.19,-8.249 2.968,-12.117 0.575,-2.856 1.095,-5.36 1.653,-8.289l2.191 -12.734c0.189,-0.998 0.23,-2.248 1.182,-2.596 0.952,0.348 0.993,1.598 1.182,2.596l2.191 12.734c0.558,2.929 1.077,5.433 1.652,8.289 0.779,3.868 1.972,8.253 2.968,12.117 0.38,1.474 0.725,2.456 1.103,3.854 1.226,4.543 1.576,7.728 2.919,12.169 0.585,1.934 1.375,3.622 1.719,5.612 0.473,2.654 1.389,8.042 2.195,10.524 0.949,2.921 2.299,13.05 3.169,16.919 1.037,4.603 0.163,5.572 7.434,7.425 6.656,1.695 15.712,1.21 22.163,1.971 4.117,0.485 19.483,0.631 23.492,0.086 3.425,-0.465 6.827,-0.81 10.138,-1.576 4.371,-1.01 9.018,-2.874 10.074,-7.859 0.301,-1.421 0.388,-3.824 0.519,-5.469 0.07,-0.897 0.009,-2.076 0.005,-3.001 -0.005,-1.33 0.2,-1.729 0.202,-2.996 0.011,-8.282 0.213,-15.964 0.183,-24.267l0.191 -8.764 -0.196 -3.058c-0.058,-2.024 0.002,-4.188 0.011,-6.226 0.004,-1.283 -0.19,-1.636 -0.204,-2.794 -0.011,-1.013 0.076,-2.218 -0.002,-3.205 -0.136,-1.727 -0.325,-3.796 -0.37,-5.626l-0.436 -5.757c-0.439,-3.507 -0.671,-7.426 -1.225,-10.942 -1.612,-10.225 -3.802,-20.189 -6.162,-30.214 -0.207,-0.88 -0.394,-1.46 -0.643,-2.333 -1.682,-5.899 -2.814,-10.235 -4.915,-16.285l-2.057 -6.766c-2.951,0.866 -5.902,1.731 -9.677,2.477 -3.774,0.745 -8.371,1.369 -13.806,1.869 -5.434,0.5 -11.706,0.875 -19.026,1.15 -7.321,0.274 -15.692,0.449 -26.199,0.418 -10.507,-0.031 -23.15,-0.269 -32.47,-0.382z"/>
   </clipPath>
 </defs>
 <g id="VETORES">
  <metadata id="CorelCorpID_0Corel-Layer"/>
  <g>
  </g>
  <g clip-path="url(#id0)">
   <g id="_2015021535840">
    <path fill="#AAFC26" fill-rule="nonzero" d="M36.262 9.039l13.372 23.996 -18.669 20.168 2.378 -19.779 -32.262 34.819 -0.389 5.727 27.714 -29.932 -2.379 19.748 28.045 -30.231 -16.451 -29.482c-1.489,-0.18 -2.938,-0.38 -4.347,-0.58l-1.64 13.801 -8.764 -15.72c-1.65,-0.37 -3.219,-0.74 -4.778,-1.119l15.781 28.323 2.379 -19.748 0.01 0.009zm-25.606 8.945c-0.439,1.559 -0.889,3.168 -1.379,4.917l3.158 5.657 -6.056 6.525c-0.5,2.299 -0.989,4.587 -1.459,6.896l11.933 -12.882 -6.197 -11.113zm82.864 4.797l-9.495 -17.04 -4.187 -0.07 13.681 24.585 0.001 -7.475zm-91.529 36.148l26.355 -28.442 -13.862 -24.885 -1.53 4.677 10.945 19.658 -20.959 22.627 -0.959 6.356 0.01 0.009zm67.302 66.18l-19.988 21.587c1.639,-0.08 3.358,-0.14 5.097,-0.21l9.964 -10.754 -1.199 10.074c1.329,-0.179 2.609,-0.419 3.808,-0.719 7.189,-1.821 6.515,-2.703 7.656,-8.555l-7.716 8.325 2.378 -19.748zm-51.081 -44.363l2.379 -19.779 -20.349 21.977 -0.04 5.337 15.451 -16.69 -2.348 19.778 52.241 -56.406 -16.641 -29.872 -4.288 -0.299 16.511 29.622 -42.916 46.332zm11.504 59.664l2.349 -19.779 -22.658 24.466 4.088 0.929 13.672 -14.771 -1.939 16.151c0.88,0.029 1.85,0.05 2.859,0.07l58.537 -63.183c0.63,-2.408 1.229,-4.846 1.709,-7.145l-58.617 63.272 0 -0.01zm6.096 7.046c1.829,-0.03 3.568,-0.081 5.077,-0.15l36.22 -39.107 -2.379 19.749 1.689 -1.819c0.41,-2.309 0.8,-4.318 1.14,-5.377 0.819,-2.489 1.728,-7.875 2.208,-10.534 0.26,-1.499 0.77,-2.838 1.249,-4.227l1.01 -8.405 -46.214 49.87zm57.708 -141.615l-2.979 0c0,0 2.979,5.347 2.979,5.347l0 -5.347zm-35.73 59.604l-20.539 22.187 0 -0.03 -36.799 39.736c0.229,2.178 0,3.749 0.159,5.157l18.34 -19.818 0 0.03 33.941 -36.628 -2.378 19.748 43.005 -46.412 0 -5.307 -38.078 41.095 2.349 -19.758zm15.691 -51.928l13.373 23.995 -18.7 20.138 2.379 -19.748 -31.393 33.879 0 -0.03 -33.911 36.628 2.379 -19.778 -7.536 8.135 0.11 5.187 2.488 -2.688 -2.358 19.748 20.538 -22.157 -0.029 0 44.795 -48.301 -2.379 19.748 28.014 -30.231 -18.07 -32.47 -2.408 -0.031c0,0 -1.959,16.23 -1.959,16.23l-9.115 -16.37c-1.449,-0.02 -2.838,-0.04 -4.168,-0.07l15.542 27.913 2.378 -19.748 0.03 0.021zm-31.043 99.349l2.379 -19.778 -43.066 46.502c0.55,1.15 1.329,2.089 2.269,2.869l35.9 -38.737 -2.379 19.748 52.921 -57.095 1.119 -6.516 -49.133 53.018 -0.01 -0.011z"/>
    <path fill="#AAFC26" fill-rule="nonzero" d="M177.063 91.369l-2.379 -19.778 12.123 13.082 -0.199 -3.538c0,-0.609 0.029,-1.299 0.029,-1.959l-16.86 -18.209 2.379 19.779 -42.916 -46.322 16.7 -29.962c-1.389,0.12 -2.838,0.23 -4.337,0.34l-16.801 30.162 52.271 56.406 -0.01 -0.001zm-12.753 -27.563l-2.349 -19.748 24.117 26.034 -0.52 -5.887 -28.524 -30.781 2.379 19.778 -18.67 -20.168 13.373 -23.995 2.348 19.748 14.942 -26.784 -0.61 -1.998c-0.95,0.269 -1.899,0.549 -2.878,0.829l-9.185 16.48 -1.699 -14.121c-1.3,0.199 -2.679,0.389 -4.128,0.569l-16.611 29.822 28.015 30.231 0 -0.009zm-37.199 4.477l-2.379 -19.748 61.986 66.9 0.289 -22.227c0,0 -4.248,-4.587 -4.248,-4.587l2.379 19.778 -33.941 -36.628 0 0.03 -31.393 -33.879 2.379 19.748 -18.67 -20.138 13.373 -23.996 2.379 19.749 15.621 -28.063c-1.37,0.07 -2.778,0.139 -4.238,0.199l-9.125 16.391 -1.928 -16.021c-0.84,0.02 -1.699,0.04 -2.569,0.05l-17.94 32.23 28.014 30.232 0.011 -0.02zm-33.591 -32.08l16.89 -30.302c-1.349,0.01 -2.728,0.02 -4.147,0.02l-12.733 22.856 0 7.426 -0.01 0zm0 -19.039l6.286 -11.263 -4.128 -0.03 -2.158 3.867 0 7.426zm90.889 37.488c-0.35,-2.179 -0.72,-4.358 -1.119,-6.516l-16.851 -18.18 8.805 -15.79c-0.45,-1.529 -0.94,-3.088 -1.479,-4.737l-11.744 21.067 22.388 24.156zm-73.699 62.662l-2.729 -2.949 1.67 7.136 5.966 6.436 -2.348 -19.748 36.32 39.226c1.609,0.04 3.308,0.06 5.007,0.07l-46.254 -49.92 2.378 19.749 -0.01 0zm12.753 27.543l-11.884 -12.813 1.25 6.687 5.436 5.866c0.951,0.594 7.527,1.46 8.965,1.579l-1.259 -10.444 10.094 10.894c1.839,0.08 3.608,0.17 5.228,0.33l-20.219 -21.837 2.379 19.748 0.01 -0.01zm37.199 -4.447l-62.935 -67.93 3.258 14.082 -0.729 -6.017 61.956 66.84c1.159,-0.04 2.158,-0.1 2.918,-0.18l-1.919 -15.96 13.123 14.181c1.279,-0.32 2.558,-0.71 3.768,-1.239l-21.818 -23.556 2.378 19.779zm-12.753 -27.544l-53.24 -57.475 1.129 6.566 57.029 61.513 -2.379 -19.749 34.201 36.908c0.846,-1.247 1.145,-2.291 1.389,-3.808l-40.488 -43.713 2.349 19.778 0.01 -0.02zm33.182 -75.584c-0.5,-2.329 -1.01,-4.657 -1.54,-6.976l-1.609 -1.739c1.064,-1.905 0.954,-1.133 0.48,-3.178l-0.95 -3.378 -3.947 7.096 7.575 8.175 -0.009 0zm-27.995 50.349l-20.538 -22.186 2.378 19.748 -41.416 -44.673 0 5.277 46.344 50.01 -2.379 -19.749 33.911 36.628 0 -0.029 15.042 16.24 0.199 -5.107 -33.551 -36.198 0 0.03 0.01 0.009z"/>
   </g>
  </g>
  <path fill="none" d="M69.622 5.532c-9.32,-0.113 -15.317,-0.1 -21.532,-0.475 -6.215,-0.375 -12.649,-1.137 -18.001,-2.044 -5.351,-0.908 -9.62,-1.96 -13.89,-3.013l-2.056 6.766c-2.101,6.05 -3.233,10.386 -4.916,16.285 -0.249,0.873 -0.435,1.453 -0.642,2.333 -2.36,10.025 -4.55,19.989 -6.162,30.214 -0.554,3.516 -0.787,7.435 -1.226,10.942l-0.435 5.757c-0.045,1.83 -0.234,3.899 -0.37,5.626 -0.078,0.987 0.009,2.192 -0.003,3.205 -0.013,1.158 -0.208,1.511 -0.203,2.794 0.009,2.038 0.069,4.202 0.011,6.226 -0.028,1.013 -0.181,1.575 -0.197,2.723l0.192 9.099c-0.03,8.303 0.172,15.985 0.183,24.267 0.002,1.267 0.207,1.666 0.202,2.996 -0.004,0.925 -0.065,2.104 0.005,3.001 0.131,1.645 0.218,4.048 0.519,5.469 1.056,4.985 5.703,6.849 10.073,7.859 3.312,0.766 6.714,1.111 10.138,1.576 4.01,0.545 19.376,0.399 23.493,-0.086 6.45,-0.761 15.507,-0.276 22.162,-1.971 7.272,-1.853 6.398,-2.822 7.435,-7.425 0.87,-3.869 2.219,-13.998 3.169,-16.919 0.807,-2.484 1.721,-7.868 2.195,-10.524 0.344,-1.99 1.133,-3.678 1.718,-5.612 1.344,-4.441 1.694,-7.626 2.92,-12.169 0.377,-1.398 0.722,-2.38 1.102,-3.854 0.997,-3.864 2.19,-8.249 2.968,-12.117 0.575,-2.856 1.095,-5.36 1.653,-8.289l2.191 -12.734c0.189,-0.998 0.23,-2.248 1.182,-2.596 0.952,0.348 0.993,1.598 1.182,2.596l2.191 12.734c0.558,2.929 1.077,5.433 1.652,8.289 0.779,3.868 1.972,8.253 2.968,12.117 0.38,1.474 0.725,2.456 1.103,3.854 1.226,4.543 1.576,7.728 2.919,12.169 0.585,1.934 1.375,3.622 1.719,5.612 0.473,2.654 1.389,8.042 2.195,10.524 0.949,2.921 2.299,13.05 3.169,16.919 1.037,4.603 0.163,5.572 7.434,7.425 6.656,1.695 15.712,1.21 22.163,1.971 4.117,0.485 19.483,0.631 23.492,0.086 3.425,-0.465 6.827,-0.81 10.138,-1.576 4.371,-1.01 9.018,-2.874 10.074,-7.859 0.301,-1.421 0.388,-3.824 0.519,-5.469 0.07,-0.897 0.009,-2.076 0.005,-3.001 -0.005,-1.33 0.2,-1.729 0.202,-2.996 0.011,-8.282 0.213,-15.964 0.183,-24.267l0.191 -8.764 -0.196 -3.058c-0.058,-2.024 0.002,-4.188 0.011,-6.226 0.004,-1.283 -0.19,-1.636 -0.204,-2.794 -0.011,-1.013 0.076,-2.218 -0.002,-3.205 -0.136,-1.727 -0.325,-3.796 -0.37,-5.626l-0.436 -5.757c-0.439,-3.507 -0.671,-7.426 -1.225,-10.942 -1.612,-10.225 -3.802,-20.189 -6.162,-30.214 -0.207,-0.88 -0.394,-1.46 -0.643,-2.333 -1.682,-5.899 -2.814,-10.235 -4.915,-16.285l-2.057 -6.766c-2.951,0.866 -5.902,1.731 -9.677,2.477 -3.774,0.745 -8.371,1.369 -13.806,1.869 -5.434,0.5 -11.706,0.875 -19.026,1.15 -7.321,0.274 -15.692,0.449 -26.199,0.418 -10.507,-0.031 -23.15,-0.269 -32.47,-0.382z"/>
 </g>
</svg>
