<?xml version="1.0" encoding="UTF-8"?>
<!DOCTYPE svg PUBLIC "-//W3C//DTD SVG 1.1//EN" "http://www.w3.org/Graphics/SVG/1.1/DTD/svg11.dtd">
<!-- Creator: CorelDRAW -->
<svg xmlns="http://www.w3.org/2000/svg" xml:space="preserve" width="181px" height="149px" version="1.1" shape-rendering="geometricPrecision" text-rendering="geometricPrecision" image-rendering="optimizeQuality" fill-rule="evenodd" clip-rule="evenodd"
viewBox="0 0 205.498 169.387"
 xmlns:xlink="http://www.w3.org/1999/xlink"
 xmlns:xodm="http://www.corel.com/coreldraw/odm/2003">
 <defs>
   <clipPath id="id0">
    <path d="M91.234 163.341c0.06,-0.29 0.117,-0.718 0.209,-2.252 0.091,-1.534 0.216,-4.174 0.518,-9.369 0.303,-5.195 0.782,-12.944 1.164,-18.604 0.382,-5.659 0.667,-9.229 1.038,-13.175 0.37,-3.946 0.826,-8.268 1.397,-12.773 0.57,-4.505 1.254,-9.192 2.132,-14.518 0.879,-5.326 1.95,-11.291 2.766,-15.197 0.815,-3.906 1.374,-5.753 1.733,-6.921 0.358,-1.167 0.516,-1.655 0.64,-1.921 0.123,-0.267 0.212,-0.313 0.296,-0.305 0.084,0.008 0.164,0.069 0.266,0.183 0.103,0.113 0.228,0.278 0.391,0.627 0.163,0.349 0.362,0.88 0.684,1.602 0.321,0.721 0.764,1.632 1.146,2.525 0.381,0.893 0.7,1.768 0.836,2.443 0.135,0.674 0.087,1.147 0.127,1.679 0.04,0.532 0.168,1.122 0.504,1.619 0.337,0.498 0.881,0.903 1.195,1.44 0.314,0.538 0.396,1.208 0.602,2.158 0.205,0.951 0.533,2.183 0.646,3.113 0.112,0.929 0.009,1.556 -0.098,2.148 -0.106,0.591 -0.218,1.148 -0.101,1.705 0.117,0.557 0.462,1.116 0.865,1.635 0.404,0.519 0.866,0.998 1.149,1.313 0.284,0.315 0.39,0.466 0.491,0.609 0.101,0.142 0.198,0.276 0.351,0.879 0.152,0.603 0.36,1.675 0.439,2.419 0.078,0.745 0.027,1.161 -0.003,1.576 -0.03,0.415 -0.039,0.828 -0.073,1.354 -0.034,0.526 -0.094,1.165 -0.085,1.751 0.008,0.586 0.085,1.119 0.46,1.91 0.375,0.791 1.048,1.84 1.685,2.689 0.637,0.848 1.239,1.495 1.643,1.902 0.404,0.407 0.611,0.574 0.797,0.87 0.186,0.296 0.351,0.72 0.488,1.263 0.137,0.544 0.246,1.205 0.304,1.972 0.058,0.767 0.067,1.64 0.054,2.608 -0.013,0.968 -0.047,2.031 0.15,2.999 0.197,0.968 0.624,1.84 1.101,2.577 0.476,0.738 1,1.339 1.389,1.826 0.39,0.488 0.644,0.862 0.856,1.23 0.213,0.367 0.384,0.729 0.555,1.154 0.171,0.425 0.342,0.913 0.472,1.479 0.13,0.566 0.218,1.21 0.339,1.795 0.121,0.584 0.275,1.108 0.375,1.699 0.1,0.59 0.145,1.246 0.32,2.204 0.174,0.958 0.476,2.218 0.678,3.273 0.203,1.055 0.305,1.904 0.416,2.657 0.112,0.753 0.231,1.409 0.325,2.284 0.094,0.875 0.163,1.97 0.294,2.774 0.131,0.804 0.325,1.317 0.465,2.09 0.14,0.772 0.225,1.805 0.299,2.412 0.074,0.607 0.137,0.79 0.288,0.952 0.104,0.112 0.251,0.215 0.437,0.32 -0.079,-0.368 -0.154,-0.732 -0.127,-0.999 0.028,-0.278 0.168,-0.45 0.332,-0.556 0.164,-0.105 0.352,-0.145 0.75,-0.063 0.398,0.082 1.007,0.284 1.729,0.399 0.723,0.115 1.56,0.144 2.868,0.151 1.309,0.007 3.089,-0.007 5.568,-0.327 2.479,-0.319 5.657,-0.943 8.788,-1.599 3.132,-0.656 6.217,-1.344 9.657,-2.107 3.44,-0.762 7.234,-1.599 10.248,-2.124 3.014,-0.525 5.249,-0.737 8.16,-0.854 2.912,-0.118 6.502,-0.139 10.137,0.024 3.635,0.163 7.316,0.511 9.976,0.862 2.66,0.351 4.298,0.706 5.688,1.227 1.391,0.522 2.533,1.21 3.226,1.734 0.693,0.524 0.938,0.884 1.054,1.193 0.116,0.309 0.104,0.568 -0.007,0.887 -0.11,0.319 -0.318,0.698 -0.526,1.077 0.192,-0.063 0.354,-0.202 0.566,-0.399 0.232,-0.218 0.523,-0.509 0.64,-0.957 0.116,-0.447 0.059,-1.052 0.065,-2.577 0.006,-1.525 0.074,-3.972 0.052,-6.694 -0.023,-2.724 -0.137,-5.723 -0.194,-7.553 -0.057,-1.831 -0.057,-2.492 -0.057,-3.427 0,-0.936 0,-2.144 -0.029,-3.276 -0.028,-1.132 -0.085,-2.187 -0.111,-3.279 -0.025,-1.092 -0.02,-2.221 -0.091,-4.009 -0.072,-1.787 -0.22,-4.234 -0.3,-6.212 -0.079,-1.979 -0.091,-3.49 -0.231,-7.51 -0.139,-4.02 -0.407,-10.55 -0.929,-16.996 -0.522,-6.446 -1.297,-12.81 -2.278,-18.854 -0.981,-6.045 -2.167,-11.77 -3.341,-17.21 -1.175,-5.44 -2.338,-10.594 -3.867,-15.864 -1.528,-5.268 -3.421,-10.651 -5.246,-15.498 -1.824,-4.847 -3.581,-9.158 -4.618,-11.657 -1.038,-2.499 -1.357,-3.186 -1.494,-3.631 -0.137,-0.445 -0.092,-0.647 0.009,-0.803 0.102,-0.155 0.258,-0.263 0.386,-0.349 0.014,-0.01 0.028,-0.019 0.041,-0.029 -0.042,-0.002 -0.088,-0.005 -0.144,-0.008 -0.105,-0.005 -0.243,-0.013 -0.693,-0.048 -0.449,-0.035 -1.21,-0.098 -2.217,-0.107 -1.008,-0.008 -2.262,0.038 -3.577,0.132 -1.316,0.095 -2.692,0.24 -4.839,0.609 -2.148,0.368 -5.068,0.962 -7.478,1.498 -2.41,0.535 -4.311,1.014 -6.805,1.509 -2.494,0.494 -5.581,1.003 -8.679,1.418 -3.098,0.414 -6.208,0.733 -9.971,1.076 -3.764,0.341 -8.181,0.707 -11.872,0.965 -3.692,0.259 -6.657,0.41 -9.367,0.559 -2.711,0.148 -5.167,0.292 -7.957,0.403 -2.79,0.11 -5.915,0.186 -9.017,0.251 -3.102,0.064 -6.181,0.117 -9.116,0.11 -2.935,-0.008 -5.725,-0.076 -8.341,-0.137 -2.615,-0.061 -5.056,-0.114 -7.698,-0.194 -2.642,-0.08 -5.486,-0.186 -8.975,-0.285 -3.49,-0.099 -7.626,-0.19 -12.01,-0.217 -4.383,-0.026 -9.013,0.012 -12.845,0.008 -3.832,-0.004 -6.865,-0.049 -10.876,-0.205 -4.011,-0.156 -8.998,-0.422 -12.585,-0.69 -3.587,-0.268 -5.773,-0.538 -7.362,-0.856 -1.59,-0.318 -2.583,-0.683 -3.577,-1.049 0.044,0.064 0.021,0.188 -0.027,0.625 -0.062,0.551 -0.164,1.597 -0.449,3.521 -0.286,1.925 -0.753,4.728 -1.058,6.779 -0.305,2.052 -0.448,3.352 -0.79,5.493 -0.342,2.141 -0.884,5.124 -1.32,7.752 -0.436,2.629 -0.767,4.904 -1.029,6.823 -0.263,1.919 -0.457,3.481 -0.636,5.294 -0.18,1.814 -0.345,3.878 -0.525,6.376 -0.18,2.497 -0.373,5.428 -0.567,8.701 -0.194,3.273 -0.388,6.888 -0.53,10.743 -0.143,3.855 -0.234,7.949 -0.206,12.14 0.029,4.192 0.177,8.48 0.468,12.648 0.291,4.169 0.724,8.217 1.009,11.855 0.285,3.638 0.422,6.865 0.485,10.435 0.063,3.57 0.051,7.481 0.091,11.969 0.04,4.488 0.131,9.552 0.223,13.777 0.091,4.225 0.182,7.612 0.266,9.945 0.084,2.332 0.162,3.609 0.193,4.373 0.031,0.764 0.017,1.015 0.027,2.23 0.01,1.214 0.044,3.393 0.078,4.946 0.035,1.554 0.069,2.484 0.137,3.037 0.068,0.553 0.171,0.73 0.482,1.055 0.311,0.325 0.83,0.798 2.632,1.177 1.802,0.38 4.886,0.665 7.829,0.918 2.942,0.254 5.742,0.476 10.492,0.73 4.75,0.254 11.451,0.539 16.4,0.753 4.95,0.214 8.149,0.356 10.954,0.382 2.806,0.026 5.218,-0.066 7.656,-0.143 2.438,-0.077 4.901,-0.139 7.25,-0.216 2.35,-0.077 4.585,-0.168 7.735,-0.565 3.151,-0.396 7.217,-1.098 9.757,-1.616 2.54,-0.519 3.556,-0.856 4.448,-1.309 0.892,-0.453 1.662,-1.024 2.078,-1.386 0.417,-0.362 0.479,-0.516 0.539,-0.807z"/>
   </clipPath>
    <clipPath id="id1">
     <path d="M126.868 7.208c-3.692,0.259 -6.657,0.41 -9.367,0.559 -2.711,0.148 -5.167,0.292 -7.957,0.403 -2.79,0.11 -5.915,0.186 -9.017,0.251l-0.168 0.003 -0.203 0.004 -0.658 0.014 -0.07 0.001 -0.359 0.007 -0.209 0.004 -0.131 0.003 -0.253 0.004 -0.26 0.005 -0.531 0.009 -0.079 0.002 -0.276 0.004 -0.23 0.004 -0.357 0.006 -0.115 0.002 -0.088 0.001 -0.101 0.001 -0.118 0.002 -0.783 0.01 -0.066 0.001c0.077,0.533 0.157,1.09 0.241,1.678 0.521,3.612 1.205,8.363 1.612,11.976 0.408,3.612 0.539,6.086 1.088,9.846 0.549,3.758 1.516,8.803 2.362,13.439 0.846,4.636 1.571,8.864 2.128,11.482 0.557,2.618 0.946,3.625 1.265,4.398 0.319,0.772 0.568,1.31 0.72,1.7 0.152,0.39 0.206,0.631 0.184,0.807 -0.021,0.175 -0.12,0.285 -0.256,0.446 -0.135,0.161 -0.307,0.373 -0.481,0.599 -0.173,0.226 -0.349,0.466 -0.581,1.057 -0.233,0.592 -0.523,1.535 -0.813,2.478l0.001 -0.001c0.014,-0.019 0.028,-0.034 0.041,-0.047l0.006 -0.006 0.009 -0.009 0.004 -0.004 0.005 -0.003 0.011 -0.008 0.001 -0.001 0.023 -0.014 0.005 -0.002 0.001 -0.001 0.01 -0.004 0.022 -0.006 0.001 0 0.004 0 0.003 -0.001 0.005 -0.001 0.007 0 0.002 0 0.005 -0.001 0.004 0 0.005 0.001 0.003 0 0.004 0 0.004 0c0.084,0.008 0.164,0.069 0.266,0.183 0.103,0.113 0.228,0.278 0.391,0.627 0.163,0.349 0.362,0.88 0.684,1.602 0.321,0.721 0.764,1.632 1.146,2.525 0.381,0.893 0.7,1.768 0.836,2.443 0.135,0.674 0.087,1.147 0.127,1.679 0.04,0.532 0.168,1.122 0.504,1.619 0.337,0.498 0.881,0.903 1.195,1.44 0.314,0.538 0.396,1.208 0.602,2.158 0.205,0.951 0.533,2.183 0.646,3.113 0.112,0.929 0.009,1.556 -0.098,2.148 -0.106,0.591 -0.218,1.148 -0.101,1.705 0.117,0.557 0.462,1.116 0.865,1.635 0.404,0.519 0.866,0.998 1.149,1.313 0.284,0.315 0.39,0.466 0.491,0.609 0.101,0.142 0.198,0.276 0.351,0.879 0.152,0.603 0.36,1.675 0.439,2.419 0.078,0.745 0.027,1.161 -0.003,1.576 -0.03,0.415 -0.039,0.828 -0.073,1.354 -0.034,0.526 -0.094,1.165 -0.085,1.751 0.008,0.586 0.085,1.119 0.46,1.91 0.375,0.791 1.048,1.84 1.685,2.689 0.637,0.848 1.239,1.495 1.643,1.902 0.404,0.407 0.611,0.574 0.797,0.87 0.186,0.296 0.351,0.72 0.488,1.263 0.137,0.544 0.246,1.205 0.304,1.972 0.058,0.767 0.067,1.64 0.054,2.608 -0.013,0.968 -0.047,2.031 0.15,2.999 0.197,0.968 0.624,1.84 1.101,2.577 0.476,0.738 1,1.339 1.389,1.826 0.39,0.488 0.644,0.862 0.856,1.23 0.213,0.367 0.384,0.729 0.555,1.154 0.171,0.425 0.342,0.913 0.472,1.479 0.13,0.566 0.218,1.21 0.339,1.795 0.121,0.584 0.275,1.108 0.375,1.699 0.1,0.59 0.145,1.246 0.32,2.204 0.174,0.958 0.476,2.218 0.678,3.273 0.203,1.055 0.305,1.904 0.416,2.657 0.112,0.753 0.231,1.409 0.325,2.284 0.094,0.875 0.163,1.97 0.294,2.774 0.131,0.804 0.325,1.317 0.465,2.09 0.14,0.772 0.225,1.805 0.299,2.412 0.074,0.607 0.137,0.79 0.288,0.952l0.005 0.005 0.005 0.006 0.005 0.005 0.01 0.01 0.006 0.005 0.015 0.016 0.012 0.01 0.005 0.005 0.006 0.005 0.005 0.006 0.006 0.005 0.012 0.01 0.012 0.01 0.006 0.005 0.006 0.005 0.013 0.01 0.006 0.005 0.019 0.015 0.007 0.005 0.007 0.005 0.02 0.015 0.007 0.005 0.007 0.005 0.028 0.02 0.014 0.009 0.008 0.005 0.015 0.01 0.015 0.01 0.015 0.01 0.008 0.005 0.016 0.009 0.008 0.005 0.008 0.005 0.016 0.01 0.016 0.01 0.025 0.014 0.009 0.006 0.008 0.004 0.009 0.005 0.009 0.005 0.008 0.005c-0.079,-0.368 -0.154,-0.732 -0.127,-0.999 0.028,-0.278 0.168,-0.45 0.332,-0.556 0.164,-0.105 0.352,-0.145 0.75,-0.063 0.398,0.082 1.007,0.284 1.729,0.399 0.723,0.115 1.56,0.144 2.868,0.151 1.309,0.007 3.089,-0.007 5.568,-0.327 2.479,-0.319 5.657,-0.943 8.788,-1.599 3.132,-0.656 6.217,-1.344 9.657,-2.107 3.44,-0.762 7.234,-1.599 10.248,-2.124 3.014,-0.525 5.249,-0.737 8.16,-0.854 2.912,-0.118 6.502,-0.139 10.137,0.024 3.635,0.163 7.316,0.511 9.976,0.862 2.66,0.351 4.298,0.706 5.688,1.227 1.391,0.522 2.533,1.21 3.226,1.734 0.693,0.524 0.938,0.884 1.054,1.193 0.116,0.309 0.104,0.568 -0.007,0.887l-0.005 0.015 -0.011 0.031 -0.006 0.015 -0.011 0.031 -0.012 0.03 -0.02 0.048 -0.006 0.015 -0.014 0.033 -0.014 0.032 -0.008 0.016 -0.022 0.049 -0.015 0.033 -0.008 0.017 -0.032 0.067 -0.008 0.016 -0.026 0.051 -0.017 0.034 -0.017 0.035 -0.018 0.034 -0.055 0.104c-0.064,0.123 -0.132,0.246 -0.201,0.371l0.036 -0.012 0.026 -0.011 0.017 -0.008 0.026 -0.012 0.026 -0.013 0.009 -0.005 0.025 -0.014 0.025 -0.016 0.017 -0.01 0.026 -0.018c0.059,-0.04 0.119,-0.088 0.182,-0.143l0.092 -0.083 0.039 -0.036 0.01 -0.009 0.01 -0.009c0.232,-0.218 0.523,-0.509 0.64,-0.957 0.116,-0.447 0.059,-1.052 0.065,-2.577 0.006,-1.525 0.074,-3.972 0.052,-6.694 -0.023,-2.724 -0.137,-5.723 -0.194,-7.553 -0.057,-1.831 -0.057,-2.492 -0.057,-3.427 0,-0.936 0,-2.144 -0.029,-3.276 -0.028,-1.132 -0.085,-2.187 -0.111,-3.279 -0.025,-1.092 -0.02,-2.221 -0.091,-4.009 -0.072,-1.787 -0.22,-4.234 -0.3,-6.212 -0.079,-1.979 -0.091,-3.49 -0.231,-7.51 -0.139,-4.02 -0.407,-10.55 -0.929,-16.996 -0.522,-6.446 -1.297,-12.81 -2.278,-18.854 -0.981,-6.045 -2.167,-11.77 -3.341,-17.21 -1.175,-5.44 -2.338,-10.594 -3.867,-15.864 -1.528,-5.268 -3.421,-10.651 -5.246,-15.498 -1.824,-4.847 -3.581,-9.158 -4.618,-11.657 -1.038,-2.499 -1.357,-3.186 -1.494,-3.631 -0.137,-0.445 -0.092,-0.647 0.009,-0.803 0.102,-0.155 0.258,-0.263 0.386,-0.349 0.014,-0.01 0.028,-0.019 0.041,-0.029 -0.042,-0.002 -0.088,-0.005 -0.144,-0.008 -0.105,-0.005 -0.243,-0.013 -0.693,-0.048 -0.449,-0.035 -1.21,-0.098 -2.217,-0.107 -1.008,-0.008 -2.262,0.038 -3.577,0.132 -1.316,0.095 -2.692,0.24 -4.839,0.609 -2.148,0.368 -5.068,0.962 -7.478,1.498 -2.41,0.535 -4.311,1.014 -6.805,1.509 -2.494,0.494 -5.581,1.003 -8.679,1.418 -3.098,0.414 -6.208,0.733 -9.971,1.076 -3.764,0.341 -8.181,0.707 -11.872,0.965z"/>
    </clipPath>
    <clipPath id="id2">
     <path d="M91.234 163.341c0.06,-0.29 0.117,-0.718 0.209,-2.252 0.091,-1.534 0.216,-4.174 0.518,-9.369 0.303,-5.195 0.782,-12.944 1.164,-18.604 0.382,-5.659 0.667,-9.229 1.038,-13.175 0.37,-3.946 0.826,-8.268 1.397,-12.773 0.57,-4.505 1.254,-9.192 2.132,-14.518 0.879,-5.326 1.95,-11.291 2.766,-15.197 0.815,-3.906 1.374,-5.753 1.733,-6.921 0.358,-1.167 0.516,-1.655 0.64,-1.921 0.123,-0.267 0.212,-0.313 0.296,-0.305 0.084,0.008 0.164,0.069 0.266,0.183 0.103,0.113 0.228,0.278 0.391,0.627 0.163,0.349 0.362,0.88 0.684,1.602 0.321,0.721 0.764,1.632 1.146,2.525 0.381,0.893 0.7,1.768 0.836,2.443 0.135,0.674 0.087,1.147 0.127,1.679 0.04,0.532 0.168,1.122 0.504,1.619 0.337,0.498 0.881,0.903 1.195,1.44 0.314,0.538 0.396,1.208 0.602,2.158 0.205,0.951 0.533,2.183 0.646,3.113 0.112,0.929 0.009,1.556 -0.098,2.148 -0.106,0.591 -0.218,1.148 -0.101,1.705 0.117,0.557 0.462,1.116 0.865,1.635 0.404,0.519 0.866,0.998 1.149,1.313 0.284,0.315 0.39,0.466 0.491,0.609 0.101,0.142 0.198,0.276 0.351,0.879 0.152,0.603 0.36,1.675 0.439,2.419 0.078,0.745 0.027,1.161 -0.003,1.576 -0.03,0.415 -0.039,0.828 -0.073,1.354 -0.034,0.526 -0.094,1.165 -0.085,1.751 0.008,0.586 0.085,1.119 0.46,1.91 0.375,0.791 1.048,1.84 1.685,2.689 0.637,0.848 1.239,1.495 1.643,1.902 0.404,0.407 0.611,0.574 0.797,0.87 0.186,0.296 0.351,0.72 0.488,1.263 0.137,0.544 0.246,1.205 0.304,1.972 0.058,0.767 0.067,1.64 0.054,2.608 -0.013,0.968 -0.047,2.031 0.15,2.999 0.197,0.968 0.624,1.84 1.101,2.577 0.476,0.738 1,1.339 1.389,1.826 0.39,0.488 0.644,0.862 0.856,1.23 0.213,0.367 0.384,0.729 0.555,1.154 0.171,0.425 0.342,0.913 0.472,1.479 0.13,0.566 0.218,1.21 0.339,1.795 0.121,0.584 0.275,1.108 0.375,1.699 0.1,0.59 0.145,1.246 0.32,2.204 0.174,0.958 0.476,2.218 0.678,3.273 0.203,1.055 0.305,1.904 0.416,2.657 0.112,0.753 0.231,1.409 0.325,2.284 0.094,0.875 0.163,1.97 0.294,2.774 0.131,0.804 0.325,1.317 0.465,2.09 0.14,0.772 0.225,1.805 0.299,2.412 0.074,0.607 0.137,0.79 0.288,0.952 0.104,0.112 0.251,0.215 0.437,0.32 -0.079,-0.368 -0.154,-0.732 -0.127,-0.999 0.028,-0.278 0.168,-0.45 0.332,-0.556 0.164,-0.105 0.352,-0.145 0.75,-0.063 0.398,0.082 1.007,0.284 1.729,0.399 0.723,0.115 1.56,0.144 2.868,0.151 1.309,0.007 3.089,-0.007 5.568,-0.327 2.479,-0.319 5.657,-0.943 8.788,-1.599 3.132,-0.656 6.217,-1.344 9.657,-2.107 3.44,-0.762 7.234,-1.599 10.248,-2.124 3.014,-0.525 5.249,-0.737 8.16,-0.854 2.912,-0.118 6.502,-0.139 10.137,0.024 3.635,0.163 7.316,0.511 9.976,0.862 2.66,0.351 4.298,0.706 5.688,1.227 1.391,0.522 2.533,1.21 3.226,1.734 0.693,0.524 0.938,0.884 1.054,1.193 0.116,0.309 0.104,0.568 -0.007,0.887 -0.11,0.319 -0.318,0.698 -0.526,1.077 0.192,-0.063 0.354,-0.202 0.566,-0.399 0.232,-0.218 0.523,-0.509 0.64,-0.957 0.116,-0.447 0.059,-1.052 0.065,-2.577 0.006,-1.525 0.074,-3.972 0.052,-6.694 -0.023,-2.724 -0.137,-5.723 -0.194,-7.553 -0.057,-1.831 -0.057,-2.492 -0.057,-3.427 0,-0.936 0,-2.144 -0.029,-3.276 -0.028,-1.132 -0.085,-2.187 -0.111,-3.279 -0.025,-1.092 -0.02,-2.221 -0.091,-4.009 -0.072,-1.787 -0.22,-4.234 -0.3,-6.212 -0.079,-1.979 -0.091,-3.49 -0.231,-7.51 -0.139,-4.02 -0.407,-10.55 -0.929,-16.996 -0.522,-6.446 -1.297,-12.81 -2.278,-18.854 -0.981,-6.045 -2.167,-11.77 -3.341,-17.21 -1.175,-5.44 -2.338,-10.594 -3.867,-15.864 -1.528,-5.268 -3.421,-10.651 -5.246,-15.498 -1.824,-4.847 -3.581,-9.158 -4.618,-11.657 -1.038,-2.499 -1.357,-3.186 -1.494,-3.631 -0.137,-0.445 -0.092,-0.647 0.009,-0.803 0.102,-0.155 0.258,-0.263 0.386,-0.349 0.014,-0.01 0.028,-0.019 0.041,-0.029 -0.042,-0.002 -0.088,-0.005 -0.144,-0.008 -0.105,-0.005 -0.243,-0.013 -0.693,-0.048 -0.449,-0.035 -1.21,-0.098 -2.217,-0.107 -1.008,-0.008 -2.262,0.038 -3.577,0.132 -1.316,0.095 -2.692,0.24 -4.839,0.609 -2.148,0.368 -5.068,0.962 -7.478,1.498 -2.41,0.535 -4.311,1.014 -6.805,1.509 -2.494,0.494 -5.581,1.003 -8.679,1.418 -3.098,0.414 -6.208,0.733 -9.971,1.076 -3.764,0.341 -8.181,0.707 -11.872,0.965 -3.692,0.259 -6.657,0.41 -9.367,0.559 -2.711,0.148 -5.167,0.292 -7.957,0.403 -2.79,0.11 -5.915,0.186 -9.017,0.251 -3.102,0.064 -6.181,0.117 -9.116,0.11 -2.935,-0.008 -5.725,-0.076 -8.341,-0.137 -2.615,-0.061 -5.056,-0.114 -7.698,-0.194 -2.642,-0.08 -5.486,-0.186 -8.975,-0.285 -3.49,-0.099 -7.626,-0.19 -12.01,-0.217 -4.383,-0.026 -9.013,0.012 -12.845,0.008 -3.832,-0.004 -6.865,-0.049 -10.876,-0.205 -4.011,-0.156 -8.998,-0.422 -12.585,-0.69 -3.587,-0.268 -5.773,-0.538 -7.362,-0.856 -1.59,-0.318 -2.583,-0.683 -3.577,-1.049 0.044,0.064 0.021,0.188 -0.027,0.625 -0.062,0.551 -0.164,1.597 -0.449,3.521 -0.286,1.925 -0.753,4.728 -1.058,6.779 -0.305,2.052 -0.448,3.352 -0.79,5.493 -0.342,2.141 -0.884,5.124 -1.32,7.752 -0.436,2.629 -0.767,4.904 -1.029,6.823 -0.263,1.919 -0.457,3.481 -0.636,5.294 -0.18,1.814 -0.345,3.878 -0.525,6.376 -0.18,2.497 -0.373,5.428 -0.567,8.701 -0.194,3.273 -0.388,6.888 -0.53,10.743 -0.143,3.855 -0.234,7.949 -0.206,12.14 0.029,4.192 0.177,8.48 0.468,12.648 0.291,4.169 0.724,8.217 1.009,11.855 0.285,3.638 0.422,6.865 0.485,10.435 0.063,3.57 0.051,7.481 0.091,11.969 0.04,4.488 0.131,9.552 0.223,13.777 0.091,4.225 0.182,7.612 0.266,9.945 0.084,2.332 0.162,3.609 0.193,4.373 0.031,0.764 0.017,1.015 0.027,2.23 0.01,1.214 0.044,3.393 0.078,4.946 0.035,1.554 0.069,2.484 0.137,3.037 0.068,0.553 0.171,0.73 0.482,1.055 0.311,0.325 0.83,0.798 2.632,1.177 1.802,0.38 4.886,0.665 7.829,0.918 2.942,0.254 5.742,0.476 10.492,0.73 4.75,0.254 11.451,0.539 16.4,0.753 4.95,0.214 8.149,0.356 10.954,0.382 2.806,0.026 5.218,-0.066 7.656,-0.143 2.438,-0.077 4.901,-0.139 7.25,-0.216 2.35,-0.077 4.585,-0.168 7.735,-0.565 3.151,-0.396 7.217,-1.098 9.757,-1.616 2.54,-0.519 3.556,-0.856 4.448,-1.309 0.892,-0.453 1.662,-1.024 2.078,-1.386 0.417,-0.362 0.479,-0.516 0.539,-0.807z"/>
    </clipPath>
    <clipPath id="id3">
     <path d="M66.397 7.915c-3.49,-0.099 -7.626,-0.19 -12.01,-0.217 -4.383,-0.026 -9.013,0.012 -12.845,0.008 -3.832,-0.004 -6.865,-0.049 -10.876,-0.205 -4.011,-0.156 -8.998,-0.422 -12.585,-0.69 -3.587,-0.268 -5.773,-0.538 -7.362,-0.856 -1.59,-0.318 -2.583,-0.683 -3.577,-1.049 0.044,0.064 0.021,0.188 -0.027,0.625 -0.062,0.551 -0.164,1.597 -0.449,3.521 -0.286,1.925 -0.753,4.728 -1.058,6.779 -0.305,2.052 -0.448,3.352 -0.79,5.493 -0.342,2.141 -0.884,5.124 -1.32,7.752 -0.436,2.629 -0.767,4.904 -1.029,6.823 -0.263,1.919 -0.457,3.481 -0.636,5.294 -0.18,1.814 -0.345,3.878 -0.525,6.376 -0.18,2.497 -0.373,5.428 -0.567,8.701 -0.194,3.273 -0.388,6.888 -0.53,10.743 -0.143,3.855 -0.234,7.949 -0.206,12.14 0.029,4.192 0.177,8.48 0.468,12.648 0.291,4.169 0.724,8.217 1.009,11.855 0.285,3.638 0.422,6.865 0.485,10.435 0.063,3.57 0.051,7.481 0.091,11.969 0.04,4.488 0.131,9.552 0.223,13.777 0.091,4.225 0.182,7.612 0.266,9.945 0.084,2.332 0.162,3.609 0.193,4.373 0.031,0.764 0.017,1.015 0.027,2.23 0.01,1.214 0.044,3.393 0.078,4.946 0.035,1.554 0.069,2.484 0.137,3.037 0.068,0.553 0.171,0.73 0.482,1.055 0.311,0.325 0.83,0.798 2.632,1.177 1.802,0.38 4.886,0.665 7.829,0.918 2.942,0.254 5.742,0.476 10.492,0.73 4.75,0.254 11.451,0.539 16.4,0.753 4.95,0.214 8.149,0.356 10.954,0.382 2.806,0.026 5.218,-0.066 7.656,-0.143 2.438,-0.077 4.901,-0.139 7.25,-0.216 2.35,-0.077 4.585,-0.168 7.735,-0.565 3.151,-0.396 7.217,-1.098 9.757,-1.616 2.54,-0.519 3.556,-0.856 4.448,-1.309 0.892,-0.453 1.662,-1.024 2.078,-1.386 0.417,-0.362 0.479,-0.516 0.539,-0.807 0.06,-0.29 0.117,-0.718 0.209,-2.252 0.091,-1.534 0.216,-4.174 0.518,-9.369 0.303,-5.195 0.782,-12.944 1.164,-18.604 0.382,-5.659 0.667,-9.229 1.038,-13.175 0.37,-3.946 0.826,-8.268 1.397,-12.773 0.57,-4.505 1.254,-9.192 2.132,-14.518 0.879,-5.326 1.95,-11.291 2.766,-15.197 0.815,-3.906 1.374,-5.753 1.733,-6.921 0.358,-1.167 0.516,-1.655 0.64,-1.921l0.003 -0.007 0.001 -0.002 0.008 -0.016 0.002 -0.005 0.003 -0.006 0.003 -0.005 0.002 -0.006 0.002 -0.004 0.004 -0.007 0.003 -0.005 0.002 -0.005 0 -0.001 0.003 -0.005 0.001 -0.002 0.002 -0.004 0.002 -0.003 0.002 -0.005 0.002 -0.002 0.001 -0.002 0.007 -0.013 0.002 -0.005 0.002 -0.003 0.002 -0.004 0.003 -0.005 0.011 -0.018 0 -0.001 0.003 -0.004 0.007 -0.011 0.006 -0.01 0.018 -0.026 0.003 -0.005c0.29,-0.943 0.58,-1.886 0.813,-2.478 0.232,-0.591 0.408,-0.831 0.581,-1.057 0.174,-0.226 0.346,-0.438 0.481,-0.599 0.136,-0.161 0.235,-0.271 0.256,-0.446 0.022,-0.176 -0.032,-0.417 -0.184,-0.807 -0.152,-0.39 -0.401,-0.928 -0.72,-1.7 -0.319,-0.773 -0.708,-1.78 -1.265,-4.398 -0.557,-2.618 -1.282,-6.846 -2.128,-11.482 -0.846,-4.636 -1.813,-9.681 -2.362,-13.439 -0.549,-3.76 -0.68,-6.234 -1.088,-9.846 -0.407,-3.613 -1.091,-8.364 -1.612,-11.976 -0.084,-0.588 -0.164,-1.145 -0.241,-1.678l-0.105 0.002 -0.092 0.001 -0.082 0.001 -0.164 0.002 -0.186 0.002 -0.056 0 -0.048 0.001 -0.206 0.002 -0.132 0.001 -0.185 0.002 -0.15 0.001 -0.008 0 -0.096 0.001 -0.083 0 -0.016 0 -0.162 0.001 -0.036 0 -0.142 0.001 -0.854 0.005 -0.012 0 -0.103 0 -0.036 0 -0.079 0 -0.06 0 -0.155 0.001 -0.502 0 -0.174 -0.001 -0.024 0 -0.113 0c-2.935,-0.008 -5.725,-0.076 -8.341,-0.137 -2.615,-0.061 -5.056,-0.114 -7.698,-0.194 -2.642,-0.08 -5.486,-0.186 -8.975,-0.285z"/>
    </clipPath>
    <clipPath id="id4">
     <path d="M91.234 163.341c0.06,-0.29 0.117,-0.718 0.209,-2.252 0.091,-1.534 0.216,-4.174 0.518,-9.369 0.303,-5.195 0.782,-12.944 1.164,-18.604 0.382,-5.659 0.667,-9.229 1.038,-13.175 0.37,-3.946 0.826,-8.268 1.397,-12.773 0.57,-4.505 1.254,-9.192 2.132,-14.518 0.879,-5.326 1.95,-11.291 2.766,-15.197 0.815,-3.906 1.374,-5.753 1.733,-6.921 0.358,-1.167 0.516,-1.655 0.64,-1.921 0.123,-0.267 0.212,-0.313 0.296,-0.305 0.084,0.008 0.164,0.069 0.266,0.183 0.103,0.113 0.228,0.278 0.391,0.627 0.163,0.349 0.362,0.88 0.684,1.602 0.321,0.721 0.764,1.632 1.146,2.525 0.381,0.893 0.7,1.768 0.836,2.443 0.135,0.674 0.087,1.147 0.127,1.679 0.04,0.532 0.168,1.122 0.504,1.619 0.337,0.498 0.881,0.903 1.195,1.44 0.314,0.538 0.396,1.208 0.602,2.158 0.205,0.951 0.533,2.183 0.646,3.113 0.112,0.929 0.009,1.556 -0.098,2.148 -0.106,0.591 -0.218,1.148 -0.101,1.705 0.117,0.557 0.462,1.116 0.865,1.635 0.404,0.519 0.866,0.998 1.149,1.313 0.284,0.315 0.39,0.466 0.491,0.609 0.101,0.142 0.198,0.276 0.351,0.879 0.152,0.603 0.36,1.675 0.439,2.419 0.078,0.745 0.027,1.161 -0.003,1.576 -0.03,0.415 -0.039,0.828 -0.073,1.354 -0.034,0.526 -0.094,1.165 -0.085,1.751 0.008,0.586 0.085,1.119 0.46,1.91 0.375,0.791 1.048,1.84 1.685,2.689 0.637,0.848 1.239,1.495 1.643,1.902 0.404,0.407 0.611,0.574 0.797,0.87 0.186,0.296 0.351,0.72 0.488,1.263 0.137,0.544 0.246,1.205 0.304,1.972 0.058,0.767 0.067,1.64 0.054,2.608 -0.013,0.968 -0.047,2.031 0.15,2.999 0.197,0.968 0.624,1.84 1.101,2.577 0.476,0.738 1,1.339 1.389,1.826 0.39,0.488 0.644,0.862 0.856,1.23 0.213,0.367 0.384,0.729 0.555,1.154 0.171,0.425 0.342,0.913 0.472,1.479 0.13,0.566 0.218,1.21 0.339,1.795 0.121,0.584 0.275,1.108 0.375,1.699 0.1,0.59 0.145,1.246 0.32,2.204 0.174,0.958 0.476,2.218 0.678,3.273 0.203,1.055 0.305,1.904 0.416,2.657 0.112,0.753 0.231,1.409 0.325,2.284 0.094,0.875 0.163,1.97 0.294,2.774 0.131,0.804 0.325,1.317 0.465,2.09 0.14,0.772 0.225,1.805 0.299,2.412 0.074,0.607 0.137,0.79 0.288,0.952 0.104,0.112 0.251,0.215 0.437,0.32 -0.079,-0.368 -0.154,-0.732 -0.127,-0.999 0.028,-0.278 0.168,-0.45 0.332,-0.556 0.164,-0.105 0.352,-0.145 0.75,-0.063 0.398,0.082 1.007,0.284 1.729,0.399 0.723,0.115 1.56,0.144 2.868,0.151 1.309,0.007 3.089,-0.007 5.568,-0.327 2.479,-0.319 5.657,-0.943 8.788,-1.599 3.132,-0.656 6.217,-1.344 9.657,-2.107 3.44,-0.762 7.234,-1.599 10.248,-2.124 3.014,-0.525 5.249,-0.737 8.16,-0.854 2.912,-0.118 6.502,-0.139 10.137,0.024 3.635,0.163 7.316,0.511 9.976,0.862 2.66,0.351 4.298,0.706 5.688,1.227 1.391,0.522 2.533,1.21 3.226,1.734 0.693,0.524 0.938,0.884 1.054,1.193 0.116,0.309 0.104,0.568 -0.007,0.887 -0.11,0.319 -0.318,0.698 -0.526,1.077 0.192,-0.063 0.354,-0.202 0.566,-0.399 0.232,-0.218 0.523,-0.509 0.64,-0.957 0.116,-0.447 0.059,-1.052 0.065,-2.577 0.006,-1.525 0.074,-3.972 0.052,-6.694 -0.023,-2.724 -0.137,-5.723 -0.194,-7.553 -0.057,-1.831 -0.057,-2.492 -0.057,-3.427 0,-0.936 0,-2.144 -0.029,-3.276 -0.028,-1.132 -0.085,-2.187 -0.111,-3.279 -0.025,-1.092 -0.02,-2.221 -0.091,-4.009 -0.072,-1.787 -0.22,-4.234 -0.3,-6.212 -0.079,-1.979 -0.091,-3.49 -0.231,-7.51 -0.139,-4.02 -0.407,-10.55 -0.929,-16.996 -0.522,-6.446 -1.297,-12.81 -2.278,-18.854 -0.981,-6.045 -2.167,-11.77 -3.341,-17.21 -1.175,-5.44 -2.338,-10.594 -3.867,-15.864 -1.528,-5.268 -3.421,-10.651 -5.246,-15.498 -1.824,-4.847 -3.581,-9.158 -4.618,-11.657 -1.038,-2.499 -1.357,-3.186 -1.494,-3.631 -0.137,-0.445 -0.092,-0.647 0.009,-0.803 0.102,-0.155 0.258,-0.263 0.386,-0.349 0.014,-0.01 0.028,-0.019 0.041,-0.029 -0.042,-0.002 -0.088,-0.005 -0.144,-0.008 -0.105,-0.005 -0.243,-0.013 -0.693,-0.048 -0.449,-0.035 -1.21,-0.098 -2.217,-0.107 -1.008,-0.008 -2.262,0.038 -3.577,0.132 -1.316,0.095 -2.692,0.24 -4.839,0.609 -2.148,0.368 -5.068,0.962 -7.478,1.498 -2.41,0.535 -4.311,1.014 -6.805,1.509 -2.494,0.494 -5.581,1.003 -8.679,1.418 -3.098,0.414 -6.208,0.733 -9.971,1.076 -3.764,0.341 -8.181,0.707 -11.872,0.965 -3.692,0.259 -6.657,0.41 -9.367,0.559 -2.711,0.148 -5.167,0.292 -7.957,0.403 -2.79,0.11 -5.915,0.186 -9.017,0.251 -3.102,0.064 -6.181,0.117 -9.116,0.11 -2.935,-0.008 -5.725,-0.076 -8.341,-0.137 -2.615,-0.061 -5.056,-0.114 -7.698,-0.194 -2.642,-0.08 -5.486,-0.186 -8.975,-0.285 -3.49,-0.099 -7.626,-0.19 -12.01,-0.217 -4.383,-0.026 -9.013,0.012 -12.845,0.008 -3.832,-0.004 -6.865,-0.049 -10.876,-0.205 -4.011,-0.156 -8.998,-0.422 -12.585,-0.69 -3.587,-0.268 -5.773,-0.538 -7.362,-0.856 -1.59,-0.318 -2.583,-0.683 -3.577,-1.049 0.044,0.064 0.021,0.188 -0.027,0.625 -0.062,0.551 -0.164,1.597 -0.449,3.521 -0.286,1.925 -0.753,4.728 -1.058,6.779 -0.305,2.052 -0.448,3.352 -0.79,5.493 -0.342,2.141 -0.884,5.124 -1.32,7.752 -0.436,2.629 -0.767,4.904 -1.029,6.823 -0.263,1.919 -0.457,3.481 -0.636,5.294 -0.18,1.814 -0.345,3.878 -0.525,6.376 -0.18,2.497 -0.373,5.428 -0.567,8.701 -0.194,3.273 -0.388,6.888 -0.53,10.743 -0.143,3.855 -0.234,7.949 -0.206,12.14 0.029,4.192 0.177,8.48 0.468,12.648 0.291,4.169 0.724,8.217 1.009,11.855 0.285,3.638 0.422,6.865 0.485,10.435 0.063,3.57 0.051,7.481 0.091,11.969 0.04,4.488 0.131,9.552 0.223,13.777 0.091,4.225 0.182,7.612 0.266,9.945 0.084,2.332 0.162,3.609 0.193,4.373 0.031,0.764 0.017,1.015 0.027,2.23 0.01,1.214 0.044,3.393 0.078,4.946 0.035,1.554 0.069,2.484 0.137,3.037 0.068,0.553 0.171,0.73 0.482,1.055 0.311,0.325 0.83,0.798 2.632,1.177 1.802,0.38 4.886,0.665 7.829,0.918 2.942,0.254 5.742,0.476 10.492,0.73 4.75,0.254 11.451,0.539 16.4,0.753 4.95,0.214 8.149,0.356 10.954,0.382 2.806,0.026 5.218,-0.066 7.656,-0.143 2.438,-0.077 4.901,-0.139 7.25,-0.216 2.35,-0.077 4.585,-0.168 7.735,-0.565 3.151,-0.396 7.217,-1.098 9.757,-1.616 2.54,-0.519 3.556,-0.856 4.448,-1.309 0.892,-0.453 1.662,-1.024 2.078,-1.386 0.417,-0.362 0.479,-0.516 0.539,-0.807z"/>
    </clipPath>
 </defs>
 <g id="VETORES">
  <metadata id="CorelCorpID_0Corel-Layer"/>
  <g>
  </g>
  <g clip-path="url(#id0)">
   <g id="_1723967693760">
    <g>
    </g>
   </g>
   <g clip-path="url(#id1)">
   </g>
   <g clip-path="url(#id2)">
    <path id="perna-direita" fill="none" d="M126.868 7.208c-3.692,0.259 -6.657,0.41 -9.367,0.559 -2.711,0.148 -5.167,0.292 -7.957,0.403 -2.79,0.11 -5.915,0.186 -9.017,0.251 -1.699,0.035 -3.39,0.067 -5.055,0.087 0.077,0.533 0.157,1.09 0.241,1.678 0.521,3.612 1.205,8.363 1.612,11.976 0.408,3.612 0.539,6.086 1.088,9.846 0.549,3.758 1.516,8.803 2.362,13.439 0.846,4.636 1.571,8.864 2.128,11.482 0.557,2.618 0.946,3.625 1.265,4.398 0.319,0.772 0.568,1.31 0.72,1.7 0.152,0.39 0.206,0.631 0.184,0.807 -0.021,0.175 -0.12,0.285 -0.256,0.446 -0.135,0.161 -0.307,0.373 -0.481,0.599 -0.173,0.226 -0.349,0.466 -0.581,1.057 -0.233,0.592 -0.523,1.535 -0.813,2.478 0.07,-0.094 0.129,-0.113 0.186,-0.108 0.084,0.008 0.164,0.069 0.266,0.183 0.103,0.113 0.228,0.278 0.391,0.627 0.163,0.349 0.362,0.88 0.684,1.602 0.321,0.721 0.764,1.632 1.146,2.525 0.381,0.893 0.7,1.768 0.836,2.443 0.135,0.674 0.087,1.147 0.127,1.679 0.04,0.532 0.168,1.122 0.504,1.619 0.337,0.498 0.881,0.903 1.195,1.44 0.314,0.538 0.396,1.208 0.602,2.158 0.205,0.951 0.533,2.183 0.646,3.113 0.112,0.929 0.009,1.556 -0.098,2.148 -0.106,0.591 -0.218,1.148 -0.101,1.705 0.117,0.557 0.462,1.116 0.865,1.635 0.404,0.519 0.866,0.998 1.149,1.313 0.284,0.315 0.39,0.466 0.491,0.609 0.101,0.142 0.198,0.276 0.351,0.879 0.152,0.603 0.36,1.675 0.439,2.419 0.078,0.745 0.027,1.161 -0.003,1.576 -0.03,0.415 -0.039,0.828 -0.073,1.354 -0.034,0.526 -0.094,1.165 -0.085,1.751 0.008,0.586 0.085,1.119 0.46,1.91 0.375,0.791 1.048,1.84 1.685,2.689 0.637,0.848 1.239,1.495 1.643,1.902 0.404,0.407 0.611,0.574 0.797,0.87 0.186,0.296 0.351,0.72 0.488,1.263 0.137,0.544 0.246,1.205 0.304,1.972 0.058,0.767 0.067,1.64 0.054,2.608 -0.013,0.968 -0.047,2.031 0.15,2.999 0.197,0.968 0.624,1.84 1.101,2.577 0.476,0.738 1,1.339 1.389,1.826 0.39,0.488 0.644,0.862 0.856,1.23 0.213,0.367 0.384,0.729 0.555,1.154 0.171,0.425 0.342,0.913 0.472,1.479 0.13,0.566 0.218,1.21 0.339,1.795 0.121,0.584 0.275,1.108 0.375,1.699 0.1,0.59 0.145,1.246 0.32,2.204 0.174,0.958 0.476,2.218 0.678,3.273 0.203,1.055 0.305,1.904 0.416,2.657 0.112,0.753 0.231,1.409 0.325,2.284 0.094,0.875 0.163,1.97 0.294,2.774 0.131,0.804 0.325,1.317 0.465,2.09 0.14,0.772 0.225,1.805 0.299,2.412 0.074,0.607 0.137,0.79 0.288,0.952 0.104,0.112 0.251,0.215 0.437,0.32 -0.079,-0.368 -0.154,-0.732 -0.127,-0.999 0.028,-0.278 0.168,-0.45 0.332,-0.556 0.164,-0.105 0.352,-0.145 0.75,-0.063 0.398,0.082 1.007,0.284 1.729,0.399 0.723,0.115 1.56,0.144 2.868,0.151 1.309,0.007 3.089,-0.007 5.568,-0.327 2.479,-0.319 5.657,-0.943 8.788,-1.599 3.132,-0.656 6.217,-1.344 9.657,-2.107 3.44,-0.762 7.234,-1.599 10.248,-2.124 3.014,-0.525 5.249,-0.737 8.16,-0.854 2.912,-0.118 6.502,-0.139 10.137,0.024 3.635,0.163 7.316,0.511 9.976,0.862 2.66,0.351 4.298,0.706 5.688,1.227 1.391,0.522 2.533,1.21 3.226,1.734 0.693,0.524 0.938,0.884 1.054,1.193 0.116,0.309 0.104,0.568 -0.007,0.887 -0.11,0.319 -0.318,0.698 -0.526,1.078 0.192,-0.064 0.354,-0.202 0.566,-0.4 0.232,-0.218 0.523,-0.509 0.64,-0.957 0.116,-0.447 0.059,-1.052 0.065,-2.577 0.006,-1.525 0.074,-3.972 0.052,-6.694 -0.023,-2.724 -0.137,-5.723 -0.194,-7.553 -0.057,-1.831 -0.057,-2.492 -0.057,-3.427 0,-0.936 0,-2.144 -0.029,-3.276 -0.028,-1.132 -0.085,-2.187 -0.111,-3.279 -0.025,-1.092 -0.02,-2.221 -0.091,-4.009 -0.072,-1.787 -0.22,-4.234 -0.3,-6.212 -0.079,-1.979 -0.091,-3.49 -0.231,-7.51 -0.139,-4.02 -0.407,-10.55 -0.929,-16.996 -0.522,-6.446 -1.297,-12.81 -2.278,-18.854 -0.981,-6.045 -2.167,-11.77 -3.341,-17.21 -1.175,-5.44 -2.338,-10.594 -3.867,-15.864 -1.528,-5.268 -3.421,-10.651 -5.246,-15.498 -1.824,-4.847 -3.581,-9.158 -4.618,-11.657 -1.038,-2.499 -1.357,-3.186 -1.494,-3.631 -0.137,-0.445 -0.092,-0.647 0.009,-0.803 0.102,-0.155 0.258,-0.263 0.386,-0.349 0.014,-0.01 0.028,-0.019 0.041,-0.029 -0.042,-0.002 -0.088,-0.005 -0.144,-0.008 -0.105,-0.005 -0.243,-0.013 -0.693,-0.048 -0.449,-0.035 -1.21,-0.098 -2.217,-0.107 -1.008,-0.008 -2.262,0.038 -3.577,0.132 -1.316,0.095 -2.692,0.24 -4.839,0.609 -2.148,0.368 -5.068,0.962 -7.478,1.498 -2.41,0.535 -4.311,1.014 -6.805,1.509 -2.494,0.494 -5.581,1.003 -8.679,1.418 -3.098,0.414 -6.208,0.733 -9.971,1.076 -3.764,0.341 -8.181,0.707 -11.872,0.965z"/>
    <g>
    </g>
   </g>
   <g clip-path="url(#id3)">
   </g>
   <g clip-path="url(#id4)">
    <path id="perna-esquerda" fill="none" d="M66.397 7.915c-3.49,-0.099 -7.626,-0.19 -12.01,-0.217 -4.383,-0.026 -9.013,0.012 -12.845,0.008 -3.832,-0.004 -6.865,-0.049 -10.876,-0.205 -4.011,-0.156 -8.998,-0.422 -12.585,-0.69 -3.587,-0.268 -5.773,-0.538 -7.362,-0.856 -1.59,-0.318 -2.583,-0.683 -3.577,-1.049 0.044,0.064 0.021,0.188 -0.027,0.625 -0.062,0.551 -0.164,1.597 -0.449,3.521 -0.286,1.925 -0.753,4.728 -1.058,6.779 -0.305,2.052 -0.448,3.352 -0.79,5.493 -0.342,2.141 -0.884,5.124 -1.32,7.752 -0.436,2.629 -0.767,4.904 -1.029,6.823 -0.263,1.919 -0.457,3.481 -0.636,5.294 -0.18,1.814 -0.345,3.878 -0.525,6.376 -0.18,2.497 -0.373,5.428 -0.567,8.701 -0.194,3.273 -0.388,6.888 -0.53,10.743 -0.143,3.855 -0.234,7.949 -0.206,12.14 0.029,4.192 0.177,8.48 0.468,12.648 0.291,4.169 0.724,8.217 1.009,11.855 0.285,3.638 0.422,6.865 0.485,10.435 0.063,3.57 0.051,7.481 0.091,11.969 0.04,4.488 0.131,9.552 0.223,13.777 0.091,4.225 0.182,7.612 0.266,9.945 0.084,2.332 0.162,3.609 0.193,4.373 0.031,0.764 0.017,1.015 0.027,2.23 0.01,1.214 0.044,3.393 0.078,4.946 0.035,1.554 0.069,2.484 0.137,3.037 0.068,0.553 0.171,0.73 0.482,1.055 0.311,0.325 0.83,0.798 2.632,1.177 1.802,0.38 4.886,0.665 7.829,0.918 2.942,0.254 5.742,0.476 10.492,0.73 4.75,0.254 11.451,0.539 16.4,0.753 4.95,0.214 8.149,0.356 10.954,0.382 2.806,0.026 5.218,-0.066 7.656,-0.143 2.438,-0.077 4.901,-0.139 7.25,-0.216 2.35,-0.077 4.585,-0.168 7.735,-0.565 3.151,-0.396 7.217,-1.098 9.757,-1.616 2.54,-0.519 3.556,-0.856 4.448,-1.309 0.892,-0.453 1.662,-1.024 2.078,-1.386 0.417,-0.362 0.479,-0.516 0.539,-0.807 0.06,-0.29 0.117,-0.718 0.209,-2.252 0.091,-1.534 0.216,-4.174 0.518,-9.369 0.303,-5.195 0.782,-12.944 1.164,-18.604 0.382,-5.659 0.667,-9.229 1.038,-13.175 0.37,-3.946 0.826,-8.268 1.397,-12.773 0.57,-4.505 1.254,-9.192 2.132,-14.518 0.879,-5.326 1.95,-11.291 2.766,-15.197 0.815,-3.906 1.374,-5.753 1.733,-6.921 0.358,-1.167 0.516,-1.655 0.64,-1.921 0.04,-0.087 0.077,-0.151 0.11,-0.197 0.29,-0.943 0.58,-1.886 0.813,-2.478 0.232,-0.591 0.408,-0.831 0.581,-1.057 0.174,-0.226 0.346,-0.438 0.481,-0.599 0.136,-0.161 0.235,-0.271 0.256,-0.446 0.022,-0.176 -0.032,-0.417 -0.184,-0.807 -0.152,-0.39 -0.401,-0.928 -0.72,-1.7 -0.319,-0.773 -0.708,-1.78 -1.265,-4.398 -0.557,-2.618 -1.282,-6.846 -2.128,-11.482 -0.846,-4.636 -1.813,-9.681 -2.362,-13.439 -0.549,-3.76 -0.68,-6.234 -1.088,-9.846 -0.407,-3.613 -1.091,-8.364 -1.612,-11.976 -0.084,-0.588 -0.164,-1.145 -0.241,-1.678 -1.376,0.017 -2.733,0.026 -4.061,0.023 -2.935,-0.008 -5.725,-0.076 -8.341,-0.137 -2.615,-0.061 -5.056,-0.114 -7.698,-0.194 -2.642,-0.08 -5.486,-0.186 -8.975,-0.285z"/>
    <path fill="#F90000" fill-rule="nonzero" d="M137.774 108.897l-1.701 0.34 0.34 1.816 1.701 -0.341 -0.34 -1.815zm-2.948 -6.809l1.701 -0.341 -1.588 -8.851 -1.701 0.341 1.588 8.851zm-2.836 -16l1.701 -0.341 -1.927 -10.667 -1.701 0.34 1.927 10.668zm7.371 31.774l-0.567 -3.632 -1.814 0.341 0.681 3.518 1.7 -0.227zm-9.071 -31.548l-0.341 -1.702 -1.701 0.227 1.248 7.149 1.701 -0.227 -0.907 -5.447zm2.721 25.306l0.567 3.518 1.701 -0.227 -0.567 -3.631 -1.701 0.34zm0.794 14.526l-0.34 -1.816 -1.701 0.341 1.247 7.149 1.701 -0.34 -0.907 -5.334zm14.402 -67.521l-0.227 -1.702 -1.701 0.226 4.082 23.151 1.701 -0.341 -3.855 -21.334zm-6.237 -35.747l-0.681 -3.632 0.794 -5.56 -1.814 -0.227 -0.681 5.787 6.01 34.386 1.701 -0.341 -5.329 -30.413zm8.732 59.237l4.422 24.852 1.701 -0.226 -4.423 -24.966 -1.7 0.34zm-10.547 50.273l0.34 1.702 1.701 -0.227 -0.34 -1.816 -1.701 0.341zm-1.814 -10.668l0.226 1.702 1.702 -0.226 -0.227 -1.816 -1.701 0.34zm2.948 6.809l-0.34 -1.815 -1.701 0.34 0.34 1.702 1.701 -0.227zm-3.855 8.057l0.907 5.334 1.701 -0.341 -0.907 -5.333 -1.701 0.34zm28.803 -4.425l0.227 0 -0.114 -0.568 -0.226 0.113 0.113 0.455zm-10.206 -89.651l-1.701 0.341 4.649 26.781 1.815 -0.34 -4.763 -26.782zm0.114 40.4l-5.67 -32.002 -1.701 0.341 5.67 32.001 1.701 -0.34zm-26.649 -11.122l1.701 -0.226 -1.021 -5.448 -1.701 0.341 1.021 5.333zm33.792 11.803l-1.7 0.227 2.494 14.298 1.701 -0.341 -2.495 -14.184zm-2.154 27.916l-3.742 -21.448 -1.701 0.34c1.126,6.292 2.939,15.312 3.742,21.335l1.701 -0.227zm-32.886 -46.868l1.701 -0.227 -1.36 -7.149 -1.701 0.34 1.36 7.036zm34.701 17.136l-1.588 -8.965 -1.701 0.34 1.588 8.965 1.701 -0.34zm-36.855 10.78l1.701 -0.227 -0.907 -5.333 -1.702 0.227 0.908 5.333zm2.154 12.483l1.701 -0.227 -0.567 -3.631 -1.701 0.34 0.567 3.518zm-3.742 -21.334l1.702 -0.34 -0.908 -5.334 -1.701 0.34 0.907 5.334zm1.475 -31.434l0.339 1.702 1.701 -0.227 -2.494 -14.299 -1.701 0.341 2.155 12.483zm1.02 45.733l1.701 -0.341 -0.567 -3.518 -1.701 0.227 0.567 3.632zm0.907 -14.866l1.701 -0.341 -7.824 -44.484 -1.701 0.34 7.824 44.485zm-5.329 -10.1l1.814 -0.34 -1.588 -8.852 -1.701 0.34 1.475 8.852zm41.844 46.981l1.701 -0.227 -1.248 -7.149 -1.701 0.34 1.248 7.036zm21.432 -14.639l0.68 3.518 1.702 -0.227 -0.568 -3.632 -1.814 0.341zm5.67 -8.398l1.7 -0.227 -1.927 -10.666 -1.701 0.226 1.928 10.667zm-2.041 -1.361l-1.701 0.226 1.247 7.15 1.701 -0.341 -1.247 -7.035zm-9.299 -22.356l1.701 -0.227 -4.083 -23.15 -1.701 0.227 3.856 21.448 0.227 1.702zm5.443 30.299l1.701 -0.227 -1.02 -5.333 -1.702 0.226 1.021 5.334zm-3.515 -19.518l1.701 -0.341 -1.588 -8.965 -1.701 0.341 1.588 8.965zm1.928 10.666l1.701 -0.34 -1.021 -5.334 -1.701 0.341 1.021 5.333zm3.742 21.335l1.701 -0.34 -0.567 -3.518 -1.701 0.34 0.567 3.518zm12.701 21.675l-1.815 0.227 0.34 1.816 1.701 -0.341 -0.226 -1.702zm-38.216 -9.873l-1.701 0.227 0.681 3.631 1.701 -0.34 -0.681 -3.518zm4.196 -26.555l-1.701 0.341 1.474 8.965 1.701 -0.34 -1.474 -8.966zm30.844 18.611l-1.701 0.228 0.34 1.815 1.701 -0.34 -0.34 -1.703zm-3.175 2.384l-1.701 0.227 0.681 3.631 1.701 -0.341 -0.681 -3.517zm4.423 4.766l-0.341 -1.816 -1.701 0.227 0.681 3.632 1.701 -0.341 -0.34 -1.702zm0.907 5.334l-1.701 0.226 0.34 1.816 1.701 -0.34 -0.34 -1.702zm-30.958 -9.42l1.701 -0.227 -0.34 -1.815 -1.701 0.34 0.34 1.702zm1.247 7.15l-0.34 -1.816 -1.701 0.341 0.681 3.518 1.7 -0.228 -0.34 -1.815zm19.505 3.972l-1.701 0.34 -0.34 -1.815 -3.403 0.567 -0.34 -1.815 -1.701 0.34 0.34 1.816 -3.402 0.567 0.681 3.518 -1.701 0.341 0.34 1.815 -0.908 0.227c1.361,0 2.949,0 4.536,0l-0.793 -4.312 5.102 -0.908 0.341 1.816 -1.701 0.34 0.567 3.291c1.247,0 2.381,0.114 3.515,0.227l-0.681 -4.085 1.702 -0.341 -0.453 -1.929zm-20.638 -20.314l-0.341 -1.702 -1.701 0.227 0.907 5.334 1.815 -0.227 -0.68 -3.632zm-2.949 13.391l-1.701 0.341 0.34 1.815 1.701 -0.34 -0.34 -1.816zm1.021 5.334l-1.701 0.34 0.566 3.518 1.701 -0.34 -0.566 -3.518zm26.308 2.837l-1.701 0.34 0.907 4.88c0.681,0.114 1.247,0.114 1.814,0.227l-1.02 -5.447zm-4.082 -52.542l1.814 -0.34 -1.021 -5.334 -1.7 0.341 0.907 5.333zm-7.598 -33.59l-1.701 0.34 7.825 44.598 1.7 -0.341 -7.824 -44.597zm13.041 63.89l1.701 -0.341 -1.588 -8.965 -1.701 0.341 1.588 8.965zm-21.433 -106.446c-0.321,5.142 -0.544,2.66 0.341,7.263l6.01 33.818 1.7 -0.228 -6.576 -36.995 0.34 -3.744 -1.815 -0.114zm12.588 56.514l0.227 1.815 1.814 -0.34 -2.608 -14.185 -1.701 0.227 2.268 12.483zm2.154 12.483l1.701 -0.227 -1.247 -7.149 -1.701 0.226 1.247 7.15zm-18.03 -69.451c-0.641,5.776 -0.783,3.048 0.227,8.398l6.01 33.817 1.701 -0.34 -6.691 -37.449 0.567 -4.199 -1.814 -0.227zm-53.071 33.023l4.196 23.151 1.701 -0.341 -4.082 -23.15 -1.815 0.34zm37.649 -34.838c-0.567,0.113 -1.247,0.226 -1.814,0.34l-0.341 2.95 1.815 0.228 0.34 -3.518zm-9.61 4.117l0.225 -1.802 -1.8 -0.225 -0.225 1.802 1.8 0.225zm1.785 0.195l-1.814 -0.114 -0.454 3.518 1.814 0.227 0.454 -3.631zm1.822 0.227l0.225 -1.802 -1.8 -0.225 -0.225 1.802 1.8 0.225zm-6.131 4.766l1.815 0.227 0.226 -1.816 -1.814 -0.227 -0.227 1.816zm9.639 -4.313l0.227 -1.815 -1.815 -0.227 -0.226 1.816 1.814 0.226zm-10.773 -1.248l-0.454 3.632 1.815 0.113 0.453 -3.518 -1.814 -0.227zm35.834 115.297l0.227 1.702 1.701 -0.226 -0.227 -1.816 -1.701 0.34zm3.856 -8.057l1.7 -0.34 -0.34 -1.816 -1.701 0.34 0.341 1.816zm-2.495 5.901l-0.681 -3.517 -1.701 0.34 -0.68 -3.518 1.701 -0.34 -0.567 -3.518 3.402 -0.568 -0.567 -3.518 1.701 -0.34 0.567 3.518 -1.701 0.34 0.34 1.816 1.701 -0.341 0.34 1.816 1.702 -0.341 0.34 1.816 1.701 -0.341 -2.155 -12.483 -1.701 0.341 -0.34 -1.816 1.701 -0.34 -0.68 -3.518 -1.701 0.34 -0.341 -1.815 -1.701 0.341 -0.34 -1.816 -1.701 0.34 -0.341 -1.815 1.701 -0.341 0.341 1.816 1.701 -0.341 -0.908 -5.333 -1.701 0.341 -0.34 -1.816 3.402 -0.567 -1.247 -7.15 -5.103 0.908 -0.34 -1.815 5.103 -0.908 -1.248 -7.15 -1.701 0.341 -0.34 -1.816 1.701 -0.34 -3.742 -21.335 -1.701 0.341 -0.34 -1.816 1.701 -0.34 -5.897 -34.499c0.114,-1.362 0.341,-2.837 0.454,-4.199 0.598,-0.45 0.251,-0.361 1.587,-0.227l0.227 -1.815 -1.814 -0.227 0.34 -2.837 -1.928 1.021c0,-0.227 0,-0.454 0,-0.681 -0.567,0.113 -1.134,0.227 -1.814,0.34 0,1.501 0.061,1.147 -1.474,2.043l0.113 -1.589 0.681 -0.34c-2.979,0.567 -6.178,1.525 -9.412,1.929l1.247 0.113 -0.227 4.2 0.114 -0.568 -1.815 -0.227 -0.226 1.816 1.814 0.227 -0.453 3.631 -1.815 -0.227 -0.227 1.816 -1.247 -0.114 -1.247 5.901 3.742 21.562 1.701 -0.341 -3.742 -21.221 1.134 -5.674 1.021 0.114c0.907,5.333 1.701,10.78 2.608,16.114l-0.001 0 1.247 7.149 1.701 -0.34 0.34 1.815 -1.701 0.341 2.836 16.001 1.701 -0.341 0.68 3.518 -1.701 0.34 1.247 7.15 1.701 -0.341 0.681 3.518 -1.701 0.341 1.587 8.965 5.103 -0.908 -0.34 -1.816 -1.701 0.341 -0.907 -5.334 1.701 -0.34 -0.341 -1.816 3.402 -0.567 -0.34 -1.816 1.701 -0.34 0.341 1.815 -1.702 0.341 1.248 7.149 -1.702 0.341 -0.34 -1.816 -1.701 0.341 0.34 1.815 1.701 -0.34 0.908 5.333 -1.701 0.341 -0.341 -1.816 -1.701 0.341 0.681 3.518 -1.701 0.34 -0.34 -1.815 -1.701 0.34 1.247 7.149 5.103 -0.908 0.68 3.518 1.701 -0.34 0.341 1.815 -1.702 0.341 0.567 3.518 -1.701 0.34 0.341 1.816 1.701 -0.341 0.907 5.334 -1.701 0.34 0.681 3.518 -1.701 0.341 -0.681 -3.518 -1.701 0.34 2.154 12.483 -1.133 0.227 0.34 1.816 1.701 -0.341 -0.34 -1.815 1.133 -0.227 0.568 3.518 -1.701 0.34 0.34 1.816 -1.134 0.227 0.34 1.815 1.701 -0.34 -0.34 -1.816 2.835 -0.454 -0.34 -1.815 1.928 -0.228zm-0.114 -20.199l0.341 1.815 1.701 -0.341 0.34 1.816 -1.701 0.341 -0.34 -1.816 -1.701 0.341 -0.341 -1.816 1.701 -0.34zm-19.391 -94.303l-1.134 0.681c0,-0.454 0,-1.022 0,-1.476l1.134 -0.681c0,0.568 0,1.022 0,1.476zm1.815 -2.497l1.134 -0.681 -0.114 1.475 -1.134 0.681c0,-0.454 0.114,-0.908 0.114,-1.475zm0.68 41.08l-0.34 -1.815 1.701 -0.341 0.34 1.816 -1.701 0.34zm5.783 22.81l-0.34 -1.815 1.701 -0.341 0.341 1.816 -1.702 0.34zm0.794 -5.674l-0.34 -1.816 1.701 -0.34 0.34 1.815 -1.701 0.341zm6.464 26.441l-0.341 -1.815 -1.701 0.34 -0.567 -3.518 1.701 -0.34 0.567 3.518 1.701 -0.341 0.341 1.815 -1.701 0.341zm-1.021 24.058l-0.34 -1.816 1.701 -0.34 0.34 1.816 -1.701 0.34zm6.01 4.426l1.814 -0.341 -0.339 -1.702 -1.701 0.227 0.226 1.816zm-31.865 -73.99l0.794 4.199 1.701 -0.227 -4.876 -27.917 0.68 -5.333 -1.7 -0.227 -0.794 5.674 4.195 23.831zm20.639 50.272l1.021 5.334 1.7 -0.227 -1.02 -5.334 -1.701 0.227zm-14.837 -80.458l0.45 -3.603 -1.8 -0.225 -0.45 3.603 1.8 0.225zm28.672 118.474l-1.021 -5.333 5.216 -0.908 -0.34 -1.815 -1.701 0.34 -0.34 -1.816 1.701 -0.34 -0.34 -1.702 1.701 -0.341 -0.567 -3.518 -5.104 0.794 1.248 7.15 -3.515 0.681 0.34 1.702 -1.701 0.34 0.68 3.518 -1.7 0.341 -0.341 -1.816 -1.701 0.34 0.567 3.518 1.701 -0.227 0.34 1.703 1.701 -0.227 -0.34 -1.816 3.516 -0.568zm-33.566 -122.786l-0.454 3.631 1.701 0.227 0.454 -3.631 -1.701 -0.227zm30.617 -3.404l-0.227 1.702 5.217 -2.951c-0.341,-0.908 -0.681,-1.588 -0.794,-2.043l-4.082 2.27 0.34 -2.61 -1.814 -0.227 -0.454 3.518 1.814 0.341zm-1.133 -5.448l-1.815 0.114 -0.227 1.362 1.815 0.227 0.227 -1.703zm4.535 0l-4.196 -0.113 1.475 0.226 -0.227 1.816 3.289 -1.816c-0.114,0 -0.228,-0.113 -0.341,-0.113zm-8.731 4.766l1.701 0.227 0.453 -3.518 -1.701 -0.227 -0.453 3.518zm-2.042 1.589l1.814 0.227 0.341 -1.703 -1.814 -0.226 -0.341 1.702zm-68.492 61.961l0.113 -0.227c-0.113,0.114 -0.113,0.227 -0.113,0.227zm72.008 -61.507l1.701 0.227c-0.505,3.659 -0.598,2.633 0,6.242l6.01 33.817 1.701 -0.34 -6.464 -36.428 0.454 -2.95 0.226 -0.114 -0.226 0 0.113 -0.114 -1.701 -0.227 0.227 -1.702 -1.814 -0.227 -0.227 1.816zm12.36 116.432l-0.34 -1.702 -1.701 0.227 0.34 1.816 1.701 -0.341zm-2.495 6.014l1.701 -0.34 -0.34 -1.816 -1.701 0.341 0.34 1.815zm-35.607 -114.729l-1.474 -0.227 -1.021 5.788 11.113 62.528 1.701 -0.34 -10.999 -62.188 0.907 -5.561 1.587 0.226 0.227 -1.815 -1.814 -0.227 -0.227 1.816zm38.669 112.346l-0.227 -1.816 -1.701 0.341 0.227 1.702 1.701 -0.227zm-15.762 -125.85l-1.814 0 -0.454 3.404 1.814 0.227 0.454 -3.631zm1.928 -0.681c-0.567,0.113 -1.135,0.113 -1.815,0.226l0 0.454 1.815 0.227 0 -0.907zm-28.35 13.731l1.814 0.227 0.227 -1.816 -1.815 -0.227 -0.226 1.816zm32.545 97.934l0.34 1.816 1.701 -0.341 -0.34 -1.815 -1.701 0.34zm-52.39 19.065l1.701 -0.34 0.681 3.517 1.701 -0.34 0.34 1.815 1.701 -0.34 -0.68 -3.518 -1.701 0.34 -1.248 -7.149 1.701 -0.341 -0.34 -1.815 -1.701 0.341 -0.34 -1.816 -3.402 0.567 -0.341 -1.815 -1.701 0.34 0.341 1.816 -1.361 0.227 0.794 1.702 4.309 -0.794 0.34 1.815 -1.701 0.341 0.681 3.518 -1.701 0.34 0.34 1.816 -0.681 0.114c0.114,0.567 0.227,1.134 0.341,1.815l2.381 -0.454 -0.454 -1.702zm1.247 7.036l-0.567 -3.518 -1.701 0.341 0.34 1.815 -0.68 0.114 1.134 7.036 0.794 -0.113 -0.908 -5.334 1.588 -0.341zm2.949 6.922l-0.34 -1.815 -3.403 0.567 0.341 1.816 1.701 -0.341 0.227 1.362 3.515 0.227 -0.34 -2.156 -1.701 0.34zm-5.33 -30.3l1.701 -0.34 -0.34 -1.815 -1.701 0.34 -0.34 -1.816 1.701 -0.34 -0.341 -1.816 1.701 -0.34 -0.68 -3.518 -5.103 0.908 1.247 7.149 -3.402 0.568 0.34 1.815 -1.701 0.341c0.713,3.571 0.419,2.501 2.154,5.106l2.269 -0.34 -1.021 -5.333 3.516 -0.569zm-2.268 -12.482l1.701 -0.341 0.34 1.816 1.702 -0.341 -2.155 -12.483 -1.701 0.341 -0.34 -1.815 1.701 -0.341 -0.681 -3.517 -1.701 0.34 -0.341 -1.815 -1.701 0.34 -0.34 -1.816 -1.701 0.341 -0.34 -1.815 1.701 -0.341 0.34 1.815 1.701 -0.34 -0.907 -5.333 -1.701 0.34 -0.34 -1.816 3.402 -0.567 -1.247 -7.149 -5.103 0.908 -0.341 -1.816 5.103 -0.908 -1.247 -7.149 -1.701 0.34 -0.34 -1.815 1.701 -0.341 -3.742 -21.335 -1.701 0.341 -0.341 -1.816 1.701 -0.34 -2.381 -13.278c-0.68,-4.198 -1.361,-8.397 -2.154,-12.596l-13.267 0.226 -0.568 0 3.175 19.065 1.701 -0.341 0.341 1.816 -1.701 0.34 2.835 16.001 1.701 -0.34 0.68 3.518 -1.701 0.34 1.248 7.15 1.701 -0.341 0.68 3.518 -1.701 0.341 1.588 8.965 5.103 -0.909 -0.341 -1.815 -1.701 0.341 -0.907 -5.334 1.701 -0.341 -0.34 -1.815 3.402 -0.568 -0.341 -1.815 1.702 -0.34 0.34 1.815 -1.701 0.34 1.247 7.15 -1.701 0.34 0.907 5.334 -1.701 0.341 -0.34 -1.816 -1.701 0.341 0.68 3.518 -1.701 0.34 -0.34 -1.816 -1.701 0.341 1.247 7.149 5.103 -0.907 0.681 3.517 1.701 -0.34 0.34 1.815 -1.701 0.341 0.567 3.518 -1.701 0.34 0.34 1.816 1.701 -0.341 0.907 5.333 -1.701 0.341 0.681 3.518 -1.701 0.341 -0.681 -3.518c1.219,4.868 -1.909,5.472 2.155,10.894 1.465,1.954 2.948,2.727 2.948,4.88l1.02 -0.114 -0.68 -3.518 -1.702 0.34 -0.68 -3.517 1.701 -0.341 -0.567 -3.518 3.402 -0.567 -0.567 -3.518 1.701 -0.341 0.567 3.518 -1.701 0.341 0.34 1.815 1.702 -0.34 0.454 1.475zm-20.752 -67.975l-0.34 -1.816 1.701 -0.341 0.341 1.816 -1.702 0.341zm5.783 22.923l-0.34 -1.816 1.701 -0.34 0.34 1.816 -1.701 0.34zm0.681 -5.674l-0.34 -1.816 1.701 -0.34 0.34 1.815 -1.701 0.341zm5.443 50.499l-0.34 -1.816 1.701 -0.34 0.34 1.815 -1.701 0.341zm1.021 -24.058l-0.341 -1.816 -1.701 0.341 -0.567 -3.518 1.701 -0.34 0.681 3.517 1.701 -0.34 0.34 1.815 -1.814 0.341zm4.536 15.66l-0.34 -1.815 -1.702 0.34 -0.34 -1.815 1.701 -0.341 0.341 1.816 1.701 -0.341 0.34 1.816 -1.701 0.34zm-1.361 18.611c0,0.568 0,1.135 0,1.816l1.361 -0.227 -0.34 -1.816 -1.021 0.227zm15.989 34.045l0.114 0.567c0.567,0 1.134,0 1.701,-0.113l-0.114 -0.795 -1.701 0.341zm3.402 -0.567l0.113 0.907 1.815 -0.226 -0.227 -1.022 -1.701 0.341zm13.268 -140.831c-0.567,0.114 -1.247,0.227 -1.815,0.227l-0.226 2.043 1.814 0.227 0.227 -2.497zm22.566 133.794l0.227 1.248 1.7 0 -0.226 -1.475 -1.701 0.227zm-59.534 -47.662l-1.701 0.227 0.227 1.816 1.814 -0.341 -0.34 -1.702zm57.493 9.419l-1.815 0.341 0.341 1.815 1.7 -0.34 -0.226 -1.816zm-1.701 37.109l0.567 2.723c0.566,-0.113 1.134,-0.113 1.701,-0.227l-0.567 -2.837 -1.701 0.341zm-9.979 3.518l0.226 1.021c0.567,-0.114 1.134,-0.227 1.702,-0.341l-0.114 -0.908 -1.814 0.228zm13.948 -37.336l-0.341 -1.816 -1.701 0.341 0.341 1.816 1.701 -0.341zm-51.824 -67.294l-5.102 -28.711c-0.568,0 -1.134,0.114 -1.815,0.114l5.103 28.824 1.814 -0.227zm7.031 79.436l-0.34 -1.815 -1.701 0.34 0.34 1.816 1.701 -0.341zm-0.68 -3.518l-0.227 -1.815 -1.814 0.341 0.34 1.702 1.701 -0.228zm-9.752 -75.237l-5.217 -29.052c-0.567,0 -1.134,0 -1.701,0.114l5.217 29.279 1.701 -0.341zm-8.279 52.655l0.227 0.908c0.114,0.114 0.227,0.227 0.227,0.34 0.113,0.114 0.227,0.227 0.34,0.341l1.247 -0.227 -0.34 -1.816 -1.701 0.454zm31.412 -83.863l0 0.341 1.814 0.227 0.114 -0.681c-0.681,0 -1.248,0.113 -1.928,0.113zm-16.33 29.96l-4.989 -28.258c-0.567,0 -1.134,0.114 -1.701,0.114l4.989 28.484 1.701 -0.34zm21.886 -30.527c-0.567,0.114 -1.247,0.114 -1.814,0.227l-0.113 1.135 1.814 0.226 0.113 -1.588zm-36.287 58.67l0.34 1.702 1.701 -0.227 -0.34 -1.816 -1.701 0.341zm8.278 37.108l0.34 1.702 1.701 -0.227 -0.34 -1.815 -1.701 0.34zm-8.505 -18.724l-1.361 0.227c0.687,2.75 0.689,2.735 0.454,5.106l0 0.227 1.701 -0.34 -0.794 -5.22zm15.082 35.859l1.814 -0.34 -0.34 -1.702 -1.701 0.227 0.227 1.815zm-2.835 -16l-1.701 0.34 0.34 1.703 1.701 -0.227 -0.34 -1.816zm-3.062 2.383l0.34 1.816 1.701 -0.341 -0.34 -1.815 -1.701 0.34zm-78.131 43.804l-0.113 1.815 1.701 0.114 0.227 -3.631 -1.702 -0.114 -0.113 1.816zm1.361 -43.35l0.227 -3.632 -1.701 -0.113 -0.341 5.447 1.701 0.113 0.114 -1.815zm6.123 -55.833l-1.587 27.122 1.701 0 1.588 -27.008 -1.702 -0.114zm-8.164 61.166l1.701 0 0.113 -1.815 -1.701 0 -0.113 1.815zm-15.99 35.407l-1.701 -0.113 -0.453 7.262 1.814 0 0.34 -7.149zm-0.566 -19.973l1.701 0.114 0.226 -3.632 -1.701 -0.113 -0.226 3.631zm14.741 -13.731l1.701 0 0.114 -1.703 -1.815 -0.113 0 1.816zm10.773 13.277l0.227 -5.447 -1.701 -0.114 -0.34 7.263 1.701 0.114 0.113 -1.816zm-5.783 39.492l1.701 0.113 0.113 -1.816 -1.701 -0.113 -0.113 1.816zm0.227 -34.386l1.701 0.114 0.113 -1.815 -1.701 -0.114 -0.113 1.815zm0.453 21.789l1.815 0.114 0.113 -1.816 -1.814 -0.113 -0.114 1.815zm0.227 -3.631l1.815 0.113 0.113 -3.631 -1.701 -0.114 -0.227 3.632zm-24.607 -13.958l-0.114 1.815 1.701 0.114 0.227 -3.632 -1.701 -0.113 -0.113 1.816zm25.288 3.064l-0.114 1.815 1.701 0.114 0.227 -3.518 -1.701 -0.227 -0.113 1.816zm3.741 1.135l-0.226 0 0 0.567 0.113 0 0.113 -0.567zm-2.267 -57.195l-0.454 7.262 1.814 0.114 0.454 -9.078 -1.701 -0.114 -0.113 1.816zm-0.681 10.894l-0.68 12.596 1.701 0.114 0.907 -14.412 -1.701 -0.114 -0.227 1.816zm-1.587 28.824l-0.227 3.631 1.701 0.114 0.34 -5.447 -1.701 -0.114 -0.113 1.816zm-22.68 -17.476l1.701 0.114 2.608 -45.166 -1.701 -0.113 -2.608 45.165zm2.608 -46.868l1.814 0 2.155 -37.676 -0.793 -3.858 -1.702 0.34c0.967,4.423 0.843,2.625 0.567,6.923l-2.041 34.271zm-2.835 50.499l-0.34 5.448 1.701 0.113 0.454 -7.263 -1.815 -0.113 0 1.815zm-1.587 -32.682l1.7 0.114 0.795 -14.526 -1.702 0 -0.793 14.412zm-0.341 5.447l-0.34 5.334 1.701 0.113 0.454 -7.149 -1.701 -0.114 -0.114 1.816zm7.371 22.128l0.227 -3.631 -1.701 -0.113 -0.34 5.447 1.701 0.114 0.113 -1.817zm1.248 -21.674l1.247 -21.675 -1.701 -0.113 -1.361 23.491 1.701 0.113 0.114 -1.816zm-0.568 10.894l0.341 -7.262 -1.701 -0.114 -0.454 9.078 1.702 0 0.112 -1.702zm-10.205 24.739l-0.341 7.263 1.702 0 0.567 -8.966 -1.815 -0.113 -0.113 1.816zm1.587 -27.122l-0.226 3.631 1.814 0.114 0.227 -5.447 -1.701 -0.114 -0.114 1.816zm-3.515 61.393l1.701 0.114 0.113 -1.816 -1.7 -0.113 -0.114 1.815zm0.34 -5.447l1.701 0.114 0.114 -1.816 -1.701 -0.113 -0.114 1.815zm0.34 -7.149l0 1.816 1.701 0.113 0.227 -3.631 -1.814 -0.114 -0.114 1.816zm-1.02 18.043l1.701 0.114 0.114 -1.815 -1.702 -0.114 -0.113 1.815zm3.288 -57.762l-0.453 8.965 1.701 0.114 0.68 -10.781 -1.701 -0.113 -0.227 1.815zm-1.927 34.272l1.701 0.113 0.113 -1.815 -1.701 -0.114 -0.113 1.816zm3.515 29.164l0.226 -3.517 -1.7 -0.227 -0.34 5.447 1.701 0.113 0.113 -1.816zm53.411 -1.815l1.814 0.113 0 -1.815 -1.701 -0.114 -0.113 1.816zm-47.061 -48.57l0.227 -3.518 -1.701 -0.113 -0.34 5.333 1.814 0.114 0 -1.816zm48.762 19.746l-1.701 -0.114 -0.114 1.816 1.701 0.113 0.114 -1.815zm4.082 -41.421l-0.226 5.333 1.7 0.114 0.454 -7.149 -1.815 -0.114 -0.113 1.816zm-4.422 46.868l-1.701 -0.227 -0.114 1.816 1.701 0.113 0.114 -1.702zm2.268 -39.832l-1.702 0 -0.566 8.965 1.814 0.113 0.454 -9.078zm2.381 -41.421l0.794 -12.71 -1.701 -0.113 -0.907 14.525 1.814 0 0 -1.702zm-0.227 5.334l-1.815 -0.114 -0.339 7.263 1.7 0.114 0.454 -7.263zm-1.02 18.043l-1.815 -0.113 -0.567 10.894 1.701 0.113 0.681 -10.894zm0.453 -8.965l-1.701 -0.113 -0.34 5.447 1.701 0 0.34 -5.334zm-2.495 43.35l-1.701 -0.113 -0.113 1.815 1.701 0 0.113 -1.702zm6.124 14.753l-1.701 -0.114 -0.454 7.263 1.701 0.113 0.454 -7.262zm-4.877 23.377l1.815 0 0.113 -1.816 -1.814 0 -0.114 1.816zm-3.855 -23.831l1.814 0.113 0 -1.816 -1.701 -0.113 -0.113 1.816zm-26.082 30.413l-0.453 7.263 1.814 0.113 0.454 -9.079 -1.701 -0.113 -0.114 1.816zm30.278 -41.081l-0.227 1.816 1.814 0.114 0.227 -3.632 -1.814 -0.113 0 1.815zm-3.742 3.405l-0.114 1.816 1.701 0.113 0.227 -3.631 -1.701 -0.114 -0.113 1.816zm2.495 47.322l1.701 0.113 0.453 -7.262 -1.701 -0.114 -0.453 7.263zm1.36 -23.491l0.227 -3.632 -1.814 -0.113 -0.227 5.448 1.701 0.113 0.113 -1.816zm3.062 7.376l1.701 0.114 0.113 -1.816 -1.701 -0.114 -0.113 1.816zm-25.628 -38.356l1.701 0.113 1.474 -25.307 -1.701 -0.113 -1.474 25.307zm-3.062 23.377l-0.114 1.816 1.702 0.113 0.226 -3.631 -1.7 -0.114 -0.114 1.816zm-0.68 -18.158l1.701 0.114 1.247 -21.675 -1.701 -0.113 -1.247 21.674zm3.288 32.797l1.701 0.114 0.227 -3.632 -1.701 -0.114 -0.227 3.632zm0.114 -92.374l-1.701 30.64 1.701 0.113 1.814 -32.455 -1.701 -0.113 -0.113 1.815zm-7.031 92.033l-0.113 1.816 1.701 0 0.226 -3.518 -1.701 -0.113 -0.113 1.815zm0.454 -9.078l0 1.816 1.701 0.113 0.227 -3.631 -1.702 -0.114 -0.226 1.816zm0.34 -5.447l1.814 0.113 0 -1.815 -1.701 -0.114 -0.113 1.816zm36.628 -62.415l0.453 -7.263 -1.701 0 -0.567 8.966 1.815 0.113 0 -1.816zm-1.135 19.859l0.227 -3.631 -1.701 -0.114 -0.34 5.447 1.701 0.114 0.113 -1.816zm1.815 -30.64l1.247 -21.674 -1.701 -0.114 -1.361 23.491 1.701 0.113 0.114 -1.816zm-1.248 21.562l0.228 -3.518 -1.815 -0.113 -0.227 5.333 1.701 0.114 0.113 -1.816zm-3.515 -0.113l2.495 -43.35 -1.701 -0.114 -2.608 45.166 1.814 0.113 0 -1.815zm2.722 14.638l0 -1.815 -1.701 -0.114 -0.227 3.632 1.815 0.113 0.113 -1.816zm-24.948 -80.117l1.361 5.447 -0.227 3.631 0.113 0 -1.814 30.867 1.701 0.114 2.041 -34.839 -1.474 -5.674 -1.701 0.454zm24.494 87.38l0.114 -1.816 -1.815 -0.113 -0.113 3.631 1.701 0 0.113 -1.702zm-25.401 -41.988l-1.247 21.562 1.701 0.114 1.36 -23.378 -1.701 -0.114 -0.113 1.816zm-13.154 46.3l-0.34 7.263 1.701 0 0.453 -8.965 -1.701 -0.113 -0.113 1.815zm11.907 -85.564l-1.588 28.143 1.701 0.114 1.701 -28.484 -1.474 -5.448 -1.701 0.454 1.361 5.221zm0.337 -5.711l1.766 -0.418 -0.417 -1.767 -1.766 0.418 0.417 1.767zm3.178 -2.574l-0.908 -3.517 -1.814 0.34 0.908 3.631 1.814 -0.454zm-6.69 3.405l1.814 -0.341 -0.454 -1.815 -1.814 0.454 0.454 1.702zm33.679 19.292l1.814 -30.98c-0.567,0 -1.134,0 -1.701,0l-1.814 30.98 1.701 0zm-32.319 -13.618l-1.587 -5.561 -1.474 0.341 -0.454 -1.702 -1.815 0.34 0.454 1.816 1.588 -0.341 1.587 5.334 -3.629 63.095 1.701 0.114 3.629 -63.436zm28.804 13.391l1.814 -30.868c-0.567,0 -1.134,0 -1.701,0l-1.814 30.868 1.701 0zm-1.701 -30.981c-0.568,0 -1.135,0 -1.701,0l-1.815 30.641 1.701 0.113 1.815 -30.754zm-56.02 108.602l0.114 -1.816 -1.815 0 -0.113 3.518 1.701 0.114 0.113 -1.816zm11.227 15.093l-1.701 -0.114 -0.113 1.816 1.814 0.114 0 -1.816zm-10.319 -0.681l-0.114 1.816 1.701 0.113 0.114 -1.815 -1.701 -0.114zm6.35 9.419l-1.701 -0.113 -0.114 1.815 -3.515 -0.227 -0.114 1.816 -1.701 -0.114 -0.113 1.816 1.701 0.113 -0.454 7.263 -1.701 -0.114 -0.227 3.632 1.702 0.113 0.113 -1.815 1.701 0.113 0.227 -3.631 1.701 0.114 -0.114 1.815 5.217 0.341 0.114 -1.816 3.515 0.227 0.226 -3.631 -1.701 -0.114 0.114 -1.816 -1.701 -0.113 0.227 -3.632 -3.516 -0.227 0.114 -1.815zm1.587 3.745l-0.453 7.263 -1.701 -0.114 0.113 -1.816 -1.701 -0.113 0.227 -3.632 -1.701 -0.114 0.114 -1.815 5.102 0.341zm-8.277 -7.717l1.7 0.114 0.114 -1.816 -1.701 -0.114 -0.113 1.816zm0.453 -7.263l1.701 0.114 -0.113 1.816 1.701 0.113 0 1.816 -1.815 -0.114 -0.113 1.816 5.216 0.341 -0.34 5.333 3.515 0.227 -0.113 1.815 1.701 0.114 0.113 -1.815 1.815 0.113 0.226 -3.631 -1.814 -0.114 -0.113 1.816 -1.701 -0.114 0.227 -3.631 -1.815 0 0.114 -1.816 -3.402 -0.226 0.34 -7.264 -5.103 -0.226 -0.227 3.517zm2.948 9.306l0.114 -1.816 -1.815 -0.113 0 1.815 1.701 0.114zm4.196 -12.483l0.113 -1.816 -1.814 -0.113 -0.113 1.815 1.814 0.114zm0.227 -3.632l0 -1.815 -1.701 -0.114 -0.113 1.929 1.814 0zm66.225 -73.535l-0.114 -3.745c-0.793,-4.653 -1.814,-9.647 -2.381,-13.391 -0.567,-3.745 -0.68,-6.242 -1.134,-9.873l-1.814 -13.618 -4.536 0 -1.474 27.35 1.701 0.113 -0.114 1.816 -1.701 -0.114 -1.247 21.675 1.701 0.113 -0.113 1.816 -1.702 -0.114 -0.453 7.15 5.216 0.34 -0.113 1.816 -5.217 -0.341 -0.453 7.263 3.515 0.227 -0.113 1.816 -1.701 -0.114 -0.341 5.447 1.701 0.114 0.114 -1.816 1.701 0.114 -0.114 1.815 -1.701 -0.113 -0.113 1.815 -1.701 -0.113 -0.114 1.815 -1.701 -0.114 -0.227 3.631 1.701 0.114 -0.113 1.816 -1.701 -0.114 -0.794 12.597 1.701 0.113 0.113 -1.815 1.702 0.114 0.113 -1.816 1.701 0.114 0.114 -1.816 -1.701 -0.114 0.227 -3.631 1.701 0.114 -0.227 3.631 3.515 0.227 -0.227 3.632 1.588 0.113 0.34 -3.631 0.114 0c0.113,-0.567 0.113,-1.135 0.226,-1.816l-0.34 0 0.226 -3.631 -1.701 -0.114 0.341 -5.447 1.701 0.114 0.113 -1.816 -1.701 -0.113 0.227 -3.632 -1.701 -0.113 0.114 -1.816 1.701 0.114 0.226 -3.632 4.309 0.227 1.248 -6.014 0.113 -1.135 -1.814 -0.114 -0.113 1.816 -1.702 -0.114 0.227 -3.631 -1.701 -0.114 -0.114 1.815 -1.701 -0.113 0.341 -5.447 -1.815 -0.114 0.454 -7.15 -1.701 -0.113 0.114 -1.816 1.7 0.114 -0.113 1.815 3.515 0.227 -0.113 1.816 1.701 0.114 -0.341 5.447 -1.701 -0.114 0.114 -1.815 -1.701 -0.114 -0.114 1.815 1.701 0.114 -0.113 1.816 5.216 0.34 0.567 -9.078 -1.701 -0.114 0.227 -3.632 1.701 0.114c0.177,-3.534 -0.035,-3.214 -0.794,-7.263l-0.452 -0.111zm-7.825 44.825l-1.701 -0.114 -0.114 1.816 -1.701 -0.114 0.114 -1.816 1.701 0.114 0.114 -1.815 1.7 0.113 -0.113 1.816zm0.907 -16.228l0.227 -3.632 1.701 0.114 -0.227 3.632 -1.701 -0.114 -0.113 1.816 -1.701 -0.114 0.113 -1.816 1.701 0.114zm1.474 -25.306l0.114 -1.816 1.701 0.114 -0.114 1.815 -1.701 -0.113zm3.175 5.674l-1.701 -0.114 0.114 -1.816 1.701 0.114 -0.114 1.816zm6.011 4.425l-0.114 1.816c0.484,-0.484 0.691,-0.655 0.114,-1.816zm-15.082 62.075l-3.402 -0.227 -0.114 1.815 -1.701 -0.113 -0.114 1.815 1.701 0.114 -0.453 7.262 -1.701 -0.113 -0.227 3.631 1.701 0.114 0.114 -1.815 1.701 0.113 0.227 -3.631 1.701 0.113 -0.114 1.816 3.969 0.227 0.68 -10.781 -2.381 -0.113 0.114 -1.816 -1.701 -0.114 0 1.703zm3.401 2.043l-0.452 7.149 -1.702 -0.114 0.114 -1.815 -1.701 -0.114 0.227 -3.632 -1.701 -0.113 0.113 -1.816 5.102 0.455zm-2.38 10.666l-1.701 -0.113 -0.227 3.631 1.701 0.114 -0.34 5.447 2.268 0.114c0,-0.568 0.113,-1.135 0.113,-1.816l-0.453 0 0.114 -1.815 0.453 0c0.113,-1.248 0.113,-2.383 0.226,-3.632l-2.268 -0.114 0.114 -1.816zm-5.557 -23.831l-0.114 1.816 1.701 0.114 0.114 -1.816 -1.701 -0.114zm-0.34 5.448l1.701 0 0.113 -1.703 -1.701 -0.113 -0.113 1.816zm3.288 1.929l0.114 -1.816 -1.701 -0.113 -0.114 1.815 1.701 0.114zm2.835 43.123c0.559,-0.559 0.681,-1.328 0.681,-3.065l-0.454 0 -0.227 3.065zm-4.309 -16.001l-1.814 -0.114 -0.114 3.632 1.701 0.113 -0.113 1.816 1.701 0.114 0.34 -5.447 1.701 0.113 0.114 -1.816 -3.403 -0.227 -0.113 1.816zm-55.452 -23.604l1.701 0 0.114 -1.703 -1.701 -0.226 -0.114 1.929zm60.215 31.094l0.453 0c0,-0.568 0.114,-1.135 0.114,-1.816l-0.453 0 -0.114 1.816zm5.329 -61.28l0.794 0 0.226 -1.816 -1.02 0 0 1.816zm-2.835 17.93l1.134 0.113c0.114,-1.135 0.227,-2.383 0.454,-3.631l-1.361 -0.114 -0.227 3.632zm0.907 1.929l-1.02 -0.114 -0.113 1.816 1.02 0c0,-0.567 0.113,-1.135 0.113,-1.702zm4.083 -27.689c0.227,-0.908 0.34,-1.929 0.454,-2.837l-0.341 0 -0.113 2.837zm-6.35 18.497l0.113 -1.816 -1.701 -0.113 -0.113 1.815 1.701 0.114zm-3.515 1.589l1.701 0.113 0.113 -1.816 -1.701 -0.113 -0.113 1.816zm-3.856 5.22l1.701 0.114 -0.114 1.815 1.702 0.114 -0.114 1.815 -1.701 -0.113 -0.114 1.815 5.104 0.341 -0.341 5.447 2.381 0.114 0.567 -5.447 -0.907 0 0.113 -1.816 -3.515 -0.227 0.454 -7.263 -5.216 -0.34 0 3.631zm7.257 -3.178l0 -1.815 -1.7 -0.114 -0.114 1.816 1.814 0.113zm-33.112 -97.026l-0.794 -3.518 -1.814 0.454 0.907 3.518 1.701 -0.454zm-33.906 -4.313c-0.681,0 -1.247,-0.113 -1.928,-0.113l0.454 1.929 1.701 -0.454 -0.227 -1.362zm-3.062 2.384l-0.68 -2.497c-0.681,0 -1.247,-0.114 -1.928,-0.114l0.567 2.157 -6.464 -2.724c-1.247,-0.114 -2.154,-0.341 -2.948,-0.454 -1.588,-0.34 -2.608,-0.681 -3.515,-1.021l0 1.021 13.721 5.788 -0.453 -1.703 1.7 -0.453zm-1.361 2.156l0.681 2.61 -14.628 -6.128 -0.34 2.269 15.649 6.582 -0.454 -1.702 1.701 -0.454 -0.907 -3.518 -1.702 0.341zm8.278 -4.312c-0.567,0 -1.247,0 -1.927,-0.114l0.226 0.908 1.814 -0.454 -0.113 -0.34zm17.918 0.226c-0.681,0 -1.247,0 -1.815,0l0.341 1.476 1.814 -0.454 -0.34 -1.022zm3.742 0c-0.567,0 -1.248,0 -1.814,0l0.226 0.682 1.701 -0.454 -0.113 -0.228zm-48.421 28.938c-0.114,1.021 -0.227,1.929 -0.341,2.837l0.681 2.838 -2.041 34.498 1.701 0.113 2.041 -34.838 -1.474 -5.674 -0.567 0.226zm44.906 -20.313l-0.454 -1.816 -1.814 0.454 0.113 0.568 -0.794 -4.199 1.588 -0.341 -0.454 -1.815 -1.361 0.454 -0.34 -1.816c-0.568,0 -1.134,0 -1.701,0l0.113 0.568 -1.134 -0.568 -10.433 -0.227 -1.247 0.341 0.454 1.702 1.814 -0.454 -0.227 -0.907 2.155 0.907c0.113,0.568 0.226,1.022 0.226,1.476l-2.041 -0.908 0.68 2.837 -1.927 0.453 0.453 1.702c1.189,-0.264 0.837,-0.3 1.588,0 0.34,1.362 0.681,2.724 1.021,4.086l-1.815 34.952 1.701 0.114 -0.113 1.816 -1.701 -0.114 -1.247 21.675 1.701 0.113 -0.114 1.816 -1.701 -0.114 -0.453 7.263 5.216 0.34 -0.114 1.816 -5.216 -0.341 -0.454 7.15 3.516 0.226 -0.114 1.816 -1.701 -0.114 -0.34 5.447 1.701 0.114 0.113 -1.816 1.702 0.114 -0.114 1.816 -1.701 -0.114 -0.114 1.815 -1.701 -0.113 -0.113 1.816 -1.701 -0.114 -0.227 3.631 1.701 0.114 -0.114 1.816 -1.701 -0.114 -0.678 12.598 1.701 0 0.113 -1.816 1.701 0.114 0.114 -1.816 1.701 0.114 0.113 -1.816 -1.701 -0.113 0.227 -3.632 1.701 0.114 -0.227 3.631 3.516 0.227 -0.227 3.632 1.701 0.113 -0.227 3.632 -1.702 -0.115 -0.226 3.632 1.701 0.113 -0.114 1.816 2.835 0.114 -0.113 1.815 1.701 0.114 0.113 -1.816 -1.134 -0.113 0.114 -1.816 -1.701 -0.114 0.227 -3.631 1.134 0.114 -0.114 1.815 1.701 0.114 0.114 -1.816 -1.134 -0.113 0.793 -12.597 -1.701 -0.114 -0.226 3.632 -1.701 -0.114 0.226 -3.631 -1.701 -0.114 0.34 -5.447 1.701 0.113 0.114 -1.815 -1.701 -0.114 0.227 -3.631 -1.701 -0.114 0.113 -1.816 1.701 0.114 0.227 -3.632 5.216 0.341 0.454 -7.149 -1.701 -0.114 -0.114 1.815 -1.701 -0.113 0.227 -3.632 -1.701 -0.113 -0.114 1.815 -1.701 -0.113 0.34 -5.447 -1.701 -0.114 0.454 -7.263 -1.701 -0.113 0.113 -1.816 1.701 0.114 -0.113 1.815 3.515 0.228 -0.114 1.815 1.702 0.114 -0.341 5.447 -1.701 -0.114 -0.566 1.931 5.216 0.341 0.567 -9.079 -1.701 -0.114 0.227 -3.631 1.701 0.113 0.454 -7.262 -1.814 -0.114 0.226 -3.632 1.701 0.114 0.908 -16.228 -1.702 -0.113 0.114 -1.816 1.814 0.114 0.454 -7.263 -0.113 0c0.226,-5.447 0.453,-10.894 0.68,-16.341l1.021 -0.227 1.814 5.561 -1.247 21.448 1.701 0.113 1.247 -21.788 -1.928 -5.674 -1.134 0.34 -0.453 -1.702 -1.815 0.454 -0.793 -3.518 1.701 -0.568 0.793 3.518 1.814 -0.454 -0.907 -3.518 -1.7 0.454zm-8.959 103.041l1.701 0.114 -0.113 1.815 -1.701 -0.113 0.113 -1.816zm-3.062 -7.376l-1.814 -0.114 -0.114 1.816 -1.701 -0.114 0.114 -1.816 1.701 0.114 0.113 -1.816 1.702 0.114 -0.001 1.816zm1.021 -16.228l0.226 -3.632 1.702 0.114 -0.227 3.631 -1.701 -0.113 -0.114 1.815 -1.814 -0.114 0.113 -1.815 1.815 0.114zm3.629 -83.863c0.113,0.454 0.113,1.021 0.226,1.476l-1.134 -0.454 -0.227 -1.476 1.135 0.454zm-4.31 -0.454c-0.113,-0.567 -0.226,-1.021 -0.34,-1.475l1.475 0.567 0.226 1.476 -1.361 -0.568zm2.041 59.011l0.114 -1.816 1.701 0.114 -0.114 1.815 -1.701 -0.113zm3.175 5.56l-1.701 -0.113 0.114 -1.816 1.701 0.114 -0.114 1.815zm0.908 -63.322l1.247 0.567c0.114,0.454 0.114,1.021 0.226,1.475l-1.247 -0.567c-0.113,-0.568 -0.113,-1.021 -0.226,-1.475zm2.154 39.945l-1.701 -0.113 0.114 -1.816 1.701 0.114 -0.114 1.815zm-24.04 115.411c0.567,0 1.134,0.113 1.701,0.113l0 -0.681 -1.701 -0.113 0 0.681zm8.845 -2.156l-1.701 -0.114 -0.114 2.61c1.134,0 2.268,0.113 3.402,0.113l0.114 -2.496 1.701 0.113 0.114 -1.815 -3.516 -0.227 0 1.816zm7.144 -3.178l-1.701 -0.114 0.114 -1.815 1.701 0.114 0.226 -3.632 -3.515 -0.227 0.114 -1.815 -1.701 -0.114 -0.227 3.632 1.701 0.113 -0.34 5.447c1.701,0.114 3.515,0.227 5.216,0.341l0.227 -3.632 -1.701 -0.113 -0.114 1.815zm3.289 3.858l0.113 -1.815 -1.814 -0.114 -0.114 1.816 1.815 0.113zm16.556 2.838c0.227,0 0.567,0 0.793,0l-0.793 0zm-55.225 -87.154l0 9.646c0.227,2.723 0.453,5.447 0.68,8.057l1.134 -19.292 -1.701 -0.113 -0.113 1.702zm52.616 -72.969l-0.453 -1.589 -1.701 0.228 0.453 1.815 1.701 -0.454zm-29.71 158.874l1.701 0 0 -0.567 -1.701 -0.114 0 0.681zm17.463 -12.369l-4.535 -0.341 -0.114 1.816 1.701 0.113 -0.227 3.632 1.134 0.113 -0.113 1.816 1.701 0 0.113 -1.702 -1.134 -0.114 0.227 -3.631 2.835 0.227 0.227 -3.632 -1.701 -0.113 -0.114 1.816zm7.825 -141.625l0.453 1.702 1.702 -0.454 -0.34 -1.702 -1.815 0.454zm-20.752 -4.086l0.794 3.405 1.814 -0.454 -0.907 -3.404 -1.701 0.453zm-1.701 0.341l-1.814 0.454 0.907 3.518 1.701 -0.454 -0.794 -3.518zm28.123 4.199l-0.453 -1.816 -1.701 0.454 0.453 1.816 1.701 -0.454zm-17.35 68.429l-0.114 1.816 1.702 0.114 0.113 -1.816 -1.701 -0.114zm-12.587 -72.174l-0.454 -1.702 -1.701 0.454 0.341 1.702 1.814 -0.454zm3.515 -0.795l-0.453 -1.815 -1.701 0.454 0.453 1.702 1.701 -0.341zm-0.794 4.2c0.114,0.453 0.227,0.907 0.341,1.361l1.814 -0.454 -0.454 -1.702 -1.701 0.454 0 0.341zm-3.175 2.156l-1.701 0.567 0.113 0c0.922,3.426 0.851,2.328 0.681,5.901l-1.928 34.045 1.701 0.113 2.041 -34.272 -0.113 0c0.286,-3.868 0.421,-2.382 -0.68,-6.241l1.701 -0.454 -0.454 -1.702 -1.814 0.453 0.453 1.59zm30.391 -1.816l0.907 3.518 1.701 -0.454 -0.794 -3.518 -1.814 0.454zm-1.701 0.454l-1.814 0.34 0.907 3.632 1.701 -0.454 -0.794 -3.518zm3.742 -7.377c-0.567,0 -1.247,0 -1.928,0l0.227 1.135 1.928 -0.34 -0.227 -0.795zm-0.245 6.429l1.766 -0.418 -0.417 -1.767 -1.766 0.418 0.417 1.767zm-26.063 8.891l-2.041 34.272 1.7 0.113 2.268 -38.243 -1.133 -4.313 -1.702 0.341c1.354,4.876 1.198,3.032 0.908,7.83zm19.504 -12.823l-0.454 -1.816 -1.701 0.454 0.341 1.816 1.814 -0.454zm2.609 3.064l-0.908 -3.518 -1.701 0.454 0.908 3.518 1.701 -0.454zm1.701 -0.454l1.814 -0.341 -0.908 -3.517 -1.701 0.34 0.795 3.518zm-5.671 -0.454l-0.453 -1.702 -1.701 0.341 0.794 3.631 1.814 -0.454 -0.454 -1.816z"/>
   </g>
  </g>
  <path fill="none" d="M91.234 163.341c0.06,-0.29 0.117,-0.718 0.209,-2.252 0.091,-1.534 0.216,-4.174 0.518,-9.369 0.303,-5.195 0.782,-12.944 1.164,-18.604 0.382,-5.659 0.667,-9.229 1.038,-13.175 0.37,-3.946 0.826,-8.268 1.397,-12.773 0.57,-4.505 1.254,-9.192 2.132,-14.518 0.879,-5.326 1.95,-11.291 2.766,-15.197 0.815,-3.906 1.374,-5.753 1.733,-6.921 0.358,-1.167 0.516,-1.655 0.64,-1.921 0.123,-0.267 0.212,-0.313 0.296,-0.305 0.084,0.008 0.164,0.069 0.266,0.183 0.103,0.113 0.228,0.278 0.391,0.627 0.163,0.349 0.362,0.88 0.684,1.602 0.321,0.721 0.764,1.632 1.146,2.525 0.381,0.893 0.7,1.768 0.836,2.443 0.135,0.674 0.087,1.147 0.127,1.679 0.04,0.532 0.168,1.122 0.504,1.619 0.337,0.498 0.881,0.903 1.195,1.44 0.314,0.538 0.396,1.208 0.602,2.158 0.205,0.951 0.533,2.183 0.646,3.113 0.112,0.929 0.009,1.556 -0.098,2.148 -0.106,0.591 -0.218,1.148 -0.101,1.705 0.117,0.557 0.462,1.116 0.865,1.635 0.404,0.519 0.866,0.998 1.149,1.313 0.284,0.315 0.39,0.466 0.491,0.609 0.101,0.142 0.198,0.276 0.351,0.879 0.152,0.603 0.36,1.675 0.439,2.419 0.078,0.745 0.027,1.161 -0.003,1.576 -0.03,0.415 -0.039,0.828 -0.073,1.354 -0.034,0.526 -0.094,1.165 -0.085,1.751 0.008,0.586 0.085,1.119 0.46,1.91 0.375,0.791 1.048,1.84 1.685,2.689 0.637,0.848 1.239,1.495 1.643,1.902 0.404,0.407 0.611,0.574 0.797,0.87 0.186,0.296 0.351,0.72 0.488,1.263 0.137,0.544 0.246,1.205 0.304,1.972 0.058,0.767 0.067,1.64 0.054,2.608 -0.013,0.968 -0.047,2.031 0.15,2.999 0.197,0.968 0.624,1.84 1.101,2.577 0.476,0.738 1,1.339 1.389,1.826 0.39,0.488 0.644,0.862 0.856,1.23 0.213,0.367 0.384,0.729 0.555,1.154 0.171,0.425 0.342,0.913 0.472,1.479 0.13,0.566 0.218,1.21 0.339,1.795 0.121,0.584 0.275,1.108 0.375,1.699 0.1,0.59 0.145,1.246 0.32,2.204 0.174,0.958 0.476,2.218 0.678,3.273 0.203,1.055 0.305,1.904 0.416,2.657 0.112,0.753 0.231,1.409 0.325,2.284 0.094,0.875 0.163,1.97 0.294,2.774 0.131,0.804 0.325,1.317 0.465,2.09 0.14,0.772 0.225,1.805 0.299,2.412 0.074,0.607 0.137,0.79 0.288,0.952 0.104,0.112 0.251,0.215 0.437,0.32 -0.079,-0.368 -0.154,-0.732 -0.127,-0.999 0.028,-0.278 0.168,-0.45 0.332,-0.556 0.164,-0.105 0.352,-0.145 0.75,-0.063 0.398,0.082 1.007,0.284 1.729,0.399 0.723,0.115 1.56,0.144 2.868,0.151 1.309,0.007 3.089,-0.007 5.568,-0.327 2.479,-0.319 5.657,-0.943 8.788,-1.599 3.132,-0.656 6.217,-1.344 9.657,-2.107 3.44,-0.762 7.234,-1.599 10.248,-2.124 3.014,-0.525 5.249,-0.737 8.16,-0.854 2.912,-0.118 6.502,-0.139 10.137,0.024 3.635,0.163 7.316,0.511 9.976,0.862 2.66,0.351 4.298,0.706 5.688,1.227 1.391,0.522 2.533,1.21 3.226,1.734 0.693,0.524 0.938,0.884 1.054,1.193 0.116,0.309 0.104,0.568 -0.007,0.887 -0.11,0.319 -0.318,0.698 -0.526,1.077 0.192,-0.063 0.354,-0.202 0.566,-0.399 0.232,-0.218 0.523,-0.509 0.64,-0.957 0.116,-0.447 0.059,-1.052 0.065,-2.577 0.006,-1.525 0.074,-3.972 0.052,-6.694 -0.023,-2.724 -0.137,-5.723 -0.194,-7.553 -0.057,-1.831 -0.057,-2.492 -0.057,-3.427 0,-0.936 0,-2.144 -0.029,-3.276 -0.028,-1.132 -0.085,-2.187 -0.111,-3.279 -0.025,-1.092 -0.02,-2.221 -0.091,-4.009 -0.072,-1.787 -0.22,-4.234 -0.3,-6.212 -0.079,-1.979 -0.091,-3.49 -0.231,-7.51 -0.139,-4.02 -0.407,-10.55 -0.929,-16.996 -0.522,-6.446 -1.297,-12.81 -2.278,-18.854 -0.981,-6.045 -2.167,-11.77 -3.341,-17.21 -1.175,-5.44 -2.338,-10.594 -3.867,-15.864 -1.528,-5.268 -3.421,-10.651 -5.246,-15.498 -1.824,-4.847 -3.581,-9.158 -4.618,-11.657 -1.038,-2.499 -1.357,-3.186 -1.494,-3.631 -0.137,-0.445 -0.092,-0.647 0.009,-0.803 0.102,-0.155 0.258,-0.263 0.386,-0.349 0.014,-0.01 0.028,-0.019 0.041,-0.029 -0.042,-0.002 -0.088,-0.005 -0.144,-0.008 -0.105,-0.005 -0.243,-0.013 -0.693,-0.048 -0.449,-0.035 -1.21,-0.098 -2.217,-0.107 -1.008,-0.008 -2.262,0.038 -3.577,0.132 -1.316,0.095 -2.692,0.24 -4.839,0.609 -2.148,0.368 -5.068,0.962 -7.478,1.498 -2.41,0.535 -4.311,1.014 -6.805,1.509 -2.494,0.494 -5.581,1.003 -8.679,1.418 -3.098,0.414 -6.208,0.733 -9.971,1.076 -3.764,0.341 -8.181,0.707 -11.872,0.965 -3.692,0.259 -6.657,0.41 -9.367,0.559 -2.711,0.148 -5.167,0.292 -7.957,0.403 -2.79,0.11 -5.915,0.186 -9.017,0.251 -3.102,0.064 -6.181,0.117 -9.116,0.11 -2.935,-0.008 -5.725,-0.076 -8.341,-0.137 -2.615,-0.061 -5.056,-0.114 -7.698,-0.194 -2.642,-0.08 -5.486,-0.186 -8.975,-0.285 -3.49,-0.099 -7.626,-0.19 -12.01,-0.217 -4.383,-0.026 -9.013,0.012 -12.845,0.008 -3.832,-0.004 -6.865,-0.049 -10.876,-0.205 -4.011,-0.156 -8.998,-0.422 -12.585,-0.69 -3.587,-0.268 -5.773,-0.538 -7.362,-0.856 -1.59,-0.318 -2.583,-0.683 -3.577,-1.049 0.044,0.064 0.021,0.188 -0.027,0.625 -0.062,0.551 -0.164,1.597 -0.449,3.521 -0.286,1.925 -0.753,4.728 -1.058,6.779 -0.305,2.052 -0.448,3.352 -0.79,5.493 -0.342,2.141 -0.884,5.124 -1.32,7.752 -0.436,2.629 -0.767,4.904 -1.029,6.823 -0.263,1.919 -0.457,3.481 -0.636,5.294 -0.18,1.814 -0.345,3.878 -0.525,6.376 -0.18,2.497 -0.373,5.428 -0.567,8.701 -0.194,3.273 -0.388,6.888 -0.53,10.743 -0.143,3.855 -0.234,7.949 -0.206,12.14 0.029,4.192 0.177,8.48 0.468,12.648 0.291,4.169 0.724,8.217 1.009,11.855 0.285,3.638 0.422,6.865 0.485,10.435 0.063,3.57 0.051,7.481 0.091,11.969 0.04,4.488 0.131,9.552 0.223,13.777 0.091,4.225 0.182,7.612 0.266,9.945 0.084,2.332 0.162,3.609 0.193,4.373 0.031,0.764 0.017,1.015 0.027,2.23 0.01,1.214 0.044,3.393 0.078,4.946 0.035,1.554 0.069,2.484 0.137,3.037 0.068,0.553 0.171,0.73 0.482,1.055 0.311,0.325 0.83,0.798 2.632,1.177 1.802,0.38 4.886,0.665 7.829,0.918 2.942,0.254 5.742,0.476 10.492,0.73 4.75,0.254 11.451,0.539 16.4,0.753 4.95,0.214 8.149,0.356 10.954,0.382 2.806,0.026 5.218,-0.066 7.656,-0.143 2.438,-0.077 4.901,-0.139 7.25,-0.216 2.35,-0.077 4.585,-0.168 7.735,-0.565 3.151,-0.396 7.217,-1.098 9.757,-1.616 2.54,-0.519 3.556,-0.856 4.448,-1.309 0.892,-0.453 1.662,-1.024 2.078,-1.386 0.417,-0.362 0.479,-0.516 0.539,-0.807z"/>
 </g>
</svg>
