<?xml version="1.0" encoding="UTF-8"?>
<!DOCTYPE svg PUBLIC "-//W3C//DTD SVG 1.1//EN" "http://www.w3.org/Graphics/SVG/1.1/DTD/svg11.dtd">
<!-- Creator: CorelDRAW -->
<svg xmlns="http://www.w3.org/2000/svg" xml:space="preserve" width="238px" height="298px" version="1.1" shape-rendering="geometricPrecision" text-rendering="geometricPrecision" image-rendering="optimizeQuality" fill-rule="evenodd" clip-rule="evenodd"
viewBox="0 0 238 298.123"
 xmlns:xlink="http://www.w3.org/1999/xlink"
 xmlns:xodm="http://www.corel.com/coreldraw/odm/2003">
 <defs>
   <clipPath id="id0">
    <path d="M207.298 27.894c-0.11,-0.063 -0.222,-0.122 -0.337,-0.177 -4.975,-2.38 -9.714,-5.334 -14.858,-7.149 -4.647,-1.639 -11.454,-2.699 -17.288,-4.719 -2.277,-0.789 -4.556,-1.589 -6.82,-2.415l-0.004 -0.03 -9.999 -4.08 -0.175 -0.072c-0.614,-0.28 -1.553,-1.207 -2.512,-1.889 -0.494,-0.369 -0.613,-0.563 -1.038,-0.905 -2.856,-2.299 -5.606,-5.635 -9.574,-5.641 -0.901,-0.002 -1.04,-0.123 -1.779,-0.163l-7.601 -0.17c-5.892,-0.486 -12.055,-0.501 -18.06,-0.477 -5.087,0.02 -9.557,0.063 -14.567,0.477 -2.529,0.209 -4.996,0.029 -7.6,0.17 -0.739,0.04 -0.878,0.161 -1.779,0.163 -3.968,0.006 -6.718,3.342 -9.575,5.641 -0.424,0.342 -0.543,0.536 -1.037,0.905 -0.741,0.527 -1.471,1.2 -2.047,1.608 -0.17,0.121 -0.326,0.218 -0.465,0.281l-10.174 4.152 -0.003 0.03c-2.265,0.826 -4.544,1.626 -6.821,2.415 -5.834,2.02 -12.641,3.08 -17.288,4.719 -5.144,1.815 -9.883,4.769 -14.858,7.149 -0.212,0.101 -0.412,0.215 -0.605,0.339 -0.909,0.583 -1.664,1.379 -2.651,2.001 -11.263,7.099 -18.243,27.467 -21.401,39.215 -1.569,5.839 -1.98,12.983 -2.969,19.04 -0.5,3.067 -1.172,6.193 -1.752,9.253 -0.585,3.095 -0.872,6.493 -1.288,9.631 -0.406,0.268 -0.327,-0.023 -0.308,0.899l-0.065 1.854 0 8.783c0.041,1.018 0.102,1.813 0.186,2.164 1.125,0.477 3.706,0.514 5.07,0.712 7.662,1.114 9.041,0.828 15.791,1.554l21.547 1.349c-0.015,-1.623 0.547,-10.725 0.578,-13.424l-0.603 -0.316 -0.07 -0.036c0,-4.476 -0.011,-9.226 -0.011,-13.7 1.678,4.247 3.328,18.944 3.789,24.023 0.735,8.116 1.826,16.186 2.512,24.347 0.348,4.137 0.874,8.269 1.009,12.419l0.653 12.776c0.396,4.199 0.208,8.934 0.274,13.179 0.032,2.062 0.194,4.007 0.186,6.13 -0.007,2.226 -0.172,4.349 -0.196,6.512 -0.051,4.469 -0.054,8.634 -0.319,13.111 -0.68,11.475 -1.257,26.076 -3.267,37.02 -0.966,5.407 -2.177,11.944 -2.754,17.389 -0.258,2.432 -0.827,10.057 -1.468,11.951 -0.68,2.01 -0.163,3.658 -0.568,5.77 -0.342,1.785 -0.742,3.812 -1.164,5.568 -0.463,1.93 -1.435,3.647 0.397,4.966 4.276,1.054 8.552,2.108 13.913,3.017 5.36,0.909 11.804,1.672 18.03,2.048 6.226,0.375 12.232,0.363 21.568,0.476 9.335,0.112 21.999,0.351 32.523,0.382 10.525,0.032 18.909,-0.144 26.242,-0.419 7.333,-0.275 13.615,-0.65 19.058,-1.151 5.443,-0.501 10.048,-1.126 13.829,-1.873 3.78,-0.746 6.736,-1.613 9.693,-2.48 1.832,-1.319 0.86,-3.036 0.397,-4.966 -0.422,-1.756 -0.822,-3.783 -1.164,-5.568 -0.405,-2.112 0.112,-3.76 -0.568,-5.77 -0.641,-1.894 -1.21,-9.519 -1.468,-11.951 -0.577,-5.445 -1.788,-11.982 -2.754,-17.389 -2.01,-10.944 -2.587,-25.545 -3.267,-37.02 -0.265,-4.477 -0.268,-8.642 -0.319,-13.111 -0.024,-2.163 -0.189,-4.286 -0.196,-6.512 -0.008,-2.123 0.154,-4.068 0.186,-6.13 0.066,-4.245 -0.122,-8.98 0.274,-13.179l0.653 -12.776c0.135,-4.15 0.661,-8.282 1.009,-12.419 0.686,-8.161 1.777,-16.231 2.512,-24.347 0.461,-5.079 1.889,-19.043 3.568,-23.29 0,4.474 -0.105,8.584 -0.105,13.06l0 0 -0.416 0.247c-0.004,0.882 0.338,12.091 0.604,13.423l21.579 -1.336c6.75,-0.726 8.129,-0.44 15.791,-1.554 1.364,-0.198 3.945,-0.235 5.07,-0.712 0.084,-0.351 0.145,-1.146 0.186,-2.164l0 -8.783 -0.065 -1.854c0.014,-0.687 0.062,-0.7 -0.083,-0.774 -0.05,-0.025 -0.122,-0.057 -0.225,-0.125 -0.416,-3.138 -0.703,-6.536 -1.288,-9.631 -0.58,-3.06 -1.252,-6.186 -1.752,-9.253 -0.989,-6.057 -1.4,-13.201 -2.969,-19.04 -3.158,-11.748 -10.138,-32.116 -21.401,-39.215 -1.057,-0.665 -1.895,-1.576 -2.919,-2.163z"/>
   </clipPath>
 </defs>
 <g id="VETORES">
  <metadata id="CorelCorpID_0Corel-Layer"/>
  <g>
  </g>
  <g clip-path="url(#id0)">
   <g id="_2015021595616">
    <path fill="#FF0074" fill-rule="nonzero" d="M51.276 273.27c0.26,-2.011 0.541,-3.974 0.991,-7.267 0.17,-1.251 0.681,-4.655 1.161,-8.029 0.341,-2.322 0.681,-4.685 1.362,-9.53 0.43,-3.173 0.851,-6.416 1.221,-9.82 0.4,-3.694 0.771,-7.578 1.081,-11.832 0.311,-4.255 0.601,-9.39 0.821,-15.376 0.201,-4.906 0.341,-10.271 0.371,-16.088 0.06,-6.096 0,-12.453 -0.17,-18.84 -0.171,-6.556 -0.431,-12.943 -0.771,-18.929 -0.401,-6.497 -0.881,-12.854 -1.562,-18.98 -0.681,-6.187 -1.592,-12.283 -2.813,-18.159 -1.192,-5.876 -2.663,-11.351 -4.395,-16.397 -1.792,-5.276 -3.864,-10.241 -6.217,-14.865 -0.38,-0.762 -0.781,-1.482 -1.171,-2.223 0.23,0.911 0.43,1.732 0.611,2.423 0.79,3.123 0.99,3.713 1.021,4.314 0.03,0.621 -0.111,1.252 -0.201,1.812 -0.089,0.561 -0.11,1.081 -0.139,1.592 1.672,4.224 3.343,18.93 3.804,24.005 0.74,8.118 1.811,16.206 2.492,24.345 0.371,4.145 0.881,8.259 1.022,12.433l0.65 12.774c0.401,4.204 0.2,8.939 0.281,13.163 0.029,2.073 0.17,4.035 0.17,6.127 0,2.243 -0.17,4.375 -0.2,6.527 -0.06,4.455 -0.06,8.629 -0.311,13.113 -0.68,11.463 -1.251,26.078 -3.263,36.999 -0.961,5.416 -2.182,11.943 -2.753,17.398 -0.26,2.443 -0.821,10.071 -1.471,11.943 -0.681,2.012 -0.171,3.664 -0.571,5.786 -0.34,1.792 -0.741,3.804 -1.161,5.566 -0.451,1.932 -1.422,3.634 0.4,4.965 2.182,0.541 4.365,1.071 6.687,1.592 0.451,-2.703 0.912,-5.526 1.372,-8.599 0.4,-2.693 1.021,-7.348 1.642,-11.923l0.009 -0.02zm133.656 -152.859c-1.192,5.876 -2.103,11.972 -2.783,18.158 -0.681,6.127 -1.162,12.483 -1.562,18.98 -0.341,5.986 -0.601,12.373 -0.771,18.93 -0.17,6.387 -0.23,12.743 -0.17,18.84 0.03,5.816 0.17,11.182 0.34,16.087 0.261,5.986 0.541,11.122 0.851,15.376 0.31,4.254 0.681,8.148 1.082,11.833 0.37,3.403 0.79,6.637 1.221,9.82 0.651,4.855 1.021,7.207 1.361,9.53 0.481,3.373 0.991,6.777 1.162,8.028 0.45,3.294 0.71,5.246 0.991,7.268 0.62,4.565 1.251,9.22 1.641,11.923 0.471,3.163 0.931,6.056 1.402,8.839 2.442,-0.581 4.585,-1.211 6.717,-1.822 1.842,-1.331 0.851,-3.033 0.401,-4.965 -0.431,-1.762 -0.822,-3.774 -1.162,-5.566 -0.4,-2.132 0.11,-3.774 -0.57,-5.786 -0.651,-1.872 -1.222,-9.51 -1.472,-11.942 -0.57,-5.446 -1.792,-11.973 -2.753,-17.399 -2.012,-10.921 -2.582,-25.536 -3.263,-36.998 -0.26,-4.485 -0.26,-8.659 -0.31,-13.114 -0.03,-2.153 -0.2,-4.284 -0.2,-6.527 0,-2.102 0.139,-4.054 0.2,-6.127 0.06,-4.224 -0.14,-8.969 0.26,-13.163l0.651 -12.774c0.14,-4.174 0.68,-8.289 1.021,-12.433 0.681,-8.148 1.762,-16.227 2.492,-24.345 0.481,-5.075 1.903,-19.04 3.575,-23.294 -0.09,-0.912 -0.171,-1.842 -0.311,-2.693 -0.14,-0.881 -0.31,-1.672 -0.09,-3.173 0.11,-0.721 0.311,-1.602 0.571,-2.593 -2.293,4.575 -4.345,9.49 -6.137,14.705 -1.702,5.055 -3.173,10.531 -4.395,16.397l0.01 0z"/>
   </g>
  </g>
  <path fill="none" d="M207.298 27.894c-0.11,-0.063 -0.222,-0.122 -0.337,-0.177 -4.975,-2.38 -9.714,-5.334 -14.858,-7.149 -4.647,-1.639 -11.454,-2.699 -17.288,-4.719 -2.277,-0.789 -4.556,-1.589 -6.82,-2.415l-0.004 -0.03 -9.999 -4.08 -0.175 -0.072c-0.614,-0.28 -1.553,-1.207 -2.512,-1.889 -0.494,-0.369 -0.613,-0.563 -1.038,-0.905 -2.856,-2.299 -5.606,-5.635 -9.574,-5.641 -0.901,-0.002 -1.04,-0.123 -1.779,-0.163l-7.601 -0.17c-5.892,-0.486 -12.055,-0.501 -18.06,-0.477 -5.087,0.02 -9.557,0.063 -14.567,0.477 -2.529,0.209 -4.996,0.029 -7.6,0.17 -0.739,0.04 -0.878,0.161 -1.779,0.163 -3.968,0.006 -6.718,3.342 -9.575,5.641 -0.424,0.342 -0.543,0.536 -1.037,0.905 -0.741,0.527 -1.471,1.2 -2.047,1.608 -0.17,0.121 -0.326,0.218 -0.465,0.281l-10.174 4.152 -0.003 0.03c-2.265,0.826 -4.544,1.626 -6.821,2.415 -5.834,2.02 -12.641,3.08 -17.288,4.719 -5.144,1.815 -9.883,4.769 -14.858,7.149 -0.212,0.101 -0.412,0.215 -0.605,0.339 -0.909,0.583 -1.664,1.379 -2.651,2.001 -11.263,7.099 -18.243,27.467 -21.401,39.215 -1.569,5.839 -1.98,12.983 -2.969,19.04 -0.5,3.067 -1.172,6.193 -1.752,9.253 -0.585,3.095 -0.872,6.493 -1.288,9.631 -0.406,0.268 -0.327,-0.023 -0.308,0.899l-0.065 1.854 0 8.783c0.041,1.018 0.102,1.813 0.186,2.164 1.125,0.477 3.706,0.514 5.07,0.712 7.662,1.114 9.041,0.828 15.791,1.554l21.547 1.349c-0.015,-1.623 0.547,-10.725 0.578,-13.424l-0.603 -0.316 -0.07 -0.036c0,-4.476 -0.011,-9.226 -0.011,-13.7 1.678,4.247 3.328,18.944 3.789,24.023 0.735,8.116 1.826,16.186 2.512,24.347 0.348,4.137 0.874,8.269 1.009,12.419l0.653 12.776c0.396,4.199 0.208,8.934 0.274,13.179 0.032,2.062 0.194,4.007 0.186,6.13 -0.007,2.226 -0.172,4.349 -0.196,6.512 -0.051,4.469 -0.054,8.634 -0.319,13.111 -0.68,11.475 -1.257,26.076 -3.267,37.02 -0.966,5.407 -2.177,11.944 -2.754,17.389 -0.258,2.432 -0.827,10.057 -1.468,11.951 -0.68,2.01 -0.163,3.658 -0.568,5.77 -0.342,1.785 -0.742,3.812 -1.164,5.568 -0.463,1.93 -1.435,3.647 0.397,4.966 4.276,1.054 8.552,2.108 13.913,3.017 5.36,0.909 11.804,1.672 18.03,2.048 6.226,0.375 12.232,0.363 21.568,0.476 9.335,0.112 21.999,0.351 32.523,0.382 10.525,0.032 18.909,-0.144 26.242,-0.419 7.333,-0.275 13.615,-0.65 19.058,-1.151 5.443,-0.501 10.048,-1.126 13.829,-1.873 3.78,-0.746 6.736,-1.613 9.693,-2.48 1.832,-1.319 0.86,-3.036 0.397,-4.966 -0.422,-1.756 -0.822,-3.783 -1.164,-5.568 -0.405,-2.112 0.112,-3.76 -0.568,-5.77 -0.641,-1.894 -1.21,-9.519 -1.468,-11.951 -0.577,-5.445 -1.788,-11.982 -2.754,-17.389 -2.01,-10.944 -2.587,-25.545 -3.267,-37.02 -0.265,-4.477 -0.268,-8.642 -0.319,-13.111 -0.024,-2.163 -0.189,-4.286 -0.196,-6.512 -0.008,-2.123 0.154,-4.068 0.186,-6.13 0.066,-4.245 -0.122,-8.98 0.274,-13.179l0.653 -12.776c0.135,-4.15 0.661,-8.282 1.009,-12.419 0.686,-8.161 1.777,-16.231 2.512,-24.347 0.461,-5.079 1.889,-19.043 3.568,-23.29 0,4.474 -0.105,8.584 -0.105,13.06l0 0 -0.416 0.247c-0.004,0.882 0.338,12.091 0.604,13.423l21.579 -1.336c6.75,-0.726 8.129,-0.44 15.791,-1.554 1.364,-0.198 3.945,-0.235 5.07,-0.712 0.084,-0.351 0.145,-1.146 0.186,-2.164l0 -8.783 -0.065 -1.854c0.014,-0.687 0.062,-0.7 -0.083,-0.774 -0.05,-0.025 -0.122,-0.057 -0.225,-0.125 -0.416,-3.138 -0.703,-6.536 -1.288,-9.631 -0.58,-3.06 -1.252,-6.186 -1.752,-9.253 -0.989,-6.057 -1.4,-13.201 -2.969,-19.04 -3.158,-11.748 -10.138,-32.116 -21.401,-39.215 -1.057,-0.665 -1.895,-1.576 -2.919,-2.163z"/>
 </g>
</svg>
