<?xml version="1.0" encoding="UTF-8"?>
<!DOCTYPE svg PUBLIC "-//W3C//DTD SVG 1.1//EN" "http://www.w3.org/Graphics/SVG/1.1/DTD/svg11.dtd">
<!-- Creator: CorelDRAW -->
<svg xmlns="http://www.w3.org/2000/svg" xml:space="preserve" width="181px" height="149px" version="1.1" shape-rendering="geometricPrecision" text-rendering="geometricPrecision" image-rendering="optimizeQuality" fill-rule="evenodd" clip-rule="evenodd"
viewBox="0 0 205.498 169.387"
 xmlns:xlink="http://www.w3.org/1999/xlink"
 xmlns:xodm="http://www.corel.com/coreldraw/odm/2003">
 <defs>
   <clipPath id="id0">
    <path d="M91.234 163.341c0.06,-0.29 0.117,-0.718 0.209,-2.252 0.091,-1.534 0.216,-4.174 0.518,-9.369 0.303,-5.195 0.782,-12.944 1.164,-18.604 0.382,-5.659 0.667,-9.229 1.038,-13.175 0.37,-3.946 0.826,-8.268 1.397,-12.773 0.57,-4.505 1.254,-9.192 2.132,-14.518 0.879,-5.326 1.95,-11.291 2.766,-15.197 0.815,-3.906 1.374,-5.753 1.733,-6.921 0.358,-1.167 0.516,-1.655 0.64,-1.921 0.123,-0.267 0.212,-0.313 0.296,-0.305 0.084,0.008 0.164,0.069 0.266,0.183 0.103,0.113 0.228,0.278 0.391,0.627 0.163,0.349 0.362,0.88 0.684,1.602 0.321,0.721 0.764,1.632 1.146,2.525 0.381,0.893 0.7,1.768 0.836,2.443 0.135,0.674 0.087,1.147 0.127,1.679 0.04,0.532 0.168,1.122 0.504,1.619 0.337,0.498 0.881,0.903 1.195,1.44 0.314,0.538 0.396,1.208 0.602,2.158 0.205,0.951 0.533,2.183 0.646,3.113 0.112,0.929 0.009,1.556 -0.098,2.148 -0.106,0.591 -0.218,1.148 -0.101,1.705 0.117,0.557 0.462,1.116 0.865,1.635 0.404,0.519 0.866,0.998 1.149,1.313 0.284,0.315 0.39,0.466 0.491,0.609 0.101,0.142 0.198,0.276 0.351,0.879 0.152,0.603 0.36,1.675 0.439,2.419 0.078,0.745 0.027,1.161 -0.003,1.576 -0.03,0.415 -0.039,0.828 -0.073,1.354 -0.034,0.526 -0.094,1.165 -0.085,1.751 0.008,0.586 0.085,1.119 0.46,1.91 0.375,0.791 1.048,1.84 1.685,2.689 0.637,0.848 1.239,1.495 1.643,1.902 0.404,0.407 0.611,0.574 0.797,0.87 0.186,0.296 0.351,0.72 0.488,1.263 0.137,0.544 0.246,1.205 0.304,1.972 0.058,0.767 0.067,1.64 0.054,2.608 -0.013,0.968 -0.047,2.031 0.15,2.999 0.197,0.968 0.624,1.84 1.101,2.577 0.476,0.738 1,1.339 1.389,1.826 0.39,0.488 0.644,0.862 0.856,1.23 0.213,0.367 0.384,0.729 0.555,1.154 0.171,0.425 0.342,0.913 0.472,1.479 0.13,0.566 0.218,1.21 0.339,1.795 0.121,0.584 0.275,1.108 0.375,1.699 0.1,0.59 0.145,1.246 0.32,2.204 0.174,0.958 0.476,2.218 0.678,3.273 0.203,1.055 0.305,1.904 0.416,2.657 0.112,0.753 0.231,1.409 0.325,2.284 0.094,0.875 0.163,1.97 0.294,2.774 0.131,0.804 0.325,1.317 0.465,2.09 0.14,0.772 0.225,1.805 0.299,2.412 0.074,0.607 0.137,0.79 0.288,0.952 0.104,0.112 0.251,0.215 0.437,0.32 -0.079,-0.368 -0.154,-0.732 -0.127,-0.999 0.028,-0.278 0.168,-0.45 0.332,-0.556 0.164,-0.105 0.352,-0.145 0.75,-0.063 0.398,0.082 1.007,0.284 1.729,0.399 0.723,0.115 1.56,0.144 2.868,0.151 1.309,0.007 3.089,-0.007 5.568,-0.327 2.479,-0.319 5.657,-0.943 8.788,-1.599 3.132,-0.656 6.217,-1.344 9.657,-2.107 3.44,-0.762 7.234,-1.599 10.248,-2.124 3.014,-0.525 5.249,-0.737 8.16,-0.854 2.912,-0.118 6.502,-0.139 10.137,0.024 3.635,0.163 7.316,0.511 9.976,0.862 2.66,0.351 4.298,0.706 5.688,1.227 1.391,0.522 2.533,1.21 3.226,1.734 0.693,0.524 0.938,0.884 1.054,1.193 0.116,0.309 0.104,0.568 -0.007,0.887 -0.11,0.319 -0.318,0.698 -0.526,1.077 0.192,-0.063 0.354,-0.202 0.566,-0.399 0.232,-0.218 0.523,-0.509 0.64,-0.957 0.116,-0.447 0.059,-1.052 0.065,-2.577 0.006,-1.525 0.074,-3.972 0.052,-6.694 -0.023,-2.724 -0.137,-5.723 -0.194,-7.553 -0.057,-1.831 -0.057,-2.492 -0.057,-3.427 0,-0.936 0,-2.144 -0.029,-3.276 -0.028,-1.132 -0.085,-2.187 -0.111,-3.279 -0.025,-1.092 -0.02,-2.221 -0.091,-4.009 -0.072,-1.787 -0.22,-4.234 -0.3,-6.212 -0.079,-1.979 -0.091,-3.49 -0.231,-7.51 -0.139,-4.02 -0.407,-10.55 -0.929,-16.996 -0.522,-6.446 -1.297,-12.81 -2.278,-18.854 -0.981,-6.045 -2.167,-11.77 -3.341,-17.21 -1.175,-5.44 -2.338,-10.594 -3.867,-15.864 -1.528,-5.268 -3.421,-10.651 -5.246,-15.498 -1.824,-4.847 -3.581,-9.158 -4.618,-11.657 -1.038,-2.499 -1.357,-3.186 -1.494,-3.631 -0.137,-0.445 -0.092,-0.647 0.009,-0.803 0.102,-0.155 0.258,-0.263 0.386,-0.349 0.014,-0.01 0.028,-0.019 0.041,-0.029 -0.042,-0.002 -0.088,-0.005 -0.144,-0.008 -0.105,-0.005 -0.243,-0.013 -0.693,-0.048 -0.449,-0.035 -1.21,-0.098 -2.217,-0.107 -1.008,-0.008 -2.262,0.038 -3.577,0.132 -1.316,0.095 -2.692,0.24 -4.839,0.609 -2.148,0.368 -5.068,0.962 -7.478,1.498 -2.41,0.535 -4.311,1.014 -6.805,1.509 -2.494,0.494 -5.581,1.003 -8.679,1.418 -3.098,0.414 -6.208,0.733 -9.971,1.076 -3.764,0.341 -8.181,0.707 -11.872,0.965 -3.692,0.259 -6.657,0.41 -9.367,0.559 -2.711,0.148 -5.167,0.292 -7.957,0.403 -2.79,0.11 -5.915,0.186 -9.017,0.251 -3.102,0.064 -6.181,0.117 -9.116,0.11 -2.935,-0.008 -5.725,-0.076 -8.341,-0.137 -2.615,-0.061 -5.056,-0.114 -7.698,-0.194 -2.642,-0.08 -5.486,-0.186 -8.975,-0.285 -3.49,-0.099 -7.626,-0.19 -12.01,-0.217 -4.383,-0.026 -9.013,0.012 -12.845,0.008 -3.832,-0.004 -6.865,-0.049 -10.876,-0.205 -4.011,-0.156 -8.998,-0.422 -12.585,-0.69 -3.587,-0.268 -5.773,-0.538 -7.362,-0.856 -1.59,-0.318 -2.583,-0.683 -3.577,-1.049 0.044,0.064 0.021,0.188 -0.027,0.625 -0.062,0.551 -0.164,1.597 -0.449,3.521 -0.286,1.925 -0.753,4.728 -1.058,6.779 -0.305,2.052 -0.448,3.352 -0.79,5.493 -0.342,2.141 -0.884,5.124 -1.32,7.752 -0.436,2.629 -0.767,4.904 -1.029,6.823 -0.263,1.919 -0.457,3.481 -0.636,5.294 -0.18,1.814 -0.345,3.878 -0.525,6.376 -0.18,2.497 -0.373,5.428 -0.567,8.701 -0.194,3.273 -0.388,6.888 -0.53,10.743 -0.143,3.855 -0.234,7.949 -0.206,12.14 0.029,4.192 0.177,8.48 0.468,12.648 0.291,4.169 0.724,8.217 1.009,11.855 0.285,3.638 0.422,6.865 0.485,10.435 0.063,3.57 0.051,7.481 0.091,11.969 0.04,4.488 0.131,9.552 0.223,13.777 0.091,4.225 0.182,7.612 0.266,9.945 0.084,2.332 0.162,3.609 0.193,4.373 0.031,0.764 0.017,1.015 0.027,2.23 0.01,1.214 0.044,3.393 0.078,4.946 0.035,1.554 0.069,2.484 0.137,3.037 0.068,0.553 0.171,0.73 0.482,1.055 0.311,0.325 0.83,0.798 2.632,1.177 1.802,0.38 4.886,0.665 7.829,0.918 2.942,0.254 5.742,0.476 10.492,0.73 4.75,0.254 11.451,0.539 16.4,0.753 4.95,0.214 8.149,0.356 10.954,0.382 2.806,0.026 5.218,-0.066 7.656,-0.143 2.438,-0.077 4.901,-0.139 7.25,-0.216 2.35,-0.077 4.585,-0.168 7.735,-0.565 3.151,-0.396 7.217,-1.098 9.757,-1.616 2.54,-0.519 3.556,-0.856 4.448,-1.309 0.892,-0.453 1.662,-1.024 2.078,-1.386 0.417,-0.362 0.479,-0.516 0.539,-0.807z"/>
   </clipPath>
    <clipPath id="id1">
     <path d="M126.868 7.208c-3.692,0.259 -6.657,0.41 -9.367,0.559 -2.711,0.148 -5.167,0.292 -7.957,0.403 -2.79,0.11 -5.915,0.186 -9.017,0.251l-0.168 0.003 -0.203 0.004 -0.658 0.014 -0.07 0.001 -0.359 0.007 -0.209 0.004 -0.131 0.003 -0.253 0.004 -0.26 0.005 -0.531 0.009 -0.079 0.002 -0.276 0.004 -0.23 0.004 -0.357 0.006 -0.115 0.002 -0.088 0.001 -0.101 0.001 -0.118 0.002 -0.783 0.01 -0.066 0.001c0.077,0.533 0.157,1.09 0.241,1.678 0.521,3.612 1.205,8.363 1.612,11.976 0.408,3.612 0.539,6.086 1.088,9.846 0.549,3.758 1.516,8.803 2.362,13.439 0.846,4.636 1.571,8.864 2.128,11.482 0.557,2.618 0.946,3.625 1.265,4.398 0.319,0.772 0.568,1.31 0.72,1.7 0.152,0.39 0.206,0.631 0.184,0.807 -0.021,0.175 -0.12,0.285 -0.256,0.446 -0.135,0.161 -0.307,0.373 -0.481,0.599 -0.173,0.226 -0.349,0.466 -0.581,1.057 -0.233,0.592 -0.523,1.535 -0.813,2.478l0.001 -0.001c0.014,-0.019 0.028,-0.034 0.041,-0.047l0.006 -0.006 0.009 -0.009 0.004 -0.004 0.005 -0.003 0.011 -0.008 0.001 -0.001 0.023 -0.014 0.005 -0.002 0.001 -0.001 0.01 -0.004 0.022 -0.006 0.001 0 0.004 0 0.003 -0.001 0.005 -0.001 0.007 0 0.002 0 0.005 -0.001 0.004 0 0.005 0.001 0.003 0 0.004 0 0.004 0c0.084,0.008 0.164,0.069 0.266,0.183 0.103,0.113 0.228,0.278 0.391,0.627 0.163,0.349 0.362,0.88 0.684,1.602 0.321,0.721 0.764,1.632 1.146,2.525 0.381,0.893 0.7,1.768 0.836,2.443 0.135,0.674 0.087,1.147 0.127,1.679 0.04,0.532 0.168,1.122 0.504,1.619 0.337,0.498 0.881,0.903 1.195,1.44 0.314,0.538 0.396,1.208 0.602,2.158 0.205,0.951 0.533,2.183 0.646,3.113 0.112,0.929 0.009,1.556 -0.098,2.148 -0.106,0.591 -0.218,1.148 -0.101,1.705 0.117,0.557 0.462,1.116 0.865,1.635 0.404,0.519 0.866,0.998 1.149,1.313 0.284,0.315 0.39,0.466 0.491,0.609 0.101,0.142 0.198,0.276 0.351,0.879 0.152,0.603 0.36,1.675 0.439,2.419 0.078,0.745 0.027,1.161 -0.003,1.576 -0.03,0.415 -0.039,0.828 -0.073,1.354 -0.034,0.526 -0.094,1.165 -0.085,1.751 0.008,0.586 0.085,1.119 0.46,1.91 0.375,0.791 1.048,1.84 1.685,2.689 0.637,0.848 1.239,1.495 1.643,1.902 0.404,0.407 0.611,0.574 0.797,0.87 0.186,0.296 0.351,0.72 0.488,1.263 0.137,0.544 0.246,1.205 0.304,1.972 0.058,0.767 0.067,1.64 0.054,2.608 -0.013,0.968 -0.047,2.031 0.15,2.999 0.197,0.968 0.624,1.84 1.101,2.577 0.476,0.738 1,1.339 1.389,1.826 0.39,0.488 0.644,0.862 0.856,1.23 0.213,0.367 0.384,0.729 0.555,1.154 0.171,0.425 0.342,0.913 0.472,1.479 0.13,0.566 0.218,1.21 0.339,1.795 0.121,0.584 0.275,1.108 0.375,1.699 0.1,0.59 0.145,1.246 0.32,2.204 0.174,0.958 0.476,2.218 0.678,3.273 0.203,1.055 0.305,1.904 0.416,2.657 0.112,0.753 0.231,1.409 0.325,2.284 0.094,0.875 0.163,1.97 0.294,2.774 0.131,0.804 0.325,1.317 0.465,2.09 0.14,0.772 0.225,1.805 0.299,2.412 0.074,0.607 0.137,0.79 0.288,0.952l0.005 0.005 0.005 0.006 0.005 0.005 0.01 0.01 0.006 0.005 0.015 0.016 0.012 0.01 0.005 0.005 0.006 0.005 0.005 0.006 0.006 0.005 0.012 0.01 0.012 0.01 0.006 0.005 0.006 0.005 0.013 0.01 0.006 0.005 0.019 0.015 0.007 0.005 0.007 0.005 0.02 0.015 0.007 0.005 0.007 0.005 0.028 0.02 0.014 0.009 0.008 0.005 0.015 0.01 0.015 0.01 0.015 0.01 0.008 0.005 0.016 0.009 0.008 0.005 0.008 0.005 0.016 0.01 0.016 0.01 0.025 0.014 0.009 0.006 0.008 0.004 0.009 0.005 0.009 0.005 0.008 0.005c-0.079,-0.368 -0.154,-0.732 -0.127,-0.999 0.028,-0.278 0.168,-0.45 0.332,-0.556 0.164,-0.105 0.352,-0.145 0.75,-0.063 0.398,0.082 1.007,0.284 1.729,0.399 0.723,0.115 1.56,0.144 2.868,0.151 1.309,0.007 3.089,-0.007 5.568,-0.327 2.479,-0.319 5.657,-0.943 8.788,-1.599 3.132,-0.656 6.217,-1.344 9.657,-2.107 3.44,-0.762 7.234,-1.599 10.248,-2.124 3.014,-0.525 5.249,-0.737 8.16,-0.854 2.912,-0.118 6.502,-0.139 10.137,0.024 3.635,0.163 7.316,0.511 9.976,0.862 2.66,0.351 4.298,0.706 5.688,1.227 1.391,0.522 2.533,1.21 3.226,1.734 0.693,0.524 0.938,0.884 1.054,1.193 0.116,0.309 0.104,0.568 -0.007,0.887l-0.005 0.015 -0.011 0.031 -0.006 0.015 -0.011 0.031 -0.012 0.03 -0.02 0.048 -0.006 0.015 -0.014 0.033 -0.014 0.032 -0.008 0.016 -0.022 0.049 -0.015 0.033 -0.008 0.017 -0.032 0.067 -0.008 0.016 -0.026 0.051 -0.017 0.034 -0.017 0.035 -0.018 0.034 -0.055 0.104c-0.064,0.123 -0.132,0.246 -0.201,0.371l0.036 -0.012 0.026 -0.011 0.017 -0.008 0.026 -0.012 0.026 -0.013 0.009 -0.005 0.025 -0.014 0.025 -0.016 0.017 -0.01 0.026 -0.018c0.059,-0.04 0.119,-0.088 0.182,-0.143l0.092 -0.083 0.039 -0.036 0.01 -0.009 0.01 -0.009c0.232,-0.218 0.523,-0.509 0.64,-0.957 0.116,-0.447 0.059,-1.052 0.065,-2.577 0.006,-1.525 0.074,-3.972 0.052,-6.694 -0.023,-2.724 -0.137,-5.723 -0.194,-7.553 -0.057,-1.831 -0.057,-2.492 -0.057,-3.427 0,-0.936 0,-2.144 -0.029,-3.276 -0.028,-1.132 -0.085,-2.187 -0.111,-3.279 -0.025,-1.092 -0.02,-2.221 -0.091,-4.009 -0.072,-1.787 -0.22,-4.234 -0.3,-6.212 -0.079,-1.979 -0.091,-3.49 -0.231,-7.51 -0.139,-4.02 -0.407,-10.55 -0.929,-16.996 -0.522,-6.446 -1.297,-12.81 -2.278,-18.854 -0.981,-6.045 -2.167,-11.77 -3.341,-17.21 -1.175,-5.44 -2.338,-10.594 -3.867,-15.864 -1.528,-5.268 -3.421,-10.651 -5.246,-15.498 -1.824,-4.847 -3.581,-9.158 -4.618,-11.657 -1.038,-2.499 -1.357,-3.186 -1.494,-3.631 -0.137,-0.445 -0.092,-0.647 0.009,-0.803 0.102,-0.155 0.258,-0.263 0.386,-0.349 0.014,-0.01 0.028,-0.019 0.041,-0.029 -0.042,-0.002 -0.088,-0.005 -0.144,-0.008 -0.105,-0.005 -0.243,-0.013 -0.693,-0.048 -0.449,-0.035 -1.21,-0.098 -2.217,-0.107 -1.008,-0.008 -2.262,0.038 -3.577,0.132 -1.316,0.095 -2.692,0.24 -4.839,0.609 -2.148,0.368 -5.068,0.962 -7.478,1.498 -2.41,0.535 -4.311,1.014 -6.805,1.509 -2.494,0.494 -5.581,1.003 -8.679,1.418 -3.098,0.414 -6.208,0.733 -9.971,1.076 -3.764,0.341 -8.181,0.707 -11.872,0.965z"/>
    </clipPath>
    <clipPath id="id2">
     <path d="M91.234 163.341c0.06,-0.29 0.117,-0.718 0.209,-2.252 0.091,-1.534 0.216,-4.174 0.518,-9.369 0.303,-5.195 0.782,-12.944 1.164,-18.604 0.382,-5.659 0.667,-9.229 1.038,-13.175 0.37,-3.946 0.826,-8.268 1.397,-12.773 0.57,-4.505 1.254,-9.192 2.132,-14.518 0.879,-5.326 1.95,-11.291 2.766,-15.197 0.815,-3.906 1.374,-5.753 1.733,-6.921 0.358,-1.167 0.516,-1.655 0.64,-1.921 0.123,-0.267 0.212,-0.313 0.296,-0.305 0.084,0.008 0.164,0.069 0.266,0.183 0.103,0.113 0.228,0.278 0.391,0.627 0.163,0.349 0.362,0.88 0.684,1.602 0.321,0.721 0.764,1.632 1.146,2.525 0.381,0.893 0.7,1.768 0.836,2.443 0.135,0.674 0.087,1.147 0.127,1.679 0.04,0.532 0.168,1.122 0.504,1.619 0.337,0.498 0.881,0.903 1.195,1.44 0.314,0.538 0.396,1.208 0.602,2.158 0.205,0.951 0.533,2.183 0.646,3.113 0.112,0.929 0.009,1.556 -0.098,2.148 -0.106,0.591 -0.218,1.148 -0.101,1.705 0.117,0.557 0.462,1.116 0.865,1.635 0.404,0.519 0.866,0.998 1.149,1.313 0.284,0.315 0.39,0.466 0.491,0.609 0.101,0.142 0.198,0.276 0.351,0.879 0.152,0.603 0.36,1.675 0.439,2.419 0.078,0.745 0.027,1.161 -0.003,1.576 -0.03,0.415 -0.039,0.828 -0.073,1.354 -0.034,0.526 -0.094,1.165 -0.085,1.751 0.008,0.586 0.085,1.119 0.46,1.91 0.375,0.791 1.048,1.84 1.685,2.689 0.637,0.848 1.239,1.495 1.643,1.902 0.404,0.407 0.611,0.574 0.797,0.87 0.186,0.296 0.351,0.72 0.488,1.263 0.137,0.544 0.246,1.205 0.304,1.972 0.058,0.767 0.067,1.64 0.054,2.608 -0.013,0.968 -0.047,2.031 0.15,2.999 0.197,0.968 0.624,1.84 1.101,2.577 0.476,0.738 1,1.339 1.389,1.826 0.39,0.488 0.644,0.862 0.856,1.23 0.213,0.367 0.384,0.729 0.555,1.154 0.171,0.425 0.342,0.913 0.472,1.479 0.13,0.566 0.218,1.21 0.339,1.795 0.121,0.584 0.275,1.108 0.375,1.699 0.1,0.59 0.145,1.246 0.32,2.204 0.174,0.958 0.476,2.218 0.678,3.273 0.203,1.055 0.305,1.904 0.416,2.657 0.112,0.753 0.231,1.409 0.325,2.284 0.094,0.875 0.163,1.97 0.294,2.774 0.131,0.804 0.325,1.317 0.465,2.09 0.14,0.772 0.225,1.805 0.299,2.412 0.074,0.607 0.137,0.79 0.288,0.952 0.104,0.112 0.251,0.215 0.437,0.32 -0.079,-0.368 -0.154,-0.732 -0.127,-0.999 0.028,-0.278 0.168,-0.45 0.332,-0.556 0.164,-0.105 0.352,-0.145 0.75,-0.063 0.398,0.082 1.007,0.284 1.729,0.399 0.723,0.115 1.56,0.144 2.868,0.151 1.309,0.007 3.089,-0.007 5.568,-0.327 2.479,-0.319 5.657,-0.943 8.788,-1.599 3.132,-0.656 6.217,-1.344 9.657,-2.107 3.44,-0.762 7.234,-1.599 10.248,-2.124 3.014,-0.525 5.249,-0.737 8.16,-0.854 2.912,-0.118 6.502,-0.139 10.137,0.024 3.635,0.163 7.316,0.511 9.976,0.862 2.66,0.351 4.298,0.706 5.688,1.227 1.391,0.522 2.533,1.21 3.226,1.734 0.693,0.524 0.938,0.884 1.054,1.193 0.116,0.309 0.104,0.568 -0.007,0.887 -0.11,0.319 -0.318,0.698 -0.526,1.077 0.192,-0.063 0.354,-0.202 0.566,-0.399 0.232,-0.218 0.523,-0.509 0.64,-0.957 0.116,-0.447 0.059,-1.052 0.065,-2.577 0.006,-1.525 0.074,-3.972 0.052,-6.694 -0.023,-2.724 -0.137,-5.723 -0.194,-7.553 -0.057,-1.831 -0.057,-2.492 -0.057,-3.427 0,-0.936 0,-2.144 -0.029,-3.276 -0.028,-1.132 -0.085,-2.187 -0.111,-3.279 -0.025,-1.092 -0.02,-2.221 -0.091,-4.009 -0.072,-1.787 -0.22,-4.234 -0.3,-6.212 -0.079,-1.979 -0.091,-3.49 -0.231,-7.51 -0.139,-4.02 -0.407,-10.55 -0.929,-16.996 -0.522,-6.446 -1.297,-12.81 -2.278,-18.854 -0.981,-6.045 -2.167,-11.77 -3.341,-17.21 -1.175,-5.44 -2.338,-10.594 -3.867,-15.864 -1.528,-5.268 -3.421,-10.651 -5.246,-15.498 -1.824,-4.847 -3.581,-9.158 -4.618,-11.657 -1.038,-2.499 -1.357,-3.186 -1.494,-3.631 -0.137,-0.445 -0.092,-0.647 0.009,-0.803 0.102,-0.155 0.258,-0.263 0.386,-0.349 0.014,-0.01 0.028,-0.019 0.041,-0.029 -0.042,-0.002 -0.088,-0.005 -0.144,-0.008 -0.105,-0.005 -0.243,-0.013 -0.693,-0.048 -0.449,-0.035 -1.21,-0.098 -2.217,-0.107 -1.008,-0.008 -2.262,0.038 -3.577,0.132 -1.316,0.095 -2.692,0.24 -4.839,0.609 -2.148,0.368 -5.068,0.962 -7.478,1.498 -2.41,0.535 -4.311,1.014 -6.805,1.509 -2.494,0.494 -5.581,1.003 -8.679,1.418 -3.098,0.414 -6.208,0.733 -9.971,1.076 -3.764,0.341 -8.181,0.707 -11.872,0.965 -3.692,0.259 -6.657,0.41 -9.367,0.559 -2.711,0.148 -5.167,0.292 -7.957,0.403 -2.79,0.11 -5.915,0.186 -9.017,0.251 -3.102,0.064 -6.181,0.117 -9.116,0.11 -2.935,-0.008 -5.725,-0.076 -8.341,-0.137 -2.615,-0.061 -5.056,-0.114 -7.698,-0.194 -2.642,-0.08 -5.486,-0.186 -8.975,-0.285 -3.49,-0.099 -7.626,-0.19 -12.01,-0.217 -4.383,-0.026 -9.013,0.012 -12.845,0.008 -3.832,-0.004 -6.865,-0.049 -10.876,-0.205 -4.011,-0.156 -8.998,-0.422 -12.585,-0.69 -3.587,-0.268 -5.773,-0.538 -7.362,-0.856 -1.59,-0.318 -2.583,-0.683 -3.577,-1.049 0.044,0.064 0.021,0.188 -0.027,0.625 -0.062,0.551 -0.164,1.597 -0.449,3.521 -0.286,1.925 -0.753,4.728 -1.058,6.779 -0.305,2.052 -0.448,3.352 -0.79,5.493 -0.342,2.141 -0.884,5.124 -1.32,7.752 -0.436,2.629 -0.767,4.904 -1.029,6.823 -0.263,1.919 -0.457,3.481 -0.636,5.294 -0.18,1.814 -0.345,3.878 -0.525,6.376 -0.18,2.497 -0.373,5.428 -0.567,8.701 -0.194,3.273 -0.388,6.888 -0.53,10.743 -0.143,3.855 -0.234,7.949 -0.206,12.14 0.029,4.192 0.177,8.48 0.468,12.648 0.291,4.169 0.724,8.217 1.009,11.855 0.285,3.638 0.422,6.865 0.485,10.435 0.063,3.57 0.051,7.481 0.091,11.969 0.04,4.488 0.131,9.552 0.223,13.777 0.091,4.225 0.182,7.612 0.266,9.945 0.084,2.332 0.162,3.609 0.193,4.373 0.031,0.764 0.017,1.015 0.027,2.23 0.01,1.214 0.044,3.393 0.078,4.946 0.035,1.554 0.069,2.484 0.137,3.037 0.068,0.553 0.171,0.73 0.482,1.055 0.311,0.325 0.83,0.798 2.632,1.177 1.802,0.38 4.886,0.665 7.829,0.918 2.942,0.254 5.742,0.476 10.492,0.73 4.75,0.254 11.451,0.539 16.4,0.753 4.95,0.214 8.149,0.356 10.954,0.382 2.806,0.026 5.218,-0.066 7.656,-0.143 2.438,-0.077 4.901,-0.139 7.25,-0.216 2.35,-0.077 4.585,-0.168 7.735,-0.565 3.151,-0.396 7.217,-1.098 9.757,-1.616 2.54,-0.519 3.556,-0.856 4.448,-1.309 0.892,-0.453 1.662,-1.024 2.078,-1.386 0.417,-0.362 0.479,-0.516 0.539,-0.807z"/>
    </clipPath>
    <clipPath id="id3">
     <path d="M66.397 7.915c-3.49,-0.099 -7.626,-0.19 -12.01,-0.217 -4.383,-0.026 -9.013,0.012 -12.845,0.008 -3.832,-0.004 -6.865,-0.049 -10.876,-0.205 -4.011,-0.156 -8.998,-0.422 -12.585,-0.69 -3.587,-0.268 -5.773,-0.538 -7.362,-0.856 -1.59,-0.318 -2.583,-0.683 -3.577,-1.049 0.044,0.064 0.021,0.188 -0.027,0.625 -0.062,0.551 -0.164,1.597 -0.449,3.521 -0.286,1.925 -0.753,4.728 -1.058,6.779 -0.305,2.052 -0.448,3.352 -0.79,5.493 -0.342,2.141 -0.884,5.124 -1.32,7.752 -0.436,2.629 -0.767,4.904 -1.029,6.823 -0.263,1.919 -0.457,3.481 -0.636,5.294 -0.18,1.814 -0.345,3.878 -0.525,6.376 -0.18,2.497 -0.373,5.428 -0.567,8.701 -0.194,3.273 -0.388,6.888 -0.53,10.743 -0.143,3.855 -0.234,7.949 -0.206,12.14 0.029,4.192 0.177,8.48 0.468,12.648 0.291,4.169 0.724,8.217 1.009,11.855 0.285,3.638 0.422,6.865 0.485,10.435 0.063,3.57 0.051,7.481 0.091,11.969 0.04,4.488 0.131,9.552 0.223,13.777 0.091,4.225 0.182,7.612 0.266,9.945 0.084,2.332 0.162,3.609 0.193,4.373 0.031,0.764 0.017,1.015 0.027,2.23 0.01,1.214 0.044,3.393 0.078,4.946 0.035,1.554 0.069,2.484 0.137,3.037 0.068,0.553 0.171,0.73 0.482,1.055 0.311,0.325 0.83,0.798 2.632,1.177 1.802,0.38 4.886,0.665 7.829,0.918 2.942,0.254 5.742,0.476 10.492,0.73 4.75,0.254 11.451,0.539 16.4,0.753 4.95,0.214 8.149,0.356 10.954,0.382 2.806,0.026 5.218,-0.066 7.656,-0.143 2.438,-0.077 4.901,-0.139 7.25,-0.216 2.35,-0.077 4.585,-0.168 7.735,-0.565 3.151,-0.396 7.217,-1.098 9.757,-1.616 2.54,-0.519 3.556,-0.856 4.448,-1.309 0.892,-0.453 1.662,-1.024 2.078,-1.386 0.417,-0.362 0.479,-0.516 0.539,-0.807 0.06,-0.29 0.117,-0.718 0.209,-2.252 0.091,-1.534 0.216,-4.174 0.518,-9.369 0.303,-5.195 0.782,-12.944 1.164,-18.604 0.382,-5.659 0.667,-9.229 1.038,-13.175 0.37,-3.946 0.826,-8.268 1.397,-12.773 0.57,-4.505 1.254,-9.192 2.132,-14.518 0.879,-5.326 1.95,-11.291 2.766,-15.197 0.815,-3.906 1.374,-5.753 1.733,-6.921 0.358,-1.167 0.516,-1.655 0.64,-1.921l0.003 -0.007 0.001 -0.002 0.008 -0.016 0.002 -0.005 0.003 -0.006 0.003 -0.005 0.002 -0.006 0.002 -0.004 0.004 -0.007 0.003 -0.005 0.002 -0.005 0 -0.001 0.003 -0.005 0.001 -0.002 0.002 -0.004 0.002 -0.003 0.002 -0.005 0.002 -0.002 0.001 -0.002 0.007 -0.013 0.002 -0.005 0.002 -0.003 0.002 -0.004 0.003 -0.005 0.011 -0.018 0 -0.001 0.003 -0.004 0.007 -0.011 0.006 -0.01 0.018 -0.026 0.003 -0.005c0.29,-0.943 0.58,-1.886 0.813,-2.478 0.232,-0.591 0.408,-0.831 0.581,-1.057 0.174,-0.226 0.346,-0.438 0.481,-0.599 0.136,-0.161 0.235,-0.271 0.256,-0.446 0.022,-0.176 -0.032,-0.417 -0.184,-0.807 -0.152,-0.39 -0.401,-0.928 -0.72,-1.7 -0.319,-0.773 -0.708,-1.78 -1.265,-4.398 -0.557,-2.618 -1.282,-6.846 -2.128,-11.482 -0.846,-4.636 -1.813,-9.681 -2.362,-13.439 -0.549,-3.76 -0.68,-6.234 -1.088,-9.846 -0.407,-3.613 -1.091,-8.364 -1.612,-11.976 -0.084,-0.588 -0.164,-1.145 -0.241,-1.678l-0.105 0.002 -0.092 0.001 -0.082 0.001 -0.164 0.002 -0.186 0.002 -0.056 0 -0.048 0.001 -0.206 0.002 -0.132 0.001 -0.185 0.002 -0.15 0.001 -0.008 0 -0.096 0.001 -0.083 0 -0.016 0 -0.162 0.001 -0.036 0 -0.142 0.001 -0.854 0.005 -0.012 0 -0.103 0 -0.036 0 -0.079 0 -0.06 0 -0.155 0.001 -0.502 0 -0.174 -0.001 -0.024 0 -0.113 0c-2.935,-0.008 -5.725,-0.076 -8.341,-0.137 -2.615,-0.061 -5.056,-0.114 -7.698,-0.194 -2.642,-0.08 -5.486,-0.186 -8.975,-0.285z"/>
    </clipPath>
    <clipPath id="id4">
     <path d="M91.234 163.341c0.06,-0.29 0.117,-0.718 0.209,-2.252 0.091,-1.534 0.216,-4.174 0.518,-9.369 0.303,-5.195 0.782,-12.944 1.164,-18.604 0.382,-5.659 0.667,-9.229 1.038,-13.175 0.37,-3.946 0.826,-8.268 1.397,-12.773 0.57,-4.505 1.254,-9.192 2.132,-14.518 0.879,-5.326 1.95,-11.291 2.766,-15.197 0.815,-3.906 1.374,-5.753 1.733,-6.921 0.358,-1.167 0.516,-1.655 0.64,-1.921 0.123,-0.267 0.212,-0.313 0.296,-0.305 0.084,0.008 0.164,0.069 0.266,0.183 0.103,0.113 0.228,0.278 0.391,0.627 0.163,0.349 0.362,0.88 0.684,1.602 0.321,0.721 0.764,1.632 1.146,2.525 0.381,0.893 0.7,1.768 0.836,2.443 0.135,0.674 0.087,1.147 0.127,1.679 0.04,0.532 0.168,1.122 0.504,1.619 0.337,0.498 0.881,0.903 1.195,1.44 0.314,0.538 0.396,1.208 0.602,2.158 0.205,0.951 0.533,2.183 0.646,3.113 0.112,0.929 0.009,1.556 -0.098,2.148 -0.106,0.591 -0.218,1.148 -0.101,1.705 0.117,0.557 0.462,1.116 0.865,1.635 0.404,0.519 0.866,0.998 1.149,1.313 0.284,0.315 0.39,0.466 0.491,0.609 0.101,0.142 0.198,0.276 0.351,0.879 0.152,0.603 0.36,1.675 0.439,2.419 0.078,0.745 0.027,1.161 -0.003,1.576 -0.03,0.415 -0.039,0.828 -0.073,1.354 -0.034,0.526 -0.094,1.165 -0.085,1.751 0.008,0.586 0.085,1.119 0.46,1.91 0.375,0.791 1.048,1.84 1.685,2.689 0.637,0.848 1.239,1.495 1.643,1.902 0.404,0.407 0.611,0.574 0.797,0.87 0.186,0.296 0.351,0.72 0.488,1.263 0.137,0.544 0.246,1.205 0.304,1.972 0.058,0.767 0.067,1.64 0.054,2.608 -0.013,0.968 -0.047,2.031 0.15,2.999 0.197,0.968 0.624,1.84 1.101,2.577 0.476,0.738 1,1.339 1.389,1.826 0.39,0.488 0.644,0.862 0.856,1.23 0.213,0.367 0.384,0.729 0.555,1.154 0.171,0.425 0.342,0.913 0.472,1.479 0.13,0.566 0.218,1.21 0.339,1.795 0.121,0.584 0.275,1.108 0.375,1.699 0.1,0.59 0.145,1.246 0.32,2.204 0.174,0.958 0.476,2.218 0.678,3.273 0.203,1.055 0.305,1.904 0.416,2.657 0.112,0.753 0.231,1.409 0.325,2.284 0.094,0.875 0.163,1.97 0.294,2.774 0.131,0.804 0.325,1.317 0.465,2.09 0.14,0.772 0.225,1.805 0.299,2.412 0.074,0.607 0.137,0.79 0.288,0.952 0.104,0.112 0.251,0.215 0.437,0.32 -0.079,-0.368 -0.154,-0.732 -0.127,-0.999 0.028,-0.278 0.168,-0.45 0.332,-0.556 0.164,-0.105 0.352,-0.145 0.75,-0.063 0.398,0.082 1.007,0.284 1.729,0.399 0.723,0.115 1.56,0.144 2.868,0.151 1.309,0.007 3.089,-0.007 5.568,-0.327 2.479,-0.319 5.657,-0.943 8.788,-1.599 3.132,-0.656 6.217,-1.344 9.657,-2.107 3.44,-0.762 7.234,-1.599 10.248,-2.124 3.014,-0.525 5.249,-0.737 8.16,-0.854 2.912,-0.118 6.502,-0.139 10.137,0.024 3.635,0.163 7.316,0.511 9.976,0.862 2.66,0.351 4.298,0.706 5.688,1.227 1.391,0.522 2.533,1.21 3.226,1.734 0.693,0.524 0.938,0.884 1.054,1.193 0.116,0.309 0.104,0.568 -0.007,0.887 -0.11,0.319 -0.318,0.698 -0.526,1.077 0.192,-0.063 0.354,-0.202 0.566,-0.399 0.232,-0.218 0.523,-0.509 0.64,-0.957 0.116,-0.447 0.059,-1.052 0.065,-2.577 0.006,-1.525 0.074,-3.972 0.052,-6.694 -0.023,-2.724 -0.137,-5.723 -0.194,-7.553 -0.057,-1.831 -0.057,-2.492 -0.057,-3.427 0,-0.936 0,-2.144 -0.029,-3.276 -0.028,-1.132 -0.085,-2.187 -0.111,-3.279 -0.025,-1.092 -0.02,-2.221 -0.091,-4.009 -0.072,-1.787 -0.22,-4.234 -0.3,-6.212 -0.079,-1.979 -0.091,-3.49 -0.231,-7.51 -0.139,-4.02 -0.407,-10.55 -0.929,-16.996 -0.522,-6.446 -1.297,-12.81 -2.278,-18.854 -0.981,-6.045 -2.167,-11.77 -3.341,-17.21 -1.175,-5.44 -2.338,-10.594 -3.867,-15.864 -1.528,-5.268 -3.421,-10.651 -5.246,-15.498 -1.824,-4.847 -3.581,-9.158 -4.618,-11.657 -1.038,-2.499 -1.357,-3.186 -1.494,-3.631 -0.137,-0.445 -0.092,-0.647 0.009,-0.803 0.102,-0.155 0.258,-0.263 0.386,-0.349 0.014,-0.01 0.028,-0.019 0.041,-0.029 -0.042,-0.002 -0.088,-0.005 -0.144,-0.008 -0.105,-0.005 -0.243,-0.013 -0.693,-0.048 -0.449,-0.035 -1.21,-0.098 -2.217,-0.107 -1.008,-0.008 -2.262,0.038 -3.577,0.132 -1.316,0.095 -2.692,0.24 -4.839,0.609 -2.148,0.368 -5.068,0.962 -7.478,1.498 -2.41,0.535 -4.311,1.014 -6.805,1.509 -2.494,0.494 -5.581,1.003 -8.679,1.418 -3.098,0.414 -6.208,0.733 -9.971,1.076 -3.764,0.341 -8.181,0.707 -11.872,0.965 -3.692,0.259 -6.657,0.41 -9.367,0.559 -2.711,0.148 -5.167,0.292 -7.957,0.403 -2.79,0.11 -5.915,0.186 -9.017,0.251 -3.102,0.064 -6.181,0.117 -9.116,0.11 -2.935,-0.008 -5.725,-0.076 -8.341,-0.137 -2.615,-0.061 -5.056,-0.114 -7.698,-0.194 -2.642,-0.08 -5.486,-0.186 -8.975,-0.285 -3.49,-0.099 -7.626,-0.19 -12.01,-0.217 -4.383,-0.026 -9.013,0.012 -12.845,0.008 -3.832,-0.004 -6.865,-0.049 -10.876,-0.205 -4.011,-0.156 -8.998,-0.422 -12.585,-0.69 -3.587,-0.268 -5.773,-0.538 -7.362,-0.856 -1.59,-0.318 -2.583,-0.683 -3.577,-1.049 0.044,0.064 0.021,0.188 -0.027,0.625 -0.062,0.551 -0.164,1.597 -0.449,3.521 -0.286,1.925 -0.753,4.728 -1.058,6.779 -0.305,2.052 -0.448,3.352 -0.79,5.493 -0.342,2.141 -0.884,5.124 -1.32,7.752 -0.436,2.629 -0.767,4.904 -1.029,6.823 -0.263,1.919 -0.457,3.481 -0.636,5.294 -0.18,1.814 -0.345,3.878 -0.525,6.376 -0.18,2.497 -0.373,5.428 -0.567,8.701 -0.194,3.273 -0.388,6.888 -0.53,10.743 -0.143,3.855 -0.234,7.949 -0.206,12.14 0.029,4.192 0.177,8.48 0.468,12.648 0.291,4.169 0.724,8.217 1.009,11.855 0.285,3.638 0.422,6.865 0.485,10.435 0.063,3.57 0.051,7.481 0.091,11.969 0.04,4.488 0.131,9.552 0.223,13.777 0.091,4.225 0.182,7.612 0.266,9.945 0.084,2.332 0.162,3.609 0.193,4.373 0.031,0.764 0.017,1.015 0.027,2.23 0.01,1.214 0.044,3.393 0.078,4.946 0.035,1.554 0.069,2.484 0.137,3.037 0.068,0.553 0.171,0.73 0.482,1.055 0.311,0.325 0.83,0.798 2.632,1.177 1.802,0.38 4.886,0.665 7.829,0.918 2.942,0.254 5.742,0.476 10.492,0.73 4.75,0.254 11.451,0.539 16.4,0.753 4.95,0.214 8.149,0.356 10.954,0.382 2.806,0.026 5.218,-0.066 7.656,-0.143 2.438,-0.077 4.901,-0.139 7.25,-0.216 2.35,-0.077 4.585,-0.168 7.735,-0.565 3.151,-0.396 7.217,-1.098 9.757,-1.616 2.54,-0.519 3.556,-0.856 4.448,-1.309 0.892,-0.453 1.662,-1.024 2.078,-1.386 0.417,-0.362 0.479,-0.516 0.539,-0.807z"/>
    </clipPath>
      <linearGradient id="id5" gradientUnits="userSpaceOnUse" x1="1.494" y1="100.463" x2="7.211" y2="101.191">
       <stop offset="0" stop-opacity="1" stop-color="#0062D9"/>
       <stop offset="1" stop-opacity="1" stop-color="#0062D9"/>
      </linearGradient>
      <linearGradient id="id6" gradientUnits="userSpaceOnUse" x1="0.766" y1="106.181" x2="6.483" y2="106.909">
       <stop offset="0" stop-opacity="0.729412" stop-color="#0062D9"/>
       <stop offset="1" stop-opacity="0.729412" stop-color="#0062D9"/>
      </linearGradient>
      <linearGradient id="id7" gradientUnits="userSpaceOnUse" x1="0.038" y1="111.898" x2="5.755" y2="112.626">
       <stop offset="0" stop-opacity="0.470588" stop-color="#0062D9"/>
       <stop offset="1" stop-opacity="0.470588" stop-color="#0062D9"/>
      </linearGradient>
      <linearGradient id="id8" gradientUnits="userSpaceOnUse" x1="-0.69" y1="117.616" x2="5.028" y2="118.344">
       <stop offset="0" stop-opacity="0.2" stop-color="#0062D9"/>
       <stop offset="1" stop-opacity="0.2" stop-color="#0062D9"/>
      </linearGradient>
      <linearGradient id="id9" gradientUnits="userSpaceOnUse" x1="254.702" y1="667.352" x2="409.078" y2="687.005">
       <stop offset="0" stop-opacity="1" stop-color="#0062D9"/>
       <stop offset="1" stop-opacity="1" stop-color="#0062D9"/>
      </linearGradient>
      <linearGradient id="id10" gradientUnits="userSpaceOnUse" x1="234.322" y1="827.446" x2="388.697" y2="847.098">
       <stop offset="0" stop-opacity="0.729412" stop-color="#0062D9"/>
       <stop offset="1" stop-opacity="0.729412" stop-color="#0062D9"/>
      </linearGradient>
      <linearGradient id="id11" gradientUnits="userSpaceOnUse" x1="213.941" y1="987.539" x2="368.317" y2="1007.192">
       <stop offset="0" stop-opacity="0.470588" stop-color="#0062D9"/>
       <stop offset="1" stop-opacity="0.470588" stop-color="#0062D9"/>
      </linearGradient>
      <linearGradient id="id12" gradientUnits="userSpaceOnUse" x1="193.56" y1="1147.633" x2="347.936" y2="1167.285">
       <stop offset="0" stop-opacity="0.2" stop-color="#0062D9"/>
       <stop offset="1" stop-opacity="0.2" stop-color="#0062D9"/>
      </linearGradient>
      <linearGradient id="id13" gradientUnits="userSpaceOnUse" x1="435.176" y1="527.639" x2="589.552" y2="547.292">
       <stop offset="0" stop-opacity="1" stop-color="#0062D9"/>
       <stop offset="1" stop-opacity="1" stop-color="#0062D9"/>
      </linearGradient>
      <linearGradient id="id14" gradientUnits="userSpaceOnUse" x1="414.796" y1="687.733" x2="569.172" y2="707.385">
       <stop offset="0" stop-opacity="0.729412" stop-color="#0062D9"/>
       <stop offset="1" stop-opacity="0.729412" stop-color="#0062D9"/>
      </linearGradient>
      <linearGradient id="id15" gradientUnits="userSpaceOnUse" x1="394.415" y1="847.826" x2="548.791" y2="867.479">
       <stop offset="0" stop-opacity="0.470588" stop-color="#0062D9"/>
       <stop offset="1" stop-opacity="0.470588" stop-color="#0062D9"/>
      </linearGradient>
      <linearGradient id="id16" gradientUnits="userSpaceOnUse" x1="374.034" y1="1007.92" x2="528.41" y2="1027.572">
       <stop offset="0" stop-opacity="0.2" stop-color="#0062D9"/>
       <stop offset="1" stop-opacity="0.2" stop-color="#0062D9"/>
      </linearGradient>
      <linearGradient id="id17" gradientUnits="userSpaceOnUse" x1="74.228" y1="807.065" x2="228.604" y2="826.718">
       <stop offset="0" stop-opacity="1" stop-color="#0062D9"/>
       <stop offset="1" stop-opacity="1" stop-color="#0062D9"/>
      </linearGradient>
      <linearGradient id="id18" gradientUnits="userSpaceOnUse" x1="7.211" y1="101.191" x2="12.929" y2="101.919">
       <stop offset="0" stop-opacity="0.8" stop-color="#0062D9"/>
       <stop offset="1" stop-opacity="0.8" stop-color="#0062D9"/>
      </linearGradient>
      <linearGradient id="id19" gradientUnits="userSpaceOnUse" x1="6.483" y1="106.909" x2="12.201" y2="107.637">
       <stop offset="0" stop-opacity="0.6" stop-color="#0062D9"/>
       <stop offset="1" stop-opacity="0.6" stop-color="#0062D9"/>
      </linearGradient>
      <linearGradient id="id20" gradientUnits="userSpaceOnUse" x1="5.755" y1="112.626" x2="11.473" y2="113.354">
       <stop offset="0" stop-opacity="0.4" stop-color="#0062D9"/>
       <stop offset="1" stop-opacity="0.4" stop-color="#0062D9"/>
      </linearGradient>
      <linearGradient id="id21" gradientUnits="userSpaceOnUse" x1="258.941" y1="-3351.897" x2="233.8" y2="-3154.409">
       <stop offset="0" stop-opacity="1" stop-color="#0062D9"/>
       <stop offset="1" stop-opacity="1" stop-color="#0062D9"/>
      </linearGradient>
      <linearGradient id="id22" gradientUnits="userSpaceOnUse" x1="202.387" y1="74.782" x2="196.993" y2="76.814">
       <stop offset="0" stop-opacity="1" stop-color="#0062D9"/>
       <stop offset="1" stop-opacity="1" stop-color="#0062D9"/>
      </linearGradient>
      <linearGradient id="id23" gradientUnits="userSpaceOnUse" x1="204.418" y1="80.176" x2="199.024" y2="82.207">
       <stop offset="0" stop-opacity="0.729412" stop-color="#0062D9"/>
       <stop offset="1" stop-opacity="0.729412" stop-color="#0062D9"/>
      </linearGradient>
      <linearGradient id="id24" gradientUnits="userSpaceOnUse" x1="206.449" y1="85.57" x2="201.055" y2="87.601">
       <stop offset="0" stop-opacity="0.470588" stop-color="#0062D9"/>
       <stop offset="1" stop-opacity="0.470588" stop-color="#0062D9"/>
      </linearGradient>
      <linearGradient id="id25" gradientUnits="userSpaceOnUse" x1="208.48" y1="90.964" x2="203.086" y2="92.995">
       <stop offset="0" stop-opacity="0.2" stop-color="#0062D9"/>
       <stop offset="1" stop-opacity="0.2" stop-color="#0062D9"/>
      </linearGradient>
      <linearGradient id="id26" gradientUnits="userSpaceOnUse" x1="87.242" y1="684.88" x2="-58.396" y2="739.725">
       <stop offset="0" stop-opacity="1" stop-color="#0062D9"/>
       <stop offset="1" stop-opacity="1" stop-color="#0062D9"/>
      </linearGradient>
      <linearGradient id="id27" gradientUnits="userSpaceOnUse" x1="144.118" y1="835.911" x2="-1.519" y2="890.756">
       <stop offset="0" stop-opacity="0.729412" stop-color="#0062D9"/>
       <stop offset="1" stop-opacity="0.729412" stop-color="#0062D9"/>
      </linearGradient>
      <linearGradient id="id28" gradientUnits="userSpaceOnUse" x1="200.994" y1="986.942" x2="55.357" y2="1041.787">
       <stop offset="0" stop-opacity="0.470588" stop-color="#0062D9"/>
       <stop offset="1" stop-opacity="0.470588" stop-color="#0062D9"/>
      </linearGradient>
      <linearGradient id="id29" gradientUnits="userSpaceOnUse" x1="257.871" y1="1137.973" x2="112.234" y2="1192.818">
       <stop offset="0" stop-opacity="0.2" stop-color="#0062D9"/>
       <stop offset="1" stop-opacity="0.2" stop-color="#0062D9"/>
      </linearGradient>
      <linearGradient id="id30" gradientUnits="userSpaceOnUse" x1="-120.666" y1="590.725" x2="-266.303" y2="645.57">
       <stop offset="0" stop-opacity="1" stop-color="#0062D9"/>
       <stop offset="1" stop-opacity="1" stop-color="#0062D9"/>
      </linearGradient>
      <linearGradient id="id31" gradientUnits="userSpaceOnUse" x1="-63.789" y1="741.756" x2="-209.427" y2="796.601">
       <stop offset="0" stop-opacity="0.729412" stop-color="#0062D9"/>
       <stop offset="1" stop-opacity="0.729412" stop-color="#0062D9"/>
      </linearGradient>
      <linearGradient id="id32" gradientUnits="userSpaceOnUse" x1="-6.913" y1="892.787" x2="-152.55" y2="947.632">
       <stop offset="0" stop-opacity="0.470588" stop-color="#0062D9"/>
       <stop offset="1" stop-opacity="0.470588" stop-color="#0062D9"/>
      </linearGradient>
      <linearGradient id="id33" gradientUnits="userSpaceOnUse" x1="49.963" y1="1043.818" x2="-95.674" y2="1098.663">
       <stop offset="0" stop-opacity="0.2" stop-color="#0062D9"/>
       <stop offset="1" stop-opacity="0.2" stop-color="#0062D9"/>
      </linearGradient>
      <linearGradient id="id34" gradientUnits="userSpaceOnUse" x1="295.149" y1="779.035" x2="149.512" y2="833.88">
       <stop offset="0" stop-opacity="1" stop-color="#0062D9"/>
       <stop offset="1" stop-opacity="1" stop-color="#0062D9"/>
      </linearGradient>
      <linearGradient id="id35" gradientUnits="userSpaceOnUse" x1="196.993" y1="76.814" x2="191.599" y2="78.845">
       <stop offset="0" stop-opacity="0.8" stop-color="#0062D9"/>
       <stop offset="1" stop-opacity="0.8" stop-color="#0062D9"/>
      </linearGradient>
      <linearGradient id="id36" gradientUnits="userSpaceOnUse" x1="199.024" y1="82.207" x2="193.63" y2="84.239">
       <stop offset="0" stop-opacity="0.6" stop-color="#0062D9"/>
       <stop offset="1" stop-opacity="0.6" stop-color="#0062D9"/>
      </linearGradient>
      <linearGradient id="id37" gradientUnits="userSpaceOnUse" x1="201.055" y1="87.601" x2="195.661" y2="89.633">
       <stop offset="0" stop-opacity="0.4" stop-color="#0062D9"/>
       <stop offset="1" stop-opacity="0.4" stop-color="#0062D9"/>
      </linearGradient>
      <linearGradient id="id38" gradientUnits="userSpaceOnUse" x1="-847.021" y1="-3224.281" x2="-776.859" y2="-3037.972">
       <stop offset="0" stop-opacity="1" stop-color="#0062D9"/>
       <stop offset="1" stop-opacity="1" stop-color="#0062D9"/>
      </linearGradient>
 </defs>
 <g id="VETORES">
  <metadata id="CorelCorpID_0Corel-Layer"/>
  <g>
  </g>
  <g clip-path="url(#id0)">
   <g id="_1763300030976">
    <g>
    </g>
   </g>
   <g clip-path="url(#id1)">
   </g>
   <g clip-path="url(#id2)">
    <path id="perna-direita" fill="none" d="M126.868 7.208c-3.692,0.259 -6.657,0.41 -9.367,0.559 -2.711,0.148 -5.167,0.292 -7.957,0.403 -2.79,0.11 -5.915,0.186 -9.017,0.251 -1.699,0.035 -3.39,0.067 -5.055,0.087 0.077,0.533 0.157,1.09 0.241,1.678 0.521,3.612 1.205,8.363 1.612,11.976 0.408,3.612 0.539,6.086 1.088,9.846 0.549,3.758 1.516,8.803 2.362,13.439 0.846,4.636 1.571,8.864 2.128,11.482 0.557,2.618 0.946,3.625 1.265,4.398 0.319,0.772 0.568,1.31 0.72,1.7 0.152,0.39 0.206,0.631 0.184,0.807 -0.021,0.175 -0.12,0.285 -0.256,0.446 -0.135,0.161 -0.307,0.373 -0.481,0.599 -0.173,0.226 -0.349,0.466 -0.581,1.057 -0.233,0.592 -0.523,1.535 -0.813,2.478 0.07,-0.094 0.129,-0.113 0.186,-0.108 0.084,0.008 0.164,0.069 0.266,0.183 0.103,0.113 0.228,0.278 0.391,0.627 0.163,0.349 0.362,0.88 0.684,1.602 0.321,0.721 0.764,1.632 1.146,2.525 0.381,0.893 0.7,1.768 0.836,2.443 0.135,0.674 0.087,1.147 0.127,1.679 0.04,0.532 0.168,1.122 0.504,1.619 0.337,0.498 0.881,0.903 1.195,1.44 0.314,0.538 0.396,1.208 0.602,2.158 0.205,0.951 0.533,2.183 0.646,3.113 0.112,0.929 0.009,1.556 -0.098,2.148 -0.106,0.591 -0.218,1.148 -0.101,1.705 0.117,0.557 0.462,1.116 0.865,1.635 0.404,0.519 0.866,0.998 1.149,1.313 0.284,0.315 0.39,0.466 0.491,0.609 0.101,0.142 0.198,0.276 0.351,0.879 0.152,0.603 0.36,1.675 0.439,2.419 0.078,0.745 0.027,1.161 -0.003,1.576 -0.03,0.415 -0.039,0.828 -0.073,1.354 -0.034,0.526 -0.094,1.165 -0.085,1.751 0.008,0.586 0.085,1.119 0.46,1.91 0.375,0.791 1.048,1.84 1.685,2.689 0.637,0.848 1.239,1.495 1.643,1.902 0.404,0.407 0.611,0.574 0.797,0.87 0.186,0.296 0.351,0.72 0.488,1.263 0.137,0.544 0.246,1.205 0.304,1.972 0.058,0.767 0.067,1.64 0.054,2.608 -0.013,0.968 -0.047,2.031 0.15,2.999 0.197,0.968 0.624,1.84 1.101,2.577 0.476,0.738 1,1.339 1.389,1.826 0.39,0.488 0.644,0.862 0.856,1.23 0.213,0.367 0.384,0.729 0.555,1.154 0.171,0.425 0.342,0.913 0.472,1.479 0.13,0.566 0.218,1.21 0.339,1.795 0.121,0.584 0.275,1.108 0.375,1.699 0.1,0.59 0.145,1.246 0.32,2.204 0.174,0.958 0.476,2.218 0.678,3.273 0.203,1.055 0.305,1.904 0.416,2.657 0.112,0.753 0.231,1.409 0.325,2.284 0.094,0.875 0.163,1.97 0.294,2.774 0.131,0.804 0.325,1.317 0.465,2.09 0.14,0.772 0.225,1.805 0.299,2.412 0.074,0.607 0.137,0.79 0.288,0.952 0.104,0.112 0.251,0.215 0.437,0.32 -0.079,-0.368 -0.154,-0.732 -0.127,-0.999 0.028,-0.278 0.168,-0.45 0.332,-0.556 0.164,-0.105 0.352,-0.145 0.75,-0.063 0.398,0.082 1.007,0.284 1.729,0.399 0.723,0.115 1.56,0.144 2.868,0.151 1.309,0.007 3.089,-0.007 5.568,-0.327 2.479,-0.319 5.657,-0.943 8.788,-1.599 3.132,-0.656 6.217,-1.344 9.657,-2.107 3.44,-0.762 7.234,-1.599 10.248,-2.124 3.014,-0.525 5.249,-0.737 8.16,-0.854 2.912,-0.118 6.502,-0.139 10.137,0.024 3.635,0.163 7.316,0.511 9.976,0.862 2.66,0.351 4.298,0.706 5.688,1.227 1.391,0.522 2.533,1.21 3.226,1.734 0.693,0.524 0.938,0.884 1.054,1.193 0.116,0.309 0.104,0.568 -0.007,0.887 -0.11,0.319 -0.318,0.698 -0.526,1.078 0.192,-0.064 0.354,-0.202 0.566,-0.4 0.232,-0.218 0.523,-0.509 0.64,-0.957 0.116,-0.447 0.059,-1.052 0.065,-2.577 0.006,-1.525 0.074,-3.972 0.052,-6.694 -0.023,-2.724 -0.137,-5.723 -0.194,-7.553 -0.057,-1.831 -0.057,-2.492 -0.057,-3.427 0,-0.936 0,-2.144 -0.029,-3.276 -0.028,-1.132 -0.085,-2.187 -0.111,-3.279 -0.025,-1.092 -0.02,-2.221 -0.091,-4.009 -0.072,-1.787 -0.22,-4.234 -0.3,-6.212 -0.079,-1.979 -0.091,-3.49 -0.231,-7.51 -0.139,-4.02 -0.407,-10.55 -0.929,-16.996 -0.522,-6.446 -1.297,-12.81 -2.278,-18.854 -0.981,-6.045 -2.167,-11.77 -3.341,-17.21 -1.175,-5.44 -2.338,-10.594 -3.867,-15.864 -1.528,-5.268 -3.421,-10.651 -5.246,-15.498 -1.824,-4.847 -3.581,-9.158 -4.618,-11.657 -1.038,-2.499 -1.357,-3.186 -1.494,-3.631 -0.137,-0.445 -0.092,-0.647 0.009,-0.803 0.102,-0.155 0.258,-0.263 0.386,-0.349 0.014,-0.01 0.028,-0.019 0.041,-0.029 -0.042,-0.002 -0.088,-0.005 -0.144,-0.008 -0.105,-0.005 -0.243,-0.013 -0.693,-0.048 -0.449,-0.035 -1.21,-0.098 -2.217,-0.107 -1.008,-0.008 -2.262,0.038 -3.577,0.132 -1.316,0.095 -2.692,0.24 -4.839,0.609 -2.148,0.368 -5.068,0.962 -7.478,1.498 -2.41,0.535 -4.311,1.014 -6.805,1.509 -2.494,0.494 -5.581,1.003 -8.679,1.418 -3.098,0.414 -6.208,0.733 -9.971,1.076 -3.764,0.341 -8.181,0.707 -11.872,0.965z"/>
    <g>
    </g>
   </g>
   <g clip-path="url(#id3)">
   </g>
   <g clip-path="url(#id4)">
    <path id="perna-esquerda" fill="none" d="M66.397 7.915c-3.49,-0.099 -7.626,-0.19 -12.01,-0.217 -4.383,-0.026 -9.013,0.012 -12.845,0.008 -3.832,-0.004 -6.865,-0.049 -10.876,-0.205 -4.011,-0.156 -8.998,-0.422 -12.585,-0.69 -3.587,-0.268 -5.773,-0.538 -7.362,-0.856 -1.59,-0.318 -2.583,-0.683 -3.577,-1.049 0.044,0.064 0.021,0.188 -0.027,0.625 -0.062,0.551 -0.164,1.597 -0.449,3.521 -0.286,1.925 -0.753,4.728 -1.058,6.779 -0.305,2.052 -0.448,3.352 -0.79,5.493 -0.342,2.141 -0.884,5.124 -1.32,7.752 -0.436,2.629 -0.767,4.904 -1.029,6.823 -0.263,1.919 -0.457,3.481 -0.636,5.294 -0.18,1.814 -0.345,3.878 -0.525,6.376 -0.18,2.497 -0.373,5.428 -0.567,8.701 -0.194,3.273 -0.388,6.888 -0.53,10.743 -0.143,3.855 -0.234,7.949 -0.206,12.14 0.029,4.192 0.177,8.48 0.468,12.648 0.291,4.169 0.724,8.217 1.009,11.855 0.285,3.638 0.422,6.865 0.485,10.435 0.063,3.57 0.051,7.481 0.091,11.969 0.04,4.488 0.131,9.552 0.223,13.777 0.091,4.225 0.182,7.612 0.266,9.945 0.084,2.332 0.162,3.609 0.193,4.373 0.031,0.764 0.017,1.015 0.027,2.23 0.01,1.214 0.044,3.393 0.078,4.946 0.035,1.554 0.069,2.484 0.137,3.037 0.068,0.553 0.171,0.73 0.482,1.055 0.311,0.325 0.83,0.798 2.632,1.177 1.802,0.38 4.886,0.665 7.829,0.918 2.942,0.254 5.742,0.476 10.492,0.73 4.75,0.254 11.451,0.539 16.4,0.753 4.95,0.214 8.149,0.356 10.954,0.382 2.806,0.026 5.218,-0.066 7.656,-0.143 2.438,-0.077 4.901,-0.139 7.25,-0.216 2.35,-0.077 4.585,-0.168 7.735,-0.565 3.151,-0.396 7.217,-1.098 9.757,-1.616 2.54,-0.519 3.556,-0.856 4.448,-1.309 0.892,-0.453 1.662,-1.024 2.078,-1.386 0.417,-0.362 0.479,-0.516 0.539,-0.807 0.06,-0.29 0.117,-0.718 0.209,-2.252 0.091,-1.534 0.216,-4.174 0.518,-9.369 0.303,-5.195 0.782,-12.944 1.164,-18.604 0.382,-5.659 0.667,-9.229 1.038,-13.175 0.37,-3.946 0.826,-8.268 1.397,-12.773 0.57,-4.505 1.254,-9.192 2.132,-14.518 0.879,-5.326 1.95,-11.291 2.766,-15.197 0.815,-3.906 1.374,-5.753 1.733,-6.921 0.358,-1.167 0.516,-1.655 0.64,-1.921 0.04,-0.087 0.077,-0.151 0.11,-0.197 0.29,-0.943 0.58,-1.886 0.813,-2.478 0.232,-0.591 0.408,-0.831 0.581,-1.057 0.174,-0.226 0.346,-0.438 0.481,-0.599 0.136,-0.161 0.235,-0.271 0.256,-0.446 0.022,-0.176 -0.032,-0.417 -0.184,-0.807 -0.152,-0.39 -0.401,-0.928 -0.72,-1.7 -0.319,-0.773 -0.708,-1.78 -1.265,-4.398 -0.557,-2.618 -1.282,-6.846 -2.128,-11.482 -0.846,-4.636 -1.813,-9.681 -2.362,-13.439 -0.549,-3.76 -0.68,-6.234 -1.088,-9.846 -0.407,-3.613 -1.091,-8.364 -1.612,-11.976 -0.084,-0.588 -0.164,-1.145 -0.241,-1.678 -1.376,0.017 -2.733,0.026 -4.061,0.023 -2.935,-0.008 -5.725,-0.076 -8.341,-0.137 -2.615,-0.061 -5.056,-0.114 -7.698,-0.194 -2.642,-0.08 -5.486,-0.186 -8.975,-0.285z"/>
    <g>
     <path fill="url(#id5)" fill-rule="nonzero" d="M-3.5 102.849c1.905,0.243 3.81,0.485 5.716,0.728 -0.214,-1.953 -0.423,-3.906 -0.596,-5.876 -1.906,-0.242 -3.811,-0.485 -5.716,-0.727 0.173,1.969 0.383,3.922 0.596,5.875z"/>
     <path fill="url(#id6)" fill-rule="nonzero" d="M-2.794 108.761c1.901,0.242 3.807,0.485 5.716,0.728 -0.259,-1.959 -0.488,-3.936 -0.706,-5.912 -1.906,-0.243 -3.811,-0.485 -5.716,-0.728 0.218,1.976 0.448,3.954 0.706,5.912z"/>
     <path fill="url(#id7)" fill-rule="nonzero" d="M-1.991 114.663c1.905,0.243 3.81,0.486 5.716,0.728 -0.285,-1.962 -0.544,-3.921 -0.803,-5.902 -1.909,-0.243 -3.815,-0.486 -5.716,-0.728 0.26,1.982 0.518,3.94 0.803,5.902z"/>
     <path fill="url(#id8)" fill-rule="nonzero" d="M-1.068 120.581c1.901,0.242 3.807,0.484 5.716,0.727 -0.308,-1.964 -0.615,-3.929 -0.923,-5.917 -1.906,-0.242 -3.811,-0.485 -5.716,-0.728 0.309,1.988 0.616,3.953 0.923,5.918z"/>
     <path fill="url(#id9)" fill-rule="nonzero" d="M6.847 92.544c1.905,0.243 3.811,0.486 5.716,0.728 -0.131,-1.942 -0.258,-3.884 -0.394,-5.85 -1.904,-0.242 -3.81,-0.485 -5.715,-0.727 0.135,1.965 0.262,3.907 0.393,5.849z"/>
     <path fill="url(#id10)" fill-rule="nonzero" d="M7.339 98.429c1.905,0.243 3.81,0.486 5.715,0.728 -0.168,-1.947 -0.341,-3.918 -0.491,-5.885 -1.905,-0.242 -3.811,-0.485 -5.716,-0.728 0.15,1.968 0.324,3.938 0.492,5.885z"/>
     <path fill="url(#id11)" fill-rule="nonzero" d="M7.935 104.305c1.906,0.242 3.811,0.485 5.716,0.728 -0.217,-1.954 -0.423,-3.906 -0.597,-5.876 -1.905,-0.242 -3.81,-0.485 -5.715,-0.728 0.173,1.97 0.383,3.923 0.596,5.876z"/>
     <path fill="url(#id12)" fill-rule="nonzero" d="M8.641 110.217c1.902,0.243 3.807,0.485 5.712,0.727 -0.258,-1.958 -0.488,-3.936 -0.702,-5.911 -1.905,-0.243 -3.81,-0.486 -5.716,-0.728 0.218,1.976 0.448,3.953 0.706,5.912z"/>
     <path fill="url(#id13)" fill-rule="nonzero" d="M12.169 87.422c0.951,0.121 1.91,0.243 2.86,0.364 0.951,0.122 1.909,0.243 2.864,0.365 -0.09,-1.937 -0.18,-3.897 -0.271,-5.857 -0.954,-0.121 -1.912,-0.243 -2.863,-0.364 -0.951,-0.121 -1.909,-0.243 -2.86,-0.364 0.091,1.959 0.181,3.919 0.27,5.856z"/>
     <path fill="url(#id14)" fill-rule="nonzero" d="M12.563 93.272c0.95,0.121 1.909,0.243 2.86,0.364 0.951,0.121 1.909,0.243 2.863,0.365 -0.131,-1.943 -0.258,-3.885 -0.393,-5.85 -0.955,-0.122 -1.913,-0.243 -2.864,-0.365 -0.95,-0.121 -1.909,-0.243 -2.86,-0.364 0.136,1.966 0.263,3.908 0.394,5.85z"/>
     <path fill="url(#id15)" fill-rule="nonzero" d="M13.054 99.157c0.952,0.121 1.91,0.243 2.861,0.364 0.95,0.121 1.909,0.243 2.863,0.365 -0.168,-1.947 -0.341,-3.918 -0.492,-5.885 -0.954,-0.122 -1.912,-0.244 -2.863,-0.365 -0.951,-0.121 -1.91,-0.243 -2.86,-0.364 0.15,1.967 0.323,3.938 0.491,5.885z"/>
     <path fill="url(#id16)" fill-rule="nonzero" d="M13.651 105.033c0.951,0.121 1.909,0.243 2.86,0.364 0.95,0.121 1.909,0.243 2.863,0.364 -0.217,-1.953 -0.423,-3.905 -0.596,-5.875 -0.954,-0.122 -1.913,-0.244 -2.863,-0.365 -0.951,-0.121 -1.909,-0.243 -2.861,-0.364 0.174,1.97 0.38,3.922 0.597,5.876z"/>
     <path fill="url(#id17)" fill-rule="nonzero" d="M1.62 97.701c1.905,0.243 3.81,0.486 5.719,0.728 -0.168,-1.947 -0.342,-3.917 -0.492,-5.885 -1.909,-0.243 -3.814,-0.485 -5.72,-0.728 0.151,1.968 0.324,3.938 0.493,5.885z"/>
     <path fill="url(#id18)" fill-rule="nonzero" d="M2.216 103.577c1.905,0.243 3.81,0.485 5.719,0.728 -0.213,-1.953 -0.423,-3.906 -0.596,-5.876 -1.909,-0.242 -3.814,-0.485 -5.719,-0.728 0.173,1.97 0.382,3.923 0.596,5.876z"/>
     <path fill="url(#id19)" fill-rule="nonzero" d="M2.922 109.489c1.905,0.243 3.81,0.485 5.719,0.728 -0.258,-1.959 -0.488,-3.936 -0.706,-5.912 -1.909,-0.243 -3.814,-0.485 -5.719,-0.728 0.218,1.976 0.447,3.953 0.706,5.912z"/>
     <path fill="url(#id20)" fill-rule="nonzero" d="M3.725 115.391c1.905,0.243 3.81,0.485 5.719,0.728 -0.285,-1.962 -0.543,-3.921 -0.803,-5.902 -1.909,-0.243 -3.814,-0.485 -5.719,-0.728 0.259,1.981 0.518,3.94 0.803,5.902z"/>
     <path fill="url(#id21)" fill-rule="nonzero" d="M17.44 76.471c0.441,-29.503 2.002,-58.938 7.105,-87.817 5.118,-28.968 14.348,-57.337 25.311,-85.523 -3.815,-0.485 -7.629,-0.971 -11.439,-1.456 -3.811,-0.485 -7.625,-0.971 -11.432,-1.455 -12.192,31.903 -22.16,64.066 -27.15,96.91 -4.982,32.79 -5.376,66.227 -3.931,99.844 1.905,0.242 3.81,0.485 5.716,0.727 -0.169,-1.947 -0.342,-3.917 -0.493,-5.885 1.906,0.243 3.811,0.485 5.72,0.728 -0.131,-1.942 -0.258,-3.884 -0.393,-5.849 1.905,0.242 3.811,0.485 5.715,0.727 -0.089,-1.937 -0.179,-3.897 -0.27,-5.856 0.951,0.121 1.909,0.243 2.86,0.364 0.951,0.121 1.909,0.243 2.863,0.364 -0.078,-1.936 -0.129,-3.868 -0.182,-5.823z"/>
    </g>
    <g>
     <path fill="url(#id22)" fill-rule="nonzero" d="M207.797 75.948c-1.798,0.677 -3.595,1.353 -5.392,2.031 -0.245,-1.95 -0.493,-3.898 -0.78,-5.854 1.797,-0.677 3.595,-1.355 5.392,-2.031 0.288,1.956 0.535,3.904 0.78,5.854z"/>
     <path fill="url(#id23)" fill-rule="nonzero" d="M208.478 81.863c-1.794,0.675 -3.591,1.353 -5.392,2.03 -0.202,-1.965 -0.436,-3.942 -0.681,-5.914 1.797,-0.678 3.594,-1.354 5.392,-2.031 0.245,1.973 0.48,3.95 0.681,5.915z"/>
     <path fill="url(#id24)" fill-rule="nonzero" d="M209.063 87.79c-1.797,0.677 -3.595,1.354 -5.392,2.031 -0.177,-1.975 -0.379,-3.94 -0.585,-5.928 1.801,-0.677 3.598,-1.355 5.392,-2.03 0.206,1.988 0.408,3.953 0.585,5.927z"/>
     <path fill="url(#id25)" fill-rule="nonzero" d="M209.534 93.761c-1.794,0.675 -3.591,1.352 -5.392,2.03 -0.156,-1.982 -0.312,-3.965 -0.471,-5.97 1.797,-0.677 3.595,-1.354 5.392,-2.031 0.16,2.006 0.315,3.988 0.471,5.971z"/>
     <path fill="url(#id26)" fill-rule="nonzero" d="M195.346 68.317c-1.798,0.677 -3.595,1.354 -5.393,2.031 -0.322,-1.92 -0.648,-3.839 -0.97,-5.782 1.797,-0.677 3.594,-1.354 5.392,-2.031 0.323,1.944 0.648,3.862 0.971,5.782z"/>
     <path fill="url(#id27)" fill-rule="nonzero" d="M196.229 74.156c-1.797,0.678 -3.594,1.354 -5.392,2.031 -0.287,-1.933 -0.575,-3.89 -0.884,-5.839 1.798,-0.677 3.595,-1.354 5.393,-2.031 0.309,1.949 0.596,3.906 0.883,5.839z"/>
     <path fill="url(#id28)" fill-rule="nonzero" d="M197.009 80.01c-1.797,0.677 -3.595,1.354 -5.392,2.031 -0.242,-1.951 -0.492,-3.897 -0.78,-5.854 1.798,-0.677 3.595,-1.353 5.392,-2.031 0.288,1.957 0.535,3.905 0.78,5.854z"/>
     <path fill="url(#id29)" fill-rule="nonzero" d="M197.69 85.926c-1.794,0.675 -3.591,1.352 -5.389,2.029 -0.201,-1.966 -0.436,-3.942 -0.684,-5.914 1.797,-0.677 3.595,-1.354 5.392,-2.031 0.245,1.973 0.48,3.95 0.681,5.916z"/>
     <path fill="url(#id30)" fill-rule="nonzero" d="M188.983 64.566c-0.898,0.338 -1.802,0.678 -2.698,1.016 -0.898,0.337 -1.802,0.678 -2.702,1.017 -0.361,-1.905 -0.727,-3.833 -1.092,-5.76 0.9,-0.339 1.804,-0.68 2.701,-1.017 0.897,-0.338 1.801,-0.678 2.698,-1.017 0.366,1.928 0.731,3.855 1.093,5.761z"/>
     <path fill="url(#id31)" fill-rule="nonzero" d="M189.953 70.348c-0.896,0.338 -1.8,0.678 -2.697,1.016 -0.897,0.338 -1.801,0.678 -2.702,1.017 -0.322,-1.92 -0.648,-3.839 -0.971,-5.782 0.9,-0.339 1.804,-0.68 2.702,-1.017 0.896,-0.338 1.8,-0.678 2.698,-1.016 0.322,1.943 0.648,3.862 0.97,5.782z"/>
     <path fill="url(#id32)" fill-rule="nonzero" d="M190.837 76.187c-0.897,0.338 -1.801,0.678 -2.698,1.016 -0.897,0.338 -1.801,0.678 -2.702,1.017 -0.286,-1.933 -0.574,-3.89 -0.883,-5.839 0.901,-0.339 1.805,-0.679 2.702,-1.017 0.897,-0.338 1.801,-0.678 2.697,-1.016 0.309,1.949 0.597,3.906 0.884,5.839z"/>
     <path fill="url(#id33)" fill-rule="nonzero" d="M191.617 82.041c-0.897,0.338 -1.801,0.678 -2.698,1.016 -0.897,0.338 -1.801,0.678 -2.702,1.017 -0.24,-1.95 -0.492,-3.897 -0.78,-5.854 0.901,-0.339 1.805,-0.679 2.702,-1.017 0.897,-0.338 1.801,-0.678 2.698,-1.016 0.288,1.957 0.538,3.903 0.78,5.854z"/>
     <path fill="url(#id34)" fill-rule="nonzero" d="M201.625 72.125c-1.798,0.676 -3.595,1.353 -5.396,2.031 -0.287,-1.933 -0.574,-3.89 -0.883,-5.839 1.801,-0.678 3.598,-1.355 5.396,-2.032 0.308,1.949 0.596,3.906 0.883,5.84z"/>
     <path fill="url(#id35)" fill-rule="nonzero" d="M202.405 77.979c-1.798,0.676 -3.595,1.353 -5.396,2.031 -0.245,-1.949 -0.492,-3.897 -0.78,-5.854 1.801,-0.678 3.598,-1.355 5.396,-2.031 0.287,1.956 0.535,3.904 0.78,5.854z"/>
     <path fill="url(#id36)" fill-rule="nonzero" d="M203.086 83.893c-1.798,0.677 -3.595,1.355 -5.396,2.033 -0.201,-1.966 -0.436,-3.943 -0.681,-5.916 1.801,-0.678 3.598,-1.355 5.396,-2.031 0.245,1.972 0.479,3.949 0.681,5.914z"/>
     <path fill="url(#id37)" fill-rule="nonzero" d="M203.671 89.821c-1.798,0.677 -3.595,1.354 -5.396,2.032 -0.177,-1.974 -0.379,-3.94 -0.585,-5.927 1.801,-0.678 3.598,-1.356 5.396,-2.033 0.206,1.988 0.408,3.953 0.585,5.928z"/>
     <path fill="url(#id38)" fill-rule="nonzero" d="M181.321 55.132c-7.257,-28.6 -15.588,-56.876 -27.235,-83.79 -11.683,-26.997 -27.228,-52.459 -44.416,-77.343 3.599,-1.355 7.197,-2.71 10.792,-4.064 3.595,-1.354 7.193,-2.709 10.785,-4.061 19.244,28.216 36.385,57.199 48.84,87.996 12.435,30.748 20.556,63.185 26.93,96.224 -1.797,0.676 -3.595,1.354 -5.392,2.031 -0.287,-1.934 -0.575,-3.891 -0.883,-5.84 -1.798,0.677 -3.595,1.354 -5.396,2.032 -0.323,-1.92 -0.648,-3.838 -0.971,-5.782 -1.798,0.677 -3.595,1.354 -5.392,2.031 -0.362,-1.906 -0.727,-3.833 -1.093,-5.761 -0.897,0.339 -1.801,0.679 -2.698,1.017 -0.897,0.337 -1.801,0.678 -2.701,1.017 -0.372,-1.901 -0.769,-3.793 -1.17,-5.707z"/>
    </g>
   </g>
  </g>
  <path fill="none" d="M91.234 163.341c0.06,-0.29 0.117,-0.718 0.209,-2.252 0.091,-1.534 0.216,-4.174 0.518,-9.369 0.303,-5.195 0.782,-12.944 1.164,-18.604 0.382,-5.659 0.667,-9.229 1.038,-13.175 0.37,-3.946 0.826,-8.268 1.397,-12.773 0.57,-4.505 1.254,-9.192 2.132,-14.518 0.879,-5.326 1.95,-11.291 2.766,-15.197 0.815,-3.906 1.374,-5.753 1.733,-6.921 0.358,-1.167 0.516,-1.655 0.64,-1.921 0.123,-0.267 0.212,-0.313 0.296,-0.305 0.084,0.008 0.164,0.069 0.266,0.183 0.103,0.113 0.228,0.278 0.391,0.627 0.163,0.349 0.362,0.88 0.684,1.602 0.321,0.721 0.764,1.632 1.146,2.525 0.381,0.893 0.7,1.768 0.836,2.443 0.135,0.674 0.087,1.147 0.127,1.679 0.04,0.532 0.168,1.122 0.504,1.619 0.337,0.498 0.881,0.903 1.195,1.44 0.314,0.538 0.396,1.208 0.602,2.158 0.205,0.951 0.533,2.183 0.646,3.113 0.112,0.929 0.009,1.556 -0.098,2.148 -0.106,0.591 -0.218,1.148 -0.101,1.705 0.117,0.557 0.462,1.116 0.865,1.635 0.404,0.519 0.866,0.998 1.149,1.313 0.284,0.315 0.39,0.466 0.491,0.609 0.101,0.142 0.198,0.276 0.351,0.879 0.152,0.603 0.36,1.675 0.439,2.419 0.078,0.745 0.027,1.161 -0.003,1.576 -0.03,0.415 -0.039,0.828 -0.073,1.354 -0.034,0.526 -0.094,1.165 -0.085,1.751 0.008,0.586 0.085,1.119 0.46,1.91 0.375,0.791 1.048,1.84 1.685,2.689 0.637,0.848 1.239,1.495 1.643,1.902 0.404,0.407 0.611,0.574 0.797,0.87 0.186,0.296 0.351,0.72 0.488,1.263 0.137,0.544 0.246,1.205 0.304,1.972 0.058,0.767 0.067,1.64 0.054,2.608 -0.013,0.968 -0.047,2.031 0.15,2.999 0.197,0.968 0.624,1.84 1.101,2.577 0.476,0.738 1,1.339 1.389,1.826 0.39,0.488 0.644,0.862 0.856,1.23 0.213,0.367 0.384,0.729 0.555,1.154 0.171,0.425 0.342,0.913 0.472,1.479 0.13,0.566 0.218,1.21 0.339,1.795 0.121,0.584 0.275,1.108 0.375,1.699 0.1,0.59 0.145,1.246 0.32,2.204 0.174,0.958 0.476,2.218 0.678,3.273 0.203,1.055 0.305,1.904 0.416,2.657 0.112,0.753 0.231,1.409 0.325,2.284 0.094,0.875 0.163,1.97 0.294,2.774 0.131,0.804 0.325,1.317 0.465,2.09 0.14,0.772 0.225,1.805 0.299,2.412 0.074,0.607 0.137,0.79 0.288,0.952 0.104,0.112 0.251,0.215 0.437,0.32 -0.079,-0.368 -0.154,-0.732 -0.127,-0.999 0.028,-0.278 0.168,-0.45 0.332,-0.556 0.164,-0.105 0.352,-0.145 0.75,-0.063 0.398,0.082 1.007,0.284 1.729,0.399 0.723,0.115 1.56,0.144 2.868,0.151 1.309,0.007 3.089,-0.007 5.568,-0.327 2.479,-0.319 5.657,-0.943 8.788,-1.599 3.132,-0.656 6.217,-1.344 9.657,-2.107 3.44,-0.762 7.234,-1.599 10.248,-2.124 3.014,-0.525 5.249,-0.737 8.16,-0.854 2.912,-0.118 6.502,-0.139 10.137,0.024 3.635,0.163 7.316,0.511 9.976,0.862 2.66,0.351 4.298,0.706 5.688,1.227 1.391,0.522 2.533,1.21 3.226,1.734 0.693,0.524 0.938,0.884 1.054,1.193 0.116,0.309 0.104,0.568 -0.007,0.887 -0.11,0.319 -0.318,0.698 -0.526,1.077 0.192,-0.063 0.354,-0.202 0.566,-0.399 0.232,-0.218 0.523,-0.509 0.64,-0.957 0.116,-0.447 0.059,-1.052 0.065,-2.577 0.006,-1.525 0.074,-3.972 0.052,-6.694 -0.023,-2.724 -0.137,-5.723 -0.194,-7.553 -0.057,-1.831 -0.057,-2.492 -0.057,-3.427 0,-0.936 0,-2.144 -0.029,-3.276 -0.028,-1.132 -0.085,-2.187 -0.111,-3.279 -0.025,-1.092 -0.02,-2.221 -0.091,-4.009 -0.072,-1.787 -0.22,-4.234 -0.3,-6.212 -0.079,-1.979 -0.091,-3.49 -0.231,-7.51 -0.139,-4.02 -0.407,-10.55 -0.929,-16.996 -0.522,-6.446 -1.297,-12.81 -2.278,-18.854 -0.981,-6.045 -2.167,-11.77 -3.341,-17.21 -1.175,-5.44 -2.338,-10.594 -3.867,-15.864 -1.528,-5.268 -3.421,-10.651 -5.246,-15.498 -1.824,-4.847 -3.581,-9.158 -4.618,-11.657 -1.038,-2.499 -1.357,-3.186 -1.494,-3.631 -0.137,-0.445 -0.092,-0.647 0.009,-0.803 0.102,-0.155 0.258,-0.263 0.386,-0.349 0.014,-0.01 0.028,-0.019 0.041,-0.029 -0.042,-0.002 -0.088,-0.005 -0.144,-0.008 -0.105,-0.005 -0.243,-0.013 -0.693,-0.048 -0.449,-0.035 -1.21,-0.098 -2.217,-0.107 -1.008,-0.008 -2.262,0.038 -3.577,0.132 -1.316,0.095 -2.692,0.24 -4.839,0.609 -2.148,0.368 -5.068,0.962 -7.478,1.498 -2.41,0.535 -4.311,1.014 -6.805,1.509 -2.494,0.494 -5.581,1.003 -8.679,1.418 -3.098,0.414 -6.208,0.733 -9.971,1.076 -3.764,0.341 -8.181,0.707 -11.872,0.965 -3.692,0.259 -6.657,0.41 -9.367,0.559 -2.711,0.148 -5.167,0.292 -7.957,0.403 -2.79,0.11 -5.915,0.186 -9.017,0.251 -3.102,0.064 -6.181,0.117 -9.116,0.11 -2.935,-0.008 -5.725,-0.076 -8.341,-0.137 -2.615,-0.061 -5.056,-0.114 -7.698,-0.194 -2.642,-0.08 -5.486,-0.186 -8.975,-0.285 -3.49,-0.099 -7.626,-0.19 -12.01,-0.217 -4.383,-0.026 -9.013,0.012 -12.845,0.008 -3.832,-0.004 -6.865,-0.049 -10.876,-0.205 -4.011,-0.156 -8.998,-0.422 -12.585,-0.69 -3.587,-0.268 -5.773,-0.538 -7.362,-0.856 -1.59,-0.318 -2.583,-0.683 -3.577,-1.049 0.044,0.064 0.021,0.188 -0.027,0.625 -0.062,0.551 -0.164,1.597 -0.449,3.521 -0.286,1.925 -0.753,4.728 -1.058,6.779 -0.305,2.052 -0.448,3.352 -0.79,5.493 -0.342,2.141 -0.884,5.124 -1.32,7.752 -0.436,2.629 -0.767,4.904 -1.029,6.823 -0.263,1.919 -0.457,3.481 -0.636,5.294 -0.18,1.814 -0.345,3.878 -0.525,6.376 -0.18,2.497 -0.373,5.428 -0.567,8.701 -0.194,3.273 -0.388,6.888 -0.53,10.743 -0.143,3.855 -0.234,7.949 -0.206,12.14 0.029,4.192 0.177,8.48 0.468,12.648 0.291,4.169 0.724,8.217 1.009,11.855 0.285,3.638 0.422,6.865 0.485,10.435 0.063,3.57 0.051,7.481 0.091,11.969 0.04,4.488 0.131,9.552 0.223,13.777 0.091,4.225 0.182,7.612 0.266,9.945 0.084,2.332 0.162,3.609 0.193,4.373 0.031,0.764 0.017,1.015 0.027,2.23 0.01,1.214 0.044,3.393 0.078,4.946 0.035,1.554 0.069,2.484 0.137,3.037 0.068,0.553 0.171,0.73 0.482,1.055 0.311,0.325 0.83,0.798 2.632,1.177 1.802,0.38 4.886,0.665 7.829,0.918 2.942,0.254 5.742,0.476 10.492,0.73 4.75,0.254 11.451,0.539 16.4,0.753 4.95,0.214 8.149,0.356 10.954,0.382 2.806,0.026 5.218,-0.066 7.656,-0.143 2.438,-0.077 4.901,-0.139 7.25,-0.216 2.35,-0.077 4.585,-0.168 7.735,-0.565 3.151,-0.396 7.217,-1.098 9.757,-1.616 2.54,-0.519 3.556,-0.856 4.448,-1.309 0.892,-0.453 1.662,-1.024 2.078,-1.386 0.417,-0.362 0.479,-0.516 0.539,-0.807z"/>
 </g>
</svg>
