<?xml version="1.0" encoding="utf-8"?>
<!-- Generator: Adobe Illustrator 16.0.3, SVG Export Plug-In . SVG Version: 6.00 Build 0)  -->
<!DOCTYPE svg PUBLIC "-//W3C//DTD SVG 1.1//EN" "http://www.w3.org/Graphics/SVG/1.1/DTD/svg11.dtd">
<svg version="1.1"
	 id="Layer_1" image-rendering="optimizeQuality" text-rendering="geometricPrecision" shape-rendering="geometricPrecision" xmlns:xodm="http://www.corel.com/coreldraw/odm/2003"
	 xmlns="http://www.w3.org/2000/svg" xmlns:xlink="http://www.w3.org/1999/xlink" x="0px" y="0px" width="181px" height="149px"
	 viewBox="0 0 181 149" enable-background="new 0 0 181 149" xml:space="preserve">
<g id="Camada_x0020_1">
	<path id="d4" fill="#F00808" d="M81.373,127.422h-0.008v-0.773h-0.052v-5.053h-0.543v4.912h-0.542v3.294h-0.034v-2.866h-0.29v-5.34
		h-0.543v4.912h-0.543v3.294h-0.304v-1.85h-0.319v2.114h-0.344v-0.068h-0.543v-1.124h-0.544v1.192h-0.505v-0.775h-0.232v-4.881
		h-0.543v-5.459H74.94v11.115h-0.092v-0.775h-0.304v0.775h-0.543v-2.657h-0.207v-0.743h-0.543v1.059h-0.115v2.342h-0.543v-1.219
		h-0.28v1.219v-3.012h-0.401v-4.262H71.77v-1.197h-0.543v7.252h-0.308v1.219v-3.012h-0.53v-3.242h-0.556v5.498h-0.294v0.275h-0.03
		v0.48v-3.012h-0.436v-4.559H68.53v1.316h-0.107v5.498h-0.225v-3.873h-0.543v4.682H67.32v-6.256h-0.543v1.574h-0.515v6.358h-0.217
		v-2.853h-0.543v-5.555h-0.543v1.752h-0.14v6.655h-0.509v0.435h-0.159v-3.26H64v-3.086h-0.034v-0.744h-0.544v1.367h-0.359v2.929
		h-0.148v2.794h-0.159v-3.26h-0.199v-3.83h-0.543v1.367h-0.226v-0.477h-0.543v2.85h-0.149v0.09h-0.292v-2.463h-0.374v-7.557h-0.543
		v7.08H59.85v2.498h-0.106v-0.242h-0.403v3.301h-0.357v-5.557H58.44v2.498h-0.09v-0.437h-0.427v0.741H57.59v-1.047h-0.543v0.742
		H56.94v-0.437h-0.226v-6.497h-0.543v2.595h-0.334v5.32h-0.516v-4.713h-0.543v6.134h-0.543v0.545h-0.151v-3.684v2.158h-0.172v-5.153
		h-0.371v-0.547h-0.543v6.681h-0.172v0.545h-0.159v-4.643h-0.543v0.536h-0.47v1.159h-0.38v-1.695H50.73v-0.198h-0.201v1.725H50.25
		v1.591h-0.387v-3.117H49.32v0.06h-0.036v0.088h-0.12v1.379h-0.387v0.44h-0.294v1.213h-0.05v-3.12h-0.542v-0.256h-0.544v-6.704
		h-0.543v6.96h-0.324v0.485h-0.405v-0.711h-0.396v3.346h-0.148v-3.02H44.99v0.385h-0.396v2.247h-0.279v-2.39v2.006h-0.542v-1.258
		h-0.137v-5.407h-0.544v7.049h-0.307v-1.677v1.332h-0.543v-4.483h-0.543v1.84h-0.229v-7.687h-0.543v10.33h-0.093v-4.483h-0.544
		v4.839h-0.013v-8.468h-0.544v8.399h-0.543v-2.157v0.682h-0.173v1.544h-0.541v-1.652h-0.543v0.956h-0.175v-7.345h-0.543v5.238
		h-0.308v2.447h-0.344v-5.469h-0.2v-2.217h-0.543v4.764h-0.233v3.381h-0.09v-0.459h-0.327v-5.469h-0.216v-2.217h-0.544v8.467h-0.534
		v-3.703H33.76v-2.547h-0.544v3.021h-0.392v0.957h-0.121v-8.682H32.16v4.754h-0.543v3.012v-0.041h-0.203v0.957h-0.392v1.213h-0.543
		v-0.414h-0.032v-1.432h-0.287v1.846h-0.543v0.099h-0.006v-0.099h-0.541v-0.414h-0.082v-6.836h-0.543v4.754h-0.543v0.914h-0.255
		v-0.773h-0.053v-5.053h-0.543v4.912h-0.543v3.294h-0.033v-2.866h-0.29v-5.34h-0.544v4.912h-0.542v3.294h-0.304v-1.85h-0.319v2.114
		h-0.345v-0.068h-0.543v-1.124h-0.543v1.192H22.54v-0.775h-0.231v-4.881h-0.543v-6.318h-0.543v11.975H21.13v-0.775h-0.304v0.775
		h-0.543v-2.657h-0.207v-0.743h-0.543v1.059h-0.116v2.342h-0.543v-1.219h-0.279v1.219v-3.012h-0.401v-4.262h-0.142v-2.059h-0.543
		v8.113H17.2v1.219v-3.012h-0.543v-2.257h-0.542v4.513h-0.296v0.275h-0.029v0.48v-3.012H15.49v-4.559h-0.543v2.302h-0.242v4.513
		H14.48v-3.873h-0.544v3.097h-0.333v-0.28h-0.517v-2.816h-0.543v6.358h-0.217v-3.128h-0.544v-6.246h-0.542v2.719h-0.006v0.297h-0.1
		v6.358H10.59v0.435h-0.158v-1.053h-0.185v-6.037h-0.149v-3.947H9.554v5.91H9.345v1.215H9.011v0.652H8.838v-3.83H8.293v1.367H8.068
		v-1.442H7.919v-5.956H7.376v8.424H7.085v-1.025h-0.41v-0.477H6.383v-2.193H5.841v7.126H5.557v-7.845H5.013v2.912H4.722v2.643H4.47
		v1.773H4.312v-8.424H4.206v-0.27H3.663v1.84H3.193v6.256H2.902v-7.826H2.359v8.67H2.323l0.036,1.061
		c0.074,2.051,0.141,3.174,0.169,3.848c0.028,0.672,0.015,0.893,0.024,1.961c0.008,1.068,0.039,2.984,0.068,4.352
		c0.031,1.366,0.061,2.184,0.121,2.67c0.06,0.487,0.151,0.643,0.424,0.929s0.729,0.702,2.315,1.036
		c1.584,0.333,4.298,0.584,6.886,0.807c2.588,0.224,5.051,0.419,9.229,0.643c4.178,0.223,10.073,0.474,14.426,0.662
		c4.354,0.188,7.167,0.313,9.636,0.335c2.467,0.023,4.589-0.058,6.733-0.124c2.145-0.068,4.313-0.123,6.379-0.191
		s4.033-0.148,6.804-0.496c2.771-0.349,6.347-0.967,8.582-1.423c2.235-0.456,3.128-0.752,3.913-1.151
		c0.784-0.397,1.461-0.899,1.828-1.218c0.366-0.319,0.421-0.454,0.474-0.71s0.103-0.633,0.183-1.98
		c0.081-1.35,0.191-3.673,0.457-8.242C81.113,131.701,81.238,129.611,81.373,127.422z M180.695,112.881l-0.19-0.097
		c0.038,0.628,0.075,1.245,0.113,1.862c-0.017-0.01-0.033-0.021-0.051-0.031c0.03,0.493,0.06,0.987,0.09,1.48
		c-0.189-0.101-0.38-0.202-0.562-0.293c-0.016-0.258-0.031-0.516-0.047-0.773c-0.115-0.061-0.223-0.11-0.33-0.159
		c0.016,0.258,0.031,0.515,0.047,0.772c-0.09-0.039-0.182-0.09-0.264-0.13c-0.113-1.873-0.228-3.745-0.344-5.642
		c-0.188-0.078-0.378-0.179-0.561-0.27c-0.109-1.816-0.219-3.634-0.329-5.451c-0.19-0.09-0.38-0.179-0.562-0.27
		c0.209,3.455,0.418,6.898,0.626,10.33c-0.017-0.011-0.032-0.01-0.049-0.02c0.016,0.258,0.03,0.516,0.046,0.763
		c-0.189-0.079-0.379-0.181-0.561-0.271c-0.047-0.773-0.094-1.547-0.143-2.332c-0.016-0.011-0.023-0.01-0.032-0.01
		c-0.026-0.449-0.054-0.896-0.082-1.357c-0.19-0.102-0.379-0.18-0.56-0.258c0.068,1.132,0.136,2.254,0.204,3.375
		c-0.188-0.078-0.378-0.157-0.56-0.236c0.007,0.112,0.015,0.225,0.02,0.314c-0.105-0.039-0.205-0.077-0.304-0.128
		c-0.047-0.774-0.094-1.548-0.142-2.333c-0.106-0.051-0.214-0.088-0.313-0.139c0.033,0.549,0.066,1.099,0.1,1.637
		c-0.017,0.002-0.025-0.009-0.033-0.009c-0.029-0.493-0.061-0.999-0.091-1.503c0.044,0.741,0.089,1.47,0.134,2.199
		c-0.1-0.039-0.197-0.079-0.296-0.117c-0.062-0.999-0.121-1.997-0.183-3.007c-0.09-0.04-0.181-0.079-0.263-0.119
		c-0.015-0.235-0.028-0.459-0.042-0.695c-0.1-0.039-0.197-0.077-0.297-0.116c-0.095-1.57-0.19-3.163-0.287-4.756
		c-0.189-0.079-0.379-0.156-0.559-0.225c0.124,2.041,0.248,4.082,0.371,6.111l0,0c0.033,0.551,0.066,1.1,0.098,1.637
		c-0.105-0.037-0.212-0.076-0.311-0.115c0.015,0.247,0.028,0.472,0.043,0.706c-0.061-0.997-0.121-1.996-0.183-3.005
		c-0.188-0.067-0.377-0.146-0.558-0.215c-0.059-0.975-0.119-1.961-0.179-2.949c-0.188-0.078-0.378-0.156-0.558-0.225
		c0.104,1.716,0.207,3.432,0.313,5.147c-0.041-0.009-0.082-0.028-0.123-0.037c-0.026-0.427-0.051-0.841-0.076-1.256
		c-0.074-0.03-0.139-0.06-0.205-0.077c-0.02-0.314-0.037-0.629-0.057-0.932c-0.189-0.078-0.377-0.146-0.558-0.213
		c-0.06-0.977-0.118-1.964-0.179-2.95c-0.188-0.067-0.377-0.136-0.556-0.192c0.116,1.918,0.231,3.824,0.348,5.731
		c-0.032-0.009-0.058-0.019-0.081-0.028c-0.018-0.27-0.035-0.551-0.051-0.83c-0.147-0.047-0.295-0.084-0.441-0.153
		c-0.161-2.646-0.322-5.294-0.482-7.94c-0.188-0.057-0.377-0.124-0.556-0.18c0.161,2.646,0.321,5.293,0.481,7.939
		c-0.041-0.02-0.082-0.029-0.123-0.049c-0.008-0.123-0.017-0.269-0.025-0.403c-0.105-0.028-0.211-0.065-0.31-0.105
		c0.008,0.136,0.017,0.281,0.024,0.403c-0.081-0.018-0.163-0.046-0.237-0.075c-0.202-3.343-0.404-6.685-0.608-10.038
		c-0.188-0.056-0.375-0.111-0.554-0.157c0.145,2.378,0.288,4.755,0.433,7.133c-0.188-0.056-0.375-0.112-0.555-0.169
		c0.049,0.818,0.098,1.638,0.148,2.457c-0.035-0.562-0.068-1.133-0.104-1.717c-0.033-0.01-0.066-0.019-0.09-0.017
		c0.045,0.729,0.088,1.446,0.131,2.164c-0.187-0.044-0.375-0.112-0.553-0.147c-0.018-0.301-0.036-0.594-0.055-0.907
		c-0.141-0.06-0.271-0.097-0.4-0.134c-0.025-0.415-0.051-0.83-0.076-1.256c-0.066-0.019-0.131-0.037-0.195-0.055
		c0.023,0.393,0.045,0.772,0.069,1.154c-0.073-0.018-0.146-0.036-0.221-0.066c-0.087-1.436-0.173-2.859-0.259-4.283
		c-0.188-0.045-0.375-0.09-0.553-0.135c0.105,1.738,0.211,3.487,0.317,5.237c-0.114-0.026-0.228-0.055-0.333-0.081
		c-0.041-0.673-0.082-1.336-0.123-2.008c0.024,0.392,0.048,0.773,0.07,1.154c-0.049-0.008-0.089-0.016-0.131-0.037
		c-0.025-0.415-0.05-0.83-0.076-1.256c-0.064-0.008-0.129-0.025-0.194-0.044c-0.105-1.739-0.21-3.478-0.317-5.228
		c-0.186-0.044-0.373-0.089-0.551-0.123c0.041,0.695,0.084,1.391,0.125,2.086c-0.072-0.019-0.137-0.036-0.201-0.043
		c0.066,1.098,0.133,2.197,0.199,3.297c-0.059-0.031-0.106-0.039-0.155-0.048c0.036,0.584,0.071,1.167,0.106,1.739
		c-0.066-0.02-0.132-0.037-0.196-0.057c0.028,0.482,0.058,0.965,0.087,1.436c-0.106-0.027-0.211-0.054-0.316-0.07
		c-0.174-2.85-0.346-5.698-0.519-8.557c-0.187-0.035-0.374-0.08-0.552-0.113c0.043,0.706,0.085,1.401,0.127,2.098
		c-0.073-0.02-0.146-0.037-0.219-0.044c0.102,1.671,0.203,3.354,0.305,5.024c-0.009,0.001-0.009,0.001-0.009,0.001
		c-0.132-2.188-0.265-4.374-0.397-6.573c-0.188-0.045-0.373-0.078-0.552-0.112c0.08,1.323,0.159,2.636,0.239,3.937
		c-0.033-0.01-0.066-0.019-0.098-0.027c-0.09-1.48-0.182-2.983-0.273-4.486c-0.185-0.023-0.372-0.067-0.551-0.102
		c0.145,2.378,0.289,4.756,0.432,7.121c-0.186-0.045-0.372-0.067-0.551-0.113c-0.038-0.627-0.076-1.256-0.115-1.895
		c-0.064-0.008-0.121-0.026-0.178-0.035c0.057,0.943,0.113,1.874,0.169,2.793c-0.186-0.033-0.372-0.055-0.55-0.09
		c-0.048-0.785-0.096-1.57-0.143-2.366c-0.154-0.024-0.309-0.049-0.461-0.073c0.055,0.897,0.108,1.794,0.162,2.691
		c-0.138-0.025-0.268-0.051-0.396-0.066c-0.006-0.102-0.013-0.213-0.02-0.324c-0.145-0.014-0.291-0.051-0.43-0.076
		c-0.097-1.604-0.193-3.207-0.291-4.822c-0.188-0.033-0.371-0.057-0.551-0.092c0.08,1.313,0.16,2.625,0.238,3.927
		c-0.186-0.023-0.371-0.034-0.549-0.068c0.004,0.067,0.008,0.124,0.012,0.18c-0.017,0-0.032,0.001-0.049,0.003
		c-0.03-0.506-0.063-1.021-0.092-1.537c-0.09-0.017-0.179-0.023-0.26-0.041c-0.051-0.841-0.104-1.704-0.155-2.567
		c-0.187-0.022-0.372-0.046-0.548-0.046c0.079,1.301,0.158,2.613,0.238,3.926c-0.187-0.035-0.373-0.057-0.55-0.08
		c-0.093-1.525-0.185-3.05-0.278-4.587c-0.186-0.022-0.371-0.044-0.549-0.067c0.014,0.225,0.028,0.447,0.04,0.661
		c-0.112-0.016-0.217-0.021-0.321-0.024c0.08,1.312,0.158,2.624,0.238,3.925c-0.186-0.022-0.371-0.034-0.549-0.058
		c-0.027-0.437-0.053-0.875-0.08-1.322c0.051,0.829,0.101,1.658,0.151,2.489c-0.137-0.003-0.273-0.018-0.41-0.032
		c-0.022-0.358-0.044-0.729-0.066-1.088c-0.009,0.002-0.009,0.002-0.009,0.002c-0.02-0.348-0.041-0.696-0.063-1.043
		c-0.16-0.014-0.321-0.026-0.475-0.039c0-0.012-0.001-0.023-0.002-0.035c0.043,0.719,0.087,1.436,0.131,2.165
		c-0.186-0.022-0.37-0.033-0.547-0.046c-0.116-1.906-0.23-3.802-0.346-5.697c-0.186-0.021-0.37-0.033-0.547-0.034
		c0.072,1.188,0.145,2.378,0.217,3.567c-0.113-0.006-0.226-0.021-0.33-0.025c-0.02-0.325-0.041-0.662-0.061-0.986
		c-0.184-0.002-0.368-0.012-0.545-0.012c0.021,0.336,0.041,0.672,0.062,1.008c-0.112-0.004-0.226-0.008-0.337-0.013
		c0.01,0.168,0.02,0.325,0.029,0.482c-0.017-0.011-0.032-0.009-0.041-0.009c-0.01-0.169-0.02-0.337-0.031-0.516
		c-0.16-0.002-0.321-0.016-0.482-0.027c-0.02-0.325-0.039-0.662-0.06-0.987c-0.185,0-0.368-0.011-0.546-0.023
		c0.065,1.077,0.131,2.153,0.195,3.23c-0.023,0.001-0.047,0.003-0.063,0.004c-0.034-0.562-0.068-1.133-0.104-1.704
		c-0.159-0.002-0.32-0.004-0.479-0.006c0.008,0.146,0.018,0.303,0.025,0.438c-0.111-0.004-0.217-0.009-0.32-0.002
		c-0.04-0.652-0.079-1.303-0.119-1.963c-0.129-0.004-0.249-0.008-0.369-0.012c-0.094-1.537-0.187-3.073-0.279-4.621
		c-0.186,0-0.369,0-0.547-0.012c0.125,2.052,0.249,4.094,0.373,6.146c-0.063,0.003-0.121-0.004-0.176-0.002
		c0.01,0.146,0.019,0.304,0.027,0.438c-0.057,0.003-0.113-0.005-0.161-0.002c-0.042-0.695-0.084-1.39-0.128-2.108
		c-0.063,0.004-0.128-0.004-0.184,0c0.005,0.079,0.008,0.146,0.012,0.201c-0.185,0-0.368,0-0.545,0
		c0.049,0.796,0.098,1.604,0.146,2.389c-0.056,0.004-0.104,0.006-0.151,0.01c0.007,0.123,0.014,0.234,0.021,0.358
		c-0.184,0.011-0.368-0.001-0.544,0.011c-0.06-0.976-0.119-1.963-0.179-2.949c-0.057-0.009-0.113-0.006-0.168-0.002
		c0.004,0.079,0.009,0.146,0.012,0.201c-0.184,0-0.367,0.012-0.545,0.012c0.084,1.368,0.167,2.736,0.249,4.094
		c-0.009,0-0.016,0-0.016,0c-0.022-0.381-0.047-0.763-0.07-1.155c-0.185,0-0.368,0-0.544,0.011
		c-0.071-1.178-0.143-2.355-0.215-3.544c-0.049-0.009-0.097-0.006-0.145-0.003c-0.029-0.471-0.057-0.941-0.086-1.424
		c-0.184,0.012-0.367,0.022-0.543,0.021c0.123,2.053,0.248,4.094,0.371,6.123c-0.168,0.011-0.336,0.021-0.504,0.031
		c0.012,0.18,0.023,0.359,0.033,0.538c-0.104-0.005-0.208,0.002-0.312,0.008c-0.168-2.771-0.337-5.552-0.505-8.333
		c-0.016,0-0.024,0.002-0.031,0.002c-0.032-0.505-0.063-1.01-0.094-1.525c-0.184,0.011-0.367,0.021-0.543,0.021
		c0.139,2.276,0.275,4.554,0.414,6.83c-0.119,0.008-0.238,0.015-0.359,0.021c0.005,0.079,0.01,0.157,0.016,0.236
		c-0.057,0.004-0.105-0.005-0.154-0.002c0.058,0.941,0.114,1.872,0.172,2.803c-0.121,0.008-0.24,0.016-0.359,0.023
		c-0.2-3.287-0.398-6.573-0.598-9.859c-0.185,0.012-0.367,0.033-0.543,0.044c0.041,0.662,0.08,1.323,0.121,1.985
		c-0.129,0.008-0.248,0.016-0.367,0.033c0.107,1.762,0.214,3.521,0.319,5.261c-0.136,0.009-0.271,0.017-0.399,0.024
		c0.021,0.336,0.041,0.66,0.061,0.997c-0.047,0.004-0.096,0.007-0.144,0.009c0.041,0.673,0.083,1.346,0.122,2.008
		c-0.104,0.018-0.199,0.023-0.295,0.029c-0.068-1.145-0.137-2.277-0.207-3.432c-0.128,0.008-0.256,0.015-0.375,0.033
		c-0.119-1.962-0.238-3.947-0.359-5.921c-0.184,0.011-0.365,0.033-0.541,0.056c0.065,1.088,0.133,2.175,0.197,3.252
		c-0.047,0.003-0.096,0.006-0.135,0.008c0.068,1.133,0.137,2.266,0.205,3.387c-0.135,0.02-0.271,0.028-0.406,0.047
		c0.043,0.719,0.087,1.436,0.131,2.166c-0.047,0.003-0.096,0.006-0.135,0.02c0.022,0.369,0.045,0.729,0.066,1.098
		c-0.079,0.006-0.15,0.01-0.223,0.014c-0.072-1.188-0.144-2.366-0.216-3.555c-0.031,0.013-0.063,0.015-0.087,0.017
		c-0.063-1.021-0.125-2.053-0.188-3.096c-0.183,0.034-0.365,0.046-0.542,0.056c0.011,0.168,0.021,0.325,0.029,0.482
		c-0.142,0.02-0.286,0.028-0.421,0.047c0.05,0.82,0.099,1.639,0.148,2.457c-0.111,0.019-0.223,0.025-0.334,0.043
		c-0.119-1.963-0.238-3.937-0.357-5.899c-0.182,0.022-0.364,0.056-0.539,0.077c0.06,0.988,0.119,1.975,0.179,2.962
		c-0.04,0.002-0.071,0.003-0.103,0.017c0.01,0.169,0.02,0.326,0.029,0.482c-0.08,0.006-0.151,0.021-0.224,0.024
		c-0.021-0.358-0.044-0.729-0.066-1.099c-0.183,0.022-0.364,0.056-0.54,0.078c0.072,1.189,0.145,2.378,0.216,3.555
		c-0.063,0.004-0.126,0.02-0.183,0.023c0.063,1.03,0.125,2.063,0.188,3.084c-0.096,0.017-0.191,0.021-0.278,0.039
		c-0.104-1.705-0.207-3.41-0.312-5.125c-0.016,0-0.031,0.002-0.047,0.002c-0.008-0.135-0.017-0.27-0.025-0.415
		c-0.119,0.019-0.229,0.036-0.342,0.056c-0.021-0.359-0.044-0.73-0.066-1.1c-0.182,0.033-0.363,0.066-0.538,0.1
		c0.04,0.662,0.079,1.313,0.119,1.963c-0.056,0.003-0.104,0.018-0.151,0.021c0.033,0.538,0.064,1.065,0.097,1.593
		c-0.016,0.001-0.032,0.002-0.047,0.014c0.063,1.031,0.126,2.063,0.187,3.084c-0.119,0.02-0.23,0.037-0.341,0.055
		c0.009,0.157,0.019,0.303,0.028,0.449c-0.072,0.015-0.145,0.02-0.215,0.035c-0.238-3.938-0.478-7.873-0.717-11.821
		c-0.182,0.033-0.364,0.067-0.546,0.101c0.069,1.156,0.14,2.311,0.208,3.455c-0.182,0.033-0.355,0.055-0.531,0.088
		c0.161,2.646,0.321,5.283,0.48,7.918c-0.039,0.014-0.07,0.016-0.102,0.029c0.009,0.156,0.018,0.303,0.026,0.448
		c-0.119,0.019-0.229,0.048-0.34,0.065c-0.138-2.266-0.274-4.52-0.411-6.785c-0.182,0.045-0.363,0.09-0.537,0.111
		c0.068,1.145,0.138,2.288,0.206,3.421c-0.094,0.028-0.188,0.045-0.284,0.062c0.01,0.157,0.019,0.303,0.025,0.438
		c-0.07,0.016-0.134,0.031-0.196,0.046c0.009,0.146,0.017,0.28,0.024,0.415c-0.119,0.02-0.229,0.049-0.34,0.066
		c-0.044-0.729-0.088-1.459-0.133-2.188c0.045,0.74,0.09,1.48,0.135,2.221c-0.016,0-0.023,0.013-0.031,0.013
		c-0.087-1.436-0.174-2.87-0.262-4.307c-0.182,0.033-0.363,0.079-0.537,0.112c0.078,1.289,0.156,2.578,0.233,3.857
		c-0.078,0.017-0.149,0.032-0.221,0.047c-0.126-2.086-0.253-4.172-0.38-6.258c-0.188,0.057-0.37,0.102-0.551,0.146
		c0.07,1.154,0.141,2.321,0.209,3.465c-0.174,0.033-0.348,0.078-0.521,0.122c0.062,1.009,0.122,2.007,0.182,3.006
		c-0.056-0.942-0.115-1.907-0.173-2.86c-0.016,0.001-0.023,0.014-0.031,0.014c0.054,0.885,0.107,1.771,0.16,2.646
		c-0.096,0.018-0.189,0.045-0.276,0.062c-0.155-2.558-0.311-5.125-0.467-7.693c-0.181,0.044-0.362,0.089-0.536,0.145
		c0.101,1.638,0.199,3.275,0.298,4.901c-0.182,0.033-0.364,0.078-0.536,0.134c0.061,1.01,0.121,2.007,0.182,3.006
		c-0.052-0.853-0.104-1.716-0.156-2.58c-0.079,0.017-0.158,0.044-0.229,0.07c0.011,0.168,0.021,0.325,0.029,0.482
		c-0.031,0.003-0.063,0.016-0.087,0.017c-0.118-1.939-0.235-3.869-0.353-5.81c-0.18,0.056-0.361,0.112-0.534,0.157
		c0.099,1.637,0.198,3.274,0.298,4.9c-0.182,0.057-0.363,0.111-0.535,0.168c0.061,1.009,0.121,2.008,0.182,3.005
		c-0.019-0.303-0.037-0.616-0.057-0.942c-0.095,0.029-0.189,0.045-0.275,0.074c0.029,0.504,0.061,0.998,0.089,1.48
		c-0.085,0.027-0.173,0.055-0.251,0.07c-0.023-0.381-0.048-0.785-0.072-1.188c-0.181,0.055-0.361,0.111-0.535,0.167
		c-0.042-0.707-0.086-1.425-0.13-2.143c-0.181,0.056-0.361,0.123-0.532,0.179c0.036,0.617,0.073,1.234,0.111,1.862
		c-0.016,0.001-0.031,0.001-0.047,0.003c0.029,0.504,0.06,0.997,0.09,1.479c-0.181,0.067-0.361,0.124-0.535,0.179
		c-0.014-0.246-0.029-0.505-0.046-0.763c-0.108,0.041-0.212,0.069-0.313,0.109c0.016,0.258,0.031,0.517,0.046,0.763
		c-0.086,0.027-0.172,0.056-0.251,0.082c-0.113-1.872-0.228-3.757-0.342-5.641c-0.181,0.056-0.361,0.112-0.534,0.168
		c-0.11-1.817-0.221-3.635-0.331-5.451c-0.18,0.067-0.359,0.135-0.531,0.201c0.208,3.443,0.417,6.887,0.625,10.33
		c-0.016,0.012-0.031,0.012-0.047,0.014c0.016,0.258,0.031,0.516,0.046,0.763c-0.179,0.079-0.359,0.146-0.531,0.212
		c-0.048-0.785-0.095-1.559-0.143-2.344c-0.015,0.012-0.022,0.013-0.031,0.013c-0.026-0.448-0.054-0.897-0.082-1.356
		c-0.181,0.066-0.36,0.135-0.532,0.201c0.068,1.121,0.137,2.254,0.205,3.375c-0.18,0.067-0.36,0.135-0.533,0.201
		c0.007,0.113,0.014,0.214,0.02,0.314c-0.102,0.039-0.195,0.079-0.29,0.107c-0.047-0.773-0.095-1.559-0.142-2.333
		c-0.101,0.052-0.202,0.103-0.297,0.132c0.034,0.549,0.067,1.098,0.101,1.637c-0.017,0-0.024,0.013-0.032,0.013
		c-0.029-0.505-0.061-0.998-0.091-1.513c0.044,0.739,0.09,1.479,0.134,2.208c-0.094,0.04-0.188,0.079-0.281,0.118
		c-0.061-0.998-0.121-1.996-0.182-3.005c-0.086,0.039-0.174,0.066-0.25,0.104c-0.014-0.224-0.029-0.46-0.041-0.684
		c-0.095,0.039-0.188,0.078-0.282,0.118c-0.095-1.581-0.192-3.174-0.288-4.755c-0.18,0.078-0.358,0.156-0.531,0.223
		c0.123,2.029,0.246,4.071,0.371,6.113l0,0c0.032,0.549,0.066,1.099,0.1,1.637c-0.102,0.052-0.204,0.092-0.297,0.131
		c0.014,0.236,0.028,0.471,0.041,0.695c-0.06-0.998-0.119-1.996-0.182-3.006c-0.18,0.079-0.359,0.146-0.531,0.224
		c-0.067-1.121-0.135-2.231-0.202-3.353c-0.179,0.089-0.358,0.168-0.529,0.256c0.112,1.851,0.224,3.689,0.335,5.541
		c-0.039,0.014-0.077,0.038-0.117,0.052c-0.025-0.415-0.051-0.841-0.076-1.255c-0.068,0.037-0.132,0.063-0.194,0.09
		c-0.019-0.314-0.037-0.617-0.057-0.931c-0.179,0.101-0.357,0.179-0.528,0.257c-0.068-1.121-0.136-2.232-0.203-3.354
		c-0.18,0.078-0.358,0.168-0.53,0.246c0.125,2.053,0.249,4.094,0.372,6.135c-0.03,0.024-0.055,0.026-0.078,0.039
		c-0.016-0.27-0.033-0.551-0.05-0.83c-0.14,0.076-0.279,0.151-0.419,0.205c-0.161-2.646-0.322-5.293-0.482-7.941
		c-0.179,0.09-0.357,0.191-0.527,0.281c0.16,2.646,0.32,5.293,0.48,7.939c-0.039,0.014-0.077,0.039-0.116,0.053
		c-0.009-0.135-0.017-0.27-0.026-0.415c-0.1,0.063-0.199,0.113-0.292,0.175c0.009,0.135,0.017,0.28,0.024,0.404
		c-0.179,0.09-0.357,0.18-0.529,0.269c-0.018-0.303-0.035-0.606-0.055-0.909c-0.039,0.025-0.077,0.051-0.115,0.064
		c-0.156-2.559-0.311-5.114-0.467-7.684c-0.186,0.102-0.364,0.191-0.543,0.292c0.115,1.896,0.229,3.792,0.345,5.687
		c-0.031,0.014-0.063,0.026-0.093,0.051c0.049,0.818,0.1,1.637,0.148,2.455c-0.034-0.571-0.069-1.143-0.104-1.715
		c-0.031,0.014-0.063,0.025-0.086,0.039c0.045,0.729,0.088,1.446,0.131,2.164c-0.178,0.101-0.356,0.202-0.526,0.303
		c-0.019-0.304-0.036-0.606-0.054-0.908c-0.133,0.074-0.256,0.15-0.381,0.214c-0.025-0.427-0.051-0.842-0.076-1.257
		c-0.061,0.039-0.123,0.075-0.186,0.102c0.023,0.393,0.047,0.773,0.07,1.155c-0.069,0.039-0.14,0.077-0.209,0.126
		c-0.087-1.436-0.173-2.86-0.26-4.285c-0.178,0.112-0.355,0.201-0.526,0.303c0.106,1.75,0.212,3.486,0.317,5.237
		c-0.107,0.063-0.216,0.126-0.316,0.188c-0.041-0.661-0.081-1.334-0.122-2.007c0.024,0.393,0.048,0.785,0.071,1.166
		c-0.047,0.025-0.086,0.039-0.125,0.064c-0.025-0.428-0.051-0.842-0.076-1.268c-0.131,0.087-0.256,0.15-0.379,0.225
		c-0.063-1.031-0.127-2.085-0.189-3.128c-0.078,0.049-0.154,0.099-0.232,0.148c-0.012-0.214-0.025-0.437-0.038-0.65
		c-0.178,0.112-0.356,0.224-0.533,0.337c0.116,1.895,0.229,3.791,0.346,5.686c-0.032,0.024-0.062,0.037-0.093,0.062
		c0.029,0.472,0.058,0.953,0.086,1.425c-0.1,0.063-0.2,0.125-0.301,0.188c-0.173-2.85-0.345-5.688-0.519-8.547
		c-0.177,0.113-0.354,0.225-0.523,0.336c0.042,0.695,0.084,1.391,0.126,2.086c-0.07,0.038-0.139,0.087-0.209,0.125
		c0.102,1.684,0.204,3.354,0.307,5.036c-0.009,0.013-0.009,0.013-0.009,0.013c-0.197-3.266-0.394-6.517-0.591-9.77
		c-0.178,0.111-0.355,0.224-0.525,0.336c0.145,2.377,0.289,4.755,0.433,7.133c-0.03,0.023-0.061,0.048-0.093,0.063
		c-0.09-1.492-0.181-2.996-0.271-4.487c-0.176,0.123-0.354,0.247-0.522,0.37c0.144,2.377,0.288,4.755,0.433,7.121l-0.047,0.033
		c0.084,0.531,0.145,0.998,0.209,1.431c0.098,0.662,0.203,1.239,0.285,2.009c0.083,0.77,0.144,1.733,0.26,2.439
		c0.114,0.708,0.285,1.16,0.408,1.839c0.123,0.68,0.197,1.588,0.263,2.122c0.065,0.535,0.12,0.694,0.253,0.838
		c0.133,0.143,0.344,0.268,0.627,0.408c0.284,0.141,0.64,0.297,1.004,0.531c0.363,0.236,0.735,0.552,1.161,0.915
		c0.427,0.362,0.908,0.771,1.429,1.098c0.521,0.325,1.079,0.569,1.611,0.755c0.531,0.188,1.035,0.317,1.591,0.459
		c0.556,0.143,1.163,0.295,1.983,0.438c0.819,0.142,1.854,0.275,2.648,0.366c0.794,0.093,1.352,0.143,2.494,0.161
		c1.142,0.02,2.869,0.007,4.188-0.029c1.318-0.037,2.227-0.097,3.383-0.198c1.156-0.1,2.561-0.24,4.203-0.414
		s3.523-0.383,5.102-0.529c1.576-0.146,2.852-0.232,4.16-0.305c1.31-0.072,2.653-0.133,3.82-0.166
		c1.168-0.032,2.158-0.037,4.202-0.07c2.042-0.035,5.137-0.098,7.196-0.158c2.059-0.063,3.082-0.122,4.611-0.309
		c1.531-0.186,3.567-0.496,4.825-0.713c1.259-0.22,1.737-0.346,2.065-0.48c0.326-0.135,0.501-0.279,0.641-0.373
		c0.141-0.094,0.246-0.137,0.529-0.238c0.282-0.102,0.744-0.262,1.28-0.445c0.534-0.186,1.145-0.393,1.624-0.6
		c0.48-0.205,0.832-0.408,1.059-0.537s0.33-0.185,0.496-0.195c0.168-0.009,0.398,0.026,0.59-0.021
		c0.192-0.045,0.346-0.173,0.55-0.365s0.46-0.448,0.563-0.842c0.103-0.393,0.053-0.926,0.058-2.267
		c0.006-1.343,0.065-3.493,0.046-5.89c-0.021-2.395-0.121-5.033-0.171-6.643L180.695,112.881z"/>
	<path id="calcao_contorno" fill="none" d="M80.372,143.682c0.053-0.256,0.103-0.633,0.183-1.98c0.081-1.35,0.191-3.673,0.457-8.242
		c0.266-4.57,0.688-11.387,1.023-16.365c0.336-4.979,0.587-8.118,0.914-11.589c0.325-3.472,0.727-7.273,1.229-11.235
		c0.502-3.963,1.104-8.086,1.876-12.771c0.772-4.684,1.715-9.931,2.432-13.367c0.718-3.436,1.209-5.062,1.524-6.088
		c0.316-1.027,0.455-1.456,0.564-1.69c0.108-0.234,0.186-0.275,0.259-0.268c0.075,0.006,0.145,0.061,0.234,0.161
		c0.091,0.1,0.201,0.245,0.344,0.551c0.144,0.307,0.318,0.774,0.602,1.409c0.283,0.635,0.674,1.437,1.009,2.222
		s0.616,1.556,0.735,2.149c0.119,0.593,0.076,1.01,0.111,1.477s0.148,0.986,0.443,1.424c0.297,0.438,0.775,0.794,1.052,1.267
		c0.276,0.473,0.349,1.062,0.529,1.898c0.181,0.837,0.468,1.92,0.567,2.738c0.1,0.816,0.009,1.369-0.086,1.89
		c-0.093,0.521-0.19,1.01-0.088,1.499c0.103,0.49,0.406,0.982,0.762,1.438c0.354,0.457,0.761,0.878,1.01,1.155
		c0.25,0.277,0.343,0.409,0.432,0.535c0.088,0.125,0.174,0.244,0.309,0.773c0.134,0.531,0.316,1.475,0.386,2.128
		c0.069,0.655,0.024,1.021-0.003,1.386c-0.025,0.365-0.033,0.729-0.063,1.191c-0.029,0.463-0.082,1.024-0.075,1.54
		c0.008,0.516,0.075,0.985,0.405,1.681c0.329,0.696,0.922,1.619,1.482,2.364c0.561,0.747,1.089,1.316,1.444,1.675
		c0.355,0.357,0.538,0.504,0.701,0.764c0.164,0.261,0.311,0.635,0.43,1.111c0.12,0.479,0.217,1.061,0.268,1.735
		s0.059,1.442,0.048,2.294s-0.042,1.786,0.132,2.638c0.173,0.853,0.549,1.618,0.969,2.267c0.418,0.648,0.879,1.178,1.222,1.607
		s0.566,0.757,0.753,1.081c0.188,0.323,0.337,0.642,0.488,1.016c0.15,0.374,0.301,0.803,0.415,1.3
		c0.114,0.498,0.191,1.065,0.298,1.579c0.107,0.515,0.242,0.976,0.33,1.495s0.127,1.096,0.281,1.938
		c0.153,0.843,0.418,1.951,0.597,2.878c0.179,0.93,0.269,1.676,0.366,2.339c0.098,0.662,0.203,1.239,0.285,2.009
		c0.083,0.77,0.144,1.733,0.26,2.439c0.114,0.708,0.285,1.16,0.408,1.839c0.123,0.68,0.197,1.588,0.263,2.122
		c0.065,0.535,0.12,0.694,0.253,0.838c0.133,0.143,0.344,0.268,0.627,0.408c0.284,0.141,0.64,0.297,1.004,0.531
		c0.363,0.236,0.735,0.552,1.161,0.915c0.427,0.362,0.908,0.771,1.429,1.098c0.521,0.325,1.079,0.569,1.611,0.755
		c0.531,0.188,1.035,0.317,1.591,0.459c0.556,0.143,1.163,0.295,1.983,0.438c0.819,0.142,1.854,0.275,2.648,0.366
		c0.794,0.093,1.352,0.143,2.494,0.161c1.142,0.02,2.869,0.007,4.188-0.029c1.318-0.037,2.227-0.097,3.383-0.198
		c1.156-0.1,2.561-0.24,4.203-0.414s3.523-0.383,5.102-0.529c1.576-0.146,2.852-0.232,4.16-0.305c1.31-0.072,2.653-0.133,3.82-0.166
		c1.168-0.032,2.158-0.037,4.202-0.07c2.042-0.035,5.137-0.098,7.196-0.158c2.059-0.063,3.082-0.122,4.611-0.309
		c1.531-0.186,3.567-0.496,4.825-0.713c1.259-0.22,1.737-0.346,2.065-0.48c0.326-0.135,0.501-0.279,0.641-0.373
		c0.141-0.094,0.246-0.137,0.529-0.238c0.282-0.102,0.744-0.262,1.28-0.445c0.534-0.186,1.145-0.393,1.624-0.6
		c0.48-0.205,0.832-0.408,1.059-0.537s0.33-0.185,0.496-0.195c0.168-0.009,0.398,0.026,0.59-0.021
		c0.192-0.045,0.346-0.173,0.55-0.365s0.46-0.448,0.563-0.842c0.103-0.393,0.053-0.926,0.058-2.267
		c0.006-1.343,0.065-3.493,0.046-5.89c-0.021-2.395-0.121-5.033-0.171-6.643c-0.05-1.61-0.05-2.192-0.05-3.015
		c0-0.823,0-1.886-0.024-2.882c-0.026-0.996-0.076-1.924-0.099-2.885c-0.022-0.96-0.018-1.953-0.08-3.525
		c-0.063-1.573-0.193-3.725-0.263-5.465c-0.07-1.74-0.081-3.07-0.204-6.607c-0.122-3.535-0.358-9.278-0.817-14.949
		c-0.459-5.671-1.142-11.269-2.004-16.585c-0.862-5.317-1.906-10.354-2.939-15.139c-1.033-4.785-2.057-9.32-3.4-13.954
		c-1.345-4.634-3.01-9.37-4.615-13.634c-1.605-4.263-3.149-8.055-4.063-10.253c-0.913-2.198-1.193-2.803-1.314-3.193
		c-0.119-0.392-0.08-0.57,0.009-0.707c0.089-0.136,0.228-0.232,0.339-0.307c0.012-0.008,0.025-0.017,0.036-0.026
		c-0.036-0.002-0.077-0.003-0.126-0.006c-0.092-0.006-0.214-0.012-0.61-0.042c-0.396-0.032-1.063-0.087-1.95-0.094
		c-0.886-0.007-1.99,0.033-3.146,0.116c-1.157,0.083-2.367,0.211-4.256,0.535c-1.891,0.324-4.459,0.846-6.578,1.318
		c-2.121,0.471-3.793,0.893-5.985,1.328c-2.194,0.434-4.909,0.882-7.635,1.247c-2.726,0.364-5.462,0.645-8.771,0.946
		c-3.311,0.301-7.196,0.623-10.442,0.85c-3.248,0.227-5.855,0.361-8.24,0.491s-4.545,0.257-7,0.355
		c-2.453,0.097-5.202,0.164-7.931,0.22c-2.729,0.057-5.438,0.104-8.019,0.098c-2.581-0.007-5.036-0.067-7.336-0.121
		c-2.301-0.054-4.448-0.1-6.772-0.17c-2.323-0.071-4.825-0.165-7.894-0.251c-3.07-0.087-6.708-0.167-10.564-0.19
		c-3.855-0.024-7.928,0.01-11.299,0.006c-3.371-0.003-6.04-0.043-9.567-0.181c-3.528-0.137-7.915-0.371-11.07-0.607
		c-3.154-0.236-5.078-0.473-6.476-0.752c-1.398-0.28-2.272-0.602-3.146-0.923c0.039,0.056,0.019,0.165-0.024,0.549
		C6.322,5.35,6.232,6.27,5.981,7.963c-0.25,1.693-0.663,4.159-0.93,5.963c-0.269,1.805-0.394,2.948-0.695,4.831
		c-0.301,1.885-0.778,4.508-1.161,6.82c-0.383,2.312-0.675,4.313-0.905,6c-0.231,1.688-0.402,3.063-0.56,4.658
		c-0.158,1.595-0.303,3.41-0.461,5.608c-0.158,2.197-0.329,4.775-0.5,7.654c-0.17,2.879-0.341,6.059-0.465,9.45
		c-0.126,3.391-0.206,6.992-0.181,10.679c0.025,3.687,0.156,7.458,0.412,11.125c0.256,3.666,0.636,7.228,0.888,10.428
		c0.25,3.2,0.37,6.039,0.426,9.18c0.055,3.139,0.045,6.58,0.08,10.528c0.035,3.947,0.116,8.401,0.196,12.118
		c0.081,3.717,0.16,6.695,0.235,8.748c0.074,2.051,0.141,3.174,0.169,3.848c0.028,0.672,0.015,0.893,0.024,1.961
		c0.008,1.068,0.039,2.984,0.068,4.352c0.031,1.366,0.061,2.184,0.121,2.67c0.06,0.487,0.151,0.643,0.424,0.929
		s0.729,0.702,2.315,1.036c1.584,0.333,4.298,0.584,6.886,0.807c2.588,0.224,5.051,0.419,9.229,0.643
		c4.178,0.223,10.073,0.474,14.426,0.662c4.354,0.188,7.167,0.313,9.636,0.335c2.467,0.023,4.589-0.058,6.733-0.124
		c2.145-0.068,4.313-0.123,6.379-0.191s4.033-0.148,6.804-0.496c2.771-0.349,6.347-0.967,8.582-1.423
		c2.235-0.456,3.128-0.752,3.913-1.151c0.784-0.397,1.461-0.899,1.828-1.218C80.263,144.072,80.319,143.938,80.372,143.682z"/>
</g>
</svg>
