<?xml version="1.0" encoding="UTF-8"?>
<!DOCTYPE svg PUBLIC "-//W3C//DTD SVG 1.1//EN" "http://www.w3.org/Graphics/SVG/1.1/DTD/svg11.dtd">
<!-- Creator: CorelDRAW -->
<svg xmlns="http://www.w3.org/2000/svg" xml:space="preserve" width="181px" height="149px" version="1.1" shape-rendering="geometricPrecision" text-rendering="geometricPrecision" image-rendering="optimizeQuality" fill-rule="evenodd" clip-rule="evenodd"
viewBox="0 0 205.498 169.387"
 xmlns:xlink="http://www.w3.org/1999/xlink"
 xmlns:xodm="http://www.corel.com/coreldraw/odm/2003">
 <defs>
   <clipPath id="id0">
    <path d="M91.234 163.341c0.06,-0.29 0.117,-0.718 0.209,-2.252 0.091,-1.534 0.216,-4.174 0.518,-9.369 0.303,-5.195 0.782,-12.944 1.164,-18.604 0.382,-5.659 0.667,-9.229 1.038,-13.175 0.37,-3.946 0.826,-8.268 1.397,-12.773 0.57,-4.505 1.254,-9.192 2.132,-14.518 0.879,-5.326 1.95,-11.291 2.766,-15.197 0.815,-3.906 1.374,-5.753 1.733,-6.921 0.358,-1.167 0.516,-1.655 0.64,-1.921 0.123,-0.267 0.212,-0.313 0.296,-0.305 0.084,0.008 0.164,0.069 0.266,0.183 0.103,0.113 0.228,0.278 0.391,0.627 0.163,0.349 0.362,0.88 0.684,1.602 0.321,0.721 0.764,1.632 1.146,2.525 0.381,0.893 0.7,1.768 0.836,2.443 0.135,0.674 0.087,1.147 0.127,1.679 0.04,0.532 0.168,1.122 0.504,1.619 0.337,0.498 0.881,0.903 1.195,1.44 0.314,0.538 0.396,1.208 0.602,2.158 0.205,0.951 0.533,2.183 0.646,3.113 0.112,0.929 0.009,1.556 -0.098,2.148 -0.106,0.591 -0.218,1.148 -0.101,1.705 0.117,0.557 0.462,1.116 0.865,1.635 0.404,0.519 0.866,0.998 1.149,1.313 0.284,0.315 0.39,0.466 0.491,0.609 0.101,0.142 0.198,0.276 0.351,0.879 0.152,0.603 0.36,1.675 0.439,2.419 0.078,0.745 0.027,1.161 -0.003,1.576 -0.03,0.415 -0.039,0.828 -0.073,1.354 -0.034,0.526 -0.094,1.165 -0.085,1.751 0.008,0.586 0.085,1.119 0.46,1.91 0.375,0.791 1.048,1.84 1.685,2.689 0.637,0.848 1.239,1.495 1.643,1.902 0.404,0.407 0.611,0.574 0.797,0.87 0.186,0.296 0.351,0.72 0.488,1.263 0.137,0.544 0.246,1.205 0.304,1.972 0.058,0.767 0.067,1.64 0.054,2.608 -0.013,0.968 -0.047,2.031 0.15,2.999 0.197,0.968 0.624,1.84 1.101,2.577 0.476,0.738 1,1.339 1.389,1.826 0.39,0.488 0.644,0.862 0.856,1.23 0.213,0.367 0.384,0.729 0.555,1.154 0.171,0.425 0.342,0.913 0.472,1.479 0.13,0.566 0.218,1.21 0.339,1.795 0.121,0.584 0.275,1.108 0.375,1.699 0.1,0.59 0.145,1.246 0.32,2.204 0.174,0.958 0.476,2.218 0.678,3.273 0.203,1.055 0.305,1.904 0.416,2.657 0.112,0.753 0.231,1.409 0.325,2.284 0.094,0.875 0.163,1.97 0.294,2.774 0.131,0.804 0.325,1.317 0.465,2.09 0.14,0.772 0.225,1.805 0.299,2.412 0.074,0.607 0.137,0.79 0.288,0.952 0.104,0.112 0.251,0.215 0.437,0.32 -0.079,-0.368 -0.154,-0.732 -0.127,-0.999 0.028,-0.278 0.168,-0.45 0.332,-0.556 0.164,-0.105 0.352,-0.145 0.75,-0.063 0.398,0.082 1.007,0.284 1.729,0.399 0.723,0.115 1.56,0.144 2.868,0.151 1.309,0.007 3.089,-0.007 5.568,-0.327 2.479,-0.319 5.657,-0.943 8.788,-1.599 3.132,-0.656 6.217,-1.344 9.657,-2.107 3.44,-0.762 7.234,-1.599 10.248,-2.124 3.014,-0.525 5.249,-0.737 8.16,-0.854 2.912,-0.118 6.502,-0.139 10.137,0.024 3.635,0.163 7.316,0.511 9.976,0.862 2.66,0.351 4.298,0.706 5.688,1.227 1.391,0.522 2.533,1.21 3.226,1.734 0.693,0.524 0.938,0.884 1.054,1.193 0.116,0.309 0.104,0.568 -0.007,0.887 -0.11,0.319 -0.318,0.698 -0.526,1.077 0.192,-0.063 0.354,-0.202 0.566,-0.399 0.232,-0.218 0.523,-0.509 0.64,-0.957 0.116,-0.447 0.059,-1.052 0.065,-2.577 0.006,-1.525 0.074,-3.972 0.052,-6.694 -0.023,-2.724 -0.137,-5.723 -0.194,-7.553 -0.057,-1.831 -0.057,-2.492 -0.057,-3.427 0,-0.936 0,-2.144 -0.029,-3.276 -0.028,-1.132 -0.085,-2.187 -0.111,-3.279 -0.025,-1.092 -0.02,-2.221 -0.091,-4.009 -0.072,-1.787 -0.22,-4.234 -0.3,-6.212 -0.079,-1.979 -0.091,-3.49 -0.231,-7.51 -0.139,-4.02 -0.407,-10.55 -0.929,-16.996 -0.522,-6.446 -1.297,-12.81 -2.278,-18.854 -0.981,-6.045 -2.167,-11.77 -3.341,-17.21 -1.175,-5.44 -2.338,-10.594 -3.867,-15.864 -1.528,-5.268 -3.421,-10.651 -5.246,-15.498 -1.824,-4.847 -3.581,-9.158 -4.618,-11.657 -1.038,-2.499 -1.357,-3.186 -1.494,-3.631 -0.137,-0.445 -0.092,-0.647 0.009,-0.803 0.102,-0.155 0.258,-0.263 0.386,-0.349 0.014,-0.01 0.028,-0.019 0.041,-0.029 -0.042,-0.002 -0.088,-0.005 -0.144,-0.008 -0.105,-0.005 -0.243,-0.013 -0.693,-0.048 -0.449,-0.035 -1.21,-0.098 -2.217,-0.107 -1.008,-0.008 -2.262,0.038 -3.577,0.132 -1.316,0.095 -2.692,0.24 -4.839,0.609 -2.148,0.368 -5.068,0.962 -7.478,1.498 -2.41,0.535 -4.311,1.014 -6.805,1.509 -2.494,0.494 -5.581,1.003 -8.679,1.418 -3.098,0.414 -6.208,0.733 -9.971,1.076 -3.764,0.341 -8.181,0.707 -11.872,0.965 -3.692,0.259 -6.657,0.41 -9.367,0.559 -2.711,0.148 -5.167,0.292 -7.957,0.403 -2.79,0.11 -5.915,0.186 -9.017,0.251 -3.102,0.064 -6.181,0.117 -9.116,0.11 -2.935,-0.008 -5.725,-0.076 -8.341,-0.137 -2.615,-0.061 -5.056,-0.114 -7.698,-0.194 -2.642,-0.08 -5.486,-0.186 -8.975,-0.285 -3.49,-0.099 -7.626,-0.19 -12.01,-0.217 -4.383,-0.026 -9.013,0.012 -12.845,0.008 -3.832,-0.004 -6.865,-0.049 -10.876,-0.205 -4.011,-0.156 -8.998,-0.422 -12.585,-0.69 -3.587,-0.268 -5.773,-0.538 -7.362,-0.856 -1.59,-0.318 -2.583,-0.683 -3.577,-1.049 0.044,0.064 0.021,0.188 -0.027,0.625 -0.062,0.551 -0.164,1.597 -0.449,3.521 -0.286,1.925 -0.753,4.728 -1.058,6.779 -0.305,2.052 -0.448,3.352 -0.79,5.493 -0.342,2.141 -0.884,5.124 -1.32,7.752 -0.436,2.629 -0.767,4.904 -1.029,6.823 -0.263,1.919 -0.457,3.481 -0.636,5.294 -0.18,1.814 -0.345,3.878 -0.525,6.376 -0.18,2.497 -0.373,5.428 -0.567,8.701 -0.194,3.273 -0.388,6.888 -0.53,10.743 -0.143,3.855 -0.234,7.949 -0.206,12.14 0.029,4.192 0.177,8.48 0.468,12.648 0.291,4.169 0.724,8.217 1.009,11.855 0.285,3.638 0.422,6.865 0.485,10.435 0.063,3.57 0.051,7.481 0.091,11.969 0.04,4.488 0.131,9.552 0.223,13.777 0.091,4.225 0.182,7.612 0.266,9.945 0.084,2.332 0.162,3.609 0.193,4.373 0.031,0.764 0.017,1.015 0.027,2.23 0.01,1.214 0.044,3.393 0.078,4.946 0.035,1.554 0.069,2.484 0.137,3.037 0.068,0.553 0.171,0.73 0.482,1.055 0.311,0.325 0.83,0.798 2.632,1.177 1.802,0.38 4.886,0.665 7.829,0.918 2.942,0.254 5.742,0.476 10.492,0.73 4.75,0.254 11.451,0.539 16.4,0.753 4.95,0.214 8.149,0.356 10.954,0.382 2.806,0.026 5.218,-0.066 7.656,-0.143 2.438,-0.077 4.901,-0.139 7.25,-0.216 2.35,-0.077 4.585,-0.168 7.735,-0.565 3.151,-0.396 7.217,-1.098 9.757,-1.616 2.54,-0.519 3.556,-0.856 4.448,-1.309 0.892,-0.453 1.662,-1.024 2.078,-1.386 0.417,-0.362 0.479,-0.516 0.539,-0.807z"/>
   </clipPath>
    <clipPath id="id1">
     <path d="M126.868 7.208c-3.692,0.259 -6.657,0.41 -9.367,0.559 -2.711,0.148 -5.167,0.292 -7.957,0.403 -2.79,0.11 -5.915,0.186 -9.017,0.251l-0.168 0.003 -0.203 0.004 -0.658 0.014 -0.07 0.001 -0.359 0.007 -0.209 0.004 -0.131 0.003 -0.253 0.004 -0.26 0.005 -0.531 0.009 -0.079 0.002 -0.276 0.004 -0.23 0.004 -0.357 0.006 -0.115 0.002 -0.088 0.001 -0.101 0.001 -0.118 0.002 -0.783 0.01 -0.066 0.001c0.077,0.533 0.157,1.09 0.241,1.678 0.521,3.612 1.205,8.363 1.612,11.976 0.408,3.612 0.539,6.086 1.088,9.846 0.549,3.758 1.516,8.803 2.362,13.439 0.846,4.636 1.571,8.864 2.128,11.482 0.557,2.618 0.946,3.625 1.265,4.398 0.319,0.772 0.568,1.31 0.72,1.7 0.152,0.39 0.206,0.631 0.184,0.807 -0.021,0.175 -0.12,0.285 -0.256,0.446 -0.135,0.161 -0.307,0.373 -0.481,0.599 -0.173,0.226 -0.349,0.466 -0.581,1.057 -0.233,0.592 -0.523,1.535 -0.813,2.478l0.001 -0.001c0.014,-0.019 0.028,-0.034 0.041,-0.047l0.006 -0.006 0.009 -0.009 0.004 -0.004 0.005 -0.003 0.011 -0.008 0.001 -0.001 0.023 -0.014 0.005 -0.002 0.001 -0.001 0.01 -0.004 0.022 -0.006 0.001 0 0.004 0 0.003 -0.001 0.005 -0.001 0.007 0 0.002 0 0.005 -0.001 0.004 0 0.005 0.001 0.003 0 0.004 0 0.004 0c0.084,0.008 0.164,0.069 0.266,0.183 0.103,0.113 0.228,0.278 0.391,0.627 0.163,0.349 0.362,0.88 0.684,1.602 0.321,0.721 0.764,1.632 1.146,2.525 0.381,0.893 0.7,1.768 0.836,2.443 0.135,0.674 0.087,1.147 0.127,1.679 0.04,0.532 0.168,1.122 0.504,1.619 0.337,0.498 0.881,0.903 1.195,1.44 0.314,0.538 0.396,1.208 0.602,2.158 0.205,0.951 0.533,2.183 0.646,3.113 0.112,0.929 0.009,1.556 -0.098,2.148 -0.106,0.591 -0.218,1.148 -0.101,1.705 0.117,0.557 0.462,1.116 0.865,1.635 0.404,0.519 0.866,0.998 1.149,1.313 0.284,0.315 0.39,0.466 0.491,0.609 0.101,0.142 0.198,0.276 0.351,0.879 0.152,0.603 0.36,1.675 0.439,2.419 0.078,0.745 0.027,1.161 -0.003,1.576 -0.03,0.415 -0.039,0.828 -0.073,1.354 -0.034,0.526 -0.094,1.165 -0.085,1.751 0.008,0.586 0.085,1.119 0.46,1.91 0.375,0.791 1.048,1.84 1.685,2.689 0.637,0.848 1.239,1.495 1.643,1.902 0.404,0.407 0.611,0.574 0.797,0.87 0.186,0.296 0.351,0.72 0.488,1.263 0.137,0.544 0.246,1.205 0.304,1.972 0.058,0.767 0.067,1.64 0.054,2.608 -0.013,0.968 -0.047,2.031 0.15,2.999 0.197,0.968 0.624,1.84 1.101,2.577 0.476,0.738 1,1.339 1.389,1.826 0.39,0.488 0.644,0.862 0.856,1.23 0.213,0.367 0.384,0.729 0.555,1.154 0.171,0.425 0.342,0.913 0.472,1.479 0.13,0.566 0.218,1.21 0.339,1.795 0.121,0.584 0.275,1.108 0.375,1.699 0.1,0.59 0.145,1.246 0.32,2.204 0.174,0.958 0.476,2.218 0.678,3.273 0.203,1.055 0.305,1.904 0.416,2.657 0.112,0.753 0.231,1.409 0.325,2.284 0.094,0.875 0.163,1.97 0.294,2.774 0.131,0.804 0.325,1.317 0.465,2.09 0.14,0.772 0.225,1.805 0.299,2.412 0.074,0.607 0.137,0.79 0.288,0.952l0.005 0.005 0.005 0.006 0.005 0.005 0.01 0.01 0.006 0.005 0.015 0.016 0.012 0.01 0.005 0.005 0.006 0.005 0.005 0.006 0.006 0.005 0.012 0.01 0.012 0.01 0.006 0.005 0.006 0.005 0.013 0.01 0.006 0.005 0.019 0.015 0.007 0.005 0.007 0.005 0.02 0.015 0.007 0.005 0.007 0.005 0.028 0.02 0.014 0.009 0.008 0.005 0.015 0.01 0.015 0.01 0.015 0.01 0.008 0.005 0.016 0.009 0.008 0.005 0.008 0.005 0.016 0.01 0.016 0.01 0.025 0.014 0.009 0.006 0.008 0.004 0.009 0.005 0.009 0.005 0.008 0.005c-0.079,-0.368 -0.154,-0.732 -0.127,-0.999 0.028,-0.278 0.168,-0.45 0.332,-0.556 0.164,-0.105 0.352,-0.145 0.75,-0.063 0.398,0.082 1.007,0.284 1.729,0.399 0.723,0.115 1.56,0.144 2.868,0.151 1.309,0.007 3.089,-0.007 5.568,-0.327 2.479,-0.319 5.657,-0.943 8.788,-1.599 3.132,-0.656 6.217,-1.344 9.657,-2.107 3.44,-0.762 7.234,-1.599 10.248,-2.124 3.014,-0.525 5.249,-0.737 8.16,-0.854 2.912,-0.118 6.502,-0.139 10.137,0.024 3.635,0.163 7.316,0.511 9.976,0.862 2.66,0.351 4.298,0.706 5.688,1.227 1.391,0.522 2.533,1.21 3.226,1.734 0.693,0.524 0.938,0.884 1.054,1.193 0.116,0.309 0.104,0.568 -0.007,0.887l-0.005 0.015 -0.011 0.031 -0.006 0.015 -0.011 0.031 -0.012 0.03 -0.02 0.048 -0.006 0.015 -0.014 0.033 -0.014 0.032 -0.008 0.016 -0.022 0.049 -0.015 0.033 -0.008 0.017 -0.032 0.067 -0.008 0.016 -0.026 0.051 -0.017 0.034 -0.017 0.035 -0.018 0.034 -0.055 0.104c-0.064,0.123 -0.132,0.246 -0.201,0.371l0.036 -0.012 0.026 -0.011 0.017 -0.008 0.026 -0.012 0.026 -0.013 0.009 -0.005 0.025 -0.014 0.025 -0.016 0.017 -0.01 0.026 -0.018c0.059,-0.04 0.119,-0.088 0.182,-0.143l0.092 -0.083 0.039 -0.036 0.01 -0.009 0.01 -0.009c0.232,-0.218 0.523,-0.509 0.64,-0.957 0.116,-0.447 0.059,-1.052 0.065,-2.577 0.006,-1.525 0.074,-3.972 0.052,-6.694 -0.023,-2.724 -0.137,-5.723 -0.194,-7.553 -0.057,-1.831 -0.057,-2.492 -0.057,-3.427 0,-0.936 0,-2.144 -0.029,-3.276 -0.028,-1.132 -0.085,-2.187 -0.111,-3.279 -0.025,-1.092 -0.02,-2.221 -0.091,-4.009 -0.072,-1.787 -0.22,-4.234 -0.3,-6.212 -0.079,-1.979 -0.091,-3.49 -0.231,-7.51 -0.139,-4.02 -0.407,-10.55 -0.929,-16.996 -0.522,-6.446 -1.297,-12.81 -2.278,-18.854 -0.981,-6.045 -2.167,-11.77 -3.341,-17.21 -1.175,-5.44 -2.338,-10.594 -3.867,-15.864 -1.528,-5.268 -3.421,-10.651 -5.246,-15.498 -1.824,-4.847 -3.581,-9.158 -4.618,-11.657 -1.038,-2.499 -1.357,-3.186 -1.494,-3.631 -0.137,-0.445 -0.092,-0.647 0.009,-0.803 0.102,-0.155 0.258,-0.263 0.386,-0.349 0.014,-0.01 0.028,-0.019 0.041,-0.029 -0.042,-0.002 -0.088,-0.005 -0.144,-0.008 -0.105,-0.005 -0.243,-0.013 -0.693,-0.048 -0.449,-0.035 -1.21,-0.098 -2.217,-0.107 -1.008,-0.008 -2.262,0.038 -3.577,0.132 -1.316,0.095 -2.692,0.24 -4.839,0.609 -2.148,0.368 -5.068,0.962 -7.478,1.498 -2.41,0.535 -4.311,1.014 -6.805,1.509 -2.494,0.494 -5.581,1.003 -8.679,1.418 -3.098,0.414 -6.208,0.733 -9.971,1.076 -3.764,0.341 -8.181,0.707 -11.872,0.965z"/>
    </clipPath>
    <clipPath id="id2">
     <path d="M91.234 163.341c0.06,-0.29 0.117,-0.718 0.209,-2.252 0.091,-1.534 0.216,-4.174 0.518,-9.369 0.303,-5.195 0.782,-12.944 1.164,-18.604 0.382,-5.659 0.667,-9.229 1.038,-13.175 0.37,-3.946 0.826,-8.268 1.397,-12.773 0.57,-4.505 1.254,-9.192 2.132,-14.518 0.879,-5.326 1.95,-11.291 2.766,-15.197 0.815,-3.906 1.374,-5.753 1.733,-6.921 0.358,-1.167 0.516,-1.655 0.64,-1.921 0.123,-0.267 0.212,-0.313 0.296,-0.305 0.084,0.008 0.164,0.069 0.266,0.183 0.103,0.113 0.228,0.278 0.391,0.627 0.163,0.349 0.362,0.88 0.684,1.602 0.321,0.721 0.764,1.632 1.146,2.525 0.381,0.893 0.7,1.768 0.836,2.443 0.135,0.674 0.087,1.147 0.127,1.679 0.04,0.532 0.168,1.122 0.504,1.619 0.337,0.498 0.881,0.903 1.195,1.44 0.314,0.538 0.396,1.208 0.602,2.158 0.205,0.951 0.533,2.183 0.646,3.113 0.112,0.929 0.009,1.556 -0.098,2.148 -0.106,0.591 -0.218,1.148 -0.101,1.705 0.117,0.557 0.462,1.116 0.865,1.635 0.404,0.519 0.866,0.998 1.149,1.313 0.284,0.315 0.39,0.466 0.491,0.609 0.101,0.142 0.198,0.276 0.351,0.879 0.152,0.603 0.36,1.675 0.439,2.419 0.078,0.745 0.027,1.161 -0.003,1.576 -0.03,0.415 -0.039,0.828 -0.073,1.354 -0.034,0.526 -0.094,1.165 -0.085,1.751 0.008,0.586 0.085,1.119 0.46,1.91 0.375,0.791 1.048,1.84 1.685,2.689 0.637,0.848 1.239,1.495 1.643,1.902 0.404,0.407 0.611,0.574 0.797,0.87 0.186,0.296 0.351,0.72 0.488,1.263 0.137,0.544 0.246,1.205 0.304,1.972 0.058,0.767 0.067,1.64 0.054,2.608 -0.013,0.968 -0.047,2.031 0.15,2.999 0.197,0.968 0.624,1.84 1.101,2.577 0.476,0.738 1,1.339 1.389,1.826 0.39,0.488 0.644,0.862 0.856,1.23 0.213,0.367 0.384,0.729 0.555,1.154 0.171,0.425 0.342,0.913 0.472,1.479 0.13,0.566 0.218,1.21 0.339,1.795 0.121,0.584 0.275,1.108 0.375,1.699 0.1,0.59 0.145,1.246 0.32,2.204 0.174,0.958 0.476,2.218 0.678,3.273 0.203,1.055 0.305,1.904 0.416,2.657 0.112,0.753 0.231,1.409 0.325,2.284 0.094,0.875 0.163,1.97 0.294,2.774 0.131,0.804 0.325,1.317 0.465,2.09 0.14,0.772 0.225,1.805 0.299,2.412 0.074,0.607 0.137,0.79 0.288,0.952 0.104,0.112 0.251,0.215 0.437,0.32 -0.079,-0.368 -0.154,-0.732 -0.127,-0.999 0.028,-0.278 0.168,-0.45 0.332,-0.556 0.164,-0.105 0.352,-0.145 0.75,-0.063 0.398,0.082 1.007,0.284 1.729,0.399 0.723,0.115 1.56,0.144 2.868,0.151 1.309,0.007 3.089,-0.007 5.568,-0.327 2.479,-0.319 5.657,-0.943 8.788,-1.599 3.132,-0.656 6.217,-1.344 9.657,-2.107 3.44,-0.762 7.234,-1.599 10.248,-2.124 3.014,-0.525 5.249,-0.737 8.16,-0.854 2.912,-0.118 6.502,-0.139 10.137,0.024 3.635,0.163 7.316,0.511 9.976,0.862 2.66,0.351 4.298,0.706 5.688,1.227 1.391,0.522 2.533,1.21 3.226,1.734 0.693,0.524 0.938,0.884 1.054,1.193 0.116,0.309 0.104,0.568 -0.007,0.887 -0.11,0.319 -0.318,0.698 -0.526,1.077 0.192,-0.063 0.354,-0.202 0.566,-0.399 0.232,-0.218 0.523,-0.509 0.64,-0.957 0.116,-0.447 0.059,-1.052 0.065,-2.577 0.006,-1.525 0.074,-3.972 0.052,-6.694 -0.023,-2.724 -0.137,-5.723 -0.194,-7.553 -0.057,-1.831 -0.057,-2.492 -0.057,-3.427 0,-0.936 0,-2.144 -0.029,-3.276 -0.028,-1.132 -0.085,-2.187 -0.111,-3.279 -0.025,-1.092 -0.02,-2.221 -0.091,-4.009 -0.072,-1.787 -0.22,-4.234 -0.3,-6.212 -0.079,-1.979 -0.091,-3.49 -0.231,-7.51 -0.139,-4.02 -0.407,-10.55 -0.929,-16.996 -0.522,-6.446 -1.297,-12.81 -2.278,-18.854 -0.981,-6.045 -2.167,-11.77 -3.341,-17.21 -1.175,-5.44 -2.338,-10.594 -3.867,-15.864 -1.528,-5.268 -3.421,-10.651 -5.246,-15.498 -1.824,-4.847 -3.581,-9.158 -4.618,-11.657 -1.038,-2.499 -1.357,-3.186 -1.494,-3.631 -0.137,-0.445 -0.092,-0.647 0.009,-0.803 0.102,-0.155 0.258,-0.263 0.386,-0.349 0.014,-0.01 0.028,-0.019 0.041,-0.029 -0.042,-0.002 -0.088,-0.005 -0.144,-0.008 -0.105,-0.005 -0.243,-0.013 -0.693,-0.048 -0.449,-0.035 -1.21,-0.098 -2.217,-0.107 -1.008,-0.008 -2.262,0.038 -3.577,0.132 -1.316,0.095 -2.692,0.24 -4.839,0.609 -2.148,0.368 -5.068,0.962 -7.478,1.498 -2.41,0.535 -4.311,1.014 -6.805,1.509 -2.494,0.494 -5.581,1.003 -8.679,1.418 -3.098,0.414 -6.208,0.733 -9.971,1.076 -3.764,0.341 -8.181,0.707 -11.872,0.965 -3.692,0.259 -6.657,0.41 -9.367,0.559 -2.711,0.148 -5.167,0.292 -7.957,0.403 -2.79,0.11 -5.915,0.186 -9.017,0.251 -3.102,0.064 -6.181,0.117 -9.116,0.11 -2.935,-0.008 -5.725,-0.076 -8.341,-0.137 -2.615,-0.061 -5.056,-0.114 -7.698,-0.194 -2.642,-0.08 -5.486,-0.186 -8.975,-0.285 -3.49,-0.099 -7.626,-0.19 -12.01,-0.217 -4.383,-0.026 -9.013,0.012 -12.845,0.008 -3.832,-0.004 -6.865,-0.049 -10.876,-0.205 -4.011,-0.156 -8.998,-0.422 -12.585,-0.69 -3.587,-0.268 -5.773,-0.538 -7.362,-0.856 -1.59,-0.318 -2.583,-0.683 -3.577,-1.049 0.044,0.064 0.021,0.188 -0.027,0.625 -0.062,0.551 -0.164,1.597 -0.449,3.521 -0.286,1.925 -0.753,4.728 -1.058,6.779 -0.305,2.052 -0.448,3.352 -0.79,5.493 -0.342,2.141 -0.884,5.124 -1.32,7.752 -0.436,2.629 -0.767,4.904 -1.029,6.823 -0.263,1.919 -0.457,3.481 -0.636,5.294 -0.18,1.814 -0.345,3.878 -0.525,6.376 -0.18,2.497 -0.373,5.428 -0.567,8.701 -0.194,3.273 -0.388,6.888 -0.53,10.743 -0.143,3.855 -0.234,7.949 -0.206,12.14 0.029,4.192 0.177,8.48 0.468,12.648 0.291,4.169 0.724,8.217 1.009,11.855 0.285,3.638 0.422,6.865 0.485,10.435 0.063,3.57 0.051,7.481 0.091,11.969 0.04,4.488 0.131,9.552 0.223,13.777 0.091,4.225 0.182,7.612 0.266,9.945 0.084,2.332 0.162,3.609 0.193,4.373 0.031,0.764 0.017,1.015 0.027,2.23 0.01,1.214 0.044,3.393 0.078,4.946 0.035,1.554 0.069,2.484 0.137,3.037 0.068,0.553 0.171,0.73 0.482,1.055 0.311,0.325 0.83,0.798 2.632,1.177 1.802,0.38 4.886,0.665 7.829,0.918 2.942,0.254 5.742,0.476 10.492,0.73 4.75,0.254 11.451,0.539 16.4,0.753 4.95,0.214 8.149,0.356 10.954,0.382 2.806,0.026 5.218,-0.066 7.656,-0.143 2.438,-0.077 4.901,-0.139 7.25,-0.216 2.35,-0.077 4.585,-0.168 7.735,-0.565 3.151,-0.396 7.217,-1.098 9.757,-1.616 2.54,-0.519 3.556,-0.856 4.448,-1.309 0.892,-0.453 1.662,-1.024 2.078,-1.386 0.417,-0.362 0.479,-0.516 0.539,-0.807z"/>
    </clipPath>
    <clipPath id="id3">
     <path d="M66.397 7.915c-3.49,-0.099 -7.626,-0.19 -12.01,-0.217 -4.383,-0.026 -9.013,0.012 -12.845,0.008 -3.832,-0.004 -6.865,-0.049 -10.876,-0.205 -4.011,-0.156 -8.998,-0.422 -12.585,-0.69 -3.587,-0.268 -5.773,-0.538 -7.362,-0.856 -1.59,-0.318 -2.583,-0.683 -3.577,-1.049 0.044,0.064 0.021,0.188 -0.027,0.625 -0.062,0.551 -0.164,1.597 -0.449,3.521 -0.286,1.925 -0.753,4.728 -1.058,6.779 -0.305,2.052 -0.448,3.352 -0.79,5.493 -0.342,2.141 -0.884,5.124 -1.32,7.752 -0.436,2.629 -0.767,4.904 -1.029,6.823 -0.263,1.919 -0.457,3.481 -0.636,5.294 -0.18,1.814 -0.345,3.878 -0.525,6.376 -0.18,2.497 -0.373,5.428 -0.567,8.701 -0.194,3.273 -0.388,6.888 -0.53,10.743 -0.143,3.855 -0.234,7.949 -0.206,12.14 0.029,4.192 0.177,8.48 0.468,12.648 0.291,4.169 0.724,8.217 1.009,11.855 0.285,3.638 0.422,6.865 0.485,10.435 0.063,3.57 0.051,7.481 0.091,11.969 0.04,4.488 0.131,9.552 0.223,13.777 0.091,4.225 0.182,7.612 0.266,9.945 0.084,2.332 0.162,3.609 0.193,4.373 0.031,0.764 0.017,1.015 0.027,2.23 0.01,1.214 0.044,3.393 0.078,4.946 0.035,1.554 0.069,2.484 0.137,3.037 0.068,0.553 0.171,0.73 0.482,1.055 0.311,0.325 0.83,0.798 2.632,1.177 1.802,0.38 4.886,0.665 7.829,0.918 2.942,0.254 5.742,0.476 10.492,0.73 4.75,0.254 11.451,0.539 16.4,0.753 4.95,0.214 8.149,0.356 10.954,0.382 2.806,0.026 5.218,-0.066 7.656,-0.143 2.438,-0.077 4.901,-0.139 7.25,-0.216 2.35,-0.077 4.585,-0.168 7.735,-0.565 3.151,-0.396 7.217,-1.098 9.757,-1.616 2.54,-0.519 3.556,-0.856 4.448,-1.309 0.892,-0.453 1.662,-1.024 2.078,-1.386 0.417,-0.362 0.479,-0.516 0.539,-0.807 0.06,-0.29 0.117,-0.718 0.209,-2.252 0.091,-1.534 0.216,-4.174 0.518,-9.369 0.303,-5.195 0.782,-12.944 1.164,-18.604 0.382,-5.659 0.667,-9.229 1.038,-13.175 0.37,-3.946 0.826,-8.268 1.397,-12.773 0.57,-4.505 1.254,-9.192 2.132,-14.518 0.879,-5.326 1.95,-11.291 2.766,-15.197 0.815,-3.906 1.374,-5.753 1.733,-6.921 0.358,-1.167 0.516,-1.655 0.64,-1.921l0.003 -0.007 0.001 -0.002 0.008 -0.016 0.002 -0.005 0.003 -0.006 0.003 -0.005 0.002 -0.006 0.002 -0.004 0.004 -0.007 0.003 -0.005 0.002 -0.005 0 -0.001 0.003 -0.005 0.001 -0.002 0.002 -0.004 0.002 -0.003 0.002 -0.005 0.002 -0.002 0.001 -0.002 0.007 -0.013 0.002 -0.005 0.002 -0.003 0.002 -0.004 0.003 -0.005 0.011 -0.018 0 -0.001 0.003 -0.004 0.007 -0.011 0.006 -0.01 0.018 -0.026 0.003 -0.005c0.29,-0.943 0.58,-1.886 0.813,-2.478 0.232,-0.591 0.408,-0.831 0.581,-1.057 0.174,-0.226 0.346,-0.438 0.481,-0.599 0.136,-0.161 0.235,-0.271 0.256,-0.446 0.022,-0.176 -0.032,-0.417 -0.184,-0.807 -0.152,-0.39 -0.401,-0.928 -0.72,-1.7 -0.319,-0.773 -0.708,-1.78 -1.265,-4.398 -0.557,-2.618 -1.282,-6.846 -2.128,-11.482 -0.846,-4.636 -1.813,-9.681 -2.362,-13.439 -0.549,-3.76 -0.68,-6.234 -1.088,-9.846 -0.407,-3.613 -1.091,-8.364 -1.612,-11.976 -0.084,-0.588 -0.164,-1.145 -0.241,-1.678l-0.105 0.002 -0.092 0.001 -0.082 0.001 -0.164 0.002 -0.186 0.002 -0.056 0 -0.048 0.001 -0.206 0.002 -0.132 0.001 -0.185 0.002 -0.15 0.001 -0.008 0 -0.096 0.001 -0.083 0 -0.016 0 -0.162 0.001 -0.036 0 -0.142 0.001 -0.854 0.005 -0.012 0 -0.103 0 -0.036 0 -0.079 0 -0.06 0 -0.155 0.001 -0.502 0 -0.174 -0.001 -0.024 0 -0.113 0c-2.935,-0.008 -5.725,-0.076 -8.341,-0.137 -2.615,-0.061 -5.056,-0.114 -7.698,-0.194 -2.642,-0.08 -5.486,-0.186 -8.975,-0.285z"/>
    </clipPath>
    <clipPath id="id4">
     <path d="M91.234 163.341c0.06,-0.29 0.117,-0.718 0.209,-2.252 0.091,-1.534 0.216,-4.174 0.518,-9.369 0.303,-5.195 0.782,-12.944 1.164,-18.604 0.382,-5.659 0.667,-9.229 1.038,-13.175 0.37,-3.946 0.826,-8.268 1.397,-12.773 0.57,-4.505 1.254,-9.192 2.132,-14.518 0.879,-5.326 1.95,-11.291 2.766,-15.197 0.815,-3.906 1.374,-5.753 1.733,-6.921 0.358,-1.167 0.516,-1.655 0.64,-1.921 0.123,-0.267 0.212,-0.313 0.296,-0.305 0.084,0.008 0.164,0.069 0.266,0.183 0.103,0.113 0.228,0.278 0.391,0.627 0.163,0.349 0.362,0.88 0.684,1.602 0.321,0.721 0.764,1.632 1.146,2.525 0.381,0.893 0.7,1.768 0.836,2.443 0.135,0.674 0.087,1.147 0.127,1.679 0.04,0.532 0.168,1.122 0.504,1.619 0.337,0.498 0.881,0.903 1.195,1.44 0.314,0.538 0.396,1.208 0.602,2.158 0.205,0.951 0.533,2.183 0.646,3.113 0.112,0.929 0.009,1.556 -0.098,2.148 -0.106,0.591 -0.218,1.148 -0.101,1.705 0.117,0.557 0.462,1.116 0.865,1.635 0.404,0.519 0.866,0.998 1.149,1.313 0.284,0.315 0.39,0.466 0.491,0.609 0.101,0.142 0.198,0.276 0.351,0.879 0.152,0.603 0.36,1.675 0.439,2.419 0.078,0.745 0.027,1.161 -0.003,1.576 -0.03,0.415 -0.039,0.828 -0.073,1.354 -0.034,0.526 -0.094,1.165 -0.085,1.751 0.008,0.586 0.085,1.119 0.46,1.91 0.375,0.791 1.048,1.84 1.685,2.689 0.637,0.848 1.239,1.495 1.643,1.902 0.404,0.407 0.611,0.574 0.797,0.87 0.186,0.296 0.351,0.72 0.488,1.263 0.137,0.544 0.246,1.205 0.304,1.972 0.058,0.767 0.067,1.64 0.054,2.608 -0.013,0.968 -0.047,2.031 0.15,2.999 0.197,0.968 0.624,1.84 1.101,2.577 0.476,0.738 1,1.339 1.389,1.826 0.39,0.488 0.644,0.862 0.856,1.23 0.213,0.367 0.384,0.729 0.555,1.154 0.171,0.425 0.342,0.913 0.472,1.479 0.13,0.566 0.218,1.21 0.339,1.795 0.121,0.584 0.275,1.108 0.375,1.699 0.1,0.59 0.145,1.246 0.32,2.204 0.174,0.958 0.476,2.218 0.678,3.273 0.203,1.055 0.305,1.904 0.416,2.657 0.112,0.753 0.231,1.409 0.325,2.284 0.094,0.875 0.163,1.97 0.294,2.774 0.131,0.804 0.325,1.317 0.465,2.09 0.14,0.772 0.225,1.805 0.299,2.412 0.074,0.607 0.137,0.79 0.288,0.952 0.104,0.112 0.251,0.215 0.437,0.32 -0.079,-0.368 -0.154,-0.732 -0.127,-0.999 0.028,-0.278 0.168,-0.45 0.332,-0.556 0.164,-0.105 0.352,-0.145 0.75,-0.063 0.398,0.082 1.007,0.284 1.729,0.399 0.723,0.115 1.56,0.144 2.868,0.151 1.309,0.007 3.089,-0.007 5.568,-0.327 2.479,-0.319 5.657,-0.943 8.788,-1.599 3.132,-0.656 6.217,-1.344 9.657,-2.107 3.44,-0.762 7.234,-1.599 10.248,-2.124 3.014,-0.525 5.249,-0.737 8.16,-0.854 2.912,-0.118 6.502,-0.139 10.137,0.024 3.635,0.163 7.316,0.511 9.976,0.862 2.66,0.351 4.298,0.706 5.688,1.227 1.391,0.522 2.533,1.21 3.226,1.734 0.693,0.524 0.938,0.884 1.054,1.193 0.116,0.309 0.104,0.568 -0.007,0.887 -0.11,0.319 -0.318,0.698 -0.526,1.077 0.192,-0.063 0.354,-0.202 0.566,-0.399 0.232,-0.218 0.523,-0.509 0.64,-0.957 0.116,-0.447 0.059,-1.052 0.065,-2.577 0.006,-1.525 0.074,-3.972 0.052,-6.694 -0.023,-2.724 -0.137,-5.723 -0.194,-7.553 -0.057,-1.831 -0.057,-2.492 -0.057,-3.427 0,-0.936 0,-2.144 -0.029,-3.276 -0.028,-1.132 -0.085,-2.187 -0.111,-3.279 -0.025,-1.092 -0.02,-2.221 -0.091,-4.009 -0.072,-1.787 -0.22,-4.234 -0.3,-6.212 -0.079,-1.979 -0.091,-3.49 -0.231,-7.51 -0.139,-4.02 -0.407,-10.55 -0.929,-16.996 -0.522,-6.446 -1.297,-12.81 -2.278,-18.854 -0.981,-6.045 -2.167,-11.77 -3.341,-17.21 -1.175,-5.44 -2.338,-10.594 -3.867,-15.864 -1.528,-5.268 -3.421,-10.651 -5.246,-15.498 -1.824,-4.847 -3.581,-9.158 -4.618,-11.657 -1.038,-2.499 -1.357,-3.186 -1.494,-3.631 -0.137,-0.445 -0.092,-0.647 0.009,-0.803 0.102,-0.155 0.258,-0.263 0.386,-0.349 0.014,-0.01 0.028,-0.019 0.041,-0.029 -0.042,-0.002 -0.088,-0.005 -0.144,-0.008 -0.105,-0.005 -0.243,-0.013 -0.693,-0.048 -0.449,-0.035 -1.21,-0.098 -2.217,-0.107 -1.008,-0.008 -2.262,0.038 -3.577,0.132 -1.316,0.095 -2.692,0.24 -4.839,0.609 -2.148,0.368 -5.068,0.962 -7.478,1.498 -2.41,0.535 -4.311,1.014 -6.805,1.509 -2.494,0.494 -5.581,1.003 -8.679,1.418 -3.098,0.414 -6.208,0.733 -9.971,1.076 -3.764,0.341 -8.181,0.707 -11.872,0.965 -3.692,0.259 -6.657,0.41 -9.367,0.559 -2.711,0.148 -5.167,0.292 -7.957,0.403 -2.79,0.11 -5.915,0.186 -9.017,0.251 -3.102,0.064 -6.181,0.117 -9.116,0.11 -2.935,-0.008 -5.725,-0.076 -8.341,-0.137 -2.615,-0.061 -5.056,-0.114 -7.698,-0.194 -2.642,-0.08 -5.486,-0.186 -8.975,-0.285 -3.49,-0.099 -7.626,-0.19 -12.01,-0.217 -4.383,-0.026 -9.013,0.012 -12.845,0.008 -3.832,-0.004 -6.865,-0.049 -10.876,-0.205 -4.011,-0.156 -8.998,-0.422 -12.585,-0.69 -3.587,-0.268 -5.773,-0.538 -7.362,-0.856 -1.59,-0.318 -2.583,-0.683 -3.577,-1.049 0.044,0.064 0.021,0.188 -0.027,0.625 -0.062,0.551 -0.164,1.597 -0.449,3.521 -0.286,1.925 -0.753,4.728 -1.058,6.779 -0.305,2.052 -0.448,3.352 -0.79,5.493 -0.342,2.141 -0.884,5.124 -1.32,7.752 -0.436,2.629 -0.767,4.904 -1.029,6.823 -0.263,1.919 -0.457,3.481 -0.636,5.294 -0.18,1.814 -0.345,3.878 -0.525,6.376 -0.18,2.497 -0.373,5.428 -0.567,8.701 -0.194,3.273 -0.388,6.888 -0.53,10.743 -0.143,3.855 -0.234,7.949 -0.206,12.14 0.029,4.192 0.177,8.48 0.468,12.648 0.291,4.169 0.724,8.217 1.009,11.855 0.285,3.638 0.422,6.865 0.485,10.435 0.063,3.57 0.051,7.481 0.091,11.969 0.04,4.488 0.131,9.552 0.223,13.777 0.091,4.225 0.182,7.612 0.266,9.945 0.084,2.332 0.162,3.609 0.193,4.373 0.031,0.764 0.017,1.015 0.027,2.23 0.01,1.214 0.044,3.393 0.078,4.946 0.035,1.554 0.069,2.484 0.137,3.037 0.068,0.553 0.171,0.73 0.482,1.055 0.311,0.325 0.83,0.798 2.632,1.177 1.802,0.38 4.886,0.665 7.829,0.918 2.942,0.254 5.742,0.476 10.492,0.73 4.75,0.254 11.451,0.539 16.4,0.753 4.95,0.214 8.149,0.356 10.954,0.382 2.806,0.026 5.218,-0.066 7.656,-0.143 2.438,-0.077 4.901,-0.139 7.25,-0.216 2.35,-0.077 4.585,-0.168 7.735,-0.565 3.151,-0.396 7.217,-1.098 9.757,-1.616 2.54,-0.519 3.556,-0.856 4.448,-1.309 0.892,-0.453 1.662,-1.024 2.078,-1.386 0.417,-0.362 0.479,-0.516 0.539,-0.807z"/>
    </clipPath>
 </defs>
 <g id="VETORES">
  <metadata id="CorelCorpID_0Corel-Layer"/>
  <g>
  </g>
  <g clip-path="url(#id0)">
   <g id="_3220551764736">
    <g>
    </g>
   </g>
   <g clip-path="url(#id1)">
   </g>
   <g clip-path="url(#id2)">
    <path id="perna-direita" fill="none" d="M126.868 7.208c-3.692,0.259 -6.657,0.41 -9.367,0.559 -2.711,0.148 -5.167,0.292 -7.957,0.403 -2.79,0.11 -5.915,0.186 -9.017,0.251 -1.699,0.035 -3.39,0.067 -5.055,0.087 0.077,0.533 0.157,1.09 0.241,1.678 0.521,3.612 1.205,8.363 1.612,11.976 0.408,3.612 0.539,6.086 1.088,9.846 0.549,3.758 1.516,8.803 2.362,13.439 0.846,4.636 1.571,8.864 2.128,11.482 0.557,2.618 0.946,3.625 1.265,4.398 0.319,0.772 0.568,1.31 0.72,1.7 0.152,0.39 0.206,0.631 0.184,0.807 -0.021,0.175 -0.12,0.285 -0.256,0.446 -0.135,0.161 -0.307,0.373 -0.481,0.599 -0.173,0.226 -0.349,0.466 -0.581,1.057 -0.233,0.592 -0.523,1.535 -0.813,2.478 0.07,-0.094 0.129,-0.113 0.186,-0.108 0.084,0.008 0.164,0.069 0.266,0.183 0.103,0.113 0.228,0.278 0.391,0.627 0.163,0.349 0.362,0.88 0.684,1.602 0.321,0.721 0.764,1.632 1.146,2.525 0.381,0.893 0.7,1.768 0.836,2.443 0.135,0.674 0.087,1.147 0.127,1.679 0.04,0.532 0.168,1.122 0.504,1.619 0.337,0.498 0.881,0.903 1.195,1.44 0.314,0.538 0.396,1.208 0.602,2.158 0.205,0.951 0.533,2.183 0.646,3.113 0.112,0.929 0.009,1.556 -0.098,2.148 -0.106,0.591 -0.218,1.148 -0.101,1.705 0.117,0.557 0.462,1.116 0.865,1.635 0.404,0.519 0.866,0.998 1.149,1.313 0.284,0.315 0.39,0.466 0.491,0.609 0.101,0.142 0.198,0.276 0.351,0.879 0.152,0.603 0.36,1.675 0.439,2.419 0.078,0.745 0.027,1.161 -0.003,1.576 -0.03,0.415 -0.039,0.828 -0.073,1.354 -0.034,0.526 -0.094,1.165 -0.085,1.751 0.008,0.586 0.085,1.119 0.46,1.91 0.375,0.791 1.048,1.84 1.685,2.689 0.637,0.848 1.239,1.495 1.643,1.902 0.404,0.407 0.611,0.574 0.797,0.87 0.186,0.296 0.351,0.72 0.488,1.263 0.137,0.544 0.246,1.205 0.304,1.972 0.058,0.767 0.067,1.64 0.054,2.608 -0.013,0.968 -0.047,2.031 0.15,2.999 0.197,0.968 0.624,1.84 1.101,2.577 0.476,0.738 1,1.339 1.389,1.826 0.39,0.488 0.644,0.862 0.856,1.23 0.213,0.367 0.384,0.729 0.555,1.154 0.171,0.425 0.342,0.913 0.472,1.479 0.13,0.566 0.218,1.21 0.339,1.795 0.121,0.584 0.275,1.108 0.375,1.699 0.1,0.59 0.145,1.246 0.32,2.204 0.174,0.958 0.476,2.218 0.678,3.273 0.203,1.055 0.305,1.904 0.416,2.657 0.112,0.753 0.231,1.409 0.325,2.284 0.094,0.875 0.163,1.97 0.294,2.774 0.131,0.804 0.325,1.317 0.465,2.09 0.14,0.772 0.225,1.805 0.299,2.412 0.074,0.607 0.137,0.79 0.288,0.952 0.104,0.112 0.251,0.215 0.437,0.32 -0.079,-0.368 -0.154,-0.732 -0.127,-0.999 0.028,-0.278 0.168,-0.45 0.332,-0.556 0.164,-0.105 0.352,-0.145 0.75,-0.063 0.398,0.082 1.007,0.284 1.729,0.399 0.723,0.115 1.56,0.144 2.868,0.151 1.309,0.007 3.089,-0.007 5.568,-0.327 2.479,-0.319 5.657,-0.943 8.788,-1.599 3.132,-0.656 6.217,-1.344 9.657,-2.107 3.44,-0.762 7.234,-1.599 10.248,-2.124 3.014,-0.525 5.249,-0.737 8.16,-0.854 2.912,-0.118 6.502,-0.139 10.137,0.024 3.635,0.163 7.316,0.511 9.976,0.862 2.66,0.351 4.298,0.706 5.688,1.227 1.391,0.522 2.533,1.21 3.226,1.734 0.693,0.524 0.938,0.884 1.054,1.193 0.116,0.309 0.104,0.568 -0.007,0.887 -0.11,0.319 -0.318,0.698 -0.526,1.078 0.192,-0.064 0.354,-0.202 0.566,-0.4 0.232,-0.218 0.523,-0.509 0.64,-0.957 0.116,-0.447 0.059,-1.052 0.065,-2.577 0.006,-1.525 0.074,-3.972 0.052,-6.694 -0.023,-2.724 -0.137,-5.723 -0.194,-7.553 -0.057,-1.831 -0.057,-2.492 -0.057,-3.427 0,-0.936 0,-2.144 -0.029,-3.276 -0.028,-1.132 -0.085,-2.187 -0.111,-3.279 -0.025,-1.092 -0.02,-2.221 -0.091,-4.009 -0.072,-1.787 -0.22,-4.234 -0.3,-6.212 -0.079,-1.979 -0.091,-3.49 -0.231,-7.51 -0.139,-4.02 -0.407,-10.55 -0.929,-16.996 -0.522,-6.446 -1.297,-12.81 -2.278,-18.854 -0.981,-6.045 -2.167,-11.77 -3.341,-17.21 -1.175,-5.44 -2.338,-10.594 -3.867,-15.864 -1.528,-5.268 -3.421,-10.651 -5.246,-15.498 -1.824,-4.847 -3.581,-9.158 -4.618,-11.657 -1.038,-2.499 -1.357,-3.186 -1.494,-3.631 -0.137,-0.445 -0.092,-0.647 0.009,-0.803 0.102,-0.155 0.258,-0.263 0.386,-0.349 0.014,-0.01 0.028,-0.019 0.041,-0.029 -0.042,-0.002 -0.088,-0.005 -0.144,-0.008 -0.105,-0.005 -0.243,-0.013 -0.693,-0.048 -0.449,-0.035 -1.21,-0.098 -2.217,-0.107 -1.008,-0.008 -2.262,0.038 -3.577,0.132 -1.316,0.095 -2.692,0.24 -4.839,0.609 -2.148,0.368 -5.068,0.962 -7.478,1.498 -2.41,0.535 -4.311,1.014 -6.805,1.509 -2.494,0.494 -5.581,1.003 -8.679,1.418 -3.098,0.414 -6.208,0.733 -9.971,1.076 -3.764,0.341 -8.181,0.707 -11.872,0.965z"/>
    <g>
    </g>
   </g>
   <g clip-path="url(#id3)">
   </g>
   <g clip-path="url(#id4)">
    <path id="perna-esquerda" fill="none" d="M66.397 7.915c-3.49,-0.099 -7.626,-0.19 -12.01,-0.217 -4.383,-0.026 -9.013,0.012 -12.845,0.008 -3.832,-0.004 -6.865,-0.049 -10.876,-0.205 -4.011,-0.156 -8.998,-0.422 -12.585,-0.69 -3.587,-0.268 -5.773,-0.538 -7.362,-0.856 -1.59,-0.318 -2.583,-0.683 -3.577,-1.049 0.044,0.064 0.021,0.188 -0.027,0.625 -0.062,0.551 -0.164,1.597 -0.449,3.521 -0.286,1.925 -0.753,4.728 -1.058,6.779 -0.305,2.052 -0.448,3.352 -0.79,5.493 -0.342,2.141 -0.884,5.124 -1.32,7.752 -0.436,2.629 -0.767,4.904 -1.029,6.823 -0.263,1.919 -0.457,3.481 -0.636,5.294 -0.18,1.814 -0.345,3.878 -0.525,6.376 -0.18,2.497 -0.373,5.428 -0.567,8.701 -0.194,3.273 -0.388,6.888 -0.53,10.743 -0.143,3.855 -0.234,7.949 -0.206,12.14 0.029,4.192 0.177,8.48 0.468,12.648 0.291,4.169 0.724,8.217 1.009,11.855 0.285,3.638 0.422,6.865 0.485,10.435 0.063,3.57 0.051,7.481 0.091,11.969 0.04,4.488 0.131,9.552 0.223,13.777 0.091,4.225 0.182,7.612 0.266,9.945 0.084,2.332 0.162,3.609 0.193,4.373 0.031,0.764 0.017,1.015 0.027,2.23 0.01,1.214 0.044,3.393 0.078,4.946 0.035,1.554 0.069,2.484 0.137,3.037 0.068,0.553 0.171,0.73 0.482,1.055 0.311,0.325 0.83,0.798 2.632,1.177 1.802,0.38 4.886,0.665 7.829,0.918 2.942,0.254 5.742,0.476 10.492,0.73 4.75,0.254 11.451,0.539 16.4,0.753 4.95,0.214 8.149,0.356 10.954,0.382 2.806,0.026 5.218,-0.066 7.656,-0.143 2.438,-0.077 4.901,-0.139 7.25,-0.216 2.35,-0.077 4.585,-0.168 7.735,-0.565 3.151,-0.396 7.217,-1.098 9.757,-1.616 2.54,-0.519 3.556,-0.856 4.448,-1.309 0.892,-0.453 1.662,-1.024 2.078,-1.386 0.417,-0.362 0.479,-0.516 0.539,-0.807 0.06,-0.29 0.117,-0.718 0.209,-2.252 0.091,-1.534 0.216,-4.174 0.518,-9.369 0.303,-5.195 0.782,-12.944 1.164,-18.604 0.382,-5.659 0.667,-9.229 1.038,-13.175 0.37,-3.946 0.826,-8.268 1.397,-12.773 0.57,-4.505 1.254,-9.192 2.132,-14.518 0.879,-5.326 1.95,-11.291 2.766,-15.197 0.815,-3.906 1.374,-5.753 1.733,-6.921 0.358,-1.167 0.516,-1.655 0.64,-1.921 0.04,-0.087 0.077,-0.151 0.11,-0.197 0.29,-0.943 0.58,-1.886 0.813,-2.478 0.232,-0.591 0.408,-0.831 0.581,-1.057 0.174,-0.226 0.346,-0.438 0.481,-0.599 0.136,-0.161 0.235,-0.271 0.256,-0.446 0.022,-0.176 -0.032,-0.417 -0.184,-0.807 -0.152,-0.39 -0.401,-0.928 -0.72,-1.7 -0.319,-0.773 -0.708,-1.78 -1.265,-4.398 -0.557,-2.618 -1.282,-6.846 -2.128,-11.482 -0.846,-4.636 -1.813,-9.681 -2.362,-13.439 -0.549,-3.76 -0.68,-6.234 -1.088,-9.846 -0.407,-3.613 -1.091,-8.364 -1.612,-11.976 -0.084,-0.588 -0.164,-1.145 -0.241,-1.678 -1.376,0.017 -2.733,0.026 -4.061,0.023 -2.935,-0.008 -5.725,-0.076 -8.341,-0.137 -2.615,-0.061 -5.056,-0.114 -7.698,-0.194 -2.642,-0.08 -5.486,-0.186 -8.975,-0.285z"/>
    <path fill="white" fill-rule="nonzero" d="M200.057 90.711l0.057 0.522c0.056,0 0.091,0.011 0.147,0.023 0.023,-0.045 0.034,-0.08 0.057,-0.125l-0.261 -0.42zm-0.136 43.026c-1.339,0.964 -0.329,0.715 -0.216,2.326 0.011,0.227 -0.25,0.283 0.045,4.062 0.863,-1.794 0.317,-4.4 0.171,-6.388zm-7.602 -69.872l0 0zm7.182 68.68l0.216 0.738 -0.205 -0.738 -0.011 0zm-0.148 5.821c-0.629,-0.359 -0.293,0.978 0.137,0.59 0.136,-0.125 -0.102,-0.556 -0.137,-0.579l0 -0.011zm-1.123 -31.668c1.056,1.441 -1.509,0.272 0.375,1.384 0.567,5.243 -1.021,-0.987 -0.749,2.054 2.587,2.53 -0.59,2.803 1.475,3.416 -0.431,1.77 -0.136,5.139 -0.204,5.377 -0.034,0.114 -1.645,0.704 -0.329,0.636 1.07,3.371 0.427,-1.42 1.169,-4.833 -1.056,0.261 -0.227,-2.36 -0.307,-3.279 -0.011,-0.159 -0.226,-0.67 -0.397,-1.623 -0.17,-0.953 -0.283,-2.372 -0.102,-4.323 -0.158,-0.329 -0.408,-0.579 -0.499,-0.987 -2.7,-0.193 1.35,1.407 -0.431,2.201l-0.001 -0.023zm0.953 26.653l-0.181 -1.566c0.045,-0.193 0.93,-0.919 0.34,-1.191 -0.254,-0.122 -0.999,1.099 -0.692,1.827l0.533 0.93zm-1.645 -33.222c-0.079,0.147 -0.114,0.227 -0.193,0.374 0.023,0.046 0.057,0.091 0.079,0.136 0.057,0 0.091,0 0.148,0.012l-0.045 -0.523 0.011 0.001zm-6.025 -40.03c0.159,0.896 0.239,1.35 0.397,2.257 -0.215,-1.611 0.363,-1.531 -0.397,-2.257zm-2.746 -21.797l-2.042 -7.931c0.522,0.193 0.386,1.395 1.01,1.043 -0.227,-0.918 -0.227,-2.008 -0.488,-2.518 -0.409,-0.784 -0.67,-0.046 -0.693,-0.091 -1.259,-1.407 -0.918,-2.678 -0.964,-2.837 -1.316,0.317 -0.057,0.669 -0.022,1.929 -1.124,-1.271 -1.509,-0.023 -0.364,0.624 -0.193,1.827 0.216,1.316 0.931,3.086 -0.511,1.01 1.237,3.846 0.51,4.584 0.125,0.17 0.398,0.409 0.409,0.465l1.668 8.737c0.227,0.238 0.272,-0.454 0.318,-0.624 0.136,0.159 0.272,0.318 0.408,0.488 -0.136,1.418 0.307,1.362 -0.306,2.099 0.406,0.89 1.325,4.89 1.033,5.901 0.885,0.658 0.091,-1.634 0.114,-1.736 0.249,-1.396 1.202,1.656 0.272,2.973 1.386,6.452 0.072,-5.074 1.293,3.358 -1.27,-0.522 -0.079,2.939 -0.272,0.998 0.283,0.624 0.578,1.248 0.851,1.872 -0.602,1.169 0.215,2.133 0.238,2.258l-0.261 0.25c0.178,2.075 1.142,3.793 0.987,4.959 -0.115,0.866 -0.157,1.941 0.533,2.632 -1.166,1.618 -0.145,1.186 0.159,2.043l-0.193 0.748c0.046,0.182 0.953,0.386 0.216,2.554 2.258,1.463 -0.011,0.612 -0.046,0.771 -0.033,0.17 0.942,3.222 1.123,2.859 -0.17,0.613 -0.669,1.056 -0.283,1.907 0.556,-1.884 0.567,3.018 0.658,3.642 0.454,-0.25 0.534,-0.738 0.579,-0.738 0.113,0.023 1.588,1.873 -0.499,1.385 0.51,0.805 0.295,2.893 0.396,3.653 0.053,0.401 0.948,1.458 0.421,1.6 -0.286,0.078 -0.5,-1.735 -0.5,-0.772 0,0.262 0,0.738 0.034,1.521 0.238,1.055 0.442,-1.123 0.59,0.045 0.211,1.687 -0.324,4.186 0.125,6.025 0.521,-3.461 0.488,-2.349 0.567,-0.772 0.068,1.578 0.227,3.609 1.146,1.998 0.365,-1.178 -0.874,-6.289 -0.182,-8.408 -0.681,-1.293 -0.738,-2.825 -0.783,-4.357 -0.046,-1.532 -0.102,-3.064 -0.772,-4.323 0.375,-3.438 -0.59,-4.686 -0.703,-5.435l-2.031 -14.263c-0.011,-0.08 -0.453,-0.261 -0.533,-0.511 -0.176,-2.434 -0.197,-4.006 -0.772,-6.763 -0.022,-0.102 -0.374,-0.409 -0.397,-0.499 -0.63,-2.796 -0.881,-5.856 -1.713,-9.111 -0.375,-1.486 -0.851,-2.905 -1.475,-4.164 0.09,-0.761 -0.046,-1.884 -0.296,-3.154l0.001 0zm-6.058 -25.939c0.056,0 0.091,0 0.147,0 0.012,-0.045 0.023,-0.068 0.034,-0.124 -0.125,-0.136 -0.193,-0.193 -0.317,-0.329l0.136 0.465 0 -0.012zm16.996 117.334c0,0.583 0.851,-1.19 0.601,-1.44 -0.272,-0.137 -0.658,1.032 -0.601,1.44zm-1.52 -13.354c0.386,1.191 1.134,-0.329 0.329,-0.624 -0.273,-0.102 -0.511,0.079 -0.329,0.624zm0.59 10.314c1.691,0.287 0.363,-1.128 -0.079,-0.852 -0.799,0.497 -0.298,0.83 0.079,0.852zm-0.522 -6.649c-0.181,0.431 -0.352,0.862 -0.522,1.293 0.363,-0.125 0.817,-0.454 0.522,-1.293zm1.486 3.687l-0.26 -0.51c-1.203,-0.737 0.206,1.15 0.102,1.463 -0.335,1.004 0.568,2.666 0.158,-0.952l0 -0.001zm-0.794 -9.406c-0.034,-0.056 -0.045,-0.091 -0.079,-0.147 -0.057,0 -0.091,-0.012 -0.148,-0.023l0.023 0.544c0.079,-0.147 0.114,-0.226 0.193,-0.374l0.011 0zm-0.261 10.972c0.272,0.409 0.703,-0.647 0.397,-1.032 -0.136,-0.182 -0.749,0.51 -0.397,1.032zm-16.951 -108.438l0 0zm-0.125 0.601c0,0 0.057,0.499 0.284,0.454 -0.137,-0.443 0.033,-0.613 -0.159,-1.055l-0.125 0.601zm3.03 -3.529c0.022,-0.226 -0.273,-0.476 -0.284,-0.453 -0.124,0.215 0.227,1.021 0.284,0.453zm4.436 125.833c-0.449,-0.193 -0.692,0.083 -0.851,0.397 0.419,0.033 0.828,0.068 1.237,0.102 -0.035,-0.216 -0.148,-0.409 -0.386,-0.499l0 0zm-7.012 -120.67c0,0 0.227,0.477 -0.045,-0.703 0.015,0.234 0.03,0.469 0.045,0.703zm15.419 98.726c0,0 -0.011,-0.034 -0.023,-0.046 -0.345,0 -0.213,0.694 -0.113,0.795l0.136 -0.761 0 0.012zm-14.171 -94.766c0.068,-1.214 -0.034,-1.69 -0.851,-2.564 -0.113,0.556 0.67,2.02 0.851,2.564zm-3.596 -18.415c0.504,0.356 -0.534,-1.86 -0.534,-0.964l0.534 0.976 0 -0.012zm4.22 15.261c0.745,0.172 -0.379,-2.126 0,0zm-6.115 -19.732c0,0 0.068,-0.045 0.091,-0.091 -0.091,0 -0.171,0 -0.262,0 0.069,0.068 0.125,0.091 0.159,0.08l0.012 0.011zm8.566 27.652c0.279,0.185 -0.249,-1.81 -0.341,-0.829l0.33 0.839 0.011 -0.01zm-5.378 -18.109c-0.46,-0.133 0.367,2.024 0.261,0.737 -0.023,-0.295 -0.114,-0.658 -0.273,-0.748l0.012 0.011zm-1.43 -1.282c-0.329,0.658 0.67,1.737 0.25,0.51 -0.08,-0.238 -0.182,-0.465 -0.25,-0.51zm-2.019 -6.355c0.397,0.522 0.238,-0.272 0,-0.465 -0.023,-0.022 -0.148,0.25 0,0.465zm17.28 42.379c-0.151,-1.716 -1.779,-4.762 -0.771,-0.783 0.342,1.351 0.886,2.672 0.782,0.76l-0.011 0.023zm7.193 78.132l0 0zm1.135 11.278c-0.05,-0.264 -0.178,-1.114 -0.534,-0.919 -0.483,0.266 0.993,3.774 0.522,0.919l0.012 0zm0.669 -4.504c0.885,-1.033 0.321,-4.109 -0.76,-3.665 -0.102,-0.283 -0.216,-0.647 -0.284,-1.044 -0.249,-0.102 -0.193,0.579 -0.034,1.351 -0.079,0.114 -0.147,0.272 -0.193,0.442 -0.317,-1.27 -0.635,-2.507 -0.533,-3.869 -0.579,1.294 -0.114,3.018 0.42,4.528 -0.023,0.317 0,0.681 0.045,1.111 0.193,1.419 0.874,1.668 1.339,1.135l0 0.011zm-2.962 -19.584c0.24,0.628 0.418,-0.41 0.182,-0.647 -0.023,-0.022 -0.272,0.409 -0.182,0.647zm2.758 28.82l-0.295 0.806c0.068,0.453 0.386,-0.443 0.295,-0.806zm-6.047 -70.28c-0.238,-3.163 -1.269,-0.18 -0.352,0.465 0.193,0.137 0.386,0 0.352,-0.465zm7.068 50.457c-0.431,1.101 -0.159,1.998 0.238,3.348 -0.068,-1.112 -0.147,-2.235 -0.238,-3.348zm-0.942 23.545c0.1,0.599 0.797,-0.596 0.511,-0.863 -0.034,-0.034 -0.522,0.783 -0.511,0.863zm-7.965 -95.571c0.194,0.193 0.088,-1.333 -0.238,-1.589 -0.261,-0.204 0.068,1.441 0.238,1.6l0 -0.011zm8.43 88.445c-0.539,1.349 0.769,6.218 0.715,2.462 -0.023,-1.606 -0.501,-3.027 -0.703,-2.451l-0.012 -0.011zm-13.66 -111.07c0.374,1.577 0.828,3.211 1.395,4.583 -2.412,-3.629 -1.743,1.875 0.568,3.03 0.857,2.667 3.641,12.08 3.982,14.557 0.122,0.886 -0.683,5.033 0.205,5.548 0.133,0.078 0.891,-1.838 1.134,2.077 0.009,0.137 -0.688,0.437 -0.386,1.317 0.2,0.579 1.83,-1.588 0.375,3.165 1.475,-1.918 0.703,-0.137 0.998,0.975 0.806,2.962 1.021,3.869 0.965,3.869l-0.227 -0.454c-0.363,-0.85 -1.055,-2.461 -1.18,-1.191 1.554,2.848 0.783,3.234 1.168,4.63 0.121,0.447 1.448,2.007 1.271,2.859 -0.057,0.295 -1.248,0.147 -1.259,1.237 -0.057,4.527 2.064,1.44 2.428,2.564 0.249,1.055 0.295,2.201 0.272,3.392 -0.477,-0.768 -0.085,1.147 -0.057,1.374 0.039,0.318 -0.382,4.652 0.658,6.15 0.374,0.537 0.636,-0.51 0.636,-0.511l-1.362 -12.401c-1.25,-10.152 -5.473,-29.794 -8.055,-38.726 -1.395,-4.788 -3.064,-9.633 -4.731,-14.126l1.179 6.081 0.023 0.001zm-3.869 -11.891l0 0zm1.974 3.857c-0.306,-0.794 -0.601,-1.565 -0.885,-2.326l0.885 2.326zm12.492 115.643c0,-15.736 -1.063,-33.876 -2.962,-49.493 -0.457,0 -0.443,-0.574 -0.703,-2.348 -1.731,-11.821 -3.562,-24.122 -6.252,-35.844 -0.318,-1.384 -0.579,-2.45 -0.76,-3.074 -0.125,-0.227 -0.295,-0.068 -0.329,-0.114 4.176,17.396 7.235,35.47 8.872,53.294 0.17,1.85 0.329,3.711 0.477,5.572 -0.465,0.907 -0.919,1.826 -1.384,2.745 0.011,0.579 0.34,1.021 0.59,2.054 0.42,-0.409 0.158,-3.949 0.862,-3.994 1.108,14.011 1.456,27.626 1.248,41.687 0.091,0.034 0.182,0.068 0.261,0.114l0.08 -10.599zm-10.994 -90.93c-0.012,-0.057 -0.023,-0.114 -0.046,-0.181 -0.136,0.045 -0.283,0.091 -0.419,0.124 0.045,0.205 0.453,0.08 0.476,0.114l-0.011 -0.057zm7.273 95.866c0,-9.014 -0.427,-17.457 -0.749,-26.233 -0.046,-1.078 -0.068,-1.951 -0.068,-2.553 0.474,-0.025 -0.431,-2.068 -0.306,-2.961 0.402,-2.879 -0.801,-11.552 -1.18,-14.864 -3.056,-26.669 -6.933,-46.785 -14.228,-72.606 0.102,-0.057 0.159,-0.091 0.261,-0.148 -0.068,-0.079 0.261,-0.476 -0.521,-0.783l-5.005 -16.248c-0.045,0 -0.09,0 -0.147,0.011 14.958,45.772 22.37,92.773 21.706,140.97 0.079,0.011 0.158,0.022 0.227,0.045l0.01 -4.63zm5.071 5.06c0.33,-0.239 0.87,-2.183 0.397,-2.576l-0.828 3.052c0.046,0.297 0.801,0.081 0.589,0.92 0.114,0.068 0.227,0.136 0.33,0.204 0.124,-0.318 0.328,-0.738 0.623,-1.316 -0.453,-0.114 -0.669,-0.17 -1.123,-0.284l0.012 0zm2.167 0.704c-0.068,0 -0.692,0.726 -1.191,1.214l0.465 0.216c0.897,-0.669 1.623,-1.578 0.738,-1.418l-0.012 -0.012zm-0.635 -44.501c-0.619,-0.726 -0.031,-1.198 -0.886,-2.258 -1.018,-1.261 -0.375,0.46 0.375,1.487 -1.066,1.611 -0.08,-0.568 -1.078,-0.715 0.862,2.167 0.068,1.917 -0.227,3.529 1.042,-0.437 0.921,-3.23 1.543,-1.611 -0.804,-0.804 0.665,3.007 0.794,3.358l-0.17 -4.153c-0.148,-0.045 -0.261,0.046 -0.363,0.352l0.012 0.011zm1.486 42.697c0,-0.488 0,-1.01 0.011,-1.555 -0.453,1.101 -1.588,2.292 -0.011,1.555zm-0.284 -6.853c0.08,0.499 0.182,0.964 0.284,1.441 -0.034,-1.873 -0.091,-3.767 -0.137,-5.265l-0.147 3.824zm-1.145 -28.491l-0.613 3.562c0,0.341 0.193,2.179 0.488,4.312 -0.159,0.091 -0.272,0.148 -0.568,0.306 0.193,0.091 0.466,0.295 0.659,0.318l0.59 3.881c-0.034,-0.114 -0.046,-0.216 -0.034,-0.329 0.17,0.953 0.352,1.781 0.545,2.36 -0.352,-0.091 -0.08,1.145 0.09,1.702l-0.601 -15.749c-0.238,-0.204 -0.442,-0.352 -0.567,-0.363l0.011 0zm-2.156 13.457c-0.106,1.422 0.249,1.613 0.249,2.212 0,-0.079 0,-0.17 0.012,-0.249 0.306,0.624 0.794,0.681 1.032,0.011 0.046,0.42 0.102,1.01 0.137,1.849 0.241,-3.922 0.598,-1.744 0.669,-1.77 0.886,-0.324 -1.158,-3.195 0.25,-3.37 -0.329,-0.068 -0.897,-0.352 -0.942,-0.34 -0.079,0.033 -0.148,0.692 -0.216,0.556 -0.056,-0.137 -0.113,-1.022 -0.147,-4.017 0,-0.079 0.193,-0.306 0.261,-0.488 -1.123,-1.203 0.681,-3.416 -0.227,-3.143l-0.363 1.271 -0.306 -2.575c-0.137,-0.681 -0.25,-0.761 -0.262,-0.318 -0.113,-0.068 -0.238,0 -0.317,0.351 -1.131,-9.051 0.318,8.552 0.148,9.997l0.022 0.023zm-0.057 -9.236c0.091,0.124 0.204,0.204 0.318,0.204 0.056,0.465 0.136,1.021 0.249,1.668l-0.238 1.169c0.824,-1.622 0.378,4.736 0.363,5.174 -0.102,-0.034 -0.204,-0.023 -0.306,0.056l-0.397 -8.271 0.011 0zm-0.647 -10.065c-0.023,-0.193 0.295,-0.034 0.273,-0.227 -0.636,-0.783 -0.761,-1.713 -0.749,-2.882 -0.068,2.032 0.181,4.267 0.386,5.265 0.204,0.999 0.374,0.749 0.091,-2.155l-0.001 -0.001zm-14.863 -86.834l-1.373 -2.473c-0.045,-0.114 0.431,-1.555 -0.488,-1.861 0.261,3.596 1.906,4.993 1.861,4.334l0 0zm-2.201 -4.743c0.172,-3.164 -0.82,-1.989 -0.25,-0.385 0.069,0.193 0.159,0.34 0.262,0.386l-0.012 -0.001zm11.959 50.378c-0.658,-0.601 -0.439,2.776 0.215,2.372 0.332,-0.204 0.082,-2.093 -0.215,-2.371l0 -0.001zm-11.551 -46.327c0,-0.67 -0.701,-0.13 -0.17,0.147 0.125,0.069 0.182,-0.022 0.17,-0.147zm11.619 40.359c-0.922,-1.843 -1.088,1.712 0.079,2.077 0.401,0.125 0.237,-1.342 -0.091,-2.077l0.012 0zm3.71 23.59c0,0 -0.057,-0.08 -0.091,-0.137 -0.056,0 -0.091,0 -0.147,-0.011 -0.023,0.045 -0.034,0.079 -0.057,0.125l0.272 0.409 0.023 -0.386zm1.657 16.35c0.283,1.191 0.436,-0.401 0.09,-0.466 -0.147,-0.056 -0.158,0.216 -0.102,0.477l0.012 -0.011zm0.464 9.077c0.114,0.023 0.046,-0.783 -0.056,-0.806 -0.114,-0.023 -0.057,0.783 0.056,0.806zm-1.917 -11.846c-0.546,-0.271 0.168,1.106 0.25,1.066 0.17,-0.079 -0.227,-1.055 -0.25,-1.066zm3.733 4.664c0.125,-2.44 -1.35,-0.647 -0.987,0.306 0.227,0.601 0.953,0.431 0.987,-0.306zm-1.532 -8.874c-0.102,-0.079 -0.227,-0.158 -0.397,-0.238 -0.17,-0.079 -0.692,-0.794 -0.578,0.057l1.18 1.339c0.193,0 0.544,-0.147 0.511,-0.692l-0.715 -0.454 -0.001 -0.012zm-0.261 12.618c0.658,-0.216 -0.476,-4.868 0.261,-2.065 0.273,-0.976 -0.192,-2.11 -0.715,-2.996 0.193,2.02 0.284,3.03 0.443,5.072l0.011 -0.011zm1.214 -12.64c-0.588,-0.717 -3.228,-4.433 -2.144,-1.35 -0.023,-1.351 1.872,1.305 1.895,1.838 0.564,0.188 0.817,0.146 0.692,-0.306 -0.137,-0.227 -0.364,-0.091 -0.443,-0.182zm-3.914 0.601l-0.625 -2.87c-0.147,-1.18 -0.045,-2.712 -0.181,-3.881 -0.114,-0.964 -0.522,-1.747 -0.533,-1.838 -0.023,-0.249 0.17,-0.93 0.113,-1.395 2.598,3.176 -0.068,-0.647 1.895,-2.372 -0.356,-0.32 -0.017,-0.909 -0.794,-0.34l-0.034 0.544 -0.386 -1.1c-0.023,0.806 -2.315,-1.18 -0.511,1.1 -0.661,2.095 -0.21,1.17 -0.748,1.35l1.089 9.259c0.17,1.464 0.34,3.041 0.545,4.936 0.766,-0.014 0.448,-2.142 0.215,-3.382l-0.045 -0.011zm-189.092 -57.095l0.057 -0.556c-0.114,0.17 -0.171,0.249 -0.295,0.419 0.022,0.057 0.045,0.08 0.068,0.137 0.068,0 0.102,0 0.17,0zm2.927 -15.499c0.414,-0.176 0.489,-1.699 -0.114,-0.976 -0.218,0.262 -0.221,0.976 0.114,0.976zm1.044 -1.986c-0.125,0 -0.227,0.873 -0.114,0.873 0.125,0 0.239,-0.873 0.114,-0.873zm-4.074 26.346c0,0.239 0.318,0.114 0.318,0.148 0,-1.376 -0.317,-1.447 -0.317,-0.147l-0.001 -0.001zm1.442 -12.265c-0.456,0.365 0.108,2.607 0.204,0.545 0.023,-0.375 -0.034,-0.681 -0.204,-0.545zm2.246 -9.724c0.136,-0.283 -0.068,-0.601 -0.091,-0.578 -0.239,0.261 -0.25,1.27 0.091,0.578zm-1.01 9.361c0.48,-0.55 0.14,-1.399 0.08,-1.328 -0.159,0.148 -0.318,1.532 -0.08,1.328zm-0.476 10.269c0.261,0.033 0.17,-0.5 0.215,-0.568 -0.091,-0.238 -0.181,-0.465 -0.272,-0.703 -0.114,0.545 0.102,0.726 0.057,1.271zm-0.976 -25.144l0.238 -0.908c-0.001,-0.001 -0.553,0.592 -0.238,0.908zm-6.229 89.387c0,0.488 0.329,1.226 0.329,1.487 0,0.465 -0.569,0.492 -0.137,3.903 0.377,2.968 0.024,2.078 -0.158,5.514 -0.079,1.487 0.033,2.894 0.737,3.007l-0.113 -14.569c-0.068,-0.272 -0.476,-0.079 -0.488,-0.147 -0.193,-0.488 -0.443,-1.033 -0.658,-1.498 1.645,-2.201 -0.59,-0.375 -0.738,-1.237l-0.227 1.112c-0.102,0.057 -0.147,-0.556 -0.182,-0.579 -0.953,-0.681 -0.476,-0.045 -0.816,0.25 2.443,2.124 0.06,5.782 2.462,2.769l-0.011 -0.012zm0.749 34.63c0.133,0.758 0.555,0.348 0.204,-0.284 -0.273,-0.491 -0.214,0.229 -0.205,0.284l0.001 0zm0.057 13.07l0 0zm5.876 -128.18c0.131,0.289 0.738,-1.055 0.466,-1.396 -0.318,-0.409 -0.601,1.112 -0.476,1.396l0.01 0zm-2.461 28.093c0.513,-0.682 0.068,-1.319 0.034,-1.293 -0.159,0.137 -0.272,1.486 -0.034,1.293l0 0zm3.018 -10.449c-0.046,-0.42 -0.046,-0.42 -0.091,-0.84 -0.068,1.418 0.079,0.828 0.091,0.84zm-2.973 125.015c0,-1.658 1.325,-1.089 -0.352,-2.485 -0.067,2.157 -0.627,4.531 0.455,6.581l-0.091 -4.097 -0.012 0.001zm0.681 -5.118c-0.193,-0.272 -0.386,-0.465 -0.5,-0.442 -0.68,0.125 0.398,1.089 0.466,1.305 0.014,0.092 -0.597,3.027 0.443,0.737 0.192,-0.431 -0.091,-1.135 -0.409,-1.6l0 0zm-0.034 -5.185l-0.987 0.25c-0.352,0.408 0.907,0.737 1.372,0.567 0.521,-0.186 -0.346,-0.817 -0.385,-0.817zm-0.647 7.5c0.441,-0.34 0.041,-1.324 -0.124,-0.329l0.124 0.318 0 0.011zm0.522 5.219c-0.482,0.625 0.136,0.829 0.34,0.556 0.17,-0.227 0.125,-0.692 -0.34,-0.556l0 0zm12.492 3.291c-0.574,0.172 -0.431,0.659 -0.431,0.76 0.51,0.023 1.043,0.057 1.6,0.079 -0.055,-0.787 -0.669,-0.839 -1.169,-0.839zm-11.323 -23.215c0.136,-0.091 0.17,-0.839 -0.193,-0.851 -0.125,0 0.17,0.863 0.193,0.851zm-0.227 2.78c-0.239,-0.477 -0.477,-0.965 -0.715,-1.441 -0.272,0.806 0.272,1.226 0.715,1.441zm0.952 -105.545c0.092,-0.646 0.659,-2.428 0.421,-3.063 -0.738,1.1 -0.749,1.656 -0.421,3.063zm-2.62 84.214c0,0 0.056,-0.092 0.079,-0.137 -0.102,-0.17 -0.159,-0.249 -0.261,-0.42l0.011 0.545 0.171 0.012zm0.408 -36.014c0.326,0 -0.102,-4.471 -0.102,-1.237 0,0.579 0.034,1.18 0.102,1.237l0 0zm-0.113 51.422c-0.894,0.135 0.07,1.868 0.431,0.727 0.159,-0.534 -0.125,-0.761 -0.443,-0.715l0.012 -0.012zm-0.295 -1.531c-0.034,-0.057 -0.046,-0.092 -0.08,-0.148 -0.068,0 -0.102,0 -0.17,0 -0.023,0.045 -0.056,0.091 -0.079,0.136 0.102,0.17 0.158,0.261 0.261,0.431l0.068 -0.419zm0.658 -56.313c-0.703,0.771 -0.08,0.692 -0.045,2.428 0.01,-0.976 0.022,-1.453 0.045,-2.428zm-1.259 -31.85c0.76,0.375 0.374,-0.986 0.919,-1.225l-0.681 9.066c-0.034,1.441 0.034,2.689 0.295,3.54 -0.454,1.418 -0.703,2.995 -0.84,4.64l-0.261 10.11c-0.102,0.136 -0.295,0.34 -0.295,0.42 -0.022,0.692 -0.022,2.258 0.023,3.778 0.046,1.52 0.148,2.996 0.318,3.517 -0.046,0.273 -0.511,0.443 -0.511,0.523l0.057 15.079c0,0.386 -0.227,0.886 -0.329,1.748 -0.102,0.862 -0.102,2.076 0.364,3.914 -0.568,1.248 -0.409,2.848 -0.25,4.448 0.159,1.6 0.295,3.211 -0.306,4.448 1.071,2.347 0.288,7.397 0.839,8.726 1.214,1.827 1.158,-0.273 1.056,-1.895 -0.114,-1.623 -0.272,-2.791 0.737,0.885 0.327,-2.256 -1.404,-8.123 -0.283,-6.195 0.63,1.084 0.109,-1.909 0.09,-1.929 -0.093,-0.1 -0.19,1.762 -0.612,0.76 -0.159,-0.34 0.465,-0.794 0.476,-1.339 0.006,-0.642 -0.489,-3.033 -0.045,-3.789 -2.304,0.295 -0.897,-1.509 -0.772,-1.509 0.046,0 0.216,0.533 0.76,0.839 0.012,-0.646 -0.692,-5.82 0.216,-3.778 0.318,-0.863 -0.306,-1.373 -0.601,-2.043 0.261,0.386 0.885,-2.757 0.828,-2.939 -0.057,-0.158 -2.462,0.579 -0.17,-0.817 -1.35,-2.699 0.059,-2.251 -0.204,-2.995 -0.091,-0.273 -0.307,-0.454 -0.295,-0.522 0.159,-0.9 1.439,-0.302 -0.159,-2.167 0.94,-1.033 0.023,-3.023 0.023,-3.234l0.351 -4.947 -0.272 -0.181c0.014,-0.141 0.731,-1.162 -0.136,-2.428 0.204,-0.67 0.42,-1.339 0.624,-2.009 0.136,2.1 0.84,-1.634 -0.476,-1.089 -0.057,-4.493 0.068,-3.654 0.249,-2.553 0.182,1.1 0.409,2.44 0.59,-1.078 -0.001,-0.003 -1.289,-1.916 -0.669,-3.472 0.102,-0.261 0.272,-0.261 0.442,0.216 0.066,0.181 -0.448,2.6 0.432,1.895 -0.501,-1.088 -0.249,-5.518 0.056,-6.513 -0.816,-0.806 -0.317,-0.749 -0.748,-2.315 0.125,-0.181 0.238,-0.352 0.363,-0.545 0.079,0.182 0.261,0.965 0.476,0.693l0.137 -9.826c0,-0.069 0.261,-0.341 0.363,-0.545 -0.954,-0.806 0.42,-4.096 -0.352,-5.23 0.443,-2.043 0.999,-1.487 0.409,-3.575 1.146,-0.805 0.465,-2.235 -0.533,-0.703 -0.216,-1.452 1.111,-1.929 -0.42,-2.224 0,0.254 0.628,1.659 -0.488,3.313 -0.035,0.052 -0.458,-0.791 -0.761,0.125l-0.024 2.926zm1.429 99.475c0.375,-0.454 -0.386,-1.305 -0.533,-1.158 -0.329,0.329 0.238,1.509 0.533,1.158zm-0.545 -2.292c-0.041,-0.042 -0.594,-0.33 -0.794,0.431 -0.249,0.951 -0.031,3.554 0.431,1.656 0.128,-0.525 -0.515,-0.403 -0.011,-1.146 0.204,-0.306 0.488,-0.76 0.374,-0.941zm-0.431 6.728c0.381,-0.19 -0.771,-2.383 -0.771,-1.577 0,0.476 0.726,1.6 0.771,1.577zm0.42 -10.325c1.532,0.363 -0.397,-0.601 -0.431,-0.726 -0.091,-0.261 -0.023,-3.665 -0.692,-5.583 2.326,-0.181 -1.339,-1.078 1.373,-3.234 0.022,-3.086 -1.181,3.064 -1.056,-2.257 2.043,-0.795 -0.771,-0.057 0.284,-1.362 -2.122,-1.146 2.337,-2.077 -0.726,-2.36 -0.057,0.409 -0.318,0.624 -0.466,0.931 0.409,2.053 0.409,3.494 0.318,4.447 -0.102,0.954 -0.295,1.442 -0.295,1.589 0,0.879 1.17,3.828 -0.056,3.302 1.159,3.731 0.755,8.44 1.747,5.22l0 0.033zm-4.674 -21.263c0.014,3.917 0.406,3.121 0.363,0.987l-0.193 -4.096c0,0 0.034,0.533 -0.023,1.157 -0.045,0.624 -0.17,1.328 -0.488,1.668 0,0.193 0.329,0.091 0.329,0.283l0.012 0.001zm3.517 -95.208l-0.114 -0.568c-0.062,0.051 -0.341,0.568 0.114,0.568zm0.238 2.496l0 0zm-5.718 35.832c-0.095,-0.61 -0.473,0.418 -0.239,1.339 0.235,0.921 0.341,-0.843 0.238,-1.339l0.001 0zm2.19 23.657c-0.435,-1.114 -0.556,0.872 -0.534,1.158 0.113,1.454 1.12,-0.022 0.557,-1.158l-0.023 0zm-0.715 -8.101c0.166,2.584 1.326,0.241 0.522,-1.226 -0.395,-0.719 -0.663,0.163 -0.523,1.226l0.001 0zm-0.863 -5.685c0.77,0.625 1.071,-3.318 0.125,-2.7 -0.525,0.343 -0.485,2.426 -0.148,2.711l0.023 -0.011zm-1.35 45.329c0,0.137 0,0.273 0,0.409 0.023,-0.193 0.023,-0.329 0,-0.409zm1.657 2.031c-0.522,-1.736 -1.362,-1.645 -0.659,-3.687 -1.078,-0.057 0.148,2.224 -0.998,0.669 0,0.182 0,0.363 0,0.534l1.657 2.484zm-1.146 -4.981c-0.676,0.269 -0.522,0.936 -0.522,1.612 0.376,-0.377 0.937,-1.773 0.51,-1.612l0.012 0zm0.374 44.297l0.091 1.202c1.1,0.738 0.454,-0.181 -0.091,-1.202zm-0.159 -8.578l0.012 2.938 -0.023 -2.939 0.011 0.001zm-0.181 -13.309l0.363 -3.779c0.227,0.023 0.499,-0.102 0.715,-0.148 -0.352,-0.249 -0.477,-0.329 -0.67,-0.465 0.304,-4.302 0.306,-4.008 -0.556,-7.386l-0.352 -0.681 0.262 13.537c0.091,-0.42 0.17,-0.897 0.238,-1.43l0 0.352zm-0.647 -98.284c-0.787,9.497 -1.971,27.733 -1.918,36.921l0.761 15.568c0.839,0.249 2.416,1.6 1.804,-2.156 -0.193,-1.158 -1.476,-1.169 -1.578,-1.487 -0.484,-1.472 1.27,-1.566 0.863,-4.266 -0.281,-1.864 0.575,-3.203 0.59,-3.415 -0.352,-1.384 -0.84,0.272 -1.089,1.135l-0.171 0.476 0.398 -4.039c0.136,-1.169 -1.021,-3.166 0.93,-0.942 -2.421,-5.303 -0.277,-2.785 -0.147,-3.403 0.182,-0.919 -0.635,-1.305 -0.646,-1.464 -0.25,-5.068 0.752,-1.064 1.089,-2.507 0.277,-1.184 -1,-4.91 -1.021,-5.731 -0.068,-2.687 1.22,-13.788 1.543,-16.146 2.281,-1.266 1.947,-7.604 0.023,-3.461 0.667,-3.089 0.706,-7.291 0.669,-10.348 -0.049,-4.014 -0.116,-2.093 0.726,-5.933 0.388,-1.766 -0.059,-5.807 0.511,-5.56l0.488 2.371c0.102,0.534 0,-0.17 -0.488,-5.185 0.738,-0.613 0.658,-0.975 0.703,-1.838 0.046,-0.862 0.204,-2.224 1.441,-4.845 -0.215,-1.702 -2.53,5.514 -1.293,1.543 0.17,-5.332 0.601,-7.364 0.987,-8.271 0.753,-1.772 0.996,0.503 1.26,-4.766 -0.431,-0.136 -0.829,-0.273 -1.214,-0.409 0.336,0.68 -3.933,25.364 -4.312,28.412l-0.907 9.769 -0.002 -0.023zm5.911 114.237l-1.1 -32.269c0.806,0.193 0.908,3.801 1.43,4.3 0.158,-1.032 0.488,-1.441 0.442,-2.031 -0.635,-1.033 -1.259,-2.054 -1.895,-3.086l-0.227 -28.321c0.136,-11.265 0.535,-22.714 1.271,-33.96 0.046,-0.023 0.488,0.091 0.499,-0.125 -0.17,-0.045 -0.329,-0.091 -0.499,-0.147 0,0.091 0,0.181 -0.011,0.272 -0.045,0.034 -0.25,-0.125 -0.341,0.125 -0.651,2.869 -0.958,32.137 -0.987,37.035l-0.171 6.955c-0.045,0.204 -0.215,0.125 -0.328,0.125 0.246,20.138 1.063,40.547 2.008,60.68 0.102,0.011 0.216,0.034 0.317,0.046l-0.408 -9.599zm-2.337 -6.411c-0.068,-0.193 -0.158,-0.374 -0.249,-0.511 0.136,-0.726 0.158,-1.407 -0.125,-1.384 -0.057,0.386 -0.17,0.715 -0.272,0.976 -1.323,-0.882 -1.803,2.536 -0.5,3.642 1.559,1.322 1.294,-2.019 1.294,-2.02 0.533,-1.384 0.964,-3.007 0.215,-4.493 0.216,1.418 -0.079,2.587 -0.374,3.789l0.011 0.001zm0.749 15.533c-0.397,-0.034 -0.658,-0.056 -0.976,-0.091l1.43 0.33c-1.596,-6.228 -1.375,-1.04 -0.454,-0.25l0 0.011zm9.372 -153.529l-2.178 20.458c-0.818,0.431 -0.364,0.873 -0.42,0.975 0.102,0.046 0.215,0.091 0.318,0.148 -3.201,34.721 -3.094,59.826 -2.713,94.277 0,0.091 0.375,1.577 0.375,1.656 0.022,0.954 -0.579,2.644 -0.08,2.746 0.542,5.967 0.737,16.856 0.987,23.363l0.42 10.814c0.091,0 0.181,0.022 0.272,0.022 -2.586,-55.508 -3.446,-103.639 3.801,-159.077 0.068,-0.534 0.148,-1.079 0.216,-1.623 -0.057,0 -0.114,0 -0.17,-0.011l-0.806 6.24 -0.022 0.012zm-13.048 132.879c0.374,-1.237 0.613,-2.065 0.046,-3.313 -0.012,1.1 -0.023,2.212 -0.046,3.313zm2.201 -32.36c-0.279,0.754 -0.304,1.57 0.091,0.703 0.147,-0.363 0.249,-0.851 -0.102,-0.703l0.011 0zm-0.057 1.758c0,0 0.057,0.08 0.091,0.137 0.068,0 0.102,0 0.159,0l-0.012 -0.545 -0.238 0.408zm-0.68 10.133c0.124,0 0.102,-0.806 -0.023,-0.817 -0.125,0 -0.102,0.805 0.023,0.817zm-0.829 18.926c0.023,0.215 0.102,0.386 0.295,0.499 0.102,0.056 0.329,-2.077 0.885,1.997 0,-0.84 0,-1.43 0.034,-1.838 0.329,0.749 0.874,0.828 1.192,0.272 0,0.091 0.022,0.171 0.033,0.261 0,-1.157 0.413,-0.017 0,-2.711 0,-0.001 -0.145,-18.837 -0.556,-9.691 -0.125,-0.374 -0.261,-0.476 -0.386,-0.442 -0.105,-0.842 -0.423,0.446 -0.329,0.998 -0.034,0.477 -0.046,1.09 -0.034,1.839 -0.038,0.039 -0.385,-1.769 -0.783,-1.441 -0.283,0.193 1.305,2.394 0.273,3.199 0.102,0.216 0.34,0.488 0.351,0.579 0.239,3.177 0.25,4.005 0.17,4.051 -0.068,0.045 -0.215,-0.568 -0.295,-0.624 -0.056,-0.034 -0.691,0.102 -1.055,0.068 1.31,0.442 0.164,2.066 0.239,2.995l-0.034 -0.011zm1.736 -7.41c-0.034,-0.476 -0.17,-0.896 -0.363,-1.259 0.068,-0.636 0.113,-1.192 0.136,-1.645 0.125,0.022 0.25,-0.023 0.341,-0.137l0.261 8.374c-0.114,-0.102 -0.239,-0.148 -0.352,-0.137 -0.06,-0.56 -1.057,-7.073 0,-5.196l-0.023 0zm-0.079 25.915c-0.36,0.141 0.33,1.659 0.284,0.942l-0.284 -0.942zm0.601 -5.31c-0.29,0.052 -0.553,2.325 -0.159,1.907 0.295,-0.329 1.044,-2.054 0.159,-1.907zm-2.008 2.168c-0.564,0.983 0.31,5.897 0.681,1.543 0.113,-1.395 -0.011,-2.893 -0.67,-1.543l-0.011 0zm0.692 5.922c-0.012,0.007 -0.359,0.3 0.363,0.557 -0.159,-0.284 -0.34,-0.568 -0.363,-0.556l0 -0.001zm2.768 -141.251c-0.21,0.844 0.388,1.516 0.216,1.929 -1.789,4.313 -0.551,3.197 -0.159,2.178 0.341,-0.885 0.59,-2.417 0.363,-4.629 -0.238,0.102 -0.363,0.295 -0.42,0.522zm-3.438 42.583c0.562,0.281 0.837,-7.234 -0.193,-2.508l0.193 2.508zm4.039 -46.079c-0.482,-0.179 -0.039,2.561 0.08,2.474 0.42,-0.295 0.17,-2.36 -0.091,-2.474l0.011 0zm-5.184 97.263c0.113,-0.341 -0.08,-0.851 -0.341,-1.226 0,0.488 0,0.998 0.011,1.498 0.148,-0.011 0.261,-0.091 0.329,-0.272l0.001 0zm0.555 -10.621c0.511,-2.008 -0.363,-1.191 -1.18,-0.227 0,0.148 0.011,0.306 0.023,0.454 0.488,-0.601 1.066,-1.01 1.157,-0.227zm0.284 -8.328l0 0.545 0.25 -0.397 -0.079 -0.137 -0.171 -0.011zm-0.091 20.48c0.499,-2.734 -0.227,1.827 0.534,2.19 -0.046,-2.065 -0.068,-3.098 -0.102,-5.151 -0.466,0.828 -0.851,1.883 -0.431,2.961l-0.001 0zm0.102 -3.245c0.364,0.295 0.443,-0.862 0.148,-0.806 -0.023,0 -0.261,0.715 -0.148,0.806zm-0.635 -7.386c0.091,-0.125 0.182,-0.239 0.273,-0.306 0,-0.536 -0.082,-0.592 -1.033,0 0.023,0.386 0.034,0.771 0.045,1.157l0.715 -0.851z"/>
   </g>
  </g>
  <path fill="none" d="M91.234 163.341c0.06,-0.29 0.117,-0.718 0.209,-2.252 0.091,-1.534 0.216,-4.174 0.518,-9.369 0.303,-5.195 0.782,-12.944 1.164,-18.604 0.382,-5.659 0.667,-9.229 1.038,-13.175 0.37,-3.946 0.826,-8.268 1.397,-12.773 0.57,-4.505 1.254,-9.192 2.132,-14.518 0.879,-5.326 1.95,-11.291 2.766,-15.197 0.815,-3.906 1.374,-5.753 1.733,-6.921 0.358,-1.167 0.516,-1.655 0.64,-1.921 0.123,-0.267 0.212,-0.313 0.296,-0.305 0.084,0.008 0.164,0.069 0.266,0.183 0.103,0.113 0.228,0.278 0.391,0.627 0.163,0.349 0.362,0.88 0.684,1.602 0.321,0.721 0.764,1.632 1.146,2.525 0.381,0.893 0.7,1.768 0.836,2.443 0.135,0.674 0.087,1.147 0.127,1.679 0.04,0.532 0.168,1.122 0.504,1.619 0.337,0.498 0.881,0.903 1.195,1.44 0.314,0.538 0.396,1.208 0.602,2.158 0.205,0.951 0.533,2.183 0.646,3.113 0.112,0.929 0.009,1.556 -0.098,2.148 -0.106,0.591 -0.218,1.148 -0.101,1.705 0.117,0.557 0.462,1.116 0.865,1.635 0.404,0.519 0.866,0.998 1.149,1.313 0.284,0.315 0.39,0.466 0.491,0.609 0.101,0.142 0.198,0.276 0.351,0.879 0.152,0.603 0.36,1.675 0.439,2.419 0.078,0.745 0.027,1.161 -0.003,1.576 -0.03,0.415 -0.039,0.828 -0.073,1.354 -0.034,0.526 -0.094,1.165 -0.085,1.751 0.008,0.586 0.085,1.119 0.46,1.91 0.375,0.791 1.048,1.84 1.685,2.689 0.637,0.848 1.239,1.495 1.643,1.902 0.404,0.407 0.611,0.574 0.797,0.87 0.186,0.296 0.351,0.72 0.488,1.263 0.137,0.544 0.246,1.205 0.304,1.972 0.058,0.767 0.067,1.64 0.054,2.608 -0.013,0.968 -0.047,2.031 0.15,2.999 0.197,0.968 0.624,1.84 1.101,2.577 0.476,0.738 1,1.339 1.389,1.826 0.39,0.488 0.644,0.862 0.856,1.23 0.213,0.367 0.384,0.729 0.555,1.154 0.171,0.425 0.342,0.913 0.472,1.479 0.13,0.566 0.218,1.21 0.339,1.795 0.121,0.584 0.275,1.108 0.375,1.699 0.1,0.59 0.145,1.246 0.32,2.204 0.174,0.958 0.476,2.218 0.678,3.273 0.203,1.055 0.305,1.904 0.416,2.657 0.112,0.753 0.231,1.409 0.325,2.284 0.094,0.875 0.163,1.97 0.294,2.774 0.131,0.804 0.325,1.317 0.465,2.09 0.14,0.772 0.225,1.805 0.299,2.412 0.074,0.607 0.137,0.79 0.288,0.952 0.104,0.112 0.251,0.215 0.437,0.32 -0.079,-0.368 -0.154,-0.732 -0.127,-0.999 0.028,-0.278 0.168,-0.45 0.332,-0.556 0.164,-0.105 0.352,-0.145 0.75,-0.063 0.398,0.082 1.007,0.284 1.729,0.399 0.723,0.115 1.56,0.144 2.868,0.151 1.309,0.007 3.089,-0.007 5.568,-0.327 2.479,-0.319 5.657,-0.943 8.788,-1.599 3.132,-0.656 6.217,-1.344 9.657,-2.107 3.44,-0.762 7.234,-1.599 10.248,-2.124 3.014,-0.525 5.249,-0.737 8.16,-0.854 2.912,-0.118 6.502,-0.139 10.137,0.024 3.635,0.163 7.316,0.511 9.976,0.862 2.66,0.351 4.298,0.706 5.688,1.227 1.391,0.522 2.533,1.21 3.226,1.734 0.693,0.524 0.938,0.884 1.054,1.193 0.116,0.309 0.104,0.568 -0.007,0.887 -0.11,0.319 -0.318,0.698 -0.526,1.077 0.192,-0.063 0.354,-0.202 0.566,-0.399 0.232,-0.218 0.523,-0.509 0.64,-0.957 0.116,-0.447 0.059,-1.052 0.065,-2.577 0.006,-1.525 0.074,-3.972 0.052,-6.694 -0.023,-2.724 -0.137,-5.723 -0.194,-7.553 -0.057,-1.831 -0.057,-2.492 -0.057,-3.427 0,-0.936 0,-2.144 -0.029,-3.276 -0.028,-1.132 -0.085,-2.187 -0.111,-3.279 -0.025,-1.092 -0.02,-2.221 -0.091,-4.009 -0.072,-1.787 -0.22,-4.234 -0.3,-6.212 -0.079,-1.979 -0.091,-3.49 -0.231,-7.51 -0.139,-4.02 -0.407,-10.55 -0.929,-16.996 -0.522,-6.446 -1.297,-12.81 -2.278,-18.854 -0.981,-6.045 -2.167,-11.77 -3.341,-17.21 -1.175,-5.44 -2.338,-10.594 -3.867,-15.864 -1.528,-5.268 -3.421,-10.651 -5.246,-15.498 -1.824,-4.847 -3.581,-9.158 -4.618,-11.657 -1.038,-2.499 -1.357,-3.186 -1.494,-3.631 -0.137,-0.445 -0.092,-0.647 0.009,-0.803 0.102,-0.155 0.258,-0.263 0.386,-0.349 0.014,-0.01 0.028,-0.019 0.041,-0.029 -0.042,-0.002 -0.088,-0.005 -0.144,-0.008 -0.105,-0.005 -0.243,-0.013 -0.693,-0.048 -0.449,-0.035 -1.21,-0.098 -2.217,-0.107 -1.008,-0.008 -2.262,0.038 -3.577,0.132 -1.316,0.095 -2.692,0.24 -4.839,0.609 -2.148,0.368 -5.068,0.962 -7.478,1.498 -2.41,0.535 -4.311,1.014 -6.805,1.509 -2.494,0.494 -5.581,1.003 -8.679,1.418 -3.098,0.414 -6.208,0.733 -9.971,1.076 -3.764,0.341 -8.181,0.707 -11.872,0.965 -3.692,0.259 -6.657,0.41 -9.367,0.559 -2.711,0.148 -5.167,0.292 -7.957,0.403 -2.79,0.11 -5.915,0.186 -9.017,0.251 -3.102,0.064 -6.181,0.117 -9.116,0.11 -2.935,-0.008 -5.725,-0.076 -8.341,-0.137 -2.615,-0.061 -5.056,-0.114 -7.698,-0.194 -2.642,-0.08 -5.486,-0.186 -8.975,-0.285 -3.49,-0.099 -7.626,-0.19 -12.01,-0.217 -4.383,-0.026 -9.013,0.012 -12.845,0.008 -3.832,-0.004 -6.865,-0.049 -10.876,-0.205 -4.011,-0.156 -8.998,-0.422 -12.585,-0.69 -3.587,-0.268 -5.773,-0.538 -7.362,-0.856 -1.59,-0.318 -2.583,-0.683 -3.577,-1.049 0.044,0.064 0.021,0.188 -0.027,0.625 -0.062,0.551 -0.164,1.597 -0.449,3.521 -0.286,1.925 -0.753,4.728 -1.058,6.779 -0.305,2.052 -0.448,3.352 -0.79,5.493 -0.342,2.141 -0.884,5.124 -1.32,7.752 -0.436,2.629 -0.767,4.904 -1.029,6.823 -0.263,1.919 -0.457,3.481 -0.636,5.294 -0.18,1.814 -0.345,3.878 -0.525,6.376 -0.18,2.497 -0.373,5.428 -0.567,8.701 -0.194,3.273 -0.388,6.888 -0.53,10.743 -0.143,3.855 -0.234,7.949 -0.206,12.14 0.029,4.192 0.177,8.48 0.468,12.648 0.291,4.169 0.724,8.217 1.009,11.855 0.285,3.638 0.422,6.865 0.485,10.435 0.063,3.57 0.051,7.481 0.091,11.969 0.04,4.488 0.131,9.552 0.223,13.777 0.091,4.225 0.182,7.612 0.266,9.945 0.084,2.332 0.162,3.609 0.193,4.373 0.031,0.764 0.017,1.015 0.027,2.23 0.01,1.214 0.044,3.393 0.078,4.946 0.035,1.554 0.069,2.484 0.137,3.037 0.068,0.553 0.171,0.73 0.482,1.055 0.311,0.325 0.83,0.798 2.632,1.177 1.802,0.38 4.886,0.665 7.829,0.918 2.942,0.254 5.742,0.476 10.492,0.73 4.75,0.254 11.451,0.539 16.4,0.753 4.95,0.214 8.149,0.356 10.954,0.382 2.806,0.026 5.218,-0.066 7.656,-0.143 2.438,-0.077 4.901,-0.139 7.25,-0.216 2.35,-0.077 4.585,-0.168 7.735,-0.565 3.151,-0.396 7.217,-1.098 9.757,-1.616 2.54,-0.519 3.556,-0.856 4.448,-1.309 0.892,-0.453 1.662,-1.024 2.078,-1.386 0.417,-0.362 0.479,-0.516 0.539,-0.807z"/>
 </g>
</svg>
