<?xml version="1.0" encoding="UTF-8"?>
<!DOCTYPE svg PUBLIC "-//W3C//DTD SVG 1.1//EN" "http://www.w3.org/Graphics/SVG/1.1/DTD/svg11.dtd">
<!-- Creator: CorelDRAW -->
<svg xmlns="http://www.w3.org/2000/svg" xml:space="preserve" width="238px" height="298px" version="1.1" shape-rendering="geometricPrecision" text-rendering="geometricPrecision" image-rendering="optimizeQuality" fill-rule="evenodd" clip-rule="evenodd"
viewBox="0 0 238 298.123"
 xmlns:xlink="http://www.w3.org/1999/xlink"
 xmlns:xodm="http://www.corel.com/coreldraw/odm/2003">
 <defs>
   <clipPath id="id0">
    <path d="M207.298 27.894c-0.11,-0.063 -0.222,-0.122 -0.337,-0.177 -4.975,-2.38 -9.714,-5.334 -14.858,-7.149 -4.647,-1.639 -11.454,-2.699 -17.288,-4.719 -2.277,-0.789 -4.556,-1.589 -6.82,-2.415l-0.004 -0.03 -9.999 -4.08 -0.175 -0.072c-0.614,-0.28 -1.553,-1.207 -2.512,-1.889 -0.494,-0.369 -0.613,-0.563 -1.038,-0.905 -2.856,-2.299 -5.606,-5.635 -9.574,-5.641 -0.901,-0.002 -1.04,-0.123 -1.779,-0.163l-7.601 -0.17c-5.892,-0.486 -12.055,-0.501 -18.06,-0.477 -5.087,0.02 -9.557,0.063 -14.567,0.477 -2.529,0.209 -4.996,0.029 -7.6,0.17 -0.739,0.04 -0.878,0.161 -1.779,0.163 -3.968,0.006 -6.718,3.342 -9.575,5.641 -0.424,0.342 -0.543,0.536 -1.037,0.905 -0.741,0.527 -1.471,1.2 -2.047,1.608 -0.17,0.121 -0.326,0.218 -0.465,0.281l-10.174 4.152 -0.003 0.03c-2.265,0.826 -4.544,1.626 -6.821,2.415 -5.834,2.02 -12.641,3.08 -17.288,4.719 -5.144,1.815 -9.883,4.769 -14.858,7.149 -0.212,0.101 -0.412,0.215 -0.605,0.339 -0.909,0.583 -1.664,1.379 -2.651,2.001 -11.263,7.099 -18.243,27.467 -21.401,39.215 -1.569,5.839 -1.98,12.983 -2.969,19.04 -0.5,3.067 -1.172,6.193 -1.752,9.253 -0.585,3.095 -0.872,6.493 -1.288,9.631 -0.406,0.268 -0.327,-0.023 -0.308,0.899l-0.065 1.854 0 8.783c0.041,1.018 0.102,1.813 0.186,2.164 1.125,0.477 3.706,0.514 5.07,0.712 7.662,1.114 9.041,0.828 15.791,1.554l21.547 1.349c-0.015,-1.623 0.547,-10.725 0.578,-13.424l-0.603 -0.316 -0.07 -0.036c0,-4.476 -0.011,-9.226 -0.011,-13.7 1.678,4.247 3.328,18.944 3.789,24.023 0.735,8.116 1.826,16.186 2.512,24.347 0.348,4.137 0.874,8.269 1.009,12.419l0.653 12.776c0.396,4.199 0.208,8.934 0.274,13.179 0.032,2.062 0.194,4.007 0.186,6.13 -0.007,2.226 -0.172,4.349 -0.196,6.512 -0.051,4.469 -0.054,8.634 -0.319,13.111 -0.68,11.475 -1.257,26.076 -3.267,37.02 -0.966,5.407 -2.177,11.944 -2.754,17.389 -0.258,2.432 -0.827,10.057 -1.468,11.951 -0.68,2.01 -0.163,3.658 -0.568,5.77 -0.342,1.785 -0.742,3.812 -1.164,5.568 -0.463,1.93 -1.435,3.647 0.397,4.966 4.276,1.054 8.552,2.108 13.913,3.017 5.36,0.909 11.804,1.672 18.03,2.048 6.226,0.375 12.232,0.363 21.568,0.476 9.335,0.112 21.999,0.351 32.523,0.382 10.525,0.032 18.909,-0.144 26.242,-0.419 7.333,-0.275 13.615,-0.65 19.058,-1.151 5.443,-0.501 10.048,-1.126 13.829,-1.873 3.78,-0.746 6.736,-1.613 9.693,-2.48 1.832,-1.319 0.86,-3.036 0.397,-4.966 -0.422,-1.756 -0.822,-3.783 -1.164,-5.568 -0.405,-2.112 0.112,-3.76 -0.568,-5.77 -0.641,-1.894 -1.21,-9.519 -1.468,-11.951 -0.577,-5.445 -1.788,-11.982 -2.754,-17.389 -2.01,-10.944 -2.587,-25.545 -3.267,-37.02 -0.265,-4.477 -0.268,-8.642 -0.319,-13.111 -0.024,-2.163 -0.189,-4.286 -0.196,-6.512 -0.008,-2.123 0.154,-4.068 0.186,-6.13 0.066,-4.245 -0.122,-8.98 0.274,-13.179l0.653 -12.776c0.135,-4.15 0.661,-8.282 1.009,-12.419 0.686,-8.161 1.777,-16.231 2.512,-24.347 0.461,-5.079 1.889,-19.043 3.568,-23.29 0,4.474 -0.105,8.584 -0.105,13.06l0 0 -0.416 0.247c-0.004,0.882 0.338,12.091 0.604,13.423l21.579 -1.336c6.75,-0.726 8.129,-0.44 15.791,-1.554 1.364,-0.198 3.945,-0.235 5.07,-0.712 0.084,-0.351 0.145,-1.146 0.186,-2.164l0 -8.783 -0.065 -1.854c0.014,-0.687 0.062,-0.7 -0.083,-0.774 -0.05,-0.025 -0.122,-0.057 -0.225,-0.125 -0.416,-3.138 -0.703,-6.536 -1.288,-9.631 -0.58,-3.06 -1.252,-6.186 -1.752,-9.253 -0.989,-6.057 -1.4,-13.201 -2.969,-19.04 -3.158,-11.748 -10.138,-32.116 -21.401,-39.215 -1.057,-0.665 -1.895,-1.576 -2.919,-2.163z"/>
   </clipPath>
 </defs>
 <g id="VETORES">
  <metadata id="CorelCorpID_0Corel-Layer"/>
  <g>
  </g>
  <g clip-path="url(#id0)">
   <g id="_1763301049200">
    <path fill="#0062D9" fill-rule="nonzero" d="M166.261 118.459c-3.083,3.083 -0.087,2.31 0.281,3.914 1.812,-0.961 1.361,-3.063 -0.281,-3.914zm0.43 5.015c-2.586,1.608 -1.249,3.573 0.091,3.573 1.591,0 2.042,-3.293 -0.091,-3.574l0 0.001zm-0.82 -9.96l-0.14 0.139c-1.872,1.422 -0.771,3.294 0.37,3.514 1.592,0 1.362,-3.033 -0.23,-3.664l0 0.011zm6.577 6.246c0,-0.451 -0.451,-1.392 -1.302,-1.221 -1.191,0.06 -1.421,0.991 -1.872,1.701 0.681,0.481 1.132,1.162 1.812,1.642 0.231,-0.941 1.592,-1.161 1.362,-2.132l0 0.01zm-0.451 -3.974c0.231,-1.192 -0.68,-1.872 -1.672,-2.413 -0.43,0.061 -1.021,0.771 -1.501,1.792 0.68,0.621 1.361,1.082 1.812,2.012 0.68,-0.23 1.131,-0.711 1.361,-1.391l0 0zm1.902 -3.003c-0.09,-0.651 -0.6,-1.302 -1.531,-1.872 -1.842,1.962 -1.932,2.492 0.37,3.774 0.821,-0.621 1.221,-1.282 1.161,-1.902zm-8.288 -3.834c-0.511,0 -1.082,0.51 -1.762,1.641 0.68,0.481 1.111,1.422 1.791,1.422 0.661,0 2.823,-2.019 -0.03,-3.063l0.001 0zm3.884 20.231c1.131,-0.481 1.812,-3.064 -0.341,-3.544 -0.31,0.06 -0.71,0.651 -1.051,1.192 -1.562,1.161 0.941,2.582 1.392,2.352l0 0zm0.681 -16.908c0.23,-0.711 1.131,-1.421 1.131,-2.132 0,-0.451 -0.681,-1.422 -1.502,-1.282 -2.583,1.051 -0.541,2.443 0.371,3.404l0 0.01zm-17.65 -30.252c-0.45,0 -1.021,0.511 -1.842,1.332 0.941,2.132 2.303,1.421 3.434,0 -0.28,-0.281 -1.111,-1.332 -1.592,-1.332zm0.371 -4.594c-0.991,0.741 -1.592,1.191 -1.622,1.591 0.11,0.601 0.571,1.532 1.251,1.532 1.592,0 2.273,-2.102 0.371,-3.123zm1.111 15.516c-0.37,0 -0.851,0.541 -1.642,1.421 0.401,0.741 1.302,1.222 1.532,1.932 0.681,-0.711 1.131,-1.191 1.792,-1.902 -0.608,-0.206 -1.191,-1.451 -1.682,-1.451zm11.342 -2.463c-0.48,0 -1.081,0.451 -1.872,1.452 0.601,0.37 0.821,1.791 1.702,1.531 1.361,-0.23 2.273,-2.352 0.17,-2.983l0 0zm-12.453 -22.363c0.03,-0.4 -0.511,-0.941 -1.392,-1.842 -2.132,1.562 -2.132,1.532 -0.26,3.464 0.991,-0.771 1.592,-1.221 1.641,-1.621l0.011 -0.001zm3.804 18.049c0,0 -0.03,-0.03 -0.03,-0.06 -1.642,1.021 -2.102,2.893 -0.31,3.123 0.45,0 1.812,-0.711 1.591,-1.642 -0.147,-0.825 -1.137,-1.421 -1.251,-1.421zm3.604 -15.096c-2.16,1.672 -2.162,1.652 -0.311,3.314 2.153,-1.702 2.153,-1.642 0.31,-3.324l0.001 0.01zm3.774 8.429c-2.132,1.792 -2.302,1.902 -0.4,3.323 1.957,-1.298 2.383,-2.101 0.4,-3.323l0 0zm-1.251 -10.621c-1.051,0.821 -1.672,1.331 -1.702,1.702 0.45,0.57 0.911,1.731 1.361,1.501 1.592,-0.48 2.473,-2.132 0.341,-3.203zm-3.294 127.243c0.231,-0.941 -0.681,-1.642 -1.471,-1.842 -0.991,0.34 -1.592,0.911 -1.622,1.531 0.37,1.962 2.863,1.962 3.093,0.311l0 0zm2.443 -7.038l-1.472 -1.051c-1.251,1.051 -2.212,2.953 -0.14,2.953 0.681,0 1.842,-0.711 1.622,-1.902l-0.01 0zm0.29 -12.232c-1.78,-1.179 -1.693,-2.507 -3.514,0.11 1.251,1.301 2.153,1.762 3.524,-0.11l-0.01 0zm11.322 -42.275c0,-0.635 -1.91,-3.231 -3.523,0.281 0.34,0.651 1.471,0.88 1.701,1.842 0.681,-0.711 1.812,-1.422 1.812,-2.133l0.01 0.01zm-12.974 31.323c-0.37,0.341 -1.502,1.562 -1.842,2.012 0.481,0.822 1.622,0.791 1.842,1.732 1.592,-0.961 2.042,-3.063 0,-3.744zm-0.911 47.109c0.231,-0.45 -0.911,-1.161 -1.621,-1.331 -0.371,0 -0.881,0.51 -1.762,1.591 1.301,1.392 2.892,1.622 3.373,-0.26l0.01 0zm-2.072 2.583c-0.51,-0.31 -1.471,-1.221 -1.902,-1.731 -2.012,1.901 -2.042,2.012 0.14,3.663l1.762 -1.932zm5.086 -68.111c1.361,-1.392 2.012,-2.813 0.03,-3.945 -3.308,3.124 -0.372,3.003 -0.031,3.944l0.001 0.001zm-11.323 -61.995c0,-0.48 -0.681,-1.191 -1.282,-1.361 -0.45,0 -1.021,0.541 -1.811,1.331 1.051,1.672 2.642,1.902 3.093,0.03zm9.11 109.755c0.766,0.259 3.375,-2.369 -0.12,-2.753 -0.541,0 -1.082,0.4 -1.702,1.191 0.693,0.632 1.104,1.562 1.822,1.562zm9.28 -50.022c-0.961,1.021 -1.562,1.701 -1.532,2.182 0.341,0.791 0.791,1.732 1.472,1.502 1.361,-0.481 2.042,-3.063 0.06,-3.694l0 0.01zm-2.332 1.331c1.591,0.231 1.591,-2.582 -0.091,-3.574 -0.23,0.371 -0.54,0.651 -0.85,0.961 -1.792,1.222 0.26,2.613 0.941,2.613zm2.102 -11.091c-3.225,2.592 -0.123,3.582 -0.05,3.573 1.812,-0.45 1.812,-2.582 0.06,-3.573l-0.01 0zm2.493 6.036c1.902,-1.022 1.982,-3.124 -0.06,-3.885 -0.991,0.991 -1.592,1.592 -1.592,1.932 0.08,0.511 1.641,1.672 1.641,1.962l0.011 -0.009zm-5.076 -12.964c-0.651,0.401 -1.111,1.332 -1.792,1.812 0.681,0.481 1.361,0.941 2.042,1.642 0.409,-1.261 3.054,-1.598 -0.26,-3.464l0.01 0.01zm-1.842 16.177c1.842,-1.702 2.132,-2.923 -0.06,-3.914 -0.31,0.34 -1.331,1.532 -1.762,2.072 0.541,0.371 1.421,1.302 1.812,1.842l0.01 0zm0.761 -4.915c-0.511,1.391 1.531,0.911 1.531,2.072 1.392,-1.421 2.073,-2.583 -0.029,-3.494 -0.371,0 -0.771,0.511 -1.502,1.422zm1.792 -7.087c2.287,3.608 4.994,-1.036 1.782,-2.123 -0.568,0.639 -1.103,1.653 -1.782,2.132l0 -0.009zm-4.855 48.8c-0.371,0.261 -1.472,1.332 -1.812,1.762 1.251,1.332 2.613,2.043 3.293,0.401 0.601,-1.238 -0.601,-1.307 -1.481,-2.163zm0.23 -13.253c-0.451,0.029 -1.022,0.62 -1.902,1.811 1.531,1.422 2.893,1.622 3.343,-0.48 0,-0.23 -0.68,-1.161 -1.451,-1.331l0.01 0zm2.102 -22.474l-0.28 0.31c-1.472,0.941 -1.252,3.294 0.34,3.294 1.332,0 1.792,-2.833 -0.06,-3.604zm3.884 37.66c0.601,-1.222 -1.281,-3.604 -3.294,-0.621 1.022,0.851 2.153,2.273 3.294,0.621zm-16.287 50.993c2.163,1.141 3.01,-4.243 0.65,-3.634 -1.562,0.31 -2.012,2.693 -0.65,3.634zm16.518 -47.48c-0.912,-0.23 -0.912,-1.421 -1.762,-1.622 -1.132,0.881 -1.592,1.392 -1.562,1.812 0.821,1.932 2.412,1.222 3.323,-0.2l0.001 0.01zm-8.66 22.424c-0.621,0 -1.302,0.48 -1.932,1.331 0.571,0.43 1.251,1.592 2.153,1.361 1.361,-0.23 1.621,-2.553 -0.231,-2.692l0.01 0zm3.234 -8.94c0.26,-0.961 -0.431,-1.672 -1.132,-2.132 -1.297,1.642 -2.129,1.403 -1.412,2.132 0.912,0.941 2.073,1.161 2.553,0l-0.009 0zm-1.021 -10.531c-0.991,0.711 -1.622,1.251 -1.622,1.672 0.481,0.821 1.161,1.532 1.622,1.282 1.621,-0.231 1.642,-2.133 0,-2.953l0 -0.001zm5.535 3.634c0,0.451 0.912,1.421 1.362,1.161 1.361,-0.23 1.812,-2.102 0.11,-3.003l-0.09 -0.09c-0.711,0.51 -1.392,1.221 -1.392,1.932l0.01 0zm7.238 -61.774c-0.45,-0.711 -1.131,-1.192 -1.561,-1.562 -0.569,0.769 -1.646,1.793 -1.592,2.242 0.239,2.023 4.032,1.136 3.153,-0.681l0 0.001zm-4.514 57.059c0.23,-0.711 -0.681,-1.161 -1.282,-1.281 -0.771,0.34 -1.902,1.051 -1.672,1.531 0.451,1.872 2.273,1.161 2.953,-0.26l0.001 0.01zm4.514 -51.664c0,-0.941 -0.45,-1.872 -1.251,-2.132 -0.26,0.4 -0.62,0.741 -0.991,1.051 -1.592,0.851 -0.23,2.493 0.881,2.493 0.45,0 1.361,-0.711 1.361,-1.422l0 0.01zm-1.251 -28.64c-0.821,0.851 -1.282,1.331 -1.282,1.672 0.061,1.111 1.162,1.812 1.622,1.812 1.812,-0.231 0.911,-2.583 -0.34,-3.494l0 0.01zm0.571 15.016c0.45,-1.161 -0.681,-2.353 -1.532,-3.003 -0.991,1.081 -1.422,1.641 -1.361,2.132 0.379,1.511 2.893,2.019 2.893,0.871zm-14.026 90.234c-0.139,-0.11 -0.28,-0.23 -0.45,-0.37 -2.043,1.281 -1.361,2.923 0,3.373 0.681,0 2.042,-2.322 0.45,-3.003l0 0zm11.043 -71.304c-0.481,0.48 -0.962,1.391 -1.762,2.212 0.68,0.451 1.361,0.941 1.902,1.672 2.077,-1.692 1.968,-2.41 -0.14,-3.884zm1.251 48.35c-0.03,-0.45 -0.4,-0.941 -1.192,-1.532 -1.982,1.162 -2.132,2.383 -0.06,3.374 0.911,-0.821 1.251,-1.361 1.251,-1.842l0.001 0zm-17.539 66.139c0.68,-0.03 0.941,-1.281 1.872,-1.841 -0.651,-0.711 -1.111,-1.192 -1.932,-1.452 -0.541,0.171 -1.081,0.621 -1.331,1.112 -0.651,1.221 0.68,2.182 1.391,2.182l0 -0.001zm-6.588 -130.356c0.735,-0.446 1.532,-1.231 1.532,-1.652 1.539,0.417 2.171,-2.612 0,-3.633 -1.051,1.051 -1.531,1.591 -1.331,2.242 -0.771,-0.28 -1.471,0.28 -2.152,1.221 0.23,0.341 1.841,1.792 1.962,1.812l-0.011 0.01zm25.598 -40.742l0.03 0c-0.65,0 -1.451,0.51 -2.072,1.391 0.281,0.601 0.961,1.051 1.392,1.532 0.451,-0.711 1.592,-0.711 1.812,-1.642 0.04,-0.345 -0.077,-1.281 -1.162,-1.281zm-25.598 71.705c1.932,-1.362 2.043,-1.422 0.03,-3.264 -1.962,1.302 -1.902,1.362 -0.03,3.264zm-0.169 34.416c0.62,-0.541 1.021,-0.912 1.251,-1.252 0.911,0.681 2.132,0.14 2.492,-0.911 0.238,-0.541 -1.713,-2.23 -2.953,-0.62l-0.791 -0.941 -1.702 1.592c0.451,0.34 1.422,1.531 1.702,2.132l0.001 0zm-1.362 -32.204c-0.06,0.45 0.601,1.191 1.502,2.132 1.902,-1.251 1.931,-1.421 -0.03,-3.373 -0.791,0.43 -1.472,0.881 -1.472,1.251l0 -0.01zm1.221 -37.8l1.592 -1.762c-0.2,-0.28 -0.4,-0.51 -0.571,-0.711 2.76,1.319 2.139,-2.29 0.511,-3.063 -0.628,0.767 -1.813,1.436 -1.201,2.443 -0.851,-0.541 -1.422,0.31 -2.323,1.301 0.571,0.371 1.562,1.251 1.983,1.792l0.009 0zm1.051 -16.547l0 0.03c1.592,0 1.362,-2.833 -0.2,-3.464 -0.14,0.17 -0.4,0.451 -0.851,0.961 -1.451,1.082 0.14,2.473 1.051,2.473l0 0zm-4.224 1.171c0.03,0.451 0.57,0.961 1.792,1.702 2.102,-1.592 2.042,-2.012 -0.281,-3.664 -0.961,0.821 -1.561,1.451 -1.501,1.962l-0.01 0zm3.994 -5.846c1.592,-0.23 1.362,-2.352 -0.06,-3.373l-1.752 1.732c0.681,0.71 1.362,1.641 1.812,1.641zm-2.493 108.253l1.703 1.812c0.4,-0.541 1.221,-1.392 1.701,-1.762 -1.562,-2.042 -1.842,-1.982 -3.404,-0.06l0 0.01zm10.812 41.774c-2.071,0.091 -1.08,4.424 0.741,3.373 0.911,-0.48 1.361,-3.293 -0.741,-3.373zm0.201 8.509c1.641,-0.371 1.701,-2.814 -0.03,-3.464 -0.771,0.06 -1.302,0.851 -1.452,1.562 -0.311,1.306 0.97,1.902 1.482,1.902zm0.2 -28.21c-3.587,0.571 -0.999,2.944 -0.171,2.944 1.132,0 2.273,-2.814 0.171,-2.953l0 0.009zm-0.541 14.555c-1.812,0.911 -1.161,1.902 -0.941,2.923 0.62,1.502 2.493,0.141 2.523,-1.111 0,-0.77 -0.681,-1.762 -1.592,-1.812l0.01 0zm-5.276 -34.496c0,-0.45 -0.45,-0.941 -1.161,-1.111 -0.851,0.17 -1.982,0.881 -1.792,1.592 0.451,1.872 2.693,1.392 2.953,-0.481zm5.727 4.765c-0.481,0.541 -1.362,1.302 -1.532,1.762 -0.26,0.941 0.881,1.872 1.562,1.642 2.628,-0.77 0.83,-3.404 -0.03,-3.404zm-3.174 37.059c0.231,-0.941 -0.911,-1.872 -1.842,-1.872 -2.472,1.161 -0.65,2.133 0.261,3.744 0,-1.161 1.361,-1.161 1.591,-1.872l-0.01 0zm-7.378 -101.306c0,0.371 0.541,0.881 1.472,1.642 1.725,-1.533 2.069,-1.204 0.06,-3.214 -0.695,0.583 -1.532,1.187 -1.532,1.572zm24.346 -46.909c2.288,-0.606 0.07,-3.256 -0.34,-3.263l-1.702 1.842c0.911,0.23 1.132,1.872 2.043,1.421l-0.001 0zm1.562 -15.265c-0.43,-0.481 -0.88,-1.192 -1.471,-1.422 -0.991,0.231 -1.451,0.941 -1.672,1.422 -0.231,0.68 0.911,1.161 1.361,1.872 0.681,-0.711 1.131,-1.192 1.792,-1.872l-0.01 0zm-12.373 -32.434c-1.476,-2.093 -1.922,-1.812 -3.715,-0.02 0.261,0.26 0.741,0.79 1.732,1.841 1.161,-1.111 1.702,-1.621 1.982,-1.811l0.001 -0.01zm9.16 117.172c-1.082,0.28 -1.532,1.221 -2.212,1.932 1.591,1.641 2.042,0.941 3.633,-0.451 -0.68,-0.26 -0.45,-1.422 -1.421,-1.471l0 -0.01zm-18.02 100.845c0.532,-1.13 -0.879,-3.244 -2.503,-1.621 0.771,-0.991 0.371,-1.732 -0.79,-2.984 -0.111,0.261 -1.282,1.532 -1.112,2.523 0.09,0.557 0.436,0.527 1.022,1.272 0.28,-0.2 0.48,-0.4 0.65,-0.601 -0.965,1.493 1.682,3.635 2.723,1.392l0.01 0.019zm-5.646 -105.079l0 0zm23.135 13.113l-1.672 1.762c0.681,0.451 0.911,1.622 1.812,1.392 0.681,0 1.131,-0.941 1.592,-1.642 -0.681,-0.23 -1.132,-1.161 -1.732,-1.502l0 -0.01zm-10.962 -119.945c1.812,-0.231 2.243,-2.102 0.281,-3.264 -1.082,0.821 -1.732,1.332 -1.762,1.732 0.012,0.905 0.932,1.532 1.481,1.532zm-13.705 108.253l1.672 2.382c0.401,-0.31 1.422,-1.361 1.702,-1.731 -2.274,-2.395 -1.243,-2.791 -3.374,-0.661l0 0.01zm10.982 -76.45l0.03 0.01c0,0 -0.03,-0.01 -0.03,-0.01l0 0zm-3.604 78.602c0.451,-1.161 -0.68,-1.642 -1.361,-2.412 -0.4,0.54 -1.302,1.361 -1.812,1.672 0.06,0.11 0.09,0.23 0.14,0.31 -0.821,-0.851 -0.741,0.741 -2.132,1.331l1.621 2.273 1.702 -1.842c-0.26,-0.451 -0.48,-0.791 -0.681,-1.111 1.332,1.191 2.553,0.11 2.523,-0.231l0 0.01zm9.961 -41.563c0,0 -0.01,0 -0.02,0l0.02 0zm-0.11 -3.464c-0.08,0.11 -0.17,0.231 -0.26,0.311 -1.442,1.271 -1.022,3.373 0.35,3.153 2.032,0 1.612,-2.353 -0.09,-3.464l0 0zm9.701 82.517l-0.171 0.17c-1.501,0.881 -1.281,3.203 0.311,2.983 1.791,-0.23 1.131,-2.102 -0.14,-3.153l0 0zm-15.948 -112.879c1.812,0 1.362,-2.112 0.01,-3.193l-0.18 0.16c-1.842,0.911 -1.161,3.033 0.17,3.033zm-4.505 5.166c1.592,-0.941 2.043,-3.063 0.061,-3.714 -0.281,0.28 -1.021,1.131 -1.392,1.532 -0.48,1.471 1.331,1.251 1.331,2.182zm1.582 -6.587c0,-0.451 -0.681,-1.161 -1.471,-1.502 -3.249,1.94 -0.364,2.347 -0.111,3.374 0.451,-0.681 1.813,-0.941 1.592,-1.872l-0.01 0zm-1.131 15.977c0.681,0 0.911,-1.162 1.812,-1.642 -0.451,-0.711 -1.362,-0.941 -1.812,-1.672 -0.281,0.14 -0.31,1.161 -1.812,1.672 0.68,0.711 1.131,1.642 1.812,1.642zm-55.28 170.798c-1.902,2.042 -1.642,1.302 0.14,3.494l1.562 -1.592c-0.511,-0.4 -1.332,-1.331 -1.702,-1.902zm-2.583 6.437c-0.37,-0.451 -1.331,-1.562 -1.672,-1.872 -2.042,1.932 -2.042,1.842 -0.11,3.714l1.782 -1.842zm-1.251 2.412c1.982,2.212 1.471,2.153 3.523,0 -0.31,-0.4 -1.281,-1.531 -1.641,-1.902l-1.872 1.902 -0.01 0zm-2.773 -1.902c-1.982,1.622 -1.932,1.962 0,3.744 2.012,-1.872 1.982,-1.812 0,-3.744zm65.661 -77.691c0.546,-0.861 2.999,-1.774 -0.14,-3.343 -0.601,0.79 -0.991,1.251 -1.281,1.531 -0.401,1.111 1.191,0.881 1.421,1.812zm-58.173 36.608c1.915,-2.585 1.773,-0.986 0.02,-3.804 -2.012,1.532 -1.872,1.962 -0.03,3.804l0.01 0zm-10.161 38.981c-1.622,0.741 -1.642,2.133 0.03,3.604 0.51,-0.711 1.672,-1.962 1.962,-2.243 -0.975,-0.675 -0.883,-1.361 -1.992,-1.361zm-4.795 0.49c-1.622,0.851 -2.102,3.034 -0.06,3.975 0.96,-1.082 1.762,-1.983 1.962,-2.353 -0.571,-0.791 -1.452,-1.642 -1.902,-1.622zm0.57 4.475c-0.06,0.791 1.792,1.392 1.872,1.392 0.451,-0.03 0.991,-0.601 1.812,-1.962 -0.77,-2.753 -3.464,-1.082 -3.694,0.57l0.01 0zm15.347 -62.595c2.298,-1.635 2.267,-1.609 0.51,-3.344 -2.302,1.642 -2.272,1.592 -0.51,3.343l0 0.001zm69.045 -178.366c0,0.681 1.361,0.941 1.592,1.872 0.45,-0.711 1.812,-0.941 1.591,-1.872 0,-0.711 -0.911,-1.192 -1.591,-1.732 -0.681,0.541 -1.812,1.021 -1.592,1.732zm9.73 11.712l-0.14 -0.14c-1.672,0.62 -2.352,2.983 -0.54,3.203 1.361,0 2.492,-1.872 0.68,-3.063l0 0zm-79.506 176.755l-1.812 1.811c1.251,2.073 2.072,1.962 3.464,0.09l-1.642 -1.901 -0.01 0zm81.468 -175.704c1.812,-1.451 2.073,-1.962 0.451,-3.464 -2.182,1.732 -2.302,2.102 -0.451,3.464zm-9.71 -19.52c-0.681,0.96 -1.161,1.421 -1.451,1.701 0.14,0.821 0.821,1.762 1.281,1.762 1.812,-0.48 1.812,-2.352 0.17,-3.463l0 0zm3.694 153.8c0,-0.711 -1.131,-0.711 -1.532,-1.451 -2.685,1.425 -0.965,3.28 0.171,3.093 0.936,-0.154 1.361,-0.744 1.361,-1.642zm-74.321 -35.667c1.835,2.358 1.622,1.362 3.374,-0.08l-1.732 -1.792 -1.642 1.872zm76.784 61.264c0.23,-0.711 -0.681,-1.392 -1.332,-1.872 -0.26,0 -0.571,0.34 -1.051,0.821 -1.221,2.242 1.021,1.531 0.791,2.693 0.45,-0.712 1.592,-0.941 1.592,-1.642zm-15.377 -99.374c0.45,0.711 1.591,1.642 2.042,1.642 1.592,-0.451 1.132,-2.813 -0.43,-3.694 -0.341,0.681 -0.881,1.251 -1.392,1.762 0,0.06 -0.23,0.28 -0.23,0.28l0.01 0.01zm-4.765 82.456c1.361,-0.23 1.591,-2.583 0,-3.093 -0.171,0.17 -0.31,0.31 -0.451,0.48 -1.361,0.741 -1.131,2.833 0.451,2.613zm7.548 -120.005c-1.051,0.911 -1.622,1.421 -1.642,1.812 0.231,0.741 0.911,1.451 1.362,1.451 1.562,-0.26 2.012,-2.352 0.28,-3.263zm-1.221 -10.631c-0.991,0.79 -1.622,1.281 -1.642,1.642 0.31,0.74 0.771,1.671 1.451,1.451 1.929,-0.305 1.246,-3.123 0.191,-3.093zm-5.416 26.357c1.592,1.872 2.272,1.642 3.634,-0.26 -0.681,-0.451 -0.912,-1.392 -1.812,-1.502 -1.024,-0.012 -1.315,1.762 -1.822,1.762zm3.604 -28.119c-0.081,-0.09 -0.17,-0.2 -0.281,-0.31 -1.731,0.711 -1.962,2.813 -0.37,3.033 1.592,0 2.272,-1.642 0.651,-2.723zm5.445 42.194c-0.68,-0.451 -1.561,-0.711 -1.901,-1.562 -1.513,0.326 -1.922,3.204 0.34,3.204 0.681,0 0.881,-1.162 1.562,-1.642l-0.001 0zm-7.347 45.908c-0.341,0.37 -0.621,0.651 -0.851,0.911 -1.422,1.051 -0.261,2.663 0.88,2.412 1.592,-0.26 2.043,-2.582 -0.029,-3.323zm2.212 -13.985c1.842,-0.51 1.842,-2.412 -0.03,-3.603 -0.711,0.85 -0.941,1.301 -1.792,2.242 1.014,0.223 0.603,1.361 1.822,1.361zm-6.788 -37.399c-1.641,1.022 0.401,2.183 1.082,2.663 0.43,0.231 0.881,-0.48 1.111,-0.941 0.231,-1.191 -0.43,-2.352 -1.471,-2.613l-0.722 0.891zm-2.292 47.84c1.592,-0.26 1.792,-3.033 -0.06,-3.834 -0.941,0.881 -1.531,1.471 -1.531,1.932 0.45,0.961 1.131,1.902 1.591,1.902l0 0zm2.072 2.302c1.592,-0.029 2.012,-2.322 0.11,-3.513l-0.2 0.2c-1.531,1.021 -1.281,3.093 0.09,3.323l0 -0.01zm-0.03 30.813c1.362,0 1.422,-2.383 0.11,-3.063 -0.79,0.85 -1.701,1.221 -1.872,1.391 0.651,0.711 1.082,1.672 1.762,1.672l0 0zm-2.412 7.438l-0.09 0.09c-1.762,0.741 -1.131,3.123 0,2.892 1.562,-0.23 1.592,-1.901 0.09,-2.983l0 0.001zm1.932 -78.212c1.592,-1.191 1.361,-2.582 -0.371,-3.514 -0.37,0 -0.821,0.481 -1.531,1.642 0.51,0.881 1.902,1.562 1.902,1.872zm7.007 52.014c-0.31,-0.43 -1.281,-1.361 -1.672,-1.562 -2.042,1.422 -2.582,2.073 -0.2,3.574 0.401,-0.57 1.362,-1.591 1.872,-2.012zm-6.327 -27.038c0.681,0 1.813,-1.221 1.392,-2.153l-1.482 -1.481c-1.701,1.021 -1.501,3.403 0.09,3.634l0 0zm-2.272 3.834l-0.2 0.17c-1.842,1.222 -0.961,3.344 0.17,3.344 1.812,0.2 1.812,-2.613 0.03,-3.514zm12.003 -75.799c0.681,-0.941 0,-1.872 -0.961,-2.413 -1.081,0.851 -1.672,1.332 -1.702,1.672 0.621,1.222 1.762,2.383 2.663,0.741l0 0zm-10.021 130.536c1.392,-0.711 1.642,-2.582 -0.06,-3.233 -1.021,0.651 -1.532,1.281 -1.532,1.842 0.261,0.68 0.912,1.872 1.592,1.391zm5.937 -100.174c0.03,0.48 0.48,0.991 1.562,1.841 1.982,-1.561 1.792,-2.072 -0.201,-3.743 -0.99,0.851 -1.391,1.421 -1.361,1.902l0 0zm2.012 3.293c-0.11,-0.11 -0.231,-0.231 -0.37,-0.37 -1.422,1.251 -1.872,3.603 0.17,3.603 1.592,-0.26 2.042,-2.352 0.2,-3.233zm-4.084 76.53c0.029,-0.711 -0.651,-1.422 -1.452,-1.702 -1.021,0.771 -1.562,1.251 -1.562,1.642 0.511,1.701 3.004,1.701 3.004,0.06l0.01 0zm3.573 -95.459c-0.941,0.74 -1.562,1.331 -1.562,1.791 -0.17,0.881 0.961,1.332 1.422,1.332 1.592,0 1.592,-2.353 0.14,-3.123l0 0zm-5.055 106.13c-0.341,0.37 -0.651,0.651 -0.941,0.911 -1.426,1.158 0.334,2.273 0.881,2.273 0.651,0 1.111,-1.162 1.331,-1.642 0.451,-0.941 -0.911,-0.941 -1.281,-1.532l0.01 -0.01zm-2.553 5.536c0.911,-1.192 2.273,-2.353 0.17,-3.404 -1.021,0.601 -1.592,1.021 -1.641,1.302 0.57,0.68 1.021,1.391 1.471,2.102zm1.762 -6.016c0.26,-0.481 -0.881,-0.961 -1.531,-1.532 -0.617,0.593 -1.706,1.37 -1.622,1.762 0.851,1.902 2.663,1.422 3.153,-0.23zm1.812 -82.036c-0.881,0.821 -1.392,1.361 -1.392,1.792 0.281,0.77 1.192,1.702 1.642,1.702 2.043,-0.481 1.131,-2.353 -0.26,-3.494l0.01 0zm0.4 54.337c0,-0.681 -0.68,-1.362 -1.281,-1.812 -0.37,0.48 -1.302,1.532 -1.902,1.842 0.941,1.621 2.983,2.042 3.173,-0.03l0.01 0zm-1.271 -23.124c1.361,0 1.812,-3.064 -0.03,-3.804l-0.09 0.11c-1.451,1.331 -1.672,3.433 0.11,3.684l0.01 0.01zm0.11 19.92c2.043,-0.26 1.562,-2.813 -0.06,-3.664 -1.051,1.051 -1.642,1.702 -1.642,2.183 0.341,0.79 1.252,1.702 1.702,1.471l0 0.01zm0.571 8.97c1.592,-0.941 0.68,-3.063 -0.821,-3.063 -0.431,0.2 -1.592,1.281 -1.842,1.762 0.43,0.821 1.331,2.012 2.663,1.301l0 0zm1.021 -66.21c-0.791,2.073 1.472,1.132 1.251,2.523 0.681,-0.45 1.131,-1.161 1.362,-1.872 0,-0.941 -0.912,-1.391 -1.592,-1.962l-1.021 1.311zm2.152 75.6c0.23,-0.711 -0.68,-1.192 -1.562,-1.302 -0.941,0.11 -2.072,0.821 -1.621,1.532 0.911,1.902 2.272,1.191 3.173,-0.231l0.01 0.001zm-1.842 -54.798c-0.31,0.431 -0.62,0.741 -0.961,1.082 -1.982,3.263 1.422,1.331 0.961,3.003 1.592,-0.961 1.622,-3.093 0,-4.084l0 -0.001zm0.881 -8.228c-0.09,-0.541 -0.62,-1.082 -1.642,-1.622 -2.152,1.131 -1.731,2.643 0.261,3.884 1.051,-0.941 1.501,-1.672 1.391,-2.272l-0.01 0.01zm-10.671 168.105c0,-0.45 -0.571,-0.99 -1.472,-1.672l-1.762 1.932c0.281,0.371 1.302,1.362 1.672,1.592 0.972,-0.775 1.589,-1.386 1.562,-1.852zm32.435 -220.77c0.03,-0.481 -1.251,-1.622 -1.282,-1.622 -2.212,1.762 -2.212,1.702 -0.48,3.344 1.081,-0.821 1.731,-1.332 1.762,-1.732l0 0.01zm0.931 14.445c1.361,-0.711 2.242,-2.583 0.48,-3.294 -3.432,2.501 -0.855,2.137 -0.48,3.294zm-2.042 -32.975c0,0.09 -0.231,0.09 -0.231,0.09 0.451,0.711 1.132,1.161 1.592,1.872 0.681,-0.45 1.812,-1.161 1.812,-1.872 0,-0.48 -0.911,-1.161 -1.451,-1.561 -0.371,0 -0.881,0.57 -1.732,1.471l0.01 0zm-1.842 -7.237c0.26,0.961 1.161,1.221 1.391,1.932 2.043,-0.961 1.362,-2.613 0.11,-3.945 -1.051,0.992 -1.501,1.532 -1.501,2.013zm-18.25 -18.81c3.004,-0.464 -0.541,-2.745 -0.541,-3.974 -2.443,1.562 -1.502,4.315 0.541,3.974zm12.403 230.04c0.912,0.231 1.792,-0.711 1.592,-1.642 0,-0.71 -0.911,-1.191 -1.902,-1.331 -2.182,0.4 -0.821,2.723 0.31,2.984l0 -0.011zm-1.842 -35.407c-0.26,0.401 -0.6,0.681 -0.911,0.961 -1.872,0.791 0.431,1.762 0.881,2.923 1.622,-0.91 1.622,-3.033 0.03,-3.884l0 0zm8.399 -4.775c-1.584,-1.118 -1.231,-2.757 -3.403,-0.2 0.45,0.65 1.131,1.131 1.591,1.841 0.681,-0.48 1.132,-1.191 1.812,-1.641l0 0zm-11.152 17.849c-0.62,0.231 -1.301,0.711 -1.762,1.161 1.131,0.261 1.131,1.902 1.812,1.902 1.095,0.18 3.44,-2.225 -0.06,-3.063l0.01 0zm9.561 -194.964c0.45,0 1.131,-1.161 1.811,-1.872 -0.911,-0.23 -0.911,-1.641 -1.731,-1.672 -2.133,1.192 -1.672,3.094 -0.09,3.544l0.01 0zm-10.011 -16.236c1.842,0.14 1.842,-2.643 -0.06,-3.664l-0.14 -0.14c-1.873,1.731 -2.102,4.004 0.2,3.804zm7.738 8.008c1.362,0 1.592,-2.813 -0.48,-3.514 -1.302,1.642 -1.302,3.774 0.48,3.514zm-10.011 -4.655c2.073,-0.571 1.592,-3.514 -0.31,-4.224 -3.449,2.529 -0.576,4.299 0.31,4.224l0 0zm-2.182 8.199c1.131,-0.961 1.361,-3.064 -0.28,-3.804 -0.511,0.68 -1.422,1.621 -1.562,1.762 -0.2,1.331 1.621,0.851 1.842,2.042l0 0zm4.985 6.496l-0.03 -0.06c-1.331,0.961 -1.792,2.613 -1.131,3.404 -0.26,-0.231 -0.62,-0.4 -1.081,-0.511 -2.413,1.642 -2.303,2.273 -0.17,4.115 1.081,-0.851 2.212,-2.443 1.391,-3.434 1.634,1.42 4.045,-1.643 1.021,-3.524l0 0.01zm7.208 -4.174c1.362,-0.23 2.043,-3.514 -0.03,-4.034 -0.23,0.06 -0.48,0.48 -0.741,0.88 -1.471,1.051 -0.34,3.154 0.771,3.154l0 0zm-4.965 10.811c0.681,-0.711 1.361,-1.391 2.042,-2.102 -1.876,-1.324 -0.984,-2.906 -3.634,0.281l1.592 1.821zm-0.391 14.846c0.621,0.43 0.851,1.842 1.532,1.621 0.911,0 1.361,-1.191 2.043,-1.901 -0.871,-0.577 -1.477,-2.828 -3.585,0.29l0.01 -0.01zm9.671 69.492c1.592,-0.23 1.592,-2.583 -0.34,-3.543l0 -0.03c-1.472,1.221 -1.932,3.804 0.34,3.574l0 -0.001zm-34.557 131.207l0.029 0.03c0.481,-0.991 1.222,-1.501 1.873,-2.212 -0.771,-0.601 -1.192,-1.932 -1.622,-1.792 -1.812,0.651 -2.073,2.953 -0.28,3.974zm22.924 -24.455c-2.682,0 -0.632,5.428 0.991,2.723 0.681,-0.941 0.23,-2.353 -0.991,-2.723zm-21.003 45.658l0.511 0.28c0.681,-0.711 1.282,-1.361 1.812,-1.962 -0.431,-0.481 -1.221,-1.502 -1.642,-1.452 -0.941,0.111 -2.302,2.493 -0.681,3.124l0 0.01zm1.052 9.82l1.672 1.441c1.962,-1.792 1.962,-1.982 0,-3.464 -0.511,0.601 -1.252,1.642 -1.672,2.012l0 0.011zm-4.395 -72.646c-0.03,0.4 0.961,1.391 1.501,1.982 1.842,-1.932 2.153,-1.932 0,-3.664l-1.501 1.682zm2.182 -102.637c-0.88,-1.965 -2.349,-2.07 -3.494,-0.14l2.043 1.872c0.49,-0.596 1.451,-1.177 1.451,-1.732zm-0.37 38.22c-0.171,0.11 -0.601,0.48 -1.702,1.562l1.702 1.621c1.932,-1.562 2.042,-1.361 0,-3.173l0 -0.01zm-3.374 -18.049c-0.03,0.43 0.571,1.051 1.562,2.012 2.182,-1.452 1.812,-1.592 -0.11,-3.574 -0.881,0.65 -1.472,1.191 -1.452,1.562l0 0zm10.191 154.081c1.132,-0.681 0.912,-2.613 -0.57,-3.094 -0.571,0 -1.112,0.481 -1.282,1.161 -0.2,1.192 0.711,2.643 1.842,1.932l0.01 0.001zm8.82 -9.42c0.48,-1.021 2.102,-0.881 1.872,-2.102 -0.511,-2.212 -3.033,-1.111 -3.464,0.48 -0.26,1.282 1.361,0.911 1.592,1.622zm4.545 -34.336l0 0zm-1.962 13.995c-1.091,0 -2.2,3.403 0.109,3.403 1.562,0 1.362,-2.833 -0.11,-3.403l0.001 0zm4.034 -19.751c-0.771,0.4 -0.961,1.361 -1.642,1.842 0.681,0.45 1.361,1.421 1.812,1.391 1.562,-0.26 1.792,-3.093 -0.17,-3.233zm-13.705 52.074c0.911,0 2.043,-1.191 1.332,-2.072 -0.261,-0.451 -0.941,-0.651 -1.392,-1.161 -0.2,0.28 -0.481,0.51 -0.741,0.681 -1.79,0.959 0.012,2.552 0.801,2.552zm1.872 -15.666c-0.4,-0.31 -1.471,-1.502 -1.982,-1.502 -0.711,0.03 -1.392,1.051 -1.422,1.302 0.621,2.272 1.792,2.012 3.404,0.2zm0.481 -0.541c0.711,-0.79 1.621,-1.561 1.421,-2.833 -0.25,-0.804 -2.237,-1.174 -2.583,0.621 -0.2,1.251 0.712,1.472 1.162,2.212zm3.123 -3.093c0.911,-0.45 1.132,-3.033 -0.651,-2.953 -0.48,0.601 -1.621,1.082 -1.391,1.792 0,0.941 1.131,1.642 2.042,1.161zm-7.328 -260.432c-1.051,1.051 -1.672,1.672 -1.642,2.133 0.341,0.88 1.021,1.762 1.702,1.562 1.812,-0.481 1.842,-2.723 -0.06,-3.694l0 -0.001zm11.643 271.133c-2.373,0.594 -2.129,2.302 -1.642,2.924 -1.452,-0.767 -3.703,1.424 -2.212,2.613 1.334,1.063 3.396,-0.627 2.603,-2.183 1.667,1.232 4.248,-2.685 1.241,-3.353l0.01 -0.001zm1.751 -36.097c-1.982,0.991 -1.301,2.953 0.061,3.343 0.45,-0.06 1.131,-1.081 1.812,-1.872 -0.681,-0.45 -1.112,-0.911 -1.873,-1.471zm-6.406 -233.964c0,-0.451 -0.881,-1.332 -1.902,-1.532 -0.451,0.03 -1.021,0.771 -1.983,2.042 2.242,3.183 3.885,0.074 3.885,-0.51zm8.909 250.991c-1.331,0.621 -1.331,2.984 0.481,3.204 1.812,-0.231 1.812,-3.294 -0.481,-3.204zm2.443 -12.713c-0.004,0.007 -2.67,3.714 0.09,3.714 2.205,0 0.538,-3.714 -0.09,-3.714zm-14.135 42.795c0.711,-0.03 1.361,-1.192 2.042,-1.702 -0.711,-0.4 -1.191,-1.281 -2.042,-1.502 -2.353,0.791 -1.362,3.034 0,3.204zm3.804 -13.564c0.711,-1.051 -0.681,-1.452 -1.562,-1.622 -0.941,0.03 -1.642,0.821 -1.451,1.812 0.65,2.183 2.302,1.111 3.003,-0.2l0.01 0.01zm0.791 9.79c-1.981,0.616 -1.812,3.614 0.28,3.434 1.308,-0.113 2.928,-2.836 -0.28,-3.434l0 0zm23.355 -86.52c-0.341,0.68 -1.362,1.731 -1.762,1.982 0.48,0.51 1.391,1.391 1.672,1.672 1.842,-0.681 2.102,-2.833 0.09,-3.664l0 0.01zm0 48.52c-0.106,-0.011 -1.59,0.452 -1.562,1.682 0.03,0.651 1.451,1.732 1.451,1.932 0.06,0.06 0.11,0.11 0.14,0.14 1.474,-0.729 1.601,-3.378 -0.03,-3.754l0.001 0zm-0.851 0.171c0.17,-0.791 -0.451,-2.863 -1.361,-2.863 -0.791,0 -2.473,1.982 -0.601,3.153l0.57 0.62c0.741,-0.17 1.222,-0.37 1.392,-0.911l0 0.001zm-2.042 -4.565l0.43 0.43c0.991,-1.191 1.732,-3.343 -0.09,-3.633 -1.561,-0.261 -1.872,2.302 -0.34,3.203l0 0zm-6.447 -178.147c-3.556,2.506 -0.86,2.418 -0.541,3.404 1.332,-0.711 2.243,-2.352 0.541,-3.404zm0.29 186.686c-2.257,0.274 -1.715,3.563 0.06,3.463 2.042,-0.23 1.361,-2.322 -0.06,-3.463l0 0zm4.315 -29.121c-2.153,1.161 -2.043,1.962 0,3.914 1.962,-1.251 1.811,-2.442 0,-3.914zm-5.136 28.61c0.231,-1.422 -0.911,-0.941 -1.592,-1.422 -0.65,0.03 -1.331,0.451 -1.872,1.192 0.867,2.189 3.464,2.238 3.464,0.23zm2.603 35.837c-1.051,0.681 -1.592,1.392 -1.562,2.012 -0.17,1.132 0.961,0.911 1.421,1.592 0.451,-0.681 1.813,-0.681 1.592,-1.621 0,-0.712 -0.911,-1.192 -1.451,-1.983zm-8.96 -33.965c1.435,0 2.228,-3.333 0.261,-3.484 -0.941,-0.03 -1.392,0.681 -1.622,1.361 0,0.961 0.45,1.902 1.361,2.133l0 -0.01zm-18.51 -249.48c1.983,-1.592 1.932,-1.932 0,-3.744 -2.012,1.902 -1.982,1.812 0,3.744zm-4.024 0.54c0.371,0.45 1.331,1.562 1.702,1.872 2.012,-1.932 2.012,-1.842 0.08,-3.714l-1.782 1.842zm6.727 1.582c1.592,-0.741 1.622,-2.153 -0.06,-3.604 -0.51,0.681 -1.672,1.962 -1.932,2.212 0.912,0.662 0.921,1.392 1.992,1.392zm-9.31 4.855c1.902,-2.073 1.642,-1.302 -0.14,-3.514l-1.562 1.622c0.541,0.4 1.362,1.301 1.702,1.902l0 -0.01zm1.982 -6.947l1.842 -1.902c-1.982,-2.213 -1.471,-2.153 -3.494,-0.03l1.652 1.932zm-0.961 103.678l1.472 -1.762c-1.812,-1.361 -2.413,-2.723 -3.604,-0.26l2.132 2.022zm10.982 -88.983c0.911,-0.23 2.043,-1.562 1.812,-2.833 -0.03,-0.09 -0.06,-0.14 -0.06,-0.2 1.252,0.563 2.01,-0.492 2.102,-1.052 0.451,-1.331 -0.68,-1.902 -1.562,-2.582 -0.781,0.774 -1.959,1.788 -1.311,3.013 -0.4,-0.11 -0.851,-0.11 -1.161,-0.26 -0.171,0.17 -0.541,0.65 -0.821,0.99 -1.608,1.472 -0.479,2.844 1.001,2.924zm-2.783 -6.127c-1.081,1.051 -1.642,1.622 -1.642,2.072 0.541,0.712 0.991,1.762 1.672,1.562 2.17,-0.557 1.925,-2.656 -0.03,-3.634zm-7.458 148.455c-0.03,-0.48 -0.571,-0.991 -1.502,-1.762 -0.54,0.601 -1.281,1.622 -1.702,1.983 0.371,0.48 1.282,1.561 1.622,1.841 1.131,-1.081 1.562,-1.531 1.592,-2.072l-0.01 0.01zm6.948 125.792c-1.472,-0.28 -1.932,0.791 -1.592,1.642 -0.541,-0.141 -1.112,0.941 -2.043,1.641 0.481,0.4 1.282,1.131 1.672,1.592l1.732 -1.902 -0.06 -0.06c2.004,0.648 2.767,-3.246 0.291,-2.923l0 0.01zm-10.812 -164.582c-1.872,2.012 -1.792,1.391 0.37,3.574 0.37,-0.341 1.251,-1.502 1.562,-1.842l-1.932 -1.732zm6.186 158.886c-1.313,-1.8 -2.157,-1.215 -3.574,0.36 0.261,0.371 1.472,1.191 1.812,1.562 0.601,-0.481 1.021,-1.422 1.762,-1.932l0 0.01zm-66.201 0.561c-1.842,0.43 -1.873,3.233 0.11,3.804 0.45,-0.771 0.851,-1.302 1.161,-1.702 1.221,-0.991 -0.601,-2.413 -1.282,-2.102l0.011 0zm61.236 -236.628c-1.874,2.672 -1.812,0.902 0,3.835 1.982,-1.532 1.872,-1.963 0,-3.835zm-0.2 8.569l1.792 -1.812c-1.251,-2.072 -2.073,-1.962 -3.434,-0.09l1.642 1.902zm-1.252 13.424c2.273,-1.641 2.273,-1.591 0.481,-3.323 -2.18,1.594 -2.305,1.576 -0.481,3.314l0 0.009zm-1.441 62.255c-0.401,0 -1.222,0.991 -1.812,1.502l1.732 1.762c0.68,-0.821 1.221,-1.502 1.641,-1.842 -0.79,-0.991 -1.251,-1.421 -1.561,-1.421l0 -0.001zm14.896 159.757c-0.601,0.03 -1.221,0.4 -1.502,0.961 -0.51,1.331 1.302,1.331 1.332,2.212 0.43,-0.881 1.331,-1.361 2.012,-1.812 -0.711,-0.43 -0.741,-1.562 -1.842,-1.361zm-6.217 -146.393c-1.982,1.672 -1.902,1.192 -0.06,3.174 1.873,-1.592 1.983,-1.282 0.06,-3.174zm0.06 -44.236c1.585,-1.536 1.949,-2.655 -0.169,-3.404 -0.571,-0.2 -1.422,0.791 -1.902,1.562l2.071 1.842zm-3.714 25.176c-0.139,0.171 -0.28,0.341 -0.43,0.481 0.31,0.4 1.471,1.471 1.872,1.792 1.819,-1.758 1.255,-3.121 -0.2,-3.434 -0.23,-0.03 -1.251,1.161 -1.251,1.161l0.009 0zm1.982 28.801l0.031 0c-0.03,0.4 0.57,0.99 1.471,1.841 1.962,-1.161 1.932,-1.531 0,-3.263 -0.881,0.601 -1.471,1.021 -1.502,1.422zm-2.863 -62.916l1.932 1.932c0.401,-0.311 1.392,-1.362 1.872,-1.812 -1.841,-1.642 -1.841,-2.553 -3.804,-0.11l0 -0.01zm2.273 -7.208c2.302,-1.641 2.353,-1.872 0.37,-3.373l-2.042 1.762c0.34,0.37 1.221,1.221 1.672,1.621l0 -0.01zm1.191 75.339c0.511,0.51 0.771,0.821 0.941,0.991l1.622 -1.472c-1.44,-2.169 -1.887,-2.033 -3.404,-0.45 0.171,0.2 0.571,0.621 0.851,0.941l-0.01 -0.01zm-0.711 -98.263c-1.859,1.559 -2.31,1.69 -0.31,3.434 2.152,-1.791 2.133,-1.762 0.31,-3.433l0 -0.001zm-0.77 27.439c0.34,-0.26 1.591,-1.361 1.982,-1.762 -1.592,-1.672 -1.982,-2.102 -3.774,-0.11l1.792 1.872zm11.242 169.977c0.451,-0.741 1.331,-1.191 1.562,-1.902 0.23,-0.48 -0.681,-0.941 -1.161,-1.131 -0.601,0.03 -1.252,0.48 -2.013,1.302 0.711,0.28 1.162,0.99 1.622,1.731l-0.01 0zm1.982 7.719c-0.911,-0.201 -1.131,-1.452 -1.983,-1.622 -0.6,0.31 -1.251,1.131 -1.281,1.902 0.481,2.302 2.553,0.991 3.263,-0.28l0.001 0zm0.48 -5.596c1.887,-0.05 1.92,-3.746 -0.22,-3.404 -0.681,0.311 -1.131,0.791 -1.331,1.252 -0.451,1.191 0.65,2.382 1.562,2.152l-0.011 0zm-12.423 -180.499l1.622 1.672 2.072 -1.672c-0.57,-0.541 -1.251,-1.391 -1.732,-1.391 -0.68,0 -1.872,1.391 -1.962,1.391zm0.821 120.286c2.923,-2.183 0.4,-3.514 -0.03,-3.514 -0.621,0 -1.221,0.911 -1.732,1.592l1.762 1.932 0 -0.01zm15.237 61.124c0.68,-0.941 -0.231,-1.872 -1.112,-1.762 -0.941,-0.11 -1.391,1.081 -2.072,1.301 1.131,1.192 2.042,2.152 3.173,0.451l0.011 0.01zm-13.535 -58.291c-1.842,-2.693 -1.762,-1.422 -3.434,0l1.622 1.841 1.812 -1.841zm-2.583 49.601c0.431,0.401 0.791,0.911 0.851,0.961 0.621,-0.79 1.051,-1.731 1.842,-2.322 -0.401,-0.62 -0.911,-1.391 -1.502,-1.391 -0.941,0 -1.622,1.131 -1.792,1.731 -0.11,0.371 0.2,0.601 0.601,1.021zm7.749 0.031c-0.962,-0.09 -1.452,1.161 -1.472,1.641 -0.03,0.771 1.081,1.502 1.532,1.502 1.841,0.23 1.702,-2.983 -0.06,-3.153l0 0.01zm19.27 -192.221c-1.051,1.051 -1.944,1.257 -1.842,1.902 0.23,0.711 0.911,1.391 1.361,1.161 1.592,-0.23 2.243,-2.102 0.481,-3.063l0 0zm-7.608 10.621c0.771,0.45 0.991,1.391 1.672,1.621 0.231,-0.941 1.362,-1.161 1.812,-1.872 -1.457,-0.493 -0.941,-2.472 -3.494,0.261l0.01 -0.01zm2.953 17.388c0.03,0.4 0.541,0.851 1.452,1.502 1.872,-0.851 1.872,-2.303 0.2,-3.514 -1.082,0.991 -1.672,1.562 -1.642,2.012l-0.01 0zm3.264 -16.257c1.361,-0.23 2.042,-2.102 0.26,-3.033 -1.327,0.663 -2.357,3.3 -0.26,3.033zm-3.634 3.063c0.23,-0.45 0,-1.421 -0.911,-1.281 -1.132,-0.14 -1.592,0.821 -2.243,1.281 0.881,1.642 2.693,2.133 3.153,0l0.001 0zm2.663 -8.629c-0.17,0.881 0.961,0.881 1.421,1.592 1.132,-0.711 2.473,-2.353 0.371,-3.373 -1.131,0.911 -1.762,1.421 -1.792,1.791l0 -0.01zm-20.062 -19.63c-0.881,0 -2.043,1.501 -2.043,1.501l1.762 1.792c0.771,-0.51 1.472,-1.642 1.502,-2.012 -0.34,-0.851 -0.741,-1.281 -1.221,-1.281zm13.935 4.765c-0.28,0 -0.681,0.48 -1.081,0.911 -1.112,2.152 1.131,1.451 0.941,2.613 1.111,-0.941 2.242,-3.034 0.14,-3.514l0 -0.01zm-3.744 198.037c-1.051,0.06 -1.762,0.62 -1.792,1.621 0.2,0.741 1.132,0.911 1.562,1.622 0.48,-0.771 1.192,-1.331 1.672,-2.102 0.26,-1.021 -0.651,-0.961 -1.451,-1.132l0.009 -0.009zm14.246 -187.226c-1.082,0.881 -1.763,1.421 -1.763,1.812 0.401,0.54 0.851,1.251 1.282,1.251 1.592,0 2.272,-2.132 0.481,-3.063zm-20.663 6.357c0.06,0.941 0.961,1.621 1.422,1.621 1.561,-0.23 1.791,-2.102 0.23,-3.203 -0.961,0.711 -1.642,1.251 -1.642,1.592l-0.01 -0.01zm7.668 -14.956c-1.051,0.711 -1.701,1.282 -1.732,1.762 0.401,0.741 0.881,1.672 1.332,1.672 1.812,0 2.212,-2.583 0.4,-3.433l0 -0.001zm-9.88 4.145c-1.021,0.74 -1.622,1.191 -1.672,1.591 0.09,0.991 0.991,1.702 1.451,1.702 2.197,0 1.324,-3.293 0.221,-3.293zm2.983 1.961c0.4,0.621 0.851,1.562 1.301,1.562 1.812,0 2.273,-2.132 0.431,-3.203 -1.051,0.791 -1.672,1.281 -1.732,1.641l0 0zm-1.222 4.935c-0.991,0.741 -1.591,1.222 -1.621,1.592 0.09,0.911 1.221,1.622 1.451,1.622 1.812,-0.26 1.592,-2.132 0.17,-3.204l0 -0.01zm10.242 -18.649c0.23,-0.481 -1.132,-0.941 -1.562,-1.592 -0.481,0.651 -2.073,1.332 -1.842,1.812 0.681,2.133 2.723,1.642 3.404,-0.23l0 0.01zm-4.165 0.601c-1.111,0.79 -1.702,1.331 -1.702,1.812 0.221,1.963 2.821,2.278 3.154,0.17 0.23,-0.711 -0.911,-1.161 -1.451,-1.982l-0.001 0zm-2.392 -2.503c-3.583,2.228 -0.657,2.785 -0.03,3.774 1.812,-1.161 1.812,-2.813 0.03,-3.774zm2.672 -7.377c-0.43,0.6 -1.501,1.672 -2.042,2.072 0.711,0.4 0.941,1.792 1.842,1.562 2.042,-0.231 2.272,-2.583 0.2,-3.634l0 0zm-11.662 1.681c0.11,0.821 1.422,1.562 1.471,1.562 1.592,-1.702 1.762,-2.833 -0.09,-4.084 -1.081,1.161 -1.501,1.932 -1.391,2.523l0.01 -0.001zm0.42 -27.559c-2.012,1.502 -2.042,2.493 0.061,3.804 3.143,-1.968 -0.05,-3.804 -0.061,-3.804zm-0.02 -4.674c-2.302,1.872 -1.842,1.391 0.03,3.633 1.932,-1.841 1.982,-1.872 -0.03,-3.633zm2.753 12.533c-0.17,0.2 -0.37,0.4 -0.51,0.57 -1.812,0.821 -0.651,3.374 0.48,2.953 1.812,-0.43 2.013,-2.352 0.03,-3.513l0 -0.01zm2.633 40.472c2.242,-1.642 2.242,-1.622 0.28,-3.514 -2.21,1.621 -2.205,1.59 -0.28,3.514zm0.711 -13.875c0.681,-0.711 1.562,-1.161 1.792,-1.641 0.23,-0.941 -1.111,-1.161 -1.622,-2.133 -3.779,2.411 -0.862,2.683 -0.17,3.774l0 0zm0.06 -8.749c-1.161,0.991 -1.732,1.532 -1.732,1.983 0.541,2.042 2.583,2.522 3.464,0.65 0.451,-1.421 -1.111,-1.872 -1.732,-2.643l0 0.01zm-8.86 4.115c0.31,0.45 1.282,1.591 1.642,1.932 1.932,-2.133 1.812,-1.983 -0.09,-4.055l-1.562 2.132 0.01 -0.009zm8.63 9.369c2.272,-1.731 2.242,-1.672 0.139,-3.633 -2.272,1.702 -2.212,1.671 -0.139,3.633zm-10.642 -7.067l0.03 0c-0.03,0.541 0.651,1.221 1.532,2.153 1.812,-2.073 2.042,-2.273 -0.06,-3.975 -0.909,0.764 -1.514,1.404 -1.502,1.822zm-1.622 23.154c2.243,-1.731 2.213,-1.672 0.431,-3.373 -2.212,1.672 -2.182,1.622 -0.431,3.373zm-0.821 -10.811l1.672 1.902c1.132,-0.651 1.792,-1.392 1.702,-1.532 -1.05,-1.807 -1.665,-2.681 -3.373,-0.37l-0.001 0zm18.671 188.787c-2.08,0.076 -1.583,3.443 -0.06,3.354 0.681,-0.061 0.961,-1.592 1.872,-1.902 -0.451,-0.451 -1.131,-1.192 -1.812,-1.452l0 0zm-18.41 -193.382c0.911,0.941 1.331,1.451 1.561,1.702 1.813,-2.133 2.133,-1.762 0.141,-3.604 -0.311,0.62 -1.132,1.532 -1.702,1.902zm2.382 -39.731l0 0.029c-0.2,0 -0.79,0.711 -1.621,1.702 0.48,0.511 1.361,1.251 1.791,1.732l1.622 -1.672c-1.161,-0.791 -1.622,-1.792 -1.792,-1.792l0 0.001zm-0.851 26.477c1.672,-1.161 1.282,-2.443 -0.14,-4.114 -0.57,0.821 -0.911,1.392 -1.641,2.102 0.26,0.451 1.391,1.562 1.792,2.012l-0.011 0zm1.672 8.029c-1.509,-2.557 -1.895,-1.419 -3.093,-0.081 -0.06,0.06 -0.11,0.11 -0.14,0.171l1.562 2.012c0.34,-0.621 1.131,-1.702 1.672,-2.102l-0.001 0zm-4.515 23.304c-0.03,0.34 0.451,0.851 1.282,1.642 2.302,-1.672 2.272,-1.622 0.51,-3.324 -1.093,0.779 -1.792,1.298 -1.792,1.682zm38.402 12.653c-0.11,0.09 -0.2,0.2 -0.31,0.28 -1.392,0.681 -1.842,3.034 -0.03,2.783 1.975,-0.337 1.198,-3.063 0.34,-3.063zm-3.864 97.892c-0.2,-0.2 -0.431,-0.43 -0.711,-0.711 -2.153,2.213 -1.932,1.472 -0.06,3.294 1.621,-2.043 1.872,-1.562 0.77,-2.583l0.001 0zm-5.476 16.718l0 0.03c-0.4,0.17 -1.622,1.081 -1.762,1.621 0.791,0.281 1.471,1.452 1.932,1.452 1.592,-0.451 1.592,-2.353 -0.17,-3.094l0 -0.009zm8.319 -80.985c1.812,-0.48 1.131,-2.352 -0.451,-3.403 -0.37,0.54 -0.961,1.131 -1.592,1.762 0.681,0.45 1.362,1.872 2.043,1.641zm-1.592 7.268c2.043,-0.231 1.132,-2.813 -0.45,-3.574 -0.401,0.31 -1.422,1.471 -1.592,1.932 0.911,0.26 1.361,1.642 2.042,1.642l0 0zm-12.433 110.665c0.314,-1.312 -1.648,-2.254 -2.723,-0.57 -0.681,1.301 0.91,1.762 1.361,2.723 0.681,-0.481 1.131,-1.221 1.361,-2.153l0.001 0zm1.331 -29.37c1.812,-0.481 1.361,-2.133 -0.17,-3.093 -0.2,0.17 -0.371,0.34 -0.511,0.48 -1.792,0.961 0,2.613 0.681,2.613zm3.864 -16.457c0,-0.451 -1.131,-0.941 -1.842,-1.422 -0.4,0.03 -0.881,0.481 -1.501,1.471 1.051,1.622 2.863,2.073 3.343,-0.06l0 0.011zm4.205 -131.638c-1.111,0.851 -1.792,1.392 -1.812,1.792 0.11,0.881 1.021,1.131 1.251,1.812 1.874,-0.746 1.87,-3.604 0.561,-3.604zm-6.787 -2.012c-1.082,0.821 -1.732,1.361 -1.763,1.762 0.451,0.571 0.261,1.982 1.392,1.762 1.812,-0.481 2.212,-2.833 0.371,-3.514l0 -0.01zm9.42 -0.32c-0.261,0.34 -0.821,0.821 -1.732,1.531 -0.14,1.111 0.771,1.812 1.221,1.812 1.592,0 2.273,-2.322 0.511,-3.343zm-13.475 -13.985c-1.111,0.741 -1.762,1.302 -1.792,1.812 0.06,1.191 1.192,1.902 1.642,1.902 2.042,0 2.272,-2.583 0.14,-3.714l0.01 0zm-20.492 50.853l1.962 -1.702c-1.438,-1.911 -2.216,-1.956 -3.714,-0.08l1.752 1.782zm22.414 -43.245c-0.4,0 -0.961,0.51 -1.732,1.562 1.252,1.621 2.353,1.621 3.714,-0.03 -0.911,-0.26 -1.131,-1.422 -1.982,-1.532l0 0zm-7.938 -6.617c-0.261,0.371 -0.681,0.621 -1.132,0.851 1.332,1.642 2.924,2.583 3.604,0.451 0.231,-0.681 -1.131,-1.392 -1.471,-2.243l-1.001 0.941zm14.245 17.739c-1.131,0.941 -1.762,1.471 -1.762,1.842 0.4,0.54 0.621,1.471 1.302,1.251 3.057,-1.078 1.003,-2.478 0.46,-3.093zm-3.574 10.07c2.242,-1.812 2.212,-1.762 0.431,-3.323 -2.243,1.812 -2.243,1.762 -0.431,3.323zm-108.448 223.674c0.541,0.08 1.092,0.16 1.652,0.24 -0.409,-0.26 -1.221,-0.488 -1.652,-0.23l0 -0.01zm14.967 -86.561c0.48,0 1.051,-0.45 1.872,-1.471 -0.601,-0.341 -0.821,-1.762 -1.732,-1.531 -1.361,0.26 -2.272,2.352 -0.14,3.003l0 -0.001zm11.322 -2.493c0.371,0 0.851,-0.51 1.642,-1.391 -0.401,-0.771 -1.282,-1.221 -1.502,-1.932 -0.681,0.711 -1.131,1.161 -1.812,1.872 0.681,0.26 0.911,1.192 1.672,1.451zm-2.583 -10.841c-1.591,-1.872 -2.272,-1.641 -3.633,0.231 0.68,0.48 0.911,1.421 1.812,1.531 1.021,0.013 1.297,-1.762 1.821,-1.762zm6.327 7.038c0.23,-0.941 -1.131,-0.941 -1.361,-1.872 -0.451,0.711 -1.792,0.94 -1.562,1.872 0,0.48 0.651,1.191 1.451,1.531 0.571,-0.34 1.471,-0.821 1.471,-1.531l0.001 0zm-9.27 18.329c-1.449,0 -2.516,1.446 -0.34,3.033 1.701,-0.681 1.931,-2.813 0.34,-3.033zm12.854 -91.546c0.2,0 1.131,-1.021 1.531,-1.421l-1.672 -2.383c-0.4,0.311 -1.421,1.332 -1.672,1.732l1.813 2.072zm-4.945 66.66c-1.562,0.941 -2.012,3.033 -0.061,3.714 0.281,-0.281 1.051,-1.131 1.392,-1.532 0.481,-1.501 -1.331,-1.251 -1.331,-2.182zm-11.203 34.446c1.051,-0.821 1.702,-1.331 1.732,-1.732 -0.48,-0.54 -0.941,-1.731 -1.361,-1.471 -1.592,0.45 -2.493,2.102 -0.371,3.203l0 0zm2.553 -2.183c2.159,-1.672 2.162,-1.655 0.28,-3.343 -2.132,1.702 -2.152,1.671 -0.28,3.343l0 0zm3.574 -15.095l0.03 0.03c1.672,-0.991 2.133,-2.863 0.31,-3.124 -0.45,0 -1.812,0.711 -1.591,1.642 0.09,0.741 1.111,1.451 1.251,1.451l0 0.001zm9.17 -73.607c0.06,-0.481 -0.571,-1.191 -1.502,-2.152 -1.872,1.281 -1.902,1.421 0.06,3.403 0.771,-0.431 1.452,-0.911 1.452,-1.251l-0.01 0zm-1.542 2.212c-1.902,1.361 -2.042,1.422 0,3.263 1.963,-1.301 1.873,-1.361 0,-3.263zm1.732 -16.907l-1.641 -2.273 -1.672 1.842c0.26,0.431 0.45,0.791 0.68,1.081 -1.361,-1.161 -2.553,-0.09 -2.553,0.231 -0.43,1.191 0.681,1.641 1.362,2.442 0.4,-0.54 1.301,-1.361 1.812,-1.701 -0.03,-0.11 -0.09,-0.201 -0.14,-0.311 0.821,0.851 0.74,-0.74 2.152,-1.301l0 -0.01zm-0.31 22.783c0,-0.34 -0.541,-0.851 -1.451,-1.641 -2.31,2.067 -1.552,1.333 -0.081,3.203 0.681,-0.57 1.532,-1.161 1.532,-1.562zm2.072 45.087c-0.03,-0.45 -0.57,-0.99 -1.792,-1.731 -2.072,1.621 -2.042,2.012 0.281,3.694 0.961,-0.821 1.562,-1.452 1.501,-1.963l0.01 0zm-3.494 -20c-0.711,0.45 -1.471,1.281 -1.562,1.531 0.031,0.03 0.031,0.06 0.061,0.09 -2.089,0 -1.703,2.843 -0.03,3.664 1.051,-1.051 1.531,-1.592 1.361,-2.243 0.741,0.281 1.452,-0.28 2.133,-1.221 -0.231,-0.37 -1.842,-1.812 -1.963,-1.812l0 -0.009zm-0.51 24.595c0.11,-0.17 0.37,-0.45 0.821,-0.961 1.451,-1.081 -0.14,-2.492 -1.051,-2.492 -1.592,0 -1.362,2.833 0.23,3.464l0 -0.011zm0.831 -19.97l-1.562 1.761c0.2,0.281 0.37,0.511 0.541,0.711 -2.312,-1.403 -2.529,2.086 -0.511,3.044 0.852,-0.697 1.672,-1.643 1.191,-2.433 0.851,0.54 1.422,-0.31 2.323,-1.282l-1.982 -1.801zm-15.327 42.444c2.133,-1.762 2.323,-1.872 0.401,-3.294 -1.985,1.3 -2.31,2.163 -0.391,3.294l-0.01 0zm10.612 -83.027c-1.592,0 -2.043,2.323 -0.14,3.524l0.2 -0.2c1.562,-1.022 1.301,-3.094 -0.06,-3.324zm0 -30.812c-1.362,0 -1.422,2.353 -0.08,3.063 0.79,-0.851 1.672,-1.251 1.841,-1.421 -0.65,-0.711 -1.081,-1.642 -1.762,-1.642l0.001 0zm0.82 -1.822c0.371,-0.311 0.821,-0.571 0.851,-1.021 -0.851,-1.902 -2.692,-1.452 -3.173,0.23 -0.26,0.48 0.881,0.941 1.562,1.502l0.771 -0.711 -0.011 0zm-0.71 -3.403c0.991,-0.601 1.592,-1.022 1.621,-1.332 -0.57,-0.651 -0.991,-1.361 -1.451,-2.072 -0.911,1.161 -2.272,2.353 -0.17,3.404zm3.553 40.211c-2.161,-4.607 -4.261,0.746 -1.561,1.932 0.941,-0.85 1.562,-1.451 1.562,-1.932l-0.001 0zm-3.153 35.778c-1.592,1.161 -1.361,2.583 0.371,3.494 0.37,0 0.821,-0.481 1.501,-1.622 -0.51,-0.911 -1.872,-1.562 -1.872,-1.872zm1.592 -28.83l0.17 -0.171c1.872,-1.191 0.961,-3.323 -0.17,-3.323 -1.812,-0.23 -1.812,2.613 0,3.494zm-2.272 3.864c-0.681,0 -1.842,1.191 -1.392,2.152l1.451 1.482c1.732,-1.021 1.532,-3.404 -0.06,-3.634l0.001 0zm-8.6 -29.291c1.754,1.162 1.692,2.521 3.524,-0.11 -1.282,-1.301 -2.182,-1.792 -3.514,0.11l-0.01 0zm10.161 67.431c0.28,-0.111 0.34,-1.132 1.812,-1.672 -0.681,-0.681 -1.131,-1.622 -1.812,-1.622 -0.681,0 -0.881,1.161 -1.792,1.642 0.403,0.608 1.792,1.334 1.792,1.652zm-10.611 -38.09c-1.362,1.421 -2.043,2.833 -0.06,3.974 3.357,-3.085 0.26,-3.114 0.05,-3.964l0.01 -0.01zm-3.154 33.975l0.11 -0.11c1.902,-1.421 0.771,-3.293 -0.37,-3.543 -1.592,0 -1.362,3.063 0.26,3.664l0 -0.011zm5.226 -52.384c0.37,-0.311 1.501,-1.562 1.842,-2.013 -0.481,-0.79 -1.622,-0.77 -1.842,-1.701 -1.592,0.941 -2.012,3.033 0,3.714zm3.374 -19.861c0,0.711 0.65,1.392 1.451,1.672 1.021,-0.741 1.592,-1.221 1.562,-1.622 -0.481,-1.731 -2.984,-1.731 -3.004,-0.06l-0.009 0.01zm-2.523 2.352c-0.231,0.711 0.68,1.161 1.561,1.301 0.941,-0.139 2.073,-0.85 1.622,-1.561 -0.881,-1.872 -2.242,-1.161 -3.173,0.26l-0.01 0zm-5.846 74.488c0.51,0 1.081,-0.51 1.791,-1.672 -0.68,-0.451 -1.131,-1.421 -1.812,-1.421 -0.681,0 -2.8,2.058 0.031,3.093l-0.01 0zm5.245 -82.036c-0.681,0 -1.812,0.711 -1.622,1.902l1.472 1.052c1.251,-1.082 2.212,-2.954 0.14,-2.954l0.01 0zm-6.186 68.612c-1.813,0.941 -1.362,3.063 0.28,3.914 3.081,-3.081 0.087,-2.36 -0.28,-3.914zm14.926 57.32c-1.562,0 -2.012,2.353 -0.231,3.294 1.021,-0.741 1.642,-1.222 1.672,-1.592 -0.09,-0.991 -0.991,-1.702 -1.451,-1.702l0.01 0zm-22.244 -47.73c0.06,0.651 0.57,1.301 1.531,1.872 1.812,-1.962 1.902,-2.523 -0.37,-3.774 -0.821,0.601 -1.221,1.251 -1.161,1.902zm3.694 0.511c-0.231,0.711 -1.112,1.421 -1.112,2.132 0,0.451 0.651,1.392 1.472,1.251 2.583,-1.021 0.541,-2.442 -0.371,-3.373l0.011 -0.01zm0.68 -16.908c-1.131,0.481 -1.792,3.063 0.341,3.544 0.31,-0.06 0.711,-0.651 1.051,-1.192 1.562,-1.161 -0.941,-2.582 -1.392,-2.352l0 0zm-2.923 9.39c0,0.48 0.451,1.421 1.302,1.251 1.161,-0.06 1.391,-1.021 1.842,-1.702 -0.681,-0.48 -1.132,-1.191 -1.793,-1.642 -0.23,0.941 -1.591,1.162 -1.361,2.103l0.01 -0.01zm0.361 -21.713c-1.903,0.991 -1.963,3.123 0.06,3.864 0.991,-0.961 1.591,-1.562 1.591,-1.902 -0.08,-0.51 -1.641,-1.702 -1.641,-1.962l-0.01 0zm-1.502 6.927c0,0.56 1.824,3.263 3.494,-0.28 -0.341,-0.651 -1.452,-0.911 -1.672,-1.842 -0.681,0.711 -1.812,1.422 -1.812,2.133l-0.01 -0.011zm6.867 11.072c2.621,-1.63 1.203,-3.543 -0.09,-3.543 -1.756,0 -1.853,3.543 0.09,3.543zm2.473 68.101c0.28,0 0.711,-0.48 1.081,-0.911 1.132,-2.152 -1.131,-1.451 -0.911,-2.643 -1.131,0.941 -2.273,3.063 -0.17,3.544l0 0.01zm7.658 -6.667c1.051,-0.791 1.702,-1.281 1.732,-1.672 -0.4,-0.601 -0.851,-1.532 -1.302,-1.532 -2.598,0 -1.375,3.204 -0.43,3.204zm-12.964 -73.387c3.22,-2.682 0.033,-3.605 0.03,-3.604 -1.792,0.481 -1.792,2.583 -0.03,3.604l0 0zm15.917 66.8c0.991,-0.771 1.592,-1.221 1.642,-1.592 -0.11,-0.91 -1.221,-1.621 -1.451,-1.621 -1.129,0.071 -2.175,1.285 -0.191,3.213zm2.353 -1.081c-2.065,1.606 -2.172,1.522 -0.23,3.464 2.102,-1.592 2.102,-1.532 0.23,-3.464l0 0zm-2.803 -2.833c-0.03,-0.941 -0.941,-1.642 -1.392,-1.642 -1.591,0.261 -1.812,2.133 -0.26,3.234 0.961,-0.741 1.642,-1.282 1.642,-1.592l0.01 0zm-7.668 14.955c1.081,-0.74 1.731,-1.281 1.762,-1.762 -0.431,-0.74 -0.881,-1.671 -1.332,-1.671 -1.812,0 -2.212,2.582 -0.43,3.433l0 0zm2.873 -5.565c-1.792,0.26 -2.212,2.132 -0.281,3.263 1.082,-0.791 1.732,-1.301 1.762,-1.702 -0.011,-0.897 -0.947,-1.576 -1.481,-1.561zm-0.631 7.608c0.51,0 1.111,-0.571 2.012,-1.472 -0.26,-0.26 -0.741,-0.77 -1.732,-1.811 -1.161,1.111 -1.701,1.591 -1.982,1.811 0.741,1.022 1.251,1.472 1.702,1.472zm-10.301 -127.523l1.642 -1.762c-0.681,-0.451 -0.911,-1.642 -1.812,-1.392 -0.681,0 -1.112,0.941 -1.562,1.622l1.732 1.532zm10.251 -13.024c-0.23,0.941 0.681,1.642 1.502,1.842 0.961,-0.341 1.562,-0.941 1.591,-1.562 -0.133,-1.889 -3.093,-1.903 -3.093,-0.28zm1.922 -19.47l-0.03 0c0.511,0.31 1.472,1.221 1.902,1.701 2.043,-1.872 2.043,-1.982 -0.14,-3.633 -0.37,0.26 -1.451,1.421 -1.731,1.932l-0.001 0zm-2.072 2.583c-0.231,0.45 0.881,1.161 1.592,1.301 0.37,0 0.88,-0.51 1.792,-1.562 -1.302,-1.391 -2.893,-1.621 -3.374,0.261l-0.01 0zm-0.791 17.768c-0.811,-0.31 -3.332,2.374 0.09,2.753 0.541,-0.03 1.111,-0.401 1.702,-1.221 -0.681,-0.601 -1.111,-1.532 -1.792,-1.532zm-2.353 2.352c-1.621,0.261 -1.641,2.133 0,2.984 0.991,-0.741 1.622,-1.251 1.622,-1.672 -0.48,-0.821 -1.161,-1.532 -1.622,-1.302l0 -0.01zm11.883 -10.901c-1.591,0.23 -1.621,1.872 -0.11,2.983l0.09 -0.09c1.762,-0.77 1.132,-3.123 0.03,-2.892l-0.01 -0.001zm-2.432 -2.352c-1.361,0.68 -1.642,2.582 0.09,3.233 0.991,-0.651 1.501,-1.302 1.501,-1.842 -0.26,-0.681 -0.91,-1.872 -1.591,-1.391zm0.62 -28.32c-2.189,-1.083 -2.922,4.281 -0.651,3.663 1.562,-0.34 2.013,-2.692 0.651,-3.663l0 0zm-17.599 60.243c1.082,-0.31 1.532,-1.251 2.212,-1.962 -1.591,-1.642 -2.042,-0.941 -3.604,0.48 0.681,0.231 0.451,1.422 1.392,1.472l0 0.01zm1.082 -12.744c0.91,0.231 0.91,1.392 1.761,1.622 1.132,-0.881 1.592,-1.421 1.562,-1.812 -0.821,-1.932 -2.412,-1.221 -3.323,0.2l0 -0.01zm-1.783 -1.901c-0.23,0.71 0.651,1.191 1.252,1.301 0.77,-0.37 1.902,-1.051 1.672,-1.531 -0.451,-1.873 -2.273,-1.162 -2.924,0.23l0 0zm22.155 -3.113c-0.601,0.54 -1.021,0.911 -1.222,1.221 -0.911,-0.651 -2.152,-0.14 -2.523,0.941 -0.204,0.498 1.619,2.243 2.954,0.62l0.821 0.941 1.672 -1.621c-0.451,-0.311 -1.392,-1.502 -1.702,-2.102l0 0zm-20.883 46.728c0.991,-1.021 1.562,-1.672 1.562,-2.152 -0.37,-0.791 -0.821,-1.762 -1.502,-1.502 -1.331,0.451 -2.012,3.033 -0.06,3.664l0 -0.01zm6.957 -36.258c0.371,-0.26 1.502,-1.331 1.812,-1.762 -1.221,-1.361 -2.582,-2.072 -3.263,-0.43 -0.681,1.191 0.681,1.421 1.451,2.182l0 0.01zm-0.23 13.244c0.481,-0.06 1.021,-0.651 1.932,-1.812 -1.562,-1.421 -2.923,-1.642 -3.373,0.451 0,0.26 0.711,1.161 1.451,1.361l-0.01 0zm-2.072 22.473l0.26 -0.31c1.502,-0.941 1.282,-3.293 -0.31,-3.293 -1.361,0 -1.812,2.833 0.06,3.603l-0.01 0zm-3.915 -37.649c-0.57,1.191 1.302,3.574 3.294,0.601 -1.021,-0.851 -2.152,-2.243 -3.294,-0.601zm-2.922 67.651c-0.231,1.161 0.68,1.872 1.672,2.382 0.4,-0.029 0.99,-0.74 1.501,-1.762 -0.711,-0.62 -1.391,-1.111 -1.841,-2.042 -1.153,0.461 -1.286,1.375 -1.332,1.422zm8.138 103.598c-1.361,0.451 -2.493,3.293 0.08,4.054 0.14,-0.23 0.451,-0.6 0.991,-1.221 1.392,-0.961 -0.17,-3.093 -1.081,-2.833l0.01 0zm-0.59 -10.841c-2.073,0.57 -1.622,3.494 0.28,4.224 3.51,-2.64 0.494,-4.293 -0.28,-4.225l0 0.001zm-5.506 -194.774c0.26,-0.4 0.601,-0.68 0.911,-0.961 1.872,-0.821 -0.431,-1.761 -0.881,-2.923l0 -0.03c-1.592,0.941 -1.622,3.033 -0.03,3.914l0 0zm17.589 -57.259c-0.481,1.021 0.4,2.012 1.281,2.272 0.541,-0.171 0.961,-0.4 1.251,-0.651 -0.79,0.961 -0.4,1.732 0.771,2.953 0.11,-0.23 1.302,-1.502 1.111,-2.492 -0.119,-0.664 -0.583,-0.625 -1.021,-1.302 -0.26,0.23 -0.48,0.43 -0.651,0.601 1.057,-1.343 -1.655,-3.662 -2.722,-1.362l-0.02 -0.019zm69.015 271.643c-0.547,1.071 -1.3,0.907 -1.612,1.502 0.951,-0.04 1.882,-0.08 2.803,-0.12 -0.14,-0.511 -0.53,-1.011 -1.191,-1.382zm-56.692 -123.979c1.872,-2.012 1.792,-1.392 -0.37,-3.604 -0.371,0.37 -1.251,1.531 -1.562,1.872l1.932 1.732zm79.657 123.008c-0.421,0.301 -0.921,0.581 -1.302,0.871 0.831,-0.09 1.642,-0.19 2.433,-0.29 -0.261,-0.321 -0.691,-0.571 -1.132,-0.571l0.001 -0.01zm-92.771 -16.567c1.532,-1.051 0.62,-2.953 -0.991,-2.923 -0.891,0.133 -2.26,1.987 -1.732,3.033 -1.972,-0.515 -1.931,1.051 -2.132,1.051 -0.451,1.362 0.68,1.932 1.562,2.583 0.637,-0.637 2.009,-1.691 1.331,-2.983 0.4,0.11 0.821,0.11 1.131,0.23 0.171,-0.17 0.541,-0.62 0.821,-0.991l0.01 0zm-5.165 7.148c0,0.45 0.91,1.331 1.901,1.531 0.481,-0.03 1.022,-0.771 2.013,-2.042 -2.305,-3.233 -3.914,-0.016 -3.914,0.511zm8.709 -274.167c0.2,-1.221 -0.681,-2.643 -1.812,-1.962 -2.251,1.384 1.092,4.884 1.821,1.962l-0.009 0zm-28.972 199.428c-1.131,0.261 -2.012,1.872 -0.34,3.094 0.11,-0.11 0.23,-0.2 0.31,-0.31 1.392,-0.651 1.842,-3.004 0.03,-2.783l0 -0.001zm0.681 -30.532c-1.812,0.481 -1.131,2.353 0.451,3.374 0.37,-0.511 0.991,-1.111 1.591,-1.732 -0.68,-0.48 -1.361,-1.872 -2.042,-1.642zm3.214 33.225c0.65,0 1.451,-0.541 2.042,-1.392 -0.26,-0.6 -0.941,-1.051 -1.392,-1.531 -0.45,0.711 -1.591,0.711 -1.812,1.642 0,0.45 0.231,1.421 1.162,1.281zm16.628 -169.967c0.77,-0.06 1.301,-0.851 1.421,-1.562 0.341,-1.282 -1.021,-1.962 -1.471,-1.902 -1.642,0.34 -1.702,2.813 0.06,3.464l-0.01 0zm3.263 206.515c-0.681,0.711 -1.592,1.162 -1.812,1.642 -0.23,0.941 1.131,1.161 1.642,2.133 3.756,-2.46 0.877,-2.66 0.17,-3.775l0 0zm4.595 32.434c0,0.651 0.48,1.362 1.452,2.012 2.011,-1.531 2.042,-2.523 -0.061,-3.804 -0.911,0.541 -1.361,1.162 -1.391,1.792l0 0zm-6.417 -245.056c0.451,-1.191 -0.68,-2.382 -1.591,-2.132 -2.009,0.271 -1.862,3.667 0.22,3.374 0.68,-0.281 1.131,-0.771 1.361,-1.251l0.01 0.009zm0 218.729c-0.45,1.421 1.132,1.872 1.762,2.642 1.161,-1.021 1.702,-1.531 1.702,-1.982 -0.51,-2.072 -2.552,-2.523 -3.464,-0.651l0 -0.009zm6.838 -0.801c-1.592,1.702 -1.792,2.833 0.06,4.084 1.081,-1.131 1.502,-1.902 1.421,-2.523 -0.106,-0.807 -1.406,-1.563 -1.481,-1.561zm67.062 -244.856c0.691,-0.38 1.172,-0.991 1.342,-1.641 -0.531,-0.341 -1.252,-0.991 -2.003,-1.552 -0.63,0.721 -1.091,1.301 -1.241,1.552 0.551,0.837 1.418,1.641 1.902,1.641zm-1.031 -3.473l-2.222 -1.912c-0.291,0.32 -0.621,0.801 -1.041,1.471 0.6,2.163 2.392,1.572 3.253,0.441l0.01 0zm3.754 5.485c1.182,-0.29 1.612,-1.541 1.242,-2.553l-1.722 -0.7c-0.32,0.48 -0.601,0.851 -0.831,1.151 -0.959,0.986 -0.008,2.102 1.311,2.102zm-10.191 -8.479c0.661,-0.62 1.082,-1.031 1.312,-1.381 -0.731,-0.55 -1.502,-1.031 -2.313,-1.391 -0.797,0.938 -0.518,1.205 1.011,2.783l-0.01 -0.011zm-63.078 1.082c0.923,0 2.028,-1.029 1.461,-1.822 -0.7,0.58 -1.381,1.191 -2.062,1.792l0.601 0.03zm78.175 6.807c0.16,-0.06 0.33,-0.151 0.48,-0.27l-1.932 -0.781c0.321,0.66 0.981,1.171 1.452,1.051zm5.165 4.625c1.302,-0.081 1.572,-1.502 0.961,-2.643 -0.6,-0.21 -1.191,-0.42 -1.791,-0.631 -1.242,1.602 -1.212,3.404 0.83,3.283l0 -0.009zm-2.523 -2.353c0.581,-0.22 0.912,-0.691 1.042,-1.241l-2.473 -1.001c-0.48,1.231 -0.09,2.562 1.432,2.242l-0.001 0zm-98.216 281.604c-0.51,0.13 -0.861,0.38 -1.071,0.691 0.741,0.07 1.492,0.14 2.232,0.2 -0.44,-0.49 -0.881,-0.911 -1.161,-0.891zm9.34 -1.171c-0.481,0.791 -0.941,1.842 -1.622,2.412l3.154 0.201c0.16,-0.231 0.321,-0.491 0.5,-0.802 -0.941,-0.48 -1.391,-1.161 -2.042,-1.811l0.01 0zm12.544 0.4c-1.312,1.232 -1.742,1.662 -1.341,2.373 0.841,0 1.722,0.02 2.623,0.03 0.397,-0.708 0.01,-1.1 -1.292,-2.403l0.01 0zm-5.486 -289.592l-2.103 1.782c0.25,0.21 0.53,0.39 0.861,0.481 1.412,-0.501 1.612,-1.502 1.241,-2.263l0.001 0zm-4.365 291.604c-0.15,0.06 -0.28,0.14 -0.41,0.22 0.42,0.01 0.851,0.021 1.291,0.03 -0.26,-0.27 -0.57,-0.4 -0.881,-0.25zm-12.513 -1.952c-0.621,-0.68 -1.302,-1.811 -1.983,-1.811 -1.121,0.19 -1.621,2.152 -0.45,3.023 0.49,0.049 0.971,0.1 1.461,0.15 0.321,-0.24 0.641,-0.671 0.971,-1.362l0.001 0zm9.42 -282.935c-0.231,-0.171 -0.511,-0.311 -0.771,-0.311 -1.361,0.261 -3.173,3.064 -0.48,3.634 1.177,-0.021 2.602,-1.437 1.641,-2.923 1.425,0.784 3.717,-1.387 2.212,-2.583 -1.292,-1.027 -3.408,0.602 -2.602,2.183zm-13.455 283.476c-0.46,0.05 -0.771,0.18 -0.961,0.38 0.64,0.08 1.282,0.15 1.922,0.23 -0.25,-0.41 -0.53,-0.73 -0.961,-0.6l0 -0.01zm-2.493 -3.073c-0.23,0 -0.68,0.48 -0.911,0.711 -0.61,0.961 -0.19,1.802 0.421,2.472 0.53,0.07 1.051,0.14 1.592,0.211 1.161,-1.182 0.12,-2.753 -1.102,-3.384l0 -0.01zm10.872 -69.513c-0.23,0.941 -1.361,1.161 -1.812,1.872 1.455,0.492 0.945,2.439 3.494,-0.29 -0.771,-0.431 -0.991,-1.361 -1.672,-1.592l-0.01 0.01zm8.509 -87.491c0.311,-0.371 0.601,-0.651 0.821,-0.912 1.422,-1.05 0.261,-2.662 -0.881,-2.412 -1.591,0.261 -2.011,2.583 0.061,3.324l-0.001 0zm0.171 -12.824c-0.431,0.541 -1.392,1.592 -1.903,1.982 0.311,0.431 1.302,1.392 1.672,1.592 2.073,-1.421 2.583,-2.102 0.231,-3.574l0 0zm-2.413 26.818c-1.842,0.511 -1.842,2.383 0.03,3.574 0.711,-0.821 0.941,-1.301 1.812,-2.212 -0.941,-0.2 -0.941,-1.622 -1.842,-1.361l0 -0.001zm-0.821 40.553l0 -0.03c0.11,0.11 0.261,0.26 0.371,0.37 1.421,-1.221 1.872,-3.573 -0.171,-3.573 -1.562,0.23 -2.012,2.352 -0.2,3.233zm0.881 -16.407c-0.451,-0.711 -1.562,-1.642 -2.012,-1.642 -1.592,0.481 -1.132,2.833 0.4,3.694l1.622 -2.042 -0.01 -0.01zm4.425 -39.412c-2.043,0.261 -1.562,2.813 0.06,3.634 1.081,-1.051 1.672,-1.672 1.642,-2.152 -0.31,-0.791 -1.251,-1.702 -1.702,-1.472l0 -0.01zm-1.161 -3.213c0,0.681 0.711,1.361 1.281,1.812 0.371,-0.481 1.302,-1.562 1.902,-1.842 -0.941,-1.621 -2.983,-2.072 -3.173,0.03l-0.01 0zm0.59 -5.756c-1.591,0.941 -0.68,3.063 0.851,3.063 0.4,-0.2 1.592,-1.281 1.812,-1.762 -0.4,-0.821 -1.301,-2.012 -2.663,-1.301l0 0zm0.461 79.083l0.2 -0.201c1.842,-0.911 1.161,-3.003 -0.2,-3.003 -1.812,0 -1.362,2.102 0,3.204zm-1.482 -12.884c0.791,-2.072 -1.471,-1.131 -1.251,-2.553 -0.681,0.481 -1.132,1.192 -1.361,1.902 0,0.941 0.911,1.392 1.621,1.932 0.431,-0.601 0.771,-0.991 0.991,-1.281l0 0zm0.821 -6.096c0.881,-0.821 1.391,-1.362 1.391,-1.792 -0.28,-0.771 -1.191,-1.702 -1.641,-1.702 -2.043,0.481 -1.132,2.353 0.26,3.494l-0.01 0zm-2.523 7.968c-0.03,-0.48 -0.45,-1.021 -1.562,-1.842 -1.962,1.562 -1.762,2.073 0.231,3.744 0.991,-0.881 1.391,-1.421 1.331,-1.902zm3.404 -39.181c-1.361,0 -1.812,3.063 0.03,3.774 1.825,-2.045 1.541,-3.584 -0.03,-3.784l0 0.01zm-9.731 27.239c0.681,0.48 1.592,0.71 1.902,1.591 1.544,-0.32 1.969,-3.203 -0.31,-3.203 -0.681,0 -0.911,1.161 -1.592,1.621l0 -0.009zm3.184 -14.075c-2.043,0 -1.592,2.353 0.09,3.434 1.721,-1.727 1.474,-3.434 -0.09,-3.434zm-0.771 43.866c1.051,-0.911 1.622,-1.422 1.642,-1.812 -0.231,-0.711 -0.881,-1.422 -1.332,-1.422 -1.591,0.231 -2.042,2.353 -0.31,3.234zm3.974 -4.024c0.171,-0.851 -0.961,-1.332 -1.421,-1.332 -1.592,0 -1.592,2.353 -0.14,3.123 0.961,-0.71 1.562,-1.301 1.562,-1.791l-0.001 0zm1.362 -36.519c0.28,-0.4 0.62,-0.74 0.941,-1.051 2.012,-3.263 -1.422,-1.361 -0.961,-3.003 -1.592,0.941 -1.622,3.063 0.03,4.054l-0.01 0zm4.995 51.244c0.991,-0.741 1.592,-1.221 1.642,-1.592 -0.14,-0.601 -0.601,-1.532 -1.281,-1.532 -2.291,0 -1.475,3.124 -0.361,3.124zm-14.045 -51.133c0.62,-0.401 1.081,-1.332 1.762,-1.792 -0.681,-0.481 -1.361,-0.941 -2.042,-1.642 -0.419,1.293 -3.07,1.597 0.28,3.434l0 0zm12.854 45.177c1.501,1.79 1.59,1.808 3.434,0.03 -0.961,-2.133 -2.323,-1.422 -3.434,-0.03l0 0zm-12.434 -60.553c1.792,-1.222 -0.26,-2.643 -0.941,-2.643l0 0.03c-1.591,-0.261 -1.591,2.582 0.111,3.573l0.83 -0.96zm-0.851 5.525c0.341,0 0.741,-0.48 1.472,-1.391 0.51,-1.422 -1.532,-0.911 -1.532,-2.102 -1.361,1.451 -2.072,2.612 0.06,3.493zm-6.186 48.921c0.45,0.481 0.911,1.192 1.471,1.422 1.021,-0.231 1.472,-0.941 1.672,-1.422 0.231,-0.711 -0.881,-1.161 -1.331,-1.872l-1.812 1.872zm19.841 -22.924c1.642,-1.021 -0.37,-2.212 -1.051,-2.663 -0.45,-0.26 -0.911,0.451 -1.131,0.941 -0.231,1.162 0.45,2.353 1.471,2.613l0.711 -0.891zm-18.249 7.658c-1.812,0.481 -0.911,2.353 0.31,3.264l1.702 -1.842c-0.911,-0.26 -1.132,-1.902 -2.012,-1.422zm16.207 -91.705c0.371,-0.371 0.681,-0.681 0.941,-0.912 1.192,-0.88 0.281,-2.042 -0.851,-2.302l0 0.03c-0.68,0 -1.131,1.161 -1.361,1.642 -0.451,0.941 0.911,0.941 1.281,1.531l-0.01 0.011zm-4.605 117.362c-1.634,-3.901 -4.039,0.892 -1.651,1.612 1.021,-0.771 1.621,-1.281 1.641,-1.621l0.01 0.009zm-7.318 -53.606c-2.332,-3.678 -4.919,1.031 -1.782,2.122l1.782 -2.132 0 0.01zm0 53.807c-0.23,0.45 0,1.391 0.911,1.281 1.132,0.11 1.592,-0.821 2.273,-1.281 -0.911,-1.642 -2.723,-2.133 -3.174,0l-0.01 0zm10.532 -39.902c2.182,-1.161 1.731,-2.643 -0.261,-3.884 -1.971,1.765 -1.846,2.722 0.25,3.894l0.011 -0.01zm-6.217 43.185c-0.681,0.941 0,1.872 0.961,2.412 1.081,-0.851 1.672,-1.331 1.702,-1.672 -0.651,-1.221 -1.762,-2.382 -2.663,-0.741l0 0.001zm0.06 -67.25c-0.511,-0.401 -1.422,-1.332 -1.812,-1.842 -1.812,1.672 -2.133,2.923 0.06,3.914 0.341,-0.341 1.332,-1.532 1.762,-2.072l-0.01 0zm7.658 -65.238c-1.361,0.23 -1.621,2.582 -0.029,3.093 0.17,-0.17 0.31,-0.341 0.45,-0.481 1.361,-0.74 1.131,-2.863 -0.431,-2.612l0.01 0zm-0.17 -4.675c-0.48,0.71 -3.024,1.859 0.11,3.323 0.601,-0.791 1.021,-1.221 1.282,-1.502 0.561,-0.928 -1.392,-1.079 -1.392,-1.821zm10.842 111.036l-2.103 -1.843c-1.542,1.544 -1.954,2.621 0.17,3.404 0.571,0.2 1.452,-0.821 1.932,-1.562l0.001 0.001zm-3.724 91.565c2.322,-1.872 1.842,-1.391 -0.03,-3.633 -1.932,1.841 -1.982,1.872 0.03,3.633zm-2.603 -2.553c1.051,-1.051 1.672,-1.672 1.672,-2.152 -0.37,-0.881 -1.021,-1.762 -1.702,-1.532 -1.842,0.481 -1.842,2.693 0.03,3.694l0 -0.01zm5.325 -31.983c-0.34,-0.431 -1.301,-1.592 -1.672,-1.932 -1.901,2.133 -1.811,1.982 0.081,4.085l1.591 -2.153zm2.644 3.244c-1.642,1.161 -1.282,2.442 0.139,4.084 0.571,-0.791 0.912,-1.361 1.672,-2.072 -0.26,-0.451 -1.391,-1.562 -1.811,-2.012zm-0.851 26.437c0.2,0 0.791,-0.711 1.642,-1.702 -0.481,-0.51 -1.392,-1.251 -1.812,-1.762l-1.622 1.702c1.161,0.771 1.622,1.762 1.792,1.762zm-15.777 -25.707c0.43,-0.601 1.501,-1.672 2.042,-2.072 -0.711,-0.4 -0.941,-1.812 -1.842,-1.562 -2.042,0.231 -2.273,2.583 -0.2,3.634l0 0zm8.629 22.984c1.081,-1.021 1.641,-1.592 1.641,-2.042 -0.51,-0.711 -0.99,-1.792 -1.672,-1.562 -2.042,0.45 -2.012,2.613 0.031,3.604l0 0zm-11.072 -25.506c1.111,-0.741 1.792,-1.302 1.792,-1.792 -0.061,-1.221 -1.192,-1.932 -1.622,-1.932 -2.043,0 -2.272,2.613 -0.17,3.714l0 0.01zm6.016 -0.961c0.261,-0.401 0.712,-0.621 1.162,-0.851 -1.362,-1.642 -2.953,-2.583 -3.634,-0.481 -0.231,0.711 1.131,1.422 1.502,2.273l0.97 -0.941zm14.877 -15.096l-1.672 -1.902c-1.132,0.62 -1.812,1.361 -1.732,1.531 1.245,2.429 2.026,2.12 3.404,0.371zm-0.401 -34.766l-1.962 1.702c1.425,1.824 2.153,1.988 3.744,0.089l-1.792 -1.791 0.01 0zm1.442 21.282c0,-0.341 -0.481,-0.851 -1.282,-1.642 -2.322,1.672 -2.302,1.622 -0.54,3.324 1.081,-0.771 1.812,-1.302 1.812,-1.672l0.01 -0.01zm-3.404 -93.388c0.03,0.451 0.571,0.991 1.502,1.762 0.541,-0.601 1.301,-1.621 1.732,-1.982 -0.371,-0.481 -1.302,-1.562 -1.642,-1.842 -1.132,1.081 -1.562,1.532 -1.592,2.072l0 -0.01zm-2.323 -120.115c1.332,1.842 2.213,1.191 3.604,-0.341 -0.28,-0.37 -1.502,-1.221 -1.842,-1.561 -0.601,0.48 -1.021,1.391 -1.762,1.902l0 0zm-1.932 -2.213c0.03,0.451 0.571,0.961 1.502,1.642l1.762 -1.902c-0.31,-0.4 -1.331,-1.361 -1.702,-1.621 -0.971,0.798 -1.562,1.359 -1.562,1.881zm6.327 233.764c-0.881,-0.941 -1.331,-1.421 -1.531,-1.701 -1.812,2.152 -2.133,1.762 -0.14,3.633 0.31,-0.65 1.131,-1.531 1.672,-1.932l-0.001 0zm-3.173 5.246c1.018,1.73 1.626,2.306 3.243,-0.12l-1.592 -1.982 -1.651 2.102zm-21.683 33.485l0.17 0.11c1.841,-1.701 2.072,-3.974 -0.231,-3.804 -1.842,-0.11 -1.842,2.663 0.061,3.694zm24.285 -54.107c-2.242,1.702 -2.212,1.642 -0.43,3.374 2.212,-1.672 2.182,-1.642 0.43,-3.374zm-33.906 -56.248c-2.043,0.26 -1.132,2.833 0.45,3.574 0.401,-0.281 1.452,-1.452 1.622,-1.932 -0.941,-0.23 -1.391,-1.642 -2.072,-1.642l0 0zm1.251 -56.98c0.2,0.2 0.431,0.431 0.711,0.711 2.152,-2.242 1.932,-1.471 0.09,-3.323 -1.642,2.072 -1.902,1.562 -0.791,2.613l-0.01 -0.001zm-3.744 54.658c-2.333,0.343 -0.424,3.833 0.37,3.543 1.452,-1.221 1.903,-3.804 -0.37,-3.543zm-1.021 67.019c2.152,-1.731 2.272,-2.102 0.45,-3.463 -1.841,1.451 -2.072,1.962 -0.45,3.463zm-0.741 -6.066c-0.03,0.48 1.251,1.622 1.251,1.622 2.243,-1.792 2.243,-1.732 0.511,-3.344 -1.111,0.821 -1.762,1.332 -1.762,1.732l0 -0.01zm8.8 -185.474c-0.912,-0.23 -1.812,0.711 -1.592,1.642 0,0.711 0.911,1.161 1.872,1.331 2.183,-0.4 0.821,-2.753 -0.28,-2.983l0 0.01zm-1.592 53.807c0,0.711 1.131,0.711 1.502,1.421 2.67,-1.335 1.035,-3.258 -0.151,-3.064 -0.68,0 -1.591,0.941 -1.361,1.642l0.01 0.001zm1.272 -11.633l0.139 -0.17c1.532,-0.881 1.302,-3.233 -0.28,-3.003 -1.688,0.244 -1.311,1.721 0.141,3.173zm4.794 173.322l0.031 0.06c1.331,-0.961 1.811,-2.613 1.161,-3.404 0.26,0.2 0.6,0.4 1.081,0.51 2.413,-1.672 2.272,-2.272 0.17,-4.114 -1.111,0.821 -2.242,2.443 -1.421,3.434 -1.636,-1.42 -4.043,1.644 -1.021,3.524l-0.001 -0.01zm-3.603 -14.646c0,0.711 0.911,1.161 1.592,1.732 0.68,-0.571 1.811,-1.021 1.591,-1.732 0,-0.711 -1.361,-0.941 -1.591,-1.872 -0.451,0.711 -1.793,0.941 -1.592,1.872zm1.201 6.727c0.711,-0.941 1.191,-1.422 1.451,-1.672 -0.14,-0.821 -0.821,-1.762 -1.281,-1.762 -1.743,0.23 -1.771,2.633 -0.17,3.434zm-9.45 5.676c3.036,-2.863 0.62,-2.369 0.11,-3.944 -2.012,0.941 -1.332,2.583 -0.11,3.944l0 0zm8.479 -21.993c1.131,-0.941 1.762,-1.471 1.792,-1.842 -0.43,-0.54 -0.651,-1.471 -1.331,-1.251 -3.077,1.018 -0.874,2.592 -0.451,3.093l-0.01 0zm0.821 21.252c0.31,0 0.911,-0.651 1.932,-1.842l-0.03 0c-0.451,-0.65 -1.132,-1.131 -1.592,-1.812 -0.681,0.681 -1.331,1.392 -2.012,2.103 0.681,0.48 1.111,1.421 1.702,1.561l0 -0.01zm-3.434 -18.839c1.131,-0.881 1.792,-1.422 1.812,-1.792 -0.08,-0.911 -0.991,-1.131 -1.221,-1.842 -1.902,0.808 -1.876,3.634 -0.591,3.634zm-4.024 -4.405c1.672,-0.621 2.353,-2.983 0.54,-3.203 -1.361,0 -2.492,1.872 -0.68,3.063l0.14 0.14zm1.421 6.727c0.231,-0.341 0.791,-0.821 1.702,-1.532 0.14,-1.131 -0.77,-1.841 -1.221,-1.841 -1.592,0 -2.273,2.352 -0.481,3.373zm8.62 -201.38c-1.449,0 -2.231,3.284 -0.261,3.454 1.928,0.166 2.187,-2.977 0.261,-3.464l0 0.01zm-12.654 249.45c-0.681,-0.23 -0.911,1.192 -1.592,1.422 1.608,1.064 1.418,3.306 3.374,0.22 -0.681,-0.451 -1.131,-1.642 -1.792,-1.642l0.01 0zm2.012 -2.582c-1.812,0.26 -0.681,2.582 0.37,3.713 0.11,-0.14 0.231,-0.28 0.341,-0.4 1.792,-1.191 0.43,-3.323 -0.711,-3.323l0 0.01zm1.141 -24.176c-0.451,0 -1.131,1.161 -1.812,1.872 0.911,0.231 0.911,1.642 1.762,1.642 2.102,-1.191 1.642,-3.063 0.06,-3.514l-0.01 0zm2.263 8.199c-1.362,0 -1.592,2.833 0.51,3.543 1.302,-1.641 1.302,-3.774 -0.51,-3.543zm-4.985 -21.533c0,-0.06 0.23,-0.06 0.23,-0.06 -0.451,-0.711 -1.111,-1.191 -1.562,-1.872 -0.681,0.451 -1.812,1.161 -1.812,1.872 0,0.451 0.911,1.161 1.451,1.562 0.341,0 0.851,-0.571 1.702,-1.502l-0.009 0zm-4.005 -203.853c0.064,0.007 1.562,-0.385 1.562,-1.681 0,-0.636 -1.406,-1.728 -1.592,-2.102 -1.494,0.788 -1.575,3.404 0.03,3.773l0 0.01zm0.881 -0.17c-0.2,0.771 0.451,2.863 1.332,2.863 0.79,0 2.472,-1.982 0.6,-3.173l-0.57 -0.601c-0.741,0.14 -1.192,0.371 -1.362,0.911l0 0zm0.591 174.342c2.102,-1.502 1.531,-1.421 1.702,-1.622 0.17,-0.94 -0.961,-0.94 -1.192,-1.641 -1.361,0.711 -2.272,2.582 -0.51,3.263zm0.29 -127.633c-0.451,-0.51 -1.361,-1.421 -1.642,-1.672 -1.872,0.681 -2.102,2.833 -0.08,3.664 0.31,-0.68 1.331,-1.732 1.732,-1.982l-0.01 -0.01zm7.228 172.981c-1.362,0.26 -2.043,3.544 0.06,4.034 0.2,-0.03 0.481,-0.48 0.711,-0.881 1.502,-1.021 0.37,-3.153 -0.771,-3.153l0 0zm8.179 24.455c-2.042,0.451 -1.392,3.204 0.28,3.974 0.991,-1.191 1.502,-1.872 1.502,-2.412 -0.2,-0.791 -1.332,-1.622 -1.792,-1.562l0.01 0zm4.054 -22.103c-1.131,0.941 -1.361,3.063 0.28,3.774 0.511,-0.651 1.392,-1.592 1.532,-1.762 0.2,-1.301 -1.592,-0.851 -1.812,-2.012zm-3.994 20.742c0.14,-0.2 0.28,-0.401 0.43,-0.571 1.361,-1.301 1.392,-3.864 -0.681,-3.403 -1.621,0.62 -1.391,3.153 0.261,3.974l-0.01 0zm2.663 4.114c-1.592,0.2 -1.842,2.382 0.06,3.434 0.14,-0.171 0.4,-0.451 0.771,-0.881 1.474,-1.329 0.242,-2.553 -0.831,-2.553zm-7.318 -51.273c0.51,0 1.111,-0.511 1.791,-1.562 -0.62,-0.431 -0.85,-1.842 -1.531,-1.622 -0.881,0 -1.332,1.192 -2.012,1.872 0.68,0.481 0.911,1.422 1.762,1.302l-0.01 0.01zm1.872 40.832c-1.812,0.11 -1.592,2.893 0.23,3.804l0.06 0.06c1.491,-1.39 2.331,-3.864 -0.29,-3.864zm-1.822 8.058c-2.043,0.091 -1.362,2.893 0.17,3.804 0.28,-0.43 0.54,-0.77 0.741,-1.081 1.331,-0.991 0,-2.753 -0.911,-2.723l0 0zm-3.654 -214.383c0.26,0 0.601,-0.371 1.051,-0.851 1.251,-2.212 -1.021,-1.502 -0.791,-2.663 -0.611,0.923 -3.208,1.338 -0.26,3.514zm16.768 -56.549c2.929,-0.187 0.892,-5.571 -1.582,-1.612 -0.711,1.021 0.681,1.422 1.592,1.622l-0.01 -0.01zm-0.941 0.821c0.26,-1.282 -1.361,-0.912 -1.562,-1.642l-0.03 0c-0.45,1.021 -2.072,0.911 -1.872,2.132 0.501,2.457 3.464,0.702 3.464,-0.49zm-4.165 18.729c1.087,0 2.202,-3.422 -0.08,-3.403 -1.592,0 -1.361,2.813 0.09,3.403l-0.01 0zm-17.739 11.432l-0.43 -0.43c-0.991,1.191 -1.732,3.343 0.09,3.603 1.561,0.261 1.902,-2.302 0.34,-3.173zm27.47 -40.552c0.231,-0.261 0.511,-0.481 0.771,-0.681 1.732,-0.711 0.09,-2.553 -0.821,-2.523 -0.911,0 -2.012,1.191 -1.302,2.072 0.231,0.451 0.941,0.651 1.362,1.132l-0.01 0zm2.273 -2.723c1.471,0.28 1.932,-0.791 1.621,-1.642 0.511,0.14 1.112,-0.961 2.012,-1.671 -0.45,-0.371 -1.281,-1.132 -1.641,-1.592l-1.732 1.902c0,0 0.03,0.06 0.03,0.09 -2.015,-0.652 -2.725,3.243 -0.291,2.923l0.001 -0.01zm-0.801 15.386c-0.621,-2.272 -1.762,-2.012 -3.404,-0.2 0.43,0.31 1.471,1.501 1.982,1.501 0.711,-0.029 1.422,-1.051 1.422,-1.301zm-13.075 28.83c1.982,-0.991 1.332,-2.953 -0.03,-3.343 -0.45,0.029 -1.161,1.081 -1.842,1.841 0.681,0.451 1.132,0.941 1.873,1.502l-0.001 0zm7.769 -25.687c0.463,1.028 2.277,0.999 2.582,-0.59 0.201,-1.252 -0.71,-1.472 -1.161,-2.213 -0.68,0.771 -1.621,1.562 -1.421,2.813l0 -0.01zm8.088 -18.949c-1.982,1.811 -1.982,2.012 -0.029,3.463 0.51,-0.6 1.281,-1.621 1.701,-2.012l-1.671 -1.441 -0.001 -0.01zm-25.567 35.126c2.2,-0.179 1.751,-3.578 -0.06,-3.463 -2.042,0.26 -1.361,2.352 0.06,3.464l0 -0.001zm-3.914 44.236c1.696,1.123 1.19,2.783 3.413,0.17 -0.45,-0.65 -1.131,-1.111 -1.591,-1.811l-1.822 1.641zm11.152 -17.878c0.62,-0.231 1.301,-0.681 1.762,-1.161 -1.132,-0.231 -1.132,-1.872 -1.812,-1.872 -1.057,-0.174 -3.473,2.186 0.06,3.033l-0.01 0zm-11.553 2.783c2.152,-1.162 2.042,-1.962 0,-3.915 -1.932,1.252 -1.812,2.413 0,3.915zm5.166 -28.6c-0.231,1.421 0.911,0.941 1.592,1.421 0.62,-0.03 1.301,-0.45 1.841,-1.191 -0.87,-2.198 -3.433,-2.261 -3.433,-0.23zm6.357 -8.089c1.331,-0.601 1.331,-2.953 -0.481,-3.203 -1.812,0.26 -1.812,3.293 0.481,3.203zm-2.413 12.744c0.066,-0.133 2.6,-3.714 -0.11,-3.714 -1.792,0 -1.111,2.813 0.11,3.714zm2.753 11.692c0.771,-0.401 0.991,-1.361 1.642,-1.842 -0.651,-0.481 -1.332,-1.422 -1.792,-1.422 -1.57,0.137 -1.798,3.264 0.15,3.264zm-2.183 49.191c0.021,0.48 1.142,0.951 1.842,1.402 0.401,0 0.881,-0.481 1.502,-1.472 -1.051,-1.582 -2.853,-2.042 -3.344,0.07zm-0.68 -11.993c-1.562,0.481 -1.562,2.353 0.2,3.094 0.37,-0.17 1.592,-1.081 1.762,-1.622 -0.821,-0.28 -1.502,-1.471 -1.962,-1.471l0 -0.001zm0.68 12.003l0 0zm-0.79 -0.511l0.11 0.09c2.748,-2.182 0.437,-3.274 0,-3.123 -1.332,0.261 -1.792,2.133 -0.11,3.033zm9.22 -17.678c0.62,0 1.301,-0.48 1.932,-1.361 -0.571,-0.431 -1.252,-1.592 -2.153,-1.361 -1.361,0.26 -1.622,2.582 0.231,2.723l-0.01 -0.001zm-12.574 18.56c0.03,0.45 0.401,0.941 1.192,1.531 1.982,-1.161 2.152,-2.412 0.06,-3.403 -0.911,0.851 -1.251,1.361 -1.251,1.872l-0.001 0zm9.34 -9.621c-0.23,0.941 0.451,1.642 1.131,2.103 1.475,-1.658 2.057,-1.453 1.412,-2.123 -0.911,-0.94 -2.072,-1.161 -2.553,0.03l0.01 -0.01zm-1.341 -7.207c-1.812,0.481 -1.361,2.132 0.17,3.093 0.2,-0.2 0.37,-0.34 0.511,-0.48 1.812,-0.961 0,-2.613 -0.681,-2.613zm-9.53 141.428c1.111,-0.881 1.762,-1.422 1.792,-1.812 -0.401,-0.541 -0.851,-1.251 -1.302,-1.251 -1.592,0 -2.272,2.132 -0.48,3.063l-0.01 0zm0.37 -42.315c0.821,-0.85 1.281,-1.331 1.281,-1.702 -0.029,-1.11 -1.161,-1.811 -1.621,-1.811 -1.812,0.26 -0.911,2.582 0.341,3.513l-0.001 0zm13.445 -105.239c0.139,0.11 0.31,0.23 0.48,0.37 2.012,-1.281 1.331,-2.923 -0.03,-3.404 -0.681,0 -2.012,2.353 -0.45,3.034zm-13.225 143.209c3.561,-2.537 0.891,-2.448 0.571,-3.434 -1.361,0.711 -2.273,2.353 -0.571,3.434l0 0zm1.422 6.437c0.31,-0.281 0.601,-0.541 0.821,-0.771 0.37,-0.17 1.021,-0.4 1.021,-1.111 -0.23,-0.711 -0.881,-1.422 -1.331,-1.161 -1.592,0.23 -2.273,2.102 -0.511,3.033l0 0.01zm-2.213 -59.412c-0.451,1.161 0.681,2.352 1.562,3.003 0.961,-1.081 1.422,-1.642 1.331,-2.132 -0.417,-1.562 -2.826,-2.006 -2.893,-0.871zm7.779 -111.917c2.757,-0.137 0.566,-5.393 -0.991,-2.723 -0.681,0.941 -0.231,2.353 0.991,2.723zm-8.459 103.688c0.45,0.711 1.131,1.161 1.561,1.532 0.171,-0.2 0.511,-0.651 0.771,-0.991 0.4,-0.311 0.851,-0.771 0.851,-1.252 -0.24,-1.988 -4.06,-1.12 -3.173,0.711l-0.01 0zm3.664 -10.701c0.48,-0.481 0.991,-1.422 1.762,-2.212 -0.651,-0.481 -1.332,-0.941 -1.903,-1.672 -2.038,1.661 -2.019,2.374 0.141,3.884zm1.581 72.185c0.17,-0.88 -0.941,-0.88 -1.392,-1.592 -1.131,0.712 -2.492,2.353 -0.4,3.374 1.131,-0.911 1.762,-1.422 1.792,-1.792l0 0.01zm24.407 -92.506c-0.481,-0.541 -0.771,-0.821 -0.911,-1.021l-1.642 1.471c1.452,2.242 1.902,2.042 3.404,0.48 -0.17,-0.23 -0.541,-0.62 -0.851,-0.941l0 0.011zm-1.071 14.955c1.982,-1.701 1.932,-1.191 0.06,-3.173 -1.872,1.592 -1.982,1.282 -0.06,3.173zm1.671 -9.73c0.03,-0.4 -0.57,-0.991 -1.501,-1.842 -1.963,1.162 -1.932,1.532 0.029,3.264 0.851,-0.601 1.452,-1.051 1.472,-1.422l0 0zm-1.221 -46.278c-2.893,2.182 -0.4,3.513 0.06,3.513 0.621,0 1.192,-0.91 1.702,-1.621l-1.762 -1.902 0 0.01zm-12.794 180.669c-2.753,0.43 0,2.182 0.541,3.944 2.473,-1.532 1.532,-4.285 -0.541,-3.944zm15.997 -105.621c0.141,-0.139 0.281,-0.31 0.431,-0.45 -0.31,-0.4 -1.471,-1.472 -1.872,-1.792 -1.706,1.646 -1.392,3.04 0.2,3.433 0.231,0.031 1.251,-1.16 1.251,-1.191l-0.01 0zm-6.216 28.04c-1.592,0.23 -1.362,2.352 0.08,3.373l1.732 -1.732c-0.681,-0.711 -1.362,-1.641 -1.812,-1.641zm1.341 -105.931c1.842,2.663 1.732,1.421 3.404,0l-1.622 -1.842 -1.791 1.842 0.009 0zm-9.51 -38.961c1.842,-0.911 1.161,-1.932 0.961,-2.923 -0.651,-1.502 -2.523,-0.17 -2.523,1.111 -0.03,0.771 0.651,1.732 1.562,1.812zm12.063 -10.641c-0.43,-0.43 -0.791,-0.941 -0.821,-0.961 -0.621,0.791 -1.081,1.732 -1.872,2.302 1.91,3.108 3.21,0.146 3.324,-0.31 0.088,-0.353 -0.246,-0.646 -0.631,-1.031zm-12.203 5.506c2.056,-0.09 1.09,-4.43 -0.741,-3.374 -0.911,0.481 -1.362,3.294 0.741,3.374l0 0zm-0.4 19.691c3.589,-0.57 0.988,-2.974 0.2,-2.974 -1.132,0 -2.303,2.833 -0.2,2.984l0 -0.01zm2.672 -25.878c-0.711,0.03 -0.961,1.282 -1.902,1.813 0.651,0.74 1.112,1.221 1.932,1.471 0.541,-0.17 1.111,-0.651 1.332,-1.132 0.65,-1.191 -0.681,-2.182 -1.362,-2.152l0 0zm-2.583 41.063c0.481,-0.54 1.392,-1.331 1.562,-1.792 0.231,-0.941 -0.88,-1.841 -1.591,-1.621 -1.812,0.451 -1.842,2.552 0.029,3.404l0 0.009zm7.719 6.837c1.562,2.043 1.842,1.983 3.434,0.03l-1.732 -1.792c-0.401,0.541 -1.192,1.392 -1.702,1.762zm-4.515 -43.925c-0.23,0.961 0.911,1.902 1.812,1.872 2.473,-1.162 0.651,-2.102 -0.23,-3.744 0,1.191 -1.362,1.191 -1.592,1.872l0.01 0zm2.523 41.823c0,0.481 0.45,0.941 1.161,1.132 0.851,-0.2 2.012,-0.912 1.792,-1.592 -0.603,-2.181 -2.953,-0.995 -2.953,0.46zm-23.125 74.007c0,0.941 0.45,1.872 1.251,2.133 0.28,-0.4 0.65,-0.741 0.991,-1.082 1.621,-0.82 0.26,-2.472 -0.881,-2.472 -0.451,0 -1.361,0.711 -1.361,1.421zm31.384 -122.777l-0.03 -0.031c-0.481,1.022 -1.222,1.532 -1.872,2.243 0.77,0.601 1.221,1.932 1.641,1.762 1.792,-0.621 2.073,-2.923 0.261,-3.974l0 0zm1.451 41.653c0,-0.401 -0.99,-1.422 -1.501,-2.012 -1.873,1.932 -2.153,1.962 -0.03,3.684 0.961,-0.791 1.501,-1.392 1.531,-1.672zm-3.383 -62.826l-0.481 -0.31c-0.68,0.741 -1.301,1.392 -1.842,1.982 0.451,0.451 1.222,1.502 1.642,1.452 0.941,-0.11 2.322,-2.493 0.681,-3.124zm-7.259 24.776c0.941,0.09 1.452,-1.131 1.452,-1.641 0.03,-0.741 -1.082,-1.472 -1.532,-1.472 -1.812,-0.23 -1.702,2.983 0.08,3.123l0 -0.01zm-2.272 -5.596c-0.451,0.711 -1.361,1.192 -1.592,1.902 -0.148,0.372 1.016,2.283 3.174,-0.17 -0.681,-0.31 -1.132,-1.021 -1.592,-1.732l0.01 0zm10.702 146.283c0.881,1.967 2.312,2.065 3.493,0.14l-2.042 -1.872c-0.489,0.595 -1.451,1.148 -1.451,1.732zm0.37 -38.23c0.17,-0.14 0.601,-0.51 1.732,-1.562l-1.702 -1.641c-1.932,1.561 -2.072,1.391 -0.03,3.203zm3.404 18.049c0.03,-0.431 -0.571,-1.082 -1.562,-2.012 -2.212,1.451 -1.842,1.592 0.09,3.574 0.881,-0.651 1.472,-1.192 1.472,-1.562l0 0zm0.22 25.006c-0.601,-0.37 -1.732,-1.502 -2.152,-2.042l-1.472 1.791c1.842,1.362 2.413,2.723 3.634,0.261l-0.01 -0.01zm-23.776 -135.361l0 0zm4.535 -1.922c2.052,-0.075 1.624,-3.479 0.06,-3.353 -0.681,0.06 -0.941,1.561 -1.872,1.872 0.451,0.48 1.131,1.191 1.812,1.471l0 0.01zm-3.604 11.091c-0.314,1.282 1.618,2.27 2.703,0.571 0.681,-1.302 -0.911,-1.792 -1.361,-2.723 -0.681,0.48 -1.111,1.191 -1.332,2.152l-0.01 0zm15.527 151.528c-1.051,-1.641 -2.643,-1.872 -3.093,0 0,0.451 0.68,1.162 1.281,1.362 0.451,-0.03 1.021,-0.541 1.812,-1.362zm-13.504 -179.507c-0.681,0.961 0.23,1.902 1.131,1.792 0.911,0.11 1.361,-1.082 2.042,-1.332 -1.131,-1.191 -2.042,-2.132 -3.173,-0.45l0 -0.01zm3.173 -8.198c-0.911,0.48 -1.131,3.063 0.651,2.983 0.48,-0.621 1.621,-1.082 1.391,-1.792 0,-0.941 -1.131,-1.642 -2.042,-1.191zm-1.842 19.75c1.051,-0.09 1.762,-0.62 1.792,-1.622 -0.2,-0.74 -1.111,-0.941 -1.562,-1.621 -0.481,0.77 -1.191,1.331 -1.672,2.102 -0.26,1.021 0.681,0.941 1.451,1.131l-0.009 0.01zm2.813 -16.237c0.911,0.231 1.111,1.472 1.962,1.622 0.601,-0.281 1.252,-1.111 1.302,-1.872 -0.481,-2.303 -2.583,-0.991 -3.263,0.26l-0.001 -0.01zm12.904 182.211c-2.302,1.671 -2.353,1.872 -0.371,3.403l2.043 -1.762c-0.341,-0.4 -1.222,-1.221 -1.672,-1.641zm-19.551 36.628c0.4,0 0.941,-0.51 1.732,-1.592 -1.252,-1.592 -2.383,-1.592 -3.745,0.06 0.912,0.231 1.132,1.422 2.013,1.532zm4.625 0.23c1.111,-0.821 1.702,-1.332 1.702,-1.812 -0.221,-1.963 -2.821,-2.278 -3.154,-0.17 -0.23,0.711 0.911,1.161 1.451,1.982l0.001 0zm5.055 -3.464c-2.272,1.762 -2.242,1.702 -0.14,3.665 2.273,-1.732 2.243,-1.672 0.14,-3.665zm-2.673 5.927c3.621,-2.251 0.686,-2.754 0.03,-3.745 -1.812,1.162 -1.812,2.813 -0.03,3.744l0 0.001zm-4.985 -0.281c0.481,-0.651 2.072,-1.361 1.842,-1.812 -0.681,-2.132 -2.693,-1.641 -3.374,0.231 -0.23,0.45 1.132,0.941 1.532,1.591l0 -0.01zm-5.766 -43.665c-0.03,-0.401 -0.541,-0.851 -1.422,-1.502 -1.902,0.851 -1.872,2.302 -0.23,3.494 1.081,-0.991 1.672,-1.532 1.642,-1.983l0.01 -0.009zm0.57 23.374c2.243,-1.812 2.243,-1.762 0.431,-3.343 -2.243,1.811 -2.212,1.792 -0.431,3.343zm1.022 11.182c1.081,-0.821 1.762,-1.362 1.792,-1.792 -0.481,-0.571 -0.281,-1.962 -1.392,-1.732 -1.812,0.481 -2.243,2.813 -0.4,3.524zm24.006 -37.119l-1.932 -1.932c-0.431,0.31 -1.422,1.361 -1.872,1.812 1.812,1.622 1.841,2.523 3.804,0.11l0 0.01zm-28.832 18.79c-1.361,0.26 -2.042,2.132 -0.28,3.063 1.212,-0.606 2.486,-3.063 0.28,-3.063zm25.798 30.702c2.183,-1.835 1.808,-2.043 -0.06,-3.975 -1.812,2.072 -2.042,2.243 0.06,3.975zm-8.599 -18.019c-2.243,1.641 -2.243,1.591 -0.28,3.513 2.176,-1.637 2.236,-1.556 0.28,-3.513zm9.65 -28.77c-0.37,0.26 -1.591,1.331 -2.012,1.762 1.622,1.672 1.982,2.072 3.774,0.11l-1.762 -1.872zm0.851 25.646c0.03,-0.51 -1.331,-1.671 -1.331,-1.671 -2.153,1.791 -2.132,1.762 -0.31,3.463 1.051,-0.88 1.621,-1.391 1.641,-1.792zm-7.868 43.586c0.2,-0.23 0.37,-0.4 0.541,-0.57 1.791,-0.821 0.62,-3.404 -0.481,-2.984 -1.812,0.451 -2.012,2.383 -0.06,3.544l0 0.01zm3.243 -29.451l-1.792 -1.791c-0.77,0.54 -1.451,1.641 -1.501,2.012 0.34,0.88 0.74,1.301 1.221,1.301 0.881,0 2.072,-1.531 2.072,-1.531l0 0.009zm2.463 -31.413l-1.592 -1.641 -2.102 1.641c0.571,0.571 1.251,1.422 1.732,1.422 0.68,0 1.902,-1.392 1.962,-1.422z"/>
    <path fill="#0062D9" fill-rule="nonzero" d="M219.049 55.633c0.48,-0.62 1.161,-1.702 1.531,-2.102 -0.4,-0.451 -1.391,-1.471 -1.762,-1.732 -2.493,2.755 -1.272,2.415 0.231,3.834zm-19.752 40.663c0.17,-0.711 -1.021,-1.562 -1.702,-1.502 -1.592,0.11 -1.762,3.434 0.371,3.544 0.77,-0.571 1.161,-1.332 1.331,-2.043l0 0.001zm-0.37 -4.916c-0.711,-0.43 -1.422,-0.821 -2.153,-1.471 -0.296,1.234 -2.945,1.876 0.541,3.413 0.601,-0.45 0.961,-1.421 1.621,-1.931l-0.009 -0.011zm2.953 1.592c1.838,-2.25 0.793,-3.658 -0.37,-3.464 -2.043,0.171 -1.392,2.493 0.37,3.464zm0 1.251c-1.562,0.571 -0.911,2.893 0.681,3.634l1.482 -2.152c-0.511,-0.681 -1.732,-1.531 -2.153,-1.471l-0.01 -0.011zm0.51 -19.04c0.651,-0.88 0.822,-1.361 1.622,-2.352 -0.911,-0.14 -1.021,-1.562 -1.932,-1.221 -1.792,0.65 -1.641,2.552 0.31,3.573zm-2.412 26.127c-0.14,-1.05 -1.502,-0.94 -1.792,-1.872 -1.732,1.082 -1.111,3.154 0.601,3.865 0.857,-1.021 1.206,-1.467 1.191,-1.993zm0.901 0.741c-0.681,0.061 -0.821,1.252 -1.451,1.792 0.71,0.401 1.621,0.571 2.012,1.392 1.412,-0.358 1.794,-3.278 -0.571,-3.174l0.01 -0.01zm-1.302 6.157l0.081 -0.14c1.791,-1.562 0.51,-3.343 -0.621,-3.494 -1.592,0.11 -1.111,3.153 0.541,3.634l-0.001 0zm8.66 -46.338l0.2 -0.2c1.452,-1.132 1.051,-3.204 -0.34,-3.324 -1.562,0.14 -1.812,2.493 0.14,3.514l0 0.01zm6.016 -1.192c0.03,-0.48 -0.68,-1.131 -1.672,-2.012 -1.791,1.392 -1.791,1.562 0.311,3.374 0.74,-0.511 1.391,-1.022 1.361,-1.362l0 0zm-1.361 2.333c-1.812,1.501 -1.932,1.591 0.23,3.233 1.873,-1.451 1.792,-1.471 -0.23,-3.233zm0.28 4.224c-1.944,2.049 -1.686,1.317 0.2,3.203 1.693,-1.691 2.046,-1.593 -0.2,-3.203zm-6.046 -14.585c-1.869,-2.723 -5.061,-0.267 -1.722,2.012 0.31,-0.541 1.161,-1.642 1.732,-2.012l-0.01 0zm-2.694 59.452l-0.029 0c0.14,0.09 0.26,0.2 0.4,0.31 1.332,-1.331 1.592,-3.714 -0.431,-3.544 -1.562,0.371 -1.841,2.493 0.06,3.234zm1.272 -52.415c0.991,-1.131 1.532,-1.811 1.472,-2.302 -0.371,-0.771 -1.362,-1.622 -1.792,-1.331 -2.043,0.4 -1.362,2.893 0.31,3.633l0.01 0zm-0.51 -9.53c0.4,-0.26 1.471,-1.421 1.672,-1.902 -0.451,-0.791 -1.472,-1.902 -2.754,-1.111 -1.501,1.081 -0.45,3.094 1.082,3.003l0 0.01zm12.433 16.167c0.14,-0.14 0.54,-0.54 1.591,-1.672l-1.841 -1.501c-1.792,1.702 -1.932,1.531 0.26,3.173l-0.01 0zm-2.132 3.044c-1.762,1.731 -1.872,1.451 0.2,3.173 1.842,-1.812 1.792,-1.332 -0.2,-3.173zm5.566 16.366c1.867,-1.616 1.777,-1.805 -0.371,-3.544 -2.072,1.622 -1.701,1.702 0.371,3.544l0 0zm1.131 5.086c0.31,0.37 1.592,1.281 2.042,1.562 1.732,-2.153 1.702,-1.532 -0.62,-3.544l-1.422 1.992 0 -0.01zm3.214 -5.626c0.4,-0.03 1.111,-1.082 1.672,-1.642l-1.842 -1.622c-0.651,0.881 -1.112,1.622 -1.502,1.983 0.851,0.911 1.331,1.301 1.672,1.281l0 0zm-10.452 -24.205c-1.842,1.301 -1.792,1.672 0.26,3.263 1.811,-1.436 1.88,-1.616 -0.26,-3.263zm-2.633 -12.483c2.416,2.172 1.456,2.739 3.404,0.37l-1.872 -2.242c-0.37,0.37 -1.301,1.471 -1.532,1.872zm2.293 8.118l-1.532 1.592c1.622,2.132 2.043,1.902 3.434,0.2l-1.902 -1.792zm7.668 50.483l-1.331 1.902c1.902,1.221 2.613,2.523 3.604,-0.03 -0.601,-0.341 -1.842,-1.361 -2.273,-1.872zm-6.987 2.322c-0.741,-0.651 -1.252,-1.562 -1.932,-1.502 -0.681,0.061 -0.821,1.252 -1.672,1.792 0.51,0.651 1.421,0.821 1.932,1.502 0.26,-0.14 0.23,-1.161 1.672,-1.792zm-4.816 -3.634c-0.451,-0.2 -0.851,0.541 -1.051,1.022 -0.14,1.191 0.621,2.302 1.672,2.492 1.409,-2.003 2.025,-1.916 -0.631,-3.523l0.01 0.009zm-5.506 7.719c-1.842,1.701 -1.621,2.182 0.511,3.713 1.727,-1.783 1.623,-2.352 -0.511,-3.713zm0.992 4.174c0.71,0.43 0.99,1.331 1.902,1.361 1.131,-0.17 1.021,-1.592 1.672,-1.872 -1.702,-1.762 -2.383,-1.471 -3.574,0.51l0 0.001zm13.084 -1.021c-1.472,1.649 -1.712,2.809 0.45,3.383 0.571,0.14 1.362,-0.941 1.792,-1.702l-2.242 -1.681zm-4.485 0.6c-1.532,1.051 -1.812,3.204 0.2,3.714 0.28,-0.31 0.961,-1.221 1.281,-1.641 0.371,-1.502 -1.421,-1.132 -1.471,-2.073l-0.01 0zm2.553 5.786l1.591 -1.882c-0.741,-0.65 -1.471,-1.531 -1.932,-1.501 -1.562,0.37 -1.161,2.442 0.341,3.373l0 0.01zm-18.451 -11.632c-0.17,0.741 0.771,1.131 1.472,1.331 0.54,-0.06 1.051,-0.6 1.641,-1.791 -0.71,-0.431 -1.221,-1.332 -1.902,-1.282 -0.905,0.073 -1.367,1.586 -1.211,1.742zm-2.182 -4.624c-0.451,-0.341 -0.881,-0.641 -1.271,-1.011 -0.01,0.951 -0.02,1.902 -0.03,2.863 0.39,-0.101 0.911,-0.842 1.291,-1.862l0.01 0.01zm-1.211 -5.286c0,0.351 0,0.701 -0.01,1.051 0.13,-0.26 0.24,-0.54 0.38,-0.801 -0.13,-0.08 -0.25,-0.17 -0.361,-0.26l-0.009 0.01zm0.7 11.632c2.493,-1.251 0.371,-2.492 -0.62,-3.343l-0.17 1.051 -0.401 0.23c0,0.18 0.01,0.801 0.04,1.672 0.301,0.29 0.721,0.51 1.152,0.4l-0.001 -0.01zm-0.31 -24.526c-0.22,0.791 -0.41,1.522 -0.55,2.173 0.38,-0.531 0.601,-1.132 1.151,-1.562 -0.16,-0.221 -0.37,-0.431 -0.601,-0.611l0 0zm0.621 6.487c1.381,-1.221 -0.921,-2.392 -1.492,-2.242l0.351 3.483c0.478,0.077 0.673,-0.399 1.131,-1.241l0.01 0zm18.62 26.838c-0.3,0.561 -1.151,0.901 -1.391,1.432l2.802 -0.17c-0.3,-0.441 -1.161,-0.561 -1.401,-1.262l-0.01 0zm-18.65 -3.263c-0.551,-0.1 -0.891,-0.741 -1.271,-1.101 0.029,0.861 0.07,1.732 0.1,2.543l1.171 -1.442zm14.195 4.084c-0.711,0.061 -1.041,0.411 -1.101,0.871l2.343 -0.14c-0.241,-0.46 -0.701,-0.77 -1.231,-0.72l-0.011 -0.011zm-3.153 -93.948c0,0.21 0,0.411 0,0.611 0.17,-0.121 0.3,-0.211 0.35,-0.281 -0.12,-0.11 -0.231,-0.22 -0.341,-0.34l-0.009 0.01zm-3.644 16.687c-0.13,0.671 -0.26,1.372 -0.39,2.083 0.88,-0.831 1.121,-1.412 0.39,-2.083zm6.166 -13.994l0.881 0.88 1.082 -1.221 -2.233 -1.571c-0.12,0.15 -0.22,0.29 -0.29,0.41 -0.671,-0.431 -1.482,-0.22 -1.992,0.321 -0.01,0.48 -0.04,0.931 -0.11,1.411 0.95,0.719 1.889,0.862 2.662,-0.23zm-0.08 18.109c0.371,-0.571 1.192,-1.451 1.672,-1.812 -0.03,-0.11 -0.09,-0.2 -0.14,-0.31 0.881,0.79 0.651,-0.791 2.013,-1.472l-1.793 -2.152 -1.531 1.982c0.28,0.431 0.51,0.771 0.741,1.051 -1.422,-1.081 -2.553,0.09 -2.493,0.431 -0.37,1.191 0.791,1.562 1.532,2.302l-0.001 -0.02zm-9.39 28.399c1.021,-1.081 1.422,-1.841 1.302,-2.412 0.03,-1.161 -1.282,-0.601 -1.592,-1.532 -1.1,1.376 -1.765,2.979 0.28,3.955l0.01 -0.011zm1.982 -24.695c-0.009,0.09 -0.03,0.18 -0.04,0.27 0.05,-0.07 0.09,-0.13 0.121,-0.18 -0.021,-0.041 -0.061,-0.061 -0.081,-0.09zm-2.522 25.436c-0.29,-0.18 -0.711,-0.52 -1.101,-0.871 -0.241,1.082 -0.481,2.072 -0.731,2.984 0.09,0.04 0.17,0.069 0.261,0.11l1.571 -2.223zm3.403 -21.252c0.311,-0.4 0.571,-0.711 0.791,-0.961 1.879,-1.891 -1.291,-3.095 -1.872,-1.872 -0.09,0.601 -0.17,1.191 -0.261,1.802 0.221,0.451 0.631,0.841 1.332,1.041l0.01 -0.01zm4.625 44.777c2.073,-1.332 1.502,-2.753 -0.57,-3.864 -1.748,1.857 -1.74,2.827 0.57,3.854l0 0.01zm1.982 2.923c-1.491,-3.246 -4.835,-0.599 -1.251,1.872 0.821,-0.881 1.282,-1.452 1.251,-1.872l0 0zm-2.492 9.39c0.4,-0.621 0.681,-1.081 0.911,-1.362 0.621,-2.132 -1.562,-1.021 -1.451,-2.442 -0.651,0.51 -1.052,1.251 -1.222,1.982 0.09,0.941 1.021,1.331 1.762,1.812l0 0.01zm1.762 -41.284c-0.681,0.061 -1.732,1.362 -1.221,2.273l1.591 1.361c1.622,-1.161 1.252,-3.514 -0.37,-3.634zm2.152 -4.174c1.762,-1.361 0.681,-3.403 -0.431,-3.323 -1.841,-0.09 -1.621,2.723 0.261,3.493l0.17 -0.17zm1.111 32.494c0.371,-0.03 0.771,-0.54 1.392,-1.762 -0.601,-0.851 -2.012,-1.391 -2.043,-1.702 -1.471,1.282 -1.131,2.663 0.651,3.464zm-1.681 -37.349c0.88,-0.911 1.451,-1.562 1.421,-2.042 -0.541,-0.911 -1.301,-1.792 -1.762,-1.762 -1.562,0.37 -1.532,3.173 0.341,3.804l0 0zm4.605 29.601c-0.681,0.51 -1.362,1.391 -1.422,1.642 0.03,0.029 0.03,0.06 0.06,0.09 -1.889,0 -1.646,2.917 0.261,3.634 0.961,-1.112 1.421,-1.702 1.161,-2.323 0.791,0.231 1.451,-0.4 2.042,-1.391 -0.26,-0.341 -1.962,-1.642 -2.102,-1.642l0 -0.01zm3.683 21.732c1.8,-1.799 2.024,-2.376 -0.57,-3.634 -1.932,1.762 -1.872,2.153 0.57,3.634l0 0zm1.252 -11.151c1.046,1.929 2.548,1.825 3.484,-0.11l-2.183 -1.702c-0.34,0.481 -1.471,1.452 -1.301,1.812zm-12.854 -24.796c1.559,-1.559 1.379,-3.771 -0.341,-3.754 -1.331,0.09 -1.562,3.173 0.341,3.744l0 0.01zm8.82 35.357c-1.562,0.11 -1.132,2.893 0.48,3.434 0.14,-0.201 0.37,-0.511 0.771,-1.052 1.361,-1.191 -0.341,-2.472 -1.251,-2.382zm2.042 -23.554c0.17,0.62 0.851,0.941 1.421,1.081l1.562 -1.792c-0.341,-0.371 -1.592,-1.361 -2.012,-1.622 -0.791,0.881 -1.131,1.702 -0.961,2.323l-0.01 0.01zm-11.913 1.021c0.28,-0.431 0.57,-0.771 0.881,-1.112 1.731,-3.433 -1.532,-1.251 -1.192,-2.953 -1.531,1.082 -1.361,3.204 0.31,4.055l0.001 0.01zm9.65 5.956l-1.421 1.872c0.2,0.26 0.4,0.48 0.601,0.65 -2.846,-1.111 -1.925,2.473 -0.261,3.094 0.764,-0.932 1.611,-1.609 1.001,-2.523 0.881,0.481 1.392,-0.43 2.213,-1.451l-2.133 -1.642zm-194.641 -41.794c-0.08,0.431 0.451,1.131 1.302,2.212 2.352,-1.161 2.012,-1.331 0.34,-3.543 -0.941,0.51 -1.621,0.991 -1.642,1.331l0 0zm1.562 -6.527c-0.231,-0.45 -1.282,-1.591 -1.672,-1.962 -2.133,1.762 -1.983,1.161 -0.111,3.604 0.431,-0.31 1.452,-1.361 1.792,-1.642l-0.009 0zm-2.893 6.437c-1.418,-2.538 -1.529,-1.54 -3.344,-0.34l1.502 1.962c0.791,-0.711 1.391,-1.332 1.842,-1.622zm2.432 18.449c-0.17,0.09 -0.651,0.4 -1.872,1.302l1.472 1.842c2.102,-1.302 2.212,-1.112 0.4,-3.154l0 0.01zm-5.476 11.943c0.281,0.54 1.081,1.702 1.392,2.042 2.096,-1.576 2.486,-1.849 0.53,-3.804 -0.6,0.511 -1.471,1.451 -1.932,1.762l0.01 0zm6.077 4.995c-0.686,-1.054 -0.322,-0.941 -2.243,0.511l1.361 2.582c0.431,-0.26 1.592,-1.161 1.902,-1.502 -0.48,-0.651 -0.79,-1.191 -1.021,-1.591l0.001 0zm3.884 -41.684c-0.06,-0.65 -0.651,-1.081 -1.192,-1.331l-1.872 1.421c0.281,0.431 1.282,1.642 1.642,2.012 0.961,-0.74 1.471,-1.471 1.421,-2.102l0.001 0zm0.651 -13.143c-0.57,-2.077 -2.098,-2.334 -3.404,-0.571l1.792 2.102c0.401,-0.43 1.732,-1.131 1.622,-1.531l-0.01 0zm4.234 59.392c1.702,-0.741 1.082,-2.953 -0.45,-3.153 -0.431,0.14 -1.732,1.081 -2.012,1.501 0.28,0.881 1.051,2.153 2.472,1.642l-0.01 0.01zm1.192 2.733c0.48,-0.481 1.562,-1.392 2.132,-1.732 -0.26,-0.451 -1.111,-1.532 -1.471,-1.792 -2.212,1.161 -2.813,1.762 -0.651,3.514l-0.01 0.01zm-0.231 -32.755l-0.17 -0.23c-1.842,0.79 -1.932,3.203 -0.4,3.604 0.68,0.09 1.982,-0.961 1.642,-1.962 -0.171,-0.511 -0.791,-0.821 -1.082,-1.422l0.01 0.01zm-7.037 6.697c-0.06,0.341 0.43,0.912 1.251,1.812 2.318,-1.592 1.931,-0.94 0.481,-3.183l-1.732 1.371zm9.029 -5.445c1.332,0.17 2.183,-2.783 0.431,-3.744l-0.08 0.09c-1.622,1.131 -2.102,3.204 -0.341,3.664l-0.01 -0.01zm-4.454 -19.24c0.77,-0.371 1.621,-1.112 1.731,-1.332 -0.02,-0.04 -0.039,-0.07 -0.059,-0.09 1.81,0.386 2.284,-2.476 0.48,-3.634 -1.161,0.912 -1.702,1.392 -1.622,2.043 -0.71,-0.371 -1.501,0.11 -2.272,0.961l1.742 2.052zm11.712 66.569c0.06,-0.45 -1.021,-1.081 -1.641,-1.621 -0.401,-0.061 -0.941,0.37 -1.672,1.251 0.82,1.732 2.582,2.412 3.323,0.37l-0.01 0zm-10.04 3.724c0.34,-0.911 -0.451,-1.732 -1.252,-2.012 -1.021,0.23 -1.672,0.711 -1.762,1.331 0.11,1.962 2.583,2.273 3.004,0.681l0.01 0zm1.441 -4.995c0.681,0.09 1.932,-0.481 1.872,-1.672l-1.331 -1.252c-1.392,0.912 -2.583,2.663 -0.541,2.924zm-5.696 7.998c0.681,0.09 1.281,-1.021 1.562,-1.471 0.57,-0.851 -0.791,-1.021 -1.081,-1.672 -0.401,0.31 -0.771,0.571 -1.052,0.791 -1.281,0.711 -0.54,1.982 0.571,2.352zm5.306 -3.774c0.702,0.368 3.661,-1.871 0.25,-2.753 -0.541,-0.06 -1.132,0.281 -1.842,0.991 0.601,0.681 0.911,1.672 1.592,1.762zm-6.728 -2.723c1.332,0.171 1.702,-2.182 0.481,-3.033 -0.911,0.741 -1.842,1.021 -2.043,1.161 0.571,0.791 0.881,1.792 1.562,1.872zm8.089 -25.456c1.622,-0.03 2.322,-2.302 0.4,-3.294 -0.4,0.311 -0.711,0.571 -0.961,0.791 -1.531,0.881 -0.6,2.613 0.571,2.493l-0.01 0.01zm-11.072 22.423c0.821,0.791 2.102,0.431 2.613,-0.601 0.244,-0.437 -1.26,-2.417 -2.863,-0.991l-0.681 -1.021 -1.872 1.392c0.431,0.37 1.192,1.672 1.451,2.302 0.651,-0.451 1.112,-0.791 1.362,-1.081l-0.01 0zm13.735 -7.578c-0.4,0.231 -1.622,1.131 -1.982,1.532 1.051,1.471 2.302,2.352 3.173,0.791 0.821,-1.082 -0.48,-1.472 -1.191,-2.323l0 0zm-4.655 0.05c-0.941,0 -2.152,0.571 -1.792,1.332 0.651,1.962 2.102,1.451 3.173,0.14 0.311,-0.651 -0.54,-1.251 -1.391,-1.472l0.01 0zm4.685 -4.735c-1.6,-1.394 -1.41,-2.661 -3.524,-0.34 1.112,1.472 1.932,2.043 3.524,0.341l0 -0.001zm-7.318 6.387c-1.111,0.621 -1.702,1.021 -1.762,1.421 0.28,1.762 2.783,2.073 3.003,0.451 0.09,-0.711 -0.48,-1.502 -1.251,-1.872l0.01 0zm-2.302 11.693c0.31,-0.451 -0.741,-1.052 -1.332,-1.702 -0.643,0.469 -1.869,1.139 -1.842,1.531 0.621,1.982 2.493,1.732 3.174,0.171zm-0.681 -25.117c-0.451,0.481 -1.451,1.192 -1.982,1.452 0,0.11 0.06,0.23 0.09,0.31 -0.711,-0.941 -0.821,0.65 -2.303,1.051l1.332 2.472 1.902 -1.641c-0.17,-0.451 -0.371,-0.851 -0.511,-1.162 1.162,1.332 2.523,0.431 2.523,0.09 0.601,-1.111 -0.45,-1.701 -1.051,-2.552l0 -0.02zm7.438 21.513c1.468,3.492 4.294,0.217 1.792,-1.452 -1.051,0.601 -1.732,1.051 -1.792,1.452zm-4.065 -29.772c1.592,0.2 2.303,-2.042 0.571,-3.464l-0.23 0.171c-2.218,1.359 -1.037,3.293 -0.341,3.293zm12.154 26.048l0.29 0.029c-0.651,-0.43 -0.611,-1.421 -1.361,-1.701 -1.051,0.61 -1.582,1.061 -1.722,1.441l2.793 0.231zm0.22 0.029l-0.14 0 -0.02 -0.02 -0.12 0.001c0,0 0,-0.01 0,-0.01l-1.052 -0.03 -0.77 -0.061 -0.03 -0.029 -0.912 -0.061c-0.187,0.753 1.348,2.665 3.294,0.321l-0.26 -0.111 0.01 0zm-1.131 2.073c0.12,1.201 0.911,1.471 1.691,1.181 0.04,-0.971 0.07,-1.822 0.09,-2.463 -0.79,0.261 -1.942,0.811 -1.782,1.282l0.001 0zm1.131 -3.264c0,-0.48 0,-0.951 0,-1.431l-0.62 0.5c0.27,0.25 0.44,0.611 0.62,0.941l0 -0.01zm-4.315 -36.768c-0.12,-0.711 -0.24,-1.422 -0.36,-2.133 -0.211,0.211 -0.451,0.421 -0.771,0.681 0.66,0.24 0.73,1.101 1.131,1.451l0 0.001zm4.455 42.755c-2.905,1.623 -1.195,3.616 0.2,2.883 0.041,-0.861 0.081,-1.732 0.121,-2.573l-0.331 -0.31 0.01 0zm-2.863 -9.22c0.801,0.851 1.622,2.162 2.723,1.432 0,-0.791 0,-1.582 0,-2.373 -0.591,-0.42 -1.562,-0.38 -2.713,0.951l-0.01 -0.01zm-7.428 -18.809c2.042,0 1.902,-2.583 0.4,-3.634 -1.191,0.911 -1.842,1.451 -1.902,1.962 0.231,0.821 1.021,1.842 1.502,1.672l0 0zm-6.847 32.914c-2.487,1.137 -1.828,0.805 -0.781,2.933l0.6 0.04c0.952,-0.911 1.903,-1.822 0.181,-2.963l0 -0.01zm-2.633 1.982c-0.501,0.14 -0.842,0.42 -1.052,0.76l1.832 0.121c-0.139,-0.321 -0.37,-0.651 -0.7,-0.961l-0.08 0.09 0 -0.01zm10.671 -78.702c-0.08,-0.421 -0.16,-0.822 -0.23,-1.232 -0.1,0.121 -0.21,0.25 -0.33,0.401 0.13,0.29 0.34,0.57 0.57,0.831l-0.01 0zm-15.016 77.571c-0.621,-0.06 -1.332,0.771 -1.902,1.391l0.04 0.061c0.911,0.069 1.902,0.15 3.063,0.26 0.13,-0.971 -0.931,-1.672 -1.211,-1.712l0.01 0zm22.845 2.632c-0.17,0.061 -0.501,0.231 -0.841,0.441l1.491 0.09c-0.17,-0.191 -0.38,-0.38 -0.651,-0.531l0.001 0zm-5.676 -0.36c0.37,-0.911 -0.231,-1.672 -0.881,-2.242 -1.518,1.517 -2.259,1.132 -1.652,1.962 0.2,0.27 0.431,0.5 0.661,0.67l1.451 0.091 0.421 -0.481zm6.827 0.931l0.07 0c0,-0.29 0.02,-0.851 0.05,-1.572 -0.508,0.552 -0.46,0.97 -0.12,1.572l0 0zm-11.282 -83.647c-0.771,-0.651 -1.452,0.11 -2.473,0.96 0.511,0.451 1.421,1.452 1.762,2.043l1.792 -1.562c-0.17,-0.28 -0.31,-0.541 -0.48,-0.771l1.361 0.411 -0.641 -3.234c-0.932,0.724 -1.707,1.162 -1.311,2.143l-0.01 0.01zm-5.056 39.301c-2.191,0.827 -1.976,1.197 -0.37,3.373 2.012,-1.021 2.072,-1.191 0.37,-3.373zm-3.484 -1.422c-0.06,0.401 0.451,1.051 1.252,2.012 2.102,-0.911 2.102,-1.281 0.4,-3.233 -0.911,0.48 -1.562,0.851 -1.642,1.221l-0.01 0zm10.412 12.113c0.09,-0.681 -0.541,-1.452 -1.051,-1.962 -0.431,0.43 -1.502,1.361 -2.133,1.591 0.741,1.732 2.693,2.413 3.174,0.371l0.01 0zm-4.735 -8.679c1.591,-0.061 2.152,-2.783 0.43,-3.804 -1.021,0.741 -1.702,1.251 -1.762,1.732 0.31,0.99 0.881,2.011 1.332,2.072zm-2.813 -12.884c-2.153,1.422 -2.043,0.941 -0.451,3.153 2.072,-1.361 2.132,-1.021 0.451,-3.153zm-2.923 14.696c0.43,0.601 0.65,0.911 0.77,1.111l1.812 -1.251c-1.155,-2.386 -1.605,-2.275 -3.313,-0.881 0.14,0.23 0.48,0.68 0.74,1.021l-0.009 0zm5.135 -51.444c-0.601,-0.581 -1.041,-1.141 -1.421,-1.501 -0.551,0.41 -1.082,0.84 -1.612,1.311 0.52,0.55 1.111,1.321 1.331,1.752l1.702 -1.562zm12.404 60.523c0.03,-0.23 -0.541,-1.221 -1.252,-1.501 -0.48,-0.03 -1.111,0.51 -2.132,1.561 1.361,1.592 2.693,1.982 3.373,-0.06l0.011 0zm-9.391 -62.996c-0.13,-0.66 -0.24,-1.341 -0.34,-2.002 -0.341,0.21 -0.661,0.46 -0.981,0.711 0.22,0.35 0.651,0.77 1.321,1.291zm5.556 62.576c1.672,-0.741 2.383,-2.783 0.451,-3.714 -0.431,0.28 -1.672,1.361 -2.102,1.792 0.4,0.85 1.501,0.96 1.642,1.931l0.009 -0.009zm-9.961 -13.454c2.073,-1.112 2.183,-1.162 0.431,-3.234 -2.132,1.051 -2.042,1.111 -0.431,3.234zm2.613 -2.323c1.792,0.451 2.133,-2.352 0.451,-3.464l-0.2 0.14c-2.326,1.357 -1.015,3.302 -0.251,3.324z"/>
   </g>
  </g>
  <path fill="none" d="M207.298 27.894c-0.11,-0.063 -0.222,-0.122 -0.337,-0.177 -4.975,-2.38 -9.714,-5.334 -14.858,-7.149 -4.647,-1.639 -11.454,-2.699 -17.288,-4.719 -2.277,-0.789 -4.556,-1.589 -6.82,-2.415l-0.004 -0.03 -9.999 -4.08 -0.175 -0.072c-0.614,-0.28 -1.553,-1.207 -2.512,-1.889 -0.494,-0.369 -0.613,-0.563 -1.038,-0.905 -2.856,-2.299 -5.606,-5.635 -9.574,-5.641 -0.901,-0.002 -1.04,-0.123 -1.779,-0.163l-7.601 -0.17c-5.892,-0.486 -12.055,-0.501 -18.06,-0.477 -5.087,0.02 -9.557,0.063 -14.567,0.477 -2.529,0.209 -4.996,0.029 -7.6,0.17 -0.739,0.04 -0.878,0.161 -1.779,0.163 -3.968,0.006 -6.718,3.342 -9.575,5.641 -0.424,0.342 -0.543,0.536 -1.037,0.905 -0.741,0.527 -1.471,1.2 -2.047,1.608 -0.17,0.121 -0.326,0.218 -0.465,0.281l-10.174 4.152 -0.003 0.03c-2.265,0.826 -4.544,1.626 -6.821,2.415 -5.834,2.02 -12.641,3.08 -17.288,4.719 -5.144,1.815 -9.883,4.769 -14.858,7.149 -0.212,0.101 -0.412,0.215 -0.605,0.339 -0.909,0.583 -1.664,1.379 -2.651,2.001 -11.263,7.099 -18.243,27.467 -21.401,39.215 -1.569,5.839 -1.98,12.983 -2.969,19.04 -0.5,3.067 -1.172,6.193 -1.752,9.253 -0.585,3.095 -0.872,6.493 -1.288,9.631 -0.406,0.268 -0.327,-0.023 -0.308,0.899l-0.065 1.854 0 8.783c0.041,1.018 0.102,1.813 0.186,2.164 1.125,0.477 3.706,0.514 5.07,0.712 7.662,1.114 9.041,0.828 15.791,1.554l21.547 1.349c-0.015,-1.623 0.547,-10.725 0.578,-13.424l-0.603 -0.316 -0.07 -0.036c0,-4.476 -0.011,-9.226 -0.011,-13.7 1.678,4.247 3.328,18.944 3.789,24.023 0.735,8.116 1.826,16.186 2.512,24.347 0.348,4.137 0.874,8.269 1.009,12.419l0.653 12.776c0.396,4.199 0.208,8.934 0.274,13.179 0.032,2.062 0.194,4.007 0.186,6.13 -0.007,2.226 -0.172,4.349 -0.196,6.512 -0.051,4.469 -0.054,8.634 -0.319,13.111 -0.68,11.475 -1.257,26.076 -3.267,37.02 -0.966,5.407 -2.177,11.944 -2.754,17.389 -0.258,2.432 -0.827,10.057 -1.468,11.951 -0.68,2.01 -0.163,3.658 -0.568,5.77 -0.342,1.785 -0.742,3.812 -1.164,5.568 -0.463,1.93 -1.435,3.647 0.397,4.966 4.276,1.054 8.552,2.108 13.913,3.017 5.36,0.909 11.804,1.672 18.03,2.048 6.226,0.375 12.232,0.363 21.568,0.476 9.335,0.112 21.999,0.351 32.523,0.382 10.525,0.032 18.909,-0.144 26.242,-0.419 7.333,-0.275 13.615,-0.65 19.058,-1.151 5.443,-0.501 10.048,-1.126 13.829,-1.873 3.78,-0.746 6.736,-1.613 9.693,-2.48 1.832,-1.319 0.86,-3.036 0.397,-4.966 -0.422,-1.756 -0.822,-3.783 -1.164,-5.568 -0.405,-2.112 0.112,-3.76 -0.568,-5.77 -0.641,-1.894 -1.21,-9.519 -1.468,-11.951 -0.577,-5.445 -1.788,-11.982 -2.754,-17.389 -2.01,-10.944 -2.587,-25.545 -3.267,-37.02 -0.265,-4.477 -0.268,-8.642 -0.319,-13.111 -0.024,-2.163 -0.189,-4.286 -0.196,-6.512 -0.008,-2.123 0.154,-4.068 0.186,-6.13 0.066,-4.245 -0.122,-8.98 0.274,-13.179l0.653 -12.776c0.135,-4.15 0.661,-8.282 1.009,-12.419 0.686,-8.161 1.777,-16.231 2.512,-24.347 0.461,-5.079 1.889,-19.043 3.568,-23.29 0,4.474 -0.105,8.584 -0.105,13.06l0 0 -0.416 0.247c-0.004,0.882 0.338,12.091 0.604,13.423l21.579 -1.336c6.75,-0.726 8.129,-0.44 15.791,-1.554 1.364,-0.198 3.945,-0.235 5.07,-0.712 0.084,-0.351 0.145,-1.146 0.186,-2.164l0 -8.783 -0.065 -1.854c0.014,-0.687 0.062,-0.7 -0.083,-0.774 -0.05,-0.025 -0.122,-0.057 -0.225,-0.125 -0.416,-3.138 -0.703,-6.536 -1.288,-9.631 -0.58,-3.06 -1.252,-6.186 -1.752,-9.253 -0.989,-6.057 -1.4,-13.201 -2.969,-19.04 -3.158,-11.748 -10.138,-32.116 -21.401,-39.215 -1.057,-0.665 -1.895,-1.576 -2.919,-2.163z"/>
 </g>
</svg>
