<?xml version="1.0" encoding="UTF-8"?>
<!DOCTYPE svg PUBLIC "-//W3C//DTD SVG 1.1//EN" "http://www.w3.org/Graphics/SVG/1.1/DTD/svg11.dtd">
<!-- Creator: CorelDRAW 2018 (64 Bit Versão de avaliação) -->
<svg xmlns="http://www.w3.org/2000/svg" xml:space="preserve" width="187px" height="148px" version="1.1" shape-rendering="geometricPrecision" text-rendering="geometricPrecision" image-rendering="optimizeQuality" fill-rule="evenodd" clip-rule="evenodd"
viewBox="0 0 186999 147494"
 xmlns:xlink="http://www.w3.org/1999/xlink">
 <g id="Camada_x0020_1">
  <metadata id="CorelCorpID_0Corel-Layer"/>
  <path id="d1" fill="#F00808" d="M1394 111052c18681,1167 36139,2131 51014,2838 -14317,-1115 -31044,-2294 -48970,-3431 9471,572 18317,999 25945,1269 -6252,-563 -13336,-1125 -20923,-1648 11526,684 22289,1236 31699,1639 -10484,-867 -22666,-1759 -35726,-2598 11590,661 22425,974 31787,970 -10295,-1302 -22436,-2442 -35455,-3258l0 0 0 0 -567 -35c11,1969 30,3917 53,5860l147 9 -147 -9c23,2027 50,4049 72,6085 7315,455 14156,753 19987,893 -3938,-401 -8347,-787 -13060,-1139 16140,957 31214,1666 44284,2110 -13507,-1236 -29187,-2459 -46002,-3556 5867,282 11356,403 16196,376 -867,-114 -1757,-226 -2666,-336 8493,419 16476,730 23718,933 -12190,-1190 -26524,-2335 -41885,-3305 6260,384 12113,620 17117,712 -3341,-358 -7069,-700 -11053,-1007 15043,889 29092,1533 41274,1922 -13905,-1303 -30285,-2579 -47834,-3679 10501,658 20321,1142 28672,1437 -6632,-599 -14205,-1194 -22322,-1745 8182,471 15824,829 22526,1067 -1769,-159 -3606,-318 -5501,-477 1900,80 3742,151 5518,214 -8134,-733 -17674,-1462 -27898,-2111zm-1051 9611c14325,891 27728,1382 39153,1496 -11387,-1318 -24796,-2509 -39173,-3415l20 1919zm24987 -118544c-1322,-273 -2587,-553 -3818,-837 -1838,-128 -3701,-255 -5587,-381l-205 676c3275,193 6484,373 9610,542zm-4880 -1086c-1443,-341 -2847,-687 -4251,-1033l-252 829c1536,76 3038,144 4503,204zm-4749 609l-185 605c4538,226 8796,387 12628,483 -3773,-380 -7967,-749 -12443,-1088zm-197 646l-199 656c7433,417 14383,736 20533,953 -6085,-551 -12966,-1098 -20334,-1609zm-231 759l-564 1858c6554,267 12692,322 18141,186 -5267,-797 -11209,-1495 -17577,-2044zm-601 1980l-529 1739 -23 66c9970,521 19291,781 27455,799 -7984,-987 -17112,-1880 -26903,-2604zm-625 2017c-216,625 -422,1232 -619,1825 11524,631 22294,977 31680,1053 -9186,-1082 -19739,-2071 -31061,-2878zm-649 1914l-191 582c2979,126 5777,200 8313,223 -2475,-289 -5209,-561 -8122,-805zm-204 619c-141,432 -278,857 -412,1276 8359,450 16173,711 23016,791 -6710,-764 -14380,-1473 -22604,-2067zm-435 1348c-208,655 -407,1297 -601,1931 9178,508 17754,814 25235,923 -5193,-577 -10928,-1125 -17038,-1623 661,-11 1308,-27 1940,-47 -2882,-457 -6098,-859 -9536,-1184zm-625 2010l-179 591c2680,109 5197,163 7472,166 -2218,-276 -4674,-533 -7293,-757zm-183 605c-299,995 -586,1976 -870,2967 9992,547 19332,799 27446,780 -5866,-753 -12397,-1444 -19372,-2036 7903,389 15311,649 21952,781 -8600,-909 -18516,-1766 -29156,-2492zm-881 3004c-189,659 -377,1323 -568,1997 10090,554 19524,783 27705,719 -7990,-1069 -17224,-2008 -27137,-2716zm-572 2010l-384 1365c7997,470 15467,813 21954,1023 -5925,-553 -12684,-1097 -19927,-1594 6384,355 12352,610 17610,764 -5694,-549 -12236,-1083 -19253,-1558zm-494 1755l-167 591c10281,624 19882,1119 28175,1466 -8237,-689 -17778,-1394 -28008,-2057zm-170 602c-188,666 -381,1347 -582,2052 7595,426 14693,646 20848,674 -2289,-278 -4713,-545 -7248,-798 5370,227 10440,383 15101,471 -8261,-883 -17841,-1710 -28119,-2399zm-586 2067l-21 73c-126,443 -236,811 -341,1180 11372,680 21998,1117 31146,1315 -9026,-939 -19523,-1825 -30784,-2568zm-370 1281c-99,350 -194,703 -293,1125 -343,1454 -682,2907 -1016,4360 11367,689 21992,1124 31106,1310 -1369,-144 -2772,-287 -4208,-428 9422,481 18315,876 26480,1181 -13615,-1199 -29282,-2403 -46081,-3516 9409,506 18207,848 25971,1025 -9057,-930 -19551,-1814 -30809,-2566 3867,155 7488,175 10700,76 -2923,-460 -6202,-863 -9714,-1181 6937,362 13422,553 19108,581 -6242,-754 -13478,-1434 -21244,-1967zm-1345 5644c-353,1536 -700,3071 -1040,4608 5448,314 10546,419 14933,341 -1680,-242 -3468,-470 -5345,-680 3435,83 6680,91 9665,32 -4563,-668 -9761,-1250 -15339,-1696 6369,325 12323,483 17552,486 -882,-110 -1786,-219 -2709,-326 6807,317 13227,555 19111,712 -4689,-464 -9727,-920 -15036,-1358 752,11 1492,20 2220,27 -7024,-821 -15219,-1565 -24012,-2146zm-1041 4611l-198 896c8196,501 15857,817 22416,952 -6487,-682 -14078,-1323 -22218,-1848zm-266 1210c-138,630 -275,1260 -411,1891 9095,553 17608,739 24889,602 -7130,-1034 -15496,-1905 -24478,-2493zm-411 1893c-432,2009 -849,4020 -1251,6038l162 10 0 0 0 0c9385,589 18178,761 25669,575 -6684,-1011 -14456,-1864 -22804,-2453 9417,569 18212,993 25792,1259 -6763,-612 -14509,-1219 -22813,-1779 5474,295 10594,499 15119,612 -5476,-552 -11839,-1079 -18664,-1529 12923,798 24996,1425 35339,1856 -8046,-674 -17151,-1361 -26899,-2022 8226,417 15926,687 22777,812 -8403,-902 -18115,-1748 -28534,-2456 3050,135 5909,205 8469,212 -3608,-444 -7831,-839 -12362,-1135zm-1251 6038c-125,631 -249,1262 -371,1895l413 26c12629,792 24450,1182 34514,1205 -9988,-1235 -21766,-2324 -34394,-3116l-162 -10zm-400 2043c-122,631 -242,1263 -359,1895l671 43 -672 -41c-162,868 -320,1736 -475,2607l983 63c14492,908 28054,1408 39597,1524 -11197,-1297 -24350,-2470 -38455,-3371 4971,296 9618,458 13611,494 -4237,-495 -9233,-940 -14589,-1276 13972,876 27047,1345 38177,1435 -11054,-1302 -24085,-2470 -38057,-3346l-432 -27zm-862 4654c-112,631 -222,1263 -330,1896l1211 77c13100,821 25360,1239 35798,1286 -10362,-1259 -22578,-2376 -35678,-3197l-1001 -62zm-330 1898c-189,1113 -373,2229 -549,3348l-18 113 669 42 -669 -41c-85,545 -162,1099 -233,1660l1687 107 -1687 -105c-85,660 -161,1329 -232,2002l1171 77 -1172 -73c-257,2412 -456,4873 -742,7160l-4 52 2087 133c13512,848 26150,1405 36903,1672 -1528,-155 -3095,-308 -4698,-459 10515,549 20440,1009 29550,1374 -15197,-1299 -32685,-2618 -51435,-3853 10501,575 20319,981 28982,1215 -10111,-997 -21825,-1958 -34390,-2791 4315,182 8355,229 11937,153 -852,-125 -1731,-247 -2634,-365 9455,489 18312,837 26230,1042 -10288,-1025 -22194,-2010 -34966,-2861 5955,290 11525,415 16429,387 -867,-114 -1756,-226 -2665,-336 8493,418 16476,730 23718,933 -12191,-1189 -26524,-2335 -41885,-3305 6260,384 12113,620 17117,713 -3338,-359 -7063,-700 -11043,-1007 15039,889 29085,1533 41264,1921 -13906,-1303 -30286,-2578 -47835,-3679 10502,659 20322,1142 28673,1437 -6633,-598 -14205,-1195 -22322,-1745 8181,472 15824,830 22526,1067 -1770,-159 -3606,-319 -5501,-477 1900,80 3742,151 5517,214 -8133,-732 -17673,-1462 -27897,-2110 18681,1167 36138,2130 51014,2837 -12063,-939 -25838,-1924 -40599,-2891 -1547,-111 -3117,-221 -4709,-330 7124,402 13783,701 19650,892 -6714,-624 -14484,-1237 -22816,-1787 11762,679 22759,1001 32243,997 -10295,-1302 -22435,-2442 -35455,-3258l0 0 0 0 -1211 -75zm-1791 14503l-351 4646c710,50 1426,97 2148,142 -720,-45 -1437,-89 -2149,-132l-67 888 -1 12c716,47 1436,93 2160,139 9586,601 18554,997 26182,1186 -7592,-765 -16539,-1492 -26125,-2093 6580,413 12741,580 17989,530 -1876,-254 -3873,-495 -5969,-719 3833,108 7453,140 10784,102 -5095,-701 -10899,-1322 -17126,-1808 7108,371 13753,573 19586,614 -985,-117 -1994,-232 -3025,-346 7596,367 14761,651 21326,850 -5235,-498 -10858,-990 -16784,-1467 839,17 1664,31 2477,43 -8416,-936 -18334,-1793 -28966,-2459 -699,-44 -1396,-87 -2089,-128zm-429 5880c-21,619 -56,1260 -98,1902 706,48 1415,93 2127,138 -715,-45 -1425,-87 -2128,-126 -78,1165 -179,2333 -261,3376 -17,210 -26,430 -30,656l1717 111c-577,-35 -1150,-68 -1718,-99 -7,399 2,816 11,1229l1188 75 -1188 -73c10,449 22,893 17,1306 -1,133 -5,254 -11,369l1967 125 -1967 -123c-39,763 -158,1171 -186,2004l1405 92 -1405 -87c-4,127 -6,264 -6,414 5,1190 28,2423 34,3645 579,38 1161,75 1746,112l-1746 -108c4,643 2,1284 -8,1915l1634 104c14492,908 28054,1408 39597,1524 -11467,-1328 -24985,-2527 -39477,-3435 7429,466 14379,769 20291,911 -3938,-400 -8347,-787 -13060,-1139 16140,958 31213,1667 44284,2111 -13507,-1236 -29187,-2460 -46002,-3557 5867,283 11355,404 16195,376 -866,-114 -1755,-226 -2665,-336 8493,419 16476,730 23718,933 -12191,-1189 -26524,-2335 -41885,-3305 6260,384 12113,621 17117,712 -3341,-358 -7069,-700 -11053,-1007 15043,889 29092,1534 41274,1922 -13906,-1303 -30285,-2578 -47834,-3678 10501,658 20321,1142 28672,1436 -6633,-598 -14205,-1194 -22322,-1745 8181,472 15824,830 22526,1067 -1770,-159 -3606,-318 -5501,-477 1900,80 3742,152 5517,214 -8133,-733 -17673,-1462 -27898,-2110 18682,1167 36139,2130 51015,2838 -12520,-976 -26885,-2000 -42282,-3002 1111,22 2182,34 3204,35 -3584,-446 -7789,-840 -12301,-1132 11074,688 21433,1090 30266,1220 -5192,-577 -10927,-1126 -17037,-1623 660,-11 1308,-27 1940,-47 -3454,-548 -7386,-1018 -11607,-1368 12126,718 23455,1188 33234,1412 -9382,-964 -20222,-1880 -31852,-2664 3404,158 6594,248 9450,273 -4238,-494 -9233,-940 -14589,-1276 10447,655 20229,918 28561,832 -8256,-1126 -17994,-2087 -28441,-2742 -720,-45 -1436,-89 -2149,-130zm-543 17006c-3,171 -7,341 -12,509 -15,542 -66,955 -112,1397l1632 105 -1633 -101c-40,384 -76,790 -84,1322l46 2172 562 35 -562 -35 35 1678 1312 83 -1312 -81 43 2021 521 34 -521 -32 68 3224 -2 839 823 52 -823 -51c-2,643 -2,1282 0,1918l704 45c19381,1215 37511,2001 52936,2360 -15349,-1571 -33435,-3056 -52816,-4271 7429,466 14379,769 20291,911 -4069,-414 -8640,-813 -13529,-1173 12187,701 23571,1181 33483,1438 -10289,-1025 -22194,-2009 -34966,-2861 5955,290 11525,415 16429,387 -867,-114 -1756,-226 -2665,-336 8492,418 16476,730 23718,933 -12191,-1189 -26524,-2335 -41885,-3305 6260,384 12112,621 17117,713 -3338,-359 -7063,-700 -11044,-1007 15040,889 29085,1533 41265,1921 -13905,-1303 -30286,-2578 -47834,-3679 10501,659 20320,1142 28672,1437 -6633,-599 -14205,-1194 -22322,-1745 8181,471 15824,830 22526,1067 -1770,-159 -3606,-319 -5501,-477 1900,80 3741,152 5517,214 -8134,-733 -17673,-1462 -27897,-2110 18681,1167 36138,2130 51014,2838 -12063,-940 -25838,-1925 -40599,-2892 -1547,-111 -3117,-221 -4709,-329 7124,400 13783,700 19650,891 -6720,-624 -14498,-1238 -22838,-1788 11770,680 22775,1002 32265,998 -10295,-1302 -22436,-2442 -35455,-3258 13099,822 25360,1239 35798,1286 -10362,-1259 -22579,-2376 -35678,-3197l-1628 -100zm-19 15240c2,642 4,1281 8,1918l567 36c17519,1098 33909,1776 47855,2042 -13870,-1479 -30216,-2855 -47736,-3953l-694 -43zm154 15935l16 1918c12877,797 24927,1204 35208,1249 -10242,-1243 -22296,-2349 -35224,-3167zm16 1919c8,1144 13,2297 15,3462 10252,636 19833,1106 28014,1396 -6614,-596 -14159,-1189 -22243,-1739 7125,401 13785,700 19652,892 -6720,-624 -14497,-1239 -22839,-1789 11771,680 22776,1003 32266,998 -10139,-1282 -22069,-2406 -34865,-3220zm21 3849c7,227 22,426 39,611 12670,789 24509,1421 34611,1866 -10099,-822 -21952,-1676 -34650,-2477zm40 612c60,634 160,1109 156,2039l0 74c9370,569 18132,887 25636,966 -2556,-294 -5262,-579 -8092,-851 5992,266 11650,459 16851,581 -10065,-1029 -21883,-2004 -34551,-2809zm156 2115c-3,398 -16,840 -23,1284 13444,829 26012,1384 36753,1662 -10707,-1067 -23266,-2088 -36730,-2946zm-23 1302c-9,567 -10,1136 28,1623 91,1151 161,2674 299,3971 12777,780 24719,1297 34952,1550 -1527,-154 -3095,-307 -4698,-458 10516,549 20440,1010 29551,1374 -15198,-1299 -32685,-2617 -51435,-3852 10501,575 20318,980 28981,1214 -10110,-997 -21825,-1958 -34390,-2791 4316,183 8356,230 11938,153 -3264,-481 -6926,-908 -10845,-1252 7742,413 14977,651 21321,721 -7499,-861 -16281,-1644 -25702,-2253zm344 5755c56,495 122,952 203,1337 288,1358 842,2483 1584,3424 5053,246 9779,343 13932,304 -1876,-255 -3872,-496 -5968,-719 3832,107 7453,139 10783,101 -5094,-701 -10897,-1321 -17122,-1808 7106,372 13750,573 19582,614 -985,-117 -1994,-233 -3025,-346 7597,367 14761,651 21326,851 -5235,-498 -10858,-991 -16783,-1468 838,17 1664,32 2476,43 -7891,-877 -17104,-1685 -26988,-2333zm1819 4801c269,336 562,649 875,940 7694,435 14881,730 21162,887 -6503,-655 -13997,-1283 -22037,-1827zm1327 1332c1056,861 2302,1511 3623,2020 6971,295 13503,405 19325,345 -6790,-926 -14583,-1740 -22948,-2365zm4496 2333c470,157 945,298 1421,427 1056,24 2078,41 3059,49 -1414,-165 -2912,-324 -4480,-476zm2717 749c3286,752 6659,1096 10055,1557 741,101 1871,178 3245,233l765 29 15 0 13 1c2282,74 5096,98 7900,79 -6718,-669 -14126,-1312 -21993,-1899zm140684 1881c1805,24 3664,30 5428,18 2588,-86 5257,-187 7998,-303 113,-13 221,-26 320,-39 3425,-465 6827,-810 10138,-1576 260,-60 522,-124 784,-190 -8861,637 -17189,1347 -24668,2090zm25316 -2263c640,-179 1278,-381 1900,-614 -2557,222 -4964,466 -7167,723 1652,-14 3415,-51 5267,-109zm2331 -781c1305,-525 2528,-1194 3555,-2076 -9190,642 -17749,1516 -25125,2522 6444,67 13755,-75 21570,-446zm3949 -2434c308,-296 593,-614 855,-957 -8834,576 -17071,1255 -24135,1967 6853,-171 14787,-508 23280,-1010zm862 -966c700,-918 1223,-2009 1500,-3315 88,-418 158,-921 216,-1465l-25 2c-10632,667 -20550,1524 -28966,2459 812,-11 1638,-26 2477,-43 -5926,477 -11549,970 -16784,1468 6565,-200 13730,-485 21326,-851 -1031,113 -2040,229 -3025,346 5832,-41 12476,-242 19582,-614 -6224,487 -12028,1107 -17122,1808 3330,38 6951,6 10783,-102 -2095,224 -4092,465 -5968,720 4717,44 10172,-87 16006,-413zm1733 -4937c129,-1269 197,-2732 286,-3847 41,-522 37,-1141 26,-1749l-712 44c-9903,621 -19141,1435 -26978,2335 6344,-70 13580,-307 21322,-721 -3920,344 -7582,771 -10846,1252 3583,76 7623,30 11938,-153 -12565,834 -24279,1794 -34390,2791 8663,-234 18480,-639 28982,-1214 -18751,1235 -36238,2553 -51435,3852 9110,-364 19035,-825 29550,-1374 -1603,152 -3170,304 -4698,459 10752,-267 23391,-824 36903,-1672l52 -3zm312 -5613c-8,-430 -20,-854 -21,-1235l0 -49 -312 19 312 -19c0,-957 110,-1427 168,-2116l-462 29 462 -30c15,-183 27,-382 32,-610l-1142 71c-13020,817 -25177,1690 -35501,2531 10348,-456 22519,-1108 35539,-1924 -13020,816 -25169,1813 -35480,2868 5200,-122 10858,-315 16851,-581 -2831,272 -5537,557 -8093,851 7706,-81 16738,-414 26394,-1012 -13751,868 -26581,1907 -37488,2994 11080,-287 24104,-869 38028,-1742l713 -45zm181 -4398c2,-1164 8,-2317 16,-3461l-1401 86 1401 -89 16 -1916 -1536 95c-13100,821 -25317,1938 -35679,3196 10438,-46 22699,-464 35798,-1286 -13019,817 -25160,1956 -35455,3259 9490,4 20495,-319 32266,-998 -8341,549 -16118,1164 -22839,1788 5867,-192 12527,-491 19653,-892 -8085,550 -15629,1143 -22243,1739 8398,-298 18274,-785 28835,-1447l1168 -74zm33 -5533l20 -1917 -1686 104c565,-35 1127,-71 1686,-108 15,-1357 32,-2709 48,-4060l-1365 85 1365 -90 24 -2017 -2138 133 2138 -136 19 -1675 -1371 85 1371 -87c14,-1385 26,-2775 34,-4177 -849,51 -1701,102 -2557,156l0 0 0 0c-13020,816 -25161,1956 -35456,3258 9362,4 20197,-309 31787,-970 -13060,840 -25242,1732 -35725,2598 9409,-403 20173,-955 31698,-1639 -7586,523 -14670,1085 -20923,1648 7628,-270 16474,-697 25945,-1269 -17925,1137 -34653,2316 -48970,3431 14876,-707 32333,-1670 51014,-2838 -10223,649 -19763,1378 -27897,2111 1776,-63 3617,-134 5517,-214 -1895,159 -3731,318 -5501,477 6702,-238 14345,-596 22526,-1067 -8117,551 -15689,1146 -22322,1745 8351,-295 18171,-779 28672,-1437 -17548,1100 -33928,2376 -47833,3679 12181,-389 26231,-1033 41273,-1922 -3983,307 -7712,649 -11053,1007 5004,-92 10857,-328 17117,-712 -15361,970 -29694,2115 -41884,3305 7241,-203 15224,-514 23717,-933 -909,110 -1798,221 -2665,336 4840,27 10328,-94 16196,-376 -16816,1097 -32496,2320 -46003,3556 13071,-444 28144,-1153 44285,-2110 -4714,352 -9122,738 -13061,1139 5912,-142 12862,-446 20291,-912 -14492,909 -28010,2108 -39477,3435 11543,-115 25105,-615 39597,-1524l1547 -98zm145 -13867c3,-635 5,-1273 7,-1914 -892,54 -1786,110 -2684,166 -17519,1098 -33865,2474 -47736,3953 13947,-266 30337,-944 47856,-2042 855,-54 1707,-108 2557,-163zm7 -2068c1,-635 2,-1273 0,-1914l-2813 174c946,-60 1884,-121 2813,-183l-2 -709 73 -3346 -2515 154c847,-54 1685,-110 2516,-168l43 -2010c-1098,67 -2201,135 -3308,204 1111,-69 2214,-140 3308,-211l37 -1671c-848,51 -1701,102 -2559,156l2559 -162 31 -1437 -253 15 253 -18 6 -270 -113 -1772c-1190,69 -2388,140 -3592,216 1204,-76 2401,-154 3590,-234l-81 -1268c-6,-207 -11,-416 -14,-626 -1198,69 -2403,141 -3615,217 -13100,821 -25317,1938 -35678,3197 10437,-47 22698,-465 35798,-1286 -13020,816 -25161,1956 -35456,3258 9491,4 20496,-318 32266,-998 -8341,550 -16118,1164 -22839,1788 5867,-191 12526,-491 19651,-892 -1592,109 -3163,219 -4710,330 -14761,967 -28535,1952 -40599,2892 14876,-708 32333,-1671 51015,-2838 -10224,648 -19764,1377 -27898,2110 1776,-63 3617,-134 5518,-214 -1896,158 -3732,318 -5501,477 6702,-237 14344,-596 22525,-1067 -8117,551 -15689,1146 -22321,1745 8351,-295 18170,-778 28672,-1437 -17549,1101 -33929,2376 -47834,3679 12179,-388 26225,-1032 41264,-1921 -3980,307 -7706,648 -11044,1007 5005,-92 10858,-329 17118,-713 -15362,970 -29695,2116 -41885,3306 7241,-204 15225,-515 23718,-934 -909,110 -1798,222 -2666,336 4904,28 10474,-97 16430,-387 -12772,852 -24678,1836 -34966,2861 9911,-257 21296,-737 33483,-1438 -4890,361 -9461,759 -13530,1173 5913,-142 12862,-446 20292,-911 -19382,1215 -37468,2700 -52816,4271 15424,-359 33554,-1145 52936,-2360l2693 -171zm-24 -15247c-9,-627 -10,-1264 -6,-1903 -1237,73 -2483,148 -3735,227 1260,-79 2506,-161 3735,-246 8,-1178 29,-2364 34,-3511 0,-198 -4,-374 -11,-534 -1124,67 -2254,136 -3389,207 1144,-73 2274,-150 3388,-229 -38,-784 -156,-1190 -186,-1988 -1310,79 -2627,161 -3951,244 1329,-84 2646,-168 3951,-255 -3,-76 -4,-155 -6,-239 -5,-450 10,-937 20,-1426 -1052,62 -2112,127 -3179,193l3179 -201c9,-406 16,-814 6,-1202 -1207,55 -2445,121 -3705,198 1245,-79 2480,-160 3704,-244 -5,-179 -13,-354 -27,-523 -37,-476 -79,-977 -120,-1492l-250 10 249 -16c-52,-647 -103,-1317 -147,-1983 -1342,67 -2715,144 -4111,231 1383,-86 2752,-179 4108,-276 -41,-635 -74,-1266 -93,-1875 -1365,73 -2744,153 -4135,241 -10447,655 -20185,1616 -28441,2742 8332,86 18114,-177 28561,-832 -5355,336 -10351,782 -14588,1276 2855,-25 6045,-115 9449,-273 -11629,784 -22470,1700 -31851,2664 9778,-224 21107,-694 33233,-1412 -4220,350 -8153,820 -11606,1368 632,20 1279,36 1940,47 -6110,497 -11845,1046 -17038,1623 8833,-130 19192,-532 30266,-1220 -4512,291 -8717,686 -12301,1132 1022,-1 2093,-13 3205,-35 -15398,1002 -29762,2026 -42283,3002 14876,-708 32333,-1671 51015,-2838 -10224,648 -19764,1377 -27898,2110 1776,-62 3617,-134 5518,-214 -1896,159 -3732,318 -5501,478 6702,-238 14344,-596 22525,-1068 -8117,551 -15689,1147 -22321,1745 8351,-294 18171,-778 28672,-1436 -17549,1100 -33929,2375 -47834,3678 12181,-388 26231,-1033 41273,-1922 -3983,307 -7712,649 -11053,1007 5004,-91 10858,-328 17118,-712 -15362,970 -29695,2116 -41885,3305 7241,-203 15225,-514 23717,-933 -909,110 -1798,222 -2665,336 4840,28 10328,-93 16196,-376 -16816,1097 -32496,2321 -46002,3557 13070,-444 28143,-1153 44284,-2111 -4713,352 -9122,738 -13061,1139 5912,-142 12862,-445 20291,-911 -14491,908 -28009,2107 -39476,3435 11543,-116 25104,-616 39596,-1524 1215,-77 2422,-155 3622,-235zm-557 -17177l-67 -885c-1362,78 -2739,161 -4129,248 1397,-88 2774,-184 4126,-288l-349 -4616c-1344,77 -2701,158 -4070,244 -10631,666 -20550,1523 -28965,2459 812,-12 1637,-26 2476,-43 -5925,477 -11548,970 -16784,1467 6566,-199 13730,-483 21326,-850 -1030,113 -2039,229 -3024,346 5833,-42 12477,-243 19585,-614 -6226,486 -12030,1107 -17125,1808 3330,38 6951,6 10783,-102 -2096,224 -4093,465 -5968,719 5247,50 11409,-118 17989,-530 -9587,601 -18533,1328 -26126,2093 7629,-190 16596,-585 26182,-1186 1395,-88 2775,-178 4140,-270zm-436 -5715c-286,-2302 -485,-4780 -745,-7203 -1045,63 -2094,127 -3148,193 1061,-68 2111,-139 3146,-212 -72,-669 -149,-1333 -234,-1988 -1214,74 -2435,149 -3661,226 1230,-77 2450,-155 3660,-235 -72,-556 -149,-1106 -234,-1646l-1 -6c-875,52 -1754,106 -2639,161l2638 -167c-75,-475 -151,-948 -228,-1421l-50 3 50 -4c-111,-678 -224,-1355 -340,-2031 -1054,61 -2114,125 -3179,192l0 0 0 0c-13020,816 -25161,1956 -35456,3257 9484,5 20481,-317 32243,-996 -8332,550 -16101,1164 -22816,1787 5867,-191 12526,-490 19651,-892 -1592,108 -3163,218 -4710,330 -14761,966 -28536,1952 -40599,2892 14876,-708 32333,-1671 51014,-2838 -10223,648 -19763,1378 -27897,2110 1776,-63 3617,-134 5518,-214 -1896,158 -3732,318 -5501,477 6702,-237 14344,-595 22525,-1067 -8117,550 -15689,1146 -22321,1745 8351,-294 18171,-778 28672,-1437 -17549,1101 -33929,2376 -47834,3679 12179,-388 26224,-1032 41264,-1921 -3980,307 -7706,648 -11044,1007 5005,-92 10858,-329 17118,-713 -15362,970 -29695,2116 -41885,3305 7241,-203 15225,-515 23718,-933 -910,110 -1798,222 -2666,336 4904,28 10475,-97 16430,-387 -12772,851 -24678,1836 -34967,2861 7918,-205 16776,-553 26231,-1042 -904,118 -1783,240 -2635,365 3582,76 7622,29 11938,-153 -12565,833 -24279,1794 -34391,2791 8664,-234 18481,-640 28982,-1214 -18750,1234 -36237,2553 -51435,3852 9111,-365 19035,-825 29550,-1374 -1602,151 -3169,304 -4698,458 10753,-266 23392,-824 36904,-1671 1363,-86 2717,-173 4062,-262zm-1788 -14344c-107,-630 -217,-1258 -329,-1885 -984,58 -1974,117 -2968,180 -13100,821 -25317,1938 -35679,3196 10438,-46 22699,-464 35799,-1285 1065,-67 2124,-136 3177,-206zm-357 -2044c-112,-630 -226,-1259 -343,-1888l-1703 103c571,-38 1138,-76 1701,-116l-129 -693c-869,48 -1750,99 -2640,155 883,-55 1762,-112 2637,-170 -118,-630 -237,-1259 -359,-1888 -796,48 -1595,97 -2398,147 -13972,876 -27003,2044 -38056,3346 11129,-90 24204,-559 38176,-1435 -5356,336 -10352,781 -14589,1276 3993,-36 8640,-198 13611,-494 -14105,901 -27258,2074 -38454,3371 11543,-116 25104,-616 39596,-1524 988,-62 1972,-126 2950,-190zm-866 -4653c-122,-630 -245,-1259 -371,-1887 -706,42 -1415,85 -2126,130 -12629,792 -24406,1881 -34395,3116 10064,-23 21886,-413 34515,-1205 796,-50 1588,-101 2377,-154zm-372 -1897c-402,-2014 -820,-4023 -1251,-6029 -417,24 -835,49 -1257,75l1255 -81c-135,-629 -272,-1259 -410,-1889l-965 59c-9360,587 -18083,1485 -25475,2557 7468,140 16235,-59 25595,-646 -4798,301 -9273,714 -13068,1181 2559,-7 5418,-77 8468,-212 -10419,708 -20131,1554 -28534,2456 6852,-125 14552,-395 22778,-812 -9749,661 -18853,1348 -26900,2022 10344,-431 22416,-1058 35340,-1856 -6826,450 -13189,977 -18665,1529 4526,-113 9645,-317 15119,-612 -8304,559 -16050,1168 -22813,1779 7580,-266 16375,-690 25792,-1259 -8348,589 -16120,1442 -22804,2453 7492,186 16284,14 25670,-575l0 0 0 0c712,-45 1420,-91 2125,-140zm-1732 -8238l-198 -896 -774 48 774 -50c-341,-1538 -689,-3075 -1042,-4612l-24 2c-9526,597 -18412,1389 -25949,2270 728,-7 1468,-16 2220,-27 -5309,438 -10346,894 -15035,1358 5883,-158 12304,-395 19110,-712 -923,107 -1827,215 -2709,326 5229,-3 11184,-161 17552,-486 -5578,446 -10776,1028 -15339,1696 2985,59 6231,51 9665,-32 -1877,210 -3665,438 -5345,680 4705,84 10227,-43 16122,-413 -8590,539 -16604,1208 -23405,1923 6837,-140 14872,-478 23462,-1016l915 -59zm-1275 -5664c-325,-1413 -655,-2825 -988,-4239 -112,-475 -217,-862 -330,-1255 -8506,550 -16435,1280 -23197,2097 5686,-28 12171,-219 19108,-581 -3511,318 -6791,721 -9713,1181 3211,99 6833,79 10699,-76 -11257,752 -21751,1636 -30809,2567 7765,-178 16562,-520 25971,-1026 -16799,1113 -32466,2317 -46080,3516 8164,-305 17057,-700 26480,-1181 -1436,141 -2840,284 -4209,428 9636,-197 20962,-672 33068,-1431zm-1323 -5511c-95,-330 -195,-665 -308,-1061l-57 -200c-11999,767 -23191,1702 -32737,2695 9671,-209 20993,-686 33102,-1434zm-366 -1264c-202,-708 -395,-1395 -584,-2065 -11018,713 -21291,1588 -30073,2527 4661,-88 9732,-245 15101,-471 -2535,253 -4958,521 -7248,798 6681,-31 14473,-287 22804,-789zm-585 -2068l-168 -596c-10969,698 -21203,1450 -29963,2182 8818,-369 19111,-905 30131,-1586zm-276 -978c-328,-1164 -644,-2284 -962,-3393 -10653,721 -20576,1712 -29088,2851 8502,67 18358,-184 28897,-786 -7466,495 -14426,1058 -20441,1638 5258,-154 11226,-409 17611,-764 -7244,497 -14003,1041 -19928,1594 7013,-227 15175,-609 23911,-1140zm-966 -3406c-346,-1205 -697,-2397 -1070,-3619 -3350,258 -6476,571 -9234,915 2422,-3 5119,-64 7995,-187 -10836,733 -20936,1603 -29674,2527 6640,-132 14048,-392 21951,-781 -6975,592 -13506,1283 -19371,2036 8640,20 18673,-267 29403,-891zm-1080 -3651c-199,-654 -405,-1316 -621,-1992 -4169,349 -8055,814 -11471,1356 632,20 1279,36 1940,47 -6110,498 -11845,1046 -17037,1623 8010,-117 17274,-459 27189,-1034zm-624 -1999c-202,-633 -412,-1279 -633,-1943 -3642,280 -7043,608 -10060,960 2950,-27 6257,-122 9788,-289 -8778,614 -16960,1360 -24066,2170 7375,-87 15875,-383 24971,-898zm-648 -1987c-200,-600 -409,-1216 -629,-1851 -12059,830 -23294,1871 -33004,3014 9915,-80 21373,-461 33633,-1163zm-690 -2032l-560 -1841c-10529,747 -20339,1693 -28850,2745 8696,-19 18703,-313 29410,-904zm-580 -1907l-588 -1935c-7102,571 -13718,1329 -19517,2206 5990,149 12813,68 20105,-271zm-604 -1987l-206 -679c-5245,356 -10262,730 -14943,1113 -1160,172 -2378,336 -3653,491 5755,-228 12097,-538 18802,-925zm-209 -686l-197 -650c-3070,223 -6020,461 -8809,707 -430,92 -871,183 -1323,273 -260,51 -525,102 -793,152 3460,-113 7197,-274 11122,-482zm-208 -686l-209 -689c-1281,84 -2551,169 -3811,254 -1075,295 -2190,585 -3380,864 2426,-136 4894,-279 7400,-429zm-222 -731l-222 -730c-1023,300 -2046,600 -3103,895 1091,-51 2200,-106 3325,-165z"/>
  <path id="calcao_contorno" fill="none" d="M69622 5540c-9320,-113 -15317,-101 -21532,-475 -6215,-375 -12649,-1137 -18001,-2045 -5351,-907 -9620,-1960 -13890,-3012l-2056 6765c-2101,6050 -3233,10387 -4916,16286 -249,873 -435,1453 -642,2332 -2360,10026 -4550,19989 -6162,30215 -554,3515 -787,7435 -1226,10942l-435 5756c-45,1831 -234,3900 -370,5626 -78,987 9,2193 -3,3205 -13,1159 -208,1512 -203,2795 9,2038 69,4202 11,6226 -28,1013 -181,1574 -197,2723l192 9099c-30,8302 172,15985 183,24266 2,1268 207,1667 202,2996 -4,925 -65,2105 5,3002 131,1645 218,4048 519,5469 1056,4984 5703,6848 10073,7859 3312,765 6714,1110 10138,1575 4010,546 19376,400 23493,-86 6450,-761 15507,-275 22162,-1971 7272,-1853 6398,-2821 7435,-7424 870,-3869 2219,-13998 3169,-16919 807,-2484 1721,-7868 2195,-10524 344,-1991 1133,-3678 1718,-5613 1344,-4440 1694,-7626 2920,-12168 377,-1398 722,-2381 1102,-3854 997,-3865 2190,-8250 2968,-12118 575,-2855 1095,-5359 1653,-8288l2191 -12734c189,-998 230,-2248 1182,-2596 952,348 993,1598 1182,2596l2191 12734c558,2929 1077,5433 1652,8288 779,3868 1972,8253 2968,12118 380,1473 725,2456 1103,3854 1226,4542 1576,7728 2919,12168 585,1935 1375,3622 1719,5613 473,2653 1389,8042 2195,10524 949,2921 2299,13050 3169,16919 1037,4603 163,5571 7434,7424 6656,1696 15712,1210 22163,1971 4117,486 19483,632 23492,86 3425,-465 6827,-810 10138,-1575 4371,-1011 9018,-2875 10074,-7859 301,-1421 388,-3824 519,-5469 70,-897 9,-2077 5,-3002 -5,-1329 200,-1728 202,-2996 11,-8281 213,-15964 183,-24266l191 -8764 -196 -3058c-58,-2024 2,-4188 11,-6226 4,-1283 -190,-1636 -204,-2795 -11,-1012 76,-2218 -2,-3205 -136,-1726 -325,-3795 -370,-5626l-436 -5756c-439,-3507 -671,-7427 -1225,-10942 -1612,-10226 -3802,-20189 -6162,-30215 -207,-879 -394,-1459 -643,-2332 -1682,-5899 -2814,-10236 -4915,-16286l-2057 -6765c-2951,865 -5902,1731 -9677,2476 -3774,745 -8371,1370 -13806,1870 -5434,500 -11706,874 -19026,1149 -7321,275 -15692,450 -26199,419 -10507,-32 -23150,-270 -32470,-382z"/>
 </g>
</svg>
