<?xml version="1.0" encoding="UTF-8"?>
<!DOCTYPE svg PUBLIC "-//W3C//DTD SVG 1.1//EN" "http://www.w3.org/Graphics/SVG/1.1/DTD/svg11.dtd">
<!-- Creator: CorelDRAW -->
<svg xmlns="http://www.w3.org/2000/svg" xml:space="preserve" width="238px" height="298px" version="1.1" shape-rendering="geometricPrecision" text-rendering="geometricPrecision" image-rendering="optimizeQuality" fill-rule="evenodd" clip-rule="evenodd"
viewBox="0 0 238 298.123"
 xmlns:xlink="http://www.w3.org/1999/xlink"
 xmlns:xodm="http://www.corel.com/coreldraw/odm/2003">
 <defs>
   <clipPath id="id0">
    <path d="M207.298 27.894c-0.11,-0.063 -0.222,-0.122 -0.337,-0.177 -4.975,-2.38 -9.714,-5.334 -14.858,-7.149 -4.647,-1.639 -11.454,-2.699 -17.288,-4.719 -2.277,-0.789 -4.556,-1.589 -6.82,-2.415l-0.004 -0.03 -9.999 -4.08 -0.175 -0.072c-0.614,-0.28 -1.553,-1.207 -2.512,-1.889 -0.494,-0.369 -0.613,-0.563 -1.038,-0.905 -2.856,-2.299 -5.606,-5.635 -9.574,-5.641 -0.901,-0.002 -1.04,-0.123 -1.779,-0.163l-7.601 -0.17c-5.892,-0.486 -12.055,-0.501 -18.06,-0.477 -5.087,0.02 -9.557,0.063 -14.567,0.477 -2.529,0.209 -4.996,0.029 -7.6,0.17 -0.739,0.04 -0.878,0.161 -1.779,0.163 -3.968,0.006 -6.718,3.342 -9.575,5.641 -0.424,0.342 -0.543,0.536 -1.037,0.905 -0.741,0.527 -1.471,1.2 -2.047,1.608 -0.17,0.121 -0.326,0.218 -0.465,0.281l-10.174 4.152 -0.003 0.03c-2.265,0.826 -4.544,1.626 -6.821,2.415 -5.834,2.02 -12.641,3.08 -17.288,4.719 -5.144,1.815 -9.883,4.769 -14.858,7.149 -0.212,0.101 -0.412,0.215 -0.605,0.339 -0.909,0.583 -1.664,1.379 -2.651,2.001 -11.263,7.099 -18.243,27.467 -21.401,39.215 -1.569,5.839 -1.98,12.983 -2.969,19.04 -0.5,3.067 -1.172,6.193 -1.752,9.253 -0.585,3.095 -0.872,6.493 -1.288,9.631 -0.406,0.268 -0.327,-0.023 -0.308,0.899l-0.065 1.854 0 8.783c0.041,1.018 0.102,1.813 0.186,2.164 1.125,0.477 3.706,0.514 5.07,0.712 7.662,1.114 9.041,0.828 15.791,1.554l21.547 1.349c-0.015,-1.623 0.547,-10.725 0.578,-13.424l-0.603 -0.316 -0.07 -0.036c0,-4.476 -0.011,-9.226 -0.011,-13.7 1.678,4.247 3.328,18.944 3.789,24.023 0.735,8.116 1.826,16.186 2.512,24.347 0.348,4.137 0.874,8.269 1.009,12.419l0.653 12.776c0.396,4.199 0.208,8.934 0.274,13.179 0.032,2.062 0.194,4.007 0.186,6.13 -0.007,2.226 -0.172,4.349 -0.196,6.512 -0.051,4.469 -0.054,8.634 -0.319,13.111 -0.68,11.475 -1.257,26.076 -3.267,37.02 -0.966,5.407 -2.177,11.944 -2.754,17.389 -0.258,2.432 -0.827,10.057 -1.468,11.951 -0.68,2.01 -0.163,3.658 -0.568,5.77 -0.342,1.785 -0.742,3.812 -1.164,5.568 -0.463,1.93 -1.435,3.647 0.397,4.966 4.276,1.054 8.552,2.108 13.913,3.017 5.36,0.909 11.804,1.672 18.03,2.048 6.226,0.375 12.232,0.363 21.568,0.476 9.335,0.112 21.999,0.351 32.523,0.382 10.525,0.032 18.909,-0.144 26.242,-0.419 7.333,-0.275 13.615,-0.65 19.058,-1.151 5.443,-0.501 10.048,-1.126 13.829,-1.873 3.78,-0.746 6.736,-1.613 9.693,-2.48 1.832,-1.319 0.86,-3.036 0.397,-4.966 -0.422,-1.756 -0.822,-3.783 -1.164,-5.568 -0.405,-2.112 0.112,-3.76 -0.568,-5.77 -0.641,-1.894 -1.21,-9.519 -1.468,-11.951 -0.577,-5.445 -1.788,-11.982 -2.754,-17.389 -2.01,-10.944 -2.587,-25.545 -3.267,-37.02 -0.265,-4.477 -0.268,-8.642 -0.319,-13.111 -0.024,-2.163 -0.189,-4.286 -0.196,-6.512 -0.008,-2.123 0.154,-4.068 0.186,-6.13 0.066,-4.245 -0.122,-8.98 0.274,-13.179l0.653 -12.776c0.135,-4.15 0.661,-8.282 1.009,-12.419 0.686,-8.161 1.777,-16.231 2.512,-24.347 0.461,-5.079 1.889,-19.043 3.568,-23.29 0,4.474 -0.105,8.584 -0.105,13.06l0 0 -0.416 0.247c-0.004,0.882 0.338,12.091 0.604,13.423l21.579 -1.336c6.75,-0.726 8.129,-0.44 15.791,-1.554 1.364,-0.198 3.945,-0.235 5.07,-0.712 0.084,-0.351 0.145,-1.146 0.186,-2.164l0 -8.783 -0.065 -1.854c0.014,-0.687 0.062,-0.7 -0.083,-0.774 -0.05,-0.025 -0.122,-0.057 -0.225,-0.125 -0.416,-3.138 -0.703,-6.536 -1.288,-9.631 -0.58,-3.06 -1.252,-6.186 -1.752,-9.253 -0.989,-6.057 -1.4,-13.201 -2.969,-19.04 -3.158,-11.748 -10.138,-32.116 -21.401,-39.215 -1.057,-0.665 -1.895,-1.576 -2.919,-2.163z"/>
   </clipPath>
 </defs>
 <g id="VETORES">
  <metadata id="CorelCorpID_0Corel-Layer"/>
  <g>
  </g>
  <g clip-path="url(#id0)">
   <g id="_1760185268608">
    <path id="_3c" fill="#0030A8" fill-rule="nonzero" d="M204.823 109.74l-0.09 -1.362 -9.841 6.928c0,0.13 0,0.26 0.01,0.39l1.231 0.631 8.69 -6.587zm28.071 -33.936l-21.054 14.816 1.222 0.651 2.182 -1.672 0.03 0.029 12.003 -9.139 0.11 0.14 5.607 -4.234c0,0 0,-0.04 0,-0.061l-10.912 7.669 10.812 -8.199zm-8.29 21.453l0.741 0.4 9.601 -7.268c-0.02,-0.09 -0.03,-0.18 -0.05,-0.27l-10.291 7.148 -0.001 -0.01zm6.247 -26.558l-24.376 17.138 1.021 0.541 11.182 -8.489 0.401 0.57 8.909 -6.757 0.14 0.2 3.664 -2.782 0.061 0.06 0.19 -0.14c-0.121,-0.541 -0.24,-1.071 -0.381,-1.592l-1.141 0.801 0.341 0.451 -0.011 -0.001zm-1.872 18.189l-8.709 6.127 2.382 1.221 4.115 -3.123 0.09 0.14 7.618 -5.786c-0.07,-0.481 -0.15,-0.952 -0.22,-1.442l-9.02 6.347 8.96 -6.797c-0.081,-0.591 -0.16,-1.192 -0.241,-1.802l-5.826 3.894 0.851 1.221zm-1.822 -24.145l2.563 -1.952c-0.1,-0.321 -0.2,-0.631 -0.3,-0.951l-3.334 2.332 1.081 0.571 -0.01 0zm2.704 1.381l0.72 -0.551c-0.15,-0.52 -0.32,-1.061 -0.48,-1.601l-1.882 1.302 1.642 0.85zm1.03 0.541c-0.02,-0.07 -0.04,-0.14 -0.06,-0.221l-0.15 0.101 0.21 0.11 0 0.01zm-5.296 -2.753l3.604 -2.723c-0.17,-0.531 -0.35,-1.061 -0.54,-1.602l-4.826 3.414 1.762 0.911zm-30.322 37.799c0,0 0,0.05 0,0.07l1.271 -0.94 -1.271 0.87zm8.699 -5.556l-8.719 6.127c0,0.3 0,0.611 -0.01,0.911l8.759 -6.637 -0.03 -0.401zm26.679 1.893l-1.562 1.111 0.681 0.79 6.137 -4.654c-0.101,-0.491 -0.2,-0.982 -0.301,-1.482l-5.325 3.754 0.37 0.481zm-27.07 -8.169l-8.499 5.956c0.08,0.591 0.14,1.192 0.2,1.792l8.39 -6.356 -0.081 -1.392 -0.01 0zm0.882 14.215l-0.771 0.541 0.771 -0.601 0 -0.341 -1.392 0.961 1.361 -1.021 0 -0.06 -2.752 1.932 0.96 -0.711 -7.457 5.235c0,0.271 0,0.531 0,0.801l-0.401 0.231c0,0.14 0,0.53 0.02,1.091l9.711 -7.358 -0.06 -0.711 0.01 0.011zm26.388 -3.574l5.296 -4.014 -5.526 3.874 0.23 0.14zm2.012 1.051l3.685 -2.793c-0.05,-0.33 -0.101,-0.671 -0.16,-0.991l-4.575 3.214 1.05 0.57zm-28.431 19.069l1.052 -0.77 -0.17 -2.602 -3.154 2.211 2.272 1.161zm-9.49 -25.816l0.041 0.28 4.645 -3.534 -4.695 3.244 0.009 0.01zm29.122 -14.875l-13.925 9.79 0.591 0.31 13.334 -10.1zm10.301 13.364l-4.735 3.323 0.11 0.17 4.625 -3.493zm-30.903 2.272l0.46 -0.34 -0.09 -1.082 -0.901 0.651 0.531 0.771zm26.759 1.902l4.405 -3.293 -4.486 3.153 0.081 0.14zm-32.315 19.781l7.067 -5.336 -0.06 -1.021 -8.169 5.726 1.162 0.631zm2.242 1.16l4.995 -3.773 -0.06 -0.771 -0.991 0.711 0.991 -0.761 -0.03 -0.541 -6.266 4.425 1.361 0.71zm19.551 -77.24l-16.257 11.242 1.902 0.991 14.696 -11.152 0.31 0.451 0.62 -0.471c-0.18,-0.3 -0.36,-0.601 -0.54,-0.901l-12.965 9.12 12.234 -9.28zm3.064 21.252l5.456 -4.124c-0.05,-0.15 -0.11,-0.31 -0.16,-0.461l-6.007 4.215 0.711 0.37zm-3.034 -1.591l7.368 -5.586c-0.21,-0.541 -0.42,-1.082 -0.64,-1.622l-8.78 6.157 2.052 1.051zm1.532 0.82l0.23 0.11 6.267 -4.755c-0.08,-0.21 -0.15,-0.42 -0.23,-0.63l-6.977 4.905 0.71 0.37zm-3.744 -1.951l8.719 -6.618c-0.04,-0.089 -0.08,-0.19 -0.12,-0.28l-9.29 6.537 0.68 0.37 0.011 -0.009zm3.284 -16.378l-14.786 10.411 3.974 2.042 12.994 -9.85c-0.19,-0.36 -0.371,-0.73 -0.561,-1.091l-9.22 6.477 9.03 -6.837c-0.29,-0.541 -0.591,-1.082 -0.891,-1.622l-0.561 0.391 0.03 0.06 -0.009 0.019zm-7.769 14.045l3.123 1.621 9.541 -7.217c-0.321,-0.751 -0.651,-1.502 -0.981,-2.252l-11.673 7.858 -0.01 -0.01zm-1.532 -0.791l12.184 -9.25c0,0 -0.03,-0.06 -0.05,-0.09l-12.794 8.999 0.66 0.341zm-174.98 44.036l-11.893 6.137 3.214 2.262 8.399 -4.735 0.28 -3.664zm-20.172 -10.861l0.11 0.22 2.643 -1.502 0.03 0.06 9.331 -5.275 -12.855 6.667 0.11 0.2 0.631 -0.37zm20.512 6.126l-15.947 8.229 2.894 2.072 12.833 -7.237 0.22 -3.064zm0.401 -5.586l-20.743 10.722 1.332 0.941 19.351 -10.902 0.06 -0.761zm0.591 -8.208l-23.696 12.262 21.033 -11.832 -14.446 7.458 1.111 -0.62 -5.286 2.722 2.784 -1.561 -10.131 5.225 0 0.11 2.212 1.562 26.399 -14.836 0.02 -0.49zm-0.341 4.745l-17.789 9.189 17.849 -10.04 0.06 -0.681 -25.057 12.934 2.954 2.072 21.903 -12.343 0.08 -1.131zm-19.581 15.176l0.32 0.23 7.939 -4.485 -8.259 4.255zm1.992 1.421l0.541 -0.28 -0.571 0.25 0.03 0.03zm3.234 19.85l0 0zm9.02 -11.191l0.46 -0.26 -0.46 0.23 0 0.03zm2.132 1.502l1.301 -0.741 0.121 -1.642 -2.754 1.412 1.332 0.971zm-9.56 9.499l7.378 -4.164 -7.519 3.884 0.141 0.28zm10.471 -4.815l-9.911 5.146 0.811 0.05 9.1 -5.116 0 -0.08zm-0.201 2.633l-5.386 2.783 1.132 0.07 4.225 -2.373 0.029 -0.48zm-0.99 2.162l0.45 0.871 -0.09 0.05 0.41 0.03 0.11 -1.411 -0.88 0.46zm-13.455 -45.997l4.715 -2.673 -4.795 2.502 0.08 0.171zm11.993 -38.291c-0.14,-0.7 -0.27,-1.331 -0.4,-1.942l-1.352 0.701 1.752 1.241zm-4.335 -3.053l0.961 0.681 2.583 -1.462c-0.14,-0.651 -0.261,-1.261 -0.38,-1.832l-3.965 2.043 0.801 0.57zm-1.191 -0.851l4.224 -2.382c-0.02,-0.121 -0.05,-0.231 -0.07,-0.35l-4.614 2.382 0.46 0.35zm9.11 70.685l-4.735 2.432 1.011 1.922c2.279,0.199 1.439,0.377 3.473,-0.751l0.251 -3.603zm-3.654 4.484l-1.812 0.961 0.851 0.601 2.663 -1.492c-0.551,-0.05 -1.131,-0.1 -1.742,-0.14l0.04 0.07zm10.301 9.54c0.02,-0.351 0.03,-0.711 0.05,-1.082l-0.911 0.471 0.861 0.611zm-2.192 -1.572l0.14 0.11 2.182 -1.231c0,0 0,-0.02 0,-0.03l-2.322 1.151zm-14.556 -35.947l7.268 -4.114 -0.451 -0.321 -6.307 3.063 0.341 0.601 -0.991 0.511 0.14 0.26zm-0.451 -48.221l5.346 -3.003 -0.13 -0.701 -6.026 3.114 0.821 0.601 -0.011 -0.011zm-2.753 36.698l-12.233 6.297 -0.08 1.222 12.764 -7.208 -0.451 -0.311zm1.592 1.102l-13.965 7.237 -0.06 0.711 14.045 -7.918 -0.02 -0.03zm-13.344 -1.502l0 0.171 3.753 -2.103 -3.753 1.932zm-8.43 26.728l2.984 -1.701 -0.621 -0.431 -3.103 1.512c-0.06,0.33 -0.13,0.67 -0.19,1.001l0.881 -0.501 0.06 0.11 -0.011 0.01zm12.914 -7.007l19.271 -10.841 -0.881 -0.621 -7.748 4.004 0.29 0.531 -16.998 8.769 -0.09 1.341 6.046 -3.383 0.11 0.2zm-2.382 -24.716l1.141 -0.62 -2.613 -1.853 -0.09 0.06 -0.14 2.073 1.191 -0.681 0.511 1.021z"/>
   </g>
  </g>
  <path fill="none" d="M207.298 27.894c-0.11,-0.063 -0.222,-0.122 -0.337,-0.177 -4.975,-2.38 -9.714,-5.334 -14.858,-7.149 -4.647,-1.639 -11.454,-2.699 -17.288,-4.719 -2.277,-0.789 -4.556,-1.589 -6.82,-2.415l-0.004 -0.03 -9.999 -4.08 -0.175 -0.072c-0.614,-0.28 -1.553,-1.207 -2.512,-1.889 -0.494,-0.369 -0.613,-0.563 -1.038,-0.905 -2.856,-2.299 -5.606,-5.635 -9.574,-5.641 -0.901,-0.002 -1.04,-0.123 -1.779,-0.163l-7.601 -0.17c-5.892,-0.486 -12.055,-0.501 -18.06,-0.477 -5.087,0.02 -9.557,0.063 -14.567,0.477 -2.529,0.209 -4.996,0.029 -7.6,0.17 -0.739,0.04 -0.878,0.161 -1.779,0.163 -3.968,0.006 -6.718,3.342 -9.575,5.641 -0.424,0.342 -0.543,0.536 -1.037,0.905 -0.741,0.527 -1.471,1.2 -2.047,1.608 -0.17,0.121 -0.326,0.218 -0.465,0.281l-10.174 4.152 -0.003 0.03c-2.265,0.826 -4.544,1.626 -6.821,2.415 -5.834,2.02 -12.641,3.08 -17.288,4.719 -5.144,1.815 -9.883,4.769 -14.858,7.149 -0.212,0.101 -0.412,0.215 -0.605,0.339 -0.909,0.583 -1.664,1.379 -2.651,2.001 -11.263,7.099 -18.243,27.467 -21.401,39.215 -1.569,5.839 -1.98,12.983 -2.969,19.04 -0.5,3.067 -1.172,6.193 -1.752,9.253 -0.585,3.095 -0.872,6.493 -1.288,9.631 -0.406,0.268 -0.327,-0.023 -0.308,0.899l-0.065 1.854 0 8.783c0.041,1.018 0.102,1.813 0.186,2.164 1.125,0.477 3.706,0.514 5.07,0.712 7.662,1.114 9.041,0.828 15.791,1.554l21.547 1.349c-0.015,-1.623 0.547,-10.725 0.578,-13.424l-0.603 -0.316 -0.07 -0.036c0,-4.476 -0.011,-9.226 -0.011,-13.7 1.678,4.247 3.328,18.944 3.789,24.023 0.735,8.116 1.826,16.186 2.512,24.347 0.348,4.137 0.874,8.269 1.009,12.419l0.653 12.776c0.396,4.199 0.208,8.934 0.274,13.179 0.032,2.062 0.194,4.007 0.186,6.13 -0.007,2.226 -0.172,4.349 -0.196,6.512 -0.051,4.469 -0.054,8.634 -0.319,13.111 -0.68,11.475 -1.257,26.076 -3.267,37.02 -0.966,5.407 -2.177,11.944 -2.754,17.389 -0.258,2.432 -0.827,10.057 -1.468,11.951 -0.68,2.01 -0.163,3.658 -0.568,5.77 -0.342,1.785 -0.742,3.812 -1.164,5.568 -0.463,1.93 -1.435,3.647 0.397,4.966 4.276,1.054 8.552,2.108 13.913,3.017 5.36,0.909 11.804,1.672 18.03,2.048 6.226,0.375 12.232,0.363 21.568,0.476 9.335,0.112 21.999,0.351 32.523,0.382 10.525,0.032 18.909,-0.144 26.242,-0.419 7.333,-0.275 13.615,-0.65 19.058,-1.151 5.443,-0.501 10.048,-1.126 13.829,-1.873 3.78,-0.746 6.736,-1.613 9.693,-2.48 1.832,-1.319 0.86,-3.036 0.397,-4.966 -0.422,-1.756 -0.822,-3.783 -1.164,-5.568 -0.405,-2.112 0.112,-3.76 -0.568,-5.77 -0.641,-1.894 -1.21,-9.519 -1.468,-11.951 -0.577,-5.445 -1.788,-11.982 -2.754,-17.389 -2.01,-10.944 -2.587,-25.545 -3.267,-37.02 -0.265,-4.477 -0.268,-8.642 -0.319,-13.111 -0.024,-2.163 -0.189,-4.286 -0.196,-6.512 -0.008,-2.123 0.154,-4.068 0.186,-6.13 0.066,-4.245 -0.122,-8.98 0.274,-13.179l0.653 -12.776c0.135,-4.15 0.661,-8.282 1.009,-12.419 0.686,-8.161 1.777,-16.231 2.512,-24.347 0.461,-5.079 1.889,-19.043 3.568,-23.29 0,4.474 -0.105,8.584 -0.105,13.06l0 0 -0.416 0.247c-0.004,0.882 0.338,12.091 0.604,13.423l21.579 -1.336c6.75,-0.726 8.129,-0.44 15.791,-1.554 1.364,-0.198 3.945,-0.235 5.07,-0.712 0.084,-0.351 0.145,-1.146 0.186,-2.164l0 -8.783 -0.065 -1.854c0.014,-0.687 0.062,-0.7 -0.083,-0.774 -0.05,-0.025 -0.122,-0.057 -0.225,-0.125 -0.416,-3.138 -0.703,-6.536 -1.288,-9.631 -0.58,-3.06 -1.252,-6.186 -1.752,-9.253 -0.989,-6.057 -1.4,-13.201 -2.969,-19.04 -3.158,-11.748 -10.138,-32.116 -21.401,-39.215 -1.057,-0.665 -1.895,-1.576 -2.919,-2.163z"/>
 </g>
</svg>
