<?xml version="1.0" encoding="UTF-8"?>
<!DOCTYPE svg PUBLIC "-//W3C//DTD SVG 1.1//EN" "http://www.w3.org/Graphics/SVG/1.1/DTD/svg11.dtd">
<!-- Creator: CorelDRAW -->
<svg xmlns="http://www.w3.org/2000/svg" xml:space="preserve" width="181px" height="149px" version="1.1" shape-rendering="geometricPrecision" text-rendering="geometricPrecision" image-rendering="optimizeQuality" fill-rule="evenodd" clip-rule="evenodd"
viewBox="0 0 205.498 169.387"
 xmlns:xlink="http://www.w3.org/1999/xlink"
 xmlns:xodm="http://www.corel.com/coreldraw/odm/2003">
 <defs>
   <clipPath id="id0">
    <path d="M91.234 163.341c0.06,-0.29 0.117,-0.718 0.209,-2.252 0.091,-1.534 0.216,-4.174 0.518,-9.369 0.303,-5.195 0.782,-12.944 1.164,-18.604 0.382,-5.659 0.667,-9.229 1.038,-13.175 0.37,-3.946 0.826,-8.268 1.397,-12.773 0.57,-4.505 1.254,-9.192 2.132,-14.518 0.879,-5.326 1.95,-11.291 2.766,-15.197 0.815,-3.906 1.374,-5.753 1.733,-6.921 0.358,-1.167 0.516,-1.655 0.64,-1.921 0.123,-0.267 0.212,-0.313 0.296,-0.305 0.084,0.008 0.164,0.069 0.266,0.183 0.103,0.113 0.228,0.278 0.391,0.627 0.163,0.349 0.362,0.88 0.684,1.602 0.321,0.721 0.764,1.632 1.146,2.525 0.381,0.893 0.7,1.768 0.836,2.443 0.135,0.674 0.087,1.147 0.127,1.679 0.04,0.532 0.168,1.122 0.504,1.619 0.337,0.498 0.881,0.903 1.195,1.44 0.314,0.538 0.396,1.208 0.602,2.158 0.205,0.951 0.533,2.183 0.646,3.113 0.112,0.929 0.009,1.556 -0.098,2.148 -0.106,0.591 -0.218,1.148 -0.101,1.705 0.117,0.557 0.462,1.116 0.865,1.635 0.404,0.519 0.866,0.998 1.149,1.313 0.284,0.315 0.39,0.466 0.491,0.609 0.101,0.142 0.198,0.276 0.351,0.879 0.152,0.603 0.36,1.675 0.439,2.419 0.078,0.745 0.027,1.161 -0.003,1.576 -0.03,0.415 -0.039,0.828 -0.073,1.354 -0.034,0.526 -0.094,1.165 -0.085,1.751 0.008,0.586 0.085,1.119 0.46,1.91 0.375,0.791 1.048,1.84 1.685,2.689 0.637,0.848 1.239,1.495 1.643,1.902 0.404,0.407 0.611,0.574 0.797,0.87 0.186,0.296 0.351,0.72 0.488,1.263 0.137,0.544 0.246,1.205 0.304,1.972 0.058,0.767 0.067,1.64 0.054,2.608 -0.013,0.968 -0.047,2.031 0.15,2.999 0.197,0.968 0.624,1.84 1.101,2.577 0.476,0.738 1,1.339 1.389,1.826 0.39,0.488 0.644,0.862 0.856,1.23 0.213,0.367 0.384,0.729 0.555,1.154 0.171,0.425 0.342,0.913 0.472,1.479 0.13,0.566 0.218,1.21 0.339,1.795 0.121,0.584 0.275,1.108 0.375,1.699 0.1,0.59 0.145,1.246 0.32,2.204 0.174,0.958 0.476,2.218 0.678,3.273 0.203,1.055 0.305,1.904 0.416,2.657 0.112,0.753 0.231,1.409 0.325,2.284 0.094,0.875 0.163,1.97 0.294,2.774 0.131,0.804 0.325,1.317 0.465,2.09 0.14,0.772 0.225,1.805 0.299,2.412 0.074,0.607 0.137,0.79 0.288,0.952 0.104,0.112 0.251,0.215 0.437,0.32 -0.079,-0.368 -0.154,-0.732 -0.127,-0.999 0.028,-0.278 0.168,-0.45 0.332,-0.556 0.164,-0.105 0.352,-0.145 0.75,-0.063 0.398,0.082 1.007,0.284 1.729,0.399 0.723,0.115 1.56,0.144 2.868,0.151 1.309,0.007 3.089,-0.007 5.568,-0.327 2.479,-0.319 5.657,-0.943 8.788,-1.599 3.132,-0.656 6.217,-1.344 9.657,-2.107 3.44,-0.762 7.234,-1.599 10.248,-2.124 3.014,-0.525 5.249,-0.737 8.16,-0.854 2.912,-0.118 6.502,-0.139 10.137,0.024 3.635,0.163 7.316,0.511 9.976,0.862 2.66,0.351 4.298,0.706 5.688,1.227 1.391,0.522 2.533,1.21 3.226,1.734 0.693,0.524 0.938,0.884 1.054,1.193 0.116,0.309 0.104,0.568 -0.007,0.887 -0.11,0.319 -0.318,0.698 -0.526,1.077 0.192,-0.063 0.354,-0.202 0.566,-0.399 0.232,-0.218 0.523,-0.509 0.64,-0.957 0.116,-0.447 0.059,-1.052 0.065,-2.577 0.006,-1.525 0.074,-3.972 0.052,-6.694 -0.023,-2.724 -0.137,-5.723 -0.194,-7.553 -0.057,-1.831 -0.057,-2.492 -0.057,-3.427 0,-0.936 0,-2.144 -0.029,-3.276 -0.028,-1.132 -0.085,-2.187 -0.111,-3.279 -0.025,-1.092 -0.02,-2.221 -0.091,-4.009 -0.072,-1.787 -0.22,-4.234 -0.3,-6.212 -0.079,-1.979 -0.091,-3.49 -0.231,-7.51 -0.139,-4.02 -0.407,-10.55 -0.929,-16.996 -0.522,-6.446 -1.297,-12.81 -2.278,-18.854 -0.981,-6.045 -2.167,-11.77 -3.341,-17.21 -1.175,-5.44 -2.338,-10.594 -3.867,-15.864 -1.528,-5.268 -3.421,-10.651 -5.246,-15.498 -1.824,-4.847 -3.581,-9.158 -4.618,-11.657 -1.038,-2.499 -1.357,-3.186 -1.494,-3.631 -0.137,-0.445 -0.092,-0.647 0.009,-0.803 0.102,-0.155 0.258,-0.263 0.386,-0.349 0.014,-0.01 0.028,-0.019 0.041,-0.029 -0.042,-0.002 -0.088,-0.005 -0.144,-0.008 -0.105,-0.005 -0.243,-0.013 -0.693,-0.048 -0.449,-0.035 -1.21,-0.098 -2.217,-0.107 -1.008,-0.008 -2.262,0.038 -3.577,0.132 -1.316,0.095 -2.692,0.24 -4.839,0.609 -2.148,0.368 -5.068,0.962 -7.478,1.498 -2.41,0.535 -4.311,1.014 -6.805,1.509 -2.494,0.494 -5.581,1.003 -8.679,1.418 -3.098,0.414 -6.208,0.733 -9.971,1.076 -3.764,0.341 -8.181,0.707 -11.872,0.965 -3.692,0.259 -6.657,0.41 -9.367,0.559 -2.711,0.148 -5.167,0.292 -7.957,0.403 -2.79,0.11 -5.915,0.186 -9.017,0.251 -3.102,0.064 -6.181,0.117 -9.116,0.11 -2.935,-0.008 -5.725,-0.076 -8.341,-0.137 -2.615,-0.061 -5.056,-0.114 -7.698,-0.194 -2.642,-0.08 -5.486,-0.186 -8.975,-0.285 -3.49,-0.099 -7.626,-0.19 -12.01,-0.217 -4.383,-0.026 -9.013,0.012 -12.845,0.008 -3.832,-0.004 -6.865,-0.049 -10.876,-0.205 -4.011,-0.156 -8.998,-0.422 -12.585,-0.69 -3.587,-0.268 -5.773,-0.538 -7.362,-0.856 -1.59,-0.318 -2.583,-0.683 -3.577,-1.049 0.044,0.064 0.021,0.188 -0.027,0.625 -0.062,0.551 -0.164,1.597 -0.449,3.521 -0.286,1.925 -0.753,4.728 -1.058,6.779 -0.305,2.052 -0.448,3.352 -0.79,5.493 -0.342,2.141 -0.884,5.124 -1.32,7.752 -0.436,2.629 -0.767,4.904 -1.029,6.823 -0.263,1.919 -0.457,3.481 -0.636,5.294 -0.18,1.814 -0.345,3.878 -0.525,6.376 -0.18,2.497 -0.373,5.428 -0.567,8.701 -0.194,3.273 -0.388,6.888 -0.53,10.743 -0.143,3.855 -0.234,7.949 -0.206,12.14 0.029,4.192 0.177,8.48 0.468,12.648 0.291,4.169 0.724,8.217 1.009,11.855 0.285,3.638 0.422,6.865 0.485,10.435 0.063,3.57 0.051,7.481 0.091,11.969 0.04,4.488 0.131,9.552 0.223,13.777 0.091,4.225 0.182,7.612 0.266,9.945 0.084,2.332 0.162,3.609 0.193,4.373 0.031,0.764 0.017,1.015 0.027,2.23 0.01,1.214 0.044,3.393 0.078,4.946 0.035,1.554 0.069,2.484 0.137,3.037 0.068,0.553 0.171,0.73 0.482,1.055 0.311,0.325 0.83,0.798 2.632,1.177 1.802,0.38 4.886,0.665 7.829,0.918 2.942,0.254 5.742,0.476 10.492,0.73 4.75,0.254 11.451,0.539 16.4,0.753 4.95,0.214 8.149,0.356 10.954,0.382 2.806,0.026 5.218,-0.066 7.656,-0.143 2.438,-0.077 4.901,-0.139 7.25,-0.216 2.35,-0.077 4.585,-0.168 7.735,-0.565 3.151,-0.396 7.217,-1.098 9.757,-1.616 2.54,-0.519 3.556,-0.856 4.448,-1.309 0.892,-0.453 1.662,-1.024 2.078,-1.386 0.417,-0.362 0.479,-0.516 0.539,-0.807z"/>
   </clipPath>
    <clipPath id="id1">
     <path d="M126.868 7.208c-3.692,0.259 -6.657,0.41 -9.367,0.559 -2.711,0.148 -5.167,0.292 -7.957,0.403 -2.79,0.11 -5.915,0.186 -9.017,0.251l-0.168 0.003 -0.203 0.004 -0.658 0.014 -0.07 0.001 -0.359 0.007 -0.209 0.004 -0.131 0.003 -0.253 0.004 -0.26 0.005 -0.531 0.009 -0.079 0.002 -0.276 0.004 -0.23 0.004 -0.357 0.006 -0.115 0.002 -0.088 0.001 -0.101 0.001 -0.118 0.002 -0.783 0.01 -0.066 0.001c0.077,0.533 0.157,1.09 0.241,1.678 0.521,3.612 1.205,8.363 1.612,11.976 0.408,3.612 0.539,6.086 1.088,9.846 0.549,3.758 1.516,8.803 2.362,13.439 0.846,4.636 1.571,8.864 2.128,11.482 0.557,2.618 0.946,3.625 1.265,4.398 0.319,0.772 0.568,1.31 0.72,1.7 0.152,0.39 0.206,0.631 0.184,0.807 -0.021,0.175 -0.12,0.285 -0.256,0.446 -0.135,0.161 -0.307,0.373 -0.481,0.599 -0.173,0.226 -0.349,0.466 -0.581,1.057 -0.233,0.592 -0.523,1.535 -0.813,2.478l0.001 -0.001c0.014,-0.019 0.028,-0.034 0.041,-0.047l0.006 -0.006 0.009 -0.009 0.004 -0.004 0.005 -0.003 0.011 -0.008 0.001 -0.001 0.023 -0.014 0.005 -0.002 0.001 -0.001 0.01 -0.004 0.022 -0.006 0.001 0 0.004 0 0.003 -0.001 0.005 -0.001 0.007 0 0.002 0 0.005 -0.001 0.004 0 0.005 0.001 0.003 0 0.004 0 0.004 0c0.084,0.008 0.164,0.069 0.266,0.183 0.103,0.113 0.228,0.278 0.391,0.627 0.163,0.349 0.362,0.88 0.684,1.602 0.321,0.721 0.764,1.632 1.146,2.525 0.381,0.893 0.7,1.768 0.836,2.443 0.135,0.674 0.087,1.147 0.127,1.679 0.04,0.532 0.168,1.122 0.504,1.619 0.337,0.498 0.881,0.903 1.195,1.44 0.314,0.538 0.396,1.208 0.602,2.158 0.205,0.951 0.533,2.183 0.646,3.113 0.112,0.929 0.009,1.556 -0.098,2.148 -0.106,0.591 -0.218,1.148 -0.101,1.705 0.117,0.557 0.462,1.116 0.865,1.635 0.404,0.519 0.866,0.998 1.149,1.313 0.284,0.315 0.39,0.466 0.491,0.609 0.101,0.142 0.198,0.276 0.351,0.879 0.152,0.603 0.36,1.675 0.439,2.419 0.078,0.745 0.027,1.161 -0.003,1.576 -0.03,0.415 -0.039,0.828 -0.073,1.354 -0.034,0.526 -0.094,1.165 -0.085,1.751 0.008,0.586 0.085,1.119 0.46,1.91 0.375,0.791 1.048,1.84 1.685,2.689 0.637,0.848 1.239,1.495 1.643,1.902 0.404,0.407 0.611,0.574 0.797,0.87 0.186,0.296 0.351,0.72 0.488,1.263 0.137,0.544 0.246,1.205 0.304,1.972 0.058,0.767 0.067,1.64 0.054,2.608 -0.013,0.968 -0.047,2.031 0.15,2.999 0.197,0.968 0.624,1.84 1.101,2.577 0.476,0.738 1,1.339 1.389,1.826 0.39,0.488 0.644,0.862 0.856,1.23 0.213,0.367 0.384,0.729 0.555,1.154 0.171,0.425 0.342,0.913 0.472,1.479 0.13,0.566 0.218,1.21 0.339,1.795 0.121,0.584 0.275,1.108 0.375,1.699 0.1,0.59 0.145,1.246 0.32,2.204 0.174,0.958 0.476,2.218 0.678,3.273 0.203,1.055 0.305,1.904 0.416,2.657 0.112,0.753 0.231,1.409 0.325,2.284 0.094,0.875 0.163,1.97 0.294,2.774 0.131,0.804 0.325,1.317 0.465,2.09 0.14,0.772 0.225,1.805 0.299,2.412 0.074,0.607 0.137,0.79 0.288,0.952l0.005 0.005 0.005 0.006 0.005 0.005 0.01 0.01 0.006 0.005 0.015 0.016 0.012 0.01 0.005 0.005 0.006 0.005 0.005 0.006 0.006 0.005 0.012 0.01 0.012 0.01 0.006 0.005 0.006 0.005 0.013 0.01 0.006 0.005 0.019 0.015 0.007 0.005 0.007 0.005 0.02 0.015 0.007 0.005 0.007 0.005 0.028 0.02 0.014 0.009 0.008 0.005 0.015 0.01 0.015 0.01 0.015 0.01 0.008 0.005 0.016 0.009 0.008 0.005 0.008 0.005 0.016 0.01 0.016 0.01 0.025 0.014 0.009 0.006 0.008 0.004 0.009 0.005 0.009 0.005 0.008 0.005c-0.079,-0.368 -0.154,-0.732 -0.127,-0.999 0.028,-0.278 0.168,-0.45 0.332,-0.556 0.164,-0.105 0.352,-0.145 0.75,-0.063 0.398,0.082 1.007,0.284 1.729,0.399 0.723,0.115 1.56,0.144 2.868,0.151 1.309,0.007 3.089,-0.007 5.568,-0.327 2.479,-0.319 5.657,-0.943 8.788,-1.599 3.132,-0.656 6.217,-1.344 9.657,-2.107 3.44,-0.762 7.234,-1.599 10.248,-2.124 3.014,-0.525 5.249,-0.737 8.16,-0.854 2.912,-0.118 6.502,-0.139 10.137,0.024 3.635,0.163 7.316,0.511 9.976,0.862 2.66,0.351 4.298,0.706 5.688,1.227 1.391,0.522 2.533,1.21 3.226,1.734 0.693,0.524 0.938,0.884 1.054,1.193 0.116,0.309 0.104,0.568 -0.007,0.887l-0.005 0.015 -0.011 0.031 -0.006 0.015 -0.011 0.031 -0.012 0.03 -0.02 0.048 -0.006 0.015 -0.014 0.033 -0.014 0.032 -0.008 0.016 -0.022 0.049 -0.015 0.033 -0.008 0.017 -0.032 0.067 -0.008 0.016 -0.026 0.051 -0.017 0.034 -0.017 0.035 -0.018 0.034 -0.055 0.104c-0.064,0.123 -0.132,0.246 -0.201,0.371l0.036 -0.012 0.026 -0.011 0.017 -0.008 0.026 -0.012 0.026 -0.013 0.009 -0.005 0.025 -0.014 0.025 -0.016 0.017 -0.01 0.026 -0.018c0.059,-0.04 0.119,-0.088 0.182,-0.143l0.092 -0.083 0.039 -0.036 0.01 -0.009 0.01 -0.009c0.232,-0.218 0.523,-0.509 0.64,-0.957 0.116,-0.447 0.059,-1.052 0.065,-2.577 0.006,-1.525 0.074,-3.972 0.052,-6.694 -0.023,-2.724 -0.137,-5.723 -0.194,-7.553 -0.057,-1.831 -0.057,-2.492 -0.057,-3.427 0,-0.936 0,-2.144 -0.029,-3.276 -0.028,-1.132 -0.085,-2.187 -0.111,-3.279 -0.025,-1.092 -0.02,-2.221 -0.091,-4.009 -0.072,-1.787 -0.22,-4.234 -0.3,-6.212 -0.079,-1.979 -0.091,-3.49 -0.231,-7.51 -0.139,-4.02 -0.407,-10.55 -0.929,-16.996 -0.522,-6.446 -1.297,-12.81 -2.278,-18.854 -0.981,-6.045 -2.167,-11.77 -3.341,-17.21 -1.175,-5.44 -2.338,-10.594 -3.867,-15.864 -1.528,-5.268 -3.421,-10.651 -5.246,-15.498 -1.824,-4.847 -3.581,-9.158 -4.618,-11.657 -1.038,-2.499 -1.357,-3.186 -1.494,-3.631 -0.137,-0.445 -0.092,-0.647 0.009,-0.803 0.102,-0.155 0.258,-0.263 0.386,-0.349 0.014,-0.01 0.028,-0.019 0.041,-0.029 -0.042,-0.002 -0.088,-0.005 -0.144,-0.008 -0.105,-0.005 -0.243,-0.013 -0.693,-0.048 -0.449,-0.035 -1.21,-0.098 -2.217,-0.107 -1.008,-0.008 -2.262,0.038 -3.577,0.132 -1.316,0.095 -2.692,0.24 -4.839,0.609 -2.148,0.368 -5.068,0.962 -7.478,1.498 -2.41,0.535 -4.311,1.014 -6.805,1.509 -2.494,0.494 -5.581,1.003 -8.679,1.418 -3.098,0.414 -6.208,0.733 -9.971,1.076 -3.764,0.341 -8.181,0.707 -11.872,0.965z"/>
    </clipPath>
    <clipPath id="id2">
     <path d="M91.234 163.341c0.06,-0.29 0.117,-0.718 0.209,-2.252 0.091,-1.534 0.216,-4.174 0.518,-9.369 0.303,-5.195 0.782,-12.944 1.164,-18.604 0.382,-5.659 0.667,-9.229 1.038,-13.175 0.37,-3.946 0.826,-8.268 1.397,-12.773 0.57,-4.505 1.254,-9.192 2.132,-14.518 0.879,-5.326 1.95,-11.291 2.766,-15.197 0.815,-3.906 1.374,-5.753 1.733,-6.921 0.358,-1.167 0.516,-1.655 0.64,-1.921 0.123,-0.267 0.212,-0.313 0.296,-0.305 0.084,0.008 0.164,0.069 0.266,0.183 0.103,0.113 0.228,0.278 0.391,0.627 0.163,0.349 0.362,0.88 0.684,1.602 0.321,0.721 0.764,1.632 1.146,2.525 0.381,0.893 0.7,1.768 0.836,2.443 0.135,0.674 0.087,1.147 0.127,1.679 0.04,0.532 0.168,1.122 0.504,1.619 0.337,0.498 0.881,0.903 1.195,1.44 0.314,0.538 0.396,1.208 0.602,2.158 0.205,0.951 0.533,2.183 0.646,3.113 0.112,0.929 0.009,1.556 -0.098,2.148 -0.106,0.591 -0.218,1.148 -0.101,1.705 0.117,0.557 0.462,1.116 0.865,1.635 0.404,0.519 0.866,0.998 1.149,1.313 0.284,0.315 0.39,0.466 0.491,0.609 0.101,0.142 0.198,0.276 0.351,0.879 0.152,0.603 0.36,1.675 0.439,2.419 0.078,0.745 0.027,1.161 -0.003,1.576 -0.03,0.415 -0.039,0.828 -0.073,1.354 -0.034,0.526 -0.094,1.165 -0.085,1.751 0.008,0.586 0.085,1.119 0.46,1.91 0.375,0.791 1.048,1.84 1.685,2.689 0.637,0.848 1.239,1.495 1.643,1.902 0.404,0.407 0.611,0.574 0.797,0.87 0.186,0.296 0.351,0.72 0.488,1.263 0.137,0.544 0.246,1.205 0.304,1.972 0.058,0.767 0.067,1.64 0.054,2.608 -0.013,0.968 -0.047,2.031 0.15,2.999 0.197,0.968 0.624,1.84 1.101,2.577 0.476,0.738 1,1.339 1.389,1.826 0.39,0.488 0.644,0.862 0.856,1.23 0.213,0.367 0.384,0.729 0.555,1.154 0.171,0.425 0.342,0.913 0.472,1.479 0.13,0.566 0.218,1.21 0.339,1.795 0.121,0.584 0.275,1.108 0.375,1.699 0.1,0.59 0.145,1.246 0.32,2.204 0.174,0.958 0.476,2.218 0.678,3.273 0.203,1.055 0.305,1.904 0.416,2.657 0.112,0.753 0.231,1.409 0.325,2.284 0.094,0.875 0.163,1.97 0.294,2.774 0.131,0.804 0.325,1.317 0.465,2.09 0.14,0.772 0.225,1.805 0.299,2.412 0.074,0.607 0.137,0.79 0.288,0.952 0.104,0.112 0.251,0.215 0.437,0.32 -0.079,-0.368 -0.154,-0.732 -0.127,-0.999 0.028,-0.278 0.168,-0.45 0.332,-0.556 0.164,-0.105 0.352,-0.145 0.75,-0.063 0.398,0.082 1.007,0.284 1.729,0.399 0.723,0.115 1.56,0.144 2.868,0.151 1.309,0.007 3.089,-0.007 5.568,-0.327 2.479,-0.319 5.657,-0.943 8.788,-1.599 3.132,-0.656 6.217,-1.344 9.657,-2.107 3.44,-0.762 7.234,-1.599 10.248,-2.124 3.014,-0.525 5.249,-0.737 8.16,-0.854 2.912,-0.118 6.502,-0.139 10.137,0.024 3.635,0.163 7.316,0.511 9.976,0.862 2.66,0.351 4.298,0.706 5.688,1.227 1.391,0.522 2.533,1.21 3.226,1.734 0.693,0.524 0.938,0.884 1.054,1.193 0.116,0.309 0.104,0.568 -0.007,0.887 -0.11,0.319 -0.318,0.698 -0.526,1.077 0.192,-0.063 0.354,-0.202 0.566,-0.399 0.232,-0.218 0.523,-0.509 0.64,-0.957 0.116,-0.447 0.059,-1.052 0.065,-2.577 0.006,-1.525 0.074,-3.972 0.052,-6.694 -0.023,-2.724 -0.137,-5.723 -0.194,-7.553 -0.057,-1.831 -0.057,-2.492 -0.057,-3.427 0,-0.936 0,-2.144 -0.029,-3.276 -0.028,-1.132 -0.085,-2.187 -0.111,-3.279 -0.025,-1.092 -0.02,-2.221 -0.091,-4.009 -0.072,-1.787 -0.22,-4.234 -0.3,-6.212 -0.079,-1.979 -0.091,-3.49 -0.231,-7.51 -0.139,-4.02 -0.407,-10.55 -0.929,-16.996 -0.522,-6.446 -1.297,-12.81 -2.278,-18.854 -0.981,-6.045 -2.167,-11.77 -3.341,-17.21 -1.175,-5.44 -2.338,-10.594 -3.867,-15.864 -1.528,-5.268 -3.421,-10.651 -5.246,-15.498 -1.824,-4.847 -3.581,-9.158 -4.618,-11.657 -1.038,-2.499 -1.357,-3.186 -1.494,-3.631 -0.137,-0.445 -0.092,-0.647 0.009,-0.803 0.102,-0.155 0.258,-0.263 0.386,-0.349 0.014,-0.01 0.028,-0.019 0.041,-0.029 -0.042,-0.002 -0.088,-0.005 -0.144,-0.008 -0.105,-0.005 -0.243,-0.013 -0.693,-0.048 -0.449,-0.035 -1.21,-0.098 -2.217,-0.107 -1.008,-0.008 -2.262,0.038 -3.577,0.132 -1.316,0.095 -2.692,0.24 -4.839,0.609 -2.148,0.368 -5.068,0.962 -7.478,1.498 -2.41,0.535 -4.311,1.014 -6.805,1.509 -2.494,0.494 -5.581,1.003 -8.679,1.418 -3.098,0.414 -6.208,0.733 -9.971,1.076 -3.764,0.341 -8.181,0.707 -11.872,0.965 -3.692,0.259 -6.657,0.41 -9.367,0.559 -2.711,0.148 -5.167,0.292 -7.957,0.403 -2.79,0.11 -5.915,0.186 -9.017,0.251 -3.102,0.064 -6.181,0.117 -9.116,0.11 -2.935,-0.008 -5.725,-0.076 -8.341,-0.137 -2.615,-0.061 -5.056,-0.114 -7.698,-0.194 -2.642,-0.08 -5.486,-0.186 -8.975,-0.285 -3.49,-0.099 -7.626,-0.19 -12.01,-0.217 -4.383,-0.026 -9.013,0.012 -12.845,0.008 -3.832,-0.004 -6.865,-0.049 -10.876,-0.205 -4.011,-0.156 -8.998,-0.422 -12.585,-0.69 -3.587,-0.268 -5.773,-0.538 -7.362,-0.856 -1.59,-0.318 -2.583,-0.683 -3.577,-1.049 0.044,0.064 0.021,0.188 -0.027,0.625 -0.062,0.551 -0.164,1.597 -0.449,3.521 -0.286,1.925 -0.753,4.728 -1.058,6.779 -0.305,2.052 -0.448,3.352 -0.79,5.493 -0.342,2.141 -0.884,5.124 -1.32,7.752 -0.436,2.629 -0.767,4.904 -1.029,6.823 -0.263,1.919 -0.457,3.481 -0.636,5.294 -0.18,1.814 -0.345,3.878 -0.525,6.376 -0.18,2.497 -0.373,5.428 -0.567,8.701 -0.194,3.273 -0.388,6.888 -0.53,10.743 -0.143,3.855 -0.234,7.949 -0.206,12.14 0.029,4.192 0.177,8.48 0.468,12.648 0.291,4.169 0.724,8.217 1.009,11.855 0.285,3.638 0.422,6.865 0.485,10.435 0.063,3.57 0.051,7.481 0.091,11.969 0.04,4.488 0.131,9.552 0.223,13.777 0.091,4.225 0.182,7.612 0.266,9.945 0.084,2.332 0.162,3.609 0.193,4.373 0.031,0.764 0.017,1.015 0.027,2.23 0.01,1.214 0.044,3.393 0.078,4.946 0.035,1.554 0.069,2.484 0.137,3.037 0.068,0.553 0.171,0.73 0.482,1.055 0.311,0.325 0.83,0.798 2.632,1.177 1.802,0.38 4.886,0.665 7.829,0.918 2.942,0.254 5.742,0.476 10.492,0.73 4.75,0.254 11.451,0.539 16.4,0.753 4.95,0.214 8.149,0.356 10.954,0.382 2.806,0.026 5.218,-0.066 7.656,-0.143 2.438,-0.077 4.901,-0.139 7.25,-0.216 2.35,-0.077 4.585,-0.168 7.735,-0.565 3.151,-0.396 7.217,-1.098 9.757,-1.616 2.54,-0.519 3.556,-0.856 4.448,-1.309 0.892,-0.453 1.662,-1.024 2.078,-1.386 0.417,-0.362 0.479,-0.516 0.539,-0.807z"/>
    </clipPath>
    <clipPath id="id3">
     <path d="M66.397 7.915c-3.49,-0.099 -7.626,-0.19 -12.01,-0.217 -4.383,-0.026 -9.013,0.012 -12.845,0.008 -3.832,-0.004 -6.865,-0.049 -10.876,-0.205 -4.011,-0.156 -8.998,-0.422 -12.585,-0.69 -3.587,-0.268 -5.773,-0.538 -7.362,-0.856 -1.59,-0.318 -2.583,-0.683 -3.577,-1.049 0.044,0.064 0.021,0.188 -0.027,0.625 -0.062,0.551 -0.164,1.597 -0.449,3.521 -0.286,1.925 -0.753,4.728 -1.058,6.779 -0.305,2.052 -0.448,3.352 -0.79,5.493 -0.342,2.141 -0.884,5.124 -1.32,7.752 -0.436,2.629 -0.767,4.904 -1.029,6.823 -0.263,1.919 -0.457,3.481 -0.636,5.294 -0.18,1.814 -0.345,3.878 -0.525,6.376 -0.18,2.497 -0.373,5.428 -0.567,8.701 -0.194,3.273 -0.388,6.888 -0.53,10.743 -0.143,3.855 -0.234,7.949 -0.206,12.14 0.029,4.192 0.177,8.48 0.468,12.648 0.291,4.169 0.724,8.217 1.009,11.855 0.285,3.638 0.422,6.865 0.485,10.435 0.063,3.57 0.051,7.481 0.091,11.969 0.04,4.488 0.131,9.552 0.223,13.777 0.091,4.225 0.182,7.612 0.266,9.945 0.084,2.332 0.162,3.609 0.193,4.373 0.031,0.764 0.017,1.015 0.027,2.23 0.01,1.214 0.044,3.393 0.078,4.946 0.035,1.554 0.069,2.484 0.137,3.037 0.068,0.553 0.171,0.73 0.482,1.055 0.311,0.325 0.83,0.798 2.632,1.177 1.802,0.38 4.886,0.665 7.829,0.918 2.942,0.254 5.742,0.476 10.492,0.73 4.75,0.254 11.451,0.539 16.4,0.753 4.95,0.214 8.149,0.356 10.954,0.382 2.806,0.026 5.218,-0.066 7.656,-0.143 2.438,-0.077 4.901,-0.139 7.25,-0.216 2.35,-0.077 4.585,-0.168 7.735,-0.565 3.151,-0.396 7.217,-1.098 9.757,-1.616 2.54,-0.519 3.556,-0.856 4.448,-1.309 0.892,-0.453 1.662,-1.024 2.078,-1.386 0.417,-0.362 0.479,-0.516 0.539,-0.807 0.06,-0.29 0.117,-0.718 0.209,-2.252 0.091,-1.534 0.216,-4.174 0.518,-9.369 0.303,-5.195 0.782,-12.944 1.164,-18.604 0.382,-5.659 0.667,-9.229 1.038,-13.175 0.37,-3.946 0.826,-8.268 1.397,-12.773 0.57,-4.505 1.254,-9.192 2.132,-14.518 0.879,-5.326 1.95,-11.291 2.766,-15.197 0.815,-3.906 1.374,-5.753 1.733,-6.921 0.358,-1.167 0.516,-1.655 0.64,-1.921l0.003 -0.007 0.001 -0.002 0.008 -0.016 0.002 -0.005 0.003 -0.006 0.003 -0.005 0.002 -0.006 0.002 -0.004 0.004 -0.007 0.003 -0.005 0.002 -0.005 0 -0.001 0.003 -0.005 0.001 -0.002 0.002 -0.004 0.002 -0.003 0.002 -0.005 0.002 -0.002 0.001 -0.002 0.007 -0.013 0.002 -0.005 0.002 -0.003 0.002 -0.004 0.003 -0.005 0.011 -0.018 0 -0.001 0.003 -0.004 0.007 -0.011 0.006 -0.01 0.018 -0.026 0.003 -0.005c0.29,-0.943 0.58,-1.886 0.813,-2.478 0.232,-0.591 0.408,-0.831 0.581,-1.057 0.174,-0.226 0.346,-0.438 0.481,-0.599 0.136,-0.161 0.235,-0.271 0.256,-0.446 0.022,-0.176 -0.032,-0.417 -0.184,-0.807 -0.152,-0.39 -0.401,-0.928 -0.72,-1.7 -0.319,-0.773 -0.708,-1.78 -1.265,-4.398 -0.557,-2.618 -1.282,-6.846 -2.128,-11.482 -0.846,-4.636 -1.813,-9.681 -2.362,-13.439 -0.549,-3.76 -0.68,-6.234 -1.088,-9.846 -0.407,-3.613 -1.091,-8.364 -1.612,-11.976 -0.084,-0.588 -0.164,-1.145 -0.241,-1.678l-0.105 0.002 -0.092 0.001 -0.082 0.001 -0.164 0.002 -0.186 0.002 -0.056 0 -0.048 0.001 -0.206 0.002 -0.132 0.001 -0.185 0.002 -0.15 0.001 -0.008 0 -0.096 0.001 -0.083 0 -0.016 0 -0.162 0.001 -0.036 0 -0.142 0.001 -0.854 0.005 -0.012 0 -0.103 0 -0.036 0 -0.079 0 -0.06 0 -0.155 0.001 -0.502 0 -0.174 -0.001 -0.024 0 -0.113 0c-2.935,-0.008 -5.725,-0.076 -8.341,-0.137 -2.615,-0.061 -5.056,-0.114 -7.698,-0.194 -2.642,-0.08 -5.486,-0.186 -8.975,-0.285z"/>
    </clipPath>
    <clipPath id="id4">
     <path d="M91.234 163.341c0.06,-0.29 0.117,-0.718 0.209,-2.252 0.091,-1.534 0.216,-4.174 0.518,-9.369 0.303,-5.195 0.782,-12.944 1.164,-18.604 0.382,-5.659 0.667,-9.229 1.038,-13.175 0.37,-3.946 0.826,-8.268 1.397,-12.773 0.57,-4.505 1.254,-9.192 2.132,-14.518 0.879,-5.326 1.95,-11.291 2.766,-15.197 0.815,-3.906 1.374,-5.753 1.733,-6.921 0.358,-1.167 0.516,-1.655 0.64,-1.921 0.123,-0.267 0.212,-0.313 0.296,-0.305 0.084,0.008 0.164,0.069 0.266,0.183 0.103,0.113 0.228,0.278 0.391,0.627 0.163,0.349 0.362,0.88 0.684,1.602 0.321,0.721 0.764,1.632 1.146,2.525 0.381,0.893 0.7,1.768 0.836,2.443 0.135,0.674 0.087,1.147 0.127,1.679 0.04,0.532 0.168,1.122 0.504,1.619 0.337,0.498 0.881,0.903 1.195,1.44 0.314,0.538 0.396,1.208 0.602,2.158 0.205,0.951 0.533,2.183 0.646,3.113 0.112,0.929 0.009,1.556 -0.098,2.148 -0.106,0.591 -0.218,1.148 -0.101,1.705 0.117,0.557 0.462,1.116 0.865,1.635 0.404,0.519 0.866,0.998 1.149,1.313 0.284,0.315 0.39,0.466 0.491,0.609 0.101,0.142 0.198,0.276 0.351,0.879 0.152,0.603 0.36,1.675 0.439,2.419 0.078,0.745 0.027,1.161 -0.003,1.576 -0.03,0.415 -0.039,0.828 -0.073,1.354 -0.034,0.526 -0.094,1.165 -0.085,1.751 0.008,0.586 0.085,1.119 0.46,1.91 0.375,0.791 1.048,1.84 1.685,2.689 0.637,0.848 1.239,1.495 1.643,1.902 0.404,0.407 0.611,0.574 0.797,0.87 0.186,0.296 0.351,0.72 0.488,1.263 0.137,0.544 0.246,1.205 0.304,1.972 0.058,0.767 0.067,1.64 0.054,2.608 -0.013,0.968 -0.047,2.031 0.15,2.999 0.197,0.968 0.624,1.84 1.101,2.577 0.476,0.738 1,1.339 1.389,1.826 0.39,0.488 0.644,0.862 0.856,1.23 0.213,0.367 0.384,0.729 0.555,1.154 0.171,0.425 0.342,0.913 0.472,1.479 0.13,0.566 0.218,1.21 0.339,1.795 0.121,0.584 0.275,1.108 0.375,1.699 0.1,0.59 0.145,1.246 0.32,2.204 0.174,0.958 0.476,2.218 0.678,3.273 0.203,1.055 0.305,1.904 0.416,2.657 0.112,0.753 0.231,1.409 0.325,2.284 0.094,0.875 0.163,1.97 0.294,2.774 0.131,0.804 0.325,1.317 0.465,2.09 0.14,0.772 0.225,1.805 0.299,2.412 0.074,0.607 0.137,0.79 0.288,0.952 0.104,0.112 0.251,0.215 0.437,0.32 -0.079,-0.368 -0.154,-0.732 -0.127,-0.999 0.028,-0.278 0.168,-0.45 0.332,-0.556 0.164,-0.105 0.352,-0.145 0.75,-0.063 0.398,0.082 1.007,0.284 1.729,0.399 0.723,0.115 1.56,0.144 2.868,0.151 1.309,0.007 3.089,-0.007 5.568,-0.327 2.479,-0.319 5.657,-0.943 8.788,-1.599 3.132,-0.656 6.217,-1.344 9.657,-2.107 3.44,-0.762 7.234,-1.599 10.248,-2.124 3.014,-0.525 5.249,-0.737 8.16,-0.854 2.912,-0.118 6.502,-0.139 10.137,0.024 3.635,0.163 7.316,0.511 9.976,0.862 2.66,0.351 4.298,0.706 5.688,1.227 1.391,0.522 2.533,1.21 3.226,1.734 0.693,0.524 0.938,0.884 1.054,1.193 0.116,0.309 0.104,0.568 -0.007,0.887 -0.11,0.319 -0.318,0.698 -0.526,1.077 0.192,-0.063 0.354,-0.202 0.566,-0.399 0.232,-0.218 0.523,-0.509 0.64,-0.957 0.116,-0.447 0.059,-1.052 0.065,-2.577 0.006,-1.525 0.074,-3.972 0.052,-6.694 -0.023,-2.724 -0.137,-5.723 -0.194,-7.553 -0.057,-1.831 -0.057,-2.492 -0.057,-3.427 0,-0.936 0,-2.144 -0.029,-3.276 -0.028,-1.132 -0.085,-2.187 -0.111,-3.279 -0.025,-1.092 -0.02,-2.221 -0.091,-4.009 -0.072,-1.787 -0.22,-4.234 -0.3,-6.212 -0.079,-1.979 -0.091,-3.49 -0.231,-7.51 -0.139,-4.02 -0.407,-10.55 -0.929,-16.996 -0.522,-6.446 -1.297,-12.81 -2.278,-18.854 -0.981,-6.045 -2.167,-11.77 -3.341,-17.21 -1.175,-5.44 -2.338,-10.594 -3.867,-15.864 -1.528,-5.268 -3.421,-10.651 -5.246,-15.498 -1.824,-4.847 -3.581,-9.158 -4.618,-11.657 -1.038,-2.499 -1.357,-3.186 -1.494,-3.631 -0.137,-0.445 -0.092,-0.647 0.009,-0.803 0.102,-0.155 0.258,-0.263 0.386,-0.349 0.014,-0.01 0.028,-0.019 0.041,-0.029 -0.042,-0.002 -0.088,-0.005 -0.144,-0.008 -0.105,-0.005 -0.243,-0.013 -0.693,-0.048 -0.449,-0.035 -1.21,-0.098 -2.217,-0.107 -1.008,-0.008 -2.262,0.038 -3.577,0.132 -1.316,0.095 -2.692,0.24 -4.839,0.609 -2.148,0.368 -5.068,0.962 -7.478,1.498 -2.41,0.535 -4.311,1.014 -6.805,1.509 -2.494,0.494 -5.581,1.003 -8.679,1.418 -3.098,0.414 -6.208,0.733 -9.971,1.076 -3.764,0.341 -8.181,0.707 -11.872,0.965 -3.692,0.259 -6.657,0.41 -9.367,0.559 -2.711,0.148 -5.167,0.292 -7.957,0.403 -2.79,0.11 -5.915,0.186 -9.017,0.251 -3.102,0.064 -6.181,0.117 -9.116,0.11 -2.935,-0.008 -5.725,-0.076 -8.341,-0.137 -2.615,-0.061 -5.056,-0.114 -7.698,-0.194 -2.642,-0.08 -5.486,-0.186 -8.975,-0.285 -3.49,-0.099 -7.626,-0.19 -12.01,-0.217 -4.383,-0.026 -9.013,0.012 -12.845,0.008 -3.832,-0.004 -6.865,-0.049 -10.876,-0.205 -4.011,-0.156 -8.998,-0.422 -12.585,-0.69 -3.587,-0.268 -5.773,-0.538 -7.362,-0.856 -1.59,-0.318 -2.583,-0.683 -3.577,-1.049 0.044,0.064 0.021,0.188 -0.027,0.625 -0.062,0.551 -0.164,1.597 -0.449,3.521 -0.286,1.925 -0.753,4.728 -1.058,6.779 -0.305,2.052 -0.448,3.352 -0.79,5.493 -0.342,2.141 -0.884,5.124 -1.32,7.752 -0.436,2.629 -0.767,4.904 -1.029,6.823 -0.263,1.919 -0.457,3.481 -0.636,5.294 -0.18,1.814 -0.345,3.878 -0.525,6.376 -0.18,2.497 -0.373,5.428 -0.567,8.701 -0.194,3.273 -0.388,6.888 -0.53,10.743 -0.143,3.855 -0.234,7.949 -0.206,12.14 0.029,4.192 0.177,8.48 0.468,12.648 0.291,4.169 0.724,8.217 1.009,11.855 0.285,3.638 0.422,6.865 0.485,10.435 0.063,3.57 0.051,7.481 0.091,11.969 0.04,4.488 0.131,9.552 0.223,13.777 0.091,4.225 0.182,7.612 0.266,9.945 0.084,2.332 0.162,3.609 0.193,4.373 0.031,0.764 0.017,1.015 0.027,2.23 0.01,1.214 0.044,3.393 0.078,4.946 0.035,1.554 0.069,2.484 0.137,3.037 0.068,0.553 0.171,0.73 0.482,1.055 0.311,0.325 0.83,0.798 2.632,1.177 1.802,0.38 4.886,0.665 7.829,0.918 2.942,0.254 5.742,0.476 10.492,0.73 4.75,0.254 11.451,0.539 16.4,0.753 4.95,0.214 8.149,0.356 10.954,0.382 2.806,0.026 5.218,-0.066 7.656,-0.143 2.438,-0.077 4.901,-0.139 7.25,-0.216 2.35,-0.077 4.585,-0.168 7.735,-0.565 3.151,-0.396 7.217,-1.098 9.757,-1.616 2.54,-0.519 3.556,-0.856 4.448,-1.309 0.892,-0.453 1.662,-1.024 2.078,-1.386 0.417,-0.362 0.479,-0.516 0.539,-0.807z"/>
    </clipPath>
 </defs>
 <g id="VETORES">
  <metadata id="CorelCorpID_0Corel-Layer"/>
  <g>
  </g>
  <g clip-path="url(#id0)">
   <g id="_1763251463264">
    <g>
    </g>
   </g>
   <g clip-path="url(#id1)">
    <g>
     <path fill="gold" fill-rule="nonzero" d="M334.205 -58.149c-0.196,0.15 -0.39,0.3 -0.584,0.454 -0.384,0.306 -0.763,0.619 -1.132,0.942 0.369,-0.323 0.746,-0.635 1.132,-0.942 0.194,-0.152 0.387,-0.304 0.584,-0.454 0.363,-0.281 0.733,-0.556 1.106,-0.832 -0.373,0.276 -0.743,0.551 -1.106,0.832zm-4.256 4.073c-0.165,0.216 -0.327,0.437 -0.489,0.657 -0.322,0.441 -0.636,0.89 -0.943,1.343 0.307,-0.453 0.621,-0.902 0.943,-1.343 0.16,-0.22 0.324,-0.441 0.489,-0.657 0.304,-0.401 0.623,-0.78 0.956,-1.143 -0.333,0.363 -0.654,0.743 -0.956,1.143zm-2.776 4.069c0.29,-0.465 0.587,-0.926 0.889,-1.384 -0.302,0.458 -0.597,0.919 -0.889,1.384zm-2.269 3.734c-0.137,0.221 -0.279,0.438 -0.423,0.655 0.144,-0.217 0.284,-0.434 0.423,-0.655 0.345,-0.551 0.673,-1.115 1.005,-1.673 -0.332,0.558 -0.66,1.122 -1.005,1.673zm-1.601 2.201c0.259,-0.291 0.501,-0.595 0.732,-0.909 -0.231,0.314 -0.473,0.618 -0.732,0.909zm-4.535 3.358c-0.242,0.128 -0.488,0.25 -0.734,0.369 -0.371,0.181 -0.747,0.354 -1.125,0.519 0.378,-0.167 0.754,-0.34 1.125,-0.519 0.246,-0.12 0.492,-0.241 0.734,-0.369 0.243,-0.127 0.483,-0.256 0.72,-0.391 -0.237,0.135 -0.477,0.266 -0.72,0.391zm-3 1.374c0.255,-0.105 0.509,-0.212 0.763,-0.321 -0.252,0.108 -0.508,0.216 -0.763,0.321zm-9.765 3.95c0.85,-0.392 1.721,-0.747 2.594,-1.094 -0.873,0.347 -1.744,0.702 -2.594,1.094zm-6.715 4.211c-0.23,0.16 -0.462,0.315 -0.703,0.46 -0.119,0.072 -0.239,0.142 -0.362,0.208 -0.366,0.2 -0.743,0.381 -1.118,0.568 0.374,-0.185 0.75,-0.368 1.118,-0.568 0.123,-0.066 0.243,-0.136 0.362,-0.208 0.239,-0.143 0.474,-0.298 0.703,-0.46 0.342,-0.24 0.678,-0.496 1.011,-0.751 -0.333,0.255 -0.669,0.511 -1.011,0.751zm-3.639 2.057c-0.314,0.218 -0.615,0.453 -0.905,0.703 -0.193,0.165 -0.382,0.337 -0.572,0.509 0.188,-0.172 0.377,-0.344 0.572,-0.509 0.291,-0.248 0.589,-0.485 0.905,-0.703 0.232,-0.158 0.471,-0.302 0.714,-0.436 -0.243,0.134 -0.482,0.278 -0.714,0.436zm-2.313 1.994c-0.194,0.181 -0.396,0.352 -0.6,0.522 0.205,-0.168 0.406,-0.341 0.6,-0.522 0.187,-0.174 0.371,-0.349 0.558,-0.522 -0.187,0.173 -0.371,0.348 -0.558,0.522zm-10.617 6.614c0.342,-0.301 0.678,-0.611 1.02,-0.913 -0.342,0.302 -0.678,0.612 -1.02,0.913zm-0.74 0.721c-0.081,0.087 -0.165,0.171 -0.246,0.255 0.081,-0.084 0.165,-0.168 0.246,-0.255 0.126,-0.131 0.248,-0.265 0.37,-0.402 -0.122,0.137 -0.244,0.271 -0.37,0.402zm-2.134 2.101c0.161,-0.137 0.317,-0.283 0.47,-0.431 -0.153,0.148 -0.309,0.294 -0.47,0.431zm-0.767 0.538c-0.305,0.166 -0.626,0.289 -0.955,0.388 0.328,-0.098 0.648,-0.222 0.955,-0.388 0.089,-0.049 0.179,-0.103 0.265,-0.159 -0.088,0.056 -0.176,0.11 -0.265,0.159zm-43.676 26.855c-0.162,0.191 -0.329,0.381 -0.5,0.568 0.047,-0.089 0.208,-0.294 0.469,-0.538 0.01,-0.01 0.021,-0.021 0.031,-0.03 0.093,-0.111 0.185,-0.22 0.278,-0.332 0.122,-0.151 0.243,-0.304 0.359,-0.462 0,0.002 0,0.004 0.001,0.005 -0.153,0.219 -0.29,0.408 -0.411,0.57 -0.076,0.072 -0.151,0.147 -0.229,0.22l0.002 -0.001zm-52.019 34.343c-0.104,0.103 -0.193,0.208 -0.27,0.316 -0.114,0.162 -0.199,0.328 -0.265,0.502 0.064,-0.172 0.151,-0.34 0.265,-0.502 0.077,-0.108 0.166,-0.213 0.27,-0.316 0.1,-0.097 0.201,-0.19 0.304,-0.276 -0.103,0.086 -0.204,0.179 -0.304,0.276zm-0.732 1.719c0.03,-0.252 0.069,-0.495 0.139,-0.728 -0.07,0.233 -0.109,0.476 -0.139,0.728zm-7.264 0.205c-0.419,0.294 -0.825,0.603 -1.223,0.926 0.398,-0.323 0.805,-0.63 1.223,-0.926 0.277,-0.197 0.56,-0.387 0.846,-0.574 -0.286,0.187 -0.569,0.377 -0.846,0.574zm-6.309 4.762c-0.812,0.463 -1.615,0.948 -2.447,1.378 0.829,-0.431 1.635,-0.915 2.447,-1.378 0.348,-0.198 0.694,-0.404 1.038,-0.62 -0.344,0.216 -0.69,0.422 -1.038,0.62zm-5.188 2.483c0.087,-0.048 0.183,-0.087 0.285,-0.122 -0.102,0.037 -0.199,0.077 -0.285,0.122zm-0.674 0.708c-0.071,0.065 -0.142,0.132 -0.21,0.199 0.07,-0.069 0.139,-0.134 0.21,-0.199 0.068,-0.061 0.139,-0.12 0.209,-0.178 -0.07,0.058 -0.143,0.118 -0.209,0.178zm-1.706 1.6c0.159,-0.109 0.309,-0.231 0.455,-0.363 -0.146,0.13 -0.296,0.254 -0.455,0.363zm-4.461 2.023c-0.169,0.053 -0.342,0.099 -0.517,0.145 0.173,-0.046 0.348,-0.092 0.517,-0.145 0.745,-0.239 1.538,-0.521 2.305,-0.855 -0.767,0.334 -1.561,0.616 -2.305,0.855zm-1.416 0.411c0,0 -0.005,0.003 -0.013,0.006 -0.018,0.011 -0.052,0.026 -0.097,0.049 0.045,-0.023 0.081,-0.039 0.097,-0.049 0.006,-0.001 0.009,-0.006 0.013,-0.006 0.123,-0.046 0.25,-0.086 0.379,-0.124 -0.129,0.038 -0.256,0.078 -0.379,0.124zm-0.269 0.129c-0.059,0.027 -0.121,0.055 -0.18,0.082 -0.039,0.017 -0.075,0.035 -0.11,0.049 0.035,-0.016 0.073,-0.032 0.11,-0.049 0.059,-0.027 0.121,-0.055 0.18,-0.082 0.04,-0.019 0.078,-0.036 0.112,-0.052 -0.034,0.016 -0.072,0.035 -0.112,0.052zm-0.436 0.194c0.012,-0.005 0.031,-0.013 0.055,-0.023 -0.024,0.012 -0.043,0.018 -0.055,0.023zm-7.848 3.283c0.109,-0.066 0.22,-0.129 0.329,-0.19 -0.109,0.061 -0.22,0.124 -0.329,0.19zm-0.739 0.588c-0.073,0.086 -0.132,0.176 -0.183,0.268 0.051,-0.092 0.11,-0.182 0.183,-0.268 0.162,-0.193 0.363,-0.349 0.579,-0.487 -0.214,0.138 -0.414,0.295 -0.579,0.487zm-1.032 2.196c0.058,-0.121 0.118,-0.241 0.173,-0.36 -0.055,0.12 -0.112,0.241 -0.173,0.36zm-0.507 0.866c0.076,-0.107 0.148,-0.219 0.219,-0.333 -0.069,0.114 -0.143,0.226 -0.219,0.333zm-5.06 3.255c-0.056,0.041 -0.116,0.081 -0.178,0.12 0.062,-0.039 0.122,-0.079 0.178,-0.12 0.102,-0.074 0.185,-0.161 0.256,-0.257 -0.069,0.094 -0.152,0.182 -0.256,0.257zm-2.84 1.713c0.124,-0.117 0.25,-0.227 0.381,-0.332 -0.131,0.105 -0.256,0.218 -0.381,0.332zm-4.04 3.474c-0.329,0.181 -0.662,0.353 -0.993,0.529 0.332,-0.174 0.666,-0.349 0.993,-0.529 0.247,-0.135 0.489,-0.275 0.727,-0.422 -0.238,0.147 -0.482,0.286 -0.727,0.422zm-4.664 2.64c1.043,-0.638 2.095,-1.267 3.173,-1.847 -1.076,0.58 -2.128,1.209 -3.173,1.847zm-4.534 2.901c-0.097,0.031 -0.194,0.063 -0.292,0.09 -0.195,0.057 -0.394,0.107 -0.593,0.15 0.199,-0.043 0.398,-0.092 0.593,-0.15 0.098,-0.029 0.195,-0.059 0.292,-0.09 0.293,-0.097 0.58,-0.211 0.861,-0.344 -0.279,0.133 -0.568,0.247 -0.861,0.344zm-6.78 4.858c-0.19,0.105 -0.365,0.226 -0.536,0.359 0.169,-0.132 0.346,-0.254 0.536,-0.359 0.252,-0.14 0.524,-0.249 0.828,-0.313l0 0c-0.304,0.066 -0.577,0.175 -0.828,0.313zm-8.571 7.937c-0.518,0.389 -1.054,0.742 -1.621,1.046 -0.696,0.373 -1.374,0.695 -2.019,1.096 0.645,-0.402 1.323,-0.723 2.019,-1.096 0.565,-0.304 1.103,-0.657 1.621,-1.046 0.388,-0.292 0.766,-0.602 1.134,-0.925 -0.368,0.323 -0.746,0.633 -1.134,0.925zm-4.757 2.981c-0.246,0.226 -0.476,0.46 -0.696,0.693 0.221,-0.235 0.45,-0.467 0.696,-0.693 0.119,-0.109 0.239,-0.212 0.363,-0.31 -0.122,0.097 -0.244,0.201 -0.363,0.31zm-9.333 7.45c-0.098,-0.021 -0.213,-0.063 -0.329,-0.11 -0.116,-0.047 -0.232,-0.1 -0.327,-0.146 -0.048,-0.022 -0.09,-0.042 -0.125,-0.059 -0.035,-0.018 -0.063,-0.031 -0.081,-0.037 0.018,0.006 0.046,0.019 0.081,0.037 0.035,0.017 0.079,0.037 0.125,0.059 0.095,0.046 0.211,0.099 0.327,0.146 0.116,0.047 0.231,0.089 0.329,0.11 0.048,0.01 0.093,0.015 0.13,0.015 -0.037,0.002 -0.079,-0.004 -0.13,-0.015zm-2.669 -1.203c0.288,0.162 0.587,0.313 0.89,0.453 -0.303,-0.14 -0.601,-0.289 -0.89,-0.453zm48.912 -33.972l0 0c-0.004,0.088 -0.003,0.175 -0.003,0.262 -0.002,-0.089 -0.001,-0.176 0.003,-0.262zm0.103 1.075l0 0c-0.023,-0.093 -0.041,-0.185 -0.056,-0.277 0.015,0.09 0.033,0.182 0.056,0.277zm1.688 -2.002c0.234,-0.059 0.497,-0.12 0.8,-0.182 -0.267,0.054 -0.537,0.123 -0.803,0.197 0.001,-0.006 0.002,-0.011 0.003,-0.015l0 0zm45.997 -24.841c0.033,-0.076 0.071,-0.153 0.11,-0.23 0.185,-0.096 0.372,-0.191 0.559,-0.287 -0.185,0.096 -0.374,0.191 -0.559,0.287 -0.04,0.075 -0.077,0.154 -0.11,0.23 -0.034,0.075 -0.064,0.153 -0.09,0.229l0 0c0.027,-0.077 0.056,-0.154 0.09,-0.229zm13.016 -9.71c0.473,-0.285 0.941,-0.463 1.344,-0.339 0.076,0.023 0.147,0.054 0.212,0.085 -0.619,0.272 -1.258,0.508 -1.9,0.728 0.095,-0.139 0.215,-0.311 0.344,-0.474l0 0zm19.774 -14.404c0.212,-0.097 0.425,-0.189 0.638,-0.279 -0.316,0.237 -0.652,0.444 -0.99,0.649 0.119,-0.126 0.236,-0.247 0.352,-0.37zm4.512 -2.046c-0.065,0.066 -0.129,0.132 -0.192,0.197 -0.072,0.012 -0.145,0.023 -0.217,0.037 0.138,-0.076 0.275,-0.153 0.409,-0.234l0 0zm3.067 -2.831c0.419,-0.485 0.174,-0.083 -0.173,0.294 -0.079,0.05 -0.157,0.1 -0.221,0.141 0.131,-0.145 0.266,-0.288 0.395,-0.435l-0.001 0zm136.495 27.547c-0.77,-4.175 -2.689,-8.088 -3.756,-12.195 -1.127,-4.349 -1.868,-8.782 -2.759,-13.18 -0.89,-4.394 -2.068,-8.678 -3.441,-12.942 -1.364,-4.232 -2.725,-8.449 -3.601,-12.815 -0.859,-4.27 -1.754,-8.352 -3.611,-12.318 -0.906,-1.932 -1.881,-3.834 -2.703,-5.803 -0.804,-1.934 -1.433,-3.938 -2.119,-5.914 -1.372,-3.959 -3.02,-7.844 -4.194,-11.869 -0.56,-1.92 -1.017,-3.914 -1.305,-5.894 -0.143,-0.986 -0.21,-1.986 -0.09,-2.978 0.096,-0.8 0.389,-1.587 0.321,-2.402 -0.059,-0.71 -0.378,-1.454 -0.548,-2.19l0 0c1.561,-1.162 3.124,-2.323 4.717,-3.44 -0.094,0.066 -1.581,-0.322 -1.8,-0.347 -0.426,-0.047 -1.449,-0.327 -1.833,-0.056 -1.401,0.981 -2.777,1.994 -4.148,3.015 -0.592,0.442 -1.182,0.884 -1.775,1.324 -1.718,1.277 -3.477,2.495 -4.949,4.062 -2.956,3.145 -4.633,7.195 -7.189,10.62 -2.739,3.665 -7.278,5.065 -11.326,6.755 -4.268,1.78 -8.506,3.315 -12.24,6.122 -0.986,0.742 -1.958,1.397 -3.067,1.949 -1.052,0.524 -1.998,1.109 -2.88,1.895 -0.491,0.437 -0.976,0.876 -1.466,1.311 0.226,-0.255 0.452,-0.508 0.682,-0.757 0.091,-0.101 0.943,-1.079 0.745,-1.053 -0.466,0.064 -1.338,1.259 -1.619,1.565 -1.087,1.189 -2.081,2.506 -3.276,3.593 -0.095,0.049 -0.194,0.096 -0.299,0.137 -0.039,0.013 0,0.036 0.076,0.063 -1.296,1.143 -2.627,2.232 -3.788,3.523 -0.047,0.054 -0.095,0.106 -0.144,0.16 -0.047,0.052 -0.097,0.106 -0.144,0.16 -0.137,0.098 -0.286,0.178 -0.449,0.232 -0.842,0.382 -1.781,0.422 -2.673,0.592 -1.539,0.292 -2.765,0.639 -4.046,1.573 -1.268,0.922 -2.447,1.84 -3.513,2.965 -0.161,0.168 -0.317,0.341 -0.472,0.518 -1.053,1.211 -1.974,2.552 -2.877,3.879 -0.224,0.329 -0.448,0.656 -0.674,0.983 -0.123,0.039 -0.249,0.071 -0.378,0.091 -0.331,0.063 -0.673,0.071 -1.006,0.056 -0.647,-0.029 -2.291,-0.252 -3.091,-0.875 -0.051,-0.288 -0.052,-0.543 -0.442,-0.673 -0.343,-0.115 -2.561,2.29 -2.51,2.658 0.04,0.29 0.225,0.529 0.493,0.729 0.041,0.163 0.086,0.332 0.176,0.477 0.086,0.137 0.278,0.505 0.392,0.609 0.226,-0.213 0.422,-0.401 0.596,-0.566 -0.503,0.49 -1.017,0.965 -1.509,1.464 -0.362,0.365 -0.713,0.741 -1.054,1.123 -0.005,0.005 -0.008,0.01 -0.013,0.015 -0.558,0.229 -1.087,0.905 -1.471,1.302 -0.24,0.25 -0.474,0.504 -0.708,0.758 -0.406,0.456 -0.439,0.478 -0.097,0.061 0.336,-0.329 0.316,-0.385 -0.059,-0.166 -0.68,0.076 -1.537,0.549 -2.102,0.906 -0.289,0.182 -0.567,0.385 -0.85,0.575 -0.051,0.034 -0.987,0.665 -1.04,0.467 0.198,-0.322 0.347,-0.63 0.434,-1.017 0.005,-0.024 0.012,-0.051 0.017,-0.074 -0.71,0.139 -1.429,0.714 -2.031,1.092 -0.874,0.551 -1.608,1.363 -2.416,2.008 -0.369,0.294 -0.732,0.603 -1.115,0.88 -0.581,0.417 -1.206,0.754 -1.958,0.834 -0.426,0.044 -0.827,-0.029 -1.248,0.108 -0.482,0.159 -0.903,0.485 -1.367,0.685 -1.807,0.782 -3.824,1.498 -5.256,2.906 -0.322,0.317 -0.635,0.647 -0.939,0.981 -0.046,0.045 -0.092,0.086 -0.128,0.119 -0.163,0.15 -0.325,0.303 -0.483,0.46 -0.157,0.157 -0.314,0.316 -0.468,0.478 -1.275,0.684 -2.754,0.844 -4.179,1.047 -1.399,0.199 -2.394,1.477 -3.29,2.548 -0.058,0.069 -0.115,0.135 -0.171,0.202 -0.012,0.009 -0.177,0.183 -0.326,0.345 -0.27,0.069 -0.621,0.338 -0.84,0.433 -0.262,0.115 -0.531,0.215 -0.802,0.309 -1.066,0.375 -2.095,0.843 -3.07,1.416 -1.143,0.674 -2.168,1.679 -3.06,2.654 -0.227,0.247 -0.457,0.49 -0.687,0.733 -0.609,0.521 -1.191,1.084 -1.816,1.579 -0.198,0.157 -0.401,0.307 -0.604,0.453 -0.077,0.039 -0.151,0.078 -0.228,0.118 -0.491,0.258 -0.972,0.541 -1.439,0.841 -0.344,0.223 -0.677,0.459 -1.005,0.703 -0.019,0.01 -0.039,0.021 -0.058,0.031 -0.676,0.381 -1.213,0.82 -1.74,1.31 -0.589,0.303 -1.138,0.694 -1.65,1.135 -0.803,0.542 -1.636,1.178 -2.311,1.919 -0.164,0.104 -0.332,0.201 -0.507,0.288 -0.4,0.206 -1.175,0.617 -1.647,0.559 -0.282,-0.034 -0.766,0.38 -1.131,0.711 -0.475,0.043 -0.955,0.492 -1.31,0.726 -0.476,0.314 -0.957,0.686 -1.46,0.963 -0.03,-0.176 -0.057,-0.318 -0.065,-0.356 -0.125,-0.559 -0.219,-1.711 -0.638,-2.158 -0.043,-0.043 -0.083,-0.088 -0.124,-0.131 -0.018,-0.017 -0.037,-0.036 -0.053,-0.055 -0.49,0.204 -0.808,0.769 -1.102,1.178 -0.352,0.486 -0.818,0.847 -1.26,1.246 -0.975,0.881 -1.918,1.73 -3.146,2.191 -1.111,0.417 -2.22,1.071 -3.251,1.665 -0.503,0.29 -1.015,0.565 -1.517,0.855 -0.623,0.359 -1.119,0.889 -1.73,1.272 -0.113,0.073 -0.041,0.512 0.063,0.943 -0.123,-0.067 -0.244,-0.126 -0.365,-0.158 -0.607,-0.166 -1.802,0.391 -2.259,0.797 -0.336,0.302 -0.735,0.806 -0.999,1.333 -0.738,0.383 -1.477,0.763 -2.234,1.114 -1.005,0.465 -1.941,0.905 -2.734,1.677 -0.269,0.265 -0.434,0.546 -0.541,0.839 -0.144,0.067 -0.288,0.133 -0.431,0.199 -0.712,0.331 -1.42,0.662 -2.121,0.996 -1.815,0.868 -3.586,1.904 -5.249,3.021 -1.619,1.087 -2.879,2.647 -4.571,3.614 -1.301,0.741 -2.543,1.721 -3.892,2.423 -0.315,0.166 -0.636,0.317 -0.965,0.445 -0.758,0.293 -1.555,0.497 -2.221,0.984 -0.836,0.613 -1.441,1.501 -2.27,2.111 -0.392,0.291 -0.846,0.46 -1.283,0.667 -0.151,0.07 -0.318,0.141 -0.465,0.232 -0.118,0.069 -0.192,0.12 -0.235,0.154 -0.111,0.033 -0.22,0.067 -0.332,0.099 -0.775,0.231 -1.556,0.462 -2.308,0.762l-0.22 0.048c-0.499,0.102 -0.999,0.204 -1.494,0.328 -0.938,0.235 -1.517,0.296 -2.513,0.582 -1.058,0.307 -2.034,0.599 -2.858,1.333 -0.791,0.703 -1.693,1.233 -2.601,1.769 -0.835,0.493 -1.19,0.935 -1.536,1.796 -0.152,0.382 -0.371,0.769 -0.56,1.134 -0.027,0.051 -0.055,0.103 -0.081,0.155 -0.265,-0.159 -0.376,-0.786 -0.406,-1.258 0.025,-0.136 0.039,-0.263 0.027,-0.367 -0.003,-0.043 0.045,-0.376 -0.066,-0.206 -0.297,0.451 -0.396,1.021 -0.813,1.328 -0.42,0.309 -1.046,0.528 -1.515,0.771 -1.047,0.547 -1.734,1.427 -2.542,2.28 -1.16,1.218 -2.435,1.912 -3.898,2.703 -1.332,0.719 -2.573,1.593 -3.898,2.315 -1.223,0.666 -2.131,1.75 -3.408,2.324 -0.674,0.302 -1.383,0.483 -2.106,0.621 -0.706,0.134 -1.654,0.134 -2.263,0.538 -0.431,0.287 -0.584,0.759 -0.758,1.224 -0.246,0.667 -0.435,1.028 -1.059,1.403 -0.514,0.306 -1.076,0.59 -1.665,0.709 -0.131,0.027 -0.319,0.072 -0.501,0.084 -0.31,-0.373 -0.62,-0.728 -0.847,-0.951 0.014,-0.051 0.026,-0.103 0.039,-0.156 0.143,-0.062 0.309,-0.138 0.31,-0.136 0.376,-0.192 0.746,-0.43 1.101,-0.656 0.404,-0.261 1.265,-0.636 1.458,-1.112 0.077,-0.185 0.236,-0.322 0.315,-0.495 0.014,-0.03 0.025,-0.057 0.033,-0.08 0.402,-0.243 0.788,-0.514 1.149,-0.804 0.246,-0.153 0.491,-0.308 0.732,-0.47 0.311,-0.167 0.616,-0.352 0.919,-0.538 0.005,-0.003 0.009,-0.006 0.014,-0.009 0.033,-0.001 0.113,-0.027 0.266,-0.087 0.58,-0.228 1.15,-0.543 1.694,-0.87 0.969,-0.366 1.904,-0.858 2.807,-1.349 0.729,-0.395 1.442,-0.836 2.117,-1.319 0.101,-0.072 0.201,-0.145 0.299,-0.221 0.673,-0.395 1.311,-0.849 1.916,-1.338 0,0 0.303,-0.257 0.096,-0.197 -0.565,0.157 -1.099,0.413 -1.61,0.721 -0.313,0.101 -0.626,0.204 -0.917,0.346 -0.812,0.396 -1.581,0.873 -2.328,1.378 -0.081,0.052 -0.319,0.189 -0.556,0.343 0.018,-0.023 0.039,-0.044 0.052,-0.068 0.017,-0.026 0.293,-0.248 0.093,-0.193 -0.427,0.118 -0.841,0.318 -1.241,0.556 -0.765,0.268 -1.564,0.474 -2.361,0.498 -0.83,0.026 -1.709,0.052 -2.506,0.281 -0.612,0.176 -1.226,0.652 -1.746,0.996 -0.125,0.083 -1.244,0.974 -1.256,0.976 0.309,0.148 0.361,0.398 0.468,0.606 -0.082,0.061 -0.166,0.123 -0.25,0.187 -0.248,0.151 -0.618,0.352 -0.718,0.573 -0.165,0.371 0.35,0.425 0.397,0.928 0.002,0.023 0.487,-0.236 0.925,-0.477 -0.236,0.168 -0.409,0.326 -0.409,0.434 -0.068,0.05 -0.141,0.097 -0.209,0.147 -0.205,0.157 -0.425,0.313 -0.598,0.502 -0.151,0.166 -0.293,0.357 -0.416,0.556 -0.021,-0.041 -0.072,-0.018 -0.178,0.117 -0.05,0.065 -0.096,0.142 -0.138,0.226 -0.019,-0.013 -0.036,-0.024 -0.052,-0.029 -0.022,-0.007 -0.044,-0.011 -0.066,-0.017l-0.006 -0.007c0,0 -0.003,0.003 -0.005,0.004 -0.238,-0.069 -0.477,-0.072 -0.728,-0.086 -0.225,-0.011 -0.654,0.013 -0.946,-0.069 -0.109,-0.114 -0.221,-0.225 -0.334,-0.333 -0.494,-0.46 -0.775,-0.362 -1.4,-0.2 -0.043,0.012 0.996,1.373 1.087,1.477 0.282,0.326 0.571,0.65 0.879,0.951 0.076,0.073 0.315,0.366 0.429,0.337 0.094,-0.024 0.453,-0.173 0.682,-0.202 0.005,0.006 0.01,0.011 0.015,0.016 -0.022,0.129 -0.04,0.248 -0.059,0.349 -0.085,0.441 -0.198,0.927 -0.168,1.394 -0.272,-0.114 -0.543,-0.186 -0.753,-0.14 -1.152,0.249 -1.875,1.115 -2.695,1.914 -0.418,0.409 -0.944,0.67 -1.363,1.065 -0.372,0.348 -0.576,0.835 -0.944,1.2 -1.835,1.813 -3.728,3.876 -6.018,5.114 -1.112,0.603 -2.188,1.058 -3.137,1.935 -0.933,0.863 -1.591,1.854 -2.687,2.553 -1.032,0.658 -2.218,1.244 -3.141,2.04 -0.247,0.214 -0.491,0.429 -0.736,0.642 -0.432,-0.382 -1.205,-0.628 -1.695,-0.842 -0.217,-0.095 -1.297,-0.7 -1.502,-0.522 -0.744,0.643 -1.538,1.231 -2.243,1.915 -0.709,0.69 -1.277,1.506 -1.923,2.253 -1.372,1.592 -2.937,2.933 -4.417,4.408 -0.655,0.653 -1.289,1.333 -2.052,1.859 -0.846,0.585 -1.712,1.105 -2.516,1.749 -0.4,0.322 -1.706,1.095 -1.766,1.655 -0.026,0.253 0.242,0.397 0.186,0.644 -0.057,0.255 -0.644,0.54 -0.837,0.684 0.002,0.01 0.137,0.089 0.329,0.197 0.083,0.046 0.177,0.098 0.274,0.152 0.066,0.036 0.133,0.073 0.199,0.109 -0.067,-0.037 -0.135,-0.073 -0.199,-0.109 -0.097,-0.054 -0.191,-0.106 -0.274,-0.152 -0.246,0.13 -0.486,0.267 -0.724,0.406 -0.872,-0.596 -2.068,-1.36 -2.249,-1.148 -2.873,3.354 -6.542,5.988 -9.656,9.122 -0.752,0.758 -1.496,1.528 -2.234,2.301 -0.708,0.744 -1.358,1.523 -2.241,2.061 -1.186,0.723 -2.415,1.459 -3.708,2.005l-0.08 -0.369c-0.007,-0.034 -0.274,0.403 -0.308,0.456 0,0 -0.002,0 -0.002,0 -0.002,0.001 -0.002,0.003 -0.002,0.003 -0.014,0.027 -0.029,0.054 -0.044,0.084 -0.516,0.197 -1.04,0.36 -1.578,0.477 0.07,-0.015 0.613,0.381 1.035,0.688 -0.213,0.449 -0.653,1.181 -0.552,1.645l1.35 6.23c0.421,1.939 0.573,4.034 1.607,5.764 0.943,1.579 1.773,3.191 2.309,4.958 0.569,1.868 0.882,3.837 1.297,5.744 0.405,1.848 0.932,3.558 2.082,5.088 0.928,1.231 1.974,2.729 2.027,4.289 0.063,1.89 0.143,3.748 -0.197,5.62 -0.335,1.828 0.04,3.399 0.472,5.181 0.929,3.843 2.735,7.438 3.373,11.359 0.327,2.018 0.163,3.976 -0.061,5.993 -0.194,1.759 -0.136,3.359 0.23,5.092 0.849,4.033 1.843,8.045 2.589,12.101 0.33,1.793 0.623,3.795 1.843,5.231 0.498,0.584 1.073,1.06 1.452,1.741 0.453,0.816 0.777,1.717 1.18,2.558 0.418,0.876 0.867,1.758 1.129,2.697 0.29,1.032 0.29,2.124 0.387,3.185 0.076,0.861 0.116,1.659 -0.044,2.514 -0.167,0.889 -0.39,1.75 -0.343,2.662 0.043,0.833 0.5,1.426 0.657,2.207 0.161,0.802 0.81,0.907 1.498,1.109 0.786,0.233 1.789,0.67 1.79,1.597 0,0.47 -0.157,0.924 -0.158,1.4 0,0.303 0.019,0.605 0.047,0.906l-0.953 0.207c0.086,-0.019 1.299,0.986 1.472,1.094 0.342,0.215 1.187,0.942 1.628,0.846 4.826,-1.046 9.679,-2.372 14.577,-3.038 5.055,-0.689 10.239,-0.628 15.334,-0.657 5.162,-0.032 10.128,-0.327 15.19,-1.394 2.499,-0.525 4.983,-1.119 7.487,-1.612 2.471,-0.487 4.971,-0.743 7.451,-1.168 2.444,-0.417 4.702,-1.206 7.019,-2.066 2.379,-0.881 4.854,-1.441 7.326,-1.993 4.92,-1.095 9.889,-1.967 14.797,-3.106 5.009,-1.162 9.389,-3.729 14.12,-5.615 4.69,-1.873 9.843,-3.233 14.773,-4.309 5.019,-1.097 9.951,-2.197 14.858,-3.743 4.86,-1.533 9.624,-3.404 14.514,-4.833 9.781,-2.861 19.885,-0.727 29.879,-0.607 4.872,0.058 9.762,0.272 14.47,-1.154 4.814,-1.457 9.738,-2.426 14.461,-4.182 4.698,-1.746 9.193,-3.973 13.865,-5.78 4.6,-1.781 9.707,-3.503 14.675,-3.684 4.997,-0.183 9.95,0.722 14.962,0.361 5.116,-0.369 10.199,-1.768 15.178,-2.936 4.832,-1.135 9.243,-3.006 13.681,-5.19 4.441,-2.187 8.895,-4.127 13.903,-4.41 2.429,-0.136 4.864,-0.063 7.291,-0.252 -0.16,0.014 -1.256,-0.958 -1.472,-1.095 -0.397,-0.248 -1.125,-0.884 -1.628,-0.844 -0.325,0.025 -0.651,0.046 -0.975,0.066 0.26,-0.067 0.516,-0.141 0.771,-0.232 1.419,-0.507 3.172,-1.053 3.969,-2.427 0.703,-1.21 1.501,-2.695 1.636,-4.098 0.171,-1.806 -0.002,-3.633 0.178,-5.436 0.194,-1.917 1.015,-3.727 1.341,-5.628 0.328,-1.901 0.429,-3.835 0.404,-5.758 -0.047,-4.034 -0.238,-8.395 -1.68,-12.2 -0.768,-2.022 -1.555,-3.99 -2.195,-6.061 -0.612,-1.983 -1.338,-3.844 -2.261,-5.704 -0.805,-1.627 -0.793,-3.542 -1.094,-5.318 -0.338,-1.981 -0.58,-4.104 -0.701,-6.109 -0.118,-1.976 0.234,-3.888 -0.578,-5.765 -0.39,-0.9 -0.902,-1.746 -1.155,-2.703 -0.269,-1.017 -0.349,-2.088 -0.432,-3.132 -0.327,-4.192 -0.819,-8.332 -1.653,-12.452 -0.438,-2.154 -0.427,-4.319 -0.558,-6.505 -0.126,-2.126 -0.318,-4.248 -0.6,-6.361 -0.576,-4.346 -1.687,-8.503 -2.94,-12.694 -1.269,-4.245 -2.525,-8.512 -3.239,-12.893 -0.704,-4.318 -0.583,-8.755 -1.377,-13.051l0.001 0.001zm-245.248 -0.17c-0.1,0.065 -0.203,0.131 -0.303,0.196 -0.09,0.032 -0.181,0.065 -0.272,0.095 0.193,-0.096 0.386,-0.194 0.575,-0.291zm137.064 -72.771c0.057,-0.025 0.114,-0.05 0.173,-0.073 -0.039,0.038 -0.077,0.077 -0.116,0.115 -0.208,0.201 -0.228,0.186 -0.057,-0.042z"/>
    </g>
   </g>
   <g clip-path="url(#id2)">
    <path fill="none" d="M126.868 7.208c-3.692,0.259 -6.657,0.41 -9.367,0.559 -2.711,0.148 -5.167,0.292 -7.957,0.403 -2.79,0.11 -5.915,0.186 -9.017,0.251 -1.699,0.035 -3.39,0.067 -5.055,0.087 0.077,0.533 0.157,1.09 0.241,1.678 0.521,3.612 1.205,8.363 1.612,11.976 0.408,3.612 0.539,6.086 1.088,9.846 0.549,3.758 1.516,8.803 2.362,13.439 0.846,4.636 1.571,8.864 2.128,11.482 0.557,2.618 0.946,3.625 1.265,4.398 0.319,0.772 0.568,1.31 0.72,1.7 0.152,0.39 0.206,0.631 0.184,0.807 -0.021,0.175 -0.12,0.285 -0.256,0.446 -0.135,0.161 -0.307,0.373 -0.481,0.599 -0.173,0.226 -0.349,0.466 -0.581,1.057 -0.233,0.592 -0.523,1.535 -0.813,2.478 0.07,-0.094 0.129,-0.113 0.186,-0.108 0.084,0.008 0.164,0.069 0.266,0.183 0.103,0.113 0.228,0.278 0.391,0.627 0.163,0.349 0.362,0.88 0.684,1.602 0.321,0.721 0.764,1.632 1.146,2.525 0.381,0.893 0.7,1.768 0.836,2.443 0.135,0.674 0.087,1.147 0.127,1.679 0.04,0.532 0.168,1.122 0.504,1.619 0.337,0.498 0.881,0.903 1.195,1.44 0.314,0.538 0.396,1.208 0.602,2.158 0.205,0.951 0.533,2.183 0.646,3.113 0.112,0.929 0.009,1.556 -0.098,2.148 -0.106,0.591 -0.218,1.148 -0.101,1.705 0.117,0.557 0.462,1.116 0.865,1.635 0.404,0.519 0.866,0.998 1.149,1.313 0.284,0.315 0.39,0.466 0.491,0.609 0.101,0.142 0.198,0.276 0.351,0.879 0.152,0.603 0.36,1.675 0.439,2.419 0.078,0.745 0.027,1.161 -0.003,1.576 -0.03,0.415 -0.039,0.828 -0.073,1.354 -0.034,0.526 -0.094,1.165 -0.085,1.751 0.008,0.586 0.085,1.119 0.46,1.91 0.375,0.791 1.048,1.84 1.685,2.689 0.637,0.848 1.239,1.495 1.643,1.902 0.404,0.407 0.611,0.574 0.797,0.87 0.186,0.296 0.351,0.72 0.488,1.263 0.137,0.544 0.246,1.205 0.304,1.972 0.058,0.767 0.067,1.64 0.054,2.608 -0.013,0.968 -0.047,2.031 0.15,2.999 0.197,0.968 0.624,1.84 1.101,2.577 0.476,0.738 1,1.339 1.389,1.826 0.39,0.488 0.644,0.862 0.856,1.23 0.213,0.367 0.384,0.729 0.555,1.154 0.171,0.425 0.342,0.913 0.472,1.479 0.13,0.566 0.218,1.21 0.339,1.795 0.121,0.584 0.275,1.108 0.375,1.699 0.1,0.59 0.145,1.246 0.32,2.204 0.174,0.958 0.476,2.218 0.678,3.273 0.203,1.055 0.305,1.904 0.416,2.657 0.112,0.753 0.231,1.409 0.325,2.284 0.094,0.875 0.163,1.97 0.294,2.774 0.131,0.804 0.325,1.317 0.465,2.09 0.14,0.772 0.225,1.805 0.299,2.412 0.074,0.607 0.137,0.79 0.288,0.952 0.104,0.112 0.251,0.215 0.437,0.32 -0.079,-0.368 -0.154,-0.732 -0.127,-0.999 0.028,-0.278 0.168,-0.45 0.332,-0.556 0.164,-0.105 0.352,-0.145 0.75,-0.063 0.398,0.082 1.007,0.284 1.729,0.399 0.723,0.115 1.56,0.144 2.868,0.151 1.309,0.007 3.089,-0.007 5.568,-0.327 2.479,-0.319 5.657,-0.943 8.788,-1.599 3.132,-0.656 6.217,-1.344 9.657,-2.107 3.44,-0.762 7.234,-1.599 10.248,-2.124 3.014,-0.525 5.249,-0.737 8.16,-0.854 2.912,-0.118 6.502,-0.139 10.137,0.024 3.635,0.163 7.316,0.511 9.976,0.862 2.66,0.351 4.298,0.706 5.688,1.227 1.391,0.522 2.533,1.21 3.226,1.734 0.693,0.524 0.938,0.884 1.054,1.193 0.116,0.309 0.104,0.568 -0.007,0.887 -0.11,0.319 -0.318,0.698 -0.526,1.078 0.192,-0.064 0.354,-0.202 0.566,-0.4 0.232,-0.218 0.523,-0.509 0.64,-0.957 0.116,-0.447 0.059,-1.052 0.065,-2.577 0.006,-1.525 0.074,-3.972 0.052,-6.694 -0.023,-2.724 -0.137,-5.723 -0.194,-7.553 -0.057,-1.831 -0.057,-2.492 -0.057,-3.427 0,-0.936 0,-2.144 -0.029,-3.276 -0.028,-1.132 -0.085,-2.187 -0.111,-3.279 -0.025,-1.092 -0.02,-2.221 -0.091,-4.009 -0.072,-1.787 -0.22,-4.234 -0.3,-6.212 -0.079,-1.979 -0.091,-3.49 -0.231,-7.51 -0.139,-4.02 -0.407,-10.55 -0.929,-16.996 -0.522,-6.446 -1.297,-12.81 -2.278,-18.854 -0.981,-6.045 -2.167,-11.77 -3.341,-17.21 -1.175,-5.44 -2.338,-10.594 -3.867,-15.864 -1.528,-5.268 -3.421,-10.651 -5.246,-15.498 -1.824,-4.847 -3.581,-9.158 -4.618,-11.657 -1.038,-2.499 -1.357,-3.186 -1.494,-3.631 -0.137,-0.445 -0.092,-0.647 0.009,-0.803 0.102,-0.155 0.258,-0.263 0.386,-0.349 0.014,-0.01 0.028,-0.019 0.041,-0.029 -0.042,-0.002 -0.088,-0.005 -0.144,-0.008 -0.105,-0.005 -0.243,-0.013 -0.693,-0.048 -0.449,-0.035 -1.21,-0.098 -2.217,-0.107 -1.008,-0.008 -2.262,0.038 -3.577,0.132 -1.316,0.095 -2.692,0.24 -4.839,0.609 -2.148,0.368 -5.068,0.962 -7.478,1.498 -2.41,0.535 -4.311,1.014 -6.805,1.509 -2.494,0.494 -5.581,1.003 -8.679,1.418 -3.098,0.414 -6.208,0.733 -9.971,1.076 -3.764,0.341 -8.181,0.707 -11.872,0.965z"/>
    <g>
    </g>
   </g>
   <g clip-path="url(#id3)">
   </g>
   <g clip-path="url(#id4)">
    <path id="perna-esquerda" fill="none" d="M66.397 7.915c-3.49,-0.099 -7.626,-0.19 -12.01,-0.217 -4.383,-0.026 -9.013,0.012 -12.845,0.008 -3.832,-0.004 -6.865,-0.049 -10.876,-0.205 -4.011,-0.156 -8.998,-0.422 -12.585,-0.69 -3.587,-0.268 -5.773,-0.538 -7.362,-0.856 -1.59,-0.318 -2.583,-0.683 -3.577,-1.049 0.044,0.064 0.021,0.188 -0.027,0.625 -0.062,0.551 -0.164,1.597 -0.449,3.521 -0.286,1.925 -0.753,4.728 -1.058,6.779 -0.305,2.052 -0.448,3.352 -0.79,5.493 -0.342,2.141 -0.884,5.124 -1.32,7.752 -0.436,2.629 -0.767,4.904 -1.029,6.823 -0.263,1.919 -0.457,3.481 -0.636,5.294 -0.18,1.814 -0.345,3.878 -0.525,6.376 -0.18,2.497 -0.373,5.428 -0.567,8.701 -0.194,3.273 -0.388,6.888 -0.53,10.743 -0.143,3.855 -0.234,7.949 -0.206,12.14 0.029,4.192 0.177,8.48 0.468,12.648 0.291,4.169 0.724,8.217 1.009,11.855 0.285,3.638 0.422,6.865 0.485,10.435 0.063,3.57 0.051,7.481 0.091,11.969 0.04,4.488 0.131,9.552 0.223,13.777 0.091,4.225 0.182,7.612 0.266,9.945 0.084,2.332 0.162,3.609 0.193,4.373 0.031,0.764 0.017,1.015 0.027,2.23 0.01,1.214 0.044,3.393 0.078,4.946 0.035,1.554 0.069,2.484 0.137,3.037 0.068,0.553 0.171,0.73 0.482,1.055 0.311,0.325 0.83,0.798 2.632,1.177 1.802,0.38 4.886,0.665 7.829,0.918 2.942,0.254 5.742,0.476 10.492,0.73 4.75,0.254 11.451,0.539 16.4,0.753 4.95,0.214 8.149,0.356 10.954,0.382 2.806,0.026 5.218,-0.066 7.656,-0.143 2.438,-0.077 4.901,-0.139 7.25,-0.216 2.35,-0.077 4.585,-0.168 7.735,-0.565 3.151,-0.396 7.217,-1.098 9.757,-1.616 2.54,-0.519 3.556,-0.856 4.448,-1.309 0.892,-0.453 1.662,-1.024 2.078,-1.386 0.417,-0.362 0.479,-0.516 0.539,-0.807 0.06,-0.29 0.117,-0.718 0.209,-2.252 0.091,-1.534 0.216,-4.174 0.518,-9.369 0.303,-5.195 0.782,-12.944 1.164,-18.604 0.382,-5.659 0.667,-9.229 1.038,-13.175 0.37,-3.946 0.826,-8.268 1.397,-12.773 0.57,-4.505 1.254,-9.192 2.132,-14.518 0.879,-5.326 1.95,-11.291 2.766,-15.197 0.815,-3.906 1.374,-5.753 1.733,-6.921 0.358,-1.167 0.516,-1.655 0.64,-1.921 0.04,-0.087 0.077,-0.151 0.11,-0.197 0.29,-0.943 0.58,-1.886 0.813,-2.478 0.232,-0.591 0.408,-0.831 0.581,-1.057 0.174,-0.226 0.346,-0.438 0.481,-0.599 0.136,-0.161 0.235,-0.271 0.256,-0.446 0.022,-0.176 -0.032,-0.417 -0.184,-0.807 -0.152,-0.39 -0.401,-0.928 -0.72,-1.7 -0.319,-0.773 -0.708,-1.78 -1.265,-4.398 -0.557,-2.618 -1.282,-6.846 -2.128,-11.482 -0.846,-4.636 -1.813,-9.681 -2.362,-13.439 -0.549,-3.76 -0.68,-6.234 -1.088,-9.846 -0.407,-3.613 -1.091,-8.364 -1.612,-11.976 -0.084,-0.588 -0.164,-1.145 -0.241,-1.678 -1.376,0.017 -2.733,0.026 -4.061,0.023 -2.935,-0.008 -5.725,-0.076 -8.341,-0.137 -2.615,-0.061 -5.056,-0.114 -7.698,-0.194 -2.642,-0.08 -5.486,-0.186 -8.975,-0.285z"/>
   </g>
  </g>
  <path fill="none" d="M91.234 163.341c0.06,-0.29 0.117,-0.718 0.209,-2.252 0.091,-1.534 0.216,-4.174 0.518,-9.369 0.303,-5.195 0.782,-12.944 1.164,-18.604 0.382,-5.659 0.667,-9.229 1.038,-13.175 0.37,-3.946 0.826,-8.268 1.397,-12.773 0.57,-4.505 1.254,-9.192 2.132,-14.518 0.879,-5.326 1.95,-11.291 2.766,-15.197 0.815,-3.906 1.374,-5.753 1.733,-6.921 0.358,-1.167 0.516,-1.655 0.64,-1.921 0.123,-0.267 0.212,-0.313 0.296,-0.305 0.084,0.008 0.164,0.069 0.266,0.183 0.103,0.113 0.228,0.278 0.391,0.627 0.163,0.349 0.362,0.88 0.684,1.602 0.321,0.721 0.764,1.632 1.146,2.525 0.381,0.893 0.7,1.768 0.836,2.443 0.135,0.674 0.087,1.147 0.127,1.679 0.04,0.532 0.168,1.122 0.504,1.619 0.337,0.498 0.881,0.903 1.195,1.44 0.314,0.538 0.396,1.208 0.602,2.158 0.205,0.951 0.533,2.183 0.646,3.113 0.112,0.929 0.009,1.556 -0.098,2.148 -0.106,0.591 -0.218,1.148 -0.101,1.705 0.117,0.557 0.462,1.116 0.865,1.635 0.404,0.519 0.866,0.998 1.149,1.313 0.284,0.315 0.39,0.466 0.491,0.609 0.101,0.142 0.198,0.276 0.351,0.879 0.152,0.603 0.36,1.675 0.439,2.419 0.078,0.745 0.027,1.161 -0.003,1.576 -0.03,0.415 -0.039,0.828 -0.073,1.354 -0.034,0.526 -0.094,1.165 -0.085,1.751 0.008,0.586 0.085,1.119 0.46,1.91 0.375,0.791 1.048,1.84 1.685,2.689 0.637,0.848 1.239,1.495 1.643,1.902 0.404,0.407 0.611,0.574 0.797,0.87 0.186,0.296 0.351,0.72 0.488,1.263 0.137,0.544 0.246,1.205 0.304,1.972 0.058,0.767 0.067,1.64 0.054,2.608 -0.013,0.968 -0.047,2.031 0.15,2.999 0.197,0.968 0.624,1.84 1.101,2.577 0.476,0.738 1,1.339 1.389,1.826 0.39,0.488 0.644,0.862 0.856,1.23 0.213,0.367 0.384,0.729 0.555,1.154 0.171,0.425 0.342,0.913 0.472,1.479 0.13,0.566 0.218,1.21 0.339,1.795 0.121,0.584 0.275,1.108 0.375,1.699 0.1,0.59 0.145,1.246 0.32,2.204 0.174,0.958 0.476,2.218 0.678,3.273 0.203,1.055 0.305,1.904 0.416,2.657 0.112,0.753 0.231,1.409 0.325,2.284 0.094,0.875 0.163,1.97 0.294,2.774 0.131,0.804 0.325,1.317 0.465,2.09 0.14,0.772 0.225,1.805 0.299,2.412 0.074,0.607 0.137,0.79 0.288,0.952 0.104,0.112 0.251,0.215 0.437,0.32 -0.079,-0.368 -0.154,-0.732 -0.127,-0.999 0.028,-0.278 0.168,-0.45 0.332,-0.556 0.164,-0.105 0.352,-0.145 0.75,-0.063 0.398,0.082 1.007,0.284 1.729,0.399 0.723,0.115 1.56,0.144 2.868,0.151 1.309,0.007 3.089,-0.007 5.568,-0.327 2.479,-0.319 5.657,-0.943 8.788,-1.599 3.132,-0.656 6.217,-1.344 9.657,-2.107 3.44,-0.762 7.234,-1.599 10.248,-2.124 3.014,-0.525 5.249,-0.737 8.16,-0.854 2.912,-0.118 6.502,-0.139 10.137,0.024 3.635,0.163 7.316,0.511 9.976,0.862 2.66,0.351 4.298,0.706 5.688,1.227 1.391,0.522 2.533,1.21 3.226,1.734 0.693,0.524 0.938,0.884 1.054,1.193 0.116,0.309 0.104,0.568 -0.007,0.887 -0.11,0.319 -0.318,0.698 -0.526,1.077 0.192,-0.063 0.354,-0.202 0.566,-0.399 0.232,-0.218 0.523,-0.509 0.64,-0.957 0.116,-0.447 0.059,-1.052 0.065,-2.577 0.006,-1.525 0.074,-3.972 0.052,-6.694 -0.023,-2.724 -0.137,-5.723 -0.194,-7.553 -0.057,-1.831 -0.057,-2.492 -0.057,-3.427 0,-0.936 0,-2.144 -0.029,-3.276 -0.028,-1.132 -0.085,-2.187 -0.111,-3.279 -0.025,-1.092 -0.02,-2.221 -0.091,-4.009 -0.072,-1.787 -0.22,-4.234 -0.3,-6.212 -0.079,-1.979 -0.091,-3.49 -0.231,-7.51 -0.139,-4.02 -0.407,-10.55 -0.929,-16.996 -0.522,-6.446 -1.297,-12.81 -2.278,-18.854 -0.981,-6.045 -2.167,-11.77 -3.341,-17.21 -1.175,-5.44 -2.338,-10.594 -3.867,-15.864 -1.528,-5.268 -3.421,-10.651 -5.246,-15.498 -1.824,-4.847 -3.581,-9.158 -4.618,-11.657 -1.038,-2.499 -1.357,-3.186 -1.494,-3.631 -0.137,-0.445 -0.092,-0.647 0.009,-0.803 0.102,-0.155 0.258,-0.263 0.386,-0.349 0.014,-0.01 0.028,-0.019 0.041,-0.029 -0.042,-0.002 -0.088,-0.005 -0.144,-0.008 -0.105,-0.005 -0.243,-0.013 -0.693,-0.048 -0.449,-0.035 -1.21,-0.098 -2.217,-0.107 -1.008,-0.008 -2.262,0.038 -3.577,0.132 -1.316,0.095 -2.692,0.24 -4.839,0.609 -2.148,0.368 -5.068,0.962 -7.478,1.498 -2.41,0.535 -4.311,1.014 -6.805,1.509 -2.494,0.494 -5.581,1.003 -8.679,1.418 -3.098,0.414 -6.208,0.733 -9.971,1.076 -3.764,0.341 -8.181,0.707 -11.872,0.965 -3.692,0.259 -6.657,0.41 -9.367,0.559 -2.711,0.148 -5.167,0.292 -7.957,0.403 -2.79,0.11 -5.915,0.186 -9.017,0.251 -3.102,0.064 -6.181,0.117 -9.116,0.11 -2.935,-0.008 -5.725,-0.076 -8.341,-0.137 -2.615,-0.061 -5.056,-0.114 -7.698,-0.194 -2.642,-0.08 -5.486,-0.186 -8.975,-0.285 -3.49,-0.099 -7.626,-0.19 -12.01,-0.217 -4.383,-0.026 -9.013,0.012 -12.845,0.008 -3.832,-0.004 -6.865,-0.049 -10.876,-0.205 -4.011,-0.156 -8.998,-0.422 -12.585,-0.69 -3.587,-0.268 -5.773,-0.538 -7.362,-0.856 -1.59,-0.318 -2.583,-0.683 -3.577,-1.049 0.044,0.064 0.021,0.188 -0.027,0.625 -0.062,0.551 -0.164,1.597 -0.449,3.521 -0.286,1.925 -0.753,4.728 -1.058,6.779 -0.305,2.052 -0.448,3.352 -0.79,5.493 -0.342,2.141 -0.884,5.124 -1.32,7.752 -0.436,2.629 -0.767,4.904 -1.029,6.823 -0.263,1.919 -0.457,3.481 -0.636,5.294 -0.18,1.814 -0.345,3.878 -0.525,6.376 -0.18,2.497 -0.373,5.428 -0.567,8.701 -0.194,3.273 -0.388,6.888 -0.53,10.743 -0.143,3.855 -0.234,7.949 -0.206,12.14 0.029,4.192 0.177,8.48 0.468,12.648 0.291,4.169 0.724,8.217 1.009,11.855 0.285,3.638 0.422,6.865 0.485,10.435 0.063,3.57 0.051,7.481 0.091,11.969 0.04,4.488 0.131,9.552 0.223,13.777 0.091,4.225 0.182,7.612 0.266,9.945 0.084,2.332 0.162,3.609 0.193,4.373 0.031,0.764 0.017,1.015 0.027,2.23 0.01,1.214 0.044,3.393 0.078,4.946 0.035,1.554 0.069,2.484 0.137,3.037 0.068,0.553 0.171,0.73 0.482,1.055 0.311,0.325 0.83,0.798 2.632,1.177 1.802,0.38 4.886,0.665 7.829,0.918 2.942,0.254 5.742,0.476 10.492,0.73 4.75,0.254 11.451,0.539 16.4,0.753 4.95,0.214 8.149,0.356 10.954,0.382 2.806,0.026 5.218,-0.066 7.656,-0.143 2.438,-0.077 4.901,-0.139 7.25,-0.216 2.35,-0.077 4.585,-0.168 7.735,-0.565 3.151,-0.396 7.217,-1.098 9.757,-1.616 2.54,-0.519 3.556,-0.856 4.448,-1.309 0.892,-0.453 1.662,-1.024 2.078,-1.386 0.417,-0.362 0.479,-0.516 0.539,-0.807z"/>
 </g>
</svg>
