<?xml version="1.0" encoding="UTF-8"?>
<!DOCTYPE svg PUBLIC "-//W3C//DTD SVG 1.1//EN" "http://www.w3.org/Graphics/SVG/1.1/DTD/svg11.dtd">
<!-- Creator: CorelDRAW 2020 (64 Bit) -->
<svg xmlns="http://www.w3.org/2000/svg" xml:space="preserve" width="232px" height="294px" version="1.1" shape-rendering="geometricPrecision" text-rendering="geometricPrecision" image-rendering="optimizeQuality" fill-rule="evenodd" clip-rule="evenodd"
viewBox="0 0 224820 284513"
 xmlns:xlink="http://www.w3.org/1999/xlink"
 xmlns:xodm="http://www.corel.com/coreldraw/odm/2003">
 <g id="Camada_x0020_1">
  <metadata id="CorelCorpID_0Corel-Layer"/>
  <path id="d1" fill="#F00808" d="M57544 283082l0 -109952 -6865 0c-107,4529 -734,7919 -955,12016l-4249 39436c-1327,9516 -7438,43305 -7526,53531 365,1640 1379,1683 3791,2432 3471,1077 9641,1938 15804,2537zm-33020 -214770c636,-4387 1469,-7681 2805,-10564 1628,-3515 3953,-6335 6552,-8881 -183,-1249 -372,-2502 -561,-3719 -185,-1189 -371,-2344 -553,-3427 -640,-3805 -1238,-6724 -1787,-9180 -86,42 -172,84 -257,126l-4 2c-1377,721 -2708,1542 -3971,2507 -4119,3150 -7511,7834 -9812,15103 -2302,7269 -3514,17121 -4645,30447 -823,9704 -1603,21248 -2372,33293l10824 0c815,-11058 1567,-21141 2175,-28999 546,-7068 983,-12408 1606,-16708zm12876 4024c-414,-1897 -838,-4118 -1141,-6066 -302,-1948 -484,-3624 -1059,-7954 -218,-1638 -492,-3656 -797,-5818 -1767,1928 -3313,4031 -4440,6465 -1208,2608 -1971,5655 -2566,9758 -608,4188 -1040,9490 -1583,16515 -611,7893 -1355,17874 -2159,28783l8689 0c760,-12880 1628,-24636 2925,-31960 696,-3936 1516,-6593 2410,-8482 -93,-401 -185,-812 -279,-1241zm162745 12833c-1375,-5940 -2953,-11008 -4841,-15367 -1872,-4323 -4053,-7964 -6649,-11086 -343,-413 -694,-817 -1052,-1213 -9,250 -18,496 -26,735 -136,4164 -65,6627 182,8318 247,1691 671,2610 918,3558 248,949 318,1928 323,2862 5,934 -55,1822 -257,2715 -202,893 -546,1792 -899,2927 -354,1136 -717,2508 -975,3548 -46,189 -90,367 -130,537 1564,3048 2962,6528 4078,10744 1522,5747 2520,12860 3289,20572l10882 0c-394,-2973 -798,-5898 -1216,-8742 -1071,-7292 -2246,-14143 -3627,-20108zm-2184 -16514c1968,4544 3601,9775 5012,15867 1405,6069 2593,12989 3672,20335 441,3004 863,6066 1273,9162l10300 0c-1527,-11562 -3180,-23007 -5312,-34019 -2907,-15022 -6703,-29236 -12316,-38201 -3224,-5148 -7047,-8565 -11125,-11245 -8,91 -17,182 -25,274 -313,3402 -677,7459 -1030,12420 -233,3278 -462,6950 -630,10266 1080,1055 2117,2167 3100,3351 2775,3337 5097,7209 7081,11790zm-31763 104475l0 109975 1394 -73c6381,28 12407,-1396 17223,-2863 2477,-755 8417,-3220 9820,-5368l1185 -3072c-339,-4186 -1864,-8451 -2723,-14143l-6921 -43073c-1578,-9466 -3157,-18930 -4735,-28636 -635,-4020 -1638,-8589 -2046,-12747l-13197 0zm-52769 0l0 111382 14979 0c2717,0 5266,-71 7747,-159l0 -111223 -22726 0zm-24763 0l0 111372c332,8 677,11 1038,11l21688 -1 0 -111382 -22726 0z"/>
  <path id="camisa_contorno" fill="none" d="M28187 20860c-5441,2966 -10056,7068 -14882,13586 -7770,10435 -9347,28393 -9226,41740 0,9100 -1456,14803 -2670,22813 -1138,7719 -1601,14377 -1336,22949 63,2032 2286,1190 4291,1612l37104 -25c124,-1849 -150,-4637 -28,-5971 108,-1547 477,-6005 1012,-6003 214,0 454,712 716,2605 242,1091 365,1698 486,2426l3278 14803c4735,23662 3763,13467 3763,40405 0,5218 -729,8858 -971,13346l-4249 39436c-1327,9516 -7438,43305 -7526,53531 365,1640 1379,1683 3791,2432 6851,2127 24224,3410 31288,3497 2756,33 5622,-118 8364,-36 2817,84 4797,514 8312,507l38704 -1c7260,0 13326,-509 20088,-489l19096 -991c6381,28 12407,-1396 17223,-2863 2477,-755 8417,-3220 9820,-5368l1185 -3072c-339,-4186 -1864,-8451 -2723,-14143l-6921 -43073c-1578,-9466 -3157,-18930 -4735,-28636 -729,-4614 -1942,-9952 -2185,-14561 -122,-2671 243,-5461 -122,-8132 -1093,-7765 243,-21236 1214,-29001 1291,-8657 2163,-21432 4019,-24601 20,-35 41,-69 61,-102l477 3842 298 5392c346,1904 578,3138 2872,3141l33701 45c3763,0 3126,-2033 2761,-4582 -364,-2911 0,-5823 -122,-8737l-1454 -15651c-2064,-14682 -2307,-16502 -3399,-31426 -487,-5218 -244,-11407 -1701,-15532 -2306,-6916 -8377,-16380 -14446,-19899 -7691,-4537 -8852,-6003 -12778,-7487 -2271,-859 -5465,-1723 -11381,-3190 -6798,-1699 -18695,-6431 -25131,-9222l-8984 -4247c-4735,-3398 -1700,-1699 -16753,485l-19788 1091c-3400,0 -16146,-606 -19666,-1334 -2305,-362 -5099,-1455 -7282,-1455 -971,0 -3035,1820 -4006,2427l-13234 5824c-3035,1215 -5949,2671 -9347,3519 -3398,850 -6798,1577 -10318,2427 -6573,1684 -11873,3395 -16560,5949z"/>
 </g>
</svg>
