<?xml version="1.0" encoding="utf-8"?>
<!-- Generator: Adobe Illustrator 16.0.3, SVG Export Plug-In . SVG Version: 6.00 Build 0)  -->
<!DOCTYPE svg PUBLIC "-//W3C//DTD SVG 1.1//EN" "http://www.w3.org/Graphics/SVG/1.1/DTD/svg11.dtd">
<svg version="1.1" id="Layer_1" xmlns="http://www.w3.org/2000/svg" xmlns:xlink="http://www.w3.org/1999/xlink" x="0px" y="0px"
	 width="187px" height="147.488px" viewBox="0 0 187 147.488" enable-background="new 0 0 187 147.488" xml:space="preserve">
<path id="d1" fill="#ED1C24" d="M186.71,114.315v-2.494l-0.057,1.151v-1.688h-0.137v-5.759h-0.543v6.81h-0.308v3.993v-3.304h-0.544
	V102.71h-0.544v6.766h-0.229V99.161h-0.544v13.864h-0.095V102.71h-0.543v10.793h-0.015v-11.365h-0.542v11.275h-0.544v3.107h-0.174
	v-3.018h-0.542v-2.218h-0.542v1.283h-0.178v-9.858h-0.543v12.123h-0.307v-1.808h-0.095v-7.34h-0.792v3.418h-0.434v4.538h-0.091
	v-0.616h-0.096v-7.34H177.5v9.147h-0.208v-0.759h-0.545v-4.971h-0.115v-3.418h-0.543v9.147h-0.391v1.283h-0.123v-14.139h-0.543
	v3.777h-0.543v9.078h-0.203v1.283h-0.392v-3.464h-0.544v4.537h-0.032v-1.923h-0.287v-2.614h-0.544v0.132h-0.004v-0.132h-0.544v4.537
	h-0.079v-11.663h-0.545v3.775h-0.543v1.228h-0.256v4.053h-0.053V102.71h-0.542v6.592h-0.545v4.042v-0.772h-0.032v4.3v-1.901h-0.291
	v-12.26h-0.543v6.592h-0.543v4.042v-0.772h-0.305v-0.049v3.813h-0.32v-2.258h-0.345v-0.092h-0.543v-1.508h-0.544v1.6h-0.507v-2.189
	h-0.23v-5.4h-0.544v-7.326h-0.544v14.916h-0.092v-2.189h-0.304v2.189h-0.543v1.527h-0.208v-6.089h-0.543v6.511h-0.118v-1.949h-0.543
	v3.457h-0.277v-7.498h-0.404v-5.719h-0.141v-1.607h-0.543v14.824h-0.308v-7.498h-0.533v-4.351h-0.555v7.379h-0.294v-0.782h-0.029
	v1.795v-4.041h-0.438v-6.117h-0.543v1.767h-0.107v7.379h-0.226v-5.198h-0.543v6.283h-0.335v-8.395h-0.544v2.111h-0.515v7.381h-0.22
	v2.416h-0.543v-12.547h-0.544v2.351h-0.142v7.78h-0.507v0.584h-0.158v1.867h-0.15v-9.231h-0.035v-1h-0.543v1.835H152.2v2.779h-0.148
	v3.75h-0.159v1.867h-0.2v-10.231h-0.543v1.835h-0.227v-0.637h-0.545v8.914h-0.148v0.119h-0.292v-8.396h-0.374V99.161h-0.544v9.504
	h-0.036v3.35h-0.104v4.768h-0.403v-4.929v3.114h-0.358v-6.303h-0.543v3.35h-0.091v4.506h-0.427v0.994h-0.333v-6.495h-0.545v0.995
	h-0.105v4.506h-0.227V102.71h-0.543v3.482h-0.336v7.141h-0.516v-6.326h-0.544v7.079h-0.543v0.733h-0.151v1.301v-2.197h-0.173v-6.916
	h-0.37v-0.734h-0.544v11.493v-3.68h-0.174v0.733h-0.157v-5.078h-0.545v0.72h-0.469v1.556h-0.381v-2.275h-0.544v4.824h-0.202v2.316
	h-0.277v-2.959h-0.388v-4.182h-0.544v0.08h-0.035v5.209h-0.12v1.852h-0.388v0.59h-0.294v-3.463h-0.05v-4.188h-0.543v-0.346h-0.543
	v-8.997h-0.544v9.343h-0.323v5.744H135.2v-0.957h-0.396v-0.6h-0.147v-4.055h-0.544v5.611h-0.395v-3.723v0.493h-0.279v3.036v-2.399
	h-0.545v-1.688h-0.137v-7.258h-0.543v8.309h-0.308v3.993v-3.304h-0.544v-6.019h-0.544v2.469h-0.229V99.161h-0.543v13.864h-0.095
	v-6.019h-0.544v6.496h-0.012v-11.365h-0.545v11.275h-0.543v3.107h-0.174v-3.018h-0.543v-2.218h-0.543v1.283h-0.174v-9.858h-0.544
	v12.123h-0.309v-1.808h-0.343v-7.34h-0.2v-2.976h-0.544v6.394h-0.232v4.538h-0.092v-0.616h-0.327v-7.34h-0.216v-2.976h-0.543v11.364
	h-0.537v-4.971h-0.115v-3.418h-0.543v9.147h-0.393v1.283h-0.12V99.374h-0.544v6.381h-0.543v9.078h-0.203v1.283h-0.392v-3.464h-0.544
	v4.537h-0.031v-1.923h-0.289v-2.614h-0.543v0.132h-0.004v-0.132h-0.544v4.537h-0.079v-14.267h-0.545v6.379h-0.543v1.228h-0.257
	v4.053h-0.051V102.71h-0.543v6.592h-0.544v4.042v-0.772h-0.033v4.3v-1.901h-0.291v-12.26h-0.543v6.592h-0.544v4.042v-0.772h-0.304
	v-0.049v3.813h-0.32v-2.258h-0.344v-0.092h-0.544v-1.508h-0.544v1.6h-0.506v-2.189h-0.232v-5.4h-0.544v-8.48h-0.543v16.07h-0.092
	v-2.189h-0.304v2.189h-0.543v1.527h-0.207v-6.089h-0.544v6.511h-0.116v-1.949h-0.545v0.188c0.447,2.39,0.979,4.977,1.469,6.485
	c0.949,2.92,2.298,13.045,3.168,16.912c1.036,4.602,0.163,5.569,7.431,7.421c6.652,1.694,15.705,1.21,22.153,1.97
	c4.115,0.486,19.475,0.632,23.482,0.086c3.422-0.464,6.822-0.809,10.133-1.574c4.369-1.01,9.014-2.873,10.068-7.855
	c0.302-1.42,0.39-3.822,0.52-5.467c0.07-0.896,0.009-2.075,0.005-3c-0.005-1.329,0.2-1.727,0.202-2.994
	C186.612,122.175,186.663,118.245,186.71,114.315z M107.696,112.744v-2.708h-0.4v-5.719h-0.143v-2.762h-0.543v6.229
	c0.262,0.789,0.492,1.591,0.64,2.447C107.372,110.919,107.524,111.789,107.696,112.744z M80.701,107.007h-0.303v0.889
	C80.495,107.598,80.598,107.302,80.701,107.007z M79.989,109.302h-0.135v0.604C79.896,109.702,79.94,109.501,79.989,109.302z
	 M79.548,111.626v-10.07h-0.544v7.746H78.46v5.668h-0.231v-4.44h-0.092v-8.974h-0.544v7.746h-0.544v7.871h-0.278v-3.096h-0.258v-1.6
	H75.97v2.206h-0.544v2.489h-0.051v-3.096h-0.544v-2.189h-0.319v2.189h-0.257v-7.59h-0.543v-7.326h-0.544v16.458v-3.731h-0.051v2.189
	h-0.544v1.949h-0.032v-6.921h-0.544v4.536h-0.544v0.436h-0.29v1.949h-0.305v-4.039h-0.032v4.217v-2.13h-0.288v-4.038h-0.256v-0.931
	h-0.287v-6.396h-0.544v13.316h-0.004v-4.039h-0.303v2.09v-4.041h-0.543v-3.973h-0.545v6.909h-0.121v-1.688h-0.202v-1.249h-0.544
	v-3.973h-0.543v7.7h-0.081v-1.111h-0.433v-10.675H65.59v10.675h-0.115v4.537h-0.304v-4.537h-0.231V99.161h-0.544v9.583h-0.544v6.089
	h-0.091v-2.181h-0.544v3.868h-0.393v-1.688h-0.19v-3.548h-0.217v-5.759h-0.544v7.042h-0.327v3.952h-0.133v-1.688h-0.19V102.71
	h-0.544v2.816h-0.2v4.428h-0.149v2.338h-0.194v1.912h-0.307V102.71h-0.544v2.816h-0.217v6.766h-0.013v-8.834h-0.544v5.286h-0.094
	v-6.034h-0.543v9.582H57.33v2.541h-0.175v-1.33h-0.543v1.893H56.15v-1.473h-0.39v-0.42h-0.423v-6.496h-0.544v5.285h-0.543v0.235
	h-0.049v-2.066h-0.259v-3.454H53.4v5.285h-0.543v-6.18h-0.544v0.895h-0.324v5.285h-0.544v3.303V112.7h-0.406v4.771h-0.01v-1.396
	h-0.469v-2.232h-0.544v-7.651h-0.544v9.884h-0.332v-6.415h-0.543v1.358h-0.336v5.763h-0.038v-0.706h-0.478v-6.415h-0.544v4.348
	h-0.066v2.793h-0.477v0.59h-0.324v-7.73h-0.37v-6.203h-0.543v13.344h-0.174v0.59H45.09v-2.824h-0.185v-4.826h-0.544v8.293h-0.15
	v-4.606h-0.544v1.14h-0.173v-4.826h-0.543v4.345h-0.019v-1.551h-0.542v-3.615h-0.143v-1.913h-0.544v7.079h-0.508v0.733H40.89
	v-10.064h-0.036v-2.045h-0.543v14.266h-0.359v0.326h-0.149v-2.482h-0.358V102.71h-0.544v2.684h-0.375v7.074H38.13v1.32H37.98v1.549
	h-0.291v1.639h-0.376v-13.057h-0.543v4.385h-0.142v9.641h-0.402v-5.197v1.859h-0.142v1.477h-0.217v-3.615h-0.09v-4.164h-0.544v0.637
	h-0.427v8.396h-0.335v-13.02H33.93v3.986h-0.106v0.637h-0.226v-1.474h-0.544v9.87H32.87v-2.09h-0.281v-5.731h-0.043v-0.575h-0.344
	v-1.474h-0.544v7.731h-0.157v2.139h-0.042v-2.09h-0.343v0.584h-0.217v-14.726h-0.556v4.649h-0.532v9.492h-0.106v0.584h-0.343v-7.965
	h-0.544v4.611h-0.289v0.587h-0.201v0.56h-0.343v2.144v-3.265h-0.034v-4.637h-0.544v5.198h-0.226v-8.411h-0.555v4.648h-0.531v5.28
	h-0.029v-1.518h-0.279V102.71h-0.543v6.592H24.7v5.668h-0.231v-4.44h-0.092v-7.819h-0.544v6.592H23.29v7.871h-0.28v-3.096h-0.257
	v-1.6H22.21v2.206h-0.544v2.489h-0.051v-3.096h-0.544v-2.189h-0.319v2.189h-0.257v-7.59h-0.543v-7.326h-0.544v16.458v-3.731h-0.051
	v2.189h-0.544v1.949H18.78v-6.921h-0.544v4.536h-0.543v0.436h-0.291v1.949h-0.304v-4.039h-0.032v4.217v-2.13h-0.288v-4.038h-0.256
	v-0.931h-0.287v-6.396h-0.543v13.316h-0.005v-4.039h-0.303v2.09v-4.041h-0.544v-4.51h-0.544v7.446h-0.121v-1.688h-0.202v-1.249
	H13.43v-4.51h-0.543v8.237h-0.081v-1.111h-0.432v-10.675H11.83v10.675h-0.115v4.537h-0.304v-4.537h-0.543v3.868h-0.126v-15.415
	h-0.556v7.639h-0.095v6.089h-0.091v-2.181H9.457v3.868H9.064v-1.688h-0.19v-3.548H8.656v-5.759H8.114v7.042H7.786v3.952H7.654
	v-1.688H7.263v-9.307H7.026v-0.873H6.471v7.639H6.375v1.912H6.068V102.71H5.524v2.816H5.309v6.766H5.295V99.161H4.751v9.583H4.657
	v-6.034H4.113v9.582H3.57v2.541H3.396v-1.33H2.853v1.893H2.391v-1.473H2.002v-0.42H1.578V102.71H1.034v9.582H0.492v0.235h-0.05
	v-2.066H0.29c0.052,5.233,0.141,10.383,0.147,15.788c0.002,1.268,0.208,1.665,0.203,2.994c-0.004,0.925-0.065,2.104,0.005,3
	c0.13,1.645,0.218,4.047,0.519,5.467c1.055,4.982,5.7,6.846,10.069,7.855c3.31,0.766,6.71,1.11,10.133,1.574
	c4.008,0.546,19.366,0.4,23.481-0.086c6.449-0.76,15.502-0.275,22.153-1.97c7.269-1.852,6.396-2.819,7.432-7.421
	c0.87-3.867,2.219-13.992,3.167-16.912C78.283,118.649,79.043,114.47,79.548,111.626z"/>
</svg>
