<?xml version="1.0" encoding="UTF-8"?>
<!DOCTYPE svg PUBLIC "-//W3C//DTD SVG 1.1//EN" "http://www.w3.org/Graphics/SVG/1.1/DTD/svg11.dtd">
<!-- Creator: CorelDRAW -->
<svg xmlns="http://www.w3.org/2000/svg" xml:space="preserve" width="181px" height="149px" version="1.1" shape-rendering="geometricPrecision" text-rendering="geometricPrecision" image-rendering="optimizeQuality" fill-rule="evenodd" clip-rule="evenodd"
viewBox="0 0 205.498 169.387"
 xmlns:xlink="http://www.w3.org/1999/xlink"
 xmlns:xodm="http://www.corel.com/coreldraw/odm/2003">
 <defs>
   <clipPath id="id0">
    <path d="M91.234 163.341c0.06,-0.29 0.117,-0.718 0.209,-2.252 0.091,-1.534 0.216,-4.174 0.518,-9.369 0.303,-5.195 0.782,-12.944 1.164,-18.604 0.382,-5.659 0.667,-9.229 1.038,-13.175 0.37,-3.946 0.826,-8.268 1.397,-12.773 0.57,-4.505 1.254,-9.192 2.132,-14.518 0.879,-5.326 1.95,-11.291 2.766,-15.197 0.815,-3.906 1.374,-5.753 1.733,-6.921 0.358,-1.167 0.516,-1.655 0.64,-1.921 0.123,-0.267 0.212,-0.313 0.296,-0.305 0.084,0.008 0.164,0.069 0.266,0.183 0.103,0.113 0.228,0.278 0.391,0.627 0.163,0.349 0.362,0.88 0.684,1.602 0.321,0.721 0.764,1.632 1.146,2.525 0.381,0.893 0.7,1.768 0.836,2.443 0.135,0.674 0.087,1.147 0.127,1.679 0.04,0.532 0.168,1.122 0.504,1.619 0.337,0.498 0.881,0.903 1.195,1.44 0.314,0.538 0.396,1.208 0.602,2.158 0.205,0.951 0.533,2.183 0.646,3.113 0.112,0.929 0.009,1.556 -0.098,2.148 -0.106,0.591 -0.218,1.148 -0.101,1.705 0.117,0.557 0.462,1.116 0.865,1.635 0.404,0.519 0.866,0.998 1.149,1.313 0.284,0.315 0.39,0.466 0.491,0.609 0.101,0.142 0.198,0.276 0.351,0.879 0.152,0.603 0.36,1.675 0.439,2.419 0.078,0.745 0.027,1.161 -0.003,1.576 -0.03,0.415 -0.039,0.828 -0.073,1.354 -0.034,0.526 -0.094,1.165 -0.085,1.751 0.008,0.586 0.085,1.119 0.46,1.91 0.375,0.791 1.048,1.84 1.685,2.689 0.637,0.848 1.239,1.495 1.643,1.902 0.404,0.407 0.611,0.574 0.797,0.87 0.186,0.296 0.351,0.72 0.488,1.263 0.137,0.544 0.246,1.205 0.304,1.972 0.058,0.767 0.067,1.64 0.054,2.608 -0.013,0.968 -0.047,2.031 0.15,2.999 0.197,0.968 0.624,1.84 1.101,2.577 0.476,0.738 1,1.339 1.389,1.826 0.39,0.488 0.644,0.862 0.856,1.23 0.213,0.367 0.384,0.729 0.555,1.154 0.171,0.425 0.342,0.913 0.472,1.479 0.13,0.566 0.218,1.21 0.339,1.795 0.121,0.584 0.275,1.108 0.375,1.699 0.1,0.59 0.145,1.246 0.32,2.204 0.174,0.958 0.476,2.218 0.678,3.273 0.203,1.055 0.305,1.904 0.416,2.657 0.112,0.753 0.231,1.409 0.325,2.284 0.094,0.875 0.163,1.97 0.294,2.774 0.131,0.804 0.325,1.317 0.465,2.09 0.14,0.772 0.225,1.805 0.299,2.412 0.074,0.607 0.137,0.79 0.288,0.952 0.104,0.112 0.251,0.215 0.437,0.32 -0.079,-0.368 -0.154,-0.732 -0.127,-0.999 0.028,-0.278 0.168,-0.45 0.332,-0.556 0.164,-0.105 0.352,-0.145 0.75,-0.063 0.398,0.082 1.007,0.284 1.729,0.399 0.723,0.115 1.56,0.144 2.868,0.151 1.309,0.007 3.089,-0.007 5.568,-0.327 2.479,-0.319 5.657,-0.943 8.788,-1.599 3.132,-0.656 6.217,-1.344 9.657,-2.107 3.44,-0.762 7.234,-1.599 10.248,-2.124 3.014,-0.525 5.249,-0.737 8.16,-0.854 2.912,-0.118 6.502,-0.139 10.137,0.024 3.635,0.163 7.316,0.511 9.976,0.862 2.66,0.351 4.298,0.706 5.688,1.227 1.391,0.522 2.533,1.21 3.226,1.734 0.693,0.524 0.938,0.884 1.054,1.193 0.116,0.309 0.104,0.568 -0.007,0.887 -0.11,0.319 -0.318,0.698 -0.526,1.077 0.192,-0.063 0.354,-0.202 0.566,-0.399 0.232,-0.218 0.523,-0.509 0.64,-0.957 0.116,-0.447 0.059,-1.052 0.065,-2.577 0.006,-1.525 0.074,-3.972 0.052,-6.694 -0.023,-2.724 -0.137,-5.723 -0.194,-7.553 -0.057,-1.831 -0.057,-2.492 -0.057,-3.427 0,-0.936 0,-2.144 -0.029,-3.276 -0.028,-1.132 -0.085,-2.187 -0.111,-3.279 -0.025,-1.092 -0.02,-2.221 -0.091,-4.009 -0.072,-1.787 -0.22,-4.234 -0.3,-6.212 -0.079,-1.979 -0.091,-3.49 -0.231,-7.51 -0.139,-4.02 -0.407,-10.55 -0.929,-16.996 -0.522,-6.446 -1.297,-12.81 -2.278,-18.854 -0.981,-6.045 -2.167,-11.77 -3.341,-17.21 -1.175,-5.44 -2.338,-10.594 -3.867,-15.864 -1.528,-5.268 -3.421,-10.651 -5.246,-15.498 -1.824,-4.847 -3.581,-9.158 -4.618,-11.657 -1.038,-2.499 -1.357,-3.186 -1.494,-3.631 -0.137,-0.445 -0.092,-0.647 0.009,-0.803 0.102,-0.155 0.258,-0.263 0.386,-0.349 0.014,-0.01 0.028,-0.019 0.041,-0.029 -0.042,-0.002 -0.088,-0.005 -0.144,-0.008 -0.105,-0.005 -0.243,-0.013 -0.693,-0.048 -0.449,-0.035 -1.21,-0.098 -2.217,-0.107 -1.008,-0.008 -2.262,0.038 -3.577,0.132 -1.316,0.095 -2.692,0.24 -4.839,0.609 -2.148,0.368 -5.068,0.962 -7.478,1.498 -2.41,0.535 -4.311,1.014 -6.805,1.509 -2.494,0.494 -5.581,1.003 -8.679,1.418 -3.098,0.414 -6.208,0.733 -9.971,1.076 -3.764,0.341 -8.181,0.707 -11.872,0.965 -3.692,0.259 -6.657,0.41 -9.367,0.559 -2.711,0.148 -5.167,0.292 -7.957,0.403 -2.79,0.11 -5.915,0.186 -9.017,0.251 -3.102,0.064 -6.181,0.117 -9.116,0.11 -2.935,-0.008 -5.725,-0.076 -8.341,-0.137 -2.615,-0.061 -5.056,-0.114 -7.698,-0.194 -2.642,-0.08 -5.486,-0.186 -8.975,-0.285 -3.49,-0.099 -7.626,-0.19 -12.01,-0.217 -4.383,-0.026 -9.013,0.012 -12.845,0.008 -3.832,-0.004 -6.865,-0.049 -10.876,-0.205 -4.011,-0.156 -8.998,-0.422 -12.585,-0.69 -3.587,-0.268 -5.773,-0.538 -7.362,-0.856 -1.59,-0.318 -2.583,-0.683 -3.577,-1.049 0.044,0.064 0.021,0.188 -0.027,0.625 -0.062,0.551 -0.164,1.597 -0.449,3.521 -0.286,1.925 -0.753,4.728 -1.058,6.779 -0.305,2.052 -0.448,3.352 -0.79,5.493 -0.342,2.141 -0.884,5.124 -1.32,7.752 -0.436,2.629 -0.767,4.904 -1.029,6.823 -0.263,1.919 -0.457,3.481 -0.636,5.294 -0.18,1.814 -0.345,3.878 -0.525,6.376 -0.18,2.497 -0.373,5.428 -0.567,8.701 -0.194,3.273 -0.388,6.888 -0.53,10.743 -0.143,3.855 -0.234,7.949 -0.206,12.14 0.029,4.192 0.177,8.48 0.468,12.648 0.291,4.169 0.724,8.217 1.009,11.855 0.285,3.638 0.422,6.865 0.485,10.435 0.063,3.57 0.051,7.481 0.091,11.969 0.04,4.488 0.131,9.552 0.223,13.777 0.091,4.225 0.182,7.612 0.266,9.945 0.084,2.332 0.162,3.609 0.193,4.373 0.031,0.764 0.017,1.015 0.027,2.23 0.01,1.214 0.044,3.393 0.078,4.946 0.035,1.554 0.069,2.484 0.137,3.037 0.068,0.553 0.171,0.73 0.482,1.055 0.311,0.325 0.83,0.798 2.632,1.177 1.802,0.38 4.886,0.665 7.829,0.918 2.942,0.254 5.742,0.476 10.492,0.73 4.75,0.254 11.451,0.539 16.4,0.753 4.95,0.214 8.149,0.356 10.954,0.382 2.806,0.026 5.218,-0.066 7.656,-0.143 2.438,-0.077 4.901,-0.139 7.25,-0.216 2.35,-0.077 4.585,-0.168 7.735,-0.565 3.151,-0.396 7.217,-1.098 9.757,-1.616 2.54,-0.519 3.556,-0.856 4.448,-1.309 0.892,-0.453 1.662,-1.024 2.078,-1.386 0.417,-0.362 0.479,-0.516 0.539,-0.807z"/>
   </clipPath>
    <clipPath id="id1">
     <path d="M126.868 7.208c-3.692,0.259 -6.657,0.41 -9.367,0.559 -2.711,0.148 -5.167,0.292 -7.957,0.403 -2.79,0.11 -5.915,0.186 -9.017,0.251l-0.168 0.003 -0.203 0.004 -0.658 0.014 -0.07 0.001 -0.359 0.007 -0.209 0.004 -0.131 0.003 -0.253 0.004 -0.26 0.005 -0.531 0.009 -0.079 0.002 -0.276 0.004 -0.23 0.004 -0.357 0.006 -0.115 0.002 -0.088 0.001 -0.101 0.001 -0.118 0.002 -0.783 0.01 -0.066 0.001c0.077,0.533 0.157,1.09 0.241,1.678 0.521,3.612 1.205,8.363 1.612,11.976 0.408,3.612 0.539,6.086 1.088,9.846 0.549,3.758 1.516,8.803 2.362,13.439 0.846,4.636 1.571,8.864 2.128,11.482 0.557,2.618 0.946,3.625 1.265,4.398 0.319,0.772 0.568,1.31 0.72,1.7 0.152,0.39 0.206,0.631 0.184,0.807 -0.021,0.175 -0.12,0.285 -0.256,0.446 -0.135,0.161 -0.307,0.373 -0.481,0.599 -0.173,0.226 -0.349,0.466 -0.581,1.057 -0.233,0.592 -0.523,1.535 -0.813,2.478l0.001 -0.001c0.014,-0.019 0.028,-0.034 0.041,-0.047l0.006 -0.006 0.009 -0.009 0.004 -0.004 0.005 -0.003 0.011 -0.008 0.001 -0.001 0.023 -0.014 0.005 -0.002 0.001 -0.001 0.01 -0.004 0.022 -0.006 0.001 0 0.004 0 0.003 -0.001 0.005 -0.001 0.007 0 0.002 0 0.005 -0.001 0.004 0 0.005 0.001 0.003 0 0.004 0 0.004 0c0.084,0.008 0.164,0.069 0.266,0.183 0.103,0.113 0.228,0.278 0.391,0.627 0.163,0.349 0.362,0.88 0.684,1.602 0.321,0.721 0.764,1.632 1.146,2.525 0.381,0.893 0.7,1.768 0.836,2.443 0.135,0.674 0.087,1.147 0.127,1.679 0.04,0.532 0.168,1.122 0.504,1.619 0.337,0.498 0.881,0.903 1.195,1.44 0.314,0.538 0.396,1.208 0.602,2.158 0.205,0.951 0.533,2.183 0.646,3.113 0.112,0.929 0.009,1.556 -0.098,2.148 -0.106,0.591 -0.218,1.148 -0.101,1.705 0.117,0.557 0.462,1.116 0.865,1.635 0.404,0.519 0.866,0.998 1.149,1.313 0.284,0.315 0.39,0.466 0.491,0.609 0.101,0.142 0.198,0.276 0.351,0.879 0.152,0.603 0.36,1.675 0.439,2.419 0.078,0.745 0.027,1.161 -0.003,1.576 -0.03,0.415 -0.039,0.828 -0.073,1.354 -0.034,0.526 -0.094,1.165 -0.085,1.751 0.008,0.586 0.085,1.119 0.46,1.91 0.375,0.791 1.048,1.84 1.685,2.689 0.637,0.848 1.239,1.495 1.643,1.902 0.404,0.407 0.611,0.574 0.797,0.87 0.186,0.296 0.351,0.72 0.488,1.263 0.137,0.544 0.246,1.205 0.304,1.972 0.058,0.767 0.067,1.64 0.054,2.608 -0.013,0.968 -0.047,2.031 0.15,2.999 0.197,0.968 0.624,1.84 1.101,2.577 0.476,0.738 1,1.339 1.389,1.826 0.39,0.488 0.644,0.862 0.856,1.23 0.213,0.367 0.384,0.729 0.555,1.154 0.171,0.425 0.342,0.913 0.472,1.479 0.13,0.566 0.218,1.21 0.339,1.795 0.121,0.584 0.275,1.108 0.375,1.699 0.1,0.59 0.145,1.246 0.32,2.204 0.174,0.958 0.476,2.218 0.678,3.273 0.203,1.055 0.305,1.904 0.416,2.657 0.112,0.753 0.231,1.409 0.325,2.284 0.094,0.875 0.163,1.97 0.294,2.774 0.131,0.804 0.325,1.317 0.465,2.09 0.14,0.772 0.225,1.805 0.299,2.412 0.074,0.607 0.137,0.79 0.288,0.952l0.005 0.005 0.005 0.006 0.005 0.005 0.01 0.01 0.006 0.005 0.015 0.016 0.012 0.01 0.005 0.005 0.006 0.005 0.005 0.006 0.006 0.005 0.012 0.01 0.012 0.01 0.006 0.005 0.006 0.005 0.013 0.01 0.006 0.005 0.019 0.015 0.007 0.005 0.007 0.005 0.02 0.015 0.007 0.005 0.007 0.005 0.028 0.02 0.014 0.009 0.008 0.005 0.015 0.01 0.015 0.01 0.015 0.01 0.008 0.005 0.016 0.009 0.008 0.005 0.008 0.005 0.016 0.01 0.016 0.01 0.025 0.014 0.009 0.006 0.008 0.004 0.009 0.005 0.009 0.005 0.008 0.005c-0.079,-0.368 -0.154,-0.732 -0.127,-0.999 0.028,-0.278 0.168,-0.45 0.332,-0.556 0.164,-0.105 0.352,-0.145 0.75,-0.063 0.398,0.082 1.007,0.284 1.729,0.399 0.723,0.115 1.56,0.144 2.868,0.151 1.309,0.007 3.089,-0.007 5.568,-0.327 2.479,-0.319 5.657,-0.943 8.788,-1.599 3.132,-0.656 6.217,-1.344 9.657,-2.107 3.44,-0.762 7.234,-1.599 10.248,-2.124 3.014,-0.525 5.249,-0.737 8.16,-0.854 2.912,-0.118 6.502,-0.139 10.137,0.024 3.635,0.163 7.316,0.511 9.976,0.862 2.66,0.351 4.298,0.706 5.688,1.227 1.391,0.522 2.533,1.21 3.226,1.734 0.693,0.524 0.938,0.884 1.054,1.193 0.116,0.309 0.104,0.568 -0.007,0.887l-0.005 0.015 -0.011 0.031 -0.006 0.015 -0.011 0.031 -0.012 0.03 -0.02 0.048 -0.006 0.015 -0.014 0.033 -0.014 0.032 -0.008 0.016 -0.022 0.049 -0.015 0.033 -0.008 0.017 -0.032 0.067 -0.008 0.016 -0.026 0.051 -0.017 0.034 -0.017 0.035 -0.018 0.034 -0.055 0.104c-0.064,0.123 -0.132,0.246 -0.201,0.371l0.036 -0.012 0.026 -0.011 0.017 -0.008 0.026 -0.012 0.026 -0.013 0.009 -0.005 0.025 -0.014 0.025 -0.016 0.017 -0.01 0.026 -0.018c0.059,-0.04 0.119,-0.088 0.182,-0.143l0.092 -0.083 0.039 -0.036 0.01 -0.009 0.01 -0.009c0.232,-0.218 0.523,-0.509 0.64,-0.957 0.116,-0.447 0.059,-1.052 0.065,-2.577 0.006,-1.525 0.074,-3.972 0.052,-6.694 -0.023,-2.724 -0.137,-5.723 -0.194,-7.553 -0.057,-1.831 -0.057,-2.492 -0.057,-3.427 0,-0.936 0,-2.144 -0.029,-3.276 -0.028,-1.132 -0.085,-2.187 -0.111,-3.279 -0.025,-1.092 -0.02,-2.221 -0.091,-4.009 -0.072,-1.787 -0.22,-4.234 -0.3,-6.212 -0.079,-1.979 -0.091,-3.49 -0.231,-7.51 -0.139,-4.02 -0.407,-10.55 -0.929,-16.996 -0.522,-6.446 -1.297,-12.81 -2.278,-18.854 -0.981,-6.045 -2.167,-11.77 -3.341,-17.21 -1.175,-5.44 -2.338,-10.594 -3.867,-15.864 -1.528,-5.268 -3.421,-10.651 -5.246,-15.498 -1.824,-4.847 -3.581,-9.158 -4.618,-11.657 -1.038,-2.499 -1.357,-3.186 -1.494,-3.631 -0.137,-0.445 -0.092,-0.647 0.009,-0.803 0.102,-0.155 0.258,-0.263 0.386,-0.349 0.014,-0.01 0.028,-0.019 0.041,-0.029 -0.042,-0.002 -0.088,-0.005 -0.144,-0.008 -0.105,-0.005 -0.243,-0.013 -0.693,-0.048 -0.449,-0.035 -1.21,-0.098 -2.217,-0.107 -1.008,-0.008 -2.262,0.038 -3.577,0.132 -1.316,0.095 -2.692,0.24 -4.839,0.609 -2.148,0.368 -5.068,0.962 -7.478,1.498 -2.41,0.535 -4.311,1.014 -6.805,1.509 -2.494,0.494 -5.581,1.003 -8.679,1.418 -3.098,0.414 -6.208,0.733 -9.971,1.076 -3.764,0.341 -8.181,0.707 -11.872,0.965z"/>
    </clipPath>
    <clipPath id="id2">
     <path d="M91.234 163.341c0.06,-0.29 0.117,-0.718 0.209,-2.252 0.091,-1.534 0.216,-4.174 0.518,-9.369 0.303,-5.195 0.782,-12.944 1.164,-18.604 0.382,-5.659 0.667,-9.229 1.038,-13.175 0.37,-3.946 0.826,-8.268 1.397,-12.773 0.57,-4.505 1.254,-9.192 2.132,-14.518 0.879,-5.326 1.95,-11.291 2.766,-15.197 0.815,-3.906 1.374,-5.753 1.733,-6.921 0.358,-1.167 0.516,-1.655 0.64,-1.921 0.123,-0.267 0.212,-0.313 0.296,-0.305 0.084,0.008 0.164,0.069 0.266,0.183 0.103,0.113 0.228,0.278 0.391,0.627 0.163,0.349 0.362,0.88 0.684,1.602 0.321,0.721 0.764,1.632 1.146,2.525 0.381,0.893 0.7,1.768 0.836,2.443 0.135,0.674 0.087,1.147 0.127,1.679 0.04,0.532 0.168,1.122 0.504,1.619 0.337,0.498 0.881,0.903 1.195,1.44 0.314,0.538 0.396,1.208 0.602,2.158 0.205,0.951 0.533,2.183 0.646,3.113 0.112,0.929 0.009,1.556 -0.098,2.148 -0.106,0.591 -0.218,1.148 -0.101,1.705 0.117,0.557 0.462,1.116 0.865,1.635 0.404,0.519 0.866,0.998 1.149,1.313 0.284,0.315 0.39,0.466 0.491,0.609 0.101,0.142 0.198,0.276 0.351,0.879 0.152,0.603 0.36,1.675 0.439,2.419 0.078,0.745 0.027,1.161 -0.003,1.576 -0.03,0.415 -0.039,0.828 -0.073,1.354 -0.034,0.526 -0.094,1.165 -0.085,1.751 0.008,0.586 0.085,1.119 0.46,1.91 0.375,0.791 1.048,1.84 1.685,2.689 0.637,0.848 1.239,1.495 1.643,1.902 0.404,0.407 0.611,0.574 0.797,0.87 0.186,0.296 0.351,0.72 0.488,1.263 0.137,0.544 0.246,1.205 0.304,1.972 0.058,0.767 0.067,1.64 0.054,2.608 -0.013,0.968 -0.047,2.031 0.15,2.999 0.197,0.968 0.624,1.84 1.101,2.577 0.476,0.738 1,1.339 1.389,1.826 0.39,0.488 0.644,0.862 0.856,1.23 0.213,0.367 0.384,0.729 0.555,1.154 0.171,0.425 0.342,0.913 0.472,1.479 0.13,0.566 0.218,1.21 0.339,1.795 0.121,0.584 0.275,1.108 0.375,1.699 0.1,0.59 0.145,1.246 0.32,2.204 0.174,0.958 0.476,2.218 0.678,3.273 0.203,1.055 0.305,1.904 0.416,2.657 0.112,0.753 0.231,1.409 0.325,2.284 0.094,0.875 0.163,1.97 0.294,2.774 0.131,0.804 0.325,1.317 0.465,2.09 0.14,0.772 0.225,1.805 0.299,2.412 0.074,0.607 0.137,0.79 0.288,0.952 0.104,0.112 0.251,0.215 0.437,0.32 -0.079,-0.368 -0.154,-0.732 -0.127,-0.999 0.028,-0.278 0.168,-0.45 0.332,-0.556 0.164,-0.105 0.352,-0.145 0.75,-0.063 0.398,0.082 1.007,0.284 1.729,0.399 0.723,0.115 1.56,0.144 2.868,0.151 1.309,0.007 3.089,-0.007 5.568,-0.327 2.479,-0.319 5.657,-0.943 8.788,-1.599 3.132,-0.656 6.217,-1.344 9.657,-2.107 3.44,-0.762 7.234,-1.599 10.248,-2.124 3.014,-0.525 5.249,-0.737 8.16,-0.854 2.912,-0.118 6.502,-0.139 10.137,0.024 3.635,0.163 7.316,0.511 9.976,0.862 2.66,0.351 4.298,0.706 5.688,1.227 1.391,0.522 2.533,1.21 3.226,1.734 0.693,0.524 0.938,0.884 1.054,1.193 0.116,0.309 0.104,0.568 -0.007,0.887 -0.11,0.319 -0.318,0.698 -0.526,1.077 0.192,-0.063 0.354,-0.202 0.566,-0.399 0.232,-0.218 0.523,-0.509 0.64,-0.957 0.116,-0.447 0.059,-1.052 0.065,-2.577 0.006,-1.525 0.074,-3.972 0.052,-6.694 -0.023,-2.724 -0.137,-5.723 -0.194,-7.553 -0.057,-1.831 -0.057,-2.492 -0.057,-3.427 0,-0.936 0,-2.144 -0.029,-3.276 -0.028,-1.132 -0.085,-2.187 -0.111,-3.279 -0.025,-1.092 -0.02,-2.221 -0.091,-4.009 -0.072,-1.787 -0.22,-4.234 -0.3,-6.212 -0.079,-1.979 -0.091,-3.49 -0.231,-7.51 -0.139,-4.02 -0.407,-10.55 -0.929,-16.996 -0.522,-6.446 -1.297,-12.81 -2.278,-18.854 -0.981,-6.045 -2.167,-11.77 -3.341,-17.21 -1.175,-5.44 -2.338,-10.594 -3.867,-15.864 -1.528,-5.268 -3.421,-10.651 -5.246,-15.498 -1.824,-4.847 -3.581,-9.158 -4.618,-11.657 -1.038,-2.499 -1.357,-3.186 -1.494,-3.631 -0.137,-0.445 -0.092,-0.647 0.009,-0.803 0.102,-0.155 0.258,-0.263 0.386,-0.349 0.014,-0.01 0.028,-0.019 0.041,-0.029 -0.042,-0.002 -0.088,-0.005 -0.144,-0.008 -0.105,-0.005 -0.243,-0.013 -0.693,-0.048 -0.449,-0.035 -1.21,-0.098 -2.217,-0.107 -1.008,-0.008 -2.262,0.038 -3.577,0.132 -1.316,0.095 -2.692,0.24 -4.839,0.609 -2.148,0.368 -5.068,0.962 -7.478,1.498 -2.41,0.535 -4.311,1.014 -6.805,1.509 -2.494,0.494 -5.581,1.003 -8.679,1.418 -3.098,0.414 -6.208,0.733 -9.971,1.076 -3.764,0.341 -8.181,0.707 -11.872,0.965 -3.692,0.259 -6.657,0.41 -9.367,0.559 -2.711,0.148 -5.167,0.292 -7.957,0.403 -2.79,0.11 -5.915,0.186 -9.017,0.251 -3.102,0.064 -6.181,0.117 -9.116,0.11 -2.935,-0.008 -5.725,-0.076 -8.341,-0.137 -2.615,-0.061 -5.056,-0.114 -7.698,-0.194 -2.642,-0.08 -5.486,-0.186 -8.975,-0.285 -3.49,-0.099 -7.626,-0.19 -12.01,-0.217 -4.383,-0.026 -9.013,0.012 -12.845,0.008 -3.832,-0.004 -6.865,-0.049 -10.876,-0.205 -4.011,-0.156 -8.998,-0.422 -12.585,-0.69 -3.587,-0.268 -5.773,-0.538 -7.362,-0.856 -1.59,-0.318 -2.583,-0.683 -3.577,-1.049 0.044,0.064 0.021,0.188 -0.027,0.625 -0.062,0.551 -0.164,1.597 -0.449,3.521 -0.286,1.925 -0.753,4.728 -1.058,6.779 -0.305,2.052 -0.448,3.352 -0.79,5.493 -0.342,2.141 -0.884,5.124 -1.32,7.752 -0.436,2.629 -0.767,4.904 -1.029,6.823 -0.263,1.919 -0.457,3.481 -0.636,5.294 -0.18,1.814 -0.345,3.878 -0.525,6.376 -0.18,2.497 -0.373,5.428 -0.567,8.701 -0.194,3.273 -0.388,6.888 -0.53,10.743 -0.143,3.855 -0.234,7.949 -0.206,12.14 0.029,4.192 0.177,8.48 0.468,12.648 0.291,4.169 0.724,8.217 1.009,11.855 0.285,3.638 0.422,6.865 0.485,10.435 0.063,3.57 0.051,7.481 0.091,11.969 0.04,4.488 0.131,9.552 0.223,13.777 0.091,4.225 0.182,7.612 0.266,9.945 0.084,2.332 0.162,3.609 0.193,4.373 0.031,0.764 0.017,1.015 0.027,2.23 0.01,1.214 0.044,3.393 0.078,4.946 0.035,1.554 0.069,2.484 0.137,3.037 0.068,0.553 0.171,0.73 0.482,1.055 0.311,0.325 0.83,0.798 2.632,1.177 1.802,0.38 4.886,0.665 7.829,0.918 2.942,0.254 5.742,0.476 10.492,0.73 4.75,0.254 11.451,0.539 16.4,0.753 4.95,0.214 8.149,0.356 10.954,0.382 2.806,0.026 5.218,-0.066 7.656,-0.143 2.438,-0.077 4.901,-0.139 7.25,-0.216 2.35,-0.077 4.585,-0.168 7.735,-0.565 3.151,-0.396 7.217,-1.098 9.757,-1.616 2.54,-0.519 3.556,-0.856 4.448,-1.309 0.892,-0.453 1.662,-1.024 2.078,-1.386 0.417,-0.362 0.479,-0.516 0.539,-0.807z"/>
    </clipPath>
    <clipPath id="id3">
     <path d="M66.397 7.915c-3.49,-0.099 -7.626,-0.19 -12.01,-0.217 -4.383,-0.026 -9.013,0.012 -12.845,0.008 -3.832,-0.004 -6.865,-0.049 -10.876,-0.205 -4.011,-0.156 -8.998,-0.422 -12.585,-0.69 -3.587,-0.268 -5.773,-0.538 -7.362,-0.856 -1.59,-0.318 -2.583,-0.683 -3.577,-1.049 0.044,0.064 0.021,0.188 -0.027,0.625 -0.062,0.551 -0.164,1.597 -0.449,3.521 -0.286,1.925 -0.753,4.728 -1.058,6.779 -0.305,2.052 -0.448,3.352 -0.79,5.493 -0.342,2.141 -0.884,5.124 -1.32,7.752 -0.436,2.629 -0.767,4.904 -1.029,6.823 -0.263,1.919 -0.457,3.481 -0.636,5.294 -0.18,1.814 -0.345,3.878 -0.525,6.376 -0.18,2.497 -0.373,5.428 -0.567,8.701 -0.194,3.273 -0.388,6.888 -0.53,10.743 -0.143,3.855 -0.234,7.949 -0.206,12.14 0.029,4.192 0.177,8.48 0.468,12.648 0.291,4.169 0.724,8.217 1.009,11.855 0.285,3.638 0.422,6.865 0.485,10.435 0.063,3.57 0.051,7.481 0.091,11.969 0.04,4.488 0.131,9.552 0.223,13.777 0.091,4.225 0.182,7.612 0.266,9.945 0.084,2.332 0.162,3.609 0.193,4.373 0.031,0.764 0.017,1.015 0.027,2.23 0.01,1.214 0.044,3.393 0.078,4.946 0.035,1.554 0.069,2.484 0.137,3.037 0.068,0.553 0.171,0.73 0.482,1.055 0.311,0.325 0.83,0.798 2.632,1.177 1.802,0.38 4.886,0.665 7.829,0.918 2.942,0.254 5.742,0.476 10.492,0.73 4.75,0.254 11.451,0.539 16.4,0.753 4.95,0.214 8.149,0.356 10.954,0.382 2.806,0.026 5.218,-0.066 7.656,-0.143 2.438,-0.077 4.901,-0.139 7.25,-0.216 2.35,-0.077 4.585,-0.168 7.735,-0.565 3.151,-0.396 7.217,-1.098 9.757,-1.616 2.54,-0.519 3.556,-0.856 4.448,-1.309 0.892,-0.453 1.662,-1.024 2.078,-1.386 0.417,-0.362 0.479,-0.516 0.539,-0.807 0.06,-0.29 0.117,-0.718 0.209,-2.252 0.091,-1.534 0.216,-4.174 0.518,-9.369 0.303,-5.195 0.782,-12.944 1.164,-18.604 0.382,-5.659 0.667,-9.229 1.038,-13.175 0.37,-3.946 0.826,-8.268 1.397,-12.773 0.57,-4.505 1.254,-9.192 2.132,-14.518 0.879,-5.326 1.95,-11.291 2.766,-15.197 0.815,-3.906 1.374,-5.753 1.733,-6.921 0.358,-1.167 0.516,-1.655 0.64,-1.921l0.003 -0.007 0.001 -0.002 0.008 -0.016 0.002 -0.005 0.003 -0.006 0.003 -0.005 0.002 -0.006 0.002 -0.004 0.004 -0.007 0.003 -0.005 0.002 -0.005 0 -0.001 0.003 -0.005 0.001 -0.002 0.002 -0.004 0.002 -0.003 0.002 -0.005 0.002 -0.002 0.001 -0.002 0.007 -0.013 0.002 -0.005 0.002 -0.003 0.002 -0.004 0.003 -0.005 0.011 -0.018 0 -0.001 0.003 -0.004 0.007 -0.011 0.006 -0.01 0.018 -0.026 0.003 -0.005c0.29,-0.943 0.58,-1.886 0.813,-2.478 0.232,-0.591 0.408,-0.831 0.581,-1.057 0.174,-0.226 0.346,-0.438 0.481,-0.599 0.136,-0.161 0.235,-0.271 0.256,-0.446 0.022,-0.176 -0.032,-0.417 -0.184,-0.807 -0.152,-0.39 -0.401,-0.928 -0.72,-1.7 -0.319,-0.773 -0.708,-1.78 -1.265,-4.398 -0.557,-2.618 -1.282,-6.846 -2.128,-11.482 -0.846,-4.636 -1.813,-9.681 -2.362,-13.439 -0.549,-3.76 -0.68,-6.234 -1.088,-9.846 -0.407,-3.613 -1.091,-8.364 -1.612,-11.976 -0.084,-0.588 -0.164,-1.145 -0.241,-1.678l-0.105 0.002 -0.092 0.001 -0.082 0.001 -0.164 0.002 -0.186 0.002 -0.056 0 -0.048 0.001 -0.206 0.002 -0.132 0.001 -0.185 0.002 -0.15 0.001 -0.008 0 -0.096 0.001 -0.083 0 -0.016 0 -0.162 0.001 -0.036 0 -0.142 0.001 -0.854 0.005 -0.012 0 -0.103 0 -0.036 0 -0.079 0 -0.06 0 -0.155 0.001 -0.502 0 -0.174 -0.001 -0.024 0 -0.113 0c-2.935,-0.008 -5.725,-0.076 -8.341,-0.137 -2.615,-0.061 -5.056,-0.114 -7.698,-0.194 -2.642,-0.08 -5.486,-0.186 -8.975,-0.285z"/>
    </clipPath>
    <clipPath id="id4">
     <path d="M91.234 163.341c0.06,-0.29 0.117,-0.718 0.209,-2.252 0.091,-1.534 0.216,-4.174 0.518,-9.369 0.303,-5.195 0.782,-12.944 1.164,-18.604 0.382,-5.659 0.667,-9.229 1.038,-13.175 0.37,-3.946 0.826,-8.268 1.397,-12.773 0.57,-4.505 1.254,-9.192 2.132,-14.518 0.879,-5.326 1.95,-11.291 2.766,-15.197 0.815,-3.906 1.374,-5.753 1.733,-6.921 0.358,-1.167 0.516,-1.655 0.64,-1.921 0.123,-0.267 0.212,-0.313 0.296,-0.305 0.084,0.008 0.164,0.069 0.266,0.183 0.103,0.113 0.228,0.278 0.391,0.627 0.163,0.349 0.362,0.88 0.684,1.602 0.321,0.721 0.764,1.632 1.146,2.525 0.381,0.893 0.7,1.768 0.836,2.443 0.135,0.674 0.087,1.147 0.127,1.679 0.04,0.532 0.168,1.122 0.504,1.619 0.337,0.498 0.881,0.903 1.195,1.44 0.314,0.538 0.396,1.208 0.602,2.158 0.205,0.951 0.533,2.183 0.646,3.113 0.112,0.929 0.009,1.556 -0.098,2.148 -0.106,0.591 -0.218,1.148 -0.101,1.705 0.117,0.557 0.462,1.116 0.865,1.635 0.404,0.519 0.866,0.998 1.149,1.313 0.284,0.315 0.39,0.466 0.491,0.609 0.101,0.142 0.198,0.276 0.351,0.879 0.152,0.603 0.36,1.675 0.439,2.419 0.078,0.745 0.027,1.161 -0.003,1.576 -0.03,0.415 -0.039,0.828 -0.073,1.354 -0.034,0.526 -0.094,1.165 -0.085,1.751 0.008,0.586 0.085,1.119 0.46,1.91 0.375,0.791 1.048,1.84 1.685,2.689 0.637,0.848 1.239,1.495 1.643,1.902 0.404,0.407 0.611,0.574 0.797,0.87 0.186,0.296 0.351,0.72 0.488,1.263 0.137,0.544 0.246,1.205 0.304,1.972 0.058,0.767 0.067,1.64 0.054,2.608 -0.013,0.968 -0.047,2.031 0.15,2.999 0.197,0.968 0.624,1.84 1.101,2.577 0.476,0.738 1,1.339 1.389,1.826 0.39,0.488 0.644,0.862 0.856,1.23 0.213,0.367 0.384,0.729 0.555,1.154 0.171,0.425 0.342,0.913 0.472,1.479 0.13,0.566 0.218,1.21 0.339,1.795 0.121,0.584 0.275,1.108 0.375,1.699 0.1,0.59 0.145,1.246 0.32,2.204 0.174,0.958 0.476,2.218 0.678,3.273 0.203,1.055 0.305,1.904 0.416,2.657 0.112,0.753 0.231,1.409 0.325,2.284 0.094,0.875 0.163,1.97 0.294,2.774 0.131,0.804 0.325,1.317 0.465,2.09 0.14,0.772 0.225,1.805 0.299,2.412 0.074,0.607 0.137,0.79 0.288,0.952 0.104,0.112 0.251,0.215 0.437,0.32 -0.079,-0.368 -0.154,-0.732 -0.127,-0.999 0.028,-0.278 0.168,-0.45 0.332,-0.556 0.164,-0.105 0.352,-0.145 0.75,-0.063 0.398,0.082 1.007,0.284 1.729,0.399 0.723,0.115 1.56,0.144 2.868,0.151 1.309,0.007 3.089,-0.007 5.568,-0.327 2.479,-0.319 5.657,-0.943 8.788,-1.599 3.132,-0.656 6.217,-1.344 9.657,-2.107 3.44,-0.762 7.234,-1.599 10.248,-2.124 3.014,-0.525 5.249,-0.737 8.16,-0.854 2.912,-0.118 6.502,-0.139 10.137,0.024 3.635,0.163 7.316,0.511 9.976,0.862 2.66,0.351 4.298,0.706 5.688,1.227 1.391,0.522 2.533,1.21 3.226,1.734 0.693,0.524 0.938,0.884 1.054,1.193 0.116,0.309 0.104,0.568 -0.007,0.887 -0.11,0.319 -0.318,0.698 -0.526,1.077 0.192,-0.063 0.354,-0.202 0.566,-0.399 0.232,-0.218 0.523,-0.509 0.64,-0.957 0.116,-0.447 0.059,-1.052 0.065,-2.577 0.006,-1.525 0.074,-3.972 0.052,-6.694 -0.023,-2.724 -0.137,-5.723 -0.194,-7.553 -0.057,-1.831 -0.057,-2.492 -0.057,-3.427 0,-0.936 0,-2.144 -0.029,-3.276 -0.028,-1.132 -0.085,-2.187 -0.111,-3.279 -0.025,-1.092 -0.02,-2.221 -0.091,-4.009 -0.072,-1.787 -0.22,-4.234 -0.3,-6.212 -0.079,-1.979 -0.091,-3.49 -0.231,-7.51 -0.139,-4.02 -0.407,-10.55 -0.929,-16.996 -0.522,-6.446 -1.297,-12.81 -2.278,-18.854 -0.981,-6.045 -2.167,-11.77 -3.341,-17.21 -1.175,-5.44 -2.338,-10.594 -3.867,-15.864 -1.528,-5.268 -3.421,-10.651 -5.246,-15.498 -1.824,-4.847 -3.581,-9.158 -4.618,-11.657 -1.038,-2.499 -1.357,-3.186 -1.494,-3.631 -0.137,-0.445 -0.092,-0.647 0.009,-0.803 0.102,-0.155 0.258,-0.263 0.386,-0.349 0.014,-0.01 0.028,-0.019 0.041,-0.029 -0.042,-0.002 -0.088,-0.005 -0.144,-0.008 -0.105,-0.005 -0.243,-0.013 -0.693,-0.048 -0.449,-0.035 -1.21,-0.098 -2.217,-0.107 -1.008,-0.008 -2.262,0.038 -3.577,0.132 -1.316,0.095 -2.692,0.24 -4.839,0.609 -2.148,0.368 -5.068,0.962 -7.478,1.498 -2.41,0.535 -4.311,1.014 -6.805,1.509 -2.494,0.494 -5.581,1.003 -8.679,1.418 -3.098,0.414 -6.208,0.733 -9.971,1.076 -3.764,0.341 -8.181,0.707 -11.872,0.965 -3.692,0.259 -6.657,0.41 -9.367,0.559 -2.711,0.148 -5.167,0.292 -7.957,0.403 -2.79,0.11 -5.915,0.186 -9.017,0.251 -3.102,0.064 -6.181,0.117 -9.116,0.11 -2.935,-0.008 -5.725,-0.076 -8.341,-0.137 -2.615,-0.061 -5.056,-0.114 -7.698,-0.194 -2.642,-0.08 -5.486,-0.186 -8.975,-0.285 -3.49,-0.099 -7.626,-0.19 -12.01,-0.217 -4.383,-0.026 -9.013,0.012 -12.845,0.008 -3.832,-0.004 -6.865,-0.049 -10.876,-0.205 -4.011,-0.156 -8.998,-0.422 -12.585,-0.69 -3.587,-0.268 -5.773,-0.538 -7.362,-0.856 -1.59,-0.318 -2.583,-0.683 -3.577,-1.049 0.044,0.064 0.021,0.188 -0.027,0.625 -0.062,0.551 -0.164,1.597 -0.449,3.521 -0.286,1.925 -0.753,4.728 -1.058,6.779 -0.305,2.052 -0.448,3.352 -0.79,5.493 -0.342,2.141 -0.884,5.124 -1.32,7.752 -0.436,2.629 -0.767,4.904 -1.029,6.823 -0.263,1.919 -0.457,3.481 -0.636,5.294 -0.18,1.814 -0.345,3.878 -0.525,6.376 -0.18,2.497 -0.373,5.428 -0.567,8.701 -0.194,3.273 -0.388,6.888 -0.53,10.743 -0.143,3.855 -0.234,7.949 -0.206,12.14 0.029,4.192 0.177,8.48 0.468,12.648 0.291,4.169 0.724,8.217 1.009,11.855 0.285,3.638 0.422,6.865 0.485,10.435 0.063,3.57 0.051,7.481 0.091,11.969 0.04,4.488 0.131,9.552 0.223,13.777 0.091,4.225 0.182,7.612 0.266,9.945 0.084,2.332 0.162,3.609 0.193,4.373 0.031,0.764 0.017,1.015 0.027,2.23 0.01,1.214 0.044,3.393 0.078,4.946 0.035,1.554 0.069,2.484 0.137,3.037 0.068,0.553 0.171,0.73 0.482,1.055 0.311,0.325 0.83,0.798 2.632,1.177 1.802,0.38 4.886,0.665 7.829,0.918 2.942,0.254 5.742,0.476 10.492,0.73 4.75,0.254 11.451,0.539 16.4,0.753 4.95,0.214 8.149,0.356 10.954,0.382 2.806,0.026 5.218,-0.066 7.656,-0.143 2.438,-0.077 4.901,-0.139 7.25,-0.216 2.35,-0.077 4.585,-0.168 7.735,-0.565 3.151,-0.396 7.217,-1.098 9.757,-1.616 2.54,-0.519 3.556,-0.856 4.448,-1.309 0.892,-0.453 1.662,-1.024 2.078,-1.386 0.417,-0.362 0.479,-0.516 0.539,-0.807z"/>
    </clipPath>
 </defs>
 <g id="VETORES">
  <metadata id="CorelCorpID_0Corel-Layer"/>
  <g>
  </g>
  <g clip-path="url(#id0)">
   <g id="_1976358039872">
    <g>
    </g>
   </g>
   <g clip-path="url(#id1)">
   </g>
   <g clip-path="url(#id2)">
    <path id="perna-direita" fill="none" d="M126.868 7.208c-3.692,0.259 -6.657,0.41 -9.367,0.559 -2.711,0.148 -5.167,0.292 -7.957,0.403 -2.79,0.11 -5.915,0.186 -9.017,0.251 -1.699,0.035 -3.39,0.067 -5.055,0.087 0.077,0.533 0.157,1.09 0.241,1.678 0.521,3.612 1.205,8.363 1.612,11.976 0.408,3.612 0.539,6.086 1.088,9.846 0.549,3.758 1.516,8.803 2.362,13.439 0.846,4.636 1.571,8.864 2.128,11.482 0.557,2.618 0.946,3.625 1.265,4.398 0.319,0.772 0.568,1.31 0.72,1.7 0.152,0.39 0.206,0.631 0.184,0.807 -0.021,0.175 -0.12,0.285 -0.256,0.446 -0.135,0.161 -0.307,0.373 -0.481,0.599 -0.173,0.226 -0.349,0.466 -0.581,1.057 -0.233,0.592 -0.523,1.535 -0.813,2.478 0.07,-0.094 0.129,-0.113 0.186,-0.108 0.084,0.008 0.164,0.069 0.266,0.183 0.103,0.113 0.228,0.278 0.391,0.627 0.163,0.349 0.362,0.88 0.684,1.602 0.321,0.721 0.764,1.632 1.146,2.525 0.381,0.893 0.7,1.768 0.836,2.443 0.135,0.674 0.087,1.147 0.127,1.679 0.04,0.532 0.168,1.122 0.504,1.619 0.337,0.498 0.881,0.903 1.195,1.44 0.314,0.538 0.396,1.208 0.602,2.158 0.205,0.951 0.533,2.183 0.646,3.113 0.112,0.929 0.009,1.556 -0.098,2.148 -0.106,0.591 -0.218,1.148 -0.101,1.705 0.117,0.557 0.462,1.116 0.865,1.635 0.404,0.519 0.866,0.998 1.149,1.313 0.284,0.315 0.39,0.466 0.491,0.609 0.101,0.142 0.198,0.276 0.351,0.879 0.152,0.603 0.36,1.675 0.439,2.419 0.078,0.745 0.027,1.161 -0.003,1.576 -0.03,0.415 -0.039,0.828 -0.073,1.354 -0.034,0.526 -0.094,1.165 -0.085,1.751 0.008,0.586 0.085,1.119 0.46,1.91 0.375,0.791 1.048,1.84 1.685,2.689 0.637,0.848 1.239,1.495 1.643,1.902 0.404,0.407 0.611,0.574 0.797,0.87 0.186,0.296 0.351,0.72 0.488,1.263 0.137,0.544 0.246,1.205 0.304,1.972 0.058,0.767 0.067,1.64 0.054,2.608 -0.013,0.968 -0.047,2.031 0.15,2.999 0.197,0.968 0.624,1.84 1.101,2.577 0.476,0.738 1,1.339 1.389,1.826 0.39,0.488 0.644,0.862 0.856,1.23 0.213,0.367 0.384,0.729 0.555,1.154 0.171,0.425 0.342,0.913 0.472,1.479 0.13,0.566 0.218,1.21 0.339,1.795 0.121,0.584 0.275,1.108 0.375,1.699 0.1,0.59 0.145,1.246 0.32,2.204 0.174,0.958 0.476,2.218 0.678,3.273 0.203,1.055 0.305,1.904 0.416,2.657 0.112,0.753 0.231,1.409 0.325,2.284 0.094,0.875 0.163,1.97 0.294,2.774 0.131,0.804 0.325,1.317 0.465,2.09 0.14,0.772 0.225,1.805 0.299,2.412 0.074,0.607 0.137,0.79 0.288,0.952 0.104,0.112 0.251,0.215 0.437,0.32 -0.079,-0.368 -0.154,-0.732 -0.127,-0.999 0.028,-0.278 0.168,-0.45 0.332,-0.556 0.164,-0.105 0.352,-0.145 0.75,-0.063 0.398,0.082 1.007,0.284 1.729,0.399 0.723,0.115 1.56,0.144 2.868,0.151 1.309,0.007 3.089,-0.007 5.568,-0.327 2.479,-0.319 5.657,-0.943 8.788,-1.599 3.132,-0.656 6.217,-1.344 9.657,-2.107 3.44,-0.762 7.234,-1.599 10.248,-2.124 3.014,-0.525 5.249,-0.737 8.16,-0.854 2.912,-0.118 6.502,-0.139 10.137,0.024 3.635,0.163 7.316,0.511 9.976,0.862 2.66,0.351 4.298,0.706 5.688,1.227 1.391,0.522 2.533,1.21 3.226,1.734 0.693,0.524 0.938,0.884 1.054,1.193 0.116,0.309 0.104,0.568 -0.007,0.887 -0.11,0.319 -0.318,0.698 -0.526,1.078 0.192,-0.064 0.354,-0.202 0.566,-0.4 0.232,-0.218 0.523,-0.509 0.64,-0.957 0.116,-0.447 0.059,-1.052 0.065,-2.577 0.006,-1.525 0.074,-3.972 0.052,-6.694 -0.023,-2.724 -0.137,-5.723 -0.194,-7.553 -0.057,-1.831 -0.057,-2.492 -0.057,-3.427 0,-0.936 0,-2.144 -0.029,-3.276 -0.028,-1.132 -0.085,-2.187 -0.111,-3.279 -0.025,-1.092 -0.02,-2.221 -0.091,-4.009 -0.072,-1.787 -0.22,-4.234 -0.3,-6.212 -0.079,-1.979 -0.091,-3.49 -0.231,-7.51 -0.139,-4.02 -0.407,-10.55 -0.929,-16.996 -0.522,-6.446 -1.297,-12.81 -2.278,-18.854 -0.981,-6.045 -2.167,-11.77 -3.341,-17.21 -1.175,-5.44 -2.338,-10.594 -3.867,-15.864 -1.528,-5.268 -3.421,-10.651 -5.246,-15.498 -1.824,-4.847 -3.581,-9.158 -4.618,-11.657 -1.038,-2.499 -1.357,-3.186 -1.494,-3.631 -0.137,-0.445 -0.092,-0.647 0.009,-0.803 0.102,-0.155 0.258,-0.263 0.386,-0.349 0.014,-0.01 0.028,-0.019 0.041,-0.029 -0.042,-0.002 -0.088,-0.005 -0.144,-0.008 -0.105,-0.005 -0.243,-0.013 -0.693,-0.048 -0.449,-0.035 -1.21,-0.098 -2.217,-0.107 -1.008,-0.008 -2.262,0.038 -3.577,0.132 -1.316,0.095 -2.692,0.24 -4.839,0.609 -2.148,0.368 -5.068,0.962 -7.478,1.498 -2.41,0.535 -4.311,1.014 -6.805,1.509 -2.494,0.494 -5.581,1.003 -8.679,1.418 -3.098,0.414 -6.208,0.733 -9.971,1.076 -3.764,0.341 -8.181,0.707 -11.872,0.965z"/>
    <g>
    </g>
   </g>
   <g clip-path="url(#id3)">
   </g>
   <g clip-path="url(#id4)">
    <path id="perna-esquerda" fill="none" d="M66.397 7.915c-3.49,-0.099 -7.626,-0.19 -12.01,-0.217 -4.383,-0.026 -9.013,0.012 -12.845,0.008 -3.832,-0.004 -6.865,-0.049 -10.876,-0.205 -4.011,-0.156 -8.998,-0.422 -12.585,-0.69 -3.587,-0.268 -5.773,-0.538 -7.362,-0.856 -1.59,-0.318 -2.583,-0.683 -3.577,-1.049 0.044,0.064 0.021,0.188 -0.027,0.625 -0.062,0.551 -0.164,1.597 -0.449,3.521 -0.286,1.925 -0.753,4.728 -1.058,6.779 -0.305,2.052 -0.448,3.352 -0.79,5.493 -0.342,2.141 -0.884,5.124 -1.32,7.752 -0.436,2.629 -0.767,4.904 -1.029,6.823 -0.263,1.919 -0.457,3.481 -0.636,5.294 -0.18,1.814 -0.345,3.878 -0.525,6.376 -0.18,2.497 -0.373,5.428 -0.567,8.701 -0.194,3.273 -0.388,6.888 -0.53,10.743 -0.143,3.855 -0.234,7.949 -0.206,12.14 0.029,4.192 0.177,8.48 0.468,12.648 0.291,4.169 0.724,8.217 1.009,11.855 0.285,3.638 0.422,6.865 0.485,10.435 0.063,3.57 0.051,7.481 0.091,11.969 0.04,4.488 0.131,9.552 0.223,13.777 0.091,4.225 0.182,7.612 0.266,9.945 0.084,2.332 0.162,3.609 0.193,4.373 0.031,0.764 0.017,1.015 0.027,2.23 0.01,1.214 0.044,3.393 0.078,4.946 0.035,1.554 0.069,2.484 0.137,3.037 0.068,0.553 0.171,0.73 0.482,1.055 0.311,0.325 0.83,0.798 2.632,1.177 1.802,0.38 4.886,0.665 7.829,0.918 2.942,0.254 5.742,0.476 10.492,0.73 4.75,0.254 11.451,0.539 16.4,0.753 4.95,0.214 8.149,0.356 10.954,0.382 2.806,0.026 5.218,-0.066 7.656,-0.143 2.438,-0.077 4.901,-0.139 7.25,-0.216 2.35,-0.077 4.585,-0.168 7.735,-0.565 3.151,-0.396 7.217,-1.098 9.757,-1.616 2.54,-0.519 3.556,-0.856 4.448,-1.309 0.892,-0.453 1.662,-1.024 2.078,-1.386 0.417,-0.362 0.479,-0.516 0.539,-0.807 0.06,-0.29 0.117,-0.718 0.209,-2.252 0.091,-1.534 0.216,-4.174 0.518,-9.369 0.303,-5.195 0.782,-12.944 1.164,-18.604 0.382,-5.659 0.667,-9.229 1.038,-13.175 0.37,-3.946 0.826,-8.268 1.397,-12.773 0.57,-4.505 1.254,-9.192 2.132,-14.518 0.879,-5.326 1.95,-11.291 2.766,-15.197 0.815,-3.906 1.374,-5.753 1.733,-6.921 0.358,-1.167 0.516,-1.655 0.64,-1.921 0.04,-0.087 0.077,-0.151 0.11,-0.197 0.29,-0.943 0.58,-1.886 0.813,-2.478 0.232,-0.591 0.408,-0.831 0.581,-1.057 0.174,-0.226 0.346,-0.438 0.481,-0.599 0.136,-0.161 0.235,-0.271 0.256,-0.446 0.022,-0.176 -0.032,-0.417 -0.184,-0.807 -0.152,-0.39 -0.401,-0.928 -0.72,-1.7 -0.319,-0.773 -0.708,-1.78 -1.265,-4.398 -0.557,-2.618 -1.282,-6.846 -2.128,-11.482 -0.846,-4.636 -1.813,-9.681 -2.362,-13.439 -0.549,-3.76 -0.68,-6.234 -1.088,-9.846 -0.407,-3.613 -1.091,-8.364 -1.612,-11.976 -0.084,-0.588 -0.164,-1.145 -0.241,-1.678 -1.376,0.017 -2.733,0.026 -4.061,0.023 -2.935,-0.008 -5.725,-0.076 -8.341,-0.137 -2.615,-0.061 -5.056,-0.114 -7.698,-0.194 -2.642,-0.08 -5.486,-0.186 -8.975,-0.285z"/>
    <path fill="white" fill-rule="nonzero" d="M126.537 140.664zm-15.131 -22.943l15.131 22.943zm-31.55 15.74l1.756 0c-1.046,-1.346 -2.076,-2.429 -3.073,-2.697 0.436,0.896 0.874,1.798 1.317,2.697zm10.325 0l0.963 0c-1.993,-3.245 -4.403,-7.806 -6.29,-9.334 1.674,3.176 3.479,6.281 5.327,9.334zm1.646 0l0.652 0c-0.14,-0.186 -0.276,-0.392 -0.41,-0.614 -0.576,-0.946 -1.153,-1.887 -1.729,-2.851 -0.188,-0.316 -0.388,-0.668 -0.534,-1.025 -0.35,-0.862 -0.769,-1.593 -1.205,-2.289 -0.356,-0.439 -0.858,-1.749 -0.966,-1.038 -0.106,0.334 0.166,1.28 0.659,1.978 0.907,1.503 1.818,3.007 2.73,4.512l0.803 1.327zm1.786 0l1.997 0 -0.144 -0.163c-0.047,-0.051 -0.125,-0.113 -0.166,-0.128 -0.45,-0.195 -0.888,-0.811 -1.323,-1.549 -0.192,-0.321 -0.384,-0.623 -0.578,-0.941 -0.291,-0.481 -0.587,-0.874 -0.898,-1.236 -0.64,-0.742 -1.215,-1.692 -1.708,-2.848 -0.191,-0.449 -0.412,-0.88 -0.65,-1.275 -1.058,-1.385 -2.836,-5.506 -3.59,-4.572 1.007,1.876 2.118,3.407 3.037,5.326 0.23,0.567 0.5,1.078 0.787,1.553 0.48,0.796 0.951,1.599 1.333,2.559 0.142,0.354 0.35,0.696 0.538,1.012 0.454,0.757 0.909,1.51 1.365,2.262zm4.743 0l3.264 0 -0.685 -1.128c-1.681,-2.768 -3.365,-5.526 -5.043,-8.303 -0.389,-0.644 -0.789,-1.147 -1.202,-1.622 -0.363,-0.417 -0.713,-0.821 -1.062,-1.026 -0.267,-0.155 -0.535,-0.51 -0.796,-0.942 -0.471,-0.784 -0.95,-1.547 -1.425,-2.319 -0.187,-0.3 -0.383,-0.647 -0.571,-0.835 -0.912,-0.697 -1.985,-3.81 -2.301,-2.804 -0.239,0.758 2.399,3.607 1.757,3.841 -0.694,0.4 -2.867,-5.371 -3.167,-3.706 -0.158,0.504 1.007,1.876 1.665,3.093 2.961,4.872 5.938,9.768 8.917,14.675l0.649 1.076zm3.863 0l0.73 0c-0.347,-0.403 -0.685,-0.867 -1.012,-1.427 -0.139,-0.236 -0.297,-0.446 -0.45,-0.635 -0.112,-0.136 -0.19,-0.108 -0.232,-0.029 -0.057,0.107 -0.041,0.259 0.055,0.465 0.082,0.176 0.159,0.37 0.249,0.522 0.219,0.369 0.439,0.738 0.66,1.104zm1.425 0l1.967 0c-0.305,-0.355 -0.599,-0.76 -0.884,-1.234 -0.234,-0.389 -0.472,-0.784 -0.713,-1.152 -0.193,-0.298 -0.398,-0.634 -0.597,-0.84 -0.476,-0.498 -0.907,-1.191 -1.343,-1.906 -1.009,-1.654 -2.019,-3.318 -3.029,-4.968 -0.241,-0.386 -0.49,-0.762 -0.734,-1.136 -0.805,-0.766 -1.491,-2.111 -2.225,-3.229 -0.203,-0.307 -0.402,-0.532 -0.608,-0.665 -0.047,-0.031 -0.101,-0.079 -0.15,-0.107 -0.303,-0.169 -0.605,-0.522 -0.903,-1.02 -0.395,-0.661 -0.796,-1.141 -1.206,-1.41 -0.047,-0.033 -0.088,-0.029 -0.126,-0.019 -0.033,0.012 -0.068,0.032 -0.082,0.078 -0.039,0.123 -0.012,0.293 0.071,0.485 0.04,0.095 0.073,0.192 0.116,0.274 0.138,0.254 0.277,0.505 0.421,0.742 2.544,4.188 5.094,8.378 7.638,12.567 0.387,0.634 0.777,1.199 1.198,1.672 0.428,0.483 0.828,1.132 1.189,1.868zm2.726 0l9.536 0c-0.024,-0.022 -0.05,-0.051 -0.078,-0.089 -0.15,-0.201 -0.296,-0.45 -0.436,-0.68 -0.334,-0.545 -0.67,-1.104 -1.003,-1.653l-9.039 -14.89c0,0 0,0 0,0 -0.106,0.064 -0.238,0.011 -0.398,-0.157 -0.032,0.101 -0.073,0.195 -0.113,0.284l0 0.001c-0.209,0.064 -0.44,-0.244 -0.676,-0.643 -1.058,-1.734 -2.115,-3.472 -3.169,-5.2 0,0 0,0 0,0 -0.222,-0.006 -0.455,-0.271 -0.695,-0.677 -0.221,-0.374 -0.446,-0.737 -0.663,-1.124 -0.064,-0.09 -0.124,-0.174 -0.191,-0.27l0 0c-0.181,-0.048 -0.372,-0.171 -0.574,-0.496 -0.613,-0.992 -1.226,-2.004 -1.836,-3.005 -1.009,-1.653 -2.021,-3.313 -3.032,-4.959 -0.141,-0.227 -0.299,-0.418 -0.448,-0.62 -0.105,-0.142 -0.306,-0.141 -0.358,-0.014 -0.052,0.128 -0.011,0.53 0.073,0.717 0.083,0.177 0.152,0.378 0.242,0.529 0.427,0.725 0.857,1.442 1.287,2.159 0.767,1.266 1.534,2.538 2.306,3.792 0.335,0.545 0.6,1.125 0.786,1.776 0.104,0.364 0.24,0.735 0.392,1.094 0.483,1.167 1.02,2.22 1.63,3.221 2.504,4.098 4.995,8.219 7.493,12.333 0.818,1.347 1.631,2.688 2.45,4.031 0.337,0.555 0.669,1.127 1.015,1.633 0.296,0.43 0.608,0.773 0.911,1.159 0.045,0.059 0.107,0.172 0.133,0.253 0.064,0.18 0.137,0.371 0.161,0.532 0.029,0.181 -0.234,0.14 -0.345,-0.038 -0.486,-0.775 -0.969,-1.559 -1.454,-2.32 -0.192,-0.303 -0.399,-0.649 -0.595,-0.849 -0.534,-0.528 -1.01,-1.319 -1.49,-2.111 -1.107,-1.818 -2.208,-3.633 -3.314,-5.451 -0.337,-0.555 -0.677,-1.082 -1.045,-1.464 -0.315,-0.33 -0.605,-0.796 -0.894,-1.267 -0.82,-1.339 -1.635,-2.676 -2.457,-4.01 -0.145,-0.233 -0.297,-0.445 -0.446,-0.628 -0.096,-0.116 -0.201,-0.183 -0.296,-0.246 -0.119,-0.077 -0.254,0.057 -0.24,0.27 0.016,0.242 0.03,0.488 0.079,0.752 0.03,0.162 0.105,0.398 0.19,0.548 0.324,0.578 0.656,1.15 0.989,1.698 2.592,4.272 5.186,8.54 7.78,12.808 0.193,0.317 0.382,0.633 0.573,0.955 0.163,0.268 0.322,0.714 0.261,0.706 -0.145,-0.031 -0.298,-0.276 -0.438,-0.508 -0.432,-0.708 -0.863,-1.421 -1.294,-2.133 -0.531,-0.872 -1.055,-1.742 -1.588,-2.605 -0.191,-0.308 -0.397,-0.639 -0.597,-0.845 -0.475,-0.497 -0.911,-1.179 -1.341,-1.891 -1.73,-2.852 -3.456,-5.693 -5.185,-8.544 -0.288,-0.475 -0.565,-0.965 -0.808,-1.523 -0.615,-1.409 -1.33,-2.572 -2.115,-3.51 -0.213,-0.254 -0.394,-0.576 -0.551,-0.951 -0.32,-0.756 -0.696,-1.405 -1.109,-1.936 -0.201,-0.259 -0.403,-0.4 -0.553,-0.309 -0.099,0.062 -0.102,0.382 0,0.605 0.082,0.176 0.157,0.379 0.247,0.53 0.715,1.196 1.432,2.388 2.151,3.575 0.718,1.187 1.442,2.377 2.157,3.573 0.14,0.231 0.276,0.513 0.388,0.777 0.119,0.279 0.173,0.564 0.173,0.801 0,0.127 -0.246,0.126 -0.355,-0.004 -0.15,-0.179 -0.304,-0.368 -0.454,-0.584 -0.099,-0.141 -0.193,-0.317 -0.275,-0.494 -0.129,-0.265 -0.249,-0.541 -0.365,-0.816 -0.367,-0.859 -0.796,-1.561 -1.271,-2.096 -0.366,-0.409 -0.709,-0.887 -1.051,-1.443 -0.865,-1.417 -1.736,-2.83 -2.603,-4.243 -0.23,-0.383 -0.435,-0.459 -0.514,-0.209 -0.027,0.084 0.1,0.414 0.176,0.519 0.231,0.416 0.462,0.832 0.7,1.227 0.815,1.356 1.632,2.688 2.445,4.048 0.14,0.231 0.265,0.509 0.391,0.768 0.107,0.224 0.111,0.358 0.052,0.454 -0.048,0.082 -0.116,0.113 -0.235,-0.04 -0.152,-0.193 -0.304,-0.4 -0.446,-0.628 -0.578,-0.937 -1.153,-1.887 -1.733,-2.838 -0.48,-0.792 -0.957,-1.579 -1.488,-2.12 -0.537,-0.705 -1.217,-2.176 -1.65,-2.242 -0.563,-0.019 0.577,1.433 0.946,2.217 1.748,2.882 3.5,5.771 5.252,8.659 1.752,2.888 3.505,5.773 5.257,8.661l4.682 7.708zm9.66 0l14.776 0c-1.806,-3.152 -3.573,-6.405 -5.47,-9.336 -3.581,-5.531 -6.878,-11.803 -10.369,-17.584 -0.748,-1.242 -1.427,-2.296 -2.17,-2.344 -0.151,-0.014 -0.5,-0.568 -0.727,-0.96 -0.552,-0.951 -1.062,-1.631 -1.582,-1.601 -0.204,0.009 -0.497,-0.359 -0.742,-0.766 -3.313,-5.451 -6.631,-10.909 -9.939,-16.377 -0.279,-0.462 -0.515,-1.046 -0.772,-1.566 -0.172,-0.347 -0.345,-0.747 -0.561,-0.808 -0.075,-0.018 -0.163,0.044 -0.164,0.156 -0.006,0.405 0.137,0.916 0.381,1.328 1.092,1.845 2.194,3.676 3.299,5.498 2.304,3.801 4.612,7.59 6.915,11.391 0.295,0.487 0.644,1.15 0.535,1.535 -0.147,0.522 -0.566,-0.21 -0.912,-0.702 -1.467,-2.111 -2.638,-4.856 -4.034,-7.14 -0.827,-1.355 -1.694,-2.342 -2.541,-3.506 -0.124,-0.169 -0.201,-0.108 -0.176,0.105 0.02,0.154 0.053,0.397 0.114,0.495 2.579,4.296 5.167,8.585 7.745,12.885 0.233,0.389 0.504,0.952 0.359,1.234 -0.098,0.2 -0.355,-0.278 -0.537,-0.577 -2.78,-4.572 -5.558,-9.15 -8.336,-13.708 -0.383,-0.629 -0.909,-1.442 -1.046,-0.823 -0.134,0.612 0.353,1.657 0.795,2.28 5.199,7.33 9.739,16.519 14.712,24.513 1.004,1.614 2.047,4.032 3.109,6.027 0.055,0.101 0.064,0.326 0.059,0.452 -0.002,0.174 -0.092,0.183 -0.214,0.005 -0.297,-0.426 -0.609,-0.84 -0.877,-1.321 -3.826,-6.927 -7.957,-12.978 -11.896,-19.563 -0.073,-0.117 -0.21,-0.21 -0.259,-0.181 -0.052,0.037 -0.063,0.217 -0.042,0.372 0.08,0.549 0.258,1.116 0.557,1.642 3.569,6.231 7.069,12.588 10.311,19.382 0.083,0.173 0.187,0.334 0.272,0.503 0.544,1.085 1.751,2.912 1.596,2.982 -0.622,0.279 -1.365,-1.597 -1.969,-2.709 -0.68,-1.254 -1.319,-2.568 -2.047,-3.759 -0.478,-0.782 -0.809,-1.027 -1.252,-1.063 -0.581,-0.051 -1.146,-1.544 -1.72,-2.386 0,0 0,0 0,0 -1.248,-2.045 -2.495,-4.089 -3.742,-6.134 0,0 0,0 0,0 -0.227,-0.028 -0.461,-0.289 -0.703,-0.69 -0.184,-0.309 -0.366,-0.608 -0.551,-0.913 -0.422,-0.34 -0.832,-0.828 -1.23,-1.5 -0.061,-0.098 -0.123,-0.211 -0.184,-0.309 -0.333,-0.549 -0.67,-1.103 -1.003,-1.652 -0.184,-0.054 -0.383,-0.188 -0.58,-0.512 -1.09,-1.779 -2.18,-3.576 -3.268,-5.359 -0.951,-1.562 -1.902,-3.123 -2.855,-4.681 -0.144,-0.233 -0.286,-0.46 -0.433,-0.685 -0.207,-0.313 -0.398,-0.454 -0.579,-0.498 -0.097,0.087 -0.228,0.029 -0.39,-0.149l-0.001 -0.002c-0.21,0.05 -0.442,-0.254 -0.679,-0.653 -0.427,-0.687 -0.855,-1.375 -1.278,-2.056 -0.27,-0.44 -0.63,-0.39 -0.384,0.325 0.796,1.306 1.597,2.614 2.389,3.933 0.309,0.516 0.636,0.92 0.967,1.275 0.162,0.178 0.273,0.446 0.374,0.728 0.134,0.376 0.06,0.76 -0.129,0.61 -0.147,-0.117 -0.309,-0.243 -0.452,-0.442 -0.248,-0.347 -0.488,-0.752 -0.729,-1.154 -0.337,-0.554 -0.678,-1.044 -1.047,-1.441 -0.253,-0.273 -0.505,-0.66 -0.755,-0.979 -0.279,-0.41 -0.384,-0.076 -0.583,-0.046 1.243,2.057 2.487,4.115 3.735,6.174 1.731,2.848 3.464,5.706 5.195,8.553 0,0 0,0 0,0 0,0 0,0 0,0 0.99,1.638 1.98,3.276 2.969,4.917 0.196,0.328 0.311,0.711 0.387,1.074 1.558,2.572 3.114,5.151 4.678,7.71 0.397,0.653 0.697,1.344 0.966,2.096l0 0.001c0,0 0,0 0,0 0.119,0.28 0.185,0.545 0.204,0.793 1.283,2.134 2.567,4.263 3.849,6.401 0.011,0.018 0.023,0.037 0.034,0.055 0.181,0.303 0.363,0.602 0.547,0.911 0.038,0.061 0.074,0.203 0.08,0.276l0 0.018zm15.309 0l42.967 0c-1.121,-1.783 -2.244,-3.563 -3.366,-5.346 -2.155,-3.435 -4.305,-6.868 -6.431,-10.339 1.839,1.499 3.394,4.83 4.972,7.431 1.727,2.741 3.446,5.504 5.166,8.254l2.175 0c-1.035,-1.828 -2.062,-3.682 -3.08,-5.579 -3.236,-5.971 -6.756,-11.13 -10.019,-17.016 0.329,0.415 0.731,0.947 1.06,1.361 4.203,6.442 8.24,13.593 12.302,20.593l0.373 0.641 2.656 0 -0.434 -0.691c-2.252,-3.674 -4.508,-7.335 -6.746,-11.07 -0.749,-1.236 -1.503,-2.474 -2.038,-3.99 1.726,2.33 3.306,4.999 4.89,7.707 1.581,2.702 3.168,5.44 4.905,7.921l0.088 0.123 1.908 0c-0.46,-0.767 -0.849,-1.55 -0.972,-2.449 0.517,0.738 1.097,1.551 1.609,2.449l0.708 0c-0.063,-0.29 -0.114,-0.58 -0.153,-0.87 0.194,0.278 0.386,0.57 0.576,0.87l1.538 0c-0.034,-0.171 -0.059,-0.339 -0.071,-0.495l0.279 0.495 0.519 0c-1.478,-2.602 -2.99,-5.066 -4.291,-7.884 0.886,1.169 1.819,2.55 2.677,3.803 0.85,1.252 1.691,2.64 2.529,4.081l0.636 0c-2.117,-3.513 -4.232,-7.044 -6.349,-10.637 -1.577,-2.677 -3.148,-5.357 -4.71,-8.048 -3.121,-5.384 -6.192,-10.84 -9.171,-16.422 0.805,1.073 1.453,2.267 2.203,3.5 1.556,2.816 3.142,5.557 4.741,8.257 1.599,2.699 3.213,5.352 4.827,8.019 2.003,3.936 4.456,7.372 6.574,10.779 0.938,1.538 1.876,3.056 2.817,4.552l1.69 0c-1.957,-3.598 -3.855,-7.347 -5.672,-11.352 -1.529,-3.472 -3.551,-6.47 -5.356,-9.666 -1.803,-3.219 -3.549,-6.512 -5.104,-10.026 1.232,2.058 2.438,4.177 3.637,6.303 4.79,8.301 9.83,17.276 15,24.741l2.441 0c-4.132,-7.391 -8.234,-14.372 -12.367,-21.747 -0.153,-0.245 -0.223,-0.735 -0.452,-1.103 -0.756,-1.215 -1.618,-2.475 -2.036,-4.033 0.584,0.684 1.011,1.499 1.542,2.352 2.595,4.429 5.029,9.734 7.915,13.236 -0.071,-0.871 -0.597,-1.719 -0.668,-2.59 0.912,1.084 1.744,2.422 2.605,3.686 2.038,3.175 3.933,7.029 5.997,10.199l0.515 0c-0.492,-1.081 -0.971,-2.143 -1.536,-3.201 -4.43,-8.388 -9.152,-15.481 -13.115,-24.257 5.506,9.383 10.962,18.686 16.636,27.458l0.885 0c-1.794,-3.128 -3.646,-6.122 -4.931,-9.864 1.705,1.1 2.9,4.921 4.464,7.181 0.481,0.646 0.988,1.208 1.471,1.481 -4.728,-9.249 -9.483,-18.413 -14.573,-26.857 -0.729,-1.3 -1.462,-2.606 -2.063,-3.948 0.027,-0.085 0.155,-0.127 0.232,-0.005 5.492,9.399 10.981,19.097 16.911,26.921l0 -1.354c-4.998,-9.26 -10.374,-17.757 -15.591,-26.495 -1.198,-1.984 -2.397,-3.982 -3.584,-6 1.321,1.85 2.626,3.746 3.929,5.689 5.133,7.561 10.109,15.885 15.246,23.397l0 -2.431c-6.038,-9.794 -12.181,-19.098 -18.238,-28.977 -0.299,-0.493 -0.628,-0.908 -0.768,-1.522 0.712,0.66 1.414,1.695 2.149,2.648 3.413,4.732 6.428,11.098 10.003,14.95 -2.44,-4.557 -5.226,-8.031 -7.822,-12.456 -0.229,-0.368 -0.222,-0.738 -0.425,-1.187 3.416,4.355 6.564,9.93 9.978,14.661 0.885,1.169 1.795,2.258 2.711,3.348 -1.548,-4.509 -4.665,-8.007 -6.83,-11.993 -2.2,-3.513 -4.413,-6.982 -6.609,-10.522 -1.453,-2.324 -2.904,-4.634 -4.354,-6.947 -2.899,-4.632 -5.797,-9.286 -8.655,-14.082 -0.602,-0.993 -1.276,-2.103 -1.821,-3.255 4.383,6.746 8.719,13.677 13.061,20.572 1.449,2.299 2.898,4.598 4.347,6.878 4.322,6.755 8.76,13.223 13.273,19.328l0 -1.531c-3.224,-5.073 -6.495,-9.945 -9.718,-15.124 -1.21,-1.946 -2.499,-4.02 -3.665,-6.234 -1.417,-2.584 -2.777,-5.257 -4.047,-8.052 1.286,2.121 2.576,4.271 3.865,6.421 1.287,2.154 2.579,4.315 3.884,6.451 3.141,5.333 6.38,10.279 9.681,14.997l0 -3.496c-1.42,-2.166 -2.821,-4.334 -3.961,-6.598 -1.946,-3.258 -3.869,-6.555 -5.736,-9.973 -2.062,-3.655 -4.136,-7.291 -6.239,-11.075 -0.724,-1.317 -1.34,-2.59 -2.038,-3.991 0.253,0.292 0.431,0.457 0.659,0.829 0.348,0.701 0.666,1.48 1.097,1.937 2.257,2.509 4.321,5.811 6.361,9.282 2.671,4.35 5.261,9.528 8.153,12.663 -1.655,-3.801 -3.538,-7.589 -5.388,-11.279 -1.887,-3.647 -3.859,-7.151 -5.901,-10.454 -0.553,-0.781 -1.072,-2.018 -1.408,-3.086 0.639,0.543 1.181,1.689 1.708,2.555 1.941,3.071 3.775,6.538 5.638,9.879 1.863,3.34 3.755,6.55 5.819,9.106 -0.633,-2.938 -3.062,-5.793 -4.554,-8.633 -0.423,-0.828 -1.708,-3.576 -1.182,-2.71 1.314,2.07 2.66,4.26 4.014,6.476 0.983,1.594 1.968,3.196 2.958,4.785l0 -1.807c-0.46,-0.902 -0.907,-1.786 -1.273,-2.746 0.449,0.077 0.868,0.544 1.273,1.196l0 -1.437c-0.397,-0.702 -0.796,-1.399 -1.196,-2.088 -4.491,-7.754 -9.151,-14.79 -13.455,-23.027 4.829,6.934 9.426,14.679 13.994,22.466l0.657 1.121 0 -3.929c-0.775,-1.387 -1.553,-2.782 -2.327,-4.198 -0.076,-0.123 0.366,-0.034 0.525,-0.155 -5.301,-10.898 -11.379,-19.891 -17.039,-30.104 -0.077,-0.123 -0.14,-0.615 -0.065,-0.487 1.445,1.617 2.739,4.005 3.959,6.266 4.875,9.214 9.872,17.513 14.947,25.546l0 -6.06c-2.909,-5.001 -5.821,-9.993 -8.676,-15.146 -0.121,-0.328 -0.113,-0.698 -0.133,-0.984 3.039,4.698 5.773,10.057 8.809,14.86l0 -4.564c-0.537,-1.293 -1.085,-2.606 -1.722,-3.853 -1.961,-3.868 -4.073,-6.966 -6.005,-10.908 -3.499,-6.909 -7.184,-12.602 -10.724,-19.068 5.609,8.985 10.751,20.004 17.035,26.021 0.475,0.45 0.946,0.89 1.416,1.324l0 -16.69c-0.463,-0.802 -0.924,-1.609 -1.384,-2.423 -0.977,-1.609 -1.923,-3.297 -2.844,-5.064 1.452,1.398 2.854,3.121 4.228,5.037l0 -3.342c-0.874,-1.532 -1.753,-3.057 -2.641,-4.566 -0.153,-0.246 -0.114,-0.699 0.037,-0.449 0.898,1.086 1.761,2.466 2.604,3.926l0 -10.704 -0.16 -0.263 0.076 0.122c-0.591,-1.353 -1.408,-2.062 -1.943,-3.578 0.671,0.627 1.359,1.958 2.027,3.109l0 -5.521c-1.913,-3.076 -3.81,-6.231 -5.634,-9.654 -0.496,-0.944 -1.003,-1.524 -1.556,-2.305 -0.405,-0.538 -0.33,-1.436 -0.675,-2.131 -1.98,-4.153 -4.176,-7.003 -6.073,-10.891 -0.139,-0.235 -0.271,-0.492 -0.397,-0.747 -0.032,-0.063 -0.041,-0.18 -0.041,-0.256 0.002,-0.023 0.062,0.004 0.102,0.043 0.265,0.273 0.493,0.716 0.728,1.101 3.392,5.457 6.611,11.137 10.043,16.538 0.299,0.493 0.659,0.83 0.985,1.239 0.856,1.297 1.692,2.673 2.518,4.078l0 -3.007c-3.208,-6.673 -6.649,-12.335 -10.122,-18.061 -0.146,-0.248 -0.386,-0.653 -0.532,-0.901 -0.174,-0.306 -0.352,-0.617 -0.526,-0.922 -0.099,-0.179 -0.129,-0.341 -0.073,-0.444 0.018,-0.04 0.054,-0.064 0.098,-0.038 0.068,0.039 0.135,0.083 0.202,0.126 0.117,0.138 0.286,0.333 0.405,0.467 0.427,0.706 0.854,1.413 1.281,2.119 2.18,4.596 4.826,8.189 7.248,12.436 0.224,0.366 0.431,0.457 0.685,0.745 0.463,0.645 0.903,1.325 1.334,2.021l0 -8.245 -0.08 -0.124c-0.076,-0.123 -0.095,-0.414 -0.095,-0.414l0.175 0.256 0 -6.43c-0.004,-0.047 -0.006,-0.092 -0.007,-0.132 -0.001,-0.036 0.001,-0.064 0.007,-0.086l0 -7.627c-0.284,-0.468 -0.557,-0.965 -0.805,-1.536l0.169 -0.485c0.214,0.314 0.426,0.63 0.636,0.949l0 -42.673 -26.368 0c1.004,1.616 2,3.251 2.983,4.914 0.152,0.245 -0.011,0.364 -0.038,0.449 -1.216,-1.766 -2.417,-3.556 -3.606,-5.363l-4.626 0c0.865,1.36 1.733,2.721 2.589,4.104 0.904,1.459 1.87,2.809 2.66,4.571 -0.999,-0.989 -1.773,-2.948 -2.709,-4.121 -1.071,-1.343 -2.07,-2.921 -3.051,-4.554l-3.635 0c1.437,2.202 2.869,4.42 4.255,6.804 0.773,1.326 1.845,1.879 2.331,3.954 -0.918,-0.624 -1.595,-2.51 -2.436,-3.511 -1.738,-2.074 -3.363,-4.61 -4.962,-7.247l-4.559 0c0.883,1.344 1.769,2.67 2.644,4.015 2.067,3.185 3.963,6.693 5.971,9.88 3.348,5.308 6.695,10.597 9.988,16.078 0.151,0.249 0.46,0.657 0.281,0.898 -0.122,0.167 -0.364,-0.107 -0.549,-0.411 -1.782,-2.905 -3.564,-5.823 -5.343,-8.736l-0.001 0c-0.031,-0.05 -0.065,-0.105 -0.094,-0.157 -0.394,-0.666 -0.787,-1.299 -1.225,-1.735 -0.258,-0.256 -0.499,-0.643 -0.737,-1.033 -0.997,-1.636 -1.997,-3.282 -2.993,-4.917 -0.236,-0.385 -0.48,-0.758 -0.723,-1.137 -0.173,-0.272 -0.406,-0.264 -0.421,0.024 -0.015,0.358 -0.023,0.728 -0.104,1.005 -0.143,-0.237 -0.29,-0.485 -0.428,-0.74 -0.131,-0.242 -0.253,-0.495 -0.359,-0.775 -0.218,-0.568 -0.482,-1.062 -0.77,-1.537 -0.474,-0.776 -0.938,-1.567 -1.466,-2.079 -0.193,-0.19 -0.396,-0.534 -0.589,-0.832 -0.239,-0.373 -0.469,-0.755 -0.705,-1.14 0,0 -0.007,-0.012 -0.007,-0.012 -0.238,-0.396 -0.476,-0.791 -0.715,-1.181 -0.243,-0.398 -0.489,-0.749 -0.747,-1.005 -0.052,-0.053 -0.109,-0.111 -0.164,-0.174 -0.404,-0.467 -0.814,-0.883 -1.208,-1.421 -0.397,-0.544 -0.776,-1.204 -1.164,-1.815 -0.369,-0.581 -0.708,-0.853 -1.008,-0.832 -0.07,0.002 -0.097,0.144 -0.121,0.258 -0.008,0.025 0.062,0.188 0.106,0.266 0.183,0.332 0.366,0.665 0.554,0.979 0.812,1.346 1.622,2.68 2.436,4.021 0.336,0.555 0.657,1.127 0.924,1.793 0.185,0.47 0.416,0.886 0.659,1.284 1.817,2.993 3.63,5.979 5.449,8.968 0.243,0.397 0.491,0.72 0.749,1.015 0.204,0.231 0.414,0.474 0.602,0.77 0.578,0.923 1.171,1.814 1.685,2.902 0.12,0.257 0.278,0.504 0.424,0.681 0.362,0.456 0.692,0.998 1.028,1.553 1.338,2.196 2.678,4.403 4.016,6.599 0.477,0.786 0.951,1.581 1.481,2.108 0.196,0.196 0.4,0.535 0.593,0.834 0.338,0.531 0.674,1.09 1.009,1.635 0,0 0,0 0,0 0.092,0.161 0.184,0.309 0.279,0.462 0.262,0.466 0.526,0.923 0.787,1.393 0.106,0.19 0.174,0.669 0.09,0.661 -0.073,-0.003 -0.164,-0.061 -0.254,-0.122 -0.042,-0.03 -0.096,-0.097 -0.142,-0.171 -0.14,-0.212 -0.275,-0.423 -0.415,-0.635l0 -0.001c-0.034,-0.055 -0.069,-0.11 -0.103,-0.165 -0.245,-0.408 -0.492,-0.811 -0.737,-1.218 -0.027,-0.043 -0.054,-0.086 -0.081,-0.129 -0.384,-0.606 -0.769,-1.225 -1.14,-1.873 -0.408,-0.713 -0.821,-1.353 -1.263,-1.795 -0.258,-0.257 -0.503,-0.631 -0.738,-1.035 -0.344,-0.585 -0.698,-0.886 -1.05,-1.244 -0.29,-0.466 -0.578,-0.942 -0.866,-1.412l0 0c-0.05,-0.08 -0.096,-0.153 -0.146,-0.233 -0.297,-0.497 -0.591,-0.857 -0.882,-0.922 -0.188,-0.042 -0.391,-0.254 -0.591,-0.569 -0.386,-0.615 -0.771,-1.24 -1.157,-1.874 -1.439,-2.366 -2.873,-4.731 -4.311,-7.101 -0.338,-0.555 -0.681,-1.07 -1.047,-1.441 -0.261,-0.267 -0.505,-0.641 -0.748,-1.038 -0.671,-1.099 -1.341,-2.203 -2.012,-3.306 -1.533,-2.524 -3.068,-5.044 -4.595,-7.57 -0.389,-0.645 -0.779,-1.196 -1.194,-1.628 -0.267,-0.283 -0.492,-0.721 -0.68,-1.201 -0.152,-0.393 -0.34,-0.708 -0.554,-0.924 -0.338,-0.344 -0.676,-0.673 -0.992,-0.806l-1.711 0 1.668 2.747c0.065,0.104 0.126,0.202 0.189,0.311 1.348,2.219 2.692,4.432 4.038,6.655 0,0 0,0 0,0 0.085,0.135 0.163,0.268 0.246,0.407 0.488,0.805 0.979,1.62 1.467,2.424 0,0 0.008,0.012 0.011,0.019 0.093,0.161 0.19,0.329 0.284,0.487 0.3,0.508 0.51,1.044 0.611,1.62 0.048,0.268 0.084,0.537 0.152,0.813 0.043,0.176 0.123,0.395 0.208,0.544 0.326,0.575 0.657,1.146 0.99,1.694 3.64,6.003 7.283,11.996 10.923,17.998 0.477,0.787 0.978,1.515 1.407,2.416 0.086,0.183 0.1,0.358 0.01,0.391 -0.112,0.044 -0.273,-0.049 -0.418,-0.263 -0.385,-0.583 -0.762,-1.195 -1.146,-1.8 -0.008,-0.012 -0.015,-0.025 -0.019,-0.03 0,-0.001 0,-0.001 0,-0.001 -0.357,-0.585 -0.709,-1.165 -1.063,-1.754 -0.031,-0.049 -0.061,-0.098 -0.088,-0.141l0 0c-0.195,-0.313 -0.386,-0.635 -0.576,-0.946 -0.383,-0.628 -0.766,-1.257 -1.152,-1.891l-7.497 -12.34c0,0 0,0 0,0 0,0 0,0 0,0 -0.057,-0.092 -0.114,-0.184 -0.166,-0.274 -3.862,-6.363 -7.723,-12.726 -11.585,-19.086l-0.885 0c1.213,2.001 2.426,3.999 3.636,5.992 0.19,0.311 0.376,0.631 0.54,1.003 0.08,0.185 0.134,0.636 0.058,0.678 -0.146,0.078 -0.327,-0.003 -0.543,-0.248 -0.261,-0.3 -0.497,-0.704 -0.736,-1.095 -1.282,-2.108 -2.562,-4.223 -3.844,-6.33l-0.894 0 0.05 0.081c0.484,0.779 0.958,1.574 1.439,2.366 0.67,1.103 1.341,2.221 2.013,3.32 0.386,0.635 0.745,1.302 1.061,2.052 0.151,0.358 0.34,0.707 0.526,1.031 0.282,0.492 0.572,0.959 0.86,1.434 0.911,1.504 1.824,3.005 2.732,4.503 0.287,0.475 0.574,0.95 0.859,1.434 0.094,0.157 0.174,0.343 0.255,0.524 0.097,0.22 0.101,0.354 0.074,0.476 -0.028,0.145 -0.089,0.156 -0.214,0.025 -0.321,-0.332 -0.597,-0.845 -0.88,-1.314 -3.225,-5.306 -6.451,-10.621 -9.674,-15.932l-0.888 0 0.016 0.025c0.241,0.401 0.457,0.831 0.655,1.297 0.351,0.82 0.688,1.686 1.081,2.446 0.439,0.853 0.939,1.619 1.417,2.419 0.38,0.637 0.768,1.268 1.15,1.896 0.476,0.79 0.957,1.582 1.43,2.382 0.176,0.296 0.4,0.828 0.497,1.176 0.236,0.857 0.597,1.591 1.031,2.295 1.059,1.729 2.113,3.476 3.166,5.207 0.239,0.391 0.485,0.799 0.743,1.056 0.456,0.447 0.87,1.125 1.284,1.798 0.02,0.031 0.038,0.062 0.058,0.092 0.279,0.482 0.584,0.92 0.82,1.485 0.086,0.202 0.083,0.357 0.051,0.459 -0.039,0.123 -0.109,0.144 -0.231,-0.015 -0.15,-0.198 -0.301,-0.395 -0.443,-0.618 -0.289,-0.452 -0.575,-0.931 -0.869,-1.385 -0.182,-0.28 -0.377,-0.465 -0.56,-0.557 -0.191,-0.089 -0.396,-0.26 -0.601,-0.43 -0.188,-0.15 -0.272,-0.011 -0.191,0.317 0.133,0.545 0.276,0.749 0.614,0.879 0.171,0.276 0.337,0.555 0.509,0.831 0.164,0.264 0.33,0.538 0.493,0.806 0.149,0.24 0.292,0.477 0.44,0.721 3.489,5.752 6.983,11.506 10.471,17.258 0.292,0.482 0.568,0.976 0.658,1.581l0.001 0c-1.543,-2.532 -3.081,-5.058 -4.624,-7.59l0 0c-0.186,-0.305 -0.37,-0.614 -0.555,-0.919 -0.905,-1.493 -1.807,-2.989 -2.711,-4.482 -0.111,-0.178 -0.225,-0.362 -0.336,-0.54 -0.08,-0.129 -0.156,-0.251 -0.239,-0.372 -0.108,-0.168 -0.216,-0.282 -0.321,-0.369 -0.087,-0.07 -0.175,-0.117 -0.26,-0.139 -0.963,-1.58 -1.923,-3.15 -2.886,-4.73 0,0 0,0 0,0 -0.155,-0.18 -0.283,-0.233 -0.384,-0.166 -0.576,-0.946 -1.143,-1.94 -1.779,-2.53 -0.492,-0.773 -1.025,-1.216 -1.513,-1.949 -0.449,-0.672 -0.892,-1.294 -1.357,-1.788 -0.388,-0.611 -0.782,-1.221 -1.165,-1.849 -1.058,-1.734 -2.122,-3.446 -3.162,-5.22 -0.591,-1.008 -1.189,-1.717 -1.803,-2.379 -0.108,-0.115 -0.188,-0.097 -0.249,-0.012 0.005,0.716 0.446,1.196 0.743,1.693 0.906,1.522 1.818,3.008 2.731,4.508 0.383,0.628 0.761,1.288 1.185,1.715 0.478,0.489 0.9,1.231 1.331,1.943 2.157,3.554 4.315,7.108 6.477,10.667 0.431,0.713 0.87,1.4 1.208,2.281 0.291,0.755 0.728,1.356 1.01,2.122 0.252,0.679 0.633,1.184 0.922,1.801 0.415,0.891 0.839,1.771 1.253,2.667 0.072,0.154 0.099,0.362 0.145,0.544 -0.077,0.336 -0.276,0.035 -0.471,-0.273 -0.145,-0.233 -0.291,-0.467 -0.434,-0.704 -0.239,-0.391 -0.481,-0.792 -0.72,-1.183 -0.526,-0.866 -1.059,-1.73 -1.58,-2.613 -0.529,-0.895 -1.061,-1.706 -1.64,-2.275 -0.154,-0.151 -0.309,-0.407 -0.46,-0.548 -0.48,-0.447 -0.91,-1.145 -1.341,-1.857 -0.718,-1.188 -1.438,-2.371 -2.158,-3.554 -0.478,-0.782 -0.946,-1.612 -1.481,-2.16 -0.422,-0.43 -0.798,-1.118 -1.181,-1.742 -0.34,-0.546 -0.67,-1.103 -1.009,-1.653 -0.573,-0.936 -1.132,-1.936 -1.774,-2.6 -0.365,-0.376 -0.693,-0.993 -1.032,-1.544 -0.384,-0.624 -0.767,-1.267 -1.151,-1.891 -0.528,-0.862 -1.042,-1.766 -1.628,-2.37 -0.434,-0.448 -0.817,-1.186 -1.214,-1.824 -0.538,-0.866 -1.073,-1.74 -1.602,-2.635 -0.221,-0.375 -0.45,-0.724 -0.666,-1.097 -0.403,-0.712 -0.794,-1.093 -1.185,-1.238 -0.139,-0.051 -0.283,-0.124 -0.421,-0.179 -0.335,-0.138 -0.674,-0.377 -1.04,-0.985 -0.188,-0.316 -0.389,-0.664 -0.591,-0.824 -0.23,-0.184 -0.325,-0.027 -0.257,0.396 0.059,0.362 0.197,0.744 0.376,1.107 0.385,0.785 0.676,1.668 1.141,2.384 0.875,1.345 1.677,2.979 2.637,4.001 0.413,0.441 0.791,1.157 1.171,1.794 0.374,0.62 0.819,1.234 0.818,2.041 0,0.586 0.227,0.996 0.587,1.423 0.783,0.928 1.458,2.269 2.185,3.413 0.437,0.69 0.859,1.433 1.337,1.922 0.422,0.43 0.799,1.113 1.182,1.741 0.626,1.026 1.245,2.054 1.871,3.079 0.573,0.935 1.134,1.927 1.775,2.595 0.471,0.495 0.887,1.307 1.32,2.014 1.49,2.442 2.977,4.897 4.461,7.337 0.24,0.391 0.48,0.796 0.72,1.183 0.531,0.853 1.039,1.759 1.626,2.378 0.521,0.552 0.986,1.448 1.457,2.255 0.086,0.146 0.157,0.304 0.216,0.463 0.078,0.209 0.133,0.418 0.18,0.634 0,0 0,0 0,0 0,0 -0.039,-0.024 -0.039,-0.024 0,0 0,0 0,0 -0.137,-0.183 -0.251,-0.24 -0.349,-0.205 -0.295,-0.449 -0.587,-0.893 -0.882,-1.342 0,0 0,0 0,0 0,0 0,0 0,0 -0.182,-0.299 -0.367,-0.604 -0.548,-0.907 -0.145,-0.234 -0.287,-0.475 -0.427,-0.706 -1.301,-2.15 -2.607,-4.302 -3.907,-6.451 -0.269,-0.444 -0.542,-0.871 -0.832,-1.192 -0.022,-0.022 -0.042,-0.048 -0.06,-0.064 -0.366,-0.372 -0.709,-0.905 -1.046,-1.46 -0.765,-1.261 -1.53,-2.518 -2.29,-3.773 -0.318,-0.524 -0.636,-1.048 -0.954,-1.572 -0.31,-0.512 -0.629,-0.98 -0.955,-1.384 -0.1,-0.122 -0.201,-0.24 -0.304,-0.349 -0.246,-0.26 -0.501,-0.691 -0.74,-1.082 -0.607,-0.976 -1.202,-1.971 -1.807,-2.951 -0.023,-0.037 -0.046,-0.074 -0.069,-0.11 -0.164,-0.264 -0.338,-0.513 -0.511,-0.714 -0.029,-0.034 -0.059,-0.069 -0.088,-0.104 -0.509,-0.557 -1.021,-1.266 -1.532,-1.687 -0.511,-0.421 -1.022,-1.134 -1.531,-1.692 -0.359,-0.393 -0.685,-1.038 -1.022,-1.574 -0.244,-0.393 -0.49,-0.762 -0.751,-1.029 -0.312,-0.323 -0.609,-0.731 -0.9,-1.212 -0.913,-1.501 -1.821,-2.999 -2.735,-4.495 -0.239,-0.391 -0.485,-0.761 -0.731,-1.131 -0.041,-0.067 -0.109,-0.126 -0.148,-0.13 -0.083,-0.012 -0.211,-0.06 -0.22,0.041 -0.051,0.472 -0.08,0.967 -0.098,1.48 -0.006,0.22 0.034,0.495 0.068,0.753 0.048,0.358 0.147,0.739 0.354,1.085 0.714,1.2 1.426,2.39 2.145,3.577 0.862,1.425 1.725,2.846 2.59,4.262 0.239,0.391 0.483,0.784 0.743,1.055 0.416,0.429 0.806,1.017 1.195,1.662 0.862,1.425 1.727,2.841 2.589,4.266 0.669,1.108 1.337,2.215 2.002,3.335 0.109,0.182 0.135,0.376 0.113,0.481 -0.027,0.141 -0.101,0.157 -0.222,0.032 -0.102,-0.099 -0.211,-0.173 -0.301,-0.305 -0.295,-0.45 -0.587,-0.913 -0.875,-1.383 -1.391,-2.283 -2.779,-4.577 -4.175,-6.862 -0.239,-0.391 -0.493,-0.825 -0.737,-1.09 -0.473,-0.506 -0.911,-1.141 -1.347,-1.855 -0.243,-0.397 -0.494,-0.731 -0.755,-0.998 -0.512,-0.529 -1.001,-1.424 -1.521,-1.887 -0.246,-0.369 -0.494,-0.73 -0.736,-1.113 -0.533,-0.845 -1.061,-1.725 -1.599,-2.553 -0.194,-0.299 -0.398,-0.417 -0.57,-0.4 -0.142,0.014 -0.139,0.515 0.017,0.805 0.092,0.166 0.177,0.353 0.27,0.511 0.524,0.874 1.054,1.747 1.581,2.612 0.481,0.792 0.956,1.564 1.487,2.106 0.196,0.2 0.4,0.535 0.595,0.848 0.385,0.62 0.771,1.259 1.153,1.887 1.007,1.658 2.014,3.316 3.021,4.974 0.291,0.481 0.583,0.906 0.899,1.236 0.528,0.55 0.998,1.376 1.455,2.226 0.029,0.053 0.04,0.18 0.036,0.249 -0.008,0.229 -0.12,0.272 -0.216,0.341 -0.328,-0.292 -0.66,-0.533 -0.985,-1.088 0,0 0,0 0,0l0 0c0,0 -0.008,-0.013 -0.011,-0.018 -2.654,-3.677 -5.11,-8.054 -7.659,-12.098 -0.268,-0.429 -0.512,-0.567 -0.589,-0.194 -0.055,0.268 0.051,0.661 0.262,1.013 0.853,1.436 1.715,2.842 2.565,4.286 0.693,1.178 1.445,2.222 2.078,3.553 -0.486,0.32 -1.276,-1.224 -1.804,-1.169 0,0 0,0 0,0l0 -0.001c0,0 -0.012,-0.018 -0.019,-0.03 -0.19,-0.293 -0.38,-0.585 -0.572,-0.888 -0.151,-0.212 -0.28,-0.278 -0.386,-0.233 0,0 0,0 0,0 -0.194,-0.298 -0.388,-0.592 -0.586,-0.897 -0.331,-0.553 -0.667,-1.112 -1,-1.66 -0.238,-0.395 -0.481,-0.736 -0.736,-1.005 -0.203,-0.212 -0.406,-0.462 -0.611,-0.704 -0.228,-0.264 -0.411,-0.228 -0.412,0.084 -0.001,0.094 0.002,0.195 0.005,0.295 0.004,0.134 0.008,0.267 0.011,0.405 0.183,0.276 0.366,0.552 0.56,0.723 0.238,0.211 0.473,0.506 0.704,0.866 0,0 0,0 0,0 1.22,2.077 2.532,3.952 3.603,6.376 0.272,0.615 0.646,1.178 1.006,1.223 0.19,0.254 0.384,0.534 0.575,0.765 0.229,0.279 0.349,0.607 0.416,0.962 0.075,0.42 0.048,0.778 0.233,1.267 0.087,0.274 0.152,0.633 0.267,0.817 3.703,5.927 7.144,12.526 10.858,18.423 0.103,0.165 0.227,0.264 0.352,0.361 0.078,0.062 0.157,0.121 0.23,0.181 0.43,0.716 0.863,1.425 1.289,2.15 0.102,0.169 0.154,0.388 0.138,0.495 -0.022,0.143 -0.107,0.139 -0.214,0.058 -0.05,-0.043 -0.097,-0.055 -0.147,-0.117 -0.461,-0.543 -0.9,-1.269 -1.369,-1.73 -0.145,-0.144 -0.301,-0.414 -0.445,-0.652 -0.435,-0.699 -0.866,-1.412 -1.301,-2.13 -3.555,-5.853 -7.11,-11.705 -10.661,-17.552 -0.287,-0.475 -0.578,-0.941 -0.863,-1.42 -0.391,-0.66 -0.783,-1.183 -1.197,-1.422 -0.305,-0.179 -0.605,-0.578 -0.9,-1.065 -1.444,-2.373 -2.882,-4.739 -4.327,-7.107 -0.239,-0.391 -0.485,-0.78 -0.736,-1.114 -0.205,-0.279 -0.405,-0.391 -0.57,-0.362 -0.246,0.051 -0.364,0.337 -0.352,0.828 0.004,0.224 0.083,0.523 0.14,0.799 0.018,0.087 0.06,0.192 0.1,0.283 0.575,1.365 1.181,2.576 1.818,3.63 1.248,2.06 2.497,4.12 3.747,6.175 0.387,0.634 0.749,1.292 1.068,2.049 0.151,0.358 0.34,0.711 0.527,1.031 0.473,0.813 0.955,1.602 1.431,2.392 0.291,0.481 0.553,0.998 0.763,1.572 0.136,0.372 0.288,0.749 0.429,1.123 0.183,0.479 0.405,0.906 0.646,1.307 0.383,0.628 0.768,1.267 1.149,1.899 1.919,3.163 3.84,6.336 5.759,9.499 0.387,0.635 0.747,1.297 1.068,2.05 0.151,0.358 0.342,0.703 0.531,1.032 0.377,0.646 0.764,1.28 1.147,1.909 2.786,4.589 5.571,9.179 8.352,13.767 0.287,0.475 0.574,0.95 0.855,1.446 0.078,0.137 0.132,0.346 0.171,0.516 0.037,0.156 -0.227,0.138 -0.343,-0.004 -0.05,-0.061 -0.104,-0.109 -0.155,-0.185 -0.15,-0.216 -0.302,-0.428 -0.442,-0.66 -1.2,-1.975 -2.4,-3.95 -3.603,-5.936 -0.291,-0.481 -0.565,-0.98 -0.796,-1.543 -0.192,-0.467 -0.419,-0.896 -0.657,-1.291 -0.192,-0.322 -0.38,-0.637 -0.573,-0.954 -3.504,-5.777 -7.008,-11.558 -10.512,-17.336 -0.237,-0.395 -0.485,-0.774 -0.725,-1.165 -0.122,-0.197 -0.201,-0.254 -0.258,-0.148 -0.043,0.083 -0.059,0.209 -0.019,0.409 0.097,0.461 0.203,0.925 0.301,1.382 0.079,0.369 0.159,0.739 0.225,1.094 0.015,0.081 0,0.166 -0.025,0.19 -0.058,0.054 -0.166,-0.038 -0.248,-0.234 -0.194,-0.464 -0.375,-0.928 -0.55,-1.395 -0.318,-0.854 -0.73,-1.569 -1.212,-2.249 -0.999,-1.409 -1.955,-2.991 -2.844,-4.696 -0.387,-0.743 -0.789,-1.294 -1.213,-1.791 -0.356,-0.42 -0.706,-0.951 -1.063,-1.353 -1.681,-1.926 -3.419,-5.098 -5.023,-5.786 -0.278,-0.194 0.021,0.664 0.219,1.111 3.629,6.22 7.368,11.725 10.919,18.194 1.585,2.926 3.278,5.528 4.89,8.369 0.427,0.815 0.7,1.757 1.211,2.452 0.253,0.42 0.665,1.101 0.909,1.532 0.077,0.137 0.15,0.272 0.203,0.415 0.575,1.461 1.339,2.556 2.047,3.759 0.235,0.403 0.483,0.764 0.674,1.255 0.084,0.225 0.104,0.365 0.037,0.449 -0.05,0.067 -0.134,0.097 -0.241,-0.056 -0.604,-0.857 -1.194,-1.756 -1.667,-2.904 -2.548,-4.889 -5.428,-9.141 -8.073,-13.778 -2.446,-4.189 -5.361,-10.14 -7.925,-12.493 0.559,3.302 2.848,5.085 3.946,8.118 -1.978,-2.041 -4.217,-6.527 -6.132,-9.864 -1.183,-2.03 -2.292,-4.316 -3.659,-5.758 -0.077,-0.123 -0.081,0.254 -0.029,0.457 0.553,1.145 1.183,2.03 1.661,3.048 2.057,4.698 4.47,9.338 7.048,13.109 1.717,2.507 3.742,5.132 4.966,8.491 0.126,0.331 -0.132,0.419 -0.383,0.142 -2.128,-2.663 -3.776,-6.832 -5.83,-8.996 2.951,7.278 7.915,13.236 11.642,20.243 0.152,0.246 0.023,0.292 -0.155,0.127 -2.3,-3.194 -4.382,-4.902 -6.698,-6.601 -0.103,-0.037 -0.004,0.377 0.149,0.623 0.378,0.607 0.808,1.046 1.164,1.744 1.129,2.2 2.085,4.241 3.169,6.239 0.779,1.508 1.763,3.091 2.308,4.975 -0.328,-0.4 -0.557,-0.769 -0.858,-1.254 -2.967,-5.785 -6.017,-10.941 -9.33,-15.262 -3.416,-4.355 -6.16,-9.407 -9.369,-14.058 -1.311,-1.988 -3.69,-4.93 -3.615,-2.28 -0.021,2.241 2.241,4.109 3.447,6.432 3.823,7.411 8.923,15.112 13.1,22.843 1.313,1.984 3.545,4.313 4.186,6.988 -0.685,-0.726 -1.341,-1.526 -1.948,-2.503 -2.473,-4.104 -4.995,-8.034 -7.672,-11.836 -1.921,-2.588 -3.718,-4.841 -5.481,-7.932 -1.965,-3.544 -4.054,-7.407 -6.283,-9.731 7.235,17.577 17.12,31.458 26.022,45.905 2.118,3.406 4.442,6.89 6.56,10.679 -1.17,-0.996 -2.144,-3.322 -3.259,-4.859 -1.781,-2.578 -3.516,-5.243 -5.232,-7.938 -5.393,-8.65 -10.666,-16.878 -16.534,-24.674 -0.66,-0.807 -1.21,-1.946 -1.816,-2.921 1.74,5.704 3.936,11.766 7.093,16.215 1.568,2.268 3.211,4.279 4.723,7.093 0.477,1.022 1.528,3.472 1.277,3.194 -7.662,-7.52 -14.319,-21.14 -22.086,-31.232 -0.557,-0.769 -1.166,-1.372 -1.677,-1.556 7.243,11.394 14.668,22.205 21.887,33.69 -1.987,-1.298 -4.059,-3.752 -6.059,-6.458 -3.413,-4.732 -6.304,-10.395 -9.899,-14.912 -0.229,-0.368 -0.401,-0.899 -0.63,-1.267 -0.179,-0.162 -0.334,-0.035 -0.51,-0.19 -0.736,-0.929 -1.284,-2.44 -2.045,-3.289 -0.179,-0.161 -0.305,-0.109 -0.406,-0.151 5.557,10.96 12.035,19.359 18.113,29.009 0.152,0.246 0.222,0.739 0.246,1.027 -4.983,-6.627 -9.723,-14.378 -14.599,-21.712 -0.858,-1.253 -1.749,-2.056 -2.585,-3.018 5.827,9.373 11.654,18.746 16.91,29.221 -7.139,-11.357 -14.12,-23.6 -21.685,-33.238 1.529,3.472 3.343,6.766 5.106,9.857 3.1,5.362 6.096,10.691 9.12,15.931 3.829,6.662 7.557,13.297 11.544,19.456 0.153,0.246 0.223,0.735 0.35,1.065 -0.991,-0.835 -2.055,-2.164 -3.013,-3.832 -4.76,-8.416 -9.354,-15.551 -14.717,-22.413 -2.276,-2.903 -4.06,-6.658 -6.1,-10.315 -0.778,-1.507 -1.538,-2.728 -2.422,-3.897 6.15,13.055 13.158,24.83 20.014,36.743 0.049,0.207 0.15,0.618 0.195,0.819 2.947,5.121 6.083,9.657 8.768,15.243 -9.536,-15.338 -18.808,-31.515 -28.105,-47.611 3.76,8.706 8.586,15.454 12.939,23.719 0.199,0.447 0.299,0.858 0.219,1.111 -4.823,-7.503 -9.251,-15.512 -13.889,-23.603 -0.607,-0.976 -1.137,-1.83 -1.793,-2.63 0.929,2.125 1.86,3.878 2.941,5.87 2.867,5.371 6.562,10.302 8.788,15.908 -0.256,-0.284 -0.457,-0.358 -0.712,-0.642 -1.875,-2.003 -3.322,-6.101 -5.1,-7.7 1.318,4.14 3.799,7.124 5.663,10.625 -0.668,0.315 0.307,2.641 0.4,3.805 -0.761,-0.849 -1.517,-2.064 -2.144,-3.322 -2.013,-3.74 -3.849,-7.331 -5.993,-10.653 0.058,1.992 1.784,3.756 2.561,5.635 0.126,0.33 0.149,0.623 0.17,0.904 -0.531,-0.853 -1.035,-1.791 -1.645,-2.39 4.895,10.529 10.778,19.356 15.959,29.336 -6.007,-9.161 -11.7,-19.325 -17.628,-28.74 -2.675,-4.176 -5.35,-8.351 -8.084,-11.99 7.393,17.072 16.894,30.712 25.346,45.696 1.824,3.246 4.806,6.883 5.734,10.326 -2.112,-3.607 -4.239,-7.169 -6.375,-10.696 -2.205,-3.443 -4.319,-7.227 -6.566,-10.586 0.196,0.819 0.847,2.751 0.366,2.106 -4.42,-6.608 -8.469,-14.382 -12.943,-20.821 3.181,7.646 7.298,13.759 11.106,20.14 0.729,1.3 1.383,2.856 2.112,4.156 1.916,3.336 3.835,6.296 5.837,9.504 2.031,3.355 4.043,6.732 6.028,10.194l-0.078 0.25c-1.417,-1.89 -2.674,-4.052 -3.912,-6.253 -1.847,-3.501 -3.997,-6.456 -5.941,-9.704 -6.283,-9.731 -12.827,-21.902 -19.073,-30.305 3.533,5.429 6.855,11.913 10.388,17.341 -4.096,-2.925 -7.734,-10.925 -11.497,-16.722 -0.53,-0.853 -1.13,-2.195 -1.819,-2.545 4.726,9.622 10.077,17.599 15.248,26.172 -3.276,-2.995 -6.319,-8.903 -9.452,-13.433 -0.152,-0.245 -0.154,0.128 -0.181,0.212 3.303,5.815 6.758,11.126 10.158,16.576 1.706,2.706 3.407,5.41 5.086,8.182 1.677,2.761 3.337,5.578 4.954,8.496 -2.316,-3.598 -4.632,-7.182 -6.944,-10.755 -2.041,-3.156 -4.079,-6.306 -6.115,-9.461 -0.711,-1.208 -1.435,-2.397 -2.177,-3.527 -0.524,-0.799 -1.054,-1.695 -1.592,-2.338 -3.635,-5.637 -7.313,-11.261 -10.864,-17.074 2.463,5.873 6.497,11.866 10.082,17.479 0.06,0.466 0.097,0.915 0.139,1.365l0.001 0c-0.024,0.001 -0.05,-0.009 -0.075,-0.018 -1.434,-2.166 -2.861,-4.386 -4.276,-6.649 -2.725,-3.706 -5.275,-10.085 -7.919,-12.184 1.442,2.321 2.901,4.826 4.365,7.169 -0.078,-0.081 -0.155,-0.109 -0.193,-0.043 -0.073,0.123 -0.11,0.294 -0.074,0.563 0.059,0.47 0.226,0.924 0.444,1.364 0.044,0.083 0.082,0.163 0.13,0.247 0,0 0,0 0,0 -0.038,0.029 -0.072,0.063 -0.104,0.094 -0.942,-1.483 -1.879,-2.959 -2.822,-4.438 0.84,1.658 1.707,3.25 2.586,4.804 -0.159,0.451 0.009,1.104 0.777,2.206 0.59,0.847 1.154,1.869 1.7,2.874 0.277,0.508 0.426,1.131 0.316,1.515 -0.065,0.226 -0.181,0.245 -0.32,0.141 -0.72,-1.235 -1.444,-2.481 -2.161,-3.725 -0.214,-0.343 -0.474,-0.539 -0.714,-0.798 -0.287,-0.461 -0.57,-0.929 -0.856,-1.39 -0.245,-0.392 -0.557,-0.659 -0.638,-0.33 -0.082,0.314 0.136,0.867 0.382,1.289 0.709,1.199 1.41,2.441 2.146,3.554 2.219,3.359 4.125,7.457 6.307,10.897 0.242,0.383 0.481,0.774 0.727,1.143 0.436,0.659 1.347,1.289 1.194,1.922 -0.066,0.283 -0.24,0.288 -0.46,0.146 -0.327,-0.457 -0.652,-0.903 -0.985,-1.343 -0.405,-0.504 -0.796,-1.032 -1.19,-1.551 -0.192,-0.322 -0.38,-0.637 -0.575,-0.95 0,-0.001 0,-0.001 0,-0.001 -0.076,-0.122 -0.149,-0.239 -0.224,-0.366 -2.171,-3.563 -4.346,-7.137 -6.52,-10.693 -0.13,-0.208 -0.298,-0.388 -0.369,-0.179 -0.07,0.206 0.052,0.511 0.181,0.724 1.938,3.227 3.877,6.435 5.818,9.653 0.018,0.035 0.031,0.068 0.048,0.103 0.093,0.473 0.278,0.906 0.525,1.309 1.868,3.088 3.722,6.236 5.614,9.247 5.43,8.659 10.581,18.06 15.954,26.887 0.962,1.58 2.009,3.366 2.819,5.357 -1.03,-1.307 -1.94,-3.019 -2.885,-4.602 -3.802,-6.383 -7.519,-12.962 -11.368,-19.231 -4.13,-6.731 -8.424,-12.754 -12.587,-19.303 -1.656,-2.608 -3.276,-5.333 -4.916,-7.973 -0.294,-0.472 -0.645,-0.801 -0.758,-0.385 -0.106,0.372 0.199,0.882 0.432,1.238 2.172,3.308 4.243,7.009 6.147,10.767 3.975,7.86 8.275,14.853 12.534,21.991 0.177,0.297 0.421,0.709 0.343,0.992 -0.115,0.42 -0.415,-0.159 -0.63,-0.498 -4.39,-6.889 -8.44,-14.659 -12.816,-21.591 -0.537,-0.85 -1.041,-1.751 -1.499,-2.761 -0.058,-0.126 -0.266,-0.287 -0.27,-0.256 -0.216,1.601 -0.951,-0.027 -1.57,-1.035 -1.732,-2.825 -3.459,-5.666 -5.192,-8.486 -0.199,-0.319 -0.433,-0.505 -0.561,-0.392 -0.137,0.124 -0.055,0.523 0.087,0.911 0.595,1.6 1.235,3.165 2.087,4.529 3.095,4.959 6.102,10.103 8.799,15.874 0.367,0.787 0.836,1.486 1.271,2.167 3.857,6.044 7.51,12.628 11.194,19.076 1.774,3.109 3.586,6.1 5.361,9.19 0,0 0,0 0,0 0.025,0.175 0.066,0.337 0.124,0.5 0.093,0.271 0.221,0.521 0.372,0.771 0.092,0.147 0.181,0.303 0.271,0.455 0,0 0.012,0.037 0.012,0.037l0 0.001c-0.177,-0.024 -0.369,-0.142 -0.572,-0.467 -0.511,-0.822 -1.016,-1.648 -1.526,-2.474 -0.015,-0.025 -0.03,-0.05 -0.042,-0.068l0 0c-0.334,-0.563 -0.668,-1.107 -1,-1.679 -0.186,-0.324 -0.389,-0.664 -0.53,-1.019 -0.061,-0.154 -0.128,-0.307 -0.192,-0.449 -0.305,-0.675 -0.651,-1.257 -1.005,-1.847 -0.288,-0.474 -0.579,-0.956 -0.866,-1.43 -0.571,-0.945 -1.146,-1.894 -1.715,-2.842 -0.238,-0.395 -0.499,-0.808 -0.681,-1.254 -0.078,-0.19 -0.159,-0.371 -0.245,-0.553 -0.378,-0.807 -0.807,-1.509 -1.238,-2.222 -0.287,-0.474 -0.575,-0.949 -0.867,-1.426 -2.392,-3.943 -4.787,-7.891 -7.179,-11.834 -0.189,-0.311 -0.388,-0.611 -0.581,-0.91 -0.105,-0.162 -0.192,-0.194 -0.237,-0.069 -0.015,0.047 -0.01,0.142 0.004,0.223 0.077,0.36 0.168,0.729 0.245,1.088 0.013,0.066 -0.02,0.116 -0.038,0.156 -0.05,0.086 -0.163,0.063 -0.252,-0.13 -0.369,-0.818 -0.76,-1.586 -1.204,-2.294 -0.436,-0.696 -0.863,-1.421 -1.295,-2.129 -0.433,-0.708 -0.864,-1.402 -1.341,-1.895 -0.196,-0.2 -0.401,-0.531 -0.595,-0.83 -0.293,-0.457 -0.579,-0.937 -0.867,-1.408 -0.624,-1.014 -1.23,-2.1 -1.922,-2.786 -0.145,-0.143 -0.301,-0.413 -0.447,-0.642 -0.244,-0.379 -0.484,-0.784 -0.727,-1.162 -0.146,-0.23 -0.297,-0.446 -0.448,-0.62 -0.662,-0.765 -1.326,-1.521 -1.987,-2.253 -0.09,-0.099 -0.19,-0.108 -0.272,-0.119 -0.033,-0.008 -0.038,0.099 -0.038,0.174 0.003,0.063 0.02,0.173 0.049,0.227 0.764,1.464 1.612,2.714 2.415,4.069 0.713,1.205 1.437,2.375 2.15,3.561 0.238,0.395 0.478,0.8 0.668,1.272 0.308,0.757 0.677,1.413 1.063,2.048 0.672,1.098 1.339,2.21 2.009,3.314 0.718,1.187 1.437,2.374 2.151,3.556 0.288,0.475 0.569,0.971 0.798,1.538 0.23,0.567 0.503,1.069 0.79,1.544 0.763,1.266 1.53,2.537 2.294,3.798 0.336,0.555 0.654,1.135 0.923,1.797 0.19,0.472 0.424,0.88 0.665,1.281 0.336,0.559 0.669,1.108 1.006,1.663 0.433,0.708 0.856,1.427 1.19,2.302 0.019,0.05 0.035,0.088 0.055,0.134 0.176,0.41 0.403,0.768 0.619,1.122 0.17,0.28 0.34,0.56 0.513,0.851 0.65,1.077 1.301,2.15 1.95,3.227 0.025,0.122 0.034,0.168 0.057,0.295 -0.023,0.038 -0.051,0.071 -0.078,0.103 -0.084,0.083 -0.227,0.025 -0.368,-0.145 -0.096,-0.116 -0.192,-0.251 -0.285,-0.375 -0.043,-0.082 -0.086,-0.164 -0.133,-0.253 -2.485,-4.705 -5.263,-8.753 -7.763,-13.355 -2.993,-5.502 -6.171,-10.398 -9.26,-15.595 -0.135,-0.23 -0.294,-0.397 -0.404,-0.287 -0.11,0.115 -0.04,0.401 0.06,0.67 0.875,2.407 2.211,3.894 3.286,5.922 0.18,0.341 0.384,0.752 0.219,0.913 -0.059,0.058 -0.279,-0.136 -0.4,-0.319 -2.865,-4.339 -5.365,-9.616 -8.221,-13.982 -0.271,-0.417 -0.67,-1.268 -0.813,-0.925 -0.213,0.531 0.387,1.093 0.643,1.628 3.983,8.33 8.541,15.414 12.934,22.843 0.119,0.205 0.249,0.56 0.131,0.696 -0.097,0.11 -0.246,-0.039 -0.392,-0.268 -1.721,-2.641 -3.331,-5.542 -4.922,-8.504 -0.312,-0.578 -0.748,-1.075 -0.875,-0.508 -0.086,0.384 0.266,0.835 0.466,1.259 1.753,3.725 3.809,6.745 5.771,9.952 2.023,3.305 3.957,6.767 5.874,10.283 0.04,0.072 0.058,0.381 0.017,0.385 -0.066,0.008 -0.202,-0.089 -0.275,-0.221 -3.557,-6.231 -7.134,-12.361 -11.106,-16.888 -0.254,-0.288 -0.518,-0.471 -0.566,-0.045 -0.041,0.349 0.18,0.743 0.363,1.023 2.356,3.651 4.494,7.816 6.757,11.674 0.135,0.229 0.323,0.6 0.343,0.792 0.158,1.415 0.757,2.544 1.477,3.652 0.341,0.523 0.737,1.075 0.989,1.679 0.601,1.432 1.492,2.528 1.943,4.093 -0.907,-0.26 -1.295,-2.152 -1.951,-3.207 -3.194,-5.138 -6.354,-10.4 -9.515,-15.643 -0.653,-1.083 -1.246,-1.992 -1.875,-1.985 -0.209,0.008 -0.5,-0.473 -0.739,-0.864 -1.97,-3.238 -3.971,-6.413 -5.898,-9.749 -1.257,-2.181 -2.398,-3.048 -3.574,-3.766 -0.355,-0.222 -0.644,-0.182 -0.636,0.453 0.006,0.622 0.28,1.267 0.636,1.852 3.408,5.624 6.795,11.3 10.232,16.83 1.943,3.124 3.655,6.707 5.611,9.789 1.556,2.452 3.067,5.062 4.602,7.601 -1.763,-1.135 -3.098,-4.62 -4.675,-6.678 -2.012,-2.626 -3.772,-6.66 -5.688,-8.769 -2.642,-2.911 -4.675,-7.666 -7.188,-10.69 -0.897,-1.078 -1.749,-2.679 -2.498,-4.374 -0.336,-0.758 -0.852,-1.766 -1.201,-1.314 -0.368,0.478 0.072,1.6 0.515,2.421 0.725,1.346 1.506,2.608 2.28,3.839 0.583,0.925 0.977,1.808 1.13,2.895 0.064,0.453 0.306,0.944 0.554,1.343 3.866,6.233 7.687,12.722 11.326,19.348 4.505,8.205 9.156,15.987 13.763,23.889zm-35.064 -38.683l-6.996 38.683 6.996 -38.683zm24.736 -36.068c-1.28,-2.105 -2.56,-4.209 -3.84,-6.317 -0.283,-0.469 -0.568,-0.934 -0.845,-1.424 -0.145,-0.252 -0.28,-0.533 -0.419,-0.803 0.247,0.399 0.499,0.805 0.747,1.185 1.549,2.51 3.101,5.013 4.658,7.517 -0.104,-0.09 -0.204,-0.156 -0.303,-0.169l0.002 0.011zm2.157 -18.888c-0.596,-1.648 -1.921,-2.696 -2.303,-4.534 1.654,1.813 3.209,4.449 4.694,6.964 -0.499,0.472 -1.397,-1.514 -2.077,-1.964 -0.105,-0.105 -0.217,-0.298 -0.314,-0.466zm-26.893 54.956l49.886 -146.171 -49.886 146.171zm43.052 -146.171l-62.761 184.854 62.761 -184.854z"/>
   </g>
  </g>
  <path fill="none" d="M91.234 163.341c0.06,-0.29 0.117,-0.718 0.209,-2.252 0.091,-1.534 0.216,-4.174 0.518,-9.369 0.303,-5.195 0.782,-12.944 1.164,-18.604 0.382,-5.659 0.667,-9.229 1.038,-13.175 0.37,-3.946 0.826,-8.268 1.397,-12.773 0.57,-4.505 1.254,-9.192 2.132,-14.518 0.879,-5.326 1.95,-11.291 2.766,-15.197 0.815,-3.906 1.374,-5.753 1.733,-6.921 0.358,-1.167 0.516,-1.655 0.64,-1.921 0.123,-0.267 0.212,-0.313 0.296,-0.305 0.084,0.008 0.164,0.069 0.266,0.183 0.103,0.113 0.228,0.278 0.391,0.627 0.163,0.349 0.362,0.88 0.684,1.602 0.321,0.721 0.764,1.632 1.146,2.525 0.381,0.893 0.7,1.768 0.836,2.443 0.135,0.674 0.087,1.147 0.127,1.679 0.04,0.532 0.168,1.122 0.504,1.619 0.337,0.498 0.881,0.903 1.195,1.44 0.314,0.538 0.396,1.208 0.602,2.158 0.205,0.951 0.533,2.183 0.646,3.113 0.112,0.929 0.009,1.556 -0.098,2.148 -0.106,0.591 -0.218,1.148 -0.101,1.705 0.117,0.557 0.462,1.116 0.865,1.635 0.404,0.519 0.866,0.998 1.149,1.313 0.284,0.315 0.39,0.466 0.491,0.609 0.101,0.142 0.198,0.276 0.351,0.879 0.152,0.603 0.36,1.675 0.439,2.419 0.078,0.745 0.027,1.161 -0.003,1.576 -0.03,0.415 -0.039,0.828 -0.073,1.354 -0.034,0.526 -0.094,1.165 -0.085,1.751 0.008,0.586 0.085,1.119 0.46,1.91 0.375,0.791 1.048,1.84 1.685,2.689 0.637,0.848 1.239,1.495 1.643,1.902 0.404,0.407 0.611,0.574 0.797,0.87 0.186,0.296 0.351,0.72 0.488,1.263 0.137,0.544 0.246,1.205 0.304,1.972 0.058,0.767 0.067,1.64 0.054,2.608 -0.013,0.968 -0.047,2.031 0.15,2.999 0.197,0.968 0.624,1.84 1.101,2.577 0.476,0.738 1,1.339 1.389,1.826 0.39,0.488 0.644,0.862 0.856,1.23 0.213,0.367 0.384,0.729 0.555,1.154 0.171,0.425 0.342,0.913 0.472,1.479 0.13,0.566 0.218,1.21 0.339,1.795 0.121,0.584 0.275,1.108 0.375,1.699 0.1,0.59 0.145,1.246 0.32,2.204 0.174,0.958 0.476,2.218 0.678,3.273 0.203,1.055 0.305,1.904 0.416,2.657 0.112,0.753 0.231,1.409 0.325,2.284 0.094,0.875 0.163,1.97 0.294,2.774 0.131,0.804 0.325,1.317 0.465,2.09 0.14,0.772 0.225,1.805 0.299,2.412 0.074,0.607 0.137,0.79 0.288,0.952 0.104,0.112 0.251,0.215 0.437,0.32 -0.079,-0.368 -0.154,-0.732 -0.127,-0.999 0.028,-0.278 0.168,-0.45 0.332,-0.556 0.164,-0.105 0.352,-0.145 0.75,-0.063 0.398,0.082 1.007,0.284 1.729,0.399 0.723,0.115 1.56,0.144 2.868,0.151 1.309,0.007 3.089,-0.007 5.568,-0.327 2.479,-0.319 5.657,-0.943 8.788,-1.599 3.132,-0.656 6.217,-1.344 9.657,-2.107 3.44,-0.762 7.234,-1.599 10.248,-2.124 3.014,-0.525 5.249,-0.737 8.16,-0.854 2.912,-0.118 6.502,-0.139 10.137,0.024 3.635,0.163 7.316,0.511 9.976,0.862 2.66,0.351 4.298,0.706 5.688,1.227 1.391,0.522 2.533,1.21 3.226,1.734 0.693,0.524 0.938,0.884 1.054,1.193 0.116,0.309 0.104,0.568 -0.007,0.887 -0.11,0.319 -0.318,0.698 -0.526,1.077 0.192,-0.063 0.354,-0.202 0.566,-0.399 0.232,-0.218 0.523,-0.509 0.64,-0.957 0.116,-0.447 0.059,-1.052 0.065,-2.577 0.006,-1.525 0.074,-3.972 0.052,-6.694 -0.023,-2.724 -0.137,-5.723 -0.194,-7.553 -0.057,-1.831 -0.057,-2.492 -0.057,-3.427 0,-0.936 0,-2.144 -0.029,-3.276 -0.028,-1.132 -0.085,-2.187 -0.111,-3.279 -0.025,-1.092 -0.02,-2.221 -0.091,-4.009 -0.072,-1.787 -0.22,-4.234 -0.3,-6.212 -0.079,-1.979 -0.091,-3.49 -0.231,-7.51 -0.139,-4.02 -0.407,-10.55 -0.929,-16.996 -0.522,-6.446 -1.297,-12.81 -2.278,-18.854 -0.981,-6.045 -2.167,-11.77 -3.341,-17.21 -1.175,-5.44 -2.338,-10.594 -3.867,-15.864 -1.528,-5.268 -3.421,-10.651 -5.246,-15.498 -1.824,-4.847 -3.581,-9.158 -4.618,-11.657 -1.038,-2.499 -1.357,-3.186 -1.494,-3.631 -0.137,-0.445 -0.092,-0.647 0.009,-0.803 0.102,-0.155 0.258,-0.263 0.386,-0.349 0.014,-0.01 0.028,-0.019 0.041,-0.029 -0.042,-0.002 -0.088,-0.005 -0.144,-0.008 -0.105,-0.005 -0.243,-0.013 -0.693,-0.048 -0.449,-0.035 -1.21,-0.098 -2.217,-0.107 -1.008,-0.008 -2.262,0.038 -3.577,0.132 -1.316,0.095 -2.692,0.24 -4.839,0.609 -2.148,0.368 -5.068,0.962 -7.478,1.498 -2.41,0.535 -4.311,1.014 -6.805,1.509 -2.494,0.494 -5.581,1.003 -8.679,1.418 -3.098,0.414 -6.208,0.733 -9.971,1.076 -3.764,0.341 -8.181,0.707 -11.872,0.965 -3.692,0.259 -6.657,0.41 -9.367,0.559 -2.711,0.148 -5.167,0.292 -7.957,0.403 -2.79,0.11 -5.915,0.186 -9.017,0.251 -3.102,0.064 -6.181,0.117 -9.116,0.11 -2.935,-0.008 -5.725,-0.076 -8.341,-0.137 -2.615,-0.061 -5.056,-0.114 -7.698,-0.194 -2.642,-0.08 -5.486,-0.186 -8.975,-0.285 -3.49,-0.099 -7.626,-0.19 -12.01,-0.217 -4.383,-0.026 -9.013,0.012 -12.845,0.008 -3.832,-0.004 -6.865,-0.049 -10.876,-0.205 -4.011,-0.156 -8.998,-0.422 -12.585,-0.69 -3.587,-0.268 -5.773,-0.538 -7.362,-0.856 -1.59,-0.318 -2.583,-0.683 -3.577,-1.049 0.044,0.064 0.021,0.188 -0.027,0.625 -0.062,0.551 -0.164,1.597 -0.449,3.521 -0.286,1.925 -0.753,4.728 -1.058,6.779 -0.305,2.052 -0.448,3.352 -0.79,5.493 -0.342,2.141 -0.884,5.124 -1.32,7.752 -0.436,2.629 -0.767,4.904 -1.029,6.823 -0.263,1.919 -0.457,3.481 -0.636,5.294 -0.18,1.814 -0.345,3.878 -0.525,6.376 -0.18,2.497 -0.373,5.428 -0.567,8.701 -0.194,3.273 -0.388,6.888 -0.53,10.743 -0.143,3.855 -0.234,7.949 -0.206,12.14 0.029,4.192 0.177,8.48 0.468,12.648 0.291,4.169 0.724,8.217 1.009,11.855 0.285,3.638 0.422,6.865 0.485,10.435 0.063,3.57 0.051,7.481 0.091,11.969 0.04,4.488 0.131,9.552 0.223,13.777 0.091,4.225 0.182,7.612 0.266,9.945 0.084,2.332 0.162,3.609 0.193,4.373 0.031,0.764 0.017,1.015 0.027,2.23 0.01,1.214 0.044,3.393 0.078,4.946 0.035,1.554 0.069,2.484 0.137,3.037 0.068,0.553 0.171,0.73 0.482,1.055 0.311,0.325 0.83,0.798 2.632,1.177 1.802,0.38 4.886,0.665 7.829,0.918 2.942,0.254 5.742,0.476 10.492,0.73 4.75,0.254 11.451,0.539 16.4,0.753 4.95,0.214 8.149,0.356 10.954,0.382 2.806,0.026 5.218,-0.066 7.656,-0.143 2.438,-0.077 4.901,-0.139 7.25,-0.216 2.35,-0.077 4.585,-0.168 7.735,-0.565 3.151,-0.396 7.217,-1.098 9.757,-1.616 2.54,-0.519 3.556,-0.856 4.448,-1.309 0.892,-0.453 1.662,-1.024 2.078,-1.386 0.417,-0.362 0.479,-0.516 0.539,-0.807z"/>
 </g>
</svg>
