<?xml version="1.0" encoding="UTF-8"?>
<!DOCTYPE svg PUBLIC "-//W3C//DTD SVG 1.1//EN" "http://www.w3.org/Graphics/SVG/1.1/DTD/svg11.dtd">
<!-- Creator: CorelDRAW -->
<svg xmlns="http://www.w3.org/2000/svg" xml:space="preserve" width="240px" height="296px" version="1.1" shape-rendering="geometricPrecision" text-rendering="geometricPrecision" image-rendering="optimizeQuality" fill-rule="evenodd" clip-rule="evenodd"
viewBox="0 0 240 296.307"
 xmlns:xlink="http://www.w3.org/1999/xlink"
 xmlns:xodm="http://www.corel.com/coreldraw/odm/2003">
 <defs>
   <clipPath id="id0">
    <path d="M136.796 295.988c2.461,-0.097 4.626,-0.225 7.017,-0.355 2.39,-0.131 5.006,-0.265 8.261,-0.493 3.256,-0.228 7.151,-0.55 10.471,-0.852 3.319,-0.302 6.061,-0.583 8.794,-0.949 2.732,-0.365 5.455,-0.814 7.654,-1.25 2.2,-0.436 3.876,-0.858 6.001,-1.331 2.126,-0.473 4.701,-0.996 6.595,-1.321 1.894,-0.325 3.108,-0.453 4.268,-0.536 1.16,-0.084 2.267,-0.124 3.155,-0.117 0.889,0.008 1.559,0.063 1.956,0.094 0.396,0.031 0.518,0.038 0.611,0.043 0.049,0.002 0.09,0.004 0.127,0.006 0.093,-0.07 0.162,-0.18 0.177,-0.779 0.016,-0.673 -0.037,-1.966 -0.106,-2.786 -0.069,-0.819 -0.154,-1.166 -0.285,-1.855 -0.131,-0.689 -0.307,-1.72 -0.651,-2.686 -0.345,-0.965 -0.858,-1.866 -1.476,-3.045 -0.619,-1.179 -1.343,-2.638 -1.783,-3.616 -0.44,-0.978 -0.596,-1.476 -0.848,-2.693 -0.251,-1.217 -0.598,-3.153 -0.953,-5.871 -0.354,-2.718 -0.716,-6.219 -1.038,-8.884 -0.322,-2.666 -0.603,-4.496 -1.081,-7.559 -0.478,-3.062 -1.152,-7.357 -1.71,-11.521 -0.558,-4.164 -1.001,-8.198 -1.348,-12.226 -0.347,-4.028 -0.598,-8.051 -0.759,-11.637 -0.161,-3.586 -0.231,-6.734 -0.287,-9.787 -0.055,-3.052 -0.095,-6.01 -0.156,-9.258 -0.06,-3.249 -0.14,-6.79 -0.108,-12.037 0.033,-5.248 0.179,-12.203 0.352,-17.466 0.174,-5.263 0.375,-8.834 0.652,-12.807 0.276,-3.973 0.628,-8.348 0.975,-12.271 0.347,-3.922 0.689,-7.393 1.122,-11.743 0.432,-4.35 0.955,-9.58 1.483,-13.99 0.528,-4.411 1.061,-8.002 1.512,-10.619 0.45,-2.618 0.817,-4.262 1.139,-5.308 0.321,-1.046 0.598,-1.494 0.803,-1.766 0.205,-0.271 0.338,-0.367 0.405,-0.414 0.066,-0.048 0.066,-0.048 0.049,0.598 -0.018,0.646 -0.053,1.939 -0.108,3.533 -0.056,1.594 -0.131,3.49 -0.173,4.967 -0.041,1.478 -0.049,2.536 -0.079,3.186 -0.03,0.65 -0.083,0.892 -0.102,1.011 -0.018,0.119 -0.003,0.117 -0.041,0.151 -0.038,0.034 -0.128,0.104 -0.133,0.68 -0.005,0.576 0.075,1.657 0.192,3.051 0.117,1.395 0.27,3.102 0.322,4.786 0.051,1.683 0.001,3.343 0.002,4.231 0,0.887 0.052,1.003 0.132,1.078 0.08,0.076 0.188,0.111 1.001,0.06 0.814,-0.051 2.333,-0.188 4.105,-0.324 1.773,-0.137 3.8,-0.273 5.955,-0.431 2.155,-0.158 4.438,-0.339 6.588,-0.463 2.15,-0.123 4.166,-0.188 5.992,-0.299 1.826,-0.111 3.46,-0.267 5.336,-0.47 1.876,-0.204 3.993,-0.455 6.015,-0.682 2.021,-0.226 3.947,-0.427 5.109,-0.565 1.162,-0.139 1.559,-0.214 1.758,-0.327 0.199,-0.113 0.199,-0.264 0.229,-0.906 0.03,-0.641 0.09,-1.772 0.108,-3.132 0.017,-1.361 -0.008,-2.95 -0.023,-4.429 -0.015,-1.478 -0.02,-2.846 -0.038,-3.724 -0.017,-0.877 -0.047,-1.264 -0.071,-1.469 -0.025,-0.205 -0.043,-0.227 -0.083,-0.294 -0.04,-0.068 -0.103,-0.181 -0.174,-0.682 -0.071,-0.5 -0.152,-1.388 -0.255,-2.32 -0.103,-0.933 -0.229,-1.911 -0.348,-2.739 -0.12,-0.827 -0.233,-1.504 -0.413,-2.544 -0.179,-1.042 -0.426,-2.447 -0.613,-3.449 -0.187,-1.002 -0.316,-1.601 -0.436,-2.27 -0.121,-0.668 -0.234,-1.408 -0.366,-2.121 -0.132,-0.713 -0.283,-1.399 -0.425,-2.156 -0.142,-0.757 -0.275,-1.584 -0.375,-2.322 -0.099,-0.738 -0.165,-1.387 -0.239,-2.029 -0.074,-0.643 -0.157,-1.279 -0.257,-2.036 -0.101,-0.757 -0.219,-1.634 -0.34,-2.526 -0.121,-0.891 -0.244,-1.796 -0.353,-2.565 -0.11,-0.768 -0.205,-1.399 -0.373,-2.344 -0.168,-0.945 -0.408,-2.203 -0.82,-4.085 -0.412,-1.881 -0.995,-4.386 -1.704,-6.89 -0.709,-2.505 -1.544,-5.009 -2.651,-7.745 -1.106,-2.736 -2.484,-5.703 -4.093,-8.851 -1.61,-3.149 -3.45,-6.478 -4.878,-8.781 -1.429,-2.304 -2.444,-3.581 -3.453,-4.629 -1.008,-1.049 -2.009,-1.869 -3.015,-2.608 -1.006,-0.739 -2.017,-1.398 -2.582,-1.773 -0.566,-0.375 -0.687,-0.465 -0.756,-0.571 -0.069,-0.105 -0.087,-0.226 -0.095,-0.303 -0.009,-0.077 -0.009,-0.109 -0.07,-0.174 -0.06,-0.066 -0.181,-0.164 -1.307,-0.714 -1.127,-0.551 -3.259,-1.555 -5.31,-2.603 -2.05,-1.048 -4.019,-2.142 -5.77,-2.976 -1.752,-0.833 -3.286,-1.407 -5.061,-1.957 -1.775,-0.551 -3.792,-1.079 -5.429,-1.507 -1.637,-0.427 -2.894,-0.754 -3.762,-1.008 -0.867,-0.254 -1.345,-0.435 -2.044,-0.7 -0.699,-0.266 -1.619,-0.615 -2.606,-0.909 -0.987,-0.295 -2.041,-0.533 -2.716,-0.687 -0.675,-0.153 -0.972,-0.221 -1.44,-0.471 -0.467,-0.25 -1.106,-0.683 -1.581,-0.937 -0.475,-0.254 -0.787,-0.329 -1.073,-0.365 -0.285,-0.035 -0.544,-0.03 -0.777,-0.03 -0.232,0 -0.438,-0.005 -1.342,-0.33 -0.904,-0.326 -2.506,-0.972 -4.026,-1.577 -1.52,-0.605 -2.959,-1.168 -4.404,-1.748 -1.446,-0.579 -2.9,-1.175 -3.816,-1.569 -0.917,-0.393 -1.297,-0.584 -1.594,-0.779 -0.298,-0.194 -0.514,-0.392 -0.705,-0.497 -0.191,-0.105 -0.356,-0.116 -0.467,-0.117 -0.11,0 -0.164,0.01 -0.251,-0.004 -0.086,-0.014 -0.204,-0.052 -0.587,-0.292 -0.382,-0.24 -1.028,-0.682 -1.678,-1.193 -0.65,-0.51 -1.304,-1.089 -1.956,-1.661 -0.653,-0.572 -1.304,-1.138 -2.311,-1.569 -1.007,-0.431 -2.37,-0.728 -3.723,-0.919 -1.353,-0.191 -2.695,-0.276 -4.576,-0.354 -1.881,-0.078 -4.3,-0.149 -7.931,-0.131 -3.631,0.017 -8.474,0.123 -12.914,0.219 -4.439,0.096 -8.475,0.183 -10.597,0.231 -2.123,0.048 -2.332,0.058 -4.152,0.203 -1.82,0.145 -5.249,0.427 -7.404,0.671 -2.155,0.244 -3.035,0.45 -3.752,0.707 -0.717,0.256 -1.27,0.563 -1.886,1.078 -0.616,0.516 -1.295,1.24 -2.019,1.877 -0.725,0.638 -1.494,1.189 -1.953,1.46 -0.459,0.272 -0.607,0.264 -0.901,0.366 -0.295,0.102 -0.735,0.313 -1.268,0.582 -0.533,0.269 -1.159,0.596 -1.919,0.922 -0.761,0.325 -1.656,0.65 -2.301,0.904 -0.645,0.254 -1.04,0.437 -1.514,0.628 -0.474,0.192 -1.027,0.39 -1.765,0.621 -0.738,0.232 -1.661,0.496 -2.558,0.836 -0.896,0.341 -1.766,0.759 -2.573,1.076 -0.808,0.316 -1.552,0.533 -2.299,0.749 -0.746,0.216 -1.496,0.432 -2.053,0.655 -0.557,0.222 -0.921,0.451 -1.207,0.636 -0.285,0.185 -0.491,0.326 -0.999,0.476 -0.508,0.15 -1.318,0.31 -1.914,0.463 -0.596,0.154 -0.978,0.301 -1.488,0.492 -0.51,0.192 -1.147,0.429 -1.75,0.617 -0.603,0.189 -1.171,0.329 -1.687,0.459 -0.516,0.13 -0.98,0.248 -1.7,0.426 -0.719,0.179 -1.693,0.418 -2.551,0.633 -0.857,0.216 -1.598,0.408 -2.171,0.57 -0.573,0.161 -0.979,0.292 -1.436,0.426 -0.456,0.134 -0.963,0.271 -1.427,0.4 -0.465,0.129 -0.887,0.249 -1.312,0.377 -0.424,0.128 -0.85,0.262 -1.203,0.399 -0.353,0.137 -0.632,0.277 -1.012,0.437 -0.38,0.159 -0.862,0.339 -1.279,0.53 -0.417,0.191 -0.769,0.394 -1.165,0.602 -0.397,0.209 -0.838,0.424 -1.221,0.617 -0.382,0.194 -0.705,0.366 -1.126,0.589 -0.421,0.223 -0.941,0.495 -1.657,0.865 -0.717,0.371 -1.631,0.838 -2.694,1.37 -1.063,0.532 -2.275,1.128 -3.18,1.576 -0.905,0.448 -1.504,0.747 -2.037,1.087 -0.533,0.341 -1.001,0.723 -1.443,1.08 -0.443,0.358 -0.86,0.689 -1.353,1.079 -0.493,0.39 -1.061,0.837 -1.779,1.475 -0.718,0.637 -1.586,1.465 -2.375,2.331 -0.79,0.866 -1.501,1.771 -2.145,2.665 -0.644,0.894 -1.22,1.777 -1.924,2.935 -0.704,1.158 -1.536,2.591 -2.208,3.821 -0.671,1.229 -1.181,2.255 -1.732,3.264 -0.551,1.008 -1.141,1.999 -1.644,2.942 -0.503,0.943 -0.918,1.838 -1.313,2.759 -0.395,0.922 -0.77,1.87 -1.152,2.756 -0.382,0.887 -0.772,1.712 -1.285,3.043 -0.513,1.331 -1.149,3.17 -1.716,4.911 -0.567,1.741 -1.065,3.386 -1.49,4.836 -0.425,1.451 -0.777,2.709 -1.129,4.225 -0.352,1.516 -0.704,3.291 -1.144,5.668 -0.44,2.376 -0.968,5.353 -1.29,7.073 -0.322,1.72 -0.438,2.183 -0.543,2.673 -0.106,0.491 -0.201,1.009 -0.4,1.833 -0.198,0.825 -0.5,1.957 -0.807,3.143 -0.307,1.187 -0.618,2.43 -0.84,3.478 -0.221,1.049 -0.352,1.904 -0.575,3.166 -0.224,1.262 -0.541,2.932 -0.787,4.297 -0.247,1.366 -0.423,2.427 -0.529,2.975 -0.105,0.548 -0.14,0.583 -0.204,0.634 -0.063,0.05 -0.155,0.115 -0.251,2.246 -0.096,2.13 -0.197,6.326 -0.275,8.622 -0.078,2.297 -0.133,2.694 0.035,2.902 0.169,0.209 0.561,0.229 1.419,0.337 0.857,0.108 2.18,0.305 4.51,0.755 2.332,0.45 5.671,1.154 8.339,1.667 2.668,0.513 4.664,0.835 6.751,1.182 2.088,0.347 4.265,0.719 7.24,1.192 2.975,0.472 6.746,1.046 9.15,1.373 2.404,0.327 3.44,0.407 3.958,0.447 0.518,0.041 0.518,0.041 0.568,-0.543 0.049,-0.583 0.149,-1.75 0.263,-2.759 0.114,-1.009 0.242,-1.86 0.394,-2.937 0.152,-1.077 0.328,-2.379 0.498,-3.576 0.17,-1.197 0.333,-2.289 0.417,-2.902 0.085,-0.614 0.089,-0.749 0.076,-0.865 -0.014,-0.116 -0.047,-0.211 -0.023,-1.818 0.024,-1.607 0.104,-4.725 0.147,-7.257 0.043,-2.532 0.048,-4.478 0.059,-5.601 0.011,-1.123 0.029,-1.422 0.067,-1.618 0.038,-0.197 0.095,-0.29 0.176,-0.338 0.08,-0.05 0.184,-0.055 0.308,0.038 0.124,0.094 0.27,0.285 0.345,0.376 0.074,0.092 0.076,0.085 0.078,0.081 0.001,-0.004 0.001,-0.004 0.115,0.253 0.114,0.256 0.343,0.769 0.597,1.463 0.254,0.694 0.533,1.569 0.762,2.507 0.229,0.938 0.408,1.939 0.607,3.547 0.2,1.608 0.422,3.823 0.739,6.228 0.316,2.406 0.729,5.001 1.468,11.393 0.739,6.392 1.805,16.58 2.64,24.511 0.835,7.931 1.439,13.604 1.811,19.699 0.372,6.095 0.513,12.613 0.503,19.654 -0.01,7.04 -0.171,14.604 -0.372,20.609 -0.202,6.004 -0.443,10.45 -0.725,14.423 -0.281,3.973 -0.603,7.473 -1.448,14.162 -0.845,6.688 -2.213,16.566 -3.007,23.777 -0.795,7.212 -1.016,11.758 -1.217,15.269 -0.202,3.51 -0.383,5.984 -0.674,8.122 -0.292,2.137 -0.694,3.937 -0.973,5.315 -0.279,1.378 -0.436,2.334 -0.453,2.935 -0.018,0.601 0.103,0.847 0.249,0.975 0.146,0.129 0.317,0.138 0.5,0.175 0.184,0.036 0.38,0.099 0.469,0.155 0.019,0.011 0.032,0.022 0.042,0.037 0.876,0.322 1.753,0.645 3.155,0.925 1.401,0.28 3.329,0.518 6.493,0.754 3.163,0.237 7.562,0.472 11.099,0.609 3.537,0.138 6.212,0.178 9.592,0.181 3.38,0.003 7.463,-0.03 11.329,-0.007 3.866,0.024 7.513,0.104 10.591,0.191 3.078,0.088 5.586,0.181 7.916,0.252 2.33,0.07 4.483,0.117 6.789,0.171 2.307,0.053 4.768,0.114 7.356,0.121 2.589,0.006 5.304,-0.041 8.04,-0.098 2.736,-0.057 5.492,-0.124 7.953,-0.221z"/>
   </clipPath>
 </defs>
 <g id="VETORES">
  <metadata id="CorelCorpID_0Corel-Layer"/>
  <g>
  </g>
  <g clip-path="url(#id0)">
   <g id="_2070687268064">
    <path id="_3" fill="#62DA5E" fill-rule="nonzero" d="M142.131 83.207c0.13,1.481 0.4,2.923 0.871,4.214l-0.871 -4.214zm31.389 9.989c0.53,-0.651 0.841,-1.031 1.191,-1.511l-0.42 0.66c0,0 0.26,-0.28 0.17,-0.11 2.553,-3.293 3.884,-7.887 3.513,-12.092 -0.362,-4.049 -2.226,-8.748 -5.334,-11.601 -0.651,-0.601 -2.383,-1.932 -2.953,-2.242l1.031 0.79c-0.41,-0.31 -0.931,-0.65 -1.391,-0.951l0.029 0.001 -1.221 -0.741c-1.598,-0.842 -3.947,-1.555 -5.816,-1.792 0.481,0.111 1.422,0.341 1.051,0.261 -4.463,-0.917 -10.136,0.256 -13.903,3.063l1.532 -0.902c-1.742,1.024 -3.601,2.708 -2.722,1.933 -5.269,4.682 -6.047,10.744 -5.936,10.55 -0.62,2.893 -0.06,6.526 -0.17,5.195 -0.06,-0.451 -0.17,-1.471 -0.03,-3.293 -0.237,4.363 1.206,7.781 1.021,7.407 -0.03,-0.05 -0.061,-0.13 -0.09,-0.21 0.04,0.11 0.069,0.22 0.12,0.32 -0.396,0 2.336,4.91 5.075,7.237 -0.281,-0.26 0.26,0.17 0.62,0.51l-0.31 -0.31c1.953,1.777 5.484,3.071 4.364,2.663 -0.651,-0.25 -1.201,-0.521 -1.772,-0.831 2.026,1.14 4.221,1.702 4.214,1.702l0.621 0.18 -0.231 -0.09 0.891 0.14c-0.671,-0.13 -1.261,-0.29 -2.112,-0.561 1.672,0.481 2.833,0.741 4.734,0.791l-1.421 -0.171 2.393 0.061 0.169 -0.061 -2.642 -0.23 1.902 0.061c-0.06,0 -1.221,-0.09 -0.771,-0.09 -5.21,-0.404 -10.213,-3.127 -13.252,-7.598 -4.127,-6.07 -3.653,-13.537 -0.461,-18.838 1.331,-2.212 3.493,-4.144 3.463,-4.054 3.945,-3.446 9.412,-4.914 14.444,-3.914l-0.45 -0.11c4.205,0.511 8.267,3.553 6.756,2.552 -0.34,-0.2 -0.851,-0.51 -1.251,-0.65 1.702,0.881 2.863,1.731 4.254,3.093l-1.111 -0.961c1.531,1.301 2.723,2.693 3.744,4.484l-0.511 -0.791c2.763,4.503 3.54,8.595 2.242,13.954 -0.469,1.935 -1.764,4.486 -2.983,6.157l1.501 -2.072 -1.811 3.043 0.03 -0.031zm-17.056 5.726l0 0zm-12.802 -10.01c0.681,1.502 1.081,2.072 2.042,3.433 -0.872,-1.18 -1.957,-2.795 -2.412,-4.174l0.37 0.741zm-0.26 -0.65l0 0zm0.04 0.08c0,0 -0.01,-0.02 -0.03,-0.061 0.01,0.021 0.02,0.05 0.03,0.061zm0.22 -12.452l0 0zm23.962 -10.651c-0.22,-0.1 -0.43,-0.21 -0.66,-0.3l0.66 0.3zm-1.131 -0.481c-0.75,-0.29 -1.511,-0.54 -2.282,-0.73 0.35,0.02 1.451,0.42 2.282,0.73zm6.196 3.974l0 0zm3.604 20.03c0.43,-0.991 -0.451,1.251 -0.601,1.281l0.601 -1.281zm-33.221 -1.171c-0.021,-0.06 -0.041,-0.11 -0.061,-0.17 0.02,0.06 0.04,0.12 0.061,0.17zm45.883 -3.563c0.754,-7.388 -1.492,-14.341 -6.036,-20.401 -0.2,-0.28 0.881,0.991 0.09,-0.06 -1.95,-2.557 -3.667,-4.019 -6.156,-5.815 0.586,0.585 -1.969,-1.374 -3.723,-2.193l-2.953 -1.251 3.493 1.471c0,-0.11 -2.692,-1.281 -2.953,-1.391 -3.293,-1.349 -7.497,-2.069 -11.66,-1.992 2.382,-0.03 5.475,0.31 6.465,0.541 1.302,0.31 -0.2,0.03 -0.82,-0.09 -7.364,-1.296 -15.304,0.7 -21.171,4.825 -0.34,0.23 0.03,-0.061 0.111,-0.14 -1.932,1.471 -1.982,1.471 -3.634,2.983 -0.77,0.71 1.702,-1.812 -0.77,0.62 0.14,-0.17 0.31,-0.31 0.45,-0.48 -2.212,2.102 -3.323,3.633 -4.884,6.296 1.663,-2.799 2.924,-4.252 4.333,-5.626 -3.628,3.936 -7.058,9.636 -7.807,15.276l-0.26 2.892 0.11 -2.102c-0.268,3.504 -0.373,5.451 0.29,9.29l-0.46 -2.613c0.09,3.011 1.649,7.989 3.143,10.811 0.37,0.711 0.31,0.54 -0.37,-0.961 0.79,1.621 1.391,2.492 2.242,3.974 -0.571,-0.791 -0.911,-1.302 -1.051,-1.592l2.042 3.063c3.403,3.944 -0.111,-0.09 -0.451,-0.681 -0.172,-0.32 2.293,3.018 5.055,5.276 0.911,0.74 -1.111,-0.821 -0.09,0.06 2.892,2.472 7.177,4.685 10.84,5.535 -2.322,-0.601 -4.204,-1.501 -4.685,-1.792l5.796 1.983 -0.54 -0.091 1.331 0.311c-0.651,-0.201 -0.341,-0.171 0.17,-0.06 1.331,0.31 2.152,0.34 3.373,0.48 -0.651,0.03 -2.643,-0.26 -3.543,-0.431 0.65,0.201 3.543,0.601 4.684,0.601l-0.34 -0.12c2.935,0.17 7.185,-0.335 9.759,-1.341l-2.182 0.54 2.152 -0.6c-0.004,0.001 -3.835,0.945 -5.285,0.94 1.281,-0.14 3.404,-0.45 5.105,-0.961 1.281,-0.37 -0.991,0.231 -0.03,-0.09l0.571 -0.17 -0.741 0.11c-2.983,0.821 -5.505,1.111 -8.538,1.021 5.319,0.155 9.46,-1.426 9.419,-1.421 -2.022,0.251 -3.975,1.451 -9.248,1.301 0.48,-0.06 1.701,0 3.833,-0.26 3.18,-0.379 5.263,-1.042 7.537,-2.102l-2.242 0.74 -2.603 0.571c-4.122,1.037 -8.605,0.794 -12.712,-0.15 2.352,0.51 3.714,0.71 6.156,0.71 -3.077,-0.125 -7.027,-0.757 -9.729,-1.822 -11.521,-4.514 -18.698,-16.086 -17.587,-28.428 0.585,-6.675 3.002,-11.655 7.407,-16.566l-2.532 3.154c-0.711,1.051 -0.911,1.471 -0.881,1.421 0.858,-1.092 1.791,-2.868 3.264,-4.304 1.62,-1.581 1.193,-1.438 3.403,-3.173 2.662,-2.102 4.854,-3.123 5.675,-3.514l-1.872 1.111c6.841,-3.756 15.192,-4.704 22.271,-1.891 2.643,1.051 4.855,1.931 7.267,3.633 7.151,5.051 11.623,13.647 11.661,22.362 0.03,3.404 -0.43,5.706 -1.391,8.939l0.77 -2.492c-0.029,0.43 -0.65,2.382 -0.88,3.093 -0.601,1.802 0.16,-0.191 0.17,0.05l-1.642 4.234c0.2,-0.341 0.621,-1.021 1.221,-2.322 0.311,-0.571 -0.54,1.621 -0.48,1.531 1.167,-1.969 1.841,-3.421 2.382,-5.305l-0.691 2.332c0.711,-2.152 1.051,-3.443 1.462,-6.326 -0.03,0.771 0.14,-0.821 0.09,-0.961l0.03 0zm-57.295 3.603l0 0zm55.473 1.732l0 0zm-30.459 9.759c0.431,0.081 0.891,0.151 1.462,0.231l-1.462 -0.231zm11.992 2.813l-1.852 0.541c-0.881,0.03 -0.281,-0.06 -1.282,0.2 -3.463,0.941 -7.146,0.851 -10.64,0.06l0 -0.03c2.102,0.451 2.833,0.541 4.825,0.541 -4.62,-0.24 -8.64,-1.301 -12.282,-3.914 -10.555,-7.575 -12.043,-22.419 -4.254,-31.581l0.941 -1.082 -2.022 2.723c0.62,-0.961 1.732,-2.302 1.962,-2.472 1.369,-1.23 0.614,-0.944 2.633,-2.533 2.101,-1.641 3.803,-2.472 4.454,-2.752l-1.452 0.9c5.018,-2.884 11.888,-3.839 17.336,-1.481 0.541,0.241 1.051,0.441 1.542,0.641l-4.014 -1.232 1.392 0.401c-3.05,-0.777 -5.112,-1.014 -8.458,-0.691 1.036,-0.342 5.089,-0.055 6.566,0.24 -3.387,-0.741 -6.029,-0.569 -8.868,0.05 0.31,-0.06 2.272,-0.31 0.79,-0.06 -5.166,0.895 -10.995,4.593 -13.873,9.059l1.671 -2.072c0.888,-1.004 -1.223,1.348 -2.582,3.694 -3.886,6.706 -2.363,14.338 -2.363,14.324 0.341,1.982 1.051,4.174 1.872,5.756l-1.271 -3.543c0.704,2.775 2.534,5.677 4.204,7.887l-3.042 -4.744c1.221,2.472 2.011,3.633 3.093,4.854 -0.09,0.061 1.811,1.932 2.212,2.243 1.981,1.531 3.973,2.813 6.436,3.774 -0.401,-0.201 0.37,0.11 0.94,0.31l-0.48 -0.231c2.182,0.821 3.884,1.021 6.076,1.192l-2.413 -0.19c4.182,0.633 6.842,-0.098 4.675,0.26 0.951,-0.04 1.391,-0.1 1.561,-0.131l-0.309 0 2.742 -0.541c-1.231,0.261 -2.372,0.451 -3.593,0.521 1.551,-0.121 3.653,-0.531 4.934,-1.041 -3.626,0.884 -0.291,0.185 0.741,-0.421l0.481 -0.23c-0.281,0.09 0,-0.03 0,-0.03 -0.991,0.34 -2.012,0.62 -3.033,0.851l2.132 -0.711 -0.881 0.2c-6.359,1.684 -13.602,0.865 -19.859,-4.625 -2.612,-2.412 -4.624,-5.535 -5.735,-8.908 -0.09,-0.341 -0.061,-0.651 -0.231,-1.021 -0.86,-2.276 -0.622,-4.264 -0.65,-6.807 -0.14,1.531 -0.06,-0.771 0.28,-2.613 1.514,-7.787 7.462,-13.963 15.124,-16.005l-1.16 0.4 2.832 -0.71c-2.415,0.439 2.887,-0.981 8.228,0.22 0.941,0.23 -1.111,-0.261 -1.872,-0.281 1.872,0.261 4.344,0.911 6.046,1.762l-1.641 -0.651c2.152,0.821 4.083,1.812 6.015,3.464l-0.881 -0.681 1.982 1.672c4.521,3.995 7.255,11.987 6.106,17.818l-0.651 3.353 0.851 -3.064 -0.79 4.285c0.541,-1.472 0.711,-2.153 1.051,-3.744 -0.154,0.835 -0.335,1.659 -0.541,2.473 -0.207,0.814 0.17,-0.43 0.139,-0.2 0.571,-1.501 0.941,-4.454 0.941,-6.246 -0.046,-8.201 -5.316,-16.419 -12.802,-19.599 6.235,2.56 10.259,7.135 12.252,13.683 1.312,4.311 1.128,8.537 -0.17,12.852l0.62 -1.931c0,0.28 -0.54,1.902 -0.711,2.442 -0.45,1.472 0.261,-0.28 0.261,0.09l0.4 -1.331 -1.282 3.714c-0.17,0.48 -0.741,1.531 -0.37,0.961 0.17,-0.261 0.51,-0.791 1.021,-1.812 0.28,-0.451 -0.371,1.361 -0.281,1.251l2.052 -4.174 -0.54 1.902 1.161 -5.106 0.12 -4.534c-0.37,-4.824 -2.072,-8.909 -4.885,-12.602 -0.17,-0.23 0.741,0.821 0.091,-0.06 -1.492,-2.027 -2.941,-3.281 -4.945,-4.655l-3.013 -1.731 -2.353 -1.021 2.815 1.161c0.03,-0.11 -2.153,-1.021 -2.353,-1.111 -2.492,-1.068 -6.115,-1.682 -9.368,-1.592 1.791,-0.03 4.544,0.26 5.194,0.431 2.219,0.586 -6.122,-1.973 -14.293,1.871 -3.099,1.458 -3.767,2.563 -3.233,1.853l-2.893 2.412c-0.62,0.54 1.332,-1.502 -0.65,0.45 0.11,-0.14 0.23,-0.26 0.34,-0.4 -1.842,1.762 -2.582,2.782 -3.914,5.055 1.132,-1.872 2.723,-3.804 3.574,-4.565 -3.294,3.919 -5.326,7.085 -6.356,12.323 0.11,0.06 -0.11,2.692 -0.14,2.322l0.06 -1.672 -0.14 3.413c0.06,0 0.09,0.03 0.03,0.651 0,0.771 0.28,2.923 0.481,3.864l-0.511 -2.553c0.377,3.08 1.115,5.921 2.523,8.689 0.31,0.54 0.26,0.4 -0.26,-0.821 0.68,1.331 1.131,1.982 1.791,3.173 -0.911,-1.251 -1.081,-1.622 -0.911,-1.302l1.672 2.523c2.753,3.173 -0.09,-0.09 -0.34,-0.57l1.141 1.331c1.191,1.331 2.012,2.132 2.923,2.892 0.711,0.601 -0.911,-0.65 -0.09,0.091 2.06,1.808 5.712,3.779 8.718,4.394 -1.872,-0.451 -3.373,-1.221 -3.743,-1.451l5.285 1.791c-0.991,-0.37 0.941,0.09 1.161,0.11l1.671 0.171c-0.48,0.09 -2.152,-0.14 -2.832,-0.281l3.483 0.331c2.289,0.141 5.872,-0.269 7.767,-1.101l-1.762 0.43 1.332 -0.43 -3.805 0.6 4.144 -0.801c-0.821,0.17 0.31,-0.2 0.31,-0.2 0,0 -1.021,0.23 -0.601,0.06 -2.412,0.621 -4.284,0.821 -6.756,0.771 2.472,0.06 4.964,-0.28 7.067,-0.991 1.421,-0.451 -1.532,0.34 -2.553,0.51 -1.501,0.231 -2.833,0.371 -4.374,0.341 2.611,-0.198 5.382,-0.374 7.838,-1.361 0.48,-0.2 0.03,-0.111 0.09,-0.14 0.03,-0.03 0.54,-0.231 0.99,-0.431l0.021 0.02zm-1.902 -0.46c0.2,-0.06 0.34,-0.09 0.34,-0.09 0,0 -0.77,0.26 -0.961,0.31l0.621 -0.23 0 0.01zm-3.694 1.081l0 0zm-0.02 -0.231c0.06,0 0.791,-0.11 0.771,-0.11 -0.48,0.14 -1.702,0.231 -0.771,0.11zm-1.021 0.291l0.03 0 -1.191 0.06 1.161 -0.06zm-17.336 -6.046c1.702,1.591 1.792,1.641 3.743,3.003 -1.815,-1.148 -2.795,-1.877 -4.254,-3.493l0.511 0.48 0 0.01zm-0.49 -0.571l0 0zm0.66 -29.679l0 0zm36.394 16.286l-0.14 1.752 0.14 -1.762 0 0.01zm-8.107 -18.098c-0.09,-0.06 -0.451,-0.34 -0.571,-0.43 -0.51,-0.431 0.681,0.48 0.571,0.43zm-3.263 -2.132l1.361 0.791 -1.361 -0.771 0 -0.02zm-0.26 -0.08c-0.111,-0.03 -0.651,-0.31 -0.621,-0.31 0.06,0.03 0.711,0.341 0.621,0.31zm-18.448 34.894c-0.24,-0.14 -0.51,-0.29 -0.841,-0.47 0.29,0.17 0.571,0.32 0.841,0.47zm5.315 5.546c-0.371,-0.06 -0.751,-0.101 -1.111,-0.18 0.44,0.07 0.79,0.13 1.111,0.18zm4.674 0.26c-0.16,0 -0.32,0.01 -0.51,0.02 0.17,0 0.34,0 0.51,-0.02zm-5.895 -4.124c0.06,0.01 0.1,0.02 0.12,0.02l-1.031 -0.301c0.311,0.111 0.791,0.261 0.911,0.281l0 0zm32.13 -7.547c-0.03,0.08 -0.06,0.17 -0.08,0.25l0.07 -0.25 0.01 0zm-23.222 -30.881c0,0 -0.07,-0.01 -0.1,-0.02l0.1 0.02zm42 -33.703c1.151,0.991 2.482,2.223 3.763,3.454 0.01,-0.03 0.02,-0.061 0.03,-0.09l-3.803 -3.374 0.01 0.01zm1.271 1.101l0.45 0.341 -0.029 0.03 0.42 0.39 -0.841 -0.761zm-2.412 -2.833l0.96 0.711 -1.951 -1.471c0.51,0.39 1.021,0.781 1.511,1.171l-0.52 -0.411zm3.833 2.663l1.522 1.351c0.01,-0.03 0.02,-0.06 0.04,-0.1 -1.531,-1.482 -2.873,-2.929 -4.565,-3.774l3.003 2.523zm-2.222 -1.702l-1.341 -1.101 1.341 1.091 0 0.01zm-3.043 -1.952c0,0 -0.08,-0.04 -0.12,-0.06l0.62 0.431 -0.5 -0.371zm-0.641 -0.34c0,0 -0.04,-0.02 -0.06,-0.03 0.651,0.49 1.372,1.031 2.182,1.612l-2.132 -1.582 0.01 0zm-11.069 74.253l-1.642 2.943c1.501,-2.323 2.663,-4.655 3.603,-7.298 -0.4,0.881 0.341,-1.191 0.371,-1.331 0.34,-1.021 0.6,-2.012 0.4,-1.081l0.45 -1.812c-0.012,0.033 0.885,-4.652 0.851,-8.088 -0.269,-27.464 -30.026,-44.51 -53.72,-30.84 -25.53,14.729 -23.363,52.007 3.403,63.893 9.458,4.199 20.187,4.008 29.788,-0.511 -1.161,0.481 -0.941,0.341 -0.851,0.28l-1.531 0.571c-7.802,3.033 -16.199,3.248 -24.143,0.651 8.29,2.335 14.721,2.478 22.951,-0.251 -1.161,0.311 -1.841,0.451 -0.65,-0.029 -3.094,1.111 -7.147,1.731 -10.44,1.791 -14.203,0.236 -26.994,-7.741 -32.831,-20.63 -3.347,-7.391 -4.135,-15.372 -2.112,-23.343l-0.28 0.971c1.468,-7.599 6.345,-14.935 12.081,-19.639l-1.052 1.001c6.156,-5.305 12.452,-8.168 20.77,-8.909 14.736,-1.301 28.605,7.23 34.793,20.31 4.984,10.537 4.315,22.449 -1.462,32.742l0.28 -0.26c-1.081,2.012 -2.522,3.884 -4.003,5.675 -1.131,1.362 0.68,-0.62 -0.311,0.511l0.03 -0.03c-1.621,1.872 -3.093,3.173 -4.995,4.715 4.543,-3.416 7.551,-7.074 10.24,-12.002l0.012 0zm-35.034 19.209c1.762,0.17 3.293,0.17 5.135,0.06l-0.03 0.03c2.002,-0.17 3.704,-0.37 5.695,-0.821l-4.994 0.771 2.272 -0.211c-2.954,0.444 -6.795,0.446 -9.739,0l1.661 0.171zm19.969 -66.796c-0.2,-0.09 -0.57,-0.31 -1.051,-0.54l1.051 0.54zm17.937 38.308c0,0.18 -0.15,0.75 -0.28,1.301l0 -0.02c0.17,-0.62 0.28,-1.301 0.28,-1.281zm-0.321 1.421c-0.24,0.931 -0.45,1.652 0,0zm-32.049 27.127c-0.151,0 -0.261,0.02 -0.261,0.02l0.261 -0.02zm43.18 -83.392l-3.734 -3.163 5.346 4.935 -3.574 -3.414 4.204 3.954c0.01,-0.03 0.02,-0.07 0.03,-0.11 -0.851,-0.861 -1.821,-1.742 -2.282,-2.202l0.01 0zm-43.1 83.392c0.07,0 0.13,-0.01 0.19,-0.02l-0.27 0.02c0,0 0.05,0 0.08,0l0 0zm19.718 -16.516c2.24,-2.926 4.003,-5.536 5.135,-9.119l-0.02 0c-1.74,5.332 -5.243,9.55 -9.619,13.133 2.558,-1.832 4.665,-4.268 6.356,-6.647 -0.481,0.851 -1.622,2.242 -2.322,3.003 -0.281,0.31 -0.231,0.28 0.48,-0.4l-0.01 0.03zm25.594 -64.454l-0.611 -0.65 0.601 0.65 0.01 0zm-1.611 -9.489l0 0zm-35.043 81.821l-4.415 1.511 4.415 -1.512 0 0.001zm1.411 -0.671c-0.48,0.22 -0.741,0.37 -1.011,0.5l1.011 -0.5zm-1.411 0.671c0.14,-0.06 0.28,-0.121 0.4,-0.171l-0.4 0.171zm-23.272 5.035l0 0zm17.296 -11.262c0,0 0.03,0 0.04,0 0,0 -0.02,0 -0.04,0zm5.785 6.407l4.985 -2.583c-1.591,1.021 -3.323,1.922 -4.834,2.472 0.06,0 -0.02,0.05 -0.16,0.111l0.009 0zm-0.58 -54.674c0.35,0.12 0.711,0.26 1.071,0.41l-1.071 -0.42 0 0.01zm-6.716 56.586c-0.15,0.02 -0.301,0.04 -0.441,0.06 0.151,-0.02 0.301,-0.04 0.441,-0.06zm-0.441 0.06c-0.08,0.01 -0.16,0.02 -0.24,0.03 0.08,0 0.16,-0.02 0.24,-0.03zm-27.636 -5.116l-0.79 -0.86c0.24,0.28 0.51,0.57 0.79,0.86zm50.908 -10.87c0,0 -0.02,0.02 0,0zm-14.504 -40.009c-0.18,-0.081 -0.36,-0.16 -0.54,-0.241l0.54 0.241zm-16.365 55.895c0.791,0.06 -0.79,-0.171 -0.961,-0.14l-2.412 -0.601c-6.356,-1.792 -11.691,-5.396 -15.605,-10.55l0 -0.061c0.451,0.511 -0.77,-1.161 -0.851,-1.281 -2.759,-4.349 -4.652,-8.796 -5.044,-13.984l0.631 3.804c-0.907,-5.436 -1.029,-9.526 0.71,-15.125 -0.851,2.663 -1.191,4.995 -1.281,6.436 -0.06,0.511 -0.11,0.711 -0.09,0.31 0.567,-13.372 12.274,-22.277 10.42,-20.43 0.99,-0.79 2.582,-2.042 3.883,-2.782 0.911,-0.511 -2.101,1.391 0.881,-0.4 -0.17,0.11 -0.341,0.23 -0.541,0.34 2.975,-1.552 4.001,-2.057 7.407,-3.063 -2.924,0.774 -4.149,1.364 -6.696,2.522 5.271,-2.838 10.937,-3.902 16.966,-3.293 0.14,-0.23 3.514,0.4 2.923,0.37l-2.102 -0.28 4.194 0.791 5.355 2.041 -1.421 -0.54c3.081,1.369 5.537,3.049 8.038,5.305 0.57,0.541 0.48,0.37 -0.711,-0.79 1.471,1.281 2.072,1.901 3.203,3.293 -0.651,-0.711 -1.081,-1.161 -1.301,-1.361l3.623 4.624c0,0 1.072,1.323 2.132,3.834 0.451,1.081 -0.62,-1.251 -0.09,0.03 1.702,3.944 2.472,7.407 2.553,12.002 0.029,-2.443 -0.281,-4.485 -0.341,-5.075 -0.03,-0.28 0,-0.2 0.11,0.4 0.2,1.251 0.37,3.804 0.341,5.165 -0.03,1.562 -0.06,-0.28 -0.091,0.11l-0.06 1.362c0.091,-0.681 0.091,-0.371 0.06,0.17l-0.48 3.433 0.431 -3.573c-0.261,1.901 -0.171,2.102 -0.771,4.684l0.17 -0.51c-0.436,2.465 -1.285,4.709 -2.332,6.917l-1.422 2.632 1.191 -2.012 -0.83 1.592c0.911,-1.391 1.671,-2.863 2.302,-4.374 0.37,-0.881 0.54,-1.331 0.31,-0.741 -1.051,2.833 -2.983,5.846 -2.953,5.846l0.28 -0.341 -0.14 0.261c0.231,-0.31 0.481,-0.711 0.311,-0.341 1.531,-2.492 2.552,-4.735 3.373,-7.487 -1.372,4.784 -3.839,8.442 -3.824,8.428 1.318,-1.222 3.515,-6.693 4.144,-9.019 -0.404,2.632 -2.576,7.001 -4.504,9.79 -0.401,0.571 0,0.14 -0.03,0.17l-1.622 2.183 2.893 -3.604c0.711,-0.961 2.042,-3.744 2.492,-4.935 1.331,-3.323 1.982,-6.697 2.132,-10.27l0.03 0c-0.11,3.728 -1.351,8.365 -0.801,6.326 2.36,-8.748 -0.125,-19.167 -5.965,-26.446 -9.308,-11.599 -24.976,-14.495 -37.816,-8.038l3.943 -1.732c1.302,-0.48 1.812,-0.57 1.732,-0.57 -0.956,0.047 -4.404,1.565 -5.565,2.131 -3.175,1.549 -7.299,4.926 -9.61,7.828l1.512 -1.882c-5.818,6.064 -8.685,14.006 -8.628,22.302 0.062,9.039 5.038,18.202 12.261,23.583 5.617,4.185 12.783,6.296 19.749,6.016l-2.182 -0.03 2.862 -0.09c2.102,-0.23 -0.48,-0.06 -0.03,-0.2l-1.901 0.09 4.514 -0.4c4.399,-1.025 2.123,-0.425 -0.63,-0.17l1.641 -0.461 -5.985 0.17c1.151,0.02 2.222,-0.08 3.243,-0.21 -2.388,0.281 -4.714,0.258 -7.357,-0.131l0.03 0.032zm-25.794 -45.315l0 0zm42.59 47.837c0,0 -0.03,0.02 -0.08,0.04 0.04,-0.01 0.07,-0.02 0.1,-0.04l-0.02 0zm-1.071 0.39c-0.22,0.08 -1.211,0.451 -1.511,0.521l1.291 -0.451c-1.171,0.391 -2.252,0.671 -3.594,0.981l3.494 -1.081 -1.422 0.371c-17.412,4.96 -36.062,-4.496 -41.569,-21.902l-0.69 -2.442 -0.841 -5.466c0.06,0.391 0.13,1.182 0.02,-0.44l-0.03 -4.004 0.2 -2.603c1.835,-13.577 11.727,-24.671 24.944,-28.057l-1.421 0.44c3.983,-1.052 6.143,-1.601 10.45,-1.492 2.362,0.06 4.684,0.341 7.066,0.881l-1.08 -0.19c2.682,0.52 5.545,1.411 7.897,2.572l-1.111 -0.45c2.893,1.231 5.555,2.782 8.258,5.045l-1.451 -1.111c6.901,5.36 11.602,12.4 13.052,21.621 0.879,5.59 0.334,9.174 -0.791,14.444 -0.06,0.26 -0.26,0.851 -0.28,1.051l0.961 -3.494c-0.11,0.511 -0.09,0.431 0,0.091l0.431 -2.323 -1.672 7.578c0.85,-2.272 1.191,-3.544 1.672,-5.986 -0.231,1.361 -0.511,2.642 -0.881,3.914 0,0 0.23,-0.681 0.17,-0.31 0.881,-2.643 1.451,-6.897 1.421,-9.96 -0.139,-15.976 -11.313,-30.001 -27.045,-33.283 -0.37,-0.09 -0.4,-0.09 0.06,0.03 0.31,0.06 1.422,0.34 2.152,0.57 -4.583,-1.216 -8.623,-1.643 -13.482,-1.111 2.304,-0.495 7.567,-0.15 10.199,0.351l-2.322 -0.441c-4.395,-0.347 -6.762,-0.398 -11.55,0.621l1.591 -0.261c-6.147,1.345 -11.29,3.548 -16.095,7.628 -2.457,2.086 -4.905,4.522 -6.606,7.487 1.021,-1.501 1.731,-2.492 2.953,-3.884 -6.724,8.022 -9.379,17.071 -8.088,27.467 0.11,0.911 0.231,1.532 0.231,1.221 0.54,3.234 1.671,6.637 3.003,9.219 -0.752,-1.735 -1.622,-3.625 -2.133,-5.625 1.04,3.994 3.983,9.239 6.637,12.362 1.07,1.26 -2.179,-2.38 -4.114,-6.156l-0.651 -1.221c1.626,3.397 3.291,5.863 5.706,8.448 0,0 -0.02,-0.02 -0.03,-0.03 1.566,1.632 3.839,3.642 6.246,5.286 -1.81,-1.169 -3.781,-2.712 -5.415,-4.405 3.092,3.398 9.221,7.259 14.133,8.609 -0.231,-0.09 -0.601,-0.2 -1.132,-0.4 3.524,1.251 6.127,1.641 9.65,1.902 0.6,0.03 0.45,0.03 -0.111,0 -2.182,-0.11 -3.293,-0.281 -5.475,-0.681 2.272,0.451 4.204,0.711 6.556,0.771 2.583,0.03 4.655,-0.261 3.684,-0.11l-1.842 0.11c1.361,-0.03 2.382,-0.11 3.323,-0.231l-0.513 0.002c1.531,-0.201 2.953,-0.371 4.484,-0.821 -1.932,0.43 -3.603,0.7 -5.435,0.85 2.452,-0.21 5.405,-0.78 7.537,-1.561l-2.092 0.561 2.743 -0.842 -1.332 0.34c-0.14,0.03 0.601,-0.139 2.693,-0.94 -0.31,0.1 -0.2,0.05 -0.101,0 -0.34,0.13 -0.67,0.24 -0.99,0.35l-0.01 0.07zm22.631 -28.557l0.02 -0.141 -0.23 1.732 0.2 -1.591 0.01 0zm-13.733 -31.131l0 0zm-2.602 -1.762l-1.902 -1.071 1.902 1.081 0 -0.01zm-2.332 -1.241c-0.14,-0.06 -1.021,-0.48 -0.991,-0.48 0.09,0.029 1.131,0.54 0.991,0.48zm-39.358 6.296l0.431 -0.37 -0.541 0.51c0.03,-0.06 0.091,-0.09 0.14,-0.14l-0.03 0zm-9.448 26.866c-0.01,-0.14 0,-0.11 0,0zm7.527 19.81c-0.501,-0.591 0.1,0.11 0.48,0.54 -0.13,-0.15 -0.3,-0.34 -0.48,-0.54zm27.296 11.721l1.901 -0.119 -1.901 0.11 0 0.009zm3.263 -0.23l0 0zm0.25 -0.2c0.11,0 1.301,-0.2 1.281,-0.2 -0.77,0.2 -2.752,0.37 -1.281,0.2zm2.923 -0.34c-0.081,0 0.029,-0.03 0.5,-0.13l-0.5 0.13zm14.163 -25.145l0 0zm-0.54 1.481c-1.604,3.683 -4.022,6.459 -7.177,9.019 1.965,-1.284 3.844,-3.526 5.134,-5.305l-1.451 2.132c1.367,-1.473 3.458,-5.348 4.023,-7.348l0.001 0.001c0,0 -0.541,1.501 -0.541,1.501l0.011 0zm-24.844 -29.899c0.07,-0.01 0.13,-0.02 0.18,-0.03l-0.18 0.03zm17.437 26.066c-0.622,1.379 -0.689,2.101 -2.443,4.164 0.711,-0.681 -0.03,0.43 0.821,-0.681 2.482,-3.249 2.986,-6.25 3.093,-9.989 0.08,3.642 -0.613,6.476 -2.693,9.589 0.341,-0.4 0.621,-0.601 0.371,-0.06 2.656,-3.633 3.133,-8.23 2.132,-12.653 -0.541,-2.322 -1.532,-4.224 -2.983,-6.046 -3.093,-3.392 -6.782,-5.73 -11.861,-5.796l0.45 0.121c-3.287,-0.278 -7.181,0.895 -9.789,2.802l0.17 -0.25c-2.102,1.361 -4.424,4.254 -5.535,6.837 -3.24,7.566 -0.185,15.765 6.667,19.809 1.561,0.911 3.233,1.562 5.415,1.812 -0.168,0.391 4.466,0.247 6.246,-0.29 0.51,-0.17 -0.601,0 -0.601,0 -0.31,0.03 1.732,-0.4 3.093,-1.081 0.941,-0.481 -0.28,0.06 0.311,-0.281 0.06,-0.06 0.23,-0.14 0.43,-0.26l-0.031 0 2.042 -1.392c-1.804,1.195 -3.603,2.147 -5.726,2.583l0.941 -0.34c-0.741,0.2 -1.701,0.43 -3.343,0.57l-1.051 0.08 -0.79 -0.06c0.478,0.261 -8.458,-0.143 -12.282,-7.608 -2.132,-3.713 -2.523,-8.148 -1.161,-12.202 2.612,-7.887 11.581,-12.282 19.608,-9.219 6.386,2.473 10.36,8.969 9.559,15.716 -0.359,2.982 -0.824,3.15 -1.06,4.125zm-11.772 9.169c0,0 -0.37,0.09 -0.51,0.09 -0.62,0.03 1.021,-0.2 0.51,-0.09zm-2.102 0.65c0.06,0.03 -0.23,0.03 -0.51,0l0.51 0zm-15.354 -12.602l0 0zm30.248 -0.531c-0.14,1.161 -0.821,3.664 -1.471,4.715l0.881 -2.212 -0.42 1.001c0.846,-2.314 1.261,-4.857 1.021,-3.494l-0.011 -0.01zm-3.603 29.559l-0.27 0.09 0.27 -0.1 0 0.01zm-4.764 -65.594c-0.141,-0.03 -0.271,-0.05 -0.411,-0.08l0.411 0.08zm6.806 2.813c-0.511,-0.22 -1.031,-0.431 -1.562,-0.631l1.562 0.631zm-6.787 -2.122c-0.65,-0.13 -1.301,-0.24 -1.921,-0.321l1.921 0.321zm-16.905 0.951l0 0zm-77.823 -35.095c0.07,-0.11 0.61,-0.991 1.441,-2.282l-1.451 2.282 0.01 0zm8.708 179.266c31.534,22.757 71.072,31.652 109.432,24.415 -0.009,-0.211 -0.02,-0.421 -0.04,-0.621 -51.336,9.687 -103.902,-9.762 -136.488,-50.419l0.06 1.051c7.847,9.619 16.966,18.328 27.035,25.585l0.001 -0.011zm97.912 26.046c1.672,-0.14 1.812,-0.14 0.991,-0.06l-4.715 0.43 3.724 -0.37zm-106.42 -26.166c0.62,0.481 0.741,0.571 0.45,0.341l-6.225 -5.255c4.206,3.712 9.682,8.053 13.993,10.99l-1.201 -0.87c27.696,19.334 60.651,28.556 94.128,26.516 1.022,-0.061 1.362,-0.11 0.771,-0.091 5.495,-0.36 11.001,-1.071 16.385,-2.061 0,-0.02 0,-0.041 0,-0.07 -0.25,0.04 -0.5,0.1 -0.74,0.139 0.25,-0.04 0.49,-0.1 0.74,-0.139 -0.02,-0.27 -0.05,-0.541 -0.07,-0.811 -11.653,1.981 -18.388,2.824 -30.749,2.433l1.331 -0.061c-7.216,-0.221 -16.202,-0.925 -23.132,-2.302 -0.28,-0.06 -0.34,-0.06 -0.26,-0.03l2.212 0.4c-21.329,-3.456 -41.716,-11.831 -59.476,-24.143 -0.74,-0.511 -1.191,-0.821 -1.131,-0.791 -9.359,-6.626 -17.817,-14.314 -25.263,-22.832 0.035,1.7 -0.186,1.17 1.491,3.033 5.165,5.675 10.98,11.071 16.735,15.605l0.011 -0.001zm77.653 30.48l-0.701 -0.07c0.5,0.05 0.981,0.1 1.381,0.131 -0.06,0 -0.23,0 -0.68,-0.061zm-4.494 -0.48l0 0zm-90.896 -46.846c2.283,2.542 4.524,4.895 6.827,7.147l-5.576 -5.726c-1.501,-1.672 -1.791,-2.012 -1.251,-1.421zm11.851 11.841c-1.581,-1.401 -3.203,-2.912 -4.714,-4.384 1.541,1.501 3.103,2.953 4.714,4.384zm4.174 -17.467c15.753,15.592 34.983,27.67 56.383,32.802l0.03 -0.03c11.521,2.7 21.11,4.065 32.38,3.864 3.094,-0.06 4.205,-0.09 1.962,-0.03 -4.914,0.151 -9.829,0.06 -15.564,-0.49 14.329,1.526 29.619,0.27 43.961,-3.504 0,-0.009 0,-0.03 0,-0.04 -3.333,0.891 -6.626,1.632 -9.759,2.172 -2.182,0.371 -3.033,0.481 -1.392,0.171 0.861,-0.141 5.075,-0.782 11.141,-2.393 0,-0.37 -0.01,-0.73 -0.02,-1.101 -8.1,1.766 -14.74,3.226 -23.673,3.743 -21.48,1.112 -40.968,-2.212 -60.747,-11.461 -14.353,-6.726 -27.886,-16.736 -38.386,-28.378 -5.825,-6.431 -10.754,-12.991 -15.164,-20.42 0.04,0.431 0.09,0.851 0.13,1.272 0.821,1.301 1.601,2.602 2.432,3.853 4.714,7.007 10.33,14.014 16.285,19.98l0.001 -0.01zm4.034 13.654c26.555,21.711 59.956,32.201 94.058,29.398 7.217,-0.59 14.304,-1.782 21.21,-3.513 0,-0.18 -0.01,-0.361 -0.02,-0.531 -40.001,10.054 -82.739,0.732 -114.828,-25.615 -8.66,-7.11 -15.131,-13.866 -21.72,-22.652 0.02,0.28 0.05,0.561 0.07,0.841 6.176,8.128 13.302,15.585 21.22,22.062l0.01 0.01zm66.823 28.347l4.314 0.481 -3.403 -0.341c-1.562,-0.2 -1.672,-0.23 -0.911,-0.14zm-70.196 -18.247l4.084 3.173c21.181,16.349 46.811,27.515 73.989,31.35 13.823,1.951 25.773,2.434 40.178,0.911 0.571,-0.06 1.151,-0.13 1.732,-0.2 -0.02,-0.2 -0.041,-0.391 -0.06,-0.591 -0.561,0.06 -1.052,0.121 -1.392,0.16 -2.892,0.25 -1.051,0.08 1.381,-0.22 0,-0.02 0,-0.05 0,-0.07 -2.302,0.26 -4.604,0.49 -6.936,0.66 1.731,-0.089 1.391,-0.029 0,0.091 -4.004,0.31 -7.948,0.45 -11.972,0.4 -1.221,-0.03 -1.281,-0.03 0.821,-0.06 -11.891,-0.285 -18.498,-0.428 -30.899,-2.923 -23.407,-4.71 -43.589,-13.577 -62.779,-26.937l2.152 1.502c0.451,0.31 0.28,0.2 -0.31,-0.2 -9.543,-6.463 -19.285,-15.226 -27.075,-23.794l5.365 5.686c4.318,4.291 9.315,8.752 13.452,12.001 0.281,0.231 0.171,0.14 -0.48,-0.37 -7.568,-5.916 -11.61,-10.039 -18.337,-17.147 0,0.11 0,0.21 0,0.32 5.235,5.756 11.501,11.792 17.086,16.266l0 -0.008zm96.52 36.125l4.034 0.11 -9.929 -0.401 5.905 0.281 -0.01 0.01zm-113.486 -44.464c0,0 -0.02,-0.02 -0.03,-0.03l0 0c0.08,0.081 0.11,0.11 0.03,0.03l0 0zm40.258 5.616c5.195,3.033 10.67,5.736 16.205,7.977 -3.966,-1.842 -5.554,-2.338 -10.53,-5.105l4.064 2.182c0.11,0.061 -1.161,-0.57 -2.752,-1.361 -8.499,-4.503 -16.459,-9.95 -23.733,-16.116 -9.387,-7.956 -19.11,-18.426 -25.544,-28.818 0.04,0.41 0.09,0.811 0.13,1.211 10.52,16.156 24.573,29.799 42.16,40.049l0 -0.019zm-42.34 -41.752l0 0zm6.106 9.01c0.23,0.28 1.131,1.421 2.352,2.983 4.146,5 8.912,9.846 13.603,14.104 -6.059,-5.855 -9.44,-9.135 -14.563,-15.556l-6.196 -8.308 4.804 6.777zm-5.776 -8.208c-0.1,-0.161 -0.2,-0.311 -0.29,-0.451l0.29 0.451zm0.981 1.431l0 0zm15.434 49.198c-0.23,-0.2 -2.692,-2.102 -5.875,-4.795 -3.053,-2.633 -5.996,-5.365 -8.838,-8.198 0,0.041 0,0.081 0,0.11 4.214,4.185 8.638,8.119 13.232,11.722 1.161,0.941 1.622,1.281 1.471,1.161l0.01 0zm69.086 9.76c14.029,2.172 26.858,1.88 40.998,-0.291l-9.679 1.191c-2.953,0.231 -4.624,0.341 -0.681,0.03 7.558,-0.569 14.626,-1.894 21.17,-3.453 0,-0.241 -0.01,-0.481 -0.02,-0.721 -4.644,1.181 -9.399,2.122 -14.303,2.813l11.581 -2.182c-5.075,1.161 -9.359,1.932 -14.324,2.522l-1.451 0.13 -4.074 0.381c-6.4,0.465 -12.297,0.45 -19.407,-0.03 4.283,0.28 6.926,0.4 11.09,0.34 -14.213,0.17 -28.427,-2.072 -41.959,-6.607l3.713 1.141c-26.878,-8.289 -50.38,-24.368 -67.633,-48.297 0.16,1.519 -0.038,1.032 1.521,3.082 20.089,26.587 50.678,44.805 83.479,49.94l-0.021 0.011zm46.993 -1.472c-1.531,0.321 -3.062,0.631 -4.594,0.901 1.542,-0.27 3.073,-0.57 4.594,-0.901zm4.795 -1.121c-1.181,0.3 -2.372,0.581 -3.573,0.851 1.191,-0.27 2.382,-0.551 3.573,-0.851zm-41.769 3.644c0.991,0.09 1.761,0.14 1.812,0.14 -0.171,0 -1.332,-0.09 -2.413,-0.171l0.601 0.03 0 0.001zm-7.457 -0.771l5.015 0.591 -10.97 -1.522c0.68,0.11 3.373,0.601 5.955,0.941l0 -0.01zm-1.441 68.587l0 0zm-32.751 -5.906l2.742 0.721 -0.4 -0.09c26.502,6.883 53.875,7.934 80.675,3.593 -4.224,0.681 -9.869,1.361 -14.243,1.762 -4.484,0.31 -7.037,0.51 -0.991,0.06 6.22,-0.461 16.671,-1.934 22.281,-3.113 -0.521,0.1 -1.041,0.2 -1.572,0.3l4.224 -0.831c-0.11,-0.21 -0.21,-0.42 -0.32,-0.64 -17.951,3.827 -38.312,5.352 -56.413,3.784l16.947 0.54c-19.509,0.181 -38.787,-2.502 -57.495,-8.067l1.992 0.581 -4.144 -1.242 1.181 0.38c-14.513,-4.457 -30.377,-11.013 -44.361,-19.639l-6.396 -3.994c-0.03,0.23 -0.06,0.461 -0.09,0.701 17.846,11.591 37.485,20.25 57.974,25.655 -0.46,-0.12 -1.001,-0.27 -1.581,-0.43l-0.01 -0.031zm91.096 2.713c0.39,-0.08 0.78,-0.16 1.171,-0.24 -0.391,0.08 -0.781,0.16 -1.171,0.24zm-15.175 1.852c2.803,-0.35 6.086,-0.841 9.399,-1.412 -2.332,0.411 -4.674,0.801 -7.047,1.131l-2.352 0.281zm13.062 -2.082c-0.16,0.03 -0.32,0.06 -0.47,0.09 0.16,-0.03 0.32,-0.06 0.47,-0.09zm-73.098 1.091c6.477,1.113 13.551,2.134 20.459,2.643 1.471,0.09 2.662,0.17 2.752,0.2l-8.908 -0.741 -12.482 -1.762c-1.562,-0.26 -2.382,-0.431 -1.812,-0.34l-0.009 0zm-6.577 -5.105c26.856,5.966 54.862,6.116 81.757,0.49 -0.14,-0.36 -0.25,-0.68 -0.35,-1.071l-7.507 1.372 2.382 -0.471c-4.464,0.791 -9.209,1.511 -13.253,1.892l-3.993 0.511c-14.042,1.241 -29.434,0.926 -43.131,-1.021l-2.212 -0.341c7.977,1.027 16.751,2.049 27.756,2.052 1.982,-0.03 2.983,-0.03 2.182,-0.06 -5.755,0.09 -12.031,-0.14 -18.297,-0.681 -16.902,-1.498 -34.093,-5.273 -49.547,-11.06l-5.475 -2.102 6.466 2.582c-9.531,-3.233 -18.751,-7.72 -27.585,-12.522l11.18 5.615c0.08,0.041 0.13,0.061 0.2,0.101 -9.065,-4.313 -16.52,-8.414 -25.584,-14.435 0,0.021 0,0.04 0,0.05l8.588 5.436c0.37,0.2 0.34,0.26 -0.03,0.06l-8.568 -5.435c-0.06,0.42 -0.11,0.84 -0.17,1.271 8.738,5.785 17.996,10.91 27.715,15.295 12.142,5.475 24.654,9.619 37.455,12.482l0.021 -0.01zm-33.481 -5.025c37.205,15.335 78.444,18.878 117.641,10.41 -0.081,-0.15 -0.16,-0.3 -0.241,-0.46 -39.478,8.791 -83.26,4.471 -120.363,-11.712 -10.62,-4.632 -20.179,-9.744 -29.428,-15.705 -0.02,0.16 -0.04,0.31 -0.06,0.47 2.873,1.852 5.786,3.654 8.778,5.366 7.918,4.564 15.325,8.228 23.663,11.631l0.01 0zm57.084 13.623l0 0zm24.993 -171.047c-0.16,0.02 -0.31,0.05 -0.47,0.07 0.16,-0.02 0.31,-0.04 0.47,-0.07zm-107.531 136.903l-0.03 0c16.566,10.133 34.754,18.151 53.15,22.613l-0.431 -0.14 12.662 2.803c13.303,2.552 27.356,3.633 40.888,3.233l0.06 0.03c-7.977,0.22 -15.294,0.04 -23.692,-0.771 18.016,1.955 39.619,0.729 57.674,-3.153 0,-0.01 0,-0.02 0,-0.03l-7.247 1.291c2.503,-0.44 4.875,-0.881 7.227,-1.361l-0.24 -1.171c-50.322,10.372 -102.725,0.376 -145.856,-28.568 -0.061,0.43 -0.111,0.86 -0.171,1.291 2.663,1.782 5.375,3.503 8.118,5.145 1.021,0.62 -0.881,-0.51 -2.102,-1.221l-0.01 0.009zm108.552 17.488c0.961,-0.03 0.741,-0.03 0,0zm-86.391 -20.6c11.197,5.698 25.05,10.814 39.867,14.134 -0.6,-0.17 0.791,0.14 3.094,0.621 5.735,1.169 11.434,1.95 17.196,2.672 -0.06,0 -0.571,-0.06 -1.702,-0.17 19.488,2.262 39.367,1.091 57.764,-2.813 -0.029,-0.23 -0.05,-0.44 -0.08,-0.66 -49.582,10.57 -101.261,-0.317 -142.403,-30.28 -0.02,0.25 -0.05,0.51 -0.08,0.771 9.179,6.638 16.429,10.836 26.344,15.725l0 0zm-8.008 -38.958c-5.775,-4.274 -11.52,-9.159 -16.715,-14.214 0,0.04 0,0.08 0,0.12 5.481,5.313 10.461,9.471 16.716,14.094l-0.001 0zm-8.677 32.481c16.933,10.474 35.898,18.358 55.461,22.673 -2.802,-0.641 -5.725,-1.372 -8.488,-2.162 9.965,2.781 20.217,4.683 30.389,5.775 0.541,0.06 0.791,0.09 0.711,0.09 7.535,0.686 18.094,1.089 25.023,0.681 -1.962,0.06 -7.577,0.17 -3.573,0.06 11.481,-0.28 22.451,-1.491 33.641,-3.854 0,0 0,-0.02 0,-0.029 -1.861,0.39 -3.773,0.77 -5.094,0.961 -0.431,0.06 -0.341,0.06 0.57,-0.111 1.512,-0.28 3.013,-0.58 4.524,-0.9 -0.02,-0.221 -0.05,-0.431 -0.07,-0.651 -21.148,4.603 -43.873,5.153 -65.171,1.842l1.571 0.21c-4.682,-0.642 -16.473,-2.9 -19.478,-3.925l0.991 0.261c-9.279,-2.272 -20.37,-6.156 -29.818,-10.411 4.514,1.983 8.738,3.714 13.423,5.366 -15.895,-5.696 -30.759,-13.473 -44.472,-23.273 -0.03,0.24 -0.05,0.49 -0.08,0.741l9.929 6.666 0.011 -0.01zm115.758 26.026c-2.132,0.22 -4.204,0.4 -6.256,0.561 3.494,-0.271 6.977,-0.631 10.46,-1.101 -0.37,0.06 -1.962,0.26 -4.204,0.54l0 0zm-16.706 1.061c3.343,-0.07 6.687,-0.221 10.03,-0.471 -3.334,0.25 -6.637,0.411 -10.03,0.471zm-0.74 0.01c-5.439,0.063 -10.324,0.044 -16.786,-0.501 5.595,0.431 11.19,0.591 16.786,0.501zm-32.431 -3.063c0.26,0.04 0.521,0.08 0.781,0.13 -0.37,-0.06 -0.721,-0.12 -1.061,-0.17 0.1,0.02 0.19,0.03 0.29,0.05l-0.01 -0.01zm14.544 2.462c-5.33,-0.437 -9.763,-0.914 -16.836,-2.182 5.595,0.991 11.21,1.712 16.846,2.182l-0.01 0zm-57.844 -14.684l-2.263 -1.021c1.242,0.55 2.172,0.991 2.263,1.021zm-5.335 -2.432l0 0zm-13.754 -7.358c2.102,1.272 5.425,3.114 8.138,4.525l-8.138 -4.525zm-10.469 -6.646l-0.411 -0.291c0.571,0.391 0.651,0.441 0.411,0.291zm23.712 -22.502c10.64,7.301 28.668,15.604 41.449,18.928l12.682 2.923c2.242,0.431 3.603,0.711 2.663,0.57 -2.783,-0.45 -7.948,-1.501 -11.091,-2.322 4.282,1.158 17.748,3.827 22.331,4.034 0.621,0.03 -0.34,-0.14 0.821,-0.03 10.993,1.102 20.4,1.961 31.72,1.481l-1.421 0.08c4.784,-0.15 9.128,-0.48 13.692,-0.991 0,-0.009 0,-0.029 0,-0.04l-0.78 0.07c0.27,-0.03 0.52,-0.06 0.77,-0.09 0,-0.02 0,-0.04 0,-0.05l-9.579 0.781 9.579 -0.81c-0.03,-0.221 -0.05,-0.441 -0.08,-0.661 -6.783,0.774 -14.101,1.172 -21.14,1.071 7.295,-0.334 13.754,-1.023 20.99,-2.312 -0.06,-0.521 -0.131,-1.051 -0.191,-1.562 -5.655,1.011 -11.36,1.732 -17.056,2.112 -11.35,0.761 -22.921,0.231 -34.252,-1.522 -5.675,-1.151 -11.27,-2.572 -16.705,-4.264 -26.468,-8.284 -50.002,-22.943 -69.155,-42.871 0,0.41 0,0.801 0,1.211 8.9,8.9 16.706,15.637 27.706,22.852 -11.172,-7.23 -20.027,-14.915 -27.696,-22.752 0,0.029 0,0.06 0,0.08 7.126,7.327 13.583,12.732 22.051,18.898l0 -0.03c11.178,8.308 26.191,16.04 39.698,20.971 1.501,0.53 3.262,1.141 4.934,1.711 -25.466,-7.348 -48.19,-20.713 -66.692,-39.178 0,0.66 0,1.321 -0.02,1.982 7.402,7.226 15.488,13.801 24.763,19.76l0.009 -0.03zm82.087 25.254c-2.242,-0.16 -4.384,-0.35 -6.486,-0.57l9.329 0.741 -2.843 -0.171zm26.215 -0.2l-2.833 0.22c0.951,-0.07 1.892,-0.14 2.822,-0.23l0.011 0.01zm-11.011 0.26c3.123,-0.06 6.417,-0.23 9.509,-0.45 1.982,-0.17 3.203,-0.281 2.322,-0.2 -3.913,0.4 -8.798,0.65 -12.572,0.68 -0.17,0 0.14,0 0.771,-0.03l-0.03 0zm-0.36 0.231c-3.837,0.213 -9.757,-0.05 -9.759,-0.05 -0.911,-0.06 -0.11,-0.03 1.361,0l8.398 0.06 0 -0.01zm6.977 -1.762l1.811 -0.2c-3.142,0.423 -11.598,1.465 -16.505,1.292 5.085,-0.141 9.87,-0.491 14.684,-1.101l0.01 0.009zm-63.53 -6.927c0.851,0.29 1.641,0.561 2.382,0.801l-2.382 -0.801zm-59.606 14.925l-0.03 0.03c15.053,9.281 34.673,18.03 51.558,21.921l-0.4 -0.14c5.431,1.293 9.78,2.308 15.495,3.264 12.001,2.072 24.312,2.953 36.434,2.582l0.09 0.03c-9.189,0.231 -17.106,0 -27.326,-1.191l6.436 0.711c16.615,1.636 37.297,0.2 54.061,-3.333 0,-0.02 0,-0.041 0,-0.06 -1.391,0.289 -2.782,0.57 -4.164,0.83 -1.982,0.37 -6.636,1.081 -3.093,0.451l7.247 -1.361 -0.201 -1.502c-14.41,3.015 -27.446,4.109 -42.279,3.784 11.163,0.203 23.232,-0.559 33.832,-2.383 -4.284,0.651 -8.939,1.251 -13.333,1.621 -4.204,0.311 -6.587,0.481 -0.941,0.03 7.34,-0.552 15.886,-1.812 22.691,-3.243 0,-0.009 0,-0.02 0,-0.03 -0.57,0.121 -1.131,0.241 -1.711,0.351 0.57,-0.11 1.141,-0.231 1.701,-0.351 -0.029,-0.27 -0.07,-0.55 -0.1,-0.83 -1.211,0.25 -2.422,0.5 -3.633,0.73l3.633 -0.75c0,0 0,0 0,-0.01 -17.802,3.785 -34.209,4.657 -52.319,3.493l15.836 0.45c-17.976,0.174 -38.515,-2.51 -55.643,-8.118 -0.12,-0.04 -0.12,-0.03 -0.15,-0.04l3.784 1.161c-2.623,-0.75 -5.236,-1.551 -7.828,-2.422l1.702 0.53c-16.497,-5.239 -34.414,-14.136 -49.136,-24.484 -0.03,0.28 -0.07,0.55 -0.1,0.841 26.298,18.332 56.999,29.867 89.033,32.802 -32.028,-2.755 -62.652,-13.984 -89.084,-32.412l-0.21 1.662c3.333,2.302 6.736,4.494 10.21,6.567 1.021,0.62 -0.851,-0.481 -2.043,-1.162l-0.019 -0.019zm120.954 23.693l7.937 -1.161c-1.942,0.34 -3.964,0.671 -5.755,0.901 -2.102,0.26 -2.663,0.31 -2.182,0.26zm-35.183 1.902l0 0zm-40.288 -7.237l0 0zm32.71 6.616l-11.691 -1.641 6.787 1.021 7.297 0.851c0.23,0.029 -0.791,-0.061 -2.383,-0.231l-0.01 0zm58.365 -246.802c1.471,0.821 3.403,2.072 4.515,2.813l-5.166 -3.443c-0.54,-0.2 -1.091,-0.391 -1.651,-0.581l2.302 1.221 0 -0.01zm-99.934 -14.184l-0.1 0.1c0.11,-0.12 0.16,-0.17 0.1,-0.1zm-37.675 141.099c5.887,8.346 10.139,13.99 17.526,21.171 13.884,13.496 31.199,24.127 50.218,29.058l2.382 0.601 -0.431 -0.14c10.993,2.533 19.852,3.899 30.869,3.683 2.953,-0.06 4.004,-0.11 1.872,-0.03 -5.395,0.171 -10.78,0.061 -17.366,-0.71 11.409,1.25 19.822,1.154 31.229,-0.401 4.845,-0.7 9.739,-1.741 14.584,-3.083 0,-0.009 0,-0.03 0,-0.04 -3.313,0.911 -6.646,1.692 -10.009,2.333 -1.281,0.26 -4.224,0.68 -1.982,0.26l11.991 -2.683c0,-0.49 -0.02,-0.991 -0.03,-1.501 -11.927,3.312 -21.764,4.334 -33.631,4.164 7.479,0.063 13.72,-0.455 20.979,-1.572l-8.748 1.051c-2.492,0.17 -3.973,0.261 -1.161,0.06 4.595,-0.37 8.879,-0.911 13.423,-1.791 4.054,-0.771 7.147,-1.592 6.977,-1.502 0.7,-0.19 1.421,-0.39 2.152,-0.601 0,-0.03 0,-0.06 0,-0.09 -3.613,1.011 -7.197,1.842 -11.371,2.563 3.834,-0.671 7.627,-1.562 11.371,-2.603 0,-0.28 0,-0.55 -0.01,-0.831 -3.594,1.011 -7.247,1.862 -10.99,2.533 1.922,-0.361 3.943,-0.781 5.565,-1.201 -4.625,1.051 -8.338,1.731 -12.882,2.272 -6.248,0.726 -11.993,0.994 -22.411,0.481 3.663,0.2 6.355,0.34 9.959,0.26 -12.821,0.232 -25.591,-1.907 -37.796,-5.936l3.724 1.131c-22.564,-6.905 -41.865,-19.365 -57.354,-38.498 -7.417,-9.169 -13.583,-19.959 -17.927,-31.26 0.1,0.901 0.21,1.862 0.32,2.873 3.804,9.289 8.809,18.118 14.964,26.286 19.521,25.883 50.596,43.24 82.868,45.975 -29.154,-2.34 -56.61,-15.927 -76.231,-37.607 -9.171,-10.134 -16.068,-20.615 -21.47,-33.353 0.13,1.231 0.27,2.512 0.42,3.813 2.202,4.605 4.614,8.929 7.056,12.773 0.431,0.711 0.881,1.421 1.302,2.102l0.049 -0.01zm117.901 50.239c0.16,-0.029 0.31,-0.05 0.47,-0.08 -0.16,0.03 -0.31,0.05 -0.47,0.08zm-21.741 2.423c-0.601,-0.01 -1.201,-0.03 -1.791,-0.05 0.6,0.02 1.191,0.04 1.791,0.05zm-5.995 -0.421l0.74 0.09c-0.34,-0.03 -0.74,-0.06 -1.131,-0.09l0.391 0zm-3.484 -0.26l-7.337 -1.071 8.848 1.191 -1.511 -0.12zm5.145 0.511c-0.52,-0.03 -1.051,-0.06 -1.571,-0.101 0.52,0.041 1.051,0.07 1.571,0.101zm-34.853 -182.98c-20.947,14.675 -32.961,37.175 -33.711,62.662 -0.961,32.657 19.404,62.898 50.027,74.734 18.937,7.319 39.641,6.974 58.385,-0.761 0.01,-0.191 0.03,-0.391 0.04,-0.591 -4.92,2.035 -9.063,3.347 -14.384,4.475l-5.074 0.931c-2.663,0.31 -4.965,0.57 -3.003,0.31 -12.246,1.095 -23.688,-0.323 -35.063,-4.615 -0.931,-0.35 -1.412,-0.52 -1.612,-0.59 0.341,0.13 1.612,0.64 2.883,1.131l-3.693 -1.392c-14.595,-6.15 -26.926,-16.197 -35.494,-29.548l1.871 2.602c-9.358,-13.503 -14.421,-27.905 -14.433,-45.314 -0.018,-25.748 13.68,-50.991 35.393,-64.874 10.8,-6.905 22.171,-11.072 34.713,-12.231 -0.16,-0.141 -0.321,-0.271 -0.491,-0.411 -22.467,2.455 -35.621,13.32 -36.354,13.482zm-19.808 20.57c0.09,-0.121 0.15,-0.22 0.21,-0.311l-1.321 2.012 1.111 -1.701zm0.34 -0.43l-0.02 -0.02c0.221,-0.311 0.191,-0.271 0.02,0.02zm15.745 -29.56c-7.883,5.723 -11.231,8.563 -17.677,15.996l-3.573 4.625 -2.242 3.183c0,0 0.04,-0.06 0.05,-0.09 -2.812,4.668 -3.94,6.11 -6.097,10.73 -4.242,9.093 -7.048,18.336 -8.117,28.319 0.06,-0.481 0.261,-1.942 0.461,-3.403 0.34,-1.842 0.65,-3.664 0.62,-3.344l-0.62 3.574c-2.788,18.85 0.549,38.69 9.92,55.344l-1.822 -3.404c-0.481,-0.88 -0.431,-0.71 0.03,0.231 8.133,16.263 21.344,29.978 37.565,38.577 21.315,11.3 46.501,13.42 69.406,5.686 0,-0.22 0.02,-0.45 0.02,-0.67 -8.484,3.108 -19.176,4.7 -28.537,4.644 -25.741,-0.152 -50.774,-11.889 -67.033,-31.872 -36.624,-45.01 -20.99,-112.455 32.92,-135.833 -0.58,0.01 -1.171,0.02 -1.761,0.03 -3.184,1.442 -6.096,2.983 -8.518,4.424l-4.995 3.234 0 0.019zm59.045 160.088l0.621 -0.061 -2.923 0.281 2.302 -0.231 0 0.011zm-76.321 -159.497l-0.941 1.051 2.542 -2.733c-0.28,0.29 -1.001,1.031 -1.611,1.682l0.01 0zm-6.726 8.198l0.9 -1.251 -0.911 1.251 0.011 0zm2.922 -3.964c3.858,-4.485 6.978,-7.846 11.471,-11.731 -0.291,0.02 -0.581,0.05 -0.871,0.08 -3.664,3.473 -7.517,7.658 -10.6,11.661l0 -0.01zm107.901 9.189l0 0zm-55.241 -9.729c-7.587,1.799 -14.293,4.742 -20.85,8.708 -0.37,0.23 0.31,-0.2 0.741,-0.51 -7.024,4.107 -11.248,7.874 -16.686,13.843l0.2 -0.17c-5.208,6.104 -7.521,9.631 -11.04,16.496 1.531,-3.123 3.173,-6.126 5.195,-9.079 -0.231,0.201 -2.382,3.664 -2.693,4.255 -5.581,10.174 -8.487,18.746 -9.469,30.52 0.386,-4.477 1.584,-11.49 3.013,-15.716 0,0.897 -3.913,11.142 -2.983,25.855 0.639,10.096 3.643,20.775 8.448,29.25 0.231,0.42 0.231,0.44 0.15,0.32 2.091,3.647 3.263,5.624 5.886,9.099 0.621,0.821 0.11,0.17 -0.37,-0.43 -0.571,-0.711 -1.051,-1.302 0.34,0.51 0.341,0.45 0.821,1.051 1.451,1.842l-1.021 -1.251c3.437,4.505 8.457,9.663 12.972,12.822 -4.376,-3.362 -9.771,-8.681 -11.841,-11.491l0.281 0.28c2.132,2.493 3.773,4.254 6.295,6.637 7.48,7.062 18.559,13.775 28.877,16.466l7.007 1.541c-0.961,-0.11 -3.914,-0.68 -5.055,-0.99 0.957,0.275 10.338,2.147 10.27,1.762 4.961,0.43 8.832,0.547 13.933,0.11 3.603,-0.401 5.365,-0.601 0.821,-0.06 -1.792,0.23 -6.246,0.45 -7.978,0.4 9.047,0.328 17.947,-1.617 26.455,-4.715 2.583,-0.991 -0.54,0.11 -1.16,0.341 -0.401,0.14 -0.791,0.31 -1.302,0.43l7.507 -3.063c0.04,-0.44 0.07,-0.88 0.11,-1.321 -16.318,7.959 -33.148,9.004 -50.347,4.324 -11.22,-3.053 -23.178,-10.277 -30.729,-18.328l-2.892 -3.203c2.419,2.419 3.986,4.466 6.987,6.987 1.221,1.051 2.042,1.762 2.612,2.132 1.872,1.392 -0.4,-0.26 -1.982,-1.641 -6.552,-5.701 -12.389,-12.665 -16.575,-20.601 -1.284,-2.432 -4.43,-9.31 -4.885,-11.661l0.99 2.582c-9.813,-27.005 -2.198,-56.082 18.438,-75.555 6.34,-5.982 14.986,-11.15 22.972,-14.084 3.603,-1.361 8.848,-2.813 12.601,-3.433 7.261,-1.108 12.882,-1.524 20.58,-0.541l-3.613 -1.431c-0.771,-0.06 -1.562,-0.11 -2.393,-0.13 -6.586,-0.17 -12.231,0.26 -19.298,1.902l0.03 -0.01zm14.383 -3.464c-31.341,0.789 -59.571,22.645 -67.974,53.253 -3.989,14.529 -3.63,29.984 1.481,44.094 -1.304,-3.513 -2.581,-8.173 -3.133,-11.592 -0.37,-2.302 0,0.431 0.511,2.643 3.119,13.823 9.064,24.766 18.878,35.214l-3.884 -4.144c9.413,11.382 22.365,19.713 36.515,23.754 16.919,4.832 34.302,3.582 50.487,-3.933 0.04,-0.481 0.07,-0.961 0.11,-1.452 -4.947,2.356 -8.641,3.417 -13.833,4.965l0 0.03c-6.076,1.471 -12.482,2.152 -18.697,1.962l9.369 -0.402c-9.092,0.681 -14.81,0.487 -24.113,-1.611 -3.942,-0.889 -8.637,-2.511 -12.422,-4.165 4.356,1.9 10.666,4.082 15.324,4.815 -0.837,0.126 -6.707,-1.528 -8.007,-1.952 -13.266,-4.328 -24.638,-11.887 -33.562,-22.592 -1.081,-1.301 -3.834,-4.905 -4.714,-6.356 -0.571,-0.941 0.06,0.06 0.23,0.31 -2.191,-3.532 -3.953,-6.299 -5.665,-10.18 -1.021,-2.322 2.642,5.566 -0.881,-2.242l0.681 1.451c-2.954,-6.894 -4.141,-11.448 -5.425,-18.858 0.886,6.1 3.346,14.893 4.654,17.317 -0.925,-1.713 -2.527,-6.855 -3.123,-9.079 -2.151,-8.028 -2.642,-15.874 -1.952,-24.324 0.306,-3.748 1.322,-10.329 2.722,-14.864l-0.82 3.443c1.227,-5.525 4.221,-13.088 7.127,-18.048l2.412 -3.974c2.072,-3.003 3.093,-4.455 0.51,-0.681 -1.081,1.532 -3.323,5.276 -4.084,6.927 2.148,-3.814 4.179,-7.391 6.957,-10.791 3.845,-4.705 5.335,-6.271 9.809,-10.3 2.102,-1.842 -0.451,0.31 -0.961,0.74 -0.31,0.261 -0.681,0.541 -1.051,0.881 2.516,-2.516 6.136,-5.047 8.878,-6.927 -1.931,1.392 -3.173,2.243 -3.743,2.753 3.626,-2.845 7.392,-4.996 11.401,-7.177l-5.676 3.094c4.765,-3.063 11.291,-6.016 16.426,-7.548l9.879 -2.302c4.436,-0.79 10.836,-1.105 15.685,-0.841 -0.555,-0.274 -7.172,-0.119 -8.098,-0.09 -0.711,0.03 -0.48,0 0.991,-0.11 1.982,-0.1 4.354,-0.06 6.746,0.07 -3.233,-1.293 -2.297,-1.246 -5.925,-1.141l-0.04 -0.04zm-62.158 31.401l0 0zm39.296 -30.86c-6.583,2.473 -11.58,4.714 -17.456,8.688 -14.335,9.696 -24.645,22.923 -30.118,39.389l0.801 -2.122c0.341,-0.851 0.711,-1.842 1.021,-2.663 0.711,-1.621 1.131,-2.492 0.2,-0.37 -1.161,2.643 -3.153,8.538 -3.803,11.291 -0.2,0.821 -0.311,1.281 -0.311,1.221 -1.84,8.209 -2.428,16.968 -1.411,25.846l-0.31 -4.505c1.165,17.568 7.026,31.577 17.836,45.085 3.371,4.212 7.014,7.492 10.891,10.64l-1.492 -1.292 4.434 3.504 -0.2 -0.171c11.376,8.017 23.315,12.764 37.285,14.244 3.73,0.395 9.309,0.547 12.823,0.291 0.51,-0.06 0.71,-0.06 0.37,-0.06 7.579,-0.528 14.109,-1.972 21.22,-4.515l-1.231 0.391 0.02 -0.02c0,0 -0.06,0.03 -0.09,0.03l0.039 0c-2.452,0.851 -4.864,1.562 -7.407,2.142 4.55,-1.124 8.396,-2.4 12.322,-4.094 0.01,-0.231 0.03,-0.46 0.05,-0.691 -5.284,2.114 -10.337,4.037 -16.215,4.955 -6.184,0.966 -9.754,1.514 -16.225,1.281 -1.132,-0.03 -1.022,-0.03 -0.621,-0.03l-9.869 -1.051 -2.182 -0.34c-9.335,-1.728 -19.287,-5.964 -27.216,-11.191 -1.051,-0.741 -2.072,-1.451 -2.011,-1.421 -16.256,-11.482 -27.296,-29.089 -30.81,-48.598 0.08,0.411 0.16,0.831 0.271,1.311 -2.832,-14.077 -1.445,-27.036 2.862,-39.959 -0.06,0.16 -0.12,0.31 -0.17,0.47l0.301 -0.851c1.826,-4.696 3.851,-9.728 6.987,-14.574 -1.161,1.932 -2.152,3.693 -3.153,5.705 12.003,-23.621 35.589,-39.549 62.059,-41.42 -0.211,-0.15 -0.481,-0.321 -0.761,-0.531 -3.133,0.261 -6.246,0.711 -9.309,1.372 -3.493,0.741 -6.096,1.471 -9.419,2.613l-0.002 0zm-51.528 73.002l0 0zm69.796 75.193l-0.981 -0.099c0.36,0.04 0.701,0.08 0.981,0.1l0 -0.001zm-50.027 -24.333c0.691,0.76 1.391,1.501 2.112,2.242l-2.112 -2.242zm4.514 4.584l-2.252 -2.192c0.731,0.741 1.481,1.471 2.252,2.192zm-8.548 -9.459c-0.04,-0.05 -0.02,-0.02 0,0zm-13.152 -66.265l0.961 -3.234c-0.841,2.733 -1.632,5.856 -2.202,8.829 0.33,-1.832 0.71,-3.713 1.241,-5.595zm-1.672 8.028c0.05,-0.261 0.09,-0.531 0.14,-0.791 -0.09,0.57 -0.18,1.131 -0.25,1.671l0.11 -0.88zm2.773 -9.43c0.08,-0.29 0.17,-0.591 0.26,-0.881 -0.09,0.29 -0.17,0.581 -0.26,0.881zm8.548 -20.45c-0.17,0.31 -1.332,2.152 -1.302,2.102 0.081,-0.16 1.211,-1.982 1.312,-2.112l1.421 -2.103 -1.421 2.113 -0.01 0zm7.146 -9.419l0.191 -0.21c-0.231,0.25 -0.26,0.3 -0.191,0.21zm0.451 -0.481l0.851 -0.911c-0.321,0.351 -0.651,0.711 -0.851,0.911zm6.726 -27.046c-9.918,7.03 -17.353,13.724 -24.323,23.523 -4.693,6.598 -9.74,16.366 -12.101,24.033l0.231 -0.62c-0.801,2.342 -2.072,6.406 -2.472,8.218 -0.261,0.991 -0.401,1.561 -0.401,1.501 -2.202,9.588 -2.843,19.662 -1.872,29.88l-0.23 -4.294c0.57,6.456 0.556,7.976 2.022,14.834 4.076,19.064 15.43,38.61 30.61,51.191l2.181 1.792c-3.79,-3.3 -7.546,-6.49 -10.889,-10.33 6.29,6.498 10.698,10.657 18.387,15.625 15.45,9.983 33.46,15.034 51.729,14.925l5.365 -0.231c7.02,-0.482 14.666,-1.782 21.36,-4.014 0,0 0,-0.02 0,-0.03l-7.737 2.022 7.737 -2.072c0,-0.27 0.01,-0.52 0.02,-0.791 -4.345,1.386 -7.823,2.245 -12.171,2.894 -1.532,0.23 -2.663,0.54 -3.864,0.68 -3.659,0.375 -11.988,1.217 -15.495,0.561 -3.743,-0.14 -8.118,-0.571 -11.721,-1.191l1.021 0.22c-10.741,-1.865 -18.867,-4.418 -28.717,-9.5 -2.072,-1.081 -5.986,-3.373 -7.948,-4.685 -1.281,-0.911 -2.492,-1.731 -2.442,-1.701 -20.569,-14.555 -34.302,-37.227 -37.875,-62.112 0.4,2.153 0.54,3.374 0.991,5.336 0,-0.06 0.089,0.4 -0.201,-0.961 -2.408,-11.79 -1.968,-24.221 -0.049,-34.444 0.57,-3.033 1.311,-6.026 2.171,-9.029 -0.3,1.131 -0.62,2.263 -0.871,3.233 0.481,-1.721 0.811,-3.003 1.262,-4.494l-0.22 0.66c0.42,-1.401 0.85,-2.812 1.341,-4.224l-0.671 2.223c2.39,-6.88 4.286,-11.854 9.269,-20.04l-2.783 4.925c5.115,-9.522 10.095,-15.655 17.397,-22.953l-1.151 1.161c5.946,-5.839 11.857,-10.353 19.178,-14.553 -2.108,0.036 -1.379,-0.186 -3.634,1.231 -0.821,0.51 -1.641,1.051 -2.472,1.531l0.038 0.07zm42.5 169.016l0 0zm-63.41 -33.673l0 0zm-20.339 -58.047l0 -0.471c0.01,0.451 0.01,0.861 0.03,1.201l-0.03 -0.73zm0.281 -6.617l-0.14 2.113 0.64 -7.067c-0.21,1.642 -0.37,3.293 -0.49,4.955l-0.01 -0.001zm1.061 -8.768l2.062 -9.4c-0.851,3.103 -1.542,6.236 -2.072,9.389l0.01 0.011zm5.865 -20.43l-1.361 3.423 1.131 -3.003c0.851,-1.932 1.361,-3.033 0.231,-0.431l-0.001 0.011zm7.627 -14.555c-0.2,0.371 -1.641,2.613 -1.591,2.523 0.11,-0.2 1.762,-2.833 1.591,-2.523zm4.625 -6.526l-4.624 6.456 4.634 -6.456 -0.01 0zm4.034 -4.875l0 0zm-7.197 -7.307l-0.551 0.611 0.281 -0.261c-6.278,7.406 -9.378,11.728 -14.063,20.21 1.707,-3.375 3.648,-6.342 5.665,-9.519 -0.664,0.507 -5.11,8.225 -5.985,9.9 -5.802,11.1 -9.654,23.259 -11.121,35.765 0.675,-5.038 2.293,-13.367 3.884,-18.128 0.601,-1.762 0.851,-2.412 0.431,-1.081 -7.775,24.572 -6.445,51.398 4.483,74.774l2.953 5.816c0.74,1.361 -0.09,-0.11 -0.311,-0.481 2.871,5.175 5.46,9.249 9.039,14.045 2.242,2.922 -5.505,-6.927 2.042,2.812 -0.481,-0.6 -0.961,-1.191 -1.451,-1.791 6.263,8.124 12.107,13.525 20.259,19.699 -8.67,-6.679 -11.955,-9.995 -18.638,-17.788l3.633 4.124c9.417,10.387 21.862,19.397 35.123,25.175 9.297,4.05 12.192,4.293 21.761,6.587 -0.631,-0.101 -1.862,-0.331 -3.123,-0.581 12.246,2.703 23.947,2.989 36.545,1.411 -6.736,0.876 -8.554,0.951 -15.354,1.062 1.875,0.187 8.96,-0.226 11.13,-0.421 5.708,-0.513 12.207,-1.728 17.717,-3.333 0,-0.54 0.02,-1.091 0.03,-1.651 -26.835,7.645 -55.747,3.792 -79.706,-10.401 -7.637,-4.564 -14.643,-10.07 -20.659,-16.286l-4.224 -4.624 5.906 6.245 7.947 6.957c2.723,2.042 -0.65,-0.48 -2.832,-2.382 -7.453,-6.492 -9.216,-8.86 -15.625,-16.707 -6.033,-7.385 -12.695,-21.043 -15.515,-30.219l1.251 3.463 1.842 4.625c-2.982,-8.098 -4.659,-12.523 -6.186,-21.251 -2.032,-11.622 -2.038,-23.578 0.051,-34.984 2.471,-13.497 7.254,-25.121 14.493,-36.786 -5.511,10.806 -8.906,21.689 -10.51,33.352 -1.451,10.56 -1.346,22.414 0.51,32.883 0.141,0.711 0.201,0.961 0.141,0.51 1.811,10.27 5.675,21.361 10.039,29.509 -2.485,-4.912 -4.559,-9.85 -6.276,-15.054 1.882,5.605 4.274,11.06 6.996,16.155l-2.282 -4.414c5.09,10.712 10.587,18.377 18.188,26.786 9.841,10.889 25.348,21.019 39.186,26.136l6.146 2.082c-0.2,-0.06 -0.46,-0.15 -0.77,-0.25 8.949,2.916 17.383,4.08 26.294,4.745 -5.952,-0.3 -11.334,-0.976 -17.116,-2.242 10.099,2.352 21.65,2.893 31.92,2.012 0.31,-0.03 0.17,0 -0.571,0.09l-5.615 0.31c3.263,-0.03 6.866,-0.37 10.069,-0.741l-1.501 0.11 8.458 -1.311c0,0 0,-0.03 0,-0.05 -4.154,0.811 -8.078,1.322 -12.402,1.612 4.024,-0.301 8.258,-0.871 12.402,-1.682 0,-0.22 0,-0.44 0.01,-0.66 -27.9,5.526 -57.414,-0.843 -80.606,-17.467 -17.846,-12.793 -31.519,-31.381 -38.306,-52.322 -2.585,-8.549 -4.057,-14.779 -4.774,-23.664l0.17 0.941c-0.352,-5.491 -0.604,-10.357 -0.25,-16.085l-0.09 0.99c0.479,-11.985 3.686,-24.752 8.398,-35.775l4.484 -9.078c1.919,-3.494 2.973,-5.296 5.495,-8.319 2.561,-3.07 5.806,-6.595 8.938,-9.429l4.925 -4.214c-3.966,0.571 -2.485,-0.119 -5.606,2.713 0.651,-0.721 1.312,-1.432 1.982,-2.133 -0.833,0.239 -1.953,0.746 -2.532,1.352l-6.657 8.068 -0.009 -0.072zm88.483 166.964c1.061,-0.04 2.152,-0.1 3.253,-0.18 -1.061,0.07 -2.132,0.13 -3.253,0.18zm10.64 -1.101l0 0zm-0.06 -0.26c0.26,0 3.433,-0.511 3.863,-0.571 -2.412,0.481 -8.398,1.191 -3.863,0.571zm-10.811 1.141l0 0zm-7.206 0.25l0 0zm-88.623 -54.323c0.36,0.66 0.73,1.311 1.1,1.962 -0.37,-0.651 -0.74,-1.302 -1.1,-1.962zm1.791 3.143c0.431,0.731 0.871,1.451 1.311,2.162 -0.44,-0.721 -0.88,-1.441 -1.311,-2.162zm10.48 14.744c-3.273,-3.794 -6.246,-7.918 -8.938,-12.212 2.592,4.094 5.425,7.938 8.518,11.672 0.74,0.85 0.991,1.161 0.43,0.54l-0.01 0zm20.64 18.398c0.05,0.04 0.11,0.07 0.16,0.11 -0.05,-0.04 -0.11,-0.07 -0.16,-0.11zm-15.895 -13.283c4.023,3.974 8.247,7.968 14.833,12.563 -6.743,-4.628 -12.021,-9.374 -16.525,-14.265l1.692 1.702zm-2.843 -3.073l0 0zm-26.185 -69.878l0.03 -1.812c0,1.021 0,2.553 0.03,3.543 -0.03,-0.2 -0.06,-0.941 -0.06,-1.731l0 0zm25.885 -70.28c0,0 0.03,-0.029 0,0zm-0.26 0.291c-1.932,2.192 -3.674,4.304 -5.335,6.496l-0.09 0.1 5.425 -6.606 0 0.01zm-48.976 52.251c3.203,-13.163 7.637,-23.893 14.673,-35.495 -6.124,9.829 -10.88,20.809 -13.763,31.922l-0.451 1.762c0.838,-4.63 3.25,-10.969 4.655,-14.845 -1.486,3.317 -4.095,11.316 -4.765,14.614l-2.082 10.811 -0.881 7.567c0.428,-4.903 1.33,-11.141 2.603,-16.346l0.011 0.01zm-1.051 11.431c0.17,-1.161 0.17,-1.391 -0.091,0.171 -0.16,1.281 -0.54,3.753 -0.84,7.918 0.07,0.34 0.139,0.67 0.22,1.001 0.04,-1.152 0.09,-2.322 0.17,-3.584l0.541 -5.506zm10.029 -48.507c0,0 -0.01,0 -0.02,0 -5.335,8.888 -9.689,18.558 -12.622,28.388l-1.752 6.496c1.251,-5.275 2.983,-10.81 4.825,-15.545 -0.762,0.932 -5.041,14.631 -4.885,16.006 0.14,-0.601 0.29,-1.202 0.451,-1.842 3.012,-12.002 7.807,-23.053 14.003,-33.503l0 0zm21.21 138.626c16.065,18.564 38.809,32.125 63.439,36.826 1.161,0.23 1.282,0.26 -0.26,-0.06 -2.412,-0.451 -7.097,-1.642 -9.619,-2.443 13.132,3.676 24.478,5.163 37.946,4.455 -7.597,0.373 -13.606,0.148 -21.301,-0.86 14.487,2.175 29.354,1.031 42.58,-2.193l-5.245 1.112c-1.561,0.31 -2.472,0.43 -1.331,0.23 3.663,-0.671 7.317,-1.542 10.94,-2.593 0,-0.22 0,-0.44 -0.01,-0.67 -0.12,0.04 -0.25,0.08 -0.37,0.11l0.37 -0.121c0,0 0,-0.02 0,-0.029 -4.538,1.337 -6.6,1.623 -10.439,2.532l1.681 -0.33c-14.764,3.133 -31.019,3.043 -45.583,0.04 2.302,0.46 6.467,1.201 8.919,1.421 -6.751,-0.839 -9.502,-1.535 -13.883,-2.623 0.04,0.01 0.05,0.021 0.08,0.021l-0.701 -0.16 0.621 0.139c-6.015,-1.501 -12.602,-3.713 -19.208,-6.756 2.862,1.301 6.045,2.613 8.998,3.633 -10.32,-3.713 -19.919,-8.808 -28.757,-15.265l0.41 0.311 -4.824 -3.684 1.241 0.952c-34.751,-27.331 -50.766,-73.508 -39.327,-117.086l1.111 -4.084c-1.301,4.374 -2.042,7.267 -2.922,11.752 0.56,-2.854 -0.021,-0.211 -0.551,2.912 1.235,-7.606 2.78,-13.188 5.065,-20.57 -2.613,7.407 -3.914,12.372 -5.245,20 0.791,-4.905 1.562,-8.288 2.892,-13.083 -0.029,0.06 -0.68,2.322 -0.37,1.161l-0.029 0c-0.941,3.463 -1.672,6.526 -2.353,10.069 -2.142,11.442 -2.472,24.034 -0.62,36.727 0.25,0.711 0.541,1.581 0.761,2.512 0.634,2.637 0.557,4.266 0.951,6.577 0.601,2.622 1.291,5.235 2.092,7.837 4.734,15.436 12.431,29.199 22.871,41.261l-0.02 0.02zm92.747 38.718c2.692,-0.17 5.375,-0.42 8.037,-0.781 -2.112,0.35 -5.294,0.611 -8.037,0.781zm-30.179 -2.753l0 0zm-22.591 -6.566l0 0zm-11.921 -6.126l0 0zm-7.207 -4.605l-2.953 -2.122c0.401,0.31 2.383,1.702 2.953,2.132l0 -0.01zm-47.194 -108.947l0 0zm-1.291 11.712c-0.03,0.34 0.06,-2.353 0.26,-5.135l0.621 -5.756c-0.272,2.801 -0.881,8.044 -0.881,10.901l0 -0.01zm-4.755 -4.575c0.02,0.11 0.05,0.22 0.071,0.33l0.15 -2.883 -0.221 2.553zm-3.743 -23.103c0,0.05 0.02,0.101 0.03,0.16 0.28,-1.151 0.09,-0.52 -0.03,-0.16zm27.566 -26.516c1.091,-1.711 2.162,-3.323 3.243,-4.874 -4.767,9.036 -8.106,17.424 -10.39,27.797 -1.33,6.042 -1.823,9.944 -2.282,15.746 -0.51,5.815 0,-1.532 0.14,-2.953l0.401 -3.373c-0.541,3.603 -0.961,9.049 -1.052,12.622 0,0.341 -0.23,4.315 0,4.205 0.111,-0.03 0.061,2.012 0.061,3.203 0.207,8.772 1.735,16.706 3.523,24.714 0.06,0.261 0.03,0.11 -0.14,-0.54 -0.79,-3.153 -1.501,-6.046 -2.322,-11.632 -0.541,-3.684 -0.79,-7.037 -0.77,-6.076 0.31,3.434 0.82,7.147 1.501,10.871 2.012,11.011 5.876,22.392 10.98,32.091 2.072,3.914 -0.31,-0.82 -0.79,-1.841 -0.26,-0.571 -0.601,-1.222 -0.911,-1.962 2.394,5.31 5.894,10.864 8.938,15.745l-3.984 -6.176c3.274,5.566 8.348,12.833 13.653,18.548 0.31,0.31 0.31,0.341 0.14,0.11 -2.182,-2.472 -4.514,-5.135 -6.526,-7.918l-0.991 -1.451c0.17,0.2 1.161,1.592 2.693,3.543 4.964,6.186 11.12,12.623 17.246,17.568l-1.362 -0.961c2.984,2.662 7.998,6.356 12.172,8.999 9.119,5.785 18.487,10.249 29.287,13.363 -5.785,-1.712 -10.84,-3.704 -15.955,-6.186 -1.021,-0.481 -0.711,-0.371 1.472,0.62 8.629,3.905 12.187,4.777 21.079,7.177l-1.622 -0.31 5.275 1.221 -1.471 -0.4c7.042,1.38 9.219,1.61 15.575,2.242 -4.254,-0.231 -10.21,-1.051 -14.103,-1.842 6.045,1.301 14.353,2.302 21.05,2.302l-6.947 -0.4c0,0 13.762,1.248 28.807,-1.471 0,-0.121 0,-0.241 0,-0.361 -2.572,0.43 -5.135,0.781 -7.467,1.011 -3.633,0.37 -5.565,0.43 -3.033,0.26 3.393,-0.26 6.947,-0.7 10.5,-1.311 0,-0.08 0,-0.17 0,-0.25 -7.357,1.271 -14.824,1.832 -22.301,1.652 7.587,0.15 15.074,-0.451 22.301,-1.722 0,-0.05 0,-0.09 0,-0.14 -7.077,1.221 -14.394,1.802 -21.65,1.691 7.773,-0.085 13.869,-0.432 21.65,-1.792 0,-0.16 0,-0.33 0,-0.49 -15.643,2.777 -31.5,2.228 -46.924,-1.461l0 -0.03c8.628,2.042 16.286,3.003 25.114,3.123 -13.627,-0.441 -26.804,-2.727 -39.717,-7.687 -12.793,-4.935 -25.284,-12.713 -35.664,-22.272 -26.865,-24.774 -40.007,-60.58 -36.124,-96.275 1.962,-17.807 7.928,-34.463 17.236,-49.018l-2.272 0.761c-1.351,2.202 -2.632,4.464 -3.834,6.736 -1.171,1.702 -2.312,3.444 -3.433,5.256l0 -0.002zm7.076 -11.941l-1.711 2.852c0.58,-0.99 1.151,-1.942 1.711,-2.853l0 0.001zm-31.449 27.857c-0.344,0.88 -3.333,9.612 -3.203,10.561l1.641 -5.816c0.851,-2.753 1.762,-5.245 1.562,-4.735l0 -0.01zm-4.114 -4.024c1.412,-3.924 3.624,-8.889 6.016,-13.593 -0.781,0.528 -7.299,15.774 -7.347,16.826 0.04,0.16 0.069,0.31 0.11,0.471 0.05,-0.14 0.09,-0.28 0.14,-0.41 3.093,-8.489 -0.911,2.212 1.081,-3.294l0 0zm96.421 225.582c1.151,0.16 2.412,0.33 3.823,0.5l-3.823 -0.5zm-72.638 -192.289l0 0zm79.264 103.512c0.37,0.12 0.56,0.17 0.6,0.18l-0.6 -0.18zm-79.465 -101.25l0.2 -2.252 -0.2 2.262 0 -0.01zm48.426 83.302l0 0zm32.12 25.325l-3.403 -0.751c0.66,0.181 2.042,0.471 3.403,0.751zm-73.629 -114.453c0,0.14 -0.02,0.291 -0.03,0.431l0.02 -0.431 0.01 0zm3.733 65.284l0 0zm16.726 35.505c-35.307,-30.054 -47.83,-78.891 -32.38,-121.819l-1.021 2.722c-0.2,0.451 0.26,-1.111 -0.17,0.14 -8.359,24.43 -7.069,51.54 1.932,74.924 -7.37,-18.956 -9.738,-41.186 -5.586,-61.24l1.221 -5.506c-0.62,2.182 -1.672,6.587 -0.74,1.812 -10.52,45.999 9.446,94.254 49.506,119.098 10.62,6.586 22.416,11.497 34.703,14.243 -0.371,-0.09 0.51,0.09 1.931,0.371 3.343,0.68 6.607,1.161 9.93,1.561 0.961,0.111 1.081,0.14 -0.341,0 15.045,1.742 30.189,0.281 44.212,-3.863 0,-0.231 0,-0.451 0,-0.691 -35.814,10.65 -74.51,2.652 -103.187,-21.752l-0.01 0zm-36.034 -58.988c-2.549,-11.613 -3.999,-24.823 -2.242,-38.387 0.09,-0.681 0.03,0.03 -0.14,1.531 -0.41,4.105 -0.571,7.918 -0.551,11.902 0,-1.591 0.03,-2.993 0.101,-4.715 0.06,-1.161 0.06,-0.74 0,0.711 -0.311,9.68 0.68,19.89 2.923,29.279l-0.091 -0.321zm5.225 17.077c-0.24,-0.59 -0.46,-1.191 -0.691,-1.791 0.561,1.431 1.141,2.852 1.742,4.254l-1.051 -2.473 0 0.01zm-8.108 -38.678c0,-0.19 -0.009,-0.38 -0.02,-0.561l0.01 0.571 0.01 -0.01zm21.811 2.743c0.05,0.521 0.1,1.001 0.14,1.401 -0.05,-0.47 -0.09,-0.931 -0.14,-1.401zm67.113 94.813c0.891,0.26 1.792,0.521 2.712,0.771 -0.92,-0.241 -1.811,-0.511 -2.712,-0.771zm-66.733 -52.472c-0.25,-0.42 -0.25,-0.4 0,0zm4.384 -79.207c-0.029,0.11 -0.06,0.21 -0.1,0.32l0.451 -1.341 -0.351 1.021zm111.595 101.259c-0.06,0.03 -0.11,0.06 -0.17,0.06 0,0 0.09,0 0.17,-0.06zm3.904 -1.471c-0.25,0.1 -0.51,0.2 -0.761,0.3 0.25,-0.09 0.501,-0.19 0.761,-0.3zm1.051 -0.431c-0.361,0.16 -0.711,0.301 -1.051,0.441 0.35,-0.14 0.701,-0.29 1.051,-0.441zm-101.886 -96.014c-0.03,0.09 -0.06,0.17 -0.09,0.26 0.05,-0.13 0.09,-0.25 0.14,-0.38l-0.05 0.12zm97.011 97.896c1.061,-0.37 2.062,-0.75 3.063,-1.141l-3.063 1.141zm-54.351 -0.26l0 0zm33.412 -43.153c0.09,-0.02 0.18,-0.04 0.27,-0.05 -0.211,0.04 -0.421,0.071 -0.641,0.101 0.121,-0.02 0.25,-0.04 0.371,-0.05l0 -0.001zm-117.311 -23.703c0,0.21 0.01,0.411 0.02,0.631 0,0 0,-0.24 -0.02,-0.631zm41.159 -55.374c0.06,-0.091 0.13,-0.191 0.2,-0.321 -0.06,0.1 -0.14,0.211 -0.2,0.321zm6.186 -14.274l0 0zm-20.409 53.312l0 0zm6.476 -33.913c-0.361,0.67 -0.721,1.341 -1.041,1.992l1.041 -1.992zm90.535 175.062c0.1,0 0.08,0 0,0zm-31.94 63.622l-4.454 -0.471c1.531,0.18 3.003,0.331 4.454,0.471zm-62.068 -16.486c0.41,0.19 0.4,0.18 0,0zm88.653 -13.183l-13.473 -0.791c-12.538,-1.18 -24.831,-3.794 -36.634,-7.547 -6.789,-2.159 -16.675,-6.085 -23.202,-9.329 -11.315,-5.622 -22.509,-12.962 -33.051,-21.62 15.067,12.332 29.74,21.402 48.265,28.738 5.275,2.101 11.041,4.003 16.996,5.645 -9.339,-2.613 -18.387,-6.016 -27.015,-10.16 -1.532,-0.74 -1.051,-0.54 2.242,0.991 11.346,5.181 19.612,7.683 32.18,10.921l-2.492 -0.511c2.152,0.541 5.565,1.361 8.087,1.842l-2.272 -0.571c9.63,1.923 13.848,2.521 23.752,3.444 -6.586,-0.401 -15.464,-1.622 -21.48,-2.863 9.799,2.056 22.045,3.409 32.06,3.493 4.084,0.03 -3.493,-0.139 -4.204,-0.17l-6.386 -0.4c12.008,0.632 21.335,0.73 34.011,-0.751 -0.019,-0.14 -0.04,-0.27 -0.06,-0.411 -2.122,0.241 -4.234,0.461 -6.335,0.621l6.326 -0.661c-0.01,-0.08 -0.02,-0.15 -0.03,-0.231 -7.958,0.912 -15.975,1.272 -24.033,1.082 8.068,0.18 16.095,-0.211 24.023,-1.131 0,-0.05 -0.01,-0.101 -0.02,-0.151 -7.788,0.871 -14.824,1.272 -23.042,1.162 8.259,-0.119 14.718,-0.304 23.022,-1.272 -0.02,-0.15 -0.04,-0.3 -0.07,-0.44 -8.968,1.031 -18.217,1.401 -27.155,1.061l-0.01 0.01zm-63.25 13.673c0.571,0.181 0.681,0.211 0.721,0.221l-2.342 -0.731c0.75,0.24 1.271,0.4 1.621,0.521l0 -0.011zm88.243 2.042l4.384 -0.881c0,0 0,-0.02 0,-0.02l-4.864 0.991 0.48 -0.09zm-73.229 -0.73l4.705 1.041 -4.715 -1.042 0.01 0.001zm-40.417 -1.802c-0.211,-0.101 -0.541,-0.25 -1.002,-0.471l1.002 0.471zm117.58 19.009c-0.921,0.17 -1.842,0.35 -2.773,0.51 0.951,-0.17 1.862,-0.34 2.773,-0.51zm-163.764 -248.925l-0.06 0.03 0 0.03 -0.03 0.001 0 0.029 -0.02 0 0.23 1.242c0.24,-0.671 0.501,-1.342 0.751,-2.012 -0.311,0.23 -0.611,0.47 -0.881,0.691l0.01 -0.011zm16.195 54.604c0,0.851 0.01,1.762 0.041,2.793 -0.021,-0.952 -0.03,-1.872 -0.041,-2.793zm50.107 187.734l2.243 0.701 -4.304 -1.362c0.68,0.231 1.371,0.441 2.061,0.671l0 -0.01zm11.321 3.994c-0.26,-0.07 -0.511,-0.14 -0.771,-0.21 0.301,0.08 0.561,0.15 0.771,0.21zm84.139 -1.992c1.101,-0.2 2.622,-0.501 4.214,-0.841l-5.095 1.001c0.29,-0.05 0.591,-0.1 0.881,-0.16zm-14.383 -66.735c1.371,-0.281 3.192,-0.631 4.995,-1.011 -3.584,0.751 -7.708,1.421 -10.701,1.751l-6.866 0.711c-9.729,0.601 -17.646,0.23 -26.985,-1.161 -0.281,-0.03 -0.11,-0.03 0.62,0.09 3.822,0.565 12.242,1.414 17.957,1.281 1.281,0 1.901,-0.029 1.391,-0.029 -14.923,0.12 -29.247,-2.346 -43.121,-7.348 11.924,4.581 24.962,7.691 38.277,8.519 10.842,0.675 25.402,-1.35 35.694,-4.044 0,-0.39 -0.02,-0.79 -0.02,-1.171 -2.353,0.711 -7.748,1.852 -9.109,2.092 -1.792,0.31 -2.863,0.481 -2.132,0.341l0 -0.021zm-53.761 -11.922c0.471,0.14 0.941,0.29 1.411,0.431l-1.411 -0.431zm21.03 12.703l-2.622 -0.281c0.89,0.101 1.771,0.19 2.622,0.281zm-54.662 -33.143c0,0 0.091,0.06 0.131,0.09l-3.173 -2.432c1.001,0.79 2.012,1.561 3.042,2.332l0 0.01zm46.844 20.871c1.702,0.3 3.244,0.54 4.635,0.73l-4.635 -0.73zm45.543 10.47c0.391,-0.081 0.771,-0.171 1.151,-0.25 -0.38,0.08 -0.76,0.17 -1.151,0.25zm-62.829 1.411c0.641,0.2 1.291,0.4 1.932,0.591l-1.932 -0.591zm-15.765 -177.474l2.863 -2.893 -2.873 2.893 0.01 0zm81.057 175.512c0.46,-0.11 0.91,-0.22 1.331,-0.33 -0.421,0.11 -0.871,0.22 -1.331,0.33zm-1.312 0.301c0.211,-0.05 0.411,-0.091 0.621,-0.14 -0.2,0.049 -0.411,0.09 -0.621,0.14zm0.621 -0.141c0.24,-0.05 0.47,-0.11 0.7,-0.16 -0.23,0.05 -0.46,0.11 -0.7,0.16zm-89.124 -189.366l0.881 -0.891c-0.871,0.851 -0.871,0.861 -0.881,0.891zm-10.4 81.02c-0.04,-0.15 -0.07,-0.29 -0.1,-0.441 0.14,0.681 0.07,0.391 0.1,0.441zm73.289 35.595l0 0zm21.18 -96.255c-0.811,-0.35 -1.632,-0.68 -2.482,-1.001l2.482 1.001zm-29.077 95.224c-0.601,-0.11 -1.201,-0.22 -1.832,-0.341 0.661,0.131 1.261,0.241 1.832,0.341zm45.092 -83.172c-2.51,-2.917 -5.36,-5.25 -8.789,-7.577l-2.782 -1.672c-1.502,-0.791 -2.783,-1.502 -1.642,-0.941 -6.744,-3.446 -15.278,-5.844 -22.841,-5.585l3.714 0.2c-11.653,-0.708 -22.288,2.09 -31.921,8.818 0,0 -1.489,0.729 -4.504,3.494 -22.094,20.259 -21.673,54.166 0.48,73.662 2.719,2.393 7.55,5.583 10.891,7.207 4.204,2.012 8.508,3.494 14.213,4.315 -0.09,0.11 3.293,0.43 3.634,0.45 5.322,0.306 10.796,0.001 16.004,-1.441 1.963,-0.601 -4.824,0.941 -0.54,-0.03 3.028,-0.697 6.617,-2.091 9.499,-3.513 0.991,-0.511 -1.471,0.65 0.14,-0.2l3.713 -2.102 0.03 0.029c1.672,-1.051 2.663,-1.792 4.204,-2.923 -2.322,1.642 -3.293,2.322 -5.905,3.774 -3.524,1.972 -9.544,4.405 -13.363,4.915l3.573 -0.931c-3.653,1.051 -6.425,1.432 -10.299,1.812 1.081,-0.03 -0.601,0.14 -0.821,0.14l-2.573 0c-5.371,-0.192 -8.503,-0.251 -14.494,-2.192 -5.244,-1.702 -8.598,-3.263 -13.282,-6.437 -12.684,-8.604 -20.653,-23.764 -20.799,-39.159 -0.194,-20.414 11.966,-38.512 30.929,-45.905 23.521,-9.169 50.11,1.176 61.287,24.174 0.05,-0.391 0.09,-0.771 0.14,-1.161 -0.247,-1.439 -6.647,-10.568 -7.896,-11.221zm-37.505 82.431l0 0zm-46.393 -38.508l0.06 0.341 -0.341 -1.592 0.281 1.251zm12.651 25.856c0.281,0.28 0.691,0.651 1.152,1.061l-1.672 -1.612 0.52 0.551zm20.299 -83.743l0 0zm30.999 105.024c-7.724,2.036 -16.909,2.925 -24.773,1.501 -5.129,-0.929 -8.887,-1.813 -13.412,-3.643l0.54 0.17 -7.977 -3.794 0.59 0.371c-6.559,-3.555 -14.091,-9.671 -19.148,-16.827 -0.57,-0.821 -1.131,-1.622 -1.111,-1.592 -9.138,-13.303 -12.512,-29.479 -9.389,-45.314l-0.43 2.522 1.961 -8.538 -0.6 1.952c1.962,-7.207 5.165,-13.874 9.479,-19.779l-0.991 1.501 4.595 -5.956c0,0 -0.031,0.061 -0.031,0.091 2.322,-2.652 4.854,-5.083 7.858,-7.438 -1.331,1.081 -2.662,2.182 -3.884,3.343 4.965,-4.594 10.61,-8.368 16.826,-11.071l-0.651 0.311c14.125,-6.313 29.618,-7.06 44.493,-1.852 7.664,2.683 14.231,6.769 20.339,12.092 0.34,0.31 1.131,1.051 1.421,1.301 -1.812,-1.731 -2.833,-2.692 -4.795,-4.254l1.702 1.331 0 0.03 5.595 4.995c-3.248,-3.319 -4.229,-4.341 -8.148,-7.347 2.353,1.762 3.374,2.582 5.476,4.545 -0.03,-0.03 -0.911,-0.911 -0.431,-0.481 -19.336,-18.345 -49.287,-21.34 -72.178,-7.748 -4.321,2.566 -8.711,5.936 -12.451,9.91 -1.051,1.131 -2.923,3.153 -3.744,4.254l2.663 -3.043c0.961,-0.991 1.502,-1.562 0.26,-0.2 -3.573,3.769 -7.084,8.562 -9.419,13.143 -1.471,2.893 -1.301,2.693 -0.96,1.982 0.37,-0.68 0.96,-1.812 0.45,-0.791 -1.872,3.744 -3.543,8.118 -4.564,12.513 0.4,-1.562 1.391,-4.625 1.021,-3.434 -3.584,11.852 -3.473,24.222 0.19,36.006 1.51,4.856 3.011,7.975 5.495,12.242l-1.01 -1.882c0.96,1.782 2.042,3.554 3.163,5.245 -0.081,-0.11 -0.151,-0.21 -0.241,-0.34l0.481 0.671c8.285,11.633 17.516,18.214 30.829,23.033 1.502,0.57 2.582,0.79 2.102,0.62 4.756,1.36 11.898,2.673 16.915,2.433 -2.832,-0.012 -7.523,-0.362 -10.581,-0.992 6.116,1.081 12.422,1.191 18.558,0.39l-9.199 0.55c5.846,0.231 13.443,-0.778 19.068,-2.653 -0.52,0.171 -0.991,0.301 -1.331,0.391 4.233,-1.314 8.705,-3.108 12.602,-5.315 -0.27,0.15 -0.541,0.3 -0.811,0.45 1.141,-0.62 2.282,-1.281 3.413,-1.971 0.02,-0.251 0.05,-0.501 0.08,-0.751 -4.772,3.02 -10.34,5.591 -15.905,7.077l0 0.04zm21.05 -104.783l0 0zm-5.125 -3.924c0.451,0.28 2.443,1.501 2.583,1.702l-4.084 -2.583c-1.932,-1.051 -0.28,-0.28 1.501,0.881zm-59.786 -2.553c0.681,-0.34 1.531,-0.77 1.361,-0.68l0 0.03c-0.23,0.11 -1.391,0.68 -1.731,0.851l0.37 -0.201zm-6.386 3.804l2.072 -1.302 -5.765 4.105c0.25,-0.221 1.641,-1.312 1.481,-1.182l2.212 -1.621zm-13.482 13.824c0.33,-0.441 0.68,-0.881 1.031,-1.332 -0.331,0.4 -0.681,0.871 -1.031,1.332zm-7.057 10.46c1.279,-2.856 3.396,-6.567 5.365,-9.229 -3.173,4.504 -5.645,9.379 -7.487,14.424 0.371,-1.221 1.531,-3.884 2.132,-5.196l-0.01 0.001zm0.881 52.892l-1.431 -3.053c0.581,1.281 1.181,2.582 1.841,3.823l-0.41 -0.77zm26.274 25.705c-1.221,-0.62 1.021,0.451 2.012,0.961 -0.09,-0.03 -1.841,-0.881 -2.012,-0.961zm37.426 6.546c-0.401,0.07 -0.801,0.131 -1.202,0.191 0.401,-0.06 0.801,-0.131 1.202,-0.191zm4.874 -0.95c-0.18,0.06 -1.151,0.27 -2.462,0.52l2.462 -0.52zm0.551 -0.211l0 0zm1.331 -113.501l0.25 0.08 -0.25 -0.06 0 -0.02zm-1.782 101.259l0 0zm18.117 -5.385c-0.4,0.31 -0.791,0.64 -1.191,0.951 0.33,-0.26 0.741,-0.581 1.191,-0.951zm-18.117 5.385l0 0zm6.176 7.257c-29.234,11.257 -61.531,-2.322 -73.779,-30.85 -12.693,-29.562 1.365,-63.726 31.099,-75.844 10.6,-4.32 23.168,-5.506 34.302,-2.843l3.974 1.011 -2.582 -0.781c3.121,0.671 8.424,2.6 11.74,4.354 -3.286,-1.66 -5.373,-2.436 -8.898,-3.503 9.425,2.851 18.333,8.257 25.484,15.885 -1.982,-2.182 -0.311,-0.54 -0.991,-1.281 -8.658,-9.477 -22.521,-15.755 -35.263,-17.117 10.534,1.023 21.468,5.404 29.848,12.112l2.272 1.872c-1.451,-1.332 -2.272,-2.182 -0.6,-0.881 -15.431,-13.083 -36.288,-16.983 -55.563,-10.861 -8.101,2.574 -12.293,5.382 -18.417,9.93 -3.156,2.344 -5.573,5.109 -8.168,7.998l-2.352 3.033c-0.991,1.451 -1.872,2.692 -1.531,2.152 -4.891,7.472 -8.008,15.642 -9.159,24.434l0.621 -3.233 -0.43 2.353c-1.905,12.235 0.453,25.752 6.556,36.516l-1.221 -2.072c5.73,12.164 18.068,23.296 30.469,28.057 4.643,1.783 9.053,2.99 13.933,3.654 14.045,1.91 28.068,-1.501 39.847,-9.23 0.03,-0.26 0.06,-0.54 0.081,-0.81 -3.635,2.478 -7.276,4.367 -11.281,5.925l0.009 0.02zm7.237 -103.622c-0.16,-0.09 -0.31,-0.17 -0.46,-0.25l0.46 0.25zm4.224 2.473c0.31,0.231 -0.03,0 -0.651,-0.43l-6.986 -3.884c2.652,1.221 5.354,2.683 7.637,4.304l0 0.01zm-25.965 105.374l0 0zm0.191 -29.139c-0.06,0.02 -0.131,0.03 -0.191,0.05 0.07,-0.02 0.131,-0.03 0.191,-0.05zm3.163 -0.931c0.31,-0.09 0.801,-0.28 1.061,-0.4l-1.072 0.39 0.011 0.01zm6.336 -3.173c-0.101,0.06 -0.191,0.12 -0.291,0.19 0.101,-0.06 0.191,-0.12 0.291,-0.19zm-10.4 4.304c-0.35,0.07 -0.701,0.14 -1.061,0.2 0.36,-0.06 0.72,-0.13 1.061,-0.2zm10.42 -4.314c0,0 -0.01,0 -0.02,0.01 0,0 0.01,0 0.02,-0.01zm-9.719 4.164c-0.231,0.05 -0.461,0.11 -0.701,0.16 0.23,-0.05 0.471,-0.1 0.701,-0.16zm-7.678 22.182l-2.342 -0.121 2.332 0.111 0.01 0.01zm23.672 -98.127l2.032 0.991c-0.66,-0.34 -1.341,-0.671 -2.032,-0.991zm-6.476 96.335l0 0zm-64.24 -81.44c-0.09,0.14 -0.17,0.26 -0.2,0.34 0.06,-0.11 0.14,-0.23 0.2,-0.34zm65.742 55.985c0.09,-0.09 0.17,-0.14 0.26,-0.2 -0.531,0.391 -1.051,0.761 -1.562,1.101 0.451,-0.3 0.891,-0.601 1.302,-0.911l0 0.01zm23.702 -55.845c0.08,0.101 0.28,0.361 0.44,0.531 -1.871,-3.136 -7.362,-8.264 -10.53,-10.441l-0.911 -0.6c0.06,0.09 0.771,0.57 -0.48,-0.261 -4.023,-2.638 -6.813,-4.27 -11.491,-5.985l4.234 1.701c-7.133,-3.454 -14.817,-5.125 -22.902,-5.074 3.049,0 7.713,0.435 10.3,0.971 -0.828,0.356 -19.899,-5.235 -39.667,8.478 -0.651,0.431 0.06,-0.06 0.23,-0.23 -2.833,2.072 -4.003,2.983 -6.586,5.395 -1.361,1.281 3.153,-3.233 -1.331,1.131 0.28,-0.28 0.54,-0.57 0.821,-0.85 -4.109,3.962 -5.939,6.552 -8.799,11.351 2.449,-4.166 6.101,-8.714 7.948,-10.38l-4.485 5.395c-4.592,6.138 -8.545,14.421 -9.709,22.332l-0.4 4.344 0.17 -2.862c-0.864,5.177 -0.441,12.539 0.68,17.767 0.57,2.613 0.851,3.864 0.06,0.621l-1.021 -6.387c0.077,2.974 1.346,8.481 2.333,11.491 1.021,3.093 1.841,5.166 3.323,7.978l-0.711 -1.731 4.034 7.147c-0.961,-1.452 -1.591,-2.353 -1.872,-2.833 2.497,4.388 2.923,4.225 2.923,4.225 2.773,3.587 5.613,6.819 9.019,9.559 1.25,1.051 -0.711,-0.451 -0.651,-0.4 0.57,0.65 3.803,3.003 4.824,3.663 4.949,3.176 9.356,5.327 15.205,6.817 -2.783,-0.741 -5.956,-1.902 -8.458,-3.173 -0.431,-0.26 -0.281,-0.2 0.68,0.26 3.9,1.789 5.938,2.268 9.73,3.324l-0.941 -0.171 2.412 0.571c-1.812,-0.51 0.48,0 0.991,0.09l5.385 0.681c-1.221,0.06 -4.764,-0.451 -6.386,-0.791l8.428 1.081 -0.63 -0.17c5.201,0.341 12.524,-0.514 17.646,-2.302l-3.974 0.961 3.013 -0.821c-2.833,0.711 -5.645,1.251 -8.488,1.501 -1.642,0.14 -2.492,0.171 -1.361,0.091 2.037,-0.148 9.13,-1.106 10.67,-1.952 -1.812,0.48 0.51,-0.2 0.71,-0.281l-1.281 0.251c-4.994,1.361 -9.528,1.982 -14.783,1.901 5.82,0.101 11.159,-0.844 16.405,-2.582 -0.16,0.03 -1.622,0.52 -4.344,1.131 -4.084,0.941 -8.148,1.361 -12.432,1.281 6.298,-0.15 12.103,-0.798 18.077,-3.032l2.613 -1.162 -4.064 1.391c-4.892,1.002 -6.942,1.896 -12.912,2.243 -5.396,0.313 -9.793,-0.201 -14.984,-1.332l0 -0.03c2.804,0.764 5.671,1.055 8.498,1.202 -6.997,-0.598 -14.676,-2.423 -20.62,-5.816 -7.223,-4.123 -12.693,-8.674 -17.696,-15.915 -7.822,-11.321 -10.379,-24.196 -8.278,-37.537 1.471,-9.389 6.326,-19.149 12.792,-25.906l-3.123 3.804c-1.021,1.361 -1.901,2.553 -2.642,3.864 4.136,-6.028 7.989,-10.589 14.503,-15.125 2.472,-1.702 5.075,-3.173 7.777,-4.394l-3.493 1.902c12.398,-6.808 27.422,-8.442 40.678,-3.474 0.911,0.341 1.742,0.661 2.543,0.981 -2.733,-1.041 -5.195,-1.852 -8.248,-2.512 -0.541,-0.09 -0.571,-0.09 0.11,0.06l3.173 0.821c1.081,0.37 1.702,0.571 0.23,0.11 -1.791,-0.57 -5.845,-1.471 -7.657,-1.702 -0.541,-0.09 -0.851,-0.11 -0.821,-0.14 -5.64,-0.614 -11.193,-0.343 -17.066,0.941l2.973 -0.46c-13.464,2.313 -26.724,10.57 -34.072,22.212l-0.491 0.821c1.732,-2.553 2.723,-4.034 4.795,-6.417 2.154,-2.443 -3.49,3.78 -6.436,9.28 -0.23,0.43 -0.14,0.28 0.62,-1.082 -4.864,8.992 -7.029,17.545 -6.496,27.918l0.711 6.216c0.85,4.764 2.321,9.309 4.483,13.563 0.571,1.131 0.711,1.422 0.141,0.26 -1.112,-2.232 -2.133,-4.734 -2.913,-7.207 2.176,6.578 5.145,11.67 9.409,16.917 0.34,0.431 0.45,0.571 0.2,0.261 -0.451,-0.401 -2.723,-3.464 -3.373,-4.395 -1.88,-2.756 -2.563,-4.587 -3.864,-6.746 2.487,5.227 5.813,10.121 9.9,14.063l-1.952 -2.082c2.984,3.163 5.554,5.596 10.33,8.779 -0.281,-0.17 -0.851,-0.57 -1.562,-1.021l0 -0.03c-1.251,-0.771 -3.573,-2.633 -5.145,-4.014 4.254,4.09 11.534,8.348 17.266,10.26l1.592 0.541c-0.34,-0.14 -0.911,-0.281 -1.672,-0.601 5.216,1.842 9.053,2.498 14.244,2.823 0.881,0.06 0.651,0.06 -0.14,0 -2.522,-0.13 -4.174,-0.31 -6.286,-0.68 4.568,0.811 7.928,0.931 12.381,0.69l-1.801 0.13c1.671,-0.03 3.403,-0.17 4.884,-0.37l-0.74 0.06 6.606 -1.252c-3.603,0.821 -6.587,1.302 -10.21,1.422 4.944,-0.231 8.584,-0.971 13.313,-2.413l-2.423 0.611 3.413 -1.061c0.791,-0.281 1.812,-0.711 1.472,-0.621l-2.823 0.961c0.66,-0.21 1.802,-0.601 3.333,-1.191l-7.237 2.102c1.702,-0.43 3.323,-0.961 5.135,-1.562l-2.072 0.571c-0.811,0.25 -1.331,0.39 -1.641,0.46 0.3,-0.09 0.63,-0.19 0.33,-0.12 -7.947,2.042 -15.865,2.242 -23.863,0.4 -6.436,-1.451 -12.601,-4.204 -17.956,-8.028 -8.538,-6.156 -15.064,-15.034 -18.328,-25.085 -2.031,-6.917 -2.637,-12.295 -2.271,-18.217l0.029 -1.472c0.649,-10.444 6.076,-19.899 6.076,-19.899 6.564,-11.888 17.935,-20.64 31.069,-24.034l-1.701 0.53c9.203,-2.606 16.59,-2.704 25.514,-0.79l-4.454 -0.771 6.125 1.282c2.07,0.445 6.124,1.901 8.398,3.032l-1.461 -0.59c4.304,1.841 8.177,4.174 12.021,7.367l-2.132 -1.642c6.01,4.597 10.473,9.64 14.123,16.517 0.05,-0.441 0.101,-0.881 0.151,-1.332 -1.972,-3.553 -4.354,-6.866 -7.247,-10 -4.056,-4.363 -8.919,-8.068 -14.264,-10.78 9.074,4.275 16.647,11.541 21.571,20.28 0.1,-0.831 0.19,-1.662 0.29,-2.492l-3.303 -4.765 0.051 -0.093zm-37.195 82.691c0.12,0 0.22,-0.019 0.3,-0.029l-0.3 0.01 0 0.019zm11.221 -2.622l1.531 -0.51c0,0 -0.451,0.17 -0.991,0.34l0.03 0c-0.541,0.17 -1.111,0.37 -1.331,0.43l0.77 -0.26 -0.009 0zm-3.634 1.081c0.11,-0.03 0,0 0,0zm-2.632 0.45c-0.281,0.091 -0.681,0.141 -1.082,0.231l0 -0.03 -0.79 0.09 1.872 -0.28 0 -0.011zm-1.562 0.491c0.201,-0.03 0.03,0 -0.28,0.06 -1.051,0.14 -0.43,0 0.28,-0.06zm-3.403 0.28l0 0zm-3.013 0.37l0 0zm-39.266 -17.477c0.2,0.241 0.44,0.531 0.64,0.761 -0.2,-0.22 -0.471,-0.52 -0.751,-0.841l0.111 0.09 0 -0.01zm2.552 -68.727l0.771 -0.771 0.029 0.03 -0.8 0.741zm29.768 -14.414l6.556 -0.341c-2.212,-0.03 -4.374,0.09 -6.556,0.341zm7.377 -0.31c2.238,0 5.945,0.367 8.288,0.91 -2.613,-0.51 -5.586,-0.85 -8.288,-0.91zm19.628 4.534c0.14,0.029 1.672,0.77 1.472,0.711 -0.231,-0.091 -1.502,-0.741 -1.472,-0.711zm3.523 1.732l1.762 1.051 -3.803 -2.102 2.041 1.051zm-39.517 -3.154l0 0zm54.131 -5.525l0 0zm-65.912 -0.541l2.243 -1.071 -2.243 1.082 0 -0.011zm59.817 -3.443l-2.343 -1.261 2.343 1.251 0 0.01zm0.39 0.21l-0.39 -0.21c0.66,0.38 1.301,0.761 1.931,1.151 -0.58,-0.37 -1.131,-0.711 -1.541,-0.941l0 0zm-95.34 68.868c0.03,0.15 0.06,0.29 0.09,0.42 -0.04,-0.15 -0.06,-0.28 -0.09,-0.42zm87.282 -71.19l1.192 0.54c-0.421,-0.19 -0.811,-0.37 -1.192,-0.54zm-94.999 41.511c-0.03,0.14 -0.06,0.27 -0.08,0.39 0.02,-0.12 0.05,-0.26 0.08,-0.39zm99.874 82.341c0.13,-0.061 0.27,-0.13 0.4,-0.191 0,-0.02 0,-0.04 0,-0.06 -0.581,0.281 -1.021,0.491 -1.341,0.621l0.941 -0.37zm-89.705 -85.925c0,0 0.02,-0.05 0.03,-0.08l-0.03 0.08zm88.464 -37.897l1.691 0.831c-0.481,-0.25 -1.061,-0.531 -1.691,-0.831zm-95.06 82.731c0.351,0.961 0.711,1.913 1.081,2.813l-1.081 -2.813zm3.344 10.511l-0.381 -0.661c0.081,0.16 0.291,0.521 0.381,0.661zm101.845 -87.176l2.613 2.022c-0.861,-0.731 -1.351,-1.081 -2.613,-2.022zm-19.158 110.008c0.22,-0.08 0.431,-0.17 0.651,-0.26 -0.53,0.19 -1.081,0.39 -1.622,0.57 0.321,-0.1 0.631,-0.2 0.971,-0.31zm2.813 -1.081l0.32 -0.15c-0.81,0.34 -1.641,0.66 -2.482,0.971l2.162 -0.821zm1.782 -0.811l-1.462 0.661c0.501,-0.21 0.981,-0.44 1.462,-0.661zm-76.262 -23.783l0 0zm72.868 28.918c-0.1,0.04 -0.19,0.07 -0.29,0.111 0,0 0.121,-0.041 0.29,-0.111zm-2.162 -2.932c-0.37,0.12 -0.72,0.24 -1.05,0.35 0.33,-0.11 0.68,-0.22 1.05,-0.35zm-10.189 5.104c-2.046,0.499 -8.242,0.678 -10.64,0.601 -0.941,-0.06 -0.851,-0.06 -0.511,-0.06 2.693,0.03 -0.34,-0.03 -1.561,-0.14 -2.443,-0.17 -4.344,-0.341 -6.637,-0.741l-1.811 -0.26c-13.651,-2.473 -24.223,-10.44 -24.223,-10.44 -13.543,-9.59 -22.761,-24.354 -25.604,-40.62 0.08,0.43 0.16,0.86 0.26,1.331 -2.177,-10.591 -1.314,-21.105 1.662,-30.84 -0.29,0.971 -0.551,1.962 -0.831,3.053 0.561,-2.112 0.931,-3.523 1.622,-5.476 -0.081,0.231 -0.171,0.451 -0.241,0.681l0.261 -0.751c1.51,-3.893 3.251,-8.186 5.846,-12.182 -1.021,1.672 -1.792,3.033 -2.613,4.765 2.983,-5.816 6.416,-10.871 11.321,-15.806 -0.371,0.371 -0.711,0.771 -1.082,1.131 11.753,-12.183 25.706,-18.739 43.071,-19.829 8.641,-0.543 18.592,1.399 26.795,4.555 0.45,0.17 1.501,0.651 1.872,0.791l-7.317 -2.863c3.834,1.153 7.392,2.626 10.61,3.914 -4.581,-2.234 -6.1,-2.761 -10.78,-4.345 2.612,0.791 4.624,1.472 7.096,2.523 -0.029,-0.03 -1.251,-0.601 -0.6,-0.341 -16.807,-7.328 -36.327,-6.635 -53.06,1.552 -9.564,4.68 -19.123,12.729 -24.943,21.632l-1.972 3.133c16.184,-28.112 50.98,-39.148 80.586,-26.466l-3.744 -1.592c1.792,0.621 3.774,1.421 6.296,2.643 4.054,1.932 -0.881,-0.571 0.11,-0.231 2.184,0.916 7.261,3.902 9.088,5.105 1.592,1.052 -1.591,-1.221 -1.731,-1.301l-2.322 -1.502c0,0 -1.842,-1.081 -0.911,-0.62l3.153 1.702c-4.735,-3.1 -5.791,-4.06 -11.521,-6.387 1.261,0.431 3.423,1.372 5.215,2.212 -4.037,-1.974 -9.711,-4.05 -14.013,-4.965 1.761,0.311 -1.792,-0.45 -2.153,-0.45l-2.892 -0.541c-7.683,-1.325 -17.509,-0.838 -25.314,1.051 -6.606,1.592 -13.502,4.455 -19.178,7.998 -0.34,0.2 0.28,-0.2 0.681,-0.48 -4.83,2.61 -11.7,8.272 -15.205,12.522l0.061 0.06c-4.107,4.863 -6.717,8.365 -9.649,14.244 0.418,-1.392 3.277,-5.983 4.264,-7.437l-3.824 6.296c-3.838,7.241 -6.307,15.58 -7.176,23.693 0.529,-3.827 1.376,-8.768 2.582,-12.462 0.711,-2.132 0.341,-0.771 0.03,0.17 -2.29,6.949 -3.229,16.215 -2.752,23.603 0.607,9.406 3.334,18.964 7.767,26.866 0.48,0.881 -0.06,-0.06 -0.23,-0.31 2.189,3.746 3.111,5.384 5.815,8.969 1.391,1.872 -3.573,-4.374 1.251,1.812l-0.941 -1.131c3.81,4.916 7.295,8.336 12.282,12.062 -4.168,-3.177 -10.001,-8.883 -11.211,-10.871l0.261 0.26c1.982,2.302 3.433,3.884 5.785,6.096 5.291,4.974 11.624,9.269 18.608,12.322 4.771,2.086 7.765,2.91 13.282,3.994l-3.203 -0.56 7.977 1.471 2.953 0.2c2.863,0.311 7.808,0.231 10.981,-0.06 3.323,-0.4 4.934,-0.571 0.77,-0.03 -1.501,0.17 -5.815,0.401 -7.346,0.371 8.347,0.322 17.333,-1.613 25.143,-4.685l-2.583 0.851c3.272,-1.13 6.234,-2.569 8.959,-3.864 -1.932,0.991 -3.153,1.641 -3.804,1.902l4.254 -2.063c0.06,-0.64 0.11,-1.271 0.171,-1.892 -17.205,9.651 -38.656,10.889 -56.774,3.024 -8.057,-3.544 -14.754,-8.148 -20.54,-14.104l-2.662 -2.923 1.962 2.102 6.806 6.216c1.702,1.251 -0.31,-0.26 -1.791,-1.531 -5.943,-5.094 -11.398,-11.696 -15.154,-18.82 -1.872,-3.543 -3.173,-6.606 -4.424,-10.36l1.872 4.625c-6.698,-16.36 -6.575,-34.348 0.57,-49.969 0.911,-1.932 2.102,-4.264 3.333,-6.426 -2.172,4.034 -3.783,7.397 -5.265,11.811l0.691 -1.761c0.28,-0.741 0.601,-1.562 0.881,-2.242 0.601,-1.332 0.94,-2.072 0.14,-0.281 -0.541,1.211 -1.372,3.534 -2.072,5.666l0.06 -0.191 -1.441 4.946c-1.538,7.075 -2.08,13.872 -1.202,21.53l-0.2 -3.773c0.892,11.14 3.473,20.562 9.619,30.279 4.403,6.962 7.772,10.919 14.274,16.206l-5.636 -5.155c2.938,2.981 4.976,4.52 8.098,6.997l-0.17 -0.14c9.429,6.362 17.749,10.116 29.307,11.611 6.277,0.812 13.669,0.494 12.792,0.431 6.109,-0.393 11.909,-1.658 17.676,-3.714 1.502,-0.57 1.842,-0.711 0.341,-0.17 -4.346,1.57 -6.798,2.154 -11.211,3.013 6.947,-1.186 14.192,-3.916 20.159,-7.267 0.03,-0.321 0.06,-0.631 0.09,-0.951 -5.805,3.343 -12.141,5.775 -18.707,7.127l-4.034 0.651zm5.815 -124.162c0.06,0 0.2,0.03 0.511,0.11 -0.261,-0.06 -0.451,-0.11 -0.511,-0.11zm0.631 -0.2l0.77 0.231 -4.994 -1.112 4.224 0.881zm9.419 2.132l3.333 1.522 -3.704 -1.641c-0.26,-0.091 -0.17,-0.091 0.371,0.11l0 0.009zm-78.024 24.374l0.891 -1.241 -1.321 1.952c-0.06,0.06 0.11,-0.26 0.43,-0.711l0 0zm-10.62 35.836l0.481 -8.139c-0.34,2.723 -0.481,5.446 -0.481,8.148l0 -0.009zm0.741 -10.22l1.852 -8.148c-0.821,2.872 -1.531,6.116 -1.932,8.908 0.03,-0.23 0.061,-0.45 0.111,-0.77l-0.031 -0.001 0 0.011zm0.971 20.209c-0.09,-0.51 -0.19,-1.021 -0.26,-1.531 0.1,0.581 0.18,1.071 0.26,1.531zm11.43 28.338l0.371 0.49 -0.4 -0.49 0.029 0zm0.621 0.831c0,0 0.2,0.26 0.2,0.26l-0.2 -0.26zm3.093 3.653c-0.22,-0.24 -0.36,-0.4 -0.47,-0.52 0.58,0.641 1.171,1.281 1.791,1.912 -0.691,-0.721 -1.211,-1.251 -1.321,-1.392l0 0zm41.029 19.53l0 0zm29.397 -3.324c-1.001,0.391 -1.762,0.681 -2.152,0.831 3.672,-1.292 7.742,-3.135 10.229,-4.564 0,-0.03 0,-0.06 0,-0.09l-8.097 3.824 0.02 -0.001zm1.642 -4.484c0.18,-0.08 0.35,-0.17 0.52,-0.25 -0.31,0.15 -0.61,0.29 -0.92,0.431l0.4 -0.181zm2.202 -1.071c-0.531,0.28 -1.091,0.55 -1.672,0.821 0.561,-0.27 1.121,-0.541 1.672,-0.821zm1.251 -0.681c-0.42,0.23 -0.831,0.461 -1.261,0.671 0.42,-0.22 0.841,-0.451 1.261,-0.671z"/>
   </g>
  </g>
  <path fill="none" d="M136.796 295.988c2.461,-0.097 4.626,-0.225 7.017,-0.355 2.39,-0.131 5.006,-0.265 8.261,-0.493 3.256,-0.228 7.151,-0.55 10.471,-0.852 3.319,-0.302 6.061,-0.583 8.794,-0.949 2.732,-0.365 5.455,-0.814 7.654,-1.25 2.2,-0.436 3.876,-0.858 6.001,-1.331 2.126,-0.473 4.701,-0.996 6.595,-1.321 1.894,-0.325 3.108,-0.453 4.268,-0.536 1.16,-0.084 2.267,-0.124 3.155,-0.117 0.889,0.008 1.559,0.063 1.956,0.094 0.396,0.031 0.518,0.038 0.611,0.043 0.049,0.002 0.09,0.004 0.127,0.006 0.093,-0.07 0.162,-0.18 0.177,-0.779 0.016,-0.673 -0.037,-1.966 -0.106,-2.786 -0.069,-0.819 -0.154,-1.166 -0.285,-1.855 -0.131,-0.689 -0.307,-1.72 -0.651,-2.686 -0.345,-0.965 -0.858,-1.866 -1.476,-3.045 -0.619,-1.179 -1.343,-2.638 -1.783,-3.616 -0.44,-0.978 -0.596,-1.476 -0.848,-2.693 -0.251,-1.217 -0.598,-3.153 -0.953,-5.871 -0.354,-2.718 -0.716,-6.219 -1.038,-8.884 -0.322,-2.666 -0.603,-4.496 -1.081,-7.559 -0.478,-3.062 -1.152,-7.357 -1.71,-11.521 -0.558,-4.164 -1.001,-8.198 -1.348,-12.226 -0.347,-4.028 -0.598,-8.051 -0.759,-11.637 -0.161,-3.586 -0.231,-6.734 -0.287,-9.787 -0.055,-3.052 -0.095,-6.01 -0.156,-9.258 -0.06,-3.249 -0.14,-6.79 -0.108,-12.037 0.033,-5.248 0.179,-12.203 0.352,-17.466 0.174,-5.263 0.375,-8.834 0.652,-12.807 0.276,-3.973 0.628,-8.348 0.975,-12.271 0.347,-3.922 0.689,-7.393 1.122,-11.743 0.432,-4.35 0.955,-9.58 1.483,-13.99 0.528,-4.411 1.061,-8.002 1.512,-10.619 0.45,-2.618 0.817,-4.262 1.139,-5.308 0.321,-1.046 0.598,-1.494 0.803,-1.766 0.205,-0.271 0.338,-0.367 0.405,-0.414 0.066,-0.048 0.066,-0.048 0.049,0.598 -0.018,0.646 -0.053,1.939 -0.108,3.533 -0.056,1.594 -0.131,3.49 -0.173,4.967 -0.041,1.478 -0.049,2.536 -0.079,3.186 -0.03,0.65 -0.083,0.892 -0.102,1.011 -0.018,0.119 -0.003,0.117 -0.041,0.151 -0.038,0.034 -0.128,0.104 -0.133,0.68 -0.005,0.576 0.075,1.657 0.192,3.051 0.117,1.395 0.27,3.102 0.322,4.786 0.051,1.683 0.001,3.343 0.002,4.231 0,0.887 0.052,1.003 0.132,1.078 0.08,0.076 0.188,0.111 1.001,0.06 0.814,-0.051 2.333,-0.188 4.105,-0.324 1.773,-0.137 3.8,-0.273 5.955,-0.431 2.155,-0.158 4.438,-0.339 6.588,-0.463 2.15,-0.123 4.166,-0.188 5.992,-0.299 1.826,-0.111 3.46,-0.267 5.336,-0.47 1.876,-0.204 3.993,-0.455 6.015,-0.682 2.021,-0.226 3.947,-0.427 5.109,-0.565 1.162,-0.139 1.559,-0.214 1.758,-0.327 0.199,-0.113 0.199,-0.264 0.229,-0.906 0.03,-0.641 0.09,-1.772 0.108,-3.132 0.017,-1.361 -0.008,-2.95 -0.023,-4.429 -0.015,-1.478 -0.02,-2.846 -0.038,-3.724 -0.017,-0.877 -0.047,-1.264 -0.071,-1.469 -0.025,-0.205 -0.043,-0.227 -0.083,-0.294 -0.04,-0.068 -0.103,-0.181 -0.174,-0.682 -0.071,-0.5 -0.152,-1.388 -0.255,-2.32 -0.103,-0.933 -0.229,-1.911 -0.348,-2.739 -0.12,-0.827 -0.233,-1.504 -0.413,-2.544 -0.179,-1.042 -0.426,-2.447 -0.613,-3.449 -0.187,-1.002 -0.316,-1.601 -0.436,-2.27 -0.121,-0.668 -0.234,-1.408 -0.366,-2.121 -0.132,-0.713 -0.283,-1.399 -0.425,-2.156 -0.142,-0.757 -0.275,-1.584 -0.375,-2.322 -0.099,-0.738 -0.165,-1.387 -0.239,-2.029 -0.074,-0.643 -0.157,-1.279 -0.257,-2.036 -0.101,-0.757 -0.219,-1.634 -0.34,-2.526 -0.121,-0.891 -0.244,-1.796 -0.353,-2.565 -0.11,-0.768 -0.205,-1.399 -0.373,-2.344 -0.168,-0.945 -0.408,-2.203 -0.82,-4.085 -0.412,-1.881 -0.995,-4.386 -1.704,-6.89 -0.709,-2.505 -1.544,-5.009 -2.651,-7.745 -1.106,-2.736 -2.484,-5.703 -4.093,-8.851 -1.61,-3.149 -3.45,-6.478 -4.878,-8.781 -1.429,-2.304 -2.444,-3.581 -3.453,-4.629 -1.008,-1.049 -2.009,-1.869 -3.015,-2.608 -1.006,-0.739 -2.017,-1.398 -2.582,-1.773 -0.566,-0.375 -0.687,-0.465 -0.756,-0.571 -0.069,-0.105 -0.087,-0.226 -0.095,-0.303 -0.009,-0.077 -0.009,-0.109 -0.07,-0.174 -0.06,-0.066 -0.181,-0.164 -1.307,-0.714 -1.127,-0.551 -3.259,-1.555 -5.31,-2.603 -2.05,-1.048 -4.019,-2.142 -5.77,-2.976 -1.752,-0.833 -3.286,-1.407 -5.061,-1.957 -1.775,-0.551 -3.792,-1.079 -5.429,-1.507 -1.637,-0.427 -2.894,-0.754 -3.762,-1.008 -0.867,-0.254 -1.345,-0.435 -2.044,-0.7 -0.699,-0.266 -1.619,-0.615 -2.606,-0.909 -0.987,-0.295 -2.041,-0.533 -2.716,-0.687 -0.675,-0.153 -0.972,-0.221 -1.44,-0.471 -0.467,-0.25 -1.106,-0.683 -1.581,-0.937 -0.475,-0.254 -0.787,-0.329 -1.073,-0.365 -0.285,-0.035 -0.544,-0.03 -0.777,-0.03 -0.232,0 -0.438,-0.005 -1.342,-0.33 -0.904,-0.326 -2.506,-0.972 -4.026,-1.577 -1.52,-0.605 -2.959,-1.168 -4.404,-1.748 -1.446,-0.579 -2.9,-1.175 -3.816,-1.569 -0.917,-0.393 -1.297,-0.584 -1.594,-0.779 -0.298,-0.194 -0.514,-0.392 -0.705,-0.497 -0.191,-0.105 -0.356,-0.116 -0.467,-0.117 -0.11,0 -0.164,0.01 -0.251,-0.004 -0.086,-0.014 -0.204,-0.052 -0.587,-0.292 -0.382,-0.24 -1.028,-0.682 -1.678,-1.193 -0.65,-0.51 -1.304,-1.089 -1.956,-1.661 -0.653,-0.572 -1.304,-1.138 -2.311,-1.569 -1.007,-0.431 -2.37,-0.728 -3.723,-0.919 -1.353,-0.191 -2.695,-0.276 -4.576,-0.354 -1.881,-0.078 -4.3,-0.149 -7.931,-0.131 -3.631,0.017 -8.474,0.123 -12.914,0.219 -4.439,0.096 -8.475,0.183 -10.597,0.231 -2.123,0.048 -2.332,0.058 -4.152,0.203 -1.82,0.145 -5.249,0.427 -7.404,0.671 -2.155,0.244 -3.035,0.45 -3.752,0.707 -0.717,0.256 -1.27,0.563 -1.886,1.078 -0.616,0.516 -1.295,1.24 -2.019,1.877 -0.725,0.638 -1.494,1.189 -1.953,1.46 -0.459,0.272 -0.607,0.264 -0.901,0.366 -0.295,0.102 -0.735,0.313 -1.268,0.582 -0.533,0.269 -1.159,0.596 -1.919,0.922 -0.761,0.325 -1.656,0.65 -2.301,0.904 -0.645,0.254 -1.04,0.437 -1.514,0.628 -0.474,0.192 -1.027,0.39 -1.765,0.621 -0.738,0.232 -1.661,0.496 -2.558,0.836 -0.896,0.341 -1.766,0.759 -2.573,1.076 -0.808,0.316 -1.552,0.533 -2.299,0.749 -0.746,0.216 -1.496,0.432 -2.053,0.655 -0.557,0.222 -0.921,0.451 -1.207,0.636 -0.285,0.185 -0.491,0.326 -0.999,0.476 -0.508,0.15 -1.318,0.31 -1.914,0.463 -0.596,0.154 -0.978,0.301 -1.488,0.492 -0.51,0.192 -1.147,0.429 -1.75,0.617 -0.603,0.189 -1.171,0.329 -1.687,0.459 -0.516,0.13 -0.98,0.248 -1.7,0.426 -0.719,0.179 -1.693,0.418 -2.551,0.633 -0.857,0.216 -1.598,0.408 -2.171,0.57 -0.573,0.161 -0.979,0.292 -1.436,0.426 -0.456,0.134 -0.963,0.271 -1.427,0.4 -0.465,0.129 -0.887,0.249 -1.312,0.377 -0.424,0.128 -0.85,0.262 -1.203,0.399 -0.353,0.137 -0.632,0.277 -1.012,0.437 -0.38,0.159 -0.862,0.339 -1.279,0.53 -0.417,0.191 -0.769,0.394 -1.165,0.602 -0.397,0.209 -0.838,0.424 -1.221,0.617 -0.382,0.194 -0.705,0.366 -1.126,0.589 -0.421,0.223 -0.941,0.495 -1.657,0.865 -0.717,0.371 -1.631,0.838 -2.694,1.37 -1.063,0.532 -2.275,1.128 -3.18,1.576 -0.905,0.448 -1.504,0.747 -2.037,1.087 -0.533,0.341 -1.001,0.723 -1.443,1.08 -0.443,0.358 -0.86,0.689 -1.353,1.079 -0.493,0.39 -1.061,0.837 -1.779,1.475 -0.718,0.637 -1.586,1.465 -2.375,2.331 -0.79,0.866 -1.501,1.771 -2.145,2.665 -0.644,0.894 -1.22,1.777 -1.924,2.935 -0.704,1.158 -1.536,2.591 -2.208,3.821 -0.671,1.229 -1.181,2.255 -1.732,3.264 -0.551,1.008 -1.141,1.999 -1.644,2.942 -0.503,0.943 -0.918,1.838 -1.313,2.759 -0.395,0.922 -0.77,1.87 -1.152,2.756 -0.382,0.887 -0.772,1.712 -1.285,3.043 -0.513,1.331 -1.149,3.17 -1.716,4.911 -0.567,1.741 -1.065,3.386 -1.49,4.836 -0.425,1.451 -0.777,2.709 -1.129,4.225 -0.352,1.516 -0.704,3.291 -1.144,5.668 -0.44,2.376 -0.968,5.353 -1.29,7.073 -0.322,1.72 -0.438,2.183 -0.543,2.673 -0.106,0.491 -0.201,1.009 -0.4,1.833 -0.198,0.825 -0.5,1.957 -0.807,3.143 -0.307,1.187 -0.618,2.43 -0.84,3.478 -0.221,1.049 -0.352,1.904 -0.575,3.166 -0.224,1.262 -0.541,2.932 -0.787,4.297 -0.247,1.366 -0.423,2.427 -0.529,2.975 -0.105,0.548 -0.14,0.583 -0.204,0.634 -0.063,0.05 -0.155,0.115 -0.251,2.246 -0.096,2.13 -0.197,6.326 -0.275,8.622 -0.078,2.297 -0.133,2.694 0.035,2.902 0.169,0.209 0.561,0.229 1.419,0.337 0.857,0.108 2.18,0.305 4.51,0.755 2.332,0.45 5.671,1.154 8.339,1.667 2.668,0.513 4.664,0.835 6.751,1.182 2.088,0.347 4.265,0.719 7.24,1.192 2.975,0.472 6.746,1.046 9.15,1.373 2.404,0.327 3.44,0.407 3.958,0.447 0.518,0.041 0.518,0.041 0.568,-0.543 0.049,-0.583 0.149,-1.75 0.263,-2.759 0.114,-1.009 0.242,-1.86 0.394,-2.937 0.152,-1.077 0.328,-2.379 0.498,-3.576 0.17,-1.197 0.333,-2.289 0.417,-2.902 0.085,-0.614 0.089,-0.749 0.076,-0.865 -0.014,-0.116 -0.047,-0.211 -0.023,-1.818 0.024,-1.607 0.104,-4.725 0.147,-7.257 0.043,-2.532 0.048,-4.478 0.059,-5.601 0.011,-1.123 0.029,-1.422 0.067,-1.618 0.038,-0.197 0.095,-0.29 0.176,-0.338 0.08,-0.05 0.184,-0.055 0.308,0.038 0.124,0.094 0.27,0.285 0.345,0.376 0.074,0.092 0.076,0.085 0.078,0.081 0.001,-0.004 0.001,-0.004 0.115,0.253 0.114,0.256 0.343,0.769 0.597,1.463 0.254,0.694 0.533,1.569 0.762,2.507 0.229,0.938 0.408,1.939 0.607,3.547 0.2,1.608 0.422,3.823 0.739,6.228 0.316,2.406 0.729,5.001 1.468,11.393 0.739,6.392 1.805,16.58 2.64,24.511 0.835,7.931 1.439,13.604 1.811,19.699 0.372,6.095 0.513,12.613 0.503,19.654 -0.01,7.04 -0.171,14.604 -0.372,20.609 -0.202,6.004 -0.443,10.45 -0.725,14.423 -0.281,3.973 -0.603,7.473 -1.448,14.162 -0.845,6.688 -2.213,16.566 -3.007,23.777 -0.795,7.212 -1.016,11.758 -1.217,15.269 -0.202,3.51 -0.383,5.984 -0.674,8.122 -0.292,2.137 -0.694,3.937 -0.973,5.315 -0.279,1.378 -0.436,2.334 -0.453,2.935 -0.018,0.601 0.103,0.847 0.249,0.975 0.146,0.129 0.317,0.138 0.5,0.175 0.184,0.036 0.38,0.099 0.469,0.155 0.019,0.011 0.032,0.022 0.042,0.037 0.876,0.322 1.753,0.645 3.155,0.925 1.401,0.28 3.329,0.518 6.493,0.754 3.163,0.237 7.562,0.472 11.099,0.609 3.537,0.138 6.212,0.178 9.592,0.181 3.38,0.003 7.463,-0.03 11.329,-0.007 3.866,0.024 7.513,0.104 10.591,0.191 3.078,0.088 5.586,0.181 7.916,0.252 2.33,0.07 4.483,0.117 6.789,0.171 2.307,0.053 4.768,0.114 7.356,0.121 2.589,0.006 5.304,-0.041 8.04,-0.098 2.736,-0.057 5.492,-0.124 7.953,-0.221z"/>
 </g>
</svg>
