<?xml version="1.0" encoding="UTF-8"?>
<!DOCTYPE svg PUBLIC "-//W3C//DTD SVG 1.1//EN" "http://www.w3.org/Graphics/SVG/1.1/DTD/svg11.dtd">
<!-- Creator: CorelDRAW 2018 (64 Bit Versão de avaliação) -->
<svg xmlns="http://www.w3.org/2000/svg" xml:space="preserve" width="187px" height="148px" version="1.1" shape-rendering="geometricPrecision" text-rendering="geometricPrecision" image-rendering="optimizeQuality" fill-rule="evenodd" clip-rule="evenodd"
viewBox="0 0 186999 147486"
 xmlns:xlink="http://www.w3.org/1999/xlink">
 <g id="Camada_x0020_1">
  <metadata id="CorelCorpID_0Corel-Layer"/>
  <path id="d3" fill="#F00808" d="M416 77612l-24 303c-78,987 9,2192 -3,3205 -13,1158 -208,1512 -203,2794 9,2039 69,4202 11,6227 -28,1012 -181,1574 -197,2722l11 517 59 59c4,1318 9,2622 27,3927l-2 1 97 4596 -3 1344c39,43 79,83 117,123 181,188 363,376 549,565 59,67 127,134 195,201 -118,-2474 -200,-4961 -263,-7449 -59,54 -123,108 -186,161 -9,-968 -9,-1936 -19,-2904 64,67 127,135 196,202 0,-2474 40,-4962 113,-7450 82,-67 168,-134 250,-215 22,-685 45,-1371 72,-2057 136,-2636 295,-5284 486,-7933 -86,80 -173,148 -254,215 63,-847 136,-1694 213,-2542 -59,-67 -113,-134 -172,-201 213,-2353 463,-4720 717,-7087 -191,162 -382,310 -572,458 -214,2030 -422,4047 -608,6064 -59,-67 -114,-134 -168,-215 -132,1439 -254,2877 -354,4303l-85 66zm186392 24369l0 -18 131 -5998c-46,-39 -95,-79 -138,-119 0,-161 0,-336 0,-511 53,-56 105,-111 155,-167l31 -1403 -3 -814 -181 -2810c-58,-2025 2,-4188 11,-6227 4,-1282 -190,-1636 -204,-2794 -11,-1013 76,-2218 -2,-3205 -43,-543 -91,-1120 -138,-1713 -68,-54 -134,-111 -200,-176 -23,-282 -50,-578 -77,-874 -55,67 -114,135 -168,202 13,175 32,350 41,511 -91,-67 -177,-148 -277,-229 81,-94 159,-188 236,-282 -286,-3160 -608,-6320 -962,-9480 -96,-67 -191,-148 -286,-228 -77,94 -155,188 -227,282 354,3160 676,6320 967,9480 -69,-54 -137,-108 -209,-162 32,296 50,592 72,888 -72,94 -150,175 -218,255 209,2891 377,5769 518,8646 18,457 32,901 50,1345 77,-81 150,-162 227,-256 100,3039 145,6078 140,9104 59,53 128,107 191,161 0,175 -4,350 -9,511 -59,81 -127,148 -186,215 -64,3039 -168,6078 -318,9103 59,54 114,108 173,162 81,80 163,161 240,228 96,-94 191,-188 282,-282 68,-67 136,-135 199,-202 52,-1048 98,-2095 139,-3143zm-175502 3425c-190,-188 -372,-376 -549,-564 -72,-68 -136,-135 -199,-202 -100,-2071 -191,-4141 -245,-6212 59,-54 122,-108 186,-161 -32,-1130 -50,-2273 -50,-3416 -64,-67 -127,-134 -186,-202 -10,-2070 22,-4141 59,-6212 -82,81 -164,148 -241,215 41,-1412 91,-2837 145,-4262 96,-1909 204,-3819 332,-5728 81,-68 167,-135 254,-215 90,-1251 181,-2515 295,-3779 50,67 109,135 168,202 190,-2192 403,-4384 635,-6575 191,-148 381,-296 572,-458 -268,2542 -513,5070 -740,7597 50,81 109,149 168,216 -50,672 -100,1344 -150,2017 82,-68 168,-135 254,-202 -199,2810 -354,5621 -472,8431 -18,524 -36,1049 -58,1560 -82,67 -164,134 -246,201 -54,2663 -90,5325 -81,7974 -64,-67 -127,-135 -191,-215 4,807 14,1600 36,2393 59,-53 123,-107 186,-161 69,2662 186,5325 327,7974 -73,-68 -141,-135 -209,-216zm1376 -28842c272,-3200 576,-6400 921,-9614 63,-54 136,-108 204,-161 -358,3334 -676,6669 -953,9990 -245,3335 -427,6670 -558,9991 -86,3335 -118,6669 -104,9991 -64,-68 -132,-135 -196,-216 -9,-3200 28,-6400 105,-9614 63,-54 131,-107 195,-161 -59,-67 -123,-135 -182,-215 -72,-81 -149,-162 -227,-256 127,-3052 291,-6104 508,-9157 87,-67 173,-134 259,-202 9,-120 19,-241 28,-376zm-7720 -2662c63,-54 127,-108 200,-162 -132,1439 -246,2864 -345,4290 72,94 145,188 218,269 -123,1748 -218,3482 -318,5217 -68,1600 -123,3187 -182,4773 -77,-80 -149,-174 -231,-269 -37,1910 -68,3806 -73,5702 -63,53 -127,107 -186,161 5,1318 5,2622 41,3926 64,68 127,135 191,202 50,1910 118,3805 213,5701 -64,54 -127,108 -182,162 -163,148 -331,296 -499,443 -59,68 -122,121 -177,175 -122,-2487 -213,-4975 -272,-7463 63,68 127,135 190,202 -18,-968 -18,-1936 -22,-2904 -59,67 -123,121 -186,174 0,-2487 41,-4975 109,-7462 -77,-81 -155,-162 -232,-256 23,-685 50,-1371 73,-2070 136,-2636 290,-5271 481,-7920 77,94 145,174 218,255 63,-834 127,-1681 208,-2528 68,-54 137,-107 200,-175 214,-2353 454,-4706 708,-7072 150,188 300,376 459,564 -218,2031 -427,4048 -604,6065zm-1875 1506c69,-54 137,-108 209,-162 -31,296 -50,592 -72,888 72,94 150,175 218,255 -209,2891 -377,5769 -518,8646 -18,457 -32,901 -50,1345 -77,-81 -149,-162 -227,-256 -100,3039 -145,6078 -140,9104 -59,53 -128,107 -191,161 0,175 5,350 9,511 59,81 127,148 186,215 64,3039 168,6078 318,9103 -59,54 -114,108 -173,162 -81,80 -163,161 -240,228 -95,-94 -191,-188 -282,-282 -68,-67 -136,-135 -199,-202 -150,-3039 -254,-6078 -318,-9116 59,-54 127,-108 186,-162 0,-161 0,-336 0,-511 -63,-67 -127,-134 -186,-201 -9,-3039 41,-6078 141,-9117 -82,81 -168,148 -250,215 18,-444 37,-901 50,-1358 145,-2878 313,-5755 527,-8633 86,-67 168,-134 249,-215 23,-282 50,-578 77,-874 55,67 114,135 168,202 -13,175 -32,350 -41,511 91,-67 177,-148 277,-229 -81,-94 -159,-188 -236,-282 286,-3160 608,-6320 962,-9480 96,-67 191,-148 286,-228 78,94 155,188 227,282 -354,3160 -676,6320 -967,9480zm2497 3550c145,-1977 299,-3967 481,-5957 68,-54 136,-108 204,-162 109,-1223 236,-2447 367,-3670 146,188 300,376 459,564 -100,888 -191,1775 -268,2649 64,-53 132,-107 200,-161 -232,2582 -436,5150 -617,7718 72,94 145,175 222,256 -36,605 -68,1210 -95,1801 -141,2730 -245,5460 -304,8189 -82,-80 -159,-174 -236,-269 -9,767 -23,1533 -37,2286 -68,54 -131,108 -190,162 4,2447 27,4894 90,7341 64,67 132,135 196,202 18,766 54,1533 86,2286 -59,54 -118,107 -177,161 -163,162 -331,310 -499,457 -59,54 -118,108 -177,162 -64,-1345 -118,-2690 -150,-4034 63,67 127,134 191,202 -50,-2098 -69,-4209 -78,-6320 -63,53 -122,107 -186,161 9,-1344 32,-2689 59,-4034 -81,-81 -159,-175 -236,-269 59,-1815 127,-3644 209,-5472 82,-1506 159,-3012 268,-4519 72,95 145,189 218,270zm2691 -7746c145,-107 286,-215 426,-336 -31,256 -58,511 -77,767 55,67 109,134 168,201 -268,2959 -499,5903 -694,8848 82,-67 163,-134 249,-202 -31,538 -63,1076 -90,1600 -141,2798 -245,5594 -300,8391 -82,67 -163,135 -240,202 -9,390 -14,766 -18,1143 -64,-67 -128,-135 -182,-202 -9,3079 27,6158 104,9224 64,-53 123,-107 182,-175 13,390 36,767 54,1143 -68,-67 -136,-134 -199,-201 -137,-135 -273,-283 -413,-431 -41,-40 -87,-94 -132,-147 4,94 4,174 9,255 -59,54 -118,107 -177,161 -9,-201 -18,-403 -32,-618 69,67 136,134 200,202 -91,-3241 -127,-6482 -109,-9736 -68,54 -132,108 -195,162 5,-202 9,-404 14,-619 -82,-80 -164,-175 -241,-269 64,-2958 173,-5916 331,-8888 18,-363 37,-726 55,-1102 77,94 154,188 227,269 208,-3120 454,-6240 735,-9359 68,-54 136,-108 204,-175 46,-27 95,-67 141,-108zm-785 9991c-37,-40 -82,-94 -123,-148 0,94 -4,175 -9,256 41,-27 86,-68 132,-108zm2223 -8229c96,-1049 200,-2098 314,-3160 186,-148 372,-296 562,-457 -149,1398 -285,2797 -408,4182 54,67 109,134 168,201 -168,1816 -300,3631 -427,5446 82,-67 168,-134 250,-215 -109,1681 -200,3362 -291,5029 -63,1654 -122,3308 -168,4962 -81,80 -163,148 -240,215 -27,1519 -54,3039 -54,4545 -64,-68 -123,-135 -187,-202 5,1936 28,3873 77,5809 64,-54 123,-108 187,-161 36,1519 109,3038 181,4544 -68,-67 -132,-134 -200,-201 -181,-189 -362,-377 -540,-565 -68,-67 -136,-135 -204,-215 -45,-928 -86,-1856 -109,-2784 59,-53 118,-107 182,-161 -59,-2272 -86,-4545 -95,-6831 -59,-67 -123,-134 -187,-215 9,-928 23,-1855 41,-2783 -81,67 -163,134 -240,201 54,-2554 145,-5109 272,-7664 41,-766 82,-1546 127,-2326 82,-68 164,-135 250,-202 172,-2393 354,-4800 571,-7207 55,80 109,148 168,215zm-2709 18327c36,-27 82,-67 132,-107 -46,-41 -87,-94 -132,-148 -4,94 -4,175 0,255zm170294 14105c190,-188 372,-376 549,-564 72,-68 136,-135 199,-202 100,-2071 191,-4141 245,-6212 -58,-54 -122,-108 -186,-161 32,-1130 50,-2273 50,-3416 64,-67 127,-134 186,-202 10,-2070 -22,-4141 -59,-6212 82,81 164,148 241,215 -41,-1412 -91,-2837 -145,-4262 -96,-1909 -204,-3819 -332,-5728 -81,-68 -167,-135 -254,-215 -90,-1251 -181,-2515 -295,-3779 -50,67 -109,135 -168,202 -190,-2192 -403,-4384 -635,-6575 -190,-148 -381,-296 -572,-458 268,2542 513,5070 740,7597 -50,81 -109,149 -168,216 50,672 100,1344 150,2017 -82,-68 -168,-135 -254,-202 199,2810 354,5621 472,8431 18,524 36,1049 59,1560 81,67 163,134 245,201 54,2663 91,5325 81,7974 64,-67 127,-135 191,-215 -4,807 -14,1600 -36,2393 -59,-53 -123,-107 -186,-161 -69,2662 -186,5325 -327,7974 73,-68 141,-135 209,-216zm-1376 -28842c-272,-3200 -576,-6400 -921,-9614 -63,-54 -136,-108 -204,-161 359,3334 676,6669 953,9990 245,3335 427,6670 558,9991 86,3335 118,6669 105,9991 63,-68 131,-135 195,-216 9,-3200 -27,-6400 -104,-9614 -64,-54 -132,-107 -196,-161 59,-67 123,-135 182,-215 72,-81 150,-162 227,-256 -127,-3052 -291,-6104 -508,-9157 -87,-67 -173,-134 -259,-202 -9,-120 -18,-241 -28,-376zm7720 -2662c-63,-54 -127,-108 -199,-162 131,1439 245,2864 344,4290 -72,94 -145,188 -218,269 123,1748 218,3482 318,5217 68,1600 123,3187 182,4773 77,-80 150,-174 231,-269 37,1910 68,3806 73,5702 63,53 127,107 186,161 -4,1318 -4,2622 -41,3926 -64,68 -127,135 -190,202 -51,1910 -119,3805 -214,5701 64,54 127,108 182,162 163,148 331,296 499,443 59,68 122,121 177,175 122,-2487 213,-4975 272,-7463 -63,68 -127,135 -190,202 18,-968 18,-1936 22,-2904 59,67 123,121 186,174 0,-2487 -41,-4975 -109,-7462 77,-81 155,-162 232,-256 -23,-685 -50,-1371 -73,-2070 -136,-2636 -290,-5271 -481,-7920 -77,94 -145,174 -218,255 -63,-834 -127,-1681 -208,-2528 -68,-54 -137,-107 -200,-175 -213,-2353 -454,-4706 -708,-7072 -150,188 -300,376 -458,564 217,2031 426,4048 603,6065zm-622 5056c-145,-1977 -299,-3967 -481,-5957 -68,-54 -136,-108 -204,-162 -109,-1223 -236,-2447 -367,-3670 -146,188 -300,376 -459,564 100,888 191,1775 268,2649 -63,-53 -132,-107 -200,-161 232,2582 436,5150 618,7718 -73,94 -146,175 -223,256 36,605 68,1210 95,1801 141,2730 245,5460 304,8189 82,-80 159,-174 236,-269 9,767 23,1533 37,2286 68,54 131,108 190,162 -4,2447 -27,4894 -90,7341 -64,67 -132,135 -196,202 -18,766 -54,1533 -86,2286 59,54 118,107 177,161 164,162 332,310 500,457 58,54 117,108 176,162 64,-1345 118,-2690 150,-4034 -63,67 -127,134 -190,202 49,-2098 68,-4209 77,-6320 63,53 122,107 186,161 -9,-1344 -32,-2689 -59,-4034 81,-81 159,-175 236,-269 -59,-1815 -127,-3644 -209,-5472 -82,-1506 -159,-3012 -268,-4519 -72,95 -145,189 -218,270zm-2691 -7746c-145,-107 -286,-215 -426,-336 31,256 59,511 77,767 -55,67 -109,134 -168,201 268,2959 499,5903 694,8848 -82,-67 -163,-134 -249,-202 31,538 63,1076 90,1600 141,2798 245,5594 300,8391 82,67 163,135 240,202 9,390 14,766 19,1143 63,-67 127,-135 181,-202 9,3079 -27,6158 -104,9224 -64,-53 -123,-107 -182,-175 -13,390 -36,767 -54,1143 68,-67 136,-134 199,-201 137,-135 273,-283 413,-431 41,-40 87,-94 132,-147 -4,94 -4,174 -9,255 59,54 118,107 177,161 9,-201 18,-403 32,-618 -68,67 -136,134 -200,202 91,-3241 127,-6482 109,-9736 68,54 132,108 195,162 -4,-202 -9,-404 -13,-619 81,-80 163,-175 240,-269 -63,-2958 -173,-5916 -331,-8888 -18,-363 -37,-726 -55,-1102 -77,94 -154,188 -227,269 -208,-3120 -454,-6240 -735,-9359 -68,-54 -136,-108 -204,-175 -46,-27 -95,-67 -141,-108zm785 9991c37,-40 82,-94 123,-148 0,94 5,175 9,256 -41,-27 -86,-68 -132,-108zm-2223 -8229c-96,-1049 -200,-2098 -314,-3160 -186,-148 -372,-296 -562,-457 150,1398 286,2797 408,4182 -54,67 -109,134 -168,201 168,1816 300,3631 427,5446 -82,-67 -168,-134 -250,-215 109,1681 200,3362 291,5029 63,1654 122,3308 168,4962 81,80 163,148 240,215 27,1519 55,3039 55,4545 63,-68 122,-135 186,-202 -5,1936 -27,3873 -77,5809 -64,-54 -123,-108 -186,-161 -37,1519 -110,3038 -182,4544 68,-67 132,-134 200,-201 181,-189 363,-377 540,-565 68,-67 136,-135 204,-215 45,-928 86,-1856 109,-2784 -59,-53 -118,-107 -182,-161 59,-2272 86,-4545 96,-6831 58,-67 122,-134 186,-215 -9,-928 -23,-1855 -41,-2783 81,67 163,134 240,201 -54,-2554 -145,-5109 -272,-7664 -41,-766 -82,-1546 -127,-2326 -82,-68 -164,-135 -250,-202 -172,-2393 -354,-4800 -571,-7207 -55,80 -109,148 -168,215zm2709 18327c-36,-27 -82,-67 -132,-107 46,-41 87,-94 132,-148 4,94 4,175 0,255z"/>
  <path id="calcao_contorno" fill="none" d="M69622 5532c-9320,-113 -15317,-100 -21532,-475 -6215,-375 -12649,-1137 -18001,-2044 -5351,-908 -9620,-1960 -13890,-3013l-2056 6766c-2101,6050 -3233,10386 -4916,16285 -249,873 -435,1453 -642,2333 -2360,10025 -4550,19989 -6162,30214 -554,3516 -787,7435 -1226,10942l-435 5757c-45,1830 -234,3899 -370,5626 -78,987 9,2192 -3,3205 -13,1158 -208,1511 -203,2794 9,2038 69,4202 11,6226 -28,1013 -181,1575 -197,2723l192 9099c-30,8303 172,15985 183,24267 2,1267 207,1666 202,2996 -4,925 -65,2104 5,3001 131,1645 218,4048 519,5469 1056,4985 5703,6849 10073,7859 3312,766 6714,1111 10138,1576 4010,545 19376,399 23493,-86 6450,-761 15507,-276 22162,-1971 7272,-1853 6398,-2822 7435,-7425 870,-3869 2219,-13998 3169,-16919 807,-2484 1721,-7868 2195,-10524 344,-1990 1133,-3678 1718,-5612 1344,-4441 1694,-7626 2920,-12169 377,-1398 722,-2380 1102,-3854 997,-3864 2190,-8249 2968,-12117 575,-2856 1095,-5360 1653,-8289l2191 -12734c189,-998 230,-2248 1182,-2596 952,348 993,1598 1182,2596l2191 12734c558,2929 1077,5433 1652,8289 779,3868 1972,8253 2968,12117 380,1474 725,2456 1103,3854 1226,4543 1576,7728 2919,12169 585,1934 1375,3622 1719,5612 473,2654 1389,8042 2195,10524 949,2921 2299,13050 3169,16919 1037,4603 163,5572 7434,7425 6656,1695 15712,1210 22163,1971 4117,485 19483,631 23492,86 3425,-465 6827,-810 10138,-1576 4371,-1010 9018,-2874 10074,-7859 301,-1421 388,-3824 519,-5469 70,-897 9,-2076 5,-3001 -5,-1330 200,-1729 202,-2996 11,-8282 213,-15964 183,-24267l191 -8764 -196 -3058c-58,-2024 2,-4188 11,-6226 4,-1283 -190,-1636 -204,-2794 -11,-1013 76,-2218 -2,-3205 -136,-1727 -325,-3796 -370,-5626l-436 -5757c-439,-3507 -671,-7426 -1225,-10942 -1612,-10225 -3802,-20189 -6162,-30214 -207,-880 -394,-1460 -643,-2333 -1682,-5899 -2814,-10235 -4915,-16285l-2057 -6766c-2951,866 -5902,1731 -9677,2477 -3774,745 -8371,1369 -13806,1869 -5434,500 -11706,875 -19026,1150 -7321,274 -15692,449 -26199,418 -10507,-31 -23150,-269 -32470,-382z"/>
 </g>
</svg>
