<?xml version="1.0" encoding="UTF-8"?>
<!DOCTYPE svg PUBLIC "-//W3C//DTD SVG 1.1//EN" "http://www.w3.org/Graphics/SVG/1.1/DTD/svg11.dtd">
<!-- Creator: CorelDRAW 2018 (64 Bit Versão de avaliação) -->
<svg xmlns="http://www.w3.org/2000/svg" xml:space="preserve" width="181px" height="149px" version="1.1" shape-rendering="geometricPrecision" text-rendering="geometricPrecision" image-rendering="optimizeQuality" fill-rule="evenodd" clip-rule="evenodd"
viewBox="0 0 195683 161298"
 xmlns:xlink="http://www.w3.org/1999/xlink">
 <g id="Camada_x0020_1">
  <metadata id="CorelCorpID_0Corel-Layer"/>
  <path id="d1" fill="#F00808" d="M112251 109987c2,208 8,416 20,623 381,-162 510,-375 3285,-960 0,0 0,0 0,0 1989,-424 3360,-353 1716,112 -1668,462 -72,-226 -1573,188 -1096,301 -2419,304 -2419,509 0,42 -423,196 -994,377 23,291 60,579 117,859 187,922 594,1752 1048,2454 453,702 952,1275 1323,1739 371,465 613,820 815,1171 203,350 365,695 528,1099 163,405 326,869 450,1408 123,539 207,1153 323,1709 115,557 262,1056 357,1618 12,73 23,146 34,221 97,-52 205,-115 336,-193 1096,-648 1573,-535 524,131 -1596,1001 775,626 1918,-280 1120,-862 2288,-599 3932,-1112 1072,-352 929,-39 -739,427 -1966,537 -405,293 -1370,690 -476,195 -500,828 -1024,978 -846,231 -775,965 -2312,1404 -337,95 -643,194 -907,292 40,195 82,399 127,608 212,-19 217,0 14,67 141,659 297,1358 417,1982 193,1005 291,1814 396,2531 106,717 220,1341 310,2175 89,833 155,1876 280,2641 124,766 309,1255 442,1990 133,736 214,1719 285,2297 71,579 130,752 274,907 100,107 239,205 417,305 -76,-351 -147,-698 -122,-952 27,-265 161,-428 317,-529 156,-100 335,-138 714,-60 379,78 959,270 1647,380 688,110 1485,137 2731,143 1246,7 2941,-6 5302,-310 311,-40 633,-85 966,-135 9853,-2527 11825,-2902 12660,-2939 2764,-111 3467,-1003 2300,-790 -870,170 -655,-122 274,-299 917,-167 738,-408 1418,-443 595,-29 619,-405 1393,-610 1537,-358 620,-623 -1072,43 -1870,763 -2061,322 -667,-197 619,-224 691,-326 262,-365 -643,-46 381,-378 2252,-684 2681,-399 3109,-2608 2657,-2541 -298,38 -513,30 -513,-46 -11,-475 4480,-284 322,1881 -1692,938 -333,1261 -1048,1488 -298,85 -1168,540 -1990,1037 -1250,767 -1442,889 564,582 2625,-576 5309,-1145 7544,-1534 2871,-500 4998,-702 7771,-814 2772,-111 6190,-132 9652,24 3461,155 6967,486 9500,820 2388,316 3912,634 5188,1086l979 27c1423,92 2766,178 4034,257 17,-1446 61,-3460 43,-5664 -22,-2593 -131,-5449 -185,-7192 -28,-895 -41,-1497 -48,-1991 -473,-45 -866,-124 -877,-214 0,-332 -4122,-330 -5242,-784 -763,-314 -2705,-191 -2705,166 24,175 -4968,-167 -6111,-415 -775,-166 -620,67 -2109,38 -775,-18 -1406,-84 -1406,-151 0,-95 -2812,156 -3777,333 203,-305 -131,-437 -1096,-416 -24,-446 -48,-897 -71,-1343 548,35 1060,109 1060,261 24,593 0,-437 1918,301 1203,460 6577,809 5814,343 -560,-333 119,-407 -2049,-496 -1716,-74 -1716,-74 -1513,-750 440,-1350 -2872,-518 -5242,-106 -24,-156 -24,-312 -24,-464 524,-70 655,-211 0,-276 -24,-237 -48,-484 -48,-721 620,-100 894,-475 2645,-597 1990,-134 2442,-557 667,-586 -822,-17 -1013,-68 -798,-260 333,-315 1275,-150 1275,-464 -24,-465 6171,-1060 6207,-358 0,286 2133,-115 3502,-34 1132,64 1371,-290 358,-577 -1156,-329 393,-274 1644,53 1323,352 2407,475 2407,275 -24,-180 -1716,-174 -1716,-416 0,-295 -4277,-397 -2061,-676 822,-112 3336,184 4027,457 953,412 2276,38 524,-69 -1191,-76 -750,-475 477,-452 1596,30 -131,337 965,416 750,52 -48,-241 559,-284 1061,-62 620,-523 -583,-609 -620,-37 -1120,-17 -1120,50 0,233 -5552,-19 -3562,-173 1453,-121 1501,-689 59,-781 -2668,-177 1192,-33 1168,-379 -24,-303 1513,200 2490,173 846,-7 1715,360 1191,514 -191,49 72,117 572,153 1275,74 1025,-427 1156,-616 214,-278 -1406,-545 -501,-560 1919,-41 763,-627 -1549,-773 -2537,-153 -2859,-52 -976,359 1655,366 -537,12 -989,150 -751,223 -1370,19 -1025,-357 250,-289 918,-528 1573,-673 643,46 1299,78 1966,114 0,15 0,34 0,57 23,142 274,272 572,291 500,41 548,-108 524,-273 583,34 1115,64 1597,91 -18,-433 -41,-902 -65,-1390 -959,-224 -1980,-374 -2902,-478 -346,-175 -393,-282 -275,-334 48,8 72,22 96,21 83,45 453,95 905,157 192,186 1052,320 2162,369 -68,-1345 -148,-2816 -199,-4084 -26,-636 -44,-1221 -62,-1865 -951,92 -1606,-16 -1627,-265 0,-280 -1692,-645 -1668,-152 24,527 -679,-97 -1644,-19 -882,75 489,-272 -929,-351 -1597,-101 -870,579 -2335,164 -1454,-401 -2871,-304 -906,233 1156,330 2479,1262 2073,1503 -429,228 -1417,140 -1239,-113 215,-306 -3621,-2238 -5135,-2300 -5563,-185 -8768,-416 -8292,-688 251,-151 -250,-187 -2502,-202 -3455,62 -4646,195 -4229,419 429,229 -2264,105 -4313,-158 -1620,-182 -13224,1259 -12545,1437 167,52 798,8 1418,-83 2764,-386 3681,-220 8685,-949 1596,-202 1823,-181 1823,37 -24,172 -370,278 -1144,350 -1573,131 -453,-142 -3955,187 -3027,381 -2740,572 -3694,540 -1548,-32 -393,402 -1346,223 -548,-97 -2561,338 -2037,440 369,64 -1418,235 -1442,136 0,-176 -5385,992 -6088,1337 -595,285 -643,311 -417,94 393,-340 -7780,1591 -9745,2347 -1192,461 -1311,479 -1370,229 -48,-174 -167,-176 -322,-4 -250,298 -3836,1233 -5159,1370 -1144,107 -167,248 -1918,626 -1263,277 -2979,1021 -2311,995 250,-8 143,29 -250,74 -1120,183 -894,-428 345,-923 1430,-563 1501,-789 48,-296 -1418,472 -1513,1231 -2312,1185 -703,-44 548,-493 548,-707 0,-123 -1000,450 -3169,937 -2728,605 -1441,654 -3133,788l-386 31zm-25374 45553c57,-276 111,-684 198,-2144 72,-1211 167,-3146 361,-6591 -718,163 -1504,291 -1859,262 -809,-65 -2310,151 -3327,396 -1455,238 -3096,505 -3904,699 -877,217 -1248,238 -1779,123 -785,-173 -1432,-151 -1224,43 162,188 -4250,498 -4920,339 -324,-65 -393,-43 -232,72 324,187 -1201,303 -2264,288 1479,-295 1895,-483 809,-432 -369,29 -993,122 -1732,259 -162,-144 -993,-187 -993,101 0,51 0,72 -23,87 -208,50 -417,93 -601,137 -485,-29 -1086,-166 -1109,-22 0,130 -762,209 -1294,188 93,-44 208,-80 486,-94 346,-22 1363,-231 2171,-469 1386,-382 2195,-1391 1894,-1909 670,35 1802,50 1779,187 0,425 3996,-656 2910,-728 -877,-36 1502,-454 1987,-151 416,266 1733,65 2911,324 1178,202 4828,-115 4805,86 0,22 23,44 69,58 439,-50 831,-93 1247,-144 439,-101 901,-216 1271,-368 708,-296 1958,-568 3001,-712l54 -951 133 -2250c-220,36 -480,77 -786,123 -1316,172 -2056,237 -2056,129 0,0 0,0 0,0 0,-170 1714,-385 2855,-471 282,-4726 655,-10696 962,-15246l4 -56c-24,31 -42,74 -56,127 -46,274 -161,303 -1385,332 -1987,50 -10257,1045 -9841,1232 231,152 185,152 -439,58 -716,-130 -6168,216 -6168,396 -23,108 -1802,368 -1455,216 532,-223 -1501,-208 -2056,-7 -947,382 208,-295 -1363,65 -970,209 -670,-36 -3742,123 -3558,86 -2425,245 -4019,281 -786,14 -1132,-51 -1132,-216 -24,-231 208,-267 1848,-246 5059,44 5983,-281 8778,-461 624,-36 1270,-137 1409,-216 693,-324 -11042,187 -12682,526 -2056,397 -4782,620 -4343,368 392,-231 -809,-332 -4320,-346 -2287,-51 -2795,-29 -2541,137 485,295 -2726,374 -8385,93 -1525,-79 -5360,1369 -5152,1701 185,281 -809,231 -1247,-65 -416,-288 878,-1045 2079,-1196 1986,-288 531,-569 -924,-353 -1479,194 -762,-375 -2379,-505 -1433,-122 -24,418 -947,217 -971,-217 -1664,302 -1664,-210 0,-497 -1709,-439 -1709,-151 0,274 -832,209 -2010,-144 -2009,-620 -2517,-721 -3973,-836 -2079,-209 -647,332 -1802,58 -1062,-238 -670,144 -1432,-65 -901,-245 693,-541 -832,-634 -1247,-72 -1432,-209 -1455,129 0,339 -277,274 -2403,-519 -2518,-965 93,-223 -1432,-879 -1025,-429 -4906,-1244 -7500,-1640 44,3113 104,6291 165,9085l19 879c378,35 998,136 1749,310 3326,699 116,-353 2010,-130 1132,116 786,-324 1432,-396 2079,353 3696,634 4920,829 647,295 1594,612 -508,187 -1663,-382 -2402,-310 -1224,108 1317,483 1109,959 -277,714 -2334,-418 -1455,317 1039,843 3951,749 4113,749 3904,223 -277,-720 1964,-317 1964,-620 23,-403 5428,1161 2379,642 -2125,-404 -207,202 -1594,115 -1686,-93 -693,533 1478,930 4944,778 2241,-504 3419,-858 763,-223 -670,-663 -554,-922 693,86 1478,173 2380,281 -24,173 22,317 531,382 323,29 577,-43 600,-188 0,-21 0,-43 0,-57 647,79 1317,144 1987,202 670,230 1363,562 1617,893 347,418 -277,534 -1062,202 -463,-209 -2680,-195 -971,-288 1894,-144 1571,-288 -1016,-512 -2357,-266 -3512,101 -1571,497 947,181 -693,152 -486,469 139,209 -92,670 1202,821 508,44 762,29 578,-50 -532,-238 322,-469 1177,-324 1017,180 2542,-108 2542,187 -24,346 3881,749 1177,548 -1455,-116 -1385,461 116,785 2010,447 -3603,-101 -3627,-338 0,-65 -508,-145 -1131,-217 -1225,-137 -1641,238 -578,498 624,151 -185,295 578,374 1108,108 -647,-475 970,-252 1247,152 1709,613 508,519 -1802,-173 -462,418 532,159 669,-195 3210,-123 4065,100 2218,570 -2080,94 -2102,390 22,237 -1710,-8 -1710,173 0,194 1086,216 2426,72 1248,-159 2841,14 1663,173 -1016,129 -762,526 393,619 1386,94 3557,714 3534,426 23,-707 6330,396 6306,864 24,317 971,180 1317,505 231,194 46,252 -785,223 -1825,-36 -1340,404 670,620 1802,195 2079,570 2725,692 -23,245 -46,483 -23,721 -669,43 -531,187 0,273 -23,152 -23,310 0,462 -2425,-497 -5821,-1478 -5336,-115 255,699 255,699 -1501,626 -2195,-115 -1479,22 -2056,318 -739,382 4689,475 5890,50 1918,-642 1941,382 1941,-209 -23,-144 485,-209 1039,-223 0,446 0,901 -22,1340 -971,-50 -1317,65 -1087,375 -969,-209 -3834,-584 -3834,-476 0,58 -647,72 -1432,29 -1501,-108 -1340,-317 -2125,-231 -1156,137 -6214,-101 -6191,-273 -23,-361 -1987,-764 -2749,-563 -1109,303 -5313,-389 -5313,-57 0,187 -1733,28 -2356,-209 300,43 484,36 230,-180 -92,-72 -115,-130 -92,-159 115,-29 231,-58 370,-79 254,14 554,101 554,187 0,180 1155,288 1155,86 23,-259 1987,-43 -208,-475 -116,-22 -254,-58 -393,-79 185,-94 116,-152 -323,-72 -716,-152 -1409,-332 -1755,-447 -1040,-346 -3443,-692 -3766,-512 -231,101 -3788,-288 -4573,-519 -1179,-338 299,-346 2194,-21 2056,338 4574,389 3927,79 -347,-166 900,-188 878,36 22,288 2864,375 2679,302 -577,-180 855,-309 2010,-194 1502,187 693,-151 2240,0 1479,130 740,317 1988,418 1409,123 -24,-368 2887,-137 1316,108 2009,231 2009,346 0,389 3581,519 1710,166 -1686,-310 2125,-642 -439,-786 -1247,-65 -5844,-1607 -4043,-605 670,367 1641,418 1641,634 -24,483 -3442,-533 -6029,-649 -1433,-108 -1964,-302 -855,-324 415,0 1062,-612 -116,-476 -646,80 -4019,-93 -1547,-288 1362,-101 1362,-101 -347,-209 -4458,-266 -3812,159 -2426,245 717,44 -45,65 255,353 462,447 -1017,-14 -1017,-202 23,-194 -878,-345 -1386,-237 -601,108 370,547 1617,699 5498,620 762,929 -115,540 -555,-252 -4343,-901 -4990,-1174 -347,-123 -1270,-296 -2310,-397 -1732,-180 -1732,-180 415,238 2172,396 3559,836 1941,613 -1478,-217 -1108,72 462,345 2056,347 855,599 -762,137 -1641,-446 -2079,-489 -2818,-237 -647,194 -2426,14 -2403,-231 0,-173 -1732,-375 -1732,-613 0,-309 3303,469 877,-410 -1547,-563 1803,-310 -1663,-930 -809,-130 -993,-202 -531,-188 1086,51 254,-612 -1063,-843 -92,-14 -184,-28 -254,-36 324,29 763,15 1317,-28 1593,317 2402,576 2102,699 -438,165 1709,547 2680,461 970,-108 -509,-209 462,-253 531,-50 854,-7 1340,166 900,332 2240,397 2240,101 0,-274 1155,-158 1155,115 0,303 3350,764 855,-216 -1894,-756 -1709,-1117 185,-425 1316,483 2148,7 -1086,-440 -1940,-273 -2402,-792 -785,-900 2864,-216 -2588,-368 -2588,-822 0,-158 3442,159 3466,-65 0,-273 2679,72 762,-209 -1617,-238 -3072,58 -3049,-382 -23,-281 -1340,-439 -924,-7 254,288 115,332 -762,209 -1433,-223 -2149,-101 -1156,223 1178,354 -2356,-547 -2356,-252 0,108 208,224 462,274 2033,353 4689,1946 1317,764 -3835,-1434 -4343,-1211 -4990,-1542 -670,-375 3119,785 2425,252 -300,-245 -22,-504 -1178,-612 -947,-87 -1686,-469 -877,-325 1039,188 -370,-699 600,-519 1433,252 -716,-1189 -1594,-663 -485,289 -1570,-230 -2495,-173 -324,19 -773,-45 -1095,-124l23 917c174,68 282,143 287,231 -6,80 -108,119 -278,123l39 1464c584,74 1555,260 2157,452 3326,959 7553,1859 4019,1341 -139,-15 -277,-29 -416,-51 -162,-94 -647,-180 -1201,-231 -809,-216 -693,-352 -1871,-482 0,0 0,0 0,0 -1640,-252 -855,-570 -1686,-634 -271,-23 -655,-103 -997,-206 36,1301 71,2435 106,3384 80,2221 153,3437 183,4165 30,728 16,967 26,2123 9,1157 42,3231 74,4711 33,1479 66,2364 131,2891 65,527 163,695 459,1005 296,309 790,760 2506,1121 1715,361 4653,632 7455,874 2802,242 5468,453 9991,695 4523,242 10904,513 15617,717 3703,160 6378,278 8649,333 -366,-41 -683,-91 -887,-150 -694,-180 -6515,-944 -2657,-814 1617,43 2541,-245 1501,-454 -1131,-252 -439,-649 -2472,-548 -692,36 47,908 -4088,-57 -1941,-476 -1941,-476 -693,-577 578,-51 1040,-137 1201,-216 277,-43 300,-116 300,-202 578,-15 2010,476 2519,476 69,0 161,-8 254,0 -185,245 -624,554 -185,562 623,21 1016,-260 1663,-433 1109,144 2264,296 3095,288 393,0 462,238 1548,339 2241,159 -92,930 2587,959 0,0 0,0 0,0 1838,7 1688,207 -631,861 2145,-7 4072,-78 6016,-139 2322,-74 4668,-133 6905,-207 1092,-35 2158,-75 3312,-149 -141,-90 -337,-182 -610,-273 -4296,-1455 232,-2421 232,-1945 0,72 -209,122 -509,151 -423,20 7,1787 2159,1973 853,-72 1767,-167 2782,-294 3000,-377 6871,-1046 9290,-1540 2419,-494 3386,-814 4236,-1246 849,-431 1582,-974 1979,-1319 396,-345 456,-492 513,-769zm-84682 -21319l7 326c1302,380 5007,688 1137,-56 -519,-108 -893,-198 -1144,-270zm12 505l8 368c716,100 1170,277 1170,493 -22,237 925,425 1364,259 578,-223 416,-303 -1940,-944 -221,-63 -420,-122 -602,-176zm17 724l15 640c711,-24 706,-377 -15,-640zm7422 9340c3257,432 2911,411 2310,483 -185,21 -254,43 -254,79 -485,-123 -1086,-137 -970,115 231,541 -1433,-223 -1155,-569 23,-36 69,-72 69,-108zm2518 735c485,101 1317,223 2472,353 46,7 92,14 115,22 -254,0 -439,36 -439,158 0,375 -1986,-72 -2010,-368 0,-64 -46,-115 -138,-165zm-6676 -4548c-832,-43 439,541 -462,181 -508,-210 -485,-339 -139,-390 162,101 347,159 601,209zm42482 7906c254,-187 438,-461 1201,-771 1640,-620 1593,-1239 -92,-1369 -509,-36 -763,-137 -902,-245 208,-29 439,-44 647,-101 115,-15 208,-43 300,-58 439,180 1271,231 1802,123 1663,-346 1964,-116 739,533 -831,432 1455,-144 1455,396 -23,202 301,310 902,303 1894,0 -1271,-886 207,-872 809,7 -230,209 1179,288 1801,58 692,-446 1847,-216 532,94 393,187 -554,440 -2148,526 -993,1138 -277,1809 -346,144 -46,310 -993,165 -1225,-230 -1271,282 -1825,8 -624,-310 -1386,309 -1386,-51 0,-245 -2518,-396 -4181,-360 -23,-7 -47,-15 -69,-22zm-16702 -17325c-462,-58 -1040,-130 -1802,-223 -370,-44 -693,-65 -970,-101 23,-29 23,-65 46,-101 0,-72 508,-94 1201,-58 647,36 1224,260 1525,483zm-2934 -130c23,-7 47,-7 69,-7 970,36 1340,101 1271,231 -46,201 901,367 1732,367 -69,51 -207,80 -393,101 -761,36 393,461 -531,504 -369,22 -692,282 -831,577 -116,-21 -278,-43 -485,-65 -1271,-101 -1294,-958 -2149,-1477 578,43 1063,-51 1317,-231zm-12197 -829c462,-65 508,-151 324,-237 92,-8 161,-8 254,0 0,0 0,0 0,0 1617,36 1778,79 1755,454 0,461 -1293,-15 -2356,-173 -69,-7 -115,-15 -185,-29 70,-15 139,-15 208,-15zm10095 3892c23,0 46,0 92,0 115,72 70,166 -277,274 -1039,-65 -2194,-94 -3234,-14 -994,57 -2379,-202 -1779,-332 232,-50 47,-187 -415,-332 -185,-50 -347,-129 -485,-201 2286,598 4828,879 5174,605 462,29 831,29 924,0zm3534 144c-347,-173 -1594,-353 -2887,-454 -1178,-346 -2103,-742 -1016,-764 0,0 0,0 0,0 484,-7 808,-187 947,-432 138,58 230,137 207,245 0,396 1756,368 2541,216 -68,252 46,505 324,555 462,101 300,461 -116,634zm-20813 548c693,-130 439,-699 -370,-829 -739,-137 -1109,137 -693,548 347,360 439,389 1063,281zm-1317 1052c532,-209 416,-612 -231,-713 -1502,-267 -947,1160 231,713zm14692 3625c0,-266 5082,944 1640,-468 -1987,-836 -3349,-404 -3349,-778 0,-231 -1710,-577 -3096,-664 -1386,-72 -878,375 624,555 1178,137 2449,692 2449,1096 0,245 1709,418 1732,259zm-23 569c23,-288 -2865,-446 -2865,-641 0,-79 -230,-158 -577,-216 -1201,-166 -508,317 924,627 2010,396 2518,447 2518,230zm7692 1759c1687,-144 1756,-440 116,-432 -2125,0 -3188,-678 -3211,-411 0,252 2541,562 1293,584 -1432,21 -647,461 1802,259zm-1409 793c23,-814 -3442,-555 -2425,-447 1109,122 69,180 993,353 878,123 1455,562 1432,94zm6306 1686c3027,-79 232,-850 1825,-663 1433,180 -207,497 2403,714 2425,180 1016,-166 69,-231 -1709,-86 1225,-281 -138,-656 -994,-274 -832,-418 369,-303 1779,166 5129,-461 1086,-417 -7069,-101 -5474,-743 -8617,-707 -1547,-7 -2610,166 -1593,245 1039,87 68,418 1617,433 969,7 969,7 22,72 -1409,94 -1339,446 116,483 1502,36 2240,310 162,201 -4458,-252 1409,844 1640,851 116,0 600,-7 1039,-22zm-17810 -1391c-531,-230 -485,-273 254,-238 1849,116 -1386,-836 -1386,-115 -23,526 2172,779 1132,353zm26958 2436c23,-79 462,-151 924,-137 1849,51 508,-389 -1732,-576 -1201,-94 -2588,64 -2588,317 0,180 1595,216 2102,36 670,-224 1179,598 1294,360zm-5590 281c-1086,-151 -855,-324 300,-216 1479,137 -415,-36 -392,-209 0,-108 -1710,-375 -1317,115 369,476 2379,440 1409,310zm10441 181c-185,-8 -462,-15 -785,-15 -46,0 -92,0 -138,0 -93,-144 -186,-274 -579,-332 -369,-57 -323,-165 117,-317 45,-7 69,-14 115,-35 231,-15 508,-58 877,-130 231,-44 439,-72 601,-94 278,108 416,202 254,281 -485,267 -600,483 -462,642zm14600 -8598c-23,-15 -47,-44 -47,-58 278,-7 554,-29 855,-43 2079,389 3604,7 4112,-202 300,-22 601,-29 924,-43 -115,21 -277,65 -485,108 -855,166 184,605 -392,757 -694,194 22,-426 -2404,-296 0,0 0,0 0,0 -1801,94 -1894,-159 -2563,-223zm-16517 108c0,21 0,50 0,72 -301,-7 -601,-36 -878,-94 301,29 601,29 878,22zm-23 1996c-24,180 -24,346 0,519 -971,-108 -2218,-231 -2194,-526 0,-137 1223,-58 2194,7zm-24 872c-22,137 0,274 0,411 -1709,-130 -2194,-202 -2194,-332 0,-245 1317,-396 1618,-194 69,57 277,94 576,115zm0 944c0,87 0,166 0,238 -993,-144 -2494,22 -1985,-151 346,-108 1247,-123 1985,-87zm20422 5196c-162,-86 -393,-144 -694,-122 -1086,57 -1155,-447 -369,-483 277,-15 346,-58 323,-108 162,43 439,58 878,0 1894,-202 2749,238 971,512 -533,79 -902,151 -1109,201zm-2056 -929c-70,7 -116,0 -162,7 -1271,65 -1317,-202 -532,-274 370,22 532,151 694,267zm5267 -498c484,-331 508,-728 -209,-656 -2379,130 2888,-1571 2888,-936 -23,309 1339,-22 993,418 -323,418 3003,879 3003,367 0,-187 601,-281 1225,-274 0,22 -24,36 -24,65 -231,360 1086,649 2380,505 1594,-173 1455,216 -324,411 -808,86 -1594,93 -1778,21 -647,-303 -3303,187 -762,303 3303,72 -1756,1102 -1733,245 0,-728 -2888,209 -3997,-346 -462,-231 -1178,-166 -1662,-123zm10741 -2846c-92,-65 -139,-130 -161,-195 161,-36 346,-57 531,-79 392,-51 -23,101 -370,274zm2657 -2537c207,-101 438,-187 623,-202 254,-43 532,-58 809,-65 -370,80 -809,173 -1432,267zm-10442 7c0,0 0,0 0,0 -3395,771 -3719,-209 -2402,-36 2633,368 3049,-720 3857,-785 925,-80 -115,518 -1455,821zm-10880 7077c0,0 0,0 0,0 -2079,-21 -3696,310 -3373,685 370,382 -3257,231 -1617,-173 832,-202 185,-577 1779,-627 739,-15 1271,-152 1525,-346 369,-353 1363,-468 1363,-173 -24,259 2102,-130 2402,159 392,345 -116,454 -2079,475zm9517 649c-369,-65 -439,-173 23,-274 2287,-519 -4019,29 -2171,439 716,-50 1432,-115 2148,-165zm9795 -1636c0,0 0,0 0,0 0,-152 2541,-771 3857,-959 1525,-223 717,375 -877,670 -2796,433 -2980,447 -2980,289zm-69162 -4598c0,0 0,0 0,0 253,-375 4458,353 1617,303 -1433,-15 -1802,-80 -1617,-303zm25802 151c0,0 0,0 0,0 301,-166 -3418,-447 -3949,-288 -486,144 -1803,43 -532,-166 1109,-209 739,-627 -531,-598 -1063,0 -2588,-497 577,-86 3188,324 5406,216 5406,670 0,353 1155,324 785,533 -323,173 -2194,144 -1756,-65zm-2125 -1318c0,0 0,0 0,0 70,-116 -92,-901 1109,-837 994,65 1201,260 347,339 -763,58 485,908 -717,750 -462,-58 -761,-166 -739,-252zm-10995 -8634c739,36 1432,108 277,180 -23,0 -46,0 -46,0 -93,-58 -162,-123 -231,-180zm-17395 -5968c0,0 0,0 0,0 1571,238 -1478,332 -3003,-266 -416,-159 1271,-8 3003,266zm73990 3770c0,0 0,0 0,0 2865,-346 -277,627 -1848,677 -1409,43 -23,-469 1848,-677zm-24671 28171c-369,14 -785,7 -1270,22 0,7 0,7 0,7 0,158 808,115 1571,86 -70,-28 -162,-65 -301,-115zm-13398 -86c-601,-8 -1063,0 -1409,0 -232,43 -370,108 -439,180 439,165 878,317 1316,468 0,36 70,65 209,94 69,14 115,29 162,29 392,72 1109,101 1547,21 162,-36 277,-86 324,-130 0,0 0,0 0,0 0,0 0,0 0,0 22,-14 46,-21 46,-50 0,0 0,0 0,0 0,0 0,0 0,0 0,-230 -855,-497 -1756,-612zm-11226 1693c-1133,94 -2195,195 -1918,404 138,108 23,216 -254,288 2264,483 4088,36 2172,-692zm-6746 483c-924,-22 -1756,29 -1756,151 0,0 -23,8 -46,15 670,-7 1340,-65 1802,-166zm28367 -1787c162,36 347,79 531,115 93,-58 -46,-94 -531,-115zm-323 331c-1271,0 -3650,65 -4366,-173 -555,-202 -370,115 -1640,166 -46,0 -70,0 -70,0 208,36 439,65 670,79 1756,137 1455,490 -300,382 -24,7 -46,7 -69,0 45,195 1224,238 1733,7 300,-137 -324,527 346,534 739,7 439,-324 1154,-375 -91,-29 -45,-65 47,-101 -300,-50 -624,-108 -624,-180 0,-159 1825,50 1433,-101 -185,-72 346,-101 993,-108 231,-50 485,-87 693,-130zm1224 303c277,14 693,14 1017,-7 -324,-7 -671,0 -1017,7zm1663 -202c0,-21 0,-65 -23,-94 -46,-35 -46,-72 -46,-108 -439,36 -762,80 -762,152 0,50 347,64 831,50zm-10787 -540c185,-58 415,-101 692,-116 -230,-21 -415,-50 -554,-65 -624,-108 -600,22 -138,181zm-43036 -3719c115,43 207,93 300,158 1547,829 3326,692 2218,397 -832,-152 -1502,-303 -1941,-411 -208,-58 -392,-94 -577,-144zm114257 -30089c21,158 43,327 71,507 326,2 496,63 503,184 11,256 1000,-70 1679,-548 763,-533 -310,-632 -2001,-203 -93,23 -176,43 -252,60zm78243 12991c-2,-220 -3,-467 -2,-746l2 -326c-2332,-98 -57,493 -1194,423 -809,-50 -763,835 1194,649zm-190 -16636c-2,-252 -2,-483 -2,-727 -288,-91 -310,-43 -156,62 -143,10 -275,14 -394,18 -2144,39 -202,168 -178,433 0,121 403,205 730,214zm-3 -2007l-2 -393c-286,-107 -362,-209 -2,-259 -4,-418 -10,-847 -19,-1266 -192,-25 -394,-50 -609,-75 -1692,-203 -1692,-203 -322,157 2443,617 -893,185 -1536,6 -1156,-334 -525,378 -84,464 1096,208 572,319 -846,155 -2561,-257 -5921,282 -5945,-202 -24,-218 941,-134 1609,-412 1727,-748 -2765,159 -4004,93 -2513,-110 1263,597 -381,744 -1858,173 1680,399 1656,5 0,-114 691,-141 1990,-58 2883,170 1465,467 2859,546 1227,76 500,-215 1966,-138 1525,109 727,300 2216,405 492,36 1039,128 1454,228zm-137 -5377c-5,-258 -9,-520 -13,-796 -268,29 -553,77 -851,152 -2507,614 -398,590 864,644zm-61 -3046l-6 -163c-37,51 -42,105 6,163zm-24238 9478c-274,-206 -453,-480 -1203,-775 -1644,-609 -1621,-1242 24,-1384 500,-40 750,-133 881,-246 -202,-13 -429,-49 -631,-94 -119,-25 -215,-56 -298,-67 -441,185 -1263,244 -1787,151 -1644,-304 -1942,-72 -703,545 846,411 -1442,-101 -1418,445 24,193 -298,308 -893,327 -1871,97 1239,-918 -227,-867 -798,35 227,202 -1167,355 -1775,189 -679,-416 -1823,-85 -524,159 -393,240 572,400 2121,375 1001,1061 322,1796 357,98 59,297 976,88 1216,-290 1287,221 1811,-86 608,-318 1394,284 1371,-76 0,-242 2489,-454 4134,-407 12,0 35,-20 59,-20zm-14821 1428c-83,-36 -202,-46 -476,-14 -346,40 -1347,5 -2169,-74 -1370,-94 -2192,-952 -1918,-1531 -667,178 -1787,422 -1763,559 24,422 -3943,372 -2871,10 846,-274 -1513,-33 -1966,386 -417,393 -1716,572 -2883,1146 -1132,596 -4742,1533 -4718,1741 0,23 -24,39 -72,74 -417,93 -822,187 -1239,291 -429,61 -881,99 -1251,91 -1393,-27 -4908,920 -4706,1252 24,70 24,127 -24,195 -702,179 -1417,373 -2120,557 1346,-252 2871,-386 2585,-124 -369,315 2478,-160 3265,-541 798,-377 2275,-709 3288,-817 1429,-283 3062,-562 3860,-649 858,-84 1227,-182 1751,-450 775,-400 1418,-558 1215,-300 -166,229 4194,-670 4861,-1000 322,-147 393,-150 227,8 -322,271 1191,24 2240,-190 -1466,8 -1871,-88 -823,-274 370,-54 1001,-84 1740,-97 131,-161 953,-377 977,-83 0,28 0,57 24,80 202,-7 417,1 595,9 477,-124 1073,-361 1097,-215 0,133 750,76 1274,-40zm30810 -17503c452,5 1024,1 1787,24 357,8 679,7 953,27 -24,-32 -24,-65 -48,-98 0,-76 -524,-174 -1203,-233 -620,-52 -1192,85 -1489,280zm2907 260c-24,-5 -48,-4 -72,-8 -965,-92 -1323,-77 -1263,59 72,202 -858,237 -1692,120 72,65 215,112 393,154 751,148 -369,402 549,582 369,78 667,387 822,701 119,-4 274,1 476,13 1263,74 1263,-786 2109,-1192 -572,-35 -1072,-195 -1322,-429zm-1335 3031c346,-120 1561,-125 2836,-42 1167,-160 2061,-383 977,-601 0,0 0,0 0,0 -477,-90 -799,-336 -930,-584 -143,33 -226,88 -202,206 0,409 -1740,107 -2514,-134 60,264 -24,490 -298,508 -465,25 -274,418 131,647zm-24 7567c-1668,-380 -1751,-695 -131,-461 2121,308 3145,-204 3169,42 0,257 -2490,226 -1251,424 1418,212 668,540 -1787,-5zm1418 1006c-48,-840 3407,-22 2407,-86 -1096,-55 -72,164 -989,184 -870,8 -1418,363 -1418,-98zm-6183 832c-2991,-376 -250,-886 -1835,-836 -1382,39 238,520 -2347,478 -2371,-20 -1001,-263 -72,-230 1692,60 -1203,-404 120,-650 977,-188 822,-349 -370,-350 -1751,8 -5087,-766 -1096,-512 6994,606 5397,-218 8495,212 1537,217 2609,535 1596,477 -1024,-58 -59,401 -1596,198 -953,-127 -953,-127 -24,72 1418,283 1346,646 -83,473 -1490,-167 -2216,13 -167,176 4408,379 -1346,656 -1573,625 -119,-20 -596,-81 -1048,-133zm-8995 327c-24,-85 -465,-166 -918,-175 -1822,-24 -524,-412 1692,-501 1180,-51 2550,219 2550,467 24,170 -1549,96 -2073,-92 -668,-255 -1144,545 -1251,301zm5516 662c1084,-48 846,-240 -286,-257 -1465,3 405,6 381,-159 0,-110 1668,-210 1299,253 -334,419 -2323,206 -1394,163zm-10294 -340c179,-10 453,-5 775,-15 47,3 95,7 143,5 59,-135 155,-261 548,-317 357,-44 309,-157 -119,-310 -48,-8 -72,-21 -120,-38 -226,-27 -524,-79 -881,-158 -227,-41 -441,-72 -596,-86 -274,99 -393,193 -226,278 476,270 595,476 476,641zm-14666 -7507c24,-15 24,-39 24,-62 -298,38 -572,56 -846,102 -2025,787 -3538,721 -4039,608 -321,48 -619,100 -917,148 119,15 274,15 489,8 845,-27 -191,653 381,682 691,45 -24,-437 2383,-793 0,0 0,0 0,0 1775,-251 1870,-525 2525,-693zm16310 -981c0,24 0,53 0,76 298,-4 596,-28 870,-65 -298,5 -596,-6 -870,-11zm72 1999c0,180 0,356 24,522 953,-68 2168,-159 2144,-448 0,-138 -1215,-109 -2168,-74zm47 877c0,143 0,276 12,409 1692,-63 2157,-130 2157,-258 0,-238 -1311,-439 -1609,-244 -59,49 -273,75 -560,93zm12 955c0,81 0,162 0,233 989,-117 2467,113 1966,-81 -333,-122 -1227,-170 -1966,-152zm-19979 6976c143,-118 369,-206 667,-249 1072,-167 1120,-672 346,-557 -251,41 -346,11 -322,-42 -167,62 -417,141 -870,179 -1870,183 -2692,817 -941,700 524,-26 893,-38 1120,-31zm1990 -1322c71,-17 119,-32 154,-38 1263,-159 1287,-431 513,-359 -346,73 -513,240 -667,397zm-5207 602c-500,-193 -524,-587 179,-709 2359,-389 -2895,-798 -2871,-161 24,298 -1323,355 -989,701 345,317 -2919,1732 -2943,1238 0,-209 -596,-109 -1203,110 0,23 12,42 12,66 262,291 -1049,1016 -2324,1314 -1572,377 -1417,729 346,293 798,-182 1573,-435 1751,-588 620,-509 3265,-830 763,47 -3253,1210 1751,568 1704,-286 -24,-722 2859,-609 3931,-1470 453,-337 1168,-469 1644,-555zm-10687 404c96,-93 131,-170 155,-252 -155,24 -333,68 -524,107 -381,97 24,85 369,145zm-2692 -1583c-203,-41 -441,-29 -620,5 -250,75 -524,164 -798,272 369,-59 798,-148 1418,-277zm-11997 9737c1310,-251 2656,-612 3252,-887 0,0 0,0 24,-10 -1096,300 -2192,601 -3276,897zm22290 -13104c0,0 0,0 0,0 3384,-155 3658,-1209 2383,-688 -2609,1071 -3038,110 -3836,273 -917,176 131,490 1453,415zm10937 4678c0,0 0,0 0,0 2062,-293 3682,-135 3360,278 -345,430 3217,-87 1597,-335 -823,-112 -203,-578 -1775,-448 -739,71 -1263,-7 -1514,-194 -381,-297 -1370,-280 -1346,14 24,256 -2073,218 -2371,564 -369,416 131,433 2049,121zm-32739 -3443c155,-24 179,-43 84,-50 -24,20 -48,35 -60,40 0,0 0,0 0,0 -24,10 -24,10 -24,10zm1156 -559c71,-30 167,-52 262,-79 -24,0 -24,0 -24,0 -48,6 -119,28 -238,79zm22219 6631c369,-159 441,-275 -12,-261 -2263,124 3967,-952 2145,-125 -715,128 -1418,254 -2133,386zm-9674 1413c0,0 0,0 0,0 -24,-156 -2538,133 -3836,459 -1513,400 -715,674 881,319 2764,-577 2955,-626 2955,-778zm-2990 -2448c0,0 0,0 0,0 -24,-341 -6994,2003 -2038,701 1299,-345 2038,-592 2038,-701zm45618 -7486c0,0 0,0 0,0 -310,-195 3360,-112 3884,91 500,207 1811,270 524,-112 -1072,-313 -727,-695 524,-520 1061,147 2562,-143 -560,-168 -3133,18 -5349,-311 -5325,154 0,352 -1168,217 -775,462 322,204 2169,349 1728,93zm2085 -1112c0,0 0,0 0,0 -72,-140 48,-900 -1120,-948 -977,-41 -1191,137 -346,300 751,133 -452,861 739,828 453,-15 751,-95 727,-180zm10639 -7190c-727,-105 -1418,-131 -274,118 0,10 24,14 48,14 95,-42 154,-96 226,-132zm-55948 1759c0,0 0,0 0,0 -2835,698 298,527 1823,32 1394,-448 24,-471 -1823,-32zm25210 22425c369,-31 774,-53 1263,-83 0,0 0,5 0,9 0,162 -810,178 -1561,211 72,-26 167,-81 298,-137zm13201 -242c595,24 1048,43 1394,56 226,59 393,130 452,205 -429,151 -869,288 -1298,425 0,24 -72,50 -179,77 -71,12 -119,18 -167,20 -381,69 -1096,53 -1525,-38 -167,-42 -298,-100 -345,-141 0,0 0,0 0,0 0,0 0,0 0,0 -24,-18 -48,-32 -48,-55 0,0 0,0 0,0 0,0 0,0 0,0 0,-243 846,-474 1716,-549zm11187 2722c1120,249 2192,501 1918,671 -131,95 -24,215 250,325 -2216,174 -4039,-519 -2168,-996zm6696 1480c917,138 1751,339 1751,468 0,4 24,8 47,17 -655,-126 -1322,-310 -1798,-485zm-70566 -322c47,55 321,56 845,-22 107,-18 203,-35 298,-43 84,64 84,183 -47,372 -24,34 -48,54 -48,58 -405,132 -953,306 -1596,474 -227,64 -453,124 -668,178 -774,-170 274,-736 1216,-1017zm-1442 2369c619,-167 1275,-325 1835,-457 -739,408 -2907,1061 -1859,468 0,0 0,0 0,0 0,0 0,0 24,-11zm11949 3677c0,0 0,0 0,0 3015,-628 3241,-112 2074,-85 -727,14 -3861,897 -3885,660 0,-143 465,-290 1811,-575zm21803 -4235c0,0 0,0 0,0 3312,-366 3491,180 2335,179 -393,-3 -1167,22 -1739,45 -954,49 -1418,-127 -596,-224zm2514 -1030c0,0 0,0 0,0 5027,-344 1441,677 572,457 -227,-45 -965,-64 -1692,-27 -2145,120 -1442,-173 1120,-430zm7625 -4313c-155,47 -334,95 -524,130 -84,-45 47,-92 524,-130zm345 312c1251,-21 3610,-24 4289,-264 524,-197 369,121 1608,182 12,5 36,8 84,7 -203,16 -429,51 -655,68 -1716,135 -1418,496 298,385 12,0 35,-1 59,-7 -24,201 -1155,236 -1692,6 -286,-138 346,527 -309,528 -739,19 -441,-319 -1144,-349 71,-30 24,-67 -72,-107 298,-47 620,-110 620,-176 0,-171 -1811,90 -1418,-70 179,-72 -345,-98 -977,-92 -238,-35 -488,-75 -691,-111zm-1215 366c-274,42 -679,59 -1001,51 322,-20 667,-45 1001,-51zm-1644 -91c0,-23 0,-57 24,-95 47,-30 47,-64 47,-102 441,-14 751,5 751,72 0,56 -334,101 -822,125zm5778 1919c0,0 0,0 0,0 2633,-41 298,-818 2490,-992 1072,-67 1144,-312 1537,-295 822,40 1966,-81 3038,-163 655,193 1049,494 1668,498 429,20 0,-323 -238,-572 95,-3 190,4 262,6 500,32 1918,-350 2478,-268 0,81 24,156 298,214 167,99 619,237 1191,343 1251,212 1251,212 -643,504 -4063,671 -3348,-184 -4039,-238 -2014,-188 -1299,246 -2419,442 -1024,171 -95,493 1501,514 3801,108 -1918,564 -2597,719 -798,196 -3288,289 -3836,135 -2359,-600 -2514,-795 -691,-847zm4849 -2649c-191,-56 -417,-115 -691,-149 226,-17 417,-33 548,-41 596,-81 596,38 143,190zm1692 3516c0,0 0,0 0,0 1799,33 1298,572 -322,414 -1215,-123 -989,-434 322,-414zm-53053 -2749c0,0 0,0 0,0 632,-1165 3014,-1145 1442,-506 -643,272 -1191,1720 -1537,1394 -131,-134 -95,-525 95,-888z"/>
  <path id="calcao_contorno" fill="none" d="M86877 155540c57,-276 111,-684 198,-2144 87,-1461 207,-3975 494,-8922 288,-4947 745,-12326 1108,-17715 364,-5390 636,-8789 989,-12546 352,-3758 787,-7874 1330,-12163 543,-4290 1195,-8753 2031,-13825 836,-5071 1857,-10751 2633,-14471 777,-3719 1309,-5479 1650,-6590 342,-1112 492,-1576 610,-1830 117,-254 201,-298 281,-290 81,7 157,66 254,174 98,108 218,265 372,597 155,332 345,838 651,1525 306,687 729,1555 1092,2405 363,850 667,1684 796,2326 129,642 83,1093 121,1599 38,506 160,1068 480,1542 321,474 839,860 1138,1371 299,512 377,1150 573,2055 195,906 507,2079 615,2964 107,885 9,1482 -93,2046 -101,563 -207,1093 -96,1623 111,531 440,1063 824,1557 384,495 824,951 1094,1251 270,300 371,443 467,579 96,136 189,264 334,838 145,574 343,1595 418,2303 75,709 26,1106 -3,1500 -28,396 -36,789 -69,1290 -32,501 -89,1109 -81,1667 8,558 81,1066 438,1819 357,754 998,1753 1605,2560 607,808 1179,1425 1564,1812 385,388 582,546 759,828 177,282 335,686 465,1203 130,518 234,1148 289,1878 56,730 64,1561 52,2483 -12,922 -45,1934 143,2856 187,922 594,1752 1048,2454 453,702 952,1275 1323,1739 371,465 613,820 815,1171 203,350 365,695 528,1099 163,405 326,869 450,1408 123,539 207,1153 323,1709 115,557 262,1056 357,1618 95,562 138,1187 304,2099 166,912 453,2112 646,3116 193,1005 291,1814 396,2531 106,717 220,1341 310,2175 89,833 155,1876 280,2641 124,766 309,1255 442,1990 133,736 214,1719 285,2297 71,579 130,752 274,907 144,155 372,290 679,442 307,153 692,321 1086,576 394,255 796,597 1257,990 462,392 983,834 1546,1188 564,352 1169,616 1745,818 575,202 1121,343 1722,497 602,153 1259,319 2147,474 887,154 2006,298 2867,397 860,100 1463,154 2700,174 1236,21 3107,7 4534,-32 1426,-40 2409,-105 3661,-214 1252,-108 2772,-260 4550,-449 1779,-188 3815,-414 5523,-572 1707,-159 3087,-252 4504,-330 1417,-79 2872,-144 4136,-180 1264,-35 2336,-40 4548,-77 2211,-37 5561,-105 7790,-171 2229,-67 3337,-132 4993,-333 1657,-201 3861,-537 5223,-773 1362,-237 1881,-373 2235,-519 354,-146 543,-303 694,-404 152,-102 266,-148 573,-258 306,-110 806,-284 1386,-483 579,-200 1239,-425 1759,-648 520,-222 900,-442 1145,-582 246,-140 358,-200 538,-211 181,-10 430,28 638,-23 208,-50 374,-188 595,-396 221,-208 498,-485 609,-911 111,-426 57,-1002 63,-2454 5,-1453 70,-3782 49,-6375 -22,-2593 -131,-5449 -185,-7192 -54,-1743 -54,-2373 -54,-3263 0,-891 0,-2042 -27,-3120 -28,-1078 -82,-2082 -106,-3122 -25,-1040 -19,-2115 -87,-3817 -68,-1703 -209,-4032 -285,-5916 -76,-1884 -87,-3324 -220,-7152 -133,-3828 -388,-10045 -885,-16183 -497,-6139 -1236,-12199 -2170,-17954 -933,-5756 -2063,-11208 -3181,-16388 -1119,-5180 -2227,-10089 -3682,-15106 -1455,-5017 -3258,-10143 -4995,-14759 -1738,-4615 -3410,-8720 -4398,-11100 -989,-2379 -1293,-3034 -1423,-3457 -130,-424 -87,-617 9,-765 97,-147 246,-251 367,-332 13,-9 27,-18 39,-28 -39,-2 -84,-4 -137,-7 -99,-6 -231,-13 -660,-46 -428,-34 -1152,-94 -2111,-102 -959,-8 -2154,36 -3406,126 -1253,90 -2563,228 -4608,579 -2046,351 -4826,916 -7121,1427 -2295,510 -4105,966 -6479,1437 -2375,470 -5315,955 -8265,1350 -2950,394 -5912,698 -9495,1024 -3584,326 -7790,674 -11305,920 -3515,246 -6339,391 -8920,532 -2581,141 -4920,278 -7577,384 -2657,105 -5632,177 -8586,238 -2954,62 -5886,113 -8681,106 -2794,-8 -5451,-73 -7942,-131 -2491,-58 -4815,-108 -7331,-184 -2515,-77 -5223,-178 -8546,-272 -3323,-94 -7262,-181 -11436,-206 -4174,-26 -8583,11 -12232,7 -3649,-4 -6538,-47 -10357,-196 -3819,-148 -8568,-401 -11984,-657 -3415,-255 -5497,-512 -7010,-814 -1514,-303 -2460,-651 -3406,-999 42,61 20,179 -26,595 -59,524 -156,1520 -428,3353 -271,1833 -717,4502 -1007,6455 -291,1954 -426,3192 -752,5230 -326,2040 -842,4880 -1257,7383 -415,2503 -731,4669 -980,6496 -250,1828 -435,3315 -606,5042 -171,1727 -328,3692 -499,6071 -171,2378 -356,5169 -541,8286 -184,3117 -369,6559 -504,10230 -136,3671 -223,7569 -196,11560 27,3991 169,8074 446,12044 277,3969 689,7824 961,11289 271,3464 401,6537 461,9936 60,3399 49,7124 87,11398 38,4273 125,9095 212,13118 87,4024 173,7249 254,9470 80,2221 153,3437 183,4165 30,728 16,967 26,2123 9,1157 42,3231 74,4711 33,1479 66,2364 131,2891 65,527 163,695 459,1005 296,309 790,760 2506,1121 1715,361 4653,632 7455,874 2802,242 5468,453 9991,695 4523,242 10904,513 15617,717 4713,203 7759,339 10431,363 2671,25 4968,-62 7289,-135 2322,-74 4668,-133 6905,-207 2237,-73 4366,-160 7366,-537 3000,-377 6871,-1046 9290,-1540 2419,-494 3386,-814 4236,-1246 849,-431 1582,-974 1979,-1319 396,-345 456,-492 513,-769z"/>
 </g>
</svg>
