<?xml version="1.0" encoding="UTF-8"?>
<!DOCTYPE svg PUBLIC "-//W3C//DTD SVG 1.1//EN" "http://www.w3.org/Graphics/SVG/1.1/DTD/svg11.dtd">
<!-- Creator: CorelDRAW -->
<svg xmlns="http://www.w3.org/2000/svg" xml:space="preserve" width="181px" height="149px" version="1.1" shape-rendering="geometricPrecision" text-rendering="geometricPrecision" image-rendering="optimizeQuality" fill-rule="evenodd" clip-rule="evenodd"
viewBox="0 0 205.498 169.387"
 xmlns:xlink="http://www.w3.org/1999/xlink"
 xmlns:xodm="http://www.corel.com/coreldraw/odm/2003">
 <defs>
   <clipPath id="id0">
    <path d="M91.234 163.341c0.06,-0.29 0.117,-0.718 0.209,-2.252 0.091,-1.534 0.216,-4.174 0.518,-9.369 0.303,-5.195 0.782,-12.944 1.164,-18.604 0.382,-5.659 0.667,-9.229 1.038,-13.175 0.37,-3.946 0.826,-8.268 1.397,-12.773 0.57,-4.505 1.254,-9.192 2.132,-14.518 0.879,-5.326 1.95,-11.291 2.766,-15.197 0.815,-3.906 1.374,-5.753 1.733,-6.921 0.358,-1.167 0.516,-1.655 0.64,-1.921 0.123,-0.267 0.212,-0.313 0.296,-0.305 0.084,0.008 0.164,0.069 0.266,0.183 0.103,0.113 0.228,0.278 0.391,0.627 0.163,0.349 0.362,0.88 0.684,1.602 0.321,0.721 0.764,1.632 1.146,2.525 0.381,0.893 0.7,1.768 0.836,2.443 0.135,0.674 0.087,1.147 0.127,1.679 0.04,0.532 0.168,1.122 0.504,1.619 0.337,0.498 0.881,0.903 1.195,1.44 0.314,0.538 0.396,1.208 0.602,2.158 0.205,0.951 0.533,2.183 0.646,3.113 0.112,0.929 0.009,1.556 -0.098,2.148 -0.106,0.591 -0.218,1.148 -0.101,1.705 0.117,0.557 0.462,1.116 0.865,1.635 0.404,0.519 0.866,0.998 1.149,1.313 0.284,0.315 0.39,0.466 0.491,0.609 0.101,0.142 0.198,0.276 0.351,0.879 0.152,0.603 0.36,1.675 0.439,2.419 0.078,0.745 0.027,1.161 -0.003,1.576 -0.03,0.415 -0.039,0.828 -0.073,1.354 -0.034,0.526 -0.094,1.165 -0.085,1.751 0.008,0.586 0.085,1.119 0.46,1.91 0.375,0.791 1.048,1.84 1.685,2.689 0.637,0.848 1.239,1.495 1.643,1.902 0.404,0.407 0.611,0.574 0.797,0.87 0.186,0.296 0.351,0.72 0.488,1.263 0.137,0.544 0.246,1.205 0.304,1.972 0.058,0.767 0.067,1.64 0.054,2.608 -0.013,0.968 -0.047,2.031 0.15,2.999 0.197,0.968 0.624,1.84 1.101,2.577 0.476,0.738 1,1.339 1.389,1.826 0.39,0.488 0.644,0.862 0.856,1.23 0.213,0.367 0.384,0.729 0.555,1.154 0.171,0.425 0.342,0.913 0.472,1.479 0.13,0.566 0.218,1.21 0.339,1.795 0.121,0.584 0.275,1.108 0.375,1.699 0.1,0.59 0.145,1.246 0.32,2.204 0.174,0.958 0.476,2.218 0.678,3.273 0.203,1.055 0.305,1.904 0.416,2.657 0.112,0.753 0.231,1.409 0.325,2.284 0.094,0.875 0.163,1.97 0.294,2.774 0.131,0.804 0.325,1.317 0.465,2.09 0.14,0.772 0.225,1.805 0.299,2.412 0.074,0.607 0.137,0.79 0.288,0.952 0.104,0.112 0.251,0.215 0.437,0.32 -0.079,-0.368 -0.154,-0.732 -0.127,-0.999 0.028,-0.278 0.168,-0.45 0.332,-0.556 0.164,-0.105 0.352,-0.145 0.75,-0.063 0.398,0.082 1.007,0.284 1.729,0.399 0.723,0.115 1.56,0.144 2.868,0.151 1.309,0.007 3.089,-0.007 5.568,-0.327 2.479,-0.319 5.657,-0.943 8.788,-1.599 3.132,-0.656 6.217,-1.344 9.657,-2.107 3.44,-0.762 7.234,-1.599 10.248,-2.124 3.014,-0.525 5.249,-0.737 8.16,-0.854 2.912,-0.118 6.502,-0.139 10.137,0.024 3.635,0.163 7.316,0.511 9.976,0.862 2.66,0.351 4.298,0.706 5.688,1.227 1.391,0.522 2.533,1.21 3.226,1.734 0.693,0.524 0.938,0.884 1.054,1.193 0.116,0.309 0.104,0.568 -0.007,0.887 -0.11,0.319 -0.318,0.698 -0.526,1.077 0.192,-0.063 0.354,-0.202 0.566,-0.399 0.232,-0.218 0.523,-0.509 0.64,-0.957 0.116,-0.447 0.059,-1.052 0.065,-2.577 0.006,-1.525 0.074,-3.972 0.052,-6.694 -0.023,-2.724 -0.137,-5.723 -0.194,-7.553 -0.057,-1.831 -0.057,-2.492 -0.057,-3.427 0,-0.936 0,-2.144 -0.029,-3.276 -0.028,-1.132 -0.085,-2.187 -0.111,-3.279 -0.025,-1.092 -0.02,-2.221 -0.091,-4.009 -0.072,-1.787 -0.22,-4.234 -0.3,-6.212 -0.079,-1.979 -0.091,-3.49 -0.231,-7.51 -0.139,-4.02 -0.407,-10.55 -0.929,-16.996 -0.522,-6.446 -1.297,-12.81 -2.278,-18.854 -0.981,-6.045 -2.167,-11.77 -3.341,-17.21 -1.175,-5.44 -2.338,-10.594 -3.867,-15.864 -1.528,-5.268 -3.421,-10.651 -5.246,-15.498 -1.824,-4.847 -3.581,-9.158 -4.618,-11.657 -1.038,-2.499 -1.357,-3.186 -1.494,-3.631 -0.137,-0.445 -0.092,-0.647 0.009,-0.803 0.102,-0.155 0.258,-0.263 0.386,-0.349 0.014,-0.01 0.028,-0.019 0.041,-0.029 -0.042,-0.002 -0.088,-0.005 -0.144,-0.008 -0.105,-0.005 -0.243,-0.013 -0.693,-0.048 -0.449,-0.035 -1.21,-0.098 -2.217,-0.107 -1.008,-0.008 -2.262,0.038 -3.577,0.132 -1.316,0.095 -2.692,0.24 -4.839,0.609 -2.148,0.368 -5.068,0.962 -7.478,1.498 -2.41,0.535 -4.311,1.014 -6.805,1.509 -2.494,0.494 -5.581,1.003 -8.679,1.418 -3.098,0.414 -6.208,0.733 -9.971,1.076 -3.764,0.341 -8.181,0.707 -11.872,0.965 -3.692,0.259 -6.657,0.41 -9.367,0.559 -2.711,0.148 -5.167,0.292 -7.957,0.403 -2.79,0.11 -5.915,0.186 -9.017,0.251 -3.102,0.064 -6.181,0.117 -9.116,0.11 -2.935,-0.008 -5.725,-0.076 -8.341,-0.137 -2.615,-0.061 -5.056,-0.114 -7.698,-0.194 -2.642,-0.08 -5.486,-0.186 -8.975,-0.285 -3.49,-0.099 -7.626,-0.19 -12.01,-0.217 -4.383,-0.026 -9.013,0.012 -12.845,0.008 -3.832,-0.004 -6.865,-0.049 -10.876,-0.205 -4.011,-0.156 -8.998,-0.422 -12.585,-0.69 -3.587,-0.268 -5.773,-0.538 -7.362,-0.856 -1.59,-0.318 -2.583,-0.683 -3.577,-1.049 0.044,0.064 0.021,0.188 -0.027,0.625 -0.062,0.551 -0.164,1.597 -0.449,3.521 -0.286,1.925 -0.753,4.728 -1.058,6.779 -0.305,2.052 -0.448,3.352 -0.79,5.493 -0.342,2.141 -0.884,5.124 -1.32,7.752 -0.436,2.629 -0.767,4.904 -1.029,6.823 -0.263,1.919 -0.457,3.481 -0.636,5.294 -0.18,1.814 -0.345,3.878 -0.525,6.376 -0.18,2.497 -0.373,5.428 -0.567,8.701 -0.194,3.273 -0.388,6.888 -0.53,10.743 -0.143,3.855 -0.234,7.949 -0.206,12.14 0.029,4.192 0.177,8.48 0.468,12.648 0.291,4.169 0.724,8.217 1.009,11.855 0.285,3.638 0.422,6.865 0.485,10.435 0.063,3.57 0.051,7.481 0.091,11.969 0.04,4.488 0.131,9.552 0.223,13.777 0.091,4.225 0.182,7.612 0.266,9.945 0.084,2.332 0.162,3.609 0.193,4.373 0.031,0.764 0.017,1.015 0.027,2.23 0.01,1.214 0.044,3.393 0.078,4.946 0.035,1.554 0.069,2.484 0.137,3.037 0.068,0.553 0.171,0.73 0.482,1.055 0.311,0.325 0.83,0.798 2.632,1.177 1.802,0.38 4.886,0.665 7.829,0.918 2.942,0.254 5.742,0.476 10.492,0.73 4.75,0.254 11.451,0.539 16.4,0.753 4.95,0.214 8.149,0.356 10.954,0.382 2.806,0.026 5.218,-0.066 7.656,-0.143 2.438,-0.077 4.901,-0.139 7.25,-0.216 2.35,-0.077 4.585,-0.168 7.735,-0.565 3.151,-0.396 7.217,-1.098 9.757,-1.616 2.54,-0.519 3.556,-0.856 4.448,-1.309 0.892,-0.453 1.662,-1.024 2.078,-1.386 0.417,-0.362 0.479,-0.516 0.539,-0.807z"/>
   </clipPath>
    <clipPath id="id1">
     <path d="M126.868 7.208c-3.692,0.259 -6.657,0.41 -9.367,0.559 -2.711,0.148 -5.167,0.292 -7.957,0.403 -2.79,0.11 -5.915,0.186 -9.017,0.251l-0.168 0.003 -0.203 0.004 -0.658 0.014 -0.07 0.001 -0.359 0.007 -0.209 0.004 -0.131 0.003 -0.253 0.004 -0.26 0.005 -0.531 0.009 -0.079 0.002 -0.276 0.004 -0.23 0.004 -0.357 0.006 -0.115 0.002 -0.088 0.001 -0.101 0.001 -0.118 0.002 -0.783 0.01 -0.066 0.001c0.077,0.533 0.157,1.09 0.241,1.678 0.521,3.612 1.205,8.363 1.612,11.976 0.408,3.612 0.539,6.086 1.088,9.846 0.549,3.758 1.516,8.803 2.362,13.439 0.846,4.636 1.571,8.864 2.128,11.482 0.557,2.618 0.946,3.625 1.265,4.398 0.319,0.772 0.568,1.31 0.72,1.7 0.152,0.39 0.206,0.631 0.184,0.807 -0.021,0.175 -0.12,0.285 -0.256,0.446 -0.135,0.161 -0.307,0.373 -0.481,0.599 -0.173,0.226 -0.349,0.466 -0.581,1.057 -0.233,0.592 -0.523,1.535 -0.813,2.478l0.001 -0.001c0.014,-0.019 0.028,-0.034 0.041,-0.047l0.006 -0.006 0.009 -0.009 0.004 -0.004 0.005 -0.003 0.011 -0.008 0.001 -0.001 0.023 -0.014 0.005 -0.002 0.001 -0.001 0.01 -0.004 0.022 -0.006 0.001 0 0.004 0 0.003 -0.001 0.005 -0.001 0.007 0 0.002 0 0.005 -0.001 0.004 0 0.005 0.001 0.003 0 0.004 0 0.004 0c0.084,0.008 0.164,0.069 0.266,0.183 0.103,0.113 0.228,0.278 0.391,0.627 0.163,0.349 0.362,0.88 0.684,1.602 0.321,0.721 0.764,1.632 1.146,2.525 0.381,0.893 0.7,1.768 0.836,2.443 0.135,0.674 0.087,1.147 0.127,1.679 0.04,0.532 0.168,1.122 0.504,1.619 0.337,0.498 0.881,0.903 1.195,1.44 0.314,0.538 0.396,1.208 0.602,2.158 0.205,0.951 0.533,2.183 0.646,3.113 0.112,0.929 0.009,1.556 -0.098,2.148 -0.106,0.591 -0.218,1.148 -0.101,1.705 0.117,0.557 0.462,1.116 0.865,1.635 0.404,0.519 0.866,0.998 1.149,1.313 0.284,0.315 0.39,0.466 0.491,0.609 0.101,0.142 0.198,0.276 0.351,0.879 0.152,0.603 0.36,1.675 0.439,2.419 0.078,0.745 0.027,1.161 -0.003,1.576 -0.03,0.415 -0.039,0.828 -0.073,1.354 -0.034,0.526 -0.094,1.165 -0.085,1.751 0.008,0.586 0.085,1.119 0.46,1.91 0.375,0.791 1.048,1.84 1.685,2.689 0.637,0.848 1.239,1.495 1.643,1.902 0.404,0.407 0.611,0.574 0.797,0.87 0.186,0.296 0.351,0.72 0.488,1.263 0.137,0.544 0.246,1.205 0.304,1.972 0.058,0.767 0.067,1.64 0.054,2.608 -0.013,0.968 -0.047,2.031 0.15,2.999 0.197,0.968 0.624,1.84 1.101,2.577 0.476,0.738 1,1.339 1.389,1.826 0.39,0.488 0.644,0.862 0.856,1.23 0.213,0.367 0.384,0.729 0.555,1.154 0.171,0.425 0.342,0.913 0.472,1.479 0.13,0.566 0.218,1.21 0.339,1.795 0.121,0.584 0.275,1.108 0.375,1.699 0.1,0.59 0.145,1.246 0.32,2.204 0.174,0.958 0.476,2.218 0.678,3.273 0.203,1.055 0.305,1.904 0.416,2.657 0.112,0.753 0.231,1.409 0.325,2.284 0.094,0.875 0.163,1.97 0.294,2.774 0.131,0.804 0.325,1.317 0.465,2.09 0.14,0.772 0.225,1.805 0.299,2.412 0.074,0.607 0.137,0.79 0.288,0.952l0.005 0.005 0.005 0.006 0.005 0.005 0.01 0.01 0.006 0.005 0.015 0.016 0.012 0.01 0.005 0.005 0.006 0.005 0.005 0.006 0.006 0.005 0.012 0.01 0.012 0.01 0.006 0.005 0.006 0.005 0.013 0.01 0.006 0.005 0.019 0.015 0.007 0.005 0.007 0.005 0.02 0.015 0.007 0.005 0.007 0.005 0.028 0.02 0.014 0.009 0.008 0.005 0.015 0.01 0.015 0.01 0.015 0.01 0.008 0.005 0.016 0.009 0.008 0.005 0.008 0.005 0.016 0.01 0.016 0.01 0.025 0.014 0.009 0.006 0.008 0.004 0.009 0.005 0.009 0.005 0.008 0.005c-0.079,-0.368 -0.154,-0.732 -0.127,-0.999 0.028,-0.278 0.168,-0.45 0.332,-0.556 0.164,-0.105 0.352,-0.145 0.75,-0.063 0.398,0.082 1.007,0.284 1.729,0.399 0.723,0.115 1.56,0.144 2.868,0.151 1.309,0.007 3.089,-0.007 5.568,-0.327 2.479,-0.319 5.657,-0.943 8.788,-1.599 3.132,-0.656 6.217,-1.344 9.657,-2.107 3.44,-0.762 7.234,-1.599 10.248,-2.124 3.014,-0.525 5.249,-0.737 8.16,-0.854 2.912,-0.118 6.502,-0.139 10.137,0.024 3.635,0.163 7.316,0.511 9.976,0.862 2.66,0.351 4.298,0.706 5.688,1.227 1.391,0.522 2.533,1.21 3.226,1.734 0.693,0.524 0.938,0.884 1.054,1.193 0.116,0.309 0.104,0.568 -0.007,0.887l-0.005 0.015 -0.011 0.031 -0.006 0.015 -0.011 0.031 -0.012 0.03 -0.02 0.048 -0.006 0.015 -0.014 0.033 -0.014 0.032 -0.008 0.016 -0.022 0.049 -0.015 0.033 -0.008 0.017 -0.032 0.067 -0.008 0.016 -0.026 0.051 -0.017 0.034 -0.017 0.035 -0.018 0.034 -0.055 0.104c-0.064,0.123 -0.132,0.246 -0.201,0.371l0.036 -0.012 0.026 -0.011 0.017 -0.008 0.026 -0.012 0.026 -0.013 0.009 -0.005 0.025 -0.014 0.025 -0.016 0.017 -0.01 0.026 -0.018c0.059,-0.04 0.119,-0.088 0.182,-0.143l0.092 -0.083 0.039 -0.036 0.01 -0.009 0.01 -0.009c0.232,-0.218 0.523,-0.509 0.64,-0.957 0.116,-0.447 0.059,-1.052 0.065,-2.577 0.006,-1.525 0.074,-3.972 0.052,-6.694 -0.023,-2.724 -0.137,-5.723 -0.194,-7.553 -0.057,-1.831 -0.057,-2.492 -0.057,-3.427 0,-0.936 0,-2.144 -0.029,-3.276 -0.028,-1.132 -0.085,-2.187 -0.111,-3.279 -0.025,-1.092 -0.02,-2.221 -0.091,-4.009 -0.072,-1.787 -0.22,-4.234 -0.3,-6.212 -0.079,-1.979 -0.091,-3.49 -0.231,-7.51 -0.139,-4.02 -0.407,-10.55 -0.929,-16.996 -0.522,-6.446 -1.297,-12.81 -2.278,-18.854 -0.981,-6.045 -2.167,-11.77 -3.341,-17.21 -1.175,-5.44 -2.338,-10.594 -3.867,-15.864 -1.528,-5.268 -3.421,-10.651 -5.246,-15.498 -1.824,-4.847 -3.581,-9.158 -4.618,-11.657 -1.038,-2.499 -1.357,-3.186 -1.494,-3.631 -0.137,-0.445 -0.092,-0.647 0.009,-0.803 0.102,-0.155 0.258,-0.263 0.386,-0.349 0.014,-0.01 0.028,-0.019 0.041,-0.029 -0.042,-0.002 -0.088,-0.005 -0.144,-0.008 -0.105,-0.005 -0.243,-0.013 -0.693,-0.048 -0.449,-0.035 -1.21,-0.098 -2.217,-0.107 -1.008,-0.008 -2.262,0.038 -3.577,0.132 -1.316,0.095 -2.692,0.24 -4.839,0.609 -2.148,0.368 -5.068,0.962 -7.478,1.498 -2.41,0.535 -4.311,1.014 -6.805,1.509 -2.494,0.494 -5.581,1.003 -8.679,1.418 -3.098,0.414 -6.208,0.733 -9.971,1.076 -3.764,0.341 -8.181,0.707 -11.872,0.965z"/>
    </clipPath>
    <clipPath id="id2">
     <path d="M91.234 163.341c0.06,-0.29 0.117,-0.718 0.209,-2.252 0.091,-1.534 0.216,-4.174 0.518,-9.369 0.303,-5.195 0.782,-12.944 1.164,-18.604 0.382,-5.659 0.667,-9.229 1.038,-13.175 0.37,-3.946 0.826,-8.268 1.397,-12.773 0.57,-4.505 1.254,-9.192 2.132,-14.518 0.879,-5.326 1.95,-11.291 2.766,-15.197 0.815,-3.906 1.374,-5.753 1.733,-6.921 0.358,-1.167 0.516,-1.655 0.64,-1.921 0.123,-0.267 0.212,-0.313 0.296,-0.305 0.084,0.008 0.164,0.069 0.266,0.183 0.103,0.113 0.228,0.278 0.391,0.627 0.163,0.349 0.362,0.88 0.684,1.602 0.321,0.721 0.764,1.632 1.146,2.525 0.381,0.893 0.7,1.768 0.836,2.443 0.135,0.674 0.087,1.147 0.127,1.679 0.04,0.532 0.168,1.122 0.504,1.619 0.337,0.498 0.881,0.903 1.195,1.44 0.314,0.538 0.396,1.208 0.602,2.158 0.205,0.951 0.533,2.183 0.646,3.113 0.112,0.929 0.009,1.556 -0.098,2.148 -0.106,0.591 -0.218,1.148 -0.101,1.705 0.117,0.557 0.462,1.116 0.865,1.635 0.404,0.519 0.866,0.998 1.149,1.313 0.284,0.315 0.39,0.466 0.491,0.609 0.101,0.142 0.198,0.276 0.351,0.879 0.152,0.603 0.36,1.675 0.439,2.419 0.078,0.745 0.027,1.161 -0.003,1.576 -0.03,0.415 -0.039,0.828 -0.073,1.354 -0.034,0.526 -0.094,1.165 -0.085,1.751 0.008,0.586 0.085,1.119 0.46,1.91 0.375,0.791 1.048,1.84 1.685,2.689 0.637,0.848 1.239,1.495 1.643,1.902 0.404,0.407 0.611,0.574 0.797,0.87 0.186,0.296 0.351,0.72 0.488,1.263 0.137,0.544 0.246,1.205 0.304,1.972 0.058,0.767 0.067,1.64 0.054,2.608 -0.013,0.968 -0.047,2.031 0.15,2.999 0.197,0.968 0.624,1.84 1.101,2.577 0.476,0.738 1,1.339 1.389,1.826 0.39,0.488 0.644,0.862 0.856,1.23 0.213,0.367 0.384,0.729 0.555,1.154 0.171,0.425 0.342,0.913 0.472,1.479 0.13,0.566 0.218,1.21 0.339,1.795 0.121,0.584 0.275,1.108 0.375,1.699 0.1,0.59 0.145,1.246 0.32,2.204 0.174,0.958 0.476,2.218 0.678,3.273 0.203,1.055 0.305,1.904 0.416,2.657 0.112,0.753 0.231,1.409 0.325,2.284 0.094,0.875 0.163,1.97 0.294,2.774 0.131,0.804 0.325,1.317 0.465,2.09 0.14,0.772 0.225,1.805 0.299,2.412 0.074,0.607 0.137,0.79 0.288,0.952 0.104,0.112 0.251,0.215 0.437,0.32 -0.079,-0.368 -0.154,-0.732 -0.127,-0.999 0.028,-0.278 0.168,-0.45 0.332,-0.556 0.164,-0.105 0.352,-0.145 0.75,-0.063 0.398,0.082 1.007,0.284 1.729,0.399 0.723,0.115 1.56,0.144 2.868,0.151 1.309,0.007 3.089,-0.007 5.568,-0.327 2.479,-0.319 5.657,-0.943 8.788,-1.599 3.132,-0.656 6.217,-1.344 9.657,-2.107 3.44,-0.762 7.234,-1.599 10.248,-2.124 3.014,-0.525 5.249,-0.737 8.16,-0.854 2.912,-0.118 6.502,-0.139 10.137,0.024 3.635,0.163 7.316,0.511 9.976,0.862 2.66,0.351 4.298,0.706 5.688,1.227 1.391,0.522 2.533,1.21 3.226,1.734 0.693,0.524 0.938,0.884 1.054,1.193 0.116,0.309 0.104,0.568 -0.007,0.887 -0.11,0.319 -0.318,0.698 -0.526,1.077 0.192,-0.063 0.354,-0.202 0.566,-0.399 0.232,-0.218 0.523,-0.509 0.64,-0.957 0.116,-0.447 0.059,-1.052 0.065,-2.577 0.006,-1.525 0.074,-3.972 0.052,-6.694 -0.023,-2.724 -0.137,-5.723 -0.194,-7.553 -0.057,-1.831 -0.057,-2.492 -0.057,-3.427 0,-0.936 0,-2.144 -0.029,-3.276 -0.028,-1.132 -0.085,-2.187 -0.111,-3.279 -0.025,-1.092 -0.02,-2.221 -0.091,-4.009 -0.072,-1.787 -0.22,-4.234 -0.3,-6.212 -0.079,-1.979 -0.091,-3.49 -0.231,-7.51 -0.139,-4.02 -0.407,-10.55 -0.929,-16.996 -0.522,-6.446 -1.297,-12.81 -2.278,-18.854 -0.981,-6.045 -2.167,-11.77 -3.341,-17.21 -1.175,-5.44 -2.338,-10.594 -3.867,-15.864 -1.528,-5.268 -3.421,-10.651 -5.246,-15.498 -1.824,-4.847 -3.581,-9.158 -4.618,-11.657 -1.038,-2.499 -1.357,-3.186 -1.494,-3.631 -0.137,-0.445 -0.092,-0.647 0.009,-0.803 0.102,-0.155 0.258,-0.263 0.386,-0.349 0.014,-0.01 0.028,-0.019 0.041,-0.029 -0.042,-0.002 -0.088,-0.005 -0.144,-0.008 -0.105,-0.005 -0.243,-0.013 -0.693,-0.048 -0.449,-0.035 -1.21,-0.098 -2.217,-0.107 -1.008,-0.008 -2.262,0.038 -3.577,0.132 -1.316,0.095 -2.692,0.24 -4.839,0.609 -2.148,0.368 -5.068,0.962 -7.478,1.498 -2.41,0.535 -4.311,1.014 -6.805,1.509 -2.494,0.494 -5.581,1.003 -8.679,1.418 -3.098,0.414 -6.208,0.733 -9.971,1.076 -3.764,0.341 -8.181,0.707 -11.872,0.965 -3.692,0.259 -6.657,0.41 -9.367,0.559 -2.711,0.148 -5.167,0.292 -7.957,0.403 -2.79,0.11 -5.915,0.186 -9.017,0.251 -3.102,0.064 -6.181,0.117 -9.116,0.11 -2.935,-0.008 -5.725,-0.076 -8.341,-0.137 -2.615,-0.061 -5.056,-0.114 -7.698,-0.194 -2.642,-0.08 -5.486,-0.186 -8.975,-0.285 -3.49,-0.099 -7.626,-0.19 -12.01,-0.217 -4.383,-0.026 -9.013,0.012 -12.845,0.008 -3.832,-0.004 -6.865,-0.049 -10.876,-0.205 -4.011,-0.156 -8.998,-0.422 -12.585,-0.69 -3.587,-0.268 -5.773,-0.538 -7.362,-0.856 -1.59,-0.318 -2.583,-0.683 -3.577,-1.049 0.044,0.064 0.021,0.188 -0.027,0.625 -0.062,0.551 -0.164,1.597 -0.449,3.521 -0.286,1.925 -0.753,4.728 -1.058,6.779 -0.305,2.052 -0.448,3.352 -0.79,5.493 -0.342,2.141 -0.884,5.124 -1.32,7.752 -0.436,2.629 -0.767,4.904 -1.029,6.823 -0.263,1.919 -0.457,3.481 -0.636,5.294 -0.18,1.814 -0.345,3.878 -0.525,6.376 -0.18,2.497 -0.373,5.428 -0.567,8.701 -0.194,3.273 -0.388,6.888 -0.53,10.743 -0.143,3.855 -0.234,7.949 -0.206,12.14 0.029,4.192 0.177,8.48 0.468,12.648 0.291,4.169 0.724,8.217 1.009,11.855 0.285,3.638 0.422,6.865 0.485,10.435 0.063,3.57 0.051,7.481 0.091,11.969 0.04,4.488 0.131,9.552 0.223,13.777 0.091,4.225 0.182,7.612 0.266,9.945 0.084,2.332 0.162,3.609 0.193,4.373 0.031,0.764 0.017,1.015 0.027,2.23 0.01,1.214 0.044,3.393 0.078,4.946 0.035,1.554 0.069,2.484 0.137,3.037 0.068,0.553 0.171,0.73 0.482,1.055 0.311,0.325 0.83,0.798 2.632,1.177 1.802,0.38 4.886,0.665 7.829,0.918 2.942,0.254 5.742,0.476 10.492,0.73 4.75,0.254 11.451,0.539 16.4,0.753 4.95,0.214 8.149,0.356 10.954,0.382 2.806,0.026 5.218,-0.066 7.656,-0.143 2.438,-0.077 4.901,-0.139 7.25,-0.216 2.35,-0.077 4.585,-0.168 7.735,-0.565 3.151,-0.396 7.217,-1.098 9.757,-1.616 2.54,-0.519 3.556,-0.856 4.448,-1.309 0.892,-0.453 1.662,-1.024 2.078,-1.386 0.417,-0.362 0.479,-0.516 0.539,-0.807z"/>
    </clipPath>
    <clipPath id="id3">
     <path d="M66.397 7.915c-3.49,-0.099 -7.626,-0.19 -12.01,-0.217 -4.383,-0.026 -9.013,0.012 -12.845,0.008 -3.832,-0.004 -6.865,-0.049 -10.876,-0.205 -4.011,-0.156 -8.998,-0.422 -12.585,-0.69 -3.587,-0.268 -5.773,-0.538 -7.362,-0.856 -1.59,-0.318 -2.583,-0.683 -3.577,-1.049 0.044,0.064 0.021,0.188 -0.027,0.625 -0.062,0.551 -0.164,1.597 -0.449,3.521 -0.286,1.925 -0.753,4.728 -1.058,6.779 -0.305,2.052 -0.448,3.352 -0.79,5.493 -0.342,2.141 -0.884,5.124 -1.32,7.752 -0.436,2.629 -0.767,4.904 -1.029,6.823 -0.263,1.919 -0.457,3.481 -0.636,5.294 -0.18,1.814 -0.345,3.878 -0.525,6.376 -0.18,2.497 -0.373,5.428 -0.567,8.701 -0.194,3.273 -0.388,6.888 -0.53,10.743 -0.143,3.855 -0.234,7.949 -0.206,12.14 0.029,4.192 0.177,8.48 0.468,12.648 0.291,4.169 0.724,8.217 1.009,11.855 0.285,3.638 0.422,6.865 0.485,10.435 0.063,3.57 0.051,7.481 0.091,11.969 0.04,4.488 0.131,9.552 0.223,13.777 0.091,4.225 0.182,7.612 0.266,9.945 0.084,2.332 0.162,3.609 0.193,4.373 0.031,0.764 0.017,1.015 0.027,2.23 0.01,1.214 0.044,3.393 0.078,4.946 0.035,1.554 0.069,2.484 0.137,3.037 0.068,0.553 0.171,0.73 0.482,1.055 0.311,0.325 0.83,0.798 2.632,1.177 1.802,0.38 4.886,0.665 7.829,0.918 2.942,0.254 5.742,0.476 10.492,0.73 4.75,0.254 11.451,0.539 16.4,0.753 4.95,0.214 8.149,0.356 10.954,0.382 2.806,0.026 5.218,-0.066 7.656,-0.143 2.438,-0.077 4.901,-0.139 7.25,-0.216 2.35,-0.077 4.585,-0.168 7.735,-0.565 3.151,-0.396 7.217,-1.098 9.757,-1.616 2.54,-0.519 3.556,-0.856 4.448,-1.309 0.892,-0.453 1.662,-1.024 2.078,-1.386 0.417,-0.362 0.479,-0.516 0.539,-0.807 0.06,-0.29 0.117,-0.718 0.209,-2.252 0.091,-1.534 0.216,-4.174 0.518,-9.369 0.303,-5.195 0.782,-12.944 1.164,-18.604 0.382,-5.659 0.667,-9.229 1.038,-13.175 0.37,-3.946 0.826,-8.268 1.397,-12.773 0.57,-4.505 1.254,-9.192 2.132,-14.518 0.879,-5.326 1.95,-11.291 2.766,-15.197 0.815,-3.906 1.374,-5.753 1.733,-6.921 0.358,-1.167 0.516,-1.655 0.64,-1.921l0.003 -0.007 0.001 -0.002 0.008 -0.016 0.002 -0.005 0.003 -0.006 0.003 -0.005 0.002 -0.006 0.002 -0.004 0.004 -0.007 0.003 -0.005 0.002 -0.005 0 -0.001 0.003 -0.005 0.001 -0.002 0.002 -0.004 0.002 -0.003 0.002 -0.005 0.002 -0.002 0.001 -0.002 0.007 -0.013 0.002 -0.005 0.002 -0.003 0.002 -0.004 0.003 -0.005 0.011 -0.018 0 -0.001 0.003 -0.004 0.007 -0.011 0.006 -0.01 0.018 -0.026 0.003 -0.005c0.29,-0.943 0.58,-1.886 0.813,-2.478 0.232,-0.591 0.408,-0.831 0.581,-1.057 0.174,-0.226 0.346,-0.438 0.481,-0.599 0.136,-0.161 0.235,-0.271 0.256,-0.446 0.022,-0.176 -0.032,-0.417 -0.184,-0.807 -0.152,-0.39 -0.401,-0.928 -0.72,-1.7 -0.319,-0.773 -0.708,-1.78 -1.265,-4.398 -0.557,-2.618 -1.282,-6.846 -2.128,-11.482 -0.846,-4.636 -1.813,-9.681 -2.362,-13.439 -0.549,-3.76 -0.68,-6.234 -1.088,-9.846 -0.407,-3.613 -1.091,-8.364 -1.612,-11.976 -0.084,-0.588 -0.164,-1.145 -0.241,-1.678l-0.105 0.002 -0.092 0.001 -0.082 0.001 -0.164 0.002 -0.186 0.002 -0.056 0 -0.048 0.001 -0.206 0.002 -0.132 0.001 -0.185 0.002 -0.15 0.001 -0.008 0 -0.096 0.001 -0.083 0 -0.016 0 -0.162 0.001 -0.036 0 -0.142 0.001 -0.854 0.005 -0.012 0 -0.103 0 -0.036 0 -0.079 0 -0.06 0 -0.155 0.001 -0.502 0 -0.174 -0.001 -0.024 0 -0.113 0c-2.935,-0.008 -5.725,-0.076 -8.341,-0.137 -2.615,-0.061 -5.056,-0.114 -7.698,-0.194 -2.642,-0.08 -5.486,-0.186 -8.975,-0.285z"/>
    </clipPath>
    <clipPath id="id4">
     <path d="M91.234 163.341c0.06,-0.29 0.117,-0.718 0.209,-2.252 0.091,-1.534 0.216,-4.174 0.518,-9.369 0.303,-5.195 0.782,-12.944 1.164,-18.604 0.382,-5.659 0.667,-9.229 1.038,-13.175 0.37,-3.946 0.826,-8.268 1.397,-12.773 0.57,-4.505 1.254,-9.192 2.132,-14.518 0.879,-5.326 1.95,-11.291 2.766,-15.197 0.815,-3.906 1.374,-5.753 1.733,-6.921 0.358,-1.167 0.516,-1.655 0.64,-1.921 0.123,-0.267 0.212,-0.313 0.296,-0.305 0.084,0.008 0.164,0.069 0.266,0.183 0.103,0.113 0.228,0.278 0.391,0.627 0.163,0.349 0.362,0.88 0.684,1.602 0.321,0.721 0.764,1.632 1.146,2.525 0.381,0.893 0.7,1.768 0.836,2.443 0.135,0.674 0.087,1.147 0.127,1.679 0.04,0.532 0.168,1.122 0.504,1.619 0.337,0.498 0.881,0.903 1.195,1.44 0.314,0.538 0.396,1.208 0.602,2.158 0.205,0.951 0.533,2.183 0.646,3.113 0.112,0.929 0.009,1.556 -0.098,2.148 -0.106,0.591 -0.218,1.148 -0.101,1.705 0.117,0.557 0.462,1.116 0.865,1.635 0.404,0.519 0.866,0.998 1.149,1.313 0.284,0.315 0.39,0.466 0.491,0.609 0.101,0.142 0.198,0.276 0.351,0.879 0.152,0.603 0.36,1.675 0.439,2.419 0.078,0.745 0.027,1.161 -0.003,1.576 -0.03,0.415 -0.039,0.828 -0.073,1.354 -0.034,0.526 -0.094,1.165 -0.085,1.751 0.008,0.586 0.085,1.119 0.46,1.91 0.375,0.791 1.048,1.84 1.685,2.689 0.637,0.848 1.239,1.495 1.643,1.902 0.404,0.407 0.611,0.574 0.797,0.87 0.186,0.296 0.351,0.72 0.488,1.263 0.137,0.544 0.246,1.205 0.304,1.972 0.058,0.767 0.067,1.64 0.054,2.608 -0.013,0.968 -0.047,2.031 0.15,2.999 0.197,0.968 0.624,1.84 1.101,2.577 0.476,0.738 1,1.339 1.389,1.826 0.39,0.488 0.644,0.862 0.856,1.23 0.213,0.367 0.384,0.729 0.555,1.154 0.171,0.425 0.342,0.913 0.472,1.479 0.13,0.566 0.218,1.21 0.339,1.795 0.121,0.584 0.275,1.108 0.375,1.699 0.1,0.59 0.145,1.246 0.32,2.204 0.174,0.958 0.476,2.218 0.678,3.273 0.203,1.055 0.305,1.904 0.416,2.657 0.112,0.753 0.231,1.409 0.325,2.284 0.094,0.875 0.163,1.97 0.294,2.774 0.131,0.804 0.325,1.317 0.465,2.09 0.14,0.772 0.225,1.805 0.299,2.412 0.074,0.607 0.137,0.79 0.288,0.952 0.104,0.112 0.251,0.215 0.437,0.32 -0.079,-0.368 -0.154,-0.732 -0.127,-0.999 0.028,-0.278 0.168,-0.45 0.332,-0.556 0.164,-0.105 0.352,-0.145 0.75,-0.063 0.398,0.082 1.007,0.284 1.729,0.399 0.723,0.115 1.56,0.144 2.868,0.151 1.309,0.007 3.089,-0.007 5.568,-0.327 2.479,-0.319 5.657,-0.943 8.788,-1.599 3.132,-0.656 6.217,-1.344 9.657,-2.107 3.44,-0.762 7.234,-1.599 10.248,-2.124 3.014,-0.525 5.249,-0.737 8.16,-0.854 2.912,-0.118 6.502,-0.139 10.137,0.024 3.635,0.163 7.316,0.511 9.976,0.862 2.66,0.351 4.298,0.706 5.688,1.227 1.391,0.522 2.533,1.21 3.226,1.734 0.693,0.524 0.938,0.884 1.054,1.193 0.116,0.309 0.104,0.568 -0.007,0.887 -0.11,0.319 -0.318,0.698 -0.526,1.077 0.192,-0.063 0.354,-0.202 0.566,-0.399 0.232,-0.218 0.523,-0.509 0.64,-0.957 0.116,-0.447 0.059,-1.052 0.065,-2.577 0.006,-1.525 0.074,-3.972 0.052,-6.694 -0.023,-2.724 -0.137,-5.723 -0.194,-7.553 -0.057,-1.831 -0.057,-2.492 -0.057,-3.427 0,-0.936 0,-2.144 -0.029,-3.276 -0.028,-1.132 -0.085,-2.187 -0.111,-3.279 -0.025,-1.092 -0.02,-2.221 -0.091,-4.009 -0.072,-1.787 -0.22,-4.234 -0.3,-6.212 -0.079,-1.979 -0.091,-3.49 -0.231,-7.51 -0.139,-4.02 -0.407,-10.55 -0.929,-16.996 -0.522,-6.446 -1.297,-12.81 -2.278,-18.854 -0.981,-6.045 -2.167,-11.77 -3.341,-17.21 -1.175,-5.44 -2.338,-10.594 -3.867,-15.864 -1.528,-5.268 -3.421,-10.651 -5.246,-15.498 -1.824,-4.847 -3.581,-9.158 -4.618,-11.657 -1.038,-2.499 -1.357,-3.186 -1.494,-3.631 -0.137,-0.445 -0.092,-0.647 0.009,-0.803 0.102,-0.155 0.258,-0.263 0.386,-0.349 0.014,-0.01 0.028,-0.019 0.041,-0.029 -0.042,-0.002 -0.088,-0.005 -0.144,-0.008 -0.105,-0.005 -0.243,-0.013 -0.693,-0.048 -0.449,-0.035 -1.21,-0.098 -2.217,-0.107 -1.008,-0.008 -2.262,0.038 -3.577,0.132 -1.316,0.095 -2.692,0.24 -4.839,0.609 -2.148,0.368 -5.068,0.962 -7.478,1.498 -2.41,0.535 -4.311,1.014 -6.805,1.509 -2.494,0.494 -5.581,1.003 -8.679,1.418 -3.098,0.414 -6.208,0.733 -9.971,1.076 -3.764,0.341 -8.181,0.707 -11.872,0.965 -3.692,0.259 -6.657,0.41 -9.367,0.559 -2.711,0.148 -5.167,0.292 -7.957,0.403 -2.79,0.11 -5.915,0.186 -9.017,0.251 -3.102,0.064 -6.181,0.117 -9.116,0.11 -2.935,-0.008 -5.725,-0.076 -8.341,-0.137 -2.615,-0.061 -5.056,-0.114 -7.698,-0.194 -2.642,-0.08 -5.486,-0.186 -8.975,-0.285 -3.49,-0.099 -7.626,-0.19 -12.01,-0.217 -4.383,-0.026 -9.013,0.012 -12.845,0.008 -3.832,-0.004 -6.865,-0.049 -10.876,-0.205 -4.011,-0.156 -8.998,-0.422 -12.585,-0.69 -3.587,-0.268 -5.773,-0.538 -7.362,-0.856 -1.59,-0.318 -2.583,-0.683 -3.577,-1.049 0.044,0.064 0.021,0.188 -0.027,0.625 -0.062,0.551 -0.164,1.597 -0.449,3.521 -0.286,1.925 -0.753,4.728 -1.058,6.779 -0.305,2.052 -0.448,3.352 -0.79,5.493 -0.342,2.141 -0.884,5.124 -1.32,7.752 -0.436,2.629 -0.767,4.904 -1.029,6.823 -0.263,1.919 -0.457,3.481 -0.636,5.294 -0.18,1.814 -0.345,3.878 -0.525,6.376 -0.18,2.497 -0.373,5.428 -0.567,8.701 -0.194,3.273 -0.388,6.888 -0.53,10.743 -0.143,3.855 -0.234,7.949 -0.206,12.14 0.029,4.192 0.177,8.48 0.468,12.648 0.291,4.169 0.724,8.217 1.009,11.855 0.285,3.638 0.422,6.865 0.485,10.435 0.063,3.57 0.051,7.481 0.091,11.969 0.04,4.488 0.131,9.552 0.223,13.777 0.091,4.225 0.182,7.612 0.266,9.945 0.084,2.332 0.162,3.609 0.193,4.373 0.031,0.764 0.017,1.015 0.027,2.23 0.01,1.214 0.044,3.393 0.078,4.946 0.035,1.554 0.069,2.484 0.137,3.037 0.068,0.553 0.171,0.73 0.482,1.055 0.311,0.325 0.83,0.798 2.632,1.177 1.802,0.38 4.886,0.665 7.829,0.918 2.942,0.254 5.742,0.476 10.492,0.73 4.75,0.254 11.451,0.539 16.4,0.753 4.95,0.214 8.149,0.356 10.954,0.382 2.806,0.026 5.218,-0.066 7.656,-0.143 2.438,-0.077 4.901,-0.139 7.25,-0.216 2.35,-0.077 4.585,-0.168 7.735,-0.565 3.151,-0.396 7.217,-1.098 9.757,-1.616 2.54,-0.519 3.556,-0.856 4.448,-1.309 0.892,-0.453 1.662,-1.024 2.078,-1.386 0.417,-0.362 0.479,-0.516 0.539,-0.807z"/>
    </clipPath>
 </defs>
 <g id="VETORES">
  <metadata id="CorelCorpID_0Corel-Layer"/>
  <g>
  </g>
  <g clip-path="url(#id0)">
   <g id="_2070966111824">
    <g>
    </g>
   </g>
   <g clip-path="url(#id1)">
   </g>
   <g clip-path="url(#id2)">
    <path id="perna-direita" fill="none" d="M126.868 7.208c-3.692,0.259 -6.657,0.41 -9.367,0.559 -2.711,0.148 -5.167,0.292 -7.957,0.403 -2.79,0.11 -5.915,0.186 -9.017,0.251 -1.699,0.035 -3.39,0.067 -5.055,0.087 0.077,0.533 0.157,1.09 0.241,1.678 0.521,3.612 1.205,8.363 1.612,11.976 0.408,3.612 0.539,6.086 1.088,9.846 0.549,3.758 1.516,8.803 2.362,13.439 0.846,4.636 1.571,8.864 2.128,11.482 0.557,2.618 0.946,3.625 1.265,4.398 0.319,0.772 0.568,1.31 0.72,1.7 0.152,0.39 0.206,0.631 0.184,0.807 -0.021,0.175 -0.12,0.285 -0.256,0.446 -0.135,0.161 -0.307,0.373 -0.481,0.599 -0.173,0.226 -0.349,0.466 -0.581,1.057 -0.233,0.592 -0.523,1.535 -0.813,2.478 0.07,-0.094 0.129,-0.113 0.186,-0.108 0.084,0.008 0.164,0.069 0.266,0.183 0.103,0.113 0.228,0.278 0.391,0.627 0.163,0.349 0.362,0.88 0.684,1.602 0.321,0.721 0.764,1.632 1.146,2.525 0.381,0.893 0.7,1.768 0.836,2.443 0.135,0.674 0.087,1.147 0.127,1.679 0.04,0.532 0.168,1.122 0.504,1.619 0.337,0.498 0.881,0.903 1.195,1.44 0.314,0.538 0.396,1.208 0.602,2.158 0.205,0.951 0.533,2.183 0.646,3.113 0.112,0.929 0.009,1.556 -0.098,2.148 -0.106,0.591 -0.218,1.148 -0.101,1.705 0.117,0.557 0.462,1.116 0.865,1.635 0.404,0.519 0.866,0.998 1.149,1.313 0.284,0.315 0.39,0.466 0.491,0.609 0.101,0.142 0.198,0.276 0.351,0.879 0.152,0.603 0.36,1.675 0.439,2.419 0.078,0.745 0.027,1.161 -0.003,1.576 -0.03,0.415 -0.039,0.828 -0.073,1.354 -0.034,0.526 -0.094,1.165 -0.085,1.751 0.008,0.586 0.085,1.119 0.46,1.91 0.375,0.791 1.048,1.84 1.685,2.689 0.637,0.848 1.239,1.495 1.643,1.902 0.404,0.407 0.611,0.574 0.797,0.87 0.186,0.296 0.351,0.72 0.488,1.263 0.137,0.544 0.246,1.205 0.304,1.972 0.058,0.767 0.067,1.64 0.054,2.608 -0.013,0.968 -0.047,2.031 0.15,2.999 0.197,0.968 0.624,1.84 1.101,2.577 0.476,0.738 1,1.339 1.389,1.826 0.39,0.488 0.644,0.862 0.856,1.23 0.213,0.367 0.384,0.729 0.555,1.154 0.171,0.425 0.342,0.913 0.472,1.479 0.13,0.566 0.218,1.21 0.339,1.795 0.121,0.584 0.275,1.108 0.375,1.699 0.1,0.59 0.145,1.246 0.32,2.204 0.174,0.958 0.476,2.218 0.678,3.273 0.203,1.055 0.305,1.904 0.416,2.657 0.112,0.753 0.231,1.409 0.325,2.284 0.094,0.875 0.163,1.97 0.294,2.774 0.131,0.804 0.325,1.317 0.465,2.09 0.14,0.772 0.225,1.805 0.299,2.412 0.074,0.607 0.137,0.79 0.288,0.952 0.104,0.112 0.251,0.215 0.437,0.32 -0.079,-0.368 -0.154,-0.732 -0.127,-0.999 0.028,-0.278 0.168,-0.45 0.332,-0.556 0.164,-0.105 0.352,-0.145 0.75,-0.063 0.398,0.082 1.007,0.284 1.729,0.399 0.723,0.115 1.56,0.144 2.868,0.151 1.309,0.007 3.089,-0.007 5.568,-0.327 2.479,-0.319 5.657,-0.943 8.788,-1.599 3.132,-0.656 6.217,-1.344 9.657,-2.107 3.44,-0.762 7.234,-1.599 10.248,-2.124 3.014,-0.525 5.249,-0.737 8.16,-0.854 2.912,-0.118 6.502,-0.139 10.137,0.024 3.635,0.163 7.316,0.511 9.976,0.862 2.66,0.351 4.298,0.706 5.688,1.227 1.391,0.522 2.533,1.21 3.226,1.734 0.693,0.524 0.938,0.884 1.054,1.193 0.116,0.309 0.104,0.568 -0.007,0.887 -0.11,0.319 -0.318,0.698 -0.526,1.078 0.192,-0.064 0.354,-0.202 0.566,-0.4 0.232,-0.218 0.523,-0.509 0.64,-0.957 0.116,-0.447 0.059,-1.052 0.065,-2.577 0.006,-1.525 0.074,-3.972 0.052,-6.694 -0.023,-2.724 -0.137,-5.723 -0.194,-7.553 -0.057,-1.831 -0.057,-2.492 -0.057,-3.427 0,-0.936 0,-2.144 -0.029,-3.276 -0.028,-1.132 -0.085,-2.187 -0.111,-3.279 -0.025,-1.092 -0.02,-2.221 -0.091,-4.009 -0.072,-1.787 -0.22,-4.234 -0.3,-6.212 -0.079,-1.979 -0.091,-3.49 -0.231,-7.51 -0.139,-4.02 -0.407,-10.55 -0.929,-16.996 -0.522,-6.446 -1.297,-12.81 -2.278,-18.854 -0.981,-6.045 -2.167,-11.77 -3.341,-17.21 -1.175,-5.44 -2.338,-10.594 -3.867,-15.864 -1.528,-5.268 -3.421,-10.651 -5.246,-15.498 -1.824,-4.847 -3.581,-9.158 -4.618,-11.657 -1.038,-2.499 -1.357,-3.186 -1.494,-3.631 -0.137,-0.445 -0.092,-0.647 0.009,-0.803 0.102,-0.155 0.258,-0.263 0.386,-0.349 0.014,-0.01 0.028,-0.019 0.041,-0.029 -0.042,-0.002 -0.088,-0.005 -0.144,-0.008 -0.105,-0.005 -0.243,-0.013 -0.693,-0.048 -0.449,-0.035 -1.21,-0.098 -2.217,-0.107 -1.008,-0.008 -2.262,0.038 -3.577,0.132 -1.316,0.095 -2.692,0.24 -4.839,0.609 -2.148,0.368 -5.068,0.962 -7.478,1.498 -2.41,0.535 -4.311,1.014 -6.805,1.509 -2.494,0.494 -5.581,1.003 -8.679,1.418 -3.098,0.414 -6.208,0.733 -9.971,1.076 -3.764,0.341 -8.181,0.707 -11.872,0.965z"/>
    <g>
    </g>
   </g>
   <g clip-path="url(#id3)">
   </g>
   <g clip-path="url(#id4)">
    <path id="perna-esquerda" fill="none" d="M66.397 7.915c-3.49,-0.099 -7.626,-0.19 -12.01,-0.217 -4.383,-0.026 -9.013,0.012 -12.845,0.008 -3.832,-0.004 -6.865,-0.049 -10.876,-0.205 -4.011,-0.156 -8.998,-0.422 -12.585,-0.69 -3.587,-0.268 -5.773,-0.538 -7.362,-0.856 -1.59,-0.318 -2.583,-0.683 -3.577,-1.049 0.044,0.064 0.021,0.188 -0.027,0.625 -0.062,0.551 -0.164,1.597 -0.449,3.521 -0.286,1.925 -0.753,4.728 -1.058,6.779 -0.305,2.052 -0.448,3.352 -0.79,5.493 -0.342,2.141 -0.884,5.124 -1.32,7.752 -0.436,2.629 -0.767,4.904 -1.029,6.823 -0.263,1.919 -0.457,3.481 -0.636,5.294 -0.18,1.814 -0.345,3.878 -0.525,6.376 -0.18,2.497 -0.373,5.428 -0.567,8.701 -0.194,3.273 -0.388,6.888 -0.53,10.743 -0.143,3.855 -0.234,7.949 -0.206,12.14 0.029,4.192 0.177,8.48 0.468,12.648 0.291,4.169 0.724,8.217 1.009,11.855 0.285,3.638 0.422,6.865 0.485,10.435 0.063,3.57 0.051,7.481 0.091,11.969 0.04,4.488 0.131,9.552 0.223,13.777 0.091,4.225 0.182,7.612 0.266,9.945 0.084,2.332 0.162,3.609 0.193,4.373 0.031,0.764 0.017,1.015 0.027,2.23 0.01,1.214 0.044,3.393 0.078,4.946 0.035,1.554 0.069,2.484 0.137,3.037 0.068,0.553 0.171,0.73 0.482,1.055 0.311,0.325 0.83,0.798 2.632,1.177 1.802,0.38 4.886,0.665 7.829,0.918 2.942,0.254 5.742,0.476 10.492,0.73 4.75,0.254 11.451,0.539 16.4,0.753 4.95,0.214 8.149,0.356 10.954,0.382 2.806,0.026 5.218,-0.066 7.656,-0.143 2.438,-0.077 4.901,-0.139 7.25,-0.216 2.35,-0.077 4.585,-0.168 7.735,-0.565 3.151,-0.396 7.217,-1.098 9.757,-1.616 2.54,-0.519 3.556,-0.856 4.448,-1.309 0.892,-0.453 1.662,-1.024 2.078,-1.386 0.417,-0.362 0.479,-0.516 0.539,-0.807 0.06,-0.29 0.117,-0.718 0.209,-2.252 0.091,-1.534 0.216,-4.174 0.518,-9.369 0.303,-5.195 0.782,-12.944 1.164,-18.604 0.382,-5.659 0.667,-9.229 1.038,-13.175 0.37,-3.946 0.826,-8.268 1.397,-12.773 0.57,-4.505 1.254,-9.192 2.132,-14.518 0.879,-5.326 1.95,-11.291 2.766,-15.197 0.815,-3.906 1.374,-5.753 1.733,-6.921 0.358,-1.167 0.516,-1.655 0.64,-1.921 0.04,-0.087 0.077,-0.151 0.11,-0.197 0.29,-0.943 0.58,-1.886 0.813,-2.478 0.232,-0.591 0.408,-0.831 0.581,-1.057 0.174,-0.226 0.346,-0.438 0.481,-0.599 0.136,-0.161 0.235,-0.271 0.256,-0.446 0.022,-0.176 -0.032,-0.417 -0.184,-0.807 -0.152,-0.39 -0.401,-0.928 -0.72,-1.7 -0.319,-0.773 -0.708,-1.78 -1.265,-4.398 -0.557,-2.618 -1.282,-6.846 -2.128,-11.482 -0.846,-4.636 -1.813,-9.681 -2.362,-13.439 -0.549,-3.76 -0.68,-6.234 -1.088,-9.846 -0.407,-3.613 -1.091,-8.364 -1.612,-11.976 -0.084,-0.588 -0.164,-1.145 -0.241,-1.678 -1.376,0.017 -2.733,0.026 -4.061,0.023 -2.935,-0.008 -5.725,-0.076 -8.341,-0.137 -2.615,-0.061 -5.056,-0.114 -7.698,-0.194 -2.642,-0.08 -5.486,-0.186 -8.975,-0.285z"/>
    <path id="_1" fill="#1A6642" fill-rule="nonzero" d="M52.904 124.106l1.018 2.974c-0.355,-1.82 -0.426,-2.438 -1.096,-4.352l0.889 2.775c0.001,-0.016 -0.08,-0.524 0.021,-0.278 -1.202,-5.641 -4.873,-11.153 -9.635,-14.503 -3.884,-2.733 -6.993,-3.835 -11.66,-4.63 -1.514,-0.259 -3.912,-0.303 -5.401,-0.123 -1.194,0.145 -4.159,0.779 -5.025,1.093l0.723 -0.154 1.038 -0.209c-1.67,0.369 -4.105,1.19 -4.104,1.19l-2.192 1.026c-1.174,0.65 -1.059,0.634 -0.772,0.483 0.296,-0.134 0.773,-0.372 0.354,-0.131 -1.512,0.834 -3.106,1.937 -4.484,3.194 0.525,-0.415 1.599,-1.194 1.205,-0.87 -3.859,3.087 -6.71,7.507 -8.244,12.356 -0.527,1.666 -0.879,3.318 -0.962,5.064l0.189 -1.143 0.311 -1.911c0.175,-0.738 0.058,-0.299 -0.102,0.642 -0.236,1.193 -0.447,3.641 -0.406,4.934 0.006,0.195 0.014,0.156 0.007,-0.325 0.044,1.844 0.299,4.057 0.821,6.015 0.866,3.255 2.435,6.277 4.432,9.026 0.381,0.55 0.695,0.882 0.601,0.685 2.528,3.239 6.869,5.922 5.346,4.841 -0.507,-0.371 -1.711,-1.142 -3.481,-2.908 2.58,2.439 5.506,4.262 8.619,5.456 0.252,0.091 0.338,0.132 0.145,0.076 -0.832,-0.188 -3.677,-1.662 -4.939,-2.49l-0.852 -0.548c1.895,1.343 3.877,2.482 5.907,3.119 -0.083,0.112 2.972,0.895 3.352,0.961 2.2,0.379 5.65,0.528 7.905,0.259 0.294,-0.04 0.611,-0.072 0.942,-0.123 -0.512,0.048 0.428,-0.104 1.093,-0.209l-0.58 0.041c2.234,-0.288 4.949,-1.351 6.763,-2.276 0.387,-0.194 0.297,-0.141 -0.058,0.052 -1.243,0.682 -2.376,1.103 -3.702,1.588 1.808,-0.679 2.341,-0.781 4.411,-1.902 1.639,-0.906 2.835,-1.854 2.292,-1.411 -0.116,0.111 -0.72,0.485 -1.108,0.755l2.002 -1.335 -0.32 0.165 2.504 -2.167c-1.525,1.374 -2.313,2.001 -4.036,3.078 1.998,-1.327 3.327,-2.336 5.072,-4.308l-1.453 1.368 1.72 -1.837c0.255,-0.329 0.599,-0.762 0.46,-0.653l-1.21 1.328c-0.084,0.064 0.318,-0.305 1.349,-1.558 -0.24,0.248 -0.031,-0.037 -0.038,-0.031 -1.265,1.336 -0.92,1.103 -2.576,2.625l1.749 -1.956c-0.034,0.034 0.022,-0.044 -0.013,-0.01 -0.022,0.06 -1.161,1.213 -0.765,0.714 -1.148,1.172 -3.235,2.904 -5.213,4.072 -4.42,2.59 -9.58,3.708 -14.701,3.165 -5.084,-0.528 -9.899,-2.706 -13.687,-6.152 -0.407,-0.554 -0.648,-0.794 -0.839,-0.928 -1.056,-0.8 -2.112,-2.274 -2.829,-3.319 -0.578,-0.841 0.78,1.092 -0.182,-0.448 -1.439,-2.303 -1.978,-3.159 -2.788,-5.526 -1.165,-3.403 -1.266,-7.425 -1.211,-7.332 -0.102,-6.67 2.57,-12.911 7.305,-17.512 -0.495,0.51 -0.477,0.527 -0.962,1.048l1.248 -1.257c0.374,-0.374 0.804,-0.706 1.195,-1.043 0.001,-0.01 0.278,-0.219 0.192,-0.175 -0.275,0.216 -0.965,0.801 -0.712,0.561 2.28,-2.083 6.044,-4.152 8.975,-4.939 0.536,-0.125 0.293,-0.063 -0.228,0.079 -0.51,0.172 -1.293,0.426 -1.811,0.701 2.455,-0.967 4.404,-1.451 7.094,-1.699l-2.036 0.3c2.751,-0.448 5.307,-0.474 8.108,0.023l-1.281 -0.158c1.414,0.218 3.067,0.45 4.652,1.012 5.266,1.872 8.85,4.653 12.105,9.128 1.071,1.472 2.235,3.761 2.847,5.523l0.819 2.366c0.05,0.171 0.147,0.605 0.195,0.751l-0.602 -2.524 -0.198 -0.757 -0.04 -0.126c0.354,0.957 0.479,1.347 0.546,1.63l0.013 0.004zm4.243 16.23c-0.531,1.361 -1.135,2.688 -1.813,3.98l1.148 -2.894 -0.385 0.848c-0.178,0.354 -0.321,0.61 -0.202,0.252 -1.026,2.241 -0.132,0.286 -0.364,0.683 -1.524,2.901 -1.714,3.273 -3.434,5.488 -4.368,5.624 -10.899,9.463 -17.892,10.566l-0.992 0.144c-4.889,0.609 -9.966,-0.039 -14.515,-1.907 -0.458,-0.233 -0.754,-0.537 -1.309,-0.699 -0.266,-0.076 -0.426,-0.061 -0.657,-0.184 -1.712,-0.964 -2.224,-1.157 -3.857,-2.355 -1.037,-0.76 1.356,0.865 -0.384,-0.433l-2.912 -2.41c1.514,1.543 -0.858,-0.618 -2.485,-2.644 -1.73,-2.155 -3.361,-4.951 -4.324,-7.543 -0.043,-0.115 -0.069,-0.185 -0.059,-0.178 -2.832,-7.316 -2.37,-15.549 0.995,-22.592l-0.624 1.569 1.268 -2.692 0.645 -1.149c-0.207,0.359 -0.772,1.272 -0.577,0.909 1.179,-2.174 2.649,-4.102 4.322,-5.871 1.134,-1.191 2.364,-2.294 3.722,-3.331 1.088,-0.762 -1.261,0.924 -1.972,1.724 1.959,-1.765 4.826,-3.776 7.271,-4.837l-2.151 1.191c2.798,-1.579 5.573,-2.705 9.036,-3.301l-1.497 0.348 3.522 -0.613c6.544,-0.794 13.632,1.077 19.249,4.974 1.557,1.08 3.868,3.013 5.089,4.529 0.25,0.308 0.678,0.772 1.326,1.615 0.299,0.253 0.644,0.804 0.681,0.842l0.943 1.228 -1.711 -2.591 -0.776 -1.06 0.144 0.166 2.837 3.55 0.846 0.967c-1.076,-1.88 -1.643,-2.701 -3.024,-4.45 1.123,1.336 1.133,1.33 2.15,2.757 -0.005,-0.016 -0.295,-0.561 -0.083,-0.326 -1.104,-1.955 -3.885,-4.971 -5.796,-6.563 -5.657,-4.713 -13.344,-7.337 -20.756,-6.843 -5.89,0.393 -10.134,1.575 -15.167,5.091l-1.327 0.967c-0.248,0.198 -0.265,0.224 0.082,-0.012 0.217,-0.17 1.031,-0.706 1.596,-1.086l-1.181 0.845 -2.802 2.141c-1.524,1.506 -1.585,1.545 -2.047,2.051 -2.076,2.442 0.411,-0.323 -0.328,0.564 -1.367,1.55 -2.672,3.458 -3.72,5.418 0.234,-0.374 1.737,-2.696 0.673,-0.882 -2.484,4.239 -3.879,9.865 -3.848,14.672 0.019,3.006 -0.008,4.827 0.995,8.094 0.84,2.735 -0.142,-0.857 -0.248,-1.355l-0.434 -2.268c-0.192,-1.807 0.185,2.18 1.216,4.966l0.366 1.088c1.156,3.009 2.459,5.119 4.283,7.645l3.491 3.727c1.229,1.129 3.07,2.526 4.329,3.393 0.663,0.444 1.14,0.703 0.958,0.515 2.409,1.434 5.348,2.651 7.787,3.21l-0.543 -0.181c-1.004,-0.293 -3.379,-1.117 -4.369,-1.638 2.752,1.326 7.543,2.366 10.481,2.503l1.653 0.092c-0.908,0.099 -4.911,-0.343 -6.595,-0.769l-1.182 -0.257c3.729,0.948 5.675,1.141 7.94,1.067 -0.034,0.145 3.656,-0.174 4.332,-0.32 3.408,-0.738 6.555,-1.694 9.778,-3.458 -0.562,0.257 0.45,-0.278 1.144,-0.687l-0.636 0.292c2.813,-1.583 4.536,-3.193 6.683,-5.355 0.361,-0.371 0.281,-0.274 -0.043,0.083 -1.396,1.529 -1.958,1.982 -3.519,3.303 1.494,-1.155 2.911,-2.482 4.177,-3.958 1.497,-1.745 2.894,-3.806 1.63,-1.972 -0.176,0.251 -0.397,0.526 -0.565,0.754 1.118,-1.378 1.54,-2.064 1.703,-2.319l-0.29 0.319 1.229 -2.005c0.582,-1.126 0.641,-1.335 0.682,-1.42 -0.996,1.855 -1.939,3.47 -3.264,5.067 1.355,-1.668 3.189,-4.792 3.908,-6.895l-1.072 2.117c-0.097,0.106 0.223,-0.355 1.167,-2.759l0.102 -0.531 -0.664 1.593c-0.067,0.107 0.226,-0.469 0.86,-2.294 -0.178,0.371 -0.053,-0.032 -0.061,-0.02l0.017 0zm-6.871 -4.959l0.342 -3.388c-0.283,2.19 -0.535,3.955 -1.396,6.153 -0.383,0.936 -0.74,1.729 -1.011,2.2l0.493 -1.184 0.002 -0.1c-0.457,0.977 -1.087,2.173 -2.394,4.053 0.491,-0.46 -0.383,0.715 -0.386,0.718 -0.37,0.497 -0.816,0.896 -0.488,0.452l-0.74 0.806c0.144,-0.083 -1.132,1.558 -3.59,3.101 -1.966,1.235 -3.634,2.176 -6.182,2.837 -2.99,0.774 -5.496,0.886 -8.471,0.451 -0.364,-0.057 -0.643,-0.14 -0.833,-0.183 -5.82,-1.076 -10.856,-4.62 -13.956,-9.701 -6,-9.832 -2.64,-23.256 7.811,-28.995 8.332,-4.575 18.732,-2.943 25.175,3.947 1.344,1.438 2.638,2.969 3.405,4.739 0.13,0.302 0.566,0.778 1.138,2.282 0.325,0.872 0.769,2.146 1.088,4.063 -0.094,-1.353 0.431,0.392 0.01,-1.501 -0.854,-3.845 -2.896,-7.431 -5.63,-10.242l-2.166 -1.946 1.472 1.181c3.042,2.721 5.155,6.395 6.253,10.256 -0.076,-0.728 -0.055,-1.195 0.281,-0.466 -0.434,-1.791 -1.661,-4.41 -2.679,-5.953 -1.611,-2.44 -3.779,-4.626 -6.347,-6.153 -0.424,-0.272 -1.297,-0.86 -2.455,-1.457 -2.948,-1.508 -5.857,-2.177 -9.065,-2.24l-1.429 0.114c-0.915,-0.106 -2.766,0.067 -5.056,0.737l-2.151 0.746c-3.011,1.232 -6.031,3.324 -8.097,5.748l0.286 -0.258 0.217 -0.122c-1.982,1.978 -3.849,5.315 -4.642,7.595 -0.591,1.685 -1.008,3.44 -1.126,5.273l0.023 -0.691c0.103,-0.965 -0.09,-0.113 -0.146,0.305 -0.458,3.442 0.53,8.501 2.274,11.978 4.216,8.404 13.387,13.247 22.71,11.76l1.312 -0.355c1.028,-0.265 1.726,-0.331 2.924,-0.754 2.35,-0.828 4.529,-2.042 6.77,-4.085 0.095,0.171 2.159,-2.065 2.422,-2.386l1.293 -1.739c0.57,-0.847 1.101,-1.795 1.576,-2.751 0.256,-0.682 -0.55,0.644 -0.55,0.644 -0.233,0.351 1.132,-2.174 1.644,-4.242 0.306,-1.437 -0.2,0.35 -0.047,-0.591 0.015,-0.107 0.061,-0.354 0.127,-0.682l-0.015 0.026zm7.334 -20.393l1.141 1.921c0.544,1.153 1.036,2.455 1.761,4.374l0.706 2.961c0.659,2.94 0.698,5.416 0.664,8.334 0.255,-2.425 -0.184,-6.366 -0.603,-8.496l-0.441 -1.697 0.48 1.689c0.466,1.971 0.521,3.978 0.496,1.764l-0.481 -1.991c-0.235,-1.67 -0.263,-0.722 -0.76,-2.489 -0.361,-1.283 -1.784,-4.602 -2.569,-5.82 -0.954,-1.481 -1.107,-1.867 -2.241,-3.392 -0.611,-0.812 -1.311,-1.703 -2.638,-3.185 0.676,0.551 -0.571,-0.709 -0.759,-0.771 -0.686,-0.679 -2.04,-2.017 -3.927,-3.386 -5.446,-3.957 -11.308,-5.811 -17.7,-6.144 -0.39,-0.02 1.52,-0.047 0.004,-0.146 -2.375,-0.154 -5.262,0.066 -7.585,0.583l-1.768 0.502c0.031,0.025 0.614,-0.12 -0.305,0.189 -1.464,0.443 -2.732,0.769 -4.192,1.429l-3.188 1.578 0.062 -0.081 3.684 -1.845c-0.105,-0.117 -3.024,1.358 -3.299,1.501 -1.777,0.931 -4.147,2.57 -5.583,3.836 -1.031,0.888 -2.585,2.273 -4.479,4.643 1.59,-1.906 4.336,-4.547 5.127,-5.11 1.213,-0.863 -0.141,0.258 -0.644,0.691 -4.905,4.22 -8.449,9.627 -10.202,16.134 -0.659,2.425 -0.824,4.408 -0.893,5.24 -0.061,0.48 -0.034,-0.045 -0.049,-0.188l-0.098 4.446c0.006,0.436 0.036,0.737 0.036,0.792 0.041,1.152 -0.399,-2.757 -0.083,1.097 -0.039,-0.24 -0.077,-0.48 -0.115,-0.721 0.204,3.523 0.649,5.23 1.862,8.669 -0.991,-2.888 -1.624,-6.297 -1.652,-7.898l0.282 1.698c0.432,2.676 1.193,5.441 2.294,7.983 0.101,0.252 -0.091,-0.067 0.257,0.874 0.861,2.341 2.969,5.29 4.514,7.211 0.174,-0.069 2.743,2.527 2.332,2.257l-1.731 -1.572 2.08 2.045c0.411,0.398 0.609,0.539 0.67,0.613 0.132,0.137 -0.184,-0.094 0.23,0.262 0.472,0.412 0.475,0.304 0.51,0.258 0.031,-0.047 0.086,-0.038 0.698,0.556 0.81,0.708 3.372,2.323 4.522,2.952 1.449,0.752 2.154,1.136 0.296,0.24l-3.451 -1.99c1.601,1.081 3.555,2.249 5.349,3.054l2.654 1.061 3.432 0.985c0.858,0.181 0.655,0.092 -1.08,-0.472 1.991,0.495 3.12,0.608 4.955,0.995 -2.132,-0.179 -2.69,-0.322 -2.198,-0.212l4.182 0.485c5.811,-0.097 -0.153,-0.002 -0.901,-0.168 -0.068,-0.01 -0.06,-0.103 0.005,-0.103l2.417 0.083c2.47,-0.04 4.047,-0.227 5.676,-0.5 1.275,-0.214 -1.497,0.405 0.004,0.173 2.119,-0.328 4.588,-1.151 6.666,-1.96 1.716,-0.694 3.842,-1.769 5.795,-3.292 -2.18,1.56 -4.299,2.45 -4.891,2.65l1.664 -0.888c1.9,-0.952 1.907,-1.122 3.558,-2.235 1.413,-0.953 -0.158,0.242 0.166,0.044l1.224 -0.904c-1.27,0.732 0.941,-0.926 1.182,-1.118l1.684 -1.628c-0.365,0.562 -2.101,2.145 -2.867,2.749 0.571,-0.309 3.188,-2.693 3.9,-3.511 0.762,-1.009 0.577,-0.83 0.177,-0.387l-0.58 0.523c1.389,-1.458 3.497,-4.332 4.09,-5.535 0.463,-0.94 1.347,-2.524 1.717,-3.706l-1.133 2.232 0.726 -1.769c-0.81,1.584 -1.702,3.097 -2.717,4.489l-0.067 0.048c0.736,-1.042 2.172,-3.325 2.867,-4.945l-0.002 -0.143c-0.54,1.037 0.112,-0.506 0.111,-0.508 -0.001,-0.001 -0.71,1.28 -0.494,0.673 -1.49,3.126 -2.961,5.289 -5.23,7.831 2.276,-2.548 4.125,-5.506 5.278,-8.364 0.771,-1.915 -1.021,1.945 -1.764,3.17 -1.086,1.788 -2.131,3.324 -3.565,4.925l2.178 -2.954c1.231,-1.785 2.727,-4.59 3.402,-6.542 0.227,-0.68 -0.079,-0.157 -0.064,-0.208 0.014,-0.077 0.24,-0.797 0.437,-1.469 0.905,-3.37 -0.587,1.39 -0.745,1.719l-0.33 0.714c-0.748,0.975 -0.324,0.25 -0.928,1.531 -2.132,4.522 -5.498,8.334 -9.458,11.344 0,0 -0.008,-0.011 -0.024,-0.034 2.341,-1.805 3.077,-2.534 4.858,-4.62l-1.101 1.161c-1.7,1.788 -5.52,4.621 -7.179,5.646 -1.623,1.004 -4.983,2.221 -6.863,2.694 -12.218,3.072 -24.519,-1.627 -31.826,-11.277 -2.724,-3.598 -4.662,-8.323 -5.415,-12.499l-0.265 -1.967 0.497 2.632c0.21,0.826 0.265,1.323 0.375,1.644l0.17 0.308c-0.44,-1.54 -0.844,-3.898 -0.846,-4.291 -0.086,-0.71 0.057,-1.216 -0.348,-2.679 -0.028,-1.064 0.007,-0.933 0.046,-2.37 0.144,-3.69 0.795,-6.22 1.062,-7.164l-0.082 0.697c-0.064,0.419 -0.15,0.961 -0.253,1.631 0.291,-1.487 0.968,-3.842 1.474,-5.225 1.055,-2.887 2.225,-4.788 4.191,-7.415 1.701,-2.27 5.139,-5.441 8.321,-7.032 2.81,-1.406 4.716,-2.655 8.037,-3.516 5.8,-1.506 11.521,-1.294 17.094,0.735l2.565 0.91 1.492 0.747c0.054,0.029 0.87,0.393 0.916,0.438 1.582,0.869 3.152,1.928 4.606,3.135 2.765,2.293 4.454,4.392 6.422,7.401l-1.487 -2.394c0.295,0.234 1.551,2.252 1.954,2.906 1.148,1.788 -0.097,-0.505 0.302,-0.179l-1.05 -1.624 1 1.453c0.137,0.244 0.032,0.141 0.05,0.171l0.56 0.968c0.082,0.167 0.184,0.393 0.327,0.703l0.86 1.393c0.337,0.617 0.95,2.148 0.693,1.235 -0.113,-0.399 -0.374,-1.251 -1.003,-2.71 -0.239,-0.681 1.107,1.621 1.062,1.446 -0.575,-1.495 -0.533,-1.496 -0.609,-1.89 -0.207,-1.014 -1.312,-3.004 -1.961,-4.025l1.662 2.514 -0.038 -0.014zm20.807 9.003c0.537,3.37 0.598,6.071 0.526,9.476 0.363,-6.977 -0.561,-13.759 -3.054,-20.275l-0.484 -1.299c0.433,0.772 1.534,4.15 1.896,5.382 0.156,0.551 0.145,0.456 -0.259,-1.008 -1.111,-3.685 -2.537,-6.991 -4.487,-10.361 0.591,1.218 -0.976,-1.41 -1.084,-1.581 -0.769,-1.249 -1.59,-2.396 -0.79,-1.354l-1.514 -2.125c0.174,0.275 -0.538,-0.656 -0.553,-0.673 -2.01,-2.29 -3.933,-4.728 -7.246,-7.477 -6.452,-5.353 -14.153,-9.034 -22.69,-10.648 -6.762,-1.278 -12.268,-0.924 -16.37,-0.365 -8.152,1.11 -16.487,4.729 -23.045,9.755 -9.713,7.444 -16.433,18.366 -18.628,30.494 -4.664,25.76 11.336,50.561 36.355,57.041 11.485,2.974 23.669,1.751 34.337,-3.416 7.648,-3.705 13.886,-9.208 18.816,-16.084 2.964,-4.135 5.754,-10.109 7.318,-15.9 -0.527,1.629 -0.49,1.293 -0.482,1.131l-0.75 2.122c-2.778,8.476 -8.757,17.076 -15.939,22.645 -1.885,1.462 -3.146,2.35 -4.997,3.486l1.696 -1.111c4.171,-2.836 7.868,-6.238 11.043,-10.196 3.546,-4.421 5.514,-8.111 7.541,-13.218 -0.71,1.526 -1.181,2.392 -0.604,0.69 -1.599,4.241 -4.577,9.106 -7.477,12.646 -10.03,12.25 -24.21,18.771 -40.281,18.043l-5.002 -0.404 -5.934 -1.365 -5.207 -1.779 -3.001 -1.268 -1.661 -0.918c-6.673,-3.637 -12.358,-8.591 -16.714,-14.717l0.472 0.727 0.282 0.453c-1.537,-1.94 -3.594,-5.345 -4.337,-6.809 -3.831,-7.289 -5.709,-15.387 -5.61,-23.589l0.037 1.545 0.079 0.472c-0.118,-11.262 2.498,-20.495 9.174,-29.957 5.495,-7.787 14.044,-14.2 23.012,-17.405 9.84,-3.517 19.973,-3.826 29.613,-1.241 1.957,0.524 2.662,0.602 4.976,1.585 6.789,2.883 12.448,6.353 18.243,12.499l2.336 2.815c3.642,4.763 5.523,8.108 7.773,14.003 0.268,0.664 0.196,0.355 0.036,-0.193l-0.031 -0.33c1.152,2.93 1.848,6.119 2.414,9.292 0.419,2.423 -0.077,-1.272 0.271,0.781l-0.015 -0.017zm-4.366 22.114c-0.872,2.452 -1.65,4.176 -2.856,6.476 0.459,-0.951 0.593,-1.291 0.796,-1.804 0.196,-0.516 0.529,-1.171 1.184,-2.84l-0.595 1.389c-0.275,0.584 -0.488,1.008 -0.263,0.435 -3.049,6.781 -8.427,14.273 -16.603,19.806 -11.808,7.99 -26.737,10.169 -40.306,5.834l-3.485 -1.271c-0.877,-0.392 -1.315,-0.724 -2.177,-1.052 -0.417,-0.158 -0.649,-0.196 -1.026,-0.392 -2.698,-1.441 -3.904,-2.109 -6.29,-3.814 -0.554,-0.406 -0.5,-0.38 -0.286,-0.239 0.427,0.279 1.484,1.01 -0.4,-0.378l-4.257 -3.536 0.373 0.389c0.115,0.104 -1.208,-1.008 -2.95,-2.931 -3.457,-3.817 -6.49,-8.59 -8.458,-13.347 -0.289,-0.733 -0.565,-1.433 -0.544,-1.406 -4.574,-11.891 -3.9,-25.399 1.605,-36.779l-1.074 2.54c0.011,-0.032 -0.072,0.195 0.196,-0.461l2.037 -4.306c1.715,-3.104 3.663,-5.81 5.825,-8.264 2.165,-2.451 4.548,-4.66 7.25,-6.699l-0.363 0.299 -2.886 2.443c3.321,-2.98 7.72,-5.986 11.867,-7.804l-3.542 1.869c4.575,-2.552 9.138,-4.326 14.788,-5.311l-2.451 0.525c3.064,-0.641 5.61,-1.091 9.182,-1.195 8.481,-0.246 17.568,1.959 25.406,6.738 3.554,2.167 7.965,5.673 10.734,8.988l3.845 4.798c0.206,0.28 0.658,1.009 0.831,1.255l-2.828 -4.154c0.457,0.577 0.385,0.469 0.075,0.056l-2.052 -2.518c2.128,2.398 3.515,4.385 5.334,6.881l1.187 1.654c-1.655,-2.896 -2.7,-4.448 -4.847,-7.125 1.229,1.457 2.326,2.888 3.361,4.461 -0.011,-0.027 -0.51,-0.872 -0.206,-0.472 -1.987,-3.294 -5.994,-7.706 -9.262,-10.432 -8.426,-7.028 -19.305,-11.009 -30.32,-11.003 -5.606,0.003 -11.787,0.962 -17.055,2.978 -3.992,1.527 -7.643,3.639 -11.218,6.205 -0.361,0.264 -0.646,0.493 -0.846,0.645 -0.396,0.311 -0.427,0.348 0.11,-0.046 0.342,-0.271 1.617,-1.16 2.515,-1.76l-1.886 1.341 -3.759 2.995c-0.392,0.347 -0.627,0.546 -0.608,0.511l-3.219 3.283c-3.281,3.894 0.579,-0.577 -0.596,0.836 -2.145,2.491 -4.211,5.532 -5.856,8.676l1.156 -1.932 -0.844 1.62c-3.603,6.976 -5.518,14.526 -5.491,22.241 0.017,4.588 0.307,8.197 1.694,12.89l0.298 0.824c-0.658,-2.419 -1.096,-4.081 -1.472,-6.595l0.226 1.218c0.457,2.711 1.517,6.527 2.53,9.051 0.164,0.408 0.107,0.252 -0.407,-1.11 2.758,7.115 6.357,12.727 11.821,17.951 2.421,2.314 5.025,4.3 7.659,6.04 1.065,0.689 1.827,1.102 1.508,0.855 3.907,2.29 8.534,4.144 12.471,5.05l-0.874 -0.251c-1.868,-0.515 -5.148,-1.626 -7.02,-2.529 2.55,1.196 6.733,2.445 9.471,3.015 3.289,0.685 6.264,0.978 9.567,1.034 0.509,0.001 0.688,0.004 0.31,0.023 -1.861,0.124 -7.558,-0.457 -10.48,-1.16l-1.881 -0.43c3.797,1.006 8.938,1.806 12.616,1.626l4.084 -0.187c4.129,-0.361 9.072,-1.687 12.917,-3.196 1.482,-0.569 3.275,-1.37 5.526,-2.604 -0.881,0.442 0.73,-0.417 1.83,-1.084l0.475 -0.319c-0.305,0.175 -0.759,0.47 -1.45,0.837 4.475,-2.593 7.237,-4.997 10.652,-8.504 0.57,-0.597 0.439,-0.445 -0.084,0.116 -2.085,2.215 -3.259,3.262 -5.651,5.19 2.515,-1.976 4.517,-3.781 6.675,-6.254 2.355,-2.678 3.916,-5.125 3.191,-4.006l-1.514 2.053c1.181,-1.433 1.996,-2.624 2.698,-3.703l-0.417 0.537c1.137,-1.794 2.227,-3.471 3.115,-5.478 -1.593,3.079 -3.058,5.471 -5.192,8.164 2.296,-2.864 5.009,-7.475 6.331,-11l-1.66 3.436c-0.057,0.094 0.012,-0.058 0.332,-0.698l1.604 -3.724c0.283,-0.743 0.592,-1.76 0.456,-1.455 -0.366,0.933 -0.866,2.464 -1.281,3.205 -0.104,0.173 0.383,-0.75 1.411,-3.699 -0.25,0.614 -0.037,-0.034 -0.048,-0.015l0.011 -0.01zm-9.496 -35.06c1.398,2.292 1.999,3.691 2.93,6.173 0.718,1.915 0.987,2.932 1.529,5.392 0.807,3.661 0.887,6.731 0.817,10.385 0.259,-3.22 -0.199,-7.749 -0.785,-10.572l-0.536 -2.117c0.467,1.301 0.922,3.722 1.102,5.169 0.073,0.588 0.103,0.521 0.008,-0.845l-0.553 -2.488c-0.342,-2.009 -0.3,-1.04 -0.708,-2.438 -0.734,-2.525 -1.962,-5.674 -3.344,-7.963 -2.033,-3.366 -3.013,-4.879 -6.037,-8.23 0.804,0.728 -0.732,-0.86 -0.941,-0.968 -0.855,-0.847 -2.549,-2.511 -4.904,-4.217 -6.603,-4.799 -14.281,-7.35 -22.098,-7.656 -0.459,-0.018 1.828,-0.015 0.006,-0.114 -3.066,-0.165 -6.451,0.099 -9.438,0.73l-2.218 0.586c0.016,0.008 0.207,-0.038 0.252,-0.032 0.015,0.002 -3.827,1.136 -5.882,2.02l-3.982 1.973 0.085 -0.084c1.13,-0.663 3.289,-1.765 4.609,-2.278 -0.109,-0.122 -3.773,1.719 -4.105,1.895 -2.338,1.242 -5.089,3.146 -6.952,4.775 -1.285,1.102 -3.217,2.825 -5.574,5.779 2.086,-2.546 5.194,-5.52 6.363,-6.382 1.466,-1.081 -0.175,0.246 -0.839,0.818 -6.099,5.253 -10.544,12.054 -12.722,20.151 -0.82,3.031 -1.04,5.499 -1.136,6.533 -0.067,0.598 -0.026,-0.053 -0.03,-0.229 -0.176,3.372 -0.23,3.418 -0.1,6.52 0.065,1.436 -0.392,-3.439 -0.028,1.36 -0.039,-0.299 -0.077,-0.599 -0.116,-0.9 0.267,4.214 0.879,6.737 2.306,10.817 -1.295,-3.717 -1.717,-6.458 -1.943,-8.12l-0.116 -1.508c0.506,4.08 1.421,8.027 3.121,11.88 0.13,0.312 -0.09,-0.093 0.373,1.068 1.188,2.967 3.637,6.491 5.654,8.961l2.847 2.861 -2.101 -2.01 2.566 2.564c0.244,0.233 1.63,1.607 1.728,1.445 0.025,-0.041 0.082,-0.012 0.87,0.699 1.216,1.033 4.041,2.831 5.633,3.702 1.809,0.942 2.695,1.407 0.385,0.27l-3.88 -2.298c-0.342,-0.229 -0.521,-0.339 -0.394,-0.229 1.63,1.264 5.707,3.463 7.919,4.345 2.266,0.903 4.064,1.513 6.342,2.01 1.067,0.228 0.811,0.15 -1.371,-0.497 2.431,0.617 3.889,0.806 6.189,1.207 -1.325,-0.141 -2.166,-0.224 -2.591,-0.301l0.559 0.12 4.5 0.456c7.223,-0.076 -0.191,0.035 -1.12,-0.156 -0.084,-0.008 -0.077,-0.085 0.004,-0.081 4.06,0.142 5.837,0.225 10.097,-0.53 1.592,-0.282 -1.878,0.446 -0.007,0.139 5.181,-0.849 11.393,-3.396 15.556,-6.506 -2.723,1.928 -5.35,3.074 -6.079,3.351l2.094 -1.083c2.212,-1.109 5.173,-3.276 5.163,-3.263l-0.548 0.482 1.522 -1.133c-0.814,0.526 -0.477,0.238 0.088,-0.2 1.519,-1.166 2.297,-1.981 3.529,-3.176 -0.552,0.741 -2.626,2.598 -3.618,3.383 0.802,-0.497 3.797,-3.236 4.828,-4.405 0.98,-1.229 0.757,-1 0.26,-0.441l-0.702 0.681c1.816,-1.914 4.251,-5.259 5.133,-6.9 0.589,-1.097 1.67,-3.075 2.219,-4.606l-1.398 2.81 1.306 -2.85c0.001,-0.007 -1.628,3.456 -3.678,6.346l-0.075 0.071c1.01,-1.458 2.573,-3.985 3.562,-6.251 0.738,-1.692 -0.661,1.247 -0.118,-0.049l0.328 -0.736 -0.543 0.884c-1.792,3.864 -3.756,6.788 -6.542,9.93 2.845,-3.207 5.152,-6.889 6.68,-10.582 0.184,-0.481 0.261,-0.702 0.233,-0.667l-1.627 3.339c-1.37,2.618 -3.308,5.413 -5.265,7.635 0.355,-0.556 1.529,-1.788 3.17,-4.28 1.529,-2.322 3.015,-5.225 3.942,-7.752 0.295,-0.858 -0.039,-0.177 -0.02,-0.241 0.032,-0.096 0.316,-1.01 0.585,-1.861 0.227,-0.862 0.428,-1.661 0.361,-1.508 -0.154,0.337 -1.161,3.788 -1.578,4.528 -0.297,0.466 -0.288,0.473 -0.607,0.924l-1.136 2.345c-2.121,4.237 -5.762,8.657 -9.402,11.701l-2.099 1.616c2.629,-2.016 4.069,-3.3 6.249,-5.861l-1.401 1.494c-2.112,2.22 -6.775,5.831 -9.23,7.16 -15.094,8.167 -33.776,5.371 -45.843,-6.808 -5.537,-5.589 -9.155,-12.384 -10.575,-20.17l-0.352 -2.517 0.299 1.865 0.789 3.621c0.477,1.708 0.736,2.281 0.707,2.211 -0.009,-0.075 -0.273,-0.807 -0.53,-1.805 -0.573,-1.976 -1.084,-5.005 -1.1,-5.509 -0.112,-0.909 -0.033,-1.559 -0.383,-3.435 -0.033,-1.357 -0.016,-1.19 0.037,-3.023 0.19,-4.702 1.061,-7.945 1.4,-9.155l-0.156 0.882c-0.106,0.534 -0.236,1.226 -0.388,2.082 1.03,-5.038 2.854,-9.824 5.838,-14.073 1.225,-1.743 1.439,-1.995 1.52,-2.104 2.265,-2.995 6.461,-6.87 10.578,-9.083 3.48,-1.871 6.394,-3.435 10.343,-4.442 6.084,-1.552 12.134,-1.643 18.35,-0.148 1.903,0.457 6.393,1.934 8.119,2.876l1.768 0.927c2.024,1.12 4.03,2.475 5.886,4.021 3.639,3.025 5.64,5.554 8.202,9.451l-1.952 -3.02c0.421,0.405 1.949,2.81 2.491,3.71 1.417,2.31 -0.192,-0.604 0.238,-0.14l-1.325 -2.07c-0.078,-0.128 -0.04,-0.1 0.16,0.174l1.871 3.125c0.109,0.211 0.244,0.494 0.431,0.887l1.011 1.807c0.337,0.67 1.183,2.776 0.804,1.598 -0.159,-0.498 -0.517,-1.566 -1.35,-3.394 -0.334,-0.821 1.235,2.039 1.188,1.891 -0.758,-1.865 -0.735,-1.851 -0.877,-2.326 -0.412,-1.318 -1.744,-3.629 -2.611,-4.949l2.049 3.152 -0.022 0.002zm6.534 13.197c-0.055,-0.853 -0.616,-3.363 -0.842,-4.164 -0.382,-1.357 -0.241,-1.463 -0.397,-2.106 -0.39,-1.609 -2.155,-5.526 -2.984,-7.083 -2.322,-4.364 -5.314,-8.073 -8.97,-11.427 0,0 0.007,-0.009 0.021,-0.025 2.125,1.854 4.669,4.717 6.307,6.973 0.173,0.24 0.119,0.162 -0.32,-0.468 -2.242,-3.287 -5.625,-6.63 -8.559,-8.719 -7.03,-5.006 -14.771,-8.405 -24.736,-8.672 -13.43,-0.359 -26.28,5.845 -34.035,15.772l-0.85 1.028c-3.73,4.807 -6.196,10.61 -7.494,16.041l0.249 -1.222 1.44 -4.496c0.686,-1.827 1.007,-2.437 0.952,-2.368 -0.469,0.7 -1.775,4.364 -2.074,5.428l-0.637 2.375c-0.236,0.972 -0.554,1.654 -0.611,3.753 -0.185,1.479 -0.23,1.288 -0.374,3.298 -0.259,3.161 0.083,7.236 0.632,10.142l-0.256 -0.953c-0.109,-0.59 -0.238,-1.351 -0.383,-2.304 0.595,5.655 2.235,10.523 4.847,15.598 0.159,0.308 0.025,0.132 0.191,0.436 1.065,1.927 2.652,4.295 3.692,5.661 1.931,2.544 4.346,5.136 7.171,7.412 1.825,1.585 2.943,2.351 5.089,3.55 9.219,5.152 20.498,6.836 30.814,4.569 1.452,-0.318 6.182,-1.847 7.2,-2.425 2.33,-1 4.667,-2.255 6.862,-3.73 3.905,-2.618 7.033,-5.536 10.014,-9.352l-1.991 2.304 0.239 -0.358 2.237 -2.769c1.645,-2.445 -0.499,0.471 -0.222,-0.164l-1.617 2.092 1.452 -1.919c0.224,-0.31 0.134,-0.133 0.165,-0.17l1.965 -3.033c0.114,-0.213 2.241,-4.319 1.341,-2.786 -0.282,0.482 -0.857,1.528 -2.049,3.276 -0.353,0.462 0.322,-0.819 0.384,-0.9 0.324,-0.649 0.679,-1.349 0.578,-1.231 -1.091,1.789 -1.171,1.704 -1.499,2.093 -1.159,1.33 -2.207,2.809 -3.666,4.381 1.59,-1.795 2.74,-3.621 3.807,-5.41 1.599,-2.681 2.858,-5.221 4.074,-8.843 1.198,-3.571 1.592,-6.68 1.87,-10.326 -0.018,0.15 -0.038,0.3 -0.059,0.451 -0.201,3.362 -0.91,7.185 -1.942,10.027 0.114,-0.189 -0.291,1.089 -0.56,1.761l0.066 -0.325 1.303 -4.435c0.128,-0.582 0.105,-0.518 -0.317,0.779 -0.325,1.174 -0.305,1.554 -0.657,2.458l-0.564 1.712c-0.238,0.958 -0.707,1.674 -0.935,2.291 -0.764,2.066 -3.014,5.897 -4.512,7.836 -1.782,2.304 -2.951,3.749 -5.603,6.07 0.768,-0.779 -0.898,0.703 -1.032,0.901l-2.757 2.037c-7.596,5.119 -16.189,7.522 -25.14,7.056l-0.101 -0.051c0.985,-0.023 -1.888,-0.236 -2.092,-0.258l-3.971 -0.623 -5.217 -1.403 -0.581 -0.121 -2.808 -1.118c-2.402,-1.11 -4.652,-2.398 -6.737,-3.893l0.115 0.042c1.101,0.761 3.16,2.045 4.455,2.672l-2.472 -1.454c-3.395,-2.222 -5.481,-3.87 -7.895,-6.429 -1.183,-1.232 -2.948,-3.156 -4.983,-6.378 2.024,3.287 4.183,5.733 5.643,7.13 0.516,0.511 0.672,0.744 0.272,0.375 -3.22,-2.933 -6.714,-7.985 -8.752,-12.537 -2.502,-5.587 -3.663,-11.948 -3.594,-17.025 0.032,-0.612 0.027,0.051 0.043,0.23 0.029,-1.755 0.148,-4.565 0.529,-6.588 0.272,-1.422 -0.414,3.465 0.371,-1.326 -0.037,0.302 -0.076,0.603 -0.115,0.904l0.719 -3.143c0.777,-2.912 1.443,-4.677 2.673,-7.454 -1.266,2.638 -2.203,5.195 -2.914,7.896l-0.414 1.473c0.782,-3.822 1.914,-6.961 3.695,-10.432 0.691,-1.347 1.546,-2.522 2.527,-3.975 1.483,-2.196 3.481,-4.577 5.496,-6.502 -0.107,-0.35 3.56,-3.367 2.984,-2.772l-2.16 1.987c1.164,-1.082 2.606,-2.306 3.707,-3.05 0.001,-0.001 1.038,-0.564 0.885,-0.711l3.745 -2.277 3.232 -1.551c1.928,-0.763 2.875,-1.107 0.465,-0.122l-4.101 1.999c-0.355,0.215 -0.534,0.333 -0.377,0.263 2.094,-1.226 4.726,-2.359 7.08,-3.117 0.145,-0.048 0.703,-0.272 0.858,-0.316l4.456 -1.042 2.556 -0.393c1.089,-0.141 0.827,-0.168 -1.474,0.037 2.669,-0.406 3.869,-0.494 6.375,-0.435 -1.345,0.057 -2.195,0.091 -2.63,0.149l0.575 -0.015c2.922,-0.118 4.885,0.081 7.568,0.319 0.307,0.029 0.03,-0.011 -0.503,-0.084l-3.642 -0.314c-0.188,-0.007 -0.207,-0.161 1.576,0.001 3.24,0.297 5.846,0.709 8.548,1.567 1.543,0.49 -1.9,-0.44 -0.068,0.12 5.706,1.743 10.038,4.023 14.999,8.028 -2.556,-2.197 -5.008,-3.719 -5.671,-4.159 -0.333,-0.219 -0.215,-0.177 0.517,0.241 1.491,0.883 4.341,2.992 5.77,4.252 1.623,1.43 -0.362,-0.196 0.037,0.164l1.397 1.317c-0.647,-0.738 -0.312,-0.445 0.214,0.063l3.238 3.59 -3.449 -3.649c1.797,1.977 2.094,2.076 4.294,5.019l-0.388 -0.67 0.998 1.241c1.646,2.297 3.106,5 4.232,7.438 0.027,0.056 -0.055,-0.185 0.123,0.198 0.223,0.531 0.7,1.843 1.409,3.644l-1.05 -3.044c0.093,0.213 0.4,0.924 0.65,1.613l0.297 0.672c-0.683,-2.213 -1.552,-4.354 -2.568,-6.34 -0.612,-1.163 -0.951,-1.765 -0.505,-0.975 2.048,3.652 3.518,8.369 3.519,8.355l-0.092 -0.599 0.147 0.355c-0.127,-0.49 -0.298,-1.143 -0.091,-0.619 -1.244,-3.863 -2.723,-6.949 -4.887,-10.294 2.305,3.445 4.043,7.206 5.239,10.901 0.161,0.521 0.236,0.756 0.236,0.711 -0.029,-0.788 -1.56,-4.731 -2.299,-6.342 -0.911,-1.986 -2.249,-4.268 -3.553,-6.128 1.425,1.581 3.44,5.387 4.851,8.908 0.633,1.578 1.09,3.17 1.489,4.611 0.25,0.942 0.139,0.133 0.161,0.2l0.871 3.665z"/>
   </g>
  </g>
  <path fill="none" d="M91.234 163.341c0.06,-0.29 0.117,-0.718 0.209,-2.252 0.091,-1.534 0.216,-4.174 0.518,-9.369 0.303,-5.195 0.782,-12.944 1.164,-18.604 0.382,-5.659 0.667,-9.229 1.038,-13.175 0.37,-3.946 0.826,-8.268 1.397,-12.773 0.57,-4.505 1.254,-9.192 2.132,-14.518 0.879,-5.326 1.95,-11.291 2.766,-15.197 0.815,-3.906 1.374,-5.753 1.733,-6.921 0.358,-1.167 0.516,-1.655 0.64,-1.921 0.123,-0.267 0.212,-0.313 0.296,-0.305 0.084,0.008 0.164,0.069 0.266,0.183 0.103,0.113 0.228,0.278 0.391,0.627 0.163,0.349 0.362,0.88 0.684,1.602 0.321,0.721 0.764,1.632 1.146,2.525 0.381,0.893 0.7,1.768 0.836,2.443 0.135,0.674 0.087,1.147 0.127,1.679 0.04,0.532 0.168,1.122 0.504,1.619 0.337,0.498 0.881,0.903 1.195,1.44 0.314,0.538 0.396,1.208 0.602,2.158 0.205,0.951 0.533,2.183 0.646,3.113 0.112,0.929 0.009,1.556 -0.098,2.148 -0.106,0.591 -0.218,1.148 -0.101,1.705 0.117,0.557 0.462,1.116 0.865,1.635 0.404,0.519 0.866,0.998 1.149,1.313 0.284,0.315 0.39,0.466 0.491,0.609 0.101,0.142 0.198,0.276 0.351,0.879 0.152,0.603 0.36,1.675 0.439,2.419 0.078,0.745 0.027,1.161 -0.003,1.576 -0.03,0.415 -0.039,0.828 -0.073,1.354 -0.034,0.526 -0.094,1.165 -0.085,1.751 0.008,0.586 0.085,1.119 0.46,1.91 0.375,0.791 1.048,1.84 1.685,2.689 0.637,0.848 1.239,1.495 1.643,1.902 0.404,0.407 0.611,0.574 0.797,0.87 0.186,0.296 0.351,0.72 0.488,1.263 0.137,0.544 0.246,1.205 0.304,1.972 0.058,0.767 0.067,1.64 0.054,2.608 -0.013,0.968 -0.047,2.031 0.15,2.999 0.197,0.968 0.624,1.84 1.101,2.577 0.476,0.738 1,1.339 1.389,1.826 0.39,0.488 0.644,0.862 0.856,1.23 0.213,0.367 0.384,0.729 0.555,1.154 0.171,0.425 0.342,0.913 0.472,1.479 0.13,0.566 0.218,1.21 0.339,1.795 0.121,0.584 0.275,1.108 0.375,1.699 0.1,0.59 0.145,1.246 0.32,2.204 0.174,0.958 0.476,2.218 0.678,3.273 0.203,1.055 0.305,1.904 0.416,2.657 0.112,0.753 0.231,1.409 0.325,2.284 0.094,0.875 0.163,1.97 0.294,2.774 0.131,0.804 0.325,1.317 0.465,2.09 0.14,0.772 0.225,1.805 0.299,2.412 0.074,0.607 0.137,0.79 0.288,0.952 0.104,0.112 0.251,0.215 0.437,0.32 -0.079,-0.368 -0.154,-0.732 -0.127,-0.999 0.028,-0.278 0.168,-0.45 0.332,-0.556 0.164,-0.105 0.352,-0.145 0.75,-0.063 0.398,0.082 1.007,0.284 1.729,0.399 0.723,0.115 1.56,0.144 2.868,0.151 1.309,0.007 3.089,-0.007 5.568,-0.327 2.479,-0.319 5.657,-0.943 8.788,-1.599 3.132,-0.656 6.217,-1.344 9.657,-2.107 3.44,-0.762 7.234,-1.599 10.248,-2.124 3.014,-0.525 5.249,-0.737 8.16,-0.854 2.912,-0.118 6.502,-0.139 10.137,0.024 3.635,0.163 7.316,0.511 9.976,0.862 2.66,0.351 4.298,0.706 5.688,1.227 1.391,0.522 2.533,1.21 3.226,1.734 0.693,0.524 0.938,0.884 1.054,1.193 0.116,0.309 0.104,0.568 -0.007,0.887 -0.11,0.319 -0.318,0.698 -0.526,1.077 0.192,-0.063 0.354,-0.202 0.566,-0.399 0.232,-0.218 0.523,-0.509 0.64,-0.957 0.116,-0.447 0.059,-1.052 0.065,-2.577 0.006,-1.525 0.074,-3.972 0.052,-6.694 -0.023,-2.724 -0.137,-5.723 -0.194,-7.553 -0.057,-1.831 -0.057,-2.492 -0.057,-3.427 0,-0.936 0,-2.144 -0.029,-3.276 -0.028,-1.132 -0.085,-2.187 -0.111,-3.279 -0.025,-1.092 -0.02,-2.221 -0.091,-4.009 -0.072,-1.787 -0.22,-4.234 -0.3,-6.212 -0.079,-1.979 -0.091,-3.49 -0.231,-7.51 -0.139,-4.02 -0.407,-10.55 -0.929,-16.996 -0.522,-6.446 -1.297,-12.81 -2.278,-18.854 -0.981,-6.045 -2.167,-11.77 -3.341,-17.21 -1.175,-5.44 -2.338,-10.594 -3.867,-15.864 -1.528,-5.268 -3.421,-10.651 -5.246,-15.498 -1.824,-4.847 -3.581,-9.158 -4.618,-11.657 -1.038,-2.499 -1.357,-3.186 -1.494,-3.631 -0.137,-0.445 -0.092,-0.647 0.009,-0.803 0.102,-0.155 0.258,-0.263 0.386,-0.349 0.014,-0.01 0.028,-0.019 0.041,-0.029 -0.042,-0.002 -0.088,-0.005 -0.144,-0.008 -0.105,-0.005 -0.243,-0.013 -0.693,-0.048 -0.449,-0.035 -1.21,-0.098 -2.217,-0.107 -1.008,-0.008 -2.262,0.038 -3.577,0.132 -1.316,0.095 -2.692,0.24 -4.839,0.609 -2.148,0.368 -5.068,0.962 -7.478,1.498 -2.41,0.535 -4.311,1.014 -6.805,1.509 -2.494,0.494 -5.581,1.003 -8.679,1.418 -3.098,0.414 -6.208,0.733 -9.971,1.076 -3.764,0.341 -8.181,0.707 -11.872,0.965 -3.692,0.259 -6.657,0.41 -9.367,0.559 -2.711,0.148 -5.167,0.292 -7.957,0.403 -2.79,0.11 -5.915,0.186 -9.017,0.251 -3.102,0.064 -6.181,0.117 -9.116,0.11 -2.935,-0.008 -5.725,-0.076 -8.341,-0.137 -2.615,-0.061 -5.056,-0.114 -7.698,-0.194 -2.642,-0.08 -5.486,-0.186 -8.975,-0.285 -3.49,-0.099 -7.626,-0.19 -12.01,-0.217 -4.383,-0.026 -9.013,0.012 -12.845,0.008 -3.832,-0.004 -6.865,-0.049 -10.876,-0.205 -4.011,-0.156 -8.998,-0.422 -12.585,-0.69 -3.587,-0.268 -5.773,-0.538 -7.362,-0.856 -1.59,-0.318 -2.583,-0.683 -3.577,-1.049 0.044,0.064 0.021,0.188 -0.027,0.625 -0.062,0.551 -0.164,1.597 -0.449,3.521 -0.286,1.925 -0.753,4.728 -1.058,6.779 -0.305,2.052 -0.448,3.352 -0.79,5.493 -0.342,2.141 -0.884,5.124 -1.32,7.752 -0.436,2.629 -0.767,4.904 -1.029,6.823 -0.263,1.919 -0.457,3.481 -0.636,5.294 -0.18,1.814 -0.345,3.878 -0.525,6.376 -0.18,2.497 -0.373,5.428 -0.567,8.701 -0.194,3.273 -0.388,6.888 -0.53,10.743 -0.143,3.855 -0.234,7.949 -0.206,12.14 0.029,4.192 0.177,8.48 0.468,12.648 0.291,4.169 0.724,8.217 1.009,11.855 0.285,3.638 0.422,6.865 0.485,10.435 0.063,3.57 0.051,7.481 0.091,11.969 0.04,4.488 0.131,9.552 0.223,13.777 0.091,4.225 0.182,7.612 0.266,9.945 0.084,2.332 0.162,3.609 0.193,4.373 0.031,0.764 0.017,1.015 0.027,2.23 0.01,1.214 0.044,3.393 0.078,4.946 0.035,1.554 0.069,2.484 0.137,3.037 0.068,0.553 0.171,0.73 0.482,1.055 0.311,0.325 0.83,0.798 2.632,1.177 1.802,0.38 4.886,0.665 7.829,0.918 2.942,0.254 5.742,0.476 10.492,0.73 4.75,0.254 11.451,0.539 16.4,0.753 4.95,0.214 8.149,0.356 10.954,0.382 2.806,0.026 5.218,-0.066 7.656,-0.143 2.438,-0.077 4.901,-0.139 7.25,-0.216 2.35,-0.077 4.585,-0.168 7.735,-0.565 3.151,-0.396 7.217,-1.098 9.757,-1.616 2.54,-0.519 3.556,-0.856 4.448,-1.309 0.892,-0.453 1.662,-1.024 2.078,-1.386 0.417,-0.362 0.479,-0.516 0.539,-0.807z"/>
 </g>
</svg>
