<?xml version="1.0" encoding="UTF-8"?>
<!DOCTYPE svg PUBLIC "-//W3C//DTD SVG 1.1//EN" "http://www.w3.org/Graphics/SVG/1.1/DTD/svg11.dtd">
<!-- Creator: CorelDRAW -->
<svg xmlns="http://www.w3.org/2000/svg" xml:space="preserve" width="238px" height="298px" version="1.1" shape-rendering="geometricPrecision" text-rendering="geometricPrecision" image-rendering="optimizeQuality" fill-rule="evenodd" clip-rule="evenodd"
viewBox="0 0 238000 298131"
 xmlns:xlink="http://www.w3.org/1999/xlink">
 <g id="Camada_x0020_1">
  <metadata id="CorelCorpID_0Corel-Layer"/>
  <path id="d2" fill="#F00808" d="M120317 182980c24164,-4 46934,-105 66970,-281l1 -161c-19217,-169 -40949,-268 -64014,-279 14008,-22 27081,-150 38345,-358 -9265,-172 -19754,-288 -30980,-337 17044,-38 32953,-161 46855,-348 -15527,-209 -33557,-337 -52878,-358 17138,-66 33132,-431 46925,-1023 -15290,-656 -33283,-1034 -52541,-1034l0 0 0 0c-19259,0 -37251,378 -52541,1034 13793,592 29787,957 46925,1023 -19321,21 -37351,149 -52878,358 13902,187 29811,310 46855,348 -11226,49 -21715,165 -30980,337 11264,208 24337,336 38345,358 -23065,11 -44797,110 -64014,279l1 161c20036,176 42806,277 66970,281 -15124,7 -29247,138 -41299,361 2622,48 5342,93 8149,132 -2807,39 -5527,83 -8149,132 9897,182 21190,304 33288,345 -12010,42 -23223,163 -33050,345 12332,229 26845,361 42378,361 -24881,0 -48193,229 -68232,627l4 105c17376,344 37213,561 58400,613 -5898,58 -11423,166 -16379,315 7382,221 16027,352 25286,360 -22722,7 -43946,254 -62017,679 10688,251 22479,440 35031,554 -1350,52 -2670,109 -3958,169 7128,330 15226,554 23897,639 -21636,37 -42014,223 -60123,527l2 289c17364,292 36813,475 57456,522 -6977,56 -13508,166 -19349,319 8725,229 18992,362 29982,362 -21436,0 -41464,350 -58482,958 17018,609 37046,959 58482,959 21436,0 41464,-350 58482,-959 -17018,-608 -37046,-958 -58482,-958 10990,0 21257,-133 29981,-362 -5840,-153 -12371,-263 -19348,-319 20643,-47 40092,-230 57456,-522l2 -289c-18109,-304 -38487,-490 -60123,-527 8671,-85 16769,-309 23897,-640 -1288,-59 -2608,-116 -3958,-168 12552,-114 24343,-303 35031,-555 -18071,-424 -39295,-671 -62017,-678 9259,-8 17904,-139 25286,-360 -4956,-149 -10481,-257 -16379,-315 21186,-52 41024,-269 58400,-613l4 -105c-20039,-398 -43351,-627 -68232,-627 15533,0 30046,-132 42378,-361 -9828,-182 -21040,-303 -33050,-345 12098,-41 23391,-163 33288,-345 -2622,-49 -5342,-93 -8149,-132 2807,-39 5527,-84 8149,-132 -12052,-223 -26175,-354 -41299,-361zm81759 -127946l34 -235c-20536,-278 -43558,-457 -68021,-509 15525,-83 30028,-293 42813,-603 -14989,-362 -32337,-588 -50927,-634 6375,-88 12332,-295 17602,-595 -4852,-277 -10287,-474 -16094,-572 11444,-72 22128,-288 31481,-616 -11630,-408 -25316,-643 -39964,-643 -14648,0 -28334,235 -39964,643 9354,328 20039,544 31485,616 -5808,98 -11245,295 -16098,572 5270,301 11227,507 17602,595 -18590,46 -35938,272 -50928,635 12786,309 27288,519 42813,602 -24641,53 -47820,234 -68469,516l34 222c11291,155 23338,279 35966,368 -2377,51 -4701,105 -6968,164 15867,407 34540,642 54527,642 19986,0 38660,-235 54527,-643 -2266,-58 -4589,-113 -6965,-163 12460,-89 24354,-210 35514,-362zm-21127 -37405c-471,-119 -942,-240 -1412,-365 -18220,-309 -38779,-484 -60537,-484 15533,0 30046,-132 42378,-361 -9828,-183 -21040,-304 -33050,-345 12097,-42 23391,-163 33288,-345 -2622,-49 -5342,-93 -8149,-133 2807,-39 5527,-83 8149,-131 -12052,-223 -26175,-354 -41299,-361 18287,-3 35776,-61 51885,-166l-1128 -398c-11213,-71 -23083,-120 -35416,-143 -2289,-14 -4614,-26 -6969,-34 10534,-46 20373,-164 29035,-341 -9951,-202 -21455,-328 -33783,-355 15383,-52 29858,-345 42666,-827l-1069 -437c-13915,-508 -29745,-796 -46538,-796l0 0 0 0c-16793,0 -32623,288 -46539,796l-1068 437c12808,481 27283,775 42666,827 -12328,27 -23832,153 -33783,355 8662,177 18500,295 29035,341 -2355,8 -4680,20 -6969,34 -12333,23 -24203,72 -35416,143l-1128 398c16109,104 33598,163 51885,166 -15124,7 -29247,138 -41299,361 2622,48 5342,92 8149,131 -2807,40 -5527,84 -8149,133 9897,182 21190,303 33288,345 -12011,41 -23223,162 -33050,345 12332,229 26845,361 42378,361 -21758,0 -42317,174 -60536,484 -470,125 -941,246 -1411,365 15812,277 33434,451 52104,496 -5892,58 -11413,166 -16364,314 7382,222 16027,353 25286,361 -22722,7 -43946,254 -62017,678 10688,252 22479,441 35031,555 -1350,52 -2670,109 -3958,168 7223,336 15441,560 24242,643 -18896,51 -36529,289 -51782,669 14628,364 31445,597 49466,661 -7238,54 -14009,166 -20043,324 8725,229 18992,361 29982,361 -28668,0 -55453,351 -78213,959 22760,609 49545,959 78213,959 28668,0 55453,-350 78213,-958 -22760,-609 -49545,-960 -78213,-960 10989,0 21257,-132 29981,-361 -6033,-158 -12804,-270 -20042,-324 18021,-64 34838,-297 49466,-661 -15253,-380 -32886,-618 -51783,-669 8801,-83 17020,-307 24243,-642 -1288,-60 -2609,-117 -3958,-169 12551,-114 24343,-303 35031,-555 -18071,-424 -39295,-671 -62017,-678 9259,-8 17904,-139 25286,-361 -4952,-148 -10472,-256 -16364,-314 18670,-45 36292,-219 52106,-496zm-18876 -6640l-1800 -735c-12603,-363 -26571,-565 -41273,-565 -14701,0 -28670,202 -41273,565l-1800 735c13068,397 27668,618 43073,618 15405,0 30005,-221 43073,-618zm-4463 -1848c-413,-247 -933,-698 -1494,-1153 -11614,-237 -24106,-366 -37116,-366 10989,0 21257,-132 29981,-361 -5840,-154 -12371,-264 -19348,-320 8572,-19 16939,-63 25036,-127 -114,-109 -234,-221 -402,-356 -291,-235 -582,-480 -873,-732 -8539,-66 -17372,-107 -26426,-123 8671,-85 16769,-308 23897,-640 -1288,-59 -2609,-116 -3958,-168 1806,-17 3596,-34 5369,-54 -386,-341 -775,-682 -1171,-1013 -9939,-105 -20393,-163 -31184,-166 9259,-8 17904,-139 25286,-360 -4952,-149 -10472,-257 -16364,-315 7188,-17 14221,-54 21056,-108 -589,-429 -1197,-816 -1835,-1130 -9363,-70 -19087,-107 -29064,-107 10024,0 19622,-55 28484,-155 -447,-183 -909,-329 -1388,-427 -5660,-60 -11609,-103 -17768,-124 5282,-18 10411,-51 15336,-98 -211,-32 -421,-66 -750,-84l-7601 -170c-5892,-486 -12055,-501 -18060,-477 -5087,20 -9557,63 -14567,477 -2529,209 -4996,29 -7600,170 -329,18 -539,52 -750,84 4925,47 10054,80 15336,98 -6159,21 -12108,64 -17768,124 -479,98 -941,244 -1388,427 8862,100 18460,155 28484,155 -9977,0 -19701,37 -29064,107 -639,314 -1247,701 -1835,1130 6834,54 13867,91 21056,108 -5892,58 -11413,166 -16364,315 7382,221 16027,352 25286,360 -10792,3 -21245,61 -31184,166 -396,331 -785,672 -1171,1013 1773,20 3564,37 5369,54 -1350,52 -2670,109 -3958,169 7128,331 15226,554 23897,639 -9054,16 -17887,57 -26426,123 -291,251 -582,497 -874,732 -167,135 -287,247 -401,356 8097,64 16464,108 25036,127 -6977,56 -13508,166 -19349,320 8725,229 18992,361 29982,361 -13011,0 -25502,129 -37117,366 -449,365 -873,727 -1235,983 -90,64 -176,121 -258,170 12035,258 25040,398 38610,398 13570,0 26575,-140 38610,-398zm-114293 90787l45 198c10347,160 21412,288 33026,379 -2130,51 -4212,106 -6243,164 14217,408 30947,643 48855,643 17908,0 34638,-235 48855,-643 -2030,-58 -4112,-113 -6240,-164 11594,-91 22642,-220 32975,-379l48 -199c-18694,-289 -39733,-474 -62118,-527 13910,-84 26904,-294 38360,-603 -13431,-363 -28974,-589 -45631,-634 5712,-88 11050,-295 15772,-596 -4348,-276 -9218,-473 -14421,-571 10254,-72 19827,-289 28207,-617 -10420,-407 -22682,-642 -35807,-642 -13125,0 -25387,235 -35807,643 8381,327 17955,544 28210,616 -5205,98 -10075,295 -14424,572 4722,300 10060,507 15772,595 -16657,45 -32200,271 -45631,634 11456,310 24450,519 38360,603 -22403,53 -43457,238 -62163,528zm3571 27258l10 91c20941,197 45073,311 70785,315 -15124,7 -29247,139 -41299,361 2622,49 5342,93 8149,132 -2807,40 -5527,84 -8149,132 9897,183 21190,304 33288,346 -12011,41 -23223,162 -33050,345 12332,229 26845,361 42378,361 -25958,0 -50210,248 -70818,678 17980,376 38734,613 60975,667 -5892,57 -11413,165 -16364,314 7382,222 16027,353 25286,361 -22722,6 -43946,253 -62017,678 10688,251 22479,440 35031,554 -1350,53 -2670,109 -3958,169 7223,335 15441,560 24242,643 -18896,51 -36529,288 -51782,668 11685,291 24767,499 38744,603 -1342,61 -2649,128 -3916,200 5270,300 11227,507 17602,595 -18590,45 -35938,272 -50928,634 12786,310 27288,520 42813,603 -19773,42 -38604,167 -55943,360l57 534c7539,84 15360,154 23417,212 -2377,51 -4701,105 -6968,164 15867,407 34540,642 54527,642 19986,0 38660,-235 54527,-642 -2266,-59 -4589,-113 -6965,-164 8056,-58 15876,-128 23414,-212l57 -534c-17339,-193 -36170,-318 -55944,-360 15525,-83 30028,-293 42813,-603 -14989,-362 -32337,-589 -50927,-634 6375,-88 12332,-295 17602,-595 -1266,-72 -2573,-139 -3915,-200 13976,-104 27058,-312 38743,-603 -15253,-380 -32886,-617 -51783,-668 8801,-83 17020,-308 24243,-643 -1288,-60 -2609,-116 -3958,-169 12551,-114 24343,-303 35031,-554 -18071,-425 -39295,-672 -62017,-678 9259,-8 17904,-139 25286,-361 -4952,-149 -10472,-257 -16364,-314 22240,-54 42994,-291 60974,-666 -20607,-431 -44859,-679 -70817,-679 15533,0 30046,-132 42378,-361 -9828,-183 -21040,-304 -33050,-345 12097,-42 23391,-163 33288,-346 -2622,-48 -5342,-92 -8149,-132 2807,-39 5527,-83 8149,-132 -12052,-222 -26175,-354 -41299,-361 25712,-4 49844,-118 70785,-315l10 -91c-16723,-158 -35481,-263 -55454,-301 -2289,-14 -4614,-25 -6969,-34 10534,-45 20373,-164 29035,-340 -9951,-202 -21455,-329 -33783,-356 17393,-58 33626,-426 47600,-1025 -15290,-656 -33282,-1034 -52541,-1034l0 0 0 0c-19258,0 -37251,378 -52541,1034 13974,599 30207,967 47600,1025 -12328,27 -23832,154 -33783,356 8662,176 18500,295 29035,340 -2355,9 -4680,20 -6969,34 -19973,38 -38731,143 -55454,301zm2465 24206l13 137c20360,184 43609,289 68317,293 -15124,7 -29247,138 -41299,361 2622,49 5342,93 8149,132 -2807,39 -5527,83 -8149,132 9897,183 21190,304 33288,345 -12010,42 -23223,163 -33050,345 12332,229 26845,362 42378,362 -25369,0 -49109,237 -69410,649l5 58c17655,359 37910,585 59577,637 -5898,58 -11423,166 -16379,315 7382,221 16027,352 25286,360 -22722,7 -43946,254 -62017,679 10688,251 22479,440 35031,554 -1350,52 -2670,109 -3958,169 7128,331 15226,554 23897,639 -22073,38 -42837,231 -61220,546l13 252c17638,302 37468,492 58542,540 -6977,56 -13508,166 -19349,320 8725,229 18992,361 29982,361 -21436,0 -41464,350 -58482,959 17018,608 37046,958 58482,958 21436,0 41464,-350 58482,-958 -17018,-609 -37046,-959 -58482,-959 10990,0 21257,-132 29981,-361 -5840,-154 -12371,-264 -19348,-320 21074,-48 40904,-238 58542,-540l13 -252c-18382,-315 -39147,-508 -61220,-546 8671,-85 16769,-308 23897,-640 -1288,-59 -2608,-116 -3958,-168 12552,-114 24343,-303 35031,-554 -18071,-425 -39295,-672 -62017,-679 9259,-8 17904,-139 25286,-360 -4956,-149 -10481,-257 -16379,-315 21667,-52 41922,-278 59577,-637l5 -58c-20301,-412 -44041,-649 -69410,-649 15533,0 30046,-133 42378,-362 -9828,-182 -21040,-303 -33050,-345 12098,-41 23391,-162 33288,-345 -2622,-49 -5342,-93 -8149,-132 2807,-39 5527,-83 8149,-132 -12052,-223 -26175,-354 -41299,-361 24707,-4 47957,-109 68317,-293l13 -137c-16795,-151 -35556,-249 -55480,-281 1641,-47 3219,-103 4725,-166 -5322,-221 -11554,-352 -18228,-360 16379,-7 31679,-254 44706,-679 -7705,-251 -16205,-440 -25253,-554 973,-53 1925,-109 2854,-169 -5139,-331 -10977,-554 -17227,-639 17932,-43 34668,-283 49096,-672 -13912,-375 -29969,-612 -47175,-666 5029,-56 9737,-166 13947,-320 -6289,-229 -13690,-361 -21612,-361 15453,0 29890,-351 42157,-959 -12267,-608 -26704,-959 -42157,-959 -15453,0 -29890,351 -42157,959 12267,608 26704,959 42157,959 -7922,0 -15323,132 -21613,361 4210,154 8919,264 13948,320 -17206,54 -33263,291 -47175,666 14428,389 31163,629 49096,672 -6251,85 -12088,308 -17227,639 929,60 1881,116 2854,169 -9048,114 -17548,303 -25253,554 13027,425 28327,672 44706,679 -6674,8 -12906,139 -18228,360 1506,63 3084,119 4724,166 -19923,32 -38684,130 -55479,281zm895 15231l8 152c20146,179 43078,281 67427,285 -15124,7 -29247,138 -41299,361 2622,48 5342,92 8149,132 -2807,39 -5527,83 -8149,132 9897,182 21190,303 33288,345 -12011,41 -23223,162 -33050,345 12332,229 26845,361 42378,361 -25038,0 -48487,231 -68612,634l5 90c17462,349 37429,569 58764,621 -5892,58 -11413,166 -16364,315 7382,221 16027,352 25286,360 -22722,6 -43946,254 -62017,678 10688,252 22479,441 35031,555 -1350,52 -2670,109 -3958,168 7223,336 15441,560 24242,643 -18896,51 -36529,289 -51782,669 14628,364 31445,597 49466,661 -7238,54 -14009,166 -20043,324 8725,229 18992,361 29982,361 -24608,0 -47827,259 -68305,717l7 485c20476,458 43693,716 68298,716 24605,0 47822,-258 68298,-716l7 -485c-20478,-458 -43697,-717 -68305,-717 10990,0 21257,-132 29981,-361 -6033,-158 -12804,-270 -20042,-324 18021,-64 34838,-297 49466,-661 -15253,-380 -32886,-618 -51783,-669 8801,-83 17020,-307 24243,-642 -1288,-60 -2609,-117 -3958,-169 12551,-114 24343,-303 35031,-554 -18071,-425 -39295,-673 -62017,-679 9259,-8 17904,-139 25286,-360 -4952,-149 -10472,-257 -16364,-315 21335,-52 41302,-272 58764,-621l5 -90c-20125,-403 -43575,-634 -68612,-634 15533,0 30046,-132 42378,-361 -9828,-183 -21040,-304 -33050,-345 12097,-42 23391,-163 33288,-345 -2622,-49 -5342,-93 -8149,-132 2807,-40 5527,-84 8149,-132 -12052,-223 -26175,-354 -41299,-361 24348,-4 47281,-106 67427,-285l8 -152c-15861,-141 -33448,-235 -52094,-270 -2289,-14 -4614,-26 -6969,-34 10534,-46 20373,-164 29035,-340 -9960,-203 -21475,-330 -33816,-356 17405,-59 33650,-426 47633,-1026 -15290,-656 -33283,-1034 -52541,-1034 19377,0 37480,-351 52863,-958 -15383,-609 -33486,-960 -52863,-960 -19377,0 -37480,351 -52863,960 15383,607 33486,958 52863,958 -19258,0 -37251,378 -52541,1034 13983,600 30227,967 47633,1026 -12341,26 -23857,153 -33816,356 8661,176 18501,294 29035,340 -2355,8 -4679,20 -6968,34 -18646,35 -36234,129 -52095,270zm466 11150l0 139c20043,565 43378,889 68286,889 24908,0 48243,-324 68286,-889l0 -139c-20043,-566 -43378,-890 -68286,-890 -24909,0 -48243,324 -68286,890zm-176 28805l-23 589c6766,72 13752,134 20925,185 -2376,51 -4700,105 -6967,164 15867,407 34540,642 54527,642 19986,0 38660,-235 54527,-642 -2266,-59 -4589,-113 -6965,-164 7173,-51 14158,-113 20923,-185l-23 -589c-16624,-177 -34573,-292 -53373,-332 15525,-83 30028,-293 42813,-603 -14989,-362 -32337,-588 -50927,-634 6375,-88 12332,-294 17602,-595 -4852,-277 -10287,-474 -16094,-572 11444,-72 22128,-288 31481,-616 -11630,-408 -25316,-643 -39964,-643 -14648,0 -28334,235 -39964,643 9354,328 20039,544 31485,616 -5808,98 -11245,295 -16098,572 5270,301 11227,507 17602,595 -18590,46 -35938,272 -50928,635 12786,309 27288,519 42813,602 -18800,40 -36748,155 -53372,332zm-4352 45263l-50 283c9543,140 19670,254 30251,337 -2129,51 -4211,106 -6242,164 14217,408 30947,643 48855,643 17908,0 34638,-235 48855,-643 -2030,-58 -4112,-113 -6240,-164 10581,-83 20706,-197 30249,-338l-50 -283c-17980,-264 -38029,-433 -59294,-484 13910,-84 26904,-294 38360,-603 -13431,-363 -28974,-589 -45631,-634 5712,-88 11050,-295 15772,-595 -4348,-277 -9218,-474 -14421,-572 10254,-72 19827,-289 28207,-616 -10420,-408 -22682,-643 -35807,-643 -13125,0 -25387,235 -35807,643 8381,327 17955,544 28210,616 -5204,98 -10075,295 -14424,572 4722,300 10060,507 15772,595 -16657,45 -32200,271 -45631,634 11456,310 24450,519 38360,603 -21265,51 -41314,220 -59294,485zm-3667 27344l0 5c21926,224 47640,354 75164,358 -15124,7 -29247,139 -41299,361 2622,49 5342,93 8149,133 -2807,39 -5527,83 -8149,132 9897,182 21190,303 33288,345 -12011,41 -23223,162 -33050,345 12332,229 26845,361 42378,361 -25958,0 -50210,248 -70818,678 17980,376 38734,613 60975,667 -5892,58 -11413,165 -16364,314 7382,222 16027,353 25286,361 -22722,6 -43946,253 -62017,678 10688,251 22479,440 35031,555 -1350,52 -2670,108 -3958,168 7223,335 15441,560 24242,643 -18896,51 -36529,289 -51782,668 11685,291 24767,499 38744,603 -1342,61 -2649,128 -3916,200 5270,301 11227,507 17602,595 -18590,46 -35938,272 -50928,634 12786,310 27288,520 42813,603 -22579,48 -43931,204 -63234,447 -31,121 -58,241 -82,359 9790,123 20108,224 30847,300 -2377,51 -4701,105 -6968,164 15867,407 34540,643 54527,643 19986,0 38660,-236 54527,-643 -2266,-59 -4589,-113 -6965,-164 10737,-76 21054,-177 30844,-300 -24,-119 -52,-238 -82,-359 -19303,-243 -40655,-399 -63235,-447 15525,-83 30028,-293 42813,-603 -14989,-362 -32337,-588 -50927,-634 6375,-88 12332,-295 17602,-595 -1266,-72 -2573,-139 -3915,-200 13976,-104 27058,-311 38743,-603 -15253,-379 -32886,-617 -51783,-668 8801,-83 17020,-308 24243,-643 -1288,-60 -2609,-116 -3958,-168 12551,-115 24343,-304 35031,-555 -18071,-425 -39295,-672 -62017,-678 9259,-8 17904,-139 25286,-361 -4952,-149 -10472,-256 -16364,-314 22240,-54 42994,-291 60974,-666 -20607,-431 -44859,-679 -70817,-679 15533,0 30046,-132 42378,-361 -9828,-183 -21040,-304 -33050,-345 12097,-42 23391,-163 33288,-345 -2622,-49 -5342,-93 -8149,-132 2807,-40 5527,-84 8149,-133 -12052,-222 -26175,-354 -41299,-361 27524,-4 53238,-134 75164,-358l0 -5c-17798,-182 -38091,-302 -59823,-343 -2289,-14 -4614,-26 -6969,-34 10534,-46 20373,-165 29035,-341 -9951,-202 -21455,-329 -33783,-356 17393,-58 33626,-426 47600,-1025 -15290,-656 -33282,-1034 -52541,-1034l0 0 0 0c-19258,0 -37251,378 -52541,1034 13974,599 30207,967 47600,1025 -12328,27 -23832,154 -33783,356 8662,176 18500,295 29035,341 -2355,8 -4680,20 -6969,34 -21731,41 -42025,161 -59823,343zm35422 18284c4826,168 10014,182 17142,268 9335,112 21999,351 32523,382 10525,32 18909,-144 26242,-419 2016,-76 3952,-159 5813,-250 -11939,-564 -25832,-887 -40661,-887 -14994,0 -29031,331 -41059,906zm41059 -154087c9733,0 18826,-219 26553,-598 -2787,-137 -5751,-253 -8859,-345 5656,-132 10994,-327 15897,-574 -7572,-381 -16181,-638 -25399,-734 10506,-74 20315,-290 28913,-614 -1462,-55 -2959,-107 -4488,-156 11226,-110 21808,-275 31499,-487 -7759,-169 -16090,-309 -24864,-415 1237,-35 2455,-73 3653,-112 -12486,-408 -27179,-643 -42905,-643 -15726,0 -30419,235 -42905,643 1197,39 2415,77 3652,113 -8774,105 -17104,245 -24863,414 9691,212 20273,377 31499,487 -1529,49 -3026,101 -4488,156 8598,324 18407,540 28913,614 -9218,96 -17827,353 -25399,734 4904,247 10243,442 15900,574 -3109,92 -6074,208 -8862,345 7727,379 16820,598 26553,598 -14180,0 -27429,166 -38686,455 11257,288 24506,455 38686,455 14180,0 27429,-167 38686,-456 -11257,-288 -24506,-454 -38686,-454zm0 -19286c19377,0 37480,-351 52863,-959 -15383,-608 -33486,-959 -52863,-959 -19377,0 -37480,351 -52863,959 15383,608 33486,959 52863,959zm0 -2068c21436,0 41464,-351 58482,-959 -16617,-594 -36104,-942 -56969,-958 7351,-16 14212,-145 20099,-360 -6289,-229 -13690,-361 -21612,-361 20666,0 39974,-351 56380,-959 -16406,-608 -35714,-959 -56380,-959 -20666,0 -39974,351 -56381,959 16407,608 35715,959 56381,959 -7922,0 -15323,132 -21613,361 5887,215 12749,344 20100,360 -20865,16 -40352,364 -56969,958 17018,608 37046,959 58482,959zm-4049 -8680c-12353,65 -23883,431 -33826,1023 11022,655 23992,1034 37875,1034l0 0 0 0c13883,0 26853,-379 37874,-1034 -9942,-592 -21472,-958 -33826,-1023 13928,-21 26926,-150 38118,-359 -10021,-187 -21489,-309 -33776,-348 8092,-48 15654,-165 22332,-336 -8119,-208 -17543,-336 -27641,-358 19115,-13 36960,-143 52240,-360 -11918,-170 -25396,-286 -39820,-335 12158,-99 23528,-312 33635,-616 -12465,-376 -26852,-612 -42269,-667 4507,-56 8725,-166 12497,-319 -5634,-229 -12266,-361 -19364,-361 13845,0 26781,-351 37772,-959 -10991,-608 -23927,-959 -37772,-959 -13845,0 -26781,351 -37772,959 10991,608 23927,959 37772,959 -7098,0 -13730,132 -19365,361 3773,153 7991,263 12497,319 -15416,55 -29803,291 -42268,667 10107,304 21477,517 33635,616 -14424,49 -27902,165 -39820,335 15280,217 33125,347 52240,360 -10098,22 -19522,150 -27641,358 6678,171 14240,288 22332,336 -12287,39 -23755,161 -33776,348 11192,209 24190,338 38117,359zm4049 2057c-18681,0 -36133,350 -50964,958 14831,609 32283,959 50964,959 18680,0 36133,-350 50963,-959 -14830,-608 -32283,-958 -50963,-958zm0 -9260c8720,0 16868,-218 23791,-598 -2497,-136 -5153,-252 -7938,-344 5068,-133 9851,-328 14243,-574 -6783,-382 -14497,-638 -22756,-734 9413,-74 18202,-290 25905,-614 -1309,-56 -2651,-108 -4021,-156 10058,-111 19540,-275 28223,-487 -6952,-170 -14416,-310 -22278,-415 1108,-36 2200,-73 3273,-112 -11187,-408 -24352,-643 -38442,-643 -14090,0 -27255,235 -38442,643 1073,39 2164,77 3271,112 -7861,106 -15324,246 -22276,415 8683,212 18165,377 28223,487 -1370,48 -2712,101 -4021,156 7703,324 16492,540 25905,614 -8259,96 -15973,352 -22756,734 4393,246 9176,441 14245,574 -2786,92 -5442,208 -7940,345 6923,379 15071,597 23791,597 -12705,0 -24576,167 -34662,455 10086,289 21957,455 34662,455 12705,0 24576,-166 34662,-455 -10086,-288 -21957,-455 -34662,-455zm0 -10424c18454,0 35695,-235 50345,-643 -14489,-403 -31511,-638 -49735,-643 12795,-7 24747,-241 34925,-643 -3398,-134 -6994,-249 -10753,-344 7933,-109 15418,-271 22293,-475 -13698,-408 -29820,-643 -47075,-643 17255,0 33377,-111 47076,-304 -13699,-193 -29821,-305 -47076,-305 -17255,0 -33377,112 -47075,305 13698,193 29820,304 47075,304 -17255,0 -33377,235 -47076,643 6876,205 14363,366 22297,475 -3760,95 -7357,210 -10757,344 10179,402 22131,636 34926,643 -18224,5 -35247,240 -49735,643 14650,408 31891,643 50345,643zm610 -1286l-610 0 0 0 0 0 -610 0 610 0 610 0zm3817 -4501c15584,-58 30128,-426 42649,-1026 -13628,-652 -29653,-1029 -46806,-1033 17259,-4 33383,-354 47095,-959 -8713,-385 -18399,-666 -28731,-821 11680,-107 22619,-311 32415,-595 -12960,-376 -27921,-612 -43954,-667 4248,-57 8227,-165 11797,-314 -5322,-221 -11554,-352 -18229,-360 16380,-7 31680,-254 44707,-679 -7705,-251 -16205,-440 -25253,-554 973,-53 1925,-109 2854,-169 -5207,-335 -11132,-560 -17476,-642 13621,-51 26332,-289 37328,-669 -10545,-364 -22668,-598 -35658,-661 5217,-54 10098,-166 14447,-325 -6289,-229 -13690,-361 -21612,-361 20666,0 39974,-351 56380,-959 -16406,-608 -35714,-959 -56380,-959 -20666,0 -39974,351 -56381,959 16407,608 35715,959 56381,959 -7922,0 -15323,132 -21613,361 4349,159 9231,271 14448,325 -12990,63 -25113,297 -35658,661 10996,380 23707,618 37328,669 -6344,82 -12269,307 -17476,642 929,60 1881,116 2854,169 -9048,114 -17548,303 -25253,554 13027,425 28327,672 44706,679 -6674,8 -12906,139 -18228,360 3569,149 7549,257 11797,314 -16033,55 -30994,291 -43955,667 9797,284 20736,488 32416,595 -10332,155 -20018,436 -28730,821 13711,605 29835,955 47094,959 -17153,4 -33178,381 -46805,1034 12520,599 27064,967 42648,1025 -11046,27 -21354,153 -30269,356 7761,176 16578,295 26018,340 -10719,43 -20727,164 -29508,345 11112,229 24189,361 38186,361 13997,0 27074,-132 38186,-361 -8781,-181 -18789,-302 -29508,-345 9440,-45 18257,-164 26018,-340 -8915,-203 -19223,-329 -30269,-356zm-8476 -15877c-12353,65 -23883,431 -33826,1023 11022,656 23992,1034 37875,1034l0 0 0 0c13883,0 26853,-378 37874,-1034 -9942,-592 -21472,-958 -33826,-1023 13928,-21 26926,-150 38118,-359 -10021,-187 -21489,-309 -33776,-347 8092,-49 15654,-166 22332,-337 -8119,-208 -17543,-336 -27641,-358 19115,-12 36960,-143 52240,-360 -15847,-226 -34452,-357 -54371,-361 10902,-7 21082,-138 29770,-361 -1890,-48 -3851,-93 -5875,-132 2024,-40 3985,-84 5875,-132 -7134,-183 -15275,-304 -23995,-345 8657,-42 16739,-163 23823,-345 -8889,-229 -19351,-362 -30548,-362 18712,0 36194,-248 51049,-678 -12960,-376 -27921,-612 -43954,-667 4248,-57 8227,-165 11797,-314 -5322,-222 -11554,-352 -18228,-361 16379,-6 31679,-253 44706,-678 -7705,-251 -16205,-440 -25253,-554 973,-53 1925,-109 2854,-169 -5139,-331 -10977,-554 -17227,-639 17932,-43 34668,-283 49096,-672 -13912,-375 -29969,-612 -47175,-666 5029,-56 9737,-166 13947,-320 -6289,-229 -13690,-361 -21612,-361 15453,0 29890,-350 42157,-959 -12267,-608 -26704,-959 -42157,-959 -15453,0 -29890,351 -42157,959 12267,609 26704,959 42157,959 -7922,0 -15323,132 -21613,361 4210,154 8919,264 13948,320 -17206,54 -33263,291 -47175,666 14428,389 31163,629 49096,672 -6251,85 -12088,308 -17227,639 929,60 1881,116 2854,169 -9048,114 -17548,303 -25253,554 13027,425 28327,672 44706,678 -6674,9 -12906,139 -18228,361 3570,149 7549,257 11797,314 -16033,55 -30994,291 -43954,667 14855,430 32337,678 51049,678 -11198,0 -21659,133 -30549,362 7084,182 15167,303 23824,345 -8720,41 -16861,162 -23995,345 1890,48 3851,92 5874,132 -2023,39 -3984,84 -5874,132 8688,223 18868,354 29770,361 -19919,4 -38524,135 -54371,361 15280,217 33125,348 52240,360 -10098,22 -19522,150 -27641,358 6678,171 14240,288 22332,337 -12287,38 -23755,160 -33776,347 11192,209 24190,338 38117,359zm4049 2057c-18681,0 -36133,350 -50964,959 14831,608 32283,958 50964,958 18680,0 36133,-350 50963,-958 -14830,-609 -32283,-959 -50963,-959zm0 -15078c9733,0 18826,-219 26553,-598 -2787,-137 -5751,-253 -8859,-345 5656,-132 10994,-327 15897,-574 -7572,-382 -16181,-638 -25399,-734 10506,-74 20315,-289 28913,-614 -1462,-55 -2959,-107 -4488,-156 11226,-110 21808,-275 31499,-487 -7759,-169 -16090,-309 -24864,-414 1237,-36 2455,-74 3653,-113 -12486,-408 -27179,-643 -42905,-643 -15726,0 -30419,235 -42905,643 1197,39 2415,77 3652,113 -8774,105 -17104,245 -24863,414 9691,212 20273,377 31499,487 -1529,49 -3026,101 -4488,156 8598,325 18407,540 28913,614 -9218,96 -17827,352 -25399,734 4904,247 10243,441 15900,574 -3109,92 -6074,208 -8862,345 7727,379 16820,598 26553,598 -14180,0 -27429,166 -38686,455 11257,288 24506,455 38686,455 14180,0 27429,-167 38686,-455 -11257,-289 -24506,-455 -38686,-455zm0 -10425c20596,0 39839,-235 56190,-643 -16171,-403 -35170,-637 -55509,-643 14280,-7 27619,-241 38980,-642 -3793,-134 -7806,-250 -12002,-344 8854,-110 17208,-271 24882,-476 -15290,-408 -33282,-643 -52541,-643 19259,0 37251,-111 52541,-304 -15290,-193 -33282,-304 -52541,-304 -19258,0 -37251,111 -52541,304 15051,190 32721,301 51639,304 -18918,8 -36588,242 -51639,643 7675,205 16031,366 24886,476 -4197,94 -8212,210 -12006,344 11361,401 24699,635 38980,642 -20339,6 -39338,240 -55509,643 16351,408 35594,643 56190,643zm-5616 -21709c-17138,-66 -33132,-431 -46925,-1023 15202,-652 33078,-1030 52212,-1034 -25789,-3 -49884,-353 -70369,-959 20573,-608 44784,-959 70698,-959 25914,0 50125,351 70698,959 -20486,606 -44579,956 -70369,959 19134,4 37009,382 52212,1034 -13793,592 -29787,957 -46925,1023 19320,21 37351,149 52878,358 -13902,187 -29811,310 -46855,348 11226,49 21715,165 30980,337 -11264,208 -24337,336 -38345,358 26517,12 51272,142 72469,360 -21983,225 -47793,357 -75426,361 15124,7 29247,138 41299,361 -2622,48 -5342,92 -8149,132 2807,39 5527,83 8149,132 -9897,182 -21190,304 -33288,345 12010,41 23222,163 33050,345 -12332,229 -26845,361 -42378,361 25958,0 50210,248 70818,679 -17980,376 -38734,612 -60975,666 5892,58 11412,166 16364,315 -7382,221 -16027,352 -25286,360 22722,6 43946,254 62017,678 -10688,252 -22479,441 -35031,555 1349,52 2670,109 3958,168 -7128,331 -15226,555 -23897,640 24877,42 48092,282 68107,672 -19299,375 -41573,611 -65442,666 6977,56 13508,166 19348,319 -8724,229 -18992,362 -29981,362 21436,0 41464,350 58482,958 -17018,609 -37046,959 -58482,959 -21436,0 -41464,-350 -58482,-959 17018,-608 37046,-958 58482,-958 -10990,0 -21257,-133 -29982,-362 5841,-153 12372,-263 19349,-319 -23869,-55 -46144,-291 -65443,-666 20016,-389 43231,-630 68108,-672 -8671,-85 -16769,-309 -23897,-640 1288,-59 2608,-116 3958,-168 -12552,-114 -24343,-303 -35031,-554 18071,-425 39295,-673 62017,-679 -9259,-8 -17904,-139 -25286,-360 4951,-149 10472,-257 16364,-315 -22241,-54 -42994,-290 -60974,-666 20607,-431 44859,-679 70817,-679 -15533,0 -30046,-132 -42378,-361 9827,-182 21039,-304 33050,-345 -12098,-41 -23391,-163 -33288,-345 2622,-49 5342,-93 8149,-132 -2807,-40 -5527,-84 -8149,-132 12052,-223 26175,-354 41299,-361 -27633,-4 -53443,-136 -75426,-361 21197,-218 45952,-348 72469,-360 -14008,-22 -27081,-150 -38345,-358 9265,-172 19754,-288 30980,-337 -17045,-38 -32954,-161 -46855,-348 15526,-209 33557,-337 52878,-358zm10557 15923c17393,-59 33626,-427 47600,-1026 -15290,-656 -33282,-1034 -52541,-1034l0 0 0 0c-19258,0 -37251,378 -52541,1034 13974,599 30207,967 47600,1026 -12328,26 -23832,153 -33783,355 8662,176 18503,295 29039,341 -11964,42 -23134,163 -32934,344 12402,229 26997,361 42619,361 15622,0 30217,-132 42619,-361 -9800,-181 -20970,-302 -32934,-344 10536,-46 20376,-165 29039,-341 -9951,-202 -21455,-329 -33783,-355zm-4941 -2060c19377,0 37480,-351 52863,-959 -15383,-608 -33486,-959 -52863,-959 -19377,0 -37480,351 -52863,959 15383,608 33486,959 52863,959zm0 252573c9733,0 18826,-219 26553,-598 -2787,-137 -5751,-253 -8859,-345 5656,-132 10994,-327 15897,-574 -7572,-381 -16181,-638 -25399,-734 10506,-74 20315,-289 28913,-614 -1462,-55 -2959,-107 -4488,-156 11226,-110 21808,-275 31499,-487 -7759,-169 -16090,-309 -24864,-415 1237,-35 2455,-73 3653,-112 -12486,-408 -27179,-643 -42905,-643 -15726,0 -30419,235 -42905,643 1197,39 2415,77 3652,113 -8774,105 -17104,245 -24863,414 9691,212 20273,377 31499,487 -1529,49 -3026,101 -4488,156 8598,325 18407,540 28913,614 -9218,96 -17827,353 -25399,734 4904,247 10243,442 15900,574 -3109,92 -6074,208 -8862,345 7727,379 16820,598 26553,598 -14180,0 -27429,166 -38686,455 11257,288 24506,455 38686,455 14180,0 27429,-167 38686,-455 -11257,-289 -24506,-455 -38686,-455zm0 -19286c19377,0 37480,-351 52863,-959 -15383,-608 -33486,-959 -52863,-959 -19377,0 -37480,351 -52863,959 15383,608 33486,959 52863,959zm0 -2068c21436,0 41464,-351 58482,-959 -16617,-594 -36104,-942 -56969,-958 7351,-16 14212,-145 20099,-360 -6289,-229 -13690,-361 -21612,-361 20666,0 39974,-351 56380,-959 -16406,-608 -35714,-959 -56380,-959 -20666,0 -39974,351 -56381,959 16407,608 35715,959 56381,959 -7922,0 -15323,132 -21613,361 5887,215 12749,344 20100,360 -20865,16 -40352,364 -56969,958 17018,608 37046,959 58482,959zm-4049 -8680c-12353,65 -23883,431 -33826,1023 11022,656 23992,1034 37875,1034l0 0 0 0c13883,0 26853,-378 37874,-1034 -9942,-592 -21472,-958 -33826,-1023 13928,-21 26926,-150 38118,-359 -10021,-187 -21489,-309 -33776,-348 8092,-48 15654,-165 22332,-336 -8119,-208 -17543,-336 -27641,-358 19115,-13 36960,-143 52240,-360 -11918,-170 -25396,-286 -39820,-335 12158,-99 23528,-312 33634,-616 -12464,-375 -26851,-612 -42268,-667 4507,-55 8725,-166 12497,-319 -5635,-229 -12266,-361 -19364,-361 13845,0 26781,-351 37772,-959 -10991,-608 -23927,-959 -37772,-959 -13845,0 -26781,351 -37772,959 10991,608 23927,959 37772,959 -7098,0 -13730,132 -19365,361 3773,153 7991,264 12497,319 -15416,55 -29803,292 -42268,667 10107,304 21477,517 33635,616 -14424,49 -27902,165 -39820,335 15280,217 33125,347 52240,360 -10098,22 -19522,150 -27641,358 6678,171 14240,288 22332,336 -12287,39 -23755,161 -33776,348 11192,209 24190,338 38117,359zm4049 2057c-18681,0 -36133,350 -50964,958 14831,609 32283,959 50964,959 18680,0 36133,-350 50963,-959 -14830,-608 -32283,-958 -50963,-958zm0 -9260c8720,0 16868,-218 23791,-598 -2497,-136 -5153,-252 -7938,-344 5068,-133 9851,-327 14243,-574 -6783,-382 -14497,-638 -22756,-734 9413,-74 18202,-290 25905,-614 -1309,-56 -2651,-108 -4021,-156 10058,-110 19540,-275 28223,-487 -6952,-170 -14416,-309 -22278,-415 1108,-36 2200,-73 3273,-112 -11187,-408 -24352,-643 -38442,-643 -14090,0 -27255,235 -38442,643 1073,39 2164,77 3271,112 -7861,106 -15324,246 -22276,415 8683,212 18165,377 28223,487 -1370,48 -2712,101 -4021,156 7703,324 16492,540 25905,614 -8259,96 -15973,352 -22757,734 4394,247 9177,441 14246,574 -2786,92 -5442,208 -7940,345 6923,379 15071,597 23791,597 -12705,0 -24576,167 -34662,456 10086,288 21957,454 34662,454 12705,0 24576,-166 34662,-455 -10086,-288 -21957,-455 -34662,-455zm0 -10424c18453,0 35695,-235 50345,-643 -14489,-403 -31511,-637 -49735,-643 12795,-7 24747,-241 34926,-643 -3399,-134 -6995,-249 -10754,-343 7933,-110 15418,-272 22293,-476 -13698,-408 -29820,-643 -47075,-643 17255,0 33377,-111 47076,-304 -13699,-193 -29821,-305 -47076,-305 -17255,0 -33377,112 -47075,305 13484,190 29316,301 46267,304 -16951,8 -32783,242 -46267,643 6876,205 14362,366 22296,476 -3760,94 -7357,209 -10757,344 10179,401 22131,635 34926,642 -18224,6 -35247,240 -49736,643 14651,408 31892,643 50346,643zm4427 -5787c15584,-58 30128,-426 42649,-1025 -13699,-656 -29821,-1034 -47076,-1034l0 0 0 0c-17255,0 -33377,378 -47075,1034 12520,599 27064,967 42648,1025 -11046,27 -21354,154 -30269,356 7761,176 16578,295 26018,340 -10719,43 -20727,164 -29508,345 11112,229 24189,361 38186,361 13997,0 27074,-132 38186,-361 -8781,-181 -18789,-302 -29508,-345 9440,-45 18257,-164 26018,-340 -8915,-202 -19223,-329 -30269,-356zm-4427 -2059c17361,0 33582,-351 47364,-959 -8712,-384 -18398,-666 -28730,-821 11680,-107 22619,-311 32415,-595 -12961,-376 -27921,-612 -43954,-667 4248,-57 8227,-165 11797,-314 -5322,-221 -11554,-352 -18228,-360 16379,-7 31679,-254 44706,-679 -7705,-251 -16205,-440 -25253,-554 973,-53 1925,-109 2854,-169 -5208,-335 -11132,-560 -17476,-642 13621,-51 26332,-289 37328,-669 -10545,-364 -22668,-598 -35658,-661 5217,-54 10098,-166 14447,-325 -6289,-229 -13690,-361 -21612,-361 20666,0 39974,-350 56380,-959 -16406,-608 -35714,-959 -56380,-959 -20666,0 -39974,351 -56381,960 16407,608 35715,958 56381,958 -7922,0 -15323,132 -21613,361 4349,159 9231,271 14448,325 -12990,63 -25113,297 -35658,661 10996,380 23707,618 37328,669 -6344,82 -12269,307 -17476,642 929,60 1881,116 2854,169 -9048,114 -17548,303 -25253,554 13027,425 28327,672 44706,679 -6674,8 -12906,139 -18228,360 3569,149 7549,257 11797,314 -16033,55 -30994,291 -43955,667 9797,284 20736,488 32416,595 -10332,155 -20018,437 -28730,821 13783,608 30003,959 47364,959zm-4049 -13818c-12354,66 -23883,431 -33826,1023 10959,652 23845,1029 37638,1034 -18591,2 -35959,353 -50727,959 14831,608 32283,959 50964,959 18680,0 36133,-351 50963,-959 -14767,-606 -32135,-957 -50726,-959 13793,-5 26679,-382 37637,-1034 -9942,-592 -21472,-957 -33825,-1023 13927,-21 26925,-150 38117,-359 -10021,-187 -21489,-309 -33776,-347 8092,-49 15654,-166 22332,-337 -8119,-208 -17543,-336 -27641,-358 19115,-12 36960,-143 52240,-360 -15847,-225 -34452,-357 -54371,-361 10901,-7 21082,-138 29770,-361 -1890,-48 -3851,-93 -5874,-132 2023,-40 3984,-84 5874,-132 -7134,-183 -15275,-304 -23995,-345 8657,-42 16739,-163 23823,-345 -8889,-229 -19351,-361 -30548,-361 18712,0 36194,-249 51049,-679 -12960,-376 -27921,-612 -43954,-667 4248,-57 8227,-165 11797,-314 -5322,-221 -11554,-352 -18228,-360 16379,-7 31679,-254 44706,-679 -7705,-251 -16205,-440 -25253,-554 973,-53 1925,-109 2854,-169 -5139,-331 -10977,-554 -17227,-639 17932,-43 34668,-283 49096,-672 -13912,-375 -29969,-611 -47175,-666 5029,-56 9737,-166 13947,-320 -6289,-229 -13690,-361 -21612,-361 15453,0 29890,-350 42157,-959 -12267,-608 -26704,-958 -42157,-958 -15453,0 -29890,350 -42157,958 12267,609 26704,959 42157,959 -7922,0 -15323,132 -21613,361 4210,154 8919,264 13948,320 -17206,55 -33263,291 -47175,666 14428,389 31164,629 49096,672 -6251,85 -12088,308 -17227,639 929,60 1881,116 2854,169 -9048,114 -17548,303 -25253,554 13027,425 28327,672 44706,679 -6674,8 -12906,139 -18228,360 3570,149 7549,257 11797,314 -16033,55 -30994,291 -43954,667 14855,430 32337,679 51049,679 -11198,0 -21659,132 -30549,361 7084,182 15167,303 23824,345 -8720,41 -16861,162 -23995,345 1890,48 3851,92 5874,132 -2023,39 -3984,84 -5874,132 8688,223 18868,354 29770,361 -19919,4 -38524,136 -54371,361 15280,217 33125,348 52240,360 -10098,22 -19522,150 -27641,358 6678,171 14240,288 22332,337 -12287,38 -23755,160 -33776,347 11192,209 24190,338 38117,359zm4049 -13021c9733,0 18826,-219 26553,-598 -2787,-137 -5751,-253 -8859,-345 5656,-132 10994,-327 15897,-574 -7571,-381 -16178,-638 -25395,-734 10505,-74 20312,-289 28909,-614 -1462,-55 -2959,-107 -4488,-156 11226,-110 21808,-275 31499,-487 -7759,-169 -16090,-309 -24864,-414 1237,-36 2455,-74 3653,-113 -12486,-408 -27179,-643 -42905,-643 -15726,0 -30419,235 -42905,643 1197,39 2415,77 3652,113 -8774,105 -17104,245 -24863,414 9691,212 20273,377 31499,487 -1529,49 -3026,101 -4488,156 8597,325 18404,540 28909,614 -9217,96 -17824,353 -25395,734 4903,247 10241,442 15897,574 -3108,92 -6072,208 -8859,345 7727,379 16820,598 26553,598 -14180,0 -27429,166 -38686,455 11257,288 24506,455 38686,455 14180,0 27429,-167 38686,-455 -11257,-289 -24506,-455 -38686,-455zm0 -10425c20596,0 39839,-235 56190,-643 -16171,-403 -35170,-637 -55510,-643 14281,-7 27620,-241 38981,-642 -3793,-134 -7806,-250 -12002,-344 8854,-110 17208,-271 24882,-476 -15290,-407 -33282,-643 -52541,-643 19258,0 37251,-111 52541,-304 -15290,-193 -33283,-304 -52541,-304 -19258,0 -37251,111 -52541,304 15051,190 32721,301 51639,304 -18918,8 -36588,242 -51639,643 7675,205 16031,366 24886,476 -4197,94 -8212,210 -12006,344 11361,401 24699,635 38980,642 -20339,6 -39338,240 -55509,643 16351,408 35594,643 56190,643zm4908 -5786c17405,-59 33650,-426 47633,-1026 -15290,-656 -33283,-1034 -52541,-1034 19377,0 37480,-351 52863,-959 -15383,-608 -33486,-959 -52863,-959 -19377,0 -37480,351 -52863,959 15383,608 33486,959 52863,959 -19258,0 -37251,378 -52541,1034 13983,600 30227,967 47633,1026 -12341,26 -23857,153 -33816,355 8662,176 18503,295 29039,341 -11963,42 -23134,163 -32934,344 12402,229 26998,361 42619,361 15622,0 30217,-132 42619,-361 -9800,-181 -20970,-302 -32934,-344 10536,-46 20376,-165 29039,-341 -9960,-202 -21475,-329 -33816,-355z"/>
  <path id="camisa_contorno" fill="none" d="M207298 27902c-110,-63 -222,-122 -337,-177 -4975,-2380 -9714,-5334 -14858,-7149 -4647,-1640 -11454,-2699 -17288,-4720 -2277,-788 -4556,-1589 -6820,-2415l-4 -29 -9999 -4081 -175 -71c-614,-281 -1553,-1207 -2512,-1889 -494,-369 -613,-563 -1038,-905 -2856,-2299 -5606,-5636 -9574,-5642 -901,-1 -1040,-122 -1779,-163l-7601 -169c-5892,-486 -12055,-502 -18060,-478 -5087,21 -9557,64 -14567,478 -2529,209 -4996,29 -7600,169 -739,41 -878,162 -1779,163 -3968,6 -6718,3343 -9575,5642 -424,342 -543,536 -1037,905 -741,526 -1471,1200 -2047,1608 -170,120 -326,217 -465,281l-10174 4152 -3 29c-2265,826 -4544,1627 -6821,2415 -5834,2021 -12641,3080 -17288,4720 -5144,1815 -9883,4769 -14858,7149 -212,101 -412,215 -605,339 -909,583 -1664,1379 -2651,2001 -11263,7098 -18243,27467 -21401,39215 -1569,5839 -1980,12982 -2969,19040 -500,3067 -1172,6193 -1752,9252 -585,3096 -872,6494 -1288,9632 -406,268 -327,-23 -308,899l-65 1854 0 8783c41,1018 102,1813 186,2164 1125,476 3706,514 5070,712 7662,1114 9041,828 15791,1554l21547 1349c-15,-1624 547,-10726 578,-13424l-603 -316 -70 -37c0,-4475 -11,-9226 -11,-13700 1678,4247 3328,18944 3789,24024 735,8115 1826,16186 2512,24346 348,4138 874,8270 1009,12420l653 12776c396,4198 208,8934 274,13179 32,2061 194,4006 186,6129 -7,2227 -172,4350 -196,6513 -51,4469 -54,8634 -319,13111 -680,11475 -1257,26075 -3267,37019 -966,5408 -2177,11944 -2754,17390 -258,2432 -827,10057 -1468,11950 -680,2011 -163,3659 -568,5771 -342,1785 -742,3812 -1164,5568 -463,1930 -1435,3647 397,4965 4276,1055 8552,2109 13913,3018 5360,909 11804,1672 18030,2048 6226,375 12232,363 21568,475 9335,113 21999,351 32523,383 10525,31 18909,-144 26242,-419 7333,-275 13615,-651 19058,-1151 5443,-501 10048,-1127 13829,-1873 3780,-747 6736,-1614 9693,-2481 1832,-1318 860,-3035 397,-4965 -422,-1756 -822,-3783 -1164,-5568 -405,-2112 112,-3760 -568,-5771 -641,-1893 -1210,-9518 -1468,-11950 -577,-5446 -1788,-11982 -2754,-17390 -2010,-10944 -2587,-25544 -3267,-37019 -265,-4477 -268,-8642 -319,-13111 -24,-2163 -189,-4286 -196,-6513 -8,-2123 154,-4068 186,-6129 66,-4245 -122,-8981 274,-13179l653 -12776c135,-4150 661,-8282 1009,-12420 686,-8160 1777,-16231 2512,-24346 461,-5080 1889,-19043 3568,-23290 0,4474 -105,8584 -105,13060l0 0 -416 247c-4,881 338,12090 604,13422l21579 -1335c6750,-726 8129,-440 15791,-1554 1364,-198 3945,-236 5070,-712 84,-351 145,-1146 186,-2164l0 -8783 -65 -1854c14,-688 62,-701 -83,-774 -50,-25 -122,-57 -225,-125 -416,-3138 -703,-6536 -1288,-9632 -580,-3059 -1252,-6185 -1752,-9252 -989,-6058 -1400,-13201 -2969,-19040 -3158,-11748 -10138,-32117 -21401,-39215 -1057,-666 -1895,-1576 -2919,-2163z"/>
 </g>
</svg>
