<?xml version="1.0" encoding="utf-8"?>
<!-- Generator: Adobe Illustrator 16.0.3, SVG Export Plug-In . SVG Version: 6.00 Build 0)  -->
<!DOCTYPE svg PUBLIC "-//W3C//DTD SVG 1.1//EN" "http://www.w3.org/Graphics/SVG/1.1/DTD/svg11.dtd">
<svg version="1.1"
	 id="Layer_1" image-rendering="optimizeQuality" text-rendering="geometricPrecision" shape-rendering="geometricPrecision" xmlns:xodm="http://www.corel.com/coreldraw/odm/2003"
	 xmlns="http://www.w3.org/2000/svg" xmlns:xlink="http://www.w3.org/1999/xlink" x="0px" y="0px" width="187px" height="148px"
	 viewBox="0 0 187 148" enable-background="new 0 0 187 148" xml:space="preserve">
<g id="Camada_x0020_1">
	<path id="d2" fill="#F00808" d="M1.143,67.503l-0.381,5.043c-0.045,1.831-0.234,3.899-0.37,5.626
		c-0.078,0.987,0.009,2.192-0.003,3.205c-0.013,1.158-0.208,1.512-0.203,2.794c0.009,2.039,0.069,4.202,0.011,6.228
		C0.169,91.41,0.016,91.973,0,93.12l0.176,8.344l0.081,0.007c-0.062-4-0.046-8.006,0.042-12.027
		c0.096-0.146,0.197-0.301,0.296-0.459c0.23-5.436,0.585-10.881,1.034-16.343l0,0c0.562-5.459,1.219-10.925,2.004-16.412
		c-0.067-0.167-0.134-0.335-0.197-0.515c0.659-4.051,1.392-8.106,2.207-12.179c-0.149-0.013-0.289-0.026-0.437-0.039
		c-0.763,3.816-1.458,7.628-2.098,11.435c-0.077-0.19-0.155-0.38-0.234-0.582C2.229,58.743,1.652,63.126,1.143,67.503z
		 M186.007,69.474l-0.204-2.685c-0.439-3.507-0.671-7.426-1.225-10.942c-0.16-1.011-0.325-2.019-0.495-3.026
		c-0.048,0.123-0.095,0.244-0.138,0.363c0.209,1.281,0.408,2.549,0.605,3.817c-0.052-0.05-0.098-0.11-0.145-0.171
		C185.01,61.051,185.538,65.268,186.007,69.474z M184.428,72.459c-0.644-6.133-1.424-12.286-2.351-18.45
		c0.157,0.195,0.31,0.378,0.468,0.562c-0.635-3.738-1.325-7.48-2.083-11.239c0.14-0.013,0.279-0.026,0.429-0.039
		c0.805,3.992,1.535,7.967,2.2,11.938c0.093,0.121,0.191,0.232,0.285,0.341c0.819,5.605,1.519,11.2,2.112,16.788l0,0
		c0.455,5.578,0.818,11.152,1.055,16.703c-0.074,0.133-0.152,0.266-0.221,0.387c0.085,3.941,0.102,7.867,0.05,11.787
		c-0.154,0.023-0.298,0.037-0.447,0.05c0.054-3.69,0.044-7.386-0.028-11.095c-0.121,0.209-0.242,0.42-0.354,0.619
		C185.309,84.707,184.934,78.593,184.428,72.459L184.428,72.459z M182.43,72.641c-0.562-5.459-1.219-10.925-2.005-16.412
		c0.067-0.167,0.134-0.335,0.198-0.515c-0.66-4.051-1.393-8.106-2.207-12.179c0.148-0.013,0.288-0.026,0.438-0.039
		c0.763,3.816,1.457,7.628,2.097,11.435c0.077-0.19,0.155-0.38,0.233-0.582c0.893,6.081,1.656,12.141,2.287,18.192l0,0
		c0.502,6.055,0.875,12.087,1.104,18.109c-0.113-0.168-0.229-0.338-0.343-0.508c0.069,3.769,0.078,7.533,0.02,11.291
		c-0.152,0.013-0.302,0.025-0.451,0.037c0.063-4,0.047-8.006-0.042-12.027c-0.096-0.146-0.196-0.301-0.296-0.459
		C183.232,83.549,182.879,78.104,182.43,72.641L182.43,72.641z M180.337,72.84c-0.422-4.276-0.918-8.556-1.472-12.853
		c0.072-0.179,0.154-0.357,0.23-0.536c-0.648-4.338-1.369-8.692-2.178-13.052c0.145-0.013,0.288-0.026,0.432-0.039
		c0.43,2.262,0.844,4.524,1.227,6.783c0.128,0.158,0.26,0.317,0.396,0.477c0.953,6.384,1.756,12.757,2.414,19.121l0,0
		c0.518,6.354,0.883,12.696,1.096,19.028c-0.104,0.178-0.209,0.354-0.313,0.52c0.029,2.234,0.03,4.467,0.014,6.699
		c-0.154,0.012-0.299,0.025-0.447,0.038c0.018-4.292-0.043-8.589-0.189-12.902c-0.113-0.158-0.223-0.315-0.326-0.483
		C180.986,81.378,180.693,77.111,180.337,72.84L180.337,72.84z M178.691,72.99c-0.866-8.3-1.994-16.618-3.398-24.956
		c0.145-0.013,0.288-0.026,0.432-0.039c0.143,0.758,0.279,1.504,0.422,2.25c0.127,0.158,0.258,0.317,0.387,0.464
		c1.187,7.413,2.152,14.823,2.93,22.207l0,0c0.571,7.371,0.943,14.738,1.092,22.079c-0.111,0.176-0.211,0.354-0.314,0.52
		c-0.002,0.748-0.002,1.483,0.002,2.221c-0.153,0.012-0.303,0.025-0.446,0.037C179.702,89.528,179.322,81.273,178.691,72.99
		L178.691,72.99z M176.38,73.208c-0.399-4.135-0.853-8.287-1.375-12.443c0.054,0.073,0.119,0.146,0.179,0.219
		c-0.467-3.369-0.984-6.743-1.552-10.131c0.073-0.179,0.146-0.358,0.218-0.537c-0.132-0.7-0.258-1.399-0.388-2.11
		c0.144-0.013,0.283-0.026,0.433-0.039c0.819,4.661,1.553,9.303,2.189,13.939c0.054,0.084,0.113,0.157,0.173,0.231
		c0.433,3.597,0.819,7.192,1.169,10.772c-0.004,0-0.004,0-0.004,0c0.305,3.588,0.561,7.173,0.77,10.745
		c-0.049,0.088-0.09,0.166-0.138,0.242c0.187,4.616,0.285,9.215,0.292,13.808c-0.148,0.024-0.298,0.036-0.441,0.049
		c0.007-0.69,0.009-1.38,0.007-2.082c-0.104-0.157-0.214-0.313-0.318-0.472c-0.03-3.338-0.11-6.682-0.231-10.039
		c-0.053,0.089-0.101,0.166-0.143,0.244c-0.22-4.125-0.5-8.252-0.843-12.396C176.376,73.208,176.376,73.208,176.38,73.208z
		 M174.498,73.376c-0.501-5.132-1.098-10.283-1.785-15.441c0.046,0.061,0.094,0.121,0.145,0.171
		c-0.188-1.267-0.381-2.535-0.578-3.815c0.104-0.246,0.205-0.503,0.307-0.761c-0.374-2.189-0.766-4.391-1.17-6.595
		c0.145-0.012,0.288-0.025,0.429-0.05c0.765,4.184,1.444,8.351,2.054,12.514c0.025,0.036,0.051,0.072,0.082,0.097
		c0.594,4.599,1.108,9.192,1.549,13.791c-0.004,0-0.004,0-0.004,0c0.377,4.583,0.681,9.161,0.901,13.734
		c-0.026,0.043-0.042,0.076-0.063,0.11c0.115,4.128,0.158,8.25,0.121,12.367c-0.149,0.013-0.297,0.024-0.446,0.038
		c0.036-2.161,0.04-4.336,0.024-6.512c-0.146-0.217-0.291-0.446-0.441-0.676c-0.02-1.256-0.047-2.512-0.087-3.78
		c-0.037,0.067-0.074,0.133-0.106,0.2C175.213,83.645,174.906,78.514,174.498,73.376L174.498,73.376z M172.62,73.556
		c-0.603-6.13-1.332-12.28-2.218-18.441c0.151,0.195,0.306,0.378,0.459,0.562c-0.599-3.736-1.266-7.476-1.987-11.232
		c0.14-0.014,0.284-0.027,0.428-0.039c0.774,3.989,1.472,7.962,2.101,11.93c0.093,0.122,0.186,0.243,0.283,0.354
		c0.783,5.589,1.451,11.182,1.998,16.767l0,0c0.438,5.578,0.741,11.145,0.937,16.693c-0.079,0.134-0.153,0.267-0.228,0.398
		c0.049,3.928,0.03,7.852-0.059,11.77c-0.154,0.023-0.303,0.035-0.452,0.049c0.091-3.688,0.118-7.38,0.077-11.088
		c-0.121,0.21-0.246,0.42-0.367,0.619C173.422,85.798,173.087,79.688,172.62,73.556L172.62,73.556z M3.722,72.84
		c0.422-4.276,0.917-8.556,1.472-12.853c-0.073-0.179-0.155-0.357-0.232-0.536c0.649-4.338,1.37-8.692,2.178-13.052
		c-0.143-0.013-0.287-0.026-0.432-0.039c-0.428,2.262-0.843,4.524-1.225,6.783c-0.128,0.158-0.26,0.317-0.397,0.477
		C4.132,60.004,3.33,66.377,2.671,72.741l0,0C2.154,79.096,1.789,85.438,1.575,91.77c0.105,0.178,0.209,0.354,0.314,0.52
		c-0.029,2.234-0.031,4.467-0.013,6.699C2.029,99,2.173,99.014,2.322,99.026c-0.018-4.292,0.042-8.589,0.189-12.902
		c0.114-0.158,0.223-0.315,0.326-0.483C3.071,81.378,3.364,77.111,3.722,72.84L3.722,72.84z M5.367,72.99
		c0.866-8.3,1.994-16.618,3.398-24.956c-0.144-0.013-0.288-0.026-0.432-0.039c-0.141,0.758-0.278,1.504-0.42,2.25
		c-0.128,0.158-0.26,0.317-0.388,0.464c-1.187,7.413-2.152,14.823-2.93,22.207l0,0c-0.57,7.371-0.943,14.738-1.091,22.079
		c0.11,0.176,0.21,0.354,0.314,0.52c0.001,0.748,0.002,1.483-0.002,2.221c0.153,0.012,0.302,0.025,0.446,0.037
		C4.356,89.528,4.735,81.273,5.367,72.99L5.367,72.99z M7.678,73.208c0.399-4.135,0.853-8.287,1.376-12.443
		c-0.055,0.073-0.119,0.146-0.179,0.219c0.467-3.369,0.984-6.743,1.551-10.131c-0.072-0.179-0.145-0.358-0.217-0.537
		c0.131-0.7,0.257-1.399,0.388-2.11c-0.144-0.013-0.284-0.026-0.432-0.039c-0.82,4.661-1.554,9.303-2.191,13.939
		c-0.054,0.084-0.113,0.157-0.173,0.231c-0.432,3.597-0.819,7.192-1.169,10.772c0.004,0,0.004,0,0.004,0
		c-0.303,3.588-0.561,7.173-0.769,10.745c0.048,0.088,0.09,0.166,0.137,0.242c-0.185,4.616-0.285,9.215-0.292,13.808
		c0.15,0.024,0.298,0.036,0.442,0.049c-0.006-0.69-0.009-1.38-0.007-2.082c0.105-0.157,0.214-0.313,0.319-0.472
		c0.03-3.338,0.11-6.682,0.232-10.039c0.052,0.089,0.099,0.166,0.141,0.244c0.22-4.125,0.5-8.252,0.843-12.396
		C7.682,73.208,7.682,73.208,7.678,73.208z M9.56,73.376c0.501-5.132,1.097-10.283,1.786-15.441
		c-0.047,0.061-0.094,0.121-0.146,0.171c0.189-1.267,0.382-2.535,0.579-3.815c-0.105-0.246-0.206-0.503-0.307-0.761
		c0.374-2.189,0.765-4.391,1.17-6.595c-0.144-0.012-0.288-0.025-0.428-0.05c-0.766,4.184-1.445,8.351-2.055,12.514
		c-0.025,0.036-0.05,0.072-0.081,0.097c-0.593,4.599-1.108,9.192-1.549,13.791c0.004,0,0.004,0,0.004,0
		c-0.377,4.583-0.681,9.161-0.902,13.734c0.026,0.043,0.042,0.076,0.063,0.11c-0.113,4.128-0.158,8.25-0.12,12.367
		c0.149,0.013,0.297,0.024,0.446,0.038c-0.035-2.161-0.039-4.336-0.025-6.512c0.146-0.217,0.292-0.446,0.442-0.676
		c0.019-1.256,0.047-2.512,0.087-3.78c0.038,0.067,0.074,0.133,0.107,0.2C8.846,83.645,9.152,78.514,9.56,73.376L9.56,73.376z
		 M11.439,73.556c0.602-6.13,1.332-12.28,2.218-18.441c-0.153,0.195-0.306,0.378-0.46,0.562c0.598-3.736,1.265-7.476,1.987-11.232
		c-0.14-0.014-0.284-0.027-0.427-0.039c-0.775,3.989-1.472,7.962-2.101,11.93c-0.093,0.122-0.186,0.243-0.284,0.354
		c-0.783,5.589-1.45,11.182-1.998,16.767l0,0C9.937,79.035,9.633,84.602,9.439,90.15c0.078,0.134,0.152,0.267,0.226,0.398
		c-0.049,3.928-0.029,7.852,0.06,11.77c0.154,0.023,0.303,0.035,0.451,0.049c-0.091-3.688-0.118-7.38-0.077-11.088
		c0.121,0.21,0.247,0.42,0.367,0.619C10.636,85.798,10.971,79.688,11.439,73.556L11.439,73.556z"/>
	<path id="calcao_contorno" fill="none" d="M69.623,5.789c-9.32-0.113-15.317-0.1-21.532-0.475
		C41.875,4.938,35.441,4.177,30.089,3.27c-5.351-0.908-9.62-1.96-13.89-3.013l-2.056,6.766c-2.101,6.05-3.233,10.386-4.916,16.285
		c-0.249,0.873-0.435,1.453-0.642,2.333c-2.36,10.025-4.55,19.989-6.162,30.214c-0.554,3.516-0.787,7.435-1.226,10.942l-0.435,5.757
		c-0.045,1.83-0.234,3.899-0.37,5.626c-0.078,0.987,0.009,2.192-0.003,3.205c-0.013,1.158-0.208,1.512-0.203,2.795
		c0.009,2.037,0.069,4.201,0.011,6.226C0.169,91.418,0.016,91.98,0,93.128l0.192,9.099c-0.03,8.304,0.172,15.986,0.183,24.268
		c0.002,1.268,0.207,1.666,0.202,2.996c-0.004,0.925-0.065,2.104,0.005,3.001c0.131,1.646,0.218,4.048,0.519,5.47
		c1.056,4.984,5.703,6.849,10.073,7.858c3.312,0.767,6.714,1.11,10.138,1.576c4.01,0.545,19.376,0.399,23.493-0.086
		c6.45-0.761,15.507-0.276,22.162-1.972c7.272-1.853,6.398-2.821,7.435-7.425c0.87-3.868,2.219-13.998,3.169-16.919
		c0.807-2.484,1.721-7.868,2.195-10.523c0.344-1.99,1.133-3.679,1.718-5.612c1.344-4.441,1.694-7.626,2.92-12.169
		c0.377-1.398,0.722-2.381,1.102-3.854c0.997-3.864,2.19-8.249,2.968-12.117c0.575-2.856,1.095-5.36,1.653-8.289l2.191-12.734
		c0.189-0.998,0.23-2.248,1.182-2.596c0.953,0.348,0.994,1.598,1.182,2.596l2.19,12.734c0.559,2.929,1.078,5.433,1.652,8.289
		c0.779,3.868,1.973,8.253,2.969,12.117c0.379,1.474,0.725,2.456,1.103,3.854c1.226,4.543,1.575,7.728,2.919,12.169
		c0.585,1.934,1.375,3.622,1.719,5.612c0.473,2.653,1.389,8.041,2.195,10.523c0.949,2.921,2.299,13.051,3.169,16.919
		c1.037,4.604,0.163,5.572,7.435,7.425c6.655,1.695,15.711,1.211,22.162,1.972c4.117,0.485,19.483,0.631,23.492,0.086
		c3.426-0.466,6.828-0.81,10.139-1.576c4.371-1.01,9.018-2.874,10.074-7.858c0.301-1.422,0.388-3.824,0.519-5.47
		c0.069-0.897,0.009-2.076,0.005-3.001c-0.005-1.33,0.2-1.729,0.202-2.996c0.011-8.281,0.213-15.964,0.183-24.268L187,93.463
		l-0.195-3.058c-0.059-2.024,0.002-4.188,0.01-6.226c0.004-1.283-0.189-1.637-0.203-2.795c-0.012-1.013,0.076-2.218-0.002-3.205
		c-0.137-1.727-0.325-3.796-0.371-5.626l-0.436-5.757c-0.439-3.507-0.671-7.426-1.225-10.942
		c-1.612-10.225-3.803-20.189-6.162-30.214c-0.207-0.88-0.395-1.46-0.643-2.333c-1.683-5.899-2.814-10.235-4.916-16.285
		l-2.057-6.766c-2.951,0.866-5.902,1.731-9.677,2.477c-3.774,0.745-8.371,1.369-13.806,1.869s-11.707,0.875-19.027,1.15
		c-7.32,0.274-15.691,0.449-26.198,0.418C91.585,6.14,78.942,5.901,69.623,5.789z"/>
</g>
</svg>
