<?xml version="1.0" encoding="utf-8"?>
<!-- Generator: Adobe Illustrator 16.0.3, SVG Export Plug-In . SVG Version: 6.00 Build 0)  -->
<!DOCTYPE svg PUBLIC "-//W3C//DTD SVG 1.1//EN" "http://www.w3.org/Graphics/SVG/1.1/DTD/svg11.dtd">
<svg version="1.1"
	 id="Layer_1" shape-rendering="geometricPrecision" text-rendering="geometricPrecision" image-rendering="optimizeQuality" xmlns:xodm="http://www.corel.com/coreldraw/odm/2003"
	 xmlns="http://www.w3.org/2000/svg" xmlns:xlink="http://www.w3.org/1999/xlink" x="0px" y="0px" width="181px" height="149px"
	 viewBox="0 0 181 149" enable-background="new 0 0 181 149" xml:space="preserve">
<g>
	<path fill="#F00808" d="M104.941,83.536c-0.735,0.159-1.768-0.144-2.266-0.124c-0.481,0.019-0.874-0.004-1.191-0.059
		c-0.01,1.252-0.49,2.234-2.186,1.705c-0.031-0.01-0.064-0.021-0.096-0.035c0.039,0.52,0.001,0.842-0.023,1.162
		c-0.022,0.321-0.031,0.641-0.053,1.028c0.234,0.067,0.48,0.181,0.703,0.34c0.565,0.403,3.398-0.521,1.967-1.047
		c-0.166-0.062-0.783-0.273-0.91-0.241c-0.847-0.635,1.868-0.602,2.095-1.389C103.209,84.084,104.752,85.687,104.941,83.536z"/>
	<path fill="#F00808" d="M2.082,92.065c0.046-0.388,0.041-0.667,0.016-0.93c-0.218,0.07-0.445,0.095-0.674,0.063
		c0.042,0.525,0.078,1.041,0.112,1.55C1.822,92.635,2.039,92.424,2.082,92.065z"/>
	<path fill="#F00808" d="M100.889,92.91l0.04,0.052c0.5,0.665,0.974,1.19,1.323,1.55c0.154-0.355,0.199-0.722,0.009-1.122
		C102.051,92.951,101.496,92.842,100.889,92.91z"/>
	<path fill="#F00808" d="M6.598,105.568c-0.868-0.023-2.32,0.259-2.168,0.736c0.152,0.477,0.542,0.336,0.478,0.791
		c-0.125,0.871,0.783,0.891,1.229,0.217c0.439-0.578,1.225-0.042,1.32-0.87C7.487,106.164,7.46,105.589,6.598,105.568z"/>
	<path fill="#F00808" d="M80.896,105.568c-0.866-0.023-2.318,0.259-2.167,0.736c0.151,0.477,0.542,0.336,0.477,0.791
		c-0.014,0.861,0.886,0.883,1.229,0.217c0.44-0.578,1.225-0.042,1.32-0.87C81.786,106.164,81.759,105.589,80.896,105.568z"/>
	<path fill="#F00808" d="M104.775,104.173c0.055-0.565,1.041-0.766,1.387-1.296c0.348-0.529-0.018-0.949-0.62-1.203
		c-0.603-0.256-1.224,0.273-1.643,0.711c-0.019,0.02-0.036,0.039-0.052,0.059c0.022,0.249,0.055,0.496,0.104,0.735
		c0.173,0.853,0.549,1.618,0.969,2.267l0.012,0.021c0.151-0.164,0.334-0.352,0.428-0.6
		C105.561,104.338,104.721,104.739,104.775,104.173z"/>
	<path fill="#F00808" d="M115.406,113.459c-0.179,0.445-0.074,0.508-0.273,0.468c-0.256-0.054-0.527,0.015-0.745,0.147
		c-0.477,0.287-0.337,0.964-0.175,1.23c0.166,0.273,0.983,0.734,1.316,0.186c0.154-0.252,0.238-0.635,0.275-0.831
		c0.052-0.282,0.188-0.331,0.462-0.369C117.473,114.119,116.188,111.512,115.406,113.459z"/>
	<path fill="#F00808" d="M117.781,102.375c-0.25-0.525-1.456-0.137-1.732,0.177c-0.17,0.192-0.34,0.413-0.627,0.422
		c-0.825,0.028-0.781,1.695-0.112,1.563c1.089-0.215,0.587,0.734,1.247,1.177c0.336,0.226,1.009,0.063,1.044-0.335
		c0.058-0.676-0.608-1.061-0.34-1.59C117.508,103.303,118.028,102.893,117.781,102.375z"/>
	<path fill="#F00808" d="M110.016,94.6c-0.324-0.682,0.34-0.973-0.535-1.59c-0.875-0.615-1.426,0-1.572,0.422
		c-0.146,0.421,0.486,0.745,0.811,1.069c0.324,0.325-0.178,0.356-0.584,0.47c-0.405,0.114-0.908,0.455-1.135,0.406
		c-0.227-0.048,0.098-0.502,0.227-1.086c0.131-0.584-0.322-0.454-0.566-0.875c-0.243-0.422,0-0.811-0.293-1.151
		c-0.429-0.501-1.857-0.149-1.344,1.134c0.13,0.325,0.939-0.064,1.102,0.146s-0.259,0.389-0.259,0.827
		c0,0.438,0.21,0.373-0.065,0.81c-0.275,0.438,0.065,0.601,0.227,1.021c0.163,0.422,0.617,0.114,0.877-0.064
		c0.258-0.178,0.161,0.098,0.582,0.275c0.259,0.109,1.77,0.119,1.734-1.217c-0.004-0.198,0.969,0.049,0.705,1.158
		c-0.086,0.353-0.271,2.25-0.223,2.476c0.163,0.729,1.271,0.464,1.725,0.206c0.453-0.26-0.391-2.007-0.391-2.979
		S110.372,95.377,110.016,94.6z"/>
	<path fill="#F00808" d="M4.06,110.872c0.977-0.937-0.153-1.828-0.739-1.556c-0.398,0.186-0.339,0.63-0.726,0.907
		c-0.257,0.185-0.5,0.113-0.669,0.215l0.003,0.449c0.007,0.698,0.014,1.413,0.023,2.138c0.026-0.016,0.052-0.037,0.078-0.063
		c0.315-0.311,0.684-0.316,0.615-0.818c-0.068-0.5,0.093-0.357,0.271-0.748c0.177-0.39-0.126-0.719,0.104-0.842
		C3.249,110.434,3.813,111.107,4.06,110.872z"/>
	<path fill="#F00808" d="M109.266,113.803c-0.235-0.007-0.514,0.01-0.791,0.047c0.06,0.438,0.11,0.941,0.232,1.612l0.032,0.174
		c0.022-0.028,0.044-0.058,0.064-0.089c0.44-0.578,1.226-0.043,1.32-0.87C110.155,114.398,110.129,113.823,109.266,113.803z"/>
	<path fill="#F00808" d="M117.89,93.019c-0.814-0.141-0.86,0.489-1.07,0.069c-0.21-0.418,0.559-0.744,0.814-1.419
		s-0.814-0.163-0.745-0.884c0.07-0.722,1.326-0.978,1.769-1.652s-0.024-1.211-0.792-1.535c-0.768-0.326-1.558,0.348-2.094,0.906
		c-0.535,0.559-0.046,1.141-0.535,1.535c-0.488,0.396-0.86-0.372-1.721-0.139c-1.273,0.344-1.846,2.536-0.465,2.536
		c0.79,0,0.836,0.256,0.883,1.279c0.047,1.024,1.094,0.745,1.513,1.001s0.605,0.768,0.489,1.535
		c-0.117,0.769-0.35,0.932-0.023,1.443s1.094,0.488,1.419,0.303c0.326-0.186,1.094-0.186,0.814-1.396
		c-0.278-1.21-0.675-0.93-0.722-1.559c-0.046-0.629,1.279-0.745,1.467-1.047C119.076,93.693,118.703,93.158,117.89,93.019z"/>
	<path fill="#F00808" d="M105.561,105.926c-0.127-0.021-0.23-0.02-0.314-0.005c0.266,0.364,0.533,0.685,0.762,0.967
		c0.16-0.063,0.291-0.122,0.338-0.196C106.492,106.455,106.199,106.035,105.561,105.926z"/>
	<path fill="#F00808" d="M5.079,117.665c-0.489-0.012-1.307,0.147-1.222,0.416c0.086,0.269,0.306,0.189,0.269,0.445
		c-0.069,0.491,0.442,0.503,0.693,0.122c0.249-0.325,0.691-0.023,0.745-0.49C5.581,118.002,5.566,117.678,5.079,117.665z"/>
	<path fill="#F00808" d="M177.127,84.877c0.229-0.793,1.771,0.81,1.961-1.341c-0.735,0.159-1.77-0.144-2.266-0.124
		c-0.482,0.019-0.875-0.004-1.192-0.059c-0.009,1.252-0.489,2.234-2.185,1.705c-0.906-0.283-1.531-1.873-3.024-1.002
		c-0.767,0.447,0.125,2.533-0.704,3.891c0.26,0.258,0.298,0.795,0.298,1.246c0,1.299,0.273,1.186,1.907,1.102
		c0.738-0.039,1.26-1.15,0.568-2.01c-0.992-1.233,0.469-1.456,1.486-0.731c0.565,0.403,3.398-0.521,1.966-1.047
		c-0.167-0.062-0.782-0.273-0.909-0.241C174.187,85.631,176.901,85.664,177.127,84.877z"/>
	<path fill="#F00808" d="M179.076,80.696c-1.561,0.255,0.014,1.042,0.62,1.431l0.004-0.002c-0.056-1.09-0.119-2.228-0.191-3.391
		C179.262,79.545,179.789,80.58,179.076,80.696z"/>
	<path fill="#F00808" d="M178.721,87.07c-0.174,0.371-0.297,0.816-0.123,1.41c0.172,0.593,0.223,0.988-0.223,1.137
		s-0.891,0.248-0.965,0.643c-0.308,1.643,1.488,1.342,1.756,1.027c0.271-0.322,0.037-1.139,0.234-1.46
		c0.154-0.249,0.382-0.245,0.604-0.44l-0.017-0.496c-0.021-0.607-0.046-1.281-0.073-2.008
		C179.422,86.895,178.854,86.786,178.721,87.07z"/>
	<path fill="#F00808" d="M179.169,93.398c0.106,0.266,0.666,0.055,0.956,0.084l-0.039-1.428
		C179.523,91.979,178.775,92.416,179.169,93.398z"/>
	<path fill="#F00808" d="M101.274,78.174c-0.356-0.632-1.294-0.23-2.524-0.502c-0.586-0.128,0.299-0.754,0.566-1.415
		c0.487-1.209-1.098-1.545-1.312-1.545c-0.7,0-1.267-0.087-1.698-0.225c0.065,0.315,0.119,0.619,0.152,0.895
		c0.1,0.816,0.009,1.369-0.086,1.89c-0.093,0.521-0.19,1.01-0.088,1.499c0.047,0.227,0.138,0.453,0.256,0.676
		c1.104-0.066,2.325,0.03,3.256,0.436C101.7,80.713,102.203,79.826,101.274,78.174z"/>
	<path fill="#F00808" d="M179.947,95.182c-0.275,0.438,0.064,0.601,0.227,1.021c0.016,0.039,0.033,0.072,0.052,0.099
		c-0.013-0.275-0.024-0.544-0.034-0.804c-0.021-0.523-0.037-1.009-0.053-1.527c-0.066,0.106-0.127,0.236-0.127,0.401
		C180.012,94.81,180.223,94.745,179.947,95.182z"/>
	<path fill="#F00808" d="M97.334,71.37c-0.768-0.162-1.346-0.223-1.784-0.208c0.137,0.397,0.21,0.874,0.342,1.48l0.058,0.258
		c0.381-0.146,0.928-0.231,1.643-0.209C97.951,72.702,99.195,71.765,97.334,71.37z"/>
	<path fill="#F00808" d="M10.814,5.457l-0.298-0.045C10.625,5.527,10.718,5.515,10.814,5.457z"/>
	<path fill="#F00808" d="M82.3,96.759c-0.638-1.341,0.67-1.915-1.053-3.127c-1.723-1.213-2.808,0-3.095,0.829
		c-0.288,0.83,0.957,1.469,1.595,2.106c0.638,0.639-0.351,0.702-1.148,0.926c-0.798,0.223-1.787,0.894-2.233,0.798
		c-0.447-0.096,0.191-0.989,0.446-2.139c0.256-1.148-0.638-0.893-1.117-1.723c-0.322-0.561-0.209-1.091-0.279-1.582
		c0.472-0.05,0.902-0.262,0.965-0.782c0.047-0.388,0.041-0.667,0.016-0.93c-0.852,0.275-1.867-0.155-2.434-1.906
		c-0.763-2.358-5.141-3.146-3.382,1.728c0.463,1.283,0.062,1.76-0.559,2.143c0.012,0.232-0.002,0.543-0.036,0.955
		c-0.051,0.617-0.267,1.84,0.589,2c0.015,0.002,1.556,0.512,1.626,0.171c0.303-0.063,0.303-0.852,0.385-1.675
		c0.449,0.342,1.768-0.239,2.056,0.135c0.318,0.414-0.511,0.766-0.511,1.626c0,0.862,0.415,0.734-0.127,1.597
		c-0.542,0.861,0.127,1.18,0.446,2.01c0.32,0.83,1.213,0.224,1.724-0.127c0.51-0.352,0.319,0.191,1.148,0.542
		c0.51,0.215,3.482,0.232,3.415-2.396c-0.01-0.39,1.906,0.095,1.385,2.278c-0.167,0.697-0.846,1.397-0.748,1.841
		c0.311,1.397,0.984,1.164,1.843,0.679c0.149-1.482,0.313-3.014,0.491-4.58C83.273,97.813,82.692,97.613,82.3,96.759z"/>
	<path fill="#F00808" d="M103.322,69.749c-0.868,0.323-1.315,0.944-1.617,1.661c-1.171,2.778-0.111,0.717,0.964,1.812
		c0.757,0.772,0.403,2.555,2.379,2.019c2.96-0.804-1.308-2.751-1.092-3.616C104.072,71.16,106.827,68.445,103.322,69.749z"/>
	<path fill="#F00808" d="M176.207,57.618c0.582-1.493-1.868-0.994-1.868-0.179c0,1.459,0.622,4.444-2.819,2.515
		c-1.871-1.048-2.332-2.951-3.699-1.224c-1.07,1.35,1.33,1.374,2.243,1.96c1.47,0.944,2.079,0.355,2.079,3.046
		c0,1.199,3.025,1.863,4.322,2.499c3.666,1.795-3.169-4.673,1.489-3.569c-0.104-0.782-0.215-1.561-0.329-2.334
		C176.396,60.175,175.611,59.149,176.207,57.618z"/>
	<path fill="#F00808" d="M82.342,90.679c0.356,0.331,1.518,0.536,2.271,0.28c0.157-1.133,0.322-2.287,0.498-3.472
		c-0.243,0.21-0.549,0.386-0.931,0.519C83.073,88.387,80.811,89.263,82.342,90.679z"/>
	<path fill="#F00808" d="M96.489,65.146c-0.149-0.031-1.872-1.252-2.929-1.471c-0.372-0.068-0.631-0.011-0.809,0.143
		c0.092,0.202,0.182,0.406,0.269,0.609c0.335,0.785,0.616,1.556,0.735,2.149c0.027,0.136,0.046,0.262,0.059,0.382
		c0.54-0.294,1.499-0.22,2.195,0.342C99.323,69.971,97.543,65.383,96.489,65.146z"/>
	<path fill="#F00808" d="M175.852,71.41c-1.171,2.778-0.111,0.717,0.964,1.812c0.757,0.772,0.403,2.555,2.378,2.019l0.076-0.021
		c-0.032-0.426-0.065-0.852-0.1-1.277c-0.029-0.351-0.057-0.702-0.088-1.053c-0.544-0.494-1.058-0.951-0.98-1.265
		c0.044-0.172,0.447-0.651,0.762-1.122c-0.036-0.368-0.072-0.734-0.109-1.101c-0.279,0.021-0.691,0.126-1.285,0.347
		C176.6,70.072,176.152,70.693,175.852,71.41z"/>
	<path fill="#F00808" d="M16.325,112.42c-0.729-0.344-1.032,0.359-1.032,0.988c0,0.201-0.129,0.174-0.501,0.244
		c-0.374,0.072-0.101,0.574-0.244,0.76c-0.143,0.187-0.358-0.014-0.688-0.186c-0.329-0.174-0.702-0.016-1.046,0.301
		c-0.345,0.314-0.143,0.658,0.143,0.932c0.287,0.271,1.305,0.314,1.62,0.1c0.316-0.215,0.072-0.559,0.244-0.487
		c0.12,0.05,0.826-0.017,0.874-0.372c0.03-0.455,0.081-0.424,0.536-0.429C16.776,114.293,17.31,112.884,16.325,112.42z"/>
	<path fill="#F00808" d="M25.698,108.629c-0.474-0.049-0.589,0.344-0.768,0c-0.18-0.343-0.033-0.539-0.099-0.833
		c-0.064-0.294,0.017-0.571-0.473-0.604c-0.49-0.033-1.29,0.131-1.226,0.686c0.065,0.557,0.408,0.459,0.115,0.72
		c-0.294,0.262-0.604-0.099-0.8,0.343c-0.197,0.441,0.065,0.752-0.278,0.865c-0.344,0.115-0.948-0.081-1.063,0.164
		c-0.114,0.244-0.196,0.539-0.081,0.931c0.114,0.394,0.146,0.654-0.147,0.752c-0.295,0.099-0.588,0.163-0.638,0.425
		c-0.203,1.085,0.984,0.887,1.161,0.678c0.179-0.212,0.024-0.752,0.155-0.964c0.13-0.212,0.343-0.146,0.523-0.44
		c0.179-0.295-0.131-0.475,0.294-0.621s0.327,0.064,0.669-0.18c0.343-0.245,0.196-0.457,0.604-0.506
		c0.409-0.049,0.703,0.049,0.556,0.391c-0.147,0.344-0.246,0.736,0.032,0.883c0.278,0.146,0.801,0.277,1.013-0.064
		c0.211-0.344,0.506-0.441,0.261-0.736c-0.245-0.293-0.555-0.146-0.686-0.277c-0.131-0.131-0.18-0.425,0.049-0.441
		c0.228-0.016,0.702,0.49,0.931,0.326c0.228-0.162,0.393-0.228,0.441-0.587c0.049-0.36,0.049-0.589-0.033-0.653
		C26.13,108.816,26.172,108.678,25.698,108.629z"/>
	<path fill="#F00808" d="M22.23,119.594c-0.489-0.012-1.308,0.147-1.222,0.416c0.085,0.269,0.305,0.189,0.269,0.446
		c-0.07,0.491,0.442,0.503,0.692,0.122c0.249-0.325,0.691-0.023,0.745-0.49C22.732,119.932,22.716,119.605,22.23,119.594z"/>
	<path fill="#F00808" d="M27.962,93.39c-0.484-1.015-2.817-0.263-3.352,0.343c-0.329,0.371-0.659,0.799-1.212,0.816
		c-1.599,0.054-1.513,3.279-0.217,3.025c2.104-0.416,1.134,1.422,2.409,2.276c0.653,0.438,1.955,0.124,2.022-0.649
		c0.113-1.305-1.178-2.051-0.658-3.074C27.433,95.187,28.44,94.393,27.962,93.39z"/>
	<path fill="#F00808" d="M43.744,93.019c-0.815-0.141-0.861,0.489-1.071,0.069c-0.209-0.418,0.558-0.744,0.815-1.419
		c0.256-0.675-0.815-0.163-0.746-0.884c0.07-0.722,1.327-0.978,1.769-1.652c0.441-0.675-0.023-1.211-0.792-1.535
		c-0.768-0.326-1.559,0.348-2.094,0.906c-0.535,0.559-0.046,1.141-0.535,1.535c-0.489,0.396-0.861-0.372-1.722-0.139
		c-1.273,0.344-1.846,2.536-0.464,2.536c0.791,0,0.837,0.256,0.884,1.279c0.046,1.024,1.093,0.745,1.512,1.001
		s0.605,0.768,0.489,1.535c-0.117,0.769-0.349,0.932-0.023,1.443c0.326,0.512,1.094,0.488,1.419,0.303
		c0.326-0.186,1.094-0.186,0.815-1.396c-0.279-1.21-0.675-0.93-0.722-1.559c-0.047-0.629,1.28-0.745,1.466-1.047
		C44.931,93.693,44.558,93.158,43.744,93.019z"/>
	<path fill="#F00808" d="M43.635,102.375c-0.25-0.525-1.456-0.137-1.732,0.177c-0.17,0.192-0.34,0.413-0.626,0.422
		c-0.826,0.028-0.783,1.695-0.112,1.563c1.087-0.215,0.585,0.734,1.245,1.177c0.337,0.226,1.01,0.063,1.045-0.335
		c0.059-0.676-0.609-1.061-0.34-1.59C43.361,103.303,43.882,102.893,43.635,102.375z"/>
	<path fill="#F00808" d="M41.261,113.459c-0.179,0.445-0.075,0.508-0.274,0.468c-0.256-0.054-0.527,0.015-0.745,0.147
		c-0.477,0.287-0.337,0.964-0.176,1.23c0.167,0.273,0.984,0.734,1.318,0.186c0.153-0.252,0.237-0.635,0.273-0.831
		c0.053-0.282,0.188-0.331,0.463-0.369C43.326,114.119,42.042,111.512,41.261,113.459z"/>
	<path fill="#F00808" d="M18.948,94.147c-0.937-0.144-1.154,0.386-1.706,0.649c-0.553,0.264-0.914-0.338-1.658-0.649
		c-1.67-0.7-2.985-0.016-2.284,1.995c0.36,1.033,1.298,1.082,2.042,1.154c0.746,0.072,1.563-0.722,1.875-1.082
		c0.313-0.36,0.674-0.24,1.058,0.023c0.384,0.265,1.322,0.072,1.514-0.359C19.982,95.445,19.886,94.293,18.948,94.147z"/>
	<path fill="#F00808" d="M34.967,113.803c-0.867-0.023-2.319,0.259-2.168,0.735c0.152,0.478,0.542,0.337,0.478,0.792
		c-0.125,0.871,0.784,0.891,1.228,0.217c0.44-0.578,1.226-0.043,1.321-0.87C35.856,114.398,35.83,113.823,34.967,113.803z"/>
	<path fill="#F00808" d="M29.023,69.749c-0.869,0.323-1.315,0.944-1.617,1.661c-1.17,2.778-0.111,0.717,0.964,1.812
		c0.756,0.772,0.403,2.555,2.378,2.019c2.961-0.804-1.307-2.751-1.092-3.616C29.773,71.16,32.528,68.445,29.023,69.749z"/>
	<path fill="#F00808" d="M36.326,102.912c0.509-1.002,2.804-1.915,2.295-2.982c-0.314-0.661-2.695,2.317-2.939,1.361
		C35.335,99.943,35,99.48,34.779,99.73c-0.35,0.396,0.406,1.346-0.42,1.897c-1.118,0.401,1.146,0.528,0.953,1.728
		c-0.031,0.325-0.292,0.629-0.577,0.877c-0.57,0.498-1.344,1.34,0.23,1.016c0.555-0.113,1.193-0.495,1.383-0.209
		c0.227,0.344-0.226,1.852,0.343,2.232c0.695,0.465,2.082,0.131,2.153-0.691C38.965,105.189,35.773,104.002,36.326,102.912z"/>
	<path fill="#F00808" d="M35.82,78.749c-0.01-0.063-0.016-0.131-0.016-0.201c0-2.293-0.586-0.724-2.366-0.784
		c-3.976-0.136-1.592,2.734-2.807,2.933c-1.56,0.255,0.015,1.042,0.621,1.431c0.225-0.192,0.481-0.347,0.715-0.333
		c1.625,0.093,0.178-2.14,1.426-2.095c1.03,0.037,0.865,1.625,2.368,1.136c0.254-0.083,0.533-0.745-0.112-1.183
		C35.335,79.44,35.211,78.941,35.82,78.749z"/>
	<path fill="#F00808" d="M33.188,96.414c0.258,0.109,1.769,0.119,1.735-1.217c-0.005-0.198,0.968,0.049,0.704,1.158
		c-0.085,0.353-0.429,0.709-0.379,0.935c0.162,0.729,0.518,0.583,0.973,0.323c0.454-0.259,0.518-0.583,0.518-1.556
		s-0.664-0.681-1.021-1.458c-0.324-0.682,0.34-0.973-0.535-1.59c-0.875-0.615-1.427,0-1.573,0.422
		c-0.146,0.421,0.487,0.745,0.811,1.069c0.325,0.325-0.178,0.356-0.583,0.47c-0.406,0.114-0.908,0.455-1.134,0.406
		c-0.228-0.048,0.097-0.502,0.226-1.086c0.13-0.584-0.324-0.454-0.567-0.875c-0.243-0.422,0-0.811-0.292-1.151
		c-0.43-0.501-1.859-0.149-1.345,1.134c0.13,0.325,0.94-0.064,1.102,0.146c0.163,0.211-0.259,0.389-0.259,0.827
		c0,0.438,0.211,0.373-0.065,0.81c-0.275,0.438,0.065,0.601,0.228,1.021c0.162,0.422,0.616,0.114,0.875-0.064
		C32.864,95.961,32.767,96.236,33.188,96.414z"/>
	<path fill="#F00808" d="M30.643,83.536c-0.735,0.159-1.768-0.144-2.265-0.124c-0.482,0.019-0.876-0.004-1.193-0.059
		c-0.009,1.252-0.489,2.234-2.185,1.705c-0.907-0.283-1.531-1.873-3.024-1.002c-0.767,0.447,0.124,2.533-0.705,3.891
		c0.26,0.258,0.297,0.795,0.297,1.246c0,1.299,0.274,1.186,1.908,1.102c0.739-0.039,1.26-1.15,0.569-2.01
		c-0.992-1.233,0.468-1.456,1.486-0.731c0.565,0.403,3.397-0.521,1.966-1.047c-0.167-0.062-0.783-0.273-0.909-0.241
		c-0.847-0.635,1.868-0.602,2.094-1.389C28.911,84.084,30.453,85.687,30.643,83.536z"/>
	<path fill="#F00808" d="M17.926,102.494c-0.867-0.021-2.32,0.26-2.167,0.736c0.152,0.478,0.542,0.336,0.477,0.792
		c-0.125,0.871,0.784,0.891,1.229,0.216c0.439-0.577,1.225-0.041,1.32-0.869C18.815,103.092,18.789,102.516,17.926,102.494z"/>
	<path fill="#F00808" d="M47.976,117.227c-0.489-0.014-1.308,0.146-1.222,0.414c0.086,0.27,0.306,0.189,0.269,0.447
		c-0.07,0.491,0.441,0.502,0.693,0.121c0.248-0.324,0.691-0.022,0.744-0.49C48.477,117.563,48.461,117.238,47.976,117.227z"/>
	<path fill="#F00808" d="M8.001,96.759c-0.638-1.341,0.67-1.915-1.053-3.127c-1.723-1.213-2.809,0-3.096,0.829
		c-0.287,0.83,0.957,1.469,1.595,2.106c0.639,0.639-0.351,0.702-1.148,0.926c-0.798,0.223-1.788,0.894-2.234,0.798
		c-0.447-0.096,0.191-0.989,0.446-2.139c0.213-0.96-0.376-0.939-0.854-1.392c0.089,1.679,0.145,3.326,0.18,5.055l0.036-0.024
		c0.511-0.352,0.319,0.191,1.149,0.542c0.509,0.215,3.482,0.232,3.415-2.396c-0.01-0.39,1.906,0.095,1.385,2.278
		c-0.166,0.697-0.846,1.397-0.747,1.841c0.319,1.437,1.021,1.149,1.915,0.638c0.893-0.51,1.021-1.148,1.021-3.063
		C10.012,97.716,8.704,98.291,8.001,96.759z"/>
	<path fill="#F00808" d="M67.698,106.064c0.098,0.32,0.302,0.567,0.529,0.71c0.495,0.31,0.969-0.345,1.096-0.72
		c0.131-0.387,0.059-1.627-0.571-1.587c-0.289,0.018-0.646,0.208-0.827,0.313c-0.258,0.152-0.372,0.038-0.553-0.234
		c-0.799-1.199-2.217,2.146-0.205,1.563C67.628,105.977,67.623,105.813,67.698,106.064z"/>
	<path fill="#F00808" d="M58.607,99.661c-0.701,0.211-1.343,0.251-1.917,0.167c-1.182,0.27-2.046,0.645-1.508,1.41
		c0.417,0.592,4.827-1.008,4.745-0.038c-0.081,0.972-1.335,0.684-2.315,1.382c-1.078,0.769-0.522,1.379,0.383,1.801
		c3.234,1.513,2.092,0.314,2.091-0.912c-0.001-0.63,0.582-1.364,1.928-1.236c1.125,0.107,2.19,0.871,2.509-1.191
		C64.73,99.698,63.629,98.152,58.607,99.661z"/>
	<path fill="#F00808" d="M63.914,86.719c0.645-0.506,3.57-0.45,2.483-2.169c-0.006-0.01-1.602-1.101-1.814-1.952
		c-0.078,0.02-0.161,0.035-0.25,0.045c-1.361,0.158-1.391,0.608-1.266,2.38c0.124,1.772-1.735,1.5-2.405,2.024
		c-0.669,0.524-0.889,1.442-0.535,2.741c0.353,1.299,0.786,1.532,0.328,2.479c-0.241,0.497-0.847,0.814-1.521,0.896
		c-0.756,0.435-3.15-0.313-3.219,1.316c-0.13,3.052,4.397-0.277,4.432-0.281c2.479-0.303,1.417,0.314,3.256,0.562
		c0.674,0.091,1.36-0.343,1.792-2.011C66.622,87.239,59.568,90.128,63.914,86.719z"/>
	<path fill="#F00808" d="M79.377,117.665c-0.489-0.012-1.307,0.147-1.221,0.416c0.085,0.269,0.306,0.189,0.269,0.445
		c-0.07,0.491,0.441,0.503,0.692,0.122c0.249-0.325,0.691-0.023,0.744-0.49C79.879,118.002,79.864,117.678,79.377,117.665z"/>
	<path fill="#F00808" d="M71.832,101.625c-0.195,0.486-0.08,0.557-0.298,0.511c-0.279-0.058-0.574,0.017-0.812,0.161
		c-0.519,0.313-0.367,1.051-0.19,1.342c0.182,0.298,1.071,0.801,1.436,0.201c0.167-0.275,0.259-0.691,0.298-0.906
		c0.057-0.307,0.205-0.359,0.504-0.402C74.083,102.346,72.685,99.504,71.832,101.625z"/>
	<path fill="#F00808" d="M69.135,113.908c-0.429-0.078-0.455,0.301-0.737,0.358c-0.282,0.059-0.16-0.263-0.384-0.461
		c-0.635-0.562-1.379,1.014-0.57,0.864c0.314-0.057,0.32-0.045,0.314,0.135c-0.008,0.18-0.109,0.199-0.142,0.48
		c-0.061,0.533,0.646,0.503,1.006,0.219c0.218-0.174,0.301-0.32,0.699-0.494c0.397-0.173,0.391-0.441,0.377-0.66
		C69.686,114.133,69.563,113.984,69.135,113.908z"/>
	<path fill="#F00808" d="M67.863,98.568c0.374-0.338,0.398-1.086,0.036-1.387c-0.361-0.302-0.156-0.941-0.88-1.242
		c-1.233-0.514-2.199-0.052-1.579,1.531c0.217,0.555,0.144,0.76,0.59,1.109S67.489,98.906,67.863,98.568z"/>
	<path fill="#F00808" d="M51.941,99.89c-0.221,0.061-0.485-0.058-0.771-0.18c-0.613-0.261-0.176-1.682,0.273-2.196
		c1.222-1.398,0.637-3.007-0.665-3.289c-0.898,0.396,0.277,1.09,0.255,1.617c-0.022,0.571-0.222,1.016-0.765,0.961
		c-1.554-0.152-2.737-0.363-1.225,1.896c0.192,0.286-1.556,1.562-1.687,2.006c-0.558,1.891,2.303,2.922,2.034-0.336
		c-0.162-1.971,1.531,1.818,2.537,1.818c0.663,0,0.825-0.306,0.963-0.715C53.648,99.249,53.197,99.539,51.941,99.89z"/>
	<path fill="#F00808" d="M54.559,114.267c-0.489-0.013-1.308,0.146-1.222,0.415c0.086,0.269,0.306,0.189,0.269,0.446
		c-0.07,0.491,0.442,0.503,0.693,0.122c0.248-0.326,0.691-0.023,0.745-0.49C55.061,114.604,55.046,114.279,54.559,114.267z"/>
	<path fill="#F00808" d="M12.96,88.99c0.375,0.548,2.531,2.635,2.537-0.054c0.003-1.424-0.934-3.05,1.368-3.394
		c1.877-1.356-0.702-2.943-3.13-2.697c-2.702,0.273-1.757,0.971-2.056,2.889c-0.159,1.01-0.595,1.857-1.798,2.271
		c-1.107,0.381-3.369,1.257-1.838,2.673c0.485,0.45,2.459,0.668,2.872-0.19C11.165,89.971,12.382,88.145,12.96,88.99z"/>
	<path fill="#F00808" d="M51.073,107.317c-0.611,0-0.431,0.296-0.607-0.155c-0.106-0.274-0.007-0.877-0.637-0.685
		c-0.322,0.099-0.497,0.56-0.771,0.194c-0.196-0.261-0.715-0.148-0.975-0.063c-0.368,0.122-0.188,0.803-0.18,0.834
		c0.119,0.529-0.167,0.623,0.486,0.963c0.328,0.171,0.027,1,0.395,0.988c0.251-0.009,0.431,0.031,0.548-0.216
		c0.293-0.62-0.048-1.224,0.139-1.356c0.169-0.121,0.367,0.273,0.936,0.028c0.14-0.06,0.258,0.613,0.395,0.675
		C51.668,108.916,51.606,107.317,51.073,107.317z"/>
	<path fill="#F00808" d="M63.203,108.709c-0.604-0.108-0.64,0.423-1.037,0.504c-0.396,0.081-0.225-0.369-0.541-0.648
		c-0.891-0.79-1.939,1.426-0.802,1.217c0.442-0.082,0.451-0.064,0.442,0.188s-0.153,0.28-0.199,0.676
		c-0.085,0.749,0.91,0.708,1.415,0.307c0.306-0.243,0.423-0.45,0.982-0.694c0.558-0.243,0.55-0.621,0.531-0.928
		C63.978,109.023,63.806,108.816,63.203,108.709z"/>
	<path fill="#F00808" d="M61.412,118.648c-0.488-0.012-1.308,0.146-1.222,0.416c0.086,0.268,0.306,0.189,0.269,0.445
		c-0.07,0.492,0.441,0.503,0.693,0.122c0.249-0.325,0.691-0.022,0.744-0.489C61.914,118.985,61.899,118.661,61.412,118.648z"/>
	<path fill="#F00808" d="M49.931,89.87c-0.418-0.418,0.754-2.075,1.232-0.841c0.378,0.978,2.188-0.44,0.578-2.133
		c-0.584-0.613-0.608-1.308-0.373-1.856c-0.163-1.025-1.158-1.696-1.413-0.198c-0.327,1.919,0.192,5.306-2.685,3.879
		c-1.671-0.83-1.662-0.311-1.607,1.607c0.016,0.555,1.268,0.934,2.482,1.404C49.864,91.75,52.132,92.07,49.931,89.87z"/>
	<path fill="#F00808" d="M166.504,103.699c0.439-0.578,1.225-0.043,1.32-0.871c0.031-0.276,0.005-0.854-0.857-0.874
		c-0.868-0.022-2.32,0.26-2.168,0.737c0.152,0.477,0.541,0.335,0.477,0.791C165.15,104.354,166.059,104.373,166.504,103.699z"/>
	<path fill="#F00808" d="M165.662,96.215c0.313-0.36,0.674-0.24,1.059,0.023c0.385,0.265,1.322,0.072,1.514-0.359
		c0.192-0.434,0.096-1.586-0.842-1.731c-0.937-0.144-1.152,0.386-1.705,0.649s-0.914-0.338-1.658-0.649
		c-1.671-0.7-2.985-0.016-2.284,1.995c0.36,1.033,1.298,1.082,2.044,1.154C164.533,97.369,165.351,96.575,165.662,96.215z"/>
	<path fill="#F00808" d="M169.737,111.205c-0.729-0.344-1.032,0.359-1.032,0.988c0,0.201-0.129,0.172-0.501,0.244
		c-0.372,0.071-0.101,0.572-0.244,0.759s-0.358-0.015-0.687-0.187c-0.33-0.172-0.703-0.014-1.047,0.302s-0.144,0.659,0.143,0.931
		c0.287,0.273,1.305,0.315,1.619,0.101c0.316-0.214,0.072-0.558,0.244-0.487c0.12,0.051,0.827-0.016,0.874-0.372
		c0.032-0.454,0.081-0.424,0.536-0.429C170.189,113.078,170.723,111.668,169.737,111.205z"/>
	<path fill="#F00808" d="M170.676,119.594c-0.489-0.012-1.309,0.147-1.223,0.416c0.085,0.269,0.306,0.189,0.269,0.446
		c-0.07,0.491,0.441,0.503,0.692,0.122c0.248-0.325,0.691-0.023,0.744-0.49C171.177,119.932,171.161,119.605,170.676,119.594z"/>
	<path fill="#F00808" d="M180.492,106.691c0.146-0.236-0.146-0.656-0.785-0.766c-0.64-0.109-0.676,0.383-0.84,0.054
		c-0.164-0.327,0.438-0.583,0.639-1.112s-0.639-0.128-0.584-0.694c0.055-0.565,1.039-0.766,1.387-1.296
		c0.347-0.529-0.018-0.949-0.621-1.203c-0.602-0.256-1.223,0.273-1.642,0.711c-0.421,0.438-0.037,0.895-0.421,1.204
		c-0.383,0.311-0.675-0.292-1.35-0.108c-0.999,0.27-1.448,1.988-0.365,1.988c0.621,0,0.658,0.201,0.693,1.004
		c0.037,0.803,0.858,0.584,1.187,0.785c0.329,0.201,0.475,0.602,0.384,1.205c-0.092,0.602-0.273,0.729-0.018,1.131h1.6
		c0.16-0.135,0.264-0.373,0.151-0.857c-0.22-0.949-0.529-0.73-0.565-1.223C179.305,107.021,180.346,106.93,180.492,106.691z"/>
	<path fill="#F00808" d="M161.161,109.461c-0.974,0.216-1.207,0.468-1.478,0.197c-0.567-0.567-1.689,0.268-2.034,0.775
		c-0.71,1.048,0.282,1.963,0.953,1.531c0.81-0.523,0.753-0.942,1.401-1.104c0.648-0.163,0.616,0.185,1.049,0.185
		c1.23,0,1.392-0.407,1.341-0.846C162.342,109.747,162.045,109.264,161.161,109.461z"/>
	<path fill="#F00808" d="M176.058,99.201c0.114-1.305-1.178-2.051-0.658-3.074c0.478-0.94,1.485-1.734,1.008-2.737
		c-0.484-1.015-2.817-0.263-3.352,0.343c-0.329,0.371-0.659,0.799-1.212,0.816c-1.598,0.054-1.514,3.279-0.217,3.025
		c2.104-0.416,1.133,1.422,2.408,2.276C174.689,100.289,175.991,99.975,176.058,99.201z"/>
	<path fill="#F00808" d="M158.457,99.631c0-1.915-1.309-1.34-2.011-2.872c-0.638-1.341,0.67-1.915-1.053-3.127
		c-1.724-1.213-2.809,0-3.096,0.829c-0.287,0.83,0.957,1.469,1.595,2.106c0.639,0.639-0.351,0.702-1.147,0.926
		c-0.798,0.223-1.788,0.894-2.233,0.798c-0.447-0.096,0.191-0.989,0.445-2.139c0.256-1.148-0.638-0.893-1.116-1.723
		c-0.322-0.561-0.21-1.091-0.279-1.582c0.472-0.05,0.903-0.262,0.966-0.782c0.047-0.388,0.041-0.667,0.016-0.93
		c-0.852,0.275-1.867-0.155-2.434-1.906c-0.764-2.358-5.142-3.146-3.383,1.728c0.463,1.283,0.063,1.76-0.559,2.143
		c0.012,0.232-0.003,0.543-0.036,0.955c-0.051,0.617-0.267,1.84,0.589,2c0.016,0.002,1.557,0.512,1.627,0.171
		c0.303-0.063,0.303-0.852,0.386-1.675c0.448,0.342,1.769-0.239,2.054,0.135c0.32,0.414-0.51,0.766-0.51,1.626
		c0,0.862,0.415,0.734-0.127,1.597c-0.543,0.861,0.127,1.18,0.445,2.01c0.32,0.83,1.213,0.224,1.725-0.127
		c0.51-0.352,0.318,0.191,1.148,0.542c0.509,0.215,3.482,0.232,3.414-2.396c-0.01-0.39,1.906,0.095,1.385,2.278
		c-0.166,0.697-0.846,1.397-0.746,1.841c0.318,1.437,1.021,1.149,1.914,0.638C158.329,102.184,158.457,101.545,158.457,99.631z"/>
	<path fill="#F00808" d="M165.311,85.543c1.877-1.356-0.703-2.943-3.131-2.697c-2.701,0.273-1.756,0.971-2.056,2.889
		c-0.158,1.01-0.595,1.857-1.798,2.271c-1.107,0.381-3.369,1.257-1.838,2.673c0.484,0.45,2.459,0.668,2.873-0.19
		c0.248-0.518,1.467-2.344,2.044-1.498c0.375,0.548,2.531,2.635,2.536-0.054C163.943,87.513,163.008,85.887,165.311,85.543z"/>
	<path fill="#F00808" d="M152.203,87.248c1.307,2.174,4.517,0.527,3.611-0.325c-1.984-1.058-1.938-2.935,0.33-3.271
		c0.197-0.03,1.035-0.316,1.816-0.615c0.686-0.264,2.771-1.313,1.038-2.07c-1.313-0.571-4.688,0.911-4.688-0.666
		c0-1.065,1.617-2.488-0.205-2.41c-0.838,0.035-0.769,2.354-1.57,3.631c-1.123,1.791-3.172-0.135-3.309-1.302
		c-0.17-1.452,1.455-3.003,1.314-4.769c-0.153-1.923,2.299-2.638,3.625-1.231c3.305,3.502,7.548-2.356,11.191-0.314
		c1.034,0.579,3.167,4.309,1.347,5.139c-2.202,0-3.714-2.643-3.714,0.318c0,1.166,4.015,1.168,5.243,0.584
		c1.005-0.477,3.905-0.854,5.709-0.066c1.903,0.832,2.407-0.055,1.478-1.707c-0.355-0.632-1.293-0.23-2.523-0.502
		c-0.586-0.128,0.299-0.754,0.565-1.415c0.487-1.209-1.097-1.545-1.311-1.545c-3.442,0-3.669-2.118-0.415-2.02
		c0.36,0.01,1.605-0.927-0.257-1.321c-5.546-1.174-1.267,3.009-4.741,1.958c-2.096-0.634-3.736-2.84-1.572-3.194
		c2.333-0.381,1.744,0.523,2.396-2.676c0.158-0.776,1.627-0.936,2.594-0.157c3.313,2.67,1.533-1.917,0.479-2.154
		c-0.148-0.031-1.873-1.252-2.929-1.471c-1.07-0.197-1.213,0.649-1.136,1.859c0.099,1.528,0.075,2.249-0.489,3.045
		c-0.697,0.986-2.036,1.751-2.759,0.33c-1.354-2.659-1.494-0.979-2.18-2.083c-0.82-1.322,1.099-1.887,2.162-1.887
		c3.646,0,0.93-5.407-0.902-1.464c-0.352,0.756-1.136,1.055-1.83,0.958c-1.637-0.226-1.324-2.375-0.918-2.67
		c0.217-0.16,0.498-0.075,0.352-1.844c-0.122-1.458,1.274-2.867,2.754-2.976c2.449-0.181,1.278,1.544,2.998,1.193
		c0.299-0.061,0.316-1.744,0.649-1.856c0.579-1.89,3.479,0.478,3.956-1.325c0.357-1.349,2.975-1.083,4.939-0.488
		c0.371,0.113,0.934,0.408,1.469,0.547c-0.328-1.89-0.679-3.743-1.038-5.563c-0.061-0.062-0.104-0.127-0.133-0.199
		c-0.204-0.53-0.653-1.142-1.184-1.427c-0.53-0.287-0.979,0.367-1.917,0.367s-2.121-0.938-1.918-1.958
		c0.205-1.02,0.531-1.59,1.918-1.672s1.795,1.02,2.162,1.469c0.111,0.137,0.272,0.273,0.455,0.38
		c-0.295-1.419-0.593-2.815-0.891-4.193l-0.024-0.113c-0.091,0.052-0.19,0.102-0.3,0.149c-1.264,0.551-1.529,1.02-2.223,1.57
		c-1.145,0.909-3.396,1.004-3.203-0.693c0.103-0.897,0.429-0.958,0.449-1.529c0.02-0.571,0-0.612-1-0.429
		c-2.575,0.473-0.203-4.542,1.815-2.754c0.714,0.633,0.327,1.652,1.224,1.469c0.897-0.184,0.979-1.387,2.346-1.142l0.162,0.03
		c-0.203-0.905-0.408-1.805-0.619-2.701c-0.451,0.141-1.065,0.222-1.895,0.222c-0.979,0-0.906-0.786-2.375-0.419
		c-1.469,0.367-1.337,1.316-3.172,2.5c-1.518,0.977-3.765-1.093-2.158-3.465c0.779-1.152,3.32-3.041,4.605-1.756
		c0.611,0.611,1.143,0.041,3.346-0.449c0.295-0.066,0.561-0.098,0.801-0.102c-0.368-1.445-0.758-2.889-1.18-4.343l-0.033-0.112
		c-0.193,0.027-0.422-0.009-0.691-0.129c-0.311-0.14-0.578-1.667-0.895-1.53c-1.287,0.555-1.734-0.339-2.118-0.064
		c-0.422,0.301,0.353,1.668-0.313,3.073c-0.264,0.557-0.67,0.467-1.24,0.486c-0.832,0.029-0.15-1.849-0.891-2.235
		c-1.479-0.77-0.83-0.98-1.102-2.182c0.016,0.07-0.424-1.609,0.407-1.884c0.589-0.195,1.763-0.45,2.207,0.14
		c0.622,0.827,1.017-0.217,1.745-0.44c1.425-0.435,1.201,0.929,1.442,1.55c0.294,0.754,0.149,0.585,0.61,0.446
		c-1.16-3.69-2.471-7.369-3.744-10.751c-0.522-1.387-1.037-2.725-1.528-3.974c-0.044,0.035-0.1,0.067-0.168,0.097
		c-0.366,0.16-0.443,0.295-0.646,0.456c-0.33,0.263-0.983,0.29-0.927-0.202c0.029-0.259,0.124-0.277,0.13-0.443
		c0.006-0.165,0-0.177-0.289-0.124c-0.747,0.137-0.06-1.316,0.525-0.798c0.207,0.184,0.095,0.479,0.354,0.426
		c0.255-0.052,0.282-0.388,0.655-0.335c-0.865-2.189-1.629-4.052-2.17-5.355c-0.913-2.198-1.193-2.803-1.314-3.193
		c-0.119-0.392-0.08-0.57,0.009-0.707c0.089-0.136,0.228-0.232,0.339-0.307c0.012-0.008,0.025-0.017,0.036-0.026
		c-0.036-0.002-0.077-0.003-0.126-0.006c-0.092-0.006-0.214-0.012-0.61-0.042c-0.396-0.032-1.063-0.087-1.95-0.094
		c-0.886-0.007-1.99,0.033-3.146,0.116c-0.818,0.059-1.665,0.141-2.76,0.298c-0.018,0.014-0.033,0.029-0.049,0.049
		c-0.14,0.211-0.406,0.232-0.439,0.024c-0.314,0.048-0.65,0.104-1.008,0.165c-1.891,0.324-4.459,0.846-6.578,1.318
		c-2.121,0.471-3.793,0.893-5.985,1.328c-0.359,0.07-0.731,0.142-1.116,0.213c0.078,0.065,0.139,0.147,0.166,0.226
		c0.145,0.253-0.002,0.73-0.258,0.716c-0.295-0.015-0.539-0.38-0.67,0.181c-0.277,1.191-1.256-1.068-0.459-0.796
		c0.322,0.11,0.403-0.028,0.518-0.199c-1.797,0.321-3.803,0.636-5.815,0.905c-2.726,0.364-5.462,0.645-8.771,0.946
		c-3.311,0.301-7.196,0.623-10.442,0.85c-3.248,0.227-5.855,0.361-8.24,0.491c-1.102,0.06-2.157,0.12-3.214,0.177
		c0.167,0.164,0.077,0.414,0.304,0.367c0.232-0.048,0.254-0.359,0.607-0.296c0.354,0.064,0.454,0.186,0.465,0.365
		c0.011,0.18,0.016,0.402-0.313,0.544c-0.327,0.143-0.396,0.264-0.574,0.407c-0.297,0.236-0.881,0.26-0.83-0.18
		c0.025-0.232,0.111-0.249,0.115-0.396c0.006-0.147,0-0.158-0.258-0.11c-0.425,0.078-0.33-0.419-0.072-0.672
		c-1.048,0.055-2.108,0.105-3.23,0.15c-2.453,0.097-5.202,0.164-7.931,0.22c-1.134,0.024-2.265,0.046-3.385,0.063
		c-0.016,0.129-0.049,0.264-0.114,0.4c-0.116,0.246-0.295,0.206-0.548,0.214c-0.23,0.008-0.197-0.317-0.222-0.602
		c-1.271,0.016-2.526,0.025-3.75,0.022c-2.581-0.007-5.036-0.067-7.336-0.121c-2.301-0.054-4.448-0.1-6.772-0.17
		c-2.323-0.071-4.825-0.165-7.894-0.251c-3.07-0.087-6.708-0.167-10.564-0.19c-0.909-0.005-1.831-0.008-2.752-0.008
		c-0.022,0.381-0.388,0.718-0.584,1.102c-0.268,0.529,0.399,0.914,0.34,1.589c-0.034,0.4-0.707,0.562-1.044,0.335
		c-0.66-0.441-0.157-1.391-1.246-1.177c-0.669,0.132-0.714-1.536,0.112-1.563c0.219-0.007,0.371-0.138,0.505-0.286
		c-2.33,0.005-4.607,0.016-6.63,0.014c-3.371-0.003-6.04-0.043-9.567-0.181c-3.528-0.137-7.915-0.371-11.07-0.607
		c-1.73-0.129-3.09-0.259-4.195-0.396c0.016,0.094,0.029,0.187,0.056,0.257c0.176,0.452-0.004,0.155,0.607,0.155
		c0.534,0,0.596,1.598-0.272,1.208c-0.137-0.061-0.255-0.735-0.395-0.675c-0.569,0.245-0.766-0.149-0.936-0.028
		c-0.187,0.133,0.155,0.737-0.139,1.358c-0.117,0.246-0.297,0.206-0.548,0.214c-0.368,0.013-0.066-0.817-0.395-0.988
		c-0.652-0.34-0.366-0.433-0.486-0.963c0.006,0.03-0.188-0.711,0.18-0.833c0.042-0.014,0.091-0.029,0.144-0.043L9.547,5.239
		c-1.398-0.28-2.272-0.602-3.146-0.923c0.039,0.056,0.019,0.165-0.024,0.549C6.322,5.35,6.232,6.27,5.981,7.963
		c-0.25,1.693-0.663,4.159-0.93,5.963c-0.226,1.515-0.35,2.564-0.563,3.977c0.296-0.414,1.689-0.842,3.174-1.025
		c1.354-0.166,1.479-0.879,2.29-0.474c0.376,0.188,0.085,1.382,0.481,1.3c0.396-0.081,0.491-1.265,1.095-1.156
		c0.604,0.108,0.774,0.316,0.793,0.622c0.018,0.307,0.026,0.685-0.532,0.928c-0.558,0.243-0.675,0.451-0.982,0.694
		c-0.505,0.401-1.5,0.443-1.415-0.307c0.045-0.396,0.189-0.423,0.199-0.675c0.008-0.252,0-0.271-0.441-0.189
		c-0.162,0.03-1.483-0.039-2.299,0.304c-0.506,0.212-0.454,0.875-0.915,0.934c-0.944,0.122-1.393-0.476-1.485-0.708l-0.095,0.607
		c-0.151,0.945-0.346,2.075-0.551,3.259c0.61-0.27,1.247-0.012,1.388,0.181c0.159,0.216,0.692,0.798-0.032,1.362
		c-0.725,0.563-1.069,0.339-1.542,0.659c-0.472,0.319,0.23,0.974-0.298,1.399c-0.05,0.041-0.101,0.078-0.15,0.11
		C3,26.764,2.846,27.738,2.709,28.648c0.478-0.013,0.935,0.14,1.203,0.452c0.604,0.704,0.101,1.507,0.604,2.378
		c0.501,0.871,1.439,0.602,1.171,1.808c-0.268,1.206-0.938,2.143-0.468,2.244c0.468,0.101,1.507-0.603,2.344-0.837
		c0.837-0.234,1.875-0.301,1.206-0.971c-0.67-0.67-1.976-1.34-1.674-2.21c0.301-0.87,1.44-2.143,3.248-0.87
		c1.808,1.272,0.436,1.875,1.105,3.281c0.737,1.607,2.11,1.004,2.11,3.013s-0.134,2.679-1.071,3.215
		c-0.938,0.536-1.674,0.837-2.009-0.67c-0.104-0.465,0.609-1.2,0.783-1.931c0.547-2.292-1.463-2.8-1.453-2.392
		c0.071,2.758-3.048,2.741-3.583,2.515c-0.87-0.369-0.67-0.938-1.206-0.569c-0.536,0.368-1.474,1.004-1.808,0.133
		c-0.334-0.871-1.038-1.205-0.469-2.109c0.57-0.905,0.135-0.771,0.135-1.675c0-0.904,0.87-1.272,0.535-1.708
		c-0.164-0.213-0.649-0.129-1.133-0.066c-0.201,1.47-0.355,2.707-0.496,4.071c0.096,0.377,0.08,0.775-0.105,1.06
		c-0.138,1.454-0.266,3.095-0.405,5.033l-0.056,0.772c0.151,0.138,0.243,0.305,0.243,0.513c0,0.694,0.081,1.611,0.489,2.121
		c0.408,0.51,0.979,0.429,1.529,0.939c0.552,0.51,0.531,1.244,0.898,1.631c0.368,0.388,0.898,0.795,1.408,0.368
		c0.51-0.429,0.387-2.285-0.123-2.713c-0.51-0.428-1.427,0.245-2.06-0.448c-0.632-0.694-0.428-0.613-0.816-1.51
		c-0.293-0.682-0.337-2.135,1.143-2.367c1.593-0.249,2.467,0.776,2.896,1.469c0.428,0.694,0.795,1.815,0.938,2.631
		c0.143,0.817,0.551,0.775,1.347,1.265c0.795,0.49,0.632,2.285-0.143,2.692c-0.775,0.409-1.061,0.449-1.591,1.347
		c-0.53,0.897-1.713,1.386-2.896,0.897c-1.183-0.49-1.509-2.162-1.795-2.447c-0.285-0.286-1.101,0.163-1.835-0.612l-0.008-0.009
		L0.77,49.498c-0.061,1.04-0.123,2.12-0.182,3.234c0.763,0.124,0.704,0.383,0.863,0.51c0.175,0.139,0.175,0.628,0.07,1.395
		c-0.104,0.767-0.454,0.906-0.941,1.254c-0.046,0.033-0.097,0.053-0.152,0.063c-0.044,0.978-0.086,1.976-0.123,2.994
		c-0.04,1.075-0.075,2.171-0.104,3.286c0.718-0.781,2.115-0.818,2.688-0.149c0.627,0.731,0.104,1.568,0.627,2.475
		c0.522,0.907,1.499,0.628,1.22,1.883c-0.279,1.255-0.977,2.231-0.489,2.336c0.489,0.104,1.569-0.628,2.44-0.872
		c0.872-0.244,1.953-0.313,1.255-1.011C7.246,66.197,5.886,65.5,6.2,64.594c0.314-0.906,1.5-2.231,3.382-0.906
		c1.883,1.325,0.454,1.952,1.15,3.416c0.768,1.674,2.197,1.046,2.197,3.138s-0.14,2.789-1.116,3.347
		c-0.976,0.558-1.743,0.872-2.091-0.698c-0.108-0.484,0.635-1.25,0.816-2.01c0.57-2.386-1.523-2.916-1.513-2.49
		c0.075,2.872-3.174,2.853-3.73,2.617c-0.906-0.383-0.697-0.977-1.255-0.592c-0.558,0.383-1.534,1.046-1.882,0.14
		c-0.348-0.907-1.081-1.255-0.488-2.197c0.592-0.941,0.14-0.802,0.14-1.743s0.906-1.325,0.558-1.778
		c-0.308-0.4-1.704,0.206-2.218-0.127c-0.006,0.394-0.012,0.789-0.016,1.185c0.183,0.331,0.202,0.708-0.01,1.124
		c-0.005,0.863-0.005,1.733,0.001,2.608c0.009,1.341,0.032,2.693,0.07,4.048c0.246,0.279,0.311,0.585,0.174,0.808
		c-0.03,0.049-0.08,0.095-0.145,0.139c0.068,2.055,0.171,4.109,0.313,6.131c0.054,0.786,0.114,1.567,0.178,2.342
		c1.791,0.07,3.202,0.611,3.044,4.154c1.307,2.174,4.518,0.527,3.612-0.325c-1.985-1.058-1.938-2.935,0.33-3.271
		c0.198-0.03,1.035-0.316,1.816-0.615c0.686-0.264,2.772-1.313,1.039-2.07c-1.313-0.571-4.689,0.911-4.689-0.666
		c0-1.065,1.618-2.488-0.205-2.41c-0.837,0.035-0.769,2.354-1.57,3.631c-1.123,1.791-3.172-0.135-3.309-1.302
		c-0.17-1.452,1.454-3.003,1.313-4.769c-0.152-1.923,2.3-2.638,3.626-1.231c3.304,3.502,7.547-2.356,11.191-0.314
		c1.034,0.579,3.167,4.309,1.346,5.139c-2.202,0-3.713-2.643-3.713,0.318c0,1.166,4.014,1.168,5.242,0.584
		c1.005-0.477,3.906-0.854,5.709-0.066c1.904,0.832,2.407-0.055,1.478-1.707c-0.356-0.632-1.295-0.23-2.524-0.502
		c-0.586-0.128,0.299-0.754,0.566-1.415c0.488-1.209-1.097-1.545-1.311-1.545c-3.441,0-3.669-2.118-0.415-2.02
		c0.36,0.01,1.605-0.927-0.257-1.321c-5.546-1.174-1.267,3.009-4.741,1.958c-2.097-0.634-3.736-2.84-1.573-3.194
		c2.333-0.381,1.744,0.523,2.396-2.676c0.158-0.776,1.628-0.936,2.594-0.157c3.313,2.67,1.534-1.917,0.479-2.154
		c-0.148-0.031-1.873-1.252-2.929-1.471c-1.07-0.197-1.213,0.649-1.135,1.859c0.098,1.528,0.075,2.249-0.49,3.045
		c-0.697,0.986-2.036,1.751-2.759,0.33c-1.353-2.659-1.494-0.979-2.18-2.083c-0.82-1.322,1.098-1.887,2.163-1.887
		c3.646,0,0.929-5.407-0.903-1.464c-0.352,0.756-1.135,1.055-1.829,0.958c-1.638-0.226-1.325-2.375-0.919-2.67
		c0.217-0.16,0.499-0.075,0.352-1.844c-0.122-1.458,1.274-2.867,2.752-2.976c2.45-0.181,1.28,1.544,3,1.193
		c0.298-0.061,0.316-1.744,0.649-1.856c0.579-1.89,3.479,0.478,3.957-1.325c0.357-1.349,2.973-1.083,4.938-0.488
		c0.728,0.221,2.175,1.137,2.731,0.222c0.272-0.449,0.096-1.16,0.959-1.763c0.756-0.528,1.896-0.485,2.4,0.102
		c0.628,0.732,0.105,1.569,0.628,2.476c0.523,0.906,1.5,0.627,1.22,1.883c-0.28,1.255-0.976,2.23-0.488,2.336
		c0.488,0.104,1.569-0.628,2.44-0.872c2.029-0.568,0.52,4.021-1.78,4.407c-0.558,0.383-2.403-0.852-2.751-1.758
		c-0.35-0.906-1.081-1.255-0.489-2.196c0.593-0.941,0.139-0.802,0.139-1.744c0-0.94,0.907-1.325,0.558-1.777
		c-0.527-0.687-1.592-0.137-1.873,1.056c-0.119,0.504,1.673,3.025-0.418,3.451c-1.724,0.351-3.111-0.772-2.371-2.672
		c0.581-1.493-1.869-0.994-1.869-0.179c0,1.459,0.623,4.444-2.819,2.515c-1.872-1.048-2.332-2.951-3.7-1.224
		c-1.07,1.35,1.331,1.374,2.244,1.96c1.47,0.944,2.079,0.355,2.079,3.046c0,1.199,3.026,1.863,4.323,2.499
		c3.913,1.917-4.142-5.586,2.598-3.236c3.002,1.046,0.119,7.08,4.354,2.845c4.081-4.082,1.677,6.966-1.47,3.462
		c-0.697-0.776-2.264,0.045-0.706,1.39c0.306,0.262,0.011,0.574-0.09,0.892c-0.514,1.589,0.572,1.467,1.238,0.971
		c0.587-0.437,0.734-1.17,0.788-1.214c1.477-1.189,2.64,0.896,1.751,1.647c-0.756,0.638,0.613,2.515,1.74,0.707
		c0.489-0.786,4.358,0.047,2.924-3.799c-0.105-0.282-0.642-2.055-0.557-2.267c0.356-0.897-0.226-1.641,1.15-2.488
		c1.011-0.623,1.243-0.792,2.178,0.048c1.567,1.406-0.862,5.278,3.069,3.738c2.762-1.082,5.823,1.781,4.305,3.076
		c-0.632,0.54-1.719,1.725-1.223,2.724c1.091,2.199,1.912,2.476,1.388,3.652c-0.506,1.141-3.012,0.283-3.291-0.088
		c-1.144-1.518-0.553-2.617-1.24-4.183c-0.4-0.912-0.89-0.187-1.839-0.061c-0.846,0.111-0.794,3.393-3.308,3.916
		c-2.696,0.562-2.712-2.688-4.268-1.472c-0.283,0.22-0.339,0.804,0.066,1.713c0.123,0.819,0.026,1.866-0.725,2.988
		c-0.586,0.878,0.939,1.469,0.776,2.114c-0.14,0.545-1.287,2.271-1.569,1.733c-0.271-0.52-0.049-0.815-0.147-1.261
		c-0.099-0.445,0.025-0.866-0.718-0.915c-0.742-0.05-1.953,0.198-1.854,1.038c0.099,0.841,0.618,0.692,0.173,1.088
		c-0.445,0.395-0.914-0.148-1.212,0.52c-0.296,0.667,0.099,1.137-0.42,1.311c-0.52,0.172-1.434-0.124-1.606,0.246
		c-0.174,0.371-0.298,0.816-0.124,1.41c0.173,0.593,0.223,0.988-0.223,1.137s-0.891,0.248-0.964,0.643
		c-0.308,1.643,1.488,1.342,1.755,1.027c0.272-0.322,0.037-1.139,0.234-1.46c0.199-0.321,0.52-0.222,0.792-0.667
		c0.272-0.445-0.197-0.717,0.445-0.939c0.642-0.223,0.494,0.099,1.014-0.272c0.519-0.37,0.296-0.692,0.915-0.767
		c0.618-0.073,1.063,0.074,0.84,0.594s-0.37,1.113,0.05,1.336c0.42,0.222,1.211,0.419,1.533-0.1
		c0.131-0.212,0.283-0.361,0.392-0.496v-0.622c-0.371-0.438-0.837-0.218-1.035-0.415s-0.271-0.643,0.075-0.668
		c0.38-0.026,0.7-0.09,0.96-0.177v0.581c0.521-0.273,1.228-0.443,2.174-0.443c0.808,0,0.951-0.225,0.907-1.02
		c-0.108-1.916-1.717-4.523,1.992-4.005c0.87,0.122,2.572,1.859,2.994,2.776c0.697,1.516,3.723-1.007-0.318-4.045
		c-0.274-0.206-0.912-2.027,1.446-1.547c1.326,0.271,0.893,1.804,4.52,1.518c1.375-0.109,2.344-0.119,2.949,1.512
		c0.229,0.617,0.22,2.021-0.175,2.801c0.366,1.169-0.251,2.961,1.386,2.961c0.512,0,1.115,0.089,1.219,0.596
		c0.465,2.281-2.091,1.035-1.739,2.767c0.047,0.233,1.868,1.837,2.102-0.255c0.239-2.139,0.977-1.736,0.931-2.828
		c-0.045-1.09-2.352-1.026-2.732-1.51c-0.38-0.484,0.153-1.48,1.528-1.883c1.374-0.402,1.58,0.67,1.857-0.094
		c0.276-0.762-1.11-1.17-1.686-2.28c-0.574-1.111,1.37-0.443,1.107-1.671c-0.265-1.229-2.479-1.418-3.375-2.491
		s-0.202-2.089,1.056-2.802c1.257-0.715,2.754,0.29,3.787,1.145s0.308,1.953,1.228,2.537c0.92,0.583,1.393-0.676,2.937-0.584
		c3.353,0.2,1.664,1.414,3.266,2.271c1.338,0.715,3.206,0.943,3.546,1.303c2.804,2.955,8.525-1.646,8.218,5.305
		c1.307,2.174,4.518,0.527,3.612-0.325c-1.985-1.058-1.938-2.935,0.331-3.271c0.197-0.03,1.035-0.316,1.815-0.615
		c0.686-0.264,2.772-1.313,1.038-2.07c-1.313-0.571-4.689,0.911-4.689-0.666c0-1.065,1.619-2.488-0.204-2.41
		c-0.838,0.035-0.769,2.354-1.57,3.631c-1.124,1.791-3.172-0.135-3.309-1.302c-0.17-1.452,1.455-3.003,1.314-4.769
		c-0.153-1.923,2.299-2.638,3.626-1.231c2.188,2.321,4.789,0.533,7.355-0.345c0.392-2.148,0.775-4.143,1.109-5.745l0.06-0.288
		c-0.792-1.072-0.988-0.114-1.548-1.017c-0.821-1.322,1.099-1.887,2.162-1.887l0.048-0.001c0.339-1.373,0.602-2.236,0.796-2.872
		c-0.523-0.138-1.178,0.184-1.747,1.409c-0.351,0.756-1.135,1.055-1.829,0.958c-1.638-0.226-1.324-2.375-0.919-2.67
		c0.217-0.16,0.499-0.075,0.352-1.844c-0.122-1.458,1.275-2.867,2.754-2.976c2.449-0.181,1.278,1.544,2.998,1.193
		c0.3-0.061,0.316-1.744,0.65-1.856c0.578-1.89,3.479,0.478,3.956-1.325c0.357-1.349,2.974-1.083,4.938-0.488
		c0.728,0.221,2.176,1.137,2.731,0.222c0.272-0.449,0.096-1.16,0.958-1.763c0.758-0.528,1.898-0.485,2.401,0.102
		c0.628,0.732,0.104,1.569,0.628,2.476c0.522,0.906,1.498,0.627,1.22,1.883c-0.278,1.255-0.977,2.23-0.489,2.336
		c1.102,0.235,3.83-0.118,3.46,0.986c-0.121,0.357-0.051,1.447-1.071,2.084c-1.488,0.927-3.8,0.476-4.479-1.292
		c-0.349-0.906-1.081-1.255-0.487-2.196c0.593-0.941,0.139-0.802,0.139-1.744c0-0.94,0.906-1.325,0.559-1.777
		c-0.529-0.687-1.594-0.137-1.873,1.056c-0.119,0.504,1.672,3.025-0.419,3.451c-1.724,0.351-3.111-0.772-2.372-2.672
		c0.582-1.493-1.868-0.994-1.868-0.179c0,1.459,0.622,4.444-2.819,2.515c-1.871-1.048-2.332-2.951-3.699-1.224
		c-1.07,1.35,1.331,1.374,2.244,1.96c1.469,0.944,2.078,0.355,2.078,3.046c0,1.199,3.027,1.863,4.322,2.499
		c3.914,1.917-4.142-5.586,2.598-3.236c3.003,1.046,0.121,7.08,4.355,2.845c1.724-1.724,2.75-0.714,2.719,0.5
		c-0.021,0.844-0.924,1.85-0.924,1.85c-0.668-0.007-1.545,3.027-3.266,1.111c-0.695-0.776-2.264,0.045-0.704,1.39
		c0.305,0.262,0.011,0.574-0.091,0.892c-0.514,1.589,0.572,1.467,1.237,0.971c0.587-0.437,0.734-1.17,0.788-1.214
		c1.049-0.845,1.939-0.038,2.05,0.771v0.323c-0.032,0.212-0.127,0.408-0.299,0.554c-0.825,0.697-0.052,0.809,0.299,1.275
		c0,1.577-0.39,1.782-1.232,3.051c-0.321-0.148-0.972,0.484-2.112,0.445c-3.977-0.136-1.592,2.734-2.807,2.933
		c-1.561,0.255,0.015,1.042,0.621,1.431c0.225-0.192,0.48-0.347,0.715-0.333c1.625,0.093,0.179-2.14,1.426-2.095
		c1.07,0.039,2.336,0.996,3.561,0.297c2.13-1.219-0.436,5.92-0.893,5.048c-0.271-0.52-0.049-0.815-0.148-1.261
		c-0.098-0.445,0.025-0.866-0.717-0.915c-0.741-0.05-1.953,0.198-1.854,1.038c0.101,0.841,0.618,0.692,0.174,1.088
		c-0.445,0.395-0.915-0.148-1.211,0.52c-0.298,0.667,0.098,1.137-0.421,1.311c-0.52,0.172-1.434-0.124-1.607,0.246
		c-0.173,0.371-0.297,0.816-0.123,1.41c0.172,0.593,0.223,0.988-0.223,1.137s-0.891,0.248-0.965,0.643
		c-0.307,1.643,1.488,1.342,1.756,1.027c0.271-0.322,0.037-1.139,0.235-1.46c0.197-0.321,0.519-0.222,0.79-0.667
		s-0.197-0.717,0.445-0.939c0.644-0.223,0.494,0.099,1.014-0.272c0.52-0.37,0.297-0.692,0.914-0.767
		c0.619-0.073,1.064,0.074,0.842,0.594s-0.371,1.113,0.049,1.336c0.421,0.222,1.211,0.419,1.533-0.1
		c0.131-0.212,0.282-0.361,0.392-0.496v-0.622c-0.37-0.438-0.837-0.218-1.034-0.415c-0.198-0.197-0.271-0.643,0.074-0.668
		c0.309-0.021,0.577-0.066,0.808-0.13v0.534c0.521-0.273,1.227-0.443,2.173-0.443c0.809,0,0.952-0.225,0.906-1.02
		c-0.106-1.916-1.716-4.523,1.993-4.005c0.87,0.122,2.571,1.859,2.993,2.776c0.698,1.516,3.723-1.007-0.318-4.045
		c-0.273-0.206-0.91-2.027,1.447-1.547c1.325,0.271,0.893,1.804,4.52,1.518c1.375-0.109,2.345-0.119,2.949,1.512
		c0.229,0.617,0.221,2.021-0.176,2.801c0.365,1.169-0.25,2.961,1.387,2.961c0.512,0,1.115,0.089,1.219,0.596
		c0.465,2.281-2.092,1.035-1.738,2.767c0.047,0.233,1.867,1.837,2.102-0.255c0.239-2.139,0.977-1.736,0.932-2.828
		c-0.046-1.09-2.353-1.026-2.732-1.51c-0.381-0.484,0.152-1.48,1.526-1.883s1.581,0.67,1.857-0.094
		c0.276-0.762-1.11-1.17-1.686-2.28c-0.575-1.111,1.37-0.443,1.106-1.671c-0.266-1.229-2.479-1.418-3.375-2.491
		s-0.201-2.089,1.057-2.802c1.257-0.715,2.754,0.29,3.786,1.145s0.308,1.953,1.228,2.537c0.92,0.583,1.394-0.676,2.938-0.584
		c3.352,0.2,1.663,1.414,3.265,2.271c1.339,0.715,3.206,0.943,3.546,1.303C146.787,84.898,152.51,80.297,152.203,87.248z
		 M165.137,14.477c0.58,0.027,0.585,0.023,0.882,0.619c0.182,0.367,0.017,1.06-0.128,1.411c-0.266,0.643,0.549,0.065,0.906,0.951
		c0.17,0.419,0.24,0.663-0.188,0.867c-0.407,0.195-1.462,0.234-1.685-0.211c-0.286-0.568,0.61-1.385-0.048-1.461
		c-0.396-0.046-0.508-1.2-0.66-1.369C164.217,14.875,164.595,14.452,165.137,14.477z M7.098,14.51
		c-0.236,0.213-0.875,0.228-1.157,0.007s-0.236-0.35-0.374-0.7c-0.391-1,0.219-1.291,0.998-0.967
		c0.456,0.191,0.327,0.594,0.555,0.785C7.35,13.825,7.334,14.297,7.098,14.51z M12.428,29.151c-0.756,0.359-2.71,0.433-3.124-0.393
		c-0.527-1.052,1.132-2.567-0.087-2.708c-0.735-0.085-0.94-2.223-1.225-2.538c0-0.755,0.702-1.541,1.706-1.494
		c1.076,0.05,1.085,0.042,1.634,1.147c0.338,0.68,0.031,1.964-0.238,2.615c-0.492,1.191,1.018,0.12,1.681,1.762
		C13.089,28.321,13.22,28.774,12.428,29.151z M161.374,70.241c0,2.092-0.14,2.789-1.116,3.347c-0.976,0.558-1.743,0.872-2.092-0.698
		c-0.107-0.484,0.635-1.25,0.816-2.01c0.57-2.386-1.523-2.916-1.512-2.49c0.073,2.872-3.176,2.853-3.732,2.617
		c-0.906-0.383-0.697-0.977-1.255-0.592c-0.557,0.383-1.533,1.046-1.882,0.14c-0.349-0.907-1.082-1.255-0.488-2.197
		c0.592-0.941,0.14-0.802,0.14-1.743s0.905-1.325,0.558-1.778c-0.35-0.453-2.092,0.383-2.371-0.313
		c-1.105-2.763,1.969-3.52,2.895-2.44c0.627,0.731,0.104,1.568,0.627,2.475c0.522,0.907,1.499,0.628,1.221,1.883
		c-0.279,1.255-0.977,2.231-0.488,2.336s1.568-0.628,2.439-0.872c0.872-0.244,1.953-0.313,1.256-1.011
		c-0.697-0.697-2.058-1.395-1.744-2.301c0.314-0.906,1.5-2.231,3.383-0.906s0.452,1.952,1.15,3.416
		C159.945,68.777,161.374,68.149,161.374,70.241z M139.816,67.284c-0.768,0.523-3.242,0.418-3.939-0.244
		c-0.697-0.662-1.186-1.498-0.35-2.266c0.838-0.767,1.744-1.15,2.545-0.732c0.803,0.418,1.326,0.906,1.675,0.453
		c0.349-0.453-0.314-1.674,0.592-1.847c0.907-0.175,1.22-0.104,1.22-0.593c0-1.532,0.738-3.24,2.512-2.405
		c2.396,1.128,1.1,4.559-0.232,4.502c-1.105,0.01-1.228-0.063-1.303,1.041c-0.115,0.867-1.833,1.028-2.126,0.906
		C139.99,65.925,140.584,66.761,139.816,67.284z M125.612,42.82c-0.079,0.904-1.602,1.272-2.366,0.76
		c-1.493-1-0.357-3.15-2.818-2.665c-1.516,0.299-1.617-3.475,0.254-3.538c0.647-0.021,1.033-0.521,1.418-0.956
		c0.625-0.708,3.355-1.588,3.921-0.401c0.56,1.174-0.62,2.103-1.179,3.204C124.234,40.421,125.744,41.292,125.612,42.82z
		 M121.805,66.928c-2.453-0.244-0.665-2.769-1.246-3.765c-0.398-0.682-1.67-0.265-1.529-0.95c0.709-3.481-1.932-1.179-1.932-4.127
		c0-1.895,1.797-1.157,1.621-4.04c-0.112-1.853,2.519-1.243,2.916-0.444c0.727,1.463-1.387,2.333-1.037,3.024
		c0.871,1.727-1.41,3.243,1.441,3.041c0.615-0.044,1.183-0.38,1.544,0.054c1.866,2.239,0.28,2.741-0.019,3.529
		C123.553,63.282,124.617,67.208,121.805,66.928z M121.518,49.858c-1.868-0.293-0.131,2.03-2.102,2.498
		c-2.838,0.675-0.995-2.068-4.895-1.956c-1.732,0.05-0.863-4.549,2.687-3.325c3.255,1.122,5.823-1.329,7.2,0.25
		C125.753,48.862,125.232,50.441,121.518,49.858z M139.002,39.324c1.898,2.55,2.49-0.555,5.24,0.006
		c1.129,0.23,1.338,2.162,0.756,2.809c-1.66,1.846-1.936,0.707-2.77,0.356c-2.287-0.961-2.135,0.617-1.141,2.019
		c1.219,1.718-0.324,3.991-1.061,4.233c-2.191,0.718-1.501-1.839-1.853-3.014c-0.624-2.085-2.155-2.6-3.912-1.81
		c-0.502,0.226-2.288-0.537-1.169-1.651c1.016-1.011,4.409,0.267,3.027-2.209c-0.59-1.056-2.764,0.5-3.697,0.775
		c-1.355,0.399-1.76-0.39-1.76-1.499C130.664,36.25,138.634,38.829,139.002,39.324z M138.762,32.722
		c2.082,0.71,1.982-0.821,3.172-1.885c1.266-0.754,2.869,0.379,3.221,1.42c0.669,1.167-0.004,3.365-1.192,3.302
		c-1.354-0.072-2.479-1.753-3.081,0.833C139.602,41.879,135.093,31.471,138.762,32.722z M131.076,44.429
		c1.953,0.048,2.016,1.352,1.943,1.98c-0.215,1.875-1.993,0.662-2.988,1.969c-1.008,1.526-3.063,1.482-2.781-0.49
		c0.146-1.03-0.736-0.711-1.08-1.792C125.826,45.018,129.114,44.38,131.076,44.429z M125.846,53.179
		c0.433-0.776,0.849-1.155,1.998-0.857c1.148,0.298,1.191,1.301,1.372,1.762c0.181,0.462,0.794,1.063,1.274,0.705
		c0.482-0.357-0.107-0.915,1.262-0.729c0.249,0.033,3.842,0.955,2.781-0.788c-0.569-0.937-1.961-2.661,0.123-3.22
		c0.683-0.183,1.479-0.951,2.453-0.564c2.094,0.833,2.32,3.033,1.203,4.753c-0.854,1.313-2.031,0.252-2.479,1.246
		c-0.389,0.864-1.262,1.754-2.084,2.259c-0.822,0.503-1.336,0.96-2.53,0.575s-2.06-0.884-2.086-1.369
		c-0.026-0.485-0.231-1.101-0.587-1.472c-0.357-0.372-0.893,0.042-1.656-0.204C126.127,55.028,125.411,53.955,125.846,53.179z
		 M128.189,58.604c0.557,0.523,0.243,1.185,0.906,1.046c0.662-0.14,1.08-0.209,1.986,0.208c0.907,0.418,0.837,1.326,1.115,1.604
		c0.279,0.278,0.906-0.245,1.848,0c0.941,0.244,1.291,1.186,1.221,1.499c-0.069,0.314-0.174,1.255-1.254,1.046
		c-1.081-0.209-1.151-0.697-1.814-0.872c-0.662-0.174-0.697,0.977-1.498,0.837c-0.803-0.139-1.186-0.628-1.36-1.116
		c-0.174-0.488-0.069-1.36-0.906-1.499c-0.837-0.14-1.255,0.558-1.708,0.035C124.559,58.893,127.35,57.817,128.189,58.604z
		 M145.607,56.554c0.314-0.732-0.313-0.941-1.186-0.837c-0.871,0.104-0.559,0.558-1.289,1.081c-0.732,0.523-0.523,0.069-1.43,0.384
		c-0.906,0.314-0.244,0.697-0.628,1.324c-0.384,0.628-0.837,0.489-1.116,0.941c-0.277,0.454,0.053,1.604-0.33,2.057
		c-0.377,0.444-2.909,0.868-2.477-1.447c0.105-0.557,0.732-0.697,1.36-0.906c0.628-0.209,0.558-0.767,0.313-1.604
		c-0.243-0.837-0.068-1.464,0.176-1.987c0.243-0.522,1.533-0.104,2.266-0.349c0.731-0.244,0.174-0.906,0.592-1.848
		c0.418-0.941,1.081-0.173,1.709-0.731c0.627-0.558-0.104-0.349-0.244-1.534c-0.141-1.185,1.568-1.534,2.615-1.464
		c1.045,0.07,0.871,0.663,1.01,1.29c0.14,0.628-0.174,1.047,0.21,1.778c0.384,0.732,0.627-0.104,1.639,0
		c1.011,0.104,0.924,0.401,1.097,0.541c0.176,0.139,0.176,0.628,0.07,1.395c-0.104,0.767-0.453,0.906-0.941,1.254
		c-0.487,0.349-1.498-0.732-1.986-0.697c-0.488,0.034-0.383,0.663-0.104,0.941s0.94-0.035,1.464,0.592
		c0.523,0.628-0.105,0.837-0.558,1.569c-0.454,0.731-1.569,0.453-2.161,0.14C145.084,58.123,145.294,57.286,145.607,56.554z
		 M154.104,45.474c-0.511-0.428-1.428,0.245-2.061-0.448c-0.632-0.694-0.428-0.613-0.816-1.51c-0.293-0.682-0.336-2.135,1.144-2.367
		c1.593-0.249,2.468,0.776,2.896,1.469c0.428,0.694,0.796,1.815,0.938,2.631c0.144,0.817,0.552,0.775,1.348,1.265
		c0.795,0.49,0.633,2.285-0.144,2.692c-0.774,0.409-1.061,0.449-1.591,1.347c-0.53,0.897-1.713,1.386-2.896,0.897
		c-1.182-0.49-1.509-2.162-1.795-2.447c-0.285-0.286-1.101,0.163-1.835-0.612s-0.326-1.631-0.651-2.407
		c-0.328-0.775-1.592-0.815-2.204-1.346c-0.611-0.53-0.347-1.366-0.347-1.366c0.673-1.082,1.121-1.448,1.958-1.265
		c0.836,0.183,1.856,0.428,1.856,1.122s0.08,1.611,0.488,2.121c0.408,0.51,0.98,0.429,1.53,0.939c0.551,0.51,0.53,1.244,0.897,1.631
		c0.367,0.388,0.897,0.795,1.407,0.368C154.736,47.758,154.613,45.902,154.104,45.474z M157.16,58.22
		c-0.051,1.203-1.464,2.353-2.179,2.527c-0.714,0.175-0.628,0.662-1.464,0.89c-0.836,0.227-1.97,0.139-2.214-0.872
		c-0.243-1.011,0.104-1.255,0.104-1.255c0.244-0.802,0.889-0.47,1.5-1.132c0.609-0.663,0.609-1.5,1.516-1.691
		C155.33,56.494,157.213,57.017,157.16,58.22z M149.463,37.199c-0.455,0.064-0.682,0.145-0.768,0.613
		c-0.061,0.326-0.201,0.961-0.455,1.381c-0.556,0.912-1.912,0.146-2.189-0.31c-0.268-0.442-0.499-1.566,0.291-2.043
		c0.363-0.219,0.813-0.333,1.237-0.245c0.332,0.068,0.158-0.037,0.456-0.778C149.334,32.583,151.466,36.915,149.463,37.199z
		 M159.076,56.39c-0.54,0.488-2.004,0.523-2.648,0.018c-0.646-0.506-0.541-0.803-0.855-1.604c-0.895-2.288,0.501-2.956,2.283-2.213
		c1.047,0.435,0.751,1.36,1.273,1.796C159.652,54.82,159.617,55.901,159.076,56.39z M167.812,50.637
		c1.36,0.209,1.499,1.882,1.22,2.511c-0.278,0.627-1.639,0.906-2.196,0.523s-1.079-0.558-1.533-0.035s-1.639,1.673-2.72,1.568
		c-1.08-0.104-2.44-0.174-2.963-1.673c-1.018-2.917,0.889-3.909,3.313-2.894c1.08,0.454,1.604,1.326,2.405,0.942
		C166.139,51.194,166.451,50.428,167.812,50.637z M162.32,42.41c1.77-4.409,4.676,1.496,1.947,1.882
		c-0.622,0.088-0.93,0.197-1.049,0.835c-0.082,0.445-0.271,1.311-0.62,1.882c-0.757,1.243-2.604,0.2-2.983-0.421
		c-0.366-0.603-0.68-2.134,0.398-2.786c0.492-0.298,1.105-0.453,1.686-0.333C162.15,43.563,161.914,43.42,162.32,42.41z
		 M162.001,36.936c0,2.009-0.134,2.679-1.071,3.215c-0.938,0.536-1.675,0.837-2.01-0.67c-0.104-0.465,0.609-1.2,0.785-1.931
		c0.545-2.292-1.465-2.8-1.455-2.392c0.072,2.758-3.048,2.741-3.582,2.515c-0.871-0.369-0.67-0.938-1.205-0.569
		c-0.537,0.368-1.474,1.004-1.809,0.133c-0.336-0.871-1.039-1.205-0.469-2.109c0.569-0.905,0.133-0.771,0.133-1.675
		c0-0.904,0.871-1.272,0.537-1.708c-0.336-0.435-2.01,0.369-2.277-0.301c-1.061-2.654,1.891-3.38,2.779-2.345
		c0.604,0.704,0.1,1.507,0.604,2.378c0.501,0.871,1.438,0.602,1.17,1.808c-0.268,1.206-0.938,2.143-0.468,2.244
		c0.468,0.101,1.507-0.603,2.344-0.837c0.837-0.234,1.875-0.301,1.206-0.971c-0.67-0.67-1.977-1.34-1.674-2.21
		c0.301-0.87,1.439-2.143,3.247-0.87c1.808,1.272,0.436,1.875,1.104,3.281C160.629,35.529,162.001,34.926,162.001,36.936z
		 M160.873,29.151c-0.756,0.359-2.711,0.433-3.124-0.393c-0.527-1.052,1.132-2.567-0.087-2.708c-0.735-0.085-0.94-2.223-1.225-2.538
		c0-0.755,0.701-1.541,1.705-1.494c1.076,0.05,1.086,0.042,1.635,1.147c0.338,0.68,0.031,1.964-0.238,2.615
		c-0.492,1.191,1.018,0.12,1.682,1.762C161.533,28.321,161.664,28.774,160.873,29.151z M157.945,5.3
		c0.26-0.086,0.779-0.199,0.975,0.062c0.275,0.366,0.45-0.095,0.771-0.194c0.629-0.192,0.53,0.41,0.638,0.685
		c0.175,0.452-0.005,0.155,0.606,0.155c0.533,0,0.596,1.598-0.273,1.208c-0.137-0.061-0.254-0.735-0.395-0.675
		c-0.568,0.245-0.766-0.149-0.936-0.028c-0.187,0.133,0.155,0.737-0.139,1.358c-0.116,0.246-0.295,0.206-0.547,0.214
		c-0.368,0.013-0.066-0.817-0.395-0.988c-0.652-0.34-0.366-0.433-0.486-0.963C157.773,6.163,157.578,5.421,157.945,5.3z
		 M155.01,12.851c0.457,0.191,0.328,0.594,0.557,0.785c0.229,0.189,0.213,0.661-0.023,0.875s-0.875,0.228-1.157,0.007
		c-0.28-0.221-0.235-0.35-0.372-0.7C153.621,12.818,154.231,12.526,155.01,12.851z M156.107,16.877
		c1.354-0.166,1.479-0.879,2.29-0.474c0.376,0.188,0.085,1.382,0.481,1.3c0.396-0.081,0.491-1.265,1.096-1.156
		c0.604,0.108,0.773,0.316,0.793,0.622c0.018,0.307,0.025,0.685-0.531,0.928c-0.56,0.243-0.677,0.451-0.983,0.694
		c-0.505,0.401-1.499,0.443-1.415-0.307c0.046-0.396,0.189-0.423,0.199-0.675c0.008-0.252-0.001-0.271-0.441-0.189
		c-0.16,0.03-1.482-0.039-2.299,0.304c-0.507,0.212-0.454,0.875-0.915,0.934c-1.024,0.132-1.467-0.583-1.502-0.758
		C152.787,17.632,154.387,17.088,156.107,16.877z M152.028,22.14c0.669-0.456,1.451-0.159,1.61,0.057
		c0.158,0.216,0.691,0.798-0.033,1.362c-0.725,0.563-1.068,0.339-1.541,0.659c-0.473,0.319,0.229,0.974-0.299,1.399
		c-0.527,0.427-1.043,0.399-1.445,0.241c-0.402-0.159-0.892-0.703-1.438-0.254c-0.547,0.448-0.339,1.093-0.915,1.09
		c-2.758-0.012-1.901-2.354-0.946-2.449c0.634-0.063,0.878,0.497,1.153,0.005c0.275-0.493,0.461-0.792,1.222-1.132
		c0.761-0.339,1.29,0.202,1.618,0.181C151.342,23.277,151.358,22.596,152.028,22.14z M150.955,13.442
		c0.498,0.102,0.591,0.955,0.333,1.241c-0.733,0.816-0.854,0.312-1.224,0.158c-1.01-0.425-0.942,0.273-0.504,0.892
		c0.539,0.759-0.143,1.764-0.469,1.87c-0.967,0.317-0.662-0.812-0.816-1.331c-0.277-0.921-0.953-1.148-1.729-0.799
		c-0.223,0.1-1.011-0.238-0.517-0.73c0.448-0.446,1.947,0.118,1.337-0.976c-0.26-0.466-1.221,0.221-1.633,0.342
		c-0.598,0.177-0.777-0.172-0.777-0.661c0-1.365,3.52-0.226,3.683-0.008C149.479,14.567,149.74,13.195,150.955,13.442z
		 M146.02,9.014c0.549,0.013,0.564,0.378,0.545,0.555c-0.061,0.525-0.559,0.186-0.838,0.551c-0.282,0.429-0.859,0.416-0.779-0.138
		c0.041-0.288-0.207-0.199-0.304-0.501S145.47,9,146.02,9.014z M140.725,16.828c0.666-0.814,2.215,0.733,2.404,0.955
		c0.225,0.262,0.037,0.563,0.225,0.889c0.188,0.325,0.539,0.226,0.438,0.676c-0.1,0.451-0.351,0.801-0.175,0.839
		c0.175,0.037,0.563-0.226,0.877-0.313c0.313-0.087,0.7-0.113,0.449-0.363c-0.25-0.25-0.738-0.501-0.625-0.827
		c0.113-0.325,0.539-0.801,1.214-0.325c0.677,0.476,0.163,0.701,0.414,1.227c0.274,0.602,0.788,0.376,0.788,1.127
		s-0.051,1.001-0.4,1.202c-0.352,0.201-0.626,0.313-0.751-0.25c-0.038-0.174,0.228-0.449,0.293-0.722
		c0.204-0.857-0.548-1.047-0.543-0.894c0.026,1.031-1.14,1.024-1.341,0.939c-0.325-0.138-0.25-0.35-0.451-0.212
		c-0.199,0.138-0.55,0.375-0.675,0.05c-0.126-0.326-0.389-0.451-0.175-0.789c0.212-0.338,0.049-0.287,0.049-0.626
		c0-0.337,0.326-0.475,0.201-0.639c-0.126-0.163-0.752,0.138-0.852-0.112c-0.063-0.156,0.311-1.084-0.042-1.21
		C141.324,17.188,140.621,16.956,140.725,16.828z M139.932,26.447c1.124,0.383,1.07-0.443,1.713-1.018
		c0.682-0.406,1.547,0.205,1.737,0.767c0.361,0.63-0.003,1.816-0.644,1.782c-0.73-0.039-1.338-0.946-1.663,0.45
		C140.385,31.388,137.952,25.772,139.932,26.447z M137.5,21.395c-0.265-0.624,0.009-0.843,0.551-1.057
		c1.084-0.429,1.843,1.491,0.482,1.739c-0.722,0.132-0.135,0.916-0.616,1.331c-1.147,0.991-2.339-0.775-1.245-1.129
		C137.127,22.131,137.766,22.022,137.5,21.395z M134.902,12.005c0.224,0.199,0.102,0.52,0.384,0.461
		c0.282-0.057,0.309-0.436,0.737-0.358c0.43,0.077,0.551,0.224,0.563,0.442c0.014,0.218,0.02,0.487-0.377,0.661
		c-0.397,0.172-0.48,0.32-0.699,0.493c-0.358,0.285-1.065,0.315-1.006-0.218c0.033-0.282,0.135-0.301,0.143-0.48
		c0.006-0.18,0-0.192-0.314-0.135C133.522,13.019,134.268,11.443,134.902,12.005z M133.666,17.596
		c0.838,1.127,1.1-0.245,2.314,0.003c0.499,0.102,0.59,0.955,0.334,1.24c-0.734,0.816-0.855,0.313-1.223,0.158
		c-1.012-0.425-0.945,0.272-0.505,0.892c0.538,0.759-0.144,1.763-0.47,1.871c-0.967,0.317-0.661-0.813-0.817-1.333
		c-0.276-0.921-0.952-1.148-1.728-0.799c-0.223,0.1-1.012-0.236-0.518-0.729c0.449-0.447,1.949,0.118,1.338-0.976
		c-0.26-0.467-1.221,0.221-1.633,0.342c-0.599,0.176-0.777-0.172-0.777-0.662C129.982,16.239,133.503,17.378,133.666,17.596z
		 M132.477,26.011c-0.235,0.213-0.875,0.228-1.156,0.008c-0.281-0.221-0.236-0.351-0.373-0.701c-0.391-1,0.219-1.291,0.998-0.966
		c0.455,0.19,0.326,0.594,0.555,0.784C132.729,25.327,132.713,25.799,132.477,26.011z M130.238,32.752
		c0.213-0.285-0.216-0.502,0.594-0.626c0.147-0.023,2.344-0.103,1.448-0.915c-0.481-0.437-1.562-1.184-0.472-1.851
		c0.357-0.219,0.682-0.79,1.301-0.733c1.328,0.121,1.828,1.333,1.48,2.498c-0.264,0.891-1.111,0.485-1.198,1.125
		c-0.076,0.556-0.423,1.209-0.805,1.634c-0.383,0.424-0.598,0.771-1.341,0.752c-0.744-0.019-1.32-0.156-1.416-0.427
		c-0.097-0.271-0.316-0.586-0.582-0.738c-0.264-0.151-0.5,0.174-0.975,0.162c-0.476-0.011-1.063-0.501-0.946-1.015
		s0.288-0.799,0.991-0.823c0.703-0.024,0.896,0.539,1.076,0.771C129.575,32.797,130.024,33.035,130.238,32.752z M125.107,9.185
		c0.258,0.299,0.043,0.642,0.258,1.013c0.213,0.371,0.612,0.257,0.498,0.77c-0.114,0.514-0.398,0.914-0.199,0.956
		s0.643-0.257,0.998-0.356c0.357-0.1,0.799-0.128,0.514-0.414c-0.285-0.285-0.842-0.57-0.713-0.941
		c0.128-0.37,0.613-0.913,1.383-0.371c0.771,0.542,0.186,0.799,0.472,1.398c0.313,0.685,0.897,0.428,0.897,1.283
		c0,0.856-0.057,1.141-0.456,1.369c-0.399,0.229-0.714,0.357-0.855-0.285c-0.044-0.199,0.26-0.512,0.333-0.823
		c0.233-0.975-0.623-1.192-0.619-1.018c0.031,1.175-1.298,1.167-1.525,1.071c-0.371-0.157-0.285-0.399-0.514-0.242
		c-0.229,0.156-0.627,0.428-0.771,0.056c-0.142-0.371-0.441-0.514-0.199-0.898c0.243-0.385,0.058-0.329,0.058-0.714
		c0-0.385,0.37-0.542,0.228-0.727c-0.142-0.186-0.856,0.157-0.97-0.128C123.473,9.054,124.729,8.744,125.107,9.185z M123.311,22.528
		c0.046-0.249,0.328-0.312,0.608-0.405c0.281-0.094,0.249-0.344,0.141-0.718c-0.108-0.375-0.031-0.656,0.077-0.891
		c0.11-0.233,0.688-0.046,1.016-0.155c0.327-0.11,0.078-0.406,0.266-0.828c0.188-0.421,0.483-0.079,0.765-0.328
		c0.28-0.25-0.048-0.156-0.109-0.688c-0.063-0.53,0.702-0.687,1.171-0.655c0.468,0.031,0.39,0.296,0.452,0.577
		c0.063,0.281-0.077,0.468,0.093,0.796c0.172,0.328,0.281-0.047,0.734,0s0.414,0.179,0.492,0.242
		c0.078,0.062,0.078,0.281,0.031,0.625c-0.047,0.342-0.203,0.405-0.422,0.562s-0.671-0.328-0.89-0.313
		c-0.218,0.016-0.171,0.297-0.046,0.421c0.125,0.125,0.421-0.015,0.654,0.265c0.234,0.282-0.047,0.375-0.249,0.703
		c-0.204,0.328-0.702,0.203-0.968,0.063c-0.266-0.141-0.172-0.515-0.031-0.843s-0.141-0.421-0.531-0.374
		c-0.39,0.046-0.25,0.25-0.577,0.483c-0.327,0.235-0.234,0.032-0.64,0.172c-0.406,0.141-0.109,0.313-0.281,0.593
		c-0.172,0.282-0.375,0.219-0.5,0.421c-0.125,0.204,0.023,0.719-0.148,0.922C124.25,23.375,123.116,23.565,123.311,22.528z
		 M122.41,30.67c0.844-0.273,2.029-0.475,1.535-1.639c-0.49-1.156,0.017-1.563,1.021-1.958c2.011-0.794,3.416,2.764,0.894,3.224
		c-1.337,0.244-0.248,1.696-1.141,2.467C122.592,34.6,120.383,31.327,122.41,30.67z M120.773,15.389
		c0.234,0.493-0.26,0.881-0.494,1.343c-0.256,0.501,0.378,0.868,0.322,1.508c-0.033,0.379-0.672,0.533-0.992,0.318
		c-0.626-0.419-0.148-1.32-1.182-1.117c-0.636,0.125-0.678-1.458,0.107-1.483c0.271-0.009,0.433-0.219,0.594-0.401
		C119.391,15.26,120.537,14.891,120.773,15.389z M116.932,7.05c0.285-0.009,0.455-0.23,0.627-0.422
		c0.275-0.313,1.481-0.701,1.73-0.177c0.248,0.519-0.273,0.929-0.52,1.415c-0.27,0.529,0.398,0.914,0.34,1.589
		c-0.034,0.4-0.707,0.562-1.045,0.335c-0.66-0.441-0.157-1.391-1.245-1.177C116.149,8.745,116.105,7.078,116.932,7.05z
		 M114.813,12.901c0.862,0.021,0.89,0.597,0.857,0.874c-0.094,0.829-0.879,0.293-1.32,0.87c-0.443,0.674-1.352,0.655-1.229-0.216
		c0.066-0.456-0.324-0.314-0.477-0.792C112.493,13.161,113.945,12.879,114.813,12.901z M107.762,8.375
		c0.309,0.008,0.318,0.214,0.308,0.313c-0.034,0.296-0.315,0.105-0.474,0.311c-0.158,0.242-0.483,0.235-0.439-0.078
		c0.023-0.163-0.115-0.112-0.17-0.283S107.451,8.368,107.762,8.375z M106.133,14.449c0.259-0.086,0.778-0.198,0.975,0.062
		c0.273,0.365,0.448-0.096,0.771-0.194c0.63-0.193,0.53,0.41,0.638,0.685c0.176,0.452-0.005,0.155,0.605,0.155
		c0.534,0,0.596,1.598-0.271,1.208c-0.137-0.062-0.254-0.736-0.395-0.675c-0.569,0.245-0.766-0.149-0.936-0.029
		c-0.188,0.133,0.154,0.737-0.139,1.357c-0.117,0.247-0.297,0.206-0.549,0.215c-0.367,0.012-0.066-0.817-0.395-0.987
		c-0.652-0.34-0.365-0.433-0.485-0.964C105.959,15.313,105.765,14.571,106.133,14.449z M103.524,30.417
		c0.324-0.421-0.292-1.558,0.552-1.719c0.844-0.163,1.135-0.098,1.135-0.552c0-1.425,0.686-3.014,2.336-2.238
		c2.23,1.05,1.023,4.242-0.215,4.189c-1.029,0.01-1.143-0.058-1.213,0.969c-0.107,0.807-1.706,0.957-1.979,0.843
		c-0.39-0.162,0.162,0.617-0.551,1.103c-0.715,0.487-3.018,0.39-3.666-0.227c-0.649-0.616-1.104-1.394-0.325-2.108
		c0.778-0.714,1.622-1.07,2.368-0.681C102.713,30.385,103.199,30.839,103.524,30.417z M100.479,21.341
		c0.338-0.011,0.539-0.272,0.74-0.499c0.326-0.37,1.752-0.83,2.047-0.209c0.291,0.613-0.323,1.097-0.615,1.671
		c-0.317,0.625,0.471,1.081,0.402,1.878c-0.041,0.472-0.836,0.664-1.235,0.396c-0.78-0.521-0.187-1.643-1.472-1.39
		C99.555,23.344,99.502,21.374,100.479,21.341z M99.447,12.764c0.668,0.018,0.689,0.463,0.665,0.679
		c-0.073,0.642-0.683,0.227-1.023,0.674c-0.345,0.523-1.049,0.507-0.952-0.168c0.051-0.353-0.252-0.244-0.37-0.613
		C97.649,12.966,98.774,12.747,99.447,12.764z M99.849,34.383c0.114,0.995-0.249,1.915-3.035,1.915
		c-0.979,0-0.906-0.786-2.375-0.419c-1.469,0.367-1.337,1.316-3.173,2.5c-1.517,0.977-3.765-1.093-2.158-3.465
		c0.78-1.152,3.32-3.041,4.605-1.756c0.611,0.611,1.143,0.041,3.346-0.449C99.061,32.263,99.731,33.358,99.849,34.383z
		 M95.199,24.936c0.397,1.021-0.01,0.351,1.373,0.351c1.209,0,1.348,3.618-0.617,2.736c-0.311-0.14-0.577-1.667-0.895-1.53
		c-1.287,0.555-1.733-0.339-2.117-0.064c-0.423,0.301,0.352,1.668-0.313,3.073c-0.265,0.557-0.671,0.467-1.241,0.486
		c-0.832,0.029-0.15-1.849-0.891-2.235c-1.478-0.77-0.83-0.98-1.101-2.182c0.016,0.07-0.424-1.609,0.407-1.884
		c0.589-0.195,1.764-0.45,2.207,0.14c0.622,0.827,1.017-0.217,1.745-0.44C95.182,22.951,94.957,24.315,95.199,24.936z
		 M91.872,15.096c0.183,0.367,0.017,1.06-0.128,1.411c-0.266,0.643,0.549,0.065,0.906,0.951c0.17,0.419,0.24,0.663-0.186,0.867
		c-0.408,0.195-1.464,0.234-1.687-0.211c-0.285-0.568,0.61-1.385-0.047-1.461c-0.397-0.046-0.507-1.2-0.662-1.369
		c0-0.409,0.379-0.832,0.92-0.807C91.571,14.504,91.576,14.5,91.872,15.096z M89.163,9.642c0.206,0.184,0.094,0.479,0.354,0.426
		c0.261-0.053,0.285-0.402,0.68-0.331c0.396,0.071,0.508,0.207,0.52,0.407c0.012,0.202,0.018,0.449-0.349,0.609
		c-0.367,0.16-0.443,0.295-0.645,0.456c-0.331,0.263-0.983,0.29-0.928-0.202c0.03-0.259,0.124-0.277,0.13-0.443
		c0.006-0.165,0-0.177-0.29-0.124C87.89,10.577,88.577,9.124,89.163,9.642z M90.121,44.292c-0.622,0.088-0.929,0.197-1.047,0.835
		c-0.082,0.445-0.272,1.311-0.621,1.882c-0.757,1.243-2.604,0.2-2.982-0.421c-0.368-0.603-0.682-2.134,0.396-2.786
		c0.494-0.298,1.107-0.453,1.686-0.333c0.452,0.094,0.215-0.049,0.621-1.06C89.943,38,92.85,43.905,90.121,44.292z M87.855,36.936
		c0,2.009-0.134,2.679-1.072,3.215c-0.938,0.536-1.674,0.837-2.009-0.67c-0.104-0.465,0.61-1.2,0.785-1.931
		c0.546-2.292-1.464-2.8-1.454-2.392c0.071,2.758-3.048,2.741-3.583,2.515c-0.871-0.369-0.67-0.938-1.206-0.569
		c-0.537,0.368-1.473,1.004-1.809,0.133c-0.334-0.871-1.038-1.205-0.468-2.109c0.569-0.905,0.134-0.771,0.134-1.675
		c0-0.904,0.87-1.272,0.536-1.708c-0.335-0.435-2.009,0.369-2.277-0.301c-1.062-2.654,1.891-3.38,2.779-2.345
		c0.603,0.704,0.101,1.507,0.603,2.378c0.501,0.871,1.439,0.602,1.171,1.808s-0.937,2.143-0.468,2.244
		c0.468,0.101,1.506-0.603,2.343-0.837c0.837-0.234,1.875-0.301,1.206-0.971c-0.669-0.67-1.975-1.34-1.674-2.21
		c0.301-0.87,1.44-2.143,3.248-0.87c1.808,1.272,0.435,1.875,1.105,3.281C86.482,35.529,87.855,34.926,87.855,36.936z M78.774,51.45
		c-1.183-0.49-1.51-2.162-1.795-2.447c-0.286-0.286-1.101,0.163-1.835-0.612s-0.326-1.631-0.652-2.407
		c-0.327-0.775-1.592-0.815-2.203-1.346s-0.347-1.366-0.347-1.366c0.673-1.082,1.122-1.448,1.958-1.265
		c0.836,0.183,1.856,0.428,1.856,1.122s0.082,1.611,0.49,2.121c0.408,0.51,0.979,0.429,1.53,0.939c0.55,0.51,0.53,1.244,0.897,1.631
		c0.368,0.388,0.898,0.795,1.408,0.368c0.51-0.429,0.387-2.285-0.123-2.713c-0.51-0.428-1.427,0.245-2.06-0.448
		c-0.632-0.694-0.428-0.613-0.816-1.51c-0.294-0.682-0.337-2.135,1.143-2.367c1.594-0.249,2.467,0.776,2.896,1.469
		c0.429,0.694,0.795,1.815,0.938,2.631c0.143,0.817,0.551,0.775,1.346,1.265c0.795,0.49,0.633,2.285-0.143,2.692
		c-0.775,0.409-1.061,0.449-1.591,1.347C81.14,51.45,79.958,51.939,78.774,51.45z M83.014,58.22
		c-0.052,1.203-1.464,2.353-2.178,2.527c-0.715,0.175-0.628,0.662-1.464,0.89c-0.837,0.227-1.971,0.139-2.214-0.872
		s0.104-1.255,0.104-1.255c0.244-0.802,0.89-0.47,1.499-1.132c0.611-0.663,0.611-1.5,1.517-1.691
		C81.185,56.494,83.067,57.017,83.014,58.22z M72.787,56.136c0.278,0.279,0.941-0.035,1.464,0.592
		c0.523,0.628-0.104,0.837-0.558,1.569c-0.454,0.731-1.57,0.453-2.162,0.14c-0.593-0.314-0.383-1.151-0.069-1.883
		c0.313-0.732-0.314-0.941-1.186-0.837c-0.871,0.104-0.557,0.558-1.29,1.081c-0.733,0.523-0.523,0.069-1.429,0.384
		c-0.907,0.314-0.245,0.697-0.628,1.324c-0.384,0.628-0.837,0.489-1.116,0.941c-0.278,0.454,0.053,1.604-0.331,2.057
		c-0.376,0.444-2.909,0.868-2.475-1.447c0.104-0.557,0.731-0.697,1.359-0.906c0.628-0.209,0.558-0.767,0.314-1.604
		c-0.244-0.837-0.069-1.464,0.174-1.987c0.244-0.522,1.534-0.104,2.266-0.349c0.731-0.244,0.175-0.906,0.592-1.848
		c0.418-0.941,1.082-0.173,1.709-0.731c0.627-0.558-0.104-0.349-0.244-1.534c-0.139-1.185,1.569-1.534,2.614-1.464
		c1.046,0.07,0.872,0.663,1.011,1.29c0.14,0.628-0.174,1.047,0.209,1.778c0.383,0.732,0.627-0.104,1.639,0
		c1.011,0.104,0.924,0.401,1.099,0.541c0.174,0.139,0.174,0.628,0.069,1.395c-0.104,0.767-0.454,0.906-0.941,1.254
		c-0.488,0.349-1.5-0.732-1.987-0.697C72.403,55.229,72.507,55.857,72.787,56.136z M65.67,67.284
		c-0.767,0.523-3.242,0.418-3.939-0.244c-0.697-0.662-1.185-1.498-0.348-2.266c0.836-0.767,1.742-1.15,2.545-0.732
		c0.802,0.418,1.325,0.906,1.673,0.453c0.348-0.453-0.314-1.674,0.593-1.847c0.906-0.175,1.22-0.104,1.22-0.593
		c0-1.532,0.736-3.24,2.51-2.405c2.397,1.128,1.1,4.559-0.232,4.502c-1.105,0.01-1.228-0.063-1.302,1.041
		c-0.116,0.867-1.834,1.028-2.126,0.906C65.845,65.925,66.438,66.761,65.67,67.284z M64.856,39.324
		c1.897,2.55,2.491-0.555,5.241,0.006c1.129,0.23,1.337,2.162,0.755,2.809c-1.661,1.846-1.936,0.707-2.77,0.356
		c-2.287-0.961-2.135,0.617-1.142,2.019c1.219,1.718-0.324,3.991-1.061,4.233c-2.191,0.718-1.499-1.839-1.851-3.014
		c-0.625-2.085-2.155-2.6-3.913-1.81c-0.501,0.226-2.287-0.537-1.168-1.651c1.015-1.011,4.409,0.267,3.027-2.209
		c-0.589-1.056-2.764,0.5-3.698,0.775c-1.353,0.399-1.759-0.39-1.759-1.499C56.518,36.25,64.487,38.829,64.856,39.324z
		 M64.615,32.722c2.083,0.71,1.983-0.821,3.173-1.885c1.265-0.754,2.868,0.379,3.22,1.42c0.669,1.167-0.004,3.365-1.192,3.302
		c-1.355-0.072-2.479-1.753-3.083,0.833C65.455,41.879,60.947,31.471,64.615,32.722z M56.93,44.429
		c1.953,0.048,2.015,1.352,1.943,1.98c-0.214,1.875-1.993,0.662-2.988,1.969c-1.007,1.526-3.063,1.482-2.782-0.49
		c0.148-1.03-0.735-0.711-1.079-1.792C51.681,45.018,54.968,44.38,56.93,44.429z M53.697,52.321
		c1.149,0.298,1.192,1.301,1.373,1.762c0.181,0.462,0.793,1.063,1.275,0.705c0.482-0.357-0.108-0.915,1.261-0.729
		c0.25,0.033,3.842,0.955,2.782-0.788c-0.57-0.937-1.961-2.661,0.123-3.22c0.682-0.183,1.479-0.951,2.454-0.564
		c2.093,0.833,2.319,3.033,1.202,4.753c-0.854,1.313-2.031,0.252-2.479,1.246c-0.388,0.864-1.262,1.754-2.084,2.259
		c-0.822,0.503-1.335,0.96-2.53,0.575c-1.194-0.385-2.059-0.884-2.085-1.369c-0.027-0.485-0.231-1.101-0.588-1.472
		c-0.356-0.372-0.892,0.042-1.655-0.204c-0.764-0.247-1.48-1.32-1.045-2.096C52.132,52.403,52.548,52.024,53.697,52.321z
		 M54.042,58.604c0.558,0.523,0.244,1.185,0.906,1.046c0.663-0.14,1.081-0.209,1.987,0.208c0.907,0.418,0.837,1.326,1.116,1.604
		c0.279,0.278,0.906-0.245,1.848,0c0.942,0.244,1.29,1.186,1.22,1.499c-0.069,0.314-0.174,1.255-1.254,1.046
		c-1.081-0.209-1.151-0.697-1.813-0.872c-0.663-0.174-0.697,0.977-1.5,0.837c-0.802-0.139-1.185-0.628-1.359-1.116
		c-0.174-0.488-0.069-1.36-0.906-1.499c-0.836-0.14-1.255,0.558-1.708,0.035C50.412,58.893,53.203,57.817,54.042,58.604z
		 M72.196,36.84c0.362-0.219,0.812-0.333,1.237-0.245c0.332,0.068,0.158-0.037,0.456-0.778c1.299-3.235,3.431,1.097,1.428,1.381
		c-0.456,0.064-0.681,0.145-0.768,0.613c-0.06,0.326-0.2,0.961-0.455,1.381c-0.555,0.912-1.911,0.146-2.188-0.31
		C71.636,38.442,71.405,37.318,72.196,36.84z M87.074,27.544c0.313,0.777,0.444,1.229-0.347,1.606
		c-0.757,0.359-2.71,0.433-3.125-0.393c-0.527-1.052,1.134-2.567-0.086-2.708c-0.735-0.085-0.94-2.223-1.225-2.538
		c0-0.755,0.702-1.541,1.705-1.494c1.076,0.05,1.085,0.042,1.635,1.147c0.337,0.68,0.03,1.964-0.238,2.615
		C84.901,26.974,86.411,25.902,87.074,27.544z M80.864,12.851c0.458,0.191,0.328,0.594,0.556,0.785
		c0.228,0.189,0.212,0.661-0.023,0.875c-0.236,0.213-0.876,0.228-1.158,0.007c-0.281-0.221-0.235-0.35-0.372-0.7
		C79.476,12.818,80.085,12.526,80.864,12.851z M81.961,16.877c1.354-0.166,1.479-0.879,2.29-0.474
		c0.376,0.188,0.085,1.382,0.481,1.3c0.396-0.081,0.492-1.265,1.096-1.156c0.603,0.108,0.775,0.316,0.792,0.622
		c0.019,0.307,0.027,0.685-0.531,0.928c-0.559,0.243-0.676,0.451-0.983,0.694c-0.505,0.401-1.499,0.443-1.414-0.307
		c0.045-0.396,0.189-0.423,0.199-0.675s0-0.271-0.442-0.189c-0.161,0.03-1.481-0.039-2.299,0.304
		c-0.506,0.212-0.454,0.875-0.915,0.934c-1.024,0.132-1.467-0.583-1.502-0.758C78.64,17.632,80.24,17.088,81.961,16.877z
		 M77.882,22.14c0.67-0.456,1.451-0.159,1.61,0.057c0.159,0.216,0.692,0.798-0.032,1.362c-0.726,0.563-1.069,0.339-1.542,0.659
		c-0.473,0.319,0.23,0.974-0.298,1.399c-0.527,0.427-1.044,0.399-1.446,0.241c-0.402-0.159-0.891-0.703-1.438-0.254
		c-0.547,0.448-0.339,1.093-0.916,1.09c-2.757-0.012-1.901-2.354-0.946-2.449c0.633-0.063,0.877,0.497,1.153,0.005
		c0.276-0.493,0.462-0.792,1.221-1.132c0.76-0.339,1.291,0.202,1.619,0.181C77.196,23.277,77.212,22.596,77.882,22.14z
		 M74.494,13.439c0.839,1.127,1.1-0.245,2.315,0.003c0.499,0.102,0.591,0.955,0.333,1.241c-0.733,0.816-0.854,0.312-1.223,0.158
		c-1.01-0.425-0.943,0.273-0.504,0.892c0.539,0.759-0.143,1.764-0.468,1.87c-0.968,0.317-0.663-0.812-0.817-1.331
		c-0.276-0.921-0.953-1.148-1.729-0.799c-0.222,0.1-1.011-0.238-0.517-0.73c0.448-0.446,1.947,0.118,1.338-0.976
		C72.961,13.3,72,13.987,71.587,14.108c-0.598,0.177-0.777-0.172-0.777-0.661C70.811,12.082,74.331,13.222,74.494,13.439z
		 M71.874,9.014c0.548,0.013,0.564,0.378,0.545,0.555c-0.061,0.525-0.559,0.186-0.839,0.551c-0.282,0.429-0.858,0.416-0.78-0.138
		c0.042-0.288-0.206-0.199-0.302-0.501C70.401,9.179,71.323,9,71.874,9.014z M66.579,16.828c0.665-0.814,2.214,0.733,2.403,0.955
		c0.226,0.262,0.038,0.563,0.226,0.889c0.188,0.325,0.539,0.226,0.438,0.676c-0.101,0.451-0.351,0.801-0.175,0.839
		c0.175,0.037,0.563-0.226,0.876-0.313c0.313-0.087,0.7-0.113,0.451-0.363c-0.251-0.25-0.739-0.501-0.626-0.827
		c0.113-0.325,0.539-0.801,1.214-0.325c0.676,0.476,0.164,0.701,0.414,1.227c0.275,0.602,0.789,0.376,0.789,1.127
		s-0.051,1.001-0.401,1.202c-0.351,0.201-0.626,0.313-0.751-0.25c-0.039-0.174,0.227-0.449,0.292-0.722
		c0.205-0.857-0.546-1.047-0.543-0.894c0.027,1.031-1.14,1.024-1.34,0.939c-0.325-0.138-0.25-0.35-0.451-0.212
		c-0.2,0.138-0.551,0.375-0.675,0.05c-0.125-0.326-0.389-0.451-0.176-0.789c0.213-0.338,0.05-0.287,0.05-0.626
		c0-0.337,0.326-0.475,0.2-0.639c-0.125-0.163-0.751,0.138-0.852-0.112c-0.062-0.156,0.31-1.084-0.042-1.21
		C67.177,17.188,66.475,16.956,66.579,16.828z M65.785,26.447c1.125,0.383,1.071-0.443,1.713-1.018
		c0.683-0.406,1.547,0.205,1.737,0.767c0.361,0.63-0.002,1.816-0.644,1.782c-0.731-0.039-1.337-0.946-1.663,0.45
		C66.239,31.388,63.806,25.772,65.785,26.447z M63.354,21.395c-0.265-0.624,0.009-0.843,0.551-1.057
		c1.084-0.429,1.843,1.491,0.482,1.739c-0.721,0.132-0.134,0.916-0.616,1.331c-1.147,0.991-2.339-0.775-1.245-1.129
		C62.981,22.131,63.62,22.022,63.354,21.395z M60.755,12.005c0.225,0.199,0.104,0.52,0.385,0.461
		c0.282-0.057,0.308-0.436,0.736-0.358c0.43,0.077,0.551,0.224,0.563,0.442c0.013,0.218,0.02,0.487-0.378,0.661
		c-0.397,0.172-0.48,0.32-0.698,0.493c-0.359,0.285-1.066,0.315-1.005-0.218c0.031-0.282,0.134-0.301,0.14-0.48
		c0.006-0.18,0-0.192-0.314-0.135C59.376,13.019,60.122,11.443,60.755,12.005z M59.52,17.596c0.838,1.127,1.1-0.245,2.315,0.003
		c0.499,0.102,0.59,0.955,0.333,1.24c-0.733,0.816-0.855,0.313-1.223,0.158c-1.011-0.425-0.944,0.272-0.504,0.892
		c0.539,0.759-0.143,1.763-0.468,1.871c-0.968,0.317-0.662-0.813-0.818-1.333c-0.275-0.921-0.952-1.148-1.729-0.799
		c-0.222,0.1-1.011-0.236-0.515-0.729c0.448-0.447,1.947,0.118,1.336-0.976c-0.26-0.467-1.221,0.221-1.633,0.342
		c-0.598,0.176-0.777-0.172-0.777-0.662C55.836,16.239,59.357,17.378,59.52,17.596z M58.331,26.011
		c-0.235,0.213-0.875,0.228-1.156,0.008c-0.282-0.221-0.237-0.351-0.374-0.701c-0.391-1,0.219-1.291,0.998-0.966
		c0.457,0.19,0.327,0.594,0.555,0.784C58.583,25.327,58.567,25.799,58.331,26.011z M56.091,32.752
		c0.213-0.285-0.215-0.502,0.594-0.626c0.147-0.023,2.343-0.103,1.448-0.915c-0.481-0.437-1.561-1.184-0.471-1.851
		c0.357-0.219,0.681-0.79,1.3-0.733c1.33,0.121,1.828,1.333,1.482,2.498c-0.264,0.891-1.112,0.485-1.199,1.125
		c-0.076,0.556-0.422,1.209-0.805,1.634c-0.382,0.424-0.598,0.771-1.341,0.752s-1.319-0.156-1.415-0.427
		c-0.097-0.271-0.317-0.586-0.582-0.738c-0.264-0.151-0.5,0.174-0.975,0.162c-0.475-0.011-1.062-0.501-0.947-1.015
		c0.116-0.514,0.288-0.799,0.992-0.823c0.703-0.024,0.896,0.539,1.076,0.771S55.878,33.035,56.091,32.752z M50.962,9.185
		c0.257,0.299,0.042,0.642,0.257,1.013c0.213,0.371,0.612,0.257,0.499,0.77c-0.114,0.514-0.399,0.914-0.199,0.956
		c0.199,0.042,0.642-0.257,0.999-0.356s0.798-0.128,0.513-0.414c-0.285-0.285-0.842-0.57-0.713-0.941
		c0.128-0.37,0.614-0.913,1.384-0.371c0.771,0.542,0.186,0.799,0.471,1.398c0.313,0.685,0.899,0.428,0.899,1.283
		c0,0.856-0.057,1.141-0.458,1.369c-0.399,0.229-0.713,0.357-0.855-0.285c-0.044-0.199,0.259-0.512,0.333-0.823
		c0.232-0.975-0.623-1.192-0.619-1.018c0.03,1.175-1.299,1.167-1.526,1.071c-0.371-0.157-0.286-0.399-0.514-0.242
		c-0.228,0.156-0.627,0.428-0.771,0.056c-0.142-0.371-0.441-0.514-0.2-0.898c0.243-0.385,0.058-0.329,0.058-0.714
		c0-0.385,0.371-0.542,0.228-0.727c-0.142-0.186-0.855,0.157-0.97-0.128C49.326,9.054,50.583,8.744,50.962,9.185z M49.164,22.528
		c0.047-0.249,0.328-0.312,0.609-0.405c0.281-0.094,0.25-0.344,0.141-0.718c-0.109-0.375-0.032-0.656,0.078-0.891
		c0.11-0.233,0.687-0.046,1.015-0.155c0.328-0.11,0.078-0.406,0.265-0.828c0.188-0.421,0.484-0.079,0.765-0.328
		c0.281-0.25-0.047-0.156-0.109-0.688c-0.063-0.53,0.702-0.687,1.17-0.655c0.468,0.031,0.391,0.296,0.453,0.577
		c0.063,0.281-0.078,0.468,0.094,0.796c0.171,0.328,0.281-0.047,0.733,0s0.413,0.179,0.491,0.242
		c0.079,0.062,0.079,0.281,0.032,0.625c-0.047,0.342-0.203,0.405-0.421,0.562c-0.219,0.156-0.671-0.328-0.891-0.313
		c-0.218,0.016-0.171,0.297-0.046,0.421c0.125,0.125,0.421-0.015,0.655,0.265c0.235,0.282-0.046,0.375-0.25,0.703
		c-0.203,0.328-0.702,0.203-0.968,0.063c-0.265-0.141-0.172-0.515-0.032-0.843c0.142-0.328-0.14-0.421-0.53-0.374
		c-0.39,0.046-0.249,0.25-0.577,0.483c-0.328,0.235-0.235,0.032-0.64,0.172c-0.406,0.141-0.109,0.313-0.281,0.593
		c-0.172,0.282-0.375,0.219-0.5,0.421c-0.125,0.204,0.024,0.719-0.147,0.922C50.104,23.375,48.97,23.565,49.164,22.528z
		 M48.264,30.67c0.844-0.273,2.029-0.475,1.535-1.639c-0.49-1.156,0.018-1.563,1.021-1.958c2.01-0.794,3.416,2.764,0.894,3.224
		c-1.338,0.244-0.249,1.696-1.142,2.467C48.445,34.6,46.237,31.327,48.264,30.67z M42.41,18.292c0.717-0.528,1.38-2.313,1.979-2.333
		c0.272-0.009,0.434-0.219,0.595-0.401c0.262-0.297,1.407-0.666,1.643-0.168c0.235,0.493-0.259,0.881-0.494,1.343
		c-0.254,0.501,0.379,0.868,0.323,1.508c-0.033,0.379-0.671,0.533-0.992,0.318c-0.166-0.111,0.115-2.229-0.658-1.896
		c-0.677,0.293-1.461,2.524-2.442,2.802c-0.618,0.176-1.638-0.708-1.088-1.67C41.45,17.489,42.039,18.564,42.41,18.292z
		 M40.568,13.396c0.54-0.502-0.334-2.086,0.455-1.996c0.863,0.021,0.534,2.099,0.501,2.375c-0.094,0.829-0.879,0.293-1.32,0.87
		c-0.444,0.674-1.352,0.655-1.229-0.216c0.066-0.456-0.325-0.314-0.477-0.792C38.64,13.221,40.024,13.899,40.568,13.396z
		 M35.909,34.442c0.499-1.606,1.521-1.857,1.051-3.472c-0.01-0.031-0.019-0.063-0.026-0.094v-1.208
		c0.047-0.175,0.112-0.337,0.183-0.489c0.22-0.472,1.383-0.095,2.043-0.315c0.66-0.22,0.157-0.817,0.534-1.666
		c0.378-0.849,0.975-0.157,1.541-0.661c0.566-0.503-0.094-0.314-0.22-1.383c-0.125-1.07,1.415-1.384,2.357-1.321
		c0.943,0.063,0.786,0.598,0.912,1.163c0.125,0.566-0.157,0.943,0.189,1.604c0.346,0.66,0.565-0.094,1.477,0
		c0.912,0.094,0.833,0.361,0.991,0.488c0.157,0.125,0.157,0.565,0.063,1.257s-0.408,0.818-0.849,1.132
		c-0.44,0.315-1.352-0.661-1.792-0.629c-0.439,0.033-0.345,0.598-0.094,0.849c0.251,0.252,0.849-0.031,1.321,0.535
		c0.471,0.566-0.095,0.755-0.503,1.415c-0.409,0.661-1.416,0.409-1.949,0.125c-0.535-0.283-0.347-1.036-0.063-1.697
		c0.283-0.661-0.284-0.849-1.069-0.755c-0.786,0.094-0.503,0.503-1.163,0.975c-0.661,0.472-0.472,0.063-1.29,0.346
		c-0.818,0.284-0.22,0.629-0.565,1.194c-0.347,0.566-0.755,0.44-1.006,0.849c-0.252,0.409,0.047,1.446-0.299,1.854
		c-0.456,0.54-0.422,0.904-0.704,1.13C35.964,36.482,35.58,35.506,35.909,34.442z M32.875,8.23
		c-0.025-0.408,0.732-1.107,1.042-1.099c0.439,0.162-0.373,0.538-0.445,0.909c-0.228,1.177,0.375-0.035,0.298,0.648
		C33.737,8.985,33.456,8.794,33.298,9c-0.159,0.242-0.484,0.235-0.44-0.078C32.881,8.76,32.929,8.4,32.875,8.23z M31.833,14.449
		c0.26-0.086,0.779-0.198,0.975,0.062c0.274,0.365,0.449-0.096,0.771-0.194c0.63-0.193,0.531,0.41,0.637,0.685
		c0.177,0.452-0.003,0.155,0.607,0.155c0.534,0,0.596,1.598-0.272,1.208c-0.138-0.062-0.255-0.736-0.395-0.675
		c-0.569,0.245-0.767-0.149-0.936-0.029c-0.187,0.133,0.313,2.911,0.02,3.531c-0.117,0.247-0.296,0.207-0.548,0.215
		c-0.175,0.005,0.082-0.946,0.032-1.674c-0.055-0.806-0.413-1.397-0.584-1.487c-0.652-0.34-0.367-0.433-0.486-0.964
		C31.661,15.313,31.466,14.571,31.833,14.449z M29.776,28.698c0.844-0.163,1.136-0.098,1.136-0.552c0-1.425,0.686-3.014,2.335-2.238
		c2.231,1.05,1.024,4.242-0.215,4.189c-1.029,0.01-1.143-0.058-1.213,0.969c-0.107,0.807-1.705,0.957-1.978,0.843
		c-0.39-0.162,0.162,0.617-0.551,1.103c-0.714,0.487-3.017,0.39-3.667-0.227c-0.648-0.616-1.103-1.394-0.324-2.108
		c0.779-0.714,1.622-1.07,2.369-0.681c0.746,0.389,1.232,0.843,1.557,0.421C29.55,29.996,28.933,28.86,29.776,28.698z
		 M28.966,20.633c0.292,0.613-0.323,1.097-0.615,1.671c-0.317,0.625,0.471,1.081,0.403,1.878c-0.042,0.472-0.836,0.664-1.235,0.396
		c-0.779-0.521-0.187-1.643-1.472-1.39c-0.791,0.156-0.843-1.814,0.133-1.847c0.338-0.011,0.54-0.272,0.74-0.499
		C27.246,20.472,28.671,20.012,28.966,20.633z M25.95,6.996c0.185,0.164,0.085,0.428,0.317,0.38
		c0.233-0.048,0.254-0.359,0.608-0.296c0.354,0.064,0.455,0.186,0.465,0.365c0.01,0.18,0.016,0.402-0.312,0.544
		c-0.328,0.143-0.396,0.264-0.577,0.407c-0.295,0.236-0.879,0.26-0.83-0.18c0.027-0.232,0.111-0.249,0.117-0.396
		c0.005-0.147,0-0.158-0.259-0.11C24.812,7.832,25.427,6.532,25.95,6.996z M25.148,12.764c0.965-0.892,1.678-0.367,1.653-0.151
		c-0.037,0.327-0.567,0.298-1.027,0.541c-0.444,0.235-0.817,0.744-0.985,0.963c-0.345,0.523-1.048,0.507-0.953-0.168
		c0.051-0.353-0.252-0.244-0.369-0.613C23.35,12.966,24.476,12.747,25.148,12.764z M25.55,34.383
		c0.115,0.995-0.25,1.915-3.036,1.915c-0.979,0-0.907-0.786-2.375-0.419c-1.469,0.367-1.337,1.316-3.173,2.5
		c-1.517,0.977-3.764-1.093-2.158-3.465c0.78-1.152,3.321-3.041,4.606-1.756c0.612,0.611,1.142,0.041,3.345-0.449
		C24.761,32.263,25.432,33.358,25.55,34.383z M20.9,24.936c0.398,1.021-0.009,0.351,1.373,0.351c1.208,0,1.349,3.618-0.616,2.736
		c-0.312-0.14-0.578-1.667-0.895-1.53c-1.288,0.555-1.734-0.339-2.118-0.064c-0.422,0.301,0.352,1.668-0.313,3.073
		c-0.265,0.557-0.67,0.467-1.241,0.486c-0.832,0.029-0.15-1.849-0.891-2.235c-1.478-0.77-0.831-0.98-1.101-2.182
		c0.016,0.07-0.424-1.609,0.407-1.884c0.588-0.195,1.763-0.45,2.207,0.14c0.621,0.827,1.017-0.217,1.745-0.44
		C20.882,22.951,20.659,24.315,20.9,24.936z M17.574,15.096c0.182,0.367,0.017,1.06-0.128,1.411
		c-0.265,0.643,0.549,0.065,0.907,0.951c0.169,0.419,0.24,0.663-0.188,0.867c-0.409,0.195-1.462,0.234-1.686-0.211
		c-0.285-0.568,0.611-1.385-0.046-1.461c-0.397-0.046-0.508-1.2-0.661-1.369c0-0.409,0.378-0.832,0.92-0.807
		C17.272,14.504,17.277,14.5,17.574,15.096z M14.863,9.642c0.207,0.184,0.095,0.479,0.355,0.426c0.26-0.053,0.283-0.402,0.68-0.331
		s0.508,0.207,0.52,0.407c0.012,0.202,0.018,0.449-0.349,0.609c-0.366,0.16-0.442,0.295-0.644,0.456
		c-0.332,0.263-0.983,0.29-0.927-0.202c0.029-0.259,0.124-0.277,0.129-0.443c0.006-0.165,0-0.177-0.289-0.124
		C13.591,10.577,14.279,9.124,14.863,9.642z M11.568,43.803c0.492-0.298,1.106-0.453,1.686-0.333
		c0.452,0.094,0.215-0.049,0.621-1.06c1.77-4.409,4.676,1.496,1.947,1.882c-0.622,0.088-0.929,0.197-1.048,0.835
		c-0.082,0.445-0.272,1.311-0.621,1.882c-0.756,1.243-2.604,0.2-2.983-0.421C10.804,45.986,10.49,44.455,11.568,43.803z
		 M6.538,60.747c-0.715,0.175-0.628,0.662-1.465,0.89c-0.836,0.227-1.969,0.139-2.213-0.872c-0.244-1.011,0.104-1.255,0.104-1.255
		c0.244-0.802,0.889-0.47,1.5-1.132c0.609-0.663,0.609-1.5,1.517-1.691c0.906-0.191,2.789,0.332,2.736,1.534
		C8.664,59.422,7.251,60.572,6.538,60.747z M10.632,56.39c-0.541,0.488-2.005,0.523-2.649,0.018
		c-0.645-0.506-0.541-0.803-0.854-1.604c-0.896-2.288,0.5-2.956,2.283-2.213c1.046,0.435,0.75,1.36,1.273,1.796
		C11.207,54.82,11.172,55.901,10.632,56.39z M20.587,53.147c-0.279,0.627-1.639,0.906-2.197,0.523
		c-0.557-0.383-1.08-0.558-1.533-0.035s-1.639,1.673-2.72,1.568c-1.081-0.104-2.44-0.174-2.963-1.673
		c-1.017-2.917,0.891-3.909,3.313-2.894c1.08,0.454,1.604,1.326,2.406,0.942c0.802-0.385,1.115-1.151,2.475-0.942
		C20.727,50.846,20.866,52.519,20.587,53.147z M20.032,43.132c0.103-0.897,0.429-0.958,0.449-1.529c0.021-0.571,0-0.612-1-0.429
		c-2.575,0.473-0.203-4.542,1.815-2.754c0.714,0.633,0.327,1.652,1.224,1.469s0.979-1.387,2.345-1.142
		c1.366,0.245,1.754,0.714,1.795,1.407c0.041,0.694,0.061,1.55-1.204,2.101c-1.264,0.551-1.53,1.02-2.223,1.57
		C22.091,44.734,19.839,44.829,20.032,43.132z M34.09,45.215c-0.123,1.102-0.775,2.407-1.509,3.263
		c-0.734,0.856-1.143,1.55-2.611,1.55c-1.469,0-2.61-0.245-2.814-0.775s-0.653-1.142-1.184-1.427
		c-0.53-0.287-0.979,0.367-1.917,0.367c-0.938,0-2.122-0.938-1.918-1.958c0.205-1.02,0.53-1.59,1.918-1.672
		c1.387-0.082,1.795,1.02,2.162,1.469c0.367,0.448,1.265,0.897,1.673,0.326c0.407-0.571-0.449-0.979,1.142-1.265
		c0.29-0.052,4.621-0.316,2.815-1.876c-0.971-0.838-3.139-2.259-1.02-3.63c0.694-0.449,1.305-1.591,2.529-1.51
		c2.631,0.176,3.673,2.544,3.046,4.86C35.923,44.706,34.231,43.947,34.09,45.215z M41.309,54.76c-0.723,0-0.67-0.581-1.754-0.31
		c-1.085,0.271-0.987,0.973-2.343,1.846c-1.121,0.723-2.781-0.807-1.595-2.56c0.577-0.85,2.454-2.245,3.402-1.296
		c0.452,0.452,0.843,0.029,2.47-0.332c1.479-0.329,1.974,0.479,2.062,1.237C43.636,54.081,43.366,54.76,41.309,54.76z
		 M47.659,66.928c-2.454-0.244-0.666-2.769-1.246-3.765c-0.398-0.682-1.669-0.265-1.53-0.95c0.709-3.481-1.931-1.179-1.931-4.127
		c0-1.895,1.796-1.157,1.621-4.04c-0.113-1.853,2.519-1.243,2.916-0.444c0.726,1.463-1.387,2.333-1.038,3.024
		c0.871,1.727-1.411,3.243,1.442,3.041c0.615-0.044,1.183-0.38,1.543,0.054c1.867,2.239,0.28,2.741-0.018,3.529
		C49.406,63.282,50.471,67.208,47.659,66.928z M47.371,49.858c-1.868-0.293-0.129,2.03-2.102,2.498
		c-2.837,0.675-0.995-2.068-4.895-1.956c-1.731,0.05-0.863-4.549,2.688-3.325c3.254,1.122,5.822-1.329,7.201,0.25
		C51.606,48.862,51.085,50.441,47.371,49.858z M49.1,43.58c-1.493-1-0.361-4.125-2.818-2.665c-5.685,3.379-6.776-2.417,0.254-3.538
		c0.64-0.102,1.033-0.521,1.418-0.956c0.625-0.708,3.355-1.588,3.921-0.401c0.559,1.174-0.62,2.103-1.179,3.204
		c-0.608,1.197,0.902,2.068,0.771,3.596C51.388,43.724,49.864,44.092,49.1,43.58z M63.115,76.861
		c-1.185,0.209-1.604-0.14-1.813-1.395c-0.208-1.255-0.139-1.813-0.767-1.813c-0.627,0-2.091,1.674-2.928,1.046
		c-0.837-0.627-1.639-1.15-1.046-1.987c0.592-0.836,1.604,0.14,2.022-0.208c0.418-0.349,0.488-1.674-0.454-1.708
		c-0.941-0.035-2.162,0.592-3.278,1.081c-1.115,0.488-2.056,0.732-2.545-0.209c-0.409-0.79,2.249-2.316,0.48-3.014
		c-3.654-1.441-0.019-3.85,3.285-2.111c1.325,0.697,0.768,2.371,2.511,2.371s2.718-1.395,3.834-0.697
		c1.116,0.697,0.906,2.022,1.534,2.789c0.627,0.767,1.394,1.116,1.394,2.51C65.346,74.909,64.3,76.652,63.115,76.861z
		 M74.667,74.482c-0.279,0.454-2.266,0.628-2.197,1.569c0.07,0.941,0.663,0.522,1.081,2.335c0.418,1.814-0.731,1.814-1.219,2.093
		c-0.489,0.278-1.639,0.313-2.127-0.454c-0.488-0.766-0.139-1.01,0.035-2.161c0.175-1.149-0.104-1.917-0.731-2.301
		c-0.628-0.384-2.197,0.034-2.266-1.5c-0.07-1.533-0.141-1.917-1.326-1.917c-2.068,0-1.21-3.285,0.697-3.801
		c1.291-0.348,1.848,0.802,2.58,0.21c0.732-0.593,0-1.465,0.802-2.301c0.802-0.837,1.988-1.848,3.138-1.36
		c1.151,0.488,1.848,1.29,1.186,2.301c-0.663,1.011-2.545,1.394-2.649,2.475c-0.104,1.081,1.499,0.314,1.116,1.325
		c-0.383,1.012-1.534,1.5-1.22,2.127c0.314,0.627,0.383-0.314,1.604-0.105C74.387,73.228,74.945,74.03,74.667,74.482z
		 M87.228,70.241c0,2.092-0.14,2.789-1.116,3.347c-0.976,0.558-1.742,0.872-2.091-0.698c-0.108-0.484,0.634-1.25,0.816-2.01
		c0.569-2.386-1.524-2.916-1.513-2.49c0.074,2.872-3.175,2.853-3.731,2.617c-0.906-0.383-0.697-0.977-1.255-0.592
		c-0.557,0.383-1.534,1.046-1.883,0.14c-0.348-0.907-1.08-1.255-0.488-2.197c0.593-0.941,0.14-0.802,0.14-1.743
		s0.906-1.325,0.558-1.778c-0.349-0.453-2.091,0.383-2.372-0.313c-1.104-2.763,1.97-3.52,2.895-2.44
		c0.627,0.731,0.104,1.568,0.627,2.475c0.523,0.907,1.5,0.628,1.22,1.883c-0.279,1.255-0.976,2.231-0.488,2.336
		c0.488,0.104,1.569-0.628,2.44-0.872c0.872-0.244,1.953-0.313,1.255-1.011c-0.698-0.697-2.057-1.395-1.743-2.301
		s1.499-2.231,3.382-0.906s0.454,1.952,1.151,3.416C85.798,68.777,87.228,68.149,87.228,70.241z M84.93,56.39
		c-0.541,0.488-2.004,0.523-2.649,0.018c-0.645-0.506-0.54-0.803-0.854-1.604c-0.895-2.288,0.501-2.956,2.284-2.213
		c1.046,0.435,0.75,1.36,1.273,1.796C85.506,54.82,85.471,55.901,84.93,56.39z M94.886,53.147c-0.279,0.627-1.638,0.906-2.196,0.523
		c-0.558-0.383-1.08-0.558-1.534-0.035c-0.453,0.523-1.639,1.673-2.719,1.568c-1.081-0.104-2.44-0.174-2.963-1.673
		c-1.017-2.917,0.89-3.909,3.313-2.894c1.081,0.454,1.604,1.326,2.405,0.942c0.802-0.385,1.115-1.151,2.475-0.942
		C95.025,50.846,95.164,52.519,94.886,53.147z M94.33,43.132c0.104-0.897,0.429-0.958,0.449-1.529c0.021-0.571,0-0.612-1-0.429
		c-2.574,0.473-0.203-4.542,1.816-2.754c0.713,0.633,0.326,1.652,1.223,1.469c0.898-0.184,0.98-1.387,2.346-1.142
		c1.367,0.245,1.754,0.714,1.795,1.407c0.041,0.694,0.061,1.55-1.203,2.101c-1.264,0.551-1.529,1.02-2.223,1.57
		C96.39,44.734,94.139,44.829,94.33,43.132z M110.701,42.936c-0.479,1.77-2.172,1.011-2.313,2.279
		c-0.123,1.102-0.775,2.407-1.51,3.263c-0.734,0.856-1.141,1.55-2.609,1.55s-2.611-0.245-2.814-0.775
		c-0.205-0.53-0.654-1.142-1.184-1.427c-0.531-0.287-0.979,0.367-1.918,0.367c-0.938,0-2.12-0.938-1.917-1.958
		c0.204-1.02,0.531-1.59,1.917-1.672c1.387-0.082,1.795,1.02,2.162,1.469c0.367,0.448,1.265,0.897,1.674,0.326
		c0.406-0.571-0.449-0.979,1.141-1.265c0.291-0.052,4.622-0.316,2.814-1.876c-0.971-0.838-3.139-2.259-1.02-3.63
		c0.694-0.449,1.306-1.591,2.529-1.51C110.285,38.252,111.328,40.62,110.701,42.936z M112.129,32.685
		c-0.253,0.409,0.045,1.446-0.3,1.854c-0.106,0.126-0.403,0.25-0.748,0.296v0.959c-1.446-1.724-0.778-2.83,0.152-3.202v-0.555
		c0.046-0.151,0.04-0.337,0-0.555v-2.235c0.01-0.022,0.019-0.044,0.03-0.066c0.22-0.472,1.383-0.095,2.043-0.315
		c0.66-0.22,0.157-0.817,0.534-1.666c0.378-0.849,0.975-0.157,1.541-0.661s-0.095-0.314-0.22-1.383
		c-0.126-1.07,1.414-1.384,2.357-1.321c0.943,0.063,0.786,0.598,0.912,1.163c0.125,0.566-0.158,0.943,0.188,1.604
		c0.347,0.66,0.566-0.094,1.479,0s0.833,0.361,0.99,0.488c0.157,0.125,0.157,0.565,0.063,1.257
		c-0.094,0.692-0.408,0.818-0.849,1.132c-0.44,0.315-1.352-0.661-1.792-0.629c-0.439,0.033-0.346,0.598-0.094,0.849
		c0.25,0.252,0.848-0.031,1.319,0.535c0.472,0.566-0.095,0.755-0.503,1.415c-0.408,0.661-1.414,0.409-1.949,0.125
		c-0.534-0.283-0.346-1.036-0.063-1.697s-0.283-0.849-1.068-0.755c-0.786,0.094-0.504,0.503-1.164,0.975
		c-0.66,0.472-0.471,0.063-1.289,0.346c-0.816,0.284-0.219,0.629-0.564,1.194C112.788,32.402,112.379,32.276,112.129,32.685z
		 M124.216,74.731c1.091,2.199,1.911,2.476,1.388,3.652c-0.508,1.141-3.012,0.283-3.291-0.088c-1.145-1.518-0.553-2.617-1.239-4.183
		c-0.399-0.912-0.94-0.391-1.839-0.061c-0.536,0.197-0.957,4.295-6.21,2.955c-0.284-0.072-0.507-0.249-0.67-0.489
		c0.16-0.174,0.3-0.438,0.398-0.798l-0.44-1.921c0.018-0.034,0.037-0.067,0.057-0.1c0.49-0.786,4.359,0.047,2.925-3.799
		c-0.104-0.282-0.642-2.055-0.558-2.267c0.356-0.897-0.225-1.641,1.15-2.488c1.012-0.623,1.242-0.792,2.179,0.048
		c1.566,1.406-0.862,5.278,3.069,3.738c2.762-1.082,5.822,1.781,4.305,3.076C124.807,72.546,123.72,73.731,124.216,74.731z
		 M137.261,76.861c-1.185,0.209-1.604-0.14-1.813-1.395c-0.209-1.255-0.139-1.813-0.766-1.813c-0.628,0-2.092,1.674-2.93,1.046
		c-0.836-0.627-1.639-1.15-1.046-1.987c0.593-0.836,1.604,0.14,2.022-0.208c0.418-0.349,0.488-1.674-0.453-1.708
		c-0.941-0.035-2.162,0.592-3.277,1.081c-1.115,0.488-2.057,0.732-2.545-0.209c-0.409-0.79,2.248-2.316,0.48-3.014
		c-3.654-1.441-0.019-3.85,3.285-2.111c1.324,0.697,0.768,2.371,2.51,2.371c1.744,0,2.719-1.395,3.835-0.697
		c1.115,0.697-0.239,2.931,0.388,3.698s2.541,0.207,2.541,1.601C139.492,74.909,138.446,76.652,137.261,76.861z M146.477,80.479
		c-0.488,0.278-1.639,0.313-2.127-0.454c-0.487-0.766-0.139-1.01,0.035-2.161c0.175-1.149-0.104-1.917-0.732-2.301
		c-0.627-0.384-2.195,0.034-2.266-1.5c-0.069-1.533,0.889-2.272-0.297-2.272c-2.068,0-2.238-2.929-0.332-3.445
		c1.291-0.348,1.85,0.802,2.58,0.21c0.732-0.593,0-1.465,0.803-2.301c0.801-0.837,1.986-1.848,3.138-1.36
		c1.149,0.488,1.847,1.29,1.185,2.301c-0.662,1.011-2.545,1.394-2.648,2.475c-0.105,1.081,1.499,0.314,1.115,1.325
		c-0.383,1.012-1.534,1.5-1.221,2.127c0.314,0.627,0.384-0.314,1.604-0.105c1.22,0.209,1.778,1.011,1.499,1.464
		c-0.279,0.454-2.266,0.628-2.197,1.569c0.07,0.941,0.664,0.522,1.082,2.335C148.115,80.201,146.965,80.201,146.477,80.479z"/>
	<path fill="#F00808" d="M145.979,101.625c-0.195,0.486-0.082,0.557-0.299,0.511c-0.278-0.058-0.574,0.017-0.812,0.161
		c-0.519,0.313-0.368,1.051-0.191,1.342c0.183,0.298,1.071,0.801,1.437,0.201c0.168-0.275,0.259-0.691,0.299-0.906
		c0.057-0.307,0.205-0.359,0.504-0.402C148.229,102.346,146.831,99.504,145.979,101.625z"/>
	<path fill="#F00808" d="M155.043,105.568c-0.868-0.023-2.32,0.259-2.168,0.736c0.152,0.477,0.541,0.336,0.477,0.791
		c-0.125,0.871,0.783,0.891,1.229,0.217c0.439-0.578,1.225-0.042,1.32-0.87C155.932,106.164,155.905,105.589,155.043,105.568z"/>
	<path fill="#F00808" d="M153.523,117.665c-0.488-0.012-1.307,0.147-1.221,0.416c0.085,0.269,0.305,0.189,0.269,0.445
		c-0.07,0.491,0.441,0.503,0.692,0.122c0.248-0.325,0.69-0.023,0.744-0.49C154.025,118.002,154.011,117.678,153.523,117.665z"/>
	<path fill="#F00808" d="M142.01,98.568c0.373-0.338,0.397-1.086,0.035-1.387c-0.361-0.302-0.156-0.941-0.881-1.242
		c-1.232-0.514-2.197-0.052-1.579,1.531c0.218,0.555,0.146,0.76,0.591,1.109C140.623,98.93,141.635,98.906,142.01,98.568z"/>
	<path fill="#F00808" d="M138.059,86.719c0.646-0.506,3.572-0.45,2.484-2.169c-0.006-0.01-1.602-1.101-1.814-1.952
		c-0.078,0.02-0.16,0.035-0.249,0.045c-1.362,0.158-1.392,0.608-1.267,2.38c0.124,1.772-1.734,1.5-2.404,2.024
		s-0.889,1.442-0.535,2.741s0.786,1.532,0.328,2.479c-0.241,0.497-0.848,0.814-1.521,0.896c-0.756,0.435-3.148-0.313-3.219,1.316
		c-0.13,3.052,4.397-0.277,4.433-0.281c2.479-0.303,1.417,0.314,3.255,0.562c0.676,0.091,1.361-0.343,1.793-2.011
		C140.768,87.239,133.715,90.128,138.059,86.719z"/>
	<path fill="#F00808" d="M137.349,108.709c-0.604-0.108-0.64,0.423-1.036,0.504s-0.226-0.369-0.541-0.648
		c-0.891-0.79-1.939,1.426-0.801,1.217c0.441-0.082,0.449-0.064,0.441,0.188c-0.01,0.253-0.154,0.28-0.199,0.676
		c-0.085,0.749,0.909,0.708,1.414,0.307c0.307-0.243,0.424-0.45,0.983-0.694c0.558-0.243,0.55-0.621,0.53-0.928
		C138.123,109.023,137.952,108.816,137.349,108.709z"/>
	<path fill="#F00808" d="M141.845,106.064c0.097,0.32,0.302,0.567,0.528,0.71c0.495,0.31,0.969-0.345,1.097-0.72
		c0.131-0.387,0.06-1.627-0.571-1.587c-0.289,0.018-0.646,0.208-0.826,0.313c-0.258,0.152-0.371,0.038-0.554-0.234
		c-0.799-1.199-2.217,2.146-0.205,1.563C141.774,105.977,141.77,105.813,141.845,106.064z"/>
	<path fill="#F00808" d="M143.28,113.908c-0.429-0.078-0.454,0.301-0.736,0.358c-0.282,0.059-0.159-0.263-0.384-0.461
		c-0.635-0.562-1.38,1.014-0.571,0.864c0.313-0.057,0.32-0.045,0.313,0.135c-0.006,0.18-0.107,0.199-0.14,0.48
		c-0.062,0.533,0.646,0.503,1.006,0.219c0.217-0.174,0.301-0.32,0.698-0.494c0.396-0.173,0.391-0.441,0.378-0.66
		C143.832,114.133,143.71,113.984,143.28,113.908z"/>
	<path fill="#F00808" d="M128.705,114.267c-0.488-0.013-1.309,0.146-1.223,0.415c0.086,0.269,0.307,0.189,0.27,0.446
		c-0.07,0.491,0.441,0.503,0.693,0.122c0.247-0.326,0.69-0.023,0.744-0.49C129.207,114.604,129.191,114.279,128.705,114.267z"/>
	<path fill="#F00808" d="M126.148,108.195c-0.611,0-0.432,0.297-0.607-0.154c-0.105-0.275-0.008-0.877-0.637-0.686
		c-0.322,0.099-0.496,0.561-0.771,0.195c-0.195-0.26-0.715-0.148-0.975-0.062c-0.367,0.121-0.188,0.801-0.18,0.832
		c0.119,0.53-0.166,0.624,0.486,0.964c0.326,0.171,0.027,1,0.394,0.987c0.252-0.009,0.431,0.031,0.548-0.214
		c0.295-0.621-0.047-1.226,0.139-1.358c0.17-0.121,0.366,0.273,0.936,0.028c0.141-0.06,0.258,0.615,0.395,0.676
		C126.744,109.794,126.682,108.195,126.148,108.195z"/>
	<path fill="#F00808" d="M122.121,117.227c-0.489-0.014-1.308,0.146-1.222,0.414c0.086,0.27,0.306,0.189,0.269,0.447
		c-0.07,0.491,0.441,0.502,0.693,0.121c0.247-0.324,0.689-0.022,0.743-0.49C122.623,117.563,122.607,117.238,122.121,117.227z"/>
	<path fill="#F00808" d="M127.238,121.877c-0.488-0.012-1.307,0.146-1.223,0.416c0.086,0.268,0.307,0.189,0.27,0.445
		c-0.07,0.492,0.442,0.503,0.692,0.123c0.249-0.326,0.691-0.023,0.745-0.491C127.74,122.214,127.725,121.89,127.238,121.877z"/>
	<path fill="#F00808" d="M135.559,118.648c-0.488-0.012-1.309,0.146-1.223,0.416c0.086,0.268,0.307,0.189,0.27,0.445
		c-0.07,0.492,0.441,0.503,0.692,0.122c0.247-0.325,0.69-0.022,0.743-0.489C136.061,118.985,136.045,118.661,135.559,118.648z"/>
	<path fill="#F00808" d="M136.182,100.834c0.207-1.344-0.895-2.891-5.917-1.381c-0.701,0.211-1.343,0.25-1.917,0.166
		c-1.183,0.271-2.046,0.646-1.508,1.411c0.416,0.591,4.826-1.009,4.744-0.039c-0.08,0.974-1.336,0.685-2.314,1.384
		c-1.078,0.768-0.521,1.377,0.383,1.801c3.234,1.512,2.092,0.313,2.091-0.912c-0.001-0.631,0.582-1.365,1.929-1.238
		C134.797,102.133,135.862,102.896,136.182,100.834z"/>
	<path fill="#F00808" d="M124.077,89.87c-0.417-0.418,0.755-2.075,1.232-0.841c0.378,0.978,2.188-0.44,0.577-2.133
		c-0.584-0.613-0.607-1.308-0.372-1.856c-0.163-1.025-1.159-1.696-1.413-0.198c-0.328,1.919,0.191,5.306-2.686,3.879
		c-1.672-0.83-1.662-0.311-1.606,1.607c0.015,0.555,1.267,0.934,2.481,1.404C124.01,91.75,126.278,92.07,124.077,89.87z"/>
</g>
</svg>
