<?xml version="1.0" encoding="UTF-8"?>
<!DOCTYPE svg PUBLIC "-//W3C//DTD SVG 1.1//EN" "http://www.w3.org/Graphics/SVG/1.1/DTD/svg11.dtd">
<!-- Creator: CorelDRAW -->
<svg xmlns="http://www.w3.org/2000/svg" xml:space="preserve" width="238px" height="298px" version="1.1" shape-rendering="geometricPrecision" text-rendering="geometricPrecision" image-rendering="optimizeQuality" fill-rule="evenodd" clip-rule="evenodd"
viewBox="0 0 238000 298123"
 xmlns:xlink="http://www.w3.org/1999/xlink">
 <defs>
   <linearGradient id="id0" gradientUnits="userSpaceOnUse" x1="122735" y1="289359" x2="122736" y2="178463">
    <stop offset="0" stop-opacity="1" stop-color="#F00808"/>
    <stop offset="1" stop-opacity="0" stop-color="#F00808"/>
   </linearGradient>
 </defs>
 <g id="Camada_x0020_1">
  <metadata id="CorelCorpID_0Corel-Layer"/>
  <path id="d1" fill="url(#id0)" d="M48911 146779l3337 0 -2843 5163c-157,-1722 -336,-3442 -494,-5163zm1048 14179l7808 -14179 5518 0 -8724 15842 5519 0 8724 -15842 5518 0 -8724 15842 5519 0 8724 -15842 5518 0 -8723 15842 5518 0 8724 -15842 5518 0 -8723 15842 5518 0 8724 -15842 5518 0 -8723 15842 5518 0 8724 -15842 5518 0 -8723 15842 5518 0 8724 -15842 5519 0 -8724 15842 5518 0 8724 -15842 5519 0 -8724 15842 5518 0 8724 -15842 5519 0 -8724 15842 5518 0 8724 -15842 5519 0 -8724 15842 5519 0 8723 -15842 5519 0 -8724 15842 5519 0 8723 -15842 5519 0 -8724 15842 5519 0 7365 -13375c-279,2854 -558,5708 -651,8571l-148 2902 -1048 1902 950 0 -407 7972c-39,410 -72,826 -100,1246l-3648 6624 3485 0c1,1242 8,2478 4,3686l-6694 12156 5518 0 1036 -1880c25,629 53,1255 77,1880l-1113 0 -8723 15843 5518 0 4440 -8063c38,2454 104,4897 255,7439l36 624 -4731 0 -8724 15842 5519 0 8011 -14548c166,2896 330,5957 515,9085l-3008 5463 3356 0c80,1156 164,2313 254,3466l-6815 12376 5519 0 2102 -3817c148,1297 307,2572 480,3817l-2582 0 -8724 15842 5519 0 6439 -11693 101 563c394,2202 827,4591 1243,7018l-2265 4112 2939 0c195,1258 375,2504 534,3715l-6678 12127 5518 0 2025 -3677c133,1298 280,2592 436,3677l-2461 0 -8723 15843 5518 0 6480 -11767c111,1317 -62,2574 224,4063 247,1292 526,2711 820,4062l-2005 3642 2923 0c221,1064 151,2021 -971,2829 -1361,399 -2722,798 -4163,1186l2211 -4015 -5519 0 -3007 5461c-1831,343 -3844,659 -6041,949l3530 -6410 -5519 0 -3897 7076c-368,36 -741,72 -1117,106 -1493,138 -3048,265 -4671,384l4167 -7566 -5519 0 -4369 7934c-1814,101 -3703,194 -5672,279l4522 -8213 -5518 0 -4641 8427c-1797,59 -3661,112 -5605,157l4727 -8584 -5518 0 -4785 8688c-1779,25 -3626,44 -5548,55l4814 -8743 -5518 0 -4822 8756 -1344 -3c-1355,-4 -2746,-12 -4161,-22l4808 -8731 -5518 0 -4780 8680c-1821,-20 -3656,-43 -5482,-67l4743 -8613 -5518 0 -4701 8537 -5475 -80 4657 -8457 -5518 0 -4616 8382 -962 -12c-1600,-19 -3101,-35 -4523,-50l4582 -8320 -5518 0 -4549 8259c-1933,-25 -3730,-57 -5460,-105l4490 -8154 -5519 0 -4369 7935 -702 -41c-1528,-92 -3070,-207 -4606,-343l4159 -7551 -5519 0 -3862 7014c-1764,-208 -3489,-437 -5143,-682l3487 -6332 -5519 0 -3024 5493c-1751,-324 -3391,-663 -4963,-1011l2469 -4482 -5519 0 -1837 3337c-692,-169 -1379,-339 -2066,-508 -1123,-808 -1192,-1765 -971,-2829l4874 0 8724 -15843 -5519 0 -7472 13571c409,-1724 798,-3693 1131,-5432 405,-2112 -112,-3760 568,-5771 163,-480 320,-1329 470,-2368l5303 0 8724 -15842 -5518 0 -8437 15321c407,-3049 744,-7346 926,-9061 116,-1096 258,-2236 418,-3401l1574 -2859 -1155 0c587,-3786 1302,-7687 1917,-11130l74 -409 2369 -4303 -1690 0c388,-2789 708,-5728 980,-8731l3916 -7111 -3356 0c102,-1488 197,-2974 287,-4449l6274 -11393 -5519 0 -117 212 13 -212 104 0 8724 -15843 -5519 0 -2988 5428c11,-1094 21,-2197 34,-3320 7,-705 30,-1406 58,-2108l2896 0 8724 -15842 -5518 0 -5966 10833c-19,-1891 -155,-3660 -184,-5524 -21,-1342 -17,-2732 -13,-4139l644 -1170 -642 0c2,-2669 -26,-5366 -263,-7870l-23 -465 4133 -7507 -4517 0 -85 -1663zm139890 96716l-5518 0 -8724 15842 5518 0 8724 -15842zm-8724 15842l-8723 15843 5518 0 8724 -15843 -5519 0zm4097 -47526l-5518 0 -8724 15842 5519 0 8723 -15842zm-8723 15842l-8724 15842 5518 0 8724 -15842 -5518 0zm2313 15842l-5519 0 -8723 15842 5518 0 8724 -15842zm-8724 15842l-8724 15843 5519 0 8724 -15843 -5519 0zm16918 -110895l-5518 0 -8724 15842 5518 0 8724 -15842zm-8724 15842l-8723 15842 5518 0 8724 -15842 -5519 0zm2314 15842l-5519 0 -8723 15843 5518 0 8724 -15843zm-8724 15843l-8724 15842 5519 0 8724 -15842 -5519 0zm2313 15842l-5518 0 -8724 15842 5519 0 8723 -15842zm-8723 15842l-8724 15842 5518 0 8724 -15842 -5518 0zm2313 15842l-5519 0 -8723 15842 5518 0 8724 -15842zm-8724 15842l-8724 15843 5519 0 8724 -15843 -5519 0zm16918 -110895l-5518 0 -8724 15842 5518 0 8724 -15842zm-8724 15842l-8723 15842 5518 0 8724 -15842 -5519 0zm2314 15842l-5519 0 -8724 15843 5519 0 8724 -15843zm-8724 15843l-8724 15842 5519 0 8724 -15842 -5519 0zm2313 15842l-5518 0 -8724 15842 5519 0 8723 -15842zm-8723 15842l-8724 15842 5518 0 8724 -15842 -5518 0zm2313 15842l-5519 0 -8723 15842 5518 0 8724 -15842zm-8724 15842l-8724 15843 5519 0 8724 -15843 -5519 0zm16918 -110895l-5518 0 -8724 15842 5518 0 8724 -15842zm-8724 15842l-8723 15842 5518 0 8724 -15842 -5519 0zm2314 15842l-5519 0 -8724 15843 5519 0 8724 -15843zm-8724 15843l-8724 15842 5519 0 8723 -15842 -5518 0zm2313 15842l-5518 0 -8724 15842 5518 0 8724 -15842zm-8724 15842l-8723 15842 5518 0 8724 -15842 -5519 0zm2314 15842l-5519 0 -8724 15842 5519 0 8724 -15842zm-8724 15842l-8724 15843 5519 0 8724 -15843 -5519 0zm16918 -110895l-5519 0 -8723 15842 5518 0 8724 -15842zm-8724 15842l-8723 15842 5518 0 8724 -15842 -5519 0zm2314 15842l-5519 0 -8724 15843 5519 0 8724 -15843zm-8724 15843l-8724 15842 5519 0 8723 -15842 -5518 0zm2313 15842l-5518 0 -8724 15842 5518 0 8724 -15842zm-8724 15842l-8723 15842 5518 0 8724 -15842 -5519 0zm2314 15842l-5519 0 -8724 15842 5519 0 8724 -15842zm-8724 15842l-8724 15843 5519 0 8723 -15843 -5518 0zm16918 -110895l-5519 0 -8723 15842 5518 0 8724 -15842zm-8724 15842l-8724 15842 5519 0 8724 -15842 -5519 0zm2314 15842l-5519 0 -8724 15843 5519 0 8724 -15843zm-8724 15843l-8724 15842 5519 0 8723 -15842 -5518 0zm2313 15842l-5518 0 -8724 15842 5518 0 8724 -15842zm-8724 15842l-8723 15842 5518 0 8724 -15842 -5519 0zm2314 15842l-5519 0 -8724 15842 5519 0 8724 -15842zm-8724 15842l-8724 15843 5519 0 8723 -15843 -5518 0zm16918 -110895l-5519 0 -8723 15842 5518 0 8724 -15842zm-8724 15842l-8724 15842 5519 0 8724 -15842 -5519 0zm2313 15842l-5518 0 -8724 15843 5519 0 8723 -15843zm-8723 15843l-8724 15842 5518 0 8724 -15842 -5518 0zm2313 15842l-5519 0 -8723 15842 5518 0 8724 -15842zm-8724 15842l-8724 15842 5519 0 8724 -15842 -5519 0zm2314 15842l-5519 0 -8724 15842 5519 0 8724 -15842zm-8724 15842l-8724 15843 5519 0 8723 -15843 -5518 0zm16918 -110895l-5519 0 -8723 15842 5518 0 8724 -15842zm-8724 15842l-8724 15842 5519 0 8724 -15842 -5519 0zm2313 15842l-5518 0 -8724 15843 5519 0 8723 -15843zm-8723 15843l-8724 15842 5518 0 8724 -15842 -5518 0zm2313 15842l-5519 0 -8723 15842 5518 0 8724 -15842zm-8724 15842l-8724 15842 5519 0 8724 -15842 -5519 0zm2313 15842l-5518 0 -8724 15842 5519 0 8723 -15842zm-8723 15842l-8724 15843 5519 0 8723 -15843 -5518 0zm16918 -110895l-5519 0 -8724 15842 5519 0 8724 -15842zm-8724 15842l-8724 15842 5519 0 8724 -15842 -5519 0zm2313 15842l-5518 0 -8724 15843 5519 0 8723 -15843zm-8723 15843l-8724 15842 5518 0 8724 -15842 -5518 0zm2313 15842l-5519 0 -8723 15842 5518 0 8724 -15842zm-8724 15842l-8724 15842 5519 0 8724 -15842 -5519 0zm2313 15842l-5518 0 -8724 15842 5519 0 8723 -15842zm-8723 15842l-8724 15843 5518 0 8724 -15843 -5518 0zm16918 -110895l-5519 0 -8724 15842 5519 0 8724 -15842zm-8724 15842l-8724 15842 5519 0 8723 -15842 -5518 0zm2313 15842l-5518 0 -8724 15843 5518 0 8724 -15843zm-8724 15843l-8723 15842 5518 0 8724 -15842 -5519 0zm2314 15842l-5519 0 -8724 15842 5519 0 8724 -15842zm-8724 15842l-8724 15842 5519 0 8724 -15842 -5519 0zm2313 15842l-5518 0 -8724 15842 5519 0 8723 -15842zm-8723 15842l-8724 15843 5518 0 8724 -15843 -5518 0zm16918 -110895l-5519 0 -8724 15842 5519 0 8724 -15842zm-8724 15842l-8724 15842 5519 0 8723 -15842 -5518 0zm2313 15842l-5518 0 -8724 15843 5518 0 8724 -15843zm-8724 15843l-8723 15842 5518 0 8724 -15842 -5519 0zm2314 15842l-5519 0 -8724 15842 5519 0 8724 -15842zm-8724 15842l-8724 15842 5519 0 8723 -15842 -5518 0zm2313 15842l-5518 0 -8724 15842 5519 0 8723 -15842zm-8723 15842l-8724 15843 5518 0 8724 -15843 -5518 0zm16918 -110895l-5519 0 -8724 15842 5519 0 8724 -15842zm-8724 15842l-8724 15842 5519 0 8723 -15842 -5518 0zm2313 15842l-5518 0 -8724 15843 5518 0 8724 -15843zm-8724 15843l-8723 15842 5518 0 8724 -15842 -5519 0zm2314 15842l-5519 0 -8724 15842 5519 0 8724 -15842zm-8724 15842l-8724 15842 5519 0 8723 -15842 -5518 0zm10507 -79211l-5518 0 -8724 15842 5519 0 8723 -15842z"/>
  <path id="camisa_contorno" fill="none" d="M207298 27894c-110,-63 -222,-122 -337,-177 -4975,-2380 -9714,-5334 -14858,-7149 -4647,-1639 -11454,-2699 -17288,-4719 -2277,-789 -4556,-1589 -6820,-2415l-4 -30 -9999 -4080 -175 -72c-614,-280 -1553,-1207 -2512,-1889 -494,-369 -613,-563 -1038,-905 -2856,-2299 -5606,-5635 -9574,-5641 -901,-2 -1040,-123 -1779,-163l-7601 -170c-5892,-486 -12055,-501 -18060,-477 -5087,20 -9557,63 -14567,477 -2529,209 -4996,29 -7600,170 -739,40 -878,161 -1779,163 -3968,6 -6718,3342 -9575,5641 -424,342 -543,536 -1037,905 -741,527 -1471,1200 -2047,1608 -170,121 -326,218 -465,281l-10174 4152 -3 30c-2265,826 -4544,1626 -6821,2415 -5834,2020 -12641,3080 -17288,4719 -5144,1815 -9883,4769 -14858,7149 -212,101 -412,215 -605,339 -909,583 -1664,1379 -2651,2001 -11263,7099 -18243,27467 -21401,39215 -1569,5839 -1980,12983 -2969,19040 -500,3067 -1172,6193 -1752,9253 -585,3095 -872,6493 -1288,9631 -406,268 -327,-23 -308,899l-65 1854 0 8783c41,1018 102,1813 186,2164 1125,477 3706,514 5070,712 7662,1114 9041,828 15791,1554l21547 1349c-15,-1623 547,-10725 578,-13424l-603 -316 -70 -36c0,-4476 -11,-9226 -11,-13700 1678,4247 3328,18944 3789,24023 735,8116 1826,16186 2512,24347 348,4137 874,8269 1009,12419l653 12776c396,4199 208,8934 274,13179 32,2062 194,4007 186,6130 -7,2226 -172,4349 -196,6512 -51,4469 -54,8634 -319,13111 -680,11475 -1257,26076 -3267,37020 -966,5407 -2177,11944 -2754,17389 -258,2432 -827,10057 -1468,11951 -680,2010 -163,3658 -568,5770 -342,1785 -742,3812 -1164,5568 -463,1930 -1435,3647 397,4966 4276,1054 8552,2108 13913,3017 5360,909 11804,1672 18030,2048 6226,375 12232,363 21568,476 9335,112 21999,351 32523,382 10525,32 18909,-144 26242,-419 7333,-275 13615,-650 19058,-1151 5443,-501 10048,-1126 13829,-1873 3780,-746 6736,-1613 9693,-2480 1832,-1319 860,-3036 397,-4966 -422,-1756 -822,-3783 -1164,-5568 -405,-2112 112,-3760 -568,-5770 -641,-1894 -1210,-9519 -1468,-11951 -577,-5445 -1788,-11982 -2754,-17389 -2010,-10944 -2587,-25545 -3267,-37020 -265,-4477 -268,-8642 -319,-13111 -24,-2163 -189,-4286 -196,-6512 -8,-2123 154,-4068 186,-6130 66,-4245 -122,-8980 274,-13179l653 -12776c135,-4150 661,-8282 1009,-12419 686,-8161 1777,-16231 2512,-24347 461,-5079 1889,-19043 3568,-23290 0,4474 -105,8584 -105,13060l0 0 -416 247c-4,882 338,12091 604,13423l21579 -1336c6750,-726 8129,-440 15791,-1554 1364,-198 3945,-235 5070,-712 84,-351 145,-1146 186,-2164l0 -8783 -65 -1854c14,-687 62,-700 -83,-774 -50,-25 -122,-57 -225,-125 -416,-3138 -703,-6536 -1288,-9631 -580,-3060 -1252,-6186 -1752,-9253 -989,-6057 -1400,-13201 -2969,-19040 -3158,-11748 -10138,-32116 -21401,-39215 -1057,-665 -1895,-1576 -2919,-2163z"/>
 </g>
</svg>
