<?xml version="1.0" encoding="UTF-8"?>
<!DOCTYPE svg PUBLIC "-//W3C//DTD SVG 1.1//EN" "http://www.w3.org/Graphics/SVG/1.1/DTD/svg11.dtd">
<!-- Creator: CorelDRAW -->
<svg xmlns="http://www.w3.org/2000/svg" xml:space="preserve" width="187px" height="148px" version="1.1" shape-rendering="geometricPrecision" text-rendering="geometricPrecision" image-rendering="optimizeQuality" fill-rule="evenodd" clip-rule="evenodd"
viewBox="0 0 186.999 147.486"
 xmlns:xlink="http://www.w3.org/1999/xlink"
 xmlns:xodm="http://www.corel.com/coreldraw/odm/2003">
 <defs>
   <clipPath id="id0">
    <path d="M69.622 5.532c-9.32,-0.113 -15.317,-0.1 -21.532,-0.475 -6.215,-0.375 -12.649,-1.137 -18.001,-2.044 -5.351,-0.908 -9.62,-1.96 -13.89,-3.013l-2.056 6.766c-2.101,6.05 -3.233,10.386 -4.916,16.285 -0.249,0.873 -0.435,1.453 -0.642,2.333 -2.36,10.025 -4.55,19.989 -6.162,30.214 -0.554,3.516 -0.787,7.435 -1.226,10.942l-0.435 5.757c-0.045,1.83 -0.234,3.899 -0.37,5.626 -0.078,0.987 0.009,2.192 -0.003,3.205 -0.013,1.158 -0.208,1.511 -0.203,2.794 0.009,2.038 0.069,4.202 0.011,6.226 -0.028,1.013 -0.181,1.575 -0.197,2.723l0.192 9.099c-0.03,8.303 0.172,15.985 0.183,24.267 0.002,1.267 0.207,1.666 0.202,2.996 -0.004,0.925 -0.065,2.104 0.005,3.001 0.131,1.645 0.218,4.048 0.519,5.469 1.056,4.985 5.703,6.849 10.073,7.859 3.312,0.766 6.714,1.111 10.138,1.576 4.01,0.545 19.376,0.399 23.493,-0.086 6.45,-0.761 15.507,-0.276 22.162,-1.971 7.272,-1.853 6.398,-2.822 7.435,-7.425 0.87,-3.869 2.219,-13.998 3.169,-16.919 0.807,-2.484 1.721,-7.868 2.195,-10.524 0.344,-1.99 1.133,-3.678 1.718,-5.612 1.344,-4.441 1.694,-7.626 2.92,-12.169 0.377,-1.398 0.722,-2.38 1.102,-3.854 0.997,-3.864 2.19,-8.249 2.968,-12.117 0.575,-2.856 1.095,-5.36 1.653,-8.289l2.191 -12.734c0.189,-0.998 0.23,-2.248 1.182,-2.596 0.952,0.348 0.993,1.598 1.182,2.596l2.191 12.734c0.558,2.929 1.077,5.433 1.652,8.289 0.779,3.868 1.972,8.253 2.968,12.117 0.38,1.474 0.725,2.456 1.103,3.854 1.226,4.543 1.576,7.728 2.919,12.169 0.585,1.934 1.375,3.622 1.719,5.612 0.473,2.654 1.389,8.042 2.195,10.524 0.949,2.921 2.299,13.05 3.169,16.919 1.037,4.603 0.163,5.572 7.434,7.425 6.656,1.695 15.712,1.21 22.163,1.971 4.117,0.485 19.483,0.631 23.492,0.086 3.425,-0.465 6.827,-0.81 10.138,-1.576 4.371,-1.01 9.018,-2.874 10.074,-7.859 0.301,-1.421 0.388,-3.824 0.519,-5.469 0.07,-0.897 0.009,-2.076 0.005,-3.001 -0.005,-1.33 0.2,-1.729 0.202,-2.996 0.011,-8.282 0.213,-15.964 0.183,-24.267l0.191 -8.764 -0.196 -3.058c-0.058,-2.024 0.002,-4.188 0.011,-6.226 0.004,-1.283 -0.19,-1.636 -0.204,-2.794 -0.011,-1.013 0.076,-2.218 -0.002,-3.205 -0.136,-1.727 -0.325,-3.796 -0.37,-5.626l-0.436 -5.757c-0.439,-3.507 -0.671,-7.426 -1.225,-10.942 -1.612,-10.225 -3.802,-20.189 -6.162,-30.214 -0.207,-0.88 -0.394,-1.46 -0.643,-2.333 -1.682,-5.899 -2.814,-10.235 -4.915,-16.285l-2.057 -6.766c-2.951,0.866 -5.902,1.731 -9.677,2.477 -3.774,0.745 -8.371,1.369 -13.806,1.869 -5.434,0.5 -11.706,0.875 -19.026,1.15 -7.321,0.274 -15.692,0.449 -26.199,0.418 -10.507,-0.031 -23.15,-0.269 -32.47,-0.382z"/>
   </clipPath>
 </defs>
 <g id="VETORES">
  <metadata id="CorelCorpID_0Corel-Layer"/>
  <g>
  </g>
  <g clip-path="url(#id0)">
   <g id="_1761688810672">
    <path id="_1c" fill="#ECD407" fill-rule="nonzero" d="M6.709 143.348c-0.333,-0.738 -0.862,-1.295 -0.68,-1.509 0.48,0.23 0.65,0.849 1.109,1.219 0.061,-0.57 -0.479,-0.91 -0.449,-1.389 0.109,-0.06 0.23,-0.09 0.369,-0.11 -0.26,-0.34 -0.45,-0.679 -0.679,-0.959 0.28,-0.62 -0.23,-1.08 -0.54,-1.589 0.2,-0.061 0.34,-0.14 0.45,-0.231 -0.03,-0.679 -0.85,-0.709 -1.05,-1.359 0.431,-0.06 0.14,-0.509 0.231,-0.769 1.299,0.65 1.979,1.789 2.688,2.948 0.581,-0.477 -1.683,-2.989 -1.669,-3.708 0,-0.709 -0.85,-1.159 -0.769,-1.419 0.08,-0.37 -0.2,-0.6 -0.34,-0.879 0.101,-0.101 0.308,-0.755 0.929,-0.2 0.807,0.72 0.11,0.39 0.769,1.049 0.11,-0.23 0.2,-0.429 0.31,-0.599 -0.43,-0.45 -0.849,-0.91 -1.249,-1.359 0.45,-0.62 -0.34,-1.13 -0.939,-1.81 0.643,-0.307 1.44,0.077 -0.45,-1.508 -0.23,-0.2 -0.06,-0.54 -0.14,-0.85 0.28,0.11 0.509,0.17 0.789,0.23 -0.09,-0.26 -0.23,-0.509 -0.369,-0.74 0.429,0.03 0.649,0.65 0.939,0.57 0.8,-0.239 -1.125,-1.143 -0.85,-1.699 1.979,1.202 0.698,-0.963 1.19,-0.569 0.45,0.23 0.789,0.879 1.389,0.879 -0.31,-0.94 -1.959,-1.619 -1.589,-2.609 0.569,0.26 0.849,1.159 1.449,1.11l-0.8 -1.16c-0.824,-1.924 -1.929,-2.352 -1.929,-3.118 0.45,0.34 0.77,0.94 1.36,0.77 -0.231,-0.45 -0.03,-0.65 0,-1.05 0.139,-0.619 -0.48,-1.529 -0.57,-2.268 -0.085,-0.869 0.913,0.019 0.91,-0.23 -0.031,-1.189 -1.98,-2.318 -1.96,-3.628 0,-0.09 0.26,-0.06 0.34,-0.03 0.43,0.28 0.45,1.22 1.11,1.08 -0.08,-0.28 -0.08,-0.6 -0.17,-0.959 2.22,1.82 1.964,3.226 3.318,3.428 -1.389,-1.56 -2.439,-3.458 -3.738,-5.127 -0.2,-0.2 -0.2,-0.71 -0.43,-1.11 0.48,0.23 0.82,1.08 1.36,0.82 -0.17,-0.31 -0.45,-0.62 -0.37,-0.769 0.67,-1.169 -1.476,-1.931 -0.76,-2.179 0.11,-0.03 0.31,-0.06 0.48,0.03 -0.26,-0.17 -0.34,-0.57 -0.65,-0.71 0.34,-0.11 0.6,0.2 0.879,0.31 0.072,-1.519 -2.718,-1.906 -2.718,-2.859 0.899,0.249 2.874,2.344 2.948,1.789 0.14,-0.879 -1.219,-1.079 -1.559,-1.838 -0.17,-0.37 0.51,-0.37 0.85,-0.231 0.003,0.002 1.983,1.461 1.809,0.62 -0.09,-0.429 -0.65,-0.539 -0.62,-0.989 1.419,0.71 2.349,2.209 3.228,3.598 0.06,0 0.11,0.03 0.2,0.03 -0.59,-2.709 -3.058,-4.038 -4.897,-5.837 0.56,-0.06 1.219,0.64 1.469,0.17 0.309,-0.51 -0.57,-0.909 -1.02,-1.249 0.57,-0.34 0.54,-1.08 1.08,-1.419 0.283,-0.226 -2.193,-1.73 -2.529,-2.219 0.08,0.09 0.26,0.03 0.31,-0.09 0.06,-0.45 -0.54,-0.649 -0.71,-1.079 1.16,0 2.379,1.839 3.518,0.54 0.03,-0.06 0.4,0 0.68,0.139 -0.57,-0.6 -1.05,-0.959 -1.39,-1.729 -0.34,-0.739 -1.249,-0.959 -1.699,-1.699 0.2,-0.139 0.71,0.28 0.54,-0.199 -0.09,-0.231 -0.48,-0.62 -0.14,-0.79 0.34,-0.14 0.79,0.11 0.96,0.51 0.34,-0.62 -0.2,-1.05 0.029,-1.5 -0.739,0.2 -1.019,-0.739 -1.559,-1.079 0.577,-0.188 0.853,0.758 1.189,0.42 -0.996,-1.073 -0.099,-1.581 0.57,-0.59 0.03,0.06 0.17,0.11 0.23,0 0.2,-0.34 -0.34,-0.74 0.03,-1.08 0.17,-0.17 0.569,0.37 0.65,-0.09 0.089,-0.509 -0.11,-0.989 -0.17,-1.468 0.749,0 -1.136,-2.489 -1.31,-2.699 0.971,0.302 1.92,2.256 2.459,1.679 0.32,-0.343 -0.478,-1.956 0.19,-1.439 0.6,0.399 0.65,1.249 1.419,1.529 -0.709,-0.91 -1.079,-2.918 -2.378,-2.408 -0.03,0.309 0.2,0.479 0.37,0.739 -1.666,-0.208 -0.511,-3.773 -1.76,-5.237 0.809,0.404 1.311,1.148 1.759,1.869 0.088,-0.392 0.791,0.31 0.171,0.31 0.539,0.85 1.019,1.669 1.838,2.239 -0.849,-2.719 -3.258,-4.448 -3.228,-6.006 0.57,0.28 0.68,1.219 1.449,1.129 -0.679,-0.959 -0.82,-2.129 -1.049,-3.228 0.09,0.06 0.17,0.09 0.28,0.2 -0.14,-0.4 -0.23,-0.65 -0.34,-0.91 0.2,-0.11 0.34,-0.199 0.45,-0.23l1.189 0.74c0.43,0.48 0.82,0.989 1.419,1.329 -0.2,-0.679 -1.019,-1.559 -1.079,-1.619 -0.14,-0.48 -0.37,-0.939 -0.65,-1.329l-0.619 -1.39c0.539,0.31 0.739,0.85 1.219,1.11 0.28,-0.679 0,0.26 -0.2,-1.469l-0.72 -1.959c0.08,0.06 0.17,0.14 0.26,0.14 0,-0.03 0,-0.06 -0.03,-0.14 0.622,0.93 1.424,0.542 1.33,0.28 -0.11,-0.23 -0.2,-0.45 -0.31,-0.68 0.758,-1.083 0.299,-0.007 -1.049,-2.698l0.029 -0.03c0.23,0.54 0.91,0.6 1.33,0.2 -0.43,-0.34 -0.96,-0.989 -0.96,-1.639 0.37,0.14 0.62,0.37 0.74,0.06 -0.17,-0.26 -0.31,-0.54 -0.45,-0.769 0.43,-0.43 0.74,0.03 1.109,0.089 -0.34,-0.399 -0.619,-0.819 -0.849,-1.249 0.06,-0.06 0.09,-0.11 0.14,-0.139 -0.2,-0.37 -0.23,-0.4 -0.26,-0.77 0.394,-0.139 1.568,1.809 1.789,1.699 0.11,0.2 0.23,0.26 0.45,0.31 -0.08,-0.37 -0.34,-0.619 -0.57,-0.85 -0.08,-0.199 -0.6,-1.219 -0.82,-1.589 0.191,-0.572 -0.409,-1.088 -0.879,-1.559 1.208,0.496 0.216,0.827 2.778,2.189 -0.4,-1.559 -1.559,-2.438 -2.578,-3.397l0.229 -1.14c0.498,0.593 1.011,1.453 1.31,1.199 -0.23,-0.569 -0.88,-0.939 -0.94,-1.619 0.62,0.34 0.88,1.11 1.249,1.729 -0.11,-0.45 -0.34,-0.82 -0.569,-1.189 0.375,0.496 1.227,1.671 1.839,1.838 -0.34,-0.931 -2.639,-3.471 -2.639,-3.937 0.2,-0.2 0.23,-0.11 0.51,-0.23l-0.65 -1.309c1.498,1.345 1.623,2.144 2.299,1.838 -0.23,-0.599 -0.91,-0.819 -1.219,-1.448 0.08,-0.57 -0.09,-1.08 -0.54,-1.56 0.26,0.11 0.28,0.4 0.45,0.57 -0.03,-0.31 -0.14,-0.68 -0.2,-1.049 0.03,-0.03 0.03,-0.06 0.08,-0.09 -0.306,-0.153 -0.347,-1.421 0.34,-1.979 0.26,0.68 1.049,0.789 1.499,1.249 -0.37,-1.019 -0.769,-2.008 -1.049,-3.058 0.14,0.11 0.309,0.14 0.43,0 -0.543,-1.274 -0.818,-1.419 -0.71,-2.528 0.897,0.811 0.83,1.351 1.279,1.019 -0.416,-0.644 -1.322,-1.528 -0.939,-1.869 0.552,-0.492 1.088,0.695 1.529,0.969 0.16,-0.452 0.177,-0.514 -0.32,-1.419 0.03,0 0.03,0.03 0.06,0.03 -0.06,-0.71 -0.849,-1.05 -1.189,-1.589 0.28,-0.06 0.509,0.26 0.679,0.2 0.26,0.259 0.09,0.11 0.51,0.259 -0.538,-1.121 -1.078,-1.32 -0.769,-1.529 0.23,-0.14 0.429,0.74 0.679,0.28 0.263,-0.466 -0.569,-0.606 -0.569,-1.36 0.23,0.2 0.539,0.45 0.849,0.31 -0.09,-0.11 -0.17,-0.23 -0.26,-0.37 0.2,0.17 0.43,0.34 0.6,0.54 0.677,-1.502 -0.213,-0.683 -1.219,-2.598 0.344,-0.345 1.77,1.762 2.448,1.868 -0.159,-1.137 -1.672,-2.003 -1.809,-2.388 0.45,-0.43 0.79,-0.03 1.16,0.03 -0.34,-0.34 -0.71,-0.65 -1.28,-0.54 -0.359,-2.035 -0.629,-0.826 -0.799,-1.679 2.437,1.329 1.68,1.264 3.518,3.168 0,-0.14 0,-0.34 -0.09,-0.479 -0.09,-0.201 0.11,-0.4 0.09,-0.62 -1.336,-0.441 -0.707,-0.954 -1.19,-1.729 0.17,-0.17 0.31,-0.31 0.48,-0.48 -0.28,-0.17 -0.51,-0.31 -0.74,-0.48 0.138,-0.785 0.309,0.012 -1.05,-1.759 0.533,-0.436 0.557,0.138 1.25,0.57 0.2,-0.11 0.51,-0.11 0.6,-0.45 -1.249,-1.249 -2.489,-2.469 -3.738,-3.678 -0.309,-0.31 -0.17,-0.34 -0.11,-0.509 0.643,0.563 1.542,1.686 2.239,1.958 0.17,0.06 0.43,-0.139 0.37,-0.28 -0.26,-0.679 0.479,-0.449 0.139,-1.079 -0.029,-0.06 0,-0.11 0,-0.2 0.14,-0.06 0.28,-0.11 0.4,-0.17 0.2,0.23 0.14,0.68 0.679,0.51 -0.309,-0.65 -0.619,-1.28 -0.909,-1.809 0.34,-0.88 0.17,-0.57 0.679,-1.359 -0.28,-0.45 -0.539,-0.94 -0.819,-1.449 1.046,-0.824 -0.256,-0.548 0.369,-1.19 0.558,0.719 0.999,1.527 1.31,1.159 -0.37,-0.959 -0.45,-1.928 -0.11,-2.978 0.17,-0.399 -0.23,-0.989 -0.03,-1.449 0.45,-0.03 0.62,0.48 1.109,0.54l-0.51 -1.729c0.664,0.262 0.95,1.177 1.16,1.789 0.339,-0.68 -0.504,-0.668 0.15,-1.929 -0.032,-0.04 -1.662,-3.185 -0.68,-3.168 0.28,0.03 0.28,0.51 0.62,0.48 -0.11,-0.57 -0.2,-1.11 -0.31,-1.619 0.585,0 0.748,1.919 1.309,1.759 -1.304,-3.911 0.142,-1.093 -1.239,-5.038 -0.34,-0.849 -0.34,-0.539 -0.14,-0.939 0.4,0.26 0.37,0.79 0.74,1.129l0.28 -1.129c0.794,-1.251 -0.003,-1.164 -0.23,-2.409 0,-0.029 0.06,-0.09 0.11,-0.139 0.17,0.11 0.31,0.309 0.6,0.599 -0.03,-0.45 -0.06,-0.819 -0.08,-1.189 0.961,0.625 0.956,0.909 1.189,0.6 0,0.06 0.03,0.06 0.03,0.06l0 -0.06c0.746,1.156 0.689,2.321 1.249,2.698 -0.193,-0.703 -0.975,-3.775 -1.479,-4.197 0.06,0.369 0.09,0.769 0.11,1.129 -0.156,-0.135 -0.552,-0.953 -0.14,-1.129l0.17 -0.88c-0.88,-1.081 0.517,-1.353 -0.45,-2.498 -0.26,-0.31 -0.17,-0.62 0.06,-0.939 0.057,0.253 0.553,1.406 0.94,1.019 -0.08,-0.34 -0.17,-0.619 -0.26,-0.939 0.23,-0.09 0.4,-0.11 0.62,-0.2l-0.34 -1.479c0.45,0.23 0.45,0.819 0.85,1.159 0.205,-0.617 -0.607,-1.409 0.26,-1.409 -0.14,-0.37 -0.26,-0.65 -0.43,-0.99 0.45,-0.539 0.06,-1.019 -0.14,-1.499 0.23,-0.09 0.4,-0.14 0.54,-0.2 0.08,-0.399 -0.17,-0.569 -0.4,-0.779 -1.369,-0.32 -2.708,-0.65 -4.058,-0.98l-2.068 6.766c-5.476,16.767 -8.853,31.034 -11.694,48.81 -1.14,7.134 -1.425,15.16 -2.039,22.317 -0.09,0.989 0,2.208 0,3.228 0,1.129 -0.2,1.499 -0.2,2.778 0,2.039 0.06,4.198 0,6.236 -0.03,1.02 -0.17,1.56 -0.2,2.719l0.2 9.094c-0.03,8.305 0.17,15.981 0.2,24.276 0,1.249 0.2,1.669 0.2,2.998 0,2.708 -0.007,5.916 0.509,8.445 0.49,2.319 1.759,3.958 3.408,5.157 -0.15,-0.21 -0.31,-0.419 -0.46,-0.649 0.392,0.05 0.956,0.964 1.44,1.249 -0.021,0 -0.03,0 -0.05,0.01 0.02,0 0.029,0.02 0.05,0.029 0,0 0,0 0,-0.009l0.919 0.499c-0.07,-0.14 -0.14,-0.279 -0.21,-0.419 0.17,-0.09 0.34,-0.14 0.51,-0.2l-0.008 0.071zm-1.28 -10.624c0.08,0.23 0.11,0.11 -0.09,0.26 -0.03,-0.09 -0.06,-0.11 -0.11,-0.14 0.08,-0.029 0.14,-0.089 0.2,-0.11l0 -0.01zm-0.48 -5.047c0.06,0.091 0.081,0.17 -0.06,0.11 0.03,-0.06 0.06,-0.089 0.06,-0.11zm2.999 -39.806c0.03,0.2 -0.11,0.23 -0.26,0.2 -0.11,-0.26 -0.23,-0.48 -0.37,-0.849 0.4,0.11 0.54,0.34 0.62,0.649l0.01 0zm5.976 -47.961c0.061,0 0.11,0 0.2,0.03 -0.09,0.06 -0.169,0.11 -0.23,0.2l0.03 -0.23zm-1.559 -3.397c0,0 0,0.06 0,0.11 -0.2,-0.03 -0.11,0 -0.23,-0.17 0.11,0 0.17,0.029 0.23,0.06zm-0.679 1.498c1.415,1.163 0.887,0.307 1.729,1.36 -0.707,0 -1.101,-0.568 -2.209,-1.509 0.28,-0.09 0.37,0.06 0.48,0.139l0 0.01zm4.897 -19.288c0,0 -0.03,0.06 -0.06,0.09 -0.03,-0.06 -0.03,-0.11 -0.06,-0.139 0.03,0 0.09,0.029 0.11,0.06l0.01 -0.011zm1.219 -13.402c0.28,0.28 0.43,0.71 0.79,0.94 -0.594,0.172 -0.679,-0.203 -1.159,-1.22 0.23,0 0.28,0.17 0.369,0.28zm-1.619 17.85c-0.23,-0.06 -0.37,-0.17 -0.37,-0.48 0.26,0.03 0.37,0.2 0.37,0.48zm-0.789 -10.114c0.34,0.369 0.599,0.769 0.939,1.279 -0.666,-0.086 -0.098,0.243 -1.109,-1.159 0.06,-0.06 0.11,-0.06 0.17,-0.11l0 -0.01zm-1.669 5.806c0,0 0.029,0.11 0.06,0.14 -0.06,0.03 -0.11,0.03 -0.17,0.03 -0.03,-0.09 -0.03,-0.11 -0.03,-0.17 0.03,0 0.11,-0.03 0.14,0l0 0zm-1.05 14.761c0.06,-0.11 0.14,-0.03 0.37,0.2 -0.402,0.269 -0.379,-0.188 -0.37,-0.2zm-0.599 -0.54c0.06,0.03 0.11,0.03 0.17,0.061 0,0.029 -0.03,0.06 -0.03,0.089 -0.06,-0.029 -0.11,-0.029 -0.14,-0.06 -0.03,0 0,-0.029 0,-0.09l0 0zm-2.979 38.297c0,0 0,0.09 0.03,0.2 -0.23,-0.09 -0.43,-0.17 -0.6,-0.26l0.57 0.06zm-0.509 -0.619c0.139,0.23 0.029,0.399 -0.091,0.569 -0.089,-0.23 -0.139,-0.45 -0.23,-0.679 0.2,-0.11 0.261,0 0.31,0.11l0.011 0zm-2.979 8.215c0.03,0.06 0.06,0.089 0.09,0.11l0 0.06 -0.09 -0.17zm-0.37 12.352c0,0 0.03,0.03 0.06,0.03 0,-0.03 -0.08,0.51 -0.06,-0.03zm-0.429 3.738c-0.187,-0.02 -0.337,-0.123 -0.45,-0.31 0.26,-0.03 0.34,0.17 0.45,0.31zm-0.26 2.009l-0.23 0.03c0,-0.17 0.11,-0.09 0.23,-0.03l0 0zm-0.65 9.264c0,0 0.03,-0.09 0.03,-0.09 0.09,0.06 0.11,0.06 0.11,0.14 -0.06,0 -0.09,-0.06 -0.14,-0.06l0 0.01zm-0.06 -7.505c0.11,0.09 0.2,0.2 0.28,0.28l-0.28 -0.28zm0.03 0.819c-0.479,0 -0.509,-0.37 -0.819,-0.569 0.34,0 0.599,0.199 0.819,0.569zm-0.909 -2.268c0.2,0.06 0.279,0.23 0.449,0.279 -0.259,0.23 -0.309,-0.14 -0.509,-0.2 0.03,-0.029 0.06,-0.06 0.06,-0.089l0 0.01zm0.509 30.001c0,-0.28 0.06,-0.28 0.06,0l-0.06 0zm-0.449 -7.935c0.26,0.06 0.37,0.26 0.509,0.57 -0.309,-0.2 -0.539,-0.26 -0.509,-0.57zm1.559 -10.514c-0.28,-0.06 -0.23,-0.199 -0.17,-0.369 0.06,0.11 0.11,0.23 0.17,0.369zm-0.45 19.179l0.03 0c-0.03,0.31 -0.03,0.06 -0.03,0zm0 -19.548l0 0zm0.28 26.484l0.02 -0.06c0,0.03 -0.03,0.03 -0.03,0.06l0.01 0zm-0.03 -11.223c0.03,-0.06 0.06,-0.11 0.11,-0.17 0,0.089 0.11,0.17 0.14,0.199 0,0.09 -0.03,0.17 -0.26,-0.029l0.01 0zm0.6 11.902c-0.06,-0.11 -0.11,-0.199 -0.14,-0.28 -0.118,0 0.446,-0.208 0.14,0.28zm2.948 8.695c0,0.09 0.03,0.09 0.06,0.09 -0.03,-0.06 -0.03,-0.09 -0.06,-0.11l0 0.02zm-0.2 -17.389c-0.09,0.11 -0.31,0.139 -0.26,0.369 0.107,0.196 0.777,0.193 0.26,-0.369zm0 -0.03l0 0.03c0,0 0,-0.03 0,-0.03zm1.959 -57.516c-0.247,0.494 0.342,0.907 0.62,0.99l-0.62 -0.99zm0.589 9.804c0.06,-0.089 0.06,-0.109 -0.139,-0.259l0.139 0.259zm-3.538 33.35c0,0 0.03,0.03 0.03,0.06 0.06,-0.03 0.08,-0.06 0.14,-0.06 -0.11,-0.11 -0.06,-0.03 -0.17,0l0 0zm3.229 -43.543c0.127,-0.727 -0.93,-0.353 -0.12,0.059 0.03,0.03 0.11,-0.03 0.11,-0.06l0.01 0.001zm-1.47 19.548l0 -0.03c0,0 0,0.03 0,0.03zm4.328 -40.595c0,0 0.03,-0.11 0.03,-0.14l-0.11 0c0.03,0.06 0.06,0.11 0.09,0.14l-0.01 0zm-0.14 -1.359c0,0 0.03,-0.03 0.06,-0.03 -0.14,-0.2 -0.17,-0.17 -0.06,0.03zm-5.577 49.06c0.17,-0.14 0.26,-0.26 -0.06,-0.06 0.03,0.03 0.03,0.06 0.06,0.06zm1.389 -7.106c0.231,0.57 0.261,0.57 0.68,0.68 -0.14,-0.37 -0.31,-0.65 -0.68,-0.68zm-0.739 15.291c0.14,0.17 0.28,0.279 0.43,0.449 0,-0.279 -0.14,-0.449 -0.43,-0.449zm1.639 -24.755c-0.03,-0.14 0.11,-0.45 -0.2,-0.2 0,0.06 0.03,0.17 0.08,0.23l0.12 -0.03zm11.474 -71.927l0 -0.06c0,0 -0.06,0.06 -0.06,0.06l0.06 0zm-3.788 17.02c0.06,0.06 0.11,0.14 0.17,0.23 0.229,-0.115 0.252,-0.537 -0.17,-0.23zm-2.359 13.322c0.65,0.96 1.449,1.699 2.009,2.638 -0.102,-0.834 -0.875,-2.939 -2.009,-2.628l0 -0.01zm0.71 -7.876c0,0 0.06,0.06 0.089,0.091 0.14,-0.14 0.14,-0.2 -0.089,-0.091zm-6.937 51.899c0.45,0.85 1.08,1.669 1.79,2.319 -0.038,-0.38 -1.379,-2.436 -1.779,-2.319l-0.011 0zm10.564 -71.506c0.11,0.029 0.2,0.109 0.34,0.139 -0.093,-0.113 -0.206,-0.16 -0.34,-0.139zm-0.569 7.875c0,0.089 0,0.139 0.03,0.23 0,-0.09 -0.03,-0.14 0,-0.2 0,0 -0.01,-0.01 -0.03,-0.03zm-0.709 -2.009c-0.091,0.789 0.089,1.329 0.709,2.009 -0.12,-0.858 0.01,-1.796 -0.709,-2.01l0 0.001zm-1.98 14.361c0.081,0.14 0.17,0.31 0.26,0.45 0.061,-0.309 -0.06,-0.45 -0.26,-0.45zm-5.216 53.937l0.279 0.17c-0.17,0 0.231,-0.649 -0.279,-0.17zm1.788 -31.75l0 0zm0.99 -3.718l0.03 -0.029c0,0.06 -0.17,-0.2 -0.03,0.029zm-3.288 31.221c0,0.838 0.524,-0.085 0,0zm2.328 -25.274c0,0 0,0.03 0.03,0.03 0.06,-0.28 0,-0.28 -0.03,-0.03zm0.03 0.229c0,0 0.03,0.09 0.06,0.09 0.09,-0.17 0,-0.2 -0.06,-0.279 -0.03,0.089 0,0.139 0,0.199l0 -0.01zm-0.31 -1.668c0.03,0.309 0.17,0.539 0.54,0.709 0.03,-0.429 -0.23,-0.599 -0.54,-0.709zm6.737 -42.755c0,0 -0.03,0.03 -0.03,0.03l0.03 0 0 -0.03zm-10.844 73.006c0.06,0.09 0.09,0.14 0.17,0.17 -0.06,-0.09 -0.11,-0.23 -0.2,-0.31 0,0.06 0,0.11 0.03,0.14zm14.472 -81.411c-0.03,-0.25 -0.07,-0.48 -0.11,-0.679 -0.18,-0.04 -0.35,-0.081 -0.53,-0.12 0.18,0.369 0.33,0.759 0.49,1.139 0.2,-0.09 0.14,-0.23 0.14,-0.34l0.01 0zm157.771 109.204c-0.65,-0.649 -0.739,-0.709 -1.219,-0.649 0.34,0.309 0.6,0.599 1.219,0.649zm-0.99 -9.634c-0.06,-0.54 -0.509,-0.11 -0.23,0.17 0.11,-0.06 0.23,-0.14 0.23,-0.17zm0.91 4.707c0,0 -0.06,-0.11 -0.11,-0.17 -0.03,0.06 -0.09,0.11 -0.11,0.14 0.06,0.14 0.17,0.11 0.23,0.03l-0.01 0zm-2.468 -22.157c-0.11,-0.2 -0.28,-0.309 -0.45,-0.139 0,0.029 0.11,0.109 0.139,0.17 0.11,-0.03 0.2,-0.03 0.31,-0.03l0.001 -0.001zm0.769 43.974c-0.23,-0.789 -0.4,-0.959 -0.879,-0.989 0.17,0.479 0.509,0.769 0.879,0.989zm-0.26 4.637c0.06,0.03 0.08,0.17 0.2,0.03 -0.03,-0.03 -0.06,-0.09 -0.09,-0.11 -0.06,0.03 -0.06,0.09 -0.11,0.09l0 -0.01zm2.239 -28.632c-0.03,-0.09 0,-0.17 -0.26,-0.03 0.06,0.03 0.06,0.06 0.06,0.14 0.06,-0.03 0.11,-0.06 0.2,-0.11zm-0.85 -0.68c0.224,1.269 0.819,-0.289 0,0zm0.79 9.714c0.14,-0.26 -0.2,-0.11 -0.26,-0.26 -0.14,0.17 0.17,0.43 0.26,0.26zm-2.998 1.759c0,0 -0.03,0 -0.03,0.03 0,-0.03 -0.17,0.2 0.03,-0.03zm-2.499 -53.008c-0.06,-0.03 -0.08,0 -0.17,-0.06 0,0.03 -0.03,0.09 -0.03,0.11 0.09,0.03 0.11,0.03 0.2,-0.06l0 0.01zm2.359 13.942c-0.06,0.06 0.17,-0.65 -0.23,0.139 0.09,0.03 0.139,0 0.23,0.03 0,-0.03 0.03,-0.11 0,-0.17l0 0.001zm4.158 28.972l0 0.2c0.079,-0.17 0.06,-0.14 0,-0.2zm-7.277 -51.638c-0.029,-0.11 0,-0.09 -0.109,-0.09 0.06,0.14 0.029,0.11 0.109,0.09zm0.82 11.842c0,0 -0.03,-0.03 -0.03,-0.06 -0.029,0.03 -0.029,0.11 0,0.14 0,0 0.03,-0.06 0.03,-0.09l0 0.01zm0.54 0.54c-0.11,-0.23 -0.34,-0.14 -0.14,0.06 0.03,0.029 0.09,-0.06 0.14,-0.06zm1.619 7.415c0,0 -0.06,0.03 -0.06,0.03 0.03,-0.03 0.06,0.26 0.06,-0.03zm0.59 51.029c-0.03,-0.309 -0.14,-0.479 -0.54,-0.569 0.11,0.31 0.28,0.48 0.54,0.569zm2.608 -44.083c-0.28,-0.11 -0.569,-0.57 -0.909,-0.31 0.199,0.34 0.429,0.45 0.909,0.31zm-3.658 2.549c-0.399,-0.26 -0.619,-0.48 -1.049,-0.45 0.622,0.54 0.669,0.563 1.05,0.449l-0.001 0.001zm-1.589 -14.312c0.17,0.06 0.28,0.14 0.43,0.23 -0.03,-0.23 -0.14,-0.399 -0.43,-0.23zm4.767 39.127c0.17,0.139 0.2,0.139 0.06,-0.03 -0.029,0 -0.06,0.03 -0.06,0.03zm-11.254 -89.856c0.11,0.09 0.23,0.11 0.34,-0.06 -0.769,-0.62 -1.669,-1.08 -2.578,-1.559 0.74,0.539 1.469,1.079 2.239,1.618l-0.001 0.001zm0.46 3.938c0.061,0.06 0.14,0.11 0.231,0.17 0.03,-0.09 0.06,-0.11 0.06,-0.17 -0.2,-0.03 -0.26,-0.09 -0.28,0l-0.011 0zm-1.649 -10.344c0,-0.06 0.03,-0.14 0.06,-0.2 -0.569,-0.31 -1.049,-0.74 -1.699,-0.989 -1.529,-0.48 -1.839,-1.16 -3.707,-1.929 0.429,0.57 0.789,0.879 1.389,1.159l3.968 1.949 -0.011 0.01zm-0.25 3.168c-0.37,-0.23 -0.769,-0.43 -1.159,-0.619 -0.03,0.06 -0.09,0.139 -0.11,0.17 0.31,0.449 0.71,0.819 1.279,1.019 0.383,-0.382 0.007,-0.569 -0.01,-0.57zm1.16 44.423l0.62 0.18c-0.2,-0.17 -0.37,-0.31 -0.62,-0.17l0 -0.01zm1.109 -41.755c-0.23,-0.199 -0.43,-0.369 -0.65,-0.399 0.03,0.37 0.31,0.399 0.65,0.399zm0.99 46.912c0.139,0.23 0.309,0.369 0.619,0.369 -0.17,-0.279 -0.34,-0.369 -0.619,-0.369zm-0.6 -27.533c0,0 -0.06,0 -0.08,0.03l0.14 -0.031c0,0 -0.03,-0.029 -0.06,0l0 0.001zm-0.22 7.225c0.03,0.09 0,0.06 0.11,0.06l-0.12 -0.06 0.01 0zm4.108 6.087c-0.31,-0.43 -0.65,-0.65 -1.02,-0.74 0.26,0.34 0.54,0.6 1.02,0.74zm3.538 4.447c0,-0.09 0,-0.11 -0.03,-0.14l0.03 0.14zm-13.683 -35.359c0,0 -0.06,0.061 -0.09,0.061 0.06,0.06 0.14,0.109 0.2,0.199 0.03,-0.17 0.08,-0.17 -0.11,-0.26zm16.261 115.65c-0.03,0.06 -0.06,0.09 -0.06,0.09 0.08,0.06 0.08,0.03 0.06,-0.09zm-16.06 -131.76c0.399,0.939 1.928,1.159 2.488,2.239 -0.74,0.23 -1.559,-0.65 -2.069,-0.37 3.61,2.192 1.36,1.089 2.929,2.379 -0.94,-0.06 -1.619,-0.71 -2.299,-0.68 1.055,1.241 1.11,0.241 3.119,2.249 -0.333,0.773 0.052,0.878 -0.231,0.939 -0.709,-0.11 -1.359,-0.569 -2.239,-0.739 1.593,1.484 2.118,0.281 2.889,2.528 -0.14,0.11 -0.28,0.2 -0.48,0.31 0.848,0.628 3.83,1.959 4.278,2.838 -0.745,-0.111 -2.807,-1.775 -4.897,-2.609 0.207,0.619 1.939,1.571 2.609,2.05 -0.28,0.28 -0.14,0.11 -0.34,0.199 -1.584,0.641 2.159,1.774 1.279,2.349 -0.849,-0.45 -1.699,-0.909 -2.549,-1.359 -0.479,0.26 -0.369,0.14 -0.509,0.43 0.685,0.458 2.29,1.451 2.329,1.959 0.369,0.09 0.26,0.45 0.45,0.649l2.158 1.959c-0.499,0.289 -1.295,-1.088 -1.699,-0.17l1.869 1.959c0.06,0.06 0.03,0.17 0.09,0.45 -1.247,-1.001 -2.355,-2.253 -2.548,-1.649 0.309,0.37 0.619,0.739 0.939,1.109 -0.14,0 -0.26,-0.03 -0.48,-0.03 0.799,1.231 1.65,1.578 1.02,1.729 -0.48,-0.43 -1.13,-0.619 -1.759,-1.019 0.029,0.2 0.029,0.309 0.06,0.37 0.879,1.049 1.759,2.129 2.658,3.198 0.09,0.11 0.37,0.17 0.37,0.23 -0.06,0.509 0.45,0.789 0.45,1.249 -2.427,-1.138 -3.51,-3.7 -4.078,-3.008 0.68,0.619 1.759,1.469 2.149,2.238 -0.11,0.091 -0.23,0.17 -0.37,0.31 0.672,0.672 0.939,0.641 0.99,1.41l-2.579 -2.269c-0.06,0.45 0.6,0.65 0.28,1.049 -0.06,0.09 0.99,0.74 1.16,0.85 -0.496,0.842 0.975,1.577 2.348,3.548 0.26,0.37 0.51,0.82 0.91,0.789 -0.37,0.23 -0.06,0.54 0,0.82 -0.786,0.279 -0.958,-0.435 -2.359,-1.34 -0.137,0.782 0.44,0.615 0.66,1.25 0.531,1.533 2.51,2.945 2.409,3.238 -0.757,-0.171 -2.077,-1.813 -2.289,-1.279 0.492,0.652 0.895,0.694 0.66,0.929l-1.449 -0.59c0.14,0.79 0.849,1.219 1.189,1.929 -0.259,-0.03 -0.45,-0.06 -0.739,-0.09l2.129 2.379c-0.776,0.244 -0.128,-0.066 -1.31,0.089l1.61 1.449c0.11,0.09 0.17,0.17 0.029,0.31 -0.817,-0.497 -1.668,-1.219 -1.869,-0.91 0.2,0.54 0.85,0.62 1.16,1.16 -0.913,0 -2.334,-1.79 -2.489,-1.17 0.51,0.57 1.159,0.989 1.699,1.529 -0.14,0.23 0.2,0.54 0.4,0.71 0,0.09 0,0.2 -0.03,0.28 0.48,0.34 0.989,0.65 1.469,1.019 0.03,0.14 -0.09,0.77 -0.45,0.65l-3.538 -2.409c-0.14,-0.139 -0.31,-0.34 -0.569,-0.11l3.378 2.639c0.139,0.31 0.369,0.509 0.769,0.569 0,0 0.03,0.09 0.06,0.17 -0.11,0.09 -0.23,0.17 -0.34,0.23 0.11,0.51 0.77,0.74 0.79,0.79 0.06,0.11 0.139,0.28 0.23,0.399l-2.069 -0.989c-0.897,-0.543 -2.622,-1.695 -3.598,-1.868l5.917 4.057c-0.34,-0.09 -0.71,-0.14 -1.05,-0.23 -0.848,-0.38 -2.508,-1.981 -2.748,-1.529 1.049,0.849 1.159,0.959 1.279,1.389 -0.725,-0.37 -1.481,-0.934 -1.619,-0.589l1.459 1.009c0.45,0.789 1.07,1.379 1.749,1.939 -0.06,-0.03 -0.11,-0.03 -0.17,-0.06 -0.115,0.424 0.019,0.638 0.42,0.509 -0.06,-0.139 -0.11,-0.259 -0.17,-0.369l1.329 1.369c-1.699,-0.23 -2.688,-1.839 -4.138,-2.608 1.48,1.958 3.645,3.055 5.297,4.707 -0.14,-0.11 -0.26,-0.23 -0.43,-0.26 -0.078,0.888 1.08,1.022 1.08,1.359 -0.17,0.11 -0.31,0.23 -0.45,0.31 -0.789,-0.37 -1.499,-0.91 -2.299,-1.249 0.17,0.279 -0.199,0.34 -0.34,0.429 0.54,0.2 1.05,0.37 1.529,0.65 0,0.26 -0.029,0.2 0.23,0.4 -0.744,-0.479 -1.039,-0.111 -0.34,0.619 0.28,0.37 0.601,0.71 0.88,1.08 -1.28,-0.79 -2.319,-2.039 -3.768,-2.519 0.26,0.91 1.529,1.19 2.179,2.239 -0.37,-0.14 -0.71,-0.23 -1.02,-0.43 0.26,0.37 0.57,0.68 0.91,0.989 -0.51,-0.259 -1.02,-0.479 -1.559,-0.709 -0.03,0.029 -0.081,0.06 -0.17,0.11 0.512,0.678 3.156,1.796 3.348,2.218 0.03,0.11 0.06,0.28 0.09,0.4 -0.31,0 -0.62,-0.17 -0.94,-0.28 0.204,0.616 0.887,0.605 0.48,0.91 -0.2,0.199 -0.509,-0.2 -0.48,-0.11 -0.199,0.789 0.54,1.498 1.16,1.978 -0.62,0.17 -1.19,-0.17 -1.839,-0.26 0.679,0.79 1.928,1.19 2.149,2.299 -0.77,-0.45 -1.499,-1.05 -2.469,-1.11 0.54,0.57 1.159,1.02 1.759,1.5 -0.06,-0.03 -0.109,-0.03 -0.17,-0.03 0.48,0.819 1.25,1.279 1.619,2.069 -0.405,-0.261 -1.174,-1.059 -1.728,-0.88l1.558 1.639c-0.569,-0.17 -0.959,-0.91 -1.639,-0.79 0.17,0.28 0.71,0.6 0.45,0.91 -0.08,0.17 -0.309,-0.14 -0.539,-0.11 0.278,0.983 2.058,1.624 2.208,2.469 -1.718,-0.845 -3.496,-3.372 -4.987,-3.828 1.11,1.16 2.299,2.129 3.368,3.318 -0.37,0.14 -0.51,-0.26 -0.819,-0.37 0.479,1.16 1.589,1.839 2.488,2.719 -0.17,0.48 0.4,0.54 0.6,0.82 -0.2,-0.03 -0.43,0.029 -0.62,-0.03 0,0.06 0.03,0.139 0.06,0.26 -0.11,0.029 -0.17,0.11 -0.17,0.199 -1.109,-0.45 -1.928,-1.979 -3.398,-2.468 0.88,1.419 2.319,2.269 3.598,3.228 -0.03,0.09 0,0.17 0.03,0.23 -0.03,0.03 -0.08,0.09 -0.14,0.11 -0.31,-0.17 -0.54,-0.28 -0.71,0.09 -0.279,0.65 0.431,1.049 1.02,1.449 0.06,0.17 0.08,0.37 0.14,0.509 -0.2,-0.06 -0.4,-0.11 -0.62,0 0.28,0.2 0.51,0.54 0.71,0.85 -0.11,0.2 -0.06,0.26 0.17,0.54l0.138 -0.001c0.06,0.11 0.11,0.23 0.17,0.31 -0.709,-0.23 -1.219,-1.22 -2.039,-0.79 -0.31,0.14 -0.26,0.65 0,0.79 1.39,1.049 2.239,2.408 3.458,3.568 0.26,0.2 0.6,0.2 0.79,0.449 -2.64,-0.203 -4.475,-3.493 -7.026,-3.767 0.124,0.123 -0.1,0.262 1.439,1.449 0.37,0.34 0.71,0.619 1.13,0.91 1.109,0.709 2.318,1.079 3.228,2.008 -1.789,-0.26 -3.398,-1.189 -4.898,-2.148 0.237,1.42 2.427,1.484 3.228,2.458 0.17,0.23 0.11,0.54 -0.139,0.6 -0.4,0.23 -0.54,-0.43 -0.96,-0.34 -0.479,0.17 0.11,0.54 0.17,0.789 -0.34,-0.109 -0.619,-0.26 -1.019,-0.279 0.789,1.159 2.408,1.219 3.198,2.348 0.08,0.06 -0.14,0.43 0.03,0.68 -0.31,-0.14 -0.65,-0.17 -0.959,-0.17 0.123,0.779 0.581,0.359 1.159,1.509 -1.159,0.06 -2.069,-0.91 -3.228,-0.94 0.989,0.57 1.928,1.28 2.998,1.67 -0.43,0.909 0.96,0.789 1.389,1.329 -0.602,0.39 -1.373,-0.569 -2.098,-0.22 0.569,0.71 1.159,1.499 1.669,2.298 -0.37,0.06 -1.049,-0.399 -1.08,0.23 0.03,0.4 0.45,0.54 0.77,0.79 -1.192,0.558 -1.602,-0.821 -3.178,-0.54 0.06,0.11 0.139,0.2 0.28,0.23 2.038,0.06 2.718,2.099 3.598,3.488 -0.31,0.14 -0.62,-0.17 -0.94,-0.03 -0.51,0.23 -1.249,0.57 -1.219,0.74 -0.26,2.039 1.639,3.338 2.518,5.047 -1.159,-0.17 -1.299,-1.699 -2.208,-1.959 0.28,0.71 0.82,1.189 1.019,1.869 -0.28,-0.17 -0.569,-0.31 -0.789,-0.51 0.28,1.559 1.759,2.299 2.638,3.428 0.31,0.06 0.6,0.26 0.79,0.6 -0.4,0.09 -0.77,-0.17 -0.79,-0.6 -0.619,0.51 0.4,0.82 0.34,1.299 -0.243,0.496 -0.97,-0.897 -1.589,-0.799 -1.047,0.165 1.084,1.714 0.14,2.558 0.23,0.28 0.26,0.77 0.17,1.16 -0.43,-0.17 -0.769,-0.51 -1.279,-0.4 0.709,1.449 2.128,2.179 3.258,3.198 -0.68,0.43 -1.22,-0.4 -1.81,-0.509 0.081,0.17 0.23,0.34 0.081,0.6 -0.51,0.959 -0.96,-0.03 -1.589,0.11 0.399,0.709 1.329,1.219 1.109,2.238 -0.03,0.06 -0.6,0.31 -0.31,0.51 0.23,0.17 0.6,0.14 0.68,0.34 0.199,0.71 -0.03,1.559 0.509,2.069 -0.26,-0.17 -0.54,-0.231 -0.789,-0.11 0.72,0.533 -0.229,1.751 0.249,2.098 -1.249,0.04 -2.134,-2.293 -3.567,-2.348 1.159,1.329 2.349,2.808 3.907,3.658 -0.28,0.309 -0.309,0.679 -0.309,0.989 -0.68,-0.09 -0.99,-0.789 -1.619,-1.109 -0.09,-0.03 -0.23,0 -0.34,-0.06 -0.03,0.449 0.679,0.569 0.54,0.849 -0.31,0.62 0.34,0.939 0.109,1.499 0.71,1.22 1.59,2.269 2.299,3.428 0.099,0.186 -1.163,-0.388 -0.37,0.45 0.51,0.57 1.33,1.159 1.16,1.959 -0.82,-0.6 -1.5,-1.929 -2.609,-1.839 0.45,0.77 1.109,1.359 0.789,2.409 -0.06,0.17 0.14,0.34 0.09,0.539 -0.28,1.11 -1.109,-0.369 -1.759,-0.569 0.23,0.959 1.619,1.669 1.08,2.778 -0.68,-0.28 -0.96,-1.02 -1.62,-1.389 0.28,1.129 1.33,1.728 1.98,2.608 0.06,0.09 0,0.2 0.029,0.28 -1.219,-0.54 -1.669,-1.929 -2.748,-2.748 -0.514,0.255 0.11,0.36 0.45,0.939 -0.68,0.23 -0.77,0.26 -0.43,0.82 1.08,1.589 2.379,2.688 3.228,4.337 -1.08,0.11 -1.469,-0.989 -2.298,-1.449 -0.392,0.716 1.233,1.175 1.558,2.269 0.28,0.879 0.74,1.499 1.45,2.039 -0.09,0.11 -0.2,0.26 -0.23,0.399 0.399,0.4 0.819,0.88 1.279,1.39 -0.959,0.05 -1.845,-1.279 -3.538,-1.649 -1.152,-0.252 -2.481,-1.699 -2.379,-1.02 0.2,0.65 1.049,0.65 1.11,1.5 0.089,0.959 1.448,1.189 1.638,2.318 -0.789,0.26 -1.249,-0.71 -1.869,-0.37l1.42 1.189c0.428,0.353 0.061,0.565 0.319,0.96 5.544,-2.829 5.164,-6.6 5.557,-11.613 0.08,-0.88 0.03,-2.069 0.03,-2.979 -0.03,-1.329 0.2,-1.759 0.2,-2.998 0,-8.305 0.2,-15.98 0.17,-24.275l0.2 -8.755 -0.2 -3.058c-0.06,-2.039 0,-4.198 0,-6.236 0.03,-1.28 -0.17,-1.639 -0.2,-2.779 0,-1.019 0.09,-2.239 0,-3.228 -0.636,-7.418 -0.865,-14.932 -2.049,-22.316 -1.354,-8.443 -4.467,-24.438 -6.796,-32.521 -1.669,-5.916 -2.809,-10.253 -4.898,-16.29l-2.069 -6.766c-1.459,0.42 -2.908,0.85 -4.467,1.26 0.34,0.29 0.71,0.56 1.149,0.779 -0.08,0.11 -0.11,0.28 -0.11,0.37 0.57,0.43 1.13,0.85 1.789,1.329 -0.982,0.05 -2.209,-1.125 -4.247,-1.529 -1.293,-0.255 -0.497,-0.491 -1.699,-0.18 0.219,0.15 0.419,0.33 0.539,0.64l-0.018 -0.072zm7.535 14.051c0,0 -0.03,-0.06 -0.03,-0.089 0.11,-0.03 0.06,-0.06 0.14,0.029 -0.03,0 -0.08,0.03 -0.11,0.06zm0.03 4.957c0.28,0.11 0.2,0.11 0.28,0.26 -0.2,0 -0.26,-0.11 -0.28,-0.26zm1.159 1.979l-0.12 -0.06c0.03,0 0.081,-0.03 0.11,-0.06l0 0.11 0.01 0.01zm4.988 37.307c-0.061,-0.029 -0.081,-0.089 -0.11,-0.089 0.11,-0.14 0.139,0 0.17,0.06 0,0 -0.03,0.029 -0.06,0.029zm0.939 22.497c0.23,-0.11 0.34,0 0.48,0.23 -0.26,0.06 -0.43,0 -0.48,-0.23zm2.269 2.688c0,0 0.09,-0.03 0.11,-0.03 -0.03,0.11 -0.09,0.06 -0.11,0.03zm0.4 -4.027c0,0 0.089,-0.11 0.139,-0.06 0.03,0.28 -0.11,0.06 -0.139,0.06zm0.959 18.049c-0.2,-0.09 -0.34,-0.26 -0.26,-0.45 0.09,-0.23 0.26,0.17 0.37,0.28 0,0 -0.06,0.06 -0.11,0.17zm-0.11 5.157c0,0 -0.03,-0.06 0.03,-0.09 -0.03,0.03 -0.03,0.06 -0.03,0.09zm-1.639 27.163c-0.14,-0.17 -0.26,-0.309 -0.34,-0.479 0.31,0 0.43,0.139 0.34,0.479zm1.559 -0.599c-0.03,-0.06 -0.11,-0.14 -0.17,-0.17 0.11,-0.09 0.26,-0.11 0.31,0.14 -0.06,0 -0.11,0.06 -0.14,0.029l0 0.001zm1.619 5.357c0.03,-0.06 -0.03,-0.11 0.06,-0.09 -0.03,0.03 -0.03,0.06 -0.06,0.09zm0.28 -24.786c-0.28,-0.06 -0.54,-0.139 -0.789,-0.479 0.449,0.03 0.619,0.26 0.789,0.479zm-0.989 1.59c-0.03,0.309 -0.03,0.09 -0.03,0l0.03 0zm-0.03 2.718c0.17,-0.09 0.28,-0.03 0.28,0.31 -0.11,-0.14 -0.2,-0.23 -0.28,-0.31zm-0.28 -1.639c0.65,-0.06 1.02,0.619 1.619,0.879 -0.85,-0.11 -1.13,-0.26 -1.619,-0.879zm-3.798 -50.989l0 0.03 -0.09 -0.031 0.09 0.001zm-3.568 -14.701c0.28,0.14 0.57,0.34 0.85,0.48 -0.31,-0.11 -0.6,-0.31 -0.85,-0.48zm-0.569 -17.11c0,0 -0.031,0.06 -0.061,0.09 0,-0.03 0.03,-0.06 0.03,-0.09l0.031 0zm-1.36 -7.985l0 -0.09c0,0 0.06,0.06 0.06,0.06 0,0 -0.02,0.01 -0.06,0.03zm0.48 0.31c0.31,0.309 0.26,0.23 0.23,0.37 -0.23,-0.03 -0.14,0.06 -0.34,-0.31 0.03,-0.03 0.08,-0.03 0.11,-0.06zm-0.34 -4.168c-0.287,-0.02 -0.487,-0.19 -0.6,-0.509 0.28,0.09 0.51,0.199 0.6,0.509zm-1.329 -11.023c0.11,0.06 0.26,0.09 0.399,0.14 0,0.06 -0.029,0.089 -0.029,0.17 -0.14,-0.06 -0.26,-0.11 -0.4,-0.17 0,-0.06 0,-0.11 0.03,-0.14zm-0.74 -1.359c0,0 0.03,0.06 0.03,0.06 -0.03,0 -0.06,0 -0.09,-0.03l0.06 -0.03zm-0.879 -0.43c0.2,0.03 0.17,0 0.17,0.17 -0.06,-0.06 -0.11,-0.09 -0.17,-0.11l0 -0.06zm-1.36 3.858c0.06,0.06 0.11,0.089 0.14,0.089 0,0.061 -0.03,0.09 -0.03,0.09l-0.11 -0.179zm3.328 36.968c-0.089,-0.06 -0.169,-0.11 -0.23,-0.14 -0.029,0.06 -0.06,0.09 -0.089,0.14 0.089,0.029 0.139,0.089 0.23,0.11l0.089 -0.11zm9.715 76.373c-0.2,-0.45 -0.48,-0.68 -0.85,-0.939 0.2,0.599 0.23,0.619 0.85,0.939zm-3.198 4.108c0.26,0.28 0.37,0.399 0.48,0.54 0.06,-0.28 0.029,-0.51 -0.48,-0.54zm-2.788 16.519c0.049,-0.009 0.109,-0.029 0.159,-0.039 -0.08,-0.04 -0.15,-0.09 -0.24,-0.131 0.02,0.07 0.05,0.11 0.081,0.17zm3.378 -1.618c0.15,0.12 0.34,0.249 0.539,0.369 0.19,-0.08 0.38,-0.17 0.57,-0.259 -0.489,-0.22 -0.869,-0.56 -1.359,-0.54 0.11,0.2 0.14,0.34 0.26,0.43l-0.01 0zm-16.491 -121.477l0.25 0.05c-0.14,-0.17 -0.08,-0.14 -0.26,-0.06l0.01 0.01zm4.278 -10.674l0.029 0 0 -0.029c0,0 0,0.029 -0.029,0.029zm-0.19 0c0.089,0.11 0.109,0.11 0.199,0 -0.06,0 -0.11,0.03 -0.199,0z"/>
   </g>
  </g>
  <path fill="none" d="M69.622 5.532c-9.32,-0.113 -15.317,-0.1 -21.532,-0.475 -6.215,-0.375 -12.649,-1.137 -18.001,-2.044 -5.351,-0.908 -9.62,-1.96 -13.89,-3.013l-2.056 6.766c-2.101,6.05 -3.233,10.386 -4.916,16.285 -0.249,0.873 -0.435,1.453 -0.642,2.333 -2.36,10.025 -4.55,19.989 -6.162,30.214 -0.554,3.516 -0.787,7.435 -1.226,10.942l-0.435 5.757c-0.045,1.83 -0.234,3.899 -0.37,5.626 -0.078,0.987 0.009,2.192 -0.003,3.205 -0.013,1.158 -0.208,1.511 -0.203,2.794 0.009,2.038 0.069,4.202 0.011,6.226 -0.028,1.013 -0.181,1.575 -0.197,2.723l0.192 9.099c-0.03,8.303 0.172,15.985 0.183,24.267 0.002,1.267 0.207,1.666 0.202,2.996 -0.004,0.925 -0.065,2.104 0.005,3.001 0.131,1.645 0.218,4.048 0.519,5.469 1.056,4.985 5.703,6.849 10.073,7.859 3.312,0.766 6.714,1.111 10.138,1.576 4.01,0.545 19.376,0.399 23.493,-0.086 6.45,-0.761 15.507,-0.276 22.162,-1.971 7.272,-1.853 6.398,-2.822 7.435,-7.425 0.87,-3.869 2.219,-13.998 3.169,-16.919 0.807,-2.484 1.721,-7.868 2.195,-10.524 0.344,-1.99 1.133,-3.678 1.718,-5.612 1.344,-4.441 1.694,-7.626 2.92,-12.169 0.377,-1.398 0.722,-2.38 1.102,-3.854 0.997,-3.864 2.19,-8.249 2.968,-12.117 0.575,-2.856 1.095,-5.36 1.653,-8.289l2.191 -12.734c0.189,-0.998 0.23,-2.248 1.182,-2.596 0.952,0.348 0.993,1.598 1.182,2.596l2.191 12.734c0.558,2.929 1.077,5.433 1.652,8.289 0.779,3.868 1.972,8.253 2.968,12.117 0.38,1.474 0.725,2.456 1.103,3.854 1.226,4.543 1.576,7.728 2.919,12.169 0.585,1.934 1.375,3.622 1.719,5.612 0.473,2.654 1.389,8.042 2.195,10.524 0.949,2.921 2.299,13.05 3.169,16.919 1.037,4.603 0.163,5.572 7.434,7.425 6.656,1.695 15.712,1.21 22.163,1.971 4.117,0.485 19.483,0.631 23.492,0.086 3.425,-0.465 6.827,-0.81 10.138,-1.576 4.371,-1.01 9.018,-2.874 10.074,-7.859 0.301,-1.421 0.388,-3.824 0.519,-5.469 0.07,-0.897 0.009,-2.076 0.005,-3.001 -0.005,-1.33 0.2,-1.729 0.202,-2.996 0.011,-8.282 0.213,-15.964 0.183,-24.267l0.191 -8.764 -0.196 -3.058c-0.058,-2.024 0.002,-4.188 0.011,-6.226 0.004,-1.283 -0.19,-1.636 -0.204,-2.794 -0.011,-1.013 0.076,-2.218 -0.002,-3.205 -0.136,-1.727 -0.325,-3.796 -0.37,-5.626l-0.436 -5.757c-0.439,-3.507 -0.671,-7.426 -1.225,-10.942 -1.612,-10.225 -3.802,-20.189 -6.162,-30.214 -0.207,-0.88 -0.394,-1.46 -0.643,-2.333 -1.682,-5.899 -2.814,-10.235 -4.915,-16.285l-2.057 -6.766c-2.951,0.866 -5.902,1.731 -9.677,2.477 -3.774,0.745 -8.371,1.369 -13.806,1.869 -5.434,0.5 -11.706,0.875 -19.026,1.15 -7.321,0.274 -15.692,0.449 -26.199,0.418 -10.507,-0.031 -23.15,-0.269 -32.47,-0.382z"/>
 </g>
</svg>
