<?xml version="1.0" encoding="UTF-8"?>
<!DOCTYPE svg PUBLIC "-//W3C//DTD SVG 1.1//EN" "http://www.w3.org/Graphics/SVG/1.1/DTD/svg11.dtd">
<!-- Creator: CorelDRAW -->
<svg xmlns="http://www.w3.org/2000/svg" xml:space="preserve" width="240px" height="296px" version="1.1" shape-rendering="geometricPrecision" text-rendering="geometricPrecision" image-rendering="optimizeQuality" fill-rule="evenodd" clip-rule="evenodd"
viewBox="0 0 240 296.307"
 xmlns:xlink="http://www.w3.org/1999/xlink"
 xmlns:xodm="http://www.corel.com/coreldraw/odm/2003">
 <defs>
   <clipPath id="id0">
    <path d="M136.796 295.988c2.461,-0.097 4.626,-0.225 7.017,-0.355 2.39,-0.131 5.006,-0.265 8.261,-0.493 3.256,-0.228 7.151,-0.55 10.471,-0.852 3.319,-0.302 6.061,-0.583 8.794,-0.949 2.732,-0.365 5.455,-0.814 7.654,-1.25 2.2,-0.436 3.876,-0.858 6.001,-1.331 2.126,-0.473 4.701,-0.996 6.595,-1.321 1.894,-0.325 3.108,-0.453 4.268,-0.536 1.16,-0.084 2.267,-0.124 3.155,-0.117 0.889,0.008 1.559,0.063 1.956,0.094 0.396,0.031 0.518,0.038 0.611,0.043 0.049,0.002 0.09,0.004 0.127,0.006 0.093,-0.07 0.162,-0.18 0.177,-0.779 0.016,-0.673 -0.037,-1.966 -0.106,-2.786 -0.069,-0.819 -0.154,-1.166 -0.285,-1.855 -0.131,-0.689 -0.307,-1.72 -0.651,-2.686 -0.345,-0.965 -0.858,-1.866 -1.476,-3.045 -0.619,-1.179 -1.343,-2.638 -1.783,-3.616 -0.44,-0.978 -0.596,-1.476 -0.848,-2.693 -0.251,-1.217 -0.598,-3.153 -0.953,-5.871 -0.354,-2.718 -0.716,-6.219 -1.038,-8.884 -0.322,-2.666 -0.603,-4.496 -1.081,-7.559 -0.478,-3.062 -1.152,-7.357 -1.71,-11.521 -0.558,-4.164 -1.001,-8.198 -1.348,-12.226 -0.347,-4.028 -0.598,-8.051 -0.759,-11.637 -0.161,-3.586 -0.231,-6.734 -0.287,-9.787 -0.055,-3.052 -0.095,-6.01 -0.156,-9.258 -0.06,-3.249 -0.14,-6.79 -0.108,-12.037 0.033,-5.248 0.179,-12.203 0.352,-17.466 0.174,-5.263 0.375,-8.834 0.652,-12.807 0.276,-3.973 0.628,-8.348 0.975,-12.271 0.347,-3.922 0.689,-7.393 1.122,-11.743 0.432,-4.35 0.955,-9.58 1.483,-13.99 0.528,-4.411 1.061,-8.002 1.512,-10.619 0.45,-2.618 0.817,-4.262 1.139,-5.308 0.321,-1.046 0.598,-1.494 0.803,-1.766 0.205,-0.271 0.338,-0.367 0.405,-0.414 0.066,-0.048 0.066,-0.048 0.049,0.598 -0.018,0.646 -0.053,1.939 -0.108,3.533 -0.056,1.594 -0.131,3.49 -0.173,4.967 -0.041,1.478 -0.049,2.536 -0.079,3.186 -0.03,0.65 -0.083,0.892 -0.102,1.011 -0.018,0.119 -0.003,0.117 -0.041,0.151 -0.038,0.034 -0.128,0.104 -0.133,0.68 -0.005,0.576 0.075,1.657 0.192,3.051 0.117,1.395 0.27,3.102 0.322,4.786 0.051,1.683 0.001,3.343 0.002,4.231 0,0.887 0.052,1.003 0.132,1.078 0.08,0.076 0.188,0.111 1.001,0.06 0.814,-0.051 2.333,-0.188 4.105,-0.324 1.773,-0.137 3.8,-0.273 5.955,-0.431 2.155,-0.158 4.438,-0.339 6.588,-0.463 2.15,-0.123 4.166,-0.188 5.992,-0.299 1.826,-0.111 3.46,-0.267 5.336,-0.47 1.876,-0.204 3.993,-0.455 6.015,-0.682 2.021,-0.226 3.947,-0.427 5.109,-0.565 1.162,-0.139 1.559,-0.214 1.758,-0.327 0.199,-0.113 0.199,-0.264 0.229,-0.906 0.03,-0.641 0.09,-1.772 0.108,-3.132 0.017,-1.361 -0.008,-2.95 -0.023,-4.429 -0.015,-1.478 -0.02,-2.846 -0.038,-3.724 -0.017,-0.877 -0.047,-1.264 -0.071,-1.469 -0.025,-0.205 -0.043,-0.227 -0.083,-0.294 -0.04,-0.068 -0.103,-0.181 -0.174,-0.682 -0.071,-0.5 -0.152,-1.388 -0.255,-2.32 -0.103,-0.933 -0.229,-1.911 -0.348,-2.739 -0.12,-0.827 -0.233,-1.504 -0.413,-2.544 -0.179,-1.042 -0.426,-2.447 -0.613,-3.449 -0.187,-1.002 -0.316,-1.601 -0.436,-2.27 -0.121,-0.668 -0.234,-1.408 -0.366,-2.121 -0.132,-0.713 -0.283,-1.399 -0.425,-2.156 -0.142,-0.757 -0.275,-1.584 -0.375,-2.322 -0.099,-0.738 -0.165,-1.387 -0.239,-2.029 -0.074,-0.643 -0.157,-1.279 -0.257,-2.036 -0.101,-0.757 -0.219,-1.634 -0.34,-2.526 -0.121,-0.891 -0.244,-1.796 -0.353,-2.565 -0.11,-0.768 -0.205,-1.399 -0.373,-2.344 -0.168,-0.945 -0.408,-2.203 -0.82,-4.085 -0.412,-1.881 -0.995,-4.386 -1.704,-6.89 -0.709,-2.505 -1.544,-5.009 -2.651,-7.745 -1.106,-2.736 -2.484,-5.703 -4.093,-8.851 -1.61,-3.149 -3.45,-6.478 -4.878,-8.781 -1.429,-2.304 -2.444,-3.581 -3.453,-4.629 -1.008,-1.049 -2.009,-1.869 -3.015,-2.608 -1.006,-0.739 -2.017,-1.398 -2.582,-1.773 -0.566,-0.375 -0.687,-0.465 -0.756,-0.571 -0.069,-0.105 -0.087,-0.226 -0.095,-0.303 -0.009,-0.077 -0.009,-0.109 -0.07,-0.174 -0.06,-0.066 -0.181,-0.164 -1.307,-0.714 -1.127,-0.551 -3.259,-1.555 -5.31,-2.603 -2.05,-1.048 -4.019,-2.142 -5.77,-2.976 -1.752,-0.833 -3.286,-1.407 -5.061,-1.957 -1.775,-0.551 -3.792,-1.079 -5.429,-1.507 -1.637,-0.427 -2.894,-0.754 -3.762,-1.008 -0.867,-0.254 -1.345,-0.435 -2.044,-0.7 -0.699,-0.266 -1.619,-0.615 -2.606,-0.909 -0.987,-0.295 -2.041,-0.533 -2.716,-0.687 -0.675,-0.153 -0.972,-0.221 -1.44,-0.471 -0.467,-0.25 -1.106,-0.683 -1.581,-0.937 -0.475,-0.254 -0.787,-0.329 -1.073,-0.365 -0.285,-0.035 -0.544,-0.03 -0.777,-0.03 -0.232,0 -0.438,-0.005 -1.342,-0.33 -0.904,-0.326 -2.506,-0.972 -4.026,-1.577 -1.52,-0.605 -2.959,-1.168 -4.404,-1.748 -1.446,-0.579 -2.9,-1.175 -3.816,-1.569 -0.917,-0.393 -1.297,-0.584 -1.594,-0.779 -0.298,-0.194 -0.514,-0.392 -0.705,-0.497 -0.191,-0.105 -0.356,-0.116 -0.467,-0.117 -0.11,0 -0.164,0.01 -0.251,-0.004 -0.086,-0.014 -0.204,-0.052 -0.587,-0.292 -0.382,-0.24 -1.028,-0.682 -1.678,-1.193 -0.65,-0.51 -1.304,-1.089 -1.956,-1.661 -0.653,-0.572 -1.304,-1.138 -2.311,-1.569 -1.007,-0.431 -2.37,-0.728 -3.723,-0.919 -1.353,-0.191 -2.695,-0.276 -4.576,-0.354 -1.881,-0.078 -4.3,-0.149 -7.931,-0.131 -3.631,0.017 -8.474,0.123 -12.914,0.219 -4.439,0.096 -8.475,0.183 -10.597,0.231 -2.123,0.048 -2.332,0.058 -4.152,0.203 -1.82,0.145 -5.249,0.427 -7.404,0.671 -2.155,0.244 -3.035,0.45 -3.752,0.707 -0.717,0.256 -1.27,0.563 -1.886,1.078 -0.616,0.516 -1.295,1.24 -2.019,1.877 -0.725,0.638 -1.494,1.189 -1.953,1.46 -0.459,0.272 -0.607,0.264 -0.901,0.366 -0.295,0.102 -0.735,0.313 -1.268,0.582 -0.533,0.269 -1.159,0.596 -1.919,0.922 -0.761,0.325 -1.656,0.65 -2.301,0.904 -0.645,0.254 -1.04,0.437 -1.514,0.628 -0.474,0.192 -1.027,0.39 -1.765,0.621 -0.738,0.232 -1.661,0.496 -2.558,0.836 -0.896,0.341 -1.766,0.759 -2.573,1.076 -0.808,0.316 -1.552,0.533 -2.299,0.749 -0.746,0.216 -1.496,0.432 -2.053,0.655 -0.557,0.222 -0.921,0.451 -1.207,0.636 -0.285,0.185 -0.491,0.326 -0.999,0.476 -0.508,0.15 -1.318,0.31 -1.914,0.463 -0.596,0.154 -0.978,0.301 -1.488,0.492 -0.51,0.192 -1.147,0.429 -1.75,0.617 -0.603,0.189 -1.171,0.329 -1.687,0.459 -0.516,0.13 -0.98,0.248 -1.7,0.426 -0.719,0.179 -1.693,0.418 -2.551,0.633 -0.857,0.216 -1.598,0.408 -2.171,0.57 -0.573,0.161 -0.979,0.292 -1.436,0.426 -0.456,0.134 -0.963,0.271 -1.427,0.4 -0.465,0.129 -0.887,0.249 -1.312,0.377 -0.424,0.128 -0.85,0.262 -1.203,0.399 -0.353,0.137 -0.632,0.277 -1.012,0.437 -0.38,0.159 -0.862,0.339 -1.279,0.53 -0.417,0.191 -0.769,0.394 -1.165,0.602 -0.397,0.209 -0.838,0.424 -1.221,0.617 -0.382,0.194 -0.705,0.366 -1.126,0.589 -0.421,0.223 -0.941,0.495 -1.657,0.865 -0.717,0.371 -1.631,0.838 -2.694,1.37 -1.063,0.532 -2.275,1.128 -3.18,1.576 -0.905,0.448 -1.504,0.747 -2.037,1.087 -0.533,0.341 -1.001,0.723 -1.443,1.08 -0.443,0.358 -0.86,0.689 -1.353,1.079 -0.493,0.39 -1.061,0.837 -1.779,1.475 -0.718,0.637 -1.586,1.465 -2.375,2.331 -0.79,0.866 -1.501,1.771 -2.145,2.665 -0.644,0.894 -1.22,1.777 -1.924,2.935 -0.704,1.158 -1.536,2.591 -2.208,3.821 -0.671,1.229 -1.181,2.255 -1.732,3.264 -0.551,1.008 -1.141,1.999 -1.644,2.942 -0.503,0.943 -0.918,1.838 -1.313,2.759 -0.395,0.922 -0.77,1.87 -1.152,2.756 -0.382,0.887 -0.772,1.712 -1.285,3.043 -0.513,1.331 -1.149,3.17 -1.716,4.911 -0.567,1.741 -1.065,3.386 -1.49,4.836 -0.425,1.451 -0.777,2.709 -1.129,4.225 -0.352,1.516 -0.704,3.291 -1.144,5.668 -0.44,2.376 -0.968,5.353 -1.29,7.073 -0.322,1.72 -0.438,2.183 -0.543,2.673 -0.106,0.491 -0.201,1.009 -0.4,1.833 -0.198,0.825 -0.5,1.957 -0.807,3.143 -0.307,1.187 -0.618,2.43 -0.84,3.478 -0.221,1.049 -0.352,1.904 -0.575,3.166 -0.224,1.262 -0.541,2.932 -0.787,4.297 -0.247,1.366 -0.423,2.427 -0.529,2.975 -0.105,0.548 -0.14,0.583 -0.204,0.634 -0.063,0.05 -0.155,0.115 -0.251,2.246 -0.096,2.13 -0.197,6.326 -0.275,8.622 -0.078,2.297 -0.133,2.694 0.035,2.902 0.169,0.209 0.561,0.229 1.419,0.337 0.857,0.108 2.18,0.305 4.51,0.755 2.332,0.45 5.671,1.154 8.339,1.667 2.668,0.513 4.664,0.835 6.751,1.182 2.088,0.347 4.265,0.719 7.24,1.192 2.975,0.472 6.746,1.046 9.15,1.373 2.404,0.327 3.44,0.407 3.958,0.447 0.518,0.041 0.518,0.041 0.568,-0.543 0.049,-0.583 0.149,-1.75 0.263,-2.759 0.114,-1.009 0.242,-1.86 0.394,-2.937 0.152,-1.077 0.328,-2.379 0.498,-3.576 0.17,-1.197 0.333,-2.289 0.417,-2.902 0.085,-0.614 0.089,-0.749 0.076,-0.865 -0.014,-0.116 -0.047,-0.211 -0.023,-1.818 0.024,-1.607 0.104,-4.725 0.147,-7.257 0.043,-2.532 0.048,-4.478 0.059,-5.601 0.011,-1.123 0.029,-1.422 0.067,-1.618 0.038,-0.197 0.095,-0.29 0.176,-0.338 0.08,-0.05 0.184,-0.055 0.308,0.038 0.124,0.094 0.27,0.285 0.345,0.376 0.074,0.092 0.076,0.085 0.078,0.081 0.001,-0.004 0.001,-0.004 0.115,0.253 0.114,0.256 0.343,0.769 0.597,1.463 0.254,0.694 0.533,1.569 0.762,2.507 0.229,0.938 0.408,1.939 0.607,3.547 0.2,1.608 0.422,3.823 0.739,6.228 0.316,2.406 0.729,5.001 1.468,11.393 0.739,6.392 1.805,16.58 2.64,24.511 0.835,7.931 1.439,13.604 1.811,19.699 0.372,6.095 0.513,12.613 0.503,19.654 -0.01,7.04 -0.171,14.604 -0.372,20.609 -0.202,6.004 -0.443,10.45 -0.725,14.423 -0.281,3.973 -0.603,7.473 -1.448,14.162 -0.845,6.688 -2.213,16.566 -3.007,23.777 -0.795,7.212 -1.016,11.758 -1.217,15.269 -0.202,3.51 -0.383,5.984 -0.674,8.122 -0.292,2.137 -0.694,3.937 -0.973,5.315 -0.279,1.378 -0.436,2.334 -0.453,2.935 -0.018,0.601 0.103,0.847 0.249,0.975 0.146,0.129 0.317,0.138 0.5,0.175 0.184,0.036 0.38,0.099 0.469,0.155 0.019,0.011 0.032,0.022 0.042,0.037 0.876,0.322 1.753,0.645 3.155,0.925 1.401,0.28 3.329,0.518 6.493,0.754 3.163,0.237 7.562,0.472 11.099,0.609 3.537,0.138 6.212,0.178 9.592,0.181 3.38,0.003 7.463,-0.03 11.329,-0.007 3.866,0.024 7.513,0.104 10.591,0.191 3.078,0.088 5.586,0.181 7.916,0.252 2.33,0.07 4.483,0.117 6.789,0.171 2.307,0.053 4.768,0.114 7.356,0.121 2.589,0.006 5.304,-0.041 8.04,-0.098 2.736,-0.057 5.492,-0.124 7.953,-0.221z"/>
   </clipPath>
 </defs>
 <g id="VETORES">
  <metadata id="CorelCorpID_0Corel-Layer"/>
  <g>
  </g>
  <g clip-path="url(#id0)">
   <g id="_1760945265904">
    <path fill="#7C0000" fill-rule="nonzero" d="M153.251 291.048c0.651,-0.851 1.391,-1.642 2.072,-2.443 3.125,-3.715 3.632,-4.927 7.865,-8.596 3.922,-3.4 4.695,-4.622 7.855,-7.747l3.912 -3.202c2.602,-1.542 1.391,-1.022 2.472,-3.212l3.403 -4.094c1.52,-0.997 2.889,-2.1 3.942,-3.682 0.371,-0.541 0.62,-1.192 1.021,-1.732 0.975,-1.351 1.462,-1.534 1.161,-2.102l6.234 -8.126c-0.39,-2.552 -0.831,-5.505 -1.221,-8.407l-1.521 5.064c-0.45,1.051 -1.161,1.982 -1.531,3.063 -0.6,1.919 -0.415,1.676 -1.731,3.492 -2.086,2.879 -4.856,7.191 -7.124,9.387 -6.395,6.192 -5.317,5.657 -12.589,9.938 -6.065,3.571 -6.695,3.729 -11.888,8.967 -1.791,1.791 -3.092,3.863 -4.513,5.925 -2.737,3.974 -6.369,8.417 -9.476,12.169l8.456 -0.49 3.202 -4.194 -0.001 0.022zm29.359 -2.042c2.809,-3.511 5.149,-5.343 7.596,-9.387 1.672,-2.765 4.056,-6.667 6.374,-8.857 -0.081,-0.4 -0.16,-0.851 -0.25,-1.351l-5.354 5.384c-1.451,1.332 -3.062,2.472 -4.563,3.743l-9.926 8.457c-3.397,2.407 -2.732,2.821 -5.154,6.315l8.916 -1.521 2.331 -2.793 0.03 0.01zm19.263 -0.881l-0.12 -2.922 -2.832 3.553c1.479,0 2.718,0.307 2.892,0.01l0.06 -0.641zm-60.79 -1.161c0.991,-0.94 2.072,-1.791 3.062,-2.722l6.924 -8.316c1.838,-2.254 0.822,-1.059 2.753,-2.782l5.393 -4.483c3.372,-3.222 5.427,-5.14 9.476,-7.596 3.951,-2.396 4.14,-3.372 7.015,-6.605 1.085,-1.22 0.942,-3.032 0.71,-2.943l-5.983 2.442c-0.571,0.371 -1.021,0.881 -1.591,1.281 -5.18,3.61 -8.309,3.336 -13.079,6.645 -3.406,2.364 -3.616,3.268 -8.005,4.484 -2.378,0.659 -5.481,2.148 -6.775,2.382 -0.82,0.14 -1.591,0.171 -2.321,0.541 -5.325,2.622 -6.288,3.589 -11.088,6.985 -2.412,1.707 -7.369,2.049 -8.515,2.642l-3.552 2.332c-3.855,3.433 -2.766,2.781 -5.674,6.756 -2.589,3.539 -3.841,5.102 -7.294,7.896l14.779 0.381c0.524,-2.119 1.007,-2.244 1.982,-3.933 1.905,-3.305 -0.015,-1.952 4.703,-3.554 1.878,-0.638 1.192,-0.708 1.331,-1.331l5.733 -4.914c2.011,-1.671 4.053,-3.232 5.924,-5.073 1.931,-1.932 3.912,-3.973 6.264,-5.394 7.882,-4.754 8.964,-2.828 12.138,-4.224l-4.733 5.564 -7.945 8.087c-3.367,3.026 -4.312,5.14 -6.785,8.106 -2.157,2.588 -3.456,3.65 -5.683,6.575 1.091,-0.02 2.171,-0.05 3.232,-0.08 1.621,-1.991 3.212,-3.983 4.753,-6.014 0.881,-1.132 1.761,-2.132 2.832,-3.093l0.019 -0.042zm-50.452 4.764c1.701,-1.301 3.512,-2.442 5.223,-3.743l7.054 -5.364c4.105,-3.016 -0.66,-0.957 4.603,-6.465 1.567,-1.64 3.031,-2.225 3.632,-3.553 0.452,-0.996 -0.703,-0.399 0.801,-2.392 2.118,-2.806 3.898,-3.102 6.184,-6.154l3.092 -4.454 5.614 -3.662c2.361,-1.252 6.092,-4.008 8.455,-5.594 3.829,-2.571 2.125,-1.029 4.874,-4.334 1.563,-1.879 9.606,-6.399 12.857,-9.427 0.06,-0.061 0.11,-0.091 0.17,-0.141 0.031,0.031 0.031,0.061 0.031,0.061 1.53,-1.471 3.692,-2.102 5.303,-3.403 0.741,-0.57 1.531,-1.081 2.242,-1.641l8.055 -6.495c2.155,-2.005 7.149,-7.207 8.706,-9.507 1.826,-2.698 2.17,-2.738 3.572,-4.654 1.161,-1.561 2.152,-3.152 2.752,-4.994 0.62,-1.961 1.671,-3.633 2.441,-5.504 1.041,-2.604 0.44,-2.601 2.442,-4.764 0.25,-0.27 0.46,-0.57 0.68,-0.871 -0.06,-3.252 -0.14,-6.795 -0.11,-12.039 0.02,-2.282 0.07,-4.894 0.12,-7.546 -2.489,2.372 -5.193,6.62 -6.554,7.946 -0.4,0.4 -0.711,0.791 -0.961,1.282 -0.2,0.11 -0.43,0.34 -0.54,0.51l-5.534 6.785c-1.791,1.792 -4.082,3.032 -5.754,4.934 -3.403,3.792 -6.114,2.605 -9.756,5.574 -0.48,0.4 -0.94,0.821 -1.421,1.191 -0.14,-0.11 -0.26,-0.23 -0.31,-0.17 -3.35,3.079 -9.214,2.703 -10.556,6.185 -0.541,1.391 -1.562,2.132 -2.552,3.152 -2.296,2.366 -2.415,3.529 -5.674,5.364 -2.321,1.281 -4.933,1.791 -7.315,3.002 -1.691,0.854 -2.651,2.119 -6.123,3.744 -0.2,0.09 -0.4,0.2 -0.601,0.31 1.156,-3.271 3.057,-3.503 4.283,-4.764 0.37,-0.4 0.57,-0.851 0.991,-1.161 4.379,-3.178 7.139,-5.121 10.256,-9.817l1.191 -1.111c0,0 0,-0.03 -0.06,-0.09 0.45,-0.431 0.85,-0.911 1.301,-1.331l1.701 -1.672c2.047,-1.355 4.493,-3.109 5.964,-5.104 0.03,0 0.03,-0.03 0.03,-0.061 1.021,-0.62 2.101,-1.221 3.002,-1.961l4.873 -5.194c0.899,-1.031 3.128,-2.056 4.983,-4.574l3.943 -5.273 3.432 -3.994c0.481,-0.4 1.051,-0.65 1.561,-0.99 0.905,-0.627 1.197,-1.662 2.412,-0.851 -0.17,1.282 -1.251,2.442 -2.132,3.263 -0.88,0.851 -0.99,2.272 -1.301,3.403 -0.271,0.96 -0.428,0.497 -0.31,2.041 0.164,2.136 -0.78,1.933 -0.28,3.233 -1.308,0.885 -1.215,0.899 -0.651,1.821 0.304,0.496 0.284,0.422 1.221,-0.37 1.589,-1.343 2.504,-4.765 2.813,-6.756 0.067,-0.436 -0.377,-1.382 1.501,-2.471 0.06,-0.031 0,-0.201 -0.09,-0.371 1.546,-1.213 3.184,-2.292 3.292,-5.054 0.034,-0.868 -0.646,-2.203 -0.791,-2.272 -0.17,-0.08 -0.37,-0.03 -0.62,0.09 0.986,-2.033 -0.598,-4.829 -0.971,-4.914 -0.996,-0.225 -4.983,3.855 -4.983,4.594 0,0.766 0.691,-0.051 -1.401,1.671 -0.278,-0.076 -0.533,0.453 -1.211,1.001 -0.17,0.11 0.06,0.09 0.17,0.06 -2.601,3.162 -3.823,2.981 -5.083,4.704 -3.816,5.215 -1.208,2.189 -5.444,6.234 -1.343,1.283 -3.445,6.207 -7.995,10.348 -1.051,0.961 -1.962,2.152 -3.093,3.003l-3.772 2.922c-0.665,0.581 -2.701,2.01 -2.582,3.233 0,0.06 0.06,0.09 0.14,0.11 -0.45,0.45 -0.91,0.911 -1.361,1.331 0,0 0.061,0.03 0.14,0.06l-3.462 3.663c-1.032,0.968 -2.657,1.78 -4.222,3.403 -1.849,1.918 -4.602,3.356 -5.183,4.113l-1.471 1.992c-0.568,0.685 -1.546,1.403 -2.462,2.922l-5.283 6.385c-0.097,0.078 -4.102,4.948 -6.954,7.296 -0.363,0.299 -4.029,5.364 -5.534,6.835 -2.018,1.973 -3.165,1.399 -1.901,2.302l-2.102 2.722c-0.668,1.033 0.186,0.326 -1.051,1.021 0.2,-0.143 -0.248,-0.507 -2.912,3.613l-0.6 0.74 -3.292 3.633c-0.711,0.74 -1.471,1.421 -2.182,2.151l-3.662 4.534c-0.771,0.821 -1.641,1.531 -2.442,2.322 -2.191,2.214 -3.501,5.36 -5.794,7.696 -0.77,0.77 -1.701,1.331 -2.491,2.101 -1.591,1.502 -3.002,3.263 -4.653,4.734 -0.771,0.651 -1.391,1.471 -2.132,2.152 -0.74,0.68 -1.591,1.251 -2.321,1.962 -0.79,0.74 -1.451,1.671 -2.321,2.351 -2.759,2.108 -6.424,4.033 -9.387,6.305 2.332,0.16 5.164,0.311 7.825,0.431 2.164,-0.197 10.391,-6.333 12.288,-7.726 3.11,-2.282 3.238,-3.116 5.254,-5.564 0.6,-0.711 1.28,-1.391 1.811,-2.152 1.081,-1.451 1.731,-3.233 3.032,-4.514 1.973,-1.919 7.669,-4.886 8.926,-6.545 0.395,0.481 -0.176,0.447 1.561,-1.241 6.889,-6.693 7.653,-2.64 14.869,-14.721 1.027,-1.72 3.318,-4.437 4.003,-6.265l1.581 -3.653c0.94,-1.332 1.931,-2.643 2.922,-3.944 0.03,-0.06 0,-0.17 -0.03,-0.31l1.871 -2.382c3.694,-3.795 4.953,-4.48 9.056,-7.436 2.046,-1.474 0.49,-0.472 2.522,-1.361 1.424,-0.624 4.78,-3.405 7.204,-4.574 4.538,-2.187 4.513,-3.508 7.765,-6.555 0.741,-0.68 1.641,-1.111 2.382,-1.791l3.632 -4.054c1.867,-1.834 2.199,-2.984 5.043,-4.373 0.919,-0.449 1.201,-0.892 2.302,-1.111 0.62,0.03 1.391,-0.651 1.761,-1.251l2.212 -1.331c0.88,-0.54 1.591,-1.251 2.411,-1.811 2.113,-1.437 3.91,-2.086 5.324,-4.364 2.051,-3.302 1.57,-2.395 4.113,-5.044 1.272,-1.325 2.23,-3.146 3.152,-4.313 -0.483,2.149 0.051,0.887 -0.971,3.262 -2.095,4.866 -3.798,6.415 -6.464,10.949 -2.175,3.699 -2.065,4.303 -5.224,6.615 -0.851,0.651 -1.841,1.081 -2.492,1.962 -0.34,0.45 -0.71,0.77 -1.13,1.081 -0.09,-0.171 -0.14,-0.281 -0.11,-0.31 -2.55,2.549 -5.941,3.521 -7.935,6.355 -2.875,4.084 -7.895,6.954 -12.078,9.567 -1.161,0.711 -2.271,1.641 -3.492,2.302 -0.06,0.029 -0.09,0.11 -0.09,0.23 -0.764,0.221 -2.562,1.117 -2.562,1.761 0.073,0.04 0.14,0.071 0.201,0.09 -0.14,0.11 -0.281,0.2 -0.431,0.281 0.765,-1.072 -3.562,2.978 -3.973,3.492 -1.158,1.451 -0.298,0.701 -1.901,1.932 -5.94,4.561 -4.902,5.786 -9.055,9.277 -2.872,2.414 -2.87,4.017 -5.554,6.065 -1.131,0.85 -1.901,2.132 -2.692,3.262 -0.99,1.421 -2.211,2.752 -3.122,4.223 -1.959,3.225 -0.407,0.835 -2.552,3.183 -4.444,4.864 -1.477,3.086 0.341,1.221l3.662 -4.223c0.43,-0.431 0.941,-0.741 1.331,-1.191 0.68,-0.821 1.191,-1.792 1.811,-2.642 1.212,-1.66 2.399,-1.578 4.853,-4.854l2.892 -4.063c0,-0.03 0.03,-0.03 0.03,-0.03 0.34,-0.4 0.65,-0.791 0.99,-1.161 0.95,0.95 2.397,-0.76 2.902,-1.331 -1.572,1.974 -2.147,2.875 -4.263,4.644 -1.887,1.578 -0.479,1.969 -2.412,3.693 -0.029,0.029 0.03,0.17 0.14,0.31 -1.069,1.657 -1.67,1.594 -3.542,3.923 -1.956,2.434 -3.929,6.313 -6.694,9.167 -2.225,2.297 -2.017,2.659 -3.633,4.574 -0.11,0.14 0.231,0 0.451,-0.09 -0.14,0.17 -0.31,0.37 -0.51,0.541 -0.14,-0.061 -0.281,-0.061 -0.341,0 -2.826,3.039 -6.165,5.112 -9.306,7.745l-6.724 4.344c-1.849,1.059 -0.965,0.143 -4.113,2.331 -1.331,0.911 -2.612,1.932 -3.912,2.923 -1.331,0.991 -2.472,2.182 -3.863,3.152 -2.263,1.612 -1.296,0.659 -2.952,3.012 -0.2,0.281 -0.51,0.721 -0.75,1.192l10.737 -0.03c0.91,-1.421 1.941,-2.762 3.292,-3.803l0.021 -0.061zm33.812 -66.212c-0.061,0 -0.111,0.03 -0.171,0.03 0.091,-0.09 0.171,-0.17 0.261,-0.28 -0.03,0.09 -0.06,0.17 -0.09,0.26l0 -0.01zm52.133 54.273c1.719,-2.274 0.732,-1.532 1.932,-4.994 0.32,-0.923 0.213,-1.246 0.6,-1.671 3.872,-4.247 2.175,-5.161 0.06,-1.852 -1.343,2.101 -0.66,2.08 -2.011,3.373 -2.399,2.295 -2.591,3.27 -5.174,5.444 -2.391,2.014 -1.963,2.884 -3.602,5.414 -0.17,0.26 -0.31,0.511 -0.481,0.771 0,0 -1.627,0.975 -1.931,1.531l-0.2 0.14c-0.26,0.2 -0.43,0.45 -0.651,0.65 -0.79,0.621 -1.501,0.881 -1.961,1.842 0.09,-0.06 0.881,-0.261 0.991,-0.541l0 0.03c0,0 0.94,-0.26 0.99,-0.541 0.14,-0.88 1.561,-1.421 2.242,-1.931 1.439,-1.031 0.152,-0.936 4.023,-3.152 2.722,-1.559 2.965,-1.684 5.153,-4.534l0.02 0.021zm3.263 -8.597c0.14,-0.23 0.31,-0.45 0.45,-0.68 0,0 0.01,-0.01 0.03,-0.031 -0.17,0.341 -0.45,0.791 -0.79,1.282 0.09,-0.2 0.2,-0.401 0.31,-0.571zm-78.801 21.987l1.08 -1.19c0,0.09 0.03,0.14 0.03,0.14 0.11,-0.111 0.2,-0.261 0.26,-0.371 0.256,-0.314 0.812,-0.365 0.431,-0.851l2.561 -2.772c1.185,-0.93 3.553,-1.793 3.553,-3.032l3.772 -3.092 3.063 -3.713c0.528,0.642 0.225,0.068 1.33,-0.631 0.4,-0.23 0.711,-0.28 1.081,-0.451 2.394,-1.053 4.406,-3.928 6.094,-5.754 0.651,-0.711 1.421,-1.421 2.132,-2.072 0.74,-0.71 1.301,-1.561 2.101,-2.242 0.68,-0.62 1.501,-1.081 2.101,-1.791l2.982 -3.463c1.291,-1.243 3.069,-4.363 4.173,-6.034 2.157,-3.268 3.503,-4.22 6.955,-6.586 3.538,-2.425 5.187,-2.848 8.395,-4.853 1.606,-1.004 2.878,-3.303 4.443,-4.393 0.88,-0.621 1.841,-1.451 2.952,-1.471 -0.03,0 -0.17,-0.451 -0.37,-0.741 0.731,-0.625 2.809,-2.388 2.872,-3.343 0,-0.03 0.03,-0.51 -0.06,-0.43 -1.042,1.076 -2.879,3.085 -4.093,3.783 -4.562,2.622 -2.666,2.117 -9.137,4.553l-4.282 1.902c-0.986,0.63 -2.621,3.391 -4.744,5.384 -0.51,0.481 -0.96,1.221 -1.701,1.302 -1.942,0.25 -1.477,2.377 -6.234,6.244 -1.147,0.933 -3.195,4.107 -3.922,5.465 -0.315,0.587 0.003,0.749 -0.941,1.16 -2.821,1.229 -2.951,3.524 -4.623,5.105l-4.823 4.363c-1.081,0.881 -2.321,1.701 -2.722,3.122 -0.38,1.197 -1.741,2.475 -2.751,3.193 -0.09,0.06 -0.11,0.23 -0.14,0.43 -0.31,0.51 -0.651,1.021 -1.021,1.531l-4.283 2.983c-3.082,2.026 -1.754,0.203 -4.252,3.262 -3.812,4.668 -0.437,2.704 -6.865,7.856 1.795,0.06 1.719,0.297 2.982,-0.931 0.54,-0.51 1.161,-1.02 1.641,-1.561l-0.02 -0.01zm92.27 -182.922c-0.558,1.055 0.179,1.245 0.73,1.421 -0.467,0.468 -0.48,0.137 -1.672,1.622 -0.77,0.96 -1.64,1.931 -2.271,2.982 -2.657,4.522 -1.41,1.928 -4.483,5.164 -3.858,4.062 -4.49,6.302 -7.085,9.167 -0.4,0.43 -0.65,0.941 -1.05,1.391 -0.31,0.4 -0.791,0.621 -1.191,0.941 0,0 0,0.03 -0.03,0.03 0,-1.276 0.621,-0.632 1.081,-3.193 1.196,-6.653 1.142,-3.973 2.952,-8.567 0.794,-2.015 0.148,-3.333 0.2,-4.313 0.078,-1.478 2.957,-6.065 3.833,-7.576 0.34,-0.601 0.62,-1.251 1.02,-1.812 0.431,-0.6 0.881,-1.131 1.191,-1.791 0.09,-0.17 -0.85,-0.62 -0.99,-0.57 -1.497,0.547 -2.21,3.23 -4.594,5.614 -2.589,2.59 -1.389,1.408 -1.5,3.342 -0.178,3.109 -2.833,5.72 -3.292,7.696 -0.31,1.302 0.14,2.753 -0.54,3.973 -1.135,2.031 -2.064,0.667 -4.403,5.085 -0.708,1.336 -1.987,6.597 -3.893,6.916 0,0 0.17,0.17 0.37,0.31l-5.593 3.212c-4.401,2.789 -2.683,2.817 -6.495,5.474 -4.314,3.007 -5.005,5.457 -10.577,9.698 -0.969,0.738 -4.292,2.668 -4.292,3.212 -3.482,1.741 -6.142,3.581 -9.306,5.875 -0.511,0.37 -1.021,0.85 -1.591,1.161 -0.854,0.477 -5.354,3.217 -5.354,3.913 -0.481,0.37 -0.911,0.94 -1.331,1.331 -3.51,3.23 -2.653,2.159 -6.074,4.483 -1.868,1.269 -7.111,5.03 -8.275,6.635 -0.233,0.32 0.255,0.136 -0.691,1.081 -1.24,1.238 -3.694,2.164 -6.014,3.773 -1.355,0.94 -5.612,7.472 -6.074,8.857 -0.51,0.681 -0.68,1.562 -1.161,2.272 -0.508,0.752 -1.845,1.261 -3.202,4.033 -0.45,0.941 -1.111,1.792 -1.471,2.752l-0.059 -0.03c0,0 -0.03,0.03 -0.03,0.11l0 -0.03c-0.401,0.911 -1.531,1.301 -2.042,2.182l-3.062 4.363c-0.653,1.362 -1.791,1.066 -1.791,1.762 -1.749,1.475 -1.261,2.726 -1.131,2.452 0.638,-1.341 2.449,-2.08 2.452,-2.082 0.23,-0.2 0.31,-0.48 0.37,-0.741 0.181,-0.303 4.316,-2.669 5.474,-3.853 0.62,-0.62 1.25,-1.221 1.871,-1.841 0.958,-0.958 3.155,-1.485 4.033,-3.853 0.945,-2.549 1.947,-2.347 2.581,-2.722 0.621,-0.371 1.131,-0.941 1.791,-1.281 2.34,-1.23 8.207,-1.75 10.127,-3.523 0.885,-0.817 1.086,-1.885 3.663,-4.253l3.032 -3.313 2.521 -2.102 1.762 -1.331c0.43,-0.4 0.77,-0.851 1.191,-1.301 0.14,-0.14 0.11,-1.131 0.09,-1.131 -0.25,0.053 -0.959,1.272 -2.041,1.961l-2.162 1.501c-0.88,0.651 -1.871,1.161 -2.752,1.792 -1.913,1.339 -0.53,1.557 -5.863,4.654 -0.571,0.31 -1.051,0.77 -1.592,1.08 -1.501,0.941 -3.032,1.812 -4.542,2.723 3.143,-4.3 4.558,-6.628 9.045,-10.068 1.172,-0.898 1.503,-2.051 4.453,-4.023 0.621,-0.431 1.161,-0.771 1.622,-1.251 0.029,0.09 0.029,0.14 0.029,0.14l3.803 -3.033c1.45,-1.021 2.722,-2.242 4.112,-3.322 1.221,-0.911 2.582,-1.672 3.803,-2.582 1.053,-0.782 1.517,-2.385 3.992,-3.093 4.368,-1.249 5.803,-2.64 9.286,-5.084 3.144,-2.206 4.088,-1.874 6.184,-3.543 4.372,-3.481 5.859,-2.422 10.807,-5.304 2.123,-1.237 2.571,-0.883 2.471,-1.742 3.896,-2.425 6.832,-3.272 10.047,-6.385 0.48,-0.45 0.96,-0.88 1.471,-1.281 0.512,-0.405 4.017,-4.682 5.703,-5.834l2.212 -3.062c0.8,-1.536 0.14,-1.266 1.821,-3.603 0.934,-1.298 0.594,-2.29 3.863,-4.534l3.842 -3.183c0.261,-2.632 0.541,-5.454 0.841,-8.166l-1.951 1.672c2.533,-3.783 1.938,-1.844 2.381,-5.335 0.24,-1.931 0.461,-3.693 0.691,-5.294 -0.501,0.3 -0.991,0.631 -1.251,1.151l-0.05 -0.028zm-158.263 -83.806c-1.405,0.703 -3.091,1.491 -4.073,2.482l-0.03 0 0 0.03 -0.03 0 0 0.03 -0.12 0.06c0,0 0,0.03 0.01,0.04 2.74,-0.943 4.238,-2.639 4.243,-2.642zm4.413 19.155c1.732,-1.341 2.34,-1.299 3.722,-3.663 1.313,-2.246 3.859,-4.004 5.814,-5.734l6.264 -6.275c0.715,-0.626 4.827,-4.831 5.163,-5.955 0.508,-1.698 -0.281,-0.533 0.901,-1.402 1.279,-0.94 -0.357,-0.103 2.151,-1.5 1.774,-0.989 2.763,-1.817 5.134,-1.932 1.927,-0.094 3.916,-1.216 5.243,-1.682l3.062 -1.581c0.4,-0.28 0.791,-0.34 1.191,-0.57 0.26,-0.17 0.34,-0.431 0.541,-0.651 0.28,-0.31 0.82,-0.541 1.16,-0.79 1.501,-1.161 3.062,-2.302 4.483,-3.543 2.364,-2.076 1.295,-0.379 4.113,-3.743 0.548,-0.654 0.926,-0.654 1.24,-1.541l-2.071 1.491 0 0.03 -0.06 0.001 0 0.03 -0.06 0 -0.03 0.03 -0.03 0 -0.09 0.03 -0.03 0.03 -0.03 0 -0.121 0.03 -0.029 0.03 -0.091 0 0 0.03 -0.09 0 -5.573 2.452 -5.844 2.091c-3.285,1.237 -5.966,3.594 -8.225,4.574 -3.845,1.668 -3.413,4.757 -6.574,5.304 -5.221,0.905 -5.798,4.996 -7.585,4.934 -0.09,0 -0.14,0.341 -0.17,0.681 -2.332,1.633 -0.598,-0.171 -2.863,2.522 -1.22,1.421 -2.691,2.642 -4.142,3.833 -1.935,1.611 -2.314,0.895 -4.303,3.863 -1.773,2.645 -1.131,0.812 -4.053,3.353 -1.225,1.065 -1.42,1.932 -3.282,1.891l1.41 7.126c0.511,-0.591 0.801,-1.281 1.311,-1.852l2.443 -1.942zm72.727 -40.141c-0.31,0.45 -0.51,1.02 -0.851,1.451l-3.772 4.173c-1.919,1.858 -2.504,1.812 -3.262,2.552 -0.03,0.03 -0.06,0.11 -0.09,0.23l-2.662 1.621c-1.703,1.207 -4.954,3.483 -6.754,4.094 -0.511,0.17 -1.051,0.17 -1.562,0.37 -2.586,1.029 -1.611,0.339 -4.763,2.052 -0.48,0.26 -0.99,0.45 -1.471,0.71l-5.583 4.534c-0.451,0.51 -1.081,0.82 -1.591,1.281l-0.141 0.43c-0.029,-0.17 -0.059,-0.28 -0.059,-0.28 -0.714,0.655 -1.692,0.994 -2.332,2.242 -1.925,3.753 -5.323,2.305 -6.955,8.546 -0.455,1.743 -0.015,2.187 0.02,2.893l-0.11 1.602c0,0.089 0,0.17 0.03,0.26 -0.11,0.31 0.03,0.96 0.03,0.99 0.03,-0.03 0.06,-0.06 0.09,-0.09 -0.455,1.76 0.848,1.531 2.211,1.702 1.542,0.192 6.634,0.629 6.634,-1.822 1.762,-1.25 3.513,-2.492 5.334,-3.632 1.485,-0.933 3.678,0.06 5.673,-3.913 4.887,-9.736 4.655,-6.451 9.736,-11.019 0.03,0.09 0.06,0.11 0.09,0l2.472 -1.421 11.257 -7.035c0.991,-0.431 2.072,-0.621 3.062,-1.081 0.911,-0.451 1.761,-1.111 2.782,-1.331 1.687,-0.357 3.931,-0.178 6.294,-1.281l8.425 -5.304c2.996,-2.688 4.362,-6.801 6.625,-8.788l-5.764 -0.16c-2.312,3.448 -2.273,2.894 -4.923,5.695 -1.051,1.081 -1.811,2.442 -2.892,3.513l-3.942 2.491c-6.014,3.08 -5.926,0.379 -10.867,3.604l-4.484 2.722c-0.71,0.48 -1.45,1.251 -2.271,1.501 -0.06,0 -0.11,0.09 -0.14,0.2 -2.492,1.732 -5.023,3.373 -7.485,5.134 -2.537,1.814 -5.731,3.456 -8.416,5.134l-4.483 3.183 -2.721 2.832 -2.982 3.143c0.469,-1.563 0.042,-0.89 0.79,-2.272 1.232,-2.276 -0.2,-3.052 5.784,-6.475 3.183,-1.82 3.893,-2.79 7.715,-4.834l6.435 -4.173c1.161,-1.021 2.521,-1.791 3.802,-2.662l3.683 -2.612c2.013,-1.184 2.777,-2.475 3.242,-2.612 0.51,-0.14 0.961,0 1.451,-0.281 0.96,-0.54 1.841,-1.501 2.951,-1.811 0.601,-0.2 1.251,-0.17 1.872,-0.28l5.333 -1.592c2.799,-1.736 3.099,-1.864 4.814,-5.044 1.262,-2.34 1.25,-1.941 2.171,-4.503l-13.208 0.25c-1.52,1.82 -2.801,2.945 -4.273,5.184l0.001 -0.011zm33.721 3.152c-1.33,1.221 -2.691,2.322 -3.802,3.743 -0.946,1.228 -2.333,1.926 -3.693,2.642 -0.43,0.231 -0.85,0.541 -1.301,0.771 -0.37,0.14 -0.79,0.17 -1.16,0.31 -4.174,1.613 -4.557,1.372 -8.736,3.773 -0.393,0.225 -2.356,0.573 -4.653,1.961 -0.43,0.26 -0.68,0.651 -1.131,0.881 -1.011,0.532 -3.975,2.805 -5.474,3.492 -0.11,0.061 -0.17,0.261 -0.17,0.481 -0.944,0.944 -2.871,1.765 -4.053,2.362 -2.241,1.131 -4.002,2.982 -6.044,4.423 -1.791,1.251 -4.053,2.492 -5.223,4.374 -1.251,2.011 -2.752,3.802 -4.003,5.814 -0.11,0.17 -0.11,0.45 -0.11,0.68 -1.13,0.911 -2.241,1.842 -3.342,2.782 -3.423,2.89 -2.461,2.763 -6.975,5.955l-2.441 1.591c-0.09,0 -0.11,0.201 -0.14,0.431 -2.412,1.465 -2.285,0.814 -4.483,3.012 -1.362,1.363 -3.154,3.41 -3.682,5.304 -0.904,3.242 -0.56,3.041 -2.492,6.235l-3.632 4.684 -2.802 2.272 -4.233 4.063c-0.51,0.51 -0.911,1.131 -1.421,1.701 -0.91,0.991 -1.981,1.872 -2.781,2.983 -0.681,0.911 -1.191,1.931 -1.872,2.812 -1.261,1.65 -1.191,3.343 -1.19,3.342 -0.486,1.467 0.067,1.768 -0.111,2.722 -0.001,0.008 -0.242,3.439 0.051,2.722 -0.21,0.538 -0.073,1.294 0.03,1.022 0.31,-0.791 0.03,-1.532 0.11,-2.322 0.17,-1.021 0.79,-1.872 0.94,-2.862 0.446,-2.82 3.118,-5.337 5.073,-7.206 0.451,-0.43 0.771,-0.94 1.191,-1.36 0.4,-0.371 0.851,-0.621 1.111,-1.082 0.284,-0.533 4.963,-2.836 4.963,-3.242 0.94,-0.23 1.871,-0.43 2.612,-1.051 0,0.03 0.03,0 0.03,-0.03 0.4,-0.267 0.288,-0.442 0.32,-0.54 0.312,-0.965 4.356,-2.206 5.103,-4.654l1.301 -3.742c0.54,-1.221 1.301,-2.272 1.671,-3.543 0.314,-1.112 1.619,-2.873 2.472,-3.693 0.864,-0.832 1.985,-1.017 2.801,-3.343 0.399,-1.135 1.69,-1.964 2.842,-2.692 0,-0.03 0.03,-0.03 0.03,-0.06 1.302,-0.892 7.014,-0.5 7.014,-1.192 1.301,-0.26 2.582,-0.45 3.913,-0.6l6.634 -1.451c4.525,-1.132 6.977,-2.389 11.607,-2.442 2.166,-0.025 3.928,-0.088 5.924,-0.961 0.927,-0.405 1.481,-0.468 1.481,-1.051l7.545 -4.634c1.945,-1.235 1.567,-0.01 4.203,-2.381 0.96,-0.881 2.011,-1.732 2.922,-2.692 0.94,-0.961 1.761,-2.042 2.751,-2.983l4.823 -3.633c1.561,-0.787 0.95,-0.752 1.131,-1.391 0.37,-0.601 0.79,-1.191 0.99,-1.872 0.535,-1.825 -0.649,-0.231 0.911,-2.812 2.279,-3.771 4.701,-2.997 4.893,-3.762 1.314,-0.356 2.809,-1.472 3.973,-2.102l0 0.06c1.777,-0.889 4.971,-1.695 6.864,-2.122 3.15,-0.71 3.323,-0.419 6.885,-2.181l2.071 -1.221c0.547,-0.209 1.052,-0.161 1.751,-0.82 -0.866,-0.31 -2.401,-1.658 -3.332,-1.512 -0.714,0.112 -0.991,0.229 -0.991,0.581l-5.3 1.221 -3.913 1.051 -4.653 1.061c-1.205,0.291 -1.034,1.722 -0.45,1.681 0.09,0 0.11,-0.17 0.17,-0.2 1.747,-1.094 2.353,0.216 6.385,-1.482 0.4,-0.17 0.82,-0.23 1.25,-0.28l-6.184 2.843 0 -0.03c-1.259,0.569 -1.843,1.462 -4.172,2.242 -4.488,1.502 -4.249,1.301 -8.136,4.363 -0.68,0.541 -1.391,1.051 -2.101,1.531 -1.546,1.035 -1.372,0.687 -3.153,2.132 -1.513,1.228 -5.788,2.791 -7.835,4.873 -1.788,1.82 -2.167,3.124 -5.503,5.165 -1.361,0.82 -2.952,1.591 -4.033,2.782 -1.599,1.678 -0.608,1.221 -3.692,2.782 -2.078,1.052 -2.662,0.691 -4.763,1.05 -2.186,0.374 -10.449,2.146 -11.998,2.943 1.24,-2.595 -1.05,-3.184 1.001,-6.616 1.062,-1.778 2.075,-2.02 4.362,-3.583l3.523 -2.041c1.191,-0.62 2.271,-1.591 3.432,-2.302l13.449 -8.706c0.65,-0.451 1.301,-1.051 2.071,-1.332 0.03,0.091 0.03,0.14 0.03,0.11 4.678,-3.41 11.634,-7.45 16.791,-9.927 1.74,-0.835 4.627,-3.329 8.346,-5.084l3.893 -1.261 -3.523 -1.572c-2.205,-1.497 -0.376,0.493 -3.693,-2.091 -0.22,-0.17 -0.44,-0.36 -0.661,-0.55 -2.516,1.799 -3.217,1.741 -6.374,4.523l-0.03 -0.04zm-100.495 82.385c0.215,-2.144 -0.137,-1.784 0.681,-3.913 0.787,-2.051 1.387,-4.82 2.471,-7.086 0.201,-0.43 0.261,-0.96 0.511,-1.331l1.821 -2.472c0.4,-0.43 0.791,-0.68 1.111,-1.16 1.341,-2.076 3.538,-2.621 4.963,-3.884 2.331,-2.064 1.292,-0.874 2.632,-1.751l2.582 -2.802c1.186,-1.511 4.789,-5.876 3.172,-7.836 -0.03,0 -0.03,-0.03 -0.03,-0.03 -0.767,0.356 -1.099,0.93 -2.011,1.201 -1.224,0.364 0.028,-0.376 -2.401,0.83 -2.17,1.078 -4.383,5.625 -6.044,7.577l-6.665 5.674c-4.711,3.09 -3.251,2.091 -7.175,5.865 0.421,1.741 0.851,3.363 1.271,4.824 1.161,4.069 2.778,7.879 2.642,10.337l0.469 -4.043zm-2.521 -27.412l3.963 -3.173c1.79,-1.447 4.124,-2.56 5.363,-4.824l1.881 -2.672c0.45,-0.17 0.941,-0.341 1.361,-0.571 0.28,-0.14 0.06,-1.13 0.11,-1.161 -0.03,0 -0.06,0.031 -0.09,0.031 0,-1.24 -0.359,0.002 -1.511,0.62l-4.653 3.032 -6.384 3.853 -4.904 4.424c-0.05,0.04 -0.09,0.069 -0.14,0.11 0.2,1.301 0.4,2.612 0.62,3.933l4.373 -3.613 0.011 0.011zm141.311 -38.55c-2.527,1.316 -5.282,2.146 -6.634,2.952 -1.161,0.711 -2.272,1.562 -3.462,2.272l-4.854 2.842 -6.273 2.442c-2.319,0.662 -5.625,1.142 -7.685,2.383 -0.001,0 -4.283,2.171 -3.463,2.131l2.351 -0.74c7.399,-1.425 12.612,-0.977 18.923,-5.975 0.26,-0.2 2.891,-2.212 3.202,-1.872 0.06,0.09 -1.731,1.982 -1.811,2.072l-9.446 6.665c-0.851,0.601 -1.621,1.251 -2.442,1.901 -1.63,1.302 -2.622,1.382 -5.504,3.724 -0.96,0.79 -2.011,1.501 -3.092,2.151 -0.79,0.481 -1.471,1.111 -2.211,1.672l-11.828 7.406c-6.838,3.726 -8.059,3.449 -14.519,8.767 -0.821,0.68 -1.471,1.501 -2.242,2.242 -0.941,0.91 -2.151,1.45 -3.062,2.411 -2.452,2.657 -2.06,2.447 -5.083,5.194l-5.334 4.564c-2.138,1.362 -7.62,5.07 -9.275,6.755 -1.281,1.302 -5.424,8.151 -6.615,10.037 -0.71,1.131 -1.361,2.272 -1.931,3.493 -0.26,0.51 -0.54,1.051 -0.74,1.591 -0.168,0.292 -0.973,1.081 -0.31,1.081 -0.09,0.231 -0.2,0.451 -0.341,0.681 0.03,-0.03 0.88,-0.14 1.051,-0.4 0.34,-0.571 0.43,-1.111 0.62,-1.672l1.951 -2.582c0.791,-1.081 1.391,-2.321 2.182,-3.432l5.834 -6.636c2.751,-2.572 7.591,-5.121 10.637,-7.786 2.94,-2.573 4.136,-2.781 7.635,-6.355 1.372,-1.402 1.663,-3.174 3.432,-4.943 0.4,-0.401 0.601,-0.961 0.961,-1.392 0.45,-0.51 1.05,-0.88 1.501,-1.391 2.558,-2.941 5.338,-2.831 7.294,-3.913 0.711,-0.4 1.281,-0.991 2.072,-1.331 2.75,-1.169 0.492,0.116 3.682,-1.791l6.234 -3.233c3.498,-1.786 7.754,-5.089 10.727,-6.124 2.285,-0.796 0.774,0.078 3.352,-1.361l3.943 -2.382c0.947,-0.652 6.251,-2.506 7.114,-2.442 2.44,0.181 3.294,0.683 6.355,-0.15 1.221,-0.341 2.411,-0.4 3.572,-0.941 1.471,-0.65 3.032,-0.881 4.543,-1.451 4.123,-1.534 10.876,-5.791 12.418,-6.325 1.789,-0.618 5.649,-3.299 7.855,-4.423 1.612,-0.831 3.253,-1.591 4.884,-2.362l0.4 -1.071 -0.03 -0.001 0 -0.09 -0.03 -0.03c0,-0.298 0.013,-0.302 -1.361,-0.97 -2.365,-1.151 -1.921,-1.276 -3.913,-0.571 -2.306,0.816 -4.577,2.915 -6.444,4.453l-6.864 4.624c-2.006,1.152 -2.696,1.666 -5.023,2.611l-3.603 1.682c-1.467,0.647 -5.397,1.325 -6.975,1.731 -4.652,1.197 -4.348,0.374 -6.924,0.79l3.112 -4.844c1.493,-2.023 6.815,-4.216 9.436,-7.145 1.838,-2.053 8.55,-5.897 11.037,-7.036 0.741,-0.34 1.471,-0.68 2.212,-1.081l1.991 -1.161c-1.081,-0.48 -2.122,-0.87 -3.192,-1.24 -2.132,1.38 -4.263,2.762 -6.574,3.862 -1.161,0.511 -2.352,0.941 -3.493,1.502l0.07 -0.039zm2.302 185.875l-1.311 2.352c-0.14,0.23 0.06,1.081 0.06,1.131l2.242 -2.862c0.72,-0.551 1.471,-1.041 2.211,-1.531 -0.04,-1.452 -0.08,-2.853 -0.11,-4.204l-3.102 5.114 0.01 0zm-0.06 7.907c-1.621,2.411 -3.342,4.713 -4.203,7.515l-2.162 4.454c-0.821,1.331 -1.701,2.442 -2.862,3.492 -1.736,1.58 -2.826,3.801 -4.052,5.215l-2.582 3.352c-0.49,0.745 -1.454,0.5 -1.651,0.19 -0.555,-0.873 2.356,-3.299 3.212,-5.614 1.289,-3.485 3.894,-6.901 4.313,-8.877 0.196,-0.924 0.036,-1.396 1.101,-2.262 1.699,-1.383 1.395,-2.816 1.451,-2.873 -0.09,0.06 -0.14,0.11 -0.23,0.17l-1.822 1.822c-1.766,2.157 -0.706,1.983 -3.893,4.003 -3.293,2.088 -1.84,3.051 -1.761,3.913 0.036,0.393 -1.05,1.907 -1.05,2.601 0,0.171 -0.03,0.201 -0.09,0.031 -1.543,1.612 -4.961,2.415 -6.524,4.503 -0.408,0.544 -2.033,2.979 -2.102,3.743 -0.06,0.711 0.711,1.131 0.821,1.841 0.176,1.028 -0.297,1.727 1.361,1.381 1.224,-0.255 1.77,-1.089 1.251,1.792 -0.497,2.756 0.666,2.324 2.181,1.681 3.536,-1.502 3.633,-0.878 6.264,-4.884 0.231,-0.34 0.511,-0.65 0.771,-1.021 0.28,-0.48 0.48,-0.961 0.85,-1.391 2.091,-2.516 9.274,-12.942 10.277,-15.662 1.143,-3.1 0.607,-2.254 2.772,-5.274 0.7,-0.961 1.391,-1.922 2.061,-2.882 -0.14,-2.042 -0.24,-4.014 -0.32,-5.875 -1.618,1.832 -2.045,2.919 -3.412,4.904l0.03 0.012zm-142.302 -121.445c0,0 0.029,0 0.04,0 0.03,-0.09 0.06,-0.181 0.09,-0.27 -0.05,0.089 -0.09,0.18 -0.13,0.27zm158.352 -59.377l-3.462 1.391 -4.433 1.702c-0.48,0.31 -0.941,0.68 -1.451,0.99 -1.979,1.224 -11.31,5.078 -14.269,5.634l-11.007 2.783c-2.315,1.011 -6.406,3.906 -8.116,5.784 -1.141,1.254 -6.912,9.579 -7.705,10.048 -1.541,0.914 -2.679,3.85 -3.002,4.284 -1.257,1.689 -1.665,1.67 -3.011,4.113 -0.511,0.911 -1.301,1.501 -1.932,2.302 -0.62,0.79 -1.08,1.671 -1.641,2.492 -0.6,0.79 -1.33,1.45 -1.761,2.352 -0.2,0.48 -0.28,0.99 -0.48,1.471 -0.23,0.51 -0.651,0.91 -0.941,1.391 -0.2,0.34 -0.23,0.74 -0.4,1.111l-2.772 3.522c-0.62,0.851 -0.65,1.932 -0.99,2.923 -0.31,0.96 -0.28,1.961 -0.26,2.952l0 0.63c0.088,-0.051 0.82,-0.461 0.82,-0.85 0.793,-0.689 1.466,-1.583 1.811,-2.582l3.233 -5.985 2.041 -2.752 3.893 -5.444c1.499,-1.597 2.837,-2.428 4.282,-4.424 0.851,-1.161 1.902,-1.761 3.122,-2.411 1.962,-1.081 3.743,-2.472 5.844,-3.323 3.746,-1.499 5.908,-3.097 9.296,-4.824 1.051,-0.54 2.242,-0.911 3.262,-1.501 0.451,-0.28 0.821,-0.68 1.301,-0.911l4.373 -2.722c9.071,-5.617 7.266,-4.256 16.481,-7.406 0.45,-0.17 0.91,-0.37 1.391,-0.51 0.57,-0.14 1.191,-0.14 1.731,-0.401 1.825,-0.878 4.526,-3.516 6.754,-4.763 0.451,-0.25 0.901,-0.51 1.361,-0.761 0.571,-3.342 1.181,-5.694 1.831,-7.746l-5.203 1.441 0.009 0zm-152.769 251.467c1.119,-1.7 4.745,-4.015 7.235,-7.406 0.4,-0.571 0.651,-1.281 1.111,-1.792 4.132,-4.657 6.717,-4.769 9.756,-8.967 1.612,-2.226 3.243,-2.121 5.123,-3.693 0.511,-0.4 0.911,-0.911 1.421,-1.301 3.088,-2.314 4.589,-3.716 6.495,-6.986 0.37,-0.57 0.45,-1.191 0.74,-1.791l2.242 -3.433c2.005,-3.215 4.838,-6.559 8.055,-8.676l2.011 -2.212c2.179,-1.526 1.037,-0.914 2.552,-2.662 1.148,-1.325 1.968,-2.876 3.182,-4.144 1.301,-1.05 2.812,-1.791 4.173,-2.782 0.65,-0.48 1.221,-1.05 1.791,-1.641 0.57,-0.37 1.131,-0.77 1.591,-1.221 0.37,-0.34 0.68,-0.711 0.991,-1.111 0.79,-0.31 1.47,-0.68 2.211,-1.131 0.77,-0.48 1.161,-1.251 1.671,-1.981 0,0 -0.09,0 -0.23,-0.03 1.802,-4.528 2.356,-3.866 6.014,-7.546 0.922,-0.928 3.853,-2.985 4.373,-3.773 2.009,-3.043 1.592,-2.647 4.253,-5.214 4.525,-4.366 2.46,-2.976 7.854,-6.676 2.339,-1.604 4.518,-4.076 8.026,-6.555 1.11,-0.785 3.21,-2.723 3.602,-4.314 0.407,-1.653 5.302,-4.551 6.634,-5.484 1.262,-0.885 2.439,-2.265 3.513,-3.433 0.28,0.061 0.65,0.14 0.79,0.03 2.624,-2.188 3.943,-3.951 5.453,-7.005 0.607,-1.228 0.016,-0.856 1.441,-2.612l4.883 -5.335 7.655 -5.704c0.881,-0.681 1.901,-1.421 2.692,-2.212 1.331,-1.331 2.321,-2.922 3.772,-4.203 0.818,-0.716 7.488,-7.236 7.766,-7.976l0.88 -10.558c-3.897,5.196 -3.05,3.808 -5.643,9.707 -0.79,1.812 -2.042,3.343 -3.092,5.024 -1.334,2.113 -1.581,3.194 -4.283,4.814 -1.471,0.911 -3.122,1.531 -4.593,2.472l-8.675 6.836c-0.03,-0.261 -0.06,-0.511 -0.06,-0.511 -1.872,0.821 -2.522,2.863 -3.693,4.394 -1.854,2.468 -1.672,1.682 -3.942,5.164 -1.034,1.586 -8.782,6.646 -10.377,7.686 0,-0.605 -0.946,1.136 -0.99,1.221 -1.261,2.445 0.266,1.299 -3.683,3.993l-6.343 4.424c-2.201,1.774 -1.532,2.632 -5.924,5.364l-7.235 4.114c-0.11,0.029 -0.17,0.28 -0.23,0.51 -3.263,0.287 -5.104,1.474 -7.595,3.062 -4.799,3.058 -3.42,2.603 -6.634,6.525 -5.472,6.676 -8.646,7.387 -12.939,11.459l-3.142 4.033 -1.561 1.731 -1.39 1.361c0.457,-1.018 -2.19,2.381 -2.332,2.583 -0.68,0.96 -1.561,1.731 -2.242,2.662 -1.42,1.901 -3.372,3.262 -4.933,5.054 -3.457,3.948 -8.889,5.483 -12.138,9.297l-2.491 3.743c-0.842,2.787 -1.913,2.816 -2.582,4.874 -0.553,1.701 -0.49,2.371 -1.471,3.553 -1.788,2.155 -2.197,1.578 -4.402,4.794 -1.739,2.536 -1.873,3.169 -4.203,5.043 0,0.001 -3.002,1.528 -4.173,2.773 -1.653,1.757 -1.174,1.633 -1.431,4.483 2.37,-2.659 2.061,-1.854 4.173,-3.603 1.621,-1.33 2.812,-3.202 4.653,-4.223 0.17,-0.11 0.28,-0.37 0.37,-0.57 0.74,-0.571 1.451,-1.111 2.011,-1.901l3.232 -5.135c0,0.37 1.015,-0.377 1.021,-0.389 0.45,-0.881 0.99,-1.732 1.561,-2.553 1.378,-2.029 0.269,-1.652 3.413,-4.733 1.289,-1.264 3.163,-2.557 4.482,-4.373 0.571,-0.771 1.081,-1.622 1.621,-2.412 0.961,-1.451 2.152,-2.752 3.232,-4.113 0.09,0 0.14,-0.06 0.171,-0.09 1.791,-2.182 3.772,-3.974 6.183,-5.445 1.822,-1.103 2.474,-2.475 3.663,-3.913 0.45,-0.54 1.021,-0.911 1.531,-1.361l-0.172 -0.001 2.272 -1.811c1.131,-0.741 1.811,-1.792 2.752,-2.723 2.101,-2.101 4.423,-4.003 6.864,-5.754 4.224,-3.043 3.824,-4.553 5.843,-7.316 1.841,-2.492 4.763,-3.913 7.205,-5.754 0.68,-0.511 1.301,-1.082 2.041,-1.562l2.722 -1.901c-0.272,1.554 0.132,0.416 -0.4,1.311l-2.922 6.105c-0.288,1.273 -0.543,1.432 -1.471,2.222 -3.779,3.215 -4.029,3.54 -7.174,7.296l-7.515 6.835c-3.561,2.483 -2.561,2.847 -6.414,5.274l-3.883 2.812c0,-0.434 -0.54,0.321 -0.54,0.401 -0.56,-0.011 -1.309,1.143 -1.562,1.541l-2.931 4.143c-1.893,-0.094 -2.505,0.914 -3.713,2.662 -2.084,3.018 -5.887,11.405 -8.675,13.39 -6.223,4.43 -5.662,2.47 -10.407,9.868l-5.023 5.835c-2.303,2.122 -7.837,9.195 -9.677,11.849 -0.044,0.064 -0.981,2.537 0.461,2.772l1.201 0.45 2.512 -3.883 -0.011 0.041zm53.385 -56.535c0.2,-0.11 0.37,-0.26 0.57,-0.4l-0.74 0.541c0.06,-0.06 0.11,-0.09 0.17,-0.14l0 -0.001zm-50.943 -116.631c3.747,-5.985 5.004,-3.377 7.115,-8.687 0.77,-1.902 1.02,-3.773 1.36,-5.755 0.045,-0.524 3.473,-1.912 4.423,-3.902 0.396,-0.83 0.668,-3.487 1.311,-4.364 0.61,-0.831 1.449,-1.1 0.68,-0.971l-1.361 0.992 -1.611 1.761c-0.57,0.51 -0.85,1.191 -1.421,1.701 -2.23,1.989 -1.898,3.35 -2.441,3.633 -0.796,0.415 -1.466,1.649 -1.811,1.962 -0.481,0.28 -0.881,0.65 -1.111,1.25 -0.679,1.046 -1.19,0.336 -2.101,2.723 -0.674,1.762 -2.044,3.13 -2.603,4.233 -0.4,0.79 -0.62,1.641 -0.88,2.472 -0.481,1.497 -3.089,4.866 -3.142,5.093 0.11,0.851 0.22,1.802 0.35,2.883l3.243 -5.024zm151.238 -60.367l-6.794 1.421 -9.477 2.752 -3.262 0.941c-0.595,0.184 -1.386,1.161 -2.131,1.422 -1.496,0.523 -4.934,4.675 -5.784,5.874 -2.279,3.215 -4.952,3.459 -7.625,5.705l-1.821 1.271c-2.791,2.191 -3.009,1.843 -4.743,3.122l-2.322 1.451 -4.533 2.953c-0.487,0.467 -2.044,2.158 -2.952,2.211 0.446,-1.036 -0.051,-0.457 0.911,-1.271 0.651,-0.54 1.131,-1.221 1.841,-1.731l3.712 -2.922c0.059,-0.16 -1.362,-0.88 -1.761,0.109l-3.403 2.032c-2.904,2.098 -3.97,4.156 -5.394,5.584l-5.964 5.985c-4.501,4.349 -3.883,7.377 -6.894,11.489 -2.062,2.815 -0.857,2.058 -3.432,3.743 -3.621,2.369 -4.588,4.628 -6.434,6.135l-4.763 3.993 0.4 0.23c-0.896,-0.001 1.2,1.154 3.774,-0.19 1.94,-1.014 5.447,-2.753 7.065,-4.113 1.78,-1.498 -0.178,-0.764 3.972,-2.893 0.842,-0.432 3.076,-1.879 3.523,-2.672 0.2,-0.341 0.06,-0.651 0.11,-1.021 0.23,-1.111 1.471,-1.531 2.272,-2.152 1.587,-1.215 4.654,-3.053 5.553,-3.973 2.649,-2.712 6.6,-3.151 8.425,-4.934 3.699,-3.612 5.678,-3.034 9.216,-4.734 6.514,-3.128 14.366,-4.417 18.543,-7.355 1.023,-0.72 4.418,-3.317 5.073,-4.224 0.57,-0.771 0.71,-1.561 0.99,-2.442 0.408,-1.309 3.896,-3.027 4.763,-3.663 1.32,-0.967 0.75,-0.845 2.892,-2.102 2.181,-1.279 3.436,-2.893 5.824,-3.913l0.491 -3.473c-3.727,1.128 -4.772,1.991 -7.885,3.152 -7.31,2.728 -5.248,2.559 -11.068,7.206 -3.591,2.868 -4.584,2.626 -8.135,4.283 -1.974,0.922 -4.05,2.889 -5.504,3.263 -1.049,0.27 -4.305,-1.574 -7.484,1.211l-4.083 2.782c-1.344,0.799 -2.28,1.107 -3.742,1.421l3.552 -2.352c0.62,-0.45 1.02,-1.131 1.641,-1.641 1.301,-1.081 2.812,-1.841 4.142,-2.862 1.331,-1.021 2.662,-2.012 4.053,-2.983 2.812,-1.962 5.904,-3.573 8.596,-5.735 1.722,-1.377 6.383,-4.267 8.856,-4.503 1.887,-0.18 1.425,0.913 4.623,-0.571 1.451,-0.68 2.552,-1.981 4.033,-2.522 0.74,-0.26 1.531,-0.43 2.301,-0.65l6.585 -3.233c0.19,-1.601 0.379,-3.253 0.58,-4.904 -0.31,0.03 -0.63,-0.02 -0.931,0l0.009 -0.007zm-128.634 159.144c-1.295,1.203 -3.492,1.173 -5.734,3.993 -1.006,1.266 -5.164,3.012 -7.174,5.335 -1.788,2.065 -3.89,2.868 -6.325,7.186 -0.03,0.06 -0.37,0.68 -0.11,0.51 0.953,-0.659 3.163,-1.156 3.282,-2.492 0.133,-1.491 4.247,-3.162 6.495,-5.765 0.48,-0.57 1.301,-1.281 1.761,-2.041l3.972 -3.073c1.015,-0.923 2.176,-0.416 3.713,-3.153 0.03,-0.06 0.34,-0.71 0.11,-0.51l0.01 0.01zm-23.915 53.312l2.702 -3.773 -0.88 0.481c-1.666,2.021 -0.016,0.496 -2.733,2.772 -0.82,0.691 -1.531,1.531 -2.301,2.312 -0.04,0.64 -0.08,1.241 -0.12,1.811 1.982,-1.916 1.24,-0.891 3.322,-3.623l0.01 0.02zm0.4 -12.43c1.836,-2.079 1.118,-1.792 3.663,-3.713 0.79,-0.601 1.421,-1.361 2.151,-2.042 1.421,-1.301 3.152,-2.132 4.763,-3.093 0.741,-0.45 1.331,-1.08 2.011,-1.591 0.741,-0.57 1.622,-0.941 2.382,-1.471 1.284,-0.911 3.854,-3.857 5.364,-5.274 1.029,-0.965 2.352,-3.69 4.763,-6.155 1.007,-1.029 3.151,-3.131 4.373,-3.773 2.471,-1.296 2.563,-0.417 5.103,-2.401 1.973,-1.541 3.306,-2.09 4.963,-4.774 0.408,-0.661 1.916,-1.969 2.242,-3.543 0.06,-0.26 -0.141,-0.941 -0.371,-1.081 -0.431,-0.272 -3.495,1.005 -4.933,1.311 -1.246,0.265 -3.743,1.744 -4.903,2.392 -1.792,0.99 -3.743,1.621 -5.564,2.582 -7.331,3.937 -7.312,2.123 -11.738,4.303l-4.503 2.382c-1.915,1.22 -1.635,1.802 -2.331,2.642l-4.283 5.614c-1.246,1.831 -3.327,4.072 -3.802,5.434 -0.1,0.761 -0.2,1.532 -0.3,2.302 2.846,-3.472 5.118,-8.12 8.235,-10.088 4.247,-2.681 8.983,-3.007 12.878,-5.354 0.904,-0.545 2.904,-1.779 4.053,-1.872 -1.093,3.381 -2.053,4.302 -4.203,7.266 -2.438,3.36 -4.49,3.455 -7.515,5.594l-8.165 6.095c-2.411,2.242 -3.883,5.304 -6.434,7.406 -0.171,1.411 -0.331,2.772 -0.481,4.063l2.582 -3.161zm76.25 -69.024c0.758,-0.281 2.415,-1.721 3.042,-1.761 0.802,-0.051 1.09,-0.866 3.992,-1.621 1.914,-0.499 0.768,-0.252 1.902,-1.281 0.998,-0.907 0.726,-0.195 2.071,-1.922 0.26,-0.34 0.68,-0.741 0.74,-1.191 1.183,-0.718 0.954,-0.784 1.701,-1.451 2.12,-1.893 2.799,-1.478 3.663,-3.713l1.281 -2.242c0.23,-0.281 0.4,-0.281 0.711,-0.431 0.31,-0.14 0.37,-0.28 0.51,-0.54 0.131,-0.132 1.447,-0.658 0.85,-0.71 -1.881,-0.166 -1.864,0.692 -1.951,0.79 -0.197,0.223 -1.607,0.566 -2.892,2.212 -0.946,1.212 -1.695,1.234 -2.441,1.561l-1.282 1.001c-0.82,0.48 -1.42,1.281 -2.211,1.791 -1.22,0.791 -2.471,1.732 -3.492,2.812 -1.019,0 -0.52,0.18 -2.492,2.283l-3.031 2.532 -0.25 0.15c-1.177,0.459 -0.424,0.624 -0.941,1.161 -0.26,0.28 -0.481,0.26 -0.541,0.68 -0.029,0.14 0.991,-0.06 1.081,-0.09l-0.02 -0.02zm19.913 -16.593c0.17,-0.11 0.45,0 0,0zm-13.499 12.82c0.37,-0.09 0.74,-0.26 1.081,-0.4 -1.149,1.149 -1.533,0.592 -1.822,0.881 0.26,-0.17 0.481,-0.311 0.741,-0.481zm-39.576 34.157c0.053,-0.018 1.805,0.44 3.973,-1.051 1.988,-1.367 1.33,-2.369 3.543,-3.262 0.139,-0.06 0.31,-0.201 0.43,-0.341l1.881 -1.331 0.11 0.201c0.725,-0.727 5.23,-3.145 4.853,-3.523 -0.237,-0.236 -0.167,-1.095 0.54,-1.611 0.51,-0.4 1.05,-0.77 1.561,-1.131 1.021,-0.711 1.901,-1.621 2.892,-2.352l5.583 -3.973c0.875,-0.883 2.196,-2.805 3.633,-3.893 0.939,-0.711 3.882,-2.599 3.882,-3.883 -0.753,-0.408 -1.861,0.861 -2.301,1.391 -0.152,0 -2.25,2.884 -3.572,3.833 -0.791,0.57 -1.671,0.77 -2.522,1.221l-4.483 2.832c-0.43,0.341 -0.79,1.161 -1.331,1.391 0,-0.554 -1.243,0.841 -1.051,0.841 0,0 -0.03,0 -0.03,0.03 -4.763,2.605 -7.441,5.72 -11.227,8.377 -1.376,0.964 -2.886,1.887 -4.083,3.372l-0.94 0.991 -1.001 0.69c-0.09,0.06 -0.11,0.2 -0.11,0.37 -0.059,0.173 -1.22,1.632 -0.23,0.821l0 -0.01zm-38.405 7.036c1.839,-3.962 4.801,-4.697 6.524,-6.666l2.012 -2.922c1.019,-1.064 2.543,-1.064 5.253,-2.972 2.263,-1.594 4.167,-1.135 5.193,-1.791 1.281,-0.791 2.492,-1.872 3.913,-2.352 0.029,0 0,-0.11 -0.06,-0.26 4.123,-2.901 5.312,-4.631 6.604,-9.478 0.433,-1.622 1.167,-1.6 2.772,-2.582 2.039,-1.247 7.76,-5.234 9.076,-6.955 0.43,-0.571 0.79,-1.221 1.25,-1.762 1.107,-1.306 1.697,-0.997 1.331,-1.931 0.534,-0.454 1.301,-1.712 2.042,-1.812 1.817,-0.244 2.726,-1.086 3.462,-2.752 0.054,-0.123 -1.215,-0.405 -2.462,0.431 -1.666,1.116 -2.092,1.207 -4.113,1.561 0.311,-2.227 -0.538,-2.526 1.711,-4.634 4.523,-4.238 4.391,-2.126 9.106,-5.274 1.135,-0.758 0.882,-0.922 2.551,-2.242 4.453,-3.522 2.957,-1.668 6.064,-3.943 3.587,-2.627 0.897,-1.211 3.282,-3.113 2.1,-1.674 2.784,-3.944 6.635,-6.405 4.49,-2.869 2.865,-2.044 6.264,-4.764 2.841,-2.273 7.089,-4.697 9.666,-6.695 2.322,-1.791 4.763,-3.343 7.345,-4.794l0 -0.03c1.006,0.027 2.274,-1.657 2.693,-2.721 0.343,-0.87 -0.088,-1.647 1.141,-3.233 0.19,0.572 0.134,2.162 1.511,2.162 0.341,0 0.571,-0.281 0.821,-0.481 1.201,-0.895 1.379,0.645 5.353,-2.292 1.051,-0.77 2.212,-1.301 3.262,-2.041l3.042 -2.583c0.881,-0.99 -0.74,-2.152 -0.11,-3.092 0.628,-0.915 0.992,-0.103 2.182,-2.392 0.976,-1.88 3.147,-5.666 2.922,-7.716 -0.178,-1.62 3.152,-3.5 3.152,-5.585l0.06 -1.331 3.342 -4.684c0.771,-1.051 1.021,-2.382 1.621,-3.543 1.667,-3.127 2.046,-1.877 2.422,-5.133 0.265,-2.301 2.534,-1.784 4.282,-4.844 0.999,-1.747 1.625,-1.852 3.092,-2.922 1.051,-0.771 2.152,-1.502 3.233,-2.272 0.11,0.09 0.23,0.14 0.28,0.09l3.912 -3.072 1.681 -6.355c-1.933,0.507 -5.21,1.833 -6.804,3.012l-5.954 4.934c-3.537,3.449 -3.419,3.961 -4.963,8.396 -0.28,0.741 -0.68,1.392 -0.85,2.152 -0.431,1.762 -1.562,3.203 -2.612,4.654 -1.106,1.527 -3.275,4.939 -4.533,6.265 -0.6,0.62 -1.331,1.081 -1.871,1.791 -1.775,2.349 -3.175,3.324 -5.644,4.874 -1.73,1.086 -2.026,1.323 -4.453,1.591 -1.571,0.174 -0.916,0.322 -1.881,0.881 -4.363,2.528 -3.082,2.275 -3.773,4.454 -1.16,3.659 -3.72,1.441 -7.574,5.664 -1.343,1.472 -3.867,2.505 -6.014,4.174 -0.51,0.37 -1.451,0.65 -1.701,1.301 -0.14,0.31 0.029,0.62 -0.14,0.941 -0.623,-0.133 -1.179,1.474 -2.983,2.021 -0.88,0.281 -2.011,0.341 -2.661,1.082 -1.413,1.616 -3.199,3.072 -4.933,4.363l-6.985 4.283c-0.04,0.041 1.046,0.372 1.241,0.08l1.651 -0.14c0.34,-0.2 0.71,-0.2 1.05,-0.34 1.021,-0.451 1.701,-1.471 2.642,-2.072l2.812 -1.471c0.438,-0.398 1.167,-0.47 0.76,-0.831 1.281,-1.471 2.472,-3.202 4.563,-3.202 2.405,0 2.444,0.028 4.283,-1.161 -2.301,2.8 -3.127,6.195 -5.354,7.576 -1.249,0.774 -0.833,-0.377 -2.952,2.382 -2.958,3.853 -1.497,3.786 -6.324,7.125l-5.254 3.353c-0.79,0.57 -1.53,0.96 -2.101,1.761 -3.889,5.407 -4.317,4.488 -9.466,8.176l-8.396 6.155c-1.08,0.601 -2.181,1.111 -3.122,1.931l-0.83 0.341c-3.045,2.06 -0.846,2.005 -2.351,4.234 -1.626,2.405 -1.058,0.272 -2.982,4.843l-1.752 3.603 0.121 0.09 -2.412 2.703c-3.458,2.586 -3.654,1.47 -7.345,5.844 -1.761,2.012 -3.152,4.254 -4.653,6.435 -1.501,2.132 -3.572,3.713 -5.133,5.755 -1.867,2.426 -3.957,2.589 -5.273,3.262 -0.681,0.371 -1.281,0.791 -1.982,1.081 0,0 0.03,0.061 0.091,0.14 -1.876,0.086 -1.664,0.129 -2.702,1.482 -1.583,2.06 -5.16,2.734 -5.424,4.022 -0.203,0.987 -0.102,1.685 -1.701,2.663l-3.583 3.002 -0.77 8.647c0.691,-0.821 1.371,-1.661 2.021,-2.512l1.641 -3.613zm69.095 -91.002c-0.601,0.311 -1.221,0.481 -1.811,0.791 -1.111,0.541 -2.072,1.331 -3.122,1.931 -0.511,0.281 -1.051,0.481 -1.561,0.771 -0.541,0.31 -1.021,0.74 -1.562,1.051 -3.43,1.938 -2.792,1.293 -5.503,4.884 -1.598,2.116 -6.416,6.586 -7.205,8.206 -1.814,3.725 -1.916,2.331 -4.052,4.873l-0.14 1.111c0.17,-0.2 0.37,-0.4 0.57,-0.6 0,0.06 0,0.09 -0.03,0.09 1.846,-0.815 2.538,-2.839 3.662,-4.034 1.863,-1.981 4.18,-1.118 8.336,-6.615 1.313,-1.738 0.418,-0.95 2.241,-2.693l5.644 -4.533c1.081,-0.741 2.042,-1.672 3.062,-2.472 1.517,-1.191 1.22,-0.424 2.442,-2.242 0.06,-0.09 0.26,-1.081 0.14,-1.051 -0.371,0.03 -0.771,0.37 -1.111,0.541l0 -0.009zm-67.934 29.614c1.641,-1.111 3.402,-1.962 5.053,-3.032 1.591,-1.022 3.062,-2.242 4.593,-3.323 2.924,-2.09 6.836,-9.654 8.196,-10.268 0.4,-0.17 0.82,-0.09 1.221,-0.23l4.262 -2.772c0.26,-0.261 0.45,-0.571 0.791,-0.741 1.701,-0.941 3.492,-1.812 5.133,-2.892 0.911,-0.601 1.761,-1.251 2.662,-1.812 2.604,-1.583 6,-3.833 8.225,-5.754 0.06,-0.06 0.06,-0.17 0.03,-0.34 2.746,-2.844 2.978,-4.578 4.682,-6.525l3.893 -3.143 1.651 -0.761c3.181,-0.541 2.3,-1.025 4.223,-1.931 1.13,-0.51 2.411,-0.881 3.122,-2.012 0.568,-0.888 -0.675,-0.698 0.83,-2.892 3.006,-4.38 5.426,-3.426 7.886,-9.788 1.189,-3.076 1.142,-6.188 2.331,-8.366 0.28,-0.511 0.37,-1.021 0.57,-1.562 0.231,-0.62 0.771,-0.991 0.961,-1.621 0.6,-2.014 0.796,-1.948 1.701,-3.823l2.212 -6.215c0.873,-2.64 -0.159,-2.5 2.842,-6.045 0.783,-0.925 0.106,-0.901 0.54,-1.611 0.739,-1.207 1.432,-0.452 1.651,-2.382 0.183,-1.605 1.451,-2.243 2.182,-3.863 0.31,-0.65 0.79,-1.131 1.131,-1.761 0.09,-0.171 -0.601,-0.961 -0.771,-0.881 -1.675,0.691 -4.473,5.867 -5.824,6.846 -0.541,0.4 -1.191,0.45 -1.791,0.68 -1.251,0.48 -2.552,1.361 -3.883,1.451 -2.281,0.171 -3.122,1.781 -3.372,1.932 -0.707,0.426 -0.863,-0.474 -2.351,1.221 -1.124,1.279 -2.02,2.842 -3.633,4.233 -0.4,0.31 -0.85,0.54 -1.281,0.82 -1.854,1.223 -1.724,1.841 -4.032,2.092 -0.947,0.103 -1.55,0.981 -1.761,1.131 -0.323,0.229 -1.936,0.795 -2.041,1.791 -0.03,0.14 0.62,0.941 0.77,0.851l2.211 -1.822c1.161,-0.57 2.472,-0.91 3.573,-1.621 0,-0.029 0.03,-0.029 0.06,-0.06 1.131,-0.62 2.181,-1.391 3.152,-2.242 1.111,-0.77 1.901,-1.931 2.892,-2.862l4.223 -3.273c2.011,-1.071 1.864,-0.776 3.492,-1.281 -1.054,2.69 -4.054,3.52 -5.644,5.304 -2.041,2.352 -3.292,5.365 -5.644,7.436 -0.54,0.481 -1.161,0.881 -1.671,1.391l-5.704 4.904c-1.25,0.991 -2.181,2.242 -3.402,3.233 -7.605,6.265 -4.394,2.132 -10.157,10.528 -1.39,2.026 -4.409,6.56 -6.134,7.996l-12.027 9.017c-6.36,4.209 -6.635,8.168 -9.497,12.06 -0.228,0.311 -5.722,4.951 -6.724,6.244 -0.453,0.586 0.111,0.627 -1.951,1.792 -0.68,0.4 -1.451,0.711 -2.131,1.131l-6.425 3.843c0.33,3.102 0.61,5.874 0.851,8.517 2.477,-2.232 1.031,-1.164 4.153,-3.123 1.22,-0.791 2.471,-1.561 3.692,-2.352 -0.823,2.762 -1.537,2.521 -3.232,4.283 -0.651,0.681 -1.251,1.421 -1.901,2.102 -0.721,0.72 -1.691,1.401 -2.442,2.211 0.06,0.811 0.12,1.612 0.18,2.422l3.623 -2.471 -0.02 -0.009zm2.662 36.028c1.081,-0.851 2.242,-1.731 3.492,-2.322 2.085,-0.979 5.144,-3.597 7.285,-4.994 1.081,-0.71 1.47,-1.591 1.901,-2.782 0.99,-2.862 2.441,-5.584 3.692,-8.366 0.651,-1.471 0.911,-3.062 1.761,-4.484 0.519,-0.854 1.93,-3.502 1.642,-4.373 0.953,-1.803 0.305,-3.205 1.931,-5.845 1.331,-2.132 2.642,-4.624 4.713,-6.075l2.862 -2.502c1.058,-1.244 3.241,-4.666 3.833,-6.155l0.49 -1.05c0.405,-0.401 2.253,-1.311 1.871,-2.722 0.741,-0.791 1.251,-1.792 1.701,-2.752 0.024,-0.047 -1.054,-1.031 -2.842,0.65 -0.029,-0.03 -0.06,-0.06 -0.06,-0.09l-0.17 0.29c-0.14,0.14 -0.28,0.28 -0.4,0.43 0,0 0.09,0.061 0.2,0.111 -0.529,1.547 -0.288,2.268 -1.361,3.523l-4.003 4.743c-0.71,0.881 -1.301,1.841 -1.961,2.752l-4.763 5.645c-3,2.891 -5.063,3.674 -7.965,7.285 -0.681,0.851 -1.391,1.672 -2.101,2.492 -0.061,0 -0.111,0.03 -0.111,0.06 -0.202,0.615 -3.873,2.024 -5.813,4.904 -0.231,0.341 -0.37,0.681 -0.48,1.021 -1.191,0.621 -2.322,1.421 -3.463,2.132 -1.777,1.141 -1.735,1.645 -3.632,2.132 -3.11,0.799 -0.893,0.384 -3.372,4.403 -0.211,0.341 -0.371,0.691 -0.521,1.061 -0.03,5.114 -0.11,10.438 -0.23,15.212l5.883 -4.323 -0.009 -0.011zm11.767 -21.017l0 0zm-17.121 -41.112c0.991,-1.021 1.901,-2.131 2.982,-3.092 2.102,-1.872 3.062,-4.654 5.244,-6.435l3.122 -3.713c1.335,-1.872 2.28,-4.718 3.002,-6.015 0.84,-1.508 1.301,-2.7 1.611,-4.453l0.431 0.45c-0.266,-1.022 -0.43,-0.416 0.37,-1.621l3.262 -4.674 0.911 -1.171 1.841 -1.822 5.283 -4.143c1.111,-0.821 1.762,-1.962 2.752,-2.892 1.161,-1.126 1.942,-3.352 5.163,-6.265 1.081,-0.991 2.472,-1.702 3.463,-2.782 1.02,-1.051 1.901,-2.182 2.781,-3.343 2.281,-3.019 6.659,-7.181 9.437,-9.817 4.337,-4.117 1.952,-4.122 6.494,-8.247 0.51,-0.48 0.88,-1.051 1.471,-1.471 1.16,-0.821 2.241,-1.762 3.432,-2.582 1.191,-0.79 2.551,-1.421 3.632,-2.352 3.378,-2.902 3.641,-2.896 6.915,-6.405 1.02,-1.111 2.041,-2.322 3.202,-3.263 1.161,-0.91 2.522,-1.621 3.402,-2.862 0.09,-0.14 -0.48,-1.021 -0.65,-0.961 -1.902,0.71 -5.059,4.031 -6.695,5.564l-7.424 5.364c-7.392,4.908 -12.032,10.644 -18.382,15.943 -1.331,1.081 -2.832,2.102 -3.973,3.403 -0.09,0.11 0.17,0.48 0.37,0.74 -0.566,0.021 -7.103,6.025 -7.866,6.837 -1.244,1.324 -2.351,2.183 -3.382,3.722 -0.941,1.361 -2.101,2.523 -3.062,3.863 -2.152,2.892 -4.453,5.735 -6.554,8.677 -2.242,3.123 -4.223,6.586 -7.034,9.247 -0.09,0.09 -0.2,0.171 -0.281,0.261 -0.11,0 -0.23,0.03 -0.28,0.11 -1.421,2.301 -2.692,4.684 -4.173,6.975 -1.47,2.272 -3.061,4.453 -4.623,6.665 -1.471,2.132 -2.891,4.424 -4.933,6.075 -2.316,1.896 -1.874,2.643 -5.233,4.583 0.16,1.482 0.32,2.983 0.48,4.484l3.492 -2.543 0 -0.039zm48.952 -1.501c1.556,-0.777 6.709,-3.774 7.665,-4.704l1.171 -1.421c0.227,-0.475 -0.11,-1.415 2.552,-3.372 1.525,-1.121 0.84,-1.12 3.512,-3.143 0.541,-0.4 1.161,-0.68 1.702,-1.111 0,-0.03 -0.851,-0.54 -1.051,-0.45l-9.356 5.764c-1.18,0.741 -3.817,3.918 -5.954,5.364 -1.331,0.911 -2.722,2.071 -4.222,2.692 -2.359,0.962 -0.482,-0.457 -4.193,1.761 -3.314,1.981 -2.586,3.23 -4.373,4.914 -0.541,0.51 -1.021,1.131 -1.621,1.561 -1.408,0.998 -3.027,2.361 -3.322,4.174 -0.337,2.069 0.139,2.016 -1.081,2.811 0.03,-0.029 0.17,0.091 0.37,0.201 -0.31,0.54 -0.74,1.081 -1.161,1.501 0,0 0.911,0.62 1.111,0.43 0.62,-0.62 1.081,-1.331 1.391,-2.132 0.991,-0.71 1.982,-1.501 2.722,-2.471 1.371,-1.808 0.724,-1.551 2.972,-3.693 2.296,-2.189 8.313,-7.283 11.177,-8.657l-0.011 -0.019zm13.219 -0.79l-0.971 1.191c-0.23,0.17 0.06,1.111 0,1.13 0.03,0 0.03,-0.029 0.03,-0.029 1.931,-1.502 4.513,-2.102 6.184,-3.913l3.973 -4.113c0.48,-0.401 0.96,-0.771 1.391,-1.191 2.071,-2.072 4.903,-3.173 6.804,-5.395 0.997,-1.163 2.556,-3.283 3.662,-4.193 0.451,-0.371 1.081,-0.741 1.361,-1.221 0.09,-0.14 0.061,-1.191 -0.03,-1.161l-0.48 0.57c-0.06,0.03 -0.11,0.09 -0.14,0.11 -1.257,-0.664 -3.969,3.08 -4.913,3.833 -1.451,0.961 -2.922,1.962 -4.203,3.153 -2.522,2.366 -4.26,4.632 -6.954,6.475 -0.901,0.616 -0.363,0.694 -2.322,1.751 -1.51,0.815 -2.459,1.598 -3.402,3.012l0.01 -0.009zm16.761 -12.82c-0.511,0.51 -1.081,0.96 -1.672,1.391 0.571,-0.451 1.131,-0.911 1.672,-1.391z"/>
    <path fill="#7C0000" fill-rule="nonzero" d="M38.297 122.916c-0.371,0.231 -0.741,0.4 -1.081,0.601 0.03,-0.26 0.03,-0.51 0.03,-0.51 -1.832,0.52 -2.752,2.202 -3.943,3.542l5.223 0.741 3.753 -2.572 0.65 -4.764 -4.643 2.962 0.011 0zm4.903 -27.921c0,0 0.14,0.2 0.34,0.37 -0.65,0.26 -1.25,0.62 -1.931,0.851 -2.391,0.862 -5.841,2.003 -7.655,3.693 -2.951,2.75 -4.196,2.266 -7.435,4.934 -3.199,2.635 -4.005,3.581 -7.885,5.734 -0.692,0.384 -4.579,2.054 -4.673,2.612l-2.241 0.831c-2.692,1.051 -5.194,2.412 -7.746,3.743 -0.57,0.31 -1.13,0.71 -1.73,0.96l-2.202 0.951c-0.052,1.701 -0.089,0.875 6.034,2.092 0.651,0.13 1.381,0.27 2.152,0.43 1.26,-0.23 2.482,-0.55 3.692,-1.05 1.338,-0.557 5.083,-2.827 6.975,-3.543 1.872,-0.709 2.345,-0.436 4.423,-1.642 5.408,-3.136 6.286,-1.554 11.407,-3.863 2.305,-1.039 2.581,-0.315 2.702,-1.361l6.364 -2.472c0.058,-2.112 -0.052,-10.365 0.371,-10.859 0.613,-0.713 0.9,-2.306 0.771,-3.522 -0.388,0.48 -1.458,1.283 -1.733,1.111zm-28.108 -22.438l2.832 -2.071c0.09,-0.111 0.23,-1.161 0.14,-1.132 -0.46,0.125 -0.571,0.068 -0.571,0.481 -0.06,0.03 -0.11,0.06 -0.17,0.11 -1.103,-0.868 -4.342,2.504 -5.363,3.123 -0.276,0.167 -4.726,2.422 -5.064,2.952l-0.47 2.532c1.962,-1.091 4.103,-1.872 5.794,-3.363 0.961,-0.881 1.871,-1.791 2.862,-2.642l0.01 0.01zm-5.274 3.203c0.621,-0.371 1.251,-0.771 1.841,-1.161 -0.57,0.43 -1.191,0.821 -1.841,1.161zm27.118 -2.212c-0.226,0.473 -0.266,2.298 -2.192,3.573 -0.831,0.55 -3.644,0.186 -6.664,2.802 -1.319,1.143 -4.55,2.194 -6.525,3.322 -0.54,0.31 -1.531,0.451 -1.871,1.081 -0.14,0.281 -0.06,0.621 -0.26,0.881 -0.624,-0.133 -1.355,1.346 -3.202,1.651 -0.911,0.14 -2.042,0.06 -2.782,0.711 -1.578,1.381 -3.644,2.638 -5.473,3.653l-4.623 1.981c-0.151,0.611 -0.301,1.211 -0.441,1.782l1.551 -0.34c1.051,-0.311 1.902,-1.221 2.862,-1.672l1.871 -0.711 2.022 -0.8c0.09,-0.11 0.061,-0.201 -0.029,-0.311 1.45,-1.281 2.891,-2.832 4.962,-2.552 2.204,0.282 2.486,0.349 4.364,-0.59 -1.857,1.855 -4.335,5.533 -5.044,6.015 -3.097,2.103 -1.425,-0.29 -4.493,2.752 -3.493,3.462 -1.89,3.448 -7.205,6.214 -0.861,0.441 -1.711,0.881 -2.592,1.261l-0.36 2.112 -0.03 0.03 -0.06 0.33 -0.03 0.03 0 0.06 -0.03 0.001 0 0.06 -0.03 0 0 0.03 -0.03 0c-0.06,0.06 -0.14,0.11 -0.26,2.242l5.163 -2.582c1.111,-0.651 2.102,-1.451 3.172,-2.102 2.994,-1.768 7.688,-3.718 10.467,-5.334 2.552,-1.471 5.194,-2.692 7.916,-3.773 0.029,0 0.029,-0.03 0.029,-0.03 2.642,-0.024 3.568,-4.063 3.723,-4.314 0.14,-0.23 0.511,-0.74 0.881,-1.111 0,0.898 0.012,2.226 1.191,2.363 0.34,0.03 0.6,-0.23 0.88,-0.371 1.449,-0.725 1.224,0.79 5.614,-1.561 1.485,-0.795 2.745,-1.057 4.053,-1.951 -1.453,-4.522 -3.156,-10.992 -4.053,-16.374 -0.921,0.422 -2.038,0.795 -2.422,1.562l-0.02 -0.02zm-8.686 -41.813c-0.71,0.681 -1.281,1.501 -1.961,2.242 -0.681,0.711 -1.501,1.251 -2.042,2.102 -0.28,0.45 -0.43,0.96 -0.68,1.391 -0.31,0.48 -0.77,0.821 -1.111,1.251 -0.667,0.857 0.322,0.076 -1.481,2.041 -1.233,1.344 -0.584,0.237 -1.791,2.472l-2.422 4.483c-0.269,0.782 0.301,0.44 -0.56,1.302 -0.4,0.4 0.11,0.11 0.43,-0.111 -0.029,0.09 -0.029,0.171 -0.06,0.261 0.086,0 0.941,-0.413 0.941,-0.741 0.845,-0.454 1.708,-1.478 2.131,-2.302l4.033 -5.504 2.391 -2.472c2.18,-2.157 3.27,-4.068 5.754,-5.765l-0.971 -3.182c-1.616,1.987 -1.309,1.25 -2.591,2.532l-0.01 0zm2.412 10.208l-6.694 5.134c-4.844,3.531 -4.912,6.908 -8.366,10.469 -2.426,2.501 -0.875,1.776 -3.892,3.292 -1.03,0.518 -0.727,0.206 -1.341,2.042l-1.542 4.974c4.413,-2.084 1.549,-1.638 6.415,-3.383 0.869,-0.311 3.319,-1.46 3.852,-2.181 0.231,-0.31 0.11,-0.621 0.261,-0.991 0.34,-1.051 1.641,-1.331 2.521,-1.812 1.745,-0.989 4.97,-2.421 6.015,-3.242 2.636,-2.071 6.421,-2.264 8.425,-3.392l-2.672 -13.581 -2.992 2.672 0.01 -0.001zm172.202 31.865c1.579,-4.105 4.527,-5.087 6.044,-7.095l1.791 -3.063c1.1,-1.281 2.485,-1.163 5.023,-3.323l1.221 -0.791c0.03,0 0.06,0 0.06,-0.03 0.57,-0.23 1.05,-0.57 1.641,-0.68 0.77,-0.14 1.501,-0.14 2.151,-0.651 1.191,-0.88 2.322,-2.071 3.713,-2.642 0.03,0 0,-0.11 -0.09,-0.26 1.677,-1.269 2.392,-1.962 3.612,-3.663l-2.742 -5.654c-0.45,0.781 -0.91,1.571 -1.371,2.342 -1.33,2.242 -3.292,3.943 -4.713,6.094 -1.639,2.488 -3.587,2.769 -5.043,3.664 -0.62,0.37 -1.221,0.85 -1.901,1.191 0,0 0.06,0.06 0.11,0.139 -1.682,0.234 -1.648,0.098 -2.612,1.672 -1.257,2.053 -4.87,3.001 -5.103,4.404 -0.128,0.763 0.065,1.678 -1.502,2.772 -0.16,0.11 -0.31,0.23 -0.44,0.35 -0.61,3.853 -1.25,6.785 -1.881,9.318 -0.07,0.289 -0.15,0.57 -0.22,0.85 1.895,-2.813 1.166,-2.069 2.262,-4.974l-0.01 0.03zm28.057 -13.591c-0.971,1.144 -1.56,1.033 -1.56,1.562 -1.663,1.663 -1.055,2.75 -0.971,2.522 0.495,-1.351 2.297,-2.257 2.302,-2.261 0.538,-0.516 -0.223,-0.379 0.91,-1.242 -0.13,-0.42 -0.27,-0.85 -0.42,-1.27l-0.27 0.701 0.009 -0.012zm-24.765 61.529c0.139,-0.09 0.26,-0.371 0.34,-0.571 0.68,-0.62 1.331,-1.221 1.841,-2.041l2.892 -5.354 0 0.029c0,0 -0.03,0.03 -0.03,0.06l0.03 0 0.97 -0.54c0.4,-0.911 0.881,-1.791 1.391,-2.662 1.151,-1.965 0.204,-1.783 3.072,-4.964 1.23,-1.363 2.974,-2.771 4.143,-4.654 0.541,-0.82 0.991,-1.701 1.451,-2.522 1.992,-3.507 5.763,-8.035 8.906,-10.308 1.73,-1.25 2.243,-2.562 3.372,-4.163 0.4,-0.57 0.94,-0.96 1.421,-1.471 0,0 -0.06,0.03 -0.171,0.03 0.071,-0.07 0.151,-0.13 0.221,-0.2l-0.371 -2.752c-0.37,0.5 -0.72,1.021 -1.041,1.551 -0.57,0.991 -1.42,1.812 -2.041,2.782 -1.281,2.012 -3.122,3.513 -4.563,5.414 -3.125,4.158 -8.477,6.121 -11.458,10.128l-2.211 3.924c-0.623,2.77 -1.621,2.817 -2.211,5.054 -0.47,1.778 -0.342,2.383 -1.262,3.663 -1.54,2.144 -2.167,1.84 -4.052,5.073l-2.101 3.603c-0.966,1.263 -2.006,1.795 -3.012,2.562 4.665,-0.359 1.807,0.111 4.492,-1.651l-0.018 -0.02zm11.857 -1.922c1.372,-2.269 3.256,-2.441 4.884,-4.033 0.45,-0.451 0.82,-0.991 1.301,-1.421 2.922,-2.519 4.293,-3.964 6.013,-7.416 0.281,-0.6 0.341,-1.221 0.601,-1.841l1.981 -3.573c1.442,-2.633 3.031,-5.043 5.163,-7.175l-1.351 -7.276c-0.179,0.16 -0.36,0.33 -0.55,0.47l-0.51 0.461c-0.658,-0.007 -2.238,2.815 -2.672,3.512l-1.421 2.442c-1.886,0.093 -2.457,1.103 -3.522,2.922 -1.829,3.125 -5.082,11.813 -7.725,13.981 -6.096,4.999 -5.375,2.796 -9.676,10.578 -0.26,0.47 -0.54,0.9 -0.831,1.331l6.345 -0.42 1.951 -2.552 0.019 0.01zm-17.611 -14.131c1.668,-2.286 1.083,-1.953 3.412,-3.973 0.74,-0.68 1.331,-1.471 2.011,-2.212 1.301,-1.391 2.982,-2.321 4.513,-3.402 0.741,-0.51 1.251,-1.161 1.901,-1.732 0.711,-0.62 1.562,-1.02 2.302,-1.621 1.125,-0.942 3.626,-4.216 4.963,-5.674 1.111,-1.211 2.031,-3.782 4.313,-6.445 1.018,-1.188 2.864,-3.35 4.113,-4.113 2.267,-1.387 2.501,-0.579 4.903,-2.762 0.54,-0.491 1.12,-0.931 1.671,-1.381l-1.411 -6.345 -3.662 2.261c-1.701,1.131 -3.633,1.872 -5.334,2.983 -6.712,4.347 -6.961,2.563 -11.427,5.133 -1.542,0.888 -5.067,2.853 -5.844,4.194 -0.23,0.43 -0.34,0.88 -0.62,1.281l-3.893 5.904c-0.51,0.911 -1.05,1.842 -1.671,2.693 -2.92,3.972 -0.326,1.887 -2.962,4.133 0.12,0.57 0.1,1.141 0.07,1.681 0.04,-0.04 0.06,0.16 0.06,0.6 0,0.441 0,0.1 0,0.15 3.455,-4.1 5.079,-9.412 8.486,-11.899 3.997,-2.918 8.728,-3.615 12.448,-6.245 0.916,-0.647 2.727,-1.907 3.943,-2.182 -0.862,3.549 -1.722,4.337 -3.683,7.576 -2.121,3.507 -4.408,3.848 -7.094,6.065l-7.745 6.665c-2.242,2.412 -3.493,5.565 -5.904,7.856 -1.196,1.142 -0.679,0.504 -0.831,3.683l-0.11 1.13 -0.03 0.001 0 0.03 -0.14 0.811 3.262 -4.864 -0.01 0.02zm-1.731 15.372c1.395,-1.257 3.435,-5.084 4.653,-6.925l-0.861 0.54c-1.447,2.114 -0.188,0.696 -2.522,2.952 -0.83,0.811 -1.51,1.772 -2.271,2.653 0,0.71 -0.02,1.351 -0.02,1.841 0.33,-0.37 0.66,-0.73 1.021,-1.061l0 0zm39.596 -8.787c-0.681,0.881 -1.531,1.641 -2.272,2.492 -1.503,1.778 -2.599,4.234 -3.932,6.265l7.585 -0.991c0.539,-0.297 0.3,-8.741 0.3,-10.108l-1.681 2.342zm-35.403 -30.704c0.899,-0.749 3.121,-1.294 3.121,-2.722 0.03,-0.03 0.061,-0.2 0.061,-0.31 0.508,-1.424 4.055,-3.277 6.024,-5.875 0.45,-0.6 1.251,-1.361 1.621,-2.152l3.752 -3.352c1.064,-1.092 1.937,-0.34 3.493,-3.403 0.639,-1.257 -0.422,0.079 -0.761,0.23 -3.215,1.434 -3.331,2.416 -4.974,4.123 -1.007,1.047 -4.835,3.192 -6.414,5.365 -1.738,2.393 -3.011,2.226 -5.784,7.595 -0.029,0.06 -0.31,0.711 -0.11,0.511l-0.029 -0.01zm8.905 -38.58c5.653,-4.703 3.814,-2.658 6.164,-9.137 -1.914,-2.22 -4.113,-3.782 -6.334,-5.224 -0.57,-0.37 -0.68,-0.451 -0.74,-0.571l-0.03 0 0 -0.06 -0.03 0 0 -0.03c-2.77,7.104 -4.236,10.957 -5.494,19.886 0.911,-0.821 1.852,-1.601 2.902,-2.182 1.301,-0.77 2.381,-1.731 3.542,-2.692l0.02 0.01z"/>
   </g>
  </g>
  <path fill="none" d="M136.796 295.988c2.461,-0.097 4.626,-0.225 7.017,-0.355 2.39,-0.131 5.006,-0.265 8.261,-0.493 3.256,-0.228 7.151,-0.55 10.471,-0.852 3.319,-0.302 6.061,-0.583 8.794,-0.949 2.732,-0.365 5.455,-0.814 7.654,-1.25 2.2,-0.436 3.876,-0.858 6.001,-1.331 2.126,-0.473 4.701,-0.996 6.595,-1.321 1.894,-0.325 3.108,-0.453 4.268,-0.536 1.16,-0.084 2.267,-0.124 3.155,-0.117 0.889,0.008 1.559,0.063 1.956,0.094 0.396,0.031 0.518,0.038 0.611,0.043 0.049,0.002 0.09,0.004 0.127,0.006 0.093,-0.07 0.162,-0.18 0.177,-0.779 0.016,-0.673 -0.037,-1.966 -0.106,-2.786 -0.069,-0.819 -0.154,-1.166 -0.285,-1.855 -0.131,-0.689 -0.307,-1.72 -0.651,-2.686 -0.345,-0.965 -0.858,-1.866 -1.476,-3.045 -0.619,-1.179 -1.343,-2.638 -1.783,-3.616 -0.44,-0.978 -0.596,-1.476 -0.848,-2.693 -0.251,-1.217 -0.598,-3.153 -0.953,-5.871 -0.354,-2.718 -0.716,-6.219 -1.038,-8.884 -0.322,-2.666 -0.603,-4.496 -1.081,-7.559 -0.478,-3.062 -1.152,-7.357 -1.71,-11.521 -0.558,-4.164 -1.001,-8.198 -1.348,-12.226 -0.347,-4.028 -0.598,-8.051 -0.759,-11.637 -0.161,-3.586 -0.231,-6.734 -0.287,-9.787 -0.055,-3.052 -0.095,-6.01 -0.156,-9.258 -0.06,-3.249 -0.14,-6.79 -0.108,-12.037 0.033,-5.248 0.179,-12.203 0.352,-17.466 0.174,-5.263 0.375,-8.834 0.652,-12.807 0.276,-3.973 0.628,-8.348 0.975,-12.271 0.347,-3.922 0.689,-7.393 1.122,-11.743 0.432,-4.35 0.955,-9.58 1.483,-13.99 0.528,-4.411 1.061,-8.002 1.512,-10.619 0.45,-2.618 0.817,-4.262 1.139,-5.308 0.321,-1.046 0.598,-1.494 0.803,-1.766 0.205,-0.271 0.338,-0.367 0.405,-0.414 0.066,-0.048 0.066,-0.048 0.049,0.598 -0.018,0.646 -0.053,1.939 -0.108,3.533 -0.056,1.594 -0.131,3.49 -0.173,4.967 -0.041,1.478 -0.049,2.536 -0.079,3.186 -0.03,0.65 -0.083,0.892 -0.102,1.011 -0.018,0.119 -0.003,0.117 -0.041,0.151 -0.038,0.034 -0.128,0.104 -0.133,0.68 -0.005,0.576 0.075,1.657 0.192,3.051 0.117,1.395 0.27,3.102 0.322,4.786 0.051,1.683 0.001,3.343 0.002,4.231 0,0.887 0.052,1.003 0.132,1.078 0.08,0.076 0.188,0.111 1.001,0.06 0.814,-0.051 2.333,-0.188 4.105,-0.324 1.773,-0.137 3.8,-0.273 5.955,-0.431 2.155,-0.158 4.438,-0.339 6.588,-0.463 2.15,-0.123 4.166,-0.188 5.992,-0.299 1.826,-0.111 3.46,-0.267 5.336,-0.47 1.876,-0.204 3.993,-0.455 6.015,-0.682 2.021,-0.226 3.947,-0.427 5.109,-0.565 1.162,-0.139 1.559,-0.214 1.758,-0.327 0.199,-0.113 0.199,-0.264 0.229,-0.906 0.03,-0.641 0.09,-1.772 0.108,-3.132 0.017,-1.361 -0.008,-2.95 -0.023,-4.429 -0.015,-1.478 -0.02,-2.846 -0.038,-3.724 -0.017,-0.877 -0.047,-1.264 -0.071,-1.469 -0.025,-0.205 -0.043,-0.227 -0.083,-0.294 -0.04,-0.068 -0.103,-0.181 -0.174,-0.682 -0.071,-0.5 -0.152,-1.388 -0.255,-2.32 -0.103,-0.933 -0.229,-1.911 -0.348,-2.739 -0.12,-0.827 -0.233,-1.504 -0.413,-2.544 -0.179,-1.042 -0.426,-2.447 -0.613,-3.449 -0.187,-1.002 -0.316,-1.601 -0.436,-2.27 -0.121,-0.668 -0.234,-1.408 -0.366,-2.121 -0.132,-0.713 -0.283,-1.399 -0.425,-2.156 -0.142,-0.757 -0.275,-1.584 -0.375,-2.322 -0.099,-0.738 -0.165,-1.387 -0.239,-2.029 -0.074,-0.643 -0.157,-1.279 -0.257,-2.036 -0.101,-0.757 -0.219,-1.634 -0.34,-2.526 -0.121,-0.891 -0.244,-1.796 -0.353,-2.565 -0.11,-0.768 -0.205,-1.399 -0.373,-2.344 -0.168,-0.945 -0.408,-2.203 -0.82,-4.085 -0.412,-1.881 -0.995,-4.386 -1.704,-6.89 -0.709,-2.505 -1.544,-5.009 -2.651,-7.745 -1.106,-2.736 -2.484,-5.703 -4.093,-8.851 -1.61,-3.149 -3.45,-6.478 -4.878,-8.781 -1.429,-2.304 -2.444,-3.581 -3.453,-4.629 -1.008,-1.049 -2.009,-1.869 -3.015,-2.608 -1.006,-0.739 -2.017,-1.398 -2.582,-1.773 -0.566,-0.375 -0.687,-0.465 -0.756,-0.571 -0.069,-0.105 -0.087,-0.226 -0.095,-0.303 -0.009,-0.077 -0.009,-0.109 -0.07,-0.174 -0.06,-0.066 -0.181,-0.164 -1.307,-0.714 -1.127,-0.551 -3.259,-1.555 -5.31,-2.603 -2.05,-1.048 -4.019,-2.142 -5.77,-2.976 -1.752,-0.833 -3.286,-1.407 -5.061,-1.957 -1.775,-0.551 -3.792,-1.079 -5.429,-1.507 -1.637,-0.427 -2.894,-0.754 -3.762,-1.008 -0.867,-0.254 -1.345,-0.435 -2.044,-0.7 -0.699,-0.266 -1.619,-0.615 -2.606,-0.909 -0.987,-0.295 -2.041,-0.533 -2.716,-0.687 -0.675,-0.153 -0.972,-0.221 -1.44,-0.471 -0.467,-0.25 -1.106,-0.683 -1.581,-0.937 -0.475,-0.254 -0.787,-0.329 -1.073,-0.365 -0.285,-0.035 -0.544,-0.03 -0.777,-0.03 -0.232,0 -0.438,-0.005 -1.342,-0.33 -0.904,-0.326 -2.506,-0.972 -4.026,-1.577 -1.52,-0.605 -2.959,-1.168 -4.404,-1.748 -1.446,-0.579 -2.9,-1.175 -3.816,-1.569 -0.917,-0.393 -1.297,-0.584 -1.594,-0.779 -0.298,-0.194 -0.514,-0.392 -0.705,-0.497 -0.191,-0.105 -0.356,-0.116 -0.467,-0.117 -0.11,0 -0.164,0.01 -0.251,-0.004 -0.086,-0.014 -0.204,-0.052 -0.587,-0.292 -0.382,-0.24 -1.028,-0.682 -1.678,-1.193 -0.65,-0.51 -1.304,-1.089 -1.956,-1.661 -0.653,-0.572 -1.304,-1.138 -2.311,-1.569 -1.007,-0.431 -2.37,-0.728 -3.723,-0.919 -1.353,-0.191 -2.695,-0.276 -4.576,-0.354 -1.881,-0.078 -4.3,-0.149 -7.931,-0.131 -3.631,0.017 -8.474,0.123 -12.914,0.219 -4.439,0.096 -8.475,0.183 -10.597,0.231 -2.123,0.048 -2.332,0.058 -4.152,0.203 -1.82,0.145 -5.249,0.427 -7.404,0.671 -2.155,0.244 -3.035,0.45 -3.752,0.707 -0.717,0.256 -1.27,0.563 -1.886,1.078 -0.616,0.516 -1.295,1.24 -2.019,1.877 -0.725,0.638 -1.494,1.189 -1.953,1.46 -0.459,0.272 -0.607,0.264 -0.901,0.366 -0.295,0.102 -0.735,0.313 -1.268,0.582 -0.533,0.269 -1.159,0.596 -1.919,0.922 -0.761,0.325 -1.656,0.65 -2.301,0.904 -0.645,0.254 -1.04,0.437 -1.514,0.628 -0.474,0.192 -1.027,0.39 -1.765,0.621 -0.738,0.232 -1.661,0.496 -2.558,0.836 -0.896,0.341 -1.766,0.759 -2.573,1.076 -0.808,0.316 -1.552,0.533 -2.299,0.749 -0.746,0.216 -1.496,0.432 -2.053,0.655 -0.557,0.222 -0.921,0.451 -1.207,0.636 -0.285,0.185 -0.491,0.326 -0.999,0.476 -0.508,0.15 -1.318,0.31 -1.914,0.463 -0.596,0.154 -0.978,0.301 -1.488,0.492 -0.51,0.192 -1.147,0.429 -1.75,0.617 -0.603,0.189 -1.171,0.329 -1.687,0.459 -0.516,0.13 -0.98,0.248 -1.7,0.426 -0.719,0.179 -1.693,0.418 -2.551,0.633 -0.857,0.216 -1.598,0.408 -2.171,0.57 -0.573,0.161 -0.979,0.292 -1.436,0.426 -0.456,0.134 -0.963,0.271 -1.427,0.4 -0.465,0.129 -0.887,0.249 -1.312,0.377 -0.424,0.128 -0.85,0.262 -1.203,0.399 -0.353,0.137 -0.632,0.277 -1.012,0.437 -0.38,0.159 -0.862,0.339 -1.279,0.53 -0.417,0.191 -0.769,0.394 -1.165,0.602 -0.397,0.209 -0.838,0.424 -1.221,0.617 -0.382,0.194 -0.705,0.366 -1.126,0.589 -0.421,0.223 -0.941,0.495 -1.657,0.865 -0.717,0.371 -1.631,0.838 -2.694,1.37 -1.063,0.532 -2.275,1.128 -3.18,1.576 -0.905,0.448 -1.504,0.747 -2.037,1.087 -0.533,0.341 -1.001,0.723 -1.443,1.08 -0.443,0.358 -0.86,0.689 -1.353,1.079 -0.493,0.39 -1.061,0.837 -1.779,1.475 -0.718,0.637 -1.586,1.465 -2.375,2.331 -0.79,0.866 -1.501,1.771 -2.145,2.665 -0.644,0.894 -1.22,1.777 -1.924,2.935 -0.704,1.158 -1.536,2.591 -2.208,3.821 -0.671,1.229 -1.181,2.255 -1.732,3.264 -0.551,1.008 -1.141,1.999 -1.644,2.942 -0.503,0.943 -0.918,1.838 -1.313,2.759 -0.395,0.922 -0.77,1.87 -1.152,2.756 -0.382,0.887 -0.772,1.712 -1.285,3.043 -0.513,1.331 -1.149,3.17 -1.716,4.911 -0.567,1.741 -1.065,3.386 -1.49,4.836 -0.425,1.451 -0.777,2.709 -1.129,4.225 -0.352,1.516 -0.704,3.291 -1.144,5.668 -0.44,2.376 -0.968,5.353 -1.29,7.073 -0.322,1.72 -0.438,2.183 -0.543,2.673 -0.106,0.491 -0.201,1.009 -0.4,1.833 -0.198,0.825 -0.5,1.957 -0.807,3.143 -0.307,1.187 -0.618,2.43 -0.84,3.478 -0.221,1.049 -0.352,1.904 -0.575,3.166 -0.224,1.262 -0.541,2.932 -0.787,4.297 -0.247,1.366 -0.423,2.427 -0.529,2.975 -0.105,0.548 -0.14,0.583 -0.204,0.634 -0.063,0.05 -0.155,0.115 -0.251,2.246 -0.096,2.13 -0.197,6.326 -0.275,8.622 -0.078,2.297 -0.133,2.694 0.035,2.902 0.169,0.209 0.561,0.229 1.419,0.337 0.857,0.108 2.18,0.305 4.51,0.755 2.332,0.45 5.671,1.154 8.339,1.667 2.668,0.513 4.664,0.835 6.751,1.182 2.088,0.347 4.265,0.719 7.24,1.192 2.975,0.472 6.746,1.046 9.15,1.373 2.404,0.327 3.44,0.407 3.958,0.447 0.518,0.041 0.518,0.041 0.568,-0.543 0.049,-0.583 0.149,-1.75 0.263,-2.759 0.114,-1.009 0.242,-1.86 0.394,-2.937 0.152,-1.077 0.328,-2.379 0.498,-3.576 0.17,-1.197 0.333,-2.289 0.417,-2.902 0.085,-0.614 0.089,-0.749 0.076,-0.865 -0.014,-0.116 -0.047,-0.211 -0.023,-1.818 0.024,-1.607 0.104,-4.725 0.147,-7.257 0.043,-2.532 0.048,-4.478 0.059,-5.601 0.011,-1.123 0.029,-1.422 0.067,-1.618 0.038,-0.197 0.095,-0.29 0.176,-0.338 0.08,-0.05 0.184,-0.055 0.308,0.038 0.124,0.094 0.27,0.285 0.345,0.376 0.074,0.092 0.076,0.085 0.078,0.081 0.001,-0.004 0.001,-0.004 0.115,0.253 0.114,0.256 0.343,0.769 0.597,1.463 0.254,0.694 0.533,1.569 0.762,2.507 0.229,0.938 0.408,1.939 0.607,3.547 0.2,1.608 0.422,3.823 0.739,6.228 0.316,2.406 0.729,5.001 1.468,11.393 0.739,6.392 1.805,16.58 2.64,24.511 0.835,7.931 1.439,13.604 1.811,19.699 0.372,6.095 0.513,12.613 0.503,19.654 -0.01,7.04 -0.171,14.604 -0.372,20.609 -0.202,6.004 -0.443,10.45 -0.725,14.423 -0.281,3.973 -0.603,7.473 -1.448,14.162 -0.845,6.688 -2.213,16.566 -3.007,23.777 -0.795,7.212 -1.016,11.758 -1.217,15.269 -0.202,3.51 -0.383,5.984 -0.674,8.122 -0.292,2.137 -0.694,3.937 -0.973,5.315 -0.279,1.378 -0.436,2.334 -0.453,2.935 -0.018,0.601 0.103,0.847 0.249,0.975 0.146,0.129 0.317,0.138 0.5,0.175 0.184,0.036 0.38,0.099 0.469,0.155 0.019,0.011 0.032,0.022 0.042,0.037 0.876,0.322 1.753,0.645 3.155,0.925 1.401,0.28 3.329,0.518 6.493,0.754 3.163,0.237 7.562,0.472 11.099,0.609 3.537,0.138 6.212,0.178 9.592,0.181 3.38,0.003 7.463,-0.03 11.329,-0.007 3.866,0.024 7.513,0.104 10.591,0.191 3.078,0.088 5.586,0.181 7.916,0.252 2.33,0.07 4.483,0.117 6.789,0.171 2.307,0.053 4.768,0.114 7.356,0.121 2.589,0.006 5.304,-0.041 8.04,-0.098 2.736,-0.057 5.492,-0.124 7.953,-0.221z"/>
 </g>
</svg>
