<?xml version="1.0" encoding="UTF-8"?>
<!DOCTYPE svg PUBLIC "-//W3C//DTD SVG 1.1//EN" "http://www.w3.org/Graphics/SVG/1.1/DTD/svg11.dtd">
<!-- Creator: CorelDRAW 2018 (64 Bit Versão de avaliação) -->
<svg xmlns="http://www.w3.org/2000/svg" xml:space="preserve" width="317px" height="397px" version="1.1" shape-rendering="geometricPrecision" text-rendering="geometricPrecision" image-rendering="optimizeQuality" fill-rule="evenodd" clip-rule="evenodd"
viewBox="0 0 317000 397080"
 xmlns:xlink="http://www.w3.org/1999/xlink">
 <g id="Camada_x0020_1">
  <metadata id="CorelCorpID_0Corel-Layer"/>
  <path id="camisa_contorno" fill="none" d="M276107 37153c-146,-84 -296,-163 -448,-235 -6628,-3170 -12939,-7105 -19791,-9523 -6190,-2183 -15255,-3594 -23026,-6286 -3033,-1050 -6069,-2116 -9085,-3216l-4 -39 -13318 -5436 -233 -95c-818,-373 -2069,-1607 -3346,-2516 -658,-491 -816,-749 -1382,-1205 -3805,-3063 -7468,-7506 -12752,-7514 -1201,-2 -1387,-163 -2371,-217l-10123 -226c-7848,-647 -16057,-668 -24055,-636 -6776,27 -12729,85 -19402,636 -3369,278 -6654,39 -10122,226 -985,54 -1171,215 -2371,217 -5285,8 -8948,4451 -12752,7514 -566,456 -724,714 -1382,1205 -987,702 -1959,1599 -2727,2142 -225,160 -433,290 -619,374l-13551 5531 -4 39c-3016,1100 -6052,2166 -9085,3216 -7771,2692 -16836,4103 -23026,6286 -6852,2418 -13163,6353 -19791,9523 -281,134 -548,286 -806,451 -1210,776 -2215,1837 -3530,2665 -15001,9455 -24299,36584 -28504,52232 -2091,7777 -2638,17292 -3955,25360 -667,4085 -1562,8249 -2333,12324 -780,4122 -1162,8649 -1716,12828 -542,357 -436,-30 -411,1198l-86 2469 0 11698c55,1356 136,2415 248,2883 1499,634 4936,684 6752,948 10206,1483 12043,1103 21033,2070l28699 1797c-19,-2163 729,-14286 770,-17881l-802 -420 -94 -49c0,-5961 -15,-12288 -15,-18248 2235,5658 4433,25233 5046,31999 980,10809 2433,21558 3347,32427 463,5511 1164,11014 1344,16543l870 17016c527,5592 276,11900 364,17554 43,2745 259,5336 249,8164 -11,2965 -231,5793 -263,8674 -67,5952 -70,11500 -423,17462 -907,15285 -1675,34731 -4352,49308 -1287,7203 -2900,15909 -3669,23162 -343,3239 -1101,13395 -1954,15917 -906,2678 -218,4873 -757,7686 -455,2378 -989,5078 -1550,7416 -617,2571 -1913,4858 528,6614 5696,1404 11391,2809 18531,4019 7139,1211 15723,2228 24015,2728 8292,500 16292,483 28727,633 12434,150 29302,468 43319,510 14018,42 25185,-192 34952,-558 9767,-367 18134,-867 25384,-1534 7250,-666 13384,-1500 18419,-2494 5036,-994 8973,-2149 12910,-3304 2442,-1756 1146,-4043 529,-6614 -561,-2338 -1095,-5038 -1550,-7416 -539,-2813 149,-5008 -757,-7686 -853,-2522 -1611,-12678 -1954,-15917 -769,-7253 -2382,-15959 -3669,-23162 -2677,-14577 -3445,-34023 -4352,-49308 -353,-5962 -356,-11510 -423,-17462 -32,-2881 -252,-5709 -263,-8674 -10,-2828 206,-5419 249,-8164 88,-5654 -163,-11962 364,-17554l870 -17016c180,-5529 881,-11032 1344,-16543 914,-10869 2367,-21618 3347,-32427 613,-6766 2516,-25364 4751,-31021 0,5959 -140,11433 -139,17394l-1 0 -553 330c-6,1174 450,16103 803,17878l28743 -1779c8990,-967 10827,-587 21033,-2070 1816,-264 5253,-314 6752,-948 112,-468 193,-1527 248,-2883l0 -11698 -86 -2469c18,-916 82,-933 -112,-1031 -66,-33 -161,-76 -299,-167 -554,-4179 -936,-8706 -1716,-12828 -771,-4075 -1666,-8239 -2333,-12324 -1317,-8068 -1864,-17583 -3955,-25360 -4205,-15648 -13503,-42777 -28504,-52232 -1408,-886 -2524,-2099 -3888,-2881z"/>
 </g>
</svg>
