<?xml version="1.0" encoding="UTF-8"?>
<!DOCTYPE svg PUBLIC "-//W3C//DTD SVG 1.1//EN" "http://www.w3.org/Graphics/SVG/1.1/DTD/svg11.dtd">
<!-- Creator: CorelDRAW -->
<svg xmlns="http://www.w3.org/2000/svg" xml:space="preserve" width="181px" height="149px" version="1.1" shape-rendering="geometricPrecision" text-rendering="geometricPrecision" image-rendering="optimizeQuality" fill-rule="evenodd" clip-rule="evenodd"
viewBox="0 0 205.498 169.387"
 xmlns:xlink="http://www.w3.org/1999/xlink"
 xmlns:xodm="http://www.corel.com/coreldraw/odm/2003">
 <defs>
   <clipPath id="id0">
    <path d="M91.234 163.341c0.06,-0.29 0.117,-0.718 0.209,-2.252 0.091,-1.534 0.216,-4.174 0.518,-9.369 0.303,-5.195 0.782,-12.944 1.164,-18.604 0.382,-5.659 0.667,-9.229 1.038,-13.175 0.37,-3.946 0.826,-8.268 1.397,-12.773 0.57,-4.505 1.254,-9.192 2.132,-14.518 0.879,-5.326 1.95,-11.291 2.766,-15.197 0.815,-3.906 1.374,-5.753 1.733,-6.921 0.358,-1.167 0.516,-1.655 0.64,-1.921 0.123,-0.267 0.212,-0.313 0.296,-0.305 0.084,0.008 0.164,0.069 0.266,0.183 0.103,0.113 0.228,0.278 0.391,0.627 0.163,0.349 0.362,0.88 0.684,1.602 0.321,0.721 0.764,1.632 1.146,2.525 0.381,0.893 0.7,1.768 0.836,2.443 0.135,0.674 0.087,1.147 0.127,1.679 0.04,0.532 0.168,1.122 0.504,1.619 0.337,0.498 0.881,0.903 1.195,1.44 0.314,0.538 0.396,1.208 0.602,2.158 0.205,0.951 0.533,2.183 0.646,3.113 0.112,0.929 0.009,1.556 -0.098,2.148 -0.106,0.591 -0.218,1.148 -0.101,1.705 0.117,0.557 0.462,1.116 0.865,1.635 0.404,0.519 0.866,0.998 1.149,1.313 0.284,0.315 0.39,0.466 0.491,0.609 0.101,0.142 0.198,0.276 0.351,0.879 0.152,0.603 0.36,1.675 0.439,2.419 0.078,0.745 0.027,1.161 -0.003,1.576 -0.03,0.415 -0.039,0.828 -0.073,1.354 -0.034,0.526 -0.094,1.165 -0.085,1.751 0.008,0.586 0.085,1.119 0.46,1.91 0.375,0.791 1.048,1.84 1.685,2.689 0.637,0.848 1.239,1.495 1.643,1.902 0.404,0.407 0.611,0.574 0.797,0.87 0.186,0.296 0.351,0.72 0.488,1.263 0.137,0.544 0.246,1.205 0.304,1.972 0.058,0.767 0.067,1.64 0.054,2.608 -0.013,0.968 -0.047,2.031 0.15,2.999 0.197,0.968 0.624,1.84 1.101,2.577 0.476,0.738 1,1.339 1.389,1.826 0.39,0.488 0.644,0.862 0.856,1.23 0.213,0.367 0.384,0.729 0.555,1.154 0.171,0.425 0.342,0.913 0.472,1.479 0.13,0.566 0.218,1.21 0.339,1.795 0.121,0.584 0.275,1.108 0.375,1.699 0.1,0.59 0.145,1.246 0.32,2.204 0.174,0.958 0.476,2.218 0.678,3.273 0.203,1.055 0.305,1.904 0.416,2.657 0.112,0.753 0.231,1.409 0.325,2.284 0.094,0.875 0.163,1.97 0.294,2.774 0.131,0.804 0.325,1.317 0.465,2.09 0.14,0.772 0.225,1.805 0.299,2.412 0.074,0.607 0.137,0.79 0.288,0.952 0.104,0.112 0.251,0.215 0.437,0.32 -0.079,-0.368 -0.154,-0.732 -0.127,-0.999 0.028,-0.278 0.168,-0.45 0.332,-0.556 0.164,-0.105 0.352,-0.145 0.75,-0.063 0.398,0.082 1.007,0.284 1.729,0.399 0.723,0.115 1.56,0.144 2.868,0.151 1.309,0.007 3.089,-0.007 5.568,-0.327 2.479,-0.319 5.657,-0.943 8.788,-1.599 3.132,-0.656 6.217,-1.344 9.657,-2.107 3.44,-0.762 7.234,-1.599 10.248,-2.124 3.014,-0.525 5.249,-0.737 8.16,-0.854 2.912,-0.118 6.502,-0.139 10.137,0.024 3.635,0.163 7.316,0.511 9.976,0.862 2.66,0.351 4.298,0.706 5.688,1.227 1.391,0.522 2.533,1.21 3.226,1.734 0.693,0.524 0.938,0.884 1.054,1.193 0.116,0.309 0.104,0.568 -0.007,0.887 -0.11,0.319 -0.318,0.698 -0.526,1.077 0.192,-0.063 0.354,-0.202 0.566,-0.399 0.232,-0.218 0.523,-0.509 0.64,-0.957 0.116,-0.447 0.059,-1.052 0.065,-2.577 0.006,-1.525 0.074,-3.972 0.052,-6.694 -0.023,-2.724 -0.137,-5.723 -0.194,-7.553 -0.057,-1.831 -0.057,-2.492 -0.057,-3.427 0,-0.936 0,-2.144 -0.029,-3.276 -0.028,-1.132 -0.085,-2.187 -0.111,-3.279 -0.025,-1.092 -0.02,-2.221 -0.091,-4.009 -0.072,-1.787 -0.22,-4.234 -0.3,-6.212 -0.079,-1.979 -0.091,-3.49 -0.231,-7.51 -0.139,-4.02 -0.407,-10.55 -0.929,-16.996 -0.522,-6.446 -1.297,-12.81 -2.278,-18.854 -0.981,-6.045 -2.167,-11.77 -3.341,-17.21 -1.175,-5.44 -2.338,-10.594 -3.867,-15.864 -1.528,-5.268 -3.421,-10.651 -5.246,-15.498 -1.824,-4.847 -3.581,-9.158 -4.618,-11.657 -1.038,-2.499 -1.357,-3.186 -1.494,-3.631 -0.137,-0.445 -0.092,-0.647 0.009,-0.803 0.102,-0.155 0.258,-0.263 0.386,-0.349 0.014,-0.01 0.028,-0.019 0.041,-0.029 -0.042,-0.002 -0.088,-0.005 -0.144,-0.008 -0.105,-0.005 -0.243,-0.013 -0.693,-0.048 -0.449,-0.035 -1.21,-0.098 -2.217,-0.107 -1.008,-0.008 -2.262,0.038 -3.577,0.132 -1.316,0.095 -2.692,0.24 -4.839,0.609 -2.148,0.368 -5.068,0.962 -7.478,1.498 -2.41,0.535 -4.311,1.014 -6.805,1.509 -2.494,0.494 -5.581,1.003 -8.679,1.418 -3.098,0.414 -6.208,0.733 -9.971,1.076 -3.764,0.341 -8.181,0.707 -11.872,0.965 -3.692,0.259 -6.657,0.41 -9.367,0.559 -2.711,0.148 -5.167,0.292 -7.957,0.403 -2.79,0.11 -5.915,0.186 -9.017,0.251 -3.102,0.064 -6.181,0.117 -9.116,0.11 -2.935,-0.008 -5.725,-0.076 -8.341,-0.137 -2.615,-0.061 -5.056,-0.114 -7.698,-0.194 -2.642,-0.08 -5.486,-0.186 -8.975,-0.285 -3.49,-0.099 -7.626,-0.19 -12.01,-0.217 -4.383,-0.026 -9.013,0.012 -12.845,0.008 -3.832,-0.004 -6.865,-0.049 -10.876,-0.205 -4.011,-0.156 -8.998,-0.422 -12.585,-0.69 -3.587,-0.268 -5.773,-0.538 -7.362,-0.856 -1.59,-0.318 -2.583,-0.683 -3.577,-1.049 0.044,0.064 0.021,0.188 -0.027,0.625 -0.062,0.551 -0.164,1.597 -0.449,3.521 -0.286,1.925 -0.753,4.728 -1.058,6.779 -0.305,2.052 -0.448,3.352 -0.79,5.493 -0.342,2.141 -0.884,5.124 -1.32,7.752 -0.436,2.629 -0.767,4.904 -1.029,6.823 -0.263,1.919 -0.457,3.481 -0.636,5.294 -0.18,1.814 -0.345,3.878 -0.525,6.376 -0.18,2.497 -0.373,5.428 -0.567,8.701 -0.194,3.273 -0.388,6.888 -0.53,10.743 -0.143,3.855 -0.234,7.949 -0.206,12.14 0.029,4.192 0.177,8.48 0.468,12.648 0.291,4.169 0.724,8.217 1.009,11.855 0.285,3.638 0.422,6.865 0.485,10.435 0.063,3.57 0.051,7.481 0.091,11.969 0.04,4.488 0.131,9.552 0.223,13.777 0.091,4.225 0.182,7.612 0.266,9.945 0.084,2.332 0.162,3.609 0.193,4.373 0.031,0.764 0.017,1.015 0.027,2.23 0.01,1.214 0.044,3.393 0.078,4.946 0.035,1.554 0.069,2.484 0.137,3.037 0.068,0.553 0.171,0.73 0.482,1.055 0.311,0.325 0.83,0.798 2.632,1.177 1.802,0.38 4.886,0.665 7.829,0.918 2.942,0.254 5.742,0.476 10.492,0.73 4.75,0.254 11.451,0.539 16.4,0.753 4.95,0.214 8.149,0.356 10.954,0.382 2.806,0.026 5.218,-0.066 7.656,-0.143 2.438,-0.077 4.901,-0.139 7.25,-0.216 2.35,-0.077 4.585,-0.168 7.735,-0.565 3.151,-0.396 7.217,-1.098 9.757,-1.616 2.54,-0.519 3.556,-0.856 4.448,-1.309 0.892,-0.453 1.662,-1.024 2.078,-1.386 0.417,-0.362 0.479,-0.516 0.539,-0.807z"/>
   </clipPath>
 </defs>
 <g id="VETORES">
  <metadata id="CorelCorpID_0Corel-Layer"/>
  <g>
  </g>
  <g clip-path="url(#id0)">
   <g id="_2642829281424">
    <path fill="#0062D9" fill-rule="nonzero" d="M7.962 5.182c-1.076,1.473 -0.886,0.944 -1.055,2.122l1.441 -1.986c-0.125,-0.045 -0.261,-0.079 -0.386,-0.125l0 -0.011zm-5.912 118.351l0.023 2.53 0.284 -2.133 6.592 0.295 -1.804 7.75 -5.015 -0.192c0,0.124 0,0.238 0,0.363l4.913 0.215 -1.805 7.751 -2.984 -0.137c0,0.125 0,0.25 0,0.375l2.882 0.113 -1.804 7.75 -0.863 -0.033c0,0.124 0,0.261 0.011,0.386l0.783 0.033c-0.57,2.402 -0.688,2.073 -0.624,4.176l0.975 -4.176 4.278 0.193 -2.541 7.717 -2.61 -0.114c0,0.125 0,0.25 0,0.386l2.474 0.114c-0.401,1.218 -2.372,6.585 -2.282,7.432 0.035,0.318 0.103,0.511 0.205,0.681l2.496 0.091 -0.522 1.203c0.114,0.034 0.227,0.069 0.352,0.102l0.544 -1.27 2.667 0.102 -0.851 1.623c0.137,0.022 0.273,0.033 0.409,0.056l0.863 -1.645 2.666 0.102 -1.135 1.827c0.148,0.011 0.295,0.034 0.431,0.046l1.158 -1.838 2.609 0.102 -1.418 1.951 0.465 0.046 1.43 -1.963 4.981 0.193 -1.35 2.167c0.136,0 0.283,0.023 0.419,0.023l1.351 -2.168 5.049 0.193 -1.203 2.258c0.125,0 0.273,0.012 0.398,0.023l1.18 -2.247 5.085 0.191 -0.998 2.315c0.136,0 0.272,0.011 0.397,0.023l0.987 -2.304 5.049 0.193 -0.771 2.349c0.125,0 0.261,0.012 0.386,0.023l0.771 -2.337 5.084 0.193 -0.556 2.383c0.125,0 0.261,0 0.386,0.011l0.545 -2.36 5.083 0.193 -0.329 2.383c0.125,0 0.239,0 0.352,0.011l0.317 -2.361 5.084 0.193 -0.091 2.281c0.136,0 0.283,0 0.42,0l0.091 -2.258 2.7 0.102 -0.283 2.122c0.136,0 0.261,0 0.386,-0.011l0.283 -2.076 2.701 0.102 -0.431 1.883c0.136,0 0.261,0 0.397,-0.011l0.431 -1.838 2.7 0.102 -0.545 1.668c0.137,0 0.262,0 0.398,0l0.533 -1.634 2.701 0.102 -0.624 1.464c0.136,0 0.272,0 0.397,0l0.601 -1.419 2.701 0.103 -0.647 1.237c0.148,0 0.295,-0.012 0.443,-0.023l0.624 -1.18 2.666 0.101 -0.567 0.92c0.147,-0.011 0.306,-0.023 0.465,-0.034l0.522 -0.84 2.633 0.102 -0.33 0.454 0.534 -0.068 0.261 -0.352 3.654 -0.227 -3.393 -0.136 5.538 -7.626 4.209 0.193 -4.561 7.263c0.181,-0.035 0.352,-0.057 0.522,-0.091l4.459 -7.172 4.278 0.193 -3.063 5.775c0.181,-0.056 0.351,-0.102 0.498,-0.158l2.94 -5.617 1.225 0.057c0,-0.114 0.012,-0.239 0.023,-0.364l-1.055 -0.045c0.876,-1.651 1.174,-1.771 1.225,-3.075l-1.611 3.075 -4.244 -0.193 4.766 -7.625 1.351 0.045c0,-0.136 0.011,-0.25 0.023,-0.386l-1.112 -0.057c0.995,-1.598 1.231,-1.578 1.282,-2.78l-1.736 2.78 -3.382 -0.158 5.413 -7.478c0.011,-0.239 0.034,-0.477 0.045,-0.715l-0.158 0.216 -5.016 -0.193 4.788 -7.659 0.851 0.033c0,-0.125 0.012,-0.249 0.023,-0.363l-0.647 -0.034c0.757,-1.206 0.722,-0.892 0.772,-1.906l-1.192 1.917 -5.82 -0.261 4.016 -7.659 3.405 0.136c0,-0.125 0.022,-0.238 0.022,-0.363l-3.245 -0.125 3.892 -7.398c0.023,-0.306 0.057,-0.636 0.091,-0.954l-0.159 0.307 -7.398 -0.318 3.313 -7.682 5.016 0.204c0.011,-0.125 0.023,-0.25 0.045,-0.374l-4.958 -0.216 2.542 -7.716 3.415 0.147c0.011,-0.124 0.034,-0.249 0.057,-0.374l-3.336 -0.137 2.542 -7.716 1.951 0.079c0.023,-0.124 0.046,-0.249 0.057,-0.374l-1.884 -0.079 2.542 -7.717 0.658 0.034c0.023,-0.125 0.046,-0.238 0.069,-0.363l-0.591 -0.022 1.873 -6.877 -2.247 6.842 -5.787 -0.227 3.279 -7.716 4.936 0.216c0.022,-0.125 0.045,-0.239 0.068,-0.352l-4.845 -0.216 3.279 -7.682 3.461 0.125 0.102 -0.363 -3.405 -0.158 3.28 -7.683 2.598 0.125c-0.045,-0.113 -0.102,-0.249 -0.17,-0.386l-2.27 -0.079 1.203 -2.825c-0.045,-0.171 -0.102,-0.364 -0.159,-0.568l-1.429 3.359 -3.472 -0.124 3.982 -7.558c-0.033,-0.193 -0.068,-0.386 -0.102,-0.578l-0.045 0.091 -2.667 -0.125 2.1 -3.37c-0.034,-0.182 -0.069,-0.375 -0.102,-0.556l-2.452 3.915 -2.609 -0.125 4.596 -6.343c-0.034,-0.17 -0.069,-0.352 -0.091,-0.522l-4.981 6.865 -4.982 -0.227 4.766 -7.625 5.061 0.193c-0.023,-0.125 -0.046,-0.239 -0.068,-0.364l-4.766 -0.181 3.665 -5.855c-0.034,-0.182 -0.068,-0.375 -0.102,-0.556l-3.983 6.377 -5.821 -0.227 4.051 -7.682 5.526 0.25c-0.023,-0.136 -0.046,-0.261 -0.069,-0.397l-5.264 -0.204 4.016 -7.659 0.032 -0.001c-0.035,-0.238 -0.057,-0.477 -0.08,-0.715l-0.17 0.329 -7.364 -0.318 3.279 -7.682 3.461 0.148c-0.011,-0.125 -0.034,-0.25 -0.045,-0.374l-3.325 -0.137 2.36 -7.104c-0.046,-0.34 -0.091,-0.669 -0.137,-0.998l-7.296 -0.318 1.657 -3.835c-0.136,0 -0.261,0 -0.397,0l-1.645 3.835 -7.33 -0.317 1.906 -3.643c-0.136,0 -0.272,0 -0.409,0l-1.917 3.643c-2.44,-0.125 -4.891,-0.227 -7.33,-0.318l2.201 -3.507 -0.431 0 -2.19 3.518 -7.296 -0.318 2.496 -3.427c-0.159,0 -0.318,0 -0.476,-0.011l-2.463 3.405 -0.351 0 2.155 -3.427c-0.147,0 -0.272,0 -0.42,-0.011l-2.155 3.438 -0.352 -0.034 1.804 -3.427c-0.136,0 -0.283,0 -0.431,0l-1.793 3.405 -0.386 -0.001 1.464 -3.427c-0.137,0 -0.272,0 -0.409,0l-1.464 3.405 -0.385 -0.001 1.123 -3.415c-0.125,0 -0.261,0 -0.397,0l-1.123 3.393 -0.42 0 0.794 -3.416c-0.125,0 -0.261,0 -0.386,0l-0.783 3.393 -0.419 0 0.465 -3.404c-0.125,0 -0.238,0 -0.352,0l-0.465 3.381 -0.454 0 0.159 -3.393c-0.136,0 -0.273,0 -0.397,0l-0.137 3.37 -7.364 -0.295 0.431 -3.154c-0.124,0 -0.261,0 -0.386,0l-0.419 3.121 -7.364 -0.295 0.646 -2.803c-0.136,0 -0.261,0 -0.397,0l-0.647 2.768 -7.364 -0.294 0.829 -2.508c-0.137,0 -0.261,0 -0.397,0l-0.818 2.485 -7.363 -0.295 1.032 -2.406c-0.136,0 -0.261,0 -0.397,-0.011l-1.021 2.394 -7.364 -0.295 1.293 -2.451c-0.136,0 -0.261,-0.011 -0.397,-0.023l-1.282 2.44 -7.33 -0.295 1.657 -2.655c-0.148,-0.011 -0.295,-0.023 -0.431,-0.045l-1.68 2.667 -6.354 -0.25 -0.057 0.363 6.218 0.25 -4.788 7.659 -2.632 -0.114c-0.023,0.125 -0.034,0.25 -0.057,0.364l2.587 0.102 -1.066 7.784 -2.735 -0.102c-0.022,0.125 -0.045,0.249 -0.068,0.374l2.769 0.125 -1.066 7.784 -2.985 -0.125c-0.023,0.125 -0.034,0.25 -0.057,0.363l2.973 0.114 -1.066 7.784 -2.86 -0.114c-0.011,0.125 -0.023,0.25 -0.034,0.375l2.837 0.125 -1.066 7.784 -2.395 -0.103c0,0.125 -0.011,0.25 -0.022,0.364l2.382 0.091 -1.066 7.818 -1.805 -0.079c0,0.124 -0.011,0.238 -0.022,0.363l1.758 0.068 -1.066 7.784 -1.09 -0.034c0,0.125 -0.011,0.25 -0.011,0.375l1.033 0.045 -1.067 7.784 -0.171 0c0,0.113 0,0.226 0,0.351l0.113 0 -0.125 3.813 0.511 -3.779 2.701 0.102 -1.805 7.784 -1.35 -0.068c0,0.125 0,0.25 0,0.375l1.248 0.045 -1.078 4.664c0.023,0.465 0.045,0.93 0.068,1.384l1.395 -6.014 1.93 0.068 -2.542 7.716 -0.704 -0.022c0,0.124 0,0.249 0.023,0.374l0.556 0.034c-0.456,1.403 -0.506,1.116 -0.375,2.349l0.772 -2.338 1.158 0.069 -1.782 4.13c0.023,0.261 0.045,0.522 0.068,0.783l2.1 -4.913 1.123 0.068 -3.121 5.946c0.023,0.204 0.034,0.431 0.057,0.636l3.484 -6.582 1.123 0.069 -4.539 7.228c0.023,0.261 0.045,0.522 0.068,0.783l0.194 -0.001 -0.114 0.806 0.567 -0.783 7.331 0.295 -4.766 7.625 -2.61 -0.102c0,0.125 0.011,0.25 0.023,0.386l2.496 0.114 -1.066 7.784 -1.169 -0.046c0,0.125 0,0.239 0,0.363l1.1 0.046 -1.055 7.762 0.068 -0.205zm7.296 0.692l6.593 0.295 -2.542 7.716 -5.856 -0.226 1.805 -7.785zm3.756 -90.063l6.559 0.261 -2.542 7.751 -5.855 -0.262 1.838 -7.75zm63.759 125.319l-3.472 -0.125 4.017 -7.659 4.243 0.159 -4.788 7.625zm2.632 -122.55l-2.542 7.716 -5.855 -0.261 1.805 -7.75 6.592 0.295zm-6.524 -0.647l1.838 -7.75 7.364 0.295 -2.542 7.716 -6.66 -0.261zm-9.815 114.448l-4.278 -0.193 1.066 -7.784 5.05 0.193 -1.838 7.784zm-15.217 -8.851l-2.7 -0.124 2.542 -7.717 1.997 0.102 -1.838 7.751 -0.001 -0.012zm17.111 0.715l-5.049 -0.227 1.067 -7.784 5.82 0.262 -1.838 7.749zm-14.694 -24.873l-4.788 7.659 -1.066 -0.068 5.537 -7.591 0.317 0zm-0.068 -0.351l2.19 -3.019 -1.895 3.019 -0.295 0zm0.488 0.386l0.386 0.033 -4.051 7.66 -1.089 -0.069 4.766 -7.625 -0.012 0.001zm0.227 -0.352l2.224 -3.54 -1.861 3.54 -0.363 0zm2.701 -3.665l-1.578 3.699 -0.351 0 1.929 -3.699zm0.442 -0.125l-1.282 3.858 -0.352 0 1.645 -3.859 -0.011 0.001zm0.42 -0.068l-0.931 3.96 -0.385 0 1.316 -3.96zm0.385 -0.068l-0.544 4.05 -0.386 0 0.93 -4.05zm0.386 0l-0.193 4.085 -0.385 0 0.578 -4.085zm-5.525 3.857l-7.33 -0.294 4.788 -7.66 8.045 0.352 -5.503 7.602zm-0.262 0.364l-5.537 7.625 -6.525 -0.295 4.789 -7.625 7.273 0.295zm-5.786 7.977l-5.503 7.591 -5.753 -0.226 4.766 -7.626 6.49 0.261zm0.476 0.023l1.123 0.033 -4.788 7.626 -1.838 -0.068 5.503 -7.591zm1.544 0.067l1.123 0.034 -4.017 7.659 -1.895 -0.068 4.788 -7.625 0.001 0zm1.542 0.069l1.192 0.033 -3.313 7.682 -1.896 -0.068 4.017 -7.659 0 0.012zm0.193 -0.386l4.017 -7.659 0.42 0.033 -3.313 7.683 -1.124 -0.069 0 0.012zm4.835 -7.626l0.419 0.035 -2.575 7.716 -1.124 -0.068 3.28 -7.683zm0.771 0.035l0.42 0.033 -1.804 7.751 -1.158 -0.069 2.542 -7.715zm0.805 0.033l0.42 0.034 -1.066 7.784 -1.158 -0.068 1.804 -7.75zm0.772 0.035l0.454 0.034 -0.318 7.818 -1.191 -0.068 1.066 -7.784 -0.011 0zm0.511 8.226l6.592 0.262 -1.066 7.784 -5.856 -0.227 0.318 -7.819 0.012 0zm0 -0.386l0.317 -7.818 7.399 0.318 -1.067 7.784 -6.66 -0.295 0.011 0.011zm0.283 -16.373l-8.136 -0.352 1.067 -7.784 7.398 0.295 -0.318 7.852 -0.011 -0.011zm-19.063 -57.86l2.667 0.102 -4.788 7.659 -3.405 -0.159 5.538 -7.591 -0.012 -0.011zm-5.991 7.591l-4.21 -0.193 4.766 -7.625 4.982 0.193 -5.538 7.625zm30.785 25.895l-1.963 -0.102 1.066 -7.784 2.735 0.125 -1.838 7.761zm2.189 -7.75l2.735 0.124 -2.576 7.717 -1.963 -0.102 1.804 -7.75 0 0.011zm-4.504 7.647l-1.998 -0.102 0.318 -7.818 2.735 0.125 -1.067 7.784 0.012 0.011zm-2.054 -8.295l-5.05 -0.192 1.067 -7.784 4.312 0.158 -0.318 7.818 -0.011 0zm0.352 -8.203l-4.278 -0.159 1.067 -7.784 3.54 0.125 -0.318 7.818 -0.011 0zm-4.63 -0.193l-4.277 -0.159 1.804 -7.75 3.54 0.124 -1.067 7.785zm-0.068 0.386l-1.066 7.784 -5.05 -0.193 1.804 -7.75 4.312 0.159zm-6.502 7.557l-5.015 -0.193 2.542 -7.716 4.277 0.158 -1.804 7.751zm0.33 0.386l5.049 0.227 -1.067 7.784 -5.82 -0.262 1.838 -7.749zm5.435 0.227l5.083 0.226 -0.318 7.819 -5.821 -0.261 1.067 -7.784 -0.011 0zm5.14 8.431l1.929 0.068 -1.067 7.818 -1.191 -0.068 0.318 -7.818 0.011 0zm2.315 0.09l1.929 0.068 -1.805 7.784 -1.225 -0.068 1.089 -7.784 0.012 0zm2.314 0.103l1.929 0.068 -2.541 7.75 -1.226 -0.069 1.838 -7.749zm2.292 0.09l1.929 0.068 -3.279 7.717 -1.191 -0.068 2.541 -7.717zm2.349 0.102l1.895 0.068 -4.016 7.682 -1.192 -0.068 3.313 -7.682zm-0.261 -0.385l-1.963 -0.103 2.576 -7.716 2.701 0.125 -3.314 7.694zm0.318 -8.205l-2.734 -0.102 1.804 -7.75 3.506 0.125 -2.576 7.727zm-3.12 -0.136l-2.735 -0.102 1.067 -7.784 3.472 0.125 -1.804 7.761zm-3.121 -0.125l-2.734 -0.102 0.317 -7.818 3.472 0.125 -1.066 7.784 0.011 0.011zm-2.439 -16.499l-3.507 -0.158 1.067 -7.784 2.769 0.125 -0.318 7.818 -0.011 -0.001zm-3.892 -0.158l-3.472 -0.159 1.804 -7.75 2.769 0.125 -1.09 7.784 -0.011 0zm-3.858 -0.159l-3.472 -0.159 2.541 -7.716 2.735 0.125 -1.804 7.75zm-0.102 0.352l-1.805 7.75 -4.243 -0.159 2.542 -7.716 3.506 0.125zm-6.434 7.557l-4.244 -0.159 3.279 -7.681 3.507 0.124 -2.542 7.716zm-4.664 -0.193l-4.244 -0.159 4.051 -7.659 3.507 0.125 -3.314 7.693zm0.261 0.386l4.278 0.193 -2.542 7.716 -5.015 -0.193 3.279 -7.716zm1.998 8.294l5.083 0.227 -1.838 7.75 -5.821 -0.261 2.576 -7.716zm3.54 8.363l5.889 0.227 -1.09 7.784 -6.592 -0.261 1.804 -7.75 -0.011 0zm6.229 0.262l5.855 0.226 -0.318 7.819 -6.592 -0.261 1.067 -7.784 -0.012 0zm5.923 8.43l1.158 0.068 -1.067 7.784 -0.42 0.001 0.318 -7.852 0.011 -0.001zm1.543 0.057l1.158 0.069 -1.804 7.75 -0.42 -0.001 1.066 -7.818zm1.543 0.068l1.158 0.068 -2.542 7.717 -0.42 0 1.804 -7.785zm1.544 0.068l1.123 0.068 -3.279 7.682 -0.42 0 2.576 -7.75zm1.543 0.057l1.123 0.068 -4.017 7.659 -0.419 0.001 3.313 -7.728zm1.543 0.068l1.089 0.068 -4.766 7.626 -0.385 0 4.062 -7.694zm0.17 -0.352l4.051 -7.659 1.895 0.068 -4.788 7.66 -1.158 -0.069zm3.824 -8.045l-1.963 -0.068 3.314 -7.716 2.666 0.125 -4.017 7.659zm1.09 -8.17l-2.735 -0.102 2.542 -7.716 3.506 0.125 -3.313 7.693zm-0.443 -8.204l-3.506 -0.158 1.804 -7.75 4.278 0.193 -2.576 7.715zm-3.892 -0.159l-3.507 -0.158 1.067 -7.784 4.243 0.193 -1.803 7.749zm-3.892 -0.158l-3.541 -0.159 0.318 -7.819 4.278 0.194 -1.066 7.784 0.011 0zm-3.257 -16.567l-2.7 -0.102 1.067 -7.784 1.962 0.068 -0.317 7.818 -0.012 0zm-3.086 -0.125l-2.701 -0.102 1.805 -7.75 1.963 0.068 -1.067 7.784zm-3.087 -0.137l-2.734 -0.102 2.576 -7.716 1.963 0.069 -1.805 7.749zm-3.086 -0.124l-2.7 -0.102 3.279 -7.682 1.963 0.068 -2.542 7.716zm-0.124 0.386l-2.542 7.716 -3.472 -0.159 3.279 -7.682 2.735 0.125zm-6.434 7.557l-3.438 -0.159 4.016 -7.659 2.735 0.125 -3.313 7.693zm-3.869 -0.159l-3.439 -0.159 4.766 -7.625 2.701 0.124 -4.017 7.66 -0.011 0zm-3.666 0.227l3.472 0.125 -4.017 7.659 -4.243 -0.158 4.788 -7.626zm-0.352 8.17l4.278 0.193 -3.279 7.682 -5.015 -0.193 4.016 -7.682zm1.26 8.272l5.05 0.227 -2.542 7.716 -5.822 -0.261 3.314 -7.682zm2.758 8.329l5.855 0.227 -1.838 7.75 -6.593 -0.261 2.576 -7.716zm4.311 8.363l6.661 0.295 -1.067 7.784 -7.398 -0.318 1.804 -7.761zm5.957 8.068l1.067 -7.784 6.66 0.295 -0.317 7.818 -7.41 -0.329zm7.785 0.715l0.385 0.033 -0.578 4.085 0.193 -4.118zm0.737 0.023l0.386 0 -0.931 4.05 0.545 -4.05zm0.772 0.033l0.351 0 -1.282 3.961 0.931 -3.961zm0.737 0.034l0.386 0 -1.645 3.858 1.259 -3.858zm0.772 0.034l0.352 0 -1.93 3.7 1.578 -3.7zm0.771 0.034l0.352 0 -2.224 3.541 1.861 -3.541 0.011 0zm0.772 0.035l0.295 0 -2.19 3.018 1.895 -3.018zm0.227 -0.363l4.766 -7.66 1.089 0.068 -5.537 7.592 -0.318 0zm4.981 -8l4.788 -7.626 1.838 0.068 -5.503 7.626 -1.123 -0.068zm4.607 -8.011l-1.929 -0.069 4.017 -7.682 2.666 0.125 -4.766 7.626 0.012 0zm1.861 -8.136l-2.7 -0.102 3.278 -7.682 3.473 0.124 -4.051 7.66zm0.329 -8.182l-3.506 -0.159 2.575 -7.716 4.244 0.193 -3.313 7.682zm-1.226 -8.261l-4.277 -0.193 1.803 -7.75 5.05 0.227 -2.576 7.716zm-4.663 -0.193l-4.312 -0.193 1.067 -7.784 5.049 0.228 -1.804 7.749zm-4.664 -0.193l-4.311 -0.193 0.317 -7.818 5.05 0.227 -1.067 7.784 0.011 0zm-4.028 -16.566l-1.963 -0.102 1.067 -7.784 1.225 0.068 -0.317 7.818 -0.012 0zm-2.315 -0.091l-1.963 -0.102 1.838 -7.75 1.192 0.068 -1.067 7.784zm-2.314 -0.102l-1.929 -0.102 2.542 -7.717 1.191 0.069 -1.804 7.75zm-2.315 -0.091l-1.93 -0.102 3.28 -7.682 1.191 0.034 -2.541 7.75zm-2.315 -0.102l-1.929 -0.102 4.017 -7.66 1.191 0.034 -3.279 7.728zm-0.159 0.352l-3.313 7.681 -2.667 -0.102 4.017 -7.682 1.963 0.103zm-6.4 7.557l-2.666 -0.102 4.788 -7.659 1.929 0.102 -4.051 7.659zm-3.086 -0.125l-2.633 -0.102 5.538 -7.626 1.861 0.103 -4.766 7.625zm-3.086 -0.125l-5.016 -0.193 4.788 -7.659 5.731 0.261 -5.503 7.591zm-5.447 -0.227l-5.015 -0.193 4.016 -7.682 5.787 0.261 -4.788 7.626 0 -0.012zm-0.215 0.352l-4.766 7.659 -4.278 -0.193 4.051 -7.659 4.993 0.193zm-4.573 8.045l4.187 0.159 -5.538 7.591 -3.404 -0.125 4.766 -7.625 -0.011 0zm4.629 0.193l3.438 0.125 -4.766 7.625 -4.187 -0.158 5.504 -7.592 0.011 0zm-1.123 8.136l4.278 0.193 -4.051 7.659 -4.981 -0.193 4.766 -7.659 -0.012 0zm0.454 8.238l5.049 0.227 -3.279 7.682 -5.821 -0.261 4.051 -7.659 0 0.011zm1.997 8.295l5.855 0.227 -2.542 7.716 -6.592 -0.261 3.279 -7.682zm3.563 8.329l6.627 0.295 -1.805 7.75 -7.363 -0.318 2.541 -7.727zm5.117 8.431l7.399 0.295 -1.067 7.818 -8.17 -0.351 1.838 -7.762zm6.207 8.454l-4.788 7.625 -7.364 -0.295 4.017 -7.682 8.135 0.352zm-5.015 7.977l-4.766 7.659 -6.593 -0.296 4.017 -7.659 7.342 0.296zm-4.993 8.011l-4.788 7.625 -5.821 -0.227 4.051 -7.659 6.558 0.261zm-5.015 8.011l-4.766 7.625 -5.05 -0.227 4.017 -7.659 5.799 0.261zm0.419 0l5.753 0.261 -5.537 7.591 -4.981 -0.227 4.765 -7.625zm6.207 0.261l1.895 0.102 -4.788 7.625 -2.609 -0.102 5.502 -7.625zm2.315 0.091l1.929 0.102 -4.016 7.659 -2.667 -0.125 4.766 -7.625 -0.012 -0.011zm2.349 0.102l1.963 0.102 -3.314 7.682 -2.666 -0.125 4.017 -7.659zm2.349 0.09l1.963 0.102 -2.576 7.717 -2.701 -0.125 3.314 -7.694zm0.159 -0.351l3.279 -7.682 1.191 0.034 -2.576 7.716 -1.894 -0.068zm4.822 -7.626l1.226 0.034 -1.838 7.75 -1.93 -0.068 2.542 -7.716zm1.577 0.069l1.192 0.033 -1.067 7.784 -1.929 -0.068 1.804 -7.749zm1.578 0.068l1.191 0.034 -0.318 7.818 -1.929 -0.068 1.067 -7.784 -0.011 0zm1.259 8.226l5.821 0.261 -1.066 7.784 -5.084 -0.226 0.318 -7.819 0.011 0zm12.413 0.522l5.822 0.261 -2.576 7.717 -5.084 -0.193 1.838 -7.785zm-0.317 -0.385l-5.856 -0.227 1.067 -7.784 6.627 0.261 -1.838 7.75zm-4.732 -8.398l1.067 -7.784 7.398 0.318 -1.838 7.75 -6.627 -0.295 0 0.011zm0.738 -8.17l-7.398 -0.295 0.317 -7.818 8.136 0.318 -1.066 7.784 0.011 0.011zm-6.91 -8.498l5.537 -7.592 7.33 0.295 -4.788 7.659 -8.079 -0.362zm5.787 -7.944l5.503 -7.625 6.558 0.295 -4.788 7.625 -7.273 -0.295zm5.786 -7.977l5.503 -7.591 5.753 0.227 -4.766 7.659 -6.49 -0.295zm5.311 -7.977l-1.895 -0.068 4.766 -7.659 2.632 0.125 -5.503 7.602zm2.666 -8.102l-2.7 -0.102 4.017 -7.659 3.438 0.125 -4.766 7.625 0.011 0.011zm1.124 -8.136l-3.507 -0.158 3.279 -7.682 4.244 0.193 -4.017 7.659 0.001 -0.012zm-0.477 -8.238l-4.278 -0.158 2.576 -7.751 5.016 0.227 -3.314 7.682zm-1.963 -8.295l-5.083 -0.193 1.804 -7.75 5.821 0.227 -2.542 7.716zm-5.469 -0.226l-5.083 -0.193 1.066 -7.784 5.821 0.226 -1.804 7.751zm-5.435 -0.228l-5.084 -0.193 0.318 -7.818 5.821 0.227 -1.067 7.784 0.012 0zm-4.823 -16.601l-1.157 -0.034 1.066 -7.818 0.42 0.034 -0.318 7.818 -0.011 0zm-1.509 -0.056l-1.191 -0.034 1.838 -7.784 0.419 0.034 -1.066 7.784zm-1.555 -0.068l-1.157 -0.034 2.542 -7.75 0.419 0.033 -1.804 7.751zm-1.543 -0.069l-1.157 -0.034 3.313 -7.716 0.386 0.034 -2.542 7.716zm-1.543 -0.056l-1.157 -0.034 4.051 -7.682 0.386 0.034 -3.28 7.682zm-1.543 -0.068l-1.124 -0.034 4.766 -7.66 0.387 0.034 -4.017 7.66 -0.012 0zm-0.193 0.352l-4.016 7.682 -1.896 -0.102 4.766 -7.626 1.158 0.034 -0.012 0.012zm-6.365 7.591l-1.838 -0.102 5.537 -7.592 1.089 0.034 -4.788 7.66zm-2.315 -0.091l-5.753 -0.261 4.788 -7.625 6.502 0.261 -5.537 7.625zm-6.173 -0.261l-5.821 -0.261 4.017 -7.659 6.558 0.261 -4.765 7.659 0.011 0zm-6.241 -0.261l-5.821 -0.261 3.279 -7.682 6.593 0.261 -4.051 7.682zm-0.193 0.352l-4.017 7.659 -5.049 -0.193 3.279 -7.716 5.787 0.261 0 -0.011zm-4.221 8.011l-4.017 7.682 -4.278 -0.193 3.279 -7.682 5.016 0.193zm-4.21 8.045l-4.051 7.659 -3.506 -0.125 3.313 -7.682 4.244 0.159 0 -0.011zm0.386 0.034l4.244 0.159 -4.788 7.626 -3.473 -0.125 4.017 -7.66zm-0.318 8.171l3.382 0.158 -5.503 7.591 -2.667 -0.102 4.788 -7.659 0 0.012zm3.858 0.158l4.21 0.193 -4.788 7.625 -4.959 -0.192 5.537 -7.626zm-0.351 8.204l5.015 0.193 -4.016 7.682 -5.787 -0.261 4.788 -7.626 0 0.012zm1.214 8.261l5.821 0.227 -3.279 7.682 -6.593 -0.261 4.051 -7.66 0 0.012zm2.769 8.306l6.626 0.295 -2.575 7.717 -7.33 -0.318 3.279 -7.694zm4.345 8.386l7.398 0.295 -1.804 7.784 -8.136 -0.352 2.542 -7.727zm5.47 8.431l-4.052 7.659 -7.364 -0.295 3.28 -7.716 8.136 0.352zm-4.244 8.011l-4.017 7.681 -6.592 -0.294 3.279 -7.683 7.33 0.296zm-4.221 8.045l-4.017 7.659 -5.855 -0.227 3.313 -7.682 6.559 0.262 0 -0.012zm-4.21 8.034l-4.051 7.659 -5.05 -0.227 3.314 -7.682 5.787 0.262 0 -0.012zm-4.244 8.011l-4.016 7.659 -4.278 -0.159 3.313 -7.682 4.981 0.193 0 -0.011zm0.42 0.034l5.016 0.193 -4.788 7.625 -4.244 -0.158 4.016 -7.66zm5.435 0.227l4.959 0.193 -5.504 7.591 -4.209 -0.158 4.766 -7.626 -0.012 0zm5.436 0.227l2.632 0.102 -4.766 7.625 -3.404 -0.125 5.538 -7.602zm3.086 0.125l2.7 0.102 -4.017 7.682 -3.472 -0.159 4.789 -7.625zm3.12 0.124l2.701 0.103 -3.279 7.716 -3.473 -0.159 4.052 -7.659 -0.001 -0.001zm3.087 0.137l2.734 0.102 -2.542 7.75 -3.472 -0.159 3.28 -7.693zm3.12 0.125l2.769 0.102 -1.839 7.784 -3.471 -0.159 2.541 -7.727zm5.015 -8.012l1.998 0.102 -1.09 7.784 -2.7 -0.124 1.804 -7.751 -0.012 -0.011zm2.349 0.102l1.998 0.102 -0.318 7.819 -2.735 -0.125 1.067 -7.784 -0.012 -0.012zm2.054 8.295l5.049 0.193 -1.066 7.818 -4.346 -0.193 0.352 -7.818 0.011 0zm10.848 0.455l5.015 0.193 -2.542 7.749 -4.311 -0.193 1.838 -7.749zm5.401 0.226l5.015 0.193 -3.279 7.716 -4.278 -0.193 2.542 -7.716zm5.435 0.216l5.015 0.193 -4.016 7.682 -4.278 -0.193 3.279 -7.682zm-0.261 -0.386l-5.049 -0.193 2.541 -7.75 5.821 0.261 -3.313 7.682zm-2.757 -8.295l-5.856 -0.261 1.838 -7.75 6.593 0.261 -2.575 7.75zm-3.96 -8.397l1.804 -7.75 7.364 0.318 -2.542 7.716 -6.627 -0.295 0.001 0.011zm1.509 -8.136l-7.399 -0.295 1.067 -7.784 8.136 0.318 -1.804 7.761zm-6.207 -8.453l4.788 -7.626 7.364 0.295 -4.017 7.682 -8.135 -0.351zm5.015 -7.977l4.766 -7.66 6.593 0.295 -4.017 7.66 -7.342 -0.295zm4.993 -8.012l4.788 -7.625 5.821 0.227 -4.051 7.682 -6.558 -0.295 0 0.011zm4.561 -8.011l-5.73 -0.227 5.538 -7.625 4.981 0.227 -4.789 7.625zm0.069 -8.204l5.503 -7.591 4.209 0.158 -4.766 7.626 -4.946 -0.193zm-0.488 -0.034l-2.633 -0.102 4.766 -7.625 3.404 0.125 -5.537 7.602zm1.895 -8.102l-3.472 -0.159 4.051 -7.659 4.209 0.193 -4.788 7.625zm0.363 -8.204l-4.278 -0.159 3.279 -7.716 5.049 0.227 -4.051 7.659 0.001 -0.011zm-1.226 -8.238l-5.083 -0.227 2.576 -7.716 5.787 0.227 -3.28 7.716zm-9.009 -8.578l-5.856 -0.261 1.067 -7.785 6.593 0.295 -1.804 7.751zm-6.241 -0.261l-5.855 -0.262 0.318 -7.818 6.592 0.295 -1.067 7.784 0.012 0.001zm-5.56 -16.636l-0.386 -0.034 0.544 -4.084 -0.158 4.118zm-0.772 -0.034l-0.386 -0.033 0.931 -4.017 -0.545 4.05zm-0.771 -0.022l-0.352 -0.034 1.282 -3.96 -0.93 3.994zm-0.738 -0.034l-0.386 -0.034 1.645 -3.824 -1.259 3.858zm-0.771 -0.034l-0.352 -0.034 1.929 -3.699 -1.577 3.733zm-0.772 -0.034l-0.318 -0.034 2.19 -3.507 -1.861 3.541 -0.011 0zm-0.772 -0.035l-0.295 -0.033 2.19 -3.019 -1.895 3.052zm-0.226 0.352l-4.766 7.626 -1.067 -0.034 5.503 -7.625 0.33 0.033zm-6.309 7.569l-6.525 -0.261 4.766 -7.66 7.273 0.318 -5.514 7.603zm-6.979 -0.295l-6.592 -0.261 4.051 -7.682 7.33 0.317 -4.789 7.626zm-6.978 -0.284l-6.627 -0.261 3.279 -7.716 7.364 0.318 -4.016 7.659zm-7.012 -0.295l-6.627 -0.295 2.541 -7.716 7.364 0.318 -3.278 7.693zm-0.16 0.352l-3.279 7.716 -5.855 -0.261 2.542 -7.716 6.592 0.261zm-3.449 8.079l-3.313 7.682 -5.05 -0.193 2.542 -7.75 5.821 0.261zm-3.438 8.034l-3.314 7.716 -4.277 -0.193 2.541 -7.716 5.05 0.193zm-3.472 8.079l-3.279 7.682 -3.507 -0.125 2.542 -7.716 4.244 0.159zm-3.438 8.068l-3.279 7.682 -2.735 -0.102 2.542 -7.75 3.472 0.159 0 0.011zm0.42 0l3.438 0.159 -4.017 7.659 -2.734 -0.102 3.313 -7.716zm3.857 0.17l3.439 0.159 -4.766 7.625 -2.735 -0.102 4.052 -7.682 0.01 0zm-1.123 8.17l2.632 0.102 -5.537 7.626 -1.861 -0.103 4.766 -7.625zm3.086 0.125l5.016 0.193 -4.788 7.659 -5.73 -0.261 5.502 -7.591zm0.409 8.238l5.821 0.227 -4.017 7.659 -6.558 -0.261 4.766 -7.625 -0.012 0zm1.997 8.261l6.626 0.295 -3.313 7.682 -7.33 -0.318 4.017 -7.659zm3.574 8.363l7.399 0.295 -2.542 7.75 -8.136 -0.352 3.279 -7.693zm4.732 8.397l-3.313 7.682 -7.399 -0.295 2.576 -7.75 8.136 0.351 0 0.012zm-3.45 8.045l-3.313 7.716 -6.627 -0.295 2.576 -7.716 7.364 0.295zm-3.438 8.068l-3.313 7.682 -5.821 -0.227 2.542 -7.717 6.592 0.262zm-3.472 8.079l-3.279 7.682 -5.049 -0.227 2.542 -7.716 5.786 0.261zm-3.438 8.034l-3.279 7.682 -4.312 -0.159 2.576 -7.716 5.015 0.193zm-3.064 8.079l4.244 0.193 -4.016 7.66 -3.507 -0.159 3.279 -7.694zm4.664 0.193l4.21 0.193 -4.766 7.625 -3.507 -0.124 4.063 -7.694zm4.663 0.193l4.153 0.193 -5.503 7.591 -3.438 -0.124 4.788 -7.66zm4.63 0.193l3.438 0.159 -4.766 7.625 -4.176 -0.159 5.504 -7.625zm3.87 0.159l3.506 0.159 -4.051 7.659 -4.21 -0.159 4.766 -7.659 -0.011 0zm3.891 0.159l3.507 0.158 -3.279 7.682 -4.244 -0.158 4.016 -7.682zm3.892 0.158l3.541 0.159 -2.576 7.716 -4.244 -0.158 3.279 -7.717zm3.892 0.16l3.541 0.158 -1.805 7.751 -4.277 -0.159 2.541 -7.75zm3.915 0.17l3.507 0.158 -1.067 7.784 -4.243 -0.158 1.803 -7.784zm0.068 -0.363l1.838 -7.751 2.735 0.091 -1.067 7.819 -3.506 -0.159zm4.959 -7.615l2.734 0.102 -0.317 7.853 -3.507 -0.159 1.09 -7.796zm2.791 8.329l4.278 0.159 -1.067 7.784 -3.54 -0.124 0.318 -7.819 0.011 0zm4.63 0.193l4.277 0.159 -1.804 7.75 -3.54 -0.125 1.067 -7.784zm4.663 0.193l4.244 0.159 -2.542 7.716 -3.506 -0.125 1.804 -7.75zm4.641 0.193l4.244 0.159 -3.279 7.716 -3.507 -0.159 2.542 -7.716zm4.664 0.193l4.244 0.159 -4.051 7.659 -3.507 -0.125 3.314 -7.693zm4.822 -0.193l4.051 -7.659 4.982 0.193 -4.767 7.659 -4.266 -0.193zm3.824 -8.045l-5.049 -0.193 3.279 -7.716 5.787 0.261 -4.017 7.659 0 -0.011zm-1.997 -8.261l-5.855 -0.261 2.542 -7.716 6.592 0.261 -3.279 7.716zm-3.177 -8.363l2.542 -7.716 7.364 0.318 -3.279 7.682 -6.627 -0.295 0 0.011zm2.281 -8.113l-7.398 -0.295 1.804 -7.75 8.136 0.318 -2.542 7.727zm-5.47 -8.42l4.017 -7.659 7.399 0.318 -3.28 7.682 -8.136 -0.352 0 0.011zm4.221 -8.011l4.051 -7.682 6.593 0.295 -3.279 7.682 -7.365 -0.295zm4.244 -8.045l4.017 -7.659 5.821 0.227 -3.279 7.716 -6.559 -0.295 0 0.011zm3.824 -8.034l-5.787 -0.227 4.766 -7.659 5.049 0.227 -4.016 7.659 -0.012 0zm-0.805 -8.238l4.788 -7.625 4.244 0.158 -4.017 7.682 -5.016 -0.227 0.001 0.012zm4.992 -8.011l4.788 -7.625 3.472 0.158 -4.016 7.66 -4.244 -0.193zm-0.42 0l-4.175 -0.159 5.537 -7.625 3.439 0.159 -4.789 7.625 -0.012 0zm-4.64 -0.193l-3.439 -0.159 4.766 -7.625 4.187 0.193 -5.503 7.592 -0.011 -0.001zm1.134 -8.17l-4.243 -0.159 4.016 -7.681 5.016 0.226 -4.788 7.626 -0.001 -0.012zm-0.42 -8.204l-5.083 -0.227 3.313 -7.682 5.788 0.227 -4.018 7.682zm-2.031 -8.295l-5.821 -0.261 2.542 -7.716 6.593 0.295 -3.314 7.682zm-3.177 -8.329l2.576 -7.716 7.364 0.295 -3.313 7.682 -6.627 -0.261zm2.315 -8.113l-7.432 -0.318 1.838 -7.75 8.136 0.352 -2.542 7.716zm-7.818 -0.318l-7.399 -0.318 1.067 -7.784 8.17 0.318 -1.838 7.784zm-0.068 0.352l-1.804 7.751 -6.627 -0.262 1.067 -7.784 7.364 0.295zm-8.806 7.466l-6.626 -0.261 0.318 -7.818 7.364 0.295 -1.067 7.784 0.011 0zm-12.061 -8.691l-7.296 -0.318 4.766 -7.626 8.067 0.318 -5.537 7.626zm-7.727 -0.318l-7.364 -0.318 4.017 -7.659 8.101 0.318 -4.766 7.659 0.012 0zm-7.785 -0.318l-7.398 -0.318 3.314 -7.682 8.101 0.318 -4.017 7.682zm-7.783 -0.352l-7.399 -0.295 2.542 -7.716 8.136 0.318 -3.279 7.693zm-7.785 -0.329l-7.398 -0.295 1.804 -7.75 8.136 0.318 -2.542 7.727zm-0.125 0.386l-2.541 7.717 -6.627 -0.295 1.804 -7.751 7.364 0.318 0 0.011zm-5.344 16.181l-2.542 7.716 -5.083 -0.193 1.838 -7.784 5.787 0.261zm-2.666 8.079l-2.542 7.75 -4.278 -0.193 1.804 -7.75 5.016 0.193zm-2.667 8.102l-2.542 7.717 -3.506 -0.125 1.804 -7.75 4.244 0.158zm-2.666 8.102l-2.542 7.717 -2.735 -0.103 1.805 -7.784 3.472 0.159 0 0.011zm-2.292 8.114l2.7 0.102 -3.279 7.716 -1.963 -0.102 2.542 -7.716zm3.086 0.124l2.7 0.103 -4.016 7.681 -1.963 -0.101 3.279 -7.683zm3.12 0.125l2.667 0.102 -4.788 7.659 -1.929 -0.102 4.05 -7.659zm-1.929 8.136l1.861 0.068 -5.537 7.592 -1.09 -0.034 4.766 -7.626zm2.315 0.068l5.787 0.261 -4.788 7.626 -6.502 -0.261 5.503 -7.626zm1.225 8.272l6.593 0.295 -4.051 7.66 -7.33 -0.318 4.788 -7.637zm2.769 8.329l7.398 0.295 -3.313 7.682 -8.101 -0.317 4.016 -7.66zm3.983 8.363l-2.542 7.716 -7.398 -0.295 1.804 -7.784 8.136 0.352 0 0.011zm-2.667 8.068l-2.542 7.75 -6.66 -0.295 1.838 -7.75 7.364 0.295zm-11.153 15.954l5.821 0.261 -2.542 7.717 -5.084 -0.227 1.805 -7.751zm-3.7 15.898l1.804 -7.75 5.05 0.193 -2.542 7.716 -4.312 -0.159zm4.528 0.544l4.277 0.193 -3.278 7.682 -3.541 -0.158 2.542 -7.717zm-2.44 15.954l-2.768 -0.124 2.575 -7.717 3.472 0.159 -3.279 7.682zm3.086 0.125l-2.7 -0.125 3.279 -7.681 3.472 0.124 -4.051 7.682zm3.121 0.125l-2.7 -0.125 4.017 -7.659 3.471 0.125 -4.788 7.659zm3.086 0.136l-2.632 -0.124 4.766 -7.626 3.404 0.125 -5.538 7.625zm5.436 0.228l-4.959 -0.228 5.504 -7.591 4.243 0.159 -4.788 7.66zm5.435 0.215l-5.016 -0.227 4.788 -7.625 4.244 0.193 -4.016 7.659zm5.401 0.227l-5.016 -0.227 4.051 -7.659 4.278 0.193 -3.313 7.693zm5.435 0.227l-5.015 -0.227 3.279 -7.682 4.312 0.193 -2.576 7.716zm5.436 0.227l-5.05 -0.227 2.542 -7.717 4.312 0.193 -1.804 7.751zm5.412 0.226l-5.016 -0.226 1.805 -7.751 4.277 0.193 -1.066 7.784zm5.435 0.228l-5.049 -0.227 1.066 -7.784 4.312 0.193 -0.318 7.818 -0.011 0zm0.318 -8.205l-4.244 -0.158 1.067 -7.819 3.54 0.159 -0.352 7.818 -0.011 0zm2.836 8.33l-2.768 -0.125 0.317 -7.819 3.507 0.159 -1.067 7.784 0.011 0.001zm3.11 0.125l-2.769 -0.125 1.066 -7.784 3.506 0.158 -1.804 7.75 0.001 0.001zm3.12 0.135l-2.735 -0.102 1.805 -7.784 3.472 0.159 -2.542 7.727zm3.12 0.125l-2.734 -0.102 2.542 -7.75 3.472 0.159 -3.28 7.693zm3.121 0.125l-2.735 -0.102 3.314 -7.716 3.438 0.158 -4.017 7.66zm3.12 0.136l-2.7 -0.102 4.016 -7.682 3.438 0.159 -4.765 7.625 0.011 0zm3.087 0.125l-2.667 -0.102 4.788 -7.659 3.382 0.159 -5.503 7.602zm5.764 -7.977l-3.405 -0.125 4.766 -7.625 4.176 0.159 -5.537 7.591zm9.418 -7.433l-4.766 7.66 -4.187 -0.193 5.503 -7.592 3.45 0.125zm1.906 -8.135l-5.537 7.625 -4.21 -0.193 4.766 -7.625 4.981 0.193zm-0.386 -8.205l-4.788 7.626 -5.016 -0.193 4.017 -7.682 5.787 0.261 0 -0.012zm-6.014 -0.612l-5.821 -0.261 3.279 -7.682 6.593 0.261 -4.051 7.682zm8.261 -15.693l-4.017 7.659 -6.627 -0.261 3.279 -7.717 7.365 0.319zm-7.591 -0.704l-7.399 -0.295 2.542 -7.716 8.136 0.317 -3.279 7.694zm3.415 -8.045l-8.136 -0.352 3.279 -7.682 7.399 0.318 -2.542 7.716zm2.667 -8.102l-7.364 -0.295 3.279 -7.716 6.627 0.295 -2.542 7.716zm5.208 -15.829l-2.542 7.75 -6.592 -0.295 3.313 -7.682 5.821 0.227zm-6.082 -0.613l-5.787 -0.227 4.017 -7.682 5.049 0.227 -3.279 7.682zm3.449 -8.034l-5.015 -0.227 4.051 -7.659 4.278 0.158 -3.314 7.728zm6.752 -15.761l-3.279 7.682 -4.244 -0.193 4.017 -7.66 3.506 0.159 0 0.012zm-2.383 -8.341l2.7 0.125 -4.017 7.659 -3.471 -0.124 4.788 -7.66zm-3.086 -0.124l2.632 0.124 -4.766 7.626 -3.404 -0.125 5.538 -7.625zm-0.488 0l-5.538 7.591 -4.209 -0.159 4.788 -7.659 4.958 0.227 0.001 0zm-0.386 -8.239l-4.766 7.66 -5.049 -0.227 4.051 -7.659 5.764 0.226zm-5.98 -0.601l-5.855 -0.261 3.313 -7.682 6.559 0.295 -4.017 7.659 0 -0.011zm8.238 -15.704l-4.017 7.659 -6.592 -0.261 3.279 -7.682 7.33 0.295 0 -0.011zm-7.591 -0.67l-7.399 -0.318 2.576 -7.716 8.136 0.352 -3.313 7.682zm-1.419 -16.113l7.399 0.318 -2.542 7.716 -8.17 -0.318 3.313 -7.716zm-7.784 -0.329l7.364 0.318 -3.279 7.681 -8.101 -0.317 4.016 -7.682zm-7.784 -0.318l7.364 0.318 -4.016 7.659 -8.102 -0.317 4.766 -7.66 -0.012 0zm-8.487 -0.352l0.295 0.034 -2.224 3.019 1.929 -3.053zm-0.806 -0.034l0.352 0.034 -2.224 3.541 1.861 -3.575 0.011 0zm-0.737 -0.033l0.352 0.033 -1.963 3.699 1.611 -3.732zm-0.772 -0.035l0.352 0.034 -1.645 3.824 1.282 -3.858 0.011 0zm-0.772 -0.034l0.386 0.034 -1.316 3.96 0.93 -3.994zm-0.737 -0.034l0.386 0.034 -0.964 4.017 0.578 -4.051zm-0.783 -0.022l0.386 0.034 -0.544 4.085 0.158 -4.119zm5.345 0.227l7.33 0.317 -4.766 7.626 -8.068 -0.318 5.504 -7.625zm-5.696 7.965l8.169 0.318 -1.066 7.818 -7.433 -0.318 0.318 -7.818 0.012 0zm-7.455 -8.522l7.432 0.318 -0.352 7.819 -8.136 -0.352 1.067 -7.784 -0.011 -0.001zm-7.785 -0.317l7.399 0.317 -1.067 7.784 -8.136 -0.351 1.804 -7.75zm-7.783 -0.318l7.398 0.318 -1.804 7.75 -8.136 -0.351 2.542 -7.717zm-7.762 -0.329l7.364 0.318 -2.542 7.716 -8.136 -0.352 3.314 -7.682zm-7.807 -0.318l7.399 0.318 -3.279 7.682 -8.136 -0.352 4.016 -7.659 0 0.011zm-7.749 -0.317l7.363 0.295 -4.05 7.682 -8.102 -0.352 4.789 -7.625zm-4.925 8l8.136 0.317 -1.804 7.75 -7.399 -0.295 1.067 -7.784 0 0.012zm-1.123 8.147l7.398 0.318 -1.838 7.75 -6.627 -0.296 1.067 -7.784 0 0.012zm-1.135 8.17l6.627 0.261 -1.838 7.784 -5.856 -0.261 1.067 -7.784zm-1.089 8.135l5.821 0.262 -1.838 7.75 -5.084 -0.193 1.09 -7.819 0.011 0zm-1.123 8.17l5.049 0.193 -1.804 7.784 -4.312 -0.193 1.067 -7.784zm-1.124 8.17l4.278 0.159 -1.804 7.75 -3.541 -0.125 1.067 -7.784zm-2.19 15.955l1.067 -7.819 3.506 0.159 -1.804 7.75 -2.769 -0.102 0 0.012zm1.248 8.227l1.804 -7.751 2.701 0.103 -2.542 7.749 -1.963 -0.101zm0.874 8.238l-1.192 -0.034 2.542 -7.716 1.929 0.068 -3.279 7.682zm1.543 0.068l-1.157 -0.034 3.279 -7.682 1.929 0.068 -4.051 7.66 0 -0.012zm0.42 0.034l4.017 -7.659 1.895 0.068 -4.766 7.625 -1.158 -0.034 0.012 0zm-3.087 8.068l-0.317 -0.034 4.766 -7.625 1.066 0.033 -5.503 7.626 -0.012 0zm0.443 0l5.537 -7.592 6.525 0.295 -4.766 7.626 -7.296 -0.318 0 -0.011zm7.5 0.703l7.364 0.295 -4.016 7.659 -8.102 -0.317 4.766 -7.626 -0.012 -0.011zm-4.924 7.977l8.169 0.352 -1.804 7.75 -7.432 -0.318 1.067 -7.784zm-1.089 8.17l7.363 0.296 -1.804 7.784 -6.626 -0.296 1.067 -7.784zm3.664 -110.896c0,0 0,0.17 -0.022,0.476l0.238 -0.386c-0.068,-0.023 -0.147,-0.056 -0.227,-0.079l0.011 -0.011zm89.732 13.843c0.068,0.522 0.136,1.033 0.193,1.532l0.715 -6.241 7.364 -0.51 -1.668 7.977 -6.207 0.419 0.046 0.375 6.093 -0.443 -1.668 7.977 -3.597 0.261c0.011,0.125 0.034,0.25 0.046,0.375l3.483 -0.25 -1.668 7.943 -0.578 0.046c0.023,0.125 0.045,0.249 0.068,0.374l0.408 -0.034 -0.056 2.032 0.431 -2.065 5.016 -0.352 -2.383 8.012 -2.02 0.147c0.023,0.125 0.045,0.239 0.068,0.363l1.827 -0.124 -1.157 3.835c0.045,0.283 0.102,0.545 0.147,0.817l1.395 -4.687 4.244 -0.295 -3.154 8.069 -1.895 0.124c0.022,0.125 0.045,0.25 0.068,0.374l1.702 -0.113 -1.135 2.893c0.046,0.205 0.091,0.409 0.148,0.591l1.373 -3.518 3.438 -0.261 -3.586 7.489c0.079,0.182 0.148,0.341 0.204,0.477l3.836 -8.011 3.381 -0.228 -4.63 8.171 -2.519 0.181c0.057,0.136 0.102,0.25 0.148,0.363l2.145 -0.158 -3.393 6.014 0.204 0.408 3.654 -6.456 4.981 -0.352 -3.892 8.102 -4.085 0.295c0.057,0.114 0.114,0.238 0.171,0.363l3.721 -0.272 -2.054 4.289 0.159 0.578 2.349 -4.901 5.787 -0.386 -3.154 8.067 -4.482 0.307 0.215 0.34 4.131 -0.306 -2.077 5.311c0.046,0.226 0.091,0.454 0.137,0.669l2.326 -6.014 6.592 -0.454 -2.382 8.012 -6.355 0.442c0,0.137 -0.023,0.261 -0.034,0.375l6.253 -0.443 -2.418 8.011 -0.998 0.069c0.023,0.124 0.046,0.249 0.068,0.374l0.863 -0.057c-0.473,2.263 -0.874,3.66 -0.874,5.958l1.26 -5.98 8.136 -0.579 -2.417 8.012 -6.48 0.476c0.046,0.102 0.114,0.227 0.171,0.341l6.184 -0.431 -1.906 6.332 0.193 0.715 2.133 -7.081 7.33 -0.511 -3.155 8.068 -6.149 0.42c0.022,0.125 0.033,0.25 0.045,0.374l5.946 -0.408 -3.155 8.068 -1.917 0.124c0.057,0.114 0.114,0.227 0.181,0.341l1.612 -0.114 -0.613 1.578c0.091,0.124 0.17,0.216 0.261,0.329l0.738 -1.907 5.787 -0.42 -3.892 8.102 -0.071 -0.002 0.148 0.726 0.181 -0.363 4.925 -0.352 -3.927 6.922c0.046,0.204 0.091,0.409 0.125,0.602l4.289 -7.558 2.633 -0.193 -3.858 8.136 -2.962 0.193c0.022,0.125 0.045,0.25 0.057,0.364l2.7 -0.182 -2.11 4.392c0.022,0.226 0.045,0.453 0.068,0.703l2.451 -5.118 3.472 -0.261 -3.121 8.068 -2.394 0.159c0.034,0.125 0.068,0.261 0.102,0.386l2.145 -0.159 -1.555 3.983c0.046,0.136 0.102,0.215 0.17,0.295l0.035 0 0 0.033 0.046 0.035 1.702 -4.38 4.277 -0.296 -1.146 3.813c0.125,0 0.262,0 0.409,0l1.158 -3.858 4.277 -0.295 -0.839 4.006c0.125,0 0.249,-0.023 0.374,-0.034l0.828 -4.006 4.312 -0.318 -0.431 3.643c0.125,-0.023 0.261,-0.046 0.386,-0.068l0.42 -3.609 4.278 -0.295 -0.08 2.996c0.125,-0.023 0.239,-0.046 0.364,-0.069l-0.001 0.001c0,0 0.056,-2.962 0.056,-2.962l4.313 -0.295 0.158 2.259c0.137,-0.035 0.273,-0.057 0.409,-0.091l-0.159 -2.202 3.472 -0.261 -0.033 1.736c0.124,-0.023 0.249,-0.056 0.385,-0.079l0.046 -1.68 3.472 -0.261 -0.137 1.18c0.137,-0.034 0.262,-0.056 0.398,-0.09l0.125 -1.101 3.471 -0.261 -0.124 0.613c0.136,-0.023 0.261,-0.057 0.397,-0.08l0.113 -0.556 3.473 -0.261 -0.046 0.148 0.408 -0.068 0.023 -0.079 7.818 -0.704 3.779 -0.091 0 -0.022c0,0 4.232,-0.295 4.232,-0.295l-0.17 0.34c0.137,0 0.261,0 0.397,0l0.182 -0.386 4.243 -0.318 -0.351 0.897c0.136,0 0.261,0.011 0.397,0.022l0.374 -0.953 4.278 -0.295 -0.476 1.589c0.124,0.011 0.238,0.022 0.363,0.033l0.499 -1.656 4.278 -0.295 -0.522 2.484c0.125,0.023 0.25,0.035 0.363,0.057l0.545 -2.576 4.278 -0.317 -0.477 4.039c0.125,0.046 0.25,0.102 0.364,0.148l0.499 -4.222 3.789 -0.25c0,-0.124 0,-0.249 0,-0.386l-3.721 0.284 0.896 -7.909 2.655 -0.193c0,-0.136 0,-0.261 0,-0.386l-2.587 0.193 0.896 -7.909 1.555 -0.113c0,-0.125 0,-0.261 -0.011,-0.386l-1.509 0.102 0.93 -7.909 0.341 -0.023c0,-0.113 -0.011,-0.238 -0.023,-0.351l-0.251 0.001 0.068 -3.756 -0.442 3.802 -1.929 0.125 1.668 -7.977 0.589 -0.034c0,-0.125 0,-0.239 0,-0.364l-0.51 0.046c0.459,-2.203 0.47,-1.56 0.386,-3.665l-0.772 3.677 -1.123 0.102 1.816 -6.037c-0.012,-0.386 -0.035,-0.772 -0.046,-1.192l-2.156 7.262 -1.157 0.069 3.154 -8.068 0.125 -0.001c-0.011,-0.386 -0.033,-0.771 -0.056,-1.18l-0.329 0.862 -0.318 0c0.638,-1.344 0.679,-1.079 0.59,-2.144l-1.044 2.178 -0.295 0.034c0.999,-1.766 1.346,-1.901 1.294,-3.064l-1.736 3.098 -7.33 0.511 3.892 -8.102 4.902 -0.352c0,-0.124 -0.023,-0.249 -0.023,-0.374l-4.811 0.341 0.158 -7.853 4.029 -0.295c-0.011,-0.124 -0.023,-0.238 -0.034,-0.363l-3.96 0.272 0.158 -7.852 2.917 -0.216c-0.012,-0.124 -0.034,-0.249 -0.046,-0.363l-2.837 0.193 0.159 -7.852 1.509 -0.114c-0.022,-0.124 -0.045,-0.249 -0.068,-0.386l-1.418 0.102 0.147 -7.137c-0.102,-0.556 -0.215,-1.089 -0.329,-1.634l0 0.568c0,0 -5.026,0.351 -5.026,0.351l0.896 -7.909 2.644 -0.181 -0.068 -0.363 -2.508 0.193 0.874 -7.387c-0.091,-0.364 -0.181,-0.726 -0.261,-1.101l-0.023 0.216 -3.472 0.227 1.577 -7.694c-0.068,-0.227 -0.136,-0.465 -0.204,-0.692l0 0.079c0,0 -2.723,0.193 -2.723,0.193l1.384 -4.595c-0.068,-0.204 -0.136,-0.397 -0.193,-0.602l-1.577 5.22 -2.667 0.193 3.121 -8.068 0.227 0c-0.102,-0.295 -0.193,-0.567 -0.295,-0.851l-0.193 0.5 -1.861 0.124 1.305 -2.746c-0.057,-0.17 -0.113,-0.34 -0.181,-0.51l-1.578 3.29 -1.838 0.125 2.837 -4.993c-0.057,-0.158 -0.125,-0.318 -0.181,-0.488l-3.098 5.515 -5.753 0.42 3.858 -8.136 4.074 -0.284c-0.046,-0.125 -0.091,-0.238 -0.136,-0.363l-3.745 0.261 2.133 -4.436c-0.056,-0.159 -0.124,-0.307 -0.181,-0.454l-2.36 4.925 -6.592 0.488 3.154 -8.068 4.607 -0.329c-0.046,-0.125 -0.102,-0.25 -0.148,-0.364l-4.3 0.307 2.133 -5.515c-0.08,-0.193 -0.148,-0.352 -0.193,-0.477l-2.349 6.026 -7.364 0.51 2.417 -8.011 4.505 -0.318 -6.729 0.477 1.815 -0.125 -2.417 8.011 -7.364 0.545 1.52 -7.24c-0.136,0.023 -0.261,0.057 -0.397,0.08l-1.509 7.149 -7.398 0.544 0.692 -5.877c-0.125,0.022 -0.25,0.056 -0.386,0.079l-0.669 5.833 -7.433 0.51 0.125 -4.992c-0.113,0.011 -0.238,0.033 -0.351,0.045l-0.125 4.981 -7.398 0.511 -0.318 -4.584c-0.885,0.079 -1.793,0.17 -2.746,0.249l-2.69 4.755 -7.296 0.511 2.201 -4.596c-0.136,0 -0.283,0.023 -0.419,0.034l-2.202 4.596 -7.363 0.511 1.781 -4.574c-0.136,0 -0.272,0.011 -0.397,0.023l-1.77 4.573 -7.399 0.511 1.407 -4.653c-0.125,0 -0.249,0.012 -0.386,0.023l-1.407 4.664 -7.398 0.545 1.021 -4.88c-0.125,0 -0.249,0 -0.374,0l-1.01 4.868 -7.399 0.545 0.613 -5.242 -0.385 -0.001c0,0 -0.624,5.276 -0.624,5.276l-1.26 0.091c0.011,0.114 0.034,0.227 0.046,0.352l1.18 -0.08 -0.534 4.845zm6.922 3.099l6.558 -0.489 -2.417 8.012 -5.821 0.419 1.668 -7.942 0.012 0zm84.659 18.631l3.541 -0.261 -1.668 7.977 -4.244 0.295 2.417 -8.011 -0.046 0zm2.44 81.632l-2.61 0.159 4.63 -8.17 1.86 -0.125 -3.892 8.136 0.012 0zm4.346 -8.17l1.929 -0.125 -3.154 8.068 -2.667 0.193 3.892 -8.136zm-7.432 8.363l-4.959 0.352 3.858 -8.102 5.73 -0.42 -4.629 8.17zm-36.992 -38.433l-0.386 0.034 2.383 -8.011 1.123 -0.102 -3.12 8.079zm3.541 -8.113l1.123 -0.068 -3.892 8.102 -0.386 0.033 3.154 -8.068 0.001 0.001zm-4.346 8.17l-0.386 0.034 1.645 -7.977 1.157 -0.102 -2.416 8.045zm-0.772 0.034l-0.419 0.034 0.93 -7.909 1.158 -0.068 -1.669 7.943zm-0.794 0.068l-0.42 0.034 0.193 -7.852 1.158 -0.102 -0.931 7.92zm0.352 0.352l0.351 -0.034 -0.839 4.085 0.488 -4.051zm0.737 -0.068l0.386 -0.034 -1.225 4.017 0.839 -3.983zm0.772 -0.034l0.352 -0.034 -1.51 3.892 1.158 -3.858zm0.771 -0.057l0.318 -0.034 -1.804 3.767 1.475 -3.733 0.011 0zm0.772 -0.068l0.295 0 -1.838 3.245 1.543 -3.245zm0.159 -0.386l3.892 -8.102 1.066 -0.102 -4.595 8.204 -0.363 0zm3.665 -8.454l-1.157 0.069 3.154 -8.069 1.895 -0.124 -3.892 8.136 0 -0.012zm-1.577 0.091l-1.158 0.102 2.417 -8.011 1.895 -0.159 -3.154 8.068zm-1.543 0.125l-1.192 0.068 1.668 -7.943 1.895 -0.159 -2.382 8.045 0.011 -0.011zm-1.567 0.102l-1.191 0.102 0.931 -7.909 1.929 -0.158 -1.668 7.977 -0.001 -0.012zm-1.577 0.125l-1.191 0.068 0.193 -7.852 1.929 -0.125 -0.931 7.909zm-1.35 -8.136l-1.997 0.158 -0.545 -7.818 2.701 -0.193 -0.159 7.853zm-1.804 8.363l-6.592 0.454 0.193 -7.853 5.855 -0.42 0.544 7.819zm-0.159 -7.852l1.929 -0.125 -0.158 7.852 -1.226 0.102 -0.545 -7.829zm1.929 16.317l0.386 -0.034 -0.488 4.119 0.102 -4.085zm4.562 -0.363l7.33 -0.511 -3.892 8.136 -8.045 0.579 4.595 -8.204 0.012 0zm0.227 -0.352l4.629 -8.204 6.525 -0.454 -3.892 8.102 -7.274 0.545 0.012 0.011zm4.856 -8.59l4.595 -8.17 5.787 -0.42 -3.892 8.136 -6.502 0.454 0.012 0zm-0.476 0.034l-1.09 0.102 3.892 -8.136 1.838 -0.125 -4.63 8.171 -0.01 -0.012zm2.541 -8.397l-1.929 0.159 3.154 -8.068 2.667 -0.193 -3.892 8.102zm-2.326 0.17l-1.963 0.159 2.417 -8.011 2.667 -0.193 -3.121 8.045zm-2.338 0.193l-1.963 0.125 1.668 -7.977 2.701 -0.193 -2.417 8.045 0.011 0zm-2.349 0.16l-1.962 0.124 0.93 -7.908 2.701 -0.193 -1.669 7.977zm-2.348 0.158l-1.963 0.125 0.193 -7.852 2.701 -0.193 -0.931 7.92zm-2.122 -8.079l-2.769 0.193 -0.544 -7.784 3.472 -0.261 -0.159 7.852zm-2.576 8.397l-5.82 0.42 0.193 -7.852 5.083 -0.352 0.544 7.784zm-5.787 -16.011l-4.278 0.295 0.931 -7.875 3.54 -0.261 -0.193 7.841zm-0.033 0.386l-0.159 7.852 -5.05 0.352 0.931 -7.909 4.278 -0.295zm-5.595 8.226l-5.015 0.352 1.668 -7.943 4.278 -0.318 -0.931 7.909zm0.352 0.364l5.05 -0.352 -0.159 7.852 -5.821 0.42 0.93 -7.92zm5.05 16.078l6.626 -0.488 0.545 7.819 -7.364 0.511 0.193 -7.842zm7.012 -0.521l1.157 -0.069 -0.158 7.853 -0.42 0.033 -0.579 -7.817zm1.021 20.107l0.295 4.085 -0.386 0.034 0.102 -4.119 -0.011 0zm-0.057 -11.96l-0.102 4.153 -0.295 -4.119 0.397 -0.034zm-0.034 16.431l0.42 0 0.545 7.784 -1.158 0.102 0.193 -7.886zm0.227 -8.238l8.136 -0.579 -0.158 7.875 -7.399 0.511 -0.578 -7.819 -0.001 0.012zm8.329 7.659l7.364 -0.545 -0.931 7.909 -6.627 0.488 0.194 -7.852zm7.75 -0.579l7.33 -0.511 -1.645 7.977 -6.627 0.454 0.942 -7.92zm-0.352 -0.318l-7.398 0.511 0.193 -7.852 8.136 -0.578 -0.931 7.919zm-7.114 -7.727l3.892 -8.136 7.364 -0.511 -3.155 8.068 -8.101 0.579zm4.085 -8.522l3.891 -8.102 -0.033 0 6.592 -0.488 -3.154 8.069 -7.296 0.51 0 0.011zm4.062 -8.488l3.892 -8.101 5.821 -0.42 -3.155 8.068 -6.558 0.453zm4.085 -8.487l3.892 -8.136 5.015 -0.352 -3.154 8.068 -5.753 0.42zm-0.42 0.022l-5.73 0.386 4.629 -8.17 4.959 -0.351 -3.858 8.135zm-6.207 0.42l-1.861 0.125 3.892 -8.102 2.609 -0.193 -4.629 8.17 -0.011 0zm1.77 -8.328l-2.7 0.193 3.154 -8.068 3.438 -0.261 -3.892 8.136zm-3.12 0.226l-2.701 0.193 2.383 -8.011 3.472 -0.261 -3.154 8.079zm-3.12 0.227l-2.735 0.193 1.668 -7.977 3.472 -0.261 -2.417 8.045 0.012 0zm-3.087 0.193l-2.769 0.227 0.931 -7.909 3.472 -0.261 -1.645 7.943 0.011 0zm-3.121 0.227l-2.768 0.193 0.193 -7.852 3.506 -0.261 -0.931 7.92zm-2.927 -8.011l-3.54 0.261 -0.545 -7.818 4.278 -0.295 -0.193 7.852zm-3.348 8.454l-5.049 0.352 0.193 -7.853 4.278 -0.295 0.578 7.796zm-5.015 -16.079l-3.472 0.261 0.897 -7.909 2.768 -0.193 -0.193 7.841zm-3.869 0.283l-3.506 0.228 1.667 -7.944 2.735 -0.193 -0.896 7.909 0 0zm-0.057 0.364l-0.896 7.908 -4.278 0.318 1.668 -7.977 3.506 -0.261 0 0.012zm-5.571 8.26l-4.244 0.295 2.417 -8.011 3.507 -0.261 -1.668 7.977 -0.012 0zm-4.63 0.33l-4.244 0.295 3.155 -8.068 3.506 -0.227 -2.417 8.011 0 -0.011zm0.295 0.351l4.278 -0.295 -1.668 7.943 -5.015 0.352 2.417 -8.011 -0.012 0.011zm2.894 8.011l5.083 -0.351 -0.93 7.908 -5.788 0.42 1.646 -7.977 -0.011 0zm4.504 7.909l5.822 -0.419 -0.159 7.852 -6.593 0.488 0.93 -7.921zm5.822 16.011l7.398 -0.545 0.544 7.819 -8.135 0.578 0.193 -7.852zm7.012 15.546l-0.386 0.034 0.874 -4.051 -0.489 4.017 0.001 0zm0.862 -4.119l-0.102 4.085 -0.386 0.034 0.488 -4.119zm-1.634 4.176l-0.351 0.034 1.191 -4.017 -0.84 3.983zm-0.748 0.068l-0.352 0.033 1.509 -3.926 -1.157 3.893zm-0.772 0.034l-0.352 0.034 1.805 -3.734 -1.453 3.7zm-0.771 0.057l-0.296 0.033 1.839 -3.245 -1.543 3.212zm0.226 0.363l0.386 -0.034 -3.154 8.068 -1.123 0.102 3.891 -8.136zm-2.508 8.385l1.192 -0.068 -2.417 8.011 -1.929 0.125 3.154 -8.068zm0.159 -0.386l3.155 -8.067 0.386 0 -2.417 8.011 -1.124 0.068 0 -0.012zm3.926 -8.101l0.42 -0.034 -1.668 7.943 -1.123 0.102 2.383 -8.011 -0.012 0zm0.806 -0.069l0.42 -0.033 -0.931 7.908 -1.157 0.102 1.668 -7.977zm0.806 -0.056l-0.034 0 0.419 -0.034 -0.158 7.875 -1.158 0.068 0.931 -7.909zm0.578 8.17l1.192 -0.068 0.544 7.784 -1.929 0.159 0.193 -7.875zm0.999 -8.273l7.364 -0.544 -0.159 7.875 -6.627 0.454 -0.578 -7.785zm7.557 7.66l6.592 -0.454 -0.931 7.909 -5.855 0.42 0.194 -7.875zm6.978 -0.488l-0.034 0 6.593 -0.488 -1.668 7.977 -5.821 0.42 0.93 -7.909zm6.945 -0.476l6.558 -0.488 -2.382 8.011 -5.856 0.42 1.668 -7.943 0.012 0zm6.978 -0.511l6.559 -0.454 -3.155 8.068 -5.82 0.386 2.416 -8.011 0 0.011zm-0.284 -0.363l-6.627 0.488 1.668 -7.977 7.364 -0.511 -2.417 8.012 0.012 -0.012zm-5.242 -7.841l-7.398 0.545 0.931 -7.909 8.136 -0.579 -1.669 7.943zm-6.4 -7.75l3.155 -8.068 7.364 -0.511 -2.383 8.011 -8.136 0.579 0 -0.011zm3.314 -8.465l3.154 -8.046 6.592 -0.488 -2.417 8.012 -7.33 0.51 0.001 0.012zm3.279 -8.432l3.154 -8.067 5.821 -0.42 -2.417 8.011 -6.559 0.488 0.001 -0.012zm3.313 -8.453l3.121 -8.068 5.049 -0.352 -2.382 8.012 -5.787 0.42 -0.001 -0.012zm2.894 -8.431l-5.016 0.351 3.892 -8.101 4.278 -0.318 -3.154 8.068zm-5.436 0.386l-4.958 0.351 4.629 -8.17 4.21 -0.295 -3.892 8.102 0.011 0.012zm-5.401 0.386l-2.666 0.193 3.892 -8.136 3.381 -0.227 -4.596 8.17 -0.011 0zm0.965 -8.295l-3.472 0.261 3.154 -8.068 4.21 -0.295 -3.892 8.102zm-0.579 -8.17l-4.278 0.295 2.417 -8.011 5.016 -0.352 -3.155 8.068zm-0.159 0.386l-3.12 8.067 -3.507 0.227 2.417 -8.011 4.21 -0.295 0 0.012zm-7.012 8.329l-3.54 0.261 1.667 -7.943 4.244 -0.318 -2.383 8.011 0.012 -0.011zm-3.892 0.294l-3.54 0.261 0.93 -7.908 4.278 -0.318 -1.668 7.977 0 -0.012zm-3.892 0.284l-3.54 0.227 0.193 -7.852 4.278 -0.295 -0.931 7.92zm-3.699 -7.977l-4.312 0.318 -0.545 -7.818 5.05 -0.352 -0.193 7.852zm-4.119 8.522l-4.278 0.295 0.193 -7.852 3.54 -0.262 0.545 7.819zm-4.244 -16.147l-2.734 0.193 0.93 -7.909 1.963 -0.125 -0.159 7.841zm-3.098 0.227l-2.7 0.193 1.645 -7.943 1.963 -0.159 -0.896 7.909 -0.012 0zm-3.086 0.227l-2.7 0.193 2.417 -8.012 1.963 -0.158 -1.668 7.977 -0.012 0zm-0.091 0.386l-1.645 7.943 -3.472 0.261 2.383 -8.011 2.734 -0.193zm-5.537 8.237l-3.439 0.227 3.155 -8.045 2.7 -0.193 -2.416 8.011zm-3.858 0.25l-3.438 0.261 3.892 -8.136 2.7 -0.193 -3.154 8.068zm-3.858 0.295l-3.404 0.227 4.629 -8.17 2.667 -0.193 -3.892 8.136zm0.227 0.352l3.506 -0.261 -3.154 8.068 -4.21 0.295 3.858 -8.102zm0.613 8.17l4.243 -0.295 -2.382 8.011 -5.016 0.352 3.155 -8.068zm2.121 8.079l5.084 -0.351 -1.668 7.943 -5.787 0.42 2.417 -8.012 -0.046 0zm3.7 7.943l5.855 -0.42 -0.931 7.909 -6.592 0.488 1.668 -7.977zm5.276 7.841l6.593 -0.488 -0.159 7.875 -7.364 0.511 0.93 -7.909 0 0.011zm6.4 7.75l-0.193 7.875 -8.136 0.578 0.93 -7.908 7.399 -0.545zm0.158 8.204l8.046 -0.544 -4.63 8.17 -7.296 0.51 3.892 -8.136 -0.012 0zm3.666 7.978l0.317 -0.035 -3.892 8.137 -1.066 0.068 4.629 -8.17 0.012 0zm-3.314 8.465l1.158 -0.102 -3.155 8.067 -1.895 0.125 3.892 -8.102 0 0.012zm-1.736 8.328l1.929 -0.125 -2.417 8.012 -2.666 0.193 3.154 -8.08zm2.349 -0.158l1.929 -0.159 -1.645 7.977 -2.701 0.193 2.417 -8.011zm0.091 -0.386l2.417 -8.012 1.191 -0.102 -1.667 7.977 -1.941 0.137zm3.96 -8.136l1.225 -0.068 -0.93 7.909 -1.929 0.124 1.645 -7.977 -0.011 0.012zm1.577 -0.102l1.191 -0.102 -0.158 7.852 -1.963 0.158 0.93 -7.908zm1.384 8.101l1.963 -0.124 0.545 7.818 -2.701 0.193 0.193 -7.887zm1.804 -8.328l6.559 -0.488 -0.158 7.874 -5.856 0.386 -0.545 -7.784 0 0.012zm6.752 7.727l5.787 -0.42 -0.896 7.909 -5.083 0.386 0.192 -7.875zm6.173 -0.42l5.821 -0.419 -1.668 7.943 -5.05 0.386 0.897 -7.91zm6.207 -0.454l5.787 -0.42 -2.417 8.012 -5.05 0.386 1.668 -7.977 0.012 -0.001zm6.172 -0.454l5.787 -0.419 -3.154 8.068 -5.016 0.351 2.383 -8.011 0 0.011zm6.218 -0.408l5.753 -0.42 -3.892 8.102 -5.015 0.351 3.154 -8.045 0 0.012zm5.946 -0.806l-5.821 0.42 3.154 -8.068 6.559 -0.488 -3.892 8.136zm-2.927 -8.011l-6.593 0.454 2.417 -8.012 7.33 -0.51 -3.154 8.068zm-4.471 -7.909l-7.364 0.545 1.645 -7.977 8.136 -0.579 -2.417 8.011zm-5.628 -7.818l2.417 -8.012 7.364 -0.51 -1.645 7.943 -8.136 0.579zm2.508 -8.397l2.417 -8.011 6.592 -0.488 -1.645 7.977 -7.364 0.511 0 0.011zm2.541 -8.397l2.383 -8.011 5.855 -0.42 -1.668 7.977 -6.57 0.454zm2.508 -8.397l2.417 -8.011 5.049 -0.352 -1.668 7.943 -5.798 0.42zm2.122 -8.363l-5.016 0.352 3.155 -8.068 4.277 -0.295 -2.416 8.011zm-2.122 -8.068l-4.21 0.295 3.892 -8.102 3.472 -0.261 -3.154 8.068zm-4.63 0.318l-4.187 0.318 4.63 -8.204 3.438 -0.227 -3.892 8.102 0.011 0.011zm-4.663 0.352l-3.404 0.227 3.891 -8.102 4.154 -0.295 -4.63 8.17 -0.011 0zm0.227 -8.227l-4.244 0.295 3.12 -8.068 5.016 -0.351 -3.892 8.136 0 -0.012zm-1.35 -8.147l-5.05 0.351 2.417 -8.011 5.753 -0.42 -3.12 8.08zm-5.47 0.386l-5.049 0.385 1.668 -7.976 5.787 -0.421 -2.417 8.012 0.011 0zm-0.102 0.385l-2.417 8.012 -4.278 0.318 1.668 -7.977 5.027 -0.353zm-7.069 8.363l-4.278 0.296 0.931 -7.909 5.015 -0.352 -1.668 7.977 0 -0.012zm-4.664 0.329l-4.311 0.295 0.193 -7.852 5.049 -0.351 -0.931 7.908zm-4.47 -7.92l-5.084 0.386 -0.544 -7.818 5.82 -0.42 -0.192 7.852zm-4.891 8.59l-3.506 0.227 0.193 -7.853 2.769 -0.193 0.544 7.819zm-3.472 -16.204l-1.929 0.158 0.896 -7.908 1.226 -0.102 -0.193 7.852zm-2.315 0.193l-1.929 0.125 1.668 -7.977 1.192 -0.069 -0.931 7.921zm-2.326 0.159l-1.929 0.125 2.417 -8.012 1.192 -0.102 -1.68 7.989zm-2.315 0.159l-1.895 0.124 3.12 -8.068 1.192 -0.068 -2.417 8.012zm-0.125 0.386l-2.382 8.011 -2.701 0.193 3.154 -8.068 1.929 -0.125 0 -0.011zm-5.469 8.237l-2.666 0.193 3.891 -8.136 1.896 -0.125 -3.121 8.068zm-3.12 0.193l-2.61 0.193 4.63 -8.17 1.86 -0.125 -3.892 8.102 0.012 0zm-3.087 0.227l-4.981 0.352 3.892 -8.102 5.73 -0.42 -4.629 8.17 -0.012 0zm-5.401 0.386l-5.015 0.352 3.154 -8.068 5.753 -0.386 -3.892 8.102zm-5.435 0.386l-5.049 0.351 2.417 -8.011 5.787 -0.42 -3.155 8.08zm0.25 0.352l4.981 -0.352 -3.858 8.136 -4.278 0.295 3.155 -8.079zm5.435 -0.386l4.958 -0.352 -4.629 8.17 -4.21 0.318 3.892 -8.136 -0.011 0zm0.556 8.17l3.438 -0.227 -3.892 8.102 -4.153 0.318 4.596 -8.204 0.011 0.011zm-0.193 8.261l4.244 -0.318 -3.155 8.068 -4.981 0.352 3.892 -8.102zm1.35 8.113l5.05 -0.352 -2.417 8.011 -5.787 0.42 3.154 -8.079zm2.928 8l5.821 -0.42 -1.645 7.977 -6.593 0.454 2.417 -8.011zm4.471 7.92l6.626 -0.488 -0.93 7.909 -7.364 0.511 1.668 -7.943 0 0.011zm5.662 7.818l-0.931 7.909 -8.136 0.545 1.668 -7.944 7.398 -0.51 0.001 0zm-0.613 8.227l8.102 -0.578 -3.892 8.136 -7.364 0.511 3.154 -8.069zm4.437 7.921l7.273 -0.511 -4.596 8.17 -6.558 0.454 3.892 -8.102 -0.011 -0.011zm2.439 8.033l-4.63 8.17 -5.752 0.42 3.892 -8.136 6.502 -0.454 -0.012 0zm0.454 -0.033l1.123 -0.069 -3.891 8.102 -1.839 0.125 4.596 -8.17 0.011 0.012zm-2.542 8.396l1.929 -0.124 -3.154 8.067 -2.667 0.193 3.892 -8.136zm-0.964 8.306l2.734 -0.193 -2.417 8.012 -3.438 0.226 3.121 -8.045zm3.12 -0.227l2.735 -0.193 -1.668 7.944 -3.472 0.261 2.417 -8.012 -0.012 0zm3.121 -0.226l2.734 -0.193 -0.93 7.908 -3.473 0.227 1.669 -7.942zm0.068 -0.386l1.668 -7.944 1.963 -0.158 -0.931 7.909 -2.7 0.193zm4.017 -8.136l1.962 -0.125 -0.193 7.852 -2.7 0.193 0.931 -7.92zm2.155 8.068l2.735 -0.193 0.578 7.818 -3.506 0.227 0.193 -7.852zm2.576 -8.397l5.787 -0.421 -0.158 7.853 -5.084 0.386 -0.545 -7.818zm5.98 7.784l5.016 -0.352 -0.897 7.909 -4.311 0.318 0.192 -7.875zm5.401 -0.386l5.05 -0.352 -1.668 7.977 -4.278 0.295 0.896 -7.92zm5.401 -0.385l5.05 -0.352 -2.417 8.011 -4.278 0.318 1.645 -7.977zm5.436 -0.386l5.015 -0.352 -3.154 8.068 -4.278 0.317 2.417 -8.045 0 0.012zm5.412 -0.386l5.016 -0.352 -3.892 8.136 -4.278 0.295 3.154 -8.079zm5.435 -0.386l4.959 -0.352 -4.63 8.204 -4.209 0.295 3.891 -8.136 -0.011 -0.011zm5.401 -0.386l2.667 -0.193 -3.892 8.136 -3.404 0.227 4.629 -8.17zm3.087 -0.193l2.7 -0.193 -3.154 8.046 -3.438 0.261 3.892 -8.114zm3.12 -0.227l2.701 -0.193 -2.383 8.011 -3.472 0.262 3.154 -8.08zm3.121 -0.215l2.7 -0.193 -1.645 7.943 -3.472 0.261 2.417 -8.011zm0.091 -0.397l2.417 -8.012 1.963 -0.159 -1.668 7.978 -2.712 0.193zm-0.386 0.033l-2.667 0.193 3.12 -8.067 1.963 -0.125 -2.417 8.011 0.001 -0.012zm0.193 -8.226l-1.895 0.125 3.891 -8.102 1.158 -0.102 -3.154 8.079zm-2.315 0.159l-1.838 0.124 4.629 -8.17 1.09 -0.068 -3.893 8.102 0.012 0.012zm-2.315 0.159l-5.753 0.42 3.892 -8.137 6.502 -0.453 -4.629 8.17 -0.012 0zm-2.088 -8.068l-6.593 0.488 3.155 -8.068c2.439,-0.159 4.891,-0.352 7.296,-0.511l-3.858 8.102 0 -0.011zm-3.699 -7.955l-7.364 0.511 2.383 -8.011 8.136 -0.579 -3.155 8.079zm-4.925 -7.841l1.668 -7.977 7.399 -0.51 -0.931 7.909 -8.136 0.578zm1.771 -8.363l1.645 -7.943 6.627 -0.488 -0.931 7.909 -7.341 0.522zm1.736 -8.328l1.645 -7.977 5.855 -0.421 -0.93 7.909 -6.57 0.489zm1.736 -8.341l1.668 -7.977 5.049 -0.351 -0.896 7.909 -5.821 0.419zm1.384 -8.329l-5.015 0.352 2.382 -8.011 4.278 -0.295 -1.645 7.954zm-2.928 -8.011l-4.21 0.296 3.155 -8.069 3.472 -0.226 -2.417 8.011 0 -0.012zm-1.316 -8.136l-3.438 0.262 3.892 -8.137 2.667 -0.158 -3.121 8.045 0 -0.012zm-3.892 0.295l-3.381 0.227 4.595 -8.17 2.667 -0.193 -3.892 8.136 0.011 0zm-3.858 0.25l-4.209 0.318 3.892 -8.137 4.958 -0.351 -4.63 8.17 -0.011 0zm-0.578 -8.17l-5.016 0.351 3.154 -8.045 5.753 -0.42 -3.891 8.114zm-2.122 -8.034l-5.821 0.386 2.417 -8.011 6.558 -0.454 -3.154 8.079zm-6.207 0.42l-5.821 0.419 1.645 -7.942 6.593 -0.489 -2.417 8.012zm-6.207 0.442l-5.855 0.42 0.931 -7.909 6.558 -0.488 -1.645 7.977 0.011 0zm-0.102 0.386l-1.668 7.943 -5.049 0.386 0.931 -7.909 5.786 -0.42zm-7.103 8.329l-5.083 0.386 0.193 -7.875 5.821 -0.42 -0.931 7.909zm-5.243 -7.807l-5.855 0.386 -0.544 -7.784 6.592 -0.488 -0.193 7.886zm-5.662 8.613l-2.734 0.193 0.193 -7.875 1.963 -0.125 0.578 7.818 0 -0.011zm-2.7 -16.238l-1.158 0.068 0.931 -7.909 0.42 -0.034 -0.193 7.875zm-1.543 0.091l-1.158 0.102 1.668 -7.977 0.42 -0.034 -0.93 7.909zm-1.555 0.102l-1.123 0.102 2.417 -8.011 0.386 -0.034 -1.668 7.943 -0.012 0zm-1.543 0.125l-1.123 0.068 3.154 -8.068 0.386 0 -2.417 8.011 0 -0.011zm-1.509 0.102l-1.123 0.102 3.892 -8.136 0.351 -0.034 -3.12 8.068zm-0.159 0.386l-3.154 8.068 -1.895 0.124 3.892 -8.101 1.157 -0.102 0 0.011zm-5.469 8.226l-1.838 0.125 4.629 -8.17 1.089 -0.102 -3.892 8.136 0.012 0.011zm-2.315 0.171l-5.753 0.419 3.892 -8.136 6.502 -0.453 -4.63 8.17 -0.011 0zm-6.172 0.442l-5.822 0.42 3.155 -8.068 6.559 -0.488 -3.892 8.136zm-6.207 0.454l-5.821 0.386 2.382 -8.011 6.559 -0.454 -3.12 8.079zm-13.798 9.168l1.668 -7.943 5.787 -0.42 -2.417 8.012 -5.05 0.351 0.012 0zm2.927 8.012l2.417 -8.012 4.981 -0.351 -3.12 8.068 -4.278 0.295zm4.857 7.875l-3.472 0.261 3.154 -8.068 4.21 -0.295 -3.892 8.102zm0.408 -0.034l3.892 -8.102 4.175 -0.318 -4.629 8.204 -3.438 0.227 0 -0.011zm-0.93 8.306l4.629 -8.17 4.21 -0.295 -3.892 8.101 -4.958 0.352 0.011 0.012zm1.293 8.136l3.892 -8.136 5.016 -0.352 -3.121 8.068 -5.787 0.42zm2.894 8.011l3.154 -8.068 5.821 -0.42 -2.417 8.011 -6.559 0.488 0.001 -0.011zm6.853 -0.136l6.593 -0.488 -1.668 7.977 -7.33 0.51 2.417 -8.011 -0.012 0.012zm-4.924 16.408l2.383 -8.011 7.398 -0.511 -1.668 7.943 -8.113 0.579zm6.014 7.784l2.417 -8.011 8.101 -0.579 -3.154 8.068 -7.364 0.511 0 0.011zm7.625 -0.159l7.33 -0.511 -3.892 8.102 -6.558 0.488 3.12 -8.079zm-6.434 16.533l3.154 -8.068 6.525 -0.488 -3.892 8.136 -5.787 0.42zm7.137 7.682l-4.981 0.352 3.892 -8.102 5.73 -0.42 -4.63 8.17 -0.011 0zm0.454 -0.034l4.63 -8.17 1.895 -0.125 -3.892 8.136 -2.633 0.159zm-0.999 8.306l3.892 -8.136 2.701 -0.193 -3.154 8.068 -3.439 0.261zm4.789 7.875l-4.243 0.296 3.154 -8.069 3.506 -0.226 -2.417 8.011 0 -0.012zm4.63 -0.318l-4.244 0.296 2.417 -8.012 3.506 -0.261 -1.667 7.977 -0.012 0zm4.64 -0.351l-4.243 0.318 1.668 -7.977 3.506 -0.262 -0.931 7.921zm4.664 -0.33l-4.278 0.318 0.931 -7.909 3.506 -0.261 -0.159 7.852zm0.193 -8.226l-3.506 0.261 0.93 -7.909 2.734 -0.193 -0.158 7.841zm0.159 8.193l0.193 -7.853 3.506 -0.261 0.579 7.819 -4.278 0.295zm8.204 -0.579l-3.541 0.261 -0.544 -7.818 4.243 -0.295 -0.158 7.852zm0.193 -8.227l-4.312 0.318 -0.545 -7.818 5.016 -0.352 -0.159 7.852zm3.699 7.978l-3.541 0.226 0.193 -7.852 4.244 -0.295 -0.896 7.921zm3.892 -0.296l-3.54 0.262 0.93 -7.909 4.244 -0.318 -1.645 7.977 0.011 -0.012zm3.858 -0.283l-3.507 0.261 1.668 -7.943 4.243 -0.318 -2.417 8.011 0.013 -0.011zm0.419 0l2.417 -8.046 4.21 -0.295 -3.154 8.068 -3.472 0.261 -0.001 0.012zm7.365 -0.545l-3.472 0.261 3.154 -8.068 4.21 -0.295 -3.892 8.102zm3.858 -0.261l-3.439 0.227 3.892 -8.102 4.187 -0.295 -4.629 8.17 -0.011 0zm4.663 -0.352l-4.187 0.318 4.63 -8.204 3.438 -0.227 -3.892 8.102 0.011 0.011zm4.63 -0.329l-4.21 0.295 3.892 -8.102 3.472 -0.261 -3.154 8.068zm4.629 -0.318l-4.209 0.295 3.12 -8.068 3.506 -0.227 -2.417 8.012 0 -0.012zm4.664 -0.317l-4.244 0.295 2.383 -8.011 3.506 -0.262 -1.645 7.978zm4.641 -0.363l-4.278 0.317 1.668 -7.977 3.506 -0.261 -0.896 7.921zm0.964 -8.261l-3.472 0.227 1.645 -7.944 2.769 -0.193 -0.931 7.909 -0.011 0.001zm1.895 -16.215l-0.931 7.908 -2.7 0.193 1.645 -7.943 1.997 -0.158 -0.011 0zm-1.804 -8.069l1.191 -0.101 -1.668 7.977 -1.895 0.124 2.383 -8.011 -0.011 0.011zm-0.386 0.035l-2.417 8.011 -1.895 0.125 3.154 -8.068 1.158 -0.068zm1.35 -8.34l0.352 -0.034 -3.12 8.068 -1.124 0.102 3.892 -8.136zm-0.771 0.068l0.351 -0.034 -3.892 8.136 -1.066 0.068 4.596 -8.17 0.011 0zm-0.454 0.034l-4.63 8.17 -6.524 0.453 3.892 -8.102 7.273 -0.51 -0.011 -0.011zm-7.523 0.158l-7.364 0.511 3.154 -8.068 8.102 -0.578 -3.892 8.135zm3.994 -8.487l-8.136 0.578 0.93 -7.908 7.399 -0.545 -0.193 7.875zm0.193 -8.238l-7.364 0.511 0.931 -7.909 6.626 -0.454 -0.193 7.852 0 0zm0.193 -8.238l-6.593 0.488 0.931 -7.909 5.855 -0.42 -0.193 7.852 0 -0.011zm0.386 -16.079l-0.193 7.852 -5.821 0.42 0.931 -7.909 5.083 -0.352 0 -0.011zm-5.413 0l-5.049 0.351 1.668 -7.943 4.277 -0.317 -0.896 7.909zm1.907 -16.216l-0.931 7.909 -4.244 0.318 1.645 -7.977 3.541 -0.261 -0.011 0.011zm-4.891 -7.841l2.734 -0.193 -1.668 7.944 -3.472 0.261 2.417 -8.012 -0.011 0zm-0.386 0.034l-2.417 8.012 -3.472 0.226 3.154 -8.045 2.735 -0.193zm-1.77 -8.113l1.929 -0.124 -3.154 8.067 -2.667 0.193 3.892 -8.136zm-2.315 0.171l1.895 -0.125 -3.891 8.136 -2.633 0.159 4.629 -8.17zm-0.454 0.022l-4.63 8.17 -4.981 0.351 3.892 -8.101 5.73 -0.42 -0.011 0zm-2.088 -8.068l-3.891 8.137 -5.821 0.419 3.154 -8.068 6.558 -0.488zm-11.006 -7.432l7.33 -0.511 -3.12 8.068 -6.627 0.453 2.417 -8.01zm-7.75 0.544l7.364 -0.511 -2.417 8.012 -6.627 0.488 1.68 -7.989zm-7.716 0.545l7.33 -0.511 -1.645 7.977 -6.627 0.454 0.942 -7.92zm-7.75 0.556l7.364 -0.51 -0.93 7.908 -6.593 0.488 0.159 -7.886zm-0.193 8.227l6.593 -0.454 -0.931 7.909 -5.855 0.42 0.193 -7.875zm-0.159 -8.204l-0.193 7.875 -6.626 0.453 -0.545 -7.784 7.364 -0.544zm-8.113 -3.892l0.318 4.085 -0.42 0.034 0.102 -4.119zm-0.091 4.471l0.42 -0.035 0.545 7.819 -1.157 0.102 0.192 -7.886zm0.999 8.17l0.579 7.784 -1.963 0.158 0.193 -7.875 1.191 -0.067zm-1.35 -8.488l-0.386 0.034 0.488 -4.119 -0.102 4.085zm-0.772 0.034l-0.351 0.034 0.839 -4.085 -0.488 4.051zm-0.749 0.068l-0.386 0.033 1.192 -4.016 -0.806 3.983zm-0.772 0.057l-0.351 0.034 1.509 -3.927 -1.158 3.893zm-0.771 0.034l-0.352 0.034 1.804 -3.734 -1.452 3.7zm0.771 -3.155l-1.542 3.212 -0.296 0.033 1.838 -3.245zm-2.053 3.643l0.351 -0.034 -3.892 8.136 -1.089 0.068 4.63 -8.17zm-7.716 0.544l7.274 -0.51 -4.63 8.17 -6.525 0.453 3.892 -8.101 -0.011 -0.012zm-7.762 0.545l7.297 -0.511 -3.892 8.102 -6.559 0.488 3.154 -8.079zm-7.749 0.545l7.33 -0.511 -3.154 8.068 -6.593 0.454 2.417 -8.011zm-7.75 0.544l7.364 -0.51 -2.417 8.011 -6.627 0.488 1.68 -7.989zm99.138 132.366l-0.034 0.102 -0.034 0.034 0 0.068 -0.034 0.034 -0.022 0.09 0.51 -0.034c0.08,-0.113 0.137,-0.261 0.205,-0.397l-0.579 0.046c0,0 0,0.056 -0.011,0.079l-0.001 -0.022z"/>
   </g>
  </g>
  <path fill="none" d="M91.234 163.341c0.06,-0.29 0.117,-0.718 0.209,-2.252 0.091,-1.534 0.216,-4.174 0.518,-9.369 0.303,-5.195 0.782,-12.944 1.164,-18.604 0.382,-5.659 0.667,-9.229 1.038,-13.175 0.37,-3.946 0.826,-8.268 1.397,-12.773 0.57,-4.505 1.254,-9.192 2.132,-14.518 0.879,-5.326 1.95,-11.291 2.766,-15.197 0.815,-3.906 1.374,-5.753 1.733,-6.921 0.358,-1.167 0.516,-1.655 0.64,-1.921 0.123,-0.267 0.212,-0.313 0.296,-0.305 0.084,0.008 0.164,0.069 0.266,0.183 0.103,0.113 0.228,0.278 0.391,0.627 0.163,0.349 0.362,0.88 0.684,1.602 0.321,0.721 0.764,1.632 1.146,2.525 0.381,0.893 0.7,1.768 0.836,2.443 0.135,0.674 0.087,1.147 0.127,1.679 0.04,0.532 0.168,1.122 0.504,1.619 0.337,0.498 0.881,0.903 1.195,1.44 0.314,0.538 0.396,1.208 0.602,2.158 0.205,0.951 0.533,2.183 0.646,3.113 0.112,0.929 0.009,1.556 -0.098,2.148 -0.106,0.591 -0.218,1.148 -0.101,1.705 0.117,0.557 0.462,1.116 0.865,1.635 0.404,0.519 0.866,0.998 1.149,1.313 0.284,0.315 0.39,0.466 0.491,0.609 0.101,0.142 0.198,0.276 0.351,0.879 0.152,0.603 0.36,1.675 0.439,2.419 0.078,0.745 0.027,1.161 -0.003,1.576 -0.03,0.415 -0.039,0.828 -0.073,1.354 -0.034,0.526 -0.094,1.165 -0.085,1.751 0.008,0.586 0.085,1.119 0.46,1.91 0.375,0.791 1.048,1.84 1.685,2.689 0.637,0.848 1.239,1.495 1.643,1.902 0.404,0.407 0.611,0.574 0.797,0.87 0.186,0.296 0.351,0.72 0.488,1.263 0.137,0.544 0.246,1.205 0.304,1.972 0.058,0.767 0.067,1.64 0.054,2.608 -0.013,0.968 -0.047,2.031 0.15,2.999 0.197,0.968 0.624,1.84 1.101,2.577 0.476,0.738 1,1.339 1.389,1.826 0.39,0.488 0.644,0.862 0.856,1.23 0.213,0.367 0.384,0.729 0.555,1.154 0.171,0.425 0.342,0.913 0.472,1.479 0.13,0.566 0.218,1.21 0.339,1.795 0.121,0.584 0.275,1.108 0.375,1.699 0.1,0.59 0.145,1.246 0.32,2.204 0.174,0.958 0.476,2.218 0.678,3.273 0.203,1.055 0.305,1.904 0.416,2.657 0.112,0.753 0.231,1.409 0.325,2.284 0.094,0.875 0.163,1.97 0.294,2.774 0.131,0.804 0.325,1.317 0.465,2.09 0.14,0.772 0.225,1.805 0.299,2.412 0.074,0.607 0.137,0.79 0.288,0.952 0.104,0.112 0.251,0.215 0.437,0.32 -0.079,-0.368 -0.154,-0.732 -0.127,-0.999 0.028,-0.278 0.168,-0.45 0.332,-0.556 0.164,-0.105 0.352,-0.145 0.75,-0.063 0.398,0.082 1.007,0.284 1.729,0.399 0.723,0.115 1.56,0.144 2.868,0.151 1.309,0.007 3.089,-0.007 5.568,-0.327 2.479,-0.319 5.657,-0.943 8.788,-1.599 3.132,-0.656 6.217,-1.344 9.657,-2.107 3.44,-0.762 7.234,-1.599 10.248,-2.124 3.014,-0.525 5.249,-0.737 8.16,-0.854 2.912,-0.118 6.502,-0.139 10.137,0.024 3.635,0.163 7.316,0.511 9.976,0.862 2.66,0.351 4.298,0.706 5.688,1.227 1.391,0.522 2.533,1.21 3.226,1.734 0.693,0.524 0.938,0.884 1.054,1.193 0.116,0.309 0.104,0.568 -0.007,0.887 -0.11,0.319 -0.318,0.698 -0.526,1.077 0.192,-0.063 0.354,-0.202 0.566,-0.399 0.232,-0.218 0.523,-0.509 0.64,-0.957 0.116,-0.447 0.059,-1.052 0.065,-2.577 0.006,-1.525 0.074,-3.972 0.052,-6.694 -0.023,-2.724 -0.137,-5.723 -0.194,-7.553 -0.057,-1.831 -0.057,-2.492 -0.057,-3.427 0,-0.936 0,-2.144 -0.029,-3.276 -0.028,-1.132 -0.085,-2.187 -0.111,-3.279 -0.025,-1.092 -0.02,-2.221 -0.091,-4.009 -0.072,-1.787 -0.22,-4.234 -0.3,-6.212 -0.079,-1.979 -0.091,-3.49 -0.231,-7.51 -0.139,-4.02 -0.407,-10.55 -0.929,-16.996 -0.522,-6.446 -1.297,-12.81 -2.278,-18.854 -0.981,-6.045 -2.167,-11.77 -3.341,-17.21 -1.175,-5.44 -2.338,-10.594 -3.867,-15.864 -1.528,-5.268 -3.421,-10.651 -5.246,-15.498 -1.824,-4.847 -3.581,-9.158 -4.618,-11.657 -1.038,-2.499 -1.357,-3.186 -1.494,-3.631 -0.137,-0.445 -0.092,-0.647 0.009,-0.803 0.102,-0.155 0.258,-0.263 0.386,-0.349 0.014,-0.01 0.028,-0.019 0.041,-0.029 -0.042,-0.002 -0.088,-0.005 -0.144,-0.008 -0.105,-0.005 -0.243,-0.013 -0.693,-0.048 -0.449,-0.035 -1.21,-0.098 -2.217,-0.107 -1.008,-0.008 -2.262,0.038 -3.577,0.132 -1.316,0.095 -2.692,0.24 -4.839,0.609 -2.148,0.368 -5.068,0.962 -7.478,1.498 -2.41,0.535 -4.311,1.014 -6.805,1.509 -2.494,0.494 -5.581,1.003 -8.679,1.418 -3.098,0.414 -6.208,0.733 -9.971,1.076 -3.764,0.341 -8.181,0.707 -11.872,0.965 -3.692,0.259 -6.657,0.41 -9.367,0.559 -2.711,0.148 -5.167,0.292 -7.957,0.403 -2.79,0.11 -5.915,0.186 -9.017,0.251 -3.102,0.064 -6.181,0.117 -9.116,0.11 -2.935,-0.008 -5.725,-0.076 -8.341,-0.137 -2.615,-0.061 -5.056,-0.114 -7.698,-0.194 -2.642,-0.08 -5.486,-0.186 -8.975,-0.285 -3.49,-0.099 -7.626,-0.19 -12.01,-0.217 -4.383,-0.026 -9.013,0.012 -12.845,0.008 -3.832,-0.004 -6.865,-0.049 -10.876,-0.205 -4.011,-0.156 -8.998,-0.422 -12.585,-0.69 -3.587,-0.268 -5.773,-0.538 -7.362,-0.856 -1.59,-0.318 -2.583,-0.683 -3.577,-1.049 0.044,0.064 0.021,0.188 -0.027,0.625 -0.062,0.551 -0.164,1.597 -0.449,3.521 -0.286,1.925 -0.753,4.728 -1.058,6.779 -0.305,2.052 -0.448,3.352 -0.79,5.493 -0.342,2.141 -0.884,5.124 -1.32,7.752 -0.436,2.629 -0.767,4.904 -1.029,6.823 -0.263,1.919 -0.457,3.481 -0.636,5.294 -0.18,1.814 -0.345,3.878 -0.525,6.376 -0.18,2.497 -0.373,5.428 -0.567,8.701 -0.194,3.273 -0.388,6.888 -0.53,10.743 -0.143,3.855 -0.234,7.949 -0.206,12.14 0.029,4.192 0.177,8.48 0.468,12.648 0.291,4.169 0.724,8.217 1.009,11.855 0.285,3.638 0.422,6.865 0.485,10.435 0.063,3.57 0.051,7.481 0.091,11.969 0.04,4.488 0.131,9.552 0.223,13.777 0.091,4.225 0.182,7.612 0.266,9.945 0.084,2.332 0.162,3.609 0.193,4.373 0.031,0.764 0.017,1.015 0.027,2.23 0.01,1.214 0.044,3.393 0.078,4.946 0.035,1.554 0.069,2.484 0.137,3.037 0.068,0.553 0.171,0.73 0.482,1.055 0.311,0.325 0.83,0.798 2.632,1.177 1.802,0.38 4.886,0.665 7.829,0.918 2.942,0.254 5.742,0.476 10.492,0.73 4.75,0.254 11.451,0.539 16.4,0.753 4.95,0.214 8.149,0.356 10.954,0.382 2.806,0.026 5.218,-0.066 7.656,-0.143 2.438,-0.077 4.901,-0.139 7.25,-0.216 2.35,-0.077 4.585,-0.168 7.735,-0.565 3.151,-0.396 7.217,-1.098 9.757,-1.616 2.54,-0.519 3.556,-0.856 4.448,-1.309 0.892,-0.453 1.662,-1.024 2.078,-1.386 0.417,-0.362 0.479,-0.516 0.539,-0.807z"/>
 </g>
</svg>
