<?xml version="1.0" encoding="UTF-8"?>
<!DOCTYPE svg PUBLIC "-//W3C//DTD SVG 1.1//EN" "http://www.w3.org/Graphics/SVG/1.1/DTD/svg11.dtd">
<!-- Creator: CorelDRAW -->
<svg xmlns="http://www.w3.org/2000/svg" xml:space="preserve" width="238px" height="298px" version="1.1" shape-rendering="geometricPrecision" text-rendering="geometricPrecision" image-rendering="optimizeQuality" fill-rule="evenodd" clip-rule="evenodd"
viewBox="0 0 238 298.123"
 xmlns:xlink="http://www.w3.org/1999/xlink"
 xmlns:xodm="http://www.corel.com/coreldraw/odm/2003">
 <defs>
   <clipPath id="id0">
    <path d="M207.298 27.894c-0.11,-0.063 -0.222,-0.122 -0.337,-0.177 -4.975,-2.38 -9.714,-5.334 -14.858,-7.149 -4.647,-1.639 -11.454,-2.699 -17.288,-4.719 -2.277,-0.789 -4.556,-1.589 -6.82,-2.415l-0.004 -0.03 -9.999 -4.08 -0.175 -0.072c-0.614,-0.28 -1.553,-1.207 -2.512,-1.889 -0.494,-0.369 -0.613,-0.563 -1.038,-0.905 -2.856,-2.299 -5.606,-5.635 -9.574,-5.641 -0.901,-0.002 -1.04,-0.123 -1.779,-0.163l-7.601 -0.17c-5.892,-0.486 -12.055,-0.501 -18.06,-0.477 -5.087,0.02 -9.557,0.063 -14.567,0.477 -2.529,0.209 -4.996,0.029 -7.6,0.17 -0.739,0.04 -0.878,0.161 -1.779,0.163 -3.968,0.006 -6.718,3.342 -9.575,5.641 -0.424,0.342 -0.543,0.536 -1.037,0.905 -0.741,0.527 -1.471,1.2 -2.047,1.608 -0.17,0.121 -0.326,0.218 -0.465,0.281l-10.174 4.152 -0.003 0.03c-2.265,0.826 -4.544,1.626 -6.821,2.415 -5.834,2.02 -12.641,3.08 -17.288,4.719 -5.144,1.815 -9.883,4.769 -14.858,7.149 -0.212,0.101 -0.412,0.215 -0.605,0.339 -0.909,0.583 -1.664,1.379 -2.651,2.001 -11.263,7.099 -18.243,27.467 -21.401,39.215 -1.569,5.839 -1.98,12.983 -2.969,19.04 -0.5,3.067 -1.172,6.193 -1.752,9.253 -0.585,3.095 -0.872,6.493 -1.288,9.631 -0.406,0.268 -0.327,-0.023 -0.308,0.899l-0.065 1.854 0 8.783c0.041,1.018 0.102,1.813 0.186,2.164 1.125,0.477 3.706,0.514 5.07,0.712 7.662,1.114 9.041,0.828 15.791,1.554l21.547 1.349c-0.015,-1.623 0.547,-10.725 0.578,-13.424l-0.603 -0.316 -0.07 -0.036c0,-4.476 -0.011,-9.226 -0.011,-13.7 1.678,4.247 3.328,18.944 3.789,24.023 0.735,8.116 1.826,16.186 2.512,24.347 0.348,4.137 0.874,8.269 1.009,12.419l0.653 12.776c0.396,4.199 0.208,8.934 0.274,13.179 0.032,2.062 0.194,4.007 0.186,6.13 -0.007,2.226 -0.172,4.349 -0.196,6.512 -0.051,4.469 -0.054,8.634 -0.319,13.111 -0.68,11.475 -1.257,26.076 -3.267,37.02 -0.966,5.407 -2.177,11.944 -2.754,17.389 -0.258,2.432 -0.827,10.057 -1.468,11.951 -0.68,2.01 -0.163,3.658 -0.568,5.77 -0.342,1.785 -0.742,3.812 -1.164,5.568 -0.463,1.93 -1.435,3.647 0.397,4.966 4.276,1.054 8.552,2.108 13.913,3.017 5.36,0.909 11.804,1.672 18.03,2.048 6.226,0.375 12.232,0.363 21.568,0.476 9.335,0.112 21.999,0.351 32.523,0.382 10.525,0.032 18.909,-0.144 26.242,-0.419 7.333,-0.275 13.615,-0.65 19.058,-1.151 5.443,-0.501 10.048,-1.126 13.829,-1.873 3.78,-0.746 6.736,-1.613 9.693,-2.48 1.832,-1.319 0.86,-3.036 0.397,-4.966 -0.422,-1.756 -0.822,-3.783 -1.164,-5.568 -0.405,-2.112 0.112,-3.76 -0.568,-5.77 -0.641,-1.894 -1.21,-9.519 -1.468,-11.951 -0.577,-5.445 -1.788,-11.982 -2.754,-17.389 -2.01,-10.944 -2.587,-25.545 -3.267,-37.02 -0.265,-4.477 -0.268,-8.642 -0.319,-13.111 -0.024,-2.163 -0.189,-4.286 -0.196,-6.512 -0.008,-2.123 0.154,-4.068 0.186,-6.13 0.066,-4.245 -0.122,-8.98 0.274,-13.179l0.653 -12.776c0.135,-4.15 0.661,-8.282 1.009,-12.419 0.686,-8.161 1.777,-16.231 2.512,-24.347 0.461,-5.079 1.889,-19.043 3.568,-23.29 0,4.474 -0.105,8.584 -0.105,13.06l0 0 -0.416 0.247c-0.004,0.882 0.338,12.091 0.604,13.423l21.579 -1.336c6.75,-0.726 8.129,-0.44 15.791,-1.554 1.364,-0.198 3.945,-0.235 5.07,-0.712 0.084,-0.351 0.145,-1.146 0.186,-2.164l0 -8.783 -0.065 -1.854c0.014,-0.687 0.062,-0.7 -0.083,-0.774 -0.05,-0.025 -0.122,-0.057 -0.225,-0.125 -0.416,-3.138 -0.703,-6.536 -1.288,-9.631 -0.58,-3.06 -1.252,-6.186 -1.752,-9.253 -0.989,-6.057 -1.4,-13.201 -2.969,-19.04 -3.158,-11.748 -10.138,-32.116 -21.401,-39.215 -1.057,-0.665 -1.895,-1.576 -2.919,-2.163z"/>
   </clipPath>
    <clipPath id="id1">
     <path d="M195.291 97.768c-0.085,-0.928 -0.17,-1.856 -0.308,-2.718 -0.137,-0.863 -0.329,-1.661 -0.099,-3.18 0.23,-1.519 0.881,-3.758 1.681,-6.311 0.801,-2.553 1.752,-5.418 2.565,-9.742 0.813,-4.323 1.489,-10.104 2.278,-15.986 0.788,-5.881 1.689,-11.863 2.652,-16.318 0.964,-4.454 1.99,-7.383 2.541,-9.31 0.55,-1.927 0.626,-2.853 0.663,-4.067 0.021,-0.674 0.03,-1.438 0.034,-2.242 -0.11,-0.063 -0.222,-0.122 -0.337,-0.177 -4.975,-2.38 -9.714,-5.334 -14.858,-7.149 -4.647,-1.639 -11.454,-2.699 -17.288,-4.719 -2.277,-0.789 -4.556,-1.589 -6.82,-2.415l-0.004 -0.03 -9.999 -4.08 -0.175 -0.072c-0.614,-0.28 -1.553,-1.207 -2.512,-1.889 -0.494,-0.369 -0.613,-0.563 -1.038,-0.905 -2.856,-2.299 -5.606,-5.635 -9.574,-5.641 -0.901,-0.002 -1.04,-0.123 -1.779,-0.163l-7.601 -0.17c-5.892,-0.486 -12.055,-0.501 -18.06,-0.477 -5.087,0.02 -9.557,0.063 -14.567,0.477 -2.529,0.209 -4.996,0.029 -7.6,0.17 -0.739,0.04 -0.878,0.161 -1.779,0.163 -3.968,0.006 -6.718,3.342 -9.575,5.641 -0.424,0.342 -0.543,0.536 -1.037,0.905 -0.741,0.527 -1.471,1.2 -2.047,1.608 -0.17,0.121 -0.326,0.218 -0.465,0.281l-10.174 4.152 -0.003 0.03c-2.265,0.826 -4.544,1.626 -6.821,2.415 -5.834,2.02 -12.641,3.08 -17.288,4.719 -5.144,1.815 -9.883,4.769 -14.858,7.149 -0.212,0.101 -0.412,0.215 -0.605,0.339 0.121,0.721 0.248,1.443 0.383,2.165 0.438,2.34 0.963,4.693 1.752,8.597 0.788,3.904 1.839,9.36 2.815,15.624 0.976,6.262 1.877,13.332 3.034,19.705 1.157,6.372 2.57,12.047 3.374,15.175 0.803,3.129 0.998,3.71 1.026,4.321 0.028,0.61 -0.11,1.248 -0.192,1.818 -0.083,0.57 -0.11,1.072 -0.138,1.574 1.678,4.247 3.328,18.944 3.789,24.023 0.735,8.116 1.826,16.186 2.512,24.347 0.348,4.137 0.874,8.269 1.009,12.419l0.653 12.776c0.396,4.199 0.208,8.934 0.274,13.179 0.032,2.062 0.194,4.007 0.186,6.13 -0.007,2.226 -0.172,4.349 -0.196,6.512 -0.051,4.469 -0.054,8.634 -0.319,13.111 -0.68,11.475 -1.257,26.076 -3.267,37.02 -0.966,5.407 -2.177,11.944 -2.754,17.389 -0.258,2.432 -0.827,10.057 -1.468,11.951 -0.68,2.01 -0.163,3.658 -0.568,5.77 -0.342,1.785 -0.742,3.812 -1.164,5.568 -0.463,1.93 -1.435,3.647 0.397,4.966 4.276,1.054 8.552,2.108 13.913,3.017 5.36,0.909 11.804,1.672 18.03,2.048 6.226,0.375 12.232,0.363 21.568,0.476 9.335,0.112 21.999,0.351 32.523,0.382 10.525,0.032 18.909,-0.144 26.242,-0.419 7.333,-0.275 13.615,-0.65 19.058,-1.151 5.443,-0.501 10.048,-1.126 13.829,-1.873 3.78,-0.746 6.736,-1.613 9.693,-2.48 1.832,-1.319 0.86,-3.036 0.397,-4.966 -0.422,-1.756 -0.822,-3.783 -1.164,-5.568 -0.405,-2.112 0.112,-3.76 -0.568,-5.77 -0.641,-1.894 -1.21,-9.519 -1.468,-11.951 -0.577,-5.445 -1.788,-11.982 -2.754,-17.389 -2.01,-10.944 -2.587,-25.545 -3.267,-37.02 -0.265,-4.477 -0.268,-8.642 -0.319,-13.111 -0.024,-2.163 -0.189,-4.286 -0.196,-6.512 -0.008,-2.123 0.154,-4.068 0.186,-6.13 0.066,-4.245 -0.122,-8.98 0.274,-13.179l0.653 -12.776c0.135,-4.15 0.661,-8.282 1.009,-12.419 0.686,-8.161 1.777,-16.231 2.512,-24.347 0.461,-5.079 1.889,-19.043 3.568,-23.29z"/>
    </clipPath>
    <clipPath id="id2">
     <path d="M207.298 27.894c-0.11,-0.063 -0.222,-0.122 -0.337,-0.177 -4.975,-2.38 -9.714,-5.334 -14.858,-7.149 -4.647,-1.639 -11.454,-2.699 -17.288,-4.719 -2.277,-0.789 -4.556,-1.589 -6.82,-2.415l-0.004 -0.03 -9.999 -4.08 -0.175 -0.072c-0.614,-0.28 -1.553,-1.207 -2.512,-1.889 -0.494,-0.369 -0.613,-0.563 -1.038,-0.905 -2.856,-2.299 -5.606,-5.635 -9.574,-5.641 -0.901,-0.002 -1.04,-0.123 -1.779,-0.163l-7.601 -0.17c-5.892,-0.486 -12.055,-0.501 -18.06,-0.477 -5.087,0.02 -9.557,0.063 -14.567,0.477 -2.529,0.209 -4.996,0.029 -7.6,0.17 -0.739,0.04 -0.878,0.161 -1.779,0.163 -3.968,0.006 -6.718,3.342 -9.575,5.641 -0.424,0.342 -0.543,0.536 -1.037,0.905 -0.741,0.527 -1.471,1.2 -2.047,1.608 -0.17,0.121 -0.326,0.218 -0.465,0.281l-10.174 4.152 -0.003 0.03c-2.265,0.826 -4.544,1.626 -6.821,2.415 -5.834,2.02 -12.641,3.08 -17.288,4.719 -5.144,1.815 -9.883,4.769 -14.858,7.149 -0.212,0.101 -0.412,0.215 -0.605,0.339 -0.909,0.583 -1.664,1.379 -2.651,2.001 -11.263,7.099 -18.243,27.467 -21.401,39.215 -1.569,5.839 -1.98,12.983 -2.969,19.04 -0.5,3.067 -1.172,6.193 -1.752,9.253 -0.585,3.095 -0.872,6.493 -1.288,9.631 -0.406,0.268 -0.327,-0.023 -0.308,0.899l-0.065 1.854 0 8.783c0.041,1.018 0.102,1.813 0.186,2.164 1.125,0.477 3.706,0.514 5.07,0.712 7.662,1.114 9.041,0.828 15.791,1.554l21.547 1.349c-0.015,-1.623 0.547,-10.725 0.578,-13.424l-0.603 -0.316 -0.07 -0.036c0,-4.476 -0.011,-9.226 -0.011,-13.7 1.678,4.247 3.328,18.944 3.789,24.023 0.735,8.116 1.826,16.186 2.512,24.347 0.348,4.137 0.874,8.269 1.009,12.419l0.653 12.776c0.396,4.199 0.208,8.934 0.274,13.179 0.032,2.062 0.194,4.007 0.186,6.13 -0.007,2.226 -0.172,4.349 -0.196,6.512 -0.051,4.469 -0.054,8.634 -0.319,13.111 -0.68,11.475 -1.257,26.076 -3.267,37.02 -0.966,5.407 -2.177,11.944 -2.754,17.389 -0.258,2.432 -0.827,10.057 -1.468,11.951 -0.68,2.01 -0.163,3.658 -0.568,5.77 -0.342,1.785 -0.742,3.812 -1.164,5.568 -0.463,1.93 -1.435,3.647 0.397,4.966 4.276,1.054 8.552,2.108 13.913,3.017 5.36,0.909 11.804,1.672 18.03,2.048 6.226,0.375 12.232,0.363 21.568,0.476 9.335,0.112 21.999,0.351 32.523,0.382 10.525,0.032 18.909,-0.144 26.242,-0.419 7.333,-0.275 13.615,-0.65 19.058,-1.151 5.443,-0.501 10.048,-1.126 13.829,-1.873 3.78,-0.746 6.736,-1.613 9.693,-2.48 1.832,-1.319 0.86,-3.036 0.397,-4.966 -0.422,-1.756 -0.822,-3.783 -1.164,-5.568 -0.405,-2.112 0.112,-3.76 -0.568,-5.77 -0.641,-1.894 -1.21,-9.519 -1.468,-11.951 -0.577,-5.445 -1.788,-11.982 -2.754,-17.389 -2.01,-10.944 -2.587,-25.545 -3.267,-37.02 -0.265,-4.477 -0.268,-8.642 -0.319,-13.111 -0.024,-2.163 -0.189,-4.286 -0.196,-6.512 -0.008,-2.123 0.154,-4.068 0.186,-6.13 0.066,-4.245 -0.122,-8.98 0.274,-13.179l0.653 -12.776c0.135,-4.15 0.661,-8.282 1.009,-12.419 0.686,-8.161 1.777,-16.231 2.512,-24.347 0.461,-5.079 1.889,-19.043 3.568,-23.29 0,4.474 -0.105,8.584 -0.105,13.06l0 0 -0.416 0.247c-0.004,0.882 0.338,12.091 0.604,13.423l21.579 -1.336c6.75,-0.726 8.129,-0.44 15.791,-1.554 1.364,-0.198 3.945,-0.235 5.07,-0.712 0.084,-0.351 0.145,-1.146 0.186,-2.164l0 -8.783 -0.065 -1.854c0.014,-0.687 0.062,-0.7 -0.083,-0.774 -0.05,-0.025 -0.122,-0.057 -0.225,-0.125 -0.416,-3.138 -0.703,-6.536 -1.288,-9.631 -0.58,-3.06 -1.252,-6.186 -1.752,-9.253 -0.989,-6.057 -1.4,-13.201 -2.969,-19.04 -3.158,-11.748 -10.138,-32.116 -21.401,-39.215 -1.057,-0.665 -1.895,-1.576 -2.919,-2.163z"/>
    </clipPath>
    <clipPath id="id3">
     <path d="M42.488 97.035c0.028,-0.502 0.055,-1.004 0.138,-1.574 0.082,-0.57 0.22,-1.208 0.192,-1.818 -0.028,-0.611 -0.223,-1.192 -1.026,-4.321 -0.804,-3.128 -2.217,-8.803 -3.374,-15.175 -1.157,-6.373 -2.058,-13.443 -3.034,-19.705 -0.976,-6.264 -2.027,-11.72 -2.815,-15.624 -0.789,-3.904 -1.314,-6.257 -1.752,-8.597 -0.135,-0.722 -0.262,-1.444 -0.383,-2.165 -0.909,0.583 -1.664,1.379 -2.651,2.001 -11.263,7.099 -18.243,27.467 -21.401,39.215 -1.569,5.839 -1.98,12.983 -2.969,19.04 -0.5,3.067 -1.172,6.193 -1.752,9.253 -0.585,3.095 -0.872,6.493 -1.288,9.631 0.744,0.196 1.489,0.392 4.426,0.672 2.938,0.279 8.068,0.642 13.143,1.005 5.074,0.363 10.092,0.726 13.996,1.045 3.905,0.319 6.695,0.595 8.372,0.73l0.055 0.004 0.053 0.004 0.053 0.004 0.052 0.004 0.051 0.004 0.051 0.004 0.05 0.004 0.048 0.004 0.001 0 0.048 0.003 0.048 0.004 0.046 0.003 0.047 0.003 0.045 0.004 0.045 0.003 0.044 0.003 0.044 0.003 0.042 0.003 0.043 0.003 0.041 0.002 0.041 0.003 0 0 0.041 0.002 0.039 0.003 0.039 0.002 0.001 0 0.038 0.003 0.038 0.002 0.037 0.002 0 0 0.037 0.002 0.036 0.002 0.036 0.002 0 0 0.035 0.002 0 0 0.035 0.002 0 0 0.034 0.002 0 0 0.033 0.002 0.033 0.001 0.001 0 0.032 0.002 0.032 0.002 0 0 0.031 0.001 0.001 0 0.031 0.001 0 0 0.03 0.002 0.001 0 0.029 0.001 0.001 0 0.029 0.001 0 0 0.029 0.002 0.001 0 0.028 0 0.001 0 0.028 0.002 0.028 0.001 0 0 0.028 0 0 0 0.027 0.001 0 0 0.027 0.001 0.026 0.001 0.001 0 0.025 0.001 0.001 0 0.025 0.001 0 0 0.025 0 0.001 0 0.025 0.001 0 0 0.024 0 0.001 0 0.024 0.001 0 0 0.024 0.001 0 0 0.023 0 0.001 0 0.023 0 0 0 0.023 0.001 0.001 0 0.022 0 0.001 0 0.022 0.001 0 0 0.022 0 0 0 0.022 0 0.001 0 0.021 0 0 0 -42.196 -3.575c-0.406,0.268 -0.327,-0.023 -0.308,0.899l-0.065 1.854 0 8.783c0.041,1.018 0.102,1.813 0.186,2.164 1.125,0.477 3.706,0.514 5.07,0.712 7.662,1.114 9.041,0.828 15.791,1.554l21.547 1.349c-0.015,-1.623 0.547,-10.725 0.578,-13.424l-0.603 -0.316 0 0 -0.07 -0.036c0,-4.476 -0.011,-9.226 -0.011,-13.7zm152.698 13.793l0 0 -0.416 0.247c-0.004,0.882 0.338,12.091 0.604,13.423l21.579 -1.336c6.75,-0.726 8.129,-0.44 15.791,-1.554 1.364,-0.198 3.945,-0.235 5.07,-0.712 0.084,-0.351 0.145,-1.146 0.186,-2.164l0 -8.783 -0.065 -1.854c0.014,-0.687 0.062,-0.7 -0.083,-0.774 -0.05,-0.025 -0.122,-0.057 -0.225,-0.125 -0.416,-3.138 -0.703,-6.536 -1.288,-9.631 -0.58,-3.06 -1.252,-6.186 -1.752,-9.253 -0.989,-6.057 -1.4,-13.201 -2.969,-19.04 -3.158,-11.748 -10.138,-32.116 -21.401,-39.215 -1.057,-0.665 -1.895,-1.576 -2.919,-2.163 -0.004,0.804 -0.013,1.568 -0.034,2.242 -0.037,1.214 -0.113,2.14 -0.663,4.067 -0.551,1.927 -1.577,4.856 -2.541,9.31 -0.963,4.455 -1.864,10.437 -2.652,16.318 -0.789,5.882 -1.465,11.663 -2.278,15.986 -0.813,4.324 -1.764,7.189 -2.565,9.742 -0.8,2.553 -1.451,4.792 -1.681,6.311 -0.23,1.519 -0.038,2.317 0.099,3.18 0.138,0.862 0.223,1.79 0.308,2.718 0,4.474 -0.105,8.584 -0.105,13.06z"/>
    </clipPath>
    <clipPath id="id4">
     <path d="M207.298 27.894c-0.11,-0.063 -0.222,-0.122 -0.337,-0.177 -4.975,-2.38 -9.714,-5.334 -14.858,-7.149 -4.647,-1.639 -11.454,-2.699 -17.288,-4.719 -2.277,-0.789 -4.556,-1.589 -6.82,-2.415l-0.004 -0.03 -9.999 -4.08 -0.175 -0.072c-0.614,-0.28 -1.553,-1.207 -2.512,-1.889 -0.494,-0.369 -0.613,-0.563 -1.038,-0.905 -2.856,-2.299 -5.606,-5.635 -9.574,-5.641 -0.901,-0.002 -1.04,-0.123 -1.779,-0.163l-7.601 -0.17c-5.892,-0.486 -12.055,-0.501 -18.06,-0.477 -5.087,0.02 -9.557,0.063 -14.567,0.477 -2.529,0.209 -4.996,0.029 -7.6,0.17 -0.739,0.04 -0.878,0.161 -1.779,0.163 -3.968,0.006 -6.718,3.342 -9.575,5.641 -0.424,0.342 -0.543,0.536 -1.037,0.905 -0.741,0.527 -1.471,1.2 -2.047,1.608 -0.17,0.121 -0.326,0.218 -0.465,0.281l-10.174 4.152 -0.003 0.03c-2.265,0.826 -4.544,1.626 -6.821,2.415 -5.834,2.02 -12.641,3.08 -17.288,4.719 -5.144,1.815 -9.883,4.769 -14.858,7.149 -0.212,0.101 -0.412,0.215 -0.605,0.339 -0.909,0.583 -1.664,1.379 -2.651,2.001 -11.263,7.099 -18.243,27.467 -21.401,39.215 -1.569,5.839 -1.98,12.983 -2.969,19.04 -0.5,3.067 -1.172,6.193 -1.752,9.253 -0.585,3.095 -0.872,6.493 -1.288,9.631 -0.406,0.268 -0.327,-0.023 -0.308,0.899l-0.065 1.854 0 8.783c0.041,1.018 0.102,1.813 0.186,2.164 1.125,0.477 3.706,0.514 5.07,0.712 7.662,1.114 9.041,0.828 15.791,1.554l21.547 1.349c-0.015,-1.623 0.547,-10.725 0.578,-13.424l-0.603 -0.316 -0.07 -0.036c0,-4.476 -0.011,-9.226 -0.011,-13.7 1.678,4.247 3.328,18.944 3.789,24.023 0.735,8.116 1.826,16.186 2.512,24.347 0.348,4.137 0.874,8.269 1.009,12.419l0.653 12.776c0.396,4.199 0.208,8.934 0.274,13.179 0.032,2.062 0.194,4.007 0.186,6.13 -0.007,2.226 -0.172,4.349 -0.196,6.512 -0.051,4.469 -0.054,8.634 -0.319,13.111 -0.68,11.475 -1.257,26.076 -3.267,37.02 -0.966,5.407 -2.177,11.944 -2.754,17.389 -0.258,2.432 -0.827,10.057 -1.468,11.951 -0.68,2.01 -0.163,3.658 -0.568,5.77 -0.342,1.785 -0.742,3.812 -1.164,5.568 -0.463,1.93 -1.435,3.647 0.397,4.966 4.276,1.054 8.552,2.108 13.913,3.017 5.36,0.909 11.804,1.672 18.03,2.048 6.226,0.375 12.232,0.363 21.568,0.476 9.335,0.112 21.999,0.351 32.523,0.382 10.525,0.032 18.909,-0.144 26.242,-0.419 7.333,-0.275 13.615,-0.65 19.058,-1.151 5.443,-0.501 10.048,-1.126 13.829,-1.873 3.78,-0.746 6.736,-1.613 9.693,-2.48 1.832,-1.319 0.86,-3.036 0.397,-4.966 -0.422,-1.756 -0.822,-3.783 -1.164,-5.568 -0.405,-2.112 0.112,-3.76 -0.568,-5.77 -0.641,-1.894 -1.21,-9.519 -1.468,-11.951 -0.577,-5.445 -1.788,-11.982 -2.754,-17.389 -2.01,-10.944 -2.587,-25.545 -3.267,-37.02 -0.265,-4.477 -0.268,-8.642 -0.319,-13.111 -0.024,-2.163 -0.189,-4.286 -0.196,-6.512 -0.008,-2.123 0.154,-4.068 0.186,-6.13 0.066,-4.245 -0.122,-8.98 0.274,-13.179l0.653 -12.776c0.135,-4.15 0.661,-8.282 1.009,-12.419 0.686,-8.161 1.777,-16.231 2.512,-24.347 0.461,-5.079 1.889,-19.043 3.568,-23.29 0,4.474 -0.105,8.584 -0.105,13.06l0 0 -0.416 0.247c-0.004,0.882 0.338,12.091 0.604,13.423l21.579 -1.336c6.75,-0.726 8.129,-0.44 15.791,-1.554 1.364,-0.198 3.945,-0.235 5.07,-0.712 0.084,-0.351 0.145,-1.146 0.186,-2.164l0 -8.783 -0.065 -1.854c0.014,-0.687 0.062,-0.7 -0.083,-0.774 -0.05,-0.025 -0.122,-0.057 -0.225,-0.125 -0.416,-3.138 -0.703,-6.536 -1.288,-9.631 -0.58,-3.06 -1.252,-6.186 -1.752,-9.253 -0.989,-6.057 -1.4,-13.201 -2.969,-19.04 -3.158,-11.748 -10.138,-32.116 -21.401,-39.215 -1.057,-0.665 -1.895,-1.576 -2.919,-2.163z"/>
    </clipPath>
 </defs>
 <g id="VETORES">
  <metadata id="CorelCorpID_0Corel-Layer"/>
  <g>
  </g>
  <g clip-path="url(#id0)">
   <g id="_3220551619680">
    <g>
    </g>
   </g>
   <g clip-path="url(#id1)">
    <g>
     <path id="_2" fill="white" fill-rule="nonzero" d="M42.567 277.645c-0.06,0.771 -0.04,1.522 -0.06,2.312 2.313,5.516 5.847,10.501 10.361,14.786 0.571,0.11 1.161,0.22 1.772,0.32 -5.516,-4.885 -9.701,-10.781 -12.063,-17.418l-0.01 0zm139.081 -123.549c-0.245,2.421 -0.508,1.077 -0.11,4.174 0.495,3.859 0.72,6.017 0.57,9.901 -0.06,1.731 0.231,2.352 0.03,3.834 -0.188,2.169 0.432,1.007 -0.2,4.164 -0.541,2.923 -1.221,5.986 -1.812,8.91 -0.481,2.642 -1.081,4.995 -1.051,7.487 -0.821,2.303 -1.281,4.515 -2.012,6.728 -2.072,5.756 -5.877,11.181 -10.271,15.436 -2.443,2.382 -4.906,4.374 -7.178,6.777 -8.221,8.674 -9.146,10.524 -19.721,15.356 -9.31,4.253 -7.247,12.141 -18.481,17.508l-1.191 0.941c-3.039,3.249 -10.688,6.416 -14.866,13.194 -2.353,3.774 -3.664,8.059 -5.446,12.093 -2.557,5.783 -5.898,11.395 -8.749,17.098 0.341,0 0.691,0 1.051,0.01 2.782,-5.402 5.917,-10.865 8.389,-16.337 3.683,-8.154 3.998,-12.848 11.573,-18.79 2.753,-2.212 5.876,-4.004 8.489,-6.387 0.741,-0.881 1.332,-1.021 2.322,-1.501 9.125,-4.602 9.369,-13.575 17.309,-16.988 8.199,-3.574 11.553,-6.297 17.589,-12.944 2.923,-3.343 6.217,-6.186 9.48,-9.28 4.485,-4.314 8.259,-9.65 10.472,-15.496 0.851,-2.412 1.281,-4.715 2.152,-7.208 0,-2.813 0.771,-5.905 1.331,-8.849 0.285,-1.417 2.03,-8.935 1.843,-10.13 -0.231,-1.021 0,-2.523 0.03,-3.634 -0.3,-1.028 -0.034,-4.297 -0.14,-6.186 -0.087,-1.54 -0.91,-7.71 -0.681,-8.279l0.03 -0.11c1.051,-6.667 3.173,-13.334 5.226,-19.811 1.281,-3.603 2.402,-7.107 3.684,-10.34 0.1,-0.981 0.2,-1.962 0.29,-2.943 -3.846,8.626 -8.203,22.867 -9.941,31.623l-0.01 -0.021zm1.782 2.613c-0.341,0.961 0.06,2.613 0.17,3.804 0.28,1.901 0.541,3.864 0.621,5.846 0.14,1.562 -0.14,4.284 0.2,5.505 0.03,1.192 -0.14,2.834 0.11,3.804 0.197,0.668 -1.69,9.975 -1.932,11.402 -0.4,2.493 -0.961,5.075 -0.881,7.488 -0.68,2.133 -1.081,3.884 -1.621,5.926 -2.013,6.667 -6.417,12.713 -11.523,17.419 -2.153,2.042 -4.425,3.884 -6.467,6.046 -5.266,5.469 -9.305,10.58 -16.488,13.594 -2.322,0.991 -4.515,1.642 -6.727,3.063 -5.106,3.514 -6.638,10.381 -11.893,13.735 -1.452,1.081 -3.034,1.841 -4.736,2.492 -0.911,0.991 -2.012,1.842 -3.153,2.613 -4.685,3.203 -9.9,6.186 -12.884,11.211 -2.353,3.885 -3.574,8.319 -5.366,12.454 -1.898,4.396 -4.975,10.285 -7.338,14.595 0.35,0 0.701,0 1.062,0.01 2.302,-4.435 4.735,-8.82 6.757,-13.384 5.4,-12.147 3.469,-14.414 16.688,-23.014 1.592,-1.051 3.203,-2.133 4.565,-3.464 0.862,-1.007 6.034,-1.151 11.462,-10.241 7.303,-12.229 11.284,-3.806 25.858,-20.011 2.863,-3.233 6.017,-6.076 9.22,-8.939 4.796,-4.375 8.94,-9.961 11.242,-16.037 0.991,-2.753 1.302,-5.025 2.273,-7.888 -0.06,-2.643 0.481,-5.225 0.961,-8.059 0.571,-3.173 1.251,-6.466 1.762,-9.679 0.26,-1.422 -0.17,-2.153 -0.06,-3.714l0 -1.712c-0.31,-1.111 -0.03,-3.834 -0.17,-5.306 -0.678,-9.021 -1.861,-6.848 0.62,-15.746 1.232,-4.505 2.653,-8.97 4.235,-13.374 0.13,-1.261 0.27,-2.513 0.401,-3.774 -2.098,5.454 -6.139,17.428 -6.998,23.304l0.03 0.031zm21.714 -129.005c0.63,0.751 1.351,1.511 2.132,2.382 0.02,-0.43 0.02,-0.911 0.02,-1.391 -0.44,-0.491 -0.891,-0.971 -1.331,-1.452 -0.811,-0.4 -1.622,-0.81 -2.423,-1.231 0.561,0.661 1.121,1.271 1.602,1.702l0 -0.01zm-161.736 245.666c-0.13,0.891 -0.26,1.652 -0.4,2.183 2.082,7.317 6.417,13.804 13.044,19.61 0.426,0.37 1.352,0.361 1.932,0.45 -7.278,-5.916 -12.514,-13.564 -14.576,-22.243zm0.971 -9.43c-0.11,1.101 -0.29,3.254 -0.51,5.466 1.141,9.68 5.896,17.849 14.025,25.016 1.997,1.736 1.405,1.415 4.134,1.752 -6.877,-10.551 -12.633,-21.793 -17.509,-33.405 -0.05,0.391 -0.1,0.791 -0.13,1.172l-0.01 -0.001zm12.434 25.597c-5.166,-5.535 -8.37,-11.552 -9.681,-18.449 2.863,6.356 6.047,12.483 9.681,18.449zm-9.961 -15.436c1.902,6.867 5.906,13.164 11.943,18.73 0.48,0.791 0.991,1.592 1.471,2.352 -9.79,-7.778 -15.697,-18.048 -15.717,-29.881 0.4,0.941 0.821,1.902 1.251,2.834 0.171,1.982 0.511,3.974 1.052,5.956l0 0.009zm120.861 4.765c-4.225,3.204 -4.855,9.08 -8.51,12.794 -3.714,3.714 -7.208,2.352 -11.863,2.472 -2.102,0.771 -4.454,0.961 -6.667,1.452 -2.963,0.61 -5.926,1.381 -8.709,2.552 0.911,0 1.812,0 2.693,-0.01 2.402,-0.801 4.895,-1.351 7.237,-1.802 1.842,-0.43 3.865,-0.57 5.566,-1.251 1.592,0 3.124,0.06 4.655,0.14 2.834,0.26 5.617,-0.771 7.639,-2.753 4.114,-3.864 4.485,-10.781 9.65,-13.564 3.705,-2.023 7.631,1.027 12.564,1.371 5.147,0.36 9.25,-1.59 13.014,-4.825 -0.07,-0.3 -0.14,-0.66 -0.21,-1.071 -13.135,11.5 -19.418,-1.192 -27.04,4.505l-0.019 -0.01zm17.929 -122.298c-0.454,2.76 -0.599,1.771 -0.09,5.086 0.451,2.923 0.911,6.096 0.851,9.139l0.25 3.174c-0.087,2.261 0.276,3.273 0.2,4.024 -0.45,3.714 -1.251,7.638 -1.791,11.382 -0.371,2.692 -0.771,4.735 -0.651,7.177 -0.651,2.183 -0.991,3.714 -1.472,5.756 -1.767,7.09 -6.969,13.736 -12.323,18.56 -2.323,2.072 -4.686,4.054 -6.808,6.326 -4.667,4.895 -9.01,10.055 -15.517,12.544 -1.962,0.77 -3.944,1.331 -5.906,2.182 -6.327,2.613 -7.689,10.611 -13.114,14.305 -2.898,2.094 -5.325,2.662 -5.526,2.813 -0.231,0.23 -0.431,0.45 -0.681,0.681 -4.158,3.701 -12.015,6.164 -16.118,13.414 -2.212,3.914 -3.343,8.319 -5.075,12.453 -1.702,4.174 -3.794,8.158 -5.886,12.152 0.35,0 0.691,0 1.051,0.01 1.742,-3.313 3.473,-6.647 4.975,-10.07 1.902,-4.205 3.063,-8.71 5.106,-12.854 2.783,-6.046 8.849,-9.28 14.215,-12.683 1.082,-0.681 2.072,-1.452 2.984,-2.323 0.941,-0.34 2.042,-0.77 2.863,-1.191 9.342,-4.69 8.385,-13.804 17.248,-16.517 8.259,-2.553 12.063,-5.646 17.85,-11.943 2.662,-2.923 5.505,-5.646 8.509,-8.198 5.61,-4.884 10.748,-11.464 12.834,-18.67 0.651,-2.412 0.911,-3.914 1.762,-6.667 -0.17,-2.132 0.23,-4.224 0.51,-6.436 0.421,-2.874 0.941,-5.757 1.392,-8.629 0,-3.023 -0.03,-6.167 0.14,-9.16 -0.148,-4.788 -0.205,-5.759 -0.911,-10.501 -0.14,-1.081 -0.371,-2.242 -0.341,-3.173 0.341,-1.792 0.791,-3.834 1.362,-5.706 1.634,-5.518 1.258,-3.239 1.772,-8.539 -1.24,3.541 -2.857,8.475 -3.664,12.083l0 -0.001zm3.184 130.296c-6.327,-0.51 -11.242,-6.246 -16.999,-0.43 -2.853,3.023 -3.784,7.317 -6.146,10.671 0.4,-0.03 0.791,-0.05 1.181,-0.08 3.069,-4.792 5.066,-15.038 13.995,-11.552 5.471,2.136 9.7,3.657 15.808,1.011 -0.07,-0.32 -0.15,-0.64 -0.22,-0.971 -2.502,1.169 -4.577,1.516 -7.619,1.351zm-6.527 -175.333c-2.814,9.45 -4.796,19.21 -6.757,28.89l-1.963 10.551c0.323,7.444 0.251,6.508 -0.28,13.475 -0.14,0.99 -0.451,1.982 -0.341,2.953 -0.092,1.912 -4.012,12.757 -4.624,17.167 -0.231,0.571 -0.481,1.222 -0.651,1.702 -1.872,5.736 -4.715,10.982 -8.63,15.577 -2.723,3.343 -5.986,6.216 -8.909,9.36 -3.264,3.513 -6.357,7.117 -9.961,10.33 -7.189,6.487 -9.286,5.511 -15.497,14.135 -5.229,7.26 -3.981,4.984 -9.701,10.18 -4.564,4.115 -9.219,8.289 -12.823,13.335 -2.583,3.694 -4.395,7.828 -6.467,11.832 -2.073,3.944 -4.345,7.808 -6.497,11.692 -2.763,4.835 -5.266,9.821 -7.679,14.846 0.341,0 0.681,0.01 1.031,0.02 1.902,-3.934 3.844,-7.838 5.937,-11.662 2.553,-4.715 5.276,-9.28 7.809,-14.015 2.072,-3.914 3.834,-8.059 6.356,-11.752 3.575,-5.166 8.319,-9.39 12.945,-13.594 5.156,-4.664 4.8,-3.273 9.48,-9.821 6.58,-9.206 8.303,-7.753 15.867,-14.605 3.604,-3.204 6.698,-6.807 9.931,-10.331 2.953,-3.153 6.217,-6.046 8.94,-9.36 2.833,-3.343 5.225,-7.207 7.037,-11.182 0.881,-2.132 1.472,-4.174 2.413,-6.436 0.14,-1.873 0.881,-3.885 1.421,-5.877 0.482,-1.678 3.24,-10.291 3.234,-11.692l0.37 -3.313 0.45 -5.196c0.171,-2.783 -0.139,-5.646 -0.2,-8.399 1.022,-5.105 2.013,-10.27 3.094,-15.405 1.191,-5.787 2.492,-11.633 3.974,-17.368 2.863,-10.467 3.628,-16.234 13.645,-20.432 -0.03,-0.33 -0.07,-0.651 -0.1,-0.971 -2.843,1.181 -5.496,2.723 -7.698,4.895 -2.893,3.063 -3.264,4.855 -5.136,10.471l-0.02 0zm-2.553 -2.132c-2.212,8.169 -3.884,16.548 -5.476,24.856 -0.911,4.855 -1.792,9.76 -2.613,14.616 0,2.552 0.26,5.225 0.06,7.827l-1.171 9.45c-0.961,3.744 -2.303,7.518 -3.464,11.182 -0.541,1.812 -1.251,3.603 -1.452,5.245 -0.651,1.592 -1.131,2.813 -1.672,4.285 -3.771,10.011 -10.381,15.37 -16.938,22.553 -7.681,8.415 -7.946,8.777 -16.568,15.927 -7.376,6.118 -7.644,9.458 -12.203,13.935 -5.987,5.646 -12.233,11.121 -17.029,17.818 -2.643,3.744 -4.594,7.919 -6.807,11.923 -2.443,4.455 -5.076,8.829 -7.549,13.284 -2.773,4.985 -5.335,10.08 -7.798,15.206 0.341,0.009 0.671,0.019 1.011,0.029 2.342,-4.865 4.775,-9.7 7.408,-14.415 2.523,-4.594 5.226,-9.079 7.779,-13.644 2.242,-4.114 4.224,-8.369 6.977,-12.173 4.795,-6.587 10.952,-11.922 16.798,-17.508 2.833,-2.953 4.935,-6.527 7.638,-9.62 2.701,-3.161 8.599,-7.352 12.263,-10.841 3.004,-2.833 5.757,-5.926 8.54,-9 6.529,-7.243 11.922,-11.275 16.398,-20.851 1.051,-2.303 1.642,-4.205 2.663,-6.637 0.17,-1.532 0.821,-3.174 1.301,-4.796 2.321,-7.585 3.581,-9.468 4.305,-16.717 0.17,-1.161 0.34,-2.473 0.431,-3.694 0.26,-2.863 0.06,-5.786 -0.031,-8.629 1.252,-7.268 2.553,-14.355 4.005,-21.623 1.391,-6.697 2.863,-13.624 4.765,-20.061 1.451,-4.484 1.792,-5.986 4.084,-8.568 2.583,-2.673 5.856,-4.405 9.37,-5.657 0,-0.3 0.03,-0.64 0.081,-1.021 -3.494,1.202 -6.788,2.863 -9.511,5.366 -3.403,3.434 -3.774,5.906 -5.616,11.943l0.021 0.01zm-68.425 122.308c6.928,-8.739 14.016,-17.368 21.344,-25.737 14.291,-16.432 17.23,-17.169 25.988,-37.509 3.828,-8.89 6.315,-15.105 6.076,-24.736 -0.13,-5.272 2.591,-23.543 3.484,-29.03 1.332,-7.919 3.063,-19.01 5.476,-25.737 3.444,-7.788 15.387,-10.681 25.197,-11.942 0.07,-0.321 0.131,-0.641 0.191,-0.981 -0.561,0.08 -1.121,0.15 -1.692,0.22 -0.45,-13.364 -8.369,-24.035 -8.739,-37.679 -0.111,-1.792 -0.2,-3.604 -0.231,-5.446 -0.26,-0.51 -0.711,-1.502 -0.961,-2.012 -0.216,24.244 8.862,30.621 8.99,45.317 -0.961,0.14 -1.902,0.311 -2.833,0.481 -0.255,-16.35 -11.059,-23.455 -7.208,-55.358 0.51,0.601 0.991,1.161 1.451,1.642 -0.23,2.662 -0.37,5.275 -0.4,7.918 0.261,0.51 0.741,1.502 0.961,2.012 -0.03,-2.953 0.08,-5.956 0.311,-8.97 0.62,0.651 1.161,1.222 1.591,1.562 -1.075,25.331 7.414,31.551 9.551,45.618 0.14,-0.941 0.28,-1.912 0.42,-2.923 -1.491,-6.447 -4.495,-12.303 -6.467,-18.89 -2.237,-7.44 -2.815,-15.175 -2.552,-22.954 2.109,1.891 1.705,1.398 1.761,3.033 0.081,4.966 0.651,9.961 1.792,14.756 1.362,6.197 4.185,11.712 6.357,17.438 0.081,-0.64 0.171,-1.271 0.261,-1.912 -0.28,-2.288 -7.129,-11.748 -7.469,-30.562 0.681,0.771 1.362,1.622 1.983,2.493 0.43,7.828 2.933,16.317 6.157,23.124 0.08,-0.591 0.17,-1.181 0.26,-1.762 -0.038,-0.277 -4.147,-7.942 -5.306,-19.661 2.663,4.405 4.535,9.981 6.056,15.016 0.121,-0.671 0.231,-1.331 0.351,-1.962 -1.382,-4.274 -3.114,-9.179 -4.305,-11.262 0.061,0 -1.812,-3.233 -2.813,-4.544 -2.713,-3.573 -3.183,-3.615 -5.956,-6.247l-5.096 -5.796c-0.631,-0.15 -1.261,-0.3 -1.912,-0.46 -0.711,4.264 -1.201,8.548 -1.422,12.843 -0.03,0.261 -0.14,2.723 -0.11,2.753 -0.542,23.694 6.899,29.399 7.068,44.126 -0.991,0.261 -1.932,0.541 -2.834,0.821 -0.139,-12.233 -5.535,-21.682 -5.986,-33.685 -0.548,-9.613 0.101,-17.633 1.842,-27.218 -0.321,-0.08 -0.631,-0.16 -0.951,-0.24 -1.838,10.142 -2.572,19.924 -1.632,30.181 1.051,11.552 5.736,19.581 5.786,31.273 -1.021,0.37 -1.962,0.741 -2.833,1.131 0.11,-11.942 -4.255,-19.891 -5.075,-31.783 -0.261,-3.323 -0.311,-6.697 -0.231,-10.1 -0.14,-0.31 -0.37,-0.791 -0.57,-1.251 0.2,0.43 0.43,0.941 0.57,1.251 0.221,-7.057 1.162,-14.115 2.553,-21.062 -0.321,-0.08 -0.631,-0.17 -0.951,-0.26 -2.106,10.639 -3.104,20.729 -2.312,31.502 0.821,12.033 5.275,20.001 5.055,32.124 -0.961,0.48 -1.932,1.021 -2.863,1.622 0.54,-12.484 -3.744,-20.742 -4.345,-33.085 -0.561,-10.831 0.751,-21.873 3.063,-32.554 -0.31,-0.09 -0.61,-0.191 -0.911,-0.291 -2.489,11.383 -3.801,22.545 -2.923,34.256l-0.2 -2.042c0.558,12.767 5.062,22.064 4.334,34.366 -1.591,1.192 -2.983,2.583 -3.974,4.315l-0.09 -0.601c0,0.651 -0.23,1.222 -0.541,1.762 -1.531,3.804 -2.893,10.951 -3.914,16.347 -1.842,5.225 -4.114,10.381 -6.467,15.206 -1.932,3.974 -3.864,7.638 -5.756,11.432 -1.932,4.114 -5.706,10.58 -3.294,13.984 2.042,2.553 7.378,0.37 10.361,-0.26l0 0.09c-2.424,0.592 -9.834,2.77 -11.923,2.072 -4.224,-1.622 0.06,-9.45 1.592,-13.024 6.807,-13.794 13.905,-27.979 16.598,-43.445 2.923,-15.886 -2.012,-25.196 -2.153,-40.182 -0.09,-11.782 1.803,-23.885 4.705,-35.527 -0.3,-0.11 -0.61,-0.22 -0.911,-0.321 -2.943,11.743 -4.825,23.886 -4.735,35.848 0.08,13.674 4.375,22.704 2.663,36.688 0.06,0.511 0.17,1.302 0.26,2.072 -0.09,-0.74 -0.2,-1.531 -0.26,-2.072 -1.932,14.586 -7.978,28.32 -14.445,41.233 -1.763,4.114 -10.442,18.159 -3.154,19.721 3.634,0.37 7.999,-1.281 11.723,-2.102l0 0.28c-13.334,2.723 -22.444,7.718 -13.815,-10.981 5.136,-10.922 10.531,-21.793 13.875,-33.565 7.037,-20.462 0.51,-34.196 1.111,-53.887 -0.11,-0.711 -0.23,-1.841 -0.37,-2.923 0.14,1.082 0.28,2.182 0.37,2.923 0.42,-11.001 2.523,-22.613 5.466,-33.705 -0.3,-0.11 -0.611,-0.21 -0.911,-0.32 -2.97,11.182 -3.969,17.394 -5.176,28.87 -2.102,16.207 3.374,28.97 1.562,45.227 -0.48,3.804 -1.391,7.809 -2.353,11.462 -3.573,14.045 -10.731,26.899 -16.317,39.982 -1.422,3.804 -3.204,9.51 1.502,10.531 2.738,0.482 11.574,-1.909 15.036,-2.643 -0.03,0.14 -0.03,0.311 -0.03,0.481 -4.424,0.71 -13,2.821 -16.408,3.033 -0.991,0.06 -1.982,0.06 -2.782,-0.34 -4.255,-2.783 2.302,-14.275 3.944,-18.47 2.723,-5.906 5.506,-12.003 7.828,-18.158 2.693,-7.118 4.856,-14.446 6.217,-21.793 2.643,-14.305 -0.711,-23.635 -0.821,-37.119 0.07,-13.785 2.703,-27.93 6.517,-41.514 -0.08,-0.03 -0.17,-0.06 -0.25,-0.09l0 -0.06 -0.661 -0.27c-2.812,10.011 -6.791,27.839 -6.126,37.749 -0.11,-0.711 -0.17,-1.392 -0.26,-1.842 -1.132,14.475 3.003,25.317 1.161,39.842 -0.941,6.727 -2.813,13.564 -4.936,19.92 -2.552,7.518 -5.756,14.726 -8.999,21.823 -1.902,4.765 -8.74,16.378 -4.736,20.341 2.213,1.842 6.327,0.571 9.08,0.11 3.664,-0.77 7.348,-1.591 11.123,-2.212 -0.031,0.231 -0.061,0.451 -0.061,0.711 -4.054,0.481 -8.059,1.222 -11.973,1.982 -2.693,0.401 -8.739,2.153 -10.902,0.541 -3.433,-3.514 2.303,-13.874 4.005,-18.389 2.152,-4.855 4.374,-9.871 6.357,-14.896 8.739,-21.853 10.041,-35.326 7.608,-55.898 0.03,0.28 0.09,0.571 0.11,0.791 -1.021,-17.048 2.382,-34.436 7.318,-51.073l-0.931 -0.381c-4.023,13.562 -7.156,28.878 -7.529,42.885 -0.31,12.513 2.383,21.883 0.681,34.616 -1.592,10.671 -4.996,20.972 -9,30.873 -1.792,4.374 -3.664,8.599 -5.536,12.823 -2.102,5.366 -7.237,14.495 -4.144,18.87 1.932,2.412 6.807,1.021 9.56,0.62 4.686,-0.881 9.421,-1.842 14.246,-2.412 -0.06,0.31 -0.11,0.62 -0.14,0.941 -5.055,0.37 -10.041,1.161 -14.957,2.012 -2.663,0.31 -9.53,2.182 -11.352,0.09 -2.953,-3.914 2.182,-13.594 3.914,-18.279 2.153,-5.136 4.425,-10.381 6.437,-15.667 6.667,-17.338 9.901,-31.582 8.369,-48.52 0.03,0.2 0.06,0.4 0.09,0.57 -1.832,-19.861 2.033,-40.492 8.049,-59.943l-0.831 -0.34c-4.558,14.721 -9.112,35.086 -8.639,50.232 0.621,13.254 1.932,26.678 -2.152,39.952 -2.073,7.918 -4.765,15.496 -7.859,23.014 -1.792,4.395 -3.544,8.429 -5.336,12.713 -1.982,5.396 -7.548,16.517 -0.37,18.079 3.233,0.371 6.587,-0.48 9.851,-0.991 4.765,-0.821 9.68,-1.591 14.615,-1.982 -0.08,0.401 -0.17,0.791 -0.23,1.161 -6.757,0.2 -13.425,1.162 -20.032,2.183 -2.492,0.26 -7.518,1.451 -9.31,-0.431 -2.833,-3.774 1.192,-11.972 2.753,-16.457 1.873,-4.685 3.864,-9.34 5.737,-14.155 5.986,-15.436 11.492,-32.694 10.211,-49.321 0.06,0.26 0.11,0.51 0.14,0.791 -1.722,-21.823 2.533,-44.177 9.34,-65.319l-0.791 -0.321c-6.066,18.79 -11.022,40.283 -9.46,58.802 -0.09,-0.511 -0.17,-1.021 -0.28,-1.502 0.711,11.662 0.451,24.206 -3.153,35.867 -1.983,7.408 -4.515,14.676 -7.318,21.793 -1.532,3.865 -2.984,7.348 -4.515,11.092 -1.932,5.446 -8.51,18.36 -1.362,20.461 3.374,0.621 6.948,-0.28 10.381,-0.71 5.737,-0.881 11.583,-1.642 17.419,-1.842 -0.11,0.54 -0.26,0.991 -0.34,1.331 -5.536,0 -11.092,0.371 -16.548,1.051 -3.744,0.431 -7.548,1.082 -11.262,1.251 -3.174,0.141 -5.226,-0.51 -5.446,-3.974 -0.09,0.341 -0.171,0.681 -0.281,0.991 0.481,-2.132 0.201,-3.974 1.112,-6.757 0.821,-3.123 2.242,-6.807 3.464,-10.02 5.764,-14.926 10.239,-25.464 13.685,-41.314 3.371,-15.507 0.653,-26.641 2.332,-42.023 1.652,-15.156 5.466,-30.292 10.381,-44.987l-0.901 -0.371c-4.74,14.206 -8.001,27.123 -9.98,41.784 -2.473,16.938 1.051,32.093 -3.494,48.691 -4.32,16.874 -7.34,23.269 -13.455,39.39 -1.86,4.904 -7.457,18.427 0.06,19.41 3.374,0.442 9.804,-0.639 13.455,-1.081 5.476,-0.711 11.072,-1.111 16.658,-1.111 -0.14,0.51 -0.31,0.991 -0.43,1.421 -11.247,-0.133 -16.336,0.377 -27.19,1.592 -2.382,0.11 -5.566,0.681 -7.548,-0.741 -2.313,-2.003 -1.234,-6.794 -0.451,-9.76 2.072,-7.268 5.136,-14.385 7.748,-21.593 3.826,-10.437 6.547,-18.811 8.99,-29.541 3.064,-13.394 1.502,-25.116 2.663,-38.65 1.732,-17.088 6.137,-33.936 11.813,-50.293 -0.24,-0.13 -0.52,-0.33 -0.831,-0.581 -5.23,15.095 -9.614,31.466 -11.552,47.19 -1.902,15.526 0.43,28.83 -3.434,43.986 -3.123,13.624 -8.198,26.848 -13.164,39.841 -0.851,2.273 -1.732,4.735 -2.383,6.777 -1.531,5.276 -3.633,12.143 1.422,14.105 2.182,0.621 4.625,0.34 6.897,0.17 4.035,-0.37 8.029,-0.88 12.063,-1.191 4.826,-0.401 9.701,-0.431 14.616,-0.37 -0.09,0.31 -0.37,1.081 -0.541,1.501 -8.259,-0.28 -16.428,-0.23 -24.627,0.621 -3.198,0.29 -10.007,1.128 -12.283,-0.2 -4.285,-2.954 -0.03,-13.364 1.282,-17.539 5.225,-14.525 10.871,-29.11 14.215,-44.296 3.096,-13.617 1.942,-22.764 3.033,-35.497 1.782,-19.08 6.918,-37.789 13.465,-55.918l-0.811 -0.621c-5.709,15.888 -11.381,35.909 -13.245,52.775 -1.451,13.535 -0.231,25.907 -3.344,39.071 -3.003,13.424 -7.718,26.528 -12.483,39.331 -0.401,1.131 -0.821,2.272 -1.222,3.373 -1.732,5.587 -7.208,18.22 -0.28,20.572 2.708,0.842 8.927,0.145 11.863,-0.14 8.028,-0.821 16.037,-0.881 24.116,-0.601 -0.2,0.541 -0.431,1.051 -0.621,1.592 -7.608,-0.28 -15.206,-0.651 -22.784,-0.17l-12.915 0.6c-1.361,-0.09 -2.813,-0.17 -3.944,-0.941 -4.168,-3.269 0.58,-15.881 2.042,-20.091 5.376,-15.479 11.715,-32.081 14.496,-48.29 0.991,-5.987 1.332,-11.943 1.642,-17.959 0.14,-2.833 0.28,-5.706 0.54,-8.659 -0.109,-0.601 -0.26,-1.562 -0.4,-2.412 0.14,0.851 0.281,1.792 0.4,2.412 1.873,-20.922 7.769,-41.463 15.167,-61.304 -0.27,-0.22 -0.531,-0.44 -0.791,-0.681 -6.468,17.381 -13.121,39.813 -15.006,58.271 -1.161,11.382 -0.771,22.224 -3.063,33.375 -2.724,12.944 -7.008,25.627 -11.433,38.05 -0.37,0.991 -0.711,1.962 -1.051,2.953 -1.702,5.646 -9.731,23.464 -1.592,25.797 3.424,0.969 11.665,0.096 15.557,-0.14 7.548,-0.511 15.157,-0.17 22.755,0.14 -0.23,0.54 -0.451,1.111 -0.681,1.641 -7.989,-0.329 -14.967,-0.956 -23.045,-0.71 -3.829,0.116 -15.325,1.083 -18.36,-0.281 -4.224,-2.212 -1.932,-9.99 -1.021,-13.794 1.131,-4.114 2.523,-8.199 3.914,-12.283 6.024,-17.55 12.461,-35.48 14.046,-54.106 0.4,-4.455 0.65,-8.88 1.021,-13.395 -0.09,-0.57 -0.261,-1.501 -0.401,-2.352 0.14,0.851 0.311,1.762 0.401,2.352 2.082,-22.623 8.759,-44.886 17.008,-66.329 -0.26,-0.23 -0.52,-0.46 -0.781,-0.691 -7.243,18.885 -14.809,43.249 -16.818,63.447 -1.021,10.13 -1.161,19.981 -3.153,29.911 -2.753,13.363 -7.301,26.51 -11.693,39.381 -1.591,4.655 -3.323,9.62 -4.545,14.275 -3.884,15.267 0.595,15.576 11.913,15.156 3.714,-0.17 7.468,-0.34 11.212,-0.4 6.637,-0.06 13.254,0.48 19.892,0.771 -0.261,0.57 -0.481,1.161 -0.741,1.701 -6.417,-0.31 -12.824,-0.911 -19.211,-1.131 -6.398,-0.205 -14.639,0.383 -20.092,0.06 -1.561,-0.09 -3.233,-0.23 -4.594,-0.911 -4.716,-2.813 -1.162,-13.304 0,-17.678 1.592,-5.416 3.433,-10.751 5.225,-16.177 4.965,-15.296 10.161,-30.813 11.693,-46.939l1.111 -11.262c2.403,-24.315 9.801,-48.08 18.87,-70.974 -0.27,-0.22 -0.54,-0.43 -0.821,-0.631 -8.186,20.705 -16.293,46.218 -18.64,68.232 -0.991,8.999 -1.451,17.878 -3.233,26.728 -2.233,10.908 -5.886,22.38 -9.331,33.024 -1.732,5.225 -3.464,10.271 -5.075,15.466 -1.622,5.986 -6.978,20.152 1.812,21.703 3.203,0.601 6.587,0.4 9.85,0.34 4.285,-0.089 8.57,-0.2 12.854,-0.06 6.387,0.201 12.794,0.791 19.212,1.132 -0.281,0.62 -0.541,1.221 -0.771,1.762l-19.611 -1.482c-5.226,-0.31 -10.442,-0.28 -15.667,-0.28 -2.791,0 -8.701,0.137 -11.032,-1.251 -5.957,-3.744 1.281,-21.964 2.863,-27.75l3.143 -9.76c3.694,-11.752 7.468,-23.584 9.651,-35.727 1.81,-10.214 2.271,-20.499 4.114,-30.812 3.954,-21.212 10.751,-41.854 18.88,-61.935 -0.28,-0.17 -0.56,-0.321 -0.851,-0.46 -5.165,12.773 -9.77,25.776 -13.484,38.98 -3.094,10.902 -5.676,22.364 -6.927,33.425 0,0 0.06,0.28 0.08,0.481 -0.03,-0.171 -0.061,-0.341 -0.08,-0.481 -0.962,7.778 -1.622,15.576 -3.124,23.264 -1.78,8.951 -5.248,20.729 -8.139,29.731 -1.902,6.097 -3.944,12.173 -5.816,18.249 -1.812,6.928 -8.259,23.465 2.302,24.576 3.975,0.571 8.149,0.341 12.173,0.4 5.536,-0.03 11.122,0.14 16.659,0.621 4.765,0.4 9.68,0.821 14.445,1.111 -0.28,0.651 -0.621,1.421 -0.821,1.812 -12.477,-0.796 -20.266,-2.115 -33.746,-2.413 -3.309,-0.073 -12.33,0.085 -14.867,-1.641 -4.855,-3.604 -0.961,-15.296 0.31,-20.432l6.898 -22.393c2.782,-9.11 5.566,-18.329 7.578,-27.669 2.144,-10.081 3.129,-21.48 4.905,-32.014 3.397,-20.147 12.866,-47.313 20.602,-66.069 -0.3,-0.1 -0.61,-0.18 -0.931,-0.24 -4.615,11.182 -8.819,22.514 -12.403,34.006 -0.792,2.52 -5.584,18.099 -5.336,19.42 -0.02,-0.12 -0.04,-0.23 -0.06,-0.32 -0.851,3.514 -1.672,7.067 -2.322,10.581 0.06,0.37 0.17,0.991 0.28,1.562 -0.11,-0.571 -0.23,-1.162 -0.28,-1.562 -1.902,9.79 -2.723,19.64 -4.425,29.431 -1.721,10.139 -5.005,21.061 -8.029,31.012 -1.842,6.016 -3.774,12.033 -5.616,18.049 -1.812,7.007 -9.34,26.187 0.481,28.289 5.025,1.081 10.271,0.741 15.376,0.961 11.367,0.328 20.198,1.577 31.184,2.333 -0.34,0.74 -0.62,1.331 -0.88,1.841 -10.437,-0.637 -20.889,-2.381 -31.295,-2.893 -4.797,-0.236 -13.286,-0.278 -17.679,-1.391 -6.927,-1.672 -3.694,-13.284 -2.583,-18.419 2.053,-8.896 7.108,-23.993 9.941,-33.706 2.353,-8.168 4.765,-16.427 6.297,-24.795 1.762,-9.48 2.813,-19.04 4.715,-28.49 4.224,-21.087 13.21,-46.356 21.463,-66.019l-1.011 -0.05c-8.23,19.683 -16.99,44.293 -21.273,65.459 -2.102,10.27 -3.173,20.661 -5.196,30.932 -0.659,3.372 -4.049,17.084 -5.275,20.601 -0.2,0.481 -0.261,0.822 -0.2,1.192 -0.03,-0.09 -0.061,-0.2 -0.061,-0.281 -2.442,8.339 -5.055,16.568 -7.518,24.856 -1.792,6.928 -8.799,25.828 -0.651,29.261 3.603,1.489 12.757,1.537 17.029,1.732 11.461,0.522 21.828,2.257 32.865,2.943 -0.4,0.821 -0.68,1.332 -0.941,1.812 -10.393,-0.465 -22.233,-2.646 -33.196,-3.434 -4.335,-0.311 -15.028,-0.635 -18.731,-2.132 -6.587,-2.753 -2.212,-16.997 -0.99,-22.393 1.762,-6.667 3.804,-13.284 5.786,-19.891 3.358,-11.241 7.441,-24.579 9.59,-35.837 3.114,-16.312 4.134,-26.006 8.74,-42.365 5.086,-17.899 11.532,-35.417 18.83,-52.585l-1.011 -0.02c-5.816,13.724 -11.092,27.639 -15.467,41.514 -0.961,3.033 -1.872,6.046 -2.723,8.999l0.231 1.251c-0.08,-0.45 -0.17,-0.941 -0.231,-1.251 -1.621,5.706 -3.153,11.382 -4.374,17.138 -2.953,14.045 -4.455,28.38 -8.51,42.194 -0.68,2.493 -1.391,5.075 -2.132,7.578 -2.723,9.56 -5.706,18.96 -8.399,28.46 -1.622,6.497 -7.348,23.414 -0.601,27.638 3.507,2.03 15.239,2.319 19.631,2.633 11.124,0.795 21.888,2.671 33.056,3.434 -0.34,0.601 -0.68,1.191 -1.051,1.792 -8.442,-0.206 -20.562,-2.323 -29.322,-3.373 -5.986,-0.712 -12.033,-1.052 -17.989,-1.732 -7.691,-1.061 -10.873,-1.877 -10.102,-12.063 0.791,-10.439 9.943,-38.612 13.305,-50.763l0.23 -0.851c4.205,-13.934 6.157,-28.35 9.25,-42.534 4.84,-21.992 15.147,-49.671 23.936,-70.093l-1.011 -0.02c-9.139,21.229 -19.174,48.339 -24.166,71.414 -2.273,10.441 -3.804,21.002 -6.327,31.383 -3.27,13.289 -7.812,27.254 -11.553,40.492 -1.281,4.565 -2.552,9.28 -3.523,13.875 -0.961,5.335 -3.004,14.695 2.182,18.158 3.555,2.152 16.923,2.758 21.683,3.234 8.572,0.856 25.784,3.773 32.836,3.773 -0.371,0.621 -0.741,1.222 -1.132,1.792 0.171,0.03 0.341,0.03 0.541,0.06 -10.982,-0.28 -21.933,-2.613 -32.835,-4.004 -5.776,-0.755 -18.521,-1.646 -23.206,-3.494 -8.369,-3.263 -0.851,-25.906 0.771,-32.694 3.344,-12.032 7.038,-24.035 10.361,-36.147 3.004,-11.012 4.886,-22.274 7.408,-33.395 2.583,-10.841 5.676,-21.513 9.22,-32.064 -0.03,-0.23 -0.03,-0.54 -0.06,-0.85l0.06 0.85c4.815,-14.375 10.421,-28.5 16.538,-42.414l-1.001 -0.02c-0.02,0.05 -0.05,0.1 -0.07,0.16 -5.616,13.224 -11.353,26.558 -15.577,40.152 0,-0.14 0,-0.261 -0.03,-0.371 -3.774,11.042 -7.208,22.103 -9.79,33.455 -2.492,10.912 -4.424,22.487 -7.328,33.195 -3.264,12.062 -6.928,24.005 -10.302,35.948 -1.591,5.706 -3.153,11.602 -4.204,17.368 -0.851,5.586 -2.493,15.035 3.694,17.708 4.337,1.797 17.768,2.841 23.185,3.514 10.611,1.282 21.363,3.694 32.004,3.944 -0.45,0.651 -0.911,1.302 -1.361,1.932 -2.443,-0.34 -3.774,-0.2 -6.157,-0.4 -7.778,-0.711 -15.747,-2.272 -23.525,-3.494 -7.148,-1.221 -14.416,-1.872 -21.563,-3.093 -2.473,-0.541 -5.246,-0.851 -7.268,-2.523 -3.154,-3.153 -2.613,-8.539 -2.243,-12.683 1.448,-13.586 12.12,-46.203 15.997,-61.495 2.323,-9.279 4.175,-18.669 6.437,-27.979 6.578,-25.907 15.988,-50.953 26.84,-75.379l-1.017 -0.038c-10.692,24.115 -19.971,48.831 -26.529,74.378 -2.31,9.158 -4.094,18.599 -6.417,27.829 -3.093,12.262 -6.927,24.345 -10.301,36.518 -2.613,9.79 -5.957,20.571 -6.247,30.502 0,5.055 1.111,9.62 6.607,10.901 3.634,1.022 7.408,1.451 11.153,1.962 6.947,0.881 13.905,1.902 20.832,3.094 5.737,0.941 11.693,1.982 17.419,2.472 1.982,0.17 3.324,0.06 5.306,0.281 -0.51,0.68 -1.051,1.361 -1.592,2.012 -4.004,-0.651 -6.587,-0.371 -10.441,-0.961 -6.497,-0.881 -13.114,-2.153 -19.581,-3.324 -7.949,-1.501 -16.008,-2.302 -23.896,-4.004 -2.043,-0.541 -4.315,-0.991 -5.906,-2.442 -3.775,-3.865 -2.553,-11.723 -1.873,-16.738 2.363,-15.665 12.472,-45.962 16.709,-63.196 1.872,-7.658 3.603,-15.376 5.586,-23.044 6.424,-24.798 17.517,-52.967 27.98,-76.32 -0.33,-0.02 -0.66,-0.04 -0.99,-0.06 -10.598,23.686 -21.505,51.493 -27.971,76.59 -1.872,7.238 -3.544,14.526 -5.306,21.793 -5.105,21.112 -12.823,41.884 -16.768,63.226 -0.881,6.097 -2.272,14.445 2.213,18.67 2.642,2.012 6.186,2.442 9.39,3.123 7.658,1.331 15.406,2.302 23.045,3.774 5.816,1.051 11.752,2.153 17.569,2.923 3.464,0.511 6.076,0.31 9.53,0.851 -0.571,0.651 -1.132,1.331 -1.762,2.042 -4.145,-0.911 -6.978,-0.57 -10.922,-1.191 -6.247,-0.881 -12.453,-2.152 -18.64,-3.343 -8.74,-1.842 -17.679,-2.834 -26.339,-5.076 -3.153,-0.85 -5.676,-1.931 -6.777,-5.245 -1.792,-5.786 -0.571,-12.032 0.43,-18.049 4.316,-21.762 11.944,-42.764 17.229,-64.297l4.515 -17.388c7.578,-26.918 17.78,-52.985 29.362,-78.442 -0.34,-0.02 -0.671,-0.04 -1.011,-0.05 -14.811,32.582 -25.076,60.416 -33.566,94.899 -5.306,21.793 -13.085,43.135 -17.449,65.128 -1.112,6.837 -3.124,17.198 1.872,22.023 1.932,1.622 4.515,2.152 6.927,2.813 8.6,1.962 17.369,3.093 26.018,4.905 5.847,1.131 11.773,2.323 17.649,3.124 3.634,0.57 6.327,0.28 10.021,1.051 -0.6,0.68 -1.191,1.391 -1.841,2.102 -4.455,-1.161 -8.089,-0.821 -12.434,-1.592 -5.956,-0.941 -11.893,-2.212 -17.789,-3.464 -8.278,-1.75 -20.251,-3.697 -27.89,-6.096 -4.485,-1.302 -5.926,-4.425 -6.387,-8.91 -0.571,-6.497 0.741,-13.164 2.072,-19.691 4.735,-21.512 12.003,-42.394 17.449,-63.736 8.355,-31.883 20.389,-62.666 34.166,-92.587 -0.34,-0.01 -0.68,-0.02 -1.021,-0.03 -14.121,30.747 -25.142,59.24 -33.857,91.686 -2.613,9.9 -5.396,19.781 -8.339,29.601 -3.684,12.793 -7.578,25.657 -10.101,38.73 -1.111,6.757 -2.833,15.716 0.281,21.793 1.421,2.753 4.454,3.804 7.237,4.625 4.395,1.251 8.91,2.072 13.365,2.983 10.132,1.99 20.928,4.431 30.933,6.066 4.085,0.711 7.378,0.371 11.603,1.422 -0.621,0.711 -1.302,1.451 -1.962,2.182 -3.514,-1.131 -7.208,-1.251 -10.412,-1.562 -6.755,-0.739 -20.845,-4.148 -27.78,-5.676 -6.247,-1.391 -12.574,-2.582 -18.7,-4.424 -3.664,-1.132 -6.557,-2.243 -7.779,-6.187 -2.182,-7.548 -0.28,-16.057 1.132,-23.755 3.063,-14.615 7.468,-28.94 11.723,-43.275l9 -31.122c8.046,-27.192 20.47,-57.175 32.475,-83.117 -0.341,0 -0.681,-0.02 -1.022,-0.03 -12.611,27.277 -24.88,57.182 -33.215,85.73 -2.783,9.419 -5.306,18.899 -8.149,28.289 -4.315,14.505 -8.739,29.03 -11.833,43.846 -1.302,6.927 -2.663,14.015 -1.672,21.002 0.961,5.906 3.494,7.888 8.97,9.51 5.676,1.702 11.462,2.813 17.229,4.084 7.854,1.711 21.112,4.987 28.721,5.987 3.523,0.43 6.897,0.34 10.641,1.471 -0.651,0.711 -1.301,1.451 -1.982,2.212 -3.544,-1.251 -7.118,-1.592 -10.702,-1.812 -5.39,-0.497 -23.578,-5.008 -29.201,-6.356 -6.217,-1.532 -12.514,-2.834 -18.59,-4.906 -5.587,-1.812 -7.238,-4.374 -7.949,-10.16 -1.654,-15.268 8.807,-48.406 13.314,-63.146 2.984,-9.68 5.737,-19.41 8.74,-29.09 9.33,-29.711 21.223,-58.512 34.467,-86.691 -0.34,0 -0.68,0 -1.031,-0.01 -12.838,27.44 -25.211,56.982 -34.157,85.82 -3.033,9.73 -5.816,19.52 -8.799,29.26 -4.175,13.735 -8.32,27.549 -11.293,41.604 -1.562,8.198 -3.604,17.788 -1.501,25.907 1.131,3.974 3.403,5.786 7.177,7.117 6.187,2.213 12.624,3.544 18.981,5.076 6.497,1.543 22.998,5.738 29.312,6.436 3.574,0.311 7.037,0.511 10.531,1.702 -0.65,0.741 -1.301,1.471 -2.012,2.273 -3.604,-1.422 -7.488,-1.963 -11.322,-2.183 -5.214,-0.474 -24.517,-5.523 -29.882,-6.927 -6.698,-1.792 -13.565,-3.323 -19.982,-6.016 -4.625,-1.702 -5.927,-6.247 -6.297,-10.751 -1.417,-18.27 11.241,-55.613 16.538,-73.237 10.802,-36.498 25.207,-71.735 41.485,-106.101 -0.341,0 -0.681,0 -1.031,0 -16.098,34.006 -30.343,68.872 -41.075,104.94 -5.635,18.653 -16.671,51.5 -16.968,70.624 -0.06,5.926 0.68,13.113 7.037,15.436 6.047,2.523 12.544,4.004 18.871,5.706 6.031,1.581 25.152,6.646 31.043,7.227 3.694,0.261 7.439,0.681 10.922,2.043 -0.681,0.77 -1.331,1.531 -2.042,2.322 -3.374,-1.451 -7.178,-2.272 -10.842,-2.523 -6.156,-0.442 -24.557,-5.589 -30.713,-7.317 -6.808,-1.963 -13.735,-3.714 -20.232,-6.527 -5.926,-2.183 -6.727,-8.829 -6.808,-14.355 -0.106,-18.64 10.216,-50.102 15.868,-68.082 11.633,-37.609 26.769,-73.987 43.747,-109.504 -0.35,0 -0.7,0 -1.041,0 -19.745,41.261 -33.368,75.699 -46.691,119.014 -4.374,14.615 -18.87,58.541 -9.9,70.484 2.235,3.093 8.009,4.817 11.552,5.956 10.562,3.395 28.316,8.167 38.883,10.471 6.043,1.318 9.021,0.463 15.576,3.124 -0.68,0.791 -1.361,1.562 -2.042,2.382 -2.723,-1.251 -5.586,-2.132 -8.509,-2.613 -2.133,-0.4 -4.035,-0.34 -6.047,-0.77 -10.306,-2.081 -36.979,-9.553 -46.23,-13.565 -1.983,-0.88 -4.115,-1.701 -5.536,-3.343 -9.791,-11.582 4.935,-56.409 9.34,-70.794 12.814,-41.384 29.583,-81.355 48.403,-120.346l-1.041 0c-19.03,39.481 -35.939,79.974 -48.843,121.877 -4.515,14.846 -17.989,56.499 -9.169,69.122 2.218,3.239 8.325,5.174 11.972,6.447 11.121,3.883 28.431,8.781 39.733,11.292 5.702,1.266 8.147,0.256 15.297,3.433 -0.68,0.791 -1.361,1.622 -2.072,2.443 -5.317,-2.642 -8.138,-2.968 -13.445,-3.604 -8.138,-0.974 -37.43,-10.3 -45.299,-13.504 -4.537,-1.847 -8.452,-3.183 -10.221,-7.698 -5.598,-14.289 4.383,-48.02 9.33,-63.727 13.869,-44.028 31.425,-84.694 51.496,-126.071 -0.34,0 -0.681,0 -1.011,0 -19.741,40.687 -37.053,80.531 -50.805,123.929 -4.835,15.259 -14.488,47.243 -10.802,63.286 1.532,6.587 4.626,8.229 10.442,10.641 8.972,3.695 37.404,12.831 46.65,14.055 5.247,0.693 7.511,0.744 13.055,3.433 -0.711,0.821 -1.392,1.672 -2.103,2.493 -3.033,-1.672 -6.437,-2.984 -9.9,-3.604 -1.792,-0.371 -3.324,-0.431 -5.136,-0.711 -9.185,-1.5 -44.788,-12.846 -51.706,-17.869 -2.035,-1.477 -2.978,-3.748 -3.664,-5.996l-0.05 2.623c0.461,0.981 1.031,1.941 1.732,2.752 0.681,14.846 1.842,29.792 4.855,44.377 3.294,15.696 9.62,30.812 18.53,44.036 -0.17,0.34 -0.34,0.68 -0.51,0.991 -18.81,-27.539 -22.788,-56.637 -24.717,-89.064 -0.01,0.351 -0.02,0.691 -0.03,1.042 -0.04,3.293 -0.05,6.426 -0.16,9.65 0.951,11.552 2.393,23.094 4.895,34.386 3.664,15.977 10.271,31.473 19.522,44.917 -0.201,0.34 -0.371,0.68 -0.541,0.991 -15.119,-21.817 -21.118,-44.07 -24.437,-69.783 -0.09,1.592 -0.18,3.213 -0.28,4.855 0.891,6.106 1.972,12.183 3.323,18.189 3.945,16.997 11.012,33.515 20.913,47.7 -0.17,0.31 -0.341,0.65 -0.511,0.991 -13.083,-18.655 -20.025,-38.4 -24.146,-60.544 -0.34,4.504 -0.444,2.983 0.561,7.678 4.115,19.151 11.803,37.85 23.095,53.797 -0.17,0.34 -0.34,0.68 -0.51,1.051 -11.731,-16.516 -19.202,-34.88 -23.836,-54.597 -0.254,2.404 -0.468,2.205 -0.01,4.084 4.685,18.329 12.374,36.038 23.355,51.443 -0.17,0.341 -0.34,0.711 -0.51,1.051 -11.135,-15.622 -18.322,-32.169 -23.566,-50.542 -0.11,0.771 -0.22,1.521 -0.34,2.272 5.075,17.518 12.774,34.426 23.445,49.242 -0.17,0.34 -0.34,0.711 -0.51,1.051 -10.612,-14.696 -18.02,-30.853 -23.355,-47.8l-0.361 2.062c5.396,16.607 13.014,32.614 23.265,46.709 -0.17,0.37 -0.341,0.741 -0.511,1.111 -10.16,-14.055 -17.588,-29.431 -23.155,-45.547 -0.11,0.64 -0.23,1.291 -0.34,1.942 5.576,15.656 13.034,30.742 22.715,44.096 0.5,0.04 0.99,0.08 1.491,0.12 10.716,-23.131 25.353,-45.368 41.095,-65.318l0.018 0.021zm81.559 -203.803l-0.451 -0.911c0.231,0.43 0.371,0.681 0.451,0.911zm-7.488 28.89c-3.504,-12.187 -3.108,-25.388 -1.161,-37.879l1.331 1.621c-4.159,32.567 6.919,40.397 7.118,56.57 -0.961,0.17 -1.932,0.4 -2.833,0.62 -0.098,-9.143 -4.47,-19.853 -4.455,-20.932zm-21.283 81.635c-0.09,-0.62 -0.03,-1.421 0.23,-2.322 -0.09,0.821 -0.17,1.622 -0.23,2.322zm-8.86 7.098c-4.935,-2.012 2.724,-13.874 4.345,-17.619 2.984,-5.815 6.017,-11.892 8.49,-18.108 -0.431,2.442 -0.851,5.165 -1.282,7.808l-6.557 12.543c-3.344,6.187 -8.059,16.628 2.212,14.355 -2.412,0.621 -4.965,1.452 -7.208,1.021l0 0zm8.55 -2.332c-5.106,1.451 -8.089,0.96 -6.047,-5.276 2.012,-5.586 5.786,-11.662 8.6,-17.338 -0.621,4.394 -0.281,4.454 -2.583,8.318 -2.353,4.285 -7.979,14.525 0.03,14.135l0 0.161zm1.501 -15.206c-0.2,1.531 -0.37,3.003 -0.54,4.394 -1.362,2.643 -2.273,6.327 -1.021,7.718 0.323,0.416 0.146,0.99 0.09,1.962 -7.348,0.711 -0.201,-10.721 1.471,-14.074l0 0zm-91.008 -32.715c-0.061,-0.09 -0.111,-0.2 -0.111,-0.31 0.03,0.11 0.061,0.2 0.111,0.31zm44.948 122.578l1.162 0.561c-0.153,1.026 -1.171,1.998 -1.983,2.983l0.821 -3.544zm-0.851 -0.39c-0.48,1.902 -0.911,3.694 -1.301,5.566 -0.571,0.711 -1.112,1.391 -1.672,2.072 0.48,-2.553 1.131,-5.416 1.792,-8.169 0.43,0.201 0.821,0.371 1.191,0.541l-0.01 -0.01zm-2.072 -0.881l-2.122 10.01c-0.511,0.651 -1.021,1.282 -1.502,1.902 0.571,-4.034 1.472,-8.258 2.383,-12.342 0.43,0.14 0.85,0.28 1.251,0.43l-0.01 0zm-2.122 -0.71c-1.082,4.735 -2.043,9.359 -2.663,14.074 -0.451,0.57 -0.911,1.161 -1.392,1.762 0.541,-5.396 1.642,-10.781 2.783,-16.177 0.431,0.11 0.851,0.23 1.282,0.341l-0.01 0zm-2.193 -0.541c-1.281,5.926 -2.472,11.752 -2.923,17.709 -0.43,0.54 -0.821,1.081 -1.251,1.621 0.281,-6.527 1.562,-13.084 2.833,-19.581l1.332 0.261 0.009 -0.01zm-2.262 -0.401c-1.392,7.007 -2.753,13.965 -2.893,21.002 -0.4,0.511 -0.791,1.051 -1.161,1.532 -0.11,-7.608 1.301,-15.066 2.723,-22.734 0.45,0.06 0.881,0.11 1.331,0.2l0 0zm-3.604 -0.48c0.511,0.11 0.961,0.17 1.331,0.2 -1.501,8.058 -2.983,15.947 -2.692,24.005 -0.371,0.48 -0.711,0.961 -1.082,1.421 -0.6,-8.509 0.911,-17.028 2.413,-25.626l0.03 0zm-0.941 -0.17c-1.562,8.879 -3.173,18.109 -2.353,26.958 -0.31,0.45 -0.65,0.911 -0.991,1.331 -1.191,-9.51 0.451,-19.1 1.983,-28.57 0.48,0.111 0.941,0.201 1.361,0.281zm-3.604 -0.821c0.451,0.11 0.881,0.23 1.302,0.34 -1.592,9.871 -3.324,19.951 -1.842,29.881 -0.31,0.431 -0.621,0.851 -0.941,1.282 -1.842,-10.441 -0.14,-21.052 1.421,-31.493l0.06 0 0 -0.01zm-0.961 -0.23c-1.642,10.841 -3.404,21.963 -1.251,32.774 -0.31,0.401 -0.601,0.821 -0.881,1.221 -2.613,-11.352 -0.851,-22.904 0.741,-34.365 0.451,0.11 0.941,0.23 1.392,0.37l-0.001 0zm-2.923 -0.791c0.2,0.06 0.4,0.11 0.601,0.17 -1.642,11.942 -3.434,23.925 -0.541,35.637 -0.26,0.401 -0.541,0.791 -0.821,1.191 -3.324,-12.232 -1.622,-24.685 -0.03,-37.198 0.26,0.06 0.541,0.14 0.791,0.2l0 0zm-1.702 -0.45c-1.672,12.823 -3.404,26.077 0.26,38.449 -0.26,0.371 -0.54,0.771 -0.79,1.131 -4.145,-12.993 -2.473,-26.587 -0.912,-40.011 0.481,0.14 0.962,0.28 1.452,0.431l-0.01 0zm-2.362 -0.681c-1.622,13.764 -3.324,27.919 1.161,41.263 -0.261,0.37 -0.511,0.741 -0.771,1.111 -4.965,-13.935 -3.373,-28.46 -1.842,-42.795 0.481,0.14 0.961,0.281 1.452,0.431l0 -0.01zm-2.353 -0.711c-1.622,14.695 -3.174,29.991 2.102,44.036 -0.23,0.34 -0.48,0.711 -0.711,1.051 -5.786,-14.555 -4.374,-30.252 -2.863,-45.518l1.472 0.431zm-2.383 -0.711c-1.591,15.606 -2.953,32.033 3.124,46.759 -0.231,0.34 -0.451,0.681 -0.681,1.051 -6.607,-15.406 -5.396,-32.004 -3.914,-48.271 0.51,0.14 0.991,0.311 1.471,0.451l0 0.01zm-3.093 -0.971c0.231,0.09 0.451,0.14 0.711,0.23 -1.562,16.688 -2.723,33.966 4.205,49.492l-0.681 1.021c-7.438,-16.087 -6.437,-33.765 -5.025,-50.993 0.26,0.09 0.51,0.17 0.79,0.26l0 -0.01zm-3.264 -1.041c0.511,0.17 1.021,0.34 1.532,0.51 -1.502,17.589 -2.353,36.128 5.366,52.215 -0.231,0.31 -0.431,0.651 -0.651,0.991 -8.229,-16.627 -7.548,-35.557 -6.247,-53.716zm-2.472 -0.801c0.51,0.171 1.051,0.341 1.562,0.511 -1.422,18.449 -2.012,38.019 6.557,54.937 -0.231,0.34 -0.431,0.651 -0.651,0.991 -9.05,-17.399 -8.679,-37.339 -7.468,-56.439l0 0zm-2.493 -0.851l1.592 0.541c-1.302,19.55 -1.622,39.922 7.809,57.69 -0.2,0.31 -0.431,0.651 -0.621,0.961 -9.901,-18.129 -9.871,-39.041 -8.77,-59.192l-0.01 0zm-2.523 -0.851c0.541,0.171 1.081,0.371 1.622,0.541 -1.131,20.912 -1.251,41.543 9.11,60.443 -0.2,0.31 -0.401,0.621 -0.601,0.961 -10.722,-18.81 -11.092,-40.772 -10.131,-61.945l0 0zm-2.553 -0.911c0.541,0.201 1.082,0.401 1.642,0.601 -1.021,21.883 -0.621,43.786 10.442,63.196 -0.171,0.31 -0.371,0.621 -0.571,0.961 -11.723,-20.201 -12.263,-42.024 -11.523,-64.758l0.01 0zm-2.582 -0.931c0.54,0.2 1.111,0.401 1.641,0.621 -0.79,23.214 -0.09,45.627 11.893,65.999 -0.2,0.31 -0.37,0.62 -0.57,0.941 -12.624,-21.282 -13.455,-43.476 -12.964,-67.561zm-2.643 -0.971c0.57,0.201 1.131,0.431 1.702,0.621l0 0.37c-0.511,24.346 0.45,46.989 13.364,68.472 -0.2,0.34 -0.4,0.651 -0.57,0.961 -13.505,-22.193 -14.696,-45.177 -14.496,-70.434l0 0.01zm-0.941 -0.36l0 0.11c-0.26,25.657 1.111,49.292 14.896,71.625 -0.2,0.31 -0.37,0.65 -0.571,0.961 -14.305,-22.905 -16.007,-47.08 -16.037,-73.377l1.712 0.681zm-2.633 -1.051c0.03,26.928 1.672,51.223 16.458,74.688 -0.2,0.31 -0.37,0.651 -0.54,0.961 -15.267,-23.895 -17.309,-48.831 -17.679,-76.36 0.57,0.231 1.161,0.481 1.761,0.711l0 0zm-2.723 -1.111c0.328,27.978 2.431,53.255 18.1,77.691 -0.171,0.341 -0.341,0.651 -0.541,0.961 -9.871,-15.236 -15.667,-32.974 -17.509,-50.963 -1.051,-9.45 -1.622,-19.01 -1.842,-28.49 0.601,0.261 1.192,0.541 1.792,0.791l0 0.01zm-2.723 -1.251c0.745,29.712 3.1,55.19 19.782,80.874 -0.171,0.31 -0.371,0.651 -0.541,0.961 -17.123,-25.993 -19.963,-52.604 -21.083,-82.747 0.541,0.281 1.192,0.601 1.842,0.912zm-0.26 38.82c-2.643,-13.674 -3.774,-27.699 -4.455,-41.573 0.571,0.51 1.191,0.911 1.902,1.301l0 0.261c0.541,13.624 1.451,27.328 4.004,40.753 2.923,15.326 8.94,30.221 17.569,43.215 -0.2,0.31 -0.37,0.65 -0.541,0.99 -9.02,-13.474 -15.296,-29 -18.47,-44.946l-0.009 -0.001zm129.12 50.883c-2.353,-0.791 -4.545,-2.102 -7.068,-2.412 -3.834,-0.481 -7.068,2.492 -8.679,5.736 -0.891,1.632 -1.602,3.393 -2.443,5.075 0.361,-0.03 0.721,-0.06 1.071,-0.09 1.839,-3.76 4.06,-10.139 9.571,-9.811 4.485,0.267 9.392,5.366 17.869,2.623 -0.05,-0.31 -0.13,-0.62 -0.22,-0.941 -3.174,1.061 -6.608,1.101 -10.101,-0.17l0 -0.01zm-94.983 -26.307c4.254,-7.008 8.849,-13.795 14.105,-20.121 3.063,-3.864 6.357,-7.518 9.451,-11.352 2.983,-3.744 5.876,-7.548 9.139,-11.042 5.336,-5.816 10.702,-11.632 15.917,-17.508 9.786,-10.991 13.298,-14.114 18.961,-28.35 3.365,-8.458 6.567,-15.371 6.978,-24.575 0.11,-2.303 -0.09,-4.565 0.2,-6.838 1.553,-13.232 4.407,-32.707 7.718,-45.517 1.252,-4.795 2.323,-7.438 6.187,-10.191 4.945,-3.313 11.092,-4.965 17.229,-5.976 0.09,-0.321 0.17,-0.641 0.25,-0.981 -9.01,1.461 -19.261,4.434 -22.845,11.662 -3.385,7.443 -9.119,43.567 -9.63,52.695 -0.08,2.692 0.06,5.445 -0.31,8.168 -0.771,6.667 -3.264,12.854 -5.787,19.01 -6.47,16 -8.215,17.495 -19.381,29.911 -5.335,6.016 -10.841,12.003 -16.317,17.959 -3.574,3.864 -6.728,8.119 -10.041,12.203 -10.09,12.209 -13.269,15.346 -21.884,29.14 -7.973,12.767 -13.858,22.614 -20.352,36.629 0.31,0.02 0.62,0.04 0.931,0.06 5.598,-12.051 12.393,-23.779 19.491,-35.016l-0.01 0.03zm98.096 29.09c-2.863,-0.821 -5.396,-2.583 -8.399,-3.003 -2.693,-0.341 -5.476,1.161 -7.118,3.293 -1.221,1.532 -2.052,3.304 -2.863,5.086l1.071 -0.09c0.741,-1.592 1.522,-3.144 2.593,-4.485 4.375,-4.965 7.999,-2.443 12.994,-0.4 1.772,0.721 3.674,1.121 5.596,1.211 0.627,-0.072 2.266,-0.556 2.733,-1.021 -2.132,0.29 -4.345,0.13 -6.597,-0.581l-0.01 -0.01zm-1.812 -185.384c-4.478,5.754 -10.31,33.355 -11.862,41.024 -1.381,6.824 -1.043,2.956 -0.741,9.76 0.151,3.396 -0.401,7.887 -0.251,9.019 -0.06,0.481 -0.14,0.961 -0.2,1.452 -0.26,1.301 0.03,1.902 -0.28,3.003l-3.794 14.415c-0.547,2.521 0.114,0.998 -0.791,3.373 -0.621,1.732 -1.051,3.204 -1.622,4.716 -1.762,4.254 -4.485,8.628 -7.578,12.112 -2.663,3.174 -5.926,5.986 -8.8,9.02 -3.123,3.373 -6.126,6.897 -9.62,9.9 -3.804,3.513 -8.429,5.586 -12.263,9.049 -3.319,3.114 -5.6,7.967 -8.879,11.102 -1.672,1.592 -3.575,2.723 -5.306,4.224 -4.886,4.145 -9.901,8.259 -13.565,13.564 -2.383,3.514 -4.035,7.488 -5.906,11.292 -1.902,3.864 -4.055,7.608 -6.127,11.382 -2.473,4.334 -4.735,8.799 -6.898,13.304 0.341,0 0.691,0 1.042,0.01 1.832,-3.784 3.714,-7.548 5.746,-11.212 2.302,-4.174 4.715,-8.319 6.867,-12.603 1.962,-3.914 3.604,-8.029 6.077,-11.662 6.13,-8.916 17.129,-15.434 20.312,-19.32 2.412,-2.893 4.224,-6.267 6.897,-9 3.374,-3.323 7.689,-5.245 11.292,-8.319 4.055,-3.263 7.439,-7.237 10.952,-11.011 2.693,-2.923 5.787,-5.536 8.369,-8.509 3.324,-3.684 6.247,-8.229 8.149,-12.774l2.293 -6.636c-0.24,-1.635 4.557,-16.485 4.254,-17.679 -0.11,-0.771 0.26,-2.382 0.31,-3.323l0.29 -5.086c0.11,-2.813 -0.2,-5.956 -0.31,-8.679 1.592,-7.378 3.153,-14.845 4.935,-22.193 1.532,-6.247 3.434,-13.764 5.737,-19.44 1.341,-3.664 3.914,-6.207 7.017,-8.069 0.081,-0.41 0.16,-0.81 0.251,-1.191 -2.283,1.271 -4.355,2.873 -5.987,4.955l-0.01 0.03zm2.323 3.294c-5.229,7.18 -11.267,31.899 -12.744,40.302 -1.061,6.038 -0.263,5.187 -0.06,11.432 0.11,2.102 -0.371,4.454 -0.2,6.467 -0.061,0.941 -0.231,1.901 -0.231,2.782 0.09,0.741 0.09,0.821 -0.17,1.982 -0.711,3.234 -1.592,6.467 -2.383,9.681 -0.48,2.102 -1.281,4.825 -1.281,6.756 -0.791,2.102 -1.361,4.175 -2.073,6.217 -2.072,5.336 -5.586,10.441 -9.59,14.525 -2.383,2.523 -4.935,4.655 -7.238,7.148 -3.834,4.084 -7.438,8.338 -12.033,11.632 -3.293,2.443 -7.007,3.944 -10.131,6.637 -5.079,4.454 -5.547,10.037 -14.195,15.206l-1.081 0.881c-4.565,4.624 -10.581,7.948 -14.016,13.644 -2.272,3.574 -3.743,7.548 -5.566,11.352 -3.49,7.24 -7.744,14.128 -11.462,21.823 0.341,0 0.68,0 1.031,0.01 3.655,-7.507 7.942,-14.473 11.342,-21.543 1.792,-3.774 3.263,-7.717 5.506,-11.262 3.374,-5.505 9.22,-8.739 13.705,-13.193 1.148,-1.328 5.118,-2.868 8.459,-7.318 5.506,-7.518 5.135,-8.539 13.704,-13.334 6.469,-3.707 10.743,-8.922 15.748,-14.245 2.152,-2.322 4.425,-4.204 6.697,-6.587 4.205,-4.255 7.919,-9.62 10.041,-15.206 0.681,-1.982 1.251,-4.054 2.043,-6.156 0.06,-2.302 0.88,-4.965 1.451,-7.438 0.851,-3.544 1.872,-6.867 2.473,-10.501 -0.141,-1.161 0.09,-2.383 0.2,-3.634 0.029,-0.23 0,-0.09 -0.03,-0.23 -0.14,-1.562 0.26,-3.404 0.2,-5.055 -0.16,-8.753 -1.288,-6.272 0.63,-15.236 1.633,-7.63 7.341,-31.015 11.833,-36.799 2.187,-2.815 1.705,-0.863 2.083,-3.444 -0.991,0.811 -1.902,1.702 -2.683,2.703l0.021 0.001zm-5.216 175.053c-2.983,-0.431 -5.586,-1.962 -8.539,-2.493 -3.173,-0.62 -6.387,1.362 -8.089,3.945 -2.72,3.99 -3.665,8.957 -7.468,11.681 0.541,-0.029 1.071,-0.06 1.602,-0.09 1.131,-1.051 2.042,-2.352 2.773,-3.704 2.933,-5.292 4.921,-13.658 13.875,-10.1 5.396,2.182 10.241,2.783 15.667,0 0.2,-0.11 0.4,-0.22 0.591,-0.341 -0.07,-0.34 -0.131,-0.67 -0.191,-1.001 -2.953,1.763 -6.237,2.703 -10.221,2.102l0 0.001zm-17.258 -2.133c-3.034,3.204 -3.915,7.859 -6.728,11.212 -4.034,4.655 -7.518,2.953 -12.794,3.033 -2.182,0.741 -4.625,0.851 -6.927,1.332 -0.631,0.12 -1.262,0.25 -1.892,0.39 2.062,-0.03 4.044,-0.07 5.946,-0.11 1.051,-0.17 2.102,-0.37 3.093,-0.671 3.088,-0.457 9.026,2.365 13.765,-3.944 2.984,-3.864 3.714,-9.56 8.199,-12.142 5.5,-3.238 11.556,5.191 22.044,-0.23 0.881,-0.461 1.702,-1.002 2.493,-1.572 0,-0.4 0,-0.791 -0.01,-1.181 -2.053,1.572 -4.315,2.833 -6.938,3.323 -8.679,2.133 -13.645,-6.046 -20.262,0.571l0.011 -0.011zm15.156 8.339c-3.994,-0.41 -6.879,2.628 -8.609,5.927 0.38,-0.04 0.75,-0.081 1.121,-0.121 5.227,-9.269 12.456,-2.483 14.225,-2.332 0.531,-0.13 1.052,-0.26 1.562,-0.391 -2.875,-1.054 -5.556,-2.8 -8.299,-3.073l0 -0.01zm-9.731 -180.638c-2.412,11.832 -4.484,24.035 -5.926,35.867 -0.14,1.451 0.06,2.953 0,4.425 -0.241,9.261 -2.518,15.023 -5.766,23.644 -2.77,7.352 -4.114,11.801 -9.421,18.85 -3.544,4.735 -7.859,8.879 -11.773,13.334 -2.833,3.173 -5.786,6.417 -8.829,9.48 -2.813,2.833 -5.736,5.586 -8.459,8.539 -2.923,3.233 -5.336,6.837 -8.169,10.16 -3.744,4.145 -7.608,8.199 -11.182,12.543 -4.485,5.226 -8.089,11.092 -11.523,17.058 -3.203,5.276 -6.437,10.551 -9.45,15.977 -3.174,5.786 -6.227,11.652 -9.05,17.628 0.341,0.02 0.671,0.04 1.011,0.06 2.483,-5.225 5.136,-10.35 7.879,-15.445 3.153,-5.817 6.607,-11.463 10.041,-17.139 3.514,-6.046 7.147,-12.062 11.723,-17.398 3.603,-4.425 7.548,-8.539 11.352,-12.773 2.783,-3.264 5.196,-6.867 8.089,-10.041 2.833,-3.063 5.906,-5.926 8.829,-8.909 3.204,-3.263 6.217,-6.607 9.22,-9.991 8.988,-10.093 12.88,-12.643 18.42,-25.736l1.812 -4.885c1.502,-4.114 3.263,-8.339 4.425,-12.513 0.919,-3.959 1.541,-7.076 1.732,-11.352 0.14,-2.072 -0.17,-4.114 0.11,-6.157 1.363,-10.511 4.33,-29.66 6.918,-39.981 1.591,-5.876 1.672,-8.429 4.374,-12.173 3.854,-4.544 10.341,-6.807 16.758,-8.168 0.11,-0.341 0.211,-0.681 0.321,-1.041 -6.177,1.261 -12.344,3.303 -16.688,7.367 -4.455,4.395 -5.075,12.113 -6.777,18.79l-0.001 -0.02zm2.043 166.283c-2.473,-0.651 -5.076,-1.562 -7.608,-0.62 -5.706,2.102 -6.528,8.999 -10.071,13.193 -3.775,4.375 -7.268,3.124 -12.314,3.294 -1.191,0.62 -2.643,0.741 -3.974,1.081 -5.219,1.191 -9.842,1.923 -14.696,5.105l1.812 0c3.494,-1.952 7.628,-3.063 11.402,-3.864 1.902,-0.45 3.945,-0.62 5.706,-1.391 1.422,-0.03 2.863,0 4.225,0.029 11.408,0.614 10.537,-12.507 17.369,-16.196 6.369,-3.439 13.092,7.497 26.748,-5.356 -0.04,-0.38 -0.089,-0.761 -0.129,-1.151 -5.856,5.564 -10.656,8.001 -18.481,5.876l0.011 0zm5.075 -128.995c-2.592,11.573 -0.821,6.172 -0.771,17.019 0.03,1.501 -0.31,3.233 -0.06,4.684 -0.06,1.162 -0.31,2.413 -0.09,3.575l-3.294 15.636c-0.31,1.762 -0.11,2.582 -0.711,3.914 -0.711,2.072 -1.051,3.864 -1.812,5.736 -2.152,5.366 -5.586,10.271 -9.68,14.355 -2.073,2.152 -4.375,4.034 -6.438,6.186 -7.915,8.151 -9.415,11.095 -20.091,16.427 -8.358,4.175 -7.979,12.41 -17.93,17.539 -1.148,0.592 -0.429,0.226 -1.592,1.331 -4.655,4.205 -10.531,7.318 -13.905,12.793 -2.322,3.664 -3.714,7.749 -5.506,11.663 -2.955,6.443 -6.939,13.051 -10.201,19.72 0.341,0 0.691,0 1.031,0.01 3.155,-6.413 6.888,-12.598 9.821,-18.899 1.792,-3.865 3.173,-7.949 5.396,-11.603 3.429,-5.684 9.186,-8.684 14.135,-13.103 0.4,-0.341 0.651,-0.851 1.161,-1.021 2.383,-1.192 4.455,-2.813 6.327,-4.685 3.173,-3.294 4.965,-7.718 8.459,-10.751 3.624,-3.062 7.895,-3.664 14.215,-9.17 3.374,-2.953 6.187,-6.357 9.341,-9.56 2.072,-2.153 4.374,-4.035 6.437,-6.217 4.315,-4.284 7.979,-9.53 10.131,-15.266 0.771,-2.212 1.251,-4.344 2.102,-6.607 0.06,-3.203 1.161,-6.867 1.842,-10.131 0.321,-1.461 1.801,-7.239 1.672,-8.508 -0.17,-1.132 0.08,-2.353 0.14,-3.514 -0.239,-1.369 0.062,-4.845 -0.03,-6.807 -0.209,-4.449 -0.903,-4.965 -0.371,-8.65 1.161,-6.807 3.094,-13.564 5.056,-20.201 2.052,-6.426 4.154,-12.983 6.677,-17.538 0.08,-0.691 0.16,-1.412 0.24,-2.142 -4.756,7.39 -9.545,24.657 -11.723,33.815l0.022 -0.03zm-1.332 89.324c-8.258,6.977 -12.623,15.746 -24.717,16.087 -6.115,0.391 -8.459,3.536 -11.322,8.709 -2.983,5.586 -6.046,7.828 -12.373,8.769 -1.192,1.132 -2.814,1.762 -4.315,2.473 -1.963,0.881 -3.975,1.731 -5.877,2.782 -11.249,6.049 -10.219,12.173 -13.885,22.674 0.33,0 0.661,0.01 0.991,0.02 3.282,-9.86 2.81,-16.08 12.694,-21.522 1.932,-1.082 3.974,-1.983 5.986,-2.863 1.672,-0.791 3.434,-1.472 4.855,-2.663 5.757,-0.851 9.42,-3.153 12.234,-8.319 2.938,-5.176 4.774,-8.701 11.011,-9.079 13.406,-0.814 16.636,-9.153 25.138,-16.198 3.073,-2.462 6.186,-4.955 8.909,-7.828 -0.029,-0.42 -0.07,-0.83 -0.1,-1.251 -2.783,3.063 -6.027,5.666 -9.24,8.229l0.011 -0.02zm-138.83 52.765c0.781,1.171 1.632,2.312 2.543,3.424 0.49,0.12 0.991,0.24 1.491,0.36 -1.372,-1.572 -2.613,-3.213 -3.714,-4.925 -0.11,0.39 -0.23,0.77 -0.31,1.141l-0.01 0zm6.988 -163.231c-0.351,-1.561 -0.822,-3.203 -1.352,-4.815 0.16,1.803 0.351,3.614 0.541,5.416 0.28,1.271 0.51,2.553 0.67,3.854 0.291,2.493 0.441,4.975 0.551,7.458l1.331 13.814c-0.1,-3.514 -0.2,-7.028 -0.32,-10.511 -0.14,-5.106 -0.23,-10.211 -1.421,-15.206l0 -0.01zm108.207 128.945c-6.519,0.232 -8.668,5.254 -11.553,10.161 -2.833,4.935 -6.266,6.417 -11.752,7.117 -1.252,1.132 -2.893,1.702 -4.425,2.383 -2.153,0.881 -4.315,1.762 -6.387,2.863 -9.941,5.125 -10.261,11.031 -12.934,20.521 0.32,0 0.651,0 0.981,0.01 2.373,-8.288 2.663,-14.395 11.472,-19.2 2.183,-1.251 4.545,-2.212 6.868,-3.203 1.672,-0.711 3.433,-1.332 4.855,-2.493 5.055,-0.62 8.849,-2.212 11.602,-6.697 3.082,-4.857 4.843,-10.45 11.573,-10.531 14.025,-0.168 16.889,-8.21 25.367,-15.326 2.814,-2.272 5.376,-4.304 7.698,-6.417 -0.04,-0.39 -0.08,-0.781 -0.11,-1.181 -2.372,2.242 -5.055,4.374 -8.008,6.747 -8.77,7.658 -12.173,15.356 -25.258,15.236l0.011 0.01zm-114.534 31.753c1.401,2.353 3.063,4.585 4.975,6.697 0.561,0.13 1.131,0.261 1.702,0.391 -2.503,-2.633 -4.625,-5.496 -6.347,-8.569 -0.11,0.51 -0.22,1.001 -0.33,1.482l0 -0.001zm129.2 -22.363c-5.918,0.857 -11.44,-3.178 -16.318,4.735 -2.663,4.315 -4.545,10.041 -10.07,11.322 -1.842,0.4 -3.805,0.4 -5.707,0.62 -0.821,0.651 -1.931,0.941 -2.923,1.302 -5.702,1.968 -11.586,3.208 -16.288,7.998 -2.182,2.202 -3.353,4.895 -4.164,7.748 0.33,0 0.651,0 0.981,0.01 2.386,-8.274 7.755,-10.815 15.557,-13.524 2.382,-0.881 5.025,-1.331 7.178,-2.643 1.841,-0.2 3.663,-0.23 5.445,-0.601 8.803,-1.851 8.577,-13.08 15.207,-15.866 4.605,-1.936 10.514,2.909 19.671,-3.654 3.944,-2.828 7.978,-7.819 12.443,-11.453 -0.06,-0.35 -0.12,-0.7 -0.19,-1.041 -7.126,5.748 -12.288,14 -20.833,15.016l0.011 0.031zm-106.666 -147.244c11.463,-33.855 26.018,-66.54 41.004,-98.973 -0.06,0.17 -0.08,0.34 -0.139,0.51 2.943,-6.197 5.936,-12.373 8.959,-18.529 -0.361,0 -0.711,0.009 -1.071,0.02 -2.132,4.334 -4.244,8.679 -6.317,13.013 1.462,-4.504 3.344,-8.849 5.566,-13.003 -0.36,0 -0.72,0.01 -1.081,0.02 -3.063,5.776 -5.456,11.873 -6.978,18.249 -1.561,3.294 -3.093,6.587 -4.624,9.901 1.001,-9.921 4.314,-19.401 9.149,-28.07 -0.37,0.01 -0.74,0.03 -1.121,0.04 -5.166,9.41 -8.549,19.741 -9.19,30.522 -1.081,2.322 -2.132,4.655 -3.173,6.977 -0.551,-13.264 3.344,-26.017 9.9,-37.359 -0.38,0.02 -0.75,0.05 -1.131,0.07 -6.757,11.902 -10.621,25.336 -9.62,39.161 -0.881,1.902 -1.732,3.804 -2.583,5.706 -2.492,-15.847 1.742,-31.313 9.781,-44.727 -0.371,0.01 -0.751,0.02 -1.121,0.02 -8.209,13.935 -12.354,29.991 -9.34,46.258 -0.681,1.532 -1.362,3.063 -2.013,4.565 -4.995,-17.729 -0.49,-35.667 9.02,-50.823 -0.36,0 -0.721,0 -1.081,0.01 -9.64,15.606 -14.095,34.085 -8.509,52.114l-1.672 3.834c-7.879,-18.96 -3.094,-39.181 7.798,-55.788l-1.151 0.07c-10.912,17.008 -15.587,37.78 -7.158,56.91 -0.481,1.111 -0.961,2.212 -1.422,3.323 -10.771,-19.901 -6.006,-41.963 5.937,-59.642 -0.601,0.25 -1.172,0.57 -1.722,0.931 -11.513,18.039 -15.797,40.432 -4.705,59.852 -0.431,0.991 -0.851,1.983 -1.282,2.983 -12.583,-18.719 -9.6,-40.782 1.162,-58.851l-2.033 1.661c-9.981,18.13 -12.193,39.892 0.411,58.272 -0.37,0.911 -0.771,1.841 -1.132,2.752 -14.325,-18.219 -12.893,-40.502 -2.853,-58.991l-1.371 0.56c-9.731,18.86 -10.672,41.514 3.774,59.482 -0.341,0.851 -0.711,1.702 -1.051,2.553 -16.218,-18.97 -16.098,-41.734 -6.037,-60.693l-1.461 0.59c-9.761,19.531 -8.85,42.985 7.068,61.144l-0.991 2.383c-5.907,-8.199 -11.973,-16.688 -14.847,-26.478 -2.763,-12.423 -0.17,-24.856 5.677,-35.787 -0.421,0.15 -0.841,0.3 -1.252,0.44 -5.386,10.511 -7.858,22.343 -5.665,34.216 2.662,10.671 9.279,19.751 15.697,28.63 -0.311,0.771 -0.621,1.531 -0.941,2.272 -7.068,-9.42 -14.816,-19.27 -17.91,-30.842 -2.162,-11.562 0.31,-23.024 5.676,-33.155 -0.42,0.151 -0.841,0.301 -1.261,0.451 -5.286,10.381 -7.618,22.073 -5.146,33.695 3.374,11.523 11.092,21.423 18.25,30.873l-0.881 2.192c-7.888,-10.16 -16.568,-20.542 -20.492,-32.975 -2.463,-11.412 -0.11,-22.783 5.186,-32.814 -0.401,0.11 -0.801,0.231 -1.202,0.341 -5.256,10.311 -7.477,21.943 -4.685,33.415 4.175,12.403 12.794,22.844 20.802,33.034 -0.28,0.711 -0.57,1.422 -0.85,2.133 -8.66,-10.872 -18.3,-21.823 -23.075,-35.097 -2.834,-11.312 -0.541,-22.704 4.815,-32.704 -0.391,0.1 -0.781,0.19 -1.162,0.281 -5.225,10.11 -7.418,21.562 -4.524,32.784 4.855,13.504 14.726,24.656 23.555,35.757 -0.28,0.711 -0.571,1.421 -0.821,2.132 -9.42,-11.892 -20.322,-23.434 -25.848,-37.769 -2.923,-11.071 -0.62,-22.343 4.755,-32.203 -0.42,0.1 -0.831,0.21 -1.241,0.31 -5.226,9.93 -7.408,21.232 -4.365,32.233 5.586,14.616 16.738,26.338 26.309,38.451 -0.28,0.74 -0.571,1.471 -0.851,2.212 -9.991,-13.054 -22.274,-25.087 -28.571,-40.553 -3.083,-10.821 -0.811,-21.903 4.545,-31.563 -0.451,0.131 -0.871,0.271 -1.302,0.411 -4.975,9.399 -7.107,20.111 -4.405,30.582 6.097,16.177 19.071,28.569 29.342,42.134l-0.881 2.322c-10.531,-14.645 -24.627,-27.269 -31.524,-44.206 -2.783,-10.171 -0.671,-20.561 4.295,-29.631 -0.471,0.2 -0.931,0.4 -1.392,0.61 -4.585,8.89 -6.496,18.96 -3.944,28.801 6.757,17.538 21.483,30.421 32.175,45.487l-0.941 2.462c-10.702,-16.146 -26.309,-29.17 -34.107,-47.129 -0.281,-0.911 -0.491,-1.832 -0.691,-2.743 0.29,1.662 0.581,3.414 0.861,5.236 7.948,17.208 23.335,29.921 33.536,45.748l-0.992 2.692c-8.899,-14.825 -22.014,-26.658 -31.454,-41.052 0.08,0.57 0.171,1.151 0.25,1.721 8.349,12.844 21.414,25.667 30.774,40.463l-1.081 2.953c-7.348,-14.245 -19.161,-25.447 -28.892,-38.06 0.1,0.611 0.19,1.211 0.29,1.822 8.189,10.611 18.5,21.382 25.899,33.294 -0.061,-0.17 -0.111,-0.34 -0.171,-0.51 0.651,1.621 1.702,3.033 2.443,4.654l-1.141 3.264c-1.362,-2.984 -2.833,-5.786 -4.565,-8.659 0.14,0.341 0.28,0.681 0.4,1.021 -5.756,-10.641 -14.215,-19.52 -22.114,-28.76 0.121,0.661 0.25,1.311 0.371,1.952 9.45,11.322 20.082,22.924 25.458,35.757l-1.242 3.604c-1.421,-3.664 -3.033,-7.147 -4.965,-10.611l0.23 0.68c-3.533,-8.058 -11.011,-16.707 -18.63,-25.426 0.15,0.661 0.29,1.301 0.431,1.922 9.089,10.591 17.909,21.352 22.454,34.846l-1.362 4.114c-1.111,-3.714 -2.552,-7.347 -4.174,-10.871l0.23 1.051c-3.633,-9.27 -9.72,-17.338 -16.167,-25.006 0.19,0.77 0.37,1.471 0.52,2.092 6.077,7.418 11.623,15.186 15.417,24.165 1.422,3.294 2.753,6.757 3.634,10.191l-1.672 5.306c-1.8,-12.281 -8.744,-25.021 -16.267,-34.997 0.02,0.51 -0.06,1.011 -0.14,1.482 3.734,5.055 7.138,10.36 9.911,16.076 -0.2,-0.34 -0.4,-0.71 -0.601,-1.051 3.123,6.587 5.957,13.504 6.357,20.852l-2.302 7.798c0.47,-14.515 -5.006,-27.358 -12.774,-39.051 0.17,0.741 0.34,1.562 0.51,2.443 2.022,3.193 3.874,6.507 5.476,9.99 -0.09,-0.11 -0.14,-0.23 -0.23,-0.34 3.604,7.578 6.046,15.546 6.016,24.005 0.044,7.974 0.643,3.905 -1.341,11.662 -0.341,1.302 -0.621,2.583 -0.941,3.834 -0.09,-4.654 -0.171,-9.139 -0.281,-13.764 0,-10.471 -3.003,-20.051 -7.668,-28.95 0.15,1.041 0.29,2.092 0.42,3.113 3.804,7.949 6.377,16.487 6.287,25.327 0.171,6.046 0.281,12.062 0.371,18.129 -0.671,3.153 -1.242,6.226 -1.762,9.319l0.25 4.805c2.258,-17.25 7.946,-36.072 13.454,-52.315l-0.019 0.021zm41.285 -100.084c-0.17,0.14 -0.31,0.31 -0.401,0.48 0.061,-0.2 0.231,-0.34 0.401,-0.48zm-48.012 87.681c0.23,0.511 0.451,0.991 0.68,1.502 -0.23,-0.51 -0.48,-0.991 -0.68,-1.502zm1.732 3.634c0.2,0.341 0.43,0.851 0.54,1.251 -0.17,-0.43 -0.34,-0.821 -0.54,-1.251zm-8.459 5.476c0.26,0.51 0.51,1.051 0.821,1.531 -0.371,-0.45 -0.601,-0.99 -0.821,-1.531zm117.287 148.155c-5.101,0.507 -9.903,-2.069 -14.216,3.493 -3.173,3.974 -4.394,9.85 -9.42,12.063 -2.212,1.081 -4.685,0.99 -7.097,1.301 -1.642,1.251 -3.804,1.642 -5.707,2.383 -10.007,3.664 -15.092,5.992 -17.709,16.867 0.31,0 0.631,0 0.941,0.01 2.293,-9.551 6.856,-12.228 15.717,-15.516 2.383,-0.941 4.996,-1.452 7.118,-2.833 2.072,-0.261 4.144,-0.281 6.096,-0.941 9.383,-3.127 7.605,-16.862 18.47,-16.027 6.176,0.475 10.229,0.178 15.658,-4.095 4.474,-3.521 7.7,-7.889 13.294,-12.192 -0.06,-0.341 -0.12,-0.691 -0.18,-1.042 -1.482,1.152 -2.953,2.323 -4.305,3.614 -5.586,5.075 -10.581,12.113 -18.67,12.913l0.01 0.002zm8.199 -148.896c-2.473,11.412 -4.545,22.984 -6.187,34.536 0.06,3.664 0.2,7.548 -0.48,11.182l-0.972 5.646 -4.595 13.734c-0.651,1.732 -0.48,2.042 -0.991,3.173 -2.583,5.87 -2.991,7.831 -7.288,13.595 -3.914,5.245 -8.85,9.7 -13.134,14.675 -2.583,2.893 -5.246,5.736 -8.089,8.399 -2.833,2.663 -5.756,5.075 -8.509,7.858 -3.294,3.374 -5.706,7.468 -8.88,10.952 -6.008,6.363 -12.43,12.028 -17.419,19.67 -1.812,2.783 -3.404,5.676 -5.025,8.569 -2.553,4.545 -5.276,8.97 -7.859,13.474 -3.524,6.197 -6.748,12.543 -9.841,18.95 0.341,0.01 0.681,0.03 1.011,0.04 2.733,-5.665 5.576,-11.271 8.65,-16.747 2.692,-4.825 5.566,-9.51 8.289,-14.275 4.412,-7.773 5.599,-10.415 11.582,-17.258 3.574,-4.115 7.489,-7.888 11.323,-11.803 3.063,-3.373 5.446,-7.317 8.569,-10.64 3.524,-3.574 7.438,-6.667 10.922,-10.241 2.893,-2.863 5.586,-5.906 8.319,-8.91 6.472,-7.169 11.114,-10.889 15.717,-20.01l2.923 -6.928c0.141,-1.532 4.73,-13.345 5.306,-16.256l1.331 -8.629c0.261,-2.663 0.141,-5.446 0.061,-8.089 1.191,-8.289 2.582,-16.287 4.174,-24.685 1.044,-5.383 4.17,-21.023 6.527,-25.136 2.873,-4.845 8.479,-7.428 14.296,-9.03 0.09,-0.34 0.19,-0.68 0.3,-1.041 -4.835,1.282 -9.47,3.193 -13.124,6.607 -4.315,4.315 -5.166,12.093 -6.898,18.62l-0.009 -0.002zm-144.147 -85.61c-1.315,2.774 -1.099,1.936 -0.49,5.016 0.62,-2.023 1.412,-4.015 2.353,-5.957l-1.863 0.941zm141.254 239.351c-5.881,0.863 -10.974,-3.088 -15.747,2.692 -3.514,4.174 -4.566,10.782 -10.212,12.824 -2.272,0.851 -4.735,0.62 -7.147,0.88 -0.912,0.681 -2.043,0.941 -3.154,1.302 -7.929,2.483 -16.75,4.472 -20.041,13.594 0.33,0 0.66,0 0.99,0.01 3.218,-8.444 11.802,-10.373 19.281,-12.694 1.112,-0.37 2.303,-0.651 3.264,-1.301 2.723,-0.261 5.536,0 7.998,-1.282 8.54,-4.054 6.588,-18.079 18.961,-15.326 11.943,2.417 17.644,-6.647 25.057,-13.174 -0.06,-0.37 -0.12,-0.73 -0.19,-1.101 -5.99,5.102 -10.955,12.611 -19.061,13.564l0.001 0.012zm27.81 -239.06c1.551,1.361 4.094,4.565 5.646,7.087l0.33 -1.171c-2.062,-3.275 -3.74,-4.991 -5.926,-7.228 -0.981,-0.891 -2.003,-2.082 -2.994,-3.303 -0.63,-0.31 -1.261,-0.621 -1.902,-0.911 0.851,1.051 1.702,2.102 2.573,3.133l2.273 2.393zm0.35 -0.32c-0.14,-0.141 -0.26,-0.261 -0.35,-0.361 0.11,0.11 0.23,0.23 0.35,0.361zm-0.861 -0.881c-0.28,-0.261 -0.65,-0.651 -1.021,-1.052 0.371,0.371 0.681,0.711 1.021,1.052zm-42.256 230.7c-10.674,-0.275 -9.766,12.468 -17.989,15.887 -1.762,0.771 -4.055,0.961 -6.047,1.301 -1.301,1.112 -3.063,1.622 -4.655,2.303 -2.383,0.941 -4.765,1.872 -7.038,3.063 -8.959,4.655 -9.84,10.241 -11.853,18.219 0.331,0 0.651,0 0.981,0.01 1.682,-6.797 2.613,-12.464 10.002,-16.668 2.382,-1.421 4.965,-2.472 7.548,-3.464 1.842,-0.77 3.864,-1.361 5.446,-2.582 1.962,-0.31 4.034,-0.51 5.816,-1.251 9.03,-3.576 7.326,-15.9 17.799,-15.897 6.703,0.002 10.847,-0.838 16.368,-5.846 3.124,-2.813 5.847,-5.987 9.02,-8.8 1.992,-1.812 4.165,-3.333 6.247,-5.045 -0.04,-0.37 -0.09,-0.74 -0.13,-1.121 -2.163,1.832 -4.465,3.413 -6.548,5.286 -8.429,7.468 -12.263,15.236 -24.967,14.585l0 0.02zm1.702 2.273c-8.508,-0.379 -9.888,8.179 -13.815,12.883 -2.833,3.434 -6.357,3.774 -10.441,4.225 -1.531,1.221 -3.574,1.701 -5.396,2.442 -11.624,4.476 -15.221,6.728 -18.059,18.98 0.32,0 0.64,0 0.961,0.01 1.207,-5.139 2.182,-9.11 6.527,-12.603 2.813,-2.303 6.186,-3.744 9.56,-5.026 2.273,-0.94 4.796,-1.501 6.808,-2.923 5.906,-0.48 9.51,-1.762 12.603,-7.117 2.946,-4.996 4.647,-10.178 11.473,-9.931 6.156,0.223 10.204,-0.092 15.697,-4.624 3.433,-2.834 6.327,-6.297 9.65,-9.28 1.582,-1.412 3.254,-2.703 4.926,-4.004 -0.05,-0.351 -0.101,-0.711 -0.15,-1.071 -1.752,1.371 -3.514,2.722 -5.176,4.194 -8.509,7.658 -12.173,15.016 -25.137,13.845l-0.031 0zm-118.308 32.624c-0.261,-0.33 -0.511,-0.661 -0.761,-1.001 0.14,0.35 0.38,0.68 0.761,1.001zm-2.873 -268.21c-0.471,0.24 -0.941,0.49 -1.422,0.741 -2.412,4.995 -3.934,10.36 -4.234,15.826 0.38,1.893 0.79,4.065 1.221,6.457 -1.782,-12.713 4.435,-22.696 4.435,-23.024zm148.571 174.662c-0.621,2.102 -0.991,3.945 -1.422,5.876 -1.866,7.743 -7.456,14.712 -13.454,19.781 -2.273,1.872 -4.425,3.834 -6.437,5.956 -4.299,4.497 -8.109,8.985 -13.966,11.492 -2.042,0.881 -3.974,1.282 -6.016,1.963 -7.718,1.902 -8.599,10.02 -14.075,14.385 -3.268,2.586 -6.269,2.971 -6.607,3.323 -3.447,3.59 -13.144,6.21 -17.43,14.275 -1.621,3.033 -2.613,6.327 -3.714,9.56 -1.497,4.343 -3.531,8.563 -5.626,12.643 0.351,0 0.701,0 1.051,0.01 1.222,-2.402 2.413,-4.814 3.494,-7.297 1.932,-4.315 3.034,-8.97 5.026,-13.284 2.492,-5.736 8.028,-9.079 13.254,-12.003 1.622,-0.961 3.234,-1.902 4.565,-3.173 1.302,-0.43 2.613,-0.881 3.774,-1.471 8.686,-4.381 7.759,-13.795 16.829,-16.167 14.087,-3.684 15.416,-10.225 26.388,-19.41 6.079,-5.089 11.504,-11.859 13.645,-19.611 1.23,-4.452 0.908,-4.476 0.881,-8.929 0,-0.621 -0.03,-1.232 -0.05,-1.852 -0.13,1.331 -0.2,2.622 -0.12,3.944l0.01 -0.011zm-12.714 70.794c-5.785,0.419 -11.549,-3.967 -16.458,3.714 -2.892,4.565 -4.685,11.072 -10.872,11.972 -1.872,0.231 -3.803,0.171 -5.736,0.311 -1.111,0.77 -2.472,0.961 -3.744,1.361 -6.856,2.006 -15.382,3.956 -19.08,11.371 0.35,0 0.71,0 1.061,0.01 3.592,-6.584 11.798,-8.698 18.47,-10.53 1.221,-0.341 2.523,-0.621 3.604,-1.282 1.982,-0.17 4.004,-0.06 5.926,-0.4 9.1,-1.614 8.608,-13.563 15.587,-16.147 4.558,-1.687 10.078,3.317 18.891,-1.842 4.033,-2.36 7.298,-6.24 10.811,-9.51 -0.06,-0.37 -0.11,-0.741 -0.17,-1.111 -5.499,5.076 -10.44,11.669 -18.32,12.062l0.03 0.021zm3.814 26.668c0.48,-0.06 0.951,-0.12 1.412,-0.18 1.601,-1.602 3.714,-2.633 6.016,-2.192 3.094,0.613 1.257,1.097 3.934,0.44 -0.21,-0.1 -0.43,-0.2 -0.64,-0.3 -4.025,-2.082 -7.969,-1.251 -10.712,2.232l-0.01 0zm-135.957 -13.915c-0.09,0.501 -0.191,1.001 -0.301,1.512 1.943,3.794 4.495,7.298 7.609,10.481 0.56,0.12 1.131,0.24 1.711,0.361 -3.794,-3.654 -6.837,-7.799 -9.029,-12.354l0.01 0zm2.502 -21.332c5.066,12.453 11.212,24.436 18.691,35.597 0.4,0.05 0.801,0.09 1.201,0.14 -7.949,-11.722 -14.386,-24.415 -19.631,-37.579l-0.261 1.842zm142.865 -97.151c0.07,0.42 0.14,0.841 0.211,1.261l0.5 -9.55c-0.4,1.332 -0.761,2.683 -0.991,4.004 -0.43,0.961 0.09,3.004 0.281,4.285l-0.001 0zm8.089 -136.763c4.287,3.667 7.252,8.901 9.04,13.774 0.133,-0.515 0.499,-1.331 0.331,-1.762 -1.732,-4.905 -5.737,-10.191 -9.361,-13.304 -1.612,-1.551 -3.183,-3.433 -4.675,-5.285 -0.51,-0.16 -1.031,-0.321 -1.582,-0.471 2.013,2.463 3.965,4.955 6.267,7.057l-0.02 -0.009zm-21.573 200.329c-8.569,6.757 -13.055,16.207 -24.717,18.279 -3.404,0.711 -6.187,1.792 -8.399,4.735 -4.796,6.557 -5.366,10.982 -14.356,13.224 -2.322,2.243 -5.476,3.404 -8.199,5.075 -9.25,5.246 -10.581,9.87 -13.594,19.47 -1.152,3.394 -2.603,6.658 -4.165,9.871 0.341,0 0.691,0.01 1.031,0.02 8.071,-16.632 3.738,-21.329 19.762,-29.982 1.391,-0.77 2.813,-1.501 4.144,-2.382 0.771,-0.431 1.282,-1.281 2.153,-1.422 7.888,-2.132 9.34,-6.526 13.474,-12.683 5.619,-8.155 11.505,-0.959 24.547,-14.876 2.813,-2.983 5.616,-5.956 8.83,-8.508 5.436,-4.445 10.351,-9.871 13.054,-16.428l-0.12 -2.232c-2.664,7.485 -7.389,12.852 -13.445,17.839l0 0zm-1.982 44.266c-2.864,-0.601 -5.927,-1.471 -8.66,0.11 -4.855,2.693 -5.646,8.8 -9.139,12.714 -3.464,3.834 -6.948,3.033 -11.583,3.293 -1.081,0.711 -2.472,0.881 -3.714,1.251 -6.392,1.734 -13.885,3.234 -18.34,9.29 0.391,0 0.781,0 1.172,0.01 4.942,-6.095 13.165,-7.062 19.491,-8.959 1.592,-0.481 1.471,-0.791 3.263,-0.741 2.984,0 5.757,0.09 8.29,-1.702 5.816,-3.574 5.706,-13.113 12.793,-15.016 4.268,-0.912 9.36,3.429 17.68,-0.73 3.944,-1.972 6.887,-5.296 10.031,-8.349 -0.05,-0.38 -0.09,-0.771 -0.14,-1.161 -6.546,6.341 -11.286,11.965 -21.163,9.99l0.019 0zm5.616 -38.16c-9.361,7.749 -12.374,15.947 -25.848,17.078 -6.398,0.616 -8.562,6.036 -11.573,10.802 -2.473,4.034 -6.187,5.816 -10.722,6.637 -1.051,1.021 -2.472,1.641 -3.774,2.322 -1.902,0.941 -3.864,1.812 -5.736,2.833 -11.996,6.485 -10.467,13.461 -15.076,24.916 0.33,0 0.67,0.01 1.011,0.02 4.306,-10.808 3.014,-17.597 13.815,-23.704 1.872,-1.082 3.864,-1.982 5.786,-2.923 1.532,-0.771 3.154,-1.472 4.425,-2.613 9.731,-1.842 10.211,-6.437 15.156,-13.454 5.455,-7.479 11.867,0.095 24.187,-12.484 2.923,-2.923 5.616,-5.926 8.829,-8.599 3.624,-2.883 7.308,-6.066 10.221,-9.79 -0.03,-0.48 -0.06,-0.971 -0.09,-1.451 -2.793,3.824 -6.367,7.127 -10.591,10.391l-0.02 0.019zm8.279 61.535c-0.631,0.03 -1.252,0.14 -1.842,0.33 0.631,-0.11 1.251,-0.22 1.842,-0.33zm-15.968 -244.876c0.511,13.875 4.936,22.954 3.434,37.319 0.28,-0.51 0.601,-0.991 0.961,-1.451 1.422,-13.764 -3.094,-22.503 -3.464,-35.898 -0.33,-11.242 1.261,-22.833 3.874,-33.985l-0.911 -0.32c-2.644,11.305 -4.314,22.924 -3.904,34.336l0.01 -0.001zm3.004 223.633c-2.102,-0.51 -4.315,-1.111 -6.437,-0.4 -5.987,1.962 -6.778,9.19 -10.552,13.425 -3.574,3.974 -7.098,2.952 -11.833,3.153 -0.941,0.601 -2.212,0.77 -3.323,1.051 -6.056,1.438 -12.562,2.708 -17.429,7.327 0.471,0 0.931,0 1.391,0 3.895,-3.273 9.331,-4.845 14.186,-5.976 1.812,-0.45 3.774,-0.681 5.446,-1.471 1.819,-0.435 6.877,1.257 11.211,-2.443 4.455,-3.713 4.826,-10.751 10.022,-13.674 5,-2.759 9.677,3.179 18.82,-0.54 3.684,-1.492 6.527,-4.265 9.31,-7.018 -0.04,-0.41 -0.07,-0.81 -0.11,-1.181 -3.864,3.824 -7.949,7.778 -13.595,8.429 -3.704,0.478 -5.699,-0.561 -7.107,-0.682zm-127.739 -16.777c5.336,14.035 12.083,27.479 20.712,39.862 0.421,0.04 0.841,0.08 1.262,0.13 -9.08,-12.873 -16.168,-27.059 -21.674,-41.824 -0.1,0.611 -0.2,1.231 -0.3,1.842l0 -0.01zm130.632 -26.588c-9.621,7.778 -12.404,16.057 -26.018,17.879 -5.524,0.837 -7.836,4.822 -10.472,9.36 -2.613,4.685 -6.127,7.097 -11.352,8.148 -1.132,1.162 -2.583,1.842 -4.005,2.613 -1.641,0.851 -3.323,1.672 -4.935,2.583 -9.48,5.225 -10.502,10.27 -13.425,19.891 -0.81,2.452 -1.782,4.835 -2.833,7.177 0.33,0 0.661,0.01 1.001,0.02 0.951,-2.132 1.822,-4.294 2.573,-6.506 2.893,-9.02 3.544,-14.305 12.484,-19.38 3.153,-1.932 6.807,-3.124 9.62,-5.536 7.578,-1.642 9.791,-5.166 13.455,-11.432 6.247,-10.553 11.868,-1.428 25.227,-15.065 2.983,-3.034 5.847,-6.217 9.17,-8.91 3.494,-2.813 6.867,-5.876 9.62,-9.509 0.711,-0.961 1.382,-1.972 2.012,-3.034 -0.029,-0.57 -0.06,-1.141 -0.1,-1.702 -2.913,5.266 -7.127,9.581 -12.013,13.414l-0.009 -0.011z"/>
    </g>
   </g>
   <g clip-path="url(#id2)">
    <path fill="none" d="M195.291 97.768c-0.085,-0.928 -0.17,-1.856 -0.308,-2.718 -0.137,-0.863 -0.329,-1.661 -0.099,-3.18 0.23,-1.519 0.881,-3.758 1.681,-6.311 0.801,-2.553 1.752,-5.418 2.565,-9.742 0.813,-4.323 1.489,-10.104 2.278,-15.986 0.788,-5.881 1.689,-11.863 2.652,-16.318 0.964,-4.454 1.99,-7.383 2.541,-9.31 0.55,-1.927 0.626,-2.853 0.663,-4.067 0.021,-0.674 0.03,-1.438 0.034,-2.242 -0.11,-0.063 -0.222,-0.122 -0.337,-0.177 -4.975,-2.38 -9.714,-5.334 -14.858,-7.149 -4.647,-1.639 -11.454,-2.699 -17.288,-4.719 -2.277,-0.789 -4.556,-1.589 -6.82,-2.415l-0.004 -0.03 -9.999 -4.08 -0.175 -0.072c-0.614,-0.28 -1.553,-1.207 -2.512,-1.889 -0.494,-0.369 -0.613,-0.563 -1.038,-0.905 -2.856,-2.299 -5.606,-5.635 -9.574,-5.641 -0.901,-0.002 -1.04,-0.123 -1.779,-0.163l-7.601 -0.17c-5.892,-0.486 -12.055,-0.501 -18.06,-0.477 -5.087,0.02 -9.557,0.063 -14.567,0.477 -2.529,0.209 -4.996,0.029 -7.6,0.17 -0.739,0.04 -0.878,0.161 -1.779,0.163 -3.968,0.006 -6.718,3.342 -9.575,5.641 -0.424,0.342 -0.543,0.536 -1.037,0.905 -0.741,0.527 -1.471,1.2 -2.047,1.608 -0.17,0.121 -0.326,0.218 -0.465,0.281l-10.174 4.152 -0.003 0.03c-2.265,0.826 -4.544,1.626 -6.821,2.415 -5.834,2.02 -12.641,3.08 -17.288,4.719 -5.144,1.815 -9.883,4.769 -14.858,7.149 -0.212,0.101 -0.412,0.215 -0.605,0.339 0.121,0.721 0.248,1.443 0.383,2.165 0.438,2.34 0.963,4.693 1.752,8.597 0.788,3.904 1.839,9.36 2.815,15.624 0.976,6.262 1.877,13.332 3.034,19.705 1.157,6.372 2.57,12.047 3.374,15.175 0.803,3.129 0.998,3.71 1.026,4.321 0.028,0.61 -0.11,1.248 -0.192,1.818 -0.083,0.57 -0.11,1.072 -0.138,1.574 1.678,4.247 3.328,18.944 3.789,24.023 0.735,8.116 1.826,16.186 2.512,24.347 0.348,4.137 0.874,8.269 1.009,12.419l0.653 12.776c0.396,4.199 0.208,8.934 0.274,13.179 0.032,2.062 0.194,4.007 0.186,6.13 -0.007,2.226 -0.172,4.349 -0.196,6.512 -0.051,4.469 -0.054,8.634 -0.319,13.111 -0.68,11.475 -1.257,26.076 -3.267,37.02 -0.966,5.407 -2.177,11.944 -2.754,17.389 -0.258,2.432 -0.827,10.057 -1.468,11.951 -0.68,2.01 -0.163,3.658 -0.568,5.77 -0.342,1.785 -0.742,3.812 -1.164,5.568 -0.463,1.93 -1.435,3.647 0.397,4.966 4.276,1.054 8.552,2.108 13.913,3.017 5.36,0.909 11.804,1.672 18.03,2.048 6.226,0.375 12.232,0.363 21.568,0.476 9.335,0.112 21.999,0.351 32.523,0.382 10.525,0.032 18.909,-0.144 26.242,-0.419 7.333,-0.275 13.615,-0.65 19.058,-1.151 5.443,-0.501 10.048,-1.126 13.829,-1.873 3.78,-0.746 6.736,-1.613 9.693,-2.48 1.832,-1.319 0.86,-3.036 0.397,-4.966 -0.422,-1.756 -0.822,-3.783 -1.164,-5.568 -0.405,-2.112 0.112,-3.76 -0.568,-5.77 -0.641,-1.894 -1.21,-9.519 -1.468,-11.951 -0.577,-5.445 -1.788,-11.982 -2.754,-17.389 -2.01,-10.944 -2.587,-25.545 -3.267,-37.02 -0.265,-4.477 -0.268,-8.642 -0.319,-13.111 -0.024,-2.163 -0.189,-4.286 -0.196,-6.512 -0.008,-2.123 0.154,-4.068 0.186,-6.13 0.066,-4.245 -0.122,-8.98 0.274,-13.179l0.653 -12.776c0.135,-4.15 0.661,-8.282 1.009,-12.419 0.686,-8.161 1.777,-16.231 2.512,-24.347 0.461,-5.079 1.889,-19.043 3.568,-23.29z"/>
    <g>
    </g>
   </g>
   <g clip-path="url(#id3)">
    <g>
     <rect fill="white" x="180.431" y="-4.134" width="58.908" height="144.767"/>
     <rect fill="white" x="-20.127" y="-14.17" width="67.68" height="147.4"/>
    </g>
   </g>
   <g clip-path="url(#id4)">
    <path fill="none" d="M42.488 97.035c0.028,-0.502 0.055,-1.004 0.138,-1.574 0.082,-0.57 0.22,-1.208 0.192,-1.818 -0.028,-0.611 -0.223,-1.192 -1.026,-4.321 -0.804,-3.128 -2.217,-8.803 -3.374,-15.175 -1.157,-6.373 -2.058,-13.443 -3.034,-19.705 -0.976,-6.264 -2.027,-11.72 -2.815,-15.624 -0.789,-3.904 -1.314,-6.257 -1.752,-8.597 -0.135,-0.722 -0.262,-1.444 -0.383,-2.165 -0.909,0.583 -1.664,1.379 -2.651,2.001 -11.263,7.099 -18.243,27.467 -21.401,39.215 -1.569,5.839 -1.98,12.983 -2.969,19.04 -0.5,3.067 -1.172,6.193 -1.752,9.253 -0.585,3.095 -0.872,6.493 -1.288,9.631 -0.406,0.268 -0.327,-0.023 -0.308,0.899l-0.065 1.854 0 8.783c0.041,1.018 0.102,1.813 0.186,2.164 1.125,0.477 3.706,0.514 5.07,0.712 7.662,1.114 9.041,0.828 15.791,1.554l21.547 1.349c-0.015,-1.623 0.547,-10.725 0.578,-13.424l-0.603 -0.316 0 0 -0.07 -0.036c0,-4.476 -0.011,-9.226 -0.011,-13.7zm152.698 13.793l0 0 -0.416 0.247c-0.004,0.882 0.338,12.091 0.604,13.423l21.579 -1.336c6.75,-0.726 8.129,-0.44 15.791,-1.554 1.364,-0.198 3.945,-0.235 5.07,-0.712 0.084,-0.351 0.145,-1.146 0.186,-2.164l0 -8.783 -0.065 -1.854c0.014,-0.687 0.062,-0.7 -0.083,-0.774 -0.05,-0.025 -0.122,-0.057 -0.225,-0.125 -0.416,-3.138 -0.703,-6.536 -1.288,-9.631 -0.58,-3.06 -1.252,-6.186 -1.752,-9.253 -0.989,-6.057 -1.4,-13.201 -2.969,-19.04 -3.158,-11.748 -10.138,-32.116 -21.401,-39.215 -1.057,-0.665 -1.895,-1.576 -2.919,-2.163 -0.004,0.804 -0.013,1.568 -0.034,2.242 -0.037,1.214 -0.113,2.14 -0.663,4.067 -0.551,1.927 -1.577,4.856 -2.541,9.31 -0.963,4.455 -1.864,10.437 -2.652,16.318 -0.789,5.882 -1.465,11.663 -2.278,15.986 -0.813,4.324 -1.764,7.189 -2.565,9.742 -0.8,2.553 -1.451,4.792 -1.681,6.311 -0.23,1.519 -0.038,2.317 0.099,3.18 0.138,0.862 0.223,1.79 0.308,2.718 0,4.474 -0.105,8.584 -0.105,13.06zm-194.813 -3.632c0.744,0.196 1.489,0.392 4.426,0.672 2.938,0.279 8.068,0.642 13.143,1.005 5.074,0.363 10.092,0.726 13.996,1.045 3.905,0.319 6.695,0.595 8.372,0.73l0.055 0.004 0.053 0.004 0.053 0.004 0.052 0.004 0.051 0.004 0.051 0.004 0.05 0.004 0.048 0.004 0.001 0 0.048 0.003 0.048 0.004 0.046 0.003 0.047 0.003 0.045 0.004 0.045 0.003 0.044 0.003 0.044 0.003 0.042 0.003 0.043 0.003 0.041 0.002 0.041 0.003 0 0 0.041 0.002 0.039 0.003 0.039 0.002 0.001 0 0.038 0.003 0.038 0.002 0.037 0.002 0 0 0.037 0.002 0.036 0.002 0.036 0.002 0 0 0.035 0.002 0 0 0.035 0.002 0 0 0.034 0.002 0 0 0.033 0.002 0.033 0.001 0.001 0 0.032 0.002 0.032 0.002 0 0 0.031 0.001 0.001 0 0.031 0.001 0 0 0.03 0.002 0.001 0 0.029 0.001 0.001 0 0.029 0.001 0 0 0.029 0.002 0.001 0 0.028 0 0.001 0 0.028 0.002 0.028 0.001 0 0 0.028 0 0 0 0.027 0.001 0 0 0.027 0.001 0.026 0.001 0.001 0 0.025 0.001 0.001 0 0.025 0.001 0 0 0.025 0 0.001 0 0.025 0.001 0 0 0.024 0 0.001 0 0.024 0.001 0 0 0.024 0.001 0 0 0.023 0 0.001 0 0.023 0 0 0 0.023 0.001 0.001 0 0.022 0 0.001 0 0.022 0.001 0 0 0.022 0 0 0 0.022 0 0.001 0 0.021 0 0 0 -42.196 -3.575z"/>
   </g>
  </g>
  <path fill="none" d="M207.298 27.894c-0.11,-0.063 -0.222,-0.122 -0.337,-0.177 -4.975,-2.38 -9.714,-5.334 -14.858,-7.149 -4.647,-1.639 -11.454,-2.699 -17.288,-4.719 -2.277,-0.789 -4.556,-1.589 -6.82,-2.415l-0.004 -0.03 -9.999 -4.08 -0.175 -0.072c-0.614,-0.28 -1.553,-1.207 -2.512,-1.889 -0.494,-0.369 -0.613,-0.563 -1.038,-0.905 -2.856,-2.299 -5.606,-5.635 -9.574,-5.641 -0.901,-0.002 -1.04,-0.123 -1.779,-0.163l-7.601 -0.17c-5.892,-0.486 -12.055,-0.501 -18.06,-0.477 -5.087,0.02 -9.557,0.063 -14.567,0.477 -2.529,0.209 -4.996,0.029 -7.6,0.17 -0.739,0.04 -0.878,0.161 -1.779,0.163 -3.968,0.006 -6.718,3.342 -9.575,5.641 -0.424,0.342 -0.543,0.536 -1.037,0.905 -0.741,0.527 -1.471,1.2 -2.047,1.608 -0.17,0.121 -0.326,0.218 -0.465,0.281l-10.174 4.152 -0.003 0.03c-2.265,0.826 -4.544,1.626 -6.821,2.415 -5.834,2.02 -12.641,3.08 -17.288,4.719 -5.144,1.815 -9.883,4.769 -14.858,7.149 -0.212,0.101 -0.412,0.215 -0.605,0.339 -0.909,0.583 -1.664,1.379 -2.651,2.001 -11.263,7.099 -18.243,27.467 -21.401,39.215 -1.569,5.839 -1.98,12.983 -2.969,19.04 -0.5,3.067 -1.172,6.193 -1.752,9.253 -0.585,3.095 -0.872,6.493 -1.288,9.631 -0.406,0.268 -0.327,-0.023 -0.308,0.899l-0.065 1.854 0 8.783c0.041,1.018 0.102,1.813 0.186,2.164 1.125,0.477 3.706,0.514 5.07,0.712 7.662,1.114 9.041,0.828 15.791,1.554l21.547 1.349c-0.015,-1.623 0.547,-10.725 0.578,-13.424l-0.603 -0.316 -0.07 -0.036c0,-4.476 -0.011,-9.226 -0.011,-13.7 1.678,4.247 3.328,18.944 3.789,24.023 0.735,8.116 1.826,16.186 2.512,24.347 0.348,4.137 0.874,8.269 1.009,12.419l0.653 12.776c0.396,4.199 0.208,8.934 0.274,13.179 0.032,2.062 0.194,4.007 0.186,6.13 -0.007,2.226 -0.172,4.349 -0.196,6.512 -0.051,4.469 -0.054,8.634 -0.319,13.111 -0.68,11.475 -1.257,26.076 -3.267,37.02 -0.966,5.407 -2.177,11.944 -2.754,17.389 -0.258,2.432 -0.827,10.057 -1.468,11.951 -0.68,2.01 -0.163,3.658 -0.568,5.77 -0.342,1.785 -0.742,3.812 -1.164,5.568 -0.463,1.93 -1.435,3.647 0.397,4.966 4.276,1.054 8.552,2.108 13.913,3.017 5.36,0.909 11.804,1.672 18.03,2.048 6.226,0.375 12.232,0.363 21.568,0.476 9.335,0.112 21.999,0.351 32.523,0.382 10.525,0.032 18.909,-0.144 26.242,-0.419 7.333,-0.275 13.615,-0.65 19.058,-1.151 5.443,-0.501 10.048,-1.126 13.829,-1.873 3.78,-0.746 6.736,-1.613 9.693,-2.48 1.832,-1.319 0.86,-3.036 0.397,-4.966 -0.422,-1.756 -0.822,-3.783 -1.164,-5.568 -0.405,-2.112 0.112,-3.76 -0.568,-5.77 -0.641,-1.894 -1.21,-9.519 -1.468,-11.951 -0.577,-5.445 -1.788,-11.982 -2.754,-17.389 -2.01,-10.944 -2.587,-25.545 -3.267,-37.02 -0.265,-4.477 -0.268,-8.642 -0.319,-13.111 -0.024,-2.163 -0.189,-4.286 -0.196,-6.512 -0.008,-2.123 0.154,-4.068 0.186,-6.13 0.066,-4.245 -0.122,-8.98 0.274,-13.179l0.653 -12.776c0.135,-4.15 0.661,-8.282 1.009,-12.419 0.686,-8.161 1.777,-16.231 2.512,-24.347 0.461,-5.079 1.889,-19.043 3.568,-23.29 0,4.474 -0.105,8.584 -0.105,13.06l0 0 -0.416 0.247c-0.004,0.882 0.338,12.091 0.604,13.423l21.579 -1.336c6.75,-0.726 8.129,-0.44 15.791,-1.554 1.364,-0.198 3.945,-0.235 5.07,-0.712 0.084,-0.351 0.145,-1.146 0.186,-2.164l0 -8.783 -0.065 -1.854c0.014,-0.687 0.062,-0.7 -0.083,-0.774 -0.05,-0.025 -0.122,-0.057 -0.225,-0.125 -0.416,-3.138 -0.703,-6.536 -1.288,-9.631 -0.58,-3.06 -1.252,-6.186 -1.752,-9.253 -0.989,-6.057 -1.4,-13.201 -2.969,-19.04 -3.158,-11.748 -10.138,-32.116 -21.401,-39.215 -1.057,-0.665 -1.895,-1.576 -2.919,-2.163z"/>
 </g>
</svg>
