<?xml version="1.0" encoding="UTF-8"?>
<!DOCTYPE svg PUBLIC "-//W3C//DTD SVG 1.1//EN" "http://www.w3.org/Graphics/SVG/1.1/DTD/svg11.dtd">
<!-- Creator: CorelDRAW -->
<svg xmlns="http://www.w3.org/2000/svg" xml:space="preserve" width="187px" height="148px" version="1.1" shape-rendering="geometricPrecision" text-rendering="geometricPrecision" image-rendering="optimizeQuality" fill-rule="evenodd" clip-rule="evenodd"
viewBox="0 0 186.999 147.486"
 xmlns:xlink="http://www.w3.org/1999/xlink"
 xmlns:xodm="http://www.corel.com/coreldraw/odm/2003">
 <defs>
   <clipPath id="id0">
    <path d="M69.622 5.532c-9.32,-0.113 -15.317,-0.1 -21.532,-0.475 -6.215,-0.375 -12.649,-1.137 -18.001,-2.044 -5.351,-0.908 -9.62,-1.96 -13.89,-3.013l-2.056 6.766c-2.101,6.05 -3.233,10.386 -4.916,16.285 -0.249,0.873 -0.435,1.453 -0.642,2.333 -2.36,10.025 -4.55,19.989 -6.162,30.214 -0.554,3.516 -0.787,7.435 -1.226,10.942l-0.435 5.757c-0.045,1.83 -0.234,3.899 -0.37,5.626 -0.078,0.987 0.009,2.192 -0.003,3.205 -0.013,1.158 -0.208,1.511 -0.203,2.794 0.009,2.038 0.069,4.202 0.011,6.226 -0.028,1.013 -0.181,1.575 -0.197,2.723l0.192 9.099c-0.03,8.303 0.172,15.985 0.183,24.267 0.002,1.267 0.207,1.666 0.202,2.996 -0.004,0.925 -0.065,2.104 0.005,3.001 0.131,1.645 0.218,4.048 0.519,5.469 1.056,4.985 5.703,6.849 10.073,7.859 3.312,0.766 6.714,1.111 10.138,1.576 4.01,0.545 19.376,0.399 23.493,-0.086 6.45,-0.761 15.507,-0.276 22.162,-1.971 7.272,-1.853 6.398,-2.822 7.435,-7.425 0.87,-3.869 2.219,-13.998 3.169,-16.919 0.807,-2.484 1.721,-7.868 2.195,-10.524 0.344,-1.99 1.133,-3.678 1.718,-5.612 1.344,-4.441 1.694,-7.626 2.92,-12.169 0.377,-1.398 0.722,-2.38 1.102,-3.854 0.997,-3.864 2.19,-8.249 2.968,-12.117 0.575,-2.856 1.095,-5.36 1.653,-8.289l2.191 -12.734c0.189,-0.998 0.23,-2.248 1.182,-2.596 0.952,0.348 0.993,1.598 1.182,2.596l2.191 12.734c0.558,2.929 1.077,5.433 1.652,8.289 0.779,3.868 1.972,8.253 2.968,12.117 0.38,1.474 0.725,2.456 1.103,3.854 1.226,4.543 1.576,7.728 2.919,12.169 0.585,1.934 1.375,3.622 1.719,5.612 0.473,2.654 1.389,8.042 2.195,10.524 0.949,2.921 2.299,13.05 3.169,16.919 1.037,4.603 0.163,5.572 7.434,7.425 6.656,1.695 15.712,1.21 22.163,1.971 4.117,0.485 19.483,0.631 23.492,0.086 3.425,-0.465 6.827,-0.81 10.138,-1.576 4.371,-1.01 9.018,-2.874 10.074,-7.859 0.301,-1.421 0.388,-3.824 0.519,-5.469 0.07,-0.897 0.009,-2.076 0.005,-3.001 -0.005,-1.33 0.2,-1.729 0.202,-2.996 0.011,-8.282 0.213,-15.964 0.183,-24.267l0.191 -8.764 -0.196 -3.058c-0.058,-2.024 0.002,-4.188 0.011,-6.226 0.004,-1.283 -0.19,-1.636 -0.204,-2.794 -0.011,-1.013 0.076,-2.218 -0.002,-3.205 -0.136,-1.727 -0.325,-3.796 -0.37,-5.626l-0.436 -5.757c-0.439,-3.507 -0.671,-7.426 -1.225,-10.942 -1.612,-10.225 -3.802,-20.189 -6.162,-30.214 -0.207,-0.88 -0.394,-1.46 -0.643,-2.333 -1.682,-5.899 -2.814,-10.235 -4.915,-16.285l-2.057 -6.766c-2.951,0.866 -5.902,1.731 -9.677,2.477 -3.774,0.745 -8.371,1.369 -13.806,1.869 -5.434,0.5 -11.706,0.875 -19.026,1.15 -7.321,0.274 -15.692,0.449 -26.199,0.418 -10.507,-0.031 -23.15,-0.269 -32.47,-0.382z"/>
   </clipPath>
 </defs>
 <g id="VETORES">
  <metadata id="CorelCorpID_0Corel-Layer"/>
  <g>
  </g>
  <g clip-path="url(#id0)">
   <g id="_3224746760096">
    <path id="_2" fill="fuchsia" fill-rule="nonzero" d="M186.837 90.624l-0.029 -1.119c-0.87,-1.219 -1.18,-2.238 -0.45,-2.498 0.139,-0.06 0.289,-0.11 0.43,-0.17 0,-0.68 0,-1.349 0.009,-2.019 -1.009,0.22 -2.029,0.53 -3.028,0.969 -0.74,0.36 1.189,2.659 3.058,4.837l0.01 0zm-0.799 -21.087l0 -0.179c-1.359,-0.35 -2.718,-0.67 -4.107,-0.94 1.369,0.33 2.738,0.71 4.107,1.119zm0.25 3.888c0,-0.14 -0.01,-0.28 -0.02,-0.42 -1.979,-0.639 -3.968,-1.159 -5.947,-1.539 2.019,0.58 4.018,1.259 5.967,1.949l0 0.01zm-4.358 -5.007c-2.948,-0.71 -5.927,-1.229 -8.895,-1.519l8.895 1.519zm-55.569 34.669c0.77,-0.51 1.56,-0.99 2.359,-1.419 -0.879,0.379 -1.689,0.849 -2.359,1.419zm45.875 -2.739c5.517,3.738 10.444,8.315 14.462,13.702 0.009,0.02 0.029,0.04 0.04,0.06 0,-0.41 0,-0.82 0.01,-1.24 -3.419,-5.166 -8.766,-9.274 -14.512,-12.522l0 0zm3.438 14.612c-9.935,-13.992 -31.173,-21.767 -46.954,-13.292 1.759,-0.77 3.758,-1.2 5.337,-1.41 11.394,-1.529 23.627,0.34 33.171,6.766 -6.856,-3.568 -18.979,-8.924 -23.457,-0.769 -2.658,4.927 1.7,10.513 1.73,16.06 -0.14,5.946 -3.509,12.382 -8.386,15.671 -4.078,2.818 -8.185,5.456 -12.363,7.924 0.33,0.04 0.67,0.08 1,0.11 4.247,-2.648 8.415,-5.496 12.542,-8.544 6.767,-5.067 8.555,-13.622 9.345,-22.187 0.62,-1.619 1.979,-2.748 3.568,-3.288 5.607,-1.699 10.734,0.769 14.902,4.107 4.198,3.568 6.656,8.695 8.105,13.942 -1.959,-4.168 -4.787,-8.645 -9.604,-9.684 -3.118,-0.57 -5.777,1.898 -6.826,4.447 -4.507,10.695 -12.972,15.667 -22.547,20.357 3.508,-1.539 7.005,-3.098 10.484,-4.806 3.272,-1.651 5.722,-4.803 9.294,-6.636 3.368,-1.789 8.445,-2.409 10.005,1.559 2.139,4.637 0.899,9.085 -2.129,12.053 0.569,-0.03 1.089,-0.06 1.559,-0.09 2.049,-2.119 2.579,-5.617 2.499,-8.625 -0.03,-2.858 -1.529,-6.036 -4.248,-6.826 -4.847,-1.469 -9.494,1.979 -13.142,4.957 1.839,-2.609 4.787,-4.078 6.406,-7.086 2.179,-3.458 3.598,-8.724 8.156,-8.045 8.075,0.77 11.073,10.174 10.883,17.559 -0.01,2.269 -0.609,4.748 -1.639,6.846 0.12,-0.02 0.24,-0.05 0.36,-0.07 0.42,-0.779 0.76,-1.589 1,-2.438 5.158,-18.12 -10.272,-35.738 -23.547,-32.351 -3.428,0.91 -4.987,4.308 -5.327,7.626 -0.6,-4.677 -4.617,-11.133 0.09,-13.961 9.404,-5.497 20.428,1.219 27.564,8.244 8.656,8.275 10.085,21.228 5.638,31.491 0.419,-0.16 0.829,-0.33 1.228,-0.52 3.579,-9.204 1.17,-21.077 -4.687,-29.102l-0.01 0.011zm-16.351 28.412c-6.117,0.65 -12.063,1.889 -17.88,3.578 0.11,0.01 0.22,0.02 0.34,0.03 5.607,-1.43 11.344,-2.319 17.201,-2.569 1.237,-0.094 3.183,1.222 1.618,3.008 0.47,-0.01 0.92,-0.02 1.35,-0.04 1.599,-1.968 -0.83,-4.187 -2.619,-4.017l-0.01 0.01zm-27.005 3.088l0 0zm34.151 -46.341c-14.082,-6.886 -28.874,-9.375 -44.135,-5.467 -6.267,1.599 -12.503,3.388 -17.66,6.805 0.089,0.361 0.19,0.74 0.289,1.11 8.755,-5.697 19.14,-7.695 29.134,-9.674 -7.256,1.809 -16.231,2.129 -20.819,9.064 -1.279,1.759 0.51,3.658 2.239,4.727 7.086,3.938 14.502,6.626 16.971,14.452 3.428,10.553 -3.808,18.009 -12.133,24.005 0.19,0.05 0.379,0.09 0.579,0.13 8.296,-5.667 15.532,-12.772 13.263,-23.456 -1.28,-5.666 -7.626,-8.015 -9.325,-13.622 -0.69,-2.248 0.09,-3.897 1.519,-5.097 -0.679,0.45 -1.349,0.93 -1.999,1.45 -2.129,1.618 -0.879,4.587 0.51,6.545 -3.318,-3.028 -11.194,-4.027 -9.884,-8.244 2.748,-9.235 16.49,-9.125 25.526,-9.035 12.522,0 24.955,3.938 34.31,13.002 9.065,8.465 12.843,21.917 9.874,33.759 0.529,-0.757 0.887,-3.952 1.03,-4.897 2.197,-14.601 -6.057,-29.229 -19.289,-35.557zm-16.991 -79.831c9.035,-0.82 18.15,-1.109 27.205,-1.089 -9.095,-0.27 -18.19,0.09 -27.205,1.099l0 -0.01zm-55.958 -1.449l0 0.439c11.124,-5.097 22.587,-9.214 33.921,-13.751 -0.56,0.02 -1.119,0.04 -1.699,0.06 -2.279,1.019 -4.927,2.109 -8.005,3.278 -8.425,2.798 -16.461,6.146 -24.227,9.973l0.01 0.001zm49.922 -9.594c0.269,-0.45 0.46,-0.95 0.56,-1.509 -17.86,1.099 -34.591,6.066 -50.482,13.571l0 0.61c6.496,-2.618 13.263,-4.607 20.398,-5.766 -6.996,3.367 -13.762,7.145 -20.398,11.173l0 0.509c6.806,-4.077 13.793,-7.935 21.018,-11.533 0.6,-0.26 1.959,-1.189 1.529,-1.159 -1.419,-0.4 -2.858,-0.34 -4.317,-0.06 10.174,-3.408 20.628,-7.346 31.092,-6.396 -0.179,0.509 -0.469,0.93 -0.809,1.309l0.71 -0.3c-2.281,1.426 -1.207,1.038 -4.048,2.259 -1.569,0.809 -3.318,1.639 -5.247,2.489 3.458,-1.29 8.105,-2.229 9.895,-4.997 2.718,-1.25 5.257,-2.949 7.755,-4.977 0.1,-0.17 0.18,-0.34 0.27,-0.51 -0.55,0.06 -1.109,0.12 -1.679,0.18 -1.259,1.529 -3.258,3.258 -6.237,5.137l-0.01 -0.03zm-49.922 7.635l0 0.659c5.147,-2.598 10.464,-5.007 16.011,-7.195 3.328,-1.369 6.466,-2.898 9.494,-4.567 -0.299,0 -0.599,0.01 -0.899,0.02 -2.318,1.269 -4.987,2.608 -8.135,4.008 -5.697,2.078 -11.164,4.457 -16.461,7.075l-0.01 0zm27.844 124.034c4.308,-5.067 5.667,-13.402 -0.199,-17.65 -3.659,-2.778 -7.776,-3.547 -12.114,-3.857 0.09,0.33 0.17,0.65 0.26,0.929 3.508,0.49 6.946,1.489 10.244,3.268 3.428,1.789 5.187,5.747 4.448,9.295 -1.049,4.647 -3.348,8.385 -6.416,11.483 0.069,0.02 0.139,0.05 0.21,0.07 1.229,-1.11 2.428,-2.269 3.568,-3.538l-0.001 0zm-27.844 -125.273l0 0.65c7.186,-3.798 14.562,-7.286 22.188,-10.454 -0.73,0.01 -1.469,0.02 -2.229,0.03 -2.039,1.43 -4.178,2.589 -6.496,3.448 -1.773,0.692 -12.822,5.703 -13.463,6.326zm92.218 50.249c0,-0.06 -0.01,-0.11 -0.02,-0.17 -2.818,-0.8 -5.667,-1.44 -8.535,-1.919 2.869,0.549 5.727,1.259 8.555,2.089zm-7.266 -40.275l-0.069 -0.32c-1.52,-0.4 -3.049,-0.76 -4.568,-1.08 1.569,0.39 3.118,0.86 4.647,1.4l-0.01 0zm-40.167 25.884c-5.697,-4.477 -2.319,-11.103 1.389,-15.92 1.13,-1.3 -0.43,-2.639 -1.899,-3.118 -13.854,-4.22 -31.29,2.223 -44.285,7.955l0 0.06c10.504,-4.807 21.508,-8.185 33.152,-8.555 1.249,-0.11 3.167,0.959 2.068,2.488 -4.987,6.966 -13.572,9.915 -17.45,17.62 -2.129,4.077 2.179,6.796 5.747,7.535 -5.867,-1.159 -12.753,-0.2 -17.03,-4.757 -1.359,-1.529 -1.979,-4.167 -4.448,-4.167 -0.679,0 -1.359,0.05 -2.039,0.08l0 1.429c0.43,0.2 0.84,0.47 1.22,0.81 8.195,7.245 19.059,7.225 29.493,7.665 -3.608,-0.949 -6.756,-2.878 -9.065,-6.256 -5.357,-7.965 10.854,-12.772 15.981,-20.567 0.17,-0.43 0.34,-0.85 0.31,-1.279 2.269,0.029 6.406,0.509 5.607,3.458 -1.3,3.997 -7.566,7.795 -3.488,12.602 4.757,5.556 11.843,6.826 18.359,8.954l-1.069 0.06c-5.457,1.589 -11.823,3.328 -17.83,3.707 0.879,0.121 1.759,0.26 2.618,0.43 -0.029,0.03 -0.09,0.03 -0.11,0.06 -2.638,1.22 -5.127,3.258 -7.395,3.428 -10.494,0.859 -20.849,1.809 -31.452,1.749l0.1 0.589c1.619,-0.249 3.188,-0.419 4.627,-0.359 -1.539,0.189 -3.068,0.389 -4.587,0.599l0.12 0.65c10.454,-1.359 20.958,-2.019 31.272,-2.059 0.4,0.79 1.789,1.56 4.138,2.269 0.6,0.28 1.279,0.85 2.099,0.989 -12.423,-0.709 -24.606,0.55 -36.67,3.128 0,0.04 0.02,0.08 0.03,0.12 0.26,-0.05 0.51,-0.09 0.769,-0.139 -0.249,0.069 -0.499,0.159 -0.749,0.23 0.04,0.21 0.08,0.419 0.13,0.619 8.431,-2.267 15.8,-3.376 24.596,-3.838 9.375,-0.769 18.39,1.39 27.055,4.388 -16.941,-2.759 -34.401,-2.149 -51.031,2.468 0.02,0.08 0.04,0.16 0.05,0.23 2.538,-0.789 5.107,-1.489 7.725,-2.089 -2.598,0.68 -5.157,1.439 -7.685,2.259 0.05,0.25 0.11,0.5 0.159,0.749 10.794,-3.435 24.328,-5.618 35.96,-4.877l0 0.03c11.874,0.62 23.737,2.519 34.281,8.645 -11.944,-4.148 -23.987,-6.007 -35.92,-5.907 12.683,0.22 25.396,2.699 37.679,7.406 3.828,1.399 8.275,3.338 10.974,6.016 1.459,1.08 2.868,2.229 4.267,3.508 -0.029,0 -0.06,0 -0.089,0.03 -1.19,-0.81 -2.279,-1.709 -3.358,-2.619 0.759,0.94 1.309,1.959 1.539,3.069 0.609,2.428 1.569,4.877 2.668,7.335l0.07 -2.888c-0.23,-1.06 -0.38,-2.119 -0.38,-3.198 0.15,-0.02 0.3,-0.02 0.46,-0.03l-0.05 -2.398c-5.028,-3.858 -10.045,-7.396 -14.112,-12.443 -0.45,-0.6 -0.54,-1.619 0.26,-1.869 4.647,-1.629 9.145,-0.749 13.562,0.7l-0.04 -0.7c-4.937,-1.199 -10.044,-1.639 -15.251,-1.099 -0.79,0.28 -1.56,1.159 -1.08,1.929 3.029,4.477 7.966,6.965 11.924,10.343 -5.217,-3.488 -10.225,-6.966 -15.782,-9.884 -1.82,-1.34 -7.483,-4.374 -5.776,-5.217 6.196,-3.118 12.922,-3.498 19.689,-2.208 -7.916,-2.289 -15.991,-3.118 -21.728,2.178 -1.529,1.359 4.817,3.908 7.846,5.917 -5.357,-3.029 -14.252,-3.968 -16.971,-9.495 7.546,-3.108 15.551,-3.967 23.567,-3.187 -9.535,-1.619 -20.299,-2.999 -25.945,4.207 -0.37,0.43 2.638,2.239 4.557,2.918 -3.798,-1.129 -7.766,-1.839 -10.824,-4.247 -0.649,-0.57 -0.37,-2.039 0.23,-2.299 11.714,-4.767 24.097,-5.686 36.14,-3.678 -12.523,-2.408 -25.356,-1.928 -37.409,3.168 -1.728,0.607 -2.764,2.465 -0.53,3.348 -1.929,-0.679 -5.667,-1.389 -4.587,-3.337 1.383,-2.599 5.394,-3.949 8.554,-4.418 13.343,-3.907 27.735,-3.428 41.367,0.17 0.28,0.07 0.569,0.15 0.849,0.22 -0.009,-0.13 -0.029,-0.25 -0.04,-0.38 -18.079,-4.987 -37.179,-4.597 -54.019,4.268 -0.6,0.449 -0.34,-1.39 0.43,-2.069 6.236,-4.217 13.482,-5.837 20.798,-6.826 10.924,-1.559 21.868,-0.669 32.522,1.959 0,-0.07 -0.02,-0.139 -0.02,-0.21 -2.459,-0.619 -4.928,-1.169 -7.376,-1.629 -0.99,-0.433 -7.395,-5.875 -8.246,-7.026 1.669,-2.888 5.577,-5.297 12.633,-6.596 0.14,-0.03 0.3,-0.05 0.44,-0.08 -0.081,-0.4 -0.16,-0.8 -0.24,-1.199 -4.867,0.789 -9.605,2.228 -14.112,4.707 2.628,-5.497 7.825,-7.375 13.252,-8.925 -0.06,-0.269 -0.12,-0.549 -0.179,-0.819 -7.196,2.318 -14.852,4.547 -13.473,12.642 0.48,3.258 4.927,4.957 7.766,6.966 -7.286,-1.05 -14.652,-0.85 -21.898,-0.45 -2.978,-0.96 -5.667,-1.869 -8.075,-2.689 -2.579,-0.769 -4.847,-3.677 -3.798,-5.806 7.276,-13.811 24.516,-12.102 38.419,-15.6 -0.101,-0.46 -0.211,-0.919 -0.31,-1.379 -14.932,4.667 -35.141,3.958 -41.587,19.728l-0.03 0zm25.495 -46.911c-0.139,0.829 -0.299,1.669 -0.469,2.548 1.269,-1.414 1.175,-2.091 1.409,-3.347 0.219,-0.78 0.429,-1.54 0.629,-2.289 -0.39,0.1 -0.789,0.2 -1.199,0.3l-0.37 2.788zm-9.174 10.084c-15.142,2.528 -29.474,6.556 -43.196,12.092 20.398,-7.296 42.606,-8.694 64.313,-10.913 -0.019,-0.08 -0.049,-0.17 -0.069,-0.25 -19.038,1.811 -38.024,3.204 -56.629,8.305 18.12,-6.356 37.31,-6.916 56.139,-9.954 -0.04,-0.14 -0.09,-0.29 -0.13,-0.43 -7.246,1.289 -16.281,2.549 -28.704,3.868 10.144,-1.839 16.541,-4.108 25.216,-5.577 1.827,-4.939 1.745,-3.568 1.009,-6.007 -0.219,0.52 -0.439,1.04 -0.669,1.56 -4.588,4.447 -11.224,6.406 -17.28,7.305l0 0.001zm11.753 79.36c7.416,3.398 14.322,7.925 20.418,13.592 0,-0.23 0,-0.46 0,-0.68 -5.606,-5.656 -12.802,-9.773 -20.418,-12.912zm-11.054 -82.389c-7.416,1.649 -14.672,3.548 -21.768,5.717 6.92,-1.896 15.517,-3.465 21.768,-5.727l0 0.01zm-61.805 23.396l0 0.13c0.58,-0.35 1.159,-0.7 1.749,-1.03 -0.58,0.301 -1.17,0.59 -1.749,0.9zm68.611 -12.492c3.898,0.319 7.796,0.859 11.694,1.669 -3.828,-0.96 -7.746,-1.469 -11.694,-1.669zm1.19 -15.351c0,0 0,-0.04 0.01,-0.06 -1.42,1.579 -4.028,3.058 -8.006,4.507 2.905,-0.641 6.702,-1.122 8.006,-4.447l-0.01 0zm-68.052 26.943c5.297,-2.698 10.684,-5.157 16.161,-7.365 -5.537,1.979 -10.934,4.387 -16.161,7.365zm-1.749 1.13l0 0.58c17.64,-8.255 36.599,-13.402 55.958,-15.561 -19.409,1.759 -38.478,5.976 -55.958,14.981zm39.917 -20.837c-0.629,0.24 -1.229,0.479 -1.759,0.759 0.61,-0.249 1.19,-0.509 1.759,-0.759zm-39.917 18.938l0 0.19c12.783,-6.596 26.116,-11.932 40.037,-16.2 -13.962,3.828 -27.294,9.215 -40.037,16l0 0.01zm43.685 -20.957c1.361,-0.413 3.986,-1.511 4.828,-2.439 -5.168,1.889 -10.215,3.828 -15.172,5.846 3.388,-1.209 6.826,-2.358 10.344,-3.417l0 0.01zm-43.685 18.588l0 0.52c10.714,-5.886 21.778,-11.003 33.341,-15.69 -11.793,4.217 -22.837,9.334 -33.341,15.18l0 -0.01zm68.611 -8.454c-23.457,-1.909 -46.883,4.687 -68.621,14.971l0 0.069c12.303,-5.696 25.176,-9.903 38.788,-12.292 9.625,-1.699 19.849,-3.248 29.833,-2.759l0 0.011zm-59.916 68.557c0.02,0.06 0.04,0.12 0.05,0.18 1.769,-0.739 3.588,-1.399 5.437,-1.989 -1.859,0.52 -3.698,1.11 -5.487,1.809l0 0zm43.895 -3.378c-11.951,-2.627 -26.512,-2.166 -38.408,1.569 12.138,-3.371 26.099,-3.773 38.409,-1.569l-0.001 0zm20.269 6.306c-6.447,-2.958 -13.273,-5.057 -20.259,-6.306 5.944,1.282 14.392,3.887 20.259,6.306zm-5.017 1.16c3.528,1.419 7.276,3.128 10.874,5.157 -14.702,-9.964 -33.631,-13.852 -50.991,-10.674 13.352,-1.839 27.304,0.35 40.117,5.517l0 0zm-45.745 35.718c-1.389,-1.479 -2.988,-2.359 -4.697,-2.849 0.09,0.51 0.17,1.02 0.26,1.529 3.708,1.629 6.486,5.277 4.468,9.305 -0.55,1.139 -1.19,2.188 -1.87,3.178 0.11,0.179 0.24,0.34 0.38,0.5 0.9,-1.05 1.759,-2.149 2.569,-3.338 1.639,-2.409 1.159,-5.837 -1.11,-8.325zm5.627 -41.235c-6.196,0.849 -12.253,2.569 -18.02,5.257 0.07,0.289 0.131,0.569 0.2,0.849 5.916,-2.957 11.252,-4.909 17.83,-6.106l-0.01 0zm11.784 -28.343c-2.849,-0.39 -5.807,-0.559 -8.805,-0.679 2.728,0.72 5.716,0.879 8.805,0.679zm-33.561 19.278c0.04,0.17 0.08,0.34 0.13,0.52 10.964,-3.428 22.207,-5.317 33.561,-5.416 -11.374,-0.2 -22.717,1.429 -33.681,4.897l-0.01 -0.001zm79.855 6.756c-0.61,-0.449 -1.24,-0.889 -1.889,-1.269 0.639,0.42 1.269,0.85 1.889,1.269zm3.308 2.689c-0.976,-1.212 -1.946,-1.741 -3.318,-2.689l3.318 2.689zm-120.842 -17.519c3.298,5.286 5.507,11.172 6.486,17.219 -0.649,-6.176 -3.048,-11.963 -6.486,-17.219zm-33.521 10.723c1.219,1.649 2.378,3.368 3.358,5.137 -0.91,-1.909 -2.009,-3.768 -3.298,-5.537 -3.968,-5.746 -11.564,-7.935 -18.499,-6.176 -2.919,0.68 -6.187,0.79 -9.425,1.09l-0.03 0.559c3.948,-0.239 8.075,0.02 11.803,-0.569 5.837,-0.879 12.463,0.82 16.091,5.496l0 0zm-2.479 42.853c-1.169,1.829 -2.438,3.578 -3.787,5.247 2.288,-2.628 4.417,-5.466 6.376,-8.524 2.788,-5.207 4.737,-10.993 5.637,-17.39 0,-0.04 0,-0.08 0,-0.12 -0.7,3.638 -1.679,7.076 -2.928,10.324 -0.62,3.507 -2.779,7.185 -5.298,10.463l0 0zm21.948 -27.752c0.28,-5.957 -1.199,-11.213 -3.548,-16.2 2.089,5.456 3.358,11.163 3.498,16.909 0.01,-0.239 0.03,-0.469 0.04,-0.709l0.01 0zm-14.192 -7.985c0.58,1.659 1.039,3.298 1.379,4.927 -0.45,-2.309 -1.139,-4.578 -2.059,-6.736 0.24,0.599 0.47,1.199 0.67,1.809l0.01 0zm-12.643 -15.671c5.488,3.168 9.525,8.145 11.964,13.862 -2.349,-5.867 -6.257,-11.063 -11.704,-14.232 -5.996,-3.408 -13.442,-4.407 -20.308,-3.228l-0.11 1.809c6.596,-2.239 13.962,-1.899 20.169,1.789l-0.011 0zm-17.22 16.18c1.299,3.428 5.067,4.817 7.026,7.905 3.088,4.658 3.278,9.565 1.709,14.221 2.358,-5.406 2.768,-11.322 -2.159,-15.92 -2.269,-2.068 -6.407,-5.976 -3.318,-7.935 4.617,-3.028 11.164,-0.739 13.962,4.278 4.757,7.875 3.798,17.619 0.11,25.694 3.628,-1.5 4.338,-6.546 8.135,-7.426 -0.02,6.216 -1.889,11.613 -4.937,16.36 0.53,-0.63 1.06,-1.28 1.569,-1.949 2.079,-3.238 3.858,-6.716 5.298,-10.463 0.419,-2.389 0.129,-4.697 -1.26,-6.746 -1.219,-2.179 -3.768,4.757 -6.856,6.936 2.099,-8.645 3.428,-19.798 -4.587,-25.954 -5.437,-4.088 -12.713,-4.548 -18.18,-1.23 0,0.32 0,0.64 0,0.95 1.669,-1.159 3.618,-1.939 5.667,-2.219 -3.047,1.691 -2.179,2.945 -2.179,3.498zm9.685 32.83c2.948,-4.847 6.935,-12.073 3.537,-17.139 -1.939,2.468 -3.478,5.236 -5.087,7.964 -0.529,1.26 -1.189,2.499 -1.948,3.698 1.899,-2.268 3.687,-4.697 5.357,-7.305 0.23,-0.17 0.909,-0.74 0.849,-0.31 1.959,5.327 -0.989,10.174 -3.878,14.391 -0.369,-0.43 0.57,-1.589 0.11,-1.219 -3.758,2.958 -7.685,5.627 -11.743,8.035l0.04 0.65c2.648,-1.43 5.257,-2.948 7.805,-4.548 -2.168,3.029 -4.727,5.737 -7.526,8.205 0.031,0.31 0.07,0.61 0.11,0.89 4.588,-3.988 8.936,-8.146 12.374,-13.312l0 0zm10.843 4.347c-5.216,6.157 -11.387,11.652 -17.66,15.96 0.05,0.02 0.1,0.05 0.16,0.07 6.996,-4.357 13.352,-9.584 17.5,-16.04l0 0.01zm-3.508 0.27c-0.4,-0.03 -0.57,-0.45 -0.989,-0.28 -6.486,3.388 -12.053,7.636 -18.28,10.784 0.04,0.12 0.09,0.249 0.14,0.37 4.607,-2.289 9.105,-4.967 13.892,-7.685 0.43,-0.14 1.249,-0.06 1.249,-0.06 -3.398,4.667 -7.225,8.594 -11.374,11.932 0.191,0.12 0.39,0.23 0.59,0.33 6.486,-3.788 12.373,-8.245 14.772,-15.38l0 -0.011zm-10.824 -10.094c-0.749,0.9 -1.519,1.769 -2.308,2.609 1.763,-2.133 3.926,-5.187 4.847,-7.845 -2.719,6.231 -6.819,10.343 -11.953,14.451 0.029,0.25 0.06,0.5 0.08,0.769 3.618,-2.788 6.965,-6.226 9.334,-9.984zm-4.047 -9.684c-0.38,-2.538 -2.979,-2.708 -5.638,-3.078 0,0.26 0,0.52 0,0.78 2.529,-0.01 4.748,0.69 5.118,3.098 0.869,5.877 -1.29,10.853 -4.937,14.951 0,0.15 0,0.3 0,0.45 3.997,-4.378 6.336,-9.724 5.447,-16.19l0.01 -0.011zm20.938 32.23c6.756,-5.966 12.293,-12.931 15.981,-21.087 -4.158,8.086 -9.604,15.091 -15.981,21.087zm14.991 -57.764c-7.566,-17.512 -22.204,-23.332 -39.208,-28.093 -0.029,0.201 -0.07,0.4 -0.1,0.61 10.115,3.298 20.289,6.286 28.834,14.051 4.308,3.927 7.906,8.495 10.484,13.442l-0.01 -0.01zm-10.244 -21.607c-0.06,-0.089 -0.11,-0.19 -0.17,-0.279 -0.01,0.01 -0.03,0.02 -0.04,0.029l0.21 0.25zm11.973 56.865c3.119,-6.236 4.368,-12.742 4.208,-19.208 -0.41,7.615 -2.149,14.461 -4.937,20.637 0.24,-0.479 0.5,-0.939 0.729,-1.429l0 0zm-9.664 -61.791c0.2,0.23 -5.297,-0.54 -4.078,1.838 0.52,0.95 1.05,1.879 1.599,2.798 1.809,-1.618 4.198,-0.989 6.306,-1.808 -2.088,-2.399 -4.447,-4.517 -6.996,-6.406 1.729,1.622 2.74,3.149 3.169,3.578zm12.773 45.042c-0.61,7.146 -2.439,13.602 -5.247,19.458 0.009,-0.02 0.019,-0.04 0.029,-0.05 7.986,-14.191 7.766,-32.72 -2.239,-45.642 -0.399,-0.509 -0.809,-1.009 -1.229,-1.499 6.307,8.135 9.665,17.969 8.676,27.733l0.01 0zm-41.957 -51.238c7.936,5.467 16.261,8.625 23.927,14.341 -6.456,-5.267 -13.753,-9.564 -21.318,-13.662 -0.6,-0.28 -1.33,-1.159 -0.23,-1.898 1.759,-1.05 4.957,-0.11 5.327,-1.929 0.17,-1.619 -2.439,-2.299 -4.218,-2.888 -1.159,-0.4 -2.289,-0.8 -3.418,-1.199 -0.03,0.129 -0.05,0.269 -0.08,0.399 1.674,0.449 4.639,0.855 3.998,1.889 -0.71,1.419 -3.329,0.639 -4.748,1.869 -0.12,0.639 -0.23,1.279 -0.35,1.919 0.26,0.429 0.7,0.799 1.1,1.169l0.01 -0.01zm39.168 62.131c0.48,-1.389 0.92,-2.798 1.32,-4.257 2.238,-8.595 0.709,-17.33 -3.368,-25.145 4.158,9.594 4.757,19.818 2.049,29.402l-0.001 0zm-5.886 -38.626c-2.765,-3.581 -5.738,-6.47 -9.355,-9.175 3.378,2.759 6.516,5.787 9.355,9.175zm-3.368 23.905c-0.13,-3.238 -1.29,-6.346 -2.919,-9.294 1.43,2.988 2.389,6.106 2.919,9.294zm32.451 -46.691c8.965,7.156 16.291,16.05 21.278,26.334l0.22 -1.039c-4.947,-10.464 -12.473,-18.628 -21.498,-25.294l0 -0.001zm-45.014 80.35c-4.378,5.037 -9.305,9.345 -14.672,13.002 0.09,0.04 0.17,0.07 0.26,0.1 5.447,-3.727 10.324,-8.074 14.412,-13.111l0 0.009zm62.065 -50.758l-3.119 -6.057c-13.312,-24.854 -38.148,-33.749 -62.764,-42.453 6.176,2.328 12.333,4.767 18.31,7.475 -7.936,-3.408 -16.181,-6.366 -24.366,-9.264 1.799,0.789 3.627,1.549 5.467,2.288 -2.549,-0.909 -5.087,-1.808 -7.616,-2.698 1.649,0.71 3.318,1.419 4.987,2.119 -2.438,-0.89 -4.867,-1.759 -7.286,-2.619 4.338,1.759 8.745,3.408 13.133,5.067 20.489,8.615 41.247,17.789 53.92,35.228 4.638,6.711 8.119,15.924 9.554,23.356 0.377,-1.649 -1.927,-8.979 -2.618,-10.924 0.28,0.67 0.56,1.33 0.819,2.029l-1.159 -2.998c-8.395,-22.206 -27.024,-33.829 -47.723,-42.454 2.289,0.87 4.557,1.76 6.806,2.688 15.432,7.396 29.394,16.82 38.898,30.961 2.829,4.767 5.007,9.964 6.387,15.581 0.07,-0.25 0.13,-0.51 0.2,-0.76 -0.93,-3.438 -2.169,-6.836 -3.738,-10.174 0.669,1.179 1.309,2.379 1.919,3.628l-0.011 -0.019zm-12.973 -15.911c-8.575,-10.013 -19.939,-17.209 -32.352,-23.045 12.283,5.456 23.647,12.252 32.352,23.045zm-28.854 -22.545c13.352,5.665 24.907,13.306 33.561,24.964 -8.785,-11.143 -20.588,-18.828 -33.571,-24.954l0.01 -0.01zm48.673 21.586l0.06 -0.35c-1.06,-1.489 -2.179,-2.948 -3.348,-4.367 1.159,1.499 2.259,3.068 3.288,4.727l0 -0.01zm-15.861 -1.669c-1.07,-1.119 -2.169,-2.188 -3.298,-3.228 6.868,7.182 12.005,15.222 15.241,24.045 0.03,-0.12 0.06,-0.23 0.09,-0.34 -2.219,-6.026 -5.317,-11.792 -9.335,-17.159 -0.869,-1.159 -1.779,-2.259 -2.698,-3.318zm-6.197 82.489c1.412,-2.009 5.787,-8.746 6.297,-10.803 -2.049,3.838 -4.448,7.515 -7.126,11.043 0.3,-0.08 0.569,-0.16 0.839,-0.24l-0.01 0zm10.534 -101.627c-4.387,-3.118 -8.925,-5.716 -13.562,-7.965 10.133,5.225 18.882,12.301 26.544,20.328 0.05,-0.28 0.101,-0.57 0.15,-0.849 -3.957,-4.138 -8.235,-8.026 -13.122,-11.513l-0.01 -0.001zm-0.32 -37.257l-0.06 0c4.898,1.539 9.745,3.388 14.512,5.507l0 -0.24c-4.747,-2.019 -9.564,-3.768 -14.452,-5.267zm14.462 0.54l-1.269 -0.37c0.43,0.17 0.849,0.33 1.279,0.5l0 -0.14 -0.01 0.01zm-12.693 81.379c1.008,4.434 1.487,8.93 1.599,13.472 0.13,-0.54 0.25,-1.08 0.37,-1.609 0.109,-1.376 -1.506,-11.414 -1.969,-11.863zm-27.764 -48.989c-8.637,-3.936 -15.623,-6.11 -24.506,-8.745 24.346,8.115 47.453,18.169 61.166,40.455 0.009,-0.06 0.029,-0.13 0.04,-0.19 -8.575,-14.641 -21.908,-24.375 -36.69,-31.53l-0.01 0.01zm-14.712 85.966c2.449,-3.847 4.258,-7.935 5.448,-12.142 -5.197,15.061 -15.002,25.894 -27.195,34.089 0.269,0.04 0.549,0.07 0.82,0.11 8.075,-5.947 15.191,-13.212 20.917,-22.057l0.01 0zm3.009 -3.567c-5.947,10.633 -13.992,19.008 -23.357,25.704 0.16,0.02 0.33,0.04 0.49,0.07 9.774,-6.866 17.87,-15.341 22.867,-25.774zm-22.318 25.844c0.15,0.02 0.3,0.04 0.46,0.06 2.528,-1.909 4.957,-3.938 7.266,-6.106l-7.726 6.046zm-4.257 -6.556c12.942,-10.224 23.766,-23.936 21.818,-41.615 -2.02,-19.828 -18.09,-30.821 -35.471,-31.071l-0.06 0.73c4.667,0.15 9.435,1.089 13.653,2.268 19.579,5.867 27.194,30.452 18.249,48.071 -4.077,8.115 -9.984,14.811 -16.89,20.437 4.824,-4.086 9.569,-9.128 12.902,-14.441 5.557,-8.695 8.236,-18.628 5.937,-29.372 1.42,7.325 0.39,15.246 -2.368,22.067 2.348,-6.326 3.088,-13.122 1.988,-19.658l-0.179 4.337c-0.09,-3.808 -1.999,-7.565 -4.178,-11.183 -0.85,-1.729 -2.719,-3.568 -4.817,-3.148 -0.23,0.17 -0.34,1.189 -0.99,1.759 -5.838,-6.589 -15.589,-10.236 -24.006,-8.065 -0.01,0.39 -0.05,0.69 -0.08,0.99 9.877,-2.936 20.148,1.485 25.386,10.283 0.649,-0.34 1.129,-0.909 1.219,-1.728 5.187,2.448 7.156,8.794 7.096,14.391 0.01,-0.081 0.03,-0.15 0.04,-0.23l-0.23 2.978c-0.51,5.067 -2.439,10.024 -5.127,14.281 -0.1,0.17 -0.22,0.32 -0.32,0.48 -4.728,8.825 -11.884,16.01 -20.469,21.757 0,0 0.02,0 0.02,0 4.898,-3.258 9.535,-6.986 13.872,-11.184 -4.158,4.318 -8.685,8.075 -13.472,11.314l0 -0.001c0.08,0.03 0.16,0.06 0.24,0.08l6.237 -4.527zm45.984 -7.536c15.3,-19.852 16.172,-45.495 1.519,-64.74 9.825,13.622 13.163,30.491 7.266,46.691 -4.847,13.512 -12.833,23.995 -22.797,32.14 0.05,0 0.11,0 0.16,-0.009 4.967,-4.058 9.614,-8.715 13.852,-14.082zm-12.113 0.1c-6.487,5.537 -13.333,10.374 -20.449,14.621 0.87,0.01 1.769,0.021 2.688,0.021 6.317,-4.108 12.273,-8.915 17.76,-14.641l0.001 -0.001zm16.36 -59.273c-12.642,-19.647 -32.591,-29.002 -54.239,-36.067 19.879,7.775 39.918,15.18 52.201,33.809 12.863,19.578 8.695,44.842 -7.366,61.532 -5.527,5.706 -11.464,10.483 -17.73,14.561 0.44,-0.01 0.879,-0.02 1.299,-0.04 4.318,-2.858 8.485,-6.086 12.463,-9.774 17.421,-16.15 27.455,-42.294 13.373,-64.021l-0.001 0zm-13.802 49.569c4.19,-5.044 8.323,-8.13 10.644,-13.811 -1.339,1.359 -3.378,2.298 -4.497,3.957 -9.345,14.272 -21.398,25.265 -35.03,33.959 0.58,0.05 1.269,0.09 2.049,0.12 9.704,-6.565 18.689,-14.55 26.845,-24.215l-0.011 -0.01zm5.957 -24.475c0.06,-0.6 1.019,0.11 1.189,0.54 9.175,-9.774 1.19,-24.335 -6.146,-33.29 -3.788,-4.637 -8.185,-8.374 -12.983,-11.542 6.786,4.687 12.783,10.483 17.46,18.139 3.738,5.916 6.767,12.602 4.388,19.777 -0.62,2.379 -4.028,1.22 -4.108,2.039 -4.337,17.18 -13.072,31.101 -24.556,42.274 13.583,-14.351 21.209,-32.929 17.251,-55.336 -0.09,-1.249 -0.37,-2.688 0.539,-3.427 1.42,-1.729 4.028,-1.25 5.777,-0.26 -1.939,-4.688 -4.548,-8.765 -7.656,-12.373 2.04,2.849 3.688,6.037 4.848,9.635 -4.338,0.199 -6.767,-4.368 -9.835,-6.516 10.594,19.548 8.156,43.773 -5.557,61.702 -5.544,7.282 -10.427,11.651 -17.83,16.929 0.4,0.05 0.8,0.11 1.199,0.16 16.231,-11.522 29.174,-27.163 36,-48.45l0.02 -0.001zm36.349 -57.654l0 -0.41c-5.856,-4.447 -12.153,-8.374 -18.759,-11.752 6.606,3.577 12.903,7.635 18.759,12.162zm-26.515 9.994l0 0zm11.604 9.734c-5.187,-5.526 -10.944,-9.984 -17.1,-13.752 1.429,0.96 2.818,1.969 4.187,3.009 4.567,3.098 8.905,6.625 12.913,10.743zm-61.946 -34.729c-2.508,-0.919 -4.977,-1.938 -7.386,-3.108l-0.149 0.51 7.535 2.589 0 0.009zm40.438 14.502c4.717,2.478 9.255,5.236 13.663,8.325 -4.388,-3.228 -8.956,-5.957 -13.663,-8.325zm-36.18 -13.012c2.529,0.829 5.078,1.599 7.636,2.349 -1.04,-0.35 -2.089,-0.69 -3.138,-1.04 12.007,3.514 20.558,6.093 31.672,11.693 -16.04,-8.438 -24.433,-9.399 -40.437,-14.501 0.77,0.28 1.539,0.56 2.309,0.829l-9.895 -3.267c-0.03,0.089 -0.05,0.169 -0.07,0.259l11.923 3.678zm40.597 19.478c-6.056,-4.088 -12.703,-7.456 -19.779,-10.014 6.014,2.599 14.259,6.624 19.779,10.014l0 0zm2.279 1.759c-8.993,-6.075 -17.041,-9.638 -27.255,-13.482l5.197 1.719c-10.754,-4.647 -22.097,-8.435 -33.021,-12.132 -0.03,0.12 -0.07,0.25 -0.1,0.379l4.748 1.839c-1.59,-0.569 -3.179,-1.149 -4.768,-1.738l-0.17 0.709c7.736,3.598 16.001,5.716 24.486,8.165 10.804,4.027 21.328,8.415 30.873,14.55l0.01 -0.009zm-41.417 -16.11c-0.39,-0.121 -0.769,-0.24 -1.159,-0.37 4.347,1.679 8.735,3.288 13.092,4.947 13.693,5.486 26.785,11.853 37.419,21.616 -4.51,-4.717 -9.253,-8.061 -14.881,-11.423 3.218,1.849 6.317,3.888 9.254,6.187 -8.995,-7.486 -19.489,-12.463 -30.632,-16.55 -8.935,-3.638 -18.16,-6.856 -27.195,-10.354 0,0.04 -0.02,0.07 -0.02,0.11 5.06,2.385 9,3.92 14.132,5.837l-0.01 0zm48.363 24.944c-1.499,-1.409 -3.038,-2.738 -4.638,-3.987l4.638 3.987zm4.298 4.487c2.898,3.018 5.577,6.326 7.995,10.004 -3.558,-5.586 -7.705,-10.344 -12.293,-14.491 1.489,1.399 2.919,2.898 4.298,4.487zm-63.514 -47.101c-0.05,0.17 -0.1,0.34 -0.15,0.51 1.309,0.789 2.688,1.479 4.097,2.048 -1.359,-0.769 -2.678,-1.618 -3.947,-2.558zm58.406 28.373c-6.995,-4.587 -14.282,-7.975 -21.827,-10.843 -10.713,-3.853 -28.153,-7.095 -38.149,-12.023 -0.029,0.09 -0.05,0.18 -0.08,0.27 10.395,5.456 22.148,7.015 33.831,10.813 9.265,3.118 18.22,6.796 26.225,11.773l0 0.01zm-31.252 -18.649c9.195,3.018 18.35,6.026 27.135,10.274 -8.736,-4.527 -17.84,-7.516 -27.135,-10.274zm-5.057 -9.524c1.359,0.28 2.718,0.6 4.078,0.94 12.753,2.508 25.375,6.786 37.049,12.752 -14.112,-7.635 -29.654,-13.072 -45.415,-16.18 -3.028,-0.51 -6.406,-8.045 -2.378,-9.094 0.879,-0.24 1.769,-0.44 2.648,-0.65 -1.959,-0.34 -3.778,-0.7 -5.507,-1.069 -2.099,1.888 -1.809,4.906 -0.38,8.455 -1.837,-2.189 -4.783,-6.602 -4.517,-9.575 -0.84,-0.199 -1.67,-0.409 -2.499,-0.609 0.489,8.015 8.945,13.831 16.9,15.03l0.021 0zm-18.15 2.359c5.277,2.968 11.174,4.667 17.161,5.537 -4.438,-0.64 -9.605,-2.179 -14.282,-4.518l-2.879 -1.019zm23.207 7.165c-5.947,-1.952 -22.193,-6.999 -26.905,-10.544 -0.02,0.061 -0.03,0.11 -0.05,0.17 1.969,1.619 4.238,3.029 6.636,4.228 6.827,2.259 13.623,4.147 20.329,6.136l-0.01 0.01zm-17.45 7.586l-13.072 -5.027c-0.03,0.139 -0.07,0.289 -0.1,0.429 4.413,2.038 8.536,3.135 13.172,4.597l0 0.001zm16.99 -3.228c-6.466,-2.099 -13.122,-4.038 -19.948,-6.177 -2.799,-0.869 -5.508,-1.978 -8.046,-3.328 -0.03,0.1 -0.06,0.2 -0.08,0.3 6.826,3.818 14.901,6.196 22.637,7.955 1.829,0.361 3.648,0.79 5.447,1.25l-0.01 0zm49.393 29.971c-4.968,-6.436 -10.984,-11.513 -17.67,-15.67 6.853,4.495 12.51,9.409 17.67,15.681l0 -0.011zm-31.153 -23.285c-5.797,-2.818 -11.913,-5.057 -18.24,-6.686 4.985,1.621 13.547,4.593 18.24,6.675l0 0.011zm-0.13 32.709c-4.727,-6.206 -10.604,-11.013 -17.1,-15 6.626,4.387 12.553,9.373 17.1,15zm-47.953 -39.865c3.248,1.189 6.517,2.349 9.795,3.508 -3.428,-1.289 -6.856,-2.549 -10.255,-3.798 -0.04,0.16 -0.07,0.32 -0.11,0.49 1.43,0.509 2.879,1.019 4.318,1.529 -1.259,-0.56 -2.509,-1.129 -3.748,-1.719l0 -0.01zm56.828 59.363c-0.989,-7.216 -4.198,-13.692 -8.885,-19.498 4.334,5.705 7.622,12.273 8.885,19.498zm-33.691 -26.524c4.308,7.186 9.355,13.702 12.673,20.748 -2.908,-7.585 -7.396,-14.691 -12.673,-20.748zm30.353 47.921c0.38,-0.38 0.71,-0.789 0.939,-1.259 2.949,-6.147 3.608,-13.262 2.409,-20.138 0.899,6.526 -0.04,13.652 -3.348,21.397l0 0zm-55.959 -72.075c-0.06,0.279 -0.12,0.559 -0.179,0.839 11.354,4.707 23.207,9.025 33.491,15.341 -10.274,-6.796 -22.227,-12.142 -33.312,-16.18l0 0zm-0.609 2.818c-0.02,0.1 -0.05,0.2 -0.07,0.31 3.618,1.299 7.326,2.608 11.014,4.007 -3.628,-1.519 -7.306,-2.938 -10.944,-4.307l0 -0.01zm11.654 5.267c4.897,2.019 9.554,4.487 13.702,7.565 -3.848,-3.578 -8.615,-5.797 -13.702,-7.565zm-11.894 -4.048c-0.02,0.11 -0.04,0.22 -0.07,0.33 3.988,1.259 8.066,2.358 11.964,3.718 -1.593,-0.654 -10.908,-4.048 -11.894,-4.048zm34.161 13.082c-9.984,-6.896 -21.718,-11.373 -33.611,-15.75 -0.05,0.25 -0.11,0.5 -0.16,0.76 4.598,1.639 9.295,3.077 13.952,4.976 6.966,2.869 13.713,5.987 19.819,10.014l0 0zm22.567 18.159c-6.064,-9.712 -15.702,-17.197 -25.285,-22.516 9.7,5.55 18.996,12.861 25.285,22.516zm-45.544 -28.143c12.203,5.087 23.886,11.293 32.082,20.827 -7.286,-10.194 -19.529,-16.05 -32.082,-20.827zm-8.685 -14.551c-0.05,0.24 -0.11,0.48 -0.17,0.72 5.527,1.889 11.224,3.867 16.891,6.036 -5.597,-2.338 -11.224,-4.547 -16.721,-6.756zm73.268 57.744c-6.266,-27.652 -31.112,-41.274 -56.547,-50.988 25.055,10.484 49.252,23.626 56.547,50.988zm-73.058 -58.653c-0.01,0.049 -0.021,0.11 -0.041,0.159 0.74,0.26 1.489,0.53 2.239,0.79 -0.739,-0.32 -1.469,-0.63 -2.198,-0.95l0 0.001zm46.513 98.859c0,0 -0.02,0.019 -0.029,0.019 0.829,-0.509 1.669,-1.019 2.438,-1.638 10.234,-9.894 13.692,-23.516 11.594,-36.428 0.1,0.939 0.17,1.899 0.19,2.858 0.369,12.582 -4.648,25.834 -14.192,35.189l-0.001 0zm-47.743 -93.453c-0.07,0.3 -0.13,0.6 -0.19,0.9 8.566,3.548 17.391,6.276 25.956,9.993 -8.356,-4.127 -17.211,-7.595 -25.756,-10.893l-0.01 0zm-0.45 2.089c-0.04,0.18 -0.08,0.36 -0.12,0.53 10.444,3.898 20.958,7.755 30.533,13.062 -9.534,-5.457 -19.869,-9.444 -30.413,-13.602l0 0.01zm42.567 96.42c1.889,-1.618 3.757,-3.288 5.597,-5.027 -3.001,1.855 -3.263,2.592 -5.588,5.027l-0.009 0zm-42.407 -97.13c-0.019,0.11 -0.049,0.211 -0.069,0.32 1.539,0.48 3.078,0.97 4.607,1.469 -1.509,-0.589 -3.028,-1.189 -4.538,-1.789zm56.029 32.29c-7.869,-10.913 -17.955,-17.552 -29.983,-22.776 11.743,5.807 22.487,12.943 29.973,22.776l0.01 0z"/>
   </g>
  </g>
  <path fill="none" d="M69.622 5.532c-9.32,-0.113 -15.317,-0.1 -21.532,-0.475 -6.215,-0.375 -12.649,-1.137 -18.001,-2.044 -5.351,-0.908 -9.62,-1.96 -13.89,-3.013l-2.056 6.766c-2.101,6.05 -3.233,10.386 -4.916,16.285 -0.249,0.873 -0.435,1.453 -0.642,2.333 -2.36,10.025 -4.55,19.989 -6.162,30.214 -0.554,3.516 -0.787,7.435 -1.226,10.942l-0.435 5.757c-0.045,1.83 -0.234,3.899 -0.37,5.626 -0.078,0.987 0.009,2.192 -0.003,3.205 -0.013,1.158 -0.208,1.511 -0.203,2.794 0.009,2.038 0.069,4.202 0.011,6.226 -0.028,1.013 -0.181,1.575 -0.197,2.723l0.192 9.099c-0.03,8.303 0.172,15.985 0.183,24.267 0.002,1.267 0.207,1.666 0.202,2.996 -0.004,0.925 -0.065,2.104 0.005,3.001 0.131,1.645 0.218,4.048 0.519,5.469 1.056,4.985 5.703,6.849 10.073,7.859 3.312,0.766 6.714,1.111 10.138,1.576 4.01,0.545 19.376,0.399 23.493,-0.086 6.45,-0.761 15.507,-0.276 22.162,-1.971 7.272,-1.853 6.398,-2.822 7.435,-7.425 0.87,-3.869 2.219,-13.998 3.169,-16.919 0.807,-2.484 1.721,-7.868 2.195,-10.524 0.344,-1.99 1.133,-3.678 1.718,-5.612 1.344,-4.441 1.694,-7.626 2.92,-12.169 0.377,-1.398 0.722,-2.38 1.102,-3.854 0.997,-3.864 2.19,-8.249 2.968,-12.117 0.575,-2.856 1.095,-5.36 1.653,-8.289l2.191 -12.734c0.189,-0.998 0.23,-2.248 1.182,-2.596 0.952,0.348 0.993,1.598 1.182,2.596l2.191 12.734c0.558,2.929 1.077,5.433 1.652,8.289 0.779,3.868 1.972,8.253 2.968,12.117 0.38,1.474 0.725,2.456 1.103,3.854 1.226,4.543 1.576,7.728 2.919,12.169 0.585,1.934 1.375,3.622 1.719,5.612 0.473,2.654 1.389,8.042 2.195,10.524 0.949,2.921 2.299,13.05 3.169,16.919 1.037,4.603 0.163,5.572 7.434,7.425 6.656,1.695 15.712,1.21 22.163,1.971 4.117,0.485 19.483,0.631 23.492,0.086 3.425,-0.465 6.827,-0.81 10.138,-1.576 4.371,-1.01 9.018,-2.874 10.074,-7.859 0.301,-1.421 0.388,-3.824 0.519,-5.469 0.07,-0.897 0.009,-2.076 0.005,-3.001 -0.005,-1.33 0.2,-1.729 0.202,-2.996 0.011,-8.282 0.213,-15.964 0.183,-24.267l0.191 -8.764 -0.196 -3.058c-0.058,-2.024 0.002,-4.188 0.011,-6.226 0.004,-1.283 -0.19,-1.636 -0.204,-2.794 -0.011,-1.013 0.076,-2.218 -0.002,-3.205 -0.136,-1.727 -0.325,-3.796 -0.37,-5.626l-0.436 -5.757c-0.439,-3.507 -0.671,-7.426 -1.225,-10.942 -1.612,-10.225 -3.802,-20.189 -6.162,-30.214 -0.207,-0.88 -0.394,-1.46 -0.643,-2.333 -1.682,-5.899 -2.814,-10.235 -4.915,-16.285l-2.057 -6.766c-2.951,0.866 -5.902,1.731 -9.677,2.477 -3.774,0.745 -8.371,1.369 -13.806,1.869 -5.434,0.5 -11.706,0.875 -19.026,1.15 -7.321,0.274 -15.692,0.449 -26.199,0.418 -10.507,-0.031 -23.15,-0.269 -32.47,-0.382z"/>
 </g>
</svg>
