<?xml version="1.0" encoding="UTF-8"?>
<!DOCTYPE svg PUBLIC "-//W3C//DTD SVG 1.1//EN" "http://www.w3.org/Graphics/SVG/1.1/DTD/svg11.dtd">
<!-- Creator: CorelDRAW -->
<svg xmlns="http://www.w3.org/2000/svg" xml:space="preserve" width="238px" height="298px" version="1.1" shape-rendering="geometricPrecision" text-rendering="geometricPrecision" image-rendering="optimizeQuality" fill-rule="evenodd" clip-rule="evenodd"
viewBox="0 0 238 298.123"
 xmlns:xlink="http://www.w3.org/1999/xlink"
 xmlns:xodm="http://www.corel.com/coreldraw/odm/2003">
 <defs>
   <clipPath id="id0">
    <path d="M207.298 27.894c-0.11,-0.063 -0.222,-0.122 -0.337,-0.177 -4.975,-2.38 -9.714,-5.334 -14.858,-7.149 -4.647,-1.639 -11.454,-2.699 -17.288,-4.719 -2.277,-0.789 -4.556,-1.589 -6.82,-2.415l-0.004 -0.03 -9.999 -4.08 -0.175 -0.072c-0.614,-0.28 -1.553,-1.207 -2.512,-1.889 -0.494,-0.369 -0.613,-0.563 -1.038,-0.905 -2.856,-2.299 -5.606,-5.635 -9.574,-5.641 -0.901,-0.002 -1.04,-0.123 -1.779,-0.163l-7.601 -0.17c-5.892,-0.486 -12.055,-0.501 -18.06,-0.477 -5.087,0.02 -9.557,0.063 -14.567,0.477 -2.529,0.209 -4.996,0.029 -7.6,0.17 -0.739,0.04 -0.878,0.161 -1.779,0.163 -3.968,0.006 -6.718,3.342 -9.575,5.641 -0.424,0.342 -0.543,0.536 -1.037,0.905 -0.741,0.527 -1.471,1.2 -2.047,1.608 -0.17,0.121 -0.326,0.218 -0.465,0.281l-10.174 4.152 -0.003 0.03c-2.265,0.826 -4.544,1.626 -6.821,2.415 -5.834,2.02 -12.641,3.08 -17.288,4.719 -5.144,1.815 -9.883,4.769 -14.858,7.149 -0.212,0.101 -0.412,0.215 -0.605,0.339 -0.909,0.583 -1.664,1.379 -2.651,2.001 -11.263,7.099 -18.243,27.467 -21.401,39.215 -1.569,5.839 -1.98,12.983 -2.969,19.04 -0.5,3.067 -1.172,6.193 -1.752,9.253 -0.585,3.095 -0.872,6.493 -1.288,9.631 -0.406,0.268 -0.327,-0.023 -0.308,0.899l-0.065 1.854 0 8.783c0.041,1.018 0.102,1.813 0.186,2.164 1.125,0.477 3.706,0.514 5.07,0.712 7.662,1.114 9.041,0.828 15.791,1.554l21.547 1.349c-0.015,-1.623 0.547,-10.725 0.578,-13.424l-0.603 -0.316 -0.07 -0.036c0,-4.476 -0.011,-9.226 -0.011,-13.7 1.678,4.247 3.328,18.944 3.789,24.023 0.735,8.116 1.826,16.186 2.512,24.347 0.348,4.137 0.874,8.269 1.009,12.419l0.653 12.776c0.396,4.199 0.208,8.934 0.274,13.179 0.032,2.062 0.194,4.007 0.186,6.13 -0.007,2.226 -0.172,4.349 -0.196,6.512 -0.051,4.469 -0.054,8.634 -0.319,13.111 -0.68,11.475 -1.257,26.076 -3.267,37.02 -0.966,5.407 -2.177,11.944 -2.754,17.389 -0.258,2.432 -0.827,10.057 -1.468,11.951 -0.68,2.01 -0.163,3.658 -0.568,5.77 -0.342,1.785 -0.742,3.812 -1.164,5.568 -0.463,1.93 -1.435,3.647 0.397,4.966 4.276,1.054 8.552,2.108 13.913,3.017 5.36,0.909 11.804,1.672 18.03,2.048 6.226,0.375 12.232,0.363 21.568,0.476 9.335,0.112 21.999,0.351 32.523,0.382 10.525,0.032 18.909,-0.144 26.242,-0.419 7.333,-0.275 13.615,-0.65 19.058,-1.151 5.443,-0.501 10.048,-1.126 13.829,-1.873 3.78,-0.746 6.736,-1.613 9.693,-2.48 1.832,-1.319 0.86,-3.036 0.397,-4.966 -0.422,-1.756 -0.822,-3.783 -1.164,-5.568 -0.405,-2.112 0.112,-3.76 -0.568,-5.77 -0.641,-1.894 -1.21,-9.519 -1.468,-11.951 -0.577,-5.445 -1.788,-11.982 -2.754,-17.389 -2.01,-10.944 -2.587,-25.545 -3.267,-37.02 -0.265,-4.477 -0.268,-8.642 -0.319,-13.111 -0.024,-2.163 -0.189,-4.286 -0.196,-6.512 -0.008,-2.123 0.154,-4.068 0.186,-6.13 0.066,-4.245 -0.122,-8.98 0.274,-13.179l0.653 -12.776c0.135,-4.15 0.661,-8.282 1.009,-12.419 0.686,-8.161 1.777,-16.231 2.512,-24.347 0.461,-5.079 1.889,-19.043 3.568,-23.29 0,4.474 -0.105,8.584 -0.105,13.06l0 0 -0.416 0.247c-0.004,0.882 0.338,12.091 0.604,13.423l21.579 -1.336c6.75,-0.726 8.129,-0.44 15.791,-1.554 1.364,-0.198 3.945,-0.235 5.07,-0.712 0.084,-0.351 0.145,-1.146 0.186,-2.164l0 -8.783 -0.065 -1.854c0.014,-0.687 0.062,-0.7 -0.083,-0.774 -0.05,-0.025 -0.122,-0.057 -0.225,-0.125 -0.416,-3.138 -0.703,-6.536 -1.288,-9.631 -0.58,-3.06 -1.252,-6.186 -1.752,-9.253 -0.989,-6.057 -1.4,-13.201 -2.969,-19.04 -3.158,-11.748 -10.138,-32.116 -21.401,-39.215 -1.057,-0.665 -1.895,-1.576 -2.919,-2.163z"/>
   </clipPath>
    <clipPath id="id1">
     <path d="M195.291 97.768c-0.085,-0.928 -0.17,-1.856 -0.308,-2.718 -0.137,-0.863 -0.329,-1.661 -0.099,-3.18 0.23,-1.519 0.881,-3.758 1.681,-6.311 0.801,-2.553 1.752,-5.418 2.565,-9.742 0.813,-4.323 1.489,-10.104 2.278,-15.986 0.788,-5.881 1.689,-11.863 2.652,-16.318 0.964,-4.454 1.99,-7.383 2.541,-9.31 0.55,-1.927 0.626,-2.853 0.663,-4.067 0.021,-0.674 0.03,-1.438 0.034,-2.242 -0.11,-0.063 -0.222,-0.122 -0.337,-0.177 -4.975,-2.38 -9.714,-5.334 -14.858,-7.149 -4.647,-1.639 -11.454,-2.699 -17.288,-4.719 -2.277,-0.789 -4.556,-1.589 -6.82,-2.415l-0.004 -0.03 -9.999 -4.08 -0.175 -0.072c-0.614,-0.28 -1.553,-1.207 -2.512,-1.889 -0.494,-0.369 -0.613,-0.563 -1.038,-0.905 -2.856,-2.299 -5.606,-5.635 -9.574,-5.641 -0.901,-0.002 -1.04,-0.123 -1.779,-0.163l-7.601 -0.17c-5.892,-0.486 -12.055,-0.501 -18.06,-0.477 -5.087,0.02 -9.557,0.063 -14.567,0.477 -2.529,0.209 -4.996,0.029 -7.6,0.17 -0.739,0.04 -0.878,0.161 -1.779,0.163 -3.968,0.006 -6.718,3.342 -9.575,5.641 -0.424,0.342 -0.543,0.536 -1.037,0.905 -0.741,0.527 -1.471,1.2 -2.047,1.608 -0.17,0.121 -0.326,0.218 -0.465,0.281l-10.174 4.152 -0.003 0.03c-2.265,0.826 -4.544,1.626 -6.821,2.415 -5.834,2.02 -12.641,3.08 -17.288,4.719 -5.144,1.815 -9.883,4.769 -14.858,7.149 -0.212,0.101 -0.412,0.215 -0.605,0.339 0.121,0.721 0.248,1.443 0.383,2.165 0.438,2.34 0.963,4.693 1.752,8.597 0.788,3.904 1.839,9.36 2.815,15.624 0.976,6.262 1.877,13.332 3.034,19.705 1.157,6.372 2.57,12.047 3.374,15.175 0.803,3.129 0.998,3.71 1.026,4.321 0.028,0.61 -0.11,1.248 -0.192,1.818 -0.083,0.57 -0.11,1.072 -0.138,1.574 1.678,4.247 3.328,18.944 3.789,24.023 0.735,8.116 1.826,16.186 2.512,24.347 0.348,4.137 0.874,8.269 1.009,12.419l0.653 12.776c0.396,4.199 0.208,8.934 0.274,13.179 0.032,2.062 0.194,4.007 0.186,6.13 -0.007,2.226 -0.172,4.349 -0.196,6.512 -0.051,4.469 -0.054,8.634 -0.319,13.111 -0.68,11.475 -1.257,26.076 -3.267,37.02 -0.966,5.407 -2.177,11.944 -2.754,17.389 -0.258,2.432 -0.827,10.057 -1.468,11.951 -0.68,2.01 -0.163,3.658 -0.568,5.77 -0.342,1.785 -0.742,3.812 -1.164,5.568 -0.463,1.93 -1.435,3.647 0.397,4.966 4.276,1.054 8.552,2.108 13.913,3.017 5.36,0.909 11.804,1.672 18.03,2.048 6.226,0.375 12.232,0.363 21.568,0.476 9.335,0.112 21.999,0.351 32.523,0.382 10.525,0.032 18.909,-0.144 26.242,-0.419 7.333,-0.275 13.615,-0.65 19.058,-1.151 5.443,-0.501 10.048,-1.126 13.829,-1.873 3.78,-0.746 6.736,-1.613 9.693,-2.48 1.832,-1.319 0.86,-3.036 0.397,-4.966 -0.422,-1.756 -0.822,-3.783 -1.164,-5.568 -0.405,-2.112 0.112,-3.76 -0.568,-5.77 -0.641,-1.894 -1.21,-9.519 -1.468,-11.951 -0.577,-5.445 -1.788,-11.982 -2.754,-17.389 -2.01,-10.944 -2.587,-25.545 -3.267,-37.02 -0.265,-4.477 -0.268,-8.642 -0.319,-13.111 -0.024,-2.163 -0.189,-4.286 -0.196,-6.512 -0.008,-2.123 0.154,-4.068 0.186,-6.13 0.066,-4.245 -0.122,-8.98 0.274,-13.179l0.653 -12.776c0.135,-4.15 0.661,-8.282 1.009,-12.419 0.686,-8.161 1.777,-16.231 2.512,-24.347 0.461,-5.079 1.889,-19.043 3.568,-23.29z"/>
    </clipPath>
    <clipPath id="id2">
     <path d="M207.298 27.894c-0.11,-0.063 -0.222,-0.122 -0.337,-0.177 -4.975,-2.38 -9.714,-5.334 -14.858,-7.149 -4.647,-1.639 -11.454,-2.699 -17.288,-4.719 -2.277,-0.789 -4.556,-1.589 -6.82,-2.415l-0.004 -0.03 -9.999 -4.08 -0.175 -0.072c-0.614,-0.28 -1.553,-1.207 -2.512,-1.889 -0.494,-0.369 -0.613,-0.563 -1.038,-0.905 -2.856,-2.299 -5.606,-5.635 -9.574,-5.641 -0.901,-0.002 -1.04,-0.123 -1.779,-0.163l-7.601 -0.17c-5.892,-0.486 -12.055,-0.501 -18.06,-0.477 -5.087,0.02 -9.557,0.063 -14.567,0.477 -2.529,0.209 -4.996,0.029 -7.6,0.17 -0.739,0.04 -0.878,0.161 -1.779,0.163 -3.968,0.006 -6.718,3.342 -9.575,5.641 -0.424,0.342 -0.543,0.536 -1.037,0.905 -0.741,0.527 -1.471,1.2 -2.047,1.608 -0.17,0.121 -0.326,0.218 -0.465,0.281l-10.174 4.152 -0.003 0.03c-2.265,0.826 -4.544,1.626 -6.821,2.415 -5.834,2.02 -12.641,3.08 -17.288,4.719 -5.144,1.815 -9.883,4.769 -14.858,7.149 -0.212,0.101 -0.412,0.215 -0.605,0.339 -0.909,0.583 -1.664,1.379 -2.651,2.001 -11.263,7.099 -18.243,27.467 -21.401,39.215 -1.569,5.839 -1.98,12.983 -2.969,19.04 -0.5,3.067 -1.172,6.193 -1.752,9.253 -0.585,3.095 -0.872,6.493 -1.288,9.631 -0.406,0.268 -0.327,-0.023 -0.308,0.899l-0.065 1.854 0 8.783c0.041,1.018 0.102,1.813 0.186,2.164 1.125,0.477 3.706,0.514 5.07,0.712 7.662,1.114 9.041,0.828 15.791,1.554l21.547 1.349c-0.015,-1.623 0.547,-10.725 0.578,-13.424l-0.603 -0.316 -0.07 -0.036c0,-4.476 -0.011,-9.226 -0.011,-13.7 1.678,4.247 3.328,18.944 3.789,24.023 0.735,8.116 1.826,16.186 2.512,24.347 0.348,4.137 0.874,8.269 1.009,12.419l0.653 12.776c0.396,4.199 0.208,8.934 0.274,13.179 0.032,2.062 0.194,4.007 0.186,6.13 -0.007,2.226 -0.172,4.349 -0.196,6.512 -0.051,4.469 -0.054,8.634 -0.319,13.111 -0.68,11.475 -1.257,26.076 -3.267,37.02 -0.966,5.407 -2.177,11.944 -2.754,17.389 -0.258,2.432 -0.827,10.057 -1.468,11.951 -0.68,2.01 -0.163,3.658 -0.568,5.77 -0.342,1.785 -0.742,3.812 -1.164,5.568 -0.463,1.93 -1.435,3.647 0.397,4.966 4.276,1.054 8.552,2.108 13.913,3.017 5.36,0.909 11.804,1.672 18.03,2.048 6.226,0.375 12.232,0.363 21.568,0.476 9.335,0.112 21.999,0.351 32.523,0.382 10.525,0.032 18.909,-0.144 26.242,-0.419 7.333,-0.275 13.615,-0.65 19.058,-1.151 5.443,-0.501 10.048,-1.126 13.829,-1.873 3.78,-0.746 6.736,-1.613 9.693,-2.48 1.832,-1.319 0.86,-3.036 0.397,-4.966 -0.422,-1.756 -0.822,-3.783 -1.164,-5.568 -0.405,-2.112 0.112,-3.76 -0.568,-5.77 -0.641,-1.894 -1.21,-9.519 -1.468,-11.951 -0.577,-5.445 -1.788,-11.982 -2.754,-17.389 -2.01,-10.944 -2.587,-25.545 -3.267,-37.02 -0.265,-4.477 -0.268,-8.642 -0.319,-13.111 -0.024,-2.163 -0.189,-4.286 -0.196,-6.512 -0.008,-2.123 0.154,-4.068 0.186,-6.13 0.066,-4.245 -0.122,-8.98 0.274,-13.179l0.653 -12.776c0.135,-4.15 0.661,-8.282 1.009,-12.419 0.686,-8.161 1.777,-16.231 2.512,-24.347 0.461,-5.079 1.889,-19.043 3.568,-23.29 0,4.474 -0.105,8.584 -0.105,13.06l0 0 -0.416 0.247c-0.004,0.882 0.338,12.091 0.604,13.423l21.579 -1.336c6.75,-0.726 8.129,-0.44 15.791,-1.554 1.364,-0.198 3.945,-0.235 5.07,-0.712 0.084,-0.351 0.145,-1.146 0.186,-2.164l0 -8.783 -0.065 -1.854c0.014,-0.687 0.062,-0.7 -0.083,-0.774 -0.05,-0.025 -0.122,-0.057 -0.225,-0.125 -0.416,-3.138 -0.703,-6.536 -1.288,-9.631 -0.58,-3.06 -1.252,-6.186 -1.752,-9.253 -0.989,-6.057 -1.4,-13.201 -2.969,-19.04 -3.158,-11.748 -10.138,-32.116 -21.401,-39.215 -1.057,-0.665 -1.895,-1.576 -2.919,-2.163z"/>
    </clipPath>
    <clipPath id="id3">
     <path d="M42.488 97.035c0.028,-0.502 0.055,-1.004 0.138,-1.574 0.082,-0.57 0.22,-1.208 0.192,-1.818 -0.028,-0.611 -0.223,-1.192 -1.026,-4.321 -0.804,-3.128 -2.217,-8.803 -3.374,-15.175 -1.157,-6.373 -2.058,-13.443 -3.034,-19.705 -0.976,-6.264 -2.027,-11.72 -2.815,-15.624 -0.789,-3.904 -1.314,-6.257 -1.752,-8.597 -0.135,-0.722 -0.262,-1.444 -0.383,-2.165 -0.909,0.583 -1.664,1.379 -2.651,2.001 -11.263,7.099 -18.243,27.467 -21.401,39.215 -1.569,5.839 -1.98,12.983 -2.969,19.04 -0.5,3.067 -1.172,6.193 -1.752,9.253 -0.585,3.095 -0.872,6.493 -1.288,9.631 0.744,0.196 1.489,0.392 4.426,0.672 2.938,0.279 8.068,0.642 13.143,1.005 5.074,0.363 10.092,0.726 13.996,1.045 3.905,0.319 6.695,0.595 8.372,0.73l0.055 0.004 0.053 0.004 0.053 0.004 0.052 0.004 0.051 0.004 0.051 0.004 0.05 0.004 0.048 0.004 0.001 0 0.048 0.003 0.048 0.004 0.046 0.003 0.047 0.003 0.045 0.004 0.045 0.003 0.044 0.003 0.044 0.003 0.042 0.003 0.043 0.003 0.041 0.002 0.041 0.003 0 0 0.041 0.002 0.039 0.003 0.039 0.002 0.001 0 0.038 0.003 0.038 0.002 0.037 0.002 0 0 0.037 0.002 0.036 0.002 0.036 0.002 0 0 0.035 0.002 0 0 0.035 0.002 0 0 0.034 0.002 0 0 0.033 0.002 0.033 0.001 0.001 0 0.032 0.002 0.032 0.002 0 0 0.031 0.001 0.001 0 0.031 0.001 0 0 0.03 0.002 0.001 0 0.029 0.001 0.001 0 0.029 0.001 0 0 0.029 0.002 0.001 0 0.028 0 0.001 0 0.028 0.002 0.028 0.001 0 0 0.028 0 0 0 0.027 0.001 0 0 0.027 0.001 0.026 0.001 0.001 0 0.025 0.001 0.001 0 0.025 0.001 0 0 0.025 0 0.001 0 0.025 0.001 0 0 0.024 0 0.001 0 0.024 0.001 0 0 0.024 0.001 0 0 0.023 0 0.001 0 0.023 0 0 0 0.023 0.001 0.001 0 0.022 0 0.001 0 0.022 0.001 0 0 0.022 0 0 0 0.022 0 0.001 0 0.021 0 0 0 -42.196 -3.575c-0.406,0.268 -0.327,-0.023 -0.308,0.899l-0.065 1.854 0 8.783c0.041,1.018 0.102,1.813 0.186,2.164 1.125,0.477 3.706,0.514 5.07,0.712 7.662,1.114 9.041,0.828 15.791,1.554l21.547 1.349c-0.015,-1.623 0.547,-10.725 0.578,-13.424l-0.603 -0.316 0 0 -0.07 -0.036c0,-4.476 -0.011,-9.226 -0.011,-13.7zm152.698 13.793l0 0 -0.416 0.247c-0.004,0.882 0.338,12.091 0.604,13.423l21.579 -1.336c6.75,-0.726 8.129,-0.44 15.791,-1.554 1.364,-0.198 3.945,-0.235 5.07,-0.712 0.084,-0.351 0.145,-1.146 0.186,-2.164l0 -8.783 -0.065 -1.854c0.014,-0.687 0.062,-0.7 -0.083,-0.774 -0.05,-0.025 -0.122,-0.057 -0.225,-0.125 -0.416,-3.138 -0.703,-6.536 -1.288,-9.631 -0.58,-3.06 -1.252,-6.186 -1.752,-9.253 -0.989,-6.057 -1.4,-13.201 -2.969,-19.04 -3.158,-11.748 -10.138,-32.116 -21.401,-39.215 -1.057,-0.665 -1.895,-1.576 -2.919,-2.163 -0.004,0.804 -0.013,1.568 -0.034,2.242 -0.037,1.214 -0.113,2.14 -0.663,4.067 -0.551,1.927 -1.577,4.856 -2.541,9.31 -0.963,4.455 -1.864,10.437 -2.652,16.318 -0.789,5.882 -1.465,11.663 -2.278,15.986 -0.813,4.324 -1.764,7.189 -2.565,9.742 -0.8,2.553 -1.451,4.792 -1.681,6.311 -0.23,1.519 -0.038,2.317 0.099,3.18 0.138,0.862 0.223,1.79 0.308,2.718 0,4.474 -0.105,8.584 -0.105,13.06z"/>
    </clipPath>
    <clipPath id="id4">
     <path d="M207.298 27.894c-0.11,-0.063 -0.222,-0.122 -0.337,-0.177 -4.975,-2.38 -9.714,-5.334 -14.858,-7.149 -4.647,-1.639 -11.454,-2.699 -17.288,-4.719 -2.277,-0.789 -4.556,-1.589 -6.82,-2.415l-0.004 -0.03 -9.999 -4.08 -0.175 -0.072c-0.614,-0.28 -1.553,-1.207 -2.512,-1.889 -0.494,-0.369 -0.613,-0.563 -1.038,-0.905 -2.856,-2.299 -5.606,-5.635 -9.574,-5.641 -0.901,-0.002 -1.04,-0.123 -1.779,-0.163l-7.601 -0.17c-5.892,-0.486 -12.055,-0.501 -18.06,-0.477 -5.087,0.02 -9.557,0.063 -14.567,0.477 -2.529,0.209 -4.996,0.029 -7.6,0.17 -0.739,0.04 -0.878,0.161 -1.779,0.163 -3.968,0.006 -6.718,3.342 -9.575,5.641 -0.424,0.342 -0.543,0.536 -1.037,0.905 -0.741,0.527 -1.471,1.2 -2.047,1.608 -0.17,0.121 -0.326,0.218 -0.465,0.281l-10.174 4.152 -0.003 0.03c-2.265,0.826 -4.544,1.626 -6.821,2.415 -5.834,2.02 -12.641,3.08 -17.288,4.719 -5.144,1.815 -9.883,4.769 -14.858,7.149 -0.212,0.101 -0.412,0.215 -0.605,0.339 -0.909,0.583 -1.664,1.379 -2.651,2.001 -11.263,7.099 -18.243,27.467 -21.401,39.215 -1.569,5.839 -1.98,12.983 -2.969,19.04 -0.5,3.067 -1.172,6.193 -1.752,9.253 -0.585,3.095 -0.872,6.493 -1.288,9.631 -0.406,0.268 -0.327,-0.023 -0.308,0.899l-0.065 1.854 0 8.783c0.041,1.018 0.102,1.813 0.186,2.164 1.125,0.477 3.706,0.514 5.07,0.712 7.662,1.114 9.041,0.828 15.791,1.554l21.547 1.349c-0.015,-1.623 0.547,-10.725 0.578,-13.424l-0.603 -0.316 -0.07 -0.036c0,-4.476 -0.011,-9.226 -0.011,-13.7 1.678,4.247 3.328,18.944 3.789,24.023 0.735,8.116 1.826,16.186 2.512,24.347 0.348,4.137 0.874,8.269 1.009,12.419l0.653 12.776c0.396,4.199 0.208,8.934 0.274,13.179 0.032,2.062 0.194,4.007 0.186,6.13 -0.007,2.226 -0.172,4.349 -0.196,6.512 -0.051,4.469 -0.054,8.634 -0.319,13.111 -0.68,11.475 -1.257,26.076 -3.267,37.02 -0.966,5.407 -2.177,11.944 -2.754,17.389 -0.258,2.432 -0.827,10.057 -1.468,11.951 -0.68,2.01 -0.163,3.658 -0.568,5.77 -0.342,1.785 -0.742,3.812 -1.164,5.568 -0.463,1.93 -1.435,3.647 0.397,4.966 4.276,1.054 8.552,2.108 13.913,3.017 5.36,0.909 11.804,1.672 18.03,2.048 6.226,0.375 12.232,0.363 21.568,0.476 9.335,0.112 21.999,0.351 32.523,0.382 10.525,0.032 18.909,-0.144 26.242,-0.419 7.333,-0.275 13.615,-0.65 19.058,-1.151 5.443,-0.501 10.048,-1.126 13.829,-1.873 3.78,-0.746 6.736,-1.613 9.693,-2.48 1.832,-1.319 0.86,-3.036 0.397,-4.966 -0.422,-1.756 -0.822,-3.783 -1.164,-5.568 -0.405,-2.112 0.112,-3.76 -0.568,-5.77 -0.641,-1.894 -1.21,-9.519 -1.468,-11.951 -0.577,-5.445 -1.788,-11.982 -2.754,-17.389 -2.01,-10.944 -2.587,-25.545 -3.267,-37.02 -0.265,-4.477 -0.268,-8.642 -0.319,-13.111 -0.024,-2.163 -0.189,-4.286 -0.196,-6.512 -0.008,-2.123 0.154,-4.068 0.186,-6.13 0.066,-4.245 -0.122,-8.98 0.274,-13.179l0.653 -12.776c0.135,-4.15 0.661,-8.282 1.009,-12.419 0.686,-8.161 1.777,-16.231 2.512,-24.347 0.461,-5.079 1.889,-19.043 3.568,-23.29 0,4.474 -0.105,8.584 -0.105,13.06l0 0 -0.416 0.247c-0.004,0.882 0.338,12.091 0.604,13.423l21.579 -1.336c6.75,-0.726 8.129,-0.44 15.791,-1.554 1.364,-0.198 3.945,-0.235 5.07,-0.712 0.084,-0.351 0.145,-1.146 0.186,-2.164l0 -8.783 -0.065 -1.854c0.014,-0.687 0.062,-0.7 -0.083,-0.774 -0.05,-0.025 -0.122,-0.057 -0.225,-0.125 -0.416,-3.138 -0.703,-6.536 -1.288,-9.631 -0.58,-3.06 -1.252,-6.186 -1.752,-9.253 -0.989,-6.057 -1.4,-13.201 -2.969,-19.04 -3.158,-11.748 -10.138,-32.116 -21.401,-39.215 -1.057,-0.665 -1.895,-1.576 -2.919,-2.163z"/>
    </clipPath>
 </defs>
 <g id="VETORES">
  <metadata id="CorelCorpID_0Corel-Layer"/>
  <g>
  </g>
  <g clip-path="url(#id0)">
   <g id="_2321451778096">
    <g>
    </g>
   </g>
   <g clip-path="url(#id1)">
   </g>
   <g clip-path="url(#id2)">
    <path id="torso" fill="none" d="M195.291 97.768c-0.085,-0.928 -0.17,-1.856 -0.308,-2.718 -0.137,-0.863 -0.329,-1.661 -0.099,-3.18 0.23,-1.519 0.881,-3.758 1.681,-6.311 0.801,-2.553 1.752,-5.418 2.565,-9.742 0.813,-4.323 1.489,-10.104 2.278,-15.986 0.788,-5.881 1.689,-11.863 2.652,-16.318 0.964,-4.454 1.99,-7.383 2.541,-9.31 0.55,-1.927 0.626,-2.853 0.663,-4.067 0.021,-0.674 0.03,-1.438 0.034,-2.242 -0.11,-0.063 -0.222,-0.122 -0.337,-0.177 -4.975,-2.38 -9.714,-5.334 -14.858,-7.149 -4.647,-1.639 -11.454,-2.699 -17.288,-4.719 -2.277,-0.789 -4.556,-1.589 -6.82,-2.415l-0.004 -0.03 -9.999 -4.08 -0.175 -0.072c-0.614,-0.28 -1.553,-1.207 -2.512,-1.889 -0.494,-0.369 -0.613,-0.563 -1.038,-0.905 -2.856,-2.299 -5.606,-5.635 -9.574,-5.641 -0.901,-0.002 -1.04,-0.123 -1.779,-0.163l-7.601 -0.17c-5.892,-0.486 -12.055,-0.501 -18.06,-0.477 -5.087,0.02 -9.557,0.063 -14.567,0.477 -2.529,0.209 -4.996,0.029 -7.6,0.17 -0.739,0.04 -0.878,0.161 -1.779,0.163 -3.968,0.006 -6.718,3.342 -9.575,5.641 -0.424,0.342 -0.543,0.536 -1.037,0.905 -0.741,0.527 -1.471,1.2 -2.047,1.608 -0.17,0.121 -0.326,0.218 -0.465,0.281l-10.174 4.152 -0.003 0.03c-2.265,0.826 -4.544,1.626 -6.821,2.415 -5.834,2.02 -12.641,3.08 -17.288,4.719 -5.144,1.815 -9.883,4.769 -14.858,7.149 -0.212,0.101 -0.412,0.215 -0.605,0.339 0.121,0.721 0.248,1.443 0.383,2.165 0.438,2.34 0.963,4.693 1.752,8.597 0.788,3.904 1.839,9.36 2.815,15.624 0.976,6.262 1.877,13.332 3.034,19.705 1.157,6.372 2.57,12.047 3.374,15.175 0.803,3.129 0.998,3.71 1.026,4.321 0.028,0.61 -0.11,1.248 -0.192,1.818 -0.083,0.57 -0.11,1.072 -0.138,1.574 1.678,4.247 3.328,18.944 3.789,24.023 0.735,8.116 1.826,16.186 2.512,24.347 0.348,4.137 0.874,8.269 1.009,12.419l0.653 12.776c0.396,4.199 0.208,8.934 0.274,13.179 0.032,2.062 0.194,4.007 0.186,6.13 -0.007,2.226 -0.172,4.349 -0.196,6.512 -0.051,4.469 -0.054,8.634 -0.319,13.111 -0.68,11.475 -1.257,26.076 -3.267,37.02 -0.966,5.407 -2.177,11.944 -2.754,17.389 -0.258,2.432 -0.827,10.057 -1.468,11.951 -0.68,2.01 -0.163,3.658 -0.568,5.77 -0.342,1.785 -0.742,3.812 -1.164,5.568 -0.463,1.93 -1.435,3.647 0.397,4.966 4.276,1.054 8.552,2.108 13.913,3.017 5.36,0.909 11.804,1.672 18.03,2.048 6.226,0.375 12.232,0.363 21.568,0.476 9.335,0.112 21.999,0.351 32.523,0.382 10.525,0.032 18.909,-0.144 26.242,-0.419 7.333,-0.275 13.615,-0.65 19.058,-1.151 5.443,-0.501 10.048,-1.126 13.829,-1.873 3.78,-0.746 6.736,-1.613 9.693,-2.48 1.832,-1.319 0.86,-3.036 0.397,-4.966 -0.422,-1.756 -0.822,-3.783 -1.164,-5.568 -0.405,-2.112 0.112,-3.76 -0.568,-5.77 -0.641,-1.894 -1.21,-9.519 -1.468,-11.951 -0.577,-5.445 -1.788,-11.982 -2.754,-17.389 -2.01,-10.944 -2.587,-25.545 -3.267,-37.02 -0.265,-4.477 -0.268,-8.642 -0.319,-13.111 -0.024,-2.163 -0.189,-4.286 -0.196,-6.512 -0.008,-2.123 0.154,-4.068 0.186,-6.13 0.066,-4.245 -0.122,-8.98 0.274,-13.179l0.653 -12.776c0.135,-4.15 0.661,-8.282 1.009,-12.419 0.686,-8.161 1.777,-16.231 2.512,-24.347 0.461,-5.079 1.889,-19.043 3.568,-23.29z"/>
    <g>
    </g>
   </g>
   <g clip-path="url(#id3)">
   </g>
   <g clip-path="url(#id4)">
    <path id="manga" fill="none" d="M42.488 97.035c0.028,-0.502 0.055,-1.004 0.138,-1.574 0.082,-0.57 0.22,-1.208 0.192,-1.818 -0.028,-0.611 -0.223,-1.192 -1.026,-4.321 -0.804,-3.128 -2.217,-8.803 -3.374,-15.175 -1.157,-6.373 -2.058,-13.443 -3.034,-19.705 -0.976,-6.264 -2.027,-11.72 -2.815,-15.624 -0.789,-3.904 -1.314,-6.257 -1.752,-8.597 -0.135,-0.722 -0.262,-1.444 -0.383,-2.165 -0.909,0.583 -1.664,1.379 -2.651,2.001 -11.263,7.099 -18.243,27.467 -21.401,39.215 -1.569,5.839 -1.98,12.983 -2.969,19.04 -0.5,3.067 -1.172,6.193 -1.752,9.253 -0.585,3.095 -0.872,6.493 -1.288,9.631 -0.406,0.268 -0.327,-0.023 -0.308,0.899l-0.065 1.854 0 8.783c0.041,1.018 0.102,1.813 0.186,2.164 1.125,0.477 3.706,0.514 5.07,0.712 7.662,1.114 9.041,0.828 15.791,1.554l21.547 1.349c-0.015,-1.623 0.547,-10.725 0.578,-13.424l-0.603 -0.316 0 0 -0.07 -0.036c0,-4.476 -0.011,-9.226 -0.011,-13.7zm152.698 13.793l0 0 -0.416 0.247c-0.004,0.882 0.338,12.091 0.604,13.423l21.579 -1.336c6.75,-0.726 8.129,-0.44 15.791,-1.554 1.364,-0.198 3.945,-0.235 5.07,-0.712 0.084,-0.351 0.145,-1.146 0.186,-2.164l0 -8.783 -0.065 -1.854c0.014,-0.687 0.062,-0.7 -0.083,-0.774 -0.05,-0.025 -0.122,-0.057 -0.225,-0.125 -0.416,-3.138 -0.703,-6.536 -1.288,-9.631 -0.58,-3.06 -1.252,-6.186 -1.752,-9.253 -0.989,-6.057 -1.4,-13.201 -2.969,-19.04 -3.158,-11.748 -10.138,-32.116 -21.401,-39.215 -1.057,-0.665 -1.895,-1.576 -2.919,-2.163 -0.004,0.804 -0.013,1.568 -0.034,2.242 -0.037,1.214 -0.113,2.14 -0.663,4.067 -0.551,1.927 -1.577,4.856 -2.541,9.31 -0.963,4.455 -1.864,10.437 -2.652,16.318 -0.789,5.882 -1.465,11.663 -2.278,15.986 -0.813,4.324 -1.764,7.189 -2.565,9.742 -0.8,2.553 -1.451,4.792 -1.681,6.311 -0.23,1.519 -0.038,2.317 0.099,3.18 0.138,0.862 0.223,1.79 0.308,2.718 0,4.474 -0.105,8.584 -0.105,13.06zm-194.813 -3.632c0.744,0.196 1.489,0.392 4.426,0.672 2.938,0.279 8.068,0.642 13.143,1.005 5.074,0.363 10.092,0.726 13.996,1.045 3.905,0.319 6.695,0.595 8.372,0.73l0.055 0.004 0.053 0.004 0.053 0.004 0.052 0.004 0.051 0.004 0.051 0.004 0.05 0.004 0.048 0.004 0.001 0 0.048 0.003 0.048 0.004 0.046 0.003 0.047 0.003 0.045 0.004 0.045 0.003 0.044 0.003 0.044 0.003 0.042 0.003 0.043 0.003 0.041 0.002 0.041 0.003 0 0 0.041 0.002 0.039 0.003 0.039 0.002 0.001 0 0.038 0.003 0.038 0.002 0.037 0.002 0 0 0.037 0.002 0.036 0.002 0.036 0.002 0 0 0.035 0.002 0 0 0.035 0.002 0 0 0.034 0.002 0 0 0.033 0.002 0.033 0.001 0.001 0 0.032 0.002 0.032 0.002 0 0 0.031 0.001 0.001 0 0.031 0.001 0 0 0.03 0.002 0.001 0 0.029 0.001 0.001 0 0.029 0.001 0 0 0.029 0.002 0.001 0 0.028 0 0.001 0 0.028 0.002 0.028 0.001 0 0 0.028 0 0 0 0.027 0.001 0 0 0.027 0.001 0.026 0.001 0.001 0 0.025 0.001 0.001 0 0.025 0.001 0 0 0.025 0 0.001 0 0.025 0.001 0 0 0.024 0 0.001 0 0.024 0.001 0 0 0.024 0.001 0 0 0.023 0 0.001 0 0.023 0 0 0 0.023 0.001 0.001 0 0.022 0 0.001 0 0.022 0.001 0 0 0.022 0 0 0 0.022 0 0.001 0 0.021 0 0 0 -42.196 -3.575z"/>
    <path id="_2" fill="#FF3203" d="M227.837 122.235c1.348,-0.142 2.915,-0.337 4.907,-0.627 1.364,-0.198 3.945,-0.235 5.07,-0.712 0.084,-0.351 0.145,-1.146 0.186,-2.164l0 -2.857c-1.539,0.036 -0.886,-0.201 -2.809,-0.108 -0.205,0.01 -0.104,0.044 -0.436,-0.016 -0.73,-0.131 -1.387,-0.571 -2.167,-0.859 -1.172,-0.432 -0.967,0.299 -2.054,0.627 -2.095,0.631 -4.887,1.528 -0.777,4.627l-1.92 2.089zm9.397 -18.28l-0.027 -0.228 -0.067 0.065c0.032,0.06 0.063,0.114 0.094,0.163zm-2.086 -12.489c-0.1,-0.527 -0.197,-1.052 -0.291,-1.577l-2.881 -0.822c0.86,0.769 0.662,1.054 1.042,1.842 1.171,-0.027 0.046,-0.505 1.474,0.182 0.259,0.124 0.463,0.244 0.656,0.375zm-1.823 -12.72c-0.095,-0.733 -0.193,-1.464 -0.297,-2.19 -0.649,0.237 -1.376,0.422 -2.033,0.335 -0.662,-0.086 -2.27,-0.507 -2.874,-0.77 -0.238,-0.643 -0.285,-0.35 -0.047,-1.092 -0.983,-0.741 -0.897,-0.667 -1.784,-1.03 -1.36,-0.555 -0.188,-0.164 -1.079,-1.101 -0.656,-0.69 -1.025,-0.536 -1.668,-0.625 -1.187,-0.168 0.143,0.136 -1.008,-0.893 -0.724,1.207 -0.155,0.697 -0.28,1.783 -0.057,0.506 -0.34,1.103 -0.416,1.652 0.683,1.29 0.881,-0.101 0.733,1.126 -0.084,0.692 -0.491,1.044 -0.867,1.416 0.237,0.445 0.068,0.244 0.552,0.679 -0.845,1.122 -1.401,0.887 -2.195,-0.03 -0.577,-0.667 -1.955,-1.718 -2.242,-2.258 0.258,-0.915 -0.079,0.248 0.671,-0.287 -0.254,-0.688 -0.235,-1.093 -1.075,-1.309 -0.981,-0.252 -1.824,0.825 -2.696,0.112 -0.037,-0.029 -0.12,-0.135 -0.152,-0.164 -0.558,-0.485 -0.409,0.08 -0.63,-1.207 -0.472,-2.753 -3.139,-1.45 -3.44,-4.535 -0.084,-0.865 0.142,-0.84 -0.174,-1.696l0.003 -0.002 -0.73 0.77 -1.92 -3.56c-0.761,0.322 -0.682,0.37 -1.596,-0.054 -0.364,-0.169 -1.08,-0.524 -1.552,-1.061 -0.532,-0.601 -0.947,-1.896 -1.763,-1.668 -0.479,0.134 -0.205,0.324 -0.348,0.271 -0.037,-0.014 -0.039,0.063 -0.068,0.081 -0.581,-0.694 -0.821,-1.191 -0.914,-1.817l-0.028 0.209c-0.156,1.164 -0.308,2.324 -0.457,3.47 0.364,0.296 0.65,0.574 1.04,1.039 -0.461,-0.024 -0.345,-0.186 -1.165,-0.078l-0.025 0.191c0.623,0.33 1.104,0.373 1.794,0.87 -0.469,0.622 -1.22,0.707 -0.858,2.523 -0.326,-0.246 -0.838,-0.597 -1.259,-0.928 -0.255,1.922 -0.508,3.765 -0.77,5.474l0.094 0.072 -0.14 0.222c-0.06,0.388 -0.121,0.768 -0.182,1.14 0.926,-0.482 0.412,-0.629 2.042,-0.594l-1.016 1.611c0.651,-0.177 2.476,-2.377 2.631,-3.01 0.272,-1.117 -0.183,-2.664 -1.183,-3.557 0.051,0.002 0.117,0.027 0.15,0.033 1.536,0.33 1.359,-0.482 2.852,0.645l-0.159 -0.914 1.328 1.001c-0.579,0.067 -0.607,-0.316 -0.891,0.141 -0.579,0.927 1.613,0.928 1.249,0.499 -0.02,-0.025 0.005,-0.068 0.028,-0.086 1.12,0.486 1.06,0.27 2.385,1.269 -1.645,4.611 -2.085,6.878 -4.214,11.501 -0.53,1.155 -3.902,2.884 -5.039,2.39 -0.208,-0.641 0.101,-1.941 -0.6,-1.806 -0.581,0.112 -0.233,1.38 -0.237,1.967 -0.571,-0.225 -1.348,-0.168 -2.009,-0.092l-0.232 0.735c-0.506,1.616 -0.952,3.105 -1.271,4.367 0.032,0.124 0.065,0.249 0.101,0.377 0.252,0.911 0.47,1.477 0.463,2.428 -0.442,0.247 -0.763,0.32 -1.08,0.525 0.001,0.187 0.01,0.362 0.024,0.527 0.467,-0.109 0.653,-0.335 1.327,-0.32 1.274,3.454 -0.563,3.799 0.458,5.1 -0.682,0.675 -0.641,0.257 -1.303,1.29l-0.002 0.188c0.473,1.283 0.372,1.039 1.322,1.254 0.787,0.178 2.643,1.697 2.838,2.062 1.992,-2.651 3.617,1.283 5.198,-0.836 1.001,-1.34 0.834,-1.83 0.747,-2.984 -0.058,-0.752 -0.321,-2.566 0.617,-2.262 1.495,0.484 1.432,1.716 2.891,0.7 2.057,-1.435 0.62,-4.455 -1.569,-3.96 -0.949,0.213 -1.393,1.212 -1.92,2.218 -1.438,-2.975 -3.734,-2.877 -4.702,-3.338l-0.219 -0.901c1.066,-1.053 2.058,-0.808 2.904,-1.531 1.627,-1.39 1.913,-0.845 2.861,-1.782 0.232,0.175 0.588,0.48 0.834,0.592 0.563,0.255 0.599,-0.014 0.998,0.195l0.22 0.232c0.026,-0.017 0.05,-0.068 0.056,-0.08 1.212,-2.086 1.497,-0.618 2.309,-2.891 0.929,0.734 0.694,1.159 1.558,1.541 1.199,0.527 1.445,-0.071 1.829,-0.307 0.396,0.504 0.497,1.368 1.443,0.885 0.442,-0.226 0.912,-1.109 1.608,-1.576 1.134,-0.763 2.327,-1.302 3.272,-2.729 0.666,0.289 2,0.815 2.722,0.733 -0.939,-0.71 -1.505,-0.819 -2.33,-0.966 0.89,-1.411 2.477,-1.84 1.475,-3.114 0.517,-0.48 0.708,-0.362 1.345,-0.555 0.724,-0.219 0.609,-0.348 1.496,0.32 1.016,-1.608 1.209,-0.529 2.367,-1.304l2.011 -1.787c0.583,-0.347 1.856,0.07 2.643,0.363 0.343,0.128 0.857,0.389 1.219,0.513zm-0.436 -3.132c-0.108,-0.712 -0.223,-1.416 -0.347,-2.112 -0.508,-0.337 -1.112,-0.726 -1.755,-1.157 -0.232,-0.291 -0.409,-0.576 -0.496,-0.844 -0.793,-2.419 -0.888,-0.18 -1.157,-2.182 -0.428,-3.182 -0.901,-1.717 -0.586,-3.974 -0.84,-0.363 -1.724,-0.896 -2.623,-1.509 0.317,-0.705 0.533,-1.051 0.752,-1.904 0,0.001 0,0.001 0,0.001 0.614,1.301 0.898,1.369 1.773,2.488 0.647,0.825 1.025,1.522 1.693,2.345 0.522,0.641 0.869,1.008 1.134,1.261 -0.103,-0.371 -0.21,-0.749 -0.32,-1.134 -1.247,-1.268 -1.915,-2.474 -3.171,-4.857l-0.908 -1.471c0.02,-0.883 -0.195,-1.718 -0.767,-2.323 0.504,-0.706 0.453,-0.513 0.587,-1.185 -0.722,-0.04 -0.28,-0.29 -0.936,0.587 -0.46,-1.045 -0.532,-0.406 -1.117,-2.423 -0.094,0.003 -0.189,0.009 -0.282,0.016 -0.549,-0.914 -1.204,-1.911 -1.754,-2.931 0.013,-0.158 0.037,-0.361 0.07,-0.583 0.4,0.389 0.98,0.408 1.763,-0.833 0.504,0.381 0.947,0.75 1.339,1.11 -0.553,-1.315 -1.137,-2.627 -1.75,-3.922l-0.862 -1.03c-0.343,-0.311 -0.616,-0.391 -0.842,-0.78 -0.24,-0.415 -0.038,-0.919 0.013,-1.558 -3.284,-6.168 -7.313,-11.621 -12.123,-14.653 -1.057,-0.665 -1.895,-1.576 -2.919,-2.163 -0.004,0.804 -0.013,1.568 -0.034,2.242 -0.037,1.214 -0.113,2.14 -0.663,4.067 -0.551,1.927 -1.577,4.856 -2.541,9.31 -0.764,3.534 -1.489,8.028 -2.149,12.67 0.046,-0.174 0.084,-0.321 0.109,-0.419l0.621 0.555c0.445,-0.388 0.356,-0.323 0.813,-0.412 0.354,-0.837 0.331,-0.561 0.022,-1.12l0.881 0.218c-0.641,-0.575 -0.549,-0.398 -0.822,-1.022 1.333,-0.636 0.8,-0.749 2.289,0.056 -0.251,1.259 -0.45,0.268 0.011,1.434 0.572,-1.356 0.354,-1.282 2.863,0.086 0.054,-0.034 0.097,0.04 0.147,0.046l-0.788 -0.706c0.217,-0.319 0.311,-0.504 0.394,-0.703 0.08,0.138 0.203,0.294 0.397,0.489 0.772,0.774 0.621,0.211 1.045,1.213 0.884,2.09 -0.862,2.223 0.246,4.041 0.5,0.822 1.602,1.631 2.449,1.507 0.633,-0.093 0.713,-0.378 1.223,-0.425 0.288,-0.028 2.34,0.79 2.706,-1.842 0.65,0.492 0.925,0.754 1.325,1.317 1.485,2.092 1.348,1.646 1.642,1.733 0.492,1.259 1.227,2.468 1.385,3.636 0.38,2.82 0.269,3.072 -1.114,6.347l0.315 0.283c0.72,-1.009 0.549,-0.682 0.78,-1.685 0.317,-1.372 1.138,-3.535 1.963,-4.692 0.125,0.071 0.219,0.126 0.295,0.175 0.513,0.94 1.023,1.895 1.403,2.349l-0.904 1.432c0.872,0.548 1.242,0.033 2.171,0.053 0.932,0.342 0.506,1.403 1.616,1.869 0.82,0.343 -0.114,-0.445 1.018,0.46 0.734,0.586 -0.343,-0.058 0.483,0.416 0.497,0.286 0.297,-0.03 1.031,0.392l1.664 1.244c0.599,0.448 0.958,0.778 1.299,1.106zm-35.064 5.803c-0.061,0.219 -0.123,0.435 -0.184,0.646 0.19,-0.2 0.373,-0.382 0.437,-0.414 0.543,-0.272 0.077,-0.161 0.975,0.548 0.344,-2.471 1.222,-2.582 2.875,-4.17 1.189,-1.144 2.737,-2.079 3.707,-3.545 -0.361,0.098 -0.068,-0.034 -0.535,0.237 -2.093,1.36 -3.815,3.44 -5.584,5.188 -0.563,-0.11 -0.404,-0.117 -0.83,-0.626 -0.816,1.294 -0.111,1.205 -0.861,2.136zm5.494 -30.757l0.992 -1.39 -0.773 -0.693c-0.006,0.022 -0.014,0.044 -0.021,0.065 -0.053,0.875 0.118,0.32 -0.19,0.779 -0.072,0.348 -0.136,0.698 -0.216,1.049 0.061,0.056 0.129,0.118 0.208,0.191l0 -0.001zm0.037 3.824c0,0 0.088,0.021 0.084,-0.01l-0.084 0.01zm15.84 4.315c0.297,-1.241 0.923,-1.503 2.13,-2.56 -0.486,-1.112 -1.2,-1.8 -1.304,-2.1 -0.307,-0.88 0.067,-1.222 0.336,-1.617 0.03,0.016 0.057,0.031 0.083,0.044 -0.022,-0.034 -0.046,-0.07 -0.071,-0.107 -2.362,-3.663 -2.527,-3.288 -3.143,-3.249 -0.132,0.057 -1.089,1.072 -1.423,1.278l-0.425 0.404c-0.095,0.1 0.446,0.799 -0.615,0.042 -0.392,1.207 0.09,-0.342 0.063,0.651l-0.369 0.371c0.518,1.195 0.348,1.833 1.27,2.97l3.468 3.873zm-11.928 -12.582c-0.031,-0.017 -0.059,-0.032 -0.088,-0.047 0.008,0.027 0.014,0.056 0.02,0.088 0.022,-0.013 0.044,-0.026 0.068,-0.04l0 -0.001zm-0.755 -5.675c0.404,-0.624 0.366,-0.067 0.08,-0.627 0.865,-1.21 0.851,-0.549 1.467,-0.966 -0.014,-0.304 -0.02,-0.549 -0.017,-0.749 -0.382,-0.111 -0.788,-0.068 -1.041,0.332l-1.016 1.611 0.528 0.398 -0.001 0.001zm1.778 1.341c0.455,-0.559 -0.169,-0.363 -0.023,-0.181 0,0 -0.026,0.061 -0.05,0.126l0.073 0.055zm5.214 3.936c0.317,-0.445 -0.231,-0.253 -0.095,-0.086 0.002,0.003 -0.253,0.571 0.095,0.086zm-3.095 -4.92c0.215,-0.273 0.148,-0.473 0.455,-0.777 -0.384,-0.474 -0.768,-0.933 -1.253,-1.394 -0.397,0.591 -0.528,0.465 0.116,1.145 -0.036,0.515 -0.107,2.031 0.682,1.026zm-1.144 -0.016c-0.2,0.516 -0.238,0.172 0.068,0.63 0.213,-0.548 0.197,-0.141 -0.068,-0.63zm-0.733 -1.51l-0.248 0.347c0.298,0.448 0.237,0.776 0.507,0.739 0.481,-0.307 0.424,-0.365 -0.259,-1.086zm4.107 6.823l0.098 0.009c0.022,0.002 0.285,0.456 0.236,-0.007 -0.042,-0.381 -0.792,-0.222 -0.334,-0.002zm-5.21 -6.02c0.013,-0.014 0.025,-0.028 0.042,-0.044 0.444,-0.417 -0.417,-0.29 -0.143,-0.081 0.064,0.044 0.092,0.086 0.101,0.126 -0.188,0.199 0.012,0.162 0,-0.001zm8.396 8.445c-0.123,-0.092 -0.202,-0.154 -0.25,-0.196 -0.247,0.255 -0.3,0.607 -0.626,0.758 -0.135,0.064 -1.187,0.062 -1.657,0.503 0.11,0.233 0.267,0.521 0.442,0.842 0.964,-0.57 1.63,-1.026 2.359,-1.716 -0.084,-0.056 -0.174,-0.119 -0.27,-0.193l0.002 0.002zm-4.336 1.895c-0.326,0.293 -0.8,0.63 -1.518,0.972 0.751,0.567 0.055,0.462 1.84,-0.03 -0.117,-0.317 -0.219,-0.63 -0.322,-0.943l0 0.001zm-2.023 -3.755c-0.003,-0.031 -0.066,-0.013 -0.084,0.01l0.084 -0.01zm0.315 0.283l0.34 0.304c-0.086,-0.132 -0.175,-0.264 -0.272,-0.4l-0.069 0.096 0.001 0zm-2.608 -0.258c-0.077,0.4 -0.238,0.477 -0.285,0.653 0.116,0.019 0.258,-0.003 0.361,-0.066 0.55,-0.333 -0.18,-0.505 0.808,-0.449 -0.054,0.788 0.069,0.628 -0.554,1.498l0.158 0.142c0.45,-0.63 0.796,-1.15 1.275,-1.423 -1.162,-0.996 -1.517,-0.387 -1.763,-0.355zm0.013 1.355c-0.035,0.031 -0.071,0.061 -0.105,0.091 0.022,0.052 0.046,0.106 0.072,0.164 0.014,-0.079 0.024,-0.163 0.033,-0.255zm5.772 5.591c-0.22,-0.326 -0.406,-0.641 -0.568,-0.95 -0.605,0.397 -1.479,0.605 -2.026,1.052 2.155,0.476 1.541,-0.124 2.921,0.62 -0.846,0.694 -1.506,0.172 -2.759,-0.121 0.349,0.529 0.403,0.634 1.339,1.338 1.105,0.834 -0.082,-0.588 1.713,1.557 0.702,0.016 0.451,-0.195 1.169,0.089l0.226 -0.358c-0.83,-0.993 -1.026,-1.769 -2.015,-3.228l0 0.001zm-3.826 -1.464c0.561,0.053 -0.096,0.011 0.466,-0.258l-0.315 -0.283 -0.253 0.354c0.033,0.061 0.068,0.124 0.102,0.187zm-4.401 -2.677c-0.075,-0.104 -0.143,-0.211 -0.204,-0.318 -0.299,0.596 -0.588,1.224 -0.894,1.671 0.243,-0.048 0.411,-0.065 0.69,-0.227 0.374,-0.217 0.257,-0.098 0.653,-0.565 -0.396,-0.566 -0.236,-0.215 -0.245,-0.561zm-2.506 5.317l-0.198 0.812c0.28,-0.47 0.236,-0.368 0.318,-0.802 -0.046,-0.003 -0.085,-0.007 -0.122,-0.011l0.002 0.001zm5.431 9.909c0.014,0.007 0.682,0.521 0.177,-0.034 -0.275,-0.301 -0.733,-0.219 -0.177,0.034zm2.758 10.63c-1.898,-2.269 -1.126,-1.579 -1.699,-3.132 -0.772,1.475 -1.427,5.129 -2.408,7.54 -0.155,0.379 -1.011,2.14 -1.019,2.555 0.411,-0.546 0.453,-0.399 0.636,-0.673 0.682,-1.022 0.406,-0.385 0.101,-0.884l0.725 0.017c1.137,-1.8 2.389,-4.161 3.667,-5.423l-0.003 0zm-1.529 9.413l-1.627 -1.07c-1.472,-0.63 -3.637,0.905 -5.339,1.628 0.793,0.313 2.569,0.305 3.543,0.473 1.326,0.228 1.068,-0.03 3.425,-1.03l-0.002 -0.001zm-10.38 9.077c0.623,-0.265 1.114,-0.457 1.733,-0.806 -0.504,-0.641 -0.101,-0.343 -0.605,-0.984 -0.588,0.014 -1.084,0.327 -1.62,0.628 0.179,0.487 0.254,0.672 0.492,1.162zm-0.432 -1.646c0.437,-0.187 0.335,-0.078 0.754,-0.398 0.681,-0.52 0.162,-0.5 0.7,-0.354l0.339 -0.537c-0.709,-0.902 -0.297,-0.915 0.505,-0.411 -0.516,0.992 -0.362,0.204 -0.007,0.787 0.128,-0.054 5.781,-3.039 6.095,-3.602 1.274,-2.274 -4.804,-1.262 -6.553,-1.498 -0.181,1.773 -0.6,0.485 -1.248,0.354 -0.24,-0.048 -1.7,0.352 -2.159,0.775 -0.003,0.541 0.998,4.198 1.574,4.884z"/>
    <path id="_2_0" fill="#FF3203" d="M42.817 93.628c-0.006,-0.113 -0.017,-0.226 -0.038,-0.355 -1.072,-0.066 -1.857,-0.096 -2.987,0.42 0.402,0.669 0.752,2.249 0.877,2.974 0.201,1.158 0.331,1.668 0.721,2.825 0.289,-0.618 0.163,-0.334 0.247,-0.974 -0.656,-1.091 -0.172,-3.174 -1.26,-4.863 0.485,-0.115 1.103,0.012 1.758,-0.035l0.682 0.008zm-0.916 -3.881l-0.109 -0.425c-0.804,-3.128 -2.217,-8.803 -3.374,-15.175 -0.391,-2.151 -0.752,-4.381 -1.097,-6.633 -0.264,-0.812 -0.51,-1.608 -0.594,-1.86 -0.148,-0.448 -0.105,-0.19 -0.152,-0.634l-0.089 -1.018c-0.588,-1.648 -0.406,-2.29 -0.21,-3.576 -0.131,-0.901 -0.261,-1.797 -0.392,-2.682 -0.098,0.368 -0.2,0.589 -0.396,1.129l-0.461 -0.448 0.811 -0.988 -0.066 -0.448c-1.333,0.424 -0.624,0.691 -2.407,0.429l1.248 -1.519c-0.69,0.098 -2.84,2.115 -3.08,2.743 -0.422,1.108 -0.154,2.749 0.754,3.792 -0.052,-0.008 -0.117,-0.042 -0.149,-0.053 -1.529,-0.535 -1.453,0.319 -2.836,-1.026l0.046 0.955 -1.231 -1.195c0.601,0.006 0.58,0.402 0.93,-0.029 0.711,-0.875 -1.532,-1.157 -1.215,-0.671 0.018,0.028 -0.014,0.069 -0.04,0.084 -1.084,-0.642 -1.05,-0.413 -2.277,-1.605 2.276,-4.508 3.016,-6.772 5.789,-11.23 0.354,-0.571 1.49,-1.199 2.662,-1.589l-0.174 -0.948c-1.706,0.585 -3.7,1.475 -4.942,0.748l-1.528 -1.304 -0.001 -0.001c2.54,-0.721 2.31,-1.019 3.637,-0.615 0.708,0.216 1.86,0.391 2.734,0.632l-0.13 -0.688c-2.191,-0.227 -4.399,-0.623 -3.382,-2.002 0.168,-0.227 1.384,-0.781 2.735,-1.345l-0.101 -0.51c-1.099,0.546 -1.409,0.271 -2.303,0.956 -0.215,-0.208 -0.541,-0.567 -0.778,-0.712 -0.543,-0.334 -0.614,-0.063 -0.996,-0.328l-0.196 -0.266c-0.028,0.014 -0.059,0.063 -0.067,0.075 -1.509,1.979 -1.612,0.44 -2.734,2.662 -0.857,-0.87 -0.562,-1.275 -1.397,-1.777 -1.16,-0.694 -1.488,-0.113 -1.911,0.079 -0.341,-0.566 -0.333,-1.464 -1.364,-1.091 -0.482,0.175 -1.076,1.018 -1.848,1.407 -0.696,0.35 -1.4,0.629 -2.086,1.034 -1.361,2.304 -2.61,4.753 -3.746,7.247 0.637,-0.349 1.08,0.02 1.616,0.823 0.504,0.756 1.779,2.009 2.004,2.599 -0.381,0.903 0.112,-0.245 -0.723,0.207 0.172,0.737 0.1,1.149 0.932,1.478 0.971,0.383 1.973,-0.611 2.774,0.232 0.033,0.033 0.104,0.153 0.134,0.187 0.509,0.568 0.429,-0.03 0.489,1.315 0.13,2.879 3.028,1.888 2.939,5.084 -0.025,0.896 -0.253,0.842 -0.04,1.759l-0.003 0.001 0.847 -0.694 1.507 3.89c0.82,-0.233 0.745,-0.291 1.627,0.26 0.351,0.219 1.038,0.675 1.452,1.285 0.467,0.684 0.725,2.063 1.59,1.934 0.507,-0.076 0.252,-0.305 0.391,-0.233 0.036,0.019 0.048,-0.059 0.08,-0.074 0.771,1.198 0.79,1.825 0.608,3.152 -0.054,0.402 -0.801,2.187 -0.999,2.699l-0.565 -0.648c-0.505,0.34 -0.406,0.285 -0.884,0.317 -0.47,0.812 -0.412,0.532 -0.167,1.144l-0.874 -0.337c0.583,0.671 0.511,0.478 0.711,1.152 -1.446,0.48 -0.916,0.664 -2.336,-0.351 0.418,-1.257 0.495,-0.217 0.173,-1.47 -0.76,1.316 -0.528,1.267 -2.919,-0.455 -0.061,0.027 -0.095,-0.053 -0.145,-0.066l0.716 0.824c-0.264,0.298 -0.383,0.475 -0.493,0.669 -0.065,-0.152 -0.171,-0.328 -0.344,-0.552 -0.691,-0.891 -0.608,-0.295 -0.914,-1.376 -0.636,-2.252 1.168,-2.164 0.267,-4.167 -0.406,-0.905 -1.43,-1.875 -2.313,-1.857 -0.66,0.014 -0.778,0.295 -1.307,0.278 -0.297,-0.008 -2.292,-1.11 -3.005,1.537 -0.602,-0.586 -0.85,-0.89 -1.187,-1.518 -1.252,-2.331 -1.168,-1.858 -1.458,-1.984 -0.342,-1.352 -0.939,-2.683 -0.95,-3.899 -0.028,-2.935 0.118,-3.179 1.955,-6.353l-0.287 -0.33c-0.866,0.94 -0.649,0.628 -1.014,1.624 -0.5,1.363 -1.618,3.472 -2.612,4.55 -0.119,-0.088 -0.207,-0.157 -0.279,-0.217 -0.346,-0.879 -0.688,-1.769 -0.987,-2.329 -1.238,3.587 -2.24,6.979 -3.013,9.854 -0.139,0.521 -0.27,1.051 -0.393,1.59 0.084,-0.004 0.118,-0.138 0.566,-0.603 0.336,1.128 0.492,0.483 0.832,2.622 0.097,0.01 0.194,0.016 0.29,0.02 0.445,1.007 0.987,2.111 1.419,3.226 -0.033,0.16 -0.084,0.365 -0.146,0.588 -0.359,-0.45 -0.951,-0.544 -1.912,0.625 -0.777,-0.755 -1.384,-1.457 -1.867,-2.119 -0.089,0.573 -0.174,1.15 -0.255,1.73 0.173,0.242 0.365,0.359 0.991,1.381 -0.587,0.639 -0.834,0.935 -1.285,1.715l-0.09 -0.168c-0.271,2.175 -0.522,4.345 -0.815,6.425l0.057 0.108 -0.058 -0.101 -0.085 0.591 0.075 0.001c-0.016,0.017 -0.059,0.026 -0.078,0.015 -0.069,0.47 -0.14,0.935 -0.215,1.394 -0.197,1.207 -0.42,2.422 -0.654,3.639 0.056,0.175 0.139,0.359 0.281,0.813 0.08,0.255 0.137,0.663 0.178,1.145 -0.068,0.202 -0.075,0.459 0.052,0.864 0.035,0.83 0.033,1.731 0.006,2.415 -0.784,-0.862 -0.866,-0.604 -1.352,-0.988 -0.087,0.447 -0.173,0.893 -0.257,1.338 0.453,0.415 0.869,1.138 1.586,0.102 -0.021,0.309 -0.047,0.535 -0.078,0.625 -0.295,0.874 -0.554,-0.511 -0.095,0.957l0.498 3.083c0.177,0.872 0.149,2.042 0.131,3.389 -0.781,-0.899 -0.958,-0.718 -1.733,-0.993 -0.377,0.484 -0.311,0.367 -0.454,0.812 0.138,0.875 -0.145,0.382 0.418,1.15 -1.021,0.931 -0.32,0.172 -0.5,0.013l-0.464 -0.165c-0.247,-0.027 0.106,0.741 -0.208,-0.06 -0.186,-0.473 -0.332,0.187 0.753,-0.938 -0.883,-0.162 -0.322,-0.053 -0.978,0.335 -0.036,0.297 -0.072,0.591 -0.109,0.884 0.375,0.197 0.405,0.354 0.818,0.539l3.704 0.313 0.044 -0.075 0.059 0.084 1.309 0.111 -0.002 -0.006c-0.881,-2.442 -0.593,-1.286 -0.525,-2.633 0.048,-0.981 -0.201,-0.869 0.011,-1.797l0.075 -0.301c0.208,-0.229 0.451,-0.504 0.604,-0.788 0.229,0.572 0.336,1.052 0.733,1.592 -0.66,0.138 -0.584,-0.166 -0.858,0.478 -0.297,0.696 -0.09,0.766 0.529,1.479l0.891 -0.645c-0.903,1.024 -0.35,0.622 -0.635,1.703l-0.184 0.74c-0.014,0.104 -0.019,0.178 -0.018,0.231l3.401 0.288c-1.062,-3.584 0.197,-1.519 -0.124,-3.094 -0.173,-0.856 -0.372,-0.322 -0.217,-1.312 0.794,-0.536 0.852,-0.325 1.614,-0.147 0.363,0.678 0.474,1.249 0.604,1.975 0.331,1.856 0.286,1.346 0.656,1.144l0.011 -0.655c-0.364,-0.68 -0.512,-1.128 -0.406,-1.802 0.582,0.67 0.511,0.478 0.711,1.151 0.496,-0.924 0.193,-1.906 0.245,-2.946 1.095,1.451 0.119,1.981 1.671,3.49 -0.378,0.747 -0.62,1.688 -0.83,2.529l0.369 0.032c0.235,-0.819 0.518,-1.68 0.615,-2.412 0.823,0.801 1.178,0.782 1.954,0.989l-1.382 1.523 1.135 0.096c0.052,-0.055 0.107,-0.116 0.165,-0.183 0,0.079 -0.01,0.141 -0.022,0.195l0.506 0.043c0.039,-0.067 0.118,-0.123 0.253,-0.146 0.274,-0.046 0.306,0.061 0.243,0.188l0.152 0.013c0.254,-0.379 0.243,-0.45 0.457,-0.873 0.1,0.521 0.131,0.566 -0.036,0.909l6.316 0.535c-0.013,-0.285 0.045,-0.583 0.198,-0.911 0.152,0.449 0.17,0.569 0.415,0.963l0.166 0.014 0.189 -0.23 0.056 0.251 9.773 0.828c-0.24,-0.238 -0.453,-0.532 -0.708,-0.791 -0.73,-0.743 -0.444,-0.231 -0.98,-1.15 -1.013,-1.731 -0.437,-0.531 -1.655,-1.144 -1.069,-0.536 -0.665,-1.154 -0.793,-1.906l-0.766 -0.402c-0.319,-0.056 0.125,0.574 -0.514,-0.302 -0.268,-0.365 -0.163,-0.132 -0.117,-0.615 0.384,0.442 0.352,0.486 0.63,0.917 0.416,-0.43 0.316,-0.353 0.708,-0.526 -0.671,-0.548 -1.185,-0.483 -1.631,-1.038 -0.572,-0.711 -0.043,-0.568 0.518,-0.989l-0.764 -0.402c1.118,-0.317 1.309,0.462 2.405,1.215 0.904,0.622 1.592,1.079 2.443,1.655 2.236,1.514 -0.036,2.623 1.966,4.659l0.005 0c1.255,-0.572 0.18,-0.621 1.604,-0.195 0.309,0.093 1.365,0.262 1.448,0.316 0.695,0.451 -0.017,0.549 0.905,1.096l2.018 0.171 0 0 -0.021 0 -0.001 0 -0.022 0 0 0 -0.022 0 0 0 -0.022 -0.001 -0.001 0 -0.022 0 -0.001 0 -0.023 -0.001 0 0 -0.023 0 -0.001 0 -0.023 0 0 0 -0.024 -0.001 0 0 -0.024 -0.001 -0.001 0 -0.024 0 0 0 -0.025 -0.001 -0.001 0 -0.025 0 0 0 -0.025 -0.001 -0.001 0 -0.025 -0.001 -0.001 0 -0.026 -0.001 -0.027 -0.001 0 0 -0.027 -0.001 0 0 -0.028 0 0 0 -0.028 -0.001 -0.028 -0.002 -0.001 0 -0.028 0 -0.001 0 -0.029 -0.002 0 0 -0.029 -0.001 -0.001 0 -0.029 -0.001 -0.001 0 -0.03 -0.002 0 0 -0.031 -0.001 -0.001 0 -0.031 -0.001 0 0 -0.032 -0.002 -0.032 -0.002 -0.001 0 -0.033 -0.001 -0.033 -0.002 0 0 -0.034 -0.002 0 0 -0.035 -0.002 0 0 -0.035 -0.002 0 0 -0.036 -0.002 -0.036 -0.002 -0.037 -0.002 0 0 -0.037 -0.002 -0.038 -0.002 -0.038 -0.003 -0.001 0 -0.039 -0.002 -0.039 -0.003 -0.041 -0.002 0 0 -0.041 -0.003 -0.041 -0.002 -0.043 -0.003 -0.042 -0.003 -0.044 -0.003 -0.044 -0.003 -0.045 -0.003 -0.045 -0.004 -0.047 -0.003 -0.046 -0.003 -0.048 -0.004 -0.048 -0.003 -0.001 0 -0.033 -0.003c0.549,0.272 1.061,0.105 0.857,1.093l-0.584 0.037c1.14,1.31 -0.714,-0.297 1.4,1.664 -0.912,0.215 -1.902,-0.371 -2.834,-0.954 -2.794,-1.754 -0.76,-0.683 -2.219,-2.133l-0.203 -0.019c-0.625,0.383 0.131,0.463 -0.619,0.244 -0.226,-0.065 -0.412,-0.193 -0.583,-0.351 -1.162,-0.104 -2.484,-0.219 -3.967,-0.34 -1.755,-0.143 -3.735,-0.296 -5.844,-0.453 0.155,0.767 -0.005,0.625 -0.254,1.502 -0.166,-0.241 -0.332,-0.474 -0.49,-0.696 -0.153,-0.294 -0.261,-0.582 -0.292,-0.883 -2.061,-0.152 -4.226,-0.308 -6.411,-0.465l-0.108 0.213 -0.245 -0.238 -0.263 -0.019c-0.08,0.08 -0.171,0.142 -0.231,0.146 -0.066,0.004 -0.137,-0.075 -0.16,-0.174l-0.533 -0.038c-0.034,0.155 -0.028,0.354 0.188,0.88 0.362,0.883 0.483,0.112 0.159,1.265 -0.568,2.026 -1.04,2.29 -0.213,1.77l0.414 -1.325c0.411,-1.208 0.109,-0.379 0.479,-0.773 1.056,-1.119 -0.455,0.043 1.432,-1.406l1.231 1.196c0.54,0.005 0.753,-0.06 1.262,0.693 0.626,0.924 0.173,0.448 0.109,2.567 -0.019,0.621 -0.174,0.7 0.166,1.266 0.389,-0.771 0.374,-1.488 0.478,-2.265 1.012,0.83 0.653,0.129 1.358,1.5 0.346,0.672 0.624,1.072 0.956,1.7 0.497,0.94 1.763,2.627 2.686,3.309 2.585,1.917 0.461,1.748 3.47,4.613l3.189 0.2c0.053,-0.038 0.11,-0.081 0.172,-0.129l-1.077 -1.046c0.595,-0.756 0.329,-0.626 0.817,-1.33 0.651,0.384 0.795,0.164 1.355,0.708 0.387,0.376 0.369,1.175 0.239,1.891l6.617 0.414c-0.015,-1.623 0.547,-10.725 0.578,-13.424l-0.603 -0.316 0 0 -0.07 -0.036 -0.001 -3.44c-0.936,0.228 -0.265,-0.08 -0.62,-0.375l-1.029 -0.397c-1.37,-0.522 -1.006,-0.851 -1.703,-1.935 0.827,-0.196 2.453,1.443 3.351,2.34l-0.001 -1.505c-0.775,-0.757 -1.61,-1.638 -2.401,-2.336 -1.125,-0.991 -2.139,-1.02 -2.708,-2.065 -2.13,-3.908 -1.371,-0.956 -2.983,-3.46 0.173,-0.615 0.16,-0.435 0.693,-0.844 -0.419,-0.247 -0.38,-0.128 -0.621,-0.484 -0.124,-0.183 -0.373,-0.724 -0.111,-1.023l0.502 -0.232c-0.446,-0.365 -0.483,-0.328 -0.907,-0.579 0.649,-0.755 0.717,-0.646 1.433,-0.675 0.628,-0.026 0.858,0.048 1.47,0.065 0.612,0.018 0.857,0.014 1.469,0.052 0.54,0.032 0.96,-0.004 1.459,-0.146 -0.592,-0.324 -0.832,-0.188 -1.478,-0.227l-2.945 -0.033c-0.839,0.009 -0.736,0.036 -1.195,-0.647 0.719,-0.514 0.03,0.01 0.715,-0.381l1.702 -1.215c0.936,0.952 1.275,1.849 2.556,1.074 1.531,-0.929 0.674,-1.859 1.168,-2.916 0.308,0.627 0.053,0.159 0.161,0.468l0.414 1.249c0.191,0.674 0.192,0.912 0.607,1.556 0.319,-0.458 0.421,-0.832 0.401,-1.188 0.118,0.516 0.254,0.968 0.404,1.25l-0.4 -2.939zm-6.927 -37.87l-0.057 -0.342c-0.387,0.255 -0.832,0.536 -1.351,0.923 -1.364,1.018 -3.068,1.776 -4.249,3.152 0.382,-0.054 0.065,0.043 0.578,-0.174 1.823,-0.884 3.469,-2.254 5.079,-3.559zm-3.325 -17.522c-0.198,-0.953 -0.376,-1.808 -0.539,-2.624 -0.702,-0.631 -0.843,-1.251 -2.112,-0.585 -2.29,1.205 -1.207,4.48 1.097,4.255 0.647,-0.062 1.119,-0.49 1.554,-1.046zm-18.624 15.782c-0.154,0.346 -0.305,0.692 -0.455,1.04 0.199,-0.226 0.438,-0.397 0.668,-0.574 -0.129,-0.338 -0.096,-0.33 -0.213,-0.466zm-0.952 2.212c-0.451,1.083 -0.881,2.167 -1.291,3.243 1.056,0.282 -0.182,-0.151 0.839,1.022 0.897,-1.142 0.249,-0.693 0.516,-1.789 0.123,-0.51 0.489,-1.085 0.638,-1.637 -0.449,-1.187 -0.791,-0.38 -0.702,-0.839zm-2.035 5.248c-0.129,0.357 -0.256,0.713 -0.38,1.066l0.698 -0.849c-0.112,-0.093 -0.217,-0.163 -0.318,-0.217zm-9.978 50.307l0.005 0.191 -0.065 1.854 0 0.648c0.711,0.754 1.019,1.705 0.594,2.588 -0.091,0.188 -0.082,0.142 -0.244,0.325 0.862,0.837 1.195,0.449 1.9,0.183l-0.461 -0.817c-0.118,-0.45 -0.119,-1.215 0.34,-1.638l0.617 -0.647c0.127,0.429 0.292,0.722 0.418,1.15 0.333,-0.55 0.362,-0.544 0.818,-1.01 0.08,0.527 0.075,0.714 0.164,1.053 -0.091,0.16 -0.177,0.314 -0.259,0.454 -1.283,0.217 0.216,-0.604 -0.878,-0.008 0.523,1.05 -0.004,1.489 0.033,2.153 0.037,0.649 0.641,1.297 1.145,1.702 1.324,1.065 0.23,-0.88 1.688,1.563 0.749,1.256 0.797,0.311 0.711,1.47 -0.042,0.544 -0.56,1.748 -0.14,2.659 1.797,0.248 3.225,0.414 4.476,0.536 -0.288,-0.361 -0.325,-0.489 -0.613,-1.026 2.393,-1.616 1.712,-0.657 2.05,0.021 0.754,-0.855 0.331,-2.549 1.773,-0.962 0.279,-1.425 -0.055,-0.427 0.861,-1.179 0.693,-0.571 0.283,-0.584 0.651,-1.421 -1.778,-1.727 -2.191,-0.323 -2.486,-0.19 -1.52,-1.749 -0.646,-1.246 -1.421,-2.303 -0.124,0.785 0.177,1.505 0.836,2.297 -0.251,0.041 -0.923,0.364 -1.18,-1.145 -0.099,-0.577 -0.169,-1.005 0.485,-1.506 0.281,-0.216 0.617,-0.252 0.971,-0.304 -0.136,0.65 -0.286,1.217 -0.118,1.939 0.344,-0.682 0.374,-1.32 0.447,-1.996 0.206,-0.045 0.417,-0.115 0.624,-0.245 -0.046,-0.032 -0.091,-0.058 -0.133,-0.082 0.232,0.02 0.09,0.16 0.376,-0.12 0.626,-0.613 0.002,-0.681 -0.051,-0.764 -0.655,-0.987 -1.336,0.411 1.638,-3.372 0.564,-0.716 0.807,-0.794 1.198,-1.161l-1.133 -0.082 -1.359 1.498c0.007,-0.454 0.132,-0.999 0.292,-1.574l-0.363 -0.026c-0.043,0.172 -0.085,0.339 -0.128,0.497l0.003 0.003c-0.665,2.487 0.008,1.932 -0.861,3.088 -0.536,0.714 -1.178,1.457 -1.8,2.183 -0.164,-0.075 -0.149,0.122 -0.745,-0.272 0.472,-0.875 0.198,-0.607 0.132,-1.471 -0.099,-1.277 0.517,-1.413 -0.274,-3.926l-0.118 -0.38c-1.252,-0.094 -2.423,-0.184 -3.465,-0.27l-0.124 0.282c-0.559,-0.236 -0.522,-0.22 -0.49,-0.334 -0.411,-0.035 -0.798,-0.069 -1.157,-0.102 0.274,0.586 0.185,1.137 -0.133,1.726 -0.055,0.008 -0.101,0.016 -0.144,0.024 -0.068,-0.561 -0.144,-1.136 -0.221,-1.705l0.05 -0.086c-1.947,-0.186 -2.929,-0.334 -3.587,-0.47 -0.477,0.293 -0.729,0.292 -1.145,0.507zm-0.06 9.225l0 1.603c0.041,1.018 0.102,1.813 0.186,2.164 0.766,0.325 2.207,0.446 3.479,0.552l0.651 -0.705c-0.698,-1.301 -1.108,-1.363 0.047,-2.615 -0.61,-0.436 -0.767,-0.355 -1.003,-1.154 -0.845,0.281 -0.777,0.201 -1.631,1.127 -0.388,-0.376 -0.424,-0.454 -0.86,-0.528 -0.341,-0.057 -0.452,0.142 -0.597,0.186 -0.324,-0.606 -0.115,-0.259 -0.272,-0.63zm11.663 5.253l0.634 0.055c-0.07,-0.136 -0.147,-0.297 -0.244,-0.478l-0.39 0.423zm1.729 0.141l0.376 0.028c-0.219,-0.585 0.058,-0.383 -0.37,-2.05 -0.569,0.941 -0.678,0.502 -0.648,1.138 0.024,0.526 0.236,0.526 0.642,0.884zm0.701 0.051c0.583,0.041 1.167,0.082 1.783,0.126 -0.013,-0.339 -0.074,-0.079 0.127,-0.538l0.184 -0.652c0.917,-2.567 0.4,-0.144 0.42,-2.61 0.012,-1.486 0.752,-0.678 -0.072,-1.799 -0.663,0.846 -0.997,3.053 -1.294,4.025 -0.19,0.628 -0.326,0.372 0.033,0.865 -0.492,0.452 -0.783,0.512 -1.181,0.583zm11.633 -13.136l0.032 0.002 -0.018 0.021 -0.014 -0.023zm11.52 0.883l-0.054 -0.005 0.032 -0.017 0.022 0.022zm-29.651 -13.02c-0.003,0.004 -0.002,0.002 0,0zm-1.032 -11.254c0.523,-0.249 0.275,-0.172 0.73,0.074 -0.168,0.623 -0.133,0.464 -0.752,1.137l-0.574 -0.66c0.217,-0.225 0.323,-0.422 0.596,-0.551l0 0zm30.58 -11.006c-0.662,0.806 -0.68,0.596 -1.264,1.199 0.429,0.666 0.426,0.948 0.995,1.565 0.095,-0.034 0.19,-0.072 0.281,-0.116 0.549,-0.83 0.383,-1.474 -0.012,-2.647l0 -0.001zm-2.552 -7.333l1.538 1.494 -0.34 -1.733c-0.512,-2.18 -0.832,-1.531 -1.293,-2.185 -0.446,-0.633 0.201,0.102 -0.391,-0.724 -0.345,-0.48 -1.198,-1.218 -1.652,-1.658 0.139,1.905 -0.641,1.896 -1.201,2.473 0.728,0.677 1.256,0.722 1.968,1.306 -1.182,0.043 -0.959,-0.131 -1.476,-0.223 0.589,0.915 0.931,1.209 1.861,2.112 -0.656,0.948 -0.397,0.162 -0.108,0.805l1.36 0.84c0.668,0.45 0.942,0.51 1.516,1.043 0.049,-0.517 -0.143,-2.202 -1.107,-1.681 -0.656,-0.666 -0.742,-1.167 -0.677,-1.87l0.002 0.001zm-5.963 12.581l-1.195 1.295 0.703 0.808c0.009,-0.021 0.02,-0.043 0.03,-0.064 0.166,-0.888 -0.08,-0.342 0.294,-0.772 0.119,-0.347 0.229,-0.697 0.356,-1.046 -0.055,-0.065 -0.117,-0.137 -0.188,-0.222l0 0.001zm0.453 -3.919c0,0 -0.087,-0.032 -0.087,0l0.087 0zm-15.658 -6.45c-0.463,1.232 -1.138,1.419 -2.509,2.346 0.355,1.201 0.997,1.997 1.065,2.317 0.201,0.94 -0.225,1.242 -0.551,1.612 -0.029,-0.02 -0.055,-0.039 -0.079,-0.056 0.018,0.038 0.037,0.078 0.058,0.119 1.947,4.052 2.164,3.69 2.8,3.728 0.142,-0.041 1.252,-0.957 1.62,-1.125l0.487 -0.358c0.111,-0.091 -0.354,-0.876 0.635,0.036 0.557,-1.186 -0.136,0.338 0.019,-0.675l0.426 -0.332c-0.377,-1.29 -0.121,-1.921 -0.919,-3.203l-3.052 -4.409zm-2.678 48.433c-0.176,-0.035 -0.059,0.059 0,0zm-0.161 -8.827c-0.347,0.534 -0.278,0.119 -0.07,0.654l0.07 -0.654zm-0.998 8.031c-0.206,0.309 -0.433,0.637 -0.753,1.035 0.108,0.122 0.222,0.252 0.349,0.399 0.373,-0.646 0.483,-1.012 0.404,-1.434zm-0.897 0.871c0.352,-0.45 0.572,-0.847 0.788,-1.251 -0.28,-0.754 -0.769,-0.683 -0.23,-1.78 -0.762,-0.876 -0.969,-0.889 -1.583,-1.487 1.332,-0.837 0.946,1.224 1.751,0.448 0.2,-0.192 0.36,-1.805 0.328,-2.062 -0.871,0.587 -0.938,0.449 -2.055,0.307 -1.418,1.813 0.462,0.139 -1.954,2.759 0.377,0.754 -0.368,1.763 1.141,2.351 1.399,0.545 -0.002,-1.338 1.814,0.717l0 -0.002zm4.623 -18.723c0.265,-0.434 0.498,-0.615 1.2,-1.153 -0.882,-0.857 -0.879,-1.339 -1.569,-2.13 -0.084,0.168 -0.177,0.342 -0.27,0.518 0.768,0.807 0.07,0.149 -0.025,0.652 -0.258,1.367 0.67,1.981 0.664,2.113zm15.665 -2.266l-0.005 -0.095c0,0 -0.025,0.096 0.005,0.095zm4.207 -22.139c-0.172,-0.927 -0.31,-1.67 -0.842,-2.498 -0.205,0.439 -0.289,0.992 -0.384,1.597 0.489,-0.292 0.052,0.087 0.325,0.741 0.617,1.474 0.086,0.394 0.354,2.083l0.562 0.085c0.117,-0.579 0.127,-1.242 -0.015,-2.008zm-0.483 3.309c0.023,-0.04 0.048,-0.079 0.07,-0.119 -0.06,0.018 -0.123,0.038 -0.158,0.043 0.028,0.026 0.058,0.052 0.088,0.076zm-1.154 -2.389c0.026,0.056 0.052,0.114 0.081,0.177l0.448 -0.486c-0.146,-0.097 -0.266,-0.171 -0.365,-0.227 -0.047,0.179 -0.1,0.358 -0.164,0.536zm0.28 15.513l-0.035 0.668c0.616,-0.546 0.443,0.24 1.314,-0.658 -0.847,-0.125 -0.426,0.224 -1.277,-0.008l-0.002 -0.002zm-0.611 -0.183c-0.044,-0.001 -0.1,0.002 -0.174,0.009 -0.19,0.824 -0.305,0.614 0.215,1.421 0.083,-0.105 0.143,-0.331 -0.041,-1.431l0 0.001zm-25.309 -3.471c0.964,1.067 0.585,0.155 0.891,1.142 -0.645,0.136 -0.769,-0.005 -1.041,0.807 0.648,0.431 0.602,0.336 1.32,-0.15 -0.274,-0.55 -0.13,-0.123 -0.281,-0.657 0.645,-0.058 0.697,1.084 0.74,1.641 0.105,1.317 -0.478,1.183 0.216,2.128 -0.395,2.015 -0.602,0.093 -1.159,-0.665 -1.504,0.676 -2.412,0.229 -0.77,2.117 0.638,-2.164 1.001,-0.28 1.457,0.342 0.55,-0.106 0.209,-0.175 0.729,0.17l0.448 -0.485 -0.4 -0.834c0,0 0.411,0.241 0.672,-0.021l1.443 -2.448c-0.309,-0.619 -0.334,-1.322 -0.428,-1.564 -0.202,-0.367 -0.394,-0.738 -0.526,-1.01 -0.069,-0.144 -0.135,-0.325 -0.193,-0.526 -0.374,-0.612 -0.662,-1.227 -0.696,-3.47 -0.015,-0.998 0.533,-1.655 0.281,-2.253 -0.182,-0.427 -0.452,-0.545 -0.762,-0.907l-1.11 -1.724c-0.912,1.088 -0.2,0.905 -0.861,1.453 -0.25,0.206 0.142,-0.457 -0.33,0.249 -0.416,0.623 -0.243,0.325 0.352,0.769 -1.106,0.178 -1.333,0.077 -1.917,2.923 -0.235,1.15 0.695,3.989 1.193,4.588 0.073,-0.466 -0.211,-2.657 0.73,-1.616l0.002 0.001zm-1.14 8.149l0.238 2.945c0.381,-1.946 1.017,-1.499 -0.238,-2.945zm-0.276 9.817c0.353,0.025 0.348,0.028 0.819,0.486 0.365,-1.865 -0.825,-1.188 0.009,-2.942 0.053,-0.114 0.102,-0.221 0.147,-0.326 -0.594,-0.047 -0.461,0.202 -1.159,-0.371 -0.086,0.66 0.018,1.818 0.184,3.153zm0.084 0.642c-0.003,-0.008 -0.003,-0.014 -0.005,-0.022 0.002,0.007 0.002,0.015 0.004,0.022 0,0 0,0 0.002,0l-0.001 0zm2.199 -8.15c0.115,-0.587 0.111,-0.853 0.467,-1.465 -0.651,-0.633 -0.79,-0.635 -1.464,-0.015l0.997 1.482 0 -0.002zm0.797 2.861c-0.291,0.141 -0.465,-0.668 -0.285,1.065 0.708,0.382 0.287,-0.355 0.939,0.51 0.323,0.429 0.101,0.572 0.638,1.306 0.13,-0.661 0.151,-0.316 0.004,-0.981 -0.174,-0.789 -0.269,-0.31 -0.27,-1.146 -0.001,-1.096 0.527,-1.195 -0.384,-2.293 1.122,-1.272 0.322,-2.854 -0.538,-2.62 -0.023,0.01 -0.068,0.05 -0.081,0.063 0.009,-0.009 -0.07,0.059 -0.078,0.074 -1.182,1.862 0.365,2.645 0.336,3.651 -0.035,1.206 0.029,0.223 -0.282,0.373l0.001 -0.002zm2.364 -0.566c0.025,-0.055 0.049,-0.106 0.073,-0.155 0.363,-1.158 0.424,-0.607 0.377,-1.776 -0.034,-0.848 -0.331,0.064 0.057,-0.817 0.711,1.347 -0.026,0.612 0.709,0.938 0.239,-0.581 0.283,-0.924 0.625,-1.611 -0.218,-0.566 -0.205,-0.638 0.137,-1.223 -0.044,-0.1 -0.098,-0.207 -0.17,-0.327 -0.616,0.326 -0.094,-0.019 -0.693,0.844l-0.462 -0.449c0.841,-0.638 0.321,-0.16 0.416,-0.506 -0.584,-0.183 -0.291,-0.006 -0.907,-0.578 0.25,-0.497 1.167,-1.548 1.115,-2.148 -0.022,-0.257 -0.44,-0.846 -0.779,-1.402 -0.444,0.318 -0.815,1.477 -1.986,3.5 0.553,0.394 0.606,0.27 1.159,0.665 -0.539,0.687 -0.4,0.213 -0.236,2.45 0.059,0.794 0.051,1.87 0.565,2.595zm14.081 -16.503c0.029,0.021 0.055,0.04 0.083,0.059 -0.005,-0.028 -0.007,-0.059 -0.008,-0.093 -0.025,0.011 -0.049,0.022 -0.075,0.032l0 0.002zm1.817 24.008c0.408,-0.871 0.225,-0.425 -0.06,-1.273 -0.337,0.721 -0.343,0.601 0.06,1.273zm-0.239 -14.186l-0.462 -0.449 -0.554 0.676c0.359,0.555 0.331,0.624 0.939,1.214 0.261,-0.518 0.565,-0.969 0.078,-1.441l-0.001 0zm-1.535 -3.916c-0.494,0.586 -0.383,0.021 -0.162,0.631 -1.041,1.127 -0.941,0.452 -1.626,0.8 -0.025,0.313 -0.05,0.564 -0.079,0.769 0.377,0.163 0.798,0.171 1.108,-0.207l1.248 -1.518 -0.49 -0.475 0.001 0zm-1.647 -1.602c-0.538,0.514 0.127,0.393 0,0.189 0,0 0.035,-0.06 0.067,-0.124l-0.067 -0.065zm-4.831 -4.697c-0.382,0.414 0.203,0.288 0.086,0.099 -0.001,-0.003 0.332,-0.551 -0.086,-0.099zm2.535 5.432c-0.255,0.252 -0.212,0.465 -0.565,0.738 0.333,0.534 0.666,1.053 1.103,1.587 0.483,-0.555 0.601,-0.408 0.029,-1.187 0.103,-0.523 0.37,-2.065 -0.567,-1.138zm1.169 0.163c0.272,-0.502 0.266,-0.146 0.012,-0.653 -0.289,0.534 -0.22,0.119 -0.012,0.653zm0.557 1.64l0.298 -0.323c-0.248,-0.496 -0.143,-0.825 -0.424,-0.822 -0.531,0.253 -0.481,0.319 0.126,1.145zm-3.328 -7.51l-0.099 -0.023c-0.022,-0.004 -0.233,-0.502 -0.242,-0.023 -0.006,0.396 0.782,0.33 0.341,0.046l0 0zm4.56 6.83c-0.016,0.013 -0.03,0.026 -0.049,0.039 -0.508,0.37 0.39,0.351 0.136,0.102 -0.06,-0.054 -0.083,-0.1 -0.087,-0.142 0.218,-0.18 0.008,-0.168 0,0.001zm-7.508 -9.721c0.113,0.11 0.185,0.183 0.23,0.232 0.285,-0.229 0.385,-0.582 0.738,-0.696 0.146,-0.047 1.222,0.09 1.761,-0.301 -0.083,-0.253 -0.207,-0.568 -0.345,-0.919 -1.06,0.46 -1.8,0.841 -2.635,1.453 0.08,0.068 0.163,0.145 0.252,0.232l-0.001 -0.001zm4.68 -1.384c0.372,-0.258 0.9,-0.541 1.679,-0.799 -0.696,-0.676 0.003,-0.479 -1.887,-0.205 0.079,0.339 0.143,0.672 0.208,1.006l0 -0.002zm1.589 4.103c-0.001,0.033 0.066,0.022 0.087,0.001l-0.087 -0.001zm-0.287 -0.33l-0.308 -0.354c0.07,0.146 0.144,0.293 0.226,0.444l0.083 -0.089 -0.001 -0.001zm2.637 0.599c0.129,-0.399 0.305,-0.457 0.375,-0.631 -0.116,-0.034 -0.265,-0.03 -0.378,0.021 -0.606,0.27 0.12,0.54 -0.884,0.356 0.156,-0.799 0.01,-0.652 0.759,-1.463l-0.144 -0.164c-0.541,0.586 -0.961,1.074 -1.487,1.292 1.061,1.168 1.502,0.59 1.759,0.589zm0.16 -1.388c0.04,-0.028 0.08,-0.053 0.119,-0.08 -0.016,-0.055 -0.033,-0.114 -0.052,-0.176 -0.024,0.079 -0.046,0.163 -0.067,0.256zm-12.28 15.79l-0.477 1.09c0.958,0.552 0.276,0.45 1.023,0.328l-0.546 -1.418zm-5.208 11.819c-1.193,2.062 -0.489,2.3 -0.048,2.614 0.268,-0.908 0.263,-1.258 0.048,-2.614zm-1.762 0.309c-0.021,-0.005 -0.04,-0.01 -0.06,-0.013 0.002,0.028 0.006,0.055 0.009,0.083 0.017,-0.023 0.034,-0.048 0.051,-0.07zm-1.387 -4.55l-0.117 0.781c0.04,0.016 0.075,0.031 0.109,0.046 0.001,-0.282 0.004,-0.558 0.007,-0.827l0.001 0zm0.939 -4.942c0.589,-0.347 -0.105,-0.347 0.884,-0.084 0.116,0.031 0.221,0.065 0.318,0.1 -0.113,-0.398 -0.305,-0.722 -0.414,-1.143 -0.371,0.475 -0.338,0.517 -0.603,0.973l-0.278 -1.279c-0.003,0.449 -0.085,0.676 0.091,1.433l0.002 0zm14.509 -24.89c0.183,0.362 0.333,0.709 0.459,1.046 0.67,-0.329 1.592,-0.43 2.209,-0.817 -2.144,-0.764 -1.594,-0.071 -2.91,-1.01 0.955,-0.601 1.563,0.018 2.808,0.478 -0.29,-0.585 -0.331,-0.699 -1.199,-1.541 -1.023,-0.995 0.008,0.613 -1.552,-1.813 -0.717,-0.107 -0.487,0.141 -1.186,-0.241l-0.277 0.337c0.722,1.123 0.823,1.942 1.648,3.562l0 -0.001zm3.727 1.99c-0.567,-0.126 0.101,0.001 -0.51,0.205l0.287 0.329 0.304 -0.329c-0.026,-0.067 -0.053,-0.136 -0.081,-0.205zm4.161 3.305c0.063,0.117 0.119,0.235 0.168,0.352 0.383,-0.572 0.76,-1.177 1.13,-1.595 -0.256,0.018 -0.429,0.013 -0.735,0.143 -0.411,0.175 -0.276,0.068 -0.741,0.495 0.333,0.63 0.214,0.25 0.178,0.605zm3.022 -0.213c-0.059,-0.106 -0.122,-0.156 -0.133,0.087 0.045,-0.029 0.089,-0.057 0.133,-0.087zm0.227 -4.907l0.306 -0.805c-0.347,0.445 -0.289,0.346 -0.428,0.78 0.046,0.009 0.086,0.018 0.123,0.026l-0.001 -0.001zm5.915 -4.454c-0.16,-0.275 -0.196,-0.26 -0.55,-0.478 -0.715,-0.443 -1.925,-1.24 -2.608,-1.902l2.352 6.227c0.796,-0.967 0.919,-1.424 1.509,-2.173 -0.579,-0.666 -0.303,-0.401 -0.564,-1.252l-0.141 -0.421 0.002 -0.001zm5.021 16.754c0.049,0.052 0.112,0.119 0.187,0.206 -0.018,-0.12 -0.034,-0.229 -0.049,-0.325l-0.138 0.119zm0.154 1.539c0.153,0.364 0.306,0.673 0.408,0.971 -0.134,-0.684 -0.243,-1.413 -0.329,-1.989 -0.108,0.044 -0.238,0.113 -0.417,0.242 0.459,0.764 0.006,-0.013 0.338,0.775l0 0.001zm-0.952 -1.374l-0.093 -0.13c-0.431,0.013 -0.274,-0.157 -0.298,0.323 0.102,-0.056 0.225,-0.125 0.391,-0.193zm-1.324 -0.071c0.506,0.49 0.618,0.438 0.933,0.264 -0.382,-0.116 -0.043,0.28 -0.364,-0.646 -0.174,-0.504 0.551,-0.228 -0.491,-0.67 0.245,-0.265 0.377,-0.392 0.464,-0.493 -0.012,-0.03 -0.024,-0.059 -0.033,-0.086 -0.512,0.623 -1.107,1.05 -0.509,1.631zm-6.722 12.736l-0.519 -0.422c-0.563,-0.68 -0.67,-0.44 -1.122,-0.116l1.84 1.795c0.901,0.814 1.426,1.074 2.299,1.923l0.277 -0.338c-1.511,-1.467 -1.367,-2.353 -2.775,-2.842l0 0zm4.482 7.038c-0.013,-0.009 -0.63,-0.621 -0.185,0.012 0.242,0.344 0.722,0.319 0.185,-0.012zm5.236 4.188c0,0 -0.511,-0.317 -0.082,0.1 0.393,0.382 0.244,-0.243 0.082,-0.1zm0.147 7.309c-0.093,-0.114 -0.055,-0.316 -0.187,-0.19 -0.407,0.387 0.477,0.556 0.187,0.19zm0.046 -1.483l-0.462 -0.449 -0.416 0.505c0.922,0.244 0.252,0.303 0.878,-0.057l0 0.001zm-3.305 -4.698c0.36,0.182 0.198,0.151 0.604,0.325 0.997,0.429 1.114,0.038 1.518,1.1l0.693 -0.843 -3.457 -1.752c-2.497,-0.571 -1.125,-0.952 -2.065,-0.276 1.206,1.897 0.914,0.529 2.708,1.447l-0.001 -0.001zm-6.91 6.314c0.46,0.909 0.342,1.297 1.164,2.332 0.717,-1.421 0.654,-0.813 0.356,-2.269 -0.331,-1.611 -0.916,-0.899 -1.03,-1.985 -0.14,-1.355 0.489,-0.348 0.245,-1.623 -0.851,0.653 -1.679,1.034 -2.54,2.083 0.996,0.924 1.261,0.385 1.805,1.462zm-2.574 -2.211c0.463,0.45 0.099,0.464 1.59,-0.486 0.65,-0.416 0.963,-0.603 1.55,-1.317 0.477,-0.581 -0.109,-2.228 -0.876,-2.974 -1.157,-1.123 -1.809,-1.15 -3.045,-2.353 -0.342,0.15 0.097,-0.463 -0.416,0.506 -0.735,-0.713 -0.543,-0.734 -1.091,-1.365 -0.913,1.314 0.662,2.489 0.194,4.422 0.141,0.426 0.25,0.855 0.284,1.248 0.731,0.852 0.966,1.496 1.812,2.318l-0.002 0.001zm-2.256 -2.794c-0.017,-0.052 -0.033,-0.105 -0.049,-0.157 -0.011,0.025 -0.02,0.049 -0.032,0.074 0.029,0.028 0.055,0.055 0.083,0.083l-0.002 0zm-15.339 -0.336c0.497,-0.074 0.76,-0.3 1.028,-0.407l0.074 -0.96c-0.373,0.455 -0.747,0.908 -1.122,1.361l0.02 0.006zm0.34 4.648c-0.505,-0.581 -1,-0.772 -1.305,-0.288 -0.159,0.251 0,0.756 -0.476,1.58 0.508,0.092 2.619,-0.327 1.779,-1.29l0.002 -0.002zm-9.231 0.397c-0.197,-0.035 -0.101,-0.224 -0.413,-0.01 -0.374,0.255 -0.097,0.014 -0.177,0.332 -0.445,0.405 -0.339,0.336 -0.741,0.483 0.851,0.565 0.362,-0.109 1.16,0.665 0.48,-0.614 0.409,-0.51 0.46,-1.14 -0.647,0.594 -0.657,0.621 -0.878,-0.008 0.334,-0.101 0.228,-0.092 0.591,-0.322l-0.002 0zm-0.025 -9.806l-0.088 -0.001c-0.002,0.032 0.067,0.024 0.088,0.001zm-0.506 -1.15c-0.877,-0.16 -0.056,-0.305 -0.885,0.308 -0.478,0.355 -0.56,0.492 -1.039,0.815 0.676,0.778 0.615,0.767 0.997,1.482 0.663,-0.846 0.247,-0.779 0.908,-1.625l-0.436 -0.168c0.142,-0.445 0.076,-0.328 0.453,-0.812l0.002 0zm23.516 -43.385c-0.013,-0.009 -0.631,-0.621 -0.185,0.012 0.242,0.344 0.721,0.319 0.185,-0.012zm-1.458 -11.234c1.652,2.567 0.95,1.762 1.337,3.424 0.98,-1.411 2.119,-5.066 3.434,-7.407 0.207,-0.369 1.309,-2.061 1.37,-2.484 -0.49,0.505 -0.515,0.349 -0.737,0.607 -0.829,0.958 -0.465,0.341 -0.218,0.891l-0.739 -0.111c-1.395,1.697 -2.98,3.953 -4.449,5.08l0.002 0zm11.048 40.761c0.283,0.274 0.497,0.412 0.741,0.621 0.377,0.32 0.157,0.167 0.643,0.725l-0.278 0.337c-0.136,-0.229 -0.281,-0.577 -0.323,-0.616 -0.799,-0.777 -1.105,0.326 -0.784,-1.066l0.001 -0.001zm-19.244 12.498c0,0 -0.219,0.649 -0.244,0.115 -0.016,-0.327 0.723,-0.396 0.244,-0.115z"/>
   </g>
  </g>
  <path fill="none" d="M207.298 27.894c-0.11,-0.063 -0.222,-0.122 -0.337,-0.177 -4.975,-2.38 -9.714,-5.334 -14.858,-7.149 -4.647,-1.639 -11.454,-2.699 -17.288,-4.719 -2.277,-0.789 -4.556,-1.589 -6.82,-2.415l-0.004 -0.03 -9.999 -4.08 -0.175 -0.072c-0.614,-0.28 -1.553,-1.207 -2.512,-1.889 -0.494,-0.369 -0.613,-0.563 -1.038,-0.905 -2.856,-2.299 -5.606,-5.635 -9.574,-5.641 -0.901,-0.002 -1.04,-0.123 -1.779,-0.163l-7.601 -0.17c-5.892,-0.486 -12.055,-0.501 -18.06,-0.477 -5.087,0.02 -9.557,0.063 -14.567,0.477 -2.529,0.209 -4.996,0.029 -7.6,0.17 -0.739,0.04 -0.878,0.161 -1.779,0.163 -3.968,0.006 -6.718,3.342 -9.575,5.641 -0.424,0.342 -0.543,0.536 -1.037,0.905 -0.741,0.527 -1.471,1.2 -2.047,1.608 -0.17,0.121 -0.326,0.218 -0.465,0.281l-10.174 4.152 -0.003 0.03c-2.265,0.826 -4.544,1.626 -6.821,2.415 -5.834,2.02 -12.641,3.08 -17.288,4.719 -5.144,1.815 -9.883,4.769 -14.858,7.149 -0.212,0.101 -0.412,0.215 -0.605,0.339 -0.909,0.583 -1.664,1.379 -2.651,2.001 -11.263,7.099 -18.243,27.467 -21.401,39.215 -1.569,5.839 -1.98,12.983 -2.969,19.04 -0.5,3.067 -1.172,6.193 -1.752,9.253 -0.585,3.095 -0.872,6.493 -1.288,9.631 -0.406,0.268 -0.327,-0.023 -0.308,0.899l-0.065 1.854 0 8.783c0.041,1.018 0.102,1.813 0.186,2.164 1.125,0.477 3.706,0.514 5.07,0.712 7.662,1.114 9.041,0.828 15.791,1.554l21.547 1.349c-0.015,-1.623 0.547,-10.725 0.578,-13.424l-0.603 -0.316 -0.07 -0.036c0,-4.476 -0.011,-9.226 -0.011,-13.7 1.678,4.247 3.328,18.944 3.789,24.023 0.735,8.116 1.826,16.186 2.512,24.347 0.348,4.137 0.874,8.269 1.009,12.419l0.653 12.776c0.396,4.199 0.208,8.934 0.274,13.179 0.032,2.062 0.194,4.007 0.186,6.13 -0.007,2.226 -0.172,4.349 -0.196,6.512 -0.051,4.469 -0.054,8.634 -0.319,13.111 -0.68,11.475 -1.257,26.076 -3.267,37.02 -0.966,5.407 -2.177,11.944 -2.754,17.389 -0.258,2.432 -0.827,10.057 -1.468,11.951 -0.68,2.01 -0.163,3.658 -0.568,5.77 -0.342,1.785 -0.742,3.812 -1.164,5.568 -0.463,1.93 -1.435,3.647 0.397,4.966 4.276,1.054 8.552,2.108 13.913,3.017 5.36,0.909 11.804,1.672 18.03,2.048 6.226,0.375 12.232,0.363 21.568,0.476 9.335,0.112 21.999,0.351 32.523,0.382 10.525,0.032 18.909,-0.144 26.242,-0.419 7.333,-0.275 13.615,-0.65 19.058,-1.151 5.443,-0.501 10.048,-1.126 13.829,-1.873 3.78,-0.746 6.736,-1.613 9.693,-2.48 1.832,-1.319 0.86,-3.036 0.397,-4.966 -0.422,-1.756 -0.822,-3.783 -1.164,-5.568 -0.405,-2.112 0.112,-3.76 -0.568,-5.77 -0.641,-1.894 -1.21,-9.519 -1.468,-11.951 -0.577,-5.445 -1.788,-11.982 -2.754,-17.389 -2.01,-10.944 -2.587,-25.545 -3.267,-37.02 -0.265,-4.477 -0.268,-8.642 -0.319,-13.111 -0.024,-2.163 -0.189,-4.286 -0.196,-6.512 -0.008,-2.123 0.154,-4.068 0.186,-6.13 0.066,-4.245 -0.122,-8.98 0.274,-13.179l0.653 -12.776c0.135,-4.15 0.661,-8.282 1.009,-12.419 0.686,-8.161 1.777,-16.231 2.512,-24.347 0.461,-5.079 1.889,-19.043 3.568,-23.29 0,4.474 -0.105,8.584 -0.105,13.06l0 0 -0.416 0.247c-0.004,0.882 0.338,12.091 0.604,13.423l21.579 -1.336c6.75,-0.726 8.129,-0.44 15.791,-1.554 1.364,-0.198 3.945,-0.235 5.07,-0.712 0.084,-0.351 0.145,-1.146 0.186,-2.164l0 -8.783 -0.065 -1.854c0.014,-0.687 0.062,-0.7 -0.083,-0.774 -0.05,-0.025 -0.122,-0.057 -0.225,-0.125 -0.416,-3.138 -0.703,-6.536 -1.288,-9.631 -0.58,-3.06 -1.252,-6.186 -1.752,-9.253 -0.989,-6.057 -1.4,-13.201 -2.969,-19.04 -3.158,-11.748 -10.138,-32.116 -21.401,-39.215 -1.057,-0.665 -1.895,-1.576 -2.919,-2.163z"/>
 </g>
</svg>
