<?xml version="1.0" encoding="utf-8"?>
<!-- Generator: Adobe Illustrator 16.0.3, SVG Export Plug-In . SVG Version: 6.00 Build 0)  -->
<!DOCTYPE svg PUBLIC "-//W3C//DTD SVG 1.1//EN" "http://www.w3.org/Graphics/SVG/1.1/DTD/svg11.dtd">
<svg version="1.1" id="Layer_1" xmlns="http://www.w3.org/2000/svg" xmlns:xlink="http://www.w3.org/1999/xlink" x="0px" y="0px"
	 width="187px" height="147.488px" viewBox="0 0 187 147.488" enable-background="new 0 0 187 147.488" xml:space="preserve">
<path id="d4" fill="#ED1C24" d="M186.577,125.541v-1.259h-0.138v-4.293h-0.543v5.936h-0.309v-1.679v1.334h-0.543v-7.692h-0.543
	v5.046h-0.23v-7.692h-0.543v10.339h-0.094v-7.692h-0.543v8.049h-0.014v-8.476h-0.545v8.407h-0.543v-2.16v0.682h-0.174v1.547h-0.541
	v-1.654h-0.544v0.957h-0.175v-7.352h-0.545v5.244h-0.307v2.448h-0.096v-5.474h-0.792v2.55h-0.432v3.383h-0.093v-0.459h-0.094v-5.474
	h-0.777v3.025h-0.208v3.229h-0.543v-3.705h-0.114v-2.55h-0.543v3.025h-0.393v0.957H175.5v-6.746h-0.545v2.815h-0.543v3.014v-0.04
	h-0.203v0.957h-0.393v1.214h-0.542v-0.414h-0.033v-1.435h-0.286v1.849h-0.544v0.098h-0.003v-0.098h-0.545v-0.414h-0.081v-4.899
	h-0.543v2.814h-0.544v0.915h-0.256v-0.774h-0.051v-5.057h-0.545v4.916h-0.543v3.297h-0.032v-2.869h-0.29v-5.344h-0.545v4.916h-0.542
	v3.297h-0.305v-1.851h-0.32v2.115h-0.345v-0.069h-0.543v-1.124h-0.544v1.193h-0.507v-0.775h-0.232v-4.885h-0.543v-5.464h-0.543
	v11.124h-0.092v-0.775h-0.305v0.775h-0.544v-2.659h-0.206v-0.744h-0.544v1.06h-0.115v2.344h-0.544v-1.22h-0.28v1.22v-3.015h-0.401
	v-4.264h-0.143v-1.199h-0.543v7.258h-0.309v1.22v-3.015h-0.53v-3.244h-0.556v5.502h-0.295v0.277h-0.029v0.479v-3.015h-0.437v-4.562
	h-0.544v1.317h-0.106v5.502h-0.225v-3.875h-0.544v4.686h-0.336v-6.261h-0.543v1.575h-0.516v6.363h-0.219v-2.855h-0.542v-5.559
	h-0.544v1.753h-0.141v6.661h-0.51v0.436h-0.158v-3.265h-0.149v-3.087h-0.034v-0.745h-0.543v1.368h-0.361v2.932h-0.148v2.797h-0.16
	v-3.265h-0.199v-3.832h-0.543v1.368h-0.227v-0.476h-0.543v2.852h-0.15v0.088h-0.291v-2.464h-0.375v-7.563h-0.543v7.087h-0.035v2.499
	h-0.107v-0.243h-0.401v3.304h-0.358v-5.56h-0.544v2.499h-0.091v-0.438h-0.428v0.741h-0.332v-1.047h-0.545v0.743h-0.106v-0.438
	h-0.226v-6.502h-0.543v2.598h-0.335v5.324h-0.517v-4.717h-0.543v6.138h-0.544v0.546h-0.151v-3.686v2.158h-0.172v-5.156h-0.371
	v-0.547h-0.545v6.685h-0.171v0.546h-0.159v-4.645h-0.543v0.535h-0.471v1.16h-0.38v-1.695h-0.544v-0.199h-0.201v1.726h-0.279v1.591
	h-0.387v-3.117h-0.544v0.059h-0.036v0.088h-0.119v1.38h-0.389v0.44h-0.295v1.215h-0.049v-3.123h-0.543v-0.257h-0.543v-6.71h-0.544
	v6.967h-0.323v0.486h-0.406v-0.713h-0.396v3.35h-0.148v-3.022h-0.543v0.386h-0.396v2.248h-0.279v-2.393v2.009h-0.543v-1.259h-0.137
	v-5.412h-0.545v7.055h-0.307v-1.679v1.334h-0.545v-4.487h-0.543v1.841h-0.229v-7.692h-0.544v10.339h-0.093v-4.487h-0.544v4.844
	h-0.014v-8.476h-0.544v8.407h-0.544v-2.16v0.682h-0.173v1.547h-0.542v-1.654h-0.543v0.957h-0.176v-7.352h-0.545v5.244h-0.307v2.448
	h-0.344v-5.474h-0.2v-2.219h-0.543v4.769h-0.233v3.383h-0.091v-0.459h-0.327v-5.474h-0.217v-2.219h-0.544v8.474h-0.534v-3.705
	h-0.115v-2.55h-0.544v3.025h-0.392v0.957h-0.123V115.4h-0.542v4.758h-0.544v3.014v-0.04h-0.201v0.957h-0.393v1.214h-0.544v-0.414
	h-0.033v-1.435h-0.286v1.849h-0.544v0.098h-0.005v-0.098h-0.542v-0.414h-0.081v-6.842h-0.543v4.757h-0.545v0.915h-0.255v-0.774
	h-0.052v-5.057h-0.544v4.916h-0.544v3.297h-0.032v-2.869h-0.291v-5.344h-0.544v4.916h-0.543v3.297h-0.303v-1.851h-0.32v2.115h-0.345
	v-0.069h-0.544v-1.124h-0.544v1.193h-0.507v-0.775h-0.231v-4.885h-0.544v-6.323h-0.543v9.986c0.807,4.258,1.701,10.459,2.34,13.295
	c1.036,4.602,0.163,5.569,7.431,7.421c6.652,1.694,15.705,1.21,22.153,1.97c4.115,0.486,19.475,0.632,23.482,0.086
	c3.422-0.464,6.822-0.809,10.133-1.574c4.369-1.01,9.014-2.873,10.068-7.855c0.302-1.42,0.39-3.822,0.52-5.467
	c0.07-0.896,0.009-2.075,0.005-3c-0.005-1.329,0.2-1.727,0.202-2.994l0.002-0.648L186.577,125.541z M78.061,119v-1.974h-0.544v3.922
	l0.061-0.197C77.736,120.265,77.897,119.667,78.061,119z M77.063,122.804h-0.09v0.43L77.063,122.804z M76.437,126.087v-0.915h-0.544
	v-2.152h-0.542v1.856h-0.052v1.489h-0.543v-0.775h-0.32v0.775h-0.257v-5.66h-0.543v-5.464h-0.544v10.349h-0.051v0.775h-0.544v-2.344
	h-0.033v-1.365H71.92v3.383h-0.542v0.326h-0.292v-2.344h-0.303v1.645H70.75v-1.513v2.208h-0.287v-3.011h-0.257v-0.694H69.92v-4.769
	h-0.544v6.134h-0.004v1.645h-0.304v0.699v-3.015h-0.544v-2.962H67.98v5.152h-0.121v-1.259h-0.202v-0.932h-0.544v-2.962h-0.544v5.743
	h-0.08v-0.829h-0.432v-7.96h-0.544v7.96h-0.114v-0.414h-0.304v0.414h-0.232v-10.062h-0.544v7.146h-0.544v2.462v-1.718h-0.091v2.171
	h-0.544v-0.913h-0.392v-1.258h-0.192v1.15h-0.215v-4.293h-0.545v5.25h-0.325v-2.008v1.158h-0.134v-1.258h-0.192v-5.244h-0.542v2.102
	h-0.201v3.302h-0.15v1.742H60.06v1.426h-0.309v-8.571h-0.543v2.102h-0.217v5.044h-0.013v-6.587h-0.543v3.941h-0.095v-4.5h-0.544
	v7.146h-0.543v-1.901h-0.175v2.805h-0.544v-2.387h-0.461v2.699h-0.389v-0.313h-0.424v-4.844h-0.543v3.94h-0.543v0.176h-0.05v-1.542
	h-0.259v-2.574h-0.543v3.94h-0.543v-4.607h-0.544v0.667h-0.324v3.94h-0.544v-1.334v2.497h-0.406v-1.098h-0.01v-1.041h-0.47v-0.026
	v2.159H49.94v-5.705h-0.544v3.572h-0.332v-0.986h-0.543v1.013h-0.336v0.5h-0.037v-0.526H47.67v-0.986h-0.544v3.242h-0.065v-1.715
	h-0.479v0.441h-0.323v-1.969h-0.37v-4.625h-0.544v6.152h-0.174v0.441h-0.157v-2.107h-0.185v0.199h-0.544v2.387h-0.149v0.361h-0.544
	v-2.947h-0.174v0.199h-0.544v4.099h-0.017v-1.156h-0.544v-3.556h-0.141v-1.426h-0.544v6.138h-0.508v0.546h-0.308v-8.363h-0.036
	v-1.525h-0.543v6.842h-0.359v0.242h-0.149v2.805h-0.358v-9.889h-0.544v2h-0.375v5.277h-0.395v0.984h-0.149v2.014h-0.291v-3.434
	h-0.375v-5.94h-0.544v3.271h-0.142v3.391h-0.401v2.168H36.01v1.102h-0.218v-3.555h-0.09v-3.105h-0.544v0.475h-0.426v2.464h-0.336
	v-5.911h-0.544v2.973h-0.105v0.475h-0.226v-1.099h-0.544v3.563h-0.185v3.099h-0.28v-5.135H32.47v-0.428h-0.343v-1.099h-0.543v1.968
	h-0.159v1.595h-0.042v3.099H31.04v0.436h-0.218V116.69h-0.556v3.468h-0.531v7.938h-0.106v0.436h-0.344v-6.799h-0.543v3.438h-0.289
	v0.437h-0.2v0.419h-0.344v-2.2v2.221h-0.034v-4.314h-0.543v3.875h-0.226v-6.271h-0.556v3.467H26.02v3.015v-2.874H25.99v2.664h-0.278
	v-7.721h-0.544v4.916h-0.544v3.015v-2.587h-0.232v0.487h-0.091v-5.831h-0.544v4.916h-0.544v3.015v-0.942h-0.278v1.489h-0.257v-1.193
	h-0.543v-2.152h-0.544v1.856H21.54v1.489h-0.544v-0.775h-0.32v0.775h-0.257v-5.66h-0.543v-5.464h-0.544v10.349h-0.051v0.775h-0.544
	v-2.344h-0.032v-1.365h-0.543v3.383h-0.544v0.326h-0.292v-2.344h-0.303v1.645H16.99v-1.513v2.208h-0.287v-3.011h-0.257v-0.694H16.16
	v-4.769h-0.544v6.134h-0.004v1.645h-0.305v0.699v-3.015h-0.543v-3.361h-0.544v5.552h-0.12v-1.259h-0.203v-0.932h-0.544v-3.361H12.81
	v6.143H12.73v-0.829h-0.434v-7.96h-0.543v7.96H11.64v-0.414h-0.305v0.414h-0.544v-0.913h-0.125v-7.699H10.11v5.697h-0.095v2.462
	v-1.718H9.924v2.171H9.381v-0.913H8.989v-1.258h-0.19v1.15H8.581v-4.293H8.038v5.25H7.711v-2.008v1.158H7.578v-1.258H7.187v-3.143
	H6.95v-0.652H6.395v5.696H6.3v1.426H5.992v-8.571H5.448v2.102H5.231v5.044H5.219v-9.792H4.675v7.146H4.581v-4.5H4.037v7.146H3.494
	v-1.901H3.32v2.805H2.776v-2.387H2.314v2.699h-0.39v-0.313H1.503v-8.049H0.959v7.146H0.416v0.176H0.414l0.002,1.04
	c0.002,1.268,0.207,1.665,0.202,2.994c-0.004,0.925-0.064,2.104,0.005,3c0.13,1.645,0.218,4.047,0.52,5.467
	c1.055,4.982,5.7,6.846,10.068,7.855c3.311,0.766,6.71,1.11,10.133,1.574c4.008,0.546,19.367,0.4,23.482-0.086
	c6.448-0.76,15.501-0.275,22.152-1.97c7.269-1.852,6.396-2.819,7.432-7.421C74.967,135.19,75.72,130.157,76.437,126.087z"/>
</svg>
