<?xml version="1.0" encoding="utf-8"?>
<!-- Generator: Adobe Illustrator 16.0.3, SVG Export Plug-In . SVG Version: 6.00 Build 0)  -->
<!DOCTYPE svg PUBLIC "-//W3C//DTD SVG 1.1//EN" "http://www.w3.org/Graphics/SVG/1.1/DTD/svg11.dtd">
<svg version="1.1"
	 id="Layer_1" shape-rendering="geometricPrecision" text-rendering="geometricPrecision" image-rendering="optimizeQuality" xmlns:xodm="http://www.corel.com/coreldraw/odm/2003"
	 xmlns="http://www.w3.org/2000/svg" xmlns:xlink="http://www.w3.org/1999/xlink" x="0px" y="0px" width="240px" height="296px"
	 viewBox="0 0 240 296" enable-background="new 0 0 240 296" xml:space="preserve">
<g>
	<g>
		<linearGradient id="SVGID_1_" gradientUnits="userSpaceOnUse" x1="123.5508" y1="296" x2="123.5508" y2="89.8315">
			<stop  offset="0.2" style="stop-color:#F00808"/>
			<stop  offset="0.9" style="stop-color:#F00808;stop-opacity:0"/>
		</linearGradient>
		<path fill="url(#SVGID_1_)" d="M149.857,98.698c0.441-0.23,0.729-0.5,0.922-0.25c0.191,0.25-0.174,0.921,0.326,1.018
			c0.498,0.095,0.672,0.057,0.672,0.326c0,0.844,0.405,1.784,1.381,1.325c1.32-0.622,0.605-2.511-0.127-2.479
			c-0.609-0.006-0.676,0.034-0.718-0.574c-0.063-0.477-1.009-0.565-1.171-0.499c-0.229,0.096,0.097-0.365-0.326-0.653
			c-0.422-0.287-1.784-0.23-2.168,0.135c-0.385,0.364-0.654,0.825-0.192,1.247C148.916,98.717,149.415,98.928,149.857,98.698z
			 M146.346,104.815c0.363-0.361,0.676-0.024,1.98,0.265c1.184,0.263,1.581-0.384,1.65-0.991c0.068-0.589-0.147-1.133-1.797-1.133
			c-0.578,0-0.535,0.466-1.404,0.248c-0.869-0.217-0.791-0.779-1.877-1.479c-0.898-0.579-2.228,0.646-1.277,2.05
			C144.082,104.458,145.586,105.575,146.346,104.815z M113.571,103.493c0.06,0.53,0.253,0.566,0.266,0.905
			c0.011,0.337,0,0.362-0.592,0.253c-1.523-0.28-0.121,2.687,1.074,1.63c0.422-0.375,0.193-0.978,0.725-0.869
			c0.531,0.108,0.579,0.82,1.387,0.676c0.809-0.146,1.038-0.423,1.063-0.833c0.023-0.411,0.036-0.917-0.712-1.243
			c-0.748-0.326-0.905-0.604-1.315-0.929C114.788,102.545,113.457,102.49,113.571,103.493z M149.69,140.729
			c3.252,0.33,6.706-1.797,4.192-3.614c-3.084-0.461-1.829-2.639-1.834-4.545c-0.006-3.601-2.895-0.805-3.396-0.071
			c-0.774,1.133-2.405-1.314-2.739-2.007c-0.554-1.15-3.197-0.857-3.848-0.256c-2.051,1.897,0.979,3.071,2.462,3.582
			c1.611,0.555,2.195,1.688,2.408,3.042C147.338,139.428,146.071,140.363,149.69,140.729z M153.479,113.437
			c-0.203,0.638,1.741,1.016,2.902,0.987c1.155-0.029,1.191-0.8,1.148-1.172c-0.127-1.109-1.178-0.392-1.768-1.165
			c-0.595-0.903-1.813-0.876-1.646,0.29C154.203,112.987,153.682,112.798,153.479,113.437z M130.125,104.465
			c0.756,0.636,0.121,1.345,1.498,1.605c1.379,0.26,1.703-0.773,1.648-1.355c-0.055-0.582-0.984-0.625-1.547-0.837
			c-0.563-0.21,0.019-0.522,0.441-0.877c0.422-0.354,0.837-1.032,1.134-1.098c0.298-0.065,0.156,0.652,0.318,1.419
			c0.161,0.766,0.632,0.365,1.151,0.737c0.518,0.371,0.439,0.966,0.972,1.215c0.784,0.366,2.299-0.829,0.99-2.083
			c-0.331-0.317-1.087,0.586-1.395,0.423s0.099-0.605-0.139-1.127s-0.453-0.33-0.362-1.001c0.092-0.672-0.402-0.682-0.824-1.096
			c-0.422-0.416-0.797,0.198-1.009,0.552c-0.213,0.353-0.246-0.028-0.846-0.013c-0.368,0.009-2.174,0.817-1.41,2.392
			c0.114,0.233-1.181,0.468-1.467-0.999c-0.091-0.469,0.128-1.08-0.054-1.321c-0.588-0.782-0.934-0.415-1.336,0.141
			c-0.4,0.555-0.303,0.978,0.225,2.138S129.277,103.73,130.125,104.465z M137.865,108.248c0.088,0.61-0.436,0.421-0.639,1.06
			c-0.203,0.639,1.742,1.016,2.902,0.987c1.156-0.029,1.193-0.8,1.15-1.172c-0.127-1.11-1.179-0.391-1.768-1.166
			C138.916,107.055,137.699,107.081,137.865,108.248z M121.542,123.191c0.97-0.405,0.694-1.26,1.179-1.664
			c0.485-0.403,0.453-1.405-0.049-1.857c-0.499-0.452-1.856-0.484-2.453-0.017c-0.598,0.469-0.501,0.743-0.792,1.486
			C118.597,123.26,119.891,123.878,121.542,123.191z M155.771,122.79c-0.515,0.354-0.998,0.515-1.416,0.033
			c-0.419-0.483-1.514-1.545-2.512-1.449c-0.997,0.097-2.254,0.161-2.735,1.545c-0.94,2.693,0.821,3.61,3.058,2.673
			c0.998-0.419,1.481-1.225,2.222-0.87c0.74,0.354,1.03,1.063,2.285,0.87c1.257-0.194,1.384-1.739,1.128-2.319
			C157.542,122.693,156.287,122.436,155.771,122.79z M126.502,114.676c0.318,0.193,0.715,0.293,1.088,0.216
			c0.291-0.061,0.139,0.032,0.4,0.683c1.142,2.843,3.016-0.964,1.255-1.214c-0.4-0.057-0.599-0.127-0.675-0.539
			c-0.053-0.287-0.176-0.846-0.4-1.214c-0.488-0.801-1.679-0.128-1.924,0.271C126.01,113.268,125.808,114.255,126.502,114.676z
			 M122.016,111.662c0.244-0.366,0.396-0.519,0.742-0.315c0.241,0.143,0.719,0.397,1.107,0.422c0.844,0.053,0.939-1.608,0.765-2.126
			c-0.171-0.502-0.806-1.379-1.47-0.963c-0.304,0.19-0.577,0.521-0.707,0.951c-0.102,0.335-0.094,0.119-0.711-0.061
			C119.046,108.788,120.945,113.269,122.016,111.662z M125.564,126.994c0.832,0.513,1.368,1.152,0.748,2.871
			c-2.354,6.527,3.509,5.473,4.531,2.313c0.758-2.345,2.117-2.922,3.26-2.554c0.033-0.351,0.041-0.726-0.021-1.245
			c-0.084-0.697-0.661-0.98-1.292-1.048c0.092-0.659-0.06-1.369,0.372-2.118c0.642-1.112,1.839-0.769,1.498-2.308
			c-0.344-1.538-1.198-2.736-0.6-2.864c0.6-0.128,1.924,0.769,2.992,1.068s2.394,0.385,1.539,1.24
			c-0.855,0.855-2.521,1.709-2.139,2.82c0.386,1.112,1.839,2.735,4.146,1.112c2.309-1.624,0.557-2.394,1.41-4.189
			c0.941-2.051,2.693-1.282,2.693-3.846c0-2.564-0.171-3.419-1.367-4.103c-1.196-0.685-2.137-1.069-2.564,0.855
			c-0.132,0.593,0.777,1.532,1,2.464c0.698,2.925-1.868,3.575-1.854,3.053c0.091-3.521-3.892-3.498-4.574-3.209
			c-1.11,0.471-0.854,1.197-1.538,0.727c-0.685-0.47-1.881-1.282-2.309-0.17c-0.427,1.111-1.325,1.538-0.598,2.692
			c0.727,1.154,0.171,0.982,0.171,2.137s1.11,1.624,0.683,2.18c-0.383,0.5-2.15-0.28-2.752,0.181
			c-0.109-1.104-0.109-2.161-0.516-2.244c-0.094-0.457-2.158,0.226-2.18,0.229c-1.146,0.214-0.856,1.851-0.789,2.677
			C125.561,126.269,125.58,126.682,125.564,126.994z M122.875,99.261c0.299-0.267,0.137-0.695,0.514-0.618
			c0.378,0.077,0.412,0.583,0.987,0.48c0.575-0.103,0.737-0.3,0.755-0.592c0.018-0.291,0.026-0.651-0.506-0.884
			c-0.532-0.231-0.644-0.428-0.936-0.661c-0.48-0.382-1.429-0.422-1.348,0.292c0.044,0.378,0.182,0.404,0.189,0.644
			c0.008,0.24,0,0.258-0.42,0.181C121.027,97.903,122.025,100.013,122.875,99.261z M116.7,124.77
			c-2.462,0.332-1.041,1.158-4.36,0.752c-0.046-0.006-6.111-4.463-5.938-0.377c0.093,2.182,3.299,1.181,4.312,1.762
			c0.902,0.111,1.715,0.536,2.037,1.202c0.615,1.268,0.035,1.582-0.439,3.321s-0.181,2.97,0.716,3.672
			c0.898,0.702,3.387,0.339,3.221,2.712c-0.166,2.373-0.128,2.976,1.697,3.187c0.119,0.015,0.229,0.035,0.333,0.061
			c0.285-1.141,2.422-2.603,2.43-2.615c1.457-2.302-2.462-2.228-3.326-2.906c-5.82-4.565,3.627-0.695,1.716-8.076
			C118.522,125.229,117.604,124.647,116.7,124.77z M178.128,99.266c1.156-0.029,1.192-0.8,1.149-1.171
			c-0.127-1.11-1.178-0.393-1.768-1.166c-0.596-0.903-1.813-0.876-1.646,0.29c0.087,0.61-0.436,0.421-0.64,1.06
			C175.021,98.918,176.967,99.294,178.128,99.266z M183.82,131.28c1.152,0.312,1.651-0.718,2.307-0.187
			c0.654,0.529,0,1.309,0.716,2.056c0.718,0.749,1.776,1.652,2.806,1.216c1.028-0.437,1.651-1.153,1.059-2.058
			c-0.591-0.904-2.275-1.247-2.367-2.213c-0.094-0.966,1.34-0.279,0.996-1.184c-0.342-0.903-1.37-1.34-1.09-1.902
			c0.28-0.56,0.342,0.281,1.434,0.094c1.091-0.187,1.59-0.904,1.34-1.309c-0.249-0.406-2.025-0.562-1.964-1.403
			c0.063-0.841,0.593-0.468,0.968-2.088c0.373-1.62-0.656-1.621-1.092-1.87c-0.437-0.25-1.465-0.281-1.901,0.405
			c-0.437,0.687-0.124,0.904,0.031,1.933c0.155,1.029-0.093,1.714-0.654,2.057c-0.561,0.343-1.964-0.031-2.025,1.34
			c-0.063,1.372-0.125,1.715-1.185,1.715C181.349,127.883,182.115,130.818,183.82,131.28z M186.225,111.675
			c-0.897-0.176-0.956,2.058,0.15,2.095c0.383,0.012,0.611,0.308,0.84,0.565c0.37,0.419,1.984,0.939,2.318,0.236
			c0.332-0.694-0.365-1.244-0.696-1.895c-0.359-0.708,0.534-1.224,0.456-2.127c-0.046-0.535-0.948-0.753-1.4-0.45
			C187.01,110.69,187.682,111.963,186.225,111.675z M184.988,98.901c0.293,0.177,0.656,0.269,0.998,0.197
			c0.268-0.056,0.127,0.03,0.367,0.626c1.047,2.608,2.768-0.885,1.152-1.113c-0.368-0.053-0.55-0.117-0.619-0.495
			c-0.049-0.264-0.162-0.776-0.367-1.114c-0.448-0.736-1.541-0.119-1.766,0.249C184.537,97.609,184.352,98.515,184.988,98.901z
			 M194.587,108.309l0.146-1.001c-0.53-0.08-1.257-0.549-1.636-0.661c-0.803-0.236-1.042,0.23-1.042,0.886
			C192.056,108.484,193.332,108.526,194.587,108.309z M195.348,94.679c0.651-0.017,0.672-0.451,0.648-0.661
			c-0.072-0.625-0.665-0.221-0.998-0.657c-0.335-0.509-1.021-0.494-0.928,0.164c0.05,0.344-0.245,0.237-0.359,0.598
			C193.597,94.482,194.693,94.696,195.348,94.679z M194.913,106.124c0.059-0.378,0.116-0.744,0.175-1.096
			c-0.281,0.005-0.586-0.065-0.904-0.208c-0.295-0.133-1.352,0.318-0.689,0.977C193.792,106.094,194.439,106.057,194.913,106.124z
			 M172.479,150.916c-2.646-0.719-2.172,1.67-3.187,2.703c-1.44,1.467-2.859-1.295-1.291,2.428c0.404,0.96,1.002,1.791,2.166,2.223
			c4.695,1.748,1.004-1.889,0.849-2.51C170.729,154.602,176.444,151.992,172.479,150.916z M168.279,118.821
			c-0.09-1.034-1.834-1.456-2.709-0.869c-1.709,1.144-0.408,3.605-3.227,3.049c-1.736-0.342-1.852,3.979,0.291,4.051
			c0.74,0.025,1.182,0.597,1.623,1.095c0.716,0.811,3.84,1.818,4.488,0.458c0.64-1.344-0.709-2.406-1.349-3.667
			C166.701,121.568,168.43,120.57,168.279,118.821z M161.068,91.507c0.651-0.016,0.672-0.451,0.648-0.661
			c-0.072-0.625-0.665-0.221-0.997-0.656c-0.335-0.51-1.022-0.495-0.929,0.163c0.051,0.344-0.245,0.237-0.359,0.598
			C159.318,91.311,160.414,91.523,161.068,91.507z M173.793,122.837c-0.219,0.564-0.674,0.781-0.305,1.368
			c0.368,0.586,0.086,0.5,0.086,1.086c0,0.586,0.564,0.825,0.348,1.107c-0.217,0.283-1.303-0.239-1.476,0.195
			c-0.688,1.721,1.226,2.192,1.802,1.521c0.391-0.456,0.064-0.978,0.391-1.541c0.325-0.564,0.934-0.391,0.76-1.173
			c-0.174-0.781-0.607-1.389-0.305-1.454c0.305-0.066,0.979,0.39,1.521,0.542c0.543,0.153,1.215,0.196,0.781,0.63
			c-0.436,0.435-1.281,0.869-1.086,1.433c0.195,0.565,0.934,1.391,2.105,0.565c1.173-0.825,0.283-1.215,0.717-2.127
			c0.478-1.042,1.367-0.651,1.367-1.954c0-1.302,1.132-3.642,0.523-3.99c-0.607-0.347-2.092-0.701-2.309,0.275
			c-0.066,0.301,0.184,2.843,0.297,3.317c0.354,1.485-0.949,1.815-0.942,1.55c0.046-1.789-1.978-1.776-2.323-1.63
			c-0.564,0.238-0.434,0.608-0.782,0.369C174.617,122.685,174.01,122.272,173.793,122.837z M172.337,139.804
			c-0.255-2.88-2.319-0.733-2.625-1.794c-0.304-1.055-3.94-1.012-2.806-1.862c0.169,0.043,0.995-0.241,1.218-0.322
			c1.918-0.705-1.876-1.942-2.634-1.402c-1.361,0.97-3.319,0.672-1.99-0.98c0.927-1.15,0.228-2.64-0.762-2.69
			c-2.188-0.113-2.555-0.265-2.555,1.474c0,0.605-0.051,1.322-0.399,1.669c1.11,1.818-0.083,4.612,0.944,5.211
			c1.999,1.167,2.836-0.963,4.051-1.343c2.271-0.708,2.914,0.607,2.927,2.286c0.425-0.074,0.95-0.103,1.597-0.079
			C169.968,139.998,171.352,139.59,172.337,139.804z M168.569,113.091c0.905,0.245,1.296-0.563,1.81-0.147
			c0.513,0.416,0,1.027,0.562,1.614c0.563,0.586,1.394,1.295,2.2,0.954c0.808-0.343,1.296-0.905,0.832-1.613
			c-0.465-0.709-1.785-0.979-1.859-1.736c-0.072-0.758,1.053-0.22,0.783-0.929c-0.269-0.708-1.076-1.051-0.855-1.491
			c0.221-0.44,0.27,0.22,1.125,0.074c0.855-0.147,1.247-0.709,1.051-1.027c-0.195-0.318-1.589-0.44-1.54-1.101
			c0.05-0.66,0.464-0.366,0.757-1.637c0.151-0.65,0.014-0.968-0.203-1.149h-2.143c-0.342,0.538-0.098,0.709,0.025,1.516
			c0.121,0.806-0.074,1.345-0.515,1.613c-0.44,0.269-1.54-0.025-1.589,1.051s-0.098,1.345-0.929,1.345
			C166.631,110.427,167.232,112.73,168.569,113.091z M159.259,102.146c0.394,0.131,0.351,0.481,0.196,1.006
			c-0.152,0.525-0.043,0.919,0.109,1.247c0.154,0.328,0.963,0.066,1.422,0.219c0.46,0.154,0.109,0.569,0.373,1.16
			c0.262,0.591,0.678,0.109,1.072,0.459s-0.065,0.219-0.153,0.963c-0.088,0.743,0.985,0.962,1.642,0.918
			c0.655-0.044,0.547-0.416,0.634-0.809c0.087-0.395-0.11-0.657,0.132-1.116c0.24-0.46,0.394,0.065,1.028,0
			c0.634-0.066,0.58-0.252,0.689-0.339c0.109-0.088,0.109-0.395,0.044-0.875s-0.285-0.569-0.591-0.788
			c-0.307-0.219-0.941,0.459-1.248,0.438c-0.306-0.021-0.241-0.416-0.065-0.59c0.175-0.176,0.591,0.021,0.919-0.373
			c0.328-0.394-0.065-0.525-0.351-0.985c-0.284-0.459-0.984-0.284-1.355-0.087c-0.373,0.196-0.24,0.722-0.045,1.181
			c0.197,0.459-0.195,0.591-0.744,0.525c-0.546-0.066-0.35-0.35-0.809-0.678c-0.46-0.328-0.329-0.044-0.897-0.242
			c-0.569-0.196-0.153-0.437-0.395-0.831c-0.241-0.394-0.524-0.306-0.7-0.59c-0.174-0.285,0.033-1.006-0.207-1.292
			c-0.236-0.279-1.826-0.544-1.554,0.909C158.471,101.927,158.865,102.015,159.259,102.146z M138.096,94.091
			c0.652-0.017,0.672-0.451,0.648-0.661c-0.071-0.625-0.664-0.221-0.997-0.657c-0.335-0.509-1.021-0.494-0.927,0.163
			c0.049,0.344-0.246,0.238-0.36,0.598C136.346,93.895,137.441,94.107,138.096,94.091z M52.648,125.591
			c0.998-0.419,1.481-1.225,2.222-0.87c0.741,0.354,1.03,1.063,2.285,0.87c1.256-0.194,1.385-1.739,1.127-2.319
			c-0.257-0.579-1.513-0.837-2.028-0.483s-0.999,0.515-1.417,0.033c-0.418-0.483-1.513-1.545-2.51-1.449
			c-0.999,0.097-2.254,0.161-2.737,1.545c-0.172,0.494-0.253,0.927-0.258,1.301l0.067,0.587
			C49.709,125.986,51.059,126.258,52.648,125.591z M51.078,112.193c-0.127-1.108-1.179-0.391-1.768-1.166
			c-0.546-0.828-1.617-0.874-1.659,0.026l0.094,0.73c0.057,0.43,0.116,0.865,0.18,1.327c0.612,0.178,1.41,0.271,2.004,0.255
			C51.084,113.336,51.121,112.564,51.078,112.193z M54.365,137.116c-3.083-0.461-1.829-2.639-1.833-4.545
			c-0.005-2.483-1.381-1.924-2.399-1.096c0.323,2.987,0.662,6.174,0.99,9.284C54.041,140.647,56.635,138.756,54.365,137.116z
			 M66.053,117.952c-1.709,1.144-0.408,3.605-3.227,3.049c-1.735-0.342-1.85,3.979,0.291,4.051c0.741,0.025,1.182,0.597,1.623,1.095
			c0.716,0.811,3.841,1.818,4.489,0.458c0.639-1.344-0.709-2.406-1.349-3.667c-0.696-1.371,1.033-2.369,0.881-4.118
			C68.671,117.787,66.928,117.366,66.053,117.952z M72.962,150.916c-2.645-0.719-2.172,1.67-3.187,2.703
			c-1.44,1.467-2.858-1.295-1.291,2.428c0.404,0.96,1.003,1.791,2.167,2.223c4.695,1.748,1.004-1.889,0.85-2.51
			C71.211,154.602,76.928,151.992,72.962,150.916z M53.692,167.896c0.516-0.75,0.607-1.919-0.169-2.613
			c0.047,0.68,0.093,1.359,0.135,2.045L53.692,167.896z M64.527,147.658c1.646-0.362,2.904,0.175,3.38-0.672
			c1.246-2.213,0.571-3.4-1.979-2.287c-2.415,1.055-6.3,0.55-7.646-0.089c-1.416-0.672-5.586-0.765-6.729,0.214l0.254,2.419
			c0.793,0.265,2.389-1.424,4.426-1.424c2.438,1.111-0.419,6.107-1.803,6.883c-0.65,0.364-1.316,0.54-1.99,0.583
			c0.184,1.78,0.352,3.456,0.506,5.075c0.872-0.119,1.845,0.616,2.455,1.477c0.755,1.065,0.786,2.031,0.654,4.079
			c-0.103,1.62,0.087,2.753,1.521,2.489c1.415-0.293,3.724-1.929,3.923-1.971c1.413-0.317,3.797-6.463-0.642-2.885
			c-1.294,1.044-3.262,0.829-3.474-0.211c-0.873-4.283-0.084-3.072-3.21-3.584c-2.897-0.474-0.701-3.429,2.108-4.278
			c4.652-1.408-1.08,4.194,6.349,2.622c2.494-0.527,0.826-1.784,0.344-1.77c-4.359,0.131-4.054-2.707,0.556-2.707
			c0.286,0,2.408-0.449,1.756-2.068C64.928,148.668,63.741,147.831,64.527,147.658z M74.593,142.138
			c-0.314,0.019-0.658-0.189-0.958-0.447c-0.812,0.521-2.92,1.576-0.831,1.917c1.627,0.267-1.567,4.11,3.759,3.928
			c2.384-0.081,3.17,2.02,3.17-1.051c0-0.094,0.007-0.183,0.021-0.268c-0.816-0.258-0.648-0.926-0.229-1.211
			c0.863-0.585,0.489-1.472,0.15-1.583c-2.012-0.656-1.792,1.471-3.172,1.521C74.833,145.004,76.77,142.013,74.593,142.138z
			 M50.339,98.698c0.442-0.23,0.729-0.5,0.922-0.25c0.192,0.25-0.172,0.921,0.326,1.018c0.5,0.095,0.672,0.057,0.672,0.326
			c0,0.844,0.406,1.784,1.382,1.325c1.319-0.622,0.606-2.511-0.127-2.479c-0.61-0.006-0.676,0.034-0.719-0.574
			c-0.063-0.477-1.008-0.565-1.17-0.499c-0.23,0.096,0.096-0.365-0.326-0.653c-0.422-0.287-1.785-0.23-2.169,0.135
			c-0.384,0.364-0.652,0.825-0.192,1.247S49.898,98.928,50.339,98.698z M48.808,105.081c1.184,0.263,1.582-0.384,1.652-0.991
			c0.067-0.589-0.147-1.133-1.796-1.133c-0.58,0-0.537,0.466-1.406,0.248c-0.316-0.079-0.506-0.204-0.673-0.363
			c0.11,0.546,0.212,1.155,0.317,1.911C47.238,104.499,47.592,104.81,48.808,105.081z M201.691,285.066
			c-0.067-0.818-0.153-1.166-0.284-1.854c-0.13-0.688-0.307-1.719-0.65-2.683c-0.344-0.966-0.856-1.864-1.474-3.042
			c-0.619-1.178-1.342-2.636-1.782-3.612c-0.438-0.978-0.595-1.476-0.847-2.69c-0.25-1.216-0.598-3.15-0.951-5.865
			c-0.354-2.716-0.716-6.212-1.037-8.875c-0.322-2.662-0.604-4.49-1.08-7.551c-0.478-3.06-1.15-7.35-1.709-11.51
			c-0.31-2.312-0.583-4.584-0.826-6.836c-0.139-0.127-0.299-0.222-0.508-0.229c-1.051-0.035-0.994-2.154-0.143-1.988
			c0.171,0.035,0.311,0.046,0.427,0.037c-0.104-1.066-0.204-2.133-0.296-3.197c-0.166-1.935-0.311-3.868-0.434-5.752
			c-0.155,0.189-0.424,0.316-0.914,0.349c-1.262,0.085-3.326-0.337-3.158-1.769c0.169-1.432,1.054-1.179,0.295-1.853
			c-0.758-0.673-1.558,0.253-2.063-0.884c-0.505-1.138,0.169-1.938-0.716-2.231c-0.885-0.296-2.441,0.21-2.736-0.421
			c-0.014-0.03-0.027-0.061-0.041-0.09v-2.994c0.054-0.293,0.062-0.542,0-0.744v-0.743c-1.247-0.499-2.143-1.979-0.205-4.288v1.283
			c0.464,0.062,0.861,0.229,1.004,0.396c0.463,0.547,0.063,1.936,0.399,2.483s0.885,0.38,1.349,1.138
			c0.462,0.758-0.338,1.221,0.758,1.6c1.094,0.379,0.842-0.168,1.726,0.464c0.885,0.631,0.506,1.179,1.558,1.305
			c1.053,0.126,1.812-0.126,1.432-1.011c-0.379-0.883-0.631-1.895,0.085-2.273c0.204-0.107,0.459-0.212,0.733-0.287
			c-0.051-1.756-0.086-3.432-0.115-5.079c-0.056-3.05-0.095-6.003-0.156-9.249c-0.033-1.83-0.074-3.754-0.097-6.023
			c-0.155,0.042-0.31,0.09-0.467,0.145c-4.755,1.638-5.918-4.521-3.6-4.455c3.042,0.088,3.476-1.119,4.058-1.967
			c0.014-2.017,0.044-4.271,0.085-6.578c-0.383-0.389-0.689-0.844-0.689-1.75c0-1.213,0.333-1.762,0.769-2.076
			c0.055-2.379,0.117-4.703,0.186-6.768l0.014-0.395c-0.994,0.797-1.363,0.541-2.59-0.217c-1.844-1.134-1.064-2.129-1.542-3.332
			c-0.112-0.283,0.606-2.658,0.747-3.035c1.922-5.152-3.26-4.037-3.917-5.09c-0.026-0.043-0.053-0.088-0.077-0.134l0.59-2.571
			c-0.132-0.483-0.317-0.836-0.532-1.07c0.219-0.32,0.515-0.558,0.896-0.654c4.331-1.105,6.209,0.55,7.182,2.047
			c0.118-1.638,0.248-3.32,0.383-4.995c-0.361-0.523-0.088-1.33,0.132-1.62c0.112-1.357,0.228-2.695,0.341-3.986l0.129-1.442
			c-0.619,1.245-2.832,3.485-3.975,3.645c-4.969,0.694-2.813-2.797-2.668-5.365c0.06-1.064-0.131-1.366-1.215-1.366
			c-1.268,0-2.213-0.228-2.912-0.594v0.716c-0.307-0.084-0.668-0.146-1.08-0.175c-0.464-0.033-0.365-0.63-0.101-0.894
			s0.89,0.03,1.386-0.556v-0.833c-0.146-0.179-0.348-0.381-0.523-0.664c-0.432-0.696-1.49-0.43-2.053-0.133
			c-0.564,0.298-0.365,1.093-0.068,1.789c0.299,0.695-0.297,0.894-1.125,0.794c-0.828-0.099-0.529-0.53-1.225-1.026
			c-0.695-0.496-0.496-0.066-1.357-0.364c-0.861-0.297-0.232-0.662-0.597-1.258c-0.364-0.596-0.795-0.463-1.06-0.894
			c-0.266-0.43,0.05-1.522-0.314-1.953c-0.357-0.423-2.764-0.825-2.351,1.374c0.099,0.53,0.694,0.662,1.291,0.861
			c0.596,0.198,0.53,0.729,0.298,1.524c-0.231,0.794-0.066,1.391,0.166,1.887c0.23,0.497,1.457,0.1,2.152,0.332
			c0.694,0.231,0.165,0.861,0.563,1.755s1.027,0.165,1.623,0.696c0.596,0.53-0.1,0.331-0.232,1.457
			c-0.133,1.126,1.49,1.458,2.483,1.391c0.994-0.066,0.828-0.629,0.961-1.226c0.132-0.595-0.166-0.993,0.198-1.688
			c0.612-1.168,4.048,8.394,1.195,6.762c-1.641-0.938-3.334,0.344-4.77,0.396c-1.671,0.061,0.268-2.931-1.909-2.806
			c-0.313,0.019-0.659-0.189-0.958-0.447c-0.811,0.521-2.922,1.576-0.831,1.917c1.627,0.267-1.567,4.11,3.758,3.928
			c1.53-0.052,2.401,0.793,2.829,0.597c1.131,1.7,1.65,1.975,1.65,4.086c-0.469,0.626-1.504,0.775-0.398,1.709
			c0.23,0.195,0.357,0.457,0.398,0.742v0.432c-0.146,1.082-1.338,2.164-2.744,1.031c-0.071-0.057-0.269-1.039-1.055-1.625
			c-0.893-0.665-2.346-0.828-1.659,1.301c0.138,0.426,0.53,0.843,0.122,1.195c-2.088,1.8,0.014,2.899,0.945,1.861
			c2.304-2.566,3.478,1.498,4.373,1.488c0,0,1.207,1.346,1.236,2.478c0.042,1.628-1.333,2.979-3.641,0.671
			c-5.673-5.672-1.813,2.408-5.834,3.811c-9.026,3.146,1.762-6.903-3.479-4.335c-1.736,0.852-5.79,1.741-5.79,3.347
			c0,3.604-0.815,2.816-2.784,4.08c-1.223,0.786-4.438,0.818-3.006,2.625c1.833,2.313,2.449-0.234,4.955-1.639
			c4.611-2.584,3.777,1.414,3.777,3.368c0,1.091,3.281,1.761,2.503-0.24c-0.991-2.544,0.866-4.049,3.177-3.578
			c2.8,0.571,0.4,3.948,0.559,4.624c0.376,1.596,1.802,2.332,2.51,1.413c0.467-0.607-0.748-1.121-0.748-2.382
			c0-1.26,0.607-1.073-0.186-2.335c-0.795-1.261,0.186-1.728,0.652-2.94c0.911-2.369,4.006-2.975,6-1.731
			c1.368,0.853,1.273,2.312,1.436,2.791c0.496,1.479-3.159,1.005-4.633,1.321c-0.654,0.14,0.279,1.447,0.652,3.128
			c0.374,1.682-0.933,1.308-1.634,2.522c-0.7,1.213,0,2.334-0.841,3.314c-0.674,0.787-2.201,0.846-3.214,0.137
			c-1.157-0.809-0.921-1.761-1.285-2.361c-0.744-1.227-2.685,0.002-3.658,0.297c-2.633,0.798-6.136,1.153-6.614-0.653
			c-0.64-2.415-4.525,0.757-5.3-1.775c-0.446-0.149-0.47-2.403-0.87-2.485c-2.305-0.469-0.736,1.842-4.017,1.6
			c-1.981-0.146-3.851-2.033-3.688-3.986c0.197-2.371-0.18-2.257-0.472-2.47c-0.542-0.397-0.962-3.274,1.232-3.578
			c0.929-0.129,1.978,0.271,2.45,1.284c2.453,5.281,6.092-1.961,1.209-1.961c-1.426,0-3.996-0.757-2.896-2.528
			c0.918-1.478,1.107,0.773,2.92-2.789c0.969-1.903,2.762-0.878,3.695,0.442c0.755,1.065,0.787,2.031,0.656,4.079
			c-0.105,1.62,0.085,2.753,1.52,2.489c1.416-0.293,3.725-1.929,3.924-1.971c1.412-0.317,3.796-6.463-0.643-2.885
			c-1.294,1.044-3.262,0.829-3.475-0.211c-0.873-4.283-0.083-3.072-3.209-3.584c-2.897-0.474-0.701-3.429,2.107-4.278
			c4.652-1.408-1.079,4.194,6.351,2.622c2.493-0.527,0.825-1.784,0.344-1.77c-4.36,0.131-4.056-2.707,0.554-2.707
			c0.286,0,2.41-0.449,1.758-2.068c-0.359-0.887-1.544-1.724-0.76-1.896c1.648-0.362,2.904,0.175,3.381-0.672
			c1.246-2.213,0.571-3.4-1.979-2.287c-2.414,1.055-6.3,0.55-7.646-0.089c-1.646-0.782-7.022-0.779-7.022,0.783
			c0,3.965,2.024,0.426,4.974,0.426c2.438,1.111-0.419,6.107-1.803,6.883c-4.881,2.735-10.566-5.113-14.99-0.422
			c-1.777,1.885-5.062,0.927-4.857-1.646c0.188-2.366-1.988-4.444-1.76-6.389c0.184-1.563,2.928-4.142,4.433-1.744
			c1.073,1.711,0.981,4.817,2.103,4.864c2.441,0.103,0.273-1.801,0.273-3.228c0-2.113,4.523-0.128,6.281-0.894
			c2.322-1.012-0.473-2.418-1.391-2.771c-1.047-0.401-2.168-0.785-2.432-0.824c-3.039-0.452-3.102-2.966-0.443-4.381
			c1.214-1.143-3.086-3.348-4.838-0.437c0.412,9.311-7.252,3.146-11.006,7.104c-0.457,0.481-2.957,0.788-4.752,1.747
			c-2.144,1.147,0.117,2.773-4.374,3.042c-2.066,0.124-2.7-1.564-3.933-0.783c-1.233,0.782-0.261,2.254-1.645,3.399
			c-1.383,1.145-3.388,2.489-5.072,1.533c-1.684-0.957-2.614-2.315-1.414-3.753c1.199-1.438,4.165-1.692,4.519-3.337
			c0.354-1.645-2.251-0.75-1.481-2.237c0.771-1.489,2.628-2.035,2.257-3.057c-0.371-1.021-0.646,0.415-2.487-0.125
			c-1.84-0.539-2.557-1.873-2.046-2.521c0.51-0.647,3.6-0.562,3.66-2.022c0.061-1.462-0.926-0.924-1.247-3.789
			c-0.314-2.803-2.751-0.654-2.815-0.341c-0.473,2.318,2.951,0.649,2.329,3.705c-0.138,0.679-0.947,0.799-1.632,0.799
			c-2.194,0-1.368,2.399-1.857,3.965c0.53,1.045,0.542,2.925,0.234,3.752c-0.809,2.182-2.109,2.17-3.949,2.025
			c-4.859-0.384-4.279,1.669-6.055,2.031c-3.159,0.644-2.304-1.795-1.938-2.071c5.412-4.069,1.36-7.448,0.426-5.417
			c-0.564,1.228-2.845,3.555-4.01,3.718c-4.967,0.694-2.811-2.797-2.667-5.365c0.06-1.064-0.132-1.366-1.215-1.366
			c-1.267,0-2.213-0.228-2.911-0.594v0.778c-0.347-0.117-0.777-0.201-1.286-0.237c-0.464-0.033-0.365-0.63-0.099-0.894
			c0.264-0.264,0.889,0.03,1.385-0.556v-0.833c-0.146-0.179-0.349-0.381-0.524-0.664c-0.431-0.696-1.491-0.43-2.053-0.133
			c-0.563,0.298-0.365,1.093-0.066,1.789c0.297,0.695-0.298,0.894-1.126,0.794c-0.828-0.099-0.53-0.53-1.226-1.026
			c-0.694-0.496-0.496-0.066-1.357-0.364c-0.861-0.297-0.232-0.662-0.595-1.258c-0.365-0.596-0.795-0.463-1.061-0.894
			c-0.265-0.43,0.05-1.522-0.314-1.953c-0.357-0.423-2.763-0.825-2.351,1.374c0.099,0.53,0.694,0.662,1.291,0.861
			c0.596,0.198,0.53,0.729,0.298,1.524c-0.232,0.794-0.067,1.391,0.166,1.887c0.232,0.497,1.457,0.1,2.152,0.332
			c0.696,0.231,0.165,0.861,0.563,1.755c0.398,0.894,1.027,0.165,1.623,0.696c0.597,0.53-0.099,0.331-0.231,1.457
			c-0.133,1.126,1.489,1.458,2.483,1.391c0.993-0.066,0.828-0.629,0.96-1.226c0.132-0.595-0.165-0.993,0.198-1.688
			c0.378-0.721,1.915,1.592,2.101,2.322c0.22,0.863-1.824,1.655-1.039,2.831c1.005,1.504,1.135,2.905,0.97,4.002
			c-0.543,1.218-0.467,2-0.089,2.296c2.084,1.629,2.105-2.726,5.716-1.972c3.368,0.702,3.298,5.095,4.432,5.245
			c1.271,0.167,1.927,1.14,2.463-0.083c0.92-2.096,0.128-3.57,1.66-5.602c0.375-0.497,3.729-1.646,4.409-0.118
			c0.701,1.575-0.398,1.946-1.86,4.892c-0.664,1.338,0.792,2.925,1.639,3.647c2.034,1.736-2.066,5.57-5.766,4.121
			c-5.265-2.063-2.012,3.124-4.11,5.007c-1.254,1.126-1.564,0.898-2.918,0.063c-1.841-1.134-1.063-2.129-1.541-3.332
			c-0.112-0.283,0.606-2.658,0.748-3.035c1.921-5.152-3.261-4.037-3.917-5.09c-1.51-2.422-3.343,0.094-2.331,0.947
			c1.19,1.008-0.368,3.801-2.346,2.205c-0.071-0.057-0.268-1.039-1.055-1.625c-0.891-0.665-2.345-0.828-1.659,1.301
			c0.137,0.426,0.531,0.843,0.123,1.195c-2.088,1.8,0.012,2.899,0.945,1.861c4.213-4.694,7.434,10.103,1.968,4.637
			c-5.672-5.672-1.812,2.408-5.833,3.811c-9.027,3.146,1.761-6.903-3.479-4.335c-1.737,0.852-5.791,1.741-5.791,3.347
			c0,3.604-0.816,2.816-2.783,4.08c-1.223,0.786-4.439,0.818-3.006,2.625c1.832,2.313,2.448-0.234,4.955-1.639
			c4.61-2.584,3.776,1.414,3.776,3.368c0,1.091,3.282,1.761,2.503-0.24c-0.991-2.544,0.867-4.049,3.176-3.578
			c2.8,0.571,0.401,3.948,0.561,4.624c0.375,1.596,1.801,2.332,2.508,1.413c0.467-0.607-0.748-1.121-0.748-2.382
			c0-1.26,0.607-1.073-0.187-2.335c-0.794-1.261,0.187-1.728,0.654-2.94c0.467-1.215,2.939-2.868,3.685-2.355
			c3.082,0.518,5.103,6.665,2.385,5.902c-1.167-0.326-2.615-1.307-3.269-1.166c-0.654,0.14,0.281,1.447,0.654,3.128
			c0.374,1.682-0.934,1.308-1.634,2.522c-0.701,1.213,0,2.334-0.841,3.314c-0.674,0.787-2.202,0.846-3.214,0.137
			c-1.156-0.809-0.92-1.761-1.284-2.361c-0.744-1.227-2.684,0.002-3.66,0.297c-2.632,0.798-6.135,1.153-6.614-0.653
			c-0.64-2.415-4.525,0.757-5.299-1.775c-0.448-0.149-0.471-2.403-0.871-2.485c-0.47-0.096-0.778-0.076-0.999,0.014
			c0.064,1.876,0.111,3.791,0.144,5.747c0.093,0.099,0.175,0.188,0.245,0.27c0.607,0.7,1.308,0.466,2.055-0.048
			c0.746-0.513,2.568-0.139,2.942,0.701c0.373,0.84,0.186,3.081-1.635,3.362c-1.821,0.279-2.241-0.747-3.314-1.261
			c-0.088-0.042-0.173-0.073-0.256-0.094c0.013,1.459,0.018,2.941,0.016,4.445c-0.003,1.99-0.019,4.021-0.042,6.048
			c0.52,0.712,0.41,1.858-0.04,2.751c-0.023,1.45-0.052,2.887-0.083,4.291c0.172,0.055,0.343,0.133,0.506,0.238
			c2.458,1.585,2.282,2.857,4.249,3.348c1.966,0.492,1.871-0.561,3.181-0.561c3.732,0,4.219,1.23,4.066,2.563
			c-0.159,1.374-1.057,2.84-3.739,2.244c-2.951-0.655-3.661-1.421-4.48-0.601c-1.015,1.015-2.616,0.551-3.972-0.318l-0.02,0.585
			c-0.085,2.575-0.18,4.864-0.281,6.952c0.936-0.558,0.059-3.012,1.159-2.975c0.765,0.026,1.308-0.096,1.662,0.65
			c0.892,1.883-0.146,3.714,0.42,4.117c0.515,0.367,1.112-0.83,2.837-0.086c0.425,0.182,0.781-1.861,1.197-2.049
			c2.632-1.182,2.445,3.664,0.827,3.664c-1.852,0-1.307-0.899-1.84,0.471c-0.324,0.832-0.023,2.658-1.933,2.076
			c-0.975-0.299-1.505-1.697-2.337-0.589c-0.457,0.608-1.498,0.545-2.311,0.364c-0.041,0.616-0.082,1.219-0.124,1.812
			c-0.281,3.968-0.603,7.465-1.446,14.146l-0.043,0.338c0.271-0.046,0.627,0.053,0.862,0.238c0.269,0.214,0.372,0.396,0.863,0.61
			c0.49,0.213,0.483,0.546,0.467,0.815c-0.016,0.269-0.167,0.451-0.697,0.546c-0.531,0.095-0.562-0.373-0.91-0.443
			c-0.349-0.072-0.198,0.324-0.476,0.569c-0.141,0.127-0.289,0.165-0.427,0.146c-0.836,6.438-1.954,14.687-2.643,20.934
			c-0.794,7.205-1.015,11.746-1.216,15.252c-0.202,3.507-0.382,5.979-0.673,8.114s-0.694,3.934-0.972,5.31
			c-0.279,1.377-0.435,2.331-0.452,2.932c-0.018,0.6,0.103,0.847,0.249,0.975s0.317,0.139,0.5,0.175
			c0.184,0.036,0.38,0.099,0.469,0.155c0.019,0.011,0.032,0.021,0.042,0.037c0.875,0.321,1.75,0.644,3.15,0.924
			c1.401,0.279,3.326,0.517,6.487,0.753c3.16,0.236,7.553,0.471,11.087,0.608c3.534,0.137,6.206,0.178,9.583,0.181
			c3.376,0.003,7.456-0.03,11.317-0.007s7.505,0.104,10.581,0.191c3.074,0.087,5.58,0.181,7.908,0.251
			c2.328,0.07,4.478,0.116,6.782,0.17c2.304,0.054,4.763,0.114,7.349,0.121c2.586,0.007,5.298-0.04,8.031-0.097
			c2.732-0.057,5.486-0.124,7.945-0.221c2.457-0.098,4.621-0.225,7.009-0.355c2.389-0.131,5.001-0.265,8.253-0.492
			s7.144-0.55,10.459-0.852c3.316-0.301,6.056-0.583,8.786-0.947c2.729-0.365,5.448-0.813,7.646-1.249s3.873-0.858,5.995-1.329
			c2.124-0.473,4.696-0.996,6.589-1.32c1.891-0.324,3.104-0.453,4.264-0.536c1.158-0.083,2.264-0.124,3.15-0.116
			c0.888,0.008,1.558,0.063,1.954,0.094s0.519,0.038,0.61,0.043c0.049,0.002,0.091,0.004,0.127,0.006
			c0.094-0.068,0.163-0.18,0.178-0.777C201.814,287.176,201.762,285.886,201.691,285.066z M56.357,228.311
			c-0.479,1.187-1.57,0.412-1.215,1.273c0.194,0.471,0.416,1.398,0.171,1.89c-0.396,0.8-0.403,0.793-1.181,0.829
			c-0.725,0.034-1.232-0.533-1.232-1.08c0.207-0.227,0.354-1.771,0.886-1.833c0.881-0.101-0.319-1.196,0.063-1.957
			c0.298-0.597,1.71-0.544,2.257-0.284C56.679,227.422,56.583,227.748,56.357,228.311z M61.458,247.887
			c-0.416,0.009-1.112-0.125-1.039-0.354c0.072-0.229,0.259-0.161,0.228-0.379c-0.06-0.417,0.376-0.428,0.588-0.104
			c0.212,0.277,0.588,0.021,0.633,0.417C61.884,247.6,61.872,247.875,61.458,247.887z M162.414,192.993
			c0.929,0.737,1.283,1.366,2.978,2.104c1.694,0.736,1.666,1.885,1.611,2.813c-0.055,0.928-0.573,1.557-2.403,1.884
			c-1.831,0.328-1.94-1.283-3.143-1.529c-1.201-0.246-0.683,1.119-1.639,1.967c-2.703,2.395-5.881-4.32-2.432-3.688
			c1.34,0.245,1.366,0.19,1.34-0.574c-0.028-0.764-0.465-0.847-0.602-2.049C157.866,191.649,160.882,191.776,162.414,192.993z
			 M150.229,177.752c1.447-0.14,3.035,1.401,3.642,2.103c0.607,0.7,1.309,0.466,2.055-0.048c0.747-0.513,2.568-0.139,2.941,0.701
			c0.374,0.84,0.188,3.081-1.634,3.362c-1.821,0.279-2.241-0.747-3.315-1.261s-1.774,0.653-3.222,1.261
			c-3.245,1.36-5.8,0.03-4.437-3.876C146.961,177.986,148.781,177.893,150.229,177.752z M145.604,178.85
			c-0.701,0.584-0.303,1.821-1.704,2.405c-2.389,0.995-4.259,0.101-3.059-2.966c0.42-1.073,0.28-1.471,1.144-2.148
			c0.864-0.676,2.826-0.629,3.549,0.024C146.258,176.818,146.304,178.266,145.604,178.85z M139.037,187.151
			c-0.684-0.573-1.395-0.026-1.886,0.493c-0.492,0.518-0.464,1.502-1.202,2.185s-1.502,0.574-2.049,1.257
			c-0.547,0.684-0.656,1.912-0.656,2.84c0,0.93-1.365,1.258-2.486,1.504c-1.119,0.246-1.721-0.246-2.623-1.694
			c0,0-0.354-1.12,0.467-1.83c0.818-0.71,2.512-0.765,2.949-1.802c0.438-1.039-0.109-2.188,0.875-3.225
			c0.982-1.039,2.076-0.438,2.457-0.819c0.384-0.384,0.82-2.623,2.404-3.278c1.585-0.656,3.17,0,3.88,1.202s1.093,1.257,2.131,1.802
			c1.038,0.548,1.257,2.951,0.19,3.606c-1.064,0.657-1.611,0.602-1.802,1.694c-0.192,1.093-0.684,2.595-1.258,3.523
			c-0.573,0.93-1.743,2.301-3.879,1.967c-1.981-0.31-1.923-2.256-1.528-3.168c0.518-1.203,0.245-1.094,1.092-2.022
			c0.846-0.929,2.076-0.026,2.759-0.601S139.719,187.726,139.037,187.151z M120.531,163.16c0.391-0.163,2.691,0.053,2.846,1.215
			c0.102,1.479,0.266,1.381,1.746,1.394c1.784-0.075,3.521,4.52,0.311,6.03c-2.376,1.119-3.363-1.17-3.363-3.223
			c0-0.652-0.42-0.561-1.634-0.793c-1.214-0.234-0.327-1.867-0.793-2.475c-0.467-0.607-1.168,0.047-2.241,0.607
			c-1.075,0.561-2.289,0.046-3.41-0.981c-1.12-1.026-0.467-2.147,0.468-3.034c0.933-0.889,4.249-1.029,5.277-0.328
			C120.764,162.273,119.97,163.394,120.531,163.16z M113.641,167.361c0.094,0.42-0.374,1.682-1.634,2.008
			c-1.261,0.328-2.102-0.373-2.475,0c-0.374,0.374-0.28,1.588-1.494,2.148c-1.215,0.561-1.775,0.468-2.663,0.279
			c-0.887-0.186-0.466,0.701-1.214,1.402c-1.124,1.054-4.862-0.389-1.961-3.736c0.607-0.701,1.167,0.234,2.289,0.047
			c1.12-0.188,0.981-1.354,1.214-2.008c0.233-0.653,0.748-1.309,1.821-1.494c1.073-0.188,1.121,1.354,2.008,1.121
			c0.888-0.234,0.98-0.889,2.429-1.168C113.408,165.682,113.547,166.941,113.641,167.361z M102.423,177.658
			c1.022-0.33,1.74,0.224,2.217-0.274c0.477-0.497,0.751-1.321,0.787-1.97c0.036-0.65,1.194-1.318,2.794-1.834
			c1.6-0.518,2.288,0.095,3.389,0.771c1.1,0.675,2.271,1.867,2.791,3.023c0.599,1.332,2.176-0.09,3.32,1.67
			c1.497,2.303,1.193,5.25-1.61,6.365c-1.305,0.52-2.373-0.51-3.286-0.756c-2.792-0.748-0.929-3.058-0.165-4.313
			c1.419-2.336-3.392-1.101-3.727-1.055c-1.833,0.247-1.044-0.498-1.689-0.977s-1.465,0.326-1.708,0.943
			c-0.242,0.618-0.299,1.961-1.838,2.359c-1.54,0.398-2.097-0.108-2.677-1.148C100.441,179.426,101.4,177.988,102.423,177.658z
			 M101.458,189.951c0.459-1.446,1.643-1.02,1.445-2.398c-0.377-2.641,2.377-2.701,3.726-0.657c1.334,1.751,3.715,0.126,4.003,2.638
			c0.096,0.842,0.014,2.587-2.602,2.652C105.401,192.251,100.998,191.397,101.458,189.951z M109.834,196.994
			c1.25,0.369,4.163,2.452,4.952,1.037c1.851-3.316-2.695-1.604-4.055-2.959c-1.498-1.492,0.894-2.513,1.566-2.211
			c2.354,1.058,4.404,0.369,5.241-2.423c0.471-1.574-0.456-4.999,2.479-4.038c0.986,0.324,3.054,3.368,1.42,5.67
			c-1.331,1.878-1.534,3.992,1.53,2.705c1.116-0.471,1.484-1.996,3.709,0.478c0.778,0.865,0.499,3.454-1.012,3.763
			c-3.683,0.75-4.478-3.408-7.02,0.006c-0.493,0.663-11.167,4.118-11.167-0.021C107.479,197.517,108.021,196.459,109.834,196.994z
			 M121.161,202.949c0.808,3.465,2.313,1.213,4.128,1.116c1.59-0.085,2.492,2.859,1.598,4.423c-0.473,1.395-2.62,2.91-4.314,1.902
			c-1.593-1.426-1.459-3.477-4.249-2.525C113.409,209.542,119.448,195.6,121.161,202.949z M124.435,183.252
			c0.187-1.587,1.167-1.307,0.326-2.054s-1.728,0.28-2.288-0.98c-0.561-1.262,0.188-2.148-0.793-2.476
			c-0.98-0.326-2.709,0.234-3.036-0.467c-0.326-0.701-0.56-1.541-0.233-2.661c0.327-1.121,0.42-1.868-0.42-2.147
			c-0.84-0.281-1.682-0.469-1.821-1.215c-0.581-3.101,2.811-2.534,3.315-1.938c0.514,0.606,0.07,2.148,0.444,2.755
			c0.374,0.607,0.98,0.42,1.494,1.261s-0.373,1.354,0.841,1.774s0.935-0.187,1.915,0.514c0.98,0.701,0.56,1.309,1.727,1.447
			c1.168,0.141,2.008-0.139,1.588-1.119s-0.699-2.102,0.094-2.521c0.794-0.421,2.288-0.795,2.895,0.186
			c0.607,0.981,1.449,1.262,0.748,2.102c-0.7,0.841-1.588,0.421-1.961,0.793c-0.373,0.375-0.514,1.216,0.14,1.262
			c0.654,0.047,2.008-1.4,2.662-0.934c0.653,0.467,1.12,0.653,1.261,1.682c0.141,1.027,0.141,1.68-0.094,1.867
			c-0.233,0.187-0.117,0.583-1.471,0.724c-1.354,0.14-1.682-0.981-2.194,0c-0.515,0.98-0.094,1.541-0.28,2.382
			c-0.188,0.84,0.046,1.635-1.355,1.728C126.535,185.307,124.248,184.84,124.435,183.252z M128.088,199.612
			c0.371-0.61,2.188-1.636,2.931-0.414c0.342,0.562,0.528,1.412,0.61,1.851c0.115,0.627,0.418,0.734,1.027,0.82
			c2.683,0.379-0.173,6.182-1.912,1.85c-0.398-0.992-0.165-1.133-0.61-1.041c-0.569,0.117-1.171-0.035-1.657-0.328
			C127.418,201.709,127.727,200.203,128.088,199.612z M135.123,170.305c0.326-1.354,1.845-1.471,2.965-1.168
			c1.121,0.304,1.004,0.957,1.961,1.19c0.957,0.234,2.848,1.776,2.918,3.386c0.07,1.611-2.451,2.312-3.665,2.056
			c-1.214-0.257-1.214-1.378-2.032-2.267c-0.816-0.887-1.68-0.442-2.006-1.517C135.264,171.985,134.796,171.659,135.123,170.305z
			 M134.461,164.85c0.468-0.607-0.746-1.121-0.746-2.382s0.607-1.073-0.187-2.335c-0.794-1.261,0.187-1.728,0.653-2.942
			c0.467-1.214,1.774-0.326,2.521,0.187c0.746,0.515,0.467-0.279,1.681-0.793c0.745-0.315,5.097-0.34,4.997,3.506
			c-0.014,0.57,2.789-0.139,2.027-3.335c-0.244-1.019-1.238-2.044-1.094-2.692c0.467-2.102,1.494-1.682,2.802-0.934
			c1.308,0.747,1.495,1.68,1.495,4.482c0,2.802-1.916,1.961-2.942,4.203c-0.935,1.961,0.98,2.801-1.542,4.576
			c-2.521,1.773-4.109,0-4.529-1.215c-0.42-1.213,1.401-2.148,2.336-3.082c0.934-0.934-0.515-1.027-1.682-1.354
			c-1.168-0.326-2.615-1.307-3.269-1.167c-0.653,0.141,0.279,1.447,0.653,3.129c0.373,1.68-0.934,1.308-1.635,2.521
			c-0.7,1.214,0,2.335-0.84,3.316c-1.238,1.443-5.356,0.43-3.876-3.27C131.66,164.335,133.994,165.456,134.461,164.85z
			 M120.065,155.059c1.587,0,1.681-0.513,1.775-2.568c0.094-2.055,2.194-1.494,3.035-2.008c0.84-0.514,1.213-1.541,0.98-3.081
			c-0.233-1.542-0.7-1.869-0.047-2.896c0.653-1.027,2.195-0.981,2.848-0.607c0.654,0.374,2.195,0.374,1.635,2.801
			c-0.56,2.429-1.354,1.868-1.447,3.129c-0.094,1.261,2.568,1.493,2.941,2.101c0.374,0.607-0.373,1.682-2.008,1.961
			c-1.635,0.28-1.728-0.98-2.147-0.139c-0.421,0.84,1.12,1.494,1.634,2.848s-1.635,0.326-1.494,1.775
			c0.14,1.447,2.662,1.96,3.549,3.314c0.887,1.354-0.047,2.429-1.588,3.082s-3.129-0.701-4.203-1.82
			c-1.074-1.121-0.092-2.289-1.074-3.083c-0.98-0.794-1.727,0.747-3.455,0.28C118.444,159.459,117.295,155.059,120.065,155.059z
			 M102.48,159.737c2.369-0.934-1.191-2.978-0.643-4.035c0.654-1.262,1.915-0.935,3.409-0.281c1.495,0.655,3.129,1.495,4.39,1.448
			c1.261-0.047,1.167-1.82,0.607-2.288c-0.561-0.467-1.915,0.84-2.708-0.28c-0.794-1.121,0.281-1.82,1.401-2.661
			c1.121-0.841,3.082,1.399,3.922,1.399s0.748-0.746,1.027-2.428c0.281-1.68,0.84-2.147,2.428-1.867
			c1.588,0.279,2.989,2.615,2.989,4.483c0,1.867-1.027,2.334-1.868,3.362c-0.84,1.025-0.561,2.801-2.055,3.734
			c-1.494,0.935-2.801-0.934-5.136-0.934s-1.587,2.242-3.362,3.175C102.455,164.896,97.585,161.668,102.48,159.737z M100.71,194.34
			c0.178,2.047-1.846,3.214-1.031,4.818c0.749,1.475,2.327,2.718,1.579,4.289c-0.758,1.591-4.414,0.412-5.252-0.535
			c-0.516-0.584-1.042-1.146-1.899-1.281c-9.416-1.502-7.955-9.266-0.34-4.74c3.291,1.957,1.776-2.229,3.776-3.568
			C98.565,192.637,100.605,193.129,100.71,194.34z M99.098,188.307c-1.846,2.113-5.285-1.168-9.645,0.336
			c-4.755,1.638-5.918-4.521-3.599-4.455c5.225,0.15,2.755-3.523,6.556-2.621c2.641,0.628,0.313,3.739,2.815,3.346
			C100.201,184.132,100.898,186.247,99.098,188.307z M91.893,168.365c-0.188-0.918,1.515-0.359,2.049-1.273
			c0.778-1.334-1.618-4.717,1.669-5.043c3.768-0.374,2.341,4.885,2.357,4.928c0.398,1.055,2.525,1.727,0.024,4.727
			c-0.484,0.58-1.243,0.131-2.068,0.072c-3.82-0.27-0.765,1.76-1.931,4.072c-0.468,0.928,2.362,2.091,1.389,4.05
			c-0.531,1.071-4.056,1.888-3.904-0.593c0.234-3.863-2.172-2.875-2.172-5.412C89.307,169.944,92.843,173.027,91.893,168.365z
			 M81.617,176.289c1.816,1.17,1.686,2.109,3.139,2.473c1.452,0.363,1.381-0.414,2.349-0.414c2.756,0,3.117,0.909,3.003,1.894
			c-0.117,1.014-0.78,2.097-2.761,1.657c-2.178-0.484-2.704-1.049-3.309-0.444c-1.271,1.271-3.784-0.598-4.556-1.737
			C77.893,177.371,80.116,175.321,81.617,176.289z M65.082,199.795c-1.831,0.328-1.94-1.283-3.142-1.529s-0.683,1.119-1.639,1.967
			c-2.704,2.395-5.881-4.32-2.431-3.688c1.339,0.245,1.366,0.19,1.339-0.574c-0.028-0.764-0.464-0.847-0.602-2.049
			c-0.258-2.272,2.757-2.146,4.289-0.929c0.929,0.737,1.284,1.366,2.978,2.104c1.694,0.736,1.666,1.885,1.611,2.813
			C67.431,198.839,66.912,199.468,65.082,199.795z M63.209,233.832c0.158-0.495,0.563-0.349,0.495-0.821
			c-0.129-0.905,0.814-0.926,1.276-0.226c0.225,0.295,0.724,0.977,1.319,1.291c0.615,0.325,1.326,0.287,1.375,0.725
			c0.033,0.288-0.921,0.992-2.214-0.203C64.56,234.62,63.052,234.327,63.209,233.832z M68.396,241.723
			c-0.015,0.24-0.148,0.403-0.624,0.488c-0.474,0.084-0.501-0.332-0.813-0.396c-0.312-0.063-0.178,0.29-0.425,0.51
			c-0.7,0.62-1.523-1.12-0.63-0.956c0.347,0.063,0.354,0.05,0.347-0.148s-0.12-0.219-0.156-0.53
			c-0.066-0.589,0.714-0.557,1.112-0.241c0.24,0.191,0.332,0.354,0.772,0.546C68.417,241.185,68.411,241.482,68.396,241.723z
			 M70.574,224.058c-0.396,0.831-2.304,0.216-2.742-0.279c-0.269-0.305-0.538-0.653-0.991-0.669
			c-1.308-0.043-1.238-2.682-0.178-2.474c1.722,0.339,0.927-1.164,1.971-1.863c0.535-0.356,1.6-0.101,1.655,0.53
			c0.093,1.07-0.963,1.679-0.539,2.516C70.142,222.588,70.965,223.237,70.574,224.058z M68.834,211.518
			c-0.999,0.521-2.128,0.043-3.171-0.912c-1.043-0.956-0.435-2,0.435-2.826c0.868-0.824,3.954-0.955,4.91-0.303
			c0.956,0.65,0.218,1.693,0.739,1.477c0.365-0.151,2.505,0.05,2.65,1.131c0.094,1.376,0.246,1.285,1.625,1.297
			c1.659-0.07,3.275,4.206,0.288,5.612c-2.211,1.039-3.129-1.091-3.129-2.999c0-0.609-0.391-0.521-1.521-0.739
			c-1.13-0.217-0.305-1.737-0.739-2.303S69.835,210.995,68.834,211.518z M76.149,250.705c-0.232,0.512-1.156,1.172-1.412,1.172
			c-0.688,0-0.485-0.334-0.684,0.174c-0.12,0.309-0.009,0.987-0.717,0.771c-0.362-0.11-0.559-0.63-0.868-0.218
			c-0.22,0.293-0.804,0.166-1.097,0.069c-0.413-0.138-0.21-0.902-0.202-0.938c0.134-0.598-0.532-1.788,0.203-2.17
			c0.369-0.192,0.03-1.126,0.444-1.111c0.283,0.009,0.485-0.036,0.616,0.241c0.332,0.697,0.29,2.465,0.5,2.613
			c0.192,0.137,0.413-0.309,1.054-0.031c0.157,0.066,1.295-1.513,1.45-1.582C75.998,249.443,76.463,250.015,76.149,250.705z
			 M77.206,242.143c-0.415,0.01-1.429-0.926-1.396-1.473c0.072-0.229,0.008-0.709-0.023-0.928c-0.06-0.418,0.376-0.428,0.588-0.104
			c0.212,0.277,0.587,0.02,0.633,0.416c0.102,0.917-0.705-0.707-0.398,0.869C76.706,241.422,77.794,241.926,77.206,242.143z
			 M78.418,231.393c-0.817,0-0.577-0.396-0.813,0.208c-0.143,0.368-0.01,1.175-0.854,0.917c-0.431-0.133-0.665-0.75-1.032-0.26
			c-0.262,0.349-0.958,0.197-1.306,0.082c-0.492-0.163-0.231-1.156-0.24-1.115c0.16-0.711-0.224-0.836,0.65-1.291
			c0.23-0.119,0.71-0.914,0.783-1.991c0.066-0.976-0.277-2.251-0.044-2.243c0.338,0.012,0.578-0.041,0.735,0.288
			c0.393,0.831-0.277,4.552-0.027,4.729c0.227,0.162,0.491-0.366,1.253-0.038c0.188,0.081,0.345-0.822,0.53-0.905
			C79.216,229.252,79.134,231.393,78.418,231.393z M76.454,200.694c-1.639,0.108-2.459-1.422-3.388-2.022
			c-2.839-1.836,0.065-3.738,1.366-4.862c2.42-2.089-3.382-2.443-3.77-2.513c-2.13-0.383-0.982-0.93-1.53-1.695
			c-0.546-0.764-1.749-0.162-2.24,0.438c-0.492,0.601-1.038,2.075-2.896,1.966c-1.858-0.109-2.295-0.874-2.568-2.24
			c-0.273-1.365,1.312-2.621,2.568-2.621c1.256,0,1.858,0.873,2.568,0.491c0.71-0.383,1.311-1.202,1.584-1.913
			c0.272-0.71,1.802-1.037,3.77-1.037c1.967,0,2.513,0.929,3.497,2.076s1.858,2.895,2.021,4.37c0.189,1.699,2.456,0.682,3.097,3.053
			C81.373,197.287,79.977,200.459,76.454,200.694z M86.721,236.426c-1.055,0.121,0.117-2.002-0.608-2.674
			c-0.728-0.674-2.582,0.233-2.771-0.325c0.203-0.638,0.726-0.45,0.638-1.06c-0.166-1.166,1.05-1.193,1.646-0.289
			c0.589,0.773,1.641,0.055,1.768,1.164C87.437,233.615,87.877,236.396,86.721,236.426z M92.243,243.053
			c-0.335,0.703-1.95,0.184-2.32-0.236c-0.227-0.258-0.456-0.553-0.839-0.565c-1.106-0.037-1.047-2.271-0.15-2.095
			c1.457,0.288,0.785-0.984,1.667-1.576c0.453-0.303,1.354-0.084,1.401,0.45c0.078,0.904-0.816,1.419-0.457,2.128
			C91.875,241.811,92.573,242.359,92.243,243.053z M94.229,231.082c-0.318,0.668-1.851,0.173-2.202-0.225
			c-0.216-0.244-0.432-0.525-0.797-0.537c-0.802-0.027-1.688-2.42-2.65-3.127c-0.498-0.365-1.285,1.075-1.518,0.666
			c-0.736-1.289,0.629-2.472,1.458-2.236c1.313,0.373,2.364,3.359,3.271,3.752c1.036,0.447,0.659-2.391,0.881-2.538
			c0.428-0.288,1.284-0.081,1.329,0.427c0.074,0.857-0.774,1.347-0.433,2.02C93.881,229.901,94.543,230.423,94.229,231.082z
			 M94.65,215.41c-0.21,0.168-0.105,0.527-1.326,0.654c-1.221,0.125-1.516-0.885-1.979,0c-0.462,0.883-0.083,1.389-0.252,2.146
			c-0.169,0.758,0.042,1.475-1.221,1.558c-1.263,0.085-3.327-0.337-3.159-1.769s1.053-1.179,0.295-1.853
			c-0.759-0.673-1.559,0.253-2.064-0.884c-0.505-1.138,0.168-1.938-0.716-2.231c-0.883-0.296-2.441,0.21-2.736-0.421
			c-0.095-0.205-0.182-0.423-0.245-0.657v-1.617c0.01-0.042,0.021-0.084,0.034-0.126c0.631-2.163-0.74-2.498-1.407-4.649
			c-0.442-1.426,0.072-2.731,1.432-1.643c0.378,0.303,0.333,0.791,0.943,1.513c0.464,0.547,0.063,1.936,0.401,2.483
			c0.336,0.548,0.883,0.38,1.347,1.138c0.463,0.758-0.336,1.221,0.757,1.6c1.096,0.379,0.843-0.168,1.727,0.464
			c0.884,0.631,0.505,1.179,1.558,1.305c1.053,0.126,1.811-0.126,1.432-1.011c-0.379-0.883-0.632-1.895,0.083-2.273
			c0.716-0.379,2.063-0.716,2.612,0.169c0.547,0.884,1.305,1.136,0.673,1.894c-0.632,0.76-1.432,0.379-1.768,0.717
			c-0.336,0.336-0.463,1.094,0.126,1.137c0.59,0.042,1.812-1.264,2.401-0.842c0.589,0.42,1.011,0.589,1.137,1.516
			C94.861,214.652,94.861,215.242,94.65,215.41z M99.513,207.809c1.195,1.032-0.263,2.977,1.529,3.305
			c3.379,0.615,1.495,5.382-1.197,4.318c-1.344-0.53-2.023-1.076-1.367-2.625c0.662-1.558-0.926-1.826-2.057-2.193
			C93.707,209.734,96.664,205.35,99.513,207.809z M97.627,221.519c-0.26-1.389,1.258-1.135,1.484-0.868
			c0.23,0.272,0.031,0.962,0.198,1.233c0.168,0.271,0.439,0.188,0.669,0.565c0.23,0.376-0.167,0.606,0.376,0.794
			c0.544,0.188,0.418-0.083,0.858,0.23c0.439,0.313,0.251,0.585,0.773,0.647c0.522,0.063,0.899-0.063,0.711-0.502
			c-0.189-0.438-0.314-0.94,0.042-1.129c0.355-0.188,1.024-0.355,1.296,0.084c0.271,0.439,0.648,0.564,0.334,0.94
			c-0.314,0.377-0.711,0.188-0.878,0.355c-0.167,0.167-0.229,0.544,0.063,0.564s0.899-0.626,1.192-0.418
			c0.292,0.21,0.501,0.293,0.563,0.753c0.063,0.46,0.063,0.753-0.042,0.837c-0.104,0.083-0.052,0.261-0.658,0.324
			c-0.606,0.062-0.753-0.44-0.983,0c-0.23,0.438-0.042,0.689-0.126,1.065c-0.083,0.377,0.021,0.731-0.606,0.773
			c-0.626,0.042-1.652-0.167-1.568-0.878c0.083-0.71,0.522-0.585,0.146-0.92c-0.377-0.335-0.774,0.126-1.025-0.438
			c-0.251-0.564,0.083-0.963-0.355-1.109c-0.438-0.145-1.213,0.105-1.358-0.208c-0.146-0.313-0.251-0.69-0.105-1.192
			c0.146-0.502,0.188-0.836-0.188-0.961C98.066,221.937,97.69,221.854,97.627,221.519z M104.33,254.223
			c-0.015,0.241-0.149,0.404-0.623,0.488c-0.475,0.086-0.503-0.332-0.814-0.396c-0.312-0.064-0.177,0.29-0.424,0.51
			c-0.701,0.62-1.525-1.12-0.631-0.956c0.347,0.064,0.354,0.05,0.347-0.148c-0.007-0.198-0.12-0.219-0.156-0.531
			c-0.067-0.589,0.714-0.556,1.112-0.24c0.241,0.191,0.333,0.354,0.771,0.545C104.352,253.686,104.344,253.982,104.33,254.223z
			 M104.333,236.641c-0.382,0.802,0.401,1.146-0.63,1.871c-1.032,0.727-1.682,0-1.854-0.496c-0.171-0.496,0.574-0.879,0.956-1.261
			c0.382-0.383-0.21-0.42-0.688-0.554c-0.478-0.134-1.07-0.535-1.338-0.479c-0.267,0.058,0.115,0.593,0.268,1.28
			c0.153,0.688-0.382,0.534-0.669,1.032c-0.286,0.496,0,0.955-0.344,1.356c-0.506,0.591-2.19,0.177-1.584-1.338
			c0.151-0.382,1.107,0.076,1.298-0.171c0.191-0.25-0.306-0.459-0.306-0.975c0-0.517,0.248-0.44-0.076-0.955
			c-0.325-0.517,0.076-0.707,0.267-1.204c0.191-0.497,0.726-0.134,1.031,0.075c0.306,0.211,0.191-0.113,0.688-0.324
			c0.306-0.129,2.085-0.139,2.045,1.436c-0.006,0.232,1.141-0.059,0.829-1.365c-0.1-0.416-0.506-0.836-0.447-1.102
			c0.191-0.859,0.611-0.688,1.146-0.383c0.535,0.307,0.611,0.689,0.611,1.834C105.537,236.067,104.753,235.724,104.333,236.641z
			 M105.777,208.075c-0.242,0.311-0.5,1.063-1.441,1.032c-0.942-0.033-1.173-0.414-1.329-1.103
			c-0.155-0.688,0.631-1.345,1.268-1.359c0.636-0.017,0.952,0.419,1.306,0.216c0.355-0.201,0.649-0.625,0.779-0.987
			c0.129-0.363,0.899-0.548,1.896-0.573c0.996-0.024,1.284,0.44,1.796,1.008c0.512,0.568,0.977,1.443,1.079,2.188
			c0.117,0.858,1.251,0.315,1.605,1.507c0.463,1.561-0.204,3.184-1.985,3.348c-0.828,0.074-1.262-0.689-1.74-0.982
			c-1.459-0.895-0.012-1.895,0.632-2.479c1.198-1.088-1.743-1.195-1.94-1.226c-1.083-0.167-0.51-0.458-0.796-0.838
			C106.621,207.445,106.019,207.764,105.777,208.075z M109.936,218.026c-0.305,0.255-0.132,0.795-0.744,1.051
			c-1.042,0.434-1.859,0.044-1.336-1.296c0.184-0.469,0.123-0.642,0.5-0.938c0.377-0.296,1.233-0.275,1.55,0.01
			C110.222,217.14,110.243,217.771,109.936,218.026z M106.565,228.115c0-0.654,0.239-1.123,1.041-0.887
			c0.552,0.164,1.838,1.084,2.188,0.459c0.817-1.465-1.19-0.709-1.791-1.307c-0.662-0.66,0.394-1.111,0.691-0.977
			c1.04,0.467,1.945,0.162,2.314-1.07c0.208-0.696-0.2-2.209,1.095-1.784c0.437,0.144,1.349,1.487,0.628,2.505
			c-0.588,0.829-0.678,1.763,0.675,1.193c0.494-0.206,0.656-0.881,1.638,0.212c0.344,0.382,0.221,1.526-0.447,1.662
			c-1.627,0.331-1.978-1.505-3.101,0.003C111.279,228.418,106.565,229.943,106.565,228.115z M112.621,233.633
			c-0.081-0.715,0.866-0.675,1.348-0.293c0.291,0.231,0.403,0.43,0.936,0.661c0.531,0.231,0.523,0.593,0.506,0.884
			c-0.018,0.292-0.181,0.489-0.755,0.592c-0.576,0.104-0.61-0.403-0.987-0.479c-0.378-0.077-0.216,0.351-0.515,0.617
			c-0.85,0.753-1.848-1.357-0.764-1.158c0.42,0.076,0.428,0.06,0.42-0.181S112.665,234.01,112.621,233.633z M113.648,242.459
			c-0.515-0.158-0.795-0.896-1.235-0.311c-0.313,0.418-1.144,0.236-1.56,0.1c-0.588-0.195-0.277-1.383-0.288-1.334
			c0.191-0.85-0.266-0.998,0.778-1.542c0.523-0.274,0.042-1.602,0.631-1.581c0.402,0.013,0.689-0.051,0.876,0.344
			c0.471,0.992-0.077,1.959,0.222,2.174c0.271,0.192,0.587-0.439,1.498-0.047c0.224,0.098,0.412-0.982,0.632-1.081
			c1.39-0.624,1.291,1.935,0.437,1.935c-0.978,0-0.689-0.475-0.971,0.248C114.498,241.803,114.656,242.768,113.648,242.459z
			 M116.788,246.688c-0.102,0.303-0.568,0.632-0.936,0.413c-0.346-0.309-0.317-0.755-0.921-0.548
			c-1.067,0.364,0.243-2.662,0.615-1.066c0.175,0.751,0.501,0.264,0.896,0.242C116.787,245.71,116.981,246.35,116.788,246.688z
			 M117.371,224.453c-0.726-0.287-1.092-0.581-0.737-1.416c0.357-0.842-0.5-0.987-1.111-1.184c-1.464-0.476,0.132-2.842,1.669-1.514
			c0.645,0.557-0.143,1.605,0.825,1.782C119.84,222.455,118.823,225.027,117.371,224.453z M119.891,216.271
			c-2.651,0.904,0.607-6.618,1.531-2.652c0.436,1.868,1.248,0.653,2.229,0.603c0.857-0.047,1.344,1.541,0.861,2.387
			c-0.254,0.752-1.414,1.569-2.327,1.025C121.324,216.863,121.396,215.756,119.891,216.271z M125.767,226.668
			c-0.151-0.436,0.503-0.771,0.838-1.107c0.335-0.335-0.185-0.368-0.604-0.486c-0.418-0.117-0.938-0.469-1.173-0.418
			c-0.235,0.05,0.101,0.519,0.234,1.123c0.134,0.604-0.336,0.469-0.587,0.904c-0.252,0.438,0,0.84-0.303,1.191
			c-0.254,0.297-2.328,2.369-3.219,1.279c-0.14-0.172,0.801-0.482,1.771-0.832c0.471-0.17-0.027-1.411,0.057-1.621
			c0.134-0.335,0.973,0.067,1.141-0.15c0.167-0.219-0.269-0.402-0.269-0.855c0-0.452,0.218-0.387-0.067-0.838
			c-0.285-0.453,0.067-0.621,0.234-1.058c0.168-0.436,0.637-0.116,0.905,0.067c0.269,0.185,0.169-0.101,0.604-0.285
			c0.268-0.112,1.83-0.122,1.795,1.26c-0.006,0.204,1.001-0.051,0.727-1.197c-0.087-0.367-0.443-0.734-0.393-0.968
			c0.168-0.755,0.537-0.604,1.007-0.335c0.47,0.268,0.536,0.604,0.536,1.609s-0.688,0.705-1.057,1.51
			c-0.334,0.703,0.354,1.006-0.553,1.643C126.486,227.741,125.917,227.104,125.767,226.668z M128.045,239.621
			c-0.737,0.018-1.973-0.221-1.843-0.627c0.129-0.406,0.46-0.285,0.405-0.672c-0.105-0.741,0.667-0.758,1.045-0.186
			c0.373,0.492,1.041,0.035,1.122,0.74C128.801,239.113,128.778,239.602,128.045,239.621z M134.655,233.689
			c-1.627,0.331-1.978-1.506-3.101,0.003c-0.219,0.292-4.934,1.819-4.934-0.009c0-0.656,0.239-1.124,1.041-0.888
			c0.553,0.163,1.839,1.083,2.188,0.458c0.818-1.465-1.191-0.709-1.791-1.307c-0.661-0.659,0.395-1.11,0.691-0.977
			c1.04,0.467,1.945,0.164,2.314-1.07c0.209-0.695-0.199-2.209,1.096-1.783c0.436,0.143,1.35,1.487,0.628,2.504
			c-0.587,0.83-0.677,1.764,0.676,1.194c0.493-0.206,0.655-0.88,1.639,0.212C135.446,232.409,135.323,233.553,134.655,233.689z
			 M134.734,220.487c-0.439-0.03-1.149,0.696-2.168,0.241c-1.018-0.454-1.266-0.856-1.637-1.516
			c-0.369-0.659-0.695,0.092-1.545,0.007c-1.278-0.127-2.426-3.263,1.268-3.28c0.771-0.004,0.494,0.86,1.227,1.461
			c0.731,0.6,1.387-0.128,1.926-0.34c0.538-0.213,1.23-0.25,1.937,0.321c0.707,0.572-0.234,1.446,0.399,1.875
			c0.633,0.429,1.094,0.129,2.064,0.882c0.971,0.756,0.256,1.535,0.045,1.824c-0.213,0.289-1.261,0.688-2.158,0.076
			C135.195,221.428,135.174,220.516,134.734,220.487z M137.049,251.909c-0.416,0.011-1.112-0.125-1.039-0.354
			c0.072-0.229,0.26-0.161,0.229-0.38c-0.059-0.417,0.375-0.426,0.589-0.104c0.211,0.277,0.587,0.02,0.633,0.416
			C137.476,251.622,137.462,251.898,137.049,251.909z M141.307,237.657c-0.016,0.276-0.17,0.464-0.716,0.562
			s-0.578-0.382-0.937-0.455c-0.357-0.073-0.203,0.334-0.488,0.585c-0.806,0.714-1.752-1.287-0.725-1.099
			c0.398,0.074,0.407,0.057,0.398-0.171c-0.008-0.228-0.138-0.252-0.178-0.61c-0.078-0.677,0.821-0.639,1.277-0.276
			c0.277,0.22,0.383,0.407,0.887,0.626C141.331,237.039,141.322,237.381,141.307,237.657z M138.752,233.187
			c0.184-0.47,0.121-0.642,0.499-0.938c0.377-0.295,1.233-0.275,1.55,0.01c0.315,0.287,0.336,0.918,0.029,1.174
			c-0.305,0.254-0.132,0.795-0.742,1.049C139.043,234.916,138.227,234.525,138.752,233.187z M137.234,227.452
			c0.046-0.235,0.639-1.193,2.012-1.016c0.617,0.079,0.547,0.966,1.225,1.251c1.094,0.458,2.863,0.366,3.079,0.406
			c0.591,0.109,0.603,0.085,0.591-0.254c-0.012-0.338-0.205-0.373-0.265-0.904c-0.114-1.004,1.217-0.948,1.894-0.41
			c0.411,0.326,0.568,0.603,1.315,0.929c0.749,0.326,0.736,0.833,0.712,1.243s-0.254,0.688-1.062,0.833
			c-0.809,0.145-0.937-1.441-1.467-1.55s-0.141,1.49-0.646,1.742c-1.086,0.545-1.252-0.412-3.066-0.635
			C139.251,228.805,137.107,228.078,137.234,227.452z M145.334,258.375c-0.016,0.24-0.149,0.402-0.623,0.488
			c-0.475,0.085-0.503-0.332-0.814-0.396c-0.311-0.063-0.177,0.291-0.424,0.51c-0.701,0.621-1.525-1.119-0.631-0.955
			c0.347,0.063,0.354,0.049,0.347-0.148c-0.007-0.199-0.12-0.221-0.156-0.531c-0.065-0.59,0.716-0.557,1.112-0.241
			c0.24,0.19,0.333,0.354,0.771,0.545C145.355,257.836,145.348,258.135,145.334,258.375z M148.023,243.647
			c-0.818,0-0.577-0.397-0.813,0.208c-0.144,0.367-0.012,1.174-0.854,0.918c-0.432-0.133-0.666-0.75-1.033-0.261
			c-0.262,0.349-0.958,0.198-1.305,0.083c-0.492-0.164-0.232-1.158-0.242-1.115c0.16-0.711-0.223-0.836,0.652-1.291
			c0.438-0.229,0.035-1.34,0.527-1.322c0.337,0.011,0.576-0.043,0.733,0.286c0.394,0.831-0.063,1.641,0.187,1.819
			c0.227,0.162,0.49-0.367,1.252-0.039c0.188,0.081,0.346-0.822,0.529-0.904C148.82,241.507,148.738,243.647,148.023,243.647z
			 M148.404,214.799c-0.888,2.201-2.91,0.767-2.252,2.362c0.361,0.872,0.771,2.593,0.32,3.503c-0.736,1.48-0.749,1.47-2.189,1.537
			c-1.345,0.063-2.285-0.989-2.285-2.002c0.382-0.422,0.656-3.285,1.641-3.398c1.634-0.188-0.59-2.217,0.117-3.627
			c0.555-1.105,3.17-1.007,4.184-0.525C149,213.154,148.824,213.76,148.404,214.799z M146.625,206.258
			c-0.897,1.885,0.941,2.691-1.48,4.396c-2.422,1.703-3.946,0-4.35-1.167c-0.404-1.167,1.345-2.063,2.242-2.961
			c0.896-0.896-0.494-0.987-1.615-1.301s-2.512-1.255-3.139-1.12c-0.629,0.135,0.268,1.39,0.627,3.004
			c0.358,1.615-0.896,1.257-1.57,2.422c-0.672,1.167,0,2.243-0.807,3.186c-1.189,1.387-5.145,0.414-3.723-3.14
			c0.359-0.897,2.602,0.179,3.051-0.403c0.447-0.584-0.719-1.077-0.719-2.288s0.584-1.031-0.179-2.242s0.179-1.659,0.628-2.825
			c0.447-1.166,1.704-0.314,2.422,0.179c0.717,0.493,0.449-0.269,1.614-0.763c0.716-0.303,4.896-0.326,4.8,3.368
			c-0.014,0.547,2.678-0.134,1.946-3.203c-0.233-0.979-1.188-1.964-1.05-2.586c0.449-2.02,1.435-1.616,2.691-0.897
			c1.255,0.718,1.435,1.615,1.435,4.306S147.611,204.105,146.625,206.258z M149.045,193.471c-0.775,0.16-1.596-0.048-2.257-0.447
			c-1.444-0.873-1.023-2.925-0.532-3.73c0.508-0.832,2.982-2.229,3.995-0.564c0.466,0.766,0.722,1.925,0.832,2.521
			c0.158,0.854,0.569,1.001,1.401,1.119c3.656,0.518-0.236,8.426-2.607,2.521C149.334,193.536,149.651,193.346,149.045,193.471z
			 M153.284,238.106c-0.017,0.269-0.167,0.451-0.696,0.546c-0.531,0.095-0.563-0.373-0.911-0.443
			c-0.348-0.072-0.198,0.324-0.475,0.569c-0.784,0.694-1.704-1.252-0.705-1.068c0.388,0.071,0.396,0.056,0.388-0.167
			c-0.007-0.221-0.134-0.245-0.174-0.593c-0.074-0.659,0.799-0.622,1.244-0.27c0.268,0.214,0.371,0.396,0.861,0.61
			C153.308,237.504,153.299,237.837,153.284,238.106z M155.875,228.311c-0.48,1.187-1.571,0.412-1.215,1.273
			c0.193,0.471,0.416,1.398,0.172,1.89c-0.396,0.8-0.404,0.793-1.182,0.829c-0.726,0.034-1.232-0.533-1.232-1.08
			c0.205-0.227,0.354-1.771,0.886-1.833c0.882-0.101-0.319-1.196,0.062-1.957c0.3-0.597,1.712-0.544,2.259-0.284
			C156.196,227.422,156.102,227.748,155.875,228.311z M160.976,247.887c-0.416,0.009-1.112-0.125-1.04-0.354
			c0.074-0.229,0.261-0.161,0.229-0.379c-0.06-0.417,0.375-0.428,0.589-0.104c0.211,0.277,0.587,0.021,0.633,0.417
			C161.402,247.6,161.389,247.875,160.976,247.887z M161.127,217.824c-1.853,0-1.307-0.899-1.84,0.471
			c-0.323,0.832-0.023,2.658-1.933,2.076c-0.975-0.299-1.505-1.697-2.337-0.589c-0.594,0.79-2.168,0.448-2.955,0.187
			c-1.115-0.369-0.526-2.617-0.547-2.525c0.363-1.609-0.505-1.891,1.475-2.922c0.992-0.516,0.08-3.031,1.193-2.994
			c0.765,0.026,1.309-0.096,1.662,0.65c0.891,1.883-0.146,3.714,0.42,4.117c0.515,0.367,1.112-0.83,2.838-0.086
			c0.424,0.182,0.781-1.861,1.197-2.049C162.933,212.979,162.745,217.824,161.127,217.824z M161.777,207.884
			c-2.949-0.655-3.66-1.421-4.48-0.601c-1.721,1.72-5.123-0.811-6.168-2.353c-2.151-3.177,0.857-5.951,2.891-4.642
			c2.459,1.585,2.281,2.857,4.25,3.348c1.966,0.492,1.869-0.561,3.18-0.561c3.732,0,4.221,1.23,4.066,2.563
			C165.357,207.014,164.459,208.479,161.777,207.884z M162.727,233.832c0.158-0.495,0.563-0.349,0.495-0.821
			c-0.129-0.905,0.814-0.926,1.276-0.226c0.457,0.601,1.272,0.044,1.371,0.904c0.033,0.287,0.005,0.885-0.892,0.908
			C164.078,234.62,162.569,234.327,162.727,233.832z M167.914,241.723c-0.016,0.24-0.148,0.403-0.624,0.488
			c-0.474,0.084-0.503-0.332-0.813-0.396c-0.312-0.063-0.178,0.29-0.426,0.51c-0.699,0.62-1.523-1.12-0.629-0.956
			c0.347,0.063,0.354,0.05,0.347-0.148s-0.12-0.219-0.155-0.53c-0.068-0.589,0.714-0.557,1.111-0.241
			c0.24,0.191,0.332,0.354,0.771,0.546C167.934,241.185,167.928,241.482,167.914,241.723z M170.092,224.058
			c-0.396,0.831-2.305,0.216-2.742-0.279c-0.27-0.305-0.539-0.653-0.99-0.669c-1.309-0.043-1.238-2.682-0.18-2.474
			c1.724,0.339,0.929-1.164,1.973-1.863c0.535-0.356,1.599-0.101,1.653,0.53c0.093,1.07-0.963,1.679-0.538,2.516
			C169.658,222.588,170.482,223.237,170.092,224.058z M170.438,210.952c-0.435-0.565-1.087,0.043-2.086,0.565
			c-0.999,0.521-2.129,0.043-3.173-0.912c-1.042-0.956-0.434-2,0.436-2.826c0.869-0.824,3.954-0.955,4.91-0.303
			c0.955,0.65,0.217,1.693,0.738,1.477c0.365-0.151,2.506,0.05,2.65,1.131c0.094,1.376,0.245,1.285,1.624,1.297
			c1.659-0.07,3.276,4.206,0.288,5.612c-2.211,1.039-3.128-1.091-3.128-2.999c0-0.609-0.392-0.521-1.521-0.739
			C170.047,213.038,170.873,211.518,170.438,210.952z M174.254,251.877c-0.688,0-0.485-0.334-0.682,0.174
			c-0.121,0.309-0.01,0.987-0.719,0.771c-0.361-0.11-0.559-0.63-0.867-0.218c-0.221,0.293-0.806,0.166-1.098,0.069
			c-0.414-0.138-0.195-0.973-0.202-0.938c0.134-0.598-0.188-0.702,0.547-1.085c0.368-0.191,0.03-1.126,0.442-1.111
			c0.284,0.009,0.486-0.036,0.617,0.241c0.331,0.699-0.053,1.38,0.156,1.528c0.191,0.137,0.413-0.309,1.055-0.031
			c0.156,0.066,0.289-0.691,0.443-0.761C174.925,250.078,174.854,251.877,174.254,251.877z M176.115,240.476
			c-0.416,0.011-1.113-0.125-1.039-0.354c0.072-0.229,0.26-0.16,0.228-0.379c-0.059-0.418,0.376-0.428,0.589-0.104
			c0.211,0.277,0.588,0.02,0.633,0.416C176.541,240.188,176.527,240.465,176.115,240.476z M177.936,231.393
			c-0.818,0-0.576-0.396-0.813,0.208c-0.143,0.368-0.01,1.175-0.854,0.917c-0.432-0.133-0.664-0.75-1.033-0.26
			c-0.261,0.349-0.957,0.197-1.305,0.082c-0.492-0.163-0.232-1.156-0.241-1.115c0.159-0.711-0.224-0.836,0.651-1.291
			c0.438-0.229,0.035-1.339,0.527-1.322c0.338,0.012,0.578-0.043,0.734,0.287c0.395,0.831-0.064,1.641,0.186,1.818
			c0.227,0.162,0.491-0.366,1.253-0.038c0.188,0.081,0.345-0.822,0.528-0.905C178.734,229.252,178.65,231.393,177.936,231.393z
			 M175.971,200.694c-1.639,0.108-2.459-1.422-3.387-2.022c-2.839-1.836,0.064-3.738,1.365-4.862c2.42-2.089-3.382-2.443-3.77-2.513
			c-2.132-0.383-0.984-0.93-1.53-1.695c-0.546-0.764-1.749-0.162-2.239,0.438c-0.493,0.601-1.039,2.075-2.896,1.966
			s-2.295-0.874-2.568-2.24c-0.273-1.365,1.312-2.621,2.568-2.621s1.857,0.873,2.567,0.491c0.71-0.383,1.312-1.202,1.585-1.913
			c0.273-0.71,1.803-1.037,3.77-1.037c1.968,0,2.514,0.929,3.496,2.076c0.984,1.147,1.858,2.895,2.023,4.37
			c0.188,1.699,2.454,0.682,3.096,3.053C180.891,197.287,179.494,200.459,175.971,200.694z M185.558,234.414
			c-1.161,0.029-3.106-0.348-2.903-0.987c0.203-0.638,0.727-0.45,0.639-1.06c-0.166-1.166,1.051-1.193,1.646-0.289
			c0.589,0.773,1.641,0.055,1.768,1.164C186.75,233.615,186.713,234.386,185.558,234.414z M191.555,243.053
			c-0.334,0.703-1.949,0.184-2.319-0.236c-0.228-0.258-0.456-0.553-0.839-0.565c-1.107-0.037-1.048-2.271-0.15-2.095
			c1.457,0.288,0.784-0.984,1.668-1.576c0.451-0.303,1.354-0.084,1.399,0.45c0.079,0.904-0.815,1.419-0.455,2.128
			C191.188,241.811,191.885,242.359,191.555,243.053z M61.551,91.507c0.651-0.016,0.672-0.451,0.648-0.661
			c-0.071-0.625-0.665-0.221-0.997-0.656c-0.335-0.51-1.021-0.495-0.927,0.163c0.049,0.344-0.246,0.237-0.36,0.598
			C59.8,91.311,60.896,91.523,61.551,91.507z M59.741,102.146c0.395,0.131,0.35,0.481,0.197,1.006
			c-0.154,0.525-0.044,0.919,0.109,1.247c0.153,0.328,0.962,0.066,1.422,0.219c0.459,0.154,0.109,0.569,0.372,1.16
			c0.262,0.591,0.678,0.109,1.073,0.459c0.393,0.35-0.066,0.219-0.154,0.963c-0.088,0.743,0.985,0.962,1.641,0.918
			c0.657-0.044,0.547-0.416,0.635-0.809c0.087-0.395-0.109-0.657,0.131-1.116c0.241-0.46,0.394,0.065,1.028,0
			c0.635-0.066,0.58-0.252,0.689-0.339c0.109-0.088,0.109-0.395,0.043-0.875c-0.065-0.481-0.284-0.569-0.59-0.788
			c-0.307-0.219-0.94,0.459-1.247,0.438c-0.307-0.021-0.241-0.416-0.066-0.59c0.176-0.176,0.591,0.021,0.919-0.373
			c0.328-0.394-0.065-0.525-0.35-0.985c-0.284-0.459-0.985-0.284-1.356-0.087c-0.372,0.196-0.24,0.722-0.043,1.181
			c0.196,0.459-0.197,0.591-0.744,0.525c-0.547-0.066-0.35-0.35-0.81-0.678c-0.459-0.328-0.328-0.044-0.896-0.242
			c-0.57-0.196-0.154-0.437-0.395-0.831c-0.241-0.394-0.525-0.306-0.7-0.59c-0.176-0.285,0.032-1.006-0.208-1.292
			c-0.237-0.279-1.826-0.544-1.554,0.909C58.954,101.927,59.347,102.015,59.741,102.146z M54.451,115.733
			c1.692,0.212,0.68,2.259,1.324,3.088c1.55,1.998,1.504-0.924,2.81,0.357c0.687,0.673,2.939,0.825,2.271-1.103
			c-0.007-0.002-0.491-0.366-0.665-0.429c-2.069-0.754-2.913-2.811-0.953-3.248c1.233-0.274,0.336-2.518,0.925-2.672
			c0.675-0.177,2.57,0.408,1.853-1.972c-0.009-0.033-1.799-1.228-2.033-1.5c-0.485-0.57-2.435-0.015-1.168,1.394
			c0.813,0.906-0.13,2.01-1.271,0.477c-0.107-0.144-2.381-0.766-1.977,1.222c0.079,0.39,1.348,0.574,1.688,0.693
			c0.568,1.638,0.401,1.989-1.252,1.728C54.423,111.03,52.941,115.543,54.451,115.733z M108.943,114.294
			c1.311,0.935,2.991,0.548,3.1,1.851c0.109,1.3-5.798-0.843-6.354-0.052c-0.722,1.026,0.436,1.527,2.019,1.891
			c0.769-0.114,1.628-0.06,2.567,0.223c6.728,2.021,8.203-0.05,7.924-1.851c-0.426-2.763-1.854-1.741-3.36-1.596
			c-1.803,0.171-2.583-0.813-2.583-1.656c0.002-1.643,1.532-3.248-2.801-1.222C108.244,112.447,107.499,113.264,108.943,114.294z
			 M100.305,132.445c-0.639,1.654-2.21-0.564-1.65-1.125c2.948-2.948-0.09-2.519-2.393-2.495c-1.626,0.632-3.305,1.139-3.325,1.882
			c-0.072,2.567-0.084,3.264,2.153,2.153c3.853-1.912,3.159,2.624,3.597,5.196c0.342,2.004,1.675,1.106,1.892-0.267
			c-0.316-0.736-0.283-1.664,0.499-2.486C103.236,133.036,100.812,131.137,100.305,132.445z M100.314,118.14
			c0.383-0.164,0.736-0.322,1.032-0.24c1.684,0.469,2.287,0.857,1.274-2.121c-0.186-0.548-0.403-0.956-1.292-0.956
			c-1.347,0-3.614,5.074-3.397,2.434c0.36-4.363-3.472-2.982-2.725-0.45c0.175,0.594,2.518,2.303,2.261,2.687
			c-2.026,3.025-0.441,2.745,1.64,2.539c0.727-0.071,0.994,0.522,1.025,1.288c0.029,0.706-1.546,1.636-0.342,2.166
			c1.744-0.378,2.526-2.53,0.89-4.404C100.078,120.394,99.494,118.489,100.314,118.14z M96.035,94.679
			c0.652-0.017,0.672-0.451,0.648-0.661c-0.071-0.625-0.665-0.221-0.997-0.657c-0.335-0.509-1.021-0.494-0.927,0.164
			c0.049,0.344-0.246,0.237-0.36,0.598C94.284,94.482,95.38,94.696,96.035,94.679z M104.853,98.643
			c0.651-0.016,0.672-0.451,0.648-0.661c-0.071-0.625-0.665-0.221-0.997-0.656c-0.335-0.509-1.022-0.495-0.928,0.163
			c0.05,0.344-0.245,0.237-0.359,0.598C103.102,98.447,104.199,98.66,104.853,98.643z M67.389,136.147
			c0.169,0.043,0.996-0.241,1.218-0.322c1.918-0.705-1.875-1.942-2.633-1.402c-1.363,0.97-3.32,0.672-1.99-0.98
			c0.926-1.15,0.227-2.64-0.762-2.69c-2.188-0.113-2.555-0.265-2.555,1.474c0,0.605-0.05,1.322-0.399,1.669
			c1.111,1.818-0.082,4.612,0.945,5.211c2,1.167,2.836-0.963,4.05-1.343c2.27-0.708,2.915,0.607,2.927,2.286
			c0.425-0.074,0.951-0.103,1.598-0.079c0.665,0.027,2.048-0.381,3.034-0.167c-0.256-2.88-2.32-0.733-2.626-1.794
			C69.892,136.955,66.254,136.998,67.389,136.147z M114.032,92.773c0.652-0.016,0.672-0.451,0.648-0.66
			c-0.071-0.626-0.665-0.221-0.997-0.658c-0.335-0.509-1.021-0.494-0.927,0.164c0.049,0.344-0.246,0.237-0.36,0.598
			C112.282,92.577,113.378,92.79,114.032,92.773z M97.677,107.542c1.122-1.509,1.473,0.329,3.101-0.003
			c0.667-0.137,0.791-1.28,0.446-1.663c-0.982-1.092-1.145-0.418-1.638-0.21c-1.354,0.569-1.264-0.366-0.675-1.195
			c0.721-1.017-0.192-2.361-0.627-2.504c-1.296-0.424-0.888,1.088-1.096,1.784c-0.37,1.233-1.275,1.538-2.314,1.07
			c-0.297-0.133-1.354,0.318-0.691,0.977c0.601,0.598,2.608-0.158,1.791,1.308c-0.349,0.625-1.635-0.295-2.188-0.458
			c-0.801-0.236-1.041,0.23-1.041,0.886C92.744,109.36,97.458,107.835,97.677,107.542z M102.171,112.129
			c0.348,0.116,1.042,0.267,1.305-0.083c0.369-0.489,0.603,0.128,1.033,0.26c0.844,0.258,0.71-0.549,0.854-0.917
			c0.235-0.605-0.005-0.208,0.813-0.208c0.715,0,0.798-2.141-0.365-1.62c-0.185,0.083-0.341,0.986-0.529,0.905
			c-0.762-0.329-1.026,0.2-1.253,0.038c-0.25-0.178,0.208-0.988-0.186-1.818c-0.156-0.331-0.396-0.277-0.734-0.288
			c-0.493-0.017-0.089,1.094-0.528,1.322c-0.874,0.456-0.49,0.58-0.651,1.292C101.939,110.973,101.679,111.966,102.171,112.129z
			 M86.912,111.675c-0.897-0.176-0.957,2.058,0.151,2.095c0.383,0.012,0.611,0.308,0.838,0.565c0.371,0.419,1.986,0.939,2.321,0.236
			c0.33-0.694-0.367-1.244-0.697-1.895c-0.36-0.708,0.534-1.224,0.455-2.127c-0.046-0.535-0.948-0.753-1.4-0.45
			C87.697,110.69,88.369,111.963,86.912,111.675z M78.611,99.266c1.155-0.029,1.191-0.8,1.149-1.171
			c-0.127-1.11-1.179-0.393-1.768-1.166c-0.596-0.903-1.812-0.876-1.646,0.29c0.087,0.61-0.436,0.421-0.639,1.06
			C75.504,98.918,77.45,99.294,78.611,99.266z M74.731,128.113c0.39-0.456,0.064-0.978,0.39-1.541
			c0.327-0.564,0.935-0.391,0.76-1.173c-0.173-0.781-0.608-1.389-0.303-1.454c0.303-0.066,0.977,0.39,1.52,0.542
			c0.543,0.153,1.216,0.196,0.781,0.63c-0.434,0.435-1.281,0.869-1.086,1.433c0.196,0.565,0.935,1.391,2.107,0.565
			c1.172-0.825,0.282-1.215,0.716-2.127c0.478-1.042,1.368-0.651,1.368-1.954c0-1.302-0.087-1.736-0.695-2.084
			c-0.608-0.347-1.086-0.543-1.303,0.435c-0.067,0.302,0.395,0.778,0.508,1.252c0.355,1.485-0.949,1.815-0.941,1.55
			c0.045-1.789-1.977-1.776-2.324-1.63c-0.564,0.238-0.435,0.608-0.781,0.369c-0.348-0.239-0.956-0.651-1.173-0.087
			s-0.673,0.781-0.304,1.368c0.369,0.586,0.087,0.5,0.087,1.086c0,0.586,0.563,0.825,0.347,1.107
			c-0.217,0.283-1.303-0.239-1.476,0.195C72.24,128.313,74.155,128.784,74.731,128.113z M74.717,115.049
			c0.904,0.245,1.295-0.562,1.809-0.146c0.513,0.416,0,1.027,0.563,1.615c0.562,0.586,1.394,1.294,2.2,0.953
			c0.807-0.343,1.295-0.904,0.831-1.614c-0.463-0.709-1.784-0.978-1.857-1.735c-0.075-0.759,1.051-0.221,0.782-0.929
			c-0.27-0.709-1.077-1.052-0.855-1.492c0.22-0.44,0.268,0.22,1.124,0.073c0.855-0.146,1.247-0.709,1.051-1.027
			c-0.195-0.317-1.589-0.44-1.539-1.1c0.048-0.661,0.464-0.366,0.758-1.638c0.149-0.65,0.012-0.967-0.205-1.149h-2.143
			c-0.342,0.538-0.098,0.709,0.025,1.515c0.122,0.808-0.073,1.345-0.513,1.614c-0.441,0.27-1.54-0.024-1.59,1.052
			c-0.048,1.076-0.098,1.344-0.929,1.344C72.777,112.385,73.379,114.688,74.717,115.049z M84.507,131.28
			c1.153,0.312,1.653-0.718,2.307-0.187c0.653,0.529,0,1.309,0.716,2.056c0.717,0.749,1.777,1.652,2.805,1.216
			c1.029-0.437,1.652-1.153,1.061-2.058c-0.593-0.904-2.275-1.247-2.369-2.213c-0.093-0.966,1.34-0.279,0.998-1.184
			c-0.344-0.903-1.372-1.34-1.091-1.902c0.281-0.56,0.343,0.281,1.434,0.094c1.09-0.187,1.589-0.904,1.34-1.309
			c-0.25-0.406-2.026-0.562-1.963-1.403c0.062-0.841,0.593-0.468,0.966-2.088c0.374-1.62-0.654-1.621-1.091-1.87
			c-0.436-0.25-1.465-0.281-1.9,0.405c-0.437,0.687-0.125,0.904,0.031,1.933c0.156,1.029-0.094,1.714-0.655,2.057
			c-0.562,0.343-1.963-0.031-2.026,1.34c-0.062,1.372-0.125,1.715-1.184,1.715C82.036,127.883,82.803,130.818,84.507,131.28z
			 M85.676,98.901c0.292,0.177,0.656,0.269,0.998,0.197c0.267-0.056,0.127,0.03,0.367,0.626c1.047,2.608,2.767-0.885,1.152-1.113
			c-0.368-0.053-0.55-0.117-0.62-0.495c-0.048-0.264-0.162-0.776-0.367-1.114c-0.448-0.736-1.542-0.119-1.766,0.249
			C85.224,97.609,85.039,98.515,85.676,98.901z"/>
	</g>
</g>
</svg>
