<?xml version="1.0" encoding="UTF-8"?>
<!DOCTYPE svg PUBLIC "-//W3C//DTD SVG 1.1//EN" "http://www.w3.org/Graphics/SVG/1.1/DTD/svg11.dtd">
<!-- Creator: CorelDRAW -->
<svg xmlns="http://www.w3.org/2000/svg" xml:space="preserve" width="187px" height="148px" version="1.1" shape-rendering="geometricPrecision" text-rendering="geometricPrecision" image-rendering="optimizeQuality" fill-rule="evenodd" clip-rule="evenodd"
viewBox="0 0 186.999 147.486"
 xmlns:xlink="http://www.w3.org/1999/xlink"
 xmlns:xodm="http://www.corel.com/coreldraw/odm/2003">
 <defs>
   <clipPath id="id0">
    <path d="M69.622 5.532c-9.32,-0.113 -15.317,-0.1 -21.532,-0.475 -6.215,-0.375 -12.649,-1.137 -18.001,-2.044 -5.351,-0.908 -9.62,-1.96 -13.89,-3.013l-2.056 6.766c-2.101,6.05 -3.233,10.386 -4.916,16.285 -0.249,0.873 -0.435,1.453 -0.642,2.333 -2.36,10.025 -4.55,19.989 -6.162,30.214 -0.554,3.516 -0.787,7.435 -1.226,10.942l-0.435 5.757c-0.045,1.83 -0.234,3.899 -0.37,5.626 -0.078,0.987 0.009,2.192 -0.003,3.205 -0.013,1.158 -0.208,1.511 -0.203,2.794 0.009,2.038 0.069,4.202 0.011,6.226 -0.028,1.013 -0.181,1.575 -0.197,2.723l0.192 9.099c-0.03,8.303 0.172,15.985 0.183,24.267 0.002,1.267 0.207,1.666 0.202,2.996 -0.004,0.925 -0.065,2.104 0.005,3.001 0.131,1.645 0.218,4.048 0.519,5.469 1.056,4.985 5.703,6.849 10.073,7.859 3.312,0.766 6.714,1.111 10.138,1.576 4.01,0.545 19.376,0.399 23.493,-0.086 6.45,-0.761 15.507,-0.276 22.162,-1.971 7.272,-1.853 6.398,-2.822 7.435,-7.425 0.87,-3.869 2.219,-13.998 3.169,-16.919 0.807,-2.484 1.721,-7.868 2.195,-10.524 0.344,-1.99 1.133,-3.678 1.718,-5.612 1.344,-4.441 1.694,-7.626 2.92,-12.169 0.377,-1.398 0.722,-2.38 1.102,-3.854 0.997,-3.864 2.19,-8.249 2.968,-12.117 0.575,-2.856 1.095,-5.36 1.653,-8.289l2.191 -12.734c0.189,-0.998 0.23,-2.248 1.182,-2.596 0.952,0.348 0.993,1.598 1.182,2.596l2.191 12.734c0.558,2.929 1.077,5.433 1.652,8.289 0.779,3.868 1.972,8.253 2.968,12.117 0.38,1.474 0.725,2.456 1.103,3.854 1.226,4.543 1.576,7.728 2.919,12.169 0.585,1.934 1.375,3.622 1.719,5.612 0.473,2.654 1.389,8.042 2.195,10.524 0.949,2.921 2.299,13.05 3.169,16.919 1.037,4.603 0.163,5.572 7.434,7.425 6.656,1.695 15.712,1.21 22.163,1.971 4.117,0.485 19.483,0.631 23.492,0.086 3.425,-0.465 6.827,-0.81 10.138,-1.576 4.371,-1.01 9.018,-2.874 10.074,-7.859 0.301,-1.421 0.388,-3.824 0.519,-5.469 0.07,-0.897 0.009,-2.076 0.005,-3.001 -0.005,-1.33 0.2,-1.729 0.202,-2.996 0.011,-8.282 0.213,-15.964 0.183,-24.267l0.191 -8.764 -0.196 -3.058c-0.058,-2.024 0.002,-4.188 0.011,-6.226 0.004,-1.283 -0.19,-1.636 -0.204,-2.794 -0.011,-1.013 0.076,-2.218 -0.002,-3.205 -0.136,-1.727 -0.325,-3.796 -0.37,-5.626l-0.436 -5.757c-0.439,-3.507 -0.671,-7.426 -1.225,-10.942 -1.612,-10.225 -3.802,-20.189 -6.162,-30.214 -0.207,-0.88 -0.394,-1.46 -0.643,-2.333 -1.682,-5.899 -2.814,-10.235 -4.915,-16.285l-2.057 -6.766c-2.951,0.866 -5.902,1.731 -9.677,2.477 -3.774,0.745 -8.371,1.369 -13.806,1.869 -5.434,0.5 -11.706,0.875 -19.026,1.15 -7.321,0.274 -15.692,0.449 -26.199,0.418 -10.507,-0.031 -23.15,-0.269 -32.47,-0.382z"/>
   </clipPath>
    <clipPath id="id1">
     <path d="M69.622 5.532c-9.32,-0.113 -15.317,-0.1 -21.532,-0.475 -6.215,-0.375 -12.649,-1.137 -18.001,-2.044 -5.351,-0.908 -9.62,-1.96 -13.89,-3.013l-2.056 6.766c-2.101,6.05 -3.233,10.386 -4.916,16.285 -0.249,0.873 -0.435,1.453 -0.642,2.333 -2.36,10.025 -4.55,19.989 -6.162,30.214 -0.554,3.516 -0.787,7.435 -1.226,10.942l-0.435 5.757c-0.045,1.83 -0.234,3.899 -0.37,5.626 -0.078,0.987 0.009,2.192 -0.003,3.205 -0.013,1.158 -0.208,1.511 -0.203,2.794 0.009,2.038 0.069,4.202 0.011,6.226 -0.028,1.013 -0.181,1.575 -0.197,2.723l0.192 9.099c-0.03,8.303 0.172,15.985 0.183,24.267 0.002,1.267 0.207,1.666 0.202,2.996 -0.004,0.925 -0.065,2.104 0.005,3.001 0.131,1.645 0.218,4.048 0.519,5.469 1.056,4.985 5.703,6.849 10.073,7.859 3.312,0.766 6.714,1.111 10.138,1.576 4.01,0.545 19.376,0.399 23.493,-0.086 6.45,-0.761 15.507,-0.276 22.162,-1.971 7.272,-1.853 6.398,-2.822 7.435,-7.425 0.87,-3.869 2.219,-13.998 3.169,-16.919 0.807,-2.484 1.721,-7.868 2.195,-10.524 0.344,-1.99 1.133,-3.678 1.718,-5.612 1.344,-4.441 1.694,-7.626 2.92,-12.169 0.377,-1.398 0.722,-2.38 1.102,-3.854 0.997,-3.864 2.19,-8.249 2.968,-12.117 0.575,-2.856 1.095,-5.36 1.653,-8.289l2.191 -12.734c0.189,-0.998 0.23,-2.248 1.182,-2.596 0,-15.663 0,-31.326 0,-46.989l-1.415 -0.015 -0.288 -0.004 -0.504 -0.005 -0.132 -0.002 -3.306 -0.041 -0.515 -0.007 -2.349 -0.031 -0.409 -0.006 -0.104 -0.001 -0.906 -0.013 -0.54 -0.008 -0.439 -0.006 -0.04 -0.001 -0.639 -0.009 -0.309 -0.004 -0.507 -0.008 -0.448 -0.006 -0.023 -0.001 -0.521 -0.007 -0.23 -0.004 -1.099 -0.016 -0.133 -0.002 -2.031 -0.029 -0.158 -0.002 -0.514 -0.008 -0.306 -0.004 -1.22 -0.017 -0.056 -0.001 -0.433 -0.006 -0.55 -0.008 -0.216 -0.003 -0.465 -0.006 -0.408 -0.006 -0.805 -0.01 -0.458 -0.006 -0.103 -0.002 -0.641 -0.008 -0.658 -0.008z"/>
    </clipPath>
    <clipPath id="id2">
     <path d="M69.622 5.532c-9.32,-0.113 -15.317,-0.1 -21.532,-0.475 -6.215,-0.375 -12.649,-1.137 -18.001,-2.044 -5.351,-0.908 -9.62,-1.96 -13.89,-3.013l-2.056 6.766c-2.101,6.05 -3.233,10.386 -4.916,16.285 -0.249,0.873 -0.435,1.453 -0.642,2.333 -2.36,10.025 -4.55,19.989 -6.162,30.214 -0.554,3.516 -0.787,7.435 -1.226,10.942l-0.435 5.757c-0.045,1.83 -0.234,3.899 -0.37,5.626 -0.078,0.987 0.009,2.192 -0.003,3.205 -0.013,1.158 -0.208,1.511 -0.203,2.794 0.009,2.038 0.069,4.202 0.011,6.226 -0.028,1.013 -0.181,1.575 -0.197,2.723l0.192 9.099c-0.03,8.303 0.172,15.985 0.183,24.267 0.002,1.267 0.207,1.666 0.202,2.996 -0.004,0.925 -0.065,2.104 0.005,3.001 0.131,1.645 0.218,4.048 0.519,5.469 1.056,4.985 5.703,6.849 10.073,7.859 3.312,0.766 6.714,1.111 10.138,1.576 4.01,0.545 19.376,0.399 23.493,-0.086 6.45,-0.761 15.507,-0.276 22.162,-1.971 7.272,-1.853 6.398,-2.822 7.435,-7.425 0.87,-3.869 2.219,-13.998 3.169,-16.919 0.807,-2.484 1.721,-7.868 2.195,-10.524 0.344,-1.99 1.133,-3.678 1.718,-5.612 1.344,-4.441 1.694,-7.626 2.92,-12.169 0.377,-1.398 0.722,-2.38 1.102,-3.854 0.997,-3.864 2.19,-8.249 2.968,-12.117 0.575,-2.856 1.095,-5.36 1.653,-8.289l2.191 -12.734c0.189,-0.998 0.23,-2.248 1.182,-2.596 0.952,0.348 0.993,1.598 1.182,2.596l2.191 12.734c0.558,2.929 1.077,5.433 1.652,8.289 0.779,3.868 1.972,8.253 2.968,12.117 0.38,1.474 0.725,2.456 1.103,3.854 1.226,4.543 1.576,7.728 2.919,12.169 0.585,1.934 1.375,3.622 1.719,5.612 0.473,2.654 1.389,8.042 2.195,10.524 0.949,2.921 2.299,13.05 3.169,16.919 1.037,4.603 0.163,5.572 7.434,7.425 6.656,1.695 15.712,1.21 22.163,1.971 4.117,0.485 19.483,0.631 23.492,0.086 3.425,-0.465 6.827,-0.81 10.138,-1.576 4.371,-1.01 9.018,-2.874 10.074,-7.859 0.301,-1.421 0.388,-3.824 0.519,-5.469 0.07,-0.897 0.009,-2.076 0.005,-3.001 -0.005,-1.33 0.2,-1.729 0.202,-2.996 0.011,-8.282 0.213,-15.964 0.183,-24.267l0.191 -8.764 -0.196 -3.058c-0.058,-2.024 0.002,-4.188 0.011,-6.226 0.004,-1.283 -0.19,-1.636 -0.204,-2.794 -0.011,-1.013 0.076,-2.218 -0.002,-3.205 -0.136,-1.727 -0.325,-3.796 -0.37,-5.626l-0.436 -5.757c-0.439,-3.507 -0.671,-7.426 -1.225,-10.942 -1.612,-10.225 -3.802,-20.189 -6.162,-30.214 -0.207,-0.88 -0.394,-1.46 -0.643,-2.333 -1.682,-5.899 -2.814,-10.235 -4.915,-16.285l-2.057 -6.766c-2.951,0.866 -5.902,1.731 -9.677,2.477 -3.774,0.745 -8.371,1.369 -13.806,1.869 -5.434,0.5 -11.706,0.875 -19.026,1.15 -7.321,0.274 -15.692,0.449 -26.199,0.418 -10.507,-0.031 -23.15,-0.269 -32.47,-0.382z"/>
    </clipPath>
    <clipPath id="id3">
     <path d="M128.291 5.496c-7.321,0.274 -15.692,0.449 -26.199,0.418l-1.616 -0.006 -0.217 -0.001 -0.215 -0.001 -0.066 -0.001 -0.625 -0.003 -0.854 -0.006 -1.14 -0.008 -0.045 0 -0.617 -0.005 -0.252 -0.002 -0.921 -0.008 -0.253 -0.003 -0.219 -0.002 -0.286 -0.002 -0.091 -0.001 -0.283 -0.003 -0.892 -0.009c0,15.663 0,31.326 0,46.989 0.952,0.348 0.993,1.598 1.182,2.596l2.191 12.734c0.558,2.929 1.077,5.433 1.652,8.289 0.779,3.868 1.972,8.253 2.968,12.117 0.38,1.474 0.725,2.456 1.103,3.854 1.226,4.543 1.576,7.728 2.919,12.169 0.585,1.934 1.375,3.622 1.719,5.612 0.473,2.654 1.389,8.042 2.195,10.524 0.949,2.921 2.299,13.05 3.169,16.919 1.037,4.603 0.163,5.572 7.434,7.425 6.656,1.695 15.712,1.21 22.163,1.971 4.117,0.485 19.483,0.631 23.492,0.086 3.425,-0.465 6.827,-0.81 10.138,-1.576 4.371,-1.01 9.018,-2.874 10.074,-7.859 0.301,-1.421 0.388,-3.824 0.519,-5.469 0.07,-0.897 0.009,-2.076 0.005,-3.001 -0.005,-1.33 0.2,-1.729 0.202,-2.996 0.011,-8.282 0.213,-15.964 0.183,-24.267l0.191 -8.764 -0.196 -3.058c-0.058,-2.024 0.002,-4.188 0.011,-6.226 0.004,-1.283 -0.19,-1.636 -0.204,-2.794 -0.011,-1.013 0.076,-2.218 -0.002,-3.205 -0.136,-1.727 -0.325,-3.796 -0.37,-5.626l-0.436 -5.757c-0.439,-3.507 -0.671,-7.426 -1.225,-10.942 -1.612,-10.225 -3.802,-20.189 -6.162,-30.214 -0.207,-0.88 -0.394,-1.46 -0.643,-2.333 -1.682,-5.899 -2.814,-10.235 -4.915,-16.285l-2.057 -6.766c-2.951,0.866 -5.902,1.731 -9.677,2.477 -3.774,0.745 -8.371,1.369 -13.806,1.869 -5.434,0.5 -11.706,0.875 -19.026,1.15z"/>
    </clipPath>
    <clipPath id="id4">
     <path d="M69.622 5.532c-9.32,-0.113 -15.317,-0.1 -21.532,-0.475 -6.215,-0.375 -12.649,-1.137 -18.001,-2.044 -5.351,-0.908 -9.62,-1.96 -13.89,-3.013l-2.056 6.766c-2.101,6.05 -3.233,10.386 -4.916,16.285 -0.249,0.873 -0.435,1.453 -0.642,2.333 -2.36,10.025 -4.55,19.989 -6.162,30.214 -0.554,3.516 -0.787,7.435 -1.226,10.942l-0.435 5.757c-0.045,1.83 -0.234,3.899 -0.37,5.626 -0.078,0.987 0.009,2.192 -0.003,3.205 -0.013,1.158 -0.208,1.511 -0.203,2.794 0.009,2.038 0.069,4.202 0.011,6.226 -0.028,1.013 -0.181,1.575 -0.197,2.723l0.192 9.099c-0.03,8.303 0.172,15.985 0.183,24.267 0.002,1.267 0.207,1.666 0.202,2.996 -0.004,0.925 -0.065,2.104 0.005,3.001 0.131,1.645 0.218,4.048 0.519,5.469 1.056,4.985 5.703,6.849 10.073,7.859 3.312,0.766 6.714,1.111 10.138,1.576 4.01,0.545 19.376,0.399 23.493,-0.086 6.45,-0.761 15.507,-0.276 22.162,-1.971 7.272,-1.853 6.398,-2.822 7.435,-7.425 0.87,-3.869 2.219,-13.998 3.169,-16.919 0.807,-2.484 1.721,-7.868 2.195,-10.524 0.344,-1.99 1.133,-3.678 1.718,-5.612 1.344,-4.441 1.694,-7.626 2.92,-12.169 0.377,-1.398 0.722,-2.38 1.102,-3.854 0.997,-3.864 2.19,-8.249 2.968,-12.117 0.575,-2.856 1.095,-5.36 1.653,-8.289l2.191 -12.734c0.189,-0.998 0.23,-2.248 1.182,-2.596 0.952,0.348 0.993,1.598 1.182,2.596l2.191 12.734c0.558,2.929 1.077,5.433 1.652,8.289 0.779,3.868 1.972,8.253 2.968,12.117 0.38,1.474 0.725,2.456 1.103,3.854 1.226,4.543 1.576,7.728 2.919,12.169 0.585,1.934 1.375,3.622 1.719,5.612 0.473,2.654 1.389,8.042 2.195,10.524 0.949,2.921 2.299,13.05 3.169,16.919 1.037,4.603 0.163,5.572 7.434,7.425 6.656,1.695 15.712,1.21 22.163,1.971 4.117,0.485 19.483,0.631 23.492,0.086 3.425,-0.465 6.827,-0.81 10.138,-1.576 4.371,-1.01 9.018,-2.874 10.074,-7.859 0.301,-1.421 0.388,-3.824 0.519,-5.469 0.07,-0.897 0.009,-2.076 0.005,-3.001 -0.005,-1.33 0.2,-1.729 0.202,-2.996 0.011,-8.282 0.213,-15.964 0.183,-24.267l0.191 -8.764 -0.196 -3.058c-0.058,-2.024 0.002,-4.188 0.011,-6.226 0.004,-1.283 -0.19,-1.636 -0.204,-2.794 -0.011,-1.013 0.076,-2.218 -0.002,-3.205 -0.136,-1.727 -0.325,-3.796 -0.37,-5.626l-0.436 -5.757c-0.439,-3.507 -0.671,-7.426 -1.225,-10.942 -1.612,-10.225 -3.802,-20.189 -6.162,-30.214 -0.207,-0.88 -0.394,-1.46 -0.643,-2.333 -1.682,-5.899 -2.814,-10.235 -4.915,-16.285l-2.057 -6.766c-2.951,0.866 -5.902,1.731 -9.677,2.477 -3.774,0.745 -8.371,1.369 -13.806,1.869 -5.434,0.5 -11.706,0.875 -19.026,1.15 -7.321,0.274 -15.692,0.449 -26.199,0.418 -10.507,-0.031 -23.15,-0.269 -32.47,-0.382z"/>
    </clipPath>
     <linearGradient id="id5" gradientUnits="userSpaceOnUse" x1="191.751" y1="58.771" x2="192.953" y2="11.067">
      <stop offset="0" stop-opacity="1" stop-color="red"/>
      <stop offset="1" stop-opacity="0" stop-color="red"/>
     </linearGradient>
     <linearGradient id="id6" gradientUnits="userSpaceOnUse" x1="-4.067" y1="59.079" x2="-6.074" y2="11.401">
      <stop offset="0" stop-opacity="1" stop-color="red"/>
      <stop offset="1" stop-opacity="0" stop-color="red"/>
     </linearGradient>
 </defs>
 <g id="VETORES">
  <metadata id="CorelCorpID_0Corel-Layer"/>
  <g>
  </g>
  <g clip-path="url(#id0)">
   <g id="_1976307751792">
    <g>
    </g>
   </g>
   <g clip-path="url(#id1)">
   </g>
   <g clip-path="url(#id2)">
    <path id="perna-esquerda" fill="none" d="M69.622 5.532c-9.32,-0.113 -15.317,-0.1 -21.532,-0.475 -6.215,-0.375 -12.649,-1.137 -18.001,-2.044 -5.351,-0.908 -9.62,-1.96 -13.89,-3.013l-2.056 6.766c-2.101,6.05 -3.233,10.386 -4.916,16.285 -0.249,0.873 -0.435,1.453 -0.642,2.333 -2.36,10.025 -4.55,19.989 -6.162,30.214 -0.554,3.516 -0.787,7.435 -1.226,10.942l-0.435 5.757c-0.045,1.83 -0.234,3.899 -0.37,5.626 -0.078,0.987 0.009,2.192 -0.003,3.205 -0.013,1.158 -0.208,1.511 -0.203,2.794 0.009,2.038 0.069,4.202 0.011,6.226 -0.028,1.013 -0.181,1.575 -0.197,2.723l0.192 9.099c-0.03,8.303 0.172,15.985 0.183,24.267 0.002,1.267 0.207,1.666 0.202,2.996 -0.004,0.925 -0.065,2.104 0.005,3.001 0.131,1.645 0.218,4.048 0.519,5.469 1.056,4.985 5.703,6.849 10.073,7.859 3.312,0.766 6.714,1.111 10.138,1.576 4.01,0.545 19.376,0.399 23.493,-0.086 6.45,-0.761 15.507,-0.276 22.162,-1.971 7.272,-1.853 6.398,-2.822 7.435,-7.425 0.87,-3.869 2.219,-13.998 3.169,-16.919 0.807,-2.484 1.721,-7.868 2.195,-10.524 0.344,-1.99 1.133,-3.678 1.718,-5.612 1.344,-4.441 1.694,-7.626 2.92,-12.169 0.377,-1.398 0.722,-2.38 1.102,-3.854 0.997,-3.864 2.19,-8.249 2.968,-12.117 0.575,-2.856 1.095,-5.36 1.653,-8.289l2.191 -12.734c0.189,-0.998 0.23,-2.248 1.182,-2.596 0,-15.663 0,-31.326 0,-46.989 -8.306,-0.086 -16.998,-0.238 -23.878,-0.321z"/>
    <g>
    </g>
   </g>
   <g clip-path="url(#id3)">
   </g>
   <g clip-path="url(#id4)">
    <path id="perna-direita" fill="none" d="M128.291 5.496c-7.321,0.274 -15.692,0.449 -26.199,0.418 -2.75,-0.008 -5.647,-0.031 -8.592,-0.061 0,15.663 0,31.326 0,46.989 0.952,0.348 0.993,1.598 1.182,2.596l2.191 12.734c0.558,2.929 1.077,5.433 1.652,8.289 0.779,3.868 1.972,8.253 2.968,12.117 0.38,1.474 0.725,2.456 1.103,3.854 1.226,4.543 1.576,7.728 2.919,12.169 0.585,1.934 1.375,3.622 1.719,5.612 0.473,2.654 1.389,8.042 2.195,10.524 0.949,2.921 2.299,13.05 3.169,16.919 1.037,4.603 0.163,5.572 7.434,7.425 6.656,1.695 15.712,1.21 22.163,1.971 4.117,0.485 19.483,0.631 23.492,0.086 3.425,-0.465 6.827,-0.81 10.138,-1.576 4.371,-1.01 9.018,-2.874 10.074,-7.859 0.301,-1.421 0.388,-3.824 0.519,-5.469 0.07,-0.897 0.009,-2.076 0.005,-3.001 -0.005,-1.33 0.2,-1.729 0.202,-2.996 0.011,-8.282 0.213,-15.964 0.183,-24.267l0.191 -8.764 -0.196 -3.058c-0.058,-2.024 0.002,-4.188 0.011,-6.226 0.004,-1.283 -0.19,-1.636 -0.204,-2.794 -0.011,-1.013 0.076,-2.218 -0.002,-3.205 -0.136,-1.727 -0.325,-3.796 -0.37,-5.626l-0.436 -5.757c-0.439,-3.507 -0.671,-7.426 -1.225,-10.942 -1.612,-10.225 -3.802,-20.189 -6.162,-30.214 -0.207,-0.88 -0.394,-1.46 -0.643,-2.333 -1.682,-5.899 -2.814,-10.235 -4.915,-16.285l-2.057 -6.766c-2.951,0.866 -5.902,1.731 -9.677,2.477 -3.774,0.745 -8.371,1.369 -13.806,1.869 -5.434,0.5 -11.706,0.875 -19.026,1.15z"/>
    <path fill="url(#id5)" d="M180.972 145.216l0.001 -0.04c0.389,-10.148 0.778,-20.298 0.878,-31.401 0.049,-5.469 0.025,-11.234 -0.131,-17.234 -0.154,-5.902 -0.439,-11.94 -0.914,-18.009 -0.468,-5.984 -1.118,-11.976 -1.898,-17.725 -0.807,-5.953 -1.759,-11.681 -2.798,-16.902 -1.021,-5.135 -2.118,-9.741 -3.295,-14.002 -1.189,-4.304 -2.459,-8.275 -3.818,-12.096 -2.695,-7.579 -5.861,-14.866 -9.026,-22.152l6.411 -2.763c3.155,7.262 6.311,14.525 9.18,22.593 1.423,4.002 2.745,8.13 3.97,12.564 1.236,4.476 2.375,9.249 3.419,14.498 1.062,5.34 2.039,11.216 2.869,17.341 0.803,5.921 1.469,12.044 1.944,18.108 0.484,6.192 0.775,12.349 0.931,18.365 0.154,5.917 0.176,11.795 0.125,17.481 -0.1,11.188 -0.491,21.391 -0.883,31.592l0 0.012 -6.965 -0.23z"/>
    <path fill="url(#id6)" d="M8.17 145.33l-0.001 -0.041c-0.561,-10.14 -1.122,-20.282 -1.409,-31.381 -0.141,-5.467 -0.215,-11.232 -0.16,-17.234 0.054,-5.903 0.237,-11.946 0.61,-18.022 0.367,-5.992 0.915,-11.993 1.598,-17.754 0.707,-5.966 1.562,-11.709 2.513,-16.947 0.934,-5.152 1.953,-9.775 3.058,-14.056 1.116,-4.323 2.319,-8.315 3.613,-12.159 2.567,-7.623 5.609,-14.963 8.651,-22.301l-6.457 -2.655c-3.032,7.315 -6.064,14.63 -8.797,22.745 -1.355,4.025 -2.607,8.176 -3.757,12.63 -1.16,4.496 -2.219,9.288 -3.174,14.553 -0.972,5.357 -1.849,11.249 -2.576,17.387 -0.703,5.933 -1.266,12.068 -1.638,18.139 -0.38,6.199 -0.566,12.36 -0.621,18.378 -0.054,5.918 0.023,11.796 0.17,17.48 0.289,11.185 0.853,21.38 1.416,31.573l0.001 0.012 6.96 -0.347z"/>
   </g>
  </g>
  <path fill="none" d="M69.622 5.532c-9.32,-0.113 -15.317,-0.1 -21.532,-0.475 -6.215,-0.375 -12.649,-1.137 -18.001,-2.044 -5.351,-0.908 -9.62,-1.96 -13.89,-3.013l-2.056 6.766c-2.101,6.05 -3.233,10.386 -4.916,16.285 -0.249,0.873 -0.435,1.453 -0.642,2.333 -2.36,10.025 -4.55,19.989 -6.162,30.214 -0.554,3.516 -0.787,7.435 -1.226,10.942l-0.435 5.757c-0.045,1.83 -0.234,3.899 -0.37,5.626 -0.078,0.987 0.009,2.192 -0.003,3.205 -0.013,1.158 -0.208,1.511 -0.203,2.794 0.009,2.038 0.069,4.202 0.011,6.226 -0.028,1.013 -0.181,1.575 -0.197,2.723l0.192 9.099c-0.03,8.303 0.172,15.985 0.183,24.267 0.002,1.267 0.207,1.666 0.202,2.996 -0.004,0.925 -0.065,2.104 0.005,3.001 0.131,1.645 0.218,4.048 0.519,5.469 1.056,4.985 5.703,6.849 10.073,7.859 3.312,0.766 6.714,1.111 10.138,1.576 4.01,0.545 19.376,0.399 23.493,-0.086 6.45,-0.761 15.507,-0.276 22.162,-1.971 7.272,-1.853 6.398,-2.822 7.435,-7.425 0.87,-3.869 2.219,-13.998 3.169,-16.919 0.807,-2.484 1.721,-7.868 2.195,-10.524 0.344,-1.99 1.133,-3.678 1.718,-5.612 1.344,-4.441 1.694,-7.626 2.92,-12.169 0.377,-1.398 0.722,-2.38 1.102,-3.854 0.997,-3.864 2.19,-8.249 2.968,-12.117 0.575,-2.856 1.095,-5.36 1.653,-8.289l2.191 -12.734c0.189,-0.998 0.23,-2.248 1.182,-2.596 0.952,0.348 0.993,1.598 1.182,2.596l2.191 12.734c0.558,2.929 1.077,5.433 1.652,8.289 0.779,3.868 1.972,8.253 2.968,12.117 0.38,1.474 0.725,2.456 1.103,3.854 1.226,4.543 1.576,7.728 2.919,12.169 0.585,1.934 1.375,3.622 1.719,5.612 0.473,2.654 1.389,8.042 2.195,10.524 0.949,2.921 2.299,13.05 3.169,16.919 1.037,4.603 0.163,5.572 7.434,7.425 6.656,1.695 15.712,1.21 22.163,1.971 4.117,0.485 19.483,0.631 23.492,0.086 3.425,-0.465 6.827,-0.81 10.138,-1.576 4.371,-1.01 9.018,-2.874 10.074,-7.859 0.301,-1.421 0.388,-3.824 0.519,-5.469 0.07,-0.897 0.009,-2.076 0.005,-3.001 -0.005,-1.33 0.2,-1.729 0.202,-2.996 0.011,-8.282 0.213,-15.964 0.183,-24.267l0.191 -8.764 -0.196 -3.058c-0.058,-2.024 0.002,-4.188 0.011,-6.226 0.004,-1.283 -0.19,-1.636 -0.204,-2.794 -0.011,-1.013 0.076,-2.218 -0.002,-3.205 -0.136,-1.727 -0.325,-3.796 -0.37,-5.626l-0.436 -5.757c-0.439,-3.507 -0.671,-7.426 -1.225,-10.942 -1.612,-10.225 -3.802,-20.189 -6.162,-30.214 -0.207,-0.88 -0.394,-1.46 -0.643,-2.333 -1.682,-5.899 -2.814,-10.235 -4.915,-16.285l-2.057 -6.766c-2.951,0.866 -5.902,1.731 -9.677,2.477 -3.774,0.745 -8.371,1.369 -13.806,1.869 -5.434,0.5 -11.706,0.875 -19.026,1.15 -7.321,0.274 -15.692,0.449 -26.199,0.418 -10.507,-0.031 -23.15,-0.269 -32.47,-0.382z"/>
 </g>
</svg>
