<?xml version="1.0" encoding="UTF-8"?>
<!DOCTYPE svg PUBLIC "-//W3C//DTD SVG 1.1//EN" "http://www.w3.org/Graphics/SVG/1.1/DTD/svg11.dtd">
<!-- Creator: CorelDRAW -->
<svg xmlns="http://www.w3.org/2000/svg" xml:space="preserve" width="240px" height="296px" version="1.1" shape-rendering="geometricPrecision" text-rendering="geometricPrecision" image-rendering="optimizeQuality" fill-rule="evenodd" clip-rule="evenodd"
viewBox="0 0 240 296.307"
 xmlns:xlink="http://www.w3.org/1999/xlink"
 xmlns:xodm="http://www.corel.com/coreldraw/odm/2003">
 <defs>
   <clipPath id="id0">
    <path d="M136.796 295.988c2.461,-0.097 4.626,-0.225 7.017,-0.355 2.39,-0.131 5.006,-0.265 8.261,-0.493 3.256,-0.228 7.151,-0.55 10.471,-0.852 3.319,-0.302 6.061,-0.583 8.794,-0.949 2.732,-0.365 5.455,-0.814 7.654,-1.25 2.2,-0.436 3.876,-0.858 6.001,-1.331 2.126,-0.473 4.701,-0.996 6.595,-1.321 1.894,-0.325 3.108,-0.453 4.268,-0.536 1.16,-0.084 2.267,-0.124 3.155,-0.117 0.889,0.008 1.559,0.063 1.956,0.094 0.396,0.031 0.518,0.038 0.611,0.043 0.049,0.002 0.09,0.004 0.127,0.006 0.093,-0.07 0.162,-0.18 0.177,-0.779 0.016,-0.673 -0.037,-1.966 -0.106,-2.786 -0.069,-0.819 -0.154,-1.166 -0.285,-1.855 -0.131,-0.689 -0.307,-1.72 -0.651,-2.686 -0.345,-0.965 -0.858,-1.866 -1.476,-3.045 -0.619,-1.179 -1.343,-2.638 -1.783,-3.616 -0.44,-0.978 -0.596,-1.476 -0.848,-2.693 -0.251,-1.217 -0.598,-3.153 -0.953,-5.871 -0.354,-2.718 -0.716,-6.219 -1.038,-8.884 -0.322,-2.666 -0.603,-4.496 -1.081,-7.559 -0.478,-3.062 -1.152,-7.357 -1.71,-11.521 -0.558,-4.164 -1.001,-8.198 -1.348,-12.226 -0.347,-4.028 -0.598,-8.051 -0.759,-11.637 -0.161,-3.586 -0.231,-6.734 -0.287,-9.787 -0.055,-3.052 -0.095,-6.01 -0.156,-9.258 -0.06,-3.249 -0.14,-6.79 -0.108,-12.037 0.033,-5.248 0.179,-12.203 0.352,-17.466 0.174,-5.263 0.375,-8.834 0.652,-12.807 0.276,-3.973 0.628,-8.348 0.975,-12.271 0.347,-3.922 0.689,-7.393 1.122,-11.743 0.432,-4.35 0.955,-9.58 1.483,-13.99 0.528,-4.411 1.061,-8.002 1.512,-10.619 0.45,-2.618 0.817,-4.262 1.139,-5.308 0.321,-1.046 0.598,-1.494 0.803,-1.766 0.205,-0.271 0.338,-0.367 0.405,-0.414 0.066,-0.048 0.066,-0.048 0.049,0.598 -0.018,0.646 -0.053,1.939 -0.108,3.533 -0.056,1.594 -0.131,3.49 -0.173,4.967 -0.041,1.478 -0.049,2.536 -0.079,3.186 -0.03,0.65 -0.083,0.892 -0.102,1.011 -0.018,0.119 -0.003,0.117 -0.041,0.151 -0.038,0.034 -0.128,0.104 -0.133,0.68 -0.005,0.576 0.075,1.657 0.192,3.051 0.117,1.395 0.27,3.102 0.322,4.786 0.051,1.683 0.001,3.343 0.002,4.231 0,0.887 0.052,1.003 0.132,1.078 0.08,0.076 0.188,0.111 1.001,0.06 0.814,-0.051 2.333,-0.188 4.105,-0.324 1.773,-0.137 3.8,-0.273 5.955,-0.431 2.155,-0.158 4.438,-0.339 6.588,-0.463 2.15,-0.123 4.166,-0.188 5.992,-0.299 1.826,-0.111 3.46,-0.267 5.336,-0.47 1.876,-0.204 3.993,-0.455 6.015,-0.682 2.021,-0.226 3.947,-0.427 5.109,-0.565 1.162,-0.139 1.559,-0.214 1.758,-0.327 0.199,-0.113 0.199,-0.264 0.229,-0.906 0.03,-0.641 0.09,-1.772 0.108,-3.132 0.017,-1.361 -0.008,-2.95 -0.023,-4.429 -0.015,-1.478 -0.02,-2.846 -0.038,-3.724 -0.017,-0.877 -0.047,-1.264 -0.071,-1.469 -0.025,-0.205 -0.043,-0.227 -0.083,-0.294 -0.04,-0.068 -0.103,-0.181 -0.174,-0.682 -0.071,-0.5 -0.152,-1.388 -0.255,-2.32 -0.103,-0.933 -0.229,-1.911 -0.348,-2.739 -0.12,-0.827 -0.233,-1.504 -0.413,-2.544 -0.179,-1.042 -0.426,-2.447 -0.613,-3.449 -0.187,-1.002 -0.316,-1.601 -0.436,-2.27 -0.121,-0.668 -0.234,-1.408 -0.366,-2.121 -0.132,-0.713 -0.283,-1.399 -0.425,-2.156 -0.142,-0.757 -0.275,-1.584 -0.375,-2.322 -0.099,-0.738 -0.165,-1.387 -0.239,-2.029 -0.074,-0.643 -0.157,-1.279 -0.257,-2.036 -0.101,-0.757 -0.219,-1.634 -0.34,-2.526 -0.121,-0.891 -0.244,-1.796 -0.353,-2.565 -0.11,-0.768 -0.205,-1.399 -0.373,-2.344 -0.168,-0.945 -0.408,-2.203 -0.82,-4.085 -0.412,-1.881 -0.995,-4.386 -1.704,-6.89 -0.709,-2.505 -1.544,-5.009 -2.651,-7.745 -1.106,-2.736 -2.484,-5.703 -4.093,-8.851 -1.61,-3.149 -3.45,-6.478 -4.878,-8.781 -1.429,-2.304 -2.444,-3.581 -3.453,-4.629 -1.008,-1.049 -2.009,-1.869 -3.015,-2.608 -1.006,-0.739 -2.017,-1.398 -2.582,-1.773 -0.566,-0.375 -0.687,-0.465 -0.756,-0.571 -0.069,-0.105 -0.087,-0.226 -0.095,-0.303 -0.009,-0.077 -0.009,-0.109 -0.07,-0.174 -0.06,-0.066 -0.181,-0.164 -1.307,-0.714 -1.127,-0.551 -3.259,-1.555 -5.31,-2.603 -2.05,-1.048 -4.019,-2.142 -5.77,-2.976 -1.752,-0.833 -3.286,-1.407 -5.061,-1.957 -1.775,-0.551 -3.792,-1.079 -5.429,-1.507 -1.637,-0.427 -2.894,-0.754 -3.762,-1.008 -0.867,-0.254 -1.345,-0.435 -2.044,-0.7 -0.699,-0.266 -1.619,-0.615 -2.606,-0.909 -0.987,-0.295 -2.041,-0.533 -2.716,-0.687 -0.675,-0.153 -0.972,-0.221 -1.44,-0.471 -0.467,-0.25 -1.106,-0.683 -1.581,-0.937 -0.475,-0.254 -0.787,-0.329 -1.073,-0.365 -0.285,-0.035 -0.544,-0.03 -0.777,-0.03 -0.232,0 -0.438,-0.005 -1.342,-0.33 -0.904,-0.326 -2.506,-0.972 -4.026,-1.577 -1.52,-0.605 -2.959,-1.168 -4.404,-1.748 -1.446,-0.579 -2.9,-1.175 -3.816,-1.569 -0.917,-0.393 -1.297,-0.584 -1.594,-0.779 -0.298,-0.194 -0.514,-0.392 -0.705,-0.497 -0.191,-0.105 -0.356,-0.116 -0.467,-0.117 -0.11,0 -0.164,0.01 -0.251,-0.004 -0.086,-0.014 -0.204,-0.052 -0.587,-0.292 -0.382,-0.24 -1.028,-0.682 -1.678,-1.193 -0.65,-0.51 -1.304,-1.089 -1.956,-1.661 -0.653,-0.572 -1.304,-1.138 -2.311,-1.569 -1.007,-0.431 -2.37,-0.728 -3.723,-0.919 -1.353,-0.191 -2.695,-0.276 -4.576,-0.354 -1.881,-0.078 -4.3,-0.149 -7.931,-0.131 -3.631,0.017 -8.474,0.123 -12.914,0.219 -4.439,0.096 -8.475,0.183 -10.597,0.231 -2.123,0.048 -2.332,0.058 -4.152,0.203 -1.82,0.145 -5.249,0.427 -7.404,0.671 -2.155,0.244 -3.035,0.45 -3.752,0.707 -0.717,0.256 -1.27,0.563 -1.886,1.078 -0.616,0.516 -1.295,1.24 -2.019,1.877 -0.725,0.638 -1.494,1.189 -1.953,1.46 -0.459,0.272 -0.607,0.264 -0.901,0.366 -0.295,0.102 -0.735,0.313 -1.268,0.582 -0.533,0.269 -1.159,0.596 -1.919,0.922 -0.761,0.325 -1.656,0.65 -2.301,0.904 -0.645,0.254 -1.04,0.437 -1.514,0.628 -0.474,0.192 -1.027,0.39 -1.765,0.621 -0.738,0.232 -1.661,0.496 -2.558,0.836 -0.896,0.341 -1.766,0.759 -2.573,1.076 -0.808,0.316 -1.552,0.533 -2.299,0.749 -0.746,0.216 -1.496,0.432 -2.053,0.655 -0.557,0.222 -0.921,0.451 -1.207,0.636 -0.285,0.185 -0.491,0.326 -0.999,0.476 -0.508,0.15 -1.318,0.31 -1.914,0.463 -0.596,0.154 -0.978,0.301 -1.488,0.492 -0.51,0.192 -1.147,0.429 -1.75,0.617 -0.603,0.189 -1.171,0.329 -1.687,0.459 -0.516,0.13 -0.98,0.248 -1.7,0.426 -0.719,0.179 -1.693,0.418 -2.551,0.633 -0.857,0.216 -1.598,0.408 -2.171,0.57 -0.573,0.161 -0.979,0.292 -1.436,0.426 -0.456,0.134 -0.963,0.271 -1.427,0.4 -0.465,0.129 -0.887,0.249 -1.312,0.377 -0.424,0.128 -0.85,0.262 -1.203,0.399 -0.353,0.137 -0.632,0.277 -1.012,0.437 -0.38,0.159 -0.862,0.339 -1.279,0.53 -0.417,0.191 -0.769,0.394 -1.165,0.602 -0.397,0.209 -0.838,0.424 -1.221,0.617 -0.382,0.194 -0.705,0.366 -1.126,0.589 -0.421,0.223 -0.941,0.495 -1.657,0.865 -0.717,0.371 -1.631,0.838 -2.694,1.37 -1.063,0.532 -2.275,1.128 -3.18,1.576 -0.905,0.448 -1.504,0.747 -2.037,1.087 -0.533,0.341 -1.001,0.723 -1.443,1.08 -0.443,0.358 -0.86,0.689 -1.353,1.079 -0.493,0.39 -1.061,0.837 -1.779,1.475 -0.718,0.637 -1.586,1.465 -2.375,2.331 -0.79,0.866 -1.501,1.771 -2.145,2.665 -0.644,0.894 -1.22,1.777 -1.924,2.935 -0.704,1.158 -1.536,2.591 -2.208,3.821 -0.671,1.229 -1.181,2.255 -1.732,3.264 -0.551,1.008 -1.141,1.999 -1.644,2.942 -0.503,0.943 -0.918,1.838 -1.313,2.759 -0.395,0.922 -0.77,1.87 -1.152,2.756 -0.382,0.887 -0.772,1.712 -1.285,3.043 -0.513,1.331 -1.149,3.17 -1.716,4.911 -0.567,1.741 -1.065,3.386 -1.49,4.836 -0.425,1.451 -0.777,2.709 -1.129,4.225 -0.352,1.516 -0.704,3.291 -1.144,5.668 -0.44,2.376 -0.968,5.353 -1.29,7.073 -0.322,1.72 -0.438,2.183 -0.543,2.673 -0.106,0.491 -0.201,1.009 -0.4,1.833 -0.198,0.825 -0.5,1.957 -0.807,3.143 -0.307,1.187 -0.618,2.43 -0.84,3.478 -0.221,1.049 -0.352,1.904 -0.575,3.166 -0.224,1.262 -0.541,2.932 -0.787,4.297 -0.247,1.366 -0.423,2.427 -0.529,2.975 -0.105,0.548 -0.14,0.583 -0.204,0.634 -0.063,0.05 -0.155,0.115 -0.251,2.246 -0.096,2.13 -0.197,6.326 -0.275,8.622 -0.078,2.297 -0.133,2.694 0.035,2.902 0.169,0.209 0.561,0.229 1.419,0.337 0.857,0.108 2.18,0.305 4.51,0.755 2.332,0.45 5.671,1.154 8.339,1.667 2.668,0.513 4.664,0.835 6.751,1.182 2.088,0.347 4.265,0.719 7.24,1.192 2.975,0.472 6.746,1.046 9.15,1.373 2.404,0.327 3.44,0.407 3.958,0.447 0.518,0.041 0.518,0.041 0.568,-0.543 0.049,-0.583 0.149,-1.75 0.263,-2.759 0.114,-1.009 0.242,-1.86 0.394,-2.937 0.152,-1.077 0.328,-2.379 0.498,-3.576 0.17,-1.197 0.333,-2.289 0.417,-2.902 0.085,-0.614 0.089,-0.749 0.076,-0.865 -0.014,-0.116 -0.047,-0.211 -0.023,-1.818 0.024,-1.607 0.104,-4.725 0.147,-7.257 0.043,-2.532 0.048,-4.478 0.059,-5.601 0.011,-1.123 0.029,-1.422 0.067,-1.618 0.038,-0.197 0.095,-0.29 0.176,-0.338 0.08,-0.05 0.184,-0.055 0.308,0.038 0.124,0.094 0.27,0.285 0.345,0.376 0.074,0.092 0.076,0.085 0.078,0.081 0.001,-0.004 0.001,-0.004 0.115,0.253 0.114,0.256 0.343,0.769 0.597,1.463 0.254,0.694 0.533,1.569 0.762,2.507 0.229,0.938 0.408,1.939 0.607,3.547 0.2,1.608 0.422,3.823 0.739,6.228 0.316,2.406 0.729,5.001 1.468,11.393 0.739,6.392 1.805,16.58 2.64,24.511 0.835,7.931 1.439,13.604 1.811,19.699 0.372,6.095 0.513,12.613 0.503,19.654 -0.01,7.04 -0.171,14.604 -0.372,20.609 -0.202,6.004 -0.443,10.45 -0.725,14.423 -0.281,3.973 -0.603,7.473 -1.448,14.162 -0.845,6.688 -2.213,16.566 -3.007,23.777 -0.795,7.212 -1.016,11.758 -1.217,15.269 -0.202,3.51 -0.383,5.984 -0.674,8.122 -0.292,2.137 -0.694,3.937 -0.973,5.315 -0.279,1.378 -0.436,2.334 -0.453,2.935 -0.018,0.601 0.103,0.847 0.249,0.975 0.146,0.129 0.317,0.138 0.5,0.175 0.184,0.036 0.38,0.099 0.469,0.155 0.019,0.011 0.032,0.022 0.042,0.037 0.876,0.322 1.753,0.645 3.155,0.925 1.401,0.28 3.329,0.518 6.493,0.754 3.163,0.237 7.562,0.472 11.099,0.609 3.537,0.138 6.212,0.178 9.592,0.181 3.38,0.003 7.463,-0.03 11.329,-0.007 3.866,0.024 7.513,0.104 10.591,0.191 3.078,0.088 5.586,0.181 7.916,0.252 2.33,0.07 4.483,0.117 6.789,0.171 2.307,0.053 4.768,0.114 7.356,0.121 2.589,0.006 5.304,-0.041 8.04,-0.098 2.736,-0.057 5.492,-0.124 7.953,-0.221z"/>
   </clipPath>
 </defs>
 <g id="VETORES">
  <metadata id="CorelCorpID_0Corel-Layer"/>
  <g>
  </g>
  <g clip-path="url(#id0)">
   <g id="_2034197415856">
    <path id="_1" fill="black" fill-rule="nonzero" d="M202.367 25.72c-1.131,-1.021 0.741,0.451 0.961,0.651l2.983 2.723c0.341,0.37 0.341,0.43 -0.31,-0.201l3.223 3.234c0.08,-0.221 0.16,-0.451 0.24,-0.671l0 0c0,0 0.03,-0.07 0.04,-0.11 -2.673,-2.827 -5.398,-5.447 -8.638,-7.868 -3.353,-2.506 -3.564,-2.835 -7.347,-4.074l0.05 0.05 -0.401 -0.17c4.135,2.444 5.692,3.746 9.199,6.426l0 0.01zm-3.774 -3.013c0.14,0.09 1.472,1.051 1.962,1.392 2.183,1.761 -3.803,-2.663 -1.962,-1.392zm-110.113 69.919c0,0.11 0.03,0.14 0,0zm4.254 8.628c0.06,0.171 0.11,0.31 0.17,0.481 -0.029,-0.11 -0.09,-0.261 -0.17,-0.481zm117.691 -72.321c0.03,-0.07 0.05,-0.14 0.08,-0.2l-2.763 -2.663 1.812 1.832 -2.052 -1.951 2.923 2.982zm-0.781 -0.88c-0.471,-0.471 -0.801,-0.801 -0.801,-0.831l0.801 0.831zm-7.357 5.785l-1.561 -1.451c-6.466,-5.736 -13.843,-10.44 -23.352,-13.423 -6.246,-1.962 -13.193,-2.923 -19.609,-2.833 -0.4,0 0.311,-0.03 0.771,-0.06 -5.297,-0.414 -13.678,1.088 -18.797,2.893 0.11,0.03 1.111,-0.311 -0.621,0.31 -5.627,1.998 -8.731,3.225 -14.023,6.606l4.925 -2.933c-8.579,4.291 -15.807,10.47 -21.671,18.248 1.651,-2.179 6.606,-7.765 8.378,-9.108 -0.364,1.027 -19.581,15.583 -20.65,43.953 -0.06,0.941 -0.03,-0.09 -0.06,-0.341 -0.09,4.205 -0.06,5.926 0.37,10.16 0.23,2.212 -0.821,-5.335 0.11,2.102 -0.06,-0.45 -0.14,-0.94 -0.23,-1.391 0.817,6.905 1.977,10.301 4.454,16.596 -2.124,-5.21 -3.94,-12.348 -4.114,-15.095l0.09 0.341c0.45,2.642 0.991,5.105 1.792,7.827 2.336,8.021 6.358,16.265 12.121,22.983 2.598,3.027 3.015,3.264 5.986,5.985 2.353,2.153 -0.68,-0.48 -1.251,-0.99l-1.361 -1.282 6.046 5.366c1.901,1.501 -0.261,-0.431 2.272,1.531 2.072,1.622 7.006,4.374 9.108,5.365 2.893,1.332 4.314,1.983 0.651,0.371l-6.837 -3.624c2.838,1.984 9.204,4.973 12.652,6.136 3.664,1.252 6.246,1.962 9.989,2.613 2.412,0.4 -0.43,-0.2 -1.021,-0.34 -0.34,-0.061 -0.71,-0.141 -1.131,-0.261 2.092,0.549 7.138,1.078 9.709,1.342 -2.042,-0.11 -3.373,-0.17 -4.033,-0.281 3.714,0.59 8.028,0.558 11.751,0.25 -1.842,0.111 -3.784,0.171 -5.596,0.111 -0.14,0 -0.14,-0.09 0,-0.09 5.718,-0.055 10.269,-0.367 15.665,-1.652 1.902,-0.451 -0.96,0.34 -0.88,0.34 1.051,-0.11 5.645,-1.471 6.976,-1.962 4.845,-1.772 8.688,-3.523 12.702,-6.106 0,-0.04 0,-0.07 0.01,-0.11l-3.574 1.942c0.801,-0.451 2.243,-1.271 3.594,-2.092 0.07,-0.711 0.15,-1.432 0.22,-2.172 -18.373,12.625 -44.081,13.465 -63.459,2.312 -15.646,-9.004 -27.274,-24.487 -30.099,-42.532l1.361 5.736c0.541,1.962 1.022,3.684 1.732,5.305 -2.612,-7.726 -2.382,-8.147 -3.744,-16.066 -0.23,-1.621 -0.26,-6.636 -0.14,-8.708 0.171,-3.574 0.651,-7.147 1.422,-10.611l-0.681 4.715c1.69,-11.768 6.867,-23.035 14.844,-31.661 4.801,-5.191 8.926,-8.349 15.054,-11.902 -3.393,2.052 -6.186,3.934 -9.299,6.597 -0.48,0.43 -0.541,0.48 0.11,-0.06l3.093 -2.413c1.131,-0.79 1.792,-1.251 0.28,-0.17 -3.34,2.356 -7.922,6.766 -7.917,6.757 -4.715,5.041 -8.432,10.306 -11.461,16.936l1.702 -3.143c-4.615,9.183 -7.237,18.765 -6.897,29.29 0.222,6.879 1.06,13.881 3.744,20.2l-0.361 -1.201 1.381 3.613c5.1,11.187 11.579,19.38 21.941,26.446 1.932,1.331 4.054,2.663 6.126,3.714 0.37,0.2 0.51,0.23 0.31,0.09 5.165,2.662 10.55,4.544 16.176,5.585 1.501,0.26 1.872,0.31 0.37,0.03 -3.083,-0.601 -6.346,-1.461 -9.379,-2.573 7.755,2.663 15.365,3.777 23.312,3.424 0.651,-0.03 0.881,-0.06 0.4,0 -3.359,0.47 -12.246,-0.38 -15.684,-1.161 -0.11,-0.03 -0.171,-0.03 -0.171,-0.03 7.201,1.477 13.878,1.796 20.901,0.711l-3.734 0.4c5.642,-0.613 8.368,-1.124 15.474,-3.374l-2.202 0.781c5.42,-1.647 10.519,-4.064 15.545,-7.457 0,0 0,-0.02 0,-0.02 -0.16,0.1 -0.331,0.21 -0.521,0.32 0.19,-0.12 0.35,-0.231 0.521,-0.341l0.12 -1.13c-4.955,3.403 -10.42,6.066 -16.155,7.837 -12.061,3.714 -25.254,3.494 -37.165,-0.68 -4.589,-1.757 -8.226,-3.318 -12.452,-6.077l-6.616 -4.964 -1.331 -1.111c-5.993,-5.298 -10.215,-11.386 -13.783,-18.438 -0.431,-0.911 -0.821,-1.792 -0.791,-1.762 -6.534,-14.769 -6.707,-32.14 -0.4,-47.016l-0.64 1.761c4.151,-10.516 9.447,-17.682 17.666,-24.654l-3.974 3.723c1.792,-1.731 3.173,-3.033 5.025,-4.484 1.01,-0.801 0.931,-0.721 0.74,-0.571 2.187,-1.672 5.932,-4.222 8.879,-5.695l-1.742 1.031c4.934,-2.793 9.999,-4.825 15.845,-6.166l-3.093 0.821 7.267 -1.592c14.732,-2.214 29.172,0.916 41.709,9.049 5.019,3.256 10.217,7.965 14.193,13.023 0.25,0.27 0.421,0.471 0.581,0.65 0,-0.029 0.01,-0.069 0.02,-0.1 -0.721,-0.981 -1.371,-1.791 -2.492,-3.133 0.62,0.711 0.51,0.571 0.09,0.06l-2.663 -2.952c1.952,1.992 3.554,3.873 5.115,5.805 0.03,-0.16 0.06,-0.31 0.09,-0.46 -0.961,-1.241 -1.982,-2.452 -3.143,-3.724 1.171,1.271 2.172,2.402 3.163,3.634 0.01,-0.06 0.02,-0.121 0.04,-0.18 -17.275,-22.432 -48.958,-29.834 -74.56,-17.208 11.979,-5.989 24.568,-7.892 37.855,-5.465 14.548,2.656 27.653,10.517 36.825,22.161 0,-0.019 0,-0.05 0.01,-0.069l0.02 -0.131c0.16,-0.7 0.321,-1.361 0.481,-1.971l-4.754 -5.135zm-103.677 52.802l-0.11 -0.991 0.17 1.302 -0.06 -0.311zm63.73 52.572l0 0zm-39.728 -12.983l-0.68 -0.51c0.2,0.139 0.44,0.33 0.68,0.51zm-23.262 -35.104c-0.06,-0.351 -0.11,-0.591 -0.139,-0.741 0.55,2.773 1.341,5.715 2.322,8.568 -0.921,-2.723 -1.522,-4.645 -2.183,-7.827zm-0.16 -0.882c0,0 0,-0.049 0,0zm7.277 -42.111l0 0zm5.055 -7.257c1.97,-2.319 4.357,-5.205 6.896,-7.237 -2.382,2.132 -4.884,4.715 -6.896,7.237zm86.591 -7.637c0.711,0.6 3.633,3.172 3.714,3.493 -6.091,-5.851 -3.998,-3.493 -3.714,-3.493zm-68.004 -7.828c0.11,-0.09 1.932,-0.991 1.732,-0.881 -0.231,0.14 -1.792,0.911 -1.732,0.881zm4.194 -2.072l2.302 -0.911 -4.795 2.072 2.493 -1.161zm-5.365 2.612c0.621,-0.36 1.251,-0.7 1.892,-1.051 -0.64,0.341 -1.281,0.681 -1.892,1.051zm66.623 6.977c-11.748,-9.382 -27.954,-14.572 -42.67,-12.652 -1.252,0.06 -3.094,0.23 -5.416,0.68 -3.062,0.601 -5.165,1.222 -8.167,2.213l-3.624 1.451c-1.561,0.691 -2.922,1.302 -2.512,1.091 -8.075,3.962 -16.17,10.199 -21.44,17.497l2.893 -3.373c-9.203,10.773 -14.145,22.56 -14.724,36.826 -0.06,1.021 -0.06,0.4 -0.03,-0.51l0.02 -1.932c-0.26,3.063 -0.23,6.126 0.06,9.249 2.2,24.157 18.214,44.386 41.199,51.52 9.759,3.034 20.289,3.324 29.368,1.422 4.535,-0.96 10.581,-3.051 14.724,-5.165 2.512,-1.282 4.904,-2.693 7.296,-4.385 0.03,-0.33 0.07,-0.66 0.101,-0.991 -5.617,3.93 -9.369,5.954 -16.046,8.198 -17.399,5.85 -37.654,2.477 -52.409,-8.518 -19.549,-14.568 -27.994,-39.329 -21.36,-62.762 7.913,-27.949 35.667,-45.859 64.63,-41.431 15.585,2.383 28.998,10.823 38.336,23.373 0,-0.02 0,-0.04 0.01,-0.06 -2.066,-2.855 -3.638,-4.472 -6.005,-7.057 1.782,1.783 4.323,4.562 6.005,6.997 0.02,-0.1 0.03,-0.21 0.05,-0.32 -3.718,-4.642 -5.861,-7.28 -10.44,-10.961l-3.093 -2.383c5.271,3.719 9.576,7.841 13.543,13.274 0.03,-0.18 0.06,-0.371 0.1,-0.541 -2.952,-3.964 -6.436,-7.568 -10.399,-10.741l0 -0.009zm-61.598 99.168l0.34 0.2 -1.761 -0.821 1.421 0.621zm75.301 -104.223l1.111 1.171c0,0 0,-0.03 0.009,-0.04 -0.4,-0.42 -0.79,-0.811 -1.131,-1.141l0.011 0.01zm-15.035 43.333l-1.361 -5.365c-0.401,-1.362 -2.102,-4.685 -2.893,-5.986 -2.182,-3.664 -4.934,-6.727 -8.257,-9.45 0,0 0.029,0 0.029,-0.03 1.792,1.402 3.904,3.534 5.425,5.336 -6.515,-8.624 -18.377,-13.756 -29.477,-13.474 -17.829,0.454 -31.92,13.279 -35.073,30.22l1.191 -4.995c0.51,-1.621 0.77,-2.152 0.71,-2.102 -0.495,0.581 -1.722,5.506 -1.982,6.867l-0.54 6.126c-0.06,2.723 0.4,6.246 1.021,8.709l-0.711 -2.773c1.574,9.916 7.129,18.456 15.044,24.414 8.684,6.536 20.944,8.223 31.33,5.385 4.002,-1.093 8.672,-3.541 11.851,-5.925 3.263,-2.443 5.815,-5.105 8.228,-8.539l-1.622 2.102 1.992 -2.813c1.302,-2.182 -0.4,0.431 -0.2,-0.14l-1.301 1.872 2.863 -4.564c0.09,-0.2 1.762,-3.834 1.051,-2.472 -0.231,0.43 -0.681,1.361 -1.622,2.923l0.711 -1.902c-0.851,1.592 -0.941,1.531 -1.191,1.872 -0.941,1.221 -1.792,2.523 -2.953,3.944 0.871,-1.101 1.562,-2.202 2.192,-3.303 -1.445,2.454 -3.255,4.788 -5.505,6.987 0.651,-0.711 -0.741,0.65 -0.821,0.821l-2.302 1.872c-6.326,4.764 -13.623,7.237 -21.36,7.237l-0.09 -0.06c0.821,-0.061 -1.641,-0.111 -1.842,-0.111 -3.297,-0.177 -7.786,-1.086 -10.98,-2.272 -2.132,-0.851 -4.113,-1.842 -5.985,-3.033l4.064 2.132c-5.909,-3.063 -9.763,-5.86 -13.864,-11.602 1.902,2.723 3.864,4.735 5.195,5.876 0.451,0.431 0.601,0.62 0.261,0.31 -6.919,-5.962 -11.828,-15.964 -12.002,-24.934 0,-0.541 0.03,0.06 0.06,0.2 -0.06,-1.502 -0.09,-3.944 0.171,-5.706 0.17,-1.251 -0.231,3.003 0.26,-1.161 -0.03,0.26 -0.06,0.511 -0.06,0.791 0.677,-3.878 0.95,-5.436 2.442,-9.309 -1.351,3.264 -1.726,4.998 -2.432,8.228 1,-6.922 4.288,-13.42 9.158,-18.558 -0.11,-0.311 2.923,-3.063 2.443,-2.523l-1.762 1.812c0.941,-0.991 2.132,-2.132 3.063,-2.813 0,0 0.851,-0.541 0.71,-0.651l5.846 -3.634 -3.033 1.792c-0.31,0.2 -0.451,0.31 -0.31,0.26 1.762,-1.161 3.974,-2.242 5.956,-3.003 1.474,-0.682 4.996,-1.537 6.726,-1.872 0.941,-0.17 0.711,-0.17 -1.282,0.11 2.273,-0.48 3.323,-0.62 5.476,-0.68 -1.161,0.11 -1.902,0.2 -2.272,0.26l6.986 -0.12 -3.533 -0.14c-0.594,-0.01 4.168,-0.338 8.798,0.871 1.362,0.371 -1.641,-0.28 -0.06,0.11 4.995,1.251 8.848,3.033 13.303,6.267 -2.302,-1.792 -4.484,-3.004 -5.075,-3.344 -0.28,-0.17 -0.2,-0.14 0.451,0.2 1.331,0.681 3.883,2.383 5.165,3.404l1.311 1.191c-0.601,-0.601 -0.28,-0.371 0.2,0.06l2.953 2.953 -3.153 -2.984c1.641,1.622 1.902,1.672 3.944,4.114l-0.371 -0.54c3.269,3.664 4.456,6.158 6.386,10.501l-1.021 -2.583 0.901 1.932c-0.681,-1.872 -1.531,-3.694 -2.492,-5.366 -0.571,-0.96 -0.911,-1.471 -0.481,-0.821 1.932,3.063 3.403,7.068 3.403,7.068l-0.09 -0.511 0.14 0.281c-0.14,-0.431 -0.31,-0.961 -0.11,-0.541 -1.001,-2.613 -2.112,-4.805 -3.553,-7.007 2.737,4.148 4.124,8.145 4.124,8.138 -0.06,-0.681 -1.562,-4.034 -2.272,-5.395 -0.881,-1.672 -2.133,-3.574 -3.343,-5.106 2.262,2.263 4.806,7.502 6.065,11.381 0.26,0.791 0.14,0.111 0.17,0.171l0.911 3.123 -0.041 -0.01zm3.174 -10.871l1.591 3.714c-1.111,-3.153 -2.492,-5.926 -4.344,-8.739 0.571,1.021 -0.911,-1.191 -0.991,-1.331 -0.711,-1.021 -1.471,-1.982 -0.74,-1.111l-1.422 -1.792c0.17,0.23 -0.48,-0.541 -0.51,-0.541 -1.812,-1.901 -3.603,-3.913 -6.587,-6.126 -26.351,-19.665 -64.208,-3.611 -68.324,28.869 -2.862,22.412 12.061,43.102 33.932,47.587 17.663,3.607 35.203,-3.992 44.972,-19.239l1.312 -2.483 -2.113 3.563 1.792 -2.862c-1.145,2.14 -2.829,4.504 -4.554,6.566 1.014,-1.211 5.064,-6.824 5.064,-7.978 -3.049,5.823 -7.044,10.538 -12.091,14.325 3.373,-2.603 6.346,-5.666 8.848,-9.139 1.361,-1.882 2.412,-3.604 3.313,-5.386 0.726,-1.698 1.238,-2.13 1.141,-3.153 -6.507,15.527 -21.816,26.207 -38.836,26.046l-4.344 -0.11c-2.952,-0.303 -9.512,-1.963 -12.402,-3.183 -6.282,-2.652 -12.352,-7.377 -16.566,-12.653l0.711 0.971c-5.813,-6.51 -9.231,-16.048 -9.839,-24.373l0.07 0.34c-0.601,-9.7 1.251,-17.787 6.586,-26.276 9.41,-14.923 27.653,-22.052 44.552,-18.448 1.732,0.371 2.322,0.4 4.374,1.132 7.103,2.559 12.964,6.094 18.448,12.281 6.249,7.052 7.991,14.448 7.316,11.301 1.131,2.473 1.872,5.196 2.492,7.918 0.481,2.072 -0.11,-1.111 0.281,0.651l-0.03 -0.03c0.41,1.902 0.62,3.564 0.75,5.315 0,-5.442 -1.833,-10.618 -3.864,-15.625l0.012 -0.001zm-7.087 47.327c0.33,-0.35 0.64,-0.701 0.941,-1.051 -0.761,0.901 -1.542,1.751 -2.302,2.492l1.361 -1.451 0 0.01zm-6.436 5.485c-0.341,0.25 -0.701,0.51 -1.091,0.781l1.091 -0.781zm-42.79 -72.931c-0.231,0.11 -0.711,0.31 -1.282,0.6l1.272 -0.6 0.01 0zm50.557 11.891l0 0zm-83.588 -10.47c-0.231,0.28 -0.431,0.601 -0.681,0.941 0.26,-0.341 0.481,-0.651 0.681,-0.941zm73.348 119.828c0.481,-0.141 1.021,-0.281 1.592,-0.451 -0.541,0.17 -1.081,0.31 -1.592,0.451zm-81.886 -147.005l-2.213 2.072c2.069,-2.205 7.394,-6.663 10.07,-8.599l5.135 -3.463c-10.878,6.856 -17.441,13.141 -25.084,23.634 -16.744,22.985 -20.783,54.732 -10.59,81.549 9.606,25.275 30.345,44.886 56.112,52.713l1.451 0.45c-5.62,-1.722 -10.682,-3.486 -15.694,-6.156 -2.472,-1.331 0.43,0.31 2.862,1.451 7.949,3.651 15.226,5.926 23.923,7.177 8.712,1.254 14.74,1.236 23.352,0.341l-6.776 0.71c9.517,-0.405 18.815,-2.374 27.726,-5.806 0.02,-0.52 0.05,-1.031 0.07,-1.531 -8.724,3.372 -18.306,5.399 -27.546,5.775 -1.982,0.091 -7.437,0.11 -9.479,-0.11 -1.281,-0.11 0.11,0 0.481,0 -5.065,-0.464 -8.709,-0.756 -13.783,-1.951 -2.973,-0.701 7.206,1.531 -2.813,-0.791l1.902 0.43c-6.232,-1.547 -11.988,-3.61 -17.767,-6.356 5.647,2.766 11.694,4.896 15.695,5.956 -2.634,-0.495 -8.093,-2.481 -10.89,-3.634 -9.465,-3.901 -16.834,-8.829 -24.603,-15.745 -3.038,-2.704 -9.179,-9.054 -12.232,-13.363l2.663 3.253c-1.472,-1.782 -4.315,-5.806 -5.215,-7.227 -0.171,-0.261 -1.592,-2.783 -1.702,-2.613l-5.105 -10.02 -2.042 -5.195c-1.361,-4.144 -1.982,-6.186 -0.26,-0.961 0.68,2.132 2.612,6.977 3.633,8.939 -2.521,-5.925 -3.384,-7.765 -5.225,-14.505 -1.646,-6.028 -2.223,-10.662 -2.723,-16.796 -0.23,-3.323 -0.029,0.651 0,1.472 0.031,0.48 0.031,1.021 0.111,1.621 -0.619,-4.132 -0.419,-9.557 -0.2,-13.483 -0.091,2.833 -0.141,4.624 -0.091,5.565 0,-6.079 0.515,-10.258 1.411,-16.096l-1.171 7.638c0.541,-6.757 2.473,-15.095 4.715,-21.111 1.191,-3.203 -1.302,3.914 0.09,0.11 4.243,-11.672 10.281,-21.36 18.868,-30.58 -3.528,3.613 -6.552,7.455 -9.389,11.492 -0.48,0.711 -0.341,0.48 0.62,-1.021 2.753,-4.034 7.177,-9.189 10.75,-12.683l-0.54 0.651 2.673 -2.502c-2.382,2.042 0.57,-0.681 1.131,-1.162 2.162,-1.781 4.184,-3.503 6.406,-5.064l-7.548 6.226c3.464,-3.033 6.727,-5.736 11.261,-8.629l-1.101 0.6c3.421,-2.488 8.863,-5.34 12.702,-7.036 -1.117,0 -1.051,0.051 -2.342,0.67 0.48,-0.23 0.941,-0.44 1.371,-0.64 -0.17,0 -0.34,0 -0.51,0.01 -2.272,1.051 -4.645,2.262 -6.486,3.303l6.436 -3.303c-1.278,0 -7.256,3.634 -9.108,4.724 1.971,-1.361 5.875,-3.453 8.537,-4.724 -0.33,0 -0.66,0.01 -0.99,0.02 -3.363,1.652 -6.747,3.554 -9.589,5.405 -3.834,2.493 -8.028,5.756 -11.381,8.879l0.031 0.02zm-23.833 24.995c-7.613,16.419 -10.621,34.632 -7.977,52.542 1.131,7.666 2.984,14.718 5.935,21.871 2.693,6.126 5.225,11.011 9.049,16.657l-1.451 -2.303c-0.601,-0.96 -1.252,-2.042 -1.812,-2.952 -0.991,-1.812 -1.562,-2.863 -0.2,-0.431 3.305,5.976 8.958,12.993 8.958,12.993 6.491,7.756 14.291,14.524 23.572,20.09l-4.504 -2.983c17.569,11.577 35.231,16.218 55.912,15.665 6.572,-0.175 12.135,-1.256 18.017,-2.662l-2.122 0.44 10.54 -3.072 0.02 -0.831 -3.773 1.281c-23.773,7.487 -49.827,4.735 -71.558,-7.377 1.982,1.05 2.893,1.591 4.825,2.442 -10.071,-4.988 -17.321,-10.14 -24.493,-17.257 -4.545,-4.515 -8.568,-9.389 -12.232,-14.925 -0.57,-0.88 -0.71,-1.131 -0.57,-0.941 1.641,2.643 3.403,5.055 5.475,7.638 -4.473,-5.771 -8.822,-12.432 -11.891,-19.559 -0.541,-1.252 -1.251,-2.723 -1.902,-4.545 0.961,2.523 1.962,4.715 3.153,7.147 -4.831,-10.047 -7.255,-18.739 -8.568,-29.479l0.26 1.762c-4.786,-35.279 11.893,-70.699 42.3,-89.408 0.851,-0.521 1.241,-0.771 1.531,-0.961l-5.705 3.533c1.191,-0.82 0.961,-0.68 0.14,-0.11l-4.735 3.464c3.704,-2.903 6.547,-4.805 9.92,-6.877 -0.191,0 -0.381,0 -0.561,0.01l-6.576 4.344c2.282,-1.661 4.264,-2.993 6.446,-4.334 -0.827,0 -7.352,4.817 -8.398,5.616 -11.38,8.708 -20.939,20.43 -27.065,33.483l0.04 0.029zm95.44 130.408c-0.26,0.03 -0.521,0.06 -0.761,0.09 1.161,-0.15 2.322,-0.33 3.484,-0.521l-2.723 0.441 0 -0.01zm-5.045 0.54c1.231,-0.1 2.473,-0.24 3.714,-0.39l-3.714 0.39zm-59.045 -15.605c-0.181,-0.12 -0.2,-0.14 0,0zm-3.404 -2.443c-2.8,-2.006 -6.262,-4.981 -8.748,-7.467 0.992,0.96 8.256,7.467 8.748,7.467zm-11.04 -9.729c-2.928,-3.159 -4.652,-5.017 -7.307,-8.619 2.472,3.264 5.375,6.647 8.078,9.35 -0.231,-0.231 -0.481,-0.451 -0.771,-0.741l0 0.01zm-20.289 -32.492c0.16,0.371 0.961,2.562 1.041,2.763 -0.11,-0.26 -1.181,-3.073 -1.041,-2.763zm-1.161 -3.433l1.111 3.373 -2.102 -6.637 0.991 3.264zm-2.632 -10.19l-0.03 -0.171c0.05,0.261 0.07,0.291 0.03,0.171zm32.23 -88.357c0.06,-0.06 0.26,-0.201 0.57,-0.451 -0.28,0.23 -0.48,0.4 -0.57,0.451zm-3.704 2.863l0 0zm18.067 -5.916l9.689 -5.025c-0.677,0 -9.049,4.621 -10.109,5.275l0.42 -0.25zm7.707 -3.864l-8.878 4.595c0.24,-0.15 0.51,-0.321 0.761,-0.471 -3.244,1.982 -7.868,5.185 -10.49,7.457 1.732,-1.531 -1.872,1.502 -2.182,1.872l-3.343 3.123c-13.147,12.796 -22.329,30.658 -24.774,49.229l-0.42 3.454c0.02,-0.261 0.05,-0.681 0.08,-1.012 -0.981,6.056 -0.687,16.097 0.32,21.822l0.771 4.114 -0.03 -0.31c2.358,10.129 3.441,13.519 7.747,22.472 -1.902,-3.743 -3.543,-7.467 -4.905,-11.551 0,0.37 1.792,4.935 2.102,5.675 5.17,12.234 12.311,22.179 22.221,31.161 -4.047,-3.654 -9.71,-9.76 -12.772,-14.244l0.17 0.11c1.251,1.792 4.314,5.616 6.046,7.468 10.717,11.492 21.624,18.766 36.544,23.863 3.294,1.161 10.13,2.833 13.733,3.294 1.252,0.17 -0.11,0 -0.48,-0.03 5.402,0.676 8.184,1.051 13.823,1.051 1.251,0 0.26,0.06 -0.681,0.06 -1.05,0.06 -1.982,0.09 0.771,0.06 0.681,0 1.592,-0.03 2.813,-0.03l-1.932 0.06c7.633,-0.098 13.374,-0.822 20.88,-2.862 0.23,-0.061 0.48,-0.111 0.74,-0.201 -7.377,1.982 -13.022,2.583 -18.106,2.863 -0.621,0.03 -1.112,0.09 -1.452,0.06 10.319,-0.64 18.255,-2.237 28.046,-5.815 0.031,-0.541 0.061,-1.082 0.091,-1.612 -9.683,3.922 -16.178,4.969 -26.035,5.886l3.753 -0.37c3.412,-0.36 9.184,-1.342 11.891,-2.193 2.693,-0.77 -0.54,0.171 -3.003,0.681 -7.528,1.559 -11.979,1.806 -19.668,1.982 -2.783,0 -9.019,-0.62 -11.971,-1.131 -3.398,-0.579 -11.94,-2.406 -14.674,-3.774l3.143 0.931c-9.518,-3.008 -18.496,-7.434 -26.325,-13.633 -9.068,-7.18 -16.219,-15.2 -21.911,-25.625 -11.067,-20.269 -13.868,-43.115 -7.147,-65.195 6.269,-20.594 19.283,-37.18 37.976,-48.357 0.79,-0.48 1.701,-0.961 2.722,-1.532l-6.756 3.945c1.111,-0.911 6.296,-3.864 8.368,-4.905 5.245,-2.693 -1.251,0.48 -0.09,-0.231l-4.685 2.583c-0.26,0.17 -0.2,0.11 0.431,-0.281 3.525,-2.063 7.108,-3.694 10.83,-5.395 0.231,-0.1 0.471,-0.2 0.721,-0.3 -1.241,0 -3.348,1.103 -2.252,0.58l1.211 -0.561c-1.341,0 -3.448,1.283 -3.743,1.17zm18.498 0.591l-1.652 0.44 7.367 -1.421 -3.834 0.641 3.524 -0.711c-2.362,0 -4.727,1.091 -5.405,1.051zm38.816 152.85c0.281,-0.09 0.601,-0.17 0.911,-0.26 -0.34,0.09 -0.62,0.17 -0.911,0.26zm-75.531 -18.578c0.541,0.51 1.131,1.051 1.762,1.621l-1.762 -1.621zm87.893 -48.288c0.04,-0.14 0.07,-0.27 0.1,-0.4l-0.1 0.4zm-15.705 -6.086l0.14 -2.923c-0.205,2.79 -0.538,4.803 -1.711,7.328l0.37 -1.142c-0.37,0.851 -0.851,1.932 -1.902,3.604l-0.681 1.051 -0.62 0.711c0.163,-0.07 -5.832,7.778 -16.185,6.206 -17.226,-2.614 -20.895,-24.523 -7.037,-33.112 6.976,-4.315 16.035,-3.373 21.901,2.302 2.469,2.369 4.512,5.399 5.365,9.309 -0.14,-1.161 0.37,0.31 -0.09,-1.302 -0.911,-3.293 -2.813,-6.266 -5.305,-8.568l-1.962 -1.591c3.556,2.513 5.745,5.304 7.177,9.509 -0.09,-0.621 -0.09,-1.021 0.23,-0.4 -2.144,-7.287 -10.639,-13.285 -18.437,-12.713 -2.49,0.183 -4.384,0.452 -7.378,1.762 -2.552,1.191 -5.054,3.152 -6.726,5.335l0.431 -0.371c-2.565,2.866 -4.404,7.6 -4.404,11.371l-0.141 -0.34c-0.23,3.003 0.851,7.317 2.493,10.24 4.16,7.348 13.119,11.298 21.26,8.739 3.169,-0.997 5.098,-1.516 8.138,-4.605 0.199,0.31 2.605,-3.071 3.003,-3.714l0.8 -1.872c-0.17,0.311 0.881,-1.932 1.251,-3.743 0.2,-1.251 -0.17,0.31 -0.09,-0.511 0.03,-0.09 0.06,-0.28 0.09,-0.57l0.02 0.01zm-4.975 -15.405c0.991,0.991 2.863,3.433 3.404,4.825l-1.482 -2.473 0.651 1.141c-1.257,-2.273 -3.887,-4.798 -2.582,-3.493l0.009 0zm-21.45 29.229l0 0zm22.822 -5.025l0 0zm1.271 -2.953c0,0 -0.23,0.43 -0.31,0.54 -0.431,0.601 0.54,-1.111 0.31,-0.54zm14.513 9.049c0.18,-0.321 0.361,-0.651 0.541,-0.991 -0.18,0.33 -0.361,0.66 -0.541,0.991zm-1.461 -40.51c-0.11,-0.13 -0.22,-0.27 -0.34,-0.4 0,0.009 0.02,0.02 0.029,0.029 0.431,0.511 0.451,0.571 0.311,0.371l0 0zm1.261 40.86c0.07,-0.12 0.131,-0.23 0.2,-0.35 -0.069,0.12 -0.13,0.24 -0.2,0.35zm-0.09 0.16c0.03,-0.05 0.061,-0.11 0.101,-0.16 -0.03,0.05 -0.061,0.11 -0.101,0.16zm-17.016 -1.151l-0.871 0.651c0.301,-0.22 0.711,-0.501 0.871,-0.651zm-34.492 -15.495l-0.02 -0.28c0.03,0.43 0.03,0.45 0.03,0.28l-0.01 0zm16.605 19.319l-0.08 -0.02c0,0 0.101,0.03 0.08,0.02zm24.764 -27.917l0.991 2.522c-0.241,-1.021 -0.361,-1.601 -0.611,-2.332l0.38 1.001c0,0 -0.11,-0.451 0,-0.26 -1.301,-4.795 -4.714,-9.39 -8.968,-12.092 -4.213,-2.654 -9.916,-4.196 -14.955,-3.324 -1.021,0.17 -3.543,0.851 -4.284,1.161l1.502 -0.401c-4.183,1.178 -6.979,3.045 -9.389,5.476 0.431,-0.37 1.331,-1.111 0.991,-0.791 -4.047,3.71 -7.157,9.719 -7.157,15.436l0.15 -1.371c-0.86,10.339 5.691,16.588 5.686,16.576 2.322,2.662 6.216,4.795 4.854,3.944 -0.451,-0.31 -1.531,-0.911 -3.153,-2.353 3.928,3.353 8.295,4.457 7.797,4.375 -1.06,-0.175 -3.762,-1.59 -5.144,-2.362 1.702,1.081 3.463,1.962 5.245,2.412 -0.06,0.11 2.612,0.651 2.923,0.681 2.367,0.256 5.307,0.224 7.657,-0.281 -0.451,0.09 0.37,-0.09 0.941,-0.23l-0.511 0.06c1.872,-0.33 4.064,-1.302 5.596,-2.162 -0.991,0.62 -1.932,1.011 -3.043,1.481 1.531,-0.65 1.982,-0.77 3.713,-1.812l1.862 -1.271 0.801 -0.6 -0.26 0.139 0.78 -0.74c-0.61,0.54 -1.191,1.001 -2.052,1.621 1.642,-1.251 2.753,-2.182 4.175,-3.944l-1.192 1.222 1.762 -2.243 0.12 -0.2c-0.2,0.23 -0.03,-0.03 -0.03,-0.03 -1.021,1.222 -0.741,0.991 -2.102,2.382l1.392 -1.761c0,0.029 -0.941,1.081 -0.621,0.62 -4.103,4.716 -10.386,7.484 -16.856,7.147 -8.908,-0.464 -15.466,-6.325 -18.277,-13.233 -1.161,-2.863 -1.421,-6.326 -1.361,-6.266 -0.4,-5.736 1.642,-11.242 5.505,-15.436 -0.4,0.481 -0.37,0.481 -0.77,0.961l1.551 -1.751c1.872,-1.873 5.025,-3.834 7.517,-4.655l-1.731 0.771c2.072,-0.941 3.743,-1.452 6.045,-1.792l-1.731 0.34c2.352,-0.51 4.564,-0.62 7.006,-0.34l-1.131 -0.06c6.22,0.547 10.893,2.999 14.924,7.967 1.521,1.874 2.645,4.371 3.514,6.637 0.06,0.17 0.14,0.541 0.2,0.651l-0.881 -2.893c0.341,0.79 0.481,1.131 0.541,1.361l0.089 0.042zm-3.293 19.999l0 0zm-1.582 1.872l0.26 -0.23 -0.31 0.31c0,0 0.03,-0.03 0.06,-0.09l-0.01 0.01zm-4.284 3.684c0.12,-0.07 0.12,-0.07 0,0zm3.263 -2.603l0 0zm-1.872 1.391l0 0zm-16.946 3.544l0 0.03c1.932,0.4 2.753,0.431 4.765,0.51 -2.516,0 -3.379,-0.116 -5.736,-0.711l0.831 0.18 0.14 -0.009zm-0.71 -0.17l0 0zm-11.711 -9.249l0 0zm-4.114 -14.184l0 0zm11.01 -16.256l0.771 -0.35c-1.462,0.73 -2.803,1.631 -4.064,2.612 0.4,-0.48 2.693,-1.902 3.293,-2.272l0 0.01zm7.347 -2.413c0.06,-0.03 0.771,-0.11 0.681,-0.09 -0.091,0.03 -0.711,0.09 -0.681,0.09zm4.334 -0.17l0 0zm17.367 11.231c-0.651,-1.131 0.85,1.332 0.77,1.532l-0.77 -1.532zm-15.745 -24.794c0,0 -0.03,0 -0.05,0 0.18,0.01 0.23,0.02 0.05,0zm27.926 51.821c0.15,-0.281 0.29,-0.561 0.431,-0.851 -0.14,0.28 -0.291,0.561 -0.431,0.851zm4.244 -16.787c0,2.863 -0.491,6.651 -1.251,9.109 0.07,-0.13 -0.09,0.511 -0.25,1.091 1.161,-3.864 1.399,-6.177 1.501,-10.2l0 0zm-1.501 10.2l-0.14 0.471c0.04,-0.14 0.09,-0.3 0.14,-0.471zm-2.743 6.587c0,0 -0.01,0.03 -0.02,0.04l0.02 -0.04zm3.313 -9.6c-0.15,0.661 -0.18,1.031 -0.25,1.432l0.25 -1.432zm-89.174 -83.081c-11.459,8.668 -18.889,16.546 -26.254,29.078 -11.142,18.955 -14.826,41.853 -11.071,63.303 2.889,16.501 11.008,33.464 22.161,45.795 13.447,14.866 31.897,26.03 51.809,29.679 16.944,3.105 32.849,2.267 49.246,-3.403 0,-0.22 0.01,-0.431 0.02,-0.651 -12.091,4.265 -25.061,6.054 -37.865,5.015l3.853 0.11c-19.686,-0.79 -37.028,-6.53 -53.65,-19.099 -24.666,-18.652 -38.624,-49.864 -36.194,-80.719 1.488,-18.893 7.829,-35.556 19.378,-50.46 6.337,-8.177 13.762,-15.033 23.212,-21.14 -0.493,0 -2.326,1.412 -2.852,1.761 0.77,-0.52 1.711,-1.161 2.642,-1.761 -1.024,0.025 -0.881,-0.075 -1.591,0.4l-2.863 2.072 0.019 0.02zm-33.601 104.873l1.021 2.952 -0.851 -2.302c-0.31,-1.051 -0.34,-1.131 -0.17,-0.65zm119.903 -13.043c0,0 0.019,-0.04 0.029,-0.06 0,0.02 -0.02,0.04 -0.029,0.06zm0.019 -0.06c0.11,-0.22 0.221,-0.441 0.321,-0.661 -0.11,0.22 -0.211,0.441 -0.321,0.661zm2.172 -5.486l0.331 -1.381c-0.767,2.578 -0.954,3.58 -2.173,6.196 0.358,-0.753 1.766,-3.908 1.842,-4.824l0 0.009zm-68.864 205.062c2.457,0.4 11.271,1.815 13.483,1.722 1.601,-0.061 3.063,-0.13 4.544,-0.211 -32.892,-2.687 -64.972,-13.026 -93.368,-30.119 -0.01,0.11 -0.02,0.23 -0.03,0.34 18.107,10.891 37.325,18.869 56.503,23.894l1.962 0.54c-19.477,-4.62 -40.85,-13.793 -58.475,-24.344 -0.01,0.15 -0.02,0.291 -0.04,0.441 23.041,13.83 48.64,23.369 75.421,27.737zm-67.724 -24.154c4.354,2.382 8.788,4.625 13.053,6.607 -0.571,-0.26 -1.202,-0.561 -1.932,-0.891 -2.683,-1.251 -6.566,-3.203 -11.12,-5.716l-0.001 0zm15.665 7.808l0.03 0c-0.411,-0.181 -0.991,-0.451 -1.742,-0.791l1.712 0.791zm-2.843 -255.932c-10.06,16.83 -14.913,33.946 -15.174,53.503 -0.128,9.595 0.739,15.137 2.553,24.313 -0.06,-0.37 0.14,0.451 0.45,1.792l2.733 9.279c-0.03,-0.07 -0.05,-0.15 -0.08,-0.22 3.209,10.169 10.857,24.012 17.876,32.262 2.43,2.856 6.599,7.726 9.219,9.99 0.14,0.11 -1.471,-1.471 -3.063,-3.063 -1.501,-1.642 -2.983,-3.263 -2.692,-3.033l2.952 3.173c10.562,10.856 23.599,19.44 37.705,24.904 6.971,2.7 14.794,4.692 22.241,5.795l-4.574 -0.731c-1.161,-0.2 -0.961,-0.14 0.23,0.111 16.634,3.221 34.317,2.178 50.548,-2.773 0,-0.26 0,-0.511 0.01,-0.781 -49.409,15.073 -102.955,-8.12 -125.248,-55.094 -16.234,-34.207 -12.77,-75.042 9.169,-105.583 1.221,-1.672 2.542,-3.434 3.883,-5.135 -0.4,0.13 -0.82,0.27 -1.251,0.42 -1.701,2.192 -3.513,4.655 -4.764,6.556l-2.753 4.285 0.03 0.03zm-6.466 198.245c-2.012,-1.391 -3.173,-2.212 -1.702,-1.221 38.46,26.029 87.074,36.048 132.906,26.866 0,-0.019 0,-0.04 0,-0.06 -5.875,1.175 -13.223,2.185 -18.017,2.593 -2.663,0.23 -3.204,0.26 -2.243,0.17 7.107,-0.59 13.603,-1.481 20.249,-2.802 -0.05,-0.321 -0.1,-0.631 -0.15,-0.961 -40.508,8.078 -83.128,1.491 -119.382,-18.709l9.188 4.714c-0.11,-0.06 0.711,0.311 -1.671,-0.821 -6.046,-2.963 -13.073,-6.976 -19.228,-11.12l2.482 1.672c1.361,0.881 2.212,1.421 1.131,0.77 -4.083,-2.572 -8.107,-5.365 -12.011,-8.308 -0.02,0.441 -0.04,0.881 -0.06,1.312 4.944,3.713 10.099,7.197 15.475,10.41l-6.977 -4.484 0.01 -0.021zm97.151 28.919l3.774 -0.031 -3.774 0.06 0 -0.029zm-60.356 46.615c1.281,0.04 2.452,0.08 3.573,0.12 -19.263,-5.091 -37.601,-12.77 -54.881,-22.692 0,0.06 0,0.12 -0.01,0.18 1.982,1.161 4.374,2.533 6.406,3.624l-0.33 -0.171 10.779 5.496c-8.543,-4.014 -13.246,-6.704 -16.856,-8.819 0,0.14 -0.019,0.281 -0.019,0.421l12.251 6.626 -12.262 -6.576c0,0.06 0,0.13 -0.01,0.19 15.846,9.219 33.051,16.546 50.928,21.621 0.14,0 0.301,0 0.441,0.01l-0.01 -0.03zm-27.516 -10.27c-0.28,-0.11 -0.851,-0.37 -1.732,-0.741 0.821,0.341 1.422,0.601 1.732,0.741zm12.141 5.225c-7.031,-2.567 -10.641,-4.128 -17.246,-7.097 6.691,2.91 13.598,5.928 19.859,7.968 0.31,0.11 -0.791,-0.26 -2.613,-0.881l0 0.01zm35.604 5.576l4.223 0c-25.634,-4.285 -51.642,-13.435 -75.46,-27.638 -0.021,0.261 -0.041,0.521 -0.061,0.771 17.977,10.711 38.256,19.049 58.675,24.124l12.623 2.743zm-44.582 -64.354c-0.541,-0.29 -1.111,-0.56 -1.722,-0.87l4.575 2.162 -2.633 -1.182c29.408,14.204 61.217,20.411 94.078,18.689 7.637,-0.41 16.566,-1.481 24.744,-3.003 -0.021,-0.11 -0.031,-0.22 -0.051,-0.33 -27.675,5.406 -57.502,4.047 -84.589,-3.304 -19.349,-5.25 -38.849,-14.059 -55.602,-25.084 -0.02,0.31 -0.04,0.62 -0.06,0.921 7.139,4.671 13.623,8.319 21.26,12.021l0 -0.02zm85.9 18.709l-2.011 0 0 0.03 2.011 -0.03zm-30.588 8.338c2.782,0.45 -0.26,0 -1.051,-0.09 10.637,1.519 19.489,2.448 30.388,2.382l-3.172 0.121c3.062,0.089 6.185,0.029 9.508,-0.091 -1.091,0.041 -1.621,0.07 -2.171,0.091 11.14,-0.221 21.149,-1.332 31.689,-3.424 0,-0.02 0,-0.05 0,-0.07 -7.146,1.401 -14.313,2.412 -21.059,2.883 -7.828,0.54 -10.701,0.451 -9.079,0.43 9.499,-0.26 20.319,-1.561 30.118,-3.463l-0.21 -1.692c-9.33,1.826 -16.635,2.619 -25.034,3.143 9.158,-0.704 15.771,-1.403 25.024,-3.233 0,-0.02 0,-0.04 0,-0.06 -13.591,2.643 -25.8,3.515 -39.768,3.513 -4.454,-0.029 -9.959,-0.48 -14.553,-0.91 -16.226,-1.562 -31.58,-5.366 -43.611,-9.59 -2.863,-1.021 -3.373,-1.251 -1.221,-0.48 2.152,0.741 7.006,2.472 15.154,4.564 -14.774,-4.004 -28.907,-9.569 -42.2,-16.866 0.401,0.19 0.421,0.18 -0.05,-0.08 17.407,8.918 36.625,15.144 53.951,18.218 -11.731,-2.213 -23.232,-5.356 -34.492,-9.68 11.38,4.254 22.741,7.397 34.402,9.519l-4.815 -0.86c24.963,5.175 51.873,5.638 76.963,0.881 0,-0.02 0,-0.04 0,-0.07 -6.353,1.241 -12.083,1.885 -18.427,2.542l5.545 -0.63c-0.651,0.07 -1.401,0.13 0.871,-0.14 3.113,-0.341 8.818,-1.251 11.991,-1.882 -0.04,-0.32 -0.09,-0.631 -0.13,-0.951 -28.477,5.305 -57.995,4.314 -86.111,-2.953 -19.113,-4.963 -39.18,-13.75 -55.462,-24.123 -0.07,0.77 -0.14,1.571 -0.231,2.422 23.464,16.105 49.665,26.449 77.243,30.61l0 0.019zm-6.346 -4.635c1.231,0.22 2.462,0.421 3.693,0.621l-3.693 -0.611 0 -0.01zm47.785 2.553c-0.591,0.04 -1.211,0.08 -1.862,0.13 -3.403,0.19 -0.951,0.06 1.862,-0.13zm-3.133 0.27c2.132,-0.14 2.863,-0.17 1.281,-0.06 -11.611,0.7 -24.102,0.23 -36.174,-1.291 11.571,1.441 23.312,1.892 34.893,1.351l0 0zm-39.317 -1.952c1.321,0.191 2.642,0.38 3.964,0.551 -1.332,-0.171 -2.643,-0.351 -3.964,-0.551zm-76.002 -29.368c0,0 0,0.04 0,0.07l0.892 0.5 -0.892 -0.57zm8.238 20.94l-10.029 -5.566c0,0 -0.01,0.081 -0.021,0.131 4.875,2.842 10.34,5.745 15.205,8.108 -1.732,-0.851 -3.464,-1.762 -5.165,-2.663l0.01 -0.01zm-15.705 45.234c0,0 0,0.06 0,0.09l0 0c0.118,1.053 0.714,0.648 1.202,0.951l2.021 0.691c-1.07,-0.56 -2.141,-1.141 -3.223,-1.731l0 -0.001zm8.939 2.613c-3.483,-1.711 -6.486,-3.293 -8.748,-4.524 -0.02,0.11 -0.04,0.21 -0.05,0.31l7.417 3.864c-1.732,-0.821 -4.715,-2.373 -7.417,-3.834 0,0.05 -0.02,0.11 -0.03,0.16 2.462,1.341 4.955,2.643 7.467,3.894 0.42,0.05 0.871,0.09 1.361,0.14l0 -0.01zm118.852 -199.856c0.38,-0.35 0.78,-0.731 1.261,-1.211l-1.261 1.211zm-124.998 196.693l6.316 3.173c0.16,0.01 0.31,0.03 0.481,0.04l-9.349 -4.815c-0.01,0.07 -0.021,0.12 -0.03,0.19l2.582 1.412zm25.594 -1.902c5.665,2.222 11.06,4.204 16.646,6.006 2.212,0.03 4.334,0.07 6.275,0.12 -17.136,-4.995 -33.611,-12.032 -49.186,-21.051 0,0.031 0,0.061 0,0.101l-0.01 0.02 -0.1 1.832c9.971,5.681 16.506,8.584 26.375,12.963l0 0.009zm-8.918 5.705c0.08,0 0.16,0 0.25,0.01 -6.336,-2.782 -12.682,-5.915 -18.728,-9.219 0,0 0,0.01 0,0.02 2.863,1.582 5.665,3.114 8.668,4.585l9.81 4.604zm5.295 0.211c1.331,0.04 2.592,0.07 3.884,0.08 -9.289,-3.704 -18.338,-8.018 -27.126,-12.923l-0.21 1.451c8.676,4.809 14.759,7.559 23.452,11.392zm-22.541 -12.352l-0.15 -0.08c0.179,0.1 0.24,0.129 0.15,0.08zm19.778 12.252c0.471,0.02 0.921,0.04 1.361,0.05 -7.088,-3.003 -10.204,-4.484 -16.225,-7.598 1.107,0.549 15.599,7.598 16.576,7.598 -7.271,-3.044 -14.828,-6.681 -22.462,-10.921 0,0.019 0,0.04 0,0.06l4.645 2.562c-1.562,-0.821 -3.113,-1.661 -4.654,-2.512 -0.07,0.46 -0.151,0.911 -0.231,1.331 6.136,3.373 12.472,6.506 18.838,9.309 0.741,0.03 1.471,0.07 2.162,0.09l-0.01 0.031zm-16.295 -54.353c0,0 0,0.07 -0.01,0.1 2.072,1.221 4.094,2.382 5.955,3.403l-5.945 -3.503zm22.992 -44.524c9.241,6.696 18.184,11.874 29.017,16.536 -1.792,-0.711 -0.881,-0.31 0.57,0.31 18.179,7.343 38.504,10.964 57.815,10.401 10.268,-0.3 18.785,-1.081 28.917,-3.294 -0.03,-0.46 -0.07,-0.921 -0.09,-1.381 -38.407,8.685 -77.783,1.411 -110.654,-20.85 2.953,2.011 5.535,3.663 8.538,5.445l-1.281 -0.681c-2.522,-1.472 -8.257,-5.195 -12.141,-8.058l2.072 1.811 7.377 4.935c0.45,0.281 0.31,0.2 -0.741,-0.43 -8.09,-5.116 -17.364,-12.387 -24.152,-19.009 -1.021,-0.991 -1.221,-1.161 0.09,0.2 1.331,1.332 4.144,4.255 9.619,8.879l-6.186 -4.965c8.085,7.326 11.61,10.801 22.561,17.567 -12.414,-7.456 -21.691,-15.064 -31.239,-25.254l2.101 2.302c5.586,5.736 10.811,10.411 17.817,15.495l-0.01 0.041zm-9.139 2.773l9.169 6.356c-6.545,-4.506 -13.952,-10.443 -19.869,-16.236 0,0.04 0,0.081 0,0.121 0.14,0.139 0.27,0.26 0.41,0.4 -0.1,-0.09 -0.25,-0.231 -0.41,-0.38 0,0.06 0,0.13 0,0.19l10.71 9.559 -0.01 -0.01zm-8.138 -40.37l8.308 7.888c5.165,4.714 -1.451,-1.112 -2.692,-2.273l-2.923 -2.833c3.003,3.124 7.918,7.468 11.261,10.16 0.31,0.261 3.944,3.343 4.003,3.033 0.03,-0.11 1.962,1.422 3.093,2.273 5.432,3.918 13.749,8.724 19.979,11.741 3.173,1.532 5.586,2.553 6.156,2.813 0.28,0.14 0.11,0.06 -0.651,-0.26 -3.543,-1.532 -6.836,-2.953 -12.772,-6.246 -3.883,-2.133 -7.297,-4.315 -6.326,-3.634 3.493,2.183 7.407,4.395 11.431,6.437 11.941,6.046 25.624,10.61 38.556,12.772 5.245,0.881 -0.991,-0.28 -2.322,-0.57 -0.741,-0.14 -1.591,-0.31 -2.552,-0.541 7.056,1.586 14.473,2.239 21.51,2.873l-8.939 -0.681c-1.471,-0.139 -1.531,-0.17 -0.48,-0.029 7.717,0.941 18.698,1.421 28.227,0.48 0.51,-0.06 0.54,-0.06 0.2,-0.06 -3.944,0.28 -8.168,0.571 -12.261,0.48l-2.132 -0.12c11.327,0 22.383,-0.765 34.151,-3.593 -0.009,-0.63 -0.019,-1.261 -0.04,-1.912 -51.321,12.226 -104.503,-6.365 -137.379,-46.536 0.131,1.251 0.261,2.423 0.371,3.574 1.421,1.652 3.953,4.594 4.204,4.735l0.019 0.029zm29.708 53.713c8.687,4.679 15.816,7.751 25.594,10.861 21.152,6.727 45.439,8.801 67.173,5.765 3.904,-0.57 7.797,-1.271 11.661,-2.092 -0.02,-0.23 -0.05,-0.471 -0.07,-0.7 -37.825,8.437 -77.779,1.576 -110.734,-19.179 -0.76,-0.481 -1.571,-0.991 -2.422,-1.542l8.728 5.375 -3.273 -1.852c-2.663,-1.591 -8.658,-5.445 -12.742,-8.488l-0.14 0 2.362 1.892c-4.945,-3.257 -14.219,-11.257 -18.427,-15.345 0,0.03 0,0.05 0,0.08 1.603,1.603 4.352,4.438 10.27,9.46l-5.475 -4.485c-0.711,-0.62 -1.131,-1.021 -0.941,-0.821l9.449 8.349c3.173,2.552 7.607,5.875 14.274,9.989 -10.158,-6.111 -19.617,-13.304 -27.586,-21.281 0,0.03 0,0.06 0,0.09 2.442,2.393 4.995,4.725 7.497,6.857 7.146,6.076 16.485,12.602 24.773,17.057l0.029 0.01zm0.681 -1.081l-0.3 -0.171c0.28,0.16 0.39,0.211 0.3,0.171zm-7.547 -4.175c-2.402,-1.501 -4.685,-3.052 -6.917,-4.654l7.687 5.105c0.481,0.31 0.311,0.231 -0.77,-0.451zm32.31 2.363c25.159,9.279 52.095,10.892 78.083,4.775l-0.03 -0.821c-34.125,8.263 -70.66,2.658 -101.545,-16.116 -13.172,-8.008 -24.663,-18.098 -34.742,-30.35 0,0.563 3.787,4.685 4.724,5.746 -1.821,-2.043 -0.931,-0.952 0.801,0.93 -1.902,-2.061 -3.734,-4.133 -5.505,-6.296 0,0.16 0.02,0.331 0.02,0.491 1.902,2.312 3.944,4.634 6.386,7.247 -2.463,-2.582 -4.425,-4.785 -6.376,-7.157 0,0.526 3.991,4.866 4.724,5.675 23.872,26.366 53.344,35.756 53.46,35.876zm-39.007 -22.482c0.281,0.26 -2.212,-1.762 -4.734,-4.004l-2.032 -1.922 6.766 5.926zm-7.066 -6.607l0 0zm-5.575 -5.605c0,0 0,0 0,0zm-20.61 -107.916c-0.14,-7.397 0.351,-14.704 1.492,-21.882 0.94,-4.416 3.99,-12.356 5.715,-16.546l4.575 -9.649 -2.363 0.69 -3.593 7.567c0.801,-2.442 1.691,-4.865 2.662,-7.267l-0.971 0.4c-1.881,4.725 -3.443,9.57 -4.694,14.495 -0.64,1.802 -1.251,3.633 -1.821,5.565l-2.473 9.279c-0.45,2.032 -0.87,4.274 -1.231,6.496l0.921 6.216 1.282 -8.408c-0.343,2.284 -0.637,11.611 -0.381,14.184l1.041 5.735 -0.17 -6.887 0.009 0.012zm-0.741 -8.228l0.451 -5.876c-0.21,2.282 -0.361,4.565 -0.44,6.867 -0.11,2.101 -0.06,0.821 0,-0.991l-0.011 0zm16.176 84.863c3.061,5.154 11.348,15.236 15.794,19.58l1.822 1.761c-4.823,-4.823 -10.617,-11.268 -14.453,-16.836 -1.252,-1.812 -1.672,-2.523 -0.711,-1.191 9.255,13.037 19.661,23.423 33.101,32.352 15.708,10.435 31.42,16.134 49.076,19.019 1.842,0.26 -0.14,0 -0.681,-0.061 7.716,1.045 12.075,1.458 19.94,1.532 4.424,0 -10.58,0.26 4.174,0.09 -0.941,0.03 -1.842,0.06 -2.783,0.11 9.908,-0.201 17.837,-1.058 27.527,-3.444 0.5,-0.13 1.041,-0.27 1.611,-0.43 0,-0.01 0,-0.02 0,-0.04 -4.92,1.27 -15.11,3.182 -20.829,3.443l-5.305 0.281 6.556 -0.491c7.065,-0.611 12.529,-1.784 19.578,-3.393l-0.02 -1.772c-9.238,2.417 -14.099,2.847 -23.062,3.664l10.24 -1.131c4.013,-0.606 9.157,-1.595 12.822,-2.643 0,-0.01 0,-0.02 0,-0.029 -6.691,1.714 -13.662,2.934 -20.54,3.503 -4.514,0.28 -5.415,0.23 -11.49,0.45 -6.742,0.229 -18.84,-1.411 -25.885,-3.002l-14.193 -4.115 4.204 1.332 5.756 1.591c-9.478,-2.892 -15.711,-4.812 -24.744,-9.499 -22.959,-11.915 -41.165,-30.44 -52.569,-53.733 0.2,1.812 0.4,3.704 0.611,5.626l4.414 7.477 0.039 -0.001zm1.411 -111.309c-2.084,5.303 -3.802,9.601 -5.285,15.215 -5.376,20.353 -5.073,42.201 1.201,62.282 2.229,7.132 5.224,13.732 8.798,20.29l5.325 8.648 -0.47 -0.75c1.632,2.452 4.664,6.706 6.096,8.418 0.79,0.961 1.221,1.531 1.161,1.471 7.542,8.958 16.146,16.506 26.334,22.953l-3.463 -2.373c6.808,4.124 7.5,4.985 15.605,8.829 20.904,9.916 48.174,13.25 70.976,7.888l3.293 -0.791 -2.603 0.561 5.936 -1.541 0 -1.011c-28.136,8.178 -58.735,4.654 -84.299,-9.62 2.292,1.202 3.573,1.962 5.735,2.913 -3.557,-1.643 -10.421,-5.688 -10.84,-5.946 -11.526,-7.105 -21.959,-17.149 -29.928,-27.857 0.811,1.051 1.612,2.092 2.322,2.973l-7.176 -10.16c-1.532,-2.443 -1.082,-1.732 -0.771,-1.282 0.14,0.23 0.26,0.4 0.06,0.09 -2.593,-4.023 -7.124,-12.875 -8.818,-17.878l2.843 6.587c-5.055,-10.991 -8.016,-21.766 -9.429,-33.573l0.24 1.661c-1.505,-12.862 -1.148,-25.997 1.892,-38.738 3.41,-14.291 8.253,-25.285 16.215,-37.237l-1.511 0.571c-2.883,4.324 -5.525,8.969 -7.747,13.743l-1.672 3.684 -0.02 -0.02zm112.876 154.862c4.402,-0.561 7.271,-0.845 11.651,-1.732l-12.672 1.832 1.021 -0.11 0 0.01zm-77.973 -22.212l-0.701 -0.57c0.51,0.4 1.001,0.77 1.412,1.051l-0.711 -0.481zm-6.126 -5.085l1.782 1.552 -5.385 -4.875c1.171,1.131 2.372,2.242 3.603,3.323zm-7.697 -7.477c-3.884,-3.93 -6.376,-7.363 -9.59,-11.732 2.973,4.144 6.157,8.058 9.59,11.732l0 0zm-11.831 -16.807l3.683 5.425c-1.021,-1.401 -2.022,-2.822 -3.003,-4.294l-0.68 -1.131zm-3.284 -3.463l2.373 3.893 -2.122 -3.373c-1.221,-2.242 -1.902,-3.493 -0.26,-0.51l0.009 -0.01zm-8.347 -17.848c0.2,0.411 1.1,2.893 1.251,3.294 -0.2,-0.491 -1.412,-3.674 -1.251,-3.294zm-2.863 -9.139l2.392 7.828 -0.06 -0.03c-0.79,-2.442 -1.421,-4.284 -2.072,-6.777 -0.23,-0.85 -0.34,-1.331 -0.26,-1.021zm-1.732 -7.377c0.03,0.11 0,0.09 -0.029,0l0.029 0c-0.09,-0.23 -0.17,-0.851 -0.28,-1.562l0.28 1.562zm84.24 143.38l-7.348 -1.191c-1.871,-0.34 -1.531,-0.26 0.401,0.14 20.84,4.265 44.781,3.786 65.561,-0.39 -0.03,-0.231 -0.07,-0.471 -0.1,-0.701 -48.847,9.857 -99.638,-2.464 -138.39,-33.142 0,0.29 -0.02,0.57 -0.03,0.851 0.941,0.74 1.822,1.431 2.552,1.972 22.752,17.196 49.117,28.317 77.343,32.461l0.011 0zm-68.295 -92.22c0.261,0.261 1.532,1.672 3.464,3.634 8.789,8.872 20.586,17.673 31.72,23.353 0.77,0.37 1.051,0.48 0.601,0.23 11.09,5.706 24.453,10.07 35.413,11.802 -8.709,-1.774 -14.583,-3.143 -23.062,-6.417 8.068,3.053 16.576,5.245 24.914,6.557l-6.156 -1.061c18.802,3.935 38.74,3.593 57.063,-1.332l0 0c-4.805,1.252 -9.419,2.102 -10.13,2.213 -3.633,0.57 -6.095,0.94 -9.819,1.251l4.064 -0.511 0 0.03c4.944,-0.711 9.949,-1.511 15.884,-3.043 0,-0.33 0,-0.65 0,-0.99 -23.662,6.136 -49.176,5.215 -72.317,-2.883 -9.775,-3.654 -17.373,-7.066 -25.985,-12.653l0.991 0.541c-5.872,-3.884 -10.369,-6.93 -15.895,-11.772l1.251 1.141c-11.09,-9.15 -20.888,-21.389 -27.976,-33.893 0.09,0.831 0.19,1.692 0.29,2.603 3.944,6.696 8.398,12.902 12.992,18.237l2.723 2.984 -0.03 -0.021zm73.379 39.219c1.121,0.17 2.243,0.33 3.363,0.47 -1.12,-0.139 -2.242,-0.3 -3.363,-0.47zm4.504 0.611c1.161,0.139 2.323,0.26 3.474,0.37 -1.161,-0.11 -2.322,-0.231 -3.474,-0.37zm25.194 0.38l0 0.03 -3.343 0.23c-3.093,0.14 1.451,-0.09 3.343,-0.26zm-4.144 0.371c1.332,-0.091 1.812,-0.091 0.821,-0.031 -6.035,0.381 -12.161,0.221 -18.247,-0.34 5.825,0.51 11.591,0.62 17.416,0.361l0.01 0.01zm-79.785 -24.835l0 0zm61.889 66.965c-1.082,-0.11 -9.56,-0.88 -5.075,-0.45 2.813,0.28 5.225,0.48 5.075,0.45zm-0.731 0.12c-1.462,-0.17 -1.131,-0.1 0,0zm-56.873 -15.815l-0.961 -0.48 0.961 0.49 0 -0.01zm-24.423 -17.137c-3.083,-2.442 -6.847,-5.806 -10.29,-9.159 0,0.11 0,0.221 0,0.331 4.115,4.019 5.918,5.371 10.29,8.828l0 0zm2.181 10.731l9.139 6.186 7.116 4.174c-0.88,-0.51 2.353,1.281 2.443,1.281l6.416 3.173c31.327,14.972 67.074,18.677 100.104,11.522 -0.02,-0.191 -0.04,-0.371 -0.07,-0.561 -20.84,4.467 -40.577,4.776 -61.588,0.871 -28.444,-5.287 -54.31,-18.09 -76.151,-37.517 0,0.27 -0.01,0.541 -0.02,0.811 4.063,3.644 8.307,7.097 12.582,10.12 -1.392,-1.021 -1.082,-0.821 0.029,-0.06l0 0zm11.972 7.287l6.956 3.914c-2.782,-1.421 -7.486,-4.205 -9.528,-5.476l2.582 1.562 -0.01 0zm-18.217 -12.002l-2.843 -2.302c-0.601,-0.51 -0.651,-0.57 0.37,0.261l4.314 3.463c2.553,1.962 0.371,0.371 -1.841,-1.421l0 -0.001zm-2.182 -10.981l-0.27 -0.24c0.13,0.121 0.25,0.231 0.38,0.351 -0.03,-0.06 -0.09,-0.09 -0.11,-0.111zm88.493 38.027c10.322,0.503 14.833,0.745 25.534,-0.259 5.416,-0.509 9.82,-1.27 14.754,-2.092 -2.953,0.43 -5.646,0.94 -8.148,1.281 -11.902,1.47 -22.578,1.526 -30.929,1.151 -0.841,-0.05 -1.602,-0.11 -2.172,-0.17 0.26,0.03 0.57,0.06 0.951,0.11l0.01 -0.021zm-88.764 -38.257l-3.783 -3.443 3.783 3.453 0 -0.01zm26.095 -1.842c14.303,9.73 28.967,15.776 43.861,19.469 -26.074,-6.433 -50.299,-20.29 -68.154,-40.639l-4.394 -5.105c1.641,2.152 5.074,6.326 1.221,2.011 32.325,38.637 83.934,55.835 133.295,44.044 0,-0.261 -0.02,-0.521 -0.03,-0.781 -0.92,0.22 -1.841,0.45 -2.782,0.66 -33.391,7.317 -68.264,1.302 -97.352,-16.376 -14.085,-8.598 -26.624,-19.824 -36.394,-32.712 0.01,0.15 0.03,0.31 0.041,0.47 8.538,11.212 19.197,21.151 30.678,28.959l0.01 0zm-9.029 -7.036c9.019,7.317 19.489,13.763 30.049,18.448 -11.413,-4.699 -26.706,-14.61 -37.095,-24.454 4.302,3.996 9.895,8.585 14.683,11.832 -3.633,-2.553 -5.535,-4.034 -8.288,-6.327 -1.05,-0.911 -0.65,-0.57 0.651,0.511l0 -0.01zm-16.505 -62.532c0.33,0.721 0.66,1.422 0.981,2.092l-0.981 -2.092zm-8.839 -29.459l0 0zm0.291 1.732c-0.11,-0.571 -0.2,-1.161 -0.301,-1.732l0.301 1.742 0 -0.01zm60.947 81.24c0,0 -0.05,-0.02 -0.08,-0.04 0.03,0.02 0.06,0.029 0.07,0.04l0.01 0zm-34.212 -7.007l-2.102 -1.922 2.112 1.922 -0.01 0zm34.202 7.007c0,0 0.06,0.03 0,0zm-36.314 -8.929l0 0zm25.524 4.324c0.601,0.371 1.201,0.751 1.802,1.111 -0.52,-0.33 -1.151,-0.721 -1.802,-1.111zm23.662 -162.95l1.762 -0.881c-0.521,0.25 -1.111,0.541 -1.762,0.881zm64.341 191.218c0.47,-0.09 0.96,-0.191 1.471,-0.31 0,-0.041 0,-0.091 0,-0.131l-1.471 0.441zm-69.316 -44.644c-0.64,-0.341 -1.281,-0.671 -1.962,-1.041 0.731,0.39 1.372,0.73 1.962,1.041zm1.432 0.741c-0.44,-0.221 -0.911,-0.461 -1.432,-0.741 0.481,0.25 0.961,0.501 1.432,0.741zm13.322 3.343c1.181,0.37 2.362,0.731 3.494,1.031l-3.494 -1.031zm-12.912 -3.133c0.131,0.06 0.25,0.12 0.371,0.17 -0.261,-0.13 -0.521,-0.25 -0.791,-0.39 0.14,0.07 0.28,0.14 0.42,0.21l0 0.01zm-28.997 -23.363c0.12,0.14 0.22,0.27 0.32,0.38 -0.1,-0.11 -0.21,-0.25 -0.32,-0.38zm-32.711 -22.012c0.02,0.07 0.05,0.13 0.07,0.2 -0.02,-0.07 -0.04,-0.13 -0.07,-0.2zm126.659 56.296l-0.28 0.08 0.28 -0.09 0 0.01zm-117.07 -76.035c0.14,1.001 0.281,2.022 0.451,3.083l-0.451 -3.083zm31.59 80.539c-0.15,-0.1 -0.31,-0.19 -0.471,-0.29l0.471 0.29zm23.062 83.192c-0.241,-0.041 -0.481,-0.081 -0.731,-0.131l0.731 0.131zm2.522 0.43c0.26,0.03 -0.511,-0.09 -2.523,-0.44l2.523 0.44zm37.605 6.536c-0.691,0.01 -1.361,0.04 -2.062,0.05 1.021,-0.01 1.552,-0.03 2.062,-0.05zm18.798 -5.455c-0.07,0 -0.24,0.03 -0.471,0.05 0.361,-0.04 0.691,-0.07 0.471,-0.05zm-147.148 -229.445l0 0zm39.677 205.501l0.1 0.04c-0.07,-0.04 -0.15,-0.069 -0.22,-0.11 0.04,0.02 0.08,0.041 0.12,0.06l0 0.01zm-40.999 -200.837l-0.74 1.872 3.022 -7.017c-0.3,0.151 -0.59,0.291 -0.871,0.431l-2.853 6.967 1.172 -2.793c-0.4,0.982 -0.771,1.942 -1.131,2.893 0.03,0.09 0.06,0.2 0.08,0.301 0.63,-1.622 1.401,-3.444 2.442,-5.836 -0.361,0.857 -2.505,5.627 -2.332,6.226l1.111 -2.843c0.26,-0.68 0.23,-0.57 0.09,-0.2l0.01 -0.001zm0.992 -3.203l-0.601 1.332 1.161 -2.663 -0.571 1.331 0.011 0zm163.223 68.327c0,-0.14 0.01,-0.27 0.02,-0.41 -0.1,0.24 -0.22,0.471 -0.321,0.711 0.151,-0.17 0.261,-0.27 0.311,-0.301l-0.01 0zm-158.93 -71.76l-2.932 6.436c-0.941,2.212 -1.802,4.475 -2.623,6.767 0.12,0.46 0.231,0.941 0.351,1.432l4.074 -10.601c-1.202,3.614 -1.952,6.407 -2.893,11.141 -0.639,3.202 -0.539,2.133 0.12,5.355 1.121,-7.197 2.873,-14.304 5.255,-21.23 -0.4,0.21 -0.851,0.44 -1.361,0.7l0.009 0zm62.099 184.291c-6.556,-3.063 -13.283,-6.666 -19.208,-10.53 -0.121,-0.07 -0.22,-0.14 -0.321,-0.2 3.464,2.412 7.858,4.975 11.471,6.957 -0.681,-0.341 -0.571,-0.28 0.03,0.06 0.791,0.451 2.472,1.341 4.294,2.242 -8.443,-4.154 -15.861,-8.788 -22.682,-13.453 6.136,4.614 12.872,8.859 19.629,12.373 -4.164,-2.123 -8.028,-4.385 -12.061,-6.938 0.601,0.391 2.012,1.352 0.971,0.721 31.742,20.417 70.313,27.193 107.08,18.669 -0.02,-0.311 -0.04,-0.621 -0.05,-0.932 -29.575,6.882 -61.418,3.851 -89.154,-8.968l0.001 -0.001zm2.662 1.471c-0.2,-0.06 -0.57,-0.23 -1.221,-0.51 0.601,0.26 1.021,0.431 1.221,0.51zm-4.224 -1.901c1.021,0.48 1.962,0.911 2.693,1.251 -0.811,-0.35 -1.942,-0.891 -3.454,-1.602 0.25,0.121 0.511,0.241 0.761,0.361l0 -0.01zm-5.034 -2.032c0.61,0.3 1.221,0.61 1.891,0.961 -0.64,-0.311 -1.261,-0.641 -1.891,-0.961zm16.836 7.367l-10.42 -4.264 5.535 2.352c3.093,1.251 6.296,2.353 6.526,2.443l-1.641 -0.541 0 0.01zm70.536 16.856c-10.564,1.8 -22.296,2.362 -33.052,1.651 -13.526,-0.893 -27.978,-3.609 -40.767,-8.248l-6.756 -2.502c6.515,2.536 12.515,4.406 19.438,6.185 9.899,2.553 20.199,3.804 20.77,3.804 1.251,0.09 0.651,0 -1.021,-0.17 -9.873,-1.172 -18.854,-3.199 -28.317,-6.106 -8.248,-2.534 -14.175,-5.074 -23.272,-9.249 5.227,2.677 11.68,5.58 16.166,7.106 3.743,1.362 2.862,1.052 -0.881,-0.26l-6.266 -2.492c4.995,2.132 8.799,3.663 14.153,5.395l0 0.03c-4.424,-1.451 -6.586,-2.302 -8.768,-3.153l0.03 0.03 -11.882 -5.195c30.853,15.315 66.185,19.705 99.784,12.291 -0.029,-0.26 -0.049,-0.53 -0.08,-0.79l-9.279 1.662 0 0.011zm-99.624 -31.25c-0.14,-0.09 -0.23,-0.151 -0.25,-0.16 0.08,0.049 0.17,0.1 0.25,0.16zm-4.484 6.416c-0.711,-0.471 -1.432,-0.951 -2.172,-1.461 0.741,0.53 1.472,1.011 2.172,1.461zm95.4 44.303c-1.022,0.09 -0.451,0.061 2.382,-0.17 4.899,-0.538 11.757,-1.388 18.017,-2.572 0,0 0,-0.01 0,-0.021 -5.663,0.991 -15.001,2.537 -20.39,2.763l-0.009 0zm-91.596 -51.961c-0.151,-0.1 -0.301,-0.2 -0.441,-0.31 0.11,0.09 0.27,0.19 0.441,0.31zm21.31 28.318c-11.483,-4.521 -20.42,-9.371 -30.419,-15.775 4.196,2.915 8.755,5.486 13.112,7.948 -1.621,-0.821 2.472,1.421 6.386,3.323 -0.03,-0.03 -0.06,-0.03 -0.09,-0.03 -8.768,-4.314 -13.623,-7.207 -20.94,-11.972l-5.505 -3.743c7.439,5.595 15.729,10.767 24.093,14.895 -5.645,-2.753 -10.61,-5.706 -15.945,-9.079 0.09,0.06 2.783,1.811 1.361,0.96 34.687,22.218 76.536,29.947 116.78,21.141 -0.03,-0.24 -0.06,-0.48 -0.09,-0.711 -29.545,6.395 -60.425,4.059 -88.743,-6.956l0 -0.001zm-5.275 -1.922c-0.2,-0.09 -0.621,-0.26 -1.282,-0.54 0.621,0.26 1.082,0.45 1.282,0.54zm-2.823 -1.251c-0.5,-0.23 -1.061,-0.49 -1.712,-0.79 0.601,0.27 1.172,0.54 1.712,0.79zm11.34 4.935l-11.55 -4.705 6.125 2.613c3.494,1.421 10.641,3.913 5.416,2.102l0.009 -0.01zm-44.291 -9.479c0.09,0.06 0.18,0.12 0.27,0.18l-1.141 -0.77c0.42,0.28 0.851,0.58 0.881,0.59l-0.01 0zm-1.562 -1.051l0.681 0.46c-0.511,-0.35 -0.991,-0.681 -0.681,-0.46zm68.325 -211.608l0 0zm0.51 -0.23l-0.51 0.24c0.76,-0.321 1.511,-0.631 2.262,-0.921l-1.752 0.681zm62.078 48.747l-0.17 -0.19 0.941 1.242c-0.14,-0.201 -0.571,-0.821 -0.771,-1.052zm-59.125 -5.705c-0.53,0.471 -1.041,0.951 -1.511,1.421l1.511 -1.421zm64.601 44.323c-7.687,19.814 -29.434,30.949 -51.018,23.714 -0.771,-0.28 -1.161,-0.571 -1.932,-0.791 -3.27,-0.953 -6.82,-3.579 -7.127,-3.794l-3.834 -2.863 -2.322 -2.072c-5.795,-5.796 -8.458,-12.312 -8.458,-12.312 -4.484,-10.07 -4.484,-21.761 -0.26,-31.811l-0.651 1.812c1.822,-4.59 3.063,-7.223 6.216,-11.181 1.762,-2.212 3.714,-4.224 5.956,-6.127l-1.181 1.102c2.492,-2.243 5.485,-4.385 8.388,-5.846l-0.861 0.51c3.163,-1.772 6.456,-3.093 10.4,-4.004l-2.102 0.571c2.642,-0.681 4.795,-1.192 7.887,-1.451 7.297,-0.601 15.235,0.91 22.221,4.684 6.193,3.344 8.734,6.2 13.022,11.041l-1.671 -2.222c0.1,0.121 0.18,0.2 0.22,0.26l-2.042 -2.302 6.015 7.067c-1.561,-2.412 -2.552,-3.714 -4.514,-5.926 1.131,1.222 2.132,2.413 3.093,3.714 0,-0.03 -0.48,-0.741 -0.2,-0.4 -1.872,-2.753 -5.505,-6.387 -8.458,-8.599 -11.604,-8.693 -27.899,-10.698 -41.228,-4.795 -3.598,1.593 -7.034,3.862 -10.1,6.477 -0.34,0.28 -0.37,0.31 0.09,-0.06 0.281,-0.261 1.331,-1.082 2.102,-1.622 -4.509,3.46 -7.827,7.043 -10.811,12.062 0.657,-1.857 5.344,-7.321 7.147,-8.998l-1.531 1.391c-3.465,3.911 -5.366,6.235 -7.778,11.471l0.941 -1.701c-3.257,6.801 -4.79,13.394 -4.394,20.86 0.211,3.984 0.697,7.805 2.323,11.752 -0.681,-2.042 -1.132,-3.464 -1.562,-5.616 0.857,3.459 1.339,5.311 2.842,8.739 0.14,0.34 0.111,0.2 -0.4,-0.941 3.966,8.861 9.657,14.991 17.877,19.809 0.96,0.571 1.621,0.881 1.331,0.681 3.493,1.792 7.547,3.203 10.98,3.804l-6.926 -2.043c4.685,1.904 11.592,2.878 16.606,2.633 2.103,-0.103 -3.96,0.334 -8.828,-0.54l-1.642 -0.281c10.485,2.243 20.986,0.345 30.128,-5.325l1.932 -1.301c-0.26,0.139 -0.62,0.43 -1.221,0.77 3.743,-2.442 6.016,-4.624 8.828,-7.808 0.451,-0.54 0.341,-0.4 -0.09,0.11 -1.701,1.982 -2.662,2.953 -4.624,4.715 2.072,-1.812 3.713,-3.463 5.475,-5.675 1.902,-2.443 3.153,-4.595 2.552,-3.604l-1.191 1.812c0.941,-1.282 1.592,-2.322 2.152,-3.294l-0.34 0.481c0.911,-1.622 1.761,-3.093 2.442,-4.885 -1.031,2.252 -2.012,4.114 -3.293,6.066 0.898,-1.403 4.014,-7.153 4.014,-8.218l-0.871 2.062 0.801 -2.232 -0.04 -0.11c-0.07,0.2 -0.13,0.38 -0.171,0.471l0.151 -0.531c-0.38,1.011 -0.791,1.982 -1.312,3.114l1.282 -3.484 -0.43 1.01zm-9.479 -43.382c0,0 0.14,0.11 0.31,0.31l-0.31 -0.31zm-0.541 -0.971l0 0zm-39.517 -9.329l0 0zm-3.583 1.221l0 0zm-2.863 1.301c-0.14,0.11 -1.221,0.621 -1.161,0.601 0.09,-0.06 1.301,-0.68 1.161,-0.601zm-22.581 41.431l0.08 0.651 -0.03 -0.001 -0.061 -0.65 0.011 0zm15.664 26.896l0 0zm27.486 9.45l0 0zm10.19 -1.902l0 0.03c-2.472,0.851 -6.186,1.671 -8.798,1.812 3.275,-0.367 5.964,-0.888 10.249,-2.353 -0.28,0.11 -0.79,0.281 -1.451,0.511zm22.921 -19.299c0.05,-0.07 0.581,-1.041 0.711,-1.302 -0.42,0.911 -1.592,2.793 -0.711,1.302zm0 0.4l0.14 -0.231c-0.2,0.371 -0.23,0.371 -0.14,0.231zm-60.987 -73.282c0.14,-0.07 0.27,-0.14 0.411,-0.21 -0.211,0.1 -0.341,0.17 -0.411,0.21zm56.193 26.686c0.08,0.101 0.1,0.11 0,0zm-86.822 6.687c0,0 0,-0.02 0,0l0.551 -1.531 -0.571 1.551 0.02 -0.02zm88.273 6.226c1.928,4.398 2.599,8.603 2.723,13.503 0.121,-3.798 -0.653,-7.56 -1.702,-10.891 0.451,1.111 0.961,3.173 1.192,4.394 0.089,0.511 0.11,0.451 -0.03,-0.71 -0.645,-3.226 -2.96,-8.537 -4.575,-10.931 -1.902,-2.813 -2.813,-4.054 -5.565,-6.837 0.711,0.601 -0.681,-0.711 -0.851,-0.77 -0.791,-0.711 -2.322,-2.073 -4.424,-3.434 -5.926,-3.834 -12.652,-5.705 -19.409,-5.616 -0.4,0 1.562,-0.089 0,-0.089 -3.839,0 -6.513,0.544 -10.019,1.651 0,0 0.2,-0.03 0.23,-0.03 -3.91,1.392 -4.418,1.69 -8.338,3.884l3.954 -2.242c-0.09,-0.11 -3.173,1.642 -3.433,1.812 -3.915,2.425 -7.275,5.364 -10.35,9.669 1.702,-2.302 4.254,-4.995 5.225,-5.815 1.221,-0.991 -0.14,0.23 -0.681,0.77 -6.999,6.816 -10.205,14.386 -10.78,23.634 -0.03,0.51 0,-0.06 -0.03,-0.201 0,2.923 -0.03,2.953 0.2,5.646 0.14,1.221 -0.48,-2.953 0.06,1.161 -0.06,-0.26 -0.11,-0.51 -0.139,-0.77 0.43,3.603 1.05,5.756 2.472,9.219 -1.458,-3.588 -1.904,-5.887 -2.213,-8.208 1.125,6.332 4.052,13.615 8.879,18.478l2.582 2.352 -1.901 -1.642 3.883 3.264c0.03,-0.03 0.06,0 0.791,0.57 1.081,0.821 3.603,2.272 5.024,2.953l-3.122 -1.612c-0.281,-0.17 -0.451,-0.26 -0.341,-0.17 2.68,2.033 8.961,4.264 12.602,4.855 0.911,0.14 0.711,0.09 -1.221,-0.371 2.132,0.431 3.403,0.511 5.395,0.771 -1.131,-0.09 -1.872,-0.11 -2.242,-0.14l4.394 0.26c6.216,-0.4 -0.171,0.03 -0.991,-0.09 -0.113,-0.008 4.666,-0.012 8.708,-0.971 1.361,-0.34 -1.621,0.451 0,0.11 4.425,-0.961 9.679,-3.463 13.112,-6.326 -2.242,1.792 -4.454,2.892 -5.074,3.173l6.076 -4.084 -0.451 0.45 1.251 -1.051c-0.68,0.481 -0.4,0.231 0.09,-0.17 1.251,-1.081 1.872,-1.812 2.893,-2.923 -0.451,0.681 -2.152,2.383 -2.983,3.093 0.681,-0.45 3.123,-2.952 3.974,-4.034l-0.371 0.231c2.326,-2.738 4.833,-6.97 5.816,-10.24l-1.082 2.492 0.991 -2.523c-0.016,0.04 -2.341,5.298 -2.952,5.706 0.82,-1.301 2.042,-3.543 2.812,-5.565 0.571,-1.472 -0.51,1.111 -0.11,-0.03l0.26 -0.651 -0.43 0.791c-1.392,3.403 -2.953,6.016 -5.195,8.848 3.925,-4.932 5.561,-10.159 5.445,-10.019 -0.004,0.005 -2.125,5.579 -5.455,9.789 0.28,-0.51 1.251,-1.622 2.523,-3.864 2.071,-3.581 2.772,-5.624 3.463,-8.688l-0.901 2.642 -1.361 2.923c-2.078,4.814 -5.433,8.673 -9.339,12.002 2.182,-1.872 3.373,-3.033 5.135,-5.335 -2.393,2.816 -5.773,6.093 -8.789,7.938 -12.651,7.717 -28.887,6.156 -39.837,-3.834 -5.982,-5.43 -8.918,-11.301 -10.47,-19.059l1.191 4.685c0.481,1.451 0.741,1.932 0.711,1.872 -0.292,-1.246 -1.415,-3.721 -1.732,-6.246 -0.29,-2.308 -0.532,-2.6 -0.59,-5.566 -0.03,-4.054 0.57,-6.897 0.791,-7.947l-0.321 2.582c1.372,-9.266 6.573,-17.934 14.324,-22.622 2.922,-1.762 5.365,-3.234 8.708,-4.285 10.126,-3.172 21.284,-1.226 29.788,5.086 3.293,2.442 5.105,4.544 7.517,7.777l-1.842 -2.492c0.4,0.31 1.812,2.322 2.322,3.093 1.262,1.822 -0.04,-0.25 0.151,-0.18l2.092 3.323c0.31,0.571 1.131,2.323 0.77,1.332 -0.17,-0.431 -0.541,-1.332 -1.331,-2.863 -0.31,-0.681 1.161,1.702 1.111,1.591 -1.399,-3.047 -1.253,-3.253 -3.323,-6.126l1.902 2.643 -0.03 0c1.302,1.902 1.902,3.093 2.813,5.195l-0.02 0.05zm-4.254 -5.476l0 0zm-55.162 -11.661c-0.33,0.29 -0.64,0.571 -0.931,0.851l0.931 -0.841 0 -0.01zm50.848 15.666l-0.05 -0.07c0,0 0.03,0.05 0.05,0.07zm2.753 5.275c0,0 -0.01,-0.03 -0.02,-0.041 0,0.031 0.02,0.061 0.03,0.081l0 -0.04 -0.01 0zm-1.812 -3.794l-0.961 -1.481 -0.05 0 1.001 1.481 0.01 0zm3.483 13.493c0.15,-2.869 -0.566,-6.205 -1.361,-8.768l0.48 1.451c0.51,1.672 0.651,3.403 0.51,1.502l-1.291 -3.844c1.174,4.044 1.503,5.195 1.662,9.66l0 -0.001zm-8.628 -19.999l-4.224 -3.373c-4.884,-3.153 -10.019,-4.485 -15.544,-4.485 -0.341,0 1.331,-0.11 0,-0.14 -2.907,-0.053 -5.342,0.459 -7.998,1.362 0,0 0.51,-0.14 -0.26,0.17 -3.738,1.424 -2.761,0.963 -6.236,2.923l3.153 -1.822c-0.11,-0.09 -2.552,1.301 -2.782,1.451 -3.181,1.967 -5.801,4.279 -8.318,7.767 1.301,-1.731 3.543,-4.144 4.204,-4.654 1.021,-0.791 -0.11,0.23 -0.51,0.62 -5.624,5.418 -8.199,11.567 -8.628,18.949 -0.03,0.4 -0.03,-0.06 -0.061,-0.17l0.2 4.514c0.09,0.991 -0.48,-2.352 -0.029,0.961 -0.06,-0.2 -0.091,-0.43 -0.14,-0.62 0.34,3.033 0.79,4.484 2.012,7.407 -0.991,-2.442 -1.702,-5.365 -1.792,-6.756 0.708,3.31 1.532,5.79 2.923,8.998 0.85,1.982 2.812,4.425 4.223,6.016 0.14,-0.09 2.473,2.042 2.102,1.842l-1.561 -1.282 3.143 2.583c0.03,-0.06 0.09,-0.06 0.62,0.451 0.741,0.57 3.003,1.842 4.034,2.322 1.301,0.601 1.932,0.881 0.28,0.2l-3.063 -1.562c3.232,1.935 6.387,3.184 10.07,3.884 0.771,0.11 0.571,0.06 -0.941,-0.37 1.732,0.34 2.723,0.4 4.315,0.651l1.731 0.14c4.995,-0.34 -0.14,0 -0.791,-0.11l2.102 -0.12c2.133,-0.14 3.464,-0.4 4.885,-0.681 1.081,-0.26 -1.281,0.401 0,0.14 3.318,-0.703 7.726,-2.647 10.53,-5.105 -1.812,1.452 -3.604,2.322 -4.114,2.523l4.375 -2.953c1.161,-0.881 -0.14,0.23 0.14,0.03l1.021 -0.821c-1.081,0.681 0.77,-0.851 0.961,-1.021l1.391 -1.471c-0.31,0.51 -1.732,1.962 -2.352,2.492 0.48,-0.28 2.612,-2.472 3.203,-3.203l-0.341 0.14c1.84,-2.166 3.899,-5.695 4.594,-8.228l-0.88 1.962 0.54 -1.532 -2.192 4.034c0.191,-0.315 2.242,-3.901 2.242,-4.504 -0.43,0.911 0.061,-0.45 0.061,-0.45 0,0 -0.541,1.131 -0.401,0.6 -1.131,2.783 -2.302,4.715 -4.144,7.007 1.842,-2.302 3.293,-4.934 4.174,-7.467 0.571,-1.702 -0.791,1.732 -1.391,2.813 -0.851,1.591 -1.672,2.983 -2.833,4.424 1.765,-2.715 3.449,-5.211 4.374,-8.448 0.17,-0.601 -0.06,-0.14 -0.06,-0.17 0,-0.09 0.17,-0.711 0.31,-1.302l-0.831 2.152c-0.601,0.881 -0.26,0.231 -0.74,1.361 -2.284,5.505 -7.668,10.654 -7.668,10.181 1.932,-1.672 2.523,-2.322 3.974,-4.205 -3.567,4.258 -7.471,7.266 -12.622,8.889 -10.41,3.203 -21.22,-0.31 -27.976,-8.318 -3.073,-3.66 -4.723,-7.78 -5.535,-12.232 0.224,0.942 0.672,3.252 1.111,3.924 -0.45,-1.302 -0.911,-3.323 -0.941,-3.664 -0.305,-2.255 -0.433,-1.695 -0.491,-4.344 -0.06,-3.173 0.401,-5.395 0.601,-6.246l-0.2 2.042c0.674,-4.38 1.835,-7.463 4.344,-11.172 1.361,-2.012 4.174,-4.905 6.837,-6.436 2.382,-1.331 3.973,-2.493 6.776,-3.373 5.702,-1.799 11.523,-1.492 17.056,0.541 5.004,1.838 8.958,5.18 12.111,9.499l-1.391 -2.012c0.26,0.2 1.451,1.872 1.812,2.442 1.081,1.472 -0.11,-0.45 0.26,-0.17l1.641 2.553c0.311,0.51 0.911,1.811 0.651,1.021 -0.11,-0.311 -0.4,-1.051 -0.991,-2.272 -0.23,-0.601 1.021,1.331 0.991,1.191 -0.57,-1.282 -0.54,-1.282 -0.62,-1.622 -0.231,-0.85 -1.282,-2.522 -1.872,-3.373l1.501 2.023c-1.344,-1.947 -2.049,-2.861 -4.144,-4.956l0.029 0.02zm2.783 5.245c0.08,0.17 0.06,0.16 0.05,0.16l-0.991 -1.352 0.941 1.192zm-4.194 33.213c-0.43,0.42 -0.861,0.85 -1.311,1.241 0.55,-0.511 0.951,-0.881 1.311,-1.241zm-74.09 -38.188c0,0 0,0.02 0,0zm80.906 6.706c0.441,0.871 0.891,1.882 1.522,3.274 -0.27,-0.761 -0.911,-2.132 -1.522,-3.274zm-0.18 -0.36l-0.07 -0.11c0.081,0.15 0.171,0.31 0.26,0.481 -0.06,-0.121 -0.12,-0.251 -0.19,-0.371zm-43.881 -21.911c-0.711,0.4 -1.412,0.81 -2.112,1.25l2.112 -1.25zm15.765 107.565l0 0zm0 0l-0.711 -0.02c0.27,0.01 0.5,0.02 0.721,0.03l-0.01 -0.01zm-66.483 -87.256l-0.32 1.732 0.641 -3.153 -0.321 1.421zm94.909 86.375c-1.221,0.401 -2.352,0.771 -2.322,0.741 -18.827,5.946 -39.487,4.104 -56.993,-4.875 0.51,0.261 1.031,0.521 1.641,0.791 -2.132,-0.961 -7.467,-4.084 -7.467,-4.084 -8.493,-5.163 -16.315,-13.023 -21.91,-21.081 0.931,1.331 1.892,2.613 3.023,4.034 -4.554,-5.927 -8.706,-12.576 -11.471,-20 0.88,2.183 1.621,3.884 2.662,5.926 -3.403,-7.037 -5.705,-13.984 -6.866,-22.242 0.09,0.621 0.2,1.251 0.31,1.842 -3.908,-23.608 3.154,-46.989 19.829,-64.624 4.686,-4.955 10.099,-9.124 16.195,-13.033 0.48,-0.31 1.701,-0.961 2.132,-1.221 -3.717,2.032 -4.729,2.866 -8.058,4.905 4.032,-2.933 7.751,-5.064 11.441,-7.258 -4.33,2.131 -7.922,4.228 -11.941,7.117 2.642,-1.931 4.764,-3.343 7.547,-4.934 -0.06,0.029 -1.451,0.74 -0.77,0.31 -19.188,10.795 -32.664,29.946 -36.965,51.73 -2.867,14.521 -1.452,30.199 4.183,43.813 2.302,5.106 4.375,9.169 7.578,13.874l-1.192 -1.932c-0.48,-0.791 -1.051,-1.702 -1.501,-2.443 -0.821,-1.562 -1.301,-2.412 -0.17,-0.37 1.281,2.352 4.994,7.827 6.666,9.85 0.51,0.65 0.821,1.05 0.77,0.99 5.436,6.517 11.889,12.122 19.669,16.777l-3.744 -2.552c11.034,7.227 22.479,11.628 35.834,12.802 9.614,0.845 16.237,0.498 25.794,-1.902 -3.952,0.868 -7.741,1.583 -11.601,1.962 -1.161,0.09 -1.391,0.09 -0.991,0.06 6.177,-0.481 10.303,-1.478 16.146,-3.043l-0.261 0.06 9.819 -3.744c0.03,-0.37 0.06,-0.74 0.09,-1.111l-7.086 2.893 -0.02 -0.028zm-72.778 -130.798l0.791 -0.601 -4.685 4.004 3.894 -3.403zm-24.453 84.613l-1.451 -4.655 1.812 5.556c0,0.11 -0.14,-0.281 -0.371,-0.911l0.01 0.01zm0.39 0.901c0.14,0.31 0.881,2.382 0.851,2.302 -0.09,-0.17 -0.991,-2.582 -0.851,-2.302zm8.398 14.724c0.281,0.431 0.561,0.861 0.841,1.272l-0.841 -1.272zm8.488 12.353c-2.693,-2.908 -3.985,-4.312 -6.366,-7.598 2.133,2.863 4.675,5.866 7.047,8.249 -0.2,-0.201 -0.431,-0.401 -0.681,-0.651zm8.708 7.767c-2.132,-1.562 -4.994,-4.114 -6.926,-6.016 2.352,2.273 4.854,4.395 7.437,6.357l-0.511 -0.341zm47.785 15.606l-1.251 0 1.642 -0.03 -0.401 0.03 0.01 0zm22.812 -69.659c-0.4,1.191 -0.851,2.382 -1.361,3.523l0.851 -2.552 -0.451 1.001c-2.882,7.15 -9.186,13.776 -18.808,15.586 -4.204,0.74 -8.598,0.43 -12.622,-0.991 -0.4,-0.171 -0.651,-0.431 -1.131,-0.541 -2.482,-0.571 -4.769,-2.644 -6.987,-4.284 1.957,1.8 -4.645,-3.633 -6.356,-8.478 -0.03,-0.11 -0.06,-0.17 -0.06,-0.17 -2.753,-6.186 -2.723,-13.303 -0.14,-19.519l-0.481 1.361 1.472 -3.374c-1.307,2.899 0.077,-1.953 5.265,-6.746 -0.321,0.29 -0.631,0.59 -0.801,0.81 1.621,-1.621 4.003,-3.463 6.045,-4.484l-1.791 1.111c2.322,-1.471 4.684,-2.582 7.637,-3.263l-1.281 0.371 3.033 -0.681c7.031,-1.393 16.626,1.701 21.419,7.127l2.693 3.033 -2.182 -2.883 3.393 3.704c-1.021,-1.562 -1.562,-2.243 -2.813,-3.694 0.682,0.72 1.336,1.478 1.963,2.272 0.628,0.794 -0.26,-0.481 -0.09,-0.281 -1.021,-1.621 -3.573,-4.113 -5.275,-5.395 -9.382,-7.028 -23.32,-6.903 -32.18,0.991l1.391 -1.021c-1.963,1.567 -3.523,2.824 -4.964,4.624 -1.702,2.183 0.34,-0.31 -0.26,0.481 -1.132,1.421 -2.153,3.123 -2.983,4.855 0.2,-0.341 1.391,-2.413 0.54,-0.791 -2.901,5.555 -3.588,13.837 -1.441,19.769l-0.33 -1.421c3.042,11.342 13.323,16.226 13.172,16.076 2.152,1.131 4.734,2.072 6.866,2.442l-4.314 -1.361c3.194,1.352 7.247,1.702 10.59,1.702 -1.359,0.189 -4.816,-0.218 -6.756,-0.541 3.263,0.651 4.934,0.741 6.896,0.57 -0.03,0.111 3.153,-0.31 3.714,-0.48 2.892,-0.791 5.585,-1.762 8.288,-3.403 -0.481,0.23 0.37,-0.281 0.961,-0.651l-0.541 0.28c2.353,-1.501 3.774,-2.983 5.505,-4.935 0.31,-0.34 0.26,-0.23 -0.03,0.091 -0.66,0.8 -1.091,1.281 -1.581,1.771 3.558,-3.511 4.723,-6.603 3.003,-3.473 0.88,-1.221 1.221,-1.842 1.361,-2.072l-0.261 0.28 1.502 -3.043c-0.771,1.642 -1.502,3.093 -2.583,4.515 1.081,-1.502 2.523,-4.284 3.063,-6.126 -1.846,4.21 -0.038,0.24 0.12,-1.021l0.14 -0.591 -0.029 -0.08zm-6.927 -25.595l0 0zm-24.082 -6.126c-0.09,0.06 -0.621,0.2 -0.791,0.23 -0.741,0.201 0.961,-0.28 0.791,-0.23zm-4.344 1.561l1.731 -0.71 -1.731 0.77 0 -0.06zm-0.291 0.2c-0.09,0.09 -0.77,0.401 -0.74,0.371 0.03,-0.03 0.821,-0.431 0.74,-0.371zm-4.364 4.005c0.621,-0.491 -0.1,0.09 -0.801,0.74 0.271,-0.25 0.521,-0.5 0.801,-0.74zm-5.505 4.534l0.03 0c1.451,-1.932 2.242,-3.003 4.144,-4.655 -2.072,1.842 -3.633,3.774 -5.075,6.156 0,-0.11 0.451,-0.79 0.911,-1.501l-0.01 0zm-4.254 17.848l-0.06 -0.4 0.09 0.54 -0.03 -0.14zm0.28 1.931c-0.12,-0.76 -0.07,-0.33 0.14,0.561l-0.14 -0.561zm26.725 20.43l0 0zm6.386 -1.161c-1.761,0.651 -3.663,1.051 -5.505,1.192l6.406 -1.532 -0.911 0.341 0.01 -0.001zm14.104 -12.292c0,0 0.39,-0.64 0.47,-0.791 -0.24,0.581 -0.991,1.732 -0.47,0.791zm0.26 0.141l0 0zm1.411 -3.544l0.06 -0.18c-0.03,0.08 -0.05,0.14 -0.06,0.18zm0.341 -1.051c0.02,-0.05 0.03,-0.09 0.03,-0.09 0,0 -0.01,0.04 -0.03,0.09zm-44.572 -83.882l1.591 -0.431c-0.53,0.13 -1.001,0.26 -1.591,0.431zm0 0l0 0zm25.454 152.86l3.413 -0.34c3.039,-0.342 8.475,-1.231 10.87,-1.982 2.443,-0.741 -0.45,0.11 -2.752,0.6 -7.616,1.617 -10.327,1.479 -17.968,1.812 -2.242,0.06 -8.457,-0.601 -10.95,-1.021 -4.734,-0.791 -8.598,-1.762 -13.082,-3.293l5.756 1.591c-25.321,-6.751 -43.809,-24.529 -52.61,-48.748 -6.23,-17.143 -5.771,-34.708 0.21,-51.64 1.85,-5.237 4.444,-10.404 7.338,-15.065 6.268,-10.096 15.592,-18.959 25.924,-25.035 0.741,-0.43 1.592,-0.881 2.492,-1.391l-5.615 3.183c1.902,-1.251 4.114,-2.553 7.097,-4.084 4.794,-2.473 -1.161,0.43 -0.14,-0.28 2.367,-1.401 9.072,-4.085 11.481,-4.945 2.132,-0.771 -2.353,0.62 -2.553,0.711l-3.093 1.111c-4.443,1.732 1.929,-1.042 2.633,-1.362 -6.076,2.246 -8.398,2.706 -14.433,6.357 1.371,-0.891 3.933,-2.322 6.075,-3.433 -4.892,2.446 -11.016,6.33 -15.044,9.849 1.562,-1.451 -1.732,1.362 -2.012,1.702l-2.613 2.412c-6.82,6.398 -13.492,16.057 -17.366,24.855 -3.262,7.457 -5.525,16.075 -6.265,24.073 0.009,-0.22 0.04,-0.65 0.049,-0.981 -1.074,6.255 -0.555,17.34 0.901,23.553l0.089 0c1.663,7.418 3.129,12.504 6.577,19.529 -0.839,-1.021 -3.418,-7.74 -4.004,-9.449l3.233 8.198c3.839,8.567 10.62,17.693 17.357,24.034 -3.305,-3.306 -7.296,-7.631 -9.96,-11.492 -1.531,-2.212 -0.51,-0.881 0.17,0.09 5.131,7.387 12.941,14.736 20.49,19.749 9.349,6.21 20.562,10.583 31.259,12.063 1.161,0.17 -0.09,0.029 -0.451,0 4.975,0.623 7.582,0.971 12.743,0.971 2.952,0 -6.757,0.23 2.662,0.11l-1.762 0.09c8.147,-0.131 12.634,-0.899 20.399,-2.973 -6.972,1.907 -14.348,2.813 -18.497,2.813l0.43 -0.061c3.633,-0.23 6.216,-0.48 10.02,-1.11 4.401,-0.745 13.305,-3.169 18.317,-5.356 0.05,-0.711 0.1,-1.411 0.15,-2.132 -7.237,3.303 -14.574,5.395 -22.301,6.326l-4.715 0.431 0.051 -0.04zm-43.871 -143.601l3.853 -2.102 -4.244 2.382c-0.26,0.14 -0.2,0.09 0.401,-0.28l-0.01 0zm67.783 132.34c0,0 -13.759,6.669 -29.908,6.075 -1.221,-0.06 -2.352,-0.09 -2.302,-0.09 -19.348,-0.941 -37.165,-9.449 -50.047,-23.923l2.132 2.272 -6.726 -8.058 0.04 0.09c-4.745,-6.576 -8.318,-13.814 -10.6,-21.481l0.711 2.042 -2.333 -8.718c0,0 0.031,0.06 0.031,0.09 -0.767,-3.859 -1.362,-8.533 -1.362,-12.883 0.06,2.072 0.14,4.144 0.371,6.156 -0.743,-7.832 -0.274,-16.378 1.651,-24.093l-0.12 0.62c4.346,-18.046 14.681,-33.065 30.428,-43.513 9.232,-6.125 17.922,-8.965 28.547,-11.041 -2.953,0.481 -4.625,0.741 -7.548,1.502l-2.102 0.51 4.625 -1.191 0 0.03 8.858 -1.732c-5.719,0.708 -7.018,0.887 -12.943,2.462 3.404,-0.96 4.935,-1.331 8.318,-1.931 -0.06,0 -1.531,0.23 -0.79,0.06 -31.527,5.147 -56.036,31.509 -59.706,63.192 -0.67,5.777 -0.609,12.836 0.43,19.069 0.31,1.812 0.881,5.055 1.331,6.636l-0.39 -2.022 2.462 8.939c0.821,2.072 1.812,4.715 2.663,6.466 1.702,3.494 1.641,3.173 1.191,2.353 -0.37,-0.851 -1.051,-2.243 -0.43,-0.991 2.212,4.484 5.195,9.249 8.598,13.393 -1.191,-1.502 -3.373,-4.655 -2.523,-3.464 8.724,11.976 20.598,20.883 34.473,25.906 6.407,2.319 10.256,3.004 16.715,3.773l-1.891 -0.26c14.276,1.877 28.797,-0.549 41.658,-7.027 0.02,-0.29 0.05,-0.57 0.07,-0.851l0.011 -0.02c0,-0.04 0,-0.08 0,-0.11l-4.365 2.072 0.771 -0.31 0.001 0.001zm-54.301 -132.991c0.601,-0.231 3.203,-1.221 3.493,-1.191l-5.415 1.982c-2.412,1.111 -0.48,0.09 1.932,-0.791l-0.01 0zm-45.763 55.154l-0.08 0.51 0.09 -0.51 -0.01 0zm-1.051 12.122c0.03,0.34 0.03,2.412 0.03,2.352 0,-0.2 -0.06,-2.612 -0.03,-2.352zm0.08 -2.863l-0.11 2.863 0.321 -6.216 -0.211 3.353zm1.081 15.996l0 0zm2.352 6.727c0.06,0.2 0.11,0.4 0.17,0.62 -0.26,-0.941 -0.54,-1.872 -0.77,-2.833 0.17,0.681 0.4,1.422 0.601,2.212l-0.001 0.001zm4.795 14.073c-1.714,-3.18 -3.768,-7.978 -4.854,-11.621 1.971,6.206 4.814,12.032 8.257,17.387l-3.403 -5.766zm7.377 10.02c-0.29,-0.38 -0.571,-0.781 -0.851,-1.161l0.851 1.161zm43.671 27.467l-3.814 -0.821c1.491,0.351 3.013,0.681 4.514,0.932l-0.7 -0.111zm-16.015 -123.141c-0.891,0.501 -1.772,1.021 -2.663,1.582l2.663 -1.582zm-11.611 -3.663l1.391 -1.002 -1.401 1.002 0.01 0zm58.685 113.421c-0.581,0.18 -1.241,0.391 -1.932,0.591 0.731,-0.2 1.392,-0.401 1.932,-0.591zm-7.137 1.832l0 0zm-47.074 -106.925l-0.12 0.09c0,0 0.08,-0.06 0.12,-0.09zm48.375 106.725c0.981,-0.201 2.493,-0.621 3.914,-1.042 -1.662,0.461 -3.633,0.932 -5.215,1.242l1.301 -0.2zm0.201 8.228c-38.429,7.313 -77.153,-20.143 -81.006,-61.341 -2.064,-22.07 7.174,-45.044 24.263,-58.998l3.703 -2.943 -2.482 1.782c3.909,-3.071 8.059,-5.878 12.852,-8.128 -3.232,1.571 -5.916,3.152 -8.989,5.356 9.436,-6.537 20.429,-10.826 32.611,-12.062 -3.514,0.31 -0.741,-0.111 -1.932,0 -13.05,1.128 -28.319,8.428 -37.855,17.276l-5.476 5.506c8.905,-10.092 21.345,-17.972 34.613,-21.251l3.433 -0.791c-2.322,0.4 -3.713,0.571 -1.281,-0.09 -23.611,5.146 -42.56,22.369 -50.638,45.084 -3.446,9.692 -3.736,15.591 -3.864,24.735 -0.066,4.732 0.809,9.003 1.671,13.593l1.222 4.455c0.65,1.982 1.221,3.744 0.941,3.033 3.526,9.881 9.144,19.126 16.655,26.416l-2.642 -2.893c3.86,3.996 5.312,5.534 9.849,9.049 8.867,6.869 20.598,11.779 31.67,13.284l-2.873 -0.371c14.994,3.11 32.168,0.25 45.663,-6.927l0.08 -0.911c-6.388,3.496 -12.776,5.735 -20.208,7.128l0.02 0.009zm-39.808 -130.949c-0.26,0.11 -0.51,0.23 -0.76,0.34l0.751 -0.34 0.009 0zm5.015 -2.072l-9.499 4.144c3.013,-1.622 6.316,-3.113 9.499,-4.134l0 -0.01zm27.636 127.886c-0.27,0.03 -0.55,0.04 -0.821,0.06l0.811 -0.06 0.01 0zm-33.912 -118.387l2.192 -1.091c-0.731,0.351 -1.461,0.721 -2.192,1.091z"/>
   </g>
  </g>
  <path fill="none" d="M136.796 295.988c2.461,-0.097 4.626,-0.225 7.017,-0.355 2.39,-0.131 5.006,-0.265 8.261,-0.493 3.256,-0.228 7.151,-0.55 10.471,-0.852 3.319,-0.302 6.061,-0.583 8.794,-0.949 2.732,-0.365 5.455,-0.814 7.654,-1.25 2.2,-0.436 3.876,-0.858 6.001,-1.331 2.126,-0.473 4.701,-0.996 6.595,-1.321 1.894,-0.325 3.108,-0.453 4.268,-0.536 1.16,-0.084 2.267,-0.124 3.155,-0.117 0.889,0.008 1.559,0.063 1.956,0.094 0.396,0.031 0.518,0.038 0.611,0.043 0.049,0.002 0.09,0.004 0.127,0.006 0.093,-0.07 0.162,-0.18 0.177,-0.779 0.016,-0.673 -0.037,-1.966 -0.106,-2.786 -0.069,-0.819 -0.154,-1.166 -0.285,-1.855 -0.131,-0.689 -0.307,-1.72 -0.651,-2.686 -0.345,-0.965 -0.858,-1.866 -1.476,-3.045 -0.619,-1.179 -1.343,-2.638 -1.783,-3.616 -0.44,-0.978 -0.596,-1.476 -0.848,-2.693 -0.251,-1.217 -0.598,-3.153 -0.953,-5.871 -0.354,-2.718 -0.716,-6.219 -1.038,-8.884 -0.322,-2.666 -0.603,-4.496 -1.081,-7.559 -0.478,-3.062 -1.152,-7.357 -1.71,-11.521 -0.558,-4.164 -1.001,-8.198 -1.348,-12.226 -0.347,-4.028 -0.598,-8.051 -0.759,-11.637 -0.161,-3.586 -0.231,-6.734 -0.287,-9.787 -0.055,-3.052 -0.095,-6.01 -0.156,-9.258 -0.06,-3.249 -0.14,-6.79 -0.108,-12.037 0.033,-5.248 0.179,-12.203 0.352,-17.466 0.174,-5.263 0.375,-8.834 0.652,-12.807 0.276,-3.973 0.628,-8.348 0.975,-12.271 0.347,-3.922 0.689,-7.393 1.122,-11.743 0.432,-4.35 0.955,-9.58 1.483,-13.99 0.528,-4.411 1.061,-8.002 1.512,-10.619 0.45,-2.618 0.817,-4.262 1.139,-5.308 0.321,-1.046 0.598,-1.494 0.803,-1.766 0.205,-0.271 0.338,-0.367 0.405,-0.414 0.066,-0.048 0.066,-0.048 0.049,0.598 -0.018,0.646 -0.053,1.939 -0.108,3.533 -0.056,1.594 -0.131,3.49 -0.173,4.967 -0.041,1.478 -0.049,2.536 -0.079,3.186 -0.03,0.65 -0.083,0.892 -0.102,1.011 -0.018,0.119 -0.003,0.117 -0.041,0.151 -0.038,0.034 -0.128,0.104 -0.133,0.68 -0.005,0.576 0.075,1.657 0.192,3.051 0.117,1.395 0.27,3.102 0.322,4.786 0.051,1.683 0.001,3.343 0.002,4.231 0,0.887 0.052,1.003 0.132,1.078 0.08,0.076 0.188,0.111 1.001,0.06 0.814,-0.051 2.333,-0.188 4.105,-0.324 1.773,-0.137 3.8,-0.273 5.955,-0.431 2.155,-0.158 4.438,-0.339 6.588,-0.463 2.15,-0.123 4.166,-0.188 5.992,-0.299 1.826,-0.111 3.46,-0.267 5.336,-0.47 1.876,-0.204 3.993,-0.455 6.015,-0.682 2.021,-0.226 3.947,-0.427 5.109,-0.565 1.162,-0.139 1.559,-0.214 1.758,-0.327 0.199,-0.113 0.199,-0.264 0.229,-0.906 0.03,-0.641 0.09,-1.772 0.108,-3.132 0.017,-1.361 -0.008,-2.95 -0.023,-4.429 -0.015,-1.478 -0.02,-2.846 -0.038,-3.724 -0.017,-0.877 -0.047,-1.264 -0.071,-1.469 -0.025,-0.205 -0.043,-0.227 -0.083,-0.294 -0.04,-0.068 -0.103,-0.181 -0.174,-0.682 -0.071,-0.5 -0.152,-1.388 -0.255,-2.32 -0.103,-0.933 -0.229,-1.911 -0.348,-2.739 -0.12,-0.827 -0.233,-1.504 -0.413,-2.544 -0.179,-1.042 -0.426,-2.447 -0.613,-3.449 -0.187,-1.002 -0.316,-1.601 -0.436,-2.27 -0.121,-0.668 -0.234,-1.408 -0.366,-2.121 -0.132,-0.713 -0.283,-1.399 -0.425,-2.156 -0.142,-0.757 -0.275,-1.584 -0.375,-2.322 -0.099,-0.738 -0.165,-1.387 -0.239,-2.029 -0.074,-0.643 -0.157,-1.279 -0.257,-2.036 -0.101,-0.757 -0.219,-1.634 -0.34,-2.526 -0.121,-0.891 -0.244,-1.796 -0.353,-2.565 -0.11,-0.768 -0.205,-1.399 -0.373,-2.344 -0.168,-0.945 -0.408,-2.203 -0.82,-4.085 -0.412,-1.881 -0.995,-4.386 -1.704,-6.89 -0.709,-2.505 -1.544,-5.009 -2.651,-7.745 -1.106,-2.736 -2.484,-5.703 -4.093,-8.851 -1.61,-3.149 -3.45,-6.478 -4.878,-8.781 -1.429,-2.304 -2.444,-3.581 -3.453,-4.629 -1.008,-1.049 -2.009,-1.869 -3.015,-2.608 -1.006,-0.739 -2.017,-1.398 -2.582,-1.773 -0.566,-0.375 -0.687,-0.465 -0.756,-0.571 -0.069,-0.105 -0.087,-0.226 -0.095,-0.303 -0.009,-0.077 -0.009,-0.109 -0.07,-0.174 -0.06,-0.066 -0.181,-0.164 -1.307,-0.714 -1.127,-0.551 -3.259,-1.555 -5.31,-2.603 -2.05,-1.048 -4.019,-2.142 -5.77,-2.976 -1.752,-0.833 -3.286,-1.407 -5.061,-1.957 -1.775,-0.551 -3.792,-1.079 -5.429,-1.507 -1.637,-0.427 -2.894,-0.754 -3.762,-1.008 -0.867,-0.254 -1.345,-0.435 -2.044,-0.7 -0.699,-0.266 -1.619,-0.615 -2.606,-0.909 -0.987,-0.295 -2.041,-0.533 -2.716,-0.687 -0.675,-0.153 -0.972,-0.221 -1.44,-0.471 -0.467,-0.25 -1.106,-0.683 -1.581,-0.937 -0.475,-0.254 -0.787,-0.329 -1.073,-0.365 -0.285,-0.035 -0.544,-0.03 -0.777,-0.03 -0.232,0 -0.438,-0.005 -1.342,-0.33 -0.904,-0.326 -2.506,-0.972 -4.026,-1.577 -1.52,-0.605 -2.959,-1.168 -4.404,-1.748 -1.446,-0.579 -2.9,-1.175 -3.816,-1.569 -0.917,-0.393 -1.297,-0.584 -1.594,-0.779 -0.298,-0.194 -0.514,-0.392 -0.705,-0.497 -0.191,-0.105 -0.356,-0.116 -0.467,-0.117 -0.11,0 -0.164,0.01 -0.251,-0.004 -0.086,-0.014 -0.204,-0.052 -0.587,-0.292 -0.382,-0.24 -1.028,-0.682 -1.678,-1.193 -0.65,-0.51 -1.304,-1.089 -1.956,-1.661 -0.653,-0.572 -1.304,-1.138 -2.311,-1.569 -1.007,-0.431 -2.37,-0.728 -3.723,-0.919 -1.353,-0.191 -2.695,-0.276 -4.576,-0.354 -1.881,-0.078 -4.3,-0.149 -7.931,-0.131 -3.631,0.017 -8.474,0.123 -12.914,0.219 -4.439,0.096 -8.475,0.183 -10.597,0.231 -2.123,0.048 -2.332,0.058 -4.152,0.203 -1.82,0.145 -5.249,0.427 -7.404,0.671 -2.155,0.244 -3.035,0.45 -3.752,0.707 -0.717,0.256 -1.27,0.563 -1.886,1.078 -0.616,0.516 -1.295,1.24 -2.019,1.877 -0.725,0.638 -1.494,1.189 -1.953,1.46 -0.459,0.272 -0.607,0.264 -0.901,0.366 -0.295,0.102 -0.735,0.313 -1.268,0.582 -0.533,0.269 -1.159,0.596 -1.919,0.922 -0.761,0.325 -1.656,0.65 -2.301,0.904 -0.645,0.254 -1.04,0.437 -1.514,0.628 -0.474,0.192 -1.027,0.39 -1.765,0.621 -0.738,0.232 -1.661,0.496 -2.558,0.836 -0.896,0.341 -1.766,0.759 -2.573,1.076 -0.808,0.316 -1.552,0.533 -2.299,0.749 -0.746,0.216 -1.496,0.432 -2.053,0.655 -0.557,0.222 -0.921,0.451 -1.207,0.636 -0.285,0.185 -0.491,0.326 -0.999,0.476 -0.508,0.15 -1.318,0.31 -1.914,0.463 -0.596,0.154 -0.978,0.301 -1.488,0.492 -0.51,0.192 -1.147,0.429 -1.75,0.617 -0.603,0.189 -1.171,0.329 -1.687,0.459 -0.516,0.13 -0.98,0.248 -1.7,0.426 -0.719,0.179 -1.693,0.418 -2.551,0.633 -0.857,0.216 -1.598,0.408 -2.171,0.57 -0.573,0.161 -0.979,0.292 -1.436,0.426 -0.456,0.134 -0.963,0.271 -1.427,0.4 -0.465,0.129 -0.887,0.249 -1.312,0.377 -0.424,0.128 -0.85,0.262 -1.203,0.399 -0.353,0.137 -0.632,0.277 -1.012,0.437 -0.38,0.159 -0.862,0.339 -1.279,0.53 -0.417,0.191 -0.769,0.394 -1.165,0.602 -0.397,0.209 -0.838,0.424 -1.221,0.617 -0.382,0.194 -0.705,0.366 -1.126,0.589 -0.421,0.223 -0.941,0.495 -1.657,0.865 -0.717,0.371 -1.631,0.838 -2.694,1.37 -1.063,0.532 -2.275,1.128 -3.18,1.576 -0.905,0.448 -1.504,0.747 -2.037,1.087 -0.533,0.341 -1.001,0.723 -1.443,1.08 -0.443,0.358 -0.86,0.689 -1.353,1.079 -0.493,0.39 -1.061,0.837 -1.779,1.475 -0.718,0.637 -1.586,1.465 -2.375,2.331 -0.79,0.866 -1.501,1.771 -2.145,2.665 -0.644,0.894 -1.22,1.777 -1.924,2.935 -0.704,1.158 -1.536,2.591 -2.208,3.821 -0.671,1.229 -1.181,2.255 -1.732,3.264 -0.551,1.008 -1.141,1.999 -1.644,2.942 -0.503,0.943 -0.918,1.838 -1.313,2.759 -0.395,0.922 -0.77,1.87 -1.152,2.756 -0.382,0.887 -0.772,1.712 -1.285,3.043 -0.513,1.331 -1.149,3.17 -1.716,4.911 -0.567,1.741 -1.065,3.386 -1.49,4.836 -0.425,1.451 -0.777,2.709 -1.129,4.225 -0.352,1.516 -0.704,3.291 -1.144,5.668 -0.44,2.376 -0.968,5.353 -1.29,7.073 -0.322,1.72 -0.438,2.183 -0.543,2.673 -0.106,0.491 -0.201,1.009 -0.4,1.833 -0.198,0.825 -0.5,1.957 -0.807,3.143 -0.307,1.187 -0.618,2.43 -0.84,3.478 -0.221,1.049 -0.352,1.904 -0.575,3.166 -0.224,1.262 -0.541,2.932 -0.787,4.297 -0.247,1.366 -0.423,2.427 -0.529,2.975 -0.105,0.548 -0.14,0.583 -0.204,0.634 -0.063,0.05 -0.155,0.115 -0.251,2.246 -0.096,2.13 -0.197,6.326 -0.275,8.622 -0.078,2.297 -0.133,2.694 0.035,2.902 0.169,0.209 0.561,0.229 1.419,0.337 0.857,0.108 2.18,0.305 4.51,0.755 2.332,0.45 5.671,1.154 8.339,1.667 2.668,0.513 4.664,0.835 6.751,1.182 2.088,0.347 4.265,0.719 7.24,1.192 2.975,0.472 6.746,1.046 9.15,1.373 2.404,0.327 3.44,0.407 3.958,0.447 0.518,0.041 0.518,0.041 0.568,-0.543 0.049,-0.583 0.149,-1.75 0.263,-2.759 0.114,-1.009 0.242,-1.86 0.394,-2.937 0.152,-1.077 0.328,-2.379 0.498,-3.576 0.17,-1.197 0.333,-2.289 0.417,-2.902 0.085,-0.614 0.089,-0.749 0.076,-0.865 -0.014,-0.116 -0.047,-0.211 -0.023,-1.818 0.024,-1.607 0.104,-4.725 0.147,-7.257 0.043,-2.532 0.048,-4.478 0.059,-5.601 0.011,-1.123 0.029,-1.422 0.067,-1.618 0.038,-0.197 0.095,-0.29 0.176,-0.338 0.08,-0.05 0.184,-0.055 0.308,0.038 0.124,0.094 0.27,0.285 0.345,0.376 0.074,0.092 0.076,0.085 0.078,0.081 0.001,-0.004 0.001,-0.004 0.115,0.253 0.114,0.256 0.343,0.769 0.597,1.463 0.254,0.694 0.533,1.569 0.762,2.507 0.229,0.938 0.408,1.939 0.607,3.547 0.2,1.608 0.422,3.823 0.739,6.228 0.316,2.406 0.729,5.001 1.468,11.393 0.739,6.392 1.805,16.58 2.64,24.511 0.835,7.931 1.439,13.604 1.811,19.699 0.372,6.095 0.513,12.613 0.503,19.654 -0.01,7.04 -0.171,14.604 -0.372,20.609 -0.202,6.004 -0.443,10.45 -0.725,14.423 -0.281,3.973 -0.603,7.473 -1.448,14.162 -0.845,6.688 -2.213,16.566 -3.007,23.777 -0.795,7.212 -1.016,11.758 -1.217,15.269 -0.202,3.51 -0.383,5.984 -0.674,8.122 -0.292,2.137 -0.694,3.937 -0.973,5.315 -0.279,1.378 -0.436,2.334 -0.453,2.935 -0.018,0.601 0.103,0.847 0.249,0.975 0.146,0.129 0.317,0.138 0.5,0.175 0.184,0.036 0.38,0.099 0.469,0.155 0.019,0.011 0.032,0.022 0.042,0.037 0.876,0.322 1.753,0.645 3.155,0.925 1.401,0.28 3.329,0.518 6.493,0.754 3.163,0.237 7.562,0.472 11.099,0.609 3.537,0.138 6.212,0.178 9.592,0.181 3.38,0.003 7.463,-0.03 11.329,-0.007 3.866,0.024 7.513,0.104 10.591,0.191 3.078,0.088 5.586,0.181 7.916,0.252 2.33,0.07 4.483,0.117 6.789,0.171 2.307,0.053 4.768,0.114 7.356,0.121 2.589,0.006 5.304,-0.041 8.04,-0.098 2.736,-0.057 5.492,-0.124 7.953,-0.221z"/>
 </g>
</svg>
