<?xml version="1.0" encoding="UTF-8"?>
<!DOCTYPE svg PUBLIC "-//W3C//DTD SVG 1.1//EN" "http://www.w3.org/Graphics/SVG/1.1/DTD/svg11.dtd">
<!-- Creator: CorelDRAW 2018 (64 Bit Versão de avaliação) -->
<svg xmlns="http://www.w3.org/2000/svg" xml:space="preserve" width="187px" height="148px" version="1.1" shape-rendering="geometricPrecision" text-rendering="geometricPrecision" image-rendering="optimizeQuality" fill-rule="evenodd" clip-rule="evenodd"
viewBox="0 0 186999 147486"
 xmlns:xlink="http://www.w3.org/1999/xlink">
 <g id="Camada_x0020_1">
  <metadata id="CorelCorpID_0Corel-Layer"/>
  <path id="d1" fill="#F00808" d="M178015 69357c190,161 376,309 562,457 114,1062 218,2111 314,3160 59,-67 113,-135 168,-215 217,2407 399,4814 571,7207 86,67 168,134 250,202 45,780 86,1560 127,2326 127,2555 218,5110 272,7664 123,108 245,215 368,323 -55,-2797 -159,-5593 -300,-8391 -27,-524 -59,-1062 -90,-1600 86,68 167,135 249,202 -195,-2945 -426,-5889 -694,-8848 59,-67 113,-134 168,-201 -18,-256 -46,-511 -77,-767 140,121 281,229 426,336 46,41 95,81 141,108 68,67 136,121 204,175 281,3119 527,6239 735,9359 73,-81 150,-175 227,-269 18,376 37,739 55,1102 158,2972 268,5930 331,8888 113,-121 231,-255 349,-390 -59,-2729 -163,-5459 -304,-8189 -27,-591 -59,-1196 -95,-1801 77,-81 150,-162 223,-256 -182,-2568 -386,-5136 -618,-7718 68,54 137,108 200,161 -77,-874 -168,-1761 -268,-2649 159,-188 313,-376 459,-564 131,1223 258,2447 367,3670 68,54 136,108 204,162 182,1990 336,3980 481,5957 73,-81 146,-175 218,-270 109,1507 186,3013 268,4519 82,1828 150,3657 209,5472 118,-121 236,-255 354,-390 -59,-1586 -114,-3173 -182,-4773 -100,-1735 -195,-3469 -318,-5217 73,-81 146,-175 218,-269 -99,-1426 -213,-2851 -344,-4290 72,54 136,108 199,162 -177,-2017 -386,-4034 -603,-6065 158,-188 308,-376 458,-564 254,2366 495,4719 708,7072 63,68 132,121 200,175 81,847 145,1694 208,2528 73,-81 141,-161 218,-255 191,2649 345,5284 481,7920 23,699 50,1385 73,2070 118,-134 231,-268 345,-403 -18,-444 -32,-888 -50,-1345 -141,-2877 -309,-5755 -518,-8646 68,-80 146,-161 218,-255 -22,-296 -40,-592 -72,-888 72,54 140,108 209,162 -291,-3160 -613,-6320 -967,-9480 72,-94 150,-188 227,-282 95,80 190,161 286,228 354,3160 676,6320 962,9480 54,-67 113,-135 168,-202 27,296 54,592 77,874 66,65 132,122 200,176 -103,-1291 -201,-2658 -232,-3913l-436 -5757c-439,-3507 -671,-7426 -1225,-10942 -1612,-10225 -3802,-20189 -6162,-30214 -207,-880 -394,-1460 -643,-2332 -1682,-5900 -2814,-10236 -4915,-16286l-1855 -6100 -3888 459 -442 52c-1695,456 -3501,895 -5549,1300 -1029,203 -2119,397 -3270,582 3747,8831 7169,17594 9710,26478 2583,9030 4316,18179 5891,27269 490,3335 939,6669 1343,9991 68,53 141,107 204,161 345,3214 649,6414 921,9614 10,135 19,256 28,376 86,68 172,135 259,202 217,3053 381,6105 508,9157 -77,94 -155,175 -227,256 -59,80 -123,148 -182,215 64,54 132,107 196,161 81,67 163,135 245,202 122,107 245,215 372,323 -23,-511 -41,-1036 -59,-1560 -118,-2810 -273,-5621 -472,-8431 86,67 172,134 254,202 -50,-673 -100,-1345 -150,-2017 59,-67 118,-135 168,-216 -227,-2527 -472,-5055 -740,-7597 191,162 382,310 572,458 232,2191 445,4383 635,6575 59,-67 118,-135 168,-202 114,1264 205,2528 295,3779 87,80 173,147 254,215 128,1909 236,3819 332,5728 54,1425 104,2850 145,4262 123,108 245,215 368,310 -46,-1654 -105,-3308 -168,-4962 -91,-1667 -182,-3348 -291,-5029 82,81 168,148 250,215 -127,-1815 -259,-3630 -427,-5446 59,-67 114,-134 168,-201 -122,-1385 -258,-2784 -408,-4182zm-147290 -66246l-636 -106c-3700,-627 -6882,-1324 -9905,-2042 -1378,-162 -2755,-325 -4131,-489l-1910 6284c-2101,6050 -3233,10386 -4916,16286 -249,872 -435,1452 -642,2332 -2360,10025 -4550,19989 -6162,30214 -554,3516 -787,7435 -1226,10942l-435 5757c-42,1725 -213,3661 -346,5323l85 -66c100,-1426 222,-2864 354,-4303 54,81 109,148 168,215 186,-2017 394,-4034 608,-6064 190,-148 381,-296 572,-458 -254,2367 -504,4734 -717,7087 59,67 113,134 172,201 -77,848 -150,1695 -213,2542 81,-67 168,-135 254,-215 -191,2649 -350,5297 -486,7933 -27,686 -50,1372 -72,2057 122,-94 245,-202 367,-309 18,-444 37,-901 50,-1358 145,-2878 313,-5755 527,-8633 86,-67 168,-134 249,-215 23,-282 50,-578 77,-874 55,67 114,135 168,202 286,-3160 608,-6320 962,-9480 96,-67 191,-148 286,-228 78,94 155,188 227,282 -354,3160 -676,6320 -967,9480 69,-54 137,-108 209,-162 -31,296 -50,592 -72,888 72,94 150,175 218,255 -209,2891 -377,5769 -518,8646 -18,457 -32,901 -50,1345 114,135 227,269 345,403 23,-685 50,-1371 73,-2070 136,-2636 290,-5271 481,-7920 77,94 145,174 218,255 63,-834 127,-1681 208,-2528 68,-54 137,-107 200,-175 214,-2353 454,-4706 708,-7072 150,188 300,376 459,564 -218,2031 -427,4048 -604,6065 63,-54 127,-108 200,-162 -132,1439 -246,2864 -345,4290 72,94 145,188 218,269 -123,1748 -218,3482 -318,5217 -68,1600 -123,3187 -182,4773 118,135 236,269 354,390 59,-1815 127,-3644 209,-5472 82,-1506 159,-3012 268,-4519 72,95 145,189 218,270 145,-1977 299,-3967 481,-5957 68,-54 136,-108 204,-162 109,-1223 236,-2447 367,-3670 146,188 300,376 459,564 -100,888 -191,1775 -268,2649 64,-53 132,-107 200,-161 -232,2582 -436,5150 -617,7718 72,94 145,175 222,256 -36,605 -68,1210 -95,1801 -141,2730 -245,5460 -304,8189 118,135 236,269 349,390 64,-2958 173,-5916 331,-8888 18,-363 37,-726 55,-1102 77,94 154,188 227,269 208,-3120 454,-6240 735,-9359 68,-54 136,-108 204,-175 46,-27 95,-67 141,-108 145,-107 286,-215 426,-336 -31,256 -58,511 -77,767 55,67 109,134 168,201 -268,2959 -499,5903 -694,8848 82,-67 163,-134 249,-202 -31,538 -63,1076 -90,1600 -141,2798 -245,5594 -300,8391 123,-108 245,-215 368,-323 54,-2554 145,-5109 272,-7664 41,-766 82,-1546 127,-2326 82,-68 164,-135 250,-202 172,-2393 354,-4800 571,-7207 55,80 109,148 168,215 96,-1049 200,-2098 314,-3160 186,-148 372,-296 562,-457 -149,1398 -285,2797 -408,4182 54,67 109,134 168,201 -168,1816 -300,3631 -427,5446 82,-67 168,-134 250,-215 -109,1681 -200,3362 -291,5029 -63,1654 -122,3308 -168,4962 123,-95 245,-202 368,-310 41,-1412 91,-2837 145,-4262 96,-1909 204,-3819 332,-5728 81,-68 167,-135 254,-215 90,-1251 181,-2515 295,-3779 50,67 109,135 168,202 190,-2192 403,-4384 635,-6575 191,-148 381,-296 572,-458 -268,2542 -513,5070 -740,7597 50,81 109,149 168,216 -50,672 -100,1344 -150,2017 82,-68 168,-135 254,-202 -199,2810 -354,5621 -472,8431 -18,524 -36,1049 -58,1560 126,-108 249,-216 372,-323 81,-67 163,-135 245,-202 63,-54 131,-107 195,-161 -59,-67 -123,-135 -182,-215 -72,-81 -149,-162 -227,-256 127,-3052 291,-6104 508,-9157 87,-67 173,-134 259,-202 9,-120 19,-241 28,-376 272,-3200 576,-6400 921,-9614 63,-54 136,-108 204,-161 404,-3322 853,-6656 1343,-9991 1575,-9090 3308,-18239 5891,-27269 2536,-8864 5948,-17607 9684,-26418zm-21275 58111c-36,-41 -72,-95 -109,-148 -13,94 -27,175 -36,255 46,-26 100,-67 145,-107zm169704 0c36,-41 72,-95 109,-148 13,94 27,175 36,255 -45,-26 -100,-67 -145,-107z"/>
  <path id="calcao_contorno" fill="none" d="M69622 5532c-9320,-113 -15317,-100 -21532,-475 -6215,-375 -12649,-1137 -18001,-2044 -5351,-908 -9620,-1960 -13890,-3013l-2056 6766c-2101,6050 -3233,10386 -4916,16285 -249,873 -435,1453 -642,2333 -2360,10025 -4550,19989 -6162,30214 -554,3516 -787,7435 -1226,10942l-435 5757c-45,1830 -234,3899 -370,5626 -78,987 9,2192 -3,3205 -13,1158 -208,1511 -203,2794 9,2038 69,4202 11,6226 -28,1013 -181,1575 -197,2723l192 9099c-30,8303 172,15985 183,24267 2,1267 207,1666 202,2996 -4,925 -65,2104 5,3001 131,1645 218,4048 519,5469 1056,4985 5703,6849 10073,7859 3312,766 6714,1111 10138,1576 4010,545 19376,399 23493,-86 6450,-761 15507,-276 22162,-1971 7272,-1853 6398,-2822 7435,-7425 870,-3869 2219,-13998 3169,-16919 807,-2484 1721,-7868 2195,-10524 344,-1990 1133,-3678 1718,-5612 1344,-4441 1694,-7626 2920,-12169 377,-1398 722,-2380 1102,-3854 997,-3864 2190,-8249 2968,-12117 575,-2856 1095,-5360 1653,-8289l2191 -12734c189,-998 230,-2248 1182,-2596 952,348 993,1598 1182,2596l2191 12734c558,2929 1077,5433 1652,8289 779,3868 1972,8253 2968,12117 380,1474 725,2456 1103,3854 1226,4543 1576,7728 2919,12169 585,1934 1375,3622 1719,5612 473,2654 1389,8042 2195,10524 949,2921 2299,13050 3169,16919 1037,4603 163,5572 7434,7425 6656,1695 15712,1210 22163,1971 4117,485 19483,631 23492,86 3425,-465 6827,-810 10138,-1576 4371,-1010 9018,-2874 10074,-7859 301,-1421 388,-3824 519,-5469 70,-897 9,-2076 5,-3001 -5,-1330 200,-1729 202,-2996 11,-8282 213,-15964 183,-24267l191 -8764 -196 -3058c-58,-2024 2,-4188 11,-6226 4,-1283 -190,-1636 -204,-2794 -11,-1013 76,-2218 -2,-3205 -136,-1727 -325,-3796 -370,-5626l-436 -5757c-439,-3507 -671,-7426 -1225,-10942 -1612,-10225 -3802,-20189 -6162,-30214 -207,-880 -394,-1460 -643,-2333 -1682,-5899 -2814,-10235 -4915,-16285l-2057 -6766c-2951,866 -5902,1731 -9677,2477 -3774,745 -8371,1369 -13806,1869 -5434,500 -11706,875 -19026,1150 -7321,274 -15692,449 -26199,418 -10507,-31 -23150,-269 -32470,-382z"/>
 </g>
</svg>
