<?xml version="1.0" encoding="utf-8"?>
<!-- Generator: Adobe Illustrator 16.0.3, SVG Export Plug-In . SVG Version: 6.00 Build 0)  -->
<!DOCTYPE svg PUBLIC "-//W3C//DTD SVG 1.1//EN" "http://www.w3.org/Graphics/SVG/1.1/DTD/svg11.dtd">
<svg version="1.1"
	 id="Layer_1" shape-rendering="geometricPrecision" text-rendering="geometricPrecision" image-rendering="optimizeQuality" xmlns:xodm="http://www.corel.com/coreldraw/odm/2003"
	 xmlns="http://www.w3.org/2000/svg" xmlns:xlink="http://www.w3.org/1999/xlink" x="0px" y="0px" width="187px" height="148px"
	 viewBox="0 0 187 148" enable-background="new 0 0 187 148" xml:space="preserve">
<g>
	<g>
		<linearGradient id="SVGID_1_" gradientUnits="userSpaceOnUse" x1="93.4497" y1="0.2524" x2="93.4497" y2="147.7397">
			<stop  offset="0" style="stop-color:#F00808"/>
			<stop  offset="1" style="stop-color:#F00808;stop-opacity:0"/>
		</linearGradient>
		<path fill="url(#SVGID_1_)" d="M70.259,116.295c-0.014-0.086-0.021-0.175-0.021-0.269c0-3.07-0.785-0.97-3.169-1.052
			c-5.323-0.18-2.13,3.662-3.757,3.928c-2.089,0.342,0.019,1.395,0.831,1.917c0.299-0.259,0.644-0.466,0.957-0.448
			c2.176,0.125,0.239-2.865,1.909-2.804c1.38,0.05,1.16,2.176,3.171,1.521c0.34-0.111,0.713-0.998-0.15-1.582
			C69.611,117.221,69.444,116.553,70.259,116.295z M49.097,143.323c-1.306,1.279-1.259-1.641-2.809,0.356
			c-0.643,0.828,0.369,2.875-1.323,3.088c-0.316,0.04-0.5,0.27-0.58,0.582c0.15-0.014,0.291-0.029,0.42-0.044
			c1.2-0.142,2.49-0.241,3.839-0.318c0.016-0.759,0.816-1.681,2.059-2.134c0.173-0.064,0.658-0.428,0.665-0.428
			C52.035,142.498,49.784,142.65,49.097,143.323z M43.048,129.936c0.003-1.905-1.25-4.082,1.832-4.545
			c2.513-1.815-0.94-3.94-4.19-3.611c-3.618,0.366-2.352,1.302-2.754,3.868c-0.212,1.353-0.797,2.487-2.407,3.041
			c-1.482,0.511-4.51,1.683-2.461,3.58c0.65,0.602,3.292,0.895,3.846-0.255c0.334-0.693,1.964-3.139,2.738-2.006
			C40.154,130.74,43.041,133.534,43.048,129.936z M59.738,135.898c-0.647-1.359-3.771-0.352-4.487,0.458
			c-0.441,0.498-0.882,1.069-1.623,1.094c-2.14,0.072-2.026,4.392-0.291,4.05c2.818-0.556,1.518,1.905,3.226,3.049
			c0.875,0.586,2.618,0.164,2.708-0.869c0.152-1.748-1.577-2.746-0.881-4.116C59.029,138.303,60.378,137.241,59.738,135.898z
			 M33.012,140.409c-0.854-1.795,0.898-2.563-1.41-4.188c-2.307-1.623-3.76,0.002-4.144,1.113c-0.384,1.109,1.282,1.965,2.136,2.818
			c0.855,0.855-0.47,0.939-1.538,1.239c-1.068,0.299-2.392,1.196-2.991,1.069c-0.598-0.129,0.257-1.326,0.599-2.863
			c0.341-1.538-0.855-1.196-1.496-2.307c-0.432-0.75-0.281-1.461-0.373-2.119c0.631-0.066,1.208-0.35,1.292-1.047
			c0.062-0.52,0.054-0.894,0.021-1.244c-1.141,0.367-2.5-0.209-3.259-2.554c-1.022-3.157-6.883-4.212-4.529,2.313
			c0.62,1.718,0.083,2.356-0.747,2.869c0.015,0.312-0.004,0.726-0.049,1.279c-0.068,0.826-0.358,2.463,0.789,2.676
			c0.02,0.004,2.084,0.687,2.178,0.229c0.406-0.083,0.406-1.14,0.516-2.243c0.601,0.46,2.367-0.318,2.752,0.18
			c0.426,0.557-0.684,1.026-0.684,2.18c0,1.154,0.555,0.982-0.171,2.137c-0.726,1.153,0.171,1.581,0.598,2.691
			c0.427,1.111,1.623,0.3,2.307-0.17c0.684-0.471,0.428,0.256,1.538,0.726c0.682,0.288,4.663,0.312,4.572-3.208
			c-0.013-0.521,2.552,0.127,1.854,3.051c-0.222,0.932-1.131,1.87-1,2.465c0.019,0.084,0.039,0.162,0.059,0.237
			c1.093-0.002,2.197-0.011,3.282-0.024c0.501-0.649,0.59-1.608,0.59-3.461C35.704,141.69,33.952,142.461,33.012,140.409z
			 M61.159,104.244c-1.163,0.434-1.761,1.264-2.165,2.225c-1.568,3.72-0.149,0.959,1.291,2.426c1.014,1.033,0.541,3.421,3.185,2.701
			c3.964-1.076-1.751-3.684-1.462-4.84C62.163,106.133,65.853,102.498,61.159,104.244z M45.353,139.68
			c0.418-0.482,0.901-0.321,1.416,0.033c0.514,0.354,1.77,0.097,2.027-0.482c0.258-0.58,0.129-2.124-1.126-2.318
			c-1.255-0.193-1.545,0.516-2.285,0.869s-1.223-0.449-2.221-0.869c-2.235-0.937-3.996-0.021-3.057,2.672
			c0.483,1.383,1.738,1.448,2.736,1.545C43.84,141.226,44.934,140.164,45.353,139.68z M34.898,4.084
			c0.056-0.012,0.103-0.035,0.145-0.065l-0.369-0.051C34.709,4.058,34.759,4.113,34.898,4.084z M0.367,124.19
			c0.025-0.048,0.049-0.104,0.074-0.173c0.091-0.25,0.048-0.471-0.079-0.685L0.367,124.19z M1.256,107.932
			c0.56-0.465,0.653-2.239-0.607-2.287c-0.148-0.004-0.3,0.002-0.457,0.02c0.002,0.744,0.006,1.484,0.011,2.221
			C0.629,108.006,1.015,108.133,1.256,107.932z M70.122,137.517c-0.434-0.911,0.456-1.302-0.716-2.126
			c-1.172-0.825-1.91,0-2.105,0.563c-0.196,0.564,0.651,0.998,1.085,1.433c0.434,0.434-0.239,0.478-0.781,0.63
			c-0.543,0.151-1.216,0.608-1.52,0.542c-0.303-0.065,0.131-0.672,0.304-1.454c0.174-0.781-0.434-0.608-0.76-1.172
			c-0.325-0.564,0-1.085-0.39-1.541c-0.576-0.671-2.489-0.2-1.801,1.52c0.173,0.435,1.258-0.087,1.475,0.195
			c0.217,0.282-0.347,0.521-0.347,1.106s0.282,0.5-0.087,1.086c-0.369,0.586,0.087,0.803,0.304,1.367
			c0.217,0.564,0.825,0.151,1.172-0.088c0.348-0.238,0.217,0.131,0.782,0.369c0.346,0.146,2.368,0.159,2.322-1.629
			c-0.007-0.266,1.296,0.064,0.942,1.55c-0.113,0.474-0.575,0.95-0.508,1.251c0.217,0.977,0.694,0.782,1.302,0.434
			c0.608-0.346,0.695-0.78,0.695-2.082C71.489,138.168,70.6,138.559,70.122,137.517z M12.552,139.313
			c-1.652-0.688-2.945-0.07-2.115,2.05c0.291,0.743,0.194,1.017,0.791,1.485c0.597,0.468,1.953,0.436,2.454-0.016
			c0.5-0.453,0.533-1.453,0.048-1.857C13.246,140.571,13.52,139.715,12.552,139.313z M18.997,146.926
			c-0.023,0.056-0.042,0.106-0.059,0.154c0.676,0.088,1.353,0.174,2.031,0.266C21.041,146.306,19.826,144.86,18.997,146.926z
			 M8.394,126.967c0.864-0.679,4.781-0.604,3.325-2.904c-0.008-0.014-2.145-1.475-2.429-2.614c-0.105,0.026-0.215,0.046-0.334,0.06
			c-1.824,0.211-1.863,0.814-1.696,3.188c0.166,2.372-2.323,2.008-3.22,2.71s-1.189,1.931-0.716,3.671
			c0.473,1.739,1.053,2.053,0.439,3.319c-0.323,0.666-1.134,1.09-2.036,1.2c-0.218,0.125-0.539,0.178-0.909,0.203
			c0.07,0.806,0.158,1.566,0.283,2.158c0.025,0.115,0.052,0.229,0.081,0.342c1.164-0.597,2.151-1.315,2.17-1.317
			c3.318-0.406,1.897,0.421,4.359,0.753c0.904,0.122,1.821-0.46,2.399-2.693C12.02,127.662,2.576,131.531,8.394,126.967z
			 M5.088,143.502c1.242,0.784,2.659,1.354,4.11,1.793C8.976,144.198,7.88,143.26,5.088,143.502z M63.328,122.704
			c-0.985,0.214-2.368-0.192-3.033-0.167c-0.646,0.026-1.172-0.004-1.597-0.076c-0.012,1.676-0.656,2.991-2.925,2.282
			c-1.214-0.379-2.051-2.509-4.049-1.342c-1.026,0.599,0.166,3.392-0.945,5.21c0.349,0.346,0.4,1.063,0.4,1.667
			c0,1.74,0.366,1.588,2.553,1.476c0.989-0.052,1.688-1.541,0.762-2.69c-1.329-1.652,0.628-1.95,1.99-0.979
			c0.758,0.539,4.55-0.697,2.632-1.402c-0.222-0.082-1.048-0.365-1.217-0.321c-1.134-0.851,2.502-0.808,2.805-1.862
			C61.009,123.438,63.072,125.584,63.328,122.704z M160.641,104.244c-1.162,0.434-1.761,1.264-2.166,2.225
			c-1.566,3.72-0.148,0.959,1.292,2.426c1.013,1.033,0.541,3.421,3.185,2.701c3.965-1.076-1.75-3.684-1.461-4.84
			C161.645,106.133,165.334,102.498,160.641,104.244z M161.707,147.652c1.025-0.035,1.939-0.079,2.695-0.135
			c-0.18-0.21-0.457-0.389-0.789-0.529C162.938,146.701,162.245,147.152,161.707,147.652z M169.604,137.517
			c-0.435-0.911,0.455-1.302-0.717-2.126c-1.172-0.825-1.91,0-2.105,0.563c-0.195,0.564,0.652,0.998,1.086,1.433
			c0.434,0.434-0.239,0.478-0.782,0.63c-0.542,0.151-1.215,0.608-1.519,0.542c-0.305-0.065,0.129-0.672,0.304-1.454
			c0.174-0.781-0.435-0.608-0.759-1.172c-0.326-0.564,0-1.085-0.392-1.541c-0.575-0.671-2.489-0.2-1.801,1.52
			c0.173,0.435,1.258-0.087,1.476,0.195c0.217,0.282-0.348,0.521-0.348,1.106s0.282,0.5-0.087,1.086s0.087,0.803,0.304,1.367
			s0.825,0.151,1.172-0.088c0.348-0.238,0.217,0.131,0.781,0.369c0.348,0.146,2.369,0.159,2.323-1.629
			c-0.007-0.266,1.296,0.064,0.942,1.55c-0.113,0.474-0.365,3.013-0.297,3.315c0.217,0.977,1.699,0.622,2.308,0.275
			c0.608-0.348-0.523-2.687-0.523-3.988C170.97,138.168,170.081,138.559,169.604,137.517z M162.811,122.704
			c-0.986,0.214-2.369-0.192-3.033-0.167c-0.646,0.026-1.172-0.004-1.598-0.076c-0.012,1.676-0.656,2.991-2.925,2.282
			c-1.214-0.379-2.052-2.509-4.049-1.342c-1.027,0.599,0.165,3.392-0.944,5.21c0.348,0.346,0.398,1.063,0.398,1.667
			c0,1.74,0.367,1.588,2.554,1.476c0.989-0.052,1.688-1.541,0.762-2.69c-1.329-1.652,0.628-1.95,1.99-0.979
			c0.758,0.539,4.55-0.697,2.632-1.402c-0.222-0.082-1.048-0.365-1.217-0.321c-1.134-0.851,2.501-0.808,2.805-1.862
			C160.49,123.438,162.555,125.584,162.811,122.704z M159.22,135.898c-0.647-1.359-3.771-0.352-4.487,0.458
			c-0.44,0.498-0.882,1.069-1.623,1.094c-2.14,0.072-2.024,4.392-0.291,4.05c2.818-0.556,1.519,1.905,3.227,3.049
			c0.875,0.586,2.618,0.164,2.708-0.869c0.151-1.748-1.577-2.746-0.882-4.116C158.511,138.303,159.859,137.241,159.22,135.898z
			 M180.146,135.4c-1.092-0.188-1.153,0.654-1.434,0.094c-0.281-0.561,0.748-0.997,1.09-1.9c0.344-0.903-1.09-0.219-0.996-1.184
			c0.094-0.967,1.775-1.309,2.367-2.213c0.592-0.902-0.031-1.62-1.059-2.057c-1.029-0.436-2.088,0.468-2.805,1.216
			s-0.063,1.526-0.717,2.056c-0.654,0.53-1.152-0.498-2.306-0.186c-1.704,0.46-2.47,3.395-0.622,3.395
			c1.059,0,1.121,0.344,1.184,1.715s1.465,0.996,2.025,1.338c0.561,0.344,0.811,1.029,0.654,2.058s-0.467,1.246-0.031,1.933
			c0.436,0.685,1.464,0.653,1.9,0.403c0.436-0.249,1.465-0.249,1.09-1.869c-0.373-1.62-0.903-1.246-0.965-2.087
			c-0.063-0.841,1.713-0.997,1.963-1.402C181.734,136.305,181.236,135.588,180.146,135.4z M177.465,98.079
			c1.354-0.834,1.663-1.062,2.916,0.063c2.098,1.883-1.154,7.067,4.11,5.006c0.776-0.305,1.569-0.375,2.319-0.282l-0.002-0.644
			l0.043-1.979c-0.367,0.193-0.845,0.285-1.463,0.223c-3.285-0.326-0.891-3.707-1.668-5.041c-0.533-0.912-2.236-0.354-2.05-1.271
			c0.95-4.661-2.584-1.579-2.584-5.526c0-2.537,2.405-1.548,2.17-5.409c-0.149-2.48,3.372-1.664,3.903-0.594
			c0.972,1.959-1.855,3.122-1.389,4.049c1.166,2.313-1.889,4.342,1.931,4.07c0.394-0.027,0.771-0.145,1.11-0.196l-0.008-0.146
			c-0.059-2.024,0.002-4.188,0.01-6.227c0.004-1.282-0.189-1.636-0.203-2.794c-0.012-1.013,0.076-2.218-0.002-3.205l-0.032-0.404
			c-0.468-0.018-0.991-0.068-1.574-0.159c-2.501-0.394-0.174,2.718-2.813,3.344c-3.799,0.901-1.332-2.771-6.554-2.62
			c-2.317,0.066-1.155-6.09,3.597-4.452c2.781,0.959,5.188-0.029,7.045-0.322c-0.018-0.343-0.03-0.682-0.039-1.012l-0.436-5.757
			l-0.064-0.534c-0.307-0.564-0.85-0.886-2.194-0.621c-2.03,0.4-2.164-4.654,0.34-4.738c0.517-0.017,0.908-0.261,1.249-0.578
			c-0.154-1.521-0.328-3.03-0.555-4.471c-0.301-1.907-0.621-3.804-0.96-5.695c-0.077,0.053-0.158,0.108-0.242,0.168
			c-0.589,0.421-1.81-0.884-2.399-0.842s-0.463,0.8-0.127,1.137c0.338,0.337,1.137-0.042,1.769,0.715
			c0.631,0.758-0.126,1.011-0.673,1.895c-0.549,0.884-1.896,0.547-2.61,0.168c-0.716-0.379-0.463-1.389-0.084-2.273
			c0.378-0.884-0.379-1.136-1.433-1.01c-1.051,0.126-0.672,0.673-1.557,1.305c-0.884,0.631-0.631,0.084-1.726,0.463
			s-0.296,0.842-0.757,1.599c-0.465,0.758-1.012,0.59-1.348,1.137c-0.337,0.547,0.063,1.936-0.4,2.483
			c-0.143,0.168-0.539,0.334-1.002,0.396v1.283c-1.938-2.307-1.043-3.788,0.203-4.287V53.75c0.063-0.202,0.055-0.451,0-0.743v-2.994
			c0.015-0.03,0.027-0.059,0.041-0.089c0.295-0.631,1.853-0.126,2.736-0.421c0.885-0.294,0.211-1.094,0.717-2.231
			c0.504-1.136,1.305-0.21,2.062-0.883c0.758-0.674-0.126-0.421-0.295-1.853c-0.169-1.431,1.896-1.853,3.157-1.769
			c1.263,0.085,1.053,0.8,1.221,1.558c0.169,0.758-0.21,1.263,0.253,2.147c0.44,0.842,0.729-0.035,1.81-0.011
			c-0.814-4.267-1.711-8.506-2.658-12.74c-0.012-0.042-0.021-0.087-0.028-0.132c-0.595-2.651-1.206-5.3-1.831-7.953
			c-0.207-0.88-0.395-1.46-0.643-2.333c-1.683-5.899-2.814-10.235-4.916-16.285l-2.057-6.766c-2.951,0.866-5.902,1.731-9.677,2.477
			c-3.774,0.745-8.371,1.369-13.806,1.869c-3.807,0.35-8.022,0.639-12.723,0.875c-0.309,0.223-0.813,0.286-1.005,0.049
			c-1.703,0.082-3.468,0.157-5.3,0.226c-7.32,0.274-15.691,0.449-26.198,0.418c-10.507-0.031-23.15-0.269-32.47-0.382
			c-9.32-0.113-15.317-0.1-21.532-0.475c-3.941-0.238-7.97-0.631-11.755-1.118c0.013,0.237,0.011,0.526-0.418,0.713
			c-0.439,0.191-0.531,0.354-0.772,0.545c-0.397,0.316-1.177,0.348-1.111-0.24c0.036-0.312,0.149-0.333,0.156-0.531
			c0.007-0.198,0-0.212-0.347-0.149c-0.476,0.088-0.465-0.365-0.245-0.713c-1.209-0.176-2.383-0.36-3.509-0.551
			c-5.351-0.908-9.62-1.96-13.89-3.013l-2.056,6.766c-2.101,6.05-3.233,10.386-4.916,16.285c-0.249,0.873-0.435,1.453-0.642,2.333
			c-1.911,8.115-3.71,16.19-5.181,24.395c0.5,0.651,0.616,1.585,0.345,2.498c-0.184,0.619-0.579,0.77-0.932,0.892
			c-0.135,0.808-0.266,1.618-0.394,2.429c-0.287,1.822-0.488,3.752-0.676,5.677c3.183,0.015,7.595,1.559,7.908,1.98
			c2.542,3.414,3.336-0.744,7.018,0.007c1.511,0.308,1.79,2.896,1.011,3.761c-2.224,2.472-2.592,0.947-3.708,0.478
			c-3.062-1.287-2.86,0.826-1.528,2.703c1.631,2.301-0.435,5.344-1.421,5.667c-2.933,0.962-2.007-2.462-2.479-4.035
			c-0.836-2.792-2.886-3.48-5.238-2.423c-0.672,0.302-3.063-0.718-1.565-2.21c1.359-1.353,5.903,0.358,4.053-2.958
			c-0.694-1.243-3.028,0.215-4.431,0.837c-0.054,0.492-0.11,0.979-0.17,1.458l-0.308,4.069c0.805,0.598,0.82,1.568,0.756,2.131
			c-0.103,0.899-0.474,1.268-0.969,1.451c-0.08,1.283-0.194,2.583-0.284,3.732c-0.078,0.987,0.009,2.192-0.003,3.205
			c-0.009,0.84-0.114,1.256-0.169,1.91c1.074,0.225,4.711,0.959,3.452-1.109c-0.762-1.254-2.624-3.563,0.165-4.312
			c0.913-0.245,1.981-1.274,3.285-0.756c2.803,1.116,3.106,4.061,1.61,6.362c-1.143,1.761-2.719,0.338-3.318,1.67
			c-0.52,1.156-1.69,2.349-2.791,3.023c-0.844,0.518-1.446,0.999-2.404,0.961c-0.003,0.428-0.01,0.852-0.022,1.271
			c-0.018,0.634-0.084,1.092-0.135,1.627c0.215,0.462,0.279,0.917,0.483,1.12c0.374,0.375,1.214-0.325,2.474,0
			c1.261,0.328,1.728,1.588,1.634,2.008c-0.093,0.421-0.233,1.681-1.68,1.4c-1.447-0.279-1.541-0.934-2.428-1.166
			c-0.201-0.054-0.359-0.016-0.496,0.073l0.143,6.759l-0.002,0.666c0.264,0.148,0.604,0.235,1.066,0.235
			c2.334,0,3.641-1.866,5.135-0.933c1.493,0.933,1.213,2.708,2.053,3.734c0.841,1.026,1.867,1.493,1.867,3.36
			s-1.4,4.202-2.987,4.481c-1.587,0.279-2.147-0.187-2.427-1.867c-0.28-1.68-0.187-2.428-1.027-2.428c-0.774,0-2.497,1.9-3.64,1.545
			l0.012,1.136c0.502,0.312,0.973,0.674,1.389,1.017c1.383,1.146,0.412,2.616,1.644,3.398c1.232,0.781,1.866-0.906,3.932-0.782
			c4.488,0.269,2.228,1.894,4.372,3.041c1.792,0.958,4.292,1.265,4.749,1.746c3.752,3.956,11.414-2.205,11.002,7.101
			c1.751,2.91,6.049,0.707,4.836-0.436c-2.658-1.415-2.594-3.928,0.443-4.379c0.264-0.039,1.385-0.423,2.431-0.824
			c0.918-0.352,3.711-1.758,1.39-2.77c-1.757-0.767-6.278,1.219-6.278-0.894c0-1.426,2.166-3.331-0.274-3.227
			c-1.121,0.047-1.028,3.151-2.102,4.862c-1.505,2.397-4.247-0.182-4.43-1.744c-0.229-1.943,1.947-4.021,1.759-6.385
			c-0.205-2.574,3.079-3.531,4.855-1.647c4.423,4.688,10.105-3.156,14.984-0.421c1.384,0.775,4.24,5.77,1.802,6.881
			c-2.947,0-4.971-3.537-4.971,0.426c0,1.561,5.374,1.564,7.02,0.782c1.346-0.64,5.229-1.144,7.644-0.089
			c2.548,1.113,3.223-0.073,1.978-2.286c-0.477-0.847-1.733-0.31-3.379-0.671c-0.785-0.172,0.4-1.01,0.757-1.896
			c0.653-1.617-1.469-2.068-1.755-2.068c-4.608,0-4.913-2.836-0.555-2.705c0.482,0.015,2.149-1.24-0.344-1.769
			c-7.426-1.571-1.696,4.028-6.347,2.621c-2.807-0.851-5.004-3.803-2.107-4.276c3.125-0.513,2.336,0.699,3.209-3.584
			c0.212-1.039,2.179-1.254,3.473-0.209c4.436,3.575,2.053-2.567,0.642-2.886c-0.199-0.042-2.508-1.676-3.923-1.969
			c-1.433-0.263-1.624,0.868-1.52,2.487c0.131,2.047,0.1,3.013-0.655,4.078c-0.934,1.32-2.726,2.346-3.694,0.442
			c-1.812-3.562-2.001-1.312-2.919-2.789c-1.099-1.771,1.471-2.526,2.895-2.526c4.883,0,1.245-7.24-1.209-1.961
			c-0.47,1.014-1.52,1.412-2.448,1.284c-2.194-0.304-1.774-3.18-1.232-3.577c0.292-0.213,0.669-0.099,0.472-2.468
			c-0.163-1.953,1.707-3.839,3.687-3.985c3.279-0.242,1.712,2.068,4.015,1.599c0.4-0.081,0.423-2.335,0.87-2.484
			c0.773-2.53,4.658,0.64,5.297-1.774c0.479-1.807,3.981-1.451,6.612-0.653c0.974,0.296,2.914,1.524,3.657,0.298
			c0.365-0.602,0.129-1.554,1.284-2.361c1.013-0.707,2.54-0.649,3.214,0.137c0.84,0.979,0.14,2.1,0.84,3.313
			c0.701,1.214,2.007,0.841,1.634,2.521c-0.373,1.681-1.307,2.988-0.654,3.128c0.654,0.14,2.101-0.841,3.268-1.167
			c2.718-0.762,0.696,5.384-2.383,5.9c-0.747,0.514-3.218-1.14-3.685-2.353c-0.467-1.214-1.447-1.681-0.654-2.94
			c0.794-1.261,0.187-1.074,0.187-2.334c0-1.261,1.214-1.775,0.747-2.382c-0.707-0.919-2.133-0.182-2.508,1.414
			c-0.159,0.675,2.24,4.05-0.56,4.621c-2.308,0.47-4.165-1.034-3.175-3.577c0.779-1.999-2.502-1.33-2.502-0.24
			c0,1.955,0.833,5.95-3.775,3.367c-2.505-1.404-3.121-3.949-4.954-1.639c-1.431,1.807,1.782,1.84,3.005,2.625
			c1.968,1.264,2.783,0.477,2.783,4.079c0,1.604,4.052,2.493,5.788,3.345c5.239,2.566-5.546-7.479,3.478-4.333
			c4.02,1.402,0.16,9.479,5.831,3.81c5.464-5.465,2.244,9.328-1.968,4.635c-0.932-1.038-3.032,0.061-0.944,1.861
			c0.408,0.352,0.014,0.769-0.123,1.193c-0.686,2.128,0.767,1.965,1.658,1.301c0.787-0.586,0.984-1.566,1.055-1.625
			c1.978-1.594,3.535,1.198,2.345,2.205c-1.011,0.854,0.821,3.368,2.33,0.946c0.655-1.052,5.836,0.063,3.915-5.087
			c-0.141-0.377-0.859-2.751-0.746-3.035c0.477-1.202-0.301-2.197,1.54-3.331c1.354-0.834,1.664-1.062,2.917,0.063
			c1.235,1.108,0.616,3.36,0.972,4.605c0.704-2.706,1.11-5.053,1.755-7.792c-0.69-0.251-1.575-0.127-1.437-0.802
			c0.949-4.661-2.585-1.579-2.585-5.526c0-2.537,2.405-1.548,2.171-5.409c-0.151-2.48,3.372-1.664,3.903-0.594
			c0.972,1.959-1.856,3.122-1.389,4.049c0.961,1.904-0.941,3.616,0.491,4.01c0.171-0.571,0.342-1.157,0.521-1.853
			c0.909-3.522,1.98-7.478,2.752-11.079c-0.675,0.059-1.514,0.02-2.532-0.14c-2.502-0.394-0.174,2.718-2.814,3.344
			c-3.799,0.901-1.332-2.771-6.554-2.62c-2.318,0.066-1.155-6.09,3.598-4.452c3.971,1.369,7.178-1.232,9.112-0.106
			c0.291-1.437,0.576-2.852,0.868-4.361c-0.644,0.177-1.392,0.125-1.896-0.212c-1.998-1.338-0.484-5.522-3.774-3.567
			c-7.612,4.524-9.072-3.237,0.34-4.738c0.857-0.136,1.384-0.697,1.899-1.28c0.832-0.942,4.445-2.11,5.234-0.566l0.579-3.363
			c0.189-0.998,0.23-2.248,1.182-2.596c0.265,0.097,0.46,0.265,0.607,0.477c0.18-0.086,0.413-0.135,0.725-0.145
			c0.942-0.033,1.201,0.721,1.441,1.031c0.242,0.31,0.844,0.63,1.129,0.249c0.286-0.38-0.287-0.671,0.795-0.838
			c0.197-0.03,3.139-0.137,1.939-1.225c-0.645-0.585-2.09-1.584-0.631-2.478c0.478-0.293,0.912-1.057,1.74-0.982
			c1.78,0.163,2.447,1.786,1.984,3.346c-0.355,1.192-1.488,0.649-1.605,1.506c-0.102,0.745-0.565,1.619-1.078,2.187
			c-0.512,0.569-0.799,1.032-1.795,1.008c-0.996-0.025-1.767-0.209-1.896-0.572c-0.13-0.363-0.424-0.786-0.778-0.988
			c-0.354-0.203-0.67,0.233-1.306,0.217l-0.058-0.003l2.158,12.54c0.129,0.668,0.254,1.314,0.377,1.948
			c0.451-0.03,0.883-0.041,1.275-0.031c2.615,0.065,2.697,1.81,2.602,2.651c-0.224,1.942-1.698,1.41-2.974,1.881l0.372,1.84
			c0.428,2.119,0.979,4.394,1.553,6.653c1.356,0.265,4.213,0.683,3.076-1.186c-0.763-1.254-2.625-3.563,0.165-4.312
			c0.912-0.245,1.98-1.274,3.284-0.756c2.803,1.116,3.107,4.061,1.609,6.362c-1.143,1.761-2.719,0.338-3.317,1.67
			c-0.521,1.156-1.69,2.349-2.79,3.023c-0.24,0.146-0.46,0.291-0.674,0.422l0.063,0.239c0.379,1.474,0.725,2.456,1.103,3.854
			c0.049,0.182,0.096,0.361,0.144,0.539c1.08,0.414,1.481,1.539,1.395,1.932c-0.063,0.283-0.146,0.943-0.635,1.263
			c0.151,0.687,0.293,1.357,0.435,2.022c0.071-0.288,0.245-0.577,0.551-0.858c1.121-1.026,2.335-1.541,3.408-0.979
			c1.074,0.56,1.774,1.213,2.241,0.605c0.467-0.605-0.42-2.24,0.793-2.473c1.214-0.234,1.634-0.141,1.634-0.794
			c0-2.052,0.986-4.339,3.361-3.222c3.209,1.51,1.473,6.104-0.31,6.028c-1.481,0.013-1.645-0.085-1.746,1.394
			c-0.154,1.162-2.455,1.377-2.846,1.215c-0.561-0.234,0.232,0.887-0.794,1.587s-4.341,0.56-5.274-0.327
			c-0.289-0.273-0.55-0.57-0.74-0.878c0.158,0.726,0.324,1.456,0.509,2.21c0.385-0.055,0.762-0.001,1.149,0.242
			c1.494,0.933,1.215,2.708,2.055,3.734c0.841,1.026,1.867,1.493,1.867,3.36c0,1.483-0.885,3.263-2.043,4.071
			c0.152,0.842,0.319,1.736,0.494,2.625c2.371,0.531,0.982,1.863,2.816,2.845c1.792,0.958,4.292,1.265,4.749,1.746
			c3.752,3.956,11.414-2.205,11.002,7.101c1.751,2.91,6.05,0.707,4.836-0.436c-2.657-1.415-2.594-3.928,0.443-4.379
			c0.263-0.039,1.385-0.423,2.431-0.824c0.918-0.352,3.711-1.758,1.391-2.77c-1.758-0.767-6.278,1.219-6.278-0.894
			c0-1.426,2.166-3.331-0.274-3.227c-1.121,0.047-1.029,3.151-2.102,4.862c-1.506,2.397-4.247-0.182-4.432-1.744
			c-0.228-1.943,1.949-4.021,1.761-6.385c-0.205-2.574,3.077-3.531,4.854-1.647c4.422,4.688,10.105-3.156,14.984-0.421
			c1.384,0.775,4.24,5.77,1.802,6.881c-2.946,0-4.971-3.537-4.971,0.426c0,1.561,5.374,1.564,7.021,0.782
			c1.346-0.64,5.229-1.144,7.644-0.089c2.548,1.113,3.224-0.073,1.978-2.286c-0.477-0.847-1.732-0.31-3.379-0.671
			c-0.785-0.172,0.4-1.01,0.758-1.896c0.652-1.617-1.47-2.068-1.756-2.068c-4.607,0-4.912-2.836-0.555-2.705
			c0.482,0.015,2.148-1.24-0.344-1.769c-7.426-1.571-1.696,4.028-6.348,2.621c-2.807-0.851-5.004-3.803-2.106-4.276
			c3.124-0.513,2.336,0.699,3.209-3.584c0.211-1.039,2.178-1.254,3.473-0.209c4.437,3.575,2.054-2.567,0.642-2.886
			c-0.199-0.042-2.508-1.676-3.922-1.969c-1.435-0.263-1.623,0.868-1.521,2.487c0.131,2.047,0.101,3.013-0.653,4.078
			c-0.936,1.32-2.728,2.346-3.695,0.442c-1.813-3.562-2.002-1.312-2.92-2.789c-1.099-1.771,1.472-2.526,2.896-2.526
			c4.882,0,1.244-7.24-1.208-1.961c-0.471,1.014-1.521,1.412-2.449,1.284c-2.193-0.304-1.773-3.18-1.232-3.577
			c0.293-0.213,0.67-0.099,0.473-2.468c-0.163-1.953,1.706-3.839,3.688-3.985c3.278-0.242,1.711,2.068,4.015,1.599
			c0.399-0.081,0.423-2.335,0.87-2.484c0.773-2.53,4.656,0.64,5.297-1.774c0.479-1.807,3.98-1.451,6.611-0.653
			c0.975,0.296,2.914,1.524,3.658,0.298c0.364-0.602,0.127-1.554,1.283-2.361c1.014-0.707,2.54-0.649,3.215,0.137
			c0.84,0.979,0.14,2.1,0.84,3.313c0.699,1.214,2.008,0.841,1.634,2.521c-0.373,1.681-1.308,2.988-0.653,3.128
			c1.473,0.315,5.127-0.157,4.631,1.321c-0.162,0.479-0.068,1.937-1.435,2.789c-1.993,1.242-5.087,0.638-5.997-1.729
			c-0.467-1.214-1.447-1.681-0.653-2.94c0.793-1.261,0.187-1.074,0.187-2.334c0-1.261,1.214-1.775,0.746-2.382
			c-0.707-0.919-2.133-0.182-2.508,1.414c-0.158,0.675,2.24,4.05-0.56,4.621c-2.308,0.47-4.165-1.034-3.175-3.577
			c0.779-1.999-2.502-1.33-2.502-0.24c0,1.955,0.832,5.95-3.775,3.367c-2.505-1.404-3.121-3.949-4.954-1.639
			c-1.431,1.807,1.783,1.84,3.005,2.625c1.969,1.264,2.783,0.477,2.783,4.079c0,1.604,4.053,2.493,5.789,3.345
			c5.238,2.566-5.547-7.479,3.477-4.333c4.021,1.402,0.16,9.479,5.832,3.81c2.308-2.309,3.682-0.957,3.64,0.67
			c-0.029,1.131-1.235,2.477-1.236,2.477c-0.896-0.009-2.069,4.055-4.372,1.488c-0.932-1.038-3.031,0.061-0.943,1.861
			c0.408,0.352,0.014,0.769-0.123,1.193c-0.687,2.128,0.767,1.965,1.658,1.301c0.787-0.586,0.983-1.566,1.055-1.625
			c1.404-1.132,2.598-0.051,2.744,1.031v0.432c-0.041,0.285-0.17,0.547-0.399,0.742c-1.104,0.934-0.069,1.083,0.399,1.708
			c0,2.111-0.521,2.386-1.65,4.085c-0.428-0.197-1.299,0.648-2.828,0.596c-5.322-0.18-2.131,3.662-3.757,3.928
			c-2.089,0.342,0.019,1.395,0.831,1.917c0.3-0.259,0.645-0.466,0.957-0.448c2.176,0.125,0.238-2.865,1.91-2.804
			c1.433,0.052,3.125,1.334,4.767,0.396c2.851-1.63-0.583,7.928-1.194,6.76c-0.365-0.694-0.066-1.092-0.199-1.688
			c-0.133-0.595,0.033-1.157-0.961-1.224c-0.992-0.067-2.614,0.265-2.481,1.39c0.132,1.125,0.827,0.927,0.231,1.456
			c-0.596,0.53-1.225-0.197-1.621,0.696c-0.398,0.893,0.132,1.522-0.563,1.754c-0.694,0.231-1.92-0.166-2.151,0.331
			s-0.397,1.092-0.166,1.887c0.231,0.794,0.299,1.324-0.297,1.523c-0.597,0.197-1.192,0.33-1.291,0.859
			c-0.412,2.198,1.992,1.797,2.35,1.375c0.363-0.431,0.05-1.523,0.314-1.953c0.264-0.431,0.694-0.299,1.06-0.895
			c0.364-0.596-0.265-0.96,0.596-1.258c0.86-0.299,0.662,0.133,1.356-0.364c0.695-0.496,0.397-0.927,1.225-1.026
			c0.828-0.099,1.424,0.1,1.126,0.795s-0.497,1.489,0.065,1.787c0.563,0.299,1.623,0.563,2.053-0.132
			c0.176-0.284,0.379-0.485,0.523-0.664v-0.833c-0.494-0.586-1.119-0.292-1.383-0.556c-0.266-0.265-0.365-0.861,0.098-0.894
			c0.414-0.029,0.774-0.09,1.082-0.176v0.717c0.697-0.365,1.644-0.595,2.91-0.595c1.082,0,1.273-0.3,1.215-1.364
			c-0.145-2.566-2.299-6.057,2.666-5.363c1.166,0.162,3.445,2.49,4.01,3.718c0.934,2.03,4.984-1.349-0.428-5.416
			c-0.365-0.276-1.219-2.714,1.938-2.07c1.34,0.273,1.34,1.509,3.344,1.933l0.028-2.387c-0.323-0.142-0.56-0.287-0.644-0.398
			c-1.531-2.031-0.74-3.506-1.66-5.602c-0.536-1.221-1.26-0.523-2.463-0.082c-0.717,0.264-1.279,5.752-8.313,3.957
			c-0.381-0.097-0.678-0.334-0.897-0.654c0.215-0.234,0.401-0.586,0.533-1.069l-0.59-2.571c0.025-0.046,0.051-0.091,0.078-0.134
			c0.655-1.052,5.836,0.063,3.915-5.087c-0.142-0.377-0.858-2.751-0.747-3.035C176.402,100.208,175.623,99.213,177.465,98.079z
			 M176.025,28.129c1.156,0.028,1.191,0.799,1.149,1.171c-0.127,1.109-1.179,0.391-1.769,1.164c-0.594,0.903-1.811,0.877-1.645-0.29
			c0.088-0.609-0.435-0.42-0.638-1.059C172.921,28.477,174.865,28.099,176.025,28.129z M92.965,7.725
			c0.248,0.219,0.113,0.573,0.425,0.51c0.311-0.064,0.339-0.482,0.814-0.397c0.474,0.085,0.607,0.248,0.621,0.489
			c0.016,0.24,0.022,0.537-0.416,0.728c-0.439,0.192-0.532,0.354-0.771,0.545c-0.397,0.315-1.178,0.348-1.111-0.24
			c0.035-0.312,0.148-0.333,0.155-0.531c0.007-0.198,0-0.212-0.346-0.149C91.442,8.845,92.266,7.104,92.965,7.725z M84.729,31.46
			c0.314,0.659-0.347,1.18-0.661,1.798c-0.341,0.672,0.506,1.161,0.432,2.019c-0.044,0.508-0.899,0.714-1.328,0.427
			c-0.222-0.149,0.155-2.986-0.88-2.538c-0.907,0.392-1.958,3.378-3.27,3.751c-0.828,0.235-2.193-0.948-1.458-2.236
			c0.234-0.409,1.022,1.032,1.519,0.665c0.96-0.707,1.847-3.098,2.649-3.125c0.363-0.012,0.58-0.292,0.796-0.537
			C82.879,31.287,84.413,30.793,84.729,31.46z M79.585,20.295c0.383-0.013,0.612-0.308,0.839-0.566
			c0.37-0.418,1.985-0.939,2.319-0.236c0.331,0.694-0.366,1.243-0.696,1.894c-0.36,0.708,0.533,1.224,0.455,2.127
			c-0.046,0.535-0.947,0.752-1.4,0.45c-0.883-0.592-0.21-1.863-1.667-1.576C78.539,22.563,78.479,20.332,79.585,20.295z
			 M76.616,28.79c0.724-0.671-0.447-2.793,0.608-2.672c1.156,0.029,0.715,2.81,0.673,3.182c-0.127,1.109-1.178,0.391-1.768,1.164
			c-0.595,0.903-1.811,0.877-1.644-0.29c0.087-0.609-0.436-0.42-0.639-1.059C74.035,28.557,75.89,29.464,76.616,28.79z
			 M68.925,31.149c0.714,0,0.797,2.14-0.365,1.618c-0.184-0.083-0.341-0.985-0.529-0.904c-0.762,0.328-1.025-0.201-1.253-0.039
			c-0.25,0.178,0.42,3.898,0.026,4.728c-0.156,0.33-0.396,0.277-0.733,0.288c-0.234,0.008,0.11-1.266,0.044-2.242
			c-0.073-1.077-0.553-1.871-0.783-1.991c-0.874-0.455-0.491-0.58-0.651-1.29c0.009,0.041-0.251-0.952,0.241-1.115
			c0.347-0.115,1.043-0.266,1.305,0.083c0.367,0.489,0.601-0.128,1.032-0.26c0.843-0.258,0.711,0.549,0.853,0.916
			C68.348,31.546,68.107,31.149,68.925,31.149z M67.712,20.403c0.588,0.217-0.499,0.721-0.596,1.218
			c-0.306,1.576,0.501-0.047,0.399,0.868c-0.045,0.397-0.422,0.14-0.632,0.417c-0.214,0.323-0.649,0.314-0.589-0.104
			c0.031-0.218,0.095-0.699,0.023-0.927C66.283,21.329,67.297,20.393,67.712,20.403z M61.677,10.813
			c-0.008-0.035-0.211-0.801,0.203-0.937c0.292-0.097,0.876-0.224,1.097,0.069c0.309,0.411,0.505-0.108,0.867-0.218
			c0.709-0.217,0.598,0.461,0.717,0.77c0.198,0.508-0.004,0.174,0.683,0.174c0.256,0,1.18,0.661,1.412,1.172
			c0.314,0.689-0.152,1.261-0.713,1.009c-0.155-0.07-1.292-1.649-1.45-1.581c-0.64,0.276-0.862-0.168-1.053-0.032
			c-0.21,0.15-0.169,1.914-0.5,2.613c-0.131,0.277-0.333,0.232-0.616,0.241c-0.414,0.014-0.075-0.919-0.443-1.111
			C61.146,12.601,61.813,11.411,61.677,10.813z M62.168,49.28c1.13-0.217,1.52-0.13,1.52-0.739c0-1.908,0.918-4.037,3.128-2.997
			c2.986,1.405,1.371,5.679-0.288,5.609c-1.379,0.013-1.53-0.078-1.624,1.297c-0.144,1.081-2.285,1.282-2.649,1.13
			c-0.521-0.217,0.217,0.825-0.739,1.477c-0.955,0.651-4.039,0.521-4.908-0.304c-0.868-0.825-1.477-1.868-0.434-2.824
			c1.042-0.955,2.172-1.433,3.171-0.912s1.65,1.13,2.085,0.565C61.864,51.017,61.04,49.497,62.168,49.28z M61.083,38.481
			c0.391,0.82-0.433,1.469-0.823,2.238c-0.425,0.837,0.631,1.447,0.538,2.515c-0.055,0.631-1.119,0.888-1.654,0.531
			c-1.043-0.699-0.249-2.202-1.97-1.863c-1.06,0.209-1.13-2.429,0.178-2.473c0.452-0.015,0.721-0.364,0.991-0.668
			C58.78,38.266,60.688,37.651,61.083,38.481z M57.044,20.222c0.248,0.219,0.114,0.573,0.425,0.509
			c0.312-0.063,0.34-0.48,0.814-0.396s0.608,0.247,0.623,0.488c0.014,0.241,0.021,0.538-0.418,0.729s-0.531,0.354-0.771,0.545
			c-0.397,0.315-1.178,0.348-1.111-0.241c0.035-0.311,0.148-0.332,0.155-0.531c0.008-0.198,0-0.212-0.346-0.148
			C55.521,21.341,56.344,19.601,57.044,20.222z M55.971,27.945c1.293-1.194,2.247-0.491,2.214-0.203
			c-0.05,0.437-0.76,0.399-1.375,0.724c-0.595,0.315-1.094,0.996-1.319,1.291c-0.461,0.7-1.404,0.679-1.275-0.225
			c0.067-0.473-0.338-0.327-0.495-0.822C53.563,28.215,55.071,27.923,55.971,27.945z M56.509,56.892
			c0.154,1.332-0.334,2.564-4.065,2.564c-1.31,0-1.214-1.053-3.18-0.562c-1.966,0.492-1.79,1.763-4.247,3.347
			c-2.032,1.309-5.041-1.464-2.89-4.64c1.044-1.542,4.447-4.071,6.167-2.351c0.819,0.819,1.529,0.055,4.478-0.601
			C55.453,54.054,56.351,55.519,56.509,56.892z M51.97,14.662c0.414,0.01,0.427,0.286,0.411,0.419
			c-0.045,0.397-0.422,0.14-0.632,0.417c-0.213,0.323-0.649,0.314-0.589-0.104c0.031-0.218-0.156-0.15-0.228-0.379
			C50.859,14.787,51.555,14.652,51.97,14.662z M48.351,42.168c1.908-0.584,1.608,1.243,1.932,2.074
			c0.532,1.369-0.013,0.47,1.838,0.47c1.618,0,1.806,4.845-0.826,3.663c-0.416-0.186-0.772-2.23-1.196-2.047
			c-1.725,0.742-2.322-0.454-2.836-0.087c-0.566,0.403,0.471,2.235-0.42,4.115c-0.354,0.747-0.898,0.625-1.661,0.651
			c-1.114,0.038-0.202-2.477-1.194-2.993c-1.979-1.031-1.111-1.313-1.474-2.922c0.021,0.094-0.568-2.154,0.546-2.523
			c0.787-0.261,2.361-0.603,2.954,0.187C46.846,43.863,47.376,42.466,48.351,42.168z M45.829,31.068
			c0.244,0.491,0.022,1.419-0.172,1.889c-0.356,0.861,0.735,0.087,1.214,1.274c0.227,0.561,0.322,0.888-0.25,1.16
			c-0.547,0.261-1.958,0.313-2.257-0.283c-0.382-0.761,0.818-1.855-0.063-1.957c-0.531-0.061-0.68-1.605-0.885-1.833
			c0-0.546,0.507-1.113,1.232-1.079C45.425,30.275,45.432,30.27,45.829,31.068z M42.2,23.766c0.277,0.245,0.127,0.641,0.475,0.569
			c0.348-0.071,0.38-0.538,0.91-0.443c0.53,0.095,0.681,0.277,0.697,0.546c0.015,0.269,0.023,0.602-0.467,0.815
			c-0.491,0.214-0.594,0.396-0.863,0.61c-0.444,0.352-1.317,0.389-1.242-0.269c0.039-0.349,0.166-0.372,0.174-0.594
			c0.008-0.221,0-0.237-0.388-0.166C40.497,25.018,41.417,23.072,42.2,23.766z M43.483,70.159c-0.832,0.118-1.244,0.264-1.402,1.119
			c-0.11,0.596-0.365,1.755-0.831,2.52c-1.013,1.664-3.487,0.267-3.993-0.564c-0.492-0.806-0.913-2.857,0.531-3.73
			c0.66-0.399,1.482-0.607,2.257-0.446c0.605,0.125,0.288-0.067,0.831-1.419C43.246,61.735,47.137,69.641,43.483,70.159z
			 M40.45,60.31c0,2.69-0.18,3.586-1.435,4.304c-1.256,0.717-2.242,1.121-2.69-0.897c-0.139-0.623,0.816-1.607,1.049-2.586
			c0.732-3.067-1.96-3.749-1.945-3.201c0.095,3.693-4.083,3.669-4.798,3.366c-1.166-0.493-0.897-1.255-1.614-0.762
			c-0.718,0.493-1.973,1.345-2.421,0.179c-0.449-1.166-1.39-1.614-0.628-2.825c0.762-1.21,0.179-1.031,0.179-2.241
			c0-1.211,1.166-1.704,0.718-2.287c-0.448-0.583-2.69,0.494-3.049-0.403c-1.421-3.553,2.532-4.526,3.721-3.139
			c0.807,0.942,0.135,2.018,0.807,3.184c0.673,1.166,1.928,0.807,1.569,2.421c-0.359,1.614-1.255,2.869-0.627,3.004
			c0.627,0.134,2.017-0.807,3.138-1.121c1.121-0.313,2.511-0.404,1.614-1.3c-0.897-0.897-2.645-1.794-2.242-2.96
			c0.404-1.165,1.928-2.869,4.35-1.165c2.42,1.703,0.582,2.511,1.479,4.393C38.611,58.426,40.45,57.62,40.45,60.31z M28.291,79.743
			c-1.583-0.656-2.02-2.896-2.403-3.277c-0.382-0.383-1.474,0.218-2.457-0.819c-0.984-1.037-0.437-2.185-0.874-3.223
			s-2.13-1.092-2.95-1.802c-0.819-0.71-0.464-1.83-0.464-1.83c0.901-1.447,1.501-1.939,2.621-1.693
			c1.12,0.246,2.485,0.573,2.485,1.502c0,0.928,0.109,2.157,0.656,2.84c0.546,0.683,1.31,0.574,2.048,1.256
			c0.737,0.683,0.71,1.666,1.202,2.185c0.491,0.519,1.201,1.065,1.884,0.492c0.683-0.574,0.519-3.059-0.164-3.632
			c-0.683-0.574-1.912,0.327-2.758-0.601c-0.847-0.929-0.574-0.819-1.093-2.021c-0.393-0.912-0.451-2.858,1.53-3.168
			c2.134-0.334,3.304,1.038,3.878,1.966c0.573,0.929,1.065,2.431,1.256,3.523c0.191,1.092,0.737,1.038,1.802,1.693
			c1.065,0.656,0.847,3.06-0.191,3.605c-1.037,0.546-1.42,0.601-2.13,1.802C31.459,79.743,29.875,80.398,28.291,79.743z
			 M33.969,88.807c-0.07,1.611-1.961,3.151-2.917,3.386c-0.957,0.233-0.841,0.886-1.961,1.19c-1.12,0.303-2.637,0.187-2.964-1.168
			c-0.327-1.354,0.14-1.681,0.14-1.681c0.327-1.073,1.19-0.63,2.007-1.517c0.817-0.887,0.817-2.008,2.031-2.265
			C31.518,86.497,34.039,87.197,33.969,88.807z M26.746,45.154c-0.707,0.571-1.399,0.535-1.937,0.323
			c-0.538-0.213-1.193-0.941-1.925-0.341c-0.732,0.601-0.454,1.464-1.226,1.461c-3.691-0.017-2.545-3.153-1.267-3.28
			c0.85-0.084,1.175,0.667,1.545,0.008c0.37-0.659,0.619-1.062,1.636-1.516c1.018-0.454,1.727,0.271,2.167,0.242
			c0.439-0.03,0.461-0.941,1.358-1.552c0.896-0.612,1.943-0.213,2.155,0.076c0.213,0.289,0.927,1.069-0.043,1.823
			c-0.97,0.754-1.431,0.454-2.065,0.882C26.511,43.709,27.452,44.583,26.746,45.154z M19.484,60.182
			c0.484-0.294,1.087-0.446,1.656-0.328c0.444,0.092,0.211-0.049,0.61-1.041c1.738-4.331,4.593,1.469,1.912,1.849
			c-0.61,0.086-0.912,0.194-1.028,0.82c-0.081,0.438-0.268,1.288-0.61,1.85c-0.743,1.22-2.558,0.195-2.929-0.414
			C18.734,62.326,18.425,60.822,19.484,60.182z M38.94,49.886c-1.013,0.482-3.629,0.58-4.183-0.525
			c-0.707-1.409,1.516-3.438-0.117-3.626c-0.984-0.113-1.259-2.976-1.64-3.397c0-1.012,0.94-2.063,2.283-2
			c1.441,0.067,1.454,0.056,2.189,1.536c0.452,0.91,0.041,2.629-0.319,3.501c-0.658,1.596,1.363,0.162,2.251,2.361
			C39.824,48.775,39.999,49.381,38.94,49.886z M35.02,17.951c0.348-0.115,1.043-0.266,1.305,0.083
			c0.367,0.489,0.601-0.128,1.032-0.26c0.843-0.257,0.711,0.549,0.853,0.917c0.236,0.604-0.005,0.207,0.813,0.207
			c0.714,0,0.797,2.14-0.365,1.618c-0.184-0.082-0.341-0.985-0.529-0.904c-0.762,0.328-1.025-0.2-1.253-0.038
			c-0.25,0.178,0.208,0.987-0.185,1.817c-0.156,0.33-0.396,0.277-0.734,0.288c-0.492,0.017-0.089-1.094-0.527-1.322
			c-0.874-0.455-0.491-0.58-0.651-1.291C34.788,19.108,34.528,18.114,35.02,17.951z M35.624,32.818
			c0.505,0.253,0.114,1.85,0.645,1.742c0.531-0.109,0.658-1.694,1.466-1.549c0.809,0.145,1.038,0.422,1.062,0.832
			c0.024,0.411,0.036,0.917-0.712,1.243c-0.748,0.326-0.905,0.603-1.314,0.929c-0.677,0.537-2.009,0.593-1.894-0.41
			c0.06-0.531,0.253-0.567,0.265-0.905c0.012-0.338,0-0.362-0.591-0.253c-0.215,0.039-1.984-0.052-3.079,0.406
			c-0.677,0.285-0.606,1.171-1.223,1.251c-1.373,0.178-1.965-0.781-2.012-1.015c-0.125-0.626,2.017-1.353,4.322-1.636
			C34.372,33.23,34.538,32.274,35.624,32.818z M31.089,28.062c0.612,0.254,0.439,0.795,0.744,1.049
			c0.306,0.255,0.286,0.887-0.03,1.173c-0.316,0.285-1.172,0.305-1.55,0.01c-0.377-0.296-0.316-0.469-0.499-0.938
			C29.23,28.018,30.047,27.627,31.089,28.062z M28.052,10.64c0.414,0.011,0.427,0.287,0.411,0.42
			c-0.045,0.397-0.421,0.14-0.632,0.416c-0.213,0.323-0.648,0.314-0.589-0.104c0.031-0.217-0.156-0.15-0.228-0.379
			C26.941,10.765,27.637,10.63,28.052,10.64z M27.667,18.011c0.84,0.039,0.848,0.033,1.277,0.896
			c0.263,0.531,0.024,1.534-0.186,2.043c-0.385,0.931,0.795,0.095,1.313,1.378c0.245,0.606,0.347,0.959-0.271,1.254
			c-0.591,0.281-2.117,0.339-2.441-0.306c-0.412-0.823,0.885-2.006-0.067-2.116c-0.575-0.066-0.735-1.736-0.958-1.982
			C26.334,18.588,26.883,17.974,27.667,18.011z M25.66,28.853c0.668,0.137,0.791,1.28,0.447,1.662
			c-0.983,1.092-1.145,0.418-1.638,0.211c-1.353-0.569-1.264,0.365-0.676,1.194c0.721,1.017-0.192,2.361-0.627,2.504
			c-1.296,0.424-0.887-1.088-1.095-1.783c-0.37-1.233-1.275-1.537-2.314-1.07c-0.297,0.133-1.353-0.318-0.691-0.977
			c0.6-0.597,2.607,0.159,1.79-1.306c-0.349-0.625-1.635,0.295-2.187,0.458c-0.801,0.236-1.04-0.231-1.04-0.886
			c0-1.828,4.713-0.302,4.931-0.01C23.682,30.358,24.033,28.522,25.66,28.853z M19.052,22.924c0.733,0.018,0.756,0.507,0.729,0.743
			c-0.08,0.704-0.748,0.249-1.122,0.74c-0.378,0.573-1.15,0.556-1.044-0.185c0.055-0.386-0.276-0.266-0.405-0.672
			C17.081,23.145,18.315,22.905,19.052,22.924z M11.963,33.387c0.89-1.09,2.964,0.982,3.218,1.278
			c0.302,0.352,0.05,0.754,0.302,1.19c0.251,0.436,0.721,0.302,0.586,0.906c-0.134,0.603-0.469,1.073-0.234,1.123
			c0.234,0.05,0.754-0.302,1.173-0.419c0.419-0.118,0.939-0.151,0.604-0.486c-0.336-0.336-0.989-0.671-0.839-1.107
			c0.151-0.437,0.721-1.073,1.627-0.437c0.905,0.637,0.217,0.939,0.553,1.643c0.369,0.805,1.056,0.503,1.056,1.509
			c0,1.005-0.067,1.341-0.537,1.609c-0.469,0.268-0.838,0.419-1.005-0.335c-0.052-0.233,0.305-0.601,0.392-0.967
			c0.274-1.147-0.733-1.402-0.727-1.197c0.035,1.381-1.527,1.372-1.794,1.259c-0.436-0.185-0.335-0.47-0.604-0.285
			c-0.268,0.184-0.737,0.502-0.905,0.067c-0.168-0.436-0.52-0.604-0.234-1.056c0.285-0.453,0.066-0.386,0.066-0.838
			c0-0.453,0.436-0.638,0.269-0.856c-0.168-0.217-1.006,0.185-1.14-0.15c-0.084-0.21,0.415-1.451-0.056-1.621
			C12.763,33.868,11.823,33.558,11.963,33.387z M10.901,46.266c1.505,0.513,1.433-0.593,2.292-1.363
			c0.914-0.544,2.072,0.275,2.327,1.027c0.483,0.843-0.004,2.431-0.862,2.386c-0.979-0.053-1.791-1.267-2.227,0.601
			C11.507,52.882,8.25,45.362,10.901,46.266z M6.535,40.686c0.61-0.198,1.466-0.344,1.109-1.184
			c-0.354-0.835,0.013-1.13,0.738-1.416c1.452-0.573,2.468,1.998,0.646,2.33c-0.967,0.176-0.18,1.225-0.825,1.782
			C6.666,43.525,5.071,41.16,6.535,40.686z M16.297,58.466c-1.814-0.096-3.319-2.347-4.126,1.115
			c-1.714,7.348-7.75-6.589-2.837-4.913c2.789,0.951,2.655-1.099,4.248-2.525c1.693-1.008,3.84,0.508,4.312,1.902
			C18.788,55.608,17.887,58.551,16.297,58.466z M7.18,91.268c0.14-0.746,0.981-0.934,1.821-1.213c0.84-0.281,0.747-1.027,0.42-2.147
			c-0.327-1.12-0.093-1.96,0.233-2.661c0.327-0.7,2.054-0.141,3.034-0.466c0.981-0.327,0.234-1.214,0.794-2.474
			c0.56-1.262,1.447-0.234,2.287-0.98c0.84-0.748-0.14-0.467-0.327-2.055c-0.186-1.588,2.101-2.054,3.501-1.961
			c1.401,0.094,1.167,0.888,1.354,1.728c0.187,0.84-0.233,1.399,0.28,2.381c0.514,0.979,0.84-0.14,2.194,0s1.237,0.537,1.47,0.724
			c0.234,0.187,0.234,0.84,0.094,1.867c-0.14,1.027-0.607,1.213-1.261,1.68c-0.653,0.468-2.007-0.979-2.66-0.934
			c-0.654,0.047-0.514,0.887-0.14,1.262c0.373,0.373,1.26-0.047,1.96,0.793c0.7,0.84-0.14,1.121-0.747,2.101
			c-0.607,0.979-2.1,0.606-2.894,0.187c-0.793-0.42-0.513-1.541-0.093-2.521s-0.42-1.261-1.587-1.12s-0.747,0.746-1.727,1.447
			c-0.981,0.699-0.701,0.093-1.914,0.513c-1.214,0.42-0.327,0.935-0.841,1.774c-0.513,0.84-1.12,0.654-1.493,1.26
			c-0.374,0.607,0.07,2.148-0.444,2.754C9.99,93.801,6.599,94.367,7.18,91.268z M5.471,100.617
			c-0.933-0.887-1.587-2.007-0.466-3.034c1.12-1.026,2.333-1.541,3.407-0.979c1.074,0.56,1.774,1.213,2.241,0.605
			c0.466-0.605-0.42-2.24,0.793-2.473c1.214-0.234,1.634-0.141,1.634-0.794c0-2.052,0.986-4.339,3.361-3.222
			c3.209,1.51,1.473,6.104-0.31,6.028c-1.481,0.013-1.644-0.085-1.745,1.394c-0.155,1.162-2.455,1.377-2.846,1.215
			c-0.56-0.234,0.233,0.887-0.794,1.587S6.405,101.504,5.471,100.617z M22.791,110.583c-0.374,0.606-3.034,0.841-2.941,2.101
			c0.094,1.26,0.887,0.699,1.448,3.127c0.56,2.428-0.981,2.428-1.634,2.801c-0.654,0.374-2.194,0.42-2.848-0.605
			c-0.653-1.027-0.187-1.354,0.047-2.896c0.233-1.54-0.14-2.567-0.98-3.08c-0.841-0.515-2.941,0.046-3.034-2.008
			c-0.094-2.054-0.187-2.567-1.774-2.567c-2.769,0-1.621-4.398,0.933-5.088c1.727-0.467,2.474,1.074,3.454,0.279
			c0.98-0.793,0-1.959,1.074-3.08c1.073-1.12,2.66-2.475,4.201-1.82c1.54,0.653,2.474,1.727,1.587,3.081
			c-0.887,1.353-3.408,1.867-3.548,3.313c-0.14,1.447,2.008,0.42,1.494,1.774c-0.513,1.353-2.054,2.007-1.634,2.847
			c0.421,0.84,0.514-0.42,2.148-0.14C22.417,108.902,23.165,109.977,22.791,110.583z M39.61,104.904c0,2.8-0.187,3.734-1.494,4.48
			c-1.307,0.748-2.334,1.168-2.801-0.934c-0.144-0.648,0.85-1.673,1.093-2.691c0.762-3.194-2.04-3.904-2.026-3.334
			c0.099,3.846-4.25,3.82-4.995,3.506c-1.213-0.515-0.933-1.309-1.68-0.795s-2.054,1.4-2.521,0.188
			c-0.467-1.214-1.447-1.682-0.653-2.941c0.793-1.26,0.186-1.074,0.186-2.334s1.214-1.773,0.747-2.381
			c-0.467-0.607-2.8,0.514-3.174-0.42c-1.48-3.697,2.636-4.711,3.874-3.268c0.84,0.98,0.14,2.101,0.84,3.314
			c0.701,1.215,2.008,0.84,1.634,2.521c-0.373,1.68-1.307,2.986-0.653,3.127c0.653,0.14,2.1-0.84,3.267-1.167
			c1.167-0.326,2.614-0.421,1.681-1.353c-0.934-0.935-2.754-1.869-2.334-3.082c0.42-1.214,2.007-2.988,4.528-1.214
			c2.52,1.774,0.607,2.614,1.54,4.574C37.696,102.943,39.61,102.104,39.61,104.904z M36.534,86.357
			c-0.724,0.652-2.684,0.699-3.548,0.022c-0.863-0.677-0.723-1.073-1.143-2.147c-1.2-3.064,0.67-3.959,3.057-2.963
			c1.401,0.582,1.004,1.819,1.704,2.403C37.304,84.256,37.258,85.703,36.534,86.357z M49.864,82.016
			c-0.374,0.84-2.194,1.213-2.941,0.7c-0.747-0.514-1.447-0.747-2.054-0.047s-2.194,2.241-3.641,2.101
			c-1.447-0.141-3.268-0.233-3.968-2.24c-1.362-3.905,1.192-5.234,4.435-3.875c1.447,0.607,2.147,1.775,3.221,1.261
			c1.073-0.513,1.493-1.54,3.314-1.261C50.05,78.936,50.237,81.175,49.864,82.016z M49.12,68.606
			c0.137-1.202,0.574-1.284,0.601-2.048c0.028-0.765,0-0.819-1.338-0.574c-3.448,0.634-0.272-6.08,2.43-3.686
			c0.956,0.846,0.438,2.212,1.639,1.966c1.202-0.246,1.311-1.857,3.141-1.529c1.829,0.327,2.348,0.955,2.403,1.884
			c0.054,0.928,0.082,2.075-1.611,2.813c-1.693,0.737-2.049,1.365-2.977,2.102C51.876,70.751,48.862,70.877,49.12,68.606z
			 M67.943,71.395c-0.163,1.474-1.037,3.222-2.021,4.369c-0.983,1.147-1.529,2.075-3.495,2.075c-1.966,0-3.495-0.327-3.769-1.036
			c-0.273-0.712-0.874-1.531-1.583-1.912c-0.71-0.383-1.311,0.49-2.568,0.49c-1.256,0-2.84-1.255-2.567-2.621
			c0.274-1.365,0.71-2.13,2.567-2.239c1.858-0.11,2.404,1.365,2.895,1.966c0.492,0.601,1.693,1.201,2.24,0.437
			c0.546-0.765-0.601-1.311,1.529-1.693c0.388-0.07,6.187-0.424,3.768-2.513c-1.3-1.123-4.203-3.024-1.365-4.861
			c0.929-0.6,1.748-2.129,3.386-2.02c3.522,0.234,4.918,3.406,4.079,6.507C70.398,70.713,68.132,69.697,67.943,71.395z
			 M77.851,80.625c1.98-0.439,2.643,0.643,2.76,1.657c0.113,0.983-0.247,1.893-3.002,1.893c-0.968,0-0.897-0.776-2.349-0.413
			c-1.452,0.362-1.322,1.301-3.137,2.471c-1.501,0.968-3.723-1.08-2.134-3.426c0.771-1.14,3.284-3.008,4.554-1.738
			C75.147,81.674,75.672,81.109,77.851,80.625z M85.235,48.809c-0.127,0.926-0.548,1.094-1.137,1.515
			c-0.589,0.421-1.81-0.884-2.399-0.842c-0.589,0.042-0.463,0.8-0.126,1.137c0.336,0.337,1.136-0.042,1.767,0.715
			c0.632,0.758-0.126,1.011-0.673,1.895c-0.547,0.884-1.894,0.547-2.61,0.168c-0.715-0.379-0.463-1.389-0.084-2.273
			c0.379-0.884-0.379-1.136-1.431-1.01c-1.052,0.126-0.674,0.673-1.558,1.305c-0.884,0.631-0.631,0.084-1.725,0.463
			c-1.095,0.379-0.295,0.842-0.758,1.599c-0.463,0.758-1.01,0.59-1.347,1.137c-0.337,0.547,0.063,1.936-0.4,2.483
			c-0.61,0.722-0.565,1.21-0.943,1.512c-1.359,1.089-1.873-0.217-1.431-1.642c0.666-2.151,2.036-2.486,1.406-4.648
			c-0.012-0.042-0.024-0.085-0.035-0.126V50.58c0.064-0.234,0.15-0.452,0.246-0.656c0.294-0.631,1.851-0.126,2.735-0.421
			c0.885-0.294,0.211-1.094,0.716-2.231c0.505-1.136,1.305-0.21,2.063-0.883c0.757-0.674-0.127-0.421-0.295-1.853
			c-0.168-1.431,1.894-1.853,3.157-1.769c1.263,0.085,1.052,0.8,1.221,1.558c0.168,0.758-0.211,1.263,0.252,2.147
			c0.463,0.884,0.758-0.127,1.979,0c1.22,0.126,1.115,0.484,1.325,0.652C85.361,47.293,85.361,47.883,85.235,48.809z M91.541,51.422
			c-1.791,0.326-0.333,2.27-1.529,3.302c-2.847,2.459-5.804-1.924-3.09-2.803c1.13-0.366,2.717-0.636,2.056-2.193
			C88.32,48.18,89,47.634,90.343,47.104C93.035,46.041,94.918,50.806,91.541,51.422z M95.808,37.77
			c-0.063,0.46-0.272,0.543-0.563,0.752c-0.293,0.209-0.899-0.439-1.193-0.418c-0.292,0.021-0.229,0.397-0.062,0.564
			c0.167,0.168,0.564-0.021,0.878,0.356c0.313,0.376-0.063,0.501-0.334,0.94c-0.272,0.439-0.941,0.272-1.297,0.084
			c-0.355-0.188-0.23-0.69-0.041-1.129c0.188-0.439-0.189-0.564-0.711-0.501c-0.523,0.062-0.335,0.334-0.773,0.648
			c-0.439,0.313-0.314,0.042-0.857,0.229c-0.544,0.188-0.147,0.419-0.377,0.795c-0.229,0.376-0.501,0.292-0.668,0.564
			c-0.168,0.272,0.031,0.961-0.199,1.233c-0.226,0.267-1.744,0.52-1.484-0.867c0.063-0.335,0.439-0.418,0.815-0.544
			c0.377-0.125,0.335-0.46,0.188-0.961c-0.146-0.502-0.041-0.878,0.105-1.191c0.146-0.314,0.92-0.063,1.358-0.209
			c0.439-0.147,0.105-0.544,0.356-1.108c0.251-0.565,0.648-0.105,1.024-0.439c0.376-0.335-0.063-0.209-0.146-0.92
			c-0.084-0.71,0.94-0.919,1.567-0.877c0.627,0.041,0.523,0.397,0.606,0.773c0.084,0.376-0.104,0.627,0.125,1.066
			s0.377-0.063,0.982,0s0.555,0.24,0.658,0.324C95.871,37.017,95.871,37.31,95.808,37.77z M95.422,29.456
			c-0.534,0.305-0.955,0.477-1.146-0.383c-0.06-0.265,0.349-0.684,0.447-1.101c0.312-1.306-0.835-1.597-0.829-1.364
			c0.041,1.574-1.739,1.563-2.043,1.434c-0.497-0.21-0.382-0.534-0.688-0.324c-0.305,0.21-0.84,0.573-1.031,0.076
			s-0.592-0.688-0.267-1.203c0.324-0.516,0.076-0.439,0.076-0.955s0.496-0.726,0.306-0.974c-0.191-0.248-1.146,0.21-1.299-0.172
			c-0.605-1.513,1.079-1.927,1.585-1.337c0.344,0.402,0.057,0.86,0.344,1.356c0.286,0.497,0.821,0.344,0.668,1.032
			c-0.153,0.687-0.535,1.222-0.267,1.279c0.267,0.058,0.859-0.344,1.337-0.477c0.477-0.134,1.069-0.172,0.687-0.554
			c-0.382-0.382-1.127-0.764-0.955-1.261c0.172-0.496,0.822-1.222,1.854-0.496c1.03,0.726,0.248,1.069,0.629,1.872
			c0.42,0.916,1.203,0.572,1.203,1.718S95.957,29.15,95.422,29.456z M167.594,30.941c0.236,0.605-0.005,0.208,0.813,0.208
			c0.715,0,0.798,2.14-0.364,1.618c-0.185-0.083-0.341-0.985-0.529-0.904c-0.762,0.328-1.026-0.201-1.253-0.039
			c-0.25,0.178,0.208,0.987-0.186,1.818c-0.155,0.33-0.396,0.276-0.733,0.288c-0.492,0.016-0.089-1.095-0.526-1.323
			c-0.875-0.455-0.492-0.58-0.651-1.29c0.009,0.041-0.251-0.952,0.241-1.115c0.348-0.115,1.043-0.266,1.305,0.083
			c0.367,0.489,0.602-0.128,1.031-0.26C167.584,29.767,167.451,30.574,167.594,30.941z M166.586,22.07
			c0.413,0.01,0.426,0.286,0.411,0.419c-0.046,0.397-0.423,0.14-0.634,0.417c-0.213,0.323-0.647,0.314-0.588-0.104
			c0.031-0.218-0.155-0.15-0.229-0.379C165.475,22.195,166.17,22.06,166.586,22.07z M161.361,9.876
			c0.293-0.097,0.877-0.224,1.098,0.069c0.309,0.411,0.505-0.108,0.867-0.218c0.709-0.217,0.597,0.461,0.718,0.77
			c0.196,0.508-0.005,0.174,0.683,0.174c0.6,0,0.67,1.799-0.307,1.361c-0.155-0.07-0.287-0.829-0.445-0.761
			c-0.64,0.276-0.861-0.168-1.053-0.032c-0.21,0.15,0.175,0.83-0.156,1.528c-0.131,0.277-0.333,0.232-0.615,0.242
			c-0.414,0.014-0.076-0.92-0.443-1.112c-0.735-0.382-0.413-0.487-0.549-1.084C161.167,10.848,160.947,10.013,161.361,9.876z
			 M161.65,49.28c1.129-0.217,1.52-0.13,1.52-0.739c0-1.908,0.918-4.037,3.128-2.997c2.985,1.405,1.37,5.679-0.288,5.609
			c-1.379,0.013-1.529-0.078-1.624,1.297c-0.144,1.081-2.284,1.282-2.649,1.13c-0.521-0.217,0.218,0.825-0.737,1.477
			c-0.956,0.651-4.04,0.521-4.909-0.304s-1.477-1.868-0.434-2.824c1.041-0.955,2.172-1.433,3.17-0.912
			c1,0.521,1.65,1.13,2.086,0.565C161.346,51.017,160.521,49.497,161.65,49.28z M160.564,38.481c0.392,0.82-0.433,1.469-0.822,2.238
			c-0.426,0.837,0.631,1.447,0.537,2.515c-0.055,0.631-1.119,0.888-1.653,0.531c-1.043-0.699-0.249-2.202-1.97-1.863
			c-1.061,0.209-1.131-2.429,0.177-2.473c0.452-0.015,0.723-0.364,0.991-0.668C158.262,38.266,160.17,37.651,160.564,38.481z
			 M156.527,20.222c0.246,0.219,0.112,0.573,0.424,0.509c0.311-0.063,0.34-0.48,0.813-0.396s0.609,0.247,0.623,0.488
			c0.015,0.241,0.021,0.538-0.418,0.729s-0.53,0.354-0.771,0.545c-0.397,0.315-1.178,0.348-1.111-0.241
			c0.035-0.311,0.148-0.332,0.156-0.531c0.007-0.198,0-0.212-0.348-0.148C155.003,21.341,155.826,19.601,156.527,20.222z
			 M155.453,27.945c0.896,0.023,0.924,0.62,0.891,0.909c-0.098,0.859-0.914,0.303-1.371,0.903c-0.461,0.7-1.404,0.679-1.275-0.225
			c0.067-0.473-0.338-0.327-0.494-0.822C153.045,28.215,154.553,27.923,155.453,27.945z M155.99,56.892
			c0.154,1.332-0.334,2.564-4.063,2.564c-1.312,0-1.214-1.053-3.181-0.562c-1.967,0.492-1.791,1.763-4.247,3.347
			c-2.032,1.309-5.042-1.464-2.89-4.64c1.043-1.542,4.446-4.071,6.166-2.351c0.819,0.819,1.529,0.055,4.479-0.601
			C154.936,54.054,155.833,55.519,155.99,56.892z M151.451,14.662c0.414,0.01,0.427,0.286,0.412,0.419
			c-0.045,0.397-0.422,0.14-0.633,0.417c-0.214,0.323-0.648,0.314-0.589-0.104c0.031-0.218-0.155-0.15-0.229-0.379
			C150.341,14.787,151.037,14.652,151.451,14.662z M147.833,42.168c1.907-0.584,1.608,1.243,1.932,2.074
			c0.532,1.369-0.013,0.47,1.839,0.47c1.617,0,1.805,4.845-0.826,3.663c-0.416-0.186-0.772-2.23-1.197-2.047
			c-1.725,0.742-2.321-0.454-2.836-0.087c-0.565,0.403,0.472,2.235-0.42,4.115c-0.354,0.747-0.896,0.625-1.66,0.651
			c-1.114,0.038-0.202-2.477-1.194-2.993c-1.978-1.031-1.11-1.313-1.474-2.922c0.021,0.094-0.568-2.154,0.546-2.523
			c0.786-0.261,2.36-0.603,2.954,0.187C146.328,43.863,146.857,42.466,147.833,42.168z M145.311,31.068
			c0.244,0.491,0.022,1.419-0.172,1.889c-0.355,0.861,0.735,0.087,1.214,1.274c0.228,0.561,0.321,0.888-0.25,1.16
			c-0.547,0.261-1.958,0.313-2.257-0.283c-0.382-0.761,0.818-1.855-0.063-1.957c-0.531-0.061-0.68-1.605-0.885-1.833
			c0-0.546,0.506-1.113,1.231-1.079C144.906,30.275,144.914,30.27,145.311,31.068z M141.682,23.766
			c0.277,0.245,0.127,0.641,0.475,0.569c0.349-0.071,0.381-0.538,0.91-0.443c0.53,0.095,0.682,0.277,0.696,0.546
			c0.017,0.269,0.024,0.602-0.466,0.815c-0.491,0.214-0.594,0.396-0.863,0.61c-0.443,0.352-1.316,0.389-1.242-0.269
			c0.039-0.349,0.166-0.372,0.174-0.594c0.008-0.221,0-0.237-0.388-0.166C139.979,25.018,140.898,23.072,141.682,23.766z
			 M142.965,70.159c-0.832,0.118-1.244,0.264-1.402,1.119c-0.109,0.596-0.365,1.755-0.83,2.52c-1.014,1.664-3.488,0.267-3.994-0.564
			c-0.49-0.806-0.912-2.857,0.53-3.73c0.661-0.399,1.483-0.607,2.259-0.446c0.605,0.125,0.287-0.067,0.83-1.419
			C142.728,61.735,146.619,69.641,142.965,70.159z M139.931,60.31c0,2.69-0.179,3.586-1.435,4.304
			c-1.256,0.717-2.241,1.121-2.689-0.897c-0.138-0.623,0.816-1.607,1.049-2.586c0.732-3.067-1.959-3.749-1.945-3.201
			c0.096,3.693-4.082,3.669-4.797,3.366c-1.166-0.493-0.897-1.255-1.615-0.762c-0.717,0.493-1.973,1.345-2.42,0.179
			c-0.449-1.166-1.391-1.614-0.629-2.825c0.763-1.21,0.18-1.031,0.18-2.241c0-1.211,1.166-1.704,0.718-2.287
			c-0.449-0.583-2.69,0.494-3.049-0.403c-1.421-3.553,2.532-4.526,3.721-3.139c0.808,0.942,0.134,2.018,0.808,3.184
			c0.672,1.166,1.928,0.807,1.569,2.421c-0.358,1.614-1.256,2.869-0.628,3.004c0.628,0.134,2.018-0.807,3.139-1.121
			c1.121-0.313,2.51-0.404,1.613-1.3c-0.896-0.897-2.645-1.794-2.242-2.96c0.404-1.165,1.928-2.869,4.35-1.165
			c2.421,1.703,0.583,2.511,1.48,4.393C138.093,58.426,139.931,57.62,139.931,60.31z M127.773,79.743
			c-1.584-0.656-2.021-2.896-2.404-3.277c-0.381-0.383-1.474,0.218-2.457-0.819s-0.437-2.185-0.873-3.223
			c-0.438-1.038-2.131-1.092-2.95-1.802s-0.464-1.83-0.464-1.83c0.9-1.447,1.502-1.939,2.621-1.693
			c1.119,0.246,2.484,0.573,2.484,1.502c0,0.928,0.11,2.157,0.656,2.84s1.311,0.574,2.048,1.256c0.737,0.683,0.71,1.666,1.202,2.185
			c0.491,0.519,1.201,1.065,1.884,0.492c0.683-0.574,0.519-3.059-0.164-3.632c-0.683-0.574-1.911,0.327-2.758-0.601
			c-0.847-0.929-0.573-0.819-1.092-2.021c-0.394-0.912-0.452-2.858,1.528-3.168c2.135-0.334,3.305,1.038,3.879,1.966
			c0.572,0.929,1.064,2.431,1.256,3.523c0.191,1.092,0.736,1.038,1.802,1.693c1.065,0.656,0.847,3.06-0.19,3.605
			s-1.42,0.601-2.131,1.802C130.941,79.743,129.356,80.398,127.773,79.743z M133.451,88.807c-0.07,1.611-1.961,3.151-2.918,3.386
			c-0.957,0.233-0.84,0.886-1.961,1.19c-1.119,0.303-2.637,0.187-2.963-1.168c-0.328-1.354,0.139-1.681,0.139-1.681
			c0.328-1.073,1.19-0.63,2.008-1.517c0.816-0.887,0.816-2.008,2.031-2.265C131,86.497,133.521,87.197,133.451,88.807z
			 M118.966,60.182c0.483-0.294,1.088-0.446,1.655-0.328c0.444,0.092,0.211-0.049,0.61-1.041c1.738-4.331,4.593,1.469,1.912,1.849
			c-0.61,0.086-0.912,0.194-1.028,0.82c-0.08,0.438-0.268,1.288-0.609,1.85c-0.743,1.22-2.559,0.195-2.93-0.414
			C118.216,62.326,117.906,60.822,118.966,60.182z M138.422,49.886c-1.014,0.482-3.629,0.58-4.184-0.525
			c-0.707-1.409,1.517-3.438-0.115-3.626c-0.985-0.113-1.26-2.976-1.641-3.397c0-1.012,0.939-2.063,2.283-2
			c1.439,0.067,1.453,0.056,2.188,1.536c0.453,0.91,0.041,2.629-0.318,3.501c-0.658,1.596,1.363,0.162,2.251,2.361
			C139.306,48.775,139.48,49.381,138.422,49.886z M134.502,17.951c0.347-0.115,1.043-0.266,1.305,0.083
			c0.367,0.489,0.602-0.128,1.032-0.26c0.843-0.257,0.711,0.549,0.853,0.917c0.236,0.604-0.005,0.207,0.813,0.207
			c0.714,0,0.797,2.14-0.365,1.618c-0.185-0.082-0.341-0.985-0.528-0.904c-0.763,0.328-1.025-0.2-1.254-0.038
			c-0.248,0.178,0.209,0.987-0.185,1.817c-0.157,0.33-0.397,0.277-0.734,0.288c-0.491,0.017-0.089-1.094-0.526-1.322
			c-0.875-0.455-0.491-0.58-0.651-1.291C134.27,19.108,134.01,18.114,134.502,17.951z M129.65,24.195
			c0.285,0.252,0.131,0.659,0.488,0.586c0.357-0.074,0.391-0.554,0.936-0.456s0.701,0.285,0.717,0.561
			c0.016,0.277,0.025,0.619-0.48,0.838c-0.505,0.22-0.609,0.408-0.887,0.627c-0.456,0.362-1.354,0.4-1.277-0.277
			c0.04-0.357,0.17-0.382,0.18-0.61c0.008-0.228,0-0.244-0.399-0.171C127.898,25.482,128.846,23.482,129.65,24.195z M131.285,30.284
			c-0.316,0.285-1.172,0.305-1.549,0.01c-0.379-0.296-0.316-0.469-0.5-0.938c-0.524-1.338,0.293-1.729,1.334-1.294
			c0.612,0.254,0.439,0.795,0.744,1.049C131.621,29.366,131.601,29.998,131.285,30.284z M132.041,33.453
			c1.813-0.223,1.979-1.179,3.064-0.635c0.504,0.253,0.114,1.85,0.646,1.742c0.53-0.109,0.657-1.694,1.467-1.549
			c0.808,0.145,1.037,0.422,1.062,0.832c0.023,0.411,0.035,0.917-0.713,1.243c-0.746,0.326-0.904,0.603-1.314,0.929
			c-0.676,0.537-2.008,0.593-1.893-0.41c0.06-0.531,0.252-0.567,0.264-0.905c0.013-0.338,0-0.362-0.59-0.253
			c-0.217,0.039-1.984-0.052-3.078,0.406c-0.678,0.285-0.607,1.171-1.225,1.251c-1.373,0.178-1.965-0.781-2.012-1.015
			C127.594,34.463,129.736,33.736,132.041,33.453z M127.533,10.64c0.414,0.011,0.428,0.287,0.412,0.42
			c-0.045,0.397-0.422,0.14-0.633,0.416c-0.213,0.323-0.648,0.314-0.589-0.104c0.031-0.217-0.155-0.15-0.228-0.379
			C126.423,10.765,127.119,10.63,127.533,10.64z M126.578,40.499c0.896-0.612,1.943-0.213,2.156,0.076s0.926,1.069-0.043,1.823
			c-0.971,0.754-1.432,0.454-2.064,0.882c-0.635,0.429,0.307,1.303-0.399,1.874c-0.707,0.571-1.397,0.535-1.937,0.323
			c-0.539-0.213-1.193-0.941-1.926-0.341c-0.731,0.601-0.453,1.464-1.226,1.461c-3.69-0.017-2.545-3.153-1.267-3.28
			c0.849-0.084,1.175,0.667,1.545,0.008c0.369-0.659,0.617-1.062,1.636-1.516c1.017-0.454,1.728,0.271,2.167,0.242
			C125.66,42.021,125.682,41.11,126.578,40.499z M125.142,28.853c0.667,0.137,0.79,1.28,0.447,1.662
			c-0.983,1.092-1.146,0.418-1.638,0.211c-1.354-0.569-1.265,0.365-0.676,1.194c0.721,1.017-0.191,2.361-0.628,2.504
			c-1.296,0.424-0.887-1.088-1.095-1.783c-0.37-1.233-1.275-1.537-2.314-1.07c-0.297,0.133-1.353-0.318-0.69-0.977
			c0.6-0.597,2.606,0.159,1.79-1.306c-0.348-0.625-1.635,0.295-2.188,0.458c-0.801,0.236-1.039-0.231-1.039-0.886
			c0-1.828,4.713-0.302,4.93-0.01C123.164,30.358,123.515,28.522,125.142,28.853z M118.533,22.924
			c0.733,0.018,0.756,0.507,0.729,0.743c-0.08,0.704-0.748,0.249-1.122,0.74c-0.378,0.573-1.15,0.556-1.044-0.185
			c0.056-0.386-0.276-0.266-0.405-0.672C116.563,23.145,117.797,22.905,118.533,22.924z M111.443,33.387
			c0.891-1.09,2.965,0.982,3.219,1.278c0.303,0.352,0.051,0.754,0.303,1.19c0.251,0.436,0.721,0.302,0.587,0.906
			c-0.136,0.603-0.47,1.073-0.235,1.123c0.235,0.05,0.754-0.302,1.174-0.419c0.418-0.118,0.938-0.151,0.604-0.486
			c-0.336-0.336-0.989-0.671-0.838-1.107c0.15-0.437,0.72-1.073,1.626-0.437c0.905,0.637,0.218,0.939,0.553,1.643
			c0.369,0.805,1.056,0.503,1.056,1.509c0,1.005-0.066,1.341-0.535,1.609c-0.471,0.268-0.84,0.419-1.006-0.335
			c-0.053-0.233,0.305-0.601,0.392-0.967c0.274-1.147-0.733-1.402-0.728-1.197c0.035,1.381-1.527,1.372-1.793,1.259
			c-0.437-0.185-0.337-0.47-0.604-0.285c-0.269,0.184-0.737,0.502-0.905,0.067c-0.167-0.436-0.52-0.604-0.234-1.056
			c0.285-0.453,0.067-0.386,0.067-0.838c0-0.453,0.435-0.638,0.269-0.856c-0.168-0.217-1.006,0.185-1.141-0.15
			c-0.084-0.21,0.415-1.451-0.056-1.621C112.244,33.868,111.305,33.558,111.443,33.387z M115.779,58.466
			c-1.814-0.096-3.32-2.347-4.128,1.115c-1.713,7.348-7.749-6.589-2.836-4.913c2.789,0.951,2.655-1.099,4.248-2.525
			c1.693-1.008,3.841,0.508,4.312,1.902C118.27,55.608,117.369,58.551,115.779,58.466z M110.383,46.266
			c1.505,0.513,1.433-0.593,2.292-1.363c0.913-0.544,2.071,0.275,2.327,1.027c0.482,0.843-0.004,2.431-0.862,2.386
			c-0.979-0.053-1.791-1.267-2.226,0.601C110.988,52.882,107.731,45.362,110.383,46.266z M108.509,40.416
			c-0.966,0.176-0.179,1.225-0.824,1.782c-1.537,1.327-3.132-1.038-1.668-1.512c0.61-0.198,1.466-0.344,1.108-1.184
			c-0.354-0.835,0.013-1.13,0.738-1.416C109.315,37.513,110.332,40.084,108.509,40.416z M102.884,28.087
			c-1.083,0.199-0.085-1.91,0.764-1.158c0.3,0.266,0.138,0.695,0.515,0.617c0.377-0.077,0.412-0.583,0.986-0.48
			c0.575,0.103,0.738,0.301,0.755,0.592c0.017,0.292,0.026,0.652-0.506,0.884c-0.532,0.231-0.644,0.429-0.935,0.66
			c-0.481,0.382-1.428,0.422-1.348-0.291c0.043-0.378,0.18-0.404,0.189-0.644C103.313,28.027,103.305,28.01,102.884,28.087z
			 M105.424,15.994c0.604,0.207,0.576-0.238,0.921-0.547c0.368-0.219,0.833,0.11,0.937,0.412c0.193,0.339-0.002,0.978-0.347,0.959
			c-0.394-0.021-0.722-0.509-0.896,0.242C105.666,18.655,104.357,15.631,105.424,15.994z M101.349,20.298
			c0.416-0.137,1.246-0.318,1.56,0.099c0.439,0.585,0.719-0.153,1.233-0.31c1.008-0.308,0.851,0.656,1.021,1.095
			c0.28,0.723-0.006,0.248,0.971,0.248c0.854,0,0.953,2.558-0.436,1.934c-0.221-0.099-0.408-1.177-0.633-1.081
			c-0.911,0.392-1.227-0.24-1.497-0.046c-0.299,0.213,0.248,1.18-0.222,2.173c-0.188,0.394-0.475,0.33-0.877,0.343
			c-0.588,0.02-0.106-1.307-0.631-1.58c-1.045-0.544-0.586-0.693-0.777-1.542C101.072,21.68,100.761,20.493,101.349,20.298z
			 M100.4,45.683c-0.316,0.285-1.172,0.305-1.549,0.01c-0.377-0.296-0.316-0.469-0.499-0.938c-0.524-1.338,0.292-1.729,1.335-1.294
			c0.611,0.255,0.438,0.795,0.744,1.049C100.737,44.765,100.717,45.397,100.4,45.683z M102.598,39.988
			c-1.296,0.425-0.887-1.087-1.096-1.782c-0.369-1.233-1.274-1.537-2.313-1.07c-0.297,0.133-1.353-0.318-0.69-0.977
			c0.6-0.598,2.606,0.158,1.789-1.306c-0.348-0.625-1.635,0.295-2.187,0.458c-0.802,0.236-1.04-0.23-1.04-0.886
			c0-1.828,4.713-0.303,4.932-0.01c1.123,1.508,1.473-0.328,3.1,0.003c0.668,0.136,0.791,1.28,0.447,1.662
			c-0.983,1.092-1.146,0.418-1.639,0.211c-1.354-0.569-1.263,0.365-0.675,1.194C103.945,38.501,103.033,39.846,102.598,39.988z
			 M108.029,72.089c-0.836-2.792-2.885-3.48-5.238-2.423c-0.672,0.302-3.063-0.718-1.564-2.21c1.359-1.353,5.902,0.358,4.053-2.958
			c-0.789-1.414-3.701,0.668-4.951,1.037c-1.812,0.534-2.354-0.522-2.354-2.006c0-4.137,10.67-0.684,11.164-0.021
			c2.54,3.414,3.335-0.744,7.017,0.007c1.512,0.308,1.791,2.896,1.012,3.761c-2.225,2.472-2.592,0.947-3.709,0.478
			c-3.062-1.287-2.859,0.826-1.527,2.703c1.632,2.301-0.436,5.344-1.421,5.667C107.576,77.086,108.502,73.662,108.029,72.089z
			 M117.981,86.577c0.421-0.979-0.42-1.261-1.587-1.12s-0.747,0.746-1.727,1.447c-0.981,0.699-0.7,0.093-1.914,0.513
			c-1.215,0.42-0.327,0.935-0.84,1.774c-0.515,0.84-1.121,0.654-1.494,1.26c-0.375,0.607,0.07,2.148-0.444,2.754
			c-0.503,0.596-3.896,1.162-3.313-1.938c0.14-0.746,0.979-0.934,1.82-1.213c0.84-0.281,0.747-1.027,0.42-2.147
			c-0.326-1.12-0.094-1.96,0.233-2.661c0.327-0.7,2.054-0.141,3.034-0.466c0.98-0.327,0.234-1.214,0.793-2.474
			c0.561-1.262,1.447-0.234,2.287-0.98c0.842-0.748-0.139-0.467-0.325-2.055s2.1-2.054,3.5-1.961
			c1.401,0.094,1.167,0.888,1.354,1.728c0.187,0.84-0.234,1.399,0.279,2.381c0.514,0.979,0.841-0.14,2.193,0
			c1.354,0.14,1.238,0.537,1.472,0.724s0.233,0.84,0.093,1.867c-0.14,1.027-0.607,1.213-1.26,1.68
			c-0.654,0.468-2.008-0.979-2.661-0.934c-0.653,0.047-0.514,0.887-0.14,1.262c0.373,0.373,1.26-0.047,1.96,0.793
			s-0.14,1.121-0.747,2.101s-2.1,0.606-2.895,0.187C117.281,88.678,117.562,87.557,117.981,86.577z M122.272,110.583
			c-0.373,0.606-3.034,0.841-2.94,2.101c0.093,1.26,0.887,0.699,1.447,3.127s-0.98,2.428-1.634,2.801
			c-0.653,0.374-2.194,0.42-2.848-0.605c-0.653-1.027-0.187-1.354,0.047-2.896c0.233-1.54-0.14-2.567-0.979-3.08
			c-0.841-0.515-2.941,0.046-3.035-2.008s-0.187-2.567-1.773-2.567c-2.77,0-1.621-4.398,0.934-5.088
			c1.727-0.467,2.473,1.074,3.453,0.279c0.98-0.793,0-1.959,1.074-3.08c1.073-1.12,2.66-2.475,4.201-1.82
			c1.54,0.653,2.475,1.727,1.587,3.081c-0.888,1.353-3.408,1.867-3.548,3.313c-0.141,1.447,2.008,0.42,1.494,1.774
			c-0.514,1.353-2.055,2.007-1.633,2.847c0.42,0.84,0.513-0.42,2.146-0.14S122.646,109.977,122.272,110.583z M139.092,104.904
			c0,2.8-0.188,3.734-1.494,4.48c-1.307,0.748-2.334,1.168-2.8-0.934c-0.146-0.648,0.849-1.673,1.092-2.691
			c0.763-3.194-2.04-3.904-2.026-3.334c0.1,3.846-4.25,3.82-4.994,3.506c-1.213-0.515-0.934-1.309-1.681-0.795
			s-2.054,1.4-2.521,0.188c-0.467-1.214-1.447-1.682-0.653-2.941c0.793-1.26,0.187-1.074,0.187-2.334s1.213-1.773,0.746-2.381
			s-2.801,0.514-3.174-0.42c-1.48-3.697,2.637-4.711,3.874-3.268c0.841,0.98,0.14,2.101,0.841,3.314
			c0.7,1.215,2.008,0.84,1.633,2.521c-0.373,1.68-1.307,2.986-0.652,3.127c0.652,0.14,2.1-0.84,3.268-1.167
			c1.166-0.326,2.613-0.421,1.68-1.353c-0.934-0.935-2.754-1.869-2.334-3.082c0.421-1.214,2.008-2.988,4.529-1.214
			c2.521,1.774,0.606,2.614,1.539,4.574C137.178,102.943,139.092,102.104,139.092,104.904z M136.016,86.357
			c-0.723,0.652-2.684,0.699-3.547,0.022c-0.864-0.677-0.725-1.073-1.145-2.147c-1.199-3.064,0.67-3.959,3.058-2.963
			c1.401,0.582,1.004,1.819,1.704,2.403C136.785,84.256,136.74,85.703,136.016,86.357z M149.345,82.016
			c-0.373,0.84-2.194,1.213-2.94,0.7c-0.746-0.514-1.446-0.747-2.054-0.047c-0.606,0.7-2.194,2.241-3.641,2.101
			c-1.447-0.141-3.269-0.233-3.968-2.24c-1.362-3.905,1.191-5.234,4.435-3.875c1.446,0.607,2.147,1.775,3.22,1.261
			c1.074-0.513,1.494-1.54,3.315-1.261C149.531,78.936,149.719,81.175,149.345,82.016z M148.604,68.606
			c0.135-1.202,0.572-1.284,0.6-2.048c0.027-0.765,0-0.819-1.338-0.574c-3.449,0.634-0.272-6.08,2.431-3.686
			c0.955,0.846,0.437,2.212,1.638,1.966c1.202-0.246,1.311-1.857,3.141-1.529c1.83,0.327,2.349,0.955,2.404,1.884
			c0.053,0.928,0.082,2.075-1.611,2.813c-1.694,0.737-2.049,1.365-2.978,2.102C151.357,70.751,148.344,70.877,148.604,68.606z
			 M170.521,68.344c-0.642,2.369-2.908,1.354-3.097,3.051c-0.164,1.474-1.038,3.222-2.021,4.369
			c-0.983,1.147-1.529,2.075-3.496,2.075c-1.965,0-3.495-0.327-3.769-1.036c-0.272-0.712-0.874-1.531-1.584-1.912
			c-0.71-0.383-1.31,0.49-2.565,0.49c-1.258,0-2.842-1.255-2.568-2.621c0.273-1.365,0.711-2.13,2.568-2.239
			c1.855-0.11,2.402,1.365,2.894,1.966c0.492,0.601,1.692,1.201,2.239,0.437c0.547-0.765-0.6-1.311,1.529-1.693
			c0.389-0.07,6.188-0.424,3.769-2.513c-1.3-1.123-4.203-3.024-1.365-4.861c0.929-0.6,1.748-2.129,3.386-2.02
			C169.964,62.071,171.359,65.243,170.521,68.344z M184.869,129.646c-2.239-1.111-2.227-0.414-2.153,2.153
			c0.021,0.742,1.698,1.25,3.324,1.881l0.295,0.005c0.028-0.423,0.056-0.829,0.084-1.197c0.056-0.707,0.029-1.59,0.013-2.385
			C186.018,130.101,185.506,129.961,184.869,129.646z M142.529,129.936c0.004-1.905-1.25-4.082,1.832-4.545
			c2.514-1.815-0.939-3.94-4.19-3.611c-3.617,0.366-2.351,1.302-2.753,3.868c-0.213,1.353-0.797,2.487-2.407,3.041
			c-1.481,0.511-4.511,1.683-2.461,3.58c0.649,0.602,3.292,0.895,3.846-0.255c0.334-0.693,1.964-3.139,2.738-2.006
			C139.636,130.74,142.523,133.534,142.529,129.936z M109.945,123.047c0.188,0.881,0.383,1.914,0.581,3.027
			c0.839-0.355,1.369-0.913,0.675-2.012C111.195,124.055,110.566,123.623,109.945,123.047z M90.571,65.842l0.722-4.197
			c-0.367,0.563-0.81,1.126-1.116,1.727C89.73,64.254,90.142,65.005,90.571,65.842z M72.524,113.276
			c-0.377,0.296-0.453,1.077,0.09,2.295c0.164,1.097,0.034,2.498-0.97,4.001c-0.786,1.175,1.257,1.967,1.038,2.829
			c-0.186,0.731-1.723,3.042-2.1,2.321c-0.364-0.694-0.066-1.092-0.199-1.688c-0.132-0.595,0.034-1.157-0.959-1.224
			c-0.993-0.067-2.616,0.265-2.483,1.39c0.132,1.125,0.827,0.927,0.232,1.456c-0.596,0.53-1.225-0.197-1.623,0.696
			c-0.397,0.893,0.133,1.522-0.562,1.754c-0.695,0.231-1.92-0.166-2.152,0.331s-0.397,1.092-0.165,1.887
			c0.231,0.794,0.298,1.324-0.298,1.523c-0.596,0.197-1.192,0.33-1.291,0.859c-0.412,2.198,1.993,1.797,2.35,1.375
			c0.364-0.431,0.049-1.523,0.314-1.953c0.265-0.431,0.696-0.299,1.06-0.895c0.364-0.596-0.265-0.96,0.595-1.258
			c0.861-0.299,0.663,0.133,1.358-0.364c0.695-0.496,0.397-0.927,1.224-1.026c0.828-0.099,1.424,0.1,1.126,0.795
			s-0.497,1.489,0.066,1.787c0.563,0.299,1.622,0.563,2.053-0.132c0.175-0.284,0.378-0.485,0.523-0.664v-0.833
			c-0.495-0.586-1.12-0.292-1.384-0.556c-0.265-0.265-0.364-0.861,0.099-0.894c0.509-0.037,0.939-0.121,1.285-0.237v0.778
			c0.699-0.365,1.644-0.595,2.911-0.595c1.082,0,1.274-0.3,1.214-1.364c-0.136-2.427-2.069-5.68,1.92-5.439
			c0.388-1.401,0.789-3.331,1.144-5.202c-0.216,0.091-0.449,0.165-0.701,0.217C74.629,116,74.608,111.647,72.524,113.276z
			 M75.011,131.227c-1.704,0.46-2.471,3.395-0.623,3.395c0.268,0,0.473,0.023,0.629,0.078c0.191-1.089,0.39-2.291,0.595-3.525
			C75.433,131.155,75.234,131.166,75.011,131.227z M147.152,136.912c-1.256-0.193-1.545,0.516-2.285,0.869s-1.224-0.449-2.221-0.869
			c-2.236-0.937-3.996-0.021-3.058,2.672c0.483,1.383,1.737,1.448,2.735,1.545s2.092-0.965,2.511-1.449
			c0.418-0.482,0.901-0.321,1.416,0.033c0.514,0.354,1.771,0.097,2.026-0.482C148.535,138.65,148.406,137.106,147.152,136.912z
			 M132.494,140.409c-0.854-1.795,0.897-2.563-1.41-4.188c-2.307-1.623-3.76,0.002-4.145,1.113
			c-0.385,1.109,1.282,1.965,2.137,2.818c0.854,0.855-0.471,0.939-1.539,1.239c-1.067,0.299-2.392,1.196-2.99,1.069
			c-0.598-0.129,0.257-1.326,0.599-2.863c0.341-1.538-0.854-1.196-1.496-2.307c-0.432-0.75-0.28-1.461-0.372-2.119
			c0.631-0.066,1.207-0.35,1.291-1.047c0.063-0.52,0.055-0.894,0.021-1.244c-1.141,0.367-2.5-0.209-3.26-2.554
			c-1.021-3.157-6.883-4.212-4.528,2.313c0.62,1.718,0.084,2.356-0.747,2.869c0.016,0.312-0.004,0.726-0.049,1.279
			c-0.068,0.826-0.358,2.463,0.789,2.676c0.02,0.004,2.084,0.687,2.179,0.229c0.405-0.083,0.405-1.14,0.515-2.243
			c0.602,0.46,2.367-0.318,2.752,0.18c0.428,0.557-0.684,1.026-0.684,2.18c0,1.154,0.555,0.982-0.171,2.137
			c-0.726,1.153,0.171,1.581,0.599,2.691c0.426,1.111,1.623,0.3,2.307-0.17c0.684-0.471,0.427,0.256,1.537,0.726
			c0.683,0.288,4.664,0.312,4.572-3.208c-0.013-0.521,2.553,0.127,1.855,3.051c-0.137,0.573-0.534,1.149-0.789,1.646
			c1.188,0.055,2.372,0.1,3.533,0.147c0.15-0.603,0.186-1.414,0.186-2.576C135.186,141.69,133.434,142.461,132.494,140.409z
			 M113.555,141.944c0.023-0.366-0.08-0.733-0.32-0.95C113.324,141.342,113.425,141.656,113.555,141.944z"/>
	</g>
</g>
</svg>
