<?xml version="1.0" encoding="utf-8"?>
<!-- Generator: Adobe Illustrator 16.0.3, SVG Export Plug-In . SVG Version: 6.00 Build 0)  -->
<!DOCTYPE svg PUBLIC "-//W3C//DTD SVG 1.1//EN" "http://www.w3.org/Graphics/SVG/1.1/DTD/svg11.dtd">
<svg version="1.1"
	 id="Layer_1" shape-rendering="geometricPrecision" text-rendering="geometricPrecision" image-rendering="optimizeQuality" xmlns:xodm="http://www.corel.com/coreldraw/odm/2003"
	 xmlns="http://www.w3.org/2000/svg" xmlns:xlink="http://www.w3.org/1999/xlink" x="0px" y="0px" width="238px" height="298px"
	 viewBox="0 0 238 298" enable-background="new 0 0 238 298" xml:space="preserve">
<linearGradient id="SVGID_1_" gradientUnits="userSpaceOnUse" x1="118.8667" y1="297.9922" x2="118.8667" y2="4.882813e-004">
	<stop  offset="0.25" style="stop-color:#F00808"/>
	<stop  offset="0.75" style="stop-color:#F00808;stop-opacity:0"/>
</linearGradient>
<path fill="url(#SVGID_1_)" d="M195.258,97.725c-0.086-0.928-0.17-1.855-0.309-2.717c-0.137-0.863-0.328-1.66-0.099-3.179
	c0.229-1.518,0.881-3.756,1.681-6.308c0.801-2.552,1.751-5.416,2.563-9.738c0.813-4.321,1.488-10.1,2.276-15.979
	c0.789-5.878,1.689-11.858,2.651-16.311c0.964-4.452,1.989-7.38,2.54-9.306c0.55-1.926,0.626-2.852,0.662-4.065
	c0.021-0.673,0.031-1.437,0.035-2.241c-0.11-0.063-0.223-0.122-0.338-0.177c-4.973-2.379-9.709-5.332-14.852-7.146
	c-4.645-1.638-11.448-2.698-17.279-4.717c-2.276-0.789-4.555-1.588-6.817-2.414l-0.004-0.03l-9.995-4.078L157.8,9.248
	c-0.614-0.28-1.552-1.207-2.511-1.888c-0.494-0.369-0.613-0.563-1.037-0.905c-2.855-2.298-5.604-5.632-9.57-5.639
	c-0.9-0.002-1.039-0.123-1.778-0.163l-7.598-0.17c-5.89-0.486-12.05-0.501-18.052-0.477c-5.085,0.02-9.553,0.063-14.561,0.477
	c-2.528,0.209-4.994,0.029-7.597,0.17c-0.739,0.04-0.878,0.161-1.778,0.163c-3.966,0.006-6.715,3.341-9.571,5.639
	c-0.424,0.342-0.543,0.536-1.037,0.905c-0.741,0.527-1.47,1.199-2.046,1.607c-0.17,0.121-0.326,0.218-0.465,0.281l-10.169,4.15
	l-0.003,0.03c-2.264,0.826-4.542,1.625-6.818,2.414c-5.832,2.02-12.635,3.079-17.28,4.717c-5.142,1.814-9.879,4.767-14.852,7.146
	c-0.212,0.101-0.412,0.215-0.604,0.339c0.121,0.72,0.248,1.442,0.383,2.164c0.438,2.339,0.962,4.691,1.751,8.593
	c0.788,3.902,1.838,9.356,2.814,15.617c0.976,6.259,1.876,13.326,3.033,19.696c1.156,6.369,2.569,12.042,3.373,15.168
	c0.802,3.127,0.998,3.708,1.025,4.319c0.028,0.609-0.11,1.247-0.192,1.817c-0.083,0.57-0.11,1.072-0.138,1.573
	c1.677,4.245,3.327,18.936,3.788,24.013c0.734,8.112,1.825,16.179,2.511,24.336c0.348,4.135,0.874,8.265,1.009,12.414l0.652,12.771
	c0.396,4.197,0.208,8.93,0.274,13.173c0.032,2.062,0.194,4.005,0.186,6.128c-0.007,2.225-0.172,4.347-0.196,6.509
	c-0.051,4.467-0.054,8.63-0.319,13.104c-0.68,11.471-1.256,26.064-3.266,37.004c-0.966,5.404-2.176,11.939-2.753,17.382
	c-0.258,2.431-0.827,10.052-1.467,11.945c-0.68,2.009-0.163,3.657-0.568,5.768c-0.342,1.784-0.742,3.811-1.164,5.565
	c-0.462,1.93-1.434,3.646,0.397,4.964c4.274,1.054,8.548,2.107,13.907,3.017c5.358,0.908,11.799,1.67,18.022,2.047
	c6.223,0.375,12.227,0.362,21.559,0.476c9.331,0.112,21.989,0.351,32.508,0.382c10.521,0.031,18.901-0.145,26.23-0.419
	c7.33-0.274,13.609-0.649,19.051-1.15c5.439-0.501,10.043-1.126,13.822-1.872c3.778-0.746,6.733-1.613,9.689-2.479
	c1.83-1.318,0.859-3.034,0.396-4.964c-0.422-1.755-0.822-3.781-1.164-5.565c-0.404-2.11,0.112-3.759-0.567-5.768
	c-0.641-1.894-1.21-9.515-1.468-11.945c-0.576-5.442-1.787-11.978-2.752-17.382c-2.01-10.939-2.586-25.533-3.266-37.004
	c-0.266-4.475-0.268-8.638-0.319-13.104c-0.024-2.162-0.188-4.284-0.196-6.509c-0.008-2.123,0.154-4.066,0.187-6.128
	c0.065-4.243-0.122-8.976,0.274-13.173l0.652-12.771c0.135-4.148,0.66-8.278,1.008-12.414c0.686-8.158,1.777-16.224,2.512-24.336
	C192.152,115.928,193.579,101.97,195.258,97.725z"/>
</svg>
