<?xml version="1.0" encoding="UTF-8"?>
<!DOCTYPE svg PUBLIC "-//W3C//DTD SVG 1.1//EN" "http://www.w3.org/Graphics/SVG/1.1/DTD/svg11.dtd">
<!-- Creator: CorelDRAW 2018 (64 Bit Versão de avaliação) -->
<svg xmlns="http://www.w3.org/2000/svg" xml:space="preserve" width="181px" height="149px" version="1.1" shape-rendering="geometricPrecision" text-rendering="geometricPrecision" image-rendering="optimizeQuality" fill-rule="evenodd" clip-rule="evenodd"
viewBox="0 0 195683 161298"
 xmlns:xlink="http://www.w3.org/1999/xlink">
 <defs>
   <linearGradient id="id0" gradientUnits="userSpaceOnUse" x1="9525" y1="156723" x2="9526" y2="99264">
    <stop offset="0" stop-opacity="1" stop-color="#F00808"/>
    <stop offset="1" stop-opacity="0" stop-color="#F00808"/>
   </linearGradient>
   <linearGradient id="id1" gradientUnits="userSpaceOnUse" x1="121592" y1="140049" x2="115066" y2="83341">
    <stop offset="0" stop-opacity="1" stop-color="#F00808"/>
    <stop offset="1" stop-opacity="0" stop-color="#F00808"/>
   </linearGradient>
 </defs>
 <g id="Camada_x0020_1">
  <metadata id="CorelCorpID_0Corel-Layer"/>
  <path id="d1" fill="url(#id0)" d="M86877 155540c53,-258 104,-632 182,-1873l-1836 3482c482,-307 883,-616 1141,-840 396,-345 456,-492 513,-769zm316 -4284c47,-895 107,-2002 183,-3389l-1859 3525c-951,69 -1901,138 -2853,207 1503,-2836 3006,-5688 4520,-8558l472 -36 57 -967 -529 1003c-963,86 -1913,163 -2864,241l3752 -7125 87 -1399c-724,62 -1448,120 -2172,172l2459 -4671c79,-1224 157,-2404 231,-3500l17 -252c-351,31 -702,61 -1052,89l1205 -2295c162,-2305 309,-4240 461,-6063 -1514,2887 -3016,5739 -4519,8582 -962,78 -1913,138 -2864,207 1502,-2835 3005,-5680 4520,-8549 950,-78 1901,-156 2863,-242 114,-1368 230,-2672 358,-4023 69,-746 143,-1505 220,-2277 -1151,2188 -2296,4367 -3441,6542 -951,77 -1902,155 -2853,215 1502,-2836 3005,-5688 4520,-8550l1974 -179c154,-1480 321,-3000 501,-4550l-2475 4729c-963,78 -1914,147 -2865,224 1503,-2853 3006,-5705 4520,-8593l1279 -116c131,-1027 268,-2065 413,-3119l-1692 3235c-951,87 -1902,173 -2853,250 1503,-2852 3006,-5722 4520,-8601l779 -78c102,-664 206,-1338 314,-2021l-1093 2099c-963,86 -1914,172 -2865,258 1503,-2869 3006,-5740 4520,-8636 -951,95 -1902,181 -2853,268 -1514,2887 -3028,5748 -4531,8601 -951,78 -1902,147 -2853,207 1503,-2836 3005,-5680 4520,-8550 -963,69 -1914,147 -2864,224 -1515,2853 -3017,5697 -4520,8524 -951,61 -1902,112 -2853,173 1503,-2819 3006,-5646 4520,-8499 -963,69 -1913,130 -2865,181 -1514,2845 -3017,5654 -4519,8464 -951,52 -1902,86 -2853,129 1503,-2792 3006,-5602 4520,-8429 -963,52 -1914,104 -2864,147 -1515,2810 -3018,5611 -4520,8394 -963,26 -1914,61 -2864,86 1502,-2775 3016,-5559 4531,-8360 -963,35 -1914,69 -2865,95 -1514,2801 -3016,5568 -4519,8343 -963,17 -1914,35 -2865,52 1503,-2758 3006,-5525 4520,-8308 -951,25 -1902,43 -2853,68 -1514,2776 -3017,5534 -4519,8274 -963,9 -1914,26 -2865,26 1503,-2741 3006,-5490 4520,-8248 -951,9 -1902,17 -2853,26 -1514,2758 -3017,5499 -4519,8240 -963,0 -1914,-9 -2865,-9 1503,-2724 3006,-5456 4520,-8214 -951,0 -1902,9 -2853,9 -1514,2741 -3028,5464 -4531,8179 -951,-9 -1902,-17 -2853,-43 1503,-2698 3006,-5421 4520,-8153 -963,-9 -1913,-18 -2864,-26 -1515,2723 -3018,5421 -4520,8127 -951,-26 -1902,-51 -2853,-78 1503,-2688 3006,-5386 4520,-8101 -963,-17 -1914,-43 -2864,-69 -1515,2715 -3017,5395 -4520,8076 -951,-26 -1902,-69 -2853,-104 1503,-2671 3005,-5352 4520,-8049 -963,-35 -1914,-69 -2865,-95 -1514,2680 -3016,5352 -4519,8006 -963,-43 -1913,-94 -2865,-146 1503,-2655 3018,-5309 4532,-7981 -963,-43 -1914,-95 -2865,-146 -1514,2671 -3017,5309 -4519,7955 -963,-61 -1914,-130 -2864,-199 1502,-2628 3005,-5257 4519,-7920 -951,-52 -1902,-112 -2852,-173 -1515,2638 -3018,5266 -4520,7878 -963,-78 -1914,-155 -2865,-233 1503,-2603 3006,-5223 4520,-7852 -951,-68 -1902,-146 -2853,-223 -1514,2619 -3016,5214 -4519,7808 -963,-95 -1914,-189 -2865,-284 1503,-2577 3006,-5163 4520,-7774 -951,-87 -1902,-173 -2853,-268 -1514,2595 -3028,5163 -4531,7723 -951,-104 -1902,-216 -2852,-336 1502,-2552 3005,-5111 4519,-7680 -962,-112 -1914,-224 -2864,-336 -1250,2120 -2492,4223 -3733,6318 41,486 83,969 126,1449 648,84 1297,167 1952,249l-1674 2819c107,1177 208,2322 295,3429 29,375 57,746 83,1113 1379,-2333 2758,-4668 4148,-7025 951,112 1902,224 2864,319 -1514,2577 -3017,5136 -4519,7696l-2446 -309c93,1385 163,2724 217,4069l2229 -3760c951,112 1902,224 2864,328 -1514,2568 -3017,5128 -4519,7670l-458 -57 13 807 445 -750c950,121 1901,241 2852,345l-3257 5524 11 2299 1591 201c-525,882 -1049,1763 -1572,2645l2 219c14,1569 34,3211 59,4861 1451,-2455 2902,-4918 4364,-7406 951,112 1901,215 2864,310 -1514,2586 -3017,5146 -4520,7714 -908,-114 -1806,-220 -2703,-333 24,1606 52,3215 82,4766l2621 -4433c951,103 1902,215 2853,319 -1514,2577 -3017,5137 -4520,7688l-883 -112 35 1542 848 -1430c951,120 1902,224 2865,336 -1201,2036 -2394,4061 -3586,6080 18,611 36,1181 53,1707l1866 237 -1743 2939c42,910 76,1528 94,1968 30,728 16,967 26,2123l9 897c1489,-2519 2978,-5064 4478,-7608 951,103 1902,198 2865,301 -1515,2586 -3017,5154 -4520,7723 -948,-111 -1885,-221 -2822,-340 15,1148 40,2614 64,3738 10,457 21,857 32,1207 907,-1529 1816,-3063 2726,-4605 951,103 1902,207 2853,310 -1470,2501 -2929,4986 -4387,7478 190,107 431,217 744,324 660,75 1321,150 1987,222l-128 218c801,135 1767,256 2814,369l167 -285c951,103 1902,198 2864,284l-161 278 1040 91c607,52 1207,103 1821,153l153 -263c951,77 1902,155 2864,224l-148 258c874,61 1816,122 2866,185l135 -236c951,69 1902,129 2865,189l-120 209c902,47 1869,95 2876,144l108 -189c951,52 1902,103 2852,155l-95 168 2860 129 100 -176c951,34 1902,69 2852,94l-115 206 2844 123 136 -242c951,26 1902,52 2853,69l-166 295c1024,44 1962,84 2832,119l198 -354c951,9 1902,17 2864,26l-238 430c1014,31 1941,51 2826,59l265 -481c951,0 1902,0 2864,18l-250 450c990,-16 1943,-43 2886,-73l217 -395c951,0 1902,-8 2864,-17l-176 321 2871 -83 158 -289c951,-9 1902,-26 2864,-52l-137 252c951,-32 1889,-68 2888,-129l114 -209c951,-26 1902,-69 2852,-86l-26 48c240,-26 485,-54 737,-83 -237,10 -474,22 -711,35 1503,-2793 3006,-5594 4520,-8412 951,-43 1902,-95 2865,-147 -1476,2755 -2941,5494 -4406,8225 990,-143 2023,-305 3032,-474 1405,-2628 2811,-5264 4226,-7923 951,-52 1902,-121 2864,-190 -1346,2538 -2684,5055 -4021,7570 543,-102 1050,-202 1506,-295 619,-126 1142,-241 1593,-349 1255,-2373 2511,-4744 3775,-7133l1676 -136zm16992 -67527c-52,291 -103,573 -122,851l460 -896 -338 45zm1143 3583c262,301 515,568 694,767 270,300 371,443 467,579 96,136 189,264 334,838l13 50c1135,-2225 2276,-4459 3416,-6698 -963,146 -1914,284 -2865,431 -688,1351 -1374,2694 -2059,4033zm-105086 -3395c37,749 79,1496 126,2240l1225 -2068c-453,-57 -902,-114 -1351,-172zm87400 42679c-951,78 -1902,155 -2853,224 -1514,2853 -3017,5689 -4519,8524 950,-60 1902,-129 2852,-198 1503,-2835 3006,-5688 4520,-8550zm-4520 8550c-1514,2861 -3017,5688 -4519,8515 951,-60 1902,-120 2864,-181 1503,-2835 3005,-5679 4520,-8550 -963,78 -1914,156 -2865,216zm1198 8136c-951,61 -1902,129 -2853,198 -1514,2836 -3017,5663 -4519,8481 950,-52 1901,-112 2852,-172 1503,-2827 3005,-5663 4520,-8507zm4249 -49601c-962,78 -1913,156 -2864,233 -1515,2862 -3017,5697 -4520,8533 951,-69 1902,-130 2865,-198 1502,-2853 3005,-5706 4519,-8568zm-4519 8568c-1515,2852 -3017,5688 -4520,8515 951,-61 1902,-121 2865,-190 1502,-2835 3005,-5680 4519,-8550 -963,78 -1913,147 -2864,225zm1197 8118c-951,78 -1902,138 -2852,207 -1515,2853 -3029,5671 -4532,8498 951,-60 1902,-112 2865,-172 1502,-2836 3005,-5680 4519,-8533zm-4519 8533c-1515,2835 -3017,5662 -4520,8481 951,-52 1902,-112 2864,-173 1503,-2818 3005,-5654 4520,-8515 -963,69 -1914,138 -2864,207zm1197 8127c-951,69 -1902,129 -2853,181 -1514,2836 -3017,5654 -4519,8464 951,-52 1901,-104 2852,-155 1503,-2819 3006,-5646 4520,-8490zm-4520 8490c-1514,2835 -3017,5645 -4519,8446 951,-43 1901,-95 2864,-147 1503,-2809 3005,-5628 4520,-8472 -963,61 -1914,121 -2865,173zm1198 8144c-951,52 -1902,112 -2853,155 -1514,2819 -3017,5628 -4520,8421 951,-43 1902,-78 2853,-129 1503,-2810 3005,-5620 4520,-8447zm4249 -49540c-962,69 -1913,138 -2864,198 -1514,2836 -3017,5654 -4520,8464 951,-52 1902,-95 2865,-155 1502,-2827 3005,-5654 4519,-8507zm-4519 8507c-1515,2835 -3017,5645 -4520,8455 951,-52 1902,-95 2853,-147 1502,-2818 3005,-5645 4519,-8489 -951,60 -1901,120 -2852,181zm1197 8136c-963,60 -1913,121 -2864,172 -1515,2818 -3017,5628 -4520,8421 951,-35 1902,-78 2864,-130 1503,-2809 3006,-5628 4520,-8463zm-4520 8463c-1514,2827 -3016,5620 -4519,8421 951,-43 1902,-86 2852,-121 1503,-2809 3006,-5619 4520,-8455 -951,52 -1902,104 -2853,155zm1198 8154c-963,43 -1914,94 -2865,146 -1514,2801 -3016,5594 -4519,8386 951,-34 1902,-77 2864,-112 1503,-2801 3005,-5602 4520,-8420zm-4520 8420c-1514,2810 -3017,5585 -4519,8377 951,-34 1901,-60 2864,-94 1503,-2801 3005,-5594 4520,-8412 -963,43 -1914,86 -2865,129zm1198 8162c-951,34 -1902,78 -2853,121 -1514,2792 -3029,5576 -4531,8351 951,-26 1901,-60 2864,-95 1503,-2775 3005,-5576 4520,-8377zm-4520 8377c-1514,2801 -3017,5577 -4520,8352 951,-26 1902,-52 2865,-86 1503,-2776 3005,-5559 4519,-8369 -962,43 -1913,78 -2864,103zm8769 -57848c-962,51 -1913,103 -2864,146 -1514,2810 -3017,5611 -4520,8403 951,-34 1902,-77 2865,-120 1502,-2801 3005,-5611 4519,-8429zm-4519 8429c-1515,2818 -3017,5610 -4520,8386 951,-26 1902,-61 2853,-104 1502,-2792 3005,-5593 4519,-8420 -950,51 -1902,103 -2852,138zm1197 8162c-962,43 -1914,86 -2864,120 -1515,2801 -3017,5585 -4520,8369 951,-34 1902,-69 2864,-95 1503,-2792 3006,-5585 4520,-8394zm-4520 8394c-1514,2801 -3017,5577 -4519,8352 951,-26 1902,-61 2852,-86 1503,-2784 3006,-5577 4520,-8386 -951,43 -1902,86 -2853,120zm1198 8171c-963,34 -1914,69 -2865,95 -1514,2792 -3017,5559 -4519,8334 951,-26 1902,-52 2864,-78 1503,-2775 3006,-5559 4520,-8351zm-4520 8351c-1514,2793 -3017,5559 -4519,8326 950,-17 1902,-43 2852,-69 1503,-2767 3006,-5550 4520,-8343 -951,26 -1902,60 -2853,86zm1198 8179c-963,35 -1914,52 -2865,78 -1514,2784 -3017,5542 -4519,8309 950,-26 1902,-44 2864,-61 1503,-2766 3005,-5542 4520,-8326zm-4520 8326c-1514,2775 -3017,5542 -4520,8291 951,-8 1902,-25 2853,-51 1503,-2750 3005,-5533 4520,-8309 -951,26 -1902,43 -2853,69zm8769 -57737c-963,44 -1913,78 -2864,112 -1515,2784 -3017,5568 -4520,8335 951,-26 1902,-52 2865,-78 1502,-2784 3005,-5567 4519,-8369zm-4519 8369c-1515,2793 -3017,5568 -4520,8335 951,-27 1902,-52 2853,-78 1502,-2767 3005,-5550 4519,-8352 -951,35 -1901,61 -2852,95zm1197 8171c-963,34 -1913,69 -2864,86 -1515,2784 -3017,5550 -4520,8317 951,-26 1902,-43 2865,-69 1502,-2767 3005,-5542 4519,-8334zm-4519 8334c-1515,2792 -3018,5550 -4520,8308 951,-17 1901,-43 2853,-51 1502,-2767 3005,-5542 4519,-8326 -951,26 -1902,52 -2852,69zm1197 8188c-963,26 -1914,52 -2864,69 -1515,2766 -3018,5533 -4520,8274 951,-9 1901,-18 2864,-35 1503,-2766 3005,-5533 4520,-8308zm-4520 8308c-1514,2775 -3017,5516 -4520,8257 952,0 1902,-9 2853,-17 1503,-2758 3006,-5516 4520,-8300 -951,17 -1902,34 -2853,60zm1198 8188c-963,17 -1914,35 -2865,52 -1514,2749 -3017,5498 -4519,8239 951,0 1901,-9 2864,-17 1503,-2749 3005,-5507 4520,-8274zm-4520 8274c-1514,2749 -3017,5499 -4520,8231 951,0 1902,0 2853,-18 1503,-2732 3005,-5481 4520,-8247 -951,17 -1902,25 -2853,34zm8758 -57634c-951,27 -1902,52 -2853,78 -1515,2767 -3017,5525 -4520,8283 951,-9 1902,-26 2853,-43 1503,-2767 3005,-5533 4520,-8318zm-4520 8318c-1515,2775 -3017,5524 -4520,8274 951,-9 1902,-18 2865,-35 1502,-2758 3005,-5516 4519,-8308 -962,25 -1913,43 -2864,69zm1209 8188c-963,17 -1913,34 -2864,51 -1515,2758 -3017,5508 -4520,8257 951,-9 1902,-17 2853,-26 1502,-2749 3017,-5516 4531,-8282zm-4531 8282c-1515,2758 -3017,5507 -4520,8239 951,0 1902,-17 2864,-17 1503,-2740 3006,-5490 4520,-8265 -963,17 -1913,34 -2864,43zm1209 8196c-963,9 -1914,18 -2865,26 -1514,2758 -3016,5499 -4519,8231 951,0 1902,-9 2864,-9 1503,-2740 3005,-5490 4520,-8248zm-4520 8248c-1514,2750 -3017,5473 -4519,8205 950,0 1901,9 2852,9 1503,-2732 3005,-5481 4520,-8239 -951,8 -1902,17 -2853,25zm1197 8197c-962,17 -1913,17 -2864,17 -1514,2732 -3017,5464 -4519,8196 951,0 1901,0 2864,0 1503,-2714 3005,-5455 4519,-8213zm-4519 8213c-1514,2741 -3017,5473 -4520,8197 951,8 1902,8 2853,8 1503,-2732 3005,-5446 4520,-8196 -951,9 -1902,9 -2853,-9zm8757 -57512c-950,17 -1901,26 -2852,34 -1514,2758 -3017,5499 -4520,8240 951,-9 1902,-9 2853,-17 1502,-2741 3005,-5491 4519,-8257zm-4519 8257c-1514,2758 -3017,5498 -4520,8231 951,0 1902,0 2865,-9 1502,-2741 3005,-5482 4519,-8248 -962,8 -1913,17 -2864,26zm1197 8205c-951,8 -1902,17 -2852,17 -1515,2749 -3017,5481 -4520,8205 951,9 1902,9 2853,9 1502,-2741 3005,-5473 4519,-8231zm-4519 8231c-1515,2740 -3017,5464 -4520,8196 951,0 1902,0 2864,8 1503,-2732 3006,-5464 4520,-8213 -963,0 -1914,9 -2864,9zm1197 8204c-951,0 -1902,0 -2853,0 -1514,2741 -3017,5465 -4519,8180 951,8 1902,17 2852,25 1503,-2732 3006,-5455 4520,-8205zm-4520 8205c-1514,2733 -3017,5448 -4519,8180 951,8 1902,17 2864,25 1503,-2732 3005,-5464 4520,-8196 -963,-9 -1914,-9 -2865,-9zm1210 8205c-963,0 -1914,0 -2865,0 -1514,2724 -3017,5439 -4519,8137 950,26 1901,43 2852,51 1503,-2715 3017,-5447 4532,-8188zm-4532 8188c-1514,2724 -3017,5421 -4519,8128 950,26 1901,43 2864,60 1502,-2715 3005,-5438 4520,-8171 -963,0 -1914,-8 -2865,-17zm8769 -57435c-951,9 -1901,9 -2852,18 -1515,2740 -3017,5464 -4520,8179 951,8 1902,17 2853,26 1502,-2733 3005,-5473 4519,-8223zm-4519 8223c-1515,2732 -3017,5447 -4520,8170 951,9 1902,17 2865,26 1502,-2732 3005,-5456 4519,-8205 -963,0 -1913,9 -2864,9zm1197 8205c-951,0 -1902,-9 -2852,-9 -1515,2724 -3017,5447 -4520,8162 951,17 1902,26 2853,34 1502,-2723 3005,-5455 4519,-8187zm-4519 8187c-1515,2724 -3017,5439 -4520,8136 951,26 1902,43 2864,52 1503,-2715 3005,-5438 4520,-8179 -963,0 -1914,0 -2864,-9zm1197 8214c-951,-9 -1902,-17 -2853,-26 -1514,2715 -3017,5421 -4519,8128 951,17 1901,34 2852,51 1503,-2706 3006,-5421 4520,-8153zm-4520 8153c-1514,2715 -3017,5413 -4519,8119 951,9 1901,43 2864,60 1503,-2706 3005,-5412 4520,-8144 -963,-9 -1914,-18 -2865,-35zm1198 8240c-951,-17 -1902,-44 -2853,-61 -1514,2715 -3017,5404 -4520,8102 951,17 1902,43 2853,69 1503,-2698 3005,-5413 4520,-8110zm-4520 8110c-1514,2706 -3017,5387 -4520,8075 951,35 1902,61 2865,87 1503,-2689 3005,-5387 4520,-8110 -963,-9 -1914,-26 -2865,-52zm8769 -57323c-962,-9 -1913,-17 -2864,-26 -1514,2723 -3017,5430 -4520,8136 951,17 1902,35 2865,52 1503,-2715 3005,-5430 4519,-8162zm-4519 8162c-1515,2715 -3017,5421 -4520,8110 951,26 1902,43 2864,60 1503,-2697 3006,-5412 4520,-8144 -962,-9 -1913,-18 -2864,-26zm1197 8222c-951,-9 -1901,-26 -2853,-52 -1514,2715 -3017,5413 -4519,8111 951,25 1902,51 2852,77 1503,-2706 3006,-5421 4520,-8136zm-4520 8136c-1514,2698 -3016,5395 -4519,8084 951,26 1902,52 2864,78 1503,-2698 3006,-5395 4520,-8110 -963,-26 -1913,-35 -2865,-52zm1198 8222c-951,-17 -1902,-34 -2853,-60 -1514,2698 -3017,5387 -4519,8076 950,25 1901,60 2852,86 1503,-2698 3006,-5387 4520,-8102zm-4520 8102c-1514,2698 -3017,5378 -4519,8067 951,35 1901,52 2864,95 1503,-2689 3005,-5387 4520,-8084 -963,-26 -1914,-52 -2865,-78zm1198 8248c-951,-26 -1902,-60 -2853,-86 -1514,2689 -3017,5361 -4520,8041 951,35 1902,78 2853,112 1503,-2689 3005,-5369 4520,-8067zm-4520 8067c-1514,2680 -3017,5344 -4520,8024 952,34 1902,78 2865,121 1503,-2681 3005,-5361 4519,-8050 -962,-34 -1913,-69 -2864,-95zm8769 -57228c-962,-17 -1913,-35 -2864,-52 -1514,2698 -3017,5395 -4520,8076 951,34 1902,60 2865,86 1502,-2698 3005,-5395 4519,-8110zm-4519 8110c-1514,2698 -3017,5378 -4520,8067 951,26 1902,61 2853,95 1502,-2698 3005,-5387 4519,-8093 -950,-26 -1901,-43 -2852,-69zm1197 8231c-962,-26 -1913,-43 -2864,-69 -1514,2689 -3017,5378 -4520,8050 951,43 1902,77 2865,103 1502,-2680 3005,-5378 4519,-8084zm-4519 8084c-1515,2689 -3018,5361 -4520,8033 951,43 1902,78 2853,120 1502,-2680 3017,-5369 4531,-8066 -963,-26 -1914,-52 -2864,-87zm1197 8248c-963,-34 -1914,-60 -2864,-95 -1515,2681 -3018,5344 -4520,8007 951,52 1902,87 2864,130 1503,-2672 3006,-5352 4520,-8042zm-4520 8042c-1514,2672 -3017,5335 -4519,7998 951,52 1902,103 2864,146 1503,-2680 3005,-5343 4520,-8032 -963,-35 -1914,-69 -2865,-112zm1198 8265c-951,-43 -1902,-86 -2853,-121 -1514,2663 -3029,5318 -4531,7973 951,51 1902,103 2864,146 1503,-2654 3005,-5326 4520,-7998zm-4520 7998c-1514,2663 -3017,5318 -4519,7955 950,61 1901,112 2864,164 1502,-2655 3005,-5309 4519,-7981 -962,-43 -1913,-86 -2864,-138zm8769 -57108c-962,-25 -1913,-60 -2864,-94 -1515,2689 -3017,5361 -4520,8024 951,43 1902,86 2865,121 1502,-2672 3005,-5353 4519,-8051zm-4519 8051c-1515,2680 -3017,5352 -4520,8006 951,43 1902,95 2853,130 1502,-2663 3005,-5344 4519,-8033 -951,-35 -1901,-60 -2852,-103zm1197 8256c-963,-34 -1913,-77 -2864,-120 -1515,2680 -3017,5343 -4520,7998 951,43 1902,95 2865,146 1502,-2663 3005,-5343 4519,-8024zm-4519 8024c-1515,2663 -3017,5318 -4520,7955 951,61 1902,112 2853,164 1502,-2655 3005,-5318 4519,-7998 -951,-52 -1902,-78 -2852,-121zm1197 8257c-963,-43 -1914,-86 -2864,-138 -1515,2663 -3017,5300 -4520,7946 951,52 1902,113 2864,173 1503,-2655 3005,-5309 4520,-7981zm-4520 7981c-1514,2646 -3017,5292 -4519,7929 951,69 1901,121 2852,181 1503,-2646 3006,-5301 4520,-7964 -951,-51 -1902,-94 -2853,-146zm1198 8274c-963,-52 -1914,-104 -2865,-164 -1514,2646 -3017,5283 -4519,7904 951,68 1901,137 2864,198 1503,-2638 3005,-5275 4520,-7938zm-4520 7938c-1514,2637 -3017,5257 -4520,7886 951,77 1902,138 2853,207 1503,-2629 3005,-5267 4520,-7912 -951,-61 -1902,-121 -2853,-181zm8769 -56979c-962,-43 -1913,-86 -2864,-138 -1514,2664 -3017,5318 -4520,7956 951,60 1902,120 2865,163 1502,-2646 3005,-5309 4519,-7981zm-4519 7981c-1515,2664 -3017,5301 -4520,7947 951,51 1902,112 2853,172 1502,-2646 3005,-5300 4519,-7972 -951,-43 -1901,-95 -2852,-147zm1197 8274c-963,-51 -1913,-103 -2864,-155 -1515,2646 -3017,5292 -4520,7921 951,69 1902,129 2864,189 1503,-2637 3006,-5292 4520,-7955zm-4520 7955c-1514,2646 -3017,5266 -4519,7904 951,60 1902,129 2852,198 1503,-2637 3006,-5283 4520,-7929 -951,-61 -1902,-112 -2853,-173zm1198 8274c-963,-51 -1914,-112 -2865,-172 -1514,2629 -3016,5257 -4519,7877 951,69 1902,138 2864,207 1503,-2620 3005,-5257 4520,-7912zm-4520 7912c-1514,2638 -3017,5249 -4519,7869 950,78 1901,155 2852,224 1503,-2628 3005,-5257 4520,-7895 -951,-60 -1902,-129 -2853,-198zm1198 8300c-963,-69 -1914,-138 -2865,-207 -1514,2629 -3017,5240 -4519,7843 951,86 1901,155 2864,224 1503,-2602 3005,-5223 4520,-7860zm-4520 7860c-1514,2629 -3017,5232 -4520,7826 951,86 1902,173 2853,259 1503,-2612 3005,-5223 4520,-7860 -951,-61 -1902,-139 -2853,-225zm8757 -56840c-950,-60 -1901,-121 -2852,-172 -1514,2637 -3017,5265 -4520,7886 951,69 1902,138 2853,207 1502,-2629 3005,-5275 4519,-7921zm-4519 7921c-1514,2628 -3017,5257 -4520,7868 951,78 1902,147 2865,216 1502,-2620 3005,-5257 4519,-7903 -962,-61 -1913,-113 -2864,-181zm1209 8291c-962,-69 -1914,-138 -2864,-207 -1515,2629 -3017,5249 -4520,7860 951,78 1902,147 2864,233 1503,-2620 3006,-5258 4520,-7886zm-4520 7886c-1514,2620 -3028,5231 -4531,7826 951,86 1902,172 2864,250 1503,-2620 3006,-5232 4520,-7869 -951,-69 -1902,-129 -2853,-207zm1198 8300c-963,-78 -1914,-156 -2865,-224 -1514,2611 -3017,5205 -4519,7800 951,86 1902,181 2864,267 1503,-2612 3006,-5223 4520,-7843zm-4520 7843c-1514,2602 -3017,5197 -4519,7782 950,95 1901,190 2852,276 1503,-2603 3006,-5206 4520,-7826 -951,-77 -1902,-155 -2853,-232zm1198 8308c-963,-78 -1914,-164 -2865,-250 -1514,2603 -3017,5180 -4519,7757 950,95 1902,198 2864,293 1503,-2594 3005,-5188 4520,-7800zm-4520 7800c-1514,2586 -3017,5163 -4520,7731 951,103 1902,207 2853,302 1503,-2577 3005,-5163 4520,-7766 -951,-86 -1902,-172 -2853,-267zm8758 -56720c-951,-69 -1902,-137 -2853,-215 -1515,2620 -3017,5223 -4520,7817 951,86 1902,172 2853,259 1502,-2612 3005,-5223 4520,-7861zm-4520 7861c-1515,2603 -3017,5197 -4520,7791 951,95 1902,181 2865,267 1502,-2603 3005,-5214 4519,-7834 -962,-78 -1913,-147 -2864,-224zm1197 8299c-951,-77 -1901,-155 -2852,-241 -1515,2603 -3017,5197 -4520,7774 951,104 1902,198 2853,285 1502,-2594 3005,-5198 4519,-7818zm-4519 7818c-1515,2594 -3017,5171 -4520,7748 951,95 1902,198 2865,293 1502,-2586 3005,-5180 4519,-7783 -963,-86 -1913,-172 -2864,-258zm1197 8317c-951,-87 -1902,-173 -2852,-276 -1515,2594 -3018,5171 -4520,7731 951,112 1901,215 2853,310 1502,-2577 3005,-5162 4519,-7765zm-4519 7765c-1515,2586 -3018,5146 -4520,7714 951,103 1901,215 2864,319 1503,-2577 3005,-5154 4520,-7748 -963,-95 -1914,-190 -2864,-285zm5446 -40508c-950,-86 -1901,-181 -2852,-267 -1514,2594 -3017,5171 -4520,7740 951,112 1902,206 2853,301 1503,-2577 3005,-5171 4519,-7774zm-4519 7774c-1514,2586 -3017,5154 -4520,7714 951,112 1902,224 2865,327 1502,-2585 3005,-5162 4519,-7765 -962,-86 -1913,-181 -2864,-276zm1197 8326c-951,-95 -1901,-190 -2852,-285 -1515,2569 -3018,5137 -4520,7697 951,112 1902,216 2853,319 1502,-2560 3005,-5145 4519,-7731z"/>
  <path id="d1_0" fill="url(#id1)" d="M101663 68784c35,-118 82,-224 141,-330 951,-330 1902,-661 2864,-980 -1009,2177 -2019,4332 -3005,6500 0,-1730 0,-3460 0,-5190zm1231 7495l56 72 51 -109c951,-308 1902,-628 2865,-947 -661,1415 -1323,2834 -1981,4253 163,700 334,1445 408,2054 107,885 9,1482 -93,2046 -25,142 -51,281 -73,419l72 -26 -102 219c-47,343 -63,677 7,1011 111,531 440,1063 824,1557 82,106 166,209 250,310 627,-1346 1255,-2691 1885,-4033 951,-287 1902,-585 2853,-882 -1077,2271 -2148,4560 -3217,6846 37,107 78,244 124,427 113,448 259,1168 353,1800l1085 -348 -1007 2141 -16 210c-28,396 -36,789 -69,1290 -32,501 -89,1109 -81,1667 7,512 70,981 355,1636 1223,-2616 2449,-5225 3682,-7825 951,-276 1902,-563 2852,-828 -1514,3161 -3017,6346 -4519,9541 -438,132 -877,269 -1315,408 204,331 429,669 656,992l659 -1400c951,-276 1902,-574 2864,-860 -659,1391 -1316,2779 -1971,4169 126,135 242,255 344,358 385,388 582,546 759,828 137,218 262,509 372,869 1114,-2353 2228,-4700 3349,-7040 951,-265 1902,-530 2864,-783 -1514,3150 -3017,6302 -4519,9464 -445,127 -886,256 -1327,386l15 185c48,620 61,1313 56,2072l1256 -2643c951,-265 1901,-541 2852,-806 -1230,2569 -2453,5139 -3674,7714 187,486 426,937 683,1347 444,-126 889,-251 1336,-379l-647 1353c254,327 499,617 704,874 361,452 600,801 799,1142 664,-1391 1329,-2780 1997,-4164 951,-243 1902,-497 2864,-750 -1266,2616 -2525,5233 -3782,7863 81,423 150,869 235,1284 628,-170 1257,-343 1892,-510 -475,984 -948,1967 -1420,2952 46,366 100,783 192,1287 129,712 333,1600 508,2433 1187,-2475 2376,-4940 3572,-7412 951,-221 1902,-464 2865,-695 -1514,3107 -3017,6214 -4520,9333l-1610 424c92,581 158,1093 227,1564 34,228 69,447 103,666 426,-886 853,-1770 1280,-2654 951,-232 1902,-486 2853,-718 -1220,2503 -2433,5013 -3644,7537 97,588 229,1013 345,1516 545,-140 1093,-282 1644,-427 -440,905 -878,1812 -1316,2719 18,172 36,329 52,464 71,579 130,752 274,907 100,107 239,205 417,305 -76,-351 -147,-698 -122,-952 27,-265 161,-428 317,-529 156,-100 335,-138 714,-60 188,38 425,105 700,176 604,-1246 1210,-2491 1816,-3737 951,-221 1902,-442 2865,-673 -773,1580 -1543,3156 -2311,4735 378,14 807,20 1308,22 364,2 765,2 1211,-6 879,-1799 1760,-3592 2644,-5382 951,-210 1902,-420 2865,-618 -967,1949 -1930,3903 -2890,5858 460,-42 949,-95 1472,-162 403,-52 827,-113 1266,-180 1003,-2031 2007,-4061 3016,-6080 951,-167 1902,-355 2853,-533 -1023,2047 -2041,4084 -3056,6127 935,-174 1901,-366 2875,-565 1012,-2031 2026,-4053 3045,-6070 951,-178 1902,-333 2853,-500 -1005,1982 -2004,3973 -3002,5964 974,-208 1950,-420 2942,-637 972,-1930 1946,-3858 2924,-5781 951,-134 1902,-278 2853,-423 -945,1850 -1885,3699 -2824,5552l1818 -403 1159 -257c902,-1768 1804,-3533 2711,-5302 951,-123 1902,-257 2865,-378 -864,1672 -1724,3348 -2583,5027 1012,-216 2015,-426 2978,-618 817,-1589 1635,-3176 2457,-4755 951,-123 1902,-234 2865,-356 -788,1520 -1573,3040 -2357,4558 1037,-175 1980,-311 2899,-419 768,-1483 1537,-2962 2310,-4441 951,-90 1902,-190 2865,-290 -783,1492 -1562,2985 -2340,4480 546,-34 1109,-62 1701,-86 346,-14 702,-26 1067,-37 806,-1540 1613,-3076 2424,-4605 951,-100 1902,-179 2865,-257 -849,1601 -1695,3205 -2538,4813 885,-5 1801,-1 2734,15 887,-1685 1776,-3365 2668,-5042 951,-57 1902,-113 2853,-181 -944,1765 -1883,3530 -2820,5301l399 17c764,34 1529,77 2287,126 996,-1873 1995,-3741 2998,-5603 951,-46 1902,-81 2853,-127 -1069,1969 -2132,3950 -3194,5934 929,81 1822,169 2655,261 1131,-2106 2264,-4209 3403,-6299 951,-13 1902,-48 2853,-72 -1217,2233 -2427,4466 -3635,6700 1004,143 1843,291 2576,453 1304,-2407 2609,-4798 3923,-7181 951,-2 1902,-4 2865,5 -1459,2624 -2907,5259 -4355,7914 236,95 465,196 683,298 668,-4 1336,-11 2005,-12 608,-1107 1216,-2214 1824,-3318 7,-804 10,-1663 3,-2553 -7,-765 -20,-1553 -39,-2329l-121 0 116 -212c-42,-1776 -104,-3470 -141,-4651l-9 -297c-945,1714 -1888,3432 -2831,5155 -963,1 -1913,15 -2864,28 1502,-2747 3005,-5504 4519,-8238 377,-1 753,0 1131,1 0,-601 0,-1312 -9,-2035 -375,677 -748,1355 -1122,2034 -951,-9 -1901,4 -2852,17 1276,-2332 2552,-4665 3835,-6983 -5,-382 -10,-786 -19,-1238 -724,-4 -1443,-5 -2161,-11 672,-1225 1345,-2447 2019,-3667 -67,-1323 -146,-2761 -196,-4004l-21 -529 -135 1 128 -232c-45,-1318 -69,-2606 -144,-4949 -952,1725 -1900,3457 -2848,5197 -951,13 -1902,16 -2853,29 1502,-2758 3005,-5515 4520,-8249 358,-1 717,0 1075,1 -22,-577 -45,-1189 -72,-1832l-1003 1831c-963,-10 -1914,3 -2865,5 1211,-2205 2423,-4424 3641,-6629 -28,-523 -58,-1054 -89,-1593 -628,-1 -1256,0 -1885,2l1691 -3081c-74,-1095 -156,-2202 -245,-3307 -34,-419 -69,-837 -105,-1255 -1408,2548 -2807,5114 -4205,7681 -963,23 -1914,47 -2864,71 1502,-2779 3016,-5546 4531,-8292 829,-1 1659,-12 2488,-23 -114,-1287 -239,-2570 -374,-3846 -705,1286 -1410,2577 -2114,3869 -963,2 -1914,26 -2864,39 1490,-2746 2980,-5480 4482,-8215l-9 -67c-947,13 -1883,36 -2818,49 755,-1391 1510,-2774 2266,-4152 -184,-1284 -380,-2556 -584,-3813l-37 -228c-1507,2744 -3002,5499 -4498,8254 -963,35 -1913,80 -2865,94 1503,-2790 3006,-5569 4520,-8348l2837 -38c-217,-1325 -444,-2635 -678,-3928 -720,1320 -1440,2641 -2159,3966 -951,24 -1901,48 -2853,72 1426,-2636 2851,-5262 4286,-7877l-83 -422c-855,12 -1701,34 -2547,56 -1515,2789 -3017,5568 -4520,8369 -951,46 -1902,103 -2852,149 1502,-2823 3005,-5635 4519,-8424 -962,34 -1913,80 -2864,115 -1514,2811 -3017,5623 -4520,8468 -963,67 -1913,123 -2864,202 1502,-2844 3017,-5688 4531,-8521 -963,78 -1913,145 -2864,191 -1515,2833 -3017,5689 -4520,8534 -963,89 -1913,179 -2864,257 1502,-2866 3005,-5733 4519,-8588 -951,79 -1901,157 -2852,225 -1515,2877 -3017,5755 -4520,8643 -962,100 -1914,190 -2864,291 1502,-2900 3005,-5789 4519,-8676 -950,100 -1902,201 -2852,291 -1515,2888 -3017,5787 -4520,8698 -963,111 -1913,233 -2864,334 1502,-2922 3005,-5832 4519,-8731 -951,112 -1901,212 -2852,324 -1515,2921 -3029,5841 -4532,8785 -951,122 -1901,256 -2852,378 1502,-2954 3005,-5886 4519,-8818 -962,144 -1913,266 -2864,378 -1514,2953 -3017,5897 -4520,8851 -951,155 -1902,300 -2852,455 1502,-2976 3005,-5941 4519,-8895 -962,133 -1913,289 -2864,422 -1514,2965 -3017,5952 -4520,8928 -951,155 -1902,333 -2852,488 1502,-3009 3005,-5996 4519,-8972 -963,155 -1913,322 -2864,476 -1515,2998 -3017,6007 -4520,9016 -962,188 -1913,376 -2864,553 1503,-3020 3017,-6050 4531,-9058 -962,176 -1913,354 -2864,531 -1515,3019 -3017,6061 -4520,9114 -962,209 -1913,408 -2864,608 1502,-3064 3005,-6117 4519,-9169 -950,199 -1901,398 -2852,598 -1515,3074 -3017,6137 -4520,9223 -963,232 -1913,463 -2864,685 1502,-3097 3005,-6183 4519,-9268 -951,221 -1901,443 -2852,653 -1515,3106 -3017,6214 -4520,9322 -963,264 -1913,518 -2864,761 1502,-3141 3005,-6270 4519,-9388 -951,243 -1901,486 -2852,740 -1515,3140 -3029,6290 -4532,9442 -950,276 -1902,551 -2852,838 1502,-3184 3005,-6346 4519,-9519 -962,286 -1913,551 -2864,816 -1514,3172 -3017,6368 -4520,9563 -951,297 -1901,607 -2852,915 1502,-3217 3005,-6434 4519,-9629 -962,286 -1913,584 -2864,882 -1515,3216 -3017,6444 -4520,9694l-107 37zm89021 26589c-1515,2746 -3018,5514 -4520,8282 951,-35 1902,-59 2864,-71 1503,-2757 3006,-5515 4520,-8227 -963,-10 -1913,3 -2864,16zm1197 8183c-951,13 -1902,26 -2853,28 -1514,2767 -3017,5535 -4519,8315 951,-13 1902,-26 2852,-73 1503,-2768 3006,-5514 4520,-8270zm-4520 8270c-1514,2779 -3017,5558 -4519,8359 951,-35 1902,-81 2864,-104 1503,-2779 3005,-5536 4520,-8293 -963,12 -1914,26 -2865,38zm928 -32850c-1515,2778 -3017,5546 -4520,8336 951,-23 1902,-48 2865,-82 1502,-2768 3005,-5525 4519,-8292 -962,12 -1913,25 -2864,38zm1197 8182c-951,24 -1902,48 -2852,72 -1515,2779 -3017,5558 -4520,8370 951,-46 1902,-81 2853,-127 1502,-2768 3005,-5558 4519,-8315zm-4519 8315c-1515,2789 -3017,5590 -4520,8402 951,-46 1902,-81 2864,-126 1503,-2790 3006,-5569 4520,-8347 -963,23 -1914,58 -2864,71zm1197 8182c-951,35 -1902,70 -2853,94 -1514,2800 -3017,5612 -4519,8413 951,-35 1901,-91 2852,-137 1503,-2801 3006,-5603 4520,-8370zm-4520 8370c-1514,2811 -3017,5634 -4519,8446 951,-57 1901,-114 2864,-159 1503,-2812 3005,-5602 4520,-8413 -963,45 -1914,80 -2865,126zm4250 -49403c-1514,2790 -3017,5580 -4520,8370 951,-24 1902,-70 2853,-105 1503,-2790 3005,-5569 4520,-8326 -951,13 -1902,37 -2853,61zm1198 8172c-963,23 -1914,58 -2865,93 -1514,2789 -3017,5590 -4520,8402 951,-46 1902,-92 2865,-137 1502,-2790 3005,-5580 4520,-8358zm-4520 8358c-1515,2800 -3017,5601 -4520,8424 951,-35 1902,-91 2853,-148 1502,-2801 3005,-5602 4520,-8381 -952,24 -1902,81 -2853,105zm1197 8160c-963,46 -1913,81 -2864,116 -1515,2822 -3017,5634 -4520,8457 951,-46 1902,-103 2864,-148 1503,-2823 3006,-5624 4520,-8425zm-4520 8425c-1514,2811 -3016,5634 -4519,8479 951,-57 1902,-125 2864,-192 1503,-2812 3005,-5635 4520,-8424 -963,34 -1914,80 -2865,137zm1198 8138c-951,46 -1902,114 -2853,149 -1514,2833 -3028,5666 -4531,8511 951,-79 1902,-136 2864,-203 1503,-2834 3005,-5646 4520,-8457zm-4520 8457c-1514,2833 -3017,5678 -4519,8534 951,-68 1901,-147 2864,-214 1503,-2833 3005,-5667 4520,-8490 -963,57 -1914,124 -2865,170zm8769 -57892c-962,34 -1913,91 -2864,126 -1514,2801 -3017,5612 -4519,8435 950,-56 1901,-113 2864,-159 1503,-2812 3005,-5613 4519,-8402zm-4519 8402c-1514,2823 -3017,5645 -4520,8479 951,-57 1902,-124 2853,-182 1503,-2811 3005,-5623 4519,-8423 -950,56 -1901,81 -2852,126zm1197 8150c-962,45 -1913,102 -2864,147 -1514,2812 -3017,5657 -4520,8491 951,-57 1902,-114 2865,-181 1502,-2812 3005,-5646 4519,-8457zm-4519 8457c-1515,2833 -3017,5667 -4520,8523 951,-68 1902,-136 2853,-204 1503,-2834 3005,-5657 4519,-8479 -950,57 -1901,103 -2852,160zm1197 8127c-962,57 -1913,124 -2864,192 -1515,2833 -3017,5689 -4520,8534 951,-68 1902,-147 2864,-214 1503,-2845 3006,-5689 4520,-8512zm-4520 8512c-1514,2844 -3017,5700 -4519,8567 951,-79 1902,-158 2852,-237 1503,-2855 3006,-5700 4520,-8533 -951,67 -1902,135 -2853,203zm1198 8128c-963,56 -1913,134 -2865,202 -1514,2844 -3017,5711 -4519,8589 951,-79 1902,-169 2864,-247 1503,-2855 3006,-5711 4520,-8544zm-4520 8544c-1514,2866 -3017,5733 -4519,8611 950,-79 1902,-169 2852,-248 1503,-2877 3006,-5733 4520,-8588 -951,79 -1902,158 -2853,225zm8770 -58045c-963,45 -1914,102 -2865,159 -1514,2833 -3017,5678 -4519,8523 950,-68 1901,-136 2864,-214 1502,-2823 3005,-5668 4520,-8468zm-4520 8468c-1515,2844 -3017,5700 -4520,8566 951,-78 1902,-146 2853,-225 1502,-2845 3005,-5690 4520,-8523 -951,68 -1902,136 -2853,182zm1197 8138c-962,68 -1913,135 -2864,203 -1515,2855 -3017,5711 -4520,8578 951,-79 1902,-158 2865,-247 1502,-2845 3005,-5701 4519,-8534zm-4519 8534c-1515,2855 -3017,5733 -4520,8599 951,-89 1902,-168 2853,-258 1502,-2866 3005,-5711 4519,-8566 -950,78 -1901,146 -2852,225zm1197 8117c-962,78 -1913,145 -2864,224 -1515,2866 -3017,5733 -4520,8621 951,-78 1902,-179 2865,-268 1502,-2856 3005,-5722 4519,-8577zm-4519 8577c-1515,2866 -3018,5755 -4520,8643 951,-90 1901,-179 2853,-280 1502,-2877 3005,-5744 4519,-8610 -951,79 -1902,168 -2852,247zm1197 8106c-963,78 -1914,167 -2864,257 -1515,2888 -3018,5776 -4520,8676 951,-111 1901,-201 2864,-301 1503,-2889 3006,-5766 4520,-8632zm-4520 8632c-1514,2877 -3017,5776 -4519,8676 951,-101 1901,-201 2852,-302 1503,-2889 3006,-5777 4520,-8654 -951,79 -1902,179 -2853,280zm8758 -58211c-951,68 -1902,147 -2853,204 -1514,2866 -3017,5744 -4520,8621 951,-90 1902,-168 2853,-258 1503,-2867 3005,-5723 4520,-8567zm-4520 8567c-1514,2866 -3017,5743 -4520,8632 951,-89 1902,-190 2865,-290 1503,-2856 3005,-5733 4520,-8588 -963,77 -1914,156 -2865,246zm1209 8106c-962,78 -1913,157 -2864,236 -1515,2877 -3017,5765 -4520,8654 951,-90 1902,-179 2853,-280 1503,-2878 3017,-5754 4531,-8610zm-4531 8610c-1514,2888 -3017,5776 -4520,8676 951,-90 1902,-201 2865,-301 1502,-2878 3005,-5767 4519,-8632 -962,89 -1913,167 -2864,257zm1209 8095c-963,89 -1913,190 -2864,280 -1515,2888 -3017,5787 -4520,8698 951,-101 1902,-202 2864,-312 1503,-2889 3006,-5778 4520,-8666zm-4520 8666c-1514,2898 -3016,5809 -4519,8719 951,-111 1902,-223 2852,-346 1503,-2888 3006,-5788 4520,-8676 -951,101 -1902,202 -2853,303zm1198 8072c-963,100 -1914,212 -2865,301 -1514,2921 -3016,5832 -4519,8753 951,-101 1902,-234 2864,-345 1503,-2911 3005,-5810 4520,-8709zm-4520 8709c-1514,2921 -3017,5831 -4519,8764 951,-112 1901,-234 2852,-346 1503,-2922 3005,-5832 4520,-8731 -951,101 -1902,213 -2853,313zm8758 -58364c-951,90 -1902,180 -2853,280 -1514,2888 -3017,5788 -4519,8687 950,-111 1901,-223 2852,-323 1503,-2889 3005,-5767 4520,-8644zm-4520 8644c-1514,2898 -3017,5798 -4519,8708 950,-100 1901,-212 2864,-312 1502,-2899 3005,-5788 4519,-8676 -962,89 -1913,190 -2864,280zm1197 8094c-950,101 -1901,202 -2852,302 -1514,2899 -3017,5799 -4520,8720 951,-112 1902,-223 2853,-335 1503,-2899 3005,-5799 4519,-8687zm-4519 8687c-1514,2910 -3017,5831 -4520,8753 951,-123 1902,-234 2865,-356 1502,-2910 3005,-5810 4519,-8720 -962,111 -1913,211 -2864,323zm1197 8073c-951,112 -1902,223 -2852,324 -1515,2920 -3017,5842 -4520,8774 951,-111 1902,-234 2853,-356 1502,-2922 3005,-5832 4519,-8742zm-4519 8742c-1515,2920 -3017,5842 -4520,8774 951,-111 1902,-234 2864,-356 1503,-2932 3006,-5853 4520,-8763 -963,111 -1913,222 -2864,345zm1209 8062c-963,122 -1914,234 -2865,356 -1514,2932 -3017,5864 -4519,8808 951,-123 1902,-256 2852,-379 1503,-2932 3017,-5864 4532,-8785zm-4532 8785c-1514,2931 -3017,5886 -4519,8829 951,-133 1902,-266 2864,-410 1503,-2933 3005,-5866 4520,-8797 -963,122 -1914,244 -2865,378zm8770 -58516c-951,100 -1902,212 -2853,313 -1514,2910 -3017,5831 -4520,8763 951,-122 1902,-245 2853,-368 1503,-2910 3005,-5809 4520,-8708zm-4520 8708c-1514,2921 -3017,5854 -4519,8786 950,-111 1901,-234 2864,-367 1502,-2910 3005,-5832 4520,-8731 -963,111 -1914,212 -2865,312zm1198 8073c-951,112 -1902,235 -2853,346 -1515,2932 -3017,5864 -4520,8808 951,-134 1902,-257 2853,-379 1502,-2943 3005,-5854 4520,-8775zm-4520 8775c-1515,2932 -3017,5875 -4520,8818 951,-133 1902,-267 2865,-400 1502,-2932 3005,-5864 4519,-8785 -962,111 -1913,244 -2864,367zm1197 8051c-950,122 -1902,245 -2852,367 -1515,2943 -3017,5898 -4520,8852 951,-134 1902,-267 2853,-412 1502,-2943 3005,-5876 4519,-8807zm-4519 8807c-1515,2954 -3017,5908 -4520,8873 951,-144 1902,-289 2864,-432 1503,-2944 3006,-5898 4520,-8830 -962,122 -1914,256 -2864,389zm1197 8029c-951,156 -1902,289 -2853,412 -1514,2964 -3017,5919 -4519,8884 951,-134 1901,-278 2852,-434 1503,-2954 3006,-5908 4520,-8862zm-4520 8862c-1514,2976 -3017,5930 -4519,8917 951,-144 1901,-300 2864,-454 1503,-2954 3006,-5920 4520,-8873 -963,143 -1914,277 -2865,410zm8770 -58658c-963,122 -1914,244 -2865,378 -1514,2931 -3017,5875 -4519,8829 951,-133 1901,-278 2864,-411 1503,-2932 3005,-5864 4520,-8796zm-4520 8796c-1514,2954 -3017,5897 -4520,8862 951,-133 1902,-278 2865,-421 1503,-2955 3005,-5876 4519,-8808 -962,122 -1913,244 -2864,367zm1198 8051c-951,123 -1902,267 -2853,390 -1515,2953 -3017,5919 -4520,8884 951,-134 1902,-289 2853,-433 1503,-2955 3005,-5898 4520,-8841zm-4520 8841c-1515,2964 -3017,5940 -4520,8905 951,-144 1902,-289 2864,-443 1503,-2955 3006,-5909 4520,-8862 -962,132 -1913,277 -2864,400zm1197 8039c-951,145 -1901,278 -2853,423 -1514,2964 -3016,5951 -4519,8928 951,-156 1902,-311 2852,-467 1503,-2965 3006,-5930 4520,-8884zm-4520 8884c-1514,2976 -3016,5963 -4519,8950 951,-155 1902,-311 2864,-476 1503,-2976 3006,-5942 4520,-8906 -963,143 -1913,288 -2865,432zm1198 8029c-951,145 -1902,300 -2853,445 -1514,2986 -3017,5973 -4519,8982 951,-155 1902,-333 2852,-488 1503,-2987 3006,-5974 4520,-8939zm-4520 8939c-1514,2986 -3017,5995 -4519,9004 951,-166 1902,-343 2864,-508 1503,-2999 3005,-5986 4520,-8983 -963,166 -1914,321 -2865,487zm8770 -58823c-963,133 -1914,278 -2865,411 -1514,2965 -3017,5930 -4519,8928 950,-155 1901,-311 2864,-455 1503,-2976 3005,-5930 4520,-8884zm-4520 8884c-1514,2965 -3017,5952 -4520,8928 951,-144 1902,-300 2853,-455 1503,-2976 3005,-5942 4520,-8906 -951,144 -1902,289 -2853,433zm1197 8018c-962,144 -1913,289 -2864,455 -1514,2976 -3017,5962 -4520,8961 951,-178 1902,-333 2865,-499 1502,-2987 3005,-5952 4519,-8917zm-4519 8917c-1514,2987 -3017,5996 -4520,8994 951,-167 1902,-333 2853,-510 1503,-2976 3017,-5963 4531,-8938 -962,154 -1913,310 -2864,454zm1197 8018c-962,166 -1913,321 -2864,466 -1514,3008 -3017,6006 -4520,9026 951,-177 1902,-343 2865,-520 1502,-2998 3005,-5985 4519,-8972zm-4519 8972c-1515,3008 -3018,6028 -4520,9048 951,-177 1902,-354 2864,-531 1503,-3009 3006,-6007 4520,-9004 -963,165 -1914,332 -2864,487zm1197 7996c-951,167 -1902,333 -2853,521 -1514,3019 -3029,6028 -4531,9058 951,-188 1902,-376 2864,-552 1503,-3020 3006,-6030 4520,-9027zm-4520 9027c-1514,3019 -3017,6050 -4519,9092 951,-178 1902,-377 2864,-564 1503,-3020 3005,-6040 4520,-9049 -963,177 -1914,343 -2865,521zm8770 -58966c-963,155 -1914,310 -2865,455 -1514,2986 -3017,5995 -4519,8993 950,-155 1901,-322 2864,-498 1503,-2998 3005,-5974 4520,-8950zm-4520 8950c-1515,3008 -3017,6006 -4520,9037 951,-188 1902,-376 2853,-542 1503,-2998 3005,-6007 4520,-8972 -951,155 -1902,311 -2853,477zm1197 7996c-962,166 -1913,332 -2864,499 -1515,2997 -3017,6039 -4519,9048 950,-177 1901,-355 2864,-542 1502,-2999 3005,-5996 4519,-9005zm-4519 9005c-1515,3030 -3017,6050 -4520,9092 951,-188 1902,-377 2853,-554 1502,-3020 3005,-6040 4519,-9037 -950,166 -1901,343 -2852,499zm1197 7996c-962,177 -1913,354 -2864,542 -1515,3019 -3017,6061 -4520,9103 951,-188 1902,-399 2865,-597 1502,-3020 3005,-6040 4519,-9048zm-4519 9048c-1515,3052 -3017,6105 -4520,9158 951,-210 1902,-409 2853,-587 1502,-3064 3005,-6084 4519,-9103 -951,189 -1902,366 -2852,532zm1197 7996c-963,177 -1914,376 -2864,575 -1515,3030 -3017,6105 -4520,9158 951,-199 1902,-409 2864,-619 1503,-3042 3006,-6084 4520,-9114zm-4520 9114c-1514,3063 -3017,6127 -4519,9202 951,-210 1901,-421 2852,-631 1503,-3063 3006,-6116 4520,-9158 -951,211 -1902,399 -2853,587zm8770 -59162c-963,166 -1914,343 -2865,520 -1514,3019 -3017,6050 -4520,9092 952,-188 1902,-387 2865,-564 1503,-3020 3005,-6040 4520,-9048zm-4520 9048c-1514,3030 -3017,6073 -4520,9114 951,-177 1902,-376 2853,-575 1503,-3031 3005,-6051 4520,-9082 -951,189 -1902,366 -2853,543zm1197 7996c-962,177 -1913,365 -2864,543 -1514,3041 -3017,6094 -4520,9158 951,-200 1902,-399 2865,-609 1502,-3041 3005,-6072 4519,-9092zm-4519 9092c-1515,3042 -3017,6116 -4520,9180 951,-210 1902,-420 2853,-619 1502,-3064 3005,-6106 4520,-9147 -952,188 -1902,387 -2853,586zm1197 7964c-963,198 -1913,398 -2864,597 -1515,3052 -3017,6116 -4520,9201 951,-199 1902,-420 2864,-630 1503,-3074 3006,-6127 4520,-9168zm-4520 9168c-1514,3063 -3016,6150 -4519,9235 951,-210 1902,-431 2852,-674 1503,-3053 3006,-6117 4520,-9180 -951,199 -1902,409 -2853,619zm1198 7942c-963,209 -1914,419 -2865,619 -1514,3095 -3016,6181 -4519,9289 951,-232 1902,-442 2864,-685 1503,-3074 3005,-6149 4520,-9223zm-4520 9223c-1514,3097 -3017,6204 -4519,9311 951,-242 1901,-474 2852,-707 1503,-3096 3005,-6182 4520,-9256 -951,210 -1902,431 -2853,652zm8758 -59360c-951,200 -1902,399 -2853,587 -1514,3052 -3017,6127 -4519,9191 950,-200 1901,-410 2852,-620 1503,-3064 3005,-6106 4520,-9158zm-4520 9158c-1514,3063 -3017,6138 -4519,9223 950,-231 1901,-453 2864,-662 1502,-3075 3005,-6139 4519,-9180 -962,199 -1913,409 -2864,619zm1209 7931c-962,210 -1913,420 -2864,630 -1514,3085 -3017,6160 -4520,9256 951,-210 1902,-442 2865,-673 1502,-3075 3005,-6139 4519,-9213zm-4519 9213c-1515,3096 -3029,6180 -4532,9299 951,-232 1902,-464 2865,-695 1502,-3086 3005,-6161 4519,-9234 -950,209 -1902,420 -2852,630zm1197 7941c-962,221 -1914,442 -2864,663 -1515,3096 -3017,6214 -4520,9322 951,-243 1902,-464 2864,-707 1503,-3107 3006,-6193 4520,-9278zm-4520 9278c-1514,3107 -3017,6215 -4519,9344 951,-253 1902,-497 2852,-740 1503,-3108 3006,-6193 4520,-9300 -951,232 -1902,453 -2853,696zm5436 -42326c-951,210 -1902,431 -2853,652 -1514,3096 -3017,6193 -4520,9311 951,-232 1902,-475 2853,-718 1503,-3086 3006,-6171 4520,-9245zm-4520 9245c-1514,3107 -3017,6225 -4519,9344 950,-232 1901,-475 2864,-717 1503,-3108 3005,-6193 4520,-9289 -963,231 -1914,452 -2865,662zm1198 7941c-951,233 -1902,453 -2853,686 -1515,3117 -3017,6236 -4520,9366 951,-244 1902,-508 2853,-740 1503,-3108 3005,-6227 4520,-9312zm-4520 9312c-1515,3118 -3017,6269 -4520,9398 951,-243 1902,-497 2865,-761 1502,-3129 3005,-6226 4519,-9355 -962,231 -1913,475 -2864,718zm1197 7908c-951,243 -1901,486 -2852,729 -1515,3140 -3017,6270 -4520,9443 951,-265 1902,-541 2853,-795 1502,-3141 3005,-6270 4519,-9377zm928 -33069c-951,243 -1902,486 -2853,707 -1514,3139 -3017,6269 -4520,9431 952,-265 1902,-519 2853,-772 1503,-3141 3005,-6249 4520,-9366zm-4520 9366c-1514,3139 -3017,6290 -4520,9453 952,-265 1902,-541 2865,-805 1503,-3130 3005,-6270 4519,-9388 -962,242 -1913,485 -2864,740zm1198 7886c-951,254 -1902,508 -2853,762 -1514,3161 -3017,6324 -4520,9486 951,-275 1902,-551 2853,-816 1503,-3163 3005,-6292 4520,-9432zm-2395 -15784c-963,264 -1914,529 -2865,794 -1514,3172 -3017,6357 -4519,9541 950,-265 1902,-563 2864,-849 1503,-3162 3005,-6325 4520,-9486zm-4520 9486c-1514,3183 -3017,6368 -4519,9574 950,-298 1901,-585 2864,-881 1502,-3185 3005,-6347 4519,-9509 -962,264 -1913,540 -2864,816zm-1197 -7854c-963,286 -1914,573 -2865,860 -1514,3216 -3017,6433 -4519,9661 951,-308 1901,-617 2864,-936 1503,-3217 3005,-6401 4520,-9585z"/>
  <path id="calcao_contorno" fill="none" d="M86877 155540c57,-276 111,-684 198,-2144 87,-1461 207,-3975 494,-8922 288,-4947 745,-12326 1108,-17715 364,-5390 636,-8789 989,-12546 352,-3758 787,-7874 1330,-12163 543,-4290 1195,-8753 2031,-13825 836,-5071 1857,-10751 2633,-14471 777,-3719 1309,-5479 1650,-6590 342,-1112 492,-1576 610,-1830 117,-254 201,-298 281,-290 81,7 157,66 254,174 98,108 218,265 372,597 155,332 345,838 651,1525 306,687 729,1555 1092,2405 363,850 667,1684 796,2326 129,642 83,1093 121,1599 38,506 160,1068 480,1542 321,474 839,860 1138,1371 299,512 377,1150 573,2055 195,906 507,2079 615,2964 107,885 9,1482 -93,2046 -101,563 -207,1093 -96,1623 111,531 440,1063 824,1557 384,495 824,951 1094,1251 270,300 371,443 467,579 96,136 189,264 334,838 145,574 343,1595 418,2303 75,709 26,1106 -3,1500 -28,396 -36,789 -69,1290 -32,501 -89,1109 -81,1667 8,558 81,1066 438,1819 357,754 998,1753 1605,2560 607,808 1179,1425 1564,1812 385,388 582,546 759,828 177,282 335,686 465,1203 130,518 234,1148 289,1878 56,730 64,1561 52,2483 -12,922 -45,1934 143,2856 187,922 594,1752 1048,2454 453,702 952,1275 1323,1739 371,465 613,820 815,1171 203,350 365,695 528,1099 163,405 326,869 450,1408 123,539 207,1153 323,1709 115,557 262,1056 357,1618 95,562 138,1187 304,2099 166,912 453,2112 646,3116 193,1005 291,1814 396,2531 106,717 220,1341 310,2175 89,833 155,1876 280,2641 124,766 309,1255 442,1990 133,736 214,1719 285,2297 71,579 130,752 274,907 144,155 372,290 679,442 307,153 692,321 1086,576 394,255 796,597 1257,990 462,392 983,834 1546,1188 564,352 1169,616 1745,818 575,202 1121,343 1722,497 602,153 1259,319 2147,474 887,154 2006,298 2867,397 860,100 1463,154 2700,174 1236,21 3107,7 4534,-32 1426,-40 2409,-105 3661,-214 1252,-108 2772,-260 4550,-449 1779,-188 3815,-414 5523,-572 1707,-159 3087,-252 4504,-330 1417,-79 2872,-144 4136,-180 1264,-35 2336,-40 4548,-77 2211,-37 5561,-105 7790,-171 2229,-67 3337,-132 4993,-333 1657,-201 3861,-537 5223,-773 1362,-237 1881,-373 2235,-519 354,-146 543,-303 694,-404 152,-102 266,-148 573,-258 306,-110 806,-284 1386,-483 579,-200 1239,-425 1759,-648 520,-222 900,-442 1145,-582 246,-140 358,-200 538,-211 181,-10 430,28 638,-23 208,-50 374,-188 595,-396 221,-208 498,-485 609,-911 111,-426 57,-1002 63,-2454 5,-1453 70,-3782 49,-6375 -22,-2593 -131,-5449 -185,-7192 -54,-1743 -54,-2373 -54,-3263 0,-891 0,-2042 -27,-3120 -28,-1078 -82,-2082 -106,-3122 -25,-1040 -19,-2115 -87,-3817 -68,-1703 -209,-4032 -285,-5916 -76,-1884 -87,-3324 -220,-7152 -133,-3828 -388,-10045 -885,-16183 -497,-6139 -1236,-12199 -2170,-17954 -933,-5756 -2063,-11208 -3181,-16388 -1119,-5180 -2227,-10089 -3682,-15106 -1455,-5017 -3258,-10143 -4995,-14759 -1738,-4615 -3410,-8720 -4398,-11100 -989,-2379 -1293,-3034 -1423,-3457 -130,-424 -87,-617 9,-765 97,-147 246,-251 367,-332 13,-9 27,-18 39,-28 -39,-2 -84,-4 -137,-7 -99,-6 -231,-13 -660,-46 -428,-34 -1152,-94 -2111,-102 -959,-8 -2154,36 -3406,126 -1253,90 -2563,228 -4608,579 -2046,351 -4826,916 -7121,1427 -2295,510 -4105,966 -6479,1437 -2375,470 -5315,955 -8265,1350 -2950,394 -5912,698 -9495,1024 -3584,326 -7790,674 -11305,920 -3515,246 -6339,391 -8920,532 -2581,141 -4920,278 -7577,384 -2657,105 -5632,177 -8586,238 -2954,62 -5886,113 -8681,106 -2794,-8 -5451,-73 -7942,-131 -2491,-58 -4815,-108 -7331,-184 -2515,-77 -5223,-178 -8546,-272 -3323,-94 -7262,-181 -11436,-206 -4174,-26 -8583,11 -12232,7 -3649,-4 -6538,-47 -10357,-196 -3819,-148 -8568,-401 -11984,-657 -3415,-255 -5497,-512 -7010,-814 -1514,-303 -2460,-651 -3406,-999 42,61 20,179 -26,595 -59,524 -156,1520 -428,3353 -271,1833 -717,4502 -1007,6455 -291,1954 -426,3192 -752,5230 -326,2040 -842,4880 -1257,7383 -415,2503 -731,4669 -980,6496 -250,1828 -435,3315 -606,5042 -171,1727 -328,3692 -499,6071 -171,2378 -356,5169 -541,8286 -184,3117 -369,6559 -504,10230 -136,3671 -223,7569 -196,11560 27,3991 169,8074 446,12044 277,3969 689,7824 961,11289 271,3464 401,6537 461,9936 60,3399 49,7124 87,11398 38,4273 125,9095 212,13118 87,4024 173,7249 254,9470 80,2221 153,3437 183,4165 30,728 16,967 26,2123 9,1157 42,3231 74,4711 33,1479 66,2364 131,2891 65,527 163,695 459,1005 296,309 790,760 2506,1121 1715,361 4653,632 7455,874 2802,242 5468,453 9991,695 4523,242 10904,513 15617,717 4713,203 7759,339 10431,363 2671,25 4968,-62 7289,-135 2322,-74 4668,-133 6905,-207 2237,-73 4366,-160 7366,-537 3000,-377 6871,-1046 9290,-1540 2419,-494 3386,-814 4236,-1246 849,-431 1582,-974 1979,-1319 396,-345 456,-492 513,-769z"/>
 </g>
</svg>
