<?xml version="1.0" encoding="utf-8"?>
<!-- Generator: Adobe Illustrator 16.0.3, SVG Export Plug-In . SVG Version: 6.00 Build 0)  -->
<!DOCTYPE svg PUBLIC "-//W3C//DTD SVG 1.1//EN" "http://www.w3.org/Graphics/SVG/1.1/DTD/svg11.dtd">
<svg version="1.1"
	 id="Layer_1" image-rendering="optimizeQuality" text-rendering="geometricPrecision" shape-rendering="geometricPrecision" xmlns:xodm="http://www.corel.com/coreldraw/odm/2003"
	 xmlns="http://www.w3.org/2000/svg" xmlns:xlink="http://www.w3.org/1999/xlink" x="0px" y="0px" width="181px" height="149px"
	 viewBox="0 0 181 149" enable-background="new 0 0 181 149" xml:space="preserve">
<g id="Camada_x0020_1">
	<path id="d2" fill="#F00808" d="M11.289,95.346c-0.112-0.18-0.228-0.358-0.344-0.55c0.181,3.798,0.402,7.595,0.668,11.377
		c-0.149,0.005-0.295,0-0.443-0.007c-0.282-4.035-0.514-8.071-0.698-12.121c-0.1-0.156-0.202-0.313-0.303-0.481
		c-0.18-5.47-0.275-10.944-0.311-16.42l0,0c0.03-5.478,0.125-10.958,0.302-16.442c0.102-0.152,0.205-0.317,0.305-0.48
		c0.175-4.052,0.406-8.104,0.677-12.171c0.146,0.007,0.294,0.002,0.439-0.003c-0.259,3.813-0.478,7.625-0.651,11.424
		c0.116-0.177,0.227-0.363,0.345-0.551c-0.213,6.08-0.334,12.158-0.37,18.22l0,0C10.947,83.212,11.072,89.28,11.289,95.346z
		 M180.021,89.904l-0.034-1.014c-0.08-2.299-0.208-5.531-0.413-9.07l-0.104-1.203l0.033,0.045c-0.095-1.546-0.205-3.136-0.334-4.72
		c-0.059-0.719-0.12-1.438-0.186-2.155c-0.451-3.549-0.953-7.1-1.498-10.656l0,0c-1.05-5.985-2.232-11.97-3.544-17.966
		c-0.064,0.206-0.128,0.401-0.192,0.596c-0.903-3.749-1.86-7.499-2.887-11.248c-0.146,0.023-0.285,0.046-0.432,0.069
		c1.096,4.001,2.107,7.992,3.046,11.981c-0.051,0.184-0.106,0.355-0.161,0.527c1.164,5.412,2.2,10.813,3.139,16.213l0,0
		c0.828,5.411,1.561,10.812,2.168,16.211c0.109,0.15,0.221,0.299,0.326,0.437c0.369,4.001,0.663,7.991,0.879,11.981L180.021,89.904z
		 M0.123,69.589v0.037c0.025,3.687,0.156,7.458,0.412,11.125c0.2,2.883,0.479,5.701,0.711,8.33
		c-0.092-3.979-0.145-7.961-0.162-11.945l0,0c0.031-5.593,0.128-11.2,0.311-16.809c-0.074-0.124-0.145-0.247-0.22-0.37
		c0.187-3.971,0.408-7.944,0.689-11.918c-0.149,0.005-0.295,0.01-0.44,0.004c-0.261,3.745-0.482,7.488-0.659,11.218
		c-0.117-0.19-0.233-0.393-0.347-0.595C0.288,62.308,0.189,65.95,0.123,69.589z M174.384,61.648
		c-0.718-4.231-1.509-8.462-2.36-12.705c0.061-0.183,0.129-0.367,0.193-0.55c-0.947-4.277-1.969-8.565-3.078-12.853
		c0.143-0.023,0.285-0.046,0.427-0.069c0.585,2.225,1.155,4.449,1.694,6.673c0.138,0.149,0.281,0.298,0.428,0.447
		c1.395,6.294,2.637,12.59,3.736,18.884l0,0c0.958,6.294,1.763,12.589,2.417,18.883c-0.093,0.184-0.185,0.367-0.276,0.539
		c0.184,2.225,0.341,4.449,0.479,6.673c-0.151,0.022-0.295,0.046-0.441,0.069c-0.281-4.277-0.641-8.553-1.086-12.841
		c-0.125-0.15-0.244-0.298-0.359-0.459C175.627,70.109,175.038,65.878,174.384,61.648L174.384,61.648z M172.756,61.911
		c-1.441-8.209-3.145-16.418-5.123-24.628c0.144-0.022,0.285-0.045,0.428-0.068c0.194,0.746,0.383,1.479,0.576,2.212
		c0.139,0.15,0.28,0.298,0.418,0.436c1.699,7.303,3.176,14.619,4.465,21.922l0,0c1.082,7.304,1.965,14.619,2.623,21.923
		c-0.097,0.183-0.185,0.366-0.275,0.538c0.049,0.746,0.1,1.479,0.156,2.214c-0.153,0.022-0.3,0.045-0.442,0.068
		C174.913,78.318,173.961,70.122,172.756,61.911L172.756,61.911z M170.469,62.29c-0.686-4.093-1.428-8.198-2.236-12.303
		c0.059,0.069,0.128,0.138,0.192,0.206c-0.699-3.325-1.449-6.65-2.25-9.986c0.06-0.184,0.119-0.368,0.179-0.551
		c-0.179-0.688-0.354-1.376-0.533-2.076c0.143-0.023,0.28-0.045,0.428-0.068c1.141,4.586,2.195,9.161,3.152,13.735
		c0.061,0.081,0.125,0.15,0.189,0.218c0.681,3.554,1.315,7.109,1.914,10.652c-0.005,0-0.005,0-0.005,0
		c0.552,3.555,1.059,7.108,1.515,10.651c-0.042,0.092-0.079,0.172-0.121,0.252c0.507,4.585,0.926,9.161,1.253,13.736
		c-0.147,0.035-0.294,0.057-0.438,0.08c-0.042-0.688-0.087-1.375-0.138-2.075c-0.115-0.149-0.234-0.298-0.35-0.448
		c-0.264-3.324-0.576-6.648-0.93-9.985c-0.047,0.091-0.088,0.172-0.125,0.252c-0.506-4.093-1.071-8.186-1.703-12.291
		C170.463,62.29,170.463,62.29,170.469,62.29z M168.604,62.588c-0.855-5.08-1.807-10.171-2.852-15.262
		c0.049,0.058,0.1,0.116,0.156,0.161c-0.277-1.25-0.558-2.5-0.844-3.76c0.088-0.252,0.172-0.517,0.254-0.78
		c-0.525-2.156-1.066-4.322-1.624-6.489c0.142-0.023,0.284-0.046,0.423-0.081c1.055,4.116,2.021,8.221,2.918,12.326
		c0.027,0.034,0.055,0.068,0.088,0.091c0.911,4.541,1.743,9.081,2.502,13.633c-0.004,0-0.004,0-0.004,0
		c0.695,4.541,1.316,9.081,1.855,13.622c-0.023,0.045-0.037,0.08-0.057,0.115c0.4,4.104,0.732,8.209,0.98,12.313
		c-0.146,0.022-0.293,0.046-0.441,0.068c-0.114-2.155-0.262-4.322-0.428-6.489c-0.162-0.206-0.322-0.424-0.488-0.643
		c-0.105-1.25-0.221-2.5-0.35-3.76c-0.032,0.068-0.064,0.137-0.092,0.206C170.031,72.77,169.368,67.679,168.604,62.588
		L168.604,62.588z M166.746,62.897c-1.027-6.065-2.183-12.143-3.493-18.219c0.165,0.184,0.331,0.356,0.496,0.528
		c-0.855-3.681-1.781-7.361-2.761-11.053c0.139-0.023,0.28-0.046,0.424-0.069c1.048,3.921,2.02,7.832,2.922,11.742
		c0.102,0.115,0.201,0.229,0.309,0.332c1.168,5.516,2.223,11.042,3.156,16.568l0,0c0.824,5.526,1.515,11.053,2.094,16.567
		c-0.069,0.139-0.133,0.275-0.197,0.413c0.322,3.909,0.575,7.819,0.759,11.729c-0.151,0.035-0.3,0.057-0.446,0.08
		c-0.166-3.68-0.396-7.36-0.694-11.053c-0.106,0.218-0.218,0.436-0.322,0.643C168.396,75.039,167.638,68.974,166.746,62.897
		L166.746,62.897z M7.938,64.276c0.107-0.165,0.216-0.34,0.321-0.516c0.158-4.337,0.361-8.687,0.625-13.039
		c0.146,0.006,0.292,0.001,0.437-0.004c-0.141,2.262-0.272,4.524-0.38,6.773c0.098,0.169,0.191,0.337,0.292,0.505
		c-0.236,6.392-0.373,12.778-0.415,19.15l0,0C8.863,83.527,9,89.904,9.242,96.267c-0.101,0.164-0.195,0.327-0.295,0.491
		c0.113,2.254,0.243,4.506,0.387,6.747c-0.146,0.005-0.293,0.011-0.437,0.004c-0.267-4.321-0.479-8.657-0.635-12.993
		C8.156,90.348,8.05,90.179,7.946,90c-0.102-4.283-0.161-8.565-0.18-12.861l0,0C7.776,72.853,7.836,68.565,7.938,64.276z
		 M6.096,77.141c0.085-8.322,0.337-16.649,0.762-24.972c0.144,0.007,0.292,0.001,0.438-0.003c-0.046,0.757-0.089,1.504-0.132,2.25
		c0.094,0.169,0.185,0.338,0.278,0.495c-0.327,7.413-0.515,14.821-0.569,22.237l0,0c0.058,7.4,0.244,14.795,0.574,22.185
		c-0.097,0.164-0.191,0.328-0.283,0.492c0.042,0.754,0.087,1.498,0.131,2.24c-0.145,0.006-0.294,0.011-0.443,0.005
		C6.426,93.766,6.184,85.455,6.096,77.141L6.096,77.141z M3.803,77.143c0.016-4.148,0.073-8.31,0.171-12.473
		c0.048,0.079,0.093,0.158,0.141,0.236c0.107-3.373,0.249-6.747,0.418-10.132c0.11-0.165,0.223-0.329,0.337-0.505
		c0.042-0.7,0.084-1.4,0.123-2.102c0.146,0.006,0.294,0.001,0.439-0.004c-0.259,4.65-0.457,9.298-0.604,13.943
		c0.046,0.079,0.094,0.157,0.142,0.235c-0.072,3.601-0.113,7.2-0.121,10.797c-0.003,0-0.003,0-0.003,0
		c0.007,3.599,0.051,7.195,0.119,10.79c-0.046,0.082-0.092,0.163-0.141,0.234c0.144,4.636,0.343,9.269,0.6,13.899
		c-0.149,0.006-0.294,0.011-0.44,0.005c-0.042-0.697-0.083-1.395-0.12-2.093c-0.118-0.168-0.228-0.336-0.34-0.504
		c-0.169-3.362-0.308-6.736-0.416-10.113c-0.049,0.082-0.094,0.164-0.14,0.246C3.873,85.459,3.818,81.301,3.803,77.143L3.803,77.143
		z M1.911,77.141c0.028-5.157,0.114-10.316,0.27-15.477c0.035,0.067,0.071,0.123,0.109,0.179c0.049-1.263,0.102-2.536,0.159-3.81
		c0.153-0.235,0.305-0.481,0.46-0.727c0.104-2.192,0.234-4.386,0.374-6.59c0.147,0.006,0.295,0.001,0.44-0.004
		c-0.258,4.18-0.463,8.346-0.615,12.511c0.02,0.033,0.039,0.067,0.061,0.101c-0.121,4.611-0.196,9.219-0.224,13.815l0,0
		c0.022,4.605,0.096,9.209,0.212,13.8c-0.023,0.034-0.041,0.069-0.061,0.104c0.155,4.166,0.358,8.318,0.612,12.468
		c-0.148,0.005-0.297-0.001-0.44-0.007c-0.142-2.184-0.266-4.368-0.374-6.564c-0.154-0.234-0.312-0.47-0.463-0.717
		c-0.06-1.27-0.105-2.539-0.154-3.809c-0.034,0.07-0.071,0.128-0.108,0.186C2.018,87.449,1.935,82.297,1.911,77.141L1.911,77.141z"
		/>
	<path id="calcao_contorno" fill="none" d="M80.372,143.682c0.053-0.256,0.103-0.633,0.183-1.98c0.081-1.35,0.191-3.673,0.457-8.242
		c0.266-4.57,0.688-11.387,1.023-16.365c0.336-4.979,0.587-8.118,0.914-11.589c0.325-3.472,0.727-7.273,1.229-11.235
		c0.502-3.963,1.104-8.086,1.876-12.771c0.772-4.684,1.715-9.931,2.432-13.367c0.718-3.436,1.209-5.062,1.524-6.088
		c0.316-1.027,0.455-1.456,0.564-1.69c0.108-0.234,0.186-0.275,0.259-0.268c0.075,0.006,0.145,0.061,0.234,0.161
		c0.091,0.1,0.201,0.245,0.344,0.551c0.144,0.307,0.318,0.774,0.602,1.409c0.283,0.635,0.674,1.437,1.009,2.222
		s0.616,1.556,0.735,2.149c0.119,0.593,0.076,1.01,0.111,1.477s0.148,0.986,0.443,1.424c0.297,0.438,0.775,0.794,1.052,1.267
		c0.276,0.473,0.349,1.062,0.529,1.898c0.181,0.837,0.468,1.92,0.567,2.738c0.1,0.816,0.009,1.369-0.086,1.89
		c-0.093,0.521-0.19,1.01-0.088,1.499c0.103,0.49,0.406,0.982,0.762,1.438c0.354,0.457,0.761,0.878,1.01,1.155
		c0.25,0.277,0.343,0.409,0.432,0.535c0.088,0.125,0.174,0.244,0.309,0.773c0.134,0.531,0.316,1.475,0.386,2.128
		c0.069,0.655,0.024,1.021-0.003,1.386c-0.025,0.365-0.033,0.729-0.063,1.191c-0.029,0.463-0.082,1.024-0.075,1.54
		c0.008,0.516,0.075,0.985,0.405,1.681c0.329,0.696,0.922,1.619,1.482,2.364c0.561,0.747,1.089,1.316,1.444,1.675
		c0.355,0.357,0.538,0.504,0.701,0.764c0.164,0.261,0.311,0.635,0.43,1.111c0.12,0.479,0.217,1.061,0.268,1.735
		s0.059,1.442,0.048,2.294s-0.042,1.786,0.132,2.638c0.173,0.853,0.549,1.618,0.969,2.267c0.418,0.648,0.879,1.178,1.222,1.607
		s0.566,0.757,0.753,1.081c0.188,0.323,0.337,0.642,0.488,1.016c0.15,0.374,0.301,0.803,0.415,1.3
		c0.114,0.498,0.191,1.065,0.298,1.579c0.107,0.515,0.242,0.976,0.33,1.495s0.127,1.096,0.281,1.938
		c0.153,0.843,0.418,1.951,0.597,2.878c0.179,0.93,0.269,1.676,0.366,2.339c0.098,0.662,0.203,1.239,0.285,2.009
		c0.083,0.77,0.144,1.733,0.26,2.439c0.114,0.708,0.285,1.16,0.408,1.839c0.123,0.68,0.197,1.588,0.263,2.122
		c0.065,0.535,0.12,0.694,0.253,0.838c0.133,0.143,0.344,0.268,0.627,0.408c0.284,0.141,0.64,0.297,1.004,0.531
		c0.363,0.236,0.735,0.552,1.161,0.915c0.427,0.362,0.908,0.771,1.429,1.098c0.521,0.325,1.079,0.569,1.611,0.755
		c0.531,0.188,1.035,0.317,1.591,0.459c0.556,0.143,1.163,0.295,1.983,0.438c0.819,0.142,1.854,0.275,2.648,0.366
		c0.794,0.093,1.352,0.143,2.494,0.161c1.142,0.02,2.869,0.007,4.188-0.029c1.318-0.037,2.227-0.097,3.383-0.198
		c1.156-0.1,2.561-0.24,4.203-0.414s3.523-0.383,5.102-0.529c1.576-0.146,2.852-0.232,4.16-0.305c1.31-0.072,2.653-0.133,3.82-0.166
		c1.168-0.032,2.158-0.037,4.202-0.07c2.042-0.035,5.137-0.098,7.196-0.158c2.059-0.063,3.082-0.122,4.611-0.309
		c1.531-0.186,3.567-0.496,4.825-0.713c1.259-0.22,1.737-0.346,2.065-0.48c0.326-0.135,0.501-0.279,0.641-0.373
		c0.141-0.094,0.246-0.137,0.529-0.238c0.282-0.102,0.744-0.262,1.28-0.445c0.534-0.186,1.145-0.393,1.624-0.6
		c0.48-0.205,0.832-0.408,1.059-0.537s0.33-0.185,0.496-0.195c0.168-0.009,0.398,0.026,0.59-0.021
		c0.192-0.045,0.346-0.173,0.55-0.365s0.46-0.448,0.563-0.842c0.103-0.393,0.053-0.926,0.058-2.267
		c0.006-1.343,0.065-3.493,0.046-5.89c-0.021-2.395-0.121-5.033-0.171-6.643c-0.05-1.61-0.05-2.192-0.05-3.015
		c0-0.823,0-1.886-0.024-2.882c-0.026-0.996-0.076-1.924-0.099-2.885c-0.022-0.96-0.018-1.953-0.08-3.525
		c-0.063-1.573-0.193-3.725-0.263-5.465c-0.07-1.74-0.081-3.07-0.204-6.607c-0.122-3.535-0.358-9.278-0.817-14.949
		c-0.459-5.671-1.142-11.269-2.004-16.585c-0.862-5.317-1.906-10.354-2.939-15.139c-1.033-4.785-2.057-9.32-3.4-13.954
		c-1.345-4.634-3.01-9.37-4.615-13.634c-1.605-4.263-3.149-8.055-4.063-10.253c-0.913-2.198-1.193-2.803-1.314-3.193
		c-0.119-0.392-0.08-0.57,0.009-0.707c0.089-0.136,0.228-0.232,0.339-0.307c0.012-0.008,0.025-0.017,0.036-0.026
		c-0.036-0.002-0.077-0.003-0.126-0.006c-0.092-0.006-0.214-0.012-0.61-0.042c-0.396-0.032-1.063-0.087-1.95-0.094
		c-0.886-0.007-1.99,0.033-3.146,0.116c-1.157,0.083-2.367,0.211-4.256,0.535c-1.891,0.324-4.459,0.846-6.578,1.318
		c-2.121,0.471-3.793,0.893-5.985,1.328c-2.194,0.434-4.909,0.882-7.635,1.247c-2.726,0.364-5.462,0.645-8.771,0.946
		c-3.311,0.301-7.196,0.623-10.442,0.85c-3.248,0.227-5.855,0.361-8.24,0.491s-4.545,0.257-7,0.355
		c-2.453,0.097-5.202,0.164-7.931,0.22c-2.729,0.057-5.438,0.104-8.019,0.098c-2.581-0.007-5.036-0.067-7.336-0.121
		c-2.301-0.054-4.448-0.1-6.772-0.17c-2.323-0.071-4.825-0.165-7.894-0.251c-3.07-0.087-6.708-0.167-10.564-0.19
		c-3.855-0.024-7.928,0.01-11.299,0.006c-3.371-0.003-6.04-0.043-9.567-0.181c-3.528-0.137-7.915-0.371-11.07-0.607
		c-3.154-0.236-5.078-0.473-6.476-0.752c-1.398-0.28-2.272-0.602-3.146-0.923c0.039,0.056,0.019,0.165-0.024,0.549
		C6.322,5.35,6.232,6.27,5.981,7.963c-0.25,1.693-0.663,4.159-0.93,5.963c-0.269,1.805-0.394,2.948-0.695,4.831
		c-0.301,1.885-0.778,4.508-1.161,6.82c-0.383,2.312-0.675,4.313-0.905,6c-0.231,1.688-0.402,3.063-0.56,4.658
		c-0.158,1.595-0.303,3.41-0.461,5.608c-0.158,2.197-0.329,4.775-0.5,7.654c-0.17,2.879-0.341,6.059-0.465,9.45
		c-0.126,3.391-0.206,6.992-0.181,10.679c0.025,3.687,0.156,7.458,0.412,11.125c0.256,3.666,0.636,7.228,0.888,10.428
		c0.25,3.2,0.37,6.039,0.426,9.18c0.055,3.139,0.045,6.58,0.08,10.528c0.035,3.947,0.116,8.401,0.196,12.118
		c0.081,3.717,0.16,6.695,0.235,8.748c0.074,2.051,0.141,3.174,0.169,3.848c0.028,0.672,0.015,0.893,0.024,1.961
		c0.008,1.068,0.039,2.984,0.068,4.352c0.031,1.366,0.061,2.184,0.121,2.67c0.06,0.487,0.151,0.643,0.424,0.929
		s0.729,0.702,2.315,1.036c1.584,0.333,4.298,0.584,6.886,0.807c2.588,0.224,5.051,0.419,9.229,0.643
		c4.178,0.223,10.073,0.474,14.426,0.662c4.354,0.188,7.167,0.313,9.636,0.335c2.467,0.023,4.589-0.058,6.733-0.124
		c2.145-0.068,4.313-0.123,6.379-0.191s4.033-0.148,6.804-0.496c2.771-0.349,6.347-0.967,8.582-1.423
		c2.235-0.456,3.128-0.752,3.913-1.151c0.784-0.397,1.461-0.899,1.828-1.218C80.263,144.072,80.319,143.938,80.372,143.682z"/>
</g>
</svg>
