<?xml version="1.0" encoding="UTF-8"?>
<!DOCTYPE svg PUBLIC "-//W3C//DTD SVG 1.1//EN" "http://www.w3.org/Graphics/SVG/1.1/DTD/svg11.dtd">
<!-- Creator: CorelDRAW -->
<svg xmlns="http://www.w3.org/2000/svg" xml:space="preserve" width="238px" height="298px" version="1.1" shape-rendering="geometricPrecision" text-rendering="geometricPrecision" image-rendering="optimizeQuality" fill-rule="evenodd" clip-rule="evenodd"
viewBox="0 0 238 298.123"
 xmlns:xlink="http://www.w3.org/1999/xlink"
 xmlns:xodm="http://www.corel.com/coreldraw/odm/2003">
 <defs>
   <clipPath id="id0">
    <path d="M207.298 27.894c-0.11,-0.063 -0.222,-0.122 -0.337,-0.177 -4.975,-2.38 -9.714,-5.334 -14.858,-7.149 -4.647,-1.639 -11.454,-2.699 -17.288,-4.719 -2.277,-0.789 -4.556,-1.589 -6.82,-2.415l-0.004 -0.03 -9.999 -4.08 -0.175 -0.072c-0.614,-0.28 -1.553,-1.207 -2.512,-1.889 -0.494,-0.369 -0.613,-0.563 -1.038,-0.905 -2.856,-2.299 -5.606,-5.635 -9.574,-5.641 -0.901,-0.002 -1.04,-0.123 -1.779,-0.163l-7.601 -0.17c-5.892,-0.486 -12.055,-0.501 -18.06,-0.477 -5.087,0.02 -9.557,0.063 -14.567,0.477 -2.529,0.209 -4.996,0.029 -7.6,0.17 -0.739,0.04 -0.878,0.161 -1.779,0.163 -3.968,0.006 -6.718,3.342 -9.575,5.641 -0.424,0.342 -0.543,0.536 -1.037,0.905 -0.741,0.527 -1.471,1.2 -2.047,1.608 -0.17,0.121 -0.326,0.218 -0.465,0.281l-10.174 4.152 -0.003 0.03c-2.265,0.826 -4.544,1.626 -6.821,2.415 -5.834,2.02 -12.641,3.08 -17.288,4.719 -5.144,1.815 -9.883,4.769 -14.858,7.149 -0.212,0.101 -0.412,0.215 -0.605,0.339 -0.909,0.583 -1.664,1.379 -2.651,2.001 -11.263,7.099 -18.243,27.467 -21.401,39.215 -1.569,5.839 -1.98,12.983 -2.969,19.04 -0.5,3.067 -1.172,6.193 -1.752,9.253 -0.585,3.095 -0.872,6.493 -1.288,9.631 -0.406,0.268 -0.327,-0.023 -0.308,0.899l-0.065 1.854 0 8.783c0.041,1.018 0.102,1.813 0.186,2.164 1.125,0.477 3.706,0.514 5.07,0.712 7.662,1.114 9.041,0.828 15.791,1.554l21.547 1.349c-0.015,-1.623 0.547,-10.725 0.578,-13.424l-0.603 -0.316 -0.07 -0.036c0,-4.476 -0.011,-9.226 -0.011,-13.7 1.678,4.247 3.328,18.944 3.789,24.023 0.735,8.116 1.826,16.186 2.512,24.347 0.348,4.137 0.874,8.269 1.009,12.419l0.653 12.776c0.396,4.199 0.208,8.934 0.274,13.179 0.032,2.062 0.194,4.007 0.186,6.13 -0.007,2.226 -0.172,4.349 -0.196,6.512 -0.051,4.469 -0.054,8.634 -0.319,13.111 -0.68,11.475 -1.257,26.076 -3.267,37.02 -0.966,5.407 -2.177,11.944 -2.754,17.389 -0.258,2.432 -0.827,10.057 -1.468,11.951 -0.68,2.01 -0.163,3.658 -0.568,5.77 -0.342,1.785 -0.742,3.812 -1.164,5.568 -0.463,1.93 -1.435,3.647 0.397,4.966 4.276,1.054 8.552,2.108 13.913,3.017 5.36,0.909 11.804,1.672 18.03,2.048 6.226,0.375 12.232,0.363 21.568,0.476 9.335,0.112 21.999,0.351 32.523,0.382 10.525,0.032 18.909,-0.144 26.242,-0.419 7.333,-0.275 13.615,-0.65 19.058,-1.151 5.443,-0.501 10.048,-1.126 13.829,-1.873 3.78,-0.746 6.736,-1.613 9.693,-2.48 1.832,-1.319 0.86,-3.036 0.397,-4.966 -0.422,-1.756 -0.822,-3.783 -1.164,-5.568 -0.405,-2.112 0.112,-3.76 -0.568,-5.77 -0.641,-1.894 -1.21,-9.519 -1.468,-11.951 -0.577,-5.445 -1.788,-11.982 -2.754,-17.389 -2.01,-10.944 -2.587,-25.545 -3.267,-37.02 -0.265,-4.477 -0.268,-8.642 -0.319,-13.111 -0.024,-2.163 -0.189,-4.286 -0.196,-6.512 -0.008,-2.123 0.154,-4.068 0.186,-6.13 0.066,-4.245 -0.122,-8.98 0.274,-13.179l0.653 -12.776c0.135,-4.15 0.661,-8.282 1.009,-12.419 0.686,-8.161 1.777,-16.231 2.512,-24.347 0.461,-5.079 1.889,-19.043 3.568,-23.29 0,4.474 -0.105,8.584 -0.105,13.06l0 0 -0.416 0.247c-0.004,0.882 0.338,12.091 0.604,13.423l21.579 -1.336c6.75,-0.726 8.129,-0.44 15.791,-1.554 1.364,-0.198 3.945,-0.235 5.07,-0.712 0.084,-0.351 0.145,-1.146 0.186,-2.164l0 -8.783 -0.065 -1.854c0.014,-0.687 0.062,-0.7 -0.083,-0.774 -0.05,-0.025 -0.122,-0.057 -0.225,-0.125 -0.416,-3.138 -0.703,-6.536 -1.288,-9.631 -0.58,-3.06 -1.252,-6.186 -1.752,-9.253 -0.989,-6.057 -1.4,-13.201 -2.969,-19.04 -3.158,-11.748 -10.138,-32.116 -21.401,-39.215 -1.057,-0.665 -1.895,-1.576 -2.919,-2.163z"/>
   </clipPath>
 </defs>
 <g id="VETORES">
  <metadata id="CorelCorpID_0Corel-Layer"/>
  <g>
  </g>
  <g clip-path="url(#id0)">
   <g id="_1723970324624">
    <path fill="#F90000" fill-rule="nonzero" d="M159.714 165.844l1.532 0 0 -1.591 -1.532 0 0 1.591zm0 46.249l1.532 0 0 -1.591 0 -4.795 -1.532 0 0 6.386zm0 -51.044l1.532 0 0 -1.591 0 -1.592 -1.532 0 0 3.183zm0 19.15l1.532 0 0 -1.592 0 -6.376 -1.532 0 0 7.968zm0 36.689l0 11.152 1.532 0 0 -12.733 -1.532 0 0 1.581zm0 -20.742l1.532 0 0 -1.591 0 -7.969 -1.532 0 0 9.56zm-3.063 -57.43l0 3.173 1.532 0 0 -4.765 -1.532 0 0 1.592zm1.532 -12.774l1.531 0 0 -1.592 -1.531 0 0 1.592zm1.531 28.72l1.532 0 0 -1.591 -1.532 0 0 1.591zm-4.595 -35.107l0 4.795 1.532 0 0 -6.376 -1.532 0 0 1.581zm4.595 30.312l1.532 0 0 -1.592 -1.532 0 0 1.592zm0 -4.765l1.532 0 0 -1.592 -1.532 0 0 1.592zm-6.127 -35.107l1.532 0 0 -1.592 -1.532 0 0 1.592zm0 81.356l0 3.204 1.532 0 0 -4.795 -1.532 0 0 1.591zm0 -7.968l0 3.203 1.532 0 0 -4.795 -1.532 0 0 1.592zm0 17.558l0 6.387 1.532 0 0 -7.999 -1.532 0 0 1.612zm0 -22.334l0 1.592 1.532 0 0 -3.203 -1.532 0 0 1.611zm-10.731 -47.75l1.531 0 0 -1.592 -1.531 0 0 1.592zm10.731 79.645l0 19.16 1.532 0 0 -20.742 -1.532 0 0 1.582zm3.064 -19.151l0 38.311 1.532 0 0 -39.902 -1.532 0 0 1.591zm1.532 70.175l0 -30.273 -1.532 0 0 30.302 0 3.004 0.08 0.32 0.831 3.063 1.472 -0.4 -0.851 -3.174 0 -2.842zm0 -98.895l0 -1.582 -1.532 0 0 3.204 1.532 0 0 -1.622zm-9.19 -31.774l-1.542 0 0 4.795 -1.532 0 0 1.582 3.074 0 0 -1.582 1.531 0 0 -3.213 -1.531 0 0 -1.582zm4.594 22.214l1.532 0 0 -1.592 0 -4.795 -1.532 0 0 6.387zm1.532 -19.15l1.532 0 0 -1.592 -1.532 0 0 1.592zm-1.532 38.31l0 1.582 1.532 0 0 -3.204 -1.532 0 0 1.622zm4.596 14.355l0 -4.795 -1.532 0 0 6.387 1.532 0 0 -1.592zm-25.798 -26.197l0.2 0 0 -0.481 -0.2 0 0 0.481zm0.29 -16.768l0 -6.387 -1.532 0 0 7.978 1.532 0 0 -1.591zm0 14.365l0 -1.592 -1.532 0 0 3.174 1.532 0 0 -1.582zm0 -7.978l0 -1.622 -1.532 0 0 3.213 1.532 0 0 -1.591zm0 -79.795l0 -1.591 -1.532 0 0 3.213 1.532 0 0 -1.622zm0 14.355l0 -1.582 -1.532 0 0 3.204 1.532 0 0 -1.622zm-1.532 31.934l1.532 0 0 -1.592 -1.532 0 0 1.592zm1.532 -17.538l1.532 0 0 -1.622 -1.532 0 0 1.622zm-3.074 -9.601l0 -1.581 -1.531 0 0 3.173 1.531 0 0 -1.592zm10.192 47.881l1.531 0 0 -1.592 -1.531 0 0 1.592zm-8.65 27.129l1.532 0 0 -1.622 -1.532 0 0 1.622zm-3.073 -63.818l1.531 0 0 -1.621 -1.531 0 0 1.621zm1.531 79.754l0 17.539 1.542 0 0 -19.12 -1.542 0 0 1.581zm-1.531 -108.474l1.531 0 0 -1.622 -1.531 0 0 1.622zm20.923 22.333l1.531 0 0 -1.591 -1.531 0 0 1.591zm-1.542 19.151l0 3.173 -1.532 0 0 3.183 1.532 0 0 -1.591 1.542 0 0 -6.387 -1.542 0 0 1.622zm0 -8.009l0 -1.582 -1.532 0 0 3.204 1.532 0 0 -1.622zm-1.532 -19.12l1.532 0 0 -1.622 -1.532 0 0 1.622zm4.605 28.72l0 1.582 1.532 0 0 -3.173 -1.532 0 0 1.591zm-6.137 -12.773l1.532 0 0 -1.592 -1.532 0 0 1.592zm7.669 31.784l1.531 0 0 -1.592 -1.531 0 0 1.592zm-12.263 -36.579l1.531 0 0 -1.592 -1.531 0 0 1.592zm-2.523 6.386l0 1.582 1.531 0 0 -3.173 -1.531 0 0 1.591zm-3.063 1.592l1.531 0 0 -1.592 -1.531 0 0 1.592zm1.531 -12.743l1.532 0 0 -1.622 -1.532 0 0 1.622zm0 -15.977l1.532 0 0 -1.592 -1.532 0 0 1.592zm-1.531 38.31l0 1.592 3.063 0 0 1.592 1.531 0 0 1.591 0.992 0 0 3.204 -0.992 0 0 1.592 0.992 0 0 1.591 1.531 0 0 -4.765 1.532 0 0 3.174 1.531 0 0 -4.796 -4.054 0 0 -4.765 0.991 0 0 -3.203 -1.531 0 0 3.203 -5.586 0 0 -0.01zm1.531 -6.387l3.063 0 0 -1.592 -3.063 0 0 1.592zm23.976 95.602l1.532 0 0 -1.592 0 -3.204 -1.532 0 0 4.796zm26.048 -114.301l3.064 0 0 -1.592 -3.064 0 0 1.592zm-6.126 71.786l0 17.569 1.531 0 0 -19.151 -1.531 0 0 1.582zm4.595 -74.97l1.531 0 0 -1.591 -1.531 0 0 1.591zm1.531 -12.763l1.532 0 0 -1.592 -1.532 0 0 1.592zm-6.126 140.398l1.531 0 0 -1.611 0 -27.099 -1.531 0 0 28.71zm6.126 -156.345l1.532 0 0 -1.592 -1.532 0 0 1.592zm-3.063 7.968l0 -1.591 -1.532 0 0 3.183 1.532 0 0 -1.592zm0 14.365l1.532 0 0 -1.591 -1.532 0 0 1.591zm-1.532 17.529l1.532 0 0 -1.591 -1.532 0 0 1.591zm1.252 43.897l0.2 0 0 -0.451 -0.2 0 0 0.451zm-1.252 3.984l1.532 0 0 -1.592 -1.532 0 0 1.592zm1.532 -6.397l0 -1.582 -1.532 0 0 3.174 1.532 0 0 -1.592zm0 -14.355l0 -6.387 -1.532 0 0 7.979 1.532 0 0 -1.592zm0 6.387l0 -1.592 -1.532 0 0 3.183 1.532 0 0 -1.591zm0 -79.765l0 -1.592 -1.532 0 0 3.184 1.532 0 0 -1.592zm1.532 79.765l1.531 0 0 -1.592 -1.531 0 0 1.592zm0 -11.183l1.531 0 0 -1.591 -1.531 0 0 1.591zm0 -7.967l0 -1.592 -1.532 0 0 3.203 1.532 0 0 -1.611zm1.531 108.504l1.532 0 0 -1.612 0 -22.333 -1.532 0 0 23.945zm-56.161 -57.911l0 -1.592 -1.531 0 0 3.204 1.531 0 0 -1.612zm53.098 -9.11l0 4.795 1.532 0 0 -6.387 -1.532 0 0 1.592zm1.532 -19.13l0 1.591 1.531 0 0 -3.203 -1.531 0 0 1.612zm3.063 0l1.532 0 0 -1.612 0 -1.591 -1.532 0 0 3.203zm-1.532 15.957l1.532 0 0 -1.592 -1.532 0 0 1.592zm1.532 -41.494l0 -1.592 -1.532 0 0 3.184 1.532 0 0 -1.592zm-1.532 59.023l1.532 0 0 -1.592 0 -6.377 -1.532 0 0 7.969zm-44.438 -27.58l1.532 0 0 -1.591 1.531 0 0 1.591 -1.531 0 0 3.204 3.063 0 0 1.591 1.532 0 0 -3.173 -1.532 0 0 -4.795 -4.595 0 0 3.173zm44.438 18.019l1.532 0 0 -1.591 0 -3.204 -1.532 0 0 4.795zm0 -15.946l0 -1.622 -1.531 0 0 3.214 1.531 0 0 -1.592zm-50.024 96.842l1.532 0 0 -1.582 0 -22.333 -1.532 0 0 23.915zm0 -27.119l1.532 0 0 -1.591 0 -6.387 -1.532 0 0 7.978zm0 -9.57l1.532 0 0 -1.582 0 -11.181 -1.532 0 0 12.763zm0 -41.484l0 -1.591 -1.531 0 0 3.183 1.531 0 0 -1.592zm-1.531 -22.333l1.531 0 0 -1.592 -1.531 0 0 1.592zm-1.532 -6.387l1.532 0 0 -1.582 0 -1.592 -1.532 0 0 3.174zm3.063 54.258l1.532 0 0 -1.592 0 -6.377 -1.532 0 0 7.969zm1.532 -33.516l1.531 0 0 -1.582 0 -1.591 -1.531 0 0 3.173zm4.054 -12.764l-0.991 0 0 -1.591 -1.532 0 0 1.591 0.992 0 0 3.204 -2.523 0 0 3.183 1.531 0 0 -1.592 4.055 0 0 -1.591 -1.532 0 0 -3.204zm-4.054 -12.773l0 -1.582 -1.532 0 0 3.203 1.532 0 0 -1.621zm-1.532 41.493l1.532 0 0 -1.591 -1.532 0 0 1.591zm0 7.969l1.532 0 0 -1.591 0 -3.174 -1.532 0 0 4.765zm-1.531 -23.925l0 1.592 1.531 0 0 -3.174 -1.531 0 0 1.582zm-3.064 82.978l-1.542 0 0 3.744 0 21.392 1.562 4.776 1.482 -0.461 -1.502 -4.535 0 -24.916zm45.429 -69.754l0 20.752 1.532 0 0 -22.334 -1.532 0 0 1.582zm-1.531 -33.506l0 1.612 1.531 0 0 -3.203 -1.531 0 0 1.591zm4.595 11.183l0 -1.592 -1.532 0 0 3.173 1.532 0 0 -1.581zm-1.532 -62.237l1.532 0 0 -1.591 -1.532 0 0 1.591zm-43.897 68.163l1.531 0 0 -1.622 -1.531 0 0 1.622zm45.429 -79.345l0 -1.581 -1.532 0 0 3.203 1.532 0 0 -1.622zm-6.127 44.698l1.532 0 0 -1.592 -1.532 0 0 1.592zm-42.366 116.002l0 -27.128 -1.542 0 0 28.72 1.542 0 0 -1.592zm31.634 -116.563l1.532 0 0 -1.622 -1.532 0 0 1.622zm15.327 -61.665l1.532 0 0 -1.592 -1.532 0 0 1.592zm-45.429 119.206l0 4.765 1.532 0 0 -6.387 -1.532 0 0 1.622zm-4.605 54.227l0 -19.13 -1.532 0 0 20.742 1.532 0 0 -1.612zm0 32.005l0 -27.21 -1.532 0 0 1.592 0 29.141 1.562 4.905 1.481 -0.45 -1.511 -4.685 0 -3.293zm59.224 -173.524l0 1.591 1.532 0 0 -3.203 -1.532 0 0 1.612zm-107.717 23.014l0 -1.582 -1.531 0 0 3.174 1.531 0 0 -1.592zm0 90.947l0 17.538 1.532 0 0 -19.15 -1.532 0 0 1.612zm-1.531 -108.506l1.531 0 0 -1.591 -1.531 0 0 1.591zm3.063 92.538l1.531 0 0 -1.591 -1.531 0 0 1.591zm1.531 -6.386l0 -1.592 -1.531 0 0 3.173 1.531 0 0 -1.581zm-0.28 2.432l0.201 0 0 -0.481 -0.201 0 0 0.481zm-2.783 2.363l0 -1.592 -1.531 0 0 3.183 1.531 0 0 -1.591zm-6.127 -28.721l1.532 0 0 -1.592 -1.532 0 0 1.592zm1.532 17.569l0 1.582 1.532 0 0 -3.204 -1.532 0 0 1.622zm-21.453 77.582l0 19.15 1.532 0 0 -20.741 -1.532 0 0 1.591zm0 -9.57l0 6.386 1.532 0 0 -7.968 -1.532 0 0 1.582zm24.517 -119.086l1.531 0 0 -1.592 -1.531 0 0 1.592zm-1.532 84.56l0 20.741 1.532 0 0 -22.334 -1.532 0 0 1.593zm19.381 -98.925l1.531 0 0 -1.592 -1.531 0 0 1.592zm-10.191 22.333l3.063 0 0 -1.592 -3.063 0 0 1.592zm1.531 -4.765l0 1.582 1.532 0 0 -3.173 -1.532 0 0 1.591zm-3.063 11.152l0 1.582 3.063 0 0 1.622 1.532 0 0 1.591 1.001 0 0 3.174 -1.001 0 0 1.621 1.001 0 0 1.592 1.532 0 0 -4.795 1.532 0 0 3.203 1.531 0 0 -4.795 -4.064 0 0 -4.795 1.001 0 0 -3.183 -1.532 0 0 3.183 -2.533 0 -3.063 0zm1.532 -38.28l1.531 0 0 -1.592 -1.531 0 0 1.592zm4.065 20.741l1.531 0 0 -1.592 -1.531 0 0 1.592zm4.594 4.796l1.532 0 0 -1.622 -1.532 0 0 1.622zm-11.723 -17.569l0 -1.581 -1.531 0 0 3.173 1.531 0 0 -1.592zm0 -14.355l0 -1.592 -1.531 0 0 3.184 1.531 0 0 -1.592zm0 73.377l0 -6.376 -1.531 0 0 7.998 1.531 0 0 -1.622zm-1.531 -27.118l1.531 0 0 -1.592 -1.531 0 0 1.592zm3.063 -11.152l1.532 0 0 -1.592 -1.532 0 0 1.592zm1.532 -12.774l1.531 0 0 -1.591 -1.531 0 0 1.591zm-3.064 6.387l1.532 0 0 -1.592 -1.532 0 0 1.592zm0 51.044l0 -1.591 -1.531 0 0 3.183 1.531 0 0 -1.592zm-24.516 -5.356l1.532 0 0 -1.591 -1.532 0 0 1.591zm1.532 23.946l1.531 0 0 -1.621 -1.531 0 0 1.621zm0 -4.795l1.531 0 0 -1.592 -1.531 0 0 1.592zm3.063 -30.302l1.532 0 0 -1.592 -1.532 0 0 1.592zm-3.063 39.862l1.531 0 0 -1.592 -1.531 0 0 1.592zm0 6.387l1.531 0 0 -1.592 0 -1.592 -1.531 0 0 3.184zm-10.722 -66.881l1.532 0 0 -1.592 -1.532 0 0 1.592zm1.532 20.742l0 1.582 1.531 0 0 -3.174 -1.531 0 0 1.592zm1.531 19.01l1.532 0 0 -1.592 -1.532 0 0 1.592zm7.659 31.924l1.531 0 0 -1.592 -1.531 0 0 1.592zm-3.064 -27.129l0 3.204 1.532 0 0 -4.796 -1.532 0 0 1.592zm-1.531 -19.15l0 4.795 1.531 0 0 -6.387 -1.531 0 0 1.592zm-1.532 -9.561l1.532 0 0 -1.591 -1.532 0 0 1.591zm0 62.227l0 1.581 1.532 0 0 -3.173 -1.532 0 0 1.592zm3.063 19.12l0 38.31 1.532 0 0 -39.892 -1.532 0 0 1.582zm-1.531 -57.431l1.531 0 0 -1.592 -1.531 0 0 1.592zm-1.532 57.431l0 3.213 1.532 0 0 -4.795 -1.532 0 0 1.582zm6.127 -11.152l1.531 0 0 -1.582 0 -6.386 -1.531 0 0 7.968zm-6.127 -1.582l0 1.582 1.532 0 0 -3.203 -1.532 0 0 1.621zm0 4.765l0 3.204 1.532 0 0 -4.795 -1.532 0 0 1.591zm0 -30.312l1.532 0 0 -1.582 0 -4.794 -1.532 0 0 6.376zm3.063 35.107l1.532 0 0 -1.591 0 -4.795 -1.532 0 0 6.386zm3.064 7.969l1.531 0 0 -1.582 0 -7.978 -1.531 0 0 9.56zm0 15.947l1.531 0 0 -1.582 0 -4.775 -1.531 0 0 6.357zm0 -7.969l1.531 0 0 -1.591 0 -3.174 -1.531 0 0 4.765zm0 12.764l0 11.182 1.531 0 0 -12.764 -1.531 0 0 1.582zm-3.064 -52.636l1.532 0 0 -1.592 0 -1.611 -1.532 0 0 3.203zm29.112 56.41l1.531 0 0 -1.582 0 -22.364 -1.531 0 0 23.946zm0 -62.226l1.531 0 0 -1.592 0 -3.203 -1.531 0 0 4.795zm0 9.56l1.531 0 0 -1.581 0 -6.387 -1.531 0 0 7.968zm0 -17.528l1.531 0 0 -1.592 -1.531 0 0 1.592zm40.834 -2.733l0 20.751 1.532 0 0 -22.363 -1.532 0 0 1.612zm-40.834 36.238l1.531 0 0 -1.612 0 -11.151 -1.531 0 0 12.763zm0 9.57l1.531 0 0 -1.592 0 -6.386 -1.531 0 0 7.978zm1.531 -84.569l0 -1.582 -1.531 0 0 3.173 1.531 0 0 -1.591zm0 25.537l1.532 0 0 -1.612 0 -1.592 -1.532 0 0 3.204zm5.597 -22.324l1.531 0 0 -1.622 -1.531 0 0 1.622zm-3.063 6.357l1.531 0 0 -1.592 -1.531 0 0 1.592zm9.189 -6.357l-1.532 0 0 4.765 -1.531 0 0 1.592 3.063 0 0 -1.592 1.532 0 0 -3.183 -1.532 0 0 -1.582zm-7.658 9.56l1.532 0 0 -1.592 1.531 0 0 1.592 -1.531 0 0 3.173 3.063 0 0 1.622 1.531 0 0 -3.203 -1.531 0 0 -4.795 -4.595 0 0 3.203zm0 0l-1.001 0 0 -1.592 -1.532 0 0 1.592 1.001 0 0 3.173 -2.533 0 0 3.214 1.532 0 0 -1.592 4.065 0 0 -1.622 -1.532 0 0 -3.173zm33.707 -7.518l0 1.582 1.531 0 0 -3.173 -1.531 0 0 1.591zm-46.961 125.653l0 -27.189 -1.532 0 0 1.592 0 29.141 1.561 4.905 1.472 -0.48 -1.501 -4.686 0 -3.283zm19.38 -153.242l0 -1.582 -1.531 0 0 3.174 1.531 0 0 -1.592zm-19.38 121.258l0 -19.15 -1.532 0 0 20.742 1.532 0 0 -1.592zm7.658 -65.409l0 -1.622 -1.532 0 0 3.214 1.532 0 0 -1.592zm17.849 49.342l0 19.131 1.532 0 0 -20.742 -1.532 0 0 1.611zm19.922 -95.17l1.532 0 0 -1.593 -1.532 0 0 1.593zm-10.722 -0.561l1.532 0 0 -1.592 -1.532 0 0 1.592zm-28.581 24.066l1.532 0 0 -1.622 -1.532 0 0 1.622zm0 14.345l0 1.591 1.532 0 0 -3.203 -1.532 0 0 1.612zm-1.532 -20.742l1.532 0 0 -1.582 0 -1.622 -1.532 0 0 3.204zm1.532 17.538l1.532 0 0 -1.592 -1.532 0 0 1.592zm-1.532 22.334l0 4.795 1.532 0 0 -6.387 -1.532 0 0 1.592zm-1.531 59.052l0 -27.128 -1.532 0 0 28.72 1.532 0 0 -1.592zm0 4.765l-1.532 0 0 3.745 0 21.422 1.562 4.775 1.441 -0.46 -1.471 -4.565 0 -24.917zm28.581 -91.056l1.531 0 0 -1.592 -1.531 0 0 1.592zm-1.542 -19.13l1.532 0 0 -1.592 -1.532 0 0 1.592zm1.542 28.72l1.531 0 0 -1.592 -1.531 0 0 1.592zm0 11.152l1.531 0 0 -1.592 -1.531 0 0 1.592zm0 -4.765l1.531 0 0 -1.622 0 -1.591 -1.531 0 0 3.213zm-3.074 -22.364l0 3.204 1.532 0 0 -4.796 -1.532 0 0 1.592zm-7.658 -44.547l1.532 0 0 -1.592 -1.532 0 0 1.592zm6.127 25.417l0 4.795 1.531 0 0 -6.377 -1.531 0 0 1.582zm-1.532 81.356l0 6.387 1.532 0 0 -7.969 -1.532 0 0 1.582zm-6.127 -87.623l0 3.174 -1.531 0 0 3.213 1.531 0 0 -1.591 1.532 0 0 -6.387 -1.532 0 0 1.591zm12.264 66.881l1.531 0 0 -1.581 0 -6.387 -1.531 0 0 7.968zm-6.137 -70.194l1.532 0 0 -1.592 -1.532 0 0 1.592zm-1.532 23.945l1.532 0 0 -1.592 -1.532 0 0 1.592zm-1.531 -19.04l0 1.582 1.531 0 0 -3.174 -1.531 0 0 1.592zm9.2 81.266l1.531 0 0 -1.611 0 -7.979 -1.531 0 0 9.59zm-4.605 -62.226l1.531 0 0 -1.592 -1.531 0 0 1.592zm-1.532 19.15l1.532 0 0 -1.611 0 -4.775 -1.532 0 0 6.386zm0 25.518l0 1.581 1.532 0 0 -3.173 -1.532 0 0 1.592zm0 4.795l0 3.173 1.532 0 0 -4.765 -1.532 0 0 1.592zm0 7.968l0 3.184 1.532 0 0 -4.776 -1.532 0 0 1.592zm0 -19.15l0 1.581 1.532 0 0 -3.173 -1.532 0 0 1.592zm3.063 19.15l0 38.281 1.532 0 0 -39.873 -1.532 0 0 1.592zm3.074 20.742l1.531 0 0 -1.592 0 -4.795 -1.531 0 0 6.387zm0 -7.968l1.531 0 0 -1.622 0 -3.174 -1.531 0 0 4.796zm0 12.763l0 11.152 1.531 0 0 -12.764 -1.531 0 0 1.612zm-3.074 -52.666l1.532 0 0 -1.591 0 -1.582 -1.532 0 0 3.173zm0 23.926l1.532 0 0 -1.592 0 -4.765 -1.532 0 0 6.357zm3.074 -38.281l1.531 0 0 -1.592 -1.531 0 0 1.592zm55.7 118.495l1.532 -0.48 -0.451 -1.501 -1.531 0.45 0.45 1.531zm22.555 -6.697l0 0.151 2.392 -0.201 -0.17 -2.362 -2.363 0.15 0.141 2.262zm-21.133 11.213l1.532 -0.481 -0.481 -1.502 -1.511 0.481 0.46 1.502zm-4.575 1.421l0.941 3.033 1.532 -0.48 -0.942 -3.014 -1.531 0.461zm25.938 -10.101l-0.23 -2.382 -4.735 0.36 0.23 2.473 3.063 -0.281 1.672 -0.17zm-23.465 12.654l0.45 1.501 1.531 -0.45 -0.45 -1.532 -1.531 0.481zm3.513 0.57l1.532 -0.491 -0.48 -1.501 -1.532 0.48 0.48 1.512zm27.3 -11.662l-4.735 0.541 0.31 2.352 4.715 -0.651c-0.09,-0.6 -0.14,-1.221 -0.23,-1.812l0.37 -0.11 -0.48 -1.531 -0.081 0.03c0.06,0.4 0.081,0.79 0.14,1.191l-0.009 -0.01zm-6.467 5.526l0.03 0.06 2.352 -0.371 -0.34 -2.322 -2.382 0.31 0.34 2.323zm7.068 -1.051l-4.686 0.74 0.371 2.332 1.252 -0.229 3.463 -0.601 -0.26 -1.472 1.081 -0.34 -0.46 -1.532 -0.882 0.28 0.121 0.822zm-7.689 -3.654l2.353 -0.29 -0.26 -2.323 -2.353 0.23 0.26 2.383zm-26.078 2.722l-1.532 0.481 0.481 1.502 0.391 1.341 0.059 0.17 1.532 -0.49 -0.931 -3.004zm22.014 2.784l0.4 2.432 1.392 -0.25 3.294 -0.571 -0.371 -2.352 -4.715 0.741zm4.345 -3.124l-0.281 -2.382 -4.745 0.56 0.311 2.473 2.362 -0.34 2.353 -0.311zm-7.689 -4.545l-0.2 -2.072 -15.667 -5.506 0.48 1.512 -1.531 0.48 0.941 3.003 1.531 -0.48 -0.71 -2.273 15.156 5.336zm-18.93 -6.637l0.48 1.502 1.532 -0.451 -0.481 -1.531 -1.531 0.48zm2.723 14.075l1.532 -0.48 -0.962 -3.014 -1.501 0.461 0.931 3.033zm-0.821 -8.029l1.501 -0.48 -0.45 -1.512 -1.532 0.491 0.481 1.501zm-0.601 3.484l1.542 -0.48 -0.941 -3.004 -1.532 0.481 0.931 3.003zm0 0l-1.532 0.491 0.491 1.501 1.532 -0.48 -0.491 -1.512zm-1.101 -3.574l-0.31 -0.93 -1.532 0.45 0.48 1.502 1.532 -0.451 -0.17 -0.571zm-1.902 -0.651l-0.881 -2.832 -1.532 0.481 0.961 3.002 1.512 -0.48 -0.06 -0.171zm-1.792 -5.785l-0.51 -1.592 -1.502 0.481 0.941 3.013 1.531 -0.461 -0.46 -1.441zm2.332 7.458l-1.531 0.49 0.931 3.033 1.531 -0.48 -0.931 -3.043zm-1.311 -9.501l-0.451 -1.531 -1.531 0.481 0.451 1.501 1.531 -0.451zm3.073 -0.97l-0.49 -1.502 -1.502 0.481 0.461 1.511 1.531 -0.49zm0 0l0.941 3.003 1.532 -0.451 -0.711 -2.272 16.227 5.736c0.06,0.681 0.11,1.362 0.141,2.043l2.382 -0.171 -0.17 -2.492 -2.383 0.14 -0.06 -1.562 -16.858 -5.957 0.48 1.502 -1.531 0.481 0.01 0zm25.107 5.115l-0.11 -2.392 -4.765 0.17 0.11 2.502 4.765 -0.28zm-24.516 12.904l0.48 1.531 1.512 -0.48 -0.46 -1.502 -1.532 0.451zm-15.837 -117.074l1.531 0 0 -1.592 -1.531 0 0 1.592zm-1.532 -1.592l1.532 0 0 -1.622 -1.532 0 0 1.622zm0 3.183l1.532 0 0 -1.591 -1.532 0 0 1.591zm17.799 95.481l0.031 0 -0.711 -2.242 17.479 6.156 0.03 1.052 2.382 -0.09 -0.06 -2.493 -2.382 0.03 -0.031 -0.51 -18.099 -6.417 0.45 1.502 -1.531 0.46 0.931 3.033 1.511 -0.481zm-6.076 1.903l-0.931 -3.014 -1.542 0.461 0.941 3.033 1.532 -0.48zm-11.723 -114.922l1.532 0 0 -1.592 3.063 0 0 -1.621 1.532 0 0 -1.592 -1.532 0 0 -6.387 1.532 0 0 -3.173 -1.532 0 0 1.591 -1.532 0 0 3.204 -1.531 0 0 -1.622 -4.595 0 0 1.622 -3.063 0 0 3.173 1.531 0 0 1.592 1.532 0 0 3.203 3.063 0 0 1.592 0 0.01zm-1.532 -3.203l0 -6.357 1.532 0 0 1.592 1.532 -0.001 0 3.174 1.531 0 0 1.592 -4.595 0zm14.786 117.644l1.532 -0.46 -0.961 -3.033 -1.502 0.48 0.451 1.481 0.48 1.532zm-20.632 1.441l-0.931 -3.063 -1.531 0.481 0.93 3.063 1.532 -0.481zm49.093 0.141l0.06 1.702 2.383 -0.08 -0.06 -2.353 -2.383 0.03 0 0.701zm-49.131 21.654l1.528 -0.48 -0.481 -1.528 -1.528 0.481 0.481 1.527zm5.884 -86.633l1.532 0 0 -1.592 -1.532 0 0 1.592zm3.064 -38.311l4.605 0 0 -3.173 -1.532 0 0 -1.591 -1.531 0 0 -1.592 1.531 0 0 -1.612 -1.531 0 -3.074 0 0 -4.765 -3.063 0 0 -1.592 -1.532 0 0 1.592 -1.531 0 0 3.173 1.531 0 0 -1.591 1.532 0 0 3.183 1.531 0 0 1.612 3.064 0 0 6.356zm-4.595 -4.764l1.531 0 0 -1.592 -1.531 0 0 1.592zm-5.847 108.394l-1.531 0.46 0.48 1.532 1.532 -0.46 -0.481 -1.532zm51.106 -13.985c-0.03,0.311 -0.06,0.621 -0.09,0.962l2.382 0.2 0.171 -1.932 0.03 -0.431 -2.353 -0.26 -0.14 1.451 0 0.01zm-6.067 -9.62l2.353 0.34 0.4 -2.472 -1.642 -0.28 -0.71 -0.11c-0.031,0.169 -0.061,0.31 -0.081,0.48l-0.711 0.231 0.451 1.451c-0.03,0.14 -0.06,0.26 -0.06,0.37l0 -0.01zm2.353 0.34l-0.341 2.473 4.746 0.591 0.31 -2.383 -0.23 -0.03 -4.485 -0.651zm4.114 5.446l2.353 0.261 0.26 -2.073c0,-0.09 0,-0.17 0.03,-0.26l-2.353 -0.31 -0.28 2.382 -0.01 0zm-0.791 9.59l2.383 0.09 0.14 -2.332 -2.382 -0.17 -0.141 2.412zm-0.12 4.795l2.393 0 0.02 -2.352 -2.383 -0.06 -0.03 2.412zm-5.896 -17.648l0.14 -1.051 -0.791 0.23 0.481 1.532 0.09 -0.03c-0.03,0.09 -0.03,0.17 -0.03,0.23l-0.06 -0.2 -1.532 0.481 0.941 3.063 0.28 -0.11 0.171 -1.642 2.382 0.26 0.281 -2.472 -2.353 -0.281 0 -0.01zm1.391 10.13l-2.362 -0.17 -0.14 2.553 2.382 0.12 0.06 -1.482 0.06 -1.021zm4.766 0.311l0.17 -2.382 -4.735 -0.421 -0.201 2.492 0.421 0.031 4.345 0.28zm-0.141 2.412l-4.745 -0.22 -0.11 2.493 4.765 0.11 0.09 -2.383zm-4.204 -7.657l-2.382 -0.231 -0.231 2.472 2.393 0.201 0.11 -1.222 0.11 -1.22zm4.745 0.45l0.25 -2.383 -4.735 -0.51 -0.26 2.443 2.363 0.229 2.382 0.221zm-0.631 14.395l-0.03 -2.393 -4.765 -0.02 0.03 2.493 2.893 -0.06 1.872 -0.02zm-87.144 -88.674l1.531 0 0 -1.592 -1.531 0 0 1.592zm-17.396 101.235l1.527 -0.481 -0.48 -1.528 -1.528 0.48 0.481 1.529zm12.801 -91.645l1.531 0 0 -1.592 -1.531 0 0 1.592zm-14.786 90.546l-1.532 0.451 0.481 1.531 1.531 -0.45 -0.48 -1.532zm6.126 -1.872l-1.331 0.421 -1.702 -4.686 -0.03 -20.06 0 -35.638 -1.532 0 0 36.689 0.03 19.299 1.762 4.826 1.272 -0.371 0.48 1.532 1.512 -0.481 -0.461 -1.531zm-8.709 4.335l0.45 1.531 0.491 1.532 1.532 -0.481 -0.941 -3.063 -1.532 0.481zm1.391 4.605l0.942 3.062 1.531 -0.49 -0.941 -3.063 -1.532 0.491zm1.422 4.594l0.351 1.142c0.55,0.009 1.111,0.02 1.691,0.029l-0.51 -1.651 -1.532 0.48 0 0zm57.092 -17.478l-1.532 0.451 0.451 1.531 1.531 -0.451c-0.139,-0.51 -0.31,-1.02 -0.45,-1.531zm-37.941 -97.503l1.531 0 0 -1.592 -1.531 0 0 1.592zm-4.595 -4.795l1.531 0 0 -1.592 3.064 0 0 -1.592 1.531 0 0 -1.591 -1.531 0 0 -6.387 1.531 0 0 -3.204 -1.531 0 0 1.622 -1.532 0 0 3.174 -1.532 0 0 -1.592 -4.594 0 0 1.592 -3.064 0 0 3.173 1.532 0 0 1.622 1.532 0 0 3.172 3.063 0.001 0 1.592 0 0.01zm-1.532 -3.174l0 -6.386 1.532 0 0 1.591 1.531 0 0 3.204 1.532 0 0 1.591 -4.595 0zm4.595 6.377l1.532 0 0 -1.621 -1.532 0 0 1.621zm-3.063 11.152l1.531 0 0 -1.592 -1.531 0 0 1.592zm-3.063 -6.377l1.531 0 0 -1.592 -1.531 0 0 1.592zm-42.407 -14.816l0.041 0.791 0 -0.791 -0.041 0zm1.572 20.742l-1.091 0c0,0.541 -0.02,1.082 -0.04,1.622l1.131 0 0 -1.622zm0 -9.569l-1.271 0c0,0.941 0,1.871 0.02,2.782 0,0.13 0,0.261 0.01,0.401l1.231 0 0 -3.174 0.01 -0.009zm0 17.538l-1.301 0c0,0.541 -0.01,1.081 -0.02,1.622l1.321 0 0 -1.622zm50.024 -12.283l-1.531 0 0 -1.622 -1.532 0 0 -1.582 1.532 0 0 -1.591 -1.532 0 -3.063 0 0 -4.795 -3.063 0 0 -1.592 -1.532 0 0 1.592 -1.532 0 0 3.203 1.532 0 0 -1.622 1.532 0 0 3.214 1.531 0 0 1.591 3.063 0 0 6.377 4.595 0 0 -3.173zm-50.024 15.496l-1.341 0c0,0.531 -0.02,1.062 -0.03,1.592l1.371 0 0 -1.592zm7.659 66.881l0 27.239c0.5,0.07 1.021,0.14 1.531,0.21l0 -27.439 -1.531 0 0 -0.01zm-12.264 -146.655l-1.021 0c0.05,0.53 0.11,1.061 0.16,1.592l0.861 0 0 -1.592zm6.137 146.655l0 26.238c0.5,0.09 1.011,0.18 1.532,0.27l0 -26.518 -1.532 0 0 0.01zm3.063 0l0 26.768c0.501,0.081 1.011,0.161 1.532,0.241l0 -27.009 -1.532 0zm-4.595 3.313l-1.531 0 0 -1.621 1.531 0 0 -19.131 -1.531 0 0 -1.591 1.531 0 0 -6.387 -4.304 0c-0.091,0.621 -0.191,1.241 -0.291,1.842l0 6.136 1.532 0 0 1.592 -1.532 0 0 -1.592 -1.081 0c-0.37,2.102 -0.741,4.255 -1.071,6.387l0.63 0.001 0 1.591 -0.86 0c-0.241,1.642 -0.451,3.244 -0.611,4.765 -0.26,2.443 -0.821,10.071 -1.471,11.943 -0.681,2.012 -0.171,3.664 -0.571,5.786 -0.34,1.792 -0.741,3.804 -1.161,5.566 -0.451,1.932 -1.422,3.634 0.4,4.965 3.334,0.821 6.658,1.632 10.491,2.383 -0.029,-3.604 -0.05,-7.218 -0.08,-10.812l0 -11.832 -0.02 0.009zm0 -67.021l-1.411 0c-0.03,1.062 -0.07,2.133 -0.12,3.204l1.521 0 0 -3.204 0.01 0zm0 30.333l-3.063 0 0 -1.622 1.532 0 0 -4.765 -1.242 0c-0.33,4.384 -0.75,8.719 -1.302,12.743l4.075 0 0 -6.356zm-1.531 -9.59l1.531 0 0 -3.174 -1.531 0 0 -1.592 1.531 0 0 -11.181 -1.531 0 0 1.591 -0.16 0c-0.291,4.986 -0.571,10.471 -0.962,15.947l1.122 0 0 -1.592 0 0.001zm78.094 42.875l0.481 1.531 0.45 1.532 1.532 -0.45 -0.931 -3.063 -1.532 0.45zm51.927 -0.2l-0.031 2.562 2.383 0 0.03 -2.502 -2.382 -0.06zm-1.902 -18.47l0.48 1.532 0.461 1.531 1.531 -0.48 -0.941 -3.063 -1.531 0.48zm2.582 -7.488l0 -24.916 -1.531 0 0 3.744 0 21.423 1.561 4.765 1.472 -0.451 -1.502 -4.565zm-20.322 24.656l0.631 -0.2 0.711 -0.25 0 -0.06 0.11 -0.03 -0.17 -0.05 -0.851 -2.533 0 -2.582 -0.03 0 0 -30.073 -1.532 0 0 30.302 0.03 0 0 2.613 0.961 2.803 -1.421 0.461 0.46 1.502 1.532 -0.481 -0.431 -1.422zm-2.723 2.073c-0.11,-0.401 -0.26,-0.791 -0.37,-1.192l-1.532 0.451 0.481 1.531 1.531 -0.48 -0.11 -0.31zm-3.003 -7.578l0 -30.273 -1.532 0 0 30.302 0 3.514 0.08 0.321 1.082 3.433 1.471 -0.46 -1.101 -3.544 0 -3.293zm5.446 15.436l1.532 -0.481 -0.931 -3.003 -1.542 0.48 0.43 1.362 0.511 1.642zm1.422 4.545l1.531 -0.481 -0.941 -3.043 -1.531 0.481 0.941 3.043zm-11.463 -115.552l1.532 0 0 -1.592 -1.532 0 0 1.592zm15.717 129.116l1.502 -0.461 -0.931 -3.032 -1.532 0.48 0.961 3.013zm17.169 -51.905l0.601 -2.523 2.322 0.571 0.621 -2.443 -2.303 -0.62 -0.4 1.471 -0.03 -18.419 0 -35.638 -1.532 0 0 36.689 0.03 19.27 0.651 1.792c-0.171,0.791 -0.341,1.592 -0.481,2.382l2.353 0.451 0.48 -2.472 -2.322 -0.511 0.01 0zm6.497 3.884l-4.655 -0.901 -0.451 2.463 4.685 0.801 0.421 -2.363zm-92.481 -54.418l1.532 0 0 -1.621 -1.532 0 0 1.621zm82.705 56.726l1.535 -0.455 -0.455 -1.536 -1.535 0.456 0.455 1.535zm-45.955 37.564l0.931 3.064 1.532 -0.451 -0.931 -3.063 -1.532 0.45zm-23.385 -1.191l0.651 -0.23 0.71 -0.22 -0.03 -0.06 0.14 -0.06 -0.169 -0.05 -0.851 -2.533 0 -2.583 -0.021 0 0 -30.072 -1.531 0 0 30.332 0.02 0 0 2.583 0.971 2.833 -1.422 0.461 0.451 1.501 1.532 -0.481 -0.451 -1.421zm21.964 -3.404l0.941 3.063 1.532 -0.45 -0.941 -3.063 -1.532 0.45zm-27.67 -2.102l0 -30.302 -1.532 0 0 30.332 0 3.494 0.09 0.311 1.072 3.463 1.481 -0.461 -1.111 -3.543 0 -3.294zm26.278 -2.492l0.941 3.063 1.532 -0.451 -0.941 -3.073 -1.532 0.461zm-23.265 10.07c-0.11,-0.4 -0.25,-0.79 -0.37,-1.221l1.271 -0.341 -0.851 -3.203 0 -33.115 -1.532 0 0 33.315 0.081 0.341 0.821 3.063 0.13 -0.03 -1.462 0.461 0.481 1.502 1.502 -0.451 -0.091 -0.31 0.02 -0.011zm40.895 -126.644l1.531 0 0 -1.592 -1.531 0 0 1.592zm-15.848 106.007l1.528 -0.481 -0.481 -1.527 -1.528 0.48 0.481 1.528zm4.125 -2.948l-1.332 0.4 -1.712 -4.684 -0.019 -20.061 0 -35.638 -1.532 0 0 36.689 0.02 19.3 1.762 4.845 1.281 -0.39 0.481 1.531 1.531 -0.45 -0.48 -1.542zm-7.298 8.92l0.941 3.063 1.502 -0.46 -0.932 -3.064 -1.511 0.461zm48.132 -65.239l0 -19.161 -1.532 0 0 20.742 1.532 0 0 -1.581zm-46.961 58.172l-1.511 0.48 0.46 1.532 1.532 -0.481 -0.481 -1.531zm29.422 10.891l-1.502 0.48 0.451 1.512 1.532 -0.49 -0.481 -1.502zm-10.041 -114.211l1.532 0 0 -1.592 -1.532 0 0 1.592zm11.092 133.681l-0.911 -2.953 1.532 -0.48 -0.481 -1.502 -1.531 0.481 0.029 0.029 -1.791 -0.62c-0.171,-0.451 -0.371,-0.941 -0.541,-1.392l1.902 0.651 -0.541 -1.672 1.532 -0.48 -0.481 -1.502 -1.501 0.451 -0.401 -1.221 -2.182 -0.771c-0.17,-0.451 -0.341,-0.912 -0.481,-1.362l2.243 0.791 -0.14 -0.451 1.532 -0.48 -0.451 -1.502 -1.532 0.481 -0.771 -2.473 -2.272 -0.791 -0.37 -1.361 2.212 0.791 0.26 0.791 1.502 -0.451 -0.451 -1.531 -1.531 0.48 -0.941 -3.003 1.531 -0.481 -0.48 -1.502 -1.532 0.481 0.261 0.791 -1.983 -0.681c-0.08,-0.451 -0.2,-0.881 -0.31,-1.331l1.872 0.65 -0.77 -2.472 1.531 -0.481 -0.48 -1.501 -0.941 0.31 -0.481 -0.17c-0.341,-1.192 -0.711,-2.383 -1.051,-3.574 -0.06,-6.327 -0.11,-12.684 -0.17,-19.01l0 -11.833 -1.532 0.001 0 -1.622 1.532 0 0 -19.13 -1.532 0 0 -1.621 1.532 0 0 -6.387 -4.595 -0.001 0 -1.591 4.595 0 0 -6.387 -3.063 0 0 -1.592 1.531 0 0 -4.764 -1.531 0 0 1.591 -1.532 0 0 -1.591 1.532 0 0 -1.622 1.531 0 0 -1.592 1.532 0 0 -3.173 -1.532 -0.001 0 -1.621 1.532 0 0 -11.152 -1.532 0 0 1.592 -1.531 -0.001 0 1.592 -1.532 0 0 1.622 1.532 0 0 3.174 -1.532 0 0 -3.174 -3.063 0 0 -3.203 -1.532 0 0 -3.173 1.532 0 0 -3.204 -1.532 0 0 -1.591 -2.523 0 0 -1.592 -1.531 0 0 1.592 0.99 0 0 1.591 1.532 0 0 3.204 -0.991 0 0 -1.622 -1.531 -0.001 0 1.622 0.99 0.001 0 11.151 1.532 0 0 -3.173 1.532 0 0 3.173 1.532 0 0 4.796 -1.532 0 0 1.591 1.532 0 0 3.204 1.531 -0.001 0 1.592 -1.531 0 0 3.173 -4.596 0 0 6.387 1.532 0 0 -1.592 1.532 0 0 3.174 1.532 0 0 -1.592 1.531 0 0 4.795 1.532 0 0 6.387 1.532 0 0 1.592 -1.532 0 0 -1.592 -3.063 0 0 -1.622 -1.532 0 0 -4.765 1.532 0 0 -1.621 -4.596 0 0 7.998 1.532 0 0 3.173 -1.532 0 0 6.387 1.532 0 0 3.174 -1.532 0 0 14.354 1.532 0 0 1.622 -1.532 0 0 6.357 0.031 0c0.09,4.825 0.2,9.62 0.23,14.445l0 0.03 -0.821 0.26 -1.902 -4.795 -0.06 -18.98 -1.532 0.03 0.06 19.241 1.963 4.934 1.051 -0.31 0.48 1.532 1.502 -0.451 0.941 3.063 -1.532 0.451 0.481 1.532 1.531 -0.451 -0.139 -0.451 0.139 0.03 0.741 3.544 -1.331 0.4 0.451 1.531 1.251 -0.37 0.821 3.123 -1.131 0.311 0.47 1.532 -1.522 0.48 0.941 3.063 1.532 -0.451 -0.931 -3.063 1.071 -0.34 0.941 3.063 -1.081 0.34 0.45 1.532 1.112 -0.341c0.34,1.022 0.68,2.012 1.051,3.034l-1.222 0.37 0.481 1.532 1.301 -0.401c0.261,0.651 0.511,1.332 0.791,2.013l0.371 0.99 -1.532 0.451 0.48 1.532 1.502 -0.451 -0.11 -0.431 0.17 0.061 0.621 1.421 -0.371 -0.11 0.621 2.132 -1.502 0.451 0.451 1.532 1.531 -0.451 0.231 0.741 0.13 0.05c0.981,-0.03 1.942,-0.07 2.883,-0.101 2.493,-0.1 4.845,-0.2 7.108,-0.32l-0.581 -1.381 1.221 0.43 -0.02 0.002zm-18.76 -119.296l-1.532 0 0 -1.621 1.532 0 0 1.621zm3.063 6.357l1.532 0 0 -1.592 1.531 0 0 1.592 -1.531 0 0 1.622 -1.532 0 0 -1.622zm0 14.355l0 3.203 -1.532 0 0 -3.203 1.532 0 0 -1.592 1.532 0 0 1.592 -1.532 0zm6.327 79.854c0.11,0.431 0.23,0.881 0.341,1.332l-1.302 -0.481c-0.14,-0.45 -0.26,-0.881 -0.37,-1.331l1.331 0.48zm-1.452 -5.646c0.11,0.431 0.231,0.882 0.341,1.302l-1.332 -0.48 -0.31 -1.302 1.302 0.48 -0.001 0zm-4.885 -51.844l0 1.591 -1.531 0 0 -1.591 1.531 0zm-3.063 17.538l-1.532 0 0 -1.591 1.532 0 0 1.591zm0 -20.741l0 -1.592 1.532 0 0 1.592 -1.532 0zm1.301 53.886c-0.11,-0.43 -0.2,-0.85 -0.28,-1.301l1.131 0.4c0.11,0.451 0.2,0.881 0.281,1.302l-1.132 -0.401zm1.361 5.616l-0.34 -1.301 1.131 0.4c0.03,0.14 0.06,0.31 0.11,0.481 0.061,0.28 0.14,0.57 0.231,0.821l-1.132 -0.401zm2.273 -5.536l0.28 1.302 -1.081 -0.37c-0.11,-0.451 -0.2,-0.881 -0.28,-1.332l1.081 0.4zm-0.571 11.292c-0.14,-0.45 -0.28,-0.911 -0.43,-1.361l1.111 0.4c0.14,0.451 0.28,0.912 0.431,1.362l-1.112 -0.401zm1.192 -4.735c-0.14,-0.43 -0.26,-0.88 -0.371,-1.331l1.112 0.401c0.11,0.45 0.23,0.88 0.37,1.331l-1.111 -0.401zm0.941 10.612c-0.2,-0.451 -0.371,-0.911 -0.541,-1.392l1.082 0.4c0.17,0.451 0.34,0.912 0.51,1.392l-1.051 -0.4zm0.791 -4.856l-0.431 -1.361 1.111 0.4 0.451 1.362 -1.131 -0.401zm1.731 10.902c-0.23,-0.481 -0.43,-0.961 -0.62,-1.422l1.051 0.371 0.621 1.421 -1.052 -0.37zm0.451 -4.995c-0.2,-0.451 -0.371,-0.911 -0.541,-1.392l1.132 0.4 0.57 1.422 -1.161 -0.431 0 0.001zm0.791 -4.856c-0.14,-0.45 -0.31,-0.911 -0.451,-1.361l1.282 0.451c0.14,0.451 0.28,0.911 0.45,1.361l-1.281 -0.451zm1.792 10.922c-0.2,-0.481 -0.431,-0.961 -0.621,-1.451l1.192 0.45c0.23,0.481 0.45,0.941 0.68,1.422l-1.251 -0.431 0 0.01zm0.511 -4.965l-0.571 -1.422 1.161 0.431 0.541 1.392 -1.131 -0.4 0 -0.001zm2.752 6.126l-0.68 -1.451 0.941 0.31 0.601 1.422 -0.851 -0.281 -0.011 0zm31.295 -4.024l0.29 1.622c0.801,-0.19 1.571,-0.391 2.322,-0.591l-0.26 -1.432 -2.353 0.401 0.001 0zm8.018 -2.613c-0.02,-0.139 -0.04,-0.29 -0.07,-0.44l-0.06 0.02 0.13 0.42zm-35.829 6.728l0.261 0.821c0.56,-0.03 1.111,-0.06 1.661,-0.101l-0.39 -1.21 -1.532 0.48 0 0.01zm35.239 -8.68l0.09 -0.03c-0.05,-0.19 -0.101,-0.38 -0.15,-0.57 -0.201,-0.811 -0.391,-1.682 -0.571,-2.563l-0.31 0.09 0.941 3.063 0 0.01zm-32.065 9.33c0.12,0 0.24,-0.02 0.37,-0.02l-0.03 -0.09 -0.34 0.11zm1.871 -0.56l0.141 0.43c0.55,-0.04 1.101,-0.08 1.641,-0.12l-0.25 -0.801 -1.532 0.48 0 0.011zm15.727 -2.984c0,0 0.031,0.03 0.031,0.06l-13.055 -4.594 -0.711 -2.273 13.395 4.736 -0.06 -0.431 2.352 -0.341 -0.37 -2.472 -2.353 0.31 0.11 0.791 -13.795 -4.855 -0.711 -2.273 14.216 5.026c-0.06,-0.401 -0.091,-0.791 -0.14,-1.192l2.352 -0.28 -0.26 -2.493 -2.382 0.261c0.06,0.54 0.11,1.081 0.17,1.621l-14.646 -5.165 0.45 1.501 -1.501 0.481 0.941 3.033 1.531 -0.48 0.451 1.501 -1.532 0.481 0.941 3.003 1.532 -0.481 0.48 1.532 -1.531 0.451 0.941 3.033 1.531 -0.48 0.481 1.501 -1.532 0.481 0.361 1.151c0.55,-0.04 1.091,-0.09 1.621,-0.14l-0.25 -0.781 1.822 0.641c1.542,-0.14 3.013,-0.29 4.425,-0.451l-6.958 -2.463 -0.68 -2.242 11.793 4.154c1.111,-0.16 2.182,-0.34 3.193,-0.521l-0.31 -1.761 -2.353 0.4 0.01 0.02zm7.579 -22.103l0.03 1.762 4.555 -0.08c-0.1,-0.691 -0.191,-1.452 -0.281,-2.253l-4.304 -0.03 0 0.601 0 0zm0.02 -2.953l4.044 0.1c-0.08,-0.801 -0.15,-1.572 -0.21,-2.272l-3.744 -0.18 -0.08 2.352 -0.01 0zm-106.095 25.397l-1.532 0.45 0.481 1.542 1.531 -0.46 -0.48 -1.532zm111.181 -14.015l-4.766 0.37 0.08 1.161 0.111 1.192 4.765 -0.481c0.06,0.651 0,0.481 0.17,1.051l0.471 -0.139c-0.09,-0.481 -0.191,-0.961 -0.27,-1.422 -0.121,-0.631 -0.151,-1.221 -0.171,-1.792l-0.4 0.121 0 -0.061 0.01 0zm-0.221 -4.905c-0.03,-0.121 -0.05,-0.25 -0.07,-0.38l0 0.4c0,0 0.07,-0.02 0.07,-0.02zm-0.07 0.39l-4.735 0.2 0.08 2.322 0.341 0.001 4.424 -0.261c0,0.231 0.03,0.451 0.061,0.681l0.49 -0.16c0,-0.2 -0.02,-0.4 -0.04,-0.601l-0.601 -1.971 -0.03 -0.231 0.01 0.02zm-110.41 20.062l0.651 2.132c0.551,0 1.112,0.01 1.682,0.02l-0.801 -2.613 -1.532 0.45 0 0.011zm21.564 1.591l-0.941 -3.033 1.531 -0.451 -0.48 -1.531 -1.532 0.48 0.261 0.821 -1.983 -0.711c-0.11,-0.43 -0.2,-0.88 -0.31,-1.301l1.872 0.65 -0.77 -2.472 1.531 -0.481 -0.48 -1.501 -0.941 0.28 -0.481 -0.17c-0.341,-1.191 -0.711,-2.382 -1.051,-3.574 -0.06,-6.327 -0.11,-12.653 -0.17,-18.98l0 -11.862 -1.532 0 0 -1.592 1.531 0 0 -19.151 -1.531 0 0 -1.591 1.531 0 0 -6.387 -4.595 0 0 -1.591 4.595 0 0 -6.387 -3.063 0 0 -1.592 1.532 0 0 -4.795 -1.532 0 0 1.592 -1.532 0 0 -1.592 1.532 0 0 -1.592 1.532 0 0 -1.591 1.531 0 0 -3.204 -1.531 0 0 -1.591 1.531 0 0 -11.182 -1.531 0 0 1.622 -1.532 0 0 1.591 -1.532 0 0 1.592 1.532 0 0 3.204 -1.532 0 0 -3.204 -3.063 0 0 -3.173 -1.531 0 0 -3.204 1.531 0 0 -3.173 -1.531 0 0 -1.592 -2.523 0 0 -1.622 -1.532 0 0 1.622 0.991 0 0 1.592 1.532 0 0 3.173 -0.991 0 0 -1.591 -1.532 0 0 1.591 0.991 0 0 11.182 1.532 0 0 -3.203 1.532 0 0 3.203 1.531 0 0 4.765 -1.531 0 0 1.621 1.531 0 0 3.174 1.532 0 0 1.592 -1.532 0 0 3.203 -4.595 0 0 6.387 1.532 0 0 -1.621 1.532 -0.001 0 3.204 1.531 0 0 -1.592 1.532 0 0 4.765 1.531 0 0 6.387 1.532 0 0 1.591 -1.532 0 0 -1.591 -3.063 0 0 -1.592 -1.531 0 0 -4.795 1.531 0 0 -1.592 -4.595 0 0 7.979 1.532 0 0 3.203 -1.532 0 0 6.387 1.532 0 0 3.173 -1.532 0 0 14.355 1.532 0 0 1.592 -1.532 0 0 6.387 0.03 0c0.09,4.825 0.171,9.62 0.231,14.415l0 0.03 -0.821 0.261 -1.902 -4.766 -0.061 -18.979 -1.531 0 0.06 19.27 1.962 4.935 1.051 -0.31 0.451 1.531 1.532 -0.48 0.941 3.063 -1.532 0.48 0.481 1.532 1.531 -0.481 -0.14 -0.45 0.14 0.06 0.741 3.514 -1.331 0.43 0.45 1.532 1.251 -0.37 0.821 3.093 -1.131 0.34 0.471 1.482c0.06,0 0.12,0 0.17,0l0.921 -0.27 0.08 0.28c0.16,0 0.321,0 0.481,0 2.793,0.03 5.876,0.081 9.109,0.131l-0.26 -0.871 2.243 0.79 0.03 0.101c0.55,0 1.111,0.02 1.672,0.029l-0.401 -1.321 -1.531 0.481 -0.011 0.009zm-13.134 -101.277l-1.532 0 0 -1.592 1.532 0 0 1.592zm3.063 6.386l1.531 0 0 -1.591 1.532 0 0 1.591 -1.532 0 0 1.593 -1.531 0 0 -1.593zm0 14.356l0 3.173 -1.532 0 0 -3.173 1.532 0 0 -1.592 1.531 0 0 1.592 -1.531 0zm0 22.333l0 1.592 -1.532 0 0 -1.592 1.532 0zm-3.063 17.569l-1.532 0 0 -1.622 1.532 0 0 1.622zm0 -20.741l0 -1.623 1.531 0 0 1.623 -1.531 0zm1.301 53.886c-0.11,-0.451 -0.2,-0.88 -0.28,-1.301l1.131 0.4c0.08,0.43 0.2,0.881 0.28,1.301l-1.131 -0.4zm1.361 5.616l-0.34 -1.331 1.111 0.4c0.06,0.17 0.081,0.34 0.14,0.48 0.061,0.281 0.14,0.571 0.231,0.851l-1.132 -0.4 -0.01 0zm1.192 -5.926l1.081 0.4 0.28 1.302 -1.081 -0.4c-0.11,-0.431 -0.2,-0.882 -0.28,-1.302zm1.672 6.947c-0.11,-0.45 -0.231,-0.88 -0.341,-1.332l1.111 0.401c0.11,0.431 0.231,0.881 0.371,1.332l-1.132 -0.401 -0.009 0zm1.111 -5.956l1.301 0.45c0.111,0.451 0.231,0.881 0.311,1.332l-1.332 -0.48 -0.28 -1.302zm1.792 6.978c-0.14,-0.451 -0.26,-0.912 -0.401,-1.332l1.362 0.45c0.11,0.451 0.23,0.912 0.34,1.332l-1.301 -0.45zm-11.323 -0.091l0.151 0.511c0.54,0 1.101,0.009 1.672,0.019l-0.321 -1.011 -1.502 0.481zm18.57 0.771c0.361,0 0.721,0.01 1.082,0.02l-0.101 -0.32 -0.981 0.31 0 -0.01zm82.11 -38.761l1.081 0.09 1.352 0.14c-0.11,-0.791 -0.241,-1.592 -0.361,-2.403l-1.812 -0.21 -0.26 2.383 0 0zm-42.967 38.741c0.531,-0.01 1.051,-0.03 1.562,-0.05l-0.11 -0.38 -1.452 0.43 0 0zm-59.384 -0.25c0,0 0.1,0 0.15,0 0,-0.01 0,-0.03 -0.01,-0.041l-0.13 0.041 -0.01 0zm22.754 -0.501l0.25 0.801c0.561,0 1.121,0.02 1.692,0.02l-0.411 -1.311 -1.531 0.48 0 0.01zm31.494 0.631l0.07 0.23c0.561,-0.01 1.111,-0.02 1.662,-0.03l-0.19 -0.651 -1.532 0.451 -0.01 0zm-0.48 -1.532l-0.451 -1.531 -1.531 0.45 0.87 2.873c0.271,0 0.551,0 0.811,-0.009l0.791 -0.25 -0.48 -1.532 -0.01 -0.001zm3.544 0.621l0.32 1.071c0.561,-0.01 1.112,-0.03 1.662,-0.04l-0.45 -1.511 -1.532 0.48zm-29.993 -1.162l-1.502 0.481 0.561 1.812c0.561,0 1.111,0.01 1.662,0.02l-0.471 -1.552 4.535 1.602c1.992,0.02 3.955,0.03 5.856,0.04l-11.101 -3.914 0.45 1.502 0.01 0.009zm21.394 0.401l0.58 1.983c0.571,0 1.132,-0.011 1.682,-0.021l-0.741 -2.412 -1.531 0.45 0.01 0zm-22.785 -4.915l-1.532 0.481 0.941 3.003 1.532 -0.48 -0.711 -2.243 17.479 6.157c1.932,0 3.784,-0.02 5.576,-0.041l-23.766 -8.388 0.48 1.501 0.001 0.01zm76.052 -27.329l3.394 0.221c0,-0.051 -0.01,-0.121 -0.02,-0.171 -0.07,-0.701 -0.16,-1.432 -0.25,-2.162l-2.954 -0.25 -0.17 2.352 0 0.01zm-100.478 -58.502l1.531 0 0 -1.591 -1.531 0 0 1.591zm100.618 -109.175l0.961 0 0 -3.174 -1.531 0 0 3.174 -5.586 0 0 1.591 3.063 0 0 1.622 1.532 0 0 1.592 0.991 -0.001 0 3.174 -0.991 0 0 1.592 0.991 0 0 1.622 1.531 0 0 -4.796 1.532 0 0 3.173 0.661 0.001c0.27,-1.732 0.561,-3.374 0.861,-4.765l-4.015 -0.001 0 -4.795 0 -0.009zm-99.087 110.787l-1.532 0 0 1.592 0 3.173 1.532 0 0 -4.765zm99.858 47.47l1.131 0.14c-0.14,-0.811 -0.27,-1.612 -0.41,-2.412l-0.411 -0.061 -0.31 2.322 0 0.011zm-49.834 -69.343l1.532 0 0 -1.622 -1.532 0 0 1.622zm57.693 -109.656l0.18 0c0.09,-0.511 0.19,-1.041 0.28,-1.592l-0.46 0 0 1.592zm-107.717 128.326l1.532 0 0 -1.593 -1.532 0 0 1.593zm98.527 -125.113l1.531 0 0 -1.622 -1.531 0 0 1.622zm-11.693 161.201l-0.03 0 0 -27.209 -1.532 0 0 1.611 0 29.151 1.562 4.876 1.472 -0.451 -1.502 -4.685 0.03 -3.293zm16.288 -156.436l1.531 0 0 -1.592 -1.531 0 0 1.592zm-54.629 103.259l1.531 0 0 -1.592 -1.531 0 0 1.592zm56.16 -119.206l1.532 0 0 -1.592 -1.532 0 0 1.592zm-54.629 120.798l-1.531 0 0 1.592 0 3.203 1.531 0 0 -4.795zm54.629 -100.667c0.191,-0.66 0.401,-1.341 0.621,-2.052 0.05,-0.17 0.11,-0.34 0.16,-0.51l-0.781 0 0 2.562 0 0zm-10.221 156.056l4.655 1.021 0.101 -0.401c-0.111,-0.7 -0.221,-1.421 -0.321,-2.141l-3.834 -0.941 -0.601 2.472 0 -0.01zm1.222 -4.905l2.863 0.8c-0.11,-0.88 -0.211,-1.762 -0.31,-2.663l-1.882 -0.57 -0.681 2.443 0.01 -0.01zm2.873 -120.228l1.531 0 0 -1.592 -1.531 0 0 1.592zm-0.581 115.653c-0.07,-0.691 -0.13,-1.382 -0.19,-2.073l-0.621 1.803 0.811 0.27zm0.661 12.853l1.091 0.211c-0.04,-0.241 -0.09,-0.491 -0.13,-0.721 -0.11,-0.591 -0.21,-1.191 -0.31,-1.812l-0.171 -0.04 -0.48 2.352 0 0.01zm-0.791 4.715l2.353 0.371 0.19 -1.192c-0.07,-0.4 -0.14,-0.801 -0.21,-1.201l-1.963 -0.33 -0.37 2.352zm-1.792 -21.873l-0.03 -8.71 -1.532 0.001 0.06 13.113 -0.45 1.362 2.272 0.681 0.791 -2.413 -2.272 -0.74c0.26,-0.822 0.57,-1.642 0.85,-2.473l1.983 0.73c-0.081,-0.931 -0.151,-1.872 -0.22,-2.813l-0.822 -0.33 -0.62 1.592 -0.01 0zm-1.562 -36.358l1.432 0c-0.05,-1.192 -0.1,-2.393 -0.1,-3.634 0,-1.482 0.07,-2.903 0.13,-4.345l-1.462 0 0 7.979zm5.596 -71.786l0.301 0c0.02,-0.231 0.05,-0.451 0.07,-0.681 0.07,-0.691 0.15,-1.552 0.25,-2.523l-0.621 0 0 3.204zm-1.531 11.151l0.671 0c0.12,-1.061 0.23,-2.122 0.35,-3.173l-1.011 0 0 3.173 -0.01 0zm0.56 -11.151l0 -1.622 -1.561 0 0 1.622 0.991 0 0 3.173 -2.523 0 0 3.203 1.532 0 0 -1.621 2.352 0c0.06,-0.581 0.11,-1.162 0.17,-1.742l0 -3.023 -0.961 0 0 0.01zm-4.625 49.452l0 12.743 1.522 0.001c0,-0.061 0,-0.11 0,-0.171 0,0 0,-0.02 0,-0.02l0 -12.543 -1.532 0 0.01 -0.01zm3.064 -23.945l0.23 0c0.05,-0.531 0.1,-1.062 0.14,-1.592l-0.37 0 0 1.592zm-49.204 124.631l0.451 1.532 1.532 -0.48 -0.932 -3.064 -1.531 0.481 0.48 1.531zm7.489 24.517l1.531 -0.451 -0.931 -3.073 -1.532 0.46 0.932 3.064zm-1.412 -4.596l1.531 -0.46 -0.941 -3.063 -1.531 0.46 0.941 3.063zm-1.392 -4.605l1.502 -0.45 -0.941 -3.063 -1.502 0.45 0.941 3.063zm-1.191 7.068c0.231,0.771 0.451,1.502 0.681,2.272l0.26 0.791 1.532 -0.45 -0.941 -3.064 -1.532 0.451zm-3.894 -7.208l-0.451 -1.531 -1.531 0.46 0.931 3.063 1.541 -0.46 -0.49 -1.532zm1.421 4.605l-0.48 -1.541 -1.532 0.46 0.931 3.064 1.532 -0.451 -0.451 -1.532zm1.992 1.072l-1.541 0.46 0.49 1.532 1.532 -0.461 -0.481 -1.531zm-2.442 -24.406l-0.941 -3.064 -1.502 0.491 0.941 3.063 1.502 -0.49zm-0.371 15.216l-1.531 0.45 0.48 1.532 1.532 -0.45 -0.481 -1.532zm-5.736 -13.334l-0.48 -1.542 -0.451 -1.531 -1.531 0.46 0.93 3.063 1.532 -0.45zm7.749 14.385l1.531 -0.461 -0.48 -1.531 -1.532 0.46 0.481 1.532zm-0.341 -6.587l1.502 -0.481 -0.931 -3.063 -1.502 0.481 0.931 3.063zm-1.09 1.996l1.535 -0.455 -0.455 -1.536 -1.535 0.455 0.455 1.536zm-4.786 -10.255l1.532 -0.48 -0.931 -3.064 -1.532 0.451 0.451 1.532 0.48 1.561zm7.593 19.468l1.536 -0.455 -0.455 -1.536 -1.536 0.455 0.455 1.536zm-61.775 2.14l1.536 -0.454 -0.455 -1.537 -1.536 0.456 0.455 1.535zm58.386 -7.813l1.532 -0.481 -0.45 -1.532 -0.491 -1.541 -1.532 0.49 0.941 3.064zm1.422 4.595l1.532 -0.481 -0.481 -1.531 -0.46 -1.532 -1.532 0.481 0.941 3.063zm2.463 2.582l-0.481 -1.531 -1.532 0.48 0.941 3.064 1.532 -0.481 -0.46 -1.532zm-2.463 -2.582l-0.17 0.03 -1.362 0.43 0.451 1.532 1.531 -0.451c-0.139,-0.51 -0.31,-1.021 -0.45,-1.531l0 -0.01zm-2.212 -12.744l1.531 -0.45 -0.49 -1.532 -1.532 0.45 0.491 1.532zm0 0l-1.542 0.481 0.941 3.073 1.532 -0.49 -0.481 -1.532 -0.45 -1.532zm-3.074 0.941l-1.531 0.451 0.941 3.063 1.531 -0.451 -0.941 -3.063zm-1.402 -4.605l1.536 -0.455 -0.455 -1.536 -1.536 0.456 0.455 1.535zm0.472 1.542l-0.481 -1.532 -1.532 0.451 0.931 3.063 1.532 -0.451 -0.45 -1.531zm2.571 -2.456l1.535 -0.455 -0.455 -1.535 -1.535 0.455 0.455 1.535zm0.231 11.646l-0.48 -1.532 -1.532 0.45 0.941 3.074 1.532 -0.461 -0.461 -1.531zm6.818 11.351l1.531 -0.48 -0.48 -1.532 -1.532 0.451 0.481 1.561zm-58.604 -3.864l-0.45 -1.531 -1.532 0.491 0.45 1.531 1.532 -0.491zm8.319 -62.245l1.532 0 0 -1.592 -1.532 0 0 1.592zm-5.256 61.315l-0.48 -1.532 -1.502 0.481 0.451 1.531 1.531 -0.48zm-0.11 5.075l1.502 -0.481 -0.451 -1.531 -1.531 0.48 0.48 1.532zm-3.05 0.92l1.528 -0.481 -0.481 -1.528 -1.528 0.482 0.481 1.527zm0.097 -5.065l0.941 3.074 1.532 -0.461 -0.941 -3.063 -1.532 0.45zm-1.051 2.023l-0.481 -1.532 -1.531 0.45 0.941 3.064 1.531 -0.451 -0.46 -1.531zm0.601 -3.554l1.531 -0.45 -0.941 -3.064 -1.531 0.451 0.46 1.531 0.481 1.532zm-1.532 0.491l-0.481 -1.532 -0.46 -1.542 -1.532 0.461 0.941 3.063 1.532 -0.45zm48.492 -18.25l-1.531 0.481 0.46 1.531 1.532 -0.48 -0.461 -1.532zm-43.557 23.435l-1.531 0.46 0.941 3.064 1.531 -0.461 -0.49 -1.532 -0.451 -1.531zm0.571 -3.544l0.48 1.532 1.532 -0.451 -0.941 -3.063 -1.532 0.451 0.461 1.531zm1.872 6.126l1.532 -0.45 -0.941 -3.063 -1.532 0.45 0.941 3.063zm-1.282 -9.649l-0.93 -3.064 -1.532 0.46 0.931 3.064 1.531 -0.46zm48.013 2.021l-1.532 0.481 0.46 1.531 1.532 -0.48 -0.46 -1.532zm-28.141 4.936l0.51 1.672 1.533 -0.481 -0.941 -3.033 -1.533 0.481 0.431 1.361zm25.684 -7.538l1.528 -0.481 -0.481 -1.528 -1.528 0.481 0.481 1.528zm-0.346 -6.597l-1.532 0.49 0.451 1.532 1.531 -0.491 -0.45 -1.531zm-2.493 -2.557l1.527 -0.481 -0.48 -1.527 -1.528 0.48 0.481 1.528zm-23.276 15.331l-0.45 -1.502 -1.531 0.48 0.45 1.502 1.531 -0.48zm2.954 4.053l1.532 -0.48 -0.481 -1.501 -1.531 0.48 0.48 1.501zm1.131 -6.977l0.03 0 -0.711 -2.272 23.927 8.429 -0.401 -1.271 1.502 -0.461 -0.932 -3.064 -1.531 0.451 0.761 2.443 -0.11 -0.341 -23.896 -8.429 0.45 1.482 -1.531 0.48 0.941 3.004 1.501 -0.451zm-3.033 0.932l0.481 1.511 1.531 -0.46 -0.48 -1.532 -1.532 0.481zm-1.502 0.49l1.502 -0.49 -0.941 -3.004 -1.532 0.48 0.48 1.482 0.491 1.532zm-1.531 0.48l-0.941 -3.033 -1.532 0.48 0.941 3.004 1.532 -0.451zm0.45 1.502l-1.502 0.48 0.931 3.014 1.532 -0.481 -0.45 -1.421 -0.511 -1.592zm0.961 3.013l0.46 1.502 1.532 -0.461 -0.481 -1.501 -1.511 0.46z"/>
    <path fill="#F90000" fill-rule="nonzero" d="M30.995 99.044l1.501 0.23 0.26 -1.562 -1.502 -0.26 -0.259 1.592zm-5.026 -42.826l0.23 -1.551 -1.502 -0.261 -0.51 3.153 1.532 0.251 0.25 -1.592zm12.093 37.49l0.251 -1.592 -1.533 -0.22 -0.25 1.562 1.532 0.25zm-7.318 6.897l-0.26 1.592 1.531 0.22 0.261 -1.561 -1.532 -0.251zm3.034 0.481l0.25 -1.562 -1.532 -0.25 -0.22 1.582 1.502 0.23zm-4.285 -47.531l0.25 -1.561 -1.501 -0.251 -0.511 3.144 1.502 0.26 0.26 -1.592zm-2.523 -13.334l-1.542 -0.23 -0.22 1.562 1.502 0.25 0.26 -1.582zm-2.273 23.895l1.532 0.221 0.25 -1.562 -1.531 -0.25 -0.251 1.591zm-13.825 57.541l1.502 0.261 2.113 -13.274c-0.521,-0.04 -1.022,-0.081 -1.532,-0.11l-2.092 13.133 0.009 -0.01zm7.809 -10.04l1.502 0.23 0.26 -1.562 0.19 -1.201c-0.51,-0.04 -1.021,-0.07 -1.531,-0.11l-0.42 2.643 -0.001 0zm4.255 -36.499l1.531 0.261 0.261 -1.592 -1.532 -0.23 -0.26 1.561zm18.53 35.618l-0.281 0 -0.029 -0.03 -0.371 0 -0.06 -0.03 -0.31 0 -0.03 -0.03 -0.06 0c-0.101,0 -0.211,-0.02 -0.321,-0.02l-0.901 5.726 1.502 0.26 0.26 -1.591 0.671 -4.285 -0.08 0 0.01 0zm-17.029 0.17l1.502 0.26 0.26 -1.591 -1.101 -0.17c-0.13,0 -0.27,-0.02 -0.41,-0.031l-0.251 1.532 0 0zm-10.551 -8.148l-0.261 1.591 -0.62 3.935 1.522 0.13 0.861 -5.396 -1.502 -0.26zm22.164 -15.857l-0.261 1.581 1.502 0.261 0.261 -1.592 -1.502 -0.25zm-16.118 16.827l-0.811 5.076 1.532 0.13 0.811 -4.955 -1.532 -0.251zm18.871 -14.755l-1.512 -0.23 -0.25 1.561 1.532 0.251 0.23 -1.582zm-28.721 18.039l-0.151 1.011 1.532 0.13 0.15 -0.911 -1.531 -0.23zm12.593 5.225l1.512 0.261 0.25 -1.592 -1.501 -0.23 -0.261 1.561zm-3.173 -27.128l0.2 0.03 0.08 -0.451 -0.19 -0.029 -0.09 0.45zm10.471 -54.087l1.042 0.15c-0.06,-0.321 -0.131,-0.631 -0.191,-0.952 -0.05,-0.239 -0.08,-0.48 -0.12,-0.71l-0.471 -0.08 -0.26 1.591 0 0.001zm-9.79 71.145l1.531 0.22 0.23 -1.551 0.511 -3.154 -1.501 -0.26 -0.771 4.745zm16.678 -37.75c-0.05,-0.371 -0.11,-0.731 -0.16,-1.101l-0.171 1.051 0.331 0.05zm-4.105 33.295l4.535 0.711 0.511 -3.153 -1.502 -0.231 0.23 -1.581 -1.501 -0.231 0.25 -1.591 1.501 0.26 0.261 -1.592 -1.502 -0.23 -3.043 -0.481 0.771 -4.734 -3.033 -0.491 0.25 -1.552 -1.502 -0.26 -0.26 1.561 -1.532 -0.229 -0.48 3.153 1.501 0.25 0.261 -1.581 1.501 0.219 -0.511 3.184 1.533 0.23 -0.251 1.582 3.034 0.48 -1.022 6.307zm-1.281 -30.902l-0.961 -0.171 0.25 -1.562 -1.531 -0.259 -0.251 1.591 0.991 0.14 -0.511 3.153 -2.492 -0.4 -0.491 3.153 1.512 0.251 0.251 -1.582 4.004 0.651 0.25 -1.592 -1.532 -0.23 0.511 -3.143zm3.043 -9.22l1.382 0.23c-0.08,-0.56 -0.16,-1.111 -0.25,-1.661l-0.912 -0.131 -0.23 1.562 0.01 0zm-3.043 9.22l1.501 0.22 0.261 -1.552 1.531 0.22 -0.25 1.592 -1.542 -0.26 -0.48 3.153 3.013 0.48 -0.26 1.592 1.531 0.23 0.511 -3.153 -1.531 -0.23 0.77 -4.735 -4.545 -0.711 -0.51 3.154zm-0.48 -32.405l0.7 0.11c-0.12,-0.581 -0.24,-1.131 -0.34,-1.652l-0.101 -0.019 -0.26 1.561 0.001 0zm-0.281 27.439l-0.26 1.562 1.531 0.25 0.261 -1.591 -1.532 -0.221zm5.556 13.815l0.26 -1.592 -4.545 -0.741 -0.26 1.592 -3.033 -0.48 -0.481 3.153 1.502 0.23 -0.26 1.592 1.531 0.26 -0.51 3.154 3.003 0.48 -0.23 1.562 1.502 0.26 0.26 -1.592 3.004 0.481 0.26 -1.592 1.531 0.26 0.151 -0.941c-0.05,-0.22 -0.101,-0.44 -0.151,-0.66l-1.281 -0.211 0.541 -3.313c-0.221,-1.101 -0.441,-2.223 -0.651,-3.384 -0.07,-0.36 -0.13,-0.731 -0.19,-1.101l-0.461 2.833 -1.502 -0.23 0.01 -0.02zm0.51 6.527l-4.545 -0.741 0.991 -6.297 1.532 0.261 -0.26 1.562 1.501 0.26 -0.48 3.153 1.502 0.26 -0.26 1.562 0.019 -0.02zm-1.241 17.568l-0.26 1.592 -1.501 -0.26 -0.261 1.591 -1.502 -0.26 -0.25 1.592 1.502 0.23 -0.511 3.143 -1.502 -0.22 0.511 -3.153 -3.043 -0.481 0.511 -3.153 -1.532 -0.25 0.51 -3.153 1.502 0.26 0.521 -3.154 -1.512 -0.26 0.26 -1.562 -2.503 -0.39 0.261 -1.592 -1.502 -0.23 -0.26 1.562 0.961 0.17 -0.25 1.562 1.531 0.26 -0.51 3.143 -0.962 -0.17 0.251 -1.562 -1.532 -0.25 -0.25 1.591 0.961 0.141 -1.762 11.041 1.532 0.221 0.51 -3.144 1.512 0.251 -0.521 3.153 1.512 0.22 -0.2 1.302 7.658 0.651 1.622 -10.181 -1.502 -0.251zm1.532 9.821l-0.11 0.74 1.541 0.131 0.101 -0.621 -1.532 -0.25zm-11.613 -30.823l1.532 0.26 0.23 -1.591 0.261 -1.562 -1.512 -0.25 -0.511 3.143zm14.647 31.303l-0.081 0.521 1.522 0.13 0.06 -0.401 -1.501 -0.25zm-9.361 -19.13l-1.511 -0.25 -0.251 1.581 1.502 0.231 0.26 -1.562zm-8.039 -4.505l0.261 -1.591 -1.532 -0.261 -0.511 3.184 1.532 0.22 0.25 -1.552zm-1.271 7.859l1.532 0.25 0.25 -1.582 -1.532 -0.23 -0.25 1.562zm17.169 5.846l-0.261 1.582 1.502 0.23 0.511 -3.154 -1.532 -0.22 -0.22 1.562zm-16.148 -21.853l-0.26 1.591 1.511 0.221 0.511 -3.143 -1.542 -0.231 -0.22 1.562zm15.127 28.149l-0.261 1.592 1.532 0.22 0.48 -3.143 -1.501 -0.23 -0.25 1.561zm-0.741 4.735l-0.511 3.154 1.502 0.23 0.661 -4.034c-0.471,-0.041 -0.971,-0.09 -1.532,-0.131l-0.11 0.791 -0.01 -0.01zm-26.95 -2.863l-0.04 0.281 -2.152 13.384c0.55,0.07 1.051,0.13 1.531,0.19l2.193 -13.744c-0.521,-0.04 -1.032,-0.081 -1.532,-0.12l0 0.009zm12.534 -39.702l1.021 -6.296 -1.531 -0.25 -1.252 7.888 1.532 0.22 0.23 -1.562zm-4.255 46.169l-1.261 8.019c0.48,0.039 0.991,0.08 1.531,0.129l1.262 -7.918 -1.532 -0.23 0 0zm-2.812 -40.833l-1.502 -0.25 -0.26 1.592 -0.25 1.551 1.531 0.26 0.481 -3.153zm13.114 -33.456l-0.261 1.562 3.034 0.481 -0.261 1.592 1.502 0.23 -0.23 1.592 0.961 0.14 -0.511 3.153 -0.961 -0.14 -0.26 1.562 0.961 0.17 -0.26 1.592 1.531 0.23 0.651 -4.174c-0.13,-0.771 -0.27,-1.522 -0.4,-2.252l-0.221 -0.041 0.101 -0.63c-0.28,-1.552 -0.561,-2.984 -0.821,-4.315l-1.552 -0.25 -3.033 -0.481 0.03 -0.021zm-4.545 73.579l-1.502 -0.22 -0.26 1.561 -0.511 3.143 1.542 0.26 0.731 -4.744zm14.926 3.894l-0.25 1.561 -0.761 4.715 1.542 0.1 0.971 -6.146 -1.502 -0.23zm3.784 5.425c0.07,-1.841 0.25,-5.166 0.38,-7.998l-0.64 -0.09 -1.452 9.139 1.532 0.1 0.18 -1.121 0 -0.02 0 -0.01zm-10.872 0.02l0.771 -4.715 -1.532 -0.26 -0.23 1.592 -1.532 -0.261 0.261 -1.562 1.501 0.231 0.261 -1.592 1.531 0.261 0.231 -1.562 1.531 0.23 0.511 -3.153 -1.532 -0.26 0.26 -1.562 1.502 0.26 0.13 -0.811c-1.041,-0.09 -2.182,-0.19 -3.453,-0.29 -1.292,-0.11 -2.713,-0.22 -4.215,-0.341l-0.52 3.374 -1.502 -0.26 -0.261 1.592 1.502 0.23 -0.51 3.173 1.531 0.23 -0.26 1.592 -1.532 -0.26 -0.48 3.153 -4.545 -0.711 -0.23 1.432c0,0 0.08,0 0.12,0.009l9.1 0.571 0.09 -0.571 1.502 0.231 -0.001 0.01zm3.795 -4.364l-0.481 3.173 1.501 0.23 0.741 -4.745 -1.501 -0.22 -0.26 1.562zm-15.888 -23.415l-1.502 -0.23 -0.26 1.561 -0.76 4.746 1.531 0.22 0.991 -6.297zm-0.25 -8.118l-1.512 -0.221 -0.25 1.552 1.502 0.26 0.26 -1.591zm-4.805 0.85l1.541 0.261 0.251 -1.592 0.23 -1.562 -1.512 -0.25 -0.51 3.143zm5.566 -5.586l0.26 -1.561 -1.542 -0.231 -0.48 3.124 1.511 0.26 0.251 -1.592zm1.251 -7.858l0.25 -1.592 -1.501 -0.23 -0.511 3.153 1.502 0.231 0.26 -1.562zm-4.825 -18.53l-1.502 -0.26 -0.26 1.592 1.532 0.23 0.23 -1.562zm200.568 41.224l0.23 1.592 1.501 -0.201 -0.2 -1.582 -1.531 0.191zm9.68 14.705l0.2 1.582 0.42 3.184 1.532 -0.23 -0.62 -4.736 -1.532 0.2zm6.918 5.526l1.511 -0.189 -0.2 -1.593 -1.051 -7.888 -1.502 0.201 1.242 9.469zm-13.565 -20.622l-0.19 -1.591 -1.532 0.23 0.22 1.561 1.502 -0.2zm10.161 6.577l-1.532 0.231 0.851 6.296 1.501 -0.2 -0.189 -1.551 -0.631 -4.776zm-0.481 8.119l0.2 1.592 1.101 8.359c0.481,-0.07 0.991,-0.13 1.532,-0.21l-1.301 -9.941 -1.532 0.2 0 0zm-7.658 -23.014l-0.23 -1.562 -1.502 0.201 0.2 1.561 1.532 -0.2zm-0.631 -4.735l-1.531 0.2 0.2 1.581 1.531 -0.19 -0.2 -1.591zm-12.423 30.592l1.161 8.83 1.532 -0.091 -1.161 -8.939 -1.532 0.2zm13.905 -66.32l1.051 -0.14c-0.24,-0.501 -0.481,-1.001 -0.721,-1.491l-0.53 0.07 0.2 1.562 0 -0.001zm-3.894 -5.926l0.65 4.765 1.502 -0.201 -0.691 -5.345c-0.19,-0.31 -0.38,-0.621 -0.57,-0.932l-1.091 0.141 0.2 1.561 0 0.011zm8.149 61.715l-1.532 0.2 0.23 1.562 0.39 3.173 1.532 -0.2 -0.62 -4.735zm6.837 16.798l0.06 0.47c0.501,-0.039 1.031,-0.09 1.542,-0.15l-0.07 -0.54 -1.532 0.23 0 -0.01zm-15.837 -38.05l0.23 1.581 1.502 -0.19 -0.201 -1.592 -1.531 0.201zm-15.487 -4.375l0.22 1.562 1.512 -0.201 -0.401 -3.143 -1.531 0.191 0.2 1.591zm-0.911 6.897l0.06 0.481 0.19 -0.031 -0.05 -0.48 -0.2 0.03zm2.012 -10.271l-0.2 -1.592 -1.532 0.201 0.23 1.591 1.502 -0.2zm11.443 32.295l-1.512 0.2 0.2 1.581 1.532 -0.2 -0.22 -1.581zm-0.291 -25.718l1.502 -0.2 -0.2 -1.592 3.033 -0.4 -0.2 -1.592 1.502 -0.2 -0.2 -1.592 -1.532 0.231 -0.821 -6.327 1.532 -0.23 -0.431 -3.154 -1.532 0.2 0.231 1.592 -1.532 0.2 0.431 3.153 -1.532 0.201 -0.2 -1.562 -4.565 0.601 0.23 1.591 -3.063 0.401 0.431 3.153 1.531 -0.2 0.201 1.591 1.531 -0.2 0.4 3.154 3.034 -0.401 0.23 1.592 -0.011 -0.01zm-2.783 -9.28l1.532 -0.2 0.2 1.562 1.531 -0.2 0.401 3.173 1.531 -0.2 0.2 1.562 -4.564 0.601 -0.822 -6.297 -0.009 -0.001zm0.661 40.133l0.19 1.582 0.431 3.153 1.531 -0.2 -0.62 -4.735 -1.532 0.2zm-10.812 -27.559l-0.2 -1.561 -0.2 -1.582 -1.532 0.2 0.42 3.173 1.512 -0.23zm-2.613 3.574l-0.2 -1.582 -1.531 0.22 0.42 3.153 1.512 -0.2 -0.201 -1.591zm10.382 -57.681l-0.151 -1.211c-0.601,-0.431 -1.151,-0.911 -1.722,-1.342l0.371 2.753 1.502 -0.2 0 0zm16.778 68.472l-1.532 0.19 0.22 1.592 0.201 1.591 1.531 -0.2 -0.42 -3.173zm-27.5 10.181l0.2 1.592 1.712 12.923 1.532 -0.09 -1.912 -14.625 -1.532 0.2zm5.215 -61.826l-0.96 0.11 0.2 1.592 0.961 -0.14 0.23 1.592 1.502 -0.2 -0.621 -4.735 1.532 -0.201 0.4 3.153 1.532 -0.2 -0.621 -4.735 -4.004 0.541 -0.27 -2.082c-0.08,0.34 -0.16,0.671 -0.24,1.031 -0.08,0.361 -0.16,0.75 -0.231,1.131l0.18 -0.03 0.431 3.174 -0.021 -0.001zm9.851 63.047l-0.2 -1.562 -1.531 0.201 0.23 1.561 1.501 -0.2zm-11.723 -57.971l-0.07 -0.561c-0.11,0.731 -0.22,1.462 -0.33,2.203l0.601 -0.081 -0.2 -1.561 -0.001 0zm-2.432 16.687c-0.06,0.461 -0.13,0.911 -0.19,1.352l0.36 -0.05 -0.16 -1.302 -0.01 0zm1.021 7.629l-0.23 -1.592 -0.201 -1.592 -1.291 0.17c-0.05,0.27 -0.09,0.521 -0.14,0.781l0.33 2.433 1.532 -0.2zm1.361 -13.055l-0.2 -1.591 -1.261 0.16c-0.05,0.36 -0.09,0.721 -0.14,1.081l0.07 0.541 1.531 -0.2 0 0.009zm20.823 56.781l-0.2 -1.562 1.532 -0.2 -0.621 -4.765 -1.531 0.2 0.2 1.592 -1.502 0.2 -0.2 -1.592 1.502 -0.2 -0.201 -1.562 1.502 -0.2 -0.2 -1.592 1.532 -0.2 -0.431 -3.173 -1.532 0.2 -0.2 -1.562 1.532 -0.2 -1.472 -11.092 -1.531 0.2 0.23 1.592 -1.531 0.2 0.23 1.592 -1.532 0.2 0.201 1.592 1.531 -0.2 0.431 3.153 -1.532 0.2 -0.43 -3.153 -3.034 0.4 -0.4 -3.173 -1.532 0.2 -0.43 -3.153 1.531 -0.2 -0.43 -3.153 -1.502 0.2 -0.23 -1.592 -2.473 0.31 -0.23 -1.562 -1.502 0.2 0.2 1.562 0.961 -0.11 0.231 1.592 1.501 -0.2 0.431 3.153 -0.961 0.11 -0.231 -1.562 -1.501 0.2 0.2 1.592 0.961 -0.14 1.471 11.072 1.502 -0.2 -0.4 -3.153 1.502 -0.2 0.43 3.153 1.502 -0.201 0.62 4.735 -1.501 0.201 0.2 1.591 1.531 -0.2 0.401 3.173 1.531 -0.2 0.2 1.562 -1.501 0.2 0.4 3.174 -4.545 0.6 0.361 2.773 2.562 -0.16c4.445,-0.471 6.577,-0.5 9.691,-0.79l-0.24 -1.853 -3.063 0.401 0.009 -0.02zm-5.045 -26.669l4.565 -0.62 -0.421 -3.153 -1.542 0.2 -0.19 -1.592 -1.511 0.2 -0.221 -1.561 1.532 -0.2 -0.23 -1.593 -1.502 0.201 -3.033 0.4 -0.631 -4.745 -3.033 0.401 -0.23 -1.592 -1.502 0.2 0.2 1.592 -1.531 0.2 0.42 3.173 1.532 -0.19 -0.191 -1.591 1.502 -0.2 0.42 3.153 1.512 -0.201 0.221 1.582 3.033 -0.39 0.831 6.326zm-16.658 10.241l0.22 1.562 2.302 17.399 1.502 -0.2 -2.493 -18.981 -1.531 0.22zm13.594 -45.258l1.532 -0.2 -0.43 -3.153 -1.532 0.2 -0.2 -1.582 -1.502 0.191 0.621 4.745 -1.532 0.2 0.2 1.582 3.033 -0.391 -0.19 -1.592zm-5.656 3.975l1.512 -0.2 0.2 1.591 -1.512 0.201 0.431 3.143 3.033 -0.39 0.2 1.581 1.532 -0.2 -0.42 -3.173 -1.542 0.2 -0.621 -4.745 -4.535 0.6 0.391 3.173 1.531 -0.189 -0.2 -1.592zm7.408 32.825l1.512 -0.191 -0.2 -1.592 -1.532 0.201 0.22 1.582zm-10.381 -24.396l-0.23 -1.562 4.034 -0.541 -0.2 -1.591 -1.532 0.2 -0.43 -3.154 -0.961 0.121 -0.2 -1.562 -1.532 0.201 0.2 1.581 0.991 -0.14 0.401 3.153 -2.473 0.34 0.4 3.154 1.532 -0.2zm-2.953 24.546l0.2 1.581 0.621 4.745 1.531 -0.2 -0.85 -6.327 -1.502 0.201zm-1.051 -7.919l-1.532 0.201 0.23 1.581 1.502 -0.19 -0.2 -1.592zm11.632 -48.211l1.532 -0.2 -0.421 -3.153 -1.501 0.2 0.19 1.592 0.2 1.561zm-2.603 3.574l-0.2 -1.592 1.502 -0.2 -0.821 -6.327 -1.532 0.201 0.221 1.592 0.4 3.143 -1.501 0.23 0.39 3.153 1.541 -0.2zm-5.506 16.828l0.191 1.561 1.541 -0.2 -0.23 -1.561 -1.502 0.2zm2.634 51.134l1.531 -0.2 -0.2 -1.592 -0.851 -6.327 -1.502 0.2 1.022 7.919zm-2.273 -17.398l1.511 -0.201 -0.2 -1.581 -1.531 0.2 0.22 1.582zm25.207 7.838l1.532 -0.2 -0.231 -1.592 -0.82 -6.327 -1.502 0.201 1.021 7.918zm-24.176 0.08l1.532 -0.2 -0.231 -1.582 -0.4 -3.183 -1.532 0.2 0.631 4.765zm-0.29 -25.708l-0.22 -1.591 -1.512 0.2 0.43 3.154 1.502 -0.201 -0.2 -1.562zm21.963 6.638l1.532 -0.2 -0.22 -1.583 -0.2 -1.591 -1.532 0.2 0.42 3.174zm-14.755 5.275l-1.532 0.2 0.2 1.592 1.532 -0.2 -0.2 -1.592zm13.935 -11.602l1.501 -0.2 -0.2 -1.582 -1.532 0.19 0.231 1.592zm-18.331 -21.623l-0.2 -1.561 -1.501 0.2 0.2 1.561 1.501 -0.2zm17.71 16.858l1.502 -0.2 -0.201 -1.562 -1.531 0.2 0.23 1.562zm2.072 15.837l1.532 -0.201 -0.23 -1.591 -1.502 0.2 0.2 1.592zm-1.712 34.016l0.06 0.42c0.481,-0.05 0.991,-0.11 1.532,-0.18l-0.06 -0.441 -1.532 0.201zm0.521 -54.788l-0.201 -1.562 -1.531 0.2 0.22 1.552 1.512 -0.19zm-6.017 -10.471l-0.2 -1.562 -1.531 0.2 0.22 1.562 1.511 -0.2zm-18.48 31.523l1.502 -0.2 -0.19 -1.592 -0.231 -1.582 -1.501 0.19 0.42 3.184zm15.437 -31.133l-0.2 -1.562 -1.532 0.2 0.2 1.563 1.532 -0.201zm2.503 18.99l1.531 -0.2 -0.23 -1.592 -0.621 -4.735 -1.501 0.2 0.821 6.327zm6.016 10.471l-0.2 -1.561 -0.23 -1.592 -1.502 0.2 0.421 3.153 1.511 -0.2zm-4.434 -21.933l1.511 -0.2 -0.631 -4.745 -1.501 0.2 0.2 1.561 0.421 3.184zm0.91 30.442l0.231 1.592 1.501 -0.2 -0.4 -3.174 -1.532 0.19 0.2 1.592z"/>
   </g>
  </g>
  <path fill="none" d="M207.298 27.894c-0.11,-0.063 -0.222,-0.122 -0.337,-0.177 -4.975,-2.38 -9.714,-5.334 -14.858,-7.149 -4.647,-1.639 -11.454,-2.699 -17.288,-4.719 -2.277,-0.789 -4.556,-1.589 -6.82,-2.415l-0.004 -0.03 -9.999 -4.08 -0.175 -0.072c-0.614,-0.28 -1.553,-1.207 -2.512,-1.889 -0.494,-0.369 -0.613,-0.563 -1.038,-0.905 -2.856,-2.299 -5.606,-5.635 -9.574,-5.641 -0.901,-0.002 -1.04,-0.123 -1.779,-0.163l-7.601 -0.17c-5.892,-0.486 -12.055,-0.501 -18.06,-0.477 -5.087,0.02 -9.557,0.063 -14.567,0.477 -2.529,0.209 -4.996,0.029 -7.6,0.17 -0.739,0.04 -0.878,0.161 -1.779,0.163 -3.968,0.006 -6.718,3.342 -9.575,5.641 -0.424,0.342 -0.543,0.536 -1.037,0.905 -0.741,0.527 -1.471,1.2 -2.047,1.608 -0.17,0.121 -0.326,0.218 -0.465,0.281l-10.174 4.152 -0.003 0.03c-2.265,0.826 -4.544,1.626 -6.821,2.415 -5.834,2.02 -12.641,3.08 -17.288,4.719 -5.144,1.815 -9.883,4.769 -14.858,7.149 -0.212,0.101 -0.412,0.215 -0.605,0.339 -0.909,0.583 -1.664,1.379 -2.651,2.001 -11.263,7.099 -18.243,27.467 -21.401,39.215 -1.569,5.839 -1.98,12.983 -2.969,19.04 -0.5,3.067 -1.172,6.193 -1.752,9.253 -0.585,3.095 -0.872,6.493 -1.288,9.631 -0.406,0.268 -0.327,-0.023 -0.308,0.899l-0.065 1.854 0 8.783c0.041,1.018 0.102,1.813 0.186,2.164 1.125,0.477 3.706,0.514 5.07,0.712 7.662,1.114 9.041,0.828 15.791,1.554l21.547 1.349c-0.015,-1.623 0.547,-10.725 0.578,-13.424l-0.603 -0.316 -0.07 -0.036c0,-4.476 -0.011,-9.226 -0.011,-13.7 1.678,4.247 3.328,18.944 3.789,24.023 0.735,8.116 1.826,16.186 2.512,24.347 0.348,4.137 0.874,8.269 1.009,12.419l0.653 12.776c0.396,4.199 0.208,8.934 0.274,13.179 0.032,2.062 0.194,4.007 0.186,6.13 -0.007,2.226 -0.172,4.349 -0.196,6.512 -0.051,4.469 -0.054,8.634 -0.319,13.111 -0.68,11.475 -1.257,26.076 -3.267,37.02 -0.966,5.407 -2.177,11.944 -2.754,17.389 -0.258,2.432 -0.827,10.057 -1.468,11.951 -0.68,2.01 -0.163,3.658 -0.568,5.77 -0.342,1.785 -0.742,3.812 -1.164,5.568 -0.463,1.93 -1.435,3.647 0.397,4.966 4.276,1.054 8.552,2.108 13.913,3.017 5.36,0.909 11.804,1.672 18.03,2.048 6.226,0.375 12.232,0.363 21.568,0.476 9.335,0.112 21.999,0.351 32.523,0.382 10.525,0.032 18.909,-0.144 26.242,-0.419 7.333,-0.275 13.615,-0.65 19.058,-1.151 5.443,-0.501 10.048,-1.126 13.829,-1.873 3.78,-0.746 6.736,-1.613 9.693,-2.48 1.832,-1.319 0.86,-3.036 0.397,-4.966 -0.422,-1.756 -0.822,-3.783 -1.164,-5.568 -0.405,-2.112 0.112,-3.76 -0.568,-5.77 -0.641,-1.894 -1.21,-9.519 -1.468,-11.951 -0.577,-5.445 -1.788,-11.982 -2.754,-17.389 -2.01,-10.944 -2.587,-25.545 -3.267,-37.02 -0.265,-4.477 -0.268,-8.642 -0.319,-13.111 -0.024,-2.163 -0.189,-4.286 -0.196,-6.512 -0.008,-2.123 0.154,-4.068 0.186,-6.13 0.066,-4.245 -0.122,-8.98 0.274,-13.179l0.653 -12.776c0.135,-4.15 0.661,-8.282 1.009,-12.419 0.686,-8.161 1.777,-16.231 2.512,-24.347 0.461,-5.079 1.889,-19.043 3.568,-23.29 0,4.474 -0.105,8.584 -0.105,13.06l0 0 -0.416 0.247c-0.004,0.882 0.338,12.091 0.604,13.423l21.579 -1.336c6.75,-0.726 8.129,-0.44 15.791,-1.554 1.364,-0.198 3.945,-0.235 5.07,-0.712 0.084,-0.351 0.145,-1.146 0.186,-2.164l0 -8.783 -0.065 -1.854c0.014,-0.687 0.062,-0.7 -0.083,-0.774 -0.05,-0.025 -0.122,-0.057 -0.225,-0.125 -0.416,-3.138 -0.703,-6.536 -1.288,-9.631 -0.58,-3.06 -1.252,-6.186 -1.752,-9.253 -0.989,-6.057 -1.4,-13.201 -2.969,-19.04 -3.158,-11.748 -10.138,-32.116 -21.401,-39.215 -1.057,-0.665 -1.895,-1.576 -2.919,-2.163z"/>
 </g>
</svg>
