<?xml version="1.0" encoding="utf-8"?>
<!-- Generator: Adobe Illustrator 16.0.3, SVG Export Plug-In . SVG Version: 6.00 Build 0)  -->
<!DOCTYPE svg PUBLIC "-//W3C//DTD SVG 1.1//EN" "http://www.w3.org/Graphics/SVG/1.1/DTD/svg11.dtd">
<svg version="1.1" id="Layer_1" xmlns="http://www.w3.org/2000/svg" xmlns:xlink="http://www.w3.org/1999/xlink" x="0px" y="0px"
	 width="187px" height="147.488px" viewBox="0 0 187 147.488" enable-background="new 0 0 187 147.488" xml:space="preserve">
<g id="Camada_x0020_1">
	<path id="d3" fill="#ED1C24" d="M186.631,119.109v-1.194h-0.137v-5.277h-0.543v6.239h-0.309v3.659v-3.027H185.1v-9.45h-0.545v6.199
		h-0.229v-9.452h-0.543v12.703h-0.096v-9.45h-0.543v9.888h-0.014v-10.412h-0.543v10.33h-0.543v2.849h-0.174v-2.767h-0.543v-2.031
		h-0.541v1.176h-0.178v-9.032h-0.543v11.106h-0.307v-1.656h-0.096v-6.725h-0.791v3.132h-0.434v4.157h-0.092v-0.564h-0.096v-6.725
		h-0.775v8.381h-0.207v-0.695h-0.545v-4.554h-0.115v-3.132h-0.543v8.381h-0.391v1.176h-0.123v-12.953h-0.543v3.46h-0.543v8.317
		h-0.203v1.176h-0.393v-3.174h-0.543v4.158h-0.033v-1.762h-0.287v-2.396h-0.543v0.122h-0.004v-0.122h-0.545v4.158h-0.078v-10.688
		h-0.545v3.46h-0.543v1.125h-0.256v3.713h-0.053v-10.877h-0.543v6.039h-0.545v3.704v-0.708h-0.031v3.938v-1.742h-0.291v-11.231
		h-0.543v6.039h-0.543v3.704v-0.708h-0.305v-0.045v3.491h-0.32v-2.066h-0.346v-0.085h-0.543v-1.382h-0.543v1.467h-0.508v-2.007
		h-0.23v-4.948h-0.543v-6.713h-0.545v13.668h-0.092v-2.007h-0.303v2.007h-0.543v1.399h-0.209v-5.579h-0.543v5.964h-0.117v-1.784
		h-0.543v3.166h-0.277v-6.869h-0.404v-5.239h-0.141v-1.473h-0.543v13.581h-0.309v-6.869h-0.533v-3.986h-0.555v6.761h-0.293v-0.715
		h-0.029v1.644v-3.703h-0.438v-5.604h-0.543v1.618h-0.107v6.761h-0.227v-4.763h-0.543v5.758h-0.334v-7.692h-0.545v1.935h-0.514
		v6.764h-0.221v2.213h-0.543v-11.496h-0.543v2.154h-0.143v7.129h-0.506v0.535h-0.158v1.71h-0.15v-8.458h-0.035v-0.916h-0.543v1.681
		h-0.359v2.547h-0.148v3.437h-0.16v1.71h-0.199v-9.374h-0.543v1.681H150.9v-0.583h-0.545v8.168h-0.148v0.108h-0.293v-7.693h-0.373
		v-9.292h-0.545v8.709h-0.035v3.068h-0.105v4.367h-0.402v-4.514v2.853h-0.359v-5.774h-0.543v3.068h-0.09v4.13h-0.428v0.91h-0.332
		v-5.952h-0.545v0.912h-0.105v4.13h-0.227v-12.654h-0.543v3.19h-0.336v6.54h-0.516v-5.795h-0.545v6.487h-0.543v0.672h-0.15v1.191
		v-2.013h-0.174v-6.338h-0.369v-0.671h-0.545v10.53v-3.372h-0.174v0.672h-0.156V116.5h-0.545v0.659h-0.469v1.426h-0.381V116.5
		h-0.545v4.422h-0.201v2.12h-0.277v-2.71h-0.389V116.5h-0.543v0.073h-0.035v4.773h-0.121v1.695h-0.387v0.542h-0.295v-3.175h-0.049
		v-3.836h-0.543v-0.315h-0.543v-8.243h-0.545v8.559h-0.322v5.263h-0.406v-0.876h-0.396v-0.551h-0.148v-3.713h-0.543v5.14h-0.395
		v-3.411v0.452h-0.279v2.782v-2.198h-0.545v-1.546h-0.137v-6.65h-0.543v7.612h-0.309v3.659v-3.027h-0.543v-5.515h-0.545v2.264
		h-0.229v-9.452h-0.543v12.703h-0.096v-5.515h-0.543v5.952h-0.012v-10.412h-0.545v10.33h-0.543v2.849h-0.174v-2.767h-0.543v-2.031
		h-0.543v1.176h-0.174v-9.032h-0.545v11.106h-0.309v-1.656h-0.342v-6.725h-0.201v-2.726h-0.543v5.857h-0.232v4.157h-0.092v-0.564
		h-0.328v-6.725h-0.215v-2.726h-0.543v10.411h-0.537v-4.554h-0.115v-3.132h-0.543v8.381h-0.393v1.176h-0.121v-15.339h-0.543v5.846
		h-0.543v8.317h-0.203v1.176h-0.393v-3.174h-0.543v4.158h-0.031v-1.762h-0.289v-2.396h-0.543v0.122h-0.004v-0.122h-0.545v4.158
		h-0.078v-13.073h-0.545v5.846h-0.543v1.125h-0.258v3.713h-0.051v-10.877h-0.543v6.039h-0.543v3.704v-0.708h-0.033v3.938v-1.742
		h-0.291v-11.231h-0.543v6.039h-0.545v3.704v-0.708h-0.303v-0.045v3.491h-0.32v-2.066h-0.344v-0.085h-0.545v-1.382h-0.543v1.467
		h-0.506v-2.007h-0.232v-4.948h-0.545v-7.77h-0.543v14.725h-0.092v-2.007h-0.303v2.007h-0.543v0.096l0.057,0.182
		c0.949,2.92,2.297,13.045,3.168,16.912c1.035,4.602,0.162,5.569,7.43,7.421c6.652,1.694,15.705,1.21,22.154,1.97
		c4.115,0.486,19.475,0.632,23.482,0.086c3.422-0.464,6.822-0.809,10.133-1.574c4.369-1.01,9.014-2.873,10.068-7.855
		c0.301-1.42,0.389-3.822,0.52-5.467c0.07-0.896,0.008-2.075,0.004-3c-0.004-1.329,0.201-1.727,0.203-2.994
		C186.588,123.827,186.605,121.458,186.631,119.109z M109.158,119.853v-3.559h-0.545v1.281
		C108.793,118.405,108.977,119.185,109.158,119.853z M107.131,109.731v-0.73h-0.176
		C107.018,109.241,107.078,109.483,107.131,109.731z M79.525,111.626v-2.625h-0.544v5.611
		C79.181,113.556,79.365,112.523,79.525,111.626z M78.692,116.098h-0.255v1.235C78.524,116.931,78.609,116.517,78.692,116.098z
		 M78.206,118.384v-1.161h-0.092v-8.222H77.57v7.097h-0.544v6.875c0.194-0.925,0.379-1.691,0.551-2.222
		C77.782,120.118,77.995,119.3,78.206,118.384z M76.957,123.31h-0.209v-2.836H76.49v-1.467h-0.543v2.021h-0.544v2.281h-0.051v-2.836
		h-0.544v-2.007h-0.319v2.007h-0.257v-6.955h-0.543v-6.713h-0.544v15.08v-3.419h-0.051v2.007H72.55v1.784h-0.032v-6.341h-0.544
		v4.156h-0.544v0.4H71.14v1.784h-0.304v-3.699h-0.033v3.863v-1.952h-0.288v-3.699h-0.256v-0.854h-0.287v-5.858h-0.544v12.199h-0.004
		v-3.699h-0.303v1.915v-3.703h-0.543v-3.639h-0.545v6.329h-0.121v-1.546H67.71v-1.145h-0.544v-3.639h-0.543v7.055h-0.081v-1.02
		H66.11v-9.779h-0.543v9.779h-0.115v4.158h-0.304v-4.158h-0.231v-12.361h-0.544v8.781h-0.544v5.578h-0.091v-1.998h-0.544v3.546
		h-0.392v-1.548h-0.19v-3.25h-0.217v-5.277h-0.544v6.454h-0.327v3.621h-0.133v-1.548H61.2v-11.106h-0.544v2.579h-0.201v4.059h-0.149
		v2.141h-0.194v1.752h-0.307v-10.53h-0.544v2.579h-0.217v6.199h-0.013v-8.093h-0.544v4.843h-0.094v-5.528h-0.543v8.778h-0.544v2.328
		h-0.175v-1.219H56.59v1.734h-0.462v-1.349h-0.389v-0.386h-0.423v-5.952h-0.544v4.843h-0.543v0.217H54.18v-1.895H53.92v-3.165
		h-0.543v4.843h-0.543v-5.661h-0.544v0.818h-0.324v4.843h-0.544v3.027v-2.652h-0.406v4.372h-0.01v-1.28h-0.469v-2.045h-0.544v-7.01
		H49.45v9.055h-0.332v-5.877h-0.543v1.244h-0.335v5.279h-0.038v-0.646h-0.478v-5.877h-0.544v3.982h-0.066v2.56h-0.477v0.542h-0.325
		v-7.084h-0.37v-5.683h-0.543v12.225h-0.173v0.542h-0.159v-2.589h-0.185V116.5h-0.544v7.599h-0.15v-4.221h-0.544v1.044h-0.173V116.5
		h-0.543v3.981h-0.017v-1.422h-0.543v-3.313h-0.142v-1.753h-0.544v6.487h-0.508v0.672h-0.307v-9.222h-0.036v-1.873h-0.543v13.069
		h-0.359v0.3h-0.15v-2.274H39.42v-11.095h-0.543v2.457h-0.375v6.483h-0.394v1.209h-0.15v1.422h-0.291v1.498h-0.375v-11.962h-0.543
		v4.017h-0.142v8.834h-0.402v-4.762v1.704h-0.142v1.353h-0.217v-3.313h-0.09v-3.816h-0.544v0.585h-0.426v7.69H34.45v-11.927h-0.543
		v3.651H33.8v0.585h-0.226v-1.351h-0.544v9.041h-0.184v-1.912h-0.281v-5.252h-0.043v-0.526H32.18v-1.351h-0.544v7.082h-0.158v1.959
		h-0.042v-1.912h-0.343v0.535h-0.217v-13.494h-0.556v4.261h-0.532v8.698h-0.106v0.535H29.34v-7.299h-0.544v4.225h-0.29v0.538h-0.201
		v0.513h-0.343v1.964v-2.991h-0.034v-4.248h-0.544v4.763h-0.226v-7.706h-0.555v4.259h-0.532v4.838h-0.029v-1.391h-0.279v-9.486
		h-0.543v6.039h-0.544v5.192h-0.231v-4.067h-0.092v-7.164H23.81v6.039h-0.542v7.212h-0.281v-2.836H22.73v-1.467h-0.543v2.021h-0.544
		v2.281h-0.051v-2.836h-0.544v-2.007h-0.319v2.007h-0.257v-6.955h-0.543v-6.713h-0.544v15.08v-3.419h-0.051v2.007h-0.544v1.784
		h-0.033v-6.341h-0.544v4.156h-0.543v0.4H17.38v1.784h-0.304v-3.699h-0.033v3.863v-1.952h-0.288v-3.699H16.5v-0.854h-0.287v-5.858
		h-0.543v12.199h-0.004v-3.699h-0.303v1.915v-3.703h-0.544v-4.133h-0.543v6.823h-0.121v-1.546h-0.203v-1.145h-0.543v-4.133h-0.543
		v7.549h-0.081v-1.02h-0.432v-9.779h-0.544v9.779h-0.115v4.158h-0.304v-4.158h-0.543v3.546H10.72v-14.126h-0.556v7h-0.095v5.578
		H9.978v-1.998H9.434v3.546H9.042v-1.548h-0.19v-3.25H8.634v-5.277H8.091v6.454H7.764v3.621H7.632v-1.548H7.24v-8.527H7.003v-0.799
		H6.448v6.998H6.353v1.752H6.045v-10.53H5.501v2.579H5.286v6.199H5.272v-12.031H4.728v8.781H4.634v-5.528H4.09v8.778H3.548v2.328
		H3.373v-1.219H2.83v1.734H2.368v-1.349H1.979v-0.386H1.556v-9.888H1.012v8.778H0.469v0.217H0.42v-1.895H0.345
		c0.035,2.989,0.066,5.997,0.07,9.09c0.002,1.268,0.208,1.665,0.203,2.994c-0.004,0.925-0.065,2.104,0.005,3
		c0.13,1.645,0.218,4.047,0.519,5.467c1.055,4.982,5.7,6.846,10.069,7.855c3.31,0.766,6.71,1.11,10.133,1.574
		c4.008,0.546,19.367,0.4,23.482-0.086c6.449-0.76,15.501-0.275,22.153-1.97c7.269-1.852,6.396-2.819,7.432-7.421
		C75.103,134.581,76.101,127.526,76.957,123.31z"/>
</g>
</svg>
