<?xml version="1.0" encoding="utf-8"?>
<!-- Generator: Adobe Illustrator 16.0.3, SVG Export Plug-In . SVG Version: 6.00 Build 0)  -->
<!DOCTYPE svg PUBLIC "-//W3C//DTD SVG 1.1//EN" "http://www.w3.org/Graphics/SVG/1.1/DTD/svg11.dtd">
<svg version="1.1"
	 id="Layer_1" shape-rendering="geometricPrecision" text-rendering="geometricPrecision" image-rendering="optimizeQuality" xmlns:xodm="http://www.corel.com/coreldraw/odm/2003"
	 xmlns="http://www.w3.org/2000/svg" xmlns:xlink="http://www.w3.org/1999/xlink" x="0px" y="0px" width="187px" height="148px"
	 viewBox="0 0 187 148" enable-background="new 0 0 187 148" xml:space="preserve">
<linearGradient id="SVGID_1_" gradientUnits="userSpaceOnUse" x1="85.1606" y1="123.7881" x2="85.1606" y2="-23.6997" gradientTransform="matrix(1 0 0 -1 8.3398 124.04)">
	<stop  offset="0.3" style="stop-color:#F00808"/>
	<stop  offset="1" style="stop-color:#F00808;stop-opacity:0.2"/>
</linearGradient>
<path fill="url(#SVGID_1_)" d="M69.623,5.785c-9.32-0.113-15.317-0.1-21.532-0.475C41.876,4.935,35.442,4.173,30.09,3.266
	c-5.351-0.908-9.62-1.96-13.89-3.013l-2.056,6.766c-2.101,6.05-3.233,10.386-4.916,16.285c-0.249,0.873-0.435,1.453-0.642,2.333
	c-2.36,10.025-4.55,19.989-6.162,30.214c-0.554,3.516-0.787,7.435-1.226,10.942L0.762,72.55c-0.045,1.83-0.234,3.899-0.37,5.626
	c-0.078,0.987,0.009,2.192-0.003,3.205c-0.013,1.158-0.208,1.512-0.203,2.794c0.009,2.038,0.069,4.202,0.011,6.228
	C0.169,91.414,0.016,91.977,0,93.124l0.192,9.099c-0.03,8.305,0.172,15.985,0.183,24.269c0.002,1.268,0.207,1.666,0.202,2.995
	c-0.004,0.926-0.065,2.104,0.005,3.002c0.131,1.646,0.218,4.048,0.519,5.47c1.056,4.983,5.703,6.849,10.073,7.858
	c3.312,0.767,6.714,1.109,10.138,1.576c4.01,0.545,19.376,0.398,23.493-0.086c6.45-0.762,15.507-0.276,22.162-1.973
	c7.272-1.854,6.398-2.822,7.435-7.425c0.87-3.868,2.219-13.998,3.169-16.919c0.807-2.484,1.721-7.868,2.195-10.523
	c0.344-1.99,1.133-3.679,1.718-5.613c1.344-4.439,1.694-7.625,2.92-12.168c0.377-1.397,0.722-2.381,1.102-3.854
	c0.997-3.864,2.19-8.249,2.968-12.117c0.575-2.856,1.095-5.36,1.653-8.289l2.191-12.734c0.189-0.998,0.23-2.248,1.182-2.596
	c0.953,0.348,0.994,1.598,1.182,2.596l2.19,12.734c0.56,2.929,1.078,5.433,1.651,8.289c0.779,3.868,1.974,8.253,2.97,12.117
	c0.379,1.475,0.725,2.456,1.103,3.854c1.227,4.543,1.575,7.729,2.92,12.168c0.584,1.936,1.375,3.623,1.719,5.613
	c0.473,2.653,1.389,8.041,2.195,10.523c0.948,2.921,2.299,13.051,3.168,16.919c1.037,4.603,0.164,5.571,7.436,7.425
	c6.654,1.695,15.711,1.211,22.162,1.973c4.117,0.484,19.482,0.631,23.492,0.086c3.426-0.467,6.828-0.811,10.139-1.576
	c4.371-1.01,9.018-2.875,10.074-7.858c0.301-1.422,0.388-3.824,0.519-5.47c0.069-0.897,0.009-2.076,0.005-3.002
	c-0.005-1.329,0.2-1.729,0.202-2.995c0.011-8.282,0.213-15.964,0.183-24.269L187,93.459l-0.195-3.059
	c-0.059-2.023,0.002-4.188,0.01-6.227c0.004-1.281-0.188-1.636-0.203-2.794c-0.012-1.013,0.076-2.218-0.002-3.205
	c-0.137-1.727-0.324-3.796-0.371-5.626l-0.436-5.757c-0.439-3.507-0.671-7.426-1.225-10.942
	c-1.612-10.225-3.803-20.189-6.162-30.214c-0.207-0.88-0.395-1.46-0.643-2.333c-1.684-5.899-2.814-10.235-4.916-16.285L170.8,0.252
	c-2.95,0.866-5.901,1.731-9.677,2.477c-3.773,0.745-8.371,1.369-13.807,1.869c-5.435,0.5-11.707,0.875-19.026,1.15
	c-7.32,0.274-15.69,0.449-26.198,0.418C91.585,6.136,78.942,5.897,69.623,5.785z"/>
</svg>
