<?xml version="1.0" encoding="UTF-8"?>
<!DOCTYPE svg PUBLIC "-//W3C//DTD SVG 1.1//EN" "http://www.w3.org/Graphics/SVG/1.1/DTD/svg11.dtd">
<!-- Creator: CorelDRAW -->
<svg xmlns="http://www.w3.org/2000/svg" xml:space="preserve" width="187px" height="148px" version="1.1" shape-rendering="geometricPrecision" text-rendering="geometricPrecision" image-rendering="optimizeQuality" fill-rule="evenodd" clip-rule="evenodd"
viewBox="0 0 186.999 147.486"
 xmlns:xlink="http://www.w3.org/1999/xlink"
 xmlns:xodm="http://www.corel.com/coreldraw/odm/2003">
 <defs>
   <clipPath id="id0">
    <path d="M69.622 5.532c-9.32,-0.113 -15.317,-0.1 -21.532,-0.475 -6.215,-0.375 -12.649,-1.137 -18.001,-2.044 -5.351,-0.908 -9.62,-1.96 -13.89,-3.013l-2.056 6.766c-2.101,6.05 -3.233,10.386 -4.916,16.285 -0.249,0.873 -0.435,1.453 -0.642,2.333 -2.36,10.025 -4.55,19.989 -6.162,30.214 -0.554,3.516 -0.787,7.435 -1.226,10.942l-0.435 5.757c-0.045,1.83 -0.234,3.899 -0.37,5.626 -0.078,0.987 0.009,2.192 -0.003,3.205 -0.013,1.158 -0.208,1.511 -0.203,2.794 0.009,2.038 0.069,4.202 0.011,6.226 -0.028,1.013 -0.181,1.575 -0.197,2.723l0.192 9.099c-0.03,8.303 0.172,15.985 0.183,24.267 0.002,1.267 0.207,1.666 0.202,2.996 -0.004,0.925 -0.065,2.104 0.005,3.001 0.131,1.645 0.218,4.048 0.519,5.469 1.056,4.985 5.703,6.849 10.073,7.859 3.312,0.766 6.714,1.111 10.138,1.576 4.01,0.545 19.376,0.399 23.493,-0.086 6.45,-0.761 15.507,-0.276 22.162,-1.971 7.272,-1.853 6.398,-2.822 7.435,-7.425 0.87,-3.869 2.219,-13.998 3.169,-16.919 0.807,-2.484 1.721,-7.868 2.195,-10.524 0.344,-1.99 1.133,-3.678 1.718,-5.612 1.344,-4.441 1.694,-7.626 2.92,-12.169 0.377,-1.398 0.722,-2.38 1.102,-3.854 0.997,-3.864 2.19,-8.249 2.968,-12.117 0.575,-2.856 1.095,-5.36 1.653,-8.289l2.191 -12.734c0.189,-0.998 0.23,-2.248 1.182,-2.596 0.952,0.348 0.993,1.598 1.182,2.596l2.191 12.734c0.558,2.929 1.077,5.433 1.652,8.289 0.779,3.868 1.972,8.253 2.968,12.117 0.38,1.474 0.725,2.456 1.103,3.854 1.226,4.543 1.576,7.728 2.919,12.169 0.585,1.934 1.375,3.622 1.719,5.612 0.473,2.654 1.389,8.042 2.195,10.524 0.949,2.921 2.299,13.05 3.169,16.919 1.037,4.603 0.163,5.572 7.434,7.425 6.656,1.695 15.712,1.21 22.163,1.971 4.117,0.485 19.483,0.631 23.492,0.086 3.425,-0.465 6.827,-0.81 10.138,-1.576 4.371,-1.01 9.018,-2.874 10.074,-7.859 0.301,-1.421 0.388,-3.824 0.519,-5.469 0.07,-0.897 0.009,-2.076 0.005,-3.001 -0.005,-1.33 0.2,-1.729 0.202,-2.996 0.011,-8.282 0.213,-15.964 0.183,-24.267l0.191 -8.764 -0.196 -3.058c-0.058,-2.024 0.002,-4.188 0.011,-6.226 0.004,-1.283 -0.19,-1.636 -0.204,-2.794 -0.011,-1.013 0.076,-2.218 -0.002,-3.205 -0.136,-1.727 -0.325,-3.796 -0.37,-5.626l-0.436 -5.757c-0.439,-3.507 -0.671,-7.426 -1.225,-10.942 -1.612,-10.225 -3.802,-20.189 -6.162,-30.214 -0.207,-0.88 -0.394,-1.46 -0.643,-2.333 -1.682,-5.899 -2.814,-10.235 -4.915,-16.285l-2.057 -6.766c-2.951,0.866 -5.902,1.731 -9.677,2.477 -3.774,0.745 -8.371,1.369 -13.806,1.869 -5.434,0.5 -11.706,0.875 -19.026,1.15 -7.321,0.274 -15.692,0.449 -26.199,0.418 -10.507,-0.031 -23.15,-0.269 -32.47,-0.382z"/>
   </clipPath>
    <clipPath id="id1">
     <path d="M69.622 5.532c-9.32,-0.113 -15.317,-0.1 -21.532,-0.475 -6.215,-0.375 -12.649,-1.137 -18.001,-2.044 -5.351,-0.908 -9.62,-1.96 -13.89,-3.013l-2.056 6.766c-2.101,6.05 -3.233,10.386 -4.916,16.285 -0.249,0.873 -0.435,1.453 -0.642,2.333 -2.36,10.025 -4.55,19.989 -6.162,30.214 -0.554,3.516 -0.787,7.435 -1.226,10.942l-0.435 5.757c-0.045,1.83 -0.234,3.899 -0.37,5.626 -0.078,0.987 0.009,2.192 -0.003,3.205 -0.013,1.158 -0.208,1.511 -0.203,2.794 0.009,2.038 0.069,4.202 0.011,6.226 -0.028,1.013 -0.181,1.575 -0.197,2.723l0.192 9.099c-0.03,8.303 0.172,15.985 0.183,24.267 0.002,1.267 0.207,1.666 0.202,2.996 -0.004,0.925 -0.065,2.104 0.005,3.001 0.131,1.645 0.218,4.048 0.519,5.469 1.056,4.985 5.703,6.849 10.073,7.859 3.312,0.766 6.714,1.111 10.138,1.576 4.01,0.545 19.376,0.399 23.493,-0.086 6.45,-0.761 15.507,-0.276 22.162,-1.971 7.272,-1.853 6.398,-2.822 7.435,-7.425 0.87,-3.869 2.219,-13.998 3.169,-16.919 0.807,-2.484 1.721,-7.868 2.195,-10.524 0.344,-1.99 1.133,-3.678 1.718,-5.612 1.344,-4.441 1.694,-7.626 2.92,-12.169 0.377,-1.398 0.722,-2.38 1.102,-3.854 0.997,-3.864 2.19,-8.249 2.968,-12.117 0.575,-2.856 1.095,-5.36 1.653,-8.289l2.191 -12.734c0.189,-0.998 0.23,-2.248 1.182,-2.596 0,-15.663 0,-31.326 0,-46.989l-1.415 -0.015 -0.288 -0.004 -0.504 -0.005 -0.132 -0.002 -3.306 -0.041 -0.515 -0.007 -2.349 -0.031 -0.409 -0.006 -0.104 -0.001 -0.906 -0.013 -0.54 -0.008 -0.439 -0.006 -0.04 -0.001 -0.639 -0.009 -0.309 -0.004 -0.507 -0.008 -0.448 -0.006 -0.023 -0.001 -0.521 -0.007 -0.23 -0.004 -1.099 -0.016 -0.133 -0.002 -2.031 -0.029 -0.158 -0.002 -0.514 -0.008 -0.306 -0.004 -1.22 -0.017 -0.056 -0.001 -0.433 -0.006 -0.55 -0.008 -0.216 -0.003 -0.465 -0.006 -0.408 -0.006 -0.805 -0.01 -0.458 -0.006 -0.103 -0.002 -0.641 -0.008 -0.658 -0.008z"/>
    </clipPath>
    <clipPath id="id2">
     <path d="M69.622 5.532c-9.32,-0.113 -15.317,-0.1 -21.532,-0.475 -6.215,-0.375 -12.649,-1.137 -18.001,-2.044 -5.351,-0.908 -9.62,-1.96 -13.89,-3.013l-2.056 6.766c-2.101,6.05 -3.233,10.386 -4.916,16.285 -0.249,0.873 -0.435,1.453 -0.642,2.333 -2.36,10.025 -4.55,19.989 -6.162,30.214 -0.554,3.516 -0.787,7.435 -1.226,10.942l-0.435 5.757c-0.045,1.83 -0.234,3.899 -0.37,5.626 -0.078,0.987 0.009,2.192 -0.003,3.205 -0.013,1.158 -0.208,1.511 -0.203,2.794 0.009,2.038 0.069,4.202 0.011,6.226 -0.028,1.013 -0.181,1.575 -0.197,2.723l0.192 9.099c-0.03,8.303 0.172,15.985 0.183,24.267 0.002,1.267 0.207,1.666 0.202,2.996 -0.004,0.925 -0.065,2.104 0.005,3.001 0.131,1.645 0.218,4.048 0.519,5.469 1.056,4.985 5.703,6.849 10.073,7.859 3.312,0.766 6.714,1.111 10.138,1.576 4.01,0.545 19.376,0.399 23.493,-0.086 6.45,-0.761 15.507,-0.276 22.162,-1.971 7.272,-1.853 6.398,-2.822 7.435,-7.425 0.87,-3.869 2.219,-13.998 3.169,-16.919 0.807,-2.484 1.721,-7.868 2.195,-10.524 0.344,-1.99 1.133,-3.678 1.718,-5.612 1.344,-4.441 1.694,-7.626 2.92,-12.169 0.377,-1.398 0.722,-2.38 1.102,-3.854 0.997,-3.864 2.19,-8.249 2.968,-12.117 0.575,-2.856 1.095,-5.36 1.653,-8.289l2.191 -12.734c0.189,-0.998 0.23,-2.248 1.182,-2.596 0.952,0.348 0.993,1.598 1.182,2.596l2.191 12.734c0.558,2.929 1.077,5.433 1.652,8.289 0.779,3.868 1.972,8.253 2.968,12.117 0.38,1.474 0.725,2.456 1.103,3.854 1.226,4.543 1.576,7.728 2.919,12.169 0.585,1.934 1.375,3.622 1.719,5.612 0.473,2.654 1.389,8.042 2.195,10.524 0.949,2.921 2.299,13.05 3.169,16.919 1.037,4.603 0.163,5.572 7.434,7.425 6.656,1.695 15.712,1.21 22.163,1.971 4.117,0.485 19.483,0.631 23.492,0.086 3.425,-0.465 6.827,-0.81 10.138,-1.576 4.371,-1.01 9.018,-2.874 10.074,-7.859 0.301,-1.421 0.388,-3.824 0.519,-5.469 0.07,-0.897 0.009,-2.076 0.005,-3.001 -0.005,-1.33 0.2,-1.729 0.202,-2.996 0.011,-8.282 0.213,-15.964 0.183,-24.267l0.191 -8.764 -0.196 -3.058c-0.058,-2.024 0.002,-4.188 0.011,-6.226 0.004,-1.283 -0.19,-1.636 -0.204,-2.794 -0.011,-1.013 0.076,-2.218 -0.002,-3.205 -0.136,-1.727 -0.325,-3.796 -0.37,-5.626l-0.436 -5.757c-0.439,-3.507 -0.671,-7.426 -1.225,-10.942 -1.612,-10.225 -3.802,-20.189 -6.162,-30.214 -0.207,-0.88 -0.394,-1.46 -0.643,-2.333 -1.682,-5.899 -2.814,-10.235 -4.915,-16.285l-2.057 -6.766c-2.951,0.866 -5.902,1.731 -9.677,2.477 -3.774,0.745 -8.371,1.369 -13.806,1.869 -5.434,0.5 -11.706,0.875 -19.026,1.15 -7.321,0.274 -15.692,0.449 -26.199,0.418 -10.507,-0.031 -23.15,-0.269 -32.47,-0.382z"/>
    </clipPath>
    <clipPath id="id3">
     <path d="M128.291 5.496c-7.321,0.274 -15.692,0.449 -26.199,0.418l-1.616 -0.006 -0.217 -0.001 -0.215 -0.001 -0.066 -0.001 -0.625 -0.003 -0.854 -0.006 -1.14 -0.008 -0.045 0 -0.617 -0.005 -0.252 -0.002 -0.921 -0.008 -0.253 -0.003 -0.219 -0.002 -0.286 -0.002 -0.091 -0.001 -0.283 -0.003 -0.892 -0.009c0,15.663 0,31.326 0,46.989 0.952,0.348 0.993,1.598 1.182,2.596l2.191 12.734c0.558,2.929 1.077,5.433 1.652,8.289 0.779,3.868 1.972,8.253 2.968,12.117 0.38,1.474 0.725,2.456 1.103,3.854 1.226,4.543 1.576,7.728 2.919,12.169 0.585,1.934 1.375,3.622 1.719,5.612 0.473,2.654 1.389,8.042 2.195,10.524 0.949,2.921 2.299,13.05 3.169,16.919 1.037,4.603 0.163,5.572 7.434,7.425 6.656,1.695 15.712,1.21 22.163,1.971 4.117,0.485 19.483,0.631 23.492,0.086 3.425,-0.465 6.827,-0.81 10.138,-1.576 4.371,-1.01 9.018,-2.874 10.074,-7.859 0.301,-1.421 0.388,-3.824 0.519,-5.469 0.07,-0.897 0.009,-2.076 0.005,-3.001 -0.005,-1.33 0.2,-1.729 0.202,-2.996 0.011,-8.282 0.213,-15.964 0.183,-24.267l0.191 -8.764 -0.196 -3.058c-0.058,-2.024 0.002,-4.188 0.011,-6.226 0.004,-1.283 -0.19,-1.636 -0.204,-2.794 -0.011,-1.013 0.076,-2.218 -0.002,-3.205 -0.136,-1.727 -0.325,-3.796 -0.37,-5.626l-0.436 -5.757c-0.439,-3.507 -0.671,-7.426 -1.225,-10.942 -1.612,-10.225 -3.802,-20.189 -6.162,-30.214 -0.207,-0.88 -0.394,-1.46 -0.643,-2.333 -1.682,-5.899 -2.814,-10.235 -4.915,-16.285l-2.057 -6.766c-2.951,0.866 -5.902,1.731 -9.677,2.477 -3.774,0.745 -8.371,1.369 -13.806,1.869 -5.434,0.5 -11.706,0.875 -19.026,1.15z"/>
    </clipPath>
    <clipPath id="id4">
     <path d="M69.622 5.532c-9.32,-0.113 -15.317,-0.1 -21.532,-0.475 -6.215,-0.375 -12.649,-1.137 -18.001,-2.044 -5.351,-0.908 -9.62,-1.96 -13.89,-3.013l-2.056 6.766c-2.101,6.05 -3.233,10.386 -4.916,16.285 -0.249,0.873 -0.435,1.453 -0.642,2.333 -2.36,10.025 -4.55,19.989 -6.162,30.214 -0.554,3.516 -0.787,7.435 -1.226,10.942l-0.435 5.757c-0.045,1.83 -0.234,3.899 -0.37,5.626 -0.078,0.987 0.009,2.192 -0.003,3.205 -0.013,1.158 -0.208,1.511 -0.203,2.794 0.009,2.038 0.069,4.202 0.011,6.226 -0.028,1.013 -0.181,1.575 -0.197,2.723l0.192 9.099c-0.03,8.303 0.172,15.985 0.183,24.267 0.002,1.267 0.207,1.666 0.202,2.996 -0.004,0.925 -0.065,2.104 0.005,3.001 0.131,1.645 0.218,4.048 0.519,5.469 1.056,4.985 5.703,6.849 10.073,7.859 3.312,0.766 6.714,1.111 10.138,1.576 4.01,0.545 19.376,0.399 23.493,-0.086 6.45,-0.761 15.507,-0.276 22.162,-1.971 7.272,-1.853 6.398,-2.822 7.435,-7.425 0.87,-3.869 2.219,-13.998 3.169,-16.919 0.807,-2.484 1.721,-7.868 2.195,-10.524 0.344,-1.99 1.133,-3.678 1.718,-5.612 1.344,-4.441 1.694,-7.626 2.92,-12.169 0.377,-1.398 0.722,-2.38 1.102,-3.854 0.997,-3.864 2.19,-8.249 2.968,-12.117 0.575,-2.856 1.095,-5.36 1.653,-8.289l2.191 -12.734c0.189,-0.998 0.23,-2.248 1.182,-2.596 0.952,0.348 0.993,1.598 1.182,2.596l2.191 12.734c0.558,2.929 1.077,5.433 1.652,8.289 0.779,3.868 1.972,8.253 2.968,12.117 0.38,1.474 0.725,2.456 1.103,3.854 1.226,4.543 1.576,7.728 2.919,12.169 0.585,1.934 1.375,3.622 1.719,5.612 0.473,2.654 1.389,8.042 2.195,10.524 0.949,2.921 2.299,13.05 3.169,16.919 1.037,4.603 0.163,5.572 7.434,7.425 6.656,1.695 15.712,1.21 22.163,1.971 4.117,0.485 19.483,0.631 23.492,0.086 3.425,-0.465 6.827,-0.81 10.138,-1.576 4.371,-1.01 9.018,-2.874 10.074,-7.859 0.301,-1.421 0.388,-3.824 0.519,-5.469 0.07,-0.897 0.009,-2.076 0.005,-3.001 -0.005,-1.33 0.2,-1.729 0.202,-2.996 0.011,-8.282 0.213,-15.964 0.183,-24.267l0.191 -8.764 -0.196 -3.058c-0.058,-2.024 0.002,-4.188 0.011,-6.226 0.004,-1.283 -0.19,-1.636 -0.204,-2.794 -0.011,-1.013 0.076,-2.218 -0.002,-3.205 -0.136,-1.727 -0.325,-3.796 -0.37,-5.626l-0.436 -5.757c-0.439,-3.507 -0.671,-7.426 -1.225,-10.942 -1.612,-10.225 -3.802,-20.189 -6.162,-30.214 -0.207,-0.88 -0.394,-1.46 -0.643,-2.333 -1.682,-5.899 -2.814,-10.235 -4.915,-16.285l-2.057 -6.766c-2.951,0.866 -5.902,1.731 -9.677,2.477 -3.774,0.745 -8.371,1.369 -13.806,1.869 -5.434,0.5 -11.706,0.875 -19.026,1.15 -7.321,0.274 -15.692,0.449 -26.199,0.418 -10.507,-0.031 -23.15,-0.269 -32.47,-0.382z"/>
    </clipPath>
 </defs>
 <g id="VETORES">
  <metadata id="CorelCorpID_0Corel-Layer"/>
  <g>
  </g>
  <g clip-path="url(#id0)">
   <g id="_2012362461648">
    <g>
    </g>
   </g>
   <g clip-path="url(#id1)">
    <g>
     <path fill="#04003E" fill-rule="nonzero" d="M-8.588 50.993c0.398,0.013 0.732,-0.3 0.745,-0.7 0.012,-0.398 -0.301,-0.732 -0.7,-0.745 -0.4,-0.012 -0.732,0.301 -0.745,0.7 -0.013,0.4 0.3,0.732 0.7,0.745zm10.812 98.236l14.046 0 82.082 -69.765 0 -11.94 -96.128 81.705zm29.829 0l8.742 0 41.25 -35.06 -7.989 -0.641 -42.003 35.701zm13.796 0l10.682 0 16.792 -14.273 -9.76 -0.783 -17.714 15.056zm31.838 0l10.271 0 10.394 -8.834 0 -5.237 -3.962 -0.318 -16.911 14.372 0.208 0.017zm20.511 0l0.154 0 0 -1.316c-0.291,0.087 -0.506,0.354 -0.513,0.674 -0.006,0.273 0.139,0.513 0.359,0.642zm0.154 -29.726l0 -4.461 -1.152 0.979 -5.942 -0.87 -0.206 0.352 5.766 0.843 -1.583 1.344 -5.939 -0.868 -0.206 0.352 5.763 0.842 -1.582 1.344 -5.937 -0.867 -0.206 0.352 5.759 0.84 -0.232 0.198 3.511 0.282 0.044 0.006 0.002 -0.003 1.24 0.1 0.9 -0.765zm0 -4.89l0 -0.382 -5.132 -0.75 -0.206 0.352 5.338 0.78zm0 -1.958l0 -0.381 -3.169 -0.464 -0.208 0.352 3.377 0.493zm0 -1.957l0 -0.382 -1.207 -0.177 -0.208 0.352 1.415 0.207zm0 -56.485l0 -7.289 -17.81 15.138 7.836 0.629 9.974 -8.478zm0 -13.495l0 -8.514 -9.153 7.78 9.153 0.734zm0 -22.857l0 -2.029 -108.46 92.185 0 2.029 108.46 -92.185zm0 -10.5l0 -8.137 -0.98 0.834 -5.894 -0.862 -0.206 0.352 5.718 0.835 -1.584 1.344 -5.889 -0.86 -0.207 0.351 5.714 0.836 -1.583 1.344 -5.886 -0.86 -0.208 0.351 5.712 0.834 -1.582 1.345 -5.884 -0.86 -0.208 0.352 5.709 0.833 -1.582 1.346 -5.882 -0.86 -0.207 0.352 5.705 0.832 -1.582 1.346 -5.878 -0.859 -0.207 0.351 5.702 0.833 -1.582 1.346 -5.875 -0.86 -0.207 0.351 5.7 0.834 -1.584 1.345 -5.871 -0.859 -0.207 0.35 5.697 0.834 -1.584 1.344 -5.868 -0.857 -0.208 0.35 5.695 0.833 -1.583 1.345 -5.866 -0.858 -0.208 0.351 5.691 0.831 -1.582 1.346 -5.864 -0.857 -0.207 0.35 5.688 0.832 -1.582 1.345 -5.861 -0.856 -0.207 0.35 5.684 0.831 -1.582 1.346 -5.857 -0.856 -0.207 0.35 5.683 0.831 -1.584 1.345 -5.854 -0.856 -0.208 0.351 5.68 0.83 -1.583 1.346 -5.851 -0.856 -0.208 0.35 5.677 0.831 -1.582 1.345 -5.849 -0.856 -0.208 0.351 5.673 0.83 -1.582 1.344 -5.846 -0.854 -0.207 0.351 5.67 0.83 -1.582 1.343 -5.843 -0.853 -0.207 0.35 5.666 0.829 -1.581 1.345 -5.84 -0.853 -0.208 0.35 5.666 0.828 -1.584 1.345 -5.836 -0.853 -0.208 0.351 5.662 0.827 -1.583 1.346 -5.833 -0.853 -0.208 0.351 5.659 0.827 -1.584 1.345 -5.83 -0.852 -0.207 0.35 5.655 0.827 -1.582 1.346 -5.828 -0.852 -0.207 0.35 5.652 0.827 -1.582 1.344 -5.825 -0.851 -0.208 0.35 5.65 0.827 -1.582 1.344 -5.822 -0.85 -0.208 0.35 5.646 0.825 -1.581 1.346 -5.819 -0.85 -0.208 0.35 5.645 0.825 -1.584 1.345 -5.815 -0.85 -0.208 0.351 5.641 0.824 -1.584 1.345 -5.812 -0.849 -0.207 0.35 5.638 0.824 -1.582 1.346 -5.811 -0.849 -0.207 0.35 5.635 0.824 -1.583 1.345 -5.807 -0.849 -0.208 0.351 5.632 0.823 -1.582 1.346 -5.804 -0.849 -0.208 0.35 5.629 0.824 -1.582 1.344 -5.801 -0.847 -0.208 0.35 5.627 0.823 -1.584 1.344 -5.797 -0.846 -0.208 0.35 5.623 0.821 -1.583 1.346 -5.795 -0.847 -0.207 0.35 5.62 0.822 -1.582 1.345 -5.793 -0.846 -0.207 0.35 5.617 0.821 -1.582 1.346 -5.79 -0.846 -0.208 0.35 5.615 0.82 -1.583 1.346 -5.786 -0.845 -0.208 0.35 5.611 0.82 -1.582 1.346 -5.783 -0.846 -0.208 0.35 5.609 0.821 -1.583 1.344 -5.781 -0.844 -0.207 0.35 5.606 0.82 -1.584 1.344 -5.777 -0.844 -0.207 0.351 5.603 0.818 -1.582 1.345 -5.776 -0.843 -0.208 0.351 5.6 0.817 -1.582 1.346 -5.772 -0.843 -0.208 0.35 5.597 0.818 -1.582 1.345 -5.77 -0.843 -0.207 0.351 5.593 0.817 -1.582 1.346 -5.766 -0.843 -0.207 0.351 5.592 0.817 -1.584 1.345 -5.763 -0.842 -0.207 0.35 5.588 0.817 -1.583 1.346 -5.76 -0.842 -0.207 0.35 5.585 0.817 -1.582 1.344 -5.758 -0.841 -0.208 0.351 5.582 0.816 -1.582 1.344 -5.754 -0.84 -0.208 0.35 5.579 0.815 -1.582 1.345 -5.752 -0.839 -0.207 0.35 5.576 0.814 -12.771 10.855 0 8.136 108.46 -92.184zm0 -8.736l0 -0.381 -4.912 -0.719 -0.206 0.352 5.118 0.748zm0 -1.958l0 -0.381 -2.609 0 2.609 0.381zm-12.838 -0.381l-9.57 0 -0.219 0.187 0.109 -0.187 -2.143 0 1.921 0.281 -1.846 1.57 0.143 -0.243 -9.085 -1.327 -0.206 0.351 9.029 1.319 -1.841 1.564 0.14 -0.236 -9.084 -1.327 -0.206 0.351 9.025 1.319 -1.833 1.558 0.136 -0.23 -9.084 -1.327 -0.206 0.351 9.022 1.318 -1.827 1.553 0.133 -0.224 -9.083 -1.327 -0.207 0.35 9.018 1.319 -1.819 1.546 0.129 -0.218 -9.083 -1.326 -0.207 0.35 9.015 1.318 -1.813 1.541 0.126 -0.212 -9.083 -1.327 -0.207 0.35 9.013 1.319 -1.807 1.536 0.121 -0.207 -9.082 -1.327 -0.208 0.35 9.011 1.317 -1.801 1.531 0.118 -0.2 -9.082 -1.327 -0.208 0.35 9.008 1.316 -1.794 1.526 0.114 -0.195 -9.083 -1.326 -0.207 0.35 9.004 1.315 -1.788 1.52 0.112 -0.188 -9.083 -1.327 -0.207 0.35 9.001 1.316 -1.782 1.514 0.109 -0.182 -9.083 -1.327 -0.207 0.35 8.997 1.315 -1.774 1.508 0.105 -0.175 -9.083 -1.327 -0.208 0.35 8.997 1.315 -1.77 1.502 0.101 -0.17 -9.082 -1.327 -0.208 0.35 8.993 1.315 -1.762 1.498 0.097 -0.165 -9.083 -1.327 -0.207 0.35 8.99 1.315 -1.755 1.491 0.093 -0.159 -9.083 -1.327 -0.207 0.351 8.987 1.313 -1.749 1.487 0.09 -0.153 -9.083 -1.327 -0.208 0.351 8.984 1.312 -1.741 1.482 0.085 -0.147 -9.082 -1.327 -0.207 0.351 8.98 1.312 -1.735 1.475 0.082 -0.141 -9.082 -1.326 -0.208 0.35 8.979 1.312 -1.731 1.469 0.08 -0.134 -9.082 -1.327 -0.208 0.351 8.976 1.311 -1.725 1.466 0.077 -0.13 -9.083 -1.327 -0.207 0.35 8.972 1.312 -1.717 1.459 0.073 -0.123 -9.083 -1.327 -0.207 0.35 8.969 1.311 -44.452 37.782 0 8.135 95.622 -81.274zm-28.974 0l-1.442 0 -0.002 0.023c-0.012,0.398 0.301,0.732 0.701,0.745 0.398,0.013 0.732,-0.3 0.744,-0.7 0.001,-0.023 0.001,-0.045 -0.001,-0.068zm-3.873 0l-1.335 0c0.105,0.254 0.352,0.436 0.645,0.445 0.309,0.01 0.578,-0.175 0.69,-0.445zm-4.305 0l-0.062 0 0.006 0 0.056 0zm-5.36 0l-0.864 0c-0.17,0.127 -0.283,0.328 -0.29,0.557 -0.013,0.398 0.3,0.732 0.7,0.745 0.398,0.012 0.732,-0.3 0.745,-0.7 0.007,-0.245 -0.108,-0.466 -0.291,-0.602zm-34.253 0l-1.327 0c-0.035,0.082 -0.056,0.171 -0.059,0.265 -0.013,0.398 0.3,0.732 0.7,0.745 0.398,0.012 0.732,-0.3 0.745,-0.7 0.003,-0.11 -0.018,-0.215 -0.059,-0.31zm-3.762 0l-1.443 0c0.017,0.373 0.318,0.677 0.699,0.689 0.395,0.012 0.726,-0.294 0.744,-0.689zm-3.853 0l-1.08 0c0.127,0.143 0.31,0.236 0.517,0.242 0.223,0.007 0.425,-0.087 0.563,-0.242zm-11.242 7.56l0 0.901c0.128,0.16 0.322,0.265 0.544,0.272 0.398,0.012 0.732,-0.3 0.744,-0.7 0.013,-0.4 -0.3,-0.732 -0.699,-0.745 -0.238,-0.007 -0.452,0.1 -0.589,0.272zm0 3.519l0 1.25c0.101,0.059 0.216,0.093 0.341,0.097 0.4,0.013 0.732,-0.3 0.745,-0.7 0.012,-0.398 -0.3,-0.732 -0.7,-0.744 -0.14,-0.005 -0.273,0.031 -0.386,0.097zm0 3.72l0 1.445c0.394,0.006 0.722,-0.304 0.734,-0.701 0.013,-0.399 -0.3,-0.732 -0.7,-0.744l-0.034 0zm0 9.687l0 10.401 38.401 -32.639 -11.181 -0.897 -27.22 23.135zm0 19.293l0 1.249c0.101,0.059 0.218,0.094 0.342,0.098 0.398,0.012 0.733,-0.3 0.745,-0.7 0.013,-0.398 -0.3,-0.732 -0.7,-0.745 -0.141,-0.004 -0.273,0.032 -0.387,0.098zm0 3.719l0 1.445c0.394,0.008 0.723,-0.303 0.735,-0.7 0.013,-0.4 -0.3,-0.732 -0.699,-0.744l-0.036 -0.001zm0 3.721l0 1.394c0.298,-0.082 0.521,-0.349 0.531,-0.675 0.011,-0.34 -0.215,-0.633 -0.531,-0.719zm0 11.625l0 5.96 39.677 -33.723 -6.407 -0.514 -33.27 28.277zm0 57.278l0 8.136 67.428 -57.31 -8.747 -0.702 -58.681 49.876zm0 18.455l0 1.349 40.401 -34.338 -1.45 -0.116 -38.951 33.105zm0 11.667l0 2.699 79.28 -67.384 -2.902 -0.233 -76.378 64.918zm3.504 -98.604c-0.399,-0.013 -0.732,0.3 -0.745,0.7 -0.013,0.4 0.3,0.732 0.7,0.745 0.398,0.012 0.732,-0.3 0.744,-0.7 0.013,-0.399 -0.3,-0.732 -0.699,-0.745zm-1.78 -0.626c0.398,0.012 0.732,-0.3 0.745,-0.7 0.012,-0.4 -0.3,-0.732 -0.7,-0.745 -0.398,-0.012 -0.732,0.3 -0.745,0.7 -0.013,0.398 0.3,0.732 0.7,0.745zm3.819 0.322c0.399,0.013 0.732,-0.3 0.745,-0.7 0.013,-0.399 -0.3,-0.732 -0.7,-0.744 -0.398,-0.013 -0.732,0.3 -0.744,0.7 -0.013,0.398 0.3,0.732 0.699,0.744zm-1.688 -3.513c-0.398,-0.013 -0.732,0.3 -0.745,0.7 -0.012,0.398 0.3,0.732 0.7,0.744 0.398,0.013 0.732,-0.3 0.745,-0.699 0.012,-0.4 -0.3,-0.733 -0.7,-0.745zm-2.478 -1.371c-0.012,0.398 0.3,0.732 0.7,0.745 0.398,0.012 0.732,-0.3 0.745,-0.7 0.012,-0.4 -0.3,-0.732 -0.7,-0.745 -0.4,-0.013 -0.732,0.3 -0.745,0.7zm6.15 1.816c-0.398,-0.013 -0.732,0.3 -0.744,0.7 -0.013,0.398 0.3,0.732 0.699,0.744 0.4,0.013 0.732,-0.3 0.745,-0.7 0.013,-0.399 -0.3,-0.732 -0.7,-0.744zm-1.779 -0.626c0.398,0.012 0.732,-0.301 0.744,-0.7 0.013,-0.399 -0.3,-0.732 -0.7,-0.745 -0.399,-0.013 -0.732,0.3 -0.744,0.7 -0.013,0.4 0.3,0.732 0.7,0.745zm-1.733 -2.07c0.397,0.013 0.731,-0.299 0.744,-0.699 0.013,-0.399 -0.3,-0.732 -0.7,-0.745 -0.4,-0.013 -0.732,0.3 -0.744,0.7 -0.013,0.4 0.3,0.732 0.7,0.744zm-1.689 -3.513c-0.398,-0.013 -0.732,0.3 -0.745,0.7 -0.012,0.398 0.3,0.732 0.7,0.744 0.4,0.013 0.732,-0.3 0.745,-0.699 0.013,-0.4 -0.3,-0.732 -0.7,-0.745zm7.241 5.905c0.398,0.013 0.732,-0.3 0.745,-0.7 0.012,-0.398 -0.3,-0.732 -0.7,-0.744 -0.398,-0.013 -0.732,0.3 -0.745,0.699 -0.012,0.4 0.3,0.733 0.7,0.745zm-1.687 -3.513c-0.398,-0.013 -0.732,0.3 -0.744,0.7 -0.013,0.399 0.3,0.732 0.7,0.744 0.398,0.013 0.732,-0.3 0.744,-0.7 0.013,-0.4 -0.3,-0.732 -0.7,-0.744zm-2.479 -1.371c-0.013,0.398 0.3,0.732 0.7,0.744 0.4,0.013 0.732,-0.3 0.745,-0.699 0.012,-0.4 -0.301,-0.732 -0.7,-0.745 -0.399,-0.013 -0.732,0.3 -0.745,0.7zm-1.035 -1.325c0.398,0.013 0.732,-0.3 0.745,-0.7 0.012,-0.399 -0.301,-0.732 -0.7,-0.744 -0.4,-0.013 -0.732,0.3 -0.745,0.7 -0.012,0.398 0.3,0.732 0.7,0.744zm7.185 3.142c-0.398,-0.012 -0.732,0.3 -0.745,0.7 -0.012,0.4 0.3,0.732 0.7,0.745 0.398,0.012 0.732,-0.3 0.745,-0.7 0.012,-0.398 -0.3,-0.732 -0.7,-0.745zm-1.78 -0.626c0.399,0.012 0.732,-0.3 0.745,-0.7 0.013,-0.4 -0.3,-0.732 -0.7,-0.745 -0.398,-0.012 -0.732,0.3 -0.745,0.7 -0.012,0.4 0.301,0.732 0.7,0.745zm-1.733 -2.069c0.398,0.012 0.733,-0.3 0.745,-0.7 0.013,-0.4 -0.3,-0.732 -0.7,-0.745 -0.4,-0.012 -0.732,0.3 -0.745,0.7 -0.012,0.398 0.3,0.732 0.7,0.745zm-1.688 -3.514c-0.399,-0.012 -0.732,0.3 -0.745,0.7 -0.013,0.4 0.3,0.732 0.7,0.745 0.398,0.012 0.732,-0.3 0.745,-0.7 0.012,-0.398 -0.301,-0.732 -0.7,-0.745zm7.243 5.906c0.398,0.012 0.731,-0.3 0.744,-0.7 0.013,-0.4 -0.3,-0.732 -0.7,-0.745 -0.398,-0.012 -0.732,0.3 -0.744,0.7 -0.013,0.4 0.3,0.732 0.7,0.745zm-1.689 -3.514c-0.398,-0.013 -0.732,0.3 -0.745,0.7 -0.012,0.398 0.301,0.732 0.7,0.745 0.399,0.012 0.732,-0.3 0.745,-0.7 0.013,-0.4 -0.3,-0.732 -0.7,-0.745zm-2.479 -1.371c-0.013,0.398 0.3,0.732 0.7,0.745 0.399,0.012 0.732,-0.3 0.745,-0.7 0.012,-0.398 -0.301,-0.732 -0.701,-0.745 -0.4,-0.012 -0.732,0.3 -0.744,0.7zm-1.035 -1.324c0.398,0.012 0.732,-0.301 0.744,-0.7 0.013,-0.399 -0.3,-0.732 -0.699,-0.745 -0.401,-0.013 -0.733,0.3 -0.745,0.7 -0.013,0.4 0.3,0.732 0.7,0.745zm7.186 3.14c-0.398,-0.013 -0.732,0.3 -0.744,0.7 -0.013,0.398 0.3,0.732 0.7,0.745 0.399,0.012 0.732,-0.301 0.744,-0.701 0.013,-0.399 -0.3,-0.732 -0.7,-0.744zm-1.779 -0.625c0.398,0.013 0.732,-0.3 0.744,-0.7 0.013,-0.399 -0.3,-0.732 -0.7,-0.744 -0.399,-0.013 -0.732,0.3 -0.744,0.7 -0.013,0.398 0.3,0.732 0.7,0.744zm-1.735 -2.07c0.398,0.012 0.732,-0.301 0.745,-0.7 0.013,-0.399 -0.301,-0.732 -0.7,-0.745 -0.399,-0.012 -0.732,0.3 -0.745,0.7 -0.013,0.4 0.3,0.732 0.7,0.745zm-1.689 -3.514c-0.398,-0.013 -0.732,0.3 -0.744,0.7 -0.013,0.398 0.3,0.732 0.7,0.744 0.399,0.013 0.732,-0.3 0.745,-0.699 0.012,-0.4 -0.301,-0.733 -0.701,-0.745zm7.243 5.905c0.398,0.013 0.733,-0.3 0.745,-0.7 0.013,-0.399 -0.3,-0.732 -0.7,-0.744 -0.4,-0.013 -0.732,0.3 -0.745,0.7 -0.012,0.398 0.301,0.732 0.7,0.744zm-1.688 -3.513c-0.398,-0.013 -0.732,0.3 -0.745,0.7 -0.013,0.399 0.3,0.732 0.7,0.744 0.398,0.013 0.732,-0.3 0.745,-0.699 0.012,-0.399 -0.3,-0.732 -0.7,-0.745zm-2.48 -1.37c-0.012,0.399 0.3,0.733 0.7,0.745 0.4,0.013 0.732,-0.3 0.745,-0.7 0.013,-0.4 -0.3,-0.732 -0.7,-0.744 -0.398,-0.013 -0.732,0.3 -0.745,0.699zm-1.033 -1.326c0.399,0.013 0.732,-0.299 0.745,-0.699 0.013,-0.4 -0.3,-0.732 -0.7,-0.745 -0.398,-0.013 -0.732,0.3 -0.745,0.7 -0.012,0.398 0.3,0.732 0.7,0.744zm7.185 3.142c-0.398,-0.012 -0.732,0.3 -0.745,0.7 -0.012,0.4 0.301,0.732 0.7,0.745 0.399,0.013 0.732,-0.3 0.745,-0.7 0.012,-0.398 -0.3,-0.732 -0.7,-0.745zm-1.779 -0.626c0.398,0.013 0.732,-0.3 0.744,-0.7 0.013,-0.398 -0.3,-0.732 -0.7,-0.745 -0.398,-0.012 -0.732,0.301 -0.744,0.7 -0.013,0.4 0.3,0.733 0.7,0.745zm-1.736 -2.069c0.399,0.012 0.733,-0.3 0.745,-0.7 0.013,-0.4 -0.3,-0.732 -0.7,-0.745 -0.398,-0.012 -0.732,0.301 -0.744,0.7 -0.013,0.399 0.3,0.733 0.699,0.745zm-1.686 -3.514c-0.398,-0.012 -0.732,0.3 -0.745,0.7 -0.013,0.399 0.3,0.732 0.7,0.745 0.4,0.013 0.732,-0.3 0.745,-0.7 0.012,-0.4 -0.3,-0.732 -0.7,-0.745zm7.241 5.906c0.398,0.012 0.732,-0.3 0.745,-0.7 0.012,-0.398 -0.3,-0.732 -0.7,-0.745 -0.4,-0.012 -0.732,0.3 -0.745,0.7 -0.013,0.4 0.3,0.732 0.7,0.745zm-1.689 -3.514c-0.398,-0.012 -0.731,0.3 -0.744,0.7 -0.013,0.398 0.3,0.732 0.7,0.745 0.399,0.012 0.732,-0.3 0.745,-0.7 0.012,-0.4 -0.301,-0.732 -0.701,-0.745zm-2.477 -1.371c-0.013,0.399 0.3,0.733 0.7,0.745 0.399,0.013 0.732,-0.3 0.744,-0.7 0.013,-0.4 -0.3,-0.732 -0.7,-0.744 -0.399,-0.013 -0.732,0.299 -0.744,0.699zm-1.035 -1.324c0.398,0.012 0.732,-0.3 0.745,-0.7 0.012,-0.398 -0.3,-0.732 -0.7,-0.745 -0.399,-0.012 -0.733,0.3 -0.745,0.7 -0.013,0.4 0.3,0.732 0.7,0.745zm7.185 3.142c-0.399,-0.013 -0.732,0.3 -0.745,0.7 -0.013,0.398 0.3,0.732 0.7,0.744 0.4,0.013 0.732,-0.3 0.745,-0.7 0.012,-0.399 -0.301,-0.732 -0.7,-0.744zm-1.78 -0.626c0.399,0.012 0.732,-0.301 0.745,-0.7 0.013,-0.4 -0.3,-0.732 -0.7,-0.745 -0.4,-0.013 -0.732,0.3 -0.745,0.7 -0.012,0.398 0.3,0.732 0.7,0.745zm-1.733 -2.069c0.398,0.012 0.732,-0.301 0.745,-0.7 0.012,-0.399 -0.301,-0.733 -0.7,-0.745 -0.4,-0.013 -0.732,0.3 -0.745,0.7 -0.013,0.4 0.3,0.732 0.7,0.745zm-1.689 -3.514c-0.398,-0.013 -0.732,0.3 -0.744,0.7 -0.013,0.399 0.3,0.732 0.7,0.745 0.399,0.012 0.732,-0.301 0.745,-0.701 0.012,-0.398 -0.301,-0.731 -0.701,-0.744zm7.242 5.905c0.398,0.013 0.732,-0.3 0.745,-0.7 0.012,-0.399 -0.301,-0.732 -0.7,-0.744 -0.4,-0.013 -0.733,0.3 -0.745,0.699 -0.013,0.399 0.3,0.732 0.7,0.745zm-1.689 -3.513c-0.398,-0.013 -0.732,0.3 -0.745,0.7 -0.012,0.399 0.3,0.732 0.7,0.744 0.399,0.013 0.733,-0.3 0.745,-0.7 0.013,-0.398 -0.3,-0.732 -0.7,-0.744zm-2.478 -1.371c-0.012,0.398 0.3,0.732 0.7,0.745 0.399,0.012 0.732,-0.301 0.745,-0.701 0.013,-0.398 -0.3,-0.732 -0.7,-0.744 -0.399,-0.013 -0.732,0.3 -0.745,0.7zm-1.034 -1.324c0.398,0.012 0.732,-0.301 0.744,-0.701 0.013,-0.399 -0.3,-0.732 -0.7,-0.744 -0.398,-0.013 -0.732,0.3 -0.745,0.7 -0.012,0.398 0.301,0.732 0.701,0.745zm7.184 3.139c-0.398,-0.012 -0.732,0.301 -0.744,0.7 -0.013,0.398 0.3,0.733 0.7,0.745 0.398,0.013 0.732,-0.3 0.745,-0.7 0.012,-0.4 -0.301,-0.732 -0.701,-0.745zm-1.779 -0.624c0.398,0.012 0.732,-0.3 0.745,-0.7 0.012,-0.398 -0.3,-0.732 -0.7,-0.745 -0.399,-0.012 -0.732,0.3 -0.745,0.7 -0.012,0.4 0.3,0.732 0.7,0.745zm-1.733 -2.071c0.398,0.013 0.732,-0.3 0.745,-0.699 0.012,-0.4 -0.3,-0.733 -0.7,-0.745 -0.399,-0.013 -0.733,0.3 -0.745,0.7 -0.013,0.398 0.3,0.732 0.7,0.744zm-1.689 -3.514c-0.398,-0.012 -0.732,0.301 -0.745,0.701 -0.012,0.398 0.301,0.732 0.7,0.744 0.4,0.013 0.733,-0.3 0.745,-0.7 0.013,-0.399 -0.3,-0.732 -0.7,-0.745zm7.242 5.906c0.398,0.013 0.732,-0.3 0.744,-0.7 0.013,-0.398 -0.3,-0.732 -0.7,-0.744 -0.398,-0.013 -0.731,0.299 -0.744,0.699 -0.013,0.4 0.3,0.732 0.7,0.745zm-1.687 -3.514c-0.399,-0.012 -0.732,0.3 -0.745,0.7 -0.013,0.4 0.3,0.733 0.7,0.745 0.4,0.013 0.732,-0.3 0.745,-0.7 0.012,-0.4 -0.301,-0.732 -0.7,-0.745zm-2.48 -1.369c-0.012,0.399 0.3,0.732 0.7,0.745 0.398,0.012 0.732,-0.3 0.745,-0.7 0.012,-0.4 -0.3,-0.732 -0.7,-0.745 -0.4,-0.012 -0.732,0.3 -0.745,0.7zm-1.035 -1.326c0.398,0.013 0.732,-0.3 0.745,-0.7 0.013,-0.399 -0.3,-0.732 -0.7,-0.745 -0.4,-0.012 -0.732,0.301 -0.745,0.701 -0.012,0.399 0.301,0.732 0.7,0.744zm7.185 3.142c-0.398,-0.013 -0.732,0.3 -0.745,0.7 -0.012,0.399 0.301,0.732 0.7,0.744 0.4,0.013 0.733,-0.3 0.745,-0.699 0.013,-0.399 -0.3,-0.732 -0.7,-0.745zm-1.779 -0.626c0.398,0.013 0.732,-0.301 0.744,-0.7 0.013,-0.4 -0.3,-0.732 -0.699,-0.745 -0.4,-0.013 -0.733,0.3 -0.745,0.7 -0.013,0.4 0.3,0.732 0.7,0.745zm-1.733 -2.069c0.398,0.012 0.732,-0.3 0.744,-0.7 0.013,-0.4 -0.3,-0.732 -0.7,-0.745 -0.4,-0.013 -0.732,0.3 -0.744,0.7 -0.013,0.398 0.3,0.732 0.7,0.745zm-1.689 -3.514c-0.398,-0.012 -0.732,0.3 -0.745,0.7 -0.013,0.4 0.301,0.732 0.7,0.745 0.398,0.012 0.732,-0.3 0.745,-0.7 0.013,-0.399 -0.3,-0.732 -0.7,-0.745zm7.243 5.906c0.398,0.012 0.732,-0.301 0.745,-0.7 0.012,-0.4 -0.301,-0.732 -0.7,-0.745 -0.399,-0.013 -0.733,0.3 -0.745,0.7 -0.012,0.399 0.3,0.732 0.7,0.745zm-1.688 -3.514c-0.399,-0.013 -0.733,0.3 -0.745,0.7 -0.013,0.398 0.3,0.732 0.7,0.745 0.4,0.012 0.732,-0.301 0.744,-0.701 0.013,-0.399 -0.3,-0.732 -0.699,-0.744zm-2.48 -1.371c-0.013,0.398 0.3,0.732 0.7,0.745 0.398,0.012 0.732,-0.3 0.745,-0.7 0.012,-0.398 -0.3,-0.732 -0.7,-0.745 -0.4,-0.013 -0.732,0.3 -0.745,0.7zm-1.035 -1.324c0.398,0.012 0.732,-0.3 0.745,-0.7 0.012,-0.4 -0.3,-0.732 -0.7,-0.745 -0.398,-0.013 -0.732,0.3 -0.745,0.7 -0.013,0.399 0.3,0.732 0.7,0.745zm7.186 3.141c-0.398,-0.012 -0.732,0.301 -0.744,0.7 -0.013,0.399 0.3,0.733 0.7,0.745 0.398,0.012 0.732,-0.3 0.745,-0.7 0.012,-0.4 -0.301,-0.732 -0.701,-0.745zm-1.779 -0.626c0.398,0.013 0.732,-0.3 0.745,-0.699 0.012,-0.4 -0.3,-0.733 -0.7,-0.745 -0.4,-0.013 -0.732,0.3 -0.745,0.7 -0.012,0.399 0.3,0.732 0.7,0.744zm-1.735 -2.069c0.399,0.013 0.732,-0.3 0.745,-0.7 0.012,-0.398 -0.3,-0.732 -0.7,-0.745 -0.398,-0.012 -0.732,0.3 -0.745,0.7 -0.012,0.4 0.301,0.733 0.7,0.745zm-1.688 -3.514c-0.398,-0.012 -0.733,0.301 -0.745,0.701 -0.013,0.399 0.3,0.732 0.7,0.744 0.4,0.013 0.732,-0.3 0.745,-0.7 0.012,-0.4 -0.301,-0.732 -0.7,-0.745zm7.243 5.906c0.398,0.012 0.732,-0.3 0.744,-0.7 0.013,-0.398 -0.3,-0.732 -0.699,-0.745 -0.4,-0.012 -0.732,0.3 -0.745,0.7 -0.013,0.4 0.3,0.732 0.7,0.745zm-1.689 -3.514c-0.398,-0.012 -0.732,0.3 -0.745,0.7 -0.012,0.4 0.301,0.732 0.7,0.745 0.4,0.013 0.732,-0.3 0.745,-0.7 0.013,-0.398 -0.3,-0.732 -0.7,-0.745zm-2.478 -1.37c-0.012,0.398 0.3,0.732 0.7,0.744 0.4,0.013 0.732,-0.3 0.745,-0.7 0.013,-0.4 -0.3,-0.732 -0.7,-0.745 -0.398,-0.012 -0.732,0.301 -0.745,0.701zm-1.035 -1.325c0.399,0.013 0.732,-0.3 0.745,-0.7 0.013,-0.4 -0.3,-0.732 -0.7,-0.745 -0.4,-0.012 -0.732,0.301 -0.745,0.701 -0.012,0.398 0.301,0.732 0.7,0.744zm7.186 3.14c-0.399,-0.012 -0.733,0.3 -0.745,0.7 -0.013,0.4 0.3,0.732 0.7,0.745 0.4,0.012 0.732,-0.3 0.744,-0.7 0.013,-0.398 -0.3,-0.732 -0.699,-0.745zm-1.78 -0.624c0.398,0.012 0.732,-0.3 0.744,-0.7 0.013,-0.4 -0.3,-0.732 -0.699,-0.745 -0.398,-0.013 -0.733,0.3 -0.745,0.7 -0.013,0.4 0.3,0.732 0.7,0.745zm-1.735 -2.071c0.398,0.013 0.732,-0.3 0.745,-0.7 0.012,-0.4 -0.3,-0.732 -0.7,-0.745 -0.4,-0.012 -0.732,0.3 -0.745,0.7 -0.012,0.398 0.3,0.732 0.7,0.745zm-1.687 -3.514c-0.398,-0.012 -0.732,0.301 -0.744,0.7 -0.013,0.399 0.3,0.732 0.7,0.745 0.398,0.012 0.732,-0.3 0.744,-0.7 0.013,-0.4 -0.3,-0.732 -0.7,-0.745zm7.242 5.906c0.398,0.012 0.732,-0.3 0.744,-0.7 0.013,-0.4 -0.3,-0.732 -0.7,-0.745 -0.398,-0.013 -0.732,0.3 -0.744,0.7 -0.013,0.398 0.3,0.732 0.7,0.745zm-1.689 -3.514c-0.398,-0.013 -0.732,0.3 -0.745,0.7 -0.012,0.398 0.3,0.732 0.7,0.745 0.4,0.012 0.732,-0.3 0.745,-0.7 0.012,-0.4 -0.3,-0.732 -0.7,-0.745zm-2.478 -1.371c-0.012,0.399 0.3,0.732 0.7,0.745 0.398,0.012 0.732,-0.3 0.745,-0.7 0.012,-0.398 -0.3,-0.732 -0.7,-0.745 -0.4,-0.012 -0.732,0.301 -0.745,0.7zm-1.035 -1.324c0.398,0.012 0.732,-0.3 0.745,-0.7 0.012,-0.398 -0.3,-0.732 -0.7,-0.745 -0.398,-0.012 -0.732,0.3 -0.745,0.7 -0.012,0.4 0.3,0.732 0.7,0.745zm7.185 3.141c-0.398,-0.012 -0.732,0.301 -0.744,0.701 -0.013,0.399 0.3,0.732 0.7,0.744 0.399,0.013 0.731,-0.3 0.744,-0.7 0.013,-0.399 -0.3,-0.732 -0.7,-0.745zm-1.779 -0.625c0.398,0.012 0.732,-0.301 0.744,-0.7 0.013,-0.399 -0.3,-0.732 -0.7,-0.745 -0.399,-0.013 -0.732,0.3 -0.744,0.7 -0.013,0.398 0.3,0.732 0.7,0.745zm-1.734 -2.07c0.399,0.013 0.732,-0.299 0.745,-0.699 0.013,-0.399 -0.3,-0.732 -0.7,-0.745 -0.398,-0.013 -0.732,0.3 -0.745,0.7 -0.012,0.4 0.301,0.732 0.7,0.744zm-1.734 -2.07c0.398,0.012 0.732,-0.301 0.744,-0.7 0.013,-0.398 -0.3,-0.732 -0.7,-0.745 -0.398,-0.012 -0.732,0.3 -0.744,0.7 -0.013,0.4 0.3,0.732 0.7,0.745zm7.287 4.462c0.398,0.013 0.732,-0.3 0.745,-0.7 0.012,-0.4 -0.3,-0.732 -0.7,-0.745 -0.4,-0.012 -0.732,0.3 -0.745,0.701 -0.012,0.398 0.3,0.732 0.7,0.744zm-1.688 -3.514c-0.398,-0.012 -0.732,0.3 -0.745,0.7 -0.013,0.4 0.3,0.732 0.7,0.745 0.398,0.013 0.732,-0.3 0.744,-0.7 0.013,-0.398 -0.299,-0.732 -0.699,-0.745zm-2.478 -1.37c-0.013,0.398 0.3,0.732 0.7,0.745 0.4,0.012 0.732,-0.301 0.744,-0.7 0.013,-0.399 -0.3,-0.733 -0.699,-0.745 -0.399,-0.013 -0.733,0.3 -0.745,0.7zm-1.035 -1.325c0.398,0.013 0.732,-0.3 0.745,-0.7 0.012,-0.399 -0.301,-0.732 -0.7,-0.744 -0.4,-0.013 -0.732,0.3 -0.745,0.699 -0.013,0.399 0.3,0.732 0.7,0.745zm7.185 3.142c-0.398,-0.013 -0.732,0.3 -0.745,0.7 -0.013,0.398 0.3,0.732 0.7,0.745 0.398,0.012 0.732,-0.3 0.745,-0.7 0.012,-0.4 -0.3,-0.733 -0.7,-0.745zm-1.78 -0.626c0.399,0.012 0.732,-0.3 0.745,-0.7 0.012,-0.398 -0.3,-0.732 -0.7,-0.745 -0.398,-0.012 -0.732,0.3 -0.745,0.7 -0.012,0.398 0.301,0.732 0.7,0.745zm-1.733 -2.071c0.398,0.013 0.732,-0.3 0.745,-0.7 0.013,-0.399 -0.3,-0.732 -0.7,-0.744 -0.4,-0.013 -0.732,0.3 -0.745,0.699 -0.012,0.4 0.3,0.732 0.7,0.745zm-1.733 -2.069c0.398,0.013 0.732,-0.3 0.745,-0.7 0.012,-0.398 -0.301,-0.732 -0.7,-0.744 -0.4,-0.013 -0.732,0.3 -0.745,0.699 -0.013,0.399 0.3,0.732 0.7,0.745zm7.286 4.463c0.398,0.012 0.732,-0.3 0.745,-0.701 0.012,-0.398 -0.301,-0.732 -0.7,-0.744 -0.399,-0.013 -0.732,0.3 -0.745,0.7 -0.013,0.4 0.3,0.732 0.7,0.745zm-1.687 -3.514c-0.398,-0.013 -0.732,0.3 -0.745,0.7 -0.012,0.399 0.3,0.732 0.7,0.744 0.4,0.013 0.732,-0.299 0.745,-0.699 0.012,-0.4 -0.3,-0.733 -0.7,-0.745zm-2.479 -1.371c-0.013,0.398 0.3,0.732 0.699,0.745 0.399,0.012 0.732,-0.3 0.745,-0.7 0.013,-0.4 -0.3,-0.732 -0.7,-0.745 -0.4,-0.012 -0.732,0.3 -0.744,0.7zm-1.035 -1.326c0.398,0.013 0.732,-0.3 0.745,-0.7 0.012,-0.398 -0.301,-0.732 -0.7,-0.745 -0.4,-0.012 -0.732,0.3 -0.745,0.7 -0.013,0.4 0.3,0.732 0.7,0.745zm7.186 3.142c-0.398,-0.013 -0.732,0.3 -0.745,0.7 -0.012,0.4 0.301,0.732 0.7,0.744 0.4,0.013 0.733,-0.299 0.745,-0.699 0.013,-0.398 -0.3,-0.732 -0.7,-0.745zm-1.779 -0.626c0.398,0.012 0.732,-0.3 0.744,-0.7 0.013,-0.4 -0.3,-0.732 -0.7,-0.745 -0.399,-0.013 -0.732,0.3 -0.744,0.7 -0.013,0.398 0.3,0.732 0.7,0.745zm-1.735 -2.069c0.398,0.012 0.732,-0.301 0.745,-0.7 0.012,-0.4 -0.301,-0.732 -0.7,-0.745 -0.4,-0.013 -0.732,0.3 -0.745,0.7 -0.013,0.398 0.3,0.732 0.7,0.745zm-1.733 -2.07c0.398,0.013 0.732,-0.299 0.744,-0.699 0.013,-0.398 -0.3,-0.732 -0.7,-0.745 -0.398,-0.013 -0.732,0.3 -0.744,0.7 -0.013,0.398 0.3,0.732 0.7,0.744zm7.287 4.461c0.398,0.013 0.732,-0.3 0.745,-0.7 0.012,-0.399 -0.3,-0.732 -0.7,-0.744 -0.4,-0.013 -0.732,0.3 -0.745,0.7 -0.012,0.398 0.3,0.732 0.7,0.744zm-1.688 -3.513c-0.398,-0.013 -0.732,0.3 -0.745,0.7 -0.012,0.398 0.3,0.732 0.7,0.744 0.398,0.013 0.732,-0.3 0.745,-0.699 0.012,-0.399 -0.3,-0.732 -0.7,-0.745zm-2.48 -1.371c-0.012,0.398 0.3,0.732 0.7,0.744 0.4,0.013 0.732,-0.3 0.745,-0.699 0.012,-0.398 -0.3,-0.732 -0.7,-0.745 -0.398,-0.013 -0.732,0.3 -0.745,0.7zm-1.035 -1.325c0.399,0.013 0.732,-0.3 0.745,-0.7 0.013,-0.399 -0.3,-0.732 -0.7,-0.744 -0.399,-0.013 -0.732,0.3 -0.745,0.7 -0.012,0.4 0.3,0.732 0.7,0.744zm7.187 3.142c-0.398,-0.012 -0.732,0.3 -0.745,0.7 -0.012,0.398 0.3,0.732 0.7,0.745 0.398,0.013 0.732,-0.3 0.745,-0.7 0.012,-0.398 -0.3,-0.732 -0.7,-0.745zm-1.78 -0.626c0.399,0.013 0.732,-0.3 0.745,-0.7 0.013,-0.398 -0.3,-0.732 -0.7,-0.744 -0.398,-0.013 -0.732,0.3 -0.744,0.699 -0.013,0.4 0.299,0.732 0.699,0.745zm-1.734 -2.069c0.398,0.012 0.732,-0.3 0.745,-0.7 0.012,-0.398 -0.301,-0.732 -0.701,-0.745 -0.4,-0.012 -0.732,0.301 -0.744,0.7 -0.013,0.4 0.3,0.732 0.7,0.745zm-1.733 -2.071c0.398,0.013 0.732,-0.3 0.744,-0.7 0.013,-0.4 -0.3,-0.732 -0.7,-0.744 -0.4,-0.013 -0.732,0.3 -0.744,0.7 -0.013,0.399 0.3,0.732 0.7,0.744zm7.287 4.463c0.398,0.012 0.732,-0.3 0.745,-0.7 0.012,-0.399 -0.3,-0.732 -0.7,-0.745 -0.398,-0.012 -0.732,0.3 -0.745,0.7 -0.013,0.4 0.3,0.732 0.7,0.745zm-1.689 -3.514c-0.398,-0.012 -0.732,0.3 -0.744,0.7 -0.013,0.4 0.3,0.732 0.7,0.745 0.4,0.012 0.732,-0.3 0.744,-0.7 0.013,-0.398 -0.3,-0.733 -0.7,-0.745zm-2.477 -1.371c-0.013,0.398 0.3,0.732 0.7,0.745 0.399,0.013 0.732,-0.3 0.745,-0.7 0.012,-0.4 -0.301,-0.732 -0.701,-0.744 -0.4,-0.013 -0.732,0.299 -0.744,0.699zm6.15 1.816c-0.398,-0.012 -0.732,0.3 -0.745,0.7 -0.013,0.4 0.3,0.732 0.7,0.745 0.4,0.012 0.732,-0.3 0.745,-0.7 0.012,-0.398 -0.3,-0.732 -0.7,-0.745zm-1.78 -0.624c0.398,0.012 0.732,-0.301 0.745,-0.7 0.012,-0.4 -0.3,-0.732 -0.7,-0.745 -0.4,-0.013 -0.732,0.3 -0.745,0.7 -0.012,0.4 0.3,0.732 0.7,0.745zm-1.733 -2.071c0.398,0.012 0.732,-0.3 0.745,-0.7 0.012,-0.4 -0.301,-0.732 -0.7,-0.745 -0.4,-0.013 -0.732,0.3 -0.745,0.7 -0.012,0.399 0.3,0.732 0.7,0.745zm5.553 2.392c0.398,0.012 0.732,-0.301 0.745,-0.7 0.012,-0.4 -0.3,-0.732 -0.701,-0.745 -0.399,-0.013 -0.732,0.3 -0.744,0.7 -0.013,0.4 0.3,0.732 0.7,0.745zm-1.688 -3.514c-0.399,-0.013 -0.733,0.3 -0.745,0.7 -0.013,0.398 0.3,0.732 0.699,0.744 0.399,0.013 0.733,-0.3 0.745,-0.699 0.013,-0.399 -0.3,-0.732 -0.699,-0.745zm3.671 0.446c-0.398,-0.012 -0.732,0.301 -0.744,0.7 -0.013,0.4 0.3,0.732 0.7,0.745 0.398,0.013 0.732,-0.3 0.744,-0.7 0.013,-0.398 -0.3,-0.732 -0.7,-0.745zm-61.79 13.424c0.399,0.013 0.732,-0.3 0.745,-0.7 0.013,-0.4 -0.3,-0.732 -0.7,-0.744 -0.4,-0.013 -0.732,0.3 -0.745,0.699 -0.012,0.399 0.301,0.733 0.7,0.745zm1.984 -3.067c-0.398,-0.012 -0.732,0.3 -0.745,0.7 -0.013,0.4 0.3,0.732 0.7,0.745 0.4,0.012 0.732,-0.301 0.745,-0.7 0.012,-0.399 -0.3,-0.732 -0.7,-0.745zm-1.035 -1.326c0.013,-0.398 -0.3,-0.732 -0.7,-0.745 -0.4,-0.012 -0.732,0.3 -0.744,0.7 -0.013,0.4 0.3,0.732 0.7,0.745 0.399,0.013 0.732,-0.3 0.744,-0.7zm3.075 1.023c0.398,0.012 0.732,-0.301 0.745,-0.7 0.012,-0.399 -0.3,-0.732 -0.7,-0.745 -0.398,-0.012 -0.732,0.3 -0.745,0.7 -0.013,0.4 0.3,0.732 0.7,0.745zm-1.688 -3.514c-0.399,-0.013 -0.732,0.3 -0.745,0.7 -0.013,0.398 0.3,0.732 0.7,0.744 0.399,0.013 0.732,-0.3 0.744,-0.699 0.013,-0.4 -0.3,-0.732 -0.699,-0.745zm-1.734 -2.071c-0.398,-0.012 -0.732,0.3 -0.744,0.701 -0.013,0.397 0.3,0.731 0.7,0.744 0.398,0.013 0.732,-0.3 0.744,-0.7 0.013,-0.4 -0.3,-0.732 -0.7,-0.745zm-1.779 -0.624c0.398,0.012 0.732,-0.3 0.744,-0.7 0.013,-0.398 -0.3,-0.732 -0.7,-0.745 -0.398,-0.013 -0.732,0.3 -0.744,0.7 -0.013,0.398 0.3,0.732 0.7,0.745zm7.185 3.14c-0.398,-0.013 -0.732,0.3 -0.745,0.7 -0.012,0.4 0.3,0.732 0.7,0.745 0.4,0.012 0.732,-0.3 0.745,-0.701 0.012,-0.399 -0.3,-0.732 -0.7,-0.744zm-1.035 -1.325c0.012,-0.398 -0.3,-0.732 -0.7,-0.744 -0.4,-0.013 -0.732,0.3 -0.745,0.7 -0.012,0.398 0.3,0.732 0.7,0.745 0.398,0.012 0.732,-0.301 0.745,-0.701zm-2.478 -1.37c0.398,0.012 0.732,-0.3 0.745,-0.7 0.012,-0.4 -0.3,-0.732 -0.7,-0.745 -0.398,-0.012 -0.732,0.3 -0.745,0.7 -0.012,0.398 0.3,0.732 0.7,0.745zm-1.735 -2.069c0.398,0.012 0.732,-0.3 0.745,-0.7 0.012,-0.399 -0.3,-0.733 -0.7,-0.745 -0.398,-0.012 -0.732,0.3 -0.745,0.7 -0.013,0.4 0.3,0.732 0.7,0.745zm7.288 4.461c0.398,0.012 0.732,-0.301 0.744,-0.701 0.013,-0.398 -0.3,-0.732 -0.699,-0.744 -0.4,-0.013 -0.732,0.3 -0.745,0.7 -0.013,0.4 0.3,0.732 0.7,0.745zm-1.689 -3.514c-0.398,-0.013 -0.732,0.3 -0.744,0.7 -0.013,0.399 0.3,0.732 0.7,0.745 0.399,0.012 0.732,-0.301 0.744,-0.701 0.013,-0.398 -0.3,-0.732 -0.7,-0.744zm-1.733 -2.069c-0.398,-0.013 -0.732,0.3 -0.745,0.699 -0.012,0.4 0.3,0.733 0.7,0.745 0.4,0.013 0.732,-0.3 0.745,-0.699 0.013,-0.399 -0.3,-0.733 -0.7,-0.745zm-1.78 -0.626c0.399,0.012 0.732,-0.301 0.745,-0.7 0.013,-0.4 -0.3,-0.733 -0.7,-0.745 -0.399,-0.012 -0.732,0.3 -0.744,0.7 -0.013,0.4 0.3,0.732 0.699,0.745zm7.186 3.141c-0.399,-0.012 -0.732,0.3 -0.745,0.7 -0.013,0.4 0.3,0.732 0.7,0.745 0.4,0.013 0.732,-0.3 0.744,-0.7 0.013,-0.398 -0.3,-0.732 -0.699,-0.745zm-1.035 -1.324c0.012,-0.398 -0.301,-0.732 -0.7,-0.745 -0.399,-0.013 -0.732,0.3 -0.745,0.7 -0.013,0.4 0.3,0.732 0.7,0.745 0.4,0.013 0.732,-0.3 0.745,-0.7zm-2.478 -1.371c0.398,0.013 0.732,-0.3 0.744,-0.7 0.013,-0.4 -0.3,-0.732 -0.7,-0.744 -0.399,-0.013 -0.732,0.3 -0.744,0.7 -0.013,0.399 0.3,0.732 0.7,0.744zm5.552 2.392c0.399,0.012 0.732,-0.3 0.745,-0.7 0.013,-0.4 -0.3,-0.732 -0.7,-0.745 -0.398,-0.013 -0.732,0.3 -0.744,0.7 -0.013,0.398 0.299,0.732 0.699,0.745zm-1.686 -3.514c-0.399,-0.012 -0.732,0.3 -0.745,0.7 -0.012,0.398 0.3,0.732 0.7,0.745 0.4,0.013 0.732,-0.3 0.745,-0.7 0.012,-0.4 -0.301,-0.732 -0.7,-0.745zm3.67 0.447c-0.398,-0.013 -0.732,0.3 -0.744,0.7 -0.013,0.399 0.3,0.732 0.699,0.744 0.4,0.013 0.732,-0.3 0.745,-0.7 0.013,-0.399 -0.3,-0.732 -0.7,-0.744zm72.738 137.255l-9.083 -1.327 -0.208 0.35 9.083 1.329 0.208 -0.352zm-7.329 -2.647l9.083 1.328 0.208 -0.35 -9.085 -1.329 -0.206 0.351zm11.253 -0.693l-9.084 -1.329 -0.206 0.351 9.082 1.328 0.208 -0.35zm1.962 -1.671l-9.084 -1.328 -0.206 0.352 9.082 1.326 0.208 -0.35zm1.962 -1.67l-9.084 -1.329 -0.206 0.352 9.083 1.327 0.207 -0.35zm1.962 -1.671l-9.084 -1.329 -0.206 0.352 9.083 1.327 0.207 -0.35zm-7.328 -2.647l9.083 1.327 0.208 -0.351 -9.085 -1.328 -0.206 0.352zm1.963 -1.671l9.082 1.327 0.208 -0.351 -9.085 -1.328 -0.205 0.352zm11.252 -0.694l-9.084 -1.329 -0.206 0.352 9.082 1.327 0.208 -0.35zm-56.331 -32.86l1.452 0.116 36.784 -31.264 -1.451 -0.116 -36.785 31.264z"/>
    </g>
   </g>
   <g clip-path="url(#id2)">
    <path fill="none" d="M69.622 5.532c-9.32,-0.113 -15.317,-0.1 -21.532,-0.475 -6.215,-0.375 -12.649,-1.137 -18.001,-2.044 -5.351,-0.908 -9.62,-1.96 -13.89,-3.013l-2.056 6.766c-2.101,6.05 -3.233,10.386 -4.916,16.285 -0.249,0.873 -0.435,1.453 -0.642,2.333 -2.36,10.025 -4.55,19.989 -6.162,30.214 -0.554,3.516 -0.787,7.435 -1.226,10.942l-0.435 5.757c-0.045,1.83 -0.234,3.899 -0.37,5.626 -0.078,0.987 0.009,2.192 -0.003,3.205 -0.013,1.158 -0.208,1.511 -0.203,2.794 0.009,2.038 0.069,4.202 0.011,6.226 -0.028,1.013 -0.181,1.575 -0.197,2.723l0.192 9.099c-0.03,8.303 0.172,15.985 0.183,24.267 0.002,1.267 0.207,1.666 0.202,2.996 -0.004,0.925 -0.065,2.104 0.005,3.001 0.131,1.645 0.218,4.048 0.519,5.469 1.056,4.985 5.703,6.849 10.073,7.859 3.312,0.766 6.714,1.111 10.138,1.576 4.01,0.545 19.376,0.399 23.493,-0.086 6.45,-0.761 15.507,-0.276 22.162,-1.971 7.272,-1.853 6.398,-2.822 7.435,-7.425 0.87,-3.869 2.219,-13.998 3.169,-16.919 0.807,-2.484 1.721,-7.868 2.195,-10.524 0.344,-1.99 1.133,-3.678 1.718,-5.612 1.344,-4.441 1.694,-7.626 2.92,-12.169 0.377,-1.398 0.722,-2.38 1.102,-3.854 0.997,-3.864 2.19,-8.249 2.968,-12.117 0.575,-2.856 1.095,-5.36 1.653,-8.289l2.191 -12.734c0.189,-0.998 0.23,-2.248 1.182,-2.596 0,-15.663 0,-31.326 0,-46.989 -8.306,-0.086 -16.998,-0.238 -23.878,-0.321z"/>
    <g>
    </g>
   </g>
   <g clip-path="url(#id3)">
   </g>
   <g clip-path="url(#id4)">
    <path id="perna-direita" fill="none" d="M128.291 5.496c-7.321,0.274 -15.692,0.449 -26.199,0.418 -2.75,-0.008 -5.647,-0.031 -8.592,-0.061 0,15.663 0,31.326 0,46.989 0.952,0.348 0.993,1.598 1.182,2.596l2.191 12.734c0.558,2.929 1.077,5.433 1.652,8.289 0.779,3.868 1.972,8.253 2.968,12.117 0.38,1.474 0.725,2.456 1.103,3.854 1.226,4.543 1.576,7.728 2.919,12.169 0.585,1.934 1.375,3.622 1.719,5.612 0.473,2.654 1.389,8.042 2.195,10.524 0.949,2.921 2.299,13.05 3.169,16.919 1.037,4.603 0.163,5.572 7.434,7.425 6.656,1.695 15.712,1.21 22.163,1.971 4.117,0.485 19.483,0.631 23.492,0.086 3.425,-0.465 6.827,-0.81 10.138,-1.576 4.371,-1.01 9.018,-2.874 10.074,-7.859 0.301,-1.421 0.388,-3.824 0.519,-5.469 0.07,-0.897 0.009,-2.076 0.005,-3.001 -0.005,-1.33 0.2,-1.729 0.202,-2.996 0.011,-8.282 0.213,-15.964 0.183,-24.267l0.191 -8.764 -0.196 -3.058c-0.058,-2.024 0.002,-4.188 0.011,-6.226 0.004,-1.283 -0.19,-1.636 -0.204,-2.794 -0.011,-1.013 0.076,-2.218 -0.002,-3.205 -0.136,-1.727 -0.325,-3.796 -0.37,-5.626l-0.436 -5.757c-0.439,-3.507 -0.671,-7.426 -1.225,-10.942 -1.612,-10.225 -3.802,-20.189 -6.162,-30.214 -0.207,-0.88 -0.394,-1.46 -0.643,-2.333 -1.682,-5.899 -2.814,-10.235 -4.915,-16.285l-2.057 -6.766c-2.951,0.866 -5.902,1.731 -9.677,2.477 -3.774,0.745 -8.371,1.369 -13.806,1.869 -5.434,0.5 -11.706,0.875 -19.026,1.15z"/>
   </g>
  </g>
  <path fill="none" d="M69.622 5.532c-9.32,-0.113 -15.317,-0.1 -21.532,-0.475 -6.215,-0.375 -12.649,-1.137 -18.001,-2.044 -5.351,-0.908 -9.62,-1.96 -13.89,-3.013l-2.056 6.766c-2.101,6.05 -3.233,10.386 -4.916,16.285 -0.249,0.873 -0.435,1.453 -0.642,2.333 -2.36,10.025 -4.55,19.989 -6.162,30.214 -0.554,3.516 -0.787,7.435 -1.226,10.942l-0.435 5.757c-0.045,1.83 -0.234,3.899 -0.37,5.626 -0.078,0.987 0.009,2.192 -0.003,3.205 -0.013,1.158 -0.208,1.511 -0.203,2.794 0.009,2.038 0.069,4.202 0.011,6.226 -0.028,1.013 -0.181,1.575 -0.197,2.723l0.192 9.099c-0.03,8.303 0.172,15.985 0.183,24.267 0.002,1.267 0.207,1.666 0.202,2.996 -0.004,0.925 -0.065,2.104 0.005,3.001 0.131,1.645 0.218,4.048 0.519,5.469 1.056,4.985 5.703,6.849 10.073,7.859 3.312,0.766 6.714,1.111 10.138,1.576 4.01,0.545 19.376,0.399 23.493,-0.086 6.45,-0.761 15.507,-0.276 22.162,-1.971 7.272,-1.853 6.398,-2.822 7.435,-7.425 0.87,-3.869 2.219,-13.998 3.169,-16.919 0.807,-2.484 1.721,-7.868 2.195,-10.524 0.344,-1.99 1.133,-3.678 1.718,-5.612 1.344,-4.441 1.694,-7.626 2.92,-12.169 0.377,-1.398 0.722,-2.38 1.102,-3.854 0.997,-3.864 2.19,-8.249 2.968,-12.117 0.575,-2.856 1.095,-5.36 1.653,-8.289l2.191 -12.734c0.189,-0.998 0.23,-2.248 1.182,-2.596 0.952,0.348 0.993,1.598 1.182,2.596l2.191 12.734c0.558,2.929 1.077,5.433 1.652,8.289 0.779,3.868 1.972,8.253 2.968,12.117 0.38,1.474 0.725,2.456 1.103,3.854 1.226,4.543 1.576,7.728 2.919,12.169 0.585,1.934 1.375,3.622 1.719,5.612 0.473,2.654 1.389,8.042 2.195,10.524 0.949,2.921 2.299,13.05 3.169,16.919 1.037,4.603 0.163,5.572 7.434,7.425 6.656,1.695 15.712,1.21 22.163,1.971 4.117,0.485 19.483,0.631 23.492,0.086 3.425,-0.465 6.827,-0.81 10.138,-1.576 4.371,-1.01 9.018,-2.874 10.074,-7.859 0.301,-1.421 0.388,-3.824 0.519,-5.469 0.07,-0.897 0.009,-2.076 0.005,-3.001 -0.005,-1.33 0.2,-1.729 0.202,-2.996 0.011,-8.282 0.213,-15.964 0.183,-24.267l0.191 -8.764 -0.196 -3.058c-0.058,-2.024 0.002,-4.188 0.011,-6.226 0.004,-1.283 -0.19,-1.636 -0.204,-2.794 -0.011,-1.013 0.076,-2.218 -0.002,-3.205 -0.136,-1.727 -0.325,-3.796 -0.37,-5.626l-0.436 -5.757c-0.439,-3.507 -0.671,-7.426 -1.225,-10.942 -1.612,-10.225 -3.802,-20.189 -6.162,-30.214 -0.207,-0.88 -0.394,-1.46 -0.643,-2.333 -1.682,-5.899 -2.814,-10.235 -4.915,-16.285l-2.057 -6.766c-2.951,0.866 -5.902,1.731 -9.677,2.477 -3.774,0.745 -8.371,1.369 -13.806,1.869 -5.434,0.5 -11.706,0.875 -19.026,1.15 -7.321,0.274 -15.692,0.449 -26.199,0.418 -10.507,-0.031 -23.15,-0.269 -32.47,-0.382z"/>
 </g>
</svg>
