<?xml version="1.0" encoding="UTF-8"?>
<!DOCTYPE svg PUBLIC "-//W3C//DTD SVG 1.1//EN" "http://www.w3.org/Graphics/SVG/1.1/DTD/svg11.dtd">
<!-- Creator: CorelDRAW 2018 (64 Bit Versão de avaliação) -->
<svg xmlns="http://www.w3.org/2000/svg" xml:space="preserve" width="232px" height="294px" version="1.1" shape-rendering="geometricPrecision" text-rendering="geometricPrecision" image-rendering="optimizeQuality" fill-rule="evenodd" clip-rule="evenodd" viewBox="0 0 224820 284513" xmlns:xlink="http://www.w3.org/1999/xlink">
	<path class="fundo_gola" d="M97449 11145c-2877,-192 -5784,-414 -8126,-798 -2342,-383 -4118,-928 -5007,-1201 -888,-272 -888,-272 91,1010 979,1281 2938,3845 5471,6046 2534,2200 5643,4037 8873,5653 3230,1614 6581,3008 9085,3745 2503,736 4158,817 6813,292 2655,-525 6309,-1655 8964,-2705 2654,-1050 4310,-2019 5965,-3159 1656,-1141 3311,-2454 4926,-3988 1615,-1534 3190,-3290 4280,-4582 1090,-1292 1696,-2120 1999,-2534 303,-414 303,-414 303,-414 0,0 0,0 -1394,333 -1392,333 -4178,1000 -7560,1535 -3382,535 -7358,938 -11810,1130 -4451,192 -9378,172 -13264,81 -3886,-91 -6732,-253 -9609,-444z"/>
</svg>
