<?xml version="1.0" encoding="UTF-8"?>
<!DOCTYPE svg PUBLIC "-//W3C//DTD SVG 1.1//EN" "http://www.w3.org/Graphics/SVG/1.1/DTD/svg11.dtd">
<!-- Creator: CorelDRAW 2021 (64 Bit) -->
<svg xmlns="http://www.w3.org/2000/svg" xml:space="preserve" width="240px" height="294px" version="1.1" shape-rendering="geometricPrecision" text-rendering="geometricPrecision" image-rendering="optimizeQuality" fill-rule="evenodd" clip-rule="evenodd"
viewBox="0 0 224.82 284.513"
 xmlns:xlink="http://www.w3.org/1999/xlink"
 xmlns:xodm="http://www.corel.com/coreldraw/odm/2003">
   <path class="gola_fundo" d="M105.279 37.001c2.126,1.764 3.731,2.878 4.534,3.435 0.803,0.556 0.803,0.556 0.803,0.556 0,0 0,0 0.933,-0.535 0.933,-0.535 2.798,-1.605 5.402,-3.456 2.603,-1.852 5.944,-4.484 8.859,-7.341 2.914,-2.856 5.402,-5.937 7.347,-8.374 1.945,-2.437 3.348,-4.23 4.606,-6.436 1.259,-2.206 2.373,-4.824 3.088,-6.61 0.716,-1.786 1.035,-2.741 1.194,-3.218 0.159,-0.477 0.159,-0.477 0.159,-0.477 0,0 0,0 -1.266,0.239 -1.265,0.238 -3.796,0.715 -6.472,1.272 -2.676,0.557 -5.496,1.193 -7.324,1.536 -1.828,0.343 -2.663,0.392 -4.213,0.483 -1.551,0.091 -3.817,0.223 -7.149,0.377 -3.332,0.154 -7.732,0.33 -11.867,0.231 -4.135,-0.099 -8.007,-0.473 -11.64,-1.049 -3.634,-0.577 -7.029,-1.356 -8.727,-1.745 -1.698,-0.39 -1.698,-0.39 -1.698,-0.39 0,0 0,0 0.644,1.526 0.643,1.526 1.931,4.578 3.572,7.478 1.642,2.9 3.638,5.648 5.663,8.273 2.025,2.625 4.078,5.127 6.429,7.586 2.35,2.459 4.997,4.874 7.123,6.639z"/>
</svg>