<?xml version="1.0" encoding="UTF-8"?>
<!DOCTYPE svg PUBLIC "-//W3C//DTD SVG 1.1//EN" "http://www.w3.org/Graphics/SVG/1.1/DTD/svg11.dtd">
<!-- Creator: CorelDRAW 2018 (64 Bit Versão de avaliação) -->
<svg xmlns="http://www.w3.org/2000/svg" xml:space="preserve" width="221px" height="293px" version="1.1" shape-rendering="geometricPrecision" text-rendering="geometricPrecision" image-rendering="optimizeQuality" fill-rule="evenodd" clip-rule="evenodd" viewBox="0 0 221000 293328" xmlns:xlink="http://www.w3.org/1999/xlink">
	<path class="fundo_gola" d="M122229 53305c4475,-4350 9776,-10051 13601,-15602 3826,-5551 6176,-10952 7427,-15827 1250,-4876 1400,-9227 1300,-11402 -100,-2175 -450,-2175 -2325,-2325 -1876,-150 -5276,-450 -12202,-675 -6926,-225 -17378,-375 -26829,-350 -9451,25 -17902,225 -22197,300 -4294,74 -4432,25 -4813,137 -381,112 -1007,388 -1244,1788 -238,1400 -88,3925 644,7238 731,3313 2044,7414 3975,11440 1932,4025 4482,7975 7133,11751 2650,3776 5400,7376 9376,11327 3976,3950 9176,8251 11777,10401l2600 2150 1825 -1500c1826,-1500 5476,-4500 9952,-8851z"/>
</svg>
