<?xml version="1.0" encoding="UTF-8"?>
<!DOCTYPE svg PUBLIC "-//W3C//DTD SVG 1.1//EN" "http://www.w3.org/Graphics/SVG/1.1/DTD/svg11.dtd">
<!-- Creator: CorelDRAW 2018 (64 Bit Versão de avaliação) -->
<svg xmlns="http://www.w3.org/2000/svg" xml:space="preserve" width="258px" height="307px" version="1.1" shape-rendering="geometricPrecision" text-rendering="geometricPrecision" image-rendering="optimizeQuality" fill-rule="evenodd" clip-rule="evenodd" viewBox="0 0 250902 298736" xmlns:xlink="http://www.w3.org/1999/xlink">
	<path class="gola_3" d="M115679 34002c-2,-564 -5,-1122 -10,-1653 -9,-793 -25,-1531 -52,-2160 -30,-652 -71,-1197 -134,-1693 -63,-504 -147,-969 -259,-1454 -58,-247 -122,-500 -195,-753 132,13 139,76 354,134 214,59 517,233 1250,289 181,14 988,115 1172,129 3679,259 7629,225 11653,174 2190,-27 4334,-384 6333,-538 733,-56 1300,-115 1569,-142 152,-16 320,-34 452,-47 -73,254 -137,507 -194,754 -113,485 -197,950 -260,1454 -62,495 -104,1041 -133,1693 -28,629 -44,1367 -52,2159 -5,532 -8,1090 -10,1653 -484,62 -973,113 -1471,158 -2891,265 -6062,302 -9271,308 -3209,-6 -6380,-43 -9271,-308 -498,-45 -987,-96 -1471,-158l0 1z"/>
</svg>
