<?xml version="1.0" encoding="utf-8"?>
<!-- Generator: Adobe Illustrator 19.0.0, SVG Export Plug-In . SVG Version: 6.00 Build 0)  -->
<svg version="1.1" xmlns="http://www.w3.org/2000/svg" xmlns:xlink="http://www.w3.org/1999/xlink" x="0px" y="0px"
	width="459.7px" height="530px" viewBox="0 0 459.7 530" enable-background="new 0 0 459.7 530" xml:space="preserve" 
	image-rendering="optimizeQuality" text-rendering="geometricPrecision" shape-rendering="geometricPrecision">
	<path d="M165.2,25.7c2.1,2.7,5,6,8.3,9.5c3.3,3.5,6.9,7.2,10,10.4c3.1,3.1,5.6,5.7,9.8,9.4
	c4.2,3.7,10,8.6,14.8,12.3c4.8,3.7,8.5,6.3,12.1,8.6c3.6,2.3,7,4.2,8.7,5.2c1.7,1,1.7,1,1.7,1s0,0,0.2-0.1s0.5-0.3,2.4-1.3
	c1.9-1.1,5.5-3,8.7-4.9s6.1-3.8,8.5-5.5c2.4-1.6,4.4-3.1,9.1-6.9c4.7-3.8,12-10.1,16.8-14.4s7.1-6.6,9.3-8.8
	c2.2-2.2,4.3-4.4,5.8-5.8c1.4-1.4,2.2-2.1,3.6-3.7c1.5-1.6,3.6-4.2,5-6.1c1.4-1.9,2.1-3,2.6-4.2c0.6-1.2,1.1-2.3,1.5-3.7
	c0.4-1.4,0.8-3,0.9-3.8c0.2-0.8,0.2-0.8,0.2-0.8s0,0-0.6,0c-0.6,0-1.7,0-3,0.1c-1.2,0-2.5,0.1-5.2,0.1c-2.7,0-6.7,0.1-9.8,0.1
	c-3.1,0-5.2,0-8.1,0c-2.8-0.1-6.3-0.2-9.4-0.4c-3.1-0.2-5.7-0.3-8.5-0.5c-2.7-0.2-5.5-0.5-8.5-0.7c-3-0.2-6.4-0.3-9.8-0.5
	c-3.4-0.2-7-0.3-11.3-0.4s-9.3-0.1-13.7,0.1c-4.4,0.2-8.1,0.5-12.5,0.8c-4.3,0.3-9.2,0.4-14.2,0.6c-5,0.1-10.2,0.1-13.6,0.1
	c-3.4,0-5.1-0.1-7.6-0.2c-2.5-0.1-5.7-0.2-7.6-0.2c-1.9,0-2.4-0.1-2.7-0.1c-0.3,0-0.3,0-0.3,0s0,0,0,0.1c0,0.1,0,0.2,0,0.3
	s0,0.4,0.1,0.8c0.1,0.3,0.1,0.7,0.4,1.9c0.3,1.2,0.7,3.3,1.5,5.3C161.9,21,163.1,23,165.2,25.7L165.2,25.7z"/>
</svg>
