<?xml version="1.0" encoding="utf-8"?>
<!-- Generator: Adobe Illustrator 19.0.0, SVG Export Plug-In . SVG Version: 6.00 Build 0)  -->
<svg version="1.1" id="Camada_1" xmlns="http://www.w3.org/2000/svg" xmlns:xlink="http://www.w3.org/1999/xlink" x="0px" y="0px"
	width="459.6px" height="548px" viewBox="0 0 459.6 548" enable-background="new 0 0 459.6 548" xml:space="preserve" 
	shape-rendering="geometricPrecision" text-rendering="geometricPrecision" image-rendering="optimizeQuality">
	<path d="M234.2,83.7C234.2,83.7,234.2,83.7,234.2,83.7c0.2-0.4,0.4-0.8,0.6-1.3
	c0.3-0.5,0.6-1.1,0.9-1.9c0.2-0.7,0.4-1.6,0.2-2.3c-0.2-0.7-0.6-1.3-1.1-1.7c-0.1-0.1-0.2-0.2-0.3-0.2c-0.4-0.2-0.8-0.4-1.3-0.3
	c-0.7,0-1.5,0.2-2.1,0.5c-0.6,0.3-1.1,0.6-1.9,0.5c-0.5,0-1-0.2-1.6-0.3c-0.4-0.1-0.8-0.1-1.1,0c-0.9,0.2-1.5,1.1-1.7,1.9
	c-0.2,0.8,0,1.6,0.4,2.4c0.4,0.8,1.1,1.6,1.5,2.4c0.1,0.1,0.1,0.2,0.2,0.3c0.3,0.6,0.4,1.2,0.6,1.6c0.2,0.4,0.3,0.5,0.4,2
	c0.1,1.5,0.1,4.3,0.1,15c0,10.7,0,29.2,0,47.8c1.9,0,3.8,0,5.7,0c0-11,0-21.9,0-31.8c0-9.9,0.1-18.7,0.2-24.1c0-5.4,0-7.4,0.1-8.6
	C233.9,84.4,234,84.1,234.2,83.7z"/>
</svg>
