<?xml version="1.0" encoding="utf-8"?>
<!-- Generator: Adobe Illustrator 19.0.0, SVG Export Plug-In . SVG Version: 6.00 Build 0)  -->
<svg version="1.1" xmlns="http://www.w3.org/2000/svg" xmlns:xlink="http://www.w3.org/1999/xlink" x="0px" y="0px"
	 width="459.6px" height="548px" viewBox="0 0 459.6 548" enable-background="new 0 0 459.6 548" xml:space="preserve" 
	 shape-rendering="geometricPrecision" text-rendering="geometricPrecision" image-rendering="optimizeQuality">
	<path d="M177.1,21.7c0.3,1.1,0.6,2.2,1.1,3.4c0.5,1.2,1,2.6,1.8,4s1.6,2.9,2.7,4.4c1.1,1.5,2.4,3.1,3.4,4.2
	c0.9,1.1,1.5,1.7,2.6,2.9c1.1,1.1,2.8,2.8,4.8,4.6c1.9,1.7,4,3.6,6.1,5.3c2.1,1.7,4.1,3.3,6.6,5.2c2.6,1.9,5.7,4.2,7.9,5.8
	c2.3,1.6,3.7,2.4,5.2,3.3c1.5,0.9,3.2,2,4.7,3c1.6,1.1,3,2.2,3.8,2.7c0.8,0.5,0.9,0.5,1.4,0.2c0.5-0.3,1.3-0.7,2.5-1.5
	c1.3-0.7,3-1.7,4.8-2.8c1.8-1.1,3.7-2.3,5.4-3.3c1.7-1.1,3.3-2.1,4.7-3c1.4-1,2.6-1.9,4.2-3c1.5-1.2,3.3-2.6,5-3.9
	c1.7-1.3,3.3-2.6,4.8-3.8c1.4-1.2,2.7-2.3,4.3-3.8c1.6-1.4,3.5-3.2,4.9-4.6c1.4-1.4,2.4-2.5,3.4-3.6c1-1.2,2.1-2.5,3.1-3.9
	c1-1.4,2-3,3-4.8c0.9-1.8,1.8-3.8,2.3-5.3c0.5-1.5,0.6-2.4,0.7-3.4c0.1-1,0.2-2.1,0.2-2.8c0-0.6,0.1-0.8,0-0.9
	c0-0.1-0.1-0.1-0.8,0.1c-0.7,0.2-2,0.6-6,1.2c-3.9,0.6-10.5,1.4-16.2,2c-5.8,0.6-10.7,1-15.6,1.2c-4.8,0.3-9.5,0.4-14.9,0.4
	c-5.4,0-11.5-0.2-16.6-0.5c-5.1-0.3-9.2-0.6-13.7-1.1c-4.5-0.5-9.3-1.1-13.1-1.8c-3.8-0.6-6.6-1.3-9.4-1.9c0,0.8,0.1,1.6,0.2,2.6
	C176.7,19.5,176.9,20.6,177.1,21.7z"/>
</svg>
