<?xml version="1.0" encoding="UTF-8"?>
<!DOCTYPE svg PUBLIC "-//W3C//DTD SVG 1.1//EN" "http://www.w3.org/Graphics/SVG/1.1/DTD/svg11.dtd">
<!-- Creator: CorelDRAW 2018 (64 Bit Versão de avaliação) -->
<svg xmlns="http://www.w3.org/2000/svg" xml:space="preserve" width="240px" height="296px" version="1.1" shape-rendering="geometricPrecision" text-rendering="geometricPrecision" image-rendering="optimizeQuality" fill-rule="evenodd" clip-rule="evenodd" viewBox="0 0 236408 291873" xmlns:xlink="http://www.w3.org/1999/xlink">
	<path class="fundo_gola" d="M100144 25384c2469,1121 5347,2048 7637,2659 2291,610 3995,903 5414,1141 1419,238 2552,420 3297,559 745,139 1102,234 1280,281 178,48 178,48 234,-47 55,-95 166,-286 388,-385 222,-99 555,-107 1486,-198 932,-91 2461,-265 4114,-384 1653,-119 3428,-183 4871,-416 1442,-234 2552,-638 3768,-1114 1217,-476 2541,-1023 4241,-1958 1700,-935 3777,-2259 5283,-3392 1506,-1134 2441,-2077 3404,-3400 963,-1324 1954,-3028 2687,-4820 733,-1791 1209,-3669 1446,-4609 238,-939 238,-939 20,-965 -218,-25 -654,-77 -2195,-99 -1542,-22 -4189,-14 -6904,-22 -2715,-7 -5497,-31 -8212,-114 -2714,-84 -5362,-226 -7561,-270 -2200,-44 -3951,12 -6095,48 -2144,35 -4681,51 -6856,59 -2176,8 -3991,8 -5993,52 -2001,43 -4189,130 -5841,241 -1653,111 -2770,246 -4756,484 -1985,238 -4839,578 -6418,750 -1579,171 -1884,173 -2037,174 -152,1 -152,1 -159,51 -7,49 -21,148 5,447 26,298 91,795 278,1488 188,692 497,1580 941,2511 443,932 1022,1907 1985,3163 963,1256 2311,2794 4015,4221 1704,1426 3765,2742 6233,3864z"/>
</svg>
