<?xml version="1.0" encoding="UTF-8"?>
<!DOCTYPE svg PUBLIC "-//W3C//DTD SVG 1.1//EN" "http://www.w3.org/Graphics/SVG/1.1/DTD/svg11.dtd">
<!-- Creator: CorelDRAW 2021 (64 Bit) -->
<svg xmlns="http://www.w3.org/2000/svg" xml:space="preserve" width="4096px" height="4096px" version="1.1" shape-rendering="geometricPrecision" text-rendering="geometricPrecision" image-rendering="optimizeQuality" fill-rule="evenodd" clip-rule="evenodd"
viewBox="0 0 4096 4096"
 xmlns:xlink="http://www.w3.org/1999/xlink"
 xmlns:xodm="http://www.corel.com/coreldraw/odm/2003">
 <g id="FORMA">
  <metadata id="CorelCorpID_0Corel-Layer"/>
  <g id="_2285227384832">
   <polygon id="retangulo" fill="none" points="0,4096 4096,4096 4096,0 0,0 "/>
   <g>
    <path id="manga-braco_dir." fill="black" d="M262.813 822.725c-60.89,-119.071 -121.78,-238.143 -182.67,-357.214 10.664,0.444 19.633,0.436 26.34,0.313 7.876,-0.144 13.849,-0.253 21.759,-1.055 2.587,-0.262 11.718,-1.241 23.934,-3.956 22.04,-4.898 40.553,-12.431 52.681,-18.099 3.402,-1.59 18.52,-8.742 36.528,-20.67 10.27,-6.803 18.753,-13.353 24.857,-18.066 7.656,-5.912 13.18,-10.508 19.714,-15.956 9.61,-8.013 16.42,-13.998 27.561,-23.802 10.614,-9.342 11.918,-10.652 26.703,-23.671 8.905,-7.841 13.45,-11.84 18,-15.692 12.572,-10.645 22.321,-18.214 24.857,-20.176 5.448,-4.214 15.359,-11.747 28.154,-20.637 5.403,-3.755 10.575,-7.34 17.802,-11.934 10.44,-6.637 18.938,-11.419 23.472,-13.912 11.739,-6.456 20.918,-10.777 23.539,-12 9.628,-4.494 17.13,-7.502 21.956,-9.429 10.224,-4.081 18.074,-6.795 20.176,-7.517 12.824,-4.402 23.036,-7.193 27.494,-8.373 16.536,-4.377 29.273,-6.542 39.429,-8.242 10.045,-1.681 26.128,-4.329 47.538,-5.736 16.176,-1.064 28.412,-0.96 38.242,-0.857 22.93,0.24 40.047,1.758 44.572,2.176 10.386,0.958 23.339,2.185 40.219,5.34 19.153,3.581 33.36,7.774 45.099,11.275 10.762,3.209 21.498,6.411 35.605,12.066 16.468,6.601 28.469,12.914 37.45,17.67 5.337,2.826 17.238,9.265 31.912,18.593 12.651,8.042 21.816,14.706 28.681,19.715 12.079,8.813 20.864,15.883 27.166,20.967 12.131,9.789 20.801,17.344 30.988,26.242 17.895,15.628 18.381,16.724 34.682,30.923 11.946,10.405 20.249,17.637 32.242,27.099 10.946,8.636 22.493,17.692 38.835,27.956 7.205,4.525 14.217,8.93 24.395,13.978 15.571,7.723 28.644,12.038 38.638,15.296 6.801,2.218 12.368,4.017 20.242,5.802 3.146,0.714 13.263,2.924 26.834,4.088 9.019,0.774 16.957,0.78 32.836,0.792 4.784,0.003 8.735,-0.033 11.406,-0.066 -22.551,46.369 -77.099,158.607 -99.626,204.989 -36.278,74.696 -68.997,142.131 -72.528,149.406 -272.571,0.791 -545.142,1.583 -817.714,2.374z"/>
    <path id="camisa-verso" fill="black" d="M1482.593 970.352c3.073,10.568 7.207,25.429 11.604,43.451 1.991,8.158 3.322,14.037 5.407,23.274 5.603,24.815 8.828,39.099 12,56.374 3.06,16.664 4.647,28.351 7.385,48.526 3.228,23.783 5.052,37.224 6.461,55.65 2.166,28.309 1.951,50.048 1.847,56.835 -0.302,19.629 -0.646,41.989 -5.539,71.209 -5.955,35.557 -15.16,60.446 -17.539,66.724 -4.015,10.601 -9.126,23.896 -18.856,40.089 -3.024,5.032 -11.462,18.61 -25.187,34.022 -10.785,12.109 -20.278,20.236 -24,23.341 -2.164,1.803 -12.255,10.148 -27.429,19.516 -10.384,6.41 -24.457,14.106 -42.066,21.099 4.44,382.142 8.879,764.286 13.319,1146.429 424.813,-2.352 849.626,-4.704 1274.439,-7.056 -0.107,-382.315 -0.214,-764.631 -0.321,-1146.948 -7.57,-2.749 -17.342,-6.751 -28.294,-12.503 -2.173,-1.141 -9.488,-5.027 -18.956,-11.143 -8.61,-5.561 -21.602,-14.044 -36.297,-27.989 -14.481,-13.741 -23.901,-26.416 -28.385,-32.802 -1.382,-1.968 -7.941,-11.384 -15.132,-25.022 -10.483,-19.885 -15.747,-36.299 -19.582,-48.461 -6.018,-19.082 -9.197,-34.951 -10.879,-44.703 -2.867,-16.624 -3.74,-29.132 -4.648,-42.133 -0.293,-4.195 -1.388,-20.53 -1.385,-43.615 0.001,-10.014 0.212,-44.428 5.341,-89.11 0.493,-4.295 1.961,-16.781 4.45,-33.033 2.786,-18.187 5.362,-31.356 8.902,-49.352 2.757,-14.013 5.98,-30.323 10.977,-51.922 4.225,-18.259 8.291,-34.142 11.77,-47.077 -35.172,-10.631 -76.413,-23.078 -108.791,-32.835 -24.236,-7.303 -36.888,-11.107 -55.682,-16.813 -37.979,-11.531 -68.857,-21.056 -89.308,-27.396 -2.077,9.538 -4.93,17.185 -7.318,22.649 -2.833,6.483 -6.212,14.069 -12.857,22.154 -1.704,2.073 -6.906,8.171 -16.814,15.132 -16.584,11.65 -32.486,15.971 -45.494,19.384 -15.642,4.104 -28.201,5.347 -41.143,6.626 -5.787,0.573 -13.672,1.21 -28.087,1.682 -28.498,0.933 -50.38,0.171 -52.485,0.099 -20.329,-0.696 -64.812,-0.956 -170.241,0.89 -18.727,0.96 -34.524,0.329 -46.385,-0.594 -17.033,-1.325 -29.92,-2.403 -46.483,-7.417 -10.779,-3.263 -22.742,-6.995 -36,-16.418 -14.05,-9.986 -21.862,-20.896 -23.637,-23.439 -7.714,-11.049 -11.644,-21.949 -14.143,-28.879 -1.301,-3.608 -2.244,-6.66 -2.869,-8.803 -83.89,26.769 -167.78,53.538 -251.67,80.308z"/>
    <path id="manga-braco_esq." fill="black" d="M1423.66 466.84c57.407,118.132 114.813,236.264 172.22,354.396 272.744,0.7 545.488,1.401 818.234,2.101 60.551,-118.898 121.104,-237.796 181.656,-356.695 -6.988,0.376 -15.474,0.572 -25.121,0.231 -13.99,-0.495 -25.073,-1.929 -31.352,-2.868 -5.955,-0.891 -16.836,-2.553 -30.065,-6.231 -23.322,-6.484 -40.019,-15.363 -51.33,-21.461 -14.631,-7.89 -24.912,-15.01 -33.034,-20.671 -16.962,-11.826 -28.714,-21.835 -43.912,-35.011 -47.717,-41.373 -49.339,-44.556 -72.395,-63.264 -13.193,-10.705 -27.252,-22.053 -47.472,-35.604 -12.049,-8.075 -28.444,-18.98 -51.759,-30.593 -25.44,-12.672 -46.558,-19.931 -56.966,-23.275 -5.542,-1.781 -22.312,-7.034 -44.835,-11.604 -19.311,-3.918 -34.1,-5.557 -43.056,-6.528 -9.937,-1.077 -30.615,-3.027 -57.23,-3.033 -13.831,-0.003 -33.732,0.058 -59.869,3.297 -15.75,1.951 -34.563,5.155 -55.45,10.549 -25.057,6.471 -43.421,13.593 -49.055,15.825 -3.569,1.413 -20.654,8.239 -42.33,19.713 -9.431,4.993 -25.502,13.921 -44.439,26.836 -16.368,11.162 -27.872,20.527 -39.429,29.934 -12.022,9.786 -21.912,18.466 -33.626,28.747 -12.293,10.789 -12.447,11.216 -23.209,20.638 -9.186,8.041 -21.244,18.597 -35.868,30.329 -23.678,18.995 -36.684,27.888 -41.67,31.187 -6.982,4.618 -11.862,7.541 -15.231,9.494 -14.549,8.435 -26.067,13.362 -28.615,14.44 -2.344,0.992 -13.358,5.607 -28.748,10.022 -9.452,2.712 -20.483,5.826 -35.274,7.582 -9.008,1.07 -16.104,1.244 -27.231,1.517 -9.687,0.237 -17.776,0.143 -23.539,0z"/>
    <path id="meiao-perna_dir." fill="black" d="M3344.34 511.45l0 204.86 -596.77 0c0.01,-68.29 0.02,-136.57 0.03,-204.86l596.74 0z"/>
    <path id="meiao-perna_dir._0" fill="black" d="M2784.396 2703c7.094,-7.855 13.254,-14.2 17.802,-18.758 13.31,-13.341 23.913,-23.862 39.461,-34.351 7.326,-4.943 13.36,-8.268 15.825,-9.594 2.147,-1.156 9.976,-5.318 20.867,-9.594 9.286,-3.644 23.479,-8.425 42.133,-11.868 14.483,2.787 26.382,6.442 35.208,9.594 8.445,3.014 17.657,6.35 28.88,12.659 10.739,6.037 17.835,11.715 27.297,19.286 4.912,3.931 13.887,11.367 24.329,21.758 7.791,7.753 14.204,14.967 19.286,21.065 -4.373,3.648 -10.889,8.981 -18.989,15.232 -11.943,9.215 -18.17,13.988 -27.396,19.582 -3.532,2.142 -11.72,6.96 -22.846,11.968 -12.292,5.531 -21.955,8.498 -30.461,11.076 -9.229,2.798 -21.218,5.978 -35.507,8.604 -12.317,-1.919 -25.886,-4.954 -40.251,-9.692 -44.103,-14.546 -75.768,-38.564 -95.638,-56.967z"/>
    <path id="meiao-perna_dir._1" fill="black" d="M3344.24 2122.68c1.8,158.92 3.609,317.851 5.41,476.771 -20.81,-2.991 -37.95,-7.351 -50.57,-11.141 -19.3,-5.8 -34.41,-10.34 -52.49,-21.23 -15.26,-9.2 -27.55,-19.879 -34.281,-25.719 -7.34,-6.361 -13.199,-12.071 -17.409,-16.351 -5.431,5.17 -12.96,11.971 -22.42,19.391 -9.49,7.439 -19.25,15.09 -33.62,22.809 -5.221,2.8 -20.02,10.43 -40.49,16.09 -14.39,3.981 -26.33,5.521 -33.75,6.46 -7.601,0.95 -14.09,1.441 -18.99,1.71 -7.34,-3.29 -17.031,-7.93 -28.09,-14.109 -10.441,-5.83 -21.731,-12.191 -34.95,-22.41 -13.44,-10.411 -22.36,-19.771 -28.48,-26.25 -14.61,-15.46 -24.091,-29 -29.67,-37.05 -5.31,-7.66 -9.5,-14.351 -12.53,-19.391 -7.79,15.17 -15.45,27.29 -21.49,36.141 -8.111,11.849 -14.81,21.559 -25.85,32.439 -2.52,2.481 -9.07,8.771 -25.45,20.57 -11.351,8.17 -27.34,18.92 -47.74,30.331 -18.06,-156.581 -36.13,-313.151 -54.19,-469.721 10.23,-0.14 24.17,-0.84 40.579,-3.23 11.45,-1.67 21.551,-3.139 34.021,-7.12 18.49,-5.9 31.15,-13.78 42.83,-21.16 11.3,-7.149 26.21,-17.85 41.93,-33.24l0.06 -0.01 298.76 -2.5 -0.01 0.01c6.779,6.181 16.05,14.08 27.659,22.48 8.021,5.8 15.521,11.22 26.311,17.01 16.79,9.01 31.15,13.33 42.3,16.62 9.49,2.8 17.45,4.571 27.16,6.72 10.269,2.29 18.99,3.94 25.45,5.08z"/>
    <path id="meiao-perna_dir._2" fill="black" d="M2896.611 2057.26l-0.061 0.01c-6.92,-8.67 -16.759,-19.89 -29.87,-31.64 -9.791,-8.78 -19.831,-17.79 -35.11,-26.31 -17.149,-9.57 -31.869,-13.48 -49.089,-18.07 -14.331,-3.81 -26.49,-5.98 -35.071,-7.25 0.051,-419.23 0.109,-838.46 0.161,-1257.69l596.768 0 0 1253.19c-3.839,0.59 -9.479,1.47 -16.32,2.59 -14.92,2.44 -22.519,3.69 -29.389,5.32 -6.991,1.67 -14.26,3.4 -23.42,7.14 -6.73,2.75 -17.951,8 -29.941,17.21 -5.829,4.48 -9.67,8.23 -15.889,14.31 -7.93,7.75 -14.121,14.67 -18.46,19.78 -5.18,6.3 -10.361,12.6 -15.55,18.91l-298.759 2.5z"/>
    <path id="meiao-perna_esq." fill="black" d="M3425.511 511.45l0 204.86 596.771 0c-0.011,-68.29 -0.021,-136.57 -0.031,-204.86l-596.74 0z"/>
    <path id="meiao-perna_esq._3" fill="black" d="M3985.455 2703c-7.094,-7.855 -13.254,-14.2 -17.802,-18.758 -13.311,-13.341 -23.914,-23.862 -39.462,-34.351 -7.325,-4.943 -13.36,-8.267 -15.824,-9.594 -2.146,-1.156 -9.977,-5.318 -20.868,-9.594 -9.284,-3.644 -23.477,-8.425 -42.132,-11.868 -14.482,2.787 -26.381,6.442 -35.209,9.594 -8.444,3.014 -17.656,6.35 -28.879,12.659 -10.739,6.037 -17.834,11.715 -27.297,19.286 -4.912,3.931 -13.887,11.367 -24.329,21.758 -7.791,7.753 -14.204,14.967 -19.286,21.065 4.373,3.648 10.888,8.981 18.989,15.232 11.943,9.215 18.17,13.988 27.396,19.582 3.533,2.142 11.72,6.96 22.847,11.968 12.292,5.531 21.954,8.498 30.46,11.076 9.23,2.798 21.219,5.978 35.506,8.604 12.319,-1.918 25.887,-4.954 40.253,-9.692 44.102,-14.546 75.767,-38.564 95.637,-56.967z"/>
    <path id="meiao-perna_esq._4" fill="black" d="M3425.611 2122.68c-1.801,158.92 -3.61,317.851 -5.41,476.771 20.809,-2.991 37.95,-7.351 50.569,-11.141 19.301,-5.8 34.41,-10.34 52.49,-21.23 15.26,-9.2 27.55,-19.879 34.281,-25.719 7.34,-6.361 13.2,-12.071 17.41,-16.351 5.43,5.17 12.96,11.971 22.42,19.391 9.49,7.439 19.25,15.09 33.62,22.809 5.22,2.8 20.019,10.43 40.49,16.09 14.39,3.981 26.329,5.521 33.75,6.46 7.6,0.95 14.09,1.441 18.989,1.71 7.34,-3.29 17.031,-7.93 28.09,-14.109 10.441,-5.83 21.731,-12.191 34.95,-22.41 13.441,-10.411 22.361,-19.771 28.481,-26.25 14.609,-15.46 24.09,-29 29.67,-37.05 5.309,-7.66 9.5,-14.351 12.53,-19.391 7.79,15.17 15.449,27.29 21.489,36.141 8.111,11.849 14.811,21.559 25.851,32.439 2.519,2.481 9.069,8.771 25.45,20.57 11.35,8.17 27.34,18.92 47.739,30.331 18.061,-156.581 36.13,-313.151 54.191,-469.721 -10.231,-0.14 -24.17,-0.84 -40.58,-3.23 -11.45,-1.67 -21.55,-3.139 -34.021,-7.12 -18.489,-5.9 -31.149,-13.78 -42.829,-21.16 -11.301,-7.149 -26.211,-17.85 -41.931,-33.24l-0.059 -0.01 -298.76 -2.5 0.01 0.01c-6.78,6.181 -16.05,14.08 -27.66,22.48 -8.021,5.8 -15.521,11.22 -26.311,17.01 -16.789,9.01 -31.149,13.33 -42.3,16.62 -9.489,2.8 -17.45,4.571 -27.16,6.72 -10.269,2.29 -18.989,3.94 -25.449,5.08z"/>
    <path id="meiao-perna_esq._5" fill="black" d="M3873.241 2057.26l0.06 0.01c6.919,-8.67 16.759,-19.89 29.87,-31.64 9.79,-8.78 19.83,-17.79 35.11,-26.31 17.149,-9.57 31.87,-13.48 49.09,-18.07 14.33,-3.81 26.49,-5.98 35.07,-7.25 -0.051,-419.23 -0.11,-838.46 -0.16,-1257.69l-596.77 0 0 1253.19c3.839,0.59 9.48,1.47 16.32,2.59 14.92,2.44 22.519,3.69 29.389,5.32 6.991,1.67 14.261,3.4 23.42,7.14 6.731,2.75 17.951,8 29.941,17.21 5.83,4.48 9.67,8.23 15.889,14.31 7.931,7.75 14.121,14.67 18.46,19.78 5.181,6.3 10.361,12.6 15.551,18.91l298.76 2.5z"/>
    <path id="calcao-frente_perna_dir." fill="black" d="M16.434 2909.638l701.077 0c-0.378,12.459 -0.894,31.029 -1.335,53.703 -0.326,16.749 -0.225,16.394 -0.528,32.176 -0.879,45.93 -1.906,52.922 -2.044,83.703 -0.086,19.201 0.32,15.04 0.297,40.746 -0.03,34.084 -0.739,36.32 -0.494,61.814 0.219,22.875 0.823,24.475 0.89,49.055 0.025,9.459 -0.043,17.145 0.198,30.56 0.233,13.063 0.611,23.323 0.791,27.891 0.736,18.768 1.147,18.456 1.879,36.791 0.652,16.338 0.437,19.524 1.384,29.869 0.841,9.174 1.892,16.321 3.462,23.635 0.82,3.825 1.913,8.849 4.055,15.331 3.406,10.309 7.219,17.51 8.011,18.99 4.102,7.657 8.063,12.85 11.571,17.406 5.598,7.269 9.702,12.599 16.517,18.297 8.926,7.463 17.266,11.18 24.132,14.241 9.274,4.134 16.78,6.154 21.56,7.418 3.158,0.835 11.327,2.893 25.022,4.55 10.349,1.252 24.42,2.345 41.44,1.879 -1.242,31.257 -2.506,62.509 -3.792,93.757 -2.477,60.196 -5.037,120.394 -7.681,180.594 -2.917,72.198 -5.835,144.396 -8.753,216.594 -1.252,29.604 -2.505,59.208 -3.758,88.813 -277.928,0.043 -555.857,0.087 -833.786,0.131 -0.038,-382.648 -0.076,-765.296 -0.115,-1147.944z"/>
    <path id="calcao-frente_perna_esq." fill="black" d="M1778.374 2909.638l-701.078 0c0.378,12.459 0.894,31.029 1.335,53.703 0.326,16.749 0.225,16.394 0.528,32.176 0.879,45.93 1.906,52.922 2.044,83.703 0.086,19.201 -0.32,15.04 -0.297,40.746 0.03,34.084 0.739,36.32 0.494,61.814 -0.219,22.875 -0.823,24.475 -0.89,49.055 -0.025,9.459 0.043,17.145 -0.198,30.56 -0.233,13.063 -0.611,23.323 -0.791,27.891 -0.736,18.768 -1.147,18.456 -1.879,36.791 -0.652,16.338 -0.437,19.524 -1.384,29.869 -0.84,9.174 -1.892,16.321 -3.462,23.635 -0.82,3.825 -1.913,8.849 -4.055,15.331 -3.406,10.309 -7.219,17.51 -8.011,18.99 -4.102,7.657 -8.063,12.85 -11.571,17.406 -5.598,7.269 -9.701,12.599 -16.517,18.297 -8.925,7.463 -17.265,11.18 -24.131,14.241 -9.274,4.134 -16.78,6.154 -21.56,7.418 -3.158,0.835 -11.327,2.893 -25.022,4.55 -10.349,1.252 -24.42,2.345 -41.44,1.879 1.242,31.257 2.505,62.509 3.792,93.757 2.477,60.196 5.037,120.394 7.681,180.594 2.917,72.198 5.835,144.396 8.753,216.594 1.251,29.604 2.505,59.208 3.758,88.813 277.927,0.043 555.856,0.087 833.785,0.131 0.038,-382.648 0.076,-765.296 0.116,-1147.944z"/>
    <path id="calcao-verso_perna_esq." fill="black" d="M2593.318 2837.291c-39.848,4.237 -99.784,10.591 -172.811,18.247 -101.035,10.594 -160.46,16.684 -268.288,27.891 -60.763,6.315 -147.585,15.37 -253.483,26.521l0 1147.352 990.692 0c16.024,-193.217 32.044,-386.434 48.067,-579.651 -22.354,0.425 -41.523,0.646 -56.573,0.767 -18.839,0.15 -9.875,-0.025 -51.294,0.132 -14.057,0.053 -29.45,0.128 -49.485,-0.659 -3.189,-0.126 -11.304,-0.462 -21.907,-1.435 -11.827,-1.085 -19.614,-1.833 -29.62,-4.401 -2.577,-0.661 -9.144,-2.43 -17.309,-5.737 -8.717,-3.529 -20.255,-8.31 -32.274,-18.494 -8.968,-7.596 -14.397,-14.975 -17.406,-19.121 -2.137,-2.941 -7.692,-10.879 -12.726,-22.285 -4.126,-9.349 -6.084,-16.907 -7.385,-22.023 -0.59,-2.318 -2.514,-10.11 -3.823,-20.703 -0.889,-7.18 -1.109,-12.535 -1.254,-15.89 -0.535,-12.423 -1.522,-24.825 -1.978,-37.252 -0.575,-15.683 -2.699,-41.624 -6.922,-92.868 -2.094,-25.39 -1.577,-18.294 -4.649,-55.088 -4.614,-55.274 -6.073,-74.798 -9.528,-109.385 -1.462,-14.646 -1.113,-10.263 -3.296,-31.648 -2.592,-25.382 -5.639,-56.577 -9.891,-104.374 -1.684,-18.935 -4.077,-46.318 -6.857,-79.896z"/>
    <path id="calcao-verso_perna_dir." fill="black" d="M3321.956 2837.291c39.85,4.237 99.786,10.591 172.813,18.247 101.034,10.594 160.459,16.684 268.287,27.891 60.763,6.315 147.585,15.37 253.483,26.521l0 1147.352 -990.692 0c-16.023,-193.217 -32.045,-386.434 -48.067,-579.651 22.354,0.425 41.523,0.646 56.572,0.767 18.841,0.15 9.877,-0.025 51.296,0.132 14.056,0.053 29.449,0.128 49.484,-0.66 3.188,-0.125 11.303,-0.461 21.907,-1.434 11.827,-1.085 19.614,-1.833 29.62,-4.401 2.578,-0.661 9.144,-2.43 17.309,-5.737 8.716,-3.529 20.254,-8.31 32.274,-18.494 8.967,-7.596 14.396,-14.975 17.406,-19.121 2.136,-2.941 7.692,-10.879 12.726,-22.285 4.126,-9.349 6.083,-16.907 7.385,-22.023 0.589,-2.318 2.513,-10.11 3.824,-20.703 0.888,-7.18 1.108,-12.535 1.253,-15.89 0.535,-12.423 1.522,-24.825 1.977,-37.252 0.575,-15.683 2.699,-41.625 6.923,-92.868 2.093,-25.39 1.577,-18.294 4.649,-55.088 4.614,-55.274 6.073,-74.798 9.527,-109.385 1.463,-14.646 1.113,-10.263 3.297,-31.648 2.592,-25.382 5.639,-56.577 9.891,-104.374 1.683,-18.935 4.077,-46.318 6.856,-79.896z"/>
    <path id="elastico_calcao" fill="black" d="M123.659 2751.511l0 109.039 700.846 0 0 -109.121c-233.615,0.027 -467.23,0.055 -700.846,0.082z"/>
    <path id="elastico_calcao_6" fill="black" d="M953.456 2751.511l0 109.039 700.846 0 0 -109.121c-233.615,0.027 -467.231,0.055 -700.846,0.082z"/>
    <path id="punho-braco_esq." fill="black" d="M2435.589 781.95l-857.785 0c6.263,12.889 12.526,25.777 18.789,38.666 272.744,0.7 545.489,1.401 818.235,2.101 6.92,-13.589 13.84,-27.178 20.761,-40.767z"/>
    <path id="punho-braco_dir." fill="black" d="M1080.527 820.351c1.57,-3.236 8.917,-18.377 19.784,-40.766l-859.559 0c7.354,14.38 14.707,28.76 22.061,43.14 272.572,-0.791 545.143,-1.583 817.714,-2.374z"/>
    <path id="gola_padre" fill="black" d="M842.736 206.826c1.69,-2.835 3.381,-5.669 4.562,-7.633 1.181,-1.965 1.853,-3.058 3.979,-4.674 2.125,-1.617 5.706,-3.755 10.629,-6.067 4.922,-2.313 11.188,-4.799 17.839,-7.086 6.651,-2.288 13.687,-4.376 22.874,-6.801 9.187,-2.424 20.525,-5.184 29.862,-7.247 9.336,-2.064 16.67,-3.431 27.648,-5.097 10.977,-1.666 25.596,-3.63 42.461,-5.753 16.865,-2.124 35.974,-4.406 53.175,-6.32 17.201,-1.914 32.491,-3.461 46.438,-4.949 13.947,-1.489 26.55,-2.921 45.128,-4.293 18.578,-1.373 43.131,-2.688 66.216,-3.714 23.085,-1.026 44.704,-1.765 68.909,-2.091 24.205,-0.326 50.999,-0.24 75.901,-0.001 24.9,0.24 47.909,0.632 69.027,1.437 21.117,0.804 40.341,2.022 60.937,3.632 20.595,1.609 42.56,3.609 67.505,6.219 24.945,2.61 52.868,5.828 77.422,8.808 24.554,2.98 45.737,5.719 62.894,8.435 17.158,2.714 30.291,5.405 40.041,7.616 9.749,2.21 16.116,3.941 23.578,6.237 7.461,2.296 16.018,5.156 22.46,7.631 6.442,2.475 10.77,4.564 14.006,6.549 3.236,1.984 5.38,3.863 7.016,5.646 1.636,1.782 2.766,3.466 3.592,5.061 0.826,1.594 1.348,3.1 1.61,3.853 0.262,0.752 0.262,0.752 0.262,0.752 0,0 0,0 -160.995,-0.025 -160.996,-0.025 -482.985,-0.075 -804.976,-0.125z"/>
    <path fill="black" d="M568.054 1211.502c-11.322,-5.978 -22.378,-12.643 -34.04,-20.972 -11.662,-8.331 -23.93,-18.327 -34.721,-28.663 -10.792,-10.337 -20.105,-21.015 -28.208,-31.843 -8.103,-10.83 -14.994,-21.811 -21.468,-33.852 -6.476,-12.04 -12.534,-25.142 -17.493,-36.88 -4.961,-11.737 -8.824,-22.112 -12.423,-36.133 -3.599,-14.022 -6.935,-31.688 -9.327,-45.527 -2.392,-13.839 -3.84,-23.848 -4.716,-33.32 -0.876,-9.472 -1.18,-18.405 -1.265,-26.585 -0.086,-8.181 0.046,-15.608 0.178,-23.034l-252.527 76.647c4.662,17.835 8.188,32.78 10.681,43.814 3.087,13.657 5.452,25.138 8.506,39.957 2.438,11.833 3.805,18.462 5.34,26.505 1.618,8.472 5.103,27.296 8.11,48.658 0.508,3.606 7.663,55.314 8.259,103.007 0.222,17.81 -0.463,35.677 -0.495,36.493 -0.194,4.908 -0.423,10.576 -0.99,18.198 -0.279,3.744 -1.126,14.514 -3.066,28.83 -1.238,9.139 -2.112,15.598 -3.956,24.479 -2.217,10.69 -4.534,18.602 -6.18,24.18 -4.762,16.132 -9.537,28.004 -11.028,31.65 -2.91,7.111 -6.29,15.31 -11.917,25.713 -7.36,13.606 -14.418,23.319 -17.556,27.494 -6.753,8.99 -12.573,15.254 -16.664,19.632 -4.711,5.041 -10.189,10.868 -18.198,17.654 -7.475,6.335 -13.541,10.444 -18.742,13.945 -3.178,2.14 -14.3,9.525 -30.165,17.505 -6.441,3.243 -14.663,7.083 -24.444,10.946l-0.132 1147.418 1274.472 -0.264c-0.077,-382.319 -0.154,-764.638 -0.231,-1146.957 -9.789,-3.748 -22.344,-9.221 -36.263,-17.142 -8.704,-4.953 -23.172,-13.288 -39.627,-27.693 -6.153,-5.385 -18.211,-16.546 -30.791,-33.099 -3.013,-3.964 -13.616,-18.186 -23.934,-39.099 -9.093,-18.429 -13.67,-33.35 -17.077,-44.637 -1.375,-4.554 -6.076,-20.476 -9.824,-42.066 -3.841,-22.128 -4.772,-39.219 -5.34,-50.308 -0.726,-14.149 -0.617,-24.462 -0.463,-39.165 0.104,-9.736 0.28,-24.411 1.583,-43.713 0.893,-13.222 1.93,-22.948 2.902,-32.044 2.326,-21.81 4.837,-38.766 6.065,-46.748 0.897,-5.826 3.619,-23.169 8.176,-45.955 1.048,-5.236 2.911,-14.359 7.253,-33.561 3.584,-15.849 8.59,-37.392 15.033,-63.363 -84.198,-25.802 -168.396,-51.604 -252.594,-77.407 -0.157,9.048 -0.314,18.095 -0.82,29.005 -0.507,10.91 -1.362,23.682 -2.645,35.105 -1.285,11.421 -2.996,21.494 -4.575,30.217 -1.581,8.723 -3.03,16.096 -5.696,26.038 -2.667,9.94 -6.55,22.448 -10.961,34.496 -4.412,12.048 -9.348,23.634 -14.319,34.004 -4.971,10.368 -9.974,19.519 -16.096,28.999 -6.123,9.479 -13.365,19.289 -20.376,27.815 -7.012,8.525 -13.793,15.766 -20.574,22.285 -6.78,6.517 -13.562,12.31 -20.375,17.841 -6.814,5.53 -13.661,10.795 -22.811,16.721 -9.152,5.924 -20.606,12.509 -31.139,17.841 -10.534,5.333 -20.146,9.413 -29.757,13.495 -42.019,0 -84.036,0 -126.055,0 -11.587,-5.29 -23.172,-10.581 -34.494,-16.557z"/>
   </g>
  </g>
 </g>
</svg>
