<?xml version="1.0" encoding="UTF-8"?>
<!DOCTYPE svg PUBLIC "-//W3C//DTD SVG 1.1//EN" "http://www.w3.org/Graphics/SVG/1.1/DTD/svg11.dtd">
<!-- Creator: CorelDRAW 2020 (64 Bit) -->
<svg xmlns="http://www.w3.org/2000/svg" xml:space="preserve" width="240px" height="296px" version="1.1" shape-rendering="geometricPrecision" text-rendering="geometricPrecision" image-rendering="optimizeQuality" fill-rule="evenodd" clip-rule="evenodd"
viewBox="0 0 236408 291873"
 xmlns:xlink="http://www.w3.org/1999/xlink"
 xmlns:xodm="http://www.corel.com/coreldraw/odm/2003">
   <path class="gola_2" d="M122930 51957c-629,0 -1565,0 -2587,0 -1450,0 -2901,0 -3767,0 -866,0 -1147,0 -1353,12 -206,12 -337,36 -424,97 -87,61 -131,161 -149,277 -18,117 -10,252 68,397 77,144 224,299 368,351 145,51 288,-1 395,-44 107,-44 178,-79 558,-93 381,-14 1070,-6 1849,-2 387,2 796,3 1216,4 868,0 1736,0 2514,-4 779,-4 1469,-12 1849,2 380,14 452,49 559,93 107,43 249,95 394,44 145,-52 291,-207 369,-351 77,-145 85,-280 67,-397 -18,-116 -61,-216 -149,-277 -87,-61 -217,-85 -424,-97 -206,-12 -487,-12 -1353,-12zm-6461 -6925c866,-14 2317,61 3599,65 1282,4 2395,-63 3087,-77 692,-14 961,25 1161,105 200,79 331,198 492,180 160,-18 350,-172 457,-329 107,-156 131,-315 131,-434 0,-119 -24,-198 -55,-257 -32,-60 -72,-100 -167,-131 -95,-32 -246,-56 -1216,-48 -971,8 -2763,48 -4261,52 -1498,4 -2703,-28 -3568,-62 -866,-33 -1394,-69 -1671,-21 -277,47 -305,178 -321,372 -16,194 -20,452 133,596 152,145 462,177 757,141 295,-36 576,-139 1442,-152zm2680 3870c511,0 1022,0 1809,1 786,2 1848,6 2413,12 565,6 632,14 680,58 47,43 75,123 127,156 51,34 126,22 279,-4 153,-25 383,-65 517,-190 135,-125 175,-335 133,-541 -42,-206 -164,-408 -735,-463 -571,-56 -1589,35 -3040,59 -508,8 -1068,8 -1663,3 -595,5 -1156,5 -1664,-3 -1450,-24 -2469,-115 -3040,-59 -570,55 -693,257 -735,463 -41,206 -2,416 133,541 135,125 365,165 517,190 153,26 228,38 280,4 51,-33 79,-113 126,-156 48,-44 115,-52 680,-58 565,-6 1627,-10 2414,-12 288,0 540,-1 769,-1z"/>
</svg>
