<?xml version="1.0" encoding="UTF-8"?>
<!DOCTYPE svg PUBLIC "-//W3C//DTD SVG 1.1//EN" "http://www.w3.org/Graphics/SVG/1.1/DTD/svg11.dtd">
<!-- Creator: CorelDRAW 2018 (64 Bit Versão de avaliação) -->
<svg xmlns="http://www.w3.org/2000/svg" xml:space="preserve" width="240px" height="307px" version="1.1" shape-rendering="geometricPrecision" text-rendering="geometricPrecision" image-rendering="optimizeQuality" fill-rule="evenodd" clip-rule="evenodd" viewBox="0 0 236408 302261" xmlns:xlink="http://www.w3.org/1999/xlink">
	<path class="gola" d="M100754 19355c561,287 1102,585 1638,914 535,328 1059,686 1547,1059 470,360 905,732 1282,1102 379,372 702,746 983,1135 281,387 519,788 729,1215 205,417 384,855 537,1298 169,488 310,989 423,1477 106,458 187,903 248,1392 62,499 103,1030 131,1652 29,644 45,1379 53,2158 6,496 8,1011 10,1532 -1034,-197 -2111,-416 -3465,-782 -1603,-432 -3593,-1069 -5759,-2101 -2166,-1032 -4506,-2458 -6318,-3740 -1812,-1282 -3095,-2420 -4014,-3356 -919,-936 -1474,-1670 -1919,-2326 -445,-657 -780,-1235 -1029,-1687 -249,-451 -412,-774 -161,-2407 252,-1632 918,-4573 1532,-6659 560,-1903 1077,-3095 1546,-4002 -93,338 -141,679 -158,1042 -17,351 -3,723 34,1086 39,377 105,748 190,1079 85,332 189,619 313,889 122,265 268,519 438,787 166,260 356,534 580,817 226,285 484,577 780,868 283,278 604,559 935,826 362,292 738,569 1095,812 346,235 674,439 1044,647 355,199 765,410 1286,665 687,335 1542,735 2413,1143 332,156 670,314 1263,593 641,303 1242,590 1793,872zm47820 -6174c254,-254 472,-502 662,-741 205,-259 380,-511 533,-752 31,-49 61,-97 90,-145 89,-145 169,-288 241,-435 19,-38 37,-76 55,-114 107,-234 195,-477 266,-753 75,-290 133,-621 168,-964 34,-327 46,-660 32,-972 -15,-309 -56,-598 -135,-882 -80,-284 -198,-566 -365,-862 -179,-317 -416,-652 -704,-979 -263,-297 -569,-588 -914,-852 -363,-278 -769,-525 -1241,-755 -482,-234 -1030,-449 -1668,-656 -572,-185 -1225,-367 -1892,-536 -832,-210 -1668,-398 -2395,-550 -663,-138 -1238,-248 -1822,-344 -578,-94 -1175,-176 -1889,-259 -729,-85 -1541,-168 -2368,-243 -836,-76 -1736,-148 -2627,-210 -876,-61 -1702,-110 -2544,-149 -868,-41 -1760,-73 -2743,-101 -1001,-28 -2090,-52 -3095,-72 -1017,-19 -1946,-35 -2614,-45 -674,-10 -1084,-16 -1362,-18 -94,-1 -174,-2 -243,-2 -69,0 -149,1 -243,2 -278,2 -688,8 -1362,18 -668,10 -1597,26 -2614,45 -1005,20 -2094,44 -3095,72 -983,28 -1875,60 -2743,101 -842,39 -1668,88 -2544,149 -891,62 -1791,134 -2627,210 -827,75 -1639,158 -2368,243 -714,83 -1311,165 -1889,259 -584,96 -1159,206 -1822,344 -727,152 -1563,340 -2395,550 -667,169 -1320,351 -1892,536 -638,207 -1186,422 -1668,656 -472,230 -878,477 -1241,755 -345,264 -651,555 -914,852 -288,327 -525,662 -704,979 -167,296 -285,578 -365,862 -79,284 -120,573 -135,882 -14,312 -2,645 32,972 35,343 93,674 168,964 71,276 159,519 266,753 18,38 36,76 55,114 72,147 152,290 241,435 29,48 59,96 90,145 153,241 328,493 533,752 118,148 246,300 387,454 103,112 212,225 328,339 263,259 564,522 877,774 153,124 310,245 467,362 530,-182 1167,-382 2277,-662 1432,-362 3651,-857 6074,-1333 2422,-475 5048,-931 7891,-1223 2844,-293 5906,-421 9136,-421 3229,0 6628,128 9610,346 2982,218 5548,525 7980,842 2432,317 4731,644 6767,1006 1861,330 3502,690 5125,1052 299,-243 586,-495 838,-743 18,-17 36,-35 53,-52zm-9328 6174c-561,287 -1102,585 -1638,914 -535,328 -1059,686 -1547,1059 -470,360 -905,732 -1282,1102 -379,372 -702,746 -983,1135 -281,387 -519,788 -729,1215 -205,417 -384,855 -537,1298 -169,488 -310,989 -423,1477 -106,458 -187,903 -248,1392 -62,499 -103,1030 -131,1652 -29,644 -45,1379 -53,2158 -6,496 -8,1011 -10,1532 1034,-197 2111,-416 3465,-782 1603,-432 3593,-1069 5759,-2101 2166,-1032 4506,-2458 6318,-3740 1812,-1282 3095,-2420 4014,-3356 919,-936 1474,-1670 1919,-2326 445,-657 780,-1235 1029,-1687 249,-451 412,-774 161,-2407 -252,-1632 -918,-4573 -1532,-6659 -560,-1903 -1077,-3095 -1546,-4002 93,338 141,679 158,1042 17,351 3,723 -34,1086 -39,377 -105,748 -190,1079 -85,332 -189,619 -313,889 -122,265 -268,519 -438,787 -166,260 -356,534 -580,817 -226,285 -484,577 -780,868 -283,278 -604,559 -935,826 -362,292 -738,569 -1095,812 -346,235 -674,439 -1044,647 -355,199 -765,410 -1286,665 -687,335 -1542,735 -2413,1143 -332,156 -670,314 -1263,593 -641,303 -1242,590 -1793,872z"/>
</svg>
