<?xml version="1.0" encoding="UTF-8"?>
<!DOCTYPE svg PUBLIC "-//W3C//DTD SVG 1.1//EN" "http://www.w3.org/Graphics/SVG/1.1/DTD/svg11.dtd">
<!-- Creator: CorelDRAW 2021 (64-Bit) -->
<svg xmlns="http://www.w3.org/2000/svg" xml:space="preserve" width="240px" height="296px" version="1.1" shape-rendering="geometricPrecision" text-rendering="geometricPrecision" image-rendering="optimizeQuality" fill-rule="evenodd" clip-rule="evenodd"
viewBox="0 0 224.82 287.176"
 xmlns:xlink="http://www.w3.org/1999/xlink"
 xmlns:xodm="http://www.corel.com/coreldraw/odm/2003">
  <path class="gola" d="M143.191 18.098c-1.125,1.971 -2.562,3.904 -4.274,5.552 -1.713,1.649 -3.701,3.013 -5.708,4.153 -2.007,1.14 -4.032,2.056 -5.92,2.695 -1.887,0.64 -3.636,1.003 -5.43,1.402 -1.793,0.398 -3.63,0.83 -4.731,1.26 -1.1,0.429 -1.464,0.856 -1.9,1.505 -0.436,0.649 -0.944,1.521 -1.208,2.243 -0.264,0.723 -0.284,1.297 -0.304,1.871 0.085,-0.132 0.444,-0.132 1.901,-0.132 1.921,0 5.749,0 8.341,-0.009 2.593,-0.008 3.948,-0.025 5.385,-0.272 1.436,-0.247 2.953,-0.725 4.712,-1.565 1.759,-0.84 3.76,-2.043 5.777,-3.508 2.018,-1.466 4.052,-3.193 5.435,-4.555 1.383,-1.361 2.116,-2.356 3.182,-4.242 1.066,-1.887 2.466,-4.664 3.198,-7.177 0.732,-2.513 0.797,-4.76 0.75,-6.258 -0.047,-1.498 -0.205,-2.245 -1.075,-3.069 -0.87,-0.823 -2.451,-1.721 -3.906,-2.828 -0.809,-0.615 -1.579,-1.295 -2.308,-1.924 0.046,0.095 0.095,0.196 0.145,0.302 0.24,0.502 0.535,1.119 0.701,1.848 0.166,0.729 0.204,1.57 0.181,2.708 -0.023,1.139 -0.106,2.574 -0.555,4.297 -0.448,1.722 -1.263,3.732 -2.389,5.703zm-48.187 -9.514c4.165,0.388 8.385,0.606 15.068,0.649 6.683,0.044 15.828,-0.086 21.982,-0.366 6.153,-0.28 9.313,-0.71 10.904,-0.935 0.39,-0.056 0.686,-0.099 0.911,-0.133 -0.008,-0.31 -0.008,-0.31 -0.008,-0.31 0,0 0,0 -0.04,-0.275 -0.04,-0.276 -0.12,-0.825 -0.253,-1.477 -0.133,-0.652 -0.319,-1.406 -0.707,-2.048 -0.387,-0.642 -0.977,-1.172 -2.088,-1.495 -1.11,-0.325 -2.741,-0.442 -11.477,-0.501 -8.737,-0.059 -24.579,-0.059 -32.773,-0.059 -8.194,0 -8.739,0 -9.26,0.059 -0.521,0.06 -1.018,0.179 -1.511,0.512 -0.493,0.333 -0.983,0.88 -1.386,1.694 -0.402,0.813 -0.716,1.894 -0.885,2.768 -0.035,0.178 -0.064,0.348 -0.085,0.515 3.851,0.524 7.705,1.038 11.608,1.402zm11.274 22.813c-1.369,-0.375 -3.162,-0.942 -5.371,-1.762 -2.209,-0.821 -4.835,-1.894 -7.044,-3.257 -2.209,-1.363 -4.001,-3.017 -5.769,-5.144 -1.767,-2.127 -3.509,-4.728 -4.614,-6.962 -1.104,-2.234 -1.571,-4.102 -1.797,-5.443 -0.225,-1.341 -0.209,-2.154 -0.038,-3.019 0.17,-0.865 0.495,-1.782 0.982,-2.633 0.233,-0.406 0.502,-0.798 0.79,-1.182 -0.875,0.632 -2.025,1.489 -3.112,2.281 -1.264,0.922 -2.442,1.758 -3.394,2.572 -0.953,0.813 -1.679,1.604 -2.036,2.452 -0.358,0.849 -0.347,1.756 -0.188,2.948 0.158,1.191 0.464,2.666 1.295,4.668 0.829,2.002 2.183,4.53 3.417,6.698 1.233,2.167 2.346,3.974 4.482,5.89 2.135,1.916 5.293,3.941 8.065,5.503 2.773,1.563 5.159,2.662 7.23,3.221 2.071,0.559 3.826,0.578 5.716,0.584 1.89,0.006 3.914,0 5.938,-0.006 -0.001,0.027 -0.002,0.053 -0.003,0.08 0.076,-0.748 0.153,-1.497 0.37,-2.393 0.217,-0.896 0.575,-1.941 0.75,-2.468 0.175,-0.526 0.167,-0.535 -0.265,-0.763 -0.432,-0.228 -1.287,-0.676 -2.187,-0.991 -0.901,-0.316 -1.847,-0.499 -3.217,-0.874z"/>
</svg>
