<?xml version="1.0" encoding="utf-8"?>
<!-- Generator: Adobe Illustrator 19.0.0, SVG Export Plug-In . SVG Version: 6.00 Build 0)  -->
<svg version="1.1" xmlns="http://www.w3.org/2000/svg" xmlns:xlink="http://www.w3.org/1999/xlink" x="0px" y="0px"
	width="411px" height="500px" viewBox="0 0 411 500" enable-background="new 0 0 411 500" xml:space="preserve">
	<path d="M232.9,15.6c-4.4,0.6-9.2,1-13,1.3c-3.9,0.3-6.8,0.5-9.3,0.6c-2.4,0.1-4.4,0.1-7.9,0
	s-8.7-0.5-13.5-0.9c-4.7-0.5-9-1.1-13.9-1.9c-4.9-0.8-10.5-1.8-16.3-3c-5.2-1.1-10.5-2.4-15.8-3.7c0.2,0.6,0.5,1.1,0.8,1.7
	c0.6,1.2,1.4,2.6,1.9,3.4c0.4,0.6,0.6,0.9,0.8,1.1c0.5,0.2,1.1,0.4,1.8,0.7c1.1,0.4,2.5,0.7,3.7,1.1c1.2,0.4,2.2,0.7,3.2,1
	c1,0.3,2.1,0.6,3.1,0.8c1,0.2,2,0.4,3.1,0.7c1.1,0.3,2.3,0.7,3.4,1c1.1,0.3,2,0.5,3.5,0.8c1.5,0.3,3.6,0.7,5.9,1.2
	c2.3,0.4,4.7,0.8,7.9,1.2s7,0.8,11.3,1.1c4.3,0.3,9.1,0.4,14.1,0.4c4.9-0.1,10-0.3,14.7-0.7c4.7-0.4,9.1-1,13.4-1.8
	c4.3-0.8,8.6-1.7,12.4-2.5c3.8-0.8,7-1.6,9.7-2.3c2.4-0.6,4.4-1,6.3-1.5c0.4-0.6,0.8-1.2,1.2-1.8c0.4-0.7,0.8-1.5,1.3-2.5
	c0.3-0.7,0.7-1.6,1.1-2.5c-3.4,0.8-6.7,1.5-10.1,2.3c-4,0.9-8.1,1.8-12.2,2.7C241.5,14.3,237.4,15,232.9,15.6L232.9,15.6z"/>
	<path d="M257.7,10.8c3.4-0.8,6.8-1.6,10.1-2.3c-0.4,0.9-0.8,1.8-1.1,2.5c-0.5,1-0.9,1.7-1.3,2.5
	c-0.4,0.6-0.8,1.2-1.2,1.8c0,0,0,0,0.1,0c-0.9,1.5-1.8,2.9-2.6,4c-0.9,1.3-1.7,2.1-2.8,3.3c-1,1.2-2.3,2.7-4,4.2
	c-1.7,1.5-3.7,2.9-5.7,4.2c-2,1.3-3.9,2.3-5.9,3.3s-4,1.7-6.7,2.6c-2.7,0.9-6,1.8-9.1,2.6c-3.1,0.8-5.9,1.4-9,1.9
	c-3.1,0.5-6.4,1-9.4,1.2c-3,0.2-5.8,0.2-8.4,0.1c-2.6-0.1-5.1-0.4-7.5-0.8c-2.5-0.4-4.9-1-7-1.5c-2-0.5-3.6-1-5.8-1.7
	c-2.1-0.7-4.9-1.7-7.3-2.6c-2.5-1-4.6-2-6.6-3c-2-1-3.7-2-5.4-3.2c-1.7-1.1-3.4-2.4-4.9-3.8c-1.6-1.4-3-3-4.3-4.6
	c-1.3-1.6-2.5-3.1-3.4-4.5c-0.7-1-1.3-2-1.8-2.8c0,0,0.1,0,0.1,0c-0.2-0.2-0.4-0.6-0.8-1.1c-0.5-0.8-1.3-2.2-1.9-3.4
	c-0.3-0.6-0.6-1.2-0.8-1.7c5.3,1.3,10.6,2.6,15.8,3.7c5.7,1.2,11.3,2.2,16.3,3c4.9,0.8,9.2,1.4,13.9,1.9c4.7,0.5,9.9,0.8,13.5,0.9
	s5.5,0.1,7.9,0c2.4-0.1,5.4-0.3,9.3-0.6c3.9-0.3,8.6-0.7,13-1.3c4.4-0.6,8.6-1.3,12.6-2.1C249.7,12.7,253.7,11.7,257.7,10.8
	L257.7,10.8z M210.8,6.1c-1.4,0-7,0-8.7,0c-2.9,0-5.7-0.1-8.6-0.3c-2.9-0.1-7-0.5-10.5-0.8c-2.9-0.2-6-0.5-8.5-0.9
	c-1.6-0.2-3.8-0.6-5.7-0.9c-2.1-0.3-5.1-0.9-7.6-1.3c-2.3-0.4-4.6-0.7-6.9-1.1c-1.7-0.3-3.3-0.5-5.2-0.7c-1.2-0.1-2.2,0-3.4-0.2
	c-0.3,0-0.6,0-1,0c-0.3,0-0.7,0-1,0c-0.3,0-0.7,0.1-1,0.2c-0.4,0.1-0.7,0.3-1.1,0.4c-0.6,0.3-1.1,0.7-1.6,1.1c-0.3,0.2-1,0.7-1.6,1
	c-1.3,0.8-2.6,1.4-4,2.1c-0.9,0.5-1.9,1-2.8,1.5c-0.4,0.2-0.9,0.4-1.3,0.6c0,0-0.1,0-0.1,0c-0.1,0.5-0.1,1.1,0,1.7
	c0.2,2.5,1.3,5.8,2.9,9.1s3.6,6.4,5.8,9.2s4.5,5.4,6.7,7.5c2.2,2.1,4.4,3.7,6.7,5.3c2.4,1.6,4.9,3.1,7.7,4.4
	c2.7,1.3,5.6,2.5,8.4,3.4c2.8,1,5.5,1.7,8.6,2.6s6.8,1.8,10.9,2.6c4.1,0.8,8.7,1.5,12.6,1.8c3.8,0.3,6.9,0.3,10.5,0
	c3.6-0.3,7.6-0.9,11.2-1.5c3.6-0.6,6.6-1.2,10.3-2c3.6-0.8,7.8-1.9,11.5-3.2c3.8-1.3,7.1-2.7,10.4-4.6c3.3-1.9,6.6-4.2,9.1-6.3
	c2.5-2.1,4.2-3.9,5.8-5.8c1.6-1.9,3.2-3.7,4.6-5.8c1.4-2.1,2.7-4.3,3.7-6.2c1-1.9,1.7-3.4,2.3-5s1-3.2,1.2-5c0-0.3,0.1-0.6,0.1-0.9
	c-0.1,0-0.2-0.1-0.3-0.1c-0.2-0.1-0.5-0.2-0.7-0.3c-0.5-0.2-0.8-0.5-1.2-0.8c-0.3-0.2-1.1-0.6-1.9-1c-0.3-0.1-0.6-0.3-0.9-0.4
	c-0.4-0.2-0.9-0.4-1.2-0.5c-0.3-0.1-0.7-0.2-1-0.4c-0.3-0.1-0.5-0.3-0.7-0.5c-0.3-0.2-0.7-0.4-1.1-0.5c-0.2-0.1-0.4-0.1-0.6-0.2
	c-0.3-0.2-0.7-0.4-1-0.6c-0.2-0.1-1.1-0.7-1.4-0.8c-0.4-0.2-0.7-0.4-1.1-0.6c-0.2-0.1-0.4-0.2-0.7-0.3c-0.3-0.1-0.5-0.1-0.8-0.2
	c-0.3,0-0.6,0-0.9,0c0,0-0.1,0-0.1,0c-0.2,0-0.6,0-1,0c-0.4,0-0.9-0.1-1.1-0.1c-0.1,0-0.3,0-0.4,0c-0.5,0-1,0-1.5,0.1
	c-0.8,0.1-1.5,0.1-2.2,0.2c-1,0.1-1.9,0.2-2.9,0.3c-1.4,0.2-2.8,0.4-4.2,0.6c-2.8,0.4-6.1,1-8.2,1.3c-3.2,0.5-6.5,0.9-9.8,1.3
	c-6,0.6-12,1.1-17.2,1.1C215.3,6.2,213.1,6.1,210.8,6.1L210.8,6.1z"/>
</svg>
