<?xml version="1.0" encoding="UTF-8"?>
<!DOCTYPE svg PUBLIC "-//W3C//DTD SVG 1.1//EN" "http://www.w3.org/Graphics/SVG/1.1/DTD/svg11.dtd">
<!-- Creator: CorelDRAW 2018 (64 Bit Versão de avaliação) -->
<svg xmlns="http://www.w3.org/2000/svg" xml:space="preserve" width="258px" height="296px" version="1.1" shape-rendering="geometricPrecision" text-rendering="geometricPrecision" image-rendering="optimizeQuality" fill-rule="evenodd" clip-rule="evenodd" viewBox="0 0 250902 288186" xmlns:xlink="http://www.w3.org/1999/xlink">
	<path d="M97430 8748c11,357 11,1033 509,2176 497,1143 1492,2754 2947,3977 1455,1223 3369,2058 5291,2746 1922,687 3851,1226 6471,1580 2621,353 5933,520 8941,612 3008,91 5712,106 8408,-46 2697,-152 5386,-471 7923,-957 2537,-486 4922,-1139 6840,-1827 1918,-687 3369,-1409 4565,-2142 1197,-733 2138,-1477 2909,-2275 771,-797 1372,-1648 1778,-2389 406,-741 619,-1371 725,-1686 107,-315 107,-315 107,-315 0,0 0,0 -1360,129 -1360,129 -4079,387 -8159,531 -4078,145 -9517,175 -14674,236 -5158,60 -10035,152 -13984,197 -3950,46 -6974,46 -9397,8 -2423,-38 -4246,-114 -5711,-260 -1467,-147 -2576,-363 -3214,-496 -638,-133 -805,-182 -877,-188 -72,-6 -50,32 -38,389z"/>
</svg>
