<?xml version="1.0" encoding="UTF-8"?>
<!DOCTYPE svg PUBLIC "-//W3C//DTD SVG 1.1//EN" "http://www.w3.org/Graphics/SVG/1.1/DTD/svg11.dtd">
<!-- Creator: CorelDRAW 2018 (64 Bit Versão de avaliação) -->
<svg xmlns="http://www.w3.org/2000/svg" xml:space="preserve" width="232px" height="309px" version="1.1" shape-rendering="geometricPrecision" text-rendering="geometricPrecision" image-rendering="optimizeQuality" fill-rule="evenodd" clip-rule="evenodd" viewBox="0 0 224820 299431" xmlns:xlink="http://www.w3.org/1999/xlink">
	<path class="fundo_gola" d="M90414 15524c2407,1340 5405,2763 7426,4073 2022,1310 3066,2506 3710,3808 334,677 560,1382 720,2141 1262,95 2602,186 4719,237 2355,57 5671,64 8608,27 2938,-38 5497,-122 6958,-231 799,-60 1270,-128 1592,-200 131,-432 279,-844 440,-1255 454,-1158 1014,-2309 2466,-3570 1451,-1261 3794,-2631 5906,-3714 2112,-1083 3994,-1877 5434,-2728 448,-264 852,-534 1217,-812 -1051,-349 -2206,-707 -4568,-1165 -2584,-502 -6611,-1124 -10010,-1495 -3399,-372 -6170,-493 -9039,-614 -2870,-122 -5837,-243 -9956,30 -4118,272 -9387,939 -12707,1654 -3079,664 -4481,1370 -5761,2079 820,560 1774,1139 2845,1735z"/>
</svg>
