<?xml version="1.0" encoding="UTF-8"?>
<!DOCTYPE svg PUBLIC "-//W3C//DTD SVG 1.1//EN" "http://www.w3.org/Graphics/SVG/1.1/DTD/svg11.dtd">
<!-- Creator: CorelDRAW -->
<svg xmlns="http://www.w3.org/2000/svg" xml:space="preserve" width="240px" height="296px" version="1.1" shape-rendering="geometricPrecision" text-rendering="geometricPrecision" image-rendering="optimizeQuality" fill-rule="evenodd" clip-rule="evenodd"
viewBox="0 0 236.408 291.873"
 xmlns:xlink="http://www.w3.org/1999/xlink"
 xmlns:xodm="http://www.corel.com/coreldraw/odm/2003">
    <path class="gola" d="M92.759 6.305c1.735,-0.01 4.645,-0.01 8.137,-0.019 3.492,-0.01 7.566,-0.029 11.686,-0.077 4.12,-0.049 8.285,-0.126 12.472,-0.171 4.187,-0.045 8.397,-0.058 11.467,-0.071 3.071,-0.013 5.002,-0.026 6.965,-0.016 1.963,0.01 3.959,0.042 4.957,0.058 0.997,0.016 0.997,0.016 0.997,0.016 0,0 0,0 0.02,0.232 0.019,0.232 0.058,0.695 -0.003,1.696 -0.062,1.001 -0.223,2.539 -0.541,4.139 -0.319,1.6 -0.795,3.26 -1.436,5.05 -0.64,1.789 -1.445,3.708 -2.401,5.532 -0.956,1.825 -2.063,3.557 -3.08,5.012 -1.017,1.454 -1.944,2.632 -3.099,3.955 -1.156,1.323 -2.54,2.791 -4.088,4.297 -1.548,1.506 -3.26,3.051 -4.782,4.396 -1.523,1.346 -2.855,2.491 -4.284,3.589 -1.429,1.098 -2.955,2.147 -3.738,2.684 -0.782,0.537 -0.823,0.562 -0.911,0.503 -0.089,-0.06 -0.226,-0.204 -0.537,-0.439 -0.312,-0.235 -0.798,-0.56 -1.819,-1.166 -1.022,-0.607 -2.58,-1.495 -4.295,-2.57 -1.716,-1.075 -3.589,-2.337 -5.501,-3.875 -1.912,-1.539 -3.862,-3.354 -5.635,-5.169 -1.774,-1.815 -3.37,-3.631 -4.764,-5.43 -1.393,-1.799 -2.584,-3.582 -3.63,-5.278 -1.046,-1.696 -1.947,-3.305 -2.662,-4.818 -0.714,-1.513 -1.242,-2.929 -1.635,-4.364 -0.393,-1.436 -0.65,-2.891 -0.747,-4.168 -0.096,-1.278 -0.032,-2.379 0,-2.929 0.033,-0.551 0.033,-0.551 0.313,-0.56 0.28,-0.01 0.84,-0.029 2.574,-0.039zm8.906 37.07c1.775,1.554 3.977,3.292 5.941,4.67 1.964,1.379 3.69,2.397 4.766,2.989 1.076,0.591 1.502,0.755 1.729,0.865 0.227,0.11 0.255,0.166 0.285,0.795 0.031,0.63 0.063,1.833 0.077,2.901 0.015,1.067 0.01,1.999 -0.006,3.455 -0.015,1.457 -0.041,3.439 -0.016,6.489 0.025,3.05 0.101,7.167 0.141,10.869 0.04,3.702 0.045,6.988 0.054,8.688 0.01,1.699 0.024,1.811 0.056,1.924 0.033,0.112 0.085,0.224 0.188,0.267 0.103,0.042 0.257,0.014 0.573,0.002 0.316,-0.012 0.794,-0.007 1.334,-0.019 0.541,-0.012 1.145,-0.04 1.943,-0.007 0.798,0.033 1.791,0.126 2.673,0.19 0.883,0.063 1.655,0.096 2.065,0.079 0.409,-0.016 0.456,-0.082 0.486,-0.173 0.031,-0.091 0.045,-0.208 0.052,-0.267 0.007,-0.058 0.007,-0.058 0.006,-0.394 -0.001,-0.336 -0.003,-1.007 -0.05,-4.474 -0.048,-3.467 -0.141,-9.729 -0.189,-14.927 -0.049,-5.199 -0.053,-9.333 0.004,-11.462 0.057,-2.128 0.174,-2.251 0.34,-2.348 0.167,-0.096 0.384,-0.166 0.926,-0.449 0.542,-0.282 1.41,-0.777 2.391,-1.38 0.981,-0.602 2.076,-1.314 3.305,-2.201 1.228,-0.888 2.592,-1.951 4.269,-3.367 1.678,-1.416 3.67,-3.183 5.547,-5.041 1.876,-1.857 3.636,-3.805 5.1,-5.711 1.464,-1.906 2.633,-3.771 3.633,-5.598 1,-1.828 1.831,-3.618 2.531,-5.382 0.701,-1.764 1.27,-3.501 1.787,-5.475 0.516,-1.973 0.981,-4.183 1.231,-5.625 0.249,-1.441 0.285,-2.115 0.168,-2.917 -0.116,-0.801 -0.383,-1.73 -0.793,-2.481 -0.41,-0.751 -0.964,-1.324 -1.517,-1.898 -0.085,-0.041 -0.205,-0.108 -0.382,-0.219 -0.376,-0.237 -1.013,-0.673 -1.653,-1.175 -0.64,-0.503 -1.284,-1.073 -1.927,-1.636 -0.643,-0.564 -1.284,-1.121 -2.276,-1.546 -0.992,-0.425 -2.335,-0.717 -3.667,-0.905 -1.333,-0.188 -2.655,-0.273 -4.508,-0.349 -1.853,-0.077 -4.236,-0.147 -7.812,-0.129 -3.577,0.017 -8.348,0.121 -12.72,0.216 -4.373,0.094 -8.349,0.18 -10.44,0.227 -2.091,0.048 -2.297,0.057 -4.089,0.2 -1.793,0.143 -5.171,0.421 -7.294,0.661 -2.123,0.24 -2.99,0.443 -3.695,0.696 -0.706,0.253 -1.251,0.555 -1.858,1.063 -0.607,0.507 -1.276,1.221 -1.989,1.849 -0.267,0.234 -0.54,0.457 -0.8,0.658 -0.598,0.528 -1.195,1.056 -1.597,1.578 -0.402,0.521 -0.608,1.036 -0.811,1.645 -0.204,0.608 -0.405,1.311 -0.489,2.156 -0.085,0.844 -0.052,1.832 0.049,2.689 0.1,0.857 0.269,1.582 0.48,2.46 0.211,0.877 0.465,1.906 0.738,2.922 0.273,1.016 0.565,2.02 0.898,3.05 0.333,1.03 0.708,2.086 1.363,3.506 0.656,1.419 1.592,3.202 2.701,4.999 1.108,1.798 2.389,3.611 3.464,5.03 1.075,1.419 1.943,2.445 3.052,3.644 1.109,1.198 2.457,2.569 4.232,4.123z"/>
</svg>
