<?xml version="1.0" encoding="utf-8"?>
<!-- Generator: Adobe Illustrator 19.0.0, SVG Export Plug-In . SVG Version: 6.00 Build 0)  -->
<svg version="1.1" xmlns="http://www.w3.org/2000/svg" xmlns:xlink="http://www.w3.org/1999/xlink" x="0px" y="0px"
	width="431.7px" height="500px" viewBox="0 0 431.7 500" enable-background="new 0 0 431.7 500" xml:space="preserve" 
	image-rendering="optimizeQuality" text-rendering="geometricPrecision" shape-rendering="geometricPrecision">
	<path d="M263.7,10.3c1.2-0.1,3.1-0.1,5-0.1c1.9,0,3.9,0.1,5.4,0.2c1.5,0.1,2.6,0.2,3.4,0.4c0.7,0.2,1.3,0.3,1.8,0.5
	h0.1c0.3,0.1,0.5,0.2,0.8,0.3c0.2,0,0.4,0.1,0.6,0.2c0.4,0.1,0.6,0.2,0.8,0.3c0.1,0.1,0.1,0.1,0.2,0.1c0.1,0.1,0.3,0.2,0.4,0.3
	c0.1,0,0.2,0.1,0.2,0.1c0.1,0,0.2,0.1,0.3,0.1c-0.1-0.1-0.1-0.1-0.2-0.2c-0.1-0.1-0.3-0.2-0.4-0.3h0c-0.7-0.5-1-1.1-2-1.8
	c-0.7-0.5-1.7-0.9-2.3-1.1c-0.5-0.3-0.7-0.4-1.1-0.7c-0.4-0.4-1.2-1-1.9-1.8c-0.7-0.8-1.5-1.7-2.1-2.3c-0.6-0.7-1.2-1.1-1.8-1.5
	c-1.4-0.8-3.8-1.5-5.4-1.9c-1.8-0.4-3-0.6-5-0.7c-1.2-0.1-2.9-0.2-6.9-0.3c-0.1,0-0.1,0-0.2,0c-0.5,0-1,0-1.5,0c-1.3,0-2.8,0-4.4,0
	c-1.9,0-3.9,0-6,0c-1.4,0-2.9,0-4.4,0c-6.2,0-12.4,0.2-19.4,0.2c-1.9,0-3.8,0-5.7,0c-5.3,0-10.8,0-15.7,0c-2.3,0-4.4,0-6.4,0
	c-3.1,0-5.7,0.1-8,0.1c-0.5,0-1,0-1.4,0c-3.8,0.2-5.9,0.4-8,0.8c-2.2,0.4-4.3,1-5.8,1.6c-1.4,0.5-2.1,1-2.9,1.8
	c-0.8,0.8-1.7,1.9-2.5,2.7c-0.8,0.8-1.4,1.3-2.3,1.9c-0.3,0.2-0.6,0.4-1,0.6c0,0,0,0,0,0c-0.6,0.3-1.2,0.7-1.7,1
	c-0.2,0.1-0.4,0.2-0.5,0.3c-0.4,0.3-0.8,0.6-1.1,0.8c-0.2,0.2-0.4,0.4-0.6,0.6c0.3-0.2,0.7-0.3,1.1-0.5c0.9-0.3,2-0.7,4.1-0.9
	c2.1-0.2,5-0.3,7.5-0.3s4.4,0,5.6,0.1c1.2,0,1.8,0,2,0.1s0.3,0.2,0.4,0.2h0.3c0.1,0,0.2-0.1,0.3-0.1c0.1,0,0.1,0,0.8,0
	c0.8,0,2.2,0.1,4.8,0.3c2.7,0.2,6.6,0.4,10.8,0.5c4.2,0.1,8.8,0.1,13.5,0.1h13.3c3.7,0,6.3-0.1,8.8-0.2c2.5,0,4.9,0,8.4-0.1
	c3.5,0,8.1-0.2,11.4-0.3c3.3-0.1,5.4-0.3,7-0.4c1.6-0.1,2.7-0.2,3.4-0.3c0.7,0,1.1-0.1,1.3-0.1c0.2-0.1,0.3,0,0.4,0l0.1,0.1h0.1
	c0-0.1,0.1-0.1,0.2-0.1c0,0,0.1-0.1,0.2-0.1c0.1,0,0.2-0.1,0.5-0.1c0.4-0.1,0.9-0.1,1.2-0.1H263.7z"/>
</svg>
