<?xml version="1.0" encoding="UTF-8"?>
<!DOCTYPE svg PUBLIC "-//W3C//DTD SVG 1.1//EN" "http://www.w3.org/Graphics/SVG/1.1/DTD/svg11.dtd">
<!-- Creator: CorelDRAW 2018 (64 Bit Versão de avaliação) -->
<svg xmlns="http://www.w3.org/2000/svg" xml:space="preserve" width="232px" height="307px" version="1.1" shape-rendering="geometricPrecision" text-rendering="geometricPrecision" image-rendering="optimizeQuality" fill-rule="evenodd" clip-rule="evenodd" viewBox="0 0 224820 297708" xmlns:xlink="http://www.w3.org/1999/xlink">
	<path class="gola" d="M94925 15215c2251,-31 5643,-132 9196,-212 3553,-81 7267,-142 13031,-131 5763,9 13576,90 17482,131 3907,40 3907,40 3907,40 0,0 0,0 10,293 10,293 30,878 -91,2443 -121,1564 -383,4108 -959,6137 -575,2029 -1463,3543 -2695,5208 -1231,1666 -2806,3483 -4845,5269 -2039,1787 -4542,3543 -6914,5300 -2372,1756 -4613,3512 -5734,4390 -1120,879 -1120,879 -1544,465 -424,-414 -1272,-1242 -2362,-2423 -1090,-1181 -2423,-2715 -3684,-3765 -1262,-1050 -2453,-1615 -3876,-2271 -1424,-656 -3079,-1403 -4664,-2342 -1585,-938 -3099,-2069 -4684,-3936 -1584,-1868 -3240,-4472 -4380,-7026 -1141,-2554 -1767,-5057 -2080,-6308 -313,-1252 -313,-1252 -313,-1252 0,0 0,0 121,-10 122,-11 364,-31 1040,-20 676,9 1787,50 4038,20zm-15068 -463c-649,2490 -1298,4980 -1754,8526 -455,3546 -718,8149 -617,12217 101,4067 566,7600 798,9367 232,1766 232,1766 232,1766 0,0 0,0 1030,-494 1029,-495 3088,-1484 5490,-2554 2403,-1070 5149,-2221 7500,-3079 2352,-858 4311,-1423 5310,-1716 999,-293 1040,-313 1817,253 777,565 2291,1716 3563,2997 1272,1282 2301,2695 3018,4472 717,1777 1121,3916 1393,6521 273,2604 414,5673 515,8176 101,2503 161,4441 192,5410 30,969 30,969 2039,929 2008,-40 6026,-121 8034,-161 2009,-41 2009,-41 2019,-1979 11,-1938 31,-5814 31,-9034 0,-3220 -20,-5784 292,-7480 313,-1696 959,-2523 1676,-3290 717,-768 1504,-1474 2877,-1918 1373,-444 3331,-626 4350,-757 1020,-132 1101,-212 1141,-253 40,-40 40,-40 40,-484 0,-444 0,-1332 0,-1777 0,-444 0,-444 1948,61 1949,505 5845,1514 9549,2523 3705,1010 7218,2019 9287,2635 2069,616 2695,838 3049,949 353,111 434,111 615,-172 182,-282 465,-848 283,-3856 -182,-3008 -828,-8459 -1550,-12713 -721,-4255 -1519,-7313 -2086,-9181 -568,-1867 -905,-2543 -1243,-3219 -929,-1237 -2503,-2690 -3588,-3987 -1085,-1298 -1681,-2438 -2595,-3917 -913,-1479 -2144,-3296 -3290,-4613 -1146,-1317 -2206,-2135 -3518,-2735 -1312,-601 -2877,-984 -5365,-1329 -2488,-344 -5900,-650 -9120,-776 -3220,-126 -6249,-73 -9479,-42 -3230,32 -6662,42 -9569,224 -2907,181 -5289,535 -7384,888 -2094,353 -3902,707 -5436,1232 -1534,524 -2796,1221 -3972,2372 -1176,1150 -2266,2756 -3205,4305 -938,1550 -1726,3043 -2422,4149 -178,281 -349,538 -515,783 -398,134 -884,424 -1380,761z"/>
</svg>
