<?xml version="1.0" encoding="UTF-8"?>
<!DOCTYPE svg PUBLIC "-//W3C//DTD SVG 1.1//EN" "http://www.w3.org/Graphics/SVG/1.1/DTD/svg11.dtd">
<!-- Creator: CorelDRAW 2018 (64 Bit Versão de avaliação) -->
<svg xmlns="http://www.w3.org/2000/svg" xml:space="preserve" width="258px" height="296px" version="1.1" shape-rendering="geometricPrecision" text-rendering="geometricPrecision" image-rendering="optimizeQuality" fill-rule="evenodd" clip-rule="evenodd" viewBox="0 0 250902 288186" xmlns:xlink="http://www.w3.org/1999/xlink">
	<path class="fundo_gola" d="M97703 9615c234,629 703,1888 1384,3365 679,1477 1571,3174 2860,4928 1290,1755 2978,3568 4654,5097 1678,1528 3343,2771 4878,3771 1536,1001 2944,1760 4808,2545 1864,786 4186,1599 5776,2056 1591,458 2451,559 3429,516 977,-44 2071,-231 3552,-688 1481,-457 3350,-1184 5077,-1899 1728,-716 3315,-1419 4483,-2111 1169,-692 1920,-1372 2791,-2002 871,-629 1864,-1206 2631,-1793 765,-586 1304,-1181 2043,-1920 739,-739 1678,-1621 2522,-2618 844,-996 1595,-2107 2145,-2904 551,-798 903,-1281 1451,-2197 546,-914 1289,-2258 1758,-3200 469,-942 665,-1481 762,-1751 98,-270 98,-270 98,-270 0,0 0,0 -1177,90 -1176,90 -3529,269 -6515,398 -2986,130 -6605,207 -10569,266 -3962,58 -8269,98 -12498,160 -4229,62 -8380,149 -12095,155 -3716,6 -6995,-69 -8866,-135 -1873,-66 -2338,-126 -2895,-182 -557,-57 -1206,-111 -1674,-162 -470,-51 -759,-98 -904,-122 -144,-23 -144,-23 -144,-23 0,0 0,0 235,630l0 0z"/>
</svg>
