<?xml version="1.0" encoding="UTF-8"?>
<!DOCTYPE svg PUBLIC "-//W3C//DTD SVG 1.1//EN" "http://www.w3.org/Graphics/SVG/1.1/DTD/svg11.dtd">
<!-- Creator: CorelDRAW 2018 (64 Bit Versão de avaliação) -->
<svg xmlns="http://www.w3.org/2000/svg" xml:space="preserve" width="252px" height="275px" version="1.1" shape-rendering="geometricPrecision" text-rendering="geometricPrecision" image-rendering="optimizeQuality" fill-rule="evenodd" clip-rule="evenodd" viewBox="0 0 257470 280598" xmlns:xlink="http://www.w3.org/1999/xlink">
   <path class="gola" d="M104602 11048c2569,368 4768,513 8068,817 3300,304 7700,766 11997,878 4297,111 8492,-129 12344,-514 3852,-385 7361,-916 11402,-1609 4040,-694 8611,-1550 11774,-2230 3163,-681 4918,-1186 5795,-1438 878,-253 878,-253 878,-253 0,0 0,0 -343,471 -342,471 -1027,1412 -1934,2320 -908,907 -2038,1780 -3497,2906 -1460,1126 -3249,2504 -4999,3745 -1751,1241 -3463,2345 -5586,3304 -2123,959 -4656,1772 -7310,2435 -2654,664 -5427,1177 -8496,1430 -3068,252 -6433,244 -9608,-39 -3176,-282 -6164,-838 -8201,-1322 -2037,-484 -3124,-895 -4977,-1686 -1854,-792 -4473,-1965 -6823,-3210 -2350,-1246 -4430,-2564 -6458,-4049 -2029,-1485 -4006,-3138 -4995,-3964 -989,-826 -989,-826 -989,-826 0,0 0,0 587,214 586,214 1759,642 3813,1152 2054,509 4990,1100 7558,1468zm-22394 -7388c-29,212 -58,425 213,681 270,257 839,556 1383,1134 543,578 1061,1434 2461,2977 1399,1543 3681,3773 5771,5662 2091,1890 3991,3439 5584,4655 1592,1215 2876,2097 4708,3030 1831,933 4211,1918 6561,2714 2350,796 4669,1403 7362,2015 2692,613 5756,1229 8590,1529 2833,299 5435,282 8166,111 2730,-171 5590,-497 7965,-848 2375,-351 4267,-727 6215,-1322 1947,-595 3950,-1408 6124,-2508 2175,-1100 4520,-2487 6720,-3951 2200,-1464 4254,-3004 5902,-4357 1648,-1352 2889,-2516 4152,-3903 1262,-1387 2546,-2996 3342,-4070 796,-1075 1105,-1614 1272,-1937 168,-324 194,-432 170,-558 -16,-80 -52,-168 -97,-259 -14,-16 -31,-33 -49,-49 -169,-152 -486,-293 -1076,-617 -591,-323 -1456,-828 -2086,-1245 -630,-417 -1026,-747 -1325,-973 -298,-225 -499,-347 -649,-420 -150,-73 -248,-96 -333,-107 -85,-11 -157,-9 -736,-13 -580,-3 -1667,-12 -3075,112 -1408,125 -3137,381 -4678,625 -1541,244 -2893,475 -4340,762 -1447,287 -2987,629 -4556,1019 -1569,389 -3165,826 -4526,1177 -1361,351 -2487,616 -3807,849 -1320,234 -2836,435 -4199,608 -1363,174 -2574,319 -3858,439 -1284,120 -2641,214 -3642,263 -1002,49 -1648,54 -2601,52 -952,-3 -2210,-11 -3445,-35 -1235,-23 -2446,-62 -3559,-143 -1113,-81 -2127,-206 -3233,-349 -1107,-143 -2305,-306 -3589,-492 -1284,-186 -2654,-396 -4038,-614 -1385,-219 -2785,-445 -4118,-719 -1333,-274 -2600,-595 -4297,-1083 -1697,-488 -3824,-1143 -5699,-1717 -1874,-573 -3497,-1065 -4539,-1352 -1042,-287 -1504,-368 -2168,-407 -663,-38 -1528,-34 -2313,9 -785,43 -1492,124 -1862,199 -370,75 -404,143 -717,443 -312,300 -903,830 -1339,1220 -437,389 -719,638 -1010,903 -291,265 -591,548 -987,792 -37,22 -75,45 -115,68z"/>
</svg>
