<?xml version="1.0" encoding="UTF-8"?>
<!DOCTYPE svg PUBLIC "-//W3C//DTD SVG 1.1//EN" "http://www.w3.org/Graphics/SVG/1.1/DTD/svg11.dtd">
<!-- Creator: CorelDRAW 2021 (64 Bit) -->
<svg xmlns="http://www.w3.org/2000/svg" xml:space="preserve" width="4096px" height="4096px" version="1.1" shape-rendering="geometricPrecision" text-rendering="geometricPrecision" image-rendering="optimizeQuality" fill-rule="evenodd" clip-rule="evenodd"
viewBox="0 0 4096 4096"
 xmlns:xlink="http://www.w3.org/1999/xlink"
 xmlns:xodm="http://www.corel.com/coreldraw/odm/2003">
 <g id="FORMA">
  <metadata id="CorelCorpID_0Corel-Layer"/>
  <g id="_2285227384832">
   <polygon id="retangulo" fill="none" points="0,4096 4096,4096 4096,0 0,0 "/>
   <g>
    <path id="gola_padre" fill="black" d="M842.736 206.826c1.69,-2.835 3.381,-5.669 4.562,-7.633 1.181,-1.965 1.853,-3.058 3.979,-4.674 2.125,-1.617 5.706,-3.755 10.629,-6.067 4.922,-2.313 11.188,-4.799 17.839,-7.086 6.651,-2.288 13.687,-4.376 22.874,-6.801 9.187,-2.424 20.525,-5.184 29.862,-7.247 9.336,-2.064 16.67,-3.431 27.648,-5.097 10.977,-1.666 25.596,-3.63 42.461,-5.753 16.865,-2.124 35.974,-4.406 53.175,-6.32 17.201,-1.914 32.491,-3.461 46.438,-4.949 13.947,-1.489 26.55,-2.921 45.128,-4.293 18.578,-1.373 43.131,-2.688 66.216,-3.714 23.085,-1.026 44.704,-1.765 68.909,-2.091 24.205,-0.326 50.999,-0.24 75.901,-0.001 24.9,0.24 47.909,0.632 69.027,1.437 21.117,0.804 40.341,2.022 60.937,3.632 20.595,1.609 42.56,3.609 67.505,6.219 24.945,2.61 52.868,5.828 77.422,8.808 24.554,2.98 45.737,5.719 62.894,8.435 17.158,2.714 30.291,5.405 40.041,7.616 9.749,2.21 16.116,3.941 23.578,6.237 7.461,2.296 16.018,5.156 22.46,7.631 6.442,2.475 10.77,4.564 14.006,6.549 3.236,1.984 5.38,3.863 7.016,5.646 1.636,1.782 2.766,3.466 3.592,5.061 0.826,1.594 1.348,3.1 1.61,3.853 0.262,0.752 0.262,0.752 0.262,0.752 0,0 0,0 -160.995,-0.025 -160.996,-0.025 -482.985,-0.075 -804.976,-0.125z"/>
   </g>
  </g>
 </g>
</svg>
