<?xml version="1.0" encoding="UTF-8"?>
<!DOCTYPE svg PUBLIC "-//W3C//DTD SVG 1.1//EN" "http://www.w3.org/Graphics/SVG/1.1/DTD/svg11.dtd">
<!-- Creator: CorelDRAW 2018 (64 Bit Versão de avaliação) -->
<svg xmlns="http://www.w3.org/2000/svg" xml:space="preserve" width="240px" height="296px" version="1.1" shape-rendering="geometricPrecision" text-rendering="geometricPrecision" image-rendering="optimizeQuality" fill-rule="evenodd" clip-rule="evenodd" viewBox="0 0 236408 291873" xmlns:xlink="http://www.w3.org/1999/xlink">
	<path class="fundo_gola" d="M96785 18612c1057,1506 2127,2893 3306,4789 317,509 641,1055 962,1617 759,170 1518,340 3629,504 2110,164 5571,323 8130,462 2560,138 4218,257 5846,300 1628,43 3226,10 5300,-92 2075,-103 4624,-274 6942,-443 2319,-168 4406,-333 5720,-442 1315,-109 1856,-162 2309,-275 293,-72 549,-170 791,-277 304,-718 634,-1439 992,-2160 750,-1506 1629,-3012 2606,-4673 978,-1661 2054,-3478 2801,-4911 746,-1433 1162,-2483 1370,-3008 208,-526 208,-526 208,-526 0,0 0,0 -574,70 -575,69 -1724,208 -4261,347 -2536,138 -6459,277 -10445,419 -3987,142 -8035,287 -12451,353 -4415,66 -9198,53 -13451,60 -4254,6 -7979,33 -10380,-89 -2401,-123 -3478,-393 -4016,-529 -539,-135 -539,-135 -553,-122 -15,13 -45,39 298,687 344,647 1061,1915 1941,3362 880,1446 1923,3071 2980,4577z"/>
</svg>
