<?xml version="1.0" encoding="UTF-8"?>
<!DOCTYPE svg PUBLIC "-//W3C//DTD SVG 1.1//EN" "http://www.w3.org/Graphics/SVG/1.1/DTD/svg11.dtd">
<!-- Creator: CorelDRAW 2020 (64 Bit) -->
<svg xmlns="http://www.w3.org/2000/svg" xml:space="preserve" width="232px" height="294px" version="1.1" shape-rendering="geometricPrecision" text-rendering="geometricPrecision" image-rendering="optimizeQuality" fill-rule="evenodd" clip-rule="evenodd"
viewBox="0 0 224820 284513"
 xmlns:xlink="http://www.w3.org/1999/xlink"
 xmlns:xodm="http://www.corel.com/coreldraw/odm/2003">
 <g id="GOLA_x0020_Y_x0020_2">
  <metadata id="CorelCorpID_0Corel-Layer"/>
  <path class="fundo_gola" d="M136021 8872c-3535,719 -7139,1310 -10114,1665 -2975,356 -5322,477 -9160,534 -3838,57 -9168,49 -12960,-38 -3793,-87 -6050,-254 -8234,-537 -2184,-284 -4296,-686 -5624,-992 -1329,-307 -1875,-518 -3370,-878 -1495,-359 -3941,-866 -5421,-1226 -1480,-360 -1995,-572 -2252,-678 -257,-106 -257,-106 -257,-106 0,0 0,0 19,178 19,178 56,534 158,973 103,439 269,962 375,1257 106,295 152,363 99,560 -53,197 -205,522 -371,803 -167,279 -348,514 -439,632 -91,117 -91,117 575,806 666,689 1999,2067 3520,3392 1522,1324 3233,2596 5606,4073 2374,1476 5409,3156 8975,4845 3566,1688 7662,3384 10421,4542 2759,1158 4183,1779 4895,2089 711,311 711,311 2009,-242 1299,-553 3895,-1658 6640,-2789 2744,-1132 5636,-2291 8494,-3513 2858,-1223 5682,-2510 8116,-3903 2433,-1393 4478,-2892 6098,-4330 1620,-1439 2816,-2817 3414,-3506 598,-688 598,-688 386,-897 -212,-208 -636,-624 -886,-908 -250,-284 -325,-435 -337,-995 -11,-561 42,-1530 68,-2136 27,-605 27,-847 27,-969 0,-121 0,-121 -1734,303 -1733,424 -5201,1272 -8736,1991z"/>
 
 </g>
</svg>
