<?xml version="1.0" encoding="UTF-8"?>
<!DOCTYPE svg PUBLIC "-//W3C//DTD SVG 1.1//EN" "http://www.w3.org/Graphics/SVG/1.1/DTD/svg11.dtd">
<!-- Creator: CorelDRAW 2020 (64 Bit) -->
<svg xmlns="http://www.w3.org/2000/svg" xml:space="preserve" width="240px" height="296px" version="1.1" shape-rendering="geometricPrecision" text-rendering="geometricPrecision" image-rendering="optimizeQuality" fill-rule="evenodd" clip-rule="evenodd"
viewBox="0 0 236408 291873"
 xmlns:xlink="http://www.w3.org/1999/xlink"
 xmlns:xodm="http://www.corel.com/coreldraw/odm/2003">

   <path class="fundo_gola" d="M143747 9070c-3047,185 -7298,319 -11399,440 -4102,122 -8055,231 -13093,285 -5038,55 -11161,55 -15486,35 -4324,-20 -6851,-59 -9093,-161 -2241,-102 -4198,-265 -5176,-347 -979,-81 -979,-81 -976,75 2,156 7,468 62,862 54,393 158,869 277,1193 119,325 253,498 211,729 -42,230 -260,517 -491,775 -203,227 -416,431 -546,554 -37,38 -73,75 -110,113 -38,68 32,141 337,455 396,409 1189,1226 1830,1882 642,657 1132,1152 1952,1804 820,651 1969,1458 3371,2370 1402,911 3057,1927 5207,3099 2149,1171 4795,2499 7353,3772 2559,1273 5031,2492 7018,3425 1986,934 3487,1583 4238,1908 750,324 750,324 2105,-320 1355,-644 4064,-1932 6675,-3183 2611,-1251 5122,-2464 7168,-3505 2046,-1040 3626,-1907 5184,-2816 1558,-909 3094,-1860 4320,-2665 1226,-805 2143,-1464 2955,-2108 813,-644 1521,-1273 1992,-1762 470,-489 703,-839 1035,-1188 332,-349 763,-698 978,-873 102,-82 155,-125 161,-177 6,-59 -48,-128 -164,-276 -220,-279 -658,-836 -877,-1115 -219,-278 -219,-278 -205,-363 15,-84 45,-252 85,-398 39,-147 89,-270 136,-511 47,-240 91,-597 70,-1067 -21,-471 -107,-1055 -152,-1349 -45,-293 -47,-296 -77,-290 -29,7 -86,21 -1036,148 -950,126 -2793,364 -5839,550z"/>
 
</svg>
