<?xml version="1.0" encoding="UTF-8"?>
<!DOCTYPE svg PUBLIC "-//W3C//DTD SVG 1.1//EN" "http://www.w3.org/Graphics/SVG/1.1/DTD/svg11.dtd">
<!-- Creator: CorelDRAW -->
<svg xmlns="http://www.w3.org/2000/svg" xml:space="preserve" width="241px" height="309px" version="1.1" shape-rendering="geometricPrecision" text-rendering="geometricPrecision" image-rendering="optimizeQuality" fill-rule="evenodd" clip-rule="evenodd"
viewBox="0 0 240.659 309.149"
 xmlns:xlink="http://www.w3.org/1999/xlink"
 xmlns:xodm="http://www.corel.com/coreldraw/odm/2003">
    <path class="gola" fill-rule="nonzero" d="M149.807 20.89c-1.903,0.304 -4.536,0.67 -7.651,0.944 -11.157,0.984 -14.237,-0.462 -28.819,-0.082 -3.607,0.092 -6.332,0.122 -11.776,0.183 -3.094,0.036 -5.261,0.046 -8.128,-0.183 -2.546,-0.202 -4.733,-0.527 -6.418,-0.827 -0.101,-1.887 0.026,-3.201 0.229,-4.201 4.15,0.147 9.305,0.305 15.221,0.447 9.218,0.218 18.66,0.431 30.726,0.35 4.266,-0.036 9.66,-0.107 15.926,-0.279 0.126,0.386 0.238,0.797 0.335,1.233 0.192,0.852 0.304,1.659 0.355,2.415z"/>
    <path class="gola" fill-rule="nonzero" d="M157.422 29.16c-0.451,2.664 -1.481,6.383 -4.713,11.573 -4.074,6.54 -6.88,7.768 -13.349,15.525 -3.009,3.603 -5.226,6.718 -6.59,8.732 -2.857,-0.005 -5.719,-0.01 -8.575,-0.01 0.223,-1.035 0.578,-2.359 1.152,-3.831 0.725,-1.857 1.588,-3.394 2.628,-4.931 0.867,-1.279 1.852,-2.557 2.993,-4.024 0.69,-0.887 2.075,-2.633 4.013,-4.769 3.501,-3.851 4.46,-4.191 7.028,-7.276 0.994,-1.197 2.491,-3.013 4.013,-5.667 1.298,-2.273 2.765,-4.875 3.434,-8.61 0.209,-1.147 0.503,-2.861 0.351,-4.982 -0.051,-0.756 -0.163,-1.563 -0.355,-2.415 -0.097,-0.436 -0.209,-0.847 -0.335,-1.233 -6.266,0.172 -11.66,0.243 -15.926,0.279 -12.066,0.081 -21.508,-0.132 -30.726,-0.35 -5.916,-0.142 -11.071,-0.3 -15.221,-0.447 -0.203,1 -0.33,2.314 -0.229,4.201 0.036,0.604 0.092,1.264 0.173,1.989 0.284,2.507 0.609,5.348 1.978,8.732 0.34,0.837 1.604,3.82 6.023,9.057 4.86,5.758 6.103,5.433 11.289,11.618 1.121,1.334 2.146,2.644 3.095,4.054 0.903,1.35 1.735,2.795 2.501,4.45 0.736,1.593 1.248,3.019 1.598,4.14 -3.333,-0.005 -6.672,-0.005 -10.005,-0.011 -0.502,-0.953 -1.268,-2.343 -2.309,-3.947 -2.43,-3.734 -4.49,-5.784 -7.828,-9.366 -4.8,-5.154 -7.2,-7.732 -8.965,-10.304 -2.984,-4.343 -4.161,-7.453 -4.719,-9.168 0,0 -0.974,-2.984 -1.253,-8.194 -0.091,-1.629 0.142,-2.289 0.35,-2.912 0.416,-1.228 1.055,-1.979 1.238,-2.187 0.431,-0.488 0.832,-0.776 1.096,-0.964 2.608,-1.842 2.917,-1.863 3.861,-2.618 1.552,-1.244 2.557,-2.649 3.917,-3.278 0.456,-0.213 0.928,-0.34 0.928,-0.34 0.777,-0.218 1.385,-0.208 1.781,-0.213 0.401,-0.005 0.447,-0.025 0.71,-0.061 0.259,-0.035 0.731,-0.091 1.974,-0.177 5.266,-0.295 10.711,-0.264 10.711,-0.264 11.623,0.071 16.23,-0.264 28.681,0.167 2.795,0.097 6.707,0.259 11.406,0.538 1.202,0.604 2.161,1.167 2.81,1.573 1.72,1.06 3.268,2.359 6.358,4.947 0.614,0.517 1.273,1.08 1.973,1.994 0.69,0.892 1.111,1.735 1.37,2.323 0.107,1.614 0.132,3.938 -0.335,6.657z"/>
</svg>
