<?xml version="1.0" encoding="utf-8"?>
<!-- Generator: Adobe Illustrator 19.0.0, SVG Export Plug-In . SVG Version: 6.00 Build 0)  -->
<svg version="1.1" xmlns="http://www.w3.org/2000/svg" xmlns:xlink="http://www.w3.org/1999/xlink" x="0px" y="0px"
	width="411px" height="500px" viewBox="0 0 411 500" enable-background="new 0 0 411 500" xml:space="preserve">
	<path d="M222.5,23.4c-4.7,0.4-9.8,0.7-14.7,0.7c-4.9,0.1-9.7-0.1-14.1-0.4s-8.2-0.7-11.3-1.1
	s-5.6-0.8-7.9-1.2c-2.3-0.4-4.4-0.8-5.9-1.2c-1.5-0.3-2.4-0.5-3.5-0.8c-1.1-0.3-2.3-0.7-3.4-1c-1.1-0.3-2.1-0.5-3.1-0.7
	c-1-0.2-2.1-0.5-3.1-0.8c-1-0.3-2-0.7-3.2-1c-1.2-0.4-2.6-0.8-3.7-1.1c-0.7-0.2-1.3-0.4-1.8-0.7c0,0-0.1,0-0.1,0
	c0.5,0.9,1.1,1.8,1.8,2.8c0.9,1.3,2.1,2.9,3.4,4.5c1.3,1.6,2.8,3.1,4.3,4.6c1.6,1.4,3.2,2.7,4.9,3.8c1.7,1.1,3.4,2.2,5.4,3.2
	c2,1,4.2,2,6.6,3c2.5,1,5.2,1.9,7.3,2.6c2.1,0.7,3.7,1.2,5.8,1.7c2,0.5,4.5,1.1,7,1.5c2.5,0.4,4.9,0.7,7.5,0.8
	c2.6,0.1,5.4,0.1,8.4-0.1c3-0.2,6.4-0.7,9.4-1.2c3.1-0.5,5.9-1.1,9-1.9c3.1-0.8,6.4-1.7,9.1-2.6c2.7-0.9,4.7-1.7,6.7-2.6
	c2-0.9,3.9-2,5.9-3.3c2-1.3,4-2.7,5.7-4.2c1.7-1.5,2.9-3,4-4.2c1-1.2,1.8-2,2.8-3.3c0.8-1.1,1.7-2.5,2.6-4c0,0,0,0-0.1,0
	c-1.9,0.5-3.9,0.9-6.3,1.5c-2.7,0.6-5.9,1.4-9.7,2.3c-3.8,0.8-8.1,1.8-12.4,2.5C231.6,22.4,227.2,23,222.5,23.4L222.5,23.4z"/>
</svg>
