<?xml version="1.0" encoding="UTF-8"?>
<!DOCTYPE svg PUBLIC "-//W3C//DTD SVG 1.1//EN" "http://www.w3.org/Graphics/SVG/1.1/DTD/svg11.dtd">
<!-- Creator: CorelDRAW 2018 (64 Bit Versão de avaliação) -->
<svg xmlns="http://www.w3.org/2000/svg" xml:space="preserve" width="232px" height="294px" version="1.1" shape-rendering="geometricPrecision" text-rendering="geometricPrecision" image-rendering="optimizeQuality" fill-rule="evenodd" clip-rule="evenodd" viewBox="0 0 224820 284513" xmlns:xlink="http://www.w3.org/1999/xlink">
	<path class="fundo_gola" d="M95067 9378c-1524,-81 -4129,-202 -6158,-434 -2029,-232 -3482,-576 -4209,-747 -727,-172 -727,-172 -727,-172 0,0 0,0 111,1232 111,1231 334,3694 1080,6076 747,2382 2019,4684 3614,6854 1595,2170 3513,4209 5612,6178 2100,1968 4381,3866 6420,5188 2039,1322 3836,2069 4815,2463 979,394 1141,434 2776,424 1635,-10 4744,-71 6965,-131 2221,-61 3553,-122 4401,-202 848,-81 1211,-182 2765,-1302 1555,-1121 4301,-3261 6652,-5330 2353,-2069 4311,-4068 5946,-5865 1635,-1796 2948,-3391 3947,-5501 999,-2110 1685,-4734 2019,-6813 333,-2080 312,-3614 302,-4381 -10,-767 -10,-767 -10,-767 0,0 0,0 -1958,383 -1958,384 -5875,1151 -10175,1686 -4300,535 -8983,838 -14343,1019 -5360,182 -11397,243 -14637,253 -3240,10 -3684,-31 -5208,-111z"/>
</svg>
