<?xml version="1.0" encoding="UTF-8"?>
<!DOCTYPE svg PUBLIC "-//W3C//DTD SVG 1.1//EN" "http://www.w3.org/Graphics/SVG/1.1/DTD/svg11.dtd">
<!-- Creator: CorelDRAW 2018 (64 Bit Versão de avaliação) -->
<svg xmlns="http://www.w3.org/2000/svg" xml:space="preserve" width="258px" height="296px" version="1.1" shape-rendering="geometricPrecision" text-rendering="geometricPrecision" image-rendering="optimizeQuality" fill-rule="evenodd" clip-rule="evenodd" viewBox="0 0 250902 288186" xmlns:xlink="http://www.w3.org/1999/xlink">
	<path class="gola_2" d="M123018 42987c11,1947 43,3424 89,4467 48,1044 110,1653 110,2416 0,762 -62,1677 -164,3596 -101,1919 -242,4842 -338,7069 -96,2228 -147,3760 -119,4837 27,1077 132,1699 312,2192 180,492 434,856 653,1055 219,199 402,234 1008,229 606,-3 1634,-46 2976,-79 1344,-33 3000,-56 4147,-74 1147,-18 1785,-30 2219,-145 434,-115 664,-334 828,-842 165,-508 262,-1305 326,-2989 65,-1685 96,-4257 187,-7912 89,-3654 238,-8390 320,-11236 82,-2845 98,-3799 98,-5323 0,-1525 -16,-3620 -24,-4667 -5,-791 -7,-984 -243,-995 -77,-3 -178,13 -312,33 -547,86 -1641,259 -2783,422 -1141,165 -2330,321 -3740,382 -1411,60 -3044,24 -3985,24 -940,0 -1185,36 -1328,106 -143,71 -182,176 -215,316 -34,140 -61,315 -74,421 -2,16 -4,31 -6,44 61,154 60,456 58,1084 -4,1207 -12,3622 0,5569l0 0z"/>
</svg>
