<?xml version="1.0" encoding="utf-8"?>
<!-- Generator: Adobe Illustrator 19.0.0, SVG Export Plug-In . SVG Version: 6.00 Build 0)  -->
<svg version="1.1"
	 image-rendering="optimizeQuality" text-rendering="geometricPrecision" shape-rendering="geometricPrecision" xmlns:xodm="http://www.corel.com/coreldraw/odm/2003"
	 xmlns="http://www.w3.org/2000/svg" xmlns:xlink="http://www.w3.org/1999/xlink" x="0px" y="0px" viewBox="1742 -1652 4096 4096"
	 enable-background="new 1742 -1652 4096 4096" xml:space="preserve">
	<g id="Gola_x0020_Polo">
		<path id="gola-polo3" fill="#000" d="M3027.3-1613c1.7,0,3.4-0.1,5.1-0.3c5.9-0.5,11.9-1.1,17.8-1.8c8.1-0.9,16.2-1.8,24.2-2.8l11.2-1.3v11.2
			c0,73.9,0,147.9,0,221.8v10h-10c-10.8,0-21.6,0-32.4,0c-10.6,0-21.2,0-31.8,0c-10.8,0-21.6,0-32.4,0h-10v-10
			c0-73.9,0-147.9,0-221.8v-11.2l11.2,1.3c8.1,0.9,16.2,1.9,24.2,2.8c5.9,0.6,11.9,1.3,17.8,1.8
			C3023.9-1613.1,3025.6-1613,3027.3-1613z"/>
		<path id="gola-polo2" fill="#000" d="M3177.2-1613c1.7,0,3.4-0.1,5.1-0.3c5.9-0.5,11.9-1.1,17.8-1.8c8.1-0.9,16.2-1.8,24.2-2.8l11.2-1.3v11.2
			c0,73.9,0,147.9,0,221.8v10h-10c-10.8,0-21.6,0-32.4,0c-10.6,0-21.2,0-31.8,0c-10.8,0-21.6,0-32.4,0h-10v-10
			c0-73.9,0-147.9,0-221.8v-11.2l11.2,1.3c8.1,0.9,16.2,1.9,24.2,2.8c5.9,0.6,11.9,1.3,17.8,1.8
			C3173.8-1613.1,3175.5-1613,3177.2-1613L3177.2-1613z"/>
		<polygon id="gola-polo1" fill="#000" points="4140.1,-1617.6 5802.9,-1617.6 5740.8,-1377.5 4202.2,-1377.5 	"/>
		<path id="gola-polo-botoes" fill="#000" d="M1866.8-1560.1c32.8,0,59.4,26.6,59.4,59.4c0,32.8-26.6,59.4-59.4,59.4s-59.4-26.6-59.4-59.4
			C1807.4-1533.5,1834-1560.1,1866.8-1560.1z M1866.8-1423.1c32.8,0,59.4,26.6,59.4,59.4s-26.6,59.4-59.4,59.4s-59.4-26.6-59.4-59.4
			S1834-1423.1,1866.8-1423.1z"/>
	</g>
</svg>
