<?xml version="1.0" encoding="UTF-8"?>
<!DOCTYPE svg PUBLIC "-//W3C//DTD SVG 1.1//EN" "http://www.w3.org/Graphics/SVG/1.1/DTD/svg11.dtd">
<!-- Creator: CorelDRAW 2018 (64 Bit Versão de avaliação) -->
<svg xmlns="http://www.w3.org/2000/svg" xml:space="preserve" width="232px" height="294px" version="1.1" shape-rendering="geometricPrecision" text-rendering="geometricPrecision" image-rendering="optimizeQuality" fill-rule="evenodd" clip-rule="evenodd" viewBox="0 0 224820 284513" xmlns:xlink="http://www.w3.org/1999/xlink">
	<path class="gola" d="M112766 43873c-3603,-3684 -7206,-7368 -11415,-11269 -4210,-3901 -9024,-8020 -12287,-11438 -3263,-3418 -4974,-6136 -6000,-8058 -1025,-1923 -1366,-3051 -1567,-3880 -200,-829 -261,-1359 -291,-1624 -30,-265 -30,-265 -30,-265 0,0 0,0 1915,605 1915,606 5746,1817 10001,2794 4254,976 8933,1718 13150,2135 4216,416 7971,507 11340,363 3369,-144 6352,-522 8948,-878 2597,-356 4808,-689 7019,-1295 2210,-605 4421,-1483 6215,-2324 1794,-840 3172,-1643 3861,-2044 689,-401 689,-401 689,-401 0,0 0,0 -61,560 -60,560 -182,1681 -515,3036 -333,1355 -878,2945 -1968,4747 -1090,1801 -2725,3815 -4398,5731 -1673,1915 -3384,3732 -5421,5640 -2036,1907 -4398,3906 -6571,5761 -2173,1855 -4156,3566 -6043,5313 -1887,1747 -3678,3530 -4757,4668 -1079,1137 -1446,1630 -1814,2123zm-35120 -40732l-3225 1419c-191,721 -368,1465 -516,2263 -257,1393 -424,2953 -212,4785 212,1832 803,3937 1969,6314 1166,2377 2907,5027 5049,7570 2143,2544 4686,4982 7510,7609 2824,2627 5928,5443 7768,7290 1839,1847 2414,2726 2702,3165 288,439 288,439 288,439 0,0 0,0 1809,-23 1809,-23 5428,-68 10024,-91 4595,-22 10167,-22 15740,-22 2589,-2680 5178,-5360 8509,-8668 3331,-3308 7404,-7245 10356,-10894 2953,-3649 4786,-7010 5671,-9981 887,-2972 826,-5554 625,-7469 -77,-734 -174,-1371 -284,-1947l-6288 -2973c-4735,-3398 -1700,-1699 -16753,485l-19788 1091c-3400,0 -16146,-606 -19666,-1334 -2305,-362 -5099,-1455 -7282,-1455 -971,0 -3035,1820 -4006,2427z"/>
</svg>
