<?xml version="1.0" encoding="utf-8"?>
<!-- Generator: Adobe Illustrator 19.0.0, SVG Export Plug-In . SVG Version: 6.00 Build 0)  -->
<svg version="1.1" xmlns="http://www.w3.org/2000/svg" xmlns:xlink="http://www.w3.org/1999/xlink" x="0px" y="0px"
	width="459.7px" height="530px" viewBox="0 0 459.7 530" enable-background="new 0 0 459.7 530" xml:space="preserve" 
	image-rendering="optimizeQuality" text-rendering="geometricPrecision" shape-rendering="geometricPrecision">
	<path d="M167.2,13.2c-1.8-0.1-3.1-0.2-4-0.2c-0.9-0.1-1.4-0.1-1.7-0.1c-0.3,0-0.3,0-0.4,0
	c0,0,0,0,0.2,0.5c0.2,0.5,0.6,1.4,1.4,2.8c0.7,1.5,1.8,3.4,3.1,5.5c1.3,2,2.9,4.1,4.3,5.9c1.4,1.8,2.6,3.3,3.6,4.5
	c1,1.2,1.9,2.2,3.1,3.1c1.2,1,2.7,2,4.1,3c1.4,1,2.6,2,4.1,3c1.5,1,3.3,1.9,5.2,2.7c1.9,0.9,4,1.7,6,2.5c2,0.8,3.8,1.5,6.4,2.4
	c2.6,0.9,5.9,1.9,8.5,2.7c2.7,0.7,4.7,1.2,6.8,1.6c2.1,0.4,4.4,0.6,6.5,0.8c2.1,0.2,4,0.3,6.3,0.3c2.3,0,5-0.1,7.8-0.3
	c2.8-0.2,5.7-0.7,8.8-1.2c3.1-0.5,6.4-1.1,9.8-1.8c3.3-0.8,6.6-1.7,9-2.5c2.4-0.8,4-1.3,5.9-2.1c1.8-0.7,3.9-1.6,5.8-2.5
	c1.9-0.9,3.5-1.9,5.1-2.9c1.6-1,3.1-2.1,4.5-3.1c1.4-1,2.5-2.1,3.9-3.5c1.4-1.5,3-3.4,4.3-5c1.3-1.6,2.1-2.8,3-4.1
	c0.9-1.3,1.9-2.8,2.8-4.4c0.9-1.6,1.7-3.3,2.2-4.5c0.5-1.2,0.8-1.8,0.9-2.1c0-0.1,0-0.1,0-0.2c0-0.1-0.4-0.1-2,0
	c-2.1,0.1-6.4,0.4-11.3,0.6c-4.9,0.2-10.4,0.4-15.2,0.4c-4.9,0-9.2-0.2-13.4-0.4c-4.2-0.2-8.2-0.3-12.5-0.5
	c-4.4-0.2-9.2-0.5-14.1-0.6c-5-0.1-10.1-0.2-15.9-0.1c-5.8,0.1-12.2,0.3-17.8,0.5c-5.6,0.2-10.4,0.4-15.1,0.4
	c-4.6,0-9.1-0.3-12.5-0.5C171.3,13.4,169,13.3,167.2,13.2L167.2,13.2z"/>
</svg>
