<?xml version="1.0" encoding="UTF-8"?>
<!DOCTYPE svg PUBLIC "-//W3C//DTD SVG 1.1//EN" "http://www.w3.org/Graphics/SVG/1.1/DTD/svg11.dtd">
<!-- Creator: CorelDRAW 2018 (64 Bit Versão de avaliação) -->
<svg xmlns="http://www.w3.org/2000/svg" xml:space="preserve" width="258px" height="296px" version="1.1" shape-rendering="geometricPrecision" text-rendering="geometricPrecision" image-rendering="optimizeQuality" fill-rule="evenodd" clip-rule="evenodd" viewBox="0 0 250902 288186" xmlns:xlink="http://www.w3.org/1999/xlink">
	<path class="gola" d="M125268 49127c-589,-774 -1711,-2278 -2930,-3706 -1219,-1429 -2536,-2785 -4538,-4827 -2003,-2043 -4694,-4772 -6687,-6781 -1993,-2010 -3289,-3299 -4361,-4459 -1071,-1160 -1918,-2189 -2983,-3586 -1065,-1398 -2349,-3163 -3326,-4778 -977,-1616 -1648,-3081 -2123,-4429 -475,-1349 -755,-2580 -912,-3620 -156,-1038 -189,-1885 -206,-2308 -16,-423 -16,-423 111,-388 127,36 382,107 1111,212 729,104 1935,241 3224,316 1290,75 2665,88 4231,91 1567,3 3326,-3 5084,-10 825,-10 1648,-19 4206,-44 2560,-24 6852,-64 11529,-145 4677,-82 9738,-205 13888,-299 4149,-95 7387,-160 9677,-323 2290,-163 3631,-423 4303,-553 671,-131 671,-131 671,-131 0,0 0,0 0,79 0,78 0,234 -69,1009 -68,775 -206,2169 -384,3274 -179,1104 -400,1918 -755,2898 -356,981 -845,2126 -1542,3378 -696,1251 -1602,2606 -2446,3794 -843,1188 -1625,2211 -2433,3231 -808,1019 -1641,2035 -2816,3298 -1173,1262 -2688,2770 -4751,4788 -2063,2017 -4676,4544 -6487,6389 -1810,1843 -2820,3002 -3837,4151 -1016,1151 -2039,2290 -2619,3015 -471,589 -650,905 -773,1168 316,-26 716,-63 1242,-85 867,-36 2079,-29 3654,7 1578,36 3518,101 4788,149 1271,49 1870,82 2189,88 319,7 359,-13 1387,-1124 1030,-1110 3049,-3311 5218,-5709 2169,-2397 4489,-4990 6247,-6937 1759,-1948 2958,-3251 4019,-4580 1062,-1328 1987,-2684 2828,-4137 840,-1452 1595,-3002 2237,-4435 642,-1433 1170,-2749 1508,-4003 338,-1254 488,-2446 558,-3564 67,-1117 55,-2159 -73,-3218 -127,-1058 -368,-2133 -570,-2878 -202,-746 -364,-1163 -758,-1649 -394,-487 -1019,-1042 -1432,-1410 -77,-68 -147,-130 -211,-188 -107,0 -160,10 -243,-4 -85,-13 -200,-50 -572,-283 -370,-234 -999,-664 -1630,-1159l-17 -14c-507,-342 -925,-665 -1335,-993 -947,-756 -1856,-1534 -2897,-2050 -1041,-516 -2216,-769 -3990,-996 -618,-79 -1309,-155 -2051,-225 -581,-37 -1210,-67 -1917,-96 -1828,-76 -4178,-145 -7705,-127 -3527,16 -8233,119 -12545,213 -4312,92 -8233,177 -10296,223 -2062,48 -2265,57 -4033,198 -1768,141 -5099,415 -7193,652 -2094,237 -2949,437 -3644,687 -575,205 -1041,444 -1523,802 -293,274 -535,501 -1221,1091l-74 64c-314,303 -640,618 -976,914 -703,618 -1451,1154 -1897,1417 -307,183 -472,236 -638,284 -152,62 -290,105 -435,148 -251,103 -570,257 -941,442 -20,52 -41,103 -61,153 -322,805 -557,1499 -755,2442 -199,943 -362,2135 -407,3441 -46,1306 26,2726 254,4182 227,1455 612,2948 1179,4498 566,1550 1316,3159 2166,4644 850,1485 1801,2847 2693,4030 892,1181 1727,2185 2997,3621 1270,1436 2976,3306 4289,4743 1312,1436 2231,2439 3580,3923 1348,1484 3126,3447 4231,4687 1104,1240 1533,1754 1760,2021 226,267 249,287 1013,280 764,-6 2268,-39 4164,-98 1896,-58 4183,-143 5443,-143 1261,0 1495,85 1873,88 11,0 23,0 34,0 -89,-107 -251,-312 -568,-730l0 -1z"/>
</svg>
