<?xml version="1.0" encoding="UTF-8"?>
<!DOCTYPE svg PUBLIC "-//W3C//DTD SVG 1.1//EN" "http://www.w3.org/Graphics/SVG/1.1/DTD/svg11.dtd">
<!-- Creator: CorelDRAW 2018 (64 Bit Versão de avaliação) -->
<svg xmlns="http://www.w3.org/2000/svg" xml:space="preserve" width="258px" height="296px" version="1.1" shape-rendering="geometricPrecision" text-rendering="geometricPrecision" image-rendering="optimizeQuality" fill-rule="evenodd" clip-rule="evenodd" viewBox="0 0 250902 288186" xmlns:xlink="http://www.w3.org/1999/xlink">
	<path class="gola" d="M93734 6191c-486,345 -798,501 -1077,604 1389,182 2847,349 4446,485 3205,273 6973,425 11120,350 4147,-76 8674,-380 13718,-441 5043,-61 10603,122 16194,30 5590,-91 11211,-456 15450,-820 1963,-169 3630,-338 5137,-507 -1634,-851 -2514,-1510 -3363,-2187 -947,-756 -1856,-1534 -2897,-2050 -1041,-516 -2216,-769 -3990,-996 -1775,-227 -4150,-428 -6616,-539 -2465,-110 -5022,-129 -8279,-116 -3257,13 -7215,58 -11368,158 -4152,101 -8500,257 -11926,477 -3425,221 -5930,506 -7721,746 -1791,240 -2868,435 -3589,701 -722,266 -1089,604 -1391,884 -302,281 -539,505 -1238,1107 -699,602 -1860,1582 -2610,2114z"/>
</svg>
