<?xml version="1.0" encoding="utf-8"?>
<!-- Generator: Adobe Illustrator 19.0.0, SVG Export Plug-In . SVG Version: 6.00 Build 0)  -->
<svg version="1.1" id="Camada_1" xmlns="http://www.w3.org/2000/svg" xmlns:xlink="http://www.w3.org/1999/xlink" x="0px" y="0px"
	 viewBox="0 0 2625 2471.4" enable-background="new 0 0 2625 2471.4" xml:space="preserve">
<g id="mascara_x0020_do_x0020_simulador">
	<path id="camisa-frente" fill="#010101" d="M1110.9,1031c0.1-9.7,0.3-24.4,1.6-43.7c0.9-13.2,1.9-22.9,2.9-32
		c2.3-21.8,4.8-38.8,6.1-46.7c0.9-5.8,3.6-23.2,8.2-46c1-5.2,2.9-14.4,7.3-33.6c3.6-15.8,8.6-37.4,15-63.4
		c-84.2-25.8-168.4-51.6-252.6-77.4c0.2,0.1,0.3,0.1,0.5,0.2c-15.1,96.6-37.9,173.1-90.1,225c-48.3,48.1-111.6,72-178.1,73.3
		c-116.2,2.4-242.1-126.9-252.5-298l-4,0l-252.5,76.6c4.7,17.8,8.2,32.8,10.7,43.8c3.1,13.7,5.5,25.1,8.5,40
		c2.4,11.8,3.8,18.5,5.3,26.5c1.6,8.5,5.1,27.3,8.1,48.7c0.5,3.6,7.7,55.3,8.3,103c0.2,17.8-0.5,35.7-0.5,36.5
		c-0.2,4.9-0.4,10.6-1,18.2c-0.3,3.7-1.1,14.5-3.1,28.8c-1.2,9.1-2.1,15.6-4,24.5c-2.2,10.7-4.5,18.6-6.2,24.2
		c-4.8,16.1-9.5,28-11,31.6c-2.9,7.1-6.3,15.3-11.9,25.7c-7.4,13.6-14.4,23.3-17.6,27.5c-6.8,9-12.6,15.3-16.7,19.6
		c-4.7,5-10.2,10.9-18.2,17.7c-7.5,6.3-13.5,10.4-18.7,13.9c-3.2,2.1-14.3,9.5-30.2,17.5c-6.4,3.2-14.7,7.1-24.4,10.9L0,2471.4
		l1274.5-0.3c-0.1-382.3-0.2-764.6-0.2-1147c-9.8-3.7-22.3-9.2-36.3-17.1c-8.7-5-23.2-13.3-39.6-27.7c-6.2-5.4-18.2-16.5-30.8-33.1
		c-3-4-13.6-18.2-23.9-39.1c-9.1-18.4-13.7-33.3-17.1-44.6c-1.4-4.6-6.1-20.5-9.8-42.1c-3.8-22.1-4.8-39.2-5.3-50.3
		C1110.7,1056,1110.8,1045.7,1110.9,1031L1110.9,1031z"/>
	<path id="camisa-verso" fill="#010101" d="M1474.8,1186.4c-4,10.6-9.1,23.9-18.9,40.1c-3,5-11.5,18.6-25.2,34
		c-10.8,12.1-20.3,20.2-24,23.3c-2.2,1.8-12.3,10.1-27.4,19.5c-10.4,6.4-24.5,14.1-42.1,21.1c4.4,382.1,8.9,764.3,13.3,1146.4
		c424.8-2.4,849.6-4.7,1274.4-7.1c-0.1-382.3-0.2-764.6-0.3-1146.9c-7.6-2.7-17.3-6.8-28.3-12.5c-2.2-1.1-9.5-5-19-11.1
		c-8.6-5.6-21.6-14-36.3-28c-14.5-13.7-23.9-26.4-28.4-32.8c-1.4-2-7.9-11.4-15.1-25c-10.5-19.9-15.7-36.3-19.6-48.5
		c-6-19.1-9.2-35-10.9-44.7c-2.9-16.6-3.7-29.1-4.6-42.1c-0.3-4.2-1.4-20.5-1.4-43.6c0-10,0.2-44.4,5.3-89.1c0.5-4.3,2-16.8,4.4-33
		c2.8-18.2,5.4-31.4,8.9-49.4c2.8-14,6-30.3,11-51.9c4.2-18.3,8.3-34.1,11.8-47.1c-35.2-10.6-76.4-23.1-108.8-32.8
		c-24.2-7.3-36.9-11.1-55.7-16.8l-89.3-27.4l-3.3,0l0.4,0.2c-2.1,12.5-4.8,22.6-7.2,29.8c-2.8,8.8-6.2,19.1-12.9,30
		c-1.7,2.8-6.9,11.1-16.8,20.5c-16.6,15.8-29.2,21.6-42.2,26.2c-15.6,5.6-28.2,7.2-41.1,9c-5.8,0.8-13.7,1.6-28.1,2.3
		c-28.5,1.3-50.4,0.2-52.5,0.1c-20.3-0.9-64.8-1.3-170.2,1.2c-56.6-3-124.1-16-166.6-104c-1.2-4.5-2.2-9.5-2.8-12.3l-0.5,0
		c-83.9,26.8-167.8,53.5-251.7,80.3c3.1,10.6,7.2,25.4,11.6,43.5c2,8.2,3.3,14,5.4,23.3c5.6,24.8,8.8,39.1,12,56.4
		c3.1,16.7,4.6,28.4,7.4,48.5c3.2,23.8,5.1,37.2,6.5,55.7c2.2,28.3,2,50,1.8,56.8c-0.3,19.6-0.6,42-5.5,71.2
		C1486.4,1155.2,1477.2,1180.1,1474.8,1186.4L1474.8,1186.4z"/>
	<path id="manga-braco_esq." fill="#010101" d="M1566.5,615.3c272.7,0.7,545.5,1.4,818.2,2.1c60.6-118.9,121.1-237.8,181.7-356.7
		c-7,0.4-15.5,0.6-25.1,0.2c-14-0.5-25.1-1.9-31.4-2.9c-6-0.9-16.8-2.6-30.1-6.2c-23.3-6.5-40-15.4-51.3-21.5
		c-14.6-7.9-24.9-15-33-20.7c-17-11.8-28.7-21.8-43.9-35c-47.7-41.4-49.3-44.6-72.4-63.3c-13.2-10.7-27.3-22.1-47.5-35.6
		c-12-8.1-28.4-19-51.8-30.6c-25.4-12.7-46.6-19.9-57-23.3c-5.5-1.8-22.3-7-44.8-11.6c-19.3-3.9-34.1-5.6-43.1-6.5
		c-9.9-1.1-30.6-3-57.2-3c-13.8,0-33.7,0.1-59.9,3.3c-15.8,2-34.6,5.2-55.4,10.5c-25.1,6.5-43.4,13.6-49.1,15.8
		c-3.6,1.4-20.7,8.2-42.3,19.7c-9.4,5-25.5,13.9-44.4,26.8c-16.4,11.2-27.9,20.5-39.4,29.9c-12,9.8-21.9,18.5-33.6,28.7
		c-12.3,10.8-12.4,11.2-23.2,20.6c-9.2,8-21.2,18.6-35.9,30.3c-23.7,19-36.7,27.9-41.7,31.2c-7,4.6-11.9,7.5-15.2,9.5
		c-14.5,8.4-26.1,13.4-28.6,14.4c-2.3,1-13.4,5.6-28.7,10c-9.5,2.7-20.5,5.8-35.3,7.6c-9,1.1-16.1,1.2-27.2,1.5
		c-9.7,0.2-17.8,0.1-23.5,0C1451.7,379,1509.1,497.1,1566.5,615.3L1566.5,615.3z"/>
	<path id="manga-braco_dir." fill="#010101" d="M1123.6,465c22.5-46.4,77.1-158.6,99.6-205c-2.7,0-6.6,0.1-11.4,0.1
		c-15.9,0-23.8,0-32.8-0.8c-13.6-1.2-23.7-3.4-26.8-4.1c-7.9-1.8-13.4-3.6-20.2-5.8c-10-3.3-23.1-7.6-38.6-15.3
		c-10.2-5-17.2-9.5-24.4-14c-16.3-10.3-27.9-19.3-38.8-28c-12-9.5-20.3-16.7-32.2-27.1c-16.3-14.2-16.8-15.3-34.7-30.9
		c-10.2-8.9-18.9-16.5-31-26.2c-6.3-5.1-15.1-12.2-27.2-21c-6.9-5-16-11.7-28.7-19.7c-14.7-9.3-26.6-15.8-31.9-18.6
		c-9-4.8-21-11.1-37.5-17.7c-14.1-5.7-24.8-8.9-35.6-12.1c-11.7-3.5-25.9-7.7-45.1-11.3c-16.9-3.2-29.8-4.4-40.2-5.3
		c-4.5-0.4-21.6-1.9-44.6-2.2c-9.8-0.1-22.1-0.2-38.2,0.9c-21.4,1.4-37.5,4.1-47.5,5.7c-10.2,1.7-22.9,3.9-39.4,8.2
		c-4.5,1.2-14.7,4-27.5,8.4c-2.1,0.7-10,3.4-20.2,7.5c-4.8,1.9-12.3,4.9-22,9.4c-2.6,1.2-11.8,5.5-23.5,12
		c-4.5,2.5-13,7.3-23.5,13.9c-7.2,4.6-12.4,8.2-17.8,11.9C369,87,359.1,94.5,353.7,98.7c-2.5,2-12.3,9.5-24.9,20.2
		c-4.5,3.9-9.1,7.9-18,15.7c-14.8,13-16.1,14.3-26.7,23.7c-11.1,9.8-18,15.8-27.6,23.8c-6.5,5.4-12.1,10-19.7,16
		c-6.1,4.7-14.6,11.3-24.9,18.1c-18,11.9-33.1,19.1-36.5,20.7c-12.1,5.7-30.6,13.2-52.7,18.1c-12.2,2.7-21.3,3.7-23.9,4
		c-7.9,0.8-13.9,0.9-21.8,1.1c-6.7,0.1-15.7,0.1-26.3-0.3c60.9,119.1,121.8,238.1,182.7,357.2c272.6-0.8,545.1-1.6,817.7-2.4
		C1054.7,607.1,1087.4,539.7,1123.6,465L1123.6,465z"/>
</g>
</svg>
