<?xml version="1.0" encoding="UTF-8"?>
<!DOCTYPE svg PUBLIC "-//W3C//DTD SVG 1.1//EN" "http://www.w3.org/Graphics/SVG/1.1/DTD/svg11.dtd">
<!-- Creator: CorelDRAW 2018 (64 Bit Versão de avaliação) -->
<svg xmlns="http://www.w3.org/2000/svg" xml:space="preserve" width="258px" height="296px" version="1.1" shape-rendering="geometricPrecision" text-rendering="geometricPrecision" image-rendering="optimizeQuality" fill-rule="evenodd" clip-rule="evenodd" viewBox="0 0 250902 288186" xmlns:xlink="http://www.w3.org/1999/xlink">
	<path class="fundo_gola" d="M96936 8950c-2,8 -6,25 18,320 25,290 78,848 269,1484 4,12 8,25 11,37 200,651 543,1377 1006,2052 464,675 1046,1296 1730,1900 683,603 1469,1190 2577,1803 1109,614 2539,1255 3794,1701 1254,446 2334,695 3339,905 1007,209 1941,377 3058,533 1119,157 2419,301 3632,407 1211,105 2333,171 3631,189 1297,18 2770,-14 4219,-20 1448,-6 2871,14 4361,-52 1491,-67 3052,-219 4872,-422 1822,-204 3906,-458 5654,-778 1750,-320 3164,-707 4444,-1114 1280,-407 2425,-833 3753,-1474 1326,-641 2835,-1497 3906,-2258 1071,-763 1704,-1431 2133,-1894 414,-447 639,-701 853,-1000 7,-10 14,-21 22,-31 221,-312 437,-682 573,-903 136,-222 190,-296 278,-503 88,-208 209,-547 273,-774 62,-227 66,-340 68,-398 2,-60 2,-63 -1497,30 -1500,94 -4497,286 -6711,420 -2214,136 -3645,214 -6361,245 -2716,31 -6719,15 -10666,62 -3948,47 -7840,157 -12045,238 -4207,82 -8725,137 -12145,48 -3419,-90 -5740,-325 -7066,-475 -1324,-152 -1653,-219 -1817,-253 -164,-33 -164,-33 -166,-26l0 1z"/>
</svg>
