<?xml version="1.0" encoding="UTF-8"?>
<!DOCTYPE svg PUBLIC "-//W3C//DTD SVG 1.1//EN" "http://www.w3.org/Graphics/SVG/1.1/DTD/svg11.dtd">
<!-- Creator: CorelDRAW 2018 (64 Bit Versão de avaliação) -->
<svg xmlns="http://www.w3.org/2000/svg" xml:space="preserve" width="232px" height="294px" version="1.1" shape-rendering="geometricPrecision" text-rendering="geometricPrecision" image-rendering="optimizeQuality" fill-rule="evenodd" clip-rule="evenodd" viewBox="0 0 224820 284513" xmlns:xlink="http://www.w3.org/1999/xlink">
	<path class="fundo_gola" d="M78344 5629c-13,448 -37,1345 205,2314 117,466 295,948 606,1528 336,625 827,1362 1563,2311 1417,1829 3742,4446 6298,6796 2556,2349 5342,4433 8867,6456 3525,2022 7789,3985 10659,5196 2871,1212 4349,1672 5088,1902 739,230 739,230 739,230 0,0 0,0 1587,-618 1586,-618 4760,-1853 7788,-3258 3028,-1405 5911,-2980 8745,-4833 2835,-1853 5621,-3985 7898,-6165 2277,-2181 4046,-4410 5209,-6021 488,-676 869,-1243 1170,-1744 415,-692 677,-1256 852,-1804 303,-945 352,-1842 376,-2290 25,-448 25,-448 -1604,-163 -1630,284 -4888,853 -8352,1423 -3465,569 -7135,1138 -10739,1532 -3603,394 -7140,612 -10132,709 -2992,97 -5439,72 -9981,-255 -4543,-327 -11180,-957 -16001,-1623 -4821,-666 -7825,-1369 -9327,-1720 -1502,-351 -1502,-351 -1502,-351 0,0 0,0 -12,448z"/>
</svg>
