<?xml version="1.0" encoding="UTF-8"?>
<!DOCTYPE svg PUBLIC "-//W3C//DTD SVG 1.1//EN" "http://www.w3.org/Graphics/SVG/1.1/DTD/svg11.dtd">
<!-- Creator: CorelDRAW 2018 (64 Bit Versão de avaliação) -->
<svg xmlns="http://www.w3.org/2000/svg" xml:space="preserve" width="240px" height="296px" version="1.1" shape-rendering="geometricPrecision" text-rendering="geometricPrecision" image-rendering="optimizeQuality" fill-rule="evenodd" clip-rule="evenodd"
viewBox="0 0 236408 291873"
 xmlns:xlink="http://www.w3.org/1999/xlink">
	<path class="gola_costas" d="M118.688,13.674c7.939-0.013,15.964-0.486,22.257-1.134c6.295-0.648,10.855-1.471,13.858-2.269 c1.254-0.333,2.235-0.661,3.06-0.987l-0.174-0.071c-0.611-0.278-1.547-1.202-2.502-1.88c-0.492-0.368-0.611-0.561-1.034-0.901 c-2.845-2.29-5.583-5.612-9.534-5.618c-0.897-0.002-1.036-0.122-1.771-0.162l-7.57-0.169c-5.867-0.484-12.006-0.499-17.986-0.475
	c-5.066,0.02-9.518,0.063-14.507,0.475c-2.519,0.208-4.976,0.029-7.569,0.169c-0.735,0.04-0.874,0.16-1.771,0.162
	c-3.951,0.006-6.69,3.329-9.535,5.618c-0.423,0.34-0.541,0.534-1.033,0.901c-0.738,0.524-1.465,1.194-2.039,1.6
	c1.445,0.629,2.988,1.237,4.857,1.782c2.673,0.778,6.014,1.427,11.609,1.975S110.75,13.687,118.688,13.674z"/>
</svg>
