<?xml version="1.0" encoding="UTF-8"?>
<!DOCTYPE svg PUBLIC "-//W3C//DTD SVG 1.1//EN" "http://www.w3.org/Graphics/SVG/1.1/DTD/svg11.dtd">
<!-- Creator: CorelDRAW 2020 (64 Bit) -->
<svg xmlns="http://www.w3.org/2000/svg" xml:space="preserve" width="240px" height="296px" version="1.1" shape-rendering="geometricPrecision" text-rendering="geometricPrecision" image-rendering="optimizeQuality" fill-rule="evenodd" clip-rule="evenodd"
viewBox="0 0 236408 291873"
 xmlns:xlink="http://www.w3.org/1999/xlink"
 xmlns:xodm="http://www.corel.com/coreldraw/odm/2003">
   <path class="fundo_gola" d="M98989 10445c-1244,-12 -2581,-56 -3493,-97 -912,-40 -1400,-76 -1625,-60 -226,16 -189,84 290,805 479,721 1401,2094 2323,3401 922,1306 1844,2547 2922,3793 1077,1246 2309,2498 3559,3634 1250,1135 2519,2154 4065,3348 1546,1194 3370,2563 4818,3644 1447,1081 2519,1875 3330,2871 811,997 1363,2197 1766,3219 402,1023 656,1869 1028,3075 373,1206 864,2772 1192,3849 328,1077 493,1665 576,1959 83,294 83,294 437,-1057 354,-1351 1063,-4053 1764,-6203 700,-2150 1393,-3749 2250,-4866 858,-1117 1881,-1754 3282,-2734 1401,-981 3181,-2305 4754,-3533 1572,-1229 2937,-2360 4391,-3745 1453,-1385 2995,-3024 4493,-4871 1498,-1846 2952,-3899 3795,-5192 844,-1292 1078,-1824 1194,-2090 117,-265 117,-265 117,-265 0,0 0,0 -1429,114 -1430,115 -4289,345 -7327,443 -3038,99 -6255,67 -8997,125 -2742,58 -5009,207 -7794,280 -2784,72 -6086,68 -9195,76 -3108,9 -6023,29 -8057,49 -2033,20 -3185,40 -4429,28z"/>
</svg>
