<?xml version="1.0" encoding="UTF-8"?>
<!DOCTYPE svg PUBLIC "-//W3C//DTD SVG 1.1//EN" "http://www.w3.org/Graphics/SVG/1.1/DTD/svg11.dtd">
<!-- Creator: CorelDRAW 2018 (64 Bit Versão de avaliação) -->
<svg xmlns="http://www.w3.org/2000/svg" xml:space="preserve" width="238px" height="297px" version="1.1" shape-rendering="geometricPrecision" text-rendering="geometricPrecision" image-rendering="optimizeQuality" fill-rule="evenodd" clip-rule="evenodd" viewBox="0 0 241818 301663" xmlns:xlink="http://www.w3.org/1999/xlink">
	<path class="gola" d="M87463 6612c-381,222 -753,402 -1086,543 442,-4 954,-5 1586,-1 1535,10 3778,50 6258,137 2480,86 5197,219 9411,279 4214,60 9927,47 15339,40 5413,-6 10526,-6 14055,80 3528,87 5472,260 7646,280 2174,20 4577,-113 6272,-213 1694,-100 2679,-167 3698,-273 411,-43 827,-93 1247,-146 -55,-44 -115,-92 -181,-146 -648,-523 -1901,-1539 -2843,-2289 -941,-750 -1570,-1235 -2254,-1602 -684,-367 -1423,-616 -3143,-968 -1720,-353 -4422,-807 -6814,-1169 -2391,-362 -4474,-632 -6636,-789 -2162,-157 -4404,-202 -7187,-264 -2784,-63 -6110,-143 -9790,-98 -3680,45 -7714,215 -10905,537 -3191,322 -5538,796 -7033,1173 -1496,377 -2140,657 -2934,1224 -794,566 -1737,1420 -2551,2099 -814,679 -1498,1184 -2155,1566z"/>
</svg>
