<?xml version="1.0" encoding="UTF-8"?>
<!DOCTYPE svg PUBLIC "-//W3C//DTD SVG 1.1//EN" "http://www.w3.org/Graphics/SVG/1.1/DTD/svg11.dtd">
<!-- Creator: CorelDRAW 2018 (64 Bit Versão de avaliação) -->
<svg xmlns="http://www.w3.org/2000/svg" xml:space="preserve" width="232px" height="294px" version="1.1" shape-rendering="geometricPrecision" text-rendering="geometricPrecision" image-rendering="optimizeQuality" fill-rule="evenodd" clip-rule="evenodd" viewBox="0 0 224820 284513" xmlns:xlink="http://www.w3.org/1999/xlink">
	<path class="gola_2" d="M91099 22354c2364,2702 3034,4407 4390,7937 71,19 142,36 214,55 2937,738 6159,1441 9061,1937 2900,497 5481,788 9314,667 3834,-121 8921,-654 13137,-1424 1773,-323 3392,-689 4883,-1084 1120,-4347 1940,-5897 3968,-8812 -60,9 -119,18 -179,28 -3606,546 -6683,863 -9843,1046 -3629,192 -7976,248 -12958,253 -5699,6 -12228,-55 -16322,-206 -2731,-101 -4378,-242 -5665,-397z"/>
</svg>
