<?xml version="1.0" encoding="utf-8"?>
<!-- Generator: Adobe Illustrator 19.0.0, SVG Export Plug-In . SVG Version: 6.00 Build 0)  -->
<svg version="1.1" xmlns="http://www.w3.org/2000/svg" xmlns:xlink="http://www.w3.org/1999/xlink" x="0px" y="0px"
	width="420px" height="500px" viewBox="0 0 420 500" enable-background="new 0 0 420 500" xml:space="preserve"
	image-rendering="optimizeQuality" text-rendering="geometricPrecision" shape-rendering="geometricPrecision">
	<path d="M261.1,16c-0.5,0-1.4,0-2.6,0.1c-1.2,0.1-2.6,0.2-5.1,0.5c-2.5,0.3-6.2,0.7-8.9,1
	c-2.8,0.3-4.6,0.4-6.9,0.5c-2.3,0.1-5.1,0.2-7.9,0.3c-2.9,0.1-5.9,0.1-9.5,0.1c-3.6,0-7.8,0-11.7,0c-3.9,0-7.4-0.1-10.6-0.2
	c-3.2-0.1-6.1-0.1-9.2-0.3c-3.1-0.1-6.3-0.3-9.2-0.5c-2.9-0.2-5.5-0.4-8.1-0.8c-2.6-0.3-5-0.8-7.3-1.1c-2.2-0.3-4.3-0.5-5.7-0.6
	c-1.5-0.1-2.4-0.1-2.8-0.2c-0.5,0-0.5,0-0.5,0s0,0,0.3,1.2c0.3,1.2,1,3.7,1.8,6.1s1.7,4.6,2.6,6.8c0.9,2.2,1.8,4.4,2.7,6.3
	c0.9,1.9,1.7,3.5,2.8,5.4c1.1,1.9,2.4,4.2,3.6,6.3c1.3,2.1,2.5,4.1,3.5,5.6c1.1,1.6,2,2.8,3.2,4.4c1.2,1.7,2.8,3.8,4.2,5.7
	s2.7,3.7,3.9,5.5c1.2,1.7,2.4,3.4,3.5,4.9c1.1,1.5,2,2.7,3,4c1,1.3,2.1,2.6,3,3.6c0.9,1.1,1.6,1.9,2.5,3c0.9,1,2,2.2,3.1,3.4
	s2.4,2.4,3.3,3.3c0.9,0.9,1.5,1.5,2.3,2.3c0.8,0.9,2,2,2.6,2.7c0.7,0.7,0.9,0.9,0.9,1c0.1,0.1,0.1,0.1,0.6-0.4
	c0.5-0.5,1.5-1.5,2.4-2.4c0.9-0.9,1.7-1.8,3.2-3.2s3.5-3.6,5.2-5.4c1.7-1.8,3-3.2,4.4-4.9c1.4-1.7,2.9-3.6,4.5-5.7
	c1.6-2.1,3.3-4.5,5.2-7.1c1.9-2.6,3.9-5.4,5.6-7.8s3.1-4.3,4.5-6.3c1.4-2,2.8-4.1,3.9-5.9c1.1-1.8,1.9-3.2,2.7-4.6s1.5-2.8,2.2-4.1
	s1.2-2.5,2-4.2c0.8-1.6,1.7-3.6,2.7-5.9c1-2.3,2-4.9,2.7-6.8s1-3.2,1.3-4.1c0.2-0.8,0.3-1.3,0.4-1.5s0.1-0.2,0.1-0.2
	C261.6,15.9,261.6,15.9,261.1,16z"/>
</svg>
