<?xml version="1.0" encoding="UTF-8"?>
<!DOCTYPE svg PUBLIC "-//W3C//DTD SVG 1.1//EN" "http://www.w3.org/Graphics/SVG/1.1/DTD/svg11.dtd">
<!-- Creator: CorelDRAW 2020 (64 Bit) -->
<svg xmlns="http://www.w3.org/2000/svg" xml:space="preserve" width="232px" height="294px" version="1.1" shape-rendering="geometricPrecision" text-rendering="geometricPrecision" image-rendering="optimizeQuality" fill-rule="evenodd" clip-rule="evenodd"
viewBox="0 0 224820 284513"
 xmlns:xlink="http://www.w3.org/1999/xlink"
 xmlns:xodm="http://www.corel.com/coreldraw/odm/2003">

   <path class="gola_2" d="M118605 53249c-257,-231 -620,-291 -2468,-306 -897,-8 -2145,-5 -3572,4 -1428,-9 -2676,-12 -3573,-4 -1847,15 -2211,75 -2468,306 -258,231 -409,632 -326,931 83,299 402,496 663,594 261,99 465,99 598,27 132,-72 193,-216 431,-295 239,-80 655,-95 1723,-91 742,3 1799,14 2952,29 1152,-15 2209,-26 2952,-29 1067,-4 1483,11 1722,91 238,79 299,223 431,295 133,72 337,72 598,-27 262,-98 580,-295 663,-594 83,-299 -68,-700 -326,-931zm-9015 -6923c742,2 1799,14 2952,29 1153,-15 2210,-27 2952,-29 1067,-4 1484,11 1722,91 239,79 299,223 432,295 132,72 337,72 598,-27 261,-98 579,-295 662,-594 84,-299 -68,-700 -325,-931 -258,-231 -621,-291 -2468,-307 -898,-7 -2145,-4 -3573,5 -1428,-9 -2675,-12 -3573,-5 -1847,16 -2210,76 -2468,307 -257,231 -409,632 -325,931 83,299 401,496 662,594 261,99 466,99 598,27 133,-72 193,-216 432,-295 238,-80 655,-95 1722,-91zm0 4177c742,3 1799,15 2952,29 1153,-14 2210,-26 2952,-29 1067,-3 1484,12 1722,91 239,80 299,223 432,295 132,72 337,72 598,-26 261,-98 579,-295 662,-594 84,-299 -68,-700 -325,-931 -258,-231 -621,-292 -2468,-307 -898,-7 -2145,-4 -3573,5 -1428,-9 -2675,-12 -3573,-5 -1847,15 -2210,76 -2468,307 -257,231 -409,632 -325,931 83,299 401,496 662,594 261,98 466,98 598,26 133,-72 193,-215 432,-295 238,-79 655,-94 1722,-91z"/>
</svg>
