<?xml version="1.0" encoding="UTF-8"?>
<!DOCTYPE svg PUBLIC "-//W3C//DTD SVG 1.1//EN" "http://www.w3.org/Graphics/SVG/1.1/DTD/svg11.dtd">
<!-- Creator: CorelDRAW 2018 (64 Bit Versão de avaliação) -->
<svg xmlns="http://www.w3.org/2000/svg" xml:space="preserve" width="258px" height="296px" version="1.1" shape-rendering="geometricPrecision" text-rendering="geometricPrecision" image-rendering="optimizeQuality" fill-rule="evenodd" clip-rule="evenodd" viewBox="0 0 250902 288186" xmlns:xlink="http://www.w3.org/1999/xlink">
	<path class="fundo_gola" d="M100009 9317c20,109 39,219 32,1065 -8,846 -44,2429 60,3811 104,1381 346,2562 717,3910 372,1348 872,2865 1423,4209 551,1345 1153,2517 1946,3850 794,1333 1778,2826 2845,4327 1067,1501 2216,3010 3280,4225 1063,1216 2040,2138 2994,3032 953,896 1883,1764 2743,2545 860,782 1650,1478 2220,1891 572,416 922,548 1654,701 731,151 1841,324 3834,366 1993,44 4870,-42 6578,-147 1708,-106 2248,-231 2888,-583 641,-351 1384,-930 2187,-1526 804,-597 1667,-1210 2648,-2060 982,-850 2080,-1937 3313,-3277 1233,-1341 2601,-2935 3629,-4189 1028,-1255 1715,-2170 2396,-3166 680,-997 1352,-2076 2114,-3514 762,-1439 1615,-3237 2248,-5023 633,-1786 1047,-3560 1266,-5401 219,-1841 241,-3748 254,-4702 11,-953 11,-953 -453,-889 -465,65 -1396,193 -3170,280 -1775,86 -4394,128 -9471,243 -5076,116 -12612,303 -18209,429 -5597,125 -9255,187 -12593,109 -3337,-78 -6354,-297 -9372,-516l-1 0z"/>
</svg>
