<?xml version="1.0" encoding="UTF-8"?>
<!DOCTYPE svg PUBLIC "-//W3C//DTD SVG 1.1//EN" "http://www.w3.org/Graphics/SVG/1.1/DTD/svg11.dtd">
<!-- Creator: CorelDRAW 2018 (64 Bit Versão de avaliação) -->
<svg xmlns="http://www.w3.org/2000/svg" xml:space="preserve" width="256px" height="285px" version="1.1" shape-rendering="geometricPrecision" text-rendering="geometricPrecision" image-rendering="optimizeQuality" fill-rule="evenodd" clip-rule="evenodd" viewBox="0 0 256000 284773" xmlns:xlink="http://www.w3.org/1999/xlink">
	<path class="gola" d="M100362 5665c3323,-446 7603,-779 11736,-976 4134,-198 8122,-260 12370,-296 4248,-37 8756,-47 13103,119 4346,166 8532,509 11611,779 3080,270 5053,468 7177,597 2124,130 4399,193 6175,281 1776,88 3053,202 4253,332 732,80 1435,164 2126,252 -85,-50 -175,-103 -272,-162 -890,-543 -2381,-1545 -3458,-2353 -1078,-807 -1743,-1420 -2444,-1849 -701,-428 -1438,-672 -2498,-854 -1059,-182 -2440,-301 -3858,-371 -1418,-70 -2872,-91 -4936,-169 -2064,-78 -4739,-213 -7603,-384 -2864,-172 -5917,-379 -7751,-490 -1833,-112 -2446,-127 -4129,-119 -1682,8 -4435,39 -7499,81 -3064,41 -6439,93 -9758,238 -3318,146 -6579,385 -9576,722 -2996,338 -5728,774 -7743,1299 -2015,524 -3313,1137 -4414,1838 -1101,701 -2005,1490 -2944,2228 -940,737 -1916,1423 -2737,1926 -469,288 -887,517 -1446,776 393,-151 836,-309 1362,-476 1339,-425 3216,-913 5339,-1437 2122,-524 4490,-1085 7814,-1532z"/>
</svg>
