<?xml version="1.0" encoding="UTF-8"?>
<!DOCTYPE svg PUBLIC "-//W3C//DTD SVG 1.1//EN" "http://www.w3.org/Graphics/SVG/1.1/DTD/svg11.dtd">
<!-- Creator: CorelDRAW 2018 (64 Bit Versão de avaliação) -->
<svg xmlns="http://www.w3.org/2000/svg" xml:space="preserve" width="252px" height="275px" version="1.1" shape-rendering="geometricPrecision" text-rendering="geometricPrecision" image-rendering="optimizeQuality" fill-rule="evenodd" clip-rule="evenodd" viewBox="0 0 257470 280598" xmlns:xlink="http://www.w3.org/1999/xlink">
   <path class="fundo_gola" d="M112670 11865c-3300,-304 -5499,-449 -8068,-817 -2568,-368 -5504,-959 -7558,-1468 -2054,-510 -3227,-938 -3813,-1152 -587,-214 -587,-214 -587,-214 0,0 0,0 989,826 989,826 2966,2479 4995,3964 2028,1485 4108,2803 6458,4049 2350,1245 4969,2418 6823,3210 1853,791 2940,1202 4977,1686 2037,484 5025,1040 8201,1322 3175,283 6540,291 9608,39 3069,-253 5842,-766 8496,-1430 2654,-663 5187,-1476 7310,-2435 2123,-959 3835,-2063 5586,-3304 1750,-1241 3539,-2619 4999,-3745 1459,-1126 2589,-1999 3497,-2906 907,-908 1592,-1849 1934,-2320 343,-471 343,-471 343,-471 0,0 0,0 -878,253 -877,252 -2632,757 -5795,1438 -3163,680 -7734,1536 -11774,2230 -4041,693 -7550,1224 -11402,1609 -3852,385 -8047,625 -12344,514 -4297,-112 -8697,-574 -11997,-878z"/>
</svg>
