<?xml version="1.0" encoding="UTF-8"?>
<!DOCTYPE svg PUBLIC "-//W3C//DTD SVG 1.1//EN" "http://www.w3.org/Graphics/SVG/1.1/DTD/svg11.dtd">
<!-- Creator: CorelDRAW 2018 (64 Bit Versão de avaliação) -->
<svg xmlns="http://www.w3.org/2000/svg" xml:space="preserve" width="232px" height="309px" version="1.1" shape-rendering="geometricPrecision" text-rendering="geometricPrecision" image-rendering="optimizeQuality" fill-rule="evenodd" clip-rule="evenodd" viewBox="0 0 224820 299431" xmlns:xlink="http://www.w3.org/1999/xlink">
	<path class="gola_2" d="M115597 25810c-2937,37 -6253,30 -8608,-27 -2117,-51 -3457,-142 -4719,-237 149,702 240,1450 310,2265 130,1539 179,3314 222,5111 936,137 1951,252 3078,332 2543,182 5655,189 8286,189 2630,0 4781,-8 6416,-114 1062,-69 1906,-179 2934,-382 -24,-1771 -30,-3502 109,-4901 103,-1031 284,-1882 522,-2667 -322,72 -793,140 -1592,200 -1461,109 -4020,193 -6958,231z"/>
</svg>
