<?xml version="1.0" encoding="UTF-8"?>
<!DOCTYPE svg PUBLIC "-//W3C//DTD SVG 1.1//EN" "http://www.w3.org/Graphics/SVG/1.1/DTD/svg11.dtd">
<!-- Creator: CorelDRAW 2018 (64 Bit Versão de avaliação) -->
<svg xmlns="http://www.w3.org/2000/svg" xml:space="preserve" width="240px" height="306px" version="1.1" shape-rendering="geometricPrecision" text-rendering="geometricPrecision" image-rendering="optimizeQuality" fill-rule="evenodd" clip-rule="evenodd"
viewBox="0 0 236408 300866"
 xmlns:xlink="http://www.w3.org/1999/xlink">
	<path class="gola" d="M99367 31909c-850,-1012 -1425,-1892 -2146,-3091 -722,-1199 -1590,-2717 -2257,-4320 -668,-1603 -1136,-3291 -1429,-4591 -293,-1300 -412,-2211 -472,-2667 -59,-456 -59,-456 -59,-456 0,0 0,0 723,-4 724,-3 2170,-11 5101,-89 2931,-77 7345,-224 11526,-337 4182,-113 8129,-192 11874,-243 3745,-52 7288,-76 10133,-20 2846,55 4994,190 6882,250 1889,59 3517,43 4407,33 890,-10 1040,-14 1116,-16 75,-2 75,-2 73,589 -2,590 -6,1771 -147,3127 -140,1355 -418,2885 -913,4490 -496,1605 -1209,3285 -1946,4748 -737,1462 -1498,2706 -2096,3515 -599,808 -1035,1181 -1483,1597 -447,416 -907,876 -1343,1336 -436,459 -848,919 -1141,1177 -294,257 -468,313 -841,638 -372,325 -943,919 -1442,1292 -499,372 -927,523 -1280,816 -353,293 -630,729 -1264,1236 -635,508 -1625,1086 -2759,1887 -1133,800 -2409,1823 -3362,2592 -954,768 -1584,1284 -2159,1759 -574,476 -1093,912 -1389,1167 -295,256 -366,331 -495,260 -129,-72 -315,-289 -676,-725 -360,-436 -895,-1090 -1708,-2033 -812,-944 -1902,-2176 -2667,-3016 -765,-841 -1205,-1288 -1688,-1615 -484,-327 -1011,-533 -1514,-759 -503,-226 -983,-472 -1657,-716 -673,-243 -1541,-485 -2239,-816 -697,-331 -1224,-751 -1849,-1177 -624,-426 -1345,-858 -2080,-1278 -735,-420 -1484,-828 -2422,-1605 -937,-777 -2062,-1922 -2912,-2935zm-16632 -14873c-284,336 -569,672 -984,1954 -416,1282 -963,3509 -1280,5423 -317,1914 -404,3515 -444,6289 -40,2774 -32,6722 135,9833 166,3111 491,5385 697,6697 206,1312 294,1661 456,1867 163,206 400,269 991,-4 590,-274 1534,-884 2845,-1633 1312,-749 2992,-1637 4891,-2481 1898,-844 4014,-1644 5921,-2326 1906,-682 3602,-1244 5100,-1704 1498,-460 2798,-816 3638,-999 840,-182 1221,-190 1490,-55 270,135 428,412 886,1488 458,1076 1215,2950 1684,4375 470,1425 652,2400 973,3620 321,1221 781,2687 1138,3662 356,975 610,1459 820,1784 210,325 377,491 527,792 151,301 286,737 286,1827 0,1090 -135,2834 -100,5009 36,2176 242,4784 379,6379 137,1595 204,2178 426,2469 222,291 598,291 2522,291 1924,0 5396,0 7170,6 1773,6 1848,18 1928,-47 79,-66 162,-208 173,-2387 11,-2179 -50,-6393 -93,-9484 -43,-3090 -67,-5055 -78,-6684 -12,-1629 -12,-2921 -12,-3571 0,-650 0,-658 8,-840 7,-182 23,-539 114,-797 92,-257 258,-416 874,-675 617,-260 1683,-621 2757,-890 1073,-270 2155,-448 3241,-581 1086,-132 2176,-220 2860,-269 683,-50 961,-62 1111,-74 151,-11 175,-23 272,-513 97,-489 267,-1456 368,-1882 101,-426 133,-311 636,-157 504,155 1479,349 2836,636 1357,288 3097,668 5400,1207 2302,539 5167,1237 7840,1952 2674,715 5154,1448 6676,1906 1522,458 2085,640 2390,717 305,78 353,50 378,18 26,-31 30,-67 -21,-1450 -52,-1383 -159,-4114 -379,-6577 -220,-2463 -553,-4658 -941,-6929 -389,-2271 -832,-4617 -1205,-6452 -372,-1835 -674,-3159 -1066,-4708 -392,-1550 -876,-3325 -1410,-4453 -534,-1127 -1118,-1607 -1524,-1940 -406,-334 -633,-521 -860,-709 -262,-180 -572,-416 -871,-703 -383,-369 -747,-823 -1107,-1323 -360,-500 -715,-1045 -1075,-1653 -360,-608 -724,-1279 -1295,-2170 -571,-890 -1348,-2000 -1990,-2894 -641,-895 -1147,-1573 -1890,-2334 -743,-760 -1724,-1602 -2576,-2150 -852,-547 -1575,-800 -2776,-1032 -1202,-233 -2881,-446 -5576,-736 -2695,-290 -6405,-656 -9764,-832 -3358,-176 -6365,-161 -8922,-84 -2556,76 -4661,215 -6846,383 -2184,169 -4448,367 -6524,618 -2076,252 -3963,556 -5641,855 -1678,298 -3147,591 -4086,823 -938,233 -1347,407 -1829,703 -481,297 -1036,717 -1685,1340 -649,624 -1392,1451 -1982,2286 -589,834 -1025,1676 -1688,3023 -662,1347 -1552,3199 -2191,4357 -639,1159 -1028,1624 -1321,1935 -294,312 -492,468 -684,588 -41,25 -81,48 -121,70z"/>
</svg>
