<?xml version="1.0" encoding="UTF-8"?>
<!DOCTYPE svg PUBLIC "-//W3C//DTD SVG 1.1//EN" "http://www.w3.org/Graphics/SVG/1.1/DTD/svg11.dtd">
<!-- Creator: CorelDRAW 2018 (64 Bit Versão de avaliação) -->
<svg xmlns="http://www.w3.org/2000/svg" xml:space="preserve" width="232px" height="307px" version="1.1" shape-rendering="geometricPrecision" text-rendering="geometricPrecision" image-rendering="optimizeQuality" fill-rule="evenodd" clip-rule="evenodd" viewBox="0 0 224820 297708" xmlns:xlink="http://www.w3.org/1999/xlink">
	<path class="fundo_gola" d="M104121 15003c-3553,80 -6945,181 -9196,212 -2251,30 -3362,-11 -4038,-20 -676,-11 -918,9 -1040,20 -121,10 -121,10 -121,10 0,0 0,0 313,1252 313,1251 939,3754 2080,6308 1140,2554 2796,5158 4380,7026 1585,1867 3099,2998 4684,3936 1585,939 3240,1686 4664,2342 1423,656 2614,1221 3876,2271 1261,1050 2594,2584 3684,3765 1090,1181 1938,2009 2362,2423 424,414 424,414 1544,-465 1121,-878 3362,-2634 5734,-4390 2372,-1757 4875,-3513 6914,-5300 2039,-1786 3614,-3603 4845,-5269 1232,-1665 2120,-3179 2695,-5208 576,-2029 838,-4573 959,-6137 121,-1565 101,-2150 91,-2443 -10,-293 -10,-293 -10,-293 0,0 0,0 -3907,-40 -3906,-41 -11719,-122 -17482,-131 -5764,-11 -9478,50 -13031,131z"/>
</svg>
