<?xml version="1.0" encoding="UTF-8"?>
<!DOCTYPE svg PUBLIC "-//W3C//DTD SVG 1.1//EN" "http://www.w3.org/Graphics/SVG/1.1/DTD/svg11.dtd">
<!-- Creator: CorelDRAW 2019 (64 Bit) -->
<svg xmlns="http://www.w3.org/2000/svg" xml:space="preserve" width="240px" height="296px" version="1.1" shape-rendering="geometricPrecision" text-rendering="geometricPrecision" image-rendering="optimizeQuality" fill-rule="evenodd" clip-rule="evenodd"
viewBox="0 0 236408 291873"
 xmlns:xlink="http://www.w3.org/1999/xlink">
 <g id="Gola_x0020_Redonda_x0020_Prime">
  <metadata id="CorelCorpID_0Corel-Layer"/>
  <path class="fundo_gola" d="M115051 26918c719,373 1262,726 1533,902 272,176 272,176 272,176 0,0 0,0 376,-71 377,-71 1130,-214 1938,-333 809,-119 1673,-214 2580,-370 908,-157 1859,-375 2907,-664 1048,-289 2194,-650 3507,-1140 1314,-489 2796,-1107 4096,-1698 1300,-590 2418,-1153 3860,-1888 1443,-735 3210,-1643 4489,-2378 1278,-735 2066,-1298 2787,-1882 722,-585 1376,-1191 1925,-1770 548,-579 992,-1129 1375,-1754 382,-624 703,-1321 985,-2062 281,-741 523,-1526 644,-1918 4,-16 9,-31 13,-45 1,-4 3,-7 4,-11 29,-114 59,-228 85,-333 -27,6 -91,21 -245,56 -264,59 -791,178 -1518,265 -727,87 -1655,143 -2622,173 -967,29 -1973,33 -3255,35 -1282,2 -2840,2 -4338,-10 -1498,-12 -2936,-35 -4349,-55 -1413,-20 -2800,-36 -4009,-64 -1209,-27 -2239,-67 -3259,-95 -1021,-27 -2032,-43 -3090,-47 -1058,-4 -2163,4 -3202,8 -1038,4 -2009,4 -3033,39 -1025,36 -2103,107 -3541,161 -1439,53 -3238,89 -4980,119 -1742,29 -3426,53 -4912,6 -1486,-48 -2774,-167 -4195,-301 -1421,-135 -2974,-286 -4155,-432 -1181,-147 -1990,-290 -2407,-366 -417,-76 -443,-86 -456,-91 -5,-2 -9,-4 -10,-4 -3,-1 -3,-1 -3,-1 0,0 0,0 45,88 45,88 134,264 357,783 223,518 579,1378 976,2182 396,805 832,1554 1432,2382 601,828 1365,1736 2130,2495 765,759 1530,1369 2434,2053 903,683 1945,1440 2857,2005 912,565 1692,937 2758,1411 1066,473 2418,1048 3916,1613 1498,565 3142,1119 4413,1593 1270,474 2165,866 2885,1238z"/>
 </g>
</svg>
