<?xml version="1.0" encoding="utf-8"?>
<!-- Generator: Adobe Illustrator 19.0.0, SVG Export Plug-In . SVG Version: 6.00 Build 0)  -->
<svg version="1.1" xmlns="http://www.w3.org/2000/svg" xmlns:xlink="http://www.w3.org/1999/xlink" x="0px" y="0px"
	width="431.1px" height="499.8px" viewBox="0 0 431.1 499.8" enable-background="new 0 0 431.1 499.8" xml:space="preserve">
	<path d="M141.6,6.6c0.8,0.1,1.8,0.3,4.7,1c2.8,0.7,7.4,1.9,11.2,2.8s6.9,1.6,9.8,2.3c2.9,0.7,5.6,1.3,8.8,1.9
	c3.2,0.6,6.9,1.3,10.8,1.8c3.9,0.6,7.9,1.1,11.3,1.4c3.4,0.4,6.2,0.6,9.4,0.7c3.2,0.2,6.7,0.3,11.5,0.2c4.8-0.1,11-0.4,17.1-1
	s12.2-1.5,17.9-2.5s11-2.2,16-3.4s9.7-2.3,13.1-3.2c3.4-0.8,5.6-1.3,7.1-1.7c1.5-0.3,2.3-0.5,3.9-0.6l0,0c-0.2-0.2-0.5-0.4-0.8-0.6
	c-0.5-0.3-1-0.6-1.6-0.8c-0.6-0.2-1.5-0.6-2.2-1c-0.8-0.4-1.5-0.8-2.2-1.2c-0.5-0.3-0.9-0.6-1.4-1c-0.5-0.3-1.4-0.7-2-1.2
	c-0.1-0.1-0.3-0.2-0.5-0.3c-0.4-0.3-1.1-0.5-2-0.5c-0.1,0-0.2,0-0.3,0c-0.2,0-0.3,0-0.5,0c-1.1,0.1-2.8,0.1-4.2,0.2
	c-1.6,0.1-3.4,0.3-5.2,0.6c-1.6,0.2-3.4,0.5-5.1,0.8c-1.6,0.3-5.1,0.8-7.7,1.2c-3.8,0.6-8.6,1.3-11.2,1.6c-3.2,0.4-6.7,0.7-10.2,0.9
	c-4.5,0.3-11,0.4-16.7,0.5c-3.7,0-7.9,0.1-10.9,0c-4.3-0.1-8.5-0.2-12.9-0.5c-4.1-0.3-8.4-0.6-12-1c-4.2-0.5-8.6-1-12-1.6
	c-1.8-0.3-3.7-0.7-5.2-0.9s-3.3-0.5-5-0.7c-1-0.1-1.9-0.2-2.9-0.4c-0.7-0.1-1.3-0.2-2.1-0.3c-0.5,0-1.7-0.1-2-0.1
	c-0.7,0-1.4-0.1-2-0.1c-0.7,0-1.3,0.1-2,0.2c-0.1,0-0.2,0-0.4,0.1c-0.3,0.1-0.6,0.2-0.9,0.4c-0.9,0.5-2.6,1.5-2.9,1.7
	c-0.4,0.2-1.3,0.6-2,1c-0.9,0.4-2,0.9-2.5,1c-0.8,0.3-1.5,0.6-2.2,0.9c-0.5,0.2-0.9,0.5-1.3,0.8c-0.2,0.2-0.4,0.3-0.6,0.5
	c-0.3,0.1-0.6,0.2-0.9,0.3c0.4-0.1,0.7-0.1,1-0.1C140.4,6.5,140.8,6.5,141.6,6.6z"/>
</svg>
