<?xml version="1.0" encoding="UTF-8"?>
<!DOCTYPE svg PUBLIC "-//W3C//DTD SVG 1.1//EN" "http://www.w3.org/Graphics/SVG/1.1/DTD/svg11.dtd">
<!-- Creator: CorelDRAW 2018 (64 Bit Versão de avaliação) -->
<svg xmlns="http://www.w3.org/2000/svg" xml:space="preserve" width="258px" height="296px" version="1.1" shape-rendering="geometricPrecision" text-rendering="geometricPrecision" image-rendering="optimizeQuality" fill-rule="evenodd" clip-rule="evenodd" viewBox="0 0 250902 288207" xmlns:xlink="http://www.w3.org/1999/xlink">
	<path class="fundo_gola" d="M103498 18371c1043,1486 2099,2855 3263,4726 313,503 633,1042 950,1596 749,168 1498,336 3581,498 2083,162 5499,319 8025,456 2527,136 4163,254 5770,296 1607,42 3184,10 5231,-91 2048,-101 4564,-270 6852,-437 2289,-166 4349,-329 5646,-436 1298,-108 1832,-160 2279,-272 289,-71 542,-168 781,-273 300,-709 625,-1420 979,-2132 740,-1487 1608,-2973 2572,-4613 965,-1639 2027,-3432 2765,-4847 736,-1414 1147,-2450 1352,-2969 205,-519 205,-519 205,-519 0,0 0,0 -566,70 -568,68 -1702,205 -4206,342 -2503,136 -6375,273 -10309,413 -3935,141 -7931,284 -12290,349 -4357,65 -9078,52 -13276,59 -4199,6 -7876,33 -10245,-88 -2370,-121 -3433,-388 -3964,-522 -532,-133 -532,-133 -546,-120 -15,13 -44,38 294,678 340,638 1048,1890 1916,3318 869,1427 1898,3031 2941,4518l0 0z"/>
</svg>
