<?xml version="1.0" encoding="UTF-8"?>
<!DOCTYPE svg PUBLIC "-//W3C//DTD SVG 1.1//EN" "http://www.w3.org/Graphics/SVG/1.1/DTD/svg11.dtd">
<!-- Creator: CorelDRAW 2018 (64 Bit Versão de avaliação) -->
<svg xmlns="http://www.w3.org/2000/svg" xml:space="preserve" width="240px" height="296px" version="1.1" shape-rendering="geometricPrecision" text-rendering="geometricPrecision" image-rendering="optimizeQuality" fill-rule="evenodd" clip-rule="evenodd" viewBox="0 0 236408 291873" xmlns:xlink="http://www.w3.org/1999/xlink">
	<path class="fundo_gola" d="M88493 10392c0,3 0,6 1,9 4,17 12,50 23,244 10,193 24,545 27,750 3,204 -5,259 50,346 54,88 171,206 392,467 61,72 130,155 210,251 206,252 482,596 863,1077 527,664 1256,1592 1958,2495 701,904 1375,1784 2092,2628 718,844 1479,1652 2505,2631 1027,979 2318,2129 3725,3214 1407,1086 2929,2109 4332,2996 1403,888 2687,1641 3951,2331 1264,689 2509,1315 4042,2021 1534,705 3357,1490 4550,1894 1193,404 1756,428 2037,440 281,12 281,12 904,-103 622,-115 1866,-345 3245,-824 1379,-480 2893,-1209 4593,-2085 1699,-876 3585,-1899 5241,-2910 1657,-1010 3085,-2008 4227,-2844 1142,-836 1998,-1510 2965,-2362 967,-852 2045,-1883 2980,-2897 935,-1015 1728,-2013 2536,-3067 809,-1055 1633,-2164 2287,-3048 654,-884 1137,-1542 1431,-1918 11,-15 22,-29 33,-43 268,-341 365,-433 422,-548 60,-119 76,-261 76,-527 0,-265 -16,-654 -24,-848 46,-197 92,-395 115,-759 22,-364 22,-895 22,-1161 0,-265 0,-265 -606,-301 -606,-36 -1819,-107 -3753,-166 -1934,-60 -4589,-107 -6682,-202 -2092,-96 -3622,-238 -5758,-325 -2136,-88 -4878,-119 -7573,-147 -2695,-28 -5343,-52 -7831,-59 -2489,-8 -4819,0 -6805,-4 -1986,-4 -3626,-20 -5334,51 -1708,71 -3484,230 -5140,321 -1657,91 -3195,115 -4370,226 -1175,111 -1987,309 -3271,501 -1284,192 -3040,379 -3917,472 -878,93 -878,93 -878,132 0,40 0,119 18,403 18,281 53,764 89,1248z"/>
</svg>
