<?xml version="1.0" encoding="UTF-8"?>
<!DOCTYPE svg PUBLIC "-//W3C//DTD SVG 1.1//EN" "http://www.w3.org/Graphics/SVG/1.1/DTD/svg11.dtd">
<!-- Creator: CorelDRAW 2018 (64 Bit Versão de avaliação) -->
<svg xmlns="http://www.w3.org/2000/svg" xml:space="preserve" width="258px" height="296px" version="1.1" shape-rendering="geometricPrecision" text-rendering="geometricPrecision" image-rendering="optimizeQuality" fill-rule="evenodd" clip-rule="evenodd" viewBox="0 0 250902 288186" xmlns:xlink="http://www.w3.org/1999/xlink">
	<path class="gola" d="M99087 12980c-681,-1478 -1150,-2736 -1384,-3365 -235,-629 -235,-629 -235,-629 0,0 0,0 144,23 145,23 434,70 903,121 469,51 1118,105 1675,163 557,56 1022,115 2894,181 1872,66 5151,141 8866,135 3716,-5 7867,-92 12095,-154 4229,-63 8536,-102 12499,-160 3963,-59 7583,-137 10569,-266 2985,-130 5338,-309 6515,-399 1177,-89 1177,-89 1177,-89 0,0 0,0 -98,269 -98,270 -294,810 -762,1751 -470,942 -1213,2287 -1759,3201 -547,915 -899,1399 -1451,2197 -550,797 -1300,1907 -2145,2903 -844,997 -1782,1880 -2521,2619 -739,738 -1278,1333 -2044,1919 -766,587 -1759,1164 -2630,1794 -872,629 -1622,1309 -2791,2001 -1169,692 -2756,1395 -4483,2111 -1727,715 -3596,1442 -5077,1900 -1482,456 -2575,644 -3553,687 -977,44 -1837,-58 -3428,-515 -1591,-458 -3912,-1271 -5776,-2057 -1864,-785 -3272,-1543 -4808,-2545 -1536,-1000 -3201,-2242 -4878,-3771 -1677,-1529 -3365,-3341 -4655,-5097 -1289,-1754 -2181,-3451 -2860,-4928l1 0zm-7796 -5587c-448,618 -894,1236 -1044,2369 -150,1133 -2,2783 417,4511 418,1727 1107,3532 2079,5397 973,1864 2231,3788 3655,5644 1422,1857 3009,3647 4619,5151 1611,1505 3244,2725 5023,3885 1778,1161 3701,2263 5948,3358 2248,1094 4819,2180 7137,3177 2318,997 4382,1904 5449,2349 1066,446 1137,430 1904,43 765,-387 2227,-1146 4108,-1986 1879,-840 4177,-1762 5971,-2517 1794,-754 3084,-1340 4460,-2146 1375,-805 2837,-1829 4229,-2865 1391,-1035 2712,-2083 4193,-3462 1481,-1380 3124,-3092 4499,-4721 1376,-1631 2486,-3178 3381,-4605 895,-1426 1575,-2732 2189,-4088 613,-1356 1160,-2763 1528,-4002 367,-1240 556,-2311 586,-3132 32,-820 -94,-1391 -301,-1824 -206,-434 -495,-731 -657,-943 -7,-10 -14,-19 -20,-27 -138,-73 -248,-138 -348,-204 -184,-120 -335,-240 -468,-338 -78,-58 -150,-108 -218,-145 -185,-102 -346,-113 -452,-114 -108,0 -160,10 -244,-4 -85,-13 -199,-50 -571,-283 -371,-234 -999,-664 -1630,-1159 -631,-496 -1266,-1058 -1901,-1613 -634,-556 -1266,-1106 -2245,-1525 -978,-419 -2302,-707 -3616,-892 -1315,-186 -2618,-270 -4446,-344 -1827,-76 -4177,-145 -7704,-127 -3528,16 -8233,119 -12545,213 -4313,92 -8234,177 -10296,223 -2063,48 -2265,57 -4033,198 -1768,141 -5100,415 -7194,652 -2094,237 -2949,437 -3644,687 -696,249 -1234,547 -1832,1048 -599,500 -1259,1204 -1962,1823 -703,618 -1451,1154 -1896,1417 -446,265 -591,258 -876,357 -286,98 -714,303 -1232,565l0 -1z"/>
</svg>
