<?xml version="1.0" encoding="utf-8"?>
<!-- Generator: Adobe Illustrator 19.0.0, SVG Export Plug-In . SVG Version: 6.00 Build 0)  -->
<svg version="1.1" xmlns="http://www.w3.org/2000/svg" xmlns:xlink="http://www.w3.org/1999/xlink" x="0px" y="0px"
	width="411px" height="500px" viewBox="0 0 411 500" enable-background="new 0 0 411 500" xml:space="preserve">
	<path d="M179.9,70.4c2.6,1.9,5.1,3.5,7,4.7c1.9,1.2,3.1,2,4.7,2.9c1.6,0.9,3.7,1.9,5.6,2.7
	c1.9,0.8,3.6,1.3,4.9,1.6c0.9,0.3,1.6,0.4,2.2,0.6c1.9-0.5,3.7-1,6.1-2c2.4-1,5.4-2.4,7.8-3.8c2.5-1.4,4.4-2.8,6.1-4
	c1.7-1.2,3.1-2.1,5.6-4.2c2.5-2.1,6.2-5.2,9.4-8.1c3.2-2.9,5.9-5.4,8.1-7.6c2.3-2.2,4.1-4.1,6-6.4c1.9-2.3,3.8-4.9,5.2-7.1
	c1.5-2.2,2.5-3.9,3.6-6.2c1.2-2.3,2.5-5.1,3.3-7c0.8-1.9,1.1-2.9,1.6-4.6c0.5-1.7,1.1-4.2,1.5-6c0.1-0.6,0.3-1.1,0.4-1.5
	c-2.6,0.6-5.3,1.3-8.1,1.9c-3.6,0.8-7.3,1.6-9.3,2c-1.9,0.4-2,0.5-3.7,0.9c-1.7,0.4-5,1.1-8.6,1.8c-3.6,0.7-7.5,1.5-12,2
	c-4.6,0.5-9.8,0.9-14,1c-4.2,0.2-7.3,0.2-11,0.2c-3.7-0.1-8.1-0.3-12.5-0.7c-4.5-0.4-9-1.1-13.7-1.9c-4.7-0.9-9.5-2-12.5-2.6
	c-3-0.7-4.3-1-6.2-1.4c-1.9-0.4-4.4-1.1-7.1-1.8c-2.8-0.7-5.8-1.6-7.8-2.1c-1.4-0.4-2.2-0.6-2.9-0.8c0,0.2,0,0.4,0.1,0.6
	c0.3,2,0.8,4.7,1.5,7.3c0.7,2.7,1.6,5.4,2.6,7.9c1,2.5,2.2,4.8,3.2,6.6c1,1.9,1.9,3.4,2.9,5c1,1.6,2.1,3.2,3.9,5.5
	c1.9,2.3,4.5,5.4,6.8,7.8c2.2,2.4,4.1,4.1,5.9,5.7c1.9,1.7,3.8,3.3,6.1,5.2C174.6,66.4,177.3,68.5,179.9,70.4L179.9,70.4z"/>
</svg>
