<?xml version="1.0" encoding="UTF-8"?>
<!DOCTYPE svg PUBLIC "-//W3C//DTD SVG 1.1//EN" "http://www.w3.org/Graphics/SVG/1.1/DTD/svg11.dtd">
<!-- Creator: CorelDRAW 2018 (64 Bit Versão de avaliação) -->
<svg xmlns="http://www.w3.org/2000/svg" xml:space="preserve" width="258px" height="307px" version="1.1" shape-rendering="geometricPrecision" text-rendering="geometricPrecision" image-rendering="optimizeQuality" fill-rule="evenodd" clip-rule="evenodd" viewBox="0 0 250902 298736" xmlns:xlink="http://www.w3.org/1999/xlink">
	<path class="fundo_gola" d="M115620 11013c-2808,289 -5402,739 -7794,1208 -2394,470 -4586,959 -6000,1316 -1096,277 -1726,474 -2249,654 192,143 383,280 570,408 320,217 625,407 974,602 361,203 751,405 1229,639 659,321 1508,718 2372,1123 510,238 1021,477 1251,586 615,290 1203,572 1792,874 580,296 1134,600 1670,929 215,132 427,268 636,408 330,220 652,450 959,685 488,372 942,761 1341,1152 407,402 755,802 1055,1218 303,418 559,851 788,1315 214,434 403,899 568,1373 89,262 172,524 247,785 132,13 139,76 353,134 215,60 518,233 1251,290 181,14 988,115 1172,128 3679,260 7629,225 11653,175 2190,-28 4333,-384 6332,-538 733,-57 1300,-115 1570,-143 152,-16 320,-33 452,-46 74,-261 157,-524 247,-785 165,-474 354,-939 568,-1373 228,-465 485,-898 787,-1315 301,-416 648,-817 1056,-1218 398,-391 852,-780 1340,-1153 503,-384 1043,-753 1596,-1092 56,-35 112,-69 168,-103 483,-290 982,-561 1502,-827 590,-302 1176,-583 1791,-874 231,-108 742,-347 1252,-585 864,-405 1712,-802 2371,-1123 478,-235 868,-436 1230,-640 349,-194 654,-385 974,-602 337,-230 692,-491 1031,-764 13,-10 26,-21 38,-31 -1603,-357 -3223,-713 -5062,-1039 -2011,-358 -4282,-681 -6684,-994 -2402,-313 -4936,-616 -7882,-831 -2945,-216 -6303,-342 -9492,-342 -3191,0 -6215,126 -9024,416l1 0z"/>
</svg>
