<?xml version="1.0" encoding="UTF-8"?>
<!DOCTYPE svg PUBLIC "-//W3C//DTD SVG 1.1//EN" "http://www.w3.org/Graphics/SVG/1.1/DTD/svg11.dtd">
<!-- Creator: CorelDRAW 2018 (64 Bit Versão de avaliação) -->
<svg xmlns="http://www.w3.org/2000/svg" xml:space="preserve" width="232px" height="309px" version="1.1" shape-rendering="geometricPrecision" text-rendering="geometricPrecision" image-rendering="optimizeQuality" fill-rule="evenodd" clip-rule="evenodd" viewBox="0 0 224820 299431" xmlns:xlink="http://www.w3.org/1999/xlink">
	<path class="gola_3" d="M92821 2132c2150,-318 5208,-591 7783,-810 2574,-220 4663,-386 7169,-462 2506,-76 5428,-61 8630,-8 3202,53 6685,144 9486,349 2801,204 4921,522 6942,923 2022,401 3944,886 5269,1333 1325,446 2052,855 2619,1363 568,507 977,1112 1288,1650 310,537 522,1007 476,1824 -45,818 -348,1984 -999,3021 -449,715 -1063,1369 -1874,1985 -365,278 -769,548 -1217,812 -1440,851 -3322,1645 -5434,2728 -2112,1083 -4455,2453 -5906,3714 -1452,1261 -2012,2412 -2466,3570 -161,411 -309,823 -440,1255 -238,785 -419,1636 -522,2667 -139,1399 -133,3130 -109,4901 253,-50 516,-105 796,-166 15,-1041 41,-2082 108,-3123 91,-1408 258,-2816 591,-4027 333,-1211 833,-2226 1324,-3021 493,-795 977,-1370 1810,-1991 833,-621 2014,-1287 3414,-1991 1401,-704 3021,-1446 4474,-2180 1454,-735 2741,-1461 3824,-2233 1082,-773 1960,-1590 2483,-2438 522,-848 689,-1726 779,-2478 91,-751 107,-1376 76,-1909 -19,-344 -57,-650 -125,-962 -252,-544 -533,-1027 -898,-1467 -734,-886 -1809,-1597 -3762,-2271 -1953,-674 -4785,-1309 -7525,-1733 -2741,-424 -5391,-636 -8994,-780 -3604,-144 -8161,-220 -12211,-151 -4051,68 -7593,279 -10894,575 -3301,295 -6360,674 -8676,1249 -2317,575 -3892,1348 -5201,2718 -410,429 -794,916 -1153,1444 -241,536 -429,1069 -551,1583 -163,685 -208,1336 -34,2154 174,817 568,1801 1545,2854 976,1052 2536,2172 4383,3285 1847,1113 3982,2218 5674,3138 1692,920 2941,1654 3908,2495 967,840 1653,1786 2109,2850 456,1063 683,2245 797,3804 96,1327 111,2928 113,4571 356,62 722,121 1102,176 -43,-1797 -92,-3572 -222,-5111 -70,-814 -161,-1563 -310,-2265 -160,-759 -386,-1464 -720,-2141 -644,-1302 -1688,-2498 -3710,-3808 -2021,-1310 -5019,-2733 -7426,-4073 -1071,-596 -2025,-1175 -2845,-1735 -1025,-700 -1841,-1370 -2417,-2005 -1037,-1143 -1295,-2173 -1219,-3187 76,-1014 485,-2014 1250,-2915 764,-901 1884,-1703 3066,-2286 1180,-583 2422,-946 4572,-1264z"/>
</svg>
