<?xml version="1.0" encoding="UTF-8"?>
<!DOCTYPE svg PUBLIC "-//W3C//DTD SVG 1.1//EN" "http://www.w3.org/Graphics/SVG/1.1/DTD/svg11.dtd">
<!-- Creator: CorelDRAW 2018 (64 Bit Versão de avaliação) -->
<svg xmlns="http://www.w3.org/2000/svg" xml:space="preserve" width="240px" height="296px" version="1.1" shape-rendering="geometricPrecision" text-rendering="geometricPrecision" image-rendering="optimizeQuality" fill-rule="evenodd" clip-rule="evenodd" viewBox="0 0 236408 291873" xmlns:xlink="http://www.w3.org/1999/xlink">
	<path class="gola_2" d="M116495 43378c12,1974 44,3472 91,4530 48,1058 111,1676 111,2449 0,773 -63,1700 -166,3646 -103,1946 -246,4910 -343,7169 -97,2259 -149,3812 -121,4904 28,1092 135,1722 317,2222 182,499 440,868 662,1070 222,202 408,237 1022,233 615,-4 1657,-47 3018,-81 1362,-33 3042,-57 4205,-75 1163,-18 1809,-30 2249,-147 440,-117 674,-339 840,-854 167,-515 266,-1323 331,-3031 66,-1708 97,-4316 189,-8022 91,-3705 241,-8508 325,-11393 83,-2885 99,-3852 99,-5398 0,-1546 -16,-3670 -24,-4732 -6,-802 -8,-998 -247,-1009 -78,-3 -180,13 -316,34 -555,87 -1664,262 -2822,428 -1157,167 -2362,325 -3792,387 -1431,61 -3087,25 -4041,25 -953,0 -1202,36 -1347,107 -145,72 -184,179 -218,321 -34,142 -61,319 -75,426 -2,17 -4,32 -6,45 62,156 61,462 59,1099 -4,1224 -12,3673 0,5647z"/>
</svg>
