<?xml version="1.0" encoding="UTF-8"?>
<!DOCTYPE svg PUBLIC "-//W3C//DTD SVG 1.1//EN" "http://www.w3.org/Graphics/SVG/1.1/DTD/svg11.dtd">
<!-- Creator: CorelDRAW 2018 (64 Bit Versão de avaliação) -->
<svg xmlns="http://www.w3.org/2000/svg" xml:space="preserve" width="221px" height="293px" version="1.1" shape-rendering="geometricPrecision" text-rendering="geometricPrecision" image-rendering="optimizeQuality" fill-rule="evenodd" clip-rule="evenodd" viewBox="0 0 221000 293328" xmlns:xlink="http://www.w3.org/1999/xlink">
	<path class="gola" d="M79566 28027c-1931,-4026 -3244,-8127 -3975,-11440 -732,-3313 -882,-5838 -644,-7238 237,-1400 863,-1676 1244,-1788 381,-112 519,-63 4813,-137 4295,-75 12746,-275 22197,-300 9451,-25 19903,125 26829,350 6926,225 10326,525 12202,675 1875,150 2225,150 2325,2325 100,2175 -50,6526 -1300,11402 -1251,4875 -3601,10276 -7427,15827 -3825,5551 -9126,11252 -13601,15602 -4476,4351 -8126,7351 -9952,8851l-1825 1500 -2600 -2150c-2601,-2150 -7801,-6451 -11777,-10401 -3976,-3951 -6726,-7551 -9376,-11327 -2651,-3776 -5201,-7726 -7133,-11751zm46238 32079c4951,-4201 9802,-9251 13302,-13677 3501,-4426 5651,-8226 7426,-11626 1775,-3401 3176,-6401 4051,-9602 875,-3200 1225,-6601 1425,-9276 200,-2676 250,-4626 -150,-7215 -74,-475 -162,-971 -263,-1484 -7004,-2798 -14004,-5222 -21005,-5222 -1004,0 -3012,-1005 -4017,-1005 -22103,0 -25117,-1004 -27125,-999 -3013,0 -11048,0 -14061,1005 -6456,1761 -12231,4897 -17920,7601 163,5924 698,11801 2454,17520 2526,8226 7576,16127 14227,23279 6651,7151 14903,13552 19603,17027 4701,3475 5851,4026 6426,4301 575,274 575,274 3100,-1401 2526,-1675 7577,-5025 12527,-9226z"/>
</svg>
