<?xml version="1.0" encoding="utf-8"?>
<!-- Generator: Adobe Illustrator 19.0.0, SVG Export Plug-In . SVG Version: 6.00 Build 0)  -->
<svg version="1.1" xmlns="http://www.w3.org/2000/svg" xmlns:xlink="http://www.w3.org/1999/xlink" x="0px" y="0px"
	width="460px" height="548px" viewBox="0 0 460 548" enable-background="new 0 0 460 548" xml:space="preserve" 
	shape-rendering="geometricPrecision" text-rendering="geometricPrecision" image-rendering="optimizeQuality">
	<path d="M192.2,16.4c-6.4-0.8-10.4-1.6-14.4-2.4c-0.1,1.4,0,2.9,0.2,4.4c0.4,2.8,1.5,5.5,3,8.3
	c1.5,2.7,3.5,5.5,6.2,8.6c2.7,3,6,6.3,8.9,8.9s5.5,4.6,8.8,6.8c3.3,2.2,7.2,4.8,10.6,7.4c3.4,2.6,6.3,5.2,8.3,7.7
	c2,2.4,3.1,4.6,3.8,6.2c0.7,1.5,0.9,2.4,1.1,4.2c0.2,1.6,0.4,3.9,0.7,6.3c1.5,0,3.1,0,4.8-0.1c0.2-1.5,0.3-2.9,0.6-4.1
	c0.3-1.6-0.3-2.8,0.2-4c0.5-1.2,1.1-2.5,2.3-4.8c1.2-2.3,4-6.5,6.4-9.2c2.3-2.6,5.2-4.6,8-6.6c2.9-2,5.9-4.2,9.7-7.2
	c3.8-3,8.5-6.8,11.9-10.3c3.5-3.5,4.7-5.6,6.4-8.9c1.7-3.2,2.7-6.6,3.2-9.5c0.3-1.6,0.4-3.1,0.3-4.4c-2.1,0.6-3.3,1.2-7,2
	c-4.4,0.9-10.8,2.1-17.5,2.8c-6.7,0.8-13.9,1.1-20.9,1.1c-7.1,0-14.1-0.5-22.1-1.1C207.6,18,198.7,17.2,192.2,16.4z"/>
</svg>
