<?xml version="1.0" encoding="UTF-8"?>
<!DOCTYPE svg PUBLIC "-//W3C//DTD SVG 1.1//EN" "http://www.w3.org/Graphics/SVG/1.1/DTD/svg11.dtd">
<!-- Creator: CorelDRAW 2018 (64 Bit Versão de avaliação) -->
<svg xmlns="http://www.w3.org/2000/svg" xml:space="preserve" width="258px" height="305px" version="1.1" shape-rendering="geometricPrecision" text-rendering="geometricPrecision" image-rendering="optimizeQuality" fill-rule="evenodd" clip-rule="evenodd" viewBox="0 0 250902 296734" xmlns:xlink="http://www.w3.org/1999/xlink">
	<path class="fundo_gola" d="M104049 28411c711,1182 1278,2050 2115,3048 838,998 1947,2127 2871,2893 925,766 1663,1168 2388,1582 725,414 1436,840 2051,1260 616,420 1135,834 1822,1160 689,327 1544,565 2208,805 664,240 1137,483 1633,706 496,223 1016,425 1493,748 476,322 910,763 1664,1592 754,828 1829,2043 2629,2974 802,929 1329,1574 1684,2004 356,430 539,644 667,715 127,70 197,-5 488,-257 292,-251 803,-681 1369,-1150 567,-469 1188,-977 2129,-1734 939,-759 2197,-1767 3314,-2556 1118,-790 2094,-1359 2720,-1860 625,-500 898,-930 1246,-1219 348,-289 770,-437 1262,-804 492,-368 1055,-953 1421,-1274 368,-320 539,-375 829,-629 289,-254 695,-708 1125,-1160 430,-454 883,-907 1324,-1317 442,-410 871,-778 1462,-1575 589,-797 1340,-2024 2066,-3465 727,-1442 1430,-3098 1919,-4680 488,-1583 762,-3091 900,-4427 139,-1336 142,-2501 145,-3082 1,-583 1,-583 -72,-581 -75,2 -223,6 -1101,16 -877,10 -2482,25 -4344,-33 -1861,-59 -3979,-192 -6785,-246 -2804,-55 -6297,-32 -9989,19 -3692,51 -7583,128 -11706,240 -4122,112 -8473,256 -11363,332 -2889,77 -4315,85 -5028,88 -713,4 -713,4 -713,4 0,0 0,0 58,450 59,449 177,1347 465,2629 289,1281 751,2945 1409,4526 658,1580 1513,3077 2225,4259l0 -1z"/>
</svg>
