<?xml version="1.0" encoding="UTF-8"?>
<!DOCTYPE svg PUBLIC "-//W3C//DTD SVG 1.1//EN" "http://www.w3.org/Graphics/SVG/1.1/DTD/svg11.dtd">
<!-- Creator: CorelDRAW 2020 (64 Bit) -->
<svg xmlns="http://www.w3.org/2000/svg" xml:space="preserve" width="232px" height="294px" version="1.1" shape-rendering="geometricPrecision" text-rendering="geometricPrecision" image-rendering="optimizeQuality" fill-rule="evenodd" clip-rule="evenodd"
viewBox="0 0 224820 284513"
 xmlns:xlink="http://www.w3.org/1999/xlink"
 xmlns:xodm="http://www.corel.com/coreldraw/odm/2003">
 <g id="Gola_x0020_III">
  <metadata id="CorelCorpID_0Corel-Layer"/>
  <g id="_1778192752432">
   <path class="fundo_gola" d="M83941 11064c719,1128 2127,3369 3891,5776 1764,2408 3884,4981 6496,7381 2611,2400 5715,4626 8274,6428 2559,1801 4573,3179 6034,5125 1461,1945 2369,4459 2945,6102 575,1642 817,2415 984,2649 167,235 257,-68 613,-1431 356,-1362 977,-3785 1635,-5579 659,-1794 1355,-2960 2627,-4111 1272,-1151 3119,-2286 5822,-4300 2703,-2013 6261,-4906 9176,-7760 2914,-2854 5186,-5670 6618,-7761 1433,-2091 2027,-3458 2300,-4139 272,-682 223,-678 -2232,-101 -2454,577 -7315,1728 -12228,2660 -4913,931 -9880,1642 -15444,1710 -5564,68 -11727,-507 -16542,-1249 -4814,-742 -8282,-1650 -10000,-2097 -1719,-447 -1688,-431 -969,697z"/>
  </g>
 </g>
</svg>
