<?xml version="1.0" encoding="UTF-8"?>
<!DOCTYPE svg PUBLIC "-//W3C//DTD SVG 1.1//EN" "http://www.w3.org/Graphics/SVG/1.1/DTD/svg11.dtd">
<!-- Creator: CorelDRAW 2018 (64 Bit Versão de avaliação) -->
<svg xmlns="http://www.w3.org/2000/svg" xml:space="preserve" width="258px" height="296px" version="1.1" shape-rendering="geometricPrecision" text-rendering="geometricPrecision" image-rendering="optimizeQuality" fill-rule="evenodd" clip-rule="evenodd" viewBox="0 0 250902 288186" xmlns:xlink="http://www.w3.org/1999/xlink">
	<path class="gola" d="M100041 10382c7,-846 -12,-956 -32,-1065 3018,219 6035,438 9372,516 3339,78 6997,15 12593,-110 5597,-125 13133,-313 18210,-428 5077,-116 7695,-158 9470,-244 1775,-87 2704,-215 3170,-280 465,-64 465,-64 453,890 -12,953 -35,2861 -254,4701 -219,1841 -633,3615 -1266,5401 -633,1786 -1485,3584 -2247,5023 -763,1438 -1434,2517 -2115,3514 -680,996 -1368,1911 -2396,3166 -1028,1254 -2396,2849 -3629,4189 -1233,1340 -2331,2427 -3313,3277 -981,850 -1844,1464 -2648,2060 -802,596 -1545,1175 -2186,1526 -641,352 -1181,477 -2889,583 -1708,105 -4585,191 -6578,147 -1993,-42 -3103,-214 -3833,-366 -732,-153 -1083,-285 -1654,-700 -571,-415 -1360,-1110 -2221,-1892 -859,-781 -1789,-1649 -2743,-2544 -954,-895 -1931,-1817 -2994,-3033 -1064,-1215 -2212,-2724 -3280,-4225 -1066,-1501 -2051,-2994 -2845,-4326 -793,-1334 -1395,-2505 -1946,-3851 -551,-1344 -1051,-2861 -1423,-4209 -371,-1348 -613,-2528 -717,-3910 -103,-1382 -68,-2965 -60,-3811l1 1zm59876 -3898c-206,-98 -405,-194 -594,-287l-68 -34c-36,-3 -69,-4 -98,-5 -107,0 -160,10 -244,-4 -85,-13 -199,-50 -571,-283 -371,-234 -999,-664 -1630,-1159l-13 -10c-509,-344 -928,-668 -1340,-997 -947,-756 -1856,-1534 -2897,-2050 -1041,-516 -2216,-769 -3990,-996 -619,-79 -1310,-155 -2053,-225 -580,-37 -1208,-67 -1914,-96 -1828,-76 -4178,-145 -7705,-127 -3528,16 -8233,119 -12545,213 -4313,92 -8234,177 -10296,223 -2062,48 -2265,57 -4033,198 -1768,141 -5099,415 -7193,652 -2094,237 -2949,437 -3645,687 -576,206 -1043,445 -1526,806 -292,272 -535,499 -1218,1087l-67 57c-316,305 -644,623 -983,921 -703,618 -1450,1154 -1896,1417 -309,184 -474,237 -641,285 -151,61 -287,103 -430,146 -272,111 -626,283 -1036,491l0 -1c-138,876 -277,1751 -273,2901 5,1149 155,2571 432,3963 277,1391 684,2751 1192,4424 508,1673 1117,3659 2298,5824 1180,2165 2931,4511 4690,6472 1759,1963 3525,3542 5777,5284 2252,1744 4987,3651 7464,5097 2479,1446 4699,2431 5933,2963 1236,531 1486,609 2573,625 1086,16 3009,-32 4995,-39 1985,-7 4033,23 5745,-172 1712,-195 3088,-618 4350,-1211 1263,-595 2412,-1361 3874,-2323 1462,-960 3236,-2118 5155,-3423 1919,-1306 3982,-2759 5495,-4097 1513,-1336 2475,-2555 3510,-3869 1036,-1313 2146,-2719 3049,-4103 902,-1384 1598,-2744 2106,-4088 508,-1345 829,-2674 1115,-3916 284,-1244 535,-2401 691,-3592 157,-1192 219,-2420 258,-3371 39,-951 55,-1628 57,-2163 1,-435 -7,-778 -15,-1102 -832,-359 -1187,-538 -1467,-722 -143,-93 -267,-187 -378,-271z"/>
</svg>
