<?xml version="1.0" encoding="UTF-8"?>
<!DOCTYPE svg PUBLIC "-//W3C//DTD SVG 1.1//EN" "http://www.w3.org/Graphics/SVG/1.1/DTD/svg11.dtd">
<!-- Creator: CorelDRAW 2019 (64 Bit) -->
<svg xmlns="http://www.w3.org/2000/svg" xml:space="preserve" width="240px" height="296px" version="1.1" shape-rendering="geometricPrecision" text-rendering="geometricPrecision" image-rendering="optimizeQuality" fill-rule="evenodd" clip-rule="evenodd"
viewBox="0 0 236408 291873"
 xmlns:xlink="http://www.w3.org/1999/xlink">
 <g id="Gola_x0020_Redonda_x0020_Prime">
  <path class="gola_2" d="M112340 31357c1837,-325 4437,-713 6997,-1205 2560,-491 5080,-1086 7724,-1858 2643,-773 5409,-1724 7700,-2687 2291,-963 4106,-1938 5814,-2937 1708,-999 3309,-2021 4518,-2945 1208,-923 2025,-1747 2643,-2572 618,-824 1038,-1648 1442,-2623 405,-975 793,-2101 1090,-3036 298,-935 504,-1680 496,-2726 -8,-1047 -230,-2394 -412,-3258 -179,-845 -319,-1227 -666,-1748 -318,-272 -635,-552 -953,-830 -643,-564 -1284,-1121 -2276,-1546 -992,-425 -2335,-717 -3667,-905 -1333,-188 -2655,-273 -4508,-349 -1853,-77 -4236,-147 -7812,-129 -3577,17 -8348,121 -12720,216 -4373,94 -8349,180 -10440,227 -2091,48 -2297,57 -4089,200 -1793,143 -5171,421 -7294,661 -2123,240 -2990,443 -3695,696 -706,253 -1251,555 -1858,1063 -547,458 -1145,1083 -1781,1662 -91,180 -170,354 -226,515 -117,338 -128,620 -101,1093 28,474 95,1140 292,1914 196,775 521,1659 858,2592 336,934 685,1916 1129,2891 444,975 983,1942 1766,2929 782,987 1809,1993 2835,2915 1027,921 2053,1758 3030,2421 977,664 1904,1156 3161,1728 1256,573 2841,1227 4133,1722 1292,496 2291,832 3442,1203 1151,370 2455,775 3309,1096 854,321 1258,559 1460,677 203,119 203,119 203,119 0,0 0,0 -751,187 -751,186 -2253,558 -3559,915 -1306,357 -2416,698 -3335,1092 -794,340 -1446,721 -2079,1106 661,211 1324,420 1976,623 442,138 878,274 1308,407 313,-223 668,-445 1264,-664 721,-265 1795,-527 3632,-852zm12317 -4799c-1048,289 -1999,507 -2907,664 -907,156 -1771,251 -2580,370 -808,119 -1561,262 -1938,333 -376,71 -376,71 -376,71 0,0 0,0 -272,-176 -271,-176 -814,-529 -1533,-902 -720,-372 -1615,-764 -2885,-1238 -1271,-474 -2915,-1028 -4413,-1593 -1498,-565 -2850,-1140 -3916,-1613 -1066,-474 -1846,-846 -2758,-1411 -912,-565 -1954,-1322 -2857,-2005 -904,-684 -1669,-1294 -2434,-2053 -765,-759 -1529,-1667 -2130,-2495 -600,-828 -1036,-1577 -1432,-2382 -397,-804 -753,-1664 -976,-2182 -223,-519 -312,-695 -357,-783 -45,-88 -45,-88 -45,-88 0,0 0,0 3,1 -103,-249 -206,-499 -334,-849 -129,-352 -284,-806 -352,-1207 -68,-401 -51,-750 62,-1069 113,-319 321,-608 746,-928 425,-320 1067,-671 2038,-993 971,-322 2271,-615 4344,-742 2073,-127 4918,-87 8021,-95 3103,-8 6464,-64 9409,-123 2944,-60 5473,-123 7484,-113 2011,10 3505,93 4730,146 1224,54 2179,78 3380,115 1201,38 2648,90 4048,96 1401,5 2757,-34 4013,-42 1256,-8 2414,16 3608,234 1195,218 2428,630 3347,959 920,329 1526,574 1930,755 404,180 607,295 791,485 184,190 351,456 418,937 67,482 36,1179 17,1628 -18,448 -23,647 -30,797 -7,150 -16,251 -46,403 -13,62 -30,133 -48,209 18,-4 18,-4 18,-4 0,0 0,0 -103,337 -6,18 -11,36 -17,56 -121,392 -363,1177 -644,1918 -282,741 -603,1438 -985,2062 -383,625 -827,1175 -1375,1754 -549,579 -1203,1185 -1925,1770 -721,584 -1509,1147 -2787,1882 -1279,735 -3046,1643 -4489,2378 -1442,735 -2560,1298 -3860,1888 -1300,591 -2782,1209 -4096,1698 -1313,490 -2459,851 -3507,1140z"/>
 </g>
</svg>
