<?xml version="1.0" encoding="UTF-8"?>
<!DOCTYPE svg PUBLIC "-//W3C//DTD SVG 1.1//EN" "http://www.w3.org/Graphics/SVG/1.1/DTD/svg11.dtd">
<!-- Creator: CorelDRAW 2018 (64 Bit Versão de avaliação) -->
<svg xmlns="http://www.w3.org/2000/svg" xml:space="preserve" width="258px" height="307px" version="1.1" shape-rendering="geometricPrecision" text-rendering="geometricPrecision" image-rendering="optimizeQuality" fill-rule="evenodd" clip-rule="evenodd" viewBox="0 0 250902 298736" xmlns:xlink="http://www.w3.org/1999/xlink">
	<path class="gola_2" d="M115458 33973c-186,-35 -372,-69 -559,-106 -2,-514 -4,-1023 -10,-1513 -8,-769 -24,-1495 -52,-2131 -28,-614 -68,-1139 -130,-1632 -60,-483 -140,-922 -245,-1375 -112,-482 -250,-976 -417,-1458 -151,-438 -328,-871 -531,-1282 -207,-422 -442,-818 -720,-1200 -277,-385 -596,-754 -970,-1122 -373,-365 -802,-733 -1267,-1088 -482,-369 -999,-722 -1528,-1046 -529,-326 -1063,-620 -1618,-903 -544,-279 -1137,-562 -1771,-862 -585,-275 -919,-431 -1247,-585 -860,-403 -1705,-798 -2383,-1129 -515,-252 -920,-461 -1270,-657 -366,-205 -690,-407 -1031,-639 -353,-240 -724,-514 -1082,-802 -327,-264 -644,-541 -923,-816 -292,-288 -547,-576 -771,-857 -221,-280 -409,-550 -573,-807 -168,-265 -312,-516 -432,-778 -122,-266 -225,-550 -309,-878 -84,-326 -150,-693 -188,-1065 -36,-359 -50,-726 -33,-1073 17,-359 64,-695 156,-1029 44,-86 89,-170 133,-252 498,-927 940,-1563 1382,-2198 222,-223 464,-439 726,-640 399,-305 845,-577 1360,-828 506,-246 1081,-471 1748,-687 595,-193 1255,-376 1920,-545 815,-207 1656,-395 2395,-549 664,-139 1242,-249 1833,-346 598,-98 1199,-181 1902,-262 678,-80 1488,-162 2358,-240 883,-81 1778,-153 2614,-211 839,-58 1661,-106 2531,-147 844,-39 1730,-71 2721,-99 973,-27 2057,-51 3065,-71 996,-20 1920,-34 2586,-44 661,-11 1069,-16 1348,-19 95,-1 176,-2 246,-2 71,0 151,1 246,2 280,3 687,8 1348,19 667,10 1591,24 2586,44 1009,20 2092,44 3066,71 991,28 1877,60 2721,99 870,41 1691,89 2531,147 836,58 1730,131 2613,211 871,78 1681,160 2358,240 703,81 1305,165 1903,262 591,97 1169,207 1833,346 739,155 1579,342 2395,549 665,168 1325,352 1919,545 668,216 1243,442 1748,687 516,251 962,523 1361,828 262,201 505,417 726,640 441,635 883,1271 1381,2198 45,82 89,166 134,252 92,334 139,670 156,1029 17,347 3,714 -33,1073 -39,372 -104,739 -188,1065 -84,328 -187,612 -309,878 -121,262 -265,513 -433,778 -164,257 -351,527 -573,807 -223,281 -478,570 -770,857 -280,275 -596,552 -924,816 -357,288 -728,562 -1081,802 -342,232 -666,434 -1031,639 -351,197 -756,405 -1270,657 -679,331 -1523,726 -2383,1129 -328,154 -662,310 -1248,585 -633,300 -1227,583 -1771,862 -554,283 -1088,577 -1618,903 -528,323 -1046,677 -1528,1046 -464,355 -894,723 -1266,1088 -374,367 -693,737 -971,1122 -277,381 -512,778 -720,1200 -202,411 -379,844 -530,1282 -167,482 -306,976 -418,1458 -104,453 -184,892 -244,1375 -62,493 -102,1018 -130,1632 -29,636 -44,1362 -52,2131 -6,490 -8,999 -10,1513 -188,37 -373,71 -559,106 -74,10 -147,20 -222,29 2,-564 5,-1122 10,-1653 9,-793 25,-1531 53,-2160 30,-652 71,-1197 133,-1693 64,-504 147,-969 260,-1454 57,-247 121,-500 194,-753 74,-261 157,-524 248,-786 165,-474 353,-939 567,-1373 228,-464 485,-897 787,-1314 301,-416 648,-817 1056,-1218 398,-391 853,-781 1341,-1153 502,-384 1043,-753 1595,-1093 536,-328 1089,-633 1670,-929 590,-302 1176,-584 1792,-874 230,-109 741,-348 1251,-586 864,-405 1713,-802 2371,-1123 479,-234 869,-436 1230,-639 349,-195 654,-386 974,-602 338,-231 692,-491 1031,-765 309,-249 607,-508 866,-765 273,-267 506,-530 707,-783 202,-256 375,-505 526,-743 31,-48 61,-96 89,-143 88,-143 167,-284 238,-429l0 0c19,-38 37,-75 55,-113 105,-231 193,-471 262,-743 74,-287 132,-614 166,-953 33,-322 46,-652 32,-960 -15,-305 -55,-590 -134,-871 -79,-281 -195,-559 -360,-851 -177,-313 -411,-644 -695,-967 -260,-294 -562,-581 -903,-842 -359,-275 -760,-519 -1226,-746 -476,-231 -1017,-443 -1647,-648 -565,-183 -1210,-362 -1869,-529 -822,-208 -1647,-394 -2366,-543 -655,-137 -1223,-245 -1799,-340 -571,-93 -1161,-174 -1866,-256 -720,-84 -1522,-166 -2339,-240 -826,-75 -1715,-147 -2595,-208 -865,-60 -1681,-108 -2513,-147 -857,-40 -1738,-72 -2709,-100 -989,-27 -2065,-51 -3057,-70 -1005,-19 -1922,-35 -2582,-45 -666,-10 -1071,-16 -1345,-18 -93,-1 -172,-1 -240,-1 -68,0 -147,1 -240,1 -275,2 -680,8 -1346,18 -659,10 -1577,26 -2581,45 -993,19 -2069,43 -3057,70 -971,28 -1852,60 -2710,100 -832,39 -1647,87 -2512,147 -880,62 -1769,133 -2595,208 -817,73 -1619,156 -2339,240 -705,82 -1295,163 -1866,256 -577,95 -1145,203 -1800,340 -718,149 -1543,335 -2365,543 -659,167 -1304,346 -1869,529 -630,205 -1172,417 -1648,648 -466,227 -867,471 -1225,746 -341,261 -643,548 -903,842 -285,323 -518,654 -695,967 -165,292 -282,571 -361,851 -78,281 -118,566 -133,871 -14,308 -2,637 32,960 34,339 91,666 165,953 70,272 157,512 263,743 17,38 36,75 54,113l0 0c71,145 150,286 238,429 29,48 58,95 89,143 151,238 324,487 527,743 200,253 433,516 706,783 260,257 557,516 866,765 339,274 694,534 1032,765 320,217 625,407 973,602 362,203 752,405 1230,639 659,321 1507,718 2372,1123 509,238 1021,477 1251,586 615,290 1202,572 1792,874 580,296 1134,600 1670,929 552,339 1092,709 1595,1093 488,372 942,762 1340,1153 408,401 756,802 1056,1218 302,417 559,850 787,1314 215,434 403,899 568,1373 90,262 173,525 247,786 73,253 138,506 195,753 112,485 197,950 260,1454 62,496 103,1041 133,1693 27,629 43,1367 52,2160 5,532 8,1089 10,1653 -74,-9 -147,-19 -221,-29l-3 0z"/>
</svg>
