<?xml version="1.0" encoding="UTF-8"?>
<!DOCTYPE svg PUBLIC "-//W3C//DTD SVG 1.1//EN" "http://www.w3.org/Graphics/SVG/1.1/DTD/svg11.dtd">
<!-- Creator: CorelDRAW 2018 (64 Bit Versão de avaliação) -->
<svg xmlns="http://www.w3.org/2000/svg" xml:space="preserve" width="258px" height="296px" version="1.1" shape-rendering="geometricPrecision" text-rendering="geometricPrecision" image-rendering="optimizeQuality" fill-rule="evenodd" clip-rule="evenodd" viewBox="0 0 250902 288186" xmlns:xlink="http://www.w3.org/1999/xlink">
	<path class="fundo_gola" d="M106892 25241c2435,1106 5273,2020 7532,2622 2259,602 3940,891 5339,1126 1400,235 2517,414 3252,551 735,137 1087,231 1262,277 176,48 176,48 231,-46 55,-94 164,-282 383,-380 219,-97 547,-105 1465,-195 920,-90 2427,-261 4058,-378 1630,-118 3380,-181 4804,-411 1422,-231 2517,-629 3715,-1098 1201,-469 2506,-1009 4183,-1931 1677,-922 3725,-2228 5210,-3346 1486,-1118 2408,-2048 3358,-3353 950,-1306 1927,-2986 2650,-4753 723,-1767 1192,-3619 1426,-4546 235,-926 235,-926 20,-952 -215,-24 -645,-76 -2165,-97 -1521,-22 -4131,-14 -6809,-22 -2677,-7 -5421,-31 -8099,-112 -2676,-83 -5288,-223 -7457,-267 -2170,-43 -3896,12 -6011,48 -2114,35 -4616,50 -6761,58 -2146,8 -3936,8 -5911,51 -1973,43 -4131,129 -5760,238 -1630,110 -2732,243 -4691,478 -1958,234 -4772,570 -6330,739 -1557,169 -1857,171 -2008,172 -150,1 -150,1 -158,50 -6,48 -20,146 5,441 26,294 90,784 274,1467 186,683 491,1559 929,2477 437,919 1007,1881 1957,3120 950,1238 2279,2755 3960,4162 1680,1407 3713,2704 6147,3811l0 -1z"/>
</svg>
