<?xml version="1.0" encoding="UTF-8"?>
<!DOCTYPE svg PUBLIC "-//W3C//DTD SVG 1.1//EN" "http://www.w3.org/Graphics/SVG/1.1/DTD/svg11.dtd">
<!-- Creator: CorelDRAW 2018 (64 Bit Versão de avaliação) -->
<svg xmlns="http://www.w3.org/2000/svg" xml:space="preserve" width="258px" height="296px" version="1.1" shape-rendering="geometricPrecision" text-rendering="geometricPrecision" image-rendering="optimizeQuality" fill-rule="evenodd" clip-rule="evenodd" viewBox="0 0 250902 288207" xmlns:xlink="http://www.w3.org/1999/xlink">
	<path class="gola_2" d="M111292 25191c-2083,-162 -2832,-330 -3581,-498 860,1512 1690,3143 2251,4491 726,1746 999,3014 1247,4258 956,345 1844,654 2642,888 1254,369 2285,551 3829,845 1546,293 3606,697 5112,928 1506,233 2458,291 3814,264 1355,-26 3116,-136 4896,-326 1779,-188 3579,-456 5538,-873 1959,-418 4077,-985 5933,-1578 129,-41 256,-83 382,-124 88,-796 196,-1622 406,-2585 268,-1225 698,-2673 1219,-4140 273,-765 570,-1534 896,-2307 -239,105 -492,202 -781,273 -447,112 -981,164 -2279,272 -1297,107 -3357,270 -5646,436 -2288,166 -4803,335 -6852,437 -2047,101 -3624,133 -5231,91 -1606,-42 -3243,-160 -5770,-296 -2525,-137 -5942,-294 -8024,-456l-1 0z"/>
</svg>
