<?xml version="1.0" encoding="UTF-8"?>
<!DOCTYPE svg PUBLIC "-//W3C//DTD SVG 1.1//EN" "http://www.w3.org/Graphics/SVG/1.1/DTD/svg11.dtd">
<!-- Creator: CorelDRAW 2018 (64 Bit Versão de avaliação) -->
<svg xmlns="http://www.w3.org/2000/svg" xml:space="preserve" width="232px" height="294px" version="1.1" shape-rendering="geometricPrecision" text-rendering="geometricPrecision" image-rendering="optimizeQuality" fill-rule="evenodd" clip-rule="evenodd" viewBox="0 0 224820 284513" xmlns:xlink="http://www.w3.org/1999/xlink">
	<path class="gola" d="M108600 3503c-3400,0 -16146,-606 -19666,-1334 -2305,-362 -5099,-1455 -7282,-1455 -971,0 -3035,1820 -4006,2427l-6854 3016c1145,223 2469,443 4068,660 4679,634 11705,1236 20215,1645 8510,409 18506,625 26835,218 8329,-407 14991,-1437 20958,-2648 2589,-526 5048,-1086 7432,-1666l-5159 -2439c-4735,-3398 -1700,-1699 -16753,485l-19788 1091z"/>
</svg>
