<?xml version="1.0" encoding="UTF-8"?>
<!DOCTYPE svg PUBLIC "-//W3C//DTD SVG 1.1//EN" "http://www.w3.org/Graphics/SVG/1.1/DTD/svg11.dtd">
<!-- Creator: CorelDRAW 2018 (64 Bit Versão de avaliação) -->
<svg xmlns="http://www.w3.org/2000/svg" xml:space="preserve" width="232px" height="294px" version="1.1" shape-rendering="geometricPrecision" text-rendering="geometricPrecision" image-rendering="optimizeQuality" fill-rule="evenodd" clip-rule="evenodd" viewBox="0 0 224820 284513" xmlns:xlink="http://www.w3.org/1999/xlink">
	<path class="gola_2" d="M143596 11467c-1163,1611 -2932,3840 -5209,6021 -2277,2180 -5063,4312 -7898,6165 -2834,1853 -5717,3428 -8745,4833 -3028,1405 -6202,2640 -7788,3258 -1587,618 -1587,618 -1587,618 0,0 0,0 -739,-230 -739,-230 -2217,-690 -5088,-1902 -2870,-1211 -7134,-3174 -10659,-5196 -3525,-2023 -6311,-4107 -8867,-6456 -2556,-2350 -4881,-4967 -6298,-6796 -736,-949 -1227,-1686 -1563,-2311 -719,484 -1444,969 -2189,1457 1529,1996 3057,3992 4712,5838 1655,1846 3436,3542 5598,5244 2162,1702 4706,3409 7758,5208 3053,1799 6614,3689 9545,4900 2931,1211 5233,1744 6383,2011 1151,266 1151,266 1151,266 0,0 0,0 806,-139 805,-139 2416,-418 4584,-1193 2168,-775 4894,-2047 7552,-3422 2659,-1375 5251,-2852 7607,-4427 2356,-1575 4476,-3246 6487,-5106 2011,-1859 3913,-3906 5476,-5795 936,-1133 1751,-2209 2411,-3120 17,-23 34,-46 51,-69 -745,-450 -1529,-923 -2321,-1401 -301,501 -682,1068 -1170,1744z"/>
</svg>
