<?xml version="1.0" encoding="UTF-8"?>
<!DOCTYPE svg PUBLIC "-//W3C//DTD SVG 1.1//EN" "http://www.w3.org/Graphics/SVG/1.1/DTD/svg11.dtd">
<!-- Creator: CorelDRAW 2018 (64 Bit Versão de avaliação) -->
<svg xmlns="http://www.w3.org/2000/svg" xml:space="preserve" width="240px" height="296px" version="1.1" shape-rendering="geometricPrecision" text-rendering="geometricPrecision" image-rendering="optimizeQuality" fill-rule="evenodd" clip-rule="evenodd" viewBox="0 0 236408 291873" xmlns:xlink="http://www.w3.org/1999/xlink">
	<path class="gola" d="M108157 34921c1129,206 2049,348 2960,535 912,186 1815,416 2711,598 896,182 1783,317 2227,385 213,32 324,49 381,193 2,-13 4,-28 6,-45 14,-107 41,-284 75,-426 34,-142 73,-249 218,-321 145,-71 394,-107 1347,-107 954,0 2610,36 4041,-25 1430,-62 2635,-220 3792,-387 1158,-166 2267,-341 2822,-428 136,-21 238,-37 316,-34 33,-19 65,-36 95,-51 104,-50 193,-71 307,-86 114,-15 253,-23 944,-198 692,-174 1936,-515 3280,-943 1343,-428 2786,-943 4430,-1783 1645,-840 3492,-2005 4942,-3079 1451,-1074 2505,-2057 3488,-3123 982,-1066 1894,-2216 2837,-3710 943,-1494 1918,-3333 2659,-5017 741,-1684 1249,-3214 1566,-4363 317,-1150 444,-1918 475,-2501 32,-583 -31,-979 -285,-1637 -254,-658 -697,-1577 -1161,-2219 -464,-642 -947,-1007 -1724,-1585 -777,-579 -1847,-1371 -2655,-1938 -809,-567 -1356,-908 -2378,-1229 -1023,-321 -2521,-622 -4042,-816 -1522,-194 -3068,-282 -5049,-337 -1982,-55 -4399,-79 -6599,-103 -2199,-24 -4181,-48 -6595,-28 -2413,20 -5258,83 -7910,147 -2651,63 -5108,127 -7113,162 -2006,36 -3559,44 -5148,87 -1590,44 -3215,123 -4768,262 -1554,139 -3036,337 -4141,575 -1106,237 -1835,515 -2578,901 -744,387 -1501,882 -2432,1609 -931,727 -2037,1687 -2698,2181 -661,495 -878,525 -1291,766 -413,242 -1024,693 -1519,1173 -495,479 -876,987 -1046,1938 -171,951 -131,2346 119,3559 249,1212 709,2243 1315,3479 607,1237 1360,2679 2517,4415 1157,1736 2719,3765 4030,5176 1312,1411 2374,2203 3638,3039 1265,837 2731,1717 4395,2489 1665,773 3528,1439 5129,1906 1601,468 2940,738 4070,944zm-376 -6878c-2290,-611 -5168,-1538 -7637,-2659 -2468,-1122 -4529,-2438 -6233,-3864 -1704,-1427 -3052,-2965 -4015,-4221 -963,-1256 -1542,-2231 -1985,-3163 -444,-931 -753,-1819 -941,-2511 -187,-693 -252,-1190 -278,-1488 -26,-299 -12,-398 -5,-447 7,-50 7,-50 159,-51 153,-1 458,-3 2037,-174 1579,-172 4433,-512 6418,-750 1986,-238 3103,-373 4756,-484 1652,-111 3840,-198 5841,-241 2002,-44 3817,-44 5993,-52 2175,-8 4712,-24 6856,-59 2144,-36 3895,-92 6095,-48 2199,44 4847,186 7561,270 2715,83 5497,107 8212,114 2715,8 5362,0 6904,22 1541,22 1977,74 2195,99 218,26 218,26 -20,965 -237,940 -713,2818 -1446,4609 -733,1792 -1724,3496 -2687,4820 -963,1323 -1898,2266 -3404,3400 -1506,1133 -3583,2457 -5283,3392 -1700,935 -3024,1482 -4241,1958 -1216,476 -2326,880 -3768,1114 -1443,233 -3218,297 -4871,416 -1653,119 -3182,293 -4114,384 -931,91 -1264,99 -1486,198 -222,99 -333,290 -388,385 -56,95 -56,95 -234,47 -178,-47 -535,-142 -1280,-281 -745,-139 -1878,-321 -3297,-559 -1419,-238 -3123,-531 -5414,-1141z"/>
</svg>
