<?xml version="1.0" encoding="UTF-8"?>
<!DOCTYPE svg PUBLIC "-//W3C//DTD SVG 1.1//EN" "http://www.w3.org/Graphics/SVG/1.1/DTD/svg11.dtd">
<!-- Creator: CorelDRAW 2020 (64 Bit) -->
<svg xmlns="http://www.w3.org/2000/svg" xml:space="preserve" width="240px" height="296px" version="1.1" shape-rendering="geometricPrecision" text-rendering="geometricPrecision" image-rendering="optimizeQuality" fill-rule="evenodd" clip-rule="evenodd"
viewBox="0 0 236408 291873"
 xmlns:xlink="http://www.w3.org/1999/xlink"
 xmlns:xodm="http://www.corel.com/coreldraw/odm/2003">
   <path id="gola" fill="black" d="M132348 9510c4101,-121 8352,-255 11399,-440 3046,-186 4889,-424 5839,-550 950,-127 1007,-141 1036,-148 30,-6 32,-3 77,290 45,294 131,878 152,1349 21,470 -23,827 -70,1067 -47,241 -97,364 -136,511 -40,146 -70,314 -85,398 -14,85 -14,85 205,363 219,279 657,836 877,1115 116,148 170,217 164,276 340,419 675,838 961,1246 232,331 431,655 621,977 396,-887 731,-2008 960,-2862 238,-887 362,-1486 436,-2160 74,-674 99,-1422 65,-2048 -33,-627 -125,-1132 -294,-1536 -170,-404 -417,-706 -665,-1009 -107,-80 -202,-151 -292,-200 -188,-103 -351,-114 -459,-115 -109,0 -162,10 -247,-4 -86,-13 -202,-51 -579,-287 -376,-237 -1013,-673 -1653,-1175 -640,-503 -1284,-1073 -1927,-1636 -643,-564 -1284,-1121 -2276,-1546 -992,-425 -2335,-717 -3667,-905 -1333,-188 -2655,-273 -4508,-349 -1853,-77 -4236,-147 -7812,-129 -3577,17 -8348,121 -12720,216 -4373,94 -8349,180 -10440,227 -2091,48 -2297,57 -4089,200 -1793,143 -5171,421 -7294,661 -2123,240 -2990,443 -3695,696 -706,253 -1251,555 -1858,1063 -607,507 -1276,1221 -1989,1849 -713,627 -1471,1170 -1923,1437 -452,268 -599,261 -888,361 -289,100 -719,306 -1241,569 -130,781 -242,1575 -193,2486 54,1025 312,2199 619,3155 307,956 664,1694 879,2106 216,411 290,495 349,542 35,27 64,42 184,147 207,-307 425,-616 687,-933 313,-380 688,-771 1069,-1162 12,-21 34,-41 62,-68 14,-13 30,-28 48,-45 130,-123 343,-327 546,-554 231,-258 449,-545 491,-775 42,-231 -92,-404 -211,-729 -119,-324 -223,-800 -277,-1193 -55,-394 -60,-706 -62,-862 -3,-156 -3,-156 976,-75 978,82 2935,245 5176,347 2242,102 4769,141 9093,161 4325,20 10448,20 15486,-35 5038,-54 8991,-163 13093,-285z"/>
</svg>
