<?xml version="1.0" encoding="UTF-8"?>
<!DOCTYPE svg PUBLIC "-//W3C//DTD SVG 1.1//EN" "http://www.w3.org/Graphics/SVG/1.1/DTD/svg11.dtd">
<!-- Creator: CorelDRAW 2021 (64 Bit) -->
<svg xmlns="http://www.w3.org/2000/svg" xml:space="preserve" width="4096px" height="4096px" version="1.1" shape-rendering="geometricPrecision" text-rendering="geometricPrecision" image-rendering="optimizeQuality" fill-rule="evenodd" clip-rule="evenodd"
viewBox="0 0 4096 4096"
 xmlns:xlink="http://www.w3.org/1999/xlink"
 xmlns:xodm="http://www.corel.com/coreldraw/odm/2003">
<g id="mascara_x0020_do_x0020_simulador">
  <path id="gola-frente" fill="#000" d="M1355.385 443.906c8.677,0.477 17.494,0.522 26.174,-0.001 8.74,-0.526 17.077,-1.705 25.705,-3.075 10.35,-1.644 20.719,-3.811 30.902,-6.26 10.994,-2.643 21.389,-5.26 32.064,-9.091 8.415,-3.019 16.658,-6.514 24.679,-10.462 10.848,-5.339 21.531,-11.791 31.486,-18.62 7.942,-5.449 15.325,-10.904 22.547,-17.318 6.568,-5.835 12.792,-12.204 18.558,-18.826 6.07,-6.971 11.395,-14.124 16.629,-21.719 4.12,-5.98 7.983,-11.904 11.537,-18.25 4.547,-8.117 8.172,-16.495 11.909,-25.006 3.325,-7.573 6.786,-15.175 9.369,-23.041 2.575,-7.842 4.302,-16.181 6.162,-24.215 1.54,-6.651 3.083,-13.302 4.614,-19.955 0.586,-2.548 1.273,-5.209 1.75,-7.774 2.525,-13.548 3.622,-27.345 3.497,-41.121l-0.027 -2.954 -2.831 -0.843c-14.462,-4.308 -28.923,-8.615 -43.385,-12.922l-5.096 -1.518 -0.045 5.317c-0.104,11.924 -0.887,23.841 -2.344,35.677 -1.487,12.078 -3.646,24.356 -6.634,36.167 -1.273,5.034 -2.592,10.03 -4.119,14.996 -2.022,6.577 -4.364,13.036 -7.031,19.38 -6.063,14.427 -13.875,28.61 -23.143,41.251 -5.627,7.676 -11.325,14.587 -18.161,21.261 -8.247,8.051 -16.756,14.426 -26.316,20.758 -7.55,5.002 -15.033,9.416 -23.24,13.302 -5.661,2.682 -11.421,5.003 -17.352,7.013 -5.473,1.855 -11.025,3.437 -16.58,5.019 -9.528,2.712 -19.329,4.933 -29.056,6.774 -10.629,2.012 -20.678,3.81 -31.525,4.421 -5.664,0.319 -11.309,0.345 -16.976,0.079 -4.873,-0.228 -9.72,-0.672 -14.575,-1.139 -16.732,-1.611 -34.546,-4.844 -50.585,-10.09 -5.033,-1.646 -9.964,-3.498 -14.902,-5.403 -9.39,-3.621 -18.634,-7.098 -27.464,-11.968 -4.569,-2.52 -8.939,-5.301 -13.17,-8.352 -3.715,-2.679 -7.28,-5.534 -10.847,-8.404 -6.594,-5.306 -12.678,-10.651 -18.538,-16.789 -6.376,-6.679 -12.336,-14.191 -17.614,-21.748 -4.942,-7.078 -9.58,-14.628 -13.494,-22.334 -2.419,-4.763 -4.601,-9.618 -6.561,-14.587 -1.616,-4.096 -3.062,-8.24 -4.497,-12.401 -3.143,-9.111 -5.783,-18.41 -7.926,-27.805 -2.189,-9.592 -3.819,-19.438 -5.006,-29.198 -1.463,-12.027 -2.208,-24.139 -2.246,-36.254l-0.017 -5.4 -5.161 1.589c-14.34,4.418 -28.68,8.836 -43.022,13.252l-2.951 0.91 0.133 3.085c0.59,13.73 1.961,27.426 4.1,41.001 2.354,14.944 5.359,29.222 9.712,43.746 4.419,14.742 10.018,29.65 16.789,43.498 4.214,8.619 8.905,17.094 14.067,25.186 5.872,9.203 11.892,17.663 19.081,25.925 6.715,7.718 13.794,14.518 21.487,21.224 5.007,4.366 10.202,8.546 15.56,12.474 6.798,4.984 13.903,9.596 21.196,13.819 10.325,5.978 20.724,10.89 31.74,15.405 9.08,3.721 18.537,7.105 27.991,9.774 7.087,2 14.162,3.557 21.359,5.075 7.975,1.682 16.039,3.187 24.102,4.394 9.234,1.383 18.195,2.558 27.538,3.071z"/>
  <path id="gola-verso" fill="#000" d="M1244.383 149.615c49.683,-0.923 99.414,-1.733 149.106,-1.801 13.886,-0.019 27.778,0.021 41.663,0.242 8.357,0.134 16.739,0.314 25.088,0.73 4.832,0.241 9.721,0.308 14.557,0.334 11.648,0.063 23.322,-0.269 34.947,-0.995 14.18,-0.886 27.985,-2.34 41.821,-5.641 11.145,-2.659 22.778,-6.352 33.125,-11.369 8.744,-4.239 16.312,-8.669 23.872,-14.883 5.919,-4.864 11.258,-10.118 15.932,-16.217 9.468,-12.355 15.176,-26.987 17.526,-42.31l0.524 -3.416 -50.129 -15.399 -0.402 4.964c-0.508,6.275 -2.228,12.406 -5.109,18.009 -3.426,6.661 -9.16,12.938 -15.156,17.326 -7.756,5.675 -16.215,7.903 -25.285,10.604 -7.285,2.168 -14.9,3.75 -22.405,4.89 -9.853,1.496 -19.358,1.921 -29.313,2.198 -12.776,0.356 -25.535,0.769 -38.317,0.526 -21.087,-0.4 -42.12,0.038 -63.204,0.355 -49.286,0.74 -98.57,0.955 -147.862,0.963 -2.011,0.001 -4.027,0.021 -6.037,0.001 -3.726,-0.038 -7.46,-0.183 -11.179,-0.39 -6.611,-0.369 -13.173,-0.802 -19.746,-1.634 -7.963,-1.008 -15.799,-2.562 -23.516,-4.777 -7.902,-2.269 -14.63,-4.064 -21.528,-8.679 -6.199,-4.146 -12.19,-10.104 -15.979,-16.593 -3.512,-6.015 -5.681,-12.735 -6.399,-19.659l-0.506 -4.888 -4.683 1.488c-14.011,4.451 -28.022,8.901 -42.033,13.352l-3.539 1.124 0.858 3.612c1.26,5.306 2.865,10.53 4.8,15.628 2.781,7.324 5.678,13.834 9.982,20.444 5.623,8.636 13.134,16.503 21.294,22.751 5.501,4.212 10.993,7.378 17.146,10.483 4.847,2.447 9.82,4.551 14.948,6.338 4.151,1.446 8.35,2.655 12.582,3.835 8.528,2.376 16.846,3.953 25.567,5.339 10.391,1.651 21.028,2.771 31.553,3.113 5.161,0.168 10.277,0.097 15.436,0.002z"/>
 </g>
</svg>
