<?xml version="1.0" encoding="UTF-8"?>
<!DOCTYPE svg PUBLIC "-//W3C//DTD SVG 1.1//EN" "http://www.w3.org/Graphics/SVG/1.1/DTD/svg11.dtd">
<!-- Creator: CorelDRAW 2019 (64 Bit) -->
<svg xmlns="http://www.w3.org/2000/svg" xml:space="preserve" width="240px" height="296px" version="1.1" shape-rendering="geometricPrecision" text-rendering="geometricPrecision" image-rendering="optimizeQuality" fill-rule="evenodd" clip-rule="evenodd"
viewBox="0 0 236408 291873"
 xmlns:xlink="http://www.w3.org/1999/xlink">
 <g id="Gola_x0020_Redonda_x0020_Prime">
  <path class="gola" d="M119337 30152c-2560,492 -5160,880 -6997,1205 -1837,325 -2911,587 -3632,852 -596,219 -951,441 -1264,664 2235,690 4286,1301 6007,1773 2053,563 3639,927 5156,1050 1518,123 2969,4 4518,-214 1550,-218 3198,-535 5208,-1157 2009,-622 4379,-1550 6670,-2362 2290,-812 4502,-1510 6697,-2560 2196,-1050 4375,-2453 6060,-3832 1684,-1379 2873,-2735 4006,-4288 1134,-1554 2212,-3306 2961,-4812 749,-1505 1169,-2766 1331,-3776 163,-1011 68,-1772 -115,-2592 -182,-820 -452,-1700 -681,-2366 -93,-269 -180,-503 -264,-716 -327,-155 -531,-268 -705,-382 -294,-192 -507,-387 -695,-490 -188,-103 -351,-114 -459,-115 -109,0 -162,10 -247,-4 -86,-13 -202,-51 -579,-287 -376,-237 -1013,-673 -1653,-1175 -324,-255 -649,-526 -974,-806 347,521 487,903 666,1748 182,864 404,2211 412,3258 8,1046 -198,1791 -496,2726 -297,935 -685,2061 -1090,3036 -404,975 -824,1799 -1442,2623 -618,825 -1435,1649 -2643,2572 -1209,924 -2810,1946 -4518,2945 -1708,999 -3523,1974 -5814,2937 -2291,963 -5057,1914 -7700,2687 -2644,772 -5164,1367 -7724,1858zm-797 -20207c1039,-4 2144,-12 3202,-8 1058,4 2069,20 3090,47 1020,28 2050,68 3259,95 1209,28 2596,44 4009,64 1413,20 2851,43 4349,55 1498,12 3056,12 4338,10 1282,-2 2288,-6 3255,-35 967,-30 1895,-86 2622,-173 727,-87 1254,-206 1518,-265 154,-35 218,-50 245,-56 18,-76 35,-147 48,-209 30,-152 39,-253 46,-403 7,-150 12,-349 30,-797 19,-449 50,-1146 -17,-1628 -67,-481 -234,-747 -418,-937 -184,-190 -387,-305 -791,-485 -404,-181 -1010,-426 -1930,-755 -919,-329 -2152,-741 -3347,-959 -1194,-218 -2352,-242 -3608,-234 -1256,8 -2612,47 -4013,42 -1400,-6 -2847,-58 -4048,-96 -1201,-37 -2156,-61 -3380,-115 -1225,-53 -2719,-136 -4730,-146 -2011,-10 -4540,53 -7484,113 -2945,59 -6306,115 -9409,123 -3103,8 -5948,-32 -8021,95 -2073,127 -3373,420 -4344,742 -971,322 -1613,673 -2038,993 -425,320 -633,609 -746,928 -113,319 -130,668 -62,1069 68,401 223,855 352,1207 128,350 231,600 334,849 1,0 5,2 10,4 13,5 39,15 456,91 417,76 1226,219 2407,366 1181,146 2734,297 4155,432 1421,134 2709,253 4195,301 1486,47 3170,23 4912,-6 1742,-30 3541,-66 4980,-119 1438,-54 2516,-125 3541,-161 1024,-35 1995,-35 3033,-39zm-26229 6717c-783,-987 -1322,-1954 -1766,-2929 -444,-975 -793,-1957 -1129,-2891 -337,-933 -662,-1817 -858,-2592 -197,-774 -264,-1440 -292,-1914 -27,-473 -16,-755 101,-1093 56,-161 135,-335 226,-515 -69,63 -138,125 -208,187 -713,627 -1471,1170 -1923,1437 -452,268 -599,261 -888,361 -290,100 -724,308 -1249,573 -352,178 -745,381 -1192,593 6,347 19,696 41,1047 95,1561 356,3170 1002,4997 646,1827 1677,3872 2889,5755 1213,1882 2608,3602 3857,4906 1248,1304 2350,2191 3416,2976 1066,785 2096,1466 4094,2283 1523,622 3608,1323 5728,2000 633,-385 1285,-766 2079,-1106 919,-394 2029,-735 3335,-1092 1306,-357 2808,-729 3559,-915 751,-187 751,-187 751,-187 0,0 0,0 -203,-119 -202,-118 -606,-356 -1460,-677 -854,-321 -2158,-726 -3309,-1096 -1151,-371 -2150,-707 -3442,-1203 -1292,-495 -2877,-1149 -4133,-1722 -1257,-572 -2184,-1064 -3161,-1728 -977,-663 -2003,-1500 -3030,-2421 -1026,-922 -2053,-1928 -2835,-2915z"/>
 </g>
</svg>
