<?xml version="1.0" encoding="UTF-8"?>
<!DOCTYPE svg PUBLIC "-//W3C//DTD SVG 1.1//EN" "http://www.w3.org/Graphics/SVG/1.1/DTD/svg11.dtd">
<!-- Creator: CorelDRAW 2018 (64 Bit Versão de avaliação) -->
<svg xmlns="http://www.w3.org/2000/svg" xml:space="preserve" width="240px" height="307px" version="1.1" shape-rendering="geometricPrecision" text-rendering="geometricPrecision" image-rendering="optimizeQuality" fill-rule="evenodd" clip-rule="evenodd" viewBox="0 0 236408 302261" xmlns:xlink="http://www.w3.org/1999/xlink">
	<path class="gola_3" fill="black" d="M109125 34425c-2,-571 -5,-1135 -10,-1674 -9,-802 -25,-1549 -53,-2186 -30,-660 -72,-1212 -135,-1714 -64,-510 -149,-981 -263,-1472 -58,-250 -123,-506 -197,-763 134,13 141,77 358,136 217,60 524,236 1266,293 183,14 1000,116 1186,130 3725,263 7724,228 11798,177 2217,-28 4387,-389 6411,-545 742,-57 1316,-116 1589,-144 154,-16 324,-34 458,-47 -74,257 -139,513 -197,763 -114,491 -199,962 -263,1472 -63,502 -105,1054 -135,1714 -28,637 -44,1384 -53,2186 -5,539 -8,1103 -10,1674 -490,62 -985,114 -1489,160 -2927,268 -6137,305 -9386,311 -3249,-6 -6459,-43 -9386,-311 -504,-46 -999,-98 -1489,-160z"/>
</svg>
