<?xml version="1.0" encoding="utf-8"?>
<!-- Generator: Adobe Illustrator 19.0.0, SVG Export Plug-In . SVG Version: 6.00 Build 0)  -->
<svg version="1.1"
	 id="Camada_1" image-rendering="optimizeQuality" text-rendering="geometricPrecision" shape-rendering="geometricPrecision" xmlns:xodm="http://www.corel.com/coreldraw/odm/2003"
	 xmlns="http://www.w3.org/2000/svg" xmlns:xlink="http://www.w3.org/1999/xlink" x="0px" y="0px" viewBox="1742 -1652 4096 4096"
	 enable-background="new 1742 -1652 4096 4096" xml:space="preserve">
<g id="Layer_x0020_1">
	<rect x="1742" y="-1652" fill="none" width="4096" height="4096"/>
	<path id="gola_padre" fill="#000" d="M2634.2-1492c1.7-2.8,3.4-5.7,4.6-7.6c1.2-2,1.9-3.1,4-4.7c2.1-1.6,5.7-3.8,10.6-6.1
		c4.9-2.3,11.2-4.8,17.8-7.1c6.7-2.3,13.7-4.4,22.9-6.8c9.2-2.4,20.5-5.2,29.9-7.2c9.3-2.1,16.7-3.4,27.6-5.1
		c11-1.7,25.6-3.6,42.5-5.8c16.9-2.1,36-4.4,53.2-6.3c17.2-1.9,32.5-3.5,46.4-4.9c13.9-1.5,26.5-2.9,45.1-4.3
		c18.6-1.4,43.1-2.7,66.2-3.7c23.1-1,44.7-1.8,68.9-2.1c24.2-0.3,51-0.2,75.9,0c24.9,0.2,47.9,0.6,69,1.4c21.1,0.8,40.3,2,60.9,3.6
		c20.6,1.6,42.6,3.6,67.5,6.2c24.9,2.6,52.9,5.8,77.4,8.8s45.7,5.7,62.9,8.4c17.2,2.7,30.3,5.4,40,7.6c9.7,2.2,16.1,3.9,23.6,6.2
		c7.5,2.3,16,5.2,22.5,7.6c6.4,2.5,10.8,4.6,14,6.5c3.2,2,5.4,3.9,7,5.6s2.8,3.5,3.6,5.1c0.8,1.6,1.3,3.1,1.6,3.9
		c0.3,0.8,0.3,0.8,0.3,0.8s0,0-161,0C3278.2-1491.9,2956.2-1492,2634.2-1492L2634.2-1492z"/>
</g>
</svg>
