<?xml version="1.0" encoding="UTF-8"?>
<!DOCTYPE svg PUBLIC "-//W3C//DTD SVG 1.1//EN" "http://www.w3.org/Graphics/SVG/1.1/DTD/svg11.dtd">
<!-- Creator: CorelDRAW 2018 (64 Bit Versão de avaliação) -->
<svg xmlns="http://www.w3.org/2000/svg" xml:space="preserve" width="240px" height="296px" version="1.1" shape-rendering="geometricPrecision" text-rendering="geometricPrecision" image-rendering="optimizeQuality" fill-rule="evenodd" clip-rule="evenodd" viewBox="0 0 236408 291873" xmlns:xlink="http://www.w3.org/1999/xlink">
	<path class="gola" d="M88494 10401c-1,-4 -2,-7 -1,-9 -36,-484 -71,-967 -89,-1248 -18,-284 -18,-363 -18,-403 0,-39 0,-39 878,-132 877,-93 2633,-280 3917,-472 1284,-192 2096,-390 3271,-501 1175,-111 2713,-135 4370,-226 1656,-91 3432,-250 5140,-321 1708,-71 3348,-55 5334,-51 1986,4 4316,-4 6805,4 2488,7 5136,31 7831,59 2695,28 5437,59 7573,147 2136,87 3666,229 5758,325 2093,95 4748,142 6682,202 1934,59 3147,130 3753,166 606,36 606,36 606,301 0,266 0,797 -22,1161 -23,364 -69,562 -115,759 8,194 24,583 24,848 0,266 -16,408 -76,527 -57,115 -154,207 -422,548 495,634 989,1268 1484,1903 96,-10 223,77 497,264 512,348 1534,1046 2291,1518 757,471 1248,717 1494,840 246,123 246,123 420,-488 174,-610 523,-1831 713,-3107 191,-1276 222,-2607 96,-3495 -127,-888 -413,-1332 -860,-1807 -182,-193 -390,-391 -614,-592 -459,-209 -711,-344 -921,-482 -294,-192 -507,-387 -695,-490 -188,-103 -351,-114 -459,-115 -109,0 -162,10 -247,-4 -86,-13 -202,-51 -579,-287 -376,-237 -1013,-673 -1653,-1175 -640,-503 -1284,-1073 -1927,-1636 -643,-564 -1284,-1121 -2276,-1546 -992,-425 -2335,-717 -3667,-905 -1333,-188 -2655,-273 -4508,-349 -1853,-77 -4236,-147 -7812,-129 -3577,17 -8348,121 -12720,216 -4373,94 -8349,180 -10440,227 -2091,48 -2297,57 -4089,200 -1793,143 -5171,421 -7294,661 -2123,240 -2990,443 -3695,696 -706,253 -1251,555 -1858,1063 -607,507 -1276,1221 -1989,1849 -713,627 -1471,1170 -1923,1437 -452,268 -599,261 -888,361 -290,100 -724,308 -1249,573 -525,265 -1142,587 -1891,908 -322,138 -668,275 -1008,407 -33,517 -48,1062 -21,1676 48,1058 222,2318 448,3337 226,1018 503,1795 693,2286 191,492 294,698 345,801 52,103 52,103 52,103 0,0 0,0 420,-226 420,-226 1260,-678 2081,-1153 820,-476 1620,-975 2021,-1225 400,-249 400,-249 400,-249 443,-497 887,-995 1331,-1492 -80,-96 -149,-179 -210,-251 -221,-261 -338,-379 -392,-467 -55,-87 -47,-142 -50,-346 -3,-205 -17,-557 -27,-750 -11,-194 -19,-227 -23,-244z"/>
</svg>
