<?xml version="1.0" encoding="UTF-8"?>
<!DOCTYPE svg PUBLIC "-//W3C//DTD SVG 1.1//EN" "http://www.w3.org/Graphics/SVG/1.1/DTD/svg11.dtd">
<!-- Creator: CorelDRAW 2018 (64 Bit Versão de avaliação) -->
<svg xmlns="http://www.w3.org/2000/svg" xml:space="preserve" width="258px" height="307px" version="1.1" shape-rendering="geometricPrecision" text-rendering="geometricPrecision" image-rendering="optimizeQuality" fill-rule="evenodd" clip-rule="evenodd" viewBox="0 0 250902 298736" xmlns:xlink="http://www.w3.org/1999/xlink">
	<path class="gola" d="M107411 19116c554,284 1088,578 1618,903 528,324 1046,678 1528,1046 464,356 894,723 1266,1089 374,367 693,737 971,1121 277,382 512,779 719,1200 203,412 380,845 531,1282 167,482 306,977 418,1459 104,452 184,892 245,1375 61,493 101,1018 129,1632 28,636 44,1362 52,2131 6,490 8,999 10,1513 -1021,-194 -2085,-411 -3422,-772 -1584,-427 -3549,-1056 -5689,-2075 -2139,-1020 -4450,-2428 -6240,-3695 -1790,-1265 -3057,-2390 -3965,-3314 -908,-925 -1456,-1650 -1895,-2298 -440,-649 -771,-1219 -1017,-1666 -246,-445 -407,-764 -159,-2377 250,-1612 907,-4517 1514,-6577 553,-1880 1064,-3057 1527,-3954 -92,334 -140,671 -156,1030 -17,346 -3,714 33,1072 39,373 104,739 188,1066 84,328 187,612 309,878 121,262 265,513 433,778 164,256 351,527 572,806 224,282 479,570 771,857 280,275 596,553 923,817 358,288 729,561 1082,802 342,232 665,433 1031,639 351,196 755,404 1270,656 679,331 1523,726 2383,1129 328,155 662,310 1248,586 633,299 1226,583 1771,861l1 0zm47233 -6098c251,-251 466,-495 654,-731 203,-256 375,-505 526,-743 31,-49 61,-96 89,-143 88,-143 167,-285 238,-430 19,-37 37,-75 55,-112 105,-232 192,-471 262,-744 74,-287 132,-614 166,-952 34,-323 46,-652 32,-960 -15,-306 -55,-591 -134,-871 -79,-281 -195,-559 -360,-852 -177,-313 -411,-644 -695,-967 -260,-293 -562,-581 -903,-842 -359,-274 -760,-518 -1226,-746 -476,-231 -1017,-443 -1647,-648 -565,-182 -1210,-362 -1869,-529 -822,-207 -1647,-393 -2366,-543 -655,-137 -1222,-245 -1799,-340 -571,-93 -1161,-174 -1866,-256 -720,-84 -1522,-166 -2339,-240 -826,-75 -1715,-146 -2595,-207 -865,-61 -1681,-109 -2513,-148 -857,-40 -1738,-71 -2709,-99 -989,-28 -2065,-52 -3057,-71 -1005,-19 -1922,-35 -2582,-44 -665,-10 -1071,-16 -1345,-18 -93,-1 -172,-2 -240,-2 -68,0 -147,1 -240,2 -275,2 -680,8 -1345,18 -660,9 -1578,25 -2582,44 -993,20 -2069,43 -3057,71 -971,28 -1852,59 -2710,99 -831,39 -1647,87 -2512,148 -880,61 -1770,132 -2595,207 -817,74 -1619,156 -2339,240 -705,82 -1295,163 -1866,256 -577,95 -1145,203 -1800,340 -718,150 -1543,336 -2365,543 -659,167 -1304,347 -1869,529 -630,205 -1172,418 -1648,648 -466,228 -867,472 -1225,746 -341,261 -643,549 -903,842 -284,323 -518,654 -695,967 -165,293 -282,571 -361,852 -78,280 -118,565 -133,871 -14,308 -2,637 31,960 35,338 93,665 166,952 71,272 157,512 263,744 18,37 36,75 54,112 71,145 150,287 238,430 29,47 58,95 89,143 151,238 324,487 527,743 116,146 243,296 382,448 102,110 209,222 324,335 260,256 557,515 866,764 151,123 307,242 462,358 523,-180 1152,-378 2248,-654 1415,-357 3607,-847 6000,-1317 2392,-469 4986,-919 7794,-1207 2809,-290 5834,-416 9024,-416 3189,0 6547,126 9492,341 2946,216 5480,519 7883,832 2401,313 4673,636 6683,994 1839,325 3459,681 5063,1039 295,-240 578,-489 827,-734 18,-17 36,-35 53,-52l-1 0zm-9213 6098c-555,284 -1089,578 -1618,903 -529,324 -1047,678 -1528,1046 -464,356 -894,723 -1266,1089 -375,367 -694,737 -971,1121 -278,382 -513,779 -720,1200 -203,412 -379,845 -530,1282 -167,482 -307,977 -418,1459 -105,452 -185,892 -245,1375 -61,493 -102,1018 -130,1632 -28,636 -44,1362 -52,2131 -6,490 -8,999 -10,1513 1022,-194 2085,-411 3423,-772 1583,-427 3549,-1056 5688,-2075 2139,-1020 4451,-2428 6240,-3695 1790,-1265 3057,-2390 3965,-3314 908,-925 1456,-1650 1896,-2298 439,-649 770,-1219 1016,-1666 246,-445 407,-764 159,-2377 -249,-1612 -907,-4517 -1513,-6577 -553,-1880 -1064,-3057 -1528,-3954 93,334 140,671 156,1030 17,346 3,714 -33,1072 -39,373 -104,739 -188,1066 -83,328 -186,612 -309,878 -120,262 -265,513 -432,778 -164,256 -352,527 -573,806 -223,282 -478,570 -771,857 -279,275 -596,553 -923,817 -357,288 -729,561 -1081,802 -342,232 -666,433 -1031,639 -351,196 -756,404 -1271,656 -678,331 -1523,726 -2383,1129 -328,155 -662,310 -1247,586 -634,299 -1227,583 -1771,861l-1 0z"/>
</svg>
