<?xml version="1.0" encoding="UTF-8"?>
<!DOCTYPE svg PUBLIC "-//W3C//DTD SVG 1.1//EN" "http://www.w3.org/Graphics/SVG/1.1/DTD/svg11.dtd">
<!-- Creator: CorelDRAW 2018 (64 Bit Versão de avaliação) -->
<svg xmlns="http://www.w3.org/2000/svg" xml:space="preserve" width="240px" height="296px" version="1.1" shape-rendering="geometricPrecision" text-rendering="geometricPrecision" image-rendering="optimizeQuality" fill-rule="evenodd" clip-rule="evenodd" viewBox="0 0 236408 291873" xmlns:xlink="http://www.w3.org/1999/xlink">
	<path class="fundo_gola" d="M115806 45845c1236,1449 2374,2974 2971,3758 322,424 486,632 577,740 142,0 303,-11 495,-26 125,-267 306,-587 784,-1184 588,-735 1625,-1891 2655,-3057 1031,-1165 2055,-2341 3891,-4210 1836,-1870 4485,-4432 6577,-6478 2092,-2046 3628,-3575 4818,-4855 1191,-1280 2036,-2310 2855,-3344 819,-1034 1612,-2071 2467,-3276 856,-1205 1774,-2579 2480,-3847 707,-1269 1203,-2431 1563,-3425 360,-994 584,-1820 766,-2939 181,-1120 320,-2534 389,-3320 70,-786 70,-944 70,-1023 0,-80 0,-80 0,-80 0,0 0,0 -680,133 -681,132 -2041,396 -4363,561 -2322,165 -5605,231 -9812,327 -4208,96 -9340,221 -14082,304 -4743,82 -9095,122 -11690,147 -2594,25 -3429,34 -4265,44 -1783,7 -3566,14 -5155,10 -1588,-3 -2982,-16 -4290,-92 -1308,-76 -2530,-215 -3270,-320 -739,-106 -997,-179 -1126,-215 -129,-36 -129,-36 -112,393 17,429 50,1288 208,2341 159,1054 443,2302 925,3670 482,1367 1162,2853 2153,4491 991,1638 2292,3428 3372,4845 1080,1417 1939,2460 3025,3636 1087,1176 2401,2484 4422,4521 2021,2038 4749,4805 6780,6876 2031,2071 3366,3445 4602,4894z"/>
</svg>
