<?xml version="1.0" encoding="UTF-8"?>
<!DOCTYPE svg PUBLIC "-//W3C//DTD SVG 1.1//EN" "http://www.w3.org/Graphics/SVG/1.1/DTD/svg11.dtd">
<!-- Creator: CorelDRAW 2018 (64 Bit Versão de avaliação) -->
<svg xmlns="http://www.w3.org/2000/svg" xml:space="preserve" width="258px" height="296px" version="1.1" shape-rendering="geometricPrecision" text-rendering="geometricPrecision" image-rendering="optimizeQuality" fill-rule="evenodd" clip-rule="evenodd" viewBox="0 0 250902 288186" xmlns:xlink="http://www.w3.org/1999/xlink">
	<path class="gola" d="M97222 10754c-190,-636 -243,-1194 -268,-1484 -25,-295 -21,-312 -19,-320 2,-8 2,-8 166,25 165,34 493,102 1818,253 1325,151 3647,385 7066,475 3420,90 7937,35 12144,-47 4205,-82 8098,-192 12046,-239 3946,-46 7950,-30 10665,-62 2717,-31 4148,-109 6361,-244 2215,-134 5212,-327 6711,-421 1499,-93 1499,-89 1497,-30 -2,58 -6,172 -68,398 -63,227 -185,566 -273,775 -87,207 -141,281 -278,502 -136,221 -352,591 -573,904 -7,10 -15,20 -21,30 80,79 162,158 244,237 0,0 0,0 484,442 485,442 1455,1325 2634,2259 1181,934 2572,1919 3526,2509 954,591 1470,786 1728,884 257,97 257,97 418,-564 160,-660 481,-1981 813,-3384 332,-1404 677,-2889 719,-3916 17,-413 -14,-752 -74,-1047 -1101,-445 -2138,-873 -2845,-1176 -891,-383 -1260,-569 -1549,-758 -290,-189 -500,-381 -685,-483 -185,-102 -346,-113 -453,-114 -107,0 -160,10 -244,-4 -85,-13 -199,-50 -571,-283 -371,-234 -999,-664 -1630,-1159 -631,-496 -1266,-1058 -1901,-1613 -633,-556 -1266,-1106 -2244,-1525 -978,-419 -2303,-707 -3616,-892 -1315,-186 -2619,-270 -4446,-344 -1828,-76 -4178,-145 -7705,-127 -3527,16 -8233,119 -12545,213 -4312,92 -8233,177 -10296,223 -2062,48 -2265,57 -4033,198 -1768,141 -5099,415 -7193,652 -2094,237 -2949,437 -3645,687 -695,249 -1233,547 -1832,1048 -598,500 -1258,1204 -1961,1823 -703,618 -1451,1154 -1897,1417 -445,265 -590,258 -876,357 -285,98 -714,303 -1231,565 -518,261 -1126,578 -1865,895 -724,310 -1572,618 -2195,863 14,717 47,1442 121,2182 133,1321 399,2693 590,3543 192,850 309,1178 367,1343 59,164 59,164 59,164 0,0 0,0 1036,-582 1035,-583 3107,-1748 4549,-2650 1442,-904 2256,-1545 2662,-1865 188,-148 289,-228 343,-270 88,-88 176,-176 264,-263l1 0z"/>
</svg>
