<?xml version="1.0" encoding="UTF-8"?>
<!DOCTYPE svg PUBLIC "-//W3C//DTD SVG 1.1//EN" "http://www.w3.org/Graphics/SVG/1.1/DTD/svg11.dtd">
<!-- Creator: CorelDRAW 2018 (64 Bit Versão de avaliação) -->
<svg xmlns="http://www.w3.org/2000/svg" xml:space="preserve" width="240px" height="296px" version="1.1" shape-rendering="geometricPrecision" text-rendering="geometricPrecision" image-rendering="optimizeQuality" fill-rule="evenodd" clip-rule="evenodd" viewBox="0 0 236408 291873" xmlns:xlink="http://www.w3.org/1999/xlink">
	<path class="gola_2" d="M90059 13536c-381,-481 -657,-825 -863,-1077 -444,497 -888,995 -1331,1492 0,0 0,0 444,669 444,670 1331,2010 2314,3274 983,1264 2061,2453 2949,3349 887,895 1585,1498 2235,2104 650,606 1252,1217 2029,1878 777,662 1728,1376 3071,2240 1344,863 3080,1878 4705,2821 1624,943 3138,1815 4965,2675 1827,860 3967,1708 5501,2235 1534,528 2461,734 2925,837 463,103 463,103 1165,-80 701,-182 2104,-547 3741,-1141 1637,-594 3507,-1419 5330,-2330 1823,-912 3599,-1910 5073,-2782 1474,-872 2647,-1617 3813,-2402 1165,-785 2322,-1609 3380,-2465 1058,-856 2017,-1744 3012,-2715 995,-971 2025,-2025 2897,-3083 872,-1058 1585,-2120 2184,-2976 598,-856 1082,-1506 1323,-1831 112,-151 173,-232 256,-240 -495,-635 -989,-1269 -1484,-1903 -11,14 -22,28 -33,43 -294,376 -777,1034 -1431,1918 -654,884 -1478,1993 -2287,3048 -808,1054 -1601,2052 -2536,3067 -935,1014 -2013,2045 -2980,2897 -967,852 -1823,1526 -2965,2362 -1142,836 -2570,1834 -4227,2844 -1656,1011 -3542,2034 -5241,2910 -1700,876 -3214,1605 -4593,2085 -1379,479 -2623,709 -3245,824 -623,115 -623,115 -904,103 -281,-12 -844,-36 -2037,-440 -1193,-404 -3016,-1189 -4550,-1894 -1533,-706 -2778,-1332 -4042,-2021 -1264,-690 -2548,-1443 -3951,-2331 -1403,-887 -2925,-1910 -4332,-2996 -1407,-1085 -2698,-2235 -3725,-3214 -1026,-979 -1787,-1787 -2505,-2631 -717,-844 -1391,-1724 -2092,-2628 -702,-903 -1431,-1831 -1958,-2495z"/>
</svg>
