<?xml version="1.0" encoding="UTF-8"?>
<!DOCTYPE svg PUBLIC "-//W3C//DTD SVG 1.1//EN" "http://www.w3.org/Graphics/SVG/1.1/DTD/svg11.dtd">
<!-- Creator: CorelDRAW 2020 (64 Bit) -->
<svg xmlns="http://www.w3.org/2000/svg" xml:space="preserve" width="240px" height="296px" version="1.1" shape-rendering="geometricPrecision" text-rendering="geometricPrecision" image-rendering="optimizeQuality" fill-rule="evenodd" clip-rule="evenodd"
viewBox="0 0 236408 291873"
 xmlns:xlink="http://www.w3.org/1999/xlink"
 xmlns:xodm="http://www.corel.com/coreldraw/odm/2003">
 
   <path id="gola_detalhe" fill="black" d="M121712 36798c50,-1414 89,-1820 109,-2023 20,-203 20,-203 1006,-664 986,-461 2957,-1382 5107,-2378 2150,-995 4478,-2065 6722,-3217 2245,-1152 4404,-2386 6032,-3292 1627,-907 2722,-1486 4220,-2395 1499,-909 3401,-2148 4645,-2970 1243,-822 1828,-1229 2360,-1746 533,-518 1013,-1147 1429,-2049 16,-33 31,-66 46,-100 -190,-322 -389,-646 -621,-977 -286,-408 -621,-827 -961,-1246 -6,52 -59,95 -161,177 -215,175 -646,524 -978,873 -332,349 -565,699 -1035,1188 -471,489 -1179,1118 -1992,1762 -812,644 -1729,1303 -2955,2108 -1226,805 -2762,1756 -4320,2665 -1558,909 -3138,1776 -5184,2816 -2046,1041 -4557,2254 -7168,3505 -2611,1251 -5320,2539 -6675,3183 -1355,644 -1355,644 -2105,320 -751,-325 -2252,-974 -4238,-1908 -1987,-933 -4459,-2152 -7018,-3425 -2558,-1273 -5204,-2601 -7353,-3772 -2150,-1172 -3805,-2188 -5207,-3099 -1402,-912 -2551,-1719 -3371,-2370 -820,-652 -1310,-1147 -1952,-1804 -641,-656 -1434,-1473 -1830,-1882 -305,-314 -375,-387 -337,-455 -381,391 -756,782 -1069,1162 -262,317 -480,626 -687,933 87,76 221,200 441,410 520,501 1515,1491 2281,2244 765,753 1300,1269 2286,2034 986,765 2423,1781 3961,2742 1538,961 3177,1868 4815,2697 1637,830 3272,1583 5001,2393 1729,810 3552,1677 5583,2637 2031,959 4270,2012 5549,2639 1279,627 1599,827 1759,927 159,101 159,101 159,93 0,-7 0,-22 53,1100 52,1122 156,3381 255,5073 99,1692 193,2816 290,3487 96,672 195,890 525,1068 329,178 889,317 1337,154 449,-164 785,-630 946,-1073 161,-443 147,-864 169,-2286 22,-1422 82,-3844 131,-5259z"/>
   
</svg>
