<?xml version="1.0" encoding="UTF-8"?>
<!DOCTYPE svg PUBLIC "-//W3C//DTD SVG 1.1//EN" "http://www.w3.org/Graphics/SVG/1.1/DTD/svg11.dtd">
<!-- Creator: CorelDRAW 2018 (64 Bit Versão de avaliação) -->
<svg xmlns="http://www.w3.org/2000/svg" xml:space="preserve" width="232px" height="294px" version="1.1" shape-rendering="geometricPrecision" text-rendering="geometricPrecision" image-rendering="optimizeQuality" fill-rule="evenodd" clip-rule="evenodd" viewBox="0 0 224820 284513" xmlns:xlink="http://www.w3.org/1999/xlink">
	<path class="fundo_gola" d="M101351 32604c4209,3901 7812,7585 11415,11269 368,-493 735,-986 1814,-2123 1079,-1138 2870,-2921 4757,-4668 1887,-1747 3870,-3458 6043,-5313 2173,-1855 4535,-3854 6571,-5761 2037,-1908 3748,-3725 5421,-5640 1673,-1916 3308,-3930 4398,-5731 1090,-1802 1635,-3392 1968,-4747 333,-1355 455,-2476 515,-3036 61,-560 61,-560 61,-560 0,0 0,0 -689,401 -689,401 -2067,1204 -3861,2044 -1794,841 -4005,1719 -6215,2324 -2211,606 -4422,939 -7019,1295 -2596,356 -5579,734 -8948,878 -3369,144 -7124,53 -11340,-363 -4217,-417 -8896,-1159 -13150,-2135 -4255,-977 -8086,-2188 -10001,-2794 -1915,-605 -1915,-605 -1915,-605 0,0 0,0 30,265 30,265 91,795 291,1624 201,829 542,1957 1567,3880 1026,1922 2737,4640 6000,8058 3263,3418 8077,7537 12287,11438z"/>
</svg>
