<?xml version="1.0" encoding="utf-8"?>
<!-- Generator: Adobe Illustrator 19.0.0, SVG Export Plug-In . SVG Version: 6.00 Build 0)  -->
<svg version="1.1" id="Camada_1" xmlns="http://www.w3.org/2000/svg" xmlns:xlink="http://www.w3.org/1999/xlink" x="0px" y="0px"
	 viewBox="0 0 2625 2471.4" enable-background="new 0 0 2625 2471.4" xml:space="preserve">
<g>
	<path id="camisa-frente" fill="#010101" d="M122.6,765.4l252.5-76.6l13.7,0c-2.4,20.6-3.7,42.3-1.8,67.7
		c2.7,37,12.4,81.8,33.5,117.1c21.2,35.3,53.9,61.1,77.1,78.5c23.2,17.4,36.8,26.3,47.1,35.2c10.4,8.9,17.5,17.9,21.4,24
		c3.9,6.2,4.7,9.6,10.4,35.3c5.7,25.6,16.3,73.5,21.6,97.5c5.3,23.9,5.3,23.9,16.9,23.7c5.8-0.1,14.5-0.3,23.2-0.5
		c8.7,0.2,17.4,0.4,23.2,0.5c11.6,0.3,11.6,0.3,16.9-23.7c5.3-23.9,15.9-71.8,21.6-97.5c5.7-25.6,6.5-29.1,10.4-35.3
		c3.9-6.2,11.1-15.1,21.4-24c10.4-8.9,24-17.8,47.1-35.2c23.2-17.4,55.9-43.2,77.1-78.5c21.2-35.3,30.8-80.1,33.5-117.1
		c1.9-25.4,0.5-47.1-1.8-67.7l11.5-0.5c84.2,25.8,168.4,51.6,252.6,77.4c-6.4,26-11.4,47.5-15,63.4c-4.3,19.2-6.2,28.3-7.3,33.6
		c-4.6,22.8-7.3,40.1-8.2,46c-1.2,8-3.7,24.9-6.1,46.7c-1,9.1-2,18.8-2.9,32c-1.3,19.3-1.5,34-1.6,43.7c-0.2,14.7-0.3,25,0.5,39.2
		c0.6,11.1,1.5,28.2,5.3,50.3c3.7,21.6,8.4,37.5,9.8,42.1c3.4,11.3,8,26.2,17.1,44.6c10.3,20.9,20.9,35.1,23.9,39.1
		c12.6,16.6,24.6,27.7,30.8,33.1c16.5,14.4,30.9,22.7,39.6,27.7c13.9,7.9,26.5,13.4,36.3,17.1c0.1,382.3,0.2,764.6,0.2,1147
		L0,2471.4L0.1,1324c9.8-3.9,18-7.7,24.4-10.9c15.9-8,27-15.4,30.2-17.5c5.2-3.5,11.3-7.6,18.7-13.9c8-6.8,13.5-12.6,18.2-17.7
		c4.1-4.4,9.9-10.6,16.7-19.6c3.1-4.2,10.2-13.9,17.6-27.5c5.6-10.4,9-18.6,11.9-25.7c1.5-3.6,6.3-15.5,11-31.6
		c1.6-5.6,4-13.5,6.2-24.2c1.8-8.9,2.7-15.3,4-24.5c1.9-14.3,2.8-25.1,3.1-28.8c0.6-7.6,0.8-13.3,1-18.2c0-0.8,0.7-18.7,0.5-36.5
		c-0.6-47.7-7.8-99.4-8.3-103c-3-21.4-6.5-40.2-8.1-48.7c-1.5-8-2.9-14.7-5.3-26.5c-3.1-14.8-5.4-26.3-8.5-40
		C130.8,798.1,127.3,783.2,122.6,765.4L122.6,765.4z"/>
	<path id="camisa-verso" fill="#010101" d="M1453.2,764.4c3.1,10.6,7.2,25.4,11.6,43.5c2,8.2,3.3,14,5.4,23.3
		c5.6,24.8,8.8,39.1,12,56.4c3.1,16.7,4.6,28.4,7.4,48.5c3.2,23.8,5.1,37.2,6.5,55.7c2.2,28.3,2,50,1.8,56.8
		c-0.3,19.6-0.6,42-5.5,71.2c-6,35.6-15.2,60.4-17.5,66.7c-4,10.6-9.1,23.9-18.9,40.1c-3,5-11.5,18.6-25.2,34
		c-10.8,12.1-20.3,20.2-24,23.3c-2.2,1.8-12.3,10.1-27.4,19.5c-10.4,6.4-24.5,14.1-42.1,21.1c4.4,382.1,8.9,764.3,13.3,1146.4
		c424.8-2.4,849.6-4.7,1274.4-7.1c-0.1-382.3-0.2-764.6-0.3-1146.9c-7.6-2.7-17.3-6.8-28.3-12.5c-2.2-1.1-9.5-5-19-11.1
		c-8.6-5.6-21.6-14-36.3-28c-14.5-13.7-23.9-26.4-28.4-32.8c-1.4-2-7.9-11.4-15.1-25c-10.5-19.9-15.7-36.3-19.6-48.5
		c-6-19.1-9.2-35-10.9-44.7c-2.9-16.6-3.7-29.1-4.6-42.1c-0.3-4.2-1.4-20.5-1.4-43.6c0-10,0.2-44.4,5.3-89.1c0.5-4.3,2-16.8,4.5-33
		c2.8-18.2,5.4-31.4,8.9-49.4c2.8-14,6-30.3,11-51.9c4.2-18.3,8.3-34.1,11.8-47.1c-35.2-10.6-76.4-23.1-108.8-32.8
		c-24.2-7.3-36.9-11.1-55.7-16.8l-89.3-27.4l-20,0.1c-0.3,20.1-1.2,39.3-4.6,53.9c-4.4,18.8-13,30.2-34.4,43.4
		c-21.4,13.2-55.7,28.1-96.9,35.5c-34.1,6.2-73,7.2-112.8,7.4c-39.7-0.2-78.6-1.2-112.8-7.4c-41.2-7.5-75.5-22.3-96.9-35.5
		c-21.4-13.2-30-24.6-34.4-43.4c-3.3-14-4.2-32-4.6-51.1l-26.6,0.2C1621,710.8,1537.1,737.6,1453.2,764.4L1453.2,764.4z"/>
	<path id="manga-braco_dir." fill="#010101" d="M233.4,616.7C172.5,497.7,111.6,378.6,50.7,259.5c10.7,0.4,19.6,0.4,26.3,0.3
		c7.9-0.1,13.8-0.3,21.8-1.1c2.6-0.3,11.7-1.2,23.9-4c22-4.9,40.6-12.4,52.7-18.1c3.4-1.6,18.5-8.7,36.5-20.7
		c10.3-6.8,18.8-13.4,24.9-18.1c7.7-5.9,13.2-10.5,19.7-16c9.6-8,16.4-14,27.6-23.8c10.6-9.3,11.9-10.7,26.7-23.7
		c8.9-7.8,13.5-11.8,18-15.7c12.6-10.6,22.3-18.2,24.9-20.2c5.4-4.2,15.4-11.7,28.2-20.6c5.4-3.8,10.6-7.3,17.8-11.9
		c10.4-6.6,18.9-11.4,23.5-13.9c11.7-6.5,20.9-10.8,23.5-12c9.6-4.5,17.1-7.5,22-9.4c10.2-4.1,18.1-6.8,20.2-7.5
		c12.8-4.4,23-7.2,27.5-8.4c16.5-4.4,29.3-6.5,39.4-8.2c10-1.7,26.1-4.3,47.5-5.7c16.2-1.1,28.4-1,38.2-0.9
		c22.9,0.2,40,1.8,44.6,2.2c10.4,1,23.3,2.2,40.2,5.3c19.2,3.6,33.4,7.8,45.1,11.3c10.8,3.2,21.5,6.4,35.6,12.1
		c16.5,6.6,28.5,12.9,37.5,17.7c5.3,2.8,17.2,9.3,31.9,18.6c12.7,8,21.8,14.7,28.7,19.7c12.1,8.8,20.9,15.9,27.2,21
		c12.1,9.8,20.8,17.3,31,26.2c17.9,15.6,18.4,16.7,34.7,30.9c11.9,10.4,20.2,17.6,32.2,27.1c10.9,8.6,22.5,17.7,38.8,28
		c7.2,4.5,14.2,8.9,24.4,14c15.6,7.7,28.6,12,38.6,15.3c6.8,2.2,12.4,4,20.2,5.8c3.1,0.7,13.3,2.9,26.8,4.1c9,0.8,17,0.8,32.8,0.8
		c4.8,0,8.7,0,11.4-0.1c-22.6,46.4-77.1,158.6-99.6,205c-36.3,74.7-69,142.1-72.5,149.4C778.5,615.2,506,616,233.4,616.7
		L233.4,616.7z"/>
	<path id="manga-braco_esq." fill="#010101" d="M1394.3,260.9c57.4,118.1,114.8,236.3,172.2,354.4c272.7,0.7,545.5,1.4,818.2,2.1
		c60.6-118.9,121.1-237.8,181.7-356.7c-7,0.4-15.5,0.6-25.1,0.2c-14-0.5-25.1-1.9-31.4-2.9c-6-0.9-16.8-2.6-30.1-6.2
		c-23.3-6.5-40-15.4-51.3-21.5c-14.6-7.9-24.9-15-33-20.7c-17-11.8-28.7-21.8-43.9-35c-47.7-41.4-49.3-44.6-72.4-63.3
		c-13.2-10.7-27.3-22.1-47.5-35.6c-12-8.1-28.4-19-51.8-30.6c-25.4-12.7-46.6-19.9-57-23.3c-5.5-1.8-22.3-7-44.8-11.6
		c-19.3-3.9-34.1-5.6-43.1-6.5c-9.9-1.1-30.6-3-57.2-3c-13.8,0-33.7,0.1-59.9,3.3c-15.8,2-34.6,5.2-55.4,10.5
		c-25.1,6.5-43.4,13.6-49.1,15.8c-3.6,1.4-20.7,8.2-42.3,19.7c-9.4,5-25.5,13.9-44.4,26.8c-16.4,11.2-27.9,20.5-39.4,29.9
		c-12,9.8-21.9,18.5-33.6,28.7c-12.3,10.8-12.4,11.2-23.2,20.6c-9.2,8-21.2,18.6-35.9,30.3c-23.7,19-36.7,27.9-41.7,31.2
		c-7,4.6-11.9,7.5-15.2,9.5c-14.5,8.4-26.1,13.4-28.6,14.4c-2.3,1-13.4,5.6-28.7,10c-9.5,2.7-20.5,5.8-35.3,7.6
		c-9,1.1-16.1,1.2-27.2,1.5C1408.1,261.1,1400,261,1394.3,260.9L1394.3,260.9z"/>
</g>
</svg>
