<?xml version="1.0" encoding="UTF-8"?>
<!DOCTYPE svg PUBLIC "-//W3C//DTD SVG 1.1//EN" "http://www.w3.org/Graphics/SVG/1.1/DTD/svg11.dtd">
<!-- Creator: CorelDRAW 2018 (64 Bit Versão de avaliação) -->
<svg xmlns="http://www.w3.org/2000/svg" xml:space="preserve" width="232px" height="294px" version="1.1" shape-rendering="geometricPrecision" text-rendering="geometricPrecision" image-rendering="optimizeQuality" fill-rule="evenodd" clip-rule="evenodd" viewBox="0 0 224820 284513" xmlns:xlink="http://www.w3.org/1999/xlink">
	<path class="gola" d="M88909 8944c2029,232 4634,353 6158,434 1524,80 1968,121 5208,111 3240,-10 9277,-71 14637,-253 5360,-181 10043,-484 14343,-1019 4300,-535 8217,-1302 10175,-1686 1958,-383 1958,-383 1958,-383 0,0 0,0 10,767 10,767 31,2301 -302,4381 -334,2079 -1020,4703 -2019,6813 -999,2110 -2312,3705 -3947,5501 -1635,1797 -3593,3796 -5946,5865 -2351,2069 -5097,4209 -6652,5330 -1554,1120 -1917,1221 -2765,1302 -848,80 -2180,141 -4401,202 -2221,60 -5330,121 -6965,131 -1635,10 -1797,-30 -2776,-424 -979,-394 -2776,-1141 -4815,-2463 -2039,-1322 -4320,-3220 -6420,-5188 -2099,-1969 -4017,-4008 -5612,-6178 -1595,-2170 -2867,-4472 -3614,-6854 -746,-2382 -969,-4845 -1080,-6076 -111,-1232 -111,-1232 -111,-1232 0,0 0,0 727,172 727,171 2180,515 4209,747zm-13586 -4780c-330,570 -659,1141 -521,3133 138,1991 744,5403 1642,8148 898,2746 2090,4825 3896,6996 1807,2170 4230,4431 6915,6319 2685,1887 5632,3401 8408,4693 2776,1292 5380,2362 6874,2988 1494,626 1878,808 3735,949 1858,141 5189,242 7803,232 2614,-10 4512,-131 5643,-192 1130,-60 1493,-60 3976,-1160 2484,-1101 7087,-3301 10710,-5451 3624,-2150 6269,-4250 8469,-6370 2201,-2120 3957,-4259 5057,-6541 1101,-2281 1545,-4703 1888,-6742 343,-2040 586,-3695 646,-4876 41,-792 0,-1370 -68,-1879l-5255 -2484c-4735,-3398 -1700,-1699 -16753,485l-19788 1091c-3400,0 -16146,-606 -19666,-1334 -2305,-362 -5099,-1455 -7282,-1455 -971,0 -3035,1820 -4006,2427l-2323 1023z"/>
</svg>
