<?xml version="1.0" encoding="UTF-8"?>
<!DOCTYPE svg PUBLIC "-//W3C//DTD SVG 1.1//EN" "http://www.w3.org/Graphics/SVG/1.1/DTD/svg11.dtd">
<!-- Creator: CorelDRAW 2018 (64 Bit Versão de avaliação) -->
<svg xmlns="http://www.w3.org/2000/svg" xml:space="preserve" width="258px" height="296px" version="1.1" shape-rendering="geometricPrecision" text-rendering="geometricPrecision" image-rendering="optimizeQuality" fill-rule="evenodd" clip-rule="evenodd" viewBox="0 0 250902 288186" xmlns:xlink="http://www.w3.org/1999/xlink">
	<path class="fundo_gola" d="M95402 10456c0,3 0,6 1,9 4,17 12,49 23,241 10,190 23,537 26,739 3,201 -5,256 49,341 54,87 169,204 387,461 60,71 128,153 207,247 203,249 475,588 851,1062 520,656 1239,1571 1931,2461 691,892 1356,1760 2063,2592 708,833 1459,1630 2471,2595 1013,966 2286,2100 3674,3170 1387,1071 2888,2080 4272,2954 1384,876 2650,1619 3896,2300 1247,679 2475,1296 3987,1993 1512,695 3311,1469 4487,1868 1176,398 1732,422 2009,434 277,12 277,12 892,-102 613,-113 1840,-340 3200,-812 1360,-474 2853,-1193 4530,-2057 1675,-864 3535,-1872 5169,-2869 1634,-997 3042,-1981 4168,-2805 1126,-825 1971,-1490 2924,-2330 954,-840 2017,-1857 2939,-2857 923,-1001 1705,-1985 2502,-3025 798,-1040 1610,-2134 2255,-3006 645,-872 1122,-1521 1412,-1891 11,-15 21,-29 32,-43 265,-336 360,-427 417,-540 58,-117 74,-257 74,-520 0,-261 -16,-645 -23,-836 45,-194 91,-389 113,-749 22,-359 22,-882 22,-1144 0,-262 0,-262 -597,-297 -598,-36 -1795,-106 -3702,-164 -1907,-59 -4525,-105 -6590,-199 -2063,-95 -3572,-235 -5678,-321 -2106,-87 -4811,-117 -7469,-144 -2657,-28 -5269,-52 -7723,-59 -2454,-7 -4752,0 -6711,-4 -1958,-4 -3576,-20 -5260,51 -1685,70 -3436,227 -5069,316 -1635,90 -3151,114 -4310,223 -1159,110 -1960,305 -3226,494 -1266,189 -2998,374 -3863,465 -866,92 -866,92 -866,130 0,40 0,118 18,398 17,277 52,753 88,1231l-2 -1z"/>
</svg>
