<?xml version="1.0" encoding="UTF-8"?>
<!DOCTYPE svg PUBLIC "-//W3C//DTD SVG 1.1//EN" "http://www.w3.org/Graphics/SVG/1.1/DTD/svg11.dtd">
<!-- Creator: CorelDRAW 2021 (64 Bit) -->
<svg xmlns="http://www.w3.org/2000/svg" xml:space="preserve" width="4096px" height="4096px" version="1.1" shape-rendering="geometricPrecision" text-rendering="geometricPrecision" image-rendering="optimizeQuality" fill-rule="evenodd" clip-rule="evenodd"
viewBox="0 0 4094.992 4094.992"
 xmlns:xlink="http://www.w3.org/1999/xlink"
 xmlns:xodm="http://www.corel.com/coreldraw/odm/2003">
 <g id="Camada_x0020_2">
  <path id="gola_padre" fill="#000" d="M1812.225 205.184l1.785 4.91 -5.244 0c-53.652,0 -107.304,-0.017 -160.956,-0.025 -268.26,-0.042 -536.519,-0.083 -804.778,-0.125l-6.467 -0.001 3.313 -5.553c1.52,-2.549 3.039,-5.099 4.568,-7.643 1.49,-2.479 2.535,-3.903 4.902,-5.703 3.326,-2.53 7.516,-4.695 11.288,-6.467 5.875,-2.76 12.066,-5.122 18.202,-7.232 7.613,-2.619 15.344,-4.824 23.126,-6.878 9.935,-2.622 19.965,-5.063 29.998,-7.281 9.284,-2.052 18.484,-3.714 27.883,-5.14 14.139,-2.146 28.355,-3.979 42.544,-5.765 17.721,-2.231 35.462,-4.349 53.214,-6.324 15.474,-1.722 30.962,-3.298 46.443,-4.95 15.092,-1.611 30.092,-3.184 45.236,-4.303 22.056,-1.63 44.213,-2.737 66.307,-3.719 23,-1.022 45.984,-1.783 69.006,-2.093 25.315,-0.341 50.651,-0.245 75.967,-0.002 23.036,0.222 46.093,0.562 69.114,1.439 20.392,0.777 40.725,2.05 61.069,3.639 22.556,1.763 45.082,3.872 67.584,6.227 25.844,2.704 51.669,5.682 77.464,8.812 21.01,2.55 42.105,5.144 63.01,8.451 13.498,2.137 26.94,4.638 40.269,7.661 8.071,1.829 15.931,3.873 23.84,6.307 7.6,2.339 15.27,4.859 22.692,7.711 4.952,1.902 10.073,4.065 14.605,6.845 2.883,1.768 5.509,3.796 7.8,6.291 1.63,1.776 3.037,3.713 4.147,5.855 0.728,1.407 1.297,2.841 1.817,4.333 0.084,0.241 0.167,0.482 0.252,0.723z"/>
 </g>
</svg>
