<?xml version="1.0" encoding="UTF-8"?>
<!DOCTYPE svg PUBLIC "-//W3C//DTD SVG 1.1//EN" "http://www.w3.org/Graphics/SVG/1.1/DTD/svg11.dtd">
<!-- Creator: CorelDRAW 2018 (64 Bit Versão de avaliação) -->
<svg xmlns="http://www.w3.org/2000/svg" xml:space="preserve" width="258px" height="296px" version="1.1" shape-rendering="geometricPrecision" text-rendering="geometricPrecision" image-rendering="optimizeQuality" fill-rule="evenodd" clip-rule="evenodd" viewBox="0 0 250902 288186" xmlns:xlink="http://www.w3.org/1999/xlink">
	<path class="gola" d="M98345 8547c638,133 1747,349 3214,496 1465,146 3288,222 5711,260 2423,38 5447,38 9397,-8 3949,-45 8826,-137 13984,-197 5157,-61 10596,-91 14674,-236 4080,-144 6799,-402 8159,-531 1360,-129 1360,-129 1360,-129 0,0 0,0 -107,315 -106,315 -319,945 -725,1686 -406,741 -1007,1592 -1778,2389 -771,798 -1712,1542 -2909,2275 -1196,733 -2647,1455 -4565,2142 -1918,688 -4303,1341 -6840,1827 -2537,486 -5226,805 -7923,957 -2696,152 -5400,137 -8408,46 -3008,-92 -6320,-259 -8941,-612 -2620,-354 -4549,-893 -6471,-1580 -1922,-688 -3836,-1523 -5291,-2746 -1455,-1223 -2450,-2834 -2947,-3977 -498,-1143 -498,-1819 -509,-2176 -12,-357 -34,-395 38,-389 72,6 239,55 877,188zm61785 -1963l-54 -26 -13 -6 -13 -6 -13 -6 -11 -5 -3 -1 -13 -6 -13 -7 -13 -6 -13 -6 -13 -6 -13 -6 -13 -6 -11 -5 -2 -1 -13 -7 -13 -6 -13 -6 -13 -6 -12 -6 -13 -6 -13 -6 -11 -5 -2 -1 -12 -7 -13 -6 -13 -6 -13 -6 -12 -6 -13 -6 -13 -6 -11 -5 -1 -1 -13 -6 -12 -6 -13 -6 -12 -6 -13 -6 -12 -6 -13 -6 -11 -5 -1 -1 -13 -6 -12 -6 -12 -6 -13 -6 -12 -6 -12 -6 -13 -6 -11 -5 -1 -1 -12 -6 -12 -6 -12 -6 -13 -6 -12 -5 -12 -6 -12 -6 -12 -6 0 0 -12 -6 -12 -6 -12 -6 -12 -6 -12 -6 -12 -5 -12 -6 -12 -6c-2030,-1003 -3017,-1736 -3964,-2492 -947,-756 -1856,-1534 -2897,-2050 -1041,-516 -2216,-769 -3990,-996 -1775,-227 -4150,-428 -6616,-539 -2465,-110 -5022,-129 -8279,-116 -3257,13 -7215,58 -11368,158 -4152,101 -8500,257 -11926,477 -3425,221 -5930,506 -7721,746 -1791,240 -2868,435 -3589,701 -722,266 -1089,604 -1391,884 -302,281 -539,505 -1238,1107 -699,602 -1860,1582 -2610,2114l-17 12 -17 12 -1 0 -17 12 -17 12 0 0 -17 12 -17 11 0 1 -49 34 -16 10 -1 1 -16 10 -15 11 -1 0 -16 11 -15 10 0 0 -16 11 -14 9 -1 0 -16 11 -14 9 -1 0 -15 10 -14 9 -1 1 -14 9 -14 9 -1 0 -15 9 -13 9 -1 1 -15 8 -13 9 -1 0 -14 9 -13 8 -1 0 -14 9 -12 7 -2 1 -13 8 -13 8 -1 0 -13 8 -12 7 -2 1 -13 8 -12 6 -1 1 -13 8 -12 6 -1 1 -13 7 -11 6 -2 1 -13 7 -10 6 -2 1 -13 7 -10 6 -2 0 -12 7 -11 6 -2 1 -12 6 -10 5 -2 1 -12 6 -10 6 -2 0 -11 7 -10 4 -2 1 -12 6 -9 5 -3 1 -11 6 -9 4 -3 1 -11 5 -9 5 -2 1 -11 5 -10 5 -2 0 -11 6 -9 4 -2 1 -11 5 -9 3 -2 2c-378,363 -756,725 -1032,1319 -277,593 -451,1418 -474,2509 -23,1092 106,2452 414,3759 308,1306 794,2559 1633,3919 840,1360 2032,2826 3711,4144 1679,1318 3843,2487 6248,3437 2404,950 5047,1679 8298,2181 3251,501 7110,774 11075,843 3965,68 8037,-69 11835,-570 3798,-501 7322,-1367 10338,-2423 3015,-1056 5522,-2302 7490,-3517 1967,-1215 3395,-2400 4534,-3608 1140,-1208 1991,-2438 2629,-3851 638,-1413 1063,-3008 1226,-4286 164,-1278 65,-2239 -231,-3074 -114,-321 -257,-623 -417,-914z"/>
</svg>
