<?xml version="1.0" encoding="utf-8"?>
<!-- Generator: Adobe Illustrator 19.0.0, SVG Export Plug-In . SVG Version: 6.00 Build 0)  -->
<svg version="1.1" xmlns="http://www.w3.org/2000/svg" xmlns:xlink="http://www.w3.org/1999/xlink" x="0px" y="0px"
	width="459.7px" height="530px" viewBox="0 0 459.7 530" enable-background="new 0 0 459.7 530" xml:space="preserve"
	image-rendering="optimizeQuality" text-rendering="geometricPrecision" shape-rendering="geometricPrecision">
	<path d="M163.1,13c0.9,0.1,2.2,0.1,4,0.2c1.8,0.1,4.1,0.2,7.5,0.3c3.4,0.2,7.8,0.4,12.5,0.5
	c4.6,0,9.5-0.2,15.1-0.4c5.6-0.2,12-0.4,17.8-0.5c5.8-0.1,10.9-0.1,15.9,0.1c5,0.1,9.7,0.4,14.1,0.6c4.4,0.2,8.4,0.3,12.5,0.5
	c4.2,0.2,8.5,0.4,13.4,0.4s10.4-0.2,15.2-0.4c4.9-0.2,9.1-0.5,11.3-0.6c1.6-0.1,2-0.1,2,0c0.1-0.4,0.2-0.9,0.3-1.2
	c0.1-0.3,0.1-0.5,0.1-0.6c0-0.1,0-0.1-1.6,0c-1.6,0-4.8,0.1-8.8,0.2c-4.1,0.1-9,0.2-13.9,0.1c-4.9,0-9.7-0.2-15.5-0.6
	c-5.9-0.4-12.8-1-18-1.3c-5.2-0.3-8.7-0.3-14.2-0.3c-5.5,0-13.1,0-20.1,0.2c-7.1,0.2-13.6,0.7-18.6,0.9c-5,0.2-8.5,0.2-12.5,0.1
	c-4-0.1-8.5-0.2-12.1-0.3c-3.7-0.1-6.5-0.2-7.9-0.3c-1.4-0.1-1.4-0.1-1.4,0c0,0.1,0.1,0.3,0.2,0.6c0.1,0.4,0.4,0.9,0.6,1.5
	c0,0,0.1,0,0.4,0C161.7,12.9,162.2,13,163.1,13L163.1,13z"/>
	<path d="M196,46.3c-2-0.8-4.1-1.6-6-2.5c-1.9-0.9-3.7-1.8-5.2-2.7c-1.5-1-2.7-2-4.1-3c-1.4-1-2.9-2-4.1-3
	c-1.2-1-2.1-1.9-3.1-3.1c-1-1.2-2.2-2.7-3.6-4.5c-1.4-1.8-3-3.9-4.3-5.9c-1.3-2-2.3-4-3.1-5.5s-1.1-2.4-1.4-2.8
	c-0.2-0.5-0.2-0.5-0.2-0.5c-0.2-0.6-0.5-1.1-0.6-1.5s-0.2-0.5-0.2-0.6c0-0.1,0-0.1,1.4,0c1.4,0.1,4.2,0.2,7.9,0.3
	c3.7,0.1,8.2,0.2,12.1,0.3c4,0.1,7.5,0.1,12.5-0.1c5-0.2,11.6-0.7,18.6-0.9c7.1-0.2,14.6-0.2,20.1-0.2c5.5,0,9,0,14.2,0.3
	c5.2,0.3,12.1,0.9,18,1.3c5.9,0.4,10.6,0.6,15.5,0.6c4.9,0,9.8-0.1,13.9-0.1c4.1-0.1,7.2-0.1,8.8-0.2c1.6,0,1.6,0,1.6,0
	c0,0.1-0.1,0.2-0.1,0.6c-0.1,0.3-0.2,0.7-0.3,1.2c0,0,0,0.1,0,0.2c-0.1,0.3-0.4,0.9-0.9,2.1c-0.5,1.2-1.3,2.9-2.2,4.5
	c-0.9,1.6-1.9,3.1-2.8,4.4c-0.9,1.4-1.8,2.6-3,4.1c-1.3,1.6-2.9,3.5-4.3,5c-1.4,1.5-2.6,2.5-3.9,3.5c-1.4,1-2.9,2.1-4.5,3.1
	c-1.6,1-3.2,2-5.1,2.9c-1.9,0.9-3.9,1.8-5.8,2.5c-1.8,0.7-3.4,1.3-5.9,2.1c-2.4,0.8-5.7,1.7-9,2.5c-3.3,0.8-6.7,1.3-9.8,1.8
	c-3.1,0.5-6,0.9-8.8,1.2c-2.8,0.2-5.5,0.3-7.8,0.3c-2.3,0-4.2-0.1-6.3-0.3c-2.1-0.2-4.3-0.5-6.5-0.8c-2.1-0.4-4.2-0.8-6.8-1.6
	c-2.7-0.7-6-1.8-8.5-2.7C199.8,47.8,198,47.1,196,46.3L196,46.3z M152.2,10.4c-1.1,0.4-1.9,0.6-4.1,1.4c-0.4,0.5-0.7,0.9-0.9,1.3
	c-0.6,0.9-0.8,1.6-0.8,2.4c0,0.8,0,1.6,0.3,2.6c0.3,1,0.7,2.3,1.3,3.4c0.5,1.2,1.2,2.3,2.1,3.9c0.9,1.7,2.1,3.8,3.1,5.5
	c1,1.7,1.8,2.8,2.7,4.1c0.9,1.3,1.9,2.7,3.1,4.1c1.2,1.4,2.5,2.8,3.6,3.9s2,1.9,3.2,2.8c1.1,0.9,2.4,1.9,3.5,2.8s2,1.5,3.1,2.3
	c1.2,0.8,2.6,1.7,4.1,2.5c1.4,0.8,2.8,1.5,4.3,2.2c1.5,0.7,3.2,1.4,5.3,2.3c2.1,0.8,4.7,1.7,7.2,2.6c2.5,0.9,4.9,1.6,7.3,2.3
	c2.4,0.7,5,1.4,7.9,2c2.9,0.7,6.3,1.3,9.1,1.8c2.8,0.5,5,0.8,7.4,1c2.4,0.2,5,0.4,7.1,0.5c2.2,0.1,3.9,0,5.4-0.1
	c1.5-0.1,2.8-0.2,4.8-0.5c1.9-0.2,4.5-0.6,6.9-0.9c2.4-0.3,4.5-0.6,7.3-1.2c2.7-0.6,6-1.4,8.9-2.2c2.9-0.7,5.4-1.4,7.3-1.9
	c1.9-0.5,3.1-1,5.1-1.7c2-0.7,4.9-1.8,7.2-2.9c2.3-1.1,4.1-2.2,5.6-3.1c1.5-1,2.8-1.8,4-2.5c1.1-0.7,2.1-1.4,3.4-2.4
	c1.3-1,3-2.4,4.6-3.9c1.6-1.5,3-3.1,4.3-4.5c1.3-1.5,2.3-2.8,3.3-4.2c1-1.4,2-2.8,3-4.5c1-1.7,2-3.5,2.7-5s1.1-2.6,1.5-3.6
	c0.4-0.9,0.8-1.7,1.1-2.5c0.3-0.8,0.6-1.7,0.7-2.5s0.2-1.6-0.1-2.6c-0.1-0.4-0.2-0.9-0.4-1.3c-1.7-0.5-3.2-0.9-4.5-1.3
	c-1.4-0.4-2.7-0.8-3.8-1.2C309,11,308,10.5,307,9.9S305,8.5,304.2,8c-0.8-0.5-1.3-0.8-2.2-1.1c-0.9-0.3-2.3-0.5-4.3-0.7
	c-2-0.2-4.8-0.4-7.1-0.6s-4.1-0.3-8-0.7c-3.9-0.4-9.8-1.1-14.8-1.7c-5-0.6-9-1.2-13.1-1.6c-4.1-0.4-8.4-0.8-11.8-1
	c-3.5-0.2-6.2-0.4-8.5-0.4C232,0,230.1,0,228.2,0c-2,0-4,0.1-6.2,0.1s-4.7,0.2-6.7,0.3c-2,0.1-3.7,0.2-5.9,0.4
	c-2.2,0.2-5,0.4-8.6,0.8c-3.6,0.3-8.1,0.8-11.2,1.1c-3.1,0.3-4.9,0.4-6.7,0.6c-1.7,0.2-3.4,0.3-5,0.5c-1.5,0.2-2.9,0.4-4.5,0.6
	c-1.6,0.2-3.3,0.3-4.9,0.5c-1.6,0.1-2.9,0.3-4,0.4c-1,0.1-1.8,0.2-2.4,0.4c-0.6,0.1-1,0.3-1.6,0.6c-0.6,0.3-1.3,0.8-2,1.2
	c-0.7,0.4-1.4,0.9-2.6,1.4C154.9,9.4,153.4,10,152.2,10.4L152.2,10.4z"/>
</svg>
