<?xml version="1.0" encoding="UTF-8"?>
<!DOCTYPE svg PUBLIC "-//W3C//DTD SVG 1.1//EN" "http://www.w3.org/Graphics/SVG/1.1/DTD/svg11.dtd">
<!-- Creator: CorelDRAW 2018 (64 Bit Versão de avaliação) -->
<svg xmlns="http://www.w3.org/2000/svg" xml:space="preserve" width="240px" height="306px" version="1.1" shape-rendering="geometricPrecision" text-rendering="geometricPrecision" image-rendering="optimizeQuality" fill-rule="evenodd" clip-rule="evenodd" viewBox="0 0 243851 310815" xmlns:xlink="http://www.w3.org/1999/xlink">
	<path class="gola_costas" d="M87004 14277c745,-183 1643,-324 3426,-479 1782,-155 4449,-325 7627,-498 3178,-173 6868,-350 10647,-479 3778,-129 7645,-210 11818,-274 4173,-64 8653,-113 12568,-48 3916,64 7267,241 9994,370 2727,129 4830,210 6201,310 1372,101 2012,222 2736,456 723,233 1528,580 2105,835 576,255 924,418 1139,553 37,23 70,45 100,67 37,-39 69,-91 101,-143 -24,-10 -48,-20 -71,-30 -10,-23 -19,-46 -29,-70 -47,-113 -100,-239 -285,-471 -185,-231 -502,-569 -892,-1104 -390,-535 -853,-1267 -1434,-2510 -580,-1242 -1277,-2994 -1918,-4296 -641,-1302 -1225,-2153 -1945,-2996 -720,-843 -1576,-1679 -2374,-2193 -798,-513 -1538,-705 -2583,-821 -1045,-115 -2394,-156 -4197,-191 -1803,-35 -4059,-65 -7352,-121 -3293,-55 -7623,-136 -12860,-143 -5236,-8 -11379,57 -15224,103 -3844,45 -5390,70 -6470,179 -1080,108 -1694,299 -2422,669 -727,370 -1568,919 -2253,1468 -685,549 -1213,1098 -1699,1694 -486,597 -929,1241 -1403,2040 -473,798 -977,1749 -1466,2619 -490,870 -966,1658 -1438,2324 -472,666 -940,1209 -1369,1689 -430,480 -820,895 -1147,1294 -328,399 -592,782 -781,1044 -143,198 -243,327 -332,440 -35,18 -70,36 -106,55 231,-24 463,-49 851,-182 136,-46 291,-106 473,-171 110,-75 219,-147 328,-214 598,-366 1190,-592 1936,-775z"/>
</svg>
