<?xml version="1.0" encoding="UTF-8"?>
<!DOCTYPE svg PUBLIC "-//W3C//DTD SVG 1.1//EN" "http://www.w3.org/Graphics/SVG/1.1/DTD/svg11.dtd">
<!-- Creator: CorelDRAW 2018 (64 Bit Versão de avaliação) -->
<svg xmlns="http://www.w3.org/2000/svg" xml:space="preserve" width="232px" height="294px" version="1.1" shape-rendering="geometricPrecision" text-rendering="geometricPrecision" image-rendering="optimizeQuality" fill-rule="evenodd" clip-rule="evenodd" viewBox="0 0 224820 284513" xmlns:xlink="http://www.w3.org/1999/xlink">
	<path class="fundo_gola" d="M80714 7750c150,500 361,972 572,1444 168,84 407,284 871,671 957,800 2871,2398 5475,3803 2604,1405 5899,2617 8721,3441 2822,823 5172,1259 8648,1441 3477,181 8080,109 12186,-279 4106,-388 7716,-1090 11107,-2301 3392,-1212 6565,-2931 8552,-4167 1986,-1235 2786,-1986 3186,-2362 399,-375 399,-375 399,-375 454,-738 908,-1476 1135,-1845 227,-369 227,-369 227,-369 0,0 0,0 -145,36 -146,36 -437,109 -2096,424 -1659,315 -4688,872 -8237,1417 -3549,545 -7618,1079 -11458,1382 -3840,302 -7450,375 -11720,320 -4269,-54 -9199,-236 -13475,-654 -4276,-417 -7898,-1072 -10169,-1708 -2270,-636 -3189,-1254 -4109,-1871 90,526 180,1053 330,1552z"/>
</svg>
