<?xml version="1.0" encoding="UTF-8"?>
<!DOCTYPE svg PUBLIC "-//W3C//DTD SVG 1.1//EN" "http://www.w3.org/Graphics/SVG/1.1/DTD/svg11.dtd">
<!-- Creator: CorelDRAW 2018 (64 Bit Versão de avaliação) -->
<svg xmlns="http://www.w3.org/2000/svg" xml:space="preserve" width="258px" height="296px" version="1.1" shape-rendering="geometricPrecision" text-rendering="geometricPrecision" image-rendering="optimizeQuality" fill-rule="evenodd" clip-rule="evenodd" viewBox="0 0 250902 288207" xmlns:xlink="http://www.w3.org/1999/xlink">
	<path class="gola" d="M106761 23097c-1164,-1871 -2220,-3240 -3263,-4726 -1043,-1487 -2073,-3091 -2942,-4518 -868,-1428 -1576,-2680 -1915,-3318 -339,-640 -309,-666 -295,-678 14,-13 14,-13 546,120 531,134 1594,401 3964,522 2370,120 6047,94 10245,88 4198,-7 8919,6 13277,-59 4358,-65 8354,-208 12289,-349 3934,-140 7807,-277 10309,-413 2504,-137 3638,-274 4206,-342 567,-70 567,-70 567,-70 0,0 0,0 -206,519 -205,519 -615,1555 -1352,2969 -737,1415 -1799,3208 -2765,4847 -964,1640 -1832,3126 -2572,4613 -354,712 -679,1423 -979,2132 -326,773 -623,1543 -896,2307 -521,1467 -951,2915 -1219,4140 -210,963 -319,1789 -406,2585 1693,-555 3168,-1134 4566,-1744 1502,-654 2918,-1346 3964,-2024 1046,-678 1724,-1343 2376,-2008 652,-666 1278,-1329 1982,-2258 705,-930 1486,-2122 2194,-3165 708,-1044 1339,-1937 1890,-3111 551,-1173 1020,-2627 1401,-3950 382,-1323 675,-2516 841,-3713 167,-1196 207,-2395 225,-2995 20,-593 20,-600 2,-771 -371,-155 -704,-295 -986,-416 -892,-383 -1261,-569 -1550,-758 -291,-190 -501,-382 -686,-484 -186,-101 -347,-112 -454,-114 -107,0 -160,10 -243,-4 -85,-12 -200,-50 -572,-283 -371,-234 -1000,-664 -1632,-1160 -631,-496 -1267,-1059 -1902,-1614 -634,-557 -1267,-1107 -2246,-1526 -979,-420 -2305,-708 -3619,-893 -1316,-186 -2621,-270 -4450,-345 -1829,-76 -4181,-145 -7711,-127 -3530,17 -8239,119 -12555,213 -4316,93 -8240,178 -10304,224 -2064,48 -2267,57 -4036,198 -1770,141 -5104,416 -7200,652 -2095,237 -2951,438 -3647,687 -696,250 -1235,548 -1834,1050 -599,500 -1259,1205 -1963,1825 -703,618 -1451,1154 -1898,1418 -446,264 -591,257 -876,357 -286,98 -715,303 -1233,565 -285,144 -597,305 -945,474 -116,296 -222,646 -294,1154 -111,786 -144,1946 231,3605 375,1659 1157,3818 2109,5818 952,2002 2073,3847 2969,5233 896,1385 1569,2310 2465,3185 896,873 2017,1694 3165,2408 1147,714 2320,1321 3782,1933 1460,613 3207,1232 4820,1819 588,214 1159,423 1708,621 -249,-1245 -522,-2513 -1248,-4258 -561,-1348 -1391,-2979 -2251,-4491 -317,-554 -637,-1093 -950,-1596l2 0z"/>
</svg>
