<?xml version="1.0" encoding="UTF-8"?>
<!DOCTYPE svg PUBLIC "-//W3C//DTD SVG 1.1//EN" "http://www.w3.org/Graphics/SVG/1.1/DTD/svg11.dtd">
<!-- Creator: CorelDRAW 2018 (64 Bit Versão de avaliação) -->
<svg xmlns="http://www.w3.org/2000/svg" xml:space="preserve" width="232px" height="309px" version="1.1" shape-rendering="geometricPrecision" text-rendering="geometricPrecision" image-rendering="optimizeQuality" fill-rule="evenodd" clip-rule="evenodd" viewBox="0 0 224820 299431" xmlns:xlink="http://www.w3.org/1999/xlink">
	<path class="gola" d="M94773 19026c-1692,-920 -3827,-2025 -5674,-3138 -1847,-1113 -3407,-2233 -4383,-3285 -977,-1053 -1371,-2037 -1545,-2854 -174,-818 -129,-1469 34,-2154 122,-514 310,-1047 551,-1583 -787,1159 -1453,2515 -2004,3878 -803,1983 -1363,3982 -1643,5390 -280,1408 -280,2226 144,3415 424,1188 1272,2748 2600,4284 1329,1537 3139,3051 4865,4300 1726,1249 3369,2233 4493,2820 1124,587 1730,777 2839,1088 1109,311 2721,742 4516,1136 678,149 1383,292 2134,423 -2,-1643 -17,-3244 -113,-4571 -114,-1559 -341,-2741 -797,-3804 -456,-1064 -1142,-2010 -2109,-2850 -967,-841 -2216,-1575 -3908,-2495zm-1443 -7316c3320,-715 8589,-1382 12707,-1654 4119,-273 7086,-152 9956,-30 2869,121 5640,242 9039,614 3399,371 7426,993 10010,1495 2362,458 3517,816 4568,1165 811,-616 1425,-1270 1874,-1985 651,-1037 954,-2203 999,-3021 46,-817 -166,-1287 -476,-1824 -311,-538 -720,-1143 -1288,-1650 -567,-508 -1294,-917 -2619,-1363 -1325,-447 -3247,-932 -5269,-1333 -2021,-401 -4141,-719 -6942,-923 -2801,-205 -6284,-296 -9486,-349 -3202,-53 -6124,-68 -8630,8 -2506,76 -4595,242 -7169,462 -2575,219 -5633,492 -7783,810 -2150,318 -3392,681 -4572,1264 -1182,583 -2302,1385 -3066,2286 -765,901 -1174,1901 -1250,2915 -76,1014 182,2044 1219,3187 576,635 1392,1305 2417,2005 1280,-709 2682,-1415 5761,-2079zm33005 10900c-491,795 -991,1810 -1324,3021 -333,1211 -500,2619 -591,4027 -67,1041 -93,2082 -108,3123 337,-74 697,-157 1092,-251 2067,-488 5080,-1260 7491,-2184 2411,-924 4221,-1999 6185,-3535 1965,-1537 4084,-3536 5318,-5134 1234,-1597 1582,-2793 1628,-4156 45,-1363 -212,-2892 -651,-4512 -439,-1620 -1060,-3331 -1567,-4717 -255,-697 -482,-1312 -738,-1864 68,312 106,618 125,962 31,533 15,1158 -76,1909 -90,752 -257,1630 -779,2478 -523,848 -1401,1665 -2483,2438 -1083,772 -2370,1498 -3824,2233 -1453,734 -3073,1476 -4474,2180 -1400,704 -2581,1370 -3414,1991 -833,621 -1317,1196 -1810,1991z"/>
</svg>
