<?xml version="1.0" encoding="utf-8"?>
<!-- Generator: Adobe Illustrator 19.0.0, SVG Export Plug-In . SVG Version: 6.00 Build 0)  -->
<svg version="1.1" id="Camada_1" xmlns="http://www.w3.org/2000/svg" xmlns:xlink="http://www.w3.org/1999/xlink" x="0px" y="0px"
	 viewBox="0 0 2265.5 2166.1" enable-background="new 0 0 2265.5 2166.1" xml:space="preserve">
<g id="POWER_x0020_CLIP">
	<path id="gola-frente" fill="#FFD700" d="M548.1,820.9c17.3-0.3,42.5-2.6,71.3-11.5c21.1-6.5,57-18.1,90.8-50.2
		c38.4-36.6,51.3-78.3,56.5-95.7c8.5-28.5,9.8-53.3,9.5-69.8l-37.1-10c-0.3,8.1-1.2,19.6-3.4,33.1c-4.7,28.3-11.8,70.3-43.6,105.8
		c-27.2,30.3-59.7,41.6-76.7,47.5c-27,9.4-50.9,11.4-66.8,11.6c-18.3,0.1-49.1-2.3-82.9-17.9c-13.1-6.1-39.1-18.5-61.8-45.9
		c-24.2-29.1-31.5-59.1-35.9-78.2c-5.5-23.9-6-44.4-5.5-58.8c-13,4.2-26,8.4-39,12.7c-0.2,13.8,0.8,32.9,5.8,55
		c0.6,2.5,12.2,52,41.6,90.5C428.7,814.4,535.1,820.3,548.1,820.9L548.1,820.9z"/>
	<path id="gola-verso" fill="#FFD700" d="M1941.9,590.9c-12.1-3.8-24.3-7.6-36.4-11.3c-0.7,4.1-2.2,10.2-5.8,16.9
		c-1.4,2.6-7.2,12.6-19.3,20c-8,4.9-14.8,6.3-26.8,8.7c-9.3,1.9-17.1,2.4-22.9,2.8c-9.2,0.6-16.1,0.4-18.2,0.4
		c-14.5-0.3-47.1-0.2-93.6,0h-142.4c-9.5-0.1-17.3-1.6-22.7-3c-5.8-1.5-13.6-3.6-22.2-9.3c-3.6-2.4-8.4-5.6-12.8-11.3
		c-6.4-8.3-8.4-17.2-9.1-22.8c-12.4,4.1-24.9,8.1-37.3,12.2c1.3,6.3,4,15.6,9.8,25.5c1.9,3.3,7.5,12.4,17.8,21.5
		c14.9,13.1,30.2,17.9,37.6,20.2c8.8,2.7,16,3.6,25.7,4.9c10.2,1.3,18.9,1.8,25.3,2h200.2c6.3,0,15.3-0.1,26.1-0.5
		c23-0.9,35.4-1.5,50.2-4.9c10.9-2.5,20.9-4.8,32.8-11.5c7.3-4.1,28.6-16.4,38.9-41.8C1940,602,1941.3,595.3,1941.9,590.9
		L1941.9,590.9z"/>
</g>		
</svg>
