<?xml version="1.0" encoding="UTF-8"?>
<!DOCTYPE svg PUBLIC "-//W3C//DTD SVG 1.1//EN" "http://www.w3.org/Graphics/SVG/1.1/DTD/svg11.dtd">
<!-- Creator: CorelDRAW 2021 (64 Bit) -->
<svg xmlns="http://www.w3.org/2000/svg" xml:space="preserve" width="240px" height="294px" version="1.1" shape-rendering="geometricPrecision" text-rendering="geometricPrecision" image-rendering="optimizeQuality" fill-rule="evenodd" clip-rule="evenodd"
viewBox="0 0 224.82 284.513"
 xmlns:xlink="http://www.w3.org/1999/xlink"
 xmlns:xodm="http://www.corel.com/coreldraw/odm/2003">
   <path class="gola" d="M109.813 40.436c-0.803,-0.557 -2.408,-1.671 -4.534,-3.435 -2.126,-1.765 -4.773,-4.18 -7.123,-6.639 -2.351,-2.459 -4.404,-4.961 -6.429,-7.586 -2.025,-2.625 -4.021,-5.373 -5.663,-8.273 -1.641,-2.9 -2.929,-5.952 -3.572,-7.478 -0.644,-1.526 -0.644,-1.526 -0.644,-1.526 0,0 0,0 1.698,0.39 1.698,0.389 5.093,1.168 8.727,1.745 3.633,0.576 7.505,0.95 11.64,1.049 4.135,0.099 8.535,-0.077 11.867,-0.231 3.332,-0.154 5.598,-0.286 7.149,-0.377 1.55,-0.091 2.385,-0.14 4.213,-0.483 1.828,-0.343 4.648,-0.979 7.324,-1.536 2.676,-0.557 5.207,-1.034 6.472,-1.272 1.266,-0.239 1.266,-0.239 1.266,-0.239 0,0 0,0 -0.159,0.477 -0.159,0.477 -0.478,1.432 -1.194,3.218 -0.715,1.786 -1.829,4.404 -3.088,6.61 -1.258,2.206 -2.661,3.999 -4.606,6.436 -1.945,2.437 -4.433,5.518 -7.347,8.374 -2.915,2.857 -6.256,5.489 -8.859,7.341 -2.604,1.851 -4.469,2.921 -5.402,3.456 -0.933,0.535 -0.933,0.535 -0.933,0.535 0,0 0,0 -0.803,-0.556zm-32.167 -37.295l-2.135 0.939c0.22,0.923 0.472,1.868 0.777,2.849 0.847,2.735 2.094,5.744 3.524,8.87 1.43,3.125 3.043,6.367 4.747,9.061 1.704,2.693 3.5,4.838 5.784,7.303 2.284,2.464 5.057,5.248 7.515,7.471 2.458,2.223 4.601,3.885 5.672,4.716 1.072,0.831 1.072,0.831 1.81,0.902 0.737,0.071 2.213,0.213 4.296,0.246 2.083,0.032 4.772,-0.044 6.319,-0.093 1.547,-0.049 1.951,-0.071 2.815,-0.629 0.864,-0.557 2.186,-1.651 3.985,-3.231 1.798,-1.579 4.072,-3.645 6.35,-5.904 2.277,-2.259 4.558,-4.709 6.693,-7.247 2.136,-2.537 4.126,-5.161 5.716,-7.725 1.591,-2.564 2.783,-5.068 3.68,-7.124 0.896,-2.055 1.497,-3.662 1.929,-4.892 0.432,-1.23 0.695,-2.083 0.815,-2.837 0.12,-0.755 0.098,-1.411 -0.066,-2.165 -0.034,-0.159 -0.075,-0.323 -0.121,-0.49l-2.61 -1.234c-4.735,-3.398 -1.7,-1.699 -16.753,0.485l-19.788 1.091c-3.4,0 -16.146,-0.606 -19.666,-1.334 -2.305,-0.362 -5.099,-1.455 -7.282,-1.455 -0.971,0 -3.035,1.82 -4.006,2.427z"/>
</svg>