<?xml version="1.0" encoding="UTF-8"?>
<!DOCTYPE svg PUBLIC "-//W3C//DTD SVG 1.1//EN" "http://www.w3.org/Graphics/SVG/1.1/DTD/svg11.dtd">
<!-- Creator: CorelDRAW 2018 (64 Bit Versão de avaliação) -->
<svg xmlns="http://www.w3.org/2000/svg" xml:space="preserve" width="232px" height="294px" version="1.1" shape-rendering="geometricPrecision" text-rendering="geometricPrecision" image-rendering="optimizeQuality" fill-rule="evenodd" clip-rule="evenodd" viewBox="0 0 224820 284513" xmlns:xlink="http://www.w3.org/1999/xlink">
	<path class="gola_2" d="M91099 22354c32,36 64,73 95,109 -31,-36 -63,-73 -95,-109zm2331 3213c-567,-1005 -1252,-1968 -2236,-3104 819,941 1470,1768 2069,2806 56,98 112,197 167,298zm2059 4724c-654,-1703 -1317,-3369 -2059,-4724 751,1332 1297,2740 2059,4724zm36609 151c2054,-544 3865,-1144 5504,-1768 693,-265 1356,-533 1991,-811 1905,-844 3677,-1819 5131,-2926 873,-665 1857,-1563 2846,-2580 790,-827 1514,-1670 2181,-2471 349,-418 682,-824 999,-1228 1038,-1371 1909,-2729 2430,-3878 1,-2 2,-5 3,-7 549,-1214 1042,-2754 1437,-4256 157,-607 291,-1176 401,-1672 209,-947 334,-1626 412,-2109 -15,-6 -29,-12 -43,-18l-21 -9 -22 -9 -21 -10 -21 -9 -22 -9 -21 -9 -21 -9 -21 -9c-7,-3 -14,-6 -21,-9 -7,-3 -14,-6 -21,-9 -7,-3 -14,-6 -21,-9l-21 -9c-21,-9 -42,-18 -63,-27 -3,-1 -6,-2 -9,-3 -32,-14 -64,-28 -95,-41l-21 -9 -21 -9c-7,-3 -14,-6 -20,-9 -7,-3 -14,-6 -21,-9l-21 -9 -20 -9c-7,-2 -14,-5 -21,-8 -7,-3 -14,-6 -20,-9 -7,-3 -14,-6 -21,-9 -7,-3 -14,-6 -20,-9 -7,-3 -14,-6 -21,-9 -7,-3 -13,-5 -20,-8 -7,-3 -14,-6 -21,-9l-20 -9 -20 -8 -21 -9c-13,-6 -27,-12 -40,-18l-20 -8 -20 -9 -20 -9c-7,-3 -14,-5 -20,-8 -7,-3 -14,-6 -21,-9 -40,-17 -79,-35 -119,-52l-20 -8 -20 -9 -20 -8 -19 -9 -40 -17 -19 -8 -20 -9 -19 -8c-7,-3 -13,-6 -20,-9 -7,-2 -13,-5 -19,-8 -14,-6 -27,-11 -39,-17l-8984 -4247c-4735,-3398 -1700,-1699 -16753,485l-19788 1091c-3400,0 -16146,-606 -19666,-1334 -2305,-362 -5099,-1455 -7282,-1455 -971,0 -3035,1820 -4006,2427l-7738 3405c1,24 3,49 4,73 104,1557 742,3465 1651,5426 271,574 581,1184 932,1832 1253,2313 3033,5106 4745,7174 9,11 18,22 27,33 658,792 1320,1495 1999,2125 1020,947 2031,1687 3055,2318 340,209 680,405 1026,593 1384,746 2879,1360 4539,1938 13,4 25,8 37,13 2137,741 4714,1498 7566,2220 71,19 142,36 214,55 2937,738 6159,1441 9061,1937 2900,497 5481,788 9314,667 3834,-121 8921,-654 13137,-1424 1773,-323 3392,-689 4883,-1084zm67 -258c-22,85 -44,171 -67,258 22,-85 44,-171 67,-258zm435 -1558c-168,565 -308,1075 -435,1558 148,-564 291,-1081 435,-1558zm970 -2744c-425,986 -726,1922 -973,2744 317,-1070 628,-1948 973,-2744zm600 -1246c-214,403 -412,812 -600,1246 177,-409 374,-826 600,-1246zm704 -1215c-256,410 -488,810 -706,1214 211,-397 445,-797 706,-1214zm1194 -1791c-452,651 -847,1236 -1194,1791 349,-560 741,-1142 1194,-1791zm-22982 1327c-5699,6 -12228,-55 -16322,-206 -2731,-101 -4378,-242 -5665,-397 -398,-455 -836,-939 -1325,-1488 -1278,-1432 -2909,-3306 -4392,-5218 -317,-408 -627,-818 -925,-1226 -1695,-2320 -3015,-4573 -3675,-5699 -660,-1127 -660,-1127 -660,-1127 527,173 1039,340 1538,503 1538,503 4615,1508 7516,2205 52,12 104,25 155,37 2569,596 5336,1035 8882,1304 14,1 28,2 42,3 33,3 66,5 99,8 3694,275 7987,372 12340,335 566,-5 1134,-12 1701,-21 4355,-79 9028,-291 12688,-570 4094,-311 7136,-793 9921,-1466 79,-19 157,-39 236,-59 3167,-812 6656,-2035 8400,-2647 1744,-612 1744,-612 1744,-612 0,0 0,0 -357,806 -357,805 -1072,2416 -2459,4688 -25,41 -51,83 -77,125 -1337,2227 -2847,4341 -4907,7247 -8,12 -16,23 -25,35 -557,786 -1051,1480 -1493,2113 -2533,388 -5169,755 -8499,982 -3912,266 -8782,339 -14481,345z"/>
</svg>
