<?xml version="1.0" encoding="UTF-8"?>
<!DOCTYPE svg PUBLIC "-//W3C//DTD SVG 1.1//EN" "http://www.w3.org/Graphics/SVG/1.1/DTD/svg11.dtd">
<!-- Creator: CorelDRAW 2020 (64 Bit) -->
<svg xmlns="http://www.w3.org/2000/svg" xml:space="preserve" width="232px" height="294px" version="1.1" shape-rendering="geometricPrecision" text-rendering="geometricPrecision" image-rendering="optimizeQuality" fill-rule="evenodd" clip-rule="evenodd"
viewBox="0 0 224820 284513"
 xmlns:xlink="http://www.w3.org/1999/xlink"
 xmlns:xodm="http://www.corel.com/coreldraw/odm/2003">

  <path d="M125907 10537c2975,-355 6579,-946 10114,-1665 3535,-719 7003,-1567 8736,-1991 1734,-424 1734,-424 1734,-303 0,122 0,364 -27,969 -26,606 -79,1575 -68,2136 12,560 87,711 337,995 250,284 674,700 886,908 691,648 1381,1296 2071,1944 456,-951 841,-1995 1069,-2968 378,-1620 318,-3043 170,-4228 -83,-668 -194,-1261 -317,-1820l-5471 -2587c-4735,-3398 -1700,-1699 -16753,485l-19788 1091c-3400,0 -16146,-606 -19666,-1334 -2305,-362 -5099,-1455 -7282,-1455 -971,0 -3035,1820 -4006,2427l-2956 1301c-177,1028 -355,2056 -330,3274 25,1218 252,2626 1161,4262 228,412 501,838 821,1279 709,-746 1418,-1492 2128,-2238 91,-118 272,-353 439,-632 166,-281 318,-606 371,-803 53,-197 7,-265 -99,-560 -106,-295 -272,-818 -375,-1257 -102,-439 -139,-795 -158,-973 -19,-178 -19,-178 -19,-178 0,0 0,0 257,106 257,106 772,318 2252,678 1480,360 3926,867 5421,1226 1495,360 2041,571 3370,878 1328,306 3440,708 5624,992 2184,283 4441,450 8234,537 3792,87 9122,95 12960,38 3838,-57 6185,-178 9160,-534z"/>

</svg>
