<?xml version="1.0" encoding="UTF-8"?>
<!DOCTYPE svg PUBLIC "-//W3C//DTD SVG 1.1//EN" "http://www.w3.org/Graphics/SVG/1.1/DTD/svg11.dtd">
<!-- Creator: CorelDRAW 2018 (64 Bit Versão de avaliação) -->
<svg xmlns="http://www.w3.org/2000/svg" xml:space="preserve" width="232px" height="294px" version="1.1" shape-rendering="geometricPrecision" text-rendering="geometricPrecision" image-rendering="optimizeQuality" fill-rule="evenodd" clip-rule="evenodd" viewBox="0 0 224820 284513" xmlns:xlink="http://www.w3.org/1999/xlink">
	<path class="gola" d="M89323 10347c2342,384 5249,606 8126,798 2877,191 5723,353 9609,444 3886,91 8813,111 13264,-81 4452,-192 8428,-595 11810,-1130 3382,-535 6168,-1202 7560,-1535 1394,-333 1394,-333 1394,-333 0,0 0,0 -303,414 -303,414 -909,1242 -1999,2534 -1090,1292 -2665,3048 -4280,4582 -1615,1534 -3270,2847 -4926,3988 -1655,1140 -3311,2109 -5965,3159 -2655,1050 -6309,2180 -8964,2705 -2655,525 -4310,444 -6813,-292 -2504,-737 -5855,-2131 -9085,-3745 -3230,-1616 -6339,-3453 -8873,-5653 -2533,-2201 -4492,-4765 -5471,-6046 -979,-1282 -979,-1282 -91,-1010 889,273 2665,818 5007,1201zm-12375 2494c1624,3109 4228,6823 6943,9751 2715,2927 5542,5067 9832,7348 4290,2281 10043,4704 13384,6067 3342,1362 4270,1665 4735,1817 464,151 464,151 3280,-949 2816,-1100 8449,-3301 12860,-5562 4411,-2261 7601,-4583 10357,-6915 2755,-2331 5077,-4673 6753,-6833 1675,-2161 2705,-4139 3482,-5996 777,-1858 1302,-3594 1555,-4936 165,-880 214,-1590 222,-2242l-5210 -2464c-4735,-3398 -1700,-1699 -16753,485l-19788 1091c-3400,0 -16146,-606 -19666,-1334 -2305,-362 -5099,-1455 -7282,-1455 -971,0 -3035,1820 -4006,2427l-3608 1588c643,2502 1286,5004 2910,8112z"/>
</svg>
