<?xml version="1.0" encoding="utf-8"?>
<!-- Generator: Adobe Illustrator 19.0.0, SVG Export Plug-In . SVG Version: 6.00 Build 0)  -->
<svg version="1.1" xmlns="http://www.w3.org/2000/svg" xmlns:xlink="http://www.w3.org/1999/xlink" x="0px" y="0px"
	width="411px" height="500px" viewBox="0 0 411 500" enable-background="new 0 0 411 500" xml:space="preserve">
	<path d="M281.1,8.3c-0.2-0.1-0.5-0.2-0.7-0.3c-0.5-0.2-0.8-0.5-1.2-0.8c-0.3-0.2-1.1-0.6-1.9-1
	c-0.3-0.1-0.6-0.3-0.9-0.4c-0.4-0.2-0.9-0.4-1.2-0.5c-0.3-0.1-0.7-0.2-1-0.4c-0.3-0.1-0.5-0.3-0.7-0.5c-0.3-0.2-0.7-0.4-1.1-0.5
	c-0.2-0.1-0.4-0.1-0.6-0.2c-0.3-0.2-0.7-0.4-1-0.6c-0.2-0.1-1.1-0.7-1.4-0.8c-0.4-0.2-0.7-0.4-1.1-0.6c-0.2-0.1-0.4-0.2-0.7-0.3
	c-0.3-0.1-0.5-0.1-0.8-0.2c-0.3,0-0.6,0-0.9,0c0,0-0.1,0-0.1,0c-0.2,0-0.6,0-1,0c-0.4,0-0.9-0.1-1.1-0.1c-0.1,0-0.3,0-0.4,0
	c-0.5,0-1,0-1.5,0.1c-0.8,0.1-1.5,0.1-2.2,0.2c-1,0.1-1.9,0.2-2.9,0.3c-1.4,0.2-2.8,0.4-4.2,0.6c-2.8,0.4-6.1,1-8.2,1.3
	c-3.2,0.5-6.5,0.9-9.8,1.3c-6,0.6-12,1.1-17.2,1.1c-2.3,0-4.5,0-6.8,0c-1.4,0-7,0-8.7,0c-2.9,0-5.7-0.1-8.6-0.3
	c-2.9-0.1-7-0.5-10.5-0.8c-2.9-0.2-6-0.5-8.5-0.9c-1.6-0.2-3.8-0.6-5.7-0.9c-2.1-0.3-5.1-0.9-7.6-1.3c-2.3-0.4-4.6-0.7-6.9-1.1
	c-1.7-0.3-3.3-0.5-5.2-0.7c-1.2-0.1-2.2,0-3.4-0.2c-0.3,0-0.6,0-1,0s-0.7,0-1,0c-0.3,0-0.7,0.1-1,0.2c-0.4,0.1-0.7,0.3-1.1,0.4
	c-0.6,0.3-1.1,0.7-1.6,1.1c-0.3,0.2-1,0.7-1.6,1c-1.3,0.8-2.6,1.4-4,2.1c-0.9,0.5-1.9,1-2.8,1.5c-0.4,0.2-0.9,0.4-1.3,0.6
	c0,0-0.1,0-0.1,0c-0.1,0.5-0.1,1.1,0,1.7c0.2,2.5,1.3,5.8,2.9,9.1s3.6,6.4,5.8,9.2c2.2,2.9,4.5,5.4,6.7,7.5c2.2,2.1,4.4,3.7,6.7,5.3
	c2.4,1.6,4.9,3.1,7.7,4.4c2.7,1.3,5.6,2.5,8.4,3.4c2.8,1,5.5,1.7,8.6,2.6s6.8,1.8,10.9,2.6c4.1,0.8,8.7,1.5,12.6,1.8
	c3.8,0.3,6.9,0.3,10.5,0c3.6-0.3,7.6-0.9,11.2-1.5c3.6-0.6,6.6-1.2,10.3-2c3.6-0.8,7.8-1.9,11.5-3.2c3.8-1.3,7.1-2.7,10.4-4.6
	c3.3-1.9,6.6-4.2,9.1-6.3c2.5-2.1,4.2-3.9,5.8-5.8c1.6-1.9,3.2-3.7,4.6-5.8c1.4-2.1,2.7-4.3,3.7-6.2c1-1.9,1.7-3.4,2.3-5
	c0.6-1.6,1-3.2,1.2-5c0-0.3,0.1-0.6,0.1-0.9C281.3,8.4,281.2,8.4,281.1,8.3z M267.9,8.5L267.9,8.5c-1.7,0.4-3.4,0.8-5,1.2
	C264.5,9.3,266.2,8.9,267.9,8.5z M232.9,15.6c4.4-0.6,8.6-1.3,12.6-2.1c4.1-0.8,8.2-1.7,12.2-2.7h0c-4,0.9-8.1,1.8-12.2,2.7
	C241.5,14.3,237.4,15,232.9,15.6c-1.7,0.2-3.4,0.4-5.1,0.6C229.6,16,231.3,15.8,232.9,15.6z M215.9,17.2c1.2-0.1,2.5-0.2,4-0.3
	c0.5,0,1-0.1,1.5-0.1c1-0.1,2.1-0.2,3.2-0.3c-1.1,0.1-2.1,0.2-3.2,0.3c-0.5,0-1,0.1-1.5,0.1C218.5,17,217.1,17.1,215.9,17.2
	s-2.3,0.1-3.4,0.2C213.6,17.3,214.7,17.2,215.9,17.2z M208.8,17.5c-0.6,0-1.2,0-1.8,0C207.7,17.5,208.3,17.5,208.8,17.5z M144.1,9.6
	c-0.2-0.3-0.3-0.6-0.4-0.9C143.8,9.1,143.9,9.3,144.1,9.6c0.5,0.9,1,1.9,1.5,2.7C145.1,11.5,144.6,10.6,144.1,9.6z M261.7,19.3
	c-0.9,1.3-1.7,2.1-2.8,3.3c-1,1.2-2.3,2.7-4,4.2s-3.7,2.9-5.7,4.2c-2,1.3-3.9,2.3-5.9,3.3s-4,1.7-6.7,2.6c-2.7,0.9-6,1.8-9.1,2.6
	c-3.1,0.8-5.9,1.4-9,1.9c-3.1,0.5-6.4,1-9.4,1.2c-3,0.2-5.8,0.2-8.4,0.1c-2.6-0.1-5.1-0.4-7.5-0.8s-4.9-1-7-1.5
	c-2-0.5-3.6-1-5.8-1.7c-2.1-0.7-4.9-1.7-7.3-2.6c-2.5-1-4.6-2-6.6-3c-2-1-3.7-2-5.4-3.2c-1.7-1.1-3.4-2.4-4.9-3.8
	c-1.6-1.4-3-3-4.3-4.6c-1.3-1.6-2.5-3.1-3.4-4.5c-0.7-1-1.3-2-1.8-2.8c0,0,0.1,0,0.1,0c-0.1-0.2-0.3-0.4-0.5-0.8
	c0.2,0.3,0.4,0.6,0.5,0.8c0.5,0.2,1.1,0.4,1.8,0.7c1.1,0.4,2.5,0.7,3.7,1.1c1.2,0.4,2.2,0.7,3.2,1c1,0.3,2.1,0.6,3.1,0.8
	c1,0.2,2,0.4,3.1,0.7c1.1,0.3,2.3,0.7,3.4,1c1.1,0.3,2,0.5,3.5,0.8c1.5,0.3,3.6,0.7,5.9,1.2c2.3,0.4,4.7,0.8,7.9,1.2
	c3.2,0.4,7,0.8,11.3,1.1c4.3,0.3,9.1,0.4,14.1,0.4c4.9-0.1,10-0.3,14.7-0.7c4.7-0.4,9.1-1,13.4-1.8c4.3-0.8,8.6-1.7,12.4-2.5
	c3.8-0.8,7-1.6,9.7-2.3c2.4-0.6,4.4-1,6.3-1.5l0,0c0,0,0,0,0.1,0C263.4,16.8,262.5,18.2,261.7,19.3z"/>
</svg>
