<?xml version="1.0" encoding="UTF-8"?>
<!DOCTYPE svg PUBLIC "-//W3C//DTD SVG 1.1//EN" "http://www.w3.org/Graphics/SVG/1.1/DTD/svg11.dtd">
<!-- Creator: CorelDRAW 2018 (64 Bit Versão de avaliação) -->
<svg xmlns="http://www.w3.org/2000/svg" xml:space="preserve" width="258px" height="305px" version="1.1" shape-rendering="geometricPrecision" text-rendering="geometricPrecision" image-rendering="optimizeQuality" fill-rule="evenodd" clip-rule="evenodd" viewBox="0 0 250902 296734" xmlns:xlink="http://www.w3.org/1999/xlink">
	<path class="gola" d="M106164 31458c-837,-997 -1405,-1865 -2115,-3047 -712,-1182 -1568,-2679 -2225,-4259 -658,-1581 -1120,-3245 -1409,-4526 -288,-1282 -406,-2180 -465,-2629 -58,-450 -58,-450 -58,-450 0,0 0,0 713,-4 714,-3 2139,-11 5028,-88 2890,-76 7241,-221 11363,-332 4123,-112 8014,-189 11706,-240 3692,-51 7185,-75 9989,-19 2806,54 4924,187 6785,246 1862,58 3467,42 4344,33 878,-10 1025,-14 1101,-16 73,-2 73,-2 72,581 -2,581 -6,1746 -145,3082 -138,1336 -413,2844 -900,4426 -489,1583 -1192,3239 -1919,4681 -726,1441 -1477,2668 -2066,3465 -591,797 -1020,1164 -1462,1575 -441,410 -894,863 -1324,1317 -430,452 -836,906 -1125,1160 -290,253 -461,309 -829,629 -366,321 -929,906 -1421,1274 -492,366 -914,515 -1262,804 -348,289 -621,719 -1246,1219 -626,501 -1602,1070 -2720,1860 -1117,789 -2375,1798 -3314,2555 -941,758 -1562,1266 -2129,1735 -566,469 -1077,899 -1369,1150 -291,253 -361,326 -488,256 -127,-70 -311,-284 -667,-714 -355,-430 -882,-1075 -1684,-2005 -800,-930 -1875,-2145 -2629,-2973 -754,-829 -1188,-1270 -1664,-1592 -477,-322 -997,-525 -1493,-748 -496,-223 -969,-466 -1633,-706 -664,-240 -1519,-478 -2208,-805 -687,-326 -1207,-740 -1822,-1160 -615,-420 -1326,-846 -2051,-1260 -724,-414 -1463,-816 -2388,-1582 -924,-766 -2033,-1895 -2871,-2893l0 0zm-16396 -14662c-280,331 -561,662 -970,1927 -410,1263 -949,3459 -1262,5346 -312,1886 -398,3465 -438,6199 -39,2735 -31,6627 133,9694 164,3067 485,5309 688,6602 203,1293 289,1638 449,1841 161,203 394,265 977,-4 582,-271 1513,-872 2805,-1610 1293,-739 2950,-1614 4822,-2446 1871,-832 3957,-1621 5837,-2293 1879,-672 3551,-1226 5028,-1680 1476,-454 2758,-804 3586,-985 828,-179 1204,-187 1469,-54 266,133 422,406 873,1467 452,1061 1198,2908 1661,4313 463,1405 642,2366 959,3568 316,1204 770,2649 1122,3610 351,962 601,1439 809,1759 207,321 371,484 519,781 149,296 282,727 282,1801 0,1074 -133,2794 -99,4938 36,2145 239,4716 374,6288 135,1573 201,2147 420,2435 219,286 589,286 2486,286 1897,0 5320,0 7069,6 1747,6 1821,18 1900,-46 78,-65 160,-205 171,-2353 11,-2148 -49,-6303 -92,-9350 -42,-3046 -66,-4983 -77,-6589 -12,-1606 -12,-2880 -12,-3520 0,-641 0,-649 8,-828 7,-180 23,-532 112,-786 91,-254 255,-410 862,-666 608,-256 1660,-612 2718,-877 1058,-266 2124,-442 3195,-573 1071,-130 2145,-217 2819,-265 674,-50 948,-62 1095,-74 150,-11 173,-22 269,-505 96,-482 263,-1436 362,-1856 100,-419 131,-306 627,-154 497,152 1458,343 2796,627 1338,284 3054,658 5324,1189 2269,532 5094,1220 7729,1925 2636,705 5081,1427 6582,1879 1500,451 2055,631 2356,707 300,77 348,49 372,17 26,-30 30,-66 -20,-1429 -52,-1364 -157,-4056 -374,-6484 -217,-2428 -545,-4592 -928,-6831 -383,-2239 -820,-4551 -1188,-6361 -366,-1809 -664,-3114 -1050,-4641 -387,-1528 -864,-3278 -1390,-4390 -527,-1111 -1103,-1584 -1503,-1913 -400,-329 -624,-513 -848,-698 -258,-177 -564,-410 -859,-693 -377,-364 -736,-812 -1091,-1304 -355,-494 -705,-1031 -1059,-1630 -355,-600 -714,-1261 -1277,-2140 -563,-877 -1329,-1971 -1962,-2852 -632,-883 -1131,-1551 -1863,-2301 -733,-749 -1700,-1579 -2539,-2120 -841,-539 -1553,-788 -2737,-1017 -1185,-230 -2840,-440 -5497,-726 -2657,-286 -6314,-646 -9625,-820 -3311,-174 -6275,-159 -8796,-83 -2520,75 -4595,212 -6749,378 -2153,166 -4385,361 -6432,609 -2047,248 -3907,548 -5561,843 -1654,294 -3102,582 -4028,811 -925,230 -1328,402 -1803,693 -474,293 -1022,707 -1661,1321 -640,615 -1373,1431 -1954,2254 -581,822 -1011,1652 -1665,2980 -652,1328 -1530,3154 -2159,4295 -630,1143 -1014,1601 -1303,1908 -290,307 -485,461 -674,579 -40,25 -80,47 -119,69l-1 2z"/>
</svg>
