<?xml version="1.0" encoding="UTF-8"?>
<!DOCTYPE svg PUBLIC "-//W3C//DTD SVG 1.1//EN" "http://www.w3.org/Graphics/SVG/1.1/DTD/svg11.dtd">
<!-- Creator: CorelDRAW 2018 (64 Bit Versão de avaliação) -->
<svg xmlns="http://www.w3.org/2000/svg" xml:space="preserve" width="258px" height="296px" version="1.1" shape-rendering="geometricPrecision" text-rendering="geometricPrecision" image-rendering="optimizeQuality" fill-rule="evenodd" clip-rule="evenodd" viewBox="0 0 250902 288186" xmlns:xlink="http://www.w3.org/1999/xlink">
	<path class="gola_3" d="M128242 40917c-564,265 -868,781 -970,1293 -102,513 0,1021 207,1489 207,470 519,900 985,1216 465,317 1083,520 1587,574 504,56 895,-38 1318,-324 421,-285 874,-761 1051,-1360 175,-598 74,-1317 -137,-1825 -211,-509 -532,-805 -856,-997 -325,-191 -653,-277 -1227,-313 -575,-35 -1396,-20 -1959,247l1 0zm2017 15137c-163,-61 -349,-117 -567,-150 -217,-34 -467,-44 -758,19 -292,60 -624,194 -940,418 -317,224 -618,538 -837,827 -219,289 -355,553 -394,974 -38,422 23,1000 159,1409 135,408 346,646 595,879 248,233 533,459 850,579 316,119 665,131 1013,117 351,-14 703,-53 976,-153 274,-100 469,-259 683,-460 213,-199 443,-436 597,-747 155,-312 233,-694 217,-1164 -16,-468 -125,-1023 -332,-1432 -207,-408 -512,-670 -735,-832 -223,-163 -363,-225 -527,-284z"/>
</svg>
