<?xml version="1.0" encoding="UTF-8"?>
<!DOCTYPE svg PUBLIC "-//W3C//DTD SVG 1.1//EN" "http://www.w3.org/Graphics/SVG/1.1/DTD/svg11.dtd">
<!-- Creator: CorelDRAW 2018 (64 Bit Versão de avaliação) -->
<svg xmlns="http://www.w3.org/2000/svg" xml:space="preserve" width="240px" height="306px" version="1.1" shape-rendering="geometricPrecision" text-rendering="geometricPrecision" image-rendering="optimizeQuality" fill-rule="evenodd" clip-rule="evenodd"
viewBox="0 0 236408 300866"
 xmlns:xlink="http://www.w3.org/1999/xlink">
 <g id="Camada_x0020_1">
  <metadata id="CorelCorpID_0Corel-Layer"/>
  <path id="camisa_contorno" fill="none" d="M134748 300551c2425,-96 4558,-221 6913,-350 2354,-129 4930,-261 8137,-485 3207,-225 7045,-542 10314,-839 3270,-297 5971,-575 8663,-935 2691,-360 5373,-802 7540,-1232 2166,-429 3817,-845 5911,-1311 2094,-465 4630,-981 6496,-1301 1866,-320 3062,-446 4204,-528 1143,-83 2233,-122 3108,-115 875,7 1536,62 1926,92 391,31 511,38 602,43 49,2 89,4 125,6 92,-69 160,-178 175,-767 16,-664 -36,-1937 -104,-2744 -68,-808 -153,-1150 -281,-1828 -129,-679 -303,-1695 -642,-2646 -339,-951 -845,-1838 -1454,-2999 -609,-1162 -1323,-2598 -1756,-3562 -433,-963 -587,-1454 -835,-2653 -247,-1199 -589,-3106 -939,-5783 -349,-2678 -705,-6126 -1022,-8751 -317,-2626 -595,-4429 -1065,-7446 -471,-3017 -1135,-7247 -1685,-11349 -549,-4102 -985,-8075 -1327,-12043 -342,-3968 -590,-7931 -748,-11463 -159,-3532 -228,-6633 -283,-9640 -54,-3007 -94,-5920 -153,-9120 -60,-3200 -139,-6687 -107,-11857 33,-5169 176,-12020 347,-17204 171,-5184 369,-8702 642,-12615 272,-3914 619,-8223 961,-12087 342,-3864 678,-7282 1104,-11567 426,-4286 942,-9437 1462,-13782 520,-4344 1045,-7881 1489,-10460 443,-2578 804,-4198 1122,-5229 317,-1030 589,-1471 791,-1738 202,-268 333,-362 399,-409 65,-47 65,-47 48,589 -17,637 -52,1910 -107,3481 -54,1570 -128,3437 -169,4893 -41,1455 -48,2498 -78,3138 -30,640 -82,878 -100,996 -19,117 -4,115 -41,148 -37,34 -127,103 -132,670 -5,567 75,1633 190,3006 115,1373 266,3055 317,4714 51,1658 1,3293 2,4167 0,874 51,988 130,1063 78,74 185,109 986,58 802,-50 2298,-185 4044,-319 1746,-134 3743,-268 5865,-424 2123,-156 4372,-335 6490,-456 2118,-121 4104,-186 5902,-295 1798,-109 3408,-262 5256,-463 1848,-201 3934,-448 5925,-671 1991,-223 3889,-421 5033,-558 1144,-136 1536,-210 1731,-321 196,-112 196,-261 226,-892 29,-632 89,-1746 106,-3086 18,-1340 -7,-2906 -22,-4362 -15,-1457 -20,-2804 -37,-3669 -18,-864 -47,-1245 -71,-1447 -24,-202 -42,-223 -81,-290 -40,-66 -101,-178 -172,-671 -70,-493 -149,-1367 -251,-2286 -101,-919 -225,-1882 -343,-2697 -117,-815 -229,-1482 -406,-2507 -177,-1025 -420,-2410 -604,-3397 -185,-987 -311,-1577 -430,-2236 -119,-658 -231,-1387 -361,-2089 -130,-702 -278,-1378 -418,-2124 -140,-745 -271,-1560 -369,-2287 -98,-727 -162,-1366 -236,-1999 -73,-633 -154,-1260 -253,-2005 -100,-746 -216,-1610 -335,-2488 -119,-878 -240,-1770 -348,-2527 -108,-756 -202,-1378 -367,-2309 -165,-931 -402,-2170 -808,-4024 -405,-1853 -980,-4320 -1678,-6787 -699,-2467 -1521,-4934 -2611,-7629 -1090,-2695 -2447,-5618 -4032,-8719 -1586,-3101 -3399,-6380 -4806,-8649 -1407,-2269 -2407,-3527 -3400,-4560 -994,-1033 -1980,-1841 -2970,-2569 -991,-728 -1987,-1377 -2544,-1746 -557,-369 -676,-458 -744,-562 -69,-104 -86,-223 -95,-299 -8,-75 -8,-108 -68,-172 -59,-64 -178,-161 -1288,-703 -1109,-543 -3210,-1531 -5230,-2564 -2020,-1033 -3959,-2110 -5684,-2931 -1725,-821 -3236,-1386 -4985,-1929 -1749,-542 -3735,-1062 -5348,-1483 -1612,-421 -2851,-743 -3705,-993 -855,-251 -1325,-429 -2014,-690 -688,-262 -1595,-606 -2567,-896 -972,-290 -2010,-525 -2675,-676 -665,-151 -958,-218 -1418,-464 -461,-247 -1090,-673 -1558,-923 -468,-250 -775,-324 -1057,-359 -281,-35 -536,-30 -765,-30 -229,0 -432,-5 -1323,-325 -890,-321 -2468,-958 -3965,-1553 -1498,-596 -2914,-1151 -4339,-1722 -1387,-556 -2782,-1128 -3688,-1515 -122,-65 -296,-161 -548,-324 -295,-191 -698,-474 -1081,-843 -383,-369 -747,-823 -1107,-1323 -360,-500 -715,-1045 -1075,-1653 -360,-608 -724,-1279 -1295,-2170 -571,-890 -1348,-2000 -1990,-2894 -641,-895 -1147,-1573 -1890,-2334 -743,-760 -1724,-1602 -2576,-2150 -852,-547 -1575,-800 -2776,-1032 -1202,-233 -2881,-446 -5576,-736 -2695,-290 -6405,-656 -9764,-832 -3358,-176 -6365,-161 -8922,-84 -2556,76 -4661,215 -6846,383 -2184,169 -4448,367 -6524,618 -2076,252 -3963,556 -5641,855 -1678,298 -3147,591 -4086,823 -938,233 -1347,407 -1829,703 -481,297 -1036,717 -1685,1340 -649,624 -1392,1451 -1982,2286 -589,834 -1025,1676 -1688,3023 -662,1347 -1552,3199 -2191,4357 -639,1159 -1028,1624 -1321,1935 -294,312 -492,468 -684,588 -193,119 -380,201 -568,283 -715,299 -1526,594 -2120,828 -636,251 -1025,431 -1491,620 -467,188 -1012,383 -1739,611 -727,228 -1636,488 -2519,824 -883,336 -1740,747 -2535,1059 -796,312 -1529,525 -2264,738 -736,213 -1474,426 -2023,645 -548,219 -908,445 -1189,627 -281,182 -484,321 -984,469 -501,148 -1298,305 -1885,456 -587,151 -964,296 -1466,485 -502,189 -1130,422 -1724,607 -594,186 -1154,325 -1662,452 -508,128 -965,244 -1674,420 -708,176 -1668,411 -2513,624 -844,212 -1574,402 -2139,561 -564,159 -964,288 -1414,420 -449,131 -949,266 -1406,393 -458,127 -874,246 -1292,372 -418,126 -838,258 -1185,393 -348,135 -622,273 -997,430 -375,157 -849,334 -1260,522 -410,189 -757,388 -1148,594 -390,205 -825,417 -1202,608 -376,190 -694,360 -1109,579 -415,220 -927,488 -1633,853 -705,365 -1606,826 -2653,1349 -1047,524 -2241,1111 -3133,1552 -891,441 -1481,736 -2006,1071 -525,336 -986,713 -1422,1064 -436,352 -847,679 -1332,1063 -486,384 -1046,825 -1753,1453 -707,628 -1561,1442 -2339,2296 -778,853 -1479,1745 -2113,2625 -634,881 -1201,1750 -1895,2891 -693,1140 -1513,2552 -2175,3764 -661,1211 -1164,2221 -1706,3215 -543,993 -1125,1969 -1620,2898 -496,928 -904,1810 -1293,2718 -389,908 -758,1842 -1135,2715 -376,873 -760,1685 -1265,2997 -506,1311 -1132,3122 -1691,4837 -558,1715 -1049,3335 -1467,4765 -419,1429 -766,2667 -1112,4161 -347,1493 -694,3242 -1127,5583 -434,2340 -954,5273 -1271,6967 -317,1694 -431,2150 -535,2633 -104,483 -198,994 -394,1806 -195,812 -493,1927 -795,3096 -302,1169 -609,2393 -827,3426 -218,1033 -347,1875 -567,3118 -221,1244 -533,2888 -775,4233 -243,1345 -417,2390 -521,2930 -104,540 -138,575 -201,624 -62,50 -153,114 -248,2213 -94,2099 -193,6231 -270,8493 -77,2262 -131,2654 35,2859 165,206 552,226 1397,332 844,107 2147,300 4443,743 2296,444 5586,1137 8214,1642 2628,506 4594,823 6650,1165 2056,341 4201,708 7131,1174 2930,465 6646,1030 9014,1352 2368,322 3388,401 3898,441 511,40 511,40 560,-535 49,-575 146,-1724 259,-2718 112,-994 238,-1832 388,-2893 150,-1061 323,-2344 490,-3523 167,-1179 329,-2254 411,-2858 83,-604 88,-738 75,-852 -14,-114 -46,-208 -22,-1791 23,-1583 102,-4654 144,-7148 42,-2494 47,-4412 59,-5517 11,-1106 28,-1401 65,-1594 37,-194 94,-285 174,-334 79,-48 180,-53 303,39 123,91 266,280 339,370 73,91 76,83 77,79 1,-3 1,-3 114,249 113,253 338,758 588,1442 251,684 525,1546 751,2469 225,924 401,1910 598,3494 197,1584 415,3766 727,6135 312,2370 718,4926 1447,11222 728,6296 1778,16333 2600,24145 823,7812 1417,13400 1784,19404 366,6004 505,12424 495,19360 -10,6935 -168,14385 -366,20300 -199,5915 -436,10294 -714,14208 -277,3913 -594,7361 -1427,13950 -832,6588 -2179,16317 -2962,23421 -783,7104 -1001,11582 -1199,15040 -198,3458 -376,5895 -664,8000 -287,2106 -683,3879 -958,5236 -275,1358 -429,2299 -446,2891 -17,592 102,835 245,961 144,126 312,136 493,172 181,36 374,98 462,152 18,12 32,23 42,37 863,318 1726,635 3107,911 1381,276 3280,511 6395,744 3116,232 7449,464 10934,599 3484,135 6119,175 9448,178 3329,4 7352,-29 11160,-6 3808,23 7401,102 10433,188 3031,86 5502,178 7797,248 2295,69 4415,115 6688,168 2272,53 4696,112 7245,119 2550,7 5225,-40 7920,-96 2695,-56 5409,-122 7833,-218z"/>
  <path id="gola_fundo" fill="black" d="M97221 28818c721,1199 1296,2079 2146,3091 850,1013 1975,2158 2912,2935 938,777 1687,1185 2422,1605 735,420 1456,852 2080,1278 625,426 1152,846 1849,1177 698,331 1566,573 2239,816 674,244 1154,490 1657,716 503,226 1030,432 1514,759 483,327 923,774 1688,1615 765,840 1855,2072 2667,3016 813,943 1348,1597 1708,2033 361,436 547,653 676,725 129,71 200,-4 495,-260 296,-255 815,-691 1389,-1167 575,-475 1205,-991 2159,-1759 953,-769 2229,-1792 3362,-2592 1134,-801 2124,-1379 2759,-1887 634,-507 911,-943 1264,-1236 353,-293 781,-444 1280,-816 499,-373 1070,-967 1442,-1292 373,-325 547,-381 841,-638 293,-258 705,-718 1141,-1177 436,-460 896,-920 1343,-1336 448,-416 884,-789 1483,-1597 598,-809 1359,-2053 2096,-3515 737,-1463 1450,-3143 1946,-4748 495,-1605 773,-3135 913,-4490 141,-1356 145,-2537 147,-3127 2,-591 2,-591 -73,-589 -76,2 -226,6 -1116,16 -890,10 -2518,26 -4407,-33 -1888,-60 -4036,-195 -6882,-250 -2845,-56 -6388,-32 -10133,20 -3745,51 -7692,130 -11874,243 -4181,113 -8595,260 -11526,337 -2931,78 -4377,86 -5101,89 -723,4 -723,4 -723,4 0,0 0,0 59,456 60,456 179,1367 472,2667 293,1300 761,2988 1429,4591 667,1603 1535,3121 2257,4320z"/>
  <path id="gola" fill="black" d="M99367 31909c-850,-1012 -1425,-1892 -2146,-3091 -722,-1199 -1590,-2717 -2257,-4320 -668,-1603 -1136,-3291 -1429,-4591 -293,-1300 -412,-2211 -472,-2667 -59,-456 -59,-456 -59,-456 0,0 0,0 723,-4 724,-3 2170,-11 5101,-89 2931,-77 7345,-224 11526,-337 4182,-113 8129,-192 11874,-243 3745,-52 7288,-76 10133,-20 2846,55 4994,190 6882,250 1889,59 3517,43 4407,33 890,-10 1040,-14 1116,-16 75,-2 75,-2 73,589 -2,590 -6,1771 -147,3127 -140,1355 -418,2885 -913,4490 -496,1605 -1209,3285 -1946,4748 -737,1462 -1498,2706 -2096,3515 -599,808 -1035,1181 -1483,1597 -447,416 -907,876 -1343,1336 -436,459 -848,919 -1141,1177 -294,257 -468,313 -841,638 -372,325 -943,919 -1442,1292 -499,372 -927,523 -1280,816 -353,293 -630,729 -1264,1236 -635,508 -1625,1086 -2759,1887 -1133,800 -2409,1823 -3362,2592 -954,768 -1584,1284 -2159,1759 -574,476 -1093,912 -1389,1167 -295,256 -366,331 -495,260 -129,-72 -315,-289 -676,-725 -360,-436 -895,-1090 -1708,-2033 -812,-944 -1902,-2176 -2667,-3016 -765,-841 -1205,-1288 -1688,-1615 -484,-327 -1011,-533 -1514,-759 -503,-226 -983,-472 -1657,-716 -673,-243 -1541,-485 -2239,-816 -697,-331 -1224,-751 -1849,-1177 -624,-426 -1345,-858 -2080,-1278 -735,-420 -1484,-828 -2422,-1605 -937,-777 -2062,-1922 -2912,-2935zm-16632 -14873c-284,336 -569,672 -984,1954 -416,1282 -963,3509 -1280,5423 -317,1914 -404,3515 -444,6289 -40,2774 -32,6722 135,9833 166,3111 491,5385 697,6697 206,1312 294,1661 456,1867 163,206 400,269 991,-4 590,-274 1534,-884 2845,-1633 1312,-749 2992,-1637 4891,-2481 1898,-844 4014,-1644 5921,-2326 1906,-682 3602,-1244 5100,-1704 1498,-460 2798,-816 3638,-999 840,-182 1221,-190 1490,-55 270,135 428,412 886,1488 458,1076 1215,2950 1684,4375 470,1425 652,2400 973,3620 321,1221 781,2687 1138,3662 356,975 610,1459 820,1784 210,325 377,491 527,792 151,301 286,737 286,1827 0,1090 -135,2834 -100,5009 36,2176 242,4784 379,6379 137,1595 204,2178 426,2469 222,291 598,291 2522,291 1924,0 5396,0 7170,6 1773,6 1848,18 1928,-47 79,-66 162,-208 173,-2387 11,-2179 -50,-6393 -93,-9484 -43,-3090 -67,-5055 -78,-6684 -12,-1629 -12,-2921 -12,-3571 0,-650 0,-658 8,-840 7,-182 23,-539 114,-797 92,-257 258,-416 874,-675 617,-260 1683,-621 2757,-890 1073,-270 2155,-448 3241,-581 1086,-132 2176,-220 2860,-269 683,-50 961,-62 1111,-74 151,-11 175,-23 272,-513 97,-489 267,-1456 368,-1882 101,-426 133,-311 636,-157 504,155 1479,349 2836,636 1357,288 3097,668 5400,1207 2302,539 5167,1237 7840,1952 2674,715 5154,1448 6676,1906 1522,458 2085,640 2390,717 305,78 353,50 378,18 26,-31 30,-67 -21,-1450 -52,-1383 -159,-4114 -379,-6577 -220,-2463 -553,-4658 -941,-6929 -389,-2271 -832,-4617 -1205,-6452 -372,-1835 -674,-3159 -1066,-4708 -392,-1550 -876,-3325 -1410,-4453 -534,-1127 -1118,-1607 -1524,-1940 -406,-334 -633,-521 -860,-709 -262,-180 -572,-416 -871,-703 -383,-369 -747,-823 -1107,-1323 -360,-500 -715,-1045 -1075,-1653 -360,-608 -724,-1279 -1295,-2170 -571,-890 -1348,-2000 -1990,-2894 -641,-895 -1147,-1573 -1890,-2334 -743,-760 -1724,-1602 -2576,-2150 -852,-547 -1575,-800 -2776,-1032 -1202,-233 -2881,-446 -5576,-736 -2695,-290 -6405,-656 -9764,-832 -3358,-176 -6365,-161 -8922,-84 -2556,76 -4661,215 -6846,383 -2184,169 -4448,367 -6524,618 -2076,252 -3963,556 -5641,855 -1678,298 -3147,591 -4086,823 -938,233 -1347,407 -1829,703 -481,297 -1036,717 -1685,1340 -649,624 -1392,1451 -1982,2286 -589,834 -1025,1676 -1688,3023 -662,1347 -1552,3199 -2191,4357 -639,1159 -1028,1624 -1321,1935 -294,312 -492,468 -684,588 -41,25 -81,48 -121,70z"/>
 </g>
</svg>
