<?xml version="1.0" encoding="UTF-8"?>
<!DOCTYPE svg PUBLIC "-//W3C//DTD SVG 1.1//EN" "http://www.w3.org/Graphics/SVG/1.1/DTD/svg11.dtd">
<!-- Creator: CorelDRAW 2018 (64 Bit Versão de avaliação) -->
<svg xmlns="http://www.w3.org/2000/svg" xml:space="preserve" width="232px" height="294px" version="1.1" shape-rendering="geometricPrecision" text-rendering="geometricPrecision" image-rendering="optimizeQuality" fill-rule="evenodd" clip-rule="evenodd" viewBox="0 0 224820 284513" xmlns:xlink="http://www.w3.org/1999/xlink">
	<path class="gola" d="M79155 9471c-311,-580 -489,-1062 -606,-1528 -242,-969 -218,-1866 -205,-2314 12,-448 12,-448 12,-448 0,0 0,0 1502,351 1502,351 4506,1054 9327,1720 4821,666 11458,1296 16001,1623 4542,327 6989,352 9981,255 2992,-97 6529,-315 10132,-709 3604,-394 7274,-963 10739,-1532 3464,-570 6722,-1139 8352,-1423 1629,-285 1629,-285 1604,163 -24,448 -73,1345 -376,2290 -175,548 -437,1112 -852,1804 792,478 1576,951 2321,1401 1701,1026 3194,1927 4101,2474 1406,848 1406,848 1406,848 0,0 0,0 85,-181 84,-182 254,-546 520,-1515 267,-969 630,-2543 788,-4360 61,-712 91,-1461 102,-2232l-8948 -4231c-4735,-3398 -1700,-1699 -16753,485l-19788 1091c-3400,0 -16146,-606 -19666,-1334 -2305,-362 -5099,-1455 -7282,-1455 -971,0 -3035,1820 -4006,2427l-7109 3129c23,494 64,990 126,1490 230,1829 763,3694 1079,4723 314,1030 411,1224 460,1321 48,97 48,97 48,97 0,0 0,0 666,-412 666,-412 1999,-1236 3259,-2047 266,-172 530,-343 791,-514 745,-488 1470,-973 2189,-1457z"/>
</svg>
