<?xml version="1.0" encoding="UTF-8"?>
<!DOCTYPE svg PUBLIC "-//W3C//DTD SVG 1.1//EN" "http://www.w3.org/Graphics/SVG/1.1/DTD/svg11.dtd">
<!-- Creator: CorelDRAW 2018 (64 Bit Versão de avaliação) -->
<svg xmlns="http://www.w3.org/2000/svg" xml:space="preserve" width="258px" height="296px" version="1.1" shape-rendering="geometricPrecision" text-rendering="geometricPrecision" image-rendering="optimizeQuality" fill-rule="evenodd" clip-rule="evenodd" viewBox="0 0 250902 288186" xmlns:xlink="http://www.w3.org/1999/xlink">
	<path class="gola" d="M95403 10465c-1,-4 -2,-7 -1,-9 -36,-477 -71,-954 -88,-1231 -18,-280 -18,-358 -18,-397 0,-39 0,-39 866,-130 865,-92 2597,-276 3863,-465 1266,-190 2067,-385 3226,-494 1159,-110 2676,-134 4310,-223 1633,-90 3385,-247 5069,-317 1685,-70 3302,-54 5260,-50 1959,4 4257,-4 6711,4 2454,7 5066,31 7724,58 2657,28 5362,58 7468,145 2106,86 3616,226 5679,321 2064,93 4682,140 6589,199 1908,58 3104,128 3702,163 597,36 597,36 597,297 0,263 0,786 -21,1145 -23,359 -68,554 -114,749 8,191 24,575 24,836 0,263 -16,403 -75,520 -57,113 -152,204 -417,540 489,625 976,1251 1464,1877 95,-10 220,76 490,260 505,343 1513,1032 2260,1497 746,465 1231,707 1473,828 243,122 243,122 414,-481 172,-601 516,-1806 703,-3064 189,-1258 220,-2571 95,-3447 -125,-876 -407,-1313 -848,-1782 -179,-190 -385,-385 -606,-584 -452,-206 -701,-339 -908,-475 -290,-189 -500,-381 -685,-483 -186,-102 -346,-113 -453,-114 -107,0 -160,10 -244,-4 -85,-13 -199,-50 -571,-283 -371,-234 -999,-664 -1630,-1159 -631,-496 -1266,-1058 -1901,-1613 -634,-556 -1266,-1106 -2244,-1525 -979,-419 -2303,-707 -3617,-892 -1314,-186 -2618,-270 -4445,-344 -1828,-76 -4178,-145 -7705,-127 -3528,16 -8233,119 -12545,213 -4313,92 -8234,177 -10296,223 -2062,48 -2265,57 -4033,198 -1768,141 -5100,415 -7193,652 -2094,237 -2949,437 -3645,687 -696,249 -1233,547 -1832,1048 -599,500 -1258,1204 -1961,1823 -703,618 -1451,1154 -1897,1417 -446,265 -591,258 -876,357 -286,98 -714,303 -1232,565 -517,261 -1126,578 -1865,895 -317,136 -658,271 -994,401 -32,510 -47,1048 -20,1653 47,1043 219,2286 441,3291 223,1004 497,1770 684,2255 188,485 290,688 340,789 52,102 52,102 52,102 0,0 0,0 414,-223 414,-222 1242,-668 2052,-1137 809,-469 1598,-961 1993,-1208 395,-246 395,-246 395,-246 437,-490 874,-981 1312,-1471 -79,-95 -147,-177 -207,-247 -218,-257 -333,-374 -386,-461 -55,-86 -47,-140 -50,-341 -2,-202 -16,-549 -26,-739 -11,-192 -19,-224 -23,-241l2 -1z"/>
</svg>
