<?xml version="1.0" encoding="UTF-8"?>
<!DOCTYPE svg PUBLIC "-//W3C//DTD SVG 1.1//EN" "http://www.w3.org/Graphics/SVG/1.1/DTD/svg11.dtd">
<!-- Creator: CorelDRAW 2018 (64 Bit Versão de avaliação) -->
<svg xmlns="http://www.w3.org/2000/svg" xml:space="preserve" width="232px" height="294px" version="1.1" shape-rendering="geometricPrecision" text-rendering="geometricPrecision" image-rendering="optimizeQuality" fill-rule="evenodd" clip-rule="evenodd" viewBox="0 0 224820 284513" xmlns:xlink="http://www.w3.org/1999/xlink">
	<path class="gola" d="M100618 19259c-3742,-745 -8018,-1968 -11095,-3349 -3077,-1381 -4954,-2919 -6159,-4276 -1205,-1357 -1739,-2532 -2005,-3119l-266 -588 866 382c866,381 2598,1145 6201,1817 3604,672 9079,1254 15378,1338 6298,85 13421,-327 19174,-817 5754,-491 10139,-1060 13282,-1605 3074,-533 4961,-1044 5932,-1309 -928,1126 -1951,2246 -3225,3350 -2035,1762 -4712,3482 -7498,4924 -2786,1441 -5681,2604 -9103,3313 -3422,708 -7370,963 -10950,957 -3579,-7 -6789,-273 -10532,-1018zm-26290 -14658c305,2707 624,5391 1368,7360 770,2035 1993,3307 3598,4791 1605,1483 3591,3179 6910,4760 3319,1581 7970,3046 11998,3967 4027,920 7431,1296 11295,1229 3864,-66 8188,-575 12567,-1380 4379,-806 8812,-1908 12555,-3459 3743,-1550 6795,-3549 9339,-5687 2544,-2137 4579,-4415 5596,-6619 796,-1724 969,-3404 1007,-5073l-5420 -2563c-4735,-3398 -1700,-1699 -16753,485l-19788 1091c-3400,0 -16146,-606 -19666,-1334 -2305,-362 -5099,-1455 -7282,-1455 -971,0 -3035,1820 -4006,2427l-3318 1460z"/>
</svg>
