<?xml version="1.0" encoding="UTF-8"?>
<!DOCTYPE svg PUBLIC "-//W3C//DTD SVG 1.1//EN" "http://www.w3.org/Graphics/SVG/1.1/DTD/svg11.dtd">
<!-- Creator: CorelDRAW 2018 (64 Bit Versão de avaliação) -->
<svg xmlns="http://www.w3.org/2000/svg" xml:space="preserve" width="240px" height="296px" version="1.1" shape-rendering="geometricPrecision" text-rendering="geometricPrecision" image-rendering="optimizeQuality" fill-rule="evenodd" clip-rule="evenodd" viewBox="0 0 236408 291873" xmlns:xlink="http://www.w3.org/1999/xlink">
	<path class="gola_fundo" d="M90826 9539c237,638 713,1914 1403,3412 689,1498 1593,3218 2900,4997 1308,1780 3020,3618 4720,5168 1701,1550 3389,2810 4946,3824 1558,1015 2985,1784 4875,2580 1890,797 4244,1621 5857,2085 1613,464 2485,567 3476,523 991,-44 2100,-234 3602,-697 1502,-464 3397,-1201 5148,-1926 1752,-726 3361,-1439 4546,-2141 1185,-701 1946,-1391 2830,-2029 883,-638 1890,-1224 2667,-1819 776,-594 1323,-1197 2072,-1946 749,-749 1701,-1644 2557,-2655 856,-1010 1617,-2136 2175,-2944 559,-809 916,-1300 1471,-2228 554,-927 1307,-2290 1783,-3245 475,-955 674,-1502 773,-1776 99,-273 99,-273 99,-273 0,0 0,0 -1193,91 -1193,91 -3579,273 -6606,404 -3028,131 -6698,210 -10717,270 -4018,59 -8385,99 -12673,162 -4288,63 -8497,151 -12264,157 -3767,6 -7092,-70 -8990,-137 -1899,-67 -2370,-127 -2935,-184 -565,-58 -1223,-113 -1698,-165 -476,-51 -769,-99 -916,-123 -146,-23 -146,-23 -146,-23 0,0 0,0 238,638z"/>
	<path class="gola" d="M92229 12951c-690,-1498 -1166,-2774 -1403,-3412 -238,-638 -238,-638 -238,-638 0,0 0,0 146,23 147,24 440,72 916,123 475,52 1133,107 1698,165 565,57 1036,117 2935,184 1898,67 5223,143 8990,137 3767,-6 7976,-94 12264,-157 4288,-63 8655,-103 12673,-162 4019,-60 7689,-139 10717,-270 3027,-131 5413,-313 6606,-404 1193,-91 1193,-91 1193,-91 0,0 0,0 -99,273 -99,274 -298,821 -773,1776 -476,955 -1229,2318 -1783,3245 -555,928 -912,1419 -1471,2228 -558,808 -1319,1934 -2175,2944 -856,1011 -1808,1906 -2557,2655 -749,749 -1296,1352 -2072,1946 -777,595 -1784,1181 -2667,1819 -884,638 -1645,1328 -2830,2029 -1185,702 -2794,1415 -4546,2141 -1751,725 -3646,1462 -5148,1926 -1502,463 -2611,653 -3602,697 -991,44 -1863,-59 -3476,-523 -1613,-464 -3967,-1288 -5857,-2085 -1890,-796 -3317,-1565 -4875,-2580 -1557,-1014 -3245,-2274 -4946,-3824 -1700,-1550 -3412,-3388 -4720,-5168 -1307,-1779 -2211,-3499 -2900,-4997zm-7904 -5665c-454,627 -907,1253 -1059,2402 -152,1149 -1,2822 423,4574 424,1751 1122,3582 2108,5473 987,1890 2263,3840 3706,5722 1442,1883 3051,3698 4684,5223 1633,1526 3289,2763 5093,3940 1803,1177 3753,2294 6031,3404 2279,1110 4887,2211 7237,3222 2350,1011 4443,1930 5525,2382 1081,452 1153,436 1930,43 776,-392 2258,-1161 4165,-2013 1906,-852 4236,-1787 6055,-2552 1819,-765 3127,-1359 4522,-2176 1395,-816 2877,-1855 4288,-2905 1411,-1050 2750,-2112 4252,-3511 1502,-1399 3167,-3135 4562,-4787 1395,-1653 2520,-3222 3428,-4669 908,-1446 1597,-2770 2219,-4145 622,-1375 1177,-2802 1550,-4058 372,-1257 563,-2343 594,-3175 32,-832 -95,-1411 -305,-1850 -209,-440 -502,-741 -666,-956 -8,-10 -15,-19 -21,-28 -140,-74 -252,-140 -353,-207 -186,-121 -339,-243 -474,-343 -79,-58 -152,-109 -221,-147 -188,-103 -351,-114 -459,-115 -109,0 -162,10 -247,-4 -86,-13 -202,-51 -579,-287 -376,-237 -1013,-673 -1653,-1175 -640,-503 -1284,-1073 -1927,-1636 -643,-564 -1284,-1121 -2276,-1546 -992,-425 -2335,-717 -3667,-905 -1333,-188 -2655,-273 -4508,-349 -1853,-77 -4236,-147 -7812,-129 -3577,17 -8348,121 -12720,216 -4373,94 -8349,180 -10440,227 -2091,48 -2297,57 -4089,200 -1793,143 -5171,421 -7294,661 -2123,240 -2990,443 -3695,696 -706,253 -1251,555 -1858,1063 -607,507 -1276,1221 -1989,1849 -713,627 -1471,1170 -1923,1437 -452,268 -599,261 -888,361 -290,100 -724,308 -1249,573z"/>
</svg>
