<?xml version="1.0" encoding="UTF-8"?>
<!DOCTYPE svg PUBLIC "-//W3C//DTD SVG 1.1//EN" "http://www.w3.org/Graphics/SVG/1.1/DTD/svg11.dtd">
<!-- Creator: CorelDRAW 2018 (64 Bit Versão de avaliação) -->
<svg xmlns="http://www.w3.org/2000/svg" xml:space="preserve" width="238px" height="298px" version="1.1" shape-rendering="geometricPrecision" text-rendering="geometricPrecision" image-rendering="optimizeQuality" fill-rule="evenodd" clip-rule="evenodd" viewBox="0 0 238000 298123" xmlns:xlink="http://www.w3.org/1999/xlink">
	<path class="gola" d="M118655 13731c7972,-12 16031,-488 22350,-1138 6320,-651 10899,-1477 13915,-2278 1259,-334 2245,-664 3072,-991l-175 -72c-614,-280 -1553,-1207 -2512,-1889 -494,-369 -613,-563 -1038,-905 -2856,-2299 -5606,-5635 -9574,-5641 -901,-2 -1040,-123 -1779,-163l-7601 -170c-5892,-486 -12055,-501 -18060,-477 -5087,20 -9557,63 -14567,477 -2529,209 -4996,29 -7600,170 -739,40 -878,161 -1779,163 -3968,6 -6718,3342 -9575,5641 -424,342 -543,536 -1037,905 -741,527 -1471,1200 -2047,1608 1451,631 3000,1242 4877,1789 2684,782 6038,1432 11657,1983 5619,550 13502,1001 21473,988z"/>
</svg>
