<?xml version="1.0" encoding="UTF-8"?>
<!DOCTYPE svg PUBLIC "-//W3C//DTD SVG 1.1//EN" "http://www.w3.org/Graphics/SVG/1.1/DTD/svg11.dtd">
<!-- Creator: CorelDRAW 2018 (64 Bit Versão de avaliação) -->
<svg xmlns="http://www.w3.org/2000/svg" xml:space="preserve" width="232px" height="294px" version="1.1" shape-rendering="geometricPrecision" text-rendering="geometricPrecision" image-rendering="optimizeQuality" fill-rule="evenodd" clip-rule="evenodd" viewBox="0 0 224820 284513" xmlns:xlink="http://www.w3.org/1999/xlink">
	<path class="gola" d="M80384 6198c920,617 1839,1235 4109,1871 2271,636 5893,1291 10169,1708 4276,418 9206,600 13475,654 4270,55 7880,-18 11720,-320 3840,-303 7909,-837 11458,-1382 3549,-545 6578,-1102 8237,-1417 1659,-315 1950,-388 2096,-424 145,-36 145,-36 145,-36 0,0 0,0 -227,369 -227,369 -681,1107 -1135,1845 0,0 0,0 982,763 981,763 2943,2289 4627,3440 1683,1150 3089,1926 3791,2313 703,388 703,388 703,388 0,0 0,0 314,-436 315,-436 945,-1308 1442,-2217 497,-908 860,-1853 1247,-2931 388,-1078 800,-2289 1103,-3561 30,-130 60,-260 89,-390 -3,-2 -6,-3 -10,-4 -3,-2 -6,-3 -9,-5 -4,-1 -7,-2 -10,-4 -3,-1 -7,-2 -10,-4l-10 -4 -9 -4 -10 -4 -9 -4c-4,-2 -7,-3 -10,-5 -3,-1 -7,-2 -10,-4 -3,-1 -6,-3 -9,-4 -3,-1 -7,-3 -10,-4 -3,-1 -6,-3 -9,-4 -3,-2 -7,-3 -10,-4 -3,-1 -6,-3 -9,-4 -4,-2 -7,-3 -10,-4 -3,-2 -6,-3 -10,-4l-9 -4 -10 -5 -9 -4 -10 -4 -9 -4 -10 -4 -9 -4 -10 -4c-3,-2 -6,-3 -9,-4 -3,-2 -7,-3 -10,-5 -3,-1 -6,-2 -9,-4 -3,-1 -7,-2 -10,-4l-9 -4 -10 -4 -9 -4c-3,-1 -6,-3 -9,-4 -4,-1 -7,-3 -10,-4 -6,-3 -12,-5 -19,-8l-9 -4c-3,-2 -6,-3 -9,-4 -4,-2 -7,-3 -10,-4 -3,-2 -6,-3 -9,-4l-10 -4 -9 -5c-3,-1 -6,-2 -9,-4 -3,-1 -7,-2 -10,-3l-9 -5c-3,-1 -6,-2 -9,-4 -3,-1 -7,-2 -10,-4 -6,-2 -12,-5 -18,-8 -3,-1 -7,-3 -10,-4 -3,-1 -6,-2 -9,-4l-9 -4c-13,-5 -25,-11 -38,-16l-9 -4c-22,-9 -43,-19 -64,-28l-8984 -4247c-4735,-3398 -1700,-1699 -16753,485l-19788 1091c-3400,0 -16146,-606 -19666,-1334 -2305,-362 -5099,-1455 -7282,-1455 -971,0 -3035,1820 -4006,2427l-9487 4175c53,360 115,736 189,1132 327,1756 884,3912 1308,5112 424,1199 715,1441 2217,702 1502,-739 4215,-2459 5972,-3488 1756,-1030 2555,-1369 2955,-1539 206,-87 306,-130 486,-41 -211,-472 -422,-944 -572,-1444 -150,-499 -240,-1026 -330,-1552z"/>
</svg>
