<?xml version="1.0" encoding="UTF-8"?>
<!DOCTYPE svg PUBLIC "-//W3C//DTD SVG 1.1//EN" "http://www.w3.org/Graphics/SVG/1.1/DTD/svg11.dtd">
<!-- Creator: CorelDRAW -->
<svg xmlns="http://www.w3.org/2000/svg" xml:space="preserve" width="240px" height="296px" version="1.1" shape-rendering="geometricPrecision" text-rendering="geometricPrecision" image-rendering="optimizeQuality" fill-rule="evenodd" clip-rule="evenodd"
viewBox="0 0 236.408 291.873"
 xmlns:xlink="http://www.w3.org/1999/xlink"
 xmlns:xodm="http://www.corel.com/coreldraw/odm/2003">
    <path class="fundo_gola" d="M130.03 40.334c1.522,-1.345 3.234,-2.89 4.782,-4.396 1.548,-1.506 2.932,-2.974 4.088,-4.297 1.155,-1.323 2.082,-2.501 3.099,-3.955 1.017,-1.455 2.124,-3.187 3.08,-5.012 0.956,-1.824 1.761,-3.743 2.401,-5.532 0.641,-1.79 1.117,-3.45 1.436,-5.05 0.318,-1.6 0.479,-3.138 0.541,-4.139 0.061,-1.001 0.022,-1.464 0.003,-1.696 -0.02,-0.232 -0.02,-0.232 -0.02,-0.232 0,0 0,0 -0.997,-0.016 -0.998,-0.016 -2.994,-0.048 -4.957,-0.058 -1.963,-0.01 -3.894,0.003 -6.965,0.016 -3.07,0.013 -7.28,0.026 -11.467,0.071 -4.187,0.045 -8.352,0.122 -12.472,0.171 -4.12,0.048 -8.194,0.067 -11.686,0.077 -3.492,0.009 -6.402,0.009 -8.137,0.019 -1.734,0.01 -2.294,0.029 -2.574,0.039 -0.28,0.009 -0.28,0.009 -0.313,0.56 -0.032,0.55 -0.096,1.651 0,2.929 0.097,1.277 0.354,2.732 0.747,4.168 0.393,1.435 0.921,2.851 1.635,4.364 0.715,1.513 1.616,3.122 2.662,4.818 1.046,1.696 2.237,3.479 3.63,5.278 1.394,1.799 2.99,3.615 4.764,5.43 1.773,1.815 3.723,3.63 5.635,5.169 1.912,1.538 3.785,2.8 5.501,3.875 1.715,1.075 3.273,1.963 4.295,2.57 1.021,0.606 1.507,0.931 1.819,1.166 0.311,0.235 0.448,0.379 0.537,0.439 0.088,0.059 0.129,0.034 0.911,-0.503 0.783,-0.537 2.309,-1.586 3.738,-2.684 1.429,-1.098 2.761,-2.243 4.284,-3.589z"/>
</svg>