<?xml version="1.0" encoding="UTF-8"?>
<!DOCTYPE svg PUBLIC "-//W3C//DTD SVG 1.1//EN" "http://www.w3.org/Graphics/SVG/1.1/DTD/svg11.dtd">
<!-- Creator: CorelDRAW 2018 (64 Bit Versão de avaliação) -->
<svg xmlns="http://www.w3.org/2000/svg" xml:space="preserve" width="240px" height="296px" version="1.1" shape-rendering="geometricPrecision" text-rendering="geometricPrecision" image-rendering="optimizeQuality" fill-rule="evenodd" clip-rule="evenodd" viewBox="0 0 236408 291873" xmlns:xlink="http://www.w3.org/1999/xlink">
	<path class="gola_3" d="M121792 41279c-571,269 -880,792 -983,1311 -103,520 0,1035 210,1510 210,476 527,912 999,1233 472,321 1098,527 1609,582 511,56 908,-39 1336,-329 428,-289 887,-772 1066,-1379 178,-606 75,-1335 -139,-1850 -214,-516 -539,-817 -868,-1011 -329,-194 -662,-281 -1244,-317 -583,-36 -1415,-20 -1986,250zm2046 15348c-165,-61 -354,-118 -575,-152 -220,-34 -474,-44 -769,19 -296,62 -632,197 -953,424 -322,227 -627,546 -849,839 -222,293 -360,561 -399,988 -39,427 23,1013 161,1428 137,414 351,655 603,891 252,236 541,466 862,587 321,121 674,133 1028,119 355,-14 712,-54 989,-155 278,-101 476,-263 692,-466 216,-202 450,-443 606,-758 157,-316 236,-704 220,-1180 -16,-475 -127,-1038 -337,-1452 -210,-414 -519,-680 -745,-844 -226,-165 -368,-228 -534,-288z"/>
</svg>
