<?xml version="1.0" encoding="utf-8"?>
<!-- Generator: Adobe Illustrator 19.0.0, SVG Export Plug-In . SVG Version: 6.00 Build 0)  -->
<svg version="1.1" xmlns="http://www.w3.org/2000/svg" xmlns:xlink="http://www.w3.org/1999/xlink" x="0px" y="0px"
	width="459.8px" height="570px" viewBox="0 0 459.8 570" enable-background="new 0 0 459.8 570" xml:space="preserve"
	shape-rendering="geometricPrecision" text-rendering="geometricPrecision" image-rendering="optimizeQuality">
	<path d="M160.7,12.7c2,0.5,3.9,1,6,1.6c3.1,0.8,6.3,1.7,10.6,3c4.3,1.3,9.5,2.9,14.9,4.1c5.4,1.2,10.9,2,16.8,2.6
	c5.9,0.6,12.1,0.9,17.6,1c5.5,0.1,10.3,0,15.7-0.4c5.4-0.4,11.4-1.1,16.8-1.9c5.5-0.9,10.4-1.9,15.2-3c4.8-1.1,9.4-2.2,13.5-3.6
	c3.5-1.2,6.7-2.5,9.8-3.9c-0.1,0-0.1-0.1-0.2-0.1c-1-0.6-2.9-1.9-4.9-3.3c-2-1.4-4.1-3.1-5.7-4.4c-1.6-1.3-2.8-2.2-3.6-2.7
	c-0.8-0.5-1.3-0.6-2.3-0.8c-1-0.2-2.6-0.5-4-0.6c-1.5-0.1-2.9-0.2-4.8,0s-4.5,0.4-7.1,0.7c-2.6,0.3-5.2,0.6-7.9,0.9
	c-2.7,0.3-5.5,0.6-8.7,0.8c-3.3,0.2-7,0.4-10.3,0.6c-3.3,0.1-6,0.2-9.1,0.1s-6.5-0.1-10.1-0.3c-3.7-0.2-7.7-0.4-10.7-0.6
	c-3.1-0.2-5.2-0.5-7.5-0.8c-2.4-0.3-5-0.6-7-0.8c-2-0.2-3.5-0.4-4.9-0.5c-0.6,0-1.2-0.1-1.7-0.1h-4c-1.1,0.1-2.2,0.2-3.2,0.4
	c-1.5,0.3-2.8,0.7-3.9,1.5c-1.2,0.7-2.2,1.7-3,2.4s-1.3,1.1-1.6,1.4c-0.3,0.3-0.5,0.4-1.4,1.1c-0.9,0.7-2.5,1.9-3.9,2.8
	c-1.3,0.9-2.4,1.6-3.1,2c-0.7,0.5-1.2,0.8-1.5,0.9C161,12.6,160.9,12.6,160.7,12.7z"/>
</svg>
