<?xml version="1.0" encoding="UTF-8"?>
<!DOCTYPE svg PUBLIC "-//W3C//DTD SVG 1.1//EN" "http://www.w3.org/Graphics/SVG/1.1/DTD/svg11.dtd">
<!-- Creator: CorelDRAW 2018 (64 Bit Versão de avaliação) -->
<svg xmlns="http://www.w3.org/2000/svg" xml:space="preserve" width="232px" height="294px" version="1.1" shape-rendering="geometricPrecision" text-rendering="geometricPrecision" image-rendering="optimizeQuality" fill-rule="evenodd" clip-rule="evenodd" viewBox="0 0 224820 284513" xmlns:xlink="http://www.w3.org/1999/xlink">
	<path class="gola_fundo" d="M125083 11400c-242,19 -487,37 -734,55 247,-18 492,-36 734,-55zm-33984 10954c1287,155 2934,296 5665,397 4094,151 10623,212 16322,206 4982,-5 9329,-61 12958,-253 3160,-183 6237,-500 9843,-1046 60,-10 119,-19 179,-28 523,-750 1019,-1450 1493,-2113 375,-529 731,-1031 1069,-1515 1320,-1879 2783,-4009 3863,-5767 25,-42 51,-84 76,-126 218,-366 432,-735 643,-1112 728,-1304 1439,-2723 2174,-4381 -603,212 -1182,416 -1743,613 -3096,1088 -5631,1964 -8401,2648 -78,19 -157,38 -236,57 -3074,772 -5881,1159 -9921,1466 -240,19 -485,37 -734,55 -3500,251 -7432,430 -11391,505 -188,3 -375,7 -563,10 -567,9 -1135,16 -1701,24 -4763,48 -8907,-83 -12340,-338 -33,-3 -66,-5 -99,-8 -46,-3 -93,-7 -138,-10 -3326,-256 -5981,-633 -8786,-1297 -52,-12 -103,-24 -155,-36 -2502,-589 -4827,-1328 -7516,-2206 -498,-162 -1010,-330 -1538,-503 1214,2073 2181,3652 3074,5001 357,537 711,1053 1074,1562 63,87 126,175 189,262 202,278 404,550 610,820 103,136 208,271 313,407 1458,1876 3110,3728 5717,6706z"/>
</svg>
