<?xml version="1.0" encoding="UTF-8"?>
<!DOCTYPE svg PUBLIC "-//W3C//DTD SVG 1.1//EN" "http://www.w3.org/Graphics/SVG/1.1/DTD/svg11.dtd">
<!-- Creator: CorelDRAW 2020 (64 Bit) -->
<svg xmlns="http://www.w3.org/2000/svg" xml:space="preserve" width="232px" height="294px" version="1.1" shape-rendering="geometricPrecision" text-rendering="geometricPrecision" image-rendering="optimizeQuality" fill-rule="evenodd" clip-rule="evenodd"
viewBox="0 0 224820 284513"
 xmlns:xlink="http://www.w3.org/1999/xlink"
 xmlns:xodm="http://www.corel.com/coreldraw/odm/2003">
 <g id="GOLA_x0020_Y_x0020_2">
  <metadata id="CorelCorpID_0Corel-Layer"/>
  <path d="M107567 28677c-2759,-1158 -6855,-2854 -10421,-4542 -3566,-1689 -6601,-3369 -8975,-4845 -2373,-1477 -4084,-2749 -5606,-4073 -1521,-1325 -2854,-2703 -3520,-3392 -666,-689 -666,-689 -575,-806 -710,746 -1419,1492 -2128,2238 952,1309 2329,2745 4266,4308 201,162 409,326 622,491 2528,1957 5863,4078 9504,6016 3948,2100 8255,3985 11659,5465 3402,1480 5901,2555 7150,3093 1249,537 1249,537 1257,2169 7,1631 23,4894 208,6904 186,2010 542,2767 1031,3123 488,356 1108,310 1567,280 457,-30 753,-45 1010,-128 258,-84 477,-235 594,-1976 118,-1742 133,-5073 126,-6920 -8,-1847 -39,-2211 -54,-2392 -15,-182 -15,-182 1412,-822 1427,-640 4281,-1919 7359,-3240 3078,-1321 6379,-2683 9380,-4133 3002,-1450 5705,-2986 7768,-4266 1485,-921 2639,-1709 3598,-2398 373,-269 717,-522 1039,-763 1151,-859 2029,-1555 2877,-2812 339,-502 672,-1093 975,-1726 -690,-648 -1380,-1296 -2071,-1944 212,209 212,209 -386,897 -598,689 -1794,2067 -3414,3506 -1620,1438 -3665,2937 -6098,4330 -2434,1393 -5258,2680 -8116,3903 -2858,1222 -5750,2381 -8494,3513 -2745,1131 -5341,2236 -6640,2789 -1298,553 -1298,553 -2009,242 -712,-310 -2136,-931 -4895,-2089z"/>
  <path d="M125907 10537c2975,-355 6579,-946 10114,-1665 3535,-719 7003,-1567 8736,-1991 1734,-424 1734,-424 1734,-303 0,122 0,364 -27,969 -26,606 -79,1575 -68,2136 12,560 87,711 337,995 250,284 674,700 886,908 691,648 1381,1296 2071,1944 456,-951 841,-1995 1069,-2968 378,-1620 318,-3043 170,-4228 -83,-668 -194,-1261 -317,-1820l-5471 -2587c-4735,-3398 -1700,-1699 -16753,485l-19788 1091c-3400,0 -16146,-606 -19666,-1334 -2305,-362 -5099,-1455 -7282,-1455 -971,0 -3035,1820 -4006,2427l-2956 1301c-177,1028 -355,2056 -330,3274 25,1218 252,2626 1161,4262 228,412 501,838 821,1279 709,-746 1418,-1492 2128,-2238 91,-118 272,-353 439,-632 166,-281 318,-606 371,-803 53,-197 7,-265 -99,-560 -106,-295 -272,-818 -375,-1257 -102,-439 -139,-795 -158,-973 -19,-178 -19,-178 -19,-178 0,0 0,0 257,106 257,106 772,318 2252,678 1480,360 3926,867 5421,1226 1495,360 2041,571 3370,878 1328,306 3440,708 5624,992 2184,283 4441,450 8234,537 3792,87 9122,95 12960,38 3838,-57 6185,-178 9160,-534z"/>
 </g>
</svg>
