<?xml version="1.0" encoding="UTF-8"?>
<!DOCTYPE svg PUBLIC "-//W3C//DTD SVG 1.1//EN" "http://www.w3.org/Graphics/SVG/1.1/DTD/svg11.dtd">
<!-- Creator: CorelDRAW 2018 (64 Bit Versão de avaliação) -->
<svg xmlns="http://www.w3.org/2000/svg" xml:space="preserve" width="232px" height="294px" version="1.1" shape-rendering="geometricPrecision" text-rendering="geometricPrecision" image-rendering="optimizeQuality" fill-rule="evenodd" clip-rule="evenodd" viewBox="0 0 224820 284513" xmlns:xlink="http://www.w3.org/1999/xlink">
	<path class="gola" d="M91099 22354c-398,-455 -836,-939 -1325,-1488 -1550,-1738 -3621,-4124 -5317,-6444 -1695,-2320 -3015,-4573 -3675,-5699 -660,-1127 -660,-1127 -660,-1127 0,0 0,0 1538,503 1538,503 4615,1508 7516,2205 2901,696 5627,1084 9079,1344 3452,261 7630,394 12439,346 4808,-49 10247,-279 14389,-594 4143,-314 6989,-714 10157,-1525 3167,-812 6656,-2035 8400,-2647 1744,-612 1744,-612 1744,-612 0,0 0,0 -357,806 -357,805 -1072,2416 -2459,4688 -1387,2271 -3446,5202 -5009,7407 -557,786 -1051,1480 -1491,2113 -793,1141 -1409,2081 -1900,3005 -763,1435 -1223,2828 -1568,3991 -198,667 -358,1258 -502,1816 2054,-544 3865,-1144 5504,-1768 2828,-1078 5142,-2229 7122,-3737 1981,-1508 3628,-3374 5027,-5051 1400,-1678 2550,-3168 3429,-5106 878,-1938 1483,-4324 1841,-5935 209,-947 334,-1626 412,-2109 -15,-6 -29,-12 -43,-18l-21 -9 -22 -9 -21 -10 -21 -9 -22 -9 -21 -9 -21 -9 -21 -9c-7,-3 -14,-6 -21,-9 -7,-3 -14,-6 -21,-9 -7,-3 -14,-6 -21,-9l-21 -9c-21,-9 -42,-18 -63,-27 -3,-1 -6,-2 -9,-3 -32,-14 -64,-28 -95,-41l-21 -9 -21 -9c-7,-3 -14,-6 -20,-9 -7,-3 -14,-6 -21,-9l-21 -9 -20 -9c-7,-2 -14,-5 -21,-8 -7,-3 -14,-6 -20,-9 -7,-3 -14,-6 -21,-9 -7,-3 -14,-6 -20,-9 -7,-3 -14,-6 -21,-9 -7,-3 -13,-5 -20,-8 -7,-3 -14,-6 -21,-9l-20 -9 -20 -8 -21 -9c-13,-6 -27,-12 -40,-18l-20 -8 -20 -9 -20 -9c-7,-3 -14,-5 -20,-8 -7,-3 -14,-6 -21,-9 -40,-17 -79,-35 -119,-52l-20 -8 -20 -9 -20 -8 -19 -9 -40 -17 -19 -8 -20 -9 -19 -8c-7,-3 -13,-6 -20,-9 -7,-2 -13,-5 -19,-8 -14,-6 -27,-11 -39,-17l-8984 -4247c-4735,-3398 -1700,-1699 -16753,485l-19788 1091c-3400,0 -16146,-606 -19666,-1334 -2305,-362 -5099,-1455 -7282,-1455 -971,0 -3035,1820 -4006,2427l-7738 3405c29,519 103,1087 261,1747 339,1418 1066,3258 2326,5584 1259,2326 3052,5136 4772,7207 1720,2072 3368,3404 5054,4443 1687,1038 3413,1783 5602,2544 2137,741 4714,1498 7566,2220 -703,-1830 -1417,-3618 -2226,-5022 -622,-1077 -1300,-1928 -2164,-2915z"/>
</svg>
