<?xml version="1.0" encoding="UTF-8"?>
<!DOCTYPE svg PUBLIC "-//W3C//DTD SVG 1.1//EN" "http://www.w3.org/Graphics/SVG/1.1/DTD/svg11.dtd">
<!-- Creator: CorelDRAW 2018 (64 Bit Versão de avaliação) -->
<svg xmlns="http://www.w3.org/2000/svg" xml:space="preserve" width="232px" height="294px" version="1.1" shape-rendering="geometricPrecision" text-rendering="geometricPrecision" image-rendering="optimizeQuality" fill-rule="evenodd" clip-rule="evenodd" viewBox="0 0 224820 284513" xmlns:xlink="http://www.w3.org/1999/xlink">
	<path class="fundo_gola" d="M122712 10647c-5753,490 -12876,902 -19174,817 -6299,-84 -11774,-666 -15378,-1338 -3603,-672 -5335,-1436 -6201,-1817l-866 -382 266 588c266,587 800,1762 2005,3119 1205,1357 3082,2895 6159,4276 3077,1381 7353,2604 11095,3349 3743,745 6953,1011 10532,1018 3580,6 7528,-249 10950,-957 3422,-709 6317,-1872 9103,-3313 2786,-1442 5463,-3162 7498,-4924 1274,-1104 2297,-2224 3225,-3350 -971,265 -2858,776 -5932,1309 -3143,545 -7528,1114 -13282,1605z"/>
</svg>
