<?xml version="1.0" encoding="utf-8"?>
<!-- Generator: Adobe Illustrator 16.0.3, SVG Export Plug-In . SVG Version: 6.00 Build 0)  -->
<!DOCTYPE svg PUBLIC "-//W3C//DTD SVG 1.1//EN" "http://www.w3.org/Graphics/SVG/1.1/DTD/svg11.dtd">
<svg version="1.1"image-rendering="optimizeQuality" text-rendering="geometricPrecision" shape-rendering="geometricPrecision" xmlns="http://www.w3.org/2000/svg" xmlns:xlink="http://www.w3.org/1999/xlink" x="0px" y="0px" width="240px" height="296px" viewBox="0 0 240 296" enable-background="new 0 0 240 296" xml:space="preserve">
	<path class="fundo_gola" d="M92.219,8.985c0.011,0.367,0.011,1.061,0.523,2.235c0.51,1.174,1.532,2.829,3.027,4.085c1.494,1.256,3.46,2.114,5.435,2.82
	c1.974,0.706,3.955,1.259,6.646,1.623c2.692,0.362,6.094,0.534,9.184,0.628c3.09,0.093,5.867,0.109,8.637-0.047
	c2.77-0.156,5.531-0.484,8.137-0.983c2.606-0.499,5.056-1.17,7.025-1.876c1.971-0.706,3.461-1.447,4.689-2.2
	c1.229-0.753,2.195-1.517,2.988-2.336c0.791-0.819,1.408-1.693,1.826-2.454c0.416-0.761,0.635-1.408,0.744-1.731
	c0.109-0.324,0.109-0.324,0.109-0.324s0,0-1.396,0.132c-1.396,0.133-4.189,0.398-8.38,0.546c-4.188,0.148-9.775,0.18-15.072,0.242
	c-5.298,0.062-10.307,0.156-14.363,0.202c-4.057,0.047-7.163,0.047-9.652,0.008s-4.361-0.117-5.866-0.267
	c-1.506-0.151-2.646-0.373-3.301-0.509s-0.827-0.187-0.901-0.193C92.184,8.58,92.207,8.619,92.219,8.985z"/>
</svg>
