<?xml version="1.0" encoding="UTF-8"?>
<!DOCTYPE svg PUBLIC "-//W3C//DTD SVG 1.1//EN" "http://www.w3.org/Graphics/SVG/1.1/DTD/svg11.dtd">
<!-- Creator: CorelDRAW 2018 (64 Bit Versão de avaliação) -->
<svg xmlns="http://www.w3.org/2000/svg" xml:space="preserve" width="258px" height="296px" version="1.1" shape-rendering="geometricPrecision" text-rendering="geometricPrecision" image-rendering="optimizeQuality" fill-rule="evenodd" clip-rule="evenodd" viewBox="0 0 250902 288186" xmlns:xlink="http://www.w3.org/1999/xlink">
	<path class="gola_2" d="M96946 13557c-376,-475 -648,-814 -851,-1062 -438,490 -876,981 -1313,1471 0,0 0,0 438,660 438,661 1312,1982 2282,3229 970,1246 2033,2419 2909,3303 874,882 1563,1477 2204,2075 641,597 1234,1200 2001,1852 766,652 1704,1357 3028,2209 1326,851 3038,1852 4641,2782 1601,930 3094,1790 4896,2638 1802,848 3912,1684 5425,2204 1513,521 2427,724 2885,826 456,101 456,101 1149,-79 691,-180 2075,-540 3689,-1126 1615,-586 3459,-1400 5257,-2298 1798,-899 3549,-1883 5003,-2744 1454,-860 2611,-1594 3761,-2368 1149,-774 2289,-1587 3333,-2431 1043,-845 1989,-1720 2970,-2678 982,-957 1998,-1997 2857,-3040 860,-1044 1563,-2091 2154,-2935 590,-845 1067,-1485 1305,-1806 110,-149 171,-229 252,-237 -488,-626 -975,-1251 -1463,-1876 -11,14 -22,27 -33,42 -290,371 -766,1019 -1411,1891 -645,872 -1458,1966 -2256,3006 -797,1040 -1579,2024 -2501,3025 -922,1001 -1985,2017 -2939,2857 -954,841 -1798,1506 -2924,2330 -1126,824 -2535,1809 -4169,2805 -1633,997 -3493,2006 -5169,2870 -1676,864 -3169,1583 -4529,2056 -1360,472 -2587,699 -3201,813 -614,113 -614,113 -891,101 -278,-12 -833,-36 -2009,-434 -1177,-398 -2975,-1173 -4488,-1868 -1511,-696 -2739,-1314 -3986,-1993 -1247,-680 -2513,-1423 -3896,-2299 -1385,-875 -2885,-1884 -4273,-2955 -1387,-1070 -2661,-2204 -3674,-3170 -1012,-965 -1762,-1762 -2470,-2595 -707,-832 -1372,-1700 -2063,-2592 -693,-890 -1412,-1805 -1932,-2460l2 1z"/>
</svg>
