<?xml version="1.0" encoding="UTF-8"?>
<!DOCTYPE svg PUBLIC "-//W3C//DTD SVG 1.1//EN" "http://www.w3.org/Graphics/SVG/1.1/DTD/svg11.dtd">
<!-- Creator: CorelDRAW -->
<svg xmlns="http://www.w3.org/2000/svg" xml:space="preserve" width="240px" height="296px" version="1.1" shape-rendering="geometricPrecision" text-rendering="geometricPrecision" image-rendering="optimizeQuality" fill-rule="evenodd" clip-rule="evenodd"
viewBox="0 0 240 296"
 xmlns:xlink="http://www.w3.org/1999/xlink"
 xmlns:xodm="http://www.corel.com/coreldraw/odm/2003">
    <path class="fundo_gola" fill-rule="nonzero" d="M149.456 25.872c-0.669,3.735 -2.136,6.337 -3.434,8.61 -1.522,2.654 -3.019,4.47 -4.013,5.667 -2.568,3.085 -3.527,3.425 -7.028,7.276 -1.938,2.136 -3.323,3.882 -4.013,4.769 -1.141,1.467 -2.126,2.745 -2.993,4.024 -6.134,0.056 -12.273,0.101 -18.402,0.157 -0.949,-1.41 -1.974,-2.719 -3.095,-4.054 -5.186,-6.185 -6.429,-5.86 -11.289,-11.618 -4.419,-5.236 -5.683,-8.22 -6.023,-9.057 -1.369,-3.384 -1.694,-6.225 -1.978,-8.732 -0.081,-0.725 -0.137,-1.385 -0.173,-1.988 1.685,0.299 3.872,0.624 6.418,0.826 2.867,0.229 5.034,0.219 8.128,0.183 5.444,-0.061 8.169,-0.091 11.776,-0.183 14.582,-0.38 17.662,1.066 28.819,0.082 3.115,-0.274 5.748,-0.64 7.651,-0.944 0.152,2.121 -0.142,3.836 -0.351,4.982z"/>
 </svg>
