<?xml version="1.0" encoding="utf-8"?>
<!-- Generator: Adobe Illustrator 19.0.0, SVG Export Plug-In . SVG Version: 6.00 Build 0)  -->
<svg version="1.1" id="Camada_1" xmlns="http://www.w3.org/2000/svg" xmlns:xlink="http://www.w3.org/1999/xlink" x="0px" y="0px"
	 viewBox="0 0 2625 2471.4" enable-background="new 0 0 2625 2471.4" xml:space="preserve">
<g id="Layer_x0020_1">
	<g id="_3057692633136">
		<path id="camisa-frente" fill="#010101" d="M122.6,765.4l252.5-76.6c0,7.3,0.1,16.1,0.4,26.1c0.2,6.9,0.9,28.7,3,50.8
			c2.4,24.5,4.7,48.7,13.2,77.8c4.7,16.3,12.8,43,32.4,73.2c10,15.3,26,39.3,55,58.9c9.2,6.2,17,10.1,32.6,17.9
			c23.7,11.9,43.8,20.1,57.8,25.3c21.5,0.4,43,0.7,64.5,1.1c24.6-1.3,49.1-2.6,73.7-4c9.9-3.7,22.8-9,37.3-16.3
			c10.4-5.2,21.6-10.9,35.3-20.3c17.2-11.8,29.6-23.5,37.3-31.3c12.5-12.7,20.5-23.6,22.5-26.5c12.2-16.8,18.6-30.7,27.4-49.8
			c5.8-12.6,12.8-29.3,19.6-49.5c3.9-14.6,6.7-27,8.7-36.5c3.1-15.2,5.3-26.1,6.6-40.9c0.7-8.5,0.9-14.6,1.1-26.1
			c0.2-11.4,0.2-21.3,0-29.2l248.4,76.1c-6.4,26-11.4,47.5-15,63.4c-4.3,19.2-6.2,28.3-7.3,33.6c-4.6,22.8-7.3,40.1-8.2,46
			c-1.2,8-3.7,24.9-6.1,46.7c-1,9.1-2,18.8-2.9,32c-1.3,19.3-1.5,34-1.6,43.7c-0.2,14.7-0.3,25,0.5,39.2c0.6,11.1,1.5,28.2,5.3,50.3
			c3.7,21.6,8.4,37.5,9.8,42.1c3.4,11.3,8,26.2,17.1,44.6c10.3,20.9,20.9,35.1,23.9,39.1c12.6,16.6,24.6,27.7,30.8,33.1
			c16.5,14.4,30.9,22.7,39.6,27.7c13.9,7.9,26.5,13.4,36.3,17.1c0.1,382.3,0.2,764.6,0.2,1147L0,2471.4L0.1,1324
			c9.8-3.9,18-7.7,24.4-10.9c15.9-8,27-15.4,30.2-17.5c5.2-3.5,11.3-7.6,18.7-13.9c8-6.8,13.5-12.6,18.2-17.7
			c4.1-4.4,9.9-10.6,16.7-19.6c3.1-4.2,10.2-13.9,17.6-27.5c5.6-10.4,9-18.6,11.9-25.7c1.5-3.6,6.3-15.5,11-31.6
			c1.6-5.6,4-13.5,6.2-24.2c1.8-8.9,2.7-15.3,4-24.5c1.9-14.3,2.8-25.1,3.1-28.8c0.6-7.6,0.8-13.3,1-18.2c0-0.8,0.7-18.7,0.5-36.5
			c-0.6-47.7-7.8-99.4-8.3-103c-3-21.4-6.5-40.2-8.1-48.7c-1.5-8-2.9-14.7-5.3-26.5c-3.1-14.8-5.4-26.3-8.5-40
			C130.8,798.1,127.3,783.2,122.6,765.4L122.6,765.4z"/>
		<path id="camisa-verso" fill="#010101" d="M1453.2,764.4c3.1,10.6,7.2,25.4,11.6,43.5c2,8.2,3.3,14,5.4,23.3
			c5.6,24.8,8.8,39.1,12,56.4c3.1,16.7,4.6,28.4,7.4,48.5c3.2,23.8,5.1,37.2,6.5,55.7c2.2,28.3,2,50,1.8,56.8
			c-0.3,19.6-0.6,42-5.5,71.2c-6,35.6-15.2,60.4-17.5,66.7c-4,10.6-9.1,23.9-18.9,40.1c-3,5-11.5,18.6-25.2,34
			c-10.8,12.1-20.3,20.2-24,23.3c-2.2,1.8-12.3,10.1-27.4,19.5c-10.4,6.4-24.5,14.1-42.1,21.1c4.4,382.1,8.9,764.3,13.3,1146.4
			c424.8-2.4,849.6-4.7,1274.4-7.1c-0.1-382.3-0.2-764.6-0.3-1146.9c-7.6-2.7-17.3-6.8-28.3-12.5c-2.2-1.1-9.5-5-19-11.1
			c-8.6-5.6-21.6-14-36.3-28c-14.5-13.7-23.9-26.4-28.4-32.8c-1.4-2-7.9-11.4-15.1-25c-10.5-19.9-15.7-36.3-19.6-48.5
			c-6-19.1-9.2-35-10.9-44.7c-2.9-16.6-3.7-29.1-4.6-42.1c-0.3-4.2-1.4-20.5-1.4-43.6c0-10,0.2-44.4,5.3-89.1c0.5-4.3,2-16.8,4.4-33
			c2.8-18.2,5.4-31.4,8.9-49.4c2.8-14,6-30.3,11-51.9c4.2-18.3,8.3-34.1,11.8-47.1c-35.2-10.6-76.4-23.1-108.8-32.8
			c-24.2-7.3-36.9-11.1-55.7-16.8l-88.1-27c-1.6,6.1-3.3,11.3-4.8,15.5c-2.1,5.8-5.1,14.2-10.7,24.3c-4.6,8.3-8.9,14-9.8,15.2
			c-6.7,8.9-12.9,14.5-14.2,15.7c-5.2,4.7-9.5,7.5-14.6,10.9c-7.4,4.9-13.2,8-19,11.1c-8.4,4.5-13.8,7.3-21.5,10
			c-6.1,2.2-11.4,3.5-15,4.2c-2.1,0.3-5,0.7-8.4,1.2c-4.7,0.7-14.2,2.2-26.2,4.5c-6,1.2-13.2,2.6-21.2,4.5
			c-14.1,0.9-28.4,1.7-42.9,2.3c-19.7,0.9-39.1,1.6-58.2,2c-22.9,0.3-46.4,0.1-70.4-0.5c-11.7-0.3-23.2-0.7-34.6-1.2l-23.7-4.6
			c-7.7-1.2-19-3.2-32.8-6.3c-4.5-1-8-1.8-11.8-2.9c-8.7-2.5-21.2-6.9-35.7-15.7c-1.8-1.4-4.5-3.5-7.9-6.1
			c-13.3-10.1-14.8-10.4-21-15.6c-4.7-3.9-10.1-8.5-15.8-15.7c-1.3-1.7-2.5-3.3-6.6-9.6c-7.7-11.8-11.5-17.7-15-24.1
			c-2.2-4-4.8-9-7.6-15L1453.2,764.4L1453.2,764.4z"/>
	</g>
	<path id="manga-raglan" fill="#010101" d="M2385,616.7c0.1,0,0.3,0,0.4,0c6.9-13.6,13.8-27.2,20.8-40.8h-0.4
		c53.5-105.1,107.1-210.2,160.6-315.3c-7,0.4-15.5,0.6-25.1,0.2c-14-0.5-25.1-1.9-31.4-2.9c-6-0.9-16.8-2.6-30.1-6.2
		c-23.3-6.5-40-15.4-51.3-21.5c-14.6-7.9-24.9-15-33-20.7c-17-11.8-28.7-21.8-43.9-35c-47.7-41.4-49.3-44.6-72.4-63.3
		c-13.2-10.7-27.3-22.1-47.5-35.6c-12-8.1-28.4-19-51.8-30.6c-25.4-12.7-46.6-19.9-57-23.3c-5.5-1.8-22.3-7-44.8-11.6
		c-19.3-3.9-34.1-5.6-43.1-6.5c-9.9-1.1-30.6-3-57.2-3c-13.8,0-33.7,0.1-59.9,3.3c-15.8,2-34.6,5.2-55.4,10.5
		c-25.1,6.5-43.4,13.6-49.1,15.8c-3.6,1.4-20.7,8.2-42.3,19.7c-9.4,5-25.5,13.9-44.4,26.8c-16.4,11.2-27.9,20.5-39.4,29.9
		c-12,9.8-21.9,18.5-33.6,28.7c-12.3,10.8-12.4,11.2-23.2,20.6c-9.2,8-21.2,18.6-35.9,30.3c-23.7,19-36.7,27.9-41.7,31.2
		c-7,4.6-11.9,7.5-15.2,9.5c-14.5,8.4-26.1,13.4-28.6,14.4c-2.3,1-13.4,5.6-28.7,10c-9.5,2.7-20.5,5.8-35.3,7.6
		c-9,1.1-16.1,1.2-27.2,1.5c-9.7,0.2-17.8,0.1-23.5,0c57.4,118.1,114.8,236.3,172.2,354.4c272.7,0.7,545.5,1.4,818.2,2.1
		C2384.8,617.1,2384.9,616.9,2385,616.7z"/>
	<path id="manga-raglan_0" fill="#010101" d="M211.3,573.6c7.4,14.4,14.7,28.8,22.1,43.1c272.6-0.8,545.1-1.6,817.7-2.4
		c1.6-3.2,8.9-18.4,19.8-40.8c13.6-27.9,32.6-67.2,52.7-108.6c22.5-46.4,77.1-158.6,99.6-205c-2.7,0-6.6,0.1-11.4,0.1
		c-15.9,0-23.8,0-32.8-0.8c-13.6-1.2-23.7-3.4-26.8-4.1c-7.9-1.8-13.4-3.6-20.2-5.8c-10-3.3-23.1-7.6-38.6-15.3
		c-10.2-5-17.2-9.5-24.4-14c-16.3-10.3-27.9-19.3-38.8-28c-12-9.5-20.3-16.7-32.2-27.1c-16.3-14.2-16.8-15.3-34.7-30.9
		c-10.2-8.9-18.9-16.5-31-26.2c-6.3-5.1-15.1-12.2-27.2-21c-6.9-5-16-11.7-28.7-19.7c-14.7-9.3-26.6-15.8-31.9-18.6
		c-9-4.8-21-11.1-37.5-17.7c-14.1-5.7-24.8-8.9-35.6-12.1c-11.7-3.5-25.9-7.7-45.1-11.3c-16.9-3.2-29.8-4.4-40.2-5.3
		c-4.5-0.4-21.6-1.9-44.6-2.2c-9.8-0.1-22.1-0.2-38.2,0.9c-21.4,1.4-37.5,4.1-47.5,5.7c-10.2,1.7-22.9,3.9-39.4,8.2
		c-4.5,1.2-14.7,4-27.5,8.4c-2.1,0.7-10,3.4-20.2,7.5c-4.8,1.9-12.3,4.9-22,9.4c-2.6,1.2-11.8,5.5-23.5,12
		c-4.5,2.5-13,7.3-23.5,13.9c-7.2,4.6-12.4,8.2-17.8,11.9C369,87,359.1,94.5,353.7,98.7c-2.5,2-12.3,9.5-24.9,20.2
		c-4.5,3.9-9.1,7.9-18,15.7c-14.8,13-16.1,14.3-26.7,23.7c-11.1,9.8-18,15.8-27.6,23.8c-6.5,5.4-12.1,10-19.7,16
		c-6.1,4.7-14.6,11.3-24.9,18.1c-18,11.9-33.1,19.1-36.5,20.7c-12.1,5.7-30.6,13.2-52.7,18.1c-12.2,2.7-21.3,3.7-23.9,4
		c-7.9,0.8-13.9,0.9-21.8,1.1c-6.7,0.1-15.7,0.1-26.3-0.3C104.3,364.2,157.8,468.9,211.3,573.6L211.3,573.6z"/>
</g>
</svg>
