<?xml version="1.0" encoding="utf-8"?>
<!-- Generator: Adobe Illustrator 19.0.0, SVG Export Plug-In . SVG Version: 6.00 Build 0)  -->
<svg version="1.1" xmlns="http://www.w3.org/2000/svg" xmlns:xlink="http://www.w3.org/1999/xlink" x="0px" y="0px"
	width="459.6px" height="541px" viewBox="0 0 459.6 541" enable-background="new 0 0 459.6 541" xml:space="preserve" 
	image-rendering="optimizeQuality" text-rendering="geometricPrecision" shape-rendering="geometricPrecision">
	<path d="M151.3,14.5c1.6-0.1,3-0.1,4.3-0.2c1.6-0.1,2.8-0.1,4.2-0.1c1.4,0,3.1,0,5.2-0.1c2.1,0,4.6-0.1,7.4-0.2
	c2.7-0.1,5.7-0.1,8.4-0.2c2.7-0.1,5.2-0.2,7.7-0.4c2.5-0.2,5.1-0.4,7.7-0.6c2.6-0.2,5.4-0.4,8.3-0.6c2.9-0.2,6-0.5,8.9-0.7
	c2.8-0.2,5.4-0.3,8.2-0.5c2.8-0.1,6-0.2,8.7-0.2c2.8,0,5.1,0,7.7,0.1c2.6,0.1,5.5,0.2,8.8,0.4c3.3,0.2,7,0.4,10.5,0.6
	c3.6,0.2,7,0.5,10.3,0.6c3.3,0.2,6.6,0.2,9.6,0.3c3,0,5.9,0,9,0c3.1,0,6.6,0,9.6,0c3,0.1,5.6,0.2,7.7,0.4c0.6,0,1.1,0.1,1.6,0.1
	c-0.9-0.3-1.7-0.6-2.4-0.9c-2.5-1-3.3-1.7-4.3-2.2c-1-0.5-2.1-0.9-4.3-1.5c-2.2-0.6-5.3-1.3-7.8-1.9c-2.5-0.6-4.5-1.1-8.1-1.7
	c-3.6-0.6-8.8-1.5-14.3-2.3s-11.2-1.5-15.9-2c-4.7-0.5-8.2-0.7-10.8-0.9C234.9,0,233.4,0,232.5,0c-1,0-1.5,0-2.8,0
	c-1.3,0-3.5,0-6.7,0.2c-3.1,0.1-7.2,0.4-11.9,1c-4.6,0.6-9.8,1.4-14.9,2.2c-5.1,0.9-10.2,1.8-15.9,2.8c-5.7,1-12,2.2-16,3.1
	c-4,0.8-5.5,1.3-7,2.1c-1.5,0.8-2.9,1.8-5.3,2.9C151.8,14.3,151.5,14.4,151.3,14.5z"/>
</svg>
