<?xml version="1.0" encoding="UTF-8"?>
<!DOCTYPE svg PUBLIC "-//W3C//DTD SVG 1.1//EN" "http://www.w3.org/Graphics/SVG/1.1/DTD/svg11.dtd">
<!-- Creator: CorelDRAW 2018 (64 Bit Versão de avaliação) -->
<svg xmlns="http://www.w3.org/2000/svg" xml:space="preserve" width="258px" height="296px" version="1.1" shape-rendering="geometricPrecision" text-rendering="geometricPrecision" image-rendering="optimizeQuality" fill-rule="evenodd" clip-rule="evenodd" viewBox="0 0 250902 288186" xmlns:xlink="http://www.w3.org/1999/xlink">
	<path class="gola" d="M114794 34646c1114,204 2021,344 2919,528 900,184 1790,411 2674,590 884,180 1758,313 2196,380 210,32 320,48 376,190 2,-12 4,-27 6,-44 14,-106 40,-280 74,-420 33,-140 72,-246 215,-317 143,-70 388,-105 1328,-105 941,0 2574,35 3985,-25 1411,-61 2599,-217 3740,-381 1142,-164 2236,-337 2783,-422 134,-21 235,-37 312,-34 33,-18 64,-35 94,-50 102,-49 190,-70 302,-85 113,-15 250,-23 932,-195 682,-172 1909,-508 3234,-930 1325,-422 2748,-930 4370,-1759 1622,-828 3443,-1977 4874,-3036 1430,-1059 2470,-2028 3440,-3080 968,-1051 1867,-2186 2797,-3659 930,-1474 1892,-3287 2623,-4948 730,-1661 1231,-3170 1544,-4303 313,-1134 438,-1891 469,-2467 31,-574 -31,-965 -281,-1614 -251,-649 -688,-1555 -1145,-2188 -458,-634 -934,-993 -1701,-1563 -766,-572 -1821,-1353 -2618,-1912 -798,-559 -1337,-895 -2345,-1212 -1009,-316 -2486,-613 -3987,-805 -1501,-191 -3026,-278 -4979,-332 -1955,-54 -4339,-78 -6509,-102 -2168,-23 -4123,-47 -6504,-27 -2380,20 -5185,82 -7801,145 -2614,62 -5037,125 -7015,160 -1978,35 -3510,43 -5077,85 -1568,44 -3171,122 -4702,259 -1533,137 -2994,332 -4084,567 -1091,234 -1810,508 -2542,889 -734,381 -1481,869 -2399,1586 -918,717 -2009,1664 -2661,2151 -652,488 -865,518 -1273,755 -407,239 -1010,684 -1498,1157 -488,473 -864,973 -1032,1911 -168,938 -129,2314 118,3510 245,1196 699,2213 1296,3431 599,1220 1342,2643 2483,4355 1141,1712 2682,3713 3974,5104 1294,1392 2342,2173 3588,2997 1248,826 2694,1694 4335,2455 1642,762 3479,1419 5058,1880 1579,462 2899,728 4014,931l0 -1zm-370 -6783c-2259,-602 -5097,-1516 -7532,-2622 -2434,-1107 -4466,-2405 -6147,-3811 -1681,-1407 -3010,-2924 -3960,-4163 -950,-1238 -1521,-2200 -1957,-3119 -438,-918 -743,-1794 -929,-2477 -184,-683 -248,-1173 -274,-1467 -26,-295 -11,-393 -5,-441 8,-49 8,-49 158,-50 151,-1 451,-3 2008,-172 1558,-170 4372,-505 6330,-739 1959,-235 3060,-368 4691,-478 1629,-109 3787,-195 5760,-238 1975,-43 3765,-43 5911,-51 2145,-8 4647,-24 6761,-58 2115,-36 3841,-91 6011,-48 2169,44 4781,184 7457,267 2678,81 5422,105 8099,112 2678,8 5288,0 6809,22 1520,21 1950,73 2165,97 215,26 215,26 -20,952 -234,927 -703,2779 -1426,4545 -723,1768 -1700,3448 -2650,4754 -950,1305 -1872,2235 -3358,3353 -1485,1117 -3533,2424 -5210,3346 -1677,922 -2982,1461 -4183,1931 -1199,469 -2293,867 -3715,1098 -1424,230 -3174,293 -4804,410 -1630,118 -3138,289 -4058,379 -918,90 -1246,98 -1465,195 -219,98 -329,286 -383,380 -55,94 -55,94 -231,46 -175,-46 -527,-140 -1262,-277 -735,-137 -1852,-316 -3252,-551 -1399,-235 -3080,-524 -5339,-1126l0 1z"/>
</svg>
