<?xml version="1.0" encoding="UTF-8"?>
<!DOCTYPE svg PUBLIC "-//W3C//DTD SVG 1.1//EN" "http://www.w3.org/Graphics/SVG/1.1/DTD/svg11.dtd">
<!-- Creator: CorelDRAW 2020 (64 Bit) -->
<svg xmlns="http://www.w3.org/2000/svg" xml:space="preserve" width="232px" height="294px" version="1.1" shape-rendering="geometricPrecision" text-rendering="geometricPrecision" image-rendering="optimizeQuality" fill-rule="evenodd" clip-rule="evenodd"
viewBox="0 0 224820 284513"
 xmlns:xlink="http://www.w3.org/1999/xlink"
 xmlns:xodm="http://www.corel.com/coreldraw/odm/2003">
 <g id="Gola_x0020_III">
  <metadata id="CorelCorpID_0Corel-Layer"/>
  <g id="_1778192752432">
   <path class="gola" d="M72978 10311c583,2168 1976,5060 4164,8414 2188,3354 5171,7169 8850,10462 3679,3293 8055,6064 10652,7654 2597,1590 3414,1999 4088,3096 674,1098 1204,2885 1764,5224 560,2339 1151,5231 1499,7139 348,1908 454,2831 530,3376 76,545 121,712 1613,705 1491,-8 4428,-190 7078,-227 2650,-38 5012,67 6291,67 1280,0 1476,-105 1696,-1347 220,-1241 462,-3619 901,-6140 439,-2521 1075,-5186 1590,-6874 514,-1688 908,-2399 2990,-4027 2082,-1628 5852,-4172 9319,-6935 3468,-2763 6632,-5746 9236,-9024 2605,-3278 4649,-6851 5822,-9341 1174,-2491 1476,-3899 1529,-5565 16,-488 10,-999 -11,-1525l-7438 -3516c-4735,-3398 -1700,-1699 -16753,485l-19788 1091c-3400,0 -16146,-606 -19666,-1334 -2305,-362 -5099,-1455 -7282,-1455 -971,0 -3035,1820 -4006,2427l-4796 2111c-227,1445 -454,2890 128,5059zm14854 6529c-1764,-2407 -3172,-4648 -3891,-5776 -719,-1128 -750,-1144 969,-697 1718,447 5186,1355 10000,2097 4815,742 10978,1317 16542,1249 5564,-68 10531,-779 15444,-1710 4913,-932 9774,-2083 12228,-2660 2455,-577 2504,-581 2232,101 -273,681 -867,2048 -2300,4139 -1432,2091 -3704,4907 -6618,7761 -2915,2854 -6473,5747 -9176,7760 -2703,2014 -4550,3149 -5822,4300 -1272,1151 -1968,2317 -2627,4111 -658,1794 -1279,4217 -1635,5579 -356,1363 -446,1666 -613,1431 -167,-234 -409,-1007 -984,-2649 -576,-1643 -1484,-4157 -2945,-6102 -1461,-1946 -3475,-3324 -6034,-5125 -2559,-1802 -5663,-4028 -8274,-6428 -2612,-2400 -4732,-4973 -6496,-7381zm21137 28013c898,-7 2145,-4 3573,5 1428,-9 2675,-12 3573,-5 1847,16 2210,76 2468,307 257,231 409,632 325,931 -83,299 -401,496 -662,594 -261,99 -466,99 -598,27 -133,-72 -193,-216 -432,-295 -238,-80 -655,-95 -1722,-91 -742,2 -1799,14 -2952,29 -1153,-15 -2210,-27 -2952,-29 -1067,-4 -1484,11 -1722,91 -239,79 -299,223 -432,295 -132,72 -337,72 -598,-27 -261,-98 -579,-295 -662,-594 -84,-299 68,-700 325,-931 258,-231 621,-291 2468,-307zm3573 4183c1428,-9 2675,-12 3573,-5 1847,15 2210,76 2468,307 257,231 409,632 325,931 -83,299 -401,496 -662,594 -261,98 -466,98 -598,26 -133,-72 -193,-215 -432,-295 -238,-79 -655,-94 -1722,-91 -742,3 -1799,15 -2952,29 -1153,-14 -2210,-26 -2952,-29 -1067,-3 -1484,12 -1722,91 -239,80 -299,223 -432,295 -132,72 -337,72 -598,-26 -261,-98 -579,-295 -662,-594 -84,-299 68,-700 325,-931 258,-231 621,-292 2468,-307 898,-7 2145,-4 3573,5zm3595 3907c1848,15 2211,75 2468,306 258,231 409,632 326,931 -83,299 -401,496 -663,594 -261,99 -465,99 -598,27 -132,-72 -193,-216 -431,-295 -239,-80 -655,-95 -1722,-91 -743,3 -1800,14 -2952,29 -1153,-15 -2210,-26 -2952,-29 -1068,-4 -1484,11 -1723,91 -238,79 -299,223 -431,295 -133,72 -337,72 -598,-27 -261,-98 -580,-295 -663,-594 -83,-299 68,-700 326,-931 257,-231 621,-291 2468,-306 897,-8 2145,-5 3573,4 1427,-9 2675,-12 3572,-4z"/>
  </g>
 </g>
</svg>
