<?xml version="1.0" encoding="UTF-8"?>
<!DOCTYPE svg PUBLIC "-//W3C//DTD SVG 1.1//EN" "http://www.w3.org/Graphics/SVG/1.1/DTD/svg11.dtd">
<!-- Creator: CorelDRAW 2020 (64 Bit) -->
<svg xmlns="http://www.w3.org/2000/svg" xml:space="preserve" width="240px" height="296px" version="1.1" shape-rendering="geometricPrecision" text-rendering="geometricPrecision" image-rendering="optimizeQuality" fill-rule="evenodd" clip-rule="evenodd"
viewBox="0 0 236408 291873"
 xmlns:xlink="http://www.w3.org/1999/xlink"
 xmlns:xodm="http://www.corel.com/coreldraw/odm/2003">
   <path class="gola" d="M116129 44096c865,34 2070,66 3568,62 1498,-4 3290,-44 4261,-52 970,-8 1121,16 1216,48 95,31 135,71 167,131 31,59 55,138 55,257 0,119 -24,278 -131,434 -107,157 -297,311 -457,329 -161,18 -292,-101 -492,-180 -200,-80 -469,-119 -1161,-105 -692,14 -1805,81 -3087,77 -1282,-4 -2733,-79 -3599,-65 -866,13 -1147,116 -1442,152 -295,36 -605,4 -757,-141 -153,-144 -149,-402 -133,-596 16,-194 44,-325 321,-372 277,-48 805,-12 1671,21zm-9099 -18827c-1546,-1194 -2815,-2213 -4065,-3348 -1250,-1136 -2482,-2388 -3559,-3634 -1078,-1246 -2000,-2487 -2922,-3793 -922,-1307 -1844,-2680 -2323,-3401 -479,-721 -516,-789 -290,-805 225,-16 713,20 1625,60 912,41 2249,85 3493,97 1244,12 2396,-8 4429,-28 2034,-20 4949,-40 8057,-49 3109,-8 6411,-4 9195,-76 2785,-73 5052,-222 7794,-280 2742,-58 5959,-26 8997,-125 3038,-98 5897,-328 7327,-443 1429,-114 1429,-114 1429,-114 0,0 0,0 -117,265 -116,266 -350,798 -1194,2090 -843,1293 -2297,3346 -3795,5192 -1498,1847 -3040,3486 -4493,4871 -1454,1385 -2819,2516 -4391,3745 -1573,1228 -3353,2552 -4754,3533 -1401,980 -2424,1617 -3282,2734 -857,1117 -1550,2716 -2250,4866 -701,2150 -1410,4852 -1764,6203 -354,1351 -354,1351 -437,1057 -83,-294 -248,-882 -576,-1959 -328,-1077 -819,-2643 -1192,-3849 -372,-1206 -626,-2052 -1028,-3075 -403,-1022 -955,-2222 -1766,-3219 -811,-996 -1883,-1790 -3330,-2871 -1448,-1081 -3272,-2450 -4818,-3644zm-20834 -18772c-553,455 -1106,910 -1476,1396 -371,485 -559,1000 -534,1904 25,904 262,2197 822,3691 560,1493 1442,3187 2403,4728 961,1541 2001,2928 3262,4394 1261,1466 2742,3012 4443,4533 1702,1521 3624,3017 5279,4265 1654,1248 3041,2249 4054,2948 1013,698 1652,1094 2183,1411 530,318 951,555 1302,781 352,225 634,438 996,1045 361,608 802,1609 1253,3206 452,1596 915,3788 1217,5618 303,1829 444,3295 589,4342 145,1046 293,1673 387,2174 95,502 134,878 159,1068 25,189 35,192 155,228 120,36 350,105 1003,91 653,-13 1728,-110 2755,-219 1028,-109 2009,-230 3222,-266 1212,-36 2656,13 3805,101 1150,88 2004,215 2498,283 495,68 628,78 729,53 100,-25 167,-84 221,-189 55,-106 97,-257 195,-902 98,-645 251,-1785 405,-2828 153,-1043 307,-1991 592,-3488 285,-1497 703,-3544 1047,-5148 345,-1603 617,-2762 1110,-3634 493,-872 1206,-1456 2068,-2046 862,-589 1873,-1184 3705,-2462 1833,-1278 4489,-3240 6827,-5214 2338,-1974 4359,-3960 5915,-5768 1555,-1809 2645,-3438 3633,-5004 989,-1565 1875,-3066 2334,-4597 458,-1531 487,-3091 292,-4082 -196,-991 -617,-1412 -1063,-1817 -380,-345 -778,-678 -1128,-1070 -85,-20 -216,-75 -542,-280 -376,-237 -1013,-673 -1653,-1175 -640,-503 -1284,-1073 -1927,-1636 -643,-564 -1284,-1121 -2276,-1546 -992,-425 -2335,-717 -3667,-905 -1333,-188 -2655,-273 -4508,-349 -1853,-77 -4236,-147 -7812,-129 -3577,17 -8348,121 -12720,216 -4373,94 -8349,180 -10440,227 -2091,48 -2297,57 -4089,200 -1793,143 -5171,421 -7294,661 -2123,240 -2990,443 -3695,696 -706,253 -1251,555 -1858,1063 -607,507 -1276,1221 -1989,1849 -713,627 -1471,1170 -1923,1437 -103,61 -190,108 -266,145zm31809 41493c508,8 1069,8 1664,3 595,5 1155,5 1663,-3 1451,-24 2469,-115 3040,-59 571,55 693,257 735,463 42,206 2,416 -133,541 -134,125 -364,165 -517,190 -153,26 -228,38 -279,4 -52,-33 -80,-113 -127,-156 -48,-44 -115,-52 -680,-58 -565,-6 -1627,-10 -2413,-12 -787,-1 -1298,-1 -1809,-1 -229,0 -481,1 -769,1 -787,2 -1849,6 -2414,12 -565,6 -632,14 -680,58 -47,43 -75,123 -126,156 -52,34 -127,22 -280,-4 -152,-25 -382,-65 -517,-190 -135,-125 -174,-335 -133,-541 42,-206 165,-408 735,-463 571,-56 1590,35 3040,59zm2338 3967c1022,0 1958,0 2587,0 866,0 1147,0 1353,12 207,12 337,36 424,97 88,61 131,161 149,277 18,117 10,252 -67,397 -78,144 -224,299 -369,351 -145,51 -287,-1 -394,-44 -107,-44 -179,-79 -559,-93 -380,-14 -1070,-6 -1849,-2 -778,4 -1646,4 -2514,4 -420,-1 -829,-2 -1216,-4 -779,-4 -1468,-12 -1849,2 -380,14 -451,49 -558,93 -107,43 -250,95 -395,44 -144,-52 -291,-207 -368,-351 -78,-145 -86,-280 -68,-397 18,-116 62,-216 149,-277 87,-61 218,-85 424,-97 206,-12 487,-12 1353,-12 866,0 2317,0 3767,0z"/>
</svg>
