<?xml version="1.0" encoding="UTF-8"?>
<!DOCTYPE svg PUBLIC "-//W3C//DTD SVG 1.1//EN" "http://www.w3.org/Graphics/SVG/1.1/DTD/svg11.dtd">
<!-- Creator: CorelDRAW 2021 (64-Bit) -->
<svg xmlns="http://www.w3.org/2000/svg" xml:space="preserve" width="240px" height="296px" version="1.1" shape-rendering="geometricPrecision" text-rendering="geometricPrecision" image-rendering="optimizeQuality" fill-rule="evenodd" clip-rule="evenodd"
viewBox="0 0 224.82 287.176"
 xmlns:xlink="http://www.w3.org/1999/xlink"
 xmlns:xodm="http://www.corel.com/coreldraw/odm/2003">
  <path class="fundo_gola" d="M110.072 9.233c-6.683,-0.043 -10.903,-0.261 -15.068,-0.649 -3.903,-0.364 -7.757,-0.878 -11.608,-1.402 -0.083,0.649 -0.058,1.249 0.146,2.125 0.257,1.102 0.795,2.639 1.886,4.592 1.091,1.954 2.735,4.324 4.412,6.278 1.678,1.954 3.388,3.493 5.051,4.659 1.663,1.166 3.278,1.959 5.227,2.718 1.95,0.76 4.234,1.487 6.195,2.024 1.961,0.536 3.6,0.884 4.685,1.185 1.085,0.301 1.617,0.556 2.005,0.817 0.388,0.26 0.633,0.526 0.761,0.649 0.128,0.122 0.141,0.102 0.168,0.076 0.027,-0.026 0.069,-0.056 0.378,-0.244 0.31,-0.189 0.887,-0.535 2.01,-0.896 1.123,-0.362 2.791,-0.737 4.827,-1.17 2.036,-0.433 4.44,-0.924 6.473,-1.646 2.032,-0.723 3.693,-1.675 5.282,-2.712 1.59,-1.036 3.108,-2.155 4.707,-3.995 1.6,-1.84 3.281,-4.4 4.346,-6.512 1.065,-2.111 1.514,-3.773 1.729,-4.972 0.215,-1.198 0.196,-1.934 0.186,-2.302 0,-0.02 -0.001,-0.039 -0.001,-0.057 -0.225,0.034 -0.521,0.077 -0.911,0.133 -1.591,0.225 -4.751,0.655 -10.904,0.935 -6.154,0.28 -15.299,0.41 -21.982,0.366z"/>
</svg>
