<?xml version="1.0" encoding="UTF-8"?>
<!DOCTYPE svg PUBLIC "-//W3C//DTD SVG 1.1//EN" "http://www.w3.org/Graphics/SVG/1.1/DTD/svg11.dtd">
<!-- Creator: CorelDRAW 2018 (64 Bit Versão de avaliação) -->
<svg xmlns="http://www.w3.org/2000/svg" xml:space="preserve" width="258px" height="296px" version="1.1" shape-rendering="geometricPrecision" text-rendering="geometricPrecision" image-rendering="optimizeQuality" fill-rule="evenodd" clip-rule="evenodd" viewBox="0 0 250902 288186" xmlns:xlink="http://www.w3.org/1999/xlink">
	<path class="fundo_gola" d="M122338 45421c1219,1428 2342,2932 2931,3706 317,418 479,623 568,730 140,0 299,-11 489,-26 123,-263 301,-579 773,-1168 580,-724 1603,-1864 2618,-3015 1017,-1149 2027,-2308 3838,-4151 1811,-1845 4423,-4372 6486,-6389 2063,-2018 3578,-3526 4752,-4788 1175,-1263 2008,-2278 2816,-3298 808,-1020 1589,-2043 2433,-3231 844,-1188 1750,-2543 2446,-3794 697,-1252 1186,-2397 1541,-3378 355,-980 576,-1795 756,-2898 178,-1105 315,-2499 383,-3274 69,-775 69,-931 69,-1009 0,-79 0,-79 0,-79 0,0 0,0 -670,131 -672,130 -2013,391 -4303,553 -2290,163 -5528,228 -9677,323 -4150,94 -9212,217 -13888,299 -4678,81 -8970,121 -11529,145 -2558,25 -3382,34 -4206,44 -1758,7 -3517,13 -5084,10 -1566,-3 -2941,-16 -4231,-91 -1290,-75 -2495,-212 -3225,-316 -729,-104 -983,-176 -1110,-212 -127,-36 -127,-36 -111,388 17,423 50,1270 205,2308 157,1040 437,2271 913,3620 475,1348 1146,2813 2123,4429 977,1615 2260,3380 3325,4778 1066,1397 1913,2426 2984,3586 1072,1159 2368,2449 4361,4459 1993,2009 4684,4738 6686,6781 2004,2042 3320,3398 4539,4827l-1 0z"/>
</svg>
