<?xml version="1.0" encoding="utf-8"?>
<!-- Generator: Adobe Illustrator 19.0.0, SVG Export Plug-In . SVG Version: 6.00 Build 0)  -->
<svg version="1.1" xmlns="http://www.w3.org/2000/svg" xmlns:xlink="http://www.w3.org/1999/xlink" x="0px" y="0px"
	width="420px" height="500px" viewBox="0 0 420 500" enable-background="new 0 0 420 500" xml:space="preserve"
	image-rendering="optimizeQuality" text-rendering="geometricPrecision" shape-rendering="geometricPrecision">
	<path d="M172.1,16.8c-1.8-0.2-3.7-0.5-5.2-0.8c-1.5-0.2-2.6-0.4-3.8-0.5c-1.2-0.1-2.4-0.2-3.6-0.4
	s-2.4-0.2-3.2-0.3c-0.7,0-1-0.1-1.3-0.1c0.1,0.2,0.1,0.4,0.2,0.6c0.4,1.1,1,2.2,1.6,3.5c0.6,1.2,1.3,2.6,2.3,4.3
	c1,1.7,2.3,3.7,3.4,5.2s2.1,2.5,3.1,3.5c1.1,1,2.2,1.9,3.3,2.8c1.1,0.8,2.2,1.6,3.6,2.4c1.4,0.8,3.2,1.8,5.4,2.7
	c2.2,0.9,4.7,1.7,7.4,2.5c2.7,0.8,5.4,1.5,8,2c2.5,0.6,4.9,1,7.2,1.3c2.3,0.3,4.5,0.4,6.4,0.5c1.9,0,3.4,0,4.9-0.2
	c1.5-0.1,2.9-0.2,4.7-0.5c1.7-0.2,3.7-0.5,5.7-0.9c1.9-0.4,3.8-0.8,5.4-1.3c1.7-0.5,3.2-0.9,4.6-1.4c1.4-0.4,2.8-0.8,4.2-1.4
	c1.4-0.5,2.7-1.2,4-1.8c1.3-0.7,2.7-1.4,4-2.3c1.4-0.9,2.7-1.9,4-2.9c1.2-1,2.3-2,3.4-3.1c1.1-1.1,2-2.3,3-3.5
	c0.9-1.2,1.8-2.4,2.6-3.7c0.8-1.3,1.6-2.6,2.2-3.7c0.7-1.2,1.2-2.2,1.5-2.8c0.2-0.3,0.3-0.5,0.3-0.7c-0.5,0-1.1,0.1-1.8,0.1
	c-1,0.1-2.2,0.1-3.4,0.2s-2.2,0.2-4,0.4c-1.9,0.2-4.5,0.6-7.4,0.9c-2.8,0.3-5.8,0.4-8.4,0.6c-2.7,0.1-5.1,0.2-7.2,0.3
	c-2.1,0.1-3.9,0.1-6.6,0.2c-2.7,0-6.3,0.1-9.4,0.1c-3.2,0-5.9,0-8.8-0.1c-2.9-0.1-5.8-0.1-9.1-0.2c-3.2-0.1-6.8-0.2-9.8-0.3
	c-3.1-0.1-5.7-0.3-7.9-0.5C175.5,17.3,173.9,17.1,172.1,16.8z"/>
</svg>
