<?xml version="1.0" encoding="utf-8"?>
<!-- Generator: Adobe Illustrator 15.0.0, SVG Export Plug-In . SVG Version: 6.00 Build 0)  -->
<!DOCTYPE svg PUBLIC "-//W3C//DTD SVG 1.1//EN" "http://www.w3.org/Graphics/SVG/1.1/DTD/svg11.dtd">
<svg version="1.1" xmlns="http://www.w3.org/2000/svg" xmlns:xlink="http://www.w3.org/1999/xlink" x="0px" y="0px" width="37.141px" height="42px" viewBox="0 0 37.141 42" enable-background="new 0 0 37.141 42" xml:space="preserve">
	<path fill="#A6A6A6" d="M28.592,8.844c1.322,0.563,2.59,1.25,3.773,2.071l0.537,0.374l0.166,0.632
	c0.592,2.25,0.885,4.573,0.859,6.897c0.498,0.034,0.986,0.146,1.441,0.368c0.58,0.284,1.055,0.718,1.363,1.286
	c0.279,0.509,0.408,1.071,0.408,1.65c0,0.317-0.039,0.639-0.102,0.953l-0.01,0.022L36.096,27.4
	c-0.215,0.976-0.701,1.824-1.451,2.484c-0.822,0.723-1.842,1.045-2.926,1.045c-0.316,0-0.633-0.025-0.941-0.089
	c-2.545,4.65-6.449,8.384-11.197,10.763L18.787,42l-0.793-0.396c-4.757-2.385-8.666-6.123-11.211-10.787H0l2.617-11.894h1.031
	c-0.036-2.358,0.256-4.721,0.857-7.002l0.166-0.632l0.538-0.374c1.183-0.819,2.447-1.508,3.771-2.069
	C8.99,8.74,9.004,8.635,9.02,8.529C9.035,8.42,9.049,8.312,9.071,8.204c0.051-0.252,0.086-0.501,0.156-0.75l0.164-0.581
	C9.406,6.82,9.425,6.765,9.446,6.712l0.352-0.894l0.02-0.049L9.82,5.763c0.063-0.144,0.134-0.28,0.204-0.421l0.006-0.01l0.025-0.049
	l0.229-0.411l0.025-0.045c0.148-0.249,0.31-0.493,0.479-0.729c0.191-0.263,0.391-0.521,0.608-0.763l0.009-0.01l0.033-0.038
	l0.029-0.032c0.234-0.281,0.539-0.578,0.822-0.81l0.154-0.133c0.04-0.035,0.078-0.068,0.118-0.099L12.579,2.2l0.05-0.041
	l0.148-0.119l0.027-0.019l0.028-0.022c0.042-0.035,0.087-0.067,0.131-0.099l0.009-0.005L13.104,1.8
	c0.271-0.196,0.556-0.37,0.846-0.537c0.241-0.14,0.49-0.268,0.749-0.379c0.069-0.03,0.139-0.063,0.208-0.093l0.047-0.018
	l0.726-0.274l0.054-0.018l0.006-0.001c0.067-0.022,0.135-0.041,0.199-0.062c0.146-0.047,0.293-0.079,0.439-0.121
	c0.187-0.055,0.373-0.087,0.563-0.125c0.282-0.057,0.57-0.102,0.844-0.122c0.121-0.013,0.236-0.027,0.346-0.027
	c0.104-0.004,0.211-0.02,0.316-0.021L18.489,0h0.457c0.396,0,0.793,0.029,1.186,0.087c0.383,0.056,0.764,0.125,1.141,0.227
	c0.262,0.07,0.525,0.147,0.785,0.238c0.221,0.077,0.439,0.163,0.652,0.255c0.201,0.088,0.396,0.185,0.594,0.284l0.047,0.024
	l0.25,0.137l0.053,0.027c0.045,0.025,0.088,0.051,0.133,0.078l0.609,0.392l0.068,0.045L24.469,1.8
	c0.18,0.132,0.361,0.256,0.533,0.403l0.063,0.051l0.031,0.028l0.379,0.334c0.176,0.148,0.34,0.315,0.494,0.488l0.305,0.338
	c0.201,0.226,0.371,0.47,0.555,0.712c0.145,0.194,0.275,0.399,0.398,0.606l0.031,0.054l0.441,0.815l0.021,0.042
	c0.043,0.088,0.086,0.18,0.125,0.272c0.121,0.283,0.217,0.571,0.314,0.862c0.074,0.221,0.131,0.445,0.191,0.67
	c0.016,0.049,0.023,0.099,0.033,0.149l0.031,0.125l0.002,0.014c0.061,0.262,0.105,0.529,0.141,0.795
	C28.571,8.654,28.58,8.749,28.592,8.844z M16.141,9.802v5.242c0.041,0.013,0.071,0.02,0.081,0.021
	c0.021-0.034,0.049-0.055,0.078-0.088c0.027-0.028,0.054-0.062,0.081-0.093c0.035-0.04,0.144-0.154,0.159-0.191
	c0.001-0.002,0.003-0.005,0.003-0.004c0.001,0.002,0.003-0.002,0.004-0.002l0.011-0.01c0.011-0.012,0.01-0.012,0.02-0.023
	l0.117-0.142c0.031-0.035,0.135-0.16,0.151-0.194l0.074-0.088c0.026-0.034,0.046-0.058,0.073-0.093
	c0.033-0.044,0.123-0.15,0.145-0.192c0.022-0.009,0.057-0.065,0.073-0.087l0.072-0.094c0.044-0.055,0.112-0.135,0.145-0.195
	c0.027-0.012,0.361-0.479,0.416-0.544c0.023-0.033,0.046-0.063,0.071-0.098c0.042-0.056,0.034-0.041,0.007-0.11l-0.094-0.226
	c-0.008-0.012-0.005-0.009-0.012-0.014c0.002-0.028-0.07-0.195-0.091-0.244l-0.018-0.042l-0.021-0.038
	c0-0.03-0.188-0.49-0.203-0.501c-0.002-0.038-0.047-0.151-0.071-0.175c-0.002-0.029-0.071-0.195-0.092-0.241
	c-0.01-0.022-0.023-0.063-0.039-0.081c0-0.019-0.122-0.331-0.145-0.355c0-0.028-0.062-0.179-0.081-0.198
	c0-0.031-0.083-0.234-0.102-0.251c-0.002-0.023-0.129-0.353-0.151-0.374c0-0.017-0.018-0.068-0.029-0.083
	C16.758,9.974,16.426,9.88,16.141,9.802L16.141,9.802z M16.141,17.492v1.197v0.759v1.141v1.238v4.229v2.572v1.326v8.146l0,0
	c0.499,0.338,1.012,0.658,1.54,0.965l0,0c0.083,0.049,0.167,0.096,0.251,0.143l0,0l0.042,0.023h0.001l0.042,0.023l0,0l0.041,0.023
	l0,0l0.085,0.047l0,0l0.041,0.021l0,0l0.044,0.022l0,0l0.042,0.022l0,0l0.042,0.022l0.043,0.024l0,0l0.042,0.021l0,0l0.043,0.022
	l0,0l0.044,0.025l0,0l0.042,0.021l0,0l0.043,0.021l0,0l0.043,0.023l0,0l0.042,0.021l0,0l0.045,0.021l0.043,0.021l0.044,0.021
	l0.042-0.021l0.043-0.021l0.043-0.021l0,0l0.043-0.021l0,0l0.042-0.023l0.043-0.021l0,0l0.043-0.021l0,0l0.045-0.025l0.041-0.022
	l0.045-0.021l0,0l0.041-0.024l0.043-0.022l0.043-0.022l0,0l0.041-0.022l0.043-0.021l0.043-0.024l0,0l0.041-0.022l0,0l0.043-0.022
	l0,0l0.084-0.048l0,0c0.615-0.344,1.215-0.715,1.791-1.105l0,0v-7.965v-1.214V27.18v-7.625v-0.868v-1.193l0,0
	c-0.242,0.083-0.486,0.148-0.736,0.215c-0.014,0.006-0.033,0.007-0.053,0.012c-0.225,0.057-0.443,0.095-0.676,0.129
	c-0.484,0.071-0.834,0.083-1.333,0.083c-0.321,0-0.842-0.041-1.147-0.102c-0.136-0.028-0.28-0.046-0.415-0.077
	c-0.264-0.062-0.523-0.125-0.778-0.209C16.241,17.528,16.191,17.51,16.141,17.492z M21.432,17.132v-0.313l-0.092,0.003
	c-0.111,0.005-0.162,0.029-0.26,0.056c-0.166,0.049-0.332,0.09-0.5,0.127c-0.086,0.02-0.172,0.038-0.26,0.055
	c-0.068,0.014-0.199,0.028-0.262,0.047c-0.299,0.034-0.566,0.074-0.875,0.083c-0.447,0.015-0.892-0.017-1.32-0.113
	c-0.261-0.058-0.128-0.075-0.372,0.009c-0.192,0.066-0.358,0.114-0.557,0.159c-0.063,0.013-0.139,0.024-0.201,0.04l-0.07,0.015
	c0.075,0.03,0.385,0.101,0.48,0.122c1.058,0.231,2.235,0.235,3.29-0.001c0.082-0.019,0.166-0.038,0.246-0.057
	c0.047-0.011,0.203-0.046,0.23-0.069C20.944,17.296,21.321,17.18,21.432,17.132z M21.432,16.47v-3.548
	c-0.09-0.104-0.037-0.085-0.244-0.07l-2.829,0.201c-0.056,0.004-0.154-0.009-0.17,0.079c-0.013,0.008-0.004,0-0.013,0.011
	l-0.033,0.042c-0.014,0.017-0.026,0.036-0.04,0.054c-0.042,0.056-0.231,0.306-0.24,0.328l-0.085,0.105
	c-0.009,0.014-0.005,0.006-0.008,0.018l-0.276,0.356c-0.002,0.004-0.003,0.005-0.003,0.005c0,0.002-0.002,0.004-0.002,0.008
	c-0.002,0.001-0.005,0.001-0.005,0.004L17.448,14.1c-0.033,0.045-0.247,0.308-0.255,0.337c-0.01,0.005-0.19,0.211-0.194,0.245
	c-0.026,0.016-0.024,0.018-0.041,0.041c-0.014,0.016-0.027,0.034-0.04,0.048c-0.02,0.022-0.065,0.076-0.072,0.097
	c-0.025,0.014-0.06,0.063-0.082,0.088c-0.029,0.034-0.049,0.059-0.081,0.095l-0.156,0.185c-0.015,0.01-0.013-0.016-0.012,0.021
	c0.022,0.012,0.105,0.123,0.128,0.151c0.027,0.035,0.101,0.134,0.127,0.151l0.244,0.305l0.143,0.18
	c0.008,0.007,0.007,0.006,0.009,0.009l0.151,0.189c0.008,0.012,0.129,0.177,0.151,0.188c0.007,0.014,0.132,0.181,0.151,0.188
	l0.114,0.15c0.064,0.077,0.042,0.062,0.178,0.091c0.146,0.034,0.299,0.059,0.45,0.076c0.333,0.038,0.678,0.045,1.018,0.022
	c0.539-0.034,1.061-0.133,1.572-0.276c0.049-0.013,0.176-0.039,0.205-0.064c0.037,0.002,0.148-0.04,0.189-0.054
	c0.035-0.013,0.045-0.036,0.063-0.061C21.418,16.49,21.426,16.479,21.432,16.47z M17.591,8.965L17.591,8.965
	c-0.484,0.038-0.969,0.087-1.45,0.148v0.34l0.12,0.033c0.12,0.034,0.237,0.065,0.355,0.101c0.202,0.061,0.151,0.083,0.309-0.057
	c0.059-0.051,0.478-0.39,0.499-0.424L17.591,8.965z M17.49,14.05C17.489,14.052,17.49,14.046,17.49,14.05z M26.723,14.553v5.002
	v1.138v1.627v5.392v1.246v1.163v3.07c0.99-1.246,1.846-2.582,2.561-3.988c0.236-0.467,0.459-0.939,0.662-1.42
	c0.871-2.04,1.457-4.201,1.729-6.429c0.059-0.5,0.104-1.001,0.131-1.507c0.119-2.095-0.043-4.233-0.508-6.368v-0.008l-0.023-0.106
	l-0.002-0.006l-0.023-0.108v-0.003l-0.025-0.111v-0.002l-0.027-0.111v-0.001L31.17,12.91v-0.001l-0.029-0.111v-0.002l-0.027-0.109
	v-0.002l-0.002-0.002v-0.001v-0.001L31.11,12.68v-0.001v-0.003V12.67v-0.001l-0.002-0.002v-0.001v-0.002v-0.002l-0.002-0.002v-0.002
	v-0.002v-0.002v-0.001V12.65l-0.018-0.066h-0.002v-0.002V12.58v-0.002v-0.001v-0.001l-0.002-0.002V12.57v-0.002v-0.001l-0.002-0.002
	l-0.047-0.032l-0.045-0.031l-0.049-0.033l0,0l-0.047-0.031l-0.045-0.031l-0.051-0.03l-0.045-0.032l-0.047-0.03l-0.045-0.03
	l-0.051-0.033l-0.047-0.028l0,0l-0.047-0.03l0,0l-0.049-0.031l0,0l-0.047-0.029l0,0c-0.047-0.03-0.096-0.059-0.145-0.087l0,0
	l-0.047-0.03l0,0l-0.098-0.057l0,0c-0.641-0.383-1.299-0.724-1.973-1.026l0,0L28.11,10.91l0,0l-0.051-0.02l0,0l-0.051-0.023
	l-0.051-0.023c-0.365-0.158-0.734-0.306-1.105-0.443l0,0c-0.004,0.027-0.004,0.055-0.004,0.081c0,0.082-0.02,0.156-0.023,0.23
	c-0.006,0.134-0.031,0.314-0.059,0.441c-0.016,0.079-0.027,0.16-0.043,0.241V14.553L26.723,14.553z M10.85,14.556v-3.161
	l-0.008-0.039c-0.03-0.15-0.114-0.711-0.114-0.876c0-0.026-0.001-0.054-0.003-0.081c-0.375,0.137-0.746,0.287-1.113,0.446
	c-0.76,0.332-1.502,0.711-2.22,1.143l0,0l-0.095,0.059l0,0l-0.048,0.027l0,0l-0.048,0.03l0,0l-0.047,0.03l0,0l-0.049,0.029l0,0
	l-0.046,0.03H7.057l-0.047,0.03l0,0l-0.047,0.03l0,0l-0.047,0.031l0,0l-0.048,0.03l-0.048,0.031l-0.047,0.031l0,0l-0.046,0.031l0,0
	l-0.046,0.031l-0.047,0.031H6.633l-0.046,0.032L6.54,12.532l-0.046,0.032l-0.028,0.11l-0.028,0.109l0,0l-0.025,0.109l-0.027,0.111
	l0,0c-0.017,0.073-0.033,0.146-0.05,0.219l-0.025,0.11l-0.023,0.109l0,0l-0.026,0.11l0,0l-0.023,0.11l0,0L6.215,13.77l0,0
	c-0.396,1.939-0.542,3.878-0.46,5.784c0.016,0.381,0.042,0.76,0.076,1.138c0.039,0.419,0.09,0.835,0.149,1.25
	c0.106,0.727,0.247,1.443,0.419,2.154c0.025,0.104,0.053,0.209,0.079,0.313c0.24,0.931,0.536,1.843,0.888,2.735
	c0.242,0.619,0.513,1.229,0.808,1.824c0.222,0.449,0.459,0.893,0.708,1.326c0.583,1.01,1.239,1.977,1.968,2.895v-0.002v-3.295v-1.35
	V24.52v-2.675v-1.257v-1.14V14.556z M7.103,30.074c2.396,4.604,6.229,8.482,11.173,10.964l0.511,0.256l0.511-0.256
	c4.936-2.476,8.766-6.351,11.162-10.945c0.395,0.147,0.824,0.207,1.258,0.207c0.93,0,1.803-0.271,2.508-0.89
	c0.65-0.572,1.068-1.303,1.25-2.146l0.941-4.3l0.004-0.021c0.053-0.27,0.088-0.547,0.088-0.822c0-0.473-0.104-0.93-0.328-1.347
	c-0.25-0.454-0.625-0.794-1.088-1.021c-0.467-0.229-0.98-0.313-1.494-0.313c-0.105,0-0.213,0.004-0.32,0.011
	c0.092-2.428-0.174-4.907-0.822-7.37l-0.105-0.408l-0.344-0.24c-1.27-0.879-2.615-1.589-4.018-2.154
	c-0.012-0.214-0.031-0.43-0.059-0.643c-0.029-0.247-0.072-0.49-0.129-0.732V7.888l-0.035-0.134
	c-0.004-0.039-0.012-0.075-0.023-0.113c-0.059-0.213-0.111-0.427-0.184-0.636c-0.092-0.279-0.178-0.542-0.293-0.813
	c-0.035-0.081-0.07-0.16-0.111-0.238l-0.014-0.032l-0.436-0.8l-0.021-0.036c-0.113-0.191-0.23-0.376-0.363-0.553
	c-0.17-0.227-0.328-0.457-0.518-0.669l-0.305-0.338c-0.127-0.145-0.287-0.306-0.438-0.433l-0.383-0.338L24.66,2.739l-0.064-0.051
	c-0.162-0.14-0.326-0.252-0.496-0.376l-0.053-0.035L23.444,1.89c-0.029-0.02-0.061-0.037-0.094-0.053l-0.033-0.019l-0.023-0.015
	l-0.24-0.129l-0.035-0.018c-0.184-0.092-0.369-0.187-0.559-0.268c-0.203-0.087-0.404-0.167-0.609-0.239
	c-0.248-0.086-0.494-0.158-0.744-0.225c-0.352-0.094-0.705-0.159-1.064-0.211c-0.359-0.051-0.732-0.081-1.095-0.081H18.49h-0.03
	c-0.106,0.004-0.21,0.019-0.315,0.022c-0.104,0-0.196,0.015-0.302,0.025c-0.259,0.02-0.523,0.06-0.782,0.111
	c-0.171,0.035-0.338,0.063-0.508,0.113c-0.139,0.039-0.279,0.068-0.42,0.114c-0.064,0.021-0.13,0.039-0.195,0.061l-0.042,0.014
	l-0.719,0.271l-0.029,0.011c-0.066,0.028-0.131,0.059-0.196,0.088c-0.233,0.102-0.465,0.22-0.686,0.348
	c-0.271,0.156-0.536,0.316-0.786,0.5l-0.136,0.096l-0.011,0.008l-0.013,0.007c-0.033,0.023-0.066,0.049-0.1,0.076l-0.039,0.03
	L13.16,2.544l-0.138,0.107l-0.048,0.04L12.951,2.71c-0.033,0.026-0.066,0.054-0.099,0.082l-0.009,0.009l-0.15,0.128
	c-0.235,0.193-0.553,0.503-0.752,0.744L11.906,3.71l-0.03,0.036L11.863,3.76c-0.201,0.225-0.388,0.464-0.564,0.709
	c-0.159,0.22-0.31,0.448-0.447,0.683l-0.019,0.031l-0.222,0.4l-0.022,0.042c-0.064,0.13-0.132,0.257-0.188,0.39l-0.018,0.038
	l-0.347,0.889C10.02,6.978,10.01,7.009,10,7.046L9.836,7.627C9.768,7.861,9.739,8.091,9.691,8.329
	C9.672,8.423,9.659,8.518,9.645,8.615C9.618,8.822,9.588,9.061,9.577,9.282c-1.398,0.565-2.742,1.274-4.009,2.152l-0.346,0.24
	l-0.106,0.408c-0.657,2.498-0.918,5.011-0.818,7.474H3.124L0.786,30.186h6.293L7.103,30.074z"/>
	<path fill="#0D0D0D" d="M27.913,8.647c1.4,0.564,2.746,1.274,4.016,2.154l0.345,0.24l0.105,0.408
	c0.648,2.462,0.912,4.941,0.821,7.37c0.107-0.007,0.215-0.011,0.321-0.011c0.513,0,1.026,0.084,1.494,0.313
	c0.462,0.227,0.838,0.567,1.088,1.021c0.224,0.417,0.328,0.875,0.328,1.347c0,0.274-0.036,0.554-0.088,0.821l-0.005,0.021
	l-0.94,4.301c-0.183,0.842-0.601,1.572-1.25,2.146c-0.705,0.618-1.578,0.89-2.508,0.89c-0.435,0-0.864-0.06-1.261-0.208
	c-2.396,4.597-6.225,8.472-11.16,10.946l-0.51,0.256l-0.511-0.256c-4.945-2.48-8.777-6.361-11.173-10.965l-0.024,0.111H0.709
	l2.338-10.63h1.176c-0.101-2.463,0.16-4.976,0.817-7.474l0.106-0.408l0.346-0.24c1.267-0.877,2.61-1.587,4.009-2.152
	c0.01-0.221,0.041-0.46,0.067-0.667c0.015-0.098,0.027-0.192,0.046-0.287C9.661,7.456,9.692,7.226,9.76,6.992l0.163-0.579
	c0.01-0.038,0.021-0.068,0.035-0.104l0.347-0.889c0.006-0.013,0.011-0.024,0.018-0.038c0.057-0.133,0.125-0.26,0.188-0.39
	c0.008-0.014,0.014-0.028,0.022-0.042l0.222-0.4c0.006-0.01,0.012-0.021,0.019-0.031c0.138-0.235,0.288-0.463,0.447-0.683
	c0.177-0.245,0.364-0.485,0.564-0.709c0.005-0.005,0.01-0.011,0.014-0.014c0.011-0.012,0.02-0.023,0.029-0.036l0.036-0.037
	c0.199-0.241,0.517-0.55,0.752-0.744l0.15-0.128c0.004-0.004,0.005-0.006,0.009-0.009c0.032-0.028,0.065-0.056,0.099-0.082
	c0.008-0.008,0.015-0.013,0.023-0.019c0.018-0.016,0.031-0.026,0.048-0.04l0.138-0.107c0.009-0.007,0.015-0.012,0.021-0.017
	c0.013-0.011,0.027-0.019,0.039-0.03c0.033-0.027,0.066-0.052,0.1-0.076c0.005-0.003,0.009-0.005,0.013-0.007
	c0.005-0.003,0.007-0.006,0.011-0.008l0.136-0.096c0.25-0.184,0.517-0.344,0.785-0.499c0.221-0.127,0.452-0.246,0.686-0.348
	c0.065-0.029,0.13-0.06,0.196-0.088c0.01-0.004,0.021-0.007,0.029-0.011l0.719-0.271c0.017-0.005,0.028-0.011,0.042-0.014
	c0.064-0.022,0.131-0.04,0.195-0.061c0.141-0.046,0.281-0.075,0.42-0.114c0.169-0.05,0.336-0.079,0.508-0.113
	c0.259-0.051,0.523-0.091,0.782-0.111c0.104-0.011,0.198-0.025,0.302-0.025C18.172,0.019,18.276,0.004,18.382,0
	c0.01,0,0.02,0,0.028,0h0.457c0.361,0,0.733,0.03,1.095,0.081c0.358,0.052,0.714,0.117,1.063,0.211
	c0.251,0.067,0.497,0.139,0.744,0.225c0.205,0.072,0.407,0.152,0.609,0.239c0.189,0.083,0.376,0.176,0.56,0.268
	c0.015,0.006,0.023,0.011,0.035,0.018l0.239,0.129c0.01,0.005,0.016,0.009,0.024,0.015c0.013,0.004,0.024,0.013,0.033,0.019
	c0.032,0.017,0.063,0.033,0.094,0.053l0.604,0.387c0.019,0.012,0.033,0.022,0.053,0.035c0.17,0.125,0.335,0.237,0.496,0.376
	c0.021,0.016,0.044,0.034,0.064,0.051c0.006,0.006,0.012,0.011,0.019,0.016l0.383,0.338c0.149,0.127,0.311,0.288,0.438,0.433
	l0.306,0.338c0.188,0.213,0.348,0.443,0.518,0.669c0.133,0.176,0.249,0.362,0.362,0.553c0.008,0.012,0.013,0.023,0.022,0.036
	l0.435,0.8c0.007,0.011,0.01,0.021,0.016,0.033c0.041,0.078,0.075,0.157,0.11,0.238c0.116,0.271,0.202,0.534,0.294,0.813
	c0.071,0.209,0.125,0.422,0.184,0.636c0.012,0.038,0.02,0.074,0.023,0.113l0.034,0.134c0,0.006,0,0.01,0.001,0.016
	c0.056,0.242,0.099,0.486,0.129,0.732C27.88,8.217,27.901,8.433,27.913,8.647z M30.388,20.399c0.181-0.258,0.394-0.495,0.638-0.709
	c0.313-0.273,0.658-0.479,1.025-0.622c0.119-2.412-0.127-4.879-0.772-7.331c-1.042-0.721-2.167-1.342-3.372-1.86
	c0,0.093-0.011,0.175-0.021,0.268c-0.011,0.197-0.041,0.405-0.08,0.598c-0.029,0.15-0.048,0.299-0.084,0.45l-0.03,0.125
	c-0.007,0.044-0.018,0.087-0.027,0.124c-0.011,0.034-0.017,0.066-0.024,0.097c-0.051,0.18-0.096,0.358-0.155,0.535
	c-0.002,0.005-0.005,0.01-0.006,0.014l-0.099,0.279c-0.005,0.014-0.012,0.027-0.015,0.035c-0.013,0.037-0.022,0.072-0.039,0.106
	c-0.011,0.03-0.021,0.06-0.032,0.089c-0.068,0.167-0.137,0.335-0.216,0.5c-0.114,0.24-0.236,0.479-0.368,0.712
	c-0.088,0.158-0.184,0.312-0.285,0.462c-0.003,0.004-0.005,0.007-0.007,0.011l-0.201,0.295c-0.008,0.011-0.014,0.017-0.018,0.026
	c-0.021,0.029-0.042,0.059-0.064,0.086c-0.004,0.005-0.006,0.007-0.007,0.01l-0.153,0.202c-0.106,0.143-0.222,0.278-0.341,0.412
	c-0.003,0.004-0.006,0.007-0.011,0.01c-0.023,0.03-0.051,0.059-0.076,0.087c-0.151,0.182-0.361,0.389-0.536,0.542l-0.122,0.116
	c-0.027,0.024-0.052,0.047-0.079,0.068c-0.014,0.012-0.024,0.024-0.039,0.034l-0.118,0.1c-0.058,0.051-0.119,0.102-0.184,0.152
	c-0.189,0.15-0.373,0.298-0.581,0.429l-0.124,0.082c-0.028,0.021-0.061,0.04-0.09,0.058c-0.498,0.33-1.045,0.597-1.604,0.817
	c-0.012,0.005-0.024,0.01-0.041,0.015c-0.019,0.009-0.038,0.018-0.059,0.025c-0.344,0.133-0.696,0.229-1.053,0.326
	c-0.034,0.009-0.07,0.019-0.106,0.025c-0.25,0.062-0.5,0.105-0.756,0.143c-0.51,0.075-0.983,0.095-1.499,0.095
	c-0.428,0-0.952-0.04-1.373-0.124c-0.15-0.03-0.3-0.05-0.451-0.086c-0.296-0.069-0.591-0.141-0.879-0.238
	c-0.271-0.089-0.535-0.19-0.798-0.3c-0.196-0.082-0.383-0.178-0.574-0.273c-0.109-0.054-0.214-0.121-0.324-0.176
	c-0.174-0.089-0.338-0.196-0.501-0.304c-0.004-0.005-0.01-0.006-0.015-0.011l-0.295-0.204c-0.007-0.004-0.013-0.009-0.021-0.014
	c-0.029-0.021-0.06-0.042-0.089-0.064c-0.117-0.088-0.229-0.167-0.34-0.262c-0.014-0.012-0.027-0.023-0.041-0.033
	c-0.028-0.022-0.053-0.045-0.081-0.069c-0.016-0.013-0.033-0.028-0.05-0.042c-0.061-0.05-0.114-0.101-0.171-0.153
	c-0.133-0.107-0.246-0.225-0.367-0.347c-0.003-0.002-0.008-0.005-0.012-0.009l-0.245-0.254c-0.008-0.007-0.013-0.014-0.021-0.021
	c-0.126-0.137-0.24-0.283-0.361-0.423c-0.032-0.037-0.062-0.073-0.089-0.111c-0.19-0.234-0.358-0.483-0.523-0.736
	c-0.16-0.243-0.307-0.492-0.433-0.753l-0.163-0.329c-0.007-0.017-0.015-0.031-0.021-0.048c-0.287-0.654-0.464-1.173-0.626-1.872
	c-0.018-0.079-0.032-0.159-0.047-0.239c-0.063-0.308-0.134-0.756-0.138-1.067c-1.206,0.518-2.33,1.139-3.372,1.86
	c-0.632,2.401-0.879,4.819-0.779,7.185h3.819l-0.073,0.334c0.59-0.313,1.252-0.449,1.938-0.449c0.762,0,1.478,0.242,1.994,0.819
	c0.146,0.161,0.263,0.334,0.358,0.516c0.133-0.16,0.28-0.31,0.442-0.451c0.702-0.615,1.566-0.883,2.492-0.883
	c0.389,0,0.775,0.05,1.142,0.183c0.364,0.131,0.691,0.336,0.958,0.618c0.107,0.113,0.203,0.236,0.287,0.366l0.229-1.052h8.747
	C28.961,18.922,29.946,19.429,30.388,20.399z M29.427,28.836c-0.215-0.225-0.375-0.476-0.49-0.75
	c-0.337,0.457-0.761,0.823-1.272,1.077c-0.563,0.272-1.175,0.39-1.799,0.39h-3.524l0.131-0.604
	c-0.665,0.493-1.451,0.719-2.291,0.719c-0.746,0-1.483-0.18-2.059-0.682c-0.286-0.246-0.494-0.54-0.633-0.864
	c-0.001,0.002-0.002,0.003-0.003,0.005c-0.335,0.481-0.769,0.858-1.287,1.131c-0.542,0.282-1.136,0.41-1.744,0.41
	c-0.775,0-1.539-0.188-2.115-0.732c-0.174-0.164-0.317-0.344-0.435-0.537c-0.148,0.168-0.316,0.326-0.503,0.47
	c-0.713,0.55-1.551,0.801-2.45,0.801c-0.18,0-0.358-0.015-0.532-0.04c2.302,4.08,5.818,7.516,10.292,9.762
	C23.467,37,27.144,33.264,29.427,28.836z"/>
	<path fill="#F5F5F5" d="M6.278,12.064c0.992-0.679,2.035-1.247,3.116-1.717c-0.013-0.12-0.021-0.235-0.021-0.337
	c-1.206,0.519-2.33,1.14-3.372,1.86c-0.632,2.401-0.879,4.819-0.779,7.186h0.317C5.439,16.753,5.674,14.402,6.278,12.064z
	 M25.989,11.578l0.085-0.311l0.046-0.181l0.063-0.311l0.032-0.184l0.029-0.18l0.022-0.188l0.022-0.254l0.021-0.404l0.003-0.211
	L26.314,9.2c-0.001-0.026,0.002-0.133-0.01-0.152c0.021-0.071-0.035-0.591-0.054-0.689c-0.03,0.067-0.276,0.692-0.274,0.726
	L25.948,9.14c-0.028,0.074-0.061,0.116-0.055,0.19c0.002,0.104,0.006,0.208,0.002,0.313c-0.001,0.061-0.02,0.26-0.009,0.301
	l-0.005,0.022l-0.003,0.027l-0.006,0.059c-0.005,0.04-0.013,0.081-0.007,0.118c-0.02,0.027-0.029,0.196-0.034,0.245l-0.029,0.177
	c-0.009,0.026-0.028,0.119-0.023,0.155c-0.007,0.007-0.003,0-0.008,0.017l-0.013,0.059c-0.015,0.063-0.056,0.214-0.052,0.252
	c-0.02,0.025-0.048,0.162-0.056,0.205c-0.014,0.021-0.084,0.261-0.082,0.292l-0.01,0.016l-0.004,0.004l-0.021,0.066
	c-0.01,0.028-0.021,0.059-0.021,0.089c-0.029,0.029-0.048,0.116-0.063,0.158c-0.01,0.035-0.053,0.129-0.053,0.161
	c-0.026,0.026-0.048,0.104-0.064,0.146c-0.014,0.036-0.057,0.125-0.058,0.157c-0.019,0.017-0.117,0.234-0.118,0.259
	c-0.021,0.021-0.081,0.16-0.097,0.188c-0.055,0.11-0.05,0.087-0.029,0.224c0.007,0.108,0.01,0.21,0.004,0.319
	c-0.006,0.105-0.024,0.197-0.032,0.299c0.021-0.017,0.08-0.115,0.098-0.14c0.05-0.075,0.238-0.384,0.262-0.445
	c0,0,0.002-0.005,0.002-0.002l0.024-0.043l0.027-0.051l0.059-0.109c0.032-0.064,0.088-0.164,0.108-0.231
	c0.017-0.013,0.104-0.215,0.114-0.253l0.12-0.297l0.11-0.315L25.989,11.578z M20.219,16.92c0.082-0.019,0.166-0.038,0.246-0.057
	c0.046-0.011,0.203-0.046,0.229-0.069c0.031,0.001,0.408-0.113,0.521-0.162c0.013-0.006,0.022-0.009,0.025-0.014l0.006-0.003
	c0.063,0,0.736-0.295,0.771-0.332c-0.093-0.003-0.203,0.008-0.298,0.012l-0.597,0.027c-0.111,0.005-0.163,0.029-0.261,0.056
	c-0.166,0.049-0.332,0.09-0.5,0.127c-0.086,0.021-0.171,0.038-0.259,0.056c-0.069,0.014-0.199,0.027-0.263,0.047
	c-0.299,0.034-0.565,0.074-0.875,0.083c-0.446,0.015-0.89-0.018-1.319-0.113c-0.261-0.058-0.128-0.075-0.373,0.009
	c-0.191,0.066-0.357,0.114-0.556,0.159c-0.063,0.013-0.139,0.024-0.201,0.04L16.448,16.8c0.075,0.03,0.385,0.102,0.48,0.122
	C17.986,17.153,19.163,17.156,20.219,16.92z M21.153,2.816c0.315,0.103,0.828,0.321,1.128,0.492c0.031,0.018,0.128,0.075,0.153,0.08
	c0.022,0.021,0.111,0.068,0.145,0.086l0.14,0.083c0.428,0.268,0.912,0.613,1.288,0.951c0.05,0.043,0.065,0.034,0.17,0.057
	c0.154,0.028,0.437,0.094,0.563,0.11c-0.021-0.045-0.104-0.142-0.139-0.183c-0.139-0.175-0.294-0.346-0.445-0.509
	c-0.044-0.046-0.106-0.104-0.159-0.159c-0.065-0.071-0.183-0.165-0.245-0.231c-0.019-0.019-0.06-0.054-0.082-0.074
	c-0.053-0.039-0.13-0.119-0.184-0.146c-0.005-0.02-0.142-0.117-0.156-0.131c-0.058-0.045-0.112-0.086-0.17-0.128
	c-0.31-0.234-0.747-0.502-1.101-0.678C21.58,2.198,21.081,2,20.555,1.864c-0.067-0.018-0.178-0.052-0.245-0.057l0.436,0.49
	c0.067,0.087,0.128,0.17,0.193,0.27c0.033,0.048,0.058,0.092,0.089,0.143C21.082,2.796,21.046,2.782,21.153,2.816z M14.552,4.032
	c0.137-0.134,0.589-0.487,0.772-0.608L15.359,3.4l0.012-0.013c0.02-0.005,0.138-0.087,0.167-0.105
	c0.057-0.037,0.11-0.068,0.17-0.104c0.084-0.049,0.061-0.035,0.104-0.169l0.286-0.815c0.021-0.055,0.065-0.153,0.074-0.204
	c-0.124,0.026-0.59,0.219-0.707,0.267c-0.64,0.271-1.242,0.661-1.78,1.089c-0.018,0.014-0.024,0.013-0.027,0.028
	C13.602,3.401,13.546,3.461,13.5,3.5l-0.297,0.269c-0.04,0.039-0.09,0.093-0.141,0.141l-0.271,0.287
	c-0.029,0.034-0.244,0.27-0.253,0.308c-0.036,0.021-0.237,0.301-0.28,0.358c-0.034,0.048-0.243,0.343-0.25,0.383
	c-0.049,0.037-0.357,0.61-0.374,0.662l0.328-0.148c0.39-0.156,0.753-0.229,1.187-0.23c0.03-0.047,0.205-0.244,0.218-0.278
	l0.021-0.017c0.011-0.011,0.008-0.011,0.02-0.024l0.458-0.516c0.037-0.035,0.161-0.157,0.179-0.188
	c0.015-0.006,0.399-0.385,0.468-0.438C14.531,4.053,14.533,4.05,14.552,4.032z M13.017,14.485l0.029-0.217
	c0.004-0.104,0.048-0.233,0.067-0.333c0.026-0.044-0.016-0.083-0.041-0.125c-0.022-0.032-0.06-0.107-0.086-0.126
	c-0.004-0.025-0.012-0.03-0.03-0.063l-0.037-0.063l-0.06-0.106l-0.005-0.004l-0.008-0.009l-0.004-0.004
	c0-0.025-0.071-0.145-0.092-0.187l-0.016-0.034L12.727,13.2c-0.012-0.02-0.003-0.008-0.014-0.017
	c-0.001-0.017-0.084-0.203-0.112-0.236l-0.004-0.004c-0.001-0.033-0.046-0.118-0.063-0.157c-0.02-0.04-0.046-0.13-0.076-0.157
	l-0.153-0.407l-0.009-0.017c-0.008-0.016-0.003-0.005-0.009-0.014c0.001-0.03-0.057-0.172-0.072-0.213
	c-0.017-0.048-0.052-0.188-0.08-0.219c0-0.03-0.042-0.15-0.053-0.171l-0.085-0.288l-0.008-0.021l-0.001-0.003l-0.005-0.007
	l-0.004-0.007l-0.002-0.005c0.002-0.03-0.033-0.16-0.052-0.183c0-0.026-0.063-0.266-0.076-0.296
	c-0.014-0.083-0.073-0.113-0.165-0.203c-0.042-0.042-0.156-0.162-0.188-0.184c-0.007-0.02-0.03-0.039-0.043-0.055
	c-0.095-0.106-0.195-0.204-0.29-0.323l-0.05-0.055L11.11,9.955c-0.006-0.022-0.051-0.067-0.066-0.088
	c-0.076-0.093-0.138-0.186-0.21-0.283l0.019,0.39l0.046,0.438l0.061,0.369l0.064,0.309l0.046,0.181l0.086,0.311l0.059,0.189
	c0.011,0.053,0.139,0.414,0.158,0.433c0.014,0.054,0.169,0.421,0.188,0.434c0.015,0.041,0.134,0.291,0.154,0.311
	c0.014,0.038,0.116,0.233,0.136,0.246c0.017,0.043,0.051,0.096,0.074,0.137c0.01,0.016,0.064,0.11,0.077,0.117
	c0.021,0.049,0.049,0.084,0.08,0.131c0.019,0.027,0.058,0.104,0.082,0.116c0.014,0.035,0.153,0.236,0.173,0.245
	c0.011,0.025,0.211,0.296,0.244,0.314c0.015,0.037,0.072,0.092,0.101,0.127c0.018,0.02,0.087,0.105,0.108,0.117
	c0.015,0.032,0.198,0.226,0.215,0.233L13.017,14.485z M19.163,16.456c0.538-0.034,1.061-0.133,1.572-0.275
	c0.048-0.014,0.176-0.039,0.205-0.064c0.036,0.002,0.148-0.04,0.188-0.054c0.035-0.014,0.046-0.036,0.063-0.062
	c0.009-0.011,0.017-0.021,0.022-0.031c0.011-0.015,0.021-0.028,0.028-0.048c0.019-0.006,0.134-0.173,0.138-0.186
	c0.014-0.007,0.054-0.066,0.069-0.086c0.021-0.031,0.053-0.063,0.067-0.102c0.021-0.009,0.054-0.063,0.07-0.085l0.032-0.046
	l0.018-0.022c0.014-0.019,0.01-0.014,0.02-0.032l0.009-0.004l0.002-0.003l0.045-0.063l0.056-0.075
	c0.024-0.032,0.102-0.131,0.113-0.159l0.008-0.009l0.004-0.002l0.104-0.143c0.035-0.043,0.1-0.121,0.12-0.168
	c0.014-0.005,0.004,0.002,0.016-0.013l0.052-0.071c0.045-0.061,0.185-0.24,0.202-0.28l0.138-0.186
	c0.015-0.003,0.044-0.05,0.053-0.063c-0.006-0.031-0.04-0.074-0.059-0.099l-0.057-0.081l-0.014-0.012
	c-0.003-0.016-0.242-0.351-0.282-0.375c-0.004-0.013-0.258-0.344-0.298-0.368c-0.002-0.014,0-0.007-0.007-0.02l-0.015-0.015
	c-0.024-0.03-0.063-0.081-0.088-0.098c-0.004-0.021-0.01-0.019-0.037-0.055l-0.304-0.354c-0.014-0.015-0.007-0.006-0.014-0.011
	l-0.06-0.069c-0.019-0.021-0.035-0.04-0.057-0.065c-0.021-0.021-0.033-0.04-0.059-0.064c-0.116-0.126-0.043-0.107-0.264-0.091
	l-2.828,0.2c-0.056,0.005-0.154-0.008-0.17,0.079c-0.013,0.009-0.004,0-0.013,0.012l-0.033,0.042l-0.04,0.054
	c-0.042,0.056-0.231,0.306-0.24,0.328l-0.085,0.104c-0.009,0.015-0.005,0.006-0.008,0.019l-0.277,0.355l0.002,0.007l-0.002,0.009
	c-0.002,0.001-0.005,0.001-0.005,0.004l-0.035,0.038c-0.033,0.045-0.247,0.308-0.255,0.337c-0.01,0.005-0.19,0.211-0.194,0.245
	c-0.026,0.016-0.024,0.018-0.041,0.041l-0.04,0.048c-0.02,0.021-0.065,0.076-0.072,0.097c-0.025,0.014-0.06,0.063-0.082,0.088
	c-0.029,0.034-0.049,0.06-0.081,0.095l-0.156,0.186c-0.015,0.01-0.013-0.016-0.012,0.021c0.022,0.013,0.105,0.123,0.128,0.151
	c0.027,0.035,0.101,0.134,0.127,0.151l0.244,0.305l0.143,0.18l0.009,0.009l0.151,0.189c0.008,0.012,0.129,0.177,0.151,0.188
	c0.007,0.014,0.132,0.181,0.151,0.188l0.114,0.15c0.064,0.076,0.042,0.062,0.178,0.091c0.146,0.034,0.299,0.059,0.45,0.076
	C18.479,16.472,18.823,16.479,19.163,16.456z M16.921,13.444c0.022-0.009,0.057-0.065,0.073-0.087l0.072-0.094
	c0.044-0.056,0.112-0.136,0.145-0.195c0.027-0.012,0.361-0.479,0.416-0.543c0.023-0.034,0.046-0.064,0.071-0.1
	c0.042-0.056,0.034-0.041,0.007-0.109l-0.094-0.227c-0.008-0.012-0.006-0.009-0.012-0.014c0.002-0.028-0.07-0.195-0.091-0.244
	l-0.018-0.042l-0.021-0.038c0-0.029-0.188-0.489-0.203-0.501c-0.002-0.038-0.047-0.15-0.071-0.175
	c-0.002-0.029-0.071-0.195-0.092-0.241c-0.01-0.021-0.023-0.063-0.04-0.081c0-0.019-0.121-0.331-0.144-0.354
	c0-0.028-0.062-0.18-0.081-0.198c0-0.031-0.083-0.234-0.102-0.251c-0.002-0.023-0.129-0.353-0.151-0.374
	c0-0.017-0.018-0.068-0.029-0.083c-0.024-0.031-0.946-0.278-1.036-0.301C15.405,9.16,15.248,9.11,15.13,9.091
	c-0.077-0.042-1.402-0.334-1.543-0.342c-0.011,0.031-0.098,0.137-0.125,0.172c-0.023,0.028-0.118,0.147-0.123,0.169
	c-0.025,0.019-0.257,0.329-0.287,0.368l-0.089,0.125l-0.267,0.342c-0.015,0.021-0.011,0.005-0.014,0.028
	c-0.031,0.021-0.078,0.092-0.104,0.124c-0.019,0.024-0.089,0.114-0.093,0.133c-0.027,0.019-0.091,0.109-0.112,0.14l-0.028,0.036
	l-0.004,0.007v0.007c-0.021,0.016-0.019,0.016-0.037,0.041l-0.171,0.225c-0.017,0.021-0.063,0.066-0.054,0.098l0.086,0.316
	l0.056,0.191c0.008,0.045,0.146,0.475,0.159,0.497l0.112,0.315c0.013,0.049,0.153,0.411,0.169,0.428
	c0.016,0.058,0.229,0.541,0.253,0.557c0.016,0.051,0.181,0.363,0.203,0.379c0.019,0.053,0.091,0.161,0.126,0.217
	c0.021,0.038,0.019,0.034,0.066,0.048c0.063,0.021,0.309,0.108,0.349,0.106c0.027,0.021,0.556,0.183,0.584,0.191
	c0.084,0.026,0.549,0.185,0.596,0.184c0.022,0.02,0.11,0.041,0.139,0.051l0.44,0.139c0.079,0.027,0.539,0.18,0.585,0.183
	c0.021-0.034,0.049-0.056,0.078-0.088c0.027-0.028,0.054-0.063,0.081-0.094c0.035-0.04,0.144-0.153,0.159-0.19
	c0.001-0.002,0.003-0.005,0.003-0.004c0.001,0.002,0.003-0.002,0.004-0.002l0.011-0.011c0.011-0.012,0.01-0.012,0.02-0.022
	l0.117-0.143c0.031-0.034,0.135-0.159,0.151-0.193l0.074-0.088c0.026-0.034,0.046-0.059,0.073-0.094
	C16.81,13.592,16.9,13.486,16.921,13.444z M18.28,7.709c0.042-0.033,0.073-0.06,0.113-0.095c0.035-0.031,0.21-0.168,0.226-0.197
	c0.023-0.008,0.271-0.219,0.32-0.262l0.051-0.043c0.022-0.021,0.035-0.022,0.055-0.052c-0.005-0.066-0.01-0.291-0.034-0.332
	c0.009-0.042-0.026-0.421-0.045-0.446c0.006-0.042-0.042-0.445-0.049-0.464c-0.007-0.074-0.068-0.565-0.088-0.591
	c0.006-0.062-0.045-0.301-0.06-0.376l-0.052-0.272l-0.009-0.041l-0.017-0.045c0.007-0.043-0.033-0.176-0.046-0.225
	c-0.026-0.115-0.013-0.081-0.142-0.134c-0.133-0.055-0.271-0.102-0.406-0.15c-0.544-0.203-1.598-0.554-2.174-0.6
	c-0.151-0.013-0.143,0.009-0.298,0.109l-0.082,0.058c-0.078,0.029-0.516,0.37-0.602,0.443c-0.019,0.013-0.181,0.145-0.188,0.164
	c-0.056,0.032-0.11,0.096-0.162,0.139c-0.009,0.009-0.143,0.125-0.147,0.145c-0.027,0.012-0.211,0.198-0.236,0.222l-0.038,0.042
	l-0.019,0.02c-0.018,0.018-0.01,0.003-0.018,0.023c-0.031,0.018-0.038,0.037-0.063,0.062c-0.104,0.097-0.269,0.293-0.373,0.408
	l-0.052,0.059c-0.008,0.013,0-0.002-0.009,0.018c-0.021,0.013-0.08,0.084-0.094,0.104c-0.031,0.04-0.061,0.073-0.094,0.115
	c-0.015,0.016-0.09,0.106-0.092,0.118c-0.011,0.04,0.021,0.141,0.019,0.184l0.068,0.479l0.059,0.458l0.093,0.655l0.054,0.404
	l0.04,0.286l0.034,0.25l0.014,0.084l0.429,0.084c0.08,0.017,0.372,0.092,0.424,0.089c0.019,0.014,0.651,0.165,0.733,0.186
	c0.201,0.053,0.402,0.106,0.602,0.162c0.04,0.01,0.08,0.022,0.12,0.033c0.12,0.034,0.237,0.064,0.355,0.101
	c0.202,0.062,0.151,0.083,0.309-0.057c0.059-0.051,0.478-0.39,0.498-0.424l0.168-0.142l0.135-0.112c0.011-0.005,0.002,0,0.017-0.01
	l0.021-0.015l0.254-0.213c0.031-0.029,0.062-0.051,0.091-0.079c0.03-0.026,0.059-0.047,0.092-0.076
	c0.029-0.026,0.166-0.131,0.182-0.16C18.198,7.789,18.248,7.737,18.28,7.709z M22.099,8.725c0.018,0.004,0.616-0.348,0.636-0.374
	c0.031-0.004,0.194-0.111,0.222-0.128l0.663-0.42c0.031-0.006,0.506-0.323,0.539-0.359c0-0.021,0.001-0.04-0.011-0.053
	c0.005-0.044-0.018-0.28-0.035-0.307C24.12,7.039,24.088,6.727,24.07,6.7c0.009-0.049-0.029-0.299-0.038-0.387l-0.001-0.026
	l-0.012-0.031c0.009-0.028-0.034-0.418-0.045-0.438c-0.005-0.076-0.054-0.58-0.069-0.605c0.009-0.069-0.035-0.349-0.047-0.441
	c-0.012-0.117-0.006-0.099-0.078-0.158c-0.037-0.03-0.1-0.096-0.139-0.112c-0.009-0.018-0.066-0.063-0.089-0.079
	c-0.032-0.027-0.066-0.053-0.102-0.081c-0.065-0.051-0.133-0.103-0.201-0.152c-0.381-0.279-0.67-0.458-1.083-0.688
	c-0.057-0.031-0.188-0.104-0.244-0.121c-0.025-0.023-0.347-0.164-0.413-0.19c-0.145-0.059-0.29-0.114-0.443-0.164
	c-0.059-0.019-0.061-0.032-0.117-0.005c-0.116,0.06-0.672,0.333-0.695,0.359c-0.076,0.024-0.598,0.329-0.669,0.371
	c-0.168,0.104-0.381,0.24-0.537,0.366c-0.028,0.022-0.044,0.04-0.073,0.056L19.048,4.5l0.131,0.745l0.078,0.564l0.057,0.49
	l0.04,0.448h-0.001l0.002,0.013l0.027,0.271c0.031,0.017,0.116,0.08,0.146,0.083c0.021,0.031,0.354,0.229,0.42,0.268
	c0.023,0.017,0.038,0.031,0.063,0.035c0.023,0.029,0.257,0.167,0.307,0.197l0.151,0.094c0.042,0.027,0.118,0.086,0.157,0.091
	c0.021,0.03,0.381,0.244,0.438,0.28c0.063,0.039,0.421,0.271,0.446,0.273c0.002,0.002,0.005,0.002,0.006,0.005
	C21.517,8.369,22.096,8.725,22.099,8.725z M24.351,13.072c0.032-0.004,0.226-0.116,0.259-0.133c0.041-0.023,0.081-0.046,0.126-0.069
	c0.059-0.034,0.077-0.033,0.099-0.109l0.121-0.25c0.018-0.016,0.127-0.271,0.135-0.311c0.02-0.015,0.115-0.269,0.125-0.312
	c0.015-0.018,0.098-0.27,0.109-0.312l0.092-0.311l0.081-0.313l0.043-0.195l0.037-0.194l0.026-0.166l0.023-0.179l0.026-0.25
	l0.014-0.259L25.671,9.6l-0.003-0.266c-0.002-0.041-0.003-0.037-0.023-0.061c-0.028-0.031-0.134-0.164-0.166-0.186
	c-0.006-0.024-0.138-0.167-0.155-0.188c-0.022-0.023-0.033-0.049-0.063-0.063c-0.011-0.028-0.022-0.032-0.046-0.06l-0.131-0.152
	l-0.013-0.016L25.05,8.595c-0.006-0.027-0.14-0.168-0.163-0.193c-0.021-0.026-0.025-0.043-0.061-0.064
	c-0.008-0.028-0.077-0.094-0.104-0.127c-0.015-0.02-0.088-0.108-0.11-0.122c-0.008-0.024-0.129-0.155-0.145-0.172
	c-0.036-0.036-0.128-0.153-0.148-0.171l-0.515,0.352L23.41,8.344l-0.419,0.257c-0.044,0.013-0.156,0.091-0.204,0.118
	c-0.028,0.018-0.188,0.106-0.197,0.12c-0.05,0.02-0.262,0.15-0.34,0.195c-0.028,0.015-0.037,0.015-0.04,0.039
	c-0.019,0.02-0.079,0.296-0.1,0.374c-0.009,0.039-0.028,0.088-0.024,0.128L22.03,9.788l-0.045,0.168
	c-0.015,0.061-0.063,0.209-0.06,0.256c-0.01,0.017-0.008,0.016-0.015,0.038l-0.013,0.047c-0.009,0.033-0.017,0.059-0.015,0.091
	c-0.021,0.022-0.046,0.138-0.044,0.173c-0.02,0.022-0.046,0.141-0.044,0.175c-0.015,0.017-0.055,0.185-0.051,0.212
	c-0.006,0.007-0.001-0.004-0.01,0.016c-0.021,0.048-0.072,0.276-0.068,0.301c-0.02,0.021-0.037,0.124-0.047,0.155
	c-0.011,0.042-0.034,0.12-0.032,0.16c-0.019,0.021-0.079,0.27-0.074,0.298c-0.018,0.022-0.068,0.248-0.07,0.262
	c-0.008,0.032,0.023,0.06,0.036,0.063c0.018,0.033,0.111,0.128,0.138,0.16l0.101,0.116c0.016,0.016,0.018,0.027,0.032,0.031
	c0.007,0.012,0.188,0.238,0.212,0.246c0.031,0.056,0.085,0.106,0.128,0.159c0.021,0.028,0.113,0.146,0.133,0.154
	c0.014,0.03,0.111,0.148,0.146,0.188l0.048,0.057l0.003,0.002c0.02,0.038,0.067,0.095,0.094,0.129l0.049,0.061
	c0.018,0.021,0.031,0.053,0.052,0.06l0.227,0.332c0.04-0.013,0.106-0.056,0.148-0.079l0.412-0.222
	c0.021-0.014,0.021-0.009,0.034-0.026c0.028-0.004,0.196-0.102,0.232-0.12l0.226-0.129l0.004-0.004
	c0.032-0.003,0.189-0.098,0.229-0.118C24.17,13.18,24.329,13.098,24.351,13.072z M31.912,19.201
	c0.119-2.412-0.127-4.879-0.772-7.331c-1.042-0.721-2.167-1.342-3.372-1.86c0,0.094-0.011,0.176-0.021,0.269
	c-0.001,0.021-0.003,0.042-0.004,0.064c1.082,0.473,2.129,1.042,3.122,1.722c0.011,0.04,0.021,0.08,0.029,0.12
	c0.606,2.396,0.826,4.808,0.693,7.165c0,0,0.001,0,0.001-0.002C31.694,19.293,31.801,19.244,31.912,19.201z M13.699,19.823
	c0.634-0.554,1.399-0.827,2.226-0.875v-0.759c-0.07-0.021-0.14-0.042-0.209-0.065c-0.271-0.089-0.535-0.189-0.798-0.3
	c-0.196-0.082-0.383-0.178-0.574-0.273c-0.109-0.054-0.214-0.12-0.324-0.176c-0.174-0.089-0.338-0.195-0.501-0.304l-0.015-0.011
	l-0.295-0.204l-0.021-0.015L13.1,16.778c-0.116-0.088-0.229-0.167-0.34-0.262l-0.041-0.033l-0.081-0.069l-0.05-0.042
	c-0.061-0.05-0.114-0.101-0.171-0.153c-0.133-0.106-0.246-0.225-0.367-0.347l-0.012-0.009l-0.245-0.254l-0.021-0.021
	c-0.126-0.137-0.24-0.282-0.361-0.423c-0.032-0.037-0.062-0.073-0.089-0.11c-0.19-0.234-0.358-0.483-0.523-0.736
	c-0.056-0.085-0.112-0.174-0.165-0.262v4.892c0.089-0.005,0.178-0.008,0.271-0.008c0.762,0,1.478,0.242,1.995,0.818
	c0.145,0.161,0.262,0.334,0.357,0.517C13.39,20.115,13.537,19.965,13.699,19.823z M21.216,19.056h5.291v-5.003
	c-0.07,0.12-0.146,0.236-0.222,0.352l-0.007,0.011l-0.201,0.295l-0.018,0.026l-0.064,0.086l-0.007,0.01l-0.153,0.202
	c-0.106,0.143-0.222,0.278-0.341,0.412l-0.011,0.01c-0.023,0.03-0.051,0.06-0.076,0.087c-0.151,0.183-0.361,0.39-0.536,0.542
	l-0.122,0.116c-0.027,0.024-0.052,0.047-0.079,0.068l-0.039,0.033l-0.118,0.101c-0.058,0.051-0.119,0.102-0.184,0.152
	c-0.189,0.149-0.373,0.298-0.581,0.429l-0.124,0.082l-0.09,0.058c-0.498,0.33-1.045,0.598-1.604,0.817l-0.041,0.015l-0.059,0.025
	c-0.203,0.078-0.409,0.143-0.616,0.205L21.216,19.056L21.216,19.056z M15.925,37.602v-8.146c-0.505,0.238-1.05,0.346-1.611,0.346
	c-0.774,0-1.538-0.188-2.114-0.732c-0.174-0.164-0.317-0.344-0.435-0.537c-0.148,0.168-0.316,0.326-0.503,0.47
	c-0.2,0.151-0.409,0.284-0.628,0.394v3.295c-0.728-0.916-1.384-1.883-1.965-2.892c-0.001,0-0.001,0-0.002,0
	c-0.131-0.005-0.259-0.021-0.387-0.036c2.302,4.08,5.818,7.516,10.292,9.762c4.757-2.389,8.434-6.125,10.717-10.553
	c-0.081-0.084-0.154-0.176-0.222-0.267c-0.716,1.405-1.57,2.741-2.561,3.987v-3.069c-0.256,0.042-0.519,0.065-0.78,0.065h-3.524
	l0.131-0.604c-0.343,0.253-0.719,0.437-1.116,0.556v7.965c-0.838,0.57-1.719,1.092-2.645,1.563
	C17.646,38.693,16.764,38.172,15.925,37.602z M31.212,26.482l0.942-4.225c0.066-0.324,0.172-0.563,0.314-0.709
	c0.145-0.146,0.354-0.223,0.635-0.223c0.403,0,0.608,0.176,0.608,0.529c0,0.121-0.018,0.256-0.045,0.401l-0.941,4.224
	c-0.073,0.33-0.181,0.566-0.322,0.711c-0.145,0.146-0.354,0.219-0.633,0.219c-0.212,0-0.364-0.041-0.461-0.131
	c-0.097-0.088-0.143-0.219-0.143-0.396C31.168,26.751,31.183,26.616,31.212,26.482z M31.502,28.66c0.712,0,1.298-0.202,1.756-0.605
	c0.458-0.402,0.757-0.914,0.893-1.531l0.938-4.301c0.043-0.221,0.066-0.423,0.066-0.602c0-0.303-0.063-0.569-0.19-0.802
	c-0.125-0.233-0.323-0.415-0.591-0.545c-0.266-0.13-0.595-0.196-0.99-0.196c-0.705,0-1.289,0.2-1.745,0.604
	c-0.063,0.055-0.125,0.112-0.182,0.173c-0.356,0.372-0.599,0.827-0.72,1.37l-0.939,4.299c-0.048,0.219-0.072,0.416-0.072,0.594
	c0,0.057,0.001,0.111,0.004,0.166c0.032,0.393,0.18,0.713,0.438,0.959C30.464,28.523,30.909,28.66,31.502,28.66z M25.301,27.368
	l1.206-5.55l0.098-0.445h0.493c0.295,0,0.508,0.049,0.641,0.146c0.132,0.095,0.198,0.263,0.198,0.496
	c0,0.146-0.023,0.32-0.066,0.526l-0.808,3.655c-0.094,0.438-0.231,0.742-0.421,0.912c-0.039,0.039-0.084,0.072-0.135,0.101
	c-0.178,0.103-0.417,0.157-0.714,0.157L25.301,27.368L25.301,27.368z M27.958,27.436c0.25-0.375,0.437-0.844,0.562-1.41l0.734-3.31
	c0.075-0.36,0.114-0.659,0.114-0.896c0-1.085-0.604-1.628-1.813-1.628h-1.048H25.45l-1.834,8.353h2.109
	c0.279,0,0.541-0.027,0.78-0.088c0.185-0.045,0.356-0.105,0.519-0.186C27.4,28.09,27.709,27.811,27.958,27.436z M19.751,26.493
	l1.391-6.301h-1.419l-1.374,6.247c-0.055,0.285-0.083,0.506-0.083,0.664c0,0.504,0.154,0.89,0.46,1.154
	c0.31,0.268,0.748,0.401,1.315,0.401c0.435,0,0.828-0.08,1.175-0.236c0.2-0.09,0.385-0.206,0.556-0.347
	c0.472-0.391,0.778-0.938,0.929-1.639l1.377-6.246h-1.424l-1.388,6.301c-0.015,0.064-0.03,0.128-0.05,0.188
	c-0.065,0.215-0.159,0.383-0.282,0.504c-0.157,0.151-0.362,0.227-0.618,0.227c-0.403,0-0.604-0.186-0.604-0.559
	C19.71,26.727,19.723,26.611,19.751,26.493z M16.246,22.982h1.424l0.122-0.612c0.055-0.271,0.083-0.492,0.083-0.668
	c0-0.24-0.034-0.457-0.104-0.661c-0.068-0.2-0.172-0.374-0.308-0.517c-0.135-0.145-0.31-0.253-0.52-0.331
	c-0.212-0.077-0.462-0.115-0.753-0.115c-0.092,0-0.181,0.004-0.268,0.011c-0.586,0.045-1.079,0.242-1.479,0.593
	c-0.457,0.4-0.758,0.914-0.899,1.543l-0.938,4.299c-0.049,0.219-0.072,0.416-0.072,0.594c0,0.471,0.147,0.846,0.443,1.125
	c0.298,0.281,0.741,0.419,1.334,0.419c0.455,0,0.86-0.093,1.22-0.28c0.14-0.072,0.271-0.156,0.392-0.252
	c0.188-0.146,0.349-0.318,0.487-0.521c0.229-0.326,0.391-0.689,0.479-1.084l0.207-0.969h-1.172h-0.25l-0.217,1.012
	c-0.064,0.289-0.165,0.5-0.3,0.64c-0.136,0.138-0.327,0.205-0.573,0.205c-0.214,0-0.368-0.041-0.462-0.13
	c-0.094-0.09-0.145-0.221-0.145-0.396c0-0.134,0.017-0.269,0.046-0.402l0.94-4.225c0.067-0.324,0.171-0.563,0.317-0.709
	c0.144-0.146,0.355-0.223,0.634-0.223c0.002,0,0.006,0,0.009,0c0.153,0.002,0.275,0.055,0.367,0.154
	c0.094,0.102,0.139,0.258,0.139,0.461c0,0.117-0.015,0.244-0.044,0.393L16.246,22.982z M10.634,28.044
	c0.448-0.37,0.748-0.878,0.896-1.521c0.037-0.153,0.057-0.332,0.057-0.531c0-0.395-0.088-0.747-0.262-1.053
	c-0.159-0.276-0.39-0.582-0.691-0.92c-0.034-0.037-0.068-0.076-0.104-0.113c-0.355-0.381-0.604-0.67-0.742-0.863
	c-0.137-0.191-0.206-0.413-0.206-0.663c0-0.097,0.007-0.176,0.022-0.239c0.037-0.17,0.099-0.314,0.183-0.44
	c0.083-0.126,0.183-0.218,0.3-0.278c0.117-0.063,0.25-0.094,0.398-0.094c0.053,0,0.103,0.006,0.149,0.02
	c0.101,0.021,0.187,0.07,0.261,0.146c0.109,0.108,0.165,0.282,0.165,0.524c0,0.099-0.004,0.176-0.009,0.24l1.373-0.16
	c0.017-0.173,0.024-0.298,0.024-0.371c0-0.513-0.132-0.912-0.396-1.206c-0.262-0.292-0.646-0.44-1.146-0.44
	c-0.094,0-0.184,0.003-0.271,0.01c-0.583,0.042-1.074,0.218-1.475,0.528c-0.46,0.358-0.767,0.87-0.914,1.536
	c-0.048,0.232-0.073,0.429-0.073,0.585c0,0.391,0.086,0.729,0.258,1.024c0.169,0.295,0.427,0.621,0.769,0.977
	c0.34,0.355,0.588,0.644,0.745,0.859c0.155,0.217,0.233,0.471,0.233,0.762c0,0.091-0.011,0.186-0.034,0.285
	c-0.047,0.246-0.159,0.438-0.339,0.568c-0.18,0.133-0.395,0.197-0.645,0.197c-0.407,0-0.608-0.281-0.608-0.844
	c0-0.127,0.011-0.264,0.036-0.414L7.184,26.35c-0.015,0.092-0.027,0.19-0.034,0.295c-0.008,0.076-0.01,0.157-0.01,0.244
	c0,0.516,0.146,0.942,0.434,1.274c0.109,0.124,0.236,0.228,0.384,0.308c0.237,0.127,0.521,0.189,0.854,0.189
	c0.684,0,1.268-0.188,1.755-0.563C10.588,28.081,10.612,28.063,10.634,28.044z M3.683,27.299l0.537-2.453h1.836l0.206-0.937
	l0.068-0.313H6.184H4.494l0.472-2.154h0.798h1.584l0.276-1.249h-2.01H3.823l-1.836,8.353h3.965l0.277-1.246H3.683z"/>
</svg>
