<?xml version="1.0" encoding="UTF-8"?>
<svg width="80" height="80" version="1.1" viewBox="0 0 80 80" xmlns="http://www.w3.org/2000/svg">
 <g transform="matrix(.0042548 0 0 .0042548 39.824 39.867)">
  <path fill="#000" d="m-1748.6-1809.7s1422.1 277.11 1640.4 315.31c218.28 38.202 732.09 460.17 1176.5 461.81 444.37 1.6366 593.72-20.21 733.61-27.676 139.88-7.4656 263.7 100.74 313.36 234.84 49.66 134.09 340.64 1280.9 340.64 1280.9s52.445 134.87-128.15 227.3c-180.6 92.424-1193.1 561.07-1193.1 561.07s-270 110.32-553.49-98.93c0 0-32.416-48.855-212.9 22.326-180.48 71.18-1547.2 632.27-1783 710.99-235.8 78.72-545.65 61.059-624.34-547.37-78.69-608.43-340.14-2679.4-340.14-2679.4s-17.658-252.33 120.73-398.32c138.38-145.99 354.78-92.647 354.78-92.647z" fill-rule="evenodd"/>
  <path d="m-2127.8-1240.2c-19.69-152.63-10.409-267.93 30.788-343.66 40.302-74.089 107.76-101.88 200.12-84.14 134.92 25.922 270.71 52.032 406.13 78.104 93.23 17.95 171.2 68.831 234.53 150.17 62.989 80.901 103.71 185.32 122.25 313.84 18.588 128.87 37.579 258.1 56.142 386.97-110.02 79.523-219.59 163.31-328.25 251-28.071-203.42-56.142-406.49-84.666-610.27-87.836-8.8755-176.12-17.751-263.96-26.626 51.162 380.58 102.3 760.45 153.03 1140.7 50.686 379.87 101.87 760.09 152.58 1140 86.478-25.916 172.5-52.187 258.98-78.459-20.827-149.82-41.201-299.99-62.028-450.16 107.3-113.96 215.06-224.37 323.27-331.23 35.315 245.32 70.755 490.62 105.95 735.95 18.687 130.27 8.1351 240.18-31.693 330.52-40.311 91.433-106.37 156.28-198.31 193.13-131.27 52.614-262.62 104.68-393.45 156.92-89.667 35.804-165.61 22.346-225.93-41.182-62.381-65.7-101.8-178.23-121.79-332.65-55.618-429.58-111.16-859.53-166.62-1289.1-55.466-429.6-111.6-859.82-167.07-1289.8zm2389.2 1062.2c-79.686 55.383-159.82 113.25-239.06 173.25 95.985 165.08 191.5 325.35 288.86 477.85 94.168 147.5 191.52 289.69 291.12 446.26-126.77 25.561-249.02 74.553-371.72 123.55-80.138-126.03-161.05-256.22-240.87-391.58-81.369-138-161.64-281.53-242.23-428.86-16.299 14.556-32.598 28.401-47.992 42.602 23.996 155.5 49.135 310.53 73.347 465.78 24.234 155.39 48.446 310.64 72.894 465.78-118.17 47.217-234.98 94.08-352.25 140.59-70.63-469.33-140.64-939.4-210.53-1408.7-70.008-470.07-140.36-940.09-210.08-1410.1 233.17 44.732 466.79 89.847 700.87 134.91 92.358 17.778 169.84 60.3 232.27 124.26 61.63 63.14 100.43 143.09 116.81 238.93 23.005 134.57 46.195 269.18 69.272 402.94 23.104 133.92 46.634 268.04 69.272 402.59zm-394.81-191.71c-32.146-200.23-64.745-400.46-97.344-600.69-89.193-9.2303-178.39-18.106-267.58-27.337 21.28 132.78 41.913 265.58 62.481 397.97 20.633 132.81 41.654 265.91 62.481 398.33 79.686-57.513 159.82-113.96 239.96-168.28zm1261.4 1437.8c-118.62 45.442-249.92 18.461-394.81-86.27-63.839-353.6-128.83-707.86-192.42-1061.5-63.636-353.91-127.23-708.26-191.06-1062.2 131.75 77.749 262.15 144.49 390.28 196.32 64.744 335.85 129.27 671.74 193.78 1007.2 64.526 335.53 129.49 670.98 194.23 1006.5zm645.18-1328.8c-29.882-125.32-59.312-251-89.646-376.67-84.666 11.361-170.69 20.237-256.26 28.402 18.11 83.429 37.558 167.83 56.142 251.71 18.542 83.689 36.221 167.57 54.784 251.35 77.874-51.832 156.2-102.95 234.98-154.79zm564.59 757.96c-114.55 58.933-229.1 117.87-344.1 175.02-26.26-109.7-52.322-219.7-78.327-329.46-26.061-110-51.615-220.11-77.875-329.81-77.422 59.287-155.3 119.29-233.17 179.28 21.732 101.18 44.117 202.42 66.556 302.83 22.384 100.17 44.37 201.3 67.461 301.41-116.36 54.318-233.17 107.93-349.53 160.11-54.784-265.55-109.39-531.85-163.45-797.72-54.148-266.3-108.04-532.11-162.09-798.43-16.128-79.467-3.9265-140.29 38.032-180.7 41.364-39.838 108.63-55.686 198.76-54.672 130.84 1.4717 260.43-4.4484 388.92-15.266 86.589-7.2896 158.54 2.5901 215.97 29.112 57.128 26.381 94.048 69.377 110.02 130.29 53.753 205 107.65 409.96 161.18 614.18 53.768 205.11 107.76 409.34 161.64 613.82"/>
 </g>
</svg>
