<?xml version="1.0" encoding="UTF-8"?>
<!DOCTYPE svg PUBLIC "-//W3C//DTD SVG 1.1//EN" "http://www.w3.org/Graphics/SVG/1.1/DTD/svg11.dtd">
<!-- Creator: CorelDRAW 2018 (64 Bit Versão de avaliação) -->
<svg xmlns="http://www.w3.org/2000/svg" xml:space="preserve" width="240px" height="296px" version="1.1" shape-rendering="geometricPrecision" text-rendering="geometricPrecision" image-rendering="optimizeQuality" fill-rule="evenodd" clip-rule="evenodd" viewBox="0 0 236408 291873" xmlns:xlink="http://www.w3.org/1999/xlink">
	<path class="gola" d="M100091 23401c-1179,-1896 -2249,-3283 -3306,-4789 -1057,-1506 -2100,-3131 -2980,-4577 -880,-1447 -1597,-2715 -1941,-3362 -343,-648 -313,-674 -298,-687 14,-13 14,-13 553,122 538,136 1615,406 4016,529 2401,122 6126,95 10380,89 4253,-7 9036,6 13451,-60 4416,-66 8464,-211 12451,-353 3986,-142 7909,-281 10445,-419 2537,-139 3686,-278 4261,-347 574,-70 574,-70 574,-70 0,0 0,0 -208,526 -208,525 -624,1575 -1370,3008 -747,1433 -1823,3250 -2801,4911 -977,1661 -1856,3167 -2606,4673 -358,721 -688,1442 -992,2160 -330,783 -631,1563 -907,2338 -528,1486 -964,2953 -1235,4194 -213,976 -323,1812 -412,2619 1715,-562 3209,-1149 4626,-1767 1522,-663 2956,-1364 4016,-2050 1060,-687 1747,-1361 2407,-2035 661,-674 1295,-1347 2008,-2288 714,-942 1506,-2150 2223,-3207 717,-1057 1357,-1962 1915,-3151 558,-1189 1034,-2662 1420,-4002 387,-1341 684,-2550 852,-3762 169,-1212 209,-2427 228,-3035 20,-600 20,-608 1,-781 -375,-156 -713,-299 -999,-421 -903,-388 -1277,-576 -1570,-768 -294,-192 -507,-387 -695,-490 -188,-103 -351,-114 -459,-115 -109,0 -162,10 -247,-4 -86,-13 -202,-51 -579,-287 -376,-237 -1013,-673 -1653,-1175 -640,-503 -1284,-1073 -1927,-1636 -643,-564 -1284,-1121 -2276,-1546 -992,-425 -2335,-717 -3667,-905 -1333,-188 -2655,-273 -4508,-349 -1853,-77 -4236,-147 -7812,-129 -3577,17 -8348,121 -12720,216 -4373,94 -8349,180 -10440,227 -2091,48 -2297,57 -4089,200 -1793,143 -5171,421 -7294,661 -2123,240 -2990,443 -3695,696 -706,253 -1251,555 -1858,1063 -607,507 -1276,1221 -1989,1849 -713,627 -1471,1170 -1923,1437 -452,268 -599,261 -888,361 -290,100 -724,308 -1249,573 -289,146 -605,309 -957,480 -118,300 -225,655 -298,1170 -113,796 -146,1971 234,3652 380,1681 1172,3868 2137,5895 964,2028 2100,3897 3008,5301 908,1404 1589,2341 2497,3227 908,885 2044,1717 3207,2440 1162,723 2351,1338 3831,1959 1479,620 3249,1248 4884,1842 596,217 1174,429 1730,630 -252,-1261 -528,-2546 -1264,-4315 -568,-1365 -1409,-3018 -2281,-4549 -321,-562 -645,-1108 -962,-1617z"/>
</svg>
