<?xml version="1.0" encoding="UTF-8"?>
<!DOCTYPE svg PUBLIC "-//W3C//DTD SVG 1.1//EN" "http://www.w3.org/Graphics/SVG/1.1/DTD/svg11.dtd">
<!-- Creator: CorelDRAW 2018 (64 Bit Versão de avaliação) -->
<svg xmlns="http://www.w3.org/2000/svg" xml:space="preserve" width="240px" height="296px" version="1.1" shape-rendering="geometricPrecision" text-rendering="geometricPrecision" image-rendering="optimizeQuality" fill-rule="evenodd" clip-rule="evenodd" viewBox="0 0 236408 291873" xmlns:xlink="http://www.w3.org/1999/xlink">
	<path class="fundo_gola" d="M90048 8864c-2,9 -6,26 19,325 25,294 79,860 272,1505 4,12 8,25 12,37 202,660 550,1397 1020,2081 470,684 1060,1314 1754,1926 693,612 1490,1207 2613,1829 1124,622 2574,1272 3847,1724 1272,452 2366,705 3386,918 1021,212 1968,382 3101,540 1134,159 2453,306 3682,413 1228,107 2366,174 3682,192 1315,18 2809,-14 4278,-20 1468,-6 2911,14 4422,-53 1512,-68 3094,-222 4940,-428 1847,-207 3960,-464 5733,-789 1774,-325 3208,-717 4506,-1130 1298,-412 2459,-844 3805,-1494 1345,-650 2875,-1518 3961,-2290 1086,-773 1728,-1451 2163,-1920 420,-453 648,-711 865,-1014 7,-10 14,-21 22,-31 224,-317 443,-692 581,-916 138,-225 193,-300 282,-510 89,-211 212,-555 276,-785 63,-230 67,-345 69,-404 2,-60 2,-64 -1518,31 -1520,95 -4559,290 -6804,426 -2245,137 -3696,216 -6450,248 -2754,32 -6813,16 -10815,63 -4003,48 -7950,159 -12214,242 -4265,83 -8846,139 -12314,48 -3467,-91 -5821,-329 -7165,-482 -1343,-153 -1676,-222 -1843,-256 -166,-34 -166,-34 -168,-26z"/>
</svg>
