<?xml version="1.0" encoding="UTF-8"?>
<!DOCTYPE svg PUBLIC "-//W3C//DTD SVG 1.1//EN" "http://www.w3.org/Graphics/SVG/1.1/DTD/svg11.dtd">
<!-- Creator: CorelDRAW 2018 (64 Bit Versão de avaliação) -->
<svg xmlns="http://www.w3.org/2000/svg" xml:space="preserve" width="240px" height="296px" version="1.1" shape-rendering="geometricPrecision" text-rendering="geometricPrecision" image-rendering="optimizeQuality" fill-rule="evenodd" clip-rule="evenodd"
viewBox="0 0 236408 291873"
 xmlns:xlink="http://www.w3.org/1999/xlink">
	<path class="fundo_gola" d="M90826 9539c237,638 713,1914 1403,3412 689,1498 1593,3218 2900,4997 1308,1780 3020,3618 4720,5168 1701,1550 3389,2810 4946,3824 1558,1015 2985,1784 4875,2580 1890,797 4244,1621 5857,2085 1613,464 2485,567 3476,523 991,-44 2100,-234 3602,-697 1502,-464 3397,-1201 5148,-1926 1752,-726 3361,-1439 4546,-2141 1185,-701 1946,-1391 2830,-2029 883,-638 1890,-1224 2667,-1819 776,-594 1323,-1197 2072,-1946 749,-749 1701,-1644 2557,-2655 856,-1010 1617,-2136 2175,-2944 559,-809 916,-1300 1471,-2228 554,-927 1307,-2290 1783,-3245 475,-955 674,-1502 773,-1776 99,-273 99,-273 99,-273 0,0 0,0 -1193,91 -1193,91 -3579,273 -6606,404 -3028,131 -6698,210 -10717,270 -4018,59 -8385,99 -12673,162 -4288,63 -8497,151 -12264,157 -3767,6 -7092,-70 -8990,-137 -1899,-67 -2370,-127 -2935,-184 -565,-58 -1223,-113 -1698,-165 -476,-51 -769,-99 -916,-123 -146,-23 -146,-23 -146,-23 0,0 0,0 238,638z"/>
</svg>
