<?xml version="1.0" encoding="UTF-8"?>
<!DOCTYPE svg PUBLIC "-//W3C//DTD SVG 1.1//EN" "http://www.w3.org/Graphics/SVG/1.1/DTD/svg11.dtd">
<!-- Creator: CorelDRAW 2018 (64 Bit Versão de avaliação) -->
<svg xmlns="http://www.w3.org/2000/svg" xml:space="preserve" width="240px" height="296px" version="1.1" shape-rendering="geometricPrecision" text-rendering="geometricPrecision" image-rendering="optimizeQuality" fill-rule="evenodd" clip-rule="evenodd" viewBox="0 0 236408 291873" xmlns:xlink="http://www.w3.org/1999/xlink">
	<path class="gola" d="M118777 49603c-597,-784 -1735,-2309 -2971,-3758 -1236,-1449 -2571,-2823 -4602,-4894 -2031,-2071 -4759,-4838 -6780,-6876 -2021,-2037 -3335,-3345 -4422,-4521 -1086,-1176 -1945,-2219 -3025,-3636 -1080,-1417 -2381,-3207 -3372,-4845 -991,-1638 -1671,-3124 -2153,-4491 -482,-1368 -766,-2616 -925,-3670 -158,-1053 -191,-1912 -208,-2341 -17,-429 -17,-429 112,-393 129,36 387,109 1126,215 740,105 1962,244 3270,320 1308,76 2702,89 4290,92 1589,4 3372,-3 5155,-10 836,-10 1671,-19 4265,-44 2595,-25 6947,-65 11690,-147 4742,-83 9874,-208 14082,-304 4207,-96 7490,-162 9812,-327 2322,-165 3682,-429 4363,-561 680,-133 680,-133 680,-133 0,0 0,0 0,80 0,79 0,237 -70,1023 -69,786 -208,2200 -389,3320 -182,1119 -406,1945 -766,2939 -360,994 -856,2156 -1563,3425 -706,1268 -1624,2642 -2480,3847 -855,1205 -1648,2242 -2467,3276 -819,1034 -1664,2064 -2855,3344 -1190,1280 -2726,2809 -4818,4855 -2092,2046 -4741,4608 -6577,6478 -1836,1869 -2860,3045 -3891,4210 -1030,1166 -2067,2322 -2655,3057 -478,597 -659,917 -784,1184 321,-26 726,-64 1260,-86 878,-36 2107,-30 3705,7 1599,36 3567,102 4855,151 1288,50 1896,83 2219,90 324,6 364,-14 1407,-1140 1044,-1126 3091,-3358 5291,-5789 2199,-2431 4551,-5060 6334,-7034 1783,-1975 2999,-3296 4075,-4644 1077,-1347 2015,-2721 2867,-4194 852,-1473 1618,-3045 2269,-4498 651,-1453 1186,-2787 1529,-4059 343,-1271 495,-2480 565,-3613 69,-1133 56,-2189 -73,-3263 -129,-1073 -373,-2163 -578,-2919 -205,-756 -370,-1179 -769,-1672 -399,-493 -1033,-1056 -1452,-1430 -78,-69 -149,-132 -214,-190 -109,0 -162,10 -247,-4 -86,-13 -202,-51 -579,-287 -376,-237 -1013,-673 -1653,-1175 -640,-503 -1284,-1073 -1927,-1636 -643,-564 -1284,-1121 -2276,-1546 -992,-425 -2335,-717 -3667,-905 -1333,-188 -2655,-273 -4508,-349 -1853,-77 -4236,-147 -7812,-129 -3577,17 -8348,121 -12720,216 -4373,94 -8349,180 -10440,227 -2091,48 -2297,57 -4089,200 -1793,143 -5171,421 -7294,661 -2123,240 -2990,443 -3695,696 -706,253 -1251,555 -1858,1063 -607,507 -1276,1221 -1989,1849 -713,627 -1471,1170 -1923,1437 -452,268 -599,261 -888,361 -273,94 -671,283 -1154,525 -21,52 -42,104 -62,155 -327,816 -565,1519 -766,2476 -202,956 -367,2164 -413,3489 -47,1324 26,2764 257,4240 231,1476 621,2989 1196,4561 574,1572 1334,3203 2196,4709 862,1506 1826,2887 2731,4086 905,1198 1751,2216 3039,3672 1288,1456 3018,3352 4349,4809 1331,1456 2262,2473 3630,3978 1367,1504 3170,3495 4290,4752 1119,1257 1555,1778 1785,2049 229,271 252,291 1027,284 774,-6 2300,-39 4222,-99 1922,-59 4241,-145 5519,-145 1278,0 1516,86 1899,89 11,0 23,0 35,0 -91,-108 -255,-316 -577,-740z"/>
</svg>
