<?xml version="1.0" encoding="UTF-8"?>
<!DOCTYPE svg PUBLIC "-//W3C//DTD SVG 1.1//EN" "http://www.w3.org/Graphics/SVG/1.1/DTD/svg11.dtd">
<!-- Creator: CorelDRAW 2018 (64 Bit Versão de avaliação) -->
<svg xmlns="http://www.w3.org/2000/svg" xml:space="preserve" width="240px" height="296px" version="1.1" shape-rendering="geometricPrecision" text-rendering="geometricPrecision" image-rendering="optimizeQuality" fill-rule="evenodd" clip-rule="evenodd" viewBox="0 0 236408 291873" xmlns:xlink="http://www.w3.org/1999/xlink">
	<path class="gola_2" d="M104682 25522c-2111,-164 -2870,-334 -3629,-504 872,1531 1713,3184 2281,4549 736,1769 1012,3054 1264,4315 968,349 1868,662 2676,899 1271,374 2315,559 3880,856 1566,297 3653,707 5179,941 1525,235 2490,294 3864,267 1373,-26 3157,-138 4960,-330 1803,-191 3626,-462 5611,-885 1985,-423 4131,-997 6011,-1598 130,-42 259,-84 387,-126 89,-807 199,-1643 412,-2619 271,-1241 707,-2708 1235,-4194 276,-775 577,-1555 907,-2338 -242,107 -498,205 -791,277 -453,113 -994,166 -2309,275 -1314,109 -3401,274 -5720,442 -2318,169 -4867,340 -6942,443 -2074,102 -3672,135 -5300,92 -1628,-43 -3286,-162 -5846,-300 -2559,-139 -6020,-298 -8130,-462z"/>
</svg>
