<?xml version="1.0" encoding="UTF-8"?>
<!DOCTYPE svg PUBLIC "-//W3C//DTD SVG 1.1//EN" "http://www.w3.org/Graphics/SVG/1.1/DTD/svg11.dtd">
<!-- Creator: CorelDRAW 2018 (64 Bit Versão de avaliação) -->
<svg xmlns="http://www.w3.org/2000/svg" xml:space="preserve" width="240px" height="296px" version="1.1" shape-rendering="geometricPrecision" text-rendering="geometricPrecision" image-rendering="optimizeQuality" fill-rule="evenodd" clip-rule="evenodd" viewBox="0 0 236408 291873" xmlns:xlink="http://www.w3.org/1999/xlink">
	<path class="gola" d="M90339 10694c-193,-645 -247,-1211 -272,-1505 -25,-299 -21,-316 -19,-325 2,-8 2,-8 168,26 167,34 500,103 1843,256 1344,153 3698,391 7165,482 3468,91 8049,35 12314,-48 4264,-83 8211,-194 12214,-242 4002,-47 8061,-31 10815,-63 2754,-32 4205,-111 6450,-248 2245,-136 5284,-331 6804,-426 1520,-95 1520,-91 1518,-31 -2,59 -6,174 -69,404 -64,230 -187,574 -276,785 -89,210 -144,285 -282,510 -138,224 -357,599 -581,916 -8,10 -15,21 -22,31 82,80 165,160 248,240 0,0 0,0 491,448 492,448 1475,1344 2671,2291 1197,947 2608,1946 3575,2544 967,599 1490,797 1752,896 261,99 261,99 424,-571 162,-670 487,-2009 824,-3432 337,-1423 686,-2929 729,-3971 18,-418 -14,-762 -75,-1061 -1116,-451 -2168,-885 -2885,-1193 -903,-388 -1277,-576 -1570,-768 -294,-192 -507,-387 -695,-490 -188,-103 -351,-114 -459,-115 -109,0 -162,10 -247,-4 -86,-13 -202,-51 -579,-287 -376,-237 -1013,-673 -1653,-1175 -640,-503 -1284,-1073 -1927,-1636 -643,-564 -1284,-1121 -2276,-1546 -992,-425 -2335,-717 -3667,-905 -1333,-188 -2655,-273 -4508,-349 -1853,-77 -4236,-147 -7812,-129 -3577,17 -8348,121 -12720,216 -4373,94 -8349,180 -10440,227 -2091,48 -2297,57 -4089,200 -1793,143 -5171,421 -7294,661 -2123,240 -2990,443 -3695,696 -706,253 -1251,555 -1858,1063 -607,507 -1276,1221 -1989,1849 -713,627 -1471,1170 -1923,1437 -452,268 -599,261 -888,361 -290,100 -724,308 -1249,573 -525,265 -1142,587 -1891,908 -734,314 -1594,627 -2226,875 15,727 48,1462 123,2213 135,1339 405,2730 599,3592 194,862 313,1195 372,1362 60,166 60,166 60,166 0,0 0,0 1050,-590 1050,-591 3151,-1772 4613,-2687 1462,-916 2287,-1566 2699,-1891 191,-150 293,-231 348,-274 89,-89 178,-178 267,-266z"/>
</svg>
