<?xml version="1.0" encoding="utf-8"?>
<!-- Generator: Adobe Illustrator 16.0.3, SVG Export Plug-In . SVG Version: 6.00 Build 0)  -->
<!DOCTYPE svg PUBLIC "-//W3C//DTD SVG 1.1//EN" "http://www.w3.org/Graphics/SVG/1.1/DTD/svg11.dtd">
<svg version="1.1" image-rendering="optimizeQuality" text-rendering="geometricPrecision" shape-rendering="geometricPrecision" xmlns="http://www.w3.org/2000/svg" xmlns:xlink="http://www.w3.org/1999/xlink" x="0px" y="0px" width="240px" height="296px" viewBox="0 0 240 296" enable-background="new 0 0 240 296" xml:space="preserve">
	<path class="gola" d="M93.159,8.778c0.655,0.137,1.794,0.358,3.301,0.509c1.505,0.15,3.377,0.228,5.866,0.267s5.595,0.039,9.652-0.008
	c4.056-0.046,9.065-0.141,14.363-0.202c5.297-0.063,10.884-0.094,15.072-0.242c4.19-0.148,6.983-0.413,8.38-0.546
	c1.396-0.132,1.396-0.132,1.396-0.132s0,0-0.109,0.324c-0.109,0.323-0.328,0.971-0.744,1.731c-0.418,0.761-1.035,1.635-1.826,2.454
	c-0.793,0.819-1.759,1.583-2.988,2.336c-1.229,0.753-2.719,1.495-4.689,2.201c-1.97,0.706-4.419,1.377-7.025,1.876
	c-2.605,0.499-5.367,0.827-8.137,0.983s-5.547,0.141-8.637,0.047c-3.089-0.095-6.491-0.266-9.184-0.629
	c-2.691-0.363-4.672-0.917-6.646-1.623s-3.94-1.564-5.435-2.82c-1.495-1.256-2.517-2.911-3.027-4.085
	c-0.512-1.174-0.512-1.868-0.523-2.235c-0.012-0.367-0.035-0.406,0.039-0.4C92.332,8.591,92.504,8.642,93.159,8.778z M156.619,6.762
	l-0.055-0.027l-0.014-0.006l-0.014-0.006l-0.014-0.006l-0.011-0.005L156.51,6.71l-0.014-0.006l-0.014-0.007l-0.014-0.006
	l-0.013-0.006l-0.013-0.006l-0.014-0.006l-0.014-0.006l-0.012-0.005l-0.002-0.001l-0.014-0.007l-0.013-0.006l-0.014-0.006
	l-0.013-0.006l-0.013-0.006l-0.014-0.006l-0.013-0.006l-0.012-0.005l-0.002-0.001l-0.012-0.007l-0.014-0.006l-0.014-0.006
	l-0.014-0.006l-0.012-0.006l-0.014-0.006l-0.014-0.006l-0.012-0.005V6.56l-0.014-0.006l-0.012-0.006l-0.014-0.006l-0.013-0.006
	l-0.013-0.006l-0.013-0.006l-0.014-0.006l-0.011-0.005L156.09,6.51l-0.013-0.006l-0.013-0.006l-0.012-0.006l-0.014-0.006
	l-0.012-0.006l-0.014-0.006l-0.013-0.006l-0.011-0.005l-0.002-0.001l-0.012-0.006l-0.013-0.006l-0.013-0.006l-0.013-0.006
	l-0.013-0.005l-0.012-0.006l-0.013-0.006l-0.013-0.006l0,0l-0.012-0.006L155.864,6.4l-0.013-0.006l-0.012-0.006l-0.013-0.006
	l-0.013-0.005l-0.012-0.006l-0.012-0.006c-2.086-1.03-3.1-1.783-4.072-2.56c-0.973-0.777-1.906-1.576-2.976-2.106
	c-1.069-0.53-2.276-0.79-4.099-1.023c-1.822-0.233-4.262-0.439-6.795-0.554c-2.531-0.113-5.158-0.132-8.504-0.119
	c-3.345,0.014-7.41,0.06-11.676,0.163c-4.265,0.104-8.73,0.264-12.249,0.49c-3.518,0.227-6.091,0.52-7.931,0.766
	c-1.839,0.247-2.946,0.447-3.686,0.72c-0.742,0.273-1.119,0.62-1.429,0.908c-0.311,0.289-0.554,0.519-1.271,1.137
	c-0.718,0.618-1.911,1.625-2.681,2.171l-0.017,0.012l-0.018,0.013h-0.001L88.37,6.396l-0.018,0.012l0,0L88.334,6.42l-0.017,0.011
	v0.001l-0.05,0.035l-0.017,0.01L88.25,6.479l-0.017,0.01L88.218,6.5h-0.001L88.2,6.511l-0.016,0.01l0,0l-0.016,0.011l-0.015,0.01
	h-0.001l-0.017,0.011l-0.014,0.009h-0.001l-0.016,0.01l-0.014,0.009L88.09,6.583l-0.015,0.009l-0.014,0.01h-0.001l-0.016,0.009
	L88.032,6.62l-0.001,0.001l-0.016,0.008l-0.013,0.009h-0.001l-0.015,0.009l-0.013,0.008h-0.001l-0.015,0.009l-0.012,0.007
	l-0.002,0.001L87.93,6.682L87.917,6.69h-0.001l-0.013,0.008L87.89,6.706l-0.002,0.001l-0.013,0.008l-0.012,0.006l-0.001,0.001
	L87.848,6.73l-0.012,0.006l-0.001,0.001l-0.013,0.007L87.81,6.75l-0.002,0.001l-0.013,0.007l-0.01,0.006l-0.002,0.001l-0.014,0.007
	l-0.01,0.006h-0.002l-0.012,0.007l-0.011,0.006l-0.002,0.001L87.718,6.8l-0.01,0.005l-0.002,0.001l-0.012,0.006l-0.01,0.006h-0.002
	L87.67,6.826L87.66,6.83l-0.002,0.001l-0.012,0.006l-0.009,0.005l-0.003,0.001l-0.011,0.006l-0.009,0.004l-0.003,0.001L87.598,6.86
	l-0.009,0.005l-0.002,0.001l-0.011,0.005l-0.01,0.005h-0.002l-0.011,0.006l-0.009,0.004l-0.002,0.001l-0.011,0.005L87.52,6.896
	l-0.002,0.002c-0.388,0.373-0.776,0.745-1.06,1.355c-0.284,0.609-0.463,1.457-0.487,2.577c-0.023,1.122,0.109,2.519,0.425,3.861
	c0.316,1.341,0.815,2.628,1.677,4.025c0.863,1.397,2.087,2.903,3.812,4.257c1.725,1.354,3.947,2.555,6.417,3.529
	c2.469,0.977,5.184,1.725,8.523,2.24c3.339,0.516,7.303,0.795,11.375,0.866c4.072,0.07,8.255-0.071,12.156-0.585
	c3.9-0.515,7.52-1.404,10.617-2.488c3.098-1.086,5.672-2.365,7.693-3.613s3.487-2.465,4.657-3.705
	c1.171-1.241,2.045-2.505,2.7-3.956c0.656-1.451,1.092-3.089,1.26-4.402c0.168-1.313,0.066-2.299-0.237-3.157
	C156.931,7.371,156.783,7.061,156.619,6.762z"/>
</svg>
