<?xml version="1.0" encoding="UTF-8"?>
<!DOCTYPE svg PUBLIC "-//W3C//DTD SVG 1.1//EN" "http://www.w3.org/Graphics/SVG/1.1/DTD/svg11.dtd">
<!-- Creator: CorelDRAW 2018 (64 Bit Versão de avaliação) -->
<svg xmlns="http://www.w3.org/2000/svg" xml:space="preserve" width="240px" height="296px" version="1.1" shape-rendering="geometricPrecision" text-rendering="geometricPrecision" image-rendering="optimizeQuality" fill-rule="evenodd" clip-rule="evenodd"
viewBox="0 0 236408 291873"
 xmlns:xlink="http://www.w3.org/1999/xlink">
	<path class="gola" d="M93197 10317c7,-858 -12,-969 -32,-1080 3060,222 6119,444 9503,523 3385,79 7094,16 12769,-111 5675,-127 13316,-317 18464,-434 5148,-117 7803,-160 9603,-247 1799,-88 2742,-218 3214,-284 471,-65 471,-65 459,902 -12,967 -35,2901 -257,4767 -222,1867 -642,3666 -1284,5477 -642,1811 -1506,3634 -2279,5093 -773,1458 -1454,2552 -2144,3563 -690,1010 -1387,1938 -2429,3210 -1043,1272 -2430,2889 -3680,4248 -1250,1359 -2364,2461 -3359,3323 -995,862 -1870,1484 -2685,2089 -814,604 -1567,1191 -2217,1547 -650,357 -1197,484 -2929,591 -1732,107 -4649,194 -6670,150 -2021,-43 -3146,-218 -3887,-372 -742,-155 -1098,-289 -1677,-710 -578,-420 -1379,-1125 -2251,-1918 -872,-792 -1815,-1672 -2782,-2580 -967,-907 -1958,-1842 -3036,-3075 -1078,-1232 -2243,-2762 -3325,-4284 -1082,-1522 -2080,-3036 -2885,-4387 -804,-1352 -1415,-2540 -1973,-3904 -559,-1363 -1066,-2901 -1443,-4268 -376,-1367 -622,-2564 -727,-3965 -105,-1401 -69,-3006 -61,-3864zm-8872 -3031c-140,888 -281,1776 -276,2942 5,1165 156,2607 437,4018 281,1411 694,2790 1209,4486 515,1697 1133,3710 2330,5905 1197,2196 2972,4574 4756,6563 1783,1990 3574,3591 5857,5358 2283,1768 5057,3702 7569,5168 2513,1466 4764,2465 6016,3004 1253,539 1506,618 2608,634 1102,16 3052,-32 5065,-40 2013,-7 4090,24 5825,-174 1736,-198 3131,-626 4411,-1228 1280,-603 2446,-1380 3928,-2355 1482,-974 3281,-2148 5227,-3471 1946,-1324 4038,-2798 5572,-4154 1534,-1355 2509,-2591 3559,-3923 1050,-1332 2176,-2758 3091,-4161 915,-1403 1621,-2782 2136,-4145 515,-1364 840,-2711 1130,-3971 289,-1261 543,-2434 701,-3642 159,-1209 222,-2454 262,-3418 39,-965 55,-1651 57,-2194 2,-441 -6,-788 -15,-1117 -843,-364 -1203,-546 -1487,-732 -294,-192 -507,-387 -695,-490 -188,-103 -351,-114 -459,-115 -109,0 -162,10 -247,-4 -86,-13 -202,-51 -579,-287 -376,-237 -1013,-673 -1653,-1175 -640,-503 -1284,-1073 -1927,-1636 -643,-564 -1284,-1121 -2276,-1546 -992,-425 -2335,-717 -3667,-905 -1333,-188 -2655,-273 -4508,-349 -1853,-77 -4236,-147 -7812,-129 -3577,17 -8348,121 -12720,216 -4373,94 -8349,180 -10440,227 -2091,48 -2297,57 -4089,200 -1793,143 -5171,421 -7294,661 -2123,240 -2990,443 -3695,696 -706,253 -1251,555 -1858,1063 -607,507 -1276,1221 -1989,1849 -713,627 -1471,1170 -1923,1437 -452,268 -599,261 -888,361 -290,100 -724,308 -1249,573z"/>
</svg>
