<?xml version="1.0" encoding="UTF-8"?>
<!DOCTYPE svg PUBLIC "-//W3C//DTD SVG 1.1//EN" "http://www.w3.org/Graphics/SVG/1.1/DTD/svg11.dtd">
<!-- Creator: CorelDRAW 2018 (64 Bit Versão de avaliação) -->
<svg xmlns="http://www.w3.org/2000/svg" xml:space="preserve" width="240px" height="307px" version="1.1" shape-rendering="geometricPrecision" text-rendering="geometricPrecision" image-rendering="optimizeQuality" fill-rule="evenodd" clip-rule="evenodd" viewBox="0 0 236408 302261" xmlns:xlink="http://www.w3.org/1999/xlink">
	<path class="fundo_gola" d="M109065 11151c-2843,292 -5469,748 -7891,1223 -2423,476 -4642,971 -6074,1333 -1110,280 -1747,480 -2277,662 194,145 388,283 577,412 324,220 633,413 986,610 366,206 761,410 1245,647 667,325 1526,727 2401,1137 516,241 1034,483 1267,593 623,294 1217,579 1814,885 588,300 1148,608 1691,941 217,133 432,271 644,413 334,223 660,455 971,693 494,377 954,771 1357,1167 413,406 765,812 1069,1233 306,422 566,861 797,1331 217,439 408,910 575,1390 91,265 175,531 250,795 134,13 141,77 358,136 217,60 524,236 1266,293 183,14 1000,116 1186,130 3725,263 7724,228 11798,177 2217,-28 4387,-389 6411,-545 742,-57 1316,-116 1589,-144 154,-16 324,-34 458,-47 75,-264 159,-530 250,-795 167,-480 358,-951 575,-1390 231,-470 491,-909 797,-1331 304,-421 656,-827 1069,-1233 403,-396 863,-790 1357,-1167 509,-389 1056,-763 1615,-1106 57,-35 114,-70 171,-104 489,-294 994,-568 1520,-837 597,-306 1191,-591 1814,-885 233,-110 751,-352 1267,-593 875,-410 1734,-812 2401,-1137 484,-237 879,-441 1245,-647 353,-197 662,-390 986,-610 342,-233 701,-497 1044,-774 13,-10 26,-21 39,-31 -1623,-362 -3264,-722 -5125,-1052 -2036,-362 -4335,-689 -6767,-1006 -2432,-317 -4998,-624 -7980,-842 -2982,-218 -6381,-346 -9610,-346 -3230,0 -6292,128 -9136,421z"/>
</svg>
