<?xml version="1.0" encoding="UTF-8"?>
<!DOCTYPE svg PUBLIC "-//W3C//DTD SVG 1.1//EN" "http://www.w3.org/Graphics/SVG/1.1/DTD/svg11.dtd">
<!-- Creator: CorelDRAW 2018 (64 Bit Versão de avaliação) -->
<svg xmlns="http://www.w3.org/2000/svg" xml:space="preserve" width="240px" height="307px" version="1.1" shape-rendering="geometricPrecision" text-rendering="geometricPrecision" image-rendering="optimizeQuality" fill-rule="evenodd" clip-rule="evenodd" viewBox="0 0 236408 302261" xmlns:xlink="http://www.w3.org/1999/xlink">
	<path class="gola_2" d="M108901 34396c-188,-35 -376,-70 -566,-107 -2,-521 -4,-1036 -10,-1532 -8,-779 -24,-1514 -53,-2158 -28,-622 -69,-1153 -131,-1652 -61,-489 -142,-934 -248,-1392 -113,-488 -254,-989 -423,-1477 -153,-443 -332,-881 -537,-1298 -210,-427 -448,-828 -729,-1215 -281,-389 -604,-763 -983,-1135 -377,-370 -812,-742 -1282,-1102 -488,-373 -1012,-731 -1547,-1059 -536,-329 -1077,-627 -1638,-914 -551,-282 -1152,-569 -1793,-872 -593,-279 -931,-437 -1263,-593 -871,-408 -1726,-808 -2413,-1143 -521,-255 -931,-466 -1286,-665 -370,-208 -698,-412 -1044,-647 -357,-243 -733,-520 -1095,-812 -331,-267 -652,-548 -935,-826 -296,-291 -554,-583 -780,-868 -224,-283 -414,-557 -580,-817 -170,-268 -316,-522 -438,-787 -124,-270 -228,-557 -313,-889 -85,-331 -151,-702 -190,-1079 -37,-363 -51,-735 -34,-1086 17,-363 65,-704 158,-1042 45,-87 90,-172 135,-255 504,-938 952,-1582 1399,-2225 224,-226 470,-445 735,-648 404,-309 855,-584 1377,-838 512,-249 1094,-477 1770,-696 602,-195 1270,-381 1943,-552 826,-209 1677,-399 2425,-556 672,-140 1257,-252 1856,-350 605,-99 1214,-183 1926,-266 686,-80 1506,-163 2387,-243 894,-81 1800,-154 2646,-213 850,-59 1682,-107 2562,-149 855,-39 1752,-72 2755,-100 986,-28 2083,-52 3104,-72 1008,-20 1943,-35 2618,-45 669,-11 1082,-16 1365,-19 96,-1 178,-2 249,-2 71,0 153,1 249,2 283,3 696,8 1365,19 675,10 1610,25 2618,45 1021,20 2118,44 3104,72 1003,28 1900,61 2755,100 880,42 1712,90 2562,149 846,59 1752,132 2646,213 881,80 1701,163 2387,243 712,83 1321,167 1926,266 599,98 1184,210 1856,350 748,157 1599,347 2425,556 673,171 1341,357 1943,552 676,219 1258,447 1770,696 522,254 973,529 1377,838 265,203 511,422 735,648 447,643 895,1287 1399,2225 45,83 90,168 135,255 93,338 141,679 158,1042 17,351 3,723 -34,1086 -39,377 -105,748 -190,1079 -85,332 -189,619 -313,889 -122,265 -268,519 -438,787 -166,260 -356,534 -580,817 -226,285 -484,577 -780,868 -283,278 -604,559 -935,826 -362,292 -738,569 -1095,812 -346,235 -674,439 -1044,647 -355,199 -765,410 -1286,665 -687,335 -1542,735 -2413,1143 -332,156 -670,314 -1263,593 -641,303 -1242,590 -1793,872 -561,287 -1102,585 -1638,914 -535,328 -1059,686 -1547,1059 -470,360 -905,732 -1282,1102 -379,372 -702,746 -983,1135 -281,387 -519,788 -729,1215 -205,417 -384,855 -537,1298 -169,488 -310,989 -423,1477 -106,458 -187,903 -248,1392 -62,499 -103,1030 -131,1652 -29,644 -45,1379 -53,2158 -6,496 -8,1011 -10,1532 -190,37 -378,72 -566,107 -75,10 -149,20 -224,29 2,-571 5,-1135 10,-1674 9,-802 25,-1549 53,-2186 30,-660 72,-1212 135,-1714 64,-510 149,-981 263,-1472 58,-250 123,-506 197,-763 75,-264 159,-530 250,-795 167,-480 358,-951 575,-1390 231,-470 491,-909 797,-1331 304,-421 656,-827 1069,-1233 403,-396 863,-790 1357,-1167 509,-389 1056,-763 1615,-1106 543,-333 1103,-641 1691,-941 597,-306 1191,-591 1814,-885 233,-110 751,-352 1267,-593 875,-410 1734,-812 2401,-1137 484,-237 879,-441 1245,-647 353,-197 662,-390 986,-610 342,-233 701,-497 1044,-774 313,-252 614,-515 877,-774 276,-271 512,-537 715,-793 205,-259 380,-511 533,-752 31,-49 61,-97 90,-145 89,-145 169,-288 241,-435l0 0c19,-38 37,-76 55,-114 107,-234 195,-477 266,-753 75,-290 133,-621 168,-964 34,-327 46,-660 32,-972 -15,-309 -56,-598 -135,-882 -80,-284 -198,-566 -365,-862 -179,-317 -416,-652 -704,-979 -263,-297 -569,-588 -914,-852 -363,-278 -769,-525 -1241,-755 -482,-234 -1030,-449 -1668,-656 -572,-185 -1225,-367 -1892,-536 -832,-210 -1668,-398 -2395,-550 -663,-138 -1238,-248 -1822,-344 -578,-94 -1175,-176 -1889,-259 -729,-85 -1541,-168 -2368,-243 -836,-76 -1736,-148 -2627,-210 -876,-61 -1702,-110 -2544,-149 -868,-41 -1760,-73 -2743,-101 -1001,-28 -2090,-52 -3095,-72 -1017,-19 -1946,-35 -2614,-45 -674,-10 -1084,-16 -1362,-18 -94,-1 -174,-2 -243,-2 -69,0 -149,1 -243,2 -278,2 -688,8 -1362,18 -668,10 -1597,26 -2614,45 -1005,20 -2094,44 -3095,72 -983,28 -1875,60 -2743,101 -842,39 -1668,88 -2544,149 -891,62 -1791,134 -2627,210 -827,75 -1639,158 -2368,243 -714,83 -1311,165 -1889,259 -584,96 -1159,206 -1822,344 -727,152 -1563,340 -2395,550 -667,169 -1320,351 -1892,536 -638,207 -1186,422 -1668,656 -472,230 -878,477 -1241,755 -345,264 -651,555 -914,852 -288,327 -525,662 -704,979 -167,296 -285,578 -365,862 -79,284 -120,573 -135,882 -14,312 -2,645 32,972 35,343 93,674 168,964 71,276 159,519 266,753 18,38 36,76 55,114l0 0c72,147 152,290 241,435 29,48 59,96 90,145 153,241 328,493 533,752 203,256 439,522 715,793 263,259 564,522 877,774 343,277 702,541 1044,774 324,220 633,413 986,610 366,206 761,410 1245,647 667,325 1526,727 2401,1137 516,241 1034,483 1267,593 623,294 1217,579 1814,885 588,300 1148,608 1691,941 559,343 1106,717 1615,1106 494,377 954,771 1357,1167 413,406 765,812 1069,1233 306,422 566,861 797,1331 217,439 408,910 575,1390 91,265 175,531 250,795 74,257 139,513 197,763 114,491 199,962 263,1472 63,502 105,1054 135,1714 28,637 44,1384 53,2186 5,539 8,1103 10,1674 -75,-9 -149,-19 -224,-29z"/>
</svg>
