<?xml version="1.0" encoding="UTF-8"?>
<!DOCTYPE svg PUBLIC "-//W3C//DTD SVG 1.1//EN" "http://www.w3.org/Graphics/SVG/1.1/DTD/svg11.dtd">
<!-- Creator: CorelDRAW 2018 (64 Bit Versão de avaliação) -->
<svg xmlns="http://www.w3.org/2000/svg" xml:space="preserve" width="240px" height="306px" version="1.1" shape-rendering="geometricPrecision" text-rendering="geometricPrecision" image-rendering="optimizeQuality" fill-rule="evenodd" clip-rule="evenodd"
viewBox="0 0 236408 300866"
 xmlns:xlink="http://www.w3.org/1999/xlink">
	<path class="fundo_gola" d="M97221 28818c721,1199 1296,2079 2146,3091 850,1013 1975,2158 2912,2935 938,777 1687,1185 2422,1605 735,420 1456,852 2080,1278 625,426 1152,846 1849,1177 698,331 1566,573 2239,816 674,244 1154,490 1657,716 503,226 1030,432 1514,759 483,327 923,774 1688,1615 765,840 1855,2072 2667,3016 813,943 1348,1597 1708,2033 361,436 547,653 676,725 129,71 200,-4 495,-260 296,-255 815,-691 1389,-1167 575,-475 1205,-991 2159,-1759 953,-769 2229,-1792 3362,-2592 1134,-801 2124,-1379 2759,-1887 634,-507 911,-943 1264,-1236 353,-293 781,-444 1280,-816 499,-373 1070,-967 1442,-1292 373,-325 547,-381 841,-638 293,-258 705,-718 1141,-1177 436,-460 896,-920 1343,-1336 448,-416 884,-789 1483,-1597 598,-809 1359,-2053 2096,-3515 737,-1463 1450,-3143 1946,-4748 495,-1605 773,-3135 913,-4490 141,-1356 145,-2537 147,-3127 2,-591 2,-591 -73,-589 -76,2 -226,6 -1116,16 -890,10 -2518,26 -4407,-33 -1888,-60 -4036,-195 -6882,-250 -2845,-56 -6388,-32 -10133,20 -3745,51 -7692,130 -11874,243 -4181,113 -8595,260 -11526,337 -2931,78 -4377,86 -5101,89 -723,4 -723,4 -723,4 0,0 0,0 59,456 60,456 179,1367 472,2667 293,1300 761,2988 1429,4591 667,1603 1535,3121 2257,4320z"/>
</svg>
