<?xml version="1.0" encoding="UTF-8"?>
<!DOCTYPE svg PUBLIC "-//W3C//DTD SVG 1.1//EN" "http://www.w3.org/Graphics/SVG/1.1/DTD/svg11.dtd">
<!-- Creator: CorelDRAW 2018 (64 Bit Versão de avaliação) -->
<svg xmlns="http://www.w3.org/2000/svg" xml:space="preserve" width="240px" height="296px" version="1.1" shape-rendering="geometricPrecision" text-rendering="geometricPrecision" image-rendering="optimizeQuality" fill-rule="evenodd" clip-rule="evenodd"
viewBox="0 0 236408 291873"
 xmlns:xlink="http://www.w3.org/1999/xlink">
	<path class="fundo_gola" d="M93165 9237c20,111 39,222 32,1080 -8,858 -44,2463 61,3864 105,1401 351,2598 727,3965 377,1367 884,2905 1443,4268 558,1364 1169,2552 1973,3904 805,1351 1803,2865 2885,4387 1082,1522 2247,3052 3325,4284 1078,1233 2069,2168 3036,3075 967,908 1910,1788 2782,2580 872,793 1673,1498 2251,1918 579,421 935,555 1677,710 741,154 1866,329 3887,372 2021,44 4938,-43 6670,-150 1732,-107 2279,-234 2929,-591 650,-356 1403,-943 2217,-1547 815,-605 1690,-1227 2685,-2089 995,-862 2109,-1964 3359,-3323 1250,-1359 2637,-2976 3680,-4248 1042,-1272 1739,-2200 2429,-3210 690,-1011 1371,-2105 2144,-3563 773,-1459 1637,-3282 2279,-5093 642,-1811 1062,-3610 1284,-5477 222,-1866 245,-3800 257,-4767 12,-967 12,-967 -459,-902 -472,66 -1415,196 -3214,284 -1800,87 -4455,130 -9603,247 -5148,117 -12789,307 -18464,434 -5675,127 -9384,190 -12769,111 -3384,-79 -6443,-301 -9503,-523z"/>
</svg>
